<?xml version="1.0" encoding="UTF-8" standalone="no"?>
<!DOCTYPE svg PUBLIC "-//W3C//DTD SVG 1.1//EN" "http://www.w3.org/Graphics/SVG/1.1/DTD/svg11.dtd">
<svg xmlns="http://www.w3.org/2000/svg" version="1.1" viewBox="0 0 600 300">
<path fill="#000000" d="
  M 600.00 126.06
  L 600.00 129.31
  C 598.33 169.32 551.71 168.53 524.43 162.91
  A 0.64 0.61 5.3 0 1 523.92 162.32
  L 523.76 135.29
  A 0.68 0.67 8.0 0 1 524.63 134.64
  C 533.16 137.15 568.66 143.31 569.44 128.79
  Q 569.66 124.76 565.19 122.81
  C 546.17 114.51 521.64 113.53 521.49 83.82
  C 521.38 62.82 538.68 45.74 559.75 46.00
  Q 573.66 46.17 587.55 47.50
  A 1.13 1.12 -87.2 0 1 588.56 48.62
  L 588.50 75.20
  A 0.67 0.66 -82.4 0 1 587.66 75.85
  C 579.92 73.72 552.48 68.97 551.08 81.96
  Q 550.65 85.99 555.31 88.19
  C 573.39 96.71 599.00 96.42 600.00 126.06
  Z"
/>
<path fill="#000000" d="
  M 0.00 162.53
  L 0.00 48.37
  Q 19.73 47.41 44.50 47.50
  C 62.65 47.57 78.29 53.58 86.94 70.38
  Q 94.84 85.73 90.56 103.06
  C 83.59 131.33 59.82 139.78 33.45 138.29
  C 29.31 138.06 30.05 138.31 29.98 141.95
  Q 29.81 152.10 30.00 162.26
  A 0.67 0.66 90.0 0 1 29.33 162.94
  L 0.00 162.53
  Z
  M 59.09 96.65
  C 62.15 77.79 46.38 71.11 30.68 73.55
  A 1.10 1.09 -4.9 0 0 29.75 74.64
  L 30.05 111.69
  A 0.58 0.57 -87.1 0 0 30.55 112.25
  C 42.46 113.76 56.94 109.91 59.09 96.65
  Z"
/>
<path fill="#000000" d="
  M 448.56 139.07
  L 448.50 162.01
  A 0.94 0.91 -0.0 0 1 447.56 162.92
  L 419.07 162.94
  A 0.51 0.49 0.0 0 1 418.56 162.45
  L 418.56 49.02
  A 0.99 0.98 89.4 0 1 419.52 48.03
  Q 440.62 47.56 460.25 47.50
  C 481.39 47.43 499.24 53.53 507.31 74.44
  Q 513.95 91.61 507.04 109.38
  C 499.02 129.98 480.56 138.81 459.25 138.25
  Q 453.48 138.10 449.07 138.51
  A 0.57 0.56 -2.8 0 0 448.56 139.07
  Z
  M 449.44 112.44
  C 464.14 113.23 479.19 108.67 477.75 90.50
  C 476.55 75.40 461.97 71.13 449.00 73.59
  A 0.62 0.62 84.3 0 0 448.50 74.20
  L 448.50 111.45
  A 0.99 0.99 1.5 0 0 449.44 112.44
  Z"
/>
<path fill="#000000" d="
  M 168.75 90.01
  L 168.52 49.29
  A 1.24 1.20 0.0 0 1 169.77 48.08
  L 197.93 48.31
  A 0.52 0.50 0.6 0 1 198.44 48.81
  L 198.50 162.33
  A 0.67 0.67 0.0 0 1 197.83 163.00
  L 169.24 163.00
  A 0.74 0.73 -0.0 0 1 168.50 162.27
  L 168.77 118.07
  A 1.25 1.23 -89.8 0 0 167.54 116.81
  L 137.37 116.75
  A 0.88 0.87 90.0 0 0 136.50 117.63
  L 136.50 161.74
  A 1.25 1.22 -89.8 0 1 135.27 162.99
  L 107.18 162.82
  A 0.51 0.50 90.0 0 1 106.68 162.31
  L 106.56 48.92
  A 0.74 0.74 -89.5 0 1 107.30 48.18
  L 135.87 48.25
  A 0.65 0.64 89.5 0 1 136.51 48.89
  L 136.68 90.31
  A 0.50 0.49 0.0 0 0 137.18 90.80
  L 167.83 90.93
  A 0.92 0.91 -0.3 0 0 168.75 90.01
  Z"
/>
<rect fill="#000000" x="226.72" y="48.23" width="29.78" height="114.76" rx="0.48"/>
<path fill="#000000" d="
  M 344.97 136.94
  A 0.54 0.53 90.0 0 1 345.50 137.48
  L 345.50 162.01
  A 0.99 0.99 0.0 0 1 344.51 163.00
  L 285.52 163.00
  A 0.71 0.70 -0.0 0 1 284.81 162.30
  L 284.75 48.79
  A 0.63 0.61 0.0 0 1 285.38 48.18
  L 313.78 48.07
  A 0.71 0.69 -0.4 0 1 314.50 48.76
  L 314.50 136.01
  A 0.94 0.92 0.0 0 0 315.44 136.93
  L 344.97 136.94
  Z"
/>
<rect fill="#000000" x="360.25" y="48.25" width="30.00" height="114.74" rx="0.69"/>
<path fill="#000000" d="
  M 344.73 196.25
  C 344.72 182.22 360.95 178.91 371.50 178.88
  Q 403.78 178.80 435.02 178.69
  Q 438.25 178.68 438.25 181.91
  C 438.25 184.28 438.82 189.79 437.61 191.56
  C 436.51 193.14 435.11 192.75 433.36 192.75
  Q 404.43 192.75 375.50 192.84
  Q 371.20 192.85 366.74 193.80
  Q 363.50 194.50 363.50 197.81
  Q 363.50 214.11 363.50 231.42
  C 363.50 234.63 363.19 236.84 367.05 237.74
  Q 371.10 238.68 375.25 238.66
  Q 404.75 238.50 434.25 238.50
  C 440.20 238.50 438.25 246.63 438.25 250.50
  Q 438.25 252.68 436.44 252.69
  Q 406.59 252.80 376.75 252.93
  C 362.49 252.99 344.75 251.29 344.75 232.57
  Q 344.75 214.41 344.73 196.25
  Z"
/>
<path fill="#000000" d="
  M 455.94 180.69
  Q 455.94 178.68 457.94 178.69
  Q 488.91 178.79 519.88 178.76
  C 532.54 178.75 557.51 177.57 562.10 194.02
  Q 562.75 196.37 562.75 202.03
  Q 562.75 213.07 562.75 224.11
  Q 562.75 234.67 562.39 236.37
  C 559.22 251.11 538.83 252.96 526.50 252.90
  Q 493.00 252.75 459.09 252.75
  Q 455.80 252.75 455.81 249.49
  L 455.94 180.69
  Z
  M 474.69 237.97
  A 0.58 0.58 -89.5 0 0 475.27 238.56
  Q 502.72 238.45 530.50 238.51
  Q 537.30 238.52 541.69 235.94
  C 544.25 234.43 543.98 231.68 544.01 228.98
  Q 544.16 214.74 543.81 200.50
  C 543.61 192.42 531.48 192.73 526.00 192.73
  Q 501.50 192.75 475.78 192.75
  A 1.03 1.03 89.8 0 0 474.75 193.78
  L 474.69 237.97
  Z"
/>
<rect fill="#000000" x="581.01" y="178.67" width="18.74" height="74.08" rx="2.72"/>
<path fill="#000000" d="
  M -0.07 197.31
  L 0.00 182.94
  Q 1.68 179.49 4.50 179.25
  Q 16.27 178.26 27.12 178.88
  A 1.27 1.27 87.2 0 1 28.30 179.95
  C 28.83 183.36 28.39 183.02 25.32 182.98
  Q 16.05 182.85 7.08 183.24
  A 1.64 1.64 -1.1 0 0 5.50 184.88
  L 5.50 195.43
  A 1.57 1.56 -88.5 0 0 6.98 197.00
  Q 17.22 197.55 27.45 197.08
  A 0.80 0.75 -13.9 0 1 28.18 197.49
  Q 29.07 199.25 28.18 201.00
  A 0.81 0.74 12.8 0 1 27.44 201.42
  C 21.30 201.20 15.02 201.01 8.88 201.46
  Q 3.21 201.87 -0.07 197.31
  Z"
/>
<path fill="#000000" d="
  M 55.75 178.75
  C 66.86 178.75 65.26 184.99 65.64 193.03
  Q 66.02 201.25 57.50 201.25
  Q 45.50 201.25 33.42 201.25
  A 0.67 0.67 -0.0 0 1 32.75 200.58
  L 32.75 179.84
  A 1.09 1.09 0.0 0 1 33.84 178.75
  Q 44.63 178.75 55.75 178.75
  Z
  M 59.63 194.64
  L 59.71 185.66
  Q 59.72 183.26 57.31 183.23
  L 39.49 183.02
  A 1.25 1.22 -89.5 0 0 38.25 184.27
  L 38.31 196.26
  A 0.96 0.94 89.4 0 0 39.27 197.22
  L 57.21 196.99
  Q 59.61 196.96 59.63 194.64
  Z"
/>
<path fill="#000000" d="
  M 0.00 225.94
  L 0.00 205.19
  C 0.75 203.77 5.86 203.31 5.64 205.93
  C 5.08 212.51 5.54 219.42 5.33 226.06
  A 0.72 0.69 83.4 0 1 4.83 226.72
  Q 2.26 227.43 0.00 225.94
  Z"
/>
<path fill="#000000" d="
  M 36.82 220.22
  C 37.95 220.16 37.25 218.95 37.25 218.23
  Q 37.21 211.56 37.30 205.84
  A 1.35 1.35 -5.6 0 1 38.38 204.53
  C 43.38 203.51 42.72 204.86 42.78 208.97
  Q 42.89 217.49 42.52 225.99
  A 0.69 0.64 85.2 0 1 42.02 226.63
  Q 39.21 227.30 36.19 225.31
  Q 25.41 218.24 14.96 211.14
  Q 14.41 210.77 14.42 211.43
  L 14.50 225.24
  A 1.32 1.19 89.3 0 1 13.33 226.57
  L 9.72 226.62
  A 0.66 0.48 87.2 0 1 9.22 226.00
  Q 8.65 215.63 9.22 205.25
  A 0.84 0.78 81.1 0 1 9.70 204.54
  Q 12.11 203.56 14.56 205.19
  Q 24.39 211.73 34.19 218.31
  Q 35.46 219.16 36.02 219.79
  A 1.18 0.74 60.3 0 0 36.82 220.22
  Z"
/>
<path fill="#000000" d="
  M 57.93 208.55
  L 46.98 208.51
  A 0.87 0.84 -7.1 0 1 46.16 207.90
  Q 45.26 204.81 46.65 204.29
  Q 46.75 204.25 49.36 204.25
  Q 62.21 204.25 75.55 204.25
  A 0.94 0.93 -6.6 0 1 76.46 204.97
  Q 77.12 207.84 76.03 208.43
  C 75.01 208.98 66.68 208.50 64.92 208.50
  A 0.67 0.67 0.0 0 0 64.25 209.17
  L 64.25 225.69
  A 0.94 0.84 -90.0 0 1 63.41 226.63
  L 59.24 226.61
  A 0.61 0.52 89.9 0 1 58.73 226.01
  L 58.43 209.05
  A 0.51 0.50 89.4 0 0 57.93 208.55
  Z"
/>
<path fill="#000000" d="
  M 86.32 212.94
  L 104.43 213.06
  A 0.86 0.79 -12.2 0 1 105.18 213.50
  Q 105.97 215.12 105.18 216.75
  A 0.84 0.79 12.5 0 1 104.44 217.19
  L 86.54 217.25
  A 0.64 0.55 -0.4 0 0 85.90 217.81
  L 85.94 222.20
  A 0.60 0.47 -1.1 0 0 86.56 222.67
  Q 94.20 222.40 101.85 222.48
  C 104.74 222.51 107.96 221.84 106.37 226.21
  A 0.73 0.70 -80.1 0 1 105.70 226.70
  L 80.94 226.58
  A 0.54 0.51 0.6 0 1 80.41 226.07
  L 80.47 205.01
  A 0.55 0.54 -0.6 0 1 81.00 204.48
  Q 93.28 203.94 105.56 204.42
  A 0.85 0.79 -9.9 0 1 106.29 204.89
  Q 106.98 206.48 106.19 208.00
  A 0.84 0.79 12.5 0 1 105.45 208.44
  L 86.61 208.50
  A 0.87 0.83 -0.3 0 0 85.74 209.34
  L 85.79 212.44
  A 0.53 0.50 -0.0 0 0 86.32 212.94
  Z"
/>
<path fill="#000000" d="
  M 116.49 217.80
  L 116.32 225.28
  A 1.27 1.00 -89.6 0 1 115.33 226.51
  L 111.30 226.58
  A 0.63 0.48 89.6 0 1 110.81 225.95
  L 110.75 204.95
  A 0.71 0.70 -0.0 0 1 111.46 204.25
  Q 120.38 204.25 128.75 204.08
  C 134.42 203.97 141.20 204.77 140.00 212.19
  Q 139.45 215.55 134.92 217.25
  A 0.50 0.50 64.1 0 0 134.67 217.98
  L 139.45 225.67
  Q 140.09 226.70 138.93 226.69
  L 134.42 226.63
  A 1.04 0.74 69.1 0 1 133.67 226.13
  L 128.57 217.90
  A 1.36 1.33 73.6 0 0 127.43 217.26
  L 117.07 217.30
  A 0.59 0.51 -0.1 0 0 116.49 217.80
  Z
  M 134.3520 209.6058
  A 1.10 1.10 0.0 0 0 133.2539 208.5039
  L 117.3139 208.4761
  A 1.10 1.10 0.0 0 0 116.2120 209.5742
  L 116.2080 211.8742
  A 1.10 1.10 0.0 0 0 117.3061 212.9761
  L 133.2461 213.0039
  A 1.10 1.10 0.0 0 0 134.3480 211.9058
  L 134.3520 209.6058
  Z"
/>
<path fill="#000000" d="
  M 160.93 209.80
  A 0.38 0.38 -44.7 0 0 160.32 209.80
  L 147.99 226.30
  A 1.04 1.00 -70.9 0 1 147.18 226.71
  L 142.98 226.72
  Q 141.51 226.73 142.43 225.56
  Q 150.44 215.29 157.81 205.31
  C 159.29 203.31 162.17 203.88 163.69 205.87
  Q 170.97 215.39 178.75 225.55
  Q 179.54 226.58 178.31 226.57
  L 173.55 226.56
  A 1.21 0.66 62.5 0 1 172.76 226.03
  L 160.93 209.80
  Z"
/>
<path fill="#000000" d="
  M 208.38 222.68
  A 1.32 1.31 -1.9 0 1 209.67 223.88
  C 209.97 227.23 209.13 226.72 206.68 226.76
  Q 190.95 227.02 186.25 226.50
  C 179.09 225.71 180.81 215.31 181.15 210.23
  Q 181.32 207.63 182.61 206.34
  C 185.76 203.19 199.89 204.13 206.68 204.24
  C 209.19 204.28 210.08 203.85 209.65 207.30
  A 1.38 1.37 3.5 0 1 208.28 208.50
  L 188.51 208.57
  A 1.78 1.76 -90.0 0 0 186.75 210.35
  L 186.75 221.16
  A 1.10 1.09 -89.5 0 0 187.82 222.26
  L 208.38 222.68
  Z"
/>
<path fill="#000000" d="
  M 224.69 208.55
  L 213.46 208.50
  A 0.77 0.76 -4.9 0 1 212.70 207.87
  Q 212.35 205.91 212.64 204.79
  A 0.71 0.65 6.9 0 1 213.31 204.31
  L 242.68 204.31
  A 0.72 0.64 -6.8 0 1 243.36 204.78
  Q 243.65 205.88 243.32 207.76
  A 0.89 0.89 -85.0 0 1 242.44 208.50
  L 231.66 208.50
  A 0.66 0.66 0.0 0 0 231.00 209.16
  L 231.00 225.82
  A 0.93 0.93 0.0 0 1 230.07 226.75
  L 226.49 226.75
  A 1.22 1.22 2.2 0 1 225.27 225.44
  Q 225.90 217.39 225.23 209.06
  A 0.55 0.54 87.7 0 0 224.69 208.55
  Z"
/>
<rect fill="#000000" x="-2.83" y="-11.28" transform="translate(249.67,215.55) rotate(0.1)" width="5.66" height="22.56" rx="0.95"/>
<path fill="#000000" d="
  M 274.18 220.83
  L 285.94 204.90
  A 1.21 0.81 -65.7 0 1 286.74 204.40
  L 291.06 204.34
  Q 292.44 204.32 291.52 205.54
  L 275.99 226.03
  A 1.50 1.23 -74.2 0 1 275.21 226.57
  Q 273.59 226.99 271.93 226.67
  A 1.33 1.27 75.7 0 1 271.13 226.17
  L 255.38 205.50
  Q 254.55 204.41 255.87 204.40
  L 260.08 204.35
  A 1.15 0.80 66.0 0 1 260.87 204.83
  L 272.81 220.84
  A 0.85 0.85 -45.4 0 0 274.18 220.83
  Z"
/>
<path fill="#000000" d="
  M 299.95 217.79
  Q 299.49 219.90 299.91 221.94
  A 0.72 0.71 -6.0 0 0 300.61 222.50
  L 319.44 222.56
  A 1.04 0.96 -16.9 0 1 320.25 222.95
  Q 321.57 224.75 320.25 226.55
  A 1.03 0.86 15.4 0 1 319.44 226.92
  L 295.13 226.76
  A 0.83 0.80 0.4 0 1 294.31 225.96
  L 294.26 205.23
  A 0.97 0.97 89.7 0 1 295.23 204.25
  L 319.69 204.31
  A 0.85 0.78 -12.5 0 1 320.43 204.74
  Q 321.25 206.36 320.43 208.00
  A 0.87 0.77 11.0 0 1 319.69 208.44
  L 300.70 208.67
  A 0.59 0.57 2.2 0 0 300.13 209.18
  L 299.84 211.99
  A 0.96 0.92 2.7 0 0 300.80 213.00
  L 318.70 213.06
  A 0.70 0.62 -6.4 0 1 319.36 213.53
  Q 319.63 214.57 319.25 216.53
  A 0.90 0.88 5.0 0 1 318.37 217.25
  L 300.56 217.31
  A 0.63 0.60 5.6 0 0 299.95 217.79
  Z"
/>
<path fill="#000000" d="
  M -0.01 251.97
  L -0.02 230.47
  Q 8.43 229.66 16.89 230.01
  C 24.54 230.33 30.47 229.85 28.81 239.81
  C 28.03 244.52 23.01 244.98 19.25 244.85
  Q 12.72 244.62 6.19 244.91
  A 0.57 0.55 -0.6 0 0 5.65 245.44
  L 5.50 251.13
  A 1.73 1.68 89.3 0 1 3.92 252.80
  Q 2.23 252.91 -0.01 251.97
  Z
  M 23.25 235.07
  A 0.78 0.78 0.0 0 0 22.47 234.29
  L 6.37 234.29
  A 0.78 0.78 0.0 0 0 5.59 235.07
  L 5.59 239.73
  A 0.78 0.78 0.0 0 0 6.37 240.51
  L 22.47 240.51
  A 0.78 0.78 0.0 0 0 23.25 239.73
  L 23.25 235.07
  Z"
/>
<path fill="#000000" d="
  M 37.31 248.19
  Q 45.24 248.30 53.17 248.26
  C 56.50 248.24 57.29 247.79 56.51 251.70
  A 1.25 1.20 5.3 0 1 55.29 252.67
  L 32.20 252.52
  A 0.90 0.87 0.3 0 1 31.31 251.65
  L 31.30 230.80
  A 0.63 0.48 -89.6 0 1 31.79 230.17
  L 35.69 230.22
  A 1.25 1.07 -89.8 0 1 36.75 231.47
  L 36.81 247.69
  A 0.50 0.50 0.0 0 0 37.31 248.19
  Z"
/>
<path fill="#000000" d="
  M 76.44 235.90
  L 64.11 251.92
  A 1.20 0.91 -67.4 0 1 63.32 252.38
  L 58.86 252.55
  Q 57.67 252.60 58.40 251.62
  Q 65.94 241.46 73.19 231.94
  Q 75.24 229.24 78.20 230.14
  A 1.64 1.42 76.6 0 1 78.99 230.71
  Q 86.83 240.91 94.56 251.19
  Q 95.29 252.16 94.46 252.58
  Q 94.35 252.64 93.51 252.63
  L 90.52 252.59
  A 2.38 1.87 -13.8 0 1 88.75 251.79
  L 77.05 235.90
  A 0.38 0.38 -44.7 0 0 76.44 235.90
  Z"
/>
<path fill="#000000" d="
  M 105.89 239.43
  L 117.41 230.36
  A 1.53 1.43 -62.5 0 1 118.32 230.04
  L 123.44 230.06
  Q 125.10 230.07 123.56 231.31
  L 108.88 243.18
  A 1.21 0.97 -22.9 0 0 108.44 244.00
  L 108.30 251.22
  A 1.18 1.00 -89.4 0 1 107.30 252.38
  L 103.43 252.40
  A 0.60 0.53 89.5 0 1 102.90 251.81
  L 102.73 244.60
  A 2.17 1.82 -74.5 0 0 102.02 243.04
  L 87.42 231.30
  Q 86.50 230.56 87.63 230.22
  C 91.02 229.21 93.39 229.96 96.19 232.26
  Q 100.61 235.90 105.11 239.44
  A 0.65 0.62 -44.4 0 0 105.89 239.43
  Z"
/>
<path fill="#000000" d="
  M 132.56 238.69
  L 150.38 238.74
  A 1.28 1.22 3.4 0 1 151.65 240.10
  L 151.39 242.32
  A 0.58 0.57 -86.6 0 1 150.82 242.83
  L 132.70 242.99
  A 0.66 0.53 0.8 0 0 132.06 243.49
  L 131.80 247.47
  A 0.82 0.73 1.6 0 0 132.62 248.25
  L 151.16 248.25
  A 1.47 1.47 -4.9 0 1 152.61 249.47
  C 153.23 253.01 152.29 252.52 149.93 252.49
  Q 138.50 252.37 127.44 252.68
  A 1.16 1.16 -0.7 0 1 126.25 251.52
  L 126.25 231.01
  A 0.95 0.94 90.0 0 1 127.19 230.06
  L 151.69 230.06
  A 0.76 0.74 -10.9 0 1 152.39 230.52
  Q 154.07 234.59 149.99 234.36
  C 144.40 234.04 138.68 234.25 133.10 234.25
  A 0.81 0.81 -82.5 0 0 132.32 234.85
  Q 131.74 236.93 131.95 238.20
  A 0.62 0.58 -4.3 0 0 132.56 238.69
  Z"
/>
<path fill="#000000" d="
  M 173.95 243.05
  L 163.36 243.01
  A 0.86 0.85 -89.7 0 0 162.50 243.87
  L 162.50 251.61
  A 1.11 1.04 1.6 0 1 161.33 252.64
  L 158.07 252.47
  A 1.04 0.93 -0.2 0 1 157.08 251.59
  Q 156.39 240.37 156.96 231.13
  A 1.19 1.19 1.3 0 1 158.13 230.02
  Q 168.14 229.89 176.99 230.14
  Q 181.74 230.28 183.38 231.13
  C 188.10 233.59 187.38 241.91 181.23 242.75
  A 0.66 0.66 67.8 0 0 180.79 243.80
  C 182.39 245.97 183.74 248.31 185.24 250.57
  Q 186.98 253.21 182.75 252.50
  Q 179.93 252.03 179.00 250.50
  L 174.70 243.48
  A 0.89 0.87 74.0 0 0 173.95 243.05
  Z
  M 180.5340 235.3916
  A 1.09 1.09 0.0 0 0 179.4478 234.2978
  L 163.5479 234.2423
  A 1.09 1.09 0.0 0 0 162.4541 235.3285
  L 162.4460 237.6284
  A 1.09 1.09 0.0 0 0 163.5322 238.7222
  L 179.4321 238.7777
  A 1.09 1.09 0.0 0 0 180.5259 237.6915
  L 180.5340 235.3916
  Z"
/>
</svg>
