<?xml version="1.0" encoding="UTF-8" standalone="no"?>
<!DOCTYPE svg PUBLIC "-//W3C//DTD SVG 1.1//EN" "http://www.w3.org/Graphics/SVG/1.1/DTD/svg11.dtd">
<svg xmlns="http://www.w3.org/2000/svg" version="1.1" viewBox="0 0 600 300">
<path fill="#8c2e82" d="
  M 426.10 23.49
  C 411.66 34.09 400.09 46.61 391.70 62.23
  A 2.25 2.24 15.9 0 1 389.58 63.41
  Q 369.36 62.05 353.97 70.99
  Q 323.92 88.45 319.77 123.25
  Q 316.35 151.99 312.67 180.70
  C 311.47 190.14 309.23 194.60 303.81 201.81
  C 296.47 211.58 291.24 216.84 278.25 216.28
  A 0.82 0.81 -10.0 0 1 277.55 215.80
  C 250.26 153.75 260.44 61.71 327.81 28.06
  C 357.77 13.10 393.86 13.18 425.95 22.63
  Q 426.88 22.91 426.10 23.49
  Z"
/>
<path fill="#febd25" d="
  M 411.69 45.44
  C 439.49 15.25 491.34 12.81 528.32 24.80
  C 561.99 35.71 582.02 61.85 584.33 97.95
  A 0.51 0.51 87.9 0 1 583.82 98.50
  L 535.56 98.44
  A 0.64 0.62 82.9 0 1 534.95 97.95
  C 527.31 64.92 493.44 56.95 464.69 66.44
  C 452.98 70.30 438.21 80.82 443.27 95.45
  Q 447.39 107.35 451.50 119.25
  C 455.88 131.94 454.98 145.92 452.84 159.43
  A 0.82 0.81 -78.0 0 1 451.82 160.10
  C 422.93 152.40 397.65 137.09 393.98 104.50
  C 391.57 83.08 396.95 61.44 411.69 45.44
  Z"
/>
<path fill="#7f8386" d="
  M 55.49 102.75
  C 63.77 98.21 66.26 85.01 68.03 76.70
  C 72.65 55.03 78.09 25.60 105.17 21.57
  Q 129.04 18.02 144.81 34.69
  C 162.00 52.85 163.28 83.56 154.51 105.18
  C 146.93 123.85 133.86 134.59 113.03 136.07
  A 0.96 0.96 -1.9 0 1 112.00 135.11
  L 112.00 107.89
  A 1.45 1.44 78.1 0 1 112.85 106.57
  Q 130.21 98.68 132.53 80.50
  C 133.87 70.00 129.26 51.96 115.54 52.09
  C 87.13 52.35 107.26 140.00 49.51 135.43
  C 13.63 132.60 1.94 90.96 11.09 61.34
  C 17.23 41.50 32.61 28.64 53.69 26.36
  A 0.47 0.46 86.6 0 1 54.20 26.82
  L 54.57 54.91
  A 1.18 1.16 -8.6 0 1 53.72 56.04
  Q 41.08 59.70 36.43 71.18
  C 32.75 80.27 33.34 92.06 40.17 99.70
  C 44.25 104.26 50.04 105.74 55.49 102.75
  Z"
/>
<path fill="#c02b31" d="
  M 220.56 74.82
  L 220.81 222.19
  A 0.55 0.53 3.0 0 0 221.30 222.72
  Q 246.95 225.09 271.92 224.86
  Q 284.17 224.75 285.57 224.55
  C 301.91 222.27 315.08 201.82 319.89 187.44
  Q 321.63 182.23 322.41 174.33
  Q 325.79 139.76 326.50 129.75
  Q 329.12 92.65 361.96 76.89
  A 0.93 0.92 62.1 0 1 363.16 77.26
  C 377.87 102.90 383.22 131.68 380.50 161.50
  C 373.92 233.52 325.22 275.61 252.24 272.49
  Q 212.25 270.78 170.57 269.19
  A 0.53 0.53 1.1 0 1 170.06 268.66
  L 170.00 26.50
  A 0.95 0.95 -0.9 0 1 170.92 25.55
  Q 216.99 24.15 261.50 23.48
  Q 281.95 23.18 301.52 28.96
  C 304.52 29.84 308.07 31.05 304.18 34.58
  Q 285.87 51.20 273.84 73.12
  A 1.33 1.32 14.0 0 1 272.70 73.80
  L 221.06 74.31
  A 0.51 0.50 -90.0 0 0 220.56 74.82
  Z"
/>
<path fill="#8c2e82" d="
  M 451.25 87.25
  C 451.77 80.69 462.07 76.13 467.40 74.35
  C 476.68 71.25 487.75 71.04 497.06 72.36
  A 1.04 1.01 79.0 0 1 497.81 72.88
  C 524.81 120.34 522.74 175.14 497.73 222.94
  A 2.07 2.05 -79.3 0 1 496.13 224.04
  C 484.00 225.42 460.50 221.84 453.23 210.45
  C 449.79 205.06 451.73 200.76 453.46 194.92
  Q 457.83 180.20 462.25 165.50
  Q 463.67 160.77 463.61 153.00
  C 463.53 141.55 462.28 131.54 459.01 119.93
  C 456.25 110.15 450.47 97.24 451.25 87.25
  Z"
/>
<path fill="#febd25" d="
  M 429.75 192.46
  Q 433.91 193.09 438.27 192.58
  C 442.64 216.01 454.45 227.21 477.55 230.75
  C 496.95 233.72 544.48 233.30 541.52 201.46
  C 540.49 190.41 531.63 183.96 522.62 179.31
  A 1.68 1.68 -74.8 0 1 521.71 177.72
  L 524.02 131.60
  A 0.83 0.82 -81.2 0 1 525.05 130.84
  C 559.37 139.61 590.04 154.04 592.67 194.51
  C 594.67 225.44 580.64 248.86 554.03 262.67
  C 520.63 280.01 478.32 279.88 443.44 268.17
  C 414.58 258.48 395.12 238.96 389.00 208.25
  Q 387.56 201.04 389.68 193.05
  A 0.78 0.78 -87.1 0 1 390.31 192.48
  C 393.56 191.96 397.66 192.50 399.89 192.50
  Q 414.82 192.53 429.75 192.46
  Z"
/>
<path fill="#7f8386" d="
  M 77.80 172.04
  L 158.26 189.03
  A 0.63 0.62 6.4 0 1 158.75 189.64
  L 158.75 219.45
  A 0.70 0.69 82.3 0 1 158.24 220.12
  C 151.36 221.97 80.55 240.77 80.60 240.98
  A 0.75 0.57 -5.1 0 0 81.32 241.43
  L 157.87 241.25
  A 0.88 0.88 0.0 0 1 158.75 242.13
  L 158.75 270.06
  A 0.94 0.94 0.0 0 1 157.81 271.00
  L 11.60 271.00
  A 0.85 0.85 -89.8 0 1 10.75 270.15
  L 10.75 229.32
  A 1.02 1.02 82.7 0 1 11.51 228.33
  L 93.51 206.50
  Q 95.81 205.89 93.47 205.42
  L 11.57 189.26
  A 0.94 0.94 5.6 0 1 10.81 188.34
  L 10.81 141.54
  A 0.79 0.79 -0.5 0 1 11.60 140.75
  L 158.07 140.94
  A 0.51 0.51 89.4 0 1 158.58 141.44
  L 158.74 168.82
  A 0.95 0.94 -0.6 0 1 157.81 169.76
  Q 118.25 170.74 78.25 171.50
  Q 77.84 171.51 77.61 171.59
  Q 76.91 171.85 77.80 172.04
  Z"
/>
<path fill="#8c2e82" d="
  M 332.48 267.64
  A 0.31 0.30 34.3 0 1 332.38 267.13
  Q 342.72 257.41 353.21 247.67
  C 359.18 242.12 363.47 234.83 368.39 228.33
  A 1.07 0.95 -69.3 0 1 369.19 227.91
  L 386.79 228.06
  A 1.68 1.56 76.6 0 1 388.22 229.02
  C 396.90 247.07 411.63 261.10 428.51 271.61
  Q 430.00 272.54 428.32 273.06
  C 395.88 283.01 363.93 279.58 332.48 267.64
  Z"
/>
</svg>
