<?xml version="1.0" encoding="UTF-8" standalone="no"?>
<!DOCTYPE svg PUBLIC "-//W3C//DTD SVG 1.1//EN" "http://www.w3.org/Graphics/SVG/1.1/DTD/svg11.dtd">
<svg xmlns="http://www.w3.org/2000/svg" version="1.1" viewBox="0 0 600 300">
<g stroke-width="2.00" fill="none" stroke-linecap="butt">
<path stroke="#ffbf93" vector-effect="non-scaling-stroke" d="
  M 524.04 56.50
  L 484.54 56.75"
/>
<path stroke="#ffbf93" vector-effect="non-scaling-stroke" d="
  M 524.50 56.96
  L 524.20 79.01"
/>
<path stroke="#ff781c" vector-effect="non-scaling-stroke" d="
  M 524.20 79.01
  Q 521.28 84.96 522.56 92.08
  Q 523.11 95.15 519.92 95.16
  L 487.15 95.25
  A 1.15 1.14 -0.5 0 1 485.99 94.12
  L 485.76 57.74
  A 0.81 0.59 -84.2 0 0 485.33 57.00
  Q 484.82 56.83 484.46 57.50"
/>
<path stroke="#ffbf93" vector-effect="non-scaling-stroke" d="
  M 484.46 57.50
  Q 484.13 57.37 484.00 57.04"
/>
<path stroke="#ffb888" vector-effect="non-scaling-stroke" d="
  M 524.20 79.01
  L 523.96 96.75"
/>
<path stroke="#ffb888" vector-effect="non-scaling-stroke" d="
  M 523.96 96.75
  L 484.50 97.04"
/>
<path stroke="#ffffff" vector-effect="non-scaling-stroke" d="
  M 524.04 97.00
  L 523.96 96.75"
/>
<path stroke="#ffb888" vector-effect="non-scaling-stroke" d="
  M 484.46 57.50
  C 484.47 61.12 484.87 96.56 484.00 96.79"
/>
<path stroke="#fff980" vector-effect="non-scaling-stroke" d="
  M 458.96 65.50
  Q 439.85 66.08 420.75 65.54"
/>
<path stroke="#ffffff" vector-effect="non-scaling-stroke" d="
  M 420.75 65.54
  L 419.50 65.46"
/>
<path stroke="#fff980" vector-effect="non-scaling-stroke" d="
  M 459.04 65.75
  L 459.29 105.50"
/>
<path stroke="#fff980" vector-effect="non-scaling-stroke" d="
  M 458.96 106.00
  Q 455.08 105.49 447.50 105.50
  Q 426.40 105.54 419.50 105.79"
/>
<path stroke="#fff980" vector-effect="non-scaling-stroke" d="
  M 420.75 65.54
  L 419.76 65.85
  A 0.75 0.61 81.8 0 0 419.33 66.56
  Q 419.85 86.03 419.21 105.50"
/>
<path stroke="#91d8a6" vector-effect="non-scaling-stroke" d="
  M 581.97 97.73
  L 542.54 97.75"
/>
<path stroke="#91d8a6" vector-effect="non-scaling-stroke" d="
  M 583.25 99.04
  Q 583.87 118.88 583.25 138.71"
/>
<path stroke="#91d8a6" vector-effect="non-scaling-stroke" d="
  M 581.96 140.00
  Q 562.25 140.54 542.54 140.00"
/>
<path stroke="#91d8a6" vector-effect="non-scaling-stroke" d="
  M 541.08 138.71
  L 541.00 99.04"
/>
<path stroke="#f58082" vector-effect="non-scaling-stroke" d="
  M 420.29 123.25
  L 380.75 123.46"
/>
<path stroke="#f58082" vector-effect="non-scaling-stroke" d="
  M 420.54 123.75
  L 420.54 163.50"
/>
<path stroke="#f58082" vector-effect="non-scaling-stroke" d="
  M 420.00 163.79
  L 381.04 164.00"
/>
<path stroke="#f58082" vector-effect="non-scaling-stroke" d="
  M 380.25 163.54
  Q 380.88 143.67 380.25 123.79"
/>
<path stroke="#8c92e1" vector-effect="non-scaling-stroke" d="
  M 527.25 152.46
  Q 526.38 152.75 525.44 152.74
  Q 481.99 152.23 438.55 152.69
  A 0.32 0.27 -4.2 0 1 438.24 152.47
  L 438.21 152.25"
/>
<path stroke="#8c92e1" vector-effect="non-scaling-stroke" d="
  M 527.75 152.79
  L 527.54 242.25"
/>
<path stroke="#8c92e1" vector-effect="non-scaling-stroke" d="
  M 527.21 243.25
  Q 526.92 242.50 526.00 242.50
  Q 482.50 242.50 439.00 242.50
  Q 438.19 242.50 438.21 243.00"
/>
<path stroke="#8c92e1" vector-effect="non-scaling-stroke" d="
  M 437.71 242.25
  L 437.79 241.50"
/>
<path stroke="#2c36c8" vector-effect="non-scaling-stroke" d="
  M 437.79 241.50
  Q 481.61 240.34 524.85 241.42
  A 1.60 1.60 1.2 0 0 526.49 239.85
  Q 527.29 198.00 526.47 155.17
  A 1.69 1.68 89.0 0 0 524.76 153.51
  Q 487.03 154.05 448.81 153.56
  Q 442.31 153.48 437.76 154.70"
/>
<path stroke="#8c92e1" vector-effect="non-scaling-stroke" d="
  M 437.76 154.70
  L 437.75 152.79"
/>
<path stroke="#9fa4e6" vector-effect="non-scaling-stroke" d="
  M 437.76 154.70
  L 437.79 241.50"
/>
<path stroke="#ec0f14" vector-effect="non-scaling-stroke" d="
  M 419.3207 125.8227
  A 1.02 1.02 0.0 0 0 418.3025 124.8009
  L 382.9226 124.7392
  A 1.02 1.02 0.0 0 0 381.9008 125.7574
  L 381.8393 160.9973
  A 1.02 1.02 0.0 0 0 382.8575 162.0191
  L 418.2374 162.0808
  A 1.02 1.02 0.0 0 0 419.2592 161.0626
  L 419.3207 125.8227"
/>
</g>
<path fill="#ffffff" d="
  M 524.04 56.50
  L 484.54 56.75
  L 484.70 52.55
  A 0.62 0.51 0.9 0 1 485.32 52.06
  L 523.57 52.00
  A 0.69 0.69 -88.1 0 1 524.26 52.74
  L 524.04 56.50
  Z"
/>
<path fill="#ff7f27" d="
  M 524.04 56.50
  Q 524.37 56.63 524.50 56.96
  L 524.20 79.01
  Q 521.28 84.96 522.56 92.08
  Q 523.11 95.15 519.92 95.16
  L 487.15 95.25
  A 1.15 1.14 -0.5 0 1 485.99 94.12
  L 485.76 57.74
  A 0.81 0.59 -84.2 0 0 485.33 57.00
  Q 484.82 56.83 484.46 57.50
  Q 484.13 57.37 484.00 57.04
  Q 484.37 57.09 484.54 56.75
  L 524.04 56.50
  Z"
/>
<path fill="#ffffff" d="
  M 484.00 57.04
  Q 484.13 57.37 484.46 57.50
  C 484.47 61.12 484.87 96.56 484.00 96.79
  L 480.18 96.75
  A 0.69 0.66 0.4 0 1 479.50 96.09
  L 479.56 57.57
  A 0.54 0.50 90.0 0 1 480.06 57.03
  L 484.00 57.04
  Z"
/>
<path fill="#fe7110" d="
  M 524.20 79.01
  L 523.96 96.75
  L 484.50 97.04
  Q 484.15 97.09 484.00 96.79
  C 484.87 96.56 484.47 61.12 484.46 57.50
  Q 484.82 56.83 485.33 57.00
  A 0.81 0.59 -84.2 0 1 485.76 57.74
  L 485.99 94.12
  A 1.15 1.14 -0.5 0 0 487.15 95.25
  L 519.92 95.16
  Q 523.11 95.15 522.56 92.08
  Q 521.28 84.96 524.20 79.01
  Z"
/>
<path fill="#ffffff" d="
  M 524.50 56.96
  L 528.48 56.99
  A 0.53 0.51 0.6 0 1 529.00 57.50
  L 529.00 95.76
  A 1.23 1.04 -1.4 0 1 527.82 96.81
  L 524.04 97.00
  L 523.96 96.75
  L 524.20 79.01
  L 524.50 56.96
  Z"
/>
<path fill="#ffffff" d="
  M 458.96 65.50
  Q 439.85 66.08 420.75 65.54
  L 419.50 65.46
  L 419.54 61.32
  A 0.53 0.51 -0.0 0 1 420.07 60.81
  L 458.44 60.75
  A 0.56 0.55 0.0 0 1 459.00 61.30
  L 458.96 65.50
  Z"
/>
<path fill="#ffffff" d="
  M 0.00 132.02
  L 0.00 125.44
  L 62.54 125.26
  A 1.12 1.10 8.9 0 0 63.58 124.51
  Q 72.57 97.04 81.70 69.17
  C 82.61 66.40 83.75 64.54 85.46 62.34
  A 0.62 0.61 -39.2 0 1 86.50 62.44
  L 122.76 138.26
  Q 123.21 139.22 123.71 138.30
  L 131.50 123.95
  A 0.88 0.85 -75.0 0 1 132.25 123.50
  L 366.98 123.50
  A 0.52 0.52 -90.0 0 1 367.50 124.02
  L 367.50 129.69
  A 0.81 0.81 0.0 0 1 366.69 130.50
  L 136.73 130.50
  A 1.30 1.29 14.6 0 0 135.60 131.16
  L 123.93 152.45
  Q 123.20 153.78 122.49 152.45
  C 109.69 128.27 98.49 103.00 86.68 78.30
  Q 86.22 77.33 85.89 78.35
  Q 77.70 103.75 69.25 129.25
  C 68.02 132.95 66.56 132.24 63.42 132.25
  Q 31.71 132.42 0.00 132.02
  Z"
/>
<path fill="#ffffff" d="
  M 419.50 65.46
  L 420.75 65.54
  L 419.76 65.85
  A 0.75 0.61 81.8 0 0 419.33 66.56
  Q 419.85 86.03 419.21 105.50
  L 415.14 105.50
  A 0.64 0.64 -89.8 0 1 414.50 104.86
  L 414.50 66.46
  A 0.83 0.82 -86.6 0 1 415.42 65.64
  Q 417.92 65.96 419.50 65.46
  Z"
/>
<path fill="#fff200" d="
  M 420.75 65.54
  Q 439.85 66.08 458.96 65.50
  L 459.04 65.75
  L 459.29 105.50
  L 458.96 106.00
  Q 455.08 105.49 447.50 105.50
  Q 426.40 105.54 419.50 105.79
  Q 419.27 105.73 419.21 105.50
  Q 419.85 86.03 419.33 66.56
  A 0.75 0.61 81.8 0 1 419.76 65.85
  L 420.75 65.54
  Z"
/>
<path fill="#ffffff" d="
  M 459.04 65.75
  L 463.44 65.79
  A 0.53 0.51 -89.4 0 1 463.94 66.32
  L 464.00 104.83
  A 0.67 0.67 -0.4 0 1 463.33 105.50
  L 459.29 105.50
  L 459.04 65.75
  Z"
/>
<path fill="#ffffff" d="
  M 53.50 110.54
  Q 55.08 111.15 56.50 110.29
  C 59.56 108.32 58.90 103.32 59.15 100.18
  A 0.59 0.55 -88.2 0 1 59.69 99.63
  L 66.06 99.55
  A 1.02 0.96 -89.4 0 1 67.03 100.60
  C 66.84 106.48 66.89 112.52 61.38 115.82
  C 55.55 119.30 47.11 118.01 43.91 111.42
  C 40.92 105.27 42.15 91.81 42.25 84.75
  C 42.36 77.18 42.70 68.00 52.50 66.75
  C 63.22 65.38 67.77 73.31 66.86 83.06
  A 0.60 0.55 -87.1 0 1 66.31 83.61
  L 59.81 83.71
  A 0.87 0.81 -89.3 0 1 58.99 82.81
  C 59.09 79.82 59.07 71.96 53.60 73.76
  C 50.35 74.83 50.01 77.97 50.14 80.97
  C 50.49 89.40 50.19 97.87 50.37 106.31
  Q 50.45 109.61 53.50 110.54
  Z"
/>
<path fill="#ffffff" d="
  M 306.94 71.19
  Q 309.41 67.56 314.53 66.97
  Q 326.26 65.62 328.44 77.66
  A 0.59 0.58 75.4 0 1 328.05 78.33
  Q 324.30 79.55 321.56 79.26
  A 0.62 0.59 -88.9 0 1 321.04 78.70
  C 320.54 71.91 312.20 72.09 312.00 78.00
  C 311.62 89.17 331.68 91.92 328.99 107.34
  C 326.33 122.67 304.68 120.46 303.71 105.19
  A 0.65 0.56 83.8 0 1 304.16 104.53
  L 310.68 103.33
  A 0.47 0.42 85.4 0 1 311.18 103.80
  C 311.23 114.77 324.99 111.48 321.06 102.69
  C 318.88 97.79 313.38 94.79 309.59 90.46
  C 304.54 84.71 302.19 78.17 306.94 71.19
  Z"
/>
<path fill="#ffffff" d="
  M 122.65 84.36
  C 121.69 85.68 122.49 112.02 122.50 116.12
  A 0.87 0.85 -89.7 0 1 121.64 116.99
  L 115.77 116.96
  A 0.79 0.77 -89.6 0 1 115.01 116.17
  L 115.18 67.94
  A 0.55 0.54 87.8 0 1 115.68 67.39
  Q 120.45 66.93 125.20 67.50
  A 0.70 0.69 87.6 0 1 125.79 68.05
  L 131.66 96.06
  A 0.76 0.37 79.7 0 0 132.13 96.70
  C 132.48 96.68 137.33 71.03 137.93 68.11
  A 1.08 1.08 5.9 0 1 138.99 67.25
  L 148.09 67.25
  A 0.66 0.66 0.0 0 1 148.75 67.91
  L 148.75 116.35
  A 0.64 0.63 90.0 0 1 148.12 116.99
  L 142.06 116.96
  A 0.91 0.89 -86.0 0 1 141.19 115.93
  C 141.77 111.50 141.26 106.03 141.29 103.03
  Q 141.38 94.51 141.36 86.00
  Q 141.36 82.74 140.70 85.69
  Q 137.53 100.04 134.53 114.43
  C 134.05 116.69 133.15 118.09 130.69 116.76
  A 1.16 1.12 -83.1 0 1 130.13 116.02
  L 123.02 84.46
  Q 122.92 84.01 122.65 84.36
  Z"
/>
<path fill="#ffffff" d="
  M 163.81 97.07
  L 163.75 116.42
  A 0.55 0.51 -89.5 0 1 163.23 116.97
  L 156.43 116.86
  A 0.56 0.51 -89.5 0 1 155.93 116.30
  L 155.76 68.11
  A 0.83 0.82 -0.7 0 1 156.57 67.29
  C 165.46 67.07 178.88 65.00 180.19 77.26
  C 180.69 81.89 180.96 88.59 178.31 92.28
  C 175.12 96.72 170.14 96.51 164.30 96.56
  A 0.51 0.49 90.0 0 0 163.81 97.07
  Z
  M 170.66 75.23
  Q 167.62 73.84 164.42 74.35
  A 0.63 0.61 87.2 0 0 163.91 74.93
  C 163.70 79.39 163.95 83.86 163.62 88.29
  Q 163.49 90.08 165.28 89.64
  Q 165.78 89.52 166.25 89.59
  C 173.91 90.74 173.05 81.37 172.04 76.93
  A 2.48 2.47 6.0 0 0 170.66 75.23
  Z"
/>
<path fill="#ffffff" d="
  M 197.80 110.69
  C 202.00 111.36 202.94 108.81 203.09 105.17
  Q 203.87 86.62 203.33 68.07
  A 0.57 0.48 88.4 0 1 203.80 67.48
  L 210.58 67.33
  A 0.71 0.65 89.2 0 1 211.24 68.03
  Q 211.41 86.18 211.08 103.52
  Q 210.98 108.67 210.05 110.83
  C 206.04 120.13 192.34 119.88 188.15 110.99
  Q 186.76 108.06 186.66 102.76
  Q 186.34 85.79 186.51 68.13
  A 0.88 0.86 -89.3 0 1 187.38 67.26
  L 193.72 67.30
  A 0.83 0.79 89.6 0 1 194.51 68.12
  L 194.74 107.18
  Q 194.76 110.20 197.80 110.69
  Z"
/>
<path fill="#ffffff" d="
  M 233.75 74.29
  A 1.03 1.01 89.7 0 0 232.75 75.32
  L 232.75 116.25
  A 0.59 0.58 86.1 0 1 232.25 116.83
  Q 228.90 117.34 225.55 116.78
  A 0.63 0.60 -85.5 0 1 225.06 116.18
  L 224.82 74.93
  A 0.54 0.51 -89.5 0 0 224.32 74.39
  L 217.46 74.28
  A 1.05 0.97 -89.7 0 1 216.50 73.23
  L 216.52 68.15
  A 0.90 0.78 90.0 0 1 217.30 67.25
  L 240.65 67.25
  A 0.85 0.85 0.0 0 1 241.50 68.10
  L 241.50 73.75
  A 0.50 0.50 0.0 0 1 241.00 74.25
  L 233.75 74.29
  Z"
/>
<path fill="#ffffff" d="
  M 255.06 110.20
  L 267.70 110.24
  A 0.56 0.55 0.5 0 1 268.25 110.79
  L 268.25 116.31
  A 0.69 0.68 -90.0 0 1 267.57 117.00
  L 247.54 116.94
  A 0.78 0.78 0.0 0 1 246.76 116.16
  L 246.93 67.94
  A 0.53 0.51 -90.0 0 1 247.44 67.41
  L 267.57 67.42
  A 0.55 0.53 -0.5 0 1 268.12 67.94
  L 268.22 73.70
  A 0.54 0.49 -1.1 0 1 267.69 74.20
  L 255.38 74.25
  A 0.88 0.87 0.0 0 0 254.50 75.12
  L 254.50 87.09
  A 0.66 0.66 0.0 0 0 255.16 87.75
  L 263.84 87.75
  A 0.57 0.50 88.8 0 1 264.34 88.30
  L 264.46 93.78
  A 0.94 0.82 89.0 0 1 263.64 94.75
  L 255.37 94.75
  A 0.87 0.86 0.0 0 0 254.50 95.61
  L 254.56 109.70
  A 0.51 0.50 0.6 0 0 255.06 110.20
  Z"
/>
<path fill="#ffffff" d="
  M 285.19 96.27
  L 282.88 96.29
  A 0.66 0.64 89.6 0 0 282.25 96.95
  L 282.25 116.09
  A 0.91 0.91 0.4 0 1 281.34 117.00
  L 274.93 117.00
  A 0.68 0.68 0.0 0 1 274.25 116.32
  L 274.25 68.08
  A 0.79 0.79 -0.7 0 1 275.02 67.29
  C 283.05 67.04 294.59 65.37 297.37 75.29
  C 299.07 81.38 299.12 89.88 293.35 94.04
  A 0.76 0.74 64.8 0 0 293.07 94.85
  L 298.88 115.98
  A 0.74 0.69 82.4 0 1 298.22 116.91
  L 291.30 116.77
  A 0.74 0.61 82.8 0 1 290.69 116.20
  L 285.80 96.79
  A 0.69 0.61 82.2 0 0 285.19 96.27
  Z
  M 282.17 88.81
  A 0.62 0.60 -85.8 0 0 282.69 89.43
  Q 288.27 90.16 289.75 86.36
  C 291.65 81.48 290.56 72.03 282.66 74.52
  A 0.73 0.66 81.8 0 0 282.20 75.20
  L 282.17 88.81
  Z"
/>
<path fill="#ffffff" d="
  M 581.97 97.73
  L 542.54 97.75
  L 542.51 94.62
  A 0.63 0.61 -0.4 0 1 543.14 94.00
  L 581.43 94.06
  A 0.54 0.50 -0.0 0 1 581.97 94.56
  L 581.97 97.73
  Z"
/>
<path fill="#ffffff" d="
  M 523.96 96.75
  L 524.04 97.00
  Q 524.47 99.12 524.05 101.20
  A 0.64 0.61 5.5 0 1 523.43 101.69
  L 485.17 101.75
  A 0.67 0.67 0.4 0 1 484.50 101.08
  L 484.50 97.04
  L 523.96 96.75
  Z"
/>
<path fill="#22b14c" d="
  M 581.97 97.73
  Q 581.64 98.99 583.25 99.04
  Q 583.87 118.88 583.25 138.71
  Q 581.87 138.65 581.96 140.00
  Q 562.25 140.54 542.54 140.00
  Q 542.97 138.40 541.08 138.71
  L 541.00 99.04
  Q 542.53 99.26 542.54 97.75
  L 581.97 97.73
  Z"
/>
<path fill="#ffffff" d="
  M 541.00 99.04
  L 541.08 138.71
  L 538.18 138.75
  A 0.69 0.67 89.6 0 1 537.50 138.06
  L 537.56 99.57
  A 0.54 0.50 -90.0 0 1 538.06 99.03
  L 541.00 99.04
  Z"
/>
<path fill="#ffffff" d="
  M 583.25 99.04
  L 586.45 99.03
  A 0.54 0.49 90.0 0 1 586.94 99.57
  L 587.00 138.19
  A 0.56 0.55 -90.0 0 1 586.45 138.75
  L 583.25 138.71
  Q 583.87 118.88 583.25 99.04
  Z"
/>
<path fill="#ffffff" d="
  M 458.96 106.00
  L 458.99 109.87
  A 0.64 0.63 0.0 0 1 458.35 110.50
  L 420.21 110.50
  A 0.82 0.78 -89.6 0 1 419.43 109.67
  L 419.50 105.79
  Q 426.40 105.54 447.50 105.50
  Q 455.08 105.49 458.96 106.00
  Z"
/>
<path fill="#ffffff" d="
  M 420.29 123.25
  L 380.75 123.46
  L 380.66 119.91
  A 0.88 0.77 88.9 0 1 381.43 119.00
  L 419.68 119.06
  A 0.52 0.50 -0.6 0 1 420.20 119.55
  L 420.29 123.25
  Z"
/>
<path fill="#eb0104" d="
  M 420.29 123.25
  Q 420.56 123.34 420.54 123.75
  L 420.54 163.50
  Q 420.42 163.82 420.00 163.79
  L 381.04 164.00
  L 380.25 163.54
  Q 380.88 143.67 380.25 123.79
  L 380.75 123.46
  L 420.29 123.25
  Z
  M 419.3207 125.8227
  A 1.02 1.02 0.0 0 0 418.3025 124.8009
  L 382.9226 124.7392
  A 1.02 1.02 0.0 0 0 381.9008 125.7574
  L 381.8393 160.9973
  A 1.02 1.02 0.0 0 0 382.8575 162.0191
  L 418.2374 162.0808
  A 1.02 1.02 0.0 0 0 419.2592 161.0626
  L 419.3207 125.8227
  Z"
/>
<rect fill="#ffffff" x="432.46" y="123.50" width="99.54" height="7.00" rx="0.43"/>
<path fill="#ffffff" d="
  M 600.00 123.81
  L 600.00 130.31
  L 594.07 130.47
  A 0.54 0.51 88.4 0 1 593.54 129.94
  L 593.51 124.21
  A 0.60 0.55 -89.5 0 1 594.07 123.61
  L 600.00 123.81
  Z"
/>
<path fill="#ffffff" d="
  M 380.25 123.79
  Q 380.88 143.67 380.25 163.54
  L 376.43 163.50
  A 0.69 0.66 0.4 0 1 375.75 162.84
  L 375.81 124.32
  A 0.54 0.50 -90.0 0 1 376.31 123.78
  L 380.25 123.79
  Z"
/>
<path fill="#ffffff" d="
  M 420.54 123.75
  L 424.68 123.79
  A 0.53 0.51 90.0 0 1 425.19 124.32
  L 425.25 162.95
  A 0.55 0.55 0.0 0 1 424.70 163.50
  L 420.54 163.50
  L 420.54 123.75
  Z"
/>
<rect fill="#ed1c24" x="-18.71" y="-18.64" transform="translate(400.58,143.41) rotate(0.1)" width="37.42" height="37.28" rx="1.02"/>
<path fill="#ffffff" d="
  M 542.54 140.00
  Q 562.25 140.54 581.96 140.00
  L 582.00 143.20
  A 0.56 0.55 0.0 0 1 581.44 143.75
  L 543.31 143.69
  A 0.67 0.65 -7.4 0 1 542.67 143.21
  Q 542.27 141.64 542.54 140.00
  Z"
/>
<path fill="#ffffff" d="
  M 527.25 152.46
  Q 526.38 152.75 525.44 152.74
  Q 481.99 152.23 438.55 152.69
  A 0.32 0.27 -4.2 0 1 438.24 152.47
  L 438.21 152.25
  L 438.31 148.67
  A 0.62 0.51 0.9 0 1 438.93 148.18
  L 526.69 148.06
  A 0.52 0.51 -0.6 0 1 527.21 148.56
  L 527.25 152.46
  Z"
/>
<path fill="#ffffff" d="
  M 272.70 227.25
  L 280.78 228.05
  A 0.80 0.78 3.2 0 1 281.50 228.84
  L 281.45 236.93
  A 0.52 0.51 0.0 0 1 280.93 237.44
  L 245.81 237.44
  A 0.51 0.50 0.0 0 1 245.30 236.94
  L 245.26 228.87
  A 0.93 0.81 -7.2 0 1 246.00 228.04
  L 253.70 226.35
  A 3.21 2.18 -68.2 0 0 255.27 225.29
  L 279.76 195.32
  A 0.64 0.63 -44.6 0 0 279.77 194.52
  C 271.29 183.76 262.99 172.91 254.26 162.75
  C 251.49 159.54 244.46 160.40 240.98 161.44
  A 1.03 1.02 -8.4 0 0 240.25 162.42
  L 240.19 236.93
  A 0.51 0.51 0.0 0 1 239.68 237.44
  L 220.41 237.49
  A 1.61 1.59 73.4 0 1 219.04 236.74
  L 179.75 175.72
  Q 178.93 174.46 178.93 175.96
  L 179.00 225.04
  A 2.07 1.95 -86.7 0 0 180.71 227.08
  L 188.65 228.04
  A 0.94 0.87 4.0 0 1 189.48 228.92
  L 189.46 236.94
  A 0.52 0.51 0.6 0 1 188.94 237.44
  L 154.71 237.50
  A 0.75 0.67 -89.2 0 1 154.04 236.73
  L 154.14 229.47
  A 1.50 1.43 87.0 0 1 155.40 228.00
  L 162.98 227.10
  A 1.62 1.45 86.8 0 0 164.25 225.51
  L 164.25 162.35
  A 1.60 1.59 -83.7 0 0 163.01 160.79
  Q 159.11 159.90 156.01 161.25
  Q 154.08 162.08 152.53 164.79
  Q 141.36 184.28 130.49 204.48
  Q 130.25 204.93 130.25 205.44
  L 130.25 225.37
  A 1.64 1.60 -87.9 0 0 131.73 227.00
  L 144.56 227.97
  A 1.23 1.14 2.7 0 1 145.69 229.12
  L 145.61 236.82
  A 0.54 0.51 0.5 0 1 145.07 237.32
  L 96.92 237.50
  A 0.93 0.92 -90.0 0 1 96.00 236.57
  L 96.00 228.70
  A 0.65 0.65 -1.9 0 1 96.61 228.05
  L 108.74 227.24
  Q 110.76 227.10 110.75 225.11
  L 110.69 205.56
  A 1.81 1.79 29.7 0 0 110.43 204.63
  L 85.38 163.05
  Q 84.53 161.63 82.82 161.19
  L 77.25 159.74
  A 1.00 0.89 -78.8 0 1 76.60 158.64
  L 77.77 150.96
  A 0.54 0.49 -85.2 0 1 78.26 150.50
  L 115.61 150.50
  A 0.52 0.49 89.4 0 1 116.10 151.01
  L 116.16 158.65
  A 1.07 1.00 86.4 0 1 115.28 159.72
  L 106.69 160.85
  A 0.35 0.35 71.6 0 0 106.43 161.37
  L 121.32 188.95
  Q 122.00 190.21 122.68 188.95
  L 137.68 161.11
  A 0.26 0.25 17.2 0 0 137.48 160.75
  L 128.67 159.43
  A 0.56 0.50 -81.7 0 1 128.26 158.81
  L 129.14 151.18
  A 0.57 0.55 -86.5 0 1 129.69 150.68
  L 185.03 150.51
  A 1.44 1.39 72.9 0 1 186.24 151.18
  L 224.53 211.80
  Q 225.57 213.44 225.57 211.50
  L 225.50 162.08
  A 0.96 0.92 -87.0 0 0 224.68 161.13
  L 216.30 160.24
  A 0.90 0.85 3.4 0 1 215.50 159.39
  L 215.55 151.07
  A 0.52 0.51 0.0 0 1 216.07 150.56
  L 285.67 150.50
  A 0.58 0.58 89.7 0 1 286.25 151.08
  L 286.25 158.86
  A 0.83 0.82 86.9 0 1 285.52 159.68
  L 276.78 160.68
  Q 276.10 160.75 276.51 161.30
  L 291.91 181.77
  A 0.91 0.90 45.9 0 0 293.35 181.80
  L 309.53 161.26
  Q 309.88 160.81 309.30 160.73
  L 300.88 159.62
  A 0.92 0.82 -82.4 0 1 300.19 158.60
  L 301.19 151.03
  A 0.61 0.54 -85.8 0 1 301.73 150.50
  L 334.48 150.43
  A 0.52 0.52 0.0 0 1 335.00 150.95
  L 335.00 158.73
  A 1.04 1.03 83.3 0 1 334.21 159.74
  L 328.51 161.13
  A 4.21 4.01 11.7 0 0 326.25 162.54
  L 302.13 192.06
  A 0.64 0.63 44.6 0 0 302.14 192.86
  L 328.52 225.34
  A 3.09 2.18 69.1 0 0 330.02 226.35
  L 337.09 228.02
  A 1.18 1.05 11.3 0 1 338.00 229.23
  Q 337.42 233.00 337.97 236.56
  A 0.82 0.81 -4.5 0 1 337.16 237.50
  L 296.73 237.50
  A 0.80 0.72 -89.2 0 1 296.01 236.68
  L 296.18 228.90
  A 0.91 0.91 -2.9 0 1 296.99 228.01
  L 305.45 227.03
  Q 305.97 226.97 305.63 226.54
  L 289.25 205.45
  A 0.41 0.40 -45.1 0 0 288.62 205.46
  L 272.28 226.28
  Q 271.61 227.14 272.70 227.25
  Z"
/>
<path fill="#ffffff" d="
  M 41.82 224.44
  L 64.71 224.50
  A 1.21 1.14 4.5 0 0 65.89 223.55
  L 67.82 212.10
  A 0.80 0.76 -87.4 0 1 68.51 211.43
  Q 74.95 210.90 81.44 211.51
  A 0.57 0.55 2.9 0 1 81.95 212.06
  L 81.83 236.82
  A 0.51 0.51 -89.4 0 1 81.32 237.32
  L 12.18 237.32
  A 0.54 0.51 -0.0 0 1 11.64 236.81
  L 11.64 228.69
  A 0.64 0.57 -4.7 0 1 12.19 228.12
  L 20.04 227.03
  A 1.72 1.72 85.5 0 0 21.52 225.29
  C 21.21 208.56 21.89 192.21 21.60 175.70
  Q 21.49 169.40 21.50 162.60
  A 1.99 1.81 3.9 0 0 19.76 160.78
  L 12.30 159.80
  A 0.64 0.61 3.3 0 1 11.74 159.20
  L 11.58 151.51
  A 1.09 0.99 -0.5 0 1 12.67 150.50
  L 53.33 150.50
  A 0.67 0.67 -0.0 0 1 54.00 151.17
  L 54.00 159.22
  A 0.82 0.78 -3.3 0 1 53.27 160.00
  L 42.22 161.22
  A 1.14 1.08 87.2 0 0 41.25 162.35
  L 41.31 223.94
  A 0.51 0.50 0.0 0 0 41.82 224.44
  Z"
/>
<path fill="#1924c3" d="
  M 438.21 152.25
  L 438.24 152.47
  A 0.32 0.27 -4.2 0 0 438.55 152.69
  Q 481.99 152.23 525.44 152.74
  Q 526.38 152.75 527.25 152.46
  L 527.75 152.79
  L 527.54 242.25
  Q 527.18 242.67 527.21 243.25
  Q 526.92 242.50 526.00 242.50
  Q 482.50 242.50 439.00 242.50
  Q 438.19 242.50 438.21 243.00
  L 437.71 242.25
  L 437.79 241.50
  Q 481.61 240.34 524.85 241.42
  A 1.60 1.60 1.2 0 0 526.49 239.85
  Q 527.29 198.00 526.47 155.17
  A 1.69 1.68 89.0 0 0 524.76 153.51
  Q 487.03 154.05 448.81 153.56
  Q 442.31 153.48 437.76 154.70
  L 437.75 152.79
  L 438.21 152.25
  Z"
/>
<path fill="#ffffff" d="
  M 437.75 152.79
  L 437.76 154.70
  L 437.79 241.50
  L 437.71 242.25
  L 433.76 242.25
  A 0.51 0.51 0.0 0 1 433.25 241.74
  L 433.31 153.31
  A 0.53 0.50 -90.0 0 1 433.81 152.78
  L 437.75 152.79
  Z"
/>
<path fill="#ffffff" d="
  M 527.75 152.79
  L 531.68 152.78
  A 0.53 0.51 90.0 0 1 532.19 153.31
  L 532.25 241.69
  A 0.56 0.56 89.8 0 1 531.69 242.25
  L 527.54 242.25
  L 527.75 152.79
  Z"
/>
<path fill="#3f48cc" d="
  M 437.79 241.50
  L 437.76 154.70
  Q 442.31 153.48 448.81 153.56
  Q 487.03 154.05 524.76 153.51
  A 1.69 1.68 89.0 0 1 526.47 155.17
  Q 527.29 198.00 526.49 239.85
  A 1.60 1.60 1.2 0 1 524.85 241.42
  Q 481.61 240.34 437.79 241.50
  Z"
/>
<path fill="#ffffff" d="
  M 420.00 163.79
  L 420.23 167.94
  A 0.55 0.47 -1.5 0 1 419.68 168.44
  L 381.41 168.50
  A 0.63 0.54 2.1 0 1 380.77 167.91
  L 381.04 164.00
  L 420.00 163.79
  Z"
/>
<path fill="#ffffff" d="
  M 527.21 243.25
  L 527.26 246.15
  A 0.87 0.84 -0.3 0 1 526.39 247.00
  L 439.11 247.00
  A 0.92 0.89 -90.0 0 1 438.22 246.08
  L 438.21 243.00
  Q 438.19 242.50 439.00 242.50
  Q 482.50 242.50 526.00 242.50
  Q 526.92 242.50 527.21 243.25
  Z"
/>
</svg>
