<?xml version="1.0" encoding="UTF-8" standalone="no"?>
<!DOCTYPE svg PUBLIC "-//W3C//DTD SVG 1.1//EN" "http://www.w3.org/Graphics/SVG/1.1/DTD/svg11.dtd">
<svg xmlns="http://www.w3.org/2000/svg" version="1.1" viewBox="0 0 600 300">
<path fill="#ffffff" d="
  M 511.69 101.11
  C 485.60 95.68 490.62 58.47 517.00 58.80
  Q 533.00 59.00 549.00 59.05
  Q 555.66 59.08 560.98 63.01
  C 578.42 75.91 568.61 101.89 547.50 101.66
  Q 535.41 101.53 523.33 101.51
  Q 513.50 101.49 511.69 101.11
  Z
  M 556.93 79.97
  A 7.91 7.91 0.0 0 0 549.02 72.06
  L 515.50 72.06
  A 7.91 7.91 0.0 0 0 507.59 79.97
  L 507.59 80.55
  A 7.91 7.91 0.0 0 0 515.50 88.46
  L 549.02 88.46
  A 7.91 7.91 0.0 0 0 556.93 80.55
  L 556.93 79.97
  Z"
/>
<path fill="#961f23" d="
  M 118.59 201.89
  A 1.21 1.17 81.6 0 0 117.44 201.01
  L 75.55 201.06
  A 0.62 0.61 -81.8 0 0 74.96 201.51
  L 64.26 238.50
  A 0.70 0.69 -81.5 0 1 63.60 239.00
  L 32.71 239.00
  A 0.43 0.43 -82.2 0 1 32.30 238.46
  Q 53.67 161.83 74.94 85.94
  C 78.09 74.69 82.69 64.38 95.85 64.03
  C 110.68 63.64 115.56 75.88 118.86 87.76
  Q 139.73 162.65 160.99 238.34
  A 0.47 0.47 82.6 0 1 160.53 238.94
  L 129.44 238.82
  A 0.67 0.65 -7.4 0 1 128.80 238.34
  L 118.59 201.89
  Z
  M 83.61 169.62
  A 0.32 0.32 8.0 0 0 83.92 170.02
  L 109.27 169.98
  A 0.32 0.32 -8.2 0 0 109.58 169.57
  L 96.83 124.77
  A 0.32 0.32 -38.5 0 0 96.21 124.77
  L 83.61 169.62
  Z"
/>
<path fill="#961f23" d="
  M 165.29 95.06
  L 132.68 94.82
  A 0.51 0.50 90.0 0 1 132.18 94.31
  L 132.01 64.87
  A 0.88 0.87 -0.0 0 1 132.89 64.00
  L 230.32 64.19
  A 0.50 0.50 0.0 0 1 230.82 64.69
  L 230.99 94.08
  A 0.92 0.91 -0.3 0 1 230.07 95.00
  L 197.63 95.00
  A 0.88 0.88 0.0 0 0 196.75 95.88
  L 196.75 238.24
  A 0.70 0.69 -90.0 0 1 196.06 238.94
  L 166.57 238.94
  A 0.51 0.50 0.0 0 1 166.06 238.44
  L 166.00 95.77
  A 0.72 0.71 0.4 0 0 165.29 95.06
  Z"
/>
<path fill="#961f23" d="
  M 289.54 201.71
  A 0.97 0.96 82.1 0 0 288.61 201.00
  L 246.96 201.00
  A 1.18 1.17 -82.2 0 0 245.83 201.86
  L 235.31 238.30
  A 0.97 0.97 8.0 0 1 234.38 239.00
  L 203.96 238.94
  A 0.55 0.54 -82.2 0 1 203.44 238.25
  Q 225.64 157.94 247.81 79.56
  C 250.78 69.08 260.31 62.53 271.10 64.29
  C 283.51 66.32 286.72 77.59 289.71 88.11
  Q 310.77 162.34 331.41 236.69
  C 331.57 237.24 332.49 239.11 332.48 236.81
  Q 332.18 160.52 332.72 84.22
  C 332.79 74.74 338.60 67.02 347.54 64.76
  Q 350.53 64.00 364.52 64.00
  C 375.00 64.00 387.67 63.14 396.73 65.17
  C 417.92 69.91 435.33 88.49 435.69 110.94
  C 436.07 135.49 418.21 156.07 395.96 164.27
  A 0.56 0.55 -26.3 0 0 395.68 165.08
  L 441.73 238.35
  Q 442.14 239.00 441.37 239.00
  L 406.82 239.00
  A 1.02 1.02 -16.2 0 1 405.96 238.53
  Q 388.40 211.11 370.64 183.59
  Q 366.74 177.54 364.21 172.01
  Q 363.50 170.45 363.50 172.16
  L 363.50 238.07
  A 0.93 0.93 0.0 0 1 362.57 239.00
  L 300.92 239.00
  A 1.22 1.19 -7.5 0 1 299.75 238.12
  L 289.54 201.71
  Z
  M 363.44 154.46
  Q 363.44 156.17 364.08 154.59
  C 368.66 143.31 381.96 138.21 391.78 132.30
  C 396.64 129.37 400.54 126.39 402.81 121.81
  C 409.11 109.16 399.57 95.23 385.75 95.08
  Q 374.78 94.95 364.20 95.06
  A 0.71 0.71 -0.4 0 0 363.50 95.77
  L 363.44 154.46
  Z
  M 254.62 169.63
  A 0.31 0.31 7.4 0 0 254.92 170.02
  L 280.29 169.98
  A 0.31 0.31 82.1 0 0 280.59 169.58
  L 267.83 124.71
  A 0.31 0.31 44.8 0 0 267.23 124.71
  L 254.62 169.63
  Z"
/>
<rect fill="#961f23" x="454.50" y="64.00" width="31.00" height="175.00" rx="0.67"/>
<path fill="#ffffff" d="
  M 517.00 146.50
  C 486.37 146.50 487.71 103.32 517.25 103.76
  Q 530.98 103.96 544.71 103.99
  Q 552.07 104.01 555.64 105.27
  C 570.15 110.39 574.69 128.36 564.19 139.69
  C 557.61 146.78 551.13 146.50 540.50 146.50
  Q 528.75 146.50 517.00 146.50
  Z
  M 556.93 124.97
  A 7.91 7.91 0.0 0 0 549.02 117.06
  L 515.50 117.06
  A 7.91 7.91 0.0 0 0 507.59 124.97
  L 507.59 125.55
  A 7.91 7.91 0.0 0 0 515.50 133.46
  L 549.02 133.46
  A 7.91 7.91 0.0 0 0 556.93 125.55
  L 556.93 124.97
  Z"
/>
<path fill="#ffffff" d="
  M 532.45 157.62
  C 546.06 146.48 568.54 152.25 569.94 171.36
  C 571.41 191.57 546.88 201.36 532.62 188.34
  A 0.57 0.57 -44.2 0 0 531.87 188.33
  C 524.04 194.87 512.22 196.65 503.61 190.42
  C 478.39 172.19 508.70 137.26 531.69 157.60
  A 0.59 0.59 -43.4 0 0 532.45 157.62
  Z
  M 525.7498 173.0739
  A 9.15 8.10 0.4 0 0 516.6565 164.9102
  A 9.15 8.10 0.4 0 0 507.4502 172.9461
  A 9.15 8.10 0.4 0 0 516.5435 181.1098
  A 9.15 8.10 0.4 0 0 525.7498 173.0739
  Z
  M 557.06 173.00
  A 9.13 8.08 0.0 0 0 547.93 164.92
  A 9.13 8.08 0.0 0 0 538.80 173.00
  A 9.13 8.08 0.0 0 0 547.93 181.08
  A 9.13 8.08 0.0 0 0 557.06 173.00
  Z"
/>
<path fill="#ffffff" d="
  M 507.31 214.94
  L 507.25 238.60
  A 0.58 0.57 -3.4 0 1 506.74 239.17
  Q 500.75 239.84 494.74 239.16
  A 0.55 0.55 -87.1 0 1 494.25 238.61
  Q 494.25 225.78 494.25 212.67
  C 494.25 202.77 498.04 197.95 508.12 201.64
  Q 538.69 212.84 569.49 224.60
  A 0.80 0.79 10.9 0 1 570.00 225.34
  L 570.00 236.85
  A 0.67 0.66 10.4 0 1 569.10 237.47
  L 507.92 214.52
  A 0.45 0.45 10.4 0 0 507.31 214.94
  Z"
/>
</svg>
