<?xml version="1.0" encoding="UTF-8" standalone="no"?>
<!DOCTYPE svg PUBLIC "-//W3C//DTD SVG 1.1//EN" "http://www.w3.org/Graphics/SVG/1.1/DTD/svg11.dtd">
<svg xmlns="http://www.w3.org/2000/svg" version="1.1" viewBox="0 0 600 282">
<g stroke-width="2.00" fill="none" stroke-linecap="butt">
<path stroke="#5fc0ed" vector-effect="non-scaling-stroke" d="
  M 360.50 145.21
  Q 362.03 146.15 360.44 147.19
  Q 356.43 149.80 357.66 154.00"
/>
<path stroke="#2a5f77" vector-effect="non-scaling-stroke" d="
  M 357.66 154.00
  L 343.75 154.00
  A 1.03 0.85 13.8 0 0 342.94 154.39
  C 341.60 156.38 345.76 156.01 346.75 156.46"
/>
<path stroke="#aadef6" vector-effect="non-scaling-stroke" d="
  M 346.75 156.46
  Q 345.75 157.30 345.76 158.45
  A 0.60 0.53 89.0 0 0 346.30 159.04
  L 350.60 158.96"
/>
<path stroke="#2a5f77" vector-effect="non-scaling-stroke" d="
  M 350.60 158.96
  Q 350.87 185.38 350.76 211.81
  C 350.74 217.47 351.25 222.19 344.25 222.02
  A 1.70 1.22 20.6 0 0 343.33 222.27
  C 340.80 224.09 345.16 223.94 345.75 224.29"
/>
<path stroke="#aadef6" vector-effect="non-scaling-stroke" d="
  M 345.75 224.29
  Q 344.80 227.92 348.79 227.45"
/>
<path stroke="#55baeb" vector-effect="non-scaling-stroke" d="
  M 318.50 237.96
  C 315.21 238.39 318.87 235.97 319.62 235.33
  A 0.91 0.75 66.6 0 0 319.85 234.53
  L 318.84 229.68
  A 0.83 0.53 -87.4 0 0 318.58 229.23
  Q 316.09 227.51 317.19 227.69
  Q 317.04 226.96 316.25 226.96"
/>
<path stroke="#aadef6" vector-effect="non-scaling-stroke" d="
  M 316.25 226.96
  Q 323.07 224.36 327.96 219.09
  C 330.14 216.74 330.35 215.19 329.86 212.11
  Q 329.71 211.21 329.03 211.78
  L 327.29 213.25"
/>
<path stroke="#2a5f77" vector-effect="non-scaling-stroke" d="
  M 327.29 213.25
  L 327.25 209.24
  Q 327.23 207.46 326.24 208.92
  C 319.18 219.34 307.29 224.35 296.31 215.47"
/>
<path stroke="#aadef6" vector-effect="non-scaling-stroke" d="
  M 296.31 215.47
  Q 294.18 208.09 293.50 204.75
  C 291.06 192.84 291.12 171.85 301.94 163.94
  Q 311.30 157.09 321.20 164.44"
/>
<path stroke="#2a5f77" vector-effect="non-scaling-stroke" d="
  M 321.20 164.44
  Q 325.32 169.53 326.72 176.20
  A 1.10 0.72 89.0 0 0 327.23 176.95
  Q 327.84 177.21 328.46 176.75"
/>
<path stroke="#aadef6" vector-effect="non-scaling-stroke" d="
  M 328.46 176.75
  C 328.60 177.66 328.91 180.01 329.72 180.50
  C 330.93 181.23 331.00 179.64 331.00 178.89
  Q 330.96 168.09 331.07 156.76
  A 0.54 0.54 -84.1 0 0 330.64 156.23
  Q 328.99 155.88 328.54 157.50"
/>
<path stroke="#2a5f77" vector-effect="non-scaling-stroke" d="
  M 328.54 157.50
  L 328.19 153.81
  A 0.90 0.60 -88.2 0 0 327.74 153.09
  C 326.71 152.73 326.18 156.76 324.51 157.53
  C 322.23 158.58 318.98 156.69 316.82 155.68
  C 305.47 150.36 293.98 153.61 285.24 161.99"
/>
<path stroke="#55baeb" vector-effect="non-scaling-stroke" d="
  M 285.24 161.99
  Q 284.79 160.68 285.20 159.24
  C 285.38 158.59 285.51 157.16 286.27 156.57
  A 0.60 0.54 -32.6 0 0 286.46 155.87
  Q 284.67 152.29 285.12 148.31
  A 1.90 1.12 47.8 0 0 284.93 147.38
  C 284.59 146.66 284.61 146.54 284.89 145.83
  Q 286.05 142.95 285.21 139.92
  Q 285.10 139.52 284.70 139.09
  C 284.24 138.59 283.21 133.51 283.13 132.56
  Q 282.83 129.08 283.28 125.58
  A 0.37 0.27 -4.7 0 1 283.58 125.32
  L 283.85 125.27
  A 0.91 0.47 -85.6 0 0 284.32 124.52
  Q 286.37 110.19 285.19 95.76
  C 284.83 91.40 285.27 87.40 284.59 82.86
  C 284.06 79.34 284.56 75.73 284.17 72.41
  Q 283.43 65.93 284.00 64.00
  Q 284.44 62.50 283.10 62.50
  Q 281.78 62.50 282.51 61.40
  C 284.15 58.91 282.94 57.22 282.93 55.13
  Q 282.80 38.56 282.55 21.26
  Q 282.54 20.51 282.03 21.07
  C 280.36 22.92 281.78 19.26 281.46 18.25"
/>
<path stroke="#2b5b74" vector-effect="non-scaling-stroke" d="
  M 285.24 161.99
  C 271.47 177.64 270.27 202.11 285.17 217.62"
/>
<path stroke="#abdbf4" vector-effect="non-scaling-stroke" d="
  M 285.17 217.62
  Q 290.64 224.50 300.56 227.44
  Q 309.17 229.99 316.25 226.96"
/>
<path stroke="#57b2e5" vector-effect="non-scaling-stroke" d="
  M 268.13 228.79
  Q 270.61 228.98 271.29 227.29
  A 1.12 0.82 44.9 0 0 271.15 226.40
  Q 270.36 225.11 270.40 223.57
  A 1.87 1.35 -66.8 0 0 270.19 222.64
  C 266.74 216.60 266.29 209.29 264.66 202.72
  C 263.51 198.08 263.88 193.18 262.94 188.31
  C 262.45 185.74 262.97 182.62 261.65 179.98
  C 261.08 178.83 261.27 177.66 262.47 177.08"
/>
<path stroke="#abdbf4" vector-effect="non-scaling-stroke" d="
  M 262.47 177.08
  Q 263.08 165.67 262.75 158.75
  Q 262.64 156.51 260.29 157.25"
/>
<path stroke="#2b5b74" vector-effect="non-scaling-stroke" d="
  M 260.29 157.25
  Q 260.59 155.45 259.75 153.96"
/>
<path stroke="#57b2e5" vector-effect="non-scaling-stroke" d="
  M 259.75 153.96
  Q 259.95 152.74 259.12 151.84
  A 0.49 0.48 45.4 0 1 259.12 151.17
  C 261.34 148.88 256.88 146.65 259.60 143.54
  A 1.31 1.14 -28.5 0 0 259.92 142.68
  Q 259.76 137.89 259.89 133.09
  C 260.00 129.38 258.92 125.62 259.00 121.25
  Q 259.37 100.61 258.22 71.37
  C 258.03 66.73 258.51 61.23 258.29 56.17
  C 258.22 54.42 258.83 51.74 256.05 52.21
  A 1.73 1.11 -62.4 0 0 255.22 52.68
  L 253.06 54.84
  A 0.41 0.40 -38.4 0 1 252.42 54.77
  L 251.96 54.00"
/>
<path stroke="#808080" vector-effect="non-scaling-stroke" d="
  M 369.25 156.29
  Q 364.88 156.85 364.50 161.00
  Q 363.93 167.34 364.30 184.19
  A 0.71 0.67 -82.8 0 0 364.78 184.85
  Q 365.98 185.21 367.25 184.96"
/>
<path stroke="#808080" vector-effect="non-scaling-stroke" d="
  M 384.37 159.37
  Q 383.15 156.99 380.50 156.46"
/>
<path stroke="#808080" vector-effect="non-scaling-stroke" d="
  M 403.50 156.29
  Q 398.31 156.64 398.30 162.00
  Q 398.25 186.63 398.11 211.25
  Q 398.08 216.36 398.56 218.44
  Q 399.11 220.79 401.37 221.10"
/>
<path stroke="#808080" vector-effect="non-scaling-stroke" d="
  M 404.96 224.50
  Q 394.76 223.53 384.56 224.16"
/>
<path stroke="#356277" vector-effect="non-scaling-stroke" d="
  M 384.25 194.71
  Q 384.67 194.17 384.71 193.50"
/>
<path stroke="#808080" vector-effect="non-scaling-stroke" d="
  M 384.71 193.50
  Q 384.97 191.97 384.58 190.53
  A 0.67 0.64 -7.4 0 0 383.94 190.06
  L 365.04 190.01
  A 0.77 0.76 -89.3 0 0 364.27 190.77
  Q 364.09 204.63 364.50 217.25
  Q 364.58 219.76 367.67 221.52"
/>
<path stroke="#808080" vector-effect="non-scaling-stroke" d="
  M 370.78 224.24
  Q 358.24 223.68 345.75 224.29"
/>
<path stroke="#808080" vector-effect="non-scaling-stroke" d="
  M 350.60 158.96
  Q 348.92 156.84 346.75 156.46"
/>
<path stroke="#808080" vector-effect="non-scaling-stroke" d="
  M 328.54 157.50
  Q 327.89 167.12 328.46 176.75"
/>
<path stroke="#808080" vector-effect="non-scaling-stroke" d="
  M 321.20 164.44
  C 314.10 155.46 301.69 155.97 295.32 165.32
  Q 291.54 170.85 290.26 177.45
  Q 286.36 197.69 296.31 215.47"
/>
<path stroke="#808080" vector-effect="non-scaling-stroke" d="
  M 327.29 213.25
  C 317.29 227.81 298.23 228.29 285.17 217.62"
/>
<path stroke="#356277" vector-effect="non-scaling-stroke" d="
  M 395.50 153.96
  L 377.75 154.00
  A 1.28 0.98 16.5 0 0 376.89 154.33
  C 375.11 156.21 379.70 156.20 380.50 156.46"
/>
<path stroke="#b5e1f6" vector-effect="non-scaling-stroke" d="
  M 380.50 156.46
  Q 377.50 160.59 384.37 159.37"
/>
<path stroke="#356277" vector-effect="non-scaling-stroke" d="
  M 384.37 159.37
  L 384.71 183.96
  A 1.04 1.01 -0.3 0 1 383.66 184.99
  L 367.25 184.96"
/>
<path stroke="#b5e1f6" vector-effect="non-scaling-stroke" d="
  M 367.25 184.96
  Q 367.39 181.62 367.50 165.00
  Q 367.54 159.54 372.78 159.26
  C 373.69 159.22 377.71 158.64 374.21 157.18
  A 1.25 1.01 -40.9 0 0 373.30 157.21
  Q 370.84 158.22 369.25 156.29"
/>
<path stroke="#356277" vector-effect="non-scaling-stroke" d="
  M 369.25 156.29
  Q 372.51 156.91 372.27 154.56
  A 0.61 0.57 -2.1 0 0 371.68 154.05
  L 357.66 154.00"
/>
<path stroke="#acd6f0" vector-effect="non-scaling-stroke" d="
  M 262.47 177.08
  Q 260.32 176.22 260.29 174.00"
/>
<path stroke="#808080" vector-effect="non-scaling-stroke" d="
  M 260.29 157.25
  L 260.29 174.00"
/>
<path stroke="#2c5771" vector-effect="non-scaling-stroke" d="
  M 260.29 174.00
  Q 258.75 174.53 258.50 173.00
  Q 257.50 166.76 254.32 162.36"
/>
<path stroke="#808080" vector-effect="non-scaling-stroke" d="
  M 254.32 162.36
  C 250.89 158.48 246.86 158.76 242.10 159.03
  A 0.92 0.92 -2.3 0 0 241.23 159.97
  C 241.53 179.34 240.81 198.02 241.56 217.00
  Q 241.69 220.06 244.16 220.86"
/>
<path stroke="#808080" vector-effect="non-scaling-stroke" d="
  M 247.22 224.22
  Q 237.44 223.66 227.54 224.25"
/>
<path stroke="#2c4c69" vector-effect="non-scaling-stroke" d="
  M 227.75 169.90
  Q 228.36 166.08 227.71 162.00"
/>
<path stroke="#808080" vector-effect="non-scaling-stroke" d="
  M 227.71 162.00
  Q 228.09 160.83 227.91 159.68
  A 0.65 0.63 -1.6 0 0 227.32 159.14
  C 217.35 158.43 211.43 162.06 211.21 172.50"
/>
<path stroke="#2c5771" vector-effect="non-scaling-stroke" d="
  M 259.75 153.96
  L 240.34 154.02"
/>
<path stroke="#59a7dd" vector-effect="non-scaling-stroke" d="
  M 240.34 154.02
  Q 238.50 138.28 238.08 122.46
  C 237.86 113.95 237.40 106.02 238.55 97.51
  C 238.84 95.41 238.00 93.47 238.14 91.49
  C 238.43 87.59 237.77 83.83 238.02 79.93
  Q 238.19 77.10 238.00 74.25
  Q 237.86 72.14 236.81 73.81
  Q 236.09 74.96 235.16 74.75
  Q 234.22 74.53 234.21 74.52
  Q 233.90 74.32 234.21 73.50"
/>
<path stroke="#426677" vector-effect="non-scaling-stroke" d="
  M 417.75 153.96
  Q 414.90 154.84 417.91 156.09"
/>
<path stroke="#8acdef" vector-effect="non-scaling-stroke" d="
  M 417.91 156.09
  Q 416.65 164.12 417.35 172.24
  Q 417.82 177.73 417.12 183.82
  Q 416.88 185.85 417.50 187.79
  Q 418.09 189.62 417.14 192.61
  Q 416.85 193.52 416.75 195.32
  L 416.13 207.19
  Q 416.10 207.74 416.29 208.14
  Q 417.87 211.60 415.21 214.50"
/>
<path stroke="#c2e5f7" vector-effect="non-scaling-stroke" d="
  M 401.37 195.43
  Q 401.01 180.74 401.42 165.92
  C 401.55 161.29 403.43 158.61 408.25 158.95
  A 1.08 0.81 16.7 0 0 409.10 158.64
  C 410.81 156.50 404.61 157.39 404.07 157.42
  A 0.58 0.43 82.7 0 1 403.61 156.94
  L 403.50 156.29"
/>
<path stroke="#426677" vector-effect="non-scaling-stroke" d="
  M 403.50 156.29
  L 405.57 155.93
  A 0.85 0.84 3.3 0 0 406.24 155.34
  Q 406.66 153.91 405.00 153.96"
/>
<path stroke="#7fc9ee" vector-effect="non-scaling-stroke" d="
  M 405.00 153.96
  Q 403.16 152.81 404.78 152.16
  A 0.78 0.69 -11.6 0 0 405.27 151.51
  Q 405.43 147.84 405.00 138.25
  Q 404.80 133.78 404.53 110.55
  C 404.50 107.22 404.81 102.02 404.50 97.25
  Q 404.37 95.22 405.42 92.66
  C 405.60 92.21 406.78 91.63 405.25 91.21"
/>
<path stroke="#b5e1f6" vector-effect="non-scaling-stroke" d="
  M 384.71 193.50
  Q 376.36 192.93 368.00 193.47
  A 0.55 0.52 -2.3 0 0 367.48 194.00
  L 367.91 210.56"
/>
<path stroke="#3d6477" vector-effect="non-scaling-stroke" d="
  M 405.00 153.96
  L 395.50 153.96"
/>
<path stroke="#72c5ee" vector-effect="non-scaling-stroke" d="
  M 395.50 153.96
  Q 392.10 154.26 393.22 152.41
  A 0.38 0.37 -64.8 0 0 393.03 151.86
  Q 391.85 151.46 392.74 150.92
  A 1.32 0.90 -17.3 0 0 393.31 150.20
  C 393.71 148.28 392.97 146.71 393.13 144.94
  Q 393.75 137.69 392.58 130.49
  Q 392.51 130.03 392.67 129.54
  Q 393.34 127.46 392.75 125.00
  Q 391.46 119.60 392.82 113.80
  A 0.91 0.52 -72.4 0 0 392.63 112.93
  Q 392.30 112.74 391.75 112.96"
/>
<path stroke="#acd6f0" vector-effect="non-scaling-stroke" d="
  M 254.32 162.36
  L 244.56 162.05
  A 0.51 0.49 -88.9 0 0 244.05 162.56
  L 244.15 184.73"
/>
<path stroke="#2c4665" vector-effect="non-scaling-stroke" d="
  M 210.03 153.96
  Q 208.65 163.41 209.28 172.94
  A 0.80 0.67 -85.8 0 0 209.78 173.63
  Q 210.82 173.91 211.21 172.50"
/>
<path stroke="#abc6e5" vector-effect="non-scaling-stroke" d="
  M 211.21 172.50
  Q 210.96 175.04 212.45 177.18"
/>
<path stroke="#5892ce" vector-effect="non-scaling-stroke" d="
  M 212.45 177.18
  L 213.25 180.54"
/>
<path stroke="#5687c7" vector-effect="non-scaling-stroke" d="
  M 199.46 197.00
  Q 198.05 196.61 198.75 195.25
  Q 199.95 192.92 199.50 192.00
  Q 198.06 189.07 198.80 185.97
  C 199.22 184.19 198.26 182.69 198.23 180.90
  Q 198.04 171.61 198.18 162.31
  A 1.75 0.77 46.6 0 0 197.87 161.44
  L 196.50 159.21"
/>
<path stroke="#abc6e5" vector-effect="non-scaling-stroke" d="
  M 196.50 159.21
  Q 200.90 158.52 197.72 157.41
  Q 197.33 157.27 196.76 157.34
  Q 195.14 157.56 194.00 156.46"
/>
<path stroke="#2c4665" vector-effect="non-scaling-stroke" d="
  M 194.00 156.46
  Q 195.58 157.00 196.50 154.71"
/>
<path stroke="#5687c7" vector-effect="non-scaling-stroke" d="
  M 196.50 154.71
  Q 197.84 154.54 197.75 152.50
  Q 197.17 139.88 197.01 127.25
  Q 197.00 126.80 196.77 126.31
  C 195.33 123.33 196.44 117.24 195.99 112.56
  A 0.87 0.72 9.9 0 0 195.45 111.93
  Q 194.46 111.57 194.21 110.50"
/>
<path stroke="#2c4c69" vector-effect="non-scaling-stroke" d="
  M 225.25 153.96
  L 210.03 153.96"
/>
<path stroke="#5892ce" vector-effect="non-scaling-stroke" d="
  M 210.03 153.96
  Q 211.67 146.44 210.66 138.78
  C 210.13 134.77 211.25 130.64 210.93 126.49
  C 210.75 124.20 209.43 122.36 209.76 119.58
  C 210.36 114.57 209.96 109.40 209.94 102.56
  Q 209.93 101.14 208.31 100.96
  A 0.38 0.33 15.2 0 1 207.98 100.47
  Q 208.25 99.95 208.80 99.77
  A 0.59 0.47 -10.6 0 0 209.21 99.29
  Q 209.22 98.29 208.65 99.11
  A 0.85 0.44 -61.4 0 1 208.06 99.51
  L 207.50 99.46"
/>
<path stroke="#accce9" vector-effect="non-scaling-stroke" d="
  M 227.71 162.00
  C 216.14 160.80 216.15 169.09 212.45 177.18"
/>
<path stroke="#2d516d" vector-effect="non-scaling-stroke" d="
  M 240.34 154.02
  L 225.25 153.96"
/>
<path stroke="#599dd6" vector-effect="non-scaling-stroke" d="
  M 225.25 153.96
  Q 221.66 153.63 224.31 153.46
  A 0.40 0.40 -3.0 0 0 224.68 153.05
  Q 224.56 147.69 224.31 142.34
  C 224.22 140.27 224.55 137.95 223.60 135.67
  C 222.18 132.22 222.46 129.66 222.53 126.03
  Q 222.73 114.33 221.56 93.31
  Q 221.28 88.28 220.93 87.01"
/>
<path stroke="#808080" vector-effect="non-scaling-stroke" d="
  M 464.29 157.25
  L 464.21 174.75"
/>
<path stroke="#576f7a" vector-effect="non-scaling-stroke" d="
  M 464.21 174.75
  Q 463.50 175.25 463.05 174.89
  A 1.22 0.52 -84.3 0 1 462.77 174.00
  Q 462.73 172.56 461.71 171.50"
/>
<path stroke="#808080" vector-effect="non-scaling-stroke" d="
  M 458.44 163.63
  C 453.60 157.93 446.29 158.65 438.94 159.15
  A 0.56 0.54 -1.8 0 0 438.42 159.68
  L 438.30 185.18
  A 0.77 0.69 -81.6 0 0 438.77 185.89
  Q 439.90 186.28 441.49 185.77"
/>
<path stroke="#576f7a" vector-effect="non-scaling-stroke" d="
  M 441.49 185.77
  C 448.80 184.68 449.99 176.45 450.70 170.67
  A 0.92 0.59 87.9 0 1 451.09 170.01
  Q 451.34 169.91 451.56 170.00
  A 1.00 0.53 -87.7 0 1 451.95 170.81
  L 452.29 177.75"
/>
<path stroke="#808080" vector-effect="non-scaling-stroke" d="
  M 452.29 177.75
  Q 451.64 191.63 452.29 205.50"
/>
<path stroke="#526c79" vector-effect="non-scaling-stroke" d="
  M 452.29 205.50
  Q 451.52 206.42 450.84 205.87
  A 1.26 0.78 -80.2 0 1 450.49 205.00
  Q 450.26 198.87 447.00 193.71"
/>
<path stroke="#808080" vector-effect="non-scaling-stroke" d="
  M 447.00 193.71
  Q 444.74 190.05 439.41 189.99
  A 1.14 1.14 0.1 0 0 438.26 191.12
  Q 438.11 204.00 438.50 216.00
  Q 438.60 219.10 441.75 219.71"
/>
<path stroke="#526c79" vector-effect="non-scaling-stroke" d="
  M 441.75 219.71
  Q 448.76 220.83 455.59 218.52"
/>
<path stroke="#576f7a" vector-effect="non-scaling-stroke" d="
  M 455.59 218.52
  C 462.00 215.47 465.78 208.90 466.69 202.06"
/>
<path stroke="#5f737c" vector-effect="non-scaling-stroke" d="
  M 466.69 202.06
  Q 468.73 201.78 468.25 203.50
  Q 467.51 206.17 467.29 211.75"
/>
<path stroke="#808080" vector-effect="non-scaling-stroke" d="
  M 467.29 211.75
  L 466.00 223.26
  A 0.77 0.75 -86.9 0 1 465.26 223.94
  L 424.51 224.15"
/>
<path stroke="#486878" vector-effect="non-scaling-stroke" d="
  M 421.50 221.29
  Q 424.66 220.39 424.69 217.19
  Q 424.82 203.04 424.76 161.50
  Q 424.76 159.81 423.79 158.50"
/>
<path stroke="#808080" vector-effect="non-scaling-stroke" d="
  M 423.79 158.50
  Q 422.66 156.66 420.50 156.29"
/>
<path stroke="#486878" vector-effect="non-scaling-stroke" d="
  M 420.50 156.29
  Q 418.73 155.82 417.91 156.09"
/>
<path stroke="#94d2f1" vector-effect="non-scaling-stroke" d="
  M 429.50 76.79
  Q 431.55 77.58 429.12 77.99
  A 1.44 1.41 -1.4 0 0 427.94 79.21
  Q 427.38 83.61 427.26 88.23
  C 427.16 92.20 428.02 98.64 427.87 103.88
  C 427.65 111.52 428.70 118.97 428.15 126.68
  C 427.97 129.17 428.66 131.82 428.56 133.94
  Q 428.22 141.39 429.07 150.16
  A 3.14 3.10 63.4 0 1 428.31 152.50
  Q 427.14 153.83 429.75 153.96"
/>
<path stroke="#486878" vector-effect="non-scaling-stroke" d="
  M 429.75 153.96
  L 417.75 153.96"
/>
<path stroke="#8acdef" vector-effect="non-scaling-stroke" d="
  M 417.75 153.96
  Q 417.07 137.12 417.50 117.00
  Q 417.60 112.30 416.82 106.50
  Q 416.76 106.04 416.95 105.53
  C 417.59 103.80 417.73 96.22 417.54 94.17
  Q 416.91 87.12 417.25 80.04"
/>
<path stroke="#c7e7f8" vector-effect="non-scaling-stroke" d="
  M 420.50 156.29
  Q 418.62 161.18 423.79 158.50"
/>
<path stroke="#808080" vector-effect="non-scaling-stroke" d="
  M 194.00 156.46
  C 189.71 156.24 188.52 158.85 188.46 162.77
  C 188.20 179.76 189.12 197.30 188.07 214.18
  Q 187.81 218.29 190.85 220.90"
/>
<path stroke="#808080" vector-effect="non-scaling-stroke" d="
  M 194.00 224.27
  Q 181.78 223.54 169.54 224.50"
/>
<path stroke="#808080" vector-effect="non-scaling-stroke" d="
  M 174.46 160.00
  Q 174.10 157.57 171.75 156.96"
/>
<path stroke="#526c79" vector-effect="non-scaling-stroke" d="
  M 171.75 156.96
  Q 170.84 156.40 169.75 156.46"
/>
<path stroke="#2b4162" vector-effect="non-scaling-stroke" d="
  M 196.50 154.71
  Q 190.64 153.48 184.75 153.96"
/>
<path stroke="#547dc0" vector-effect="non-scaling-stroke" d="
  M 184.75 153.96
  Q 184.61 149.24 184.95 144.55
  C 185.08 142.77 184.73 141.10 184.77 139.10
  Q 184.78 138.40 184.51 137.76
  Q 183.47 135.29 183.32 133.18
  C 183.07 129.56 185.12 127.31 183.79 122.49
  A 0.65 0.64 -13.7 0 0 183.03 122.03
  Q 180.58 122.55 180.75 121.21"
/>
<path stroke="#aac1e2" vector-effect="non-scaling-stroke" d="
  M 196.50 159.21
  C 192.18 159.22 191.04 161.83 190.93 165.82
  Q 190.38 186.29 191.04 206.75"
/>
<path stroke="#526c79" vector-effect="non-scaling-stroke" d="
  M 447.50 153.71
  L 440.50 153.96"
/>
<path stroke="#d2ecf9" vector-effect="non-scaling-stroke" d="
  M 447.00 193.71
  L 442.06 193.35
  A 0.47 0.47 2.2 0 0 441.55 193.82
  L 441.75 219.71"
/>
<path stroke="#a9dbf3" vector-effect="non-scaling-stroke" d="
  M 455.59 218.52
  Q 454.48 216.06 455.71 214.16
  A 1.63 1.01 -41.9 0 0 455.97 213.26
  Q 455.76 211.03 454.12 209.71"
/>
<path stroke="#d7eefa" vector-effect="non-scaling-stroke" d="
  M 454.12 209.71
  Q 455.25 209.49 455.25 209.00
  Q 455.31 193.13 455.24 174.51
  A 0.97 0.97 0.6 0 0 454.29 173.54
  C 452.87 173.49 454.48 177.01 452.29 177.75"
/>
<path stroke="#def2fb" vector-effect="non-scaling-stroke" d="
  M 467.79 172.25
  C 467.28 174.19 468.09 177.38 466.75 178.46"
/>
<path stroke="#d7eefa" vector-effect="non-scaling-stroke" d="
  M 466.75 178.46
  C 464.85 177.58 466.57 175.42 464.21 174.75"
/>
<path stroke="#d7eefa" vector-effect="non-scaling-stroke" d="
  M 450.46 162.25
  Q 446.33 161.68 442.19 162.13
  A 0.57 0.56 -2.8 0 0 441.68 162.69
  L 441.49 185.77"
/>
<path stroke="#d4edf9" vector-effect="non-scaling-stroke" d="
  M 463.00 227.04
  Q 446.99 226.63 430.99 227.35"
/>
<path stroke="#def2fb" vector-effect="non-scaling-stroke" d="
  M 485.25 224.04
  Q 483.68 227.66 487.48 227.55"
/>
<path stroke="#b3e0f5" vector-effect="non-scaling-stroke" d="
  M 468.54 234.50
  Q 464.14 234.13 463.78 229.99
  Q 463.75 229.63 463.95 229.05
  Q 464.41 227.74 463.00 227.04"
/>
<path stroke="#def2fb" vector-effect="non-scaling-stroke" d="
  M 463.00 227.04
  L 468.11 227.01
  A 1.09 1.06 3.0 0 0 469.18 226.07
  L 471.61 205.40
  Q 471.77 204.06 470.59 204.73
  C 469.56 205.33 468.55 210.13 467.29 211.75"
/>
<path stroke="#b6e1f6" vector-effect="non-scaling-stroke" d="
  M 466.69 202.06
  Q 466.64 200.68 468.19 198.44
  Q 469.70 196.24 467.49 194.71
  A 1.01 0.90 19.7 0 1 467.07 193.94
  L 467.06 190.81
  Q 467.06 190.36 467.31 189.87
  Q 468.43 187.67 466.67 186.29
  A 1.10 1.08 -73.4 0 1 466.25 185.49
  L 466.07 182.75
  A 1.17 1.16 63.2 0 1 466.35 181.89
  Q 467.58 180.43 466.75 178.46"
/>
<path stroke="#9fd6f2" vector-effect="non-scaling-stroke" d="
  M 442.04 80.50
  Q 442.18 81.16 441.91 81.58
  A 0.98 0.57 11.7 0 1 441.06 81.86
  Q 439.16 81.69 439.48 84.00
  C 439.86 86.66 438.75 91.38 439.68 93.37
  A 1.11 0.94 -49.0 0 1 439.67 94.23
  C 438.82 96.27 439.62 102.90 439.41 106.07
  Q 439.08 111.29 439.44 115.93
  C 440.19 125.52 439.89 134.98 440.12 144.57
  Q 440.21 148.38 440.19 152.19
  A 0.83 0.78 -14.3 0 1 439.74 152.90
  Q 438.01 153.81 440.50 153.96"
/>
<path stroke="#4d6a79" vector-effect="non-scaling-stroke" d="
  M 440.50 153.96
  L 429.75 153.96"
/>
<path stroke="#d2ecf9" vector-effect="non-scaling-stroke" d="
  M 454.12 209.71
  C 452.84 208.19 454.43 205.98 452.29 205.50"
/>
<path stroke="#d2ecf9" vector-effect="non-scaling-stroke" d="
  M 171.75 156.96
  L 169.50 157.04"
/>
<path stroke="#28365b" vector-effect="non-scaling-stroke" d="
  M 174.25 153.96
  C 173.26 153.98 166.03 153.31 166.61 155.23
  A 1.00 0.82 1.6 0 0 167.29 155.82
  L 169.75 156.46"
/>
<path stroke="#7aa2d4" vector-effect="non-scaling-stroke" d="
  M 169.75 156.46
  Q 168.86 156.60 169.50 157.04"
/>
<path stroke="#a7b5da" vector-effect="non-scaling-stroke" d="
  M 169.50 157.04
  C 167.35 159.86 172.69 158.90 174.46 160.00"
/>
<path stroke="#28365b" vector-effect="non-scaling-stroke" d="
  M 174.46 160.00
  Q 174.97 187.62 174.79 215.25
  Q 174.75 222.41 167.81 222.10
  A 1.34 0.97 19.1 0 0 166.92 222.37
  C 165.25 223.89 168.79 224.25 169.54 224.50"
/>
<path stroke="#a7b5da" vector-effect="non-scaling-stroke" d="
  M 169.54 224.50
  Q 167.95 227.78 172.00 227.29"
/>
<path stroke="#4e67b2" vector-effect="non-scaling-stroke" d="
  M 164.51 235.04
  Q 164.10 230.63 163.60 226.17
  C 163.44 224.74 163.65 223.60 163.31 221.69
  Q 161.68 212.28 161.28 197.35
  C 161.24 195.91 160.36 194.58 161.04 192.95
  Q 161.25 192.44 161.21 191.99
  C 160.93 188.22 160.82 184.42 160.39 180.67
  Q 160.13 178.37 161.05 176.20
  A 1.27 1.21 -45.2 0 0 161.07 175.29
  C 159.73 171.87 160.64 168.41 159.64 164.74
  Q 159.51 164.26 159.63 163.78
  Q 160.49 160.31 157.85 159.08"
/>
<path stroke="#a7b5da" vector-effect="non-scaling-stroke" d="
  M 157.85 159.08
  C 158.91 156.36 155.46 157.51 154.00 156.96"
/>
<path stroke="#7aa2d4" vector-effect="non-scaling-stroke" d="
  M 154.00 156.96
  L 151.50 156.71"
/>
<path stroke="#28365b" vector-effect="non-scaling-stroke" d="
  M 151.50 156.71
  L 154.20 156.28
  A 1.29 1.24 -74.1 0 0 155.02 155.80
  Q 156.54 153.86 153.50 153.95
  Q 144.24 154.22 135.00 153.71"
/>
<path stroke="#2a3c5e" vector-effect="non-scaling-stroke" d="
  M 184.75 153.96
  L 174.25 153.96"
/>
<path stroke="#5171b9" vector-effect="non-scaling-stroke" d="
  M 174.25 153.96
  Q 173.43 153.91 173.14 153.47
  A 1.09 0.54 -56.8 0 1 173.25 152.55
  Q 174.10 150.89 173.82 149.49
  Q 173.51 147.93 173.41 146.35
  Q 172.88 138.38 173.00 132.75
  Q 173.07 129.74 169.50 129.29"
/>
<path stroke="#808080" vector-effect="non-scaling-stroke" d="
  M 512.00 155.96
  C 502.72 154.87 503.26 160.76 503.23 167.97
  Q 503.10 191.16 503.48 214.35
  C 503.51 216.54 504.17 218.73 506.75 218.38"
/>
<path stroke="#808080" vector-effect="non-scaling-stroke" d="
  M 533.56 208.50
  L 532.20 223.32
  A 0.75 0.73 -87.4 0 1 531.47 224.00
  L 485.25 224.04"
/>
<path stroke="#5f737c" vector-effect="non-scaling-stroke" d="
  M 485.25 224.04
  L 482.74 223.99
  A 1.24 1.02 -16.8 0 1 481.90 223.64
  Q 480.42 221.97 483.00 222.00
  C 488.02 222.05 489.45 220.07 489.55 215.16
  Q 490.27 179.86 489.50 160.00
  Q 489.41 157.62 486.57 157.09"
/>
<path stroke="#d2ecf9" vector-effect="non-scaling-stroke" d="
  M 154.00 156.96
  L 150.00 157.21"
/>
<path stroke="#a6b1d7" vector-effect="non-scaling-stroke" d="
  M 157.85 159.08
  C 152.43 158.36 150.28 160.86 150.21 166.14
  Q 149.80 193.58 150.04 221.06"
/>
<path stroke="#495bab" vector-effect="non-scaling-stroke" d="
  M 149.04 250.25
  Q 148.84 249.78 149.08 249.40
  Q 149.18 249.25 149.01 249.33
  Q 148.38 249.60 148.25 248.75
  Q 146.63 246.74 147.14 244.23
  Q 147.24 243.73 147.09 243.27
  Q 145.21 237.64 146.17 231.74
  A 1.57 0.46 62.2 0 0 145.98 230.82
  L 144.74 227.70
  A 0.29 0.24 70.1 0 0 144.43 227.52
  Q 143.44 227.81 143.25 227.04"
/>
<path stroke="#a6b1d7" vector-effect="non-scaling-stroke" d="
  M 143.25 227.04
  Q 152.95 226.67 155.75 227.00
  Q 158.24 227.30 157.86 225.78
  A 0.97 0.77 2.8 0 0 157.19 225.19
  L 155.25 224.71"
/>
<path stroke="#526c79" vector-effect="non-scaling-stroke" d="
  M 151.50 156.71
  Q 150.62 156.63 150.00 157.21"
/>
<path stroke="#808080" vector-effect="non-scaling-stroke" d="
  M 150.00 157.21
  C 147.39 157.15 147.50 163.74 147.50 165.23
  Q 147.50 190.24 147.50 215.25
  Q 147.50 219.12 150.04 221.06"
/>
<path stroke="#263158" vector-effect="non-scaling-stroke" d="
  M 150.04 221.06
  Q 151.78 222.13 154.43 222.08
  A 0.83 0.70 -10.6 0 1 155.17 222.50
  Q 155.59 223.51 155.25 224.71"
/>
<path stroke="#808080" vector-effect="non-scaling-stroke" d="
  M 155.25 224.71
  Q 141.73 223.10 128.30 224.72"
/>
<path stroke="#212751" vector-effect="non-scaling-stroke" d="
  M 128.30 224.72
  Q 124.96 223.74 126.61 222.30
  A 1.42 1.02 18.0 0 1 127.49 222.02
  Q 130.30 222.09 132.54 220.49
  A 1.49 1.41 81.1 0 0 133.08 219.71
  Q 134.00 216.37 134.00 210.50
  Q 133.99 183.54 133.41 172.43"
/>
<path stroke="#808080" vector-effect="non-scaling-stroke" d="
  M 133.41 172.43
  Q 134.67 167.28 133.61 162.00
  Q 133.50 161.49 133.34 161.98
  Q 123.22 192.41 112.47 222.62
  C 112.20 223.38 112.38 223.74 112.46 224.50"
/>
<path stroke="#212751" vector-effect="non-scaling-stroke" d="
  M 112.46 224.50
  Q 111.47 224.35 110.96 223.50"
/>
<path stroke="#1e204d" vector-effect="non-scaling-stroke" d="
  M 110.96 223.50
  C 109.41 219.08 94.97 177.16 94.00 176.96"
/>
<path stroke="#808080" vector-effect="non-scaling-stroke" d="
  M 91.39 168.70
  L 89.48 162.61
  Q 88.77 160.33 88.75 162.73
  Q 88.56 189.63 89.00 216.50
  Q 89.03 218.59 91.50 220.54"
/>
<path stroke="#1e204d" vector-effect="non-scaling-stroke" d="
  M 91.50 220.54
  C 93.02 221.56 98.79 222.01 97.00 224.54"
/>
<path stroke="#808080" vector-effect="non-scaling-stroke" d="
  M 97.00 224.54
  Q 88.99 223.26 81.00 224.71"
/>
<path stroke="#1e204d" vector-effect="non-scaling-stroke" d="
  M 81.00 224.71
  L 78.29 223.84
  A 0.86 0.72 7.7 0 1 77.70 223.19
  Q 77.59 222.10 79.00 222.00
  C 84.14 221.63 85.46 217.82 85.59 213.04
  Q 86.06 196.50 85.50 179.96"
/>
<path stroke="#7e7e7e" vector-effect="non-scaling-stroke" d="
  M 85.46 159.76
  Q 85.02 157.47 82.87 157.11"
/>
<path stroke="#808080" vector-effect="non-scaling-stroke" d="
  M 101.49 157.06
  L 116.43 200.05
  Q 116.84 201.23 117.31 200.07
  Q 117.88 198.65 117.84 197.46"
/>
<path stroke="#212751" vector-effect="non-scaling-stroke" d="
  M 117.84 197.46
  Q 125.62 176.36 132.25 155.21"
/>
<path stroke="#e6f7fd" vector-effect="non-scaling-stroke" d="
  M 507.19 210.00
  Q 505.87 184.03 506.75 165.00
  Q 507.06 158.18 514.25 158.94
  A 0.84 0.73 16.3 0 0 515.04 158.58
  C 516.27 156.48 512.54 157.74 512.00 155.96"
/>
<path stroke="#66777e" vector-effect="non-scaling-stroke" d="
  M 512.00 155.96
  Q 512.49 153.71 510.00 154.00
  Q 506.19 154.45 490.96 153.75"
/>
<path stroke="#a3aad3" vector-effect="non-scaling-stroke" d="
  M 143.25 227.04
  L 130.21 226.96"
/>
<path stroke="#a1a6d1" vector-effect="non-scaling-stroke" d="
  M 117.84 197.46
  Q 112.32 183.95 108.00 170.04"
/>
<path stroke="#9ea0cd" vector-effect="non-scaling-stroke" d="
  M 81.00 224.71
  C 78.33 226.37 80.02 227.00 81.76 227.00
  Q 90.00 227.00 98.25 227.00
  Q 100.00 227.00 99.63 225.78
  A 1.02 0.97 1.0 0 0 98.97 225.13
  L 97.00 224.54"
/>
<path stroke="#a1a6d1" vector-effect="non-scaling-stroke" d="
  M 128.30 224.72
  Q 127.83 227.47 130.21 226.96"
/>
<path stroke="#4451a4" vector-effect="non-scaling-stroke" d="
  M 130.21 226.96
  Q 129.09 231.72 129.16 236.62
  Q 129.19 238.53 130.20 240.65
  C 131.78 243.97 131.27 246.60 132.81 249.69
  C 134.43 252.94 132.27 254.80 132.10 257.26
  Q 131.95 259.61 134.50 260.04"
/>
<path stroke="#3f479e" vector-effect="non-scaling-stroke" d="
  M 116.50 269.04
  C 113.84 267.55 110.24 273.34 110.25 267.24
  A 2.00 2.00 -11.2 0 1 111.49 265.39
  C 115.47 263.74 112.14 260.94 111.14 259.02
  A 1.68 1.26 -60.3 0 1 111.02 258.07
  Q 111.98 252.06 110.20 245.80
  Q 110.06 245.30 110.18 244.80
  Q 110.86 241.92 109.78 239.51
  A 1.21 1.21 43.3 0 1 109.75 238.60
  Q 111.22 234.67 109.03 231.17
  A 1.33 1.32 -56.4 0 1 108.85 230.26
  C 109.29 227.57 107.08 224.70 110.96 223.50"
/>
<path stroke="#a1a6d1" vector-effect="non-scaling-stroke" d="
  M 133.41 172.43
  Q 119.80 209.96 115.44 224.44
  Q 113.98 229.28 112.46 224.50"
/>
<path stroke="#9ea0cd" vector-effect="non-scaling-stroke" d="
  M 91.50 178.04
  Q 90.89 199.29 91.50 220.54"
/>
<path stroke="#000000" vector-effect="non-scaling-stroke" d="
  M 189.25 247.46
  Q 188.90 247.61 189.00 247.96"
/>
<path stroke="#7e7e7e" vector-effect="non-scaling-stroke" d="
  M 572.17 157.11
  Q 569.25 158.22 569.25 162.25
  Q 569.25 187.50 569.25 212.75
  Q 569.25 216.87 571.69 218.56"
/>
<path stroke="#808080" vector-effect="non-scaling-stroke" d="
  M 599.71 206.71
  L 598.08 223.32
  A 0.77 0.75 -87.4 0 1 597.34 224.01
  L 555.04 224.25"
/>
<path stroke="#7e7e7e" vector-effect="non-scaling-stroke" d="
  M 555.17 159.78
  Q 555.09 157.51 552.75 157.21"
/>
</g>
<path fill="#54bded" d="
  M 360.50 145.21
  Q 362.03 146.15 360.44 147.19
  Q 356.43 149.80 357.66 154.00
  L 343.75 154.00
  A 1.03 0.85 13.8 0 0 342.94 154.39
  C 341.60 156.38 345.76 156.01 346.75 156.46
  Q 345.75 157.30 345.76 158.45
  A 0.60 0.53 89.0 0 0 346.30 159.04
  L 350.60 158.96
  Q 350.87 185.38 350.76 211.81
  C 350.74 217.47 351.25 222.19 344.25 222.02
  A 1.70 1.22 20.6 0 0 343.33 222.27
  C 340.80 224.09 345.16 223.94 345.75 224.29
  Q 344.80 227.92 348.79 227.45
  Q 334.83 236.25 318.50 237.96
  C 315.21 238.39 318.87 235.97 319.62 235.33
  A 0.91 0.75 66.6 0 0 319.85 234.53
  L 318.84 229.68
  A 0.83 0.53 -87.4 0 0 318.58 229.23
  Q 316.09 227.51 317.19 227.69
  Q 317.04 226.96 316.25 226.96
  Q 323.07 224.36 327.96 219.09
  C 330.14 216.74 330.35 215.19 329.86 212.11
  Q 329.71 211.21 329.03 211.78
  L 327.29 213.25
  L 327.25 209.24
  Q 327.23 207.46 326.24 208.92
  C 319.18 219.34 307.29 224.35 296.31 215.47
  Q 294.18 208.09 293.50 204.75
  C 291.06 192.84 291.12 171.85 301.94 163.94
  Q 311.30 157.09 321.20 164.44
  Q 325.32 169.53 326.72 176.20
  A 1.10 0.72 89.0 0 0 327.23 176.95
  Q 327.84 177.21 328.46 176.75
  C 328.60 177.66 328.91 180.01 329.72 180.50
  C 330.93 181.23 331.00 179.64 331.00 178.89
  Q 330.96 168.09 331.07 156.76
  A 0.54 0.54 -84.1 0 0 330.64 156.23
  Q 328.99 155.88 328.54 157.50
  L 328.19 153.81
  A 0.90 0.60 -88.2 0 0 327.74 153.09
  C 326.71 152.73 326.18 156.76 324.51 157.53
  C 322.23 158.58 318.98 156.69 316.82 155.68
  C 305.47 150.36 293.98 153.61 285.24 161.99
  Q 284.79 160.68 285.20 159.24
  C 285.38 158.59 285.51 157.16 286.27 156.57
  A 0.60 0.54 -32.6 0 0 286.46 155.87
  Q 284.67 152.29 285.12 148.31
  A 1.90 1.12 47.8 0 0 284.93 147.38
  C 284.59 146.66 284.61 146.54 284.89 145.83
  Q 286.05 142.95 285.21 139.92
  Q 285.10 139.52 284.70 139.09
  C 284.24 138.59 283.21 133.51 283.13 132.56
  Q 282.83 129.08 283.28 125.58
  A 0.37 0.27 -4.7 0 1 283.58 125.32
  L 283.85 125.27
  A 0.91 0.47 -85.6 0 0 284.32 124.52
  Q 286.37 110.19 285.19 95.76
  C 284.83 91.40 285.27 87.40 284.59 82.86
  C 284.06 79.34 284.56 75.73 284.17 72.41
  Q 283.43 65.93 284.00 64.00
  Q 284.44 62.50 283.10 62.50
  Q 281.78 62.50 282.51 61.40
  C 284.15 58.91 282.94 57.22 282.93 55.13
  Q 282.80 38.56 282.55 21.26
  Q 282.54 20.51 282.03 21.07
  C 280.36 22.92 281.78 19.26 281.46 18.25
  C 291.19 5.19 306.36 -3.80 322.75 2.50
  C 349.35 12.73 349.42 40.33 336.71 61.45
  C 325.93 79.37 309.79 111.75 319.54 132.33
  C 327.07 148.22 345.30 151.94 360.50 145.21
  Z"
/>
<path fill="#56b6e8" d="
  M 281.46 18.25
  C 281.78 19.26 280.36 22.92 282.03 21.07
  Q 282.54 20.51 282.55 21.26
  Q 282.80 38.56 282.93 55.13
  C 282.94 57.22 284.15 58.91 282.51 61.40
  Q 281.78 62.50 283.10 62.50
  Q 284.44 62.50 284.00 64.00
  Q 283.43 65.93 284.17 72.41
  C 284.56 75.73 284.06 79.34 284.59 82.86
  C 285.27 87.40 284.83 91.40 285.19 95.76
  Q 286.37 110.19 284.32 124.52
  A 0.91 0.47 -85.6 0 1 283.85 125.27
  L 283.58 125.32
  A 0.37 0.27 -4.7 0 0 283.28 125.58
  Q 282.83 129.08 283.13 132.56
  C 283.21 133.51 284.24 138.59 284.70 139.09
  Q 285.10 139.52 285.21 139.92
  Q 286.05 142.95 284.89 145.83
  C 284.61 146.54 284.59 146.66 284.93 147.38
  A 1.90 1.12 47.8 0 1 285.12 148.31
  Q 284.67 152.29 286.46 155.87
  A 0.60 0.54 -32.6 0 1 286.27 156.57
  C 285.51 157.16 285.38 158.59 285.20 159.24
  Q 284.79 160.68 285.24 161.99
  C 271.47 177.64 270.27 202.11 285.17 217.62
  Q 290.64 224.50 300.56 227.44
  Q 309.17 229.99 316.25 226.96
  Q 317.04 226.96 317.19 227.69
  Q 316.09 227.51 318.58 229.23
  A 0.83 0.53 -87.4 0 1 318.84 229.68
  L 319.85 234.53
  A 0.91 0.75 66.6 0 1 319.62 235.33
  C 318.87 235.97 315.21 238.39 318.50 237.96
  C 300.69 241.51 283.16 239.63 268.13 228.79
  Q 270.61 228.98 271.29 227.29
  A 1.12 0.82 44.9 0 0 271.15 226.40
  Q 270.36 225.11 270.40 223.57
  A 1.87 1.35 -66.8 0 0 270.19 222.64
  C 266.74 216.60 266.29 209.29 264.66 202.72
  C 263.51 198.08 263.88 193.18 262.94 188.31
  C 262.45 185.74 262.97 182.62 261.65 179.98
  C 261.08 178.83 261.27 177.66 262.47 177.08
  Q 263.08 165.67 262.75 158.75
  Q 262.64 156.51 260.29 157.25
  Q 260.59 155.45 259.75 153.96
  Q 259.95 152.74 259.12 151.84
  A 0.49 0.48 45.4 0 1 259.12 151.17
  C 261.34 148.88 256.88 146.65 259.60 143.54
  A 1.31 1.14 -28.5 0 0 259.92 142.68
  Q 259.76 137.89 259.89 133.09
  C 260.00 129.38 258.92 125.62 259.00 121.25
  Q 259.37 100.61 258.22 71.37
  C 258.03 66.73 258.51 61.23 258.29 56.17
  C 258.22 54.42 258.83 51.74 256.05 52.21
  A 1.73 1.11 -62.4 0 0 255.22 52.68
  L 253.06 54.84
  A 0.41 0.40 -38.4 0 1 252.42 54.77
  L 251.96 54.00
  L 281.46 18.25
  Z"
/>
<path fill="#58ade1" d="
  M 259.75 153.96
  L 240.34 154.02
  Q 238.50 138.28 238.08 122.46
  C 237.86 113.95 237.40 106.02 238.55 97.51
  C 238.84 95.41 238.00 93.47 238.14 91.49
  C 238.43 87.59 237.77 83.83 238.02 79.93
  Q 238.19 77.10 238.00 74.25
  Q 237.86 72.14 236.81 73.81
  Q 236.09 74.96 235.16 74.75
  Q 234.22 74.53 234.21 74.52
  Q 233.90 74.32 234.21 73.50
  L 251.96 54.00
  L 252.42 54.77
  A 0.41 0.40 -38.4 0 0 253.06 54.84
  L 255.22 52.68
  A 1.73 1.11 -62.4 0 1 256.05 52.21
  C 258.83 51.74 258.22 54.42 258.29 56.17
  C 258.51 61.23 258.03 66.73 258.22 71.37
  Q 259.37 100.61 259.00 121.25
  C 258.92 125.62 260.00 129.38 259.89 133.09
  Q 259.76 137.89 259.92 142.68
  A 1.31 1.14 -28.5 0 1 259.60 143.54
  C 256.88 146.65 261.34 148.88 259.12 151.17
  A 0.49 0.48 45.4 0 0 259.12 151.84
  Q 259.95 152.74 259.75 153.96
  Z"
/>
<path fill="#59a1d9" d="
  M 234.21 73.50
  Q 233.90 74.32 234.21 74.52
  Q 234.22 74.53 235.16 74.75
  Q 236.09 74.96 236.81 73.81
  Q 237.86 72.14 238.00 74.25
  Q 238.19 77.10 238.02 79.93
  C 237.77 83.83 238.43 87.59 238.14 91.49
  C 238.00 93.47 238.84 95.41 238.55 97.51
  C 237.40 106.02 237.86 113.95 238.08 122.46
  Q 238.50 138.28 240.34 154.02
  L 225.25 153.96
  Q 221.66 153.63 224.31 153.46
  A 0.40 0.40 -3.0 0 0 224.68 153.05
  Q 224.56 147.69 224.31 142.34
  C 224.22 140.27 224.55 137.95 223.60 135.67
  C 222.18 132.22 222.46 129.66 222.53 126.03
  Q 222.73 114.33 221.56 93.31
  Q 221.28 88.28 220.93 87.01
  L 234.21 73.50
  Z"
/>
<path fill="#8fcff0" d="
  M 429.50 76.79
  Q 431.55 77.58 429.12 77.99
  A 1.44 1.41 -1.4 0 0 427.94 79.21
  Q 427.38 83.61 427.26 88.23
  C 427.16 92.20 428.02 98.64 427.87 103.88
  C 427.65 111.52 428.70 118.97 428.15 126.68
  C 427.97 129.17 428.66 131.82 428.56 133.94
  Q 428.22 141.39 429.07 150.16
  A 3.14 3.10 63.4 0 1 428.31 152.50
  Q 427.14 153.83 429.75 153.96
  L 417.75 153.96
  Q 417.07 137.12 417.50 117.00
  Q 417.60 112.30 416.82 106.50
  Q 416.76 106.04 416.95 105.53
  C 417.59 103.80 417.73 96.22 417.54 94.17
  Q 416.91 87.12 417.25 80.04
  Q 422.92 76.71 429.50 76.79
  Z"
/>
<path fill="#99d4f1" d="
  M 429.50 76.79
  Q 436.44 76.48 442.04 80.50
  Q 442.18 81.16 441.91 81.58
  A 0.98 0.57 11.7 0 1 441.06 81.86
  Q 439.16 81.69 439.48 84.00
  C 439.86 86.66 438.75 91.38 439.68 93.37
  A 1.11 0.94 -49.0 0 1 439.67 94.23
  C 438.82 96.27 439.62 102.90 439.41 106.07
  Q 439.08 111.29 439.44 115.93
  C 440.19 125.52 439.89 134.98 440.12 144.57
  Q 440.21 148.38 440.19 152.19
  A 0.83 0.78 -14.3 0 1 439.74 152.90
  Q 438.01 153.81 440.50 153.96
  L 429.75 153.96
  Q 427.14 153.83 428.31 152.50
  A 3.14 3.10 63.4 0 0 429.07 150.16
  Q 428.22 141.39 428.56 133.94
  C 428.66 131.82 427.97 129.17 428.15 126.68
  C 428.70 118.97 427.65 111.52 427.87 103.88
  C 428.02 98.64 427.16 92.20 427.26 88.23
  Q 427.38 83.61 427.94 79.21
  A 1.44 1.41 -1.4 0 1 429.12 77.99
  Q 431.55 77.58 429.50 76.79
  Z"
/>
<path fill="#84cbee" d="
  M 417.25 80.04
  Q 416.91 87.12 417.54 94.17
  C 417.73 96.22 417.59 103.80 416.95 105.53
  Q 416.76 106.04 416.82 106.50
  Q 417.60 112.30 417.50 117.00
  Q 417.07 137.12 417.75 153.96
  Q 414.90 154.84 417.91 156.09
  Q 416.65 164.12 417.35 172.24
  Q 417.82 177.73 417.12 183.82
  Q 416.88 185.85 417.50 187.79
  Q 418.09 189.62 417.14 192.61
  Q 416.85 193.52 416.75 195.32
  L 416.13 207.19
  Q 416.10 207.74 416.29 208.14
  Q 417.87 211.60 415.21 214.50
  C 410.11 207.79 407.17 200.56 401.37 195.43
  Q 401.01 180.74 401.42 165.92
  C 401.55 161.29 403.43 158.61 408.25 158.95
  A 1.08 0.81 16.7 0 0 409.10 158.64
  C 410.81 156.50 404.61 157.39 404.07 157.42
  A 0.58 0.43 82.7 0 1 403.61 156.94
  L 403.50 156.29
  L 405.57 155.93
  A 0.85 0.84 3.3 0 0 406.24 155.34
  Q 406.66 153.91 405.00 153.96
  Q 403.16 152.81 404.78 152.16
  A 0.78 0.69 -11.6 0 0 405.27 151.51
  Q 405.43 147.84 405.00 138.25
  Q 404.80 133.78 404.53 110.55
  C 404.50 107.22 404.81 102.02 404.50 97.25
  Q 404.37 95.22 405.42 92.66
  C 405.60 92.21 406.78 91.63 405.25 91.21
  Q 410.21 84.50 417.25 80.04
  Z"
/>
<path fill="#a4d8f2" d="
  M 442.04 80.50
  C 460.30 92.85 454.61 117.65 449.57 134.91
  Q 446.88 144.08 447.50 153.71
  L 440.50 153.96
  Q 438.01 153.81 439.74 152.90
  A 0.83 0.78 -14.3 0 0 440.19 152.19
  Q 440.21 148.38 440.12 144.57
  C 439.89 134.98 440.19 125.52 439.44 115.93
  Q 439.08 111.29 439.41 106.07
  C 439.62 102.90 438.82 96.27 439.67 94.23
  A 1.11 0.94 -49.0 0 0 439.68 93.37
  C 438.75 91.38 439.86 86.66 439.48 84.00
  Q 439.16 81.69 441.06 81.86
  A 0.98 0.57 11.7 0 0 441.91 81.58
  Q 442.18 81.16 442.04 80.50
  Z"
/>
<path fill="#5898d2" d="
  M 220.93 87.01
  Q 221.28 88.28 221.56 93.31
  Q 222.73 114.33 222.53 126.03
  C 222.46 129.66 222.18 132.22 223.60 135.67
  C 224.55 137.95 224.22 140.27 224.31 142.34
  Q 224.56 147.69 224.68 153.05
  A 0.40 0.40 -3.0 0 1 224.31 153.46
  Q 221.66 153.63 225.25 153.96
  L 210.03 153.96
  Q 211.67 146.44 210.66 138.78
  C 210.13 134.77 211.25 130.64 210.93 126.49
  C 210.75 124.20 209.43 122.36 209.76 119.58
  C 210.36 114.57 209.96 109.40 209.94 102.56
  Q 209.93 101.14 208.31 100.96
  A 0.38 0.33 15.2 0 1 207.98 100.47
  Q 208.25 99.95 208.80 99.77
  A 0.59 0.47 -10.6 0 0 209.21 99.29
  Q 209.22 98.29 208.65 99.11
  A 0.85 0.44 -61.4 0 1 208.06 99.51
  L 207.50 99.46
  L 220.93 87.01
  Z"
/>
<path fill="#79c7ee" d="
  M 405.25 91.21
  C 406.78 91.63 405.60 92.21 405.42 92.66
  Q 404.37 95.22 404.50 97.25
  C 404.81 102.02 404.50 107.22 404.53 110.55
  Q 404.80 133.78 405.00 138.25
  Q 405.43 147.84 405.27 151.51
  A 0.78 0.69 -11.6 0 1 404.78 152.16
  Q 403.16 152.81 405.00 153.96
  L 395.50 153.96
  Q 392.10 154.26 393.22 152.41
  A 0.38 0.37 -64.8 0 0 393.03 151.86
  Q 391.85 151.46 392.74 150.92
  A 1.32 0.90 -17.3 0 0 393.31 150.20
  C 393.71 148.28 392.97 146.71 393.13 144.94
  Q 393.75 137.69 392.58 130.49
  Q 392.51 130.03 392.67 129.54
  Q 393.34 127.46 392.75 125.00
  Q 391.46 119.60 392.82 113.80
  A 0.91 0.52 -72.4 0 0 392.63 112.93
  Q 392.30 112.74 391.75 112.96
  Q 397.99 101.76 405.25 91.21
  Z"
/>
<path fill="#578cca" d="
  M 210.03 153.96
  Q 208.65 163.41 209.28 172.94
  A 0.80 0.67 -85.8 0 0 209.78 173.63
  Q 210.82 173.91 211.21 172.50
  Q 210.96 175.04 212.45 177.18
  L 213.25 180.54
  L 199.46 197.00
  Q 198.05 196.61 198.75 195.25
  Q 199.95 192.92 199.50 192.00
  Q 198.06 189.07 198.80 185.97
  C 199.22 184.19 198.26 182.69 198.23 180.90
  Q 198.04 171.61 198.18 162.31
  A 1.75 0.77 46.6 0 0 197.87 161.44
  L 196.50 159.21
  Q 200.90 158.52 197.72 157.41
  Q 197.33 157.27 196.76 157.34
  Q 195.14 157.56 194.00 156.46
  Q 195.58 157.00 196.50 154.71
  Q 197.84 154.54 197.75 152.50
  Q 197.17 139.88 197.01 127.25
  Q 197.00 126.80 196.77 126.31
  C 195.33 123.33 196.44 117.24 195.99 112.56
  A 0.87 0.72 9.9 0 0 195.45 111.93
  Q 194.46 111.57 194.21 110.50
  L 207.50 99.46
  L 208.06 99.51
  A 0.85 0.44 -61.4 0 0 208.65 99.11
  Q 209.22 98.29 209.21 99.29
  A 0.59 0.47 -10.6 0 1 208.80 99.77
  Q 208.25 99.95 207.98 100.47
  A 0.38 0.33 15.2 0 0 208.31 100.96
  Q 209.93 101.14 209.94 102.56
  C 209.96 109.40 210.36 114.57 209.76 119.58
  C 209.43 122.36 210.75 124.20 210.93 126.49
  C 211.25 130.64 210.13 134.77 210.66 138.78
  Q 211.67 146.44 210.03 153.96
  Z"
/>
<path fill="#5582c4" d="
  M 194.21 110.50
  Q 194.46 111.57 195.45 111.93
  A 0.87 0.72 9.9 0 1 195.99 112.56
  C 196.44 117.24 195.33 123.33 196.77 126.31
  Q 197.00 126.80 197.01 127.25
  Q 197.17 139.88 197.75 152.50
  Q 197.84 154.54 196.50 154.71
  Q 190.64 153.48 184.75 153.96
  Q 184.61 149.24 184.95 144.55
  C 185.08 142.77 184.73 141.10 184.77 139.10
  Q 184.78 138.40 184.51 137.76
  Q 183.47 135.29 183.32 133.18
  C 183.07 129.56 185.12 127.31 183.79 122.49
  A 0.65 0.64 -13.7 0 0 183.03 122.03
  Q 180.58 122.55 180.75 121.21
  L 194.21 110.50
  Z"
/>
<path fill="#6ac3ed" d="
  M 395.50 153.96
  L 377.75 154.00
  A 1.28 0.98 16.5 0 0 376.89 154.33
  C 375.11 156.21 379.70 156.20 380.50 156.46
  Q 377.50 160.59 384.37 159.37
  L 384.71 183.96
  A 1.04 1.01 -0.3 0 1 383.66 184.99
  L 367.25 184.96
  Q 367.39 181.62 367.50 165.00
  Q 367.54 159.54 372.78 159.26
  C 373.69 159.22 377.71 158.64 374.21 157.18
  A 1.25 1.01 -40.9 0 0 373.30 157.21
  Q 370.84 158.22 369.25 156.29
  Q 372.51 156.91 372.27 154.56
  A 0.61 0.57 -2.1 0 0 371.68 154.05
  L 357.66 154.00
  Q 356.43 149.80 360.44 147.19
  Q 362.03 146.15 360.50 145.21
  C 374.59 138.27 383.70 125.70 391.75 112.96
  Q 392.30 112.74 392.63 112.93
  A 0.91 0.52 -72.4 0 1 392.82 113.80
  Q 391.46 119.60 392.75 125.00
  Q 393.34 127.46 392.67 129.54
  Q 392.51 130.03 392.58 130.49
  Q 393.75 137.69 393.13 144.94
  C 392.97 146.71 393.71 148.28 393.31 150.20
  A 1.32 0.90 -17.3 0 1 392.74 150.92
  Q 391.85 151.46 393.03 151.86
  A 0.38 0.37 -64.8 0 1 393.22 152.41
  Q 392.10 154.26 395.50 153.96
  Z"
/>
<path fill="#5377bc" d="
  M 180.75 121.21
  Q 180.58 122.55 183.03 122.03
  A 0.65 0.64 -13.7 0 1 183.79 122.49
  C 185.12 127.31 183.07 129.56 183.32 133.18
  Q 183.47 135.29 184.51 137.76
  Q 184.78 138.40 184.77 139.10
  C 184.73 141.10 185.08 142.77 184.95 144.55
  Q 184.61 149.24 184.75 153.96
  L 174.25 153.96
  Q 173.43 153.91 173.14 153.47
  A 1.09 0.54 -56.8 0 1 173.25 152.55
  Q 174.10 150.89 173.82 149.49
  Q 173.51 147.93 173.41 146.35
  Q 172.88 138.38 173.00 132.75
  Q 173.07 129.74 169.50 129.29
  L 180.75 121.21
  Z"
/>
<path fill="#4f6bb5" d="
  M 169.50 129.29
  Q 173.07 129.74 173.00 132.75
  Q 172.88 138.38 173.41 146.35
  Q 173.51 147.93 173.82 149.49
  Q 174.10 150.89 173.25 152.55
  A 1.09 0.54 -56.8 0 0 173.14 153.47
  Q 173.43 153.91 174.25 153.96
  C 173.26 153.98 166.03 153.31 166.61 155.23
  A 1.00 0.82 1.6 0 0 167.29 155.82
  L 169.75 156.46
  Q 168.86 156.60 169.50 157.04
  C 167.35 159.86 172.69 158.90 174.46 160.00
  Q 174.97 187.62 174.79 215.25
  Q 174.75 222.41 167.81 222.10
  A 1.34 0.97 19.1 0 0 166.92 222.37
  C 165.25 223.89 168.79 224.25 169.54 224.50
  Q 167.95 227.78 172.00 227.29
  L 164.51 235.04
  Q 164.10 230.63 163.60 226.17
  C 163.44 224.74 163.65 223.60 163.31 221.69
  Q 161.68 212.28 161.28 197.35
  C 161.24 195.91 160.36 194.58 161.04 192.95
  Q 161.25 192.44 161.21 191.99
  C 160.93 188.22 160.82 184.42 160.39 180.67
  Q 160.13 178.37 161.05 176.20
  A 1.27 1.21 -45.2 0 0 161.07 175.29
  C 159.73 171.87 160.64 168.41 159.64 164.74
  Q 159.51 164.26 159.63 163.78
  Q 160.49 160.31 157.85 159.08
  C 158.91 156.36 155.46 157.51 154.00 156.96
  L 151.50 156.71
  L 154.20 156.28
  A 1.29 1.24 -74.1 0 0 155.02 155.80
  Q 156.54 153.86 153.50 153.95
  Q 144.24 154.22 135.00 153.71
  L 169.50 129.29
  Z"
/>
<path fill="#cceefb" d="
  M 507.19 210.00
  Q 505.87 184.03 506.75 165.00
  Q 507.06 158.18 514.25 158.94
  A 0.84 0.73 16.3 0 0 515.04 158.58
  C 516.27 156.48 512.54 157.74 512.00 155.96
  Q 512.49 153.71 510.00 154.00
  Q 506.19 154.45 490.96 153.75
  C 497.39 143.14 511.67 131.04 524.63 140.10
  C 547.46 156.08 519.63 196.72 507.19 210.00
  Z"
/>
<path fill="#000000" d="
  M 328.54 157.50
  Q 327.89 167.12 328.46 176.75
  Q 327.84 177.21 327.23 176.95
  A 1.10 0.72 89.0 0 1 326.72 176.20
  Q 325.32 169.53 321.20 164.44
  C 314.10 155.46 301.69 155.97 295.32 165.32
  Q 291.54 170.85 290.26 177.45
  Q 286.36 197.69 296.31 215.47
  C 307.29 224.35 319.18 219.34 326.24 208.92
  Q 327.23 207.46 327.25 209.24
  L 327.29 213.25
  C 317.29 227.81 298.23 228.29 285.17 217.62
  C 270.27 202.11 271.47 177.64 285.24 161.99
  C 293.98 153.61 305.47 150.36 316.82 155.68
  C 318.98 156.69 322.23 158.58 324.51 157.53
  C 326.18 156.76 326.71 152.73 327.74 153.09
  A 0.90 0.60 -88.2 0 1 328.19 153.81
  L 328.54 157.50
  Z"
/>
<path fill="#000000" d="
  M 135.00 153.71
  Q 144.24 154.22 153.50 153.95
  Q 156.54 153.86 155.02 155.80
  A 1.29 1.24 -74.1 0 1 154.20 156.28
  L 151.50 156.71
  Q 150.62 156.63 150.00 157.21
  C 147.39 157.15 147.50 163.74 147.50 165.23
  Q 147.50 190.24 147.50 215.25
  Q 147.50 219.12 150.04 221.06
  Q 151.78 222.13 154.43 222.08
  A 0.83 0.70 -10.6 0 1 155.17 222.50
  Q 155.59 223.51 155.25 224.71
  Q 141.73 223.10 128.30 224.72
  Q 124.96 223.74 126.61 222.30
  A 1.42 1.02 18.0 0 1 127.49 222.02
  Q 130.30 222.09 132.54 220.49
  A 1.49 1.41 81.1 0 0 133.08 219.71
  Q 134.00 216.37 134.00 210.50
  Q 133.99 183.54 133.41 172.43
  Q 134.67 167.28 133.61 162.00
  Q 133.50 161.49 133.34 161.98
  Q 123.22 192.41 112.47 222.62
  C 112.20 223.38 112.38 223.74 112.46 224.50
  Q 111.47 224.35 110.96 223.50
  C 109.41 219.08 94.97 177.16 94.00 176.96
  C 94.45 175.79 91.91 169.79 91.39 168.70
  L 89.48 162.61
  Q 88.77 160.33 88.75 162.73
  Q 88.56 189.63 89.00 216.50
  Q 89.03 218.59 91.50 220.54
  C 93.02 221.56 98.79 222.01 97.00 224.54
  Q 88.99 223.26 81.00 224.71
  L 78.29 223.84
  A 0.86 0.72 7.7 0 1 77.70 223.19
  Q 77.59 222.10 79.00 222.00
  C 84.14 221.63 85.46 217.82 85.59 213.04
  Q 86.06 196.50 85.50 179.96
  L 85.46 159.76
  Q 85.02 157.47 82.87 157.11
  Q 81.20 155.37 78.74 155.88
  A 0.94 0.74 -22.3 0 1 77.90 155.64
  C 76.85 154.38 78.44 154.00 79.38 154.00
  Q 89.06 154.00 98.75 154.00
  Q 101.53 154.00 101.49 157.06
  L 116.43 200.05
  Q 116.84 201.23 117.31 200.07
  Q 117.88 198.65 117.84 197.46
  Q 125.62 176.36 132.25 155.21
  Q 133.20 153.83 135.00 153.71
  Z"
/>
<path fill="#000000" d="
  M 447.50 153.71
  L 463.44 154.07
  A 0.80 0.69 -8.5 0 1 464.15 154.52
  Q 464.65 155.78 464.29 157.25
  L 464.21 174.75
  Q 463.50 175.25 463.05 174.89
  A 1.22 0.52 -84.3 0 1 462.77 174.00
  Q 462.73 172.56 461.71 171.50
  Q 461.71 166.88 458.44 163.63
  C 453.60 157.93 446.29 158.65 438.94 159.15
  A 0.56 0.54 -1.8 0 0 438.42 159.68
  L 438.30 185.18
  A 0.77 0.69 -81.6 0 0 438.77 185.89
  Q 439.90 186.28 441.49 185.77
  C 448.80 184.68 449.99 176.45 450.70 170.67
  A 0.92 0.59 87.9 0 1 451.09 170.01
  Q 451.34 169.91 451.56 170.00
  A 1.00 0.53 -87.7 0 1 451.95 170.81
  L 452.29 177.75
  Q 451.64 191.63 452.29 205.50
  Q 451.52 206.42 450.84 205.87
  A 1.26 0.78 -80.2 0 1 450.49 205.00
  Q 450.26 198.87 447.00 193.71
  Q 444.74 190.05 439.41 189.99
  A 1.14 1.14 0.1 0 0 438.26 191.12
  Q 438.11 204.00 438.50 216.00
  Q 438.60 219.10 441.75 219.71
  Q 448.76 220.83 455.59 218.52
  C 462.00 215.47 465.78 208.90 466.69 202.06
  Q 468.73 201.78 468.25 203.50
  Q 467.51 206.17 467.29 211.75
  L 466.00 223.26
  A 0.77 0.75 -86.9 0 1 465.26 223.94
  L 424.51 224.15
  C 422.62 223.61 417.37 224.52 416.68 223.21
  A 0.60 0.58 -30.7 0 1 416.89 222.45
  C 418.31 221.47 421.02 222.75 421.50 221.29
  Q 424.66 220.39 424.69 217.19
  Q 424.82 203.04 424.76 161.50
  Q 424.76 159.81 423.79 158.50
  Q 422.66 156.66 420.50 156.29
  Q 418.73 155.82 417.91 156.09
  Q 414.90 154.84 417.75 153.96
  L 429.75 153.96
  L 440.50 153.96
  L 447.50 153.71
  Z"
/>
<path fill="#000000" d="
  M 490.96 153.75
  Q 506.19 154.45 510.00 154.00
  Q 512.49 153.71 512.00 155.96
  C 502.72 154.87 503.26 160.76 503.23 167.97
  Q 503.10 191.16 503.48 214.35
  C 503.51 216.54 504.17 218.73 506.75 218.38
  Q 516.33 221.28 523.30 216.44
  C 528.61 212.75 530.88 205.73 532.18 199.45
  C 532.36 198.60 532.88 197.55 533.86 198.18
  A 0.96 0.72 -75.5 0 1 534.19 198.99
  L 533.56 208.50
  L 532.20 223.32
  A 0.75 0.73 -87.4 0 1 531.47 224.00
  L 485.25 224.04
  L 482.74 223.99
  A 1.24 1.02 -16.8 0 1 481.90 223.64
  Q 480.42 221.97 483.00 222.00
  C 488.02 222.05 489.45 220.07 489.55 215.16
  Q 490.27 179.86 489.50 160.00
  Q 489.41 157.62 486.57 157.09
  Q 485.13 155.43 482.73 155.89
  A 1.11 0.89 -25.8 0 1 481.86 155.69
  C 479.12 153.33 490.19 153.83 490.96 153.75
  Z"
/>
<path fill="#000000" d="
  M 174.25 153.96
  L 184.75 153.96
  Q 190.64 153.48 196.50 154.71
  Q 195.58 157.00 194.00 156.46
  C 189.71 156.24 188.52 158.85 188.46 162.77
  C 188.20 179.76 189.12 197.30 188.07 214.18
  Q 187.81 218.29 190.85 220.90
  Q 192.41 221.98 195.50 222.00
  Q 197.40 222.01 196.33 223.37
  A 1.05 0.84 17.2 0 1 195.51 223.69
  Q 194.40 223.61 194.00 224.27
  Q 181.78 223.54 169.54 224.50
  C 168.79 224.25 165.25 223.89 166.92 222.37
  A 1.34 0.97 19.1 0 1 167.81 222.10
  Q 174.75 222.41 174.79 215.25
  Q 174.97 187.62 174.46 160.00
  Q 174.10 157.57 171.75 156.96
  Q 170.84 156.40 169.75 156.46
  L 167.29 155.82
  A 1.00 0.82 1.6 0 1 166.61 155.23
  C 166.03 153.31 173.26 153.98 174.25 153.96
  Z"
/>
<path fill="#000000" d="
  M 210.03 153.96
  L 225.25 153.96
  L 240.34 154.02
  L 259.75 153.96
  Q 260.59 155.45 260.29 157.25
  L 260.29 174.00
  Q 258.75 174.53 258.50 173.00
  Q 257.50 166.76 254.32 162.36
  C 250.89 158.48 246.86 158.76 242.10 159.03
  A 0.92 0.92 -2.3 0 0 241.23 159.97
  C 241.53 179.34 240.81 198.02 241.56 217.00
  Q 241.69 220.06 244.16 220.86
  Q 245.71 222.39 248.02 222.08
  A 1.21 0.99 -24.7 0 1 248.90 222.31
  Q 250.67 223.81 247.22 224.22
  Q 237.44 223.66 227.54 224.25
  C 225.61 223.60 218.94 224.82 219.85 222.52
  A 0.73 0.66 12.2 0 1 220.56 222.11
  Q 227.76 222.58 227.77 215.25
  Q 227.79 192.64 227.75 169.90
  Q 228.36 166.08 227.71 162.00
  Q 228.09 160.83 227.91 159.68
  A 0.65 0.63 -1.6 0 0 227.32 159.14
  C 217.35 158.43 211.43 162.06 211.21 172.50
  Q 210.82 173.91 209.78 173.63
  A 0.80 0.67 -85.8 0 1 209.28 172.94
  Q 208.65 163.41 210.03 153.96
  Z"
/>
<path fill="#000000" d="
  M 357.66 154.00
  L 371.68 154.05
  A 0.61 0.57 -2.1 0 1 372.27 154.56
  Q 372.51 156.91 369.25 156.29
  Q 364.88 156.85 364.50 161.00
  Q 363.93 167.34 364.30 184.19
  A 0.71 0.67 -82.8 0 0 364.78 184.85
  Q 365.98 185.21 367.25 184.96
  L 383.66 184.99
  A 1.04 1.01 -0.3 0 0 384.71 183.96
  L 384.37 159.37
  Q 383.15 156.99 380.50 156.46
  C 379.70 156.20 375.11 156.21 376.89 154.33
  A 1.28 0.98 16.5 0 1 377.75 154.00
  L 395.50 153.96
  L 405.00 153.96
  Q 406.66 153.91 406.24 155.34
  A 0.85 0.84 3.3 0 1 405.57 155.93
  L 403.50 156.29
  Q 398.31 156.64 398.30 162.00
  Q 398.25 186.63 398.11 211.25
  Q 398.08 216.36 398.56 218.44
  Q 399.11 220.79 401.37 221.10
  C 402.77 222.50 409.53 221.32 404.96 224.50
  Q 394.76 223.53 384.56 224.16
  L 377.32 223.89
  A 0.89 0.60 -6.2 0 1 376.59 223.50
  Q 375.92 221.95 378.00 221.97
  Q 384.95 222.02 384.50 215.00
  Q 384.21 210.42 384.68 195.34
  A 0.61 0.39 -79.0 0 0 384.49 194.86
  L 384.25 194.71
  Q 384.67 194.17 384.71 193.50
  Q 384.97 191.97 384.58 190.53
  A 0.67 0.64 -7.4 0 0 383.94 190.06
  L 365.04 190.01
  A 0.77 0.76 -89.3 0 0 364.27 190.77
  Q 364.09 204.63 364.50 217.25
  Q 364.58 219.76 367.67 221.52
  Q 375.28 222.01 370.78 224.24
  Q 358.24 223.68 345.75 224.29
  C 345.16 223.94 340.80 224.09 343.33 222.27
  A 1.70 1.22 20.6 0 1 344.25 222.02
  C 351.25 222.19 350.74 217.47 350.76 211.81
  Q 350.87 185.38 350.60 158.96
  Q 348.92 156.84 346.75 156.46
  C 345.76 156.01 341.60 156.38 342.94 154.39
  A 1.03 0.85 13.8 0 1 343.75 154.00
  L 357.66 154.00
  Z"
/>
<path fill="#000000" d="
  M 572.17 157.11
  Q 569.25 158.22 569.25 162.25
  Q 569.25 187.50 569.25 212.75
  Q 569.25 216.87 571.69 218.56
  C 590.31 220.92 594.02 215.40 598.44 198.69
  Q 598.79 197.36 600.00 198.31
  L 599.71 206.71
  L 598.08 223.32
  A 0.77 0.75 -87.4 0 1 597.34 224.01
  L 555.04 224.25
  C 554.10 223.94 545.30 224.33 547.84 222.29
  A 1.41 1.07 22.9 0 1 548.75 222.06
  C 554.07 222.53 555.50 219.28 555.50 214.49
  C 555.50 208.82 556.31 161.02 555.17 159.78
  Q 555.09 157.51 552.75 157.21
  Q 552.60 155.57 549.78 156.23
  A 2.27 2.27 64.4 0 1 547.49 155.42
  C 546.75 154.48 548.29 154.00 549.08 154.00
  Q 563.01 153.96 576.93 154.06
  A 1.51 1.00 -15.8 0 1 577.84 154.35
  Q 578.58 154.98 577.89 155.68
  A 1.35 1.00 16.6 0 1 577.01 156.00
  C 576.03 156.01 571.96 155.37 572.17 157.11
  Z"
/>
<path fill="#424da2" d="
  M 132.25 155.21
  Q 125.62 176.36 117.84 197.46
  Q 112.32 183.95 108.00 170.04
  Q 120.58 163.37 132.25 155.21
  Z"
/>
<path fill="#8fcff0" d="
  M 417.91 156.09
  Q 418.73 155.82 420.50 156.29
  Q 418.62 161.18 423.79 158.50
  Q 424.76 159.81 424.76 161.50
  Q 424.82 203.04 424.69 217.19
  Q 424.66 220.39 421.50 221.29
  Q 417.83 218.39 415.21 214.50
  Q 417.87 211.60 416.29 208.14
  Q 416.10 207.74 416.13 207.19
  L 416.75 195.32
  Q 416.85 193.52 417.14 192.61
  Q 418.09 189.62 417.50 187.79
  Q 416.88 185.85 417.12 183.82
  Q 417.82 177.73 417.35 172.24
  Q 416.65 164.12 417.91 156.09
  Z"
/>
<path fill="#ffffff" d="
  M 512.00 155.96
  C 512.54 157.74 516.27 156.48 515.04 158.58
  A 0.84 0.73 16.3 0 1 514.25 158.94
  Q 507.06 158.18 506.75 165.00
  Q 505.87 184.03 507.19 210.00
  Q 506.02 214.08 506.75 218.38
  C 504.17 218.73 503.51 216.54 503.48 214.35
  Q 503.10 191.16 503.23 167.97
  C 503.26 160.76 502.72 154.87 512.00 155.96
  Z"
/>
<path fill="#ffffff" d="
  M 328.46 176.75
  Q 327.89 167.12 328.54 157.50
  Q 328.99 155.88 330.64 156.23
  A 0.54 0.54 -84.1 0 1 331.07 156.76
  Q 330.96 168.09 331.00 178.89
  C 331.00 179.64 330.93 181.23 329.72 180.50
  C 328.91 180.01 328.60 177.66 328.46 176.75
  Z"
/>
<path fill="#ffffff" d="
  M 369.25 156.29
  Q 370.84 158.22 373.30 157.21
  A 1.25 1.01 -40.9 0 1 374.21 157.18
  C 377.71 158.64 373.69 159.22 372.78 159.26
  Q 367.54 159.54 367.50 165.00
  Q 367.39 181.62 367.25 184.96
  Q 365.98 185.21 364.78 184.85
  A 0.71 0.67 -82.8 0 1 364.30 184.19
  Q 363.93 167.34 364.50 161.00
  Q 364.88 156.85 369.25 156.29
  Z"
/>
<path fill="#ffffff" d="
  M 403.50 156.29
  L 403.61 156.94
  A 0.58 0.43 82.7 0 0 404.07 157.42
  C 404.61 157.39 410.81 156.50 409.10 158.64
  A 1.08 0.81 16.7 0 1 408.25 158.95
  C 403.43 158.61 401.55 161.29 401.42 165.92
  Q 401.01 180.74 401.37 195.43
  L 401.37 221.10
  Q 399.11 220.79 398.56 218.44
  Q 398.08 216.36 398.11 211.25
  Q 398.25 186.63 398.30 162.00
  Q 398.31 156.64 403.50 156.29
  Z"
/>
<path fill="#ffffff" d="
  M 420.50 156.29
  Q 422.66 156.66 423.79 158.50
  Q 418.62 161.18 420.50 156.29
  Z"
/>
<path fill="#a4d8f2" d="
  M 169.75 156.46
  Q 170.84 156.40 171.75 156.96
  L 169.50 157.04
  Q 168.86 156.60 169.75 156.46
  Z"
/>
<path fill="#ffffff" d="
  M 194.00 156.46
  Q 195.14 157.56 196.76 157.34
  Q 197.33 157.27 197.72 157.41
  Q 200.90 158.52 196.50 159.21
  C 192.18 159.22 191.04 161.83 190.93 165.82
  Q 190.38 186.29 191.04 206.75
  L 190.85 220.90
  Q 187.81 218.29 188.07 214.18
  C 189.12 197.30 188.20 179.76 188.46 162.77
  C 188.52 158.85 189.71 156.24 194.00 156.46
  Z"
/>
<path fill="#ffffff" d="
  M 346.75 156.46
  Q 348.92 156.84 350.60 158.96
  L 346.30 159.04
  A 0.60 0.53 89.0 0 1 345.76 158.45
  Q 345.75 157.30 346.75 156.46
  Z"
/>
<path fill="#ffffff" d="
  M 380.50 156.46
  Q 383.15 156.99 384.37 159.37
  Q 377.50 160.59 380.50 156.46
  Z"
/>
<path fill="#a4d8f2" d="
  M 151.50 156.71
  L 154.00 156.96
  L 150.00 157.21
  Q 150.62 156.63 151.50 156.71
  Z"
/>
<path fill="#ffffff" d="
  M 101.49 157.06
  L 103.28 157.53
  A 1.17 0.45 75.6 0 1 103.83 158.30
  L 108.00 170.04
  Q 112.32 183.95 117.84 197.46
  Q 117.88 198.65 117.31 200.07
  Q 116.84 201.23 116.43 200.05
  L 101.49 157.06
  Z"
/>
<path fill="#ffffff" d="
  M 154.00 156.96
  C 155.46 157.51 158.91 156.36 157.85 159.08
  C 152.43 158.36 150.28 160.86 150.21 166.14
  Q 149.80 193.58 150.04 221.06
  Q 147.50 219.12 147.50 215.25
  Q 147.50 190.24 147.50 165.23
  C 147.50 163.74 147.39 157.15 150.00 157.21
  L 154.00 156.96
  Z"
/>
<path fill="#ffffff" d="
  M 169.50 157.04
  L 171.75 156.96
  Q 174.10 157.57 174.46 160.00
  C 172.69 158.90 167.35 159.86 169.50 157.04
  Z"
/>
<path fill="#ffffff" d="
  M 262.47 177.08
  Q 260.32 176.22 260.29 174.00
  L 260.29 157.25
  Q 262.64 156.51 262.75 158.75
  Q 263.08 165.67 262.47 177.08
  Z"
/>
<path fill="#fcfcfc" fill-opacity="0.996" d="
  M 82.87 157.11
  Q 85.02 157.47 85.46 159.76
  L 80.75 158.98
  A 1.22 0.52 1.8 0 1 79.95 158.61
  Q 78.78 156.81 82.87 157.11
  Z"
/>
<path fill="#ffffff" d="
  M 464.29 157.25
  Q 465.67 157.05 466.96 157.41
  A 0.70 0.64 -83.4 0 1 467.43 158.06
  L 467.79 172.25
  C 467.28 174.19 468.09 177.38 466.75 178.46
  C 464.85 177.58 466.57 175.42 464.21 174.75
  L 464.29 157.25
  Z"
/>
<path fill="#bde5f7" d="
  M 486.57 157.09
  Q 489.41 157.62 489.50 160.00
  Q 490.27 179.86 489.55 215.16
  C 489.45 220.07 488.02 222.05 483.00 222.00
  Q 480.42 221.97 481.90 223.64
  A 1.24 1.02 -16.8 0 0 482.74 223.99
  L 485.25 224.04
  Q 483.68 227.66 487.48 227.55
  Q 478.67 233.53 468.54 234.50
  Q 464.14 234.13 463.78 229.99
  Q 463.75 229.63 463.95 229.05
  Q 464.41 227.74 463.00 227.04
  L 468.11 227.01
  A 1.09 1.06 3.0 0 0 469.18 226.07
  L 471.61 205.40
  Q 471.77 204.06 470.59 204.73
  C 469.56 205.33 468.55 210.13 467.29 211.75
  Q 467.51 206.17 468.25 203.50
  Q 468.73 201.78 466.69 202.06
  Q 466.64 200.68 468.19 198.44
  Q 469.70 196.24 467.49 194.71
  A 1.01 0.90 19.7 0 1 467.07 193.94
  L 467.06 190.81
  Q 467.06 190.36 467.31 189.87
  Q 468.43 187.67 466.67 186.29
  A 1.10 1.08 -73.4 0 1 466.25 185.49
  L 466.07 182.75
  A 1.17 1.16 63.2 0 1 466.35 181.89
  Q 467.58 180.43 466.75 178.46
  C 468.09 177.38 467.28 174.19 467.79 172.25
  Q 478.19 170.00 484.65 161.61
  C 485.29 160.78 487.28 159.74 485.55 159.09
  A 1.33 0.81 8.2 0 1 484.83 158.50
  Q 484.21 157.06 486.57 157.09
  Z"
/>
<path fill="#fcfcfc" fill-opacity="0.996" d="
  M 552.75 157.21
  Q 555.09 157.51 555.17 159.78
  Q 553.02 158.90 551.06 159.12
  A 0.94 0.79 -18.2 0 1 550.26 158.80
  Q 548.69 156.61 552.75 157.21
  Z"
/>
<path fill="#fcfcfc" fill-opacity="0.996" d="
  M 572.17 157.11
  L 579.43 157.31
  A 1.04 0.75 -9.1 0 1 580.24 157.72
  Q 580.71 158.54 579.70 159.06
  A 1.69 0.98 24.2 0 1 578.76 159.16
  C 573.16 158.31 571.76 161.97 571.72 166.85
  C 571.59 183.95 571.06 200.45 571.69 218.56
  Q 569.25 216.87 569.25 212.75
  Q 569.25 187.50 569.25 162.25
  Q 569.25 158.22 572.17 157.11
  Z"
/>
<path fill="#ffffff" d="
  M 321.20 164.44
  Q 311.30 157.09 301.94 163.94
  C 291.12 171.85 291.06 192.84 293.50 204.75
  Q 294.18 208.09 296.31 215.47
  Q 286.36 197.69 290.26 177.45
  Q 291.54 170.85 295.32 165.32
  C 301.69 155.97 314.10 155.46 321.20 164.44
  Z"
/>
<path fill="#4c62af" d="
  M 157.85 159.08
  Q 160.49 160.31 159.63 163.78
  Q 159.51 164.26 159.64 164.74
  C 160.64 168.41 159.73 171.87 161.07 175.29
  A 1.27 1.21 -45.2 0 1 161.05 176.20
  Q 160.13 178.37 160.39 180.67
  C 160.82 184.42 160.93 188.22 161.21 191.99
  Q 161.25 192.44 161.04 192.95
  C 160.36 194.58 161.24 195.91 161.28 197.35
  Q 161.68 212.28 163.31 221.69
  C 163.65 223.60 163.44 224.74 163.60 226.17
  Q 164.10 230.63 164.51 235.04
  Q 157.46 243.06 149.04 250.25
  Q 148.84 249.78 149.08 249.40
  Q 149.18 249.25 149.01 249.33
  Q 148.38 249.60 148.25 248.75
  Q 146.63 246.74 147.14 244.23
  Q 147.24 243.73 147.09 243.27
  Q 145.21 237.64 146.17 231.74
  A 1.57 0.46 62.2 0 0 145.98 230.82
  L 144.74 227.70
  A 0.29 0.24 70.1 0 0 144.43 227.52
  Q 143.44 227.81 143.25 227.04
  Q 152.95 226.67 155.75 227.00
  Q 158.24 227.30 157.86 225.78
  A 0.97 0.77 2.8 0 0 157.19 225.19
  L 155.25 224.71
  Q 155.59 223.51 155.17 222.50
  A 0.83 0.70 -10.6 0 0 154.43 222.08
  Q 151.78 222.13 150.04 221.06
  Q 149.80 193.58 150.21 166.14
  C 150.28 160.86 152.43 158.36 157.85 159.08
  Z"
/>
<path fill="#ffffff" d="
  M 227.71 162.00
  C 216.14 160.80 216.15 169.09 212.45 177.18
  Q 210.96 175.04 211.21 172.50
  C 211.43 162.06 217.35 158.43 227.32 159.14
  A 0.65 0.63 -1.6 0 1 227.91 159.68
  Q 228.09 160.83 227.71 162.00
  Z"
/>
<path fill="#ffffff" d="
  M 254.32 162.36
  L 244.56 162.05
  A 0.51 0.49 -88.9 0 0 244.05 162.56
  L 244.15 184.73
  L 244.16 220.86
  Q 241.69 220.06 241.56 217.00
  C 240.81 198.02 241.53 179.34 241.23 159.97
  A 0.92 0.92 -2.3 0 1 242.10 159.03
  C 246.86 158.76 250.89 158.48 254.32 162.36
  Z"
/>
<path fill="#ffffff" d="
  M 458.44 163.63
  Q 454.45 161.91 450.46 162.25
  Q 446.33 161.68 442.19 162.13
  A 0.57 0.56 -2.8 0 0 441.68 162.69
  L 441.49 185.77
  Q 439.90 186.28 438.77 185.89
  A 0.77 0.69 -81.6 0 1 438.30 185.18
  L 438.42 159.68
  A 0.56 0.54 -1.8 0 1 438.94 159.15
  C 446.29 158.65 453.60 157.93 458.44 163.63
  Z"
/>
<path fill="#5582c4" d="
  M 196.50 159.21
  L 197.87 161.44
  A 1.75 0.77 46.6 0 1 198.18 162.31
  Q 198.04 171.61 198.23 180.90
  C 198.26 182.69 199.22 184.19 198.80 185.97
  Q 198.06 189.07 199.50 192.00
  Q 199.95 192.92 198.75 195.25
  Q 198.05 196.61 199.46 197.00
  L 191.04 206.75
  Q 190.38 186.29 190.93 165.82
  C 191.04 161.83 192.18 159.22 196.50 159.21
  Z"
/>
<path fill="#ffffff" d="
  M 133.41 172.43
  Q 119.80 209.96 115.44 224.44
  Q 113.98 229.28 112.46 224.50
  C 112.38 223.74 112.20 223.38 112.47 222.62
  Q 123.22 192.41 133.34 161.98
  Q 133.50 161.49 133.61 162.00
  Q 134.67 167.28 133.41 172.43
  Z"
/>
<path fill="#ffffff" d="
  M 91.39 168.70
  L 91.50 178.04
  Q 90.89 199.29 91.50 220.54
  Q 89.03 218.59 89.00 216.50
  Q 88.56 189.63 88.75 162.73
  Q 88.77 160.33 89.48 162.61
  L 91.39 168.70
  Z"
/>
<path fill="#5898d2" d="
  M 227.71 162.00
  Q 228.36 166.08 227.75 169.90
  Q 218.81 173.32 213.25 180.54
  L 212.45 177.18
  C 216.15 169.09 216.14 160.80 227.71 162.00
  Z"
/>
<path fill="#58ade1" d="
  M 254.32 162.36
  Q 257.50 166.76 258.50 173.00
  Q 258.75 174.53 260.29 174.00
  Q 260.32 176.22 262.47 177.08
  C 261.27 177.66 261.08 178.83 261.65 179.98
  C 262.97 182.62 262.45 185.74 262.94 188.31
  C 263.88 193.18 263.51 198.08 264.66 202.72
  C 266.29 209.29 266.74 216.60 270.19 222.64
  A 1.87 1.35 -66.8 0 1 270.40 223.57
  Q 270.36 225.11 271.15 226.40
  A 1.12 0.82 44.9 0 1 271.29 227.29
  Q 270.61 228.98 268.13 228.79
  C 252.61 217.72 247.33 202.79 244.15 184.73
  L 244.05 162.56
  A 0.51 0.49 -88.9 0 1 244.56 162.05
  L 254.32 162.36
  Z"
/>
<path fill="#aeddf4" d="
  M 450.46 162.25
  Q 454.09 169.28 461.71 171.50
  Q 462.73 172.56 462.77 174.00
  A 1.22 0.52 -84.3 0 0 463.05 174.89
  Q 463.50 175.25 464.21 174.75
  C 466.57 175.42 464.85 177.58 466.75 178.46
  Q 467.58 180.43 466.35 181.89
  A 1.17 1.16 63.2 0 0 466.07 182.75
  L 466.25 185.49
  A 1.10 1.08 -73.4 0 0 466.67 186.29
  Q 468.43 187.67 467.31 189.87
  Q 467.06 190.36 467.06 190.81
  L 467.07 193.94
  A 1.01 0.90 19.7 0 0 467.49 194.71
  Q 469.70 196.24 468.19 198.44
  Q 466.64 200.68 466.69 202.06
  C 465.78 208.90 462.00 215.47 455.59 218.52
  Q 454.48 216.06 455.71 214.16
  A 1.63 1.01 -41.9 0 0 455.97 213.26
  Q 455.76 211.03 454.12 209.71
  Q 455.25 209.49 455.25 209.00
  Q 455.31 193.13 455.24 174.51
  A 0.97 0.97 0.6 0 0 454.29 173.54
  C 452.87 173.49 454.48 177.01 452.29 177.75
  L 451.95 170.81
  A 1.00 0.53 -87.7 0 0 451.56 170.00
  Q 451.34 169.91 451.09 170.01
  A 0.92 0.59 87.9 0 0 450.70 170.67
  C 449.99 176.45 448.80 184.68 441.49 185.77
  L 441.68 162.69
  A 0.57 0.56 -2.8 0 1 442.19 162.13
  Q 446.33 161.68 450.46 162.25
  Z"
/>
<path fill="#424da2" d="
  M 133.41 172.43
  Q 133.99 183.54 134.00 210.50
  Q 134.00 216.37 133.08 219.71
  A 1.49 1.41 81.1 0 1 132.54 220.49
  Q 130.30 222.09 127.49 222.02
  A 1.42 1.02 18.0 0 0 126.61 222.30
  Q 124.96 223.74 128.30 224.72
  Q 127.83 227.47 130.21 226.96
  Q 129.09 231.72 129.16 236.62
  Q 129.19 238.53 130.20 240.65
  C 131.78 243.97 131.27 246.60 132.81 249.69
  C 134.43 252.94 132.27 254.80 132.10 257.26
  Q 131.95 259.61 134.50 260.04
  L 116.50 269.04
  C 113.84 267.55 110.24 273.34 110.25 267.24
  A 2.00 2.00 -11.2 0 1 111.49 265.39
  C 115.47 263.74 112.14 260.94 111.14 259.02
  A 1.68 1.26 -60.3 0 1 111.02 258.07
  Q 111.98 252.06 110.20 245.80
  Q 110.06 245.30 110.18 244.80
  Q 110.86 241.92 109.78 239.51
  A 1.21 1.21 43.3 0 1 109.75 238.60
  Q 111.22 234.67 109.03 231.17
  A 1.33 1.32 -56.4 0 1 108.85 230.26
  C 109.29 227.57 107.08 224.70 110.96 223.50
  Q 111.47 224.35 112.46 224.50
  Q 113.98 229.28 115.44 224.44
  Q 119.80 209.96 133.41 172.43
  Z"
/>
<path fill="#ffffff" d="
  M 454.12 209.71
  C 452.84 208.19 454.43 205.98 452.29 205.50
  Q 451.64 191.63 452.29 177.75
  C 454.48 177.01 452.87 173.49 454.29 173.54
  A 0.97 0.97 0.6 0 1 455.24 174.51
  Q 455.31 193.13 455.25 209.00
  Q 455.25 209.49 454.12 209.71
  Z"
/>
<path fill="#3c409a" d="
  M 85.50 179.96
  Q 86.06 196.50 85.59 213.04
  C 85.46 217.82 84.14 221.63 79.00 222.00
  Q 77.59 222.10 77.70 223.19
  A 0.86 0.72 7.7 0 0 78.29 223.84
  L 81.00 224.71
  C 78.33 226.37 80.02 227.00 81.76 227.00
  Q 90.00 227.00 98.25 227.00
  Q 100.00 227.00 99.63 225.78
  A 1.02 0.97 1.0 0 0 98.97 225.13
  L 97.00 224.54
  C 98.79 222.01 93.02 221.56 91.50 220.54
  Q 90.89 199.29 91.50 178.04
  L 94.00 176.96
  C 94.97 177.16 109.41 219.08 110.96 223.50
  C 107.08 224.70 109.29 227.57 108.85 230.26
  A 1.33 1.32 -56.4 0 0 109.03 231.17
  Q 111.22 234.67 109.75 238.60
  A 1.21 1.21 43.3 0 0 109.78 239.51
  Q 110.86 241.92 110.18 244.80
  Q 110.06 245.30 110.20 245.80
  Q 111.98 252.06 111.02 258.07
  A 1.68 1.26 -60.3 0 0 111.14 259.02
  C 112.14 260.94 115.47 263.74 111.49 265.39
  A 2.00 2.00 -11.2 0 0 110.25 267.24
  C 110.24 273.34 113.84 267.55 116.50 269.04
  C 89.61 282.53 65.92 285.47 37.44 274.31
  Q 18.31 266.82 8.94 246.81
  C -0.78 226.07 -5.79 197.82 14.45 182.22
  C 21.93 176.46 30.82 174.06 40.00 176.00
  C 47.42 177.57 56.39 180.94 63.46 181.78
  Q 74.55 183.11 85.50 179.96
  Z"
/>
<path fill="#ffffff" d="
  M 384.71 193.50
  Q 376.36 192.93 368.00 193.47
  A 0.55 0.52 -2.3 0 0 367.48 194.00
  L 367.91 210.56
  Q 367.10 215.51 367.67 221.52
  Q 364.58 219.76 364.50 217.25
  Q 364.09 204.63 364.27 190.77
  A 0.77 0.76 -89.3 0 1 365.04 190.01
  L 383.94 190.06
  A 0.67 0.64 -7.4 0 1 384.58 190.53
  Q 384.97 191.97 384.71 193.50
  Z"
/>
<path fill="#ffffff" d="
  M 447.00 193.71
  L 442.06 193.35
  A 0.47 0.47 2.2 0 0 441.55 193.82
  L 441.75 219.71
  Q 438.60 219.10 438.50 216.00
  Q 438.11 204.00 438.26 191.12
  A 1.14 1.14 0.6 0 1 439.41 189.99
  Q 444.74 190.05 447.00 193.71
  Z"
/>
<path fill="#6ac3ed" d="
  M 384.71 193.50
  Q 384.67 194.17 384.25 194.71
  C 378.17 197.86 372.59 205.41 367.91 210.56
  L 367.48 194.00
  A 0.55 0.52 -2.3 0 1 368.00 193.47
  Q 376.36 192.93 384.71 193.50
  Z"
/>
<path fill="#a4d8f2" d="
  M 447.00 193.71
  Q 450.26 198.87 450.49 205.00
  A 1.26 0.78 -80.2 0 0 450.84 205.87
  Q 451.52 206.42 452.29 205.50
  C 454.43 205.98 452.84 208.19 454.12 209.71
  Q 455.76 211.03 455.97 213.26
  A 1.63 1.01 -41.9 0 1 455.71 214.16
  Q 454.48 216.06 455.59 218.52
  Q 448.76 220.83 441.75 219.71
  L 441.55 193.82
  A 0.47 0.47 2.2 0 1 442.06 193.35
  L 447.00 193.71
  Z"
/>
<path fill="#ffffff" d="
  M 487.48 227.55
  Q 483.68 227.66 485.25 224.04
  L 531.47 224.00
  A 0.75 0.73 -87.4 0 0 532.20 223.32
  L 533.56 208.50
  C 533.64 208.33 535.66 200.31 537.13 201.42
  A 1.00 0.85 -71.3 0 1 537.46 202.26
  L 535.42 226.17
  A 0.92 0.91 2.7 0 1 534.49 227.00
  Q 510.97 226.59 487.48 227.55
  Z"
/>
<path fill="#ffffff" d="
  M 463.00 227.04
  Q 446.99 226.63 430.99 227.35
  L 421.00 226.98
  A 1.42 0.86 -11.7 0 1 420.13 226.67
  C 418.21 224.72 423.35 225.11 424.51 224.15
  L 465.26 223.94
  A 0.77 0.75 -86.9 0 0 466.00 223.26
  L 467.29 211.75
  C 468.55 210.13 469.56 205.33 470.59 204.73
  Q 471.77 204.06 471.61 205.40
  L 469.18 226.07
  A 1.09 1.06 3.0 0 1 468.11 227.01
  L 463.00 227.04
  Z"
/>
<path fill="#ffffff" d="
  M 599.71 206.71
  L 599.99 226.72
  Q 575.59 227.20 551.15 227.01
  C 550.27 227.00 548.77 226.37 549.92 225.36
  A 1.37 0.91 17.4 0 1 550.82 225.10
  Q 553.05 225.20 555.04 224.25
  L 597.34 224.01
  A 0.77 0.75 -87.4 0 0 598.08 223.32
  L 599.71 206.71
  Z"
/>
<path fill="#ffffff" d="
  M 316.25 226.96
  Q 309.17 229.99 300.56 227.44
  Q 290.64 224.50 285.17 217.62
  C 298.23 228.29 317.29 227.81 327.29 213.25
  L 329.03 211.78
  Q 329.71 211.21 329.86 212.11
  C 330.35 215.19 330.14 216.74 327.96 219.09
  Q 323.07 224.36 316.25 226.96
  Z"
/>
<path fill="#ffffff" d="
  M 97.00 224.54
  L 98.97 225.13
  A 1.02 0.97 1.0 0 1 99.63 225.78
  Q 100.00 227.00 98.25 227.00
  Q 90.00 227.00 81.76 227.00
  C 80.02 227.00 78.33 226.37 81.00 224.71
  Q 88.99 223.26 97.00 224.54
  Z"
/>
<path fill="#ffffff" d="
  M 155.25 224.71
  L 157.19 225.19
  A 0.97 0.77 2.8 0 1 157.86 225.78
  Q 158.24 227.30 155.75 227.00
  Q 152.95 226.67 143.25 227.04
  L 130.21 226.96
  Q 127.83 227.47 128.30 224.72
  Q 141.73 223.10 155.25 224.71
  Z"
/>
<path fill="#ffffff" d="
  M 194.00 224.27
  Q 195.62 225.27 197.43 225.12
  A 1.90 0.94 -17.5 0 1 198.39 225.27
  C 200.07 226.17 197.96 227.00 197.13 226.99
  Q 184.56 226.79 172.00 227.29
  Q 167.95 227.78 169.54 224.50
  Q 181.78 223.54 194.00 224.27
  Z"
/>
<path fill="#ffffff" d="
  M 247.22 224.22
  C 248.31 224.98 253.60 224.83 251.86 226.67
  A 1.26 0.99 17.0 0 1 251.01 227.00
  Q 237.30 227.00 223.58 227.00
  C 221.86 227.00 221.34 225.40 223.25 225.21
  Q 225.46 224.99 227.54 224.25
  Q 237.44 223.66 247.22 224.22
  Z"
/>
<path fill="#ffffff" d="
  M 370.78 224.24
  Q 372.39 225.22 374.19 225.11
  A 1.33 0.93 -18.3 0 1 375.07 225.37
  C 376.52 226.67 374.52 227.01 373.65 226.98
  Q 361.16 226.68 348.79 227.45
  Q 344.80 227.92 345.75 224.29
  Q 358.24 223.68 370.78 224.24
  Z"
/>
<path fill="#ffffff" d="
  M 404.96 224.50
  C 406.02 225.02 410.30 224.67 409.22 226.52
  A 0.93 0.82 13.1 0 1 408.44 226.94
  Q 394.52 227.04 380.59 227.00
  C 379.81 227.00 378.77 226.49 379.40 225.62
  A 1.25 0.83 9.7 0 1 380.26 225.24
  Q 382.50 225.15 384.56 224.16
  Q 394.76 223.53 404.96 224.50
  Z"
/>
<path fill="#a9dbf3" d="
  M 463.00 227.04
  Q 464.41 227.74 463.95 229.05
  Q 463.75 229.63 463.78 229.99
  Q 464.14 234.13 468.54 234.50
  Q 448.69 237.01 430.99 227.35
  Q 446.99 226.63 463.00 227.04
  Z"
/>
<path fill="#4654a6" d="
  M 130.21 226.96
  L 143.25 227.04
  Q 143.44 227.81 144.43 227.52
  A 0.29 0.24 70.1 0 1 144.74 227.70
  L 145.98 230.82
  A 1.57 0.46 62.2 0 1 146.17 231.74
  Q 145.21 237.64 147.09 243.27
  Q 147.24 243.73 147.14 244.23
  Q 146.63 246.74 148.25 248.75
  Q 148.38 249.60 149.01 249.33
  Q 149.18 249.25 149.08 249.40
  Q 148.84 249.78 149.04 250.25
  Q 142.52 256.25 134.50 260.04
  Q 131.95 259.61 132.10 257.26
  C 132.27 254.80 134.43 252.94 132.81 249.69
  C 131.27 246.60 131.78 243.97 130.20 240.65
  Q 129.19 238.53 129.16 236.62
  Q 129.09 231.72 130.21 226.96
  Z"
/>
<path fill="#000000" d="
  M 189.25 247.46
  Q 188.90 247.61 189.00 247.96
  Q 176.29 247.59 176.50 260.00
  C 176.70 271.86 190.10 272.02 197.17 266.38
  A 0.53 0.47 -37.1 0 1 197.90 266.44
  Q 198.55 267.31 197.44 267.94
  C 190.35 271.94 179.74 272.51 172.61 267.48
  C 166.61 263.26 166.49 256.36 172.04 251.71
  Q 179.27 245.65 189.25 247.46
  Z"
/>
<path fill="#000000" d="
  M 189.00 247.96
  Q 188.90 247.61 189.25 247.46
  L 195.18 249.09
  A 1.60 1.33 24.2 0 0 196.77 248.65
  Q 198.47 246.41 198.55 247.76
  Q 198.75 250.87 198.75 253.41
  Q 198.75 256.69 197.26 253.77
  Q 194.70 248.75 189.00 247.96
  Z"
/>
<path fill="#000000" d="
  M 238.4296 258.8192
  A 17.30 12.19 -0.4 0 1 221.2151 271.1297
  A 17.30 12.19 -0.4 0 1 203.8304 259.0608
  A 17.30 12.19 -0.4 0 1 221.0449 246.7503
  A 17.30 12.19 -0.4 0 1 238.4296 258.8192
  Z
  M 229.6014 255.9689
  A 7.76 7.76 0.0 0 0 221.8958 248.1549
  L 220.5758 248.1457
  A 7.76 7.76 0.0 0 0 212.7618 255.8513
  L 212.7186 262.0511
  A 7.76 7.76 0.0 0 0 220.4242 269.8651
  L 221.7442 269.8743
  A 7.76 7.76 0.0 0 0 229.5582 262.1687
  L 229.6014 255.9689
  Z"
/>
<path fill="#000000" d="
  M 263.74 259.99
  C 268.05 264.22 271.72 270.97 278.64 269.98
  Q 280.75 269.68 280.75 267.55
  C 280.75 261.92 280.48 256.34 280.87 251.12
  C 281.18 246.95 276.35 248.60 276.39 247.52
  A 0.69 0.48 0.2 0 1 277.06 247.06
  C 282.35 246.98 303.90 244.52 303.42 254.00
  C 303.15 259.49 292.96 260.33 289.09 259.99
  A 0.75 0.74 2.5 0 0 288.27 260.73
  L 288.31 268.58
  A 0.79 0.75 6.7 0 0 288.92 269.32
  Q 291.53 269.95 292.17 270.38
  Q 293.07 271.00 290.66 271.00
  Q 278.49 271.01 266.32 270.94
  A 1.27 1.18 -21.1 0 1 265.45 270.59
  L 255.82 260.70
  Q 253.23 258.04 253.26 261.69
  L 253.30 268.62
  A 0.73 0.72 6.2 0 0 253.86 269.31
  Q 256.49 269.94 257.15 270.37
  Q 258.10 271.00 255.63 271.00
  Q 248.61 271.00 241.60 271.00
  C 240.37 271.00 240.71 269.94 241.81 270.03
  C 246.05 270.38 245.50 267.51 245.50 264.18
  Q 245.50 258.99 245.50 253.80
  C 245.50 250.47 246.09 247.63 241.85 247.97
  C 240.21 248.10 240.52 247.00 242.09 247.00
  C 247.40 247.00 271.46 244.61 270.81 253.47
  C 270.56 256.90 267.20 258.75 264.06 259.06
  Q 262.91 259.18 263.74 259.99
  Z
  M 253.55 258.83
  C 263.67 261.59 266.74 248.50 256.87 248.02
  C 255.40 247.95 252.78 247.28 253.06 249.65
  C 253.41 252.49 253.27 255.34 253.10 258.19
  A 0.61 0.61 -80.4 0 0 253.55 258.83
  Z
  M 288.90 258.96
  C 297.28 259.38 298.54 248.92 289.63 247.96
  A 1.39 1.39 89.5 0 0 288.10 249.52
  Q 288.60 253.50 288.04 257.93
  A 0.92 0.91 -85.0 0 0 288.90 258.96
  Z"
/>
<path fill="#000000" d="
  M 341.4296 258.8192
  A 17.30 12.19 -0.4 0 1 324.2151 271.1297
  A 17.30 12.19 -0.4 0 1 306.8304 259.0608
  A 17.30 12.19 -0.4 0 1 324.0449 246.7503
  A 17.30 12.19 -0.4 0 1 341.4296 258.8192
  Z
  M 332.5966 255.9836
  A 7.76 7.76 0.0 0 0 324.9047 248.1562
  L 323.5847 248.1447
  A 7.76 7.76 0.0 0 0 315.7573 255.8366
  L 315.7034 262.0164
  A 7.76 7.76 0.0 0 0 323.3953 269.8438
  L 324.7153 269.8553
  A 7.76 7.76 0.0 0 0 332.5427 262.1634
  L 332.5966 255.9836
  Z"
/>
<path fill="#000000" d="
  M 357.75 269.43
  Q 359.11 270.12 360.66 270.03
  C 362.37 269.93 361.90 271.00 360.39 271.00
  C 358.60 271.00 345.56 271.32 344.97 270.81
  C 344.43 270.34 345.31 269.99 345.81 270.03
  C 350.05 270.38 349.50 267.51 349.50 264.18
  Q 349.50 258.99 349.50 253.80
  C 349.50 250.47 350.09 247.63 345.85 247.97
  C 344.17 248.10 344.56 247.02 346.10 247.00
  Q 355.96 246.86 365.82 247.10
  C 375.13 247.33 379.26 257.44 368.01 259.18
  Q 367.07 259.32 367.74 259.99
  C 372.43 264.71 378.93 276.05 385.41 265.12
  Q 390.61 256.37 395.82 247.88
  A 1.24 1.23 -44.4 0 1 397.94 247.90
  Q 403.85 257.98 409.94 267.81
  C 410.45 268.64 415.33 270.98 413.00 270.98
  Q 406.00 271.00 399.01 271.00
  A 1.07 0.76 -11.3 0 1 398.18 270.63
  C 397.29 269.29 403.44 271.02 401.62 267.79
  C 399.46 263.94 399.72 264.00 395.10 264.00
  Q 391.97 264.00 389.14 264.00
  A 1.84 1.84 -71.9 0 0 387.66 264.75
  Q 384.06 269.66 388.97 269.99
  C 389.43 270.02 391.51 270.79 389.00 270.83
  Q 379.75 271.00 370.10 271.00
  A 1.19 1.18 -21.2 0 1 369.23 270.62
  C 367.41 268.65 359.92 259.77 357.83 259.97
  A 0.72 0.72 -3.0 0 0 357.17 260.70
  L 357.31 268.69
  A 0.84 0.79 -77.5 0 0 357.75 269.43
  Z
  M 366.31 255.83
  Q 368.06 248.37 360.88 248.02
  C 359.42 247.95 356.76 247.29 357.06 249.65
  C 357.42 252.48 357.27 255.35 357.10 258.19
  A 0.59 0.59 8.4 0 0 357.56 258.81
  Q 361.26 259.63 364.60 257.98
  A 3.23 3.22 83.6 0 0 366.31 255.83
  Z
  M 388.87 262.40
  A 0.38 0.38 17.1 0 0 389.19 262.98
  L 398.21 263.01
  A 0.38 0.38 74.4 0 0 398.53 262.43
  L 394.05 255.08
  A 0.38 0.38 45.4 0 0 393.40 255.07
  L 388.87 262.40
  Z"
/>
<path fill="#000000" d="
  M 433.31 269.94
  C 435.40 269.82 437.05 270.99 434.16 271.00
  Q 426.85 271.04 419.55 270.95
  A 0.76 0.58 -4.0 0 1 418.85 270.49
  C 418.77 270.15 422.12 269.83 422.90 269.12
  A 1.19 1.13 70.1 0 0 423.28 268.25
  L 423.34 248.93
  A 0.71 0.65 8.9 0 0 422.83 248.29
  Q 416.99 246.61 413.71 252.24
  Q 412.75 253.90 412.75 251.98
  L 412.75 247.88
  A 0.88 0.88 0.0 0 1 413.63 247.00
  L 440.98 247.00
  A 0.67 0.67 88.2 0 1 441.65 247.63
  L 441.92 252.19
  A 0.74 0.56 82.2 0 1 441.51 252.92
  Q 441.05 253.04 440.81 252.44
  Q 438.84 247.39 432.08 248.13
  A 0.94 0.93 86.9 0 0 431.25 249.06
  L 431.25 268.25
  Q 431.25 270.06 433.31 269.94
  Z"
/>
<path fill="#000000" d="
  M 459.26 269.95
  Q 460.78 269.57 461.53 270.41
  Q 461.89 270.81 461.32 270.83
  Q 453.66 271.13 446.00 270.97
  Q 444.67 270.95 445.14 270.34
  A 1.11 0.76 15.6 0 1 445.99 270.05
  Q 449.75 270.31 449.56 266.68
  C 449.28 261.01 449.50 255.19 449.50 249.50
  Q 449.50 247.21 446.50 248.00
  Q 445.31 248.32 445.10 247.57
  A 0.46 0.40 -6.7 0 1 445.56 247.06
  Q 453.23 246.96 460.90 247.00
  C 462.63 247.01 462.15 248.03 460.66 247.98
  Q 457.18 247.88 457.40 251.19
  C 457.77 256.72 457.50 262.62 457.50 268.59
  A 1.41 1.41 -7.2 0 0 459.26 269.95
  Z"
/>
<path fill="#000000" d="
  M 499.4398 258.8494
  A 17.31 12.19 -0.3 0 1 482.1938 271.1298
  A 17.31 12.19 -0.3 0 1 464.8202 259.0306
  A 17.31 12.19 -0.3 0 1 482.0662 246.7502
  A 17.31 12.19 -0.3 0 1 499.4398 258.8494
  Z
  M 490.5967 255.9736
  A 7.76 7.76 0.0 0 0 482.9047 248.1462
  L 481.5848 248.1347
  A 7.76 7.76 0.0 0 0 473.7574 255.8266
  L 473.7033 262.0264
  A 7.76 7.76 0.0 0 0 481.3953 269.8538
  L 482.7152 269.8653
  A 7.76 7.76 0.0 0 0 490.5426 262.1734
  L 490.5967 255.9736
  Z"
/>
<path fill="#000000" d="
  M 509.22 269.39
  Q 510.32 269.95 511.91 270.00
  C 513.41 270.04 513.87 270.99 511.93 271.00
  Q 507.24 271.04 502.56 270.95
  A 0.66 0.46 1.0 0 1 501.91 270.48
  C 501.92 269.65 505.96 270.36 506.47 267.58
  C 507.30 263.10 506.32 256.81 506.61 252.04
  C 506.88 247.77 501.75 248.21 501.85 247.50
  A 0.75 0.53 2.9 0 1 502.57 247.05
  L 512.43 247.05
  A 1.34 1.28 -22.6 0 1 513.32 247.39
  L 528.26 261.01
  Q 529.26 261.92 529.25 260.60
  L 529.20 250.30
  A 1.54 1.33 -68.3 0 0 528.89 249.41
  C 528.09 248.46 522.88 247.40 525.51 247.25
  Q 529.53 247.01 533.57 247.00
  C 534.73 247.00 536.85 247.80 533.31 248.06
  Q 531.07 248.23 531.06 249.56
  L 531.00 269.99
  Q 531.00 271.69 529.74 270.56
  L 509.14 252.15
  Q 508.07 251.19 508.08 252.64
  L 508.25 267.79
  A 1.83 1.75 -77.6 0 0 509.22 269.39
  Z"
/>
</svg>
