<?xml version="1.0" encoding="UTF-8" standalone="no"?>
<!DOCTYPE svg PUBLIC "-//W3C//DTD SVG 1.1//EN" "http://www.w3.org/Graphics/SVG/1.1/DTD/svg11.dtd">
<svg xmlns="http://www.w3.org/2000/svg" version="1.1" viewBox="0 0 600 300">
<path stroke="#000000" stroke-width="2.00" fill="none" stroke-linecap="butt" vector-effect="non-scaling-stroke" d="
  M 464.04 216.75
  L 463.84 219.50
  A 0.73 0.48 -83.2 0 0 464.20 220.23
  C 464.59 220.31 464.55 217.60 464.71 216.75"
/>
<path fill="#000000" d="
  M 258.18 42.81
  C 258.20 27.90 268.89 15.09 282.85 11.35
  C 305.98 5.16 328.29 25.17 324.37 48.92
  C 321.95 63.63 308.96 76.81 293.06 76.70
  A 0.53 0.52 89.4 0 1 292.55 76.19
  C 292.02 57.10 276.89 44.39 258.69 43.34
  A 0.54 0.53 1.7 0 1 258.18 42.81
  Z"
/>
<path fill="#000000" d="
  M 325.16 76.93
  C 326.94 36.55 384.76 34.73 389.75 74.50
  C 392.06 92.94 377.95 109.08 359.38 110.78
  A 0.75 0.75 86.8 0 1 358.56 110.04
  C 358.39 92.35 343.52 77.95 325.99 77.82
  A 0.85 0.84 -88.4 0 1 325.16 76.93
  Z"
/>
<ellipse fill="#000000" cx="0.00" cy="0.00" transform="translate(246.58,85.58) rotate(-0.1)" rx="35.31" ry="17.38"/>
<path fill="#000000" d="
  M 280.19 112.69
  C 292.08 98.73 319.70 99.60 335.13 104.09
  C 341.17 105.85 343.54 106.84 347.56 111.19
  C 359.45 124.05 343.57 132.80 333.28 135.85
  Q 307.95 143.33 285.56 131.19
  C 278.87 127.56 274.31 119.59 280.19 112.69
  Z"
/>
<path fill="#000000" d="
  M 33.50 231.25
  C 31.92 238.03 37.49 236.41 41.44 236.60
  C 45.28 236.79 46.51 234.42 47.10 230.90
  C 48.12 224.82 50.69 217.40 48.38 213.15
  Q 41.30 200.15 34.50 187.00
  C 30.22 178.73 32.70 170.78 34.36 162.43
  C 36.73 150.54 38.65 148.00 51.19 148.00
  C 60.24 148.00 73.78 145.63 71.25 160.50
  Q 69.38 171.47 67.47 182.24
  A 1.23 1.22 5.0 0 1 66.26 183.25
  L 56.14 183.25
  A 0.44 0.43 5.0 0 1 55.71 182.74
  L 59.20 162.87
  Q 59.84 159.25 56.17 159.25
  C 51.97 159.25 46.84 157.80 45.75 163.50
  C 44.53 169.84 41.95 177.34 45.36 183.21
  Q 57.01 203.25 59.69 209.06
  C 62.65 215.49 59.62 225.01 58.36 231.85
  C 56.62 241.31 55.61 247.26 45.14 247.66
  C 36.82 247.98 18.70 251.00 21.20 235.99
  Q 23.15 224.23 25.21 212.75
  A 1.16 1.08 -84.2 0 1 26.31 211.79
  L 36.25 211.96
  A 0.45 0.43 -84.9 0 1 36.67 212.49
  Q 34.17 228.35 33.50 231.25
  Z"
/>
<path fill="#000000" d="
  M 80.61 236.49
  C 85.72 236.63 89.44 237.70 90.60 231.35
  Q 98.11 190.07 105.72 148.81
  A 0.67 0.65 -87.6 0 1 106.30 148.26
  Q 111.79 147.65 116.99 148.16
  A 0.48 0.48 7.7 0 1 117.42 148.72
  Q 109.18 194.04 101.00 238.75
  C 99.98 244.33 95.23 247.17 89.56 247.56
  C 84.32 247.92 76.09 248.24 72.17 247.52
  C 63.51 245.94 64.33 238.19 65.65 230.97
  Q 73.13 189.90 80.47 148.80
  A 0.70 0.67 1.6 0 1 81.07 148.25
  Q 86.42 147.65 91.59 148.17
  A 0.60 0.60 -82.4 0 1 92.12 148.87
  Q 84.53 190.06 77.39 230.70
  C 76.82 233.93 76.27 236.36 80.61 236.49
  Z"
/>
<path fill="#000000" d="
  M 148.75 148.00
  C 155.69 148.03 161.08 151.35 159.71 158.94
  Q 156.89 174.45 154.11 189.96
  Q 152.92 196.61 150.97 199.02
  C 146.28 204.82 134.66 203.00 127.79 203.00
  A 0.93 0.92 -84.8 0 0 126.88 203.76
  L 119.03 246.93
  A 0.92 0.92 -85.5 0 1 118.14 247.69
  L 107.84 247.74
  A 0.81 0.79 -85.1 0 1 107.06 246.79
  L 124.80 148.74
  A 0.83 0.82 -85.3 0 1 125.60 148.06
  Q 137.03 147.95 148.75 148.00
  Z
  M 144.66 159.34
  L 135.45 159.39
  A 0.65 0.63 -84.9 0 0 134.84 159.92
  L 129.07 190.73
  A 1.01 1.01 2.8 0 0 130.15 191.92
  C 134.53 191.56 141.81 193.63 142.94 187.44
  Q 145.14 175.33 147.52 163.13
  Q 148.27 159.32 144.66 159.34
  Z"
/>
<path fill="#000000" d="
  M 172.56 190.70
  L 185.97 190.75
  A 0.66 0.65 5.1 0 1 186.62 191.52
  L 184.83 200.85
  A 1.11 1.11 5.3 0 1 183.74 201.75
  L 170.94 201.75
  A 1.26 1.24 4.9 0 0 169.70 202.78
  L 163.77 235.90
  A 0.51 0.51 4.8 0 0 164.27 236.50
  L 177.93 236.50
  A 0.42 0.42 5.7 0 1 178.34 237.00
  L 176.56 246.49
  A 1.55 1.53 -84.8 0 1 175.05 247.76
  L 150.25 247.75
  A 0.76 0.76 5.1 0 1 149.50 246.86
  L 167.22 148.81
  A 0.63 0.61 -85.4 0 1 167.81 148.29
  L 193.23 148.02
  A 1.03 0.99 -85.1 0 1 194.20 149.23
  L 192.74 158.09
  A 1.38 1.34 -85.2 0 1 191.41 159.25
  L 178.44 159.25
  A 0.96 0.94 5.0 0 0 177.50 160.02
  L 172.14 190.20
  A 0.43 0.42 5.7 0 0 172.56 190.70
  Z"
/>
<path fill="#000000" d="
  M 202.98 204.55
  L 195.47 247.03
  A 0.81 0.79 -85.1 0 1 194.70 247.69
  L 184.16 247.74
  A 0.84 0.83 -85.1 0 1 183.34 246.75
  L 200.86 148.88
  A 1.07 1.07 -84.8 0 1 201.91 148.00
  Q 214.00 148.00 226.00 148.00
  C 234.21 148.00 237.48 152.72 236.20 160.25
  Q 233.79 174.46 231.06 188.61
  C 230.09 193.66 228.91 195.89 224.30 197.79
  A 0.43 0.43 -32.9 0 0 224.15 198.49
  C 229.26 203.80 227.96 206.59 226.62 214.33
  Q 223.79 230.61 220.66 246.83
  A 0.63 0.62 -84.3 0 1 220.05 247.34
  L 209.02 247.48
  A 0.55 0.53 -85.1 0 1 208.49 246.83
  Q 211.86 227.91 215.18 209.06
  C 216.05 204.12 214.81 203.87 210.37 203.71
  Q 206.95 203.58 203.56 204.00
  A 0.67 0.66 1.1 0 0 202.98 204.55
  Z
  M 223.13 160.49
  Q 221.89 159.28 220.35 159.30
  L 211.68 159.40
  A 0.66 0.59 -84.2 0 0 211.09 159.94
  L 205.40 190.95
  A 0.48 0.48 -80.7 0 0 205.80 191.51
  C 211.73 192.30 218.04 193.51 219.32 186.52
  C 219.92 183.26 224.44 161.78 223.13 160.49
  Z"
/>
<path fill="#000000" d="
  M 267.50 180.75
  C 266.70 181.73 266.16 192.53 266.00 194.50
  Q 265.35 202.65 257.28 246.94
  A 0.67 0.67 -87.7 0 1 256.69 247.49
  Q 251.20 248.10 245.64 247.56
  A 0.57 0.57 7.9 0 1 245.13 246.89
  L 262.93 148.77
  A 0.85 0.83 -85.1 0 1 263.75 148.06
  L 274.23 148.01
  A 0.90 0.88 86.4 0 1 275.12 148.81
  Q 278.94 183.41 280.25 217.00
  C 280.42 221.50 281.26 217.27 281.27 217.13
  Q 281.64 208.34 282.44 202.69
  Q 286.21 176.14 291.16 148.89
  A 1.01 0.99 -84.8 0 1 292.14 148.06
  L 302.58 148.01
  A 0.66 0.65 -84.8 0 1 303.22 148.79
  L 285.44 246.95
  A 0.91 0.88 -84.8 0 1 284.58 247.69
  L 274.14 247.75
  A 0.93 0.90 86.8 0 1 273.24 246.92
  Q 269.89 214.09 267.97 181.07
  Q 267.92 180.24 267.50 180.75
  Z"
/>
<path fill="#000000" d="
  M 312.08 148.90
  A 1.10 1.09 5.0 0 1 313.16 148.00
  L 323.64 148.00
  A 0.49 0.49 -84.6 0 1 324.12 148.58
  L 306.31 247.02
  A 0.88 0.86 -84.8 0 1 305.46 247.74
  L 294.96 247.69
  A 0.68 0.66 -84.9 0 1 294.31 246.89
  L 312.08 148.90
  Z"
/>
<path fill="#000000" d="
  M 338.06 179.53
  Q 337.56 179.28 337.50 180.00
  C 335.71 202.82 331.46 224.25 327.63 246.45
  A 1.57 1.47 -83.8 0 1 326.11 247.76
  L 316.21 247.40
  A 0.87 0.83 -83.5 0 1 315.43 246.38
  L 333.05 148.88
  A 1.07 1.07 -84.8 0 1 334.10 148.00
  L 344.11 148.00
  A 1.22 1.21 -3.2 0 1 345.32 149.08
  Q 349.11 183.79 350.49 217.00
  C 350.68 221.52 351.51 217.25 351.52 217.12
  C 352.68 195.80 357.28 171.48 361.38 148.76
  A 0.93 0.92 -84.8 0 1 362.29 148.00
  L 372.89 148.00
  A 0.51 0.51 3.9 0 1 373.39 148.60
  L 355.69 246.70
  A 1.28 1.28 5.1 0 1 354.43 247.75
  L 344.64 247.75
  A 1.12 1.11 -3.2 0 1 343.53 246.76
  Q 339.75 213.49 338.45 180.28
  A 0.95 0.70 -81.2 0 0 338.06 179.53
  Z"
/>
<path fill="#000000" d="
  M 377.84 148.75
  A 0.92 0.89 4.9 0 1 378.74 148.01
  L 406.07 148.18
  A 0.44 0.42 4.9 0 1 406.51 148.68
  L 404.69 158.58
  A 0.65 0.64 -85.0 0 1 404.07 159.11
  L 397.22 159.22
  A 0.94 0.87 4.0 0 0 396.31 159.95
  L 380.66 246.60
  A 1.34 1.31 -84.9 0 1 379.38 247.70
  L 369.35 247.74
  A 0.94 0.93 -85.1 0 1 368.43 246.63
  L 384.15 160.34
  A 1.01 0.96 5.3 0 0 383.16 159.21
  L 376.43 159.11
  A 0.46 0.44 -83.9 0 1 376.01 158.57
  L 377.84 148.75
  Z"
/>
<path fill="#000000" d="
  M 421.72 159.81
  L 416.52 190.07
  A 0.44 0.43 -84.3 0 0 416.93 190.59
  L 430.04 190.73
  A 0.90 0.86 5.2 0 1 430.92 191.74
  L 429.16 201.08
  A 0.63 0.62 -84.8 0 1 428.56 201.59
  L 415.35 201.73
  A 1.41 1.37 4.7 0 0 413.98 202.86
  L 408.17 235.71
  A 0.67 0.66 -84.9 0 0 408.82 236.50
  L 422.08 236.50
  A 0.57 0.56 5.4 0 1 422.64 237.17
  L 420.79 246.96
  A 0.61 0.61 5.1 0 1 420.19 247.46
  L 394.87 247.69
  A 1.03 0.99 -85.0 0 1 393.89 246.48
  L 411.51 148.85
  A 1.03 1.03 -85.0 0 1 412.52 148.00
  L 437.97 148.00
  A 0.73 0.72 -85.0 0 1 438.68 148.86
  L 436.95 158.59
  A 0.80 0.79 -84.8 0 1 436.17 159.25
  L 422.30 159.31
  A 0.61 0.59 -84.7 0 0 421.72 159.81
  Z"
/>
<path fill="#000000" d="
  M 464.04 216.75
  L 463.84 219.50
  A 0.73 0.48 -83.2 0 0 464.20 220.23
  C 464.59 220.31 464.55 217.60 464.71 216.75
  C 466.61 193.95 470.67 171.31 474.72 148.80
  A 0.67 0.66 2.3 0 1 475.31 148.26
  Q 480.91 147.65 486.19 148.15
  A 0.66 0.66 8.0 0 1 486.78 148.93
  L 469.03 246.95
  A 0.66 0.60 -84.7 0 1 468.44 247.49
  L 457.96 247.71
  A 1.26 1.16 86.1 0 1 456.76 246.58
  Q 453.44 213.84 451.57 181.07
  C 451.56 180.91 451.48 180.72 451.31 180.82
  A 0.39 0.24 85.5 0 0 451.17 181.10
  Q 447.12 214.20 440.78 246.95
  A 0.66 0.60 -84.7 0 1 440.19 247.49
  L 429.72 247.71
  A 0.96 0.90 -85.5 0 1 428.82 246.59
  L 446.52 148.87
  A 1.02 0.97 -84.0 0 1 447.49 148.04
  L 458.06 148.16
  A 0.60 0.56 86.6 0 1 458.62 148.69
  Q 462.39 182.64 464.04 216.75
  Z"
/>
<path fill="#000000" d="
  M 495.62 148.96
  A 1.18 1.16 4.9 0 1 496.78 148.00
  Q 508.38 148.00 520.25 147.93
  Q 533.50 147.86 531.08 161.02
  Q 524.73 195.65 518.48 230.29
  C 516.20 242.95 515.56 247.75 501.95 247.75
  Q 490.31 247.75 478.44 247.75
  A 0.67 0.67 -85.0 0 1 477.78 246.96
  L 495.62 148.96
  Z
  M 505.47 159.54
  L 491.50 236.26
  A 0.36 0.35 -86.8 0 0 491.87 236.68
  C 495.73 236.44 505.39 238.11 506.31 233.06
  Q 512.68 198.26 518.94 163.44
  C 520.08 157.11 509.40 159.24 505.73 159.31
  A 0.28 0.26 -84.8 0 0 505.47 159.54
  Z"
/>
<path fill="#000000" d="
  M 541.75 152.68
  C 546.88 145.93 557.15 148.00 564.50 148.00
  C 572.37 148.00 577.27 151.13 575.75 160.00
  Q 569.21 198.03 562.20 235.98
  C 560.83 243.38 557.98 247.30 550.33 247.64
  C 545.12 247.86 533.71 248.97 529.39 246.02
  C 523.92 242.29 525.46 237.15 526.64 230.46
  Q 533.17 193.55 539.65 157.48
  Q 540.12 154.82 541.75 152.68
  Z
  M 550.40 163.24
  Q 544.00 197.42 538.02 231.68
  C 537.59 234.18 538.00 237.04 541.23 236.58
  Q 543.52 236.24 545.83 236.48
  C 549.56 236.87 550.73 234.97 551.36 231.54
  Q 557.62 197.78 563.50 163.95
  C 563.93 161.46 563.84 159.31 560.75 159.28
  C 556.73 159.24 551.43 157.74 550.40 163.24
  Z"
/>
<path fill="#000000" d="
  M 464.04 216.75
  Q 464.35 217.10 464.71 216.75
  C 464.55 217.60 464.59 220.31 464.20 220.23
  A 0.73 0.48 -83.2 0 1 463.84 219.50
  L 464.04 216.75
  Z"
/>
<path fill="#000000" d="
  M 570.2806 247.5790
  A 6.84 6.52 91.0 0 1 563.8810 240.6262
  A 6.84 6.52 91.0 0 1 570.5194 233.9010
  A 6.84 6.52 91.0 0 1 576.9190 240.8538
  A 6.84 6.52 91.0 0 1 570.2806 247.5790
  Z
  M 576.11 240.72
  A 5.68 5.68 0.0 0 0 570.43 235.04
  A 5.68 5.68 0.0 0 0 564.75 240.72
  A 5.68 5.68 0.0 0 0 570.43 246.40
  A 5.68 5.68 0.0 0 0 576.11 240.72
  Z"
/>
<path fill="#000000" d="
  M 568.19 237.44
  Q 568.57 235.10 571.94 236.81
  Q 574.02 237.86 572.81 239.60
  A 1.08 0.93 -39.4 0 0 572.66 240.47
  C 572.81 240.95 574.04 244.84 572.65 244.05
  A 0.92 0.70 -77.2 0 1 572.29 243.26
  Q 572.40 240.34 569.53 241.16
  A 0.70 0.57 83.6 0 0 569.11 241.81
  L 569.11 243.81
  A 0.44 0.42 -82.1 0 1 568.57 244.24
  C 567.35 243.90 568.04 238.38 568.19 237.44
  Z
  M 569.31 238.11
  C 567.79 242.13 574.69 239.80 571.21 237.49
  A 1.28 1.28 -62.9 0 0 569.31 238.11
  Z"
/>
<path fill="#000000" d="
  M 577.00 295.37
  A 0.63 0.63 0.0 0 1 576.37 296.00
  L 22.63 296.00
  A 0.63 0.63 0.0 0 1 22.00 295.37
  L 22.00 257.81
  A 0.63 0.63 0.0 0 1 22.63 257.18
  L 576.37 257.18
  A 0.63 0.63 0.0 0 1 577.00 257.81
  L 577.00 295.37
  Z
  M 421.70 267.69
  C 424.91 269.26 419.85 272.98 425.27 271.84
  A 1.76 1.75 0.8 0 0 426.61 270.54
  C 428.92 261.16 415.79 262.64 414.23 271.08
  Q 413.78 273.57 415.37 275.53
  C 417.00 277.55 421.54 280.44 419.75 283.45
  C 418.54 285.47 414.71 287.11 415.16 282.65
  C 415.41 280.25 416.46 279.41 412.40 280.22
  A 1.31 1.31 -88.2 0 0 411.39 281.17
  C 408.31 292.62 421.70 290.08 424.18 282.31
  C 426.34 275.56 418.38 275.02 418.47 270.51
  Q 418.52 268.43 420.77 267.65
  A 1.24 1.09 -38.8 0 1 421.70 267.69
  Z
  M 466.06 283.52
  C 464.53 291.60 478.12 290.28 479.35 281.24
  Q 479.68 278.78 478.49 276.99
  C 476.66 274.26 470.16 270.96 475.62 267.81
  A 1.45 1.17 -49.6 0 1 476.57 267.63
  C 480.34 268.46 474.73 273.04 480.69 271.80
  A 1.36 1.35 4.2 0 0 481.70 270.94
  Q 482.98 267.42 480.84 265.48
  C 474.85 260.05 463.66 271.04 472.81 277.94
  Q 477.96 281.82 472.93 285.22
  A 1.26 1.08 -52.2 0 1 472.01 285.41
  Q 469.28 284.77 470.64 281.15
  A 0.71 0.70 14.4 0 0 470.08 280.21
  C 466.38 279.63 466.68 280.24 466.06 283.52
  Z
  M 67.66 272.81
  Q 67.37 279.03 68.36 285.19
  C 68.83 288.06 67.72 289.10 72.05 288.24
  A 1.51 1.51 1.2 0 0 73.22 287.12
  Q 75.62 277.22 78.38 267.54
  Q 79.65 263.09 75.52 264.86
  A 1.09 1.05 88.0 0 0 74.91 265.54
  C 74.04 268.32 71.59 280.61 71.02 280.99
  Q 70.56 281.30 70.58 280.69
  Q 70.76 273.79 69.85 266.95
  C 69.32 263.01 65.79 264.04 64.93 267.21
  Q 62.18 277.46 59.62 287.76
  A 0.58 0.55 -74.1 0 0 59.97 288.43
  Q 62.72 289.38 63.69 287.19
  Q 64.62 285.09 66.75 272.75
  Q 66.83 272.29 67.19 272.24
  A 0.54 0.42 88.6 0 1 67.66 272.81
  Z
  M 95.74 268.34
  A 0.43 0.43 3.5 0 1 96.22 268.88
  L 91.28 287.42
  A 0.69 0.69 -75.6 0 0 91.78 288.27
  Q 93.75 288.74 94.78 288.22
  A 1.28 0.93 89.2 0 0 95.32 287.45
  L 99.94 269.50
  Q 100.42 267.65 102.26 268.08
  Q 105.34 268.80 105.30 265.28
  A 0.53 0.52 89.4 0 0 104.78 264.76
  L 93.81 264.80
  A 1.07 1.04 -70.1 0 0 92.99 265.20
  Q 89.83 269.19 95.74 268.34
  Z
  M 121.47 272.55
  Q 121.42 272.35 122.14 271.34
  A 1.53 1.18 67.2 0 0 122.38 270.43
  Q 122.24 267.63 126.60 268.53
  Q 128.79 268.98 130.45 267.49
  Q 131.64 266.42 130.29 264.92
  A 1.21 0.92 -16.5 0 0 129.44 264.60
  L 120.83 264.71
  A 1.06 1.00 6.4 0 0 119.83 265.46
  L 114.02 287.61
  A 0.68 0.65 -82.8 0 0 114.65 288.46
  L 124.06 288.35
  A 1.04 0.94 -71.8 0 0 124.85 287.90
  C 128.14 282.91 121.19 285.86 119.21 284.50
  A 0.73 0.71 -65.0 0 1 118.93 283.70
  L 120.26 279.09
  Q 120.97 276.63 123.60 277.45
  C 127.75 278.75 130.57 273.28 123.95 274.22
  Q 121.95 274.50 121.47 272.55
  Z
  M 175.65 268.32
  A 0.52 0.49 8.2 0 1 176.14 268.93
  L 171.28 287.43
  A 0.67 0.67 -75.8 0 0 171.77 288.26
  Q 173.75 288.74 174.78 288.22
  A 1.26 0.88 -89.9 0 0 175.31 287.46
  L 180.04 269.15
  A 1.23 1.23 -77.0 0 1 181.48 268.25
  Q 185.86 269.13 185.61 265.18
  A 0.53 0.51 -2.3 0 0 185.07 264.70
  C 181.70 264.76 178.27 264.87 174.91 264.64
  Q 171.82 264.42 171.91 267.57
  A 0.57 0.55 -88.9 0 0 172.43 268.13
  L 175.65 268.32
  Z
  M 203.36 282.79
  Q 203.96 284.66 203.20 286.89
  A 1.18 1.17 -75.0 0 0 204.08 288.42
  C 208.27 289.24 207.35 287.10 207.60 284.52
  Q 208.51 275.06 208.44 265.56
  A 0.73 0.69 -81.1 0 0 207.97 264.88
  Q 205.64 264.08 203.48 265.30
  A 1.75 1.32 -86.0 0 0 202.85 266.02
  L 192.49 287.76
  A 0.53 0.53 18.6 0 0 192.86 288.50
  C 199.59 289.92 195.80 281.00 202.70 282.21
  A 0.85 0.84 -3.4 0 1 203.36 282.79
  Z
  M 232.89 264.72
  C 231.05 264.03 229.97 264.66 229.48 266.54
  Q 226.79 277.05 223.93 287.75
  A 0.50 0.49 -76.5 0 0 224.30 288.36
  Q 226.16 288.74 227.31 288.24
  A 1.15 0.94 89.0 0 0 227.88 287.52
  L 233.52 265.92
  A 1.01 1.01 17.6 0 0 232.89 264.72
  Z
  M 253.76 272.53
  Q 254.13 272.88 254.00 273.75
  C 253.56 276.63 254.71 281.16 254.67 286.69
  Q 254.66 288.90 258.21 288.29
  A 1.57 1.53 -86.9 0 0 259.45 287.15
  L 264.91 266.27
  A 1.42 1.41 -83.4 0 0 263.51 264.49
  Q 261.16 264.56 260.71 266.54
  C 260.38 268.03 257.62 281.78 257.22 281.69
  A 0.77 0.48 -85.1 0 1 256.84 280.94
  Q 257.22 273.46 256.02 266.05
  A 1.34 1.19 -79.1 0 0 255.54 265.24
  C 252.90 263.26 251.74 265.32 251.12 267.69
  Q 248.76 276.72 246.44 285.76
  C 245.90 287.85 244.58 289.06 248.63 288.34
  A 1.80 1.72 0.7 0 0 250.06 287.01
  L 253.22 272.81
  Q 253.36 272.16 253.76 272.53
  Z
  M 318.54 277.69
  C 321.00 277.13 324.67 278.65 325.48 275.83
  A 1.40 1.36 6.6 0 0 324.07 274.10
  L 320.00 274.25
  A 0.86 0.82 -81.8 0 1 319.21 273.13
  L 320.47 268.99
  A 1.05 1.03 -81.2 0 1 321.46 268.25
  C 324.21 268.25 328.27 269.56 328.32 265.59
  A 0.93 0.91 0.3 0 0 327.39 264.67
  L 318.68 264.75
  A 1.42 1.40 6.9 0 0 317.32 265.80
  L 311.48 287.84
  A 0.53 0.52 7.6 0 0 311.99 288.50
  L 321.50 288.50
  A 1.02 0.93 15.9 0 0 322.31 288.10
  Q 323.19 286.86 323.24 285.40
  A 0.69 0.63 -0.5 0 0 322.51 284.75
  L 317.38 284.99
  A 0.94 0.86 -83.2 0 1 316.54 283.81
  L 317.93 278.30
  A 0.86 0.84 -89.2 0 1 318.54 277.69
  Z
  M 344.96 273.05
  L 346.19 287.50
  A 0.91 0.87 -81.0 0 0 346.70 288.23
  Q 348.27 288.95 349.86 288.28
  A 1.05 0.98 87.1 0 0 350.44 287.59
  L 356.22 265.86
  A 0.84 0.83 8.5 0 0 355.44 264.81
  Q 352.36 264.66 351.95 266.49
  C 351.44 268.68 349.71 279.75 348.76 280.75
  Q 348.36 281.18 348.30 280.44
  L 347.25 266.05
  A 1.15 1.11 16.9 0 0 346.80 265.24
  Q 345.24 264.08 343.49 265.05
  A 1.29 1.07 86.7 0 0 342.93 265.81
  L 337.16 287.62
  A 0.51 0.51 15.0 0 0 337.53 288.25
  Q 340.58 289.04 341.25 287.25
  Q 342.09 285.01 344.23 273.25
  Q 344.29 272.90 344.49 272.72
  Q 344.90 272.36 344.96 273.05
  Z
  M 446.90 273.20
  C 447.00 272.56 447.88 263.69 444.96 264.56
  A 1.61 1.24 -37.5 0 1 444.04 264.56
  Q 442.05 263.86 442.43 266.26
  Q 443.15 270.92 443.85 275.58
  C 444.49 279.81 442.89 283.69 441.78 287.66
  A 0.48 0.48 15.8 0 0 442.11 288.25
  Q 445.04 289.07 445.58 287.44
  C 446.91 283.45 447.20 280.12 449.69 276.19
  Q 452.87 271.16 456.32 266.30
  Q 457.60 264.50 455.40 264.50
  C 450.47 264.48 449.96 272.85 447.31 273.63
  A 0.37 0.33 87.7 0 1 446.90 273.20
  Z
  M 504.75 268.00
  Q 508.68 269.47 508.75 265.28
  A 0.65 0.61 0.9 0 0 508.10 264.65
  L 497.48 264.63
  A 1.84 1.63 12.7 0 0 495.90 265.50
  Q 494.04 268.97 497.89 268.17
  A 1.23 1.21 -88.4 0 1 499.30 269.69
  L 494.61 287.76
  A 0.58 0.56 -73.2 0 0 494.96 288.44
  C 497.25 289.23 498.20 288.33 498.79 286.14
  Q 501.12 277.41 503.44 268.67
  A 0.99 0.99 17.8 0 1 504.75 268.00
  Z
  M 556.88 280.69
  L 558.17 265.31
  A 0.51 0.47 -87.8 0 0 557.70 264.76
  L 552.49 264.75
  A 0.50 0.44 -81.5 0 0 552.05 265.12
  Q 549.20 275.50 546.61 286.01
  C 546.08 288.14 544.79 288.83 548.75 288.39
  A 1.73 1.72 3.7 0 0 550.22 287.10
  Q 552.63 277.64 554.71 268.20
  C 554.78 267.84 555.50 266.74 555.38 268.18
  Q 554.64 277.09 553.98 286.00
  C 553.62 290.81 556.32 288.01 557.09 286.29
  Q 561.23 277.10 565.49 267.96
  C 565.65 267.62 566.18 267.16 565.87 268.16
  Q 562.96 277.52 560.26 286.93
  Q 559.68 288.95 563.24 288.26
  A 1.49 1.49 -88.1 0 0 564.39 287.18
  Q 567.00 277.56 569.58 267.17
  C 569.90 265.89 571.35 263.59 567.98 264.59
  Q 567.52 264.73 567.00 264.66
  C 564.86 264.34 563.92 264.73 563.03 266.80
  Q 560.06 273.78 557.02 280.73
  Q 556.84 281.13 556.88 280.69
  Z
  M 38.88 273.69
  L 39.83 269.51
  A 1.86 1.65 6.3 0 1 41.64 268.23
  C 44.07 268.29 48.40 269.29 47.98 265.35
  A 0.67 0.66 87.1 0 0 47.32 264.75
  L 38.02 264.75
  A 1.10 1.09 -82.3 0 0 36.97 265.56
  L 31.19 287.46
  A 0.83 0.83 -82.7 0 0 31.99 288.50
  C 33.79 288.50 39.96 288.98 41.27 288.42
  Q 42.43 287.92 42.57 285.63
  A 0.97 0.85 -0.2 0 0 41.55 284.74
  L 36.90 284.97
  A 0.77 0.74 -84.1 0 1 36.16 284.01
  L 37.40 279.01
  Q 37.99 276.60 40.79 277.27
  Q 44.68 278.20 45.01 275.12
  A 1.03 0.98 1.9 0 0 43.94 274.03
  L 39.32 274.20
  A 0.43 0.42 5.1 0 1 38.88 273.69
  Z
  M 149.71 278.32
  Q 151.80 278.85 151.23 281.05
  L 149.62 287.35
  A 0.72 0.68 13.8 0 0 150.16 288.19
  C 154.90 289.29 153.56 288.06 154.18 285.10
  C 154.65 282.84 156.35 278.58 154.62 276.87
  A 0.89 0.88 -41.6 0 1 154.70 275.54
  Q 159.34 271.92 157.97 267.25
  Q 157.23 264.75 154.61 264.75
  L 146.74 264.75
  A 1.06 1.03 -82.3 0 0 145.74 265.54
  L 139.95 287.70
  A 0.56 0.52 -74.1 0 0 140.29 288.36
  Q 141.76 288.80 143.22 288.35
  A 1.04 0.92 -87.2 0 0 143.85 287.71
  C 145.25 283.69 144.88 277.08 149.71 278.32
  Z
  M 285.67 268.81
  Q 285.37 277.30 284.44 285.74
  C 283.98 289.92 286.63 288.94 287.65 286.66
  Q 291.62 277.78 295.64 268.93
  A 0.99 0.74 -80.3 0 1 296.18 268.42
  C 297.05 268.17 296.19 269.44 296.09 269.74
  Q 293.44 277.87 291.39 286.18
  C 290.87 288.30 289.97 288.74 293.45 288.37
  A 1.80 1.79 4.2 0 0 295.00 287.04
  L 300.50 266.32
  A 1.24 1.23 -77.1 0 0 299.54 264.79
  Q 297.55 264.40 295.28 264.95
  A 2.03 1.95 3.8 0 0 293.89 266.12
  L 288.20 279.70
  A 0.80 0.42 -73.9 0 1 287.70 280.22
  Q 287.37 280.25 287.50 279.50
  Q 288.71 272.58 288.69 265.56
  A 0.65 0.63 -83.2 0 0 288.21 264.93
  Q 285.58 264.26 283.03 265.14
  A 0.96 0.92 88.6 0 0 282.43 265.80
  L 276.69 287.71
  A 0.57 0.54 -72.7 0 0 277.02 288.38
  C 279.30 289.25 280.45 288.35 281.05 286.09
  Q 283.79 275.91 284.94 269.44
  Q 285.04 268.88 285.27 268.59
  Q 285.70 268.07 285.67 268.81
  Z
  M 374.03 269.10
  Q 372.52 276.49 370.36 284.46
  C 369.87 286.26 367.59 290.05 372.60 288.24
  A 0.97 0.95 87.8 0 0 373.20 287.58
  L 378.00 270.01
  Q 378.46 268.32 380.16 268.27
  Q 384.49 268.16 383.38 265.26
  A 0.75 0.70 -9.5 0 0 382.69 264.80
  L 371.31 264.81
  Q 369.70 264.82 370.00 267.25
  Q 370.19 268.81 372.82 268.00
  A 0.95 0.95 87.2 0 1 374.03 269.10
  Z
  M 528.70 284.92
  L 524.82 285.16
  A 1.42 1.26 4.5 0 1 523.31 283.59
  L 524.58 278.88
  Q 525.20 276.59 527.76 277.20
  Q 531.65 278.14 532.23 275.49
  Q 532.73 273.23 530.50 273.86
  Q 528.30 274.48 526.54 274.07
  A 0.64 0.59 -82.9 0 1 526.08 273.43
  Q 526.21 270.93 526.94 269.66
  Q 528.18 267.49 530.60 268.09
  Q 533.72 268.86 535.01 266.82
  Q 536.32 264.75 533.87 264.75
  L 525.07 264.75
  A 1.14 1.13 -82.8 0 0 523.97 265.61
  L 518.30 287.71
  A 0.63 0.62 -82.5 0 0 518.90 288.50
  C 521.52 288.50 528.80 289.50 529.82 286.82
  A 1.40 1.22 -79.5 0 0 528.70 284.92
  Z"
/>
<path fill="#000000" d="
  M 204.74 268.67
  C 205.25 266.03 205.51 268.96 205.44 269.28
  C 204.73 272.60 204.91 279.71 201.82 278.91
  A 1.04 1.03 -70.2 0 1 201.15 277.47
  C 202.35 274.91 204.23 271.30 204.74 268.67
  Z"
/>
<path fill="#000000" d="
  M 152.95 268.53
  A 1.63 1.62 17.7 0 1 153.89 270.34
  Q 152.80 275.63 148.30 274.57
  A 0.61 0.53 12.7 0 1 147.83 273.93
  L 148.82 268.97
  A 0.94 0.73 -4.9 0 1 149.48 268.36
  Q 151.40 267.85 152.95 268.53
  Z"
/>
</svg>
