<?xml version="1.0" encoding="UTF-8" standalone="no"?>
<!DOCTYPE svg PUBLIC "-//W3C//DTD SVG 1.1//EN" "http://www.w3.org/Graphics/SVG/1.1/DTD/svg11.dtd">
<svg xmlns="http://www.w3.org/2000/svg" version="1.1" viewBox="0 0 600 300">
<g stroke-width="2.00" fill="none" stroke-linecap="butt">
<path stroke="#0eadd1" vector-effect="non-scaling-stroke" d="
  M 137.57 126.79
  Q 130.14 127.96 127.00 127.25
  Q 123.60 126.48 121.54 127.75"
/>
<path stroke="#0ea8cf" vector-effect="non-scaling-stroke" d="
  M 91.21 138.25
  C 88.30 136.38 81.17 137.14 78.54 138.00"
/>
<path stroke="#0eadd1" vector-effect="non-scaling-stroke" d="
  M 46.75 131.79
  Q 45.94 131.82 45.93 132.51
  A 0.48 0.41 -88.2 0 1 45.50 132.98
  Q 39.53 132.73 33.55 132.58
  C 32.18 132.54 30.83 133.24 30.71 131.00"
/>
<path stroke="#0c8ebf" vector-effect="non-scaling-stroke" d="
  M 42.75 143.04
  Q 41.92 144.30 40.87 144.03
  C 37.14 143.06 31.84 143.46 27.93 143.55
  A 1.02 0.73 -11.5 0 1 27.11 143.18
  L 26.71 142.50"
/>
<path stroke="#0c8ebf" vector-effect="non-scaling-stroke" d="
  M 144.78 147.56
  Q 136.78 147.72 128.99 148.88"
/>
<path stroke="#0969aa" vector-effect="non-scaling-stroke" d="
  M 37.58 158.24
  L 22.82 158.46
  A 0.93 0.64 69.8 0 1 22.13 157.97
  Q 21.90 157.55 21.46 157.25"
/>
<path stroke="#0972af" vector-effect="non-scaling-stroke" d="
  M 145.79 150.25
  Q 145.81 152.24 143.50 152.25
  Q 136.87 152.27 130.25 152.29"
/>
<path stroke="#064494" vector-effect="non-scaling-stroke" d="
  M 30.20 179.25
  Q 21.96 180.40 13.87 178.57"
/>
<path stroke="#07559e" vector-effect="non-scaling-stroke" d="
  M 151.52 166.35
  Q 143.36 167.67 135.25 166.83"
/>
<path stroke="#04388d" vector-effect="non-scaling-stroke" d="
  M 159.54 189.00
  L 157.65 190.46
  A 1.53 1.30 22.3 0 1 156.76 190.75
  L 146.93 190.75
  A 0.41 0.40 20.9 0 0 146.63 190.88
  L 146.50 191.00
  A 0.71 0.62 24.9 0 1 145.91 191.17
  Q 144.51 190.91 144.25 192.29"
/>
<path stroke="#0fb4d6" vector-effect="non-scaling-stroke" d="
  M 246.46 127.00
  Q 245.94 124.29 245.72 127.19
  A 0.36 0.34 12.2 0 1 245.24 127.48
  C 241.63 126.17 234.49 126.85 232.05 127.20
  A 0.56 0.44 -79.6 0 0 231.68 127.53
  L 231.57 127.80
  Q 231.23 128.64 231.18 127.56
  L 230.74 119.46"
/>
<path stroke="#0ea8cf" vector-effect="non-scaling-stroke" d="
  M 176.77 136.54
  Q 170.11 135.90 163.53 136.39
  C 162.46 136.47 161.39 135.81 161.04 137.50"
/>
<path stroke="#0b86bb" vector-effect="non-scaling-stroke" d="
  M 176.74 147.02
  Q 168.83 146.91 161.04 148.00"
/>
<path stroke="#0da0ca" vector-effect="non-scaling-stroke" d="
  M 246.46 139.50
  C 246.10 138.56 246.62 134.50 245.69 136.00
  A 0.43 0.39 35.0 0 1 245.09 136.08
  Q 244.61 135.72 243.97 135.85
  Q 243.34 135.98 243.00 135.93
  Q 237.31 135.21 231.74 136.39
  A 0.45 0.43 -8.7 0 1 231.20 136.01
  L 230.79 131.25"
/>
<path stroke="#0866a8" vector-effect="non-scaling-stroke" d="
  M 176.71 157.50
  Q 176.39 157.97 176.29 158.50
  A 0.56 0.51 -82.6 0 1 175.75 158.96
  C 172.70 158.72 163.56 157.77 161.04 160.00"
/>
<path stroke="#0b82b8" vector-effect="non-scaling-stroke" d="
  M 246.46 148.50
  Q 245.84 150.17 244.63 149.32
  A 1.72 1.17 54.0 0 0 243.74 149.00
  C 240.09 149.00 236.97 148.90 233.34 149.54
  Q 230.34 150.07 230.79 145.75"
/>
<path stroke="#064494" vector-effect="non-scaling-stroke" d="
  M 176.71 172.50
  L 176.50 180.25
  Q 176.46 181.84 175.81 180.44
  Q 175.42 179.59 174.69 180.19
  Q 168.81 180.43 162.94 180.09
  A 0.98 0.69 11.8 0 0 162.11 180.45
  L 161.54 181.50"
/>
<path stroke="#054293" vector-effect="non-scaling-stroke" d="
  M 245.91 181.54
  Q 238.01 182.14 234.75 181.75
  Q 231.30 181.34 229.74 183.04"
/>
<path stroke="#042c86" vector-effect="non-scaling-stroke" d="
  M 237.14 201.82
  Q 203.36 200.09 169.75 201.29"
/>
<path stroke="#0861a4" vector-effect="non-scaling-stroke" d="
  M 246.45 159.64
  Q 238.55 159.36 230.74 160.52"
/>
<path stroke="#0fb4d6" vector-effect="non-scaling-stroke" d="
  M 333.78 127.22
  Q 327.40 126.68 321.06 126.78
  Q 320.20 126.79 319.76 127.32
  A 0.34 0.33 -44.1 0 1 319.24 127.32
  L 318.04 125.75"
/>
<path stroke="#0da2cb" vector-effect="non-scaling-stroke" d="
  M 333.96 136.50
  C 333.17 131.92 333.68 138.11 333.11 136.24
  A 0.28 0.27 85.1 0 0 332.88 136.04
  C 330.48 135.69 321.73 135.12 319.25 136.44
  A 0.34 0.33 71.3 0 1 318.76 136.19
  L 318.29 133.25"
/>
<path stroke="#0b88bc" vector-effect="non-scaling-stroke" d="
  M 333.96 147.00
  L 333.54 144.80
  Q 333.48 144.47 333.25 144.77
  C 332.60 145.59 320.90 145.28 319.06 145.31
  A 0.61 0.57 -84.6 0 0 318.49 145.81
  Q 318.27 147.11 318.04 144.25"
/>
<path stroke="#0868a9" vector-effect="non-scaling-stroke" d="
  M 333.96 159.00
  C 328.86 160.17 324.38 158.73 319.07 159.64
  A 0.24 0.23 82.4 0 1 318.80 159.42
  Q 318.69 157.54 318.29 159.75"
/>
<path stroke="#064695" vector-effect="non-scaling-stroke" d="
  M 333.71 172.50
  C 333.69 175.22 332.54 174.23 331.11 174.27
  Q 324.59 174.46 318.01 174.69"
/>
<path stroke="#042c86" vector-effect="non-scaling-stroke" d="
  M 326.25 200.29
  C 323.32 199.94 317.45 200.54 315.91 199.78
  Q 315.35 199.50 314.99 199.50
  Q 284.75 199.50 254.50 199.50
  Q 252.03 199.50 250.99 201.21"
/>
<path stroke="#053b8f" vector-effect="non-scaling-stroke" d="
  M 266.71 188.75
  Q 266.67 190.82 265.00 190.81
  C 261.68 190.77 253.43 189.78 251.04 192.25"
/>
<path stroke="#064f9b" vector-effect="non-scaling-stroke" d="
  M 266.71 170.50
  Q 266.69 172.67 264.75 172.25
  Q 262.07 171.67 253.50 172.45
  A 1.63 1.30 -26.5 0 1 252.56 172.25
  Q 251.65 171.67 251.04 170.75"
/>
<path stroke="#0973b0" vector-effect="non-scaling-stroke" d="
  M 266.71 152.50
  Q 265.90 153.20 265.94 154.25
  A 0.47 0.43 89.3 0 1 265.50 154.74
  Q 258.99 154.63 252.51 155.32
  Q 251.26 155.45 251.04 156.75"
/>
<path stroke="#0d9ac6" vector-effect="non-scaling-stroke" d="
  M 266.71 137.75
  L 266.44 136.31
  Q 266.39 136.10 266.29 136.29
  Q 265.96 136.85 265.00 136.75
  Q 259.19 136.14 251.01 137.34"
/>
<path stroke="#0da3cc" vector-effect="non-scaling-stroke" d="
  M 355.71 137.25
  Q 355.12 138.25 355.27 136.85
  A 0.35 0.34 80.9 0 0 354.79 136.50
  C 351.18 138.06 344.11 137.25 340.00 137.25
  A 0.64 0.56 -82.2 0 0 339.44 137.74
  Q 339.33 138.16 339.04 138.50"
/>
<path stroke="#0a78b2" vector-effect="non-scaling-stroke" d="
  M 355.71 153.00
  C 355.57 153.34 355.35 156.58 354.78 154.86
  A 0.44 0.42 80.3 0 0 354.38 154.56
  Q 346.65 154.58 338.97 155.65"
/>
<path stroke="#075ba1" vector-effect="non-scaling-stroke" d="
  M 355.71 156.50
  L 355.49 159.67
  A 0.55 0.49 -87.6 0 1 354.99 160.19
  L 339.99 159.81
  A 0.21 0.21 4.8 0 0 339.78 159.98
  Q 339.56 161.02 339.45 159.78
  Q 339.43 159.55 339.29 159.72
  L 339.04 160.00"
/>
<path stroke="#064695" vector-effect="non-scaling-stroke" d="
  M 357.50 180.71
  Q 356.50 181.16 357.02 181.66
  Q 357.34 181.95 356.95 182.01
  C 351.82 182.77 344.78 181.45 340.71 183.25"
/>
<path stroke="#05358b" vector-effect="non-scaling-stroke" d="
  M 364.80 189.88
  Q 355.96 191.80 346.94 190.94
  Q 345.75 190.82 344.29 191.75"
/>
<path stroke="#042a85" vector-effect="non-scaling-stroke" d="
  M 421.21 208.00
  L 421.00 201.51
  A 0.60 0.55 88.9 0 0 420.45 200.93
  Q 401.72 201.05 383.25 201.00
  C 380.76 200.99 378.45 200.47 376.24 200.66
  Q 363.48 201.75 350.71 200.21"
/>
<path stroke="#0fb3d5" vector-effect="non-scaling-stroke" d="
  M 442.71 135.75
  L 442.20 124.06
  Q 442.17 123.26 442.10 124.06
  L 441.94 125.94
  A 0.25 0.22 18.8 0 1 441.57 126.09
  Q 441.23 125.91 440.86 126.16
  A 1.49 0.41 -39.7 0 1 440.01 126.54
  L 429.50 126.77
  Q 429.06 126.78 428.57 127.01
  Q 427.64 127.45 427.07 126.56
  Q 426.93 126.34 426.86 126.57
  C 426.12 129.03 426.92 123.14 426.04 125.75"
/>
<path stroke="#0d9cc8" vector-effect="non-scaling-stroke" d="
  M 442.71 142.50
  C 442.68 142.41 442.16 137.35 441.97 139.11
  Q 441.94 139.40 441.73 139.20
  Q 440.96 138.42 440.23 139.28
  A 1.11 0.88 -65.1 0 1 439.45 139.67
  Q 432.70 139.41 426.01 140.32"
/>
<path stroke="#0b84b9" vector-effect="non-scaling-stroke" d="
  M 442.71 148.50
  Q 442.61 144.52 441.94 147.24
  A 0.59 0.59 -85.9 0 1 441.42 147.69
  Q 434.38 148.35 427.31 147.85
  A 0.71 0.56 7.5 0 0 426.60 148.27
  L 426.04 150.50"
/>
<path stroke="#0868a9" vector-effect="non-scaling-stroke" d="
  M 442.71 155.50
  Q 441.91 153.49 442.01 155.91
  A 0.61 0.59 88.6 0 1 441.43 156.54
  L 426.04 156.75"
/>
<path stroke="#064695" vector-effect="non-scaling-stroke" d="
  M 442.71 173.75
  Q 442.36 176.14 439.50 175.75
  Q 437.12 175.42 427.80 175.91
  A 1.28 0.53 47.0 0 1 427.01 175.55
  L 426.04 174.75"
/>
<path stroke="#153e90" vector-effect="non-scaling-stroke" d="
  M 492.00 193.04
  Q 491.26 196.26 491.93 199.51
  Q 492.99 204.69 493.35 209.99"
/>
<path stroke="#042c86" vector-effect="non-scaling-stroke" d="
  M 490.50 209.96
  C 490.95 203.48 488.98 201.06 482.56 200.99
  Q 460.66 200.76 438.68 201.03"
/>
<path stroke="#37579f" vector-effect="non-scaling-stroke" d="
  M 501.32 193.00
  Q 500.93 201.55 502.25 209.96"
/>
<path stroke="#5d77b1" vector-effect="non-scaling-stroke" d="
  M 504.27 192.98
  L 504.00 209.96"
/>
<path stroke="#8ca0c9" vector-effect="non-scaling-stroke" d="
  M 513.75 193.04
  L 514.50 209.96"
/>
<path stroke="#bac7df" vector-effect="non-scaling-stroke" d="
  M 519.75 193.04
  L 520.56 210.03"
/>
<path stroke="#e6ebf4" vector-effect="non-scaling-stroke" d="
  M 526.79 210.01
  Q 525.53 201.56 525.75 193.04"
/>
<path stroke="#0da3cc" vector-effect="non-scaling-stroke" d="
  M 464.21 139.00
  Q 463.87 135.07 463.39 138.07
  A 0.60 0.58 4.5 0 1 462.80 138.56
  L 447.04 138.50"
/>
<path stroke="#0a75b1" vector-effect="non-scaling-stroke" d="
  M 464.21 154.25
  Q 456.61 153.06 448.99 154.18
  A 1.37 1.04 -25.6 0 1 448.07 153.99
  Q 447.22 153.38 447.04 152.25"
/>
<path stroke="#07569e" vector-effect="non-scaling-stroke" d="
  M 464.27 169.60
  Q 458.27 169.88 452.29 170.22
  C 450.54 170.32 449.95 170.57 448.09 169.82
  A 0.55 0.55 9.3 0 1 447.74 169.34
  Q 447.60 167.13 447.29 170.50"
/>
<path stroke="#14539c" vector-effect="non-scaling-stroke" d="
  M 491.00 172.04
  C 490.99 174.18 491.87 177.14 490.97 179.06
  A 1.30 1.18 -43.9 0 0 490.91 179.97
  Q 492.35 184.38 491.74 188.99"
/>
<path stroke="#064695" vector-effect="non-scaling-stroke" d="
  M 490.50 188.96
  Q 491.97 187.25 491.36 185.40
  C 490.35 182.34 489.04 179.30 485.17 179.32
  Q 467.47 179.41 449.71 179.82"
/>
<path stroke="#396baa" vector-effect="non-scaling-stroke" d="
  M 500.75 172.04
  Q 498.60 172.04 499.18 174.27
  Q 501.05 181.49 500.50 188.96"
/>
<path stroke="#698fbe" vector-effect="non-scaling-stroke" d="
  M 506.75 172.04
  Q 508.15 180.46 507.60 189.00"
/>
<path stroke="#98b1d1" vector-effect="non-scaling-stroke" d="
  M 515.83 172.08
  Q 515.23 173.94 515.62 175.83
  C 516.40 179.57 516.52 183.42 516.11 187.22
  Q 515.90 189.24 518.25 188.96"
/>
<path stroke="#b7c7de" vector-effect="non-scaling-stroke" d="
  M 518.75 172.04
  Q 520.51 179.56 519.56 184.81
  Q 518.71 189.53 523.00 188.96"
/>
<path stroke="#d1dbe9" vector-effect="non-scaling-stroke" d="
  M 522.75 172.04
  L 523.32 187.94
  A 0.63 0.56 -87.4 0 0 523.80 188.53
  L 527.00 188.96"
/>
<path stroke="#f0f3f8" vector-effect="non-scaling-stroke" d="
  M 530.47 188.99
  Q 530.09 176.09 530.56 173.31
  Q 530.81 171.83 529.00 172.04"
/>
<path stroke="#0eaad0" vector-effect="non-scaling-stroke" d="
  M 313.54 124.00
  Q 313.47 131.00 313.29 137.99
  Q 313.26 139.43 313.25 137.44
  A 1.81 1.73 29.8 0 0 312.97 136.49
  Q 312.25 135.35 311.34 136.14
  A 1.69 1.10 -58.7 0 1 310.49 136.55
  Q 304.27 137.10 298.04 136.50"
/>
<path stroke="#0c8dbf" vector-effect="non-scaling-stroke" d="
  M 313.71 141.50
  Q 313.56 144.69 313.16 143.01
  Q 313.10 142.76 313.05 143.02
  L 312.98 143.47
  A 0.71 0.57 3.2 0 1 312.31 143.95
  C 308.63 144.01 300.76 142.97 298.04 145.50"
/>
<path stroke="#0a78b2" vector-effect="non-scaling-stroke" d="
  M 313.71 152.75
  Q 313.26 150.52 313.00 152.03
  Q 312.95 152.31 312.86 152.03
  C 312.58 151.13 311.64 151.75 310.97 151.77
  Q 305.33 151.93 299.69 151.82
  A 1.40 1.01 17.3 0 0 298.79 152.12
  Q 298.23 152.66 298.04 153.50"
/>
<path stroke="#085fa3" vector-effect="non-scaling-stroke" d="
  M 313.71 159.50
  Q 313.34 160.59 313.41 161.76
  C 313.55 164.04 313.43 159.96 311.50 160.88
  Q 310.33 161.44 308.34 161.44
  L 298.74 161.45
  A 0.55 0.44 90.0 0 0 298.30 162.00
  Q 298.30 162.54 298.04 163.00"
/>
<path stroke="#064996" vector-effect="non-scaling-stroke" d="
  M 313.21 179.25
  Q 312.49 178.94 312.35 179.57
  A 0.49 0.40 -75.6 0 1 311.83 179.95
  C 311.30 179.79 310.92 179.50 310.36 179.50
  Q 292.90 179.45 275.45 179.50
  C 273.96 179.50 272.64 180.53 271.29 178.75"
/>
<path stroke="#0868a9" vector-effect="non-scaling-stroke" d="
  M 288.73 160.39
  L 272.57 160.67
  A 0.68 0.60 -6.3 0 1 271.91 160.21
  L 271.29 157.50"
/>
<path stroke="#0c92c2" vector-effect="non-scaling-stroke" d="
  M 288.71 138.75
  Q 288.36 138.93 288.15 139.24
  A 0.37 0.36 37.2 0 1 287.62 139.30
  C 287.28 139.03 274.32 139.62 272.82 139.67
  A 1.33 0.95 -17.1 0 1 271.92 139.37
  Q 271.24 138.67 271.29 137.50"
/>
<path stroke="#0fb3d5" vector-effect="non-scaling-stroke" d="
  M 375.49 128.51
  Q 369.89 128.94 364.30 128.78
  Q 364.25 128.78 362.72 128.90
  Q 361.11 129.02 360.29 127.50"
/>
<path stroke="#0ea3cc" vector-effect="non-scaling-stroke" d="
  M 411.54 130.25
  C 411.51 130.92 411.52 139.19 411.34 134.75
  Q 411.23 132.11 410.74 134.78
  A 0.88 0.87 -84.9 0 1 409.88 135.50
  L 361.69 135.56
  A 0.77 0.67 77.9 0 1 361.04 135.07
  L 360.29 133.25"
/>
<path stroke="#0d96c4" vector-effect="non-scaling-stroke" d="
  M 411.71 145.50
  C 411.35 144.43 411.86 138.61 410.94 141.95
  Q 410.83 142.37 410.75 141.95
  Q 410.46 140.53 409.40 141.20
  A 1.89 1.10 -48.6 0 1 408.50 141.50
  L 362.00 141.50
  A 0.81 0.76 76.4 0 1 361.30 141.04
  Q 360.36 139.09 360.29 142.25"
/>
<path stroke="#0ea9cf" vector-effect="non-scaling-stroke" d="
  M 72.07 132.13
  Q 62.12 132.63 52.24 132.03
  A 0.69 0.55 0.5 0 1 51.61 131.52
  L 51.50 129.96"
/>
<path stroke="#0c90c0" vector-effect="non-scaling-stroke" d="
  M 75.81 142.66
  Q 61.37 143.89 46.96 143.00"
/>
<path stroke="#0a7ab3" vector-effect="non-scaling-stroke" d="
  M 78.79 150.50
  C 73.37 151.79 68.05 150.84 63.04 151.75"
/>
<path stroke="#0a74b0" vector-effect="non-scaling-stroke" d="
  M 58.05 156.35
  L 42.71 155.50"
/>
<path stroke="#0861a4" vector-effect="non-scaling-stroke" d="
  M 81.57 158.43
  Q 74.37 159.06 67.25 159.50
  Q 66.78 159.53 66.21 160.00"
/>
<path stroke="#085da2" vector-effect="non-scaling-stroke" d="
  M 56.71 160.75
  L 42.43 160.44
  A 0.64 0.52 -0.3 0 1 41.82 159.95
  L 41.71 158.25"
/>
<path stroke="#054493" vector-effect="non-scaling-stroke" d="
  M 95.07 182.80
  Q 87.00 183.64 81.25 183.25
  Q 77.72 183.01 75.25 184.04"
/>
<path stroke="#064796" vector-effect="non-scaling-stroke" d="
  M 52.96 172.25
  Q 51.82 172.33 52.00 173.50
  A 2.19 1.18 82.8 0 1 51.06 175.94
  Q 43.51 176.16 35.93 175.12"
/>
<path stroke="#085fa3" vector-effect="non-scaling-stroke" d="
  M 103.25 160.79
  Q 95.22 159.98 87.19 160.97"
/>
<path stroke="#043088" vector-effect="non-scaling-stroke" d="
  M 43.59 200.60
  Q 36.21 199.63 28.82 199.92
  A 0.62 0.47 80.7 0 1 28.32 199.44
  Q 28.23 199.05 27.75 198.96"
/>
<path stroke="#0a75b1" vector-effect="non-scaling-stroke" d="
  M 125.79 151.71
  Q 118.32 153.34 110.54 153.00"
/>
<path stroke="#0a75b1" vector-effect="non-scaling-stroke" d="
  M 106.28 152.89
  Q 104.68 153.15 103.07 153.00
  C 99.30 152.64 95.54 152.74 91.75 152.69
  Q 90.42 152.68 90.71 151.25"
/>
<path stroke="#0b89bd" vector-effect="non-scaling-stroke" d="
  M 123.50 145.21
  Q 122.88 145.82 123.24 146.58
  A 0.32 0.29 75.6 0 1 123.00 147.03
  L 110.24 147.26
  Q 109.91 147.27 109.32 147.00
  Q 108.34 146.55 107.77 147.61
  A 0.65 0.43 -60.8 0 1 107.07 147.97
  L 106.53 147.66
  Q 105.91 147.31 105.69 147.30
  Q 99.72 147.21 93.75 147.25
  Q 92.52 147.26 92.71 145.75"
/>
<path stroke="#085ca2" vector-effect="non-scaling-stroke" d="
  M 128.10 158.46
  Q 120.66 160.18 113.04 160.50"
/>
<path stroke="#0da5cd" vector-effect="non-scaling-stroke" d="
  M 120.24 135.60
  L 97.44 135.93
  A 0.69 0.48 -1.4 0 1 96.75 135.47
  L 96.71 134.75"
/>
<path stroke="#053c8f" vector-effect="non-scaling-stroke" d="
  M 138.81 189.54
  L 123.15 190.15"
/>
<path stroke="#0866a8" vector-effect="non-scaling-stroke" d="
  M 411.71 156.50
  C 411.58 156.94 411.07 160.17 410.49 159.38
  A 0.97 0.75 67.0 0 0 409.81 159.00
  L 360.27 158.86"
/>
<path stroke="#06509b" vector-effect="non-scaling-stroke" d="
  M 376.40 167.92
  Q 374.83 167.23 374.67 169.25
  A 0.67 0.62 1.4 0 1 374.02 169.83
  L 361.26 169.96
  A 0.55 0.51 90.0 0 0 360.75 170.51
  Q 360.75 172.14 360.29 170.75"
/>
<path stroke="#0ea5cd" vector-effect="non-scaling-stroke" d="
  M 226.21 135.50
  Q 225.75 133.23 225.29 135.19
  A 0.26 0.25 28.3 0 1 224.86 135.31
  Q 224.27 134.78 223.45 135.05
  Q 222.90 135.23 222.51 135.17
  Q 216.29 134.26 210.03 135.04"
/>
<path stroke="#0eb0d3" vector-effect="non-scaling-stroke" d="
  M 197.49 132.13
  Q 189.95 131.38 182.50 131.96
  A 0.65 0.55 77.6 0 1 181.91 131.51
  L 181.29 129.50"
/>
<path stroke="#0b7eb6" vector-effect="non-scaling-stroke" d="
  M 226.34 153.04
  Q 218.95 151.01 211.31 152.11
  A 0.66 0.53 -11.0 0 1 210.60 151.74
  L 210.04 149.50"
/>
<path stroke="#0c98c5" vector-effect="non-scaling-stroke" d="
  M 197.46 139.10
  Q 190.76 138.51 184.07 138.94
  C 182.74 139.03 181.06 140.27 181.29 137.50"
/>
<path stroke="#0860a4" vector-effect="non-scaling-stroke" d="
  M 226.21 160.25
  Q 225.51 158.62 225.25 160.31
  A 0.53 0.51 -82.4 0 1 224.69 160.76
  Q 218.04 160.07 210.81 160.88
  A 0.40 0.40 -87.0 0 0 210.46 161.20
  Q 210.23 162.53 210.32 160.25
  Q 210.41 157.86 210.04 155.50"
/>
<path stroke="#064c98" vector-effect="non-scaling-stroke" d="
  M 226.21 175.75
  L 183.29 175.81
  Q 181.45 175.81 181.41 173.84
  L 181.29 166.50"
/>
<path stroke="#0862a5" vector-effect="non-scaling-stroke" d="
  M 197.50 159.75
  Q 189.81 160.89 182.06 160.47
  A 0.61 0.52 87.7 0 1 181.57 159.94
  L 181.29 157.50"
/>
<path stroke="#0a7db5" vector-effect="non-scaling-stroke" d="
  M 197.46 147.50
  Q 197.36 149.00 196.69 150.25
  A 0.90 0.83 12.2 0 1 195.93 150.70
  Q 188.54 150.84 181.24 149.81"
/>
</g>
<path fill="#0fbcda" d="
  M 137.57 126.79
  Q 130.14 127.96 127.00 127.25
  Q 123.60 126.48 121.54 127.75
  Q 118.11 118.03 114.75 108.29
  C 112.59 102.04 104.12 102.99 102.06 109.06
  Q 100.51 113.65 91.21 138.25
  C 88.30 136.38 81.17 137.14 78.54 138.00
  Q 72.69 122.68 66.94 107.31
  C 65.51 103.50 59.37 103.30 56.72 105.77
  Q 55.43 106.98 54.15 110.76
  Q 50.59 121.32 46.75 131.79
  Q 45.94 131.82 45.93 132.51
  A 0.48 0.41 -88.2 0 1 45.50 132.98
  Q 39.53 132.73 33.55 132.58
  C 32.18 132.54 30.83 133.24 30.71 131.00
  Q 34.50 119.82 38.50 108.71
  C 42.25 98.28 44.47 90.98 54.25 88.00
  Q 67.99 83.82 76.71 93.80
  C 79.82 97.35 82.22 102.87 84.70 107.50
  Q 84.94 107.94 85.15 107.49
  Q 89.40 98.54 92.56 94.31
  C 99.83 84.61 116.30 84.71 124.15 93.53
  Q 127.03 96.77 130.91 107.71
  Q 134.26 117.17 137.57 126.79
  Z"
/>
<path fill="#0fbcda" d="
  M 246.46 127.00
  Q 245.94 124.29 245.72 127.19
  A 0.36 0.34 12.2 0 1 245.24 127.48
  C 241.63 126.17 234.49 126.85 232.05 127.20
  A 0.56 0.44 -79.6 0 0 231.68 127.53
  L 231.57 127.80
  Q 231.23 128.64 231.18 127.56
  L 230.74 119.46
  C 228.73 100.10 210.02 104.06 196.50 103.88
  C 174.17 103.58 176.39 120.13 176.77 136.54
  Q 170.11 135.90 163.53 136.39
  C 162.46 136.47 161.39 135.81 161.04 137.50
  C 160.76 111.17 160.72 86.91 195.25 86.98
  C 212.56 87.02 237.54 83.77 244.00 105.75
  Q 246.90 115.61 246.46 127.00
  Z"
/>
<path fill="#0fbcda" d="
  M 333.78 127.22
  Q 327.40 126.68 321.06 126.78
  Q 320.20 126.79 319.76 127.32
  A 0.34 0.33 -44.1 0 1 319.24 127.32
  L 318.04 125.75
  C 318.60 114.49 315.27 104.00 302.00 104.00
  Q 277.25 104.00 251.85 104.00
  A 0.85 0.85 0.0 0 1 251.00 103.15
  L 251.00 87.50
  A 0.50 0.50 0.0 0 1 251.50 87.00
  Q 276.13 87.00 300.75 87.04
  C 327.19 87.09 334.98 103.73 333.78 127.22
  Z"
/>
<path fill="#0fbcda" d="
  M 355.71 137.25
  Q 355.12 138.25 355.27 136.85
  A 0.35 0.34 80.9 0 0 354.79 136.50
  C 351.18 138.06 344.11 137.25 340.00 137.25
  A 0.64 0.56 -82.2 0 0 339.44 137.74
  Q 339.33 138.16 339.04 138.50
  Q 338.97 132.38 338.96 126.25
  Q 338.94 103.24 357.56 91.56
  C 365.04 86.87 371.91 87.00 382.33 86.97
  Q 401.45 86.91 420.56 87.18
  A 0.54 0.52 0.0 0 1 421.09 87.69
  L 421.22 103.15
  A 0.87 0.85 0.0 0 1 420.34 104.01
  Q 397.97 103.83 376.71 104.18
  C 366.69 104.34 359.17 109.48 356.55 119.34
  C 355.20 124.42 355.77 131.39 355.71 137.25
  Z"
/>
<path fill="#0fbcda" d="
  M 442.71 135.75
  L 442.20 124.06
  Q 442.17 123.26 442.10 124.06
  L 441.94 125.94
  A 0.25 0.22 18.8 0 1 441.57 126.09
  Q 441.23 125.91 440.86 126.16
  A 1.49 0.41 -39.7 0 1 440.01 126.54
  L 429.50 126.77
  Q 429.06 126.78 428.57 127.01
  Q 427.64 127.45 427.07 126.56
  Q 426.93 126.34 426.86 126.57
  C 426.12 129.03 426.92 123.14 426.04 125.75
  L 426.00 87.85
  A 0.85 0.85 -0.0 0 1 426.85 87.00
  L 442.06 87.00
  A 0.69 0.69 0.0 0 1 442.75 87.69
  L 442.71 135.75
  Z"
/>
<path fill="#0fbcda" d="
  M 464.21 139.00
  Q 463.87 135.07 463.39 138.07
  A 0.60 0.58 4.5 0 1 462.80 138.56
  L 447.04 138.50
  L 447.18 87.69
  A 0.53 0.51 -89.4 0 1 447.69 87.17
  L 463.69 87.05
  A 0.52 0.49 89.5 0 1 464.19 87.57
  L 464.21 139.00
  Z"
/>
<path fill="#ffffff" d="
  M 526.79 210.01
  Q 525.53 201.56 525.75 193.04
  Q 538.91 192.99 552.07 192.99
  C 565.06 193.00 574.87 192.80 579.71 180.51
  Q 581.28 176.53 581.48 168.40
  Q 582.16 140.74 581.50 124.75
  C 580.99 112.47 572.84 104.33 560.68 104.21
  Q 524.28 103.82 486.82 104.01
  A 0.82 0.82 -88.8 0 1 486.00 103.19
  L 486.00 87.85
  A 0.85 0.85 -0.0 0 1 486.85 87.00
  Q 518.71 87.00 550.85 87.00
  Q 565.99 87.00 568.61 87.45
  C 586.58 90.55 598.14 107.49 598.18 125.25
  Q 598.25 148.88 598.25 172.50
  C 598.25 189.96 585.91 206.44 568.47 209.53
  Q 565.85 210.00 548.50 210.00
  Q 537.77 210.00 526.79 210.01
  Z"
/>
<path fill="#0fbad9" d="
  M 226.21 135.50
  Q 225.75 133.23 225.29 135.19
  A 0.26 0.25 28.3 0 1 224.86 135.31
  Q 224.27 134.78 223.45 135.05
  Q 222.90 135.23 222.51 135.17
  Q 216.29 134.26 210.03 135.04
  C 210.00 133.02 210.47 127.66 209.61 126.09
  C 208.54 124.14 200.38 125.06 198.68 125.35
  A 0.84 0.83 -85.2 0 0 198.02 125.92
  Q 197.09 128.77 197.49 132.13
  Q 189.95 131.38 182.50 131.96
  A 0.65 0.55 77.6 0 1 181.91 131.51
  L 181.29 129.50
  C 179.41 105.20 192.06 108.00 209.75 108.00
  C 228.63 108.00 227.01 121.66 226.21 135.50
  Z"
/>
<path fill="#0fbcda" d="
  M 313.54 124.00
  Q 313.47 131.00 313.29 137.99
  Q 313.26 139.43 313.25 137.44
  A 1.81 1.73 29.8 0 0 312.97 136.49
  Q 312.25 135.35 311.34 136.14
  A 1.69 1.10 -58.7 0 1 310.49 136.55
  Q 304.27 137.10 298.04 136.50
  C 297.97 132.79 299.71 124.87 294.00 124.90
  Q 272.75 125.00 251.50 125.00
  A 0.50 0.50 0.0 0 1 251.00 124.50
  L 251.00 108.85
  A 0.85 0.85 0.0 0 1 251.85 108.00
  Q 270.47 108.00 289.32 108.00
  C 303.10 108.00 314.13 106.93 313.54 124.00
  Z"
/>
<path fill="#0fbcda" d="
  M 375.49 128.51
  Q 369.89 128.94 364.30 128.78
  Q 364.25 128.78 362.72 128.90
  Q 361.11 129.02 360.29 127.50
  C 360.06 119.20 364.80 110.76 372.99 108.58
  Q 375.19 108.00 385.57 108.00
  Q 402.59 108.00 420.47 108.00
  A 0.78 0.78 89.9 0 1 421.25 108.78
  L 421.25 124.34
  A 0.66 0.66 -0.2 0 1 420.59 125.00
  Q 399.75 125.00 379.25 125.00
  Q 375.58 125.00 375.49 128.51
  Z"
/>
<path fill="#ffffff" d="
  M 561.98 129.34
  C 562.38 126.23 560.48 125.00 557.54 125.00
  Q 522.38 125.00 486.56 125.00
  A 0.56 0.56 0.0 0 1 486.00 124.44
  L 486.00 108.56
  A 0.56 0.56 0.0 0 1 486.56 108.00
  Q 522.75 108.00 558.75 108.00
  C 580.13 108.00 577.73 132.00 577.08 146.32
  A 0.52 0.51 -88.8 0 1 576.57 146.82
  L 526.25 147.00
  A 0.54 0.52 -0.0 0 1 525.71 146.48
  L 525.73 130.54
  A 0.57 0.55 0.5 0 1 526.30 130.00
  L 561.23 130.00
  A 0.76 0.75 3.4 0 0 561.98 129.34
  Z"
/>
<path fill="#0eb5d6" d="
  M 72.07 132.13
  Q 62.12 132.63 52.24 132.03
  A 0.69 0.55 0.5 0 1 51.61 131.52
  L 51.50 129.96
  L 58.09 110.51
  A 2.84 2.68 -0.3 0 1 59.90 108.78
  Q 63.40 107.71 64.67 111.19
  Q 68.43 121.46 72.07 132.13
  Z"
/>
<path fill="#0eb5d6" d="
  M 120.24 135.60
  L 97.44 135.93
  A 0.69 0.48 -1.4 0 1 96.75 135.47
  L 96.71 134.75
  Q 100.49 124.10 104.29 113.46
  C 106.27 107.94 110.16 105.85 112.56 112.89
  Q 116.39 124.13 120.24 135.60
  Z"
/>
<path fill="#0eacd1" d="
  M 230.74 119.46
  L 231.18 127.56
  Q 231.23 128.64 231.57 127.80
  L 231.68 127.53
  A 0.56 0.44 -79.6 0 1 232.05 127.20
  C 234.49 126.85 241.63 126.17 245.24 127.48
  A 0.36 0.34 12.2 0 0 245.72 127.19
  Q 245.94 124.29 246.46 127.00
  L 246.46 139.50
  C 246.10 138.56 246.62 134.50 245.69 136.00
  A 0.43 0.39 35.0 0 1 245.09 136.08
  Q 244.61 135.72 243.97 135.85
  Q 243.34 135.98 243.00 135.93
  Q 237.31 135.21 231.74 136.39
  A 0.45 0.43 -8.7 0 1 231.20 136.01
  L 230.79 131.25
  L 230.74 119.46
  Z"
/>
<path fill="#0ea9cf" d="
  M 442.71 135.75
  L 442.71 142.50
  C 442.68 142.41 442.16 137.35 441.97 139.11
  Q 441.94 139.40 441.73 139.20
  Q 440.96 138.42 440.23 139.28
  A 1.11 0.88 -65.1 0 1 439.45 139.67
  Q 432.70 139.41 426.01 140.32
  L 426.04 125.75
  C 426.92 123.14 426.12 129.03 426.86 126.57
  Q 426.93 126.34 427.07 126.56
  Q 427.64 127.45 428.57 127.01
  Q 429.06 126.78 429.50 126.77
  L 440.01 126.54
  A 1.49 0.41 -39.7 0 0 440.86 126.16
  Q 441.23 125.91 441.57 126.09
  A 0.25 0.22 18.8 0 0 441.94 125.94
  L 442.10 124.06
  Q 442.17 123.26 442.20 124.06
  L 442.71 135.75
  Z"
/>
<path fill="#0c97c5" d="
  M 313.54 124.00
  L 313.71 141.50
  Q 313.56 144.69 313.16 143.01
  Q 313.10 142.76 313.05 143.02
  L 312.98 143.47
  A 0.71 0.57 3.2 0 1 312.31 143.95
  C 308.63 144.01 300.76 142.97 298.04 145.50
  L 298.04 136.50
  Q 304.27 137.10 310.49 136.55
  A 1.69 1.10 -58.7 0 0 311.34 136.14
  Q 312.25 135.35 312.97 136.49
  A 1.81 1.73 29.8 0 1 313.25 137.44
  Q 313.26 139.43 313.29 137.99
  Q 313.47 131.00 313.54 124.00
  Z"
/>
<path fill="#0eacd1" d="
  M 318.04 125.75
  L 319.24 127.32
  A 0.34 0.33 -44.1 0 0 319.76 127.32
  Q 320.20 126.79 321.06 126.78
  Q 327.40 126.68 333.78 127.22
  L 333.96 136.50
  C 333.17 131.92 333.68 138.11 333.11 136.24
  A 0.28 0.27 85.1 0 0 332.88 136.04
  C 330.48 135.69 321.73 135.12 319.25 136.44
  A 0.34 0.33 71.3 0 1 318.76 136.19
  L 318.29 133.25
  L 318.04 125.75
  Z"
/>
<path fill="#0d9dc8" d="
  M 137.57 126.79
  L 144.78 147.56
  Q 136.78 147.72 128.99 148.88
  L 121.54 127.75
  Q 123.60 126.48 127.00 127.25
  Q 130.14 127.96 137.57 126.79
  Z"
/>
<path fill="#0ea9cf" d="
  M 375.49 128.51
  Q 375.01 129.04 375.42 129.63
  A 1.10 0.74 -10.9 0 0 376.26 129.99
  L 411.54 130.25
  C 411.51 130.92 411.52 139.19 411.34 134.75
  Q 411.23 132.11 410.74 134.78
  A 0.88 0.87 -84.9 0 1 409.88 135.50
  L 361.69 135.56
  A 0.77 0.67 77.9 0 1 361.04 135.07
  L 360.29 133.25
  L 360.29 127.50
  Q 361.11 129.02 362.72 128.90
  Q 364.25 128.78 364.30 128.78
  Q 369.89 128.94 375.49 128.51
  Z"
/>
<path fill="#0ea9cf" d="
  M 266.71 137.75
  L 266.44 136.31
  Q 266.39 136.10 266.29 136.29
  Q 265.96 136.85 265.00 136.75
  Q 259.19 136.14 251.01 137.34
  L 251.00 129.40
  A 0.66 0.65 0.0 0 1 251.66 128.75
  L 266.23 128.75
  A 0.52 0.51 -0.0 0 1 266.75 129.26
  L 266.71 137.75
  Z"
/>
<path fill="#0da5cd" d="
  M 288.71 138.75
  Q 288.36 138.93 288.15 139.24
  A 0.37 0.36 37.2 0 1 287.62 139.30
  C 287.28 139.03 274.32 139.62 272.82 139.67
  A 1.33 0.95 -17.1 0 1 271.92 139.37
  Q 271.24 138.67 271.29 137.50
  L 271.26 129.67
  A 0.67 0.66 -0.4 0 1 271.93 129.00
  L 288.13 129.00
  A 0.61 0.60 0.5 0 1 288.74 129.61
  L 288.71 138.75
  Z"
/>
<path fill="#0da5cd" d="
  M 181.29 129.50
  L 181.91 131.51
  A 0.65 0.55 77.6 0 0 182.50 131.96
  Q 189.95 131.38 197.49 132.13
  L 197.46 139.10
  Q 190.76 138.51 184.07 138.94
  C 182.74 139.03 181.06 140.27 181.29 137.50
  L 181.29 129.50
  Z"
/>
<path fill="#0d9dc8" d="
  M 51.50 129.96
  L 51.61 131.52
  A 0.69 0.55 0.5 0 0 52.24 132.03
  Q 62.12 132.63 72.07 132.13
  L 75.81 142.66
  Q 61.37 143.89 46.96 143.00
  L 51.50 129.96
  Z"
/>
<path fill="#0d9dc8" d="
  M 411.54 130.25
  L 411.71 145.50
  C 411.35 144.43 411.86 138.61 410.94 141.95
  Q 410.83 142.37 410.75 141.95
  Q 410.46 140.53 409.40 141.20
  A 1.89 1.10 -48.6 0 1 408.50 141.50
  L 362.00 141.50
  A 0.81 0.76 76.4 0 1 361.30 141.04
  Q 360.36 139.09 360.29 142.25
  L 360.29 133.25
  L 361.04 135.07
  A 0.77 0.67 77.9 0 0 361.69 135.56
  L 409.88 135.50
  A 0.88 0.87 -84.9 0 0 410.74 134.78
  Q 411.23 132.11 411.34 134.75
  C 411.52 139.19 411.51 130.92 411.54 130.25
  Z"
/>
<path fill="#0d9dc8" d="
  M 30.71 131.00
  C 30.83 133.24 32.18 132.54 33.55 132.58
  Q 39.53 132.73 45.50 132.98
  A 0.48 0.41 -88.2 0 0 45.93 132.51
  Q 45.94 131.82 46.75 131.79
  L 42.75 143.04
  Q 41.92 144.30 40.87 144.03
  C 37.14 143.06 31.84 143.46 27.93 143.55
  A 1.02 0.73 -11.5 0 1 27.11 143.18
  L 26.71 142.50
  L 30.71 131.00
  Z"
/>
<path fill="#0c94c3" d="
  M 230.79 131.25
  L 231.20 136.01
  A 0.45 0.43 -8.7 0 0 231.74 136.39
  Q 237.31 135.21 243.00 135.93
  Q 243.34 135.98 243.97 135.85
  Q 244.61 135.72 245.09 136.08
  A 0.43 0.39 35.0 0 0 245.69 136.00
  C 246.62 134.50 246.10 138.56 246.46 139.50
  L 246.46 148.50
  Q 245.84 150.17 244.63 149.32
  A 1.72 1.17 54.0 0 0 243.74 149.00
  C 240.09 149.00 236.97 148.90 233.34 149.54
  Q 230.34 150.07 230.79 145.75
  L 230.79 131.25
  Z"
/>
<path fill="#0c97c5" d="
  M 318.29 133.25
  L 318.76 136.19
  A 0.34 0.33 71.3 0 0 319.25 136.44
  C 321.73 135.12 330.48 135.69 332.88 136.04
  A 0.28 0.27 85.1 0 1 333.11 136.24
  C 333.68 138.11 333.17 131.92 333.96 136.50
  L 333.96 147.00
  L 333.54 144.80
  Q 333.48 144.47 333.25 144.77
  C 332.60 145.59 320.90 145.28 319.06 145.31
  A 0.61 0.57 -84.6 0 0 318.49 145.81
  Q 318.27 147.11 318.04 144.25
  L 318.29 133.25
  Z"
/>
<path fill="#0c8fc0" d="
  M 226.21 135.50
  L 226.34 153.04
  Q 218.95 151.01 211.31 152.11
  A 0.66 0.53 -11.0 0 1 210.60 151.74
  L 210.04 149.50
  L 210.03 135.04
  Q 216.29 134.26 222.51 135.17
  Q 222.90 135.23 223.45 135.05
  Q 224.27 134.78 224.86 135.31
  A 0.26 0.25 28.3 0 0 225.29 135.19
  Q 225.75 133.23 226.21 135.50
  Z"
/>
<path fill="#0c94c3" d="
  M 96.71 134.75
  L 96.75 135.47
  A 0.69 0.48 -1.4 0 0 97.44 135.93
  L 120.24 135.60
  L 123.50 145.21
  Q 122.88 145.82 123.24 146.58
  A 0.32 0.29 75.6 0 1 123.00 147.03
  L 110.24 147.26
  Q 109.91 147.27 109.32 147.00
  Q 108.34 146.55 107.77 147.61
  A 0.65 0.43 -60.8 0 1 107.07 147.97
  L 106.53 147.66
  Q 105.91 147.31 105.69 147.30
  Q 99.72 147.21 93.75 147.25
  Q 92.52 147.26 92.71 145.75
  L 96.71 134.75
  Z"
/>
<path fill="#0b8abd" d="
  M 355.71 137.25
  L 355.71 153.00
  C 355.57 153.34 355.35 156.58 354.78 154.86
  A 0.44 0.42 80.3 0 0 354.38 154.56
  Q 346.65 154.58 338.97 155.65
  L 339.04 138.50
  Q 339.33 138.16 339.44 137.74
  A 0.64 0.56 -82.2 0 1 340.00 137.25
  C 344.11 137.25 351.18 138.06 354.79 136.50
  A 0.35 0.34 80.9 0 1 355.27 136.85
  Q 355.12 138.25 355.71 137.25
  Z"
/>
<path fill="#0c94c3" d="
  M 176.77 136.54
  L 176.74 147.02
  Q 168.83 146.91 161.04 148.00
  L 161.04 137.50
  C 161.39 135.81 162.46 136.47 163.53 136.39
  Q 170.11 135.90 176.77 136.54
  Z"
/>
<path fill="#0b8abd" d="
  M 266.71 137.75
  L 266.71 152.50
  Q 265.90 153.20 265.94 154.25
  A 0.47 0.43 89.3 0 1 265.50 154.74
  Q 258.99 154.63 252.51 155.32
  Q 251.26 155.45 251.04 156.75
  L 251.01 137.34
  Q 259.19 136.14 265.00 136.75
  Q 265.96 136.85 266.29 136.29
  Q 266.39 136.10 266.44 136.31
  L 266.71 137.75
  Z"
/>
<path fill="#0b8abd" d="
  M 464.21 139.00
  L 464.21 154.25
  Q 456.61 153.06 448.99 154.18
  A 1.37 1.04 -25.6 0 1 448.07 153.99
  Q 447.22 153.38 447.04 152.25
  L 447.04 138.50
  L 462.80 138.56
  A 0.60 0.58 4.5 0 0 463.39 138.07
  Q 463.87 135.07 464.21 139.00
  Z"
/>
<path fill="#0c94c3" d="
  M 91.21 138.25
  L 85.17 154.45
  Q 84.90 155.20 84.63 154.46
  L 78.54 138.00
  C 81.17 137.14 88.30 136.38 91.21 138.25
  Z"
/>
<path fill="#0b8abd" d="
  M 181.29 137.50
  C 181.06 140.27 182.74 139.03 184.07 138.94
  Q 190.76 138.51 197.46 139.10
  L 197.46 147.50
  Q 197.36 149.00 196.69 150.25
  A 0.90 0.83 12.2 0 1 195.93 150.70
  Q 188.54 150.84 181.24 149.81
  L 181.29 137.50
  Z"
/>
<path fill="#0a7eb6" d="
  M 271.29 137.50
  Q 271.24 138.67 271.92 139.37
  A 1.33 0.95 -17.1 0 0 272.82 139.67
  C 274.32 139.62 287.28 139.03 287.62 139.30
  A 0.37 0.36 37.2 0 0 288.15 139.24
  Q 288.36 138.93 288.71 138.75
  L 288.73 160.39
  L 272.57 160.67
  A 0.68 0.60 -6.3 0 1 271.91 160.21
  L 271.29 157.50
  L 271.29 137.50
  Z"
/>
<path fill="#0c8fc0" d="
  M 442.71 142.50
  L 442.71 148.50
  Q 442.61 144.52 441.94 147.24
  A 0.59 0.59 -85.9 0 1 441.42 147.69
  Q 434.38 148.35 427.31 147.85
  A 0.71 0.56 7.5 0 0 426.60 148.27
  L 426.04 150.50
  L 426.01 140.32
  Q 432.70 139.41 439.45 139.67
  A 1.11 0.88 -65.1 0 0 440.23 139.28
  Q 440.96 138.42 441.73 139.20
  Q 441.94 139.40 441.97 139.11
  C 442.16 137.35 442.68 142.41 442.71 142.50
  Z"
/>
<path fill="#0c8fc0" d="
  M 411.71 145.50
  Q 412.26 147.00 411.00 147.00
  Q 386.00 147.00 360.66 147.00
  A 0.49 0.49 -88.9 0 1 360.17 146.49
  L 360.29 142.25
  Q 360.36 139.09 361.30 141.04
  A 0.81 0.76 76.4 0 0 362.00 141.50
  L 408.50 141.50
  A 1.89 1.10 -48.6 0 0 409.40 141.20
  Q 410.46 140.53 410.75 141.95
  Q 410.83 142.37 410.94 141.95
  C 411.86 138.61 411.35 144.43 411.71 145.50
  Z"
/>
<path fill="#0b83b8" d="
  M 313.71 141.50
  L 313.71 152.75
  Q 313.26 150.52 313.00 152.03
  Q 312.95 152.31 312.86 152.03
  C 312.58 151.13 311.64 151.75 310.97 151.77
  Q 305.33 151.93 299.69 151.82
  A 1.40 1.01 17.3 0 0 298.79 152.12
  Q 298.23 152.66 298.04 153.50
  L 298.04 145.50
  C 300.76 142.97 308.63 144.01 312.31 143.95
  A 0.71 0.57 3.2 0 0 312.98 143.47
  L 313.05 143.02
  Q 313.10 142.76 313.16 143.01
  Q 313.56 144.69 313.71 141.50
  Z"
/>
<path fill="#0b83b8" d="
  M 75.81 142.66
  L 78.79 150.50
  C 73.37 151.79 68.05 150.84 63.04 151.75
  C 62.91 151.48 61.33 146.14 60.73 148.36
  Q 59.58 152.66 58.05 156.35
  L 42.71 155.50
  L 46.96 143.00
  Q 61.37 143.89 75.81 142.66
  Z"
/>
<path fill="#0a7eb6" d="
  M 26.71 142.50
  L 27.11 143.18
  A 1.02 0.73 -11.5 0 0 27.93 143.55
  C 31.84 143.46 37.14 143.06 40.87 144.03
  Q 41.92 144.30 42.75 143.04
  L 37.58 158.24
  L 22.82 158.46
  A 0.93 0.64 69.8 0 1 22.13 157.97
  Q 21.90 157.55 21.46 157.25
  L 26.71 142.50
  Z"
/>
<path fill="#0978b2" d="
  M 318.04 144.25
  Q 318.27 147.11 318.49 145.81
  A 0.61 0.57 -84.6 0 1 319.06 145.31
  C 320.90 145.28 332.60 145.59 333.25 144.77
  Q 333.48 144.47 333.54 144.80
  L 333.96 147.00
  L 333.96 159.00
  C 328.86 160.17 324.38 158.73 319.07 159.64
  A 0.24 0.23 82.4 0 1 318.80 159.42
  Q 318.69 157.54 318.29 159.75
  L 318.04 144.25
  Z"
/>
<path fill="#0a7eb6" d="
  M 123.50 145.21
  L 125.79 151.71
  Q 118.32 153.34 110.54 153.00
  L 109.05 148.56
  A 1.00 0.51 77.4 0 0 108.48 147.87
  C 107.93 147.79 106.61 152.11 106.28 152.89
  Q 104.68 153.15 103.07 153.00
  C 99.30 152.64 95.54 152.74 91.75 152.69
  Q 90.42 152.68 90.71 151.25
  L 92.71 145.75
  Q 92.52 147.26 93.75 147.25
  Q 99.72 147.21 105.69 147.30
  Q 105.91 147.31 106.53 147.66
  L 107.07 147.97
  A 0.65 0.43 -60.8 0 0 107.77 147.61
  Q 108.34 146.55 109.32 147.00
  Q 109.91 147.27 110.24 147.26
  L 123.00 147.03
  A 0.32 0.29 75.6 0 0 123.24 146.58
  Q 122.88 145.82 123.50 145.21
  Z"
/>
<path fill="#0970ad" d="
  M 230.79 145.75
  Q 230.34 150.07 233.34 149.54
  C 236.97 148.90 240.09 149.00 243.74 149.00
  A 1.72 1.17 54.0 0 1 244.63 149.32
  Q 245.84 150.17 246.46 148.50
  L 246.45 159.64
  Q 238.55 159.36 230.74 160.52
  L 230.79 145.75
  Z"
/>
<path fill="#0978b2" d="
  M 442.71 148.50
  L 442.71 155.50
  Q 441.91 153.49 442.01 155.91
  A 0.61 0.59 88.6 0 1 441.43 156.54
  L 426.04 156.75
  L 426.04 150.50
  L 426.60 148.27
  A 0.71 0.56 7.5 0 1 427.31 147.85
  Q 434.38 148.35 441.42 147.69
  A 0.59 0.59 -85.9 0 0 441.94 147.24
  Q 442.61 144.52 442.71 148.50
  Z"
/>
<path fill="#0978b2" d="
  M 176.74 147.02
  L 176.71 157.50
  Q 176.39 157.97 176.29 158.50
  A 0.56 0.51 -82.6 0 1 175.75 158.96
  C 172.70 158.72 163.56 157.77 161.04 160.00
  L 161.04 148.00
  Q 168.83 146.91 176.74 147.02
  Z"
/>
<path fill="#0a7eb6" d="
  M 144.78 147.56
  Q 145.46 148.42 145.79 150.25
  Q 145.81 152.24 143.50 152.25
  Q 136.87 152.27 130.25 152.29
  L 128.99 148.88
  Q 136.78 147.72 144.78 147.56
  Z"
/>
<path fill="#0970ad" d="
  M 197.46 147.50
  L 197.50 159.75
  Q 189.81 160.89 182.06 160.47
  A 0.61 0.52 87.7 0 1 181.57 159.94
  L 181.29 157.50
  L 181.24 149.81
  Q 188.54 150.84 195.93 150.70
  A 0.90 0.83 12.2 0 0 196.69 150.25
  Q 197.36 149.00 197.46 147.50
  Z"
/>
<path fill="#096cab" d="
  M 210.04 149.50
  L 210.60 151.74
  A 0.66 0.53 -11.0 0 0 211.31 152.11
  Q 218.95 151.01 226.34 153.04
  L 226.21 160.25
  Q 225.51 158.62 225.25 160.31
  A 0.53 0.51 -82.4 0 1 224.69 160.76
  Q 218.04 160.07 210.81 160.88
  A 0.40 0.40 -87.0 0 0 210.46 161.20
  Q 210.23 162.53 210.32 160.25
  Q 210.41 157.86 210.04 155.50
  L 210.04 149.50
  Z"
/>
<path fill="#0865a7" d="
  M 145.79 150.25
  L 151.52 166.35
  Q 143.36 167.67 135.25 166.83
  L 130.25 152.29
  Q 136.87 152.27 143.50 152.25
  Q 145.81 152.24 145.79 150.25
  Z"
/>
<path fill="#0970ad" d="
  M 78.79 150.50
  L 81.57 158.43
  Q 74.37 159.06 67.25 159.50
  Q 66.78 159.53 66.21 160.00
  L 63.04 151.75
  C 68.05 150.84 73.37 151.79 78.79 150.50
  Z"
/>
<path fill="#0970ad" d="
  M 411.71 156.50
  C 411.58 156.94 411.07 160.17 410.49 159.38
  A 0.97 0.75 67.0 0 0 409.81 159.00
  L 360.27 158.86
  L 360.08 151.74
  A 0.72 0.67 89.2 0 1 360.75 151.00
  L 410.95 151.06
  A 0.58 0.49 -0.5 0 1 411.53 151.54
  L 411.71 156.50
  Z"
/>
<path fill="#ffffff" d="
  M 530.47 188.99
  Q 530.09 176.09 530.56 173.31
  Q 530.81 171.83 529.00 172.04
  Q 543.37 171.97 557.74 172.00
  C 560.16 172.00 562.38 171.52 561.58 168.53
  A 0.68 0.62 -6.5 0 0 560.93 168.06
  L 526.17 168.00
  A 0.51 0.50 90.0 0 1 525.67 167.49
  L 525.58 151.56
  A 0.50 0.48 -90.0 0 1 526.06 151.06
  L 576.58 151.00
  A 0.66 0.66 89.6 0 1 577.24 151.65
  C 577.44 164.49 580.13 188.76 560.00 188.90
  Q 545.59 189.01 530.47 188.99
  Z"
/>
<path fill="#096cab" d="
  M 90.71 151.25
  Q 90.42 152.68 91.75 152.69
  C 95.54 152.74 99.30 152.64 103.07 153.00
  Q 104.68 153.15 106.28 152.89
  L 103.25 160.79
  Q 95.22 159.98 87.19 160.97
  L 90.71 151.25
  Z"
/>
<path fill="#096cab" d="
  M 125.79 151.71
  L 128.10 158.46
  Q 120.66 160.18 113.04 160.50
  L 110.54 153.00
  Q 118.32 153.34 125.79 151.71
  Z"
/>
<path fill="#096cab" d="
  M 313.71 152.75
  L 313.71 159.50
  Q 313.34 160.59 313.41 161.76
  C 313.55 164.04 313.43 159.96 311.50 160.88
  Q 310.33 161.44 308.34 161.44
  L 298.74 161.45
  A 0.55 0.44 90.0 0 0 298.30 162.00
  Q 298.30 162.54 298.04 163.00
  L 298.04 153.50
  Q 298.23 152.66 298.79 152.12
  A 1.40 1.01 17.3 0 1 299.69 151.82
  Q 305.33 151.93 310.97 151.77
  C 311.64 151.75 312.58 151.13 312.86 152.03
  Q 312.95 152.31 313.00 152.03
  Q 313.26 150.52 313.71 152.75
  Z"
/>
<path fill="#085fa4" d="
  M 447.04 152.25
  Q 447.22 153.38 448.07 153.99
  A 1.37 1.04 -25.6 0 0 448.99 154.18
  Q 456.61 153.06 464.21 154.25
  L 464.27 169.60
  Q 458.27 169.88 452.29 170.22
  C 450.54 170.32 449.95 170.57 448.09 169.82
  A 0.55 0.55 9.3 0 1 447.74 169.34
  Q 447.60 167.13 447.29 170.50
  L 447.04 152.25
  Z"
/>
<path fill="#075ba2" d="
  M 266.71 152.50
  L 266.71 170.50
  Q 266.69 172.67 264.75 172.25
  Q 262.07 171.67 253.50 172.45
  A 1.63 1.30 -26.5 0 1 252.56 172.25
  Q 251.65 171.67 251.04 170.75
  L 251.04 156.75
  Q 251.26 155.45 252.51 155.32
  Q 258.99 154.63 265.50 154.74
  A 0.47 0.43 89.3 0 0 265.94 154.25
  Q 265.90 153.20 266.71 152.50
  Z"
/>
<path fill="#0865a7" d="
  M 355.71 153.00
  L 355.71 156.50
  L 355.49 159.67
  A 0.55 0.49 -87.6 0 1 354.99 160.19
  L 339.99 159.81
  A 0.21 0.21 4.8 0 0 339.78 159.98
  Q 339.56 161.02 339.45 159.78
  Q 339.43 159.55 339.29 159.72
  L 339.04 160.00
  L 338.97 155.65
  Q 346.65 154.58 354.38 154.56
  A 0.44 0.42 80.3 0 1 354.78 154.86
  C 355.35 156.58 355.57 153.34 355.71 153.00
  Z"
/>
<path fill="#0758a0" d="
  M 442.71 155.50
  L 442.71 173.75
  Q 442.36 176.14 439.50 175.75
  Q 437.12 175.42 427.80 175.91
  A 1.28 0.53 47.0 0 1 427.01 175.55
  L 426.04 174.75
  L 426.04 156.75
  L 441.43 156.54
  A 0.61 0.59 88.6 0 0 442.01 155.91
  Q 441.91 153.49 442.71 155.50
  Z"
/>
<path fill="#0865a7" d="
  M 58.05 156.35
  L 56.71 160.75
  L 42.43 160.44
  A 0.64 0.52 -0.3 0 1 41.82 159.95
  L 41.71 158.25
  L 42.71 155.50
  L 58.05 156.35
  Z"
/>
<path fill="#07549d" d="
  M 210.04 155.50
  Q 210.41 157.86 210.32 160.25
  Q 210.23 162.53 210.46 161.20
  A 0.40 0.40 -87.0 0 1 210.81 160.88
  Q 218.04 160.07 224.69 160.76
  A 0.53 0.51 -82.4 0 0 225.25 160.31
  Q 225.51 158.62 226.21 160.25
  L 226.21 175.75
  L 183.29 175.81
  Q 181.45 175.81 181.41 173.84
  L 181.29 166.50
  L 181.29 157.50
  L 181.57 159.94
  A 0.61 0.52 87.7 0 0 182.06 160.47
  Q 189.81 160.89 197.50 159.75
  L 197.50 169.65
  Q 197.50 172.00 199.82 172.00
  L 207.71 171.96
  Q 210.00 171.95 210.00 169.60
  L 210.04 155.50
  Z"
/>
<path fill="#06519b" d="
  M 355.71 156.50
  C 355.81 166.25 354.63 173.65 357.50 180.71
  Q 356.50 181.16 357.02 181.66
  Q 357.34 181.95 356.95 182.01
  C 351.82 182.77 344.78 181.45 340.71 183.25
  C 338.39 175.77 338.94 167.74 339.04 160.00
  L 339.29 159.72
  Q 339.43 159.55 339.45 159.78
  Q 339.56 161.02 339.78 159.98
  A 0.21 0.21 4.8 0 1 339.99 159.81
  L 354.99 160.19
  A 0.55 0.49 -87.6 0 0 355.49 159.67
  L 355.71 156.50
  Z"
/>
<path fill="#075ba2" d="
  M 411.71 156.50
  L 411.75 167.34
  A 0.66 0.66 -0.2 0 1 411.09 168.00
  L 376.40 167.92
  Q 374.83 167.23 374.67 169.25
  A 0.67 0.62 1.4 0 1 374.02 169.83
  L 361.26 169.96
  A 0.55 0.51 90.0 0 0 360.75 170.51
  Q 360.75 172.14 360.29 170.75
  L 360.27 158.86
  L 409.81 159.00
  A 0.97 0.75 67.0 0 1 410.49 159.38
  C 411.07 160.17 411.58 156.94 411.71 156.50
  Z"
/>
<path fill="#07549d" d="
  M 21.46 157.25
  Q 21.90 157.55 22.13 157.97
  A 0.93 0.64 69.8 0 0 22.82 158.46
  L 37.58 158.24
  L 30.20 179.25
  Q 21.96 180.40 13.87 178.57
  L 21.46 157.25
  Z"
/>
<path fill="#07549d" d="
  M 176.71 157.50
  L 176.71 172.50
  L 176.50 180.25
  Q 176.46 181.84 175.81 180.44
  Q 175.42 179.59 174.69 180.19
  Q 168.81 180.43 162.94 180.09
  A 0.98 0.69 11.8 0 0 162.11 180.45
  L 161.54 181.50
  Q 160.66 170.77 161.04 160.00
  C 163.56 157.77 172.70 158.72 175.75 158.96
  A 0.56 0.51 -82.6 0 0 176.29 158.50
  Q 176.39 157.97 176.71 157.50
  Z"
/>
<path fill="#06519b" d="
  M 271.29 157.50
  L 271.91 160.21
  A 0.68 0.60 -6.3 0 0 272.57 160.67
  L 288.73 160.39
  L 288.75 169.50
  Q 288.75 172.00 291.24 172.00
  L 295.03 172.00
  Q 297.71 172.00 297.80 169.53
  L 298.04 163.00
  Q 298.30 162.54 298.30 162.00
  A 0.55 0.44 -90.0 0 1 298.74 161.45
  L 308.34 161.44
  Q 310.33 161.44 311.50 160.88
  C 313.43 159.96 313.55 164.04 313.41 161.76
  Q 313.34 160.59 313.71 159.50
  Q 314.05 169.39 313.21 179.25
  Q 312.49 178.94 312.35 179.57
  A 0.49 0.40 -75.6 0 1 311.83 179.95
  C 311.30 179.79 310.92 179.50 310.36 179.50
  Q 292.90 179.45 275.45 179.50
  C 273.96 179.50 272.64 180.53 271.29 178.75
  L 271.29 157.50
  Z"
/>
<path fill="#07549d" d="
  M 41.71 158.25
  L 41.82 159.95
  A 0.64 0.52 -0.3 0 0 42.43 160.44
  L 56.71 160.75
  L 52.96 172.25
  Q 51.82 172.33 52.00 173.50
  A 2.19 1.18 82.8 0 1 51.06 175.94
  Q 43.51 176.16 35.93 175.12
  L 41.71 158.25
  Z"
/>
<path fill="#06519b" d="
  M 81.57 158.43
  L 84.44 166.32
  Q 84.83 167.40 85.22 166.34
  L 87.19 160.97
  Q 95.22 159.98 103.25 160.79
  L 95.07 182.80
  Q 87.00 183.64 81.25 183.25
  Q 77.72 183.01 75.25 184.04
  L 66.21 160.00
  Q 66.78 159.53 67.25 159.50
  Q 74.37 159.06 81.57 158.43
  Z"
/>
<path fill="#064c98" d="
  M 128.10 158.46
  L 138.81 189.54
  L 123.15 190.15
  L 113.04 160.50
  Q 120.66 160.18 128.10 158.46
  Z"
/>
<path fill="#0758a0" d="
  M 333.96 159.00
  L 333.71 172.50
  C 333.69 175.22 332.54 174.23 331.11 174.27
  Q 324.59 174.46 318.01 174.69
  L 318.29 159.75
  Q 318.69 157.54 318.80 159.42
  A 0.24 0.23 82.4 0 0 319.07 159.64
  C 324.38 158.73 328.86 160.17 333.96 159.00
  Z"
/>
<path fill="#06519b" d="
  M 246.45 159.64
  Q 246.87 170.39 245.91 181.54
  Q 238.01 182.14 234.75 181.75
  Q 231.30 181.34 229.74 183.04
  Q 231.38 171.83 230.74 160.52
  Q 238.55 159.36 246.45 159.64
  Z"
/>
<path fill="#054594" d="
  M 151.52 166.35
  L 159.54 189.00
  L 157.65 190.46
  A 1.53 1.30 22.3 0 1 156.76 190.75
  L 146.93 190.75
  A 0.41 0.40 20.9 0 0 146.63 190.88
  L 146.50 191.00
  A 0.71 0.62 24.9 0 1 145.91 191.17
  Q 144.51 190.91 144.25 192.29
  L 135.25 166.83
  Q 143.36 167.67 151.52 166.35
  Z"
/>
<path fill="#054393" d="
  M 181.29 166.50
  L 181.41 173.84
  Q 181.45 175.81 183.29 175.81
  L 226.21 175.75
  C 225.94 192.61 211.34 188.93 197.75 189.00
  C 189.72 189.04 182.04 188.41 181.50 178.25
  Q 181.12 171.07 181.29 166.50
  Z"
/>
<path fill="#054594" d="
  M 376.40 167.92
  Q 374.27 170.72 377.02 171.67
  Q 377.98 172.00 380.02 172.00
  Q 399.80 172.00 420.48 172.00
  A 0.72 0.70 -0.0 0 1 421.20 172.70
  L 421.08 188.31
  A 0.54 0.51 -0.6 0 1 420.55 188.82
  Q 399.15 189.28 377.76 188.83
  C 367.09 188.61 360.66 181.53 360.29 170.75
  Q 360.75 172.14 360.75 170.51
  A 0.55 0.51 -90.0 0 1 361.26 169.96
  L 374.02 169.83
  A 0.67 0.62 1.4 0 0 374.67 169.25
  Q 374.83 167.23 376.40 167.92
  Z"
/>
<path fill="#064c98" d="
  M 464.27 169.60
  Q 465.10 172.00 467.00 172.00
  Q 479.00 171.97 491.00 172.04
  C 490.99 174.18 491.87 177.14 490.97 179.06
  A 1.30 1.18 -43.9 0 0 490.91 179.97
  Q 492.35 184.38 491.74 188.99
  L 490.50 188.96
  Q 491.97 187.25 491.36 185.40
  C 490.35 182.34 489.04 179.30 485.17 179.32
  Q 467.47 179.41 449.71 179.82
  Q 447.28 175.78 447.29 170.50
  Q 447.60 167.13 447.74 169.34
  A 0.55 0.55 9.3 0 0 448.09 169.82
  C 449.95 170.57 450.54 170.32 452.29 170.22
  Q 458.27 169.88 464.27 169.60
  Z"
/>
<path fill="#054393" d="
  M 266.71 170.50
  L 266.71 188.75
  Q 266.67 190.82 265.00 190.81
  C 261.68 190.77 253.43 189.78 251.04 192.25
  L 251.04 170.75
  Q 251.65 171.67 252.56 172.25
  A 1.63 1.30 -26.5 0 0 253.50 172.45
  Q 262.07 171.67 264.75 172.25
  Q 266.69 172.67 266.71 170.50
  Z"
/>
<path fill="#225aa0" d="
  M 491.00 172.04
  L 500.75 172.04
  Q 498.60 172.04 499.18 174.27
  Q 501.05 181.49 500.50 188.96
  L 491.74 188.99
  Q 492.35 184.38 490.91 179.97
  A 1.30 1.18 -43.9 0 1 490.97 179.06
  C 491.87 177.14 490.99 174.18 491.00 172.04
  Z"
/>
<path fill="#4f7bb3" d="
  M 500.75 172.04
  L 506.75 172.04
  Q 508.15 180.46 507.60 189.00
  L 500.50 188.96
  Q 501.05 181.49 499.18 174.27
  Q 498.60 172.04 500.75 172.04
  Z"
/>
<path fill="#83a2c9" d="
  M 506.75 172.04
  L 515.83 172.08
  Q 515.23 173.94 515.62 175.83
  C 516.40 179.57 516.52 183.42 516.11 187.22
  Q 515.90 189.24 518.25 188.96
  L 507.60 189.00
  Q 508.15 180.46 506.75 172.04
  Z"
/>
<path fill="#acbfd9" d="
  M 515.83 172.08
  L 518.75 172.04
  Q 520.51 179.56 519.56 184.81
  Q 518.71 189.53 523.00 188.96
  L 518.25 188.96
  Q 515.90 189.24 516.11 187.22
  C 516.52 183.42 516.40 179.57 515.62 175.83
  Q 515.23 173.94 515.83 172.08
  Z"
/>
<path fill="#c2cfe2" d="
  M 518.75 172.04
  L 522.75 172.04
  L 523.32 187.94
  A 0.63 0.56 -87.4 0 0 523.80 188.53
  L 527.00 188.96
  L 523.00 188.96
  Q 518.71 189.53 519.56 184.81
  Q 520.51 179.56 518.75 172.04
  Z"
/>
<path fill="#e0e6f0" d="
  M 522.75 172.04
  L 529.00 172.04
  Q 530.81 171.83 530.56 173.31
  Q 530.09 176.09 530.47 188.99
  L 527.00 188.96
  L 523.80 188.53
  A 0.63 0.56 -87.4 0 1 523.32 187.94
  L 522.75 172.04
  Z"
/>
<path fill="#053a8e" d="
  M 52.96 172.25
  L 43.59 200.60
  Q 36.21 199.63 28.82 199.92
  A 0.62 0.47 80.7 0 1 28.32 199.44
  Q 28.23 199.05 27.75 198.96
  L 35.93 175.12
  Q 43.51 176.16 51.06 175.94
  A 2.19 1.18 82.8 0 0 52.00 173.50
  Q 51.82 172.33 52.96 172.25
  Z"
/>
<path fill="#04338a" d="
  M 176.71 172.50
  C 176.37 180.64 178.22 188.44 186.25 191.75
  C 189.76 193.20 195.14 192.97 199.41 193.03
  C 212.50 193.22 224.65 195.05 229.74 183.04
  Q 231.30 181.34 234.75 181.75
  Q 238.01 182.14 245.91 181.54
  Q 245.18 193.97 237.14 201.82
  Q 203.36 200.09 169.75 201.29
  Q 162.38 192.84 161.54 181.50
  L 162.11 180.45
  A 0.98 0.69 11.8 0 1 162.94 180.09
  Q 168.81 180.43 174.69 180.19
  Q 175.42 179.59 175.81 180.44
  Q 176.46 181.84 176.50 180.25
  L 176.71 172.50
  Z"
/>
<path fill="#04338a" d="
  M 333.71 172.50
  C 334.11 181.73 332.48 192.80 326.25 200.29
  C 323.32 199.94 317.45 200.54 315.91 199.78
  Q 315.35 199.50 314.99 199.50
  Q 284.75 199.50 254.50 199.50
  Q 252.03 199.50 250.99 201.21
  L 251.04 192.25
  C 253.43 189.78 261.68 190.77 265.00 190.81
  Q 266.67 190.82 266.71 188.75
  L 266.76 192.13
  A 0.88 0.86 89.7 0 0 267.62 193.00
  Q 284.13 193.00 300.00 193.06
  Q 318.24 193.13 318.01 174.69
  Q 324.59 174.46 331.11 174.27
  C 332.54 174.23 333.69 175.22 333.71 172.50
  Z"
/>
<path fill="#04338a" d="
  M 442.71 173.75
  Q 444.69 187.45 455.65 191.44
  Q 459.90 192.99 471.53 192.99
  Q 481.76 192.99 492.00 193.04
  Q 491.26 196.26 491.93 199.51
  Q 492.99 204.69 493.35 209.99
  L 490.50 209.96
  C 490.95 203.48 488.98 201.06 482.56 200.99
  Q 460.66 200.76 438.68 201.03
  Q 427.38 190.38 426.04 174.75
  L 427.01 175.55
  A 1.28 0.53 47.0 0 0 427.80 175.91
  Q 437.12 175.42 439.50 175.75
  Q 442.36 176.14 442.71 173.75
  Z"
/>
<path fill="#04338a" d="
  M 13.87 178.57
  Q 21.96 180.40 30.20 179.25
  L 19.68 209.15
  A 1.27 1.27 -80.3 0 1 18.48 210.00
  L 3.35 210.00
  A 0.49 0.49 -80.0 0 1 2.89 209.34
  L 13.87 178.57
  Z"
/>
<path fill="#054091" d="
  M 271.29 178.75
  C 272.64 180.53 273.96 179.50 275.45 179.50
  Q 292.90 179.45 310.36 179.50
  C 310.92 179.50 311.30 179.79 311.83 179.95
  A 0.49 0.40 -75.6 0 0 312.35 179.57
  Q 312.49 178.94 313.21 179.25
  C 312.41 187.22 306.04 188.79 299.25 188.79
  Q 285.53 188.80 271.80 188.69
  A 0.51 0.50 90.0 0 1 271.30 188.18
  L 271.29 178.75
  Z"
/>
<path fill="#054091" d="
  M 490.50 188.96
  Q 481.53 189.01 472.55 189.01
  C 461.40 189.01 454.82 189.49 449.71 179.82
  Q 467.47 179.41 485.17 179.32
  C 489.04 179.30 490.35 182.34 491.36 185.40
  Q 491.97 187.25 490.50 188.96
  Z"
/>
<path fill="#053a8e" d="
  M 357.50 180.71
  Q 359.98 185.97 364.80 189.88
  Q 355.96 191.80 346.94 190.94
  Q 345.75 190.82 344.29 191.75
  Q 341.93 187.74 340.71 183.25
  C 344.78 181.45 351.82 182.77 356.95 182.01
  Q 357.34 181.95 357.02 181.66
  Q 356.50 181.16 357.50 180.71
  Z"
/>
<path fill="#04368b" d="
  M 95.07 182.80
  L 85.17 209.18
  Q 84.90 209.90 84.63 209.18
  L 75.25 184.04
  Q 77.72 183.01 81.25 183.25
  Q 87.00 183.64 95.07 182.80
  Z"
/>
<path fill="#032b85" d="
  M 159.54 189.00
  L 166.80 209.05
  A 0.71 0.71 -9.8 0 1 166.13 210.00
  L 150.88 210.00
  A 0.72 0.70 -9.0 0 1 150.20 209.52
  L 144.25 192.29
  Q 144.51 190.91 145.91 191.17
  A 0.71 0.62 24.9 0 0 146.50 191.00
  L 146.63 190.88
  A 0.41 0.40 20.9 0 1 146.93 190.75
  L 156.76 190.75
  A 1.53 1.30 22.3 0 0 157.65 190.46
  L 159.54 189.00
  Z"
/>
<path fill="#032b85" d="
  M 138.81 189.54
  L 145.50 209.03
  A 0.69 0.69 -9.9 0 1 144.85 209.95
  L 130.80 210.00
  A 1.34 1.33 80.5 0 1 129.54 209.09
  L 123.15 190.15
  L 138.81 189.54
  Z"
/>
<path fill="#042f87" d="
  M 364.80 189.88
  Q 370.44 193.00 379.25 193.00
  Q 399.75 193.00 420.56 193.00
  A 0.69 0.68 0.0 0 1 421.25 193.68
  L 421.21 208.00
  L 421.00 201.51
  A 0.60 0.55 88.9 0 0 420.45 200.93
  Q 401.72 201.05 383.25 201.00
  C 380.76 200.99 378.45 200.47 376.24 200.66
  Q 363.48 201.75 350.71 200.21
  Q 346.81 196.36 344.29 191.75
  Q 345.75 190.82 346.94 190.94
  Q 355.96 191.80 364.80 189.88
  Z"
/>
<path fill="#254896" d="
  M 492.00 193.04
  L 501.32 193.00
  Q 500.93 201.55 502.25 209.96
  L 493.35 209.99
  Q 492.99 204.69 491.93 199.51
  Q 491.26 196.26 492.00 193.04
  Z"
/>
<path fill="#4966a7" d="
  M 501.32 193.00
  L 504.27 192.98
  L 504.00 209.96
  L 502.25 209.96
  Q 500.93 201.55 501.32 193.00
  Z"
/>
<path fill="#7188bb" d="
  M 504.27 192.98
  L 513.75 193.04
  L 514.50 209.96
  L 504.00 209.96
  L 504.27 192.98
  Z"
/>
<path fill="#a6b7d6" d="
  M 513.75 193.04
  L 519.75 193.04
  L 520.56 210.03
  L 514.50 209.96
  L 513.75 193.04
  Z"
/>
<path fill="#cdd7e8" d="
  M 519.75 193.04
  L 525.75 193.04
  Q 525.53 201.56 526.79 210.01
  L 520.56 210.03
  L 519.75 193.04
  Z"
/>
<path fill="#032582" d="
  M 27.75 198.96
  Q 28.23 199.05 28.32 199.44
  A 0.62 0.47 80.7 0 0 28.82 199.92
  Q 36.21 199.63 43.59 200.60
  L 40.85 209.20
  A 1.17 1.16 8.9 0 1 39.74 210.00
  L 24.73 210.00
  A 0.65 0.63 9.5 0 1 24.11 209.16
  L 27.75 198.96
  Z"
/>
<path fill="#032582" d="
  M 326.25 200.29
  C 319.76 208.07 309.36 210.02 299.75 210.02
  Q 276.00 210.00 251.68 210.00
  A 0.69 0.68 90.0 0 1 251.00 209.31
  L 250.99 201.21
  Q 252.03 199.50 254.50 199.50
  Q 284.75 199.50 314.99 199.50
  Q 315.35 199.50 315.91 199.78
  C 317.45 200.54 323.32 199.94 326.25 200.29
  Z"
/>
<path fill="#032582" d="
  M 350.71 200.21
  Q 363.48 201.75 376.24 200.66
  C 378.45 200.47 380.76 200.99 383.25 201.00
  Q 401.72 201.05 420.45 200.93
  A 0.60 0.55 88.9 0 1 421.00 201.51
  L 421.21 208.00
  Q 421.53 208.95 421.08 209.63
  A 1.08 0.79 12.1 0 1 420.25 210.00
  Q 397.75 210.00 375.25 210.01
  Q 360.84 210.01 350.71 200.21
  Z"
/>
<path fill="#032582" d="
  M 490.50 209.96
  Q 478.78 210.01 467.05 210.01
  C 454.83 210.00 447.14 208.75 438.68 201.03
  Q 460.66 200.76 482.56 200.99
  C 488.98 201.06 490.95 203.48 490.50 209.96
  Z"
/>
<path fill="#032582" d="
  M 237.14 201.82
  Q 228.87 209.50 217.25 209.75
  C 201.26 210.10 180.75 212.86 169.75 201.29
  Q 203.36 200.09 237.14 201.82
  Z"
/>
</svg>
