<?xml version="1.0" encoding="UTF-8" standalone="no"?>
<!DOCTYPE svg PUBLIC "-//W3C//DTD SVG 1.1//EN" "http://www.w3.org/Graphics/SVG/1.1/DTD/svg11.dtd">
<svg xmlns="http://www.w3.org/2000/svg" version="1.1" viewBox="0 0 600 73">
<path stroke="#1c1918" stroke-width="2.00" fill="none" stroke-linecap="butt" vector-effect="non-scaling-stroke" d="
  M 22.25 17.46
  Q 19.36 18.36 17.50 20.79"
/>
<path fill="#cf181f" d="
  M 369.56 0.00
  L 374.81 0.00
  L 380.25 0.21
  C 389.99 0.39 406.34 2.45 413.71 9.14
  C 426.36 20.63 408.78 31.36 398.76 32.58
  Q 397.73 32.70 397.92 33.12
  A 1.07 0.57 -0.6 0 0 398.75 33.55
  C 407.00 34.38 416.87 38.86 419.94 47.06
  C 427.07 66.13 393.68 72.43 382.44 73.00
  L 363.69 73.00
  Q 350.55 72.31 337.71 70.21
  A 0.86 0.85 -82.0 0 1 337.00 69.26
  Q 337.58 64.38 336.97 59.26
  A 1.07 1.07 -84.7 0 1 338.35 58.11
  C 350.24 61.76 388.54 68.75 395.37 53.96
  C 402.60 38.29 358.90 39.38 352.24 39.49
  A 0.55 0.54 85.9 0 1 351.69 39.01
  Q 351.18 34.51 351.69 30.00
  A 0.55 0.54 -85.4 0 1 352.25 29.52
  C 361.06 29.77 387.65 30.45 392.24 21.32
  C 395.59 14.66 383.93 10.74 379.75 10.25
  Q 359.54 7.88 339.99 13.50
  A 0.93 0.92 -8.4 0 1 338.80 12.63
  L 338.75 3.36
  A 1.14 1.10 -4.1 0 1 339.74 2.25
  Q 354.60 0.39 369.56 0.00
  Z"
/>
<path fill="#231f20" d="
  M 559.69 73.00
  L 553.44 73.00
  L 548.25 72.79
  Q 538.18 72.46 528.31 70.76
  A 0.68 0.68 -84.9 0 1 527.75 70.09
  L 527.75 59.25
  A 0.47 0.47 -81.4 0 1 528.36 58.80
  C 536.91 61.41 573.66 69.32 575.72 55.19
  C 577.86 40.50 524.26 40.64 528.25 16.75
  C 531.66 -3.68 577.62 -0.23 591.20 2.46
  A 0.69 0.61 5.9 0 1 591.75 3.06
  L 591.91 12.97
  A 0.89 0.85 7.7 0 1 590.78 13.79
  C 581.59 11.23 556.97 5.98 550.51 14.73
  Q 547.94 18.20 552.15 22.04
  Q 554.00 23.72 556.30 24.68
  C 567.93 29.52 581.23 32.79 591.60 39.92
  Q 595.75 42.77 597.66 46.26
  C 604.67 59.09 592.47 67.61 581.25 70.50
  Q 572.34 72.79 559.69 73.00
  Z"
/>
<path fill="#151210" d="
  M 22.25 17.46
  Q 19.36 18.36 17.50 20.79
  L 6.73 10.22
  Q 5.54 9.05 5.59 10.70
  C 5.80 17.77 5.34 25.26 5.88 32.62
  C 6.09 35.55 1.57 35.37 0.00 34.19
  L 0.00 0.94
  C 2.33 -0.02 4.20 0.10 6.12 1.95
  Q 14.20 9.69 22.25 17.46
  Z"
/>
<path fill="#231f20" d="
  M 17.50 20.79
  Q 19.36 18.36 22.25 17.46
  L 29.54 24.76
  Q 30.57 25.78 30.57 24.34
  L 30.67 1.19
  A 0.58 0.51 -89.4 0 1 31.18 0.62
  L 35.86 0.58
  A 0.95 0.88 89.7 0 1 36.75 1.53
  Q 36.75 17.50 36.75 32.50
  Q 36.75 35.27 34.47 34.65
  A 1.73 1.68 -45.9 0 0 33.53 34.68
  C 31.44 35.35 23.48 26.68 17.50 20.79
  Z"
/>
<rect fill="#231f20" x="46.50" y="0.49" width="6.50" height="34.24" rx="0.75"/>
<path fill="#231f20" d="
  M 92.53 31.76
  Q 81.26 21.27 70.50 10.25
  Q 69.33 9.05 69.31 10.74
  L 69.07 34.07
  A 0.57 0.49 -89.5 0 1 68.57 34.64
  L 63.39 34.55
  A 0.75 0.65 -89.6 0 1 62.75 33.80
  L 62.75 1.27
  A 0.75 0.73 -89.6 0 1 63.49 0.52
  L 67.94 0.54
  A 1.32 1.11 63.6 0 1 68.79 0.91
  L 93.76 25.10
  Q 94.45 25.77 94.44 24.80
  L 94.19 1.24
  A 0.71 0.70 90.0 0 1 94.90 0.52
  L 99.69 0.54
  A 0.52 0.50 90.0 0 1 100.19 1.06
  L 100.25 33.62
  A 0.90 0.89 -6.0 0 1 99.54 34.49
  C 95.37 35.34 95.55 34.57 92.53 31.76
  Z"
/>
<path fill="#231f20" d="
  M 121.93 6.55
  L 108.19 6.50
  A 0.94 0.92 -0.0 0 1 107.25 5.58
  L 107.25 1.16
  A 0.66 0.66 86.6 0 1 107.91 0.50
  L 144.09 0.50
  A 0.65 0.63 -0.0 0 1 144.74 1.13
  L 144.70 5.39
  A 1.10 1.08 0.3 0 1 143.59 6.47
  L 130.22 6.33
  A 0.96 0.93 0.3 0 0 129.25 7.26
  L 129.25 34.09
  A 0.66 0.66 0.0 0 1 128.59 34.75
  L 123.91 34.75
  A 1.42 1.41 -90.0 0 1 122.50 33.33
  L 122.44 7.07
  A 0.52 0.51 -90.0 0 0 121.93 6.55
  Z"
/>
<path fill="#231f20" d="
  M 183.83 34.83
  L 152.19 34.94
  A 0.69 0.68 -0.0 0 1 151.50 34.26
  L 151.50 1.66
  A 0.93 0.92 -0.3 0 1 152.42 0.74
  L 184.44 0.57
  A 0.52 0.49 -0.0 0 1 184.96 1.06
  L 184.98 5.67
  A 0.85 0.83 0.0 0 1 184.13 6.50
  L 158.78 6.50
  A 0.78 0.78 0.0 0 0 158.00 7.28
  L 158.00 13.37
  A 0.86 0.84 89.7 0 0 158.85 14.23
  L 178.34 14.06
  A 0.71 0.66 88.6 0 1 179.00 14.74
  L 179.19 18.88
  A 1.08 0.99 88.3 0 1 178.22 20.01
  L 158.68 20.17
  A 0.54 0.52 0.5 0 0 158.14 20.68
  L 158.04 28.06
  A 0.99 0.93 0.3 0 0 159.03 29.00
  L 184.18 29.06
  A 0.64 0.49 -0.0 0 1 184.82 29.55
  L 184.80 33.99
  A 0.98 0.84 -0.3 0 1 183.83 34.83
  Z"
/>
<path fill="#231f20" d="
  M 223.45 31.35
  C 216.21 24.34 208.62 17.37 201.70 10.07
  Q 200.75 9.07 200.74 10.45
  L 200.58 34.06
  A 0.58 0.53 -90.0 0 1 200.06 34.63
  L 195.28 34.69
  A 0.84 0.77 89.7 0 1 194.50 33.85
  L 194.50 1.03
  A 0.52 0.51 -90.0 0 1 195.01 0.51
  L 199.45 0.54
  A 1.29 1.12 64.4 0 1 200.29 0.90
  L 224.76 24.76
  Q 225.75 25.73 225.75 24.35
  L 225.75 1.24
  A 0.58 0.50 89.5 0 1 226.24 0.66
  L 231.10 0.60
  A 0.70 0.64 89.6 0 1 231.75 1.30
  L 231.69 33.93
  A 0.68 0.65 82.8 0 1 231.21 34.58
  C 227.07 35.69 225.98 33.79 223.45 31.35
  Z"
/>
<path fill="#231f20" d="
  M 267.50 0.50
  C 285.05 0.50 287.06 34.04 266.35 34.59
  Q 254.83 34.90 242.62 34.74
  A 0.88 0.88 0.3 0 1 241.75 33.86
  L 241.75 1.06
  A 0.56 0.56 4.1 0 1 242.31 0.50
  Q 255.00 0.50 267.50 0.50
  Z
  M 248.33 6.43
  A 0.57 0.57 0.5 0 0 247.75 7.00
  L 247.81 28.20
  A 0.51 0.50 0.6 0 0 248.31 28.70
  C 253.26 28.83 267.78 29.99 271.48 27.20
  C 277.31 22.81 277.21 6.58 267.50 6.56
  Q 258.28 6.55 248.33 6.43
  Z"
/>
<path fill="#231f20" d="
  M 329.4730 27.2466
  A 7.31 7.31 0.0 0 1 322.1503 34.5439
  L 294.7703 34.4961
  A 7.31 7.31 0.0 0 1 287.4731 27.1733
  L 287.5070 7.7734
  A 7.31 7.31 0.0 0 1 294.8297 0.4761
  L 322.2097 0.5239
  A 7.31 7.31 0.0 0 1 329.5069 7.8467
  L 329.4730 27.2466
  Z
  M 323.4832 8.0938
  A 1.63 1.63 0.0 0 0 321.8503 6.4667
  L 295.1104 6.5134
  A 1.63 1.63 0.0 0 0 293.4832 8.1462
  L 293.5168 27.3862
  A 1.63 1.63 0.0 0 0 295.1497 29.0133
  L 321.8896 28.9666
  A 1.63 1.63 0.0 0 0 323.5168 27.3338
  L 323.4832 8.0938
  Z"
/>
<path fill="#231f20" d="
  M 473.50 0.46
  C 487.57 1.08 500.68 2.53 512.35 11.18
  C 527.73 22.57 530.38 44.30 516.95 58.45
  C 505.74 70.26 487.58 73.07 471.69 73.00
  L 428.50 73.00
  L 428.25 1.16
  A 0.67 0.66 -0.0 0 1 428.92 0.50
  L 473.50 0.46
  Z
  M 500.30 33.39
  C 498.72 16.80 482.43 10.22 467.50 10.21
  Q 459.78 10.20 452.43 10.31
  A 0.69 0.69 -0.4 0 0 451.75 11.00
  L 451.75 62.37
  A 0.56 0.56 -1.0 0 0 452.33 62.93
  Q 459.78 62.61 467.50 62.70
  C 485.41 62.90 502.26 54.04 500.30 33.39
  Z"
/>
<path fill="#a09d9e" d="
  M 329.4964 64.9134
  A 7.56 7.56 0.0 0 1 321.9496 72.4865
  L 295.0897 72.5334
  A 7.56 7.56 0.0 0 1 287.5165 64.9866
  L 287.4836 46.1266
  A 7.56 7.56 0.0 0 1 295.0304 38.5535
  L 321.8903 38.5066
  A 7.56 7.56 0.0 0 1 329.4635 46.0534
  L 329.4964 64.9134
  Z
  M 323.4831 46.0438
  A 1.57 1.57 0.0 0 0 321.9103 44.4766
  L 295.0504 44.5235
  A 1.57 1.57 0.0 0 0 293.4831 46.0962
  L 293.5169 65.4562
  A 1.57 1.57 0.0 0 0 295.0897 67.0234
  L 321.9496 66.9765
  A 1.57 1.57 0.0 0 0 323.5169 65.4038
  L 323.4831 46.0438
  Z"
/>
</svg>
