<?xml version="1.0" encoding="UTF-8" standalone="no"?>
<!DOCTYPE svg PUBLIC "-//W3C//DTD SVG 1.1//EN" "http://www.w3.org/Graphics/SVG/1.1/DTD/svg11.dtd">
<svg xmlns="http://www.w3.org/2000/svg" version="1.1" viewBox="0 0 600 300">
<path fill="#000000" d="
  M 179.69 99.94
  L 179.75 60.95
  A 0.52 0.51 0.0 0 0 179.23 60.44
  L 2.90 60.50
  A 0.89 0.88 0.3 0 1 2.01 59.61
  L 2.05 53.70
  A 0.72 0.70 0.0 0 1 2.77 53.00
  L 186.38 53.00
  A 0.81 0.80 -0.0 0 1 187.19 53.80
  L 187.19 107.05
  A 0.95 0.95 -89.5 0 1 186.24 108.00
  L 10.19 108.00
  A 0.89 0.89 89.4 0 0 9.30 108.91
  Q 9.82 132.21 9.26 154.75
  A 0.58 0.52 -89.9 0 1 8.75 155.32
  L 2.79 155.43
  A 0.84 0.77 89.3 0 1 2.00 154.59
  L 2.00 101.48
  A 0.98 0.98 -89.2 0 1 2.98 100.50
  L 179.19 100.44
  A 0.50 0.50 0.0 0 0 179.69 99.94
  Z"
/>
<path fill="#000000" d="
  M 281.44 147.26
  L 281.50 53.69
  A 0.69 0.69 0.0 0 1 282.19 53.00
  L 382.88 53.00
  A 0.87 0.87 0.7 0 1 383.75 53.87
  L 383.75 59.70
  A 0.80 0.80 1.3 0 1 382.95 60.50
  L 289.56 60.31
  A 0.25 0.25 0.0 0 0 289.31 60.56
  L 289.25 154.83
  A 0.67 0.66 -90.0 0 1 288.59 155.50
  L 187.91 155.50
  A 0.91 0.91 0.0 0 1 187.00 154.59
  L 187.00 148.91
  A 0.91 0.91 0.0 0 1 187.91 148.00
  L 280.69 148.00
  A 0.75 0.74 0.0 0 0 281.44 147.26
  Z"
/>
<path fill="#000000" d="
  M 588.19 60.55
  Q 570.34 60.25 552.50 60.39
  C 505.58 60.76 458.63 60.50 411.68 60.50
  A 0.67 0.65 0.4 0 1 411.01 59.84
  L 411.05 53.70
  A 0.72 0.70 -0.0 0 1 411.77 53.00
  L 595.45 53.00
  A 0.55 0.55 89.8 0 1 596.00 53.55
  L 595.94 107.30
  A 0.71 0.70 -0.0 0 1 595.23 108.00
  L 419.07 108.00
  A 0.82 0.82 0.0 0 0 418.25 108.82
  L 418.25 154.65
  A 0.85 0.85 -0.0 0 1 417.40 155.50
  L 411.69 155.50
  A 0.69 0.69 0.0 0 1 411.00 154.81
  L 411.00 101.27
  A 0.71 0.70 -90.0 0 1 411.70 100.56
  L 587.86 100.50
  A 0.89 0.88 0.0 0 0 588.75 99.62
  L 588.69 61.06
  A 0.51 0.51 0.6 0 0 588.19 60.55
  Z"
/>
<path fill="#000000" d="
  M 189.28 232.32
  C 194.39 241.37 210.79 233.89 203.57 226.57
  C 198.48 221.39 183.93 224.60 186.41 212.95
  C 188.44 203.38 206.00 203.70 207.15 214.69
  A 0.69 0.64 77.8 0 1 206.74 215.39
  Q 205.75 215.76 204.77 215.39
  A 0.86 0.75 -85.1 0 1 204.27 214.70
  C 203.16 205.88 187.33 207.34 189.48 215.98
  C 191.37 223.58 207.09 218.16 208.06 228.92
  C 209.27 242.23 185.76 242.52 185.50 229.74
  A 0.75 0.73 78.5 0 1 185.95 229.04
  C 189.01 227.77 188.47 230.89 189.28 232.32
  Z"
/>
<path fill="#000000" d="
  M 125.20 209.35
  Q 129.81 214.79 126.52 219.94
  C 123.38 224.85 115.31 225.15 110.25 224.29
  A 0.98 0.95 -85.2 0 0 109.15 225.25
  L 109.09 237.31
  A 0.87 0.85 76.3 0 1 108.64 238.07
  C 107.00 238.97 106.00 238.07 106.00 236.32
  Q 105.96 221.95 106.06 207.94
  A 0.93 0.88 -89.1 0 1 106.96 207.02
  L 121.01 207.25
  Q 123.45 207.29 125.20 209.35
  Z
  M 124.53 217.01
  C 126.41 208.65 114.65 208.88 109.79 209.72
  A 0.62 0.59 85.4 0 0 109.31 210.31
  L 109.08 221.09
  A 0.93 0.91 88.1 0 0 110.07 222.04
  C 115.02 221.59 123.10 223.43 124.53 217.01
  Z"
/>
<rect fill="#000000" x="131.49" y="207.00" width="2.76" height="31.24" rx="0.64"/>
<rect fill="#000000" x="-1.51" y="-2.00" transform="translate(265.50,208.99) rotate(-1.6)" width="3.02" height="4.00" rx="0.76"/>
<path fill="#000000" d="
  M 337.55 225.06
  L 337.50 237.54
  A 0.68 0.67 83.6 0 1 336.98 238.20
  C 333.91 238.89 334.50 237.29 334.50 235.37
  Q 334.46 221.59 334.56 207.82
  A 0.56 0.55 87.2 0 1 335.05 207.26
  C 342.92 206.42 357.91 205.04 355.83 217.20
  C 354.44 225.31 344.97 224.54 338.06 224.56
  A 0.51 0.51 -89.4 0 0 337.55 225.06
  Z
  M 337.43 221.31
  A 0.68 0.67 -89.2 0 0 338.09 222.00
  Q 342.97 222.04 347.66 221.48
  C 355.41 220.55 354.56 210.24 347.01 209.67
  Q 343.01 209.37 338.10 209.53
  A 0.63 0.62 89.1 0 0 337.50 210.16
  L 337.43 221.31
  Z"
/>
<path fill="#000000" d="
  M 438.19 218.35
  C 448.43 209.36 457.99 219.81 455.24 230.89
  C 453.23 239.01 444.69 241.86 438.69 235.31
  C 436.97 233.44 439.40 239.29 435.79 238.11
  A 0.71 0.68 -81.6 0 1 435.31 237.44
  L 435.31 207.82
  A 0.73 0.69 81.1 0 1 435.78 207.14
  Q 438.09 206.36 437.89 208.46
  C 437.58 211.65 437.73 214.99 437.80 218.19
  Q 437.81 218.68 438.19 218.35
  Z
  M 445.4367 236.5299
  A 9.53 7.64 90.2 0 0 453.1100 227.0267
  A 9.53 7.64 90.2 0 0 445.5033 217.4701
  A 9.53 7.64 90.2 0 0 437.8300 226.9733
  A 9.53 7.64 90.2 0 0 445.4367 236.5299
  Z"
/>
<rect fill="#000000" x="-1.34" y="-15.58" transform="translate(462.82,222.61) rotate(-0.1)" width="2.68" height="31.16" rx="0.59"/>
<path fill="#000000" d="
  M 214.49 215.19
  C 214.64 213.40 213.42 208.06 216.87 209.71
  A 0.90 0.70 -81.4 0 1 217.28 210.44
  L 217.38 215.06
  A 0.58 0.58 1.1 0 0 217.93 215.63
  L 220.69 215.82
  A 0.82 0.65 -5.9 0 1 221.38 216.26
  Q 222.15 218.42 218.88 217.90
  A 1.37 1.35 4.6 0 0 217.30 219.23
  L 217.25 234.68
  A 1.64 1.62 -1.6 0 0 218.99 236.31
  Q 222.58 236.09 221.47 238.02
  A 1.25 1.07 5.5 0 1 220.70 238.56
  Q 214.69 239.96 214.67 234.41
  C 214.65 229.26 214.35 224.22 214.65 219.07
  A 0.92 0.77 -74.6 0 0 214.28 218.26
  Q 213.50 217.77 212.48 217.91
  A 0.76 0.65 -15.5 0 1 211.75 217.57
  Q 210.58 215.26 213.94 215.62
  A 0.49 0.48 6.3 0 0 214.49 215.19
  Z"
/>
<path fill="#000000" d="
  M 258.04 236.37
  A 0.98 0.97 81.8 0 1 259.06 237.14
  C 259.50 239.23 251.99 240.53 252.00 234.25
  Q 252.00 227.40 252.00 220.56
  C 252.00 218.92 252.50 217.45 249.89 218.02
  A 0.94 0.94 83.5 0 1 248.75 217.11
  Q 248.74 215.21 250.92 215.73
  A 0.91 0.88 -83.2 0 0 252.01 214.85
  L 252.04 210.57
  A 1.11 0.98 73.6 0 1 252.44 209.72
  Q 253.54 208.92 254.75 210.00
  Q 255.89 211.02 254.69 214.44
  Q 254.07 216.20 256.96 215.60
  A 1.79 1.79 72.0 0 1 258.94 216.61
  Q 259.70 218.31 256.03 217.89
  A 1.14 1.13 3.1 0 0 254.76 219.02
  L 254.81 234.93
  A 1.18 0.87 -76.3 0 0 255.17 235.79
  Q 256.09 236.51 258.04 236.37
  Z"
/>
<path fill="#000000" d="
  M 398.69 218.04
  L 396.82 217.96
  A 0.74 0.66 -5.7 0 1 396.15 217.47
  Q 395.60 215.52 398.20 215.77
  A 0.99 0.97 -87.1 0 0 399.26 214.79
  L 399.29 210.31
  A 0.73 0.72 -9.7 0 1 399.78 209.63
  C 403.27 208.36 401.73 213.08 402.07 214.95
  A 1.20 1.19 76.1 0 0 403.59 215.87
  C 407.18 214.79 407.27 218.79 403.65 217.92
  A 1.29 1.27 7.0 0 0 402.05 219.15
  L 402.05 234.73
  A 1.66 1.63 -1.0 0 0 403.76 236.35
  Q 407.24 236.24 406.05 238.09
  A 1.42 1.27 6.6 0 1 405.27 238.64
  C 400.27 239.95 399.25 236.85 399.26 232.66
  Q 399.29 225.61 399.19 218.56
  A 0.52 0.52 1.1 0 0 398.69 218.04
  Z"
/>
<path fill="#000000" d="
  M 155.49 236.23
  Q 155.37 235.29 154.63 235.87
  Q 149.94 239.54 144.74 238.54
  C 139.29 237.49 137.40 230.51 142.14 227.28
  C 144.72 225.52 150.03 225.07 153.22 224.75
  A 2.08 2.08 -87.2 0 0 155.06 223.08
  C 156.44 216.03 145.60 215.59 143.11 221.97
  A 1.17 1.00 -86.5 0 1 142.48 222.62
  Q 139.90 223.52 140.75 220.75
  C 142.30 215.72 147.69 214.60 152.30 215.38
  C 160.31 216.75 157.47 227.93 157.96 235.00
  A 1.45 0.94 -80.0 0 0 158.33 235.87
  Q 158.98 236.47 160.01 236.35
  A 0.65 0.53 -11.0 0 1 160.69 236.71
  C 161.44 239.12 155.92 239.54 155.49 236.23
  Z
  M 146.51 236.03
  Q 155.64 237.32 155.21 227.06
  A 0.43 0.43 83.1 0 0 154.70 226.66
  Q 150.79 227.43 146.87 228.15
  C 141.36 229.18 140.06 235.13 146.51 236.03
  Z"
/>
<path fill="#000000" d="
  M 240.55 235.87
  C 237.18 238.47 232.25 239.98 228.53 237.76
  C 224.27 235.21 224.08 229.37 228.58 226.96
  C 231.19 225.55 235.49 225.22 238.75 224.78
  Q 240.91 224.49 241.00 222.31
  Q 241.14 218.75 237.83 217.87
  Q 231.13 216.09 228.97 222.09
  A 1.07 0.94 -86.4 0 1 228.33 222.73
  Q 226.07 223.40 226.78 220.88
  C 228.98 213.12 243.08 212.62 243.61 221.89
  Q 244.17 231.56 243.75 233.50
  Q 243.12 236.36 245.68 236.34
  A 0.86 0.61 -7.4 0 1 246.43 236.74
  Q 246.62 237.24 246.42 237.75
  A 1.14 0.86 -2.5 0 1 245.71 238.34
  Q 242.16 239.36 241.07 236.04
  A 0.34 0.33 62.2 0 0 240.55 235.87
  Z
  M 233.19 227.94
  C 225.68 228.32 226.79 238.25 235.32 236.08
  Q 242.27 234.32 240.86 227.24
  A 0.51 0.50 -11.4 0 0 240.26 226.85
  Q 235.13 227.84 233.19 227.94
  Z"
/>
<path fill="#000000" d="
  M 281.9544 238.9293
  A 11.99 10.56 90.6 0 1 271.5206 226.8294
  A 11.99 10.56 90.6 0 1 282.2056 214.9507
  A 11.99 10.56 90.6 0 1 292.6394 227.0506
  A 11.99 10.56 90.6 0 1 281.9544 238.9293
  Z
  M 281.9528 236.5393
  A 9.59 7.68 90.7 0 0 289.7494 227.0438
  A 9.59 7.68 90.7 0 0 282.1872 217.3607
  A 9.59 7.68 90.7 0 0 274.3906 226.8562
  A 9.59 7.68 90.7 0 0 281.9528 236.5393
  Z"
/>
<path fill="#000000" d="
  M 298.90 217.62
  Q 298.75 218.58 299.51 217.97
  Q 304.47 213.94 309.69 215.81
  C 315.98 218.07 314.00 231.81 314.00 237.25
  A 0.95 0.82 77.2 0 1 313.58 238.04
  Q 312.71 238.54 311.76 238.16
  A 0.80 0.71 -80.3 0 1 311.31 237.44
  Q 311.14 226.59 311.25 223.75
  C 311.60 214.65 299.07 215.72 298.91 225.00
  Q 298.80 231.22 298.70 237.43
  A 0.73 0.66 83.0 0 1 298.23 238.10
  C 295.44 238.98 296.01 236.41 295.99 234.74
  Q 295.83 225.61 296.23 216.49
  A 0.75 0.71 82.1 0 1 296.71 215.82
  Q 299.32 214.93 298.90 217.62
  Z"
/>
<path fill="#000000" d="
  M 367.4754 238.9295
  A 11.99 10.55 90.5 0 1 357.0304 226.8479
  A 11.99 10.55 90.5 0 1 367.6846 214.9505
  A 11.99 10.55 90.5 0 1 378.1296 227.0321
  A 11.99 10.55 90.5 0 1 367.4754 238.9295
  Z
  M 367.3965 236.5182
  A 9.56 7.66 91.1 0 0 375.2386 227.1071
  A 9.56 7.66 91.1 0 0 367.7635 217.4018
  A 9.56 7.66 91.1 0 0 359.9214 226.8129
  A 9.56 7.66 91.1 0 0 367.3965 236.5182
  Z"
/>
<path fill="#000000" d="
  M 384.38 218.26
  Q 384.40 219.80 385.21 218.54
  Q 387.45 215.07 391.18 215.27
  A 0.60 0.51 3.0 0 1 391.76 215.81
  L 391.68 217.33
  A 0.72 0.55 -4.5 0 1 391.07 217.88
  C 382.20 219.24 384.50 230.15 384.49 236.50
  Q 384.48 238.98 382.27 238.14
  A 0.76 0.72 -79.9 0 1 381.81 237.44
  Q 381.70 227.47 381.60 217.50
  Q 381.57 214.80 383.88 215.95
  A 0.88 0.83 13.8 0 1 384.36 216.69
  L 384.38 218.26
  Z"
/>
<path fill="#000000" d="
  M 424.99 235.88
  Q 424.86 235.08 424.27 235.63
  C 412.25 246.59 401.69 227.67 415.75 225.76
  Q 419.25 225.28 422.76 224.75
  Q 424.56 224.48 424.76 222.67
  Q 425.18 218.89 421.57 217.91
  Q 414.93 216.12 412.72 222.09
  A 1.08 0.91 -86.0 0 1 412.09 222.74
  C 409.93 223.44 409.95 221.51 410.63 220.24
  Q 414.34 213.24 422.83 215.63
  C 429.50 217.50 427.63 229.43 427.49 234.87
  A 1.35 1.35 -0.2 0 0 428.88 236.25
  Q 431.04 236.18 430.03 237.84
  A 1.30 1.22 7.2 0 1 429.27 238.39
  Q 425.55 239.40 424.99 235.88
  Z
  M 417.19 227.94
  C 410.93 228.36 409.72 235.96 416.25 236.25
  Q 425.92 236.68 424.64 227.19
  A 0.48 0.48 -9.7 0 0 424.07 226.79
  Q 419.36 227.79 417.19 227.94
  Z"
/>
<path fill="#000000" d="
  M 472.29 228.32
  C 472.13 235.60 480.91 239.56 485.26 233.58
  C 486.24 232.22 486.22 230.39 488.73 231.36
  A 0.51 0.50 -68.7 0 1 489.01 232.02
  Q 486.29 239.08 479.42 238.83
  C 465.20 238.31 466.58 215.60 479.07 215.15
  C 485.89 214.89 489.82 220.45 489.30 227.00
  A 0.56 0.56 -88.3 0 1 488.75 227.52
  L 472.81 227.82
  A 0.53 0.51 -0.0 0 0 472.29 228.32
  Z
  M 486.59 224.35
  C 485.20 214.61 473.07 215.99 472.27 224.75
  A 0.57 0.54 2.3 0 0 472.84 225.34
  L 485.57 225.45
  A 1.01 0.96 -3.6 0 0 486.59 224.35
  Z"
/>
<path fill="#000000" d="
  M 171.60 233.58
  Q 172.23 235.26 172.81 233.58
  Q 175.68 225.27 178.76 217.05
  Q 179.50 215.08 181.54 215.81
  A 0.53 0.51 -70.5 0 1 181.84 216.47
  Q 177.28 229.73 171.73 242.60
  Q 170.65 245.12 169.66 245.97
  C 168.41 247.04 162.88 248.12 164.34 244.76
  A 0.70 0.62 14.8 0 1 165.05 244.40
  C 168.35 244.86 171.23 240.52 170.26 237.83
  Q 166.64 227.80 162.88 217.81
  C 162.36 216.45 161.31 215.31 164.28 215.80
  A 1.30 1.26 -5.4 0 1 165.28 216.60
  L 171.60 233.58
  Z"
/>
<rect fill="#000000" x="264.01" y="215.73" width="2.74" height="22.50" rx="0.70"/>
<path fill="#000000" d="
  M 330.45 231.84
  A 6.30 6.30 0.0 0 1 324.15 238.14
  A 6.30 6.30 0.0 0 1 317.85 231.84
  A 6.30 6.30 0.0 0 1 324.15 225.54
  A 6.30 6.30 0.0 0 1 330.45 231.84
  Z
  M 329.33 231.87
  A 5.17 5.17 0.0 0 0 324.16 226.70
  A 5.17 5.17 0.0 0 0 318.99 231.87
  A 5.17 5.17 0.0 0 0 324.16 237.04
  A 5.17 5.17 0.0 0 0 329.33 231.87
  Z"
/>
<path fill="#000000" d="
  M 324.96 232.39
  Q 322.44 231.57 322.69 234.25
  A 0.94 0.55 79.2 0 1 322.39 235.09
  Q 322.17 235.19 321.93 235.13
  A 0.65 0.53 -83.6 0 1 321.54 234.53
  L 321.54 229.06
  A 0.69 0.69 -8.6 0 1 322.03 228.40
  Q 324.26 227.68 326.26 228.80
  A 0.98 0.79 17.4 0 1 326.77 229.56
  L 326.77 234.68
  Q 326.77 235.32 326.28 234.91
  Q 325.50 234.25 325.43 233.05
  A 0.74 0.66 -83.5 0 0 324.96 232.39
  Z
  M 325.7418 230.3134
  A 0.91 0.91 0.0 0 0 324.8924 229.3466
  L 323.5153 229.2575
  A 0.91 0.91 0.0 0 0 322.5485 230.1069
  L 322.5382 230.2666
  A 0.91 0.91 0.0 0 0 323.3876 231.2334
  L 324.7647 231.3225
  A 0.91 0.91 0.0 0 0 325.7315 230.4731
  L 325.7418 230.3134
  Z"
/>
</svg>
