<?xml version="1.0" encoding="UTF-8" standalone="no"?>
<!DOCTYPE svg PUBLIC "-//W3C//DTD SVG 1.1//EN" "http://www.w3.org/Graphics/SVG/1.1/DTD/svg11.dtd">
<svg xmlns="http://www.w3.org/2000/svg" version="1.1" viewBox="0 0 600 300">
<path fill="#000000" d="
  M 171.58 80.19
  A 0.36 0.36 -89.5 0 1 171.94 80.55
  L 172.06 198.83
  A 0.91 0.91 89.7 0 1 171.15 199.75
  L 142.14 199.75
  A 0.97 0.96 90.0 0 1 141.18 198.78
  L 141.24 184.27
  A 0.76 0.76 31.4 0 0 140.47 183.50
  L 108.44 183.92
  A 0.96 0.90 14.4 0 0 107.66 184.35
  L 98.43 198.70
  A 2.28 2.14 -72.7 0 1 96.58 199.75
  L 65.95 199.75
  Q 64.94 199.75 65.48 198.90
  L 140.44 80.87
  A 1.84 1.79 -73.5 0 1 141.97 80.01
  L 171.58 80.19
  Z
  M 140.33 132.20
  L 127.85 151.85
  Q 127.39 152.58 128.24 152.57
  L 140.04 152.44
  A 1.22 1.22 -0.2 0 0 141.25 151.22
  L 141.19 132.43
  Q 141.19 130.85 140.33 132.20
  Z"
/>
<path fill="#000000" d="
  M 213.79 80.89
  A 1.94 1.93 16.3 0 1 215.42 80.00
  L 245.99 80.00
  Q 247.07 80.00 246.49 80.90
  Q 229.21 107.77 212.69 134.19
  C 209.35 139.53 209.87 142.92 213.29 148.31
  Q 229.47 173.82 246.45 198.83
  Q 247.07 199.75 245.96 199.75
  L 214.49 199.75
  A 1.45 1.42 72.8 0 1 213.30 199.11
  Q 198.92 177.51 185.31 156.19
  C 179.09 146.46 174.98 141.16 182.20 129.99
  Q 197.87 105.75 213.79 80.89
  Z"
/>
<path fill="#000000" d="
  M 259.23 80.62
  A 1.36 1.34 -73.4 0 1 260.36 80.00
  L 291.38 80.00
  Q 292.36 80.00 291.83 80.82
  Q 276.26 105.17 261.17 129.08
  C 256.02 137.24 253.47 140.29 258.73 148.57
  Q 274.98 174.13 291.71 198.82
  Q 292.34 199.75 291.22 199.75
  L 259.88 199.75
  A 1.38 1.36 72.6 0 1 258.75 199.15
  Q 243.63 176.75 229.71 154.78
  C 223.19 144.48 221.03 140.14 227.93 129.45
  Q 243.62 105.11 259.23 80.62
  Z"
/>
<rect fill="#000000" x="296.75" y="80.00" width="29.74" height="119.74" rx="0.59"/>
<rect fill="#000000" x="-15.00" y="-11.17" transform="translate(445.25,91.17) rotate(-0.1)" width="30.00" height="22.34" rx="0.65"/>
<path fill="#000000" d="
  M 600.00 207.59
  L 600.00 218.81
  Q 576.14 219.00 516.50 219.00
  Q 259.37 219.00 1.45 219.00
  Q -0.03 219.00 0.99 217.93
  Q 64.06 151.33 126.29 85.34
  Q 126.45 85.18 126.60 85.06
  Q 128.22 83.80 126.90 85.62
  Q 83.27 145.55 39.05 206.92
  Q 38.63 207.50 39.34 207.50
  L 600.00 207.59
  Z"
/>
<path fill="#000000" d="
  M 396.40 196.37
  C 376.25 204.18 354.79 198.81 341.44 181.81
  C 321.66 156.63 333.24 119.81 363.09 109.32
  Q 378.96 103.74 396.28 110.54
  Q 397.61 111.07 397.33 109.66
  C 396.80 106.97 398.00 107.50 399.77 107.50
  Q 411.65 107.50 424.02 107.50
  A 0.54 0.54 0.2 0 1 424.56 108.04
  L 424.50 198.98
  A 0.77 0.77 -89.9 0 1 423.73 199.75
  Q 411.53 199.75 400.01 199.75
  C 397.72 199.75 396.77 200.05 397.37 197.19
  Q 397.64 195.89 396.40 196.37
  Z
  M 396.93 153.39
  A 18.85 18.85 0.0 0 0 378.08 134.54
  A 18.85 18.85 0.0 0 0 359.23 153.39
  A 18.85 18.85 0.0 0 0 378.08 172.24
  A 18.85 18.85 0.0 0 0 396.93 153.39
  Z"
/>
<rect fill="#000000" x="430.25" y="108.25" width="30.00" height="91.50" rx="0.94"/>
<path fill="#000000" d="
  M 573.77 110.87
  C 592.80 114.49 599.66 130.69 599.59 148.25
  Q 599.50 173.62 599.50 199.09
  A 0.66 0.66 -89.5 0 1 598.84 199.75
  L 572.55 199.69
  A 0.81 0.80 90.0 0 1 571.75 198.88
  Q 571.75 173.50 571.75 148.75
  C 571.75 134.09 552.07 131.91 548.72 144.47
  Q 548.25 146.25 548.25 154.56
  Q 548.25 176.86 548.25 198.81
  A 0.94 0.94 0.1 0 1 547.31 199.75
  L 519.47 199.75
  A 1.18 1.17 0.7 0 1 518.29 198.55
  Q 518.94 172.73 518.11 147.57
  C 517.58 131.58 494.75 132.28 494.75 149.00
  Q 494.75 173.63 494.75 198.90
  A 0.85 0.85 -0.0 0 1 493.90 199.75
  L 467.99 199.75
  A 0.93 0.92 -90.0 0 1 467.07 198.82
  L 467.06 109.07
  A 0.51 0.50 -90.0 0 1 467.56 108.56
  L 494.75 108.99
  A 1.32 0.90 60.1 0 1 495.56 109.38
  Q 496.43 110.23 498.00 110.00
  C 511.19 108.04 527.05 109.69 537.39 119.65
  A 0.49 0.49 -46.6 0 0 538.09 119.63
  C 547.96 109.12 560.07 108.27 573.77 110.87
  Z"
/>
</svg>
