<?xml version="1.0" encoding="UTF-8" standalone="no"?>
<!DOCTYPE svg PUBLIC "-//W3C//DTD SVG 1.1//EN" "http://www.w3.org/Graphics/SVG/1.1/DTD/svg11.dtd">
<svg xmlns="http://www.w3.org/2000/svg" version="1.1" viewBox="0 0 600 300">
<g stroke-width="2.00" fill="none" stroke-linecap="butt">
<path stroke="#770e12" vector-effect="non-scaling-stroke" d="
  M 549.42 188.50
  Q 535.60 192.75 525.50 192.75
  Q 299.88 192.75 74.25 192.75
  Q 64.37 192.75 50.81 188.56"
/>
<path stroke="#808080" vector-effect="non-scaling-stroke" d="
  M 90.39 227.69
  L 77.30 227.56
  A 0.49 0.48 -1.7 0 0 76.81 228.07
  C 77.01 231.45 77.93 237.43 73.31 238.31
  C 69.87 238.97 62.56 239.61 61.58 235.33
  Q 61.50 234.99 61.50 230.66
  Q 61.50 220.09 61.50 209.59
  Q 61.50 206.79 64.17 205.94
  C 69.06 204.39 78.02 204.01 76.69 212.12
  Q 76.36 214.10 78.51 214.14
  L 90.25 214.32
  A 0.88 0.84 3.6 0 0 91.14 213.57
  Q 92.21 203.03 83.50 200.00
  C 75.33 197.16 52.08 195.72 47.18 205.55
  C 45.00 209.92 46.25 223.05 46.25 228.39
  Q 46.25 235.70 46.32 236.10
  C 48.73 249.12 78.01 247.44 86.63 242.09
  C 92.01 238.75 91.25 234.03 91.25 228.56
  A 0.87 0.87 0.3 0 0 90.39 227.69"
/>
<path stroke="#808080" vector-effect="non-scaling-stroke" d="
  M 135.81 237.44
  L 135.77 198.90
  A 0.87 0.83 89.7 0 0 134.93 198.03
  L 120.94 198.16
  A 0.55 0.52 -90.0 0 0 120.43 198.70
  L 120.25 244.37
  A 0.90 0.89 0.0 0 0 121.15 245.26
  L 159.82 245.06
  A 0.55 0.49 0.0 0 0 160.37 244.57
  L 160.38 238.69
  A 0.57 0.51 0.0 0 0 159.81 238.18
  L 136.31 237.94
  A 0.51 0.50 0.6 0 1 135.81 237.44"
/>
<path stroke="#808080" vector-effect="non-scaling-stroke" d="
  M 216.00 236.43
  Q 217.74 239.51 218.31 243.44
  Q 218.58 245.25 220.38 245.24
  L 234.02 245.19
  A 0.34 0.33 80.9 0 0 234.33 244.75
  L 219.22 198.66
  A 0.71 0.67 80.5 0 0 218.57 198.17
  L 197.19 198.17
  A 0.74 0.68 -79.9 0 0 196.53 198.67
  L 181.47 244.46
  A 0.38 0.38 -80.3 0 0 181.82 244.96
  L 194.61 245.19
  A 1.26 1.13 -80.6 0 0 195.74 244.29
  L 198.02 236.65
  A 0.74 0.62 6.2 0 1 198.69 236.20
  L 215.25 236.03
  A 0.87 0.78 -13.7 0 1 216.00 236.43"
/>
<path stroke="#808080" vector-effect="non-scaling-stroke" d="
  M 257.94 204.69
  C 248.15 219.44 280.95 224.26 285.33 232.59
  C 288.80 239.19 276.82 239.65 273.15 238.07
  Q 270.40 236.88 270.53 232.46
  A 1.38 1.33 -89.4 0 0 269.18 231.03
  L 256.68 231.16
  A 0.60 0.57 -87.1 0 0 256.12 231.69
  C 254.68 242.66 265.21 245.24 273.50 245.75
  C 281.79 246.26 300.82 246.73 301.05 234.48
  C 301.29 222.17 279.67 220.60 273.31 213.19
  C 270.25 209.62 271.75 206.29 276.12 205.47
  C 280.43 204.66 286.87 204.57 286.44 211.12
  A 0.83 0.83 -88.4 0 0 287.27 212.00
  L 300.47 212.00
  A 0.53 0.52 -89.4 0 0 300.99 211.48
  C 301.08 203.52 295.99 199.92 288.50 198.73
  C 280.37 197.44 263.30 196.61 257.94 204.69"
/>
<path stroke="#808080" vector-effect="non-scaling-stroke" d="
  M 326.94 204.69
  C 321.99 212.54 329.84 218.88 336.80 221.96
  C 340.35 223.52 359.05 230.58 354.13 236.71
  C 352.08 239.27 346.15 239.04 343.30 238.52
  Q 339.37 237.79 339.54 232.51
  A 1.41 1.39 -89.0 0 0 338.15 231.05
  L 326.01 231.00
  A 0.62 0.61 6.1 0 0 325.39 231.49
  C 323.47 240.58 331.60 244.58 339.00 245.47
  C 346.98 246.43 371.02 247.44 370.12 233.97
  C 369.82 229.38 365.61 225.45 361.69 223.56
  C 357.35 221.48 343.65 216.07 341.56 212.19
  C 337.56 204.74 348.22 204.69 352.48 205.84
  Q 355.77 206.73 355.45 210.94
  A 0.99 0.98 2.4 0 0 356.44 212.00
  L 369.31 212.06
  A 0.57 0.57 3.4 0 0 369.88 211.56
  C 371.35 199.19 355.95 198.07 347.63 197.94
  C 341.42 197.84 330.73 198.66 326.94 204.69"
/>
<path stroke="#808080" vector-effect="non-scaling-stroke" d="
  M 411.8306 198.5470
  A 0.51 0.51 0.0 0 0 411.3224 198.0352
  L 396.9625 197.9851
  A 0.51 0.51 0.0 0 0 396.4507 198.4933
  L 396.2894 244.6930
  A 0.51 0.51 0.0 0 0 396.7976 245.2048
  L 411.1575 245.2549
  A 0.51 0.51 0.0 0 0 411.6693 244.7467
  L 411.8306 198.5470"
/>
<path stroke="#808080" vector-effect="non-scaling-stroke" d="
  M 440.73 204.64
  Q 439.25 206.65 439.25 209.15
  Q 439.25 217.58 439.25 225.96
  Q 439.25 235.57 439.34 236.03
  C 441.90 249.07 470.08 247.04 477.89 243.14
  C 484.69 239.75 484.46 235.12 484.21 228.38
  A 1.00 1.00 -3.3 0 0 483.13 227.42
  Q 476.28 228.01 470.31 227.56
  A 0.47 0.47 0.5 0 0 469.81 228.05
  Q 470.02 231.40 469.71 234.75
  C 469.20 240.11 459.67 239.22 456.15 237.59
  Q 454.50 236.83 454.50 235.01
  Q 454.50 223.68 454.50 212.37
  C 454.50 209.11 454.22 206.67 457.50 205.75
  C 461.08 204.74 470.13 204.21 469.83 210.25
  Q 469.75 211.75 469.75 213.33
  A 0.92 0.92 0.0 0 0 470.67 214.25
  L 483.24 214.25
  A 0.88 0.88 -86.3 0 0 484.11 213.48
  Q 485.21 204.10 478.03 200.75
  C 468.95 196.51 447.00 196.08 440.73 204.64"
/>
<path stroke="#808080" vector-effect="non-scaling-stroke" d="
  M 521.28 199.38
  C 513.82 201.09 508.18 208.07 513.44 215.31
  Q 516.12 219.00 522.80 221.97
  C 526.62 223.66 544.09 230.15 540.37 236.36
  C 538.42 239.60 531.37 239.01 528.45 238.06
  C 525.35 237.05 525.37 235.20 525.59 232.34
  A 1.21 1.18 -87.7 0 0 524.42 231.04
  L 511.81 231.05
  A 0.60 0.58 -85.4 0 0 511.23 231.56
  C 508.63 248.62 538.19 247.58 547.52 244.24
  C 559.71 239.88 558.26 228.48 547.19 223.31
  C 541.18 220.51 522.45 213.43 527.45 207.24
  C 530.34 203.66 542.60 203.77 541.64 211.44
  A 0.45 0.43 -86.4 0 0 542.06 211.94
  L 555.31 212.06
  A 0.57 0.57 3.4 0 0 555.88 211.56
  C 557.80 195.36 530.41 197.28 521.28 199.38"
/>
<path stroke="#808080" vector-effect="non-scaling-stroke" d="
  M 207.04 207.12
  L 200.33 229.33
  A 0.39 0.37 -80.9 0 0 200.68 229.84
  L 213.56 229.85
  A 0.40 0.38 81.1 0 0 213.92 229.33
  L 207.08 207.12
  Q 207.06 207.05 207.04 207.12"
/>
</g>
<path fill="#ed1c24" d="
  M 549.42 188.50
  Q 535.60 192.75 525.50 192.75
  Q 299.88 192.75 74.25 192.75
  Q 64.37 192.75 50.81 188.56
  C 21.62 178.63 2.26 153.97 0.46 123.00
  L 0.21 117.75
  C 2.46 74.75 35.42 45.25 77.75 45.25
  Q 299.75 45.25 521.75 45.25
  C 563.55 45.25 598.55 74.63 599.61 117.51
  C 600.43 150.67 580.51 177.19 549.42 188.50
  Z
  M 68.11 64.17
  C -2.00 73.48 4.35 174.73 77.75 174.73
  Q 300.00 174.75 522.25 174.77
  Q 538.49 174.77 551.94 167.94
  C 574.93 156.25 585.76 129.86 579.44 105.06
  C 572.56 78.09 548.67 63.53 521.75 63.52
  Q 303.84 63.50 85.93 63.50
  Q 73.12 63.50 68.11 64.17
  Z"
/>
<path fill="#ed1c24" d="
  M 559.74 92.86
  A 13.78 13.78 0.0 0 1 545.96 106.64
  A 13.78 13.78 0.0 0 1 532.18 92.86
  A 13.78 13.78 0.0 0 1 545.96 79.08
  A 13.78 13.78 0.0 0 1 559.74 92.86
  Z
  M 545.8399 104.3294
  A 11.47 11.16 90.6 0 0 557.1194 92.9769
  A 11.47 11.16 90.6 0 0 546.0801 81.3906
  A 11.47 11.16 90.6 0 0 534.8006 92.7431
  A 11.47 11.16 90.6 0 0 545.8399 104.3294
  Z"
/>
<path fill="#ed1c24" d="
  M 111.30 132.27
  C 111.67 132.23 111.48 89.32 111.50 84.91
  A 0.73 0.72 -89.2 0 1 112.23 84.19
  L 132.18 84.31
  A 0.51 0.51 0.0 0 1 132.69 84.82
  L 132.57 153.06
  A 0.52 0.50 -90.0 0 1 132.07 153.58
  L 111.94 153.58
  A 0.95 0.90 72.6 0 1 111.17 153.15
  L 82.52 107.02
  Q 81.25 104.97 81.25 107.38
  L 81.19 153.19
  A 0.51 0.50 -0.0 0 1 80.68 153.69
  L 60.69 153.75
  A 0.95 0.94 -90.0 0 1 59.75 152.80
  L 59.75 84.91
  A 0.66 0.66 0.0 0 1 60.41 84.25
  L 80.86 84.25
  A 0.94 0.89 -14.7 0 1 81.65 84.68
  L 110.56 131.76
  A 0.99 0.59 65.2 0 0 111.30 132.27
  Z"
/>
<rect fill="#ed1c24" x="-10.49" y="-7.14" transform="translate(155.25,91.37) rotate(-0.1)" width="20.98" height="14.28" rx="0.59"/>
<path fill="#ed1c24" d="
  M 453.05 151.79
  Q 453.28 150.97 452.53 151.37
  Q 442.98 156.47 433.77 154.28
  C 415.67 149.96 408.42 127.65 421.32 113.86
  C 429.67 104.93 441.86 102.97 452.49 109.64
  Q 453.25 110.12 453.25 109.22
  L 453.25 84.75
  A 0.50 0.50 0.0 0 1 453.75 84.25
  L 473.09 84.25
  A 0.66 0.66 0.2 0 1 473.75 84.91
  L 473.75 152.90
  A 0.85 0.85 -0.0 0 1 472.90 153.75
  L 454.06 153.69
  A 0.94 0.81 -13.0 0 1 453.28 153.28
  Q 452.84 152.52 453.05 151.79
  Z
  M 453.23 121.06
  A 7.78 7.78 0.0 0 0 445.45 113.28
  L 444.63 113.28
  A 7.78 7.78 0.0 0 0 436.85 121.06
  L 436.85 139.68
  A 7.78 7.78 0.0 0 0 444.63 147.46
  L 445.45 147.46
  A 7.78 7.78 0.0 0 0 453.23 139.68
  L 453.23 121.06
  Z"
/>
<path fill="#ed1c24" d="
  M 543.29 94.55
  L 543.26 99.82
  A 0.96 0.95 84.8 0 1 542.50 100.75
  C 540.22 101.20 540.74 99.59 540.76 98.19
  Q 540.88 91.94 540.57 85.73
  A 0.68 0.68 88.0 0 1 541.24 85.01
  C 543.93 84.97 548.41 84.54 550.41 85.77
  C 553.27 87.54 552.87 93.02 549.05 93.47
  A 0.70 0.68 69.9 0 0 548.57 94.55
  L 552.13 99.96
  A 0.63 0.61 -23.1 0 1 551.74 100.89
  C 548.28 101.78 548.06 93.10 543.81 93.94
  A 0.64 0.63 -5.1 0 0 543.29 94.55
  Z
  M 543.15 87.93
  C 543.09 89.34 542.61 92.43 544.77 91.90
  Q 545.28 91.77 545.75 91.86
  Q 548.32 92.31 549.51 90.47
  Q 551.04 88.08 548.32 87.27
  Q 545.91 86.55 543.65 87.27
  A 0.73 0.72 -8.2 0 0 543.15 87.93
  Z"
/>
<path fill="#ed1c24" d="
  M 269.89 91.42
  A 0.79 0.79 4.1 0 1 270.67 92.32
  Q 270.18 95.72 270.90 100.18
  A 0.70 0.68 -3.9 0 0 271.58 100.75
  L 281.18 100.80
  A 0.55 0.50 0.5 0 1 281.73 101.31
  L 281.57 107.01
  A 0.58 0.51 1.0 0 1 280.99 107.50
  L 271.38 107.50
  A 0.88 0.87 0.0 0 0 270.50 108.37
  L 270.76 152.78
  A 0.97 0.96 -90.0 0 1 269.80 153.75
  L 250.60 153.75
  A 0.85 0.85 0.0 0 1 249.75 152.90
  L 249.75 108.47
  A 0.95 0.91 89.7 0 0 248.83 107.52
  L 239.79 107.64
  A 1.41 1.18 0.2 0 1 238.37 106.44
  L 238.46 101.31
  A 0.61 0.51 -0.6 0 1 239.06 100.80
  L 249.08 100.75
  A 0.67 0.66 0.0 0 0 249.75 100.09
  L 249.75 92.02
  A 0.60 0.59 0.0 0 1 250.35 91.43
  L 269.89 91.42
  Z"
/>
<path fill="#ed1c24" d="
  M 541.57 130.31
  A 30.46 25.87 0.0 0 1 511.11 156.18
  A 30.46 25.87 0.0 0 1 480.65 130.31
  A 30.46 25.87 0.0 0 1 511.11 104.44
  A 30.46 25.87 0.0 0 1 541.57 130.31
  Z
  M 505.64 112.14
  C 503.06 115.05 502.50 116.72 502.50 120.86
  Q 502.50 130.03 502.50 139.19
  C 502.50 154.02 519.05 153.81 519.50 141.00
  Q 519.76 133.69 519.39 121.61
  C 519.18 114.74 517.07 109.35 509.25 110.26
  Q 507.09 110.51 505.64 112.14
  Z"
/>
<path fill="#ed1c24" d="
  M 301.55 131.32
  C 301.48 135.79 300.81 142.49 302.59 146.05
  C 304.68 150.23 309.85 151.97 313.98 149.60
  Q 318.88 146.79 318.72 139.08
  A 1.50 1.49 89.2 0 1 320.20 137.55
  L 338.88 137.50
  A 0.49 0.49 -78.2 0 1 339.33 138.19
  C 330.73 158.11 303.65 161.98 287.88 148.65
  C 280.50 142.41 276.99 131.32 280.81 122.21
  C 291.68 96.22 337.44 99.67 340.80 129.69
  A 0.96 0.95 -3.2 0 1 339.84 130.75
  L 302.06 130.81
  A 0.52 0.51 -89.4 0 0 301.55 131.32
  Z
  M 318.55 123.19
  C 321.87 107.23 299.45 105.20 301.64 123.17
  A 0.75 0.71 -3.9 0 0 302.39 123.79
  L 317.94 123.66
  A 0.65 0.59 5.0 0 0 318.55 123.19
  Z"
/>
<path fill="#ed1c24" d="
  M 197.85 111.22
  Q 197.73 112.74 198.89 111.73
  C 211.14 101.10 231.33 104.33 236.85 120.42
  Q 238.25 124.50 238.25 132.75
  Q 238.25 142.75 238.25 153.08
  A 0.67 0.67 0.0 0 1 237.58 153.75
  L 218.31 153.75
  A 0.81 0.81 0.0 0 1 217.50 152.94
  Q 217.50 138.92 217.50 125.83
  Q 217.50 121.70 216.21 119.43
  C 212.83 113.47 202.75 113.36 199.31 119.47
  Q 198.00 121.80 198.00 126.78
  Q 198.00 139.59 198.00 152.90
  A 0.85 0.85 0.0 0 1 197.15 153.75
  L 178.00 153.69
  A 0.76 0.75 90.0 0 1 177.25 152.93
  L 177.31 108.30
  A 0.80 0.80 1.3 0 1 178.11 107.50
  L 197.17 107.50
  A 0.91 0.90 -87.7 0 1 198.07 108.48
  L 197.85 111.22
  Z"
/>
<path fill="#ed1c24" d="
  M 368.21 111.87
  C 383.65 99.44 408.00 106.39 408.00 128.00
  Q 408.00 140.25 408.00 153.08
  A 0.67 0.67 -0.2 0 1 407.33 153.75
  L 388.52 153.75
  A 1.27 1.26 0.2 0 1 387.25 152.48
  Q 387.29 138.49 387.21 125.08
  C 387.13 113.59 372.47 111.19 368.63 120.39
  Q 367.75 122.51 367.75 127.74
  Q 367.75 140.07 367.75 152.87
  A 0.88 0.88 0.0 0 1 366.87 153.75
  L 348.05 153.75
  A 0.80 0.80 0.0 0 1 347.25 152.95
  L 347.25 108.17
  A 0.67 0.67 -0.4 0 1 347.92 107.50
  L 367.08 107.50
  A 0.70 0.67 89.6 0 1 367.75 108.19
  L 367.79 111.70
  Q 367.79 112.20 368.21 111.87
  Z"
/>
<rect fill="#ed1c24" x="144.75" y="107.50" width="21.00" height="46.26" rx="0.64"/>
<path fill="#000000" d="
  M 50.81 188.56
  Q 64.37 192.75 74.25 192.75
  Q 299.88 192.75 525.50 192.75
  Q 535.60 192.75 549.42 188.50
  Q 554.59 189.22 562.00 189.00
  C 578.73 188.51 592.61 201.51 594.75 217.75
  C 597.05 235.25 584.13 251.15 566.98 253.71
  Q 565.01 254.00 547.00 254.00
  Q 293.50 254.00 40.00 254.00
  Q 29.65 254.00 21.68 249.19
  C -2.57 234.54 2.65 198.45 29.19 190.43
  Q 32.70 189.37 39.95 189.14
  Q 45.38 188.96 50.81 188.56
  Z
  M 90.39 227.69
  L 77.30 227.56
  A 0.49 0.48 -1.7 0 0 76.81 228.07
  C 77.01 231.45 77.93 237.43 73.31 238.31
  C 69.87 238.97 62.56 239.61 61.58 235.33
  Q 61.50 234.99 61.50 230.66
  Q 61.50 220.09 61.50 209.59
  Q 61.50 206.79 64.17 205.94
  C 69.06 204.39 78.02 204.01 76.69 212.12
  Q 76.36 214.10 78.51 214.14
  L 90.25 214.32
  A 0.88 0.84 3.6 0 0 91.14 213.57
  Q 92.21 203.03 83.50 200.00
  C 75.33 197.16 52.08 195.72 47.18 205.55
  C 45.00 209.92 46.25 223.05 46.25 228.39
  Q 46.25 235.70 46.32 236.10
  C 48.73 249.12 78.01 247.44 86.63 242.09
  C 92.01 238.75 91.25 234.03 91.25 228.56
  A 0.87 0.87 0.3 0 0 90.39 227.69
  Z
  M 135.81 237.44
  L 135.77 198.90
  A 0.87 0.83 89.7 0 0 134.93 198.03
  L 120.94 198.16
  A 0.55 0.52 -90.0 0 0 120.43 198.70
  L 120.25 244.37
  A 0.90 0.89 0.0 0 0 121.15 245.26
  L 159.82 245.06
  A 0.55 0.49 0.0 0 0 160.37 244.57
  L 160.38 238.69
  A 0.57 0.51 0.0 0 0 159.81 238.18
  L 136.31 237.94
  A 0.51 0.50 0.6 0 1 135.81 237.44
  Z
  M 216.00 236.43
  Q 217.74 239.51 218.31 243.44
  Q 218.58 245.25 220.38 245.24
  L 234.02 245.19
  A 0.34 0.33 80.9 0 0 234.33 244.75
  L 219.22 198.66
  A 0.71 0.67 80.5 0 0 218.57 198.17
  L 197.19 198.17
  A 0.74 0.68 -79.9 0 0 196.53 198.67
  L 181.47 244.46
  A 0.38 0.38 -80.3 0 0 181.82 244.96
  L 194.61 245.19
  A 1.26 1.13 -80.6 0 0 195.74 244.29
  L 198.02 236.65
  A 0.74 0.62 6.2 0 1 198.69 236.20
  L 215.25 236.03
  A 0.87 0.78 -13.7 0 1 216.00 236.43
  Z
  M 257.94 204.69
  C 248.15 219.44 280.95 224.26 285.33 232.59
  C 288.80 239.19 276.82 239.65 273.15 238.07
  Q 270.40 236.88 270.53 232.46
  A 1.38 1.33 -89.4 0 0 269.18 231.03
  L 256.68 231.16
  A 0.60 0.57 -87.1 0 0 256.12 231.69
  C 254.68 242.66 265.21 245.24 273.50 245.75
  C 281.79 246.26 300.82 246.73 301.05 234.48
  C 301.29 222.17 279.67 220.60 273.31 213.19
  C 270.25 209.62 271.75 206.29 276.12 205.47
  C 280.43 204.66 286.87 204.57 286.44 211.12
  A 0.83 0.83 -88.4 0 0 287.27 212.00
  L 300.47 212.00
  A 0.53 0.52 -89.4 0 0 300.99 211.48
  C 301.08 203.52 295.99 199.92 288.50 198.73
  C 280.37 197.44 263.30 196.61 257.94 204.69
  Z
  M 326.94 204.69
  C 321.99 212.54 329.84 218.88 336.80 221.96
  C 340.35 223.52 359.05 230.58 354.13 236.71
  C 352.08 239.27 346.15 239.04 343.30 238.52
  Q 339.37 237.79 339.54 232.51
  A 1.41 1.39 -89.0 0 0 338.15 231.05
  L 326.01 231.00
  A 0.62 0.61 6.1 0 0 325.39 231.49
  C 323.47 240.58 331.60 244.58 339.00 245.47
  C 346.98 246.43 371.02 247.44 370.12 233.97
  C 369.82 229.38 365.61 225.45 361.69 223.56
  C 357.35 221.48 343.65 216.07 341.56 212.19
  C 337.56 204.74 348.22 204.69 352.48 205.84
  Q 355.77 206.73 355.45 210.94
  A 0.99 0.98 2.4 0 0 356.44 212.00
  L 369.31 212.06
  A 0.57 0.57 3.4 0 0 369.88 211.56
  C 371.35 199.19 355.95 198.07 347.63 197.94
  C 341.42 197.84 330.73 198.66 326.94 204.69
  Z
  M 411.8306 198.5470
  A 0.51 0.51 0.0 0 0 411.3224 198.0352
  L 396.9625 197.9851
  A 0.51 0.51 0.0 0 0 396.4507 198.4933
  L 396.2894 244.6930
  A 0.51 0.51 0.0 0 0 396.7976 245.2048
  L 411.1575 245.2549
  A 0.51 0.51 0.0 0 0 411.6693 244.7467
  L 411.8306 198.5470
  Z
  M 440.73 204.64
  Q 439.25 206.65 439.25 209.15
  Q 439.25 217.58 439.25 225.96
  Q 439.25 235.57 439.34 236.03
  C 441.90 249.07 470.08 247.04 477.89 243.14
  C 484.69 239.75 484.46 235.12 484.21 228.38
  A 1.00 1.00 -3.3 0 0 483.13 227.42
  Q 476.28 228.01 470.31 227.56
  A 0.47 0.47 0.5 0 0 469.81 228.05
  Q 470.02 231.40 469.71 234.75
  C 469.20 240.11 459.67 239.22 456.15 237.59
  Q 454.50 236.83 454.50 235.01
  Q 454.50 223.68 454.50 212.37
  C 454.50 209.11 454.22 206.67 457.50 205.75
  C 461.08 204.74 470.13 204.21 469.83 210.25
  Q 469.75 211.75 469.75 213.33
  A 0.92 0.92 0.0 0 0 470.67 214.25
  L 483.24 214.25
  A 0.88 0.88 -86.3 0 0 484.11 213.48
  Q 485.21 204.10 478.03 200.75
  C 468.95 196.51 447.00 196.08 440.73 204.64
  Z
  M 521.28 199.38
  C 513.82 201.09 508.18 208.07 513.44 215.31
  Q 516.12 219.00 522.80 221.97
  C 526.62 223.66 544.09 230.15 540.37 236.36
  C 538.42 239.60 531.37 239.01 528.45 238.06
  C 525.35 237.05 525.37 235.20 525.59 232.34
  A 1.21 1.18 -87.7 0 0 524.42 231.04
  L 511.81 231.05
  A 0.60 0.58 -85.4 0 0 511.23 231.56
  C 508.63 248.62 538.19 247.58 547.52 244.24
  C 559.71 239.88 558.26 228.48 547.19 223.31
  C 541.18 220.51 522.45 213.43 527.45 207.24
  C 530.34 203.66 542.60 203.77 541.64 211.44
  A 0.45 0.43 -86.4 0 0 542.06 211.94
  L 555.31 212.06
  A 0.57 0.57 3.4 0 0 555.88 211.56
  C 557.80 195.36 530.41 197.28 521.28 199.38
  Z"
/>
<path fill="#ffffff" d="
  M 90.39 227.69
  A 0.87 0.87 0.3 0 1 91.25 228.56
  C 91.25 234.03 92.01 238.75 86.63 242.09
  C 78.01 247.44 48.73 249.12 46.32 236.10
  Q 46.25 235.70 46.25 228.39
  C 46.25 223.05 45.00 209.92 47.18 205.55
  C 52.08 195.72 75.33 197.16 83.50 200.00
  Q 92.21 203.03 91.14 213.57
  A 0.88 0.84 3.6 0 1 90.25 214.32
  L 78.51 214.14
  Q 76.36 214.10 76.69 212.12
  C 78.02 204.01 69.06 204.39 64.17 205.94
  Q 61.50 206.79 61.50 209.59
  Q 61.50 220.09 61.50 230.66
  Q 61.50 234.99 61.58 235.33
  C 62.56 239.61 69.87 238.97 73.31 238.31
  C 77.93 237.43 77.01 231.45 76.81 228.07
  A 0.49 0.48 -1.7 0 1 77.30 227.56
  L 90.39 227.69
  Z"
/>
<path fill="#ffffff" d="
  M 136.31 237.94
  L 159.81 238.18
  A 0.57 0.51 -0.0 0 1 160.38 238.69
  L 160.37 244.57
  A 0.55 0.49 -0.0 0 1 159.82 245.06
  L 121.15 245.26
  A 0.90 0.89 -0.0 0 1 120.25 244.37
  L 120.43 198.70
  A 0.55 0.52 -90.0 0 1 120.94 198.16
  L 134.93 198.03
  A 0.87 0.83 89.7 0 1 135.77 198.90
  L 135.81 237.44
  A 0.51 0.50 0.6 0 0 136.31 237.94
  Z"
/>
<path fill="#ffffff" d="
  M 215.25 236.03
  L 198.69 236.20
  A 0.74 0.62 6.2 0 0 198.02 236.65
  L 195.74 244.29
  A 1.26 1.13 -80.6 0 1 194.61 245.19
  L 181.82 244.96
  A 0.38 0.38 -80.3 0 1 181.47 244.46
  L 196.53 198.67
  A 0.74 0.68 -79.9 0 1 197.19 198.17
  L 218.57 198.17
  A 0.71 0.67 80.5 0 1 219.22 198.66
  L 234.33 244.75
  A 0.34 0.33 80.9 0 1 234.02 245.19
  L 220.38 245.24
  Q 218.58 245.25 218.31 243.44
  Q 217.74 239.51 216.00 236.43
  A 0.87 0.78 -13.7 0 0 215.25 236.03
  Z
  M 207.04 207.12
  L 200.33 229.33
  A 0.39 0.37 -80.9 0 0 200.68 229.84
  L 213.56 229.85
  A 0.40 0.38 81.1 0 0 213.92 229.33
  L 207.08 207.12
  Q 207.06 207.05 207.04 207.12
  Z"
/>
<path fill="#ffffff" d="
  M 257.94 204.69
  C 263.30 196.61 280.37 197.44 288.50 198.73
  C 295.99 199.92 301.08 203.52 300.99 211.48
  A 0.53 0.52 -89.4 0 1 300.47 212.00
  L 287.27 212.00
  A 0.83 0.83 -88.4 0 1 286.44 211.12
  C 286.87 204.57 280.43 204.66 276.12 205.47
  C 271.75 206.29 270.25 209.62 273.31 213.19
  C 279.67 220.60 301.29 222.17 301.05 234.48
  C 300.82 246.73 281.79 246.26 273.50 245.75
  C 265.21 245.24 254.68 242.66 256.12 231.69
  A 0.60 0.57 -87.1 0 1 256.68 231.16
  L 269.18 231.03
  A 1.38 1.33 -89.4 0 1 270.53 232.46
  Q 270.40 236.88 273.15 238.07
  C 276.82 239.65 288.80 239.19 285.33 232.59
  C 280.95 224.26 248.15 219.44 257.94 204.69
  Z"
/>
<path fill="#ffffff" d="
  M 326.94 204.69
  C 330.73 198.66 341.42 197.84 347.63 197.94
  C 355.95 198.07 371.35 199.19 369.88 211.56
  A 0.57 0.57 3.4 0 1 369.31 212.06
  L 356.44 212.00
  A 0.99 0.98 2.4 0 1 355.45 210.94
  Q 355.77 206.73 352.48 205.84
  C 348.22 204.69 337.56 204.74 341.56 212.19
  C 343.65 216.07 357.35 221.48 361.69 223.56
  C 365.61 225.45 369.82 229.38 370.12 233.97
  C 371.02 247.44 346.98 246.43 339.00 245.47
  C 331.60 244.58 323.47 240.58 325.39 231.49
  A 0.62 0.61 6.1 0 1 326.01 231.00
  L 338.15 231.05
  A 1.41 1.39 -89.0 0 1 339.54 232.51
  Q 339.37 237.79 343.30 238.52
  C 346.15 239.04 352.08 239.27 354.13 236.71
  C 359.05 230.58 340.35 223.52 336.80 221.96
  C 329.84 218.88 321.99 212.54 326.94 204.69
  Z"
/>
<rect fill="#ffffff" x="-7.69" y="-23.61" transform="translate(404.06,221.62) rotate(0.2)" width="15.38" height="47.22" rx="0.51"/>
<path fill="#ffffff" d="
  M 440.73 204.64
  C 447.00 196.08 468.95 196.51 478.03 200.75
  Q 485.21 204.10 484.11 213.48
  A 0.88 0.88 -86.3 0 1 483.24 214.25
  L 470.67 214.25
  A 0.92 0.92 0.1 0 1 469.75 213.33
  Q 469.75 211.75 469.83 210.25
  C 470.13 204.21 461.08 204.74 457.50 205.75
  C 454.22 206.67 454.50 209.11 454.50 212.37
  Q 454.50 223.68 454.50 235.01
  Q 454.50 236.83 456.15 237.59
  C 459.67 239.22 469.20 240.11 469.71 234.75
  Q 470.02 231.40 469.81 228.05
  A 0.47 0.47 0.5 0 1 470.31 227.56
  Q 476.28 228.01 483.13 227.42
  A 1.00 1.00 -3.3 0 1 484.21 228.38
  C 484.46 235.12 484.69 239.75 477.89 243.14
  C 470.08 247.04 441.90 249.07 439.34 236.03
  Q 439.25 235.57 439.25 225.96
  Q 439.25 217.58 439.25 209.15
  Q 439.25 206.65 440.73 204.64
  Z"
/>
<path fill="#ffffff" d="
  M 513.44 215.31
  C 508.18 208.07 513.82 201.09 521.28 199.38
  C 530.41 197.28 557.80 195.36 555.88 211.56
  A 0.57 0.57 3.4 0 1 555.31 212.06
  L 542.06 211.94
  A 0.45 0.43 -86.4 0 1 541.64 211.44
  C 542.60 203.77 530.34 203.66 527.45 207.24
  C 522.45 213.43 541.18 220.51 547.19 223.31
  C 558.26 228.48 559.71 239.88 547.52 244.24
  C 538.19 247.58 508.63 248.62 511.23 231.56
  A 0.60 0.58 -85.4 0 1 511.81 231.05
  L 524.42 231.04
  A 1.21 1.18 -87.7 0 1 525.59 232.34
  C 525.37 235.20 525.35 237.05 528.45 238.06
  C 531.37 239.01 538.42 239.60 540.37 236.36
  C 544.09 230.15 526.62 223.66 522.80 221.97
  Q 516.12 219.00 513.44 215.31
  Z"
/>
<path fill="#000000" d="
  M 207.04 207.12
  Q 207.06 207.05 207.08 207.12
  L 213.92 229.33
  A 0.40 0.38 81.1 0 1 213.56 229.85
  L 200.68 229.84
  A 0.39 0.37 -80.9 0 1 200.33 229.33
  L 207.04 207.12
  Z"
/>
</svg>
