<?xml version="1.0" encoding="UTF-8" standalone="no"?>
<!DOCTYPE svg PUBLIC "-//W3C//DTD SVG 1.1//EN" "http://www.w3.org/Graphics/SVG/1.1/DTD/svg11.dtd">
<svg xmlns="http://www.w3.org/2000/svg" version="1.1" viewBox="0 0 600 300">
<path fill="#000000" d="
  M 109.56 0.00
  L 490.56 0.00
  Q 516.34 3.32 519.60 25.77
  Q 520.00 28.48 520.00 45.75
  Q 520.01 155.62 520.13 265.50
  C 520.16 285.91 510.96 297.53 490.44 300.00
  L 109.69 300.00
  Q 84.03 296.95 80.51 274.73
  Q 80.00 271.50 80.00 254.75
  Q 80.00 150.25 80.00 45.76
  Q 80.00 28.48 80.39 25.77
  Q 83.66 3.24 109.56 0.00
  Z
  M 191.31 4.95
  C 163.68 4.92 135.76 4.48 110.75 5.00
  C 96.42 5.30 85.03 14.82 85.01 29.75
  C 84.93 99.26 84.62 168.35 84.95 238.30
  C 84.99 246.31 84.68 258.12 85.00 268.06
  Q 85.25 275.88 86.99 280.18
  C 94.54 298.82 117.54 294.93 133.81 295.08
  C 219.02 295.86 317.70 294.83 477.42 295.24
  C 484.25 295.26 492.11 295.58 498.88 293.02
  Q 514.94 286.95 514.95 269.50
  Q 515.00 150.00 514.96 30.50
  C 514.95 13.47 502.96 5.13 487.00 5.00
  C 388.47 4.18 289.86 5.03 191.31 4.95
  Z"
/>
<path fill="#000000" d="
  M 161.25 75.00
  C 170.42 97.24 200.87 97.45 212.01 76.69
  A 0.64 0.64 14.2 0 0 211.45 75.75
  L 188.34 75.82
  A 0.59 0.59 -0.5 0 1 187.75 75.23
  L 187.75 63.92
  A 0.67 0.67 -90.0 0 1 188.42 63.25
  L 226.37 63.31
  A 0.84 0.83 -88.1 0 1 227.20 64.21
  Q 225.73 85.92 209.58 96.95
  C 180.32 116.95 141.03 91.75 147.61 56.84
  C 154.88 18.33 206.26 12.29 223.51 47.52
  A 0.35 0.32 -11.9 0 1 223.18 47.99
  L 211.46 47.85
  A 3.28 2.55 -16.0 0 1 209.22 46.95
  Q 201.80 38.68 192.35 36.73
  C 170.12 32.14 152.75 54.40 161.25 75.00
  Z"
/>
<path fill="#000000" d="
  M 221.31 101.21
  Q 220.42 101.53 219.64 101.05
  A 0.53 0.48 -57.0 0 1 219.53 100.33
  L 269.41 25.35
  A 0.98 0.90 -71.9 0 1 270.19 24.91
  L 281.91 24.77
  A 0.87 0.83 89.7 0 1 282.75 25.64
  L 282.75 100.24
  A 0.98 0.94 -89.7 0 1 281.80 101.22
  L 270.45 101.09
  A 0.53 0.52 0.0 0 1 269.92 100.57
  L 269.77 85.33
  A 0.66 0.65 89.6 0 0 269.12 84.68
  L 246.34 84.74
  A 1.72 1.70 16.6 0 0 244.94 85.49
  L 235.30 100.03
  A 2.01 1.97 -75.8 0 1 233.87 100.90
  Q 227.67 101.59 222.26 101.05
  Q 221.84 101.01 221.31 101.21
  Z
  M 268.57 49.73
  L 254.59 70.81
  Q 253.97 71.75 255.08 71.75
  L 268.88 71.75
  A 0.87 0.87 0.0 0 0 269.75 70.88
  L 269.70 50.06
  Q 269.69 48.04 268.57 49.73
  Z"
/>
<path fill="#000000" d="
  M 336.41 49.05
  L 302.46 100.33
  A 2.05 1.95 -72.0 0 1 300.76 101.25
  L 287.23 101.00
  Q 286.53 100.99 286.92 100.40
  L 336.57 25.79
  A 2.34 2.27 -72.4 0 1 338.50 24.75
  L 349.47 24.80
  A 0.79 0.78 -89.6 0 1 350.24 25.59
  L 350.08 75.54
  Q 350.07 77.99 351.43 75.95
  L 385.15 25.36
  A 1.02 0.90 -71.3 0 1 385.94 24.91
  L 397.68 24.79
  A 0.53 0.51 90.0 0 1 398.19 25.32
  L 398.25 99.92
  A 1.33 1.33 -88.9 0 1 396.92 101.25
  L 386.34 101.25
  A 1.09 1.09 89.8 0 1 385.25 100.16
  L 385.31 50.02
  Q 385.32 48.05 384.22 49.69
  L 350.53 100.33
  A 1.16 1.14 -77.3 0 1 349.76 100.83
  Q 345.55 101.52 341.27 101.31
  C 337.08 101.11 337.27 101.84 337.25 97.37
  Q 337.12 73.59 337.43 49.81
  A 0.98 0.46 -85.4 0 0 337.11 48.95
  L 336.84 48.83
  A 0.45 0.30 -60.7 0 0 336.41 49.05
  Z"
/>
<path fill="#000000" d="
  M 422.03 38.31
  Q 421.55 45.99 421.73 53.68
  C 421.82 57.40 421.37 57.25 425.23 57.25
  Q 436.62 57.25 448.02 57.25
  A 0.69 0.66 -89.6 0 1 448.68 57.95
  L 448.53 69.30
  A 0.95 0.90 -89.1 0 1 447.62 70.23
  L 422.69 70.07
  A 0.94 0.92 0.0 0 0 421.75 70.99
  L 421.75 87.26
  A 0.93 0.92 -0.3 0 0 422.69 88.18
  L 447.94 88.00
  A 0.79 0.74 -90.0 0 1 448.69 88.80
  L 448.52 100.01
  A 1.20 1.15 -89.7 0 1 447.38 101.19
  L 410.03 101.25
  A 1.03 1.02 -0.0 0 1 409.00 100.23
  L 409.00 25.63
  A 0.88 0.87 90.0 0 1 409.87 24.75
  L 447.94 24.81
  A 0.50 0.50 0.0 0 1 448.44 25.31
  L 448.57 37.12
  A 0.63 0.62 -0.4 0 1 447.94 37.75
  L 422.57 37.81
  A 0.54 0.53 1.7 0 0 422.03 38.31
  Z"
/>
<path fill="#000000" d="
  M 302.30 145.57
  A 0.76 0.74 -42.0 0 0 302.22 146.72
  L 311.07 154.89
  A 0.85 0.83 -57.2 0 0 312.40 154.58
  L 318.35 141.10
  A 1.13 1.04 10.4 0 1 319.35 140.47
  L 330.03 140.35
  A 0.89 0.87 11.5 0 1 330.86 141.57
  L 321.04 163.62
  A 0.60 0.60 -56.7 0 0 321.18 164.30
  L 338.31 180.14
  A 0.98 0.97 -46.6 0 1 338.34 181.53
  L 331.43 188.68
  A 0.66 0.64 -46.6 0 1 330.52 188.72
  L 316.62 175.75
  A 0.97 0.96 33.7 0 0 315.07 176.05
  C 307.44 193.29 281.78 196.12 272.56 179.25
  C 265.88 167.03 269.84 153.71 281.70 146.43
  A 1.33 1.33 -40.8 0 0 281.86 144.27
  C 271.28 135.41 273.17 119.40 286.85 114.65
  C 295.06 111.79 306.27 115.85 309.38 124.84
  C 312.05 132.59 308.71 140.72 302.30 145.57
  Z
  M 298.13 132.46
  C 302.61 120.36 274.67 125.40 292.28 137.91
  A 0.81 0.80 -42.2 0 0 293.15 137.95
  Q 296.90 135.78 298.13 132.46
  Z
  M 291.41 153.85
  C 285.12 157.66 279.02 162.47 281.44 170.81
  C 283.43 177.69 289.79 179.92 296.15 178.51
  C 302.04 177.21 303.84 172.63 306.57 167.88
  A 1.19 1.18 -53.8 0 0 306.35 166.41
  L 292.86 153.99
  A 1.21 1.20 -39.4 0 0 291.41 153.85
  Z"
/>
<path fill="#000000" d="
  M 359.28 276.90
  C 339.42 273.89 324.50 255.41 325.64 235.61
  C 327.99 195.07 380.34 183.08 400.63 218.55
  A 0.30 0.30 75.3 0 1 400.37 219.00
  L 387.47 219.00
  A 3.61 3.58 -24.5 0 1 385.12 218.13
  Q 372.91 207.64 359.41 210.77
  C 336.60 216.07 330.21 246.12 349.30 259.42
  C 361.18 267.70 374.89 266.26 385.50 256.41
  A 2.47 2.44 -66.2 0 1 387.17 255.75
  L 400.07 255.75
  Q 401.10 255.75 400.57 256.63
  C 391.64 271.50 376.34 279.49 359.28 276.90
  Z"
/>
<path fill="#000000" d="
  M 195.93 224.98
  Q 195.93 223.19 194.95 224.68
  L 161.30 275.39
  A 1.92 1.90 -73.0 0 1 159.71 276.25
  L 148.31 276.25
  A 0.56 0.56 0.0 0 1 147.75 275.69
  L 147.75 200.50
  A 0.50 0.50 0.0 0 1 148.25 200.00
  L 160.02 199.92
  A 0.48 0.47 -0.6 0 1 160.50 200.38
  Q 161.08 226.09 160.58 251.27
  Q 160.54 253.10 161.55 251.57
  L 195.12 201.04
  A 2.33 2.33 16.8 0 1 197.06 200.00
  L 207.83 200.00
  A 0.92 0.92 0.0 0 1 208.75 200.92
  L 208.75 251.57
  Q 208.75 252.92 209.50 251.79
  L 243.40 200.68
  A 1.65 1.53 15.0 0 1 244.73 199.98
  L 258.78 199.82
  Q 259.48 199.81 259.10 200.38
  L 208.97 275.76
  A 0.98 0.90 -71.9 0 1 208.19 276.20
  L 196.32 276.20
  A 0.52 0.51 -90.0 0 1 195.81 275.68
  L 195.93 224.98
  Z"
/>
<path fill="#000000" d="
  M 267.19 260.06
  L 244.57 259.82
  A 1.05 0.88 14.7 0 0 243.76 260.20
  L 233.33 275.37
  A 2.06 1.80 -70.5 0 1 231.76 276.25
  L 217.98 276.25
  Q 217.15 276.25 217.61 275.56
  L 267.49 200.48
  A 1.08 1.08 16.7 0 1 268.39 200.00
  L 279.90 200.00
  A 0.85 0.85 -0.0 0 1 280.75 200.85
  L 280.69 275.69
  A 0.51 0.50 -90.0 0 1 280.19 276.20
  L 268.32 276.20
  A 0.52 0.51 -90.0 0 1 267.81 275.68
  L 267.69 260.56
  A 0.50 0.50 0.0 0 0 267.19 260.06
  Z
  M 266.70 224.92
  L 252.71 245.96
  Q 252.03 246.97 253.22 246.96
  L 267.06 246.84
  A 0.54 0.52 -90.0 0 0 267.57 246.31
  L 267.92 225.29
  Q 267.96 223.03 266.70 224.92
  Z"
/>
<path fill="#000000" d="
  M 286.19 200.45
  A 0.48 0.45 -0.0 0 1 286.67 200.00
  L 327.94 200.00
  A 0.56 0.56 0.0 0 1 328.50 200.56
  L 328.50 212.12
  A 0.88 0.88 0.6 0 1 327.60 213.00
  L 315.08 212.73
  A 1.24 1.24 0.7 0 0 313.81 213.97
  L 313.69 275.70
  A 0.50 0.49 -90.0 0 1 313.20 276.20
  L 301.58 276.20
  A 0.87 0.84 89.7 0 1 300.74 275.34
  L 300.57 213.44
  A 0.52 0.50 90.0 0 0 300.07 212.92
  L 287.57 212.97
  A 1.54 1.42 0.4 0 1 286.03 211.53
  L 286.19 200.45
  Z"
/>
<path fill="#000000" d="
  M 417.56 244.06
  L 417.50 275.47
  A 0.72 0.70 90.0 0 1 416.80 276.19
  L 405.16 276.25
  A 0.67 0.66 90.0 0 1 404.50 275.58
  L 404.50 200.66
  A 0.66 0.66 -0.2 0 1 405.16 200.00
  L 416.69 200.00
  A 0.81 0.81 0.0 0 1 417.50 200.81
  L 417.43 230.17
  A 0.58 0.58 89.9 0 0 418.01 230.75
  L 440.46 230.75
  A 0.81 0.80 -90.0 0 0 441.26 229.94
  L 441.43 200.69
  A 0.53 0.52 -90.0 0 1 441.95 200.16
  L 453.42 200.02
  A 0.78 0.76 89.6 0 1 454.19 200.80
  L 454.25 275.44
  A 0.81 0.81 0.0 0 1 453.44 276.25
  L 441.92 276.25
  A 0.69 0.68 89.6 0 1 441.24 275.57
  L 441.07 244.19
  A 0.51 0.49 -0.0 0 0 440.56 243.70
  L 418.06 243.58
  A 0.50 0.48 -0.0 0 0 417.56 244.06
  Z"
/>
</svg>
