<?xml version="1.0" encoding="UTF-8" standalone="no"?>
<!DOCTYPE svg PUBLIC "-//W3C//DTD SVG 1.1//EN" "http://www.w3.org/Graphics/SVG/1.1/DTD/svg11.dtd">
<svg xmlns="http://www.w3.org/2000/svg" version="1.1" viewBox="0 0 600 300">
<g stroke-width="2.00" fill="none" stroke-linecap="butt">
<path stroke="#731e2e" vector-effect="non-scaling-stroke" d="
  M 304.25 217.81
  L 288.30 224.33"
/>
<path stroke="#f29dae" vector-effect="non-scaling-stroke" d="
  M 288.30 224.33
  Q 279.60 227.08 278.00 227.75
  Q 272.44 230.09 272.46 224.50"
/>
<path stroke="#731e2e" vector-effect="non-scaling-stroke" d="
  M 272.46 224.50
  L 272.71 217.75"
/>
<path stroke="#731e2e" vector-effect="non-scaling-stroke" d="
  M 186.68 221.61
  Q 181.70 222.94 177.00 225.46"
/>
<path stroke="#f29dae" vector-effect="non-scaling-stroke" d="
  M 177.00 225.46
  Q 166.94 228.46 157.11 232.63"
/>
<path stroke="#731e2e" vector-effect="non-scaling-stroke" d="
  M 157.11 232.63
  L 146.60 236.67
  A 0.81 0.71 -31.0 0 1 145.77 236.52
  Q 144.20 234.92 143.71 232.75"
/>
<path stroke="#f29dae" vector-effect="non-scaling-stroke" d="
  M 143.71 232.75
  Q 144.44 228.87 143.71 225.00"
/>
<path stroke="#731e2e" vector-effect="non-scaling-stroke" d="
  M 143.71 225.00
  L 143.99 217.94"
/>
<path stroke="#000000" vector-effect="non-scaling-stroke" d="
  M 332.96 241.00
  Q 332.22 245.02 333.71 242.25"
/>
<path stroke="#808080" vector-effect="non-scaling-stroke" d="
  M 272.46 224.50
  L 237.69 224.68
  A 0.52 0.50 90.0 0 0 237.19 225.20
  L 237.31 282.18
  A 0.52 0.51 90.0 0 0 237.82 282.70
  L 247.89 282.74
  A 0.87 0.85 -89.7 0 0 248.75 281.87
  L 248.75 260.06
  A 0.56 0.56 0.0 0 1 249.31 259.50
  Q 274.53 259.50 299.16 259.50
  Q 304.92 259.50 307.63 260.76
  C 316.49 264.85 314.66 274.22 314.80 282.19
  A 0.52 0.52 89.4 0 0 315.32 282.70
  L 325.39 282.74
  A 0.87 0.85 -89.7 0 0 326.25 281.87
  C 326.25 271.50 327.08 265.01 319.55 256.93
  A 0.45 0.45 -41.5 0 1 319.59 256.29
  C 334.38 243.86 323.86 222.62 305.25 224.50
  Q 302.26 224.80 288.30 224.33"
/>
<path stroke="#808080" vector-effect="non-scaling-stroke" d="
  M 143.71 232.75
  L 123.55 232.75
  A 0.56 0.56 0.0 0 0 122.99 233.31
  L 122.99 273.96
  A 0.79 0.79 89.8 0 0 123.78 274.75
  Q 139.36 274.75 154.96 274.75
  Q 168.93 274.75 170.51 274.47
  C 192.14 270.63 193.05 239.21 171.90 233.46
  C 167.63 232.30 162.05 232.81 157.11 232.63"
/>
<path stroke="#808080" vector-effect="non-scaling-stroke" d="
  M 143.71 225.00
  L 111.98 224.76
  A 0.74 0.73 -90.0 0 0 111.25 225.50
  L 111.25 282.19
  A 0.56 0.56 0.0 0 0 111.81 282.75
  Q 135.21 282.75 158.14 282.75
  Q 174.59 282.75 177.80 282.07
  C 189.46 279.58 197.65 270.06 199.60 258.43
  C 202.20 242.87 192.18 229.16 177.00 225.46"
/>
<path stroke="#731e2e" vector-effect="non-scaling-stroke" d="
  M 153.27 218.06
  Q 152.77 220.46 153.97 222.35
  A 0.75 0.69 -21.5 0 0 154.74 222.65
  Q 161.26 221.26 167.25 218.29"
/>
<path stroke="#808080" vector-effect="non-scaling-stroke" d="
  M 582.44 213.67
  C 581.25 218.80 572.40 217.37 568.50 217.24
  C 556.25 216.84 556.20 227.34 556.52 236.39
  A 0.64 0.63 -0.9 0 0 557.16 237.00
  L 591.49 237.06
  A 0.51 0.51 0.0 0 0 592.00 236.55
  L 592.00 230.06
  A 0.58 0.57 0.5 0 0 591.43 229.49
  L 567.18 229.32
  A 0.49 0.49 -88.9 0 1 566.69 228.81
  C 567.04 220.59 580.55 225.09 585.88 222.88
  C 591.75 220.44 593.67 212.49 590.43 207.31
  C 587.89 203.23 583.94 202.00 579.25 202.00
  Q 570.25 202.00 561.24 202.00
  A 1.25 1.22 -0.2 0 0 559.99 203.23
  L 560.04 207.97
  A 0.88 0.84 -0.3 0 0 560.93 208.81
  C 565.30 208.71 577.93 207.86 581.12 210.16
  Q 582.95 211.47 582.44 213.67"
/>
<path stroke="#808080" vector-effect="non-scaling-stroke" d="
  M 494.69 233.06
  L 494.81 282.18
  A 0.52 0.50 90.0 0 0 495.31 282.70
  L 504.94 282.70
  A 0.51 0.50 -90.0 0 0 505.44 282.19
  Q 505.55 258.93 505.74 235.68
  C 505.75 234.86 505.27 233.92 505.56 232.97
  A 0.74 0.67 8.0 0 1 506.25 232.50
  C 515.17 232.49 529.62 229.90 533.70 239.79
  Q 535.00 242.95 534.99 253.37
  Q 534.97 267.52 535.06 281.68
  A 0.52 0.50 90.0 0 0 535.56 282.20
  L 546.19 282.20
  A 0.51 0.50 -90.0 0 0 546.69 281.69
  Q 546.78 266.63 546.76 251.56
  C 546.75 239.45 547.88 230.44 536.55 225.90
  Q 533.21 224.56 527.13 224.55
  Q 501.27 224.47 475.41 224.49
  C 460.29 224.51 453.50 229.26 453.50 245.12
  Q 453.50 263.43 453.50 281.73
  A 0.52 0.52 0.0 0 0 454.02 282.25
  L 464.71 282.25
  A 0.55 0.55 0.0 0 0 465.26 281.70
  Q 465.09 264.14 465.42 247.15
  C 465.78 229.03 481.89 232.21 494.18 232.55
  A 0.52 0.51 0.6 0 1 494.69 233.06"
/>
<path stroke="#808080" vector-effect="non-scaling-stroke" d="
  M 338.32 250.24
  C 336.43 265.29 348.24 282.25 364.50 282.25
  Q 389.00 282.25 413.50 282.03
  Q 420.23 281.96 425.93 278.43
  C 446.63 265.58 444.12 233.56 420.25 225.95
  Q 415.69 224.50 406.08 224.49
  Q 388.53 224.47 370.98 224.54
  Q 362.16 224.57 357.80 225.99
  C 346.80 229.57 339.76 238.74 338.32 250.24"
/>
<path stroke="#808080" vector-effect="non-scaling-stroke" d="
  M 223.6330 254.4544
  A 4.10 4.10 0.0 0 0 219.5762 250.3117
  L 215.4764 250.2688
  A 4.10 4.10 0.0 0 0 211.3337 254.3256
  L 211.3270 254.9656
  A 4.10 4.10 0.0 0 0 215.3838 259.1083
  L 219.4836 259.1512
  A 4.10 4.10 0.0 0 0 223.6263 255.0944
  L 223.6330 254.4544"
/>
<path stroke="#808080" vector-effect="non-scaling-stroke" d="
  M 55.58 233.10
  Q 75.34 233.16 95.85 232.99
  A 0.74 0.73 89.6 0 0 96.58 232.24
  L 96.50 225.32
  A 0.58 0.57 89.5 0 0 95.93 224.75
  Q 67.25 224.75 38.75 224.80
  C 5.32 224.85 -2.10 271.70 28.90 281.37
  Q 33.31 282.75 44.76 282.75
  Q 69.90 282.75 95.89 282.75
  A 0.59 0.59 0.0 0 0 96.48 282.16
  L 96.45 275.30
  A 0.52 0.49 -0.0 0 0 95.93 274.81
  Q 69.97 274.71 44.01 274.74
  Q 38.19 274.75 34.67 273.49
  C 21.14 268.64 17.24 253.76 24.78 242.14
  C 31.69 231.48 41.42 233.05 55.58 233.10"
/>
<path stroke="#808080" vector-effect="non-scaling-stroke" d="
  M 303.09 250.50
  C 309.35 250.50 316.85 246.95 314.44 239.31
  C 312.49 233.14 306.68 232.75 300.75 232.75
  Q 275.25 232.75 249.56 232.75
  A 0.56 0.56 0.0 0 0 249.00 233.31
  L 249.00 250.00
  A 0.50 0.50 0.0 0 0 249.50 250.50
  Q 276.29 250.50 303.09 250.50"
/>
<path stroke="#808080" vector-effect="non-scaling-stroke" d="
  M 363.94 234.16
  C 341.90 242.18 348.19 274.67 372.00 274.72
  Q 385.22 274.74 398.44 274.75
  Q 409.84 274.75 413.91 273.34
  C 432.95 266.72 431.74 239.28 413.03 233.75
  Q 409.66 232.75 394.87 232.75
  C 385.83 232.75 371.91 231.26 363.94 234.16"
/>
</g>
<path fill="#e53b5c" d="
  M 297.85 36.80
  A 1.96 1.94 77.2 0 0 296.75 38.56
  L 296.75 76.01
  Q 296.75 78.83 299.42 77.94
  Q 305.67 75.87 312.00 73.49
  C 317.47 71.44 311.66 66.43 318.10 64.49
  A 1.27 1.26 -19.3 0 1 319.65 65.23
  L 324.67 78.08
  A 1.61 1.59 55.8 0 1 324.36 79.74
  Q 315.78 89.23 307.22 98.48
  Q 304.70 101.20 301.95 102.49
  C 284.96 110.51 269.32 107.33 269.54 85.25
  Q 269.70 69.11 269.74 52.98
  Q 269.76 42.15 271.19 37.17
  C 275.14 23.32 285.63 16.10 298.67 11.39
  C 309.55 7.47 322.85 1.38 329.89 4.17
  Q 343.21 9.44 341.90 25.99
  Q 341.70 28.59 339.26 29.46
  L 317.57 37.21
  Q 314.83 38.19 315.24 35.31
  C 316.08 29.35 312.51 31.47 309.56 32.34
  Q 303.29 34.19 297.85 36.80
  Z"
/>
<path fill="#e53b5c" d="
  M 304.25 217.81
  L 288.30 224.33
  Q 279.60 227.08 278.00 227.75
  Q 272.44 230.09 272.46 224.50
  L 272.71 217.75
  Q 272.77 210.05 272.76 202.35
  C 272.75 198.17 272.02 196.20 276.25 195.00
  C 283.17 193.03 293.87 190.79 297.19 183.69
  Q 298.45 180.99 295.56 182.56
  Q 285.74 187.92 274.55 187.58
  A 0.64 0.60 -81.4 0 0 273.95 188.05
  Q 273.46 189.94 272.19 190.44
  Q 257.88 196.07 243.90 201.35
  Q 241.25 202.35 241.25 199.52
  L 241.19 164.17
  A 1.11 1.11 -6.9 0 0 239.81 163.09
  C 234.24 164.48 235.00 167.46 235.00 172.81
  Q 235.00 187.60 235.00 203.05
  A 0.87 0.86 79.8 0 1 234.44 203.86
  L 186.68 221.61
  Q 181.70 222.94 177.00 225.46
  Q 166.94 228.46 157.11 232.63
  L 146.60 236.67
  A 0.81 0.71 -31.0 0 1 145.77 236.52
  Q 144.20 234.92 143.71 232.75
  Q 144.44 228.87 143.71 225.00
  L 143.99 217.94
  Q 144.01 174.38 144.00 131.29
  C 144.00 128.43 143.64 126.51 146.82 125.32
  Q 170.66 116.37 194.20 107.70
  A 0.94 0.92 -10.5 0 0 194.81 106.83
  L 195.00 49.35
  A 0.84 0.83 -10.1 0 1 195.55 48.57
  Q 216.89 40.83 238.28 33.25
  Q 243.70 31.32 246.94 31.12
  C 253.79 30.68 261.43 33.36 264.34 39.86
  Q 265.75 42.99 265.75 50.35
  C 265.75 58.98 266.47 69.29 264.73 76.80
  C 260.09 96.74 245.24 101.24 227.46 107.92
  C 223.73 109.32 221.17 109.62 221.38 113.68
  C 221.73 120.73 221.43 127.67 221.72 134.44
  Q 221.85 137.73 224.95 136.60
  Q 234.29 133.20 243.56 129.81
  C 252.21 126.65 257.63 124.33 265.05 128.00
  Q 267.40 129.16 268.95 127.05
  C 275.51 118.16 283.66 115.40 293.72 112.13
  Q 295.44 111.57 294.20 112.89
  Q 287.10 120.48 280.59 127.82
  C 276.91 131.97 273.07 132.84 273.39 139.71
  C 273.79 148.58 273.50 157.61 273.50 166.50
  C 273.50 175.40 276.06 178.61 285.25 175.50
  Q 296.39 171.73 307.55 167.99
  C 311.33 166.72 311.47 167.77 311.51 171.23
  C 311.75 190.99 299.65 196.85 283.71 203.26
  A 1.07 0.98 -12.0 0 0 283.03 204.21
  L 283.22 213.90
  A 1.31 1.24 -11.6 0 0 284.99 215.00
  Q 292.81 212.02 300.50 208.74
  C 311.05 204.24 322.68 187.52 322.79 176.02
  Q 323.09 145.20 322.74 113.48
  Q 322.71 110.95 320.40 111.94
  L 293.89 123.33
  A 0.44 0.29 -15.3 0 1 293.30 123.14
  C 293.33 122.70 330.01 100.40 333.62 98.16
  Q 336.73 96.24 340.64 95.14
  A 1.14 1.00 -32.5 0 1 341.57 95.28
  L 354.36 104.44
  A 1.06 0.94 -74.8 0 1 354.76 105.25
  L 354.94 148.61
  A 0.96 0.96 80.8 0 0 356.20 149.52
  L 365.07 146.56
  A 1.00 0.99 -9.5 0 0 365.75 145.62
  Q 365.75 128.00 365.75 111.00
  Q 365.75 107.04 368.75 106.00
  Q 376.97 103.17 385.12 100.18
  C 389.46 98.60 390.80 98.80 390.74 103.89
  Q 390.57 120.06 390.99 135.70
  A 1.14 1.13 80.0 0 0 392.48 136.76
  L 401.04 133.83
  A 2.20 2.16 80.7 0 0 402.50 131.76
  Q 402.50 111.87 402.50 93.00
  C 402.50 86.25 397.12 84.61 391.53 86.49
  Q 375.76 91.81 360.20 97.68
  A 0.58 0.56 -23.8 0 1 359.48 97.41
  L 356.09 90.34
  A 0.83 0.81 -23.3 0 1 356.55 89.22
  Q 372.47 83.29 388.67 77.53
  C 395.20 75.21 399.96 75.23 405.81 78.26
  A 1.03 0.95 45.0 0 0 406.71 78.30
  C 409.25 77.11 409.77 74.81 411.20 73.33
  Q 416.74 67.63 425.19 64.44
  Q 438.32 59.47 451.68 55.16
  C 460.30 52.38 470.11 55.91 472.50 65.25
  C 473.66 69.78 473.13 82.05 471.01 87.23
  A 0.84 0.81 37.2 0 0 471.14 88.07
  Q 472.78 90.13 472.61 92.80
  C 472.17 99.87 472.50 107.23 472.50 114.34
  C 472.50 116.98 473.00 118.13 470.00 119.25
  Q 439.88 130.49 426.61 135.17
  C 422.43 136.64 418.75 136.29 414.38 136.24
  A 0.88 0.88 -88.7 0 0 413.49 137.09
  C 413.36 140.01 411.46 140.46 409.14 141.31
  Q 396.22 146.02 382.71 150.69
  A 1.10 1.10 -9.5 0 1 381.25 149.65
  L 381.25 115.25
  Q 381.25 111.57 378.00 113.25
  C 375.42 114.58 375.75 116.19 375.75 118.70
  Q 375.76 135.83 375.75 152.20
  A 2.24 2.23 -10.2 0 1 374.29 154.29
  L 334.45 168.95
  A 1.47 1.46 80.1 0 0 333.50 170.31
  C 333.40 192.03 322.72 206.97 304.25 217.81
  Z
  M 223.25 84.48
  C 227.50 83.41 239.35 80.90 239.30 75.25
  Q 239.25 68.37 239.40 61.50
  Q 239.50 56.81 235.71 58.33
  C 231.57 60.00 227.33 61.43 223.04 63.29
  A 1.74 1.72 78.4 0 0 222.00 64.88
  L 222.00 83.51
  A 1.00 1.00 -7.2 0 0 223.25 84.48
  Z
  M 428.19 73.44
  C 422.12 75.73 413.91 82.78 413.50 89.50
  Q 412.83 100.31 413.38 116.79
  C 413.61 123.50 417.14 127.37 424.28 124.98
  Q 442.16 118.98 461.81 112.02
  A 1.71 1.65 -10.0 0 0 462.95 110.45
  L 463.00 101.58
  Q 463.01 99.27 460.83 100.06
  L 428.23 111.76
  Q 426.32 112.44 425.36 110.67
  Q 422.52 105.43 427.99 103.48
  Q 440.01 99.19 451.94 94.69
  Q 458.94 92.04 461.75 85.12
  C 463.05 81.93 463.61 70.55 461.90 67.50
  C 459.88 63.91 454.93 63.77 451.40 65.15
  C 442.67 68.57 434.49 71.06 428.19 73.44
  Z
  M 344.82 153.36
  L 344.99 105.81
  Q 345.00 103.57 343.03 104.30
  L 333.97 107.65
  A 0.80 0.71 81.2 0 0 333.50 108.38
  L 333.56 156.49
  A 1.13 1.04 81.0 0 0 334.95 157.59
  L 344.07 154.49
  A 1.24 1.11 81.7 0 0 344.82 153.36
  Z
  M 153.27 218.06
  Q 152.77 220.46 153.97 222.35
  A 0.75 0.69 -21.5 0 0 154.74 222.65
  Q 161.26 221.26 167.25 218.29
  L 202.47 205.79
  A 1.59 1.55 80.4 0 0 203.50 204.30
  L 203.50 195.49
  Q 203.50 192.87 201.04 193.76
  L 166.74 206.11
  Q 164.75 206.82 164.75 204.71
  L 164.75 180.74
  A 1.14 1.13 80.1 0 1 165.49 179.67
  L 186.24 172.00
  Q 188.20 171.27 188.21 169.26
  L 188.25 162.49
  Q 188.27 159.84 185.76 160.75
  L 167.20 167.45
  Q 164.81 168.31 164.80 165.79
  L 164.75 143.21
  A 1.89 1.89 -10.3 0 1 165.98 141.44
  L 193.72 131.05
  A 1.52 1.34 -12.2 0 0 194.70 129.72
  L 194.53 121.04
  A 1.18 1.13 -10.4 0 0 192.97 120.01
  L 154.66 133.26
  A 1.08 1.06 -0.2 0 0 154.00 133.91
  Q 153.25 136.01 153.25 139.75
  Q 153.24 178.83 153.27 218.06
  Z
  M 215.12 200.66
  L 224.22 197.64
  A 0.74 0.69 81.2 0 0 224.69 196.95
  L 224.75 160.71
  Q 224.75 158.53 226.70 157.80
  L 248.52 149.66
  A 1.50 1.43 -44.7 0 1 249.49 149.64
  C 252.01 150.51 251.51 152.35 251.49 154.52
  Q 251.32 170.63 251.74 186.41
  A 0.93 0.92 -10.7 0 0 252.99 187.25
  L 261.86 184.05
  A 2.12 2.07 -10.3 0 0 263.25 182.09
  Q 263.25 164.27 263.25 147.12
  C 263.25 140.07 261.42 133.75 252.75 136.50
  Q 242.45 139.77 214.66 150.75
  A 0.76 0.73 -11.2 0 0 214.18 151.44
  L 214.01 199.78
  A 0.90 0.84 81.7 0 0 215.12 200.66
  Z
  M 198.19 147.51
  Q 198.50 148.36 198.50 150.00
  Q 198.50 162.38 198.50 175.00
  A 3.15 3.14 70.0 0 1 197.39 177.40
  C 195.59 178.94 192.33 179.72 190.68 180.38
  Q 184.02 183.03 177.36 185.70
  Q 174.69 186.77 174.81 189.69
  Q 174.94 192.58 177.25 191.75
  L 202.47 182.70
  A 1.95 1.93 80.2 0 0 203.75 180.87
  L 203.75 140.36
  Q 203.75 137.93 201.48 138.79
  Q 190.57 142.92 178.87 147.02
  C 176.28 147.93 174.05 149.23 175.65 152.24
  A 1.85 1.83 66.5 0 0 177.86 153.13
  L 196.54 146.73
  A 1.32 1.29 -19.2 0 1 198.19 147.51
  Z"
/>
<path fill="#e53b5c" d="
  M 394.80 35.21
  C 380.26 50.43 366.29 66.21 352.06 81.54
  A 2.24 2.20 -36.2 0 0 351.66 83.98
  L 362.45 107.44
  Q 363.16 108.97 361.82 107.95
  Q 351.57 100.04 340.67 93.05
  A 1.72 1.68 45.1 0 0 338.86 93.03
  L 283.21 127.80
  Q 281.21 129.05 282.80 127.32
  Q 303.14 105.26 323.31 83.06
  Q 325.49 80.66 326.30 78.96
  A 1.19 1.10 48.5 0 0 326.32 78.04
  L 317.27 55.84
  Q 316.15 53.09 318.61 54.75
  L 337.94 67.78
  Q 339.43 68.78 340.99 67.82
  Q 368.13 51.09 394.29 34.63
  C 394.53 34.48 394.92 34.36 395.00 34.70
  A 0.65 0.40 -37.0 0 1 394.80 35.21
  Z"
/>
<path fill="#e53b5c" d="
  M 379.90 40.93
  Q 381.62 40.86 380.19 41.81
  C 377.13 43.84 373.78 46.43 369.89 46.60
  Q 336.61 48.04 303.15 52.11
  A 0.57 0.57 79.7 0 1 302.53 51.68
  C 301.47 47.21 302.66 47.82 305.76 47.40
  Q 342.57 42.42 379.90 40.93
  Z"
/>
<path fill="#e53b5c" d="
  M 386.97 45.96
  C 387.44 44.74 390.23 41.98 391.27 41.23
  A 1.64 1.55 25.2 0 1 392.18 40.93
  Q 430.57 40.28 465.25 47.75
  C 488.13 52.68 527.29 67.90 521.25 98.75
  C 515.20 129.67 467.04 153.89 441.06 164.56
  C 406.53 178.75 370.74 188.46 334.41 195.42
  A 0.43 0.43 2.9 0 1 333.92 194.88
  C 334.85 191.66 335.44 189.88 339.08 189.18
  Q 389.78 179.41 437.66 160.12
  C 462.92 149.95 514.35 124.47 516.14 93.18
  C 517.31 72.72 492.35 60.24 475.29 55.59
  C 447.35 47.99 416.34 45.54 387.32 46.42
  A 0.35 0.34 9.2 0 1 386.97 45.96
  Z"
/>
<path fill="#e53b5c" d="
  M 330.18 60.78
  Q 329.51 60.31 330.27 60.02
  L 340.20 56.27
  A 0.98 0.94 -15.3 0 1 341.50 56.98
  L 342.68 64.00
  A 1.27 1.24 57.7 0 1 342.48 64.93
  C 341.01 67.09 339.19 67.05 337.10 65.60
  Q 333.90 63.38 330.18 60.78
  Z"
/>
<path fill="#e53b5c" d="
  M 138.05 193.36
  A 1.05 1.05 2.8 0 1 138.79 194.17
  C 139.46 197.58 139.05 197.24 136.68 196.70
  C 115.82 191.87 84.29 179.35 85.25 153.28
  C 86.71 113.55 156.17 85.94 186.47 75.23
  A 0.51 0.48 -19.3 0 1 187.11 75.52
  Q 187.71 77.34 187.31 79.21
  A 0.98 0.88 -6.3 0 1 186.72 79.87
  C 162.85 89.41 139.11 100.13 118.19 114.69
  C 108.52 121.41 96.70 131.97 92.35 143.41
  C 81.32 172.42 117.40 187.32 138.05 193.36
  Z"
/>
<path fill="#e53b5c" d="
  M 425.08 87.94
  Q 425.75 86.35 427.34 85.71
  Q 437.21 81.76 446.02 78.57
  Q 450.65 76.89 450.49 81.74
  Q 450.44 83.43 448.88 84.05
  L 427.48 92.51
  A 1.57 1.56 60.3 0 1 425.68 92.01
  Q 424.17 90.11 425.08 87.94
  Z"
/>
<path fill="#e53b5c" d="
  M 284.83 137.56
  C 286.52 135.69 288.00 135.32 290.22 134.48
  Q 299.09 131.09 309.12 127.51
  Q 310.95 126.86 311.42 128.74
  C 312.01 131.05 311.75 134.62 311.78 136.50
  Q 311.89 144.80 311.54 152.43
  A 2.51 2.50 81.7 0 1 309.87 154.68
  Q 298.36 158.73 288.33 161.99
  C 285.30 162.97 283.75 161.50 283.75 158.50
  Q 283.75 149.38 283.75 140.36
  Q 283.75 138.75 284.83 137.56
  Z
  M 294.13 145.63
  C 294.05 147.49 293.87 150.31 296.67 148.76
  C 299.70 147.09 302.42 146.29 300.85 142.41
  A 0.82 0.72 64.7 0 0 299.78 141.95
  L 294.53 144.89
  A 0.95 0.77 79.1 0 0 294.13 145.63
  Z"
/>
<path fill="#000000" d="
  M 565.70 213.37
  L 558.70 212.76
  Q 556.25 212.55 556.25 210.26
  L 556.25 201.48
  Q 556.25 198.25 559.48 198.25
  Q 566.15 198.25 573.05 198.25
  C 581.99 198.25 587.38 197.36 592.36 203.27
  C 598.18 210.18 596.70 219.62 589.65 225.19
  Q 589.15 225.59 589.75 225.61
  L 593.39 225.71
  Q 595.75 225.78 595.75 227.84
  L 595.75 238.52
  Q 595.75 240.50 593.77 240.50
  L 555.67 240.50
  A 1.80 1.80 65.7 0 1 554.48 240.05
  C 552.25 238.06 553.18 240.13 553.19 241.03
  Q 553.30 263.77 553.25 286.52
  Q 553.25 288.50 551.26 288.50
  L 531.23 288.50
  Q 528.50 288.50 528.50 285.77
  Q 528.50 265.75 528.50 244.75
  C 528.50 237.13 517.50 238.30 512.51 238.53
  A 0.55 0.55 85.6 0 0 511.99 239.14
  C 512.46 243.85 511.82 248.39 511.98 253.09
  C 512.37 264.29 512.27 275.53 512.19 286.54
  Q 512.18 288.75 509.97 288.75
  Q 500.50 288.75 491.50 288.75
  Q 488.23 288.75 488.24 286.00
  Q 488.25 263.13 488.25 239.53
  A 0.97 0.97 1.9 0 0 487.34 238.56
  C 481.65 238.23 472.12 237.18 471.97 245.17
  Q 471.58 265.25 471.76 286.31
  Q 471.78 288.50 469.58 288.50
  Q 460.12 288.50 450.50 288.50
  Q 446.95 288.50 446.95 285.25
  Q 446.93 249.31 447.19 238.94
  C 447.42 229.65 456.41 220.44 465.20 218.51
  Q 467.52 218.00 480.84 218.00
  C 496.37 218.00 512.01 218.33 527.53 217.89
  Q 543.98 217.42 551.50 232.25
  C 551.69 232.62 552.38 236.19 552.80 235.94
  A 0.58 0.35 82.2 0 0 553.00 235.47
  C 553.03 232.09 552.57 228.28 553.16 225.28
  Q 555.10 215.33 565.69 213.52
  Q 566.28 213.42 565.70 213.37
  Z
  M 582.44 213.67
  C 581.25 218.80 572.40 217.37 568.50 217.24
  C 556.25 216.84 556.20 227.34 556.52 236.39
  A 0.64 0.63 -0.9 0 0 557.16 237.00
  L 591.49 237.06
  A 0.51 0.51 0.0 0 0 592.00 236.55
  L 592.00 230.06
  A 0.58 0.57 0.5 0 0 591.43 229.49
  L 567.18 229.32
  A 0.49 0.49 -88.9 0 1 566.69 228.81
  C 567.04 220.59 580.55 225.09 585.88 222.88
  C 591.75 220.44 593.67 212.49 590.43 207.31
  C 587.89 203.23 583.94 202.00 579.25 202.00
  Q 570.25 202.00 561.24 202.00
  A 1.25 1.22 -0.2 0 0 559.99 203.23
  L 560.04 207.97
  A 0.88 0.84 -0.3 0 0 560.93 208.81
  C 565.30 208.71 577.93 207.86 581.12 210.16
  Q 582.95 211.47 582.44 213.67
  Z
  M 494.69 233.06
  L 494.81 282.18
  A 0.52 0.50 90.0 0 0 495.31 282.70
  L 504.94 282.70
  A 0.51 0.50 -90.0 0 0 505.44 282.19
  Q 505.55 258.93 505.74 235.68
  C 505.75 234.86 505.27 233.92 505.56 232.97
  A 0.74 0.67 8.0 0 1 506.25 232.50
  C 515.17 232.49 529.62 229.90 533.70 239.79
  Q 535.00 242.95 534.99 253.37
  Q 534.97 267.52 535.06 281.68
  A 0.52 0.50 90.0 0 0 535.56 282.20
  L 546.19 282.20
  A 0.51 0.50 -90.0 0 0 546.69 281.69
  Q 546.78 266.63 546.76 251.56
  C 546.75 239.45 547.88 230.44 536.55 225.90
  Q 533.21 224.56 527.13 224.55
  Q 501.27 224.47 475.41 224.49
  C 460.29 224.51 453.50 229.26 453.50 245.12
  Q 453.50 263.43 453.50 281.73
  A 0.52 0.52 0.0 0 0 454.02 282.25
  L 464.71 282.25
  A 0.55 0.55 0.0 0 0 465.26 281.70
  Q 465.09 264.14 465.42 247.15
  C 465.78 229.03 481.89 232.21 494.18 232.55
  A 0.52 0.51 0.6 0 1 494.69 233.06
  Z"
/>
<path fill="#ffffff" d="
  M 582.44 213.67
  Q 582.95 211.47 581.12 210.16
  C 577.93 207.86 565.30 208.71 560.93 208.81
  A 0.88 0.84 -0.3 0 1 560.04 207.97
  L 559.99 203.23
  A 1.25 1.22 -0.2 0 1 561.24 202.00
  Q 570.25 202.00 579.25 202.00
  C 583.94 202.00 587.89 203.23 590.43 207.31
  C 593.67 212.49 591.75 220.44 585.88 222.88
  C 580.55 225.09 567.04 220.59 566.69 228.81
  A 0.49 0.49 -88.9 0 0 567.18 229.32
  L 591.43 229.49
  A 0.58 0.57 0.5 0 1 592.00 230.06
  L 592.00 236.55
  A 0.51 0.51 0.0 0 1 591.49 237.06
  L 557.16 237.00
  A 0.64 0.63 -0.9 0 1 556.52 236.39
  C 556.20 227.34 556.25 216.84 568.50 217.24
  C 572.40 217.37 581.25 218.80 582.44 213.67
  Z"
/>
<path fill="#000000" d="
  M 304.25 217.81
  C 318.33 216.67 332.98 225.64 332.96 241.00
  Q 332.22 245.02 333.71 242.25
  Q 339.81 224.87 357.69 219.44
  C 362.28 218.04 365.50 218.46 370.03 218.42
  Q 390.14 218.27 410.25 218.02
  C 429.53 217.77 445.81 233.04 446.20 252.50
  C 446.61 272.68 430.72 289.22 410.00 288.99
  Q 388.75 288.75 367.50 288.75
  C 348.72 288.75 334.56 275.70 332.00 257.25
  Q 331.41 253.00 332.06 250.18
  A 0.49 0.39 -82.5 0 0 331.70 249.58
  Q 331.09 249.61 331.19 250.69
  Q 331.33 252.27 329.00 254.75
  C 326.43 257.49 328.97 258.87 329.91 260.96
  C 333.55 269.09 333.55 279.25 332.81 286.91
  Q 332.63 288.75 330.79 288.75
  L 310.60 288.70
  Q 308.25 288.69 308.25 286.32
  Q 308.25 279.88 308.44 273.51
  C 308.63 267.09 303.30 265.80 298.09 265.93
  C 284.26 266.26 270.34 266.00 256.49 266.00
  A 0.99 0.99 0.0 0 0 255.50 266.99
  L 255.50 286.64
  Q 255.50 288.75 253.39 288.75
  L 233.44 288.75
  Q 230.74 288.75 230.75 286.05
  Q 230.84 254.40 230.75 223.77
  C 230.74 218.10 230.75 217.96 236.48 218.01
  Q 254.60 218.18 272.71 217.75
  L 272.46 224.50
  L 237.69 224.68
  A 0.52 0.50 90.0 0 0 237.19 225.20
  L 237.31 282.18
  A 0.52 0.51 90.0 0 0 237.82 282.70
  L 247.89 282.74
  A 0.87 0.85 -89.7 0 0 248.75 281.87
  L 248.75 260.06
  A 0.56 0.56 0.0 0 1 249.31 259.50
  Q 274.53 259.50 299.16 259.50
  Q 304.92 259.50 307.63 260.76
  C 316.49 264.85 314.66 274.22 314.80 282.19
  A 0.52 0.52 89.4 0 0 315.32 282.70
  L 325.39 282.74
  A 0.87 0.85 -89.7 0 0 326.25 281.87
  C 326.25 271.50 327.08 265.01 319.55 256.93
  A 0.45 0.45 -41.5 0 1 319.59 256.29
  C 334.38 243.86 323.86 222.62 305.25 224.50
  Q 302.26 224.80 288.30 224.33
  L 304.25 217.81
  Z
  M 338.32 250.24
  C 336.43 265.29 348.24 282.25 364.50 282.25
  Q 389.00 282.25 413.50 282.03
  Q 420.23 281.96 425.93 278.43
  C 446.63 265.58 444.12 233.56 420.25 225.95
  Q 415.69 224.50 406.08 224.49
  Q 388.53 224.47 370.98 224.54
  Q 362.16 224.57 357.80 225.99
  C 346.80 229.57 339.76 238.74 338.32 250.24
  Z"
/>
<path fill="#000000" d="
  M 143.99 217.94
  L 143.71 225.00
  L 111.98 224.76
  A 0.74 0.73 -90.0 0 0 111.25 225.50
  L 111.25 282.19
  A 0.56 0.56 0.0 0 0 111.81 282.75
  Q 135.21 282.75 158.14 282.75
  Q 174.59 282.75 177.80 282.07
  C 189.46 279.58 197.65 270.06 199.60 258.43
  C 202.20 242.87 192.18 229.16 177.00 225.46
  Q 181.70 222.94 186.68 221.61
  Q 199.26 228.65 204.50 242.00
  Q 205.82 245.37 205.74 249.00
  Q 205.73 249.63 206.09 249.67
  A 0.96 0.50 -65.2 0 0 206.80 249.12
  C 211.29 241.26 223.49 241.53 228.30 248.71
  C 237.31 262.17 214.12 272.75 206.93 260.29
  Q 206.13 258.91 205.78 260.47
  C 202.60 274.58 191.32 286.73 176.54 288.62
  Q 175.59 288.75 162.45 288.76
  Q 134.51 288.78 107.57 288.69
  Q 105.03 288.68 105.01 286.15
  Q 104.84 259.12 105.26 234.00
  Q 105.37 227.37 105.00 220.74
  Q 104.86 218.24 107.36 218.34
  Q 125.39 219.04 143.99 217.94
  Z
  M 223.6330 254.4544
  A 4.10 4.10 0.0 0 0 219.5762 250.3117
  L 215.4764 250.2688
  A 4.10 4.10 0.0 0 0 211.3337 254.3256
  L 211.3270 254.9656
  A 4.10 4.10 0.0 0 0 215.3838 259.1083
  L 219.4836 259.1512
  A 4.10 4.10 0.0 0 0 223.6263 255.0944
  L 223.6330 254.4544
  Z"
/>
<path fill="#000000" d="
  M 153.27 218.06
  L 167.25 218.29
  Q 161.26 221.26 154.74 222.65
  A 0.75 0.69 -21.5 0 1 153.97 222.35
  Q 152.77 220.46 153.27 218.06
  Z"
/>
<path fill="#000000" d="
  M 101.94 218.77
  C 103.99 220.73 102.97 222.88 103.08 224.87
  Q 103.36 229.93 103.47 234.99
  C 103.57 239.48 100.96 239.25 97.63 239.25
  Q 71.74 239.25 45.85 239.25
  Q 38.52 239.25 35.37 240.72
  C 24.15 245.96 24.57 262.29 35.81 267.25
  Q 38.65 268.50 43.42 268.50
  Q 72.27 268.52 100.27 268.50
  Q 103.25 268.50 103.25 271.48
  L 103.25 286.09
  Q 103.25 288.75 100.59 288.75
  Q 68.25 288.75 36.25 288.82
  C 22.68 288.85 10.43 279.22 5.56 267.44
  C -2.54 247.83 8.62 225.11 29.00 219.71
  Q 34.55 218.24 47.15 218.28
  Q 74.11 218.36 101.07 218.44
  A 1.32 1.18 -21.0 0 1 101.94 218.77
  Z
  M 55.58 233.10
  Q 75.34 233.16 95.85 232.99
  A 0.74 0.73 89.6 0 0 96.58 232.24
  L 96.50 225.32
  A 0.58 0.57 89.5 0 0 95.93 224.75
  Q 67.25 224.75 38.75 224.80
  C 5.32 224.85 -2.10 271.70 28.90 281.37
  Q 33.31 282.75 44.76 282.75
  Q 69.90 282.75 95.89 282.75
  A 0.59 0.59 0.0 0 0 96.48 282.16
  L 96.45 275.30
  A 0.52 0.49 -0.0 0 0 95.93 274.81
  Q 69.97 274.71 44.01 274.74
  Q 38.19 274.75 34.67 273.49
  C 21.14 268.64 17.24 253.76 24.78 242.14
  C 31.69 231.48 41.42 233.05 55.58 233.10
  Z"
/>
<path fill="#ffffff" d="
  M 272.46 224.50
  Q 272.44 230.09 278.00 227.75
  Q 279.60 227.08 288.30 224.33
  Q 302.26 224.80 305.25 224.50
  C 323.86 222.62 334.38 243.86 319.59 256.29
  A 0.45 0.45 -41.5 0 0 319.55 256.93
  C 327.08 265.01 326.25 271.50 326.25 281.87
  A 0.87 0.85 -89.7 0 1 325.39 282.74
  L 315.32 282.70
  A 0.52 0.52 89.4 0 1 314.80 282.19
  C 314.66 274.22 316.49 264.85 307.63 260.76
  Q 304.92 259.50 299.16 259.50
  Q 274.53 259.50 249.31 259.50
  A 0.56 0.56 0.0 0 0 248.75 260.06
  L 248.75 281.87
  A 0.87 0.85 -89.7 0 1 247.89 282.74
  L 237.82 282.70
  A 0.52 0.51 -90.0 0 1 237.31 282.18
  L 237.19 225.20
  A 0.52 0.50 -90.0 0 1 237.69 224.68
  L 272.46 224.50
  Z
  M 303.09 250.50
  C 309.35 250.50 316.85 246.95 314.44 239.31
  C 312.49 233.14 306.68 232.75 300.75 232.75
  Q 275.25 232.75 249.56 232.75
  A 0.56 0.56 0.0 0 0 249.00 233.31
  L 249.00 250.00
  A 0.50 0.50 0.0 0 0 249.50 250.50
  Q 276.29 250.50 303.09 250.50
  Z"
/>
<path fill="#ffffff" d="
  M 364.50 282.25
  C 348.24 282.25 336.43 265.29 338.32 250.24
  C 339.76 238.74 346.80 229.57 357.80 225.99
  Q 362.16 224.57 370.98 224.54
  Q 388.53 224.47 406.08 224.49
  Q 415.69 224.50 420.25 225.95
  C 444.12 233.56 446.63 265.58 425.93 278.43
  Q 420.23 281.96 413.50 282.03
  Q 389.00 282.25 364.50 282.25
  Z
  M 363.94 234.16
  C 341.90 242.18 348.19 274.67 372.00 274.72
  Q 385.22 274.74 398.44 274.75
  Q 409.84 274.75 413.91 273.34
  C 432.95 266.72 431.74 239.28 413.03 233.75
  Q 409.66 232.75 394.87 232.75
  C 385.83 232.75 371.91 231.26 363.94 234.16
  Z"
/>
<path fill="#ffffff" d="
  M 494.18 232.55
  C 481.89 232.21 465.78 229.03 465.42 247.15
  Q 465.09 264.14 465.26 281.70
  A 0.55 0.55 0.0 0 1 464.71 282.25
  L 454.02 282.25
  A 0.52 0.52 0.0 0 1 453.50 281.73
  Q 453.50 263.43 453.50 245.12
  C 453.50 229.26 460.29 224.51 475.41 224.49
  Q 501.27 224.47 527.13 224.55
  Q 533.21 224.56 536.55 225.90
  C 547.88 230.44 546.75 239.45 546.76 251.56
  Q 546.78 266.63 546.69 281.69
  A 0.51 0.50 -90.0 0 1 546.19 282.20
  L 535.56 282.20
  A 0.52 0.50 -90.0 0 1 535.06 281.68
  Q 534.97 267.52 534.99 253.37
  Q 535.00 242.95 533.70 239.79
  C 529.62 229.90 515.17 232.49 506.25 232.50
  A 0.74 0.67 8.0 0 0 505.56 232.97
  C 505.27 233.92 505.75 234.86 505.74 235.68
  Q 505.55 258.93 505.44 282.19
  A 0.51 0.50 -90.0 0 1 504.94 282.70
  L 495.31 282.70
  A 0.52 0.50 -90.0 0 1 494.81 282.18
  L 494.69 233.06
  A 0.52 0.51 0.6 0 0 494.18 232.55
  Z"
/>
<path fill="#ffffff" d="
  M 55.58 233.10
  C 41.42 233.05 31.69 231.48 24.78 242.14
  C 17.24 253.76 21.14 268.64 34.67 273.49
  Q 38.19 274.75 44.01 274.74
  Q 69.97 274.71 95.93 274.81
  A 0.52 0.49 -0.0 0 1 96.45 275.30
  L 96.48 282.16
  A 0.59 0.59 0.3 0 1 95.89 282.75
  Q 69.90 282.75 44.76 282.75
  Q 33.31 282.75 28.90 281.37
  C -2.10 271.70 5.32 224.85 38.75 224.80
  Q 67.25 224.75 95.93 224.75
  A 0.58 0.57 89.5 0 1 96.50 225.32
  L 96.58 232.24
  A 0.74 0.73 89.6 0 1 95.85 232.99
  Q 75.34 233.16 55.58 233.10
  Z"
/>
<path fill="#ffffff" d="
  M 143.71 225.00
  Q 144.44 228.87 143.71 232.75
  L 123.55 232.75
  A 0.56 0.56 0.0 0 0 122.99 233.31
  L 122.99 273.96
  A 0.79 0.79 89.8 0 0 123.78 274.75
  Q 139.36 274.75 154.96 274.75
  Q 168.93 274.75 170.51 274.47
  C 192.14 270.63 193.05 239.21 171.90 233.46
  C 167.63 232.30 162.05 232.81 157.11 232.63
  Q 166.94 228.46 177.00 225.46
  C 192.18 229.16 202.20 242.87 199.60 258.43
  C 197.65 270.06 189.46 279.58 177.80 282.07
  Q 174.59 282.75 158.14 282.75
  Q 135.21 282.75 111.81 282.75
  A 0.56 0.56 0.0 0 1 111.25 282.19
  L 111.25 225.50
  A 0.74 0.73 -90.0 0 1 111.98 224.76
  L 143.71 225.00
  Z"
/>
<path fill="#000000" d="
  M 143.71 232.75
  Q 144.20 234.92 145.77 236.52
  A 0.81 0.71 -31.0 0 0 146.60 236.67
  L 157.11 232.63
  C 162.05 232.81 167.63 232.30 171.90 233.46
  C 193.05 239.21 192.14 270.63 170.51 274.47
  Q 168.93 274.75 154.96 274.75
  Q 139.36 274.75 123.78 274.75
  A 0.79 0.79 89.8 0 1 122.99 273.96
  L 122.99 233.31
  A 0.56 0.56 0.0 0 1 123.55 232.75
  L 143.71 232.75
  Z
  M 165.92 268.58
  C 185.82 269.29 186.94 239.24 166.50 239.24
  Q 148.25 239.25 130.01 239.25
  A 0.51 0.51 0.0 0 0 129.50 239.76
  L 129.44 268.06
  A 0.50 0.50 0.0 0 0 129.94 268.56
  C 141.88 268.49 154.00 268.15 165.92 268.58
  Z"
/>
<path fill="#000000" d="
  M 314.44 239.31
  C 316.85 246.95 309.35 250.50 303.09 250.50
  Q 276.29 250.50 249.50 250.50
  A 0.50 0.50 0.0 0 1 249.00 250.00
  L 249.00 233.31
  A 0.56 0.56 0.0 0 1 249.56 232.75
  Q 275.25 232.75 300.75 232.75
  C 306.68 232.75 312.49 233.14 314.44 239.31
  Z
  M 256.06 244.43
  C 271.30 244.26 286.34 243.87 301.92 244.36
  C 303.53 244.41 312.17 243.54 307.82 239.62
  A 1.44 1.16 -19.6 0 0 306.93 239.31
  L 256.00 239.25
  A 0.51 0.48 -0.5 0 0 255.49 239.74
  L 255.54 243.93
  A 0.51 0.50 -0.6 0 0 256.06 244.43
  Z"
/>
<path fill="#000000" d="
  M 372.00 274.72
  C 348.19 274.67 341.90 242.18 363.94 234.16
  C 371.91 231.26 385.83 232.75 394.87 232.75
  Q 409.66 232.75 413.03 233.75
  C 431.74 239.28 432.95 266.72 413.91 273.34
  Q 409.84 274.75 398.44 274.75
  Q 385.22 274.74 372.00 274.72
  Z
  M 421.65 253.05
  A 14.02 14.02 0.0 0 0 407.63 239.03
  L 370.41 239.03
  A 14.02 14.02 0.0 0 0 356.39 253.05
  L 356.39 254.35
  A 14.02 14.02 0.0 0 0 370.41 268.37
  L 407.63 268.37
  A 14.02 14.02 0.0 0 0 421.65 254.35
  L 421.65 253.05
  Z"
/>
<path fill="#000000" d="
  M 332.96 241.00
  Q 332.64 242.27 333.71 242.25
  Q 332.22 245.02 332.96 241.00
  Z"
/>
<rect fill="#ffffff" x="-6.15" y="-4.42" transform="translate(217.48,254.71) rotate(0.6)" width="12.30" height="8.84" rx="4.10"/>
</svg>
