<?xml version="1.0" encoding="UTF-8" standalone="no"?>
<!DOCTYPE svg PUBLIC "-//W3C//DTD SVG 1.1//EN" "http://www.w3.org/Graphics/SVG/1.1/DTD/svg11.dtd">
<svg xmlns="http://www.w3.org/2000/svg" version="1.1" viewBox="0 0 600 300">
<g stroke-width="2.00" fill="none" stroke-linecap="butt">
<path stroke="#000000" vector-effect="non-scaling-stroke" d="
  M 325.04 76.75
  L 324.25 77.21"
/>
<path stroke="#000000" vector-effect="non-scaling-stroke" d="
  M 274.96 117.50
  Q 274.95 118.51 274.29 119.00"
/>
</g>
<path fill="#000000" d="
  M 325.04 76.75
  L 324.25 77.21
  C 299.80 78.01 279.41 92.77 274.96 117.50
  Q 274.95 118.51 274.29 119.00
  Q 273.76 116.33 273.32 118.41
  C 268.98 138.69 240.06 148.14 223.04 152.20
  A 0.70 0.70 -4.2 0 0 222.51 152.81
  Q 221.76 160.08 222.73 167.61
  Q 222.95 169.40 225.00 169.82
  L 227.34 170.30
  A 0.76 0.68 -88.8 0 1 227.88 170.93
  Q 228.35 174.59 227.75 177.41
  Q 227.21 180.00 224.56 180.00
  Q 196.25 180.00 168.50 180.22
  Q 164.25 180.25 164.57 174.75
  Q 164.67 173.15 164.27 171.61
  Q 163.74 169.59 166.75 170.00
  Q 170.06 170.45 169.25 168.25
  L 160.94 145.70
  A 1.19 1.17 -9.9 0 0 159.83 144.93
  L 131.31 145.06
  A 0.75 0.74 11.2 0 0 130.62 145.52
  Q 126.70 155.04 123.25 164.75
  Q 121.29 170.26 126.75 170.26
  A 0.59 0.55 -3.9 0 1 127.33 170.73
  C 127.80 173.82 128.93 179.91 123.72 179.95
  Q 112.86 180.04 101.99 180.01
  C 96.85 179.99 98.03 173.88 98.38 170.93
  A 0.68 0.64 -2.6 0 1 98.93 170.36
  Q 102.67 169.69 104.08 166.07
  Q 120.76 123.07 137.36 79.72
  A 1.13 1.11 10.1 0 1 138.41 79.00
  L 158.96 79.00
  A 1.10 1.10 -10.4 0 1 159.99 79.71
  Q 176.15 122.43 192.49 165.25
  Q 193.50 167.89 195.67 169.63
  A 1.37 1.30 62.5 0 0 196.57 169.94
  Q 199.41 169.82 199.44 166.94
  Q 199.57 151.13 199.50 93.25
  Q 199.49 88.53 195.05 88.89
  A 0.71 0.68 -13.2 0 1 194.35 88.48
  Q 193.87 87.29 193.88 86.00
  C 193.91 82.21 193.36 78.61 198.55 78.87
  C 213.55 79.64 228.93 78.98 244.00 79.25
  C 258.56 79.51 269.63 86.95 273.76 100.94
  L 274.29 114.93
  A 0.45 0.33 77.5 0 0 274.79 115.37
  C 275.68 114.85 274.55 102.27 274.29 100.50
  Q 274.22 79.75 274.16 59.00
  C 274.13 48.59 266.64 44.81 257.50 42.51
  Q 241.12 38.39 224.31 36.74
  A 0.57 0.56 2.3 0 1 223.80 36.19
  L 223.75 24.85
  A 0.85 0.84 -0.3 0 1 224.60 24.00
  L 374.69 24.06
  A 0.55 0.50 -0.5 0 1 375.24 24.55
  L 375.45 35.66
  A 1.34 1.26 -1.4 0 1 374.15 36.94
  Q 359.23 37.37 344.60 40.22
  C 332.58 42.56 324.61 46.26 324.81 59.50
  Q 324.95 68.13 325.04 76.75
  Z
  M 247.56 97.69
  C 240.35 93.07 231.13 93.85 222.81 94.05
  A 0.51 0.51 -0.6 0 0 222.31 94.56
  L 222.25 135.47
  A 0.51 0.51 -9.7 0 0 222.93 135.95
  C 232.06 132.72 244.85 126.94 249.61 119.29
  C 252.87 114.06 254.34 102.03 247.56 97.69
  Z
  M 136.70 127.57
  A 0.39 0.39 -79.9 0 0 137.06 128.09
  L 154.14 128.07
  A 0.39 0.39 -10.3 0 0 154.51 127.54
  L 145.93 104.50
  A 0.39 0.39 -48.5 0 0 145.20 104.50
  L 136.70 127.57
  Z"
/>
<path fill="#000000" d="
  M 325.04 76.75
  Q 326.62 77.20 327.06 77.19
  Q 351.11 76.59 368.57 91.98
  Q 370.58 93.76 368.70 95.68
  L 350.65 113.97
  A 0.92 0.89 -49.3 0 1 349.47 114.08
  L 342.74 109.11
  A 1.10 1.05 -57.8 0 1 342.46 107.74
  C 348.38 96.87 333.16 93.81 326.01 94.02
  A 1.05 1.05 -0.3 0 0 324.99 95.05
  Q 324.42 129.00 325.00 163.50
  Q 304.41 157.23 299.50 136.50
  C 295.14 118.09 301.79 95.41 324.16 94.02
  A 0.90 0.89 88.3 0 0 325.00 93.12
  Q 325.00 85.50 325.00 78.50
  Q 325.00 77.22 324.25 77.21
  L 325.04 76.75
  Z"
/>
<path fill="#000000" d="
  M 96.11 157.21
  A 2.74 2.72 -69.0 0 1 97.00 159.23
  L 97.00 179.26
  A 0.69 0.68 86.2 0 1 96.41 179.94
  C 77.53 182.47 56.00 183.93 38.31 175.78
  C 20.30 167.48 9.83 152.13 8.50 132.00
  C 5.97 93.68 35.63 73.11 71.48 77.87
  Q 89.46 80.26 102.94 92.31
  Q 104.50 93.71 103.00 95.25
  L 84.80 113.83
  A 1.28 1.25 40.5 0 1 83.15 113.94
  L 76.77 109.23
  A 1.08 1.08 35.0 0 1 76.51 107.77
  C 83.23 97.60 66.94 93.87 60.50 94.00
  C 42.52 94.37 33.73 105.88 32.37 122.74
  C 30.21 149.63 50.36 167.98 77.00 164.50
  Q 84.83 163.48 86.57 156.68
  A 0.75 0.69 -85.0 0 1 87.18 156.13
  C 89.77 155.85 94.03 155.31 96.11 157.21
  Z"
/>
<path fill="#000000" d="
  M 389.34 87.75
  C 406.34 75.02 431.43 73.61 450.14 83.75
  C 472.21 95.70 480.37 121.14 473.97 144.95
  C 467.96 167.30 448.92 180.56 425.75 181.75
  C 396.61 183.24 372.97 167.38 369.19 137.06
  C 366.74 117.44 373.71 99.45 389.34 87.75
  Z
  M 427.90 93.31
  C 380.18 85.72 381.53 173.73 428.48 164.41
  C 447.87 160.56 453.23 141.19 451.91 124.04
  C 450.75 108.98 444.09 95.88 427.90 93.31
  Z"
/>
<path fill="#000000" d="
  M 490.44 89.48
  Q 485.53 88.56 486.25 82.75
  Q 486.68 79.25 489.75 79.20
  Q 502.84 78.95 515.67 79.06
  A 0.98 0.95 -8.3 0 1 516.58 79.72
  L 530.53 123.10
  Q 531.14 125.00 531.86 123.13
  L 548.38 79.79
  A 1.25 1.22 10.2 0 1 549.54 79.00
  Q 562.13 79.00 574.25 79.00
  C 579.96 79.00 578.56 84.29 578.45 87.93
  A 0.83 0.77 79.5 0 1 577.99 88.66
  Q 576.75 89.20 575.31 89.06
  Q 573.19 88.86 573.75 92.75
  Q 578.51 126.03 583.65 159.25
  C 584.34 163.72 583.55 170.07 589.86 170.20
  A 0.66 0.65 -89.6 0 1 590.50 170.86
  L 590.50 177.02
  Q 590.50 180.00 587.52 180.00
  Q 574.50 180.00 561.50 179.87
  C 556.68 179.82 557.90 174.37 558.03 171.25
  A 1.23 1.23 -89.3 0 1 559.24 170.07
  Q 563.93 169.98 563.23 165.46
  Q 559.39 140.56 555.28 115.69
  C 555.28 115.69 555.02 108.58 553.95 111.35
  Q 545.18 134.11 536.18 157.15
  A 1.29 1.20 -77.8 0 1 535.01 157.97
  L 521.07 157.73
  A 0.75 0.71 80.6 0 1 520.40 157.22
  L 505.68 112.35
  Q 504.99 110.24 504.63 112.43
  Q 500.43 138.20 496.56 163.24
  C 496.01 166.82 494.94 170.12 499.69 170.30
  A 0.65 0.64 -4.5 0 1 500.30 170.81
  C 500.80 173.19 501.57 179.20 497.83 179.93
  Q 497.45 180.00 493.66 180.00
  Q 484.95 180.00 476.25 179.97
  C 471.17 179.95 472.50 174.81 472.50 171.39
  A 0.96 0.96 -10.0 0 1 473.13 170.49
  C 478.86 168.37 479.30 163.11 480.17 158.03
  Q 485.37 127.42 490.56 96.81
  Q 491.25 92.75 490.99 90.06
  A 0.69 0.64 3.8 0 0 490.44 89.48
  Z"
/>
<path fill="#000000" d="
  M 274.96 117.50
  Q 274.91 126.01 274.29 119.00
  Q 274.95 118.51 274.96 117.50
  Z"
/>
<path fill="#000000" d="
  M 325.00 163.50
  C 332.98 165.72 348.23 167.20 352.19 158.19
  Q 353.15 156.00 354.50 156.00
  C 358.70 156.00 363.00 154.64 363.00 160.68
  Q 363.00 170.08 363.00 179.39
  A 0.55 0.54 -3.6 0 1 362.52 179.93
  Q 343.86 182.37 325.57 181.59
  A 0.51 0.48 1.7 0 0 325.03 182.07
  L 325.03 191.44
  A 0.53 0.50 -0.0 0 0 325.56 191.94
  Q 423.04 192.04 520.51 192.00
  Q 529.57 192.00 533.81 193.43
  C 559.18 201.99 552.96 239.81 525.75 239.85
  Q 426.25 240.00 325.90 240.00
  A 0.88 0.88 -89.3 0 0 325.02 240.86
  C 324.72 251.47 331.76 257.36 341.58 259.60
  Q 357.35 263.21 374.56 264.32
  A 1.00 1.00 1.8 0 1 375.50 265.32
  L 375.50 276.12
  A 0.82 0.81 -90.0 0 1 374.69 276.94
  L 224.43 277.00
  A 0.69 0.68 90.0 0 1 223.75 276.31
  L 223.75 265.10
  A 0.87 0.87 -1.4 0 1 224.58 264.23
  Q 233.34 263.82 242.29 263.17
  C 256.83 262.11 275.74 261.25 274.14 241.07
  A 1.17 1.16 87.6 0 0 272.98 240.00
  Q 173.37 240.00 75.00 240.00
  C 44.71 240.00 41.01 197.27 70.28 192.32
  Q 72.20 192.00 86.25 192.00
  Q 179.65 192.00 273.56 192.00
  A 0.69 0.69 0.0 0 0 274.25 191.31
  Q 274.25 163.25 274.26 135.25
  Q 274.26 133.86 274.66 132.54
  Q 274.81 132.03 274.82 132.56
  C 275.36 160.67 298.39 178.27 324.45 181.30
  A 0.49 0.48 3.7 0 0 325.00 180.82
  L 325.00 163.50
  Z
  M 167.82 217.82
  C 171.35 217.86 175.75 217.67 178.33 215.27
  C 181.01 212.78 180.80 208.59 177.75 206.60
  C 174.36 204.40 167.15 204.85 163.03 205.06
  A 1.08 1.06 -2.0 0 0 162.01 206.13
  L 162.06 225.18
  A 0.77 0.68 -81.6 0 0 162.52 225.89
  C 168.91 228.13 166.61 221.58 167.22 218.30
  A 0.61 0.59 5.1 0 1 167.82 217.82
  Z
  M 194.29 222.68
  L 193.93 205.82
  A 0.70 0.62 -84.1 0 0 193.46 205.17
  Q 191.50 204.67 189.54 205.18
  A 0.65 0.63 83.2 0 0 189.06 205.81
  L 189.00 225.13
  A 0.87 0.87 0.0 0 0 189.87 226.00
  Q 196.20 226.00 201.96 226.00
  C 203.69 226.00 205.04 226.48 204.45 223.77
  A 0.69 0.67 -5.2 0 0 203.79 223.24
  L 194.80 223.20
  A 0.53 0.51 89.4 0 1 194.29 222.68
  Z
  M 225.47 221.22
  L 227.95 225.37
  A 1.05 0.64 66.9 0 0 228.69 225.90
  L 232.76 225.85
  A 0.38 0.34 74.8 0 0 233.03 225.30
  L 222.81 205.64
  A 1.10 1.03 81.0 0 0 222.08 205.07
  Q 220.54 204.77 219.04 205.17
  A 1.14 1.12 -83.6 0 0 218.33 205.75
  L 208.22 225.30
  A 0.39 0.34 -74.4 0 0 208.49 225.86
  L 212.32 225.91
  A 0.98 0.68 -71.7 0 0 213.04 225.37
  L 214.99 221.61
  A 1.58 1.53 -75.9 0 1 216.36 220.76
  L 224.69 220.80
  A 0.94 0.85 -14.0 0 1 225.47 221.22
  Z
  M 249.06 213.76
  L 244.54 206.44
  A 2.51 2.38 -9.9 0 0 242.85 205.32
  Q 237.47 204.39 239.13 206.60
  Q 243.22 212.03 246.74 217.83
  Q 246.97 218.20 246.98 218.75
  L 247.15 225.31
  A 0.60 0.52 89.4 0 0 247.67 225.90
  L 251.32 225.90
  A 0.59 0.56 -89.5 0 0 251.88 225.32
  L 251.93 220.10
  Q 251.95 218.30 252.73 217.12
  C 255.14 213.52 257.48 209.67 260.10 206.21
  Q 261.45 204.43 258.25 205.00
  Q 255.26 205.53 254.56 206.56
  L 249.64 213.80
  A 0.36 0.33 47.0 0 1 249.06 213.76
  Z
  M 281.69 208.44
  C 276.94 216.98 295.75 215.76 293.32 221.16
  C 290.59 227.23 281.00 218.00 280.46 223.82
  A 0.68 0.63 13.4 0 0 280.91 224.49
  Q 286.00 226.29 291.94 225.69
  C 295.63 225.31 299.94 222.58 298.75 218.34
  C 297.82 215.01 291.77 213.79 288.90 212.63
  C 285.35 211.20 285.71 208.10 289.64 207.84
  Q 292.77 207.63 295.57 208.84
  A 1.09 1.09 -58.7 0 0 296.84 208.53
  C 298.68 206.34 298.26 206.38 295.94 205.78
  C 291.77 204.71 283.92 204.42 281.69 208.44
  Z
  M 316.06 213.76
  C 314.64 211.37 313.09 209.06 311.81 206.61
  C 310.65 204.39 304.35 204.05 306.12 206.40
  Q 310.26 211.90 313.69 217.88
  Q 313.92 218.27 313.93 218.80
  L 314.15 225.31
  A 0.64 0.63 4.0 0 0 314.68 225.91
  Q 316.59 226.26 318.46 225.81
  A 0.63 0.61 83.2 0 0 318.93 225.19
  C 318.86 221.81 318.43 218.82 320.53 215.87
  Q 324.07 210.89 327.24 205.67
  A 0.35 0.35 -68.0 0 0 327.02 205.14
  Q 324.90 204.70 322.80 205.19
  A 1.39 0.89 -70.5 0 0 322.07 205.76
  L 316.63 213.80
  A 0.35 0.33 47.3 0 1 316.06 213.76
  Z
  M 333.69 208.44
  C 328.94 216.98 347.75 215.75 345.32 221.16
  C 342.59 227.23 333.00 218.00 332.46 223.82
  A 0.68 0.63 13.4 0 0 332.91 224.49
  Q 338.00 226.29 343.94 225.69
  C 347.63 225.31 351.94 222.58 350.75 218.34
  C 349.82 215.01 343.77 213.79 340.90 212.63
  C 337.35 211.20 337.71 208.10 341.64 207.84
  Q 344.77 207.63 347.57 208.84
  A 1.09 1.09 -58.7 0 0 348.84 208.53
  C 350.68 206.34 350.26 206.38 347.94 205.78
  C 343.77 204.71 335.92 204.42 333.69 208.44
  Z
  M 370.82 207.78
  L 375.69 207.88
  A 1.49 0.71 11.6 0 0 376.59 207.66
  Q 377.53 206.91 377.51 205.86
  A 0.88 0.88 89.3 0 0 376.63 205.00
  Q 368.30 205.00 360.56 205.00
  C 358.99 205.00 357.45 204.50 358.01 207.04
  A 1.04 0.95 -5.2 0 0 359.00 207.79
  L 364.31 207.88
  A 0.57 0.53 89.4 0 1 364.83 208.43
  Q 365.34 220.74 365.00 223.50
  C 364.59 226.78 367.96 226.70 369.59 225.78
  A 0.98 0.75 79.5 0 0 369.99 225.00
  L 370.28 208.32
  A 0.55 0.52 -88.4 0 1 370.82 207.78
  Z
  M 389.22 222.69
  L 389.12 216.68
  A 0.59 0.52 -1.6 0 1 389.69 216.15
  L 397.19 215.93
  A 1.28 0.90 13.6 0 0 398.05 215.59
  Q 398.73 214.82 398.56 213.79
  A 0.64 0.58 -4.2 0 0 397.94 213.30
  L 389.93 213.25
  A 0.81 0.70 0.7 0 1 389.12 212.53
  L 389.19 208.30
  A 0.62 0.50 0.5 0 1 389.81 207.81
  L 399.94 207.69
  A 0.78 0.69 9.1 0 0 400.65 207.24
  Q 400.99 206.37 400.66 205.51
  A 0.80 0.73 -9.3 0 0 399.95 205.05
  L 384.80 205.00
  A 0.80 0.80 0.0 0 0 384.00 205.80
  L 384.00 225.15
  A 0.85 0.84 89.7 0 0 384.85 226.00
  L 400.68 225.94
  A 0.80 0.69 8.9 0 0 401.40 225.49
  Q 401.74 224.62 401.41 223.76
  A 0.80 0.71 -9.7 0 0 400.69 223.31
  L 389.81 223.19
  A 0.59 0.51 -0.5 0 1 389.22 222.69
  Z
  M 423.37 220.33
  L 415.01 205.68
  A 1.08 0.72 70.0 0 0 414.26 205.13
  L 411.44 205.04
  A 0.67 0.58 -86.6 0 0 410.83 205.66
  L 409.34 225.18
  A 0.64 0.62 -80.0 0 0 409.79 225.84
  Q 411.50 226.32 413.21 225.84
  A 0.72 0.71 -6.7 0 0 413.74 225.18
  L 414.24 213.74
  Q 414.28 212.84 414.73 213.61
  Q 418.21 219.62 421.56 224.94
  Q 422.68 226.70 424.67 226.16
  C 427.23 225.47 431.52 216.79 432.82 214.30
  Q 433.60 212.81 433.69 214.51
  L 434.26 225.19
  A 0.73 0.72 6.3 0 0 434.79 225.84
  Q 436.50 226.32 438.21 225.84
  A 0.63 0.62 79.8 0 0 438.66 225.19
  L 437.23 205.82
  A 0.76 0.73 -84.6 0 0 436.70 205.15
  Q 435.23 204.73 433.73 205.11
  A 1.25 1.11 -80.1 0 0 433.00 205.69
  L 424.56 220.35
  Q 423.97 221.38 423.37 220.33
  Z"
/>
<path fill="#000000" d="
  M 171.87 207.81
  C 176.16 209.39 176.24 213.96 171.61 214.84
  Q 170.00 215.15 167.97 214.91
  A 0.89 0.89 88.7 0 1 167.20 214.17
  Q 165.74 205.55 171.87 207.81
  Z"
/>
<path fill="#000000" d="
  M 217.05 217.56
  L 220.21 210.02
  A 0.31 0.31 -45.5 0 1 220.79 210.02
  L 223.92 217.58
  A 0.31 0.31 -30.3 0 1 223.63 218.01
  L 217.34 217.99
  A 0.31 0.31 -78.8 0 1 217.05 217.56
  Z"
/>
</svg>
