<?xml version="1.0" encoding="UTF-8" standalone="no"?>
<!DOCTYPE svg PUBLIC "-//W3C//DTD SVG 1.1//EN" "http://www.w3.org/Graphics/SVG/1.1/DTD/svg11.dtd">
<svg xmlns="http://www.w3.org/2000/svg" version="1.1" viewBox="0 0 600 300">
<g stroke-width="2.00" fill="none" stroke-linecap="butt">
<path stroke="#0d0d0d" vector-effect="non-scaling-stroke" d="
  M 527.22 210.57
  L 511.00 210.54"
/>
<path stroke="#808080" vector-effect="non-scaling-stroke" d="
  M 87.06 223.94
  C 80.74 219.50 71.17 219.78 63.00 220.25
  C 56.86 220.60 46.25 223.27 46.25 230.75
  Q 46.25 239.52 46.25 248.28
  Q 46.25 257.51 46.40 258.20
  C 49.05 270.85 76.64 269.09 84.42 265.38
  C 91.58 261.98 91.63 257.35 91.11 250.18
  A 0.53 0.52 -2.3 0 0 90.57 249.69
  L 77.44 249.92
  A 0.51 0.50 88.9 0 0 76.95 250.44
  Q 77.03 255.50 76.75 257.00
  C 75.77 262.23 66.37 261.05 63.27 259.65
  Q 61.50 258.84 61.50 256.90
  Q 61.50 244.37 61.30 232.25
  C 61.19 226.04 70.17 226.89 73.96 227.80
  Q 76.50 228.41 76.75 231.38
  L 77.10 235.58
  A 0.62 0.53 -1.4 0 0 77.70 236.07
  L 90.02 236.18
  A 1.06 1.05 -85.6 0 0 91.07 235.27
  Q 92.16 227.52 87.06 223.94"
/>
<path stroke="#808080" vector-effect="non-scaling-stroke" d="
  M 135.80 259.44
  L 135.78 220.81
  A 0.81 0.79 90.0 0 0 134.99 220.00
  L 121.06 220.00
  A 0.81 0.81 0.0 0 0 120.25 220.81
  L 120.25 266.50
  A 0.69 0.69 0.0 0 0 120.94 267.19
  L 159.81 267.06
  A 0.56 0.49 0.0 0 0 160.37 266.57
  L 160.38 260.69
  A 0.57 0.51 0.0 0 0 159.81 260.18
  L 136.31 259.94
  A 0.52 0.50 0.6 0 1 135.80 259.44"
/>
<path stroke="#808080" vector-effect="non-scaling-stroke" d="
  M 215.26 258.00
  A 1.52 1.42 80.9 0 1 216.64 259.07
  L 218.89 266.46
  A 0.74 0.67 -6.9 0 0 219.57 266.94
  L 233.63 267.26
  A 0.62 0.61 -8.0 0 0 234.24 266.46
  L 219.23 220.67
  A 0.97 0.94 80.6 0 0 218.33 220.01
  L 197.20 220.17
  A 0.71 0.70 -80.9 0 0 196.53 220.66
  L 181.56 266.60
  A 0.37 0.36 9.1 0 0 181.91 267.08
  L 194.80 267.00
  A 0.76 0.74 8.3 0 0 195.52 266.48
  L 197.87 258.85
  A 1.21 1.20 -81.5 0 1 199.02 257.99
  L 215.26 258.00"
/>
<path stroke="#808080" vector-effect="non-scaling-stroke" d="
  M 256.21 253.54
  C 252.63 271.96 290.66 270.42 298.09 263.11
  C 302.81 258.45 301.79 251.74 296.44 248.06
  C 290.16 243.74 282.98 241.18 276.14 237.40
  C 273.46 235.91 270.03 231.89 272.54 229.11
  C 275.46 225.89 287.31 225.67 286.47 233.04
  A 0.92 0.91 3.3 0 0 287.39 234.06
  L 300.31 234.05
  A 0.55 0.52 2.2 0 0 300.86 233.57
  Q 301.54 224.90 293.75 222.25
  C 285.22 219.35 267.26 218.08 259.66 224.59
  C 254.27 229.22 256.13 235.72 261.14 239.85
  Q 264.16 242.34 267.80 243.97
  C 271.62 245.67 289.09 252.15 285.37 258.36
  C 283.42 261.60 276.35 261.02 273.43 260.06
  C 270.42 259.07 270.25 257.21 270.61 254.39
  A 1.19 1.16 -86.5 0 0 269.45 253.05
  L 256.81 253.05
  A 0.61 0.60 5.1 0 0 256.21 253.54"
/>
<path stroke="#808080" vector-effect="non-scaling-stroke" d="
  M 325.21 253.55
  C 321.95 270.79 351.96 268.83 361.00 266.50
  C 369.48 264.31 373.94 255.02 366.06 248.69
  C 359.16 243.16 350.88 241.22 343.91 236.35
  C 331.34 227.57 357.39 222.17 355.59 233.26
  A 0.45 0.43 -84.8 0 0 356.00 233.78
  L 369.31 234.07
  A 0.57 0.56 -86.1 0 0 369.88 233.57
  C 372.14 216.07 333.94 217.04 327.31 226.06
  C 321.49 233.99 329.81 240.84 336.31 243.69
  C 341.12 245.79 351.77 250.04 354.24 254.35
  C 357.95 260.81 348.51 260.69 344.44 260.56
  Q 339.22 260.40 339.55 254.41
  A 1.30 1.27 -88.5 0 0 338.28 253.04
  L 325.81 253.05
  A 0.62 0.61 -84.2 0 0 325.21 253.55"
/>
<path stroke="#808080" vector-effect="non-scaling-stroke" d="
  M 411.6597 220.5066
  A 0.51 0.51 0.0 0 0 411.1488 219.9975
  L 396.7488 220.0226
  A 0.51 0.51 0.0 0 0 396.2397 220.5335
  L 396.3203 266.7534
  A 0.51 0.51 0.0 0 0 396.8312 267.2625
  L 411.2312 267.2374
  A 0.51 0.51 0.0 0 0 411.7403 266.7265
  L 411.6597 220.5066"
/>
<path stroke="#808080" vector-effect="non-scaling-stroke" d="
  M 443.44 264.06
  C 450.77 268.70 461.61 268.52 470.00 267.48
  C 480.93 266.12 485.21 261.39 484.16 250.29
  A 0.58 0.57 87.2 0 0 483.59 249.76
  L 470.44 249.91
  A 0.53 0.51 89.4 0 0 469.94 250.44
  Q 469.99 255.74 469.75 257.00
  C 468.77 262.21 459.29 261.05 456.24 259.63
  Q 454.50 258.83 454.50 256.92
  Q 454.50 245.45 454.50 234.34
  Q 454.50 230.98 454.57 230.66
  C 455.58 226.22 463.78 227.05 466.83 227.77
  Q 469.69 228.44 469.78 231.04
  L 469.93 235.43
  A 0.65 0.62 88.6 0 0 470.56 236.06
  L 483.54 236.01
  A 0.59 0.58 2.8 0 0 484.11 235.50
  Q 484.84 229.07 481.73 225.41
  C 475.12 217.61 439.25 216.93 439.25 230.75
  Q 439.25 241.37 439.25 252.00
  C 439.25 257.75 438.83 261.15 443.44 264.06"
/>
<path stroke="#808080" vector-effect="non-scaling-stroke" d="
  M 511.21 253.55
  C 508.36 268.86 530.69 268.24 539.50 267.75
  C 546.43 267.37 558.44 263.98 555.77 254.24
  C 553.29 245.17 536.98 241.42 529.78 236.27
  C 517.66 227.60 543.21 221.98 541.65 233.45
  A 0.43 0.42 -85.8 0 0 542.06 233.94
  L 555.31 234.06
  A 0.57 0.57 3.4 0 0 555.88 233.56
  C 557.85 217.33 529.68 219.03 520.55 221.62
  C 515.05 223.17 509.94 227.82 511.70 233.87
  C 514.09 242.09 530.16 246.98 537.01 251.25
  C 541.49 254.03 543.04 259.32 536.23 260.55
  Q 532.81 261.16 529.30 260.52
  Q 525.37 259.79 525.54 254.51
  A 1.42 1.39 -89.0 0 0 524.15 253.04
  L 511.81 253.05
  A 0.62 0.61 -84.2 0 0 511.21 253.55"
/>
<path stroke="#808080" vector-effect="non-scaling-stroke" d="
  M 200.14 251.60
  A 0.31 0.31 -81.8 0 0 200.44 252.00
  L 213.80 252.00
  A 0.31 0.31 -9.7 0 0 214.10 251.60
  L 207.42 229.81
  A 0.31 0.31 45.1 0 0 206.82 229.81
  L 200.14 251.60"
/>
</g>
<ellipse fill="#007bce" cx="279.88" cy="33.92" rx="25.10" ry="24.52"/>
<path fill="#007bce" d="
  M 199.11 88.15
  A 0.74 0.74 -32.8 0 0 198.00 87.91
  Q 193.38 91.60 189.48 95.73
  C 162.08 124.72 145.76 163.98 140.62 203.50
  A 0.89 0.88 3.4 0 1 139.75 204.26
  L 96.32 204.43
  A 0.41 0.41 13.6 0 1 95.95 203.83
  L 177.86 52.83
  Q 178.29 52.04 178.74 52.82
  L 197.82 85.45
  A 0.93 0.93 -35.3 0 0 199.23 85.69
  C 212.13 74.79 225.64 63.81 242.51 58.89
  C 243.84 58.50 245.22 59.14 243.43 60.31
  C 229.14 69.66 215.82 83.97 204.93 97.41
  A 0.67 0.67 -39.2 0 1 203.81 97.30
  L 199.11 88.15
  Z"
/>
<path fill="#1a1a1a" d="
  M 599.79 135.25
  L 599.79 141.75
  C 597.13 180.52 564.41 207.19 527.22 210.57
  L 511.00 210.54
  C 482.16 207.82 455.75 191.71 443.96 165.08
  C 429.12 131.57 444.24 95.22 475.06 77.31
  C 514.41 54.45 569.37 65.75 591.94 106.81
  Q 599.04 119.74 599.79 135.25
  Z
  M 567.95 138.45
  A 48.89 48.89 0.0 0 0 519.06 89.56
  A 48.89 48.89 0.0 0 0 470.17 138.45
  A 48.89 48.89 0.0 0 0 519.06 187.34
  A 48.89 48.89 0.0 0 0 567.95 138.45
  Z"
/>
<path fill="#1a1a1a" d="
  M 83.56 98.31
  L 83.50 203.56
  A 0.68 0.66 -89.6 0 1 82.83 204.24
  L 51.68 204.07
  A 0.50 0.49 90.0 0 1 51.19 203.57
  L 51.25 97.86
  A 0.55 0.55 0.0 0 0 50.70 97.31
  L 0.81 97.19
  A 0.50 0.50 0.0 0 1 0.31 96.69
  L 0.25 70.68
  A 0.68 0.68 -88.5 0 1 0.93 70.00
  L 133.30 70.06
  A 0.49 0.47 89.4 0 1 133.77 70.54
  L 133.92 96.26
  A 1.48 1.45 89.8 0 1 132.47 97.75
  L 84.05 97.81
  A 0.50 0.49 -90.0 0 0 83.56 98.31
  Z"
/>
<path fill="#1a1a1a" d="
  M 390.03 97.56
  A 1.03 1.03 89.8 0 0 389.00 98.59
  L 388.81 203.55
  A 0.52 0.50 -90.0 0 1 388.31 204.07
  L 357.26 204.25
  A 0.52 0.51 -90.0 0 1 356.75 203.73
  L 356.75 98.12
  A 0.87 0.87 0.0 0 0 355.88 97.25
  L 306.25 97.25
  A 0.50 0.50 0.0 0 1 305.75 96.75
  L 305.75 70.69
  A 0.69 0.69 0.0 0 1 306.44 70.00
  L 438.62 70.00
  A 0.88 0.87 0.0 0 1 439.50 70.87
  L 439.44 96.76
  A 0.97 0.96 -89.7 0 1 438.47 97.73
  L 390.03 97.56
  Z"
/>
<rect fill="#1a1a1a" x="264.76" y="70.75" width="32.74" height="132.36" rx="0.67"/>
<path fill="#007bce" d="
  M 204.56 99.17
  A 0.87 0.87 -38.0 0 1 205.97 99.34
  L 262.40 203.05
  A 0.31 0.31 75.5 0 1 262.13 203.50
  L 175.02 203.50
  A 0.98 0.98 88.8 0 1 174.04 202.56
  C 172.61 166.89 179.96 126.32 204.56 99.17
  Z"
/>
<path fill="#000000" d="
  M 527.22 210.57
  Q 540.90 211.16 562.00 211.00
  C 589.72 210.79 605.32 243.10 587.14 264.63
  C 578.09 275.34 566.72 276.24 552.75 276.23
  Q 300.39 276.00 48.03 276.00
  Q 33.87 276.00 28.62 274.43
  C -3.23 264.90 -0.33 217.86 32.38 211.65
  Q 35.79 211.00 51.65 211.00
  Q 280.08 211.00 508.50 211.02
  Q 509.80 211.02 511.00 210.54
  L 527.22 210.57
  Z
  M 87.06 223.94
  C 80.74 219.50 71.17 219.78 63.00 220.25
  C 56.86 220.60 46.25 223.27 46.25 230.75
  Q 46.25 239.52 46.25 248.28
  Q 46.25 257.51 46.40 258.20
  C 49.05 270.85 76.64 269.09 84.42 265.38
  C 91.58 261.98 91.63 257.35 91.11 250.18
  A 0.53 0.52 -2.3 0 0 90.57 249.69
  L 77.44 249.92
  A 0.51 0.50 88.9 0 0 76.95 250.44
  Q 77.03 255.50 76.75 257.00
  C 75.77 262.23 66.37 261.05 63.27 259.65
  Q 61.50 258.84 61.50 256.90
  Q 61.50 244.37 61.30 232.25
  C 61.19 226.04 70.17 226.89 73.96 227.80
  Q 76.50 228.41 76.75 231.38
  L 77.10 235.58
  A 0.62 0.53 -1.4 0 0 77.70 236.07
  L 90.02 236.18
  A 1.06 1.05 -85.6 0 0 91.07 235.27
  Q 92.16 227.52 87.06 223.94
  Z
  M 135.80 259.44
  L 135.78 220.81
  A 0.81 0.79 90.0 0 0 134.99 220.00
  L 121.06 220.00
  A 0.81 0.81 0.0 0 0 120.25 220.81
  L 120.25 266.50
  A 0.69 0.69 0.0 0 0 120.94 267.19
  L 159.81 267.06
  A 0.56 0.49 0.0 0 0 160.37 266.57
  L 160.38 260.69
  A 0.57 0.51 0.0 0 0 159.81 260.18
  L 136.31 259.94
  A 0.52 0.50 0.6 0 1 135.80 259.44
  Z
  M 215.26 258.00
  A 1.52 1.42 80.9 0 1 216.64 259.07
  L 218.89 266.46
  A 0.74 0.67 -6.9 0 0 219.57 266.94
  L 233.63 267.26
  A 0.62 0.61 -8.0 0 0 234.24 266.46
  L 219.23 220.67
  A 0.97 0.94 80.6 0 0 218.33 220.01
  L 197.20 220.17
  A 0.71 0.70 -80.9 0 0 196.53 220.66
  L 181.56 266.60
  A 0.37 0.36 9.1 0 0 181.91 267.08
  L 194.80 267.00
  A 0.76 0.74 8.3 0 0 195.52 266.48
  L 197.87 258.85
  A 1.21 1.20 -81.5 0 1 199.02 257.99
  L 215.26 258.00
  Z
  M 256.21 253.54
  C 252.63 271.96 290.66 270.42 298.09 263.11
  C 302.81 258.45 301.79 251.74 296.44 248.06
  C 290.16 243.74 282.98 241.18 276.14 237.40
  C 273.46 235.91 270.03 231.89 272.54 229.11
  C 275.46 225.89 287.31 225.67 286.47 233.04
  A 0.92 0.91 3.3 0 0 287.39 234.06
  L 300.31 234.05
  A 0.55 0.52 2.2 0 0 300.86 233.57
  Q 301.54 224.90 293.75 222.25
  C 285.22 219.35 267.26 218.08 259.66 224.59
  C 254.27 229.22 256.13 235.72 261.14 239.85
  Q 264.16 242.34 267.80 243.97
  C 271.62 245.67 289.09 252.15 285.37 258.36
  C 283.42 261.60 276.35 261.02 273.43 260.06
  C 270.42 259.07 270.25 257.21 270.61 254.39
  A 1.19 1.16 -86.5 0 0 269.45 253.05
  L 256.81 253.05
  A 0.61 0.60 5.1 0 0 256.21 253.54
  Z
  M 325.21 253.55
  C 321.95 270.79 351.96 268.83 361.00 266.50
  C 369.48 264.31 373.94 255.02 366.06 248.69
  C 359.16 243.16 350.88 241.22 343.91 236.35
  C 331.34 227.57 357.39 222.17 355.59 233.26
  A 0.45 0.43 -84.8 0 0 356.00 233.78
  L 369.31 234.07
  A 0.57 0.56 -86.1 0 0 369.88 233.57
  C 372.14 216.07 333.94 217.04 327.31 226.06
  C 321.49 233.99 329.81 240.84 336.31 243.69
  C 341.12 245.79 351.77 250.04 354.24 254.35
  C 357.95 260.81 348.51 260.69 344.44 260.56
  Q 339.22 260.40 339.55 254.41
  A 1.30 1.27 -88.5 0 0 338.28 253.04
  L 325.81 253.05
  A 0.62 0.61 -84.2 0 0 325.21 253.55
  Z
  M 411.6597 220.5066
  A 0.51 0.51 0.0 0 0 411.1488 219.9975
  L 396.7488 220.0226
  A 0.51 0.51 0.0 0 0 396.2397 220.5335
  L 396.3203 266.7534
  A 0.51 0.51 0.0 0 0 396.8312 267.2625
  L 411.2312 267.2374
  A 0.51 0.51 0.0 0 0 411.7403 266.7265
  L 411.6597 220.5066
  Z
  M 443.44 264.06
  C 450.77 268.70 461.61 268.52 470.00 267.48
  C 480.93 266.12 485.21 261.39 484.16 250.29
  A 0.58 0.57 87.2 0 0 483.59 249.76
  L 470.44 249.91
  A 0.53 0.51 89.4 0 0 469.94 250.44
  Q 469.99 255.74 469.75 257.00
  C 468.77 262.21 459.29 261.05 456.24 259.63
  Q 454.50 258.83 454.50 256.92
  Q 454.50 245.45 454.50 234.34
  Q 454.50 230.98 454.57 230.66
  C 455.58 226.22 463.78 227.05 466.83 227.77
  Q 469.69 228.44 469.78 231.04
  L 469.93 235.43
  A 0.65 0.62 88.6 0 0 470.56 236.06
  L 483.54 236.01
  A 0.59 0.58 2.8 0 0 484.11 235.50
  Q 484.84 229.07 481.73 225.41
  C 475.12 217.61 439.25 216.93 439.25 230.75
  Q 439.25 241.37 439.25 252.00
  C 439.25 257.75 438.83 261.15 443.44 264.06
  Z
  M 511.21 253.55
  C 508.36 268.86 530.69 268.24 539.50 267.75
  C 546.43 267.37 558.44 263.98 555.77 254.24
  C 553.29 245.17 536.98 241.42 529.78 236.27
  C 517.66 227.60 543.21 221.98 541.65 233.45
  A 0.43 0.42 -85.8 0 0 542.06 233.94
  L 555.31 234.06
  A 0.57 0.57 3.4 0 0 555.88 233.56
  C 557.85 217.33 529.68 219.03 520.55 221.62
  C 515.05 223.17 509.94 227.82 511.70 233.87
  C 514.09 242.09 530.16 246.98 537.01 251.25
  C 541.49 254.03 543.04 259.32 536.23 260.55
  Q 532.81 261.16 529.30 260.52
  Q 525.37 259.79 525.54 254.51
  A 1.42 1.39 -89.0 0 0 524.15 253.04
  L 511.81 253.05
  A 0.62 0.61 -84.2 0 0 511.21 253.55
  Z"
/>
<path fill="#ffffff" d="
  M 87.06 223.94
  Q 92.16 227.52 91.07 235.27
  A 1.06 1.05 -85.6 0 1 90.02 236.18
  L 77.70 236.07
  A 0.62 0.53 -1.4 0 1 77.10 235.58
  L 76.75 231.38
  Q 76.50 228.41 73.96 227.80
  C 70.17 226.89 61.19 226.04 61.30 232.25
  Q 61.50 244.37 61.50 256.90
  Q 61.50 258.84 63.27 259.65
  C 66.37 261.05 75.77 262.23 76.75 257.00
  Q 77.03 255.50 76.95 250.44
  A 0.51 0.50 88.9 0 1 77.44 249.92
  L 90.57 249.69
  A 0.53 0.52 -2.3 0 1 91.11 250.18
  C 91.63 257.35 91.58 261.98 84.42 265.38
  C 76.64 269.09 49.05 270.85 46.40 258.20
  Q 46.25 257.51 46.25 248.28
  Q 46.25 239.52 46.25 230.75
  C 46.25 223.27 56.86 220.60 63.00 220.25
  C 71.17 219.78 80.74 219.50 87.06 223.94
  Z"
/>
<path fill="#ffffff" d="
  M 136.31 259.94
  L 159.81 260.18
  A 0.57 0.51 -0.0 0 1 160.38 260.69
  L 160.37 266.57
  A 0.56 0.49 -0.0 0 1 159.81 267.06
  L 120.94 267.19
  A 0.69 0.69 0.0 0 1 120.25 266.50
  L 120.25 220.81
  A 0.81 0.81 0.0 0 1 121.06 220.00
  L 134.99 220.00
  A 0.81 0.79 -90.0 0 1 135.78 220.81
  L 135.80 259.44
  A 0.52 0.50 0.6 0 0 136.31 259.94
  Z"
/>
<path fill="#ffffff" d="
  M 215.26 258.00
  L 199.02 257.99
  A 1.21 1.20 -81.5 0 0 197.87 258.85
  L 195.52 266.48
  A 0.76 0.74 8.3 0 1 194.80 267.00
  L 181.91 267.08
  A 0.37 0.36 9.1 0 1 181.56 266.60
  L 196.53 220.66
  A 0.71 0.70 -80.9 0 1 197.20 220.17
  L 218.33 220.01
  A 0.97 0.94 80.6 0 1 219.23 220.67
  L 234.24 266.46
  A 0.62 0.61 -8.0 0 1 233.63 267.26
  L 219.57 266.94
  A 0.74 0.67 -6.9 0 1 218.89 266.46
  L 216.64 259.07
  A 1.52 1.42 80.9 0 0 215.26 258.00
  Z
  M 200.14 251.60
  A 0.31 0.31 -81.8 0 0 200.44 252.00
  L 213.80 252.00
  A 0.31 0.31 -9.7 0 0 214.10 251.60
  L 207.42 229.81
  A 0.31 0.31 45.1 0 0 206.82 229.81
  L 200.14 251.60
  Z"
/>
<path fill="#ffffff" d="
  M 298.09 263.11
  C 290.66 270.42 252.63 271.96 256.21 253.54
  A 0.61 0.60 5.1 0 1 256.81 253.05
  L 269.45 253.05
  A 1.19 1.16 -86.5 0 1 270.61 254.39
  C 270.25 257.21 270.42 259.07 273.43 260.06
  C 276.35 261.02 283.42 261.60 285.37 258.36
  C 289.09 252.15 271.62 245.67 267.80 243.97
  Q 264.16 242.34 261.14 239.85
  C 256.13 235.72 254.27 229.22 259.66 224.59
  C 267.26 218.08 285.22 219.35 293.75 222.25
  Q 301.54 224.90 300.86 233.57
  A 0.55 0.52 2.2 0 1 300.31 234.05
  L 287.39 234.06
  A 0.92 0.91 3.3 0 1 286.47 233.04
  C 287.31 225.67 275.46 225.89 272.54 229.11
  C 270.03 231.89 273.46 235.91 276.14 237.40
  C 282.98 241.18 290.16 243.74 296.44 248.06
  C 301.79 251.74 302.81 258.45 298.09 263.11
  Z"
/>
<path fill="#ffffff" d="
  M 361.00 266.50
  C 351.96 268.83 321.95 270.79 325.21 253.55
  A 0.62 0.61 -84.2 0 1 325.81 253.05
  L 338.28 253.04
  A 1.30 1.27 -88.5 0 1 339.55 254.41
  Q 339.22 260.40 344.44 260.56
  C 348.51 260.69 357.95 260.81 354.24 254.35
  C 351.77 250.04 341.12 245.79 336.31 243.69
  C 329.81 240.84 321.49 233.99 327.31 226.06
  C 333.94 217.04 372.14 216.07 369.88 233.57
  A 0.57 0.56 -86.1 0 1 369.31 234.07
  L 356.00 233.78
  A 0.45 0.43 -84.8 0 1 355.59 233.26
  C 357.39 222.17 331.34 227.57 343.91 236.35
  C 350.88 241.22 359.16 243.16 366.06 248.69
  C 373.94 255.02 369.48 264.31 361.00 266.50
  Z"
/>
<rect fill="#ffffff" x="-7.71" y="-23.62" transform="translate(403.99,243.63) rotate(-0.1)" width="15.42" height="47.24" rx="0.51"/>
<path fill="#ffffff" d="
  M 443.44 264.06
  C 438.83 261.15 439.25 257.75 439.25 252.00
  Q 439.25 241.37 439.25 230.75
  C 439.25 216.93 475.12 217.61 481.73 225.41
  Q 484.84 229.07 484.11 235.50
  A 0.59 0.58 2.8 0 1 483.54 236.01
  L 470.56 236.06
  A 0.65 0.62 88.6 0 1 469.93 235.43
  L 469.78 231.04
  Q 469.69 228.44 466.83 227.77
  C 463.78 227.05 455.58 226.22 454.57 230.66
  Q 454.50 230.98 454.50 234.34
  Q 454.50 245.45 454.50 256.92
  Q 454.50 258.83 456.24 259.63
  C 459.29 261.05 468.77 262.21 469.75 257.00
  Q 469.99 255.74 469.94 250.44
  A 0.53 0.51 89.4 0 1 470.44 249.91
  L 483.59 249.76
  A 0.58 0.57 87.2 0 1 484.16 250.29
  C 485.21 261.39 480.93 266.12 470.00 267.48
  C 461.61 268.52 450.77 268.70 443.44 264.06
  Z"
/>
<path fill="#ffffff" d="
  M 539.50 267.75
  C 530.69 268.24 508.36 268.86 511.21 253.55
  A 0.62 0.61 -84.2 0 1 511.81 253.05
  L 524.15 253.04
  A 1.42 1.39 -89.0 0 1 525.54 254.51
  Q 525.37 259.79 529.30 260.52
  Q 532.81 261.16 536.23 260.55
  C 543.04 259.32 541.49 254.03 537.01 251.25
  C 530.16 246.98 514.09 242.09 511.70 233.87
  C 509.94 227.82 515.05 223.17 520.55 221.62
  C 529.68 219.03 557.85 217.33 555.88 233.56
  A 0.57 0.57 3.4 0 1 555.31 234.06
  L 542.06 233.94
  A 0.43 0.42 -85.8 0 1 541.65 233.45
  C 543.21 221.98 517.66 227.60 529.78 236.27
  C 536.98 241.42 553.29 245.17 555.77 254.24
  C 558.44 263.98 546.43 267.37 539.50 267.75
  Z"
/>
<path fill="#000000" d="
  M 200.14 251.60
  L 206.82 229.81
  A 0.31 0.31 44.5 0 1 207.42 229.81
  L 214.10 251.60
  A 0.31 0.31 -9.1 0 1 213.80 252.00
  L 200.44 252.00
  A 0.31 0.31 -81.7 0 1 200.14 251.60
  Z"
/>
</svg>
