<?xml version="1.0" encoding="UTF-8" standalone="no"?>
<!DOCTYPE svg PUBLIC "-//W3C//DTD SVG 1.1//EN" "http://www.w3.org/Graphics/SVG/1.1/DTD/svg11.dtd">
<svg xmlns="http://www.w3.org/2000/svg" version="1.1" viewBox="0 0 600 300">
<path fill="#000000" d="
  M 0.00 225.69
  L 0.00 218.19
  Q 1.03 199.01 16.56 189.81
  C 25.12 184.75 32.94 185.01 44.99 184.97
  Q 70.43 184.90 95.87 185.18
  A 0.37 0.27 -1.7 0 0 96.26 184.88
  L 96.24 184.72
  A 0.33 0.21 14.4 0 0 96.03 184.50
  C 66.35 173.08 47.02 152.24 44.22 119.48
  Q 41.01 81.97 68.56 57.06
  Q 89.47 38.16 117.75 38.10
  Q 171.13 38.00 224.50 38.00
  Q 240.17 38.00 251.72 48.78
  C 272.61 68.29 264.55 103.39 236.83 110.93
  Q 231.99 112.25 223.54 112.25
  Q 196.68 112.25 169.82 112.25
  C 169.50 112.25 162.32 111.55 168.80 113.86
  C 193.83 122.78 210.74 143.47 217.54 168.44
  C 223.55 190.52 217.36 213.65 202.88 230.75
  C 191.06 244.71 176.16 255.40 158.01 259.40
  Q 151.95 260.74 141.87 260.81
  Q 57.58 261.42 39.25 261.00
  C 19.57 260.54 1.33 246.10 0.00 225.69
  Z"
/>
<path fill="#000000" d="
  M 456.06 114.56
  Q 455.96 162.53 455.99 210.50
  Q 456.00 227.09 455.36 230.45
  C 451.85 248.66 430.53 265.07 411.42 259.88
  C 399.11 256.54 385.87 243.32 382.76 230.85
  Q 381.75 226.82 381.75 219.05
  Q 381.79 166.68 381.69 114.31
  A 0.50 0.50 0.0 0 0 381.19 113.81
  Q 362.22 113.70 343.25 113.75
  C 327.60 113.79 314.27 101.05 309.68 86.86
  C 302.05 63.24 319.92 38.08 345.25 38.06
  Q 418.00 38.00 490.75 38.05
  C 507.56 38.06 524.36 48.97 527.63 66.07
  C 532.77 92.96 515.56 115.73 487.25 113.75
  Q 479.87 113.23 456.57 114.05
  A 0.52 0.51 -0.6 0 0 456.06 114.56
  Z"
/>
<path fill="#000000" d="
  M 345.00 215.26
  C 359.86 214.96 371.24 232.12 365.25 245.82
  C 362.54 252.04 356.71 257.62 350.29 259.92
  Q 347.30 261.00 340.58 261.00
  Q 302.04 261.00 263.50 261.05
  C 251.21 261.07 239.85 251.03 236.05 240.15
  Q 234.76 236.46 234.70 230.66
  Q 234.36 197.33 234.47 163.99
  Q 234.51 152.64 234.78 151.01
  C 236.49 140.71 245.10 132.22 254.67 128.80
  Q 258.26 127.51 264.01 127.45
  Q 303.25 127.08 342.50 127.25
  Q 350.59 127.29 356.31 131.21
  C 370.98 141.26 369.86 157.37 356.18 167.96
  C 350.03 172.72 343.14 171.75 335.84 171.75
  Q 333.79 171.75 335.59 172.74
  C 353.29 182.43 353.38 204.21 335.92 213.88
  Q 334.20 214.83 336.16 214.99
  Q 340.62 215.35 345.00 215.26
  Z"
/>
<path fill="#000000" d="
  M 600.00 190.06
  L 600.05 238.33
  Q 597.30 253.97 584.32 258.86
  C 566.14 265.70 550.58 255.32 548.00 236.55
  A 0.53 0.53 -6.3 0 0 547.43 236.10
  Q 535.89 237.00 525.03 236.12
  A 1.05 1.04 6.8 0 0 523.91 237.00
  Q 520.51 258.36 499.98 260.55
  Q 486.93 261.94 477.69 251.81
  C 471.86 245.43 470.75 241.04 470.74 231.88
  Q 470.72 214.64 470.78 197.40
  C 470.83 178.84 474.11 165.57 485.69 151.44
  C 523.63 105.11 598.31 129.73 600.00 190.06
  Z
  M 550.42 189.48
  C 543.99 172.14 518.89 176.83 519.14 195.00
  C 519.20 199.74 519.00 202.90 524.45 204.44
  C 530.52 206.16 546.02 207.65 550.88 201.83
  A 1.53 1.31 68.8 0 0 551.20 200.93
  C 551.28 197.16 551.68 192.89 550.42 189.48
  Z"
/>
</svg>
