<?xml version="1.0" encoding="UTF-8" standalone="no"?>
<!DOCTYPE svg PUBLIC "-//W3C//DTD SVG 1.1//EN" "http://www.w3.org/Graphics/SVG/1.1/DTD/svg11.dtd">
<svg xmlns="http://www.w3.org/2000/svg" version="1.1" viewBox="0 0 600 300">
<path fill="#b2b2b2" d="
  M 115.81 0.00
  L 118.31 0.00
  C 168.74 2.90 215.75 28.33 249.44 64.06
  C 251.53 66.29 252.20 65.76 254.92 65.74
  C 267.61 65.65 284.03 69.30 293.07 78.56
  C 301.49 87.19 302.65 100.82 302.25 112.75
  Q 301.88 123.83 302.42 154.00
  Q 302.49 157.95 303.52 162.37
  C 318.30 226.03 287.66 291.49 217.26 298.23
  C 213.33 298.61 208.32 299.64 204.25 299.50
  C 121.76 296.74 49.05 235.29 20.73 160.05
  C 5.82 120.46 4.32 69.97 32.92 35.45
  Q 56.25 7.28 92.31 2.06
  Q 102.45 0.60 115.81 0.00
  Z
  M 197.06 214.46
  L 197.00 66.26
  A 0.52 0.51 -0.0 0 1 197.52 65.75
  L 245.33 65.69
  Q 246.75 65.69 245.76 64.66
  C 213.58 31.42 169.23 4.87 122.75 2.00
  C 97.89 0.46 73.12 6.27 53.89 22.26
  C 10.48 58.34 18.26 124.24 40.35 169.10
  C 63.32 215.75 102.44 254.87 150.00 276.25
  C 189.25 293.90 240.55 299.03 275.25 268.21
  C 301.58 244.83 308.98 206.50 302.62 172.73
  C 302.45 171.81 301.86 171.64 301.88 173.00
  C 302.07 183.72 299.70 194.52 292.58 202.56
  C 283.07 213.30 270.41 214.70 256.50 214.75
  Q 227.03 214.86 197.55 214.94
  A 0.49 0.48 0.0 0 1 197.06 214.46
  Z
  M 239.77 186.81
  C 247.71 186.89 259.53 189.54 259.82 177.68
  Q 260.67 143.43 260.08 109.17
  C 259.96 102.19 260.53 95.74 252.72 94.80
  C 249.84 94.45 243.86 94.22 239.81 94.75
  A 0.57 0.56 -3.4 0 0 239.31 95.31
  L 239.25 186.29
  A 0.53 0.52 0.6 0 0 239.77 186.81
  Z"
/>
<path fill="#b2b2b2" d="
  M 127.06 188.44
  C 138.69 188.34 137.50 180.59 137.50 170.98
  Q 137.50 165.72 137.50 160.43
  A 0.68 0.68 0.0 0 1 138.18 159.75
  L 178.68 159.75
  A 0.55 0.55 88.9 0 1 179.23 160.28
  Q 179.67 173.65 178.28 186.23
  C 174.67 218.94 133.80 219.80 110.00 216.25
  C 93.52 213.79 79.99 205.89 75.85 189.64
  Q 74.50 184.35 74.50 169.75
  Q 74.50 138.50 74.50 107.25
  C 74.50 96.58 75.45 87.15 81.76 78.91
  C 96.72 59.37 137.60 59.76 157.72 69.01
  C 181.23 79.83 178.75 97.75 178.75 119.90
  A 0.85 0.85 0.0 0 1 177.90 120.75
  L 138.63 120.75
  A 0.89 0.88 89.7 0 1 137.75 119.87
  Q 137.64 110.37 137.50 100.50
  C 137.36 90.18 116.56 89.14 116.48 101.75
  Q 116.27 136.44 116.25 171.13
  C 116.25 180.84 115.18 188.54 127.06 188.44
  Z"
/>
<path fill="#b2b2b2" d="
  M 338.71 214.50
  L 338.71 211.50
  L 338.56 95.04
  A 0.80 0.79 0.0 0 0 337.76 94.25
  L 307.77 94.25
  A 0.77 0.77 -89.5 0 1 307.00 93.48
  L 307.06 66.55
  A 0.81 0.80 0.0 0 1 307.87 65.75
  L 411.68 65.75
  A 0.82 0.82 0.0 0 1 412.50 66.57
  L 412.50 93.38
  A 0.88 0.87 -0.0 0 1 411.62 94.25
  L 381.31 94.31
  A 0.56 0.56 0.0 0 0 380.75 94.87
  L 380.75 213.99
  A 0.96 0.95 -0.3 0 1 379.80 214.94
  C 375.89 214.96 339.37 215.47 338.71 214.50
  Z"
/>
<path fill="#b2b2b2" d="
  M 473.51 178.26
  C 473.79 178.24 487.89 75.95 489.24 66.35
  A 0.70 0.69 3.8 0 1 489.93 65.75
  L 530.19 65.75
  A 0.59 0.59 -84.4 0 1 530.77 66.46
  L 502.08 214.10
  A 1.12 1.10 5.3 0 1 500.98 215.00
  L 445.95 215.00
  A 1.52 1.51 -5.3 0 1 444.46 213.77
  L 416.83 66.26
  A 0.44 0.43 -5.0 0 1 417.26 65.75
  L 457.05 65.81
  A 1.06 1.05 86.3 0 1 458.09 66.73
  L 473.28 177.98
  A 0.32 0.19 81.4 0 0 473.51 178.26
  Z"
/>
<path fill="#b2b2b2" d="
  M 496.25 246.74
  C 488.99 255.89 501.14 270.52 507.44 257.81
  A 0.73 0.71 -64.0 0 1 508.39 257.47
  L 511.74 259.08
  A 0.55 0.55 23.3 0 1 512.02 259.77
  Q 509.52 266.40 502.50 267.25
  C 485.72 269.28 483.44 241.52 499.81 239.80
  C 505.47 239.21 510.00 241.76 511.62 247.27
  A 0.56 0.48 74.9 0 1 511.30 247.95
  L 507.56 248.90
  A 0.65 0.53 72.6 0 1 506.90 248.46
  C 505.03 243.49 499.39 242.78 496.25 246.74
  Z"
/>
<rect fill="#b2b2b2" x="360.75" y="240.25" width="5.00" height="26.50" rx="0.65"/>
<path fill="#b2b2b2" d="
  M 387.65 256.47
  Q 387.49 250.86 387.30 244.27
  C 387.18 240.37 386.74 239.55 391.26 240.60
  A 0.97 0.95 -83.6 0 1 392.00 241.54
  Q 392.00 252.90 392.00 263.42
  C 392.00 266.92 392.39 267.27 388.41 266.48
  A 2.08 1.97 -9.5 0 1 387.06 265.57
  L 377.43 250.05
  Q 376.23 248.12 376.26 250.41
  L 376.45 266.19
  A 0.52 0.51 -1.1 0 1 375.94 266.71
  L 372.61 266.76
  A 0.88 0.85 89.7 0 1 371.75 265.88
  L 371.75 240.88
  A 0.56 0.50 -89.5 0 1 372.26 240.32
  L 375.57 240.35
  A 1.07 0.77 68.8 0 1 376.34 240.85
  L 386.44 256.82
  Q 387.72 258.84 387.65 256.47
  Z"
/>
<path fill="#b2b2b2" d="
  M 402.69 245.04
  L 396.56 244.71
  A 0.71 0.68 -6.1 0 1 395.91 244.21
  Q 395.43 242.50 395.91 240.79
  A 0.69 0.67 7.8 0 1 396.57 240.31
  L 414.68 240.30
  A 0.59 0.51 0.0 0 1 415.27 240.81
  L 415.27 244.20
  A 0.59 0.56 -0.5 0 1 414.69 244.76
  L 409.02 244.79
  A 1.02 0.90 0.0 0 0 408.00 245.69
  L 407.94 265.93
  A 0.66 0.45 -89.2 0 1 407.47 266.60
  L 404.01 266.49
  A 0.93 0.80 -89.4 0 1 403.24 265.58
  L 403.19 245.56
  A 0.52 0.52 1.1 0 0 402.69 245.04
  Z"
/>
<path fill="#b2b2b2" d="
  M 424.30 250.91
  L 435.75 250.96
  A 0.68 0.66 83.7 0 1 436.38 251.48
  Q 436.78 253.10 436.34 254.71
  A 0.71 0.64 6.5 0 1 435.68 255.18
  L 424.44 255.41
  A 0.57 0.54 -0.6 0 0 423.89 255.94
  L 423.78 261.70
  A 0.53 0.48 0.5 0 0 424.31 262.19
  L 437.94 262.31
  A 0.53 0.48 0.5 0 1 438.47 262.80
  L 438.45 265.71
  A 1.04 1.03 0.6 0 1 437.40 266.73
  L 419.44 266.58
  A 0.52 0.52 0.0 0 1 418.92 266.06
  L 418.92 240.93
  A 0.52 0.51 0.0 0 1 419.44 240.42
  L 436.76 240.26
  A 1.04 0.92 -87.4 0 1 437.67 241.39
  L 437.43 244.18
  A 0.54 0.50 -87.5 0 1 436.93 244.68
  L 424.44 244.92
  A 0.57 0.52 -0.1 0 0 423.88 245.43
  L 423.78 250.44
  A 0.52 0.46 0.5 0 0 424.30 250.91
  Z"
/>
<path fill="#b2b2b2" d="
  M 457.01 256.28
  L 461.89 265.73
  A 0.70 0.65 75.5 0 1 461.34 266.74
  L 457.31 266.71
  A 0.91 0.80 73.8 0 1 456.57 266.24
  L 451.81 257.63
  A 1.06 0.80 73.3 0 0 451.07 257.09
  L 447.94 256.90
  A 0.55 0.51 -88.0 0 0 447.40 257.44
  L 447.28 265.81
  A 0.95 0.87 -89.0 0 1 446.40 266.74
  L 442.89 266.71
  A 0.68 0.65 -89.6 0 1 442.25 266.03
  L 442.25 241.00
  A 0.55 0.54 -2.3 0 1 442.76 240.46
  C 449.00 240.04 462.14 238.14 461.73 249.22
  Q 461.58 253.42 457.26 255.60
  A 0.53 0.50 -26.8 0 0 457.01 256.28
  Z
  M 456.35 250.20
  C 458.41 244.71 451.40 243.92 447.73 244.87
  A 0.66 0.63 -8.1 0 0 447.23 245.50
  L 447.40 252.31
  A 0.53 0.47 86.5 0 0 447.93 252.83
  L 454.07 252.14
  Q 455.70 251.96 456.35 250.20
  Z"
/>
<path fill="#b2b2b2" d="
  M 470.21 262.30
  L 468.90 266.23
  A 0.78 0.68 7.1 0 1 468.19 266.71
  L 464.60 266.76
  A 0.81 0.79 -80.6 0 1 463.85 265.69
  L 472.39 241.03
  A 0.95 0.92 -86.7 0 1 473.04 240.43
  Q 475.34 239.83 477.60 240.53
  A 0.99 0.98 89.3 0 1 478.23 241.15
  L 486.78 265.96
  A 0.51 0.48 71.4 0 1 486.48 266.61
  C 484.45 267.24 481.47 267.53 481.21 264.26
  Q 481.04 262.07 478.88 261.68
  Q 475.49 261.07 470.80 261.74
  A 0.86 0.67 -81.6 0 0 470.21 262.30
  Z
  M 471.95 256.74
  A 0.41 0.41 7.5 0 0 472.35 257.27
  L 478.43 257.23
  A 0.41 0.41 -8.4 0 0 478.83 256.71
  L 475.73 246.30
  A 0.41 0.41 -46.6 0 0 474.94 246.30
  L 471.95 256.74
  Z"
/>
<path fill="#b2b2b2" d="
  M 520.18 245.06
  L 514.49 244.80
  A 0.70 0.65 84.1 0 1 513.87 244.26
  Q 513.46 242.52 513.92 240.79
  A 0.67 0.65 7.4 0 1 514.56 240.31
  L 532.44 240.30
  A 0.68 0.68 -8.0 0 1 533.09 240.79
  Q 533.57 242.50 533.09 244.21
  A 0.75 0.62 -80.0 0 1 532.45 244.76
  L 527.54 244.73
  A 1.75 1.62 0.0 0 0 525.78 246.36
  L 525.83 265.81
  A 0.71 0.70 80.9 0 1 525.35 266.48
  Q 523.35 267.15 521.30 266.59
  A 0.69 0.66 -82.9 0 1 520.81 265.93
  L 520.69 245.56
  A 0.54 0.50 1.8 0 0 520.18 245.06
  Z"
/>
<rect fill="#b2b2b2" x="-2.51" y="-13.23" transform="translate(539.26,253.49) rotate(0.1)" width="5.02" height="26.46" rx="0.71"/>
<path fill="#b2b2b2" d="
  M 555.56 259.21
  Q 556.10 261.12 556.62 259.22
  L 561.63 241.03
  A 1.05 1.04 -82.4 0 1 562.64 240.25
  L 566.45 240.25
  A 0.50 0.50 8.2 0 1 566.93 240.89
  L 559.77 265.67
  A 1.40 1.25 -81.0 0 1 558.52 266.69
  L 553.43 266.63
  A 0.74 0.66 81.7 0 1 552.79 266.09
  L 545.34 240.91
  A 0.52 0.51 -8.3 0 1 545.84 240.25
  L 549.57 240.25
  A 0.85 0.84 -7.6 0 1 550.39 240.87
  L 555.56 259.21
  Z"
/>
<path fill="#b2b2b2" d="
  M 575.82 262.20
  L 588.92 262.25
  A 0.63 0.54 -0.5 0 1 589.55 262.78
  L 589.60 266.21
  A 0.66 0.48 -0.0 0 1 588.94 266.69
  L 570.89 266.75
  A 0.65 0.64 -90.0 0 1 570.25 266.10
  L 570.25 241.10
  A 0.85 0.85 -0.0 0 1 571.10 240.25
  L 588.20 240.31
  A 0.65 0.48 -0.0 0 1 588.85 240.79
  L 588.82 244.08
  A 0.78 0.67 0.0 0 1 588.04 244.75
  L 575.66 244.75
  A 0.66 0.66 90.0 0 0 575.00 245.41
  L 575.00 250.09
  A 0.66 0.66 90.0 0 0 575.66 250.75
  L 586.43 250.75
  A 1.02 1.02 83.6 0 1 587.42 251.54
  Q 588.41 255.91 585.50 255.25
  Q 583.94 254.90 575.69 255.40
  A 0.62 0.52 -2.7 0 0 575.11 255.94
  L 575.22 261.70
  A 0.61 0.51 0.1 0 0 575.82 262.20
  Z"
/>
<path fill="#b2b2b2" d="
  M 364.87 277.56
  Q 365.89 287.03 365.58 296.55
  A 0.62 0.52 -88.9 0 1 365.06 297.15
  L 361.50 297.16
  A 0.82 0.75 90.0 0 1 360.75 296.34
  L 360.75 271.39
  A 0.59 0.55 -89.5 0 1 361.31 270.80
  L 367.56 270.89
  A 0.72 0.64 81.9 0 1 368.20 271.43
  L 372.67 288.75
  Q 373.09 290.37 373.50 288.76
  L 377.94 271.30
  A 0.67 0.63 -82.3 0 1 378.56 270.80
  L 384.70 270.77
  A 0.55 0.54 89.5 0 1 385.25 271.32
  L 385.25 296.08
  A 0.92 0.79 89.0 0 1 384.49 296.99
  L 381.03 297.10
  A 0.67 0.46 88.4 0 1 380.55 296.45
  Q 380.39 286.98 381.06 277.53
  C 381.07 277.41 381.09 277.34 380.91 277.31
  A 0.14 0.10 -73.6 0 0 380.78 277.41
  Q 377.90 285.86 376.04 294.59
  C 375.36 297.79 374.37 297.67 371.51 296.92
  A 1.32 1.31 89.6 0 1 370.57 295.99
  Q 368.42 288.15 366.50 280.50
  Q 365.97 278.41 365.16 277.42
  Q 364.80 276.99 364.87 277.56
  Z"
/>
<path fill="#b2b2b2" d="
  M 407.40 291.41
  A 2.81 2.80 71.4 0 0 408.50 289.18
  L 408.50 271.43
  A 0.84 0.83 -83.9 0 1 409.51 270.61
  Q 410.87 270.90 412.76 270.50
  A 0.82 0.82 -6.0 0 1 413.75 271.30
  Q 413.75 279.38 413.75 287.50
  C 413.75 301.71 391.78 301.02 392.26 287.49
  Q 392.55 279.53 392.43 271.32
  A 0.76 0.76 -84.5 0 1 393.34 270.57
  Q 394.87 270.90 396.42 270.57
  A 0.89 0.89 -6.0 0 1 397.50 271.44
  C 397.50 276.70 397.73 282.10 397.41 287.32
  C 397.05 293.12 403.78 294.18 407.40 291.41
  Z"
/>
<path fill="#b2b2b2" d="
  M 426.81 292.45
  L 435.66 292.49
  A 0.67 0.57 0.1 0 1 436.32 293.05
  L 436.34 296.71
  A 0.65 0.48 -0.0 0 1 435.69 297.19
  L 421.92 297.25
  A 0.67 0.67 0.0 0 1 421.25 296.58
  L 421.25 271.38
  A 0.89 0.86 2.5 0 1 422.21 270.53
  L 425.68 270.80
  A 0.54 0.51 1.8 0 1 426.19 271.31
  L 426.31 291.93
  A 0.52 0.50 90.0 0 0 426.81 292.45
  Z"
/>
<path fill="#b2b2b2" d="
  M 442.93 275.30
  L 437.25 275.24
  A 0.81 0.71 -10.4 0 1 436.53 274.81
  Q 435.73 273.00 436.53 271.19
  A 0.81 0.75 11.3 0 1 437.25 270.75
  L 454.76 270.75
  A 0.66 0.57 -0.9 0 1 455.42 271.30
  L 455.61 274.72
  A 0.68 0.43 -1.9 0 1 454.94 275.18
  L 449.19 275.40
  A 0.55 0.54 89.5 0 0 448.67 275.94
  L 448.49 296.25
  A 0.95 0.75 78.8 0 1 448.09 297.03
  Q 447.45 297.39 446.69 297.35
  C 443.11 297.20 443.49 297.53 443.50 293.99
  Q 443.54 284.90 443.44 275.81
  A 0.51 0.51 0.0 0 0 442.93 275.30
  Z"
/>
<rect fill="#b2b2b2" x="460.76" y="270.59" width="5.00" height="26.64" rx="0.55"/>
<path fill="#b2b2b2" d="
  M 477.78 277.53
  C 477.08 277.69 477.71 294.03 477.78 296.21
  A 0.81 0.70 88.5 0 1 477.09 297.05
  L 473.29 297.08
  A 0.62 0.45 -89.8 0 1 472.83 296.45
  L 472.99 271.26
  A 0.52 0.51 -89.4 0 1 473.50 270.75
  L 479.56 270.75
  A 0.68 0.64 -6.5 0 1 480.21 271.24
  L 484.53 288.13
  Q 485.13 290.49 485.73 288.16
  L 490.00 271.48
  A 1.23 1.21 -77.2 0 1 491.41 270.58
  Q 493.75 271.06 496.51 270.50
  A 0.83 0.82 -5.8 0 1 497.50 271.30
  L 497.50 296.25
  A 0.96 0.93 90.0 0 1 496.57 297.21
  L 493.31 297.22
  A 0.55 0.51 89.4 0 1 492.80 296.68
  Q 492.48 287.31 493.21 277.96
  A 0.55 0.31 89.2 0 0 492.84 277.32
  C 492.38 277.48 488.03 294.61 487.56 296.45
  A 0.91 0.83 -89.3 0 1 486.96 297.09
  Q 485.25 297.55 483.55 297.09
  A 0.97 0.91 87.7 0 1 482.91 296.46
  Q 480.07 287.34 478.26 277.96
  A 0.51 0.37 78.3 0 0 477.78 277.53
  Z"
/>
<path fill="#b2b2b2" d="
  M 510.06 292.44
  L 523.43 292.56
  A 0.68 0.64 -7.2 0 1 524.08 293.03
  Q 524.58 294.86 524.09 296.70
  A 0.68 0.68 8.0 0 1 523.44 297.19
  L 505.15 297.25
  A 0.66 0.65 -90.0 0 1 504.50 296.59
  L 504.50 271.36
  A 0.65 0.63 -0.5 0 1 505.14 270.73
  L 521.83 270.60
  A 1.15 1.10 -6.6 0 1 522.95 271.45
  Q 523.90 275.56 521.34 275.35
  C 517.71 275.04 513.86 275.25 510.16 275.25
  A 0.66 0.66 0.0 0 0 509.50 275.91
  L 509.50 280.66
  A 0.65 0.62 0.5 0 0 510.14 281.28
  L 521.50 281.46
  A 0.69 0.67 83.2 0 1 522.14 281.98
  Q 522.52 283.48 522.10 284.95
  A 0.70 0.67 7.4 0 1 521.45 285.43
  L 509.94 285.66
  A 0.53 0.52 -1.7 0 0 509.43 286.19
  L 509.53 291.94
  A 0.53 0.51 -0.6 0 0 510.06 292.44
  Z"
/>
<path fill="#b2b2b2" d="
  M 582.69 292.04
  L 575.12 291.95
  Q 572.69 291.92 572.52 294.48
  C 572.30 297.78 569.38 297.89 567.03 297.13
  A 0.53 0.50 -71.2 0 1 566.72 296.46
  L 575.39 271.28
  A 0.77 0.64 -77.6 0 1 576.06 270.76
  L 580.58 270.86
  A 0.80 0.66 79.4 0 1 581.23 271.40
  L 589.70 296.36
  A 0.54 0.49 79.7 0 1 589.26 297.07
  L 585.30 297.08
  A 0.88 0.63 78.1 0 1 584.63 296.47
  L 583.32 292.55
  A 0.75 0.63 79.3 0 0 582.69 292.04
  Z
  M 574.80 287.11
  A 0.31 0.31 -81.7 0 0 575.10 287.51
  L 581.49 287.49
  A 0.31 0.31 81.2 0 0 581.78 287.09
  L 578.55 276.73
  A 0.31 0.31 -45.4 0 0 577.96 276.73
  L 574.80 287.11
  Z"
/>
<path fill="#b2b2b2" d="
  M 529.20 297.06
  A 0.49 0.49 2.5 0 1 528.75 296.57
  L 528.75 271.31
  A 0.56 0.56 89.8 0 1 529.31 270.75
  C 536.85 270.75 545.72 268.86 549.75 277.25
  C 552.13 282.21 551.63 289.84 547.74 293.86
  C 543.66 298.08 534.66 297.56 529.20 297.06
  Z
  M 545.50 287.25
  C 547.30 279.04 542.99 273.74 534.49 275.40
  A 0.60 0.60 84.8 0 0 534.00 275.99
  L 533.94 291.80
  A 0.60 0.57 -86.1 0 0 534.43 292.39
  C 538.91 293.01 544.27 292.86 545.50 287.25
  Z"
/>
<rect fill="#b2b2b2" x="556.76" y="270.76" width="5.04" height="26.46" rx="0.62"/>
</svg>
