<?xml version="1.0" encoding="UTF-8" standalone="no"?>
<!DOCTYPE svg PUBLIC "-//W3C//DTD SVG 1.1//EN" "http://www.w3.org/Graphics/SVG/1.1/DTD/svg11.dtd">
<svg xmlns="http://www.w3.org/2000/svg" version="1.1" viewBox="0 0 600 300">
<g stroke-width="2.00" fill="none" stroke-linecap="butt">
<path stroke="#702d51" vector-effect="non-scaling-stroke" d="
  M 405.50 157.71
  L 401.52 158.74"
/>
<path stroke="#203763" stroke-opacity="0.988" vector-effect="non-scaling-stroke" d="
  M 350.50 158.29
  Q 350.20 158.32 349.96 158.23
  A 0.91 0.56 -85.0 0 1 349.57 157.45
  L 349.21 137.00"
/>
<path stroke="#680204" stroke-opacity="0.992" vector-effect="non-scaling-stroke" d="
  M 454.75 165.04
  C 452.36 163.49 445.43 164.28 442.50 164.35
  Q 440.48 164.39 441.48 166.00"
/>
<path stroke="#750305" stroke-opacity="0.922" vector-effect="non-scaling-stroke" d="
  M 456.00 203.96
  Q 457.21 204.92 457.04 206.50"
/>
<path stroke="#740305" stroke-opacity="0.980" vector-effect="non-scaling-stroke" d="
  M 457.04 206.50
  Q 453.98 209.93 451.60 209.84
  Q 448.48 209.72 445.41 210.36
  Q 436.84 212.15 433.01 206.21
  C 431.17 203.37 431.66 198.79 431.52 195.30
  C 431.21 187.97 431.71 180.51 430.96 173.00"
/>
<path stroke="#680204" stroke-opacity="0.992" vector-effect="non-scaling-stroke" d="
  M 430.96 167.50
  Q 430.88 166.57 431.27 165.70
  A 0.83 0.83 -72.6 0 0 430.66 164.53
  C 428.97 164.23 424.14 163.02 425.96 166.50"
/>
<path stroke="#680204" stroke-opacity="0.992" vector-effect="non-scaling-stroke" d="
  M 426.04 172.00
  Q 426.56 174.17 423.81 174.02
  A 2.21 2.20 -6.2 0 1 421.79 172.40
  Q 418.51 160.34 406.00 161.75
  Q 404.58 161.91 403.25 163.21"
/>
<path stroke="#680204" stroke-opacity="0.992" vector-effect="non-scaling-stroke" d="
  M 403.25 163.21
  Q 401.16 163.91 400.54 166.00"
/>
<path stroke="#750305" stroke-opacity="0.922" vector-effect="non-scaling-stroke" d="
  M 400.46 166.25
  Q 399.03 168.68 400.21 171.25"
/>
<path stroke="#740305" stroke-opacity="0.980" vector-effect="non-scaling-stroke" d="
  M 428.54 194.00
  L 428.29 198.50"
/>
<path stroke="#b80507" vector-effect="non-scaling-stroke" d="
  M 428.00 199.79
  C 426.27 200.07 424.71 200.03 422.74 200.18
  Q 420.40 200.37 420.75 197.54"
/>
<path stroke="#680204" stroke-opacity="0.992" vector-effect="non-scaling-stroke" d="
  M 420.75 197.54
  Q 418.35 191.40 412.06 189.69
  Q 403.26 187.29 396.21 182.50"
/>
<path stroke="#740305" stroke-opacity="0.980" vector-effect="non-scaling-stroke" d="
  M 396.21 182.50
  Q 392.56 178.72 391.79 173.50"
/>
<path stroke="#af0305" stroke-opacity="0.588" vector-effect="non-scaling-stroke" d="
  M 391.79 173.50
  Q 391.24 171.28 392.29 169.25"
/>
<path stroke="#740305" stroke-opacity="0.980" vector-effect="non-scaling-stroke" d="
  M 392.29 169.25
  L 393.57 165.55
  Q 394.04 164.17 393.11 165.28
  Q 391.86 166.77 391.29 168.75"
/>
<path stroke="#af0305" stroke-opacity="0.588" vector-effect="non-scaling-stroke" d="
  M 391.29 168.75
  L 389.25 173.54"
/>
<path stroke="#750305" stroke-opacity="0.922" vector-effect="non-scaling-stroke" d="
  M 389.25 173.54
  L 387.75 176.79"
/>
<path stroke="#b80507" vector-effect="non-scaling-stroke" d="
  M 387.75 176.79
  Q 384.33 178.89 383.96 175.00"
/>
<path stroke="#680204" stroke-opacity="0.992" vector-effect="non-scaling-stroke" d="
  M 386.93 165.87
  Q 384.24 162.75 380.29 161.75"
/>
<path stroke="#880b14" stroke-opacity="0.988" vector-effect="non-scaling-stroke" d="
  M 348.54 137.00
  L 349.25 158.25
  A 0.89 0.76 -79.3 0 0 349.68 159.00
  Q 350.84 159.59 352.25 159.21"
/>
<path stroke="#7e0104" stroke-opacity="0.980" vector-effect="non-scaling-stroke" d="
  M 367.77 159.25
  Q 368.36 162.23 366.50 162.96"
/>
<path stroke="#7f0103" stroke-opacity="0.922" vector-effect="non-scaling-stroke" d="
  M 366.50 162.96
  Q 361.93 162.26 362.27 166.20"
/>
<path stroke="#c20405" vector-effect="non-scaling-stroke" d="
  M 365.54 174.00
  Q 366.42 175.97 365.29 177.33
  A 1.07 0.98 20.2 0 1 364.44 177.68
  L 356.50 177.29"
/>
<path stroke="#7e0104" stroke-opacity="0.980" vector-effect="non-scaling-stroke" d="
  M 356.50 177.29
  L 351.00 165.60"
/>
<path stroke="#720102" stroke-opacity="0.992" vector-effect="non-scaling-stroke" d="
  M 351.00 165.60
  Q 348.27 163.33 345.03 162.11
  A 0.69 0.67 -78.9 0 1 344.59 161.44
  Q 344.72 158.43 343.29 155.75"
/>
<path stroke="#880b14" stroke-opacity="0.988" vector-effect="non-scaling-stroke" d="
  M 343.29 155.75
  Q 341.88 149.96 338.21 145.25"
/>
<path stroke="#880b14" stroke-opacity="0.988" vector-effect="non-scaling-stroke" d="
  M 338.21 145.25
  L 336.29 143.25"
/>
<path stroke="#7a2c50" vector-effect="non-scaling-stroke" d="
  M 336.29 143.25
  L 332.79 141.00"
/>
<path stroke="#880b14" stroke-opacity="0.988" vector-effect="non-scaling-stroke" d="
  M 332.79 141.00
  Q 326.06 137.42 319.25 140.79"
/>
<path stroke="#980207" stroke-opacity="0.984" vector-effect="non-scaling-stroke" d="
  M 319.25 140.79
  Q 313.41 144.05 313.71 150.75"
/>
<path stroke="#7a2c50" vector-effect="non-scaling-stroke" d="
  M 313.71 150.75
  Q 314.00 155.55 316.34 158.73"
/>
<path stroke="#c50305" vector-effect="non-scaling-stroke" d="
  M 351.79 183.75
  C 351.83 184.28 352.01 188.54 351.63 187.50
  A 0.13 0.13 -33.4 0 0 351.42 187.46
  C 350.09 188.77 348.96 187.54 347.87 187.34
  Q 343.83 186.63 339.75 186.04"
/>
<path stroke="#720102" stroke-opacity="0.992" vector-effect="non-scaling-stroke" d="
  M 339.75 186.04
  C 335.57 180.39 327.69 178.45 321.51 176.08
  C 310.49 171.85 302.13 165.03 304.21 151.75"
/>
<path stroke="#690e17" stroke-opacity="0.988" vector-effect="non-scaling-stroke" d="
  M 379.96 196.00
  Q 378.21 198.78 377.79 202.00"
/>
<path stroke="#79050a" stroke-opacity="0.984" vector-effect="non-scaling-stroke" d="
  M 352.00 234.21
  Q 351.09 232.41 349.00 232.79"
/>
<path stroke="#79050a" stroke-opacity="0.984" vector-effect="non-scaling-stroke" d="
  M 369.04 210.50
  C 370.31 209.06 368.06 205.43 367.29 204.00"
/>
<path stroke="#5e0407" stroke-opacity="0.922" vector-effect="non-scaling-stroke" d="
  M 386.54 180.00
  L 387.75 176.79"
/>
<path stroke="#530405" stroke-opacity="0.992" vector-effect="non-scaling-stroke" d="
  M 420.75 197.54
  Q 421.40 200.08 419.79 201.75"
/>
<path stroke="#5f0407" stroke-opacity="0.980" vector-effect="non-scaling-stroke" d="
  M 418.00 210.04
  L 414.25 211.25"
/>
<path stroke="#530405" stroke-opacity="0.992" vector-effect="non-scaling-stroke" d="
  M 414.25 211.25
  Q 412.22 211.01 410.19 211.22
  Q 404.18 211.83 396.95 207.10
  Q 395.28 206.00 395.44 207.80
  L 395.54 209.00"
/>
<path stroke="#8b0507" stroke-opacity="0.588" vector-effect="non-scaling-stroke" d="
  M 384.21 185.50
  L 386.54 180.00"
/>
<path stroke="#560305" stroke-opacity="0.992" vector-effect="non-scaling-stroke" d="
  M 352.54 189.00
  Q 351.90 196.17 348.04 202.25"
/>
<path stroke="#610407" stroke-opacity="0.922" vector-effect="non-scaling-stroke" d="
  M 344.21 206.25
  L 341.71 208.00"
/>
<path stroke="#560305" stroke-opacity="0.992" vector-effect="non-scaling-stroke" d="
  M 341.00 208.29
  Q 324.93 215.48 309.76 206.69
  Q 308.09 205.72 308.66 207.63"
/>
<path stroke="#620407" stroke-opacity="0.980" vector-effect="non-scaling-stroke" d="
  M 341.46 191.50
  Q 341.77 189.21 340.29 187.50"
/>
<path stroke="#560305" stroke-opacity="0.992" vector-effect="non-scaling-stroke" d="
  M 339.75 186.04
  L 340.29 187.50"
/>
<path stroke="#203763" stroke-opacity="0.988" vector-effect="non-scaling-stroke" d="
  M 336.29 143.25
  Q 336.23 144.65 337.50 145.29"
/>
<path stroke="#203763" stroke-opacity="0.988" vector-effect="non-scaling-stroke" d="
  M 337.50 145.29
  Q 341.08 150.52 343.21 156.50"
/>
<path stroke="#0b2c50" stroke-opacity="0.992" vector-effect="non-scaling-stroke" d="
  M 343.21 156.50
  L 343.45 158.51"
/>
<path stroke="#5f0407" stroke-opacity="0.980" vector-effect="non-scaling-stroke" d="
  M 356.50 177.29
  L 367.29 204.00"
/>
<path stroke="#7a2c50" vector-effect="non-scaling-stroke" d="
  M 316.79 136.75
  Q 312.02 138.98 308.29 142.75"
/>
<path stroke="#c20405" vector-effect="non-scaling-stroke" d="
  M 331.75 135.46
  Q 326.07 134.87 320.50 135.96"
/>
<path stroke="#7a2c50" vector-effect="non-scaling-stroke" d="
  M 344.28 137.05
  L 342.91 139.72
  A 0.49 0.48 -63.4 0 1 342.27 139.94
  L 334.76 136.37"
/>
<path stroke="#302e56" stroke-opacity="0.984" vector-effect="non-scaling-stroke" d="
  M 314.50 149.71
  Q 313.83 150.04 313.71 150.75"
/>
<path stroke="#203763" stroke-opacity="0.988" vector-effect="non-scaling-stroke" d="
  M 332.79 141.00
  L 333.04 142.50"
/>
<path stroke="#203763" stroke-opacity="0.988" vector-effect="non-scaling-stroke" d="
  M 332.96 143.50
  Q 332.02 142.92 331.43 141.99
  A 0.55 0.54 -28.2 0 0 330.75 141.79
  Q 329.48 142.32 328.74 141.19
  A 0.26 0.25 42.8 0 0 328.30 141.20
  Q 327.62 142.48 326.71 141.23
  A 0.95 0.69 63.8 0 0 325.94 140.82
  Q 325.20 140.92 324.75 141.56
  Q 324.50 141.92 324.34 141.52
  Q 323.61 139.73 322.08 140.86
  A 1.90 0.78 -77.5 0 0 321.52 141.67
  Q 320.82 143.28 319.04 142.00"
/>
<path stroke="#7a2c50" vector-effect="non-scaling-stroke" d="
  M 307.46 144.25
  Q 304.94 147.62 304.21 151.75"
/>
<path stroke="#0b2c50" stroke-opacity="0.992" vector-effect="non-scaling-stroke" d="
  M 304.21 151.75
  Q 303.71 152.94 302.75 153.79"
/>
<path stroke="#7a2c50" vector-effect="non-scaling-stroke" d="
  M 333.25 135.71
  Q 332.40 135.94 331.75 135.46"
/>
<path stroke="#5b2f53" vector-effect="non-scaling-stroke" d="
  M 331.75 135.46
  Q 325.90 132.39 320.50 135.96"
/>
<path stroke="#7a2c50" vector-effect="non-scaling-stroke" d="
  M 320.50 135.96
  L 318.54 136.25"
/>
<path stroke="#640204" stroke-opacity="0.992" vector-effect="non-scaling-stroke" d="
  M 495.29 177.75
  L 495.27 182.15
  A 0.61 0.60 -90.0 0 1 494.67 182.76
  L 462.00 182.99
  A 0.68 0.66 7.2 0 0 461.35 183.48
  Q 460.90 185.16 461.71 186.75"
/>
<path stroke="#640204" stroke-opacity="0.992" vector-effect="non-scaling-stroke" d="
  M 487.23 208.67
  Q 472.35 215.10 459.05 206.22"
/>
<path stroke="#700305" stroke-opacity="0.922" vector-effect="non-scaling-stroke" d="
  M 457.96 205.00
  L 456.00 202.50"
/>
<path stroke="#700305" stroke-opacity="0.980" vector-effect="non-scaling-stroke" d="
  M 456.00 202.50
  L 454.29 199.75"
/>
<path stroke="#7a0c16" stroke-opacity="0.988" vector-effect="non-scaling-stroke" d="
  M 454.29 199.75
  Q 453.86 198.30 452.79 197.25"
/>
<path stroke="#7a0c16" stroke-opacity="0.988" vector-effect="non-scaling-stroke" d="
  M 450.71 189.25
  L 450.71 180.75"
/>
<path stroke="#302e56" stroke-opacity="0.984" vector-effect="non-scaling-stroke" d="
  M 316.00 147.29
  C 312.71 147.17 318.48 142.64 319.04 142.00"
/>
<path stroke="#152d53" stroke-opacity="0.980" vector-effect="non-scaling-stroke" d="
  M 204.00 147.46
  L 203.54 144.25"
/>
<path stroke="#6b2e52" vector-effect="non-scaling-stroke" d="
  M 203.54 144.25
  C 202.37 142.58 196.03 143.25 194.04 143.25"
/>
<path stroke="#0b2c50" stroke-opacity="0.992" vector-effect="non-scaling-stroke" d="
  M 194.04 143.25
  L 193.54 142.25"
/>
<path stroke="#630304" stroke-opacity="0.992" vector-effect="non-scaling-stroke" d="
  M 194.04 143.25
  C 193.06 144.27 193.73 145.14 193.79 146.15
  Q 194.14 152.02 193.04 158.10"
/>
<path stroke="#6f0306" stroke-opacity="0.980" vector-effect="non-scaling-stroke" d="
  M 203.54 144.25
  Q 202.86 146.39 203.29 148.50"
/>
<path stroke="#890409" stroke-opacity="0.984" vector-effect="non-scaling-stroke" d="
  M 203.29 148.50
  L 203.29 157.75"
/>
<path stroke="#6f0306" stroke-opacity="0.980" vector-effect="non-scaling-stroke" d="
  M 203.29 157.75
  Q 202.72 159.45 204.25 159.21"
/>
<path stroke="#630304" stroke-opacity="0.992" vector-effect="non-scaling-stroke" d="
  M 218.02 164.50
  L 205.02 164.03
  A 1.52 1.47 -85.9 0 0 203.50 165.39
  C 202.90 171.34 203.17 178.23 203.13 183.54
  Q 203.06 190.79 203.84 198.01"
/>
<path stroke="#6f0306" stroke-opacity="0.922" vector-effect="non-scaling-stroke" d="
  M 218.00 204.21
  Q 219.17 204.40 219.46 205.50"
/>
<path stroke="#630304" stroke-opacity="0.992" vector-effect="non-scaling-stroke" d="
  M 217.50 209.04
  Q 208.23 211.08 206.25 211.25
  Q 201.15 211.69 194.63 207.37"
/>
<path stroke="#630304" stroke-opacity="0.992" vector-effect="non-scaling-stroke" d="
  M 193.29 168.75
  Q 193.54 168.02 193.55 167.26
  C 193.59 163.52 193.45 164.57 190.35 164.06
  Q 186.08 163.35 188.21 168.25"
/>
<path stroke="#890409" stroke-opacity="0.984" vector-effect="non-scaling-stroke" d="
  M 188.21 169.50
  L 188.00 174.21"
/>
<path stroke="#6f0306" stroke-opacity="0.980" vector-effect="non-scaling-stroke" d="
  M 187.75 174.29
  Q 185.45 174.06 184.04 172.50"
/>
<path stroke="#790d16" stroke-opacity="0.988" vector-effect="non-scaling-stroke" d="
  M 183.96 172.25
  Q 183.58 167.81 180.04 165.25"
/>
<path stroke="#630304" stroke-opacity="0.992" vector-effect="non-scaling-stroke" d="
  M 180.04 165.25
  Q 179.17 164.01 177.75 163.46"
/>
<path stroke="#6f0306" stroke-opacity="0.980" vector-effect="non-scaling-stroke" d="
  M 177.75 163.46
  C 174.11 160.66 166.87 161.06 163.90 164.44"
/>
<path stroke="#6f0306" stroke-opacity="0.980" vector-effect="non-scaling-stroke" d="
  M 190.79 194.00
  L 190.04 200.50"
/>
<path stroke="#6f0306" stroke-opacity="0.922" vector-effect="non-scaling-stroke" d="
  M 180.25 209.96
  C 176.52 211.45 173.76 210.84 170.02 211.23
  C 167.14 211.52 165.74 209.33 163.54 209.75"
/>
<path stroke="#6f0306" stroke-opacity="0.980" vector-effect="non-scaling-stroke" d="
  M 163.54 209.75
  L 160.80 208.33
  Q 160.17 208.01 159.98 207.82
  Q 158.46 206.35 157.57 209.06
  A 1.01 1.01 15.8 0 1 156.38 209.72
  C 154.13 209.19 152.56 210.54 150.87 210.74
  Q 146.36 211.29 142.62 208.42"
/>
<path stroke="#6f0306" stroke-opacity="0.980" vector-effect="non-scaling-stroke" d="
  M 137.00 207.29
  Q 126.66 213.49 115.48 209.15"
/>
<path stroke="#630304" stroke-opacity="0.992" vector-effect="non-scaling-stroke" d="
  M 114.25 207.96
  L 112.04 205.25"
/>
<path stroke="#630304" stroke-opacity="0.992" vector-effect="non-scaling-stroke" d="
  M 140.16 177.15
  C 143.84 157.77 121.27 158.96 124.00 166.71"
/>
<path stroke="#630304" stroke-opacity="0.992" vector-effect="non-scaling-stroke" d="
  M 124.29 167.75
  C 125.83 175.66 116.33 178.41 113.21 171.50"
/>
<path stroke="#790d16" stroke-opacity="0.988" vector-effect="non-scaling-stroke" d="
  M 113.21 171.50
  L 113.21 167.75"
/>
<path stroke="#6f0306" stroke-opacity="0.980" vector-effect="non-scaling-stroke" d="
  M 150.47 173.26
  Q 149.59 183.00 150.29 192.75"
/>
<path stroke="#630304" stroke-opacity="0.992" vector-effect="non-scaling-stroke" d="
  M 182.46 199.50
  Q 183.23 193.37 177.43 191.07
  Q 169.61 187.96 161.75 184.96"
/>
<path stroke="#630304" stroke-opacity="0.992" vector-effect="non-scaling-stroke" d="
  M 161.75 184.96
  Q 153.26 179.83 154.21 169.75"
/>
<path stroke="#152d53" stroke-opacity="0.980" vector-effect="non-scaling-stroke" d="
  M 204.04 158.25
  Q 203.64 157.71 203.71 157.00"
/>
<path stroke="#302e56" stroke-opacity="0.984" vector-effect="non-scaling-stroke" d="
  M 203.71 157.00
  Q 203.32 153.18 204.37 149.48"
/>
<path stroke="#5a0305" stroke-opacity="0.992" vector-effect="non-scaling-stroke" d="
  M 111.00 206.04
  Q 112.42 206.94 113.04 208.50"
/>
<path stroke="#5a0305" stroke-opacity="0.992" vector-effect="non-scaling-stroke" d="
  M 112.76 209.61
  Q 96.87 209.42 80.98 210.36"
/>
<path stroke="#640204" stroke-opacity="0.992" vector-effect="non-scaling-stroke" d="
  M 257.25 183.54
  C 246.95 181.61 234.72 182.75 224.11 182.75
  A 0.59 0.59 -88.5 0 0 223.52 183.31
  Q 223.36 186.69 224.21 189.50"
/>
<path stroke="#640204" stroke-opacity="0.992" vector-effect="non-scaling-stroke" d="
  M 249.55 208.86
  Q 234.19 215.14 221.04 205.75"
/>
<path stroke="#700305" stroke-opacity="0.922" vector-effect="non-scaling-stroke" d="
  M 220.46 205.00
  Q 219.87 203.88 218.79 203.25"
/>
<path stroke="#8a0309" stroke-opacity="0.984" vector-effect="non-scaling-stroke" d="
  M 218.15 202.77
  Q 212.75 193.11 213.21 182.00"
/>
<path stroke="#830103" stroke-opacity="0.980" vector-effect="non-scaling-stroke" d="
  M 112.83 136.83
  Q 112.78 138.76 112.22 139.77
  A 1.21 0.92 3.9 0 1 111.45 140.28
  C 108.38 140.86 104.12 140.79 103.00 144.50"
/>
<path stroke="#770001" stroke-opacity="0.992" vector-effect="non-scaling-stroke" d="
  M 103.00 144.50
  C 101.53 146.43 102.38 162.99 102.46 166.25"
/>
<path stroke="#ce0305" vector-effect="non-scaling-stroke" d="
  M 102.46 166.25
  C 101.85 169.55 103.71 174.44 99.86 175.48
  C 97.97 175.98 95.98 174.82 93.66 176.23
  A 0.96 0.75 38.0 0 1 92.83 176.23
  L 91.79 175.75"
/>
<path stroke="#830103" stroke-opacity="0.980" vector-effect="non-scaling-stroke" d="
  M 91.79 175.75
  L 91.51 146.96
  A 0.84 0.51 -84.5 0 0 91.15 146.22
  C 90.58 146.02 90.09 148.59 90.04 149.00"
/>
<path stroke="#830103" stroke-opacity="0.980" vector-effect="non-scaling-stroke" d="
  M 86.75 157.79
  L 83.75 164.71"
/>
<path stroke="#770001" stroke-opacity="0.992" vector-effect="non-scaling-stroke" d="
  M 83.75 164.71
  L 81.00 170.54"
/>
<path stroke="#d70204" vector-effect="non-scaling-stroke" d="
  M 81.00 170.54
  Q 78.50 171.31 76.46 169.75"
/>
<path stroke="#5a0305" stroke-opacity="0.992" vector-effect="non-scaling-stroke" d="
  M 103.02 201.51
  Q 102.00 183.90 102.46 166.25"
/>
<path stroke="#650407" stroke-opacity="0.980" vector-effect="non-scaling-stroke" d="
  M 91.79 175.75
  L 91.04 192.00"
/>
<path stroke="#630304" stroke-opacity="0.992" vector-effect="non-scaling-stroke" d="
  M 79.75 174.79
  L 77.50 180.25"
/>
<path stroke="#6f0306" stroke-opacity="0.922" vector-effect="non-scaling-stroke" d="
  M 77.50 180.25
  Q 76.70 181.37 76.54 182.75"
/>
<path stroke="#890409" stroke-opacity="0.984" vector-effect="non-scaling-stroke" d="
  M 71.46 195.50
  Q 68.76 199.62 68.04 204.50"
/>
<path stroke="#790d16" stroke-opacity="0.988" vector-effect="non-scaling-stroke" d="
  M 67.50 205.79
  C 66.67 207.05 66.04 210.51 63.67 208.96
  C 62.58 208.24 61.94 205.71 61.25 204.46"
/>
<path stroke="#890409" stroke-opacity="0.984" vector-effect="non-scaling-stroke" d="
  M 61.25 204.46
  Q 59.98 198.66 57.04 193.50"
/>
<path stroke="#630304" stroke-opacity="0.992" vector-effect="non-scaling-stroke" d="
  M 80.04 174.00
  L 81.00 170.54"
/>
<path stroke="#d70204" vector-effect="non-scaling-stroke" d="
  M 59.29 167.75
  Q 58.62 169.28 57.23 169.84
  A 1.30 1.27 -87.1 0 0 56.56 170.46
  C 55.75 172.01 54.64 171.03 53.55 170.93
  Q 51.27 170.71 49.00 170.79"
/>
<path stroke="#770001" stroke-opacity="0.992" vector-effect="non-scaling-stroke" d="
  M 49.00 170.79
  L 43.75 158.29"
/>
<path stroke="#770001" stroke-opacity="0.992" vector-effect="non-scaling-stroke" d="
  M 42.71 155.25
  L 40.29 148.50"
/>
<path stroke="#770001" stroke-opacity="0.992" vector-effect="non-scaling-stroke" d="
  M 38.79 158.00
  L 38.46 173.25"
/>
<path stroke="#c70305" vector-effect="non-scaling-stroke" d="
  M 38.46 173.25
  L 38.02 187.75
  A 0.88 0.61 85.1 0 1 37.58 188.51
  L 35.50 189.21
  A 1.24 0.33 29.5 0 1 34.59 188.97
  Q 33.93 188.65 33.92 189.69
  Q 33.91 190.10 33.90 189.70
  L 33.46 174.50"
/>
<path stroke="#770001" stroke-opacity="0.992" vector-effect="non-scaling-stroke" d="
  M 33.46 174.50
  L 33.29 150.50"
/>
<path stroke="#830103" stroke-opacity="0.980" vector-effect="non-scaling-stroke" d="
  M 33.29 150.50
  L 32.79 147.25"
/>
<path stroke="#770001" stroke-opacity="0.992" vector-effect="non-scaling-stroke" d="
  M 32.79 147.25
  C 30.77 140.50 26.02 142.36 21.54 139.75"
/>
<path stroke="#630304" stroke-opacity="0.992" vector-effect="non-scaling-stroke" d="
  M 49.00 170.79
  Q 53.54 183.62 55.44 187.81
  Q 56.82 190.87 57.04 193.50"
/>
<path stroke="#5f0407" stroke-opacity="0.980" vector-effect="non-scaling-stroke" d="
  M 38.79 190.00
  Q 38.24 194.91 39.96 199.50"
/>
<path stroke="#530405" stroke-opacity="0.992" vector-effect="non-scaling-stroke" d="
  M 51.71 208.75
  L 51.00 209.54
  A 1.12 0.95 -64.8 0 1 50.19 209.91
  Q 35.91 209.17 21.67 210.51"
/>
<path stroke="#530405" stroke-opacity="0.992" vector-effect="non-scaling-stroke" d="
  M 38.79 190.00
  L 38.46 173.25"
/>
<path stroke="#530405" stroke-opacity="0.992" vector-effect="non-scaling-stroke" d="
  M 33.46 174.50
  L 33.04 194.75"
/>
<path stroke="#6e2d51" vector-effect="non-scaling-stroke" d="
  M 288.75 158.71
  Q 285.85 157.40 282.75 158.29"
/>
<path stroke="#152d53" stroke-opacity="0.980" vector-effect="non-scaling-stroke" d="
  M 282.75 158.29
  L 279.25 158.46"
/>
<path stroke="#103057" stroke-opacity="0.922" vector-effect="non-scaling-stroke" d="
  M 270.75 158.29
  L 263.00 158.29"
/>
<path stroke="#660204" stroke-opacity="0.992" vector-effect="non-scaling-stroke" d="
  M 292.92 166.02
  Q 289.45 177.49 281.29 168.75"
/>
<path stroke="#730305" stroke-opacity="0.922" vector-effect="non-scaling-stroke" d="
  M 281.21 168.50
  L 281.46 164.25"
/>
<path stroke="#660204" stroke-opacity="0.992" vector-effect="non-scaling-stroke" d="
  M 281.46 164.25
  Q 281.61 162.79 280.90 163.45
  Q 280.49 163.83 280.08 163.93
  Q 273.17 165.77 270.61 172.40"
/>
<path stroke="#7c0c16" stroke-opacity="0.988" vector-effect="non-scaling-stroke" d="
  M 270.61 172.40
  L 271.21 201.00"
/>
<path stroke="#660204" stroke-opacity="0.992" vector-effect="non-scaling-stroke" d="
  M 277.25 210.79
  Q 265.31 208.91 253.25 210.21"
/>
<path stroke="#660204" stroke-opacity="0.992" vector-effect="non-scaling-stroke" d="
  M 260.46 169.75
  Q 260.63 162.71 253.38 163.56"
/>
<path stroke="#730305" stroke-opacity="0.922" vector-effect="non-scaling-stroke" d="
  M 261.50 158.96
  L 270.00 158.54"
/>
<path stroke="#720305" stroke-opacity="0.980" vector-effect="non-scaling-stroke" d="
  M 280.04 159.00
  Q 281.49 159.02 282.75 158.29"
/>
<path stroke="#700305" stroke-opacity="0.980" vector-effect="non-scaling-stroke" d="
  M 571.29 173.50
  Q 570.64 186.63 571.46 199.75"
/>
<path stroke="#640204" stroke-opacity="0.992" vector-effect="non-scaling-stroke" d="
  M 577.00 210.79
  Q 565.29 209.26 553.54 210.50"
/>
<path stroke="#640204" stroke-opacity="0.992" vector-effect="non-scaling-stroke" d="
  M 558.81 167.02
  Q 550.10 160.39 542.79 168.50"
/>
<path stroke="#640204" stroke-opacity="0.992" vector-effect="non-scaling-stroke" d="
  M 547.87 207.33
  Q 547.58 209.47 546.89 210.21
  A 1.17 0.71 16.9 0 1 546.00 210.44
  Q 535.11 209.20 524.25 210.71"
/>
<path stroke="#640204" stroke-opacity="0.992" vector-effect="non-scaling-stroke" d="
  M 529.21 173.50
  C 529.13 157.27 507.71 164.85 508.37 174.06
  C 508.94 181.98 508.57 190.27 508.79 198.25"
/>
<path stroke="#640204" stroke-opacity="0.992" vector-effect="non-scaling-stroke" d="
  M 516.00 210.54
  Q 503.62 208.79 491.25 210.54"
/>
<path stroke="#640204" stroke-opacity="0.992" vector-effect="non-scaling-stroke" d="
  M 498.29 170.75
  C 499.62 166.03 495.38 163.12 491.07 163.58"
/>
<path stroke="#6f0306" stroke-opacity="0.980" vector-effect="non-scaling-stroke" d="
  M 139.78 199.98
  Q 141.04 191.07 140.50 181.95
  Q 140.45 181.14 139.82 181.65
  Q 138.89 182.39 137.49 182.72
  C 130.87 184.30 120.04 189.15 121.29 197.75"
/>
<path stroke="#640204" stroke-opacity="0.992" vector-effect="non-scaling-stroke" d="
  M 225.96 168.75
  Q 223.41 172.17 223.54 178.25"
/>
<path stroke="#640204" stroke-opacity="0.992" vector-effect="non-scaling-stroke" d="
  M 246.46 172.75
  Q 246.27 168.77 244.00 165.54"
/>
<path stroke="#640204" stroke-opacity="0.992" vector-effect="non-scaling-stroke" d="
  M 243.71 165.25
  Q 242.24 162.51 239.56 161.94
  Q 230.03 159.91 225.96 168.75"
/>
<path stroke="#640204" stroke-opacity="0.992" vector-effect="non-scaling-stroke" d="
  M 464.21 167.75
  Q 461.16 171.76 461.54 176.75"
/>
<path stroke="#640204" stroke-opacity="0.992" vector-effect="non-scaling-stroke" d="
  M 484.01 175.80
  C 486.31 164.12 474.44 156.24 465.15 166.01"
/>
</g>
<path fill="#13579d" d="
  M 405.50 157.71
  L 401.52 158.74
  L 371.72 158.51
  A 1.48 1.45 0.2 0 1 370.25 157.06
  L 370.25 151.08
  A 1.41 1.38 89.6 0 1 371.61 149.67
  L 393.10 149.50
  A 0.53 0.52 -9.7 0 0 393.60 148.80
  Q 386.73 129.57 380.50 110.25
  C 379.47 107.05 378.95 103.94 375.83 102.40
  C 371.13 100.06 369.44 104.69 368.18 108.43
  Q 360.00 132.60 351.75 156.75
  Q 351.30 158.07 350.50 158.29
  Q 350.20 158.32 349.96 158.23
  A 0.91 0.56 -85.0 0 1 349.57 157.45
  L 349.21 137.00
  Q 354.46 121.87 359.58 106.71
  C 362.06 99.36 364.48 95.30 372.00 93.75
  C 377.43 92.63 384.23 96.80 386.70 101.74
  Q 386.76 101.86 389.42 109.66
  Q 397.60 133.63 405.50 157.71
  Z"
/>
<path fill="#13579d" d="
  M 204.00 147.46
  L 203.54 144.25
  C 202.37 142.58 196.03 143.25 194.04 143.25
  L 193.54 142.25
  L 193.37 139.30
  A 0.48 0.46 87.0 0 1 193.81 138.79
  Q 207.13 138.15 220.45 138.66
  C 221.37 138.69 223.75 138.30 222.09 136.87
  A 1.52 1.24 -19.7 0 0 221.19 136.55
  Q 218.10 136.46 215.00 136.51
  C 186.72 136.95 186.17 94.87 215.50 94.96
  Q 226.98 95.00 238.46 95.00
  C 242.74 95.00 242.16 94.18 242.29 98.78
  Q 242.35 100.99 242.22 103.19
  A 0.54 0.54 -88.9 0 1 241.69 103.70
  Q 228.60 104.05 215.50 103.79
  C 202.51 103.53 197.13 118.84 208.22 126.04
  C 213.69 129.59 219.95 126.13 225.64 128.81
  C 234.99 133.22 232.04 147.22 221.59 147.29
  C 215.72 147.32 209.89 147.62 204.00 147.46
  Z"
/>
<path fill="#13579d" d="
  M 288.75 158.71
  Q 285.85 157.40 282.75 158.29
  L 279.25 158.46
  L 270.75 158.29
  L 263.00 158.29
  C 251.07 156.80 246.59 149.07 246.53 138.09
  Q 246.47 126.10 246.49 114.10
  C 246.51 101.78 253.98 94.73 266.75 95.00
  Q 271.67 95.11 293.32 94.94
  A 0.56 0.56 -3.4 0 1 293.88 95.43
  Q 294.40 99.32 293.77 103.20
  A 0.58 0.58 -85.3 0 1 293.20 103.69
  Q 280.15 103.78 267.10 103.76
  C 259.91 103.75 255.37 105.69 255.28 113.38
  Q 255.11 126.80 255.38 140.21
  Q 255.44 143.66 256.75 145.58
  Q 259.66 149.87 265.44 149.61
  C 274.50 149.20 283.81 149.50 293.12 149.50
  A 0.88 0.88 0.0 0 1 294.00 150.38
  L 294.00 156.25
  Q 294.00 159.77 291.56 158.69
  Q 290.12 158.05 288.75 158.71
  Z"
/>
<path fill="#13579d" d="
  M 307.46 144.25
  Q 304.94 147.62 304.21 151.75
  Q 303.71 152.94 302.75 153.79
  C 296.78 147.35 297.53 142.42 297.40 132.13
  Q 297.29 123.30 297.45 114.48
  C 297.72 100.41 305.49 95.00 318.81 95.01
  Q 331.06 95.02 343.31 94.94
  A 0.64 0.63 -6.2 0 1 343.93 95.43
  Q 344.78 99.26 343.92 103.09
  A 0.66 0.60 4.9 0 1 343.30 103.57
  Q 330.52 103.85 317.74 103.78
  C 311.25 103.74 306.26 105.86 306.24 112.94
  Q 306.21 127.94 306.31 142.94
  Q 306.32 144.37 307.46 144.25
  Z"
/>
<path fill="#13579d" d="
  M 369.95 140.74
  C 369.39 140.87 364.71 155.82 364.23 157.29
  A 1.32 1.16 -80.3 0 1 363.10 158.21
  L 354.00 158.31
  A 0.40 0.37 -79.9 0 1 353.66 157.78
  Q 362.13 133.10 370.45 108.38
  C 371.47 105.36 374.28 100.08 376.79 107.07
  Q 383.91 126.93 390.69 147.30
  Q 390.88 147.89 390.28 147.74
  C 384.63 146.36 376.76 147.39 370.82 147.43
  A 0.49 0.47 -90.0 0 1 370.34 146.93
  L 370.44 141.30
  A 0.54 0.40 85.7 0 0 369.95 140.74
  Z
  M 371.02 137.16
  A 0.32 0.32 -81.3 0 0 371.32 137.58
  L 376.44 137.66
  A 0.32 0.32 -7.2 0 0 376.75 137.25
  L 374.33 128.61
  A 0.32 0.32 51.1 0 0 373.71 128.60
  L 371.02 137.16
  Z"
/>
<path fill="#13579d" d="
  M 266.03 116.19
  A 0.44 0.43 -77.7 0 0 266.42 116.81
  L 286.80 116.94
  A 0.61 0.59 -4.4 0 1 287.40 117.44
  Q 288.05 121.21 287.57 125.01
  A 0.57 0.56 -85.9 0 1 287.01 125.50
  L 257.82 125.50
  A 0.56 0.56 89.5 0 1 257.26 124.95
  C 257.18 120.29 256.23 111.89 259.07 108.37
  C 261.53 105.33 264.67 105.96 268.23 105.92
  Q 280.74 105.79 293.25 105.99
  A 0.56 0.53 -0.5 0 1 293.80 106.50
  L 294.07 114.00
  A 0.77 0.72 -1.1 0 1 293.30 114.75
  Q 280.50 114.75 268.50 114.67
  Q 266.71 114.66 266.03 116.19
  Z"
/>
<path fill="#13579d" d="
  M 316.79 136.75
  Q 312.02 138.98 308.29 142.75
  Q 308.18 128.36 308.29 113.97
  C 308.33 108.50 310.74 105.96 316.06 105.92
  Q 328.88 105.81 342.54 105.95
  A 1.73 1.70 -89.5 0 1 344.23 107.70
  L 344.19 113.75
  A 1.01 1.00 -89.7 0 1 343.19 114.75
  L 319.11 114.75
  A 1.88 1.87 -89.4 0 0 317.24 116.59
  L 316.79 136.75
  Z"
/>
<path fill="#13579d" d="
  M 204.04 158.25
  Q 203.64 157.71 203.71 157.00
  Q 203.32 153.18 204.37 149.48
  C 210.96 149.51 224.68 151.19 229.56 146.48
  C 235.06 141.17 234.85 132.52 228.46 127.97
  C 224.48 125.14 220.10 125.25 215.25 125.50
  C 208.34 125.86 203.95 120.97 204.67 114.25
  C 205.45 106.97 211.61 106.00 218.15 105.99
  Q 229.92 105.97 241.69 106.06
  A 0.51 0.50 90.0 0 1 242.19 106.57
  L 242.32 114.25
  A 0.49 0.49 0.6 0 1 241.81 114.75
  Q 227.90 114.26 214.06 114.79
  A 0.95 0.73 7.3 0 0 213.29 115.24
  Q 213.01 115.85 213.41 116.40
  A 1.27 0.81 -7.8 0 0 214.25 116.79
  Q 217.49 117.03 218.81 116.94
  C 235.43 115.85 248.16 131.80 239.72 147.33
  C 232.67 160.32 219.64 158.99 204.04 158.25
  Z"
/>
<path fill="#13579d" d="
  M 344.28 137.05
  L 342.91 139.72
  A 0.49 0.48 -63.4 0 1 342.27 139.94
  L 334.76 136.37
  Q 335.62 131.57 335.23 126.45
  A 1.09 1.06 -2.0 0 0 334.16 125.48
  L 319.68 125.33
  A 0.51 0.50 0.6 0 1 319.17 124.82
  L 319.39 117.43
  A 0.54 0.52 1.1 0 1 319.93 116.93
  L 343.53 116.83
  A 0.73 0.71 89.6 0 1 344.25 117.56
  L 344.28 137.05
  Z"
/>
<path fill="#13579d" d="
  M 266.19 137.38
  C 267.03 138.99 269.08 138.51 270.60 138.48
  Q 281.90 138.29 293.20 138.79
  A 0.62 0.60 86.4 0 1 293.77 139.31
  Q 294.35 143.02 293.87 146.38
  A 1.01 1.00 -86.0 0 1 292.88 147.25
  Q 279.38 147.26 266.95 147.44
  C 261.06 147.53 257.08 145.66 257.16 139.31
  Q 257.22 134.56 257.50 128.51
  A 0.79 0.79 -88.9 0 1 258.29 127.75
  L 287.23 127.75
  A 0.52 0.52 -90.0 0 1 287.75 128.27
  L 287.75 135.18
  A 1.32 1.32 0.0 0 1 286.43 136.50
  L 266.73 136.50
  A 0.61 0.60 -13.5 0 0 266.19 137.38
  Z"
/>
<path fill="#13579d" d="
  M 333.25 135.71
  Q 332.40 135.94 331.75 135.46
  Q 325.90 132.39 320.50 135.96
  L 318.54 136.25
  C 319.74 134.10 318.88 131.44 319.14 128.44
  A 0.59 0.55 -87.6 0 1 319.68 127.91
  L 332.26 127.77
  A 1.01 0.98 89.7 0 1 333.25 128.78
  L 333.25 135.71
  Z"
/>
<path fill="#a30608" d="
  M 331.75 135.46
  Q 326.07 134.87 320.50 135.96
  Q 325.90 132.39 331.75 135.46
  Z"
/>
<path fill="#e00102" d="
  M 331.75 135.46
  Q 332.40 135.94 333.25 135.71
  Q 333.64 136.07 334.76 136.37
  L 342.27 139.94
  A 0.49 0.48 -63.4 0 0 342.91 139.72
  L 344.28 137.05
  Q 346.65 136.19 348.54 137.00
  L 349.25 158.25
  A 0.89 0.76 -79.3 0 0 349.68 159.00
  Q 350.84 159.59 352.25 159.21
  L 367.77 159.25
  Q 368.36 162.23 366.50 162.96
  Q 361.93 162.26 362.27 166.20
  L 365.54 174.00
  Q 366.42 175.97 365.29 177.33
  A 1.07 0.98 20.2 0 1 364.44 177.68
  L 356.50 177.29
  L 351.00 165.60
  Q 348.27 163.33 345.03 162.11
  A 0.69 0.67 -78.9 0 1 344.59 161.44
  Q 344.72 158.43 343.29 155.75
  Q 341.88 149.96 338.21 145.25
  L 336.29 143.25
  L 332.79 141.00
  Q 326.06 137.42 319.25 140.79
  Q 313.41 144.05 313.71 150.75
  Q 314.00 155.55 316.34 158.73
  Q 323.43 164.76 332.21 167.62
  C 340.53 170.33 349.64 174.64 351.79 183.75
  C 351.83 184.28 352.01 188.54 351.63 187.50
  A 0.13 0.13 -33.4 0 0 351.42 187.46
  C 350.09 188.77 348.96 187.54 347.87 187.34
  Q 343.83 186.63 339.75 186.04
  C 335.57 180.39 327.69 178.45 321.51 176.08
  C 310.49 171.85 302.13 165.03 304.21 151.75
  Q 304.94 147.62 307.46 144.25
  L 308.29 142.75
  Q 312.02 138.98 316.79 136.75
  Q 317.81 136.95 318.54 136.25
  L 320.50 135.96
  Q 326.07 134.87 331.75 135.46
  Z"
/>
<path fill="#eb0001" d="
  M 59.29 167.75
  Q 58.62 169.28 57.23 169.84
  A 1.30 1.27 -87.1 0 0 56.56 170.46
  C 55.75 172.01 54.64 171.03 53.55 170.93
  Q 51.27 170.71 49.00 170.79
  L 43.75 158.29
  L 42.71 155.25
  L 40.29 148.50
  C 39.98 147.73 39.86 146.52 39.41 145.91
  Q 38.07 144.10 38.54 147.24
  Q 39.34 152.61 38.79 158.00
  L 38.46 173.25
  L 38.02 187.75
  A 0.88 0.61 85.1 0 1 37.58 188.51
  L 35.50 189.21
  A 1.24 0.33 29.5 0 1 34.59 188.97
  Q 33.93 188.65 33.92 189.69
  Q 33.91 190.10 33.90 189.70
  L 33.46 174.50
  L 33.29 150.50
  L 32.79 147.25
  C 30.77 140.50 26.02 142.36 21.54 139.75
  C 20.54 137.48 21.69 136.50 23.91 136.50
  Q 35.21 136.50 46.52 136.50
  A 1.02 1.01 -10.5 0 1 47.47 137.15
  L 59.29 167.75
  Z"
/>
<path fill="#eb0001" d="
  M 112.83 136.83
  Q 112.78 138.76 112.22 139.77
  A 1.21 0.92 3.9 0 1 111.45 140.28
  C 108.38 140.86 104.12 140.79 103.00 144.50
  C 101.53 146.43 102.38 162.99 102.46 166.25
  C 101.85 169.55 103.71 174.44 99.86 175.48
  C 97.97 175.98 95.98 174.82 93.66 176.23
  A 0.96 0.75 38.0 0 1 92.83 176.23
  L 91.79 175.75
  L 91.51 146.96
  A 0.84 0.51 -84.5 0 0 91.15 146.22
  C 90.58 146.02 90.09 148.59 90.04 149.00
  L 86.75 157.79
  L 83.75 164.71
  L 81.00 170.54
  Q 78.50 171.31 76.46 169.75
  C 80.54 159.01 85.43 148.31 88.27 137.16
  A 0.87 0.82 -82.0 0 1 89.09 136.51
  L 112.83 136.83
  Z"
/>
<path fill="#2e1627" fill-opacity="0.976" d="
  M 348.54 137.00
  L 349.21 137.00
  L 349.57 157.45
  A 0.91 0.56 -85.0 0 0 349.96 158.23
  Q 350.20 158.32 350.50 158.29
  Q 350.46 159.41 352.25 159.21
  Q 350.84 159.59 349.68 159.00
  A 0.89 0.76 -79.3 0 1 349.25 158.25
  L 348.54 137.00
  Z"
/>
<path fill="#170206" fill-opacity="0.957" d="
  M 112.83 136.83
  Q 113.29 139.06 112.86 140.47
  A 0.92 0.73 -0.4 0 1 112.19 141.01
  L 105.30 142.43
  A 1.55 0.47 -51.4 0 0 104.52 142.97
  L 103.00 144.50
  C 104.12 140.79 108.38 140.86 111.45 140.28
  A 1.21 0.92 3.9 0 0 112.22 139.77
  Q 112.78 138.76 112.83 136.83
  Z"
/>
<path fill="#2e1627" fill-opacity="0.976" d="
  M 332.79 141.00
  L 333.04 142.50
  L 332.96 143.50
  Q 332.02 142.92 331.43 141.99
  A 0.55 0.54 -28.2 0 0 330.75 141.79
  Q 329.48 142.32 328.74 141.19
  A 0.26 0.25 42.8 0 0 328.30 141.20
  Q 327.62 142.48 326.71 141.23
  A 0.95 0.69 63.8 0 0 325.94 140.82
  Q 325.20 140.92 324.75 141.56
  Q 324.50 141.92 324.34 141.52
  Q 323.61 139.73 322.08 140.86
  A 1.90 0.78 -77.5 0 0 321.52 141.67
  Q 320.82 143.28 319.04 142.00
  L 319.25 140.79
  Q 326.06 137.42 332.79 141.00
  Z"
/>
<path fill="#020102" fill-opacity="0.984" d="
  M 21.54 139.75
  C 26.02 142.36 30.77 140.50 32.79 147.25
  L 32.71 148.25
  Q 29.84 142.00 22.25 141.25
  Q 21.21 141.15 21.54 139.75
  Z"
/>
<path fill="#13579d" d="
  M 332.96 143.50
  Q 333.43 145.16 333.16 146.82
  A 0.60 0.59 5.0 0 1 332.56 147.32
  L 316.00 147.29
  C 312.71 147.17 318.48 142.64 319.04 142.00
  Q 320.82 143.28 321.52 141.67
  A 1.90 0.78 -77.5 0 1 322.08 140.86
  Q 323.61 139.73 324.34 141.52
  Q 324.50 141.92 324.75 141.56
  Q 325.20 140.92 325.94 140.82
  A 0.95 0.69 63.8 0 1 326.71 141.23
  Q 327.62 142.48 328.30 141.20
  A 0.26 0.25 42.8 0 1 328.74 141.19
  Q 329.48 142.32 330.75 141.79
  A 0.55 0.54 -28.2 0 1 331.43 141.99
  Q 332.02 142.92 332.96 143.50
  Z"
/>
<path fill="#4d040d" fill-opacity="0.969" d="
  M 319.25 140.79
  L 319.04 142.00
  C 318.48 142.64 312.71 147.17 316.00 147.29
  Q 313.70 147.65 314.50 149.71
  Q 313.83 150.04 313.71 150.75
  Q 313.41 144.05 319.25 140.79
  Z"
/>
<path fill="#13579d" d="
  M 332.79 141.00
  L 336.29 143.25
  Q 336.23 144.65 337.50 145.29
  Q 341.08 150.52 343.21 156.50
  L 343.45 158.51
  L 316.34 158.73
  Q 314.00 155.55 313.71 150.75
  Q 313.83 150.04 314.50 149.71
  L 334.68 149.43
  A 0.54 0.51 1.1 0 0 335.22 148.94
  C 335.24 148.40 335.36 141.12 333.04 142.50
  L 332.79 141.00
  Z"
/>
<path fill="#020102" fill-opacity="0.984" d="
  M 193.54 142.25
  L 194.04 143.25
  C 193.06 144.27 193.73 145.14 193.79 146.15
  Q 194.14 152.02 193.04 158.10
  Q 192.16 150.88 192.65 143.68
  A 0.41 0.34 8.5 0 1 193.13 143.39
  Q 193.73 143.52 193.54 142.25
  Z"
/>
<path fill="#c30406" d="
  M 194.04 143.25
  C 196.03 143.25 202.37 142.58 203.54 144.25
  Q 202.86 146.39 203.29 148.50
  L 203.29 157.75
  Q 202.72 159.45 204.25 159.21
  Q 210.02 159.26 215.79 159.31
  C 216.97 159.32 218.33 158.75 218.09 160.76
  Q 218.03 161.23 218.16 161.73
  Q 218.46 162.92 218.02 164.50
  L 205.02 164.03
  A 1.52 1.47 -85.9 0 0 203.50 165.39
  C 202.90 171.34 203.17 178.23 203.13 183.54
  Q 203.06 190.79 203.84 198.01
  C 205.01 206.35 212.51 204.85 218.00 204.21
  Q 219.17 204.40 219.46 205.50
  Q 219.99 208.24 217.50 209.04
  Q 208.23 211.08 206.25 211.25
  Q 201.15 211.69 194.63 207.37
  Q 192.34 188.14 193.29 168.75
  Q 193.54 168.02 193.55 167.26
  C 193.59 163.52 193.45 164.57 190.35 164.06
  Q 186.08 163.35 188.21 168.25
  L 188.21 169.50
  L 188.00 174.21
  L 187.75 174.29
  Q 185.45 174.06 184.04 172.50
  L 183.96 172.25
  Q 183.58 167.81 180.04 165.25
  Q 179.17 164.01 177.75 163.46
  C 174.11 160.66 166.87 161.06 163.90 164.44
  Q 160.67 169.65 163.49 173.43
  Q 165.06 175.54 170.13 177.50
  C 178.11 180.57 190.59 183.14 190.79 194.00
  L 190.04 200.50
  Q 187.31 207.40 180.25 209.96
  C 176.52 211.45 173.76 210.84 170.02 211.23
  C 167.14 211.52 165.74 209.33 163.54 209.75
  L 160.80 208.33
  Q 160.17 208.01 159.98 207.82
  Q 158.46 206.35 157.57 209.06
  A 1.01 1.01 15.8 0 1 156.38 209.72
  C 154.13 209.19 152.56 210.54 150.87 210.74
  Q 146.36 211.29 142.62 208.42
  Q 140.98 207.28 140.76 205.11
  Q 140.58 203.32 139.57 204.80
  Q 138.53 206.33 137.00 207.29
  Q 126.66 213.49 115.48 209.15
  Q 114.68 208.73 114.25 207.96
  L 112.04 205.25
  Q 109.85 202.06 110.25 197.50
  C 111.47 183.53 130.25 182.33 140.16 177.15
  C 143.84 157.77 121.27 158.96 124.00 166.71
  Q 124.39 167.09 124.29 167.75
  C 125.83 175.66 116.33 178.41 113.21 171.50
  L 113.21 167.75
  C 120.33 153.11 150.65 152.75 150.47 173.26
  Q 149.59 183.00 150.29 192.75
  C 150.27 196.55 148.88 201.83 152.10 204.73
  Q 153.12 205.64 152.86 204.30
  Q 151.75 198.64 152.66 193.48
  A 1.47 1.29 77.6 0 1 153.11 192.66
  C 154.95 191.11 156.38 192.18 157.02 194.21
  Q 159.44 201.88 165.81 205.44
  C 171.60 208.67 182.07 208.14 182.46 199.50
  Q 183.23 193.37 177.43 191.07
  Q 169.61 187.96 161.75 184.96
  Q 153.26 179.83 154.21 169.75
  C 157.10 157.03 171.93 155.11 181.99 159.96
  A 0.42 0.41 -68.8 0 0 182.56 159.70
  Q 183.44 156.64 186.78 157.60
  A 1.63 1.08 70.6 0 1 187.52 158.16
  C 188.80 159.90 190.15 159.13 192.13 159.36
  Q 193.93 159.56 193.04 158.10
  Q 194.14 152.02 193.79 146.15
  C 193.73 145.14 193.06 144.27 194.04 143.25
  Z
  M 121.29 197.75
  C 121.30 209.24 134.79 206.04 139.78 199.98
  Q 141.04 191.07 140.50 181.95
  Q 140.45 181.14 139.82 181.65
  Q 138.89 182.39 137.49 182.72
  C 130.87 184.30 120.04 189.15 121.29 197.75
  Z"
/>
<path fill="#2e1627" fill-opacity="0.976" d="
  M 336.29 143.25
  L 338.21 145.25
  L 337.50 145.29
  Q 336.23 144.65 336.29 143.25
  Z"
/>
<path fill="#cd0305" d="
  M 454.75 165.04
  C 452.36 163.49 445.43 164.28 442.50 164.35
  Q 440.48 164.39 441.48 166.00
  Q 441.36 181.28 441.68 196.04
  C 441.89 205.88 448.57 205.67 456.00 203.96
  Q 457.21 204.92 457.04 206.50
  Q 453.98 209.93 451.60 209.84
  Q 448.48 209.72 445.41 210.36
  Q 436.84 212.15 433.01 206.21
  C 431.17 203.37 431.66 198.79 431.52 195.30
  C 431.21 187.97 431.71 180.51 430.96 173.00
  L 430.96 167.50
  Q 430.88 166.57 431.27 165.70
  A 0.83 0.83 -72.6 0 0 430.66 164.53
  C 428.97 164.23 424.14 163.02 425.96 166.50
  L 426.04 172.00
  Q 426.56 174.17 423.81 174.02
  A 2.21 2.20 -6.2 0 1 421.79 172.40
  Q 418.51 160.34 406.00 161.75
  Q 404.58 161.91 403.25 163.21
  Q 401.16 163.91 400.54 166.00
  L 400.46 166.25
  Q 399.03 168.68 400.21 171.25
  Q 401.55 174.72 403.06 175.44
  C 411.61 179.50 428.08 181.71 428.54 194.00
  L 428.29 198.50
  Q 428.41 199.24 428.00 199.79
  C 426.27 200.07 424.71 200.03 422.74 200.18
  Q 420.40 200.37 420.75 197.54
  Q 418.35 191.40 412.06 189.69
  Q 403.26 187.29 396.21 182.50
  Q 392.56 178.72 391.79 173.50
  Q 391.24 171.28 392.29 169.25
  L 393.57 165.55
  Q 394.04 164.17 393.11 165.28
  Q 391.86 166.77 391.29 168.75
  L 389.25 173.54
  L 387.75 176.79
  Q 384.33 178.89 383.96 175.00
  Q 386.10 170.86 386.93 165.87
  Q 384.24 162.75 380.29 161.75
  Q 379.06 158.99 381.50 159.00
  Q 395.50 159.08 401.52 158.74
  L 405.50 157.71
  Q 412.80 156.74 419.54 159.86
  A 0.58 0.58 -68.8 0 0 420.33 159.51
  Q 421.33 156.26 424.48 157.60
  A 1.65 1.01 75.3 0 1 425.16 158.25
  C 426.02 159.70 428.25 159.36 429.64 159.42
  C 432.11 159.53 431.00 157.06 431.00 155.75
  Q 431.00 150.22 431.00 144.39
  A 1.14 1.14 0.0 0 1 432.14 143.25
  L 440.31 143.25
  A 1.19 1.19 0.0 0 1 441.50 144.44
  L 441.44 158.56
  A 0.53 0.53 1.7 0 0 441.94 159.09
  Q 450.84 159.60 452.75 159.25
  C 457.12 158.46 457.04 164.36 454.75 165.04
  Z"
/>
<path fill="#170206" fill-opacity="0.957" d="
  M 203.54 144.25
  L 204.00 147.46
  Q 203.38 147.76 203.46 148.50
  L 203.29 148.50
  Q 202.86 146.39 203.54 144.25
  Z"
/>
<path fill="#020102" fill-opacity="0.984" d="
  M 103.00 144.50
  L 103.02 201.51
  Q 102.00 183.90 102.46 166.25
  C 102.38 162.99 101.53 146.43 103.00 144.50
  Z"
/>
<path fill="#2e1627" fill-opacity="0.976" d="
  M 337.50 145.29
  L 338.21 145.25
  Q 341.88 149.96 343.29 155.75
  L 343.21 156.50
  Q 341.08 150.52 337.50 145.29
  Z"
/>
<path fill="#170206" fill-opacity="0.957" d="
  M 91.79 175.75
  L 91.04 192.00
  L 91.00 149.75
  A 0.86 0.51 -85.9 0 0 90.61 148.97
  Q 90.37 148.91 90.04 149.00
  C 90.09 148.59 90.58 146.02 91.15 146.22
  A 0.84 0.51 -84.5 0 1 91.51 146.96
  L 91.79 175.75
  Z"
/>
<path fill="#170206" fill-opacity="0.957" d="
  M 32.79 147.25
  L 33.29 150.50
  Q 33.31 150.91 33.04 151.00
  L 32.71 148.25
  L 32.79 147.25
  Z"
/>
<path fill="#020102" fill-opacity="0.984" d="
  M 40.29 148.50
  L 42.71 155.25
  Q 40.53 152.20 40.29 148.50
  Z"
/>
<path fill="#4d040d" fill-opacity="0.969" d="
  M 203.29 148.50
  L 203.46 148.50
  Q 203.58 149.40 204.37 149.48
  Q 203.32 153.18 203.71 157.00
  L 203.29 157.75
  L 203.29 148.50
  Z"
/>
<path fill="#020102" fill-opacity="0.984" d="
  M 33.29 150.50
  L 33.46 174.50
  L 33.04 194.75
  L 33.04 151.00
  Q 33.31 150.91 33.29 150.50
  Z"
/>
<path fill="#020102" fill-opacity="0.984" d="
  M 304.21 151.75
  C 302.13 165.03 310.49 171.85 321.51 176.08
  C 327.69 178.45 335.57 180.39 339.75 186.04
  L 340.29 187.50
  L 340.21 187.75
  Q 336.42 183.10 330.96 180.70
  Q 330.70 180.58 330.00 180.52
  Q 329.36 180.46 328.98 179.94
  A 1.55 0.88 68.4 0 0 328.27 179.37
  Q 317.56 176.54 311.06 171.94
  Q 304.49 167.28 303.42 158.32
  C 303.26 156.91 304.19 155.39 302.75 153.79
  Q 303.71 152.94 304.21 151.75
  Z"
/>
<path fill="#020102" fill-opacity="0.984" d="
  M 343.29 155.75
  Q 344.72 158.43 344.59 161.44
  A 0.69 0.67 -78.9 0 0 345.03 162.11
  Q 348.27 163.33 351.00 165.60
  Q 350.68 166.27 350.50 166.29
  Q 349.48 165.73 348.91 164.76
  A 0.82 0.72 -14.2 0 0 348.19 164.39
  Q 347.14 164.43 345.94 163.56
  Q 343.26 161.63 343.45 158.51
  L 343.21 156.50
  L 343.29 155.75
  Z"
/>
<path fill="#170206" fill-opacity="0.957" d="
  M 203.71 157.00
  Q 203.64 157.71 204.04 158.25
  Q 203.88 158.78 204.25 159.21
  Q 202.72 159.45 203.29 157.75
  L 203.71 157.00
  Z"
/>
<path fill="#c50305" d="
  M 257.25 183.54
  C 246.95 181.61 234.72 182.75 224.11 182.75
  A 0.59 0.59 -88.5 0 0 223.52 183.31
  Q 223.36 186.69 224.21 189.50
  C 226.82 206.35 244.67 212.42 254.24 196.68
  A 0.86 0.81 -71.7 0 1 255.00 196.27
  C 264.29 196.83 251.17 207.60 249.55 208.86
  Q 234.19 215.14 221.04 205.75
  L 220.46 205.00
  Q 219.87 203.88 218.79 203.25
  Q 218.68 202.84 218.15 202.77
  Q 212.75 193.11 213.21 182.00
  C 212.40 175.32 217.54 166.84 222.18 162.96
  C 238.90 148.99 260.69 162.18 257.25 183.54
  Z
  M 225.96 168.75
  Q 223.41 172.17 223.54 178.25
  L 245.49 178.48
  A 0.98 0.98 0.0 0 0 246.48 177.49
  L 246.46 172.75
  Q 246.27 168.77 244.00 165.54
  Q 243.77 165.48 243.71 165.25
  Q 242.24 162.51 239.56 161.94
  Q 230.03 159.91 225.96 168.75
  Z"
/>
<path fill="#c50305" d="
  M 495.29 177.75
  L 495.27 182.15
  A 0.61 0.60 -90.0 0 1 494.67 182.76
  L 462.00 182.99
  A 0.68 0.66 7.2 0 0 461.35 183.48
  Q 460.90 185.16 461.71 186.75
  C 462.17 196.37 467.14 205.58 478.00 205.64
  C 485.57 205.69 488.06 201.63 492.19 196.39
  A 0.88 0.83 -65.6 0 1 493.00 196.06
  Q 495.47 196.44 496.14 198.77
  A 1.16 1.02 -38.6 0 1 495.98 199.67
  Q 492.51 205.12 487.23 208.67
  Q 472.35 215.10 459.05 206.22
  Q 458.36 205.78 457.96 205.00
  L 456.00 202.50
  L 454.29 199.75
  Q 453.86 198.30 452.79 197.25
  Q 450.96 193.47 450.71 189.25
  L 450.71 180.75
  C 452.44 166.61 463.96 154.86 479.05 157.91
  C 489.14 159.94 495.05 167.50 495.29 177.75
  Z
  M 465.15 166.01
  L 464.21 167.75
  Q 461.16 171.76 461.54 176.75
  Q 461.29 177.41 461.40 177.97
  A 0.70 0.60 -5.0 0 0 462.07 178.45
  L 483.69 178.44
  A 0.72 0.66 7.5 0 0 484.37 177.97
  Q 484.66 176.89 484.01 175.80
  C 486.31 164.12 474.44 156.24 465.15 166.01
  Z"
/>
<path fill="#c50305" d="
  M 571.29 173.50
  Q 570.64 186.63 571.46 199.75
  L 571.92 203.71
  A 1.32 0.85 22.5 0 0 572.46 204.49
  Q 575.03 206.38 578.63 206.51
  A 1.72 1.72 -10.6 0 1 580.12 207.53
  Q 581.91 211.61 577.00 210.79
  Q 565.29 209.26 553.54 210.50
  C 551.37 205.11 557.89 207.04 560.13 204.34
  A 1.60 1.28 -30.0 0 0 560.48 203.45
  L 560.71 192.00
  L 560.71 184.25
  Q 561.62 175.50 558.81 167.02
  Q 550.10 160.39 542.79 168.50
  C 541.44 169.99 540.25 171.25 540.25 173.44
  Q 540.25 186.59 540.35 199.75
  Q 540.39 206.72 547.87 207.33
  Q 547.58 209.47 546.89 210.21
  A 1.17 0.71 16.9 0 1 546.00 210.44
  Q 535.11 209.20 524.25 210.71
  Q 521.43 211.37 522.58 207.70
  A 1.78 1.78 5.7 0 1 524.10 206.46
  C 529.10 205.97 529.12 204.69 529.29 200.27
  Q 529.81 186.88 529.21 173.50
  C 529.13 157.27 507.71 164.85 508.37 174.06
  C 508.94 181.98 508.57 190.27 508.79 198.25
  Q 507.85 205.66 515.00 206.45
  A 1.80 1.24 -13.1 0 1 515.89 206.80
  Q 517.79 208.44 516.00 210.54
  Q 503.62 208.79 491.25 210.54
  C 487.78 203.16 498.26 208.89 498.25 202.75
  Q 498.22 186.75 498.29 170.75
  C 499.62 166.03 495.38 163.12 491.07 163.58
  Q 488.46 159.25 492.37 159.21
  C 497.07 159.17 501.88 158.69 506.90 158.46
  A 1.62 1.62 -7.4 0 1 508.55 159.73
  Q 509.07 162.13 508.50 164.77
  Q 507.85 167.71 509.75 165.37
  C 517.72 155.50 532.18 153.90 539.30 166.00
  A 0.51 0.51 -39.9 0 0 540.13 166.07
  C 550.03 154.01 571.45 153.45 571.29 173.50
  Z"
/>
<path fill="#170206" fill-opacity="0.957" d="
  M 86.75 157.79
  Q 85.89 161.50 83.96 164.75
  L 83.75 164.71
  L 86.75 157.79
  Z"
/>
<path fill="#020102" fill-opacity="0.984" d="
  M 38.79 158.00
  L 39.21 190.00
  L 38.79 190.00
  L 38.46 173.25
  L 38.79 158.00
  Z"
/>
<path fill="#c90305" d="
  M 288.75 158.71
  Q 292.97 160.98 292.92 166.02
  Q 289.45 177.49 281.29 168.75
  L 281.21 168.50
  L 281.46 164.25
  Q 281.61 162.79 280.90 163.45
  Q 280.49 163.83 280.08 163.93
  Q 273.17 165.77 270.61 172.40
  L 271.21 201.00
  C 270.46 205.50 276.35 206.29 279.75 206.48
  A 0.91 0.83 -10.9 0 1 280.48 206.93
  Q 282.76 211.41 277.25 210.79
  Q 265.31 208.91 253.25 210.21
  C 250.69 202.68 260.48 210.03 260.50 201.25
  Q 260.53 185.50 260.46 169.75
  Q 260.63 162.71 253.38 163.56
  C 249.89 157.81 258.87 159.25 261.50 158.96
  L 270.00 158.54
  Q 271.48 161.44 270.92 164.78
  Q 270.56 166.94 271.86 165.17
  Q 274.69 161.32 280.04 159.00
  Q 281.49 159.02 282.75 158.29
  Q 285.85 157.40 288.75 158.71
  Z"
/>
<path fill="#020102" fill-opacity="0.984" d="
  M 43.75 158.29
  L 49.00 170.79
  Q 53.54 183.62 55.44 187.81
  Q 56.82 190.87 57.04 193.50
  L 56.96 193.75
  Q 49.73 176.26 43.75 158.29
  Z"
/>
<path fill="#0c0205" fill-opacity="0.843" d="
  M 263.00 158.29
  L 270.75 158.29
  Q 270.49 158.62 270.00 158.54
  L 261.50 158.96
  Q 262.44 158.94 263.00 158.29
  Z"
/>
<path fill="#170206" fill-opacity="0.957" d="
  M 282.75 158.29
  Q 281.49 159.02 280.04 159.00
  Q 280.06 158.34 279.25 158.46
  L 282.75 158.29
  Z"
/>
<path fill="#170206" fill-opacity="0.957" d="
  M 367.77 159.25
  Q 369.36 162.30 367.00 163.04
  L 366.50 162.96
  Q 368.36 162.23 367.77 159.25
  Z"
/>
<path fill="#020102" fill-opacity="0.984" d="
  M 140.16 177.15
  C 140.15 172.75 139.94 167.85 136.46 164.87
  Q 131.68 160.77 124.81 163.81
  Q 123.48 164.40 124.00 166.71
  C 121.27 158.96 143.84 157.77 140.16 177.15
  Z"
/>
<path fill="#170206" fill-opacity="0.957" d="
  M 177.75 163.46
  L 177.50 163.54
  Q 176.39 163.42 173.44 162.69
  Q 168.61 161.49 163.90 164.44
  C 166.87 161.06 174.11 160.66 177.75 163.46
  Z"
/>
<path fill="#020102" fill-opacity="0.984" d="
  M 243.71 165.25
  Q 232.90 158.13 226.09 169.12
  L 225.96 168.75
  Q 230.03 159.91 239.56 161.94
  Q 242.24 162.51 243.71 165.25
  Z"
/>
<path fill="#020102" fill-opacity="0.984" d="
  M 426.04 172.00
  Q 426.85 175.37 423.55 175.01
  A 1.33 1.26 70.9 0 1 422.72 174.58
  C 420.98 172.64 420.51 170.10 419.13 168.35
  Q 417.09 165.75 414.34 163.84
  A 1.63 1.12 -19.4 0 0 413.45 163.60
  Q 412.14 163.62 411.25 162.69
  A 1.23 1.03 64.8 0 0 410.43 162.31
  Q 406.90 162.30 403.50 163.29
  L 403.25 163.21
  Q 404.58 161.91 406.00 161.75
  Q 418.51 160.34 421.79 172.40
  A 2.21 2.20 -6.2 0 0 423.81 174.02
  Q 426.56 174.17 426.04 172.00
  Z"
/>
<path fill="#020102" fill-opacity="0.984" d="
  M 484.01 175.80
  Q 484.22 166.11 475.75 162.75
  Q 471.34 161.00 468.37 164.43
  A 1.40 1.21 12.6 0 1 467.57 164.86
  Q 466.39 165.05 465.15 166.01
  C 474.44 156.24 486.31 164.12 484.01 175.80
  Z"
/>
<path fill="#020102" fill-opacity="0.984" d="
  M 380.29 161.75
  Q 384.24 162.75 386.93 165.87
  Q 385.77 165.55 385.19 164.75
  A 0.77 0.75 67.4 0 0 384.44 164.43
  Q 383.23 164.64 382.35 163.86
  A 1.56 1.44 67.0 0 0 381.51 163.48
  Q 380.03 163.31 380.29 161.75
  Z"
/>
<path fill="#0c0205" fill-opacity="0.843" d="
  M 366.50 162.96
  L 367.00 163.04
  Q 365.62 164.27 363.75 164.27
  A 0.90 0.68 9.4 0 0 362.99 164.67
  L 362.27 166.20
  Q 361.93 162.26 366.50 162.96
  Z"
/>
<path fill="#020102" fill-opacity="0.984" d="
  M 253.38 163.56
  Q 260.63 162.71 260.46 169.75
  Q 259.39 164.04 253.38 163.56
  Z"
/>
<path fill="#020102" fill-opacity="0.984" d="
  M 281.46 164.25
  Q 280.50 164.15 280.12 164.67
  C 276.22 166.50 271.14 169.04 271.21 174.00
  Q 271.14 173.33 270.61 172.40
  Q 273.17 165.77 280.08 163.93
  Q 280.49 163.83 280.90 163.45
  Q 281.61 162.79 281.46 164.25
  Z"
/>
<path fill="#020102" fill-opacity="0.984" d="
  M 403.25 163.21
  L 403.50 163.29
  L 400.54 166.00
  Q 401.16 163.91 403.25 163.21
  Z"
/>
<path fill="#020102" fill-opacity="0.984" d="
  M 491.07 163.58
  C 495.38 163.12 499.62 166.03 498.29 170.75
  Q 497.08 164.92 491.07 163.58
  Z"
/>
<path fill="#020102" fill-opacity="0.984" d="
  M 177.50 163.54
  L 177.75 163.46
  Q 179.17 164.01 180.04 165.25
  L 179.96 165.50
  Q 178.04 165.28 177.50 163.54
  Z"
/>
<path fill="#020102" fill-opacity="0.984" d="
  M 193.29 168.75
  Q 193.52 167.18 192.73 165.96
  A 1.22 0.65 -1.3 0 0 191.94 165.56
  L 188.98 165.14
  A 0.53 0.39 6.1 0 0 188.39 165.49
  L 188.21 168.25
  Q 186.08 163.35 190.35 164.06
  C 193.45 164.57 193.59 163.52 193.55 167.26
  Q 193.54 168.02 193.29 168.75
  Z"
/>
<path fill="#020102" fill-opacity="0.984" d="
  M 218.02 164.50
  Q 211.91 166.21 204.65 165.41
  A 0.59 0.58 3.1 0 0 204.00 165.99
  L 203.84 198.01
  Q 203.06 190.79 203.13 183.54
  C 203.17 178.23 202.90 171.34 203.50 165.39
  A 1.52 1.47 -85.9 0 1 205.02 164.03
  L 218.02 164.50
  Z"
/>
<path fill="#020102" fill-opacity="0.984" d="
  M 529.21 173.50
  C 527.42 159.74 508.94 164.48 509.03 175.27
  Q 509.12 186.76 508.79 198.25
  C 508.57 190.27 508.94 181.98 508.37 174.06
  C 507.71 164.85 529.13 157.27 529.21 173.50
  Z"
/>
<path fill="#020102" fill-opacity="0.984" d="
  M 558.81 167.02
  Q 556.68 166.16 554.74 165.49
  C 550.64 164.07 546.06 166.01 542.79 168.50
  Q 550.10 160.39 558.81 167.02
  Z"
/>
<path fill="#0c0205" fill-opacity="0.843" d="
  M 281.46 164.25
  L 281.21 168.50
  Q 281.38 166.22 280.12 164.67
  Q 280.50 164.15 281.46 164.25
  Z"
/>
<path fill="#020102" fill-opacity="0.984" d="
  M 430.96 167.50
  C 430.72 164.82 425.96 164.26 425.96 166.50
  C 424.14 163.02 428.97 164.23 430.66 164.53
  A 0.83 0.83 -72.6 0 1 431.27 165.70
  Q 430.88 166.57 430.96 167.50
  Z"
/>
<path fill="#020102" fill-opacity="0.984" d="
  M 454.75 165.04
  L 441.48 166.00
  Q 440.48 164.39 442.50 164.35
  C 445.43 164.28 452.36 163.49 454.75 165.04
  Z"
/>
<path fill="#020102" fill-opacity="0.984" d="
  M 83.75 164.71
  L 83.96 164.75
  Q 83.17 167.41 80.81 173.31
  Q 80.54 174.00 80.04 174.00
  L 81.00 170.54
  L 83.75 164.71
  Z"
/>
<path fill="#170206" fill-opacity="0.957" d="
  M 392.29 169.25
  Q 392.16 168.47 391.29 168.75
  Q 391.86 166.77 393.11 165.28
  Q 394.04 164.17 393.57 165.55
  L 392.29 169.25
  Z"
/>
<path fill="#2e1627" fill-opacity="0.976" d="
  M 180.04 165.25
  Q 183.58 167.81 183.96 172.25
  L 179.96 165.50
  L 180.04 165.25
  Z"
/>
<path fill="#020102" fill-opacity="0.984" d="
  M 244.00 165.54
  Q 246.27 168.77 246.46 172.75
  L 244.00 165.54
  Z"
/>
<path fill="#170206" fill-opacity="0.957" d="
  M 351.00 165.60
  L 356.50 177.29
  L 367.29 204.00
  L 367.21 205.00
  Q 359.92 187.97 352.94 170.81
  Q 352.39 169.47 350.50 166.29
  Q 350.68 166.27 351.00 165.60
  Z"
/>
<path fill="#020102" fill-opacity="0.984" d="
  M 292.92 166.02
  Q 292.65 175.64 283.75 172.50
  Q 281.56 171.73 281.29 168.75
  Q 289.45 177.49 292.92 166.02
  Z"
/>
<path fill="#b00508" d="
  M 102.46 166.25
  Q 102.00 183.90 103.02 201.51
  C 104.17 204.91 107.59 205.63 111.00 206.04
  Q 112.42 206.94 113.04 208.50
  Q 113.11 208.80 112.76 209.61
  Q 96.87 209.42 80.98 210.36
  Q 79.31 210.79 80.14 206.95
  A 0.92 0.91 4.9 0 1 81.00 206.23
  C 93.07 205.86 90.89 201.29 91.04 192.00
  L 91.79 175.75
  L 92.83 176.23
  A 0.96 0.75 38.0 0 0 93.66 176.23
  C 95.98 174.82 97.97 175.98 99.86 175.48
  C 103.71 174.44 101.85 169.55 102.46 166.25
  Z"
/>
<path fill="#0c0205" fill-opacity="0.843" d="
  M 400.46 166.25
  L 400.21 171.25
  Q 399.03 168.68 400.46 166.25
  Z"
/>
<path fill="#c30406" d="
  M 59.29 167.75
  L 67.97 190.79
  Q 68.17 191.32 68.37 190.79
  L 76.46 169.75
  Q 78.50 171.31 81.00 170.54
  L 80.04 174.00
  Q 80.13 174.52 79.75 174.79
  L 77.50 180.25
  Q 76.70 181.37 76.54 182.75
  L 71.46 195.50
  Q 68.76 199.62 68.04 204.50
  Q 68.06 205.27 67.50 205.79
  C 66.67 207.05 66.04 210.51 63.67 208.96
  C 62.58 208.24 61.94 205.71 61.25 204.46
  Q 59.98 198.66 57.04 193.50
  Q 56.82 190.87 55.44 187.81
  Q 53.54 183.62 49.00 170.79
  Q 51.27 170.71 53.55 170.93
  C 54.64 171.03 55.75 172.01 56.56 170.46
  A 1.30 1.27 -87.1 0 1 57.23 169.84
  Q 58.62 169.28 59.29 167.75
  Z"
/>
<path fill="#2e1627" fill-opacity="0.976" d="
  M 113.21 167.75
  L 113.21 171.50
  L 113.00 171.54
  Q 112.33 169.60 113.21 167.75
  Z"
/>
<path fill="#020102" fill-opacity="0.984" d="
  M 124.29 167.75
  C 126.85 177.02 114.32 180.03 113.00 171.54
  L 113.21 171.50
  C 116.33 178.41 125.83 175.66 124.29 167.75
  Z"
/>
<path fill="#020102" fill-opacity="0.984" d="
  M 464.21 167.75
  L 461.54 176.75
  Q 461.16 171.76 464.21 167.75
  Z"
/>
<path fill="#020102" fill-opacity="0.984" d="
  M 225.96 168.75
  L 226.09 169.12
  L 223.54 178.25
  Q 223.41 172.17 225.96 168.75
  Z"
/>
<path fill="#030203" fill-opacity="0.173" d="
  M 391.29 168.75
  Q 392.16 168.47 392.29 169.25
  Q 391.24 171.28 391.79 173.50
  Q 391.21 179.37 396.00 182.54
  Q 398.08 185.53 401.50 186.96
  C 399.84 186.69 394.81 185.23 393.62 183.83
  A 1.43 0.95 -73.3 0 1 393.35 182.95
  Q 393.37 181.73 392.60 180.85
  A 1.46 0.66 -1.5 0 0 391.75 180.49
  Q 390.82 180.37 390.87 179.30
  A 0.57 0.50 -84.9 0 0 390.44 178.71
  Q 389.16 178.54 388.49 179.56
  Q 388.22 179.97 387.79 180.20
  C 385.14 181.62 388.12 183.77 385.65 185.00
  A 0.92 0.82 -11.4 0 0 385.14 185.68
  Q 384.87 188.35 384.21 185.50
  L 386.54 180.00
  Q 388.95 177.23 389.25 173.54
  L 391.29 168.75
  Z"
/>
<path fill="#4d040d" fill-opacity="0.969" d="
  M 188.21 169.50
  Q 189.01 171.93 188.00 174.21
  L 188.21 169.50
  Z"
/>
<path fill="#020102" fill-opacity="0.984" d="
  M 154.21 169.75
  Q 153.26 179.83 161.75 184.96
  L 160.50 185.54
  Q 152.42 179.77 154.21 169.75
  Z"
/>
<path fill="#170206" fill-opacity="0.957" d="
  M 184.04 172.50
  Q 185.45 174.06 187.75 174.29
  Q 187.25 174.56 186.71 174.43
  A 1.44 0.96 29.8 0 0 185.81 174.49
  Q 183.37 175.73 184.04 172.50
  Z"
/>
<path fill="#2e1627" fill-opacity="0.976" d="
  M 270.61 172.40
  Q 271.14 173.33 271.21 174.00
  L 271.21 201.00
  L 270.61 172.40
  Z"
/>
<path fill="#170206" fill-opacity="0.957" d="
  M 430.96 173.00
  C 431.71 180.51 431.21 187.97 431.52 195.30
  C 431.66 198.79 431.17 203.37 433.01 206.21
  Q 436.84 212.15 445.41 210.36
  Q 448.48 209.72 451.60 209.84
  Q 453.98 209.93 457.04 206.50
  L 457.21 206.50
  Q 457.33 208.61 455.17 209.13
  C 449.87 210.41 446.07 212.99 440.28 211.85
  Q 431.07 210.04 430.84 200.50
  Q 430.50 186.75 430.96 173.00
  Z"
/>
<path fill="#a30608" d="
  M 38.46 173.25
  L 38.79 190.00
  Q 38.24 194.91 39.96 199.50
  C 41.90 206.23 52.19 204.52 51.71 208.75
  L 51.00 209.54
  A 1.12 0.95 -64.8 0 1 50.19 209.91
  Q 35.91 209.17 21.67 210.51
  Q 20.13 210.83 20.79 207.58
  A 1.69 1.68 -2.6 0 1 21.96 206.30
  C 25.68 205.22 29.51 205.86 31.73 201.86
  C 32.76 199.99 32.73 197.05 33.04 194.75
  L 33.46 174.50
  L 33.90 189.70
  Q 33.91 190.10 33.92 189.69
  Q 33.93 188.65 34.59 188.97
  A 1.24 0.33 29.5 0 0 35.50 189.21
  L 37.58 188.51
  A 0.88 0.61 85.1 0 0 38.02 187.75
  L 38.46 173.25
  Z"
/>
<path fill="#170206" fill-opacity="0.957" d="
  M 150.47 173.26
  L 150.29 192.75
  Q 149.59 183.00 150.47 173.26
  Z"
/>
<path fill="#0c0205" fill-opacity="0.843" d="
  M 389.25 173.54
  Q 388.95 177.23 386.54 180.00
  L 387.75 176.79
  L 389.25 173.54
  Z"
/>
<path fill="#170206" fill-opacity="0.957" d="
  M 391.79 173.50
  Q 392.56 178.72 396.21 182.50
  L 396.00 182.54
  Q 391.21 179.37 391.79 173.50
  Z"
/>
<path fill="#170206" fill-opacity="0.957" d="
  M 571.29 173.50
  Q 572.18 186.62 571.46 199.75
  Q 570.64 186.63 571.29 173.50
  Z"
/>
<path fill="#a30608" d="
  M 365.54 174.00
  Q 370.47 184.97 374.44 196.32
  Q 374.78 197.30 375.18 196.35
  L 383.96 175.00
  Q 384.33 178.89 387.75 176.79
  L 386.54 180.00
  L 384.21 185.50
  Q 382.78 188.06 382.37 190.95
  A 1.85 1.66 -24.8 0 1 381.99 191.83
  Q 380.56 193.67 379.96 196.00
  Q 378.21 198.78 377.79 202.00
  C 374.92 209.85 364.05 237.58 352.00 234.21
  Q 351.09 232.41 349.00 232.79
  C 338.35 226.84 350.60 212.98 358.13 226.70
  A 0.66 0.65 -38.9 0 0 359.20 226.81
  Q 365.48 219.43 369.04 210.50
  C 370.31 209.06 368.06 205.43 367.29 204.00
  L 356.50 177.29
  L 364.44 177.68
  A 1.07 0.98 20.2 0 0 365.29 177.33
  Q 366.42 175.97 365.54 174.00
  Z"
/>
<path fill="#020102" fill-opacity="0.984" d="
  M 79.75 174.79
  Q 79.33 177.81 77.50 180.25
  L 79.75 174.79
  Z"
/>
<path fill="#020102" fill-opacity="0.984" d="
  M 495.29 177.75
  Q 495.80 180.40 495.54 181.81
  Q 495.05 184.47 492.29 184.45
  L 463.25 184.24
  A 1.40 1.10 18.5 0 0 462.36 184.56
  Q 461.50 185.40 461.71 186.75
  Q 460.90 185.16 461.35 183.48
  A 0.68 0.66 7.2 0 1 462.00 182.99
  L 494.67 182.76
  A 0.61 0.60 90.0 0 0 495.27 182.15
  L 495.29 177.75
  Z"
/>
<path fill="#0c0205" fill-opacity="0.843" d="
  M 77.50 180.25
  Q 77.91 181.97 76.54 182.75
  Q 76.70 181.37 77.50 180.25
  Z"
/>
<path fill="#2e1627" fill-opacity="0.976" d="
  M 450.71 180.75
  L 450.71 189.25
  Q 449.76 185.00 450.71 180.75
  Z"
/>
<path fill="#170206" fill-opacity="0.957" d="
  M 139.78 199.98
  L 139.94 183.87
  A 0.45 0.45 -5.8 0 0 139.40 183.43
  C 131.01 185.28 123.06 188.16 121.29 197.75
  C 120.04 189.15 130.87 184.30 137.49 182.72
  Q 138.89 182.39 139.82 181.65
  Q 140.45 181.14 140.50 181.95
  Q 141.04 191.07 139.78 199.98
  Z"
/>
<path fill="#4d040d" fill-opacity="0.969" d="
  M 213.21 182.00
  Q 212.75 193.11 218.15 202.77
  Q 211.24 193.53 213.21 182.00
  Z"
/>
<path fill="#020102" fill-opacity="0.984" d="
  M 257.25 183.54
  C 251.52 184.97 247.54 183.67 242.44 183.68
  A 0.73 0.63 -79.0 0 0 241.82 184.17
  Q 241.51 185.06 240.86 184.33
  A 1.08 0.98 66.7 0 0 240.07 183.97
  L 224.82 184.32
  A 0.59 0.49 -0.6 0 0 224.24 184.81
  L 224.21 189.50
  Q 223.36 186.69 223.52 183.31
  A 0.59 0.59 -88.5 0 1 224.11 182.75
  C 234.72 182.75 246.95 181.61 257.25 183.54
  Z"
/>
<path fill="#020102" fill-opacity="0.984" d="
  M 396.00 182.54
  L 396.21 182.50
  Q 403.26 187.29 412.06 189.69
  Q 418.35 191.40 420.75 197.54
  Q 421.40 200.08 419.79 201.75
  Q 421.00 194.03 413.68 191.59
  Q 407.49 189.52 401.50 186.96
  Q 398.08 185.53 396.00 182.54
  Z"
/>
<path fill="#a90508" d="
  M 351.79 183.75
  Q 352.95 186.24 352.54 189.00
  Q 351.90 196.17 348.04 202.25
  L 344.21 206.25
  L 341.71 208.00
  Q 341.40 208.25 341.00 208.29
  Q 324.93 215.48 309.76 206.69
  Q 308.09 205.72 308.66 207.63
  Q 307.37 212.38 302.84 210.68
  A 0.91 0.87 9.5 0 1 302.24 209.88
  L 301.44 186.17
  A 1.24 1.20 -5.0 0 1 302.51 184.93
  Q 306.49 184.36 307.16 186.96
  C 309.69 196.66 315.91 205.91 326.69 206.81
  C 336.53 207.62 343.46 202.15 341.46 191.50
  Q 341.77 189.21 340.29 187.50
  L 339.75 186.04
  Q 343.83 186.63 347.87 187.34
  C 348.96 187.54 350.09 188.77 351.42 187.46
  A 0.13 0.13 -33.4 0 1 351.63 187.50
  C 352.01 188.54 351.83 184.28 351.79 183.75
  Z"
/>
<path fill="#020102" fill-opacity="0.984" d="
  M 161.75 184.96
  Q 169.61 187.96 177.43 191.07
  Q 183.23 193.37 182.46 199.50
  C 182.08 192.02 171.37 189.43 164.55 187.34
  A 1.02 0.71 84.5 0 1 164.00 186.69
  C 163.89 186.33 161.24 185.91 160.50 185.54
  L 161.75 184.96
  Z"
/>
<path fill="#170206" fill-opacity="0.957" d="
  M 340.29 187.50
  Q 341.77 189.21 341.46 191.50
  L 340.21 187.75
  L 340.29 187.50
  Z"
/>
<path fill="#020102" fill-opacity="0.984" d="
  M 352.54 189.00
  C 353.27 192.99 351.64 199.68 348.04 202.25
  Q 351.90 196.17 352.54 189.00
  Z"
/>
<path fill="#170206" fill-opacity="0.957" d="
  M 38.79 190.00
  L 39.21 190.00
  L 39.96 199.50
  Q 38.24 194.91 38.79 190.00
  Z"
/>
<path fill="#a30608" d="
  M 419.79 201.75
  Q 421.40 200.08 420.75 197.54
  Q 420.40 200.37 422.74 200.18
  C 424.71 200.03 426.27 200.07 428.00 199.79
  Q 426.24 206.01 420.51 208.85
  A 1.69 0.95 -76.4 0 0 419.88 209.53
  Q 419.35 210.52 418.00 210.04
  L 414.25 211.25
  Q 412.22 211.01 410.19 211.22
  Q 404.18 211.83 396.95 207.10
  Q 395.28 206.00 395.44 207.80
  L 395.54 209.00
  Q 393.32 213.16 390.54 209.41
  A 1.51 1.39 -64.5 0 1 390.26 208.51
  Q 390.43 197.33 390.00 195.00
  Q 389.47 192.13 392.52 192.26
  Q 394.22 192.34 394.74 193.96
  C 397.79 203.53 406.30 210.14 416.44 205.94
  Q 418.86 204.93 419.79 201.75
  Z"
/>
<path fill="#4d040d" fill-opacity="0.969" d="
  M 57.04 193.50
  Q 59.98 198.66 61.25 204.46
  L 61.00 204.54
  L 56.96 193.75
  L 57.04 193.50
  Z"
/>
<path fill="#170206" fill-opacity="0.957" d="
  M 190.79 194.00
  Q 191.75 197.45 190.04 200.50
  L 190.79 194.00
  Z"
/>
<path fill="#170206" fill-opacity="0.957" d="
  M 428.54 194.00
  Q 429.73 196.35 428.29 198.50
  L 428.54 194.00
  Z"
/>
<path fill="#4d040d" fill-opacity="0.969" d="
  M 71.46 195.50
  Q 70.35 200.23 68.04 204.50
  Q 68.76 199.62 71.46 195.50
  Z"
/>
<path fill="#2e1627" fill-opacity="0.976" d="
  M 379.96 196.00
  Q 379.41 199.18 377.79 202.00
  Q 378.21 198.78 379.96 196.00
  Z"
/>
<path fill="#2e1627" fill-opacity="0.976" d="
  M 452.79 197.25
  Q 453.86 198.30 454.29 199.75
  L 453.96 200.25
  L 452.79 197.25
  Z"
/>
<path fill="#170206" fill-opacity="0.957" d="
  M 454.29 199.75
  L 456.00 202.50
  Q 454.42 201.90 453.96 200.25
  L 454.29 199.75
  Z"
/>
<path fill="#0c0205" fill-opacity="0.843" d="
  M 456.00 202.50
  L 457.96 205.00
  Q 456.85 205.04 457.21 206.50
  L 457.04 206.50
  Q 457.21 204.92 456.00 203.96
  Q 456.42 203.27 456.00 202.50
  Z"
/>
<path fill="#0c0205" fill-opacity="0.843" d="
  M 218.79 203.25
  Q 219.87 203.88 220.46 205.00
  Q 219.75 204.86 219.46 205.50
  Q 219.17 204.40 218.00 204.21
  Q 218.66 203.94 218.79 203.25
  Z"
/>
<path fill="#4d040d" fill-opacity="0.969" d="
  M 367.29 204.00
  C 368.06 205.43 370.31 209.06 369.04 210.50
  L 367.21 205.00
  L 367.29 204.00
  Z"
/>
<path fill="#2e1627" fill-opacity="0.976" d="
  M 61.00 204.54
  L 61.25 204.46
  C 61.94 205.71 62.58 208.24 63.67 208.96
  C 66.04 210.51 66.67 207.05 67.50 205.79
  Q 67.48 210.76 63.28 209.36
  A 1.21 0.83 6.0 0 1 62.57 208.76
  L 61.00 204.54
  Z"
/>
<path fill="#020102" fill-opacity="0.984" d="
  M 112.04 205.25
  L 114.25 207.96
  Q 113.43 207.81 113.04 208.50
  Q 112.42 206.94 111.00 206.04
  Q 111.92 206.16 112.04 205.25
  Z"
/>
<path fill="#020102" fill-opacity="0.984" d="
  M 221.04 205.75
  Q 234.19 215.14 249.55 208.86
  Q 236.50 216.54 223.56 208.44
  Q 221.81 207.34 221.04 205.75
  Z"
/>
<path fill="#020102" fill-opacity="0.984" d="
  M 341.00 208.29
  Q 340.08 210.38 337.94 210.25
  A 1.76 1.37 26.4 0 0 337.01 210.44
  C 329.17 214.98 316.26 211.70 308.66 207.63
  Q 308.09 205.72 309.76 206.69
  Q 324.93 215.48 341.00 208.29
  Z"
/>
<path fill="#0c0205" fill-opacity="0.843" d="
  M 344.21 206.25
  Q 343.54 206.88 343.29 207.71
  A 0.97 0.61 -81.7 0 1 342.73 208.37
  Q 342.17 208.48 341.71 208.00
  L 344.21 206.25
  Z"
/>
<path fill="#020102" fill-opacity="0.984" d="
  M 459.05 206.22
  Q 472.35 215.10 487.23 208.67
  C 478.82 214.79 466.25 213.58 459.05 206.22
  Z"
/>
<path fill="#020102" fill-opacity="0.984" d="
  M 414.25 211.25
  Q 414.28 212.09 413.25 212.25
  Q 404.13 213.68 397.08 208.37
  A 0.92 0.66 45.8 0 0 396.21 208.21
  Q 395.77 208.44 395.54 209.00
  L 395.44 207.80
  Q 395.28 206.00 396.95 207.10
  Q 404.18 211.83 410.19 211.22
  Q 412.22 211.01 414.25 211.25
  Z"
/>
<path fill="#170206" fill-opacity="0.957" d="
  M 137.00 207.29
  Q 134.69 209.73 131.57 210.89
  C 130.74 211.20 129.23 211.03 128.41 211.71
  Q 127.96 212.09 127.56 212.16
  Q 120.76 213.43 115.48 209.15
  Q 126.66 213.49 137.00 207.29
  Z"
/>
<path fill="#170206" fill-opacity="0.957" d="
  M 163.54 209.75
  Q 163.59 210.01 163.75 210.21
  Q 162.53 210.50 161.83 209.61
  A 1.33 0.85 65.9 0 0 161.07 209.11
  Q 158.72 208.85 156.87 210.41
  A 1.57 1.37 -63.8 0 1 156.01 210.77
  C 153.83 210.90 151.88 212.16 150.03 212.15
  Q 145.49 212.13 142.62 208.42
  Q 146.36 211.29 150.87 210.74
  C 152.56 210.54 154.13 209.19 156.38 209.72
  A 1.01 1.01 15.8 0 0 157.57 209.06
  Q 158.46 206.35 159.98 207.82
  Q 160.17 208.01 160.80 208.33
  L 163.54 209.75
  Z"
/>
<path fill="#020102" fill-opacity="0.984" d="
  M 194.63 207.37
  Q 201.15 211.69 206.25 211.25
  Q 208.23 211.08 217.50 209.04
  Q 212.78 211.95 206.00 212.25
  Q 199.24 212.55 194.63 207.37
  Z"
/>
<path fill="#020102" fill-opacity="0.984" d="
  M 547.87 207.33
  Q 548.44 211.20 546.20 210.98
  Q 544.37 210.80 544.27 210.81
  Q 534.26 211.38 524.25 210.71
  Q 535.11 209.20 546.00 210.44
  A 1.17 0.71 16.9 0 0 546.89 210.21
  Q 547.58 209.47 547.87 207.33
  Z"
/>
<path fill="#020102" fill-opacity="0.984" d="
  M 51.71 208.75
  C 51.93 211.25 49.96 210.07 48.68 210.73
  Q 48.16 211.00 47.76 211.01
  Q 34.75 211.34 21.67 210.51
  Q 35.91 209.17 50.19 209.91
  A 1.12 0.95 -64.8 0 0 51.00 209.54
  L 51.71 208.75
  Z"
/>
<path fill="#020102" fill-opacity="0.984" d="
  M 112.76 209.61
  C 112.98 209.94 112.28 210.25 111.98 210.28
  Q 96.52 211.98 80.98 210.36
  Q 96.87 209.42 112.76 209.61
  Z"
/>
<path fill="#0c0205" fill-opacity="0.843" d="
  M 163.54 209.75
  C 165.74 209.33 167.14 211.52 170.02 211.23
  C 173.76 210.84 176.52 211.45 180.25 209.96
  Q 181.05 210.26 179.66 210.48
  Q 177.91 210.76 176.75 212.00
  Q 176.50 212.27 175.19 212.69
  Q 174.69 212.85 174.43 212.46
  A 0.68 0.51 62.6 0 0 173.78 212.15
  C 170.19 213.18 167.04 211.45 163.75 210.21
  Q 163.59 210.01 163.54 209.75
  Z"
/>
<path fill="#020102" fill-opacity="0.984" d="
  M 277.25 210.79
  C 273.33 210.98 253.63 211.57 253.25 210.21
  Q 265.31 208.91 277.25 210.79
  Z"
/>
<path fill="#020102" fill-opacity="0.984" d="
  M 516.00 210.54
  Q 503.62 211.64 491.25 210.54
  Q 503.62 208.79 516.00 210.54
  Z"
/>
<path fill="#170206" fill-opacity="0.957" d="
  M 418.00 210.04
  Q 416.57 211.73 414.25 211.25
  L 418.00 210.04
  Z"
/>
<path fill="#020102" fill-opacity="0.984" d="
  M 577.00 210.79
  Q 565.26 211.49 553.54 210.50
  Q 565.29 209.26 577.00 210.79
  Z"
/>
<path fill="#4d040d" fill-opacity="0.969" d="
  M 349.00 232.79
  Q 351.09 232.41 352.00 234.21
  Q 350.30 233.94 349.00 232.79
  Z"
/>
</svg>
