<?xml version="1.0" encoding="UTF-8" standalone="no"?>
<!DOCTYPE svg PUBLIC "-//W3C//DTD SVG 1.1//EN" "http://www.w3.org/Graphics/SVG/1.1/DTD/svg11.dtd">
<svg xmlns="http://www.w3.org/2000/svg" version="1.1" viewBox="0 0 600 300">
<path fill="#000000" d="
  M 309.31 0.00
  L 316.81 0.00
  C 346.23 1.18 387.89 9.37 408.18 33.24
  Q 424.81 52.80 435.67 75.98
  C 439.81 84.80 441.41 95.08 443.17 104.67
  C 444.33 110.98 445.11 119.03 436.47 119.65
  C 427.06 120.31 426.06 111.68 424.16 104.85
  C 421.21 94.25 418.08 81.68 412.14 72.36
  Q 401.21 55.23 392.56 45.19
  C 382.54 33.55 368.35 26.23 353.00 22.01
  Q 325.74 14.50 298.50 16.75
  C 277.52 18.48 254.80 32.76 239.19 46.69
  C 228.16 56.52 220.70 70.51 215.35 84.08
  C 212.63 90.99 211.60 97.53 210.86 105.42
  C 207.62 140.07 221.88 180.98 255.81 195.94
  Q 263.55 199.35 272.93 202.09
  C 285.39 205.73 300.21 205.77 312.75 205.25
  C 324.22 204.78 336.81 199.56 347.18 194.32
  C 364.56 185.55 376.18 173.11 381.25 153.75
  Q 381.93 151.17 381.93 148.50
  C 381.98 119.35 374.79 86.20 349.56 69.09
  C 328.90 55.07 304.01 54.01 281.81 66.07
  Q 272.24 71.27 268.56 74.81
  C 266.61 76.70 263.46 81.83 260.85 85.58
  C 252.28 97.93 249.90 111.57 252.12 126.06
  C 255.35 147.16 267.38 161.19 289.00 165.75
  C 303.15 168.73 320.03 162.61 331.44 154.69
  C 343.61 146.23 340.62 123.37 335.25 112.25
  C 330.47 102.36 315.35 96.49 305.25 97.00
  C 292.12 97.66 283.35 112.72 291.49 123.70
  C 296.68 130.70 306.23 128.15 313.65 128.57
  C 317.74 128.80 319.82 130.69 319.70 134.81
  C 319.34 147.60 299.13 144.58 291.21 142.47
  Q 287.78 141.55 284.96 139.34
  C 276.24 132.49 271.06 124.86 271.98 113.27
  C 273.34 96.15 285.08 81.35 303.08 80.69
  C 340.79 79.31 360.83 105.01 357.33 140.98
  Q 355.45 160.29 338.78 169.80
  C 289.17 198.10 235.05 177.54 235.09 115.25
  C 235.11 90.38 248.23 67.62 269.44 54.19
  C 279.65 47.72 293.26 40.82 305.17 40.71
  Q 324.14 40.54 344.50 46.50
  C 357.17 50.21 374.20 61.89 381.46 73.04
  C 391.93 89.10 395.64 107.70 398.80 126.49
  C 407.08 175.83 377.37 202.58 335.81 218.81
  Q 326.15 222.58 315.77 223.24
  Q 279.12 225.57 246.81 210.69
  C 229.87 202.88 214.12 185.90 205.45 169.43
  C 200.08 159.21 196.91 146.65 194.00 134.90
  Q 193.02 130.95 192.68 126.49
  C 192.05 118.53 191.23 111.15 192.66 103.18
  C 197.43 76.68 209.91 47.64 232.02 31.11
  C 236.47 27.79 240.99 24.23 245.39 21.41
  Q 267.28 7.38 292.75 1.50
  Q 296.01 0.75 309.31 0.00
  Z"
/>
<path fill="#000000" d="
  M 121.94 300.00
  L 109.19 300.00
  L 96.50 299.77
  A 1.11 1.06 12.2 0 1 95.49 298.27
  C 96.86 295.20 96.78 292.88 96.74 289.61
  Q 96.38 265.18 96.67 240.75
  Q 96.71 236.98 95.24 233.49
  A 0.73 0.73 -12.5 0 1 95.88 232.49
  Q 108.62 231.99 121.50 232.50
  Q 131.98 232.92 138.86 236.22
  C 160.73 246.70 163.52 276.55 145.69 292.19
  C 139.32 297.77 130.93 299.26 121.94 300.00
  Z
  M 140.27 245.27
  C 130.62 236.62 118.79 237.18 106.81 238.99
  A 0.58 0.56 -4.6 0 0 106.31 239.56
  L 106.92 293.56
  A 0.55 0.54 1.2 0 0 107.44 294.09
  C 124.12 295.07 140.65 294.71 145.93 275.28
  Q 149.95 260.50 142.63 248.15
  Q 141.67 246.53 140.27 245.27
  Z"
/>
<path fill="#000000" d="
  M 489.21 295.79
  C 483.44 291.51 485.58 267.77 485.32 256.43
  A 0.55 0.53 -89.5 0 0 484.81 255.89
  L 480.31 255.68
  A 0.59 0.46 2.1 0 1 479.73 255.20
  L 479.93 251.79
  A 0.53 0.42 8.4 0 1 480.55 251.43
  Q 481.79 251.67 483.02 251.38
  Q 483.47 251.28 483.99 251.36
  C 487.15 251.88 485.01 241.76 484.48 240.28
  A 0.48 0.47 72.3 0 1 484.79 239.67
  L 491.89 237.56
  A 0.63 0.62 -8.5 0 1 492.69 238.15
  L 492.74 250.45
  A 0.83 0.79 -89.7 0 0 493.51 251.27
  L 503.79 251.49
  A 1.18 0.93 86.0 0 1 504.72 252.52
  L 504.99 254.75
  A 1.15 1.07 86.9 0 1 503.91 256.04
  L 493.96 255.79
  A 1.02 0.95 -89.7 0 0 492.99 256.82
  Q 493.14 269.88 492.71 282.00
  C 492.42 290.35 495.21 295.85 504.12 292.54
  Q 504.95 292.23 504.77 293.03
  L 503.90 296.84
  A 1.09 0.91 -4.3 0 1 503.17 297.55
  C 499.16 298.77 492.80 298.46 489.21 295.79
  Z"
/>
<path fill="#000000" d="
  M 450.19 269.81
  C 443.36 264.61 446.10 254.41 453.43 251.42
  C 460.05 248.73 466.14 249.82 472.92 250.96
  A 1.00 0.98 4.9 0 1 473.75 251.93
  L 473.75 256.29
  Q 473.75 257.47 472.74 256.85
  C 467.62 253.65 458.73 252.71 454.79 258.05
  C 451.92 261.96 455.19 266.23 459.19 267.31
  C 463.74 268.55 473.31 273.55 476.12 277.48
  Q 479.27 281.89 477.75 287.75
  C 475.04 298.21 461.10 299.59 452.28 297.36
  Q 450.21 296.84 448.09 296.69
  A 1.64 1.39 83.5 0 1 446.78 295.46
  L 445.48 290.35
  Q 444.96 288.29 446.68 289.31
  C 453.02 293.06 462.33 295.88 468.44 290.69
  Q 471.68 287.93 471.03 284.27
  C 470.21 279.72 464.66 276.74 460.53 275.40
  Q 455.32 273.72 450.19 269.81
  Z"
/>
<path fill="#000000" d="
  M 432.32 293.39
  Q 423.02 301.60 410.92 297.10
  C 401.10 293.45 399.70 280.78 407.52 274.47
  C 414.78 268.61 427.55 272.20 432.18 264.98
  Q 433.75 262.53 432.19 260.07
  C 427.55 252.71 414.83 254.87 408.81 258.06
  C 405.53 259.80 406.77 254.73 407.16 253.30
  A 1.01 0.96 -3.5 0 1 407.78 252.64
  Q 417.49 249.13 427.44 250.94
  C 436.80 252.63 440.06 260.28 440.09 269.00
  C 440.12 277.41 439.04 289.05 441.25 297.00
  A 0.39 0.39 -7.8 0 1 440.87 297.50
  L 433.46 297.50
  A 0.87 0.81 -89.0 0 1 432.65 296.60
  L 432.75 293.56
  Q 432.77 293.00 432.32 293.39
  Z
  M 411.58 279.74
  C 405.42 287.11 414.33 294.86 422.01 293.32
  C 433.68 290.98 432.58 281.97 432.84 272.40
  Q 432.86 271.46 432.12 272.05
  C 426.50 276.50 417.09 273.13 411.58 279.74
  Z"
/>
<path fill="#000000" d="
  M 270.68 294.52
  Q 270.58 293.11 269.64 294.10
  C 263.07 301.02 250.42 300.94 243.88 294.54
  C 238.92 289.68 239.65 280.20 244.94 275.45
  C 251.87 269.23 261.37 272.75 267.97 267.75
  C 271.70 264.92 271.30 260.38 267.75 257.81
  C 262.15 253.75 251.09 256.35 245.45 259.26
  A 0.39 0.38 -19.8 0 1 244.89 259.01
  Q 244.39 256.37 245.16 253.80
  A 0.97 0.96 88.9 0 1 245.78 253.15
  C 259.25 248.67 277.83 248.99 277.98 268.50
  C 278.05 278.27 277.97 287.84 279.01 297.56
  A 0.51 0.47 86.7 0 1 278.55 298.12
  L 271.43 298.12
  A 0.60 0.57 88.3 0 1 270.87 297.56
  L 270.68 294.52
  Z
  M 249.12 280.86
  C 244.33 287.44 251.27 294.53 258.25 294.00
  C 271.12 293.03 271.02 282.75 270.72 272.73
  Q 270.70 272.13 270.23 272.49
  C 264.02 277.27 254.39 273.62 249.12 280.86
  Z"
/>
<path fill="#000000" d="
  M 294.98 256.15
  Q 296.94 254.80 298.88 253.43
  C 306.05 248.38 314.88 250.25 320.88 256.25
  A 0.97 0.97 47.0 0 0 322.20 256.30
  Q 331.14 248.61 341.80 251.29
  C 353.86 254.32 353.43 262.29 353.67 273.85
  Q 353.87 283.40 353.77 292.96
  C 353.75 294.61 354.35 295.89 354.52 297.57
  A 0.49 0.46 86.6 0 1 354.07 298.11
  L 346.19 298.11
  A 0.49 0.47 -86.8 0 1 345.72 297.57
  C 345.83 296.39 346.44 295.54 346.44 294.35
  Q 346.54 280.05 346.50 265.75
  C 346.46 253.38 324.41 252.50 324.33 265.75
  Q 324.25 279.50 324.43 293.25
  Q 324.45 295.01 325.35 297.49
  A 0.56 0.56 -10.1 0 1 324.82 298.25
  C 322.21 298.25 319.93 298.21 317.57 298.38
  Q 314.80 298.57 316.20 295.87
  Q 316.44 295.40 316.44 294.93
  Q 316.53 282.23 316.51 269.54
  C 316.50 264.01 315.68 259.51 310.78 257.06
  C 305.48 254.39 299.50 256.68 296.59 261.67
  Q 295.27 263.95 295.15 268.12
  C 294.90 277.00 293.81 288.99 295.81 297.50
  A 0.69 0.65 -5.9 0 1 295.12 298.30
  L 287.28 298.27
  A 0.88 0.82 10.8 0 1 286.45 297.13
  Q 287.19 295.31 287.22 293.50
  Q 287.40 278.73 286.82 263.97
  C 286.67 260.19 286.97 257.22 285.54 253.60
  A 0.84 0.83 -17.3 0 1 286.14 252.48
  L 293.44 250.83
  A 0.90 0.89 83.3 0 1 294.53 251.70
  L 294.54 255.93
  Q 294.54 256.46 294.98 256.15
  Z"
/>
<path fill="#000000" d="
  M 396.53 296.90
  C 383.25 299.92 367.34 299.21 360.75 285.00
  Q 358.24 279.59 359.17 271.21
  C 361.31 251.95 380.10 248.05 395.77 252.20
  A 1.26 1.21 -86.7 0 1 396.66 253.24
  L 397.22 257.35
  Q 397.43 258.89 396.08 258.20
  C 377.57 248.78 361.63 263.46 368.50 282.75
  C 373.17 295.86 387.69 295.19 397.95 289.93
  Q 399.14 289.32 398.89 290.66
  L 398.03 295.27
  A 2.09 1.95 89.5 0 1 396.53 296.90
  Z"
/>
<path fill="#000000" d="
  M 174.17 258.74
  C 178.06 251.49 187.48 249.92 194.61 252.75
  A 0.62 0.51 20.7 0 1 195.00 253.43
  L 193.13 258.62
  A 0.91 0.80 21.6 0 1 191.96 259.04
  C 182.47 255.17 173.44 259.50 173.50 270.50
  Q 173.61 290.89 173.80 296.44
  Q 173.81 296.90 174.08 297.36
  Q 175.37 299.58 172.93 299.38
  C 170.51 299.19 168.16 299.34 165.75 299.06
  A 0.45 0.44 9.9 0 1 165.37 298.52
  Q 166.05 295.59 166.00 291.25
  Q 165.71 267.02 165.53 260.37
  C 165.46 257.82 165.67 256.21 164.29 253.90
  A 0.85 0.85 70.7 0 1 164.90 252.62
  L 172.29 251.61
  A 0.81 0.81 85.2 0 1 173.21 252.39
  C 173.26 253.70 172.86 259.02 173.45 259.17
  A 0.78 0.56 -66.5 0 0 174.17 258.74
  Z"
/>
<path fill="#000000" d="
  M 194.50 280.00
  C 188.62 247.18 235.76 240.06 236.00 271.38
  A 0.87 0.86 -0.3 0 1 235.13 272.25
  L 203.06 272.31
  A 0.59 0.57 -86.0 0 0 202.49 272.82
  C 199.67 293.51 218.82 297.90 233.65 290.02
  Q 234.42 289.61 234.29 290.42
  L 233.41 296.04
  A 1.08 0.73 -13.1 0 1 232.80 296.70
  C 217.09 303.48 197.83 298.59 194.50 280.00
  Z
  M 227.60 267.32
  A 0.67 0.65 -4.1 0 0 228.26 266.57
  C 226.17 251.78 206.70 253.75 203.47 266.63
  A 0.56 0.55 7.2 0 0 204.01 267.32
  L 227.60 267.32
  Z"
/>
</svg>
