<?xml version="1.0" encoding="UTF-8" standalone="no"?>
<!DOCTYPE svg PUBLIC "-//W3C//DTD SVG 1.1//EN" "http://www.w3.org/Graphics/SVG/1.1/DTD/svg11.dtd">
<svg xmlns="http://www.w3.org/2000/svg" version="1.1" viewBox="0 0 600 300">
<path fill="#000000" d="
  M 566.89 117.44
  C 577.76 110.50 574.18 93.06 561.00 93.01
  Q 547.78 92.95 533.83 93.07
  A 0.77 0.76 -0.7 0 1 533.05 92.32
  L 533.01 84.02
  A 1.03 1.02 0.0 0 1 534.04 83.00
  Q 546.30 83.00 557.92 83.00
  Q 564.81 83.00 568.41 84.36
  C 585.90 90.94 587.87 115.00 572.89 125.25
  Q 566.15 129.86 556.77 128.98
  A 2.26 2.26 -62.7 0 0 555.08 129.52
  Q 553.33 131.01 556.00 131.01
  Q 569.00 131.00 582.58 131.00
  A 0.67 0.67 89.8 0 1 583.25 131.67
  L 583.25 140.01
  A 0.99 0.99 0.0 0 1 582.26 141.00
  L 545.70 141.00
  A 0.72 0.72 88.3 0 1 544.98 140.32
  C 544.59 133.86 543.55 123.44 550.02 119.99
  C 555.21 117.23 561.62 120.81 566.89 117.44
  Z"
/>
<path fill="#000000" d="
  M 561.24 106.63
  A 1.18 1.18 11.3 0 0 560.15 105.00
  L 533.87 105.00
  A 0.87 0.87 0.0 0 1 533.00 104.13
  L 533.00 95.88
  A 0.88 0.88 0.0 0 1 533.88 95.00
  Q 547.37 95.00 560.25 95.00
  C 575.12 95.00 574.60 118.59 558.25 117.00
  C 540.04 115.23 542.68 130.22 542.43 142.32
  A 0.66 0.66 -89.2 0 0 543.09 143.00
  L 582.43 143.06
  A 0.57 0.51 -0.5 0 1 583.00 143.56
  L 583.17 152.15
  A 0.90 0.84 -0.3 0 1 582.27 153.00
  L 533.85 153.00
  A 0.85 0.85 -0.0 0 1 533.00 152.15
  Q 533.00 141.00 533.00 130.50
  C 533.00 117.25 538.43 108.54 551.97 107.05
  C 554.38 106.79 560.92 107.39 561.24 106.63
  Z"
/>
<path fill="#000000" d="
  M 83.36 104.35
  Q 86.36 105.63 86.37 108.75
  Q 86.54 157.37 86.44 206.00
  C 86.43 210.64 84.83 211.00 80.77 211.00
  Q 51.13 211.00 20.80 211.00
  A 2.80 2.80 -14.5 0 1 18.35 209.56
  Q 17.29 207.64 17.30 205.00
  Q 17.49 158.21 17.50 111.42
  C 17.50 106.57 18.40 103.75 23.75 103.75
  Q 52.00 103.75 80.42 103.75
  Q 81.95 103.75 83.36 104.35
  Z
  M 63.50 160.75
  C 63.50 153.02 67.78 149.39 75.00 148.17
  A 1.19 1.19 -4.7 0 0 75.99 147.01
  Q 76.15 133.78 75.84 121.35
  C 75.69 115.75 73.26 112.52 67.50 112.51
  Q 51.88 112.50 36.25 112.50
  C 30.07 112.50 28.28 116.41 28.20 122.13
  Q 27.67 158.51 28.22 194.90
  C 28.31 201.22 31.60 203.00 37.69 203.00
  Q 47.22 203.00 56.75 203.01
  C 62.02 203.01 63.50 199.80 63.50 194.90
  Q 63.50 177.82 63.50 160.75
  Z"
/>
<path fill="#000000" d="
  M 159.53 108.98
  Q 167.99 115.89 168.06 127.00
  Q 168.25 157.38 168.20 187.75
  C 168.19 198.82 160.70 211.00 148.41 211.00
  Q 125.73 211.00 103.05 211.00
  C 99.37 211.00 97.53 211.01 97.48 206.62
  Q 96.90 158.07 97.48 109.52
  C 97.51 106.95 98.51 104.14 101.25 104.00
  Q 110.78 103.53 136.23 103.70
  C 147.05 103.78 152.38 103.15 159.53 108.98
  Z
  M 152.60 115.40
  C 148.47 112.21 145.17 112.49 138.99 112.46
  C 133.27 112.42 120.25 110.31 120.25 119.25
  Q 120.25 157.50 120.25 195.75
  C 120.25 201.56 123.37 203.00 128.78 203.00
  C 142.76 203.00 157.50 206.17 157.50 188.02
  Q 157.51 156.89 157.60 125.75
  Q 157.62 119.28 152.60 115.40
  Z"
/>
<path fill="#000000" d="
  M 230.96 105.97
  C 233.19 101.42 239.31 104.11 239.30 109.00
  Q 239.25 127.12 239.20 145.25
  C 239.19 149.88 237.25 151.14 234.18 153.86
  Q 227.86 159.45 221.99 165.63
  Q 219.73 168.02 219.71 171.17
  L 219.51 208.73
  Q 219.50 211.01 217.28 211.00
  L 200.05 210.94
  A 1.51 1.50 90.0 0 1 198.56 209.44
  Q 198.46 191.71 198.49 173.54
  C 198.50 169.02 197.18 166.56 194.14 163.61
  Q 187.78 157.46 181.19 151.56
  Q 179.01 149.62 178.97 146.00
  Q 178.75 127.50 178.75 109.00
  C 178.75 102.10 187.75 102.01 187.75 108.75
  Q 187.75 123.75 187.75 138.75
  C 187.75 143.19 189.02 144.23 192.33 147.45
  Q 199.73 154.64 208.57 159.99
  A 0.83 0.83 0.0 0 0 209.43 159.99
  C 215.62 156.25 230.64 146.09 230.33 139.19
  C 229.90 129.64 230.24 119.83 230.30 110.26
  Q 230.32 107.30 230.96 105.97
  Z"
/>
<path fill="#000000" d="
  M 261.00 162.25
  C 255.20 162.67 249.73 160.89 249.73 154.00
  Q 249.75 131.88 249.75 109.75
  Q 249.75 103.79 256.00 103.78
  Q 280.25 103.75 304.50 103.75
  C 308.22 103.75 309.71 106.06 309.83 109.65
  C 310.07 116.81 309.78 123.99 310.12 131.14
  C 310.31 135.06 307.52 137.94 303.56 137.18
  C 293.13 135.18 307.40 112.65 291.75 112.57
  Q 279.63 112.50 267.50 112.54
  C 262.92 112.56 260.57 114.95 260.54 119.59
  Q 260.47 131.78 260.49 143.97
  C 260.50 149.62 263.08 151.93 268.75 151.50
  Q 274.47 151.06 300.86 151.68
  C 305.84 151.79 309.99 153.63 310.00 159.00
  Q 310.04 182.17 309.95 205.33
  C 309.93 210.65 308.73 211.00 303.87 211.00
  Q 280.08 211.00 256.29 211.00
  C 253.16 211.00 250.27 211.47 249.94 207.31
  Q 249.57 202.73 249.72 188.27
  Q 249.77 183.11 250.01 182.25
  C 251.57 176.84 258.89 178.32 263.16 178.27
  C 273.93 178.14 271.09 187.28 270.84 194.49
  C 270.45 205.45 280.55 203.00 287.03 203.00
  C 293.16 203.00 297.34 203.17 297.58 196.10
  Q 298.03 182.58 297.58 169.06
  C 297.45 165.36 295.70 162.56 291.83 162.46
  Q 266.90 161.83 261.00 162.25
  Z"
/>
<path fill="#000000" d="
  M 321.75 106.11
  Q 323.40 103.77 326.50 103.77
  Q 350.50 103.75 374.50 103.75
  C 380.00 103.75 381.00 106.42 381.00 111.48
  Q 381.00 121.27 381.00 131.06
  C 381.00 136.95 374.09 140.05 371.36 135.03
  C 367.63 128.21 376.01 112.25 362.50 112.38
  Q 350.38 112.50 338.25 112.50
  C 333.13 112.50 331.50 115.81 331.50 120.60
  Q 331.50 132.22 331.50 143.83
  C 331.50 148.66 333.17 151.52 338.21 151.49
  Q 355.01 151.35 371.80 151.69
  C 377.90 151.81 380.92 154.00 380.95 160.15
  Q 381.05 183.33 381.07 206.50
  C 381.08 209.40 379.76 210.93 376.72 210.94
  Q 351.30 211.05 324.05 211.00
  A 2.69 2.65 -18.2 0 1 321.94 209.95
  C 319.55 206.79 320.75 188.36 320.75 183.50
  C 320.75 177.75 327.39 178.10 332.50 178.19
  C 338.41 178.29 342.02 178.24 342.00 185.03
  C 341.97 191.94 339.35 203.65 350.26 203.23
  Q 356.13 203.00 362.00 203.01
  C 367.29 203.01 368.50 199.78 368.50 194.96
  Q 368.50 182.23 368.50 169.50
  C 368.50 164.44 366.29 162.55 361.24 162.43
  Q 340.84 161.94 330.75 162.25
  C 320.16 162.57 320.75 156.14 320.75 147.54
  Q 320.75 128.39 320.75 109.24
  Q 320.75 107.51 321.75 106.11
  Z"
/>
<path fill="#000000" d="
  M 392.93 105.70
  Q 394.89 103.74 397.75 103.74
  Q 421.12 103.75 446.32 103.75
  A 1.92 1.92 -7.2 0 1 448.18 105.19
  Q 449.14 108.89 448.26 112.50
  Q 447.82 114.29 445.98 114.27
  Q 427.63 114.08 410.79 114.44
  C 406.24 114.54 402.69 116.52 402.48 121.32
  Q 401.99 132.90 402.37 144.49
  C 402.62 152.04 405.73 153.21 412.50 153.26
  Q 429.73 153.39 446.24 153.50
  Q 448.56 153.51 448.48 155.61
  L 448.28 160.33
  Q 448.20 162.25 445.99 162.25
  Q 434.13 162.25 423.25 162.35
  Q 414.33 162.44 414.51 171.50
  Q 414.71 181.93 414.74 192.36
  C 414.78 202.73 418.23 203.08 427.17 202.95
  C 435.04 202.84 449.75 200.84 448.49 210.04
  A 1.11 1.10 -86.1 0 1 447.40 211.00
  C 430.69 211.00 413.40 210.19 396.84 211.13
  C 391.17 211.44 391.75 207.17 391.75 202.66
  Q 391.71 155.49 391.81 108.38
  A 3.79 3.76 -22.5 0 1 392.93 105.70
  Z"
/>
<path fill="#000000" d="
  M 489.49 160.17
  C 495.37 156.52 510.54 146.63 510.48 139.46
  Q 510.34 123.23 510.74 107.00
  A 1.57 1.40 67.4 0 1 511.05 106.10
  Q 514.78 101.26 518.62 105.92
  A 1.37 1.36 -65.3 0 1 518.94 106.80
  Q 519.05 126.65 519.00 146.50
  Q 518.99 150.44 516.33 152.61
  Q 508.91 158.64 502.30 165.58
  Q 500.04 167.95 499.97 171.22
  Q 499.58 188.33 499.74 206.86
  C 499.77 209.48 500.24 211.00 496.75 211.00
  Q 489.50 211.00 480.96 211.00
  Q 478.74 211.00 478.73 208.82
  L 478.51 170.79
  Q 478.50 169.03 477.57 167.63
  C 473.55 161.65 466.64 156.19 461.81 151.94
  C 458.73 149.23 459.00 145.90 459.00 142.00
  Q 459.00 125.38 459.04 108.75
  C 459.06 102.17 467.91 101.63 467.94 109.48
  Q 468.00 124.47 468.06 139.45
  C 468.08 146.61 482.76 156.18 488.66 160.16
  A 0.77 0.73 -43.1 0 0 489.49 160.17
  Z"
/>
</svg>
