<?xml version="1.0" encoding="UTF-8" standalone="no"?>
<!DOCTYPE svg PUBLIC "-//W3C//DTD SVG 1.1//EN" "http://www.w3.org/Graphics/SVG/1.1/DTD/svg11.dtd">
<svg xmlns="http://www.w3.org/2000/svg" version="1.1" viewBox="0.00 0.00 600.00 300.00">
<g stroke-width="2.00" fill="none" stroke-linecap="butt">
<path stroke="#0185f9" vector-effect="non-scaling-stroke" d="
  M 525.64 123.30
  L 524.73 123.85
  Q 524.33 124.09 524.13 123.67
  Q 522.91 121.09 522.11 119.26
  Q 521.04 116.82 519.85 115.28
  Q 515.44 109.58 512.03 106.74
  Q 506.14 101.85 497.39 100.30
  Q 481.19 97.44 467.63 106.08
  Q 458.00 112.22 452.40 123.86
  Q 452.20 124.29 451.74 124.17
  L 450.36 123.81"
/>
<path stroke="#055adf" vector-effect="non-scaling-stroke" d="
  M 527.13 128.86
  Q 517.19 127.26 507.28 126.56
  Q 505.31 126.41 501.53 125.45"
/>
<path stroke="#014dc0" stroke-opacity="0.647" vector-effect="non-scaling-stroke" d="
  M 501.53 125.45
  Q 493.66 116.62 483.06 120.30
  Q 478.54 121.87 474.51 126.63"
/>
<path stroke="#055adf" vector-effect="non-scaling-stroke" d="
  M 474.51 126.63
  Q 466.15 127.43 457.62 127.25
  Q 455.30 127.21 447.59 129.91"
/>
<path stroke="#0a4ec0" vector-effect="non-scaling-stroke" d="
  M 466.50 143.77
  Q 454.76 146.77 442.78 148.02"
/>
<path stroke="#06409e" stroke-opacity="0.647" vector-effect="non-scaling-stroke" d="
  M 501.53 125.45
  Q 505.78 131.51 506.14 139.24"
/>
<path stroke="#093a8f" stroke-opacity="0.647" vector-effect="non-scaling-stroke" d="
  M 466.36 144.81
  L 466.50 143.77"
/>
<path stroke="#06409e" stroke-opacity="0.647" vector-effect="non-scaling-stroke" d="
  M 466.50 143.77
  Q 468.72 134.17 474.51 126.63"
/>
<path stroke="#0a4ec0" vector-effect="non-scaling-stroke" d="
  M 528.22 148.99
  Q 516.74 153.38 504.64 155.94"
/>
<path stroke="#0a4ec0" vector-effect="non-scaling-stroke" d="
  M 467.96 171.71
  Q 467.37 171.85 467.21 172.01
  A 1.09 1.02 48.6 0 0 467.17 173.33
  Q 469.43 176.43 472.64 178.25
  Q 475.54 179.90 479.44 180.35
  Q 490.65 181.65 498.09 172.43
  Q 498.45 171.99 497.95 171.72
  Q 497.69 171.58 497.23 171.60"
/>
<path stroke="#0d45aa" vector-effect="non-scaling-stroke" d="
  M 523.34 170.65
  Q 515.61 175.21 506.63 177.10
  Q 494.80 179.59 483.47 180.65
  Q 477.02 181.25 470.43 180.42
  Q 457.21 178.76 444.14 175.49"
/>
<path stroke="#0c327c" stroke-opacity="0.647" vector-effect="non-scaling-stroke" d="
  M 511.74 188.00
  Q 502.78 196.55 490.73 199.47
  Q 481.06 201.81 471.08 199.38
  Q 454.10 195.23 446.03 180.29"
/>
<path stroke="#0185f9" vector-effect="non-scaling-stroke" d="
  M 434.64 107.69
  C 433.86 108.28 432.81 108.11 432.11 107.41
  Q 428.31 103.63 423.54 101.55
  Q 420.77 100.34 413.80 100.36
  Q 393.83 100.40 373.80 100.36"
/>
<path stroke="#014dc0" stroke-opacity="0.647" vector-effect="non-scaling-stroke" d="
  M 440.07 132.08
  L 439.73 132.45"
/>
<path stroke="#055adf" vector-effect="non-scaling-stroke" d="
  M 439.73 132.45
  L 415.19 135.87"
/>
<path stroke="#0185f9" vector-effect="non-scaling-stroke" d="
  M 415.19 135.87
  Q 415.54 134.59 415.28 133.29"
/>
<path stroke="#014dc0" stroke-opacity="0.647" vector-effect="non-scaling-stroke" d="
  M 417.07 128.42
  Q 416.58 124.48 413.66 122.58
  Q 411.76 121.35 407.62 121.33
  Q 401.22 121.31 394.90 121.36
  A 0.99 0.99 0.0 0 0 393.92 122.24
  L 393.44 126.53"
/>
<path stroke="#055adf" vector-effect="non-scaling-stroke" d="
  M 392.53 133.12
  Q 380.74 134.32 369.40 131.45"
/>
<path stroke="#047de3" vector-effect="non-scaling-stroke" d="
  M 392.16 137.52
  Q 391.65 137.95 392.02 138.59
  A 1.37 1.36 75.2 0 0 393.18 139.27
  Q 400.61 139.37 407.71 139.18
  Q 411.23 139.09 415.19 135.87"
/>
<path stroke="#06409e" stroke-opacity="0.647" vector-effect="non-scaling-stroke" d="
  M 439.73 132.45
  Q 438.59 141.30 431.11 145.75
  Q 430.70 145.99 431.03 146.34
  L 432.87 148.28"
/>
<path stroke="#0a4ec0" vector-effect="non-scaling-stroke" d="
  M 439.36 163.07
  Q 436.96 163.10 434.58 162.77
  C 430.02 162.15 425.31 162.58 420.98 162.13
  Q 418.82 161.91 412.30 160.28
  Q 403.34 158.04 394.38 158.99
  Q 392.82 159.15 386.50 160.81
  Q 379.71 162.58 371.42 162.11
  Q 367.06 161.87 365.68 158.26"
/>
<path stroke="#0d45aa" vector-effect="non-scaling-stroke" d="
  M 438.66 173.57
  Q 423.98 177.01 408.90 179.19
  Q 397.64 180.81 390.02 180.13
  Q 372.88 178.61 362.92 178.96"
/>
<path stroke="#0c327c" stroke-opacity="0.647" vector-effect="non-scaling-stroke" d="
  M 437.70 178.00
  Q 431.27 194.41 415.29 198.94
  Q 410.67 200.25 402.08 200.22
  Q 381.63 200.15 360.15 200.29"
/>
<path stroke="#0185f9" vector-effect="non-scaling-stroke" d="
  M 542.59 100.41
  L 517.29 100.34"
/>
<path stroke="#014dc0" stroke-opacity="0.647" vector-effect="non-scaling-stroke" d="
  M 597.64 100.99
  L 580.46 127.69"
/>
<path stroke="#055adf" vector-effect="non-scaling-stroke" d="
  M 580.46 127.69
  Q 569.19 130.07 562.10 130.32
  C 549.41 130.76 542.42 130.78 532.29 132.75"
/>
<path stroke="#0c327c" stroke-opacity="0.647" vector-effect="non-scaling-stroke" d="
  M 558.29 187.80
  L 560.51 170.71"
/>
<path stroke="#093a8f" stroke-opacity="0.647" vector-effect="non-scaling-stroke" d="
  M 560.51 170.71
  Q 561.37 164.38 562.20 158.04
  Q 562.50 155.76 563.76 153.81
  Q 566.04 150.31 568.26 146.70"
/>
<path stroke="#06409e" stroke-opacity="0.647" vector-effect="non-scaling-stroke" d="
  M 568.26 146.70
  L 580.46 127.69"
/>
<path stroke="#0185f9" vector-effect="non-scaling-stroke" d="
  M 597.81 100.31
  Q 596.32 100.06 594.63 100.18
  Q 592.03 100.37 591.47 100.37
  Q 583.29 100.36 575.09 100.39
  Q 574.82 100.39 573.68 100.58
  Q 572.20 100.83 572.84 98.89"
/>
<path stroke="#0a4ec0" vector-effect="non-scaling-stroke" d="
  M 568.26 146.70
  Q 553.12 149.48 539.26 146.73"
/>
<path stroke="#0d45aa" vector-effect="non-scaling-stroke" d="
  M 560.51 170.71
  L 536.69 172.22"
/>
<path stroke="#0c327c" stroke-opacity="0.647" vector-effect="non-scaling-stroke" d="
  M 557.95 191.72
  L 556.72 199.48
  Q 556.58 200.34 555.70 200.34
  L 533.02 200.29"
/>
<path stroke="#0185f9" vector-effect="non-scaling-stroke" d="
  M 93.17 101.51
  Q 90.16 102.17 87.08 101.54
  Q 82.21 100.54 82.16 100.54
  Q 64.79 98.60 49.93 102.28
  Q 43.94 103.77 38.17 105.96
  Q 20.13 112.81 10.16 128.86
  A 1.12 0.65 -52.6 0 1 8.78 129.43
  Q 8.53 129.10 8.44 128.50"
/>
<path stroke="#0185f9" vector-effect="non-scaling-stroke" d="
  M 145.44 100.28
  L 114.28 100.61"
/>
<path stroke="#0185f9" vector-effect="non-scaling-stroke" d="
  M 207.48 100.08
  L 182.58 100.27"
/>
<path stroke="#0185f9" vector-effect="non-scaling-stroke" d="
  M 263.52 100.32
  L 235.74 100.45"
/>
<path stroke="#0185f9" vector-effect="non-scaling-stroke" d="
  M 343.78 100.30
  L 284.48 100.49"
/>
<path stroke="#055adf" vector-effect="non-scaling-stroke" d="
  M 210.30 118.21
  Q 203.36 119.83 199.57 119.85
  Q 186.81 119.92 182.47 120.76
  Q 179.04 121.42 175.34 122.22"
/>
<path stroke="#014dc0" stroke-opacity="0.647" vector-effect="non-scaling-stroke" d="
  M 89.66 122.80
  Q 70.90 116.59 53.13 121.79"
/>
<path stroke="#055adf" vector-effect="non-scaling-stroke" d="
  M 53.13 121.79
  Q 47.88 122.21 43.03 124.12
  Q 38.79 125.79 37.33 126.16
  C 27.54 128.65 18.26 124.65 10.93 129.46
  Q 9.66 130.29 8.59 132.39
  Q 6.91 135.70 3.95 138.01"
/>
<path stroke="#055adf" vector-effect="non-scaling-stroke" d="
  M 148.43 124.69
  C 134.22 127.22 119.60 127.32 106.11 128.21
  Q 105.61 128.25 105.42 128.71
  C 104.08 131.97 102.44 137.25 99.60 137.50"
/>
<path stroke="#014dc0" stroke-opacity="0.647" vector-effect="non-scaling-stroke" d="
  M 343.34 103.04
  L 340.65 120.36
  A 1.12 1.11 4.5 0 1 339.55 121.29
  L 305.61 121.29
  Q 304.78 121.29 304.68 122.11
  L 303.46 131.66"
/>
<path stroke="#055adf" vector-effect="non-scaling-stroke" d="
  M 303.46 131.66
  Q 291.95 135.97 279.88 133.44"
/>
<path stroke="#055adf" vector-effect="non-scaling-stroke" d="
  M 264.39 114.64
  Q 254.91 117.47 243.04 116.58
  Q 240.66 116.40 231.47 118.50
  Q 230.98 118.61 230.78 119.07
  Q 230.12 120.62 226.08 129.79
  Q 225.77 130.50 224.57 131.65
  Q 224.23 131.98 224.27 131.51
  Q 224.34 130.72 224.16 130.01"
/>
<path stroke="#0083c6" stroke-opacity="0.647" vector-effect="non-scaling-stroke" d="
  M 306.32 137.50
  L 303.01 137.59"
/>
<path stroke="#06409e" stroke-opacity="0.647" vector-effect="non-scaling-stroke" d="
  M 303.01 137.59
  Q 302.52 134.84 303.46 131.66"
/>
<path stroke="#0c49b3" vector-effect="non-scaling-stroke" d="
  M 267.05 157.94
  Q 255.92 159.09 244.41 158.27"
/>
<path stroke="#06409e" stroke-opacity="0.647" vector-effect="non-scaling-stroke" d="
  M 244.41 158.27
  L 243.42 143.78
  Q 243.30 141.93 242.62 143.66
  L 239.48 151.70"
/>
<path stroke="#0a4ec0" vector-effect="non-scaling-stroke" d="
  M 239.48 151.70
  Q 216.54 156.23 193.12 154.41"
/>
<path stroke="#06409e" stroke-opacity="0.647" vector-effect="non-scaling-stroke" d="
  M 193.12 154.41
  L 191.75 146.99
  Q 191.46 145.41 190.95 146.94
  L 189.30 151.89"
/>
<path stroke="#0a4ec0" vector-effect="non-scaling-stroke" d="
  M 189.30 151.89
  Q 185.87 157.38 180.87 157.55
  Q 175.81 157.71 170.77 158.15
  Q 167.17 158.47 165.99 159.76
  Q 164.05 161.86 161.66 163.57"
/>
<path stroke="#06409e" stroke-opacity="0.647" vector-effect="non-scaling-stroke" d="
  M 24.16 148.03
  Q 25.54 143.33 27.67 140.16
  Q 36.73 126.70 53.13 121.79"
/>
<path stroke="#0a4ec0" vector-effect="non-scaling-stroke" d="
  M 23.19 152.45
  C 15.90 155.04 8.11 155.18 0.00 155.47"
/>
<path stroke="#0a4ec0" vector-effect="non-scaling-stroke" d="
  M 152.94 161.01
  Q 122.56 159.26 92.30 162.45
  Q 91.79 162.50 91.60 162.97
  L 88.62 170.32"
/>
<path stroke="#0c49b3" vector-effect="non-scaling-stroke" d="
  M 88.62 170.32
  Q 86.56 177.05 82.50 182.79
  Q 82.20 183.21 81.75 182.98
  Q 79.45 181.83 81.55 180.64"
/>
<path stroke="#055adf" vector-effect="non-scaling-stroke" d="
  M 118.47 150.22
  Q 117.79 150.82 118.17 151.52
  Q 118.41 151.97 118.92 152.03
  Q 124.32 152.72 129.16 151.62
  A 0.60 0.59 86.7 0 0 129.63 151.09
  Q 129.72 150.24 128.67 150.14"
/>
<path stroke="#06409e" stroke-opacity="0.647" vector-effect="non-scaling-stroke" d="
  M 128.36 145.96
  L 126.47 130.63
  Q 126.29 129.12 125.76 130.55
  L 118.47 150.22"
/>
<path stroke="#014dc0" stroke-opacity="0.647" vector-effect="non-scaling-stroke" d="
  M 120.88 150.23
  L 118.47 150.22"
/>
<path stroke="#047de3" vector-effect="non-scaling-stroke" d="
  M 303.01 137.59
  Q 301.22 138.79 304.31 139.26
  Q 305.08 139.37 306.22 139.37
  Q 318.35 139.33 330.48 139.32
  Q 331.07 139.32 332.07 138.53
  Q 332.51 138.19 332.09 137.82
  Q 331.86 137.62 331.51 137.48"
/>
<path stroke="#06409e" stroke-opacity="0.647" vector-effect="non-scaling-stroke" d="
  M 332.71 142.99
  L 331.50 151.46"
/>
<path stroke="#06409e" stroke-opacity="0.647" vector-effect="non-scaling-stroke" d="
  M 331.29 153.03
  L 330.46 159.01
  A 1.27 1.27 0.0 0 1 329.19 160.11
  L 299.70 160.05"
/>
<path stroke="#0a4ec0" vector-effect="non-scaling-stroke" d="
  M 299.70 160.05
  Q 296.29 161.52 291.96 161.96
  Q 283.90 162.78 275.84 162.65"
/>
<path stroke="#0c327c" stroke-opacity="0.647" vector-effect="non-scaling-stroke" d="
  M 244.41 158.27
  L 247.15 199.72
  Q 247.19 200.24 247.71 200.24
  L 268.26 200.24
  Q 269.46 200.24 269.42 199.04
  L 269.06 189.46"
/>
<path stroke="#0c327c" stroke-opacity="0.647" vector-effect="non-scaling-stroke" d="
  M 272.02 189.46
  L 270.84 199.50
  A 0.68 0.68 0.0 0 0 271.51 200.26
  L 328.98 200.26
  A 0.70 0.70 0.0 0 0 329.67 199.65
  Q 330.81 191.02 332.01 182.50
  Q 332.41 179.63 332.75 178.66
  Q 332.84 178.38 332.70 178.12
  L 332.55 177.84"
/>
<path stroke="#0c327c" stroke-opacity="0.647" vector-effect="non-scaling-stroke" d="
  M 1.75 171.66
  Q 6.42 184.60 17.73 192.50
  Q 29.18 200.51 42.04 201.64
  Q 59.35 203.17 75.37 196.06
  A 0.46 0.46 0.0 0 1 75.98 196.65
  L 74.88 199.54
  A 0.55 0.55 0.0 0 0 75.39 200.29
  L 97.96 200.29
  Q 98.52 200.29 98.71 199.77
  L 109.68 171.19
  A 1.38 1.36 -79.4 0 1 110.96 170.30
  L 130.45 170.30
  A 1.15 1.14 86.6 0 1 131.58 171.31
  L 135.06 199.95
  A 0.38 0.38 0.0 0 0 135.44 200.28
  L 173.06 200.28
  Q 173.76 200.28 173.97 199.62
  L 186.49 160.93"
/>
<path stroke="#093a8f" stroke-opacity="0.647" vector-effect="non-scaling-stroke" d="
  M 186.49 160.93
  L 189.30 151.89"
/>
<path stroke="#093a8f" stroke-opacity="0.647" vector-effect="non-scaling-stroke" d="
  M 193.12 154.41
  L 195.57 170.03"
/>
<path stroke="#0c327c" stroke-opacity="0.647" vector-effect="non-scaling-stroke" d="
  M 195.57 170.03
  L 200.37 199.80
  A 0.63 0.62 85.0 0 0 200.98 200.32
  L 220.21 200.32
  Q 220.71 200.32 220.89 199.86
  L 233.33 167.78"
/>
<path stroke="#093a8f" stroke-opacity="0.647" vector-effect="non-scaling-stroke" d="
  M 233.33 167.78
  L 239.48 151.70"
/>
<path stroke="#0851c9" vector-effect="non-scaling-stroke" d="
  M 66.04 150.14
  L 67.22 150.19"
/>
<path stroke="#0656d6" vector-effect="non-scaling-stroke" d="
  M 85.62 152.36
  L 44.83 152.47"
/>
<path stroke="#0d45aa" vector-effect="non-scaling-stroke" d="
  M 186.49 160.93
  Q 174.88 166.15 162.59 168.63
  Q 162.09 168.73 161.94 169.21
  Q 160.18 174.96 157.88 180.96
  Q 157.43 182.14 156.60 182.58
  Q 155.40 183.23 154.20 182.14
  Q 153.88 181.85 153.87 181.48
  Q 153.85 181.14 154.02 180.71
  Q 154.22 180.20 154.74 180.36
  L 155.26 180.51"
/>
<path stroke="#0d45aa" vector-effect="non-scaling-stroke" d="
  M 233.33 167.78
  Q 219.19 174.80 204.21 171.97
  Q 199.90 171.16 195.57 170.03"
/>
<path stroke="#0d45aa" vector-effect="non-scaling-stroke" d="
  M 82.46 176.23
  Q 69.93 176.66 57.74 179.51"
/>
<path stroke="#0656d6" vector-effect="non-scaling-stroke" d="
  M 57.74 179.51
  Q 60.58 177.97 58.74 177.39"
/>
<path stroke="#093a8f" stroke-opacity="0.647" vector-effect="non-scaling-stroke" d="
  M 59.59 174.51
  L 60.15 170.92
  A 0.53 0.52 -85.8 0 0 59.63 170.31
  L 43.56 170.48"
/>
<path stroke="#093a8f" stroke-opacity="0.647" vector-effect="non-scaling-stroke" d="
  M 42.59 170.03
  Q 42.40 170.10 42.21 170.17"
/>
<path stroke="#0656d6" vector-effect="non-scaling-stroke" d="
  M 26.52 169.65
  Q 26.01 170.34 25.79 171.22"
/>
<path stroke="#0d45aa" vector-effect="non-scaling-stroke" d="
  M 25.79 171.22
  L 22.25 166.16
  Q 21.97 165.76 21.49 165.71
  L 0.00 163.74"
/>
<path stroke="#093a8f" stroke-opacity="0.647" vector-effect="non-scaling-stroke" d="
  M 298.40 166.78
  Q 298.40 162.37 299.70 160.05"
/>
<path stroke="#0656d6" vector-effect="non-scaling-stroke" d="
  M 386.29 177.52
  Q 386.06 177.74 385.97 178.01
  Q 385.80 178.55 386.31 178.81
  Q 387.34 179.33 389.25 179.36
  Q 397.92 179.50 405.49 179.28
  Q 409.21 179.17 412.28 176.87
  A 0.86 0.85 67.7 0 0 412.61 176.07
  Q 412.54 175.57 411.97 175.42"
/>
<path stroke="#093a8f" stroke-opacity="0.647" vector-effect="non-scaling-stroke" d="
  M 414.89 171.82
  C 418.43 166.37 414.76 160.22 408.50 160.19
  Q 399.13 160.13 389.76 160.12
  A 1.15 1.15 0.0 0 0 388.62 161.11
  L 386.29 177.52"
/>
<path stroke="#014dc0" stroke-opacity="0.647" vector-effect="non-scaling-stroke" d="
  M 389.32 177.66
  L 386.29 177.52"
/>
<path stroke="#0d45aa" vector-effect="non-scaling-stroke" d="
  M 154.02 169.60
  C 131.05 168.58 110.98 168.34 88.62 170.32"
/>
<path stroke="#0d45aa" vector-effect="non-scaling-stroke" d="
  M 300.29 177.73
  Q 301.69 177.88 301.83 177.93
  Q 304.27 178.87 301.66 179.12
  Q 300.30 179.25 298.23 179.35
  C 297.48 179.39 297.00 179.02 296.53 178.51
  Q 296.20 178.14 295.71 178.12
  Q 284.73 177.68 273.57 178.98"
/>
<path stroke="#0851c9" vector-effect="non-scaling-stroke" d="
  M 25.79 171.22
  Q 28.39 174.45 30.57 175.93
  Q 37.18 180.42 45.99 180.98
  Q 50.62 181.28 57.74 179.51"
/>
<path stroke="#0c49b3" vector-effect="non-scaling-stroke" d="
  M 323.70 177.79
  L 317.37 178.08
  Q 316.95 178.10 316.80 178.49
  L 316.63 178.95
  Q 316.49 179.31 316.88 179.34
  Q 323.21 179.70 329.59 179.25
  Q 333.06 179.00 331.57 177.74"
/>
</g>
<path fill="#00a9fd" fill-opacity="0.996" d="
  M 525.64 123.30
  L 524.73 123.85
  Q 524.33 124.09 524.13 123.67
  Q 522.91 121.09 522.11 119.26
  Q 521.04 116.82 519.85 115.28
  Q 515.44 109.58 512.03 106.74
  Q 506.14 101.85 497.39 100.30
  Q 481.19 97.44 467.63 106.08
  Q 458.00 112.22 452.40 123.86
  Q 452.20 124.29 451.74 124.17
  L 450.36 123.81
  Q 458.13 107.72 473.35 100.86
  Q 484.06 96.04 496.52 98.37
  Q 518.28 102.44 525.64 123.30
  Z"
/>
<path fill="#00a9fd" fill-opacity="0.996" d="
  M 93.17 101.51
  Q 90.16 102.17 87.08 101.54
  Q 82.21 100.54 82.16 100.54
  Q 64.79 98.60 49.93 102.28
  Q 43.94 103.77 38.17 105.96
  Q 20.13 112.81 10.16 128.86
  A 1.12 0.65 -52.6 0 1 8.78 129.43
  Q 8.53 129.10 8.44 128.50
  Q 14.74 117.92 25.03 111.05
  Q 37.40 102.79 52.05 99.82
  Q 63.35 97.53 77.25 98.18
  Q 86.68 98.62 93.17 101.51
  Z"
/>
<path fill="#00a9fd" fill-opacity="0.996" d="
  M 145.44 100.28
  L 114.28 100.61
  Q 114.55 99.74 115.13 99.00
  Q 115.45 98.59 115.97 98.59
  L 144.56 98.59
  A 0.66 0.64 83.9 0 1 145.19 99.11
  L 145.44 100.28
  Z"
/>
<path fill="#00a9fd" fill-opacity="0.996" d="
  M 207.48 100.08
  L 182.58 100.27
  Q 182.61 99.49 182.83 99.06
  Q 183.05 98.63 183.81 98.63
  Q 195.27 98.63 206.72 98.62
  Q 207.09 98.62 207.48 100.08
  Z"
/>
<path fill="#00a9fd" fill-opacity="0.996" d="
  M 263.52 100.32
  L 235.74 100.45
  Q 235.81 98.41 237.87 98.56
  Q 239.02 98.65 239.13 98.65
  Q 250.94 98.60 262.75 98.53
  Q 264.18 98.52 263.52 100.32
  Z"
/>
<path fill="#00a9fd" fill-opacity="0.996" d="
  M 343.78 100.30
  L 284.48 100.49
  Q 284.29 99.67 284.81 99.02
  Q 285.16 98.58 285.72 98.58
  L 343.36 98.58
  Q 343.85 98.58 343.94 99.06
  Q 344.04 99.61 343.78 100.30
  Z"
/>
<path fill="#00a9fd" fill-opacity="0.996" d="
  M 434.64 107.69
  C 433.86 108.28 432.81 108.11 432.11 107.41
  Q 428.31 103.63 423.54 101.55
  Q 420.77 100.34 413.80 100.36
  Q 393.83 100.40 373.80 100.36
  Q 373.89 98.56 374.73 98.57
  Q 394.49 98.58 414.24 98.59
  Q 420.27 98.60 423.71 99.90
  Q 430.00 102.28 434.64 107.69
  Z"
/>
<path fill="#00a9fd" fill-opacity="0.996" d="
  M 542.59 100.41
  L 517.29 100.34
  Q 516.77 99.72 516.59 98.92
  A 0.33 0.33 0.0 0 1 516.92 98.51
  Q 529.13 98.70 540.81 98.60
  Q 541.68 98.60 542.01 99.07
  Q 542.33 99.55 542.59 100.41
  Z"
/>
<path fill="#00a9fd" fill-opacity="0.996" d="
  M 597.81 100.31
  Q 596.32 100.06 594.63 100.18
  Q 592.03 100.37 591.47 100.37
  Q 583.29 100.36 575.09 100.39
  Q 574.82 100.39 573.68 100.58
  Q 572.20 100.83 572.84 98.89
  L 598.40 98.59
  Q 598.94 98.58 598.85 99.12
  Q 598.72 99.95 597.81 100.31
  Z"
/>
<path fill="#0162f5" d="
  M 210.30 118.21
  Q 203.36 119.83 199.57 119.85
  Q 186.81 119.92 182.47 120.76
  Q 179.04 121.42 175.34 122.22
  L 182.58 100.27
  L 207.48 100.08
  L 210.30 118.21
  Z"
/>
<path fill="#0162f5" d="
  M 525.64 123.30
  L 527.13 128.86
  Q 517.19 127.26 507.28 126.56
  Q 505.31 126.41 501.53 125.45
  Q 493.66 116.62 483.06 120.30
  Q 478.54 121.87 474.51 126.63
  Q 466.15 127.43 457.62 127.25
  Q 455.30 127.21 447.59 129.91
  L 450.36 123.81
  L 451.74 124.17
  Q 452.20 124.29 452.40 123.86
  Q 458.00 112.22 467.63 106.08
  Q 481.19 97.44 497.39 100.30
  Q 506.14 101.85 512.03 106.74
  Q 515.44 109.58 519.85 115.28
  Q 521.04 116.82 522.11 119.26
  Q 522.91 121.09 524.13 123.67
  Q 524.33 124.09 524.73 123.85
  L 525.64 123.30
  Z"
/>
<path fill="#0162f5" d="
  M 572.84 98.89
  Q 572.20 100.83 573.68 100.58
  Q 574.82 100.39 575.09 100.39
  Q 583.29 100.36 591.47 100.37
  Q 592.03 100.37 594.63 100.18
  Q 596.32 100.06 597.81 100.31
  L 597.64 100.99
  L 580.46 127.69
  Q 569.19 130.07 562.10 130.32
  C 549.41 130.76 542.42 130.78 532.29 132.75
  L 517.29 100.34
  L 542.59 100.41
  L 553.89 126.51
  A 0.60 0.60 0.0 0 0 554.94 126.60
  L 572.84 98.89
  Z"
/>
<path fill="#0162f5" d="
  M 93.17 101.51
  L 89.66 122.80
  Q 70.90 116.59 53.13 121.79
  Q 47.88 122.21 43.03 124.12
  Q 38.79 125.79 37.33 126.16
  C 27.54 128.65 18.26 124.65 10.93 129.46
  Q 9.66 130.29 8.59 132.39
  Q 6.91 135.70 3.95 138.01
  L 8.44 128.50
  Q 8.53 129.10 8.78 129.43
  A 1.12 0.65 -52.6 0 0 10.16 128.86
  Q 20.13 112.81 38.17 105.96
  Q 43.94 103.77 49.93 102.28
  Q 64.79 98.60 82.16 100.54
  Q 82.21 100.54 87.08 101.54
  Q 90.16 102.17 93.17 101.51
  Z"
/>
<path fill="#0162f5" d="
  M 145.44 100.28
  L 148.43 124.69
  C 134.22 127.22 119.60 127.32 106.11 128.21
  Q 105.61 128.25 105.42 128.71
  C 104.08 131.97 102.44 137.25 99.60 137.50
  L 114.28 100.61
  L 145.44 100.28
  Z"
/>
<path fill="#0162f5" d="
  M 343.78 100.30
  L 343.34 103.04
  L 340.65 120.36
  A 1.12 1.11 4.5 0 1 339.55 121.29
  L 305.61 121.29
  Q 304.78 121.29 304.68 122.11
  L 303.46 131.66
  Q 291.95 135.97 279.88 133.44
  L 284.48 100.49
  L 343.78 100.30
  Z"
/>
<path fill="#0162f5" d="
  M 263.52 100.32
  L 264.39 114.64
  Q 254.91 117.47 243.04 116.58
  Q 240.66 116.40 231.47 118.50
  Q 230.98 118.61 230.78 119.07
  Q 230.12 120.62 226.08 129.79
  Q 225.77 130.50 224.57 131.65
  Q 224.23 131.98 224.27 131.51
  Q 224.34 130.72 224.16 130.01
  L 235.74 100.45
  L 263.52 100.32
  Z"
/>
<path fill="#0162f5" d="
  M 434.64 107.69
  Q 440.03 113.65 440.92 121.63
  Q 441.16 123.80 440.78 126.85
  Q 440.46 129.44 440.07 132.08
  L 439.73 132.45
  L 415.19 135.87
  Q 415.54 134.59 415.28 133.29
  Q 416.60 131.19 417.07 128.42
  Q 416.58 124.48 413.66 122.58
  Q 411.76 121.35 407.62 121.33
  Q 401.22 121.31 394.90 121.36
  A 0.99 0.99 0.0 0 0 393.92 122.24
  L 393.44 126.53
  L 392.53 133.12
  Q 380.74 134.32 369.40 131.45
  L 373.80 100.36
  Q 393.83 100.40 413.80 100.36
  Q 420.77 100.34 423.54 101.55
  Q 428.31 103.63 432.11 107.41
  C 432.81 108.11 433.86 108.28 434.64 107.69
  Z"
/>
<path fill="#01040a" fill-opacity="0.294" d="
  M 597.64 100.99
  Q 595.85 107.33 593.58 111.06
  Q 581.68 130.63 567.77 151.80
  Q 563.62 158.11 562.39 165.57
  Q 562.13 167.12 559.73 183.56
  Q 559.55 184.79 558.29 187.80
  L 560.51 170.71
  Q 561.37 164.38 562.20 158.04
  Q 562.50 155.76 563.76 153.81
  Q 566.04 150.31 568.26 146.70
  L 580.46 127.69
  L 597.64 100.99
  Z"
/>
<path fill="#01040a" fill-opacity="0.294" d="
  M 306.32 137.50
  L 303.01 137.59
  Q 302.52 134.84 303.46 131.66
  L 304.68 122.11
  Q 304.78 121.29 305.61 121.29
  L 339.55 121.29
  A 1.12 1.11 4.5 0 0 340.65 120.36
  L 343.34 103.04
  Q 343.96 110.23 342.61 117.29
  Q 341.72 121.95 337.58 123.81
  Q 335.05 124.95 330.44 124.94
  Q 328.66 124.94 316.32 125.07
  C 311.53 125.12 305.97 126.06 305.39 131.93
  Q 305.13 134.55 306.32 137.50
  Z"
/>
<path fill="#0851c9" d="
  M 264.39 114.64
  L 267.05 157.94
  Q 255.92 159.09 244.41 158.27
  L 243.42 143.78
  Q 243.30 141.93 242.62 143.66
  L 239.48 151.70
  Q 216.54 156.23 193.12 154.41
  L 191.75 146.99
  Q 191.46 145.41 190.95 146.94
  L 189.30 151.89
  Q 185.87 157.38 180.87 157.55
  Q 175.81 157.71 170.77 158.15
  Q 167.17 158.47 165.99 159.76
  Q 164.05 161.86 161.66 163.57
  L 175.34 122.22
  Q 179.04 121.42 182.47 120.76
  Q 186.81 119.92 199.57 119.85
  Q 203.36 119.83 210.30 118.21
  L 215.25 150.85
  Q 215.48 152.37 216.04 150.93
  L 224.16 130.01
  Q 224.34 130.72 224.27 131.51
  Q 224.23 131.98 224.57 131.65
  Q 225.77 130.50 226.08 129.79
  Q 230.12 120.62 230.78 119.07
  Q 230.98 118.61 231.47 118.50
  Q 240.66 116.40 243.04 116.58
  Q 254.91 117.47 264.39 114.64
  Z"
/>
<path fill="#01040a" fill-opacity="0.294" d="
  M 89.66 122.80
  Q 85.02 123.97 82.94 123.73
  Q 77.00 123.04 73.73 122.79
  Q 60.49 121.74 48.25 126.75
  Q 37.83 131.02 30.36 140.33
  Q 27.31 144.13 24.16 148.03
  Q 25.54 143.33 27.67 140.16
  Q 36.73 126.70 53.13 121.79
  Q 70.90 116.59 89.66 122.80
  Z"
/>
<path fill="#01040a" fill-opacity="0.294" d="
  M 501.53 125.45
  Q 505.78 131.51 506.14 139.24
  Q 504.14 133.75 502.70 131.54
  Q 496.50 122.00 485.97 123.60
  C 480.86 124.37 476.40 128.58 473.36 132.42
  Q 471.90 134.27 469.77 138.54
  Q 468.18 141.74 466.36 144.81
  L 466.50 143.77
  Q 468.72 134.17 474.51 126.63
  Q 478.54 121.87 483.06 120.30
  Q 493.66 116.62 501.53 125.45
  Z"
/>
<path fill="#01040a" fill-opacity="0.294" d="
  M 417.07 128.42
  Q 406.04 121.70 393.44 126.53
  L 393.92 122.24
  A 0.99 0.99 0.0 0 1 394.90 121.36
  Q 401.22 121.31 407.62 121.33
  Q 411.76 121.35 413.66 122.58
  Q 416.58 124.48 417.07 128.42
  Z"
/>
<path fill="#0851c9" d="
  M 53.13 121.79
  Q 36.73 126.70 27.67 140.16
  Q 25.54 143.33 24.16 148.03
  L 23.19 152.45
  C 15.90 155.04 8.11 155.18 0.00 155.47
  L 0.00 154.31
  Q 1.22 145.76 3.95 138.01
  Q 6.91 135.70 8.59 132.39
  Q 9.66 130.29 10.93 129.46
  C 18.26 124.65 27.54 128.65 37.33 126.16
  Q 38.79 125.79 43.03 124.12
  Q 47.88 122.21 53.13 121.79
  Z"
/>
<path fill="#0851c9" d="
  M 527.13 128.86
  Q 529.29 138.87 528.22 148.99
  Q 516.74 153.38 504.64 155.94
  Q 506.66 147.70 506.14 139.24
  Q 505.78 131.51 501.53 125.45
  Q 505.31 126.41 507.28 126.56
  Q 517.19 127.26 527.13 128.86
  Z"
/>
<path fill="#0851c9" d="
  M 152.94 161.01
  Q 122.56 159.26 92.30 162.45
  Q 91.79 162.50 91.60 162.97
  L 88.62 170.32
  Q 86.56 177.05 82.50 182.79
  Q 82.20 183.21 81.75 182.98
  Q 79.45 181.83 81.55 180.64
  Q 81.71 181.12 81.85 181.30
  Q 82.03 181.53 82.21 181.08
  Q 91.08 159.34 99.60 137.50
  C 102.44 137.25 104.08 131.97 105.42 128.71
  Q 105.61 128.25 106.11 128.21
  C 119.60 127.32 134.22 127.22 148.43 124.69
  L 152.94 161.01
  Z
  M 118.47 150.22
  Q 117.79 150.82 118.17 151.52
  Q 118.41 151.97 118.92 152.03
  Q 124.32 152.72 129.16 151.62
  A 0.60 0.59 86.7 0 0 129.63 151.09
  Q 129.72 150.24 128.67 150.14
  L 128.36 145.96
  L 126.47 130.63
  Q 126.29 129.12 125.76 130.55
  L 118.47 150.22
  Z"
/>
<path fill="#0851c9" d="
  M 474.51 126.63
  Q 468.72 134.17 466.50 143.77
  Q 454.76 146.77 442.78 148.02
  Q 444.18 138.51 447.59 129.91
  Q 455.30 127.21 457.62 127.25
  Q 466.15 127.43 474.51 126.63
  Z"
/>
<path fill="#0851c9" d="
  M 580.46 127.69
  L 568.26 146.70
  Q 553.12 149.48 539.26 146.73
  Q 534.94 139.92 532.29 132.75
  C 542.42 130.78 549.41 130.76 562.10 130.32
  Q 569.19 130.07 580.46 127.69
  Z"
/>
<path fill="#01040a" fill-opacity="0.294" d="
  M 128.36 145.96
  L 126.51 140.87
  Q 126.34 140.40 125.96 140.72
  Q 121.61 144.37 120.88 150.23
  L 118.47 150.22
  L 125.76 130.55
  Q 126.29 129.12 126.47 130.63
  L 128.36 145.96
  Z"
/>
<path fill="#0851c9" d="
  M 369.40 131.45
  Q 380.74 134.32 392.53 133.12
  L 392.16 137.52
  Q 391.65 137.95 392.02 138.59
  A 1.37 1.36 75.2 0 0 393.18 139.27
  Q 400.61 139.37 407.71 139.18
  Q 411.23 139.09 415.19 135.87
  L 439.73 132.45
  Q 438.59 141.30 431.11 145.75
  Q 430.70 145.99 431.03 146.34
  L 432.87 148.28
  Q 438.48 154.57 439.36 163.07
  Q 436.96 163.10 434.58 162.77
  C 430.02 162.15 425.31 162.58 420.98 162.13
  Q 418.82 161.91 412.30 160.28
  Q 403.34 158.04 394.38 158.99
  Q 392.82 159.15 386.50 160.81
  Q 379.71 162.58 371.42 162.11
  Q 367.06 161.87 365.68 158.26
  L 369.40 131.45
  Z"
/>
<path fill="#0851c9" d="
  M 303.46 131.66
  Q 302.52 134.84 303.01 137.59
  Q 301.22 138.79 304.31 139.26
  Q 305.08 139.37 306.22 139.37
  Q 318.35 139.33 330.48 139.32
  Q 331.07 139.32 332.07 138.53
  Q 332.51 138.19 332.09 137.82
  Q 331.86 137.62 331.51 137.48
  Q 332.19 137.33 332.64 137.45
  Q 333.15 137.58 333.11 138.10
  L 332.71 142.99
  L 331.50 151.46
  Q 331.26 152.24 331.29 153.03
  L 330.46 159.01
  A 1.27 1.27 0.0 0 1 329.19 160.11
  L 299.70 160.05
  Q 296.29 161.52 291.96 161.96
  Q 283.90 162.78 275.84 162.65
  L 279.88 133.44
  Q 291.95 135.97 303.46 131.66
  Z"
/>
<path fill="#01040a" fill-opacity="0.294" d="
  M 432.87 148.28
  L 431.03 146.34
  Q 430.70 145.99 431.11 145.75
  Q 438.59 141.30 439.73 132.45
  L 440.07 132.08
  Q 439.66 141.19 432.87 148.28
  Z"
/>
<path fill="#00a9fd" fill-opacity="0.996" d="
  M 415.19 135.87
  Q 411.23 139.09 407.71 139.18
  Q 400.61 139.37 393.18 139.27
  A 1.37 1.36 75.2 0 1 392.02 138.59
  Q 391.65 137.95 392.16 137.52
  Q 399.52 137.42 406.75 137.46
  Q 411.70 137.49 415.28 133.29
  Q 415.54 134.59 415.19 135.87
  Z"
/>
<path fill="#00a9fd" fill-opacity="0.996" d="
  M 306.32 137.50
  L 331.51 137.48
  Q 331.86 137.62 332.09 137.82
  Q 332.51 138.19 332.07 138.53
  Q 331.07 139.32 330.48 139.32
  Q 318.35 139.33 306.22 139.37
  Q 305.08 139.37 304.31 139.26
  Q 301.22 138.79 303.01 137.59
  L 306.32 137.50
  Z"
/>
<rect fill="#01040a" fill-opacity="0.294" x="-0.33" y="-4.84" transform="translate(536.63,146.25) rotate(-22.3)" width="0.66" height="9.68" rx="0.31"/>
<path fill="#01040a" fill-opacity="0.294" d="
  M 244.41 158.27
  L 247.15 199.72
  Q 247.19 200.24 247.71 200.24
  L 268.26 200.24
  Q 269.46 200.24 269.42 199.04
  L 269.06 189.46
  L 272.02 189.46
  L 270.84 199.50
  A 0.68 0.68 0.0 0 0 271.51 200.26
  L 328.98 200.26
  A 0.70 0.70 0.0 0 0 329.67 199.65
  Q 330.81 191.02 332.01 182.50
  Q 332.41 179.63 332.75 178.66
  Q 332.84 178.38 332.70 178.12
  L 332.55 177.84
  L 332.81 177.80
  Q 332.93 177.78 332.93 177.91
  Q 332.74 189.51 330.09 200.50
  Q 329.97 200.98 329.54 201.22
  Q 325.06 203.74 318.94 203.78
  Q 282.30 204.01 274.08 203.67
  C 268.29 203.43 263.32 203.71 256.82 203.81
  Q 253.05 203.86 246.50 201.45
  Q 246.08 201.29 246.02 200.84
  Q 244.87 192.35 243.62 169.52
  Q 243.30 163.68 242.16 158.37
  Q 241.53 155.41 240.02 158.03
  Q 238.14 161.27 236.10 166.10
  Q 233.69 171.79 225.31 193.84
  C 223.30 199.13 221.15 203.07 214.72 203.64
  C 210.05 204.05 202.67 204.31 200.05 200.35
  Q 198.73 198.33 198.13 194.24
  Q 196.88 185.60 194.36 170.21
  Q 193.49 164.88 191.90 158.58
  Q 191.26 156.06 189.98 158.32
  Q 187.81 162.17 186.86 165.16
  Q 181.24 182.97 176.43 196.63
  C 174.45 202.24 170.14 203.78 164.41 203.85
  Q 155.59 203.96 151.65 203.91
  Q 143.49 203.81 142.92 203.74
  Q 138.43 203.22 134.94 201.26
  Q 134.50 201.01 134.40 200.53
  Q 133.75 197.64 131.96 183.57
  Q 131.41 179.22 128.90 174.85
  Q 128.64 174.41 128.14 174.36
  Q 119.72 173.62 112.01 174.71
  A 1.83 1.82 10.5 0 0 110.68 175.62
  C 107.52 181.28 105.72 186.58 101.80 196.80
  Q 99.29 203.35 92.22 204.03
  Q 85.01 204.72 81.07 204.06
  Q 74.03 202.87 71.27 202.94
  Q 68.15 203.01 59.81 204.68
  C 40.33 208.59 19.15 202.40 6.85 186.14
  Q 1.95 179.67 1.75 171.66
  Q 6.42 184.60 17.73 192.50
  Q 29.18 200.51 42.04 201.64
  Q 59.35 203.17 75.37 196.06
  A 0.46 0.46 0.0 0 1 75.98 196.65
  L 74.88 199.54
  A 0.55 0.55 0.0 0 0 75.39 200.29
  L 97.96 200.29
  Q 98.52 200.29 98.71 199.77
  L 109.68 171.19
  A 1.38 1.36 -79.4 0 1 110.96 170.30
  L 130.45 170.30
  A 1.15 1.14 86.6 0 1 131.58 171.31
  L 135.06 199.95
  A 0.38 0.38 0.0 0 0 135.44 200.28
  L 173.06 200.28
  Q 173.76 200.28 173.97 199.62
  L 186.49 160.93
  L 189.30 151.89
  L 190.95 146.94
  Q 191.46 145.41 191.75 146.99
  L 193.12 154.41
  L 195.57 170.03
  L 200.37 199.80
  A 0.63 0.62 85.0 0 0 200.98 200.32
  L 220.21 200.32
  Q 220.71 200.32 220.89 199.86
  L 233.33 167.78
  L 239.48 151.70
  L 242.62 143.66
  Q 243.30 141.93 243.42 143.78
  L 244.41 158.27
  Z"
/>
<path fill="#01040a" fill-opacity="0.294" d="
  M 331.50 151.46
  L 332.71 142.99
  L 331.50 151.46
  Z"
/>
<path fill="#0b4ab6" d="
  M 466.50 143.77
  L 466.36 144.81
  Q 464.08 154.13 465.00 163.00
  Q 465.45 167.44 467.96 171.71
  Q 467.37 171.85 467.21 172.01
  A 1.09 1.02 48.6 0 0 467.17 173.33
  Q 469.43 176.43 472.64 178.25
  Q 475.54 179.90 479.44 180.35
  Q 490.65 181.65 498.09 172.43
  Q 498.45 171.99 497.95 171.72
  Q 497.69 171.58 497.23 171.60
  Q 502.72 164.83 504.64 155.94
  Q 516.74 153.38 528.22 148.99
  Q 527.56 160.34 523.34 170.65
  Q 515.61 175.21 506.63 177.10
  Q 494.80 179.59 483.47 180.65
  Q 477.02 181.25 470.43 180.42
  Q 457.21 178.76 444.14 175.49
  Q 439.81 162.08 442.78 148.02
  Q 454.76 146.77 466.50 143.77
  Z"
/>
<path fill="#0b4ab6" d="
  M 568.26 146.70
  Q 566.04 150.31 563.76 153.81
  Q 562.50 155.76 562.20 158.04
  Q 561.37 164.38 560.51 170.71
  L 536.69 172.22
  Q 539.50 158.99 539.26 146.73
  Q 553.12 149.48 568.26 146.70
  Z"
/>
<path fill="#0162f5" d="
  M 66.04 150.14
  L 67.22 150.19
  L 85.14 150.28
  Q 85.68 150.29 85.77 150.82
  Q 85.87 151.37 85.62 152.36
  L 44.83 152.47
  Q 44.82 151.27 45.29 150.64
  Q 45.61 150.23 46.12 150.23
  L 66.04 150.14
  Z"
/>
<path fill="#0f409d" d="
  M 67.22 150.19
  L 66.04 150.14
  Q 66.66 150.07 67.22 150.19
  Z"
/>
<path fill="#0162f5" d="
  M 128.67 150.14
  Q 129.72 150.24 129.63 151.09
  A 0.60 0.59 86.7 0 1 129.16 151.62
  Q 124.32 152.72 118.92 152.03
  Q 118.41 151.97 118.17 151.52
  Q 117.79 150.82 118.47 150.22
  L 120.88 150.23
  L 128.67 150.14
  Z"
/>
<path fill="#0b4ab6" d="
  M 189.30 151.89
  L 186.49 160.93
  Q 174.88 166.15 162.59 168.63
  Q 162.09 168.73 161.94 169.21
  Q 160.18 174.96 157.88 180.96
  Q 157.43 182.14 156.60 182.58
  Q 155.40 183.23 154.20 182.14
  Q 153.88 181.85 153.87 181.48
  Q 153.85 181.14 154.02 180.71
  Q 154.22 180.20 154.74 180.36
  L 155.26 180.51
  Q 155.23 180.88 155.39 180.97
  A 0.55 0.54 -65.2 0 0 156.19 180.66
  L 161.66 163.57
  Q 164.05 161.86 165.99 159.76
  Q 167.17 158.47 170.77 158.15
  Q 175.81 157.71 180.87 157.55
  Q 185.87 157.38 189.30 151.89
  Z"
/>
<path fill="#0b4ab6" d="
  M 239.48 151.70
  L 233.33 167.78
  Q 219.19 174.80 204.21 171.97
  Q 199.90 171.16 195.57 170.03
  L 193.12 154.41
  Q 216.54 156.23 239.48 151.70
  Z"
/>
<path fill="#0b4ab6" d="
  M 85.62 152.36
  L 82.46 176.23
  Q 69.93 176.66 57.74 179.51
  Q 60.58 177.97 58.74 177.39
  L 59.59 174.51
  L 60.15 170.92
  A 0.53 0.52 -85.8 0 0 59.63 170.31
  L 43.56 170.48
  Q 43.36 170.17 42.59 170.03
  Q 42.40 170.10 42.21 170.17
  L 44.83 152.47
  L 85.62 152.36
  Z"
/>
<path fill="#0b4ab6" d="
  M 23.19 152.45
  Q 21.75 161.63 26.52 169.65
  Q 26.01 170.34 25.79 171.22
  L 22.25 166.16
  Q 21.97 165.76 21.49 165.71
  L 0.00 163.74
  L 0.00 155.47
  C 8.11 155.18 15.90 155.04 23.19 152.45
  Z"
/>
<path fill="#01040a" fill-opacity="0.294" d="
  M 298.40 166.78
  Q 298.40 162.37 299.70 160.05
  L 329.19 160.11
  A 1.27 1.27 0.0 0 0 330.46 159.01
  L 331.29 153.03
  L 331.17 158.60
  A 2.15 2.14 75.9 0 1 330.09 160.41
  Q 325.58 162.96 320.41 163.04
  Q 308.03 163.21 306.27 163.33
  Q 301.74 163.63 298.40 166.78
  Z"
/>
<path fill="#0f409d" d="
  M 267.05 157.94
  L 269.06 189.46
  L 269.42 199.04
  Q 269.46 200.24 268.26 200.24
  L 247.71 200.24
  Q 247.19 200.24 247.15 199.72
  L 244.41 158.27
  Q 255.92 159.09 267.05 157.94
  Z"
/>
<path fill="#0b4ab6" d="
  M 365.68 158.26
  Q 367.06 161.87 371.42 162.11
  Q 379.71 162.58 386.50 160.81
  Q 392.82 159.15 394.38 158.99
  Q 403.34 158.04 412.30 160.28
  Q 418.82 161.91 420.98 162.13
  C 425.31 162.58 430.02 162.15 434.58 162.77
  Q 436.96 163.10 439.36 163.07
  Q 439.98 167.98 438.66 173.57
  Q 423.98 177.01 408.90 179.19
  Q 397.64 180.81 390.02 180.13
  Q 372.88 178.61 362.92 178.96
  L 365.68 158.26
  Z
  M 386.29 177.52
  Q 386.06 177.74 385.97 178.01
  Q 385.80 178.55 386.31 178.81
  Q 387.34 179.33 389.25 179.36
  Q 397.92 179.50 405.49 179.28
  Q 409.21 179.17 412.28 176.87
  A 0.86 0.85 67.7 0 0 412.61 176.07
  Q 412.54 175.57 411.97 175.42
  Q 414.05 173.78 414.89 171.82
  C 418.43 166.37 414.76 160.22 408.50 160.19
  Q 399.13 160.13 389.76 160.12
  A 1.15 1.15 0.0 0 0 388.62 161.11
  L 386.29 177.52
  Z"
/>
<path fill="#0b4ab6" d="
  M 152.94 161.01
  L 154.02 169.60
  C 131.05 168.58 110.98 168.34 88.62 170.32
  L 91.60 162.97
  Q 91.79 162.50 92.30 162.45
  Q 122.56 159.26 152.94 161.01
  Z"
/>
<path fill="#0b4ab6" d="
  M 299.70 160.05
  Q 298.40 162.37 298.40 166.78
  L 297.01 176.89
  A 0.65 0.64 -85.1 0 0 297.62 177.62
  L 300.29 177.73
  Q 301.69 177.88 301.83 177.93
  Q 304.27 178.87 301.66 179.12
  Q 300.30 179.25 298.23 179.35
  C 297.48 179.39 297.00 179.02 296.53 178.51
  Q 296.20 178.14 295.71 178.12
  Q 284.73 177.68 273.57 178.98
  L 275.84 162.65
  Q 283.90 162.78 291.96 161.96
  Q 296.29 161.52 299.70 160.05
  Z"
/>
<path fill="#01040a" fill-opacity="0.294" d="
  M 414.89 171.82
  Q 413.63 166.08 409.10 164.82
  Q 402.78 163.06 394.61 164.73
  Q 389.17 165.83 388.67 171.32
  Q 388.38 174.51 389.32 177.66
  L 386.29 177.52
  L 388.62 161.11
  A 1.15 1.15 0.0 0 1 389.76 160.12
  Q 399.13 160.13 408.50 160.19
  C 414.76 160.22 418.43 166.37 414.89 171.82
  Z"
/>
<path fill="#0f409d" d="
  M 186.49 160.93
  L 173.97 199.62
  Q 173.76 200.28 173.06 200.28
  L 135.44 200.28
  A 0.38 0.38 0.0 0 1 135.06 199.95
  L 131.58 171.31
  A 1.15 1.14 86.6 0 0 130.45 170.30
  L 110.96 170.30
  A 1.38 1.36 -79.4 0 0 109.68 171.19
  L 98.71 199.77
  Q 98.52 200.29 97.96 200.29
  L 75.39 200.29
  A 0.55 0.55 0.0 0 1 74.88 199.54
  L 75.98 196.65
  A 0.46 0.46 0.0 0 0 75.37 196.06
  Q 59.35 203.17 42.04 201.64
  Q 29.18 200.51 17.73 192.50
  Q 6.42 184.60 1.75 171.66
  L 0.00 164.48
  L 0.00 163.74
  L 21.49 165.71
  Q 21.97 165.76 22.25 166.16
  L 25.79 171.22
  Q 28.39 174.45 30.57 175.93
  Q 37.18 180.42 45.99 180.98
  Q 50.62 181.28 57.74 179.51
  Q 69.93 176.66 82.46 176.23
  Q 82.41 178.54 81.55 180.64
  Q 79.45 181.83 81.75 182.98
  Q 82.20 183.21 82.50 182.79
  Q 86.56 177.05 88.62 170.32
  C 110.98 168.34 131.05 168.58 154.02 169.60
  L 155.26 180.51
  L 154.74 180.36
  Q 154.22 180.20 154.02 180.71
  Q 153.85 181.14 153.87 181.48
  Q 153.88 181.85 154.20 182.14
  Q 155.40 183.23 156.60 182.58
  Q 157.43 182.14 157.88 180.96
  Q 160.18 174.96 161.94 169.21
  Q 162.09 168.73 162.59 168.63
  Q 174.88 166.15 186.49 160.93
  Z"
/>
<path fill="#0f409d" d="
  M 233.33 167.78
  L 220.89 199.86
  Q 220.71 200.32 220.21 200.32
  L 200.98 200.32
  A 0.63 0.62 85.0 0 1 200.37 199.80
  L 195.57 170.03
  Q 199.90 171.16 204.21 171.97
  Q 219.19 174.80 233.33 167.78
  Z"
/>
<path fill="#0162f5" d="
  M 26.52 169.65
  Q 33.60 178.64 45.25 179.25
  Q 52.06 179.61 58.74 177.39
  Q 60.58 177.97 57.74 179.51
  Q 50.62 181.28 45.99 180.98
  Q 37.18 180.42 30.57 175.93
  Q 28.39 174.45 25.79 171.22
  Q 26.01 170.34 26.52 169.65
  Z"
/>
<path fill="#01040a" fill-opacity="0.294" d="
  M 42.21 170.17
  Q 42.40 170.10 42.59 170.03
  Q 47.39 173.07 53.39 173.44
  Q 55.27 173.55 58.63 176.13
  A 0.21 0.18 39.2 0 1 58.68 176.42
  L 58.68 176.43
  Q 58.54 176.58 58.39 176.49
  Q 56.22 175.23 54.59 174.88
  Q 52.03 174.33 47.38 173.32
  Q 42.91 172.36 42.21 170.17
  Z"
/>
<path fill="#0f409d" d="
  M 560.51 170.71
  L 558.29 187.80
  L 557.95 191.72
  L 556.72 199.48
  Q 556.58 200.34 555.70 200.34
  L 533.02 200.29
  L 536.69 172.22
  L 560.51 170.71
  Z"
/>
<path fill="#01040a" fill-opacity="0.294" d="
  M 59.59 174.51
  L 43.56 170.48
  L 59.63 170.31
  A 0.53 0.52 -85.8 0 1 60.15 170.92
  L 59.59 174.51
  Z"
/>
<path fill="#0f409d" d="
  M 523.34 170.65
  Q 519.36 180.70 511.74 188.00
  Q 502.78 196.55 490.73 199.47
  Q 481.06 201.81 471.08 199.38
  Q 454.10 195.23 446.03 180.29
  L 444.14 175.49
  Q 457.21 178.76 470.43 180.42
  Q 477.02 181.25 483.47 180.65
  Q 494.80 179.59 506.63 177.10
  Q 515.61 175.21 523.34 170.65
  Z"
/>
<path fill="#0851c9" d="
  M 467.96 171.71
  C 475.32 182.55 489.22 180.42 497.23 171.60
  Q 497.69 171.58 497.95 171.72
  Q 498.45 171.99 498.09 172.43
  Q 490.65 181.65 479.44 180.35
  Q 475.54 179.90 472.64 178.25
  Q 469.43 176.43 467.17 173.33
  A 1.09 1.02 48.6 0 1 467.21 172.01
  Q 467.37 171.85 467.96 171.71
  Z"
/>
<path fill="#0f409d" d="
  M 438.66 173.57
  L 437.70 178.00
  Q 431.27 194.41 415.29 198.94
  Q 410.67 200.25 402.08 200.22
  Q 381.63 200.15 360.15 200.29
  L 362.92 178.96
  Q 372.88 178.61 390.02 180.13
  Q 397.64 180.81 408.90 179.19
  Q 423.98 177.01 438.66 173.57
  Z"
/>
<path fill="#0162f5" d="
  M 411.97 175.42
  Q 412.54 175.57 412.61 176.07
  A 0.86 0.85 67.7 0 1 412.28 176.87
  Q 409.21 179.17 405.49 179.28
  Q 397.92 179.50 389.25 179.36
  Q 387.34 179.33 386.31 178.81
  Q 385.80 178.55 385.97 178.01
  Q 386.06 177.74 386.29 177.52
  L 389.32 177.66
  Q 397.24 177.62 405.23 177.63
  Q 408.79 177.64 411.97 175.42
  Z"
/>
<path fill="#0f409d" d="
  M 300.29 177.73
  L 323.70 177.79
  L 317.37 178.08
  Q 316.95 178.10 316.80 178.49
  L 316.63 178.95
  Q 316.49 179.31 316.88 179.34
  Q 323.21 179.70 329.59 179.25
  Q 333.06 179.00 331.57 177.74
  L 332.55 177.84
  L 332.70 178.12
  Q 332.84 178.38 332.75 178.66
  Q 332.41 179.63 332.01 182.50
  Q 330.81 191.02 329.67 199.65
  A 0.70 0.70 0.0 0 1 328.98 200.26
  L 271.51 200.26
  A 0.68 0.68 0.0 0 1 270.84 199.50
  L 272.02 189.46
  L 273.57 178.98
  Q 284.73 177.68 295.71 178.12
  Q 296.20 178.14 296.53 178.51
  C 297.00 179.02 297.48 179.39 298.23 179.35
  Q 300.30 179.25 301.66 179.12
  Q 304.27 178.87 301.83 177.93
  Q 301.69 177.88 300.29 177.73
  Z"
/>
<path fill="#0851c9" d="
  M 331.57 177.74
  Q 333.06 179.00 329.59 179.25
  Q 323.21 179.70 316.88 179.34
  Q 316.49 179.31 316.63 178.95
  L 316.80 178.49
  Q 316.95 178.10 317.37 178.08
  L 323.70 177.79
  L 331.57 177.74
  Z"
/>
<path fill="#01040a" fill-opacity="0.294" d="
  M 437.70 178.00
  Q 432.14 197.19 412.45 201.56
  Q 407.31 202.71 398.73 202.70
  Q 385.88 202.68 373.03 202.57
  Q 366.49 202.52 360.15 200.29
  Q 381.63 200.15 402.08 200.22
  Q 410.67 200.25 415.29 198.94
  Q 431.27 194.41 437.70 178.00
  Z"
/>
<path fill="#01040a" fill-opacity="0.294" d="
  M 511.74 188.00
  Q 516.09 185.40 508.80 192.06
  Q 500.41 199.71 487.80 201.86
  Q 468.39 205.18 453.81 192.47
  Q 448.05 187.46 446.03 180.29
  Q 454.10 195.23 471.08 199.38
  Q 481.06 201.81 490.73 199.47
  Q 502.78 196.55 511.74 188.00
  Z"
/>
<path fill="#01040a" fill-opacity="0.294" d="
  M 533.02 200.29
  L 555.70 200.34
  Q 556.58 200.34 556.72 199.48
  L 557.95 191.72
  Q 558.49 196.06 557.31 200.73
  Q 557.19 201.21 556.74 201.41
  Q 547.73 205.37 538.23 203.06
  Q 535.85 202.48 533.02 200.29
  Z"
/>
</svg>
