<?xml version="1.0" encoding="UTF-8" standalone="no"?>
<!DOCTYPE svg PUBLIC "-//W3C//DTD SVG 1.1//EN" "http://www.w3.org/Graphics/SVG/1.1/DTD/svg11.dtd">
<svg xmlns="http://www.w3.org/2000/svg" version="1.1" viewBox="0 0 600 300">
<path fill="#000000" d="
  M 506.92 108.95
  C 504.98 90.85 512.84 74.11 534.07 75.84
  C 546.81 76.88 555.08 82.91 557.70 95.79
  C 560.17 107.99 558.00 122.97 545.19 128.69
  C 528.18 136.29 509.08 129.14 506.92 108.95
  Z
  M 526.94 93.19
  C 524.21 99.05 523.37 110.19 528.38 115.54
  C 531.67 119.04 536.60 117.13 538.31 113.06
  Q 542.45 103.23 537.94 93.31
  C 536.01 89.08 528.88 89.02 526.94 93.19
  Z"
/>
<path fill="#000000" d="
  M 453.33 91.95
  C 459.31 71.28 494.16 72.05 500.94 91.81
  C 503.52 99.36 503.13 110.31 500.51 117.55
  C 495.20 132.26 475.08 136.22 462.11 128.48
  C 450.29 121.43 449.97 103.56 453.33 91.95
  Z
  M 470.90 95.98
  Q 466.57 105.75 471.98 115.60
  C 474.84 120.81 481.37 118.12 483.32 113.60
  Q 486.98 105.14 483.53 95.39
  Q 482.69 93.01 480.56 91.66
  C 476.13 88.86 472.71 91.87 470.90 95.98
  Z"
/>
<path fill="#000000" d="
  M 565.04 91.77
  Q 564.28 91.34 561.91 91.72
  Q 559.37 92.13 559.50 89.51
  L 560.03 79.00
  Q 560.16 76.55 562.56 76.75
  C 567.97 77.21 574.85 76.09 579.27 77.60
  C 587.51 80.40 586.50 87.17 586.50 95.75
  Q 586.50 112.45 586.50 129.64
  Q 586.50 131.50 584.64 131.50
  L 568.41 131.50
  A 1.13 1.12 -8.3 0 1 567.33 130.70
  C 566.66 128.52 567.25 125.68 567.25 124.10
  Q 567.25 110.36 567.25 95.56
  Q 567.25 93.02 565.04 91.77
  Z"
/>
<path fill="#000000" d="
  M 400.39 97.82
  C 399.88 90.25 405.46 82.83 412.36 80.23
  Q 425.54 75.28 438.55 80.72
  C 446.48 84.04 450.02 92.69 447.26 100.59
  C 444.65 108.08 436.52 112.83 429.00 115.25
  C 426.69 115.99 427.79 117.48 429.50 117.52
  Q 436.72 117.66 445.70 117.46
  A 1.85 1.84 -3.3 0 1 447.58 119.13
  Q 448.09 124.54 447.31 130.85
  A 0.75 0.74 3.5 0 1 446.57 131.50
  Q 428.22 131.50 410.16 131.50
  C 406.02 131.50 403.01 131.85 400.81 127.69
  C 397.86 122.10 400.84 119.07 405.41 115.68
  C 410.37 111.99 415.24 108.20 420.21 104.53
  C 422.59 102.76 428.05 99.21 428.13 95.94
  C 428.26 90.96 421.79 90.46 419.74 94.53
  C 418.38 97.25 420.60 97.62 416.39 98.07
  Q 408.68 98.88 400.94 98.35
  A 0.60 0.58 0.1 0 1 400.39 97.82
  Z"
/>
<path fill="#000000" d="
  M 316.11 126.40
  L 315.25 130.23
  A 1.24 1.14 -85.3 0 1 314.21 131.19
  Q 305.35 131.89 297.01 131.29
  A 1.16 1.16 11.2 0 1 295.99 129.77
  Q 301.91 111.95 308.39 94.34
  Q 311.89 84.85 314.31 82.29
  C 320.69 75.57 333.82 78.04 337.21 87.47
  Q 344.69 108.25 351.65 129.70
  A 1.38 1.38 81.1 0 1 350.34 131.50
  L 333.35 131.50
  A 2.14 1.89 83.3 0 1 331.45 129.80
  L 330.48 125.19
  A 1.54 1.21 -2.6 0 0 329.09 124.20
  L 320.43 123.82
  Q 316.73 123.66 316.11 126.40
  Z
  M 323.16 97.43
  Q 321.60 104.09 320.04 110.59
  A 1.51 1.43 -83.2 0 0 321.42 112.45
  L 326.31 112.42
  A 1.46 1.32 84.0 0 0 327.56 110.70
  Q 326.23 103.38 325.12 97.61
  C 324.86 96.26 323.63 95.43 323.16 97.43
  Z"
/>
<path fill="#000000" d="
  M 42.06 78.94
  C 50.81 78.98 53.67 84.19 56.25 91.72
  Q 62.96 111.27 69.03 130.31
  A 1.09 1.08 79.3 0 1 68.07 131.73
  Q 59.10 132.33 50.71 131.83
  A 2.32 2.03 83.9 0 1 48.80 130.07
  L 47.75 125.73
  A 1.76 1.59 -6.0 0 0 46.07 124.50
  L 36.23 124.50
  Q 33.52 124.50 33.30 127.20
  Q 33.07 129.89 31.56 131.36
  A 1.56 1.20 14.5 0 1 30.69 131.73
  Q 22.09 132.38 13.23 131.73
  A 0.88 0.88 -77.3 0 1 12.48 130.54
  Q 20.08 110.66 26.93 92.16
  C 30.05 83.76 32.78 78.90 42.06 78.94
  Z
  M 40.14 97.68
  Q 38.75 103.73 37.04 110.61
  Q 36.51 112.71 38.93 112.68
  L 42.58 112.65
  Q 45.31 112.62 44.81 110.29
  Q 43.47 104.01 42.38 97.95
  C 42.11 96.49 40.78 94.93 40.14 97.68
  Z"
/>
<path fill="#000000" d="
  M 199.31 82.19
  C 202.78 84.97 203.79 88.66 205.22 92.89
  Q 211.56 111.70 217.64 129.69
  Q 218.33 131.72 216.22 131.72
  L 201.36 131.74
  Q 198.11 131.74 197.83 128.39
  C 197.40 123.40 195.56 124.25 191.20 124.25
  Q 188.03 124.25 184.38 124.25
  A 2.10 2.08 7.1 0 0 182.35 125.82
  L 181.22 130.32
  A 1.91 1.91 5.1 0 1 179.51 131.75
  C 175.44 132.03 171.68 131.86 167.38 132.10
  Q 165.08 132.24 162.94 131.22
  A 0.59 0.56 -68.4 0 1 162.66 130.52
  Q 168.94 111.80 175.40 93.14
  C 177.86 86.05 178.43 82.28 184.97 80.04
  Q 193.14 77.23 199.31 82.19
  Z
  M 185.40 111.40
  A 0.85 0.85 2.4 0 0 186.21 112.46
  L 193.23 112.54
  A 0.85 0.85 83.7 0 0 194.07 111.51
  L 190.74 96.75
  A 0.85 0.85 39.6 0 0 189.09 96.73
  L 185.40 111.40
  Z"
/>
<path fill="#000000" d="
  M 157.57 116.94
  Q 159.50 116.90 159.50 118.83
  L 159.50 130.12
  Q 159.50 131.93 157.71 132.18
  C 145.81 133.89 133.95 130.98 126.48 121.45
  C 115.71 107.72 121.47 88.53 137.02 81.59
  C 143.41 78.73 151.20 79.01 158.13 80.27
  A 1.46 1.37 -85.9 0 1 159.26 81.66
  L 159.54 92.82
  A 1.65 1.59 -88.9 0 1 157.84 94.52
  C 151.21 94.06 143.99 94.82 141.10 101.79
  Q 138.50 108.03 143.07 112.68
  C 147.55 117.26 152.06 117.07 157.57 116.94
  Z"
/>
<path fill="#000000" d="
  M 255.88 82.55
  C 278.64 93.48 275.07 126.80 249.40 131.09
  Q 245.78 131.70 238.59 131.82
  C 232.75 131.92 222.62 132.22 220.64 125.30
  Q 220.30 124.13 220.15 117.15
  Q 219.85 103.50 220.18 89.84
  C 220.29 84.97 222.13 80.47 227.45 80.10
  C 235.90 79.51 248.10 78.81 255.88 82.55
  Z
  M 240.61 116.29
  C 256.98 114.74 255.72 93.37 239.95 93.51
  A 1.46 1.46 -0.2 0 0 238.50 94.97
  L 238.50 114.37
  Q 238.50 116.49 240.61 116.29
  Z"
/>
<path fill="#000000" d="
  M 90.55 93.82
  A 1.13 1.11 -15.8 0 0 90.00 94.78
  L 89.75 130.04
  A 1.66 1.65 87.7 0 1 88.24 131.68
  Q 80.75 132.35 73.50 131.71
  A 1.31 1.31 2.4 0 1 72.31 130.42
  Q 72.20 111.84 72.25 93.00
  C 72.26 88.08 72.38 81.24 78.75 80.25
  C 83.87 79.45 93.25 80.18 102.36 80.13
  C 120.57 80.01 124.82 101.21 110.19 110.18
  Q 108.16 111.42 109.48 113.43
  L 120.50 130.27
  Q 121.33 131.55 119.83 131.56
  L 101.61 131.76
  A 1.99 1.85 75.1 0 1 99.91 130.69
  Q 96.18 123.55 93.38 117.69
  Q 88.63 107.74 98.06 102.06
  C 104.53 98.17 97.65 89.56 90.55 93.82
  Z"
/>
<path fill="#000000" d="
  M 274.93 81.62
  A 1.40 1.40 -89.4 0 1 276.33 80.25
  L 291.25 80.25
  A 1.66 1.66 -6.9 0 1 292.86 81.51
  Q 293.38 83.63 293.37 85.50
  Q 293.25 107.50 293.25 130.48
  A 0.79 0.79 87.2 0 1 292.54 131.27
  Q 284.37 132.14 276.03 131.82
  A 1.33 1.33 0.7 0 1 274.75 130.51
  Q 274.31 105.84 274.93 81.62
  Z"
/>
<rect fill="#000000" x="-12.83" y="-7.32" transform="translate(374.06,107.36) rotate(-0.4)" width="25.66" height="14.64" rx="1.69"/>
<path fill="#000000" d="
  M 47.55 219.82
  L 13.02 219.75
  Q 11.78 219.75 12.43 218.70
  Q 14.04 216.10 15.11 213.25
  Q 27.12 181.47 39.38 149.78
  A 0.76 0.76 -80.6 0 1 40.06 149.29
  Q 57.31 148.64 74.57 149.17
  A 0.36 0.35 11.7 0 1 74.89 149.65
  L 48.13 219.42
  A 0.62 0.62 10.2 0 1 47.55 219.82
  Z"
/>
<path fill="#000000" d="
  M 63.62 218.76
  L 90.00 150.01
  A 1.59 1.58 10.5 0 1 91.48 149.00
  L 125.14 149.00
  A 0.66 0.66 10.6 0 1 125.76 149.90
  L 99.18 219.09
  A 1.04 1.04 10.7 0 1 98.21 219.75
  L 64.30 219.75
  A 0.73 0.73 -79.5 0 1 63.62 218.76
  Z"
/>
<path fill="#000000" d="
  M 149.86 219.82
  L 115.42 219.75
  A 0.44 0.44 -79.5 0 1 115.01 219.15
  L 141.75 149.66
  A 0.77 0.73 -78.8 0 1 142.44 149.17
  L 177.07 149.18
  A 0.34 0.34 -78.8 0 1 177.38 149.65
  L 150.55 219.34
  A 0.74 0.74 -79.7 0 1 149.86 219.82
  Z"
/>
<path fill="#000000" d="
  M 365.32 174.97
  A 2.69 2.67 9.1 0 1 366.92 173.82
  C 369.35 173.21 371.60 172.51 374.09 172.48
  Q 393.64 172.25 412.45 172.49
  A 1.37 1.37 -80.2 0 1 413.73 174.31
  C 413.70 174.40 410.41 183.91 409.69 180.06
  Q 408.78 175.23 404.73 174.37
  C 401.94 173.77 398.24 173.50 395.50 174.84
  A 1.25 1.22 88.4 0 0 394.87 175.52
  L 388.91 190.30
  Q 387.90 192.82 390.57 193.44
  Q 394.85 194.45 398.20 189.77
  Q 398.84 188.87 399.80 188.33
  Q 401.71 187.24 400.64 189.96
  C 400.01 191.58 396.69 202.38 395.02 201.89
  A 0.77 0.62 -84.2 0 1 394.57 201.19
  C 394.56 199.06 394.15 196.87 391.92 196.01
  C 387.68 194.39 386.12 197.14 384.73 200.69
  Q 382.35 206.77 379.84 212.74
  A 1.37 1.36 20.7 0 0 380.67 214.56
  Q 391.97 218.30 399.40 207.94
  A 1.83 1.83 24.4 0 1 401.29 207.23
  C 402.19 207.44 398.64 214.99 398.35 215.76
  Q 397.60 217.74 395.48 217.75
  Q 377.02 217.81 359.76 217.75
  C 359.03 217.75 358.05 216.96 358.40 216.44
  A 2.39 2.38 -74.9 0 1 360.25 215.37
  C 364.78 215.10 366.50 214.79 368.48 210.35
  Q 378.62 187.72 382.50 178.25
  C 385.02 172.10 372.71 174.21 370.59 175.07
  A 1.42 1.42 69.7 0 0 369.78 176.84
  Q 372.08 183.70 365.79 183.05
  A 1.94 1.94 -88.1 0 1 364.06 181.20
  Q 363.90 177.24 365.32 174.97
  Z"
/>
<path fill="#000000" d="
  M 347.4762 217.9105
  A 1.51 1.51 0.0 0 1 345.9768 219.4310
  L 300.5779 219.7479
  A 1.51 1.51 0.0 0 1 299.0574 218.2485
  L 298.7638 176.1895
  A 1.51 1.51 0.0 0 1 300.2632 174.6690
  L 345.6621 174.3521
  A 1.51 1.51 0.0 0 1 347.1826 175.8515
  L 347.4762 217.9105
  Z
  M 344.7481 198.0989
  A 21.80 20.70 3.1 0 0 324.0994 176.2503
  A 21.80 20.70 3.1 0 0 301.2119 195.7411
  A 21.80 20.70 3.1 0 0 321.8606 217.5897
  A 21.80 20.70 3.1 0 0 344.7481 198.0989
  Z"
/>
<path fill="#000000" d="
  M 324.19 180.69
  C 320.96 181.08 323.00 176.85 325.19 179.06
  Q 326.52 180.40 324.19 180.69
  Z"
/>
<path fill="#000000" d="
  M 516.49 183.67
  Q 514.25 182.95 512.87 184.56
  C 510.41 187.44 513.00 191.90 515.36 193.89
  C 527.15 203.84 507.98 215.58 498.66 207.72
  C 493.04 202.98 500.73 196.76 504.05 201.44
  Q 505.70 203.77 503.16 206.92
  A 0.92 0.92 -60.9 0 0 503.57 208.37
  Q 507.98 209.90 510.59 206.80
  C 513.54 203.28 511.07 199.75 508.19 197.31
  C 497.54 188.30 516.33 176.54 522.83 184.69
  C 526.24 188.97 516.05 193.14 517.08 184.59
  A 0.87 0.85 -78.2 0 0 516.49 183.67
  Z"
/>
<path fill="#000000" d="
  M 527.58 189.35
  Q 531.50 184.54 538.00 182.75
  C 547.51 180.13 554.32 186.73 551.43 196.39
  Q 548.09 207.57 535.75 210.75
  C 532.59 211.56 530.40 211.44 527.83 209.26
  C 521.75 204.11 523.05 194.90 527.58 189.35
  Z
  M 541.91 183.52
  C 536.55 184.40 528.65 202.52 529.50 206.75
  C 530.69 212.64 536.48 207.62 538.06 205.06
  C 539.55 202.67 551.77 181.89 541.91 183.52
  Z"
/>
<path fill="#000000" d="
  M 323.85 184.14
  C 326.58 181.44 325.56 185.14 325.12 186.04
  C 322.20 191.90 328.02 190.87 330.72 192.76
  C 336.30 196.66 333.79 203.87 328.12 206.11
  Q 326.50 206.74 326.50 208.48
  Q 326.50 214.26 321.57 215.73
  A 1.83 1.81 59.2 0 1 319.76 215.26
  Q 317.04 212.50 320.38 211.88
  C 322.01 211.58 324.05 213.02 324.56 210.31
  Q 325.16 207.14 323.00 207.25
  C 315.50 207.63 307.68 200.80 314.32 193.35
  C 316.91 190.45 322.31 189.29 321.20 184.68
  A 2.00 1.20 58.4 0 1 321.19 183.70
  Q 321.87 181.39 323.28 184.05
  A 0.36 0.36 -35.7 0 0 323.85 184.14
  Z
  M 320.55 190.72
  C 314.88 193.64 312.44 199.85 317.86 204.32
  C 318.80 205.11 321.61 206.26 319.46 203.50
  Q 314.15 196.68 321.21 191.70
  Q 322.28 190.94 321.47 190.62
  A 1.26 0.89 -41.4 0 0 320.55 190.72
  Z
  M 330.9403 199.4962
  A 5.54 5.11 9.1 0 0 326.2782 193.5743
  A 5.54 5.11 9.1 0 0 319.9997 197.7438
  A 5.54 5.11 9.1 0 0 324.6618 203.6657
  A 5.54 5.11 9.1 0 0 330.9403 199.4962
  Z"
/>
<path fill="#000000" d="
  M 462.48 209.13
  C 462.91 209.03 471.39 205.13 468.94 207.69
  C 460.81 216.17 449.60 207.74 454.03 196.97
  Q 458.17 186.89 468.50 183.50
  Q 471.80 182.41 469.44 184.94
  Q 464.89 189.79 461.98 196.00
  Q 460.96 198.16 463.35 198.28
  C 467.98 198.52 475.75 189.48 472.82 184.61
  Q 471.71 182.77 473.73 183.49
  Q 477.90 184.99 477.95 188.57
  C 478.03 195.21 468.45 199.40 463.00 199.97
  C 458.67 200.42 457.19 207.30 461.53 209.08
  A 1.60 1.43 -38.9 0 0 462.48 209.13
  Z"
/>
<path fill="#000000" d="
  M 443.08 189.64
  C 443.74 187.90 443.29 185.89 440.89 186.96
  A 1.20 0.54 -31.1 0 1 439.96 187.07
  C 439.42 186.78 439.78 186.03 440.25 185.74
  C 443.11 183.98 448.89 182.10 450.53 185.79
  C 451.85 188.78 445.97 200.85 444.44 204.04
  C 443.75 205.48 443.61 206.89 445.79 206.75
  Q 447.55 206.63 446.34 207.92
  C 443.02 211.43 433.39 212.29 436.78 204.77
  Q 440.15 197.30 443.08 189.64
  Z"
/>
<path fill="#000000" d="
  M 493.56 189.31
  L 484.46 208.64
  A 1.93 1.85 -76.9 0 1 482.76 209.75
  L 477.99 209.75
  A 1.11 1.11 -78.2 0 1 476.97 208.19
  Q 480.67 199.78 484.51 191.01
  C 485.17 189.49 486.53 187.60 483.99 186.90
  Q 481.90 186.32 483.88 185.42
  C 486.73 184.13 490.74 181.51 492.44 186.07
  Q 493.32 188.45 494.89 186.46
  C 496.38 184.58 499.03 183.00 501.42 183.66
  C 505.70 184.83 501.12 194.43 495.75 188.25
  Q 494.66 186.99 493.56 189.31
  Z"
/>
<path fill="#000000" d="
  M 579.01 206.24
  C 584.31 206.87 576.11 210.06 574.27 209.86
  C 569.26 209.30 570.20 205.72 571.69 202.32
  Q 574.53 195.79 577.12 189.16
  C 579.04 184.26 573.91 187.40 573.59 186.06
  A 0.82 0.65 -26.0 0 1 573.96 185.29
  Q 578.45 182.29 582.75 184.25
  C 585.84 185.66 584.32 188.19 583.45 190.52
  Q 580.76 197.73 578.24 205.02
  A 0.93 0.93 -77.4 0 0 579.01 206.24
  Z"
/>
<path fill="#000000" d="
  M 561.03 186.50
  Q 556.47 186.10 561.57 184.47
  C 563.73 183.78 569.41 182.64 569.35 186.19
  A 1.09 0.56 -82.2 0 0 569.65 187.05
  L 571.28 188.09
  A 0.47 0.37 33.4 0 1 571.47 188.66
  C 567.13 195.11 564.89 201.90 561.30 208.62
  A 1.18 1.14 -82.9 0 1 560.58 209.20
  Q 557.21 210.07 554.38 209.46
  A 1.19 1.18 -72.3 0 1 553.55 207.83
  L 562.04 188.16
  A 1.21 1.19 14.1 0 0 561.03 186.50
  Z"
/>
<path fill="#000000" d="
  M 435.79 188.85
  L 436.65 189.39
  A 0.56 0.46 -54.4 0 1 436.70 190.14
  C 432.50 195.70 429.81 202.78 426.48 209.09
  A 1.73 1.70 13.7 0 1 424.96 210.00
  L 420.80 210.00
  A 1.33 1.32 12.7 0 1 419.60 208.11
  Q 424.06 198.79 427.50 189.25
  Q 428.60 186.19 425.50 187.25
  C 422.54 188.26 424.03 186.18 424.91 185.63
  Q 431.68 181.35 435.10 188.23
  A 1.48 0.42 26.2 0 0 435.79 188.85
  Z"
/>
<path fill="#000000" d="
  M 410.63 188.48
  Q 409.78 188.13 408.82 189.21
  C 407.25 190.97 405.60 189.93 407.34 188.30
  C 409.97 185.85 416.06 182.13 419.10 186.16
  Q 420.25 187.69 422.02 188.34
  A 0.51 0.48 20.7 0 1 422.33 188.98
  C 421.69 190.63 420.16 191.89 419.36 193.14
  Q 414.65 200.53 411.67 208.79
  A 1.40 1.26 88.2 0 1 411.07 209.50
  Q 408.41 210.96 405.86 210.39
  Q 403.60 209.88 404.52 207.72
  L 411.67 190.97
  Q 412.42 189.21 410.63 188.48
  Z"
/>
<ellipse fill="#000000" cx="0.00" cy="0.00" transform="translate(325.68,198.63) rotate(3.2)" rx="3.62" ry="2.99"/>
<path fill="#000000" d="
  M 267.45 216.64
  C 264.96 219.69 261.47 220.00 258.01 219.61
  C 254.99 219.26 255.77 216.30 255.72 214.11
  Q 255.62 209.79 255.96 205.50
  A 0.71 0.69 85.5 0 1 256.48 204.87
  C 259.79 204.01 264.81 203.81 267.01 206.66
  Q 268.19 208.18 266.83 209.55
  Q 265.63 210.75 267.59 213.64
  Q 268.63 215.19 267.45 216.64
  Z
  M 259.32 210.20
  C 265.53 212.13 266.88 205.20 261.78 206.21
  C 259.93 206.57 258.05 205.25 257.99 208.35
  A 1.91 1.89 -81.1 0 0 259.32 210.20
  Z
  M 265.4392 214.5252
  A 1.93 1.93 0.0 0 0 263.5535 212.5519
  L 259.9145 212.4693
  A 1.93 1.93 0.0 0 0 257.9412 214.3550
  L 257.9208 215.2548
  A 1.93 1.93 0.0 0 0 259.8065 217.2281
  L 263.4455 217.3107
  A 1.93 1.93 0.0 0 0 265.4188 215.4250
  L 265.4392 214.5252
  Z"
/>
<path fill="#000000" d="
  M 275.01 218.70
  C 274.24 219.46 273.73 218.30 273.80 217.53
  Q 274.24 212.96 271.06 209.69
  Q 268.89 207.45 268.75 206.00
  C 268.35 201.98 273.27 209.68 273.35 209.80
  Q 274.73 211.79 275.95 209.83
  L 278.32 206.01
  A 1.92 0.89 -70.4 0 1 278.99 205.33
  C 281.25 204.21 279.88 206.71 279.48 207.27
  C 276.68 211.24 275.02 213.13 275.28 217.82
  A 1.28 0.84 73.7 0 1 275.01 218.70
  Z"
/>
</svg>
