<?xml version="1.0" encoding="UTF-8" standalone="no"?>
<!DOCTYPE svg PUBLIC "-//W3C//DTD SVG 1.1//EN" "http://www.w3.org/Graphics/SVG/1.1/DTD/svg11.dtd">
<svg xmlns="http://www.w3.org/2000/svg" version="1.1" viewBox="0 0 600 300">
<path fill="#000000" d="
  M 600.07 126.96
  L 600.05 174.14
  Q 585.70 183.50 570.88 192.10
  C 568.88 193.26 566.65 195.00 564.25 195.00
  Q 300.13 195.00 34.72 195.00
  A 3.84 3.81 60.0 0 1 32.78 194.47
  Q 16.02 184.56 -0.08 173.30
  L -0.07 124.08
  L 30.69 105.69
  Q 33.51 104.00 35.00 104.00
  L 565.43 104.06
  A 1.16 1.15 -21.4 0 1 566.27 104.42
  Q 569.03 107.33 574.44 110.31
  Q 584.79 116.03 600.07 126.96
  Z
  M 7.69 127.79
  A 1.43 1.32 76.6 0 0 7.00 129.01
  Q 7.00 147.33 7.00 165.18
  C 7.00 167.87 6.50 169.50 9.10 171.13
  Q 22.72 179.64 36.33 188.20
  A 4.85 4.83 61.0 0 0 38.90 188.94
  L 559.44 188.75
  Q 561.35 188.75 563.04 187.88
  Q 577.39 180.46 591.81 170.94
  A 1.42 1.38 73.7 0 0 592.43 169.77
  L 592.50 131.42
  A 2.07 2.02 -73.8 0 0 591.58 129.70
  Q 581.75 123.30 571.69 117.31
  C 567.29 114.69 565.07 112.56 559.94 112.56
  Q 298.22 112.45 35.77 112.50
  Q 34.95 112.50 34.31 112.86
  L 7.69 127.79
  Z"
/>
<path fill="#000000" d="
  M 80.94 140.76
  Q 80.92 138.71 79.19 139.80
  Q 74.18 142.97 70.04 145.28
  Q 68.93 145.91 70.29 148.12
  Q 70.49 148.44 70.11 148.42
  C 66.17 148.26 59.93 149.08 56.45 147.17
  Q 49.73 143.49 43.09 139.50
  Q 42.00 138.85 42.00 140.12
  L 42.00 168.34
  A 0.91 0.91 0.0 0 1 41.09 169.25
  L 29.78 169.25
  A 0.80 0.79 -0.4 0 1 28.98 168.47
  L 28.76 131.35
  A 0.81 0.79 -2.3 0 1 29.52 130.55
  C 33.97 130.31 41.66 129.35 45.30 131.63
  Q 52.94 136.40 60.58 141.20
  A 1.90 1.89 -44.6 0 0 62.57 141.21
  Q 69.98 136.65 77.31 131.81
  C 81.17 129.27 88.66 130.25 93.26 130.25
  A 0.99 0.99 89.5 0 1 94.25 131.24
  L 94.25 168.47
  A 0.78 0.78 0.0 0 1 93.47 169.25
  L 81.96 169.25
  A 0.77 0.77 89.6 0 1 81.19 168.49
  L 80.94 140.76
  Z"
/>
<path fill="#000000" d="
  M 117.32 146.21
  L 139.78 146.49
  Q 141.97 146.52 140.24 147.83
  L 136.54 150.66
  A 4.14 3.83 -61.9 0 1 134.12 151.50
  L 117.84 151.50
  A 1.09 1.09 0.0 0 0 116.75 152.59
  L 116.75 161.43
  A 1.32 1.32 0.0 0 0 118.07 162.75
  L 154.76 162.75
  Q 156.63 162.75 155.08 163.76
  L 147.83 168.50
  A 5.22 4.24 23.4 0 1 145.16 169.25
  L 104.63 169.25
  A 1.07 1.06 -0.0 0 1 103.56 168.19
  L 103.50 141.90
  Q 103.50 140.14 104.98 139.05
  L 115.79 131.16
  A 4.75 4.45 -61.6 0 1 118.51 130.25
  L 155.26 130.25
  Q 157.11 130.25 155.56 131.27
  L 148.34 136.01
  A 4.68 4.13 -58.5 0 1 145.93 136.75
  L 117.70 136.81
  A 0.94 0.93 -0.3 0 0 116.76 137.75
  L 116.80 145.69
  A 0.52 0.52 90.0 0 0 117.32 146.21
  Z"
/>
<path fill="#000000" d="
  M 178.81 137.56
  L 178.69 161.99
  A 0.76 0.75 0.4 0 0 179.45 162.75
  L 205.18 162.75
  A 1.27 1.21 -0.2 0 0 206.45 161.53
  L 206.35 152.18
  A 0.54 0.53 0.0 0 0 205.82 151.66
  L 194.23 151.50
  Q 192.04 151.47 193.86 150.30
  C 196.35 148.70 198.76 146.78 201.96 146.66
  Q 210.17 146.35 218.88 146.51
  A 0.89 0.89 0.7 0 1 219.75 147.40
  L 219.75 158.48
  A 2.65 2.65 -17.2 0 1 218.59 160.67
  Q 213.77 163.96 208.94 167.94
  C 205.55 170.72 173.21 169.25 166.31 169.25
  A 0.81 0.81 0.0 0 1 165.50 168.44
  L 165.50 140.82
  A 1.68 1.57 -19.3 0 1 166.18 139.52
  L 177.24 131.37
  Q 178.76 130.25 180.49 130.25
  Q 200.50 130.25 220.50 130.25
  C 221.21 130.25 221.33 130.96 220.63 131.36
  C 216.36 133.80 213.60 137.43 208.00 136.75
  Q 203.12 136.16 179.31 137.04
  A 0.52 0.52 -1.1 0 0 178.81 137.56
  Z"
/>
<path fill="#000000" d="
  M 276.74 152.70
  L 284.56 168.35
  A 0.58 0.57 77.0 0 1 284.05 169.19
  L 270.56 168.98
  A 0.91 0.81 74.9 0 1 269.83 168.50
  L 261.68 152.67
  A 2.18 2.14 76.0 0 0 259.77 151.50
  L 248.01 151.50
  A 2.52 2.43 -76.0 0 0 245.82 152.87
  L 237.90 168.31
  A 1.65 1.63 13.1 0 1 236.45 169.20
  L 224.37 169.25
  A 1.18 1.17 -76.7 0 1 223.32 167.54
  L 241.62 131.72
  Q 242.38 130.24 244.05 130.25
  L 264.72 130.44
  A 1.50 1.45 76.6 0 1 266.04 131.28
  L 273.10 145.51
  A 1.78 1.77 76.8 0 0 274.69 146.50
  L 287.26 146.50
  Q 288.58 146.50 287.60 147.38
  Q 284.91 149.80 281.46 151.30
  A 1.88 1.38 29.8 0 1 280.50 151.41
  Q 278.57 151.12 276.93 152.00
  A 0.54 0.50 62.4 0 0 276.74 152.70
  Z
  M 249.77 145.31
  A 0.86 0.86 -73.9 0 0 250.56 146.55
  L 257.29 146.45
  A 0.86 0.86 -15.5 0 0 258.04 145.20
  L 254.58 138.54
  A 0.86 0.86 -45.3 0 0 253.04 138.56
  L 249.77 145.31
  Z"
/>
<path fill="#000000" d="
  M 312.43 168.51
  L 312.50 130.94
  A 0.69 0.68 -90.0 0 1 313.18 130.25
  Q 330.43 130.25 347.13 130.25
  C 349.47 130.25 351.12 129.93 353.11 131.37
  C 356.52 133.83 360.22 135.95 363.75 138.25
  C 367.02 140.38 366.49 141.40 366.53 145.47
  Q 366.59 152.23 366.25 158.97
  A 2.31 2.03 -17.0 0 1 365.20 160.68
  L 353.50 168.21
  Q 351.88 169.25 350.30 169.25
  L 313.17 169.25
  A 0.74 0.74 0.0 0 1 312.43 168.51
  Z
  M 353.7403 138.1249
  A 1.35 1.35 0.0 0 0 352.3927 136.7725
  L 326.6127 136.7275
  A 1.35 1.35 0.0 0 0 325.2604 138.0752
  L 325.2197 161.3751
  A 1.35 1.35 0.0 0 0 326.5673 162.7275
  L 352.3473 162.7725
  A 1.35 1.35 0.0 0 0 353.6996 161.4248
  L 353.7403 138.1249
  Z"
/>
<path fill="#000000" d="
  M 408.80 154.32
  C 410.98 155.00 412.00 156.73 413.54 157.72
  Q 421.17 162.63 428.45 168.07
  Q 429.95 169.19 428.08 169.20
  L 416.33 169.25
  Q 414.73 169.25 413.41 168.26
  Q 403.54 160.84 393.34 154.08
  C 389.20 151.33 388.98 152.90 389.01 157.00
  Q 389.05 162.09 388.69 168.00
  A 1.29 1.24 -88.0 0 1 387.45 169.20
  L 376.34 169.20
  A 0.61 0.59 -90.0 0 1 375.75 168.59
  L 375.75 131.23
  A 0.74 0.74 -1.2 0 1 376.46 130.49
  Q 395.48 129.85 414.69 130.54
  A 1.59 1.56 64.6 0 1 415.59 130.87
  Q 422.97 136.59 427.31 139.19
  C 431.61 141.76 430.38 148.18 430.02 152.49
  A 0.57 0.56 -87.2 0 1 429.46 153.00
  C 427.39 152.99 407.73 152.53 408.10 153.74
  A 1.11 0.71 7.0 0 0 408.80 154.32
  Z
  M 416.9444 138.1689
  A 1.37 1.37 0.0 0 0 415.5792 136.7941
  L 390.3393 136.7060
  A 1.37 1.37 0.0 0 0 388.9646 138.0712
  L 388.9356 146.3711
  A 1.37 1.37 0.0 0 0 390.3008 147.7459
  L 415.5407 147.8340
  A 1.37 1.37 0.0 0 0 416.9154 146.4688
  L 416.9444 138.1689
  Z"
/>
<rect fill="#000000" x="441.00" y="130.27" width="13.00" height="38.98" rx="0.68"/>
<path fill="#000000" d="
  M 511.60 160.53
  C 509.47 162.65 504.62 168.66 501.69 169.19
  Q 496.10 170.18 485.81 169.00
  A 1.05 0.98 -10.9 0 1 485.05 168.52
  L 462.30 131.17
  A 0.46 0.45 -17.8 0 1 462.66 130.49
  Q 467.35 130.11 472.17 130.39
  C 473.66 130.48 476.10 129.99 478.03 130.59
  A 1.43 1.23 79.4 0 1 478.77 131.18
  L 498.20 161.83
  Q 499.31 163.59 499.32 161.51
  L 499.50 131.59
  A 1.08 1.00 89.8 0 1 500.48 130.52
  L 511.28 130.27
  A 1.26 1.20 89.6 0 1 512.50 131.53
  L 512.50 158.35
  A 3.09 3.07 67.7 0 1 511.60 160.53
  Z"
/>
<path fill="#000000" d="
  M 535.28 161.75
  A 1.07 1.00 0.6 0 0 536.34 162.76
  L 572.07 162.81
  Q 573.83 162.81 572.57 164.06
  C 566.57 169.95 561.79 169.25 552.19 169.25
  Q 537.92 169.25 522.78 169.25
  A 0.78 0.78 89.9 0 1 522.00 168.47
  Q 522.00 154.75 522.00 142.25
  Q 522.00 139.15 524.56 138.06
  Q 527.76 136.71 533.40 131.10
  A 1.55 1.51 -70.6 0 1 534.25 130.68
  Q 537.83 130.21 543.50 130.25
  Q 558.10 130.35 572.69 130.55
  Q 573.19 130.56 572.87 130.94
  C 567.05 137.62 561.99 136.75 552.02 136.75
  Q 544.09 136.75 536.34 136.75
  A 1.09 1.09 0.3 0 0 535.25 137.84
  L 535.25 145.73
  A 0.77 0.77 90.0 0 0 536.02 146.50
  L 558.75 146.50
  Q 559.10 146.50 558.76 146.57
  Q 557.38 146.86 557.30 148.06
  A 1.31 0.87 79.7 0 1 556.94 148.89
  C 555.19 150.40 553.94 151.51 551.43 151.48
  Q 543.68 151.39 535.94 151.67
  A 0.56 0.53 -0.6 0 0 535.40 152.19
  L 535.28 161.75
  Z"
/>
</svg>
