<?xml version="1.0" encoding="UTF-8" standalone="no"?>
<!DOCTYPE svg PUBLIC "-//W3C//DTD SVG 1.1//EN" "http://www.w3.org/Graphics/SVG/1.1/DTD/svg11.dtd">
<svg xmlns="http://www.w3.org/2000/svg" version="1.1" viewBox="0.00 0.00 600.00 110.00">
<g stroke-width="2.00" fill="none" stroke-linecap="butt">
<path stroke="#fbc892" vector-effect="non-scaling-stroke" d="
  M 522.06 62.93
  Q 522.05 69.91 522.03 78.58
  A 4.66 4.66 0.0 0 0 526.67 83.25
  Q 536.76 83.29 542.13 83.23
  C 544.80 83.20 547.03 80.82 546.94 78.16
  Q 546.86 75.72 546.99 73.84
  Q 547.07 72.61 545.83 72.61
  L 542.69 72.61
  Q 541.48 72.61 541.73 73.79
  Q 541.96 74.91 541.71 76.66
  Q 541.65 77.14 541.16 77.14
  L 528.54 77.14
  A 0.38 0.38 0.0 0 1 528.16 76.76
  Q 528.12 69.86 528.12 62.93
  Q 528.12 56.01 528.17 49.11
  A 0.38 0.38 0.0 0 1 528.55 48.73
  L 541.17 48.74
  Q 541.66 48.74 541.72 49.22
  Q 541.97 50.97 541.74 52.09
  Q 541.49 53.27 542.70 53.27
  L 545.84 53.27
  Q 547.08 53.27 547.00 52.04
  Q 546.87 50.16 546.95 47.72
  C 547.04 45.06 544.81 42.68 542.14 42.65
  Q 536.77 42.58 526.68 42.62
  A 4.66 4.66 0.0 0 0 522.04 47.29
  Q 522.05 55.96 522.06 62.93"
/>
<path stroke="#fbc892" vector-effect="non-scaling-stroke" d="
  M 557.22 62.94
  Q 557.22 75.85 557.18 76.42
  Q 557.12 77.08 556.75 77.08
  L 554.67 77.07
  A 0.76 0.75 -89.6 0 0 553.91 77.83
  L 553.91 82.46
  Q 553.91 83.23 554.68 83.23
  Q 569.82 83.29 577.51 83.26
  C 579.96 83.25 581.68 83.58 583.32 81.62
  Q 584.47 80.26 584.53 77.08
  Q 584.59 74.32 584.59 62.94
  Q 584.59 51.56 584.53 48.80
  Q 584.48 45.62 583.33 44.26
  C 581.69 42.30 579.97 42.63 577.52 42.62
  Q 569.83 42.59 554.69 42.64
  Q 553.92 42.64 553.92 43.41
  L 553.92 48.04
  A 0.76 0.75 89.6 0 0 554.67 48.80
  L 556.75 48.79
  Q 557.12 48.80 557.18 49.46
  Q 557.22 50.03 557.22 62.94"
/>
<path stroke="#fbc892" vector-effect="non-scaling-stroke" d="
  M 578.47 49.41
  A 0.63 0.63 0.0 0 0 577.84 48.78
  L 564.26 48.78
  A 0.63 0.63 0.0 0 0 563.63 49.41
  L 563.63 76.51
  A 0.63 0.63 0.0 0 0 564.26 77.14
  L 577.84 77.14
  A 0.63 0.63 0.0 0 0 578.47 76.51
  L 578.47 49.41"
/>
</g>
<path fill="#f79226" d="
  M 4.87 0.00
  Q 5.63 0.36 5.76 0.00
  Q 5.82 0.00 5.87 0.00
  Q 6.64 0.36 6.76 0.00
  Q 6.81 0.00 6.86 0.00
  Q 7.71 0.46 7.76 0.00
  L 26.64 0.00
  L 27.17 0.17
  Q 27.70 0.34 27.70 0.90
  L 27.70 8.22
  Q 27.70 8.63 27.29 8.63
  L 19.68 8.63
  Q 19.13 8.63 19.13 9.18
  L 19.13 107.13
  Q 19.13 107.34 18.92 107.34
  L 10.06 107.34
  Q 9.77 107.34 9.77 107.05
  L 9.77 9.45
  Q 9.77 8.65 8.98 8.65
  L 0.79 8.65
  Q 0.39 8.65 0.39 8.26
  L 0.36 0.00
  L 4.87 0.00
  Z"
/>
<path fill="#b2c918" d="
  M 279.25 0.00
  C 285.82 1.09 287.55 5.79 287.52 12.07
  Q 287.49 18.66 287.45 25.00
  Q 287.45 25.22 287.22 25.22
  L 278.71 25.22
  A 0.33 0.33 0.0 0 1 278.38 24.89
  L 278.38 10.19
  A 1.01 1.01 0.0 0 0 277.37 9.18
  L 268.13 9.18
  A 0.70 0.70 0.0 0 0 267.43 9.88
  L 267.43 98.17
  Q 267.43 98.65 267.90 98.65
  L 277.92 98.65
  A 0.56 0.56 0.0 0 0 278.48 98.09
  L 278.48 56.27
  Q 278.48 55.34 277.55 55.34
  L 274.29 55.34
  Q 273.77 55.34 273.81 54.82
  Q 274.10 50.95 273.74 47.43
  Q 273.69 46.90 274.22 46.90
  L 286.79 46.90
  Q 287.46 46.90 287.46 47.56
  L 287.46 106.68
  Q 287.46 107.13 287.01 107.13
  Q 273.96 107.15 268.51 107.12
  Q 262.14 107.08 259.85 102.49
  Q 258.64 100.06 258.63 93.82
  Q 258.61 53.47 258.63 13.12
  Q 258.64 7.45 259.82 5.08
  Q 261.92 0.88 267.13 0.00
  L 279.25 0.00
  Z"
/>
<path fill="#f79226" d="
  M 600.00 58.00
  L 600.00 67.63
  Q 596.37 94.13 573.18 105.67
  Q 565.72 109.38 556.61 110.00
  L 549.32 110.00
  Q 526.11 107.64 513.93 89.04
  C 503.74 73.49 503.48 52.29 514.03 36.61
  C 529.65 13.41 561.31 8.33 583.13 26.49
  Q 597.30 38.28 600.00 58.00
  Z
  M 522.06 62.93
  Q 522.05 69.91 522.03 78.58
  A 4.66 4.66 0.0 0 0 526.67 83.25
  Q 536.76 83.29 542.13 83.23
  C 544.80 83.20 547.03 80.82 546.94 78.16
  Q 546.86 75.72 546.99 73.84
  Q 547.07 72.61 545.83 72.61
  L 542.69 72.61
  Q 541.48 72.61 541.73 73.79
  Q 541.96 74.91 541.71 76.66
  Q 541.65 77.14 541.16 77.14
  L 528.54 77.14
  A 0.38 0.38 0.0 0 1 528.16 76.76
  Q 528.12 69.86 528.12 62.93
  Q 528.12 56.01 528.17 49.11
  A 0.38 0.38 0.0 0 1 528.55 48.73
  L 541.17 48.74
  Q 541.66 48.74 541.72 49.22
  Q 541.97 50.97 541.74 52.09
  Q 541.49 53.27 542.70 53.27
  L 545.84 53.27
  Q 547.08 53.27 547.00 52.04
  Q 546.87 50.16 546.95 47.72
  C 547.04 45.06 544.81 42.68 542.14 42.65
  Q 536.77 42.58 526.68 42.62
  A 4.66 4.66 0.0 0 0 522.04 47.29
  Q 522.05 55.96 522.06 62.93
  Z
  M 557.22 62.94
  Q 557.22 75.85 557.18 76.42
  Q 557.12 77.08 556.75 77.08
  L 554.67 77.07
  A 0.76 0.75 -89.6 0 0 553.91 77.83
  L 553.91 82.46
  Q 553.91 83.23 554.68 83.23
  Q 569.82 83.29 577.51 83.26
  C 579.96 83.25 581.68 83.58 583.32 81.62
  Q 584.47 80.26 584.53 77.08
  Q 584.59 74.32 584.59 62.94
  Q 584.59 51.56 584.53 48.80
  Q 584.48 45.62 583.33 44.26
  C 581.69 42.30 579.97 42.63 577.52 42.62
  Q 569.83 42.59 554.69 42.64
  Q 553.92 42.64 553.92 43.41
  L 553.92 48.04
  A 0.76 0.75 89.6 0 0 554.67 48.80
  L 556.75 48.79
  Q 557.12 48.80 557.18 49.46
  Q 557.22 50.03 557.22 62.94
  Z"
/>
<path fill="#f79226" d="
  M 61.21 98.57
  Q 63.46 98.57 65.90 98.50
  A 0.76 0.76 0.0 0 0 66.64 97.74
  L 66.64 18.08
  Q 66.64 17.88 66.85 17.88
  L 75.23 17.88
  Q 75.47 17.88 75.47 18.11
  Q 75.66 54.38 75.46 97.72
  Q 75.42 105.05 69.20 106.87
  Q 67.30 107.43 61.21 107.43
  Q 55.12 107.43 53.22 106.87
  Q 47.00 105.06 46.96 97.73
  Q 46.73 54.39 46.90 18.12
  Q 46.90 17.89 47.14 17.89
  L 55.52 17.88
  Q 55.73 17.88 55.73 18.08
  L 55.78 97.74
  A 0.76 0.76 0.0 0 0 56.52 98.50
  Q 58.96 98.57 61.21 98.57
  Z"
/>
<path fill="#f79226" d="
  M 108.55 65.36
  A 1.43 1.42 82.6 0 0 107.49 66.74
  L 107.49 106.96
  A 0.44 0.43 -0.0 0 1 107.05 107.39
  L 99.50 107.39
  A 0.38 0.37 0.0 0 1 99.12 107.02
  L 99.12 18.28
  Q 99.12 17.87 99.54 17.87
  Q 106.78 17.91 114.19 17.86
  C 119.29 17.84 123.54 18.57 126.06 22.69
  Q 126.92 24.11 126.92 27.47
  Q 126.93 40.89 126.90 54.28
  Q 126.89 58.80 125.87 60.54
  Q 124.09 63.61 120.59 64.80
  Q 119.90 65.03 120.05 65.74
  L 128.74 107.03
  Q 128.82 107.38 128.46 107.38
  L 120.83 107.38
  Q 120.48 107.38 120.40 107.04
  Q 112.97 74.67 111.43 67.41
  Q 110.86 64.74 108.55 65.36
  Z
  M 118.44 27.18
  A 0.49 0.49 0.0 0 0 117.95 26.69
  L 108.39 26.69
  A 0.49 0.49 0.0 0 0 107.90 27.18
  L 107.90 55.76
  A 0.49 0.49 0.0 0 0 108.39 56.25
  L 117.95 56.25
  A 0.49 0.49 0.0 0 0 118.44 55.76
  L 118.44 27.18
  Z"
/>
<path fill="#f79226" d="
  M 177.41 59.68
  A 0.87 0.87 0.0 0 0 177.36 60.98
  C 179.59 63.11 180.37 64.91 180.40 68.28
  Q 180.50 82.48 180.41 96.56
  Q 180.38 101.63 179.04 103.73
  Q 176.84 107.21 171.74 107.31
  Q 162.33 107.50 153.16 107.38
  A 0.85 0.84 -89.7 0 1 152.33 106.53
  L 152.33 18.45
  A 0.52 0.52 0.0 0 1 152.84 17.93
  Q 162.39 17.78 171.54 17.96
  Q 176.32 18.06 179.00 21.96
  Q 180.38 23.97 180.39 28.38
  Q 180.40 33.51 180.32 53.50
  Q 180.30 57.30 177.41 59.68
  Z
  M 171.49 27.47
  A 0.76 0.76 0.0 0 0 170.73 26.71
  L 161.89 26.71
  A 0.76 0.76 0.0 0 0 161.13 27.47
  L 161.13 55.47
  A 0.76 0.76 0.0 0 0 161.89 56.23
  L 170.73 56.23
  A 0.76 0.76 0.0 0 0 171.49 55.47
  L 171.49 27.47
  Z
  M 171.49 65.94
  A 0.65 0.65 0.0 0 0 170.84 65.29
  L 161.76 65.29
  A 0.65 0.65 0.0 0 0 161.11 65.94
  L 161.11 98.00
  A 0.65 0.65 0.0 0 0 161.76 98.65
  L 170.84 98.65
  A 0.65 0.65 0.0 0 0 171.49 98.00
  L 171.49 65.94
  Z"
/>
<path fill="#f79226" d="
  M 232.6512 97.7249
  A 9.70 9.70 0.0 0 1 222.9682 107.4418
  L 213.6682 107.4580
  A 9.70 9.70 0.0 0 1 203.9513 97.7750
  L 203.8288 27.5951
  A 9.70 9.70 0.0 0 1 213.5118 17.8782
  L 222.8118 17.8620
  A 9.70 9.70 0.0 0 1 232.5287 27.5450
  L 232.6512 97.7249
  Z
  M 223.36 27.12
  A 0.32 0.32 0.0 0 0 223.04 26.80
  L 213.66 26.80
  A 0.32 0.32 0.0 0 0 213.34 27.12
  L 213.34 97.96
  A 0.32 0.32 0.0 0 0 213.66 98.28
  L 223.04 98.28
  A 0.32 0.32 0.0 0 0 223.36 97.96
  L 223.36 27.12
  Z"
/>
<path fill="#b2c918" d="
  M 333.42 64.80
  A 0.55 0.55 0.0 0 0 333.07 65.43
  L 341.81 106.97
  Q 341.85 107.14 341.67 107.14
  L 333.60 107.14
  Q 333.37 107.14 333.32 106.92
  Q 329.07 87.79 324.53 68.44
  Q 323.99 66.16 323.96 66.07
  Q 323.28 64.53 321.26 65.17
  A 1.17 1.17 0.0 0 0 320.45 66.28
  L 320.45 107.25
  Q 320.45 107.41 320.29 107.41
  L 312.35 107.41
  Q 312.02 107.41 312.02 107.08
  L 312.02 18.22
  Q 312.02 17.88 312.37 17.87
  Q 325.76 17.71 330.50 17.96
  Q 335.80 18.25 338.79 22.32
  Q 339.89 23.80 339.88 27.03
  Q 339.87 41.29 339.87 52.67
  Q 339.87 57.85 339.11 59.74
  Q 337.70 63.28 333.42 64.80
  Z
  M 331.32 27.07
  A 0.43 0.43 0.0 0 0 330.89 26.64
  L 321.25 26.64
  A 0.43 0.43 0.0 0 0 320.82 27.07
  L 320.82 55.21
  A 0.43 0.43 0.0 0 0 321.25 55.64
  L 330.89 55.64
  A 0.43 0.43 0.0 0 0 331.32 55.21
  L 331.32 27.07
  Z"
/>
<path fill="#b2c918" d="
  M 378.12 18.02
  Q 384.75 18.01 386.72 18.55
  Q 390.41 19.54 391.61 23.15
  Q 392.15 24.78 392.16 29.36
  Q 392.21 63.72 392.21 106.85
  Q 392.22 107.12 391.94 107.12
  L 383.92 107.12
  Q 383.62 107.12 383.62 106.82
  L 383.62 65.30
  Q 383.62 64.79 383.11 64.77
  Q 380.25 64.65 378.15 64.65
  Q 376.06 64.65 373.20 64.78
  Q 372.69 64.80 372.69 65.31
  L 372.75 106.83
  Q 372.75 107.13 372.45 107.13
  L 364.43 107.14
  Q 364.15 107.14 364.16 106.87
  Q 364.10 63.74 364.10 29.38
  Q 364.10 24.80 364.64 23.17
  Q 365.84 19.56 369.53 18.56
  Q 371.50 18.02 378.12 18.02
  Z
  M 383.36 27.72
  A 0.46 0.46 0.0 0 0 382.90 27.26
  L 373.30 27.26
  A 0.46 0.46 0.0 0 0 372.84 27.72
  L 372.84 55.38
  A 0.46 0.46 0.0 0 0 373.30 55.84
  L 382.90 55.84
  A 0.46 0.46 0.0 0 0 383.36 55.38
  L 383.36 27.72
  Z"
/>
<path fill="#b2c918" d="
  M 473.11 50.23
  Q 473.30 50.23 473.38 50.13
  C 475.07 48.08 478.31 44.02 478.34 40.75
  Q 478.40 32.96 478.30 18.66
  Q 478.30 18.24 478.72 18.24
  L 486.78 18.24
  Q 487.23 18.24 487.23 18.70
  Q 487.30 32.44 487.27 38.70
  Q 487.26 42.38 486.14 45.25
  C 484.28 50.03 481.18 54.69 478.35 59.22
  Q 478.07 59.68 478.36 60.12
  C 481.83 65.39 484.67 70.01 486.69 75.56
  Q 487.46 77.69 487.39 81.09
  Q 487.31 84.81 487.38 106.69
  Q 487.38 107.39 486.68 107.39
  L 479.44 107.39
  A 0.68 0.68 0.0 0 1 478.76 106.71
  L 478.76 78.75
  A 4.62 4.59 -60.2 0 0 478.14 76.44
  Q 476.02 72.78 473.25 69.27
  Q 473.23 69.24 473.19 69.24
  Q 473.17 69.24 473.15 69.24
  Q 473.12 69.24 473.10 69.24
  Q 473.06 69.24 473.04 69.27
  Q 470.29 72.79 468.18 76.46
  A 4.62 4.59 60.0 0 0 467.57 78.77
  L 467.66 106.73
  A 0.68 0.68 0.0 0 1 466.98 107.41
  L 459.74 107.44
  Q 459.04 107.44 459.04 106.74
  Q 459.04 84.86 458.94 81.14
  Q 458.86 77.74 459.63 75.61
  C 461.63 70.05 464.45 65.42 467.90 60.14
  Q 468.19 59.70 467.91 59.24
  C 465.06 54.72 461.95 50.07 460.07 45.29
  Q 458.94 42.43 458.92 38.75
  Q 458.87 32.49 458.89 18.75
  Q 458.89 18.29 459.34 18.29
  L 467.40 18.26
  Q 467.82 18.26 467.82 18.68
  Q 467.77 32.98 467.86 40.77
  C 467.90 44.04 471.15 48.09 472.85 50.13
  Q 472.93 50.23 473.11 50.23
  Z"
/>
<path fill="#b2c918" d="
  M 423.90 56.22
  L 433.83 56.22
  Q 434.14 56.22 434.14 56.52
  L 434.14 64.33
  Q 434.14 64.65 433.82 64.65
  L 423.71 64.65
  A 0.40 0.40 0.0 0 0 423.31 65.05
  L 423.31 106.79
  Q 423.31 107.13 422.96 107.13
  L 414.73 107.13
  Q 414.47 107.13 414.47 106.88
  Q 414.52 67.55 414.49 28.15
  Q 414.48 23.91 415.24 22.47
  C 416.60 19.89 418.52 18.35 421.74 18.27
  Q 427.56 18.12 436.15 18.37
  Q 436.53 18.38 436.53 18.77
  L 436.53 25.50
  A 0.26 0.26 0.0 0 1 436.27 25.76
  L 423.89 25.76
  Q 423.31 25.76 423.31 26.35
  L 423.31 55.62
  Q 423.31 56.22 423.90 56.22
  Z"
/>
<path fill="#fffefe" d="
  M 528.12 62.93
  Q 528.12 69.86 528.16 76.76
  A 0.38 0.38 0.0 0 0 528.54 77.14
  L 541.16 77.14
  Q 541.65 77.14 541.71 76.66
  Q 541.96 74.91 541.73 73.79
  Q 541.48 72.61 542.69 72.61
  L 545.83 72.61
  Q 547.07 72.61 546.99 73.84
  Q 546.86 75.72 546.94 78.16
  C 547.03 80.82 544.80 83.20 542.13 83.23
  Q 536.76 83.29 526.67 83.25
  A 4.66 4.66 0.0 0 1 522.03 78.58
  Q 522.05 69.91 522.06 62.93
  Q 522.05 55.96 522.04 47.29
  A 4.66 4.66 0.0 0 1 526.68 42.62
  Q 536.77 42.58 542.14 42.65
  C 544.81 42.68 547.04 45.06 546.95 47.72
  Q 546.87 50.16 547.00 52.04
  Q 547.08 53.27 545.84 53.27
  L 542.70 53.27
  Q 541.49 53.27 541.74 52.09
  Q 541.97 50.97 541.72 49.22
  Q 541.66 48.74 541.17 48.74
  L 528.55 48.73
  A 0.38 0.38 0.0 0 0 528.17 49.11
  Q 528.12 56.01 528.12 62.93
  Z"
/>
<path fill="#fffefe" d="
  M 584.59 62.94
  Q 584.59 74.32 584.53 77.08
  Q 584.47 80.26 583.32 81.62
  C 581.68 83.58 579.96 83.25 577.51 83.26
  Q 569.82 83.29 554.68 83.23
  Q 553.91 83.23 553.91 82.46
  L 553.91 77.83
  A 0.76 0.75 -89.6 0 1 554.67 77.07
  L 556.75 77.08
  Q 557.12 77.08 557.18 76.42
  Q 557.22 75.85 557.22 62.94
  Q 557.22 50.03 557.18 49.46
  Q 557.12 48.80 556.75 48.79
  L 554.67 48.80
  A 0.76 0.75 89.6 0 1 553.92 48.04
  L 553.92 43.41
  Q 553.92 42.64 554.69 42.64
  Q 569.83 42.59 577.52 42.62
  C 579.97 42.63 581.69 42.30 583.33 44.26
  Q 584.48 45.62 584.53 48.80
  Q 584.59 51.56 584.59 62.94
  Z
  M 578.47 49.41
  A 0.63 0.63 0.0 0 0 577.84 48.78
  L 564.26 48.78
  A 0.63 0.63 0.0 0 0 563.63 49.41
  L 563.63 76.51
  A 0.63 0.63 0.0 0 0 564.26 77.14
  L 577.84 77.14
  A 0.63 0.63 0.0 0 0 578.47 76.51
  L 578.47 49.41
  Z"
/>
<rect fill="#f79226" x="563.63" y="48.78" width="14.84" height="28.36" rx="0.63"/>
</svg>
