<?xml version="1.0" encoding="UTF-8" standalone="no"?>
<!DOCTYPE svg PUBLIC "-//W3C//DTD SVG 1.1//EN" "http://www.w3.org/Graphics/SVG/1.1/DTD/svg11.dtd">
<svg xmlns="http://www.w3.org/2000/svg" version="1.1" viewBox="0 0 600 154">
<g stroke-width="2.00" fill="none" stroke-linecap="butt">
<path stroke="#807974" vector-effect="non-scaling-stroke" d="
  M 532.25 20.79
  Q 532.22 21.00 532.00 21.04"
/>
<path stroke="#805200" vector-effect="non-scaling-stroke" d="
  M 532.00 21.04
  L 517.22 21.00
  A 1.23 1.22 90.0 0 0 516.00 22.23
  L 516.00 37.00"
/>
<path stroke="#808014" vector-effect="non-scaling-stroke" d="
  M 516.00 37.00
  L 501.26 37.00
  A 1.26 1.26 -89.1 0 0 500.00 38.26
  L 500.00 52.22
  A 0.78 0.78 89.9 0 0 500.78 53.00
  L 516.00 53.00"
/>
<path stroke="#00742b" vector-effect="non-scaling-stroke" d="
  M 516.00 53.00
  L 516.00 67.97
  A 1.00 0.96 89.4 0 0 516.98 68.97
  L 531.96 68.75"
/>
<path stroke="#807974" vector-effect="non-scaling-stroke" d="
  M 531.96 68.75
  L 532.04 69.25"
/>
<path stroke="#155780" vector-effect="non-scaling-stroke" d="
  M 532.04 69.25
  L 532.16 84.31
  A 0.54 0.53 89.4 0 0 532.69 84.84
  L 547.31 84.84
  A 0.52 0.52 0.0 0 0 547.83 84.32
  L 547.96 69.00"
/>
<path stroke="#807974" vector-effect="non-scaling-stroke" d="
  M 547.96 69.00
  Q 548.00 68.79 548.21 68.75"
/>
<path stroke="#423b4e" vector-effect="non-scaling-stroke" d="
  M 548.21 68.75
  L 562.89 68.97
  A 1.07 1.07 0.0 0 0 563.97 67.89
  L 563.75 53.29"
/>
<path stroke="#807974" vector-effect="non-scaling-stroke" d="
  M 563.75 53.29
  Q 563.98 53.23 564.04 53.00"
/>
<path stroke="#803c54" vector-effect="non-scaling-stroke" d="
  M 564.04 53.00
  L 579.06 53.00
  A 0.94 0.94 0.1 0 0 580.00 52.06
  L 580.00 37.66
  A 0.66 0.66 90.0 0 0 579.34 37.00
  L 564.25 37.00"
/>
<path stroke="#806655" vector-effect="non-scaling-stroke" d="
  M 564.25 37.00
  L 564.05 22.22
  A 1.18 1.12 89.7 0 0 562.93 21.05
  L 548.00 21.04"
/>
<path stroke="#807974" vector-effect="non-scaling-stroke" d="
  M 548.00 21.04
  L 547.75 20.96"
/>
<path stroke="#800027" vector-effect="non-scaling-stroke" d="
  M 547.75 20.96
  Q 548.31 13.32 547.84 5.68
  A 0.57 0.55 0.0 0 0 547.31 5.16
  Q 541.44 4.88 535.55 4.98
  C 531.68 5.05 532.07 4.72 531.98 8.57
  Q 531.84 14.69 532.25 20.79"
/>
<path stroke="#ff799b" vector-effect="non-scaling-stroke" d="
  M 547.75 20.96
  L 532.25 20.79"
/>
<path stroke="#ffdfc9" vector-effect="non-scaling-stroke" d="
  M 548.00 21.04
  L 548.00 36.23
  A 0.77 0.77 90.0 0 0 548.77 37.00
  L 564.25 37.00"
/>
<path stroke="#ffb4c8" vector-effect="non-scaling-stroke" d="
  M 564.25 37.00
  L 564.04 53.00"
/>
<path stroke="#c1b4c2" vector-effect="non-scaling-stroke" d="
  M 563.75 53.29
  Q 557.86 52.82 551.95 52.97
  C 547.68 53.08 548.06 52.56 547.98 56.90
  Q 547.87 62.83 548.21 68.75"
/>
<path stroke="#94cff4" vector-effect="non-scaling-stroke" d="
  M 547.96 69.00
  L 532.04 69.25"
/>
<path stroke="#80ec9f" vector-effect="non-scaling-stroke" d="
  M 531.96 68.75
  L 532.00 53.98
  A 0.99 0.98 -0.0 0 0 531.01 53.00
  L 516.00 53.00"
/>
<path stroke="#fff888" vector-effect="non-scaling-stroke" d="
  M 516.00 53.00
  L 516.00 37.00"
/>
<path stroke="#ffca74" vector-effect="non-scaling-stroke" d="
  M 516.00 37.00
  L 531.23 37.00
  A 0.77 0.77 90.0 0 0 532.00 36.23
  L 532.00 21.04"
/>
<path stroke="#807974" vector-effect="non-scaling-stroke" d="
  M 35.44 84.73
  L 21.13 84.95
  A 1.15 1.09 -0.5 0 0 20.00 86.04
  L 20.06 148.44
  A 0.51 0.50 0.0 0 0 20.57 148.94
  L 51.33 149.00
  A 0.67 0.67 0.0 0 0 52.00 148.33
  L 52.00 117.67
  A 0.67 0.67 0.0 0 1 52.67 117.00
  L 99.32 117.00
  A 0.68 0.68 0.0 0 0 100.00 116.32
  L 100.00 69.68
  A 0.68 0.68 0.0 0 0 99.32 69.00
  L 36.67 69.00
  A 0.67 0.67 0.0 0 0 36.00 69.67
  L 35.95 84.19
  A 0.55 0.52 -90.0 0 1 35.44 84.73"
/>
<path stroke="#807974" vector-effect="non-scaling-stroke" d="
  M 131.94 85.56
  L 132.00 132.19
  A 0.81 0.81 0.0 0 1 131.19 133.00
  L 116.76 133.00
  A 0.76 0.76 0.3 0 0 116.00 133.76
  L 116.00 148.18
  A 0.82 0.82 0.0 0 0 116.82 149.00
  L 179.19 149.00
  A 0.81 0.81 0.0 0 0 180.00 148.19
  L 180.00 133.94
  A 0.94 0.94 0.0 0 0 179.06 133.00
  L 164.66 133.00
  A 0.66 0.66 0.0 0 1 164.00 132.34
  L 164.00 85.66
  A 0.66 0.66 0.0 0 1 164.66 85.00
  L 179.34 85.00
  A 0.66 0.66 0.0 0 0 180.00 84.34
  L 180.00 69.92
  A 0.92 0.92 -89.7 0 0 179.08 69.00
  L 116.66 69.00
  A 0.66 0.66 0.0 0 0 116.00 69.66
  L 116.00 84.34
  A 0.67 0.66 0.0 0 0 116.67 85.00
  L 131.44 85.05
  A 0.51 0.51 0.6 0 1 131.94 85.56"
/>
<path stroke="#807974" vector-effect="non-scaling-stroke" d="
  M 211.44 84.73
  L 197.13 84.95
  A 1.15 1.09 -0.5 0 0 196.00 86.04
  L 196.06 148.20
  A 0.79 0.79 -89.9 0 0 196.85 148.99
  L 259.30 148.82
  A 0.54 0.52 0.5 0 0 259.84 148.31
  L 259.94 133.65
  A 0.67 0.65 0.0 0 0 259.27 133.00
  L 228.67 133.00
  A 0.67 0.67 0.0 0 1 228.00 132.33
  L 228.00 85.68
  A 0.68 0.68 0.0 0 1 228.68 85.00
  L 259.33 85.00
  A 0.67 0.67 0.2 0 0 260.00 84.33
  L 260.00 69.67
  A 0.67 0.67 -0.2 0 0 259.33 69.00
  L 212.69 69.00
  A 0.69 0.69 0.0 0 0 212.00 69.69
  L 211.95 84.19
  A 0.55 0.52 -90.0 0 1 211.44 84.73"
/>
<path stroke="#807974" vector-effect="non-scaling-stroke" d="
  M 291.44 84.73
  L 277.13 84.95
  A 1.15 1.09 -0.5 0 0 276.00 86.04
  L 276.06 148.20
  A 0.79 0.79 0.0 0 0 276.85 148.99
  L 339.30 148.82
  A 0.52 0.52 -89.4 0 0 339.82 148.31
  L 340.18 133.69
  A 0.54 0.52 -90.0 0 1 340.69 133.16
  L 355.19 133.02
  A 0.81 0.79 -0.0 0 0 356.00 132.23
  L 355.94 69.80
  A 0.79 0.79 -0.1 0 0 355.15 69.01
  L 292.70 69.18
  A 0.53 0.51 0.6 0 0 292.17 69.68
  L 291.94 84.19
  A 0.55 0.51 -90.0 0 1 291.44 84.73"
/>
<path stroke="#807974" vector-effect="non-scaling-stroke" d="
  M 435.44 100.73
  L 421.13 100.95
  A 1.15 1.09 -0.5 0 0 420.00 102.04
  L 420.06 148.44
  A 0.50 0.50 0.0 0 0 420.56 148.94
  L 499.32 149.00
  A 0.69 0.68 -90.0 0 0 500.00 148.31
  L 500.00 69.69
  A 0.69 0.69 0.0 0 0 499.31 69.00
  L 436.69 69.00
  A 0.69 0.69 0.0 0 0 436.00 69.69
  L 435.94 100.19
  A 0.54 0.51 89.5 0 1 435.44 100.73"
/>
<path stroke="#807974" vector-effect="non-scaling-stroke" d="
  M 67.9871 85.6260
  A 0.64 0.64 0.0 0 0 67.3460 84.9872
  L 52.6260 85.0129
  A 0.64 0.64 0.0 0 0 51.9872 85.6540
  L 52.0129 100.3740
  A 0.64 0.64 0.0 0 0 52.6540 101.0128
  L 67.3740 100.9871
  A 0.64 0.64 0.0 0 0 68.0128 100.3460
  L 67.9871 85.6260"
/>
<path stroke="#807974" vector-effect="non-scaling-stroke" d="
  M 324.00 85.60
  A 0.60 0.60 0.0 0 0 323.40 85.00
  L 308.60 85.00
  A 0.60 0.60 0.0 0 0 308.00 85.60
  L 308.00 132.40
  A 0.60 0.60 0.0 0 0 308.60 133.00
  L 323.40 133.00
  A 0.60 0.60 0.0 0 0 324.00 132.40
  L 324.00 85.60"
/>
<path stroke="#807974" vector-effect="non-scaling-stroke" d="
  M 484.00 85.60
  A 0.60 0.60 0.0 0 0 483.40 85.00
  L 452.60 85.00
  A 0.60 0.60 0.0 0 0 452.00 85.60
  L 452.00 100.40
  A 0.60 0.60 0.0 0 0 452.60 101.00
  L 483.40 101.00
  A 0.60 0.60 0.0 0 0 484.00 100.40
  L 484.00 85.60"
/>
<path stroke="#807974" vector-effect="non-scaling-stroke" d="
  M 484.00 117.65
  A 0.65 0.65 0.0 0 0 483.35 117.00
  L 452.65 117.00
  A 0.65 0.65 0.0 0 0 452.00 117.65
  L 452.00 132.35
  A 0.65 0.65 0.0 0 0 452.65 133.00
  L 483.35 133.00
  A 0.65 0.65 0.0 0 0 484.00 132.35
  L 484.00 117.65"
/>
<path stroke="#807974" vector-effect="non-scaling-stroke" d="
  M 404.00 101.60
  A 0.60 0.60 0.0 0 0 403.40 101.00
  L 372.60 101.00
  A 0.60 0.60 0.0 0 0 372.00 101.60
  L 372.00 116.40
  A 0.60 0.60 0.0 0 0 372.60 117.00
  L 403.40 117.00
  A 0.60 0.60 0.0 0 0 404.00 116.40
  L 404.00 101.60"
/>
</g>
<path fill="#000000" d="
  M 527.45 73.07
  L 514.63 72.56
  Q 512.33 72.47 512.25 70.02
  L 511.83 57.69
  A 0.54 0.53 90.0 0 0 511.32 57.17
  L 499.04 56.69
  Q 496.72 56.60 496.44 54.27
  Q 495.34 45.10 496.44 35.42
  Q 496.68 33.29 498.78 33.25
  L 511.08 33.00
  A 1.00 0.97 -90.0 0 0 512.03 32.02
  L 512.23 19.98
  Q 512.28 17.31 515.24 17.25
  L 527.06 17.01
  A 1.08 0.98 -89.9 0 0 528.02 15.95
  L 528.25 3.73
  Q 528.30 1.41 530.75 1.25
  Q 540.09 0.65 549.45 1.31
  Q 551.42 1.45 551.52 3.43
  L 552.16 16.31
  A 0.62 0.61 2.3 0 0 552.69 16.88
  Q 559.49 17.76 562.75 17.25
  C 568.14 16.40 567.68 19.82 567.88 23.98
  Q 568.09 28.12 568.00 32.28
  A 0.66 0.62 -89.1 0 0 568.61 32.95
  L 580.57 33.23
  Q 583.40 33.29 583.56 35.96
  Q 584.03 43.74 584.06 52.50
  C 584.07 57.24 581.09 56.70 577.11 56.82
  Q 573.43 56.93 569.04 57.03
  A 1.15 1.10 89.8 0 0 567.96 58.17
  L 567.81 69.78
  Q 567.77 72.66 564.65 72.74
  L 552.97 73.03
  A 1.00 0.99 89.4 0 0 552.00 74.03
  C 552.00 78.28 553.97 89.00 547.79 88.87
  C 542.16 88.76 536.72 89.13 531.24 88.78
  Q 528.32 88.60 528.25 85.77
  L 527.94 73.56
  A 0.51 0.51 90.0 0 0 527.45 73.07
  Z
  M 532.25 20.79
  Q 532.22 21.00 532.00 21.04
  L 517.22 21.00
  A 1.23 1.22 90.0 0 0 516.00 22.23
  L 516.00 37.00
  L 501.26 37.00
  A 1.26 1.26 -89.1 0 0 500.00 38.26
  L 500.00 52.22
  A 0.78 0.78 89.9 0 0 500.78 53.00
  L 516.00 53.00
  L 516.00 67.97
  A 1.00 0.96 89.4 0 0 516.98 68.97
  L 531.96 68.75
  L 532.04 69.25
  L 532.16 84.31
  A 0.54 0.53 89.4 0 0 532.69 84.84
  L 547.31 84.84
  A 0.52 0.52 0.0 0 0 547.83 84.32
  L 547.96 69.00
  Q 548.00 68.79 548.21 68.75
  L 562.89 68.97
  A 1.07 1.07 0.0 0 0 563.97 67.89
  L 563.75 53.29
  Q 563.98 53.23 564.04 53.00
  L 579.06 53.00
  A 0.94 0.94 0.1 0 0 580.00 52.06
  L 580.00 37.66
  A 0.66 0.66 90.0 0 0 579.34 37.00
  L 564.25 37.00
  L 564.05 22.22
  A 1.18 1.12 89.7 0 0 562.93 21.05
  L 548.00 21.04
  L 547.75 20.96
  Q 548.31 13.32 547.84 5.68
  A 0.57 0.55 0.0 0 0 547.31 5.16
  Q 541.44 4.88 535.55 4.98
  C 531.68 5.05 532.07 4.72 531.98 8.57
  Q 531.84 14.69 532.25 20.79
  Z"
/>
<path fill="#ff004d" d="
  M 547.75 20.96
  L 532.25 20.79
  Q 531.84 14.69 531.98 8.57
  C 532.07 4.72 531.68 5.05 535.55 4.98
  Q 541.44 4.88 547.31 5.16
  A 0.57 0.55 0.0 0 1 547.84 5.68
  Q 548.31 13.32 547.75 20.96
  Z"
/>
<path fill="#fff1e8" d="
  M 532.25 20.79
  L 547.75 20.96
  L 548.00 21.04
  L 548.00 36.23
  A 0.77 0.77 90.0 0 0 548.77 37.00
  L 564.25 37.00
  L 564.04 53.00
  Q 563.98 53.23 563.75 53.29
  Q 557.86 52.82 551.95 52.97
  C 547.68 53.08 548.06 52.56 547.98 56.90
  Q 547.87 62.83 548.21 68.75
  Q 548.00 68.79 547.96 69.00
  L 532.04 69.25
  L 531.96 68.75
  L 532.00 53.98
  A 0.99 0.98 -0.0 0 0 531.01 53.00
  L 516.00 53.00
  L 516.00 37.00
  L 531.23 37.00
  A 0.77 0.77 90.0 0 0 532.00 36.23
  L 532.00 21.04
  Q 532.22 21.00 532.25 20.79
  Z"
/>
<path fill="#ffa300" d="
  M 532.00 21.04
  L 532.00 36.23
  A 0.77 0.77 89.7 0 1 531.23 37.00
  L 516.00 37.00
  L 516.00 22.23
  A 1.23 1.22 90.0 0 1 517.22 21.00
  L 532.00 21.04
  Z"
/>
<path fill="#ffccaa" d="
  M 548.00 21.04
  L 562.93 21.05
  A 1.18 1.12 89.7 0 1 564.05 22.22
  L 564.25 37.00
  L 548.77 37.00
  A 0.77 0.77 -89.7 0 1 548.00 36.23
  L 548.00 21.04
  Z"
/>
<path fill="#ffff27" d="
  M 516.00 37.00
  L 516.00 53.00
  L 500.78 53.00
  A 0.78 0.78 89.9 0 1 500.00 52.22
  L 500.00 38.26
  A 1.26 1.26 88.2 0 1 501.26 37.00
  L 516.00 37.00
  Z"
/>
<path fill="#ff77a8" d="
  M 564.25 37.00
  L 579.34 37.00
  A 0.66 0.66 89.5 0 1 580.00 37.66
  L 580.00 52.06
  A 0.94 0.94 0.1 0 1 579.06 53.00
  L 564.04 53.00
  L 564.25 37.00
  Z"
/>
<path fill="#00e756" d="
  M 516.00 53.00
  L 531.01 53.00
  A 0.99 0.98 0.0 0 1 532.00 53.98
  L 531.96 68.75
  L 516.98 68.97
  A 1.00 0.96 89.4 0 1 516.00 67.97
  L 516.00 53.00
  Z"
/>
<path fill="#83769c" d="
  M 563.75 53.29
  L 563.97 67.89
  A 1.07 1.07 -0.0 0 1 562.89 68.97
  L 548.21 68.75
  Q 547.87 62.83 547.98 56.90
  C 548.06 52.56 547.68 53.08 551.95 52.97
  Q 557.86 52.82 563.75 53.29
  Z"
/>
<path fill="#000000" d="
  M 30.54 80.76
  A 1.71 1.69 87.0 0 0 32.15 78.95
  Q 31.71 71.71 32.47 67.20
  Q 32.79 65.25 34.73 65.25
  L 101.24 65.25
  Q 103.69 65.25 103.75 67.74
  Q 104.34 92.29 103.79 116.84
  C 103.72 119.97 102.43 120.92 99.44 120.94
  Q 78.72 121.05 56.81 121.00
  A 0.81 0.80 0.0 0 0 56.00 121.80
  Q 56.00 136.00 56.00 149.00
  C 56.00 152.57 53.16 153.00 50.11 153.00
  Q 35.41 153.00 20.72 153.00
  C 18.26 153.00 16.00 151.59 16.00 148.99
  Q 16.00 118.99 15.99 89.00
  Q 15.99 86.28 16.31 83.54
  Q 16.57 81.34 18.83 81.25
  L 30.54 80.76
  Z
  M 35.44 84.73
  L 21.13 84.95
  A 1.15 1.09 -0.5 0 0 20.00 86.04
  L 20.06 148.44
  A 0.51 0.50 0.0 0 0 20.57 148.94
  L 51.33 149.00
  A 0.67 0.67 0.0 0 0 52.00 148.33
  L 52.00 117.67
  A 0.67 0.67 0.0 0 1 52.67 117.00
  L 99.32 117.00
  A 0.68 0.68 0.0 0 0 100.00 116.32
  L 100.00 69.68
  A 0.68 0.68 0.0 0 0 99.32 69.00
  L 36.67 69.00
  A 0.67 0.67 0.0 0 0 36.00 69.67
  L 35.95 84.19
  A 0.55 0.52 -90.0 0 1 35.44 84.73
  Z"
/>
<path fill="#000000" d="
  M 127.18 128.72
  A 0.87 0.86 88.6 0 0 128.00 127.85
  L 128.00 89.87
  A 0.88 0.87 -0.0 0 0 127.12 89.00
  Q 121.78 89.05 116.06 88.94
  C 113.12 88.89 112.31 87.14 112.15 84.41
  Q 111.64 75.72 112.47 67.33
  Q 112.67 65.25 114.73 65.25
  L 181.27 65.25
  Q 183.32 65.25 183.51 67.32
  Q 184.38 76.87 183.79 85.92
  Q 183.61 88.63 181.05 88.69
  L 168.86 88.97
  A 0.88 0.84 -0.7 0 0 168.00 89.81
  L 168.00 128.20
  A 0.84 0.83 -0.7 0 0 168.86 129.03
  Q 175.13 128.86 180.26 129.11
  Q 183.82 129.28 183.81 132.60
  C 183.79 138.53 184.19 144.20 183.81 149.79
  Q 183.62 152.70 180.71 152.74
  Q 148.03 153.19 116.31 152.96
  Q 112.33 152.93 112.11 149.01
  Q 111.64 140.63 112.25 132.23
  Q 112.46 129.37 115.41 129.24
  L 127.18 128.72
  Z
  M 131.94 85.56
  L 132.00 132.19
  A 0.81 0.81 0.0 0 1 131.19 133.00
  L 116.76 133.00
  A 0.76 0.76 0.3 0 0 116.00 133.76
  L 116.00 148.18
  A 0.82 0.82 0.0 0 0 116.82 149.00
  L 179.19 149.00
  A 0.81 0.81 0.0 0 0 180.00 148.19
  L 180.00 133.94
  A 0.94 0.94 0.0 0 0 179.06 133.00
  L 164.66 133.00
  A 0.66 0.66 0.0 0 1 164.00 132.34
  L 164.00 85.66
  A 0.66 0.66 0.0 0 1 164.66 85.00
  L 179.34 85.00
  A 0.66 0.66 0.0 0 0 180.00 84.34
  L 180.00 69.92
  A 0.92 0.92 -89.7 0 0 179.08 69.00
  L 116.66 69.00
  A 0.66 0.66 0.0 0 0 116.00 69.66
  L 116.00 84.34
  A 0.67 0.66 0.0 0 0 116.67 85.00
  L 131.44 85.05
  A 0.51 0.51 0.6 0 1 131.94 85.56
  Z"
/>
<path fill="#000000" d="
  M 206.54 80.76
  A 1.71 1.69 87.0 0 0 208.15 78.95
  Q 207.71 71.71 208.47 67.20
  Q 208.79 65.25 210.73 65.25
  L 261.27 65.25
  Q 263.32 65.25 263.51 67.32
  Q 264.37 76.87 263.80 85.73
  Q 263.61 88.70 260.69 88.73
  L 232.81 88.99
  A 0.82 0.80 -0.4 0 0 232.00 89.79
  L 232.00 128.07
  A 0.95 0.95 -0.3 0 0 232.96 129.02
  Q 246.67 128.84 259.24 129.20
  C 264.08 129.33 263.57 130.80 263.82 134.76
  Q 264.30 142.70 263.81 149.83
  Q 263.62 152.69 260.75 152.75
  Q 227.75 153.36 194.99 152.75
  Q 192.30 152.70 192.25 150.01
  Q 191.64 117.13 192.25 84.23
  Q 192.30 81.36 195.22 81.24
  L 206.54 80.76
  Z
  M 211.44 84.73
  L 197.13 84.95
  A 1.15 1.09 -0.5 0 0 196.00 86.04
  L 196.06 148.20
  A 0.79 0.79 -89.9 0 0 196.85 148.99
  L 259.30 148.82
  A 0.54 0.52 0.5 0 0 259.84 148.31
  L 259.94 133.65
  A 0.67 0.65 0.0 0 0 259.27 133.00
  L 228.67 133.00
  A 0.67 0.67 0.0 0 1 228.00 132.33
  L 228.00 85.68
  A 0.68 0.68 0.0 0 1 228.68 85.00
  L 259.33 85.00
  A 0.67 0.67 0.2 0 0 260.00 84.33
  L 260.00 69.67
  A 0.67 0.67 -0.2 0 0 259.33 69.00
  L 212.69 69.00
  A 0.69 0.69 0.0 0 0 212.00 69.69
  L 211.95 84.19
  A 0.55 0.52 -90.0 0 1 211.44 84.73
  Z"
/>
<path fill="#000000" d="
  M 286.56 80.76
  A 1.69 1.67 87.0 0 0 288.15 78.97
  Q 287.71 71.71 288.36 67.82
  Q 288.79 65.25 291.35 65.25
  L 357.26 65.25
  Q 359.72 65.25 359.75 67.74
  Q 360.18 100.12 360.00 132.50
  C 359.98 135.65 358.67 136.66 355.58 136.87
  Q 348.48 137.35 346.75 137.00
  C 343.48 136.34 343.96 138.25 344.02 140.40
  Q 344.26 148.32 343.75 150.50
  C 343.11 153.21 340.37 152.73 338.20 152.77
  Q 306.60 153.34 274.99 152.75
  Q 272.30 152.70 272.25 150.01
  Q 271.64 117.13 272.25 84.23
  Q 272.30 81.36 275.23 81.24
  L 286.56 80.76
  Z
  M 291.44 84.73
  L 277.13 84.95
  A 1.15 1.09 -0.5 0 0 276.00 86.04
  L 276.06 148.20
  A 0.79 0.79 0.0 0 0 276.85 148.99
  L 339.30 148.82
  A 0.52 0.52 -89.4 0 0 339.82 148.31
  L 340.18 133.69
  A 0.54 0.52 -90.0 0 1 340.69 133.16
  L 355.19 133.02
  A 0.81 0.79 -0.0 0 0 356.00 132.23
  L 355.94 69.80
  A 0.79 0.79 -0.1 0 0 355.15 69.01
  L 292.70 69.18
  A 0.53 0.51 0.6 0 0 292.17 69.68
  L 291.94 84.19
  A 0.55 0.51 -90.0 0 1 291.44 84.73
  Z"
/>
<path fill="#000000" d="
  M 432.38 68.39
  Q 432.60 64.95 436.04 65.06
  C 457.47 65.74 479.03 64.84 500.52 65.25
  Q 503.72 65.31 503.76 68.51
  Q 504.18 108.37 503.95 148.75
  C 503.92 153.19 501.17 152.73 497.50 152.77
  Q 460.20 153.16 422.91 153.00
  C 418.69 152.99 416.00 152.93 416.00 147.72
  Q 416.00 124.61 416.00 101.50
  C 416.00 97.11 418.77 97.28 422.13 97.24
  Q 426.73 97.20 430.12 96.93
  Q 432.38 96.75 432.27 94.49
  Q 431.62 79.99 432.38 68.39
  Z
  M 435.44 100.73
  L 421.13 100.95
  A 1.15 1.09 -0.5 0 0 420.00 102.04
  L 420.06 148.44
  A 0.50 0.50 0.0 0 0 420.56 148.94
  L 499.32 149.00
  A 0.69 0.68 -90.0 0 0 500.00 148.31
  L 500.00 69.69
  A 0.69 0.69 0.0 0 0 499.31 69.00
  L 436.69 69.00
  A 0.69 0.69 0.0 0 0 436.00 69.69
  L 435.94 100.19
  A 0.54 0.51 89.5 0 1 435.44 100.73
  Z"
/>
<path fill="#fff1e8" d="
  M 35.95 84.19
  L 36.00 69.67
  A 0.67 0.67 0.0 0 1 36.67 69.00
  L 99.32 69.00
  A 0.68 0.68 0.0 0 1 100.00 69.68
  L 100.00 116.32
  A 0.68 0.68 0.0 0 1 99.32 117.00
  L 52.67 117.00
  A 0.67 0.67 0.0 0 0 52.00 117.67
  L 52.00 148.33
  A 0.67 0.67 -0.0 0 1 51.33 149.00
  L 20.57 148.94
  A 0.51 0.50 0.0 0 1 20.06 148.44
  L 20.00 86.04
  A 1.15 1.09 -0.5 0 1 21.13 84.95
  L 35.44 84.73
  A 0.55 0.52 -90.0 0 0 35.95 84.19
  Z
  M 67.9871 85.6260
  A 0.64 0.64 0.0 0 0 67.3460 84.9872
  L 52.6260 85.0129
  A 0.64 0.64 0.0 0 0 51.9872 85.6540
  L 52.0129 100.3740
  A 0.64 0.64 0.0 0 0 52.6540 101.0128
  L 67.3740 100.9871
  A 0.64 0.64 0.0 0 0 68.0128 100.3460
  L 67.9871 85.6260
  Z"
/>
<path fill="#fff1e8" d="
  M 131.44 85.05
  L 116.67 85.00
  A 0.67 0.66 0.0 0 1 116.00 84.34
  L 116.00 69.66
  A 0.66 0.66 0.0 0 1 116.66 69.00
  L 179.08 69.00
  A 0.92 0.92 89.4 0 1 180.00 69.92
  L 180.00 84.34
  A 0.66 0.66 0.0 0 1 179.34 85.00
  L 164.66 85.00
  A 0.66 0.66 0.0 0 0 164.00 85.66
  L 164.00 132.34
  A 0.66 0.66 0.0 0 0 164.66 133.00
  L 179.06 133.00
  A 0.94 0.94 0.0 0 1 180.00 133.94
  L 180.00 148.19
  A 0.81 0.81 0.0 0 1 179.19 149.00
  L 116.82 149.00
  A 0.82 0.82 0.0 0 1 116.00 148.18
  L 116.00 133.76
  A 0.76 0.76 -0.3 0 1 116.76 133.00
  L 131.19 133.00
  A 0.81 0.81 0.0 0 0 132.00 132.19
  L 131.94 85.56
  A 0.51 0.51 0.6 0 0 131.44 85.05
  Z"
/>
<path fill="#fff1e8" d="
  M 211.95 84.19
  L 212.00 69.69
  A 0.69 0.69 0.0 0 1 212.69 69.00
  L 259.33 69.00
  A 0.67 0.67 0.4 0 1 260.00 69.67
  L 260.00 84.33
  A 0.67 0.67 -0.4 0 1 259.33 85.00
  L 228.68 85.00
  A 0.68 0.68 0.0 0 0 228.00 85.68
  L 228.00 132.33
  A 0.67 0.67 0.0 0 0 228.67 133.00
  L 259.27 133.00
  A 0.67 0.65 -0.0 0 1 259.94 133.65
  L 259.84 148.31
  A 0.54 0.52 0.5 0 1 259.30 148.82
  L 196.85 148.99
  A 0.79 0.79 -89.7 0 1 196.06 148.20
  L 196.00 86.04
  A 1.15 1.09 -0.5 0 1 197.13 84.95
  L 211.44 84.73
  A 0.55 0.52 -90.0 0 0 211.95 84.19
  Z"
/>
<path fill="#fff1e8" d="
  M 291.94 84.19
  L 292.17 69.68
  A 0.53 0.51 0.6 0 1 292.70 69.18
  L 355.15 69.01
  A 0.79 0.79 -0.3 0 1 355.94 69.80
  L 356.00 132.23
  A 0.81 0.79 -0.0 0 1 355.19 133.02
  L 340.69 133.16
  A 0.54 0.52 -90.0 0 0 340.18 133.69
  L 339.82 148.31
  A 0.52 0.52 -89.4 0 1 339.30 148.82
  L 276.85 148.99
  A 0.79 0.79 0.0 0 1 276.06 148.20
  L 276.00 86.04
  A 1.15 1.09 -0.5 0 1 277.13 84.95
  L 291.44 84.73
  A 0.55 0.51 -90.0 0 0 291.94 84.19
  Z
  M 324.00 85.60
  A 0.60 0.60 0.0 0 0 323.40 85.00
  L 308.60 85.00
  A 0.60 0.60 0.0 0 0 308.00 85.60
  L 308.00 132.40
  A 0.60 0.60 0.0 0 0 308.60 133.00
  L 323.40 133.00
  A 0.60 0.60 0.0 0 0 324.00 132.40
  L 324.00 85.60
  Z"
/>
<path fill="#fff1e8" d="
  M 435.94 100.19
  L 436.00 69.69
  A 0.69 0.69 0.0 0 1 436.69 69.00
  L 499.31 69.00
  A 0.69 0.69 0.0 0 1 500.00 69.69
  L 500.00 148.31
  A 0.69 0.68 -90.0 0 1 499.32 149.00
  L 420.56 148.94
  A 0.50 0.50 0.0 0 1 420.06 148.44
  L 420.00 102.04
  A 1.15 1.09 -0.5 0 1 421.13 100.95
  L 435.44 100.73
  A 0.54 0.51 89.5 0 0 435.94 100.19
  Z
  M 484.00 85.60
  A 0.60 0.60 0.0 0 0 483.40 85.00
  L 452.60 85.00
  A 0.60 0.60 0.0 0 0 452.00 85.60
  L 452.00 100.40
  A 0.60 0.60 0.0 0 0 452.60 101.00
  L 483.40 101.00
  A 0.60 0.60 0.0 0 0 484.00 100.40
  L 484.00 85.60
  Z
  M 484.00 117.65
  A 0.65 0.65 0.0 0 0 483.35 117.00
  L 452.65 117.00
  A 0.65 0.65 0.0 0 0 452.00 117.65
  L 452.00 132.35
  A 0.65 0.65 0.0 0 0 452.65 133.00
  L 483.35 133.00
  A 0.65 0.65 0.0 0 0 484.00 132.35
  L 484.00 117.65
  Z"
/>
<path fill="#29adff" d="
  M 547.96 69.00
  L 547.83 84.32
  A 0.52 0.52 0.1 0 1 547.31 84.84
  L 532.69 84.84
  A 0.54 0.53 89.4 0 1 532.16 84.31
  L 532.04 69.25
  L 547.96 69.00
  Z"
/>
<path fill="#000000" d="
  M 68.0128 100.3460
  A 0.64 0.64 0.0 0 1 67.3740 100.9871
  L 52.6540 101.0128
  A 0.64 0.64 0.0 0 1 52.0129 100.3740
  L 51.9872 85.6540
  A 0.64 0.64 0.0 0 1 52.6260 85.0129
  L 67.3460 84.9872
  A 0.64 0.64 0.0 0 1 67.9871 85.6260
  L 68.0128 100.3460
  Z
  M 63.9687 89.9022
  A 1.00 1.00 0.0 0 0 62.9618 88.9092
  L 56.9819 88.9510
  A 1.00 1.00 0.0 0 0 55.9889 89.9579
  L 56.0313 96.0178
  A 1.00 1.00 0.0 0 0 57.0382 97.0108
  L 63.0181 96.9690
  A 1.00 1.00 0.0 0 0 64.0111 95.9621
  L 63.9687 89.9022
  Z"
/>
<path fill="#000000" d="
  M 324.00 132.40
  A 0.60 0.60 0.0 0 1 323.40 133.00
  L 308.60 133.00
  A 0.60 0.60 0.0 0 1 308.00 132.40
  L 308.00 85.60
  A 0.60 0.60 0.0 0 1 308.60 85.00
  L 323.40 85.00
  A 0.60 0.60 0.0 0 1 324.00 85.60
  L 324.00 132.40
  Z
  M 320.00 89.72
  A 0.73 0.73 0.0 0 0 319.27 88.99
  L 312.73 88.99
  A 0.73 0.73 0.0 0 0 312.00 89.72
  L 312.00 128.26
  A 0.73 0.73 0.0 0 0 312.73 128.99
  L 319.27 128.99
  A 0.73 0.73 0.0 0 0 320.00 128.26
  L 320.00 89.72
  Z"
/>
<path fill="#000000" d="
  M 484.00 100.40
  A 0.60 0.60 0.0 0 1 483.40 101.00
  L 452.60 101.00
  A 0.60 0.60 0.0 0 1 452.00 100.40
  L 452.00 85.60
  A 0.60 0.60 0.0 0 1 452.60 85.00
  L 483.40 85.00
  A 0.60 0.60 0.0 0 1 484.00 85.60
  L 484.00 100.40
  Z
  M 480.1440 89.9568
  A 1.05 1.05 0.0 0 0 479.0885 88.9123
  L 457.0288 89.0278
  A 1.05 1.05 0.0 0 0 455.9843 90.0833
  L 456.0160 96.1432
  A 1.05 1.05 0.0 0 0 457.0715 97.1877
  L 479.1312 97.0722
  A 1.05 1.05 0.0 0 0 480.1757 96.0167
  L 480.1440 89.9568
  Z"
/>
<path fill="#000000" d="
  M 407.9883 117.0503
  A 3.84 3.84 0.0 0 1 404.1617 120.9037
  L 371.9219 121.0162
  A 3.84 3.84 0.0 0 1 368.0685 117.1896
  L 368.0117 100.9297
  A 3.84 3.84 0.0 0 1 371.8383 97.0763
  L 404.0781 96.9638
  A 3.84 3.84 0.0 0 1 407.9315 100.7904
  L 407.9883 117.0503
  Z
  M 404.00 101.60
  A 0.60 0.60 0.0 0 0 403.40 101.00
  L 372.60 101.00
  A 0.60 0.60 0.0 0 0 372.00 101.60
  L 372.00 116.40
  A 0.60 0.60 0.0 0 0 372.60 117.00
  L 403.40 117.00
  A 0.60 0.60 0.0 0 0 404.00 116.40
  L 404.00 101.60
  Z"
/>
<rect fill="#fff1e8" x="372.00" y="101.00" width="32.00" height="16.00" rx="0.60"/>
<path fill="#000000" d="
  M 484.00 132.35
  A 0.65 0.65 0.0 0 1 483.35 133.00
  L 452.65 133.00
  A 0.65 0.65 0.0 0 1 452.00 132.35
  L 452.00 117.65
  A 0.65 0.65 0.0 0 1 452.65 117.00
  L 483.35 117.00
  A 0.65 0.65 0.0 0 1 484.00 117.65
  L 484.00 132.35
  Z
  M 480.1383 121.8958
  A 1.02 1.02 0.0 0 0 479.1112 120.8830
  L 457.0118 121.0372
  A 1.02 1.02 0.0 0 0 455.9989 122.0643
  L 456.0417 128.1842
  A 1.02 1.02 0.0 0 0 457.0688 129.1970
  L 479.1682 129.0428
  A 1.02 1.02 0.0 0 0 480.1811 128.0157
  L 480.1383 121.8958
  Z"
/>
</svg>
