<?xml version="1.0" encoding="UTF-8" standalone="no"?>
<!DOCTYPE svg PUBLIC "-//W3C//DTD SVG 1.1//EN" "http://www.w3.org/Graphics/SVG/1.1/DTD/svg11.dtd">
<svg xmlns="http://www.w3.org/2000/svg" version="1.1" viewBox="0.00 0.00 600.00 300.00">
<path fill="#000000" d="
  M 510.4443 68.1469
  A 17.83 17.83 0.0 0 1 492.5522 85.9145
  L 449.7324 85.7651
  A 17.83 17.83 0.0 0 1 431.9648 67.8729
  L 432.0557 41.8331
  A 17.83 17.83 0.0 0 1 449.9478 24.0655
  L 492.7676 24.2149
  A 17.83 17.83 0.0 0 1 510.5352 42.1071
  L 510.4443 68.1469
  Z
  M 492.42 48.76
  A 9.47 9.47 0.0 0 0 482.95 39.29
  L 459.65 39.29
  A 9.47 9.47 0.0 0 0 450.18 48.76
  L 450.18 61.20
  A 9.47 9.47 0.0 0 0 459.65 70.67
  L 482.95 70.67
  A 9.47 9.47 0.0 0 0 492.42 61.20
  L 492.42 48.76
  Z"
/>
<path fill="#000000" d="
  M 152.71 85.28
  Q 147.82 85.28 144.46 85.19
  A 0.70 0.70 0.0 0 1 143.78 84.49
  L 143.78 40.27
  A 0.66 0.65 -90.0 0 0 143.13 39.61
  L 120.27 39.61
  A 0.83 0.83 0.0 0 1 119.44 38.78
  L 119.44 25.29
  A 0.57 0.56 -90.0 0 1 120.00 24.72
  Q 136.33 24.66 152.69 24.66
  Q 169.05 24.65 185.38 24.70
  A 0.57 0.56 90.0 0 1 185.94 25.27
  L 185.95 38.76
  A 0.83 0.83 0.0 0 1 185.12 39.59
  L 162.26 39.60
  A 0.66 0.65 90.0 0 0 161.61 40.26
  L 161.65 84.48
  A 0.70 0.70 0.0 0 1 160.97 85.18
  Q 157.61 85.28 152.71 85.28
  Z"
/>
<path fill="#000000" d="
  M 338.82 60.49
  Q 336.82 61.16 338.76 61.98
  C 343.73 64.07 345.63 67.30 345.79 72.95
  Q 345.97 79.51 345.80 84.71
  A 0.58 0.57 0.5 0 1 345.22 85.27
  L 328.73 85.27
  A 0.64 0.64 0.0 0 1 328.09 84.67
  Q 327.83 80.91 328.06 75.79
  Q 328.21 72.46 325.43 70.73
  Q 324.05 69.87 320.43 69.82
  Q 303.01 69.57 290.36 69.77
  A 0.72 0.71 89.6 0 0 289.66 70.49
  L 289.66 84.67
  A 0.61 0.61 0.0 0 1 289.05 85.28
  L 272.50 85.28
  Q 271.72 85.28 271.72 84.50
  L 271.72 25.46
  A 0.77 0.77 0.0 0 1 272.49 24.69
  Q 296.23 24.74 323.98 24.60
  C 329.29 24.57 338.99 25.64 342.61 30.30
  Q 345.12 33.55 345.70 37.57
  Q 347.21 47.92 345.03 54.11
  Q 343.31 59.00 338.82 60.49
  Z
  M 289.66 40.70
  L 289.66 53.70
  A 0.89 0.89 0.0 0 0 290.55 54.59
  L 321.55 54.59
  A 6.69 6.30 0.0 0 0 328.24 48.29
  L 328.24 46.11
  A 6.69 6.30 -0.0 0 0 321.55 39.81
  L 290.55 39.81
  A 0.89 0.89 0.0 0 0 289.66 40.70
  Z"
/>
<path fill="#000000" d="
  M 600.00 24.68
  L 600.00 85.14
  L 573.41 85.15
  Q 572.74 85.15 572.32 84.64
  L 537.64 42.17
  Q 536.76 41.09 536.76 42.48
  L 536.76 84.61
  A 0.62 0.61 -0.0 0 1 536.14 85.22
  L 518.70 85.22
  A 0.34 0.33 -0.0 0 1 518.36 84.89
  L 518.36 25.22
  A 0.58 0.58 0.0 0 1 518.94 24.64
  L 544.76 24.64
  A 1.70 1.70 0.0 0 1 546.08 25.27
  L 580.66 67.61
  Q 581.59 68.75 581.59 67.28
  L 581.59 25.21
  A 0.54 0.54 0.0 0 1 582.13 24.67
  L 600.00 24.68
  Z"
/>
<path fill="#000000" d="
  M 0.00 85.11
  L 0.00 24.86
  L 17.42 24.84
  A 0.38 0.38 0.0 0 1 17.80 25.22
  L 17.80 84.75
  A 0.36 0.36 0.0 0 1 17.44 85.11
  L 0.00 85.11
  Z"
/>
<path fill="#000000" d="
  M 61.03 60.48
  Q 53.39 51.74 46.36 42.54
  Q 45.18 41.00 45.18 42.94
  L 45.18 84.74
  A 0.58 0.57 -0.0 0 1 44.60 85.31
  L 27.18 85.31
  A 0.54 0.53 -0.0 0 1 26.64 84.78
  L 26.64 25.18
  Q 26.64 24.65 27.17 24.65
  L 53.08 24.65
  A 1.80 1.79 71.3 0 1 54.51 25.36
  Q 64.03 37.71 74.35 49.50
  Q 81.99 58.23 89.02 67.43
  Q 90.20 68.97 90.20 67.03
  L 90.20 25.23
  A 0.58 0.57 0.0 0 1 90.78 24.66
  L 108.20 24.66
  A 0.54 0.53 -0.0 0 1 108.74 25.19
  L 108.74 84.79
  Q 108.74 85.32 108.21 85.32
  L 82.30 85.32
  A 1.80 1.79 71.3 0 1 80.87 84.61
  Q 71.35 72.26 61.03 60.48
  Z"
/>
<path fill="#000000" d="
  M 214.75 48.53
  L 258.54 48.53
  A 0.53 0.53 0.0 0 1 259.07 49.06
  L 259.08 60.86
  A 0.53 0.53 0.0 0 1 258.55 61.39
  L 214.76 61.39
  A 0.53 0.53 0.0 0 0 214.23 61.92
  L 214.22 69.97
  A 0.53 0.53 0.0 0 0 214.75 70.50
  L 261.89 70.50
  A 0.53 0.53 0.0 0 1 262.42 71.03
  L 262.39 84.75
  A 0.53 0.53 0.0 0 1 261.86 85.28
  L 196.93 85.28
  A 0.53 0.53 0.0 0 1 196.40 84.75
  L 196.40 25.19
  A 0.53 0.53 0.0 0 1 196.93 24.66
  L 261.11 24.65
  A 0.53 0.53 0.0 0 1 261.64 25.18
  L 261.65 38.97
  A 0.53 0.53 0.0 0 1 261.12 39.50
  L 214.74 39.51
  A 0.53 0.53 0.0 0 0 214.21 40.04
  L 214.22 48.00
  A 0.53 0.53 0.0 0 0 214.75 48.53
  Z"
/>
<path fill="#000000" d="
  M 389.09 24.66
  Q 405.44 24.65 421.76 24.69
  A 0.60 0.60 0.0 0 1 422.36 25.29
  L 422.36 39.12
  A 0.47 0.47 0.0 0 1 421.89 39.59
  L 398.59 39.59
  A 0.55 0.55 0.0 0 0 398.04 40.14
  L 398.04 84.78
  A 0.41 0.41 0.0 0 1 397.64 85.19
  Q 393.42 85.28 389.11 85.28
  Q 384.80 85.28 380.58 85.19
  A 0.41 0.41 0.0 0 1 380.18 84.79
  L 380.15 40.15
  A 0.55 0.55 0.0 0 0 379.60 39.60
  L 356.30 39.61
  A 0.47 0.47 0.0 0 1 355.83 39.14
  L 355.82 25.31
  A 0.60 0.60 0.0 0 1 356.42 24.71
  Q 372.74 24.66 389.09 24.66
  Z"
/>
<path fill="#000000" d="
  M 214.61 108.24
  Q 213.11 106.43 210.77 106.25
  Q 197.89 105.28 188.50 106.43
  Q 184.41 106.93 183.71 111.74
  Q 183.07 116.10 183.49 123.30
  C 183.84 129.42 188.18 130.61 193.51 130.61
  Q 202.78 130.62 208.51 130.54
  C 212.44 130.48 215.83 128.96 215.69 124.43
  Q 215.66 123.65 216.44 123.65
  L 229.28 123.65
  A 0.63 0.62 -4.3 0 1 229.90 124.18
  C 231.31 133.44 227.77 141.55 217.49 142.12
  Q 196.54 143.29 182.27 142.03
  Q 171.33 141.07 169.46 129.58
  Q 168.28 122.30 169.38 108.41
  Q 169.77 103.51 171.22 101.13
  C 174.43 95.90 180.47 94.43 186.27 94.21
  Q 200.81 93.66 212.21 94.21
  Q 219.33 94.55 220.28 94.73
  C 225.50 95.74 228.16 99.39 229.14 104.53
  Q 229.67 107.29 229.74 110.14
  A 1.57 1.56 -0.7 0 1 228.17 111.74
  Q 218.17 111.76 217.64 111.79
  Q 214.89 111.96 214.93 109.16
  Q 214.94 108.64 214.61 108.24
  Z"
/>
<path fill="#000000" d="
  M 436.8602 128.2321
  A 14.02 14.02 0.0 0 1 422.9384 142.3496
  L 385.7593 142.6092
  A 14.02 14.02 0.0 0 1 371.6418 128.6874
  L 371.4998 108.3479
  A 14.02 14.02 0.0 0 1 385.4216 94.2304
  L 422.6007 93.9708
  A 14.02 14.02 0.0 0 1 436.7182 107.8926
  L 436.8602 128.2321
  Z
  M 422.6145 113.6662
  A 7.54 7.54 0.0 0 0 415.1141 106.0868
  L 393.4744 105.9735
  A 7.54 7.54 0.0 0 0 385.8950 113.4739
  L 385.8455 122.9338
  A 7.54 7.54 0.0 0 0 393.3459 130.5132
  L 414.9856 130.6265
  A 7.54 7.54 0.0 0 0 422.5650 123.1261
  L 422.6145 113.6662
  Z"
/>
<path fill="#000000" d="
  M 600.00 123.72
  L 600.00 131.40
  Q 597.73 141.54 587.10 142.12
  Q 574.44 142.82 558.98 142.49
  Q 549.93 142.29 546.55 140.38
  Q 539.92 136.64 539.54 128.05
  Q 539.00 115.94 539.66 107.71
  C 540.67 94.99 551.97 94.00 562.05 93.96
  Q 575.41 93.90 585.78 94.23
  C 591.71 94.42 596.86 96.46 598.57 102.45
  Q 599.77 106.68 599.61 109.73
  Q 599.50 111.81 596.99 111.80
  Q 589.10 111.76 586.83 111.73
  A 1.93 1.92 -3.4 0 1 584.94 110.06
  C 584.80 108.97 584.77 107.99 583.58 107.32
  Q 581.44 106.10 579.01 105.97
  Q 573.66 105.70 564.30 105.95
  C 560.30 106.06 554.65 106.04 553.98 111.34
  Q 553.32 116.48 553.84 123.88
  C 554.18 128.62 557.06 130.16 561.56 130.43
  Q 570.30 130.95 579.91 130.36
  Q 585.36 130.04 585.64 124.59
  A 0.82 0.82 0.0 0 1 586.45 123.81
  L 600.00 123.72
  Z"
/>
<path fill="#000000" d="
  M 0.00 142.04
  L 0.00 94.59
  L 52.78 94.54
  A 0.92 0.92 0.0 0 1 53.70 95.46
  L 53.70 105.23
  A 0.96 0.96 0.0 0 1 52.74 106.19
  L 14.63 106.19
  Q 13.95 106.19 13.95 106.87
  L 13.95 112.52
  Q 13.95 113.28 14.71 113.28
  L 50.81 113.28
  A 0.57 0.57 0.0 0 1 51.38 113.85
  L 51.38 122.85
  A 0.46 0.46 0.0 0 1 50.92 123.31
  L 14.46 123.31
  Q 13.97 123.31 13.97 123.80
  L 13.97 129.99
  A 0.41 0.41 0.0 0 0 14.38 130.40
  L 52.83 130.40
  A 0.90 0.90 0.0 0 1 53.73 131.30
  L 53.73 141.10
  A 0.87 0.87 0.0 0 1 52.86 141.97
  L 0.00 142.04
  Z"
/>
<path fill="#000000" d="
  M 75.29 130.43
  L 102.96 130.42
  A 0.66 0.66 0.0 0 1 103.62 131.08
  L 103.60 141.34
  A 0.66 0.66 0.0 0 1 102.94 142.00
  L 61.22 142.02
  A 0.66 0.66 0.0 0 1 60.56 141.36
  L 60.56 95.22
  A 0.66 0.66 0.0 0 1 61.22 94.56
  L 73.99 94.57
  A 0.66 0.66 0.0 0 1 74.65 95.23
  L 74.63 129.77
  A 0.66 0.66 0.0 0 0 75.29 130.43
  Z"
/>
<path fill="#000000" d="
  M 160.66 118.28
  Q 160.67 120.78 160.60 122.56
  A 0.82 0.81 -88.9 0 1 159.79 123.35
  L 123.98 123.35
  Q 123.27 123.35 123.27 124.06
  L 123.27 129.72
  Q 123.27 130.40 123.96 130.40
  L 162.26 130.40
  A 0.85 0.84 90.0 0 1 163.10 131.25
  L 163.10 141.23
  A 0.84 0.84 0.0 0 1 162.26 142.07
  L 110.44 142.07
  A 1.03 1.02 89.7 0 1 109.42 141.05
  Q 109.29 129.83 109.27 118.34
  Q 109.26 106.85 109.37 95.63
  A 1.03 1.02 -89.8 0 1 110.39 94.61
  L 162.21 94.49
  A 0.84 0.84 0.0 0 1 163.05 95.33
  L 163.07 105.31
  A 0.85 0.84 89.9 0 1 162.23 106.16
  L 123.93 106.25
  Q 123.24 106.25 123.24 106.93
  L 123.26 112.59
  Q 123.26 113.30 123.97 113.30
  L 159.78 113.21
  A 0.82 0.81 88.8 0 1 160.59 114.00
  Q 160.66 115.78 160.66 118.28
  Z"
/>
<path fill="#000000" d="
  M 266.73 94.56
  Q 292.67 94.67 294.83 94.70
  Q 295.56 94.71 295.56 95.43
  L 295.56 105.78
  A 0.61 0.61 0.0 0 1 294.95 106.39
  L 274.51 106.39
  A 0.87 0.87 0.0 0 0 273.64 107.26
  L 273.64 140.95
  A 1.09 1.08 -90.0 0 1 272.56 142.04
  Q 269.14 142.05 266.55 142.04
  Q 263.95 142.03 260.53 141.99
  A 1.09 1.08 -89.6 0 1 259.46 140.89
  L 259.72 107.21
  A 0.87 0.87 0.0 0 0 258.86 106.33
  L 238.42 106.17
  A 0.61 0.61 0.0 0 1 237.81 105.56
  L 237.89 95.21
  Q 237.90 94.49 238.63 94.48
  Q 240.79 94.47 266.73 94.56
  Z"
/>
<path fill="#000000" d="
  M 358.56 122.49
  Q 356.62 123.18 358.52 123.99
  C 362.43 125.65 363.88 128.39 363.79 132.72
  Q 363.71 136.64 364.06 140.21
  A 1.68 1.68 0.0 0 1 362.39 142.06
  L 351.05 142.06
  A 1.58 1.58 0.0 0 1 349.48 140.30
  Q 349.89 136.73 349.55 132.77
  C 349.32 130.18 344.72 129.88 342.76 129.86
  Q 330.14 129.78 317.75 129.86
  A 0.67 0.67 0.0 0 0 317.09 130.53
  L 317.09 141.32
  A 0.68 0.67 -90.0 0 1 316.42 142.00
  L 303.47 142.00
  A 0.62 0.61 -90.0 0 1 302.86 141.38
  L 302.86 95.42
  A 0.82 0.82 0.0 0 1 303.68 94.60
  Q 323.91 94.55 344.77 94.57
  Q 351.11 94.57 355.61 95.63
  C 359.99 96.66 362.82 99.96 363.60 104.61
  C 364.60 110.59 365.05 120.17 358.56 122.49
  Z
  M 317.06 107.15
  L 317.00 117.07
  A 0.78 0.78 0.0 0 0 317.78 117.86
  L 344.65 118.00
  A 5.15 4.68 0.3 0 0 349.82 113.35
  L 349.84 111.23
  A 5.15 4.68 0.3 0 0 344.71 106.52
  L 317.84 106.38
  A 0.78 0.78 0.0 0 0 317.06 107.15
  Z"
/>
<path fill="#000000" d="
  M 471.54 122.97
  Q 464.80 115.52 458.52 108.67
  Q 457.64 107.72 457.64 109.02
  L 457.64 141.35
  A 0.65 0.64 90.0 0 1 457.00 142.00
  L 444.03 142.00
  A 0.67 0.66 90.0 0 1 443.37 141.33
  L 443.37 95.40
  A 0.88 0.88 0.0 0 1 444.25 94.52
  L 463.56 94.52
  A 1.63 1.61 -20.9 0 1 464.76 95.05
  Q 473.18 104.30 481.56 113.57
  Q 488.29 121.03 494.57 127.88
  Q 495.45 128.83 495.45 127.53
  L 495.45 95.20
  A 0.65 0.64 90.0 0 1 496.09 94.55
  L 509.06 94.55
  A 0.67 0.66 90.0 0 1 509.72 95.22
  L 509.72 141.15
  A 0.88 0.88 0.0 0 1 508.84 142.03
  L 489.53 142.03
  A 1.63 1.61 -20.9 0 1 488.33 141.50
  Q 479.91 132.25 471.54 122.97
  Z"
/>
<rect fill="#000000" x="516.38" y="94.58" width="14.06" height="47.44" rx="0.73"/>
<path fill="#000000" d="
  M 168.93 180.87
  C 168.66 176.53 165.92 173.93 161.39 173.70
  Q 146.74 172.98 133.09 173.88
  C 126.15 174.34 124.15 178.82 124.01 185.37
  Q 123.85 192.56 124.15 198.91
  C 124.48 206.01 129.89 208.25 136.28 208.50
  Q 147.79 208.95 159.04 208.55
  C 162.45 208.42 166.85 207.59 168.57 204.10
  Q 169.32 202.59 169.71 199.54
  A 1.01 1.00 3.5 0 1 170.71 198.66
  L 189.81 198.66
  Q 190.89 198.66 191.00 199.73
  Q 191.59 205.38 190.63 210.40
  Q 188.47 221.62 177.21 224.22
  Q 171.25 225.59 165.51 225.61
  C 151.60 225.63 139.12 225.80 129.52 225.53
  Q 119.22 225.23 114.94 223.44
  Q 103.56 218.68 102.47 204.27
  Q 101.98 197.68 102.45 180.75
  C 102.60 175.57 103.09 170.52 105.76 166.55
  C 113.26 155.38 128.62 156.50 140.43 156.42
  Q 150.79 156.36 160.75 156.49
  C 173.54 156.67 187.32 156.42 189.89 171.72
  Q 190.58 175.88 190.32 180.92
  A 0.82 0.81 1.5 0 1 189.50 181.69
  L 169.80 181.69
  A 0.87 0.87 0.0 0 1 168.93 180.87
  Z"
/>
<path fill="#000000" d="
  M 389.43 225.66
  L 341.20 225.50
  A 18.97 18.97 0.0 0 1 322.30 206.46
  L 322.41 175.34
  A 18.97 18.97 0.0 0 1 341.45 156.44
  L 389.67 156.60
  A 18.97 18.97 0.0 0 1 408.57 175.64
  L 408.47 206.76
  A 18.97 18.97 0.0 0 1 389.43 225.66
  Z
  M 387.83 181.98
  A 9.59 9.59 0.0 0 0 378.24 172.39
  L 352.72 172.39
  A 9.59 9.59 0.0 0 0 343.13 181.98
  L 343.13 200.12
  A 9.59 9.59 0.0 0 0 352.72 209.71
  L 378.24 209.71
  A 9.59 9.59 0.0 0 0 387.83 200.12
  L 387.83 181.98
  Z"
/>
<path fill="#000000" d="
  M 436.46 156.48
  L 484.67 156.57
  A 19.01 19.01 0.0 0 1 503.65 175.61
  L 503.59 206.65
  A 19.01 19.01 0.0 0 1 484.55 225.62
  L 436.33 225.54
  A 19.01 19.01 0.0 0 1 417.36 206.49
  L 417.41 175.46
  A 19.01 19.01 0.0 0 1 436.46 156.48
  Z
  M 482.8883 181.9420
  A 9.62 9.62 0.0 0 0 473.2348 172.3557
  L 447.7749 172.4445
  A 9.62 9.62 0.0 0 0 438.1886 182.0981
  L 438.2517 200.1780
  A 9.62 9.62 0.0 0 0 447.9052 209.7643
  L 473.3651 209.6755
  A 9.62 9.62 0.0 0 0 482.9514 200.0219
  L 482.8883 181.9420
  Z"
/>
<path fill="#000000" d="
  M 600.00 175.03
  L 600.00 206.48
  Q 599.54 209.22 598.91 211.87
  C 596.46 222.14 587.83 225.49 578.27 225.57
  Q 560.80 225.71 538.27 225.66
  C 529.51 225.65 520.48 224.32 516.40 216.25
  Q 514.99 213.46 514.27 209.86
  Q 513.81 207.54 513.76 203.21
  Q 513.51 182.37 513.80 175.27
  Q 513.90 172.74 515.27 168.62
  C 518.43 159.10 526.91 156.56 536.00 156.49
  Q 553.62 156.35 577.75 156.50
  C 587.77 156.56 597.05 160.03 599.12 171.03
  Q 599.50 173.03 600.00 175.03
  Z
  M 579.2084 181.9821
  A 9.67 9.67 0.0 0 0 569.5048 172.3459
  L 544.1649 172.4343
  A 9.67 9.67 0.0 0 0 534.5287 182.1380
  L 534.5916 200.1379
  A 9.67 9.67 0.0 0 0 544.2952 209.7741
  L 569.6351 209.6857
  A 9.67 9.67 0.0 0 0 579.2713 199.9820
  L 579.2084 181.9821
  Z"
/>
<path fill="#000000" d="
  M 49.40 204.97
  L 76.39 157.56
  A 0.45 0.45 0.0 0 1 76.78 157.33
  L 98.38 157.30
  A 0.45 0.45 0.0 0 1 98.78 157.97
  L 62.34 224.65
  A 0.45 0.45 0.0 0 1 61.94 224.88
  L 36.79 224.91
  A 0.45 0.45 0.0 0 1 36.39 224.67
  L 0.27 157.97
  A 0.45 0.45 0.0 0 1 0.67 157.30
  L 22.88 157.34
  A 0.45 0.45 0.0 0 1 23.28 157.58
  L 48.62 204.96
  A 0.45 0.45 0.0 0 0 49.40 204.97
  Z"
/>
<path fill="#000000" d="
  M 303.81 211.84
  L 303.85 224.28
  A 0.61 0.61 0.0 0 1 303.24 224.89
  L 284.83 224.90
  A 0.61 0.61 0.0 0 1 284.22 224.29
  L 284.32 211.84
  A 0.61 0.61 0.0 0 0 283.71 211.23
  L 232.07 211.23
  A 0.61 0.61 0.0 0 1 231.46 210.62
  L 231.46 186.94
  A 0.61 0.61 0.0 0 1 231.75 186.42
  L 279.49 157.39
  A 0.61 0.61 0.0 0 1 279.81 157.30
  L 303.24 157.33
  A 0.61 0.61 0.0 0 1 303.85 157.94
  L 303.82 195.02
  A 0.61 0.61 0.0 0 0 304.43 195.63
  L 313.94 195.61
  A 0.61 0.61 0.0 0 1 314.55 196.22
  L 314.52 210.62
  A 0.61 0.61 0.0 0 1 313.91 211.23
  L 304.42 211.23
  A 0.61 0.61 0.0 0 0 303.81 211.84
  Z
  M 283.80 195.57
  A 0.46 0.46 0.0 0 0 284.26 195.11
  L 284.34 174.60
  A 0.46 0.46 0.0 0 0 283.64 174.21
  L 249.90 194.82
  A 0.46 0.46 0.0 0 0 250.14 195.67
  L 283.80 195.57
  Z"
/>
<path fill="#000000" d="
  M 24.25 272.20
  Q 22.45 272.21 21.45 272.17
  Q 20.29 272.12 19.74 271.10
  L 0.63 235.81
  Q 0.19 235.00 1.11 235.00
  L 4.20 235.00
  A 2.18 2.18 0.0 0 1 6.09 236.09
  Q 11.50 245.44 23.94 266.58
  Q 24.04 266.75 24.23 266.75
  Q 24.42 266.75 24.52 266.58
  Q 36.81 245.35 42.15 235.96
  A 2.18 2.18 0.0 0 1 44.03 234.86
  L 47.12 234.84
  Q 48.04 234.83 47.61 235.64
  L 28.75 271.07
  Q 28.21 272.09 27.05 272.15
  Q 26.05 272.20 24.25 272.20
  Z"
/>
<path fill="#000000" d="
  M 60.49 235.68
  A 0.81 0.81 0.0 0 1 61.30 234.87
  L 92.56 234.93
  A 12.97 12.46 0.1 0 1 105.51 247.41
  L 105.49 259.71
  A 12.97 12.46 0.1 0 1 92.50 272.15
  L 61.24 272.09
  A 0.81 0.81 0.0 0 1 60.43 271.28
  L 60.49 235.68
  Z
  M 65.48 240.03
  L 65.38 266.73
  A 0.73 0.73 0.0 0 0 66.11 267.46
  L 91.52 267.55
  A 9.14 8.90 -89.8 0 0 100.45 258.44
  L 100.49 248.56
  A 9.14 8.90 -89.8 0 0 91.62 239.39
  L 66.21 239.30
  A 0.73 0.73 0.0 0 0 65.48 240.03
  Z"
/>
<rect fill="#000000" x="50.08" y="234.89" width="4.98" height="37.20" rx="1.13"/>
<path fill="#000000" d="
  M 114.39 267.46
  L 144.14 267.47
  A 0.63 0.63 0.0 0 1 144.77 268.14
  L 144.57 271.61
  A 0.63 0.63 0.0 0 1 143.94 272.20
  L 109.46 272.18
  A 0.63 0.63 0.0 0 1 108.83 271.55
  L 108.83 235.57
  A 0.63 0.63 0.0 0 1 109.46 234.94
  L 143.99 234.93
  A 0.63 0.63 0.0 0 1 144.62 235.54
  L 144.70 238.74
  A 0.63 0.63 0.0 0 1 144.07 239.39
  L 114.41 239.39
  A 0.63 0.63 0.0 0 0 113.78 240.02
  L 113.78 249.95
  A 0.63 0.63 0.0 0 0 114.41 250.58
  L 142.80 250.57
  A 0.63 0.63 0.0 0 1 143.43 251.21
  L 143.36 254.41
  A 0.63 0.63 0.0 0 1 142.73 255.03
  L 114.42 255.02
  A 0.63 0.63 0.0 0 0 113.79 255.65
  L 113.76 266.83
  A 0.63 0.63 0.0 0 0 114.39 267.46
  Z"
/>
<path fill="#000000" d="
  M 194.6270 261.8239
  A 10.34 10.34 0.0 0 1 184.2330 272.1096
  L 157.5334 271.9698
  A 10.34 10.34 0.0 0 1 147.2477 261.5758
  L 147.3330 245.2761
  A 10.34 10.34 0.0 0 1 157.7270 234.9904
  L 184.4266 235.1302
  A 10.34 10.34 0.0 0 1 194.7123 245.5242
  L 194.6270 261.8239
  Z
  M 189.3931 245.9222
  A 6.36 6.36 0.0 0 0 183.0443 239.5511
  L 158.9243 239.5090
  A 6.36 6.36 0.0 0 0 152.5532 245.8579
  L 152.5269 260.9578
  A 6.36 6.36 0.0 0 0 158.8757 267.3289
  L 182.9957 267.3710
  A 6.36 6.36 0.0 0 0 189.3668 261.0221
  L 189.3931 245.9222
  Z"
/>
<path fill="#000000" d="
  M 222.10 253.58
  Q 222.11 257.70 222.60 262.68
  Q 222.80 264.77 224.42 266.19
  Q 225.40 267.06 229.29 267.27
  Q 242.32 267.98 252.30 266.94
  Q 254.71 266.68 255.71 265.77
  C 257.28 264.34 257.08 262.15 257.03 260.08
  Q 257.02 259.39 257.71 259.39
  L 261.18 259.39
  Q 261.85 259.39 261.96 260.04
  Q 262.77 264.59 260.79 267.98
  C 259.00 271.02 254.63 271.46 251.01 271.78
  Q 236.74 273.05 223.69 271.13
  Q 218.99 270.44 217.58 265.05
  Q 216.65 261.52 216.63 253.60
  Q 216.60 245.68 217.51 242.14
  Q 218.88 236.74 223.58 236.02
  Q 236.62 234.02 250.89 235.20
  C 254.52 235.50 258.89 235.91 260.70 238.94
  Q 262.70 242.31 261.92 246.87
  Q 261.81 247.52 261.14 247.52
  L 257.67 247.55
  Q 256.98 247.55 256.99 246.86
  C 257.02 244.79 257.21 242.60 255.63 241.18
  Q 254.63 240.27 252.21 240.03
  Q 242.23 239.05 229.20 239.85
  Q 225.31 240.08 224.34 240.96
  Q 222.73 242.39 222.54 244.48
  Q 222.08 249.46 222.10 253.58
  Z"
/>
<path fill="#000000" d="
  M 312.0782 261.5863
  A 10.38 10.38 0.0 0 1 301.7345 272.0024
  L 274.5546 272.0973
  A 10.38 10.38 0.0 0 1 264.1385 261.7536
  L 264.0818 245.5337
  A 10.38 10.38 0.0 0 1 274.4255 235.1176
  L 301.6054 235.0227
  A 10.38 10.38 0.0 0 1 312.0215 245.3664
  L 312.0782 261.5863
  Z
  M 306.6669 245.9075
  A 6.42 6.42 0.0 0 0 300.2357 239.4987
  L 275.7958 239.5413
  A 6.42 6.42 0.0 0 0 269.3870 245.9725
  L 269.4131 260.9325
  A 6.42 6.42 0.0 0 0 275.8443 267.3413
  L 300.2842 267.2987
  A 6.42 6.42 0.0 0 0 306.6930 260.8675
  L 306.6669 245.9075
  Z"
/>
<path fill="#000000" d="
  M 346.71 265.75
  Q 347.09 265.75 347.24 265.50
  Q 356.40 250.56 365.66 235.92
  A 2.20 2.17 16.0 0 1 367.51 234.91
  L 375.19 234.91
  A 0.91 0.90 0.0 0 1 376.10 235.81
  L 376.10 271.05
  A 1.10 1.10 0.0 0 1 375.00 272.15
  L 372.25 272.15
  A 1.09 1.09 0.0 0 1 371.16 271.06
  L 371.16 240.50
  A 1.13 1.12 15.8 0 0 370.62 239.54
  Q 369.77 239.01 369.08 240.05
  Q 367.46 242.49 349.64 270.39
  Q 348.46 272.25 346.72 272.25
  Q 344.98 272.25 343.79 270.40
  Q 325.92 242.53 324.30 240.09
  Q 323.61 239.05 322.76 239.58
  A 1.13 1.12 -15.9 0 0 322.22 240.55
  L 322.28 271.11
  A 1.09 1.09 0.0 0 1 321.19 272.20
  L 318.44 272.20
  A 1.10 1.10 0.0 0 1 317.34 271.10
  L 317.27 235.86
  A 0.91 0.90 -0.1 0 1 318.18 234.96
  L 325.86 234.95
  A 2.20 2.17 -16.1 0 1 327.71 235.96
  Q 337.00 250.58 346.19 265.50
  Q 346.34 265.75 346.71 265.75
  Z"
/>
<path fill="#000000" d="
  M 387.12 258.19
  A 0.77 0.76 -0.4 0 0 386.36 258.95
  L 386.36 271.05
  Q 386.36 272.22 385.19 272.22
  L 382.40 272.22
  A 1.04 1.04 0.0 0 1 381.36 271.18
  L 381.36 235.94
  A 0.92 0.91 -1.0 0 1 382.25 235.03
  Q 397.80 234.63 414.38 235.39
  Q 419.76 235.64 421.24 240.49
  C 422.80 245.57 422.89 255.16 416.76 257.44
  Q 415.13 258.04 411.17 258.08
  Q 400.54 258.17 387.12 258.19
  Z
  M 386.35 240.20
  L 386.33 252.84
  A 0.80 0.80 0.0 0 0 387.13 253.64
  L 411.46 253.69
  A 5.43 4.59 0.1 0 0 416.90 249.11
  L 416.90 244.05
  A 5.43 4.59 0.1 0 0 411.48 239.45
  L 387.15 239.40
  A 0.80 0.80 0.0 0 0 386.35 240.20
  Z"
/>
<path fill="#000000" d="
  M 449.62 267.44
  Q 453.30 267.43 460.59 267.11
  Q 463.82 266.96 465.30 265.17
  Q 466.18 264.11 466.17 260.63
  Q 466.13 248.02 466.13 235.99
  Q 466.13 234.90 467.22 234.90
  L 469.96 234.90
  Q 471.08 234.90 471.09 236.02
  Q 471.24 249.02 471.01 261.73
  C 470.85 270.32 464.75 272.32 457.50 272.32
  Q 455.54 272.32 449.63 272.33
  Q 443.71 272.34 441.75 272.34
  C 434.50 272.37 428.40 270.39 428.21 261.80
  Q 427.94 249.09 428.05 236.09
  Q 428.06 234.97 429.18 234.96
  L 431.92 234.95
  Q 433.01 234.95 433.01 236.04
  Q 433.05 248.07 433.05 260.68
  Q 433.05 264.16 433.93 265.22
  Q 435.42 267.00 438.65 267.14
  Q 445.94 267.44 449.62 267.44
  Z"
/>
<path fill="#000000" d="
  M 495.70 234.94
  Q 505.62 234.93 515.42 234.92
  A 1.06 1.06 0.0 0 1 516.48 235.98
  L 516.48 238.43
  Q 516.48 239.39 515.52 239.39
  L 498.89 239.39
  A 0.71 0.70 -90.0 0 0 498.19 240.10
  L 498.19 270.94
  A 1.23 1.23 0.0 0 1 497.11 272.16
  Q 496.60 272.22 495.73 272.22
  Q 494.87 272.22 494.36 272.16
  A 1.23 1.23 0.0 0 1 493.28 270.94
  L 493.23 240.10
  A 0.71 0.70 89.9 0 0 492.53 239.40
  L 475.90 239.42
  Q 474.94 239.42 474.94 238.46
  L 474.93 236.01
  A 1.06 1.06 0.0 0 1 475.99 234.95
  Q 485.79 234.95 495.70 234.94
  Z"
/>
<path fill="#000000" d="
  M 526.18 267.46
  L 555.66 267.45
  A 0.74 0.74 0.0 0 1 556.40 268.20
  L 556.34 271.47
  A 0.74 0.74 0.0 0 1 555.60 272.20
  L 521.25 272.16
  A 0.74 0.74 0.0 0 1 520.51 271.42
  L 520.52 235.69
  A 0.74 0.74 0.0 0 1 521.26 234.95
  L 555.46 234.93
  A 0.74 0.74 0.0 0 1 556.20 235.64
  L 556.31 238.62
  A 0.74 0.74 0.0 0 1 555.57 239.39
  L 526.19 239.39
  A 0.74 0.74 0.0 0 0 525.45 240.13
  L 525.45 249.83
  A 0.74 0.74 0.0 0 0 526.19 250.57
  L 554.33 250.58
  A 0.74 0.74 0.0 0 1 555.07 251.35
  L 554.93 254.30
  A 0.74 0.74 0.0 0 1 554.19 255.01
  L 526.20 255.03
  A 0.74 0.74 0.0 0 0 525.46 255.77
  L 525.44 266.72
  A 0.74 0.74 0.0 0 0 526.18 267.46
  Z"
/>
<path fill="#000000" d="
  M 600.00 241.95
  L 600.00 250.60
  Q 598.92 254.16 595.97 255.46
  Q 595.09 255.84 595.91 256.35
  C 599.48 258.56 599.21 260.17 599.37 264.50
  Q 599.52 268.68 599.35 271.60
  Q 599.32 272.12 598.79 272.12
  L 595.15 272.12
  A 0.62 0.62 0.0 0 1 594.53 271.51
  Q 594.37 263.30 594.24 262.01
  C 593.87 258.46 590.63 257.98 587.05 257.87
  Q 578.01 257.61 563.68 257.70
  A 0.73 0.73 0.0 0 0 562.96 258.43
  L 562.96 270.88
  Q 562.96 272.25 561.58 272.25
  L 559.52 272.25
  Q 558.14 272.25 558.14 270.87
  L 558.14 235.74
  A 0.75 0.75 0.0 0 1 558.88 234.99
  Q 574.37 234.77 589.74 235.24
  Q 597.59 235.48 600.00 241.95
  Z
  M 563.05 240.63
  L 563.05 252.11
  A 1.22 1.22 0.0 0 0 564.27 253.33
  L 589.21 253.33
  A 5.68 5.42 0.0 0 0 594.89 247.91
  L 594.89 244.83
  A 5.68 5.42 -0.0 0 0 589.21 239.41
  L 564.27 239.41
  A 1.22 1.22 0.0 0 0 563.05 240.63
  Z"
/>
</svg>
