<?xml version="1.0" encoding="UTF-8" standalone="no"?>
<!DOCTYPE svg PUBLIC "-//W3C//DTD SVG 1.1//EN" "http://www.w3.org/Graphics/SVG/1.1/DTD/svg11.dtd">
<svg xmlns="http://www.w3.org/2000/svg" version="1.1" viewBox="0 0 600 300">
<g stroke-width="2.00" fill="none" stroke-linecap="butt">
<path stroke="#7f7f7f" vector-effect="non-scaling-stroke" d="
  M 146.93 152.51
  Q 144.45 147.23 142.12 144.23
  Q 140.91 142.66 139.14 143.54
  C 132.36 146.88 135.34 141.60 132.00 140.96"
/>
<path stroke="#7f7f7f" vector-effect="non-scaling-stroke" d="
  M 117.50 140.96
  C 115.04 144.13 109.62 144.53 115.56 149.36
  A 1.99 1.74 61.6 0 0 116.74 149.80
  L 137.68 149.99
  A 0.53 0.51 2.1 0 1 138.20 150.53
  C 137.61 160.16 138.50 169.70 137.99 179.40
  A 0.64 0.61 0.8 0 0 138.64 180.04
  L 152.56 179.91
  A 0.53 0.51 88.9 0 1 153.08 180.43
  L 153.19 194.31
  A 0.51 0.49 89.4 0 0 153.68 194.81
  L 167.22 194.74
  A 0.58 0.55 -89.5 0 0 167.77 194.17
  L 167.91 180.43
  A 0.54 0.52 -0.0 0 1 168.44 179.92
  L 182.44 179.69
  A 0.51 0.51 0.0 0 0 182.94 179.19
  L 183.06 147.32
  A 0.50 0.50 0.0 0 1 183.56 146.82
  L 215.48 146.93
  A 0.52 0.51 -0.0 0 1 216.00 147.44
  L 215.94 179.68
  A 0.49 0.48 0.6 0 1 215.44 180.16
  L 202.10 180.02
  A 1.08 1.07 90.0 0 0 201.02 181.11
  L 201.16 194.68
  A 0.47 0.46 -89.4 0 1 200.68 195.16
  Q 192.80 194.73 183.64 195.34
  A 0.69 0.68 88.2 0 0 183.00 196.03
  L 183.00 209.13
  A 0.87 0.86 89.7 0 0 183.87 210.00
  L 200.57 209.93
  A 0.52 0.50 89.4 0 1 201.07 210.44
  L 201.16 224.31
  A 0.52 0.49 -0.0 0 0 201.68 224.80
  L 215.68 224.80
  A 0.50 0.50 -89.4 0 1 216.18 225.31
  C 215.98 235.51 216.64 246.82 215.97 257.42
  A 0.95 0.92 1.6 0 1 215.02 258.29
  L 183.56 258.17
  A 0.51 0.49 -0.6 0 1 183.05 257.69
  Q 182.52 242.33 183.02 226.25
  A 1.17 1.13 1.2 0 0 181.86 225.08
  L 168.53 224.97
  A 0.57 0.55 0.0 0 1 167.97 224.43
  L 167.90 211.11
  A 0.88 0.82 89.6 0 0 167.08 210.24
  L 153.76 210.17
  A 0.51 0.51 90.0 0 0 153.25 210.68
  L 153.25 224.60
  A 0.46 0.46 0.6 0 1 152.78 225.06
  L 138.98 225.00
  A 0.93 0.92 90.0 0 0 138.06 225.93
  L 138.06 257.69
  A 0.51 0.50 0.6 0 1 137.54 258.19
  L 108.44 257.82
  A 0.51 0.51 0.6 0 1 107.94 257.31
  L 108.06 225.32
  A 0.50 0.48 0.6 0 1 108.57 224.84
  L 122.02 224.98
  A 1.01 0.97 -89.7 0 0 123.00 223.97
  L 123.00 210.48
  A 0.73 0.71 -89.2 0 1 123.73 209.75
  L 137.08 210.04
  A 0.65 0.63 0.9 0 0 137.75 209.41
  L 137.75 195.74
  A 0.71 0.71 -2.2 0 0 136.98 195.03
  Q 129.94 195.60 123.31 194.99
  A 0.56 0.55 2.9 0 1 122.81 194.44
  L 122.76 180.72
  A 0.52 0.51 0.0 0 0 122.25 180.22
  L 108.38 180.01
  A 0.44 0.42 -88.0 0 1 107.97 179.55
  Q 108.05 177.35 107.03 178.01
  Q 103.24 180.45 98.72 183.23"
/>
<path stroke="#7f7f7f" vector-effect="non-scaling-stroke" d="
  M 76.09 170.98
  L 73.61 166.16
  A 1.70 1.68 76.4 0 0 72.13 165.24
  L 36.82 165.07
  A 0.51 0.49 0.0 0 0 36.31 165.56
  L 36.19 194.32
  A 0.49 0.49 90.0 0 0 36.68 194.81
  L 83.55 194.93
  A 0.51 0.51 -0.4 0 1 84.06 195.44
  L 84.00 212.51
  A 0.51 0.49 -0.0 0 1 83.49 213.00
  L 39.81 213.26
  A 0.77 0.74 89.6 0 0 39.08 214.03
  L 39.06 242.43
  A 0.51 0.50 90.0 0 0 39.56 242.94
  L 98.68 243.01
  A 0.54 0.52 90.0 0 1 99.20 243.55
  L 99.05 257.56
  A 0.51 0.49 -89.4 0 1 98.56 258.06
  C 72.91 257.80 47.39 257.99 21.56 257.94
  A 0.51 0.50 90.0 0 1 21.06 257.43
  L 21.00 243.94
  A 0.95 0.93 89.7 0 0 20.07 243.00
  L 6.45 243.00
  A 0.51 0.51 -0.7 0 1 5.94 242.49
  L 6.00 165.50
  A 0.54 0.51 -90.0 0 1 6.51 164.96
  L 20.19 164.91
  A 0.54 0.48 -0.1 0 0 20.72 164.44
  L 21.07 150.57
  A 0.52 0.49 -89.4 0 1 21.56 150.06
  L 77.45 149.94
  Q 78.50 149.93 77.92 148.97
  L 76.12 146.00
  A 1.28 1.06 -30.8 0 1 76.68 144.42
  Q 80.47 142.18 80.07 140.96"
/>
<path stroke="#7d7420" vector-effect="non-scaling-stroke" d="
  M 106.75 111.35
  L 112.17 120.17
  Q 113.12 121.72 114.90 120.90
  Q 119.07 118.97 117.32 115.95
  Q 116.23 114.05 117.67 112.40
  Q 120.06 109.68 124.02 108.24
  Q 127.08 107.13 125.34 104.49
  L 120.93 97.80
  Q 119.63 95.83 121.62 94.63
  L 134.63 86.83
  A 1.66 1.61 -32.7 0 0 135.17 84.51
  L 133.24 81.74
  A 0.98 0.93 53.2 0 1 133.39 80.46
  Q 137.39 77.17 141.95 75.18
  Q 143.80 74.37 142.82 72.62
  C 142.01 71.18 140.00 69.58 141.79 68.00"
/>
<path stroke="#782f2f" vector-effect="non-scaling-stroke" d="
  M 141.79 68.00
  L 144.35 66.37
  A 1.92 1.50 -34.4 0 0 145.12 63.96
  L 143.25 61.50
  Q 141.97 59.82 144.44 58.94
  Q 149.92 56.98 144.68 52.56
  Q 143.19 51.30 141.89 52.76
  C 138.04 57.09 134.79 46.50 132.09 44.36
  A 0.79 0.76 49.2 0 0 131.24 44.28
  Q 129.82 45.03 128.81 46.31
  Q 127.21 48.35 125.56 45.69
  L 120.39 37.33
  A 1.02 0.92 -30.1 0 0 119.08 37.05
  C 114.57 39.57 110.31 42.44 105.85 44.99
  C 101.22 47.63 109.12 51.16 105.54 52.74
  Q 104.42 53.24 103.48 54.03
  C 100.76 56.30 101.95 56.15 103.32 58.05
  C 105.63 61.29 102.55 61.48 100.82 62.70
  C 97.03 65.37 104.79 66.95 100.84 70.14
  Q 100.54 70.39 99.95 70.48
  Q 98.51 70.71 97.98 71.96
  A 1.12 1.09 -46.9 0 0 98.00 72.90
  L 99.94 76.81
  A 1.19 1.07 62.1 0 1 99.57 78.30
  L 91.33 83.22
  A 1.66 1.57 -31.4 0 0 90.72 85.45
  L 106.75 111.35"
/>
<path stroke="#f5a24e" vector-effect="non-scaling-stroke" d="
  M 141.79 68.00
  C 140.70 67.07 126.47 76.38 126.33 76.47
  C 124.36 77.70 120.57 78.11 123.75 81.75
  Q 125.20 83.41 125.66 85.50
  A 0.74 0.71 -21.9 0 1 125.32 86.26
  L 109.75 95.81
  A 0.79 0.79 58.7 0 0 109.49 96.89
  L 114.55 105.53
  A 0.95 0.89 -31.2 0 1 114.20 106.77
  L 106.75 111.35"
/>
<path stroke="#7d7420" vector-effect="non-scaling-stroke" d="
  M 47.25 125.46
  Q 49.39 126.23 49.97 128.13
  Q 50.62 130.27 52.69 129.10
  L 60.66 124.61
  Q 62.52 123.56 63.42 125.73
  Q 64.72 128.89 66.91 127.63
  Q 72.84 124.24 79.90 119.95
  Q 81.54 118.95 82.57 120.61
  L 87.37 128.39
  A 1.72 1.72 -32.0 0 0 89.75 128.94
  L 97.23 124.23
  Q 99.18 123.01 100.18 125.04
  Q 102.67 130.10 106.91 125.96
  A 1.87 1.86 -38.6 0 0 107.18 123.61
  L 102.00 115.71"
/>
<path stroke="#782f2f" vector-effect="non-scaling-stroke" d="
  M 102.00 115.71
  Q 94.40 102.64 86.50 89.75
  Q 84.69 86.80 82.25 88.75
  Q 81.05 89.70 74.69 93.25
  A 0.70 0.68 -38.1 0 1 73.87 93.16
  Q 72.47 91.86 71.73 90.17
  Q 70.68 87.76 68.54 89.29
  Q 64.37 92.28 63.14 88.48
  A 1.25 0.99 88.7 0 0 62.55 87.77
  Q 60.31 86.76 58.19 88.66
  Q 56.61 90.08 55.32 88.35
  L 52.97 85.21
  A 0.98 0.95 52.3 0 0 51.59 85.01
  L 49.19 86.94
  Q 46.89 88.78 46.06 85.69
  Q 44.94 81.49 41.33 83.77
  Q 35.23 87.63 28.86 91.23
  A 1.82 1.69 59.5 0 0 28.32 93.69
  L 33.53 102.31
  A 0.83 0.77 -43.9 0 1 33.48 103.18
  Q 32.56 104.54 30.98 105.10
  A 1.86 0.94 -5.8 0 0 30.17 105.62
  Q 28.66 107.49 30.69 109.56
  Q 33.05 111.98 34.82 116.53
  A 0.70 0.66 61.2 0 1 34.62 117.32
  L 31.69 119.54
  A 2.11 2.02 -29.0 0 0 30.96 121.88
  Q 32.80 126.98 36.94 123.74
  Q 39.16 122.01 40.06 124.67
  Q 40.55 126.12 42.58 127.48
  A 0.92 0.64 -36.6 0 0 43.40 127.45
  L 47.25 125.46"
/>
<path stroke="#f5a24e" vector-effect="non-scaling-stroke" d="
  M 102.00 115.71
  Q 97.80 116.88 94.47 119.66
  A 0.86 0.83 -35.3 0 1 93.19 119.46
  L 88.34 111.09
  A 1.46 1.43 59.6 0 0 86.37 110.55
  L 70.69 119.76
  A 0.54 0.50 58.3 0 1 69.99 119.57
  L 66.33 113.90
  A 0.82 0.81 -32.3 0 0 65.21 113.66
  Q 56.52 119.08 48.31 123.81
  Q 47.17 124.47 47.25 125.46"
/>
<path stroke="#094d7e" vector-effect="non-scaling-stroke" d="
  M 130.42 126.51
  C 132.72 128.05 134.87 133.14 136.32 135.63
  Q 137.35 137.42 140.37 135.28
  Q 141.16 134.71 141.82 133.99
  C 142.81 132.90 147.99 142.40 148.57 143.45
  A 1.55 1.54 61.0 0 0 150.67 144.06
  Q 153.61 142.41 156.55 140.41
  C 157.85 139.52 160.15 139.66 160.05 137.41
  C 159.97 135.58 158.03 134.74 157.71 133.11
  A 1.64 1.63 -19.0 0 1 158.57 131.35
  Q 162.06 129.58 161.80 127.54
  A 1.39 0.84 25.6 0 0 161.29 126.76
  C 155.50 122.08 165.82 122.87 164.21 119.06
  C 162.94 116.06 161.10 113.52 157.74 117.16
  A 1.32 1.11 -41.0 0 1 155.82 117.19
  L 153.63 113.79
  Q 152.51 112.05 151.04 113.26
  C 144.43 118.70 146.85 110.33 142.85 111.11
  C 140.55 111.56 138.72 115.86 136.74 110.97
  Q 136.05 109.27 134.47 108.65
  A 0.98 0.84 -50.5 0 0 133.60 108.80
  Q 128.79 112.48 126.56 113.31
  C 121.31 115.26 126.58 117.85 126.47 120.93
  A 0.73 0.67 -8.3 0 1 125.95 121.57
  Q 119.84 123.33 124.66 128.71
  A 1.06 1.01 52.0 0 0 125.99 128.91
  L 129.60 126.54
  A 0.79 0.68 -42.9 0 1 130.42 126.51"
/>
<path stroke="#094d7e" vector-effect="non-scaling-stroke" d="
  M 105.70 157.29
  Q 106.53 155.63 108.82 154.90
  Q 111.14 154.16 109.89 152.07
  Q 107.58 148.21 105.28 145.13
  C 103.63 142.92 103.85 141.98 106.62 141.28
  Q 108.51 140.79 108.34 138.85
  Q 108.12 136.23 105.18 134.49
  A 0.68 0.62 -51.3 0 0 104.40 134.61
  Q 100.31 138.68 98.17 133.44
  Q 97.38 131.52 95.58 132.56
  C 92.88 134.11 90.33 135.77 87.57 137.21
  C 83.29 139.44 91.30 142.20 87.42 145.21
  A 2.02 1.09 8.8 0 1 86.49 145.54
  C 82.90 145.95 85.13 149.65 86.27 151.19
  Q 87.49 152.84 85.60 153.63
  Q 83.20 154.64 82.45 156.04
  A 1.01 0.88 47.1 0 0 82.48 156.93
  L 84.13 160.06
  Q 85.08 161.86 83.22 162.70
  C 79.77 164.26 79.72 165.16 81.67 168.19
  Q 83.90 171.67 87.00 167.95
  A 1.45 1.03 -66.8 0 1 87.80 167.46
  C 90.88 167.06 89.02 172.69 93.46 171.58
  A 1.84 0.99 -61.8 0 0 94.26 171.05
  Q 95.27 169.93 96.75 169.78
  A 0.94 0.75 -16.8 0 1 97.60 170.12
  L 99.60 173.11
  Q 101.01 175.23 102.81 173.99
  L 110.81 168.52
  A 1.28 1.24 -33.2 0 0 111.19 166.82
  L 105.77 158.17
  A 0.93 0.83 43.8 0 1 105.70 157.29"
/>
<path stroke="#7f7f7f" vector-effect="non-scaling-stroke" d="
  M 239.16 162.01
  C 234.86 162.09 230.10 162.00 226.02 161.85
  A 1.22 1.22 1.1 0 0 224.75 163.07
  L 225.00 239.49
  A 0.52 0.51 0.0 0 0 225.52 240.00
  L 239.00 240.05
  A 0.98 0.97 0.6 0 1 239.97 241.03
  L 239.83 257.44
  A 0.55 0.54 -87.1 0 0 240.31 257.99
  C 245.38 258.44 251.87 258.00 255.43 258.00
  Q 284.84 257.96 314.76 258.06
  A 0.50 0.49 90.0 0 0 315.26 257.55
  L 314.94 240.31
  A 0.50 0.50 25.6 0 0 314.43 239.82
  Q 291.09 240.27 267.75 239.75
  Q 262.37 239.63 256.30 240.05
  A 1.04 1.04 -1.8 0 1 255.19 239.01
  L 255.00 147.25
  A 0.51 0.46 0.0 0 0 254.49 146.79
  L 240.56 146.85
  A 0.51 0.48 0.6 0 0 240.05 147.32
  L 240.00 161.14
  A 0.87 0.86 89.3 0 1 239.16 162.01"
/>
<path stroke="#7f7f7f" vector-effect="non-scaling-stroke" d="
  M 362.93 180.80
  L 363.06 257.43
  A 0.51 0.50 90.0 0 0 363.56 257.94
  L 392.52 258.00
  A 0.69 0.69 85.1 0 0 393.20 257.19
  Q 392.93 255.64 392.93 253.75
  Q 392.95 200.78 393.06 147.51
  A 0.51 0.51 0.0 0 0 392.55 147.00
  L 348.44 146.94
  A 0.50 0.50 0.0 0 0 347.94 147.44
  L 348.00 161.22
  A 0.78 0.77 -0.4 0 1 347.22 162.00
  L 330.56 162.00
  A 0.56 0.56 0.0 0 0 330.00 162.56
  L 330.00 179.01
  A 1.01 0.99 -0.3 0 1 329.00 180.00
  L 315.56 180.06
  A 0.51 0.50 -0.0 0 0 315.05 180.56
  L 315.05 194.43
  A 0.51 0.51 0.0 0 0 315.56 194.94
  L 347.68 195.18
  A 0.51 0.50 0.6 0 0 348.20 194.68
  L 348.20 180.68
  A 0.49 0.48 -89.4 0 1 348.69 180.19
  L 362.43 180.30
  A 0.51 0.50 0.6 0 1 362.93 180.80"
/>
<path stroke="#7f7f7f" vector-effect="non-scaling-stroke" d="
  M 494.75 161.92
  L 477.68 161.83
  A 0.56 0.53 87.7 0 1 477.15 161.31
  Q 476.72 154.75 477.31 147.56
  A 0.76 0.75 -88.6 0 0 476.54 146.75
  Q 447.50 147.33 418.14 146.74
  A 1.42 1.36 -89.8 0 0 416.76 148.17
  L 416.84 161.31
  A 0.53 0.53 -89.8 0 1 416.31 161.84
  L 402.48 161.92
  A 0.48 0.45 0.6 0 0 402.00 162.36
  C 401.18 187.48 402.19 206.45 401.82 242.43
  A 0.51 0.50 -89.4 0 0 402.32 242.95
  L 416.09 242.99
  A 0.88 0.85 0.3 0 1 416.97 243.85
  L 416.84 257.44
  A 0.49 0.47 -89.4 0 0 417.31 257.94
  L 476.44 258.19
  A 0.51 0.50 -89.4 0 0 476.94 257.69
  L 477.17 243.68
  A 0.53 0.51 -89.4 0 1 477.68 243.16
  L 494.69 243.16
  A 0.50 0.48 -0.0 0 0 495.19 242.68
  L 495.26 162.42
  A 0.51 0.50 0.0 0 0 494.75 161.92"
/>
<path stroke="#7f7f7f" vector-effect="non-scaling-stroke" d="
  M 593.55 161.95
  L 580.36 161.99
  A 1.36 1.29 0.4 0 1 579.00 160.68
  L 579.17 147.32
  A 0.49 0.47 -90.0 0 0 578.69 146.82
  L 516.43 146.94
  A 0.49 0.48 89.4 0 0 515.95 147.44
  L 516.00 161.28
  A 0.78 0.75 0.4 0 1 515.21 162.03
  L 501.42 161.75
  A 0.47 0.46 -88.8 0 0 500.95 162.21
  C 500.62 176.05 501.07 189.55 500.75 203.25
  Q 500.56 211.16 500.93 242.32
  A 0.53 0.52 90.0 0 0 501.44 242.84
  L 515.07 242.97
  A 0.91 0.85 0.7 0 1 515.97 243.83
  L 515.84 257.22
  A 0.78 0.76 -89.3 0 0 516.59 258.01
  L 578.68 258.18
  A 0.49 0.49 0.0 0 0 579.17 257.69
  L 579.17 243.68
  A 0.53 0.52 -0.6 0 1 579.69 243.16
  L 593.57 243.05
  A 0.50 0.49 -0.6 0 0 594.06 242.56
  L 594.26 162.70
  A 0.75 0.71 90.0 0 0 593.55 161.95"
/>
<path stroke="#7f7f7f" vector-effect="non-scaling-stroke" d="
  M 461.90 165.49
  A 0.27 0.27 0.0 0 0 461.63 165.22
  L 432.51 165.22
  A 0.27 0.27 0.0 0 0 432.24 165.49
  L 432.24 239.57
  A 0.27 0.27 0.0 0 0 432.51 239.84
  L 461.63 239.84
  A 0.27 0.27 0.0 0 0 461.90 239.57
  L 461.90 165.49"
/>
<path stroke="#7f7f7f" vector-effect="non-scaling-stroke" d="
  M 560.83 162.49
  A 0.26 0.26 0.0 0 0 560.57 162.23
  L 531.41 162.23
  A 0.26 0.26 0.0 0 0 531.15 162.49
  L 531.15 239.49
  A 0.26 0.26 0.0 0 0 531.41 239.75
  L 560.57 239.75
  A 0.26 0.26 0.0 0 0 560.83 239.49
  L 560.83 162.49"
/>
</g>
<rect fill="#000000" x="-3.01" y="-3.34" transform="translate(89.45,29.29) rotate(-33.8)" width="6.02" height="6.68" rx="2.05"/>
<path fill="#000000" d="
  M 146.93 152.51
  Q 144.45 147.23 142.12 144.23
  Q 140.91 142.66 139.14 143.54
  C 132.36 146.88 135.34 141.60 132.00 140.96
  Q 131.54 138.91 129.55 136.12
  Q 128.07 134.04 126.40 135.98
  C 123.81 139.00 122.81 136.96 121.41 134.84
  Q 119.56 132.04 117.55 128.45
  A 0.88 0.87 75.3 0 0 116.79 128.00
  Q 113.57 128.00 112.08 129.97
  A 1.74 1.58 -43.0 0 0 111.92 131.85
  L 117.50 140.96
  C 115.04 144.13 109.62 144.53 115.56 149.36
  A 1.99 1.74 61.6 0 0 116.74 149.80
  L 137.68 149.99
  A 0.53 0.51 2.1 0 1 138.20 150.53
  C 137.61 160.16 138.50 169.70 137.99 179.40
  A 0.64 0.61 0.8 0 0 138.64 180.04
  L 152.56 179.91
  A 0.53 0.51 88.9 0 1 153.08 180.43
  L 153.19 194.31
  A 0.51 0.49 89.4 0 0 153.68 194.81
  L 167.22 194.74
  A 0.58 0.55 -89.5 0 0 167.77 194.17
  L 167.91 180.43
  A 0.54 0.52 -0.0 0 1 168.44 179.92
  L 182.44 179.69
  A 0.51 0.51 0.0 0 0 182.94 179.19
  L 183.06 147.32
  A 0.50 0.50 0.0 0 1 183.56 146.82
  L 215.48 146.93
  A 0.52 0.51 -0.0 0 1 216.00 147.44
  L 215.94 179.68
  A 0.49 0.48 0.6 0 1 215.44 180.16
  L 202.10 180.02
  A 1.08 1.07 90.0 0 0 201.02 181.11
  L 201.16 194.68
  A 0.47 0.46 -89.4 0 1 200.68 195.16
  Q 192.80 194.73 183.64 195.34
  A 0.69 0.68 88.2 0 0 183.00 196.03
  L 183.00 209.13
  A 0.87 0.86 89.7 0 0 183.87 210.00
  L 200.57 209.93
  A 0.52 0.50 89.4 0 1 201.07 210.44
  L 201.16 224.31
  A 0.52 0.49 -0.0 0 0 201.68 224.80
  L 215.68 224.80
  A 0.50 0.50 -89.4 0 1 216.18 225.31
  C 215.98 235.51 216.64 246.82 215.97 257.42
  A 0.95 0.92 1.6 0 1 215.02 258.29
  L 183.56 258.17
  A 0.51 0.49 -0.6 0 1 183.05 257.69
  Q 182.52 242.33 183.02 226.25
  A 1.17 1.13 1.2 0 0 181.86 225.08
  L 168.53 224.97
  A 0.57 0.55 0.0 0 1 167.97 224.43
  L 167.90 211.11
  A 0.88 0.82 89.6 0 0 167.08 210.24
  L 153.76 210.17
  A 0.51 0.51 90.0 0 0 153.25 210.68
  L 153.25 224.60
  A 0.46 0.46 0.6 0 1 152.78 225.06
  L 138.98 225.00
  A 0.93 0.92 90.0 0 0 138.06 225.93
  L 138.06 257.69
  A 0.51 0.50 0.6 0 1 137.54 258.19
  L 108.44 257.82
  A 0.51 0.51 0.6 0 1 107.94 257.31
  L 108.06 225.32
  A 0.50 0.48 0.6 0 1 108.57 224.84
  L 122.02 224.98
  A 1.01 0.97 -89.7 0 0 123.00 223.97
  L 123.00 210.48
  A 0.73 0.71 -89.2 0 1 123.73 209.75
  L 137.08 210.04
  A 0.65 0.63 0.9 0 0 137.75 209.41
  L 137.75 195.74
  A 0.71 0.71 -2.2 0 0 136.98 195.03
  Q 129.94 195.60 123.31 194.99
  A 0.56 0.55 2.9 0 1 122.81 194.44
  L 122.76 180.72
  A 0.52 0.51 0.0 0 0 122.25 180.22
  L 108.38 180.01
  A 0.44 0.42 -88.0 0 1 107.97 179.55
  Q 108.05 177.35 107.03 178.01
  Q 103.24 180.45 98.72 183.23
  Q 97.03 177.64 92.68 180.17
  C 86.56 183.73 90.42 172.52 83.59 177.98
  C 79.58 181.19 78.30 172.07 76.09 170.98
  L 73.61 166.16
  A 1.70 1.68 76.4 0 0 72.13 165.24
  L 36.82 165.07
  A 0.51 0.49 0.0 0 0 36.31 165.56
  L 36.19 194.32
  A 0.49 0.49 90.0 0 0 36.68 194.81
  L 83.55 194.93
  A 0.51 0.51 -0.4 0 1 84.06 195.44
  L 84.00 212.51
  A 0.51 0.49 -0.0 0 1 83.49 213.00
  L 39.81 213.26
  A 0.77 0.74 89.6 0 0 39.08 214.03
  L 39.06 242.43
  A 0.51 0.50 90.0 0 0 39.56 242.94
  L 98.68 243.01
  A 0.54 0.52 90.0 0 1 99.20 243.55
  L 99.05 257.56
  A 0.51 0.49 -89.4 0 1 98.56 258.06
  C 72.91 257.80 47.39 257.99 21.56 257.94
  A 0.51 0.50 90.0 0 1 21.06 257.43
  L 21.00 243.94
  A 0.95 0.93 89.7 0 0 20.07 243.00
  L 6.45 243.00
  A 0.51 0.51 -0.7 0 1 5.94 242.49
  L 6.00 165.50
  A 0.54 0.51 -90.0 0 1 6.51 164.96
  L 20.19 164.91
  A 0.54 0.48 -0.1 0 0 20.72 164.44
  L 21.07 150.57
  A 0.52 0.49 -89.4 0 1 21.56 150.06
  L 77.45 149.94
  Q 78.50 149.93 77.92 148.97
  L 76.12 146.00
  A 1.28 1.06 -30.8 0 1 76.68 144.42
  Q 80.47 142.18 80.07 140.96
  Q 78.11 138.84 78.61 136.80
  Q 78.82 135.93 80.70 134.43
  Q 83.83 131.92 79.74 128.39
  A 1.32 1.31 -40.7 0 0 78.19 128.28
  L 64.81 136.56
  Q 62.34 138.09 61.50 134.50
  Q 60.74 131.27 57.95 132.96
  Q 54.40 135.10 51.06 137.56
  Q 48.92 139.15 47.50 135.75
  C 46.25 132.76 44.39 133.62 42.51 135.17
  Q 40.75 136.62 38.34 132.96
  Q 37.02 130.96 35.53 131.98
  L 32.77 133.84
  A 1.23 1.12 -33.3 0 1 31.09 133.57
  L 22.17 119.35
  A 1.05 1.01 56.6 0 1 22.43 117.94
  L 25.28 116.01
  Q 27.34 114.63 25.99 112.55
  L 21.65 105.85
  Q 20.18 103.59 22.98 102.76
  C 28.45 101.13 22.09 94.08 20.43 91.80
  Q 19.17 90.07 21.01 89.00
  Q 31.84 82.65 42.69 75.62
  Q 46.68 73.04 48.82 77.45
  Q 50.05 79.99 51.95 77.90
  Q 54.66 74.92 56.75 78.75
  Q 58.77 82.44 60.50 80.25
  C 64.33 75.39 64.74 80.72 66.64 82.40
  C 69.22 84.68 72.15 77.33 74.03 82.74
  Q 75.07 85.74 78.10 84.40
  C 86.28 80.78 72.13 74.19 76.55 70.35
  C 84.15 63.75 82.27 84.91 91.15 75.97
  A 1.87 1.43 -40.8 0 0 91.58 73.91
  L 89.85 71.26
  A 1.19 1.18 -33.0 0 1 90.21 69.61
  L 93.21 67.71
  Q 94.70 66.77 93.25 64.90
  Q 91.37 62.47 92.14 61.09
  A 1.43 0.83 -4.7 0 1 92.92 60.55
  Q 98.21 58.97 94.55 55.20
  Q 92.92 53.51 94.93 52.30
  Q 99.73 49.40 96.69 46.52
  A 1.25 0.95 27.6 0 1 96.30 45.69
  C 96.37 43.04 98.43 42.77 100.14 41.68
  C 105.80 38.10 111.73 34.88 117.32 31.23
  C 125.89 25.61 125.64 43.91 132.19 36.94
  Q 134.30 34.69 135.94 38.31
  Q 137.65 42.10 140.25 45.31
  A 1.16 1.12 71.3 0 0 141.06 45.73
  Q 143.27 45.86 144.29 44.69
  Q 146.15 42.54 147.54 45.01
  Q 150.51 50.28 153.25 54.62
  C 155.12 57.59 156.48 58.63 152.17 60.95
  Q 149.44 62.41 151.83 64.38
  Q 155.46 67.37 149.71 69.65
  A 1.50 1.39 -30.7 0 0 149.04 71.91
  L 150.94 74.06
  Q 152.46 75.80 150.31 76.81
  Q 147.38 78.20 144.71 80.01
  C 142.26 81.67 140.31 82.12 143.05 85.64
  Q 144.59 87.61 142.46 88.88
  L 129.59 96.55
  Q 128.03 97.48 128.81 99.11
  Q 131.55 104.84 135.06 101.56
  Q 137.52 99.27 138.50 102.75
  C 140.41 109.55 144.84 98.69 147.56 105.19
  Q 149.12 108.90 151.19 106.69
  Q 154.73 102.90 157.45 108.66
  A 0.85 0.84 65.0 0 0 158.55 109.07
  C 162.65 107.27 162.71 105.78 165.47 110.26
  Q 167.75 113.96 169.92 117.72
  C 171.16 119.87 174.74 122.71 169.74 124.26
  Q 167.33 125.00 168.45 127.19
  L 170.36 130.92
  A 0.94 0.91 70.2 0 1 169.76 132.25
  Q 168.24 132.58 166.83 133.76
  A 1.81 1.80 -38.9 0 0 166.56 136.25
  Q 169.21 139.66 165.97 141.71
  Q 156.70 147.57 146.93 152.51
  Z
  M 106.75 111.35
  L 112.17 120.17
  Q 113.12 121.72 114.90 120.90
  Q 119.07 118.97 117.32 115.95
  Q 116.23 114.05 117.67 112.40
  Q 120.06 109.68 124.02 108.24
  Q 127.08 107.13 125.34 104.49
  L 120.93 97.80
  Q 119.63 95.83 121.62 94.63
  L 134.63 86.83
  A 1.66 1.61 -32.7 0 0 135.17 84.51
  L 133.24 81.74
  A 0.98 0.93 53.2 0 1 133.39 80.46
  Q 137.39 77.17 141.95 75.18
  Q 143.80 74.37 142.82 72.62
  C 142.01 71.18 140.00 69.58 141.79 68.00
  L 144.35 66.37
  A 1.92 1.50 -34.4 0 0 145.12 63.96
  L 143.25 61.50
  Q 141.97 59.82 144.44 58.94
  Q 149.92 56.98 144.68 52.56
  Q 143.19 51.30 141.89 52.76
  C 138.04 57.09 134.79 46.50 132.09 44.36
  A 0.79 0.76 49.2 0 0 131.24 44.28
  Q 129.82 45.03 128.81 46.31
  Q 127.21 48.35 125.56 45.69
  L 120.39 37.33
  A 1.02 0.92 -30.1 0 0 119.08 37.05
  C 114.57 39.57 110.31 42.44 105.85 44.99
  C 101.22 47.63 109.12 51.16 105.54 52.74
  Q 104.42 53.24 103.48 54.03
  C 100.76 56.30 101.95 56.15 103.32 58.05
  C 105.63 61.29 102.55 61.48 100.82 62.70
  C 97.03 65.37 104.79 66.95 100.84 70.14
  Q 100.54 70.39 99.95 70.48
  Q 98.51 70.71 97.98 71.96
  A 1.12 1.09 -46.9 0 0 98.00 72.90
  L 99.94 76.81
  A 1.19 1.07 62.1 0 1 99.57 78.30
  L 91.33 83.22
  A 1.66 1.57 -31.4 0 0 90.72 85.45
  L 106.75 111.35
  Z
  M 47.25 125.46
  Q 49.39 126.23 49.97 128.13
  Q 50.62 130.27 52.69 129.10
  L 60.66 124.61
  Q 62.52 123.56 63.42 125.73
  Q 64.72 128.89 66.91 127.63
  Q 72.84 124.24 79.90 119.95
  Q 81.54 118.95 82.57 120.61
  L 87.37 128.39
  A 1.72 1.72 -32.0 0 0 89.75 128.94
  L 97.23 124.23
  Q 99.18 123.01 100.18 125.04
  Q 102.67 130.10 106.91 125.96
  A 1.87 1.86 -38.6 0 0 107.18 123.61
  L 102.00 115.71
  Q 94.40 102.64 86.50 89.75
  Q 84.69 86.80 82.25 88.75
  Q 81.05 89.70 74.69 93.25
  A 0.70 0.68 -38.1 0 1 73.87 93.16
  Q 72.47 91.86 71.73 90.17
  Q 70.68 87.76 68.54 89.29
  Q 64.37 92.28 63.14 88.48
  A 1.25 0.99 88.7 0 0 62.55 87.77
  Q 60.31 86.76 58.19 88.66
  Q 56.61 90.08 55.32 88.35
  L 52.97 85.21
  A 0.98 0.95 52.3 0 0 51.59 85.01
  L 49.19 86.94
  Q 46.89 88.78 46.06 85.69
  Q 44.94 81.49 41.33 83.77
  Q 35.23 87.63 28.86 91.23
  A 1.82 1.69 59.5 0 0 28.32 93.69
  L 33.53 102.31
  A 0.83 0.77 -43.9 0 1 33.48 103.18
  Q 32.56 104.54 30.98 105.10
  A 1.86 0.94 -5.8 0 0 30.17 105.62
  Q 28.66 107.49 30.69 109.56
  Q 33.05 111.98 34.82 116.53
  A 0.70 0.66 61.2 0 1 34.62 117.32
  L 31.69 119.54
  A 2.11 2.02 -29.0 0 0 30.96 121.88
  Q 32.80 126.98 36.94 123.74
  Q 39.16 122.01 40.06 124.67
  Q 40.55 126.12 42.58 127.48
  A 0.92 0.64 -36.6 0 0 43.40 127.45
  L 47.25 125.46
  Z
  M 130.42 126.51
  C 132.72 128.05 134.87 133.14 136.32 135.63
  Q 137.35 137.42 140.37 135.28
  Q 141.16 134.71 141.82 133.99
  C 142.81 132.90 147.99 142.40 148.57 143.45
  A 1.55 1.54 61.0 0 0 150.67 144.06
  Q 153.61 142.41 156.55 140.41
  C 157.85 139.52 160.15 139.66 160.05 137.41
  C 159.97 135.58 158.03 134.74 157.71 133.11
  A 1.64 1.63 -19.0 0 1 158.57 131.35
  Q 162.06 129.58 161.80 127.54
  A 1.39 0.84 25.6 0 0 161.29 126.76
  C 155.50 122.08 165.82 122.87 164.21 119.06
  C 162.94 116.06 161.10 113.52 157.74 117.16
  A 1.32 1.11 -41.0 0 1 155.82 117.19
  L 153.63 113.79
  Q 152.51 112.05 151.04 113.26
  C 144.43 118.70 146.85 110.33 142.85 111.11
  C 140.55 111.56 138.72 115.86 136.74 110.97
  Q 136.05 109.27 134.47 108.65
  A 0.98 0.84 -50.5 0 0 133.60 108.80
  Q 128.79 112.48 126.56 113.31
  C 121.31 115.26 126.58 117.85 126.47 120.93
  A 0.73 0.67 -8.3 0 1 125.95 121.57
  Q 119.84 123.33 124.66 128.71
  A 1.06 1.01 52.0 0 0 125.99 128.91
  L 129.60 126.54
  A 0.79 0.68 -42.9 0 1 130.42 126.51
  Z
  M 105.70 157.29
  Q 106.53 155.63 108.82 154.90
  Q 111.14 154.16 109.89 152.07
  Q 107.58 148.21 105.28 145.13
  C 103.63 142.92 103.85 141.98 106.62 141.28
  Q 108.51 140.79 108.34 138.85
  Q 108.12 136.23 105.18 134.49
  A 0.68 0.62 -51.3 0 0 104.40 134.61
  Q 100.31 138.68 98.17 133.44
  Q 97.38 131.52 95.58 132.56
  C 92.88 134.11 90.33 135.77 87.57 137.21
  C 83.29 139.44 91.30 142.20 87.42 145.21
  A 2.02 1.09 8.8 0 1 86.49 145.54
  C 82.90 145.95 85.13 149.65 86.27 151.19
  Q 87.49 152.84 85.60 153.63
  Q 83.20 154.64 82.45 156.04
  A 1.01 0.88 47.1 0 0 82.48 156.93
  L 84.13 160.06
  Q 85.08 161.86 83.22 162.70
  C 79.77 164.26 79.72 165.16 81.67 168.19
  Q 83.90 171.67 87.00 167.95
  A 1.45 1.03 -66.8 0 1 87.80 167.46
  C 90.88 167.06 89.02 172.69 93.46 171.58
  A 1.84 0.99 -61.8 0 0 94.26 171.05
  Q 95.27 169.93 96.75 169.78
  A 0.94 0.75 -16.8 0 1 97.60 170.12
  L 99.60 173.11
  Q 101.01 175.23 102.81 173.99
  L 110.81 168.52
  A 1.28 1.24 -33.2 0 0 111.19 166.82
  L 105.77 158.17
  A 0.93 0.83 43.8 0 1 105.70 157.29
  Z"
/>
<rect fill="#000000" x="-2.97" y="-3.05" transform="translate(87.43,38.11) rotate(-42.1)" width="5.94" height="6.10" rx="1.86"/>
<path fill="#f05d5d" d="
  M 141.79 68.00
  C 140.70 67.07 126.47 76.38 126.33 76.47
  C 124.36 77.70 120.57 78.11 123.75 81.75
  Q 125.20 83.41 125.66 85.50
  A 0.74 0.71 -21.9 0 1 125.32 86.26
  L 109.75 95.81
  A 0.79 0.79 58.7 0 0 109.49 96.89
  L 114.55 105.53
  A 0.95 0.89 -31.2 0 1 114.20 106.77
  L 106.75 111.35
  L 90.72 85.45
  A 1.66 1.57 -31.4 0 1 91.33 83.22
  L 99.57 78.30
  A 1.19 1.07 62.1 0 0 99.94 76.81
  L 98.00 72.90
  A 1.12 1.09 -46.9 0 1 97.98 71.96
  Q 98.51 70.71 99.95 70.48
  Q 100.54 70.39 100.84 70.14
  C 104.79 66.95 97.03 65.37 100.82 62.70
  C 102.55 61.48 105.63 61.29 103.32 58.05
  C 101.95 56.15 100.76 56.30 103.48 54.03
  Q 104.42 53.24 105.54 52.74
  C 109.12 51.16 101.22 47.63 105.85 44.99
  C 110.31 42.44 114.57 39.57 119.08 37.05
  A 1.02 0.92 -30.1 0 1 120.39 37.33
  L 125.56 45.69
  Q 127.21 48.35 128.81 46.31
  Q 129.82 45.03 131.24 44.28
  A 0.79 0.76 49.2 0 1 132.09 44.36
  C 134.79 46.50 138.04 57.09 141.89 52.76
  Q 143.19 51.30 144.68 52.56
  Q 149.92 56.98 144.44 58.94
  Q 141.97 59.82 143.25 61.50
  L 145.12 63.96
  A 1.92 1.50 -34.4 0 1 144.35 66.37
  L 141.79 68.00
  Z"
/>
<rect fill="#000000" x="-2.90" y="-3.04" transform="translate(85.20,46.78) rotate(-36.6)" width="5.80" height="6.08" rx="1.66"/>
<path fill="#000000" d="
  M 84.23 52.47
  C 90.03 55.76 84.05 59.90 81.22 57.67
  C 77.94 55.08 79.62 53.25 83.03 52.32
  A 1.56 1.52 -37.0 0 1 84.23 52.47
  Z"
/>
<rect fill="#000000" x="-3.06" y="-3.24" transform="translate(35.25,62.18) rotate(-37.1)" width="6.12" height="6.48" rx="2.10"/>
<path fill="#000000" d="
  M 278.94 126.64
  C 277.75 126.72 276.91 125.85 276.12 125.44
  C 267.77 121.13 265.53 111.98 264.76 103.39
  C 264.48 100.34 265.24 96.19 265.51 94.02
  C 268.12 72.32 299.10 67.48 308.49 86.25
  C 311.20 91.67 310.89 99.01 310.75 105.27
  Q 310.70 107.24 308.66 107.20
  L 282.88 106.77
  A 1.64 1.60 86.6 0 0 281.27 108.63
  C 282.19 115.62 289.94 115.34 295.50 115.25
  Q 304.22 115.12 312.01 115.40
  Q 314.46 115.49 314.48 113.05
  L 314.81 60.75
  A 0.79 0.77 -0.0 0 1 315.59 59.99
  L 330.41 59.81
  A 1.14 1.09 0.2 0 1 331.56 60.92
  L 330.75 128.06
  A 0.77 0.76 0.4 0 1 329.97 128.82
  C 314.01 128.71 298.64 129.26 283.06 127.81
  Q 281.09 127.63 279.85 126.85
  A 1.58 1.38 -28.1 0 0 278.94 126.64
  Z
  M 293.34 89.46
  C 288.96 83.48 280.33 88.94 281.57 95.08
  A 0.64 0.58 -4.9 0 0 282.19 95.55
  L 293.82 95.66
  Q 296.49 95.68 295.47 93.26
  Q 294.56 91.12 293.34 89.46
  Z"
/>
<rect fill="#000000" x="-3.08" y="-3.13" transform="translate(81.06,63.82) rotate(-32.1)" width="6.16" height="6.26" rx="1.69"/>
<rect fill="#000000" x="-8.30" y="-6.12" transform="translate(397.76,66.64) rotate(0.1)" width="16.60" height="12.24" rx="0.75"/>
<rect fill="#000000" x="-8.36" y="-6.27" transform="translate(462.86,66.78) rotate(-0.3)" width="16.72" height="12.54" rx="1.05"/>
<path fill="#000000" d="
  M 45.31 61.44
  Q 50.23 64.90 44.27 67.83
  A 1.64 1.62 -35.3 0 1 42.39 67.52
  Q 40.03 65.14 41.06 62.56
  Q 42.35 59.36 45.31 61.44
  Z"
/>
<rect fill="#000000" x="-3.18" y="-2.98" transform="translate(52.83,66.28) rotate(-34.3)" width="6.36" height="5.96" rx="1.85"/>
<rect fill="#000000" x="-3.19" y="-3.19" transform="translate(61.56,68.25) rotate(-30.6)" width="6.38" height="6.38" rx="2.33"/>
<rect fill="#000000" x="-2.89" y="-3.12" transform="translate(70.12,70.43) rotate(-28.5)" width="5.78" height="6.24" rx="1.49"/>
<path fill="#f9e73f" d="
  M 141.79 68.00
  C 140.00 69.58 142.01 71.18 142.82 72.62
  Q 143.80 74.37 141.95 75.18
  Q 137.39 77.17 133.39 80.46
  A 0.98 0.93 53.2 0 0 133.24 81.74
  L 135.17 84.51
  A 1.66 1.61 -32.7 0 1 134.63 86.83
  L 121.62 94.63
  Q 119.63 95.83 120.93 97.80
  L 125.34 104.49
  Q 127.08 107.13 124.02 108.24
  Q 120.06 109.68 117.67 112.40
  Q 116.23 114.05 117.32 115.95
  Q 119.07 118.97 114.90 120.90
  Q 113.12 121.72 112.17 120.17
  L 106.75 111.35
  L 114.20 106.77
  A 0.95 0.89 -31.2 0 0 114.55 105.53
  L 109.49 96.89
  A 0.79 0.79 58.7 0 1 109.75 95.81
  L 125.32 86.26
  A 0.74 0.71 -21.9 0 0 125.66 85.50
  Q 125.20 83.41 123.75 81.75
  C 120.57 78.11 124.36 77.70 126.33 76.47
  C 126.47 76.38 140.70 67.07 141.79 68.00
  Z"
/>
<path fill="#000000" d="
  M 242.84 85.34
  Q 243.77 87.33 244.73 85.25
  L 248.67 76.70
  A 1.13 1.10 11.6 0 1 249.67 76.06
  L 264.87 75.99
  A 1.26 1.23 -75.1 0 1 265.93 77.86
  L 253.65 99.72
  A 1.57 1.56 44.8 0 0 253.66 101.26
  L 268.32 126.95
  Q 269.36 128.77 267.29 128.68
  Q 260.60 128.38 253.75 128.50
  C 250.54 128.56 250.65 127.24 249.46 125.03
  Q 246.63 119.76 243.97 115.42
  Q 242.53 113.08 241.32 115.55
  Q 238.12 122.08 233.97 128.03
  A 0.93 0.92 17.6 0 1 233.19 128.43
  Q 222.53 128.25 198.00 128.25
  C 175.88 128.25 171.11 108.84 174.75 91.00
  C 178.46 72.83 206.45 68.34 216.38 83.43
  C 219.90 88.79 220.22 96.22 219.81 102.65
  C 219.69 104.62 220.36 106.79 217.31 106.60
  C 208.94 106.09 200.37 106.53 192.04 106.32
  A 1.02 1.02 3.3 0 0 191.00 107.24
  C 190.44 113.26 194.29 114.50 199.54 114.50
  Q 211.79 114.50 224.17 114.50
  A 1.95 1.89 -74.7 0 0 225.83 113.52
  L 232.94 101.18
  Q 233.88 99.55 232.99 98.05
  L 220.93 77.80
  Q 219.72 75.77 222.07 75.84
  L 238.02 76.28
  A 1.02 0.95 77.1 0 1 238.89 76.87
  L 242.84 85.34
  Z
  M 204.57 94.70
  C 204.88 85.33 192.82 82.94 190.28 93.88
  A 1.31 1.31 3.8 0 0 191.68 95.48
  Q 197.38 94.95 203.63 95.54
  A 0.87 0.86 -86.6 0 0 204.57 94.70
  Z"
/>
<path fill="#000000" d="
  M 480.51 83.24
  C 490.73 70.86 517.70 72.65 521.44 90.42
  C 522.57 95.83 522.52 102.12 522.46 107.52
  C 522.32 118.19 518.04 126.26 507.32 129.36
  C 497.10 132.31 482.56 129.28 477.81 118.54
  C 475.03 112.23 475.69 99.33 476.25 92.75
  Q 476.67 87.90 480.51 83.24
  Z
  M 492.92 91.71
  A 3.06 3.04 69.8 0 0 492.21 93.26
  Q 490.83 102.88 492.20 111.22
  C 493.13 116.88 501.23 117.79 504.42 114.26
  Q 506.07 112.43 506.31 108.39
  C 506.58 103.97 506.84 96.72 506.20 93.68
  C 504.99 88.00 496.43 87.62 492.92 91.71
  Z"
/>
<path fill="#000000" d="
  M 362.06 104.20
  L 369.02 77.67
  A 1.24 1.23 7.2 0 1 370.22 76.75
  L 383.73 76.75
  Q 385.82 76.75 385.17 78.75
  L 369.13 127.69
  A 1.81 1.81 9.8 0 1 367.37 128.93
  L 353.29 128.69
  A 1.98 1.98 81.3 0 1 351.44 127.33
  L 335.45 78.36
  A 1.42 1.41 80.8 0 1 336.78 76.50
  L 352.54 76.50
  A 0.91 0.90 81.9 0 1 353.41 77.16
  Q 357.16 90.66 360.31 103.94
  Q 360.51 104.75 361.44 104.74
  A 0.73 0.63 -82.1 0 0 362.06 104.20
  Z"
/>
<path fill="#000000" d="
  M 434.17 110.52
  Q 433.59 108.75 431.73 108.75
  C 424.61 108.75 418.35 109.98 413.61 103.41
  C 406.59 93.67 410.53 77.27 424.44 77.24
  Q 435.10 77.22 445.22 77.31
  A 1.54 1.54 0.2 0 1 446.75 78.85
  L 446.75 89.94
  A 0.79 0.75 0.4 0 1 445.95 90.69
  L 428.50 90.50
  Q 424.99 90.46 426.31 93.44
  C 428.72 98.83 436.36 95.34 441.12 97.25
  Q 445.61 99.05 447.81 103.19
  Q 451.77 110.61 448.51 119.04
  C 445.12 127.78 438.96 128.95 429.73 129.12
  Q 410.92 129.46 390.84 128.96
  Q 388.73 128.91 388.79 126.80
  Q 389.50 103.03 389.07 78.45
  A 1.43 1.42 89.6 0 1 390.49 77.00
  L 404.43 77.00
  A 1.83 1.80 -89.7 0 1 406.23 78.85
  L 405.75 114.24
  A 1.50 1.49 0.4 0 0 407.25 115.75
  Q 417.60 115.75 428.37 115.75
  C 431.75 115.75 435.56 114.83 434.17 110.52
  Z"
/>
<rect fill="#000000" x="-8.46" y="-25.91" transform="translate(462.74,103.33) rotate(0.6)" width="16.92" height="51.82" rx="0.93"/>
<path fill="#000000" d="
  M 557.84 98.07
  C 558.06 94.11 555.44 90.50 551.32 90.77
  C 549.11 90.92 547.02 90.50 544.99 90.95
  A 1.32 1.30 -5.8 0 0 543.95 92.21
  L 543.83 128.09
  A 1.08 1.06 87.4 0 1 542.87 129.16
  Q 534.73 129.98 527.44 129.12
  A 0.58 0.58 2.9 0 1 526.93 128.56
  Q 526.64 107.40 527.29 86.25
  Q 527.41 82.49 527.08 79.51
  Q 526.85 77.40 528.98 77.47
  Q 540.75 77.88 551.75 77.77
  C 557.08 77.72 564.25 77.44 568.63 80.54
  C 575.29 85.27 574.26 90.53 574.22 99.52
  Q 574.16 114.09 574.42 127.92
  Q 574.46 129.85 572.50 129.84
  L 559.45 129.74
  Q 557.42 129.73 557.43 127.73
  C 557.49 117.63 557.30 107.63 557.84 98.07
  Z"
/>
<path fill="#f05d5d" d="
  M 102.00 115.71
  Q 97.80 116.88 94.47 119.66
  A 0.86 0.83 -35.3 0 1 93.19 119.46
  L 88.34 111.09
  A 1.46 1.43 59.6 0 0 86.37 110.55
  L 70.69 119.76
  A 0.54 0.50 58.3 0 1 69.99 119.57
  L 66.33 113.90
  A 0.82 0.81 -32.3 0 0 65.21 113.66
  Q 56.52 119.08 48.31 123.81
  Q 47.17 124.47 47.25 125.46
  L 43.40 127.45
  A 0.92 0.64 -36.6 0 1 42.58 127.48
  Q 40.55 126.12 40.06 124.67
  Q 39.16 122.01 36.94 123.74
  Q 32.80 126.98 30.96 121.88
  A 2.11 2.02 -29.0 0 1 31.69 119.54
  L 34.62 117.32
  A 0.70 0.66 61.2 0 0 34.82 116.53
  Q 33.05 111.98 30.69 109.56
  Q 28.66 107.49 30.17 105.62
  A 1.86 0.94 -5.8 0 1 30.98 105.10
  Q 32.56 104.54 33.48 103.18
  A 0.83 0.77 -43.9 0 0 33.53 102.31
  L 28.32 93.69
  A 1.82 1.69 59.5 0 1 28.86 91.23
  Q 35.23 87.63 41.33 83.77
  Q 44.94 81.49 46.06 85.69
  Q 46.89 88.78 49.19 86.94
  L 51.59 85.01
  A 0.98 0.95 52.3 0 1 52.97 85.21
  L 55.32 88.35
  Q 56.61 90.08 58.19 88.66
  Q 60.31 86.76 62.55 87.77
  A 1.25 0.99 88.7 0 1 63.14 88.48
  Q 64.37 92.28 68.54 89.29
  Q 70.68 87.76 71.73 90.17
  Q 72.47 91.86 73.87 93.16
  A 0.70 0.68 -38.1 0 0 74.69 93.25
  Q 81.05 89.70 82.25 88.75
  Q 84.69 86.80 86.50 89.75
  Q 94.40 102.64 102.00 115.71
  Z"
/>
<path fill="#1299fb" d="
  M 129.60 126.54
  L 125.99 128.91
  A 1.06 1.01 52.0 0 1 124.66 128.71
  Q 119.84 123.33 125.95 121.57
  A 0.73 0.67 -8.3 0 0 126.47 120.93
  C 126.58 117.85 121.31 115.26 126.56 113.31
  Q 128.79 112.48 133.60 108.80
  A 0.98 0.84 -50.5 0 1 134.47 108.65
  Q 136.05 109.27 136.74 110.97
  C 138.72 115.86 140.55 111.56 142.85 111.11
  C 146.85 110.33 144.43 118.70 151.04 113.26
  Q 152.51 112.05 153.63 113.79
  L 155.82 117.19
  A 1.32 1.11 -41.0 0 0 157.74 117.16
  C 161.10 113.52 162.94 116.06 164.21 119.06
  C 165.82 122.87 155.50 122.08 161.29 126.76
  A 1.39 0.84 25.6 0 1 161.80 127.54
  Q 162.06 129.58 158.57 131.35
  A 1.64 1.63 -19.0 0 0 157.71 133.11
  C 158.03 134.74 159.97 135.58 160.05 137.41
  C 160.15 139.66 157.85 139.52 156.55 140.41
  Q 153.61 142.41 150.67 144.06
  A 1.55 1.54 61.0 0 1 148.57 143.45
  C 147.99 142.40 142.81 132.90 141.82 133.99
  Q 141.16 134.71 140.37 135.28
  Q 137.35 137.42 136.32 135.63
  C 134.87 133.14 132.72 128.05 130.42 126.51
  A 0.79 0.68 -42.9 0 0 129.60 126.54
  Z"
/>
<path fill="#f9e73f" d="
  M 102.00 115.71
  L 107.18 123.61
  A 1.87 1.86 -38.6 0 1 106.91 125.96
  Q 102.67 130.10 100.18 125.04
  Q 99.18 123.01 97.23 124.23
  L 89.75 128.94
  A 1.72 1.72 -32.0 0 1 87.37 128.39
  L 82.57 120.61
  Q 81.54 118.95 79.90 119.95
  Q 72.84 124.24 66.91 127.63
  Q 64.72 128.89 63.42 125.73
  Q 62.52 123.56 60.66 124.61
  L 52.69 129.10
  Q 50.62 130.27 49.97 128.13
  Q 49.39 126.23 47.25 125.46
  Q 47.17 124.47 48.31 123.81
  Q 56.52 119.08 65.21 113.66
  A 0.82 0.81 -32.3 0 1 66.33 113.90
  L 69.99 119.57
  A 0.54 0.50 58.3 0 0 70.69 119.76
  L 86.37 110.55
  A 1.46 1.43 59.6 0 1 88.34 111.09
  L 93.19 119.46
  A 0.86 0.83 -35.3 0 0 94.47 119.66
  Q 97.80 116.88 102.00 115.71
  Z"
/>
<path fill="#1299fb" d="
  M 105.77 158.17
  L 111.19 166.82
  A 1.28 1.24 -33.2 0 1 110.81 168.52
  L 102.81 173.99
  Q 101.01 175.23 99.60 173.11
  L 97.60 170.12
  A 0.94 0.75 -16.8 0 0 96.75 169.78
  Q 95.27 169.93 94.26 171.05
  A 1.84 0.99 -61.8 0 1 93.46 171.58
  C 89.02 172.69 90.88 167.06 87.80 167.46
  A 1.45 1.03 -66.8 0 0 87.00 167.95
  Q 83.90 171.67 81.67 168.19
  C 79.72 165.16 79.77 164.26 83.22 162.70
  Q 85.08 161.86 84.13 160.06
  L 82.48 156.93
  A 1.01 0.88 47.1 0 1 82.45 156.04
  Q 83.20 154.64 85.60 153.63
  Q 87.49 152.84 86.27 151.19
  C 85.13 149.65 82.90 145.95 86.49 145.54
  A 2.02 1.09 8.8 0 0 87.42 145.21
  C 91.30 142.20 83.29 139.44 87.57 137.21
  C 90.33 135.77 92.88 134.11 95.58 132.56
  Q 97.38 131.52 98.17 133.44
  Q 100.31 138.68 104.40 134.61
  A 0.68 0.62 -51.3 0 1 105.18 134.49
  Q 108.12 136.23 108.34 138.85
  Q 108.51 140.79 106.62 141.28
  C 103.85 141.98 103.63 142.92 105.28 145.13
  Q 107.58 148.21 109.89 152.07
  Q 111.14 154.16 108.82 154.90
  Q 106.53 155.63 105.70 157.29
  A 0.93 0.83 43.8 0 0 105.77 158.17
  Z"
/>
<path fill="#fefefe" d="
  M 80.07 140.96
  Q 80.47 142.18 76.68 144.42
  A 1.28 1.06 -30.8 0 0 76.12 146.00
  L 77.92 148.97
  Q 78.50 149.93 77.45 149.94
  L 21.56 150.06
  A 0.52 0.49 -89.4 0 0 21.07 150.57
  L 20.72 164.44
  A 0.54 0.48 -0.1 0 1 20.19 164.91
  L 6.51 164.96
  A 0.54 0.51 -90.0 0 0 6.00 165.50
  L 5.94 242.49
  A 0.51 0.51 0.3 0 0 6.45 243.00
  L 20.07 243.00
  A 0.95 0.93 89.7 0 1 21.00 243.94
  L 21.06 257.43
  A 0.51 0.50 90.0 0 0 21.56 257.94
  C 47.39 257.99 72.91 257.80 98.56 258.06
  A 0.51 0.49 -89.4 0 0 99.05 257.56
  L 99.20 243.55
  A 0.54 0.52 90.0 0 0 98.68 243.01
  L 39.56 242.94
  A 0.51 0.50 90.0 0 1 39.06 242.43
  L 39.08 214.03
  A 0.77 0.74 89.6 0 1 39.81 213.26
  L 83.49 213.00
  A 0.51 0.49 0.0 0 0 84.00 212.51
  L 84.06 195.44
  A 0.51 0.51 0.2 0 0 83.55 194.93
  L 36.68 194.81
  A 0.49 0.49 89.5 0 1 36.19 194.32
  L 36.31 165.56
  A 0.51 0.49 -0.0 0 1 36.82 165.07
  L 72.13 165.24
  A 1.70 1.68 76.4 0 1 73.61 166.16
  L 76.09 170.98
  L 45.51 171.00
  A 0.52 0.51 90.0 0 0 45.00 171.52
  L 44.93 188.45
  A 0.55 0.55 89.8 0 0 45.48 189.00
  L 89.58 189.06
  A 0.43 0.42 -90.0 0 1 90.00 189.49
  L 90.03 217.87
  A 1.07 1.05 -90.0 0 1 88.98 218.94
  L 45.56 219.06
  A 0.51 0.50 -90.0 0 0 45.06 219.57
  L 44.93 233.45
  A 0.56 0.55 0.0 0 0 45.49 234.00
  L 98.70 234.18
  A 0.49 0.47 89.4 0 0 99.17 233.68
  L 99.00 219.66
  A 0.67 0.65 -0.4 0 1 99.67 219.00
  L 113.69 218.94
  A 0.50 0.49 -90.0 0 0 114.18 218.44
  L 114.17 186.32
  A 0.49 0.49 -0.1 0 0 113.68 185.83
  L 99.81 185.95
  A 0.63 0.59 83.0 0 1 99.21 185.45
  L 98.72 183.23
  Q 103.24 180.45 107.03 178.01
  Q 108.05 177.35 107.97 179.55
  A 0.44 0.42 -88.0 0 0 108.38 180.01
  L 122.25 180.22
  A 0.52 0.51 0.0 0 1 122.76 180.72
  L 122.81 194.44
  A 0.56 0.55 2.9 0 0 123.31 194.99
  Q 129.94 195.60 136.98 195.03
  A 0.71 0.71 -2.2 0 1 137.75 195.74
  L 137.75 209.41
  A 0.65 0.63 0.9 0 1 137.08 210.04
  L 123.73 209.75
  A 0.73 0.71 -89.2 0 0 123.00 210.48
  L 123.00 223.97
  A 1.01 0.97 -89.7 0 1 122.02 224.98
  L 108.57 224.84
  A 0.50 0.48 0.6 0 0 108.06 225.32
  L 107.94 257.31
  A 0.51 0.51 0.6 0 0 108.44 257.82
  L 137.54 258.19
  A 0.51 0.50 0.6 0 0 138.06 257.69
  L 138.06 225.93
  A 0.93 0.92 -90.0 0 1 138.98 225.00
  L 152.78 225.06
  A 0.46 0.46 0.6 0 0 153.25 224.60
  L 153.25 210.68
  A 0.51 0.51 89.7 0 1 153.76 210.17
  L 167.08 210.24
  A 0.88 0.82 89.6 0 1 167.90 211.11
  L 167.97 224.43
  A 0.57 0.55 0.0 0 0 168.53 224.97
  L 181.86 225.08
  A 1.17 1.13 1.2 0 1 183.02 226.25
  Q 182.52 242.33 183.05 257.69
  A 0.51 0.49 -0.6 0 0 183.56 258.17
  L 215.02 258.29
  A 0.95 0.92 1.6 0 0 215.97 257.42
  C 216.64 246.82 215.98 235.51 216.18 225.31
  A 0.50 0.50 -89.4 0 0 215.68 224.80
  L 201.68 224.80
  A 0.52 0.49 0.0 0 1 201.16 224.31
  L 201.07 210.44
  A 0.52 0.50 89.4 0 0 200.57 209.93
  L 183.87 210.00
  A 0.87 0.86 89.7 0 1 183.00 209.13
  L 183.00 196.03
  A 0.69 0.68 88.2 0 1 183.64 195.34
  Q 192.80 194.73 200.68 195.16
  A 0.47 0.46 -89.4 0 0 201.16 194.68
  L 201.02 181.11
  A 1.08 1.07 90.0 0 1 202.10 180.02
  L 215.44 180.16
  A 0.49 0.48 0.6 0 0 215.94 179.68
  L 216.00 147.44
  A 0.52 0.51 0.0 0 0 215.48 146.93
  L 183.56 146.82
  A 0.50 0.50 0.0 0 0 183.06 147.32
  L 182.94 179.19
  A 0.51 0.51 0.0 0 1 182.44 179.69
  L 168.44 179.92
  A 0.54 0.52 -0.0 0 0 167.91 180.43
  L 167.77 194.17
  A 0.58 0.55 -89.5 0 1 167.22 194.74
  L 153.68 194.81
  A 0.51 0.49 89.4 0 1 153.19 194.31
  L 153.08 180.43
  A 0.53 0.51 88.9 0 0 152.56 179.91
  L 138.64 180.04
  A 0.64 0.61 0.8 0 1 137.99 179.40
  C 138.50 169.70 137.61 160.16 138.20 150.53
  A 0.53 0.51 2.1 0 0 137.68 149.99
  L 116.74 149.80
  A 1.99 1.74 61.6 0 1 115.56 149.36
  C 109.62 144.53 115.04 144.13 117.50 140.96
  L 132.00 140.96
  C 135.34 141.60 132.36 146.88 139.14 143.54
  Q 140.91 142.66 142.12 144.23
  Q 144.45 147.23 146.93 152.51
  L 147.00 170.50
  A 0.50 0.50 0.6 0 0 147.49 171.00
  L 176.69 171.18
  A 0.49 0.49 0.0 0 0 177.18 170.69
  L 177.00 141.77
  A 0.77 0.76 -0.4 0 1 177.77 141.00
  L 221.12 141.00
  A 0.86 0.84 0.3 0 1 221.98 141.85
  L 221.82 155.54
  A 0.49 0.48 1.2 0 0 222.29 156.02
  L 230.22 156.33
  A 1.05 1.04 0.5 0 0 231.31 155.27
  L 231.15 141.68
  A 0.55 0.51 -0.6 0 1 231.69 141.17
  L 260.15 141.05
  A 0.87 0.85 -90.0 0 1 261.00 141.92
  L 260.94 233.31
  A 0.51 0.50 90.0 0 0 261.44 233.82
  L 323.10 233.99
  A 0.85 0.83 -0.0 0 1 323.95 234.82
  L 323.82 263.31
  A 0.52 0.51 0.0 0 1 323.30 263.82
  L 232.13 264.00
  A 1.13 1.13 0.0 0 1 231.00 262.87
  L 231.06 249.44
  A 0.50 0.48 88.9 0 0 230.56 248.94
  L 222.44 249.16
  A 0.51 0.51 88.9 0 0 221.94 249.68
  L 222.01 263.18
  A 0.82 0.81 -90.0 0 1 221.20 264.00
  L 177.81 263.94
  A 0.50 0.49 0.0 0 1 177.31 263.45
  L 177.06 234.33
  A 0.39 0.39 -0.7 0 0 176.66 233.94
  L 147.30 234.06
  A 0.50 0.48 89.4 0 0 146.82 234.57
  L 147.00 263.22
  A 0.78 0.78 -0.1 0 1 146.22 264.00
  L 15.73 264.00
  A 0.67 0.64 0.4 0 1 15.06 263.35
  L 15.27 249.49
  A 0.67 0.64 88.4 0 0 14.58 248.81
  Q 7.27 249.37 0.00 248.69
  L 0.00 156.19
  L 14.74 156.25
  A 0.50 0.50 0.4 0 0 15.25 155.74
  L 14.99 141.69
  A 0.68 0.68 89.6 0 1 15.67 141.00
  L 80.07 140.96
  Z
  M 239.16 162.01
  C 234.86 162.09 230.10 162.00 226.02 161.85
  A 1.22 1.22 1.1 0 0 224.75 163.07
  L 225.00 239.49
  A 0.52 0.51 0.0 0 0 225.52 240.00
  L 239.00 240.05
  A 0.98 0.97 0.6 0 1 239.97 241.03
  L 239.83 257.44
  A 0.55 0.54 -87.1 0 0 240.31 257.99
  C 245.38 258.44 251.87 258.00 255.43 258.00
  Q 284.84 257.96 314.76 258.06
  A 0.50 0.49 90.0 0 0 315.26 257.55
  L 314.94 240.31
  A 0.50 0.50 25.6 0 0 314.43 239.82
  Q 291.09 240.27 267.75 239.75
  Q 262.37 239.63 256.30 240.05
  A 1.04 1.04 -1.8 0 1 255.19 239.01
  L 255.00 147.25
  A 0.51 0.46 0.0 0 0 254.49 146.79
  L 240.56 146.85
  A 0.51 0.48 0.6 0 0 240.05 147.32
  L 240.00 161.14
  A 0.87 0.86 89.3 0 1 239.16 162.01
  Z
  M 215.9916 186.2122
  A 0.27 0.27 0.0 0 0 215.7211 185.9426
  L 207.2411 185.9574
  A 0.27 0.27 0.0 0 0 206.9716 186.2279
  L 207.0284 218.7678
  A 0.27 0.27 0.0 0 0 207.2989 219.0374
  L 215.7789 219.0226
  A 0.27 0.27 0.0 0 0 216.0484 218.7521
  L 215.9916 186.2122
  Z"
/>
<path fill="#fefefe" d="
  M 600.00 156.31
  L 600.00 248.81
  L 585.33 248.81
  A 0.41 0.39 0.0 0 0 584.92 249.20
  L 584.95 263.30
  A 0.72 0.70 -0.0 0 1 584.23 264.00
  L 510.91 264.00
  A 0.91 0.91 0.0 0 1 510.00 263.09
  L 510.00 249.33
  A 0.34 0.33 -0.0 0 0 509.66 249.00
  L 486.68 248.94
  A 0.52 0.50 0.6 0 0 486.16 249.43
  L 486.02 263.02
  A 0.99 0.96 -89.7 0 1 485.06 264.00
  L 409.08 264.00
  A 1.17 1.11 90.0 0 1 407.97 262.83
  L 408.02 249.76
  A 0.56 0.53 -88.9 0 0 407.50 249.19
  L 399.69 249.05
  A 0.78 0.70 -89.2 0 0 398.98 249.82
  L 398.84 263.31
  A 0.53 0.52 0.6 0 1 398.31 263.82
  L 355.00 263.99
  A 1.00 0.99 89.7 0 1 354.00 262.99
  L 354.06 204.45
  A 0.51 0.50 90.0 0 0 353.56 203.94
  L 309.95 203.75
  A 0.99 0.97 -89.4 0 1 308.99 202.75
  L 309.20 171.69
  A 0.53 0.48 90.0 0 1 309.68 171.16
  L 323.58 171.08
  A 0.51 0.51 0.3 0 0 324.08 170.58
  L 324.16 156.68
  A 0.52 0.52 -89.4 0 1 324.68 156.17
  L 338.69 156.17
  A 0.50 0.49 0.0 0 0 339.19 155.68
  L 339.01 141.78
  A 0.77 0.76 89.6 0 1 339.77 141.00
  L 401.37 141.00
  A 0.61 0.59 0.5 0 1 401.98 141.60
  L 401.82 155.53
  A 0.52 0.50 -89.4 0 0 402.31 156.05
  L 410.41 156.29
  A 0.84 0.83 0.3 0 0 411.27 155.45
  L 411.06 141.79
  A 0.77 0.77 -89.7 0 1 411.84 141.01
  L 485.32 141.18
  A 0.53 0.51 0.0 0 1 485.84 141.68
  L 485.95 155.56
  A 0.51 0.49 89.4 0 0 486.44 156.06
  L 509.57 156.06
  A 0.50 0.49 -90.0 0 0 510.06 155.56
  L 510.00 141.81
  A 0.81 0.81 0.0 0 1 510.81 141.00
  L 584.18 141.00
  A 0.81 0.78 0.3 0 1 584.99 141.79
  L 584.82 155.77
  A 0.44 0.44 90.0 0 0 585.26 156.21
  L 600.00 156.31
  Z
  M 362.93 180.80
  L 363.06 257.43
  A 0.51 0.50 90.0 0 0 363.56 257.94
  L 392.52 258.00
  A 0.69 0.69 85.1 0 0 393.20 257.19
  Q 392.93 255.64 392.93 253.75
  Q 392.95 200.78 393.06 147.51
  A 0.51 0.51 0.0 0 0 392.55 147.00
  L 348.44 146.94
  A 0.50 0.50 0.0 0 0 347.94 147.44
  L 348.00 161.22
  A 0.78 0.77 -0.4 0 1 347.22 162.00
  L 330.56 162.00
  A 0.56 0.56 0.0 0 0 330.00 162.56
  L 330.00 179.01
  A 1.01 0.99 -0.3 0 1 329.00 180.00
  L 315.56 180.06
  A 0.51 0.50 -0.0 0 0 315.05 180.56
  L 315.05 194.43
  A 0.51 0.51 0.0 0 0 315.56 194.94
  L 347.68 195.18
  A 0.51 0.50 0.6 0 0 348.20 194.68
  L 348.20 180.68
  A 0.49 0.48 -89.4 0 1 348.69 180.19
  L 362.43 180.30
  A 0.51 0.50 0.6 0 1 362.93 180.80
  Z
  M 494.75 161.92
  L 477.68 161.83
  A 0.56 0.53 87.7 0 1 477.15 161.31
  Q 476.72 154.75 477.31 147.56
  A 0.76 0.75 -88.6 0 0 476.54 146.75
  Q 447.50 147.33 418.14 146.74
  A 1.42 1.36 -89.8 0 0 416.76 148.17
  L 416.84 161.31
  A 0.53 0.53 -89.8 0 1 416.31 161.84
  L 402.48 161.92
  A 0.48 0.45 0.6 0 0 402.00 162.36
  C 401.18 187.48 402.19 206.45 401.82 242.43
  A 0.51 0.50 -89.4 0 0 402.32 242.95
  L 416.09 242.99
  A 0.88 0.85 0.3 0 1 416.97 243.85
  L 416.84 257.44
  A 0.49 0.47 -89.4 0 0 417.31 257.94
  L 476.44 258.19
  A 0.51 0.50 -89.4 0 0 476.94 257.69
  L 477.17 243.68
  A 0.53 0.51 -89.4 0 1 477.68 243.16
  L 494.69 243.16
  A 0.50 0.48 -0.0 0 0 495.19 242.68
  L 495.26 162.42
  A 0.51 0.50 0.0 0 0 494.75 161.92
  Z
  M 593.55 161.95
  L 580.36 161.99
  A 1.36 1.29 0.4 0 1 579.00 160.68
  L 579.17 147.32
  A 0.49 0.47 -90.0 0 0 578.69 146.82
  L 516.43 146.94
  A 0.49 0.48 89.4 0 0 515.95 147.44
  L 516.00 161.28
  A 0.78 0.75 0.4 0 1 515.21 162.03
  L 501.42 161.75
  A 0.47 0.46 -88.8 0 0 500.95 162.21
  C 500.62 176.05 501.07 189.55 500.75 203.25
  Q 500.56 211.16 500.93 242.32
  A 0.53 0.52 90.0 0 0 501.44 242.84
  L 515.07 242.97
  A 0.91 0.85 0.7 0 1 515.97 243.83
  L 515.84 257.22
  A 0.78 0.76 -89.3 0 0 516.59 258.01
  L 578.68 258.18
  A 0.49 0.49 0.0 0 0 579.17 257.69
  L 579.17 243.68
  A 0.53 0.52 -0.6 0 1 579.69 243.16
  L 593.57 243.05
  A 0.50 0.49 -0.6 0 0 594.06 242.56
  L 594.26 162.70
  A 0.75 0.71 90.0 0 0 593.55 161.95
  Z"
/>
<path fill="#000000" d="
  M 226.02 161.85
  C 230.10 162.00 234.86 162.09 239.16 162.01
  A 0.87 0.86 89.3 0 0 240.00 161.14
  L 240.05 147.32
  A 0.51 0.48 0.6 0 1 240.56 146.85
  L 254.49 146.79
  A 0.51 0.46 -0.0 0 1 255.00 147.25
  L 255.19 239.01
  A 1.04 1.04 -1.8 0 0 256.30 240.05
  Q 262.37 239.63 267.75 239.75
  Q 291.09 240.27 314.43 239.82
  A 0.50 0.50 31.7 0 1 314.94 240.31
  L 315.26 257.55
  A 0.50 0.49 90.0 0 1 314.76 258.06
  Q 284.84 257.96 255.43 258.00
  C 251.87 258.00 245.38 258.44 240.31 257.99
  A 0.55 0.54 -87.1 0 1 239.83 257.44
  L 239.97 241.03
  A 0.98 0.97 0.6 0 0 239.00 240.05
  L 225.52 240.00
  A 0.52 0.51 -0.0 0 1 225.00 239.49
  L 224.75 163.07
  A 1.22 1.22 1.1 0 1 226.02 161.85
  Z"
/>
<path fill="#000000" d="
  M 362.43 180.30
  L 348.69 180.19
  A 0.49 0.48 -89.4 0 0 348.20 180.68
  L 348.20 194.68
  A 0.51 0.50 0.6 0 1 347.68 195.18
  L 315.56 194.94
  A 0.51 0.51 0.0 0 1 315.05 194.43
  L 315.05 180.56
  A 0.51 0.50 -0.0 0 1 315.56 180.06
  L 329.00 180.00
  A 1.01 0.99 -0.3 0 0 330.00 179.01
  L 330.00 162.56
  A 0.56 0.56 0.0 0 1 330.56 162.00
  L 347.22 162.00
  A 0.78 0.77 -0.4 0 0 348.00 161.22
  L 347.94 147.44
  A 0.50 0.50 0.0 0 1 348.44 146.94
  L 392.55 147.00
  A 0.51 0.51 0.0 0 1 393.06 147.51
  Q 392.95 200.78 392.93 253.75
  Q 392.93 255.64 393.20 257.19
  A 0.69 0.69 85.1 0 1 392.52 258.00
  L 363.56 257.94
  A 0.51 0.50 90.0 0 1 363.06 257.43
  L 362.93 180.80
  A 0.51 0.50 0.6 0 0 362.43 180.30
  Z"
/>
<path fill="#000000" d="
  M 494.75 161.92
  A 0.51 0.50 0.0 0 1 495.26 162.42
  L 495.19 242.68
  A 0.50 0.48 0.0 0 1 494.69 243.16
  L 477.68 243.16
  A 0.53 0.51 -89.4 0 0 477.17 243.68
  L 476.94 257.69
  A 0.51 0.50 -89.4 0 1 476.44 258.19
  L 417.31 257.94
  A 0.49 0.47 -89.4 0 1 416.84 257.44
  L 416.97 243.85
  A 0.88 0.85 0.3 0 0 416.09 242.99
  L 402.32 242.95
  A 0.51 0.50 -89.4 0 1 401.82 242.43
  C 402.19 206.45 401.18 187.48 402.00 162.36
  A 0.48 0.45 0.6 0 1 402.48 161.92
  L 416.31 161.84
  A 0.53 0.53 -89.9 0 0 416.84 161.31
  L 416.76 148.17
  A 1.42 1.36 -89.8 0 1 418.14 146.74
  Q 447.50 147.33 476.54 146.75
  A 0.76 0.75 -88.6 0 1 477.31 147.56
  Q 476.72 154.75 477.15 161.31
  A 0.56 0.53 87.7 0 0 477.68 161.83
  L 494.75 161.92
  Z
  M 461.90 165.49
  A 0.27 0.27 0.0 0 0 461.63 165.22
  L 432.51 165.22
  A 0.27 0.27 0.0 0 0 432.24 165.49
  L 432.24 239.57
  A 0.27 0.27 0.0 0 0 432.51 239.84
  L 461.63 239.84
  A 0.27 0.27 0.0 0 0 461.90 239.57
  L 461.90 165.49
  Z"
/>
<path fill="#000000" d="
  M 593.55 161.95
  A 0.75 0.71 -90.0 0 1 594.26 162.70
  L 594.06 242.56
  A 0.50 0.49 -0.6 0 1 593.57 243.05
  L 579.69 243.16
  A 0.53 0.52 -0.6 0 0 579.17 243.68
  L 579.17 257.69
  A 0.49 0.49 0.0 0 1 578.68 258.18
  L 516.59 258.01
  A 0.78 0.76 -89.3 0 1 515.84 257.22
  L 515.97 243.83
  A 0.91 0.85 0.7 0 0 515.07 242.97
  L 501.44 242.84
  A 0.53 0.52 90.0 0 1 500.93 242.32
  Q 500.56 211.16 500.75 203.25
  C 501.07 189.55 500.62 176.05 500.95 162.21
  A 0.47 0.46 -88.8 0 1 501.42 161.75
  L 515.21 162.03
  A 0.78 0.75 0.4 0 0 516.00 161.28
  L 515.95 147.44
  A 0.49 0.48 89.4 0 1 516.43 146.94
  L 578.69 146.82
  A 0.49 0.47 -90.0 0 1 579.17 147.32
  L 579.00 160.68
  A 1.36 1.29 0.4 0 0 580.36 161.99
  L 593.55 161.95
  Z
  M 560.83 162.49
  A 0.26 0.26 0.0 0 0 560.57 162.23
  L 531.41 162.23
  A 0.26 0.26 0.0 0 0 531.15 162.49
  L 531.15 239.49
  A 0.26 0.26 0.0 0 0 531.41 239.75
  L 560.57 239.75
  A 0.26 0.26 0.0 0 0 560.83 239.49
  L 560.83 162.49
  Z"
/>
<path fill="#fefefe" d="
  M 560.83 239.49
  A 0.26 0.26 0.0 0 1 560.57 239.75
  L 531.41 239.75
  A 0.26 0.26 0.0 0 1 531.15 239.49
  L 531.15 162.49
  A 0.26 0.26 0.0 0 1 531.41 162.23
  L 560.57 162.23
  A 0.26 0.26 0.0 0 1 560.83 162.49
  L 560.83 239.49
  Z
  M 555.03 171.23
  A 0.26 0.26 0.0 0 0 554.77 170.97
  L 540.25 170.97
  A 0.26 0.26 0.0 0 0 539.99 171.23
  L 539.99 233.81
  A 0.26 0.26 0.0 0 0 540.25 234.07
  L 554.77 234.07
  A 0.26 0.26 0.0 0 0 555.03 233.81
  L 555.03 171.23
  Z"
/>
<path fill="#fefefe" d="
  M 461.90 239.57
  A 0.27 0.27 0.0 0 1 461.63 239.84
  L 432.51 239.84
  A 0.27 0.27 0.0 0 1 432.24 239.57
  L 432.24 165.49
  A 0.27 0.27 0.0 0 1 432.51 165.22
  L 461.63 165.22
  A 0.27 0.27 0.0 0 1 461.90 165.49
  L 461.90 239.57
  Z
  M 456.01 171.26
  A 0.27 0.27 0.0 0 0 455.74 170.99
  L 441.18 170.99
  A 0.27 0.27 0.0 0 0 440.91 171.26
  L 440.91 233.82
  A 0.27 0.27 0.0 0 0 441.18 234.09
  L 455.74 234.09
  A 0.27 0.27 0.0 0 0 456.01 233.82
  L 456.01 171.26
  Z"
/>
</svg>
