<?xml version="1.0" encoding="UTF-8" standalone="no"?>
<!DOCTYPE svg PUBLIC "-//W3C//DTD SVG 1.1//EN" "http://www.w3.org/Graphics/SVG/1.1/DTD/svg11.dtd">
<svg xmlns="http://www.w3.org/2000/svg" version="1.1" viewBox="0 0 600 300">
<path fill="#000000" d="
  M 389.0542 79.4464
  A 6.51 6.27 91.9 0 1 383.0034 72.7321
  A 6.51 6.27 91.9 0 1 389.4858 66.4336
  A 6.51 6.27 91.9 0 1 395.5366 73.1479
  A 6.51 6.27 91.9 0 1 389.0542 79.4464
  Z
  M 394.62 73.05
  A 5.28 5.28 0.0 0 0 389.34 67.77
  A 5.28 5.28 0.0 0 0 384.06 73.05
  A 5.28 5.28 0.0 0 0 389.34 78.33
  A 5.28 5.28 0.0 0 0 394.62 73.05
  Z"
/>
<path fill="#000000" d="
  M 388.59 73.58
  A 0.90 0.90 -3.0 0 0 387.67 74.60
  Q 387.83 75.87 387.42 76.09
  A 0.51 0.38 79.9 0 1 386.86 75.57
  L 386.87 70.68
  A 0.97 0.79 -17.8 0 1 387.36 69.93
  Q 390.39 68.20 392.06 71.08
  A 1.19 1.17 -38.5 0 1 391.89 72.47
  Q 390.60 73.84 391.49 75.07
  A 1.53 0.44 48.1 0 1 391.90 75.92
  Q 391.93 76.60 391.15 76.06
  A 1.75 1.04 85.7 0 1 390.60 75.28
  Q 389.98 73.61 388.59 73.58
  Z
  M 391.0889 71.5586
  A 1.76 1.24 -2.0 0 0 389.2867 70.3808
  A 1.76 1.24 -2.0 0 0 387.5711 71.6814
  A 1.76 1.24 -2.0 0 0 389.3733 72.8592
  A 1.76 1.24 -2.0 0 0 391.0889 71.5586
  Z"
/>
<path fill="#000000" d="
  M 329.19 100.56
  L 315.70 100.33
  A 0.53 0.51 1.1 0 1 315.18 99.81
  L 315.29 93.06
  A 0.51 0.50 -0.0 0 1 315.80 92.56
  L 336.99 92.50
  A 0.75 0.74 0.4 0 1 337.74 93.25
  L 337.57 122.94
  A 0.74 0.54 -86.0 0 0 338.01 123.64
  C 338.03 123.64 351.63 84.59 352.96 80.82
  Q 356.64 70.40 367.50 72.00
  C 373.93 72.95 376.14 77.22 378.23 83.38
  Q 385.99 106.30 393.69 129.08
  A 0.88 0.88 80.5 0 1 392.86 130.25
  L 362.21 130.25
  A 0.65 0.65 88.6 0 1 361.56 129.63
  Q 361.47 127.63 361.49 125.58
  C 361.53 121.16 361.52 122.20 365.28 122.27
  Q 373.74 122.45 382.20 121.97
  A 0.39 0.38 79.0 0 0 382.54 121.46
  L 368.67 80.69
  A 2.20 2.12 1.3 0 0 367.37 79.38
  C 362.91 77.74 361.38 80.12 360.07 84.03
  Q 352.43 106.85 344.42 129.53
  A 0.73 0.73 9.4 0 1 343.75 130.01
  Q 330.41 130.36 317.07 130.30
  Q 308.96 130.26 305.14 128.71
  Q 294.71 124.46 295.02 110.99
  Q 295.25 101.12 295.05 91.25
  C 294.81 79.35 301.93 72.83 313.18 72.69
  Q 325.17 72.54 337.05 72.56
  A 0.70 0.70 89.7 0 1 337.75 73.26
  L 337.75 79.62
  A 0.95 0.95 0.3 0 1 336.79 80.57
  Q 324.09 80.45 312.25 80.61
  C 306.31 80.68 303.57 84.02 303.40 89.82
  Q 303.16 98.44 303.20 107.06
  C 303.25 115.44 302.71 121.91 312.75 122.10
  Q 320.62 122.25 328.83 122.25
  A 0.92 0.92 0.0 0 0 329.75 121.33
  L 329.69 101.07
  A 0.51 0.51 0.6 0 0 329.19 100.56
  Z"
/>
<path fill="#000000" d="
  M 227.30 111.46
  Q 227.48 110.29 226.19 110.31
  C 217.23 110.49 210.27 110.21 204.72 102.92
  C 194.88 89.98 204.73 72.72 220.25 72.54
  Q 232.38 72.40 244.49 72.74
  A 0.59 0.51 0.6 0 1 245.07 73.25
  L 245.17 79.40
  A 1.45 1.33 -0.4 0 1 243.72 80.75
  Q 233.39 80.71 222.70 80.78
  Q 216.81 80.82 214.18 82.29
  C 209.50 84.90 207.76 90.21 209.66 95.27
  Q 212.65 103.22 222.75 102.25
  C 238.25 100.76 239.31 120.19 225.75 120.22
  Q 213.87 120.25 201.31 120.25
  A 0.56 0.56 0.0 0 1 200.75 119.69
  L 200.75 113.20
  A 1.01 0.98 -0.3 0 1 201.75 112.22
  L 226.70 111.96
  A 0.62 0.58 3.2 0 0 227.30 111.46
  Z"
/>
<path fill="#000000" d="
  M 265.50 130.18
  C 256.18 130.12 249.06 123.12 249.03 113.75
  Q 249.00 101.63 249.24 89.50
  Q 249.45 78.31 258.08 74.37
  Q 261.63 72.75 269.17 72.63
  Q 280.36 72.45 291.74 72.69
  A 0.53 0.52 -89.4 0 1 292.25 73.22
  L 292.25 79.88
  A 0.64 0.63 0.4 0 1 291.60 80.51
  Q 278.53 80.34 266.32 80.66
  C 253.52 81.00 256.91 94.40 256.82 103.92
  C 256.66 120.39 257.11 122.25 273.58 122.25
  Q 282.12 122.25 290.94 122.25
  A 1.31 1.31 0.0 0 1 292.25 123.56
  L 292.25 128.93
  A 1.32 1.32 0.0 0 1 290.93 130.25
  Q 277.88 130.25 265.50 130.18
  Z"
/>
<path fill="#000000" d="
  M 361.79 115.40
  Q 361.54 112.79 360.72 115.29
  L 356.06 129.58
  A 0.97 0.96 -80.6 0 1 355.13 130.25
  L 347.06 130.20
  A 0.59 0.58 -80.3 0 1 346.52 129.42
  Q 354.57 105.96 362.33 83.70
  C 363.44 80.51 366.10 78.98 367.58 83.18
  Q 374.02 101.38 379.90 119.45
  A 0.66 0.66 81.4 0 1 379.27 120.31
  L 362.51 120.25
  A 1.07 1.06 5.2 0 1 361.46 119.00
  Q 361.90 116.54 361.79 115.40
  Z
  M 364.51 104.46
  L 362.37 110.62
  A 0.66 0.64 -80.0 0 0 362.97 111.50
  L 366.94 111.50
  A 0.90 0.82 79.9 0 0 367.69 110.32
  L 365.72 104.54
  Q 365.11 102.74 364.51 104.46
  Z"
/>
<path fill="#000000" d="
  M 219.30 92.30
  Q 221.12 92.67 223.00 92.54
  Q 235.88 91.61 241.94 100.87
  C 248.82 111.37 244.17 125.30 232.21 129.22
  Q 229.07 130.25 221.68 130.25
  Q 211.84 130.25 201.63 130.25
  A 0.88 0.88 0.0 0 1 200.75 129.37
  L 200.75 123.11
  A 0.82 0.82 -0.7 0 1 201.55 122.29
  Q 215.12 121.93 227.25 122.00
  C 240.83 122.08 240.86 98.55 223.49 100.45
  C 220.16 100.82 216.96 100.47 214.26 98.43
  C 209.75 95.03 209.81 88.75 213.77 85.04
  C 216.68 82.32 219.35 82.76 224.19 82.75
  Q 234.43 82.72 244.57 82.56
  A 0.68 0.67 89.6 0 1 245.25 83.24
  L 245.25 89.84
  A 0.66 0.66 0.0 0 1 244.59 90.50
  Q 232.12 90.50 219.75 90.50
  Q 218.41 90.50 218.66 91.70
  A 0.84 0.77 0.5 0 0 219.30 92.30
  Z"
/>
<path fill="#000000" d="
  M 285.84 92.76
  A 0.69 0.69 1.3 0 1 286.50 93.45
  L 286.50 99.84
  A 0.66 0.66 -0.2 0 1 285.84 100.50
  L 259.62 100.44
  A 0.71 0.70 -89.6 0 1 258.92 99.72
  C 259.07 92.64 256.19 82.50 267.02 82.50
  Q 278.83 82.50 291.45 82.50
  A 0.93 0.85 89.0 0 1 292.30 83.40
  L 292.46 89.48
  A 0.99 0.88 89.1 0 1 291.58 90.50
  L 268.71 90.50
  A 1.86 1.84 17.3 0 0 267.19 91.29
  Q 266.12 92.83 268.76 92.71
  Q 276.41 92.36 285.84 92.76
  Z"
/>
<path fill="#000000" d="
  M 311.06 82.69
  Q 321.25 82.12 337.06 82.67
  A 0.58 0.52 1.1 0 1 337.62 83.19
  L 337.62 89.81
  A 0.58 0.52 -1.1 0 1 337.06 90.33
  Q 321.00 90.83 317.00 90.50
  Q 312.98 90.17 313.17 93.56
  C 313.47 98.73 313.25 104.06 313.25 109.25
  C 313.25 113.21 316.99 112.55 319.33 112.16
  A 0.71 0.66 -2.0 0 0 319.91 111.58
  C 320.25 108.48 314.46 112.70 314.92 108.63
  C 315.17 106.43 314.97 104.73 315.33 102.92
  A 0.63 0.61 -84.2 0 1 315.93 102.41
  L 327.45 102.31
  A 0.53 0.49 90.0 0 1 327.94 102.84
  L 327.77 119.45
  A 0.79 0.77 -90.0 0 1 327.01 120.23
  C 322.53 120.32 310.85 121.23 307.59 118.91
  Q 305.25 117.24 305.25 114.25
  Q 305.25 102.75 305.25 91.24
  C 305.25 86.80 306.09 82.96 311.06 82.69
  Z"
/>
<path fill="#000000" d="
  M 266.94 110.79
  C 266.82 111.83 267.99 112.25 268.91 112.24
  Q 280.21 112.08 291.50 112.48
  A 0.60 0.53 0.6 0 1 292.08 113.00
  L 292.14 119.00
  A 1.12 1.03 -1.4 0 1 291.06 120.04
  Q 278.55 120.51 266.55 120.11
  C 256.39 119.77 258.92 110.27 258.82 103.45
  A 1.12 1.12 89.8 0 1 259.95 102.31
  L 285.75 102.50
  A 0.57 0.50 0.0 0 1 286.32 103.00
  L 286.41 109.37
  A 0.92 0.88 -0.6 0 1 285.50 110.26
  L 267.56 110.33
  A 0.65 0.53 2.4 0 0 266.94 110.79
  Z"
/>
<path fill="#000000" d="
  M 28.32 190.19
  L 65.88 190.25
  A 1.08 1.05 -0.3 0 0 66.96 189.19
  L 66.84 175.95
  A 0.54 0.53 1.1 0 0 66.32 175.42
  Q 56.49 175.01 43.75 175.50
  Q 43.36 175.51 43.19 175.27
  A 0.60 0.42 -32.3 0 1 43.48 174.57
  L 61.33 163.84
  Q 62.74 162.99 64.27 163.00
  L 87.44 163.06
  A 0.52 0.52 88.9 0 1 87.96 163.56
  Q 88.64 175.78 88.03 188.00
  A 1.02 1.01 74.7 0 1 87.59 188.78
  Q 79.46 194.45 71.16 199.86
  C 67.30 202.38 67.20 203.00 63.00 203.00
  Q 35.00 203.00 6.92 203.00
  A 0.92 0.92 -1.3 0 1 6.00 202.08
  L 6.00 155.99
  A 0.98 0.96 -17.3 0 1 6.43 155.19
  L 26.30 141.99
  A 4.67 4.39 26.5 0 1 28.79 141.24
  L 90.20 141.06
  Q 91.90 141.06 90.45 141.93
  L 72.03 153.02
  A 3.52 3.21 27.1 0 1 70.27 153.50
  L 28.86 153.50
  A 1.18 1.17 -90.0 0 0 27.69 154.68
  L 27.81 189.70
  A 0.51 0.49 -0.0 0 0 28.32 190.19
  Z"
/>
<path fill="#000000" d="
  M 123.29 154.32
  L 123.41 165.06
  A 0.53 0.51 0.0 0 0 123.94 165.57
  L 164.00 165.57
  Q 165.78 165.57 164.26 166.49
  L 146.35 177.36
  A 4.55 3.94 -57.1 0 1 144.14 178.00
  L 123.91 178.00
  A 0.66 0.66 0.0 0 0 123.25 178.66
  L 123.25 189.57
  A 0.68 0.67 90.0 0 0 123.92 190.25
  L 178.45 190.19
  Q 180.68 190.18 178.76 191.34
  L 160.36 202.44
  A 4.00 3.35 -56.2 0 1 158.44 203.00
  L 102.99 203.00
  A 0.93 0.92 -89.7 0 1 102.07 202.06
  L 102.24 155.92
  A 1.47 1.39 74.3 0 1 102.86 154.74
  L 122.64 141.58
  A 1.90 1.55 23.2 0 1 123.57 141.31
  L 176.79 141.07
  Q 178.72 141.06 177.07 142.06
  Q 168.65 147.15 160.25 152.25
  C 157.68 153.81 156.51 153.53 153.75 153.49
  Q 138.78 153.28 123.81 153.80
  A 0.53 0.52 -0.6 0 0 123.29 154.32
  Z"
/>
<path fill="#000000" d="
  M 256.44 162.12
  L 256.49 142.00
  A 0.84 0.83 -89.7 0 1 257.32 141.17
  L 276.83 141.25
  A 0.67 0.66 -0.0 0 1 277.50 141.91
  L 277.50 202.01
  A 0.99 0.99 0.0 0 1 276.51 203.00
  L 257.45 203.00
  A 0.95 0.95 0.0 0 1 256.50 202.05
  L 256.50 180.65
  A 1.22 1.22 14.5 0 0 255.87 179.58
  L 216.76 157.68
  A 0.39 0.39 14.5 0 0 216.18 158.02
  L 216.25 201.95
  A 0.81 0.79 89.6 0 1 215.47 202.76
  L 195.83 202.98
  A 0.85 0.82 89.7 0 1 195.00 202.13
  L 195.06 142.45
  A 1.18 1.18 -0.5 0 1 196.22 141.27
  C 202.23 141.16 215.02 139.98 219.70 142.59
  Q 237.36 152.45 255.53 162.65
  A 0.61 0.61 14.7 0 0 256.44 162.12
  Z"
/>
<path fill="#000000" d="
  M 287.94 156.02
  A 1.57 1.55 73.4 0 1 288.63 154.72
  L 307.82 141.98
  A 4.57 4.39 27.0 0 1 310.27 141.24
  L 362.95 141.07
  Q 364.63 141.06 363.20 141.93
  L 344.97 152.97
  A 3.86 3.63 28.0 0 1 343.03 153.50
  L 310.21 153.56
  A 0.91 0.89 -0.3 0 0 309.30 154.46
  L 309.40 165.05
  A 0.54 0.53 -0.5 0 0 309.94 165.57
  L 349.54 165.58
  Q 351.42 165.58 349.82 166.56
  L 331.96 177.43
  A 3.99 3.91 28.9 0 1 329.91 178.00
  L 310.01 178.00
  A 0.75 0.74 0.0 0 0 309.26 178.74
  L 309.30 189.55
  A 0.71 0.71 89.6 0 0 310.01 190.25
  L 364.45 190.19
  Q 366.35 190.18 364.73 191.17
  Q 357.00 195.87 348.68 200.80
  C 347.61 201.43 346.67 203.00 345.25 203.00
  Q 317.25 203.00 288.99 203.00
  A 1.18 1.18 -89.8 0 1 287.81 201.81
  L 287.94 156.02
  Z"
/>
<rect fill="#000000" x="469.50" y="141.22" width="21.00" height="61.78" rx="0.81"/>
<path fill="#000000" d="
  M 434.67 202.53
  A 3.32 3.11 -58.9 0 1 433.01 203.00
  Q 404.62 203.00 376.50 203.17
  Q 374.67 203.18 372.85 202.44
  Q 372.34 202.23 372.81 201.95
  L 391.28 190.77
  A 3.67 3.30 -57.9 0 1 393.09 190.25
  L 431.19 190.19
  A 0.52 0.50 -0.5 0 0 431.71 189.68
  L 431.60 179.02
  A 1.08 1.03 -0.3 0 0 430.52 178.00
  L 372.86 178.06
  A 0.61 0.61 0.0 0 1 372.25 177.45
  L 372.25 155.17
  A 1.71 1.71 -15.7 0 1 373.07 153.71
  Q 381.47 148.57 389.69 143.69
  Q 392.96 141.74 395.75 141.76
  Q 424.00 142.00 453.83 142.00
  Q 455.72 142.00 454.10 142.98
  Q 444.85 148.60 436.41 153.63
  C 434.08 155.02 432.44 154.25 430.27 154.25
  Q 414.06 154.25 395.93 154.25
  A 1.79 1.60 -0.3 0 0 394.14 155.87
  L 394.22 164.95
  A 0.88 0.81 -0.3 0 0 395.10 165.75
  L 454.23 165.75
  A 0.52 0.52 -90.0 0 1 454.75 166.27
  L 454.75 189.18
  A 1.92 1.88 -15.9 0 1 453.83 190.80
  L 434.67 202.53
  Z"
/>
<path fill="#000000" d="
  M 565.94 178.66
  A 0.67 0.66 -0.0 0 0 565.27 178.00
  L 507.26 178.06
  A 1.01 1.01 0.0 0 1 506.25 177.05
  L 506.25 154.92
  A 0.99 0.99 -15.6 0 1 506.73 154.07
  L 525.32 142.71
  A 5.22 4.86 27.4 0 1 527.91 141.99
  L 588.45 141.82
  Q 590.13 141.81 588.70 142.68
  L 570.75 153.60
  A 5.05 4.44 26.1 0 1 568.30 154.27
  L 529.19 154.49
  A 0.98 0.95 89.1 0 0 528.25 155.49
  L 528.44 165.06
  A 0.71 0.70 89.2 0 0 529.14 165.75
  L 588.15 165.75
  A 0.85 0.85 -0.0 0 1 589.00 166.60
  L 589.00 188.88
  A 2.53 2.34 -17.1 0 1 587.81 190.93
  L 568.91 202.72
  A 1.90 1.51 -55.5 0 1 567.99 203.00
  Q 539.37 203.00 510.75 203.18
  Q 508.90 203.19 507.26 202.59
  Q 506.31 202.24 507.19 201.72
  L 525.40 190.80
  A 3.98 3.28 -55.7 0 1 527.29 190.25
  L 565.24 190.25
  A 0.75 0.74 0.0 0 0 565.99 189.51
  L 565.94 178.66
  Z"
/>
</svg>
