<?xml version="1.0" encoding="UTF-8" standalone="no"?>
<!DOCTYPE svg PUBLIC "-//W3C//DTD SVG 1.1//EN" "http://www.w3.org/Graphics/SVG/1.1/DTD/svg11.dtd">
<svg xmlns="http://www.w3.org/2000/svg" version="1.1" viewBox="0 0 600 300">
<g stroke-width="2.00" fill="none" stroke-linecap="butt">
<path stroke="#991d20" stroke-opacity="0.996" vector-effect="non-scaling-stroke" d="
  M 324.96 52.38
  Q 326.96 53.94 329.75 53.46"
/>
<path stroke="#e69194" vector-effect="non-scaling-stroke" d="
  M 51.65 217.08
  L 39.50 216.96"
/>
<path stroke="#cb1e25" vector-effect="non-scaling-stroke" d="
  M 39.50 216.96
  Q 41.12 216.90 40.79 215.25"
/>
<path stroke="#e69194" vector-effect="non-scaling-stroke" d="
  M 40.79 215.25
  L 50.19 215.20
  A 0.87 0.70 8.4 0 0 50.94 214.76
  Q 51.13 214.30 51.04 213.75"
/>
<path stroke="#ca181f" vector-effect="non-scaling-stroke" d="
  M 51.04 213.75
  C 52.12 215.02 53.07 214.12 52.94 212.85
  C 52.36 207.10 49.86 202.56 44.25 201.75
  Q 35.23 200.45 25.66 201.05
  C 16.22 201.65 9.10 202.67 7.64 212.98
  C 6.82 218.77 6.58 231.49 12.00 235.25
  C 18.50 239.77 32.22 238.01 41.00 237.75
  C 48.93 237.51 53.41 232.75 53.29 225.02
  Q 53.23 220.94 51.65 217.08"
/>
<path stroke="#e4868a" vector-effect="non-scaling-stroke" d="
  M 51.04 213.75
  C 52.11 202.17 42.13 202.90 34.33 202.69
  C 25.24 202.44 10.89 201.17 9.50 211.25
  C 8.96 215.16 8.34 227.33 10.83 231.64
  C 14.33 237.70 25.88 236.75 33.44 236.60
  C 39.15 236.49 51.33 237.06 51.32 228.70
  C 51.32 224.91 51.59 221.03 51.65 217.08"
/>
<path stroke="#e58d90" vector-effect="non-scaling-stroke" d="
  M 40.79 215.25
  Q 40.75 212.04 38.50 211.75
  Q 30.88 210.76 22.90 211.80
  Q 20.97 212.05 20.37 213.90
  C 18.89 218.54 18.33 226.91 24.60 227.69
  Q 31.76 228.59 38.47 227.35
  A 2.60 2.59 4.1 0 0 40.45 225.64
  Q 41.11 223.72 39.32 223.88
  Q 34.43 224.34 29.56 223.75
  A 0.67 0.66 -1.1 0 1 28.98 223.20
  Q 28.52 220.34 29.13 217.50
  A 0.65 0.64 5.7 0 1 29.75 217.00
  L 39.50 216.96"
/>
<path stroke="#ca181f" vector-effect="non-scaling-stroke" d="
  M 205.01 201.45
  C 204.69 200.80 190.48 201.07 188.46 201.05
  C 183.02 201.01 176.79 201.05 172.60 205.37
  C 168.58 209.52 168.18 219.64 169.33 225.37
  Q 169.94 228.43 169.96 228.58
  C 171.43 238.39 182.26 238.03 189.57 238.04
  C 200.20 238.04 217.04 241.07 217.15 224.50
  C 217.23 214.10 218.67 201.86 205.32 201.69
  A 0.43 0.29 72.0 0 1 205.01 201.45"
/>
<path stroke="#e69194" vector-effect="non-scaling-stroke" d="
  M 347.25 213.54
  Q 348.06 213.66 348.04 213.00"
/>
<path stroke="#ca181f" vector-effect="non-scaling-stroke" d="
  M 348.04 213.00
  Q 349.83 212.64 349.50 210.75
  Q 349.09 208.37 348.25 207.00
  Q 344.65 201.08 337.50 201.23
  C 330.57 201.38 311.05 198.70 308.00 207.00
  Q 305.17 214.72 309.26 222.31
  A 0.79 0.72 -40.5 0 1 309.16 223.13
  L 308.11 224.41
  A 1.72 1.39 6.1 0 1 307.32 224.92
  C 305.87 225.37 306.47 226.56 306.52 227.57
  C 306.89 236.01 312.35 237.71 320.03 237.91
  Q 329.41 238.16 338.78 237.72
  Q 343.91 237.48 346.33 235.85
  C 352.69 231.59 351.56 221.69 347.14 216.32
  A 1.15 0.91 -64.8 0 1 346.94 215.45
  L 347.25 213.54"
/>
<path stroke="#e4868a" vector-effect="non-scaling-stroke" d="
  M 348.04 213.00
  C 348.91 206.17 345.38 203.42 338.92 202.93
  Q 327.89 202.09 316.86 203.03
  C 309.64 203.64 308.17 207.47 308.24 214.24
  Q 308.34 223.17 318.75 223.07
  Q 327.74 222.98 336.68 223.77
  A 1.56 1.36 -18.5 0 1 337.57 224.14
  Q 339.94 226.33 337.36 228.16
  A 1.71 1.40 22.5 0 1 336.43 228.44
  Q 329.47 228.55 322.50 228.50
  Q 318.69 228.47 318.35 225.44
  A 0.60 0.55 87.0 0 0 317.81 224.91
  L 309.98 224.73
  A 1.66 1.59 -86.9 0 0 308.36 226.25
  C 307.56 235.56 313.47 236.40 320.50 236.44
  Q 329.25 236.50 338.00 236.49
  C 347.91 236.47 351.13 230.47 348.75 221.25
  C 346.69 213.25 330.48 215.54 323.15 215.14
  C 320.92 215.02 317.14 214.43 319.68 211.14
  A 1.20 1.08 14.7 0 1 320.51 210.71
  Q 327.87 210.17 335.23 210.46
  C 336.99 210.53 337.68 211.41 337.95 213.00
  A 0.59 0.56 85.2 0 0 338.51 213.50
  L 347.25 213.54"
/>
<path stroke="#e69194" vector-effect="non-scaling-stroke" d="
  M 400.50 224.79
  Q 400.25 225.10 400.21 225.50"
/>
<path stroke="#ca181f" vector-effect="non-scaling-stroke" d="
  M 400.21 225.50
  Q 398.90 225.40 398.83 226.75
  C 398.29 236.71 406.29 238.02 414.00 238.00
  C 423.26 237.97 440.22 240.82 442.18 229.97
  Q 443.75 221.29 438.19 213.74"
/>
<path stroke="#e69194" vector-effect="non-scaling-stroke" d="
  M 438.19 213.74
  Q 440.05 213.54 440.04 213.00"
/>
<path stroke="#c9151c" vector-effect="non-scaling-stroke" d="
  M 440.04 213.00
  Q 440.52 213.05 440.88 212.83
  A 1.16 0.75 83.7 0 0 441.30 212.00
  C 442.09 202.85 433.97 201.25 426.75 201.25
  C 418.95 201.25 399.57 198.55 399.28 210.90
  C 399.18 214.79 399.30 218.77 401.47 222.08
  A 0.94 0.62 -54.3 0 1 401.44 222.89
  L 400.50 224.79"
/>
<path stroke="#e38487" vector-effect="non-scaling-stroke" d="
  M 440.04 213.00
  C 440.35 202.10 433.14 202.72 424.28 202.65
  Q 416.58 202.59 408.89 203.07
  C 401.41 203.53 399.77 207.94 400.25 214.73
  C 400.53 218.66 402.03 221.75 406.00 222.50
  C 412.24 223.68 420.35 223.03 427.46 223.63
  C 429.53 223.81 431.60 225.00 430.33 227.32
  A 2.27 2.25 14.1 0 1 428.34 228.50
  L 412.75 228.50
  Q 410.59 228.50 410.82 226.35
  C 411.09 223.77 402.05 224.76 400.50 224.79"
/>
<path stroke="#e4868a" vector-effect="non-scaling-stroke" d="
  M 438.19 213.74
  L 430.64 213.61
  A 0.75 0.65 -6.8 0 1 429.96 213.15
  Q 429.02 210.23 426.50 210.31
  Q 419.66 210.54 412.81 210.56
  A 1.52 1.28 21.7 0 0 411.91 210.86
  C 409.47 212.81 411.24 214.67 413.64 214.88
  Q 422.55 215.67 431.50 215.50
  C 444.54 215.25 444.54 235.18 433.75 236.25
  C 428.89 236.73 421.56 236.50 413.56 236.54
  C 404.71 236.58 399.87 235.79 400.21 225.50"
/>
<path stroke="#e69194" vector-effect="non-scaling-stroke" d="
  M 87.45 203.28
  L 57.86 203.25
  A 0.85 0.83 -0.3 0 0 57.01 204.09
  L 57.29 236.23"
/>
<path stroke="#ca181f" vector-effect="non-scaling-stroke" d="
  M 57.29 236.23
  Q 56.91 237.72 58.75 237.75
  Q 81.47 238.07 89.50 238.00
  C 103.44 237.86 102.89 223.44 101.81 213.69
  Q 100.53 202.10 89.25 201.76
  A 1.76 1.46 -56.2 0 0 88.34 202.03
  C 87.67 202.46 82.89 202.53 87.45 203.28"
/>
<path stroke="#e4868a" vector-effect="non-scaling-stroke" d="
  M 57.29 236.23
  Q 72.53 236.26 87.25 236.28
  C 101.03 236.29 100.25 229.36 100.25 218.34
  C 100.25 209.34 98.73 202.68 87.45 203.28"
/>
<path stroke="#ca181f" vector-effect="non-scaling-stroke" d="
  M 125.71 203.75
  Q 125.16 203.22 124.60 203.65
  A 1.22 0.81 79.6 0 0 124.23 204.51
  Q 123.54 222.11 124.00 234.00
  C 124.17 238.45 127.81 237.76 130.64 238.05
  Q 133.88 238.37 136.60 236.50"
/>
<path stroke="#e69194" vector-effect="non-scaling-stroke" d="
  M 136.60 236.50
  L 136.28 228.34
  A 0.61 0.55 -2.0 0 1 136.87 227.77
  Q 144.20 227.59 150.87 227.89
  C 155.66 228.11 155.38 230.06 155.07 234.03
  Q 154.90 236.16 156.91 236.17
  L 164.97 236.23
  A 0.55 0.53 90.0 0 0 165.50 235.68
  C 165.50 231.08 166.99 225.36 161.53 223.23
  Q 161.10 223.06 161.53 222.87
  C 165.72 221.04 165.98 216.94 165.74 212.71
  C 165.42 206.89 162.61 203.34 156.50 203.19
  Q 142.41 202.85 128.31 202.99
  C 127.34 203.00 126.18 202.55 125.71 203.75"
/>
<path stroke="#e4868a" vector-effect="non-scaling-stroke" d="
  M 136.60 236.50
  Q 131.09 235.92 126.35 236.40
  A 0.62 0.61 -2.6 0 1 125.68 235.79
  L 125.71 203.75"
/>
<path stroke="#ca181f" vector-effect="non-scaling-stroke" d="
  M 221.54 236.25
  Q 221.39 238.39 223.34 237.75
  Q 223.75 237.61 224.30 237.62
  L 229.83 237.71
  Q 232.66 237.76 232.73 234.60
  L 233.03 221.57
  A 0.57 0.46 -86.0 0 1 233.56 221.00
  Q 233.96 221.07 234.19 221.56
  Q 237.74 229.18 243.52 237.28
  A 1.05 1.02 73.6 0 0 244.30 237.72
  C 247.73 237.92 251.40 238.71 253.30 235.11
  Q 256.52 229.04 260.66 222.78
  Q 261.81 221.06 262.08 223.11
  Q 262.76 228.18 262.31 233.83
  C 262.24 234.69 262.40 237.10 263.89 235.66"
/>
<path stroke="#e69194" vector-effect="non-scaling-stroke" d="
  M 263.89 235.66
  Q 268.54 236.70 273.74 236.20
  A 0.56 0.55 87.8 0 0 274.25 235.64
  L 274.19 203.56
  A 0.51 0.50 -89.4 0 0 273.70 203.05
  L 260.23 203.01
  A 1.62 1.61 15.1 0 0 258.81 203.82
  L 248.19 222.22
  Q 247.62 223.22 247.05 222.22
  L 236.43 203.55
  A 1.11 1.08 -14.2 0 0 235.47 203.00
  L 222.20 203.00
  A 0.93 0.91 -0.3 0 0 221.27 203.92
  L 221.54 236.25"
/>
<path stroke="#e4868a" vector-effect="non-scaling-stroke" d="
  M 263.89 235.66
  Q 264.57 224.67 264.09 214.07
  Q 264.06 213.57 263.82 213.99
  L 251.28 235.80
  A 0.90 0.88 -74.7 0 1 250.51 236.25
  L 244.57 236.21
  A 0.92 0.88 74.9 0 1 243.81 235.75
  L 231.87 214.69
  Q 231.19 213.50 231.21 214.88
  L 231.50 235.70
  A 0.56 0.54 -0.5 0 1 230.94 236.25
  L 221.54 236.25"
/>
<path stroke="#e69194" vector-effect="non-scaling-stroke" d="
  M 373.93 215.37
  L 364.67 203.95
  A 2.54 2.49 70.4 0 0 362.71 203.00
  L 351.88 203.00
  Q 350.72 203.00 351.48 203.88
  L 368.68 223.89
  A 2.45 2.37 -66.4 0 1 369.26 225.44
  L 369.30 235.68
  A 0.52 0.51 90.0 0 0 369.81 236.20
  L 378.93 236.20
  A 0.53 0.52 -89.4 0 0 379.45 235.68
  L 379.50 225.00
  A 1.44 1.28 68.4 0 1 379.82 224.13
  L 397.24 204.08
  Q 398.12 203.05 396.78 203.05
  L 386.31 203.01
  A 2.02 1.89 -67.8 0 0 384.82 203.70
  L 374.59 215.38
  A 0.44 0.43 -43.8 0 1 373.93 215.37"
/>
<path stroke="#e69194" vector-effect="non-scaling-stroke" d="
  M 470.07 211.56
  L 482.66 211.50
  A 0.55 0.50 -0.5 0 0 483.21 210.99
  L 483.06 203.74
  A 0.56 0.50 -0.5 0 0 482.50 203.25
  L 445.95 203.18
  A 0.54 0.51 0.0 0 0 445.41 203.69
  L 445.41 210.80
  A 0.54 0.53 -89.5 0 0 445.93 211.34
  L 458.56 211.49
  A 0.51 0.50 0.0 0 1 459.07 211.99
  L 459.06 235.69
  A 0.51 0.50 90.0 0 0 459.56 236.20
  L 468.96 236.25
  A 0.56 0.54 -90.0 0 0 469.50 235.69
  L 469.56 212.07
  A 0.51 0.51 0.0 0 1 470.07 211.56"
/>
<path stroke="#ca181f" vector-effect="non-scaling-stroke" d="
  M 506.50 236.29
  Q 505.79 237.09 506.18 237.62
  A 1.20 0.66 -9.8 0 0 507.07 237.93
  C 512.30 237.84 517.59 237.55 522.81 237.89
  C 528.29 238.24 527.01 231.64 526.95 228.56
  A 0.80 0.67 12.8 0 0 526.46 227.92
  Q 525.64 227.58 525.36 226.73
  A 0.84 0.73 83.6 0 0 524.75 226.17
  Q 514.03 224.57 503.31 226.12
  A 0.60 0.48 -6.8 0 1 502.65 225.71
  C 502.57 225.01 503.18 224.81 503.80 224.82
  Q 513.28 224.95 522.76 225.24
  A 0.70 0.64 8.2 0 0 523.43 224.78
  Q 523.65 224.07 523.50 223.29"
/>
<path stroke="#e69194" vector-effect="non-scaling-stroke" d="
  M 523.50 223.29
  Q 524.53 219.95 523.80 216.55
  A 0.64 0.61 -5.5 0 0 523.18 216.06
  L 502.00 215.96"
/>
<path stroke="#c9151c" vector-effect="non-scaling-stroke" d="
  M 502.00 215.96
  Q 506.79 214.72 502.49 214.07
  A 0.97 0.72 -1.4 0 1 501.77 213.56
  C 501.44 212.63 503.50 213.00 504.10 213.01
  Q 514.17 213.24 524.25 213.01
  A 1.21 0.97 -65.8 0 0 525.05 212.60
  L 526.39 211.10
  A 1.29 1.03 -30.9 0 0 526.71 210.25
  C 526.54 207.99 527.59 203.87 525.55 203.17"
/>
<path stroke="#e69194" vector-effect="non-scaling-stroke" d="
  M 525.55 203.17
  L 489.91 203.00
  A 0.66 0.66 0.1 0 0 489.25 203.66
  L 489.31 235.69
  A 0.51 0.50 0.0 0 0 489.82 236.19
  L 506.50 236.29"
/>
<path stroke="#e38487" vector-effect="non-scaling-stroke" d="
  M 525.55 203.17
  L 525.45 210.94
  A 0.52 0.51 0.6 0 1 524.93 211.44
  Q 513.68 211.54 502.43 211.50
  C 499.12 211.49 499.86 211.43 499.58 214.42
  Q 499.36 216.71 502.00 215.96"
/>
<path stroke="#e4868a" vector-effect="non-scaling-stroke" d="
  M 523.50 223.29
  L 500.44 223.43
  A 0.59 0.48 -0.5 0 0 499.85 223.92
  L 499.85 227.24
  A 0.56 0.51 0.0 0 0 500.41 227.75
  L 524.88 227.75
  A 0.83 0.78 0.3 0 1 525.71 228.54
  L 525.61 235.57
  A 0.56 0.52 -0.0 0 1 525.06 236.08
  L 506.50 236.29"
/>
<path stroke="#ca181f" vector-effect="non-scaling-stroke" d="
  M 542.29 234.75
  Q 542.82 235.07 543.29 234.96
  A 0.78 0.55 86.7 0 0 543.73 234.26
  L 544.23 221.68
  Q 544.28 220.33 544.97 221.53
  Q 548.91 228.35 552.69 235.06
  Q 553.54 236.57 554.79 236.00"
/>
<path stroke="#e69194" vector-effect="non-scaling-stroke" d="
  M 554.79 236.00
  L 561.44 236.21
  A 0.98 0.82 -71.7 0 0 562.22 235.73
  L 574.80 213.79
  Q 575.07 213.30 575.07 213.86
  L 575.00 235.27
  A 0.99 0.98 -0.0 0 0 575.99 236.25
  L 584.20 236.25
  A 1.06 1.06 89.0 0 0 585.26 235.15
  Q 584.70 219.16 585.16 204.37
  A 1.33 1.31 -89.4 0 0 583.84 203.00
  L 570.81 203.06
  A 1.29 0.64 -55.5 0 0 570.03 203.49
  L 569.54 204.00"
/>
<path stroke="#ca181f" vector-effect="non-scaling-stroke" d="
  M 569.54 204.00
  Q 569.20 203.57 568.67 203.40
  A 0.70 0.61 -65.4 0 0 567.93 203.74
  L 559.51 218.65
  A 0.84 0.83 -47.1 0 1 558.08 218.71
  Q 553.45 211.66 549.62 204.16
  Q 548.81 202.57 547.48 203.43"
/>
<path stroke="#e69194" vector-effect="non-scaling-stroke" d="
  M 547.48 203.43
  Q 540.08 202.66 532.56 203.04
  A 0.52 0.52 -1.1 0 0 532.06 203.56
  L 532.00 235.70
  A 0.55 0.55 -90.0 0 0 532.55 236.25
  C 535.43 236.25 538.46 236.06 541.23 236.34
  Q 542.66 236.48 542.29 234.75"
/>
<path stroke="#e4868a" vector-effect="non-scaling-stroke" d="
  M 547.48 203.43
  L 558.04 222.21
  Q 558.60 223.22 559.18 222.20
  L 569.54 204.00"
/>
<path stroke="#e4868a" vector-effect="non-scaling-stroke" d="
  M 554.79 236.00
  L 542.19 213.75
  Q 541.95 213.32 541.96 213.81
  L 542.29 234.75"
/>
<path stroke="#e69194" vector-effect="non-scaling-stroke" d="
  M 121.05 220.00
  A 0.26 0.26 0.0 0 0 120.79 219.74
  L 106.01 219.74
  A 0.26 0.26 0.0 0 0 105.75 220.00
  L 105.75 228.24
  A 0.26 0.26 0.0 0 0 106.01 228.50
  L 120.79 228.50
  A 0.26 0.26 0.0 0 0 121.05 228.24
  L 121.05 220.00"
/>
<path stroke="#e4868a" vector-effect="non-scaling-stroke" d="
  M 215.38 211.99
  C 214.88 204.95 209.05 202.71 202.75 202.73
  Q 194.00 202.75 185.25 202.73
  C 178.67 202.71 171.72 204.02 171.14 211.99
  C 170.77 217.12 169.84 228.66 173.29 232.77
  C 177.82 238.19 195.28 236.67 202.00 236.67
  C 207.83 236.66 214.25 234.81 215.06 228.81
  Q 216.06 221.41 215.38 211.99"
/>
<path stroke="#e4868a" vector-effect="non-scaling-stroke" d="
  M 202.68 212.37
  C 198.72 210.48 189.40 211.24 184.99 211.75
  Q 183.06 211.98 182.38 213.79
  Q 180.51 218.80 182.00 224.51
  Q 182.70 227.20 185.46 227.52
  Q 193.13 228.43 201.00 227.50
  C 206.22 226.88 205.27 218.25 204.51 214.71
  Q 204.17 213.09 202.68 212.37"
/>
<path stroke="#e69194" vector-effect="non-scaling-stroke" d="
  M 152.80 211.92
  L 136.98 211.77
  A 0.67 0.66 0.4 0 0 136.30 212.43
  L 136.38 218.56
  A 0.56 0.51 -1.1 0 0 136.95 219.06
  L 152.60 219.00
  A 2.31 2.27 -78.6 0 0 154.71 217.57
  Q 156.11 214.15 153.72 212.24
  A 1.50 1.39 -23.6 0 0 152.80 211.92"
/>
<path stroke="#e38487" vector-effect="non-scaling-stroke" d="
  M 87.94 212.92
  C 84.08 210.60 72.75 211.76 67.74 211.50
  A 0.41 0.40 -89.4 0 0 67.32 211.92
  L 67.45 227.07
  A 0.52 0.51 -89.4 0 0 67.94 227.58
  Q 79.28 228.06 84.94 227.69
  C 91.39 227.26 90.10 219.42 89.59 215.43
  Q 89.37 213.77 87.94 212.92"
/>
<path stroke="#ca181f" vector-effect="non-scaling-stroke" d="
  M 200.46 213.25
  Q 193.42 212.06 185.23 213.25
  Q 183.13 213.56 183.06 215.68
  C 182.94 219.08 181.59 225.82 186.68 225.97
  Q 193.34 226.17 200.45 225.99
  Q 202.44 225.94 202.92 224.01
  Q 203.57 221.40 203.11 216.11
  Q 202.89 213.66 200.46 213.25"
/>
<path stroke="#c9151c" vector-effect="non-scaling-stroke" d="
  M 86.85 214.09
  C 82.65 211.95 73.86 212.93 69.51 213.25
  A 0.55 0.55 -88.7 0 0 69.00 213.74
  Q 68.41 219.63 68.93 224.83
  A 1.27 1.23 86.7 0 0 70.17 225.97
  L 86.74 225.76
  A 1.32 1.26 -86.0 0 0 87.98 224.63
  Q 88.72 219.49 87.83 215.35
  A 1.87 1.86 7.3 0 0 86.85 214.09"
/>
</g>
<path fill="#cc2229" d="
  M 324.96 52.38
  Q 326.96 53.94 329.75 53.46
  C 352.58 56.01 372.26 70.57 381.58 91.35
  C 397.34 126.52 378.82 168.27 341.98 179.71
  C 288.90 196.20 240.48 142.75 263.26 91.64
  Q 276.24 62.52 308.42 54.65
  C 315.28 52.97 319.25 51.80 324.96 52.38
  Z
  M 367.85 118.00
  A 45.27 45.27 0.0 0 0 322.58 72.73
  A 45.27 45.27 0.0 0 0 277.31 118.00
  A 45.27 45.27 0.0 0 0 322.58 163.27
  A 45.27 45.27 0.0 0 0 367.85 118.00
  Z"
/>
<path fill="#661717" fill-opacity="0.992" d="
  M 324.96 52.38
  Q 327.79 51.78 329.75 53.46
  Q 326.96 53.94 324.96 52.38
  Z"
/>
<rect fill="#000000" x="577.00" y="54.25" width="20.26" height="122.00" rx="0.60"/>
<path fill="#000000" d="
  M 93.94 131.10
  L 93.56 56.71
  A 0.96 0.95 -90.0 0 1 94.51 55.75
  L 112.94 55.81
  A 0.51 0.50 90.0 0 1 113.44 56.32
  L 113.50 173.24
  Q 113.50 174.61 112.44 173.75
  L 21.15 99.50
  Q 20.31 98.82 20.32 99.90
  L 20.50 174.60
  A 0.96 0.96 0.3 0 1 19.53 175.56
  L 2.76 175.50
  A 0.52 0.52 0.6 0 1 2.25 174.98
  Q 2.25 118.50 2.40 62.00
  Q 2.40 60.23 2.00 58.50
  Q 1.27 55.38 4.06 57.69
  L 93.24 131.43
  Q 93.94 132.01 93.94 131.10
  Z"
/>
<path fill="#000000" d="
  M 518.69 113.06
  Q 518.68 111.34 517.58 112.66
  L 473.30 166.14
  A 0.65 0.64 44.8 0 1 472.31 166.14
  L 427.34 112.47
  Q 426.68 111.68 426.68 112.71
  L 426.69 175.69
  A 0.63 0.63 0.0 0 1 426.06 176.32
  L 407.95 176.19
  A 0.71 0.70 -90.0 0 1 407.25 175.48
  L 407.25 58.05
  Q 407.25 57.01 407.93 57.80
  L 472.67 133.12
  A 0.43 0.42 44.6 0 0 473.32 133.12
  L 538.58 56.63
  Q 539.56 55.48 539.57 56.99
  L 539.69 175.38
  A 0.86 0.84 -90.0 0 1 538.85 176.24
  L 519.44 176.08
  A 0.52 0.52 0.6 0 1 518.93 175.56
  L 518.69 113.06
  Z"
/>
<path fill="#000000" d="
  M 257.95 175.88
  A 0.38 0.38 -13.8 0 1 257.61 176.44
  L 235.63 176.27
  A 1.70 1.68 -13.6 0 1 234.15 175.38
  L 221.49 151.33
  A 1.58 1.56 -13.8 0 0 220.10 150.50
  L 162.84 150.50
  A 1.31 1.27 13.7 0 0 161.70 151.17
  L 148.47 175.38
  A 1.68 1.66 -75.3 0 1 147.01 176.25
  L 126.92 176.25
  Q 125.76 176.25 126.36 175.24
  L 140.68 151.11
  Q 141.09 150.43 140.28 150.43
  L 128.11 150.49
  A 0.83 0.80 0.3 0 1 127.28 149.68
  L 127.47 132.99
  A 0.56 0.53 -1.2 0 1 128.00 132.47
  Q 139.59 131.79 147.00 132.50
  C 150.45 132.83 150.44 131.72 152.02 128.85
  Q 171.44 93.68 191.22 57.64
  Q 191.74 56.70 192.26 57.64
  L 257.95 175.88
  Z
  M 170.48 131.43
  A 0.39 0.39 14.2 0 0 170.82 132.00
  L 212.02 132.00
  A 0.39 0.39 75.6 0 0 212.36 131.43
  L 191.76 93.71
  A 0.39 0.39 0.0 0 0 191.08 93.71
  L 170.48 131.43
  Z"
/>
<path fill="#cc2229" d="
  M 597.50 246.21
  A 0.54 0.54 0.0 0 1 596.96 246.75
  L 2.80 246.75
  A 0.54 0.54 0.0 0 1 2.26 246.21
  L 2.26 195.29
  A 0.54 0.54 0.0 0 1 2.80 194.75
  L 596.96 194.75
  A 0.54 0.54 0.0 0 1 597.50 195.29
  L 597.50 246.21
  Z
  M 51.65 217.08
  L 39.50 216.96
  Q 41.12 216.90 40.79 215.25
  L 50.19 215.20
  A 0.87 0.70 8.4 0 0 50.94 214.76
  Q 51.13 214.30 51.04 213.75
  C 52.12 215.02 53.07 214.12 52.94 212.85
  C 52.36 207.10 49.86 202.56 44.25 201.75
  Q 35.23 200.45 25.66 201.05
  C 16.22 201.65 9.10 202.67 7.64 212.98
  C 6.82 218.77 6.58 231.49 12.00 235.25
  C 18.50 239.77 32.22 238.01 41.00 237.75
  C 48.93 237.51 53.41 232.75 53.29 225.02
  Q 53.23 220.94 51.65 217.08
  Z
  M 205.01 201.45
  C 204.69 200.80 190.48 201.07 188.46 201.05
  C 183.02 201.01 176.79 201.05 172.60 205.37
  C 168.58 209.52 168.18 219.64 169.33 225.37
  Q 169.94 228.43 169.96 228.58
  C 171.43 238.39 182.26 238.03 189.57 238.04
  C 200.20 238.04 217.04 241.07 217.15 224.50
  C 217.23 214.10 218.67 201.86 205.32 201.69
  A 0.43 0.29 72.0 0 1 205.01 201.45
  Z
  M 347.25 213.54
  Q 348.06 213.66 348.04 213.00
  Q 349.83 212.64 349.50 210.75
  Q 349.09 208.37 348.25 207.00
  Q 344.65 201.08 337.50 201.23
  C 330.57 201.38 311.05 198.70 308.00 207.00
  Q 305.17 214.72 309.26 222.31
  A 0.79 0.72 -40.5 0 1 309.16 223.13
  L 308.11 224.41
  A 1.72 1.39 6.1 0 1 307.32 224.92
  C 305.87 225.37 306.47 226.56 306.52 227.57
  C 306.89 236.01 312.35 237.71 320.03 237.91
  Q 329.41 238.16 338.78 237.72
  Q 343.91 237.48 346.33 235.85
  C 352.69 231.59 351.56 221.69 347.14 216.32
  A 1.15 0.91 -64.8 0 1 346.94 215.45
  L 347.25 213.54
  Z
  M 400.50 224.79
  Q 400.25 225.10 400.21 225.50
  Q 398.90 225.40 398.83 226.75
  C 398.29 236.71 406.29 238.02 414.00 238.00
  C 423.26 237.97 440.22 240.82 442.18 229.97
  Q 443.75 221.29 438.19 213.74
  Q 440.05 213.54 440.04 213.00
  Q 440.52 213.05 440.88 212.83
  A 1.16 0.75 83.7 0 0 441.30 212.00
  C 442.09 202.85 433.97 201.25 426.75 201.25
  C 418.95 201.25 399.57 198.55 399.28 210.90
  C 399.18 214.79 399.30 218.77 401.47 222.08
  A 0.94 0.62 -54.3 0 1 401.44 222.89
  L 400.50 224.79
  Z
  M 87.45 203.28
  L 57.86 203.25
  A 0.85 0.83 -0.3 0 0 57.01 204.09
  L 57.29 236.23
  Q 56.91 237.72 58.75 237.75
  Q 81.47 238.07 89.50 238.00
  C 103.44 237.86 102.89 223.44 101.81 213.69
  Q 100.53 202.10 89.25 201.76
  A 1.76 1.46 -56.2 0 0 88.34 202.03
  C 87.67 202.46 82.89 202.53 87.45 203.28
  Z
  M 125.71 203.75
  Q 125.16 203.22 124.60 203.65
  A 1.22 0.81 79.6 0 0 124.23 204.51
  Q 123.54 222.11 124.00 234.00
  C 124.17 238.45 127.81 237.76 130.64 238.05
  Q 133.88 238.37 136.60 236.50
  L 136.28 228.34
  A 0.61 0.55 -2.0 0 1 136.87 227.77
  Q 144.20 227.59 150.87 227.89
  C 155.66 228.11 155.38 230.06 155.07 234.03
  Q 154.90 236.16 156.91 236.17
  L 164.97 236.23
  A 0.55 0.53 90.0 0 0 165.50 235.68
  C 165.50 231.08 166.99 225.36 161.53 223.23
  Q 161.10 223.06 161.53 222.87
  C 165.72 221.04 165.98 216.94 165.74 212.71
  C 165.42 206.89 162.61 203.34 156.50 203.19
  Q 142.41 202.85 128.31 202.99
  C 127.34 203.00 126.18 202.55 125.71 203.75
  Z
  M 221.54 236.25
  Q 221.39 238.39 223.34 237.75
  Q 223.75 237.61 224.30 237.62
  L 229.83 237.71
  Q 232.66 237.76 232.73 234.60
  L 233.03 221.57
  A 0.57 0.46 -86.0 0 1 233.56 221.00
  Q 233.96 221.07 234.19 221.56
  Q 237.74 229.18 243.52 237.28
  A 1.05 1.02 73.6 0 0 244.30 237.72
  C 247.73 237.92 251.40 238.71 253.30 235.11
  Q 256.52 229.04 260.66 222.78
  Q 261.81 221.06 262.08 223.11
  Q 262.76 228.18 262.31 233.83
  C 262.24 234.69 262.40 237.10 263.89 235.66
  Q 268.54 236.70 273.74 236.20
  A 0.56 0.55 87.8 0 0 274.25 235.64
  L 274.19 203.56
  A 0.51 0.50 -89.4 0 0 273.70 203.05
  L 260.23 203.01
  A 1.62 1.61 15.1 0 0 258.81 203.82
  L 248.19 222.22
  Q 247.62 223.22 247.05 222.22
  L 236.43 203.55
  A 1.11 1.08 -14.2 0 0 235.47 203.00
  L 222.20 203.00
  A 0.93 0.91 -0.3 0 0 221.27 203.92
  L 221.54 236.25
  Z
  M 373.93 215.37
  L 364.67 203.95
  A 2.54 2.49 70.4 0 0 362.71 203.00
  L 351.88 203.00
  Q 350.72 203.00 351.48 203.88
  L 368.68 223.89
  A 2.45 2.37 -66.4 0 1 369.26 225.44
  L 369.30 235.68
  A 0.52 0.51 90.0 0 0 369.81 236.20
  L 378.93 236.20
  A 0.53 0.52 -89.4 0 0 379.45 235.68
  L 379.50 225.00
  A 1.44 1.28 68.4 0 1 379.82 224.13
  L 397.24 204.08
  Q 398.12 203.05 396.78 203.05
  L 386.31 203.01
  A 2.02 1.89 -67.8 0 0 384.82 203.70
  L 374.59 215.38
  A 0.44 0.43 -43.8 0 1 373.93 215.37
  Z
  M 470.07 211.56
  L 482.66 211.50
  A 0.55 0.50 -0.5 0 0 483.21 210.99
  L 483.06 203.74
  A 0.56 0.50 -0.5 0 0 482.50 203.25
  L 445.95 203.18
  A 0.54 0.51 0.0 0 0 445.41 203.69
  L 445.41 210.80
  A 0.54 0.53 -89.5 0 0 445.93 211.34
  L 458.56 211.49
  A 0.51 0.50 0.0 0 1 459.07 211.99
  L 459.06 235.69
  A 0.51 0.50 90.0 0 0 459.56 236.20
  L 468.96 236.25
  A 0.56 0.54 -90.0 0 0 469.50 235.69
  L 469.56 212.07
  A 0.51 0.51 0.0 0 1 470.07 211.56
  Z
  M 506.50 236.29
  Q 505.79 237.09 506.18 237.62
  A 1.20 0.66 -9.8 0 0 507.07 237.93
  C 512.30 237.84 517.59 237.55 522.81 237.89
  C 528.29 238.24 527.01 231.64 526.95 228.56
  A 0.80 0.67 12.8 0 0 526.46 227.92
  Q 525.64 227.58 525.36 226.73
  A 0.84 0.73 83.6 0 0 524.75 226.17
  Q 514.03 224.57 503.31 226.12
  A 0.60 0.48 -6.8 0 1 502.65 225.71
  C 502.57 225.01 503.18 224.81 503.80 224.82
  Q 513.28 224.95 522.76 225.24
  A 0.70 0.64 8.2 0 0 523.43 224.78
  Q 523.65 224.07 523.50 223.29
  Q 524.53 219.95 523.80 216.55
  A 0.64 0.61 -5.5 0 0 523.18 216.06
  L 502.00 215.96
  Q 506.79 214.72 502.49 214.07
  A 0.97 0.72 -1.4 0 1 501.77 213.56
  C 501.44 212.63 503.50 213.00 504.10 213.01
  Q 514.17 213.24 524.25 213.01
  A 1.21 0.97 -65.8 0 0 525.05 212.60
  L 526.39 211.10
  A 1.29 1.03 -30.9 0 0 526.71 210.25
  C 526.54 207.99 527.59 203.87 525.55 203.17
  L 489.91 203.00
  A 0.66 0.66 0.1 0 0 489.25 203.66
  L 489.31 235.69
  A 0.51 0.50 0.0 0 0 489.82 236.19
  L 506.50 236.29
  Z
  M 542.29 234.75
  Q 542.82 235.07 543.29 234.96
  A 0.78 0.55 86.7 0 0 543.73 234.26
  L 544.23 221.68
  Q 544.28 220.33 544.97 221.53
  Q 548.91 228.35 552.69 235.06
  Q 553.54 236.57 554.79 236.00
  L 561.44 236.21
  A 0.98 0.82 -71.7 0 0 562.22 235.73
  L 574.80 213.79
  Q 575.07 213.30 575.07 213.86
  L 575.00 235.27
  A 0.99 0.98 -0.0 0 0 575.99 236.25
  L 584.20 236.25
  A 1.06 1.06 89.0 0 0 585.26 235.15
  Q 584.70 219.16 585.16 204.37
  A 1.33 1.31 -89.4 0 0 583.84 203.00
  L 570.81 203.06
  A 1.29 0.64 -55.5 0 0 570.03 203.49
  L 569.54 204.00
  Q 569.20 203.57 568.67 203.40
  A 0.70 0.61 -65.4 0 0 567.93 203.74
  L 559.51 218.65
  A 0.84 0.83 -47.1 0 1 558.08 218.71
  Q 553.45 211.66 549.62 204.16
  Q 548.81 202.57 547.48 203.43
  Q 540.08 202.66 532.56 203.04
  A 0.52 0.52 -1.1 0 0 532.06 203.56
  L 532.00 235.70
  A 0.55 0.55 -90.0 0 0 532.55 236.25
  C 535.43 236.25 538.46 236.06 541.23 236.34
  Q 542.66 236.48 542.29 234.75
  Z
  M 121.05 220.00
  A 0.26 0.26 0.0 0 0 120.79 219.74
  L 106.01 219.74
  A 0.26 0.26 0.0 0 0 105.75 220.00
  L 105.75 228.24
  A 0.26 0.26 0.0 0 0 106.01 228.50
  L 120.79 228.50
  A 0.26 0.26 0.0 0 0 121.05 228.24
  L 121.05 220.00
  Z"
/>
<path fill="#c80d14" d="
  M 51.04 213.75
  C 52.11 202.17 42.13 202.90 34.33 202.69
  C 25.24 202.44 10.89 201.17 9.50 211.25
  C 8.96 215.16 8.34 227.33 10.83 231.64
  C 14.33 237.70 25.88 236.75 33.44 236.60
  C 39.15 236.49 51.33 237.06 51.32 228.70
  C 51.32 224.91 51.59 221.03 51.65 217.08
  Q 53.23 220.94 53.29 225.02
  C 53.41 232.75 48.93 237.51 41.00 237.75
  C 32.22 238.01 18.50 239.77 12.00 235.25
  C 6.58 231.49 6.82 218.77 7.64 212.98
  C 9.10 202.67 16.22 201.65 25.66 201.05
  Q 35.23 200.45 44.25 201.75
  C 49.86 202.56 52.36 207.10 52.94 212.85
  C 53.07 214.12 52.12 215.02 51.04 213.75
  Z"
/>
<path fill="#c80d14" d="
  M 205.32 201.69
  C 218.67 201.86 217.23 214.10 217.15 224.50
  C 217.04 241.07 200.20 238.04 189.57 238.04
  C 182.26 238.03 171.43 238.39 169.96 228.58
  Q 169.94 228.43 169.33 225.37
  C 168.18 219.64 168.58 209.52 172.60 205.37
  C 176.79 201.05 183.02 201.01 188.46 201.05
  C 190.48 201.07 204.69 200.80 205.01 201.45
  A 0.43 0.29 72.0 0 0 205.32 201.69
  Z
  M 215.38 211.99
  C 214.88 204.95 209.05 202.71 202.75 202.73
  Q 194.00 202.75 185.25 202.73
  C 178.67 202.71 171.72 204.02 171.14 211.99
  C 170.77 217.12 169.84 228.66 173.29 232.77
  C 177.82 238.19 195.28 236.67 202.00 236.67
  C 207.83 236.66 214.25 234.81 215.06 228.81
  Q 216.06 221.41 215.38 211.99
  Z"
/>
<path fill="#c80d14" d="
  M 348.04 213.00
  C 348.91 206.17 345.38 203.42 338.92 202.93
  Q 327.89 202.09 316.86 203.03
  C 309.64 203.64 308.17 207.47 308.24 214.24
  Q 308.34 223.17 318.75 223.07
  Q 327.74 222.98 336.68 223.77
  A 1.56 1.36 -18.5 0 1 337.57 224.14
  Q 339.94 226.33 337.36 228.16
  A 1.71 1.40 22.5 0 1 336.43 228.44
  Q 329.47 228.55 322.50 228.50
  Q 318.69 228.47 318.35 225.44
  A 0.60 0.55 87.0 0 0 317.81 224.91
  L 309.98 224.73
  A 1.66 1.59 -86.9 0 0 308.36 226.25
  C 307.56 235.56 313.47 236.40 320.50 236.44
  Q 329.25 236.50 338.00 236.49
  C 347.91 236.47 351.13 230.47 348.75 221.25
  C 346.69 213.25 330.48 215.54 323.15 215.14
  C 320.92 215.02 317.14 214.43 319.68 211.14
  A 1.20 1.08 14.7 0 1 320.51 210.71
  Q 327.87 210.17 335.23 210.46
  C 336.99 210.53 337.68 211.41 337.95 213.00
  A 0.59 0.56 85.2 0 0 338.51 213.50
  L 347.25 213.54
  L 346.94 215.45
  A 1.15 0.91 -64.8 0 0 347.14 216.32
  C 351.56 221.69 352.69 231.59 346.33 235.85
  Q 343.91 237.48 338.78 237.72
  Q 329.41 238.16 320.03 237.91
  C 312.35 237.71 306.89 236.01 306.52 227.57
  C 306.47 226.56 305.87 225.37 307.32 224.92
  A 1.72 1.39 6.1 0 0 308.11 224.41
  L 309.16 223.13
  A 0.79 0.72 -40.5 0 0 309.26 222.31
  Q 305.17 214.72 308.00 207.00
  C 311.05 198.70 330.57 201.38 337.50 201.23
  Q 344.65 201.08 348.25 207.00
  Q 349.09 208.37 349.50 210.75
  Q 349.83 212.64 348.04 213.00
  Z"
/>
<path fill="#c6080f" d="
  M 440.04 213.00
  C 440.35 202.10 433.14 202.72 424.28 202.65
  Q 416.58 202.59 408.89 203.07
  C 401.41 203.53 399.77 207.94 400.25 214.73
  C 400.53 218.66 402.03 221.75 406.00 222.50
  C 412.24 223.68 420.35 223.03 427.46 223.63
  C 429.53 223.81 431.60 225.00 430.33 227.32
  A 2.27 2.25 14.1 0 1 428.34 228.50
  L 412.75 228.50
  Q 410.59 228.50 410.82 226.35
  C 411.09 223.77 402.05 224.76 400.50 224.79
  L 401.44 222.89
  A 0.94 0.62 -54.3 0 0 401.47 222.08
  C 399.30 218.77 399.18 214.79 399.28 210.90
  C 399.57 198.55 418.95 201.25 426.75 201.25
  C 433.97 201.25 442.09 202.85 441.30 212.00
  A 1.16 0.75 83.7 0 1 440.88 212.83
  Q 440.52 213.05 440.04 213.00
  Z"
/>
<path fill="#c80d14" d="
  M 57.29 236.23
  Q 72.53 236.26 87.25 236.28
  C 101.03 236.29 100.25 229.36 100.25 218.34
  C 100.25 209.34 98.73 202.68 87.45 203.28
  C 82.89 202.53 87.67 202.46 88.34 202.03
  A 1.76 1.46 -56.2 0 1 89.25 201.76
  Q 100.53 202.10 101.81 213.69
  C 102.89 223.44 103.44 237.86 89.50 238.00
  Q 81.47 238.07 58.75 237.75
  Q 56.91 237.72 57.29 236.23
  Z"
/>
<path fill="#ffffff" d="
  M 348.04 213.00
  Q 348.06 213.66 347.25 213.54
  L 338.51 213.50
  A 0.59 0.56 85.2 0 1 337.95 213.00
  C 337.68 211.41 336.99 210.53 335.23 210.46
  Q 327.87 210.17 320.51 210.71
  A 1.20 1.08 14.7 0 0 319.68 211.14
  C 317.14 214.43 320.92 215.02 323.15 215.14
  C 330.48 215.54 346.69 213.25 348.75 221.25
  C 351.13 230.47 347.91 236.47 338.00 236.49
  Q 329.25 236.50 320.50 236.44
  C 313.47 236.40 307.56 235.56 308.36 226.25
  A 1.66 1.59 -86.9 0 1 309.98 224.73
  L 317.81 224.91
  A 0.60 0.55 87.0 0 1 318.35 225.44
  Q 318.69 228.47 322.50 228.50
  Q 329.47 228.55 336.43 228.44
  A 1.71 1.40 22.5 0 0 337.36 228.16
  Q 339.94 226.33 337.57 224.14
  A 1.56 1.36 -18.5 0 0 336.68 223.77
  Q 327.74 222.98 318.75 223.07
  Q 308.34 223.17 308.24 214.24
  C 308.17 207.47 309.64 203.64 316.86 203.03
  Q 327.89 202.09 338.92 202.93
  C 345.38 203.42 348.91 206.17 348.04 213.00
  Z"
/>
<path fill="#ffffff" d="
  M 51.04 213.75
  Q 51.13 214.30 50.94 214.76
  A 0.87 0.70 8.4 0 1 50.19 215.20
  L 40.79 215.25
  Q 40.75 212.04 38.50 211.75
  Q 30.88 210.76 22.90 211.80
  Q 20.97 212.05 20.37 213.90
  C 18.89 218.54 18.33 226.91 24.60 227.69
  Q 31.76 228.59 38.47 227.35
  A 2.60 2.59 4.1 0 0 40.45 225.64
  Q 41.11 223.72 39.32 223.88
  Q 34.43 224.34 29.56 223.75
  A 0.67 0.66 -1.1 0 1 28.98 223.20
  Q 28.52 220.34 29.13 217.50
  A 0.65 0.64 5.7 0 1 29.75 217.00
  L 39.50 216.96
  L 51.65 217.08
  C 51.59 221.03 51.32 224.91 51.32 228.70
  C 51.33 237.06 39.15 236.49 33.44 236.60
  C 25.88 236.75 14.33 237.70 10.83 231.64
  C 8.34 227.33 8.96 215.16 9.50 211.25
  C 10.89 201.17 25.24 202.44 34.33 202.69
  C 42.13 202.90 52.11 202.17 51.04 213.75
  Z"
/>
<path fill="#ffffff" d="
  M 202.75 202.73
  C 209.05 202.71 214.88 204.95 215.38 211.99
  Q 216.06 221.41 215.06 228.81
  C 214.25 234.81 207.83 236.66 202.00 236.67
  C 195.28 236.67 177.82 238.19 173.29 232.77
  C 169.84 228.66 170.77 217.12 171.14 211.99
  C 171.72 204.02 178.67 202.71 185.25 202.73
  Q 194.00 202.75 202.75 202.73
  Z
  M 202.68 212.37
  C 198.72 210.48 189.40 211.24 184.99 211.75
  Q 183.06 211.98 182.38 213.79
  Q 180.51 218.80 182.00 224.51
  Q 182.70 227.20 185.46 227.52
  Q 193.13 228.43 201.00 227.50
  C 206.22 226.88 205.27 218.25 204.51 214.71
  Q 204.17 213.09 202.68 212.37
  Z"
/>
<path fill="#ffffff" d="
  M 440.04 213.00
  Q 440.05 213.54 438.19 213.74
  L 430.64 213.61
  A 0.75 0.65 -6.8 0 1 429.96 213.15
  Q 429.02 210.23 426.50 210.31
  Q 419.66 210.54 412.81 210.56
  A 1.52 1.28 21.7 0 0 411.91 210.86
  C 409.47 212.81 411.24 214.67 413.64 214.88
  Q 422.55 215.67 431.50 215.50
  C 444.54 215.25 444.54 235.18 433.75 236.25
  C 428.89 236.73 421.56 236.50 413.56 236.54
  C 404.71 236.58 399.87 235.79 400.21 225.50
  Q 400.25 225.10 400.50 224.79
  C 402.05 224.76 411.09 223.77 410.82 226.35
  Q 410.59 228.50 412.75 228.50
  L 428.34 228.50
  A 2.27 2.25 14.1 0 0 430.33 227.32
  C 431.60 225.00 429.53 223.81 427.46 223.63
  C 420.35 223.03 412.24 223.68 406.00 222.50
  C 402.03 221.75 400.53 218.66 400.25 214.73
  C 399.77 207.94 401.41 203.53 408.89 203.07
  Q 416.58 202.59 424.28 202.65
  C 433.14 202.72 440.35 202.10 440.04 213.00
  Z"
/>
<path fill="#ffffff" d="
  M 136.60 236.50
  Q 131.09 235.92 126.35 236.40
  A 0.62 0.61 -2.6 0 1 125.68 235.79
  L 125.71 203.75
  C 126.18 202.55 127.34 203.00 128.31 202.99
  Q 142.41 202.85 156.50 203.19
  C 162.61 203.34 165.42 206.89 165.74 212.71
  C 165.98 216.94 165.72 221.04 161.53 222.87
  Q 161.10 223.06 161.53 223.23
  C 166.99 225.36 165.50 231.08 165.50 235.68
  A 0.55 0.53 90.0 0 1 164.97 236.23
  L 156.91 236.17
  Q 154.90 236.16 155.07 234.03
  C 155.38 230.06 155.66 228.11 150.87 227.89
  Q 144.20 227.59 136.87 227.77
  A 0.61 0.55 -2.0 0 0 136.28 228.34
  L 136.60 236.50
  Z
  M 152.80 211.92
  L 136.98 211.77
  A 0.67 0.66 0.4 0 0 136.30 212.43
  L 136.38 218.56
  A 0.56 0.51 -1.1 0 0 136.95 219.06
  L 152.60 219.00
  A 2.31 2.27 -78.6 0 0 154.71 217.57
  Q 156.11 214.15 153.72 212.24
  A 1.50 1.39 -23.6 0 0 152.80 211.92
  Z"
/>
<path fill="#ffffff" d="
  M 263.89 235.66
  Q 264.57 224.67 264.09 214.07
  Q 264.06 213.57 263.82 213.99
  L 251.28 235.80
  A 0.90 0.88 -74.7 0 1 250.51 236.25
  L 244.57 236.21
  A 0.92 0.88 74.9 0 1 243.81 235.75
  L 231.87 214.69
  Q 231.19 213.50 231.21 214.88
  L 231.50 235.70
  A 0.56 0.54 -0.5 0 1 230.94 236.25
  L 221.54 236.25
  L 221.27 203.92
  A 0.93 0.91 -0.3 0 1 222.20 203.00
  L 235.47 203.00
  A 1.11 1.08 -14.2 0 1 236.43 203.55
  L 247.05 222.22
  Q 247.62 223.22 248.19 222.22
  L 258.81 203.82
  A 1.62 1.61 15.1 0 1 260.23 203.01
  L 273.70 203.05
  A 0.51 0.50 -89.4 0 1 274.19 203.56
  L 274.25 235.64
  A 0.56 0.55 87.8 0 1 273.74 236.20
  Q 268.54 236.70 263.89 235.66
  Z"
/>
<path fill="#ffffff" d="
  M 374.59 215.38
  L 384.82 203.70
  A 2.02 1.89 -67.8 0 1 386.31 203.01
  L 396.78 203.05
  Q 398.12 203.05 397.24 204.08
  L 379.82 224.13
  A 1.44 1.28 68.4 0 0 379.50 225.00
  L 379.45 235.68
  A 0.53 0.52 -89.4 0 1 378.93 236.20
  L 369.81 236.20
  A 0.52 0.51 -90.0 0 1 369.30 235.68
  L 369.26 225.44
  A 2.45 2.37 -66.4 0 0 368.68 223.89
  L 351.48 203.88
  Q 350.72 203.00 351.88 203.00
  L 362.71 203.00
  A 2.54 2.49 70.4 0 1 364.67 203.95
  L 373.93 215.37
  A 0.44 0.43 -43.8 0 0 374.59 215.38
  Z"
/>
<path fill="#ffffff" d="
  M 469.56 212.07
  L 469.50 235.69
  A 0.56 0.54 -90.0 0 1 468.96 236.25
  L 459.56 236.20
  A 0.51 0.50 90.0 0 1 459.06 235.69
  L 459.07 211.99
  A 0.51 0.50 0.0 0 0 458.56 211.49
  L 445.93 211.34
  A 0.54 0.53 -89.5 0 1 445.41 210.80
  L 445.41 203.69
  A 0.54 0.51 -0.0 0 1 445.95 203.18
  L 482.50 203.25
  A 0.56 0.50 -0.5 0 1 483.06 203.74
  L 483.21 210.99
  A 0.55 0.50 -0.5 0 1 482.66 211.50
  L 470.07 211.56
  A 0.51 0.51 0.0 0 0 469.56 212.07
  Z"
/>
<path fill="#ffffff" d="
  M 525.55 203.17
  L 525.45 210.94
  A 0.52 0.51 0.6 0 1 524.93 211.44
  Q 513.68 211.54 502.43 211.50
  C 499.12 211.49 499.86 211.43 499.58 214.42
  Q 499.36 216.71 502.00 215.96
  L 523.18 216.06
  A 0.64 0.61 -5.5 0 1 523.80 216.55
  Q 524.53 219.95 523.50 223.29
  L 500.44 223.43
  A 0.59 0.48 -0.5 0 0 499.85 223.92
  L 499.85 227.24
  A 0.56 0.51 0.0 0 0 500.41 227.75
  L 524.88 227.75
  A 0.83 0.78 0.3 0 1 525.71 228.54
  L 525.61 235.57
  A 0.56 0.52 -0.0 0 1 525.06 236.08
  L 506.50 236.29
  L 489.82 236.19
  A 0.51 0.50 0.0 0 1 489.31 235.69
  L 489.25 203.66
  A 0.66 0.66 -0.2 0 1 489.91 203.00
  L 525.55 203.17
  Z"
/>
<path fill="#ffffff" d="
  M 547.48 203.43
  L 558.04 222.21
  Q 558.60 223.22 559.18 222.20
  L 569.54 204.00
  L 570.03 203.49
  A 1.29 0.64 -55.5 0 1 570.81 203.06
  L 583.84 203.00
  A 1.33 1.31 -89.4 0 1 585.16 204.37
  Q 584.70 219.16 585.26 235.15
  A 1.06 1.06 89.0 0 1 584.20 236.25
  L 575.99 236.25
  A 0.99 0.98 -0.0 0 1 575.00 235.27
  L 575.07 213.86
  Q 575.07 213.30 574.80 213.79
  L 562.22 235.73
  A 0.98 0.82 -71.7 0 1 561.44 236.21
  L 554.79 236.00
  L 542.19 213.75
  Q 541.95 213.32 541.96 213.81
  L 542.29 234.75
  Q 542.66 236.48 541.23 236.34
  C 538.46 236.06 535.43 236.25 532.55 236.25
  A 0.55 0.55 -89.9 0 1 532.00 235.70
  L 532.06 203.56
  A 0.52 0.52 -1.1 0 1 532.56 203.04
  Q 540.08 202.66 547.48 203.43
  Z"
/>
<path fill="#c80d14" d="
  M 569.54 204.00
  L 559.18 222.20
  Q 558.60 223.22 558.04 222.21
  L 547.48 203.43
  Q 548.81 202.57 549.62 204.16
  Q 553.45 211.66 558.08 218.71
  A 0.84 0.83 -47.1 0 0 559.51 218.65
  L 567.93 203.74
  A 0.70 0.61 -65.4 0 1 568.67 203.40
  Q 569.20 203.57 569.54 204.00
  Z"
/>
<path fill="#ffffff" d="
  M 87.45 203.28
  C 98.73 202.68 100.25 209.34 100.25 218.34
  C 100.25 229.36 101.03 236.29 87.25 236.28
  Q 72.53 236.26 57.29 236.23
  L 57.01 204.09
  A 0.85 0.83 -0.3 0 1 57.86 203.25
  L 87.45 203.28
  Z
  M 87.94 212.92
  C 84.08 210.60 72.75 211.76 67.74 211.50
  A 0.41 0.40 -89.4 0 0 67.32 211.92
  L 67.45 227.07
  A 0.52 0.51 -89.4 0 0 67.94 227.58
  Q 79.28 228.06 84.94 227.69
  C 91.39 227.26 90.10 219.42 89.59 215.43
  Q 89.37 213.77 87.94 212.92
  Z"
/>
<path fill="#c80d14" d="
  M 125.71 203.75
  L 125.68 235.79
  A 0.62 0.61 -2.6 0 0 126.35 236.40
  Q 131.09 235.92 136.60 236.50
  Q 133.88 238.37 130.64 238.05
  C 127.81 237.76 124.17 238.45 124.00 234.00
  Q 123.54 222.11 124.23 204.51
  A 1.22 0.81 79.6 0 1 124.60 203.65
  Q 125.16 203.22 125.71 203.75
  Z"
/>
<path fill="#c6080f" d="
  M 525.55 203.17
  C 527.59 203.87 526.54 207.99 526.71 210.25
  A 1.29 1.03 -30.9 0 1 526.39 211.10
  L 525.05 212.60
  A 1.21 0.97 -65.8 0 1 524.25 213.01
  Q 514.17 213.24 504.10 213.01
  C 503.50 213.00 501.44 212.63 501.77 213.56
  A 0.97 0.72 -1.4 0 0 502.49 214.07
  Q 506.79 214.72 502.00 215.96
  Q 499.36 216.71 499.58 214.42
  C 499.86 211.43 499.12 211.49 502.43 211.50
  Q 513.68 211.54 524.93 211.44
  A 0.52 0.51 0.6 0 0 525.45 210.94
  L 525.55 203.17
  Z"
/>
<path fill="#c80d14" d="
  M 438.19 213.74
  Q 443.75 221.29 442.18 229.97
  C 440.22 240.82 423.26 237.97 414.00 238.00
  C 406.29 238.02 398.29 236.71 398.83 226.75
  Q 398.90 225.40 400.21 225.50
  C 399.87 235.79 404.71 236.58 413.56 236.54
  C 421.56 236.50 428.89 236.73 433.75 236.25
  C 444.54 235.18 444.54 215.25 431.50 215.50
  Q 422.55 215.67 413.64 214.88
  C 411.24 214.67 409.47 212.81 411.91 210.86
  A 1.52 1.28 21.7 0 1 412.81 210.56
  Q 419.66 210.54 426.50 210.31
  Q 429.02 210.23 429.96 213.15
  A 0.75 0.65 -6.8 0 0 430.64 213.61
  L 438.19 213.74
  Z"
/>
<path fill="#ca1a21" d="
  M 40.79 215.25
  Q 41.12 216.90 39.50 216.96
  L 29.75 217.00
  A 0.65 0.64 5.7 0 0 29.13 217.50
  Q 28.52 220.34 28.98 223.20
  A 0.67 0.66 -1.1 0 0 29.56 223.75
  Q 34.43 224.34 39.32 223.88
  Q 41.11 223.72 40.45 225.64
  A 2.60 2.59 4.1 0 1 38.47 227.35
  Q 31.76 228.59 24.60 227.69
  C 18.33 226.91 18.89 218.54 20.37 213.90
  Q 20.97 212.05 22.90 211.80
  Q 30.88 210.76 38.50 211.75
  Q 40.75 212.04 40.79 215.25
  Z"
/>
<path fill="#c80d14" d="
  M 202.68 212.37
  Q 204.17 213.09 204.51 214.71
  C 205.27 218.25 206.22 226.88 201.00 227.50
  Q 193.13 228.43 185.46 227.52
  Q 182.70 227.20 182.00 224.51
  Q 180.51 218.80 182.38 213.79
  Q 183.06 211.98 184.99 211.75
  C 189.40 211.24 198.72 210.48 202.68 212.37
  Z
  M 200.46 213.25
  Q 193.42 212.06 185.23 213.25
  Q 183.13 213.56 183.06 215.68
  C 182.94 219.08 181.59 225.82 186.68 225.97
  Q 193.34 226.17 200.45 225.99
  Q 202.44 225.94 202.92 224.01
  Q 203.57 221.40 203.11 216.11
  Q 202.89 213.66 200.46 213.25
  Z"
/>
<path fill="#c6080f" d="
  M 87.94 212.92
  Q 89.37 213.77 89.59 215.43
  C 90.10 219.42 91.39 227.26 84.94 227.69
  Q 79.28 228.06 67.94 227.58
  A 0.52 0.51 -89.4 0 1 67.45 227.07
  L 67.32 211.92
  A 0.41 0.40 -89.4 0 1 67.74 211.50
  C 72.75 211.76 84.08 210.60 87.94 212.92
  Z
  M 86.85 214.09
  C 82.65 211.95 73.86 212.93 69.51 213.25
  A 0.55 0.55 -88.7 0 0 69.00 213.74
  Q 68.41 219.63 68.93 224.83
  A 1.27 1.23 86.7 0 0 70.17 225.97
  L 86.74 225.76
  A 1.32 1.26 -86.0 0 0 87.98 224.63
  Q 88.72 219.49 87.83 215.35
  A 1.87 1.86 7.3 0 0 86.85 214.09
  Z"
/>
<path fill="#cc2229" d="
  M 153.72 212.24
  Q 156.11 214.15 154.71 217.57
  A 2.31 2.27 -78.6 0 1 152.60 219.00
  L 136.95 219.06
  A 0.56 0.51 -1.1 0 1 136.38 218.56
  L 136.30 212.43
  A 0.67 0.66 0.4 0 1 136.98 211.77
  L 152.80 211.92
  A 1.50 1.39 -23.6 0 1 153.72 212.24
  Z"
/>
<path fill="#cc2229" d="
  M 200.46 213.25
  Q 202.89 213.66 203.11 216.11
  Q 203.57 221.40 202.92 224.01
  Q 202.44 225.94 200.45 225.99
  Q 193.34 226.17 186.68 225.97
  C 181.59 225.82 182.94 219.08 183.06 215.68
  Q 183.13 213.56 185.23 213.25
  Q 193.42 212.06 200.46 213.25
  Z"
/>
<path fill="#cc2229" d="
  M 86.85 214.09
  A 1.87 1.86 7.3 0 1 87.83 215.35
  Q 88.72 219.49 87.98 224.63
  A 1.32 1.26 -86.0 0 1 86.74 225.76
  L 70.17 225.97
  A 1.27 1.23 86.7 0 1 68.93 224.83
  Q 68.41 219.63 69.00 213.74
  A 0.55 0.55 -88.7 0 1 69.51 213.25
  C 73.86 212.93 82.65 211.95 86.85 214.09
  Z"
/>
<path fill="#c80d14" d="
  M 554.79 236.00
  Q 553.54 236.57 552.69 235.06
  Q 548.91 228.35 544.97 221.53
  Q 544.28 220.33 544.23 221.68
  L 543.73 234.26
  A 0.78 0.55 86.7 0 1 543.29 234.96
  Q 542.82 235.07 542.29 234.75
  L 541.96 213.81
  Q 541.95 213.32 542.19 213.75
  L 554.79 236.00
  Z"
/>
<path fill="#c80d14" d="
  M 263.89 235.66
  C 262.40 237.10 262.24 234.69 262.31 233.83
  Q 262.76 228.18 262.08 223.11
  Q 261.81 221.06 260.66 222.78
  Q 256.52 229.04 253.30 235.11
  C 251.40 238.71 247.73 237.92 244.30 237.72
  A 1.05 1.02 73.6 0 1 243.52 237.28
  Q 237.74 229.18 234.19 221.56
  Q 233.96 221.07 233.56 221.00
  A 0.57 0.46 -86.0 0 0 233.03 221.57
  L 232.73 234.60
  Q 232.66 237.76 229.83 237.71
  L 224.30 237.62
  Q 223.75 237.61 223.34 237.75
  Q 221.39 238.39 221.54 236.25
  L 230.94 236.25
  A 0.56 0.54 -0.5 0 0 231.50 235.70
  L 231.21 214.88
  Q 231.19 213.50 231.87 214.69
  L 243.81 235.75
  A 0.92 0.88 74.9 0 0 244.57 236.21
  L 250.51 236.25
  A 0.90 0.88 -74.7 0 0 251.28 235.80
  L 263.82 213.99
  Q 264.06 213.57 264.09 214.07
  Q 264.57 224.67 263.89 235.66
  Z"
/>
<rect fill="#ffffff" x="105.75" y="219.74" width="15.30" height="8.76" rx="0.26"/>
<path fill="#c80d14" d="
  M 523.50 223.29
  Q 523.65 224.07 523.43 224.78
  A 0.70 0.64 8.2 0 1 522.76 225.24
  Q 513.28 224.95 503.80 224.82
  C 503.18 224.81 502.57 225.01 502.65 225.71
  A 0.60 0.48 -6.8 0 0 503.31 226.12
  Q 514.03 224.57 524.75 226.17
  A 0.84 0.73 83.6 0 1 525.36 226.73
  Q 525.64 227.58 526.46 227.92
  A 0.80 0.67 12.8 0 1 526.95 228.56
  C 527.01 231.64 528.29 238.24 522.81 237.89
  C 517.59 237.55 512.30 237.84 507.07 237.93
  A 1.20 0.66 -9.8 0 1 506.18 237.62
  Q 505.79 237.09 506.50 236.29
  L 525.06 236.08
  A 0.56 0.52 -0.0 0 0 525.61 235.57
  L 525.71 228.54
  A 0.83 0.78 0.3 0 0 524.88 227.75
  L 500.41 227.75
  A 0.56 0.51 -0.0 0 1 499.85 227.24
  L 499.85 223.92
  A 0.59 0.48 -0.5 0 1 500.44 223.43
  L 523.50 223.29
  Z"
/>
</svg>
