<?xml version="1.0" encoding="UTF-8" standalone="no"?>
<!DOCTYPE svg PUBLIC "-//W3C//DTD SVG 1.1//EN" "http://www.w3.org/Graphics/SVG/1.1/DTD/svg11.dtd">
<svg xmlns="http://www.w3.org/2000/svg" version="1.1" viewBox="0.00 0.00 600.00 300.00">
<path fill="#000000" d="
  M 407.52 117.32
  C 408.87 111.25 406.84 110.17 403.18 106.26
  Q 402.52 105.57 403.47 105.64
  Q 404.67 105.73 405.80 106.24
  A 0.60 0.54 -32.0 0 0 406.08 106.29
  Q 428.41 106.13 450.75 105.98
  Q 457.90 105.93 461.12 111.97
  A 1.59 1.57 -55.5 0 1 461.29 112.93
  Q 460.12 121.88 457.89 130.54
  Q 456.95 134.20 453.27 135.25
  A 0.87 0.86 48.5 0 0 453.17 136.88
  C 456.88 138.44 457.28 141.57 456.60 145.37
  C 455.53 151.29 454.12 162.67 449.90 167.05
  A 1.29 1.28 -70.4 0 1 449.07 167.45
  C 431.92 168.90 414.53 168.20 397.44 168.43
  Q 395.55 168.46 396.00 166.62
  Q 401.98 142.19 407.52 117.32
  Z
  M 430.24 115.12
  A 1.27 1.27 0.0 0 0 428.92 116.14
  L 426.26 129.27
  A 1.27 1.27 0.0 0 0 427.53 130.79
  L 436.30 130.59
  A 1.27 1.27 0.0 0 0 437.50 129.64
  L 440.73 117.23
  A 1.27 1.27 0.0 0 0 439.57 115.64
  L 430.24 115.12
  Z
  M 424.40 140.31
  A 1.15 1.15 0.0 0 0 423.25 141.22
  L 419.88 157.14
  A 1.15 1.15 0.0 0 0 421.02 158.53
  L 431.38 158.36
  A 1.15 1.15 0.0 0 0 432.47 157.51
  L 436.60 142.00
  A 1.15 1.15 0.0 0 0 435.52 140.56
  L 424.40 140.31
  Z"
/>
<path fill="#000000" d="
  M 537.78 140.94
  Q 534.40 126.23 530.93 111.55
  C 530.39 109.30 529.08 107.79 527.59 106.20
  A 0.37 0.37 0.0 0 1 527.89 105.58
  Q 534.67 106.09 541.55 105.67
  C 545.47 105.43 545.37 108.65 545.98 111.47
  Q 547.98 120.77 550.07 129.78
  A 0.75 0.75 0.0 0 0 551.42 130.03
  Q 557.64 120.78 563.44 112.17
  Q 565.22 109.53 563.79 106.47
  Q 563.49 105.84 564.19 105.83
  L 591.23 105.53
  A 0.36 0.36 0.0 0 1 591.51 106.11
  C 581.18 119.31 572.07 133.70 562.53 147.49
  C 558.76 152.95 557.33 160.25 555.68 166.61
  A 1.47 1.46 6.8 0 1 554.29 167.70
  L 531.82 167.94
  A 0.72 0.72 0.0 0 1 531.13 167.00
  Q 534.65 156.23 537.70 145.05
  Q 538.25 143.01 537.78 140.94
  Z"
/>
<path fill="#000000" d="
  M 214.70 106.44
  C 228.65 106.42 243.19 106.95 257.04 105.77
  Q 258.72 105.63 258.28 107.26
  L 255.40 118.06
  Q 255.29 118.48 254.90 118.65
  Q 253.04 119.50 250.99 119.38
  Q 239.62 118.70 228.43 119.21
  A 1.47 1.46 -84.8 0 0 227.07 120.35
  L 219.91 151.44
  Q 219.78 152.00 220.02 152.51
  C 221.76 156.24 225.47 156.05 227.76 152.99
  C 230.30 149.62 230.85 144.69 231.83 140.67
  C 232.64 137.32 231.92 133.95 233.82 130.27
  Q 234.02 129.89 234.44 129.89
  L 252.77 129.84
  Q 253.37 129.84 253.22 130.42
  Q 248.02 150.94 246.51 158.47
  C 244.81 166.93 240.01 168.57 231.78 168.49
  Q 220.83 168.39 209.95 168.71
  C 200.13 169.00 194.50 166.08 196.98 155.14
  Q 201.75 134.06 206.48 112.99
  C 207.11 110.15 209.57 105.95 212.93 106.28
  Q 214.63 106.44 214.70 106.44
  Z"
/>
<path fill="#000000" d="
  M 345.98 143.23
  Q 343.61 153.80 341.07 164.78
  Q 340.83 165.79 341.92 167.83
  A 0.42 0.42 0.0 0 1 341.55 168.45
  L 321.14 168.62
  A 3.00 3.00 0.0 0 1 318.20 164.94
  Q 323.70 141.64 328.76 119.27
  C 330.04 113.58 329.91 110.14 324.92 107.01
  A 0.63 0.62 -25.9 0 1 325.32 105.86
  Q 325.52 105.88 325.96 106.10
  Q 326.26 106.25 326.58 106.25
  Q 350.88 106.24 375.19 106.26
  Q 376.08 106.26 378.52 107.68
  C 385.44 111.68 381.73 120.87 380.26 126.84
  C 378.39 134.43 378.09 140.29 368.95 138.61
  A 0.66 0.66 0.0 0 0 368.23 139.55
  L 375.22 154.14
  Q 375.50 154.72 376.15 154.73
  L 378.21 154.76
  A 0.62 0.61 4.9 0 1 378.81 155.47
  L 376.95 167.76
  Q 376.85 168.37 376.23 168.38
  L 361.31 168.59
  Q 358.45 168.62 357.31 166.01
  L 347.29 143.10
  A 0.69 0.69 0.0 0 0 345.98 143.23
  Z
  M 352.82 114.99
  A 0.94 0.94 0.0 0 0 351.88 115.73
  L 348.68 130.51
  A 0.94 0.94 0.0 0 0 349.63 131.65
  L 358.68 131.37
  A 0.94 0.94 0.0 0 0 359.56 130.67
  L 363.32 116.43
  A 0.94 0.94 0.0 0 0 362.43 115.25
  L 352.82 114.99
  Z"
/>
<path fill="#000000" d="
  M 470.34 118.17
  C 472.04 110.82 476.03 106.22 483.98 106.12
  Q 498.20 105.95 512.57 105.95
  C 521.20 105.94 525.24 113.56 523.60 121.59
  Q 521.75 130.62 516.06 154.55
  C 513.40 165.72 510.03 167.81 498.69 168.04
  C 492.90 168.15 469.87 169.78 465.97 167.11
  C 459.66 162.81 461.46 157.83 463.08 150.45
  Q 466.61 134.28 470.34 118.17
  Z
  M 492.35 120.37
  Q 490.92 122.34 490.09 125.82
  Q 487.00 138.75 484.45 151.79
  Q 484.21 153.02 485.46 154.06
  C 490.63 158.31 493.65 150.86 494.48 147.24
  Q 497.71 133.31 500.13 123.98
  C 501.51 118.66 495.60 115.90 492.35 120.37
  Z"
/>
<path fill="#000000" d="
  M 42.43 169.14
  C 49.92 167.46 62.60 171.65 68.12 165.57
  A 0.50 0.50 0.0 0 1 68.97 166.07
  Q 66.10 174.47 63.51 183.19
  C 62.24 187.49 60.08 189.37 55.68 189.40
  Q 36.10 189.58 16.50 189.31
  C 6.77 189.18 -0.75 180.55 1.97 170.95
  Q 2.92 167.60 2.94 167.54
  Q 8.54 142.78 13.99 118.00
  Q 16.25 107.69 27.01 106.25
  C 28.09 106.10 30.10 106.73 31.42 106.73
  Q 51.87 106.77 73.73 106.71
  A 0.23 0.23 0.0 0 1 73.94 107.04
  Q 71.14 113.22 69.35 119.83
  Q 68.27 123.78 64.51 123.62
  Q 56.49 123.26 48.81 123.91
  A 3.23 3.22 -86.1 0 0 45.92 126.44
  Q 42.07 143.94 37.49 161.49
  Q 36.04 167.03 41.49 169.07
  Q 41.95 169.24 42.43 169.14
  Z"
/>
<path fill="#000000" d="
  M 174.69 168.43
  C 164.67 168.80 154.69 168.62 144.68 168.43
  C 137.98 168.29 135.08 159.64 136.36 154.08
  Q 140.54 135.88 144.69 117.69
  Q 145.54 113.97 144.11 110.57
  A 1.41 1.37 -81.7 0 0 143.72 110.03
  L 141.16 107.82
  Q 140.41 107.17 141.41 107.17
  Q 153.37 107.15 165.23 106.83
  Q 168.65 106.73 169.41 110.10
  Q 169.51 110.57 169.32 111.02
  Q 168.69 112.44 168.37 113.92
  Q 164.13 133.09 159.73 152.22
  A 1.16 1.14 -56.5 0 0 159.91 153.15
  C 162.75 157.14 166.84 154.33 167.82 150.76
  Q 170.03 142.70 176.06 117.84
  C 177.20 113.15 177.44 109.35 172.57 107.37
  A 0.47 0.47 0.0 0 1 172.75 106.47
  Q 183.15 106.52 193.42 106.51
  C 196.79 106.50 199.51 108.08 198.73 111.78
  Q 193.17 138.25 188.36 157.57
  C 186.64 164.48 181.78 168.17 174.69 168.43
  Z"
/>
<path fill="#000000" d="
  M 274.54 154.38
  C 273.18 157.37 268.55 165.03 271.06 167.90
  A 0.37 0.37 0.0 0 1 270.78 168.52
  L 251.19 168.58
  Q 250.51 168.58 250.65 167.91
  Q 251.34 164.66 252.42 162.46
  Q 262.05 142.92 277.81 112.39
  C 278.75 110.57 279.11 108.85 279.28 106.88
  Q 279.34 106.25 279.97 106.25
  L 306.38 106.25
  A 0.95 0.95 0.0 0 1 307.33 107.14
  L 311.65 168.19
  A 0.22 0.22 0.0 0 1 311.43 168.43
  L 292.08 168.67
  A 2.19 2.18 -1.8 0 1 289.86 166.59
  L 289.30 154.62
  A 0.62 0.61 -1.0 0 0 288.68 154.03
  L 275.24 153.94
  A 0.78 0.77 12.7 0 0 274.54 154.38
  Z
  M 287.49 125.50
  L 279.90 142.18
  A 0.72 0.72 0.0 0 0 280.52 143.19
  C 282.95 143.33 289.20 144.92 288.75 140.51
  Q 287.98 133.01 288.41 125.73
  A 0.48 0.48 0.0 0 0 287.49 125.50
  Z"
/>
<path fill="#000000" d="
  M 131.32 108.93
  C 136.22 113.35 136.06 117.95 134.61 124.51
  Q 131.38 139.18 127.95 153.81
  C 125.72 163.33 123.44 168.54 113.06 168.61
  Q 88.44 168.77 79.26 168.43
  A 1.62 1.61 -26.2 0 1 78.34 168.12
  C 72.97 164.33 72.66 160.12 74.12 153.69
  Q 78.22 135.68 82.43 117.74
  C 84.89 107.27 91.80 106.54 101.85 106.51
  Q 114.28 106.47 126.68 106.53
  Q 128.66 106.55 131.32 108.93
  Z
  M 112.46 121.02
  C 108.34 115.31 104.07 121.16 103.06 125.19
  Q 100.00 137.45 97.35 149.82
  C 96.67 153.04 97.47 155.40 100.74 156.24
  Q 101.25 156.37 101.71 156.11
  C 108.37 152.24 109.91 136.38 111.35 129.29
  C 111.78 127.17 113.97 123.12 112.46 121.02
  Z"
/>
</svg>
