<?xml version="1.0" encoding="UTF-8" standalone="no"?>
<!DOCTYPE svg PUBLIC "-//W3C//DTD SVG 1.1//EN" "http://www.w3.org/Graphics/SVG/1.1/DTD/svg11.dtd">
<svg xmlns="http://www.w3.org/2000/svg" version="1.1" viewBox="0 0 600 300">
<g stroke-width="2.00" fill="none" stroke-linecap="butt">
<path stroke="#1e2c79" vector-effect="non-scaling-stroke" d="
  M 510.67 241.82
  Q 507.33 243.78 503.00 243.50
  Q 494.34 242.95 477.17 243.21
  C 474.35 243.25 470.77 243.88 467.51 243.76
  Q 461.57 243.52 461.48 243.52
  Q 425.24 243.77 389.00 244.50
  Q 385.65 244.57 382.04 241.75"
/>
<path stroke="#1e2c79" vector-effect="non-scaling-stroke" d="
  M 375.96 241.75
  C 370.39 246.20 356.86 245.13 349.75 244.75
  C 344.96 244.49 339.79 244.92 334.75 244.53
  Q 327.64 244.00 320.54 244.23
  C 292.59 245.17 267.01 244.14 243.66 243.99
  Q 224.31 243.86 204.97 243.53
  C 200.18 243.45 196.93 243.84 192.50 241.54"
/>
<path stroke="#1e2c79" vector-effect="non-scaling-stroke" d="
  M 188.25 241.54
  Q 184.92 243.78 182.00 243.75
  C 169.40 243.61 156.65 244.27 144.33 243.94
  Q 124.25 243.40 102.00 243.75
  Q 97.53 243.82 93.50 241.72"
/>
<path stroke="#18185b" vector-effect="non-scaling-stroke" d="
  M 529.98 257.12
  Q 520.58 256.64 511.19 256.71
  Q 491.97 256.85 471.32 257.28
  A 1.21 1.21 2.7 0 0 470.14 258.35
  Q 470.01 259.55 469.04 258.00"
/>
<path stroke="#8b88a8" vector-effect="non-scaling-stroke" d="
  M 469.04 258.00
  C 465.23 244.07 448.98 245.20 443.84 257.81"
/>
<path stroke="#191b62" vector-effect="non-scaling-stroke" d="
  M 443.84 257.81
  C 442.12 255.19 436.42 255.78 433.56 255.81
  A 1.04 0.84 13.8 0 0 432.75 256.19
  Q 432.37 256.75 432.29 257.50"
/>
<path stroke="#8b88a8" vector-effect="non-scaling-stroke" d="
  M 432.29 257.50
  L 432.20 249.81
  A 0.70 0.69 -82.8 0 0 431.70 249.15
  Q 430.23 248.73 428.73 249.11
  A 0.68 0.62 83.5 0 0 428.26 249.76
  L 428.21 254.25"
/>
<path stroke="#18185b" vector-effect="non-scaling-stroke" d="
  M 428.21 254.25
  Q 421.46 253.35 414.79 254.75"
/>
<path stroke="#8b88a8" vector-effect="non-scaling-stroke" d="
  M 414.79 254.75
  L 412.04 249.63
  A 0.98 0.69 71.6 0 0 411.32 249.10
  L 407.79 249.09
  A 0.60 0.54 -90.0 0 0 407.25 249.69
  L 407.21 258.00"
/>
<path stroke="#191a5f" vector-effect="non-scaling-stroke" d="
  M 407.21 258.00
  L 397.56 258.14
  A 0.67 0.54 -4.6 0 1 396.92 257.71
  L 396.29 255.00"
/>
<path stroke="#8b88a8" vector-effect="non-scaling-stroke" d="
  M 396.29 255.00
  Q 396.24 252.39 396.50 251.25
  C 397.29 247.76 392.20 248.57 392.04 250.00"
/>
<path stroke="#18165a" vector-effect="non-scaling-stroke" d="
  M 392.04 250.00
  L 391.95 254.19
  A 0.38 0.38 8.9 0 1 391.46 254.54
  Q 389.45 254.00 386.50 254.00
  Q 371.69 254.01 365.26 254.23
  A 0.65 0.62 -8.4 0 1 364.61 253.77
  L 364.27 252.52"
/>
<path stroke="#8b88a8" vector-effect="non-scaling-stroke" d="
  M 364.27 252.52
  Q 365.59 249.14 361.51 248.95
  A 1.42 1.38 1.2 0 0 360.03 250.33
  L 360.02 260.03"
/>
<path stroke="#191b62" vector-effect="non-scaling-stroke" d="
  M 360.02 260.03
  Q 353.82 260.99 345.69 260.94
  Q 344.16 260.93 343.79 262.50"
/>
<path stroke="#8b88a8" vector-effect="non-scaling-stroke" d="
  M 343.79 262.50
  L 343.75 249.88
  A 0.89 0.85 89.7 0 0 342.89 248.99
  L 339.81 249.04
  A 0.54 0.51 -89.4 0 0 339.30 249.57
  L 339.21 257.75"
/>
<path stroke="#18185b" vector-effect="non-scaling-stroke" d="
  M 339.21 257.75
  Q 334.01 256.03 328.79 257.75"
/>
<path stroke="#8b88a8" vector-effect="non-scaling-stroke" d="
  M 328.79 257.75
  C 327.25 246.06 312.25 244.54 306.89 254.49"
/>
<path stroke="#18165a" vector-effect="non-scaling-stroke" d="
  M 306.89 254.49
  L 298.04 253.87"
/>
<path stroke="#8b88a8" vector-effect="non-scaling-stroke" d="
  M 298.04 253.87
  L 298.00 249.58
  A 0.58 0.56 -90.0 0 0 297.44 249.00
  L 273.52 249.00
  A 0.52 0.52 90.0 0 0 273.00 249.52
  C 273.00 250.81 272.29 254.53 274.25 254.04"
/>
<path stroke="#171557" vector-effect="non-scaling-stroke" d="
  M 274.25 254.04
  C 271.67 254.50 270.12 254.92 267.22 254.88
  Q 263.86 254.83 260.79 256.25"
/>
<path stroke="#8b88a8" vector-effect="non-scaling-stroke" d="
  M 260.79 256.25
  L 258.60 249.78
  A 0.96 0.92 87.9 0 0 257.96 249.16
  Q 256.35 248.72 254.73 249.12
  A 0.92 0.87 -86.7 0 0 254.08 249.73
  L 249.20 264.82"
/>
<path stroke="#191d64" vector-effect="non-scaling-stroke" d="
  M 249.20 264.82
  Q 243.62 265.16 238.00 265.02
  C 236.46 264.98 235.17 265.68 234.29 263.75"
/>
<path stroke="#8b88a8" vector-effect="non-scaling-stroke" d="
  M 234.29 263.75
  L 234.47 249.77
  A 0.77 0.72 -90.0 0 0 233.74 248.99
  L 230.56 249.04
  A 0.54 0.53 -89.4 0 0 230.03 249.57
  L 230.01 253.60"
/>
<path stroke="#18165a" vector-effect="non-scaling-stroke" d="
  M 230.01 253.60
  L 213.79 254.00"
/>
<path stroke="#8b88a8" vector-effect="non-scaling-stroke" d="
  M 213.79 254.00
  L 213.76 249.52
  A 0.53 0.51 89.4 0 0 213.25 249.00
  L 210.01 249.00
  A 0.51 0.51 0.0 0 0 209.50 249.51
  L 209.51 260.58"
/>
<path stroke="#191a5f" vector-effect="non-scaling-stroke" d="
  M 209.51 260.58
  Q 204.46 258.92 199.24 260.13
  A 0.64 0.56 -17.1 0 1 198.52 259.81
  L 198.29 259.25"
/>
<path stroke="#8b88a8" vector-effect="non-scaling-stroke" d="
  M 198.29 259.25
  L 198.40 249.82
  A 0.72 0.61 -82.0 0 0 197.97 249.14
  C 197.04 248.85 193.98 248.45 194.04 250.00"
/>
<path stroke="#18165a" vector-effect="non-scaling-stroke" d="
  M 194.04 250.00
  L 194.01 254.49
  A 0.31 0.30 -75.4 0 1 193.56 254.76
  C 189.88 252.79 178.60 254.04 174.29 254.75"
/>
<path stroke="#8b88a8" vector-effect="non-scaling-stroke" d="
  M 174.29 254.75
  L 172.50 249.58
  A 0.77 0.68 79.1 0 0 171.82 249.05
  L 168.67 249.10
  A 0.83 0.61 -78.1 0 0 168.03 249.67
  L 166.21 255.15"
/>
<path stroke="#18165a" vector-effect="non-scaling-stroke" d="
  M 166.21 255.15
  Q 159.93 253.27 153.25 253.97
  Q 150.53 254.25 147.96 253.50"
/>
<path stroke="#8b88a8" vector-effect="non-scaling-stroke" d="
  M 147.96 253.50
  L 151.01 249.98
  A 0.52 0.50 -63.1 0 0 150.75 249.13
  Q 148.51 248.68 146.05 249.20
  A 1.56 1.32 -72.5 0 0 145.24 249.71
  L 130.88 267.06
  Q 130.56 267.45 130.56 266.94
  L 130.50 249.88
  A 0.88 0.87 -90.0 0 0 129.63 249.00
  L 126.78 249.00
  A 0.54 0.54 0.2 0 0 126.24 249.54
  L 126.22 254.52"
/>
<path stroke="#171557" vector-effect="non-scaling-stroke" d="
  M 126.22 254.52
  C 110.63 254.74 95.05 254.45 79.47 254.62
  Q 74.24 254.69 69.01 254.23"
/>
<path stroke="#8c8fb2" vector-effect="non-scaling-stroke" d="
  M 414.79 254.75
  L 427.79 279.02
  Q 428.25 279.86 428.25 278.90
  L 428.21 254.25"
/>
<path stroke="#8e92b9" vector-effect="non-scaling-stroke" d="
  M 432.29 257.50
  L 432.29 277.25"
/>
<path stroke="#919ecc" vector-effect="non-scaling-stroke" d="
  M 432.29 277.25
  L 432.09 287.32
  A 0.60 0.51 -89.4 0 1 431.58 287.91
  L 428.18 287.91
  A 1.00 0.65 70.5 0 1 427.47 287.36
  L 423.25 279.46"
/>
<path stroke="#8f97c1" vector-effect="non-scaling-stroke" d="
  M 423.25 279.46
  L 411.90 258.38
  Q 411.50 257.64 411.50 258.48
  L 411.54 279.75"
/>
<path stroke="#919ecc" vector-effect="non-scaling-stroke" d="
  M 411.54 279.75
  L 411.50 287.25
  A 0.68 0.64 83.9 0 1 411.02 287.89
  Q 409.39 288.28 407.78 287.84
  A 0.68 0.64 -82.8 0 1 407.31 287.19
  L 407.21 270.00"
/>
<path stroke="#8d91b6" vector-effect="non-scaling-stroke" d="
  M 407.21 270.00
  L 407.21 258.00"
/>
<path stroke="#8c8db1" vector-effect="non-scaling-stroke" d="
  M 147.96 253.50
  Q 143.45 258.72 138.94 263.94
  Q 137.89 265.15 139.52 266.49"
/>
<path stroke="#8e96be" vector-effect="non-scaling-stroke" d="
  M 139.52 266.49
  L 145.54 276.50"
/>
<path stroke="#919ecc" vector-effect="non-scaling-stroke" d="
  M 145.54 276.50
  L 152.00 287.32
  Q 152.31 287.84 151.76 287.84
  L 147.19 287.90
  A 1.01 0.75 71.4 0 1 146.44 287.38
  L 135.73 268.76
  A 0.38 0.37 51.1 0 0 135.13 268.69
  L 130.89 273.43
  A 1.35 1.29 66.8 0 0 130.56 274.31
  L 130.44 287.19
  A 0.67 0.47 -89.6 0 1 129.96 287.86
  L 126.76 287.78
  A 0.64 0.53 -89.6 0 1 126.24 287.14
  L 126.21 283.25"
/>
<path stroke="#909bc6" vector-effect="non-scaling-stroke" d="
  M 126.21 283.25
  L 126.23 273.78"
/>
<path stroke="#8e92b9" vector-effect="non-scaling-stroke" d="
  M 126.23 273.78
  L 126.21 260.25"
/>
<path stroke="#8c8cae" vector-effect="non-scaling-stroke" d="
  M 126.21 260.25
  L 126.22 254.52"
/>
<path stroke="#8c8db1" vector-effect="non-scaling-stroke" d="
  M 298.04 253.87
  L 288.33 253.99
  A 0.58 0.56 0.0 0 0 287.75 254.55
  L 287.79 264.75"
/>
<path stroke="#8f97c1" vector-effect="non-scaling-stroke" d="
  M 287.79 264.75
  L 287.79 280.75"
/>
<path stroke="#919ecc" vector-effect="non-scaling-stroke" d="
  M 287.79 280.75
  L 287.76 287.27
  A 0.68 0.60 -89.1 0 1 287.15 287.94
  L 283.92 287.90
  A 0.60 0.51 89.4 0 1 283.41 287.31
  L 283.21 278.00"
/>
<path stroke="#8e94bb" vector-effect="non-scaling-stroke" d="
  M 283.21 278.00
  L 283.21 261.00"
/>
<path stroke="#8c8cae" vector-effect="non-scaling-stroke" d="
  M 283.21 261.00
  L 283.25 254.52
  A 0.52 0.52 90.0 0 0 282.73 254.00
  L 274.25 254.04"
/>
<path stroke="#1f3186" vector-effect="non-scaling-stroke" d="
  M 443.36 277.28
  L 432.29 277.25"
/>
<path stroke="#1a206a" vector-effect="non-scaling-stroke" d="
  M 283.21 261.00
  L 262.30 260.71"
/>
<path stroke="#1b2470" vector-effect="non-scaling-stroke" d="
  M 194.22 265.56
  Q 186.21 265.40 178.29 266.50"
/>
<path stroke="#1b2571" vector-effect="non-scaling-stroke" d="
  M 339.21 266.50
  Q 332.11 265.59 325.76 267.94"
/>
<path stroke="#1b2470" vector-effect="non-scaling-stroke" d="
  M 392.23 265.47
  L 364.25 266.27"
/>
<path stroke="#1f3083" vector-effect="non-scaling-stroke" d="
  M 407.21 270.00
  C 403.65 270.43 398.31 269.26 396.29 271.25"
/>
<path stroke="#1c2573" vector-effect="non-scaling-stroke" d="
  M 307.25 263.96
  L 287.79 264.75"
/>
<path stroke="#1e2b7b" vector-effect="non-scaling-stroke" d="
  M 209.46 270.00
  Q 204.35 270.17 199.25 270.25
  Q 198.31 270.26 198.29 269.25"
/>
<path stroke="#8c8db1" vector-effect="non-scaling-stroke" d="
  M 174.29 254.75
  L 178.29 266.50"
/>
<path stroke="#8e96be" vector-effect="non-scaling-stroke" d="
  M 178.29 266.50
  L 181.79 277.00"
/>
<path stroke="#919ecc" vector-effect="non-scaling-stroke" d="
  M 181.79 277.00
  L 185.34 287.28
  A 0.46 0.38 78.7 0 1 185.01 287.88
  L 181.46 287.83
  A 1.61 1.30 79.8 0 1 180.17 286.71
  L 176.98 276.67
  A 0.74 0.69 80.9 0 0 176.31 276.15
  L 164.45 276.15
  A 0.74 0.67 -80.7 0 0 163.79 276.67
  L 160.46 287.34
  A 0.84 0.82 -86.3 0 1 159.82 287.92
  Q 158.05 288.25 156.30 287.82
  A 0.47 0.47 15.6 0 1 155.96 287.22
  L 159.46 276.25"
/>
<path stroke="#8e96be" vector-effect="non-scaling-stroke" d="
  M 159.46 276.25
  L 162.39 266.62"
/>
<path stroke="#8c8db1" vector-effect="non-scaling-stroke" d="
  M 162.39 266.62
  L 166.21 255.15"
/>
<path stroke="#1a1f67" vector-effect="non-scaling-stroke" d="
  M 126.21 260.25
  Q 100.48 260.25 74.75 260.25
  Q 74.64 260.25 72.77 260.41
  Q 70.54 260.59 68.98 259.08"
/>
<path stroke="#8c8db1" vector-effect="non-scaling-stroke" d="
  M 213.79 254.00
  L 213.75 264.49
  A 0.52 0.51 0.0 0 0 214.27 265.00
  L 229.33 265.00
  A 0.67 0.67 90.0 0 0 230.00 264.33
  L 230.01 253.60"
/>
<path stroke="#8e94bb" vector-effect="non-scaling-stroke" d="
  M 234.29 263.75
  L 234.29 273.25"
/>
<path stroke="#9099c4" vector-effect="non-scaling-stroke" d="
  M 234.29 273.25
  L 234.29 281.25"
/>
<path stroke="#919ecc" vector-effect="non-scaling-stroke" d="
  M 234.29 281.25
  L 234.34 287.38
  A 0.60 0.56 -90.0 0 1 233.78 287.98
  L 230.57 287.97
  A 0.53 0.51 90.0 0 1 230.06 287.44
  L 229.96 275.75"
/>
<path stroke="#8f97c1" vector-effect="non-scaling-stroke" d="
  M 229.96 275.75
  L 229.87 270.69
  A 0.56 0.53 -0.5 0 0 229.31 270.17
  L 214.31 270.05
  A 0.51 0.50 -89.4 0 0 213.80 270.56
  L 213.76 276.28"
/>
<path stroke="#919ecc" vector-effect="non-scaling-stroke" d="
  M 213.76 276.28
  L 213.70 287.44
  A 0.54 0.52 -90.0 0 1 213.19 287.97
  L 210.02 287.99
  A 0.54 0.52 -90.0 0 1 209.50 287.45
  L 209.51 282.09"
/>
<path stroke="#9099c4" vector-effect="non-scaling-stroke" d="
  M 209.51 282.09
  L 209.46 270.00"
/>
<path stroke="#8d91b6" vector-effect="non-scaling-stroke" d="
  M 209.46 270.00
  L 209.51 260.58"
/>
<path stroke="#1b2470" vector-effect="non-scaling-stroke" d="
  M 162.39 266.62
  Q 151.01 264.59 139.52 266.49"
/>
<path stroke="#1b236e" vector-effect="non-scaling-stroke" d="
  M 529.96 266.50
  Q 524.97 266.08 510.81 266.06
  Q 478.85 266.02 446.89 266.26"
/>
<path stroke="#1e2c7e" vector-effect="non-scaling-stroke" d="
  M 359.96 270.75
  L 343.78 270.87"
/>
<path stroke="#8e92b9" vector-effect="non-scaling-stroke" d="
  M 343.79 262.50
  L 343.78 270.87"
/>
<path stroke="#9099c4" vector-effect="non-scaling-stroke" d="
  M 343.78 270.87
  Q 343.48 275.34 344.25 278.00
  C 346.74 286.56 358.53 286.16 359.50 276.75
  Q 360.02 271.70 359.96 270.75"
/>
<path stroke="#8e92b9" vector-effect="non-scaling-stroke" d="
  M 359.96 270.75
  L 360.02 260.03"
/>
<path stroke="#8c8db1" vector-effect="non-scaling-stroke" d="
  M 364.27 252.52
  L 364.25 266.27"
/>
<path stroke="#8e96be" vector-effect="non-scaling-stroke" d="
  M 364.25 266.27
  L 364.04 276.50"
/>
<path stroke="#909bc6" vector-effect="non-scaling-stroke" d="
  M 364.04 276.50
  L 363.25 281.21"
/>
<path stroke="#919ecc" vector-effect="non-scaling-stroke" d="
  M 363.25 281.21
  Q 358.69 291.60 347.75 288.50
  Q 341.35 286.69 339.96 279.50"
/>
<path stroke="#8e96be" vector-effect="non-scaling-stroke" d="
  M 339.96 279.50
  L 339.21 266.50"
/>
<path stroke="#8c8fb2" vector-effect="non-scaling-stroke" d="
  M 339.21 266.50
  L 339.21 257.75"
/>
<path stroke="#8d91b6" vector-effect="non-scaling-stroke" d="
  M 198.29 259.25
  L 198.29 269.25"
/>
<path stroke="#9099c4" vector-effect="non-scaling-stroke" d="
  M 198.29 269.25
  L 198.29 281.25"
/>
<path stroke="#919ecc" vector-effect="non-scaling-stroke" d="
  M 198.29 281.25
  L 198.26 287.14
  A 0.64 0.54 89.6 0 1 197.73 287.78
  L 194.54 287.86
  A 0.66 0.44 -89.8 0 1 194.09 287.19
  L 194.21 275.25"
/>
<path stroke="#8e96be" vector-effect="non-scaling-stroke" d="
  M 194.21 275.25
  L 194.22 265.56"
/>
<path stroke="#8c8db1" vector-effect="non-scaling-stroke" d="
  M 194.22 265.56
  L 194.04 250.00"
/>
<path stroke="#1e2e80" vector-effect="non-scaling-stroke" d="
  M 246.29 273.25
  Q 240.30 272.74 234.29 273.25"
/>
<path stroke="#8d91b6" vector-effect="non-scaling-stroke" d="
  M 396.29 255.00
  L 396.29 271.25"
/>
<path stroke="#919ecc" vector-effect="non-scaling-stroke" d="
  M 396.29 271.25
  L 396.25 287.15
  A 0.64 0.55 89.1 0 1 395.72 287.79
  L 392.54 287.86
  A 0.66 0.43 -89.8 0 1 392.10 287.19
  L 392.21 279.25"
/>
<path stroke="#909bc6" vector-effect="non-scaling-stroke" d="
  M 392.21 279.25
  L 392.21 275.25"
/>
<path stroke="#8e96be" vector-effect="non-scaling-stroke" d="
  M 392.21 275.25
  L 392.23 265.47"
/>
<path stroke="#8c8db1" vector-effect="non-scaling-stroke" d="
  M 392.23 265.47
  L 392.04 250.00"
/>
<path stroke="#8c8fb2" vector-effect="non-scaling-stroke" d="
  M 328.79 257.75
  L 328.99 259.44
  A 0.53 0.49 -2.2 0 1 328.44 259.99
  L 325.68 259.90
  A 0.74 0.60 83.7 0 1 325.09 259.32
  C 322.90 249.56 308.04 251.66 310.63 260.79
  Q 311.20 262.80 313.38 263.57
  L 325.76 267.94"
/>
<path stroke="#8e96be" vector-effect="non-scaling-stroke" d="
  M 325.76 267.94
  Q 331.14 272.81 329.79 279.75"
/>
<path stroke="#919ecc" vector-effect="non-scaling-stroke" d="
  M 329.79 279.75
  C 328.50 285.55 324.39 288.77 318.43 288.99
  Q 308.42 289.36 305.29 278.75"
/>
<path stroke="#8f97c1" vector-effect="non-scaling-stroke" d="
  M 305.29 278.75
  L 305.07 275.55
  A 0.50 0.49 -2.1 0 1 305.57 275.02
  L 307.93 275.05
  A 1.15 1.09 81.5 0 1 308.99 275.88
  C 314.40 294.09 334.87 277.34 322.03 272.02
  C 316.19 269.60 310.75 269.36 307.25 263.96"
/>
<path stroke="#8c8db1" vector-effect="non-scaling-stroke" d="
  M 307.25 263.96
  Q 305.35 259.30 306.89 254.49"
/>
<path stroke="#8c8fb2" vector-effect="non-scaling-stroke" d="
  M 469.04 258.00
  C 470.92 260.16 467.09 260.51 465.94 260.83
  A 0.69 0.68 -14.8 0 1 465.09 260.34
  Q 463.73 255.06 459.64 253.58
  C 451.61 250.66 446.38 259.16 446.89 266.26"
/>
<path stroke="#8e94bb" vector-effect="non-scaling-stroke" d="
  M 446.89 266.26
  Q 445.99 269.04 446.78 270.46"
/>
<path stroke="#8f97c1" vector-effect="non-scaling-stroke" d="
  M 446.78 270.46
  Q 446.75 276.25 449.19 279.81
  C 454.31 287.29 463.44 284.00 465.44 275.94
  Q 465.94 273.89 469.35 274.59"
/>
<path stroke="#909bc6" vector-effect="non-scaling-stroke" d="
  M 469.35 274.59
  Q 470.22 277.98 468.35 281.12"
/>
<path stroke="#919ecc" vector-effect="non-scaling-stroke" d="
  M 468.35 281.12
  C 462.97 294.17 446.41 290.24 443.36 277.28"
/>
<path stroke="#8e92b9" vector-effect="non-scaling-stroke" d="
  M 443.36 277.28
  Q 440.72 267.34 443.84 257.81"
/>
<path stroke="#8c8cae" vector-effect="non-scaling-stroke" d="
  M 260.79 256.25
  L 262.30 260.71"
/>
<path stroke="#8e94bb" vector-effect="non-scaling-stroke" d="
  M 262.30 260.71
  L 268.50 278.54"
/>
<path stroke="#919ecc" vector-effect="non-scaling-stroke" d="
  M 268.50 278.54
  L 271.33 287.29
  A 0.44 0.37 79.1 0 1 271.01 287.86
  L 267.18 287.91
  A 0.81 0.63 79.1 0 1 266.53 287.34
  L 263.12 276.79
  A 1.13 1.12 81.1 0 0 262.05 276.00
  L 250.51 276.00
  A 0.72 0.69 8.2 0 0 249.83 276.49
  L 246.57 287.21
  A 0.93 0.85 -87.6 0 1 245.95 287.83
  Q 244.12 288.31 242.30 287.83
  A 0.51 0.47 -75.0 0 1 241.97 287.21
  L 243.50 281.79"
/>
<path stroke="#9099c4" vector-effect="non-scaling-stroke" d="
  M 243.50 281.79
  L 246.29 273.25"
/>
<path stroke="#8e94bb" vector-effect="non-scaling-stroke" d="
  M 246.29 273.25
  L 249.20 264.82"
/>
<path stroke="#213891" vector-effect="non-scaling-stroke" d="
  M 198.29 281.25
  Q 198.37 282.95 198.80 282.49
  A 1.53 0.43 -53.5 0 1 199.53 281.92
  Q 204.56 280.50 209.51 282.09"
/>
<path stroke="#20368e" vector-effect="non-scaling-stroke" d="
  M 213.76 276.28
  L 229.96 275.75"
/>
<path stroke="#213891" vector-effect="non-scaling-stroke" d="
  M 234.29 281.25
  Q 234.48 283.01 234.86 282.16
  A 0.91 0.77 -82.1 0 1 235.43 281.65
  Q 239.46 280.77 243.50 281.79"
/>
<path stroke="#213a93" vector-effect="non-scaling-stroke" d="
  M 363.25 281.21
  Q 375.96 281.56 388.67 281.33
  C 390.42 281.29 392.09 282.24 392.21 279.25"
/>
<path stroke="#213a93" vector-effect="non-scaling-stroke" d="
  M 468.35 281.12
  Q 473.57 282.59 478.76 282.05
  A 1.05 0.61 58.7 0 1 479.49 282.45
  L 480.00 283.04"
/>
<path stroke="#919ecc" vector-effect="non-scaling-stroke" d="
  M 480.00 283.04
  L 480.00 287.30
  A 0.61 0.55 90.0 0 0 480.55 287.91
  L 483.82 287.91
  A 0.63 0.56 -88.4 0 0 484.38 287.31
  L 484.54 283.75"
/>
<path stroke="#213a93" vector-effect="non-scaling-stroke" d="
  M 484.54 283.75
  C 486.02 281.61 487.44 282.01 489.72 281.99
  Q 509.84 281.86 529.96 282.23"
/>
<path stroke="#213a93" vector-effect="non-scaling-stroke" d="
  M 69.01 282.37
  L 124.94 282.06
  A 0.75 0.59 76.5 0 1 125.55 282.54
  Q 125.74 283.01 126.21 283.25"
/>
<path stroke="#20368e" vector-effect="non-scaling-stroke" d="
  M 423.25 279.46
  L 411.54 279.75"
/>
<path stroke="#1e2e80" vector-effect="non-scaling-stroke" d="
  M 126.23 273.78
  Q 97.65 273.14 69.02 273.70"
/>
<path stroke="#20358b" vector-effect="non-scaling-stroke" d="
  M 159.46 276.25
  Q 152.48 275.70 145.54 276.50"
/>
<path stroke="#20368e" vector-effect="non-scaling-stroke" d="
  M 305.29 278.75
  C 301.89 281.74 292.62 278.15 287.79 280.75"
/>
<path stroke="#1f3388" vector-effect="non-scaling-stroke" d="
  M 283.21 278.00
  Q 275.79 277.02 268.50 278.54"
/>
<path stroke="#20358b" vector-effect="non-scaling-stroke" d="
  M 194.21 275.25
  Q 194.04 276.95 192.56 276.72
  Q 187.14 275.88 181.79 277.00"
/>
<path stroke="#20358b" vector-effect="non-scaling-stroke" d="
  M 339.96 279.50
  L 329.79 279.75"
/>
<path stroke="#1f3185" vector-effect="non-scaling-stroke" d="
  M 392.21 275.25
  C 391.84 277.40 390.60 276.51 389.34 276.49
  Q 376.69 276.37 364.04 276.50"
/>
<path stroke="#1d2c7d" vector-effect="non-scaling-stroke" d="
  M 529.96 271.25
  Q 529.41 271.09 529.46 270.74
  A 0.37 0.28 -84.1 0 0 529.20 270.31
  L 446.78 270.46"
/>
<path stroke="#1f3388" vector-effect="non-scaling-stroke" d="
  M 529.99 274.63
  Q 499.66 273.72 469.35 274.59"
/>
<path stroke="#909bc6" vector-effect="non-scaling-stroke" d="
  M 484.54 283.75
  C 484.52 282.50 481.09 282.99 480.00 283.04"
/>
<path stroke="#92a2d0" vector-effect="non-scaling-stroke" d="
  M 327.78 89.66
  C 324.27 86.43 325.33 81.82 327.81 78.42
  Q 338.48 63.78 334.72 46.76
  C 332.47 36.57 327.95 26.90 319.56 20.69
  C 312.17 15.22 302.22 10.56 292.88 9.44
  C 277.90 7.65 259.23 13.68 248.73 24.98
  C 241.64 32.61 238.05 42.10 237.22 52.55
  C 236.47 61.88 240.96 71.49 246.17 78.95
  C 249.32 83.47 251.53 88.21 246.70 92.11
  C 243.92 94.35 240.01 93.66 236.70 93.01
  Q 224.60 90.65 212.44 92.69
  Q 205.12 93.91 201.25 93.77
  A 1.64 1.63 63.0 0 1 200.34 93.47
  Q 197.68 91.56 195.84 88.86
  A 1.77 1.63 -64.7 0 1 195.55 87.93
  C 195.41 82.87 196.23 77.26 195.21 72.47
  C 192.74 60.85 186.32 57.55 175.61 54.74
  C 168.77 52.95 159.30 54.06 151.92 53.94
  C 136.69 53.69 121.49 54.46 106.25 54.51
  C 94.05 54.55 82.82 63.57 83.46 76.47
  C 84.61 99.74 83.97 122.52 85.10 145.55
  C 85.32 150.01 86.24 153.22 88.49 156.73
  Q 90.24 159.46 89.54 164.16
  A 3.54 3.52 -13.8 0 1 88.12 166.49
  C 85.83 168.13 85.25 169.85 85.25 172.79
  Q 85.25 180.11 85.25 187.44
  C 85.25 196.40 86.14 207.14 86.05 217.05
  C 85.97 226.00 92.90 238.74 103.00 238.50
  C 128.78 237.89 146.37 239.20 175.56 238.76
  C 179.20 238.71 181.26 238.78 184.81 237.06
  C 191.57 233.80 195.82 238.26 202.50 238.25
  C 214.46 238.24 230.91 238.78 247.33 238.82
  C 268.01 238.87 288.44 239.56 321.77 239.10
  C 330.88 238.97 340.39 239.35 349.72 239.47
  C 355.59 239.54 360.73 239.81 367.00 239.25
  C 374.11 238.61 376.08 232.21 383.88 236.28
  C 385.22 236.98 387.70 239.22 389.75 239.25
  C 407.28 239.48 436.55 238.12 460.51 238.35
  Q 466.37 238.41 478.49 238.05
  C 487.40 237.78 496.29 238.41 505.20 238.20
  A 0.52 0.50 89.4 0 0 505.69 237.68
  Q 505.77 212.63 505.54 187.59
  C 505.50 183.10 504.37 176.86 504.99 171.25
  Q 505.88 163.21 504.50 155.24
  Q 504.08 152.83 501.67 153.26
  Q 496.42 154.21 490.33 153.97
  A 3.99 3.47 -18.1 0 1 487.75 152.88
  L 484.45 149.51
  A 3.80 3.25 -70.2 0 1 483.50 147.01
  Q 483.50 112.12 483.31 78.75
  Q 483.25 67.49 484.07 55.26
  A 0.65 0.65 -0.8 0 0 483.36 54.57
  C 475.25 55.37 465.00 55.03 459.55 55.18
  Q 417.65 56.32 374.01 54.94
  A 1.67 1.67 89.5 0 0 372.28 56.67
  Q 373.12 83.00 373.94 110.18
  C 374.07 114.48 375.25 118.07 372.39 121.83
  C 368.37 127.13 360.46 126.57 357.13 120.79
  Q 355.80 118.47 355.81 114.32
  Q 355.84 104.19 356.41 94.07
  A 0.50 0.49 -87.2 0 0 355.94 93.54
  Q 344.18 93.08 332.45 92.28
  C 330.02 92.12 329.38 91.14 327.78 89.66"
/>
<path stroke="#f9a0cf" vector-effect="non-scaling-stroke" d="
  M 323.90 53.99
  A 36.91 36.91 0.0 0 0 286.99 17.08
  A 36.91 36.91 0.0 0 0 250.08 53.99
  A 36.91 36.91 0.0 0 0 286.99 90.90
  A 36.91 36.91 0.0 0 0 323.90 53.99"
/>
<path stroke="#92a2d0" vector-effect="non-scaling-stroke" d="
  M 123.16 62.85
  C 114.14 63.02 100.08 60.29 95.69 70.52
  Q 94.42 73.47 94.68 81.13
  Q 95.10 93.29 95.46 105.45
  C 95.85 118.20 95.36 131.57 95.27 144.66
  C 95.20 154.94 99.47 158.92 109.86 159.11
  Q 124.30 159.39 133.25 158.50
  C 146.64 157.17 144.89 171.81 145.00 180.50
  Q 145.25 200.71 145.00 208.75
  C 144.75 216.82 132.64 217.39 131.44 208.31
  C 130.60 202.02 131.93 193.98 132.32 188.48
  C 132.66 183.79 134.12 176.30 128.00 176.28
  Q 113.75 176.25 99.50 176.36
  Q 93.64 176.41 94.08 182.26
  C 94.83 192.28 96.04 202.19 95.95 212.25
  C 95.84 223.75 99.15 230.87 112.00 230.77
  C 127.61 230.64 143.15 230.67 158.74 231.43
  C 167.63 231.86 178.70 232.69 182.33 224.53
  Q 183.57 221.74 183.25 215.30
  Q 181.64 182.13 183.50 153.25
  C 184.11 143.82 179.43 138.27 170.28 138.22
  Q 156.17 138.15 142.36 138.98
  Q 140.30 139.10 138.27 138.75
  Q 132.62 137.78 132.38 132.00
  C 131.82 118.20 132.01 104.32 131.42 90.55
  C 130.99 80.43 143.98 78.93 145.69 89.06
  Q 146.20 92.12 145.35 98.53
  C 144.55 104.59 144.19 109.15 143.75 114.52
  Q 143.49 117.70 146.53 118.67
  Q 148.47 119.28 151.25 119.28
  Q 166.13 119.25 181.00 119.20
  Q 185.16 119.19 185.50 115.50
  Q 186.02 109.87 185.54 83.63
  C 185.45 79.17 185.79 75.49 184.00 71.30
  C 181.45 65.33 176.73 62.21 170.25 62.26
  Q 146.70 62.42 123.16 62.85"
/>
<path stroke="#92a2d0" vector-effect="non-scaling-stroke" d="
  M 382.43 65.44
  Q 382.02 65.95 381.91 66.60
  C 380.53 74.55 381.50 84.05 381.45 89.92
  C 381.30 111.73 382.73 125.90 382.56 143.90
  C 382.51 148.74 383.19 154.10 383.07 159.27
  C 382.69 177.55 383.98 195.66 383.41 214.00
  C 383.01 226.87 389.21 232.66 401.83 232.82
  Q 425.16 233.11 448.50 233.03
  Q 458.12 232.99 464.44 229.44
  Q 469.47 226.60 473.08 230.44
  Q 474.16 231.59 475.73 231.75
  C 479.06 232.09 491.24 233.42 493.23 230.81
  Q 494.00 229.81 494.02 227.51
  C 494.13 216.93 493.71 206.41 494.09 195.83
  Q 494.61 181.23 494.35 166.61
  C 494.14 154.93 472.68 170.30 472.74 155.67
  C 472.76 150.35 473.29 144.86 473.10 139.77
  Q 472.36 119.40 471.89 99.01
  C 471.70 90.65 472.54 81.70 472.71 72.97
  C 472.86 64.66 473.27 63.33 464.40 63.23
  Q 451.59 63.10 438.79 63.45
  C 433.67 63.59 434.11 66.03 433.95 70.11
  C 433.76 74.91 434.50 80.11 434.51 84.30
  C 434.59 118.86 435.59 153.54 435.12 188.08
  C 435.01 195.71 437.23 210.77 431.93 214.58
  C 426.85 218.23 420.26 213.28 420.50 207.75
  Q 420.65 204.30 420.50 194.75
  C 420.07 167.17 420.68 135.51 420.23 104.00
  Q 420.01 88.28 421.05 72.58
  C 421.39 67.52 422.27 63.01 415.75 63.25
  Q 399.62 63.85 386.50 63.58
  Q 383.97 63.53 382.43 65.44"
/>
<path stroke="#92a2d0" vector-effect="non-scaling-stroke" d="
  M 260.89 101.18
  Q 260.20 108.16 261.00 114.00
  Q 262.67 126.26 262.51 137.71
  Q 262.40 145.47 262.72 151.28
  C 263.68 168.67 261.74 189.64 261.75 203.25
  Q 261.76 214.15 260.85 225.01
  Q 260.62 227.86 261.07 230.70
  Q 261.54 233.68 264.56 233.69
  Q 284.91 233.73 305.75 234.00
  C 308.93 234.04 310.27 232.72 310.25 229.49
  Q 310.22 223.24 309.50 215.00
  Q 307.86 196.34 308.53 176.14
  C 309.27 153.68 307.31 128.17 310.00 104.75
  C 310.52 100.26 308.36 99.23 304.28 99.41
  Q 285.72 100.22 267.18 99.00
  C 264.80 98.84 263.09 98.24 261.26 100.29
  A 1.66 1.40 72.4 0 0 260.89 101.18"
/>
<path stroke="#92a2d0" vector-effect="non-scaling-stroke" d="
  M 215.60 219.33
  C 212.45 217.96 210.72 214.33 213.60 211.73
  C 217.96 207.77 233.16 210.72 238.47 210.40
  Q 241.86 210.20 245.23 210.50
  Q 251.83 211.08 251.25 204.50
  C 250.19 192.57 250.39 177.37 250.57 163.84
  Q 250.82 144.79 250.77 125.75
  C 250.75 113.43 249.05 99.33 233.00 98.94
  C 225.11 98.75 211.99 97.90 205.51 101.40
  C 194.75 107.20 196.06 124.66 195.94 134.95
  Q 195.80 147.08 196.49 159.19
  C 196.79 164.28 196.37 170.00 196.70 175.45
  C 197.57 190.06 196.74 204.36 196.73 219.00
  C 196.72 229.44 202.48 232.46 212.40 232.61
  Q 223.74 232.78 244.25 232.50
  C 248.67 232.44 251.89 230.23 251.19 225.48
  C 249.76 215.66 223.13 222.62 215.60 219.33"
/>
<path stroke="#92a2d0" vector-effect="non-scaling-stroke" d="
  M 319.06 101.25
  Q 318.02 102.80 318.18 104.66
  Q 319.24 117.16 319.84 129.26
  C 320.69 146.59 319.78 164.72 319.59 182.34
  C 319.47 192.40 320.56 205.06 320.00 216.00
  C 319.80 219.97 319.28 225.72 319.79 228.29
  C 320.59 232.28 324.00 231.70 327.39 231.77
  C 335.65 231.94 343.86 232.57 352.13 232.21
  C 357.78 231.96 365.58 233.24 368.94 227.69
  Q 372.96 221.03 372.42 212.01
  Q 370.51 180.33 371.22 148.61
  C 371.31 144.37 371.60 141.16 369.64 137.25
  C 364.52 126.97 346.64 138.16 347.75 125.00
  Q 348.18 119.87 348.72 106.74
  C 348.93 101.64 348.18 99.54 342.51 99.46
  C 338.25 99.41 321.26 97.98 319.06 101.25"
/>
<path stroke="#92a3d0" vector-effect="non-scaling-stroke" d="
  M 226.82 123.19
  C 219.56 120.22 217.90 125.22 217.64 131.18
  Q 217.27 139.39 217.44 147.60
  C 217.63 157.50 216.73 167.76 217.15 177.93
  Q 217.32 182.19 218.58 184.17
  C 221.81 189.30 230.30 186.58 230.00 180.25
  Q 229.27 164.83 229.59 152.19
  C 229.80 144.15 230.84 135.47 229.52 126.63
  Q 229.15 124.14 226.82 123.19"
/>
<path stroke="#92a3d0" vector-effect="non-scaling-stroke" d="
  M 341.18 151.45
  Q 340.03 153.10 339.99 155.11
  Q 339.72 167.11 340.03 179.47
  C 340.25 188.29 339.76 198.23 340.13 207.63
  Q 340.27 211.22 341.07 212.73
  C 343.22 216.79 350.04 215.80 351.90 211.93
  Q 352.76 210.14 352.72 205.93
  C 352.59 190.90 351.32 174.50 353.20 159.63
  C 353.76 155.19 352.04 149.03 346.71 148.52
  Q 343.43 148.21 341.18 151.45"
/>
<path stroke="#8e92b9" vector-effect="non-scaling-stroke" d="
  M 170.10 255.49
  L 165.75 269.73
  A 0.98 0.93 -81.0 0 0 166.62 271.00
  L 174.68 271.00
  A 0.48 0.48 81.0 0 0 175.13 270.37
  L 170.48 255.49
  Q 170.29 254.87 170.10 255.49"
/>
<path stroke="#8e92b9" vector-effect="non-scaling-stroke" d="
  M 256.03 255.80
  L 251.63 270.06
  A 0.73 0.69 -81.0 0 0 252.28 271.00
  L 260.65 271.00
  A 0.51 0.50 81.3 0 0 261.12 270.34
  L 256.57 255.80
  Q 256.30 254.94 256.03 255.80"
/>
</g>
<path fill="#2546a0" d="
  M 510.67 241.82
  Q 507.33 243.78 503.00 243.50
  Q 494.34 242.95 477.17 243.21
  C 474.35 243.25 470.77 243.88 467.51 243.76
  Q 461.57 243.52 461.48 243.52
  Q 425.24 243.77 389.00 244.50
  Q 385.65 244.57 382.04 241.75
  Q 379.01 238.90 375.96 241.75
  C 370.39 246.20 356.86 245.13 349.75 244.75
  C 344.96 244.49 339.79 244.92 334.75 244.53
  Q 327.64 244.00 320.54 244.23
  C 292.59 245.17 267.01 244.14 243.66 243.99
  Q 224.31 243.86 204.97 243.53
  C 200.18 243.45 196.93 243.84 192.50 241.54
  Q 190.37 240.34 188.25 241.54
  Q 184.92 243.78 182.00 243.75
  C 169.40 243.61 156.65 244.27 144.33 243.94
  Q 124.25 243.40 102.00 243.75
  Q 97.53 243.82 93.50 241.72
  Q 86.33 235.71 82.69 228.31
  C 79.32 221.47 81.09 212.78 80.59 203.99
  Q 79.74 188.97 79.98 173.92
  C 80.04 169.88 79.57 166.46 83.25 163.95
  Q 85.60 162.35 84.07 159.95
  C 79.28 152.41 79.61 146.98 79.34 136.16
  C 78.83 115.32 79.61 94.67 78.25 77.75
  C 77.10 63.42 87.09 51.98 100.04 49.70
  Q 102.04 49.35 118.00 49.15
  C 133.52 48.96 145.51 47.92 159.25 49.00
  Q 161.57 49.18 165.01 48.87
  C 181.33 47.39 198.64 54.66 200.79 72.70
  C 201.20 76.06 200.79 80.16 200.76 83.95
  C 200.71 89.30 203.43 88.84 207.41 88.07
  Q 223.24 84.97 239.08 87.92
  C 244.76 88.98 245.30 86.66 242.14 82.50
  C 232.50 69.84 229.87 57.61 233.37 42.09
  C 235.36 33.22 240.29 26.14 246.31 19.53
  C 249.01 16.57 251.64 15.05 255.63 12.60
  C 269.83 3.89 288.16 1.19 304.21 6.46
  C 315.86 10.28 327.71 18.06 333.94 28.81
  C 343.17 44.73 344.17 66.39 332.25 81.50
  C 329.34 85.19 331.75 86.90 335.37 87.14
  Q 341.00 87.51 356.19 88.06
  Q 362.17 88.28 361.71 94.75
  Q 361.00 104.49 361.00 115.52
  Q 361.00 117.38 362.32 118.69
  Q 365.09 121.45 367.81 118.81
  C 369.40 117.27 369.06 115.31 368.96 113.19
  Q 367.36 76.17 367.00 56.00
  C 366.87 48.54 373.84 49.39 378.99 49.78
  C 387.90 50.45 397.06 50.08 406.01 50.36
  C 427.61 51.05 449.27 49.25 470.83 50.05
  C 477.00 50.28 490.03 45.24 489.37 56.06
  Q 488.64 67.90 488.76 79.76
  C 488.97 101.76 488.63 123.75 488.75 145.75
  Q 488.77 148.78 491.75 148.75
  C 498.03 148.69 507.11 144.84 509.59 153.48
  C 511.85 161.34 509.70 169.02 510.19 177.11
  Q 510.82 187.76 510.83 188.42
  Q 511.17 215.06 510.67 241.82
  Z
  M 327.78 89.66
  C 324.27 86.43 325.33 81.82 327.81 78.42
  Q 338.48 63.78 334.72 46.76
  C 332.47 36.57 327.95 26.90 319.56 20.69
  C 312.17 15.22 302.22 10.56 292.88 9.44
  C 277.90 7.65 259.23 13.68 248.73 24.98
  C 241.64 32.61 238.05 42.10 237.22 52.55
  C 236.47 61.88 240.96 71.49 246.17 78.95
  C 249.32 83.47 251.53 88.21 246.70 92.11
  C 243.92 94.35 240.01 93.66 236.70 93.01
  Q 224.60 90.65 212.44 92.69
  Q 205.12 93.91 201.25 93.77
  A 1.64 1.63 63.0 0 1 200.34 93.47
  Q 197.68 91.56 195.84 88.86
  A 1.77 1.63 -64.7 0 1 195.55 87.93
  C 195.41 82.87 196.23 77.26 195.21 72.47
  C 192.74 60.85 186.32 57.55 175.61 54.74
  C 168.77 52.95 159.30 54.06 151.92 53.94
  C 136.69 53.69 121.49 54.46 106.25 54.51
  C 94.05 54.55 82.82 63.57 83.46 76.47
  C 84.61 99.74 83.97 122.52 85.10 145.55
  C 85.32 150.01 86.24 153.22 88.49 156.73
  Q 90.24 159.46 89.54 164.16
  A 3.54 3.52 -13.8 0 1 88.12 166.49
  C 85.83 168.13 85.25 169.85 85.25 172.79
  Q 85.25 180.11 85.25 187.44
  C 85.25 196.40 86.14 207.14 86.05 217.05
  C 85.97 226.00 92.90 238.74 103.00 238.50
  C 128.78 237.89 146.37 239.20 175.56 238.76
  C 179.20 238.71 181.26 238.78 184.81 237.06
  C 191.57 233.80 195.82 238.26 202.50 238.25
  C 214.46 238.24 230.91 238.78 247.33 238.82
  C 268.01 238.87 288.44 239.56 321.77 239.10
  C 330.88 238.97 340.39 239.35 349.72 239.47
  C 355.59 239.54 360.73 239.81 367.00 239.25
  C 374.11 238.61 376.08 232.21 383.88 236.28
  C 385.22 236.98 387.70 239.22 389.75 239.25
  C 407.28 239.48 436.55 238.12 460.51 238.35
  Q 466.37 238.41 478.49 238.05
  C 487.40 237.78 496.29 238.41 505.20 238.20
  A 0.52 0.50 89.4 0 0 505.69 237.68
  Q 505.77 212.63 505.54 187.59
  C 505.50 183.10 504.37 176.86 504.99 171.25
  Q 505.88 163.21 504.50 155.24
  Q 504.08 152.83 501.67 153.26
  Q 496.42 154.21 490.33 153.97
  A 3.99 3.47 -18.1 0 1 487.75 152.88
  L 484.45 149.51
  A 3.80 3.25 -70.2 0 1 483.50 147.01
  Q 483.50 112.12 483.31 78.75
  Q 483.25 67.49 484.07 55.26
  A 0.65 0.65 -0.8 0 0 483.36 54.57
  C 475.25 55.37 465.00 55.03 459.55 55.18
  Q 417.65 56.32 374.01 54.94
  A 1.67 1.67 89.5 0 0 372.28 56.67
  Q 373.12 83.00 373.94 110.18
  C 374.07 114.48 375.25 118.07 372.39 121.83
  C 368.37 127.13 360.46 126.57 357.13 120.79
  Q 355.80 118.47 355.81 114.32
  Q 355.84 104.19 356.41 94.07
  A 0.50 0.49 -87.2 0 0 355.94 93.54
  Q 344.18 93.08 332.45 92.28
  C 330.02 92.12 329.38 91.14 327.78 89.66
  Z"
/>
<path fill="#fefeff" d="
  M 327.78 89.66
  C 329.38 91.14 330.02 92.12 332.45 92.28
  Q 344.18 93.08 355.94 93.54
  A 0.50 0.49 -87.2 0 1 356.41 94.07
  Q 355.84 104.19 355.81 114.32
  Q 355.80 118.47 357.13 120.79
  C 360.46 126.57 368.37 127.13 372.39 121.83
  C 375.25 118.07 374.07 114.48 373.94 110.18
  Q 373.12 83.00 372.28 56.67
  A 1.67 1.67 -87.7 0 1 374.01 54.94
  Q 417.65 56.32 459.55 55.18
  C 465.00 55.03 475.25 55.37 483.36 54.57
  A 0.65 0.65 -0.8 0 1 484.07 55.26
  Q 483.25 67.49 483.31 78.75
  Q 483.50 112.12 483.50 147.01
  A 3.80 3.25 -70.2 0 0 484.45 149.51
  L 487.75 152.88
  A 3.99 3.47 -18.1 0 0 490.33 153.97
  Q 496.42 154.21 501.67 153.26
  Q 504.08 152.83 504.50 155.24
  Q 505.88 163.21 504.99 171.25
  C 504.37 176.86 505.50 183.10 505.54 187.59
  Q 505.77 212.63 505.69 237.68
  A 0.52 0.50 89.4 0 1 505.20 238.20
  C 496.29 238.41 487.40 237.78 478.49 238.05
  Q 466.37 238.41 460.51 238.35
  C 436.55 238.12 407.28 239.48 389.75 239.25
  C 387.70 239.22 385.22 236.98 383.88 236.28
  C 376.08 232.21 374.11 238.61 367.00 239.25
  C 360.73 239.81 355.59 239.54 349.72 239.47
  C 340.39 239.35 330.88 238.97 321.77 239.10
  C 288.44 239.56 268.01 238.87 247.33 238.82
  C 230.91 238.78 214.46 238.24 202.50 238.25
  C 195.82 238.26 191.57 233.80 184.81 237.06
  C 181.26 238.78 179.20 238.71 175.56 238.76
  C 146.37 239.20 128.78 237.89 103.00 238.50
  C 92.90 238.74 85.97 226.00 86.05 217.05
  C 86.14 207.14 85.25 196.40 85.25 187.44
  Q 85.25 180.11 85.25 172.79
  C 85.25 169.85 85.83 168.13 88.12 166.49
  A 3.54 3.52 -13.8 0 0 89.54 164.16
  Q 90.24 159.46 88.49 156.73
  C 86.24 153.22 85.32 150.01 85.10 145.55
  C 83.97 122.52 84.61 99.74 83.46 76.47
  C 82.82 63.57 94.05 54.55 106.25 54.51
  C 121.49 54.46 136.69 53.69 151.92 53.94
  C 159.30 54.06 168.77 52.95 175.61 54.74
  C 186.32 57.55 192.74 60.85 195.21 72.47
  C 196.23 77.26 195.41 82.87 195.55 87.93
  A 1.77 1.63 -64.7 0 0 195.84 88.86
  Q 197.68 91.56 200.34 93.47
  A 1.64 1.63 63.0 0 0 201.25 93.77
  Q 205.12 93.91 212.44 92.69
  Q 224.60 90.65 236.70 93.01
  C 240.01 93.66 243.92 94.35 246.70 92.11
  C 251.53 88.21 249.32 83.47 246.17 78.95
  C 240.96 71.49 236.47 61.88 237.22 52.55
  C 238.05 42.10 241.64 32.61 248.73 24.98
  C 259.23 13.68 277.90 7.65 292.88 9.44
  C 302.22 10.56 312.17 15.22 319.56 20.69
  C 327.95 26.90 332.47 36.57 334.72 46.76
  Q 338.48 63.78 327.81 78.42
  C 325.33 81.82 324.27 86.43 327.78 89.66
  Z
  M 323.90 53.99
  A 36.91 36.91 0.0 0 0 286.99 17.08
  A 36.91 36.91 0.0 0 0 250.08 53.99
  A 36.91 36.91 0.0 0 0 286.99 90.90
  A 36.91 36.91 0.0 0 0 323.90 53.99
  Z
  M 123.16 62.85
  C 114.14 63.02 100.08 60.29 95.69 70.52
  Q 94.42 73.47 94.68 81.13
  Q 95.10 93.29 95.46 105.45
  C 95.85 118.20 95.36 131.57 95.27 144.66
  C 95.20 154.94 99.47 158.92 109.86 159.11
  Q 124.30 159.39 133.25 158.50
  C 146.64 157.17 144.89 171.81 145.00 180.50
  Q 145.25 200.71 145.00 208.75
  C 144.75 216.82 132.64 217.39 131.44 208.31
  C 130.60 202.02 131.93 193.98 132.32 188.48
  C 132.66 183.79 134.12 176.30 128.00 176.28
  Q 113.75 176.25 99.50 176.36
  Q 93.64 176.41 94.08 182.26
  C 94.83 192.28 96.04 202.19 95.95 212.25
  C 95.84 223.75 99.15 230.87 112.00 230.77
  C 127.61 230.64 143.15 230.67 158.74 231.43
  C 167.63 231.86 178.70 232.69 182.33 224.53
  Q 183.57 221.74 183.25 215.30
  Q 181.64 182.13 183.50 153.25
  C 184.11 143.82 179.43 138.27 170.28 138.22
  Q 156.17 138.15 142.36 138.98
  Q 140.30 139.10 138.27 138.75
  Q 132.62 137.78 132.38 132.00
  C 131.82 118.20 132.01 104.32 131.42 90.55
  C 130.99 80.43 143.98 78.93 145.69 89.06
  Q 146.20 92.12 145.35 98.53
  C 144.55 104.59 144.19 109.15 143.75 114.52
  Q 143.49 117.70 146.53 118.67
  Q 148.47 119.28 151.25 119.28
  Q 166.13 119.25 181.00 119.20
  Q 185.16 119.19 185.50 115.50
  Q 186.02 109.87 185.54 83.63
  C 185.45 79.17 185.79 75.49 184.00 71.30
  C 181.45 65.33 176.73 62.21 170.25 62.26
  Q 146.70 62.42 123.16 62.85
  Z
  M 382.43 65.44
  Q 382.02 65.95 381.91 66.60
  C 380.53 74.55 381.50 84.05 381.45 89.92
  C 381.30 111.73 382.73 125.90 382.56 143.90
  C 382.51 148.74 383.19 154.10 383.07 159.27
  C 382.69 177.55 383.98 195.66 383.41 214.00
  C 383.01 226.87 389.21 232.66 401.83 232.82
  Q 425.16 233.11 448.50 233.03
  Q 458.12 232.99 464.44 229.44
  Q 469.47 226.60 473.08 230.44
  Q 474.16 231.59 475.73 231.75
  C 479.06 232.09 491.24 233.42 493.23 230.81
  Q 494.00 229.81 494.02 227.51
  C 494.13 216.93 493.71 206.41 494.09 195.83
  Q 494.61 181.23 494.35 166.61
  C 494.14 154.93 472.68 170.30 472.74 155.67
  C 472.76 150.35 473.29 144.86 473.10 139.77
  Q 472.36 119.40 471.89 99.01
  C 471.70 90.65 472.54 81.70 472.71 72.97
  C 472.86 64.66 473.27 63.33 464.40 63.23
  Q 451.59 63.10 438.79 63.45
  C 433.67 63.59 434.11 66.03 433.95 70.11
  C 433.76 74.91 434.50 80.11 434.51 84.30
  C 434.59 118.86 435.59 153.54 435.12 188.08
  C 435.01 195.71 437.23 210.77 431.93 214.58
  C 426.85 218.23 420.26 213.28 420.50 207.75
  Q 420.65 204.30 420.50 194.75
  C 420.07 167.17 420.68 135.51 420.23 104.00
  Q 420.01 88.28 421.05 72.58
  C 421.39 67.52 422.27 63.01 415.75 63.25
  Q 399.62 63.85 386.50 63.58
  Q 383.97 63.53 382.43 65.44
  Z
  M 260.89 101.18
  Q 260.20 108.16 261.00 114.00
  Q 262.67 126.26 262.51 137.71
  Q 262.40 145.47 262.72 151.28
  C 263.68 168.67 261.74 189.64 261.75 203.25
  Q 261.76 214.15 260.85 225.01
  Q 260.62 227.86 261.07 230.70
  Q 261.54 233.68 264.56 233.69
  Q 284.91 233.73 305.75 234.00
  C 308.93 234.04 310.27 232.72 310.25 229.49
  Q 310.22 223.24 309.50 215.00
  Q 307.86 196.34 308.53 176.14
  C 309.27 153.68 307.31 128.17 310.00 104.75
  C 310.52 100.26 308.36 99.23 304.28 99.41
  Q 285.72 100.22 267.18 99.00
  C 264.80 98.84 263.09 98.24 261.26 100.29
  A 1.66 1.40 72.4 0 0 260.89 101.18
  Z
  M 215.60 219.33
  C 212.45 217.96 210.72 214.33 213.60 211.73
  C 217.96 207.77 233.16 210.72 238.47 210.40
  Q 241.86 210.20 245.23 210.50
  Q 251.83 211.08 251.25 204.50
  C 250.19 192.57 250.39 177.37 250.57 163.84
  Q 250.82 144.79 250.77 125.75
  C 250.75 113.43 249.05 99.33 233.00 98.94
  C 225.11 98.75 211.99 97.90 205.51 101.40
  C 194.75 107.20 196.06 124.66 195.94 134.95
  Q 195.80 147.08 196.49 159.19
  C 196.79 164.28 196.37 170.00 196.70 175.45
  C 197.57 190.06 196.74 204.36 196.73 219.00
  C 196.72 229.44 202.48 232.46 212.40 232.61
  Q 223.74 232.78 244.25 232.50
  C 248.67 232.44 251.89 230.23 251.19 225.48
  C 249.76 215.66 223.13 222.62 215.60 219.33
  Z
  M 319.06 101.25
  Q 318.02 102.80 318.18 104.66
  Q 319.24 117.16 319.84 129.26
  C 320.69 146.59 319.78 164.72 319.59 182.34
  C 319.47 192.40 320.56 205.06 320.00 216.00
  C 319.80 219.97 319.28 225.72 319.79 228.29
  C 320.59 232.28 324.00 231.70 327.39 231.77
  C 335.65 231.94 343.86 232.57 352.13 232.21
  C 357.78 231.96 365.58 233.24 368.94 227.69
  Q 372.96 221.03 372.42 212.01
  Q 370.51 180.33 371.22 148.61
  C 371.31 144.37 371.60 141.16 369.64 137.25
  C 364.52 126.97 346.64 138.16 347.75 125.00
  Q 348.18 119.87 348.72 106.74
  C 348.93 101.64 348.18 99.54 342.51 99.46
  C 338.25 99.41 321.26 97.98 319.06 101.25
  Z"
/>
<circle fill="#f3419f" cx="286.99" cy="53.99" r="36.91"/>
<path fill="#2546a0" d="
  M 123.16 62.85
  Q 146.70 62.42 170.25 62.26
  C 176.73 62.21 181.45 65.33 184.00 71.30
  C 185.79 75.49 185.45 79.17 185.54 83.63
  Q 186.02 109.87 185.50 115.50
  Q 185.16 119.19 181.00 119.20
  Q 166.13 119.25 151.25 119.28
  Q 148.47 119.28 146.53 118.67
  Q 143.49 117.70 143.75 114.52
  C 144.19 109.15 144.55 104.59 145.35 98.53
  Q 146.20 92.12 145.69 89.06
  C 143.98 78.93 130.99 80.43 131.42 90.55
  C 132.01 104.32 131.82 118.20 132.38 132.00
  Q 132.62 137.78 138.27 138.75
  Q 140.30 139.10 142.36 138.98
  Q 156.17 138.15 170.28 138.22
  C 179.43 138.27 184.11 143.82 183.50 153.25
  Q 181.64 182.13 183.25 215.30
  Q 183.57 221.74 182.33 224.53
  C 178.70 232.69 167.63 231.86 158.74 231.43
  C 143.15 230.67 127.61 230.64 112.00 230.77
  C 99.15 230.87 95.84 223.75 95.95 212.25
  C 96.04 202.19 94.83 192.28 94.08 182.26
  Q 93.64 176.41 99.50 176.36
  Q 113.75 176.25 128.00 176.28
  C 134.12 176.30 132.66 183.79 132.32 188.48
  C 131.93 193.98 130.60 202.02 131.44 208.31
  C 132.64 217.39 144.75 216.82 145.00 208.75
  Q 145.25 200.71 145.00 180.50
  C 144.89 171.81 146.64 157.17 133.25 158.50
  Q 124.30 159.39 109.86 159.11
  C 99.47 158.92 95.20 154.94 95.27 144.66
  C 95.36 131.57 95.85 118.20 95.46 105.45
  Q 95.10 93.29 94.68 81.13
  Q 94.42 73.47 95.69 70.52
  C 100.08 60.29 114.14 63.02 123.16 62.85
  Z"
/>
<path fill="#2546a0" d="
  M 382.43 65.44
  Q 383.97 63.53 386.50 63.58
  Q 399.62 63.85 415.75 63.25
  C 422.27 63.01 421.39 67.52 421.05 72.58
  Q 420.01 88.28 420.23 104.00
  C 420.68 135.51 420.07 167.17 420.50 194.75
  Q 420.65 204.30 420.50 207.75
  C 420.26 213.28 426.85 218.23 431.93 214.58
  C 437.23 210.77 435.01 195.71 435.12 188.08
  C 435.59 153.54 434.59 118.86 434.51 84.30
  C 434.50 80.11 433.76 74.91 433.95 70.11
  C 434.11 66.03 433.67 63.59 438.79 63.45
  Q 451.59 63.10 464.40 63.23
  C 473.27 63.33 472.86 64.66 472.71 72.97
  C 472.54 81.70 471.70 90.65 471.89 99.01
  Q 472.36 119.40 473.10 139.77
  C 473.29 144.86 472.76 150.35 472.74 155.67
  C 472.68 170.30 494.14 154.93 494.35 166.61
  Q 494.61 181.23 494.09 195.83
  C 493.71 206.41 494.13 216.93 494.02 227.51
  Q 494.00 229.81 493.23 230.81
  C 491.24 233.42 479.06 232.09 475.73 231.75
  Q 474.16 231.59 473.08 230.44
  Q 469.47 226.60 464.44 229.44
  Q 458.12 232.99 448.50 233.03
  Q 425.16 233.11 401.83 232.82
  C 389.21 232.66 383.01 226.87 383.41 214.00
  C 383.98 195.66 382.69 177.55 383.07 159.27
  C 383.19 154.10 382.51 148.74 382.56 143.90
  C 382.73 125.90 381.30 111.73 381.45 89.92
  C 381.50 84.05 380.53 74.55 381.91 66.60
  Q 382.02 65.95 382.43 65.44
  Z"
/>
<path fill="#2546a0" d="
  M 261.26 100.29
  C 263.09 98.24 264.80 98.84 267.18 99.00
  Q 285.72 100.22 304.28 99.41
  C 308.36 99.23 310.52 100.26 310.00 104.75
  C 307.31 128.17 309.27 153.68 308.53 176.14
  Q 307.86 196.34 309.50 215.00
  Q 310.22 223.24 310.25 229.49
  C 310.27 232.72 308.93 234.04 305.75 234.00
  Q 284.91 233.73 264.56 233.69
  Q 261.54 233.68 261.07 230.70
  Q 260.62 227.86 260.85 225.01
  Q 261.76 214.15 261.75 203.25
  C 261.74 189.64 263.68 168.67 262.72 151.28
  Q 262.40 145.47 262.51 137.71
  Q 262.67 126.26 261.00 114.00
  Q 260.20 108.16 260.89 101.18
  A 1.66 1.40 72.4 0 1 261.26 100.29
  Z"
/>
<path fill="#2546a0" d="
  M 215.60 219.33
  C 223.13 222.62 249.76 215.66 251.19 225.48
  C 251.89 230.23 248.67 232.44 244.25 232.50
  Q 223.74 232.78 212.40 232.61
  C 202.48 232.46 196.72 229.44 196.73 219.00
  C 196.74 204.36 197.57 190.06 196.70 175.45
  C 196.37 170.00 196.79 164.28 196.49 159.19
  Q 195.80 147.08 195.94 134.95
  C 196.06 124.66 194.75 107.20 205.51 101.40
  C 211.99 97.90 225.11 98.75 233.00 98.94
  C 249.05 99.33 250.75 113.43 250.77 125.75
  Q 250.82 144.79 250.57 163.84
  C 250.39 177.37 250.19 192.57 251.25 204.50
  Q 251.83 211.08 245.23 210.50
  Q 241.86 210.20 238.47 210.40
  C 233.16 210.72 217.96 207.77 213.60 211.73
  C 210.72 214.33 212.45 217.96 215.60 219.33
  Z
  M 226.82 123.19
  C 219.56 120.22 217.90 125.22 217.64 131.18
  Q 217.27 139.39 217.44 147.60
  C 217.63 157.50 216.73 167.76 217.15 177.93
  Q 217.32 182.19 218.58 184.17
  C 221.81 189.30 230.30 186.58 230.00 180.25
  Q 229.27 164.83 229.59 152.19
  C 229.80 144.15 230.84 135.47 229.52 126.63
  Q 229.15 124.14 226.82 123.19
  Z"
/>
<path fill="#2546a0" d="
  M 319.06 101.25
  C 321.26 97.98 338.25 99.41 342.51 99.46
  C 348.18 99.54 348.93 101.64 348.72 106.74
  Q 348.18 119.87 347.75 125.00
  C 346.64 138.16 364.52 126.97 369.64 137.25
  C 371.60 141.16 371.31 144.37 371.22 148.61
  Q 370.51 180.33 372.42 212.01
  Q 372.96 221.03 368.94 227.69
  C 365.58 233.24 357.78 231.96 352.13 232.21
  C 343.86 232.57 335.65 231.94 327.39 231.77
  C 324.00 231.70 320.59 232.28 319.79 228.29
  C 319.28 225.72 319.80 219.97 320.00 216.00
  C 320.56 205.06 319.47 192.40 319.59 182.34
  C 319.78 164.72 320.69 146.59 319.84 129.26
  Q 319.24 117.16 318.18 104.66
  Q 318.02 102.80 319.06 101.25
  Z
  M 341.18 151.45
  Q 340.03 153.10 339.99 155.11
  Q 339.72 167.11 340.03 179.47
  C 340.25 188.29 339.76 198.23 340.13 207.63
  Q 340.27 211.22 341.07 212.73
  C 343.22 216.79 350.04 215.80 351.90 211.93
  Q 352.76 210.14 352.72 205.93
  C 352.59 190.90 351.32 174.50 353.20 159.63
  C 353.76 155.19 352.04 149.03 346.71 148.52
  Q 343.43 148.21 341.18 151.45
  Z"
/>
<path fill="#ffffff" d="
  M 226.82 123.19
  Q 229.15 124.14 229.52 126.63
  C 230.84 135.47 229.80 144.15 229.59 152.19
  Q 229.27 164.83 230.00 180.25
  C 230.30 186.58 221.81 189.30 218.58 184.17
  Q 217.32 182.19 217.15 177.93
  C 216.73 167.76 217.63 157.50 217.44 147.60
  Q 217.27 139.39 217.64 131.18
  C 217.90 125.22 219.56 120.22 226.82 123.19
  Z"
/>
<path fill="#ffffff" d="
  M 341.18 151.45
  Q 343.43 148.21 346.71 148.52
  C 352.04 149.03 353.76 155.19 353.20 159.63
  C 351.32 174.50 352.59 190.90 352.72 205.93
  Q 352.76 210.14 351.90 211.93
  C 350.04 215.80 343.22 216.79 341.07 212.73
  Q 340.27 211.22 340.13 207.63
  C 339.76 198.23 340.25 188.29 340.03 179.47
  Q 339.72 167.11 339.99 155.11
  Q 340.03 153.10 341.18 151.45
  Z"
/>
<path fill="#161151" d="
  M 93.50 241.72
  Q 97.53 243.82 102.00 243.75
  Q 124.25 243.40 144.33 243.94
  C 156.65 244.27 169.40 243.61 182.00 243.75
  Q 184.92 243.78 188.25 241.54
  Q 190.36 242.71 192.50 241.54
  C 196.93 243.84 200.18 243.45 204.97 243.53
  Q 224.31 243.86 243.66 243.99
  C 267.01 244.14 292.59 245.17 320.54 244.23
  Q 327.64 244.00 334.75 244.53
  C 339.79 244.92 344.96 244.49 349.75 244.75
  C 356.86 245.13 370.39 246.20 375.96 241.75
  Q 379.00 242.38 382.04 241.75
  Q 385.65 244.57 389.00 244.50
  Q 425.24 243.77 461.48 243.52
  Q 461.57 243.52 467.51 243.76
  C 470.77 243.88 474.35 243.25 477.17 243.21
  Q 494.34 242.95 503.00 243.50
  Q 507.33 243.78 510.67 241.82
  L 529.10 241.99
  A 0.91 0.88 0.3 0 1 530.00 242.87
  L 529.98 257.12
  Q 520.58 256.64 511.19 256.71
  Q 491.97 256.85 471.32 257.28
  A 1.21 1.21 2.7 0 0 470.14 258.35
  Q 470.01 259.55 469.04 258.00
  C 465.23 244.07 448.98 245.20 443.84 257.81
  C 442.12 255.19 436.42 255.78 433.56 255.81
  A 1.04 0.84 13.8 0 0 432.75 256.19
  Q 432.37 256.75 432.29 257.50
  L 432.20 249.81
  A 0.70 0.69 -82.8 0 0 431.70 249.15
  Q 430.23 248.73 428.73 249.11
  A 0.68 0.62 83.5 0 0 428.26 249.76
  L 428.21 254.25
  Q 421.46 253.35 414.79 254.75
  L 412.04 249.63
  A 0.98 0.69 71.6 0 0 411.32 249.10
  L 407.79 249.09
  A 0.60 0.54 -90.0 0 0 407.25 249.69
  L 407.21 258.00
  L 397.56 258.14
  A 0.67 0.54 -4.6 0 1 396.92 257.71
  L 396.29 255.00
  Q 396.24 252.39 396.50 251.25
  C 397.29 247.76 392.20 248.57 392.04 250.00
  L 391.95 254.19
  A 0.38 0.38 8.9 0 1 391.46 254.54
  Q 389.45 254.00 386.50 254.00
  Q 371.69 254.01 365.26 254.23
  A 0.65 0.62 -8.4 0 1 364.61 253.77
  L 364.27 252.52
  Q 365.59 249.14 361.51 248.95
  A 1.42 1.38 1.2 0 0 360.03 250.33
  L 360.02 260.03
  Q 353.82 260.99 345.69 260.94
  Q 344.16 260.93 343.79 262.50
  L 343.75 249.88
  A 0.89 0.85 89.7 0 0 342.89 248.99
  L 339.81 249.04
  A 0.54 0.51 -89.4 0 0 339.30 249.57
  L 339.21 257.75
  Q 334.01 256.03 328.79 257.75
  C 327.25 246.06 312.25 244.54 306.89 254.49
  L 298.04 253.87
  L 298.00 249.58
  A 0.58 0.56 -90.0 0 0 297.44 249.00
  L 273.52 249.00
  A 0.52 0.52 90.0 0 0 273.00 249.52
  C 273.00 250.81 272.29 254.53 274.25 254.04
  C 271.67 254.50 270.12 254.92 267.22 254.88
  Q 263.86 254.83 260.79 256.25
  L 258.60 249.78
  A 0.96 0.92 87.9 0 0 257.96 249.16
  Q 256.35 248.72 254.73 249.12
  A 0.92 0.87 -86.7 0 0 254.08 249.73
  L 249.20 264.82
  Q 243.62 265.16 238.00 265.02
  C 236.46 264.98 235.17 265.68 234.29 263.75
  L 234.47 249.77
  A 0.77 0.72 -90.0 0 0 233.74 248.99
  L 230.56 249.04
  A 0.54 0.53 -89.4 0 0 230.03 249.57
  L 230.01 253.60
  L 213.79 254.00
  L 213.76 249.52
  A 0.53 0.51 89.4 0 0 213.25 249.00
  L 210.01 249.00
  A 0.51 0.51 0.0 0 0 209.50 249.51
  L 209.51 260.58
  Q 204.46 258.92 199.24 260.13
  A 0.64 0.56 -17.1 0 1 198.52 259.81
  L 198.29 259.25
  L 198.40 249.82
  A 0.72 0.61 -82.0 0 0 197.97 249.14
  C 197.04 248.85 193.98 248.45 194.04 250.00
  L 194.01 254.49
  A 0.31 0.30 -75.4 0 1 193.56 254.76
  C 189.88 252.79 178.60 254.04 174.29 254.75
  L 172.50 249.58
  A 0.77 0.68 79.1 0 0 171.82 249.05
  L 168.67 249.10
  A 0.83 0.61 -78.1 0 0 168.03 249.67
  L 166.21 255.15
  Q 159.93 253.27 153.25 253.97
  Q 150.53 254.25 147.96 253.50
  L 151.01 249.98
  A 0.52 0.50 -63.1 0 0 150.75 249.13
  Q 148.51 248.68 146.05 249.20
  A 1.56 1.32 -72.5 0 0 145.24 249.71
  L 130.88 267.06
  Q 130.56 267.45 130.56 266.94
  L 130.50 249.88
  A 0.88 0.87 -90.0 0 0 129.63 249.00
  L 126.78 249.00
  A 0.54 0.54 0.2 0 0 126.24 249.54
  L 126.22 254.52
  C 110.63 254.74 95.05 254.45 79.47 254.62
  Q 74.24 254.69 69.01 254.23
  L 69.00 242.78
  A 0.83 0.80 -0.4 0 1 69.82 241.98
  L 93.50 241.72
  Z"
/>
<path fill="#ffffff" d="
  M 328.79 257.75
  L 328.99 259.44
  A 0.53 0.49 -2.2 0 1 328.44 259.99
  L 325.68 259.90
  A 0.74 0.60 83.7 0 1 325.09 259.32
  C 322.90 249.56 308.04 251.66 310.63 260.79
  Q 311.20 262.80 313.38 263.57
  L 325.76 267.94
  Q 331.14 272.81 329.79 279.75
  C 328.50 285.55 324.39 288.77 318.43 288.99
  Q 308.42 289.36 305.29 278.75
  L 305.07 275.55
  A 0.50 0.49 -2.1 0 1 305.57 275.02
  L 307.93 275.05
  A 1.15 1.09 81.5 0 1 308.99 275.88
  C 314.40 294.09 334.87 277.34 322.03 272.02
  C 316.19 269.60 310.75 269.36 307.25 263.96
  Q 305.35 259.30 306.89 254.49
  C 312.25 244.54 327.25 246.06 328.79 257.75
  Z"
/>
<path fill="#ffffff" d="
  M 469.04 258.00
  C 470.92 260.16 467.09 260.51 465.94 260.83
  A 0.69 0.68 -14.8 0 1 465.09 260.34
  Q 463.73 255.06 459.64 253.58
  C 451.61 250.66 446.38 259.16 446.89 266.26
  Q 445.99 269.04 446.78 270.46
  Q 446.75 276.25 449.19 279.81
  C 454.31 287.29 463.44 284.00 465.44 275.94
  Q 465.94 273.89 469.35 274.59
  Q 470.22 277.98 468.35 281.12
  C 462.97 294.17 446.41 290.24 443.36 277.28
  Q 440.72 267.34 443.84 257.81
  C 448.98 245.20 465.23 244.07 469.04 258.00
  Z"
/>
<path fill="#ffffff" d="
  M 147.96 253.50
  Q 143.45 258.72 138.94 263.94
  Q 137.89 265.15 139.52 266.49
  L 145.54 276.50
  L 152.00 287.32
  Q 152.31 287.84 151.76 287.84
  L 147.19 287.90
  A 1.01 0.75 71.4 0 1 146.44 287.38
  L 135.73 268.76
  A 0.38 0.37 51.1 0 0 135.13 268.69
  L 130.89 273.43
  A 1.35 1.29 66.8 0 0 130.56 274.31
  L 130.44 287.19
  A 0.67 0.47 -89.6 0 1 129.96 287.86
  L 126.76 287.78
  A 0.64 0.53 -89.6 0 1 126.24 287.14
  L 126.21 283.25
  L 126.23 273.78
  L 126.21 260.25
  L 126.22 254.52
  L 126.24 249.54
  A 0.54 0.54 -0.2 0 1 126.78 249.00
  L 129.63 249.00
  A 0.88 0.87 90.0 0 1 130.50 249.88
  L 130.56 266.94
  Q 130.56 267.45 130.88 267.06
  L 145.24 249.71
  A 1.56 1.32 -72.5 0 1 146.05 249.20
  Q 148.51 248.68 150.75 249.13
  A 0.52 0.50 -63.1 0 1 151.01 249.98
  L 147.96 253.50
  Z"
/>
<path fill="#ffffff" d="
  M 174.29 254.75
  L 178.29 266.50
  L 181.79 277.00
  L 185.34 287.28
  A 0.46 0.38 78.7 0 1 185.01 287.88
  L 181.46 287.83
  A 1.61 1.30 79.8 0 1 180.17 286.71
  L 176.98 276.67
  A 0.74 0.69 80.9 0 0 176.31 276.15
  L 164.45 276.15
  A 0.74 0.67 -80.7 0 0 163.79 276.67
  L 160.46 287.34
  A 0.84 0.82 -86.3 0 1 159.82 287.92
  Q 158.05 288.25 156.30 287.82
  A 0.47 0.47 15.6 0 1 155.96 287.22
  L 159.46 276.25
  L 162.39 266.62
  L 166.21 255.15
  L 168.03 249.67
  A 0.83 0.61 -78.1 0 1 168.67 249.10
  L 171.82 249.05
  A 0.77 0.68 79.1 0 1 172.50 249.58
  L 174.29 254.75
  Z
  M 170.10 255.49
  L 165.75 269.73
  A 0.98 0.93 -81.0 0 0 166.62 271.00
  L 174.68 271.00
  A 0.48 0.48 81.0 0 0 175.13 270.37
  L 170.48 255.49
  Q 170.29 254.87 170.10 255.49
  Z"
/>
<path fill="#ffffff" d="
  M 198.29 259.25
  L 198.29 269.25
  L 198.29 281.25
  L 198.26 287.14
  A 0.64 0.54 89.6 0 1 197.73 287.78
  L 194.54 287.86
  A 0.66 0.44 -89.8 0 1 194.09 287.19
  L 194.21 275.25
  L 194.22 265.56
  L 194.04 250.00
  C 193.98 248.45 197.04 248.85 197.97 249.14
  A 0.72 0.61 -82.0 0 1 198.40 249.82
  L 198.29 259.25
  Z"
/>
<path fill="#ffffff" d="
  M 213.79 254.00
  L 213.75 264.49
  A 0.52 0.51 0.0 0 0 214.27 265.00
  L 229.33 265.00
  A 0.67 0.67 90.0 0 0 230.00 264.33
  L 230.01 253.60
  L 230.03 249.57
  A 0.54 0.53 -89.4 0 1 230.56 249.04
  L 233.74 248.99
  A 0.77 0.72 -90.0 0 1 234.47 249.77
  L 234.29 263.75
  L 234.29 273.25
  L 234.29 281.25
  L 234.34 287.38
  A 0.60 0.56 -90.0 0 1 233.78 287.98
  L 230.57 287.97
  A 0.53 0.51 90.0 0 1 230.06 287.44
  L 229.96 275.75
  L 229.87 270.69
  A 0.56 0.53 -0.5 0 0 229.31 270.17
  L 214.31 270.05
  A 0.51 0.50 -89.4 0 0 213.80 270.56
  L 213.76 276.28
  L 213.70 287.44
  A 0.54 0.52 -90.0 0 1 213.19 287.97
  L 210.02 287.99
  A 0.54 0.52 -90.0 0 1 209.50 287.45
  L 209.51 282.09
  L 209.46 270.00
  L 209.51 260.58
  L 209.50 249.51
  A 0.51 0.51 0.0 0 1 210.01 249.00
  L 213.25 249.00
  A 0.53 0.51 89.4 0 1 213.76 249.52
  L 213.79 254.00
  Z"
/>
<path fill="#ffffff" d="
  M 260.79 256.25
  L 262.30 260.71
  L 268.50 278.54
  L 271.33 287.29
  A 0.44 0.37 79.1 0 1 271.01 287.86
  L 267.18 287.91
  A 0.81 0.63 79.1 0 1 266.53 287.34
  L 263.12 276.79
  A 1.13 1.12 81.1 0 0 262.05 276.00
  L 250.51 276.00
  A 0.72 0.69 8.2 0 0 249.83 276.49
  L 246.57 287.21
  A 0.93 0.85 -87.6 0 1 245.95 287.83
  Q 244.12 288.31 242.30 287.83
  A 0.51 0.47 -75.0 0 1 241.97 287.21
  L 243.50 281.79
  L 246.29 273.25
  L 249.20 264.82
  L 254.08 249.73
  A 0.92 0.87 -86.7 0 1 254.73 249.12
  Q 256.35 248.72 257.96 249.16
  A 0.96 0.92 87.9 0 1 258.60 249.78
  L 260.79 256.25
  Z
  M 256.03 255.80
  L 251.63 270.06
  A 0.73 0.69 -81.0 0 0 252.28 271.00
  L 260.65 271.00
  A 0.51 0.50 81.3 0 0 261.12 270.34
  L 256.57 255.80
  Q 256.30 254.94 256.03 255.80
  Z"
/>
<path fill="#ffffff" d="
  M 298.04 253.87
  L 288.33 253.99
  A 0.58 0.56 0.0 0 0 287.75 254.55
  L 287.79 264.75
  L 287.79 280.75
  L 287.76 287.27
  A 0.68 0.60 -89.1 0 1 287.15 287.94
  L 283.92 287.90
  A 0.60 0.51 89.4 0 1 283.41 287.31
  L 283.21 278.00
  L 283.21 261.00
  L 283.25 254.52
  A 0.52 0.52 90.0 0 0 282.73 254.00
  L 274.25 254.04
  C 272.29 254.53 273.00 250.81 273.00 249.52
  A 0.52 0.52 -90.0 0 1 273.52 249.00
  L 297.44 249.00
  A 0.58 0.56 -90.0 0 1 298.00 249.58
  L 298.04 253.87
  Z"
/>
<path fill="#ffffff" d="
  M 343.79 262.50
  L 343.78 270.87
  Q 343.48 275.34 344.25 278.00
  C 346.74 286.56 358.53 286.16 359.50 276.75
  Q 360.02 271.70 359.96 270.75
  L 360.02 260.03
  L 360.03 250.33
  A 1.42 1.38 1.2 0 1 361.51 248.95
  Q 365.59 249.14 364.27 252.52
  L 364.25 266.27
  L 364.04 276.50
  L 363.25 281.21
  Q 358.69 291.60 347.75 288.50
  Q 341.35 286.69 339.96 279.50
  L 339.21 266.50
  L 339.21 257.75
  L 339.30 249.57
  A 0.54 0.51 -89.4 0 1 339.81 249.04
  L 342.89 248.99
  A 0.89 0.85 89.7 0 1 343.75 249.88
  L 343.79 262.50
  Z"
/>
<path fill="#ffffff" d="
  M 396.29 255.00
  L 396.29 271.25
  L 396.25 287.15
  A 0.64 0.55 89.1 0 1 395.72 287.79
  L 392.54 287.86
  A 0.66 0.43 -89.8 0 1 392.10 287.19
  L 392.21 279.25
  L 392.21 275.25
  L 392.23 265.47
  L 392.04 250.00
  C 392.20 248.57 397.29 247.76 396.50 251.25
  Q 396.24 252.39 396.29 255.00
  Z"
/>
<path fill="#ffffff" d="
  M 414.79 254.75
  L 427.79 279.02
  Q 428.25 279.86 428.25 278.90
  L 428.21 254.25
  L 428.26 249.76
  A 0.68 0.62 83.5 0 1 428.73 249.11
  Q 430.23 248.73 431.70 249.15
  A 0.70 0.69 -82.8 0 1 432.20 249.81
  L 432.29 257.50
  L 432.29 277.25
  L 432.09 287.32
  A 0.60 0.51 -89.4 0 1 431.58 287.91
  L 428.18 287.91
  A 1.00 0.65 70.5 0 1 427.47 287.36
  L 423.25 279.46
  L 411.90 258.38
  Q 411.50 257.64 411.50 258.48
  L 411.54 279.75
  L 411.50 287.25
  A 0.68 0.64 83.9 0 1 411.02 287.89
  Q 409.39 288.28 407.78 287.84
  A 0.68 0.64 -82.8 0 1 407.31 287.19
  L 407.21 270.00
  L 407.21 258.00
  L 407.25 249.69
  A 0.60 0.54 90.0 0 1 407.79 249.09
  L 411.32 249.10
  A 0.98 0.69 71.6 0 1 412.04 249.63
  L 414.79 254.75
  Z"
/>
<path fill="#191b62" d="
  M 194.04 250.00
  L 194.22 265.56
  Q 186.21 265.40 178.29 266.50
  L 174.29 254.75
  C 178.60 254.04 189.88 252.79 193.56 254.76
  A 0.31 0.30 -75.4 0 0 194.01 254.49
  L 194.04 250.00
  Z"
/>
<path fill="#191b62" d="
  M 392.04 250.00
  L 392.23 265.47
  L 364.25 266.27
  L 364.27 252.52
  L 364.61 253.77
  A 0.65 0.62 -8.4 0 0 365.26 254.23
  Q 371.69 254.01 386.50 254.00
  Q 389.45 254.00 391.46 254.54
  A 0.38 0.38 8.9 0 0 391.95 254.19
  L 392.04 250.00
  Z"
/>
<path fill="#191e65" d="
  M 328.79 257.75
  Q 334.01 256.03 339.21 257.75
  L 339.21 266.50
  Q 332.11 265.59 325.76 267.94
  L 313.38 263.57
  Q 311.20 262.80 310.63 260.79
  C 308.04 251.66 322.90 249.56 325.09 259.32
  A 0.74 0.60 83.7 0 0 325.68 259.90
  L 328.44 259.99
  A 0.53 0.49 -2.2 0 0 328.99 259.44
  L 328.79 257.75
  Z"
/>
<path fill="#191e65" d="
  M 469.04 258.00
  Q 470.01 259.55 470.14 258.35
  A 1.21 1.21 2.7 0 1 471.32 257.28
  Q 491.97 256.85 511.19 256.71
  Q 520.58 256.64 529.98 257.12
  L 529.96 266.50
  Q 524.97 266.08 510.81 266.06
  Q 478.85 266.02 446.89 266.26
  C 446.38 259.16 451.61 250.66 459.64 253.58
  Q 463.73 255.06 465.09 260.34
  A 0.69 0.68 -14.8 0 0 465.94 260.83
  C 467.09 260.51 470.92 260.16 469.04 258.00
  Z"
/>
<path fill="#191b62" d="
  M 230.01 253.60
  L 230.00 264.33
  A 0.67 0.67 -89.8 0 1 229.33 265.00
  L 214.27 265.00
  A 0.52 0.51 -0.0 0 1 213.75 264.49
  L 213.79 254.00
  L 230.01 253.60
  Z"
/>
<path fill="#191b62" d="
  M 147.96 253.50
  Q 150.53 254.25 153.25 253.97
  Q 159.93 253.27 166.21 255.15
  L 162.39 266.62
  Q 151.01 264.59 139.52 266.49
  Q 137.89 265.15 138.94 263.94
  Q 143.45 258.72 147.96 253.50
  Z"
/>
<path fill="#191b62" d="
  M 306.89 254.49
  Q 305.35 259.30 307.25 263.96
  L 287.79 264.75
  L 287.75 254.55
  A 0.58 0.56 0.0 0 1 288.33 253.99
  L 298.04 253.87
  L 306.89 254.49
  Z"
/>
<path fill="#191e65" d="
  M 428.21 254.25
  L 428.25 278.90
  Q 428.25 279.86 427.79 279.02
  L 414.79 254.75
  Q 421.46 253.35 428.21 254.25
  Z"
/>
<path fill="#18185c" d="
  M 69.01 254.23
  Q 74.24 254.69 79.47 254.62
  C 95.05 254.45 110.63 254.74 126.22 254.52
  L 126.21 260.25
  Q 100.48 260.25 74.75 260.25
  Q 74.64 260.25 72.77 260.41
  Q 70.54 260.59 68.98 259.08
  L 69.01 254.23
  Z"
/>
<path fill="#18185c" d="
  M 274.25 254.04
  L 282.73 254.00
  A 0.52 0.52 -90.0 0 1 283.25 254.52
  L 283.21 261.00
  L 262.30 260.71
  L 260.79 256.25
  Q 263.86 254.83 267.22 254.88
  C 270.12 254.92 271.67 254.50 274.25 254.04
  Z"
/>
<path fill="#1c2572" d="
  M 170.10 255.49
  Q 170.29 254.87 170.48 255.49
  L 175.13 270.37
  A 0.48 0.48 81.0 0 1 174.68 271.00
  L 166.62 271.00
  A 0.98 0.93 -81.0 0 1 165.75 269.73
  L 170.10 255.49
  Z"
/>
<path fill="#1b226d" d="
  M 396.29 255.00
  L 396.92 257.71
  A 0.67 0.54 -4.6 0 0 397.56 258.14
  L 407.21 258.00
  L 407.21 270.00
  C 403.65 270.43 398.31 269.26 396.29 271.25
  L 396.29 255.00
  Z"
/>
<path fill="#1c2572" d="
  M 256.03 255.80
  Q 256.30 254.94 256.57 255.80
  L 261.12 270.34
  A 0.51 0.50 81.3 0 1 260.65 271.00
  L 252.28 271.00
  A 0.73 0.69 -81.0 0 1 251.63 270.06
  L 256.03 255.80
  Z"
/>
<path fill="#1c2572" d="
  M 443.84 257.81
  Q 440.72 267.34 443.36 277.28
  L 432.29 277.25
  L 432.29 257.50
  Q 432.37 256.75 432.75 256.19
  A 1.04 0.84 13.8 0 1 433.56 255.81
  C 436.42 255.78 442.12 255.19 443.84 257.81
  Z"
/>
<path fill="#1e2f83" d="
  M 423.25 279.46
  L 411.54 279.75
  L 411.50 258.48
  Q 411.50 257.64 411.90 258.38
  L 423.25 279.46
  Z"
/>
<path fill="#1c2572" d="
  M 68.98 259.08
  Q 70.54 260.59 72.77 260.41
  Q 74.64 260.25 74.75 260.25
  Q 100.48 260.25 126.21 260.25
  L 126.23 273.78
  Q 97.65 273.14 69.02 273.70
  L 68.98 259.08
  Z"
/>
<path fill="#1b226d" d="
  M 198.29 259.25
  L 198.52 259.81
  A 0.64 0.56 -17.1 0 0 199.24 260.13
  Q 204.46 258.92 209.51 260.58
  L 209.46 270.00
  Q 204.35 270.17 199.25 270.25
  Q 198.31 270.26 198.29 269.25
  L 198.29 259.25
  Z"
/>
<path fill="#1c2572" d="
  M 360.02 260.03
  L 359.96 270.75
  L 343.78 270.87
  L 343.79 262.50
  Q 344.16 260.93 345.69 260.94
  Q 353.82 260.99 360.02 260.03
  Z"
/>
<path fill="#1c2877" d="
  M 262.30 260.71
  L 283.21 261.00
  L 283.21 278.00
  Q 275.79 277.02 268.50 278.54
  L 262.30 260.71
  Z"
/>
<path fill="#1c2877" d="
  M 234.29 263.75
  C 235.17 265.68 236.46 264.98 238.00 265.02
  Q 243.62 265.16 249.20 264.82
  L 246.29 273.25
  Q 240.30 272.74 234.29 273.25
  L 234.29 263.75
  Z"
/>
<path fill="#1e2f83" d="
  M 307.25 263.96
  C 310.75 269.36 316.19 269.60 322.03 272.02
  C 334.87 277.34 314.40 294.09 308.99 275.88
  A 1.15 1.09 81.5 0 0 307.93 275.05
  L 305.57 275.02
  A 0.50 0.49 -2.1 0 0 305.07 275.55
  L 305.29 278.75
  C 301.89 281.74 292.62 278.15 287.79 280.75
  L 287.79 264.75
  L 307.25 263.96
  Z"
/>
<path fill="#1d2c7d" d="
  M 392.23 265.47
  L 392.21 275.25
  C 391.84 277.40 390.60 276.51 389.34 276.49
  Q 376.69 276.37 364.04 276.50
  L 364.25 266.27
  L 392.23 265.47
  Z"
/>
<path fill="#1d2c7d" d="
  M 194.22 265.56
  L 194.21 275.25
  Q 194.04 276.95 192.56 276.72
  Q 187.14 275.88 181.79 277.00
  L 178.29 266.50
  Q 186.21 265.40 194.22 265.56
  Z"
/>
<path fill="#1d2c7d" d="
  M 162.39 266.62
  L 159.46 276.25
  Q 152.48 275.70 145.54 276.50
  L 139.52 266.49
  Q 151.01 264.59 162.39 266.62
  Z"
/>
<path fill="#1c2877" d="
  M 529.96 266.50
  L 529.96 271.25
  Q 529.41 271.09 529.46 270.74
  A 0.37 0.28 -84.1 0 0 529.20 270.31
  L 446.78 270.46
  Q 445.99 269.04 446.89 266.26
  Q 478.85 266.02 510.81 266.06
  Q 524.97 266.08 529.96 266.50
  Z"
/>
<path fill="#1d2c7d" d="
  M 339.21 266.50
  L 339.96 279.50
  L 329.79 279.75
  Q 331.14 272.81 325.76 267.94
  Q 332.11 265.59 339.21 266.50
  Z"
/>
<path fill="#223d99" d="
  M 145.54 276.50
  Q 152.48 275.70 159.46 276.25
  L 155.96 287.22
  A 0.47 0.47 15.6 0 0 156.30 287.82
  Q 158.05 288.25 159.82 287.92
  A 0.84 0.82 -86.3 0 0 160.46 287.34
  L 163.79 276.67
  A 0.74 0.67 -80.7 0 1 164.45 276.15
  L 176.31 276.15
  A 0.74 0.69 80.9 0 1 176.98 276.67
  L 180.17 286.71
  A 1.61 1.30 79.8 0 0 181.46 287.83
  L 185.01 287.88
  A 0.46 0.38 78.7 0 0 185.34 287.28
  L 181.79 277.00
  Q 187.14 275.88 192.56 276.72
  Q 194.04 276.95 194.21 275.25
  L 194.09 287.19
  A 0.66 0.44 -89.8 0 0 194.54 287.86
  L 197.73 287.78
  A 0.64 0.54 89.6 0 0 198.26 287.14
  L 198.29 281.25
  Q 198.37 282.95 198.80 282.49
  A 1.53 0.43 -53.5 0 1 199.53 281.92
  Q 204.56 280.50 209.51 282.09
  L 209.50 287.45
  A 0.54 0.52 90.0 0 0 210.02 287.99
  L 213.19 287.97
  A 0.54 0.52 -90.0 0 0 213.70 287.44
  L 213.76 276.28
  L 229.96 275.75
  L 230.06 287.44
  A 0.53 0.51 90.0 0 0 230.57 287.97
  L 233.78 287.98
  A 0.60 0.56 -90.0 0 0 234.34 287.38
  L 234.29 281.25
  Q 234.48 283.01 234.86 282.16
  A 0.91 0.77 -82.1 0 1 235.43 281.65
  Q 239.46 280.77 243.50 281.79
  L 241.97 287.21
  A 0.51 0.47 -75.0 0 0 242.30 287.83
  Q 244.12 288.31 245.95 287.83
  A 0.93 0.85 -87.6 0 0 246.57 287.21
  L 249.83 276.49
  A 0.72 0.69 8.2 0 1 250.51 276.00
  L 262.05 276.00
  A 1.13 1.12 81.1 0 1 263.12 276.79
  L 266.53 287.34
  A 0.81 0.63 79.1 0 0 267.18 287.91
  L 271.01 287.86
  A 0.44 0.37 79.1 0 0 271.33 287.29
  L 268.50 278.54
  Q 275.79 277.02 283.21 278.00
  L 283.41 287.31
  A 0.60 0.51 89.4 0 0 283.92 287.90
  L 287.15 287.94
  A 0.68 0.60 -89.1 0 0 287.76 287.27
  L 287.79 280.75
  C 292.62 278.15 301.89 281.74 305.29 278.75
  Q 308.42 289.36 318.43 288.99
  C 324.39 288.77 328.50 285.55 329.79 279.75
  L 339.96 279.50
  Q 341.35 286.69 347.75 288.50
  Q 358.69 291.60 363.25 281.21
  Q 375.96 281.56 388.67 281.33
  C 390.42 281.29 392.09 282.24 392.21 279.25
  L 392.10 287.19
  A 0.66 0.43 -89.8 0 0 392.54 287.86
  L 395.72 287.79
  A 0.64 0.55 89.1 0 0 396.25 287.15
  L 396.29 271.25
  C 398.31 269.26 403.65 270.43 407.21 270.00
  L 407.31 287.19
  A 0.68 0.64 -82.8 0 0 407.78 287.84
  Q 409.39 288.28 411.02 287.89
  A 0.68 0.64 83.9 0 0 411.50 287.25
  L 411.54 279.75
  L 423.25 279.46
  L 427.47 287.36
  A 1.00 0.65 70.5 0 0 428.18 287.91
  L 431.58 287.91
  A 0.60 0.51 -89.4 0 0 432.09 287.32
  L 432.29 277.25
  L 443.36 277.28
  C 446.41 290.24 462.97 294.17 468.35 281.12
  Q 473.57 282.59 478.76 282.05
  A 1.05 0.61 58.7 0 1 479.49 282.45
  L 480.00 283.04
  L 480.00 287.30
  A 0.61 0.55 90.0 0 0 480.55 287.91
  L 483.82 287.91
  A 0.63 0.56 -88.4 0 0 484.38 287.31
  L 484.54 283.75
  C 486.02 281.61 487.44 282.01 489.72 281.99
  Q 509.84 281.86 529.96 282.23
  L 530.00 292.77
  A 1.24 1.23 -0.0 0 1 528.76 294.00
  L 69.68 294.00
  A 0.68 0.67 0.0 0 1 69.00 293.33
  L 69.01 282.37
  L 124.94 282.06
  A 0.75 0.59 76.5 0 1 125.55 282.54
  Q 125.74 283.01 126.21 283.25
  L 126.24 287.14
  A 0.64 0.53 -89.6 0 0 126.76 287.78
  L 129.96 287.86
  A 0.67 0.47 -89.6 0 0 130.44 287.19
  L 130.56 274.31
  A 1.35 1.29 66.8 0 1 130.89 273.43
  L 135.13 268.69
  A 0.38 0.37 51.1 0 1 135.73 268.76
  L 146.44 287.38
  A 1.01 0.75 71.4 0 0 147.19 287.90
  L 151.76 287.84
  Q 152.31 287.84 152.00 287.32
  L 145.54 276.50
  Z"
/>
<path fill="#203389" d="
  M 198.29 269.25
  Q 198.31 270.26 199.25 270.25
  Q 204.35 270.17 209.46 270.00
  L 209.51 282.09
  Q 204.56 280.50 199.53 281.92
  A 1.53 0.43 -53.5 0 0 198.80 282.49
  Q 198.37 282.95 198.29 281.25
  L 198.29 269.25
  Z"
/>
<path fill="#1e2f83" d="
  M 229.96 275.75
  L 213.76 276.28
  L 213.80 270.56
  A 0.51 0.50 -89.4 0 1 214.31 270.05
  L 229.31 270.17
  A 0.56 0.53 -0.5 0 1 229.87 270.69
  L 229.96 275.75
  Z"
/>
<path fill="#1e2f83" d="
  M 529.96 271.25
  L 529.99 274.63
  Q 499.66 273.72 469.35 274.59
  Q 465.94 273.89 465.44 275.94
  C 463.44 284.00 454.31 287.29 449.19 279.81
  Q 446.75 276.25 446.78 270.46
  L 529.20 270.31
  A 0.37 0.28 -84.1 0 1 529.46 270.74
  Q 529.41 271.09 529.96 271.25
  Z"
/>
<path fill="#203389" d="
  M 343.78 270.87
  L 359.96 270.75
  Q 360.02 271.70 359.50 276.75
  C 358.53 286.16 346.74 286.56 344.25 278.00
  Q 343.48 275.34 343.78 270.87
  Z"
/>
<path fill="#20368d" d="
  M 126.23 273.78
  L 126.21 283.25
  Q 125.74 283.01 125.55 282.54
  A 0.75 0.59 76.5 0 0 124.94 282.06
  L 69.01 282.37
  L 69.02 273.70
  Q 97.65 273.14 126.23 273.78
  Z"
/>
<path fill="#203389" d="
  M 246.29 273.25
  L 243.50 281.79
  Q 239.46 280.77 235.43 281.65
  A 0.91 0.77 -82.1 0 0 234.86 282.16
  Q 234.48 283.01 234.29 281.25
  L 234.29 273.25
  Q 240.30 272.74 246.29 273.25
  Z"
/>
<path fill="#20368d" d="
  M 529.99 274.63
  L 529.96 282.23
  Q 509.84 281.86 489.72 281.99
  C 487.44 282.01 486.02 281.61 484.54 283.75
  C 484.52 282.50 481.09 282.99 480.00 283.04
  L 479.49 282.45
  A 1.05 0.61 58.7 0 0 478.76 282.05
  Q 473.57 282.59 468.35 281.12
  Q 470.22 277.98 469.35 274.59
  Q 499.66 273.72 529.99 274.63
  Z"
/>
<path fill="#20368d" d="
  M 392.21 275.25
  L 392.21 279.25
  C 392.09 282.24 390.42 281.29 388.67 281.33
  Q 375.96 281.56 363.25 281.21
  L 364.04 276.50
  Q 376.69 276.37 389.34 276.49
  C 390.60 276.51 391.84 277.40 392.21 275.25
  Z"
/>
<path fill="#ffffff" d="
  M 480.00 283.04
  C 481.09 282.99 484.52 282.50 484.54 283.75
  L 484.38 287.31
  A 0.63 0.56 -88.4 0 1 483.82 287.91
  L 480.55 287.91
  A 0.61 0.55 -90.0 0 1 480.00 287.30
  L 480.00 283.04
  Z"
/>
</svg>
