<?xml version="1.0" encoding="UTF-8" standalone="no"?>
<!DOCTYPE svg PUBLIC "-//W3C//DTD SVG 1.1//EN" "http://www.w3.org/Graphics/SVG/1.1/DTD/svg11.dtd">
<svg xmlns="http://www.w3.org/2000/svg" version="1.1" viewBox="0 0 600 300">
<path stroke="#000000" stroke-width="2.00" fill="none" stroke-linecap="butt" vector-effect="non-scaling-stroke" d="
  M 288.54 208.25
  Q 288.45 208.63 288.54 209.00"
/>
<path fill="#000000" d="
  M 251.99 49.06
  A 1.41 1.25 -78.5 0 1 252.39 49.75
  C 252.88 51.73 244.93 50.45 243.61 50.68
  Q 240.99 51.13 237.47 53.45
  Q 228.15 59.55 218.56 65.22
  C 217.70 65.73 216.71 65.45 217.74 64.23
  Q 227.61 52.50 238.35 40.73
  Q 240.45 38.43 242.66 40.46
  L 251.99 49.06
  Z"
/>
<path fill="#000000" d="
  M 342.55 45.25
  A 0.94 0.94 -24.5 0 1 342.98 44.11
  Q 347.97 41.33 353.48 41.38
  C 357.75 41.41 359.88 43.71 362.63 46.55
  C 365.77 49.78 368.99 52.24 364.50 56.00
  C 361.36 58.63 357.55 61.28 354.41 56.49
  Q 351.03 51.32 346.09 47.61
  Q 345.73 47.34 345.18 47.24
  Q 343.14 46.87 342.55 45.25
  Z"
/>
<path fill="#000000" d="
  M 277.30 104.80
  C 286.19 102.37 299.39 102.59 297.75 116.00
  C 296.84 123.41 293.91 127.67 289.06 135.71
  C 280.92 149.22 272.93 160.96 259.99 168.28
  Q 257.43 169.73 255.43 169.91
  Q 252.49 170.18 254.68 168.20
  C 270.85 153.49 282.23 133.58 289.25 113.50
  C 293.13 102.41 277.47 110.44 274.83 112.36
  C 273.29 113.48 271.48 115.63 269.37 116.84
  A 1.00 1.00 -25.3 0 1 267.94 116.33
  C 264.09 106.42 274.77 90.82 280.79 83.56
  C 283.44 80.38 292.26 68.53 282.00 70.25
  Q 275.60 71.32 271.36 76.21
  C 269.74 78.08 267.13 81.01 265.32 77.67
  C 262.68 72.81 274.67 51.28 277.52 46.27
  C 281.26 39.72 285.33 45.33 287.72 48.83
  A 0.98 0.92 39.4 0 1 287.84 49.72
  Q 287.16 51.44 285.00 54.00
  C 282.70 56.73 273.83 66.61 273.56 69.61
  Q 273.41 71.28 274.68 70.19
  C 278.27 67.13 283.50 65.79 287.92 66.59
  C 293.85 67.65 296.29 72.99 292.43 78.07
  C 289.04 82.54 276.85 97.39 276.80 104.44
  A 0.39 0.38 -8.1 0 0 277.30 104.80
  Z"
/>
<path fill="#000000" d="
  M 375.48 67.86
  A 2.38 2.35 71.3 0 0 373.77 67.00
  C 358.98 66.32 343.70 74.35 332.19 83.44
  C 326.53 87.90 316.66 86.09 310.56 83.50
  Q 307.71 82.30 310.55 81.07
  C 328.34 73.37 347.24 65.21 366.01 60.38
  C 378.54 57.16 387.76 56.86 396.62 66.20
  C 398.09 67.75 399.91 69.31 397.94 71.44
  Q 393.79 75.91 387.94 72.31
  C 383.85 69.80 376.66 73.46 372.45 75.13
  Q 371.34 75.57 371.24 74.75
  C 370.92 72.23 377.68 70.55 375.48 67.86
  Z"
/>
<path fill="#000000" d="
  M 248.25 62.25
  C 252.40 63.02 257.00 64.25 260.10 67.35
  A 1.67 1.67 -42.4 0 1 259.99 69.81
  C 258.57 71.00 246.52 81.98 245.86 82.00
  C 244.09 82.05 251.12 69.81 251.56 69.07
  Q 252.61 67.30 250.83 65.87
  L 247.81 63.44
  Q 245.76 61.79 248.25 62.25
  Z"
/>
<path fill="#000000" d="
  M 241.11 66.97
  A 0.75 0.75 64.7 0 0 242.14 67.34
  Q 244.94 65.90 243.27 68.06
  C 240.20 72.01 241.00 76.35 240.00 80.76
  Q 239.37 83.51 237.44 81.58
  L 231.56 75.69
  Q 229.82 73.94 228.81 76.31
  Q 226.09 82.74 223.43 89.18
  C 221.54 93.74 218.44 91.75 216.72 88.86
  C 213.67 83.74 214.91 76.72 218.28 72.19
  Q 219.95 69.94 219.75 72.74
  C 219.18 80.55 223.28 76.17 225.87 74.80
  Q 228.72 73.30 233.00 72.25
  C 236.18 71.47 237.37 66.65 239.86 63.81
  A 1.19 0.71 -59.1 0 1 240.68 63.37
  C 241.82 63.46 240.82 66.28 241.11 66.97
  Z"
/>
<path fill="#000000" d="
  M 343.19 90.20
  A 0.48 0.48 -1.6 0 1 343.59 89.78
  C 349.49 88.78 352.12 86.25 357.07 83.66
  Q 368.67 77.60 378.10 86.22
  C 381.34 89.18 382.65 92.44 379.07 95.82
  C 375.45 99.24 372.95 102.70 370.75 107.13
  C 368.21 112.25 361.71 111.66 356.90 111.48
  A 0.86 0.86 1.3 0 0 356.00 112.34
  C 356.00 115.08 355.86 117.73 356.43 120.51
  Q 359.56 135.87 359.15 151.52
  C 358.98 158.00 357.35 161.24 351.35 163.49
  A 1.19 1.18 79.7 0 1 349.75 162.38
  C 349.75 155.05 350.04 148.86 343.41 144.22
  Q 342.44 143.54 343.55 143.07
  L 350.65 140.06
  Q 353.09 139.02 352.29 136.37
  Q 348.73 124.63 352.32 112.77
  A 1.18 1.17 -70.6 0 0 351.64 111.34
  Q 346.42 109.23 345.81 115.31
  C 345.42 119.21 342.71 119.33 340.74 116.51
  C 335.73 109.30 332.08 99.87 334.00 90.98
  Q 334.67 87.87 336.54 90.45
  Q 341.91 97.88 344.11 107.49
  A 0.87 0.87 -16.4 0 0 345.25 108.11
  C 350.77 106.12 357.26 106.92 361.98 100.97
  Q 365.74 96.23 369.45 91.42
  A 1.59 1.57 -44.3 0 0 369.48 89.53
  C 365.57 84.14 358.20 88.16 353.19 91.04
  C 351.72 91.89 342.74 93.86 343.19 90.20
  Z"
/>
<path fill="#000000" d="
  M 235.86 103.35
  Q 235.59 101.32 234.05 102.67
  Q 223.77 111.71 214.74 119.24
  C 211.23 122.16 206.38 122.61 202.38 121.35
  Q 199.92 120.58 201.89 118.91
  Q 217.55 105.56 234.40 93.20
  A 3.41 3.40 -14.2 0 0 235.76 90.93
  C 236.16 88.13 237.61 84.47 240.96 88.18
  A 3.63 3.58 -18.6 0 0 243.36 89.35
  Q 246.03 89.56 248.55 91.84
  A 1.30 1.29 -50.5 0 1 248.71 93.58
  L 242.04 102.47
  A 3.14 2.67 67.3 0 0 241.49 104.20
  L 241.33 118.68
  Q 241.32 119.54 242.01 119.06
  Q 245.81 116.42 249.57 114.11
  Q 251.78 112.74 250.65 114.60
  C 249.14 117.09 244.85 120.45 242.27 122.77
  A 2.28 2.28 -20.4 0 0 241.53 124.38
  Q 241.23 134.88 241.50 144.25
  C 241.60 147.83 241.96 153.73 239.95 156.32
  C 236.23 161.11 233.43 147.25 233.25 145.75
  Q 232.83 142.28 235.56 144.69
  Q 238.04 146.88 237.65 142.98
  Q 236.94 135.91 236.71 129.42
  Q 236.66 128.16 235.72 129.03
  L 219.08 144.36
  Q 217.21 146.08 216.58 143.55
  C 215.00 137.30 216.38 133.78 219.99 128.18
  C 221.73 125.50 236.01 104.45 235.86 103.35
  Z
  M 235.63 112.74
  Q 231.29 119.55 228.60 126.01
  Q 227.72 128.13 229.67 126.95
  L 235.26 123.56
  A 2.10 2.05 74.7 0 0 236.25 121.78
  L 236.25 112.93
  Q 236.25 111.77 235.63 112.74
  Z"
/>
<path fill="#000000" d="
  M 382.09 138.33
  Q 384.66 137.99 382.57 136.45
  C 378.27 133.26 375.91 129.20 370.79 127.36
  A 0.51 0.44 23.7 0 1 370.48 126.71
  Q 370.77 126.18 371.51 126.05
  Q 388.50 123.09 398.44 135.56
  C 400.27 137.86 398.83 141.42 397.20 143.51
  Q 394.63 146.81 389.98 144.53
  Q 383.08 141.14 376.06 144.38
  Q 373.16 145.73 370.64 145.35
  Q 368.44 145.02 370.19 143.65
  Q 376.01 139.14 382.09 138.33
  Z"
/>
<path fill="#000000" d="
  M 318.32 126.13
  Q 319.32 125.47 319.94 126.81
  C 323.59 134.70 329.62 130.77 334.40 127.36
  A 0.88 0.63 -42.2 0 1 335.27 127.26
  Q 335.91 127.69 335.19 128.69
  Q 328.31 138.22 323.86 149.08
  C 320.69 156.82 313.72 142.29 313.01 140.27
  Q 312.23 138.02 313.74 136.18
  Q 317.17 132.00 317.88 126.94
  A 1.27 0.87 84.1 0 1 318.32 126.13
  Z"
/>
<path fill="#000000" d="
  M -0.01 237.53
  L 0.00 179.32
  L 102.19 179.06
  A 1.43 1.43 -25.6 0 1 103.08 179.37
  Q 105.31 181.17 106.92 183.57
  Q 120.10 203.26 104.81 221.81
  C 102.36 224.79 101.38 224.25 97.23 224.25
  Q 63.22 224.25 28.44 224.25
  A 0.78 0.74 -89.6 0 0 27.70 225.02
  L 27.48 237.43
  A 0.56 0.53 -0.0 0 1 26.93 237.95
  Q 13.45 238.38 -0.01 237.53
  Z
  M 27.65 206.03
  A 0.41 0.40 90.0 0 0 28.05 206.44
  L 85.55 206.50
  Q 87.23 206.50 88.24 205.16
  Q 91.74 200.52 87.16 197.08
  A 1.60 1.59 63.6 0 0 86.19 196.75
  L 28.50 196.75
  A 0.78 0.76 90.0 0 0 27.74 197.53
  L 27.65 206.03
  Z"
/>
<path fill="#000000" d="
  M 143.26 195.37
  Q 143.00 196.95 143.43 198.70
  A 0.65 0.64 -6.8 0 0 144.06 199.19
  L 214.07 199.25
  A 3.63 3.59 -25.3 0 1 216.34 200.05
  C 229.73 210.93 229.68 226.39 216.29 237.21
  A 3.57 3.57 25.5 0 1 214.05 238.00
  L 117.25 238.00
  A 0.69 0.68 0.0 0 1 116.56 237.32
  L 116.51 222.96
  A 0.77 0.76 0.0 0 1 117.29 222.19
  L 198.63 222.25
  A 0.90 0.77 0.6 0 0 199.53 221.50
  L 199.61 218.29
  A 0.68 0.47 0.4 0 0 198.93 217.81
  L 128.24 217.75
  A 1.57 1.47 -25.5 0 1 127.35 217.47
  C 112.90 207.08 113.39 190.60 126.77 179.74
  A 3.33 3.30 25.2 0 1 128.86 179.00
  L 219.09 179.00
  A 0.66 0.66 0.0 0 1 219.75 179.66
  L 219.75 194.02
  A 0.91 0.91 0.3 0 1 218.83 194.93
  L 143.99 194.75
  A 0.74 0.74 4.6 0 0 143.26 195.37
  Z"
/>
<path fill="#000000" d="
  M 257.57 180.04
  C 254.98 185.27 252.89 190.89 250.27 196.44
  A 0.99 0.99 -77.1 0 1 249.38 197.00
  L 223.23 197.00
  A 0.46 0.45 11.8 0 1 222.81 196.37
  L 229.96 179.64
  A 1.07 1.05 11.2 0 1 230.94 179.00
  L 256.92 179.00
  A 0.72 0.72 13.2 0 1 257.57 180.04
  Z"
/>
<path fill="#000000" d="
  M 288.54 208.25
  Q 288.45 208.63 288.54 209.00
  L 288.50 237.33
  A 0.67 0.67 -0.2 0 1 287.83 238.00
  L 261.67 238.00
  A 0.92 0.92 0.1 0 1 260.75 237.08
  L 260.75 179.66
  A 0.66 0.66 -0.2 0 1 261.41 179.00
  L 287.82 179.00
  A 0.69 0.68 90.0 0 1 288.50 179.69
  L 288.54 208.25
  Z"
/>
<path fill="#000000" d="
  M 288.54 209.00
  Q 288.45 208.63 288.54 208.25
  Q 288.97 208.25 290.56 207.31
  Q 313.60 193.80 336.66 180.32
  Q 338.51 179.25 340.63 179.18
  Q 357.19 178.66 373.72 179.25
  Q 374.44 179.27 373.82 179.65
  L 327.37 208.18
  A 0.55 0.55 0.0 0 0 327.37 209.12
  L 373.43 237.11
  Q 374.79 237.93 373.21 237.94
  L 340.38 238.00
  A 5.80 5.57 59.1 0 1 337.52 237.22
  Q 314.16 223.61 290.30 209.77
  C 289.71 209.43 289.49 208.82 288.54 209.00
  Z"
/>
<path fill="#000000" d="
  M 457.44 213.56
  Q 423.68 213.46 389.92 213.49
  C 378.30 213.51 374.75 212.99 374.75 200.72
  Q 374.75 190.60 374.75 179.76
  A 0.76 0.76 0.0 0 1 375.51 179.00
  L 400.08 179.00
  A 0.67 0.67 0.2 0 1 400.75 179.67
  L 400.75 196.40
  A 0.85 0.85 -0.2 0 0 401.60 197.25
  L 457.34 197.25
  A 0.66 0.66 0.1 0 0 458.00 196.59
  L 458.00 179.94
  A 0.94 0.94 0.0 0 1 458.94 179.00
  L 482.65 179.00
  A 0.85 0.85 -0.0 0 1 483.50 179.85
  Q 483.54 202.42 483.46 225.28
  C 483.43 233.13 481.61 238.00 473.00 238.00
  Q 424.50 238.00 375.68 238.00
  A 1.13 1.09 -89.7 0 1 374.59 236.86
  L 374.74 222.27
  A 0.52 0.51 -90.0 0 1 375.25 221.75
  Q 412.25 221.75 448.50 221.91
  Q 452.24 221.93 455.86 221.45
  Q 457.93 221.17 457.94 219.20
  L 457.96 214.07
  A 0.52 0.51 0.0 0 0 457.44 213.56
  Z"
/>
<path fill="#000000" d="
  M 600.00 191.06
  L 600.00 228.56
  C 599.61 235.97 595.13 237.73 588.24 237.79
  Q 560.61 238.02 503.50 238.00
  C 496.41 238.00 488.34 238.03 488.07 228.76
  Q 487.52 210.00 488.30 191.26
  C 488.61 184.05 490.94 179.00 498.75 179.00
  Q 543.00 179.00 587.25 179.00
  Q 599.75 179.00 600.00 191.06
  Z
  M 574.25 199.54
  A 2.29 2.29 0.0 0 0 571.96 197.25
  L 517.54 197.25
  A 2.29 2.29 0.0 0 0 515.25 199.54
  L 515.25 217.46
  A 2.29 2.29 0.0 0 0 517.54 219.75
  L 571.96 219.75
  A 2.29 2.29 0.0 0 0 574.25 217.46
  L 574.25 199.54
  Z"
/>
<rect fill="#000000" x="229.76" y="199.22" width="27.74" height="38.78" rx="0.57"/>
</svg>
