<?xml version="1.0" encoding="UTF-8" standalone="no"?>
<!DOCTYPE svg PUBLIC "-//W3C//DTD SVG 1.1//EN" "http://www.w3.org/Graphics/SVG/1.1/DTD/svg11.dtd">
<svg xmlns="http://www.w3.org/2000/svg" version="1.1" viewBox="0 0 600 300">
<path fill="#000000" d="
  M 580.89 69.00
  A 2.07 2.05 -88.4 0 1 582.73 67.25
  Q 589.00 66.65 595.25 67.25
  C 598.18 67.53 599.19 68.21 599.18 71.37
  Q 599.12 93.04 598.76 114.25
  A 2.52 2.51 -12.3 0 1 597.32 116.47
  Q 592.95 118.53 589.49 118.42
  Q 569.56 117.78 549.62 118.22
  C 546.03 118.30 543.84 118.88 540.42 117.05
  A 2.69 2.69 14.1 0 1 539.00 114.68
  L 539.00 70.23
  Q 539.00 67.94 541.28 67.69
  C 544.93 67.30 552.33 66.48 555.84 67.42
  C 558.84 68.21 558.29 70.71 558.23 73.34
  Q 557.94 86.87 557.35 100.39
  C 557.06 107.13 556.60 107.62 563.46 107.78
  Q 571.00 107.96 578.32 107.58
  Q 580.75 107.45 580.75 105.01
  C 580.75 95.00 580.93 84.96 580.57 74.96
  Q 580.46 71.89 580.89 69.00
  Z"
/>
<path fill="#000000" d="
  M 335.94 68.92
  A 1.53 1.52 -78.2 0 1 337.34 68.00
  Q 364.25 67.85 391.25 67.53
  C 393.35 67.50 397.61 66.74 400.45 67.66
  Q 402.10 68.19 402.17 69.93
  Q 402.56 79.90 401.75 87.76
  A 1.38 1.38 -87.0 0 1 400.38 89.00
  L 381.73 89.00
  Q 378.55 89.00 378.57 92.19
  L 378.69 114.75
  A 2.36 2.35 -15.5 0 1 377.52 116.80
  C 371.86 120.09 363.38 119.61 357.93 116.79
  A 1.24 1.21 13.5 0 1 357.26 115.72
  L 357.01 92.19
  Q 356.98 89.53 354.33 89.59
  L 338.09 89.94
  Q 335.65 89.99 335.50 87.51
  C 335.22 82.95 334.24 72.92 335.94 68.92
  Z"
/>
<path fill="#000000" d="
  M 69.38 116.31
  C 66.08 118.50 59.54 118.15 55.62 116.37
  Q 53.46 115.40 54.28 113.16
  L 61.75 92.99
  Q 62.68 90.50 60.01 90.50
  C 56.22 90.50 48.76 89.01 47.17 93.51
  Q 43.46 103.99 39.84 114.01
  A 3.64 3.63 -2.7 0 1 37.97 116.06
  C 32.42 118.63 26.27 119.59 20.87 115.72
  A 1.58 1.58 -62.7 0 1 20.29 113.90
  Q 27.05 94.41 33.87 74.83
  C 34.84 72.04 37.00 68.30 40.15 67.77
  C 45.37 66.89 53.25 67.75 58.95 67.75
  Q 60.93 67.75 61.31 69.70
  C 61.36 69.94 61.23 79.55 64.18 74.71
  C 66.02 71.69 67.28 67.75 71.73 67.94
  C 79.74 68.28 87.92 68.00 95.94 68.00
  C 98.74 68.00 101.11 67.74 101.00 71.50
  Q 100.35 92.87 100.50 114.14
  A 2.23 2.23 -12.5 0 1 99.20 116.18
  Q 92.86 119.09 85.56 116.50
  A 2.43 2.43 -84.4 0 1 83.97 114.56
  Q 83.39 110.38 84.00 106.00
  Q 84.38 103.28 83.72 92.56
  A 1.41 1.22 -72.3 0 0 83.35 91.69
  C 80.93 89.17 79.34 91.78 78.56 93.93
  C 76.96 98.35 72.69 114.12 69.38 116.31
  Z"
/>
<path fill="#000000" d="
  M 163.80 108.43
  C 166.18 109.36 163.97 113.78 163.31 115.46
  A 2.28 2.25 2.1 0 1 161.85 116.80
  C 158.74 117.74 156.07 118.27 152.66 118.20
  Q 136.94 117.86 121.21 117.76
  C 117.40 117.73 114.48 117.83 110.83 116.44
  Q 109.11 115.79 109.06 113.95
  C 108.91 107.38 108.18 99.92 110.72 93.74
  Q 115.41 82.33 119.82 70.80
  Q 120.87 68.05 123.81 67.99
  Q 142.65 67.58 162.03 67.74
  C 168.14 67.79 167.84 68.11 168.04 73.91
  Q 168.29 80.84 168.00 87.77
  A 1.54 1.52 -89.0 0 1 166.49 89.25
  L 134.70 89.49
  Q 131.96 89.51 131.07 91.93
  L 126.16 105.28
  Q 124.85 108.83 128.74 108.75
  L 161.80 108.06
  Q 162.79 108.04 163.80 108.43
  Z"
/>
<path fill="#000000" d="
  M 485.99 120.17
  L 489.34 121.29
  Q 491.18 121.90 491.19 123.80
  L 491.25 148.78
  Q 491.25 150.83 493.17 151.48
  C 494.66 151.99 497.35 151.75 498.70 151.75
  Q 513.40 151.75 528.11 151.75
  C 533.40 151.75 532.44 154.20 532.62 158.03
  C 532.83 162.23 534.42 171.83 529.25 171.70
  Q 503.36 171.10 477.47 171.25
  C 474.01 171.27 472.75 171.31 472.75 167.35
  Q 472.75 146.02 472.75 123.81
  A 1.54 1.53 -15.8 0 1 473.49 122.50
  Q 477.68 120.00 481.50 120.00
  Q 482.03 120.00 482.04 119.56
  A 0.59 0.47 -0.1 0 0 481.44 119.08
  Q 478.19 119.13 475.37 117.56
  Q 474.98 117.35 474.44 117.29
  Q 472.74 117.12 472.75 115.50
  C 472.80 106.35 470.98 95.04 476.31 87.06
  C 480.15 81.33 483.67 74.76 488.23 70.05
  C 490.70 67.49 492.88 67.75 496.25 67.75
  Q 512.03 67.75 527.81 67.75
  C 531.16 67.75 532.73 67.83 532.67 71.78
  Q 532.55 79.39 532.25 87.02
  Q 532.16 89.23 529.98 89.25
  L 499.31 89.57
  A 1.00 0.96 17.3 0 0 498.51 89.97
  C 496.23 93.08 491.01 101.32 491.03 105.75
  Q 491.05 110.72 490.94 115.71
  A 1.80 1.74 80.9 0 1 489.80 117.34
  L 485.98 118.76
  Q 483.98 119.50 485.99 120.17
  Z"
/>
<path fill="#000000" d="
  M 233.39 68.67
  A 1.38 1.37 -79.5 0 1 234.25 69.93
  Q 234.30 76.26 234.26 82.75
  C 234.22 88.58 234.11 88.72 228.25 88.76
  Q 215.13 88.84 202.00 89.00
  C 198.44 89.04 196.21 97.23 194.99 100.25
  Q 193.59 103.70 193.29 106.46
  C 192.88 110.16 194.90 116.46 190.63 117.79
  Q 183.84 119.91 177.62 117.32
  Q 176.08 116.67 176.04 115.00
  C 175.88 108.54 175.29 102.05 177.49 96.06
  Q 180.64 87.50 186.56 72.81
  Q 188.46 68.11 193.25 68.08
  Q 211.25 68.00 229.25 67.78
  Q 231.11 67.75 233.39 68.67
  Z"
/>
<path fill="#000000" d="
  M 263.25 91.25
  Q 261.25 90.38 261.25 93.25
  L 261.25 114.21
  Q 261.25 116.00 259.65 116.80
  Q 252.48 120.41 244.88 116.54
  A 1.09 1.05 7.7 0 1 244.32 115.83
  Q 243.72 113.18 243.69 107.69
  Q 243.57 88.87 243.32 71.05
  Q 243.28 68.01 246.32 68.00
  Q 259.13 67.96 271.39 68.04
  C 276.56 68.08 279.03 70.98 280.69 75.56
  Q 289.73 100.59 294.10 114.26
  A 1.38 1.20 51.9 0 1 294.05 115.21
  C 291.56 120.55 282.28 118.51 277.90 117.05
  Q 276.00 116.41 275.33 114.52
  C 272.91 107.69 270.23 94.28 263.25 91.25
  Z"
/>
<path fill="#000000" d="
  M 426.05 109.44
  L 461.83 108.99
  Q 464.13 108.96 464.25 111.26
  C 464.50 115.77 458.99 118.56 455.50 118.50
  Q 435.37 118.18 415.24 118.47
  C 412.85 118.51 410.42 117.89 408.59 116.69
  A 2.80 2.78 15.8 0 1 407.32 114.43
  C 407.11 107.14 406.33 98.13 409.75 92.25
  Q 418.55 77.10 420.25 73.50
  C 422.11 69.55 424.02 68.27 428.60 68.23
  Q 444.05 68.09 459.49 68.01
  C 464.03 67.98 466.92 67.62 466.25 73.75
  Q 466.04 75.70 465.79 82.82
  C 465.58 88.77 465.92 88.95 459.72 89.01
  Q 447.38 89.12 435.67 89.48
  Q 433.00 89.56 431.82 91.93
  L 424.41 106.86
  Q 423.11 109.48 426.05 109.44
  Z"
/>
<path fill="#000000" d="
  M 223.76 118.62
  Q 221.52 118.24 219.27 118.50
  Q 215.92 118.89 214.04 116.41
  A 1.03 1.02 34.6 0 1 213.87 115.51
  Q 214.76 112.38 218.25 112.46
  Q 224.93 112.60 231.60 112.78
  C 233.41 112.82 235.48 113.66 234.51 115.78
  C 233.20 118.63 226.23 119.03 223.76 118.62
  Z"
/>
<path fill="#000000" d="
  M 322.45 126.91
  Q 321.98 126.21 320.31 125.99
  A 1.06 0.92 -8.5 0 1 319.56 125.51
  C 317.88 122.46 317.21 114.12 322.99 114.37
  C 329.35 114.64 335.52 114.45 341.54 114.92
  Q 344.25 115.14 344.25 117.85
  L 344.25 123.54
  A 1.93 1.92 81.4 0 1 342.90 125.38
  C 338.23 126.84 338.32 128.74 342.67 129.30
  C 344.77 129.57 343.36 130.96 342.22 131.18
  C 338.84 131.80 322.79 133.51 320.66 131.10
  Q 319.76 130.09 322.14 128.48
  A 1.15 1.14 56.3 0 0 322.45 126.91
  Z"
/>
<path fill="#000000" d="
  M 27.82 119.54
  C 30.85 120.00 37.77 120.28 35.81 125.73
  Q 24.59 156.89 21.31 167.31
  Q 20.16 170.98 16.75 170.85
  Q 10.36 170.61 4.00 171.23
  Q -1.16 171.74 0.68 166.93
  Q 9.06 145.07 17.06 123.07
  A 2.30 2.30 -85.8 0 1 18.75 121.61
  C 22.12 120.90 24.09 118.97 27.82 119.54
  Z"
/>
<path fill="#000000" d="
  M 126.21 129.64
  C 124.81 132.86 125.78 142.82 125.82 146.75
  C 125.86 150.75 128.10 150.28 131.07 150.24
  Q 146.78 150.03 162.50 150.00
  Q 165.29 149.99 167.03 151.04
  A 1.02 0.93 -78.2 0 1 167.48 151.81
  Q 168.15 158.83 168.02 165.89
  C 167.95 169.45 168.52 171.36 163.75 171.25
  Q 137.75 170.64 111.75 170.70
  Q 108.08 170.71 108.50 167.00
  Q 109.19 160.98 109.02 132.73
  C 108.98 125.71 107.84 120.73 116.25 120.50
  Q 141.89 119.81 152.50 119.75
  Q 157.08 119.73 160.16 121.89
  A 1.06 1.04 -74.4 0 1 160.60 122.69
  C 160.95 129.97 155.77 128.84 150.08 128.61
  Q 140.28 128.22 128.29 128.26
  A 2.27 2.26 -78.3 0 0 126.21 129.64
  Z"
/>
<path fill="#000000" d="
  M 176.44 122.73
  C 180.71 119.15 187.92 118.53 192.60 121.94
  A 1.05 1.01 -73.9 0 1 193.02 122.74
  Q 193.68 140.45 193.25 145.50
  C 192.98 148.69 194.34 149.45 197.32 149.56
  Q 205.39 149.84 213.47 149.78
  C 217.71 149.75 221.53 150.48 221.36 145.40
  C 221.21 141.20 221.35 137.08 221.07 133.18
  Q 220.87 130.44 218.02 130.50
  L 206.00 130.75
  Q 202.77 130.82 205.19 127.69
  C 206.67 125.77 208.15 122.43 210.61 121.75
  C 216.54 120.12 227.79 118.06 233.12 121.94
  Q 235.01 123.32 235.00 125.67
  Q 234.90 144.38 235.34 163.25
  C 235.46 168.79 232.06 170.19 227.01 170.18
  Q 203.25 170.15 179.50 170.67
  C 174.31 170.78 175.22 167.85 175.26 164.35
  Q 175.48 143.95 176.05 123.56
  A 1.13 1.09 71.2 0 1 176.44 122.73
  Z"
/>
<path fill="#000000" d="
  M 357.22 124.40
  A 2.49 2.46 75.6 0 1 358.21 122.70
  C 363.86 118.55 372.30 118.25 377.87 122.93
  A 1.47 1.46 13.5 0 1 378.37 123.74
  Q 378.75 125.57 378.75 128.75
  Q 378.75 148.88 378.75 168.50
  Q 378.75 171.25 376.00 171.25
  L 359.90 171.25
  Q 356.76 171.25 356.75 168.11
  Q 356.70 152.50 356.57 136.00
  Q 356.53 130.32 357.22 124.40
  Z"
/>
<path fill="#000000" d="
  M 451.10 119.94
  C 453.98 119.94 461.16 119.91 460.17 125.03
  C 459.55 128.23 458.67 130.00 455.00 130.00
  C 446.55 130.00 437.79 130.41 429.38 129.90
  Q 425.92 129.69 426.15 133.14
  C 426.48 138.23 426.48 143.98 426.15 149.07
  Q 425.91 152.59 430.00 152.50
  Q 446.25 152.14 464.07 151.99
  Q 467.03 151.96 467.11 154.74
  L 467.49 168.49
  Q 467.57 171.25 464.67 171.25
  Q 441.36 171.25 417.29 171.25
  C 415.22 171.25 411.52 171.95 409.17 171.26
  Q 406.63 170.52 406.72 167.87
  Q 407.45 146.47 407.26 125.90
  C 407.22 122.09 407.47 122.23 410.88 120.81
  Q 412.97 119.94 416.19 119.94
  Q 433.64 119.93 451.10 119.94
  Z"
/>
<path fill="#000000" d="
  M 66.55 121.31
  Q 68.67 122.34 67.90 124.56
  Q 60.97 144.61 54.79 164.47
  C 52.80 170.87 53.30 170.84 46.81 171.04
  Q 40.78 171.23 34.75 171.00
  Q 31.72 170.88 32.75 168.25
  L 49.85 124.61
  Q 50.50 122.96 52.07 122.21
  Q 60.28 118.29 66.55 121.31
  Z"
/>
<path fill="#000000" d="
  M 279.58 122.24
  C 282.44 118.04 292.54 120.02 296.51 122.35
  A 2.61 2.59 5.4 0 1 297.66 123.73
  Q 305.47 145.77 313.69 167.56
  Q 315.19 171.54 310.75 171.63
  Q 304.62 171.75 296.63 171.75
  Q 294.23 171.75 293.35 169.52
  Q 290.48 162.28 288.19 153.26
  Q 287.55 150.72 285.12 150.77
  L 273.48 151.00
  Q 270.56 151.06 269.93 148.38
  Q 268.41 141.89 266.94 134.81
  C 266.16 131.09 267.60 131.49 270.31 131.50
  C 273.70 131.52 282.92 133.45 279.31 126.10
  Q 278.32 124.09 279.58 122.24
  Z"
/>
<path fill="#000000" d="
  M 600.00 165.31
  L 600.00 168.56
  C 598.96 174.30 589.69 172.09 585.43 172.02
  C 579.32 171.92 578.91 172.18 579.02 165.74
  Q 579.40 141.23 580.00 135.75
  C 580.65 129.82 577.49 130.75 572.95 130.75
  Q 566.96 130.75 561.53 130.75
  Q 558.24 130.75 558.31 134.04
  Q 558.67 150.35 558.98 166.63
  C 559.07 171.06 558.87 172.08 554.03 171.86
  Q 546.02 171.49 543.25 171.75
  C 540.49 172.01 539.00 171.18 539.00 168.19
  Q 539.00 146.45 539.00 124.27
  A 2.58 2.53 73.8 0 1 540.16 122.12
  C 544.14 119.52 546.42 119.93 552.03 120.10
  Q 567.92 120.57 583.81 120.29
  C 589.21 120.20 592.68 119.23 597.75 122.06
  A 1.31 1.23 7.0 0 1 598.35 122.78
  Q 599.11 125.10 599.00 128.50
  Q 598.46 144.87 600.00 165.31
  Z"
/>
<path fill="#000000" d="
  M 99.03 122.17
  Q 100.47 123.03 100.49 124.72
  L 100.94 168.51
  Q 100.96 170.72 98.77 170.75
  L 85.06 170.94
  A 1.12 1.10 -20.2 0 1 84.22 170.56
  C 81.80 167.72 83.17 164.88 83.22 162.14
  Q 83.54 143.44 83.75 124.71
  A 2.63 2.63 74.4 0 1 84.98 122.52
  Q 92.13 118.05 99.03 122.17
  Z"
/>
<path fill="#000000" d="
  M 245.74 171.30
  Q 243.28 171.11 243.32 168.66
  L 243.99 124.77
  Q 244.01 122.97 245.63 122.16
  Q 253.18 118.35 260.14 122.54
  A 2.27 2.27 15.4 0 1 261.25 124.49
  Q 261.27 145.64 262.33 168.43
  Q 262.45 171.05 259.83 171.29
  Q 253.44 171.87 245.74 171.30
  Z"
/>
<path fill="#000000" d="
  M 389.66 204.50
  A 1.49 1.49 -9.6 0 0 391.07 205.50
  Q 409.00 205.50 425.75 205.53
  C 430.74 205.53 431.39 213.73 425.69 213.63
  Q 408.38 213.32 391.06 213.56
  A 1.08 0.99 17.2 0 0 390.23 213.95
  Q 388.49 216.16 389.60 219.57
  A 2.08 2.07 80.9 0 0 391.57 221.00
  Q 410.37 221.00 429.00 221.00
  C 431.99 221.00 431.99 223.45 432.26 226.01
  C 432.79 231.27 429.05 230.77 425.18 230.74
  Q 401.78 230.58 378.39 230.98
  C 374.59 231.05 372.19 231.51 372.25 226.50
  Q 372.46 208.37 372.74 191.10
  Q 372.78 188.42 375.44 188.44
  L 429.76 188.75
  A 1.76 1.75 -89.8 0 1 431.50 190.51
  L 431.50 195.67
  Q 431.50 198.25 428.92 198.25
  Q 413.47 198.25 398.16 197.83
  C 393.12 197.70 386.98 196.87 389.66 204.50
  Z"
/>
<path fill="#000000" d="
  M 108.56 221.69
  C 113.28 222.01 118.23 216.40 112.06 214.69
  Q 108.58 213.73 102.75 213.84
  Q 91.11 214.07 79.47 214.21
  C 72.05 214.29 61.48 211.25 61.37 201.94
  C 61.25 191.81 69.67 188.43 78.50 189.00
  C 87.86 189.60 104.79 188.26 117.98 189.47
  Q 126.49 190.26 127.94 198.31
  C 128.99 204.18 117.34 202.02 114.31 201.31
  A 1.48 1.36 75.5 0 1 113.51 200.79
  Q 110.25 196.63 104.75 196.54
  C 102.13 196.49 73.20 194.26 78.23 202.64
  C 79.69 205.08 83.32 204.75 86.00 204.75
  Q 100.28 204.75 114.56 204.75
  Q 120.33 204.75 122.84 205.65
  C 132.48 209.14 133.69 221.58 126.68 228.20
  Q 124.75 230.01 122.11 230.00
  Q 100.00 229.90 77.75 230.25
  C 70.06 230.37 62.37 229.63 61.00 220.50
  C 60.27 215.63 63.32 216.22 66.94 216.22
  Q 70.71 216.21 75.27 216.61
  Q 76.89 216.75 77.74 218.14
  C 79.89 221.61 83.38 221.31 87.19 221.22
  Q 97.89 220.97 108.56 221.69
  Z"
/>
<path fill="#000000" d="
  M 516.90 201.41
  C 514.03 202.36 501.05 221.37 498.48 224.97
  Q 496.82 227.29 494.93 229.19
  A 3.58 3.57 -67.6 0 1 492.39 230.25
  L 484.70 230.25
  Q 482.39 230.25 480.94 228.32
  L 461.49 202.30
  Q 458.78 198.68 458.75 203.23
  Q 458.68 214.27 459.22 225.29
  C 459.35 228.10 459.76 230.11 456.16 230.35
  Q 450.97 230.70 446.51 230.48
  Q 443.21 230.32 443.25 227.02
  Q 443.43 211.71 443.28 196.42
  C 443.24 192.40 442.49 188.64 447.37 188.88
  C 453.72 189.19 459.94 188.92 465.91 189.20
  Q 468.16 189.30 469.55 191.11
  L 486.48 213.12
  Q 488.15 215.29 489.84 213.13
  L 507.03 191.22
  Q 508.60 189.21 510.97 189.20
  L 532.06 189.06
  Q 533.93 189.05 534.00 190.99
  L 535.25 228.02
  Q 535.32 230.05 533.30 230.27
  C 529.47 230.68 525.69 230.37 521.81 230.37
  C 517.70 230.36 518.23 227.45 518.26 224.34
  Q 518.39 213.16 517.75 201.98
  A 0.65 0.64 -11.1 0 0 516.90 201.41
  Z"
/>
<path fill="#000000" d="
  M 206.94 190.09
  Q 210.55 190.41 207.95 192.93
  Q 197.38 203.13 186.81 213.31
  C 182.03 217.92 182.65 220.73 183.25 227.00
  C 183.79 232.56 180.23 231.98 175.89 232.01
  C 172.15 232.03 163.99 233.75 164.13 228.00
  Q 164.25 222.63 164.25 218.04
  Q 164.25 216.18 162.88 214.92
  L 138.92 192.80
  Q 135.56 189.70 140.13 189.39
  Q 144.99 189.06 151.50 189.25
  C 154.62 189.34 155.28 189.22 157.66 191.47
  Q 165.37 198.79 173.08 205.73
  Q 174.52 207.02 175.93 205.70
  Q 183.88 198.25 191.81 190.81
  C 193.94 188.82 204.40 189.86 206.94 190.09
  Z"
/>
<path fill="#000000" d="
  M 271.79 215.73
  A 2.67 2.66 76.2 0 0 269.76 214.50
  C 258.71 213.56 247.60 214.20 236.53 213.88
  C 217.07 213.31 216.30 189.25 236.00 189.25
  Q 254.38 189.25 272.75 189.25
  C 279.05 189.25 285.55 191.58 286.50 198.52
  Q 286.98 202.00 283.47 202.00
  C 279.34 202.00 272.82 203.27 269.69 199.81
  C 267.02 196.86 264.01 197.33 260.34 197.20
  Q 243.88 196.60 240.50 197.25
  C 236.61 198.00 235.29 204.32 239.75 204.75
  Q 251.02 205.84 270.19 204.81
  Q 274.02 204.61 278.78 206.11
  Q 283.67 207.65 285.74 210.38
  C 289.94 215.93 287.81 225.46 281.74 228.69
  Q 278.85 230.22 271.51 230.36
  Q 255.76 230.65 240.00 230.50
  C 231.59 230.42 220.39 229.43 221.75 218.23
  Q 221.99 216.25 223.99 216.25
  C 226.77 216.25 229.70 216.33 232.62 216.14
  C 237.41 215.82 237.80 221.01 243.25 221.00
  Q 255.00 221.00 267.78 221.00
  Q 269.16 221.00 270.41 220.43
  Q 273.80 218.87 271.79 215.73
  Z"
/>
<path fill="#000000" d="
  M 295.34 190.95
  Q 295.98 189.25 297.80 189.25
  Q 325.97 189.25 353.95 189.25
  C 360.12 189.25 362.31 190.10 361.29 196.98
  C 360.81 200.23 358.06 199.52 355.55 199.49
  C 349.94 199.41 344.11 199.86 338.55 199.55
  C 335.44 199.38 336.01 201.93 335.99 204.09
  Q 335.78 222.61 336.25 226.00
  C 337.20 232.84 327.64 231.23 323.50 231.21
  C 319.03 231.19 319.49 228.68 319.50 225.34
  Q 319.57 210.16 320.25 203.75
  Q 320.76 198.91 316.61 199.15
  C 310.72 199.50 304.66 199.23 298.75 199.17
  C 293.92 199.12 294.33 193.62 295.34 190.95
  Z"
/>
</svg>
