<?xml version="1.0" encoding="UTF-8" standalone="no"?>
<!DOCTYPE svg PUBLIC "-//W3C//DTD SVG 1.1//EN" "http://www.w3.org/Graphics/SVG/1.1/DTD/svg11.dtd">
<svg xmlns="http://www.w3.org/2000/svg" version="1.1" viewBox="0 0 600 223">
<path stroke="#103075" stroke-opacity="0.820" stroke-width="2.00" fill="none" stroke-linecap="butt" vector-effect="non-scaling-stroke" d="
  M 134.44 223.00
  Q 129.06 222.37 123.69 223.00"
/>
<path fill="#0b4199" d="
  M 114.31 0.00
  L 227.06 0.00
  Q 244.84 1.61 255.19 14.31
  C 274.17 37.63 258.93 73.40 228.25 74.25
  Q 216.24 74.58 167.73 74.07
  C 167.21 74.06 164.47 74.38 167.19 75.31
  C 197.32 85.60 220.12 115.58 219.78 147.98
  C 219.39 186.69 184.12 221.30 145.69 223.00
  L 134.44 223.00
  Q 129.06 222.37 123.69 223.00
  L 39.44 223.00
  C 19.39 222.62 0.88 207.80 0.00 186.94
  L 0.00 180.69
  Q 2.34 154.56 24.98 148.48
  Q 30.52 147.00 41.66 146.96
  Q 68.48 146.87 94.72 147.24
  Q 98.03 147.29 94.95 146.07
  C 58.03 131.47 38.42 100.29 44.81 60.56
  C 50.16 27.33 81.07 1.83 114.31 0.00
  Z"
/>
<path fill="#0b4199" d="
  M 342.56 0.00
  L 493.56 0.00
  C 509.53 1.32 523.99 11.77 527.36 27.57
  C 532.02 49.41 521.25 71.99 497.33 75.39
  Q 494.83 75.75 481.16 75.75
  Q 469.15 75.75 456.99 75.75
  A 0.99 0.99 -0.5 0 0 456.00 76.74
  Q 456.00 130.87 456.00 185.25
  C 456.00 202.12 445.67 214.30 430.10 220.47
  Q 416.15 226.01 403.81 218.69
  C 394.81 213.35 385.86 204.05 382.94 193.44
  Q 381.75 189.13 381.75 179.44
  Q 381.75 128.32 381.75 76.76
  A 0.96 0.95 0.3 0 0 380.80 75.81
  Q 369.37 75.74 357.74 75.74
  Q 341.01 75.74 337.80 75.09
  C 324.54 72.42 313.50 61.67 309.67 48.70
  Q 303.49 27.84 318.31 12.06
  Q 328.36 1.36 342.56 0.00
  Z"
/>
<path fill="#0b4199" d="
  M 345.95 223.03
  L 262.19 223.07
  Q 238.21 218.23 234.95 196.97
  Q 234.50 194.08 234.50 177.00
  Q 234.50 147.62 234.50 118.25
  C 234.50 101.78 248.01 89.64 263.97 89.44
  Q 304.18 88.94 344.38 89.45
  C 351.91 89.54 357.56 92.89 362.09 98.67
  C 371.60 110.78 366.20 122.71 354.90 130.63
  C 348.97 134.80 342.56 133.75 335.74 133.75
  Q 333.37 133.75 335.51 134.77
  C 353.49 143.34 353.11 166.51 335.80 175.95
  Q 334.15 176.85 336.03 176.98
  C 342.02 177.42 348.89 176.36 354.23 179.28
  C 375.50 190.94 368.09 218.38 345.95 223.03
  Z"
/>
<path fill="#0b4199" d="
  M 600.00 154.81
  L 600.00 199.56
  C 597.44 229.87 552.06 231.63 548.40 199.10
  A 1.18 1.18 84.0 0 0 547.12 198.06
  Q 536.03 199.07 524.69 198.10
  A 0.85 0.85 5.0 0 0 523.76 198.88
  C 522.58 212.72 513.45 221.42 499.87 222.79
  C 484.95 224.29 470.42 211.83 470.56 196.25
  Q 470.71 179.50 470.74 162.75
  Q 470.77 148.71 471.85 142.83
  C 477.62 111.54 505.57 88.36 537.74 89.45
  C 573.58 90.67 600.44 118.83 600.00 154.81
  Z
  M 522.19 147.44
  C 519.19 151.13 519.13 155.28 519.17 160.04
  C 519.27 171.27 543.49 168.12 549.08 165.49
  Q 551.25 164.47 551.25 162.07
  C 551.25 154.97 551.37 148.39 545.19 144.06
  Q 532.26 135.02 522.19 147.44
  Z"
/>
<path fill="#19163c" fill-opacity="0.635" d="
  M 134.44 223.00
  L 123.69 223.00
  Q 129.06 222.37 134.44 223.00
  Z"
/>
</svg>
