<?xml version="1.0" encoding="UTF-8" standalone="no"?>
<!DOCTYPE svg PUBLIC "-//W3C//DTD SVG 1.1//EN" "http://www.w3.org/Graphics/SVG/1.1/DTD/svg11.dtd">
<svg xmlns="http://www.w3.org/2000/svg" version="1.1" viewBox="0 0 600 300">
<path fill="#000000" d="
  M 413.76 156.56
  Q 413.95 156.41 414.06 156.06
  Q 427.75 114.62 448.18 55.15
  Q 453.66 39.21 455.19 36.44
  C 466.64 15.75 498.20 14.51 511.34 34.34
  Q 514.06 38.45 518.35 51.29
  Q 538.40 111.32 558.75 171.24
  A 0.39 0.39 -9.2 0 1 558.38 171.75
  L 475.55 171.69
  A 0.80 0.80 0.0 0 1 474.75 170.89
  L 474.75 152.19
  A 1.14 1.12 -0.3 0 1 475.88 151.07
  L 529.24 150.98
  A 0.62 0.61 80.6 0 0 529.81 150.17
  Q 512.84 99.51 495.27 48.44
  Q 493.53 43.37 491.38 41.37
  C 485.27 35.67 475.23 39.04 472.57 46.94
  Q 451.64 109.07 430.75 171.01
  A 1.09 1.09 -80.7 0 1 429.72 171.75
  Q 389.94 171.75 350.55 171.75
  Q 340.00 171.75 334.58 170.36
  C 318.43 166.22 305.35 152.02 303.67 134.75
  Q 303.50 132.95 303.50 122.74
  Q 303.50 92.50 303.50 62.25
  C 303.50 42.78 319.91 26.09 338.53 23.13
  Q 342.46 22.50 358.50 22.50
  Q 385.51 22.50 412.58 22.50
  A 0.92 0.92 -0.6 0 1 413.50 23.42
  L 413.50 42.51
  A 0.93 0.93 0.3 0 1 412.56 43.44
  Q 379.39 42.95 346.21 43.43
  C 336.73 43.57 329.06 47.76 325.69 56.87
  Q 324.25 60.77 324.22 68.81
  Q 324.11 99.49 324.45 130.17
  C 324.60 143.02 334.31 151.25 347.00 151.25
  Q 368.87 151.25 391.43 151.25
  A 1.32 1.32 0.0 0 0 392.75 149.93
  L 392.75 95.08
  A 0.51 0.51 -0.6 0 0 392.23 94.57
  L 355.55 94.74
  A 0.99 0.97 -89.4 0 1 354.58 93.73
  L 354.81 74.44
  A 0.63 0.62 -89.5 0 1 355.43 73.82
  L 411.98 73.75
  A 1.52 1.51 0.0 0 1 413.50 75.26
  L 413.32 156.20
  Q 413.32 156.94 413.76 156.56
  Z"
/>
<path fill="#000000" d="
  M 139.84 105.16
  C 156.76 119.42 146.50 146.10 124.25 146.16
  Q 92.00 146.25 59.81 146.25
  A 0.59 0.57 89.5 0 1 59.24 145.67
  L 59.07 126.32
  A 0.81 0.79 89.6 0 1 59.86 125.50
  L 124.88 125.50
  Q 127.36 125.50 127.45 123.02
  Q 127.54 120.70 124.75 120.65
  Q 116.00 120.50 107.25 120.32
  C 81.81 119.80 61.28 100.77 59.25 75.50
  C 56.86 45.75 80.34 22.39 109.75 22.44
  Q 141.37 22.50 173.01 22.50
  A 0.84 0.81 89.6 0 1 173.82 23.33
  L 173.92 42.50
  A 0.99 0.96 89.7 0 1 172.96 43.50
  Q 141.40 43.46 110.22 43.55
  Q 103.06 43.57 99.08 44.90
  C 70.43 54.53 75.35 97.04 106.00 99.50
  C 114.71 100.20 130.13 96.99 139.84 105.16
  Z"
/>
<path fill="#000000" d="
  M 204.49 128.58
  C 204.51 142.03 212.97 151.30 226.75 151.30
  Q 260.91 151.30 294.95 151.19
  A 0.55 0.54 0.0 0 1 295.50 151.73
  L 295.50 170.90
  A 0.85 0.85 -0.0 0 1 294.65 171.75
  Q 263.76 171.75 232.62 171.75
  Q 219.59 171.75 214.03 170.24
  C 200.10 166.47 188.73 154.94 185.08 140.84
  Q 183.75 135.72 183.75 124.04
  Q 183.75 96.95 183.75 69.85
  Q 183.75 58.66 185.18 53.28
  C 188.83 39.48 199.89 28.18 213.71 24.19
  Q 218.62 22.76 227.45 22.65
  Q 261.26 22.22 295.07 22.68
  A 0.52 0.50 0.6 0 1 295.58 23.18
  L 295.74 42.32
  A 0.95 0.92 -0.3 0 1 294.79 43.25
  Q 260.88 43.25 226.75 43.25
  C 213.47 43.25 204.59 51.84 204.55 64.95
  Q 204.46 96.76 204.49 128.58
  Z"
/>
<path fill="#000000" d="
  M 474.69 128.54
  C 474.68 128.54 461.41 167.49 460.10 171.21
  A 0.73 0.69 -79.9 0 1 459.44 171.70
  L 436.26 171.52
  A 0.37 0.37 9.5 0 1 435.91 171.03
  Q 456.27 110.76 476.72 50.53
  Q 478.10 46.47 480.07 44.79
  C 484.90 40.66 489.25 45.03 490.87 49.84
  Q 507.07 97.91 523.16 145.72
  A 0.46 0.45 80.7 0 1 522.73 146.32
  L 475.52 146.25
  A 0.79 0.77 0.7 0 1 474.73 145.46
  L 475.17 129.05
  A 0.49 0.41 86.3 0 0 474.69 128.54
  Z
  M 483.35 102.41
  L 476.62 122.36
  A 0.67 0.66 -80.5 0 0 477.24 123.25
  L 490.44 123.25
  A 0.59 0.59 80.8 0 0 491.00 122.47
  L 484.37 102.40
  Q 483.86 100.87 483.35 102.41
  Z"
/>
<path fill="#000000" d="
  M 231.00 73.93
  L 279.66 73.76
  A 0.79 0.78 -0.4 0 1 280.45 74.53
  L 280.75 93.93
  A 0.82 0.81 -0.3 0 1 279.93 94.75
  L 210.19 94.75
  A 0.69 0.69 0.0 0 1 209.50 94.06
  Q 209.50 80.55 209.50 67.08
  Q 209.50 61.31 210.81 58.11
  C 215.13 47.53 223.67 48.25 234.93 48.25
  Q 264.46 48.25 294.94 48.25
  A 0.81 0.81 0.0 0 1 295.75 49.06
  L 295.75 68.09
  A 0.91 0.91 0.4 0 1 294.84 69.00
  Q 265.46 69.00 236.40 69.00
  C 233.20 69.00 231.20 69.56 230.06 72.58
  A 1.00 0.99 10.2 0 0 231.00 73.93
  Z"
/>
<path fill="#000000" d="
  M 366.43 120.55
  L 355.37 120.51
  A 0.64 0.63 89.5 0 1 354.74 119.88
  L 354.68 100.02
  A 0.52 0.51 90.0 0 1 355.19 99.50
  L 387.07 99.50
  A 0.68 0.68 0.0 0 1 387.75 100.18
  L 387.75 145.44
  A 0.81 0.81 0.0 0 1 386.94 146.25
  Q 368.55 146.25 351.02 146.25
  C 336.93 146.25 329.38 142.43 329.28 127.42
  Q 329.06 96.04 329.45 64.65
  C 329.59 53.81 336.50 48.25 347.50 48.25
  Q 380.13 48.25 412.81 48.25
  A 0.69 0.69 0.0 0 1 413.50 48.94
  L 413.50 68.07
  A 0.93 0.93 0.0 0 1 412.57 69.00
  Q 384.25 69.00 355.50 69.03
  C 349.43 69.03 350.00 73.03 350.01 78.02
  Q 350.04 99.29 349.94 120.56
  C 349.90 127.38 361.51 124.87 364.75 125.50
  C 367.93 126.12 367.33 122.73 367.04 121.05
  A 0.62 0.59 -4.3 0 0 366.43 120.55
  Z"
/>
<path fill="#000000" d="
  M 60.19 150.93
  Q 92.69 151.20 124.00 150.82
  C 163.97 150.32 162.54 92.91 120.50 94.75
  C 114.33 95.02 105.28 95.31 99.41 92.93
  C 76.14 83.48 82.60 48.38 107.75 48.43
  Q 139.88 48.50 173.10 48.50
  A 0.73 0.72 90.0 0 1 173.82 49.23
  L 173.69 68.09
  A 0.93 0.92 0.0 0 1 172.76 69.01
  L 107.25 69.24
  A 1.36 1.26 21.2 0 0 106.37 69.59
  Q 104.08 71.79 106.65 73.66
  A 1.64 1.35 -22.4 0 0 107.56 73.94
  Q 116.78 74.05 126.00 74.13
  C 148.69 74.34 167.56 90.25 172.75 112.00
  C 180.03 142.52 155.91 172.24 124.75 171.97
  Q 92.78 171.70 59.97 171.82
  A 0.74 0.73 89.6 0 1 59.24 171.09
  L 59.18 151.94
  A 1.01 1.00 -89.7 0 1 60.19 150.93
  Z"
/>
<path fill="#000000" d="
  M 230.10 121.07
  C 230.50 124.90 233.38 125.50 236.88 125.50
  Q 265.35 125.50 294.64 125.50
  A 0.86 0.86 0.4 0 1 295.50 126.36
  L 295.50 145.34
  A 0.66 0.66 -0.2 0 1 294.84 146.00
  Q 262.81 146.00 231.07 146.00
  C 221.62 146.00 214.75 145.26 210.93 136.67
  Q 209.57 133.62 209.54 127.99
  Q 209.46 114.40 209.50 100.30
  A 0.55 0.55 0.8 0 1 210.05 99.75
  L 280.18 99.75
  A 0.57 0.56 0.5 0 1 280.75 100.32
  L 280.45 119.94
  A 0.51 0.50 -0.0 0 1 279.94 120.44
  L 230.55 120.56
  A 0.46 0.45 87.1 0 0 230.10 121.07
  Z"
/>
<path fill="#000000" d="
  M 141.18 204.73
  C 140.17 208.54 143.66 209.85 146.85 210.29
  Q 184.59 215.53 193.50 216.50
  C 211.38 218.45 234.98 225.00 231.75 248.50
  C 228.50 272.10 200.84 277.06 181.77 278.50
  Q 153.70 280.62 128.00 276.50
  C 111.60 273.87 96.82 266.63 94.40 247.97
  A 1.30 1.30 86.3 0 1 95.69 246.50
  L 144.42 246.50
  A 1.03 1.01 -9.1 0 1 145.39 247.19
  C 147.58 253.63 150.76 254.29 157.40 255.05
  C 162.52 255.64 182.48 257.16 181.40 247.20
  C 180.91 242.73 175.12 241.39 171.26 240.93
  Q 148.23 238.16 125.25 235.00
  C 109.60 232.85 95.69 225.60 96.03 207.54
  C 96.70 172.32 159.46 176.06 180.84 178.23
  C 195.89 179.76 207.58 182.30 218.92 190.75
  Q 219.59 191.25 219.58 190.41
  L 219.52 180.77
  A 0.77 0.76 -0.4 0 1 220.29 180.00
  L 339.58 180.00
  A 0.67 0.67 0.2 0 1 340.25 180.67
  L 340.25 203.59
  A 0.67 0.66 0.0 0 1 339.58 204.25
  L 301.70 204.31
  A 0.71 0.70 -90.0 0 0 301.00 205.02
  L 301.00 275.22
  A 0.78 0.78 0.0 0 1 300.22 276.00
  L 259.45 275.94
  A 0.71 0.70 -90.0 0 1 258.75 275.23
  L 258.75 205.06
  A 0.81 0.81 0.0 0 0 257.94 204.25
  Q 243.16 204.25 229.49 204.25
  C 227.00 204.25 226.28 203.85 227.04 206.83
  A 1.29 1.28 82.8 0 1 225.80 208.44
  L 178.56 208.44
  A 0.64 0.61 83.5 0 1 177.96 207.94
  C 175.68 197.54 157.82 198.41 149.94 199.44
  C 146.39 199.90 142.18 200.91 141.18 204.73
  Z"
/>
<path fill="#000000" d="
  M 445.32 241.20
  Q 445.62 242.01 445.93 241.20
  L 469.22 180.56
  A 0.87 0.86 10.2 0 1 470.03 180.00
  L 514.98 180.00
  A 0.63 0.63 13.1 0 1 515.55 180.91
  L 468.20 275.54
  A 0.84 0.83 13.1 0 1 467.45 276.00
  L 424.28 276.00
  A 1.22 1.22 76.5 0 1 423.19 275.33
  L 375.93 181.04
  A 0.72 0.72 -13.5 0 1 376.57 180.00
  L 421.26 180.00
  A 1.15 1.14 -10.4 0 1 422.33 180.73
  L 445.32 241.20
  Z"
/>
<rect fill="#000000" x="333.00" y="224.50" width="54.50" height="23.50" rx="0.63"/>
</svg>
