<?xml version="1.0" encoding="UTF-8" standalone="no"?>
<!DOCTYPE svg PUBLIC "-//W3C//DTD SVG 1.1//EN" "http://www.w3.org/Graphics/SVG/1.1/DTD/svg11.dtd">
<svg xmlns="http://www.w3.org/2000/svg" version="1.1" viewBox="0 0 600 300">
<g stroke-width="2.00" fill="none" stroke-linecap="butt">
<path stroke="#ff6900" vector-effect="non-scaling-stroke" d="
  M 330.38 120.09
  Q 320.84 124.96 311.31 123.94
  Q 296.60 122.37 296.79 107.00
  Q 296.91 97.41 301.57 89.06"
/>
<path stroke="#b70801" stroke-opacity="0.922" vector-effect="non-scaling-stroke" d="
  M 314.50 127.79
  L 307.75 128.04"
/>
<path stroke="#b77a01" stroke-opacity="0.922" vector-effect="non-scaling-stroke" d="
  M 314.25 128.46
  L 307.75 128.46"
/>
<path stroke="#ff6900" vector-effect="non-scaling-stroke" d="
  M 295.54 96.75
  Q 295.51 103.62 292.46 109.75"
/>
<path stroke="#ff6900" vector-effect="non-scaling-stroke" d="
  M 285.25 118.04
  C 273.91 124.08 262.22 122.74 249.52 122.82
  A 0.63 0.63 6.2 0 1 248.90 122.05
  L 257.21 83.75"
/>
<path stroke="#ffd200" vector-effect="non-scaling-stroke" d="
  M 260.00 126.54
  Q 261.28 127.32 262.75 127.21"
/>
<path stroke="#ff6900" vector-effect="non-scaling-stroke" d="
  M 288.21 156.75
  L 288.00 169.71"
/>
<path stroke="#ffd200" vector-effect="non-scaling-stroke" d="
  M 268.75 208.79
  Q 267.12 209.35 266.00 210.71"
/>
<path stroke="#ff6900" vector-effect="non-scaling-stroke" d="
  M 266.00 210.71
  Q 249.24 222.27 229.66 221.27
  C 207.07 220.12 192.45 208.75 193.50 183.75
  Q 194.41 161.93 205.85 145.61"
/>
<path stroke="#b77a01" stroke-opacity="0.922" vector-effect="non-scaling-stroke" d="
  M 235.00 127.46
  L 238.75 126.54"
/>
<path stroke="#ff6900" vector-effect="non-scaling-stroke" d="
  M 323.21 173.00
  L 323.09 179.09
  Q 323.08 179.70 323.34 179.14
  L 345.21 132.64"
/>
<path stroke="#ff6900" vector-effect="non-scaling-stroke" d="
  M 375.54 175.00
  L 375.19 178.70
  Q 375.00 180.68 375.84 178.85
  L 397.23 132.65"
/>
<path stroke="#ff6900" vector-effect="non-scaling-stroke" d="
  M 380.25 219.04
  L 346.39 218.76
  A 1.14 1.09 0.5 0 1 345.25 217.65
  L 345.69 184.31
  Q 345.71 182.26 344.81 184.06
  L 341.37 190.95"
/>
<path stroke="#ff6900" vector-effect="non-scaling-stroke" d="
  M 324.46 219.00
  L 292.69 218.77
  A 0.97 0.96 0.3 0 1 291.73 217.81
  L 292.46 132.25"
/>
<path stroke="#ff6900" vector-effect="non-scaling-stroke" d="
  M 262.72 126.63
  L 260.00 126.54"
/>
<path stroke="#ff6900" vector-effect="non-scaling-stroke" d="
  M 260.00 126.54
  Q 252.29 125.31 244.92 125.79"
/>
<path stroke="#ff6900" vector-effect="non-scaling-stroke" d="
  M 240.29 126.25
  L 238.75 126.54"
/>
<path stroke="#b70801" stroke-opacity="0.922" vector-effect="non-scaling-stroke" d="
  M 238.75 126.54
  L 234.75 126.79"
/>
<path stroke="#ff6900" vector-effect="non-scaling-stroke" d="
  M 266.00 210.71
  L 266.75 210.79"
/>
<path stroke="#b70801" stroke-opacity="0.922" vector-effect="non-scaling-stroke" d="
  M 192.79 167.25
  L 193.96 164.75"
/>
<path stroke="#ff6900" vector-effect="non-scaling-stroke" d="
  M 232.83 93.11
  L 234.81 98.11
  Q 235.03 98.66 235.16 98.07
  L 238.25 83.79"
/>
<path stroke="#ff6900" vector-effect="non-scaling-stroke" d="
  M 241.25 122.79
  L 230.68 122.59
  A 0.81 0.74 78.5 0 1 229.99 122.09
  L 222.93 104.80
  Q 222.42 103.54 222.15 104.86
  L 220.46 113.16"
/>
<path stroke="#ff6900" vector-effect="non-scaling-stroke" d="
  M 215.25 122.96
  L 205.39 122.94
  A 0.79 0.73 5.9 0 1 204.61 122.05
  L 213.21 83.75"
/>
<path stroke="#b77a01" stroke-opacity="0.922" vector-effect="non-scaling-stroke" d="
  M 193.25 164.71
  Q 192.59 165.89 192.79 167.25"
/>
<path stroke="#ff6900" vector-effect="non-scaling-stroke" d="
  M 192.79 167.25
  L 191.71 170.25"
/>
<path stroke="#ff6900" vector-effect="non-scaling-stroke" d="
  M 180.26 186.05
  Q 166.07 195.63 149.50 195.75
  Q 139.19 195.82 136.44 195.92
  A 0.72 0.57 2.1 0 0 135.77 196.41
  L 135.25 199.96"
/>
<path stroke="#ff6900" vector-effect="non-scaling-stroke" d="
  M 128.50 218.79
  L 99.78 218.75
  A 0.42 0.42 5.7 0 1 99.37 218.25
  Q 107.48 178.32 115.75 138.75
  Q 116.54 134.98 116.71 132.50"
/>
<path stroke="#ff6900" vector-effect="non-scaling-stroke" d="
  M 494.50 153.54
  L 461.55 153.50
  A 1.83 1.79 -84.8 0 0 459.78 155.01
  L 459.29 157.75"
/>
<path stroke="#ff6900" vector-effect="non-scaling-stroke" d="
  M 481.50 183.79
  L 454.25 183.98
  A 0.70 0.60 3.9 0 0 453.59 184.47
  L 453.04 187.75"
/>
<path stroke="#ff6900" vector-effect="non-scaling-stroke" d="
  M 481.25 218.79
  L 414.06 218.75
  A 0.62 0.62 6.3 0 1 413.45 217.99
  L 432.01 132.35"
/>
<path stroke="#ff6900" vector-effect="non-scaling-stroke" d="
  M 203.50 91.79
  L 189.81 91.80
  A 0.68 0.66 7.2 0 0 189.16 92.29
  C 188.94 93.10 187.81 96.35 190.00 95.71"
/>
<path stroke="#dd9604" vector-effect="non-scaling-stroke" d="
  M 190.00 95.71
  L 202.00 95.71"
/>
<path stroke="#ff6900" vector-effect="non-scaling-stroke" d="
  M 202.00 95.71
  L 202.60 95.74"
/>
<path stroke="#ff6900" vector-effect="non-scaling-stroke" d="
  M 199.56 106.34
  Q 192.74 105.45 186.68 106.36
  A 0.81 0.61 -2.3 0 0 186.02 106.90
  L 185.41 110.54"
/>
<path stroke="#ff6900" vector-effect="non-scaling-stroke" d="
  M 197.50 122.79
  L 167.64 122.75
  A 0.30 0.29 6.2 0 1 167.35 122.40
  L 175.68 83.80"
/>
<path stroke="#dd2d04" vector-effect="non-scaling-stroke" d="
  M 202.00 95.71
  Q 196.00 94.89 190.00 95.71"
/>
<path stroke="#ff6900" vector-effect="non-scaling-stroke" d="
  M 173.25 83.71
  Q 172.48 88.32 170.75 92.57"
/>
<path stroke="#ff6900" vector-effect="non-scaling-stroke" d="
  M 168.25 92.29
  L 160.25 92.45
  A 0.72 0.67 5.6 0 0 159.57 92.97
  L 158.79 96.50"
/>
<path stroke="#ff6900" vector-effect="non-scaling-stroke" d="
  M 150.25 123.04
  L 138.50 122.80
  A 0.67 0.64 6.1 0 1 137.85 122.03
  L 144.04 92.94
  A 0.53 0.52 -83.2 0 0 143.54 92.30
  L 133.16 92.25
  A 0.77 0.72 -84.0 0 1 132.47 91.34
  L 133.96 83.50"
/>
<path stroke="#ff6900" vector-effect="non-scaling-stroke" d="
  M 111.77 93.13
  L 113.70 98.01
  Q 113.93 98.60 114.07 97.95
  L 117.21 83.75"
/>
<path stroke="#ff6900" vector-effect="non-scaling-stroke" d="
  M 131.46 83.25
  L 128.79 96.50"
/>
<path stroke="#ff6900" vector-effect="non-scaling-stroke" d="
  M 119.75 123.04
  L 109.93 122.79
  A 1.32 1.17 -8.9 0 1 108.77 122.05
  L 101.81 104.92
  Q 101.24 103.52 100.94 104.99
  L 99.34 112.90"
/>
<path stroke="#ff6900" vector-effect="non-scaling-stroke" d="
  M 94.00 123.04
  Q 89.50 122.35 85.48 122.93
  A 1.13 1.12 -88.0 0 1 84.23 121.57
  L 92.46 83.75"
/>
<path stroke="#ff6900" vector-effect="non-scaling-stroke" d="
  M 47.00 94.04
  L 48.77 98.31
  Q 48.98 98.83 49.10 98.25
  L 52.18 83.81"
/>
<path stroke="#ff6900" vector-effect="non-scaling-stroke" d="
  M 55.00 122.79
  L 44.32 122.70
  A 0.76 0.74 -9.7 0 1 43.63 122.23
  L 36.99 105.35
  Q 36.21 103.35 35.75 105.48
  L 34.21 112.75"
/>
<path stroke="#ff6900" vector-effect="non-scaling-stroke" d="
  M 28.75 122.79
  L 19.79 122.76
  A 0.54 0.54 -84.7 0 1 19.26 122.12
  L 26.96 83.75"
/>
<path stroke="#ff6900" vector-effect="non-scaling-stroke" d="
  M 75.00 122.79
  L 63.50 122.75
  A 0.67 0.67 6.3 0 1 62.85 121.94
  L 71.17 83.55"
/>
<path stroke="#ff6900" vector-effect="non-scaling-stroke" d="
  M 587.71 89.51
  Q 470.82 89.49 353.94 89.50
  C 352.08 89.50 350.50 90.09 350.21 87.50"
/>
<path stroke="#ff6900" vector-effect="non-scaling-stroke" d="
  M 585.25 100.79
  L 352.00 100.75
  A 1.31 0.96 -15.6 0 1 351.12 100.42
  Q 350.52 99.79 350.50 98.79"
/>
<path stroke="#ff6900" vector-effect="non-scaling-stroke" d="
  M 583.00 111.79
  Q 466.75 111.72 350.50 111.75
  C 349.05 111.75 346.76 112.47 347.75 109.79"
/>
<path stroke="#ff6900" vector-effect="non-scaling-stroke" d="
  M 580.50 122.62
  C 499.82 122.79 419.15 122.75 338.48 122.64"
/>
<path stroke="#ff6900" vector-effect="non-scaling-stroke" d="
  M 105.03 134.29
  L 15.82 134.19
  A 0.55 0.50 -0.0 0 1 15.27 133.69
  L 15.25 132.29"
/>
<path stroke="#ff6900" vector-effect="non-scaling-stroke" d="
  M 577.11 178.87
  Q 570.86 182.14 564.04 184.17
  A 0.59 0.57 -13.4 0 0 563.62 184.82
  Q 563.85 186.04 564.74 186.67"
/>
<path stroke="#ff6900" vector-effect="non-scaling-stroke" d="
  M 577.75 218.79
  L 547.31 218.75
  A 0.85 0.82 -13.1 0 1 546.56 218.30
  L 530.74 187.74
  Q 529.53 185.40 529.03 187.96
  L 527.79 194.25"
/>
<path stroke="#ff6900" vector-effect="non-scaling-stroke" d="
  M 519.25 218.79
  L 490.74 218.75
  A 0.49 0.48 -83.7 0 1 490.27 218.16
  L 508.81 132.61"
/>
<path stroke="#ff6900" vector-effect="non-scaling-stroke" d="
  M 102.37 145.32
  Q 58.96 145.20 15.58 145.25
  C 14.03 145.25 12.48 145.75 12.96 143.25"
/>
<path stroke="#ff6900" vector-effect="non-scaling-stroke" d="
  M 100.00 156.04
  Q 56.42 155.97 12.85 156.00
  C 11.68 156.00 10.25 156.77 10.46 154.50"
/>
<path stroke="#ff6900" vector-effect="non-scaling-stroke" d="
  M 96.96 167.50
  Q 53.94 167.07 10.93 167.25
  C 9.40 167.25 7.60 167.89 8.21 165.25"
/>
<path stroke="#ff6900" vector-effect="non-scaling-stroke" d="
  M 319.99 111.67
  Q 326.69 105.27 326.23 96.08
  C 326.09 93.22 325.71 90.00 322.44 89.81
  Q 318.10 89.57 316.25 94.21"
/>
<path stroke="#ff6900" vector-effect="non-scaling-stroke" d="
  M 274.46 110.18
  Q 281.64 104.50 279.50 96.00
  Q 278.08 90.35 271.80 90.54
  A 0.80 0.80 -79.4 0 0 271.10 91.02
  Q 270.32 92.89 270.50 94.96"
/>
<path stroke="#ff6900" vector-effect="non-scaling-stroke" d="
  M 243.95 193.99
  Q 255.51 179.59 254.54 161.18
  C 253.88 148.85 244.28 146.21 235.58 155.45"
/>
<path stroke="#ff6900" vector-effect="non-scaling-stroke" d="
  M 155.39 171.95
  Q 159.98 169.11 160.69 163.44
  Q 162.55 148.47 146.63 149.56
  A 1.16 1.11 0.5 0 0 145.56 150.56
  L 145.29 153.50"
/>
<path stroke="#ff6900" vector-effect="non-scaling-stroke" d="
  M 551.05 167.13
  Q 561.81 155.59 547.50 151.25
  Q 544.78 150.42 537.74 151.20
  A 0.93 0.89 9.7 0 0 537.01 151.69
  Q 536.26 153.23 536.50 154.96"
/>
</g>
<path fill="#ffd200" d="
  M 330.38 120.09
  Q 320.84 124.96 311.31 123.94
  Q 296.60 122.37 296.79 107.00
  Q 296.91 97.41 301.57 89.06
  Q 307.64 81.36 317.25 78.96
  L 319.75 78.46
  C 330.21 77.04 341.70 80.87 342.34 93.01
  Q 343.22 109.85 330.38 120.09
  Z
  M 316.25 94.21
  Q 312.81 100.33 313.25 107.24
  C 313.53 111.50 315.55 113.71 319.99 111.67
  Q 326.69 105.27 326.23 96.08
  C 326.09 93.22 325.71 90.00 322.44 89.81
  Q 318.10 89.57 316.25 94.21
  Z"
/>
<path fill="#ffd200" d="
  M 47.00 94.04
  L 48.77 98.31
  Q 48.98 98.83 49.10 98.25
  L 52.18 83.81
  L 52.84 80.45
  A 0.87 0.84 -84.2 0 1 53.67 79.75
  L 66.57 79.75
  A 0.42 0.41 6.1 0 1 66.98 80.25
  L 58.05 121.70
  A 1.47 1.03 85.5 0 1 57.57 122.51
  Q 56.54 123.28 55.00 122.79
  L 44.32 122.70
  A 0.76 0.74 -9.7 0 1 43.63 122.23
  L 36.99 105.35
  Q 36.21 103.35 35.75 105.48
  L 34.21 112.75
  L 32.04 122.20
  A 0.65 0.62 -84.1 0 1 31.44 122.71
  L 28.75 122.79
  L 19.79 122.76
  A 0.54 0.54 -84.7 0 1 19.26 122.12
  L 26.96 83.75
  L 27.88 80.28
  A 0.73 0.66 6.7 0 1 28.57 79.79
  L 40.56 79.91
  A 0.82 0.78 78.1 0 1 41.27 80.40
  L 47.00 94.04
  Z"
/>
<path fill="#ffd200" d="
  M 75.00 122.79
  L 63.50 122.75
  A 0.67 0.67 6.3 0 1 62.85 121.94
  L 71.17 83.55
  L 71.80 80.41
  A 0.67 0.62 4.7 0 1 72.44 79.91
  L 86.42 79.77
  A 0.54 0.53 -84.0 0 1 86.94 80.43
  L 77.92 122.08
  A 0.74 0.65 -84.5 0 1 77.31 122.66
  L 75.00 122.79
  Z"
/>
<path fill="#ffd200" d="
  M 111.77 93.13
  L 113.70 98.01
  Q 113.93 98.60 114.07 97.95
  L 117.21 83.75
  L 118.08 80.42
  A 0.70 0.60 -81.3 0 1 118.68 79.90
  L 131.56 79.91
  A 0.46 0.44 5.7 0 1 132.01 80.44
  L 131.46 83.25
  L 128.79 96.50
  L 123.17 122.16
  A 0.74 0.73 -80.8 0 1 122.38 122.74
  Q 121.08 122.59 119.75 123.04
  L 109.93 122.79
  A 1.32 1.17 -8.9 0 1 108.77 122.05
  L 101.81 104.92
  Q 101.24 103.52 100.94 104.99
  L 99.34 112.90
  L 97.27 122.19
  A 0.70 0.64 2.0 0 1 96.68 122.69
  L 94.00 123.04
  Q 89.50 122.35 85.48 122.93
  A 1.13 1.12 -88.0 0 1 84.23 121.57
  L 92.46 83.75
  L 93.38 80.28
  A 0.72 0.66 6.8 0 1 94.06 79.79
  L 105.81 79.91
  A 0.78 0.75 78.2 0 1 106.51 80.39
  L 111.77 93.13
  Z"
/>
<path fill="#ffd200" d="
  M 173.25 83.71
  Q 172.48 88.32 170.75 92.57
  Q 169.30 91.97 168.25 92.29
  L 160.25 92.45
  A 0.72 0.67 5.6 0 0 159.57 92.97
  L 158.79 96.50
  L 153.29 122.20
  A 0.71 0.64 0.7 0 1 152.70 122.72
  L 150.25 123.04
  L 138.50 122.80
  A 0.67 0.64 6.1 0 1 137.85 122.03
  L 144.04 92.94
  A 0.53 0.52 -83.2 0 0 143.54 92.30
  L 133.16 92.25
  A 0.77 0.72 -84.0 0 1 132.47 91.34
  L 133.96 83.50
  Q 134.54 82.58 134.49 81.14
  A 1.34 1.34 89.0 0 1 135.83 79.75
  L 173.15 79.75
  A 0.88 0.77 -83.1 0 1 173.88 80.81
  L 173.25 83.71
  Z"
/>
<path fill="#ffd200" d="
  M 176.98 79.55
  Q 192.55 80.06 208.37 79.53
  Q 208.22 83.99 206.69 90.19
  Q 206.12 92.48 203.50 91.79
  L 189.81 91.80
  A 0.68 0.66 7.2 0 0 189.16 92.29
  C 188.94 93.10 187.81 96.35 190.00 95.71
  L 202.00 95.71
  L 202.60 95.74
  Q 202.61 101.57 199.56 106.34
  Q 192.74 105.45 186.68 106.36
  A 0.81 0.61 -2.3 0 0 186.02 106.90
  L 185.41 110.54
  Q 191.85 111.43 198.25 110.71
  L 202.35 110.72
  Q 201.62 116.14 200.44 121.44
  Q 199.99 123.45 197.50 122.79
  L 167.64 122.75
  A 0.30 0.29 6.2 0 1 167.35 122.40
  L 175.68 83.80
  Q 175.52 81.49 176.98 79.55
  Z"
/>
<path fill="#ffd200" d="
  M 232.83 93.11
  L 234.81 98.11
  Q 235.03 98.66 235.16 98.07
  L 238.25 83.79
  L 239.03 80.62
  A 1.14 1.12 -83.1 0 1 240.12 79.75
  L 252.66 79.75
  A 0.65 0.65 6.1 0 1 253.30 80.54
  L 244.29 121.95
  A 0.99 0.91 86.7 0 1 243.72 122.65
  Q 242.59 123.07 241.25 122.79
  L 230.68 122.59
  A 0.81 0.74 78.5 0 1 229.99 122.09
  L 222.93 104.80
  Q 222.42 103.54 222.15 104.86
  L 220.46 113.16
  L 218.30 122.20
  A 0.71 0.69 -85.3 0 1 217.68 122.74
  L 215.25 122.96
  L 205.39 122.94
  A 0.79 0.73 5.9 0 1 204.61 122.05
  L 213.21 83.75
  L 214.04 80.45
  A 0.92 0.78 -82.1 0 1 214.83 79.75
  L 226.61 79.75
  A 1.31 1.24 78.5 0 1 227.78 80.57
  L 232.83 93.11
  Z"
/>
<path fill="#ffd200" d="
  M 258.47 79.59
  L 281.01 79.80
  Q 295.11 82.39 295.54 96.75
  Q 295.51 103.62 292.46 109.75
  Q 289.53 114.48 285.25 118.04
  C 273.91 124.08 262.22 122.74 249.52 122.82
  A 0.63 0.63 6.2 0 1 248.90 122.05
  L 257.21 83.75
  L 258.47 79.59
  Z
  M 270.50 94.96
  Q 268.29 103.00 267.07 111.25
  A 0.51 0.50 -82.7 0 0 267.50 111.82
  Q 271.21 112.29 274.46 110.18
  Q 281.64 104.50 279.50 96.00
  Q 278.08 90.35 271.80 90.54
  A 0.80 0.80 -79.4 0 0 271.10 91.02
  Q 270.32 92.89 270.50 94.96
  Z"
/>
<path fill="#ff0000" d="
  M 131.46 83.25
  Q 132.53 84.31 133.96 83.50
  L 132.47 91.34
  A 0.77 0.72 -84.0 0 0 133.16 92.25
  L 143.54 92.30
  A 0.53 0.52 -83.2 0 1 144.04 92.94
  L 137.85 122.03
  A 0.67 0.64 6.1 0 0 138.50 122.80
  L 150.25 123.04
  L 149.29 126.19
  A 0.70 0.61 -80.6 0 1 148.68 126.69
  L 134.20 126.75
  A 0.45 0.45 -83.8 0 1 133.76 126.20
  L 140.08 97.05
  A 0.45 0.45 -80.1 0 0 139.70 96.50
  Q 134.25 95.86 128.79 96.50
  L 131.46 83.25
  Z"
/>
<path fill="#ff0000" d="
  M 71.17 83.55
  L 62.85 121.94
  A 0.67 0.67 6.3 0 0 63.50 122.75
  L 75.00 122.79
  L 73.81 126.20
  A 0.74 0.62 -79.1 0 1 73.19 126.71
  L 59.26 126.53
  A 0.44 0.42 -83.9 0 1 58.85 126.00
  L 67.95 84.29
  A 0.70 0.61 2.4 0 1 68.55 83.81
  L 71.17 83.55
  Z"
/>
<path fill="#ff0000" d="
  M 26.96 83.75
  L 19.26 122.12
  A 0.54 0.54 -84.7 0 0 19.79 122.76
  L 28.75 122.79
  L 27.85 126.06
  A 1.18 0.98 5.7 0 1 26.78 126.78
  L 15.98 126.91
  A 0.72 0.69 5.4 0 1 15.26 126.08
  L 23.84 84.43
  A 0.73 0.60 -84.5 0 1 24.43 83.84
  L 26.96 83.75
  Z"
/>
<path fill="#ff0000" d="
  M 52.18 83.81
  L 49.10 98.25
  Q 48.98 98.83 48.77 98.31
  L 47.00 94.04
  Q 47.83 89.39 48.75 84.75
  Q 49.10 83.00 52.18 83.81
  Z"
/>
<path fill="#ff0000" d="
  M 92.46 83.75
  L 84.23 121.57
  A 1.13 1.12 -88.0 0 0 85.48 122.93
  Q 89.50 122.35 94.00 123.04
  L 93.25 125.63
  A 2.02 1.69 -80.1 0 1 91.52 127.09
  L 80.74 126.91
  A 0.56 0.51 6.5 0 1 80.20 126.29
  L 89.21 84.79
  A 1.11 0.95 85.5 0 1 89.74 84.06
  Q 90.96 83.42 92.46 83.75
  Z"
/>
<path fill="#ff0000" d="
  M 117.21 83.75
  L 114.07 97.95
  Q 113.93 98.60 113.70 98.01
  L 111.77 93.13
  L 114.10 84.68
  A 1.14 0.78 -87.2 0 1 114.64 83.97
  Q 115.84 83.49 117.21 83.75
  Z"
/>
<path fill="#ff0000" d="
  M 173.25 83.71
  L 175.68 83.80
  L 167.35 122.40
  A 0.30 0.29 6.2 0 0 167.64 122.75
  L 197.50 122.79
  Q 196.33 123.79 196.44 125.44
  A 1.26 1.24 -2.1 0 1 195.19 126.76
  L 164.13 126.93
  A 0.79 0.76 5.8 0 1 163.35 126.00
  L 170.75 92.57
  Q 172.48 88.32 173.25 83.71
  Z"
/>
<path fill="#ff0000" d="
  M 213.21 83.75
  L 204.61 122.05
  A 0.79 0.73 5.9 0 0 205.39 122.94
  L 215.25 122.96
  Q 214.47 124.37 214.50 126.07
  A 0.66 0.66 89.2 0 1 213.84 126.75
  L 201.35 126.75
  A 0.66 0.65 6.6 0 1 200.71 125.95
  L 210.20 84.55
  A 0.91 0.84 89.4 0 1 210.79 83.90
  Q 211.95 83.56 213.21 83.75
  Z"
/>
<path fill="#ff0000" d="
  M 238.25 83.79
  L 235.16 98.07
  Q 235.03 98.66 234.81 98.11
  L 232.83 93.11
  Q 234.24 89.58 234.84 85.87
  C 235.19 83.71 236.14 83.12 238.25 83.79
  Z"
/>
<path fill="#ff0000" d="
  M 257.21 83.75
  L 248.90 122.05
  A 0.63 0.63 6.2 0 0 249.52 122.82
  C 262.22 122.74 273.91 124.08 285.25 118.04
  Q 276.08 127.33 262.72 126.63
  L 260.00 126.54
  Q 252.29 125.31 244.92 125.79
  L 253.96 84.80
  A 1.12 0.94 85.8 0 1 254.49 84.06
  Q 255.71 83.42 257.21 83.75
  Z"
/>
<path fill="#ffd200" d="
  M 587.71 89.51
  Q 470.82 89.49 353.94 89.50
  C 352.08 89.50 350.50 90.09 350.21 87.50
  L 348.87 84.43
  A 0.49 0.44 76.8 0 1 349.24 83.75
  L 591.43 83.81
  A 0.48 0.42 4.5 0 1 591.91 84.30
  L 591.08 88.96
  A 0.66 0.59 3.6 0 1 590.45 89.46
  L 587.71 89.51
  Z"
/>
<path fill="#ff0000" d="
  M 350.21 87.50
  C 350.50 90.09 352.08 89.50 353.94 89.50
  Q 470.82 89.49 587.71 89.51
  Q 587.71 91.63 586.96 93.01
  A 0.91 0.83 13.4 0 1 586.19 93.44
  L 347.60 93.50
  A 1.08 0.92 77.5 0 1 346.70 92.82
  L 344.93 88.43
  A 0.56 0.55 -11.4 0 1 345.44 87.68
  L 350.21 87.50
  Z"
/>
<path fill="#ff0000" d="
  M 301.57 89.06
  Q 296.91 97.41 296.79 107.00
  Q 296.60 122.37 311.31 123.94
  Q 320.84 124.96 330.38 120.09
  Q 323.92 126.88 314.50 127.79
  L 307.75 128.04
  Q 292.07 125.91 292.46 109.75
  Q 295.51 103.62 295.54 96.75
  Q 297.87 92.38 301.57 89.06
  Z"
/>
<path fill="#ff0000" d="
  M 319.99 111.67
  C 321.30 108.25 325.80 90.67 316.25 94.21
  Q 318.10 89.57 322.44 89.81
  C 325.71 90.00 326.09 93.22 326.23 96.08
  Q 326.69 105.27 319.99 111.67
  Z"
/>
<path fill="#ff0000" d="
  M 274.46 110.18
  C 276.19 105.17 277.29 96.55 270.50 94.96
  Q 270.32 92.89 271.10 91.02
  A 0.80 0.80 -79.4 0 1 271.80 90.54
  Q 278.08 90.35 279.50 96.00
  Q 281.64 104.50 274.46 110.18
  Z"
/>
<path fill="#ff0000" d="
  M 203.50 91.79
  Q 202.27 93.58 202.60 95.74
  L 202.00 95.71
  Q 196.00 94.89 190.00 95.71
  C 187.81 96.35 188.94 93.10 189.16 92.29
  A 0.68 0.66 7.2 0 1 189.81 91.80
  L 203.50 91.79
  Z"
/>
<path fill="#ff0000" d="
  M 168.25 92.29
  L 167.51 95.44
  A 1.27 1.01 -78.6 0 1 166.33 96.44
  Q 162.55 95.92 158.79 96.50
  L 159.57 92.97
  A 0.72 0.67 5.6 0 1 160.25 92.45
  L 168.25 92.29
  Z"
/>
<path fill="#ffd200" d="
  M 585.25 100.79
  L 352.00 100.75
  A 1.31 0.96 -15.6 0 1 351.12 100.42
  Q 350.52 99.79 350.50 98.79
  Q 351.12 97.31 350.81 96.00
  A 0.81 0.81 -6.7 0 1 351.60 95.00
  Q 468.62 95.00 585.24 95.00
  C 586.67 95.00 590.25 93.56 589.43 96.74
  C 588.79 99.22 589.11 101.61 585.25 100.79
  Z"
/>
<path fill="#ba5907" d="
  M 202.00 95.71
  L 190.00 95.71
  Q 196.00 94.89 202.00 95.71
  Z"
/>
<path fill="#ff0000" d="
  M 350.50 98.79
  Q 350.52 99.79 351.12 100.42
  A 1.31 0.96 -15.6 0 0 352.00 100.75
  L 585.25 100.79
  L 584.57 103.89
  A 0.99 0.78 5.0 0 1 583.64 104.50
  Q 468.34 104.50 353.91 104.50
  C 352.27 104.50 349.52 104.97 347.30 104.54
  A 0.63 0.61 5.8 0 1 346.79 103.94
  L 346.77 99.83
  A 0.98 0.95 3.4 0 1 347.87 98.88
  Q 349.66 99.12 350.50 98.79
  Z"
/>
<path fill="#ff0000" d="
  M 119.75 123.04
  L 118.88 126.22
  A 0.75 0.65 6.1 0 1 118.19 126.70
  L 105.68 126.74
  A 1.09 1.02 77.9 0 1 104.70 126.06
  L 99.34 112.90
  L 100.94 104.99
  Q 101.24 103.52 101.81 104.92
  L 108.77 122.05
  A 1.32 1.17 -8.9 0 0 109.93 122.79
  L 119.75 123.04
  Z"
/>
<path fill="#ff0000" d="
  M 241.25 122.79
  L 240.29 126.25
  L 238.75 126.54
  L 234.75 126.79
  L 226.69 126.60
  A 0.83 0.72 77.4 0 1 226.01 126.10
  L 220.46 113.16
  L 222.15 104.86
  Q 222.42 103.54 222.93 104.80
  L 229.99 122.09
  A 0.81 0.74 78.5 0 0 230.68 122.59
  L 241.25 122.79
  Z"
/>
<path fill="#ff0000" d="
  M 55.00 122.79
  L 54.07 125.83
  A 1.28 1.04 -79.6 0 1 53.00 126.74
  L 40.31 126.70
  A 0.76 0.70 78.4 0 1 39.64 126.22
  L 34.21 112.75
  L 35.75 105.48
  Q 36.21 103.35 36.99 105.35
  L 43.63 122.23
  A 0.76 0.74 -9.7 0 0 44.32 122.70
  L 55.00 122.79
  Z"
/>
<path fill="#ff0000" d="
  M 199.56 106.34
  C 195.26 105.26 199.13 111.17 193.50 110.00
  Q 190.52 109.38 185.41 110.54
  L 186.02 106.90
  A 0.81 0.61 -2.3 0 1 186.68 106.36
  Q 192.74 105.45 199.56 106.34
  Z"
/>
<path fill="#ffd200" d="
  M 583.00 111.79
  Q 466.75 111.72 350.50 111.75
  C 349.05 111.75 346.76 112.47 347.75 109.79
  Q 348.85 108.49 348.97 107.14
  A 1.52 1.52 -87.5 0 1 350.48 105.75
  L 586.70 105.81
  A 0.42 0.41 -84.2 0 1 587.10 106.31
  L 586.29 110.71
  A 1.06 0.94 84.5 0 1 585.77 111.43
  Q 584.53 112.06 583.00 111.79
  Z"
/>
<path fill="#ff0000" d="
  M 347.75 109.79
  C 346.76 112.47 349.05 111.75 350.50 111.75
  Q 466.75 111.72 583.00 111.79
  Q 582.79 113.63 581.85 115.14
  A 0.98 0.93 15.0 0 1 581.06 115.57
  C 508.34 115.93 435.62 115.78 362.90 115.75
  C 358.43 115.75 350.43 115.50 344.18 115.79
  A 0.40 0.38 4.9 0 1 343.77 115.33
  C 344.13 113.68 344.55 108.94 347.75 109.79
  Z"
/>
<path fill="#ffd200" d="
  M 580.50 122.62
  C 499.82 122.79 419.15 122.75 338.48 122.64
  L 343.55 117.32
  A 1.99 1.84 20.4 0 1 344.94 116.75
  L 584.22 116.75
  A 0.55 0.51 5.8 0 1 584.77 117.37
  L 583.67 122.02
  A 0.71 0.68 -84.1 0 1 583.01 122.58
  L 580.50 122.62
  Z"
/>
<path fill="#ff0000" d="
  M 338.48 122.64
  C 419.15 122.75 499.82 122.79 580.50 122.62
  L 580.01 125.44
  A 1.36 1.22 -84.4 0 1 578.79 126.56
  C 497.41 126.84 416.36 126.88 335.26 126.50
  Q 334.71 126.50 335.07 126.13
  L 338.48 122.64
  Z"
/>
<path fill="#ffd200" d="
  M 260.00 126.54
  Q 261.28 127.32 262.75 127.21
  Q 285.69 133.07 288.21 156.75
  L 288.00 169.71
  C 284.95 185.71 281.07 197.52 268.75 208.79
  Q 267.12 209.35 266.00 210.71
  Q 249.24 222.27 229.66 221.27
  C 207.07 220.12 192.45 208.75 193.50 183.75
  Q 194.41 161.93 205.85 145.61
  Q 217.43 131.81 235.00 127.46
  L 238.75 126.54
  L 240.29 126.25
  L 244.92 125.79
  Q 252.29 125.31 260.00 126.54
  Z
  M 235.58 155.45
  Q 231.69 160.46 229.50 168.50
  C 227.55 175.67 223.48 194.68 233.75 197.00
  Q 239.05 198.20 243.95 193.99
  Q 255.51 179.59 254.54 161.18
  C 253.88 148.85 244.28 146.21 235.58 155.45
  Z"
/>
<path fill="#621102" fill-opacity="0.839" d="
  M 238.75 126.54
  L 235.00 127.46
  Q 235.01 127.08 234.75 126.79
  L 238.75 126.54
  Z"
/>
<path fill="#ffd200" d="
  M 260.00 126.54
  L 262.72 126.63
  L 262.75 127.21
  Q 261.28 127.32 260.00 126.54
  Z"
/>
<path fill="#621102" fill-opacity="0.839" d="
  M 314.50 127.79
  Q 314.24 128.08 314.25 128.46
  L 307.75 128.46
  L 307.75 128.04
  L 314.50 127.79
  Z"
/>
<path fill="#ffd200" d="
  M 105.03 134.29
  L 15.82 134.19
  A 0.55 0.50 -0.0 0 1 15.27 133.69
  L 15.25 132.29
  L 16.32 128.96
  A 0.72 0.66 8.4 0 1 16.99 128.50
  L 108.57 128.44
  A 0.56 0.56 -3.4 0 1 109.13 128.93
  Q 109.78 134.29 105.03 134.29
  Z"
/>
<path fill="#ffd200" d="
  M 193.25 164.71
  Q 192.59 165.89 192.79 167.25
  L 191.71 170.25
  Q 187.76 179.44 180.26 186.05
  Q 166.07 195.63 149.50 195.75
  Q 139.19 195.82 136.44 195.92
  A 0.72 0.57 2.1 0 0 135.77 196.41
  L 135.25 199.96
  L 131.52 217.95
  A 0.80 0.56 -83.9 0 1 130.96 218.59
  L 128.50 218.79
  L 99.78 218.75
  A 0.42 0.42 5.7 0 1 99.37 218.25
  Q 107.48 178.32 115.75 138.75
  Q 116.54 134.98 116.71 132.50
  L 117.85 129.26
  A 1.13 1.12 9.4 0 1 118.92 128.50
  Q 139.88 128.50 160.25 128.46
  C 183.48 128.41 198.64 139.41 193.25 164.71
  Z
  M 145.29 153.50
  L 140.77 174.15
  A 0.88 0.86 7.3 0 0 141.59 175.19
  C 146.09 175.42 152.45 175.67 155.39 171.95
  Q 159.98 169.11 160.69 163.44
  Q 162.55 148.47 146.63 149.56
  A 1.16 1.11 0.5 0 0 145.56 150.56
  L 145.29 153.50
  Z"
/>
<path fill="#ffd200" d="
  M 307.75 128.46
  L 314.25 128.46
  L 324.69 128.49
  A 0.87 0.86 1.9 0 1 325.55 129.40
  L 323.21 173.00
  L 323.09 179.09
  Q 323.08 179.70 323.34 179.14
  L 345.21 132.64
  L 346.70 129.69
  A 2.11 1.46 -71.9 0 1 348.26 128.51
  L 376.56 128.68
  A 0.49 0.48 -88.9 0 1 377.04 129.19
  L 375.54 175.00
  L 375.19 178.70
  Q 375.00 180.68 375.84 178.85
  L 397.23 132.65
  L 398.85 129.19
  A 1.19 0.97 -75.1 0 1 399.80 128.50
  L 429.58 128.50
  Q 431.47 128.50 430.23 129.92
  Q 428.99 131.36 428.50 133.50
  Q 428.16 133.67 427.81 134.31
  Q 405.35 176.05 382.75 217.72
  Q 381.97 219.16 380.25 219.04
  L 346.39 218.76
  A 1.14 1.09 0.5 0 1 345.25 217.65
  L 345.69 184.31
  Q 345.71 182.26 344.81 184.06
  L 341.37 190.95
  Q 332.45 206.92 327.25 217.50
  Q 326.43 219.17 324.46 219.00
  L 292.69 218.77
  A 0.97 0.96 0.3 0 1 291.73 217.81
  L 292.46 132.25
  L 292.50 129.19
  A 0.70 0.68 -89.6 0 1 293.18 128.50
  L 307.75 128.46
  Z"
/>
<path fill="#ffd200" d="
  M 494.50 153.54
  L 461.55 153.50
  A 1.83 1.79 -84.8 0 0 459.78 155.01
  L 459.29 157.75
  L 458.33 161.45
  A 0.70 0.64 6.5 0 0 459.02 162.25
  L 488.63 162.25
  A 0.80 0.77 -83.7 0 1 489.38 163.22
  L 485.28 182.20
  A 1.56 1.04 85.6 0 1 484.82 183.02
  Q 483.43 184.11 481.50 183.79
  L 454.25 183.98
  A 0.70 0.60 3.9 0 0 453.59 184.47
  L 453.04 187.75
  L 451.87 193.29
  A 0.70 0.64 5.6 0 0 452.57 194.07
  L 488.92 194.00
  A 0.60 0.60 -83.8 0 1 489.50 194.73
  L 484.30 218.19
  A 0.68 0.64 -83.6 0 1 483.68 218.71
  L 481.25 218.79
  L 414.06 218.75
  A 0.62 0.62 6.3 0 1 413.45 217.99
  L 432.01 132.35
  L 432.69 129.04
  A 0.64 0.60 5.5 0 1 433.31 128.56
  L 501.17 128.50
  A 0.92 0.91 -83.7 0 1 502.06 129.62
  L 496.92 152.82
  A 0.94 0.80 -89.9 0 1 496.35 153.49
  Q 495.48 153.77 494.50 153.54
  Z"
/>
<path fill="#ffd200" d="
  M 577.11 178.87
  Q 570.86 182.14 564.04 184.17
  A 0.59 0.57 -13.4 0 0 563.62 184.82
  Q 563.85 186.04 564.74 186.67
  L 583.38 218.05
  Q 583.80 218.75 582.98 218.75
  L 577.75 218.79
  L 547.31 218.75
  A 0.85 0.82 -13.1 0 1 546.56 218.30
  L 530.74 187.74
  Q 529.53 185.40 529.03 187.96
  L 527.79 194.25
  L 522.42 218.08
  A 0.75 0.63 -83.6 0 1 521.82 218.65
  L 519.25 218.79
  L 490.74 218.75
  A 0.49 0.48 -83.7 0 1 490.27 218.16
  L 508.81 132.61
  L 509.42 129.31
  A 1.05 0.98 5.0 0 1 510.44 128.51
  Q 536.00 128.32 560.50 128.75
  Q 563.97 128.81 569.27 130.37
  C 582.74 134.33 590.22 144.00 588.75 158.75
  Q 587.51 171.22 577.11 178.87
  Z
  M 536.50 154.96
  Q 534.28 161.82 533.14 168.95
  A 0.44 0.43 5.1 0 0 533.57 169.45
  Q 541.27 169.60 543.50 169.50
  Q 547.28 169.33 551.05 167.13
  Q 561.81 155.59 547.50 151.25
  Q 544.78 150.42 537.74 151.20
  A 0.93 0.89 9.7 0 0 537.01 151.69
  Q 536.26 153.23 536.50 154.96
  Z"
/>
<path fill="#ff0000" d="
  M 15.25 132.29
  L 15.27 133.69
  A 0.55 0.50 0.0 0 0 15.82 134.19
  L 105.03 134.29
  L 103.94 137.75
  A 0.82 0.62 6.5 0 1 103.20 138.19
  L 11.81 138.19
  A 0.46 0.42 4.2 0 1 11.35 137.70
  L 12.06 133.42
  A 1.11 1.02 -10.3 0 1 12.62 132.68
  Q 13.82 132.04 15.25 132.29
  Z"
/>
<path fill="#ff0000" d="
  M 292.46 132.25
  L 291.73 217.81
  A 0.97 0.96 0.3 0 0 292.69 218.77
  L 324.46 219.00
  L 322.90 222.07
  A 1.33 1.25 12.8 0 1 321.74 222.75
  L 288.30 222.75
  A 0.55 0.55 0.0 0 1 287.75 222.20
  Q 287.67 205.62 288.00 189.25
  Q 288.30 174.41 288.00 169.71
  L 288.21 156.75
  L 288.48 133.56
  A 1.06 1.02 -86.1 0 1 289.63 132.52
  Q 291.02 132.68 292.46 132.25
  Z"
/>
<path fill="#ff0000" d="
  M 432.01 132.35
  L 413.45 217.99
  A 0.62 0.62 6.3 0 0 414.06 218.75
  L 481.25 218.79
  Q 480.61 219.32 480.51 221.49
  A 1.32 1.32 -88.6 0 1 479.19 222.75
  L 410.27 222.75
  A 0.89 0.88 -83.7 0 1 409.41 221.67
  L 428.50 133.50
  Q 429.52 132.09 432.01 132.35
  Z"
/>
<path fill="#ff0000" d="
  M 116.71 132.50
  Q 116.54 134.98 115.75 138.75
  Q 107.48 178.32 99.37 218.25
  A 0.42 0.42 5.7 0 0 99.78 218.75
  L 128.50 218.79
  Q 127.60 220.12 127.47 222.18
  A 0.60 0.60 -88.5 0 1 126.87 222.75
  L 95.73 222.75
  A 0.42 0.42 5.7 0 1 95.32 222.25
  L 113.71 133.31
  A 0.90 0.82 88.9 0 1 114.29 132.65
  Q 115.45 132.31 116.71 132.50
  Z"
/>
<path fill="#ff0000" d="
  M 345.21 132.64
  L 323.34 179.14
  Q 323.08 179.70 323.09 179.09
  L 323.21 173.00
  Q 323.09 175.17 323.89 173.48
  Q 333.14 153.89 342.49 134.34
  C 343.14 133.00 343.16 132.11 345.21 132.64
  Z"
/>
<path fill="#ff0000" d="
  M 397.23 132.65
  L 375.84 178.85
  Q 375.00 180.68 375.19 178.70
  L 375.54 175.00
  Q 384.94 154.64 394.49 134.36
  C 395.13 133.00 395.15 132.11 397.23 132.65
  Z"
/>
<path fill="#ff0000" d="
  M 508.81 132.61
  L 490.27 218.16
  A 0.49 0.48 -83.7 0 0 490.74 218.75
  L 519.25 218.79
  L 518.36 222.07
  A 0.67 0.54 -81.2 0 1 517.81 222.57
  L 486.36 222.69
  A 0.21 0.21 -83.3 0 1 486.16 222.43
  L 505.46 133.55
  A 1.30 0.87 88.1 0 1 505.95 132.76
  Q 506.97 132.15 508.81 132.61
  Z"
/>
<path fill="#ffd200" d="
  M 102.37 145.32
  Q 58.96 145.20 15.58 145.25
  C 14.03 145.25 12.48 145.75 12.96 143.25
  L 13.88 139.99
  A 0.66 0.62 -82.2 0 1 14.49 139.50
  L 106.07 139.44
  A 0.54 0.54 87.7 0 1 106.61 139.94
  Q 106.97 145.42 102.37 145.32
  Z"
/>
<path fill="#ff0000" d="
  M 12.96 143.25
  C 12.48 145.75 14.03 145.25 15.58 145.25
  Q 58.96 145.20 102.37 145.32
  L 101.37 148.73
  A 0.72 0.65 7.6 0 1 100.70 149.19
  L 9.31 149.19
  A 0.42 0.42 -84.8 0 1 8.90 148.69
  L 9.73 144.05
  A 0.76 0.57 -85.3 0 1 10.29 143.42
  L 12.96 143.25
  Z"
/>
<path fill="#ff0000" d="
  M 205.85 145.61
  Q 194.41 161.93 193.50 183.75
  C 192.45 208.75 207.07 220.12 229.66 221.27
  Q 249.24 222.27 266.00 210.71
  L 266.75 210.79
  C 254.53 222.34 237.22 226.85 220.63 224.81
  C 189.63 221.00 185.68 196.54 191.71 170.25
  L 192.79 167.25
  L 193.96 164.75
  Q 197.56 153.73 205.85 145.61
  Z"
/>
<path fill="#ff0000" d="
  M 155.39 171.95
  Q 161.91 155.24 145.29 153.50
  L 145.56 150.56
  A 1.16 1.11 0.5 0 1 146.63 149.56
  Q 162.55 148.47 160.69 163.44
  Q 159.98 169.11 155.39 171.95
  Z"
/>
<path fill="#ff0000" d="
  M 243.95 193.99
  Q 249.80 182.08 250.46 169.14
  C 250.97 159.11 248.01 150.47 235.58 155.45
  C 244.28 146.21 253.88 148.85 254.54 161.18
  Q 255.51 179.59 243.95 193.99
  Z"
/>
<path fill="#ffd200" d="
  M 100.00 156.04
  Q 56.42 155.97 12.85 156.00
  C 11.68 156.00 10.25 156.77 10.46 154.50
  L 11.30 151.05
  A 0.71 0.71 -83.3 0 1 11.99 150.50
  L 103.15 150.43
  A 0.75 0.72 6.9 0 1 103.89 151.33
  L 102.84 155.46
  A 0.77 0.63 -81.3 0 1 102.20 156.04
  L 100.00 156.04
  Z"
/>
<path fill="#ff0000" d="
  M 551.05 167.13
  Q 553.29 157.39 544.75 155.50
  Q 542.01 154.90 536.50 154.96
  Q 536.26 153.23 537.01 151.69
  A 0.93 0.89 9.7 0 1 537.74 151.20
  Q 544.78 150.42 547.50 151.25
  Q 561.81 155.59 551.05 167.13
  Z"
/>
<path fill="#ff0000" d="
  M 494.50 153.54
  Q 493.02 154.81 492.84 156.81
  A 0.57 0.53 -87.5 0 1 492.32 157.32
  L 459.29 157.75
  L 459.78 155.01
  A 1.83 1.79 -84.8 0 1 461.55 153.50
  L 494.50 153.54
  Z"
/>
<path fill="#ff0000" d="
  M 10.46 154.50
  C 10.25 156.77 11.68 156.00 12.85 156.00
  Q 56.42 155.97 100.00 156.04
  L 98.62 159.48
  A 0.76 0.75 10.8 0 1 97.94 159.94
  L 7.31 160.19
  A 0.60 0.58 -4.5 0 1 6.72 159.70
  C 6.35 157.26 6.90 153.48 10.46 154.50
  Z"
/>
<path fill="#ffd200" d="
  M 96.96 167.50
  Q 53.94 167.07 10.93 167.25
  C 9.40 167.25 7.60 167.89 8.21 165.25
  L 8.90 162.04
  A 0.68 0.62 5.9 0 1 9.55 161.56
  L 100.69 161.56
  A 0.46 0.40 6.3 0 1 101.15 162.06
  L 100.02 166.61
  A 0.92 0.63 -1.6 0 1 99.32 167.12
  L 96.96 167.50
  Z"
/>
<path fill="#621102" fill-opacity="0.839" d="
  M 193.25 164.71
  L 193.96 164.75
  L 192.79 167.25
  Q 192.59 165.89 193.25 164.71
  Z"
/>
<path fill="#ff0000" d="
  M 8.21 165.25
  C 7.60 167.89 9.40 167.25 10.93 167.25
  Q 53.94 167.07 96.96 167.50
  L 96.07 170.77
  A 0.76 0.74 7.5 0 1 95.34 171.31
  L 4.83 171.25
  A 0.59 0.52 3.8 0 1 4.24 170.65
  L 4.90 166.04
  A 0.78 0.50 -2.1 0 1 5.56 165.58
  L 8.21 165.25
  Z"
/>
<path fill="#ff0000" d="
  M 577.11 178.87
  Q 572.27 184.17 564.74 186.67
  Q 563.85 186.04 563.62 184.82
  A 0.59 0.57 -13.4 0 1 564.04 184.17
  Q 570.86 182.14 577.11 178.87
  Z"
/>
<path fill="#ff0000" d="
  M 481.50 183.79
  Q 481.60 185.48 480.92 186.98
  A 0.81 0.79 11.9 0 1 480.19 187.44
  L 453.04 187.75
  L 453.59 184.47
  A 0.70 0.60 3.9 0 1 454.25 183.98
  L 481.50 183.79
  Z"
/>
<path fill="#ff0000" d="
  M 380.25 219.04
  L 378.23 222.28
  A 0.95 0.84 14.0 0 1 377.45 222.69
  L 341.75 222.75
  A 0.58 0.57 90.0 0 1 341.18 222.17
  L 341.37 190.95
  L 344.81 184.06
  Q 345.71 182.26 345.69 184.31
  L 345.25 217.65
  A 1.14 1.09 0.5 0 0 346.39 218.76
  L 380.25 219.04
  Z"
/>
<path fill="#ff0000" d="
  M 180.26 186.05
  Q 165.92 199.64 146.25 199.75
  Q 137.70 199.80 135.25 199.96
  L 135.77 196.41
  A 0.72 0.57 2.1 0 1 136.44 195.92
  Q 139.19 195.82 149.50 195.75
  Q 166.07 195.63 180.26 186.05
  Z"
/>
<path fill="#ff0000" d="
  M 577.75 218.79
  Q 577.93 220.43 579.20 221.57
  Q 580.51 222.75 578.74 222.75
  L 543.23 222.75
  A 1.08 1.01 75.6 0 1 542.31 222.17
  L 527.79 194.25
  L 529.03 187.96
  Q 529.53 185.40 530.74 187.74
  L 546.56 218.30
  A 0.85 0.82 -13.1 0 0 547.31 218.75
  L 577.75 218.79
  Z"
/>
<path fill="#ffd200" d="
  M 268.75 208.79
  L 266.75 210.79
  L 266.00 210.71
  Q 267.12 209.35 268.75 208.79
  Z"
/>
</svg>
