<?xml version="1.0" encoding="UTF-8" standalone="no"?>
<!DOCTYPE svg PUBLIC "-//W3C//DTD SVG 1.1//EN" "http://www.w3.org/Graphics/SVG/1.1/DTD/svg11.dtd">
<svg xmlns="http://www.w3.org/2000/svg" version="1.1" viewBox="0 0 600 300">
<path fill="#000000" d="
  M 440.69 8.15
  A 0.94 0.93 -0.6 0 1 441.62 7.21
  Q 459.03 6.89 475.50 7.10
  Q 484.37 7.21 488.48 13.83
  Q 489.49 15.45 489.63 17.34
  Q 490.35 27.11 490.34 35.25
  Q 490.29 66.68 490.48 98.11
  C 490.55 109.64 481.49 110.52 472.47 110.80
  Q 457.14 111.27 441.82 110.71
  A 0.53 0.52 1.1 0 1 441.31 110.19
  L 440.69 8.15
  Z
  M 463.20 92.06
  A 0.77 0.76 -3.0 0 0 464.05 92.82
  C 466.95 92.52 467.95 91.67 467.93 88.61
  Q 467.79 59.30 467.52 29.99
  C 467.49 27.13 466.49 25.06 463.47 24.95
  A 0.69 0.69 0.8 0 0 462.75 25.65
  L 463.20 92.06
  Z"
/>
<path fill="#000000" d="
  M 386.81 110.26
  C 390.68 76.14 394.57 42.02 398.66 7.93
  A 0.77 0.76 -86.6 0 1 399.42 7.25
  L 425.03 7.31
  A 1.24 1.24 -3.4 0 1 426.26 8.40
  L 439.02 110.16
  A 0.55 0.53 86.6 0 1 438.50 110.77
  L 418.64 110.98
  A 0.99 0.99 87.5 0 1 417.64 110.06
  L 416.19 91.64
  A 0.96 0.91 87.3 0 0 415.27 90.75
  L 409.92 90.80
  A 1.14 1.11 -88.6 0 0 408.82 91.88
  Q 408.39 100.16 407.61 107.22
  C 407.20 111.01 408.27 110.94 403.96 111.02
  Q 395.60 111.16 387.25 110.77
  A 0.46 0.45 4.6 0 1 386.81 110.26
  Z
  M 412.13 51.20
  Q 411.32 61.95 410.36 72.69
  A 0.62 0.59 -79.9 0 0 410.79 73.34
  Q 412.50 73.82 414.21 73.34
  A 0.63 0.59 80.4 0 0 414.64 72.69
  L 413.03 51.45
  A 1.13 0.70 -82.5 0 0 412.69 50.69
  Q 412.20 50.30 412.13 51.20
  Z"
/>
<path fill="#000000" d="
  M 377.99 61.52
  C 383.05 63.91 383.71 68.10 383.82 73.74
  Q 384.15 92.09 384.19 110.44
  A 0.51 0.50 -0.6 0 1 383.69 110.94
  L 363.70 111.18
  A 0.95 0.95 -0.3 0 1 362.74 110.23
  Q 362.89 93.39 362.58 77.25
  C 362.53 74.88 362.97 73.59 361.27 71.59
  C 358.89 68.80 356.33 71.27 356.30 73.93
  Q 356.13 91.50 356.52 110.00
  A 0.99 0.97 89.1 0 1 355.56 111.01
  L 335.23 111.25
  A 0.73 0.72 89.6 0 1 334.50 110.52
  L 334.00 25.86
  A 1.05 0.99 0.3 0 0 332.96 24.87
  L 322.22 24.84
  A 0.98 0.91 0.0 0 0 321.24 25.75
  L 321.75 110.47
  A 0.77 0.76 90.0 0 1 320.98 111.25
  L 300.80 111.06
  A 0.30 0.30 0.3 0 1 300.50 110.76
  L 299.94 26.06
  A 0.57 0.56 3.4 0 0 299.44 25.50
  Q 294.82 24.93 290.18 25.39
  A 0.55 0.54 87.8 0 0 289.68 25.94
  L 289.96 42.94
  A 1.52 1.44 89.6 0 1 288.51 44.49
  L 266.18 44.33
  A 0.56 0.53 88.8 0 1 265.66 43.80
  C 265.42 39.00 265.13 34.06 265.35 29.25
  Q 265.54 24.87 260.96 26.57
  A 0.75 0.70 -10.8 0 0 260.47 27.24
  L 260.41 42.57
  A 0.97 0.80 19.1 0 0 260.87 43.33
  Q 272.31 50.32 280.69 54.81
  C 285.99 57.65 287.45 61.30 287.59 67.49
  Q 287.98 84.30 288.00 101.12
  C 288.01 111.33 281.07 111.36 273.09 111.16
  C 264.02 110.94 255.40 111.40 248.00 111.25
  C 240.06 111.09 237.80 106.20 237.67 98.86
  Q 237.44 84.76 237.44 70.20
  A 0.70 0.70 -89.7 0 1 238.14 69.50
  L 259.10 69.50
  A 1.40 1.40 89.7 0 1 260.50 70.90
  L 260.50 90.85
  A 2.57 2.54 24.4 0 0 261.15 92.55
  Q 263.85 95.58 266.39 92.33
  A 1.53 1.23 69.2 0 0 266.68 91.44
  L 266.44 72.82
  A 0.97 0.93 -74.6 0 0 266.02 72.04
  Q 256.24 65.61 246.29 59.47
  C 241.05 56.24 237.07 51.97 237.17 45.75
  Q 237.33 35.31 237.12 24.87
  C 236.92 14.98 238.56 8.56 249.50 8.47
  Q 263.26 8.36 277.01 8.27
  C 282.70 8.24 286.30 9.83 288.58 14.89
  C 290.44 19.01 289.82 9.39 289.95 8.80
  A 0.64 0.61 5.5 0 1 290.57 8.31
  Q 320.78 7.91 351.00 7.78
  C 357.14 7.75 367.55 6.97 375.00 7.75
  C 381.28 8.41 383.87 12.65 384.02 18.77
  Q 384.63 43.81 384.25 50.50
  Q 383.89 56.98 377.95 60.48
  Q 376.98 61.04 377.99 61.52
  Z
  M 355.93 25.33
  L 356.16 49.06
  A 0.55 0.54 0.6 0 0 356.69 49.59
  C 360.88 49.69 362.48 47.34 362.35 43.24
  C 362.15 36.84 364.85 26.75 356.66 24.78
  A 0.59 0.57 7.1 0 0 355.93 25.33
  Z"
/>
<path fill="#000000" d="
  M 185.49 67.64
  A 1.19 1.19 78.9 0 0 184.74 68.76
  L 185.01 110.22
  A 1.01 1.00 90.0 0 1 184.00 111.24
  L 167.20 111.20
  A 0.94 0.93 90.0 0 1 166.28 110.27
  L 165.56 9.82
  A 0.53 0.51 89.4 0 1 166.06 9.29
  L 193.85 8.93
  A 0.63 0.61 85.7 0 1 194.46 9.47
  L 199.25 42.94
  A 0.71 0.58 86.7 0 0 199.81 43.55
  C 200.74 43.61 200.50 42.02 200.58 41.44
  Q 202.83 25.34 205.48 9.30
  A 0.58 0.58 -85.3 0 1 206.05 8.81
  L 233.50 8.75
  A 0.56 0.56 89.5 0 1 234.06 9.30
  L 234.69 110.44
  A 0.53 0.52 89.4 0 1 234.18 110.97
  L 215.52 111.23
  A 1.05 1.01 89.2 0 1 214.49 110.19
  Q 214.31 90.15 214.25 69.57
  C 214.25 68.37 214.07 66.72 212.36 67.67
  A 1.08 0.92 82.0 0 0 211.87 68.44
  L 206.64 109.90
  A 1.54 1.53 -86.4 0 1 205.12 111.25
  L 193.83 111.25
  A 0.92 0.92 -4.0 0 1 192.92 110.46
  Q 189.94 89.24 187.24 69.22
  Q 186.95 67.06 185.49 67.64
  Z"
/>
<path fill="#000000" d="
  M 140.36 91.35
  L 134.09 91.56
  A 0.82 0.81 1.2 0 0 133.31 92.30
  L 131.77 110.59
  A 0.73 0.73 2.6 0 1 131.04 111.25
  L 112.68 111.19
  A 0.56 0.56 3.6 0 1 112.12 110.56
  L 124.44 9.90
  A 0.75 0.74 3.5 0 1 125.18 9.25
  L 149.80 9.25
  A 1.02 1.01 86.1 0 1 150.80 10.13
  L 164.01 110.36
  A 0.79 0.79 -3.8 0 1 163.23 111.25
  L 144.29 111.25
  A 0.93 0.93 -2.7 0 1 143.36 110.41
  L 141.65 92.45
  A 1.26 1.22 -3.7 0 0 140.36 91.35
  Z
  M 136.94 50.94
  Q 136.08 62.19 135.07 73.40
  A 0.60 0.56 -0.6 0 0 135.73 74.00
  L 139.47 73.68
  A 0.49 0.46 -4.8 0 0 139.92 73.18
  L 138.03 51.25
  A 1.09 0.75 -83.6 0 0 137.60 50.45
  Q 137.00 50.11 136.94 50.94
  Z"
/>
<path fill="#000000" d="
  M 147.46 155.35
  Q 148.07 157.66 148.39 155.30
  C 148.66 153.35 150.97 135.28 152.42 136.63
  A 1.35 0.98 -75.1 0 1 152.76 137.51
  L 153.06 201.82
  A 0.78 0.72 78.9 0 1 152.62 202.54
  Q 150.84 203.32 150.75 200.75
  C 150.32 188.44 147.70 145.16 136.27 138.40
  Q 133.91 137.01 132.32 139.25
  Q 129.18 143.69 128.01 148.80
  Q 124.71 163.34 123.77 178.24
  Q 120.99 222.56 125.46 266.73
  C 126.15 273.63 127.40 283.30 131.52 289.08
  Q 133.30 291.57 135.80 289.82
  C 141.41 285.91 142.87 275.47 143.16 269.25
  Q 144.18 247.57 143.59 225.88
  Q 143.44 220.26 143.28 219.65
  C 142.09 215.30 134.66 216.62 135.40 213.78
  A 0.68 0.64 7.2 0 1 136.05 213.31
  Q 149.03 213.20 162.00 213.29
  Q 163.89 213.30 163.16 215.00
  A 1.25 0.65 -8.7 0 1 162.45 215.52
  L 156.15 217.64
  Q 154.28 218.27 154.24 220.56
  Q 153.68 255.10 154.18 289.94
  A 0.90 0.84 75.1 0 1 153.77 290.71
  Q 151.25 292.20 151.65 288.24
  Q 152.43 280.50 149.68 273.30
  A 0.93 0.93 57.2 0 0 148.15 272.97
  Q 146.46 274.67 145.57 277.52
  Q 143.72 283.38 140.84 288.80
  C 138.07 293.99 131.38 294.16 127.06 290.94
  C 115.05 281.98 112.23 247.30 111.75 233.25
  C 110.75 203.56 111.34 170.78 124.31 143.31
  C 126.20 139.32 129.03 135.62 133.86 135.72
  C 142.71 135.91 145.72 148.69 147.46 155.35
  Z"
/>
<path fill="#000000" d="
  M 197.28 196.31
  Q 197.52 197.32 197.81 196.33
  Q 202.21 181.20 206.67 166.10
  C 208.71 159.21 211.44 141.39 201.25 139.58
  A 1.09 0.92 -5.0 0 1 200.51 139.06
  Q 199.50 136.93 202.25 136.97
  Q 212.80 137.13 223.34 136.84
  C 224.93 136.80 226.72 137.56 225.05 139.34
  A 1.60 1.15 10.3 0 1 224.19 139.75
  C 217.83 140.70 214.18 147.94 212.34 153.49
  Q 205.87 173.08 200.50 193.00
  Q 199.64 196.17 198.70 198.70
  Q 198.15 200.20 198.51 201.75
  Q 207.90 241.65 217.25 280.50
  C 219.06 288.04 221.44 289.36 228.94 290.02
  A 1.21 0.97 -11.0 0 1 229.76 290.45
  Q 230.52 291.53 229.59 292.38
  A 1.45 1.09 17.8 0 1 228.69 292.69
  L 194.31 292.69
  A 0.99 0.93 -16.3 0 1 193.51 292.28
  Q 191.93 289.99 195.31 289.91
  C 205.98 289.68 204.99 282.43 203.11 274.52
  Q 197.46 250.68 191.57 226.24
  Q 191.06 224.13 190.48 226.22
  Q 186.85 239.51 182.69 253.69
  Q 180.31 261.80 179.66 266.74
  C 178.70 274.17 180.01 288.79 189.69 290.01
  A 1.01 0.87 -7.0 0 1 190.43 290.50
  Q 191.56 292.75 188.50 292.75
  Q 175.45 292.75 162.41 292.75
  C 160.93 292.75 159.70 292.02 160.76 290.45
  A 1.63 1.07 -1.6 0 1 161.53 289.91
  C 168.73 287.44 173.66 274.69 175.92 268.31
  C 181.17 253.42 185.25 237.88 189.68 222.71
  Q 190.25 220.75 189.78 218.76
  Q 181.96 185.54 174.15 152.32
  C 172.72 146.21 170.95 139.27 163.00 139.75
  Q 159.92 139.93 160.64 137.54
  A 0.72 0.68 8.2 0 1 161.32 137.06
  L 196.51 137.00
  A 0.89 0.81 -12.8 0 1 197.27 137.43
  Q 197.84 138.52 197.07 139.35
  A 1.25 0.92 17.0 0 1 196.19 139.66
  C 188.48 139.39 184.71 143.66 186.59 151.43
  Q 192.02 173.92 197.28 196.31
  Z"
/>
<path fill="#000000" d="
  M 347.30 294.28
  Q 340.79 290.08 338.37 284.05
  C 332.26 268.82 329.62 251.81 328.72 235.50
  C 327.19 208.06 327.90 179.66 336.28 153.26
  C 338.76 145.44 346.13 129.59 355.94 142.56
  Q 358.40 145.82 360.86 153.30
  C 368.75 177.33 369.84 203.71 368.82 228.76
  C 368.18 244.50 365.54 285.43 350.02 294.35
  A 2.60 2.60 46.4 0 1 347.30 294.28
  Z
  M 347.20 291.07
  Q 348.67 292.47 349.95 290.89
  C 353.50 286.52 354.49 273.35 354.83 267.76
  C 356.90 233.64 356.83 198.91 355.73 164.75
  C 355.55 159.23 355.03 144.39 349.89 140.06
  A 1.24 1.14 60.5 0 0 349.00 139.77
  C 341.52 140.43 341.34 186.19 341.25 193.00
  Q 340.69 233.92 341.50 267.25
  C 341.66 273.81 342.58 286.71 347.20 291.07
  Z"
/>
<path fill="#000000" d="
  M 409.37 294.19
  C 406.04 295.94 401.74 290.95 400.52 288.99
  C 394.70 279.63 392.10 267.93 390.42 257.17
  C 387.46 238.20 386.87 219.06 387.66 200.00
  C 388.21 186.61 391.85 146.91 404.16 138.82
  C 420.17 128.30 426.64 182.81 427.25 190.00
  Q 429.76 219.79 426.46 249.50
  C 425.18 261.02 420.84 288.16 409.37 294.19
  Z
  M 406.73 291.34
  Q 408.37 292.34 409.38 290.70
  C 413.67 283.74 414.07 269.10 414.40 261.00
  Q 416.37 213.13 414.92 165.25
  C 414.72 158.59 414.30 145.58 409.60 140.45
  Q 407.77 138.46 406.23 140.68
  C 402.80 145.62 402.11 157.26 401.71 163.25
  C 399.51 195.95 400.03 228.99 400.59 261.75
  C 400.70 267.86 400.99 287.84 406.73 291.34
  Z"
/>
<path fill="#000000" d="
  M 470.01 293.38
  C 464.17 297.97 457.86 286.66 456.46 283.02
  Q 451.02 268.83 449.02 253.75
  Q 444.25 217.78 448.41 181.74
  C 449.07 175.99 457.01 124.47 472.60 140.47
  C 476.61 144.58 478.82 151.13 480.36 156.54
  C 488.62 185.39 489.25 217.79 486.04 247.45
  C 484.63 260.52 480.69 284.98 470.01 293.38
  Z
  M 465.84 291.23
  A 1.63 1.63 40.7 0 0 468.11 291.06
  C 471.49 287.24 472.34 277.71 472.76 272.75
  C 475.77 237.38 475.16 200.98 474.21 165.50
  Q 473.96 156.23 471.99 147.20
  C 469.69 136.68 464.70 138.00 463.03 147.60
  Q 460.31 163.30 459.94 179.25
  Q 458.99 220.50 459.70 261.75
  C 459.82 268.80 460.18 286.49 465.84 291.23
  Z"
/>
<path fill="#000000" d="
  M 299.55 250.81
  L 299.74 284.25
  A 1.65 1.59 28.5 0 0 300.03 285.17
  Q 302.95 289.33 308.25 289.27
  A 1.09 0.95 -17.7 0 1 309.08 289.63
  Q 310.71 291.68 307.75 291.75
  Q 302.80 291.87 277.56 291.69
  A 1.39 1.05 -17.3 0 1 276.67 291.37
  Q 275.74 290.50 276.68 289.62
  A 1.43 0.98 15.8 0 1 277.57 289.32
  Q 281.91 289.32 285.95 287.68
  Q 288.74 286.55 288.75 283.52
  L 288.81 250.94
  A 0.52 0.51 -89.4 0 0 288.31 250.42
  L 268.53 250.27
  A 0.59 0.58 7.3 0 1 267.96 249.55
  L 296.48 140.09
  A 0.78 0.78 7.1 0 1 297.24 139.50
  L 308.50 139.50
  A 0.57 0.56 -80.1 0 1 309.03 140.26
  Q 291.94 187.10 275.21 233.05
  C 274.32 235.50 273.75 238.40 272.84 241.00
  A 0.72 0.69 -80.2 0 0 273.49 241.96
  L 288.44 241.72
  A 0.54 0.48 -90.0 0 0 288.92 241.18
  L 288.98 214.50
  A 0.95 0.94 -16.6 0 1 289.41 213.71
  L 298.82 207.51
  Q 299.26 207.22 299.26 207.75
  L 299.48 241.10
  A 0.87 0.82 89.6 0 0 300.30 241.96
  L 308.72 241.92
  A 0.72 0.69 -0.8 0 1 309.45 242.60
  L 309.48 249.25
  A 1.04 1.00 -0.3 0 1 308.44 250.26
  L 300.06 250.30
  A 0.51 0.51 0.0 0 0 299.55 250.81
  Z"
/>
</svg>
