<?xml version="1.0" encoding="UTF-8" standalone="no"?>
<!DOCTYPE svg PUBLIC "-//W3C//DTD SVG 1.1//EN" "http://www.w3.org/Graphics/SVG/1.1/DTD/svg11.dtd">
<svg xmlns="http://www.w3.org/2000/svg" version="1.1" viewBox="0 0 600 300">
<path fill="#000000" d="
  M 586.00 189.39
  A 0.61 0.61 0.0 0 1 585.39 190.00
  L 15.61 190.00
  A 0.61 0.61 0.0 0 1 15.00 189.39
  L 15.00 111.61
  A 0.61 0.61 0.0 0 1 15.61 111.00
  L 585.39 111.00
  A 0.61 0.61 0.0 0 1 586.00 111.61
  L 586.00 189.39
  Z
  M 128.79 169.35
  L 128.91 154.94
  A 0.54 0.52 -0.0 0 1 129.44 154.43
  Q 143.41 154.12 157.39 154.24
  C 159.51 154.26 161.79 154.01 162.94 156.06
  Q 163.85 157.70 165.04 156.98
  A 1.00 0.78 79.1 0 0 165.45 156.18
  Q 165.54 149.66 165.51 143.15
  C 165.50 141.36 163.92 139.72 162.82 142.32
  Q 162.12 144.00 160.30 144.00
  L 129.63 144.00
  A 0.88 0.88 0.0 0 1 128.75 143.12
  L 128.75 130.81
  A 0.56 0.56 0.0 0 1 129.31 130.25
  L 177.19 130.25
  Q 178.97 130.25 179.62 131.90
  Q 180.41 133.90 181.80 132.99
  A 1.02 0.86 76.1 0 0 182.20 132.18
  L 182.20 117.56
  A 0.79 0.72 -80.3 0 0 181.74 116.84
  Q 180.32 116.29 179.52 118.06
  Q 178.79 119.68 177.01 119.68
  Q 142.66 119.80 109.75 119.86
  Q 106.41 119.86 108.43 121.63
  Q 108.74 121.89 109.30 122.02
  Q 110.44 122.27 111.19 123.11
  A 1.43 1.10 -71.7 0 1 111.50 124.00
  L 111.44 176.45
  A 1.07 0.89 -22.2 0 1 111.03 177.22
  Q 109.56 178.39 110.13 180.21
  A 0.74 0.68 -8.0 0 0 110.82 180.69
  L 177.99 180.75
  Q 179.77 180.75 180.73 182.24
  C 182.51 185.01 183.52 183.35 183.48 181.33
  Q 183.38 175.25 183.69 169.19
  Q 183.81 166.75 181.90 167.48
  A 1.69 1.12 -75.5 0 0 181.19 168.12
  C 179.64 170.67 177.82 170.25 175.17 170.25
  Q 153.30 170.25 129.73 170.25
  A 0.94 0.90 -0.0 0 1 128.79 169.35
  Z
  M 98.09 124.05
  C 86.62 120.77 76.27 117.48 64.17 117.42
  C 51.92 117.35 29.05 119.99 28.36 136.74
  C 27.90 148.00 37.99 153.38 47.76 154.71
  C 59.34 156.29 69.11 156.42 79.99 158.12
  Q 82.10 158.45 83.90 159.60
  C 88.18 162.33 83.74 166.98 80.94 168.19
  C 72.47 171.85 63.41 171.60 54.06 169.92
  C 49.99 169.19 37.63 166.16 36.33 161.89
  Q 35.19 158.13 33.18 161.51
  L 25.76 174.07
  A 1.38 0.94 -44.1 0 0 25.57 175.00
  Q 25.99 176.72 28.81 175.71
  A 4.01 3.97 45.3 0 1 31.61 175.74
  Q 54.23 184.51 77.53 181.71
  C 87.38 180.53 101.32 175.61 103.04 164.62
  C 105.82 146.87 84.16 143.52 72.00 142.75
  Q 64.88 142.30 52.99 141.07
  C 49.20 140.68 40.76 137.27 47.44 132.44
  C 57.67 125.04 77.78 129.09 88.19 134.31
  Q 90.46 135.45 91.36 137.24
  A 1.45 1.04 80.2 0 0 92.02 137.89
  Q 93.96 138.65 94.81 137.31
  Q 98.71 131.20 102.72 125.16
  A 0.70 0.64 -48.3 0 0 102.71 124.36
  Q 101.19 122.53 98.98 123.90
  A 1.17 1.01 -50.5 0 1 98.09 124.05
  Z
  M 272.46 168.21
  C 271.49 163.35 271.19 155.20 273.76 150.99
  Q 274.77 149.31 272.82 149.31
  L 238.03 149.26
  A 1.92 1.89 -12.3 0 1 236.32 148.18
  Q 235.62 146.68 233.68 147.06
  A 0.69 0.65 86.3 0 0 233.16 147.69
  C 233.03 150.25 232.25 158.90 233.91 160.53
  A 0.96 0.96 -43.4 0 0 235.23 160.56
  Q 237.21 158.78 238.76 158.68
  Q 247.78 158.10 256.81 158.42
  A 0.68 0.64 -4.9 0 1 257.44 158.92
  Q 258.03 161.40 257.58 165.17
  A 1.79 1.77 -6.9 0 1 256.43 166.62
  C 243.54 171.35 223.62 172.94 212.19 163.56
  Q 205.58 158.14 205.50 150.39
  C 205.40 139.40 214.30 131.62 224.74 129.67
  Q 240.71 126.69 256.26 133.59
  Q 258.05 134.38 258.57 136.27
  Q 259.52 139.67 261.52 136.54
  Q 265.18 130.82 268.86 125.11
  C 269.44 124.21 269.77 122.91 268.54 122.44
  A 1.35 0.85 -37.9 0 0 267.62 122.53
  Q 265.12 123.66 262.31 122.69
  Q 242.59 115.85 221.50 118.73
  C 205.10 120.97 187.70 131.00 187.95 149.97
  C 188.21 169.11 206.49 179.22 223.75 180.75
  Q 249.58 183.04 274.15 171.82
  A 1.28 1.28 60.1 0 0 274.66 169.92
  Q 274.16 169.22 273.04 168.83
  A 0.91 0.79 6.0 0 1 272.46 168.21
  Z
  M 360.31 177.23
  Q 356.59 172.04 354.04 167.62
  Q 342.24 147.08 330.41 126.55
  C 329.50 124.95 328.35 123.91 329.52 121.98
  A 1.27 0.89 4.3 0 1 330.31 121.51
  Q 331.69 121.25 331.97 119.92
  A 0.97 0.97 -84.2 0 0 331.02 118.75
  L 307.06 118.81
  A 0.96 0.78 11.9 0 0 306.27 119.22
  C 304.83 121.78 310.80 120.98 308.71 124.81
  Q 294.77 150.46 280.19 175.75
  A 2.00 1.43 -7.2 0 1 279.49 176.40
  Q 277.71 177.34 278.07 179.32
  A 0.62 0.62 -5.0 0 0 278.68 179.83
  L 297.31 179.84
  A 0.61 0.61 -85.6 0 0 297.91 179.32
  Q 298.19 177.36 296.85 175.86
  A 0.76 0.67 39.5 0 1 296.72 175.04
  L 301.93 165.60
  A 2.37 2.08 12.6 0 1 303.93 164.50
  L 333.07 164.50
  A 1.66 1.49 -13.1 0 1 334.47 165.27
  L 339.81 174.79
  A 1.73 1.50 -44.1 0 1 339.66 176.51
  Q 338.61 178.03 339.12 179.48
  A 0.74 0.69 -8.8 0 0 339.81 179.95
  L 358.93 179.96
  Q 362.28 179.97 360.31 177.23
  Z
  M 578.00 120.57
  A 0.57 0.57 0.0 0 0 577.43 120.00
  L 381.57 120.00
  A 0.57 0.57 0.0 0 0 381.00 120.57
  L 381.00 180.43
  A 0.57 0.57 0.0 0 0 381.57 181.00
  L 577.43 181.00
  A 0.57 0.57 0.0 0 0 578.00 180.43
  L 578.00 120.57
  Z"
/>
<path fill="#000000" d="
  M 536.11 140.18
  C 533.32 129.24 506.43 128.02 497.81 128.18
  A 0.63 0.59 -6.1 0 1 497.19 127.71
  C 496.73 125.24 499.51 125.79 500.96 125.67
  C 509.34 124.96 571.43 120.79 568.90 136.91
  C 566.40 152.91 497.88 165.56 484.39 167.85
  A 0.82 0.82 85.3 0 1 483.43 167.03
  L 483.74 146.00
  A 1.17 0.72 80.6 0 1 484.09 145.14
  Q 484.50 144.85 485.01 145.06
  A 1.18 0.78 86.3 0 1 485.57 145.80
  L 490.20 162.33
  A 0.88 0.88 78.2 0 0 491.16 162.96
  C 499.68 161.84 539.58 153.83 536.11 140.18
  Z"
/>
<path fill="#000000" d="
  M 389.62 162.09
  C 388.14 146.08 441.09 134.97 452.28 133.09
  A 0.63 0.63 -11.8 0 1 453.00 133.56
  C 453.47 135.44 451.41 135.19 450.47 135.50
  C 442.27 138.19 414.39 149.38 424.19 162.56
  C 429.23 169.34 449.53 170.47 457.19 170.09
  A 0.65 0.63 -9.5 0 1 457.85 170.54
  C 458.54 173.00 455.60 172.21 454.23 172.37
  C 443.89 173.58 391.10 178.06 389.62 162.09
  Z"
/>
<path fill="#000000" d="
  M 318.16 135.76
  A 0.21 0.20 -56.7 0 1 318.47 135.69
  C 319.43 136.48 319.82 137.84 320.29 138.73
  Q 324.48 146.74 329.16 154.96
  A 0.42 0.41 -14.8 0 1 328.79 155.58
  L 307.89 155.68
  A 0.39 0.39 14.2 0 1 307.55 155.11
  L 318.16 135.76
  Z"
/>
</svg>
