<?xml version="1.0" encoding="UTF-8" standalone="no"?>
<!DOCTYPE svg PUBLIC "-//W3C//DTD SVG 1.1//EN" "http://www.w3.org/Graphics/SVG/1.1/DTD/svg11.dtd">
<svg xmlns="http://www.w3.org/2000/svg" version="1.1" viewBox="0 0 600 209">
<g stroke-width="2.00" fill="none" stroke-linecap="butt">
<path stroke="#5aae8d" stroke-opacity="0.996" vector-effect="non-scaling-stroke" d="
  M 160.04 173.50
  Q 155.72 171.88 152.04 174.50"
/>
<path stroke="#90bc68" vector-effect="non-scaling-stroke" d="
  M 177.68 39.83
  L 181.50 43.46"
/>
<path stroke="#477ab1" vector-effect="non-scaling-stroke" d="
  M 181.50 43.46
  C 180.83 43.80 180.61 44.04 179.80 43.95
  Q 129.31 38.22 78.83 32.35
  C 75.87 32.00 73.32 31.71 70.50 32.50
  Q 37.82 41.70 6.10 51.00
  A 1.47 1.46 -16.3 0 0 5.10 52.81
  L 33.67 150.21
  A 1.05 0.97 -89.6 0 0 34.27 150.87
  Q 36.24 151.61 41.00 152.50
  Q 86.54 161.05 132.06 169.69
  Q 139.24 171.05 145.29 170.18
  C 151.76 169.26 158.18 168.72 164.69 168.22
  A 1.33 0.70 -58.1 0 0 165.46 167.77
  C 165.93 167.25 181.75 165.47 183.72 165.25
  Q 193.30 164.20 202.84 162.84
  C 203.81 162.71 204.46 163.12 205.45 162.99
  Q 224.07 160.56 242.72 158.37
  C 245.95 157.99 248.31 157.67 252.00 158.00
  Q 280.12 160.53 383.75 169.25
  C 397.57 170.41 415.52 169.27 427.51 169.17
  Q 487.33 168.69 546.64 168.01
  A 1.92 1.91 10.7 0 0 548.38 166.83
  L 594.90 53.74
  A 0.99 0.98 -72.6 0 0 594.20 52.40
  Q 533.86 39.22 474.13 26.51
  Q 471.75 26.00 469.38 26.53
  Q 416.64 38.30 364.00 50.50
  Q 360.40 51.33 355.25 51.25
  Q 337.75 50.99 258.50 50.25
  Q 236.98 50.05 225.64 49.11"
/>
<path stroke="#90bc68" vector-effect="non-scaling-stroke" d="
  M 225.64 49.11
  L 226.96 45.50"
/>
<path stroke="#90bc68" vector-effect="non-scaling-stroke" d="
  M 183.75 41.04
  Q 184.42 42.37 183.54 43.50"
/>
<path stroke="#90bc68" vector-effect="non-scaling-stroke" d="
  M 186.96 44.75
  L 187.21 41.25"
/>
<path stroke="#a99358" vector-effect="non-scaling-stroke" d="
  M 181.50 43.46
  Q 182.55 43.96 183.54 43.50"
/>
<path stroke="#477ab1" vector-effect="non-scaling-stroke" d="
  M 183.54 43.50
  Q 184.96 44.88 186.96 44.75"
/>
<path stroke="#a99358" vector-effect="non-scaling-stroke" d="
  M 186.96 44.75
  Q 188.73 51.87 195.26 54.42
  Q 197.53 55.31 198.27 56.31
  C 200.22 58.95 199.53 62.11 202.94 63.94
  Q 204.40 64.72 204.83 65.40
  C 207.13 69.02 200.82 67.67 200.10 70.28
  C 199.30 73.19 201.98 74.92 204.70 74.56
  Q 205.82 74.41 205.32 75.42
  Q 203.37 79.41 206.92 80.34
  C 210.36 81.24 210.72 81.02 210.00 77.15
  Q 209.60 75.05 211.57 75.44
  L 213.46 75.82
  A 0.94 0.83 25.3 0 0 214.29 75.58
  Q 217.03 72.70 212.93 71.56
  A 1.17 1.16 26.3 0 1 212.31 69.74
  Q 213.12 68.65 214.76 68.33
  A 1.63 1.00 4.5 0 0 215.61 67.90
  Q 216.77 66.63 214.93 65.81
  A 1.37 1.26 -68.7 0 1 214.29 64.16
  L 216.41 57.91
  A 4.26 2.15 -85.7 0 1 217.49 56.12
  L 225.64 49.11"
/>
<path stroke="#a33451" vector-effect="non-scaling-stroke" d="
  M 495.50 59.04
  C 495.34 63.07 497.70 63.85 500.90 62.25
  Q 508.09 58.67 511.81 50.79
  Q 512.68 48.95 511.89 47.08
  Q 511.01 44.99 509.04 45.25"
/>
<path stroke="#a99358" vector-effect="non-scaling-stroke" d="
  M 509.04 45.25
  C 509.23 39.18 503.07 41.77 500.56 43.81
  C 498.41 45.57 486.72 58.88 495.50 59.04"
/>
<path stroke="#ed7608" vector-effect="non-scaling-stroke" d="
  M 509.04 45.25
  Q 505.47 55.31 495.50 59.04"
/>
<path stroke="#a33451" vector-effect="non-scaling-stroke" d="
  M 455.39 57.03
  Q 458.12 61.69 462.95 62.64
  Q 465.51 63.15 465.29 60.55
  Q 464.82 54.74 460.86 51.41"
/>
<path stroke="#a99358" vector-effect="non-scaling-stroke" d="
  M 460.86 51.41
  Q 456.84 44.05 449.21 41.88
  A 0.99 0.99 3.9 0 0 447.96 42.97
  Q 449.16 51.54 455.39 57.03"
/>
<path stroke="#ed7608" vector-effect="non-scaling-stroke" d="
  M 460.86 51.41
  Q 462.05 54.71 462.01 57.29
  Q 461.98 59.49 460.02 58.75
  L 455.39 57.03"
/>
<path stroke="#a33451" vector-effect="non-scaling-stroke" d="
  M 67.31 127.48
  Q 70.99 132.83 77.57 134.14
  C 84.05 135.44 95.60 135.63 98.59 128.00
  C 100.87 122.17 97.17 116.00 95.56 110.70
  Q 94.91 108.54 97.04 107.82
  Q 100.67 106.59 104.51 106.78
  Q 124.76 107.76 139.56 94.31
  C 143.96 90.31 144.10 86.46 143.75 80.48
  C 143.49 75.96 143.02 70.23 139.04 67.25"
/>
<path stroke="#a99358" vector-effect="non-scaling-stroke" d="
  M 139.04 67.25
  Q 135.95 62.58 130.93 60.07
  C 111.76 50.46 91.59 49.28 70.67 53.17
  C 62.70 54.65 57.48 58.12 56.78 66.41
  Q 56.60 68.51 54.52 68.75
  C 50.82 69.18 43.83 70.53 46.56 76.19
  Q 51.10 85.55 53.52 93.44
  C 57.23 105.55 57.13 118.17 67.31 127.48"
/>
<path stroke="#ed7608" vector-effect="non-scaling-stroke" d="
  M 139.04 67.25
  C 140.83 73.73 142.32 84.99 137.06 89.81
  Q 120.69 104.81 97.75 103.00
  Q 92.58 102.59 92.46 106.22
  Q 92.41 107.41 93.87 110.97
  C 102.77 132.77 80.05 134.20 67.31 127.48"
/>
<path stroke="#a33451" vector-effect="non-scaling-stroke" d="
  M 530.11 71.77
  Q 531.54 77.48 538.07 74.82
  C 539.86 74.09 556.25 64.65 550.97 61.94
  A 1.69 0.57 -13.2 0 0 550.01 61.85
  Q 549.01 61.94 547.81 61.26"
/>
<path stroke="#a99358" vector-effect="non-scaling-stroke" d="
  M 547.81 61.26
  Q 549.63 58.79 547.21 57.69
  A 1.39 1.20 -37.8 0 0 546.28 57.64
  Q 536.47 60.67 527.97 66.63
  Q 526.24 67.84 527.34 69.64
  Q 528.16 70.99 530.11 71.77"
/>
<path stroke="#ed7608" vector-effect="non-scaling-stroke" d="
  M 547.81 61.26
  Q 541.01 69.95 530.11 71.77"
/>
<path stroke="#a33451" vector-effect="non-scaling-stroke" d="
  M 434.29 115.65
  C 439.85 122.12 446.02 124.18 455.33 127.55
  C 477.28 135.51 502.51 135.26 522.51 122.31
  C 529.89 117.53 534.59 114.31 534.39 105.50
  Q 534.25 99.54 534.50 91.25
  Q 534.67 85.63 530.49 82.03"
/>
<path stroke="#a99358" vector-effect="non-scaling-stroke" d="
  M 530.49 82.03
  C 525.91 74.03 515.91 69.81 507.33 67.86
  C 481.99 62.10 455.50 63.17 434.98 80.97
  C 423.70 90.76 423.98 105.46 434.29 115.65"
/>
<path stroke="#ed7608" vector-effect="non-scaling-stroke" d="
  M 530.49 82.03
  C 531.81 88.20 530.98 94.47 531.29 100.75
  Q 531.71 109.04 525.28 114.02
  C 497.71 135.34 463.26 131.74 434.29 115.65"
/>
<path stroke="#a33451" vector-effect="non-scaling-stroke" d="
  M 410.06 73.44
  Q 416.56 81.54 426.75 83.75
  C 433.01 85.10 430.62 78.70 427.54 76.75"
/>
<path stroke="#a99358" vector-effect="non-scaling-stroke" d="
  M 427.54 76.75
  Q 421.79 68.51 412.05 65.72
  Q 406.34 64.09 406.99 69.44
  A 1.77 1.50 24.8 0 0 407.40 70.32
  L 410.06 73.44"
/>
<path stroke="#ed7608" vector-effect="non-scaling-stroke" d="
  M 427.54 76.75
  C 426.72 84.24 413.07 75.64 410.06 73.44"
/>
<path stroke="#a33451" vector-effect="non-scaling-stroke" d="
  M 280.37 123.60
  Q 291.91 134.72 306.98 138.43
  Q 314.22 140.21 326.17 140.28
  C 344.45 140.39 360.56 138.18 375.61 126.95
  C 380.19 123.54 382.07 119.06 376.54 115.25"
/>
<path stroke="#a99358" vector-effect="non-scaling-stroke" d="
  M 376.54 115.25
  Q 375.55 112.22 372.94 111.31
  C 350.05 103.39 331.20 127.56 309.93 116.74"
/>
<path stroke="#a33451" vector-effect="non-scaling-stroke" d="
  M 309.93 116.74
  C 309.77 101.80 326.68 96.69 338.66 94.96
  Q 350.05 93.31 361.02 89.80
  C 365.74 88.29 363.53 83.42 360.54 81.75"
/>
<path stroke="#a99358" vector-effect="non-scaling-stroke" d="
  M 360.54 81.75
  Q 357.43 76.83 352.50 74.43
  Q 348.78 72.63 342.23 72.65
  Q 308.84 72.79 281.51 92.06
  C 277.51 94.88 273.65 96.80 272.75 102.00
  Q 270.59 114.43 280.37 123.60"
/>
<path stroke="#ed7608" vector-effect="non-scaling-stroke" d="
  M 360.54 81.75
  Q 360.89 84.61 358.69 85.44
  C 344.79 90.66 327.83 90.12 314.31 98.43
  C 308.18 102.20 303.33 110.65 309.93 116.74"
/>
<path stroke="#ed7608" vector-effect="non-scaling-stroke" d="
  M 376.54 115.25
  C 376.89 121.14 373.69 122.42 368.53 125.66
  C 353.57 135.07 339.76 135.91 322.25 136.25
  Q 299.11 136.70 280.37 123.60"
/>
<path stroke="#a33451" vector-effect="non-scaling-stroke" d="
  M 190.10 137.72
  Q 191.71 140.81 194.45 142.57
  C 205.98 149.96 217.54 146.87 223.88 134.90
  Q 224.93 132.91 224.94 130.22
  Q 224.97 117.02 226.25 105.25
  Q 227.03 98.02 222.56 93.10"
/>
<path stroke="#a99358" vector-effect="non-scaling-stroke" d="
  M 222.56 93.10
  Q 220.48 89.63 218.81 88.94
  C 205.46 83.44 187.58 85.28 187.40 103.71
  C 187.34 110.69 186.66 118.23 185.75 128.50
  Q 185.23 134.34 190.10 137.72"
/>
<path stroke="#ed7608" vector-effect="non-scaling-stroke" d="
  M 222.56 93.10
  C 223.27 103.94 221.47 114.53 221.68 125.67
  Q 221.74 128.54 220.74 130.62
  C 214.71 143.22 201.17 146.41 190.10 137.72"
/>
<path stroke="#a33451" vector-effect="non-scaling-stroke" d="
  M 540.25 101.24
  Q 545.62 108.30 554.42 106.84
  C 556.38 106.52 558.12 105.44 560.74 105.82
  C 565.91 106.56 565.72 100.72 561.25 100.46"
/>
<path stroke="#a99358" vector-effect="non-scaling-stroke" d="
  M 561.25 100.46
  Q 562.07 98.31 560.31 97.44
  Q 549.55 92.11 538.06 95.73
  Q 535.95 96.40 537.30 97.93
  L 540.25 101.24"
/>
<path stroke="#ed7608" vector-effect="non-scaling-stroke" d="
  M 561.25 100.46
  Q 558.89 102.38 555.92 101.69
  A 1.68 1.45 37.6 0 0 554.98 101.74
  Q 547.86 104.37 540.25 101.24"
/>
<path stroke="#a33451" vector-effect="non-scaling-stroke" d="
  M 403.75 108.54
  Q 401.54 112.08 405.55 112.56
  Q 415.34 113.76 425.55 111.98
  Q 427.62 111.62 427.01 109.60
  Q 425.97 106.19 424.19 106.75"
/>
<path stroke="#a99358" vector-effect="non-scaling-stroke" d="
  M 424.19 106.75
  C 422.49 98.47 408.37 101.59 402.87 103.42
  C 399.02 104.71 397.77 108.36 403.75 108.54"
/>
<path stroke="#ed7608" vector-effect="non-scaling-stroke" d="
  M 424.19 106.75
  Q 414.24 110.27 403.75 108.54"
/>
<path stroke="#a33451" vector-effect="non-scaling-stroke" d="
  M 529.78 129.25
  Q 535.71 136.56 544.92 138.81
  C 546.41 139.17 548.27 140.36 549.31 138.41
  C 550.56 136.05 548.46 133.08 546.54 131.75"
/>
<path stroke="#a99358" vector-effect="non-scaling-stroke" d="
  M 546.54 131.75
  Q 540.92 123.59 531.00 120.75
  C 526.27 119.39 524.76 122.75 527.12 126.17
  Q 528.27 127.83 529.78 129.25"
/>
<path stroke="#ed7608" vector-effect="non-scaling-stroke" d="
  M 546.54 131.75
  Q 546.77 133.98 545.16 135.22
  A 1.17 1.02 29.7 0 1 544.26 135.40
  Q 536.50 133.83 529.78 129.25"
/>
<path stroke="#a33451" vector-effect="non-scaling-stroke" d="
  M 425.50 139.04
  C 424.80 141.40 425.88 143.05 428.46 142.92
  Q 434.66 142.62 439.14 138.14
  C 441.92 135.36 448.96 128.88 441.75 127.46"
/>
<path stroke="#a99358" vector-effect="non-scaling-stroke" d="
  M 441.75 127.46
  C 442.36 118.74 428.08 128.46 426.00 130.25
  C 424.10 131.88 418.38 139.76 425.50 139.04"
/>
<path stroke="#ed7608" vector-effect="non-scaling-stroke" d="
  M 441.75 127.46
  C 437.06 133.44 432.99 138.07 425.50 139.04"
/>
<path stroke="#a33451" vector-effect="non-scaling-stroke" d="
  M 504.75 153.04
  Q 506.11 157.26 510.28 156.95
  Q 512.31 156.79 512.50 154.77
  Q 513.33 145.63 507.08 138.93"
/>
<path stroke="#a99358" vector-effect="non-scaling-stroke" d="
  M 507.08 138.93
  Q 504.89 135.46 501.68 132.80
  Q 499.74 131.21 498.48 133.38
  C 495.25 138.95 500.65 149.15 504.75 153.04"
/>
<path stroke="#ed7608" vector-effect="non-scaling-stroke" d="
  M 507.08 138.93
  C 508.63 142.78 512.79 154.03 504.75 153.04"
/>
<path stroke="#a33451" vector-effect="non-scaling-stroke" d="
  M 462.75 152.54
  C 462.40 157.21 465.30 157.27 468.21 155.23
  C 473.00 151.87 474.51 146.47 474.93 140.77
  C 475.09 138.47 473.70 137.50 471.54 137.92"
/>
<path stroke="#a99358" vector-effect="non-scaling-stroke" d="
  M 471.54 137.92
  Q 472.38 131.30 467.06 135.31
  Q 461.57 139.46 460.19 146.79
  C 459.65 149.67 458.53 152.78 462.75 152.54"
/>
<path stroke="#ed7608" vector-effect="non-scaling-stroke" d="
  M 471.54 137.92
  Q 471.26 147.91 462.75 152.54"
/>
<path stroke="#a99358" vector-effect="non-scaling-stroke" d="
  M 85.16 82.17
  C 90.48 88.75 102.19 83.04 107.52 78.77
  Q 109.64 77.07 108.54 75.13"
/>
<path stroke="#ed7608" vector-effect="non-scaling-stroke" d="
  M 108.54 75.13
  Q 104.96 70.07 99.21 68.25
  C 95.37 67.03 80.70 69.07 81.28 75.22
  Q 81.67 79.36 85.16 82.17"
/>
<path stroke="#a33451" vector-effect="non-scaling-stroke" d="
  M 108.54 75.13
  Q 103.43 71.70 97.58 71.99
  C 94.71 72.13 91.47 73.38 88.51 74.30
  Q 82.56 76.14 85.16 82.17"
/>
<path stroke="#a99358" vector-effect="non-scaling-stroke" d="
  M 481.71 86.25
  Q 481.65 87.27 480.96 88.00"
/>
<path stroke="#ed7608" vector-effect="non-scaling-stroke" d="
  M 480.96 88.00
  Q 477.15 90.72 472.50 89.79"
/>
<path stroke="#a99358" vector-effect="non-scaling-stroke" d="
  M 472.50 89.79
  Q 469.09 88.60 468.71 85.00"
/>
<path stroke="#ed7608" vector-effect="non-scaling-stroke" d="
  M 468.71 85.00
  C 468.79 81.20 465.81 81.11 463.25 82.56
  C 455.80 86.81 444.29 97.56 454.41 105.74"
/>
<path stroke="#a99358" vector-effect="non-scaling-stroke" d="
  M 454.41 105.74
  C 460.21 111.95 471.22 113.13 478.42 113.92
  Q 489.71 115.17 500.02 110.41"
/>
<path stroke="#ed7608" vector-effect="non-scaling-stroke" d="
  M 500.02 110.41
  Q 502.18 110.13 504.00 108.71"
/>
<path stroke="#a99358" vector-effect="non-scaling-stroke" d="
  M 504.00 108.71
  C 510.93 105.30 512.99 97.92 513.96 90.71"
/>
<path stroke="#ed7608" vector-effect="non-scaling-stroke" d="
  M 513.96 90.71
  Q 508.79 86.74 502.90 84.00
  Q 499.63 82.47 496.48 84.36
  A 0.85 0.84 -40.2 0 0 496.36 85.73
  C 503.41 91.80 492.55 90.22 490.75 89.79"
/>
<path stroke="#a99358" vector-effect="non-scaling-stroke" d="
  M 490.75 89.79
  Q 486.55 88.67 486.21 84.25"
/>
<path stroke="#ed7608" vector-effect="non-scaling-stroke" d="
  M 486.21 84.25
  L 487.10 81.85
  A 1.08 0.98 13.4 0 0 486.19 80.52
  Q 479.90 79.72 475.81 84.05
  C 473.96 86.00 476.36 85.60 477.15 85.15
  Q 479.96 83.53 481.71 86.25"
/>
<path stroke="#a33451" vector-effect="non-scaling-stroke" d="
  M 486.21 84.25
  C 484.91 84.58 481.65 84.49 481.71 86.25"
/>
<path stroke="#a33451" vector-effect="non-scaling-stroke" d="
  M 504.00 108.71
  Q 504.81 104.73 500.78 105.30"
/>
<path stroke="#a99358" vector-effect="non-scaling-stroke" d="
  M 500.78 105.30
  Q 501.46 102.53 499.94 101.49
  A 1.50 1.05 -24.2 0 0 499.01 101.31
  Q 482.90 103.21 464.83 98.64
  A 3.22 3.18 44.0 0 0 463.18 98.66
  C 459.94 99.60 464.76 102.82 465.54 103.25"
/>
<path stroke="#a33451" vector-effect="non-scaling-stroke" d="
  M 465.54 103.25
  C 464.15 107.59 478.61 110.30 481.25 110.42
  Q 490.60 110.87 500.02 110.41"
/>
<path stroke="#a33451" vector-effect="non-scaling-stroke" d="
  M 472.50 89.79
  C 472.84 95.36 482.22 94.85 484.42 91.51
  C 486.86 87.79 480.60 90.11 480.96 88.00"
/>
<path stroke="#ed7608" vector-effect="non-scaling-stroke" d="
  M 500.78 105.30
  Q 492.75 107.08 483.50 107.00
  Q 473.86 106.92 465.54 103.25"
/>
<path stroke="#a33451" vector-effect="non-scaling-stroke" d="
  M 513.96 90.71
  Q 513.58 91.37 513.32 91.57
  C 513.03 91.80 504.47 86.52 501.10 87.63
  Q 498.66 88.44 500.43 90.30
  C 506.73 96.92 488.13 94.65 490.75 89.79"
/>
<path stroke="#a33451" vector-effect="non-scaling-stroke" d="
  M 468.71 85.00
  Q 463.30 88.20 457.81 93.56
  Q 452.39 98.86 454.41 105.74"
/>
</g>
<ellipse fill="#f2d50f" cx="0.00" cy="0.00" transform="translate(201.66,20.37) rotate(80.3)" rx="3.51" ry="2.44"/>
<ellipse fill="#f2d50f" cx="0.00" cy="0.00" transform="translate(219.53,22.44) rotate(119.4)" rx="4.35" ry="2.46"/>
<ellipse fill="#f2d50f" cx="0.00" cy="0.00" transform="translate(186.80,25.54) rotate(48.0)" rx="4.35" ry="2.16"/>
<path fill="#2ea3c0" d="
  M 160.04 173.50
  Q 155.72 171.88 152.04 174.50
  C 147.47 175.35 143.41 176.28 138.70 175.35
  Q 87.69 165.35 36.68 155.34
  Q 34.11 154.83 31.60 154.75
  A 1.12 1.12 82.6 0 1 30.55 153.94
  L 0.42 49.63
  A 0.92 0.91 74.0 0 1 1.05 48.49
  Q 35.88 38.50 70.75 28.47
  Q 73.25 27.75 75.85 28.06
  Q 126.74 34.06 177.68 39.83
  L 181.50 43.46
  C 180.83 43.80 180.61 44.04 179.80 43.95
  Q 129.31 38.22 78.83 32.35
  C 75.87 32.00 73.32 31.71 70.50 32.50
  Q 37.82 41.70 6.10 51.00
  A 1.47 1.46 -16.3 0 0 5.10 52.81
  L 33.67 150.21
  A 1.05 0.97 -89.6 0 0 34.27 150.87
  Q 36.24 151.61 41.00 152.50
  Q 86.54 161.05 132.06 169.69
  Q 139.24 171.05 145.29 170.18
  C 151.76 169.26 158.18 168.72 164.69 168.22
  A 1.33 0.70 -58.1 0 0 165.46 167.77
  C 165.93 167.25 181.75 165.47 183.72 165.25
  Q 193.30 164.20 202.84 162.84
  C 203.81 162.71 204.46 163.12 205.45 162.99
  Q 224.07 160.56 242.72 158.37
  C 245.95 157.99 248.31 157.67 252.00 158.00
  Q 280.12 160.53 383.75 169.25
  C 397.57 170.41 415.52 169.27 427.51 169.17
  Q 487.33 168.69 546.64 168.01
  A 1.92 1.91 10.7 0 0 548.38 166.83
  L 594.90 53.74
  A 0.99 0.98 -72.6 0 0 594.20 52.40
  Q 533.86 39.22 474.13 26.51
  Q 471.75 26.00 469.38 26.53
  Q 416.64 38.30 364.00 50.50
  Q 360.40 51.33 355.25 51.25
  Q 337.75 50.99 258.50 50.25
  Q 236.98 50.05 225.64 49.11
  L 226.96 45.50
  C 245.07 46.18 263.60 46.12 281.25 46.45
  Q 318.62 47.14 355.99 47.24
  Q 360.49 47.25 364.89 46.26
  Q 417.54 34.40 471.08 22.08
  Q 471.59 21.96 472.09 22.07
  L 599.13 49.97
  A 0.62 0.62 -73.0 0 1 599.57 50.80
  L 551.74 172.35
  A 0.80 0.77 8.6 0 1 551.05 172.84
  Q 544.96 173.18 531.00 173.25
  Q 471.90 173.57 412.81 173.73
  C 402.28 173.76 390.34 174.26 378.50 173.25
  Q 314.92 167.82 251.33 162.39
  Q 246.75 162.00 242.20 162.62
  Q 201.14 168.20 160.04 173.50
  Z"
/>
<path fill="#5f50a1" d="
  M 181.50 43.46
  Q 182.55 43.96 183.54 43.50
  Q 184.96 44.88 186.96 44.75
  Q 188.73 51.87 195.26 54.42
  Q 197.53 55.31 198.27 56.31
  C 200.22 58.95 199.53 62.11 202.94 63.94
  Q 204.40 64.72 204.83 65.40
  C 207.13 69.02 200.82 67.67 200.10 70.28
  C 199.30 73.19 201.98 74.92 204.70 74.56
  Q 205.82 74.41 205.32 75.42
  Q 203.37 79.41 206.92 80.34
  C 210.36 81.24 210.72 81.02 210.00 77.15
  Q 209.60 75.05 211.57 75.44
  L 213.46 75.82
  A 0.94 0.83 25.3 0 0 214.29 75.58
  Q 217.03 72.70 212.93 71.56
  A 1.17 1.16 26.3 0 1 212.31 69.74
  Q 213.12 68.65 214.76 68.33
  A 1.63 1.00 4.5 0 0 215.61 67.90
  Q 216.77 66.63 214.93 65.81
  A 1.37 1.26 -68.7 0 1 214.29 64.16
  L 216.41 57.91
  A 4.26 2.15 -85.7 0 1 217.49 56.12
  L 225.64 49.11
  Q 236.98 50.05 258.50 50.25
  Q 337.75 50.99 355.25 51.25
  Q 360.40 51.33 364.00 50.50
  Q 416.64 38.30 469.38 26.53
  Q 471.75 26.00 474.13 26.51
  Q 533.86 39.22 594.20 52.40
  A 0.99 0.98 -72.6 0 1 594.90 53.74
  L 548.38 166.83
  A 1.92 1.91 10.7 0 1 546.64 168.01
  Q 487.33 168.69 427.51 169.17
  C 415.52 169.27 397.57 170.41 383.75 169.25
  Q 280.12 160.53 252.00 158.00
  C 248.31 157.67 245.95 157.99 242.72 158.37
  Q 224.07 160.56 205.45 162.99
  C 204.46 163.12 203.81 162.71 202.84 162.84
  Q 193.30 164.20 183.72 165.25
  C 181.75 165.47 165.93 167.25 165.46 167.77
  A 1.33 0.70 -58.1 0 1 164.69 168.22
  C 158.18 168.72 151.76 169.26 145.29 170.18
  Q 139.24 171.05 132.06 169.69
  Q 86.54 161.05 41.00 152.50
  Q 36.24 151.61 34.27 150.87
  A 1.05 0.97 -89.6 0 1 33.67 150.21
  L 5.10 52.81
  A 1.47 1.46 -16.3 0 1 6.10 51.00
  Q 37.82 41.70 70.50 32.50
  C 73.32 31.71 75.87 32.00 78.83 32.35
  Q 129.31 38.22 179.80 43.95
  C 180.61 44.04 180.83 43.80 181.50 43.46
  Z
  M 495.50 59.04
  C 495.34 63.07 497.70 63.85 500.90 62.25
  Q 508.09 58.67 511.81 50.79
  Q 512.68 48.95 511.89 47.08
  Q 511.01 44.99 509.04 45.25
  C 509.23 39.18 503.07 41.77 500.56 43.81
  C 498.41 45.57 486.72 58.88 495.50 59.04
  Z
  M 455.39 57.03
  Q 458.12 61.69 462.95 62.64
  Q 465.51 63.15 465.29 60.55
  Q 464.82 54.74 460.86 51.41
  Q 456.84 44.05 449.21 41.88
  A 0.99 0.99 3.9 0 0 447.96 42.97
  Q 449.16 51.54 455.39 57.03
  Z
  M 67.31 127.48
  Q 70.99 132.83 77.57 134.14
  C 84.05 135.44 95.60 135.63 98.59 128.00
  C 100.87 122.17 97.17 116.00 95.56 110.70
  Q 94.91 108.54 97.04 107.82
  Q 100.67 106.59 104.51 106.78
  Q 124.76 107.76 139.56 94.31
  C 143.96 90.31 144.10 86.46 143.75 80.48
  C 143.49 75.96 143.02 70.23 139.04 67.25
  Q 135.95 62.58 130.93 60.07
  C 111.76 50.46 91.59 49.28 70.67 53.17
  C 62.70 54.65 57.48 58.12 56.78 66.41
  Q 56.60 68.51 54.52 68.75
  C 50.82 69.18 43.83 70.53 46.56 76.19
  Q 51.10 85.55 53.52 93.44
  C 57.23 105.55 57.13 118.17 67.31 127.48
  Z
  M 530.11 71.77
  Q 531.54 77.48 538.07 74.82
  C 539.86 74.09 556.25 64.65 550.97 61.94
  A 1.69 0.57 -13.2 0 0 550.01 61.85
  Q 549.01 61.94 547.81 61.26
  Q 549.63 58.79 547.21 57.69
  A 1.39 1.20 -37.8 0 0 546.28 57.64
  Q 536.47 60.67 527.97 66.63
  Q 526.24 67.84 527.34 69.64
  Q 528.16 70.99 530.11 71.77
  Z
  M 434.29 115.65
  C 439.85 122.12 446.02 124.18 455.33 127.55
  C 477.28 135.51 502.51 135.26 522.51 122.31
  C 529.89 117.53 534.59 114.31 534.39 105.50
  Q 534.25 99.54 534.50 91.25
  Q 534.67 85.63 530.49 82.03
  C 525.91 74.03 515.91 69.81 507.33 67.86
  C 481.99 62.10 455.50 63.17 434.98 80.97
  C 423.70 90.76 423.98 105.46 434.29 115.65
  Z
  M 410.06 73.44
  Q 416.56 81.54 426.75 83.75
  C 433.01 85.10 430.62 78.70 427.54 76.75
  Q 421.79 68.51 412.05 65.72
  Q 406.34 64.09 406.99 69.44
  A 1.77 1.50 24.8 0 0 407.40 70.32
  L 410.06 73.44
  Z
  M 280.37 123.60
  Q 291.91 134.72 306.98 138.43
  Q 314.22 140.21 326.17 140.28
  C 344.45 140.39 360.56 138.18 375.61 126.95
  C 380.19 123.54 382.07 119.06 376.54 115.25
  Q 375.55 112.22 372.94 111.31
  C 350.05 103.39 331.20 127.56 309.93 116.74
  C 309.77 101.80 326.68 96.69 338.66 94.96
  Q 350.05 93.31 361.02 89.80
  C 365.74 88.29 363.53 83.42 360.54 81.75
  Q 357.43 76.83 352.50 74.43
  Q 348.78 72.63 342.23 72.65
  Q 308.84 72.79 281.51 92.06
  C 277.51 94.88 273.65 96.80 272.75 102.00
  Q 270.59 114.43 280.37 123.60
  Z
  M 190.10 137.72
  Q 191.71 140.81 194.45 142.57
  C 205.98 149.96 217.54 146.87 223.88 134.90
  Q 224.93 132.91 224.94 130.22
  Q 224.97 117.02 226.25 105.25
  Q 227.03 98.02 222.56 93.10
  Q 220.48 89.63 218.81 88.94
  C 205.46 83.44 187.58 85.28 187.40 103.71
  C 187.34 110.69 186.66 118.23 185.75 128.50
  Q 185.23 134.34 190.10 137.72
  Z
  M 540.25 101.24
  Q 545.62 108.30 554.42 106.84
  C 556.38 106.52 558.12 105.44 560.74 105.82
  C 565.91 106.56 565.72 100.72 561.25 100.46
  Q 562.07 98.31 560.31 97.44
  Q 549.55 92.11 538.06 95.73
  Q 535.95 96.40 537.30 97.93
  L 540.25 101.24
  Z
  M 403.75 108.54
  Q 401.54 112.08 405.55 112.56
  Q 415.34 113.76 425.55 111.98
  Q 427.62 111.62 427.01 109.60
  Q 425.97 106.19 424.19 106.75
  C 422.49 98.47 408.37 101.59 402.87 103.42
  C 399.02 104.71 397.77 108.36 403.75 108.54
  Z
  M 529.78 129.25
  Q 535.71 136.56 544.92 138.81
  C 546.41 139.17 548.27 140.36 549.31 138.41
  C 550.56 136.05 548.46 133.08 546.54 131.75
  Q 540.92 123.59 531.00 120.75
  C 526.27 119.39 524.76 122.75 527.12 126.17
  Q 528.27 127.83 529.78 129.25
  Z
  M 425.50 139.04
  C 424.80 141.40 425.88 143.05 428.46 142.92
  Q 434.66 142.62 439.14 138.14
  C 441.92 135.36 448.96 128.88 441.75 127.46
  C 442.36 118.74 428.08 128.46 426.00 130.25
  C 424.10 131.88 418.38 139.76 425.50 139.04
  Z
  M 504.75 153.04
  Q 506.11 157.26 510.28 156.95
  Q 512.31 156.79 512.50 154.77
  Q 513.33 145.63 507.08 138.93
  Q 504.89 135.46 501.68 132.80
  Q 499.74 131.21 498.48 133.38
  C 495.25 138.95 500.65 149.15 504.75 153.04
  Z
  M 462.75 152.54
  C 462.40 157.21 465.30 157.27 468.21 155.23
  C 473.00 151.87 474.51 146.47 474.93 140.77
  C 475.09 138.47 473.70 137.50 471.54 137.92
  Q 472.38 131.30 467.06 135.31
  Q 461.57 139.46 460.19 146.79
  C 459.65 149.67 458.53 152.78 462.75 152.54
  Z"
/>
<path fill="#f2d50f" d="
  M 212.25 27.71
  C 221.01 29.19 230.16 34.97 226.96 45.50
  L 225.64 49.11
  L 217.49 56.12
  A 4.26 2.15 -85.7 0 0 216.41 57.91
  L 214.29 64.16
  A 1.37 1.26 -68.7 0 0 214.93 65.81
  Q 216.77 66.63 215.61 67.90
  A 1.63 1.00 4.5 0 1 214.76 68.33
  Q 213.12 68.65 212.31 69.74
  A 1.17 1.16 26.3 0 0 212.93 71.56
  Q 217.03 72.70 214.29 75.58
  A 0.94 0.83 25.3 0 1 213.46 75.82
  L 211.57 75.44
  Q 209.60 75.05 210.00 77.15
  C 210.72 81.02 210.36 81.24 206.92 80.34
  Q 203.37 79.41 205.32 75.42
  Q 205.82 74.41 204.70 74.56
  C 201.98 74.92 199.30 73.19 200.10 70.28
  C 200.82 67.67 207.13 69.02 204.83 65.40
  Q 204.40 64.72 202.94 63.94
  C 199.53 62.11 200.22 58.95 198.27 56.31
  Q 197.53 55.31 195.26 54.42
  Q 188.73 51.87 186.96 44.75
  L 187.21 41.25
  C 189.47 32.36 200.72 28.13 208.75 27.71
  L 212.25 27.71
  Z
  M 216.56 35.44
  C 211.04 32.06 195.71 30.64 194.87 40.74
  Q 194.46 45.61 198.35 48.38
  Q 203.24 51.86 206.94 56.57
  Q 209.34 59.62 212.02 56.81
  C 216.46 52.16 225.46 40.88 216.56 35.44
  Z"
/>
<path fill="#f2d50f" d="
  M 234.94 31.52
  C 227.66 37.97 225.49 29.79 231.99 28.81
  Q 232.45 28.74 232.89 28.43
  Q 234.29 27.47 235.29 29.07
  A 1.91 1.90 -37.0 0 1 234.94 31.52
  Z"
/>
<path fill="#f2d50f" d="
  M 183.75 41.04
  Q 184.42 42.37 183.54 43.50
  Q 182.55 43.96 181.50 43.46
  L 177.68 39.83
  L 176.49 36.68
  A 1.40 0.53 62.0 0 1 176.37 35.76
  Q 176.68 34.88 177.53 34.45
  A 1.34 0.79 30.5 0 1 178.46 34.45
  L 181.69 35.56
  Q 183.65 36.24 183.19 38.81
  Q 182.95 40.10 183.75 41.04
  Z"
/>
<path fill="#2ea3c0" d="
  M 183.75 41.04
  L 187.21 41.25
  L 186.96 44.75
  Q 184.96 44.88 183.54 43.50
  Q 184.42 42.37 183.75 41.04
  Z"
/>
<path fill="#f2d50f" d="
  M 509.04 45.25
  Q 505.47 55.31 495.50 59.04
  C 486.72 58.88 498.41 45.57 500.56 43.81
  C 503.07 41.77 509.23 39.18 509.04 45.25
  Z"
/>
<path fill="#f2d50f" d="
  M 460.86 51.41
  Q 462.05 54.71 462.01 57.29
  Q 461.98 59.49 460.02 58.75
  L 455.39 57.03
  Q 449.16 51.54 447.96 42.97
  A 0.99 0.99 3.9 0 1 449.21 41.88
  Q 456.84 44.05 460.86 51.41
  Z"
/>
<path fill="#e71701" d="
  M 509.04 45.25
  Q 511.01 44.99 511.89 47.08
  Q 512.68 48.95 511.81 50.79
  Q 508.09 58.67 500.90 62.25
  C 497.70 63.85 495.34 63.07 495.50 59.04
  Q 505.47 55.31 509.04 45.25
  Z"
/>
<path fill="#f2d50f" d="
  M 139.04 67.25
  C 140.83 73.73 142.32 84.99 137.06 89.81
  Q 120.69 104.81 97.75 103.00
  Q 92.58 102.59 92.46 106.22
  Q 92.41 107.41 93.87 110.97
  C 102.77 132.77 80.05 134.20 67.31 127.48
  C 57.13 118.17 57.23 105.55 53.52 93.44
  Q 51.10 85.55 46.56 76.19
  C 43.83 70.53 50.82 69.18 54.52 68.75
  Q 56.60 68.51 56.78 66.41
  C 57.48 58.12 62.70 54.65 70.67 53.17
  C 91.59 49.28 111.76 50.46 130.93 60.07
  Q 135.95 62.58 139.04 67.25
  Z
  M 85.16 82.17
  C 90.48 88.75 102.19 83.04 107.52 78.77
  Q 109.64 77.07 108.54 75.13
  Q 104.96 70.07 99.21 68.25
  C 95.37 67.03 80.70 69.07 81.28 75.22
  Q 81.67 79.36 85.16 82.17
  Z"
/>
<path fill="#e71701" d="
  M 455.39 57.03
  L 460.02 58.75
  Q 461.98 59.49 462.01 57.29
  Q 462.05 54.71 460.86 51.41
  Q 464.82 54.74 465.29 60.55
  Q 465.51 63.15 462.95 62.64
  Q 458.12 61.69 455.39 57.03
  Z"
/>
<path fill="#f2d50f" d="
  M 547.81 61.26
  Q 541.01 69.95 530.11 71.77
  Q 528.16 70.99 527.34 69.64
  Q 526.24 67.84 527.97 66.63
  Q 536.47 60.67 546.28 57.64
  A 1.39 1.20 -37.8 0 1 547.21 57.69
  Q 549.63 58.79 547.81 61.26
  Z"
/>
<path fill="#e71701" d="
  M 547.81 61.26
  Q 549.01 61.94 550.01 61.85
  A 1.69 0.57 -13.2 0 1 550.97 61.94
  C 556.25 64.65 539.86 74.09 538.07 74.82
  Q 531.54 77.48 530.11 71.77
  Q 541.01 69.95 547.81 61.26
  Z"
/>
<path fill="#f2d50f" d="
  M 530.49 82.03
  C 531.81 88.20 530.98 94.47 531.29 100.75
  Q 531.71 109.04 525.28 114.02
  C 497.71 135.34 463.26 131.74 434.29 115.65
  C 423.98 105.46 423.70 90.76 434.98 80.97
  C 455.50 63.17 481.99 62.10 507.33 67.86
  C 515.91 69.81 525.91 74.03 530.49 82.03
  Z
  M 481.71 86.25
  Q 481.65 87.27 480.96 88.00
  Q 477.15 90.72 472.50 89.79
  Q 469.09 88.60 468.71 85.00
  C 468.79 81.20 465.81 81.11 463.25 82.56
  C 455.80 86.81 444.29 97.56 454.41 105.74
  C 460.21 111.95 471.22 113.13 478.42 113.92
  Q 489.71 115.17 500.02 110.41
  Q 502.18 110.13 504.00 108.71
  C 510.93 105.30 512.99 97.92 513.96 90.71
  Q 508.79 86.74 502.90 84.00
  Q 499.63 82.47 496.48 84.36
  A 0.85 0.84 -40.2 0 0 496.36 85.73
  C 503.41 91.80 492.55 90.22 490.75 89.79
  Q 486.55 88.67 486.21 84.25
  L 487.10 81.85
  A 1.08 0.98 13.4 0 0 486.19 80.52
  Q 479.90 79.72 475.81 84.05
  C 473.96 86.00 476.36 85.60 477.15 85.15
  Q 479.96 83.53 481.71 86.25
  Z"
/>
<path fill="#f2d50f" d="
  M 427.54 76.75
  C 426.72 84.24 413.07 75.64 410.06 73.44
  L 407.40 70.32
  A 1.77 1.50 24.8 0 1 406.99 69.44
  Q 406.34 64.09 412.05 65.72
  Q 421.79 68.51 427.54 76.75
  Z"
/>
<path fill="#e71701" d="
  M 139.04 67.25
  C 143.02 70.23 143.49 75.96 143.75 80.48
  C 144.10 86.46 143.96 90.31 139.56 94.31
  Q 124.76 107.76 104.51 106.78
  Q 100.67 106.59 97.04 107.82
  Q 94.91 108.54 95.56 110.70
  C 97.17 116.00 100.87 122.17 98.59 128.00
  C 95.60 135.63 84.05 135.44 77.57 134.14
  Q 70.99 132.83 67.31 127.48
  C 80.05 134.20 102.77 132.77 93.87 110.97
  Q 92.41 107.41 92.46 106.22
  Q 92.58 102.59 97.75 103.00
  Q 120.69 104.81 137.06 89.81
  C 142.32 84.99 140.83 73.73 139.04 67.25
  Z"
/>
<path fill="#e71701" d="
  M 108.54 75.13
  Q 103.43 71.70 97.58 71.99
  C 94.71 72.13 91.47 73.38 88.51 74.30
  Q 82.56 76.14 85.16 82.17
  Q 81.67 79.36 81.28 75.22
  C 80.70 69.07 95.37 67.03 99.21 68.25
  Q 104.96 70.07 108.54 75.13
  Z"
/>
<path fill="#5f50a1" d="
  M 108.54 75.13
  Q 109.64 77.07 107.52 78.77
  C 102.19 83.04 90.48 88.75 85.16 82.17
  Q 82.56 76.14 88.51 74.30
  C 91.47 73.38 94.71 72.13 97.58 71.99
  Q 103.43 71.70 108.54 75.13
  Z"
/>
<path fill="#f2d50f" d="
  M 360.54 81.75
  Q 360.89 84.61 358.69 85.44
  C 344.79 90.66 327.83 90.12 314.31 98.43
  C 308.18 102.20 303.33 110.65 309.93 116.74
  C 331.20 127.56 350.05 103.39 372.94 111.31
  Q 375.55 112.22 376.54 115.25
  C 376.89 121.14 373.69 122.42 368.53 125.66
  C 353.57 135.07 339.76 135.91 322.25 136.25
  Q 299.11 136.70 280.37 123.60
  Q 270.59 114.43 272.75 102.00
  C 273.65 96.80 277.51 94.88 281.51 92.06
  Q 308.84 72.79 342.23 72.65
  Q 348.78 72.63 352.50 74.43
  Q 357.43 76.83 360.54 81.75
  Z"
/>
<path fill="#e71701" d="
  M 410.06 73.44
  C 413.07 75.64 426.72 84.24 427.54 76.75
  C 430.62 78.70 433.01 85.10 426.75 83.75
  Q 416.56 81.54 410.06 73.44
  Z"
/>
<path fill="#e71701" d="
  M 486.21 84.25
  C 484.91 84.58 481.65 84.49 481.71 86.25
  Q 479.96 83.53 477.15 85.15
  C 476.36 85.60 473.96 86.00 475.81 84.05
  Q 479.90 79.72 486.19 80.52
  A 1.08 0.98 13.4 0 1 487.10 81.85
  L 486.21 84.25
  Z"
/>
<path fill="#e71701" d="
  M 360.54 81.75
  C 363.53 83.42 365.74 88.29 361.02 89.80
  Q 350.05 93.31 338.66 94.96
  C 326.68 96.69 309.77 101.80 309.93 116.74
  C 303.33 110.65 308.18 102.20 314.31 98.43
  C 327.83 90.12 344.79 90.66 358.69 85.44
  Q 360.89 84.61 360.54 81.75
  Z"
/>
<path fill="#e71701" d="
  M 468.71 85.00
  Q 463.30 88.20 457.81 93.56
  Q 452.39 98.86 454.41 105.74
  C 444.29 97.56 455.80 86.81 463.25 82.56
  C 465.81 81.11 468.79 81.20 468.71 85.00
  Z"
/>
<path fill="#e71701" d="
  M 434.29 115.65
  C 463.26 131.74 497.71 135.34 525.28 114.02
  Q 531.71 109.04 531.29 100.75
  C 530.98 94.47 531.81 88.20 530.49 82.03
  Q 534.67 85.63 534.50 91.25
  Q 534.25 99.54 534.39 105.50
  C 534.59 114.31 529.89 117.53 522.51 122.31
  C 502.51 135.26 477.28 135.51 455.33 127.55
  C 446.02 124.18 439.85 122.12 434.29 115.65
  Z"
/>
<path fill="#e71701" d="
  M 513.96 90.71
  Q 513.58 91.37 513.32 91.57
  C 513.03 91.80 504.47 86.52 501.10 87.63
  Q 498.66 88.44 500.43 90.30
  C 506.73 96.92 488.13 94.65 490.75 89.79
  C 492.55 90.22 503.41 91.80 496.36 85.73
  A 0.85 0.84 -40.2 0 1 496.48 84.36
  Q 499.63 82.47 502.90 84.00
  Q 508.79 86.74 513.96 90.71
  Z"
/>
<path fill="#5f50a1" d="
  M 486.21 84.25
  Q 486.55 88.67 490.75 89.79
  C 488.13 94.65 506.73 96.92 500.43 90.30
  Q 498.66 88.44 501.10 87.63
  C 504.47 86.52 513.03 91.80 513.32 91.57
  Q 513.58 91.37 513.96 90.71
  C 512.99 97.92 510.93 105.30 504.00 108.71
  Q 504.81 104.73 500.78 105.30
  Q 501.46 102.53 499.94 101.49
  A 1.50 1.05 -24.2 0 0 499.01 101.31
  Q 482.90 103.21 464.83 98.64
  A 3.22 3.18 44.0 0 0 463.18 98.66
  C 459.94 99.60 464.76 102.82 465.54 103.25
  C 464.15 107.59 478.61 110.30 481.25 110.42
  Q 490.60 110.87 500.02 110.41
  Q 489.71 115.17 478.42 113.92
  C 471.22 113.13 460.21 111.95 454.41 105.74
  Q 452.39 98.86 457.81 93.56
  Q 463.30 88.20 468.71 85.00
  Q 469.09 88.60 472.50 89.79
  C 472.84 95.36 482.22 94.85 484.42 91.51
  C 486.86 87.79 480.60 90.11 480.96 88.00
  Q 481.65 87.27 481.71 86.25
  C 481.65 84.49 484.91 84.58 486.21 84.25
  Z"
/>
<path fill="#f2d50f" d="
  M 222.56 93.10
  C 223.27 103.94 221.47 114.53 221.68 125.67
  Q 221.74 128.54 220.74 130.62
  C 214.71 143.22 201.17 146.41 190.10 137.72
  Q 185.23 134.34 185.75 128.50
  C 186.66 118.23 187.34 110.69 187.40 103.71
  C 187.58 85.28 205.46 83.44 218.81 88.94
  Q 220.48 89.63 222.56 93.10
  Z"
/>
<path fill="#e71701" d="
  M 480.96 88.00
  C 480.60 90.11 486.86 87.79 484.42 91.51
  C 482.22 94.85 472.84 95.36 472.50 89.79
  Q 477.15 90.72 480.96 88.00
  Z"
/>
<path fill="#e71701" d="
  M 222.56 93.10
  Q 227.03 98.02 226.25 105.25
  Q 224.97 117.02 224.94 130.22
  Q 224.93 132.91 223.88 134.90
  C 217.54 146.87 205.98 149.96 194.45 142.57
  Q 191.71 140.81 190.10 137.72
  C 201.17 146.41 214.71 143.22 220.74 130.62
  Q 221.74 128.54 221.68 125.67
  C 221.47 114.53 223.27 103.94 222.56 93.10
  Z"
/>
<path fill="#f2d50f" d="
  M 561.25 100.46
  Q 558.89 102.38 555.92 101.69
  A 1.68 1.45 37.6 0 0 554.98 101.74
  Q 547.86 104.37 540.25 101.24
  L 537.30 97.93
  Q 535.95 96.40 538.06 95.73
  Q 549.55 92.11 560.31 97.44
  Q 562.07 98.31 561.25 100.46
  Z"
/>
<path fill="#f2d50f" d="
  M 500.78 105.30
  Q 492.75 107.08 483.50 107.00
  Q 473.86 106.92 465.54 103.25
  C 464.76 102.82 459.94 99.60 463.18 98.66
  A 3.22 3.18 44.0 0 1 464.83 98.64
  Q 482.90 103.21 499.01 101.31
  A 1.50 1.05 -24.2 0 1 499.94 101.49
  Q 501.46 102.53 500.78 105.30
  Z"
/>
<path fill="#e71701" d="
  M 561.25 100.46
  C 565.72 100.72 565.91 106.56 560.74 105.82
  C 558.12 105.44 556.38 106.52 554.42 106.84
  Q 545.62 108.30 540.25 101.24
  Q 547.86 104.37 554.98 101.74
  A 1.68 1.45 37.6 0 1 555.92 101.69
  Q 558.89 102.38 561.25 100.46
  Z"
/>
<path fill="#f2d50f" d="
  M 424.19 106.75
  Q 414.24 110.27 403.75 108.54
  C 397.77 108.36 399.02 104.71 402.87 103.42
  C 408.37 101.59 422.49 98.47 424.19 106.75
  Z"
/>
<path fill="#e71701" d="
  M 465.54 103.25
  Q 473.86 106.92 483.50 107.00
  Q 492.75 107.08 500.78 105.30
  Q 504.81 104.73 504.00 108.71
  Q 502.18 110.13 500.02 110.41
  Q 490.60 110.87 481.25 110.42
  C 478.61 110.30 464.15 107.59 465.54 103.25
  Z"
/>
<path fill="#e71701" d="
  M 424.19 106.75
  Q 425.97 106.19 427.01 109.60
  Q 427.62 111.62 425.55 111.98
  Q 415.34 113.76 405.55 112.56
  Q 401.54 112.08 403.75 108.54
  Q 414.24 110.27 424.19 106.75
  Z"
/>
<path fill="#e71701" d="
  M 376.54 115.25
  C 382.07 119.06 380.19 123.54 375.61 126.95
  C 360.56 138.18 344.45 140.39 326.17 140.28
  Q 314.22 140.21 306.98 138.43
  Q 291.91 134.72 280.37 123.60
  Q 299.11 136.70 322.25 136.25
  C 339.76 135.91 353.57 135.07 368.53 125.66
  C 373.69 122.42 376.89 121.14 376.54 115.25
  Z"
/>
<path fill="#f2d50f" d="
  M 546.54 131.75
  Q 546.77 133.98 545.16 135.22
  A 1.17 1.02 29.7 0 1 544.26 135.40
  Q 536.50 133.83 529.78 129.25
  Q 528.27 127.83 527.12 126.17
  C 524.76 122.75 526.27 119.39 531.00 120.75
  Q 540.92 123.59 546.54 131.75
  Z"
/>
<path fill="#f2d50f" d="
  M 441.75 127.46
  C 437.06 133.44 432.99 138.07 425.50 139.04
  C 418.38 139.76 424.10 131.88 426.00 130.25
  C 428.08 128.46 442.36 118.74 441.75 127.46
  Z"
/>
<path fill="#e71701" d="
  M 441.75 127.46
  C 448.96 128.88 441.92 135.36 439.14 138.14
  Q 434.66 142.62 428.46 142.92
  C 425.88 143.05 424.80 141.40 425.50 139.04
  C 432.99 138.07 437.06 133.44 441.75 127.46
  Z"
/>
<path fill="#e71701" d="
  M 529.78 129.25
  Q 536.50 133.83 544.26 135.40
  A 1.17 1.02 29.7 0 0 545.16 135.22
  Q 546.77 133.98 546.54 131.75
  C 548.46 133.08 550.56 136.05 549.31 138.41
  C 548.27 140.36 546.41 139.17 544.92 138.81
  Q 535.71 136.56 529.78 129.25
  Z"
/>
<path fill="#f2d50f" d="
  M 507.08 138.93
  C 508.63 142.78 512.79 154.03 504.75 153.04
  C 500.65 149.15 495.25 138.95 498.48 133.38
  Q 499.74 131.21 501.68 132.80
  Q 504.89 135.46 507.08 138.93
  Z"
/>
<path fill="#f2d50f" d="
  M 471.54 137.92
  Q 471.26 147.91 462.75 152.54
  C 458.53 152.78 459.65 149.67 460.19 146.79
  Q 461.57 139.46 467.06 135.31
  Q 472.38 131.30 471.54 137.92
  Z"
/>
<path fill="#e71701" d="
  M 462.75 152.54
  Q 471.26 147.91 471.54 137.92
  C 473.70 137.50 475.09 138.47 474.93 140.77
  C 474.51 146.47 473.00 151.87 468.21 155.23
  C 465.30 157.27 462.40 157.21 462.75 152.54
  Z"
/>
<path fill="#e71701" d="
  M 507.08 138.93
  Q 513.33 145.63 512.50 154.77
  Q 512.31 156.79 510.28 156.95
  Q 506.11 157.26 504.75 153.04
  C 512.79 154.03 508.63 142.78 507.08 138.93
  Z"
/>
<path fill="#87b959" fill-opacity="0.992" d="
  M 160.04 173.50
  L 152.04 174.50
  Q 155.72 171.88 160.04 173.50
  Z"
/>
</svg>
