<?xml version="1.0" encoding="UTF-8" standalone="no"?>
<!DOCTYPE svg PUBLIC "-//W3C//DTD SVG 1.1//EN" "http://www.w3.org/Graphics/SVG/1.1/DTD/svg11.dtd">
<svg xmlns="http://www.w3.org/2000/svg" version="1.1" viewBox="0 0 600 300">
<g stroke-width="2.00" fill="none" stroke-linecap="butt">
<path stroke="#f1b848" vector-effect="non-scaling-stroke" d="
  M 287.75 90.04
  Q 287.53 90.91 287.98 91.25
  Q 288.23 91.44 287.94 91.51
  C 285.63 92.06 286.20 95.78 286.09 97.56
  A 0.81 0.68 84.8 0 1 285.60 98.27
  Q 285.05 98.43 284.46 98.25"
/>
<path stroke="#bd870f" vector-effect="non-scaling-stroke" d="
  M 291.75 90.79
  Q 291.34 91.96 290.22 91.67
  A 0.42 0.42 12.2 0 0 289.70 92.00
  L 289.38 93.76
  Q 289.29 94.28 289.42 94.73
  Q 289.91 96.40 288.90 97.69
  A 1.53 1.01 5.0 0 1 288.07 98.14
  Q 286.14 98.54 285.00 100.21"
/>
<path stroke="#6a4d02" vector-effect="non-scaling-stroke" d="
  M 295.23 92.50
  Q 298.56 98.10 299.69 101.81
  Q 312.40 143.64 325.00 185.50
  C 326.19 189.47 328.64 201.75 331.50 199.46"
/>
<path stroke="#a78b3a" vector-effect="non-scaling-stroke" d="
  M 332.79 200.49
  Q 333.39 203.17 336.19 201.94
  Q 338.07 201.11 339.17 197.48
  Q 347.98 168.49 356.79 139.50"
/>
<path stroke="#9b7207" vector-effect="non-scaling-stroke" d="
  M 356.79 139.50
  Q 358.97 139.21 358.50 141.25
  Q 358.05 143.19 357.55 150.32
  C 357.46 151.59 357.78 153.36 359.46 151.50"
/>
<path stroke="#664a02" vector-effect="non-scaling-stroke" d="
  M 359.46 151.50
  Q 352.66 173.63 346.20 195.85
  C 343.88 203.80 339.88 210.30 330.41 208.47
  C 328.89 208.17 328.38 207.16 326.68 208.43"
/>
<path stroke="#9b7a1d" vector-effect="non-scaling-stroke" d="
  M 322.12 203.91
  Q 323.39 203.92 323.92 203.61
  A 0.74 0.50 65.6 0 0 324.06 202.79
  Q 322.51 198.93 321.34 194.93
  C 313.85 169.37 305.97 143.92 298.40 118.38
  Q 295.85 109.76 292.85 101.28
  A 0.65 0.58 74.9 0 0 292.18 100.84
  Q 291.31 101.01 290.96 102.00"
/>
<path stroke="#b69641" vector-effect="non-scaling-stroke" d="
  M 363.04 118.00
  L 356.79 139.50"
/>
<path stroke="#745409" vector-effect="non-scaling-stroke" d="
  M 361.54 144.50
  L 359.46 151.50"
/>
<path stroke="#fcfb4d" vector-effect="non-scaling-stroke" d="
  M 376.52 92.38
  C 370.05 94.74 367.77 102.01 366.29 108.00"
/>
<path stroke="#f9de47" vector-effect="non-scaling-stroke" d="
  M 366.29 108.00
  L 364.71 112.25"
/>
<path stroke="#ded579" vector-effect="non-scaling-stroke" d="
  M 364.71 112.25
  Q 363.93 112.71 363.25 112.21"
/>
<path stroke="#d19f10" vector-effect="non-scaling-stroke" d="
  M 364.00 136.04
  Q 362.10 136.76 362.75 135.00
  Q 363.42 133.18 364.44 126.86
  A 0.71 0.68 -63.4 0 0 364.25 126.25
  L 363.99 125.99
  A 2.12 2.08 27.8 0 1 363.40 124.14
  Q 364.30 119.04 363.04 118.00"
/>
<path stroke="#ddb843" vector-effect="non-scaling-stroke" d="
  M 363.04 118.00
  L 364.71 112.25"
/>
<path stroke="#584a03" vector-effect="non-scaling-stroke" d="
  M 363.50 144.54
  L 361.54 144.50"
/>
<path stroke="#8e7309" vector-effect="non-scaling-stroke" d="
  M 361.54 144.50
  L 364.00 136.04"
/>
<path stroke="#b5950b" vector-effect="non-scaling-stroke" d="
  M 364.00 136.04
  L 368.38 121.79"
/>
<path stroke="#b9b310" vector-effect="non-scaling-stroke" d="
  M 368.38 121.79
  Q 371.48 110.14 376.14 99.09"
/>
<path stroke="#b49009" vector-effect="non-scaling-stroke" d="
  M 383.31 90.86
  Q 380.33 91.99 381.28 95.12
  Q 382.04 97.63 379.48 98.26
  L 376.14 99.09"
/>
<path stroke="#fada15" vector-effect="non-scaling-stroke" d="
  M 376.14 99.09
  Q 377.86 95.98 376.52 92.38"
/>
<path stroke="#f7d946" vector-effect="non-scaling-stroke" d="
  M 376.52 92.38
  Q 379.93 92.68 379.00 90.29"
/>
<path stroke="#fcdf17" vector-effect="non-scaling-stroke" d="
  M 368.38 121.79
  Q 365.28 120.23 367.39 117.10
  A 1.44 0.90 -42.0 0 0 367.65 116.19
  L 366.29 108.00"
/>
<path stroke="#f9df4d" vector-effect="non-scaling-stroke" d="
  M 556.75 114.46
  Q 556.36 115.86 555.29 116.50"
/>
<path stroke="#f5cb4a" vector-effect="non-scaling-stroke" d="
  M 555.29 116.50
  Q 551.61 114.14 547.75 116.21"
/>
<path stroke="#f2bc47" vector-effect="non-scaling-stroke" d="
  M 547.75 116.21
  Q 542.46 118.98 542.50 124.50
  Q 542.66 146.72 542.29 168.93
  C 542.23 172.45 541.35 174.85 537.54 175.00"
/>
<path stroke="#cda850" vector-effect="non-scaling-stroke" d="
  M 537.54 175.00
  L 534.54 175.25"
/>
<path stroke="#fae435" vector-effect="non-scaling-stroke" d="
  M 554.96 125.75
  Q 553.96 124.51 553.25 126.29"
/>
<path stroke="#b59114" vector-effect="non-scaling-stroke" d="
  M 551.50 123.46
  L 551.46 123.25"
/>
<path stroke="#f2bd1f" vector-effect="non-scaling-stroke" d="
  M 551.46 123.25
  Q 550.82 122.28 550.14 121.35
  C 549.11 119.97 549.03 119.11 549.38 117.49
  A 1.34 0.75 -67.0 0 0 549.28 116.55
  Q 548.79 115.86 547.75 116.21"
/>
<path stroke="#c3c11c" vector-effect="non-scaling-stroke" d="
  M 557.73 115.04
  Q 567.04 138.57 575.21 162.50"
/>
<path stroke="#fef939" vector-effect="non-scaling-stroke" d="
  M 575.21 162.50
  Q 574.70 166.70 570.80 167.82
  A 0.58 0.56 71.5 0 1 570.13 167.47
  C 565.29 154.85 560.67 140.22 554.96 125.75"
/>
<path stroke="#f9e125" vector-effect="non-scaling-stroke" d="
  M 554.96 125.75
  Q 557.76 121.29 555.29 116.50"
/>
<path stroke="#b28211" vector-effect="non-scaling-stroke" d="
  M 551.46 123.25
  Q 548.49 123.41 548.50 126.25
  Q 548.58 151.69 548.32 169.10
  C 548.21 176.81 546.57 182.14 537.75 181.46"
/>
<path stroke="#ca9a25" vector-effect="non-scaling-stroke" d="
  M 537.75 181.46
  L 537.54 175.00"
/>
<path stroke="#8d6e1a" vector-effect="non-scaling-stroke" d="
  M 534.44 182.78
  Q 536.09 181.37 537.75 181.46"
/>
<path stroke="#c4c42d" vector-effect="non-scaling-stroke" d="
  M 580.95 173.32
  Q 580.73 173.51 580.06 173.62
  A 0.63 0.61 74.0 0 1 579.39 173.23
  L 575.21 162.50"
/>
<path stroke="#beb82c" vector-effect="non-scaling-stroke" d="
  M 575.25 181.79
  C 576.93 181.21 580.67 183.00 583.04 182.75"
/>
<path stroke="#beb61a" vector-effect="non-scaling-stroke" d="
  M 599.29 114.25
  Q 596.86 116.86 597.52 120.62
  A 1.20 1.19 83.6 0 1 596.41 122.02
  Q 591.98 122.24 591.96 127.06
  Q 591.89 149.43 591.56 171.79
  C 591.46 178.11 590.13 182.75 583.04 182.75"
/>
<path stroke="#fefa37" vector-effect="non-scaling-stroke" d="
  M 583.04 182.75
  C 581.52 179.88 580.43 176.45 585.23 175.86"
/>
<path stroke="#fcf951" vector-effect="non-scaling-stroke" d="
  M 597.75 113.79
  Q 597.44 115.38 595.25 115.75
  C 585.31 117.44 585.97 124.67 586.09 133.75
  Q 586.34 154.80 585.23 175.86"
/>
<path stroke="#fcfb63" vector-effect="non-scaling-stroke" d="
  M 585.23 175.86
  Q 582.02 175.77 583.54 174.24"
/>
<path stroke="#c2bb32" vector-effect="non-scaling-stroke" d="
  M 272.78 115.08
  C 268.70 118.81 273.59 123.11 267.41 122.99
  Q 260.47 122.85 254.07 123.22
  Q 250.75 123.41 250.75 126.73
  Q 250.75 146.82 250.75 166.89
  C 250.75 175.44 251.17 181.71 241.75 183.21"
/>
<path stroke="#fefe55" vector-effect="non-scaling-stroke" d="
  M 242.79 172.75
  Q 243.19 173.75 243.57 172.96
  Q 243.76 172.57 244.13 172.19
  Q 244.79 171.51 244.81 170.19
  Q 245.35 135.40 245.00 128.00
  Q 244.58 119.18 252.20 117.06
  A 0.97 0.70 -5.0 0 0 252.87 116.48
  Q 253.05 115.68 252.25 115.04"
/>
<path stroke="#bfb614" vector-effect="non-scaling-stroke" d="
  M 236.92 118.22
  Q 236.90 120.58 237.51 122.82
  Q 238.25 125.58 238.24 127.30
  Q 238.15 149.44 238.49 171.57
  C 238.51 172.92 237.64 175.67 240.50 174.46"
/>
<path stroke="#fef737" vector-effect="non-scaling-stroke" d="
  M 241.00 174.96
  C 240.35 175.65 241.62 181.22 241.75 183.21"
/>
<path stroke="#c2b620" vector-effect="non-scaling-stroke" d="
  M 241.75 183.21
  L 233.98 182.47"
/>
<path stroke="#fbf04c" vector-effect="non-scaling-stroke" d="
  M 230.55 178.26
  Q 232.52 177.64 232.28 176.64
  Q 232.07 175.81 232.07 175.69
  Q 232.55 151.72 232.01 127.75
  A 0.62 0.54 -89.1 0 0 231.50 127.15
  Q 230.87 127.11 230.29 127.50"
/>
<path stroke="#f9da22" vector-effect="non-scaling-stroke" d="
  M 230.05 126.06
  Q 231.16 124.88 231.44 123.69
  Q 232.25 120.26 230.22 117.22
  A 0.96 0.86 71.0 0 0 229.45 116.79
  L 212.94 116.81
  A 1.13 0.94 -87.8 0 0 211.99 117.87
  L 211.70 122.39
  A 0.37 0.33 4.8 0 1 211.30 122.69
  Q 210.41 122.58 210.04 123.50"
/>
<path stroke="#b48b13" vector-effect="non-scaling-stroke" d="
  M 229.21 125.25
  Q 230.16 124.17 229.37 123.32
  A 1.24 0.86 -16.6 0 0 228.49 123.03
  Q 218.50 123.57 216.50 123.25
  Q 212.78 122.66 210.19 124.64"
/>
<path stroke="#b7920b" vector-effect="non-scaling-stroke" d="
  M 458.96 115.00
  Q 458.66 116.32 457.91 116.70
  A 1.66 1.66 76.6 0 0 457.00 118.18
  Q 457.00 149.66 457.00 179.36
  C 457.00 181.23 457.46 182.63 454.68 182.47"
/>
<path stroke="#d7a009" vector-effect="non-scaling-stroke" d="
  M 454.68 182.47
  Q 454.70 152.19 454.69 121.94
  Q 454.69 118.39 453.75 116.79"
/>
<path stroke="#dbb03b" vector-effect="non-scaling-stroke" d="
  M 456.50 114.79
  Q 455.50 116.37 453.75 116.79"
/>
<path stroke="#bd9936" vector-effect="non-scaling-stroke" d="
  M 453.75 116.79
  Q 452.26 116.22 451.15 116.94
  A 1.02 0.86 76.1 0 0 450.75 117.75
  L 450.88 182.70"
/>
<path stroke="#9c8b38" vector-effect="non-scaling-stroke" d="
  M 450.88 182.70
  Q 448.64 184.22 448.96 182.25"
/>
<path stroke="#997a06" vector-effect="non-scaling-stroke" d="
  M 450.88 182.70
  L 454.68 182.47"
/>
<path stroke="#997717" vector-effect="non-scaling-stroke" d="
  M 517.04 118.50
  Q 516.50 119.11 516.94 119.60
  A 0.79 0.32 42.4 0 1 517.20 120.14
  Q 517.15 120.50 516.71 120.27
  Q 507.00 115.28 496.00 116.21"
/>
<path stroke="#b49b51" vector-effect="non-scaling-stroke" d="
  M 496.00 116.21
  Q 496.75 114.06 494.25 114.46"
/>
<path stroke="#684c02" vector-effect="non-scaling-stroke" d="
  M 521.96 122.04
  Q 532.36 132.37 533.57 146.20
  Q 534.34 155.04 531.39 162.53
  C 527.07 173.47 516.23 182.13 504.50 183.50
  Q 492.00 184.96 480.12 179.48"
/>
<path stroke="#c29409" vector-effect="non-scaling-stroke" d="
  M 474.00 175.29
  Q 476.26 175.73 476.00 173.50
  Q 475.67 170.59 476.32 164.00"
/>
<path stroke="#815e03" vector-effect="non-scaling-stroke" d="
  M 476.32 164.00
  Q 477.86 166.04 480.25 166.71"
/>
<path stroke="#a78b3a" vector-effect="non-scaling-stroke" d="
  M 495.50 175.29
  Q 494.94 175.61 494.64 176.11
  A 0.44 0.40 22.8 0 0 494.92 176.71
  Q 499.80 178.17 504.80 177.00
  Q 524.63 172.35 527.70 152.04"
/>
<path stroke="#997717" vector-effect="non-scaling-stroke" d="
  M 527.70 152.04
  Q 528.65 140.96 521.76 132.69
  A 0.78 0.65 57.8 0 0 520.96 132.43
  Q 520.02 132.79 519.96 134.00"
/>
<path stroke="#684c02" vector-effect="non-scaling-stroke" d="
  M 517.23 130.53
  Q 511.98 123.20 502.75 122.44
  Q 485.77 121.05 476.29 134.75"
/>
<path stroke="#c29409" vector-effect="non-scaling-stroke" d="
  M 476.29 134.75
  Q 475.49 129.86 476.40 124.96"
/>
<path stroke="#a78b3a" vector-effect="non-scaling-stroke" d="
  M 496.00 116.21
  Q 484.71 117.24 476.40 124.96"
/>
<path stroke="#ddb843" vector-effect="non-scaling-stroke" d="
  M 476.40 124.96
  L 475.29 125.75"
/>
<path stroke="#ded579" vector-effect="non-scaling-stroke" d="
  M 475.29 125.75
  Q 475.36 124.64 474.25 124.71"
/>
<path stroke="#b78b0c" vector-effect="non-scaling-stroke" d="
  M 475.21 137.00
  Q 472.81 141.48 471.79 146.50"
/>
<path stroke="#fcdf17" vector-effect="non-scaling-stroke" d="
  M 471.79 146.50
  C 469.89 141.63 471.39 137.05 470.46 132.25"
/>
<path stroke="#b49b51" vector-effect="non-scaling-stroke" d="
  M 527.70 152.04
  Q 527.76 149.47 526.21 148.04
  A 0.32 0.25 32.7 0 0 525.73 148.09
  Q 525.67 148.26 525.71 148.50"
/>
<path stroke="#5d4305" vector-effect="non-scaling-stroke" d="
  M 476.29 139.25
  Q 475.16 138.39 475.21 137.00"
/>
<path stroke="#9e790a" vector-effect="non-scaling-stroke" d="
  M 475.21 137.00
  L 476.29 134.75"
/>
<path stroke="#b78b0c" vector-effect="non-scaling-stroke" d="
  M 476.32 164.00
  Q 473.16 158.64 471.79 152.50"
/>
<path stroke="#f9de47" vector-effect="non-scaling-stroke" d="
  M 475.29 125.75
  Q 472.40 128.65 470.46 132.25"
/>
<path stroke="#fcfb4d" vector-effect="non-scaling-stroke" d="
  M 470.46 132.25
  Q 463.78 143.52 466.25 156.75
  Q 466.57 158.46 464.71 158.50"
/>
<path stroke="#baa911" vector-effect="non-scaling-stroke" d="
  M 471.79 146.50
  L 471.79 152.50"
/>
<path stroke="#fcdf17" vector-effect="non-scaling-stroke" d="
  M 471.79 152.50
  C 469.97 156.99 470.90 160.91 470.75 165.50
  Q 470.72 166.38 470.75 166.75
  C 470.85 168.02 472.78 171.86 471.00 172.04"
/>
<path stroke="#f4c04b" vector-effect="non-scaling-stroke" d="
  M 286.25 114.54
  Q 285.73 117.19 282.48 116.37
  Q 280.20 115.80 280.17 118.15
  Q 279.85 143.87 280.06 171.06
  C 280.08 172.80 278.73 180.09 280.29 182.75"
/>
<path stroke="#b28c3e" vector-effect="non-scaling-stroke" d="
  M 280.29 182.75
  L 278.75 184.21"
/>
<path stroke="#ad7410" vector-effect="non-scaling-stroke" d="
  M 288.25 114.96
  Q 286.43 116.31 286.44 119.06
  Q 286.55 149.91 286.50 181.24
  A 1.04 0.94 87.6 0 1 285.65 182.27
  L 280.29 182.75"
/>
<path stroke="#816b2a" vector-effect="non-scaling-stroke" d="
  M 391.29 115.00
  L 389.46 116.25"
/>
<path stroke="#a9882e" vector-effect="non-scaling-stroke" d="
  M 389.46 116.25
  Q 388.63 116.09 388.00 116.54"
/>
<path stroke="#b39031" vector-effect="non-scaling-stroke" d="
  M 388.00 116.54
  L 383.70 116.64
  A 0.55 0.52 89.5 0 0 383.19 117.19
  Q 383.29 149.24 383.25 181.29
  C 383.25 182.06 382.89 182.50 382.14 182.56
  A 1.03 0.89 -65.8 0 0 381.58 182.82
  Q 381.14 183.23 381.21 182.25"
/>
<path stroke="#71520a" vector-effect="non-scaling-stroke" d="
  M 381.25 184.04
  Q 383.09 182.28 385.75 182.46"
/>
<path stroke="#674a07" vector-effect="non-scaling-stroke" d="
  M 385.75 182.46
  C 390.23 183.51 389.50 180.82 389.50 178.02
  Q 389.53 147.13 389.46 116.25"
/>
<path stroke="#986f0e" vector-effect="non-scaling-stroke" d="
  M 385.75 182.46
  Q 386.24 151.59 385.95 120.72
  C 385.93 118.74 385.31 116.86 388.00 116.54"
/>
<path stroke="#684c02" vector-effect="non-scaling-stroke" d="
  M 195.52 117.89
  Q 199.91 126.15 203.19 134.88
  Q 206.12 142.69 205.59 146.93
  C 204.39 156.63 195.63 153.90 188.03 155.03
  A 2.08 2.07 -88.2 0 0 186.30 156.66
  Q 185.66 159.69 187.79 158.25"
/>
<path stroke="#a08027" vector-effect="non-scaling-stroke" d="
  M 190.00 158.79
  Q 188.32 159.24 189.21 160.33
  A 1.19 1.05 -18.0 0 0 190.07 160.70
  L 206.71 160.50"
/>
<path stroke="#bd870f" vector-effect="non-scaling-stroke" d="
  M 206.71 160.50
  L 208.43 160.83
  A 0.78 0.54 3.7 0 1 209.03 161.31
  Q 210.29 168.54 209.21 175.77"
/>
<path stroke="#6a4d02" vector-effect="non-scaling-stroke" d="
  M 205.47 168.40
  Q 199.54 165.88 191.25 166.75
  Q 187.29 167.16 181.01 165.66"
/>
<path stroke="#a68834" vector-effect="non-scaling-stroke" d="
  M 178.54 162.25
  C 180.78 162.32 179.51 160.96 179.46 159.84
  Q 179.05 149.37 188.94 148.62
  C 192.34 148.36 200.96 149.87 198.96 143.25"
/>
<path stroke="#997717" vector-effect="non-scaling-stroke" d="
  M 198.96 143.25
  Q 196.95 135.49 193.57 128.23
  C 193.13 127.30 192.48 124.45 191.29 127.75"
/>
<path stroke="#664a02" vector-effect="non-scaling-stroke" d="
  M 189.96 125.75
  Q 190.23 125.43 190.35 125.06
  A 0.80 0.69 28.7 0 0 190.05 124.25
  Q 185.80 121.02 183.56 126.06
  Q 179.30 135.68 165.78 175.45
  C 163.09 183.35 155.36 184.22 147.75 183.46"
/>
<path stroke="#9b7207" vector-effect="non-scaling-stroke" d="
  M 147.75 183.46
  Q 148.49 181.01 147.53 178.77
  A 0.75 0.66 58.5 0 1 147.67 177.95
  Q 148.34 177.37 149.25 177.21"
/>
<path stroke="#a78b3a" vector-effect="non-scaling-stroke" d="
  M 149.25 177.21
  Q 153.47 177.28 157.46 176.08
  A 1.64 1.54 10.1 0 0 158.26 175.56
  Q 160.21 173.13 161.69 168.69
  Q 164.64 159.79 175.24 130.63
  C 177.99 123.07 179.15 118.43 186.50 116.50
  Q 187.92 116.13 188.25 114.96"
/>
<path stroke="#5f5009" vector-effect="non-scaling-stroke" d="
  M 137.75 185.21
  Q 138.19 184.43 138.25 183.54"
/>
<path stroke="#9f9410" vector-effect="non-scaling-stroke" d="
  M 138.25 183.54
  L 139.00 183.46"
/>
<path stroke="#745409" vector-effect="non-scaling-stroke" d="
  M 139.00 183.46
  L 147.75 183.46"
/>
<path stroke="#bd8711" vector-effect="non-scaling-stroke" d="
  M 213.47 162.49
  Q 214.52 167.93 217.31 173.44
  Q 218.04 174.88 219.25 173.96"
/>
<path stroke="#b27e12" vector-effect="non-scaling-stroke" d="
  M 225.39 175.68
  C 222.72 177.29 223.50 179.74 223.50 182.21
  A 1.00 1.00 -0.6 0 1 222.52 183.21
  Q 220.25 183.27 218.67 183.24
  C 216.94 183.20 215.36 182.16 213.25 182.79"
/>
<path stroke="#d1a035" vector-effect="non-scaling-stroke" d="
  M 207.00 159.29
  Q 206.59 159.88 206.71 160.50"
/>
<path stroke="#b3984b" vector-effect="non-scaling-stroke" d="
  M 198.96 143.25
  Q 198.40 142.02 197.29 143.00"
/>
<path stroke="#b69641" vector-effect="non-scaling-stroke" d="
  M 149.25 177.21
  L 140.50 176.54"
/>
<path stroke="#e1d648" vector-effect="non-scaling-stroke" d="
  M 140.50 176.54
  L 140.25 176.46"
/>
<path stroke="#ded267" vector-effect="non-scaling-stroke" d="
  M 140.25 176.46
  Q 139.85 175.38 138.75 175.04"
/>
<path stroke="#fcf83b" vector-effect="non-scaling-stroke" d="
  M 124.00 173.50
  Q 123.76 173.75 123.70 174.00
  A 0.62 0.41 10.2 0 0 124.26 174.54
  Q 125.49 174.71 126.09 175.74
  A 1.33 0.96 75.4 0 0 126.79 176.32
  Q 129.38 177.00 132.02 176.79
  C 134.83 176.56 137.32 177.45 140.25 176.46"
/>
<path stroke="#d4bc15" vector-effect="non-scaling-stroke" d="
  M 140.50 176.54
  Q 139.21 178.02 139.95 179.62
  A 1.88 0.96 51.3 0 1 140.14 180.55
  Q 139.93 182.14 139.00 183.46"
/>
<path stroke="#bfb816" vector-effect="non-scaling-stroke" d="
  M 138.25 183.54
  Q 130.20 183.87 122.29 182.50"
/>
<path stroke="#bcb412" vector-effect="non-scaling-stroke" d="
  M 124.00 173.50
  L 122.29 173.75"
/>
<path stroke="#b7920b" vector-effect="non-scaling-stroke" d="
  M 123.25 161.04
  C 118.47 163.55 119.55 170.26 122.29 173.75"
/>
<path stroke="#fada15" vector-effect="non-scaling-stroke" d="
  M 122.29 173.75
  Q 120.73 177.70 121.21 182.00"
/>
<path stroke="#d7a009" vector-effect="non-scaling-stroke" d="
  M 121.21 182.00
  Q 117.03 180.62 117.87 175.23
  Q 118.29 172.52 117.48 169.91
  Q 116.67 167.34 118.49 162.90
  A 1.27 1.18 47.3 0 0 118.49 161.97
  Q 117.32 159.00 118.25 155.79"
/>
<path stroke="#dcc210" vector-effect="non-scaling-stroke" d="
  M 121.21 182.00
  L 122.29 182.50"
/>
<path stroke="#9c7e0a" vector-effect="non-scaling-stroke" d="
  M 122.29 182.50
  Q 122.00 183.53 121.00 183.54"
/>
<path stroke="#bcb412" vector-effect="non-scaling-stroke" d="
  M 139.00 160.54
  Q 131.09 160.09 123.25 161.04"
/>
<path stroke="#fada15" vector-effect="non-scaling-stroke" d="
  M 123.25 161.04
  C 121.28 160.69 122.20 156.75 121.46 154.75"
/>
<path stroke="#605006" vector-effect="non-scaling-stroke" d="
  M 138.25 162.46
  Q 138.30 161.32 139.00 160.54"
/>
<path stroke="#a49810" vector-effect="non-scaling-stroke" d="
  M 139.00 160.54
  L 139.75 160.46"
/>
<path stroke="#dcb341" vector-effect="non-scaling-stroke" d="
  M 118.54 155.50
  Q 118.48 155.73 118.25 155.79"
/>
<path stroke="#be9c3c" vector-effect="non-scaling-stroke" d="
  M 118.25 155.79
  C 112.75 158.79 113.38 168.80 114.62 173.97
  C 114.87 175.01 114.48 175.40 113.50 175.54"
/>
<path stroke="#fffe3f" vector-effect="non-scaling-stroke" d="
  M 140.44 154.59
  L 121.46 154.75"
/>
<path stroke="#fadb38" vector-effect="non-scaling-stroke" d="
  M 121.46 154.75
  L 118.54 155.50"
/>
<path stroke="#e0d76b" vector-effect="non-scaling-stroke" d="
  M 118.54 155.50
  Q 118.40 154.62 118.75 153.79"
/>
<path stroke="#6f5008" vector-effect="non-scaling-stroke" d="
  M 149.95 142.77
  Q 152.28 147.24 152.00 150.75
  Q 151.14 161.76 139.75 160.46"
/>
<path stroke="#cab415" vector-effect="non-scaling-stroke" d="
  M 139.75 160.46
  L 140.44 154.59"
/>
<path stroke="#cab637" vector-effect="non-scaling-stroke" d="
  M 140.44 154.59
  Q 143.93 154.79 145.67 152.36
  A 1.39 1.30 -32.3 0 0 145.91 151.43
  Q 145.74 149.73 144.21 151.00"
/>
<path stroke="#8b7309" vector-effect="non-scaling-stroke" d="
  M 143.00 150.46
  Q 142.58 149.67 143.06 149.12
  Q 143.39 148.75 142.95 148.73
  L 138.00 148.46"
/>
<path stroke="#c7b033" vector-effect="non-scaling-stroke" d="
  M 147.04 141.00
  L 146.71 141.79
  A 0.82 0.82 9.8 0 1 146.00 142.29
  Q 142.63 142.52 139.29 141.47"
/>
<path stroke="#fcf83b" vector-effect="non-scaling-stroke" d="
  M 123.75 139.79
  Q 122.77 141.01 123.49 142.06
  A 0.96 0.90 -18.3 0 0 124.31 142.44
  L 139.29 141.47"
/>
<path stroke="#cab415" vector-effect="non-scaling-stroke" d="
  M 139.29 141.47
  L 138.53 144.75
  A 1.45 0.47 60.3 0 0 138.73 145.70
  Q 139.42 147.29 138.00 148.46"
/>
<path stroke="#c0bb10" vector-effect="non-scaling-stroke" d="
  M 138.00 148.46
  L 120.58 148.19"
/>
<path stroke="#b49009" vector-effect="non-scaling-stroke" d="
  M 124.40 124.81
  Q 121.93 126.42 121.00 129.00
  C 120.29 130.97 118.72 139.20 122.75 139.71"
/>
<path stroke="#fada15" vector-effect="non-scaling-stroke" d="
  M 122.75 139.71
  C 118.74 139.60 119.76 145.81 120.58 148.19"
/>
<path stroke="#bb9909" vector-effect="non-scaling-stroke" d="
  M 120.58 148.19
  L 118.50 147.71"
/>
<path stroke="#d7a009" vector-effect="non-scaling-stroke" d="
  M 118.50 147.71
  Q 117.02 138.07 118.75 128.50
  Q 119.19 126.06 118.00 121.71"
/>
<path stroke="#9d8104" vector-effect="non-scaling-stroke" d="
  M 118.50 147.71
  L 114.75 146.79"
/>
<path stroke="#be9c3c" vector-effect="non-scaling-stroke" d="
  M 113.78 144.90
  Q 115.21 142.38 113.95 139.45
  A 1.45 1.41 -49.5 0 1 113.89 138.52
  C 114.48 136.30 113.69 134.08 113.91 132.34
  Q 114.52 127.45 116.75 123.04"
/>
<path stroke="#b9b310" vector-effect="non-scaling-stroke" d="
  M 123.50 139.71
  Q 123.12 139.80 122.75 139.71"
/>
<path stroke="#b9b310" vector-effect="non-scaling-stroke" d="
  M 139.75 124.21
  Q 132.14 123.88 124.40 124.81"
/>
<path stroke="#fada15" vector-effect="non-scaling-stroke" d="
  M 124.40 124.81
  Q 122.18 122.93 122.27 118.76"
/>
<path stroke="#dfd465" vector-effect="non-scaling-stroke" d="
  M 138.25 115.79
  Q 139.17 116.45 138.96 117.50"
/>
<path stroke="#fffe3f" vector-effect="non-scaling-stroke" d="
  M 138.96 117.50
  L 122.27 118.76"
/>
<path stroke="#fadb38" vector-effect="non-scaling-stroke" d="
  M 122.27 118.76
  Q 119.74 119.88 118.00 121.71"
/>
<path stroke="#dcc433" vector-effect="non-scaling-stroke" d="
  M 118.00 121.71
  L 116.75 123.04"
/>
<path stroke="#e0d76b" vector-effect="non-scaling-stroke" d="
  M 116.75 123.04
  Q 115.58 123.26 115.71 122.25"
/>
<path stroke="#5d4e03" vector-effect="non-scaling-stroke" d="
  M 139.50 125.71
  L 140.00 124.29"
/>
<path stroke="#6f5008" vector-effect="non-scaling-stroke" d="
  M 152.75 115.79
  Q 151.77 119.07 152.02 122.84
  A 1.24 1.15 -2.5 0 1 150.81 124.07
  L 140.00 124.29"
/>
<path stroke="#846b09" vector-effect="non-scaling-stroke" d="
  M 140.00 124.29
  L 139.75 124.21"
/>
<path stroke="#cab415" vector-effect="non-scaling-stroke" d="
  M 139.75 124.21
  C 140.74 122.22 139.15 118.62 141.25 118.04"
/>
<path stroke="#ab8b3b" vector-effect="non-scaling-stroke" d="
  M 152.12 115.80
  C 151.49 119.83 143.47 116.27 141.25 118.04"
/>
<path stroke="#e0d342" vector-effect="non-scaling-stroke" d="
  M 141.25 118.04
  L 138.96 117.50"
/>
<path stroke="#684c02" vector-effect="non-scaling-stroke" d="
  M 410.12 142.65
  Q 402.18 138.92 405.06 130.81
  C 408.06 122.39 414.83 122.80 423.71 122.62
  Q 431.31 122.47 439.39 122.50
  Q 441.61 122.51 441.03 120.37
  Q 440.48 118.34 441.21 116.50"
/>
<path stroke="#7c6528" vector-effect="non-scaling-stroke" d="
  M 441.21 116.50
  Q 442.50 115.29 441.00 114.96"
/>
<path stroke="#a08027" vector-effect="non-scaling-stroke" d="
  M 441.21 116.50
  Q 428.47 116.94 415.72 116.99
  C 401.25 117.05 394.64 132.26 401.19 144.24
  A 0.33 0.31 74.2 0 1 400.94 144.73
  L 399.29 144.75"
/>
<path stroke="#9b7a1d" vector-effect="non-scaling-stroke" d="
  M 414.50 144.29
  C 412.55 145.85 414.86 146.48 416.02 146.54
  C 421.38 146.78 426.94 146.27 431.84 148.58
  A 0.49 0.44 14.1 0 0 432.53 148.21
  L 432.54 146.75"
/>
<path stroke="#684c02" vector-effect="non-scaling-stroke" d="
  M 434.36 147.87
  Q 441.67 154.14 441.94 163.69
  C 442.30 176.02 432.63 182.50 421.00 182.50
  Q 409.98 182.50 398.96 182.50"
/>
<path stroke="#a08027" vector-effect="non-scaling-stroke" d="
  M 398.96 182.50
  L 399.05 176.82
  A 0.50 0.50 1.7 0 1 399.57 176.33
  Q 410.10 176.58 420.63 176.53
  C 430.34 176.49 437.39 172.18 435.55 160.95
  C 435.38 159.92 434.48 157.75 433.46 160.25"
/>
<path stroke="#6a4d02" vector-effect="non-scaling-stroke" d="
  M 428.96 155.75
  C 429.84 153.80 425.63 152.77 424.24 152.69
  C 418.91 152.36 411.04 153.41 406.56 150.19
  Q 404.98 149.05 403.75 149.79"
/>
<path stroke="#7c6528" vector-effect="non-scaling-stroke" d="
  M 397.04 183.25
  L 398.96 182.50"
/>
<path stroke="#d9cb35" vector-effect="non-scaling-stroke" d="
  M 39.04 115.25
  Q 38.71 117.03 40.50 116.96"
/>
<path stroke="#cab415" vector-effect="non-scaling-stroke" d="
  M 40.50 116.96
  C 38.45 118.06 38.97 120.77 38.50 122.96"
/>
<path stroke="#bcb412" vector-effect="non-scaling-stroke" d="
  M 38.50 122.96
  Q 30.39 122.41 23.25 126.04"
/>
<path stroke="#d4bc15" vector-effect="non-scaling-stroke" d="
  M 23.25 126.04
  Q 21.07 123.54 21.38 119.85"
/>
<path stroke="#e1d648" vector-effect="non-scaling-stroke" d="
  M 21.38 119.85
  L 21.25 118.54"
/>
<path stroke="#7e6628" vector-effect="non-scaling-stroke" d="
  M 49.50 115.29
  Q 49.57 116.26 48.96 117.00"
/>
<path stroke="#a4832d" vector-effect="non-scaling-stroke" d="
  M 48.96 117.00
  L 40.50 116.96"
/>
<path stroke="#b69641" vector-effect="non-scaling-stroke" d="
  M 21.38 119.85
  Q 17.86 121.61 15.25 124.04"
/>
<path stroke="#a78b3d" vector-effect="non-scaling-stroke" d="
  M 15.25 124.04
  C 5.95 131.76 0.30 144.18 3.18 156.28
  Q 4.33 161.09 5.06 162.19
  Q 6.53 164.40 4.04 164.25"
/>
<path stroke="#91740b" vector-effect="non-scaling-stroke" d="
  M 23.25 126.04
  L 20.75 127.46"
/>
<path stroke="#745409" vector-effect="non-scaling-stroke" d="
  M 20.75 127.46
  L 17.25 130.04"
/>
<path stroke="#9a710a" vector-effect="non-scaling-stroke" d="
  M 17.25 130.04
  Q 14.51 129.28 16.13 127.07
  A 0.97 0.64 -44.7 0 0 16.31 126.20
  L 15.25 124.04"
/>
<path stroke="#5c4c06" vector-effect="non-scaling-stroke" d="
  M 22.50 128.54
  L 20.75 127.46"
/>
<path stroke="#876c0b" vector-effect="non-scaling-stroke" d="
  M 38.75 123.04
  L 38.50 122.96"
/>
<path stroke="#605006" vector-effect="non-scaling-stroke" d="
  M 37.75 124.96
  Q 38.62 124.25 38.75 123.04"
/>
<path stroke="#6f5008" vector-effect="non-scaling-stroke" d="
  M 38.75 123.04
  L 47.95 122.73
  A 0.58 0.57 -88.9 0 0 48.50 122.20
  L 48.96 117.00"
/>
<path stroke="#654904" vector-effect="non-scaling-stroke" d="
  M 17.25 130.04
  Q 3.45 143.57 11.81 161.69
  Q 13.48 165.29 16.46 166.50"
/>
<path stroke="#9a710a" vector-effect="non-scaling-stroke" d="
  M 18.54 168.50
  C 15.58 169.04 16.37 174.04 16.63 176.32
  A 1.16 0.83 -83.0 0 0 17.07 177.13
  L 22.00 180.21"
/>
<path stroke="#c2940b" vector-effect="non-scaling-stroke" d="
  M 22.00 180.21
  Q 23.13 180.93 24.46 181.00"
/>
<path stroke="#c5b111" vector-effect="non-scaling-stroke" d="
  M 24.46 181.00
  Q 31.38 183.48 38.75 182.71"
/>
<path stroke="#d19f10" vector-effect="non-scaling-stroke" d="
  M 21.98 170.91
  L 22.00 180.21"
/>
<path stroke="#fcdf17" vector-effect="non-scaling-stroke" d="
  M 25.75 172.71
  C 23.43 172.87 24.90 174.02 25.19 175.13
  Q 26.00 178.14 24.46 181.00"
/>
<path stroke="#6a4d04" vector-effect="non-scaling-stroke" d="
  M 39.00 184.71
  L 39.50 182.79"
/>
<path stroke="#684c02" vector-effect="non-scaling-stroke" d="
  M 97.29 119.39
  Q 101.05 124.43 101.52 130.33
  C 102.40 141.30 93.71 148.22 82.99 147.66
  Q 80.10 147.50 77.31 148.31
  Q 74.97 148.99 76.25 151.00
  Q 77.20 152.49 78.00 150.71"
/>
<path stroke="#9b7a1d" vector-effect="non-scaling-stroke" d="
  M 78.00 150.71
  Q 80.61 151.21 78.90 152.68
  A 0.35 0.32 -52.6 0 0 78.95 153.24
  C 80.97 154.09 86.02 153.45 89.13 153.91
  C 90.48 154.10 92.05 155.00 92.00 152.54"
/>
<path stroke="#684c02" vector-effect="non-scaling-stroke" d="
  M 97.85 156.07
  Q 100.96 162.41 101.44 169.41
  Q 101.45 169.52 101.40 171.59
  Q 101.33 174.30 103.71 173.40"
/>
<path stroke="#684c02" vector-effect="non-scaling-stroke" d="
  M 109.32 175.08
  Q 107.00 175.51 107.00 177.25
  Q 107.00 179.37 107.00 180.67
  A 1.82 1.82 -0.3 0 1 105.20 182.49
  C 103.67 182.51 99.44 181.72 98.75 182.54"
/>
<path stroke="#9f812b" vector-effect="non-scaling-stroke" d="
  M 95.46 178.75
  Q 96.92 178.62 96.50 177.25
  Q 95.20 172.97 95.24 167.27
  C 95.25 166.08 94.91 164.22 93.21 165.50"
/>
<path stroke="#6a4d02" vector-effect="non-scaling-stroke" d="
  M 91.04 162.52
  C 90.58 158.64 80.56 158.84 75.75 158.75
  Q 74.50 158.73 69.33 155.67"
/>
<path stroke="#a68834" vector-effect="non-scaling-stroke" d="
  M 68.79 154.75
  Q 71.22 156.23 70.55 154.46
  C 69.07 150.61 69.76 146.55 72.62 144.08
  C 80.24 137.49 90.85 146.87 96.00 134.00
  C 96.33 133.18 96.07 129.45 94.63 128.81
  Q 93.66 128.37 93.78 129.22"
/>
<path stroke="#6a4d02" vector-effect="non-scaling-stroke" d="
  M 91.01 125.90
  C 91.35 121.74 75.71 122.64 72.84 123.00
  C 66.71 123.78 63.78 126.54 63.75 132.75
  Q 63.64 152.12 63.52 171.49
  C 63.43 185.49 48.55 182.89 39.50 182.79"
/>
<path stroke="#8c6703" vector-effect="non-scaling-stroke" d="
  M 39.50 182.79
  L 38.75 182.71"
/>
<path stroke="#c6b20e" vector-effect="non-scaling-stroke" d="
  M 38.75 182.71
  C 39.14 180.34 37.91 176.59 40.50 176.96"
/>
<path stroke="#9f812b" vector-effect="non-scaling-stroke" d="
  M 90.50 115.79
  Q 90.62 117.47 88.75 117.25
  C 83.52 116.65 69.91 116.59 64.75 119.38
  Q 58.25 122.90 58.25 131.75
  Q 58.25 149.25 58.27 166.75
  C 58.28 175.27 57.79 176.35 49.33 176.84
  Q 44.92 177.10 40.50 176.96"
/>
<path stroke="#d8cb39" vector-effect="non-scaling-stroke" d="
  M 40.50 176.96
  Q 38.38 176.71 37.25 174.79"
/>
<path stroke="#775e1e" vector-effect="non-scaling-stroke" d="
  M 83.28 150.01
  C 82.38 149.76 77.88 149.00 78.00 150.71"
/>
</g>
<path fill="#f4c972" d="
  M 287.75 90.04
  Q 287.53 90.91 287.98 91.25
  Q 288.23 91.44 287.94 91.51
  C 285.63 92.06 286.20 95.78 286.09 97.56
  A 0.81 0.68 84.8 0 1 285.60 98.27
  Q 285.05 98.43 284.46 98.25
  L 284.55 91.06
  A 1.03 0.91 75.4 0 1 284.96 90.26
  Q 286.24 89.43 287.75 90.04
  Z"
/>
<path fill="#f5b70e" d="
  M 383.31 90.86
  Q 380.33 91.99 381.28 95.12
  Q 382.04 97.63 379.48 98.26
  L 376.14 99.09
  Q 377.86 95.98 376.52 92.38
  Q 379.93 92.68 379.00 90.29
  Q 381.70 88.68 383.31 90.86
  Z"
/>
<path fill="#eea71d" d="
  M 287.75 90.04
  L 291.75 90.79
  Q 291.34 91.96 290.22 91.67
  A 0.42 0.42 12.2 0 0 289.70 92.00
  L 289.38 93.76
  Q 289.29 94.28 289.42 94.73
  Q 289.91 96.40 288.90 97.69
  A 1.53 1.01 5.0 0 1 288.07 98.14
  Q 286.14 98.54 285.00 100.21
  Q 283.64 99.65 284.46 98.25
  Q 285.05 98.43 285.60 98.27
  A 0.81 0.68 84.8 0 0 286.09 97.56
  C 286.20 95.78 285.63 92.06 287.94 91.51
  Q 288.23 91.44 287.98 91.25
  Q 287.53 90.91 287.75 90.04
  Z"
/>
<path fill="#f9fa7d" d="
  M 379.00 90.29
  Q 379.93 92.68 376.52 92.38
  C 370.05 94.74 367.77 102.01 366.29 108.00
  L 364.71 112.25
  Q 363.93 112.71 363.25 112.21
  C 365.15 103.07 368.30 90.76 379.00 90.29
  Z"
/>
<path fill="#8c6700" d="
  M 291.75 90.79
  Q 293.84 91.11 295.23 92.50
  Q 298.56 98.10 299.69 101.81
  Q 312.40 143.64 325.00 185.50
  C 326.19 189.47 328.64 201.75 331.50 199.46
  L 332.79 200.49
  Q 333.39 203.17 336.19 201.94
  Q 338.07 201.11 339.17 197.48
  Q 347.98 168.49 356.79 139.50
  Q 358.97 139.21 358.50 141.25
  Q 358.05 143.19 357.55 150.32
  C 357.46 151.59 357.78 153.36 359.46 151.50
  Q 352.66 173.63 346.20 195.85
  C 343.88 203.80 339.88 210.30 330.41 208.47
  C 328.89 208.17 328.38 207.16 326.68 208.43
  L 322.12 203.91
  Q 323.39 203.92 323.92 203.61
  A 0.74 0.50 65.6 0 0 324.06 202.79
  Q 322.51 198.93 321.34 194.93
  C 313.85 169.37 305.97 143.92 298.40 118.38
  Q 295.85 109.76 292.85 101.28
  A 0.65 0.58 74.9 0 0 292.18 100.84
  Q 291.31 101.01 290.96 102.00
  Q 288.85 99.30 285.00 100.21
  Q 286.14 98.54 288.07 98.14
  A 1.53 1.01 5.0 0 0 288.90 97.69
  Q 289.91 96.40 289.42 94.73
  Q 289.29 94.28 289.38 93.76
  L 289.70 92.00
  A 0.42 0.42 12.2 0 1 290.22 91.67
  Q 291.34 91.96 291.75 90.79
  Z"
/>
<path fill="#726904" fill-opacity="0.996" d="
  M 383.31 90.86
  L 383.25 99.42
  A 0.85 0.84 -84.6 0 1 382.26 100.25
  C 376.70 99.26 376.43 102.53 374.98 107.28
  Q 369.28 125.92 363.50 144.54
  L 361.54 144.50
  L 364.00 136.04
  L 368.38 121.79
  Q 371.48 110.14 376.14 99.09
  L 379.48 98.26
  Q 382.04 97.63 381.28 95.12
  Q 380.33 91.99 383.31 90.86
  Z"
/>
<path fill="#483303" d="
  M 295.23 92.50
  Q 299.09 94.96 300.50 99.00
  Q 303.93 108.87 308.33 123.48
  Q 324.42 176.99 330.25 196.75
  Q 330.77 198.51 331.50 199.46
  C 328.64 201.75 326.19 189.47 325.00 185.50
  Q 312.40 143.64 299.69 101.81
  Q 298.56 98.10 295.23 92.50
  Z"
/>
<path fill="#fffc1c" d="
  M 376.52 92.38
  Q 377.86 95.98 376.14 99.09
  Q 371.48 110.14 368.38 121.79
  Q 365.28 120.23 367.39 117.10
  A 1.44 0.90 -42.0 0 0 367.65 116.19
  L 366.29 108.00
  C 367.77 102.01 370.05 94.74 376.52 92.38
  Z"
/>
<path fill="#a98c39" d="
  M 322.12 203.91
  Q 301.89 137.39 294.94 114.06
  Q 292.67 106.45 290.96 102.00
  Q 291.31 101.01 292.18 100.84
  A 0.65 0.58 74.9 0 1 292.85 101.28
  Q 295.85 109.76 298.40 118.38
  C 305.97 143.92 313.85 169.37 321.34 194.93
  Q 322.51 198.93 324.06 202.79
  A 0.74 0.50 65.6 0 1 323.92 203.61
  Q 323.39 203.92 322.12 203.91
  Z"
/>
<path fill="#f8c111" d="
  M 366.29 108.00
  L 367.65 116.19
  A 1.44 0.90 -42.0 0 1 367.39 117.10
  Q 365.28 120.23 368.38 121.79
  L 364.00 136.04
  Q 362.10 136.76 362.75 135.00
  Q 363.42 133.18 364.44 126.86
  A 0.71 0.68 -63.4 0 0 364.25 126.25
  L 363.99 125.99
  A 2.12 2.08 27.8 0 1 363.40 124.14
  Q 364.30 119.04 363.04 118.00
  L 364.71 112.25
  L 366.29 108.00
  Z"
/>
<path fill="#c2af74" d="
  M 363.25 112.21
  Q 363.93 112.71 364.71 112.25
  L 363.04 118.00
  L 356.79 139.50
  Q 347.98 168.49 339.17 197.48
  Q 338.07 201.11 336.19 201.94
  Q 333.39 203.17 332.79 200.49
  Q 336.45 201.08 337.34 198.07
  Q 350.08 155.08 363.25 112.21
  Z"
/>
<path fill="#f4c972" d="
  M 556.75 114.46
  Q 556.36 115.86 555.29 116.50
  Q 551.61 114.14 547.75 116.21
  Q 542.46 118.98 542.50 124.50
  Q 542.66 146.72 542.29 168.93
  C 542.23 172.45 541.35 174.85 537.54 175.00
  L 534.54 175.25
  C 534.14 171.44 540.42 175.74 540.44 170.03
  Q 540.54 147.14 540.50 124.25
  C 540.50 122.11 542.30 118.38 543.89 116.69
  Q 548.96 111.34 556.75 114.46
  Z"
/>
<path fill="#f9fa7d" d="
  M 597.75 113.79
  Q 597.44 115.38 595.25 115.75
  C 585.31 117.44 585.97 124.67 586.09 133.75
  Q 586.34 154.80 585.23 175.86
  Q 582.02 175.77 583.54 174.24
  Q 584.02 145.18 583.75 129.75
  C 583.59 120.55 587.54 113.48 597.75 113.79
  Z"
/>
<path fill="#fef825" d="
  M 597.75 113.79
  Q 598.77 113.45 599.29 114.25
  Q 596.86 116.86 597.52 120.62
  A 1.20 1.19 83.6 0 1 596.41 122.02
  Q 591.98 122.24 591.96 127.06
  Q 591.89 149.43 591.56 171.79
  C 591.46 178.11 590.13 182.75 583.04 182.75
  C 581.52 179.88 580.43 176.45 585.23 175.86
  Q 586.34 154.80 586.09 133.75
  C 585.97 124.67 585.31 117.44 595.25 115.75
  Q 597.44 115.38 597.75 113.79
  Z"
/>
<path fill="#a5862e" d="
  M 517.04 118.50
  Q 516.50 119.11 516.94 119.60
  A 0.79 0.32 42.4 0 1 517.20 120.14
  Q 517.15 120.50 516.71 120.27
  Q 507.00 115.28 496.00 116.21
  Q 496.75 114.06 494.25 114.46
  Q 506.42 112.62 517.04 118.50
  Z"
/>
<path fill="#7e730f" d="
  M 599.29 114.25
  Q 599.62 117.48 599.53 120.73
  C 599.46 123.21 600.12 124.93 596.32 124.16
  Q 594.49 123.79 594.17 125.63
  Q 593.84 127.51 593.86 130.25
  Q 594.00 150.87 594.00 171.50
  Q 594.00 174.25 592.97 177.99
  C 590.72 186.11 580.71 186.50 575.25 181.79
  C 576.93 181.21 580.67 183.00 583.04 182.75
  C 590.13 182.75 591.46 178.11 591.56 171.79
  Q 591.89 149.43 591.96 127.06
  Q 591.98 122.24 596.41 122.02
  A 1.20 1.19 83.6 0 0 597.52 120.62
  Q 596.86 116.86 599.29 114.25
  Z"
/>
<path fill="#f9d879" d="
  M 286.25 114.54
  Q 285.73 117.19 282.48 116.37
  Q 280.20 115.80 280.17 118.15
  Q 279.85 143.87 280.06 171.06
  C 280.08 172.80 278.73 180.09 280.29 182.75
  L 278.75 184.21
  Q 278.45 184.32 278.20 184.24
  A 0.91 0.56 -84.6 0 1 277.81 183.44
  L 277.75 115.85
  A 1.13 1.02 89.5 0 1 278.75 114.72
  L 286.25 114.54
  Z"
/>
<path fill="#eea71d" d="
  M 286.25 114.54
  Q 287.40 114.24 288.25 114.96
  Q 286.43 116.31 286.44 119.06
  Q 286.55 149.91 286.50 181.24
  A 1.04 0.94 87.6 0 1 285.65 182.27
  L 280.29 182.75
  C 278.73 180.09 280.08 172.80 280.06 171.06
  Q 279.85 143.87 280.17 118.15
  Q 280.20 115.80 282.48 116.37
  Q 285.73 117.19 286.25 114.54
  Z"
/>
<path fill="#c3a951" d="
  M 391.29 115.00
  L 389.46 116.25
  Q 388.63 116.09 388.00 116.54
  L 383.70 116.64
  A 0.55 0.52 89.5 0 0 383.19 117.19
  Q 383.29 149.24 383.25 181.29
  C 383.25 182.06 382.89 182.50 382.14 182.56
  A 1.03 0.89 -65.8 0 0 381.58 182.82
  Q 381.14 183.23 381.21 182.25
  L 381.25 115.85
  A 1.05 1.05 -5.3 0 1 382.11 114.82
  Q 386.93 113.94 391.29 115.00
  Z"
/>
<path fill="#c2af74" d="
  M 494.25 114.46
  Q 496.75 114.06 496.00 116.21
  Q 484.71 117.24 476.40 124.96
  L 475.29 125.75
  Q 475.36 124.64 474.25 124.71
  Q 482.69 116.62 494.25 114.46
  Z"
/>
<path fill="#fdf528" d="
  M 556.75 114.46
  Q 557.34 114.59 557.73 115.04
  Q 567.04 138.57 575.21 162.50
  Q 574.70 166.70 570.80 167.82
  A 0.58 0.56 71.5 0 1 570.13 167.47
  C 565.29 154.85 560.67 140.22 554.96 125.75
  Q 557.76 121.29 555.29 116.50
  Q 556.36 115.86 556.75 114.46
  Z"
/>
<path fill="#8c6700" d="
  M 195.52 117.89
  Q 199.91 126.15 203.19 134.88
  Q 206.12 142.69 205.59 146.93
  C 204.39 156.63 195.63 153.90 188.03 155.03
  A 2.08 2.07 -88.2 0 0 186.30 156.66
  Q 185.66 159.69 187.79 158.25
  Q 188.77 158.91 190.00 158.79
  Q 188.32 159.24 189.21 160.33
  A 1.19 1.05 -18.0 0 0 190.07 160.70
  L 206.71 160.50
  L 208.43 160.83
  A 0.78 0.54 3.7 0 1 209.03 161.31
  Q 210.29 168.54 209.21 175.77
  L 205.47 168.40
  Q 199.54 165.88 191.25 166.75
  Q 187.29 167.16 181.01 165.66
  Q 179.22 164.49 178.54 162.25
  C 180.78 162.32 179.51 160.96 179.46 159.84
  Q 179.05 149.37 188.94 148.62
  C 192.34 148.36 200.96 149.87 198.96 143.25
  Q 196.95 135.49 193.57 128.23
  C 193.13 127.30 192.48 124.45 191.29 127.75
  L 189.96 125.75
  Q 190.23 125.43 190.35 125.06
  A 0.80 0.69 28.7 0 0 190.05 124.25
  Q 185.80 121.02 183.56 126.06
  Q 179.30 135.68 165.78 175.45
  C 163.09 183.35 155.36 184.22 147.75 183.46
  Q 148.49 181.01 147.53 178.77
  A 0.75 0.66 58.5 0 1 147.67 177.95
  Q 148.34 177.37 149.25 177.21
  Q 153.47 177.28 157.46 176.08
  A 1.64 1.54 10.1 0 0 158.26 175.56
  Q 160.21 173.13 161.69 168.69
  Q 164.64 159.79 175.24 130.63
  C 177.99 123.07 179.15 118.43 186.50 116.50
  Q 187.92 116.13 188.25 114.96
  Q 192.71 114.95 195.52 117.89
  Z"
/>
<path fill="#fef224" d="
  M 236.92 118.22
  Q 236.90 120.58 237.51 122.82
  Q 238.25 125.58 238.24 127.30
  Q 238.15 149.44 238.49 171.57
  C 238.51 172.92 237.64 175.67 240.50 174.46
  Q 240.85 174.61 241.00 174.96
  C 240.35 175.65 241.62 181.22 241.75 183.21
  L 233.98 182.47
  Q 232.11 181.02 230.55 178.26
  Q 232.52 177.64 232.28 176.64
  Q 232.07 175.81 232.07 175.69
  Q 232.55 151.72 232.01 127.75
  A 0.62 0.54 -89.1 0 0 231.50 127.15
  Q 230.87 127.11 230.29 127.50
  Q 229.93 126.74 230.05 126.06
  Q 231.16 124.88 231.44 123.69
  Q 232.25 120.26 230.22 117.22
  A 0.96 0.86 71.0 0 0 229.45 116.79
  L 212.94 116.81
  A 1.13 0.94 -87.8 0 0 211.99 117.87
  L 211.70 122.39
  A 0.37 0.33 4.8 0 1 211.30 122.69
  Q 210.41 122.58 210.04 123.50
  L 210.28 116.05
  A 1.36 1.34 0.9 0 1 211.64 114.75
  C 218.22 114.75 232.53 112.83 236.92 118.22
  Z"
/>
<path fill="#fefc49" d="
  M 272.00 114.71
  Q 272.23 114.62 272.78 115.08
  C 268.70 118.81 273.59 123.11 267.41 122.99
  Q 260.47 122.85 254.07 123.22
  Q 250.75 123.41 250.75 126.73
  Q 250.75 146.82 250.75 166.89
  C 250.75 175.44 251.17 181.71 241.75 183.21
  C 241.62 181.22 240.35 175.65 241.00 174.96
  Q 243.42 175.39 242.79 172.75
  Q 243.19 173.75 243.57 172.96
  Q 243.76 172.57 244.13 172.19
  Q 244.79 171.51 244.81 170.19
  Q 245.35 135.40 245.00 128.00
  Q 244.58 119.18 252.20 117.06
  A 0.97 0.70 -5.0 0 0 252.87 116.48
  Q 253.05 115.68 252.25 115.04
  L 252.75 114.96
  L 272.00 114.71
  Z"
/>
<path fill="#443003" d="
  M 410.12 142.65
  Q 402.18 138.92 405.06 130.81
  C 408.06 122.39 414.83 122.80 423.71 122.62
  Q 431.31 122.47 439.39 122.50
  Q 441.61 122.51 441.03 120.37
  Q 440.48 118.34 441.21 116.50
  Q 442.50 115.29 441.00 114.96
  C 444.54 112.96 443.13 122.73 442.92 123.81
  A 0.65 0.65 4.5 0 1 442.31 124.33
  Q 426.63 124.75 419.25 124.50
  C 408.50 124.13 401.72 133.96 410.12 142.65
  Z"
/>
<path fill="#c0a968" d="
  M 455.75 114.71
  L 456.50 114.79
  Q 455.50 116.37 453.75 116.79
  Q 452.26 116.22 451.15 116.94
  A 1.02 0.86 76.1 0 0 450.75 117.75
  L 450.88 182.70
  Q 448.64 184.22 448.96 182.25
  L 449.00 117.12
  A 1.87 1.72 87.3 0 1 450.54 115.27
  L 455.75 114.71
  Z"
/>
<path fill="#f5b70e" d="
  M 456.50 114.79
  L 458.50 114.71
  Q 458.89 114.63 458.96 115.00
  Q 458.66 116.32 457.91 116.70
  A 1.66 1.66 76.6 0 0 457.00 118.18
  Q 457.00 149.66 457.00 179.36
  C 457.00 181.23 457.46 182.63 454.68 182.47
  Q 454.70 152.19 454.69 121.94
  Q 454.69 118.39 453.75 116.79
  Q 455.50 116.37 456.50 114.79
  Z"
/>
<path fill="#fffc1c" d="
  M 39.04 115.25
  Q 38.71 117.03 40.50 116.96
  C 38.45 118.06 38.97 120.77 38.50 122.96
  Q 30.39 122.41 23.25 126.04
  Q 21.07 123.54 21.38 119.85
  L 21.25 118.54
  Q 29.63 114.35 39.04 115.25
  Z"
/>
<path fill="#c2af74" d="
  M 188.25 114.96
  Q 187.92 116.13 186.50 116.50
  C 179.15 118.43 177.99 123.07 175.24 130.63
  Q 164.64 159.79 161.69 168.69
  Q 160.21 173.13 158.26 175.56
  A 1.64 1.54 10.1 0 1 157.46 176.08
  Q 153.47 177.28 149.25 177.21
  L 140.50 176.54
  L 140.25 176.46
  Q 139.85 175.38 138.75 175.04
  L 155.22 175.00
  Q 157.53 174.99 158.30 172.83
  Q 166.82 148.94 175.31 125.06
  Q 178.64 115.71 188.25 114.96
  Z"
/>
<path fill="#feff61" d="
  M 252.25 115.04
  Q 253.05 115.68 252.87 116.48
  A 0.97 0.70 -5.0 0 1 252.20 117.06
  Q 244.58 119.18 245.00 128.00
  Q 245.35 135.40 244.81 170.19
  Q 244.79 171.51 244.13 172.19
  Q 243.76 172.57 243.57 172.96
  Q 243.19 173.75 242.79 172.75
  Q 241.99 145.68 242.75 126.50
  Q 243.12 117.31 252.25 115.04
  Z"
/>
<path fill="#857a1b" d="
  M 272.78 115.08
  L 272.94 123.95
  A 1.03 0.97 89.4 0 1 271.97 125.00
  L 253.51 125.00
  A 0.81 0.81 89.3 0 0 252.70 125.83
  Q 253.20 148.72 252.92 172.00
  C 252.80 182.30 242.69 189.72 233.98 182.47
  L 241.75 183.21
  C 251.17 181.71 250.75 175.44 250.75 166.89
  Q 250.75 146.82 250.75 126.73
  Q 250.75 123.41 254.07 123.22
  Q 260.47 122.85 267.41 122.99
  C 273.59 123.11 268.70 118.81 272.78 115.08
  Z"
/>
<path fill="#6b4003" d="
  M 288.25 114.96
  Q 288.54 138.22 288.51 161.49
  C 288.50 166.56 288.10 175.97 288.50 183.27
  A 0.88 0.86 88.4 0 1 287.64 184.20
  L 278.75 184.21
  L 280.29 182.75
  L 285.65 182.27
  A 1.04 0.94 87.6 0 0 286.50 181.24
  Q 286.55 149.91 286.44 119.06
  Q 286.43 116.31 288.25 114.96
  Z"
/>
<path fill="#3f2c03" d="
  M 391.29 115.00
  L 391.49 183.09
  A 1.10 1.05 -89.8 0 1 390.42 184.20
  L 381.25 184.04
  Q 383.09 182.28 385.75 182.46
  C 390.23 183.51 389.50 180.82 389.50 178.02
  Q 389.53 147.13 389.46 116.25
  L 391.29 115.00
  Z"
/>
<path fill="#b3994d" d="
  M 441.00 114.96
  Q 442.50 115.29 441.21 116.50
  Q 428.47 116.94 415.72 116.99
  C 401.25 117.05 394.64 132.26 401.19 144.24
  A 0.33 0.31 74.2 0 1 400.94 144.73
  L 399.29 144.75
  C 392.96 134.03 397.93 120.65 409.28 116.43
  C 417.04 113.55 431.61 115.01 441.00 114.96
  Z"
/>
<path fill="#786c08" d="
  M 458.96 115.00
  L 459.00 183.47
  A 0.78 0.78 -89.9 0 1 458.22 184.25
  Q 454.50 184.25 450.51 184.48
  Q 447.95 184.62 448.96 182.25
  Q 448.64 184.22 450.88 182.70
  L 454.68 182.47
  C 457.46 182.63 457.00 181.23 457.00 179.36
  Q 457.00 149.66 457.00 118.18
  A 1.66 1.66 76.6 0 1 457.91 116.70
  Q 458.66 116.32 458.96 115.00
  Z"
/>
<path fill="#898c10" fill-opacity="0.996" d="
  M 557.73 115.04
  Q 561.01 118.18 562.54 122.49
  Q 571.56 147.97 580.95 173.32
  Q 580.73 173.51 580.06 173.62
  A 0.63 0.61 74.0 0 1 579.39 173.23
  L 575.21 162.50
  Q 567.04 138.57 557.73 115.04
  Z"
/>
<path fill="#b3994d" d="
  M 39.04 115.25
  L 49.50 115.29
  Q 49.57 116.26 48.96 117.00
  L 40.50 116.96
  Q 38.71 117.03 39.04 115.25
  Z"
/>
<path fill="#483303" d="
  M 49.50 115.29
  C 51.79 114.91 51.00 121.26 50.97 123.32
  A 1.67 1.64 -89.5 0 1 49.33 124.96
  L 37.75 124.96
  Q 38.62 124.25 38.75 123.04
  L 47.95 122.73
  A 0.58 0.57 -88.9 0 0 48.50 122.20
  L 48.96 117.00
  Q 49.57 116.26 49.50 115.29
  Z"
/>
<path fill="#b19a55" d="
  M 90.50 115.79
  Q 90.62 117.47 88.75 117.25
  C 83.52 116.65 69.91 116.59 64.75 119.38
  Q 58.25 122.90 58.25 131.75
  Q 58.25 149.25 58.27 166.75
  C 58.28 175.27 57.79 176.35 49.33 176.84
  Q 44.92 177.10 40.50 176.96
  Q 38.38 176.71 37.25 174.79
  C 42.29 174.95 47.39 174.82 52.41 175.09
  C 56.70 175.33 56.25 172.49 56.25 169.35
  Q 56.25 152.05 56.25 134.75
  C 56.25 117.81 66.18 114.97 81.00 115.25
  Q 88.44 115.39 90.50 115.79
  Z"
/>
<path fill="#f5cc21" d="
  M 555.29 116.50
  Q 557.76 121.29 554.96 125.75
  Q 553.96 124.51 553.25 126.29
  L 551.50 123.46
  L 551.46 123.25
  Q 550.82 122.28 550.14 121.35
  C 549.11 119.97 549.03 119.11 549.38 117.49
  A 1.34 0.75 -67.0 0 0 549.28 116.55
  Q 548.79 115.86 547.75 116.21
  Q 551.61 114.14 555.29 116.50
  Z"
/>
<path fill="#8c6700" d="
  M 90.50 115.79
  Q 94.69 116.43 97.29 119.39
  Q 101.05 124.43 101.52 130.33
  C 102.40 141.30 93.71 148.22 82.99 147.66
  Q 80.10 147.50 77.31 148.31
  Q 74.97 148.99 76.25 151.00
  Q 77.20 152.49 78.00 150.71
  Q 80.61 151.21 78.90 152.68
  A 0.35 0.32 -52.6 0 0 78.95 153.24
  C 80.97 154.09 86.02 153.45 89.13 153.91
  C 90.48 154.10 92.05 155.00 92.00 152.54
  Q 95.63 153.40 97.85 156.07
  Q 100.96 162.41 101.44 169.41
  Q 101.45 169.52 101.40 171.59
  Q 101.33 174.30 103.71 173.40
  C 104.68 175.23 107.39 173.41 109.32 175.08
  Q 107.00 175.51 107.00 177.25
  Q 107.00 179.37 107.00 180.67
  A 1.82 1.82 -0.3 0 1 105.20 182.49
  C 103.67 182.51 99.44 181.72 98.75 182.54
  Q 96.17 181.45 95.46 178.75
  Q 96.92 178.62 96.50 177.25
  Q 95.20 172.97 95.24 167.27
  C 95.25 166.08 94.91 164.22 93.21 165.50
  L 91.04 162.52
  C 90.58 158.64 80.56 158.84 75.75 158.75
  Q 74.50 158.73 69.33 155.67
  Q 68.76 155.39 68.79 154.75
  Q 71.22 156.23 70.55 154.46
  C 69.07 150.61 69.76 146.55 72.62 144.08
  C 80.24 137.49 90.85 146.87 96.00 134.00
  C 96.33 133.18 96.07 129.45 94.63 128.81
  Q 93.66 128.37 93.78 129.22
  Q 92.07 127.93 91.01 125.90
  C 91.35 121.74 75.71 122.64 72.84 123.00
  C 66.71 123.78 63.78 126.54 63.75 132.75
  Q 63.64 152.12 63.52 171.49
  C 63.43 185.49 48.55 182.89 39.50 182.79
  L 38.75 182.71
  C 39.14 180.34 37.91 176.59 40.50 176.96
  Q 44.92 177.10 49.33 176.84
  C 57.79 176.35 58.28 175.27 58.27 166.75
  Q 58.25 149.25 58.25 131.75
  Q 58.25 122.90 64.75 119.38
  C 69.91 116.59 83.52 116.65 88.75 117.25
  Q 90.62 117.47 90.50 115.79
  Z"
/>
<path fill="#feff61" d="
  M 138.25 115.79
  Q 139.17 116.45 138.96 117.50
  L 122.27 118.76
  Q 119.74 119.88 118.00 121.71
  L 116.75 123.04
  Q 115.58 123.26 115.71 122.25
  C 120.93 114.61 129.78 115.49 138.25 115.79
  Z"
/>
<path fill="#c0a968" d="
  M 138.25 115.79
  L 152.12 115.80
  C 151.49 119.83 143.47 116.27 141.25 118.04
  L 138.96 117.50
  Q 139.17 116.45 138.25 115.79
  Z"
/>
<path fill="#956c0d" d="
  M 152.12 115.80
  Q 152.30 115.69 152.75 115.79
  Q 151.77 119.07 152.02 122.84
  A 1.24 1.15 -2.5 0 1 150.81 124.07
  L 140.00 124.29
  L 139.75 124.21
  C 140.74 122.22 139.15 118.62 141.25 118.04
  C 143.47 116.27 151.49 119.83 152.12 115.80
  Z"
/>
<path fill="#483303" d="
  M 152.75 115.79
  C 155.07 115.83 154.27 122.85 154.22 124.21
  A 1.59 1.58 -88.7 0 1 152.63 125.74
  L 139.50 125.71
  L 140.00 124.29
  L 150.81 124.07
  A 1.24 1.15 -2.5 0 0 152.02 122.84
  Q 151.77 119.07 152.75 115.79
  Z"
/>
<path fill="#efae1c" d="
  M 551.46 123.25
  Q 548.49 123.41 548.50 126.25
  Q 548.58 151.69 548.32 169.10
  C 548.21 176.81 546.57 182.14 537.75 181.46
  L 537.54 175.00
  C 541.35 174.85 542.23 172.45 542.29 168.93
  Q 542.66 146.72 542.50 124.50
  Q 542.46 118.98 547.75 116.21
  Q 548.79 115.86 549.28 116.55
  A 1.34 0.75 -67.0 0 1 549.38 117.49
  C 549.03 119.11 549.11 119.97 550.14 121.35
  Q 550.82 122.28 551.46 123.25
  Z"
/>
<path fill="#8e670b" d="
  M 389.46 116.25
  Q 389.53 147.13 389.50 178.02
  C 389.50 180.82 390.23 183.51 385.75 182.46
  Q 386.24 151.59 385.95 120.72
  C 385.93 118.74 385.31 116.86 388.00 116.54
  Q 388.63 116.09 389.46 116.25
  Z"
/>
<path fill="#8c6700" d="
  M 496.00 116.21
  Q 507.00 115.28 516.71 120.27
  Q 517.15 120.50 517.20 120.14
  A 0.79 0.32 42.4 0 0 516.94 119.60
  Q 516.50 119.11 517.04 118.50
  Q 520.17 119.45 521.96 122.04
  Q 532.36 132.37 533.57 146.20
  Q 534.34 155.04 531.39 162.53
  C 527.07 173.47 516.23 182.13 504.50 183.50
  Q 492.00 184.96 480.12 179.48
  Q 476.54 178.25 474.00 175.29
  Q 476.26 175.73 476.00 173.50
  Q 475.67 170.59 476.32 164.00
  Q 477.86 166.04 480.25 166.71
  Q 486.42 173.56 495.50 175.29
  Q 494.94 175.61 494.64 176.11
  A 0.44 0.40 22.8 0 0 494.92 176.71
  Q 499.80 178.17 504.80 177.00
  Q 524.63 172.35 527.70 152.04
  Q 528.65 140.96 521.76 132.69
  A 0.78 0.65 57.8 0 0 520.96 132.43
  Q 520.02 132.79 519.96 134.00
  L 517.23 130.53
  Q 511.98 123.20 502.75 122.44
  Q 485.77 121.05 476.29 134.75
  Q 475.49 129.86 476.40 124.96
  Q 484.71 117.24 496.00 116.21
  Z"
/>
<path fill="#f3c120" d="
  M 230.05 126.06
  Q 229.42 125.68 229.21 125.25
  Q 230.16 124.17 229.37 123.32
  A 1.24 0.86 -16.6 0 0 228.49 123.03
  Q 218.50 123.57 216.50 123.25
  Q 212.78 122.66 210.19 124.64
  Q 209.93 123.56 210.04 123.50
  Q 210.41 122.58 211.30 122.69
  A 0.37 0.33 4.8 0 0 211.70 122.39
  L 211.99 117.87
  A 1.13 0.94 -87.8 0 1 212.94 116.81
  L 229.45 116.79
  A 0.96 0.86 71.0 0 1 230.22 117.22
  Q 232.25 120.26 231.44 123.69
  Q 231.16 124.88 230.05 126.06
  Z"
/>
<path fill="#a27711" d="
  M 388.00 116.54
  C 385.31 116.86 385.93 118.74 385.95 120.72
  Q 386.24 151.59 385.75 182.46
  Q 383.09 182.28 381.25 184.04
  Q 380.65 183.18 381.21 182.25
  Q 381.14 183.23 381.58 182.82
  A 1.03 0.89 -65.8 0 1 382.14 182.56
  C 382.89 182.50 383.25 182.06 383.25 181.29
  Q 383.29 149.24 383.19 117.19
  A 0.55 0.52 89.5 0 1 383.70 116.64
  L 388.00 116.54
  Z"
/>
<path fill="#8c6700" d="
  M 441.21 116.50
  Q 440.48 118.34 441.03 120.37
  Q 441.61 122.51 439.39 122.50
  Q 431.31 122.47 423.71 122.62
  C 414.83 122.80 408.06 122.39 405.06 130.81
  Q 402.18 138.92 410.12 142.65
  L 414.50 144.29
  C 412.55 145.85 414.86 146.48 416.02 146.54
  C 421.38 146.78 426.94 146.27 431.84 148.58
  A 0.49 0.44 14.1 0 0 432.53 148.21
  L 432.54 146.75
  Q 433.80 146.88 434.36 147.87
  Q 441.67 154.14 441.94 163.69
  C 442.30 176.02 432.63 182.50 421.00 182.50
  Q 409.98 182.50 398.96 182.50
  L 399.05 176.82
  A 0.50 0.50 1.7 0 1 399.57 176.33
  Q 410.10 176.58 420.63 176.53
  C 430.34 176.49 437.39 172.18 435.55 160.95
  C 435.38 159.92 434.48 157.75 433.46 160.25
  Q 431.62 157.58 428.96 155.75
  C 429.84 153.80 425.63 152.77 424.24 152.69
  C 418.91 152.36 411.04 153.41 406.56 150.19
  Q 404.98 149.05 403.75 149.79
  Q 400.88 147.85 399.29 144.75
  L 400.94 144.73
  A 0.33 0.31 74.2 0 0 401.19 144.24
  C 394.64 132.26 401.25 117.05 415.72 116.99
  Q 428.47 116.94 441.21 116.50
  Z"
/>
<path fill="#b98804" d="
  M 453.75 116.79
  Q 454.69 118.39 454.69 121.94
  Q 454.70 152.19 454.68 182.47
  L 450.88 182.70
  L 450.75 117.75
  A 1.02 0.86 76.1 0 1 451.15 116.94
  Q 452.26 116.22 453.75 116.79
  Z"
/>
<path fill="#956c0d" d="
  M 40.50 116.96
  L 48.96 117.00
  L 48.50 122.20
  A 0.58 0.57 -88.9 0 1 47.95 122.73
  L 38.75 123.04
  L 38.50 122.96
  C 38.97 120.77 38.45 118.06 40.50 116.96
  Z"
/>
<path fill="#fffc1c" d="
  M 138.96 117.50
  L 141.25 118.04
  C 139.15 118.62 140.74 122.22 139.75 124.21
  Q 132.14 123.88 124.40 124.81
  Q 122.18 122.93 122.27 118.76
  L 138.96 117.50
  Z"
/>
<path fill="#443003" d="
  M 195.52 117.89
  Q 198.84 120.01 200.56 124.19
  C 204.04 132.60 215.42 152.18 199.38 156.30
  C 196.40 157.06 192.19 156.75 188.75 156.75
  A 1.19 0.69 9.5 0 0 187.87 157.08
  Q 187.54 157.53 187.79 158.25
  Q 185.66 159.69 186.30 156.66
  A 2.08 2.07 -88.2 0 1 188.03 155.03
  C 195.63 153.90 204.39 156.63 205.59 146.93
  Q 206.12 142.69 203.19 134.88
  Q 199.91 126.15 195.52 117.89
  Z"
/>
<path fill="#a97c0e" d="
  M 363.04 118.00
  Q 364.30 119.04 363.40 124.14
  A 2.12 2.08 27.8 0 0 363.99 125.99
  L 364.25 126.25
  A 0.71 0.68 -63.4 0 1 364.44 126.86
  Q 363.42 133.18 362.75 135.00
  Q 362.10 136.76 364.00 136.04
  L 361.54 144.50
  L 359.46 151.50
  C 357.78 153.36 357.46 151.59 357.55 150.32
  Q 358.05 143.19 358.50 141.25
  Q 358.97 139.21 356.79 139.50
  L 363.04 118.00
  Z"
/>
<path fill="#807a04" fill-opacity="0.996" d="
  M 236.92 118.22
  Q 240.14 122.10 240.25 126.25
  Q 240.66 142.07 240.50 174.46
  C 237.64 175.67 238.51 172.92 238.49 171.57
  Q 238.15 149.44 238.24 127.30
  Q 238.25 125.58 237.51 122.82
  Q 236.90 120.58 236.92 118.22
  Z"
/>
<path fill="#c2af74" d="
  M 21.25 118.54
  L 21.38 119.85
  Q 17.86 121.61 15.25 124.04
  C 5.95 131.76 0.30 144.18 3.18 156.28
  Q 4.33 161.09 5.06 162.19
  Q 6.53 164.40 4.04 164.25
  C -4.49 146.31 4.09 127.30 21.25 118.54
  Z"
/>
<path fill="#f5b70e" d="
  M 122.27 118.76
  Q 122.18 122.93 124.40 124.81
  Q 121.93 126.42 121.00 129.00
  C 120.29 130.97 118.72 139.20 122.75 139.71
  C 118.74 139.60 119.76 145.81 120.58 148.19
  L 118.50 147.71
  Q 117.02 138.07 118.75 128.50
  Q 119.19 126.06 118.00 121.71
  Q 119.74 119.88 122.27 118.76
  Z"
/>
<path fill="#443003" d="
  M 97.29 119.39
  Q 102.34 122.89 103.25 127.50
  C 106.01 141.46 96.08 149.68 83.28 150.01
  C 82.38 149.76 77.88 149.00 78.00 150.71
  Q 77.20 152.49 76.25 151.00
  Q 74.97 148.99 77.31 148.31
  Q 80.10 147.50 82.99 147.66
  C 93.71 148.22 102.40 141.30 101.52 130.33
  Q 101.05 124.43 97.29 119.39
  Z"
/>
<path fill="#a97c0e" d="
  M 21.38 119.85
  Q 21.07 123.54 23.25 126.04
  L 20.75 127.46
  L 17.25 130.04
  Q 14.51 129.28 16.13 127.07
  A 0.97 0.64 -44.7 0 0 16.31 126.20
  L 15.25 124.04
  Q 17.86 121.61 21.38 119.85
  Z"
/>
<path fill="#b98804" d="
  M 118.00 121.71
  Q 119.19 126.06 118.75 128.50
  Q 117.02 138.07 118.50 147.71
  L 114.75 146.79
  Q 113.54 145.97 113.78 144.90
  Q 115.21 142.38 113.95 139.45
  A 1.45 1.41 -49.5 0 1 113.89 138.52
  C 114.48 136.30 113.69 134.08 113.91 132.34
  Q 114.52 127.45 116.75 123.04
  L 118.00 121.71
  Z"
/>
<path fill="#443003" d="
  M 521.96 122.04
  Q 533.47 130.38 535.75 144.55
  C 539.06 165.14 523.41 182.96 504.00 185.75
  Q 491.41 187.56 480.12 179.48
  Q 492.00 184.96 504.50 183.50
  C 516.23 182.13 527.07 173.47 531.39 162.53
  Q 534.34 155.04 533.57 146.20
  Q 532.36 132.37 521.96 122.04
  Z"
/>
<path fill="#c2af74" d="
  M 115.71 122.25
  Q 115.58 123.26 116.75 123.04
  Q 114.52 127.45 113.91 132.34
  C 113.69 134.08 114.48 136.30 113.89 138.52
  A 1.45 1.41 -49.5 0 0 113.95 139.45
  Q 115.21 142.38 113.78 144.90
  C 110.28 138.13 111.85 128.28 115.71 122.25
  Z"
/>
<path fill="#443003" d="
  M 517.23 130.53
  C 503.14 119.74 484.33 123.19 476.29 139.25
  Q 475.16 138.39 475.21 137.00
  L 476.29 134.75
  Q 485.77 121.05 502.75 122.44
  Q 511.98 123.20 517.23 130.53
  Z"
/>
<path fill="#483303" d="
  M 91.01 125.90
  Q 79.16 123.95 70.50 125.25
  C 64.43 126.16 66.11 139.55 65.86 144.32
  C 65.42 152.91 66.24 161.73 65.94 170.50
  C 65.36 187.56 50.81 184.85 39.00 184.71
  L 39.50 182.79
  C 48.55 182.89 63.43 185.49 63.52 171.49
  Q 63.64 152.12 63.75 132.75
  C 63.78 126.54 66.71 123.78 72.84 123.00
  C 75.71 122.64 91.35 121.74 91.01 125.90
  Z"
/>
<path fill="#786c08" d="
  M 38.50 122.96
  L 38.75 123.04
  Q 38.62 124.25 37.75 124.96
  Q 29.52 124.40 22.50 128.54
  L 20.75 127.46
  L 23.25 126.04
  Q 30.39 122.41 38.50 122.96
  Z"
/>
<path fill="#3f2c03" d="
  M 189.96 125.75
  Q 186.32 123.85 184.81 128.06
  Q 176.36 151.66 167.98 175.28
  Q 166.26 180.13 164.27 181.96
  C 159.09 186.74 145.23 185.41 137.75 185.21
  Q 138.19 184.43 138.25 183.54
  L 139.00 183.46
  L 147.75 183.46
  C 155.36 184.22 163.09 183.35 165.78 175.45
  Q 179.30 135.68 183.56 126.06
  Q 185.80 121.02 190.05 124.25
  A 0.80 0.69 28.7 0 1 190.35 125.06
  Q 190.23 125.43 189.96 125.75
  Z"
/>
<path fill="#755506" d="
  M 229.21 125.25
  L 210.19 124.64
  Q 212.78 122.66 216.50 123.25
  Q 218.50 123.57 228.49 123.03
  A 1.24 0.86 -16.6 0 1 229.37 123.32
  Q 230.16 124.17 229.21 125.25
  Z"
/>
<path fill="#755506" d="
  M 551.46 123.25
  L 551.50 123.46
  Q 550.76 123.45 550.75 124.00
  Q 550.02 160.95 550.50 168.00
  C 550.93 174.33 549.75 181.02 542.94 182.94
  Q 538.36 184.23 534.44 182.78
  Q 536.09 181.37 537.75 181.46
  C 546.57 182.14 548.21 176.81 548.32 169.10
  Q 548.58 151.69 548.50 126.25
  Q 548.49 123.41 551.46 123.25
  Z"
/>
<path fill="#8b6605" d="
  M 15.25 124.04
  L 16.31 126.20
  A 0.97 0.64 -44.7 0 1 16.13 127.07
  Q 14.51 129.28 17.25 130.04
  Q 3.45 143.57 11.81 161.69
  Q 13.48 165.29 16.46 166.50
  L 18.54 168.50
  C 15.58 169.04 16.37 174.04 16.63 176.32
  A 1.16 0.83 -83.0 0 0 17.07 177.13
  L 22.00 180.21
  Q 23.13 180.93 24.46 181.00
  Q 31.38 183.48 38.75 182.71
  L 39.50 182.79
  L 39.00 184.71
  Q 14.78 185.39 4.04 164.25
  Q 6.53 164.40 5.06 162.19
  Q 4.33 161.09 3.18 156.28
  C 0.30 144.18 5.95 131.76 15.25 124.04
  Z"
/>
<path fill="#726904" fill-opacity="0.996" d="
  M 139.75 124.21
  L 140.00 124.29
  L 139.50 125.71
  C 134.00 125.78 123.24 123.59 122.35 131.48
  C 121.98 134.71 120.97 138.37 123.50 139.71
  Q 123.12 139.80 122.75 139.71
  C 118.72 139.20 120.29 130.97 121.00 129.00
  Q 121.93 126.42 124.40 124.81
  Q 132.14 123.88 139.75 124.21
  Z"
/>
<path fill="#f9fa7d" d="
  M 474.25 124.71
  Q 475.36 124.64 475.29 125.75
  Q 472.40 128.65 470.46 132.25
  Q 463.78 143.52 466.25 156.75
  Q 466.57 158.46 464.71 158.50
  Q 460.33 138.84 474.25 124.71
  Z"
/>
<path fill="#f8c111" d="
  M 476.40 124.96
  Q 475.49 129.86 476.29 134.75
  L 475.21 137.00
  Q 472.81 141.48 471.79 146.50
  C 469.89 141.63 471.39 137.05 470.46 132.25
  Q 472.40 128.65 475.29 125.75
  L 476.40 124.96
  Z"
/>
<path fill="#fefc49" d="
  M 554.96 125.75
  C 560.67 140.22 565.29 154.85 570.13 167.47
  A 0.58 0.56 71.5 0 0 570.80 167.82
  Q 574.70 166.70 575.21 162.50
  L 579.39 173.23
  A 0.63 0.61 74.0 0 0 580.06 173.62
  Q 580.73 173.51 580.95 173.32
  L 583.54 174.24
  Q 582.02 175.77 585.23 175.86
  C 580.43 176.45 581.52 179.88 583.04 182.75
  C 580.67 183.00 576.93 181.21 575.25 181.79
  Q 572.54 179.19 570.50 173.75
  Q 561.64 150.11 553.25 126.29
  Q 553.96 124.51 554.96 125.75
  Z"
/>
<path fill="#a5862e" d="
  M 198.96 143.25
  Q 198.40 142.02 197.29 143.00
  L 191.29 127.75
  C 192.48 124.45 193.13 127.30 193.57 128.23
  Q 196.95 135.49 198.96 143.25
  Z"
/>
<path fill="#f7ed73" d="
  M 230.55 178.26
  L 230.29 127.50
  Q 230.87 127.11 231.50 127.15
  A 0.62 0.54 -89.1 0 1 232.01 127.75
  Q 232.55 151.72 232.07 175.69
  Q 232.07 175.81 232.28 176.64
  Q 232.52 177.64 230.55 178.26
  Z"
/>
<path fill="#3f2c03" d="
  M 20.75 127.46
  L 22.50 128.54
  C 9.15 136.92 6.87 154.33 16.46 166.50
  Q 13.48 165.29 11.81 161.69
  Q 3.45 143.57 17.25 130.04
  L 20.75 127.46
  Z"
/>
<path fill="#c0a968" d="
  M 68.79 154.75
  C 64.86 144.03 74.29 138.86 83.51 139.64
  Q 95.40 140.64 93.78 129.22
  Q 93.66 128.37 94.63 128.81
  C 96.07 129.45 96.33 133.18 96.00 134.00
  C 90.85 146.87 80.24 137.49 72.62 144.08
  C 69.76 146.55 69.07 150.61 70.55 154.46
  Q 71.22 156.23 68.79 154.75
  Z"
/>
<path fill="#fffc1c" d="
  M 470.46 132.25
  C 471.39 137.05 469.89 141.63 471.79 146.50
  L 471.79 152.50
  C 469.97 156.99 470.90 160.91 470.75 165.50
  Q 470.72 166.38 470.75 166.75
  C 470.85 168.02 472.78 171.86 471.00 172.04
  Q 466.41 165.94 464.71 158.50
  Q 466.57 158.46 466.25 156.75
  Q 463.78 143.52 470.46 132.25
  Z"
/>
<path fill="#a5862e" d="
  M 527.70 152.04
  Q 527.76 149.47 526.21 148.04
  A 0.32 0.25 32.7 0 0 525.73 148.09
  Q 525.67 148.26 525.71 148.50
  Q 525.20 140.30 519.96 134.00
  Q 520.02 132.79 520.96 132.43
  A 0.78 0.65 57.8 0 1 521.76 132.69
  Q 528.65 140.96 527.70 152.04
  Z"
/>
<path fill="#755506" d="
  M 475.21 137.00
  Q 475.16 138.39 476.29 139.25
  Q 470.21 154.28 480.25 166.71
  Q 477.86 166.04 476.32 164.00
  Q 473.16 158.64 471.79 152.50
  L 471.79 146.50
  Q 472.81 141.48 475.21 137.00
  Z"
/>
<path fill="#fffc1c" d="
  M 122.75 139.71
  Q 123.12 139.80 123.50 139.71
  L 123.75 139.79
  Q 122.77 141.01 123.49 142.06
  A 0.96 0.90 -18.3 0 0 124.31 142.44
  L 139.29 141.47
  L 138.53 144.75
  A 1.45 0.47 60.3 0 0 138.73 145.70
  Q 139.42 147.29 138.00 148.46
  L 120.58 148.19
  C 119.76 145.81 118.74 139.60 122.75 139.71
  Z"
/>
<path fill="#f9f459" d="
  M 123.75 139.79
  C 131.65 140.40 139.12 139.69 147.04 141.00
  L 146.71 141.79
  A 0.82 0.82 9.8 0 1 146.00 142.29
  Q 142.63 142.52 139.29 141.47
  L 124.31 142.44
  A 0.96 0.90 -18.3 0 1 123.49 142.06
  Q 122.77 141.01 123.75 139.79
  Z"
/>
<path fill="#956c0d" d="
  M 147.04 141.00
  Q 148.81 141.51 149.95 142.77
  Q 152.28 147.24 152.00 150.75
  Q 151.14 161.76 139.75 160.46
  L 140.44 154.59
  Q 143.93 154.79 145.67 152.36
  A 1.39 1.30 -32.3 0 0 145.91 151.43
  Q 145.74 149.73 144.21 151.00
  Q 143.73 150.47 143.00 150.46
  Q 142.58 149.67 143.06 149.12
  Q 143.39 148.75 142.95 148.73
  L 138.00 148.46
  Q 139.42 147.29 138.73 145.70
  A 1.45 0.47 60.3 0 1 138.53 144.75
  L 139.29 141.47
  Q 142.63 142.52 146.00 142.29
  A 0.82 0.82 9.8 0 0 146.71 141.79
  L 147.04 141.00
  Z"
/>
<path fill="#c0a968" d="
  M 198.96 143.25
  C 200.96 149.87 192.34 148.36 188.94 148.62
  Q 179.05 149.37 179.46 159.84
  C 179.51 160.96 180.78 162.32 178.54 162.25
  C 176.41 157.87 178.03 152.91 181.44 149.85
  C 185.03 146.63 189.46 146.62 194.19 147.06
  Q 198.42 147.45 197.29 143.00
  Q 198.40 142.02 198.96 143.25
  Z"
/>
<path fill="#483303" d="
  M 149.95 142.77
  C 160.96 152.71 150.13 164.27 138.25 162.46
  Q 138.30 161.32 139.00 160.54
  L 139.75 160.46
  Q 151.14 161.76 152.00 150.75
  Q 152.28 147.24 149.95 142.77
  Z"
/>
<path fill="#a98c39" d="
  M 414.50 144.29
  C 420.83 145.87 426.00 143.78 432.54 146.75
  L 432.53 148.21
  A 0.49 0.44 14.1 0 1 431.84 148.58
  C 426.94 146.27 421.38 146.78 416.02 146.54
  C 414.86 146.48 412.55 145.85 414.50 144.29
  Z"
/>
<path fill="#3f2c03" d="
  M 361.54 144.50
  L 363.50 144.54
  Q 356.25 169.72 348.50 194.75
  Q 346.28 201.92 345.25 203.57
  Q 338.51 214.41 326.68 208.43
  C 328.38 207.16 328.89 208.17 330.41 208.47
  C 339.88 210.30 343.88 203.80 346.20 195.85
  Q 352.66 173.63 359.46 151.50
  L 361.54 144.50
  Z"
/>
<path fill="#807a04" fill-opacity="0.996" d="
  M 114.75 146.79
  L 118.50 147.71
  L 120.58 148.19
  L 138.00 148.46
  L 142.95 148.73
  Q 143.39 148.75 143.06 149.12
  Q 142.58 149.67 143.00 150.46
  C 135.27 150.52 120.64 152.49 114.75 146.79
  Z"
/>
<path fill="#443003" d="
  M 434.36 147.87
  C 448.96 156.48 446.79 176.68 431.50 182.90
  Q 428.35 184.18 423.17 184.22
  Q 410.34 184.30 397.50 184.30
  Q 396.20 184.30 397.04 183.25
  L 398.96 182.50
  Q 409.98 182.50 421.00 182.50
  C 432.63 182.50 442.30 176.02 441.94 163.69
  Q 441.67 154.14 434.36 147.87
  Z"
/>
<path fill="#c2af74" d="
  M 527.70 152.04
  Q 524.63 172.35 504.80 177.00
  Q 499.80 178.17 494.92 176.71
  A 0.44 0.40 22.8 0 1 494.64 176.11
  Q 494.94 175.61 495.50 175.29
  C 512.26 178.09 526.30 165.32 525.71 148.50
  Q 525.67 148.26 525.73 148.09
  A 0.32 0.25 32.7 0 1 526.21 148.04
  Q 527.76 149.47 527.70 152.04
  Z"
/>
<path fill="#483303" d="
  M 428.96 155.75
  Q 424.42 154.00 419.50 154.46
  Q 410.60 155.29 403.75 149.79
  Q 404.98 149.05 406.56 150.19
  C 411.04 153.41 418.91 152.36 424.24 152.69
  C 425.63 152.77 429.84 153.80 428.96 155.75
  Z"
/>
<path fill="#a98c39" d="
  M 83.28 150.01
  Q 83.07 151.82 85.00 151.50
  Q 87.46 151.09 92.00 152.54
  C 92.05 155.00 90.48 154.10 89.13 153.91
  C 86.02 153.45 80.97 154.09 78.95 153.24
  A 0.35 0.32 -52.6 0 1 78.90 152.68
  Q 80.61 151.21 78.00 150.71
  C 77.88 149.00 82.38 149.76 83.28 150.01
  Z"
/>
<path fill="#feff61" d="
  M 140.44 154.59
  L 121.46 154.75
  L 118.54 155.50
  Q 118.40 154.62 118.75 153.79
  C 124.81 151.20 136.35 152.50 143.24 152.50
  A 1.08 0.73 10.2 0 0 144.08 152.13
  Q 144.37 151.65 144.21 151.00
  Q 145.74 149.73 145.91 151.43
  A 1.39 1.30 -32.3 0 1 145.67 152.36
  Q 143.93 154.79 140.44 154.59
  Z"
/>
<path fill="#f8c111" d="
  M 471.79 152.50
  Q 473.16 158.64 476.32 164.00
  Q 475.67 170.59 476.00 173.50
  Q 476.26 175.73 474.00 175.29
  L 471.00 172.04
  C 472.78 171.86 470.85 168.02 470.75 166.75
  Q 470.72 166.38 470.75 165.50
  C 470.90 160.91 469.97 156.99 471.79 152.50
  Z"
/>
<path fill="#c2af74" d="
  M 118.75 153.79
  Q 118.40 154.62 118.54 155.50
  Q 118.48 155.73 118.25 155.79
  C 112.75 158.79 113.38 168.80 114.62 173.97
  C 114.87 175.01 114.48 175.40 113.50 175.54
  C 110.77 168.92 110.50 157.02 118.75 153.79
  Z"
/>
<path fill="#fffc1c" d="
  M 140.44 154.59
  L 139.75 160.46
  L 139.00 160.54
  Q 131.09 160.09 123.25 161.04
  C 121.28 160.69 122.20 156.75 121.46 154.75
  L 140.44 154.59
  Z"
/>
<path fill="#f5b70e" d="
  M 121.46 154.75
  C 122.20 156.75 121.28 160.69 123.25 161.04
  C 118.47 163.55 119.55 170.26 122.29 173.75
  Q 120.73 177.70 121.21 182.00
  Q 117.03 180.62 117.87 175.23
  Q 118.29 172.52 117.48 169.91
  Q 116.67 167.34 118.49 162.90
  A 1.27 1.18 47.3 0 0 118.49 161.97
  Q 117.32 159.00 118.25 155.79
  Q 118.48 155.73 118.54 155.50
  L 121.46 154.75
  Z"
/>
<path fill="#483303" d="
  M 69.33 155.67
  Q 74.50 158.73 75.75 158.75
  C 80.56 158.84 90.58 158.64 91.04 162.52
  Q 85.92 160.84 79.00 161.00
  Q 72.83 161.14 69.33 155.67
  Z"
/>
<path fill="#b98804" d="
  M 118.25 155.79
  Q 117.32 159.00 118.49 161.97
  A 1.27 1.18 47.3 0 1 118.49 162.90
  Q 116.67 167.34 117.48 169.91
  Q 118.29 172.52 117.87 175.23
  Q 117.03 180.62 121.21 182.00
  L 122.29 182.50
  Q 122.00 183.53 121.00 183.54
  Q 115.29 181.37 113.50 175.54
  C 114.48 175.40 114.87 175.01 114.62 173.97
  C 113.38 168.80 112.75 158.79 118.25 155.79
  Z"
/>
<path fill="#443003" d="
  M 97.85 156.07
  C 103.05 160.04 103.62 167.20 103.71 173.40
  Q 101.33 174.30 101.40 171.59
  Q 101.45 169.52 101.44 169.41
  Q 100.96 162.41 97.85 156.07
  Z"
/>
<path fill="#b3994d" d="
  M 197.50 158.54
  L 204.06 158.58
  L 207.00 159.29
  Q 206.59 159.88 206.71 160.50
  L 190.07 160.70
  A 1.19 1.05 -18.0 0 1 189.21 160.33
  Q 188.32 159.24 190.00 158.79
  L 197.50 158.54
  Z"
/>
<path fill="#eea71d" d="
  M 207.00 159.29
  Q 211.48 159.15 213.47 162.49
  Q 214.52 167.93 217.31 173.44
  Q 218.04 174.88 219.25 173.96
  L 225.39 175.68
  C 222.72 177.29 223.50 179.74 223.50 182.21
  A 1.00 1.00 -0.6 0 1 222.52 183.21
  Q 220.25 183.27 218.67 183.24
  C 216.94 183.20 215.36 182.16 213.25 182.79
  Q 209.79 180.01 209.21 175.77
  Q 210.29 168.54 209.03 161.31
  A 0.78 0.54 3.7 0 0 208.43 160.83
  L 206.71 160.50
  Q 206.59 159.88 207.00 159.29
  Z"
/>
<path fill="#b3994d" d="
  M 398.96 182.50
  L 397.04 183.25
  L 397.20 175.91
  A 1.90 1.69 0.5 0 1 399.10 174.25
  Q 412.21 174.25 424.77 174.25
  C 432.50 174.25 435.39 167.17 433.46 160.25
  C 434.48 157.75 435.38 159.92 435.55 160.95
  C 437.39 172.18 430.34 176.49 420.63 176.53
  Q 410.10 176.58 399.57 176.33
  A 0.50 0.50 1.7 0 0 399.05 176.82
  L 398.96 182.50
  Z"
/>
<path fill="#786c08" d="
  M 139.00 160.54
  Q 138.30 161.32 138.25 162.46
  Q 132.08 162.52 125.91 162.51
  C 120.10 162.49 121.32 170.96 124.00 173.50
  L 122.29 173.75
  C 119.55 170.26 118.47 163.55 123.25 161.04
  Q 131.09 160.09 139.00 160.54
  Z"
/>
<path fill="#8b6605" d="
  M 213.47 162.49
  C 216.73 166.24 216.65 170.40 219.25 173.96
  Q 218.04 174.88 217.31 173.44
  Q 214.52 167.93 213.47 162.49
  Z"
/>
<path fill="#b19a55" d="
  M 95.46 178.75
  C 93.05 174.16 94.09 169.58 93.21 165.50
  C 94.91 164.22 95.25 166.08 95.24 167.27
  Q 95.20 172.97 96.50 177.25
  Q 96.92 178.62 95.46 178.75
  Z"
/>
<path fill="#483303" d="
  M 205.47 168.40
  Q 198.78 168.70 192.49 168.58
  C 187.05 168.48 184.41 168.81 181.01 165.66
  Q 187.29 167.16 191.25 166.75
  Q 199.54 165.88 205.47 168.40
  Z"
/>
<path fill="#a97c0e" d="
  M 18.54 168.50
  L 21.98 170.91
  L 22.00 180.21
  L 17.07 177.13
  A 1.16 0.83 -83.0 0 1 16.63 176.32
  C 16.37 174.04 15.58 169.04 18.54 168.50
  Z"
/>
<path fill="#f8c111" d="
  M 21.98 170.91
  L 25.75 172.71
  C 23.43 172.87 24.90 174.02 25.19 175.13
  Q 26.00 178.14 24.46 181.00
  Q 23.13 180.93 22.00 180.21
  L 21.98 170.91
  Z"
/>
<path fill="#fffc1c" d="
  M 25.75 172.71
  Q 31.24 175.11 37.25 174.79
  Q 38.38 176.71 40.50 176.96
  C 37.91 176.59 39.14 180.34 38.75 182.71
  Q 31.38 183.48 24.46 181.00
  Q 26.00 178.14 25.19 175.13
  C 24.90 174.02 23.43 172.87 25.75 172.71
  Z"
/>
<path fill="#fffc1c" d="
  M 124.00 173.50
  Q 123.76 173.75 123.70 174.00
  A 0.62 0.41 10.2 0 0 124.26 174.54
  Q 125.49 174.71 126.09 175.74
  A 1.33 0.96 75.4 0 0 126.79 176.32
  Q 129.38 177.00 132.02 176.79
  C 134.83 176.56 137.32 177.45 140.25 176.46
  L 140.50 176.54
  Q 139.21 178.02 139.95 179.62
  A 1.88 0.96 51.3 0 1 140.14 180.55
  Q 139.93 182.14 139.00 183.46
  L 138.25 183.54
  Q 130.20 183.87 122.29 182.50
  L 121.21 182.00
  Q 120.73 177.70 122.29 173.75
  L 124.00 173.50
  Z"
/>
<path fill="#f9f459" d="
  M 124.00 173.50
  C 127.96 175.75 134.28 175.09 138.75 175.04
  Q 139.85 175.38 140.25 176.46
  C 137.32 177.45 134.83 176.56 132.02 176.79
  Q 129.38 177.00 126.79 176.32
  A 1.33 0.96 75.4 0 1 126.09 175.74
  Q 125.49 174.71 124.26 174.54
  A 0.62 0.41 10.2 0 1 123.70 174.00
  Q 123.76 173.75 124.00 173.50
  Z"
/>
<path fill="#a5862e" d="
  M 537.54 175.00
  L 537.75 181.46
  Q 536.09 181.37 534.44 182.78
  L 534.54 175.25
  L 537.54 175.00
  Z"
/>
<path fill="#443003" d="
  M 109.32 175.08
  L 109.25 182.24
  A 1.85 1.80 86.4 0 1 107.71 184.04
  Q 102.12 184.85 98.75 182.54
  C 99.44 181.72 103.67 182.51 105.20 182.49
  A 1.82 1.82 -0.3 0 0 107.00 180.67
  Q 107.00 179.37 107.00 177.25
  Q 107.00 175.51 109.32 175.08
  Z"
/>
<path fill="#755506" d="
  M 225.39 175.68
  L 225.26 184.43
  A 0.68 0.61 -5.2 0 1 224.70 185.03
  Q 218.52 186.16 213.25 182.79
  C 215.36 182.16 216.94 183.20 218.67 183.24
  Q 220.25 183.27 222.52 183.21
  A 1.00 1.00 -0.6 0 0 223.50 182.21
  C 223.50 179.74 222.72 177.29 225.39 175.68
  Z"
/>
<path fill="#a97c0e" d="
  M 140.50 176.54
  L 149.25 177.21
  Q 148.34 177.37 147.67 177.95
  A 0.75 0.66 58.5 0 0 147.53 178.77
  Q 148.49 181.01 147.75 183.46
  L 139.00 183.46
  Q 139.93 182.14 140.14 180.55
  A 1.88 0.96 51.3 0 0 139.95 179.62
  Q 139.21 178.02 140.50 176.54
  Z"
/>
<path fill="#7e730f" d="
  M 122.29 182.50
  Q 130.20 183.87 138.25 183.54
  Q 138.19 184.43 137.75 185.21
  Q 129.19 185.98 121.00 183.54
  Q 122.00 183.53 122.29 182.50
  Z"
/>
</svg>
