<?xml version="1.0" encoding="UTF-8" standalone="no"?>
<!DOCTYPE svg PUBLIC "-//W3C//DTD SVG 1.1//EN" "http://www.w3.org/Graphics/SVG/1.1/DTD/svg11.dtd">
<svg xmlns="http://www.w3.org/2000/svg" version="1.1" viewBox="0 0 600 300">
<path fill="#000000" d="
  M 323.22 132.20
  C 332.57 130.21 344.75 127.11 350.23 118.50
  C 356.84 108.12 336.29 108.47 329.14 107.73
  Q 323.08 107.10 320.21 105.44
  C 306.65 97.62 317.13 76.13 324.17 67.19
  Q 330.27 59.45 338.06 51.83
  A 0.45 0.45 -32.1 0 1 338.80 52.00
  L 344.58 67.53
  A 0.78 0.77 57.9 0 1 344.40 68.36
  Q 342.86 69.87 339.69 71.94
  C 333.52 75.96 316.31 88.16 322.71 97.10
  C 329.46 106.53 356.71 95.16 358.04 110.52
  Q 360.51 139.08 334.31 147.90
  A 1.72 1.70 -27.0 0 1 332.39 147.29
  L 322.57 133.90
  A 1.08 1.08 -24.1 0 1 323.22 132.20
  Z"
/>
<path fill="#000000" d="
  M 479.83 113.08
  L 504.32 100.81
  A 0.99 0.97 77.6 0 1 505.73 101.73
  L 505.50 111.26
  A 1.08 0.98 81.1 0 1 504.88 112.21
  L 473.45 124.67
  A 1.29 1.26 72.3 0 1 471.75 123.77
  L 467.93 107.77
  Q 467.63 106.50 467.94 105.33
  Q 472.10 89.78 462.32 79.15
  Q 461.39 78.14 461.10 76.96
  L 459.75 71.49
  A 1.50 1.46 -19.1 0 1 460.60 69.80
  L 489.76 56.74
  A 1.11 1.05 71.9 0 1 491.22 57.53
  L 493.48 67.22
  Q 493.94 69.20 492.06 69.73
  L 471.19 75.62
  Q 469.34 76.14 469.78 78.05
  L 472.25 88.77
  Q 472.72 90.77 474.66 90.11
  Q 482.00 87.63 489.49 84.88
  Q 491.36 84.19 491.82 86.20
  Q 492.19 87.86 493.26 89.18
  C 494.39 90.58 493.18 91.74 491.82 92.28
  Q 484.04 95.35 476.37 98.54
  Q 474.65 99.25 475.09 101.04
  L 477.79 112.12
  A 1.45 1.43 69.9 0 0 479.83 113.08
  Z"
/>
<path fill="#000000" d="
  M 553.55 107.32
  A 1.34 1.33 -38.0 0 0 553.31 109.24
  C 558.84 115.99 559.14 124.59 559.00 132.93
  A 1.16 1.14 8.5 0 1 557.52 134.01
  L 550.97 132.12
  Q 548.71 131.47 549.26 129.26
  Q 551.87 118.78 544.56 111.90
  A 1.25 1.16 -23.0 0 0 543.68 111.58
  Q 531.66 112.08 522.69 107.06
  C 518.67 104.81 518.82 107.19 518.39 109.98
  Q 517.24 117.45 516.19 124.95
  A 1.46 1.42 -81.5 0 1 514.56 126.19
  L 510.08 125.51
  A 1.29 1.27 -85.5 0 1 508.99 124.21
  L 509.74 71.48
  A 1.36 1.35 5.9 0 1 511.36 70.17
  C 513.91 70.67 522.36 71.54 523.67 73.22
  A 1.49 1.49 63.0 0 0 525.26 73.74
  C 539.47 69.79 558.84 71.76 561.53 89.81
  Q 563.09 100.27 553.55 107.32
  Z
  M 522.65 83.55
  A 2.01 1.93 -13.2 0 0 521.75 84.94
  L 520.31 94.97
  A 2.51 2.38 23.5 0 0 521.28 97.25
  C 529.27 103.33 542.44 107.15 550.79 100.12
  C 558.80 93.39 553.12 83.99 545.08 81.15
  Q 533.03 76.89 522.65 83.55
  Z"
/>
<path fill="#000000" d="
  M 414.18 74.92
  A 0.90 0.89 5.0 0 1 415.23 74.05
  C 420.38 74.89 424.27 75.08 428.81 77.52
  A 1.22 1.13 -38.5 0 0 429.73 77.59
  C 443.32 73.14 462.23 75.72 465.64 92.27
  Q 467.83 102.90 459.68 109.66
  C 449.03 118.48 437.06 116.03 425.69 110.31
  Q 423.33 109.13 422.98 111.69
  L 421.03 125.94
  A 1.60 1.47 -80.7 0 1 419.27 127.32
  L 414.84 126.48
  A 1.40 1.33 -84.6 0 1 413.76 125.10
  L 414.18 74.92
  Z
  M 426.20 88.38
  Q 424.94 94.00 424.82 99.69
  A 1.05 1.04 -69.5 0 0 425.19 100.51
  Q 433.32 107.54 444.25 107.70
  C 461.66 107.97 464.02 88.09 446.96 84.23
  Q 436.59 81.88 427.45 86.74
  A 2.48 2.46 82.5 0 0 426.20 88.38
  Z"
/>
<path fill="#000000" d="
  M 395.24 80.22
  L 400.94 77.61
  A 1.20 1.09 71.0 0 1 402.49 78.46
  Q 405.72 91.42 408.71 104.42
  Q 410.45 111.99 410.24 115.32
  C 408.85 137.12 374.32 137.92 368.54 118.62
  Q 363.47 101.68 358.13 83.19
  A 1.30 1.27 73.2 0 1 358.96 81.59
  L 365.07 79.69
  A 1.54 1.49 75.0 0 1 366.98 80.83
  Q 370.55 96.47 373.70 111.24
  Q 374.76 116.19 376.15 118.45
  C 381.05 126.40 392.33 127.19 398.94 121.44
  C 405.04 116.12 402.76 111.02 400.60 102.83
  Q 397.83 92.30 394.83 81.37
  A 1.03 0.83 70.7 0 1 395.24 80.22
  Z"
/>
<path fill="#000000" d="
  M 232.57 145.46
  Q 234.01 146.93 232.19 147.90
  C 223.66 152.43 215.51 156.69 209.25 164.05
  Q 207.60 165.99 207.00 163.51
  Q 203.39 148.55 193.01 138.72
  Q 190.76 136.59 193.72 135.67
  Q 216.23 128.70 232.57 145.46
  Z"
/>
<path fill="#000000" d="
  M 68.78 180.42
  C 92.25 155.35 120.06 132.06 156.76 134.11
  C 210.46 137.10 195.09 210.41 184.59 240.99
  A 2.20 2.14 -80.3 0 1 182.55 242.47
  L 162.74 242.51
  Q 160.33 242.51 161.25 240.26
  C 167.70 224.36 171.64 206.42 171.41 189.49
  C 171.29 181.20 167.62 173.67 158.48 173.87
  C 135.76 174.37 108.42 223.55 99.43 241.45
  A 1.91 1.90 -76.5 0 1 97.73 242.50
  Q 61.54 242.38 25.10 242.74
  C 18.40 242.81 20.07 241.66 22.67 237.86
  Q 43.55 207.35 68.78 180.42
  Z"
/>
<path fill="#000000" d="
  M 243.58 239.46
  C 226.42 234.37 209.66 227.60 206.24 207.65
  C 202.53 186.06 214.00 170.07 232.96 160.73
  C 264.30 145.29 295.15 149.60 323.27 169.54
  Q 324.94 170.73 323.57 172.14
  L 317.54 178.33
  Q 316.40 179.50 314.65 179.20
  C 296.54 176.06 269.69 173.81 258.56 192.56
  C 252.31 203.10 262.42 215.16 272.49 217.70
  C 283.02 220.36 299.68 216.06 310.08 212.31
  A 1.48 1.47 -16.8 0 1 312.02 213.34
  L 315.16 225.94
  A 2.17 2.16 -20.3 0 1 314.02 228.40
  C 297.98 236.38 279.07 242.60 261.17 242.43
  Q 253.35 242.35 243.58 239.46
  Z"
/>
<path fill="#000000" d="
  M 437.79 218.28
  A 2.77 2.76 -9.4 0 0 440.05 219.89
  C 443.75 220.23 443.20 220.95 442.43 224.02
  C 441.30 228.52 440.43 237.29 436.16 239.74
  C 425.54 245.83 409.86 245.57 403.13 233.89
  A 1.37 1.37 -31.5 0 0 401.20 233.43
  Q 387.59 242.19 371.50 244.25
  C 349.86 247.02 328.45 234.72 322.55 213.47
  C 319.39 202.09 320.68 191.68 327.19 181.94
  C 335.41 169.62 350.25 159.06 363.25 154.50
  C 378.58 149.13 399.03 151.97 415.02 156.55
  Q 416.99 157.11 417.45 155.12
  Q 417.91 153.15 419.42 151.87
  A 1.50 1.27 20.9 0 1 420.30 151.56
  L 455.02 151.32
  Q 457.29 151.30 456.64 153.47
  Q 447.15 185.11 438.67 215.88
  Q 438.52 216.42 438.17 217.05
  Q 437.65 217.99 437.79 218.28
  Z
  M 376.41 182.66
  C 370.11 189.38 362.55 204.46 369.22 213.15
  C 376.02 222.03 393.49 219.65 400.55 212.81
  Q 401.28 212.11 401.59 211.12
  L 411.32 179.56
  Q 411.90 177.67 410.08 176.94
  C 399.27 172.64 384.51 174.01 376.41 182.66
  Z"
/>
<path fill="#000000" d="
  M 583.53 196.06
  C 582.46 210.95 573.10 228.95 564.65 241.43
  Q 563.74 242.77 562.09 242.75
  L 532.74 242.50
  Q 528.86 242.47 531.07 239.31
  C 541.22 224.74 552.15 200.81 546.50 183.25
  C 541.75 168.49 516.98 175.24 506.50 179.26
  Q 504.89 179.88 504.43 181.54
  L 488.21 240.79
  Q 487.64 242.84 485.51 242.78
  Q 469.49 242.31 454.41 242.25
  C 452.99 242.25 451.11 242.46 449.67 241.91
  A 1.67 1.66 18.7 0 1 448.66 239.88
  Q 461.40 196.71 472.32 154.05
  Q 472.82 152.08 474.84 152.05
  L 508.00 151.50
  Q 512.00 151.43 511.25 153.75
  Q 510.09 157.33 513.95 156.48
  Q 535.64 151.66 556.50 155.00
  Q 577.33 158.34 582.73 177.99
  C 583.95 182.42 585.98 190.94 583.83 195.13
  Q 583.56 195.66 583.53 196.06
  Z"
/>
<path fill="#000000" d="
  M 163.49 217.81
  Q 166.26 219.70 163.30 221.26
  C 152.19 227.12 134.10 225.78 122.40 222.85
  C 117.81 221.70 115.76 219.20 121.66 217.05
  Q 139.46 210.57 158.05 215.31
  Q 160.89 216.04 163.49 217.81
  Z"
/>
</svg>
