<?xml version="1.0" encoding="UTF-8" standalone="no"?>
<!DOCTYPE svg PUBLIC "-//W3C//DTD SVG 1.1//EN" "http://www.w3.org/Graphics/SVG/1.1/DTD/svg11.dtd">
<svg xmlns="http://www.w3.org/2000/svg" version="1.1" viewBox="0 0 600 300">
<path fill="#ffffff" d="
  M 377.85 114.94
  Q 378.30 108.84 377.74 102.59
  A 0.74 0.73 86.4 0 1 378.45 101.78
  L 387.79 101.56
  A 0.70 0.70 -0.4 0 1 388.50 102.26
  L 388.50 139.58
  A 0.51 0.50 -0.0 0 1 387.99 140.08
  L 379.49 140.01
  A 0.98 0.96 10.7 0 1 378.58 138.71
  Q 379.15 137.23 378.30 136.90
  A 0.77 0.58 -59.4 0 0 377.53 137.22
  C 375.99 139.36 374.28 140.25 371.49 140.25
  C 365.37 140.25 348.87 142.01 349.27 131.74
  C 349.44 127.30 348.71 119.95 350.85 116.53
  C 354.21 111.12 365.55 112.75 371.16 112.75
  C 373.93 112.75 375.32 113.64 377.42 115.15
  Q 377.82 115.43 377.85 114.94
  Z
  M 377.9957 123.6529
  A 3.65 3.65 0.0 0 0 374.3267 120.0220
  L 363.6068 120.0782
  A 3.65 3.65 0.0 0 0 359.9760 123.7472
  L 360.0043 129.1471
  A 3.65 3.65 0.0 0 0 363.6733 132.7780
  L 374.3932 132.7218
  A 3.65 3.65 0.0 0 0 378.0240 129.0528
  L 377.9957 123.6529
  Z"
/>
<path fill="#ffffff" d="
  M 19.40 144.95
  C 16.12 162.46 34.62 175.66 49.99 167.12
  A 0.51 0.51 75.4 0 1 50.75 167.57
  L 50.75 185.83
  A 1.18 1.17 83.1 0 1 49.86 186.97
  C 30.67 191.73 11.29 183.01 3.69 164.51
  C -8.84 133.96 17.53 102.63 49.90 111.04
  A 1.14 1.13 -82.8 0 1 50.75 112.14
  L 50.75 130.39
  A 0.36 0.36 -76.1 0 1 50.22 130.71
  C 37.65 124.16 22.09 130.67 19.40 144.95
  Z"
/>
<path fill="#ffffff" d="
  M 122.94 128.57
  L 131.45 128.61
  Q 132.92 133.78 130.23 136.57
  C 126.21 140.76 112.03 139.82 106.73 139.19
  C 94.15 137.68 95.49 132.18 95.17 121.75
  C 94.77 108.72 113.65 111.50 121.25 111.50
  C 127.84 111.50 133.75 114.74 132.76 122.20
  A 0.59 0.57 2.8 0 1 132.19 122.70
  C 129.43 122.77 126.64 122.63 123.91 122.84
  Q 122.07 122.98 122.43 120.83
  A 0.92 0.92 5.0 0 0 121.52 119.75
  Q 115.96 119.75 110.41 119.75
  C 108.46 119.75 105.91 119.30 105.81 122.06
  Q 105.66 126.25 105.77 129.40
  Q 105.86 131.59 108.04 131.69
  C 111.94 131.86 121.43 133.24 122.94 128.57
  Z"
/>
<path fill="#ffffff" d="
  M 175.0179 130.3364
  A 9.04 9.04 0.0 0 1 165.9937 139.3921
  L 145.5537 139.4278
  A 9.04 9.04 0.0 0 1 136.4980 130.4036
  L 136.4821 121.3236
  A 9.04 9.04 0.0 0 1 145.5063 112.2679
  L 165.9463 112.2322
  A 9.04 9.04 0.0 0 1 175.0020 121.2564
  L 175.0179 130.3364
  Z
  M 164.81 123.23
  A 3.96 3.96 0.0 0 0 160.85 119.27
  L 150.75 119.27
  A 3.96 3.96 0.0 0 0 146.79 123.23
  L 146.79 128.27
  A 3.96 3.96 0.0 0 0 150.75 132.23
  L 160.85 132.23
  A 3.96 3.96 0.0 0 0 164.81 128.27
  L 164.81 123.23
  Z"
/>
<path fill="#ffffff" d="
  M 188.78 114.61
  Q 188.87 116.29 190.04 115.09
  C 194.20 110.81 208.74 110.64 211.77 116.06
  A 0.33 0.32 -40.0 0 0 212.31 116.10
  C 214.65 113.17 216.76 112.28 220.74 112.23
  C 228.26 112.14 239.71 112.25 239.47 123.00
  Q 239.30 130.60 239.20 138.20
  A 0.52 0.49 -0.0 0 1 238.69 138.68
  L 229.46 138.92
  A 0.94 0.91 -0.6 0 1 228.50 138.01
  Q 228.50 131.12 228.55 124.25
  Q 228.58 120.17 224.25 120.00
  C 217.86 119.74 214.00 119.22 214.00 126.93
  Q 214.00 132.19 214.00 137.90
  A 0.81 0.80 89.6 0 1 213.21 138.71
  L 204.43 138.82
  A 0.54 0.52 88.2 0 1 203.91 138.31
  Q 203.47 128.83 203.75 125.25
  C 204.07 121.21 202.32 120.00 198.45 120.00
  C 193.75 120.00 188.43 119.64 189.50 126.50
  Q 189.84 128.69 189.34 138.31
  A 0.53 0.51 -87.7 0 1 188.82 138.81
  L 179.32 138.70
  A 0.52 0.50 0.6 0 1 178.81 138.20
  L 178.75 113.27
  A 0.52 0.52 -0.0 0 1 179.27 112.75
  L 188.19 112.80
  A 0.52 0.52 88.9 0 1 188.71 113.30
  L 188.78 114.61
  Z"
/>
<path fill="#ffffff" d="
  M 276.83 116.01
  C 281.11 109.47 297.20 111.45 301.78 116.83
  Q 303.50 118.86 303.50 121.51
  L 303.50 138.24
  A 0.70 0.69 0.8 0 1 302.78 138.93
  L 293.31 138.69
  A 0.53 0.52 0.6 0 1 292.80 138.18
  Q 292.61 127.28 292.75 125.25
  C 293.15 119.47 288.84 119.52 284.50 119.79
  C 280.09 120.05 277.53 122.09 278.25 126.75
  Q 278.59 128.95 278.09 138.32
  A 0.53 0.52 -88.2 0 1 277.57 138.82
  L 268.44 138.82
  A 0.54 0.53 88.3 0 1 267.91 138.31
  Q 267.44 128.00 267.75 125.00
  C 268.16 121.06 266.55 119.99 262.83 119.99
  C 259.08 119.98 253.89 119.12 253.82 124.75
  Q 253.75 130.87 253.75 137.89
  A 0.86 0.86 0.0 0 1 252.89 138.75
  L 243.66 138.75
  A 0.66 0.66 0.0 0 1 243.00 138.09
  L 243.00 113.40
  A 0.62 0.59 -89.5 0 1 243.60 112.78
  L 252.32 112.90
  A 0.52 0.47 -88.3 0 1 252.78 113.44
  Q 252.63 116.95 255.56 114.06
  C 258.30 111.36 264.85 112.25 268.50 112.27
  Q 273.38 112.30 276.26 116.03
  A 0.35 0.35 42.9 0 0 276.83 116.01
  Z"
/>
<path fill="#ffffff" d="
  M 308.61 117.07
  C 314.15 110.55 326.37 112.75 334.00 112.75
  C 347.80 112.75 345.59 121.47 345.86 131.00
  C 346.21 143.26 325.75 140.00 318.75 140.00
  C 304.53 140.00 307.50 129.13 307.50 120.10
  Q 307.50 118.38 308.61 117.07
  Z
  M 335.7557 123.6228
  A 3.66 3.66 0.0 0 0 332.0766 119.9820
  L 321.3567 120.0382
  A 3.66 3.66 0.0 0 0 317.7159 123.7173
  L 317.7443 129.1372
  A 3.66 3.66 0.0 0 0 321.4234 132.7780
  L 332.1433 132.7218
  A 3.66 3.66 0.0 0 0 335.7841 129.0427
  L 335.7557 123.6228
  Z"
/>
<path fill="#ffffff" d="
  M 445.68 115.99
  C 448.09 111.95 453.56 112.54 457.81 112.77
  C 465.09 113.17 466.36 116.54 466.19 123.39
  A 1.86 1.86 88.3 0 1 464.49 125.20
  C 462.61 125.36 460.23 125.20 457.83 125.34
  Q 455.98 125.46 456.17 123.49
  A 2.00 1.08 -68.1 0 0 456.06 122.54
  C 454.70 119.61 451.38 120.26 448.80 120.89
  C 442.78 122.36 444.76 134.53 444.81 139.31
  A 0.55 0.53 87.8 0 1 444.32 139.86
  Q 439.55 140.33 434.80 139.75
  A 0.58 0.54 -86.6 0 1 434.33 139.18
  L 434.25 113.73
  A 0.42 0.39 -90.0 0 1 434.64 113.31
  L 443.26 113.26
  A 1.14 1.11 -85.2 0 1 444.36 114.59
  Q 444.06 116.35 444.94 116.47
  A 0.92 0.60 -66.2 0 0 445.68 115.99
  Z"
/>
<path fill="#ffffff" d="
  M 481.01 129.81
  Q 480.60 134.68 485.29 134.39
  C 488.16 134.22 495.31 135.14 496.98 132.83
  A 1.48 1.38 16.4 0 1 498.13 132.25
  L 506.66 132.17
  A 0.87 0.86 5.1 0 1 507.53 133.19
  C 506.48 138.71 501.41 140.63 496.50 140.69
  C 488.22 140.78 478.91 142.40 472.05 136.68
  Q 470.04 135.00 470.00 132.37
  C 469.94 128.03 469.43 121.07 471.47 117.58
  C 475.59 110.51 488.77 112.71 496.50 113.25
  C 506.44 113.94 508.16 120.13 507.36 128.57
  A 0.56 0.55 -87.1 0 1 506.81 129.07
  L 481.56 129.31
  A 0.56 0.54 1.7 0 0 481.01 129.81
  Z
  M 481.31 120.74
  Q 479.70 123.32 482.25 123.30
  Q 489.12 123.25 495.75 123.25
  A 1.32 1.32 -9.4 0 0 497.00 121.51
  C 495.83 118.01 487.03 119.25 484.00 119.25
  Q 482.24 119.25 481.31 120.74
  Z"
/>
<path fill="#ffffff" d="
  M 430.5132 131.4868
  A 8.81 8.81 0.0 0 1 421.6725 140.2660
  L 400.9927 140.1938
  A 8.81 8.81 0.0 0 1 392.2135 131.3531
  L 392.2468 121.8132
  A 8.81 8.81 0.0 0 1 401.0875 113.0340
  L 421.7673 113.1062
  A 8.81 8.81 0.0 0 1 430.5465 121.9469
  L 430.5132 131.4868
  Z
  M 420.5440 123.9773
  A 3.66 3.66 0.0 0 0 416.9032 120.2982
  L 406.1834 120.2420
  A 3.66 3.66 0.0 0 0 402.5043 123.8828
  L 402.4760 129.2827
  A 3.66 3.66 0.0 0 0 406.1168 132.9618
  L 416.8366 133.0180
  A 3.66 3.66 0.0 0 0 420.5157 129.3772
  L 420.5440 123.9773
  Z"
/>
<path fill="#ffffff" d="
  M 51.94 131.41
  C 62.59 131.02 73.31 131.62 84.01 131.25
  Q 84.61 131.23 84.20 131.68
  L 70.23 146.68
  A 1.79 1.74 -67.9 0 1 68.94 147.25
  L 51.82 147.25
  A 0.56 0.55 0.0 0 1 51.26 146.70
  L 51.42 131.93
  A 0.54 0.52 -1.1 0 1 51.94 131.41
  Z"
/>
<path fill="#ffffff" d="
  M 540.92 145.31
  A 0.65 0.56 24.8 0 1 541.65 145.10
  L 547.05 147.01
  A 1.07 0.95 25.0 0 1 547.67 148.46
  L 518.62 195.47
  A 0.82 0.78 -64.5 0 1 517.70 195.82
  L 511.74 193.83
  A 0.54 0.52 -64.7 0 1 511.47 193.04
  L 540.92 145.31
  Z"
/>
<rect fill="#ffffff" x="-5.35" y="-19.25" transform="translate(423.90,166.50) rotate(-0.2)" width="10.70" height="38.50" rx="0.54"/>
<path fill="#ffffff" d="
  M 541.08 173.63
  L 574.15 148.28
  A 2.71 2.52 24.6 0 1 575.75 147.75
  L 590.31 147.75
  A 0.69 0.68 0.0 0 1 591.00 148.43
  L 590.93 173.16
  A 0.58 0.51 -90.0 0 0 591.44 173.74
  L 598.79 173.83
  A 0.47 0.43 -0.6 0 1 599.26 174.25
  L 599.47 182.84
  A 0.93 0.92 -0.9 0 1 598.55 183.78
  L 591.43 183.89
  A 0.54 0.47 89.5 0 0 590.97 184.43
  L 590.86 190.82
  A 0.56 0.53 -0.0 0 1 590.31 191.34
  L 575.10 191.48
  A 0.72 0.66 -88.8 0 1 574.44 190.73
  L 574.75 184.41
  A 0.68 0.63 1.2 0 0 574.07 183.75
  L 541.55 183.75
  A 1.01 0.95 0.6 0 1 540.54 182.78
  L 540.65 174.43
  A 1.10 0.98 -20.2 0 1 541.08 173.63
  Z
  M 558.18 173.73
  Q 566.12 174.36 574.26 173.80
  A 0.55 0.52 88.3 0 0 574.75 173.25
  L 574.69 161.60
  Q 574.68 160.76 574.03 161.25
  L 558.08 173.37
  Q 557.67 173.69 558.18 173.73
  Z"
/>
<path fill="#ffffff" d="
  M 69.85 150.86
  C 74.64 155.80 79.14 161.02 84.00 165.87
  Q 84.63 166.50 83.73 166.50
  L 51.93 166.50
  A 0.68 0.68 89.6 0 1 51.25 165.82
  L 51.25 151.06
  A 0.56 0.56 0.0 0 1 51.81 150.50
  L 69.00 150.50
  A 1.19 1.18 67.8 0 1 69.85 150.86
  Z"
/>
<path fill="#ffffff" d="
  M 477.31 162.33
  C 481.92 156.64 493.14 157.75 500.30 157.47
  C 505.25 157.28 513.56 159.21 513.23 165.68
  A 0.55 0.54 -88.3 0 1 512.69 166.20
  L 503.81 166.20
  A 1.01 0.86 70.0 0 1 503.05 165.77
  C 501.60 163.70 500.04 164.28 497.85 164.22
  C 495.43 164.17 488.50 163.67 486.70 165.18
  C 484.78 166.79 487.16 168.25 488.84 168.25
  C 495.51 168.25 513.52 165.38 513.68 176.69
  C 513.76 182.46 506.45 185.39 501.52 185.62
  C 493.24 186.01 476.95 187.83 475.47 178.05
  A 0.76 0.75 -4.6 0 1 476.22 177.19
  L 484.94 177.08
  A 0.95 0.94 -18.7 0 1 485.72 177.46
  C 487.80 180.30 496.82 179.28 499.88 179.21
  Q 501.79 179.16 502.33 177.32
  Q 503.36 173.79 500.00 173.88
  C 493.72 174.03 478.40 175.85 475.75 168.00
  Q 474.86 165.36 477.31 162.33
  Z"
/>
<rect fill="#f9ad79" x="-1.91" y="-14.26" transform="translate(315.91,172.48) rotate(-0.1)" width="3.82" height="28.52" rx="0.27"/>
<rect fill="#ef2e34" x="-1.89" y="-14.26" transform="translate(358.90,172.48) rotate(-0.2)" width="3.78" height="28.52" rx="0.29"/>
<rect fill="#55c8d0" x="99.00" y="158.25" width="4.00" height="28.50" rx="0.60"/>
<rect fill="#60e0e3" x="106.24" y="158.27" width="3.80" height="28.46" rx="0.26"/>
<rect fill="#67f4fb" x="113.25" y="158.24" width="4.00" height="28.50" rx="0.52"/>
<rect fill="#67fffe" x="120.50" y="158.25" width="4.00" height="28.50" rx="0.42"/>
<rect fill="#38feff" x="-1.89" y="-14.24" transform="translate(129.64,172.50) rotate(-0.1)" width="3.78" height="28.48" rx="0.26"/>
<rect fill="#48fdfd" x="134.75" y="158.26" width="4.00" height="28.50" rx="0.52"/>
<path fill="#3efac0" d="
  M 141.96 168.75
  L 141.96 159.00
  Q 143.41 157.70 145.33 158.27
  A 0.72 0.68 -82.9 0 1 145.82 158.94
  Q 145.98 171.46 146.00 183.99
  C 146.00 186.78 146.14 187.29 142.59 186.49
  A 0.77 0.77 -83.4 0 1 142.00 185.74
  L 141.96 168.75
  Z"
/>
<rect fill="#61c09a" x="149.24" y="158.27" width="3.80" height="28.46" rx="0.27"/>
<rect fill="#6ad5ab" x="156.25" y="158.25" width="4.00" height="28.50" rx="0.42"/>
<rect fill="#7af7cc" x="163.50" y="158.24" width="4.00" height="28.50" rx="0.52"/>
<rect fill="#6affce" x="170.75" y="158.25" width="3.76" height="28.50" rx="0.27"/>
<rect fill="#5ffecc" x="177.75" y="158.25" width="4.00" height="28.50" rx="0.42"/>
<rect fill="#8cbc8b" x="185.00" y="158.25" width="4.00" height="28.50" rx="0.60"/>
<rect fill="#b0dea2" x="192.24" y="158.27" width="3.78" height="28.46" rx="0.26"/>
<rect fill="#d1f5ba" x="199.25" y="158.25" width="4.00" height="28.50" rx="0.42"/>
<rect fill="#fffec1" x="206.50" y="158.25" width="4.00" height="28.50" rx="0.46"/>
<rect fill="#fdffcb" x="213.75" y="158.26" width="3.76" height="28.48" rx="0.27"/>
<rect fill="#fdfbd9" x="220.75" y="158.26" width="4.00" height="28.50" rx="0.52"/>
<rect fill="#fdfbd9" x="-1.96" y="-14.24" transform="translate(229.96,172.50) rotate(-0.1)" width="3.92" height="28.48" rx="0.55"/>
<rect fill="#f9f5bf" x="-2.00" y="-14.23" transform="translate(237.23,172.50) rotate(0.1)" width="4.00" height="28.46" rx="0.46"/>
<rect fill="#fffeb4" x="242.25" y="158.26" width="4.00" height="28.50" rx="0.52"/>
<rect fill="#ffff98" x="249.50" y="158.24" width="4.00" height="28.50" rx="0.52"/>
<rect fill="#fdfe8f" x="-1.88" y="-14.24" transform="translate(258.63,172.50) rotate(-0.1)" width="3.76" height="28.48" rx="0.26"/>
<rect fill="#d6c668" x="263.75" y="158.25" width="4.00" height="28.50" rx="0.60"/>
<rect fill="#e8cd75" x="-1.95" y="-14.24" transform="translate(272.95,172.50) rotate(-0.2)" width="3.90" height="28.48" rx="0.54"/>
<rect fill="#fae987" x="278.24" y="158.27" width="3.80" height="28.46" rx="0.27"/>
<rect fill="#fdc773" x="285.25" y="158.26" width="4.00" height="28.50" rx="0.52"/>
<rect fill="#ffd66c" x="292.49" y="158.25" width="4.00" height="28.50" rx="0.56"/>
<rect fill="#f3c25a" x="299.75" y="158.26" width="3.76" height="28.48" rx="0.27"/>
<rect fill="#f5ac51" x="306.75" y="158.24" width="4.00" height="28.50" rx="0.31"/>
<rect fill="#f7816e" x="-1.98" y="-14.23" transform="translate(323.22,172.50) rotate(-0.1)" width="3.96" height="28.46" rx="0.37"/>
<rect fill="#fe9c90" x="328.25" y="158.25" width="4.00" height="28.50" rx="0.42"/>
<rect fill="#fc9290" x="335.50" y="158.24" width="4.00" height="28.50" rx="0.51"/>
<rect fill="#f3474b" x="342.74" y="158.26" width="3.76" height="28.48" rx="0.26"/>
<rect fill="#ef2e34" x="349.75" y="158.25" width="4.00" height="28.50" rx="0.42"/>
<path fill="#ffffff" d="
  M 386.06 162.12
  Q 386.62 161.94 387.06 161.31
  Q 388.97 158.62 392.50 158.67
  C 398.57 158.75 414.24 156.84 414.57 166.63
  C 414.74 171.37 415.75 179.17 412.91 182.88
  C 409.20 187.75 398.84 186.27 393.26 186.43
  Q 389.71 186.53 387.21 184.08
  Q 386.17 183.07 386.18 184.53
  L 386.25 196.73
  A 0.54 0.53 89.5 0 1 385.73 197.27
  L 376.16 197.50
  A 0.67 0.64 89.2 0 1 375.50 196.83
  L 375.50 159.66
  A 0.62 0.59 -89.5 0 1 376.10 159.04
  L 384.81 159.15
  A 0.66 0.55 -1.3 0 1 385.45 159.66
  L 385.62 161.70
  A 0.44 0.34 81.1 0 0 386.06 162.12
  Z
  M 403.39 167.58
  C 400.49 165.60 389.37 165.40 386.68 167.72
  A 1.15 1.03 -23.1 0 0 386.29 168.56
  L 386.40 176.56
  A 1.07 0.96 20.2 0 0 386.83 177.37
  C 389.96 179.74 397.98 179.47 402.01 178.38
  Q 404.25 177.78 404.25 175.46
  L 404.25 169.22
  A 2.00 1.98 -72.9 0 0 403.39 167.58
  Z"
/>
<path fill="#ffffff" d="
  M 470.31 181.81
  C 467.31 185.93 463.94 185.66 458.28 185.91
  C 451.38 186.21 438.35 187.55 434.58 181.82
  C 431.98 177.87 433.25 164.62 433.31 159.57
  A 0.52 0.49 -90.0 0 1 433.80 159.05
  L 442.74 159.01
  A 0.52 0.51 -90.0 0 1 443.25 159.53
  Q 443.21 167.14 443.29 174.57
  C 443.36 180.59 452.94 178.75 456.75 178.76
  Q 459.24 178.77 460.86 177.06
  A 1.32 1.18 69.0 0 0 461.19 176.19
  L 461.25 159.56
  A 0.53 0.51 -90.0 0 1 461.76 159.03
  L 471.06 159.15
  A 0.55 0.53 89.4 0 1 471.58 159.68
  C 471.76 164.28 473.05 178.05 470.31 181.81
  Z"
/>
</svg>
