<?xml version="1.0" encoding="UTF-8" standalone="no"?>
<!DOCTYPE svg PUBLIC "-//W3C//DTD SVG 1.1//EN" "http://www.w3.org/Graphics/SVG/1.1/DTD/svg11.dtd">
<svg xmlns="http://www.w3.org/2000/svg" version="1.1" viewBox="0 0 600 300">
<g stroke-width="2.00" fill="none" stroke-linecap="butt">
<path stroke="#000000" vector-effect="non-scaling-stroke" d="
  M 255.75 113.71
  L 255.54 113.75"
/>
<path stroke="#000000" vector-effect="non-scaling-stroke" d="
  M 240.79 184.00
  Q 240.62 184.34 240.25 184.29"
/>
<path stroke="#000000" vector-effect="non-scaling-stroke" d="
  M 18.29 147.25
  Q 18.23 147.02 18.00 146.96"
/>
</g>
<path fill="#000000" d="
  M 255.75 113.71
  L 255.54 113.75
  C 251.75 111.88 252.01 114.47 251.60 116.85
  Q 249.13 131.18 246.68 145.93
  A 1.58 1.58 4.7 0 1 245.12 147.25
  L 213.69 147.25
  A 0.86 0.86 -84.0 0 1 212.85 146.21
  C 216.94 126.86 231.53 114.10 251.32 113.20
  A 0.97 0.97 -86.4 0 0 252.24 112.39
  L 254.17 101.00
  A 0.95 0.90 83.3 0 1 254.70 100.29
  Q 258.49 98.60 257.51 102.70
  Q 256.20 108.14 255.75 113.71
  Z"
/>
<path fill="#000000" d="
  M 522.73 172.66
  Q 522.90 173.66 523.53 172.88
  L 544.31 147.40
  A 1.57 1.57 -39.5 0 0 544.48 145.67
  L 529.46 117.39
  A 0.44 0.44 -13.9 0 1 529.85 116.75
  L 554.92 116.75
  A 1.38 1.36 -13.4 0 1 556.14 117.49
  L 560.72 126.36
  A 0.52 0.51 -38.8 0 0 561.58 126.44
  L 569.23 117.19
  A 1.10 1.02 18.2 0 1 570.06 116.81
  L 599.31 116.76
  Q 600.16 116.75 599.61 117.41
  L 573.89 148.38
  A 2.21 2.18 50.9 0 0 573.65 150.82
  L 590.01 181.59
  A 0.45 0.45 -13.9 0 1 589.61 182.25
  L 564.65 182.25
  A 1.30 1.28 -13.6 0 1 563.50 181.56
  L 557.19 169.69
  A 0.66 0.65 50.5 0 0 556.10 169.58
  L 546.68 181.11
  A 3.10 3.10 -70.4 0 1 544.28 182.25
  L 502.03 182.25
  A 0.78 0.75 -2.9 0 1 501.26 181.58
  L 500.52 173.70
  A 1.05 0.99 87.1 0 0 499.53 172.75
  L 484.99 172.75
  A 1.40 1.37 -78.4 0 0 483.72 173.61
  L 480.49 181.35
  A 1.48 1.45 11.0 0 1 479.13 182.25
  L 434.43 182.19
  A 0.98 0.98 -88.9 0 1 433.45 181.17
  L 434.79 148.04
  Q 434.89 145.70 433.86 147.80
  L 417.47 181.50
  A 1.35 1.33 -76.8 0 1 416.27 182.25
  L 402.17 182.25
  A 0.97 0.96 -4.1 0 1 401.21 181.43
  L 396.06 148.42
  Q 395.84 147.02 395.48 148.39
  L 386.63 181.39
  A 1.17 1.16 7.4 0 1 385.50 182.25
  L 359.91 182.25
  A 0.72 0.72 -82.3 0 1 359.22 181.34
  L 380.95 104.39
  A 1.23 1.22 7.8 0 1 382.13 103.50
  L 409.45 103.56
  A 0.59 0.57 85.3 0 1 410.02 104.06
  L 415.36 137.46
  Q 415.64 139.21 416.41 137.62
  L 432.84 104.01
  A 0.80 0.80 -76.9 0 1 433.56 103.56
  L 461.76 103.50
  A 0.51 0.50 1.1 0 1 462.27 104.02
  L 459.73 169.55
  Q 459.63 172.19 460.81 169.83
  L 486.80 117.48
  A 1.32 1.31 13.0 0 1 487.98 116.75
  L 513.01 116.81
  A 0.46 0.45 -4.4 0 1 513.46 117.19
  L 522.73 172.66
  Z
  M 496.70 142.04
  L 490.49 157.02
  A 0.57 0.55 -79.3 0 0 491.01 157.81
  L 498.32 157.60
  A 0.50 0.48 86.6 0 0 498.78 157.06
  L 497.63 142.17
  Q 497.48 140.16 496.70 142.04
  Z"
/>
<path fill="#000000" d="
  M 18.29 147.25
  Q 18.23 147.02 18.00 146.96
  L 38.82 106.30
  A 1.94 1.88 -76.0 0 1 40.51 105.25
  L 69.62 105.31
  A 1.29 1.27 85.8 0 1 70.88 106.42
  L 76.68 146.77
  A 0.42 0.42 85.8 0 1 76.27 147.25
  L 18.29 147.25
  Z"
/>
<path fill="#000000" d="
  M 255.54 113.75
  L 255.75 113.71
  C 272.66 115.51 284.06 129.75 283.94 146.34
  A 0.92 0.92 -89.7 0 1 283.02 147.25
  L 250.78 147.25
  A 0.80 0.80 -85.2 0 1 249.99 146.31
  L 255.54 113.75
  Z"
/>
<path fill="#000000" d="
  M 132.22 118.01
  A 1.09 1.08 18.1 0 1 132.81 119.17
  L 129.33 139.04
  A 0.46 0.46 24.0 0 1 128.60 139.32
  C 119.36 131.97 107.63 136.18 103.75 146.73
  A 0.79 0.79 -79.9 0 1 103.01 147.25
  L 80.32 147.25
  A 0.77 0.77 6.8 0 1 79.57 146.30
  C 85.21 122.71 109.28 106.94 132.22 118.01
  Z"
/>
<path fill="#000000" d="
  M 145.93 136.06
  L 133.94 135.83
  A 0.46 0.46 3.9 0 1 133.49 135.32
  Q 134.60 126.22 136.70 117.30
  A 0.63 0.61 -83.5 0 1 137.30 116.81
  L 188.18 116.75
  A 0.70 0.69 4.9 0 1 188.87 117.56
  L 185.66 135.32
  A 0.63 0.62 -85.5 0 1 185.06 135.84
  L 172.49 135.98
  A 1.06 1.02 -84.8 0 0 171.49 136.84
  L 169.68 146.58
  A 0.65 0.61 4.3 0 1 169.06 147.08
  L 145.41 147.24
  A 0.82 0.75 -84.9 0 1 144.68 146.28
  L 146.40 136.55
  A 0.48 0.42 4.7 0 0 145.93 136.06
  Z"
/>
<path fill="#000000" d="
  M 191.41 117.35
  A 0.72 0.70 -84.2 0 1 192.11 116.76
  L 215.81 116.92
  A 0.44 0.44 5.1 0 1 216.24 117.43
  L 211.13 146.50
  A 0.93 0.90 4.8 0 1 210.22 147.25
  L 186.90 147.25
  A 0.71 0.70 4.8 0 1 186.20 146.43
  L 191.41 117.35
  Z"
/>
<path fill="#000000" d="
  M 329.29 143.66
  L 333.84 117.42
  A 0.61 0.60 3.9 0 1 334.43 116.92
  L 357.05 116.76
  A 0.80 0.78 -85.0 0 1 357.82 117.69
  L 346.55 181.66
  A 0.72 0.72 -84.7 0 1 345.84 182.25
  L 323.02 182.25
  A 1.03 1.02 -11.9 0 1 322.08 181.64
  L 310.06 153.92
  Q 309.18 151.90 308.80 154.07
  L 304.05 181.31
  A 1.15 1.13 4.7 0 1 302.92 182.25
  L 280.22 182.19
  A 0.40 0.40 -85.1 0 1 279.83 181.72
  L 285.31 150.91
  A 0.51 0.49 4.7 0 1 285.81 150.50
  C 287.60 150.50 295.18 151.03 296.36 150.49
  Q 297.32 150.06 297.19 147.72
  A 0.73 0.69 -2.1 0 0 296.45 147.07
  L 286.51 147.20
  A 0.44 0.43 -84.9 0 1 286.09 146.68
  L 291.17 117.67
  A 1.12 1.11 4.9 0 1 292.27 116.75
  L 314.47 116.75
  A 1.44 1.41 -12.2 0 1 315.77 117.57
  L 328.19 143.83
  Q 328.98 145.49 329.29 143.66
  Z"
/>
<path fill="#000000" d="
  M 18.00 146.96
  Q 18.23 147.02 18.29 147.25
  L 16.60 149.62
  Q 15.97 150.50 17.03 150.50
  L 76.57 150.50
  A 0.70 0.69 -3.8 0 1 77.26 151.10
  L 81.72 181.52
  A 0.65 0.64 -3.9 0 1 81.08 182.25
  L 54.38 182.25
  A 0.88 0.88 -2.0 0 1 53.50 181.37
  L 53.50 172.52
  A 0.77 0.77 89.5 0 0 52.73 171.75
  L 35.35 171.75
  A 1.22 1.18 -80.4 0 0 34.22 172.58
  L 31.24 181.76
  A 0.72 0.71 9.0 0 1 30.56 182.25
  L 0.89 182.25
  A 0.46 0.46 -76.5 0 1 0.48 181.58
  L 15.92 151.35
  A 0.62 0.60 13.8 0 0 15.37 150.47
  L 0.00 150.23
  L 0.00 149.69
  Q 0.10 146.78 3.50 147.25
  Q 7.01 147.73 18.00 146.96
  Z"
/>
<path fill="#000000" d="
  M 103.42 151.17
  C 106.07 162.12 116.41 163.66 125.22 159.16
  Q 125.85 158.83 125.72 159.54
  Q 123.79 169.99 122.25 179.25
  Q 121.96 180.96 122.13 182.01
  A 0.56 0.52 77.1 0 1 121.77 182.64
  C 100.03 188.99 78.29 174.68 79.41 151.18
  A 0.54 0.53 -88.3 0 1 79.94 150.67
  L 102.81 150.67
  A 0.65 0.62 82.9 0 1 103.42 151.17
  Z"
/>
<path fill="#000000" d="
  M 143.96 151.31
  A 1.00 0.98 4.8 0 1 144.94 150.50
  L 168.15 150.50
  A 0.79 0.79 4.9 0 1 168.93 151.42
  L 163.63 181.42
  A 0.97 0.96 -84.7 0 1 162.67 182.23
  L 139.19 182.08
  A 0.44 0.43 5.6 0 1 138.77 181.57
  L 143.96 151.31
  Z"
/>
<path fill="#000000" d="
  M 185.40 151.41
  A 1.11 1.10 5.0 0 1 186.49 150.50
  L 209.79 150.50
  A 0.67 0.67 -85.0 0 1 210.45 151.29
  L 205.10 181.36
  A 1.08 1.08 -84.9 0 1 204.04 182.25
  L 180.86 182.25
  A 0.79 0.79 5.2 0 1 180.08 181.32
  L 185.40 151.41
  Z"
/>
<path fill="#000000" d="
  M 240.79 184.00
  Q 240.62 184.34 240.25 184.29
  Q 239.94 183.96 238.81 183.69
  Q 214.64 177.94 212.43 152.21
  A 1.58 1.58 87.7 0 1 214.00 150.50
  L 244.82 150.50
  A 0.97 0.97 5.0 0 1 245.78 151.64
  Q 243.07 167.32 240.54 182.48
  C 240.44 183.12 239.98 183.43 240.79 184.00
  Z"
/>
<path fill="#000000" d="
  M 240.25 184.29
  Q 240.62 184.34 240.79 184.00
  Q 242.09 184.34 243.24 183.89
  A 0.94 0.82 86.3 0 0 243.77 183.20
  L 249.07 151.83
  A 1.59 1.59 4.7 0 1 250.64 150.50
  L 282.72 150.50
  A 0.74 0.74 5.7 0 1 283.45 151.39
  C 279.49 170.98 264.34 183.56 244.19 184.42
  A 0.61 0.61 3.4 0 0 243.61 184.93
  L 241.24 198.17
  A 0.87 0.87 -89.1 0 1 240.51 198.88
  C 236.42 199.52 238.02 197.84 238.31 195.81
  Q 239.13 190.03 240.25 184.29
  Z"
/>
</svg>
