<?xml version="1.0" encoding="UTF-8" standalone="no"?>
<!DOCTYPE svg PUBLIC "-//W3C//DTD SVG 1.1//EN" "http://www.w3.org/Graphics/SVG/1.1/DTD/svg11.dtd">
<svg xmlns="http://www.w3.org/2000/svg" version="1.1" viewBox="0 0 600 300">
<ellipse fill="#000000" cx="0.00" cy="0.00" transform="translate(200.04,75.67) rotate(78.5)" rx="3.74" ry="2.86"/>
<ellipse fill="#000000" cx="0.00" cy="0.00" transform="translate(218.22,77.85) rotate(120.3)" rx="4.87" ry="2.75"/>
<ellipse fill="#000000" cx="0.00" cy="0.00" transform="translate(185.02,80.90) rotate(46.8)" rx="4.78" ry="2.41"/>
<path fill="#000000" d="
  M 600.00 108.56
  L 600.00 109.81
  Q 599.56 110.03 599.19 110.94
  Q 576.05 166.95 552.51 224.20
  A 1.28 1.25 -79.1 0 1 551.38 224.98
  C 500.26 226.06 449.53 226.23 398.68 226.93
  C 391.28 227.03 384.24 226.44 376.99 225.81
  Q 315.66 220.46 254.32 215.24
  Q 248.38 214.74 242.68 215.29
  Q 232.44 216.29 222.23 217.55
  Q 185.80 222.05 149.39 226.63
  C 141.63 227.60 137.33 228.35 131.50 227.25
  Q 81.35 217.75 30.59 208.20
  A 1.61 1.60 87.0 0 1 29.35 207.08
  Q 18.00 167.96 6.44 129.06
  Q 1.48 112.39 0.00 108.19
  L -0.04 107.31
  Q 33.52 97.43 67.17 87.87
  C 71.28 86.70 74.73 87.89 78.32 88.31
  Q 118.17 92.86 158.03 97.26
  Q 171.88 98.79 185.28 100.63
  A 0.66 0.66 -5.3 0 0 186.00 99.77
  Q 184.33 94.49 188.33 90.83
  C 198.35 81.69 214.54 79.15 224.33 90.01
  C 228.29 94.40 227.04 100.37 223.87 104.78
  Q 223.45 105.37 224.17 105.29
  C 225.78 105.10 227.41 105.50 228.61 105.52
  Q 293.05 106.43 357.50 107.25
  C 361.03 107.29 363.02 106.69 366.09 106.01
  Q 419.84 94.00 473.00 81.62
  Q 474.18 81.34 475.34 81.59
  L 600.00 108.56
  Z
  M 218.91 98.30
  C 220.02 86.95 196.21 84.85 194.00 94.50
  Q 192.50 101.08 197.32 104.48
  C 200.73 106.88 203.36 109.28 205.95 112.58
  Q 207.94 115.11 210.18 112.79
  C 213.53 109.32 218.45 102.95 218.91 98.30
  Z
  M 496.3161 114.4589
  A 11.67 5.16 132.1 0 0 507.9686 109.2594
  A 11.67 5.16 132.1 0 0 511.9639 97.1411
  A 11.67 5.16 132.1 0 0 500.3114 102.3406
  A 11.67 5.16 132.1 0 0 496.3161 114.4589
  Z
  M 465.04 112.66
  C 466.21 105.61 457.56 98.62 451.60 96.96
  A 1.25 1.25 -84.5 0 0 450.02 98.27
  Q 450.98 109.27 461.13 114.60
  Q 464.43 116.34 465.04 112.66
  Z
  M 90.84 160.40
  Q 92.82 159.34 96.01 159.55
  Q 118.98 161.10 134.95 145.69
  C 140.60 140.24 139.08 122.36 133.19 118.56
  C 114.84 106.73 92.20 104.25 71.01 107.74
  C 61.03 109.39 54.78 110.54 52.81 121.06
  C 51.61 127.46 41.10 122.35 41.62 130.23
  Q 41.73 131.92 43.76 135.86
  C 48.57 145.24 50.67 155.71 52.70 165.23
  C 53.61 169.50 55.33 172.60 57.16 176.42
  C 62.39 187.32 73.59 189.79 84.55 187.02
  C 95.82 184.17 94.07 172.53 89.58 164.88
  Q 87.88 161.98 90.84 160.40
  Z
  M 530.69 123.28
  Q 529.26 125.57 531.66 126.79
  C 538.17 130.11 547.12 122.95 551.33 118.51
  C 554.11 115.57 553.98 111.84 548.97 113.48
  C 544.70 114.88 533.04 119.55 530.69 123.28
  Z
  M 437.24 136.79
  C 424.82 147.91 424.98 166.11 440.25 174.50
  Q 451.14 180.48 466.79 184.06
  Q 499.51 191.54 526.10 173.24
  C 538.66 164.59 534.25 159.03 535.46 146.25
  C 537.85 120.86 490.09 119.75 475.00 120.75
  Q 453.57 122.17 437.24 136.79
  Z
  M 408.41 122.99
  Q 407.32 125.04 408.95 126.70
  C 412.25 130.06 423.86 138.59 428.65 135.71
  Q 431.47 134.01 428.81 130.69
  C 426.37 127.63 412.05 116.12 408.41 122.99
  Z
  M 273.44 154.44
  C 263.50 179.11 296.22 191.80 313.50 193.00
  C 323.10 193.66 332.09 193.24 340.17 192.74
  C 351.45 192.03 362.43 187.63 371.90 181.43
  Q 375.41 179.12 376.05 178.52
  C 380.17 174.58 378.72 168.70 373.35 166.96
  Q 372.38 166.65 367.14 165.99
  C 357.81 164.83 350.09 168.50 341.74 171.29
  C 331.14 174.81 325.44 176.98 316.00 175.50
  C 303.32 173.51 306.33 159.35 314.75 154.75
  Q 324.94 149.18 337.21 147.35
  Q 344.57 146.26 347.67 145.49
  C 353.07 144.15 366.64 142.58 360.16 134.86
  C 357.91 132.19 351.49 128.53 348.13 128.40
  Q 309.51 126.85 278.72 149.69
  C 277.36 150.71 274.12 152.74 273.44 154.44
  Z
  M 197.29 142.74
  C 187.08 145.30 184.98 155.19 184.96 164.50
  C 184.95 170.86 184.63 177.19 183.62 183.47
  Q 182.44 190.75 188.81 195.19
  Q 204.49 206.11 216.69 192.19
  C 219.16 189.36 221.05 186.35 220.87 182.28
  Q 220.48 173.28 221.25 167.50
  C 222.08 161.32 223.29 148.28 218.94 145.56
  C 213.46 142.14 203.49 141.18 197.29 142.74
  Z
  M 541.19 152.19
  Q 539.17 153.82 542.19 156.06
  Q 549.11 161.22 557.56 159.06
  C 560.26 158.38 563.24 159.00 565.13 157.75
  C 567.75 156.03 565.69 153.59 563.59 152.71
  C 556.58 149.76 551.45 150.31 544.10 151.01
  Q 542.45 151.17 541.19 152.19
  Z
  M 401.10 161.95
  C 399.09 168.14 421.90 165.25 424.31 164.83
  Q 426.96 164.36 426.25 161.76
  C 424.13 153.98 407.85 158.32 402.64 160.33
  A 2.62 2.59 -1.9 0 0 401.10 161.95
  Z
  M 529.69 178.44
  C 526.36 184.98 549.09 196.34 550.79 190.83
  C 552.79 184.33 532.73 172.46 529.69 178.44
  Z
  M 424.40 191.18
  Q 421.86 195.90 427.32 196.11
  C 434.32 196.39 441.52 189.14 444.69 183.50
  A 1.09 1.02 -41.8 0 0 444.77 182.59
  C 441.75 175.10 426.71 186.90 424.40 191.18
  Z
  M 501.45 190.17
  C 499.31 196.22 502.35 204.27 506.36 208.89
  C 510.39 213.54 513.81 208.91 513.36 204.46
  Q 512.43 195.05 505.29 189.11
  Q 502.61 186.87 501.45 190.17
  Z
  M 471.31 190.81
  C 465.63 194.20 462.69 200.37 462.09 206.75
  C 461.84 209.53 463.43 211.26 466.22 209.74
  C 472.80 206.17 474.86 199.27 475.00 192.25
  Q 475.08 188.57 471.31 190.81
  Z"
/>
<ellipse fill="#000000" cx="0.00" cy="0.00" transform="translate(230.85,86.58) rotate(-29.9)" rx="4.65" ry="2.54"/>
<path fill="#000000" d="
  M 176.21 89.67
  C 178.51 90.39 181.96 91.04 181.63 94.00
  C 181.04 99.20 173.31 94.70 174.20 90.82
  A 1.58 1.57 15.1 0 1 176.21 89.67
  Z"
/>
<path fill="#000000" d="
  M 92.40 124.13
  C 96.81 124.32 102.22 127.08 105.17 130.54
  Q 106.30 131.87 105.29 133.29
  C 102.61 137.09 95.47 139.89 90.56 140.77
  C 83.63 142.02 78.77 137.11 77.75 130.50
  Q 77.30 127.62 80.19 126.94
  C 84.14 125.99 88.72 123.97 92.40 124.13
  Z"
/>
<path fill="#000000" d="
  M 485.28 142.25
  Q 485.37 141.07 482.04 140.62
  A 3.19 3.15 32.2 0 0 479.92 141.09
  Q 478.85 141.76 478.48 141.27
  A 0.76 0.53 -44.0 0 1 478.64 140.44
  Q 482.95 135.74 488.98 136.90
  Q 491.10 137.31 489.82 139.05
  C 487.24 142.58 491.97 146.34 495.13 146.70
  C 496.59 146.86 498.89 147.42 500.72 146.85
  A 1.44 1.41 7.8 0 0 501.49 146.28
  Q 503.05 143.88 500.10 142.11
  A 0.80 0.80 -45.5 0 1 500.09 140.75
  C 504.38 138.08 511.92 143.49 516.07 145.71
  A 2.37 2.37 -71.3 0 1 517.29 148.19
  C 515.21 160.80 509.47 165.72 497.50 168.89
  C 486.78 171.72 474.44 170.02 464.04 166.38
  Q 456.73 163.82 453.33 156.37
  A 3.96 3.92 41.6 0 1 453.15 153.53
  C 454.95 147.76 458.55 144.72 463.08 140.98
  C 465.30 139.15 469.36 136.19 471.29 139.80
  A 1.46 1.05 -58.7 0 1 471.36 140.72
  Q 470.88 142.54 471.81 143.69
  Q 475.74 148.54 483.58 144.74
  Q 485.15 143.98 485.28 142.25
  Z
  M 504.24 161.72
  Q 505.49 159.13 503.65 157.55
  A 1.32 1.07 -23.6 0 0 502.75 157.30
  C 492.47 158.29 482.16 158.13 472.16 155.42
  Q 469.15 154.60 466.00 154.72
  A 1.48 1.27 18.4 0 0 465.12 155.08
  Q 463.49 156.67 465.56 158.19
  C 475.24 165.27 491.97 164.50 503.36 162.39
  A 1.26 1.23 7.2 0 0 504.24 161.72
  Z"
/>
</svg>
