<?xml version="1.0" encoding="UTF-8" standalone="no"?>
<!DOCTYPE svg PUBLIC "-//W3C//DTD SVG 1.1//EN" "http://www.w3.org/Graphics/SVG/1.1/DTD/svg11.dtd">
<svg xmlns="http://www.w3.org/2000/svg" version="1.1" viewBox="0 0 600 300">
<path fill="#000000" d="
  M 72.42 210.81
  Q 71.25 210.81 72.17 211.55
  L 99.51 233.30
  A 0.59 0.59 34.6 0 1 99.65 234.06
  L 67.05 290.52
  A 0.97 0.96 -74.7 0 1 66.22 291.00
  L 14.22 291.00
  Q 13.19 291.00 13.76 290.14
  L 195.85 13.94
  Q 196.50 12.96 196.50 14.13
  L 196.44 210.18
  A 0.51 0.50 -90.0 0 1 195.94 210.69
  L 134.33 210.75
  A 0.77 0.77 0.0 0 1 133.56 209.98
  L 133.76 172.56
  Q 133.76 170.84 132.93 172.34
  L 111.93 210.30
  A 0.88 0.87 14.4 0 1 111.16 210.75
  L 72.42 210.81
  Z"
/>
<path fill="#000000" d="
  M 430.52 144.89
  Q 430.16 139.66 430.22 135.35
  C 430.28 131.73 430.71 127.70 425.39 129.16
  A 1.93 1.93 -7.1 0 0 423.97 130.98
  Q 423.42 161.22 423.99 189.25
  Q 424.05 191.99 426.77 191.63
  C 430.93 191.08 430.27 189.80 430.23 186.02
  Q 430.15 177.11 430.46 167.71
  A 0.55 0.55 -1.1 0 1 430.98 167.17
  Q 440.32 166.64 449.94 167.28
  A 0.53 0.52 1.8 0 1 450.44 167.80
  C 450.56 177.91 451.47 189.85 449.00 199.50
  C 446.34 209.87 425.50 208.78 418.11 207.17
  C 406.40 204.62 404.75 200.19 404.75 188.50
  Q 404.75 159.87 404.75 131.25
  C 404.75 127.64 405.16 120.48 408.25 117.45
  C 414.57 111.24 436.21 111.43 443.26 114.86
  Q 450.22 118.25 450.42 128.00
  Q 450.60 136.62 450.50 145.14
  A 0.56 0.56 -41.7 0 1 449.95 145.69
  L 431.44 145.75
  A 0.92 0.92 88.0 0 1 430.52 144.89
  Z"
/>
<path fill="#000000" d="
  M 254.48 155.76
  Q 253.78 157.45 253.25 161.00
  Q 252.02 169.24 245.65 205.56
  A 0.67 0.60 -84.7 0 1 245.06 206.11
  L 238.21 206.20
  A 0.87 0.82 84.3 0 1 237.38 205.48
  L 228.73 155.80
  A 0.44 0.30 87.8 0 0 228.48 155.46
  Q 228.25 155.40 228.25 155.75
  Q 228.25 180.12 228.25 205.37
  A 0.88 0.88 0.0 0 1 227.37 206.25
  L 210.91 206.25
  A 0.66 0.66 0.0 0 1 210.25 205.59
  L 210.25 114.91
  A 0.66 0.66 0.0 0 1 210.91 114.25
  L 233.90 114.25
  A 0.74 0.74 -5.1 0 1 234.63 114.86
  L 241.73 154.20
  Q 242.21 156.88 242.71 154.20
  L 250.08 114.97
  A 0.90 0.89 5.5 0 1 250.96 114.25
  L 271.55 114.25
  A 1.25 1.25 -88.9 0 1 272.80 115.55
  Q 272.43 125.50 272.54 134.00
  Q 272.97 169.72 272.69 205.49
  A 0.77 0.77 -89.6 0 1 271.92 206.25
  L 255.15 206.25
  A 0.65 0.64 -0.0 0 1 254.50 205.61
  L 254.68 155.82
  Q 254.68 155.28 254.48 155.76
  Z"
/>
<path fill="#000000" d="
  M 281.19 114.70
  A 0.45 0.45 89.7 0 1 281.64 114.25
  L 312.23 114.25
  A 0.52 0.52 -90.0 0 1 312.75 114.77
  L 312.75 127.25
  A 0.50 0.50 0.0 0 1 312.25 127.75
  L 301.66 127.75
  A 0.66 0.66 0.1 0 0 301.00 128.41
  L 301.00 149.04
  A 0.68 0.67 85.9 0 0 301.77 149.71
  Q 305.75 149.15 311.24 149.93
  A 0.84 0.80 4.4 0 1 311.97 150.74
  L 311.84 162.56
  A 0.55 0.54 -90.0 0 1 311.31 163.10
  L 301.99 163.21
  A 1.01 0.98 -0.3 0 0 300.99 164.19
  L 300.82 192.06
  A 0.94 0.92 90.0 0 0 301.74 193.00
  L 312.19 193.00
  A 0.64 0.63 -89.6 0 1 312.82 193.65
  L 312.75 205.73
  A 0.52 0.51 -90.0 0 1 312.24 206.25
  L 281.99 206.19
  A 0.98 0.98 0.1 0 1 281.01 205.21
  L 281.19 114.70
  Z"
/>
<path fill="#000000" d="
  M 354.97 161.67
  C 359.06 163.18 363.88 163.67 365.50 168.50
  Q 366.72 172.16 366.69 179.75
  Q 366.64 192.66 366.32 205.56
  A 0.54 0.51 -89.4 0 1 365.81 206.09
  L 347.94 206.09
  A 0.54 0.51 89.4 0 1 347.43 205.56
  Q 347.11 189.78 347.19 174.00
  Q 347.21 169.63 341.59 170.02
  A 0.90 0.90 -2.0 0 0 340.75 170.92
  L 340.75 205.73
  A 0.52 0.52 -90.0 0 1 340.23 206.25
  L 321.65 206.25
  A 0.90 0.90 -89.7 0 1 320.75 205.35
  L 320.93 114.94
  A 0.53 0.53 -0.6 0 1 321.44 114.42
  Q 343.88 113.55 354.00 114.75
  C 360.71 115.54 365.04 118.00 365.90 124.98
  Q 367.93 141.33 365.25 154.50
  C 364.49 158.25 358.07 159.75 354.95 161.28
  Q 354.50 161.50 354.97 161.67
  Z
  M 340.94 152.19
  A 0.51 0.50 5.2 0 0 341.37 152.70
  C 347.84 153.73 347.20 149.86 347.28 145.40
  Q 347.43 137.60 346.97 129.81
  A 1.55 1.27 -71.9 0 0 346.63 128.93
  Q 344.67 126.64 341.55 127.43
  A 0.65 0.64 83.2 0 0 341.06 128.06
  L 340.94 152.19
  Z"
/>
<rect fill="#000000" x="376.51" y="114.25" width="19.74" height="92.00" rx="0.50"/>
<path fill="#000000" d="
  M 468.47 115.02
  A 0.85 0.84 -85.1 0 1 469.30 114.31
  L 491.69 114.25
  A 1.02 1.01 86.5 0 1 492.69 115.15
  L 503.30 205.65
  A 0.54 0.54 -3.3 0 1 502.76 206.25
  L 486.77 206.25
  A 0.57 0.55 -3.4 0 1 486.21 205.77
  L 484.40 191.13
  A 1.21 1.14 85.9 0 0 483.24 190.06
  L 474.70 190.15
  A 0.58 0.58 -87.3 0 0 474.12 190.68
  L 472.75 205.51
  A 0.82 0.78 -87.2 0 1 471.97 206.25
  L 453.97 206.25
  A 0.47 0.46 4.7 0 1 453.51 205.71
  L 468.47 115.02
  Z
  M 479.91 142.90
  Q 478.33 157.57 477.24 172.60
  A 0.53 0.47 -88.8 0 0 477.72 173.17
  L 482.69 173.04
  A 0.56 0.48 87.3 0 0 483.15 172.44
  L 480.81 142.92
  Q 480.43 138.12 479.91 142.90
  Z"
/>
<path fill="#000000" d="
  M 525.75 164.46
  C 525.62 163.89 525.55 162.96 525.19 162.53
  C 524.15 161.29 524.80 167.02 524.79 167.25
  L 524.69 205.69
  A 0.51 0.50 -90.0 0 1 524.19 206.20
  L 508.19 206.08
  A 0.53 0.51 89.4 0 1 507.68 205.56
  C 507.33 184.20 507.84 162.86 507.54 141.51
  Q 507.36 128.15 507.68 114.93
  A 0.69 0.67 -88.7 0 1 508.36 114.26
  L 525.56 114.42
  A 0.68 0.66 81.9 0 1 526.20 114.91
  Q 531.08 131.95 535.18 149.19
  C 535.27 149.59 535.08 150.68 535.60 150.42
  A 0.74 0.58 80.4 0 0 535.94 149.79
  L 536.00 115.05
  A 0.80 0.80 89.6 0 1 536.80 114.25
  L 552.56 114.25
  A 0.69 0.69 -0.3 0 1 553.25 114.94
  L 553.25 205.58
  A 0.65 0.63 -89.6 0 1 552.61 206.23
  L 537.94 206.08
  A 0.68 0.67 82.0 0 1 537.29 205.58
  L 525.75 164.46
  Z"
/>
<path fill="#000000" d="
  M 563.55 117.80
  L 563.45 123.94
  A 0.86 0.72 80.7 0 1 563.01 124.68
  Q 562.18 125.06 561.55 124.40
  A 1.44 1.03 -73.4 0 1 561.24 123.50
  L 561.29 118.31
  A 1.30 1.28 -90.0 0 0 559.99 116.99
  Q 557.75 117.03 558.24 115.92
  A 1.04 0.80 4.2 0 1 559.00 115.42
  C 559.97 115.29 567.15 114.79 566.62 116.48
  A 0.87 0.55 0.0 0 1 565.93 116.92
  L 564.03 117.17
  A 0.66 0.55 87.6 0 0 563.55 117.80
  Z"
/>
<path fill="#000000" d="
  M 573.16 121.32
  Q 573.59 122.66 573.94 121.20
  L 575.12 116.28
  A 1.20 0.99 -8.9 0 1 575.75 115.57
  Q 577.01 114.96 578.25 115.57
  A 0.86 0.76 -79.8 0 1 578.70 116.31
  C 578.77 118.65 578.68 120.99 578.82 123.33
  Q 578.94 125.32 576.87 124.62
  A 0.58 0.57 -79.0 0 1 576.48 124.03
  Q 576.80 120.19 576.50 119.38
  Q 576.10 118.25 575.40 121.24
  Q 575.10 122.55 574.71 123.84
  A 1.29 1.12 88.0 0 1 574.12 124.57
  Q 572.42 125.44 571.87 123.47
  C 568.57 111.53 571.71 127.01 568.37 124.58
  A 1.10 0.86 -76.1 0 1 568.00 123.75
  L 568.00 116.25
  A 0.89 0.77 78.1 0 1 568.42 115.49
  Q 569.83 114.73 571.11 115.67
  A 1.68 0.78 83.5 0 1 571.61 116.49
  L 573.16 121.32
  Z"
/>
<path fill="#000000" d="
  M 587.20 214.94
  C 451.83 215.34 316.45 215.80 181.09 215.94
  Q 179.30 215.94 180.93 215.19
  C 185.04 213.30 188.08 212.25 192.86 212.26
  Q 390.02 212.72 587.19 213.25
  C 588.89 213.25 588.97 214.93 587.20 214.94
  Z"
/>
<path fill="#000000" d="
  M 588.32 220.05
  C 587.75 220.99 587.08 220.75 586.15 220.75
  Q 379.32 221.20 172.50 221.33
  Q 170.23 221.33 167.98 221.52
  Q 166.48 221.65 167.94 220.94
  C 171.28 219.34 173.98 218.00 177.87 218.00
  Q 382.81 218.28 587.72 219.00
  Q 588.95 219.00 588.32 220.05
  Z"
/>
<path fill="#000000" d="
  M 165.15 223.75
  C 305.41 223.98 445.70 223.94 585.96 224.75
  C 586.83 224.75 588.51 224.30 588.20 225.83
  A 0.68 0.61 4.7 0 1 587.56 226.32
  L 154.25 227.25
  Q 153.74 227.25 154.19 226.99
  C 157.72 224.93 160.82 223.75 165.15 223.75
  Z"
/>
<path fill="#000000" d="
  M 211.69 232.99
  C 188.26 233.01 164.72 233.68 141.38 233.08
  Q 139.26 233.02 141.23 232.26
  C 144.45 231.00 146.94 229.56 150.51 229.56
  Q 368.36 229.64 586.21 230.50
  C 586.94 230.50 589.34 229.92 588.00 231.79
  A 1.02 0.93 15.9 0 1 587.19 232.19
  C 462.02 232.62 336.85 232.87 211.69 232.99
  Z"
/>
<path fill="#000000" d="
  M 135.07 235.06
  C 282.45 234.87 384.45 235.73 586.59 236.00
  C 589.02 236.00 589.22 238.00 586.64 238.00
  C 436.34 237.96 286.04 238.66 135.74 239.00
  A 1.38 1.17 -20.3 0 1 134.86 238.68
  Q 133.40 237.32 134.31 235.50
  A 0.88 0.79 12.0 0 1 135.07 235.06
  Z"
/>
<path fill="#000000" d="
  M 147.27 276.57
  C 143.27 264.93 139.21 253.32 135.56 241.68
  A 0.71 0.71 -8.9 0 1 136.24 240.75
  L 195.47 240.75
  A 1.03 1.03 0.0 0 1 196.50 241.78
  L 196.50 276.57
  A 0.68 0.68 0.0 0 1 195.82 277.25
  L 148.23 277.25
  A 1.02 1.02 80.3 0 1 147.27 276.57
  Z"
/>
<path fill="#000000" d="
  M 215.30 277.43
  L 232.75 277.73
  A 0.59 0.57 -2.2 0 1 233.32 278.24
  Q 233.42 279.25 233.11 280.22
  A 0.73 0.67 8.2 0 1 232.43 280.69
  L 212.35 280.75
  A 0.85 0.85 -90.0 0 1 211.50 279.90
  Q 211.50 266.77 211.50 253.32
  C 211.50 250.78 211.15 249.97 214.25 250.67
  A 0.65 0.64 -83.9 0 1 214.75 251.30
  L 214.81 276.93
  A 0.50 0.49 90.0 0 0 215.30 277.43
  Z"
/>
<path fill="#000000" d="
  M 242.44 274.68
  Q 240.06 274.70 239.18 277.12
  Q 237.60 281.50 234.72 280.67
  A 0.46 0.43 -69.2 0 1 234.46 280.04
  L 247.97 251.38
  A 1.34 1.29 -87.7 0 1 248.65 250.73
  C 252.26 249.28 252.83 251.74 254.18 254.68
  Q 259.87 267.03 265.78 279.27
  Q 266.77 281.32 263.14 280.50
  A 1.15 1.15 -5.6 0 1 262.34 279.86
  L 260.22 275.35
  A 1.40 1.33 76.6 0 0 258.98 274.54
  L 242.44 274.68
  Z
  M 242.37 270.72
  A 0.36 0.36 -77.3 0 0 242.70 271.24
  L 257.70 271.26
  A 0.36 0.36 77.5 0 0 258.03 270.75
  L 250.55 254.75
  A 0.36 0.36 44.2 0 0 249.90 254.75
  L 242.37 270.72
  Z"
/>
<path fill="#000000" d="
  M 272.16 266.10
  C 269.00 264.16 268.90 256.15 270.64 253.37
  C 273.29 249.14 283.24 250.50 287.66 250.50
  C 293.42 250.50 297.88 251.79 296.89 258.57
  A 0.79 0.77 86.2 0 1 296.34 259.22
  C 292.57 260.33 294.27 256.94 293.22 255.29
  C 291.54 252.66 279.89 253.84 276.75 253.92
  C 272.35 254.04 272.63 257.52 272.91 260.79
  C 273.77 270.71 301.15 254.73 296.88 275.74
  C 295.46 282.73 283.76 280.75 278.26 280.92
  Q 268.74 281.22 269.69 271.99
  A 0.76 0.76 -5.8 0 1 270.22 271.34
  Q 273.83 270.17 273.00 274.25
  Q 272.43 277.06 275.25 277.25
  Q 281.05 277.65 286.87 277.53
  C 290.31 277.46 293.70 278.04 293.85 273.48
  C 293.97 269.86 293.64 267.50 289.47 267.50
  C 284.75 267.50 276.17 268.55 272.16 266.10
  Z"
/>
<path fill="#000000" d="
  M 306.56 277.44
  L 324.96 277.50
  A 0.89 0.88 -12.7 0 1 325.76 278.00
  Q 327.13 280.86 324.75 280.85
  Q 314.03 280.80 303.31 280.69
  A 0.53 0.52 88.9 0 1 302.79 280.18
  Q 302.13 265.95 302.78 251.04
  A 0.57 0.56 1.0 0 1 303.35 250.50
  L 325.20 250.50
  A 0.99 0.99 84.7 0 1 326.17 251.31
  C 326.67 254.02 325.74 253.75 323.81 253.75
  Q 315.28 253.75 306.68 253.75
  A 0.71 0.69 -89.6 0 0 305.99 254.45
  L 305.92 263.23
  A 0.70 0.70 0.0 0 0 306.62 263.93
  L 323.75 263.75
  A 2.15 1.29 75.9 0 1 325.25 265.25
  Q 326.00 267.41 323.50 267.36
  Q 315.16 267.18 306.82 267.07
  A 0.61 0.60 6.2 0 0 306.21 267.55
  Q 305.22 272.22 305.98 276.95
  A 0.59 0.58 -4.6 0 0 306.56 277.44
  Z"
/>
<path fill="#000000" d="
  M 334.54 269.57
  Q 334.41 273.76 334.49 277.95
  C 334.53 280.14 334.95 281.36 331.75 280.64
  A 0.99 0.99 6.7 0 1 330.99 279.68
  L 331.06 251.55
  A 0.99 0.99 -0.3 0 1 332.04 250.56
  Q 341.53 250.45 351.75 250.50
  C 355.89 250.52 357.99 253.48 358.01 257.49
  C 358.02 261.02 358.93 265.15 354.92 266.94
  Q 353.48 267.59 354.95 268.16
  C 359.46 269.93 358.29 276.11 358.20 279.94
  A 0.76 0.70 81.8 0 1 357.73 280.63
  Q 356.63 281.02 355.52 280.63
  A 0.75 0.68 -81.3 0 1 355.06 279.94
  C 355.00 276.46 356.20 269.20 350.75 269.00
  Q 347.65 268.89 335.07 269.06
  A 0.53 0.53 -88.9 0 0 334.54 269.57
  Z
  M 334.44 254.17
  L 334.44 265.30
  A 0.45 0.44 90.0 0 0 334.88 265.75
  Q 342.19 265.75 349.41 265.75
  C 352.57 265.75 354.71 264.96 354.74 261.50
  C 354.78 256.45 355.81 253.40 349.32 253.54
  Q 342.05 253.70 334.85 253.75
  A 0.42 0.41 90.0 0 0 334.44 254.17
  Z"
/>
<path fill="#000000" d="
  M 405.85 270.28
  A 1.00 1.00 -81.9 0 0 404.89 269.00
  Q 400.33 269.00 395.88 269.00
  C 393.83 269.00 392.57 268.61 393.55 266.20
  A 0.75 0.71 10.3 0 1 394.24 265.75
  L 408.22 265.75
  A 0.78 0.78 0.0 0 1 409.00 266.53
  C 409.00 271.46 410.68 280.75 402.75 280.75
  Q 395.00 280.75 387.25 280.80
  C 378.93 280.86 379.52 275.53 379.49 268.71
  C 379.44 259.39 376.23 250.56 389.34 250.49
  C 395.85 250.45 408.59 247.80 409.16 257.27
  C 409.31 259.70 408.00 259.52 406.16 259.03
  A 0.63 0.62 -78.7 0 1 405.70 258.33
  C 406.12 255.49 405.11 254.06 402.17 253.92
  Q 394.72 253.58 387.25 253.75
  C 383.73 253.83 382.75 255.03 382.75 258.56
  C 382.75 263.40 382.95 268.38 382.67 273.21
  C 382.49 276.44 384.50 277.50 387.50 277.50
  Q 394.62 277.50 401.75 277.46
  C 407.43 277.44 404.91 273.46 405.85 270.28
  Z"
/>
<path fill="#000000" d="
  M 437.68 274.55
  L 419.81 274.56
  A 0.92 0.90 -73.7 0 0 419.04 274.99
  C 417.37 277.74 417.38 281.61 413.12 280.60
  A 0.42 0.41 19.5 0 1 412.84 280.02
  L 426.36 251.26
  A 1.14 1.03 -83.3 0 1 427.04 250.66
  Q 428.62 250.21 430.20 250.65
  A 1.19 1.12 83.9 0 1 430.91 251.26
  L 444.48 279.99
  A 0.48 0.48 66.2 0 1 444.23 280.64
  C 440.58 282.08 439.59 277.04 438.44 275.00
  A 0.88 0.87 75.3 0 0 437.68 274.55
  Z
  M 420.95 270.78
  A 0.33 0.33 13.1 0 0 421.25 271.25
  L 436.23 271.25
  A 0.33 0.33 -12.3 0 0 436.53 270.78
  L 429.04 254.59
  A 0.33 0.33 44.8 0 0 428.44 254.59
  L 420.95 270.78
  Z"
/>
<path fill="#000000" d="
  M 451.31 255.32
  Q 451.20 266.80 451.25 278.28
  C 451.26 280.46 451.53 281.25 448.55 280.60
  A 0.70 0.70 6.2 0 1 448.00 279.92
  L 448.00 251.75
  A 1.36 0.89 76.1 0 1 448.31 250.86
  Q 448.95 250.23 450.01 250.39
  Q 450.50 250.47 451.00 250.39
  Q 452.82 250.14 453.81 251.94
  Q 460.21 263.55 466.83 275.67
  Q 467.29 276.51 467.74 275.67
  Q 474.26 263.77 480.31 252.81
  Q 482.22 249.36 485.96 250.64
  A 0.71 0.70 -80.9 0 1 486.44 251.31
  L 486.44 279.94
  A 0.73 0.70 80.3 0 1 485.98 280.62
  Q 483.06 281.66 483.19 278.68
  C 483.52 270.99 483.20 263.43 483.41 256.16
  Q 483.47 253.84 482.36 255.88
  Q 475.92 267.65 469.56 279.06
  Q 468.20 281.50 466.01 280.43
  A 1.77 1.15 78.3 0 1 465.33 279.74
  L 451.57 255.24
  Q 451.31 254.78 451.31 255.32
  Z"
/>
<path fill="#000000" d="
  M 498.81 277.44
  L 517.17 277.50
  A 0.95 0.94 -5.5 0 1 518.10 278.26
  C 518.69 281.20 517.82 280.73 515.75 280.76
  Q 505.59 280.88 495.44 280.58
  A 0.53 0.52 1.1 0 1 494.93 280.06
  L 494.75 251.01
  A 0.52 0.51 0.0 0 1 495.27 250.50
  L 517.46 250.50
  A 0.65 0.64 83.9 0 1 518.09 251.01
  C 518.74 254.01 518.01 253.75 515.80 253.75
  Q 507.16 253.75 498.87 253.75
  A 0.87 0.87 0.0 0 0 498.00 254.62
  L 498.00 263.28
  A 0.55 0.54 -0.0 0 0 498.55 263.82
  L 516.43 263.80
  A 1.00 0.87 -13.9 0 1 517.24 264.21
  Q 518.00 265.36 517.28 266.60
  A 0.96 0.81 13.0 0 1 516.50 267.00
  L 499.29 267.00
  A 1.21 1.12 -0.5 0 0 498.08 268.14
  L 498.25 276.94
  A 0.56 0.51 -0.5 0 0 498.81 277.44
  Z"
/>
<path fill="#000000" d="
  M 523.00 265.94
  Q 520.75 264.50 520.75 261.84
  C 520.75 258.97 520.14 255.32 521.86 253.02
  C 524.62 249.30 533.57 250.50 537.77 250.50
  C 543.80 250.50 548.68 251.11 547.99 258.44
  A 0.83 0.75 84.3 0 1 547.48 259.13
  Q 546.38 259.52 545.27 259.13
  A 0.67 0.60 -77.7 0 1 544.88 258.44
  Q 545.38 253.75 541.00 253.75
  Q 534.25 253.75 527.50 253.75
  C 523.84 253.75 523.84 256.96 523.84 259.83
  C 523.86 270.47 546.17 257.67 547.97 269.75
  C 549.02 276.82 547.18 280.75 539.56 280.75
  C 532.63 280.74 519.36 283.68 520.75 272.02
  A 0.72 0.72 87.2 0 1 521.31 271.40
  C 526.19 270.34 522.61 274.50 524.93 276.52
  C 526.81 278.15 535.23 277.58 537.87 277.53
  C 541.31 277.46 544.70 278.04 544.85 273.48
  C 544.97 269.82 544.67 267.49 540.46 267.50
  C 535.56 267.52 527.12 268.58 523.00 265.94
  Z"
/>
<rect fill="#000000" x="-0.75" y="-6.63" transform="translate(563.25,275.61) rotate(0.1)" width="1.50" height="13.26" rx="0.72"/>
<path fill="#000000" d="
  M 568.44 270.77
  C 567.12 271.14 569.08 282.87 567.18 282.26
  A 0.86 0.59 -85.1 0 1 566.75 281.50
  L 566.67 269.67
  A 0.64 0.63 86.4 0 1 567.22 269.04
  Q 569.08 268.79 569.88 270.10
  Q 572.76 274.75 575.67 279.39
  A 0.79 0.60 63.4 0 0 576.43 279.76
  C 576.91 279.62 576.67 271.15 576.60 270.05
  A 0.93 0.82 72.4 0 1 576.95 269.25
  Q 578.18 268.40 578.13 270.50
  Q 578.00 275.62 578.00 281.37
  A 0.94 0.93 85.3 0 1 577.22 282.30
  C 575.03 282.65 570.19 273.24 569.17 271.26
  A 0.83 0.53 66.3 0 0 568.44 270.77
  Z"
/>
<path fill="#000000" d="
  M 582.80 280.55
  L 587.68 280.60
  A 1.45 1.24 -80.0 0 0 588.92 279.58
  Q 589.89 276.42 590.75 278.50
  Q 592.27 282.19 588.44 282.19
  L 582.79 282.19
  Q 580.57 282.19 580.56 279.84
  Q 580.55 276.89 580.38 273.34
  C 580.16 268.89 581.98 269.01 585.84 268.93
  C 588.09 268.89 590.75 269.17 590.68 271.73
  Q 590.64 273.16 589.84 272.71
  Q 589.29 272.40 588.49 271.15
  A 1.12 0.88 69.5 0 0 587.64 270.63
  L 582.79 270.70
  A 0.79 0.60 -81.3 0 0 582.18 271.29
  Q 581.05 275.62 582.18 279.95
  A 0.80 0.59 80.3 0 0 582.80 280.55
  Z"
/>
<path fill="#000000" d="
  M 552.40 283.99
  Q 553.30 281.82 551.18 281.39
  A 0.75 0.59 6.1 0 1 550.60 280.82
  L 550.47 278.26
  A 0.76 0.68 -13.2 0 1 550.96 277.56
  Q 554.23 276.28 554.17 279.48
  C 554.11 282.61 554.79 286.35 550.19 286.10
  A 0.33 0.31 17.2 0 1 549.92 285.62
  Q 550.50 284.70 551.70 284.49
  A 0.97 0.78 3.0 0 0 552.40 283.99
  Z"
/>
</svg>
