<?xml version="1.0" encoding="UTF-8" standalone="no"?>
<!DOCTYPE svg PUBLIC "-//W3C//DTD SVG 1.1//EN" "http://www.w3.org/Graphics/SVG/1.1/DTD/svg11.dtd">
<svg xmlns="http://www.w3.org/2000/svg" version="1.1" viewBox="0 0 600 300">
<g stroke-width="2.00" fill="none" stroke-linecap="butt">
<path stroke="#ffc015" vector-effect="non-scaling-stroke" d="
  M 66.00 64.04
  L 66.00 224.96"
/>
<path stroke="#91d826" vector-effect="non-scaling-stroke" d="
  M 91.00 64.04
  L 90.93 224.97"
/>
<path stroke="#317d8c" vector-effect="non-scaling-stroke" d="
  M 115.92 64.24
  L 116.03 224.97"
/>
</g>
<path fill="#ff8029" d="
  M 66.00 64.04
  L 66.00 224.96
  L 41.78 225.00
  A 0.78 0.78 0.0 0 1 41.00 224.22
  L 41.00 64.67
  A 0.67 0.67 0.0 0 1 41.67 64.00
  L 66.00 64.04
  Z"
/>
<path fill="#ffff00" d="
  M 66.00 64.04
  L 91.00 64.04
  L 90.93 224.97
  L 66.00 224.96
  L 66.00 64.04
  Z"
/>
<path fill="#22b14c" d="
  M 91.00 64.04
  L 115.92 64.24
  L 116.03 224.97
  L 90.93 224.97
  L 91.00 64.04
  Z"
/>
<path fill="#3f48cc" d="
  M 116.03 224.97
  L 115.92 64.24
  Q 127.91 63.69 140.32 64.17
  A 0.53 0.52 -89.4 0 1 140.82 64.69
  L 141.00 224.31
  A 0.70 0.69 -0.0 0 1 140.30 225.00
  L 116.03 224.97
  Z"
/>
<path fill="#000000" d="
  M 280.90 144.00
  A 65.90 65.90 0.0 0 1 215.00 209.90
  A 65.90 65.90 0.0 0 1 149.10 144.00
  A 65.90 65.90 0.0 0 1 215.00 78.10
  A 65.90 65.90 0.0 0 1 280.90 144.00
  Z
  M 274.96 144.00
  A 59.96 59.96 0.0 0 0 215.00 84.04
  A 59.96 59.96 0.0 0 0 155.04 144.00
  A 59.96 59.96 0.0 0 0 215.00 203.96
  A 59.96 59.96 0.0 0 0 274.96 144.00
  Z"
/>
<path fill="#000000" d="
  M 498.37 142.05
  Q 498.28 143.48 499.33 142.51
  Q 506.42 135.96 513.29 138.94
  C 527.89 145.25 521.99 169.22 505.50 166.50
  C 491.68 164.22 491.81 144.50 494.73 134.36
  Q 496.31 128.87 499.37 126.12
  C 506.06 120.13 516.87 121.93 520.19 130.81
  C 521.50 134.32 518.91 133.82 516.77 133.96
  C 514.92 134.08 515.10 132.03 514.50 130.98
  C 510.18 123.44 501.86 127.35 499.75 134.62
  Q 498.61 138.54 498.37 142.05
  Z
  M 508.0388 162.5178
  A 9.97 8.57 88.8 0 0 516.3981 152.3705
  A 9.97 8.57 88.8 0 0 507.6212 142.5822
  A 9.97 8.57 88.8 0 0 499.2619 152.7295
  A 9.97 8.57 88.8 0 0 508.0388 162.5178
  Z"
/>
<path fill="#000000" d="
  M 195.56 146.81
  L 195.33 159.99
  A 0.99 0.97 -89.4 0 0 196.30 161.00
  L 220.93 161.06
  A 0.67 0.46 0.4 0 1 221.60 161.53
  L 221.46 165.12
  A 1.04 0.91 0.8 0 1 220.42 166.00
  L 190.57 166.00
  A 0.82 0.82 0.0 0 1 189.75 165.18
  L 189.75 123.66
  A 0.66 0.66 0.0 0 1 190.41 123.00
  L 219.40 123.00
  A 1.06 0.92 -0.8 0 1 220.46 123.89
  L 220.60 127.47
  A 0.66 0.45 -1.4 0 1 219.94 127.94
  L 196.20 128.18
  A 0.55 0.51 0.0 0 0 195.65 128.69
  L 195.65 140.55
  A 0.55 0.53 0.6 0 0 196.19 141.08
  L 218.02 141.24
  A 1.00 0.85 -0.6 0 1 219.02 142.07
  L 219.10 145.70
  A 0.65 0.48 -0.4 0 1 218.45 146.19
  L 196.06 146.31
  A 0.51 0.50 -89.4 0 0 195.56 146.81
  Z"
/>
<rect fill="#000000" x="-2.63" y="-3.00" transform="translate(230.88,126.00) rotate(0.4)" width="5.26" height="6.00" rx="0.60"/>
<path fill="#000000" d="
  M 306.55 149.06
  L 306.51 164.67
  A 1.12 0.98 -90.0 0 1 305.54 165.78
  L 301.29 165.83
  A 0.63 0.48 90.0 0 1 300.81 165.20
  L 300.93 123.68
  A 0.53 0.52 -1.8 0 1 301.43 123.16
  C 308.35 122.79 322.47 121.57 328.40 125.33
  C 334.88 129.43 335.25 140.54 329.10 145.47
  C 324.20 149.39 313.16 148.85 307.06 148.59
  A 0.48 0.48 2.3 0 0 306.55 149.06
  Z
  M 306.44 128.80
  L 306.56 142.93
  A 0.53 0.51 -88.9 0 0 307.05 143.46
  Q 317.67 143.86 321.25 143.25
  C 330.50 141.67 330.14 128.30 319.75 128.11
  Q 313.50 128.00 307.24 128.00
  A 0.80 0.79 -0.4 0 0 306.44 128.80
  Z"
/>
<path fill="#000000" d="
  M 541.94 123.94
  Q 543.54 121.86 546.31 123.26
  A 0.84 0.79 -77.5 0 1 546.75 124.00
  L 546.80 149.38
  Q 546.81 151.73 549.10 151.20
  Q 552.80 150.36 552.63 152.92
  C 552.56 154.12 553.02 156.06 551.19 155.88
  C 549.82 155.74 548.78 155.75 547.61 155.75
  A 0.88 0.87 -89.7 0 0 546.74 156.62
  L 546.70 165.19
  A 0.65 0.48 -89.6 0 1 546.21 165.84
  L 542.42 165.74
  A 1.20 0.98 89.9 0 1 541.46 164.56
  L 541.35 156.44
  A 0.54 0.52 0.0 0 0 540.81 155.92
  L 523.90 155.76
  A 0.94 0.90 -4.7 0 1 522.98 155.01
  C 522.32 151.34 522.86 151.00 525.01 147.88
  Q 537.69 129.44 541.94 123.94
  Z
  M 540.68 133.11
  L 528.61 149.94
  Q 527.90 150.94 529.12 150.95
  L 540.77 151.00
  A 0.96 0.90 -90.0 0 0 541.67 150.04
  L 541.64 133.45
  Q 541.64 131.77 540.68 133.11
  Z"
/>
<path fill="#000000" d="
  M 337.83 156.84
  C 330.08 130.77 366.67 124.73 366.01 150.84
  A 0.96 0.94 0.6 0 1 365.05 151.76
  L 342.94 151.92
  A 0.50 0.49 -1.7 0 0 342.45 152.43
  C 342.70 160.33 351.79 166.31 358.00 160.25
  C 360.27 158.04 360.41 154.34 365.13 156.94
  A 0.65 0.63 -68.1 0 1 365.43 157.68
  C 361.68 170.67 341.55 169.33 337.83 156.84
  Z
  M 360.54 146.81
  C 359.81 135.10 343.42 135.63 342.59 146.94
  A 0.47 0.46 -88.3 0 0 343.06 147.45
  L 360.07 147.33
  A 0.49 0.47 88.3 0 0 360.54 146.81
  Z"
/>
<path fill="#000000" d="
  M 381.44 166.58
  C 363.42 164.63 365.72 129.51 387.06 134.45
  C 391.84 135.55 393.50 138.13 395.38 142.29
  Q 396.38 144.51 393.57 144.36
  Q 393.12 144.33 392.60 144.51
  Q 391.73 144.80 390.90 144.52
  A 1.10 0.85 87.1 0 1 390.31 143.83
  C 388.61 138.07 382.07 136.27 377.91 140.48
  C 373.14 145.30 373.04 159.89 381.11 162.05
  Q 388.47 164.01 391.15 155.52
  A 1.50 1.22 10.5 0 1 392.68 154.69
  L 395.47 155.00
  A 0.98 0.90 9.2 0 1 396.34 156.10
  C 394.61 163.70 389.09 167.41 381.44 166.58
  Z"
/>
<path fill="#000000" d="
  M 404.00 135.88
  C 409.15 132.74 416.88 133.52 421.29 137.82
  C 425.64 142.05 426.75 150.29 425.19 155.94
  Q 422.20 166.72 411.00 166.75
  C 395.29 166.80 392.14 143.10 404.00 135.88
  Z
  M 411.3370 162.6699
  A 12.31 9.33 90.2 0 0 420.7099 150.3926
  A 12.31 9.33 90.2 0 0 411.4230 138.0501
  A 12.31 9.33 90.2 0 0 402.0501 150.3274
  A 12.31 9.33 90.2 0 0 411.3370 162.6699
  Z"
/>
<path fill="#000000" d="
  M 435.75 137.41
  Q 435.31 139.24 436.62 137.89
  C 441.29 133.08 449.97 131.86 453.48 138.63
  A 0.53 0.52 50.1 0 0 454.36 138.71
  C 459.73 131.88 472.20 131.72 472.90 142.64
  Q 473.57 153.16 473.21 164.73
  A 1.04 0.91 -89.6 0 1 472.32 165.74
  L 468.54 165.84
  A 0.65 0.47 89.0 0 1 468.06 165.20
  Q 467.95 154.97 467.85 144.75
  C 467.75 134.76 454.96 137.41 454.86 146.50
  Q 454.75 155.50 454.75 165.13
  A 0.88 0.85 -89.7 0 1 453.89 166.01
  L 450.36 165.97
  A 0.95 0.91 -89.1 0 1 449.47 165.01
  C 449.57 159.72 450.69 143.79 448.10 140.26
  C 445.49 136.72 439.27 138.78 437.39 142.38
  C 435.09 146.78 436.16 159.43 436.27 164.95
  A 0.92 0.85 89.3 0 1 435.42 165.89
  L 431.69 165.90
  A 0.61 0.52 88.9 0 1 431.17 165.31
  Q 430.69 150.40 431.23 135.50
  A 0.73 0.70 82.6 0 1 431.72 134.84
  Q 436.78 133.18 435.75 137.41
  Z"
/>
<rect fill="#000000" x="228.25" y="134.75" width="5.26" height="31.26" rx="0.60"/>
</svg>
