<?xml version="1.0" encoding="UTF-8" standalone="no"?>
<!DOCTYPE svg PUBLIC "-//W3C//DTD SVG 1.1//EN" "http://www.w3.org/Graphics/SVG/1.1/DTD/svg11.dtd">
<svg xmlns="http://www.w3.org/2000/svg" version="1.1" viewBox="0 0 600 300">
<g stroke-width="2.00" fill="none" stroke-linecap="butt">
<path stroke="#c9c8ca" vector-effect="non-scaling-stroke" d="
  M 304.75 0.29
  Q 304.82 1.33 303.55 1.16
  Q 303.26 1.12 303.54 1.20
  Q 308.47 2.65 313.38 4.17
  C 315.51 4.83 318.24 4.70 320.94 6.31
  Q 324.27 8.30 330.50 10.25
  Q 332.98 11.03 333.54 13.25"
/>
<path stroke="#e5e4e5" vector-effect="non-scaling-stroke" d="
  M 333.54 13.25
  Q 332.40 14.31 330.75 14.04"
/>
<path stroke="#dbdbdc" vector-effect="non-scaling-stroke" d="
  M 330.75 14.04
  Q 328.95 14.19 328.15 12.75
  A 1.56 1.08 78.0 0 0 327.48 12.12
  C 325.16 11.16 323.12 11.14 320.90 10.01
  C 315.91 7.49 312.26 6.84 307.57 6.00
  C 298.38 4.36 288.45 5.17 279.46 7.49
  C 277.47 8.00 266.48 9.99 265.56 12.20
  A 0.80 0.80 -82.1 0 1 264.93 12.68
  L 262.78 12.96"
/>
<path stroke="#e5e4e5" vector-effect="non-scaling-stroke" d="
  M 262.78 12.96
  Q 259.43 10.87 259.50 13.96"
/>
<path stroke="#6fb16c" vector-effect="non-scaling-stroke" d="
  M 259.50 13.96
  L 249.75 14.79"
/>
<path stroke="#efefef" vector-effect="non-scaling-stroke" d="
  M 330.75 14.04
  L 318.47 17.37
  A 0.82 0.80 60.5 0 1 317.66 17.13
  C 313.83 12.94 305.52 10.92 299.50 10.51
  Q 285.90 9.58 273.46 14.81
  A 1.12 1.06 46.6 0 1 272.56 14.76
  Q 271.22 14.07 269.72 13.85
  Q 268.21 13.63 266.40 13.14
  Q 264.66 12.67 262.78 12.96"
/>
<path stroke="#67a964" vector-effect="non-scaling-stroke" d="
  M 351.75 15.54
  Q 344.56 13.17 337.00 14.21"
/>
<path stroke="#dddcdd" vector-effect="non-scaling-stroke" d="
  M 337.00 14.21
  C 337.47 12.34 334.59 13.38 333.54 13.25"
/>
<path stroke="#83c57f" vector-effect="non-scaling-stroke" d="
  M 337.00 14.21
  Q 317.64 17.88 300.66 28.05
  A 0.87 0.87 44.1 0 1 299.77 28.06
  C 288.35 21.42 272.76 14.50 259.50 13.96"
/>
<path stroke="#1a980a" vector-effect="non-scaling-stroke" d="
  M 358.99 21.29
  Q 333.66 16.90 311.70 29.18
  Q 310.46 29.86 308.43 31.55
  C 306.07 33.51 303.62 34.35 301.57 36.85
  A 0.34 0.31 -38.2 0 1 301.03 36.81
  L 299.20 32.96
  A 0.94 0.88 79.8 0 0 298.50 32.44
  Q 293.62 31.78 289.75 29.50
  Q 279.45 23.44 268.25 21.25
  Q 256.98 19.04 241.71 20.55"
/>
<path stroke="#6ca861" vector-effect="non-scaling-stroke" d="
  M 365.75 26.96
  Q 362.86 26.33 360.21 27.50"
/>
<path stroke="#74b069" vector-effect="non-scaling-stroke" d="
  M 360.21 27.50
  Q 358.55 27.45 357.25 28.46"
/>
<path stroke="#91c687" vector-effect="non-scaling-stroke" d="
  M 357.25 28.46
  C 345.23 33.75 335.98 42.47 326.50 51.29"
/>
<path stroke="#46ad1b" vector-effect="non-scaling-stroke" d="
  M 326.50 51.29
  Q 326.19 50.39 326.81 49.81
  Q 330.37 46.54 332.92 43.05"
/>
<path stroke="#3baa17" vector-effect="non-scaling-stroke" d="
  M 332.92 43.05
  Q 339.17 39.15 345.05 33.13"
/>
<path stroke="#31a513" vector-effect="non-scaling-stroke" d="
  M 345.05 33.13
  L 354.07 28.31
  Q 357.65 26.40 353.59 25.79
  Q 333.69 22.84 315.62 32.83
  Q 314.99 33.18 312.25 34.40
  C 309.93 35.43 307.88 37.50 306.10 38.72
  C 303.99 40.17 301.66 45.29 300.01 40.56
  Q 299.35 38.66 297.39 38.16
  C 293.95 37.28 291.44 36.61 288.26 34.56
  Q 268.40 21.72 244.48 25.75
  Q 243.62 25.90 244.18 26.58
  Q 245.84 28.59 248.50 29.50
  Q 250.29 30.11 255.46 34.00"
/>
<path stroke="#3baa17" vector-effect="non-scaling-stroke" d="
  M 255.46 34.00
  Q 262.04 38.59 267.46 44.50"
/>
<path stroke="#46ad1b" vector-effect="non-scaling-stroke" d="
  M 267.46 44.50
  Q 268.76 45.49 269.21 47.00"
/>
<path stroke="#90cd85" vector-effect="non-scaling-stroke" d="
  M 269.21 47.00
  C 261.30 39.35 251.00 30.53 240.25 27.46"
/>
<path stroke="#78b46d" vector-effect="non-scaling-stroke" d="
  M 240.25 27.46
  Q 237.47 26.31 234.50 26.96"
/>
<path stroke="#e3dbe5" vector-effect="non-scaling-stroke" d="
  M 354.50 30.79
  L 350.21 33.25"
/>
<path stroke="#e9e1ea" vector-effect="non-scaling-stroke" d="
  M 350.21 33.25
  Q 342.93 38.10 336.46 44.00"
/>
<path stroke="#efe6f0" vector-effect="non-scaling-stroke" d="
  M 336.46 44.00
  L 328.44 51.42
  A 1.23 1.17 49.9 0 0 328.34 53.04
  L 337.40 64.60"
/>
<path stroke="#e9e1ea" vector-effect="non-scaling-stroke" d="
  M 337.40 64.60
  L 348.22 80.31"
/>
<path stroke="#e3dbe5" vector-effect="non-scaling-stroke" d="
  M 348.22 80.31
  Q 358.62 96.08 367.25 113.04"
/>
<path stroke="#e7dee8" vector-effect="non-scaling-stroke" d="
  M 367.25 113.04
  Q 374.36 126.71 376.87 141.84"
/>
<path stroke="#e3dbe5" vector-effect="non-scaling-stroke" d="
  M 376.87 141.84
  Q 376.60 145.20 377.79 148.00"
/>
<path stroke="#89c183" vector-effect="non-scaling-stroke" d="
  M 374.25 152.79
  L 374.00 152.71"
/>
<path stroke="#81bc80" vector-effect="non-scaling-stroke" d="
  M 374.00 152.71
  C 384.82 130.21 340.33 69.70 325.96 52.50"
/>
<path stroke="#b1d492" vector-effect="non-scaling-stroke" d="
  M 325.96 52.50
  Q 325.97 51.77 326.50 51.29"
/>
<path stroke="#e2e2e3" vector-effect="non-scaling-stroke" d="
  M 240.25 27.46
  Q 239.40 27.89 240.04 28.50"
/>
<path stroke="#d4d3d5" vector-effect="non-scaling-stroke" d="
  M 240.04 28.50
  C 233.42 36.73 226.69 44.99 222.63 54.84
  C 215.34 72.51 212.99 97.17 222.30 114.83
  C 222.58 115.35 226.37 125.30 228.50 123.04"
/>
<path stroke="#e2e2e3" vector-effect="non-scaling-stroke" d="
  M 228.50 123.04
  Q 227.39 127.52 224.75 132.97"
/>
<path stroke="#c3c2c4" vector-effect="non-scaling-stroke" d="
  M 224.75 132.97
  Q 217.63 123.38 214.69 112.56
  Q 210.76 98.13 212.29 82.50
  Q 213.43 70.82 214.00 68.75
  C 216.40 60.04 219.66 51.58 224.61 43.99
  Q 227.01 40.31 229.38 36.60
  C 230.55 34.78 232.02 33.30 233.38 31.58
  A 1.35 1.29 -28.9 0 0 233.66 30.69
  L 233.46 28.00"
/>
<path stroke="#b9b8bb" vector-effect="non-scaling-stroke" d="
  M 391.71 71.75
  Q 391.38 72.66 390.53 73.03
  A 0.80 0.70 53.6 0 1 389.70 72.85
  C 387.70 70.90 387.39 68.17 386.22 66.20
  C 382.85 60.54 380.00 53.72 375.96 48.63
  Q 375.64 48.23 375.35 47.80
  Q 368.57 37.70 360.20 30.52
  A 0.98 0.76 -69.9 0 1 359.94 29.71
  L 360.21 27.50"
/>
<path stroke="#5bb823" vector-effect="non-scaling-stroke" d="
  M 332.92 43.05
  Q 323.24 45.02 315.65 51.35
  Q 315.61 51.38 313.84 52.62
  C 309.49 55.66 305.22 62.13 302.37 66.70
  Q 301.43 68.21 300.98 66.49
  Q 300.05 62.94 300.56 59.06
  Q 300.78 57.31 299.69 55.91
  Q 298.14 53.95 297.08 54.87
  A 1.90 0.93 -54.7 0 1 296.25 55.32
  L 294.69 55.59
  A 1.08 0.85 -77.1 0 0 293.99 56.15
  C 293.17 57.76 292.34 56.07 291.79 55.65
  Q 288.42 53.04 285.35 50.09
  Q 285.02 49.78 284.50 49.63
  C 282.57 49.09 281.24 47.47 279.99 46.77
  Q 275.61 44.36 270.73 43.15
  C 269.45 42.84 265.92 40.39 267.46 44.50"
/>
<path stroke="#46b01b" vector-effect="non-scaling-stroke" d="
  M 345.05 33.13
  Q 322.53 32.95 306.94 48.19
  Q 304.41 50.65 302.99 51.77
  C 302.20 52.39 300.25 55.80 300.45 51.56
  C 300.53 49.72 299.43 48.00 298.11 46.81
  A 0.38 0.33 -55.1 0 0 297.57 46.94
  Q 297.33 47.38 297.05 47.15
  Q 296.33 46.57 296.28 46.56
  L 292.32 45.91
  Q 291.61 45.79 291.40 45.64
  C 287.09 42.59 282.66 39.10 278.16 37.02
  C 273.08 34.67 261.51 30.68 255.41 32.53
  A 0.48 0.44 70.6 0 0 255.14 33.15
  L 255.46 34.00"
/>
<path stroke="#b0db90" vector-effect="non-scaling-stroke" d="
  M 269.21 47.00
  L 274.48 52.39"
/>
<path stroke="#84c680" vector-effect="non-scaling-stroke" d="
  M 274.48 52.39
  Q 252.36 79.22 236.19 109.88
  C 230.75 120.22 226.19 131.06 224.71 142.75"
/>
<path stroke="#dbdbdc" vector-effect="non-scaling-stroke" d="
  M 224.71 142.75
  C 224.04 144.12 223.11 144.68 223.54 142.75
  Q 224.72 137.36 224.75 132.97"
/>
<path stroke="#ececec" vector-effect="non-scaling-stroke" d="
  M 228.50 123.04
  Q 234.06 109.56 241.46 97.00"
/>
<path stroke="#f3f2f3" vector-effect="non-scaling-stroke" d="
  M 241.46 97.00
  L 247.46 87.00"
/>
<path stroke="#f7f7f7" vector-effect="non-scaling-stroke" d="
  M 247.46 87.00
  L 251.20 80.92
  Q 252.35 79.05 251.27 77.15
  Q 249.64 74.29 249.05 70.60
  C 248.29 65.78 246.76 61.31 247.62 56.23
  C 248.25 52.45 248.87 48.77 250.66 45.41
  C 251.70 43.46 252.47 40.38 254.74 38.51
  A 0.99 0.92 -46.1 0 0 254.76 37.01
  L 250.06 33.53"
/>
<path stroke="#f3f2f3" vector-effect="non-scaling-stroke" d="
  M 250.06 33.53
  L 246.21 31.24"
/>
<path stroke="#ececec" vector-effect="non-scaling-stroke" d="
  M 246.21 31.24
  Q 242.84 29.04 240.04 28.50"
/>
<path stroke="#c6c5c7" vector-effect="non-scaling-stroke" d="
  M 393.93 104.29
  Q 390.84 102.68 390.22 99.22
  Q 389.61 95.81 389.58 95.72
  Q 386.50 85.02 381.92 74.87
  C 380.87 72.55 380.73 70.86 378.47 69.22
  A 1.54 1.41 11.7 0 1 377.92 68.46
  C 377.23 66.09 376.66 64.26 376.24 61.55
  C 375.97 59.73 374.85 58.67 374.07 57.37
  Q 369.63 50.03 364.95 42.84
  C 362.04 38.39 358.13 34.75 354.50 30.79"
/>
<path stroke="#dfd6e0" vector-effect="non-scaling-stroke" d="
  M 354.50 30.79
  C 355.17 30.29 358.33 29.42 357.25 28.46"
/>
<path stroke="#36a414" vector-effect="non-scaling-stroke" d="
  M 325.96 52.50
  Q 325.49 52.61 325.26 52.95"
/>
<path stroke="#75bf2b" vector-effect="non-scaling-stroke" d="
  M 325.26 52.95
  Q 323.87 53.77 322.50 53.78
  A 1.73 1.27 20.4 0 0 321.59 54.04
  Q 311.97 61.00 305.99 71.20
  C 305.23 72.50 304.72 74.76 303.12 76.47"
/>
<path stroke="#53b41f" vector-effect="non-scaling-stroke" d="
  M 303.12 76.47
  Q 300.77 73.59 298.17 75.66"
/>
<path stroke="#75bf2b" vector-effect="non-scaling-stroke" d="
  M 298.17 75.66
  Q 294.37 71.61 291.36 67.00
  C 288.85 63.17 283.60 57.69 279.37 55.30
  A 1.12 0.83 -35.9 0 0 278.50 55.29
  C 276.71 55.98 278.15 51.81 275.29 53.25"
/>
<path stroke="#3aa616" vector-effect="non-scaling-stroke" d="
  M 275.29 53.25
  Q 275.11 52.64 274.48 52.39"
/>
<path stroke="#dbdbdc" vector-effect="non-scaling-stroke" d="
  M 337.40 64.60
  Q 340.64 55.88 338.47 46.87
  C 338.13 45.46 337.34 45.05 336.46 44.00"
/>
<path stroke="#cecdcf" vector-effect="non-scaling-stroke" d="
  M 376.87 141.84
  Q 380.24 136.36 381.31 133.19
  Q 383.51 126.70 385.11 116.59
  C 385.82 112.11 389.00 101.51 380.49 102.43
  C 373.04 103.24 373.33 114.45 367.25 113.04"
/>
<path stroke="#d0cfd1" vector-effect="non-scaling-stroke" d="
  M 348.22 80.31
  Q 349.42 74.75 351.31 69.56
  Q 351.73 68.41 352.36 65.92
  C 353.00 63.36 354.98 61.49 355.00 58.43
  A 1.57 1.56 63.8 0 1 355.32 57.48
  Q 358.41 53.32 357.36 49.20
  C 356.59 46.17 356.55 44.73 357.08 42.04
  A 1.06 0.90 33.9 0 0 356.84 41.19
  L 350.21 33.25"
/>
<path stroke="#0e9105" vector-effect="non-scaling-stroke" d="
  M 374.00 152.71
  L 372.27 153.75
  A 0.36 0.32 73.8 0 1 371.78 153.44
  C 371.65 151.57 369.81 134.50 368.24 133.28
  A 0.89 0.23 34.3 0 1 367.78 132.75
  C 367.41 128.46 365.61 124.51 364.50 121.17
  Q 357.10 98.74 341.44 78.56
  C 336.42 72.10 331.04 65.79 324.95 60.87
  A 0.91 0.79 -34.1 0 0 324.10 60.77
  Q 322.24 61.48 323.21 58.75"
/>
<path stroke="#45a719" vector-effect="non-scaling-stroke" d="
  M 323.21 58.75
  L 325.26 52.95"
/>
<path stroke="#6faf69" vector-effect="non-scaling-stroke" d="
  M 364.25 163.71
  L 364.21 162.75"
/>
<path stroke="#7bbb75" vector-effect="non-scaling-stroke" d="
  M 364.21 162.75
  C 366.67 153.68 361.52 144.90 357.48 137.08"
/>
<path stroke="#1e9a0c" vector-effect="non-scaling-stroke" d="
  M 357.48 137.08
  Q 362.99 142.79 365.20 150.52
  A 1.26 0.62 24.5 0 0 365.70 151.13
  Q 365.89 151.26 366.01 151.47
  Q 366.22 151.82 366.29 151.46
  Q 366.88 148.41 366.00 144.00
  Q 358.98 108.95 338.07 81.90
  C 337.08 80.63 336.47 78.71 335.50 77.75
  C 330.99 73.32 328.02 68.09 322.86 64.23
  A 0.50 0.50 -55.6 0 0 322.13 64.37
  C 321.95 64.66 319.46 70.85 319.46 67.50"
/>
<path stroke="#e4e4e5" vector-effect="non-scaling-stroke" d="
  M 246.21 31.24
  Q 236.89 43.04 232.48 57.27
  Q 231.78 59.52 231.80 62.33
  C 231.83 67.40 230.22 71.55 231.49 76.41
  C 232.78 81.37 236.41 89.15 240.06 93.69
  Q 241.39 95.34 241.46 97.00"
/>
<path stroke="#65a661" vector-effect="non-scaling-stroke" d="
  M 224.71 142.75
  Q 224.47 148.47 226.71 153.75"
/>
<path stroke="#efefef" vector-effect="non-scaling-stroke" d="
  M 250.06 33.53
  Q 244.15 41.87 241.82 51.71
  C 241.34 53.73 239.93 56.01 239.93 58.53
  C 239.92 62.70 239.47 69.00 240.00 70.50
  C 242.15 76.60 243.78 83.82 247.22 85.37
  A 0.58 0.54 -70.6 0 1 247.51 86.04
  Q 247.38 86.52 247.46 87.00"
/>
<path stroke="#48aa1a" vector-effect="non-scaling-stroke" d="
  M 275.29 53.25
  L 280.54 66.75"
/>
<path stroke="#189709" vector-effect="non-scaling-stroke" d="
  M 280.54 66.75
  C 279.71 68.73 279.13 64.25 277.31 63.88
  A 1.06 0.93 -58.8 0 0 276.45 64.15
  Q 264.22 75.33 256.31 87.31
  Q 255.49 88.55 254.76 89.07
  A 1.75 0.99 -18.9 0 0 254.14 89.77
  Q 253.38 91.62 251.19 95.19
  Q 233.70 123.62 230.71 158.25"
/>
<path stroke="#4cac1c" vector-effect="non-scaling-stroke" d="
  M 323.21 58.75
  L 319.46 67.50"
/>
<path stroke="#55b11f" vector-effect="non-scaling-stroke" d="
  M 319.46 67.50
  L 317.46 72.25"
/>
<path stroke="#60b723" vector-effect="non-scaling-stroke" d="
  M 317.46 72.25
  L 315.71 76.75"
/>
<path stroke="#6abc27" vector-effect="non-scaling-stroke" d="
  M 315.71 76.75
  L 314.03 79.65"
/>
<path stroke="#75bf2b" vector-effect="non-scaling-stroke" d="
  M 314.03 79.65
  L 312.48 83.31
  A 0.43 0.43 29.4 0 1 311.83 83.49
  L 308.00 80.71"
/>
<path stroke="#62b824" vector-effect="non-scaling-stroke" d="
  M 308.00 80.71
  L 303.12 76.47"
/>
<path stroke="#62b824" vector-effect="non-scaling-stroke" d="
  M 298.17 75.66
  L 288.25 84.04"
/>
<path stroke="#75bf2b" vector-effect="non-scaling-stroke" d="
  M 288.25 84.04
  L 285.39 78.29"
/>
<path stroke="#62b824" vector-effect="non-scaling-stroke" d="
  M 285.39 78.29
  L 283.00 72.46"
/>
<path stroke="#53b01e" vector-effect="non-scaling-stroke" d="
  M 283.00 72.46
  L 280.54 66.75"
/>
<path stroke="#53b41f" vector-effect="non-scaling-stroke" d="
  M 285.39 78.29
  C 277.18 85.50 267.52 95.90 264.09 106.46
  A 1.53 1.04 -15.9 0 1 263.50 107.17
  Q 262.96 107.53 263.15 107.90
  A 0.48 0.37 -39.4 0 0 263.85 107.88
  Q 275.48 95.37 288.25 84.04"
/>
<path stroke="#53b41f" vector-effect="non-scaling-stroke" d="
  M 308.00 80.71
  L 307.25 81.29"
/>
<path stroke="#a0d68c" vector-effect="non-scaling-stroke" d="
  M 307.25 81.29
  L 300.67 75.86
  A 0.80 0.79 45.3 0 0 299.67 75.85
  Q 269.33 100.24 247.04 131.00"
/>
<path stroke="#d5d4d6" vector-effect="non-scaling-stroke" d="
  M 364.21 162.75
  C 361.46 165.36 363.12 160.36 363.34 159.61"
/>
<path stroke="#d9d8da" vector-effect="non-scaling-stroke" d="
  M 363.34 159.61
  C 365.37 156.25 359.88 144.69 358.00 141.46"
/>
<path stroke="#d5d4d6" vector-effect="non-scaling-stroke" d="
  M 358.00 141.46
  L 353.46 133.81"
/>
<path stroke="#d1d0d2" vector-effect="non-scaling-stroke" d="
  M 353.46 133.81
  Q 348.44 126.17 342.74 119.46"
/>
<path stroke="#d4d3d4" vector-effect="non-scaling-stroke" d="
  M 342.74 119.46
  L 340.04 116.25"
/>
<path stroke="#d8d8d9" vector-effect="non-scaling-stroke" d="
  M 340.04 116.25
  L 336.36 111.79"
/>
<path stroke="#dddcdd" vector-effect="non-scaling-stroke" d="
  M 336.36 111.79
  L 331.38 106.58
  A 0.32 0.30 -59.8 0 0 330.87 106.73
  C 328.79 113.73 320.48 120.52 314.50 123.82
  Q 314.15 124.02 313.82 124.50
  C 313.21 125.42 312.06 125.48 311.36 125.83
  C 302.28 130.45 285.51 132.34 276.69 127.56
  C 273.78 125.99 271.66 126.52 269.27 125.64
  Q 264.40 123.84 259.87 121.31
  Q 259.50 121.10 259.21 120.62
  C 258.21 119.00 257.18 121.59 255.75 121.71"
/>
<path stroke="#cdccce" vector-effect="non-scaling-stroke" d="
  M 358.00 141.46
  Q 350.95 147.03 349.50 148.75
  C 342.26 157.36 330.90 161.14 320.97 165.67
  C 314.53 168.60 308.18 170.02 301.47 171.61
  Q 300.03 171.95 298.16 173.64
  A 2.34 2.31 -64.3 0 1 296.48 174.24
  Q 292.53 174.03 287.81 175.46
  A 0.70 0.70 64.9 0 0 287.43 176.52
  C 288.84 178.65 290.53 179.91 293.27 180.15
  C 300.44 180.78 307.69 182.11 314.58 181.22
  Q 322.73 180.17 330.56 177.69
  C 335.65 176.08 341.38 172.95 346.79 170.69
  A 1.28 0.68 -78.6 0 0 347.35 170.01
  Q 347.51 169.61 347.94 169.49
  Q 348.69 169.28 348.86 169.16
  C 352.35 166.90 355.57 164.97 358.32 161.79
  Q 360.14 159.69 363.34 159.61"
/>
<path stroke="#84c078" vector-effect="non-scaling-stroke" d="
  M 357.48 137.08
  Q 350.10 126.25 341.66 116.01"
/>
<path stroke="#3baa17" vector-effect="non-scaling-stroke" d="
  M 341.66 116.01
  Q 344.58 115.99 345.75 118.79"
/>
<path stroke="#31a513" vector-effect="non-scaling-stroke" d="
  M 345.75 118.79
  C 347.14 120.48 356.91 134.17 357.44 134.22
  A 0.44 0.39 85.3 0 0 357.84 133.69
  C 356.50 126.75 354.52 122.43 351.10 113.92
  Q 344.78 98.18 333.95 85.05
  C 332.14 82.86 329.20 78.60 326.16 75.83
  C 324.41 74.24 323.21 72.01 320.32 70.38
  A 0.89 0.85 26.8 0 0 319.08 70.76
  L 318.41 72.32
  A 1.17 0.56 -75.2 0 1 317.84 72.99
  Q 317.38 73.13 317.46 72.25"
/>
<path stroke="#31a513" vector-effect="non-scaling-stroke" d="
  M 283.00 72.46
  C 280.84 72.34 281.27 67.38 277.79 70.82
  Q 250.72 97.60 240.71 134.49
  Q 240.27 136.10 241.07 136.75
  A 0.52 0.44 -53.6 0 0 241.77 136.59
  C 242.30 135.81 245.99 128.71 247.04 131.00"
/>
<path stroke="#91ce86" vector-effect="non-scaling-stroke" d="
  M 247.04 131.00
  L 243.71 136.50"
/>
<path stroke="#7cac77" vector-effect="non-scaling-stroke" d="
  M 243.71 136.50
  C 239.74 142.39 232.23 156.57 236.54 163.50"
/>
<path stroke="#6fac65" vector-effect="non-scaling-stroke" d="
  M 236.54 163.50
  L 236.46 164.00"
/>
<path stroke="#46b01b" vector-effect="non-scaling-stroke" d="
  M 345.75 118.79
  C 347.92 120.79 347.31 118.39 347.00 117.56
  Q 338.19 94.29 319.81 76.19
  Q 318.36 74.75 317.12 75.67
  A 1.32 0.81 85.1 0 0 316.71 76.49
  Q 316.53 77.81 315.71 76.75"
/>
<path stroke="#99cb80" vector-effect="non-scaling-stroke" d="
  M 341.66 116.01
  L 332.53 105.84"
/>
<path stroke="#a2d489" vector-effect="non-scaling-stroke" d="
  M 332.53 105.84
  Q 328.79 101.24 324.48 97.66"
/>
<path stroke="#a8da8f" vector-effect="non-scaling-stroke" d="
  M 324.48 97.66
  L 312.21 84.85"
/>
<path stroke="#5bb823" vector-effect="non-scaling-stroke" d="
  M 312.21 84.85
  Q 322.07 91.84 330.10 100.81
  Q 330.47 101.22 330.42 100.68
  Q 330.28 99.16 329.06 97.19
  C 325.00 90.62 320.09 84.34 314.03 79.65"
/>
<path stroke="#b3dd93" vector-effect="non-scaling-stroke" d="
  M 307.25 81.29
  Q 309.39 83.60 312.21 84.85"
/>
<path stroke="#f9f9f9" vector-effect="non-scaling-stroke" d="
  M 324.48 97.66
  Q 319.78 95.53 316.17 91.85
  C 314.81 90.46 312.53 88.75 311.65 91.74
  Q 311.15 93.42 311.70 95.09
  C 312.87 98.65 311.44 104.94 306.96 105.62
  Q 304.07 106.06 300.46 107.97
  A 2.29 2.28 -52.1 0 1 298.89 108.17
  C 294.47 107.12 290.42 107.01 285.85 107.22
  Q 282.82 107.36 280.34 106.47
  Q 278.09 105.66 278.42 103.29
  C 279.76 93.91 268.65 107.27 267.75 108.21"
/>
<path stroke="#f5f5f5" vector-effect="non-scaling-stroke" d="
  M 267.75 108.21
  Q 264.12 111.12 261.50 114.96"
/>
<path stroke="#f0f0f0" vector-effect="non-scaling-stroke" d="
  M 261.50 114.96
  L 255.75 121.71"
/>
<path stroke="#ececec" vector-effect="non-scaling-stroke" d="
  M 255.75 121.71
  L 254.00 123.71"
/>
<path stroke="#e7e7e8" vector-effect="non-scaling-stroke" d="
  M 254.00 123.71
  L 249.04 130.50"
/>
<path stroke="#e3e3e3" vector-effect="non-scaling-stroke" d="
  M 249.04 130.50
  L 244.50 137.29"
/>
<path stroke="#ebddf0" vector-effect="non-scaling-stroke" d="
  M 244.50 137.29
  L 243.71 136.50"
/>
<path stroke="#c5c4c6" vector-effect="non-scaling-stroke" d="
  M 353.46 133.81
  Q 349.74 136.98 346.96 140.72
  C 342.50 146.72 336.65 150.03 330.19 153.44
  C 328.23 154.47 327.23 156.28 324.98 157.01
  Q 321.65 158.08 318.24 158.89
  Q 317.78 159.00 317.39 159.33
  C 313.92 162.39 309.80 161.39 305.91 164.20
  A 1.90 1.73 -62.8 0 1 305.00 164.54
  Q 301.04 164.88 297.17 165.78
  C 294.61 166.37 291.34 166.44 288.06 168.06
  C 286.01 169.08 283.48 167.97 281.64 168.02
  Q 274.32 168.23 265.83 170.03
  A 0.67 0.67 70.7 0 0 265.37 170.99
  C 266.57 173.36 269.16 174.55 271.01 176.17
  C 274.64 179.36 282.37 181.43 287.01 182.86
  C 290.61 183.98 296.15 185.04 299.25 185.00
  C 303.27 184.95 304.12 184.87 307.35 187.16
  Q 308.68 188.11 310.50 188.21"
/>
<path stroke="#bfbec0" vector-effect="non-scaling-stroke" d="
  M 267.00 182.96
  Q 266.83 179.54 264.44 177.56
  Q 258.29 172.47 253.81 167.44
  Q 252.08 165.49 252.41 163.24
  A 1.16 0.96 -16.1 0 1 252.92 162.49
  L 255.58 160.78
  A 1.62 1.54 28.7 0 1 256.49 160.54
  C 258.92 160.68 260.91 159.39 263.45 160.05
  A 1.25 0.84 26.9 0 0 264.37 159.94
  Q 265.16 159.37 265.12 158.30
  A 0.68 0.56 82.4 0 1 265.53 157.64
  Q 266.26 157.43 267.03 157.61
  A 2.01 1.11 28.4 0 0 267.99 157.60
  Q 270.11 156.90 267.99 156.36
  A 1.61 1.61 76.1 0 1 267.18 155.87
  C 265.25 153.70 263.10 153.77 261.00 152.94
  Q 252.06 149.39 244.16 142.63
  A 1.29 1.28 15.6 0 1 243.73 141.88
  Q 243.43 140.27 242.29 141.25"
/>
<path stroke="#ccbdd1" vector-effect="non-scaling-stroke" d="
  M 242.29 141.25
  L 243.79 138.75"
/>
<path stroke="#c4c3c5" vector-effect="non-scaling-stroke" d="
  M 342.74 119.46
  Q 337.83 125.81 331.70 130.99
  C 329.41 132.93 326.50 133.59 323.87 135.56
  Q 321.48 137.34 319.58 138.11
  C 315.22 139.86 310.85 142.29 306.66 143.60
  Q 301.45 145.23 296.11 146.41
  C 292.12 147.28 287.67 146.38 283.25 146.50
  Q 272.41 146.79 260.89 144.53
  Q 259.80 144.32 258.25 143.57
  C 256.04 142.49 253.60 142.28 251.63 141.29
  Q 248.86 139.89 246.02 138.64
  A 1.79 1.36 -31.3 0 0 245.07 138.54
  L 243.79 138.75"
/>
<path stroke="#cfc0d4" vector-effect="non-scaling-stroke" d="
  M 243.79 138.75
  L 244.50 137.29"
/>
<path stroke="#cbcbcc" vector-effect="non-scaling-stroke" d="
  M 340.04 116.25
  C 334.61 123.38 327.21 130.63 318.53 133.45
  C 311.14 135.85 306.18 139.28 297.75 140.25
  Q 275.23 142.85 254.97 135.03
  C 254.06 134.68 252.33 135.00 252.43 133.25
  A 1.49 0.90 -71.9 0 0 252.22 132.34
  Q 251.04 130.76 249.04 130.50"
/>
<path stroke="#e6e5e6" vector-effect="non-scaling-stroke" d="
  M 327.43 102.24
  C 316.04 120.27 292.27 129.40 272.25 118.83
  C 269.26 117.25 266.32 116.00 263.93 113.89
  A 0.65 0.64 48.2 0 0 263.14 113.84
  L 261.50 114.96"
/>
<path stroke="#eaeaea" vector-effect="non-scaling-stroke" d="
  M 332.53 105.84
  Q 329.69 105.51 327.43 102.24"
/>
<path stroke="#efefef" vector-effect="non-scaling-stroke" d="
  M 327.43 102.24
  Q 326.24 100.30 323.42 98.80
  A 0.86 0.86 -60.6 0 0 322.28 99.12
  C 310.13 118.99 285.81 120.14 267.75 108.21"
/>
<path stroke="#d4d4d4" vector-effect="non-scaling-stroke" d="
  M 336.36 111.79
  Q 332.62 116.01 328.32 119.58
  Q 322.48 124.43 321.47 125.21
  C 317.19 128.54 312.17 130.45 307.53 132.71
  C 301.50 135.65 295.17 135.72 288.50 135.75
  C 283.01 135.77 278.64 133.93 273.54 133.11
  Q 262.47 131.34 254.00 123.71"
/>
<path stroke="#c9bbcf" vector-effect="non-scaling-stroke" d="
  M 242.29 141.25
  C 239.85 145.46 234.41 157.41 237.42 162.38
  A 1.32 0.34 54.1 0 1 237.76 163.25
  Q 237.68 164.22 236.54 163.50"
/>
</g>
<path fill="#d1d0d2" d="
  M 304.75 0.29
  Q 304.82 1.33 303.55 1.16
  Q 303.26 1.12 303.54 1.20
  Q 308.47 2.65 313.38 4.17
  C 315.51 4.83 318.24 4.70 320.94 6.31
  Q 324.27 8.30 330.50 10.25
  Q 332.98 11.03 333.54 13.25
  Q 332.40 14.31 330.75 14.04
  Q 328.95 14.19 328.15 12.75
  A 1.56 1.08 78.0 0 0 327.48 12.12
  C 325.16 11.16 323.12 11.14 320.90 10.01
  C 315.91 7.49 312.26 6.84 307.57 6.00
  C 298.38 4.36 288.45 5.17 279.46 7.49
  C 277.47 8.00 266.48 9.99 265.56 12.20
  A 0.80 0.80 -82.1 0 1 264.93 12.68
  L 262.78 12.96
  Q 259.43 10.87 259.50 13.96
  L 249.75 14.79
  Q 274.88 -0.99 304.75 0.29
  Z"
/>
<path fill="#c1c0c2" d="
  M 304.75 0.29
  Q 330.36 1.58 351.75 15.54
  Q 344.56 13.17 337.00 14.21
  C 337.47 12.34 334.59 13.38 333.54 13.25
  Q 332.98 11.03 330.50 10.25
  Q 324.27 8.30 320.94 6.31
  C 318.24 4.70 315.51 4.83 313.38 4.17
  Q 308.47 2.65 303.54 1.20
  Q 303.26 1.12 303.55 1.16
  Q 304.82 1.33 304.75 0.29
  Z"
/>
<path fill="#e5e5e6" d="
  M 330.75 14.04
  L 318.47 17.37
  A 0.82 0.80 60.5 0 1 317.66 17.13
  C 313.83 12.94 305.52 10.92 299.50 10.51
  Q 285.90 9.58 273.46 14.81
  A 1.12 1.06 46.6 0 1 272.56 14.76
  Q 271.22 14.07 269.72 13.85
  Q 268.21 13.63 266.40 13.14
  Q 264.66 12.67 262.78 12.96
  L 264.93 12.68
  A 0.80 0.80 -82.1 0 0 265.56 12.20
  C 266.48 9.99 277.47 8.00 279.46 7.49
  C 288.45 5.17 298.38 4.36 307.57 6.00
  C 312.26 6.84 315.91 7.49 320.90 10.01
  C 323.12 11.14 325.16 11.16 327.48 12.12
  A 1.56 1.08 78.0 0 1 328.15 12.75
  Q 328.95 14.19 330.75 14.04
  Z"
/>
<path fill="#f8f8f8" d="
  M 330.75 14.04
  Q 332.40 14.31 333.54 13.25
  C 334.59 13.38 337.47 12.34 337.00 14.21
  Q 317.64 17.88 300.66 28.05
  A 0.87 0.87 44.1 0 1 299.77 28.06
  C 288.35 21.42 272.76 14.50 259.50 13.96
  Q 259.43 10.87 262.78 12.96
  Q 264.66 12.67 266.40 13.14
  Q 268.21 13.63 269.72 13.85
  Q 271.22 14.07 272.56 14.76
  A 1.12 1.06 46.6 0 0 273.46 14.81
  Q 285.90 9.58 299.50 10.51
  C 305.52 10.92 313.83 12.94 317.66 17.13
  A 0.82 0.80 60.5 0 0 318.47 17.37
  L 330.75 14.04
  Z"
/>
<path fill="#0d9105" d="
  M 259.50 13.96
  C 272.76 14.50 288.35 21.42 299.77 28.06
  A 0.87 0.87 44.1 0 0 300.66 28.05
  Q 317.64 17.88 337.00 14.21
  Q 344.56 13.17 351.75 15.54
  Q 355.69 17.60 358.99 21.29
  Q 333.66 16.90 311.70 29.18
  Q 310.46 29.86 308.43 31.55
  C 306.07 33.51 303.62 34.35 301.57 36.85
  A 0.34 0.31 -38.2 0 1 301.03 36.81
  L 299.20 32.96
  A 0.94 0.88 79.8 0 0 298.50 32.44
  Q 293.62 31.78 289.75 29.50
  Q 279.45 23.44 268.25 21.25
  Q 256.98 19.04 241.71 20.55
  L 249.75 14.79
  L 259.50 13.96
  Z"
/>
<path fill="#269f0f" d="
  M 358.99 21.29
  Q 362.78 23.27 365.75 26.96
  Q 362.86 26.33 360.21 27.50
  Q 358.55 27.45 357.25 28.46
  C 345.23 33.75 335.98 42.47 326.50 51.29
  Q 326.19 50.39 326.81 49.81
  Q 330.37 46.54 332.92 43.05
  Q 339.17 39.15 345.05 33.13
  L 354.07 28.31
  Q 357.65 26.40 353.59 25.79
  Q 333.69 22.84 315.62 32.83
  Q 314.99 33.18 312.25 34.40
  C 309.93 35.43 307.88 37.50 306.10 38.72
  C 303.99 40.17 301.66 45.29 300.01 40.56
  Q 299.35 38.66 297.39 38.16
  C 293.95 37.28 291.44 36.61 288.26 34.56
  Q 268.40 21.72 244.48 25.75
  Q 243.62 25.90 244.18 26.58
  Q 245.84 28.59 248.50 29.50
  Q 250.29 30.11 255.46 34.00
  Q 262.04 38.59 267.46 44.50
  Q 268.76 45.49 269.21 47.00
  C 261.30 39.35 251.00 30.53 240.25 27.46
  Q 237.47 26.31 234.50 26.96
  L 241.71 20.55
  Q 256.98 19.04 268.25 21.25
  Q 279.45 23.44 289.75 29.50
  Q 293.62 31.78 298.50 32.44
  A 0.94 0.88 79.8 0 1 299.20 32.96
  L 301.03 36.81
  A 0.34 0.31 -38.2 0 0 301.57 36.85
  C 303.62 34.35 306.07 33.51 308.43 31.55
  Q 310.46 29.86 311.70 29.18
  Q 333.66 16.90 358.99 21.29
  Z"
/>
<path fill="#3cab17" d="
  M 345.05 33.13
  Q 322.53 32.95 306.94 48.19
  Q 304.41 50.65 302.99 51.77
  C 302.20 52.39 300.25 55.80 300.45 51.56
  C 300.53 49.72 299.43 48.00 298.11 46.81
  A 0.38 0.33 -55.1 0 0 297.57 46.94
  Q 297.33 47.38 297.05 47.15
  Q 296.33 46.57 296.28 46.56
  L 292.32 45.91
  Q 291.61 45.79 291.40 45.64
  C 287.09 42.59 282.66 39.10 278.16 37.02
  C 273.08 34.67 261.51 30.68 255.41 32.53
  A 0.48 0.44 70.6 0 0 255.14 33.15
  L 255.46 34.00
  Q 250.29 30.11 248.50 29.50
  Q 245.84 28.59 244.18 26.58
  Q 243.62 25.90 244.48 25.75
  Q 268.40 21.72 288.26 34.56
  C 291.44 36.61 293.95 37.28 297.39 38.16
  Q 299.35 38.66 300.01 40.56
  C 301.66 45.29 303.99 40.17 306.10 38.72
  C 307.88 37.50 309.93 35.43 312.25 34.40
  Q 314.99 33.18 315.62 32.83
  Q 333.69 22.84 353.59 25.79
  Q 357.65 26.40 354.07 28.31
  L 345.05 33.13
  Z"
/>
<path fill="#cac9cb" d="
  M 240.25 27.46
  Q 239.40 27.89 240.04 28.50
  C 233.42 36.73 226.69 44.99 222.63 54.84
  C 215.34 72.51 212.99 97.17 222.30 114.83
  C 222.58 115.35 226.37 125.30 228.50 123.04
  Q 227.39 127.52 224.75 132.97
  Q 217.63 123.38 214.69 112.56
  Q 210.76 98.13 212.29 82.50
  Q 213.43 70.82 214.00 68.75
  C 216.40 60.04 219.66 51.58 224.61 43.99
  Q 227.01 40.31 229.38 36.60
  C 230.55 34.78 232.02 33.30 233.38 31.58
  A 1.35 1.29 -28.9 0 0 233.66 30.69
  L 233.46 28.00
  L 234.50 26.96
  Q 237.47 26.31 240.25 27.46
  Z"
/>
<path fill="#b1b0b3" d="
  M 365.75 26.96
  Q 385.22 45.53 391.71 71.75
  Q 391.38 72.66 390.53 73.03
  A 0.80 0.70 53.6 0 1 389.70 72.85
  C 387.70 70.90 387.39 68.17 386.22 66.20
  C 382.85 60.54 380.00 53.72 375.96 48.63
  Q 375.64 48.23 375.35 47.80
  Q 368.57 37.70 360.20 30.52
  A 0.98 0.76 -69.9 0 1 359.94 29.71
  L 360.21 27.50
  Q 362.86 26.33 365.75 26.96
  Z"
/>
<path fill="#fafafa" d="
  M 240.25 27.46
  C 251.00 30.53 261.30 39.35 269.21 47.00
  L 274.48 52.39
  Q 252.36 79.22 236.19 109.88
  C 230.75 120.22 226.19 131.06 224.71 142.75
  C 224.04 144.12 223.11 144.68 223.54 142.75
  Q 224.72 137.36 224.75 132.97
  Q 227.39 127.52 228.50 123.04
  Q 234.06 109.56 241.46 97.00
  L 247.46 87.00
  L 251.20 80.92
  Q 252.35 79.05 251.27 77.15
  Q 249.64 74.29 249.05 70.60
  C 248.29 65.78 246.76 61.31 247.62 56.23
  C 248.25 52.45 248.87 48.77 250.66 45.41
  C 251.70 43.46 252.47 40.38 254.74 38.51
  A 0.99 0.92 -46.1 0 0 254.76 37.01
  L 250.06 33.53
  L 246.21 31.24
  Q 242.84 29.04 240.04 28.50
  Q 239.40 27.89 240.25 27.46
  Z"
/>
<path fill="#c1c0c2" d="
  M 360.21 27.50
  L 359.94 29.71
  A 0.98 0.76 -69.9 0 0 360.20 30.52
  Q 368.57 37.70 375.35 47.80
  Q 375.64 48.23 375.96 48.63
  C 380.00 53.72 382.85 60.54 386.22 66.20
  C 387.39 68.17 387.70 70.90 389.70 72.85
  A 0.80 0.70 53.6 0 0 390.53 73.03
  Q 391.38 72.66 391.71 71.75
  Q 395.81 87.74 393.93 104.29
  Q 390.84 102.68 390.22 99.22
  Q 389.61 95.81 389.58 95.72
  Q 386.50 85.02 381.92 74.87
  C 380.87 72.55 380.73 70.86 378.47 69.22
  A 1.54 1.41 11.7 0 1 377.92 68.46
  C 377.23 66.09 376.66 64.26 376.24 61.55
  C 375.97 59.73 374.85 58.67 374.07 57.37
  Q 369.63 50.03 364.95 42.84
  C 362.04 38.39 358.13 34.75 354.50 30.79
  C 355.17 30.29 358.33 29.42 357.25 28.46
  Q 358.55 27.45 360.21 27.50
  Z"
/>
<path fill="#bcbbbd" d="
  M 233.46 28.00
  L 233.66 30.69
  A 1.35 1.29 -28.9 0 1 233.38 31.58
  C 232.02 33.30 230.55 34.78 229.38 36.60
  Q 227.01 40.31 224.61 43.99
  C 219.66 51.58 216.40 60.04 214.00 68.75
  Q 213.43 70.82 212.29 82.50
  Q 210.76 98.13 214.69 112.56
  Q 217.63 123.38 224.75 132.97
  Q 224.72 137.36 223.54 142.75
  C 223.11 144.68 224.04 144.12 224.71 142.75
  Q 224.47 148.47 226.71 153.75
  C 196.53 115.77 199.17 62.47 233.46 28.00
  Z"
/>
<path fill="#ddddde" d="
  M 240.04 28.50
  Q 242.84 29.04 246.21 31.24
  Q 236.89 43.04 232.48 57.27
  Q 231.78 59.52 231.80 62.33
  C 231.83 67.40 230.22 71.55 231.49 76.41
  C 232.78 81.37 236.41 89.15 240.06 93.69
  Q 241.39 95.34 241.46 97.00
  Q 234.06 109.56 228.50 123.04
  C 226.37 125.30 222.58 115.35 222.30 114.83
  C 212.99 97.17 215.34 72.51 222.63 54.84
  C 226.69 44.99 233.42 36.73 240.04 28.50
  Z"
/>
<path fill="#fcecfe" d="
  M 357.25 28.46
  C 358.33 29.42 355.17 30.29 354.50 30.79
  L 350.21 33.25
  Q 342.93 38.10 336.46 44.00
  L 328.44 51.42
  A 1.23 1.17 49.9 0 0 328.34 53.04
  L 337.40 64.60
  L 348.22 80.31
  Q 358.62 96.08 367.25 113.04
  Q 374.36 126.71 376.87 141.84
  Q 376.60 145.20 377.79 148.00
  L 374.25 152.79
  L 374.00 152.71
  C 384.82 130.21 340.33 69.70 325.96 52.50
  Q 325.97 51.77 326.50 51.29
  C 335.98 42.47 345.23 33.75 357.25 28.46
  Z"
/>
<path fill="#cac9cb" d="
  M 354.50 30.79
  C 358.13 34.75 362.04 38.39 364.95 42.84
  Q 369.63 50.03 374.07 57.37
  C 374.85 58.67 375.97 59.73 376.24 61.55
  C 376.66 64.26 377.23 66.09 377.92 68.46
  A 1.54 1.41 11.7 0 0 378.47 69.22
  C 380.73 70.86 380.87 72.55 381.92 74.87
  Q 386.50 85.02 389.58 95.72
  Q 389.61 95.81 390.22 99.22
  Q 390.84 102.68 393.93 104.29
  Q 391.65 128.28 377.79 148.00
  Q 376.60 145.20 376.87 141.84
  Q 380.24 136.36 381.31 133.19
  Q 383.51 126.70 385.11 116.59
  C 385.82 112.11 389.00 101.51 380.49 102.43
  C 373.04 103.24 373.33 114.45 367.25 113.04
  Q 358.62 96.08 348.22 80.31
  Q 349.42 74.75 351.31 69.56
  Q 351.73 68.41 352.36 65.92
  C 353.00 63.36 354.98 61.49 355.00 58.43
  A 1.57 1.56 63.8 0 1 355.32 57.48
  Q 358.41 53.32 357.36 49.20
  C 356.59 46.17 356.55 44.73 357.08 42.04
  A 1.06 0.90 33.9 0 0 356.84 41.19
  L 350.21 33.25
  L 354.50 30.79
  Z"
/>
<path fill="#ebeaeb" d="
  M 246.21 31.24
  L 250.06 33.53
  Q 244.15 41.87 241.82 51.71
  C 241.34 53.73 239.93 56.01 239.93 58.53
  C 239.92 62.70 239.47 69.00 240.00 70.50
  C 242.15 76.60 243.78 83.82 247.22 85.37
  A 0.58 0.54 -70.6 0 1 247.51 86.04
  Q 247.38 86.52 247.46 87.00
  L 241.46 97.00
  Q 241.39 95.34 240.06 93.69
  C 236.41 89.15 232.78 81.37 231.49 76.41
  C 230.22 71.55 231.83 67.40 231.80 62.33
  Q 231.78 59.52 232.48 57.27
  Q 236.89 43.04 246.21 31.24
  Z"
/>
<path fill="#50b51f" d="
  M 345.05 33.13
  Q 339.17 39.15 332.92 43.05
  Q 323.24 45.02 315.65 51.35
  Q 315.61 51.38 313.84 52.62
  C 309.49 55.66 305.22 62.13 302.37 66.70
  Q 301.43 68.21 300.98 66.49
  Q 300.05 62.94 300.56 59.06
  Q 300.78 57.31 299.69 55.91
  Q 298.14 53.95 297.08 54.87
  A 1.90 0.93 -54.7 0 1 296.25 55.32
  L 294.69 55.59
  A 1.08 0.85 -77.1 0 0 293.99 56.15
  C 293.17 57.76 292.34 56.07 291.79 55.65
  Q 288.42 53.04 285.35 50.09
  Q 285.02 49.78 284.50 49.63
  C 282.57 49.09 281.24 47.47 279.99 46.77
  Q 275.61 44.36 270.73 43.15
  C 269.45 42.84 265.92 40.39 267.46 44.50
  Q 262.04 38.59 255.46 34.00
  L 255.14 33.15
  A 0.48 0.44 70.6 0 1 255.41 32.53
  C 261.51 30.68 273.08 34.67 278.16 37.02
  C 282.66 39.10 287.09 42.59 291.40 45.64
  Q 291.61 45.79 292.32 45.91
  L 296.28 46.56
  Q 296.33 46.57 297.05 47.15
  Q 297.33 47.38 297.57 46.94
  A 0.38 0.33 -55.1 0 1 298.11 46.81
  C 299.43 48.00 300.53 49.72 300.45 51.56
  C 300.25 55.80 302.20 52.39 302.99 51.77
  Q 304.41 50.65 306.94 48.19
  Q 322.53 32.95 345.05 33.13
  Z"
/>
<path fill="#f3f3f3" d="
  M 250.06 33.53
  L 254.76 37.01
  A 0.99 0.92 -46.1 0 1 254.74 38.51
  C 252.47 40.38 251.70 43.46 250.66 45.41
  C 248.87 48.77 248.25 52.45 247.62 56.23
  C 246.76 61.31 248.29 65.78 249.05 70.60
  Q 249.64 74.29 251.27 77.15
  Q 252.35 79.05 251.20 80.92
  L 247.46 87.00
  Q 247.38 86.52 247.51 86.04
  A 0.58 0.54 -70.6 0 0 247.22 85.37
  C 243.78 83.82 242.15 76.60 240.00 70.50
  C 239.47 69.00 239.92 62.70 239.93 58.53
  C 239.93 56.01 241.34 53.73 241.82 51.71
  Q 244.15 41.87 250.06 33.53
  Z"
/>
<path fill="#d5d5d6" d="
  M 350.21 33.25
  L 356.84 41.19
  A 1.06 0.90 33.9 0 1 357.08 42.04
  C 356.55 44.73 356.59 46.17 357.36 49.20
  Q 358.41 53.32 355.32 57.48
  A 1.57 1.56 63.8 0 0 355.00 58.43
  C 354.98 61.49 353.00 63.36 352.36 65.92
  Q 351.73 68.41 351.31 69.56
  Q 349.42 74.75 348.22 80.31
  L 337.40 64.60
  Q 340.64 55.88 338.47 46.87
  C 338.13 45.46 337.34 45.05 336.46 44.00
  Q 342.93 38.10 350.21 33.25
  Z"
/>
<path fill="#66bb26" d="
  M 332.92 43.05
  Q 330.37 46.54 326.81 49.81
  Q 326.19 50.39 326.50 51.29
  Q 325.97 51.77 325.96 52.50
  Q 325.49 52.61 325.26 52.95
  Q 323.87 53.77 322.50 53.78
  A 1.73 1.27 20.4 0 0 321.59 54.04
  Q 311.97 61.00 305.99 71.20
  C 305.23 72.50 304.72 74.76 303.12 76.47
  Q 300.77 73.59 298.17 75.66
  Q 294.37 71.61 291.36 67.00
  C 288.85 63.17 283.60 57.69 279.37 55.30
  A 1.12 0.83 -35.9 0 0 278.50 55.29
  C 276.71 55.98 278.15 51.81 275.29 53.25
  Q 275.11 52.64 274.48 52.39
  L 269.21 47.00
  Q 268.76 45.49 267.46 44.50
  C 265.92 40.39 269.45 42.84 270.73 43.15
  Q 275.61 44.36 279.99 46.77
  C 281.24 47.47 282.57 49.09 284.50 49.63
  Q 285.02 49.78 285.35 50.09
  Q 288.42 53.04 291.79 55.65
  C 292.34 56.07 293.17 57.76 293.99 56.15
  A 1.08 0.85 -77.1 0 1 294.69 55.59
  L 296.25 55.32
  A 1.90 0.93 -54.7 0 0 297.08 54.87
  Q 298.14 53.95 299.69 55.91
  Q 300.78 57.31 300.56 59.06
  Q 300.05 62.94 300.98 66.49
  Q 301.43 68.21 302.37 66.70
  C 305.22 62.13 309.49 55.66 313.84 52.62
  Q 315.61 51.38 315.65 51.35
  Q 323.24 45.02 332.92 43.05
  Z"
/>
<path fill="#e1e0e1" d="
  M 336.46 44.00
  C 337.34 45.05 338.13 45.46 338.47 46.87
  Q 340.64 55.88 337.40 64.60
  L 328.34 53.04
  A 1.23 1.17 49.9 0 1 328.44 51.42
  L 336.46 44.00
  Z"
/>
<path fill="#0d9105" d="
  M 274.48 52.39
  Q 275.11 52.64 275.29 53.25
  L 280.54 66.75
  C 279.71 68.73 279.13 64.25 277.31 63.88
  A 1.06 0.93 -58.8 0 0 276.45 64.15
  Q 264.22 75.33 256.31 87.31
  Q 255.49 88.55 254.76 89.07
  A 1.75 0.99 -18.9 0 0 254.14 89.77
  Q 253.38 91.62 251.19 95.19
  Q 233.70 123.62 230.71 158.25
  L 226.71 153.75
  Q 224.47 148.47 224.71 142.75
  C 226.19 131.06 230.75 120.22 236.19 109.88
  Q 252.36 79.22 274.48 52.39
  Z"
/>
<path fill="#068c02" d="
  M 325.96 52.50
  C 340.33 69.70 384.82 130.21 374.00 152.71
  L 372.27 153.75
  A 0.36 0.32 73.8 0 1 371.78 153.44
  C 371.65 151.57 369.81 134.50 368.24 133.28
  A 0.89 0.23 34.3 0 1 367.78 132.75
  C 367.41 128.46 365.61 124.51 364.50 121.17
  Q 357.10 98.74 341.44 78.56
  C 336.42 72.10 331.04 65.79 324.95 60.87
  A 0.91 0.79 -34.1 0 0 324.10 60.77
  Q 322.24 61.48 323.21 58.75
  L 325.26 52.95
  Q 325.49 52.61 325.96 52.50
  Z"
/>
<path fill="#83c22f" d="
  M 298.17 75.66
  L 288.25 84.04
  L 285.39 78.29
  L 283.00 72.46
  L 280.54 66.75
  L 275.29 53.25
  C 278.15 51.81 276.71 55.98 278.50 55.29
  A 1.12 0.83 -35.9 0 1 279.37 55.30
  C 283.60 57.69 288.85 63.17 291.36 67.00
  Q 294.37 71.61 298.17 75.66
  Z"
/>
<path fill="#83c22f" d="
  M 325.26 52.95
  L 323.21 58.75
  L 319.46 67.50
  L 317.46 72.25
  L 315.71 76.75
  L 314.03 79.65
  L 312.48 83.31
  A 0.43 0.43 29.4 0 1 311.83 83.49
  L 308.00 80.71
  L 303.12 76.47
  C 304.72 74.76 305.23 72.50 305.99 71.20
  Q 311.97 61.00 321.59 54.04
  A 1.73 1.27 20.4 0 1 322.50 53.78
  Q 323.87 53.77 325.26 52.95
  Z"
/>
<path fill="#159508" d="
  M 323.21 58.75
  Q 322.24 61.48 324.10 60.77
  A 0.91 0.79 -34.1 0 1 324.95 60.87
  C 331.04 65.79 336.42 72.10 341.44 78.56
  Q 357.10 98.74 364.50 121.17
  C 365.61 124.51 367.41 128.46 367.78 132.75
  A 0.89 0.23 34.3 0 0 368.24 133.28
  C 369.81 134.50 371.65 151.57 371.78 153.44
  A 0.36 0.32 73.8 0 0 372.27 153.75
  L 374.00 152.71
  L 374.25 152.79
  Q 369.83 158.78 364.25 163.71
  L 364.21 162.75
  C 366.67 153.68 361.52 144.90 357.48 137.08
  Q 362.99 142.79 365.20 150.52
  A 1.26 0.62 24.5 0 0 365.70 151.13
  Q 365.89 151.26 366.01 151.47
  Q 366.22 151.82 366.29 151.46
  Q 366.88 148.41 366.00 144.00
  Q 358.98 108.95 338.07 81.90
  C 337.08 80.63 336.47 78.71 335.50 77.75
  C 330.99 73.32 328.02 68.09 322.86 64.23
  A 0.50 0.50 -55.6 0 0 322.13 64.37
  C 321.95 64.66 319.46 70.85 319.46 67.50
  L 323.21 58.75
  Z"
/>
<path fill="#229d0d" d="
  M 280.54 66.75
  L 283.00 72.46
  C 280.84 72.34 281.27 67.38 277.79 70.82
  Q 250.72 97.60 240.71 134.49
  Q 240.27 136.10 241.07 136.75
  A 0.52 0.44 -53.6 0 0 241.77 136.59
  C 242.30 135.81 245.99 128.71 247.04 131.00
  L 243.71 136.50
  C 239.74 142.39 232.23 156.57 236.54 163.50
  L 236.46 164.00
  Q 233.21 161.50 230.71 158.25
  Q 233.70 123.62 251.19 95.19
  Q 253.38 91.62 254.14 89.77
  A 1.75 0.99 -18.9 0 1 254.76 89.07
  Q 255.49 88.55 256.31 87.31
  Q 264.22 75.33 276.45 64.15
  A 1.06 0.93 -58.8 0 1 277.31 63.88
  C 279.13 64.25 279.71 68.73 280.54 66.75
  Z"
/>
<path fill="#269f0f" d="
  M 357.48 137.08
  Q 350.10 126.25 341.66 116.01
  Q 344.58 115.99 345.75 118.79
  C 347.14 120.48 356.91 134.17 357.44 134.22
  A 0.44 0.39 85.3 0 0 357.84 133.69
  C 356.50 126.75 354.52 122.43 351.10 113.92
  Q 344.78 98.18 333.95 85.05
  C 332.14 82.86 329.20 78.60 326.16 75.83
  C 324.41 74.24 323.21 72.01 320.32 70.38
  A 0.89 0.85 26.8 0 0 319.08 70.76
  L 318.41 72.32
  A 1.17 0.56 -75.2 0 1 317.84 72.99
  Q 317.38 73.13 317.46 72.25
  L 319.46 67.50
  C 319.46 70.85 321.95 64.66 322.13 64.37
  A 0.50 0.50 -55.6 0 1 322.86 64.23
  C 328.02 68.09 330.99 73.32 335.50 77.75
  C 336.47 78.71 337.08 80.63 338.07 81.90
  Q 358.98 108.95 366.00 144.00
  Q 366.88 148.41 366.29 151.46
  Q 366.22 151.82 366.01 151.47
  Q 365.89 151.26 365.70 151.13
  A 1.26 0.62 24.5 0 1 365.20 150.52
  Q 362.99 142.79 357.48 137.08
  Z"
/>
<path fill="#40ad18" d="
  M 283.00 72.46
  L 285.39 78.29
  C 277.18 85.50 267.52 95.90 264.09 106.46
  A 1.53 1.04 -15.9 0 1 263.50 107.17
  Q 262.96 107.53 263.15 107.90
  A 0.48 0.37 -39.4 0 0 263.85 107.88
  Q 275.48 95.37 288.25 84.04
  L 298.17 75.66
  Q 300.77 73.59 303.12 76.47
  L 308.00 80.71
  L 307.25 81.29
  L 300.67 75.86
  A 0.80 0.79 45.3 0 0 299.67 75.85
  Q 269.33 100.24 247.04 131.00
  C 245.99 128.71 242.30 135.81 241.77 136.59
  A 0.52 0.44 -53.6 0 1 241.07 136.75
  Q 240.27 136.10 240.71 134.49
  Q 250.72 97.60 277.79 70.82
  C 281.27 67.38 280.84 72.34 283.00 72.46
  Z"
/>
<path fill="#3cab17" d="
  M 345.75 118.79
  C 347.92 120.79 347.31 118.39 347.00 117.56
  Q 338.19 94.29 319.81 76.19
  Q 318.36 74.75 317.12 75.67
  A 1.32 0.81 85.1 0 0 316.71 76.49
  Q 316.53 77.81 315.71 76.75
  L 317.46 72.25
  Q 317.38 73.13 317.84 72.99
  A 1.17 0.56 -75.2 0 0 318.41 72.32
  L 319.08 70.76
  A 0.89 0.85 26.8 0 1 320.32 70.38
  C 323.21 72.01 324.41 74.24 326.16 75.83
  C 329.20 78.60 332.14 82.86 333.95 85.05
  Q 344.78 98.18 351.10 113.92
  C 354.52 122.43 356.50 126.75 357.84 133.69
  A 0.44 0.39 85.3 0 1 357.44 134.22
  C 356.91 134.17 347.14 120.48 345.75 118.79
  Z"
/>
<path fill="#50b51f" d="
  M 345.75 118.79
  Q 344.58 115.99 341.66 116.01
  L 332.53 105.84
  Q 328.79 101.24 324.48 97.66
  L 312.21 84.85
  Q 322.07 91.84 330.10 100.81
  Q 330.47 101.22 330.42 100.68
  Q 330.28 99.16 329.06 97.19
  C 325.00 90.62 320.09 84.34 314.03 79.65
  L 315.71 76.75
  Q 316.53 77.81 316.71 76.49
  A 1.32 0.81 85.1 0 1 317.12 75.67
  Q 318.36 74.75 319.81 76.19
  Q 338.19 94.29 347.00 117.56
  C 347.31 118.39 347.92 120.79 345.75 118.79
  Z"
/>
<path fill="#ffffff" d="
  M 307.25 81.29
  Q 309.39 83.60 312.21 84.85
  L 324.48 97.66
  Q 319.78 95.53 316.17 91.85
  C 314.81 90.46 312.53 88.75 311.65 91.74
  Q 311.15 93.42 311.70 95.09
  C 312.87 98.65 311.44 104.94 306.96 105.62
  Q 304.07 106.06 300.46 107.97
  A 2.29 2.28 -52.1 0 1 298.89 108.17
  C 294.47 107.12 290.42 107.01 285.85 107.22
  Q 282.82 107.36 280.34 106.47
  Q 278.09 105.66 278.42 103.29
  C 279.76 93.91 268.65 107.27 267.75 108.21
  Q 264.12 111.12 261.50 114.96
  L 255.75 121.71
  L 254.00 123.71
  L 249.04 130.50
  L 244.50 137.29
  L 243.71 136.50
  L 247.04 131.00
  Q 269.33 100.24 299.67 75.85
  A 0.80 0.79 45.3 0 1 300.67 75.86
  L 307.25 81.29
  Z"
/>
<path fill="#66bb26" d="
  M 285.39 78.29
  L 288.25 84.04
  Q 275.48 95.37 263.85 107.88
  A 0.48 0.37 -39.4 0 1 263.15 107.90
  Q 262.96 107.53 263.50 107.17
  A 1.53 1.04 -15.9 0 0 264.09 106.46
  C 267.52 95.90 277.18 85.50 285.39 78.29
  Z"
/>
<path fill="#66bb26" d="
  M 314.03 79.65
  C 320.09 84.34 325.00 90.62 329.06 97.19
  Q 330.28 99.16 330.42 100.68
  Q 330.47 101.22 330.10 100.81
  Q 322.07 91.84 312.21 84.85
  Q 309.39 83.60 307.25 81.29
  L 308.00 80.71
  L 311.83 83.49
  A 0.43 0.43 29.4 0 0 312.48 83.31
  L 314.03 79.65
  Z"
/>
<path fill="#f3f3f3" d="
  M 324.48 97.66
  Q 328.79 101.24 332.53 105.84
  Q 329.69 105.51 327.43 102.24
  Q 326.24 100.30 323.42 98.80
  A 0.86 0.86 -60.6 0 0 322.28 99.12
  C 310.13 118.99 285.81 120.14 267.75 108.21
  C 268.65 107.27 279.76 93.91 278.42 103.29
  Q 278.09 105.66 280.34 106.47
  Q 282.82 107.36 285.85 107.22
  C 290.42 107.01 294.47 107.12 298.89 108.17
  A 2.29 2.28 -52.1 0 0 300.46 107.97
  Q 304.07 106.06 306.96 105.62
  C 311.44 104.94 312.87 98.65 311.70 95.09
  Q 311.15 93.42 311.65 91.74
  C 312.53 88.75 314.81 90.46 316.17 91.85
  Q 319.78 95.53 324.48 97.66
  Z"
/>
<path fill="#ebeaeb" d="
  M 327.43 102.24
  C 316.04 120.27 292.27 129.40 272.25 118.83
  C 269.26 117.25 266.32 116.00 263.93 113.89
  A 0.65 0.64 48.2 0 0 263.14 113.84
  L 261.50 114.96
  Q 264.12 111.12 267.75 108.21
  C 285.81 120.14 310.13 118.99 322.28 99.12
  A 0.86 0.86 -60.6 0 1 323.42 98.80
  Q 326.24 100.30 327.43 102.24
  Z"
/>
<path fill="#e1e0e1" d="
  M 327.43 102.24
  Q 329.69 105.51 332.53 105.84
  L 341.66 116.01
  Q 350.10 126.25 357.48 137.08
  C 361.52 144.90 366.67 153.68 364.21 162.75
  C 361.46 165.36 363.12 160.36 363.34 159.61
  C 365.37 156.25 359.88 144.69 358.00 141.46
  L 353.46 133.81
  Q 348.44 126.17 342.74 119.46
  L 340.04 116.25
  L 336.36 111.79
  L 331.38 106.58
  A 0.32 0.30 -59.8 0 0 330.87 106.73
  C 328.79 113.73 320.48 120.52 314.50 123.82
  Q 314.15 124.02 313.82 124.50
  C 313.21 125.42 312.06 125.48 311.36 125.83
  C 302.28 130.45 285.51 132.34 276.69 127.56
  C 273.78 125.99 271.66 126.52 269.27 125.64
  Q 264.40 123.84 259.87 121.31
  Q 259.50 121.10 259.21 120.62
  C 258.21 119.00 257.18 121.59 255.75 121.71
  L 261.50 114.96
  L 263.14 113.84
  A 0.65 0.64 48.2 0 1 263.93 113.89
  C 266.32 116.00 269.26 117.25 272.25 118.83
  C 292.27 129.40 316.04 120.27 327.43 102.24
  Z"
/>
<path fill="#d1d0d2" d="
  M 376.87 141.84
  Q 374.36 126.71 367.25 113.04
  C 373.33 114.45 373.04 103.24 380.49 102.43
  C 389.00 101.51 385.82 112.11 385.11 116.59
  Q 383.51 126.70 381.31 133.19
  Q 380.24 136.36 376.87 141.84
  Z"
/>
<path fill="#d8d8d8" d="
  M 336.36 111.79
  Q 332.62 116.01 328.32 119.58
  Q 322.48 124.43 321.47 125.21
  C 317.19 128.54 312.17 130.45 307.53 132.71
  C 301.50 135.65 295.17 135.72 288.50 135.75
  C 283.01 135.77 278.64 133.93 273.54 133.11
  Q 262.47 131.34 254.00 123.71
  L 255.75 121.71
  C 257.18 121.59 258.21 119.00 259.21 120.62
  Q 259.50 121.10 259.87 121.31
  Q 264.40 123.84 269.27 125.64
  C 271.66 126.52 273.78 125.99 276.69 127.56
  C 285.51 132.34 302.28 130.45 311.36 125.83
  C 312.06 125.48 313.21 125.42 313.82 124.50
  Q 314.15 124.02 314.50 123.82
  C 320.48 120.52 328.79 113.73 330.87 106.73
  A 0.32 0.30 -59.8 0 1 331.38 106.58
  L 336.36 111.79
  Z"
/>
<path fill="#cfcfd0" d="
  M 336.36 111.79
  L 340.04 116.25
  C 334.61 123.38 327.21 130.63 318.53 133.45
  C 311.14 135.85 306.18 139.28 297.75 140.25
  Q 275.23 142.85 254.97 135.03
  C 254.06 134.68 252.33 135.00 252.43 133.25
  A 1.49 0.90 -71.9 0 0 252.22 132.34
  Q 251.04 130.76 249.04 130.50
  L 254.00 123.71
  Q 262.47 131.34 273.54 133.11
  C 278.64 133.93 283.01 135.77 288.50 135.75
  C 295.17 135.72 301.50 135.65 307.53 132.71
  C 312.17 130.45 317.19 128.54 321.47 125.21
  Q 322.48 124.43 328.32 119.58
  Q 332.62 116.01 336.36 111.79
  Z"
/>
<path fill="#c7c6c7" d="
  M 340.04 116.25
  L 342.74 119.46
  Q 337.83 125.81 331.70 130.99
  C 329.41 132.93 326.50 133.59 323.87 135.56
  Q 321.48 137.34 319.58 138.11
  C 315.22 139.86 310.85 142.29 306.66 143.60
  Q 301.45 145.23 296.11 146.41
  C 292.12 147.28 287.67 146.38 283.25 146.50
  Q 272.41 146.79 260.89 144.53
  Q 259.80 144.32 258.25 143.57
  C 256.04 142.49 253.60 142.28 251.63 141.29
  Q 248.86 139.89 246.02 138.64
  A 1.79 1.36 -31.3 0 0 245.07 138.54
  L 243.79 138.75
  L 244.50 137.29
  L 249.04 130.50
  Q 251.04 130.76 252.22 132.34
  A 1.49 0.90 -71.9 0 1 252.43 133.25
  C 252.33 135.00 254.06 134.68 254.97 135.03
  Q 275.23 142.85 297.75 140.25
  C 306.18 139.28 311.14 135.85 318.53 133.45
  C 327.21 130.63 334.61 123.38 340.04 116.25
  Z"
/>
<path fill="#c1c0c2" d="
  M 342.74 119.46
  Q 348.44 126.17 353.46 133.81
  Q 349.74 136.98 346.96 140.72
  C 342.50 146.72 336.65 150.03 330.19 153.44
  C 328.23 154.47 327.23 156.28 324.98 157.01
  Q 321.65 158.08 318.24 158.89
  Q 317.78 159.00 317.39 159.33
  C 313.92 162.39 309.80 161.39 305.91 164.20
  A 1.90 1.73 -62.8 0 1 305.00 164.54
  Q 301.04 164.88 297.17 165.78
  C 294.61 166.37 291.34 166.44 288.06 168.06
  C 286.01 169.08 283.48 167.97 281.64 168.02
  Q 274.32 168.23 265.83 170.03
  A 0.67 0.67 70.7 0 0 265.37 170.99
  C 266.57 173.36 269.16 174.55 271.01 176.17
  C 274.64 179.36 282.37 181.43 287.01 182.86
  C 290.61 183.98 296.15 185.04 299.25 185.00
  C 303.27 184.95 304.12 184.87 307.35 187.16
  Q 308.68 188.11 310.50 188.21
  Q 288.10 190.78 267.00 182.96
  Q 266.83 179.54 264.44 177.56
  Q 258.29 172.47 253.81 167.44
  Q 252.08 165.49 252.41 163.24
  A 1.16 0.96 -16.1 0 1 252.92 162.49
  L 255.58 160.78
  A 1.62 1.54 28.7 0 1 256.49 160.54
  C 258.92 160.68 260.91 159.39 263.45 160.05
  A 1.25 0.84 26.9 0 0 264.37 159.94
  Q 265.16 159.37 265.12 158.30
  A 0.68 0.56 82.4 0 1 265.53 157.64
  Q 266.26 157.43 267.03 157.61
  A 2.01 1.11 28.4 0 0 267.99 157.60
  Q 270.11 156.90 267.99 156.36
  A 1.61 1.61 76.1 0 1 267.18 155.87
  C 265.25 153.70 263.10 153.77 261.00 152.94
  Q 252.06 149.39 244.16 142.63
  A 1.29 1.28 15.6 0 1 243.73 141.88
  Q 243.43 140.27 242.29 141.25
  L 243.79 138.75
  L 245.07 138.54
  A 1.79 1.36 -31.3 0 1 246.02 138.64
  Q 248.86 139.89 251.63 141.29
  C 253.60 142.28 256.04 142.49 258.25 143.57
  Q 259.80 144.32 260.89 144.53
  Q 272.41 146.79 283.25 146.50
  C 287.67 146.38 292.12 147.28 296.11 146.41
  Q 301.45 145.23 306.66 143.60
  C 310.85 142.29 315.22 139.86 319.58 138.11
  Q 321.48 137.34 323.87 135.56
  C 326.50 133.59 329.41 132.93 331.70 130.99
  Q 337.83 125.81 342.74 119.46
  Z"
/>
<path fill="#c9c8ca" d="
  M 353.46 133.81
  L 358.00 141.46
  Q 350.95 147.03 349.50 148.75
  C 342.26 157.36 330.90 161.14 320.97 165.67
  C 314.53 168.60 308.18 170.02 301.47 171.61
  Q 300.03 171.95 298.16 173.64
  A 2.34 2.31 -64.3 0 1 296.48 174.24
  Q 292.53 174.03 287.81 175.46
  A 0.70 0.70 64.9 0 0 287.43 176.52
  C 288.84 178.65 290.53 179.91 293.27 180.15
  C 300.44 180.78 307.69 182.11 314.58 181.22
  Q 322.73 180.17 330.56 177.69
  C 335.65 176.08 341.38 172.95 346.79 170.69
  A 1.28 0.68 -78.6 0 0 347.35 170.01
  Q 347.51 169.61 347.94 169.49
  Q 348.69 169.28 348.86 169.16
  C 352.35 166.90 355.57 164.97 358.32 161.79
  Q 360.14 159.69 363.34 159.61
  C 363.12 160.36 361.46 165.36 364.21 162.75
  L 364.25 163.71
  Q 341.51 184.81 310.50 188.21
  Q 308.68 188.11 307.35 187.16
  C 304.12 184.87 303.27 184.95 299.25 185.00
  C 296.15 185.04 290.61 183.98 287.01 182.86
  C 282.37 181.43 274.64 179.36 271.01 176.17
  C 269.16 174.55 266.57 173.36 265.37 170.99
  A 0.67 0.67 70.7 0 1 265.83 170.03
  Q 274.32 168.23 281.64 168.02
  C 283.48 167.97 286.01 169.08 288.06 168.06
  C 291.34 166.44 294.61 166.37 297.17 165.78
  Q 301.04 164.88 305.00 164.54
  A 1.90 1.73 -62.8 0 0 305.91 164.20
  C 309.80 161.39 313.92 162.39 317.39 159.33
  Q 317.78 159.00 318.24 158.89
  Q 321.65 158.08 324.98 157.01
  C 327.23 156.28 328.23 154.47 330.19 153.44
  C 336.65 150.03 342.50 146.72 346.96 140.72
  Q 349.74 136.98 353.46 133.81
  Z"
/>
<path fill="#d6bae0" d="
  M 243.71 136.50
  L 244.50 137.29
  L 243.79 138.75
  L 242.29 141.25
  C 239.85 145.46 234.41 157.41 237.42 162.38
  A 1.32 0.34 54.1 0 1 237.76 163.25
  Q 237.68 164.22 236.54 163.50
  C 232.23 156.57 239.74 142.39 243.71 136.50
  Z"
/>
<path fill="#bcbbbd" d="
  M 267.00 182.96
  Q 249.84 176.49 236.46 164.00
  L 236.54 163.50
  Q 237.68 164.22 237.76 163.25
  A 1.32 0.34 54.1 0 0 237.42 162.38
  C 234.41 157.41 239.85 145.46 242.29 141.25
  Q 243.43 140.27 243.73 141.88
  A 1.29 1.28 15.6 0 0 244.16 142.63
  Q 252.06 149.39 261.00 152.94
  C 263.10 153.77 265.25 153.70 267.18 155.87
  A 1.61 1.61 76.1 0 0 267.99 156.36
  Q 270.11 156.90 267.99 157.60
  A 2.01 1.11 28.4 0 1 267.03 157.61
  Q 266.26 157.43 265.53 157.64
  A 0.68 0.56 82.4 0 0 265.12 158.30
  Q 265.16 159.37 264.37 159.94
  A 1.25 0.84 26.9 0 1 263.45 160.05
  C 260.91 159.39 258.92 160.68 256.49 160.54
  A 1.62 1.54 28.7 0 0 255.58 160.78
  L 252.92 162.49
  A 1.16 0.96 -16.1 0 0 252.41 163.24
  Q 252.08 165.49 253.81 167.44
  Q 258.29 172.47 264.44 177.56
  Q 266.83 179.54 267.00 182.96
  Z"
/>
<path fill="#d1d0d2" d="
  M 358.00 141.46
  C 359.88 144.69 365.37 156.25 363.34 159.61
  Q 360.14 159.69 358.32 161.79
  C 355.57 164.97 352.35 166.90 348.86 169.16
  Q 348.69 169.28 347.94 169.49
  Q 347.51 169.61 347.35 170.01
  A 1.28 0.68 -78.6 0 1 346.79 170.69
  C 341.38 172.95 335.65 176.08 330.56 177.69
  Q 322.73 180.17 314.58 181.22
  C 307.69 182.11 300.44 180.78 293.27 180.15
  C 290.53 179.91 288.84 178.65 287.43 176.52
  A 0.70 0.70 64.9 0 1 287.81 175.46
  Q 292.53 174.03 296.48 174.24
  A 2.34 2.31 -64.3 0 0 298.16 173.64
  Q 300.03 171.95 301.47 171.61
  C 308.18 170.02 314.53 168.60 320.97 165.67
  C 330.90 161.14 342.26 157.36 349.50 148.75
  Q 350.95 147.03 358.00 141.46
  Z"
/>
<path fill="#107c10" d="
  M 229.75 299.54
  L 222.25 299.79
  C 173.97 297.54 173.54 221.63 219.01 216.78
  C 271.24 211.22 276.86 292.59 229.75 299.54
  Z
  M 241.06 230.94
  C 230.51 222.57 214.94 222.97 204.95 232.06
  C 186.77 248.61 192.63 287.58 220.14 291.31
  C 252.79 295.73 263.21 248.51 241.06 230.94
  Z"
/>
<path fill="#ffffff" d="
  M 381.25 299.79
  L 371.29 299.75
  Q 343.89 294.77 338.99 267.25
  C 334.08 239.68 350.98 213.72 381.09 216.74
  C 425.05 221.16 426.11 293.59 381.25 299.79
  Z
  M 350.76 274.78
  C 355.89 287.00 369.23 293.68 381.83 290.93
  C 407.72 285.29 412.27 249.62 395.63 232.71
  C 383.16 220.05 360.14 223.39 351.81 239.31
  Q 342.96 256.23 350.76 274.78
  Z"
/>
<path fill="#107c10" d="
  M 80.30 248.85
  L 102.47 218.91
  A 1.87 1.74 16.6 0 1 103.92 218.19
  L 112.39 218.11
  Q 113.71 218.09 112.95 219.12
  L 85.96 255.71
  A 1.04 1.04 44.6 0 0 85.96 256.95
  L 115.87 297.72
  Q 116.26 298.25 115.61 298.25
  L 106.48 298.25
  A 1.43 1.43 71.7 0 1 105.33 297.67
  L 80.49 264.00
  A 0.43 0.43 -44.7 0 0 79.80 264.00
  L 54.99 297.78
  A 1.04 0.94 -70.0 0 1 54.20 298.20
  L 45.24 298.21
  Q 43.97 298.21 44.74 297.16
  L 74.46 256.65
  A 0.68 0.67 44.6 0 0 74.45 255.85
  L 47.27 219.00
  Q 46.75 218.29 47.61 218.30
  L 56.82 218.40
  A 1.07 0.95 70.6 0 1 57.61 218.84
  L 79.71 248.84
  A 0.37 0.36 45.1 0 0 80.30 248.85
  Z"
/>
<path fill="#107c10" d="
  M 151.50 218.24
  C 164.31 218.22 177.47 222.66 178.87 237.49
  Q 179.95 248.87 169.79 255.80
  Q 169.24 256.17 169.85 256.45
  C 184.79 263.43 185.28 284.27 172.19 293.19
  Q 164.82 298.20 154.00 298.22
  Q 137.50 298.25 121.38 298.25
  A 0.88 0.88 0.0 0 1 120.50 297.37
  L 120.50 261.63
  A 0.86 0.84 90.0 0 0 119.66 260.77
  L 104.75 260.92
  Q 103.67 260.93 104.30 260.08
  L 109.39 253.16
  A 1.03 1.02 -71.3 0 1 110.21 252.75
  L 119.73 252.75
  A 0.77 0.77 90.0 0 0 120.50 251.98
  L 120.50 218.95
  A 0.70 0.70 -0.3 0 1 121.20 218.25
  Q 136.75 218.25 151.50 218.24
  Z
  M 169.86 238.86
  C 169.89 231.69 164.28 227.76 157.75 227.00
  Q 150.81 226.19 130.18 226.92
  A 0.53 0.52 -0.6 0 0 129.67 227.43
  L 129.55 252.19
  A 0.51 0.51 0.6 0 0 130.05 252.70
  Q 140.80 252.91 151.55 252.67
  C 161.58 252.44 169.80 250.26 169.86 238.86
  Z
  M 168.06 264.94
  Q 163.43 261.40 157.24 261.13
  Q 144.38 260.58 130.49 260.76
  A 1.01 1.00 -0.6 0 0 129.50 261.76
  L 129.56 289.43
  A 0.50 0.49 89.4 0 0 130.06 289.93
  Q 145.51 289.51 153.00 289.75
  C 159.33 289.95 166.49 288.32 170.18 283.01
  C 173.82 277.76 173.42 269.04 168.06 264.94
  Z"
/>
<path fill="#107c10" d="
  M 289.22 248.72
  A 0.53 0.53 -44.9 0 0 290.08 248.72
  L 312.08 218.80
  A 1.58 1.40 15.7 0 1 313.28 218.22
  L 321.77 218.11
  Q 323.21 218.09 322.38 219.22
  L 295.26 255.93
  A 0.70 0.69 -45.5 0 0 295.26 256.76
  L 325.23 297.60
  Q 325.71 298.25 324.90 298.25
  L 315.62 298.25
  A 0.98 0.97 -18.1 0 1 314.84 297.86
  L 290.05 264.16
  A 0.38 0.37 45.1 0 0 289.44 264.15
  L 264.74 297.47
  A 2.00 1.95 17.6 0 1 263.17 298.26
  L 254.04 298.34
  Q 253.46 298.34 253.80 297.88
  L 283.87 256.85
  A 0.88 0.87 44.7 0 0 283.86 255.81
  L 256.68 219.05
  Q 255.93 218.04 257.21 218.07
  L 266.18 218.31
  A 1.09 1.00 -15.6 0 1 266.99 218.72
  L 289.22 248.72
  Z"
/>
<path fill="#ffffff" d="
  M 431.70 234.48
  C 431.33 234.52 431.52 291.47 431.49 297.44
  A 0.81 0.81 0.0 0 1 430.68 298.25
  L 423.16 298.25
  A 0.66 0.66 0.0 0 1 422.50 297.59
  L 422.50 218.80
  A 0.53 0.52 -90.0 0 1 423.02 218.27
  L 429.93 218.29
  A 1.01 0.97 71.6 0 1 430.73 218.71
  L 477.61 282.57
  Q 478.75 284.11 478.75 282.19
  L 478.93 218.68
  A 0.52 0.47 -0.6 0 1 479.44 218.21
  L 486.85 218.09
  A 0.64 0.60 -0.5 0 1 487.50 218.69
  L 487.50 297.72
  A 0.52 0.52 0.0 0 1 486.98 298.24
  L 479.31 298.20
  A 1.04 0.98 70.4 0 1 478.51 297.79
  Q 456.73 268.51 435.19 239.06
  Q 433.24 236.40 432.43 235.01
  A 0.98 0.57 66.3 0 0 431.70 234.48
  Z"
/>
<path fill="#ffffff" d="
  M 507.06 252.94
  L 549.71 253.00
  A 0.79 0.79 -90.0 0 1 550.50 253.79
  L 550.50 259.78
  A 0.97 0.97 0.0 0 1 549.53 260.75
  L 507.27 260.75
  A 0.71 0.70 0.0 0 0 506.56 261.45
  L 506.50 289.70
  A 0.55 0.55 0.0 0 0 507.05 290.25
  L 553.34 290.25
  A 0.66 0.66 89.9 0 1 554.00 290.91
  L 554.00 297.56
  A 0.69 0.69 0.3 0 1 553.31 298.25
  L 498.27 298.25
  A 0.78 0.77 90.0 0 1 497.50 297.47
  L 497.50 218.91
  A 0.67 0.66 0.0 0 1 498.17 218.25
  L 552.79 218.19
  A 0.67 0.62 0.4 0 1 553.46 218.82
  L 553.36 225.57
  A 0.55 0.51 0.5 0 1 552.81 226.07
  L 507.58 225.99
  A 1.08 1.07 0.0 0 0 506.50 227.06
  L 506.56 252.43
  A 0.51 0.50 90.0 0 0 507.06 252.94
  Z"
/>
</svg>
