<?xml version="1.0" encoding="UTF-8" standalone="no"?>
<!DOCTYPE svg PUBLIC "-//W3C//DTD SVG 1.1//EN" "http://www.w3.org/Graphics/SVG/1.1/DTD/svg11.dtd">
<svg xmlns="http://www.w3.org/2000/svg" version="1.1" viewBox="0 0 600 300">
<g stroke-width="2.00" fill="none" stroke-linecap="butt">
<path stroke="#724d24" vector-effect="non-scaling-stroke" d="
  M 562.34 128.73
  L 562.35 132.07"
/>
<path stroke="#724d24" vector-effect="non-scaling-stroke" d="
  M 522.47 165.08
  L 518.67 165.25"
/>
<path stroke="#724d24" vector-effect="non-scaling-stroke" d="
  M 494.16 163.09
  Q 492.57 161.94 490.54 162.50"
/>
<path stroke="#724d24" vector-effect="non-scaling-stroke" d="
  M 464.04 113.39
  Q 464.64 111.87 464.28 110.38"
/>
<path stroke="#e3933a" vector-effect="non-scaling-stroke" d="
  M 525.75 156.78
  C 546.85 154.92 559.09 110.61 543.31 97.69
  C 530.76 87.40 492.94 76.18 479.45 88.17
  C 471.76 95.00 468.51 113.19 468.15 122.87
  Q 467.72 134.38 468.73 138.60
  Q 470.83 147.40 480.50 151.00
  Q 501.76 158.91 525.75 156.78"
/>
<path stroke="#41334d" vector-effect="non-scaling-stroke" d="
  M 446.04 101.25
  L 444.47 103.36"
/>
<path stroke="#f0c595" vector-effect="non-scaling-stroke" d="
  M 493.54 84.76
  C 485.54 85.38 480.00 87.03 476.44 94.69
  C 469.91 108.72 468.45 121.22 469.91 136.92
  Q 470.27 140.82 471.85 143.19
  C 478.98 153.92 507.17 156.16 518.94 155.75
  C 526.22 155.51 530.27 155.28 535.31 150.81
  C 541.43 145.39 544.25 139.84 546.76 131.84
  C 549.23 123.95 550.74 110.18 546.05 102.72
  C 538.15 90.18 507.87 83.63 493.54 84.76"
/>
<path stroke="#ab9db7" vector-effect="non-scaling-stroke" d="
  M 506.50 93.21
  Q 503.08 95.66 502.25 99.79"
/>
<path stroke="#808080" vector-effect="non-scaling-stroke" d="
  M 502.25 99.79
  C 501.43 116.94 514.74 98.88 510.74 92.96
  Q 509.10 90.54 506.50 93.21"
/>
<path stroke="#2c1e38" vector-effect="non-scaling-stroke" d="
  M 502.25 99.79
  Q 503.13 99.65 503.96 100.00"
/>
<path stroke="#808080" vector-effect="non-scaling-stroke" d="
  M 503.96 100.00
  C 504.98 107.83 513.31 93.64 507.04 94.00"
/>
<path stroke="#2c1e38" vector-effect="non-scaling-stroke" d="
  M 507.04 94.00
  L 506.50 93.21"
/>
<path stroke="#ab9db7" vector-effect="non-scaling-stroke" d="
  M 507.04 94.00
  L 503.96 100.00"
/>
<path stroke="#808080" vector-effect="non-scaling-stroke" d="
  M 516.0684 109.7310
  A 8.02 3.85 104.6 0 0 521.8157 102.9405
  A 8.02 3.85 104.6 0 0 520.1116 94.2090
  A 8.02 3.85 104.6 0 0 514.3643 100.9995
  A 8.02 3.85 104.6 0 0 516.0684 109.7310"
/>
<path stroke="#f0c595" vector-effect="non-scaling-stroke" d="
  M 490.60 108.92
  L 492.41 112.64
  Q 492.68 113.19 492.67 113.56
  C 492.32 125.78 501.27 135.95 514.18 131.47
  C 518.73 129.89 522.22 125.20 524.69 121.19
  Q 525.09 120.54 527.69 118.44
  Q 528.89 117.47 529.59 116.01
  A 0.92 0.91 28.4 0 0 529.24 114.84
  Q 523.88 111.63 524.50 117.57
  A 1.51 1.38 60.4 0 1 524.29 118.49
  C 521.22 123.21 516.99 128.15 511.13 128.99
  C 500.58 130.49 496.26 122.97 494.02 113.79
  Q 493.52 111.74 495.17 109.94
  A 1.82 1.82 46.0 0 0 495.21 107.54
  Q 492.44 104.29 490.64 107.99
  A 1.15 0.91 -49.3 0 0 490.60 108.92"
/>
<path stroke="#41334d" vector-effect="non-scaling-stroke" d="
  M 583.04 119.50
  L 580.96 117.50"
/>
<path stroke="#808080" vector-effect="non-scaling-stroke" d="
  M 517.2920 105.0829
  A 4.57 1.90 103.0 0 0 520.1713 101.0574
  A 4.57 1.90 103.0 0 0 519.3480 96.1771
  A 4.57 1.90 103.0 0 0 516.4687 100.2026
  A 4.57 1.90 103.0 0 0 517.2920 105.0829"
/>
<path stroke="#e3933a" vector-effect="non-scaling-stroke" d="
  M 492.80 108.16
  A 0.55 0.54 -2.4 0 0 492.21 108.80
  C 492.68 111.29 495.23 108.41 492.80 108.16"
/>
<path stroke="#e3933a" vector-effect="non-scaling-stroke" d="
  M 526.47 115.88
  Q 526.34 116.34 526.76 116.46
  A 0.63 0.56 -71.8 0 0 527.47 116.05
  Q 527.68 115.46 527.19 115.40
  A 0.69 0.67 -78.0 0 0 526.47 115.88"
/>
<path stroke="#41334d" vector-effect="non-scaling-stroke" d="
  M 485.00 184.54
  Q 483.00 184.56 482.46 182.75"
/>
<path stroke="#41334d" vector-effect="non-scaling-stroke" d="
  M 528.00 186.96
  L 525.54 189.25"
/>
</g>
<path fill="#e49a48" d="
  M 562.34 128.73
  L 562.35 132.07
  Q 554.30 141.87 557.75 153.75
  C 559.47 159.69 557.72 160.87 555.63 165.97
  A 1.58 1.47 87.9 0 1 555.01 166.69
  Q 553.64 167.49 552.28 168.34
  C 548.17 170.90 540.64 169.67 536.56 167.94
  Q 529.44 164.92 522.47 165.08
  L 518.67 165.25
  Q 511.43 165.15 504.50 165.00
  Q 502.65 164.96 494.16 163.09
  Q 492.57 161.94 490.54 162.50
  C 488.87 160.12 480.90 161.15 478.52 161.87
  C 464.56 166.13 453.08 155.36 459.87 140.95
  Q 465.94 128.05 464.04 113.39
  Q 464.64 111.87 464.28 110.38
  Q 464.85 107.25 465.97 104.49
  C 467.57 100.55 469.94 95.00 469.57 90.74
  C 468.64 80.23 470.13 72.17 479.57 66.26
  A 1.86 1.69 26.8 0 1 480.51 66.00
  L 488.75 66.00
  A 1.82 1.73 59.4 0 1 489.67 66.26
  L 504.28 74.96
  Q 504.86 75.30 505.57 75.38
  Q 512.07 76.05 517.90 76.76
  C 523.97 77.51 527.41 79.02 532.25 82.25
  C 535.84 84.65 539.75 86.13 544.53 86.31
  C 552.15 86.59 565.39 86.22 568.73 95.08
  Q 569.81 97.93 570.19 101.00
  A 1.36 1.15 -34.2 0 1 569.94 101.90
  C 568.49 103.85 568.66 105.77 567.50 107.65
  C 564.57 112.42 561.52 114.82 561.75 121.25
  Q 561.95 126.78 562.34 128.73
  Z
  M 525.75 156.78
  C 546.85 154.92 559.09 110.61 543.31 97.69
  C 530.76 87.40 492.94 76.18 479.45 88.17
  C 471.76 95.00 468.51 113.19 468.15 122.87
  Q 467.72 134.38 468.73 138.60
  Q 470.83 147.40 480.50 151.00
  Q 501.76 158.91 525.75 156.78
  Z"
/>
<path fill="#816599" d="
  M 446.04 101.25
  L 444.47 103.36
  Q 433.59 103.30 425.22 96.27
  C 419.85 91.75 417.83 82.64 424.38 78.54
  C 430.39 74.78 438.07 79.14 440.94 84.81
  Q 444.37 91.61 446.04 101.25
  Z"
/>
<path fill="#e18b2b" d="
  M 543.31 97.69
  C 559.09 110.61 546.85 154.92 525.75 156.78
  Q 501.76 158.91 480.50 151.00
  Q 470.83 147.40 468.73 138.60
  Q 467.72 134.38 468.15 122.87
  C 468.51 113.19 471.76 95.00 479.45 88.17
  C 492.94 76.18 530.76 87.40 543.31 97.69
  Z
  M 493.54 84.76
  C 485.54 85.38 480.00 87.03 476.44 94.69
  C 469.91 108.72 468.45 121.22 469.91 136.92
  Q 470.27 140.82 471.85 143.19
  C 478.98 153.92 507.17 156.16 518.94 155.75
  C 526.22 155.51 530.27 155.28 535.31 150.81
  C 541.43 145.39 544.25 139.84 546.76 131.84
  C 549.23 123.95 550.74 110.18 546.05 102.72
  C 538.15 90.18 507.87 83.63 493.54 84.76
  Z"
/>
<path fill="#ffffff" d="
  M 476.44 94.69
  C 480.00 87.03 485.54 85.38 493.54 84.76
  C 507.87 83.63 538.15 90.18 546.05 102.72
  C 550.74 110.18 549.23 123.95 546.76 131.84
  C 544.25 139.84 541.43 145.39 535.31 150.81
  C 530.27 155.28 526.22 155.51 518.94 155.75
  C 507.17 156.16 478.98 153.92 471.85 143.19
  Q 470.27 140.82 469.91 136.92
  C 468.45 121.22 469.91 108.72 476.44 94.69
  Z
  M 506.50 93.21
  Q 503.08 95.66 502.25 99.79
  C 501.43 116.94 514.74 98.88 510.74 92.96
  Q 509.10 90.54 506.50 93.21
  Z
  M 516.0684 109.7310
  A 8.02 3.85 104.6 0 0 521.8157 102.9405
  A 8.02 3.85 104.6 0 0 520.1116 94.2090
  A 8.02 3.85 104.6 0 0 514.3643 100.9995
  A 8.02 3.85 104.6 0 0 516.0684 109.7310
  Z
  M 490.60 108.92
  L 492.41 112.64
  Q 492.68 113.19 492.67 113.56
  C 492.32 125.78 501.27 135.95 514.18 131.47
  C 518.73 129.89 522.22 125.20 524.69 121.19
  Q 525.09 120.54 527.69 118.44
  Q 528.89 117.47 529.59 116.01
  A 0.92 0.91 28.4 0 0 529.24 114.84
  Q 523.88 111.63 524.50 117.57
  A 1.51 1.38 60.4 0 1 524.29 118.49
  C 521.22 123.21 516.99 128.15 511.13 128.99
  C 500.58 130.49 496.26 122.97 494.02 113.79
  Q 493.52 111.74 495.17 109.94
  A 1.82 1.82 46.0 0 0 495.21 107.54
  Q 492.44 104.29 490.64 107.99
  A 1.15 0.91 -49.3 0 0 490.60 108.92
  Z"
/>
<path fill="#816599" d="
  M 599.97 99.10
  L 600.00 105.56
  Q 595.13 116.87 583.04 119.50
  L 580.96 117.50
  Q 580.56 111.64 579.14 105.95
  C 577.72 100.30 578.05 96.07 582.71 92.63
  C 589.82 87.37 597.73 90.13 599.97 99.10
  Z"
/>
<path fill="#000000" d="
  M 502.25 99.79
  Q 503.13 99.65 503.96 100.00
  C 504.98 107.83 513.31 93.64 507.04 94.00
  L 506.50 93.21
  Q 509.10 90.54 510.74 92.96
  C 514.74 98.88 501.43 116.94 502.25 99.79
  Z"
/>
<path fill="#573b6f" d="
  M 506.50 93.21
  L 507.04 94.00
  L 503.96 100.00
  Q 503.13 99.65 502.25 99.79
  Q 503.08 95.66 506.50 93.21
  Z"
/>
<path fill="#1f71ad" d="
  M 0.00 107.44
  L 0.00 106.69
  L 22.83 94.43
  A 0.66 0.65 -26.6 0 1 23.73 94.72
  L 44.23 138.37
  A 1.19 1.03 83.4 0 0 44.90 138.99
  C 47.05 139.66 49.62 131.43 49.94 130.76
  Q 58.66 112.62 67.57 94.55
  A 0.76 0.76 28.3 0 1 68.64 94.23
  Q 78.82 100.33 89.58 105.26
  A 1.48 1.48 30.5 0 1 90.16 107.48
  Q 85.86 113.43 82.54 118.80
  Q 64.45 148.06 45.94 177.06
  C 43.60 180.74 43.60 180.16 41.54 176.74
  C 27.64 153.67 14.03 130.44 0.00 107.44
  Z"
/>
<path fill="#ffffff" d="
  M 507.04 94.00
  C 513.31 93.64 504.98 107.83 503.96 100.00
  L 507.04 94.00
  Z"
/>
<path fill="#000000" d="
  M 516.0684 109.7310
  A 8.02 3.85 104.6 0 1 514.3643 100.9995
  A 8.02 3.85 104.6 0 1 520.1116 94.2090
  A 8.02 3.85 104.6 0 1 521.8157 102.9405
  A 8.02 3.85 104.6 0 1 516.0684 109.7310
  Z
  M 517.2920 105.0829
  A 4.57 1.90 103.0 0 0 520.1713 101.0574
  A 4.57 1.90 103.0 0 0 519.3480 96.1771
  A 4.57 1.90 103.0 0 0 516.4687 100.2026
  A 4.57 1.90 103.0 0 0 517.2920 105.0829
  Z"
/>
<ellipse fill="#ffffff" cx="0.00" cy="0.00" transform="translate(518.32,100.63) rotate(103.0)" rx="4.57" ry="1.90"/>
<path fill="#000000" d="
  M 446.04 101.25
  Q 454.36 107.15 464.28 110.38
  Q 464.64 111.87 464.04 113.39
  Q 453.62 109.44 444.47 103.36
  L 446.04 101.25
  Z"
/>
<path fill="#e18b2b" d="
  M 490.64 107.99
  Q 492.44 104.29 495.21 107.54
  A 1.82 1.82 46.0 0 1 495.17 109.94
  Q 493.52 111.74 494.02 113.79
  C 496.26 122.97 500.58 130.49 511.13 128.99
  C 516.99 128.15 521.22 123.21 524.29 118.49
  A 1.51 1.38 60.4 0 0 524.50 117.57
  Q 523.88 111.63 529.24 114.84
  A 0.92 0.91 28.4 0 1 529.59 116.01
  Q 528.89 117.47 527.69 118.44
  Q 525.09 120.54 524.69 121.19
  C 522.22 125.20 518.73 129.89 514.18 131.47
  C 501.27 135.95 492.32 125.78 492.67 113.56
  Q 492.68 113.19 492.41 112.64
  L 490.60 108.92
  A 1.15 0.91 -49.3 0 1 490.64 107.99
  Z
  M 492.80 108.16
  A 0.55 0.54 -2.4 0 0 492.21 108.80
  C 492.68 111.29 495.23 108.41 492.80 108.16
  Z
  M 526.47 115.88
  Q 526.34 116.34 526.76 116.46
  A 0.63 0.56 -71.8 0 0 527.47 116.05
  Q 527.68 115.46 527.19 115.40
  A 0.69 0.67 -78.0 0 0 526.47 115.88
  Z"
/>
<path fill="#e49a48" d="
  M 390.75 149.50
  Q 392.12 153.21 391.13 157.02
  A 1.15 0.94 -59.7 0 0 391.27 157.91
  C 393.11 160.42 406.27 159.09 409.67 158.73
  Q 412.75 158.41 412.41 161.48
  Q 411.81 166.74 412.69 171.91
  Q 413.04 173.94 410.99 173.82
  Q 391.29 172.70 372.80 173.19
  A 0.97 0.96 89.4 0 1 371.82 172.22
  L 371.82 109.42
  A 0.91 0.90 89.7 0 1 372.71 108.51
  Q 380.83 108.47 387.76 108.10
  C 393.53 107.78 401.87 108.07 408.74 106.93
  A 1.54 1.51 84.7 0 1 410.50 108.42
  L 410.75 120.52
  A 1.48 1.45 -0.6 0 1 409.27 122.00
  L 392.96 121.98
  Q 390.24 121.98 391.06 124.68
  Q 392.25 128.59 391.24 131.76
  Q 390.15 135.15 393.48 134.75
  L 398.76 134.11
  Q 399.35 134.04 399.73 134.14
  Q 402.53 134.90 405.11 133.89
  Q 408.38 132.61 408.02 136.11
  Q 407.46 141.39 408.18 146.05
  A 1.55 1.52 -3.8 0 1 406.62 147.80
  L 392.56 147.56
  Q 390.02 147.52 390.75 149.50
  Z"
/>
<path fill="#e49a48" d="
  M 129.19 118.19
  C 132.03 115.80 133.14 115.23 137.04 113.11
  C 144.03 109.31 150.03 108.84 157.01 107.25
  A 1.59 1.58 80.3 0 1 158.94 108.62
  Q 159.53 113.81 160.59 118.98
  Q 161.27 122.25 158.78 122.15
  C 155.79 122.03 152.74 122.40 150.27 122.75
  Q 147.54 123.14 145.40 124.87
  C 142.54 127.20 143.54 129.17 146.27 130.82
  Q 153.05 134.91 159.89 138.94
  A 1.69 1.13 84.4 0 1 160.48 139.66
  Q 161.13 141.20 163.34 142.59
  A 2.11 2.10 -84.2 0 1 164.23 143.69
  C 168.75 156.11 157.00 166.04 146.63 169.87
  Q 137.93 173.09 128.63 174.52
  A 1.63 1.63 -4.4 0 1 126.76 172.92
  Q 126.72 166.79 125.15 160.63
  A 0.90 0.89 81.0 0 1 125.95 159.52
  C 132.35 159.09 137.44 159.67 142.70 155.18
  Q 144.78 153.40 143.03 151.29
  C 138.16 145.41 124.94 142.66 123.12 134.23
  Q 121.12 124.97 129.19 118.19
  Z"
/>
<path fill="#e49a48" d="
  M 216.98 142.23
  Q 217.81 142.45 218.63 142.06
  A 1.42 1.04 -85.0 0 0 219.25 141.35
  Q 221.10 136.95 223.67 132.95
  Q 228.49 125.42 228.52 125.35
  C 232.41 118.74 235.67 114.70 238.55 108.68
  Q 239.33 107.04 240.04 108.72
  C 247.25 125.77 255.28 142.29 262.55 159.24
  C 263.55 161.56 265.37 164.38 266.39 167.41
  A 0.75 0.74 72.5 0 1 265.90 168.36
  C 259.92 170.20 254.72 172.75 249.14 175.43
  A 0.43 0.42 -23.3 0 1 248.55 175.21
  L 237.31 145.18
  Q 236.37 142.68 234.57 144.58
  Q 232.83 146.43 231.31 149.31
  Q 230.17 151.48 222.31 162.81
  Q 220.06 166.06 219.10 167.14
  Q 218.84 167.43 218.60 167.98
  L 217.30 170.99
  Q 216.29 173.33 214.79 170.98
  Q 209.89 163.27 205.14 155.66
  C 203.41 152.90 201.32 150.15 199.69 146.56
  C 197.91 142.65 195.98 145.61 195.43 147.77
  Q 191.88 161.55 187.11 174.96
  A 0.50 0.49 -69.8 0 1 186.47 175.26
  Q 178.76 172.26 170.99 169.41
  Q 168.98 168.67 170.42 167.38
  Q 170.78 167.06 170.97 166.58
  L 174.28 158.45
  Q 174.48 157.98 174.47 157.49
  C 174.45 155.60 175.71 154.58 176.21 153.23
  C 178.48 147.17 181.60 138.24 185.50 129.98
  C 187.21 126.34 188.15 122.38 189.98 118.71
  Q 192.61 113.39 194.42 107.75
  C 194.63 107.12 194.80 106.92 195.46 106.96
  A 0.99 0.71 73.8 0 1 196.16 107.51
  C 197.62 110.50 199.06 113.40 200.93 116.27
  Q 208.31 127.58 216.58 141.93
  A 0.67 0.67 -8.9 0 0 216.98 142.23
  Z"
/>
<path fill="#e49a48" d="
  M 492.80 108.16
  C 495.23 108.41 492.68 111.29 492.21 108.80
  A 0.55 0.54 -2.4 0 1 492.80 108.16
  Z"
/>
<path fill="#e49a48" d="
  M 278.15 147.36
  Q 278.04 131.68 278.21 116.00
  Q 278.24 113.08 277.49 110.21
  A 0.97 0.96 82.3 0 1 278.41 108.99
  L 298.08 108.94
  A 0.62 0.61 -89.5 0 1 298.69 109.57
  Q 297.82 138.99 298.54 168.42
  C 298.67 173.67 298.80 172.99 293.85 173.00
  Q 286.04 173.03 278.50 172.82
  A 1.15 1.15 -73.7 0 1 277.55 171.08
  C 278.91 168.83 278.17 150.64 278.15 147.36
  Z"
/>
<path fill="#e49a48" d="
  M 318.52 109.04
  A 0.68 0.63 18.8 0 1 319.02 108.82
  L 337.70 108.81
  A 0.98 0.96 0.3 0 1 338.68 109.78
  L 338.50 156.01
  A 1.80 1.76 89.7 0 0 340.29 157.82
  L 356.25 157.50
  A 2.95 1.34 -6.2 0 1 358.69 158.31
  C 359.56 159.91 359.05 160.87 358.95 162.48
  Q 358.66 166.79 359.20 171.16
  Q 359.54 173.91 356.77 173.76
  Q 337.80 172.77 319.06 172.93
  A 0.78 0.73 -12.1 0 1 318.35 172.50
  C 317.17 169.92 318.25 166.84 318.26 164.83
  Q 318.40 138.79 318.01 112.76
  Q 318.00 112.40 317.78 111.80
  Q 317.30 110.48 318.52 109.04
  Z"
/>
<path fill="#e49a48" d="
  M 527.19 115.40
  Q 527.68 115.46 527.47 116.05
  A 0.63 0.56 -71.8 0 1 526.76 116.46
  Q 526.34 116.34 526.47 115.88
  A 0.69 0.67 -78.0 0 1 527.19 115.40
  Z"
/>
<path fill="#000000" d="
  M 580.96 117.50
  L 583.04 119.50
  Q 574.06 128.14 562.35 132.07
  L 562.34 128.73
  Q 573.53 126.08 580.96 117.50
  Z"
/>
<circle fill="#1f71ad" cx="88.79" cy="169.64" r="10.06"/>
<path fill="#000000" d="
  M 494.16 163.09
  Q 490.80 174.57 485.00 184.54
  Q 483.00 184.56 482.46 182.75
  Q 488.09 173.25 490.54 162.50
  Q 492.57 161.94 494.16 163.09
  Z"
/>
<path fill="#000000" d="
  M 522.47 165.08
  C 521.54 171.42 523.86 181.37 528.00 186.96
  L 525.54 189.25
  Q 518.80 178.58 518.67 165.25
  L 522.47 165.08
  Z"
/>
<path fill="#816599" d="
  M 482.46 182.75
  Q 483.00 184.56 485.00 184.54
  Q 484.85 186.71 486.17 188.37
  A 1.15 1.01 33.3 0 1 486.41 189.25
  Q 485.53 194.07 483.93 198.73
  C 479.12 212.80 460.51 208.19 460.75 194.25
  Q 460.82 190.35 463.40 188.14
  C 466.02 185.90 471.85 185.16 475.77 183.07
  Q 477.86 181.96 479.66 183.48
  Q 480.40 184.10 482.46 182.75
  Z"
/>
<path fill="#816599" d="
  M 525.54 189.25
  L 528.00 186.96
  C 529.82 187.59 530.98 186.48 532.34 186.33
  C 534.72 186.08 536.87 186.90 539.24 186.95
  C 556.46 187.35 544.61 216.22 529.85 207.63
  C 523.61 204.01 524.84 199.62 523.83 193.49
  A 1.24 1.11 -32.9 0 1 524.07 192.61
  Q 525.21 191.11 525.54 189.25
  Z"
/>
<path fill="#1f71ad" d="
  M 45.07 200.69
  A 0.98 0.98 -68.7 0 1 45.69 202.11
  Q 42.37 208.21 39.86 214.80
  C 38.92 217.29 36.77 218.31 35.43 215.34
  Q 33.16 210.30 31.06 205.19
  C 30.48 203.76 27.03 200.37 31.56 200.50
  A 2.11 2.10 80.1 0 1 33.46 201.84
  Q 34.88 205.52 35.76 208.24
  C 38.12 215.48 40.97 202.70 41.26 201.90
  A 1.62 1.31 89.1 0 1 41.85 201.15
  Q 43.30 200.24 45.07 200.69
  Z"
/>
<path fill="#1f71ad" d="
  M 81.92 214.24
  Q 82.83 214.70 84.15 213.82
  A 1.07 1.06 -30.8 0 1 85.69 214.20
  C 87.77 218.14 80.19 216.67 77.99 217.10
  A 0.92 0.91 -4.3 0 1 76.90 216.17
  Q 77.17 209.26 76.81 203.20
  C 76.72 201.74 77.24 200.07 78.99 200.46
  A 1.94 1.81 6.8 0 1 80.50 202.25
  L 80.50 211.76
  Q 80.50 213.53 81.92 214.24
  Z"
/>
<path fill="#1f71ad" d="
  M 285.78 206.88
  L 289.64 208.13
  Q 291.75 208.82 292.00 210.73
  C 292.68 215.88 287.87 218.88 283.64 217.04
  Q 283.16 216.83 282.69 216.85
  Q 279.84 216.96 281.19 214.18
  A 1.29 1.29 31.7 0 1 283.13 213.72
  Q 285.52 215.54 287.54 214.23
  A 1.40 1.29 83.0 0 0 288.09 213.46
  C 289.53 208.26 278.57 211.69 281.34 204.19
  C 283.80 197.51 294.34 201.01 290.41 203.97
  A 0.77 0.66 41.4 0 1 289.59 203.96
  C 287.69 202.70 283.40 203.45 285.04 206.27
  A 1.38 1.32 83.3 0 0 285.78 206.88
  Z"
/>
<path fill="#1f71ad" d="
  M 7.72 204.16
  Q 3.13 204.80 5.47 201.17
  A 0.92 0.91 16.3 0 1 6.24 200.75
  L 14.75 200.75
  Q 17.89 200.75 16.44 202.94
  Q 15.38 204.53 13.96 204.18
  A 1.26 1.25 -83.3 0 0 12.41 205.42
  L 12.50 215.99
  A 0.78 0.75 78.1 0 1 12.05 216.71
  Q 8.38 218.30 8.61 214.65
  C 8.79 211.67 8.77 208.76 8.90 205.22
  A 1.04 1.04 -3.0 0 0 7.72 204.16
  Z"
/>
<path fill="#1f71ad" d="
  M 104.96 203.79
  A 3.40 3.35 46.7 0 0 107.38 203.88
  Q 109.97 202.99 109.79 205.03
  A 1.13 1.13 -83.9 0 1 108.52 206.06
  Q 104.12 205.52 105.37 208.73
  A 0.99 0.98 86.9 0 0 106.04 209.34
  Q 107.23 209.65 108.45 209.42
  A 0.77 0.67 -19.2 0 1 109.22 209.73
  Q 110.33 211.66 106.78 211.44
  A 1.69 1.68 2.5 0 0 104.99 213.07
  C 104.88 216.53 111.61 213.86 109.34 216.63
  A 1.05 1.03 -68.8 0 1 108.50 217.01
  L 105.55 216.87
  Q 105.08 216.84 104.59 217.00
  Q 103.25 217.43 102.51 216.42
  A 1.54 0.61 -81.3 0 1 102.30 215.50
  L 102.30 205.26
  A 1.54 0.69 80.0 0 1 102.53 204.34
  Q 103.47 203.15 104.96 203.79
  Z"
/>
<path fill="#1f71ad" d="
  M 221.06 211.47
  Q 222.35 211.41 222.52 209.80
  Q 222.70 208.11 222.35 206.45
  Q 221.65 203.17 223.79 203.66
  A 1.89 1.89 -83.4 0 1 225.25 205.50
  L 225.25 215.88
  A 0.99 0.98 -10.3 0 1 224.61 216.80
  Q 222.38 217.64 221.22 215.93
  C 220.63 215.07 215.33 206.05 214.64 211.71
  Q 214.39 213.72 214.96 215.61
  A 1.09 1.08 -10.9 0 1 214.01 217.00
  C 211.16 217.26 212.17 215.42 212.22 213.91
  Q 212.32 210.36 212.13 205.68
  Q 212.04 203.62 214.09 203.84
  C 215.65 204.01 219.23 209.74 220.25 211.04
  A 1.10 0.85 65.6 0 0 221.06 211.47
  Z"
/>
<path fill="#1f71ad" d="
  M 249.05 210.07
  Q 252.76 209.29 250.94 213.19
  C 246.67 222.30 233.78 215.33 238.65 207.57
  Q 242.74 201.05 249.12 205.08
  C 250.13 205.72 251.08 207.26 249.06 207.43
  A 1.36 1.02 57.6 0 1 248.19 207.10
  C 242.75 202.50 236.91 211.17 243.31 215.19
  Q 245.99 216.87 246.94 214.94
  C 248.63 211.48 244.02 212.19 244.89 210.59
  A 0.99 0.84 -73.6 0 1 245.68 210.07
  L 248.08 210.07
  Q 249.05 210.07 249.05 210.07
  Z"
/>
<path fill="#1f71ad" d="
  M 314.58 216.14
  C 315.06 209.81 313.33 208.86 309.65 204.49
  Q 309.00 203.72 310.01 203.70
  C 314.55 203.64 312.48 205.11 314.74 206.73
  Q 316.04 207.65 318.59 204.95
  Q 319.48 204.01 320.69 203.54
  C 323.78 202.36 321.43 205.69 320.56 206.45
  Q 316.71 209.84 317.26 215.27
  Q 317.52 217.93 315.11 216.98
  A 0.84 0.83 13.3 0 1 314.58 216.14
  Z"
/>
<path fill="#1f71ad" d="
  M 340.07 214.21
  C 340.98 210.12 334.98 212.32 334.13 208.68
  C 333.11 204.29 338.15 202.65 341.55 204.27
  A 0.93 0.87 11.5 0 1 342.07 205.00
  Q 342.25 207.05 339.95 205.98
  A 1.73 1.29 45.9 0 0 339.01 205.83
  C 334.73 206.59 337.62 208.94 339.62 209.53
  C 347.25 211.76 341.34 219.37 335.18 216.90
  C 334.03 216.44 332.48 214.68 334.75 214.31
  A 1.47 0.98 48.6 0 1 335.66 214.55
  Q 337.47 215.72 339.48 214.90
  A 1.01 0.97 -5.7 0 0 340.07 214.21
  Z"
/>
<path fill="#1f71ad" d="
  M 122.10 216.85
  A 0.60 0.60 20.7 0 1 121.71 215.99
  Q 124.28 211.00 125.62 206.59
  C 126.25 204.49 127.30 203.03 129.61 203.97
  A 1.32 1.02 85.9 0 1 130.23 204.66
  L 134.65 216.20
  A 0.57 0.56 78.2 0 1 134.15 216.98
  C 130.72 217.13 132.08 213.66 128.96 214.58
  Q 128.48 214.72 128.01 214.64
  Q 127.04 214.47 126.16 214.75
  A 1.38 0.96 -77.2 0 0 125.47 215.38
  Q 124.33 217.39 122.10 216.85
  Z
  M 127.58 209.24
  C 124.83 212.57 130.76 214.65 129.22 209.57
  Q 128.70 207.88 127.58 209.24
  Z"
/>
<path fill="#1f71ad" d="
  M 151.99 213.59
  Q 149.70 212.61 149.76 215.88
  A 1.13 1.12 84.5 0 1 148.84 217.00
  C 146.54 217.43 146.99 215.30 147.01 213.84
  Q 147.10 209.24 146.85 205.15
  A 1.21 1.21 85.3 0 1 147.93 203.87
  C 150.79 203.56 155.37 203.52 156.42 206.79
  Q 157.11 208.92 155.03 210.61
  Q 153.38 211.95 154.80 213.67
  L 157.20 216.60
  Q 157.54 217.01 157.02 217.08
  Q 153.69 217.52 152.58 214.29
  A 1.26 0.95 87.0 0 0 151.99 213.59
  Z
  M 150.6104 209.6950
  A 1.89 1.71 124.1 0 0 153.0860 209.0887
  A 1.89 1.71 124.1 0 0 152.7296 206.5650
  A 1.89 1.71 124.1 0 0 150.2540 207.1713
  A 1.89 1.71 124.1 0 0 150.6104 209.6950
  Z"
/>
<path fill="#1f71ad" d="
  M 172.70 210.55
  C 172.14 213.17 173.90 216.74 170.94 217.03
  A 1.14 1.10 86.7 0 1 169.73 215.91
  L 169.59 205.30
  A 1.38 0.97 72.7 0 1 169.87 204.43
  C 173.30 200.61 179.11 216.14 180.15 209.47
  C 180.40 207.86 179.71 206.36 179.78 204.56
  A 0.74 0.71 82.8 0 1 180.28 203.89
  Q 182.85 203.04 182.83 206.00
  Q 182.80 210.96 182.70 215.93
  A 0.99 0.86 77.0 0 1 182.28 216.72
  C 178.12 219.28 176.57 209.40 173.29 209.95
  A 0.79 0.69 -86.4 0 0 172.70 210.55
  Z"
/>
<rect fill="#1f71ad" x="-1.42" y="-6.55" transform="translate(197.37,210.36) rotate(-0.1)" width="2.84" height="13.10" rx="0.69"/>
<path fill="#1f71ad" d="
  M 357.52 215.95
  C 357.26 212.50 359.44 206.38 355.25 206.25
  A 1.14 0.76 -9.6 0 1 354.42 205.88
  Q 353.90 205.17 354.47 204.43
  A 1.27 0.98 11.1 0 1 355.31 204.01
  C 355.81 203.96 366.14 202.49 362.80 206.08
  A 1.30 0.97 16.0 0 1 361.93 206.41
  C 359.69 206.43 360.27 208.21 360.23 209.71
  Q 360.15 212.83 360.40 215.94
  A 0.95 0.81 72.7 0 1 360.05 216.75
  Q 358.99 217.47 357.95 216.75
  A 1.11 0.93 -78.5 0 1 357.52 215.95
  Z"
/>
<path fill="#1f71ad" d="
  M 378.41 212.32
  Q 377.42 215.57 381.11 215.10
  C 382.18 214.97 383.91 215.47 382.36 216.65
  A 1.66 1.16 18.2 0 1 381.43 216.93
  L 376.20 216.99
  A 0.69 0.68 -0.4 0 1 375.50 216.31
  L 375.50 205.22
  A 1.62 1.37 -0.2 0 1 377.11 203.85
  L 381.26 203.83
  A 1.52 0.50 -7.8 0 1 382.19 204.00
  Q 383.65 204.93 382.18 205.98
  A 1.16 0.90 30.9 0 1 381.28 206.09
  Q 380.26 205.80 379.27 206.13
  A 1.11 1.02 -86.8 0 0 378.61 206.77
  Q 377.38 209.89 381.65 209.46
  A 0.75 0.74 83.9 0 1 382.47 210.13
  Q 382.68 212.07 379.95 211.43
  A 1.30 1.30 14.9 0 0 378.41 212.32
  Z"
/>
<path fill="#1f71ad" d="
  M 396.94 204.69
  Q 397.21 202.41 399.44 203.81
  C 401.45 205.08 401.32 212.69 404.51 209.00
  C 405.69 207.64 405.37 205.29 406.44 204.44
  C 409.05 202.36 409.64 204.63 409.89 206.66
  Q 410.39 210.79 411.18 214.87
  C 411.44 216.26 411.96 217.08 409.71 216.99
  A 1.21 1.20 0.3 0 1 408.56 215.83
  C 408.52 214.80 408.64 209.62 406.38 211.18
  Q 405.01 212.11 404.73 213.75
  Q 404.06 217.62 402.62 216.58
  A 1.26 0.86 -82.2 0 1 402.21 215.76
  Q 401.90 213.03 400.43 211.13
  Q 399.17 209.50 398.44 211.42
  Q 397.84 213.00 397.79 215.93
  A 1.13 1.13 -4.2 0 1 396.84 217.03
  C 393.82 217.49 395.44 215.15 395.64 213.89
  Q 396.38 209.30 396.94 204.69
  Z"
/>
<path fill="#bbbbbb" d="
  M 516.54 231.99
  C 515.33 233.43 501.24 232.56 500.57 232.55
  C 498.12 232.49 495.29 233.46 492.42 231.76
  Q 491.97 231.50 491.51 231.49
  Q 484.36 231.35 477.21 231.13
  C 471.81 230.97 466.13 229.79 460.50 229.29
  Q 460.04 229.25 459.59 228.97
  Q 457.73 227.79 455.50 227.95
  A 1.08 0.78 -15.7 0 1 454.65 227.64
  Q 454.17 227.00 454.65 226.36
  A 1.04 0.79 16.1 0 1 455.49 226.04
  C 458.62 226.25 461.25 224.09 464.54 223.81
  C 468.31 223.48 470.61 223.14 473.71 222.56
  C 477.23 221.91 481.80 222.18 484.50 222.02
  C 507.72 220.68 532.98 220.48 555.75 226.00
  Q 556.81 226.26 556.70 227.08
  A 1.01 0.81 -11.4 0 1 556.11 227.78
  Q 554.75 228.36 553.25 228.29
  Q 552.74 228.27 552.31 228.48
  C 549.56 229.84 546.19 229.75 543.91 230.20
  C 535.45 231.88 525.96 231.43 517.31 231.56
  A 1.18 0.79 -62.9 0 0 516.54 231.99
  Z"
/>
</svg>
