<?xml version="1.0" encoding="UTF-8" standalone="no"?>
<!DOCTYPE svg PUBLIC "-//W3C//DTD SVG 1.1//EN" "http://www.w3.org/Graphics/SVG/1.1/DTD/svg11.dtd">
<svg xmlns="http://www.w3.org/2000/svg" version="1.1" viewBox="0 0 600 139">
<g stroke-width="2.00" fill="none" stroke-linecap="butt">
<path stroke="#808080" vector-effect="non-scaling-stroke" d="
  M 584.92 11.44
  Q 591.00 21.25 591.00 34.00
  Q 591.00 68.88 591.13 103.75
  C 591.27 139.43 561.14 137.09 535.25 137.08
  Q 293.13 137.00 51.00 137.00
  Q 44.34 137.00 34.50 136.25
  Q 23.16 135.39 13.65 130.27"
/>
<path stroke="#b6beba" stroke-opacity="0.753" vector-effect="non-scaling-stroke" d="
  M 250.25 123.96
  L 257.00 123.96"
/>
<path stroke="#808080" vector-effect="non-scaling-stroke" d="
  M 571.75 21.21
  Q 568.05 17.32 562.44 16.31
  Q 551.04 14.26 540.25 14.27
  Q 297.62 14.50 55.00 14.31
  C 39.47 14.30 19.08 13.61 18.95 35.25
  Q 18.77 64.98 18.75 94.70
  C 18.75 104.95 18.24 110.40 23.70 117.18"
/>
<path stroke="#808080" vector-effect="non-scaling-stroke" d="
  M 246.79 37.00
  L 246.81 84.45
  A 0.54 0.49 89.5 0 0 247.31 84.99
  L 249.00 84.96"
/>
<path stroke="#808080" vector-effect="non-scaling-stroke" d="
  M 291.54 87.00
  L 291.33 102.06
  A 0.52 0.52 -89.4 0 1 290.81 102.57
  L 227.75 102.79"
/>
<path stroke="#808080" vector-effect="non-scaling-stroke" d="
  M 370.79 37.25
  L 370.76 50.42
  A 0.84 0.83 -89.7 0 1 369.93 51.25
  L 317.77 51.25
  A 0.72 0.72 -89.2 0 0 317.05 51.95
  Q 316.96 55.21 316.99 58.79
  C 317.01 60.50 316.36 62.44 319.25 61.71"
/>
<path stroke="#808080" vector-effect="non-scaling-stroke" d="
  M 367.29 63.75
  L 367.19 75.19
  A 0.51 0.50 -0.0 0 1 366.68 75.69
  L 317.94 75.81
  A 0.94 0.92 -0.3 0 0 317.01 76.73
  L 317.05 85.94
  A 0.78 0.70 -80.9 0 0 317.51 86.65
  Q 318.33 86.94 319.25 86.71"
/>
<path stroke="#808080" vector-effect="non-scaling-stroke" d="
  M 370.79 88.75
  L 370.75 101.83
  A 0.92 0.92 0.6 0 1 369.83 102.75
  L 298.75 102.79"
/>
<path stroke="#808080" vector-effect="non-scaling-stroke" d="
  M 551.50 43.79
  C 557.45 54.86 556.56 70.97 555.31 82.82
  C 553.70 98.14 545.71 103.31 530.94 104.19
  Q 511.48 105.34 487.25 104.50
  Q 481.00 104.28 472.99 100.57"
/>
<path stroke="#808080" vector-effect="non-scaling-stroke" d="
  M 118.04 42.75
  C 121.82 48.60 121.64 54.28 122.11 60.42
  A 1.51 1.50 -2.3 0 1 120.61 62.03
  L 104.50 62.04"
/>
<path stroke="#808080" vector-effect="non-scaling-stroke" d="
  M 100.50 56.71
  Q 98.21 53.94 94.25 53.75
  C 86.76 53.39 66.96 51.83 62.15 57.27
  C 58.19 61.76 58.88 75.42 59.50 80.75
  Q 59.81 83.41 62.07 86.55"
/>
<path stroke="#d2d3d1" stroke-opacity="0.612" vector-effect="non-scaling-stroke" d="
  M 103.06 78.57
  L 121.02 78.53"
/>
<path stroke="#808080" vector-effect="non-scaling-stroke" d="
  M 122.29 80.75
  C 122.45 95.05 120.70 103.41 104.25 104.50
  Q 81.38 106.02 58.50 104.75
  Q 54.60 104.53 47.00 101.79"
/>
<path stroke="#808080" vector-effect="non-scaling-stroke" d="
  M 214.00 44.04
  C 220.08 55.11 218.71 69.34 218.28 80.75
  C 217.64 97.86 211.88 105.34 194.25 105.25
  Q 168.74 105.12 160.00 104.95
  Q 148.23 104.71 137.54 100.00"
/>
<path stroke="#808080" vector-effect="non-scaling-stroke" d="
  M 455.77 43.16
  Q 459.24 51.90 458.54 61.24
  A 0.57 0.54 -87.7 0 1 458.00 61.77
  L 440.71 61.98"
/>
<path stroke="#808080" vector-effect="non-scaling-stroke" d="
  M 437.62 56.93
  Q 434.66 54.07 430.25 53.75
  Q 419.17 52.94 405.75 54.05
  C 396.47 54.81 396.31 60.79 395.67 68.86
  C 395.35 72.97 395.13 80.15 397.26 83.82
  Q 398.00 85.10 398.82 86.46"
/>
<path stroke="#808080" vector-effect="non-scaling-stroke" d="
  M 458.79 80.50
  C 458.89 94.35 457.67 102.88 442.49 104.17
  Q 417.38 106.32 392.25 104.50
  Q 389.31 104.29 382.79 101.50"
/>
<path stroke="#808080" vector-effect="non-scaling-stroke" d="
  M 532.75 57.46
  C 528.92 51.53 503.22 53.36 496.27 54.07
  Q 491.20 54.58 489.10 56.15
  C 483.60 60.27 483.62 80.52 488.71 84.50"
/>
<path stroke="#808080" vector-effect="non-scaling-stroke" d="
  M 196.42 56.54
  Q 191.14 53.50 182.50 53.50
  Q 174.87 53.50 167.25 53.47
  C 159.78 53.44 151.53 53.58 149.75 61.25
  Q 146.90 73.54 151.95 84.58"
/>
</g>
<path fill="#ffffff" d="
  M 584.92 11.44
  Q 591.00 21.25 591.00 34.00
  Q 591.00 68.88 591.13 103.75
  C 591.27 139.43 561.14 137.09 535.25 137.08
  Q 293.13 137.00 51.00 137.00
  Q 44.34 137.00 34.50 136.25
  Q 23.16 135.39 13.65 130.27
  C 6.02 122.81 4.00 113.79 4.00 103.25
  Q 4.00 70.38 4.00 37.50
  C 4.00 15.26 10.90 3.84 34.26 1.86
  Q 47.48 0.75 60.75 0.76
  Q 302.00 1.00 543.25 0.76
  Q 556.94 0.74 569.00 3.00
  Q 577.97 4.68 584.92 11.44
  Z
  M 23.70 117.18
  C 32.26 124.37 45.14 124.06 55.54 124.00
  C 120.44 123.65 185.35 124.18 250.25 123.96
  L 257.00 123.96
  C 277.59 123.72 298.15 124.04 318.75 123.96
  C 390.65 123.67 462.63 123.67 534.54 124.10
  C 548.36 124.19 569.39 125.55 575.14 112.79
  Q 576.71 109.29 576.86 99.98
  Q 577.55 57.17 576.50 30.00
  Q 576.31 25.14 571.75 21.21
  Q 568.05 17.32 562.44 16.31
  Q 551.04 14.26 540.25 14.27
  Q 297.62 14.50 55.00 14.31
  C 39.47 14.30 19.08 13.61 18.95 35.25
  Q 18.77 64.98 18.75 94.70
  C 18.75 104.95 18.24 110.40 23.70 117.18
  Z"
/>
<path fill="#000000" d="
  M 584.92 11.44
  Q 593.00 20.83 593.00 34.25
  Q 593.00 67.62 593.00 101.00
  Q 593.00 109.74 592.26 114.75
  C 589.09 136.12 570.09 138.62 552.19 139.00
  L 46.44 139.00
  Q 45.77 138.67 44.50 138.75
  Q 27.59 139.87 13.65 130.27
  Q 23.16 135.39 34.50 136.25
  Q 44.34 137.00 51.00 137.00
  Q 293.13 137.00 535.25 137.08
  C 561.14 137.09 591.27 139.43 591.13 103.75
  Q 591.00 68.88 591.00 34.00
  Q 591.00 21.25 584.92 11.44
  Z"
/>
<path fill="#000000" d="
  M 571.75 21.21
  C 563.05 16.59 553.78 16.59 543.25 16.58
  Q 305.07 16.50 66.88 16.50
  C 57.06 16.50 47.81 16.47 38.02 17.65
  C 26.70 19.02 20.81 25.70 20.79 37.25
  Q 20.75 70.50 20.68 103.75
  Q 20.66 110.76 23.70 117.18
  C 18.24 110.40 18.75 104.95 18.75 94.70
  Q 18.77 64.98 18.95 35.25
  C 19.08 13.61 39.47 14.30 55.00 14.31
  Q 297.62 14.50 540.25 14.27
  Q 551.04 14.26 562.44 16.31
  Q 568.05 17.32 571.75 21.21
  Z"
/>
<path fill="#ffffff" d="
  M 246.79 37.00
  L 246.81 84.45
  A 0.54 0.49 89.5 0 0 247.31 84.99
  L 249.00 84.96
  Q 268.97 85.03 288.95 85.00
  C 290.50 85.00 292.01 84.51 291.54 87.00
  L 291.33 102.06
  A 0.52 0.52 -89.4 0 1 290.81 102.57
  L 227.75 102.79
  Q 227.03 102.83 226.46 102.49
  A 1.00 0.79 -77.7 0 1 226.07 101.69
  L 226.17 36.23
  A 0.99 0.98 -89.7 0 1 227.15 35.25
  Q 236.50 35.25 245.50 35.20
  Q 247.18 35.20 246.79 37.00
  Z"
/>
<path fill="#ffffff" d="
  M 370.79 37.25
  L 370.76 50.42
  A 0.84 0.83 -89.7 0 1 369.93 51.25
  L 317.77 51.25
  A 0.72 0.72 -89.2 0 0 317.05 51.95
  Q 316.96 55.21 316.99 58.79
  C 317.01 60.50 316.36 62.44 319.25 61.71
  L 366.25 61.75
  A 0.97 0.77 -11.8 0 1 367.04 62.15
  Q 367.44 62.85 367.29 63.75
  L 367.19 75.19
  A 0.51 0.50 -0.0 0 1 366.68 75.69
  L 317.94 75.81
  A 0.94 0.92 -0.3 0 0 317.01 76.73
  L 317.05 85.94
  A 0.78 0.70 -80.9 0 0 317.51 86.65
  Q 318.33 86.94 319.25 86.71
  L 369.75 86.75
  A 0.97 0.77 -11.8 0 1 370.54 87.15
  Q 370.94 87.85 370.79 88.75
  L 370.75 101.83
  A 0.92 0.92 0.6 0 1 369.83 102.75
  L 298.75 102.79
  C 296.42 103.03 297.25 101.59 297.25 100.39
  Q 297.25 68.56 297.25 35.95
  A 0.70 0.70 -89.7 0 1 297.95 35.25
  Q 333.66 35.20 369.31 35.31
  Q 371.16 35.32 370.79 37.25
  Z"
/>
<path fill="#ffffff" d="
  M 551.50 43.79
  C 557.45 54.86 556.56 70.97 555.31 82.82
  C 553.70 98.14 545.71 103.31 530.94 104.19
  Q 511.48 105.34 487.25 104.50
  Q 481.00 104.28 472.99 100.57
  C 462.78 91.68 463.98 73.25 464.75 60.50
  C 465.84 42.29 472.81 36.97 490.49 36.05
  Q 502.92 35.40 521.50 35.50
  C 532.94 35.56 543.85 35.16 551.50 43.79
  Z
  M 488.71 84.50
  Q 492.74 87.37 498.75 87.50
  Q 515.25 87.87 525.00 87.25
  C 531.20 86.86 534.28 84.11 535.04 77.80
  C 535.74 71.99 536.38 62.65 532.75 57.46
  C 528.92 51.53 503.22 53.36 496.27 54.07
  Q 491.20 54.58 489.10 56.15
  C 483.60 60.27 483.62 80.52 488.71 84.50
  Z"
/>
<path fill="#ffffff" d="
  M 118.04 42.75
  C 121.82 48.60 121.64 54.28 122.11 60.42
  A 1.51 1.50 -2.3 0 1 120.61 62.03
  L 104.50 62.04
  C 102.63 62.04 102.08 58.28 100.50 56.71
  Q 98.21 53.94 94.25 53.75
  C 86.76 53.39 66.96 51.83 62.15 57.27
  C 58.19 61.76 58.88 75.42 59.50 80.75
  Q 59.81 83.41 62.07 86.55
  Q 80.73 90.22 97.25 87.25
  Q 103.61 86.11 103.06 78.57
  L 121.02 78.53
  Q 122.53 79.08 122.29 80.75
  C 122.45 95.05 120.70 103.41 104.25 104.50
  Q 81.38 106.02 58.50 104.75
  Q 54.60 104.53 47.00 101.79
  C 37.49 94.30 38.52 81.41 38.50 69.25
  Q 38.48 57.63 39.69 51.79
  C 42.84 36.65 58.14 37.03 70.29 36.50
  Q 88.41 35.72 106.50 37.31
  Q 113.33 37.90 118.04 42.75
  Z"
/>
<path fill="#ffffff" d="
  M 214.00 44.04
  C 220.08 55.11 218.71 69.34 218.28 80.75
  C 217.64 97.86 211.88 105.34 194.25 105.25
  Q 168.74 105.12 160.00 104.95
  Q 148.23 104.71 137.54 100.00
  C 128.61 93.03 129.26 81.83 129.12 71.71
  C 128.99 61.80 128.72 47.63 137.50 41.72
  C 144.15 37.25 156.77 36.62 165.36 36.46
  C 177.92 36.22 191.50 35.72 203.00 37.50
  Q 209.01 38.43 214.00 44.04
  Z
  M 151.95 84.58
  Q 157.70 87.64 163.65 87.64
  C 171.75 87.65 179.71 87.97 187.79 87.17
  C 193.98 86.56 198.30 84.88 198.80 78.25
  C 199.14 73.68 199.89 63.17 197.82 59.18
  Q 197.19 57.96 196.42 56.54
  Q 191.14 53.50 182.50 53.50
  Q 174.87 53.50 167.25 53.47
  C 159.78 53.44 151.53 53.58 149.75 61.25
  Q 146.90 73.54 151.95 84.58
  Z"
/>
<path fill="#ffffff" d="
  M 455.77 43.16
  Q 459.24 51.90 458.54 61.24
  A 0.57 0.54 -87.7 0 1 458.00 61.77
  L 440.71 61.98
  Q 438.41 60.07 437.62 56.93
  Q 434.66 54.07 430.25 53.75
  Q 419.17 52.94 405.75 54.05
  C 396.47 54.81 396.31 60.79 395.67 68.86
  C 395.35 72.97 395.13 80.15 397.26 83.82
  Q 398.00 85.10 398.82 86.46
  Q 415.16 89.90 431.57 87.48
  C 436.87 86.70 439.39 85.25 439.51 79.64
  A 0.91 0.91 -89.4 0 1 440.42 78.75
  L 457.95 78.81
  A 0.81 0.70 -9.6 0 1 458.67 79.25
  Q 458.89 79.82 458.79 80.50
  C 458.89 94.35 457.67 102.88 442.49 104.17
  Q 417.38 106.32 392.25 104.50
  Q 389.31 104.29 382.79 101.50
  C 373.91 94.62 374.85 80.40 374.51 70.29
  C 373.82 49.69 377.20 37.65 399.49 36.58
  Q 421.02 35.55 442.50 37.24
  Q 450.08 37.83 455.77 43.16
  Z"
/>
<path fill="#000000" d="
  M 246.79 37.00
  C 249.41 37.20 248.76 38.89 248.74 40.72
  Q 248.57 62.84 249.00 84.96
  L 247.31 84.99
  A 0.54 0.49 89.5 0 1 246.81 84.45
  L 246.79 37.00
  Z"
/>
<path fill="#000000" d="
  M 370.79 37.25
  L 372.24 37.58
  A 0.77 0.58 -85.0 0 1 372.69 38.30
  L 372.75 52.07
  A 1.12 1.12 1.9 0 1 371.63 53.19
  L 320.03 53.25
  A 0.97 0.89 -0.6 0 0 319.06 54.16
  L 319.25 61.71
  C 316.36 62.44 317.01 60.50 316.99 58.79
  Q 316.96 55.21 317.05 51.95
  A 0.72 0.72 -89.2 0 1 317.77 51.25
  L 369.93 51.25
  A 0.84 0.83 -89.7 0 0 370.76 50.42
  L 370.79 37.25
  Z"
/>
<path fill="#000000" d="
  M 118.04 42.75
  C 123.71 47.44 123.97 55.41 124.29 62.37
  A 1.56 1.55 -1.4 0 1 122.73 64.00
  Q 114.50 64.00 106.50 64.00
  Q 104.93 64.00 104.50 62.04
  L 120.61 62.03
  A 1.51 1.50 -2.3 0 0 122.11 60.42
  C 121.64 54.28 121.82 48.60 118.04 42.75
  Z"
/>
<path fill="#000000" d="
  M 455.77 43.16
  Q 462.10 52.22 460.51 63.44
  A 0.58 0.56 -85.9 0 1 459.95 63.94
  C 454.88 64.02 449.63 63.72 444.61 64.15
  Q 442.08 64.36 440.71 61.98
  L 458.00 61.77
  A 0.57 0.54 -87.7 0 0 458.54 61.24
  Q 459.24 51.90 455.77 43.16
  Z"
/>
<path fill="#000000" d="
  M 551.50 43.79
  C 557.22 50.47 557.73 57.09 558.20 66.77
  Q 558.83 79.54 556.50 90.75
  C 554.01 102.74 541.98 105.81 531.50 106.28
  Q 511.94 107.17 489.50 106.50
  Q 480.01 106.22 472.99 100.57
  Q 481.00 104.28 487.25 104.50
  Q 511.48 105.34 530.94 104.19
  C 545.71 103.31 553.70 98.14 555.31 82.82
  C 556.56 70.97 557.45 54.86 551.50 43.79
  Z"
/>
<path fill="#000000" d="
  M 214.00 44.04
  C 219.55 49.14 220.27 57.20 220.55 64.24
  C 220.88 72.56 220.84 83.74 219.06 92.31
  Q 216.01 107.05 200.25 107.26
  Q 180.19 107.54 160.16 106.68
  C 152.78 106.36 143.18 105.27 137.54 100.00
  Q 148.23 104.71 160.00 104.95
  Q 168.74 105.12 194.25 105.25
  C 211.88 105.34 217.64 97.86 218.28 80.75
  C 218.71 69.34 220.08 55.11 214.00 44.04
  Z"
/>
<path fill="#000000" d="
  M 100.50 56.71
  Q 94.88 55.07 88.99 55.31
  C 80.11 55.67 62.25 52.76 61.30 65.74
  Q 60.57 75.57 62.07 86.55
  Q 59.81 83.41 59.50 80.75
  C 58.88 75.42 58.19 61.76 62.15 57.27
  C 66.96 51.83 86.76 53.39 94.25 53.75
  Q 98.21 53.94 100.50 56.71
  Z"
/>
<path fill="#000000" d="
  M 196.42 56.54
  Q 181.43 54.82 166.39 55.62
  C 157.99 56.07 152.33 56.26 151.44 65.69
  Q 150.48 75.83 151.95 84.58
  Q 146.90 73.54 149.75 61.25
  C 151.53 53.58 159.78 53.44 167.25 53.47
  Q 174.87 53.50 182.50 53.50
  Q 191.14 53.50 196.42 56.54
  Z"
/>
<path fill="#000000" d="
  M 437.62 56.93
  Q 424.91 54.65 409.00 55.75
  C 402.30 56.21 398.84 58.97 398.09 65.77
  Q 396.98 75.76 398.82 86.46
  Q 398.00 85.10 397.26 83.82
  C 395.13 80.15 395.35 72.97 395.67 68.86
  C 396.31 60.79 396.47 54.81 405.75 54.05
  Q 419.17 52.94 430.25 53.75
  Q 434.66 54.07 437.62 56.93
  Z"
/>
<path fill="#000000" d="
  M 532.75 57.46
  C 525.01 54.47 515.46 55.52 507.25 55.36
  Q 502.64 55.27 498.10 55.88
  C 488.24 57.20 487.79 61.43 487.19 69.95
  Q 486.68 77.34 488.71 84.50
  C 483.62 80.52 483.60 60.27 489.10 56.15
  Q 491.20 54.58 496.27 54.07
  C 503.22 53.36 528.92 51.53 532.75 57.46
  Z"
/>
<path fill="#000000" d="
  M 367.29 63.75
  Q 368.26 63.67 368.85 64.19
  A 1.26 0.91 -76.2 0 1 369.20 65.05
  L 369.24 76.63
  A 1.36 1.35 0.6 0 1 367.84 77.99
  Q 353.13 77.61 338.00 77.92
  Q 325.42 78.18 321.75 77.75
  C 318.26 77.34 319.05 78.94 318.97 81.24
  Q 318.87 83.99 319.25 86.71
  Q 318.33 86.94 317.51 86.65
  A 0.78 0.70 -80.9 0 1 317.05 85.94
  L 317.01 76.73
  A 0.94 0.92 -0.3 0 1 317.94 75.81
  L 366.68 75.69
  A 0.51 0.50 -0.0 0 0 367.19 75.19
  L 367.29 63.75
  Z"
/>
<path fill="#050b01" fill-opacity="0.220" d="
  M 121.02 78.53
  L 103.06 78.57
  Q 112.11 77.80 121.02 78.53
  Z"
/>
<path fill="#000000" d="
  M 458.79 80.50
  Q 459.26 81.14 459.98 80.98
  A 0.49 0.43 -11.9 0 1 460.55 81.30
  C 461.02 83.50 460.52 85.89 460.62 87.90
  C 461.34 103.59 451.23 106.33 438.26 106.97
  Q 414.31 108.16 394.00 106.50
  Q 387.89 106.00 382.79 101.50
  Q 389.31 104.29 392.25 104.50
  Q 417.38 106.32 442.49 104.17
  C 457.67 102.88 458.89 94.35 458.79 80.50
  Z"
/>
<path fill="#000000" d="
  M 122.29 80.75
  C 125.35 80.14 124.31 87.33 124.05 89.60
  C 123.21 96.97 122.56 102.04 115.25 104.75
  C 112.48 105.78 108.01 106.46 104.52 106.67
  Q 82.39 107.99 60.25 106.74
  Q 52.80 106.32 47.00 101.79
  Q 54.60 104.53 58.50 104.75
  Q 81.38 106.02 104.25 104.50
  C 120.70 103.41 122.45 95.05 122.29 80.75
  Z"
/>
<path fill="#000000" d="
  M 291.54 87.00
  Q 293.56 86.56 293.56 88.50
  Q 293.55 96.47 293.45 103.68
  A 1.09 1.08 -89.5 0 1 292.37 104.75
  Q 260.44 104.75 231.08 104.75
  C 229.33 104.75 227.95 105.18 227.75 102.79
  L 290.81 102.57
  A 0.52 0.52 -89.4 0 0 291.33 102.06
  L 291.54 87.00
  Z"
/>
<path fill="#000000" d="
  M 370.79 88.75
  Q 372.75 88.44 372.75 90.75
  Q 372.75 96.75 372.75 103.46
  A 1.29 1.29 -1.2 0 1 371.46 104.75
  L 300.50 104.75
  A 1.26 1.03 -17.4 0 1 299.63 104.40
  Q 299.02 103.73 298.75 102.79
  L 369.83 102.75
  A 0.92 0.92 0.0 0 0 370.75 101.83
  L 370.79 88.75
  Z"
/>
<path fill="#263d32" fill-opacity="0.506" d="
  M 257.00 123.96
  L 250.25 123.96
  Q 253.62 122.83 257.00 123.96
  Z"
/>
</svg>
