<?xml version="1.0" encoding="UTF-8" standalone="no"?>
<!DOCTYPE svg PUBLIC "-//W3C//DTD SVG 1.1//EN" "http://www.w3.org/Graphics/SVG/1.1/DTD/svg11.dtd">
<svg xmlns="http://www.w3.org/2000/svg" version="1.1" viewBox="0 0 600 300">
<path fill="#000000" d="
  M 0.00 115.94
  L 0.00 109.94
  C 1.39 84.97 15.01 69.25 36.45 59.13
  Q 62.52 46.82 91.46 56.57
  A 0.63 0.61 14.0 0 1 91.88 57.25
  L 89.06 76.41
  A 0.60 0.59 14.7 0 1 88.26 76.87
  C 66.93 68.92 38.64 75.26 25.93 94.93
  C 16.91 108.90 19.62 130.23 36.76 136.41
  C 41.60 138.15 50.05 136.11 53.75 136.25
  C 57.49 136.39 56.54 134.51 57.01 132.10
  Q 57.55 129.31 57.84 126.23
  A 0.51 0.50 -87.5 0 0 57.33 125.67
  L 42.51 125.75
  A 0.60 0.60 4.5 0 1 41.92 125.06
  L 44.69 107.20
  A 0.54 0.53 4.4 0 1 45.22 106.75
  L 82.85 106.69
  A 0.51 0.50 4.3 0 1 83.36 107.27
  L 77.81 142.41
  A 0.78 0.42 -73.3 0 0 77.94 143.04
  Q 78.19 143.25 78.44 142.69
  Q 97.32 99.64 116.89 55.67
  A 1.13 1.13 -77.9 0 1 117.92 55.00
  L 141.93 55.00
  A 0.96 0.95 85.0 0 1 142.87 55.79
  C 144.15 63.31 156.27 136.43 156.68 136.48
  A 0.70 0.57 -78.2 0 0 157.32 135.96
  C 165.07 109.02 174.55 82.37 183.15 55.81
  A 1.17 1.17 -81.1 0 1 184.26 55.00
  L 203.51 55.00
  A 0.77 0.77 -4.9 0 1 204.27 55.64
  L 214.12 109.03
  Q 214.48 111.02 215.27 109.16
  L 238.03 55.48
  A 0.80 0.78 11.1 0 1 238.76 55.00
  L 262.99 55.00
  A 0.51 0.51 88.8 0 1 263.50 55.49
  L 267.68 155.90
  A 0.82 0.81 89.0 0 1 266.87 156.75
  L 247.74 156.75
  A 0.75 0.74 -1.2 0 1 246.99 156.04
  Q 245.70 126.91 244.35 97.57
  C 244.30 96.62 245.19 94.59 243.81 94.72
  A 0.80 0.65 -83.5 0 0 243.20 95.31
  Q 242.83 96.75 241.75 99.25
  Q 229.62 127.25 217.25 155.82
  A 1.55 1.54 11.5 0 1 215.83 156.75
  L 203.59 156.75
  A 1.02 1.02 -5.9 0 1 202.59 155.94
  L 191.25 100.50
  Q 191.02 99.39 190.69 100.44
  L 173.13 155.65
  A 1.57 1.56 -81.1 0 1 171.64 156.74
  L 137.93 156.57
  A 0.61 0.60 84.8 0 1 137.34 156.07
  L 132.06 127.09
  A 1.03 1.00 84.4 0 0 131.07 126.25
  L 108.52 126.25
  A 1.05 1.05 -77.8 0 0 107.56 126.87
  L 94.14 156.19
  A 0.97 0.97 12.4 0 1 93.26 156.75
  L 73.00 156.75
  A 0.54 0.54 11.0 0 1 72.50 156.01
  C 72.61 155.71 75.89 149.52 74.51 150.32
  C 53.42 162.43 26.26 160.31 9.56 141.69
  Q 0.08 131.11 0.00 115.94
  Z
  M 124.21 88.38
  L 116.30 105.67
  A 0.76 0.75 -77.6 0 0 116.98 106.75
  L 127.79 106.75
  A 0.94 0.92 84.5 0 0 128.69 105.64
  L 125.45 88.54
  Q 125.06 86.52 124.21 88.38
  Z"
/>
<path fill="#000000" d="
  M 300.87 93.86
  A 1.19 1.15 -85.6 0 0 302.01 95.24
  L 331.74 95.08
  A 1.09 1.09 4.2 0 1 332.83 96.34
  L 329.69 116.21
  A 0.87 0.86 5.0 0 1 328.82 116.93
  L 299.07 116.76
  A 1.52 1.48 -85.0 0 0 297.59 118.03
  L 294.86 134.62
  A 0.55 0.54 4.5 0 0 295.40 135.25
  L 330.68 135.25
  A 0.66 0.65 4.8 0 1 331.33 136.01
  L 327.76 156.19
  A 0.68 0.68 5.1 0 1 327.09 156.75
  L 270.48 156.75
  A 0.74 0.74 4.3 0 1 269.75 155.90
  L 285.75 55.55
  A 0.66 0.66 4.6 0 1 286.40 55.00
  L 342.95 55.00
  A 0.61 0.60 4.1 0 1 343.55 55.69
  L 340.33 76.23
  A 0.63 0.63 4.9 0 1 339.71 76.75
  L 304.37 76.75
  A 0.94 0.92 -85.2 0 0 303.46 77.54
  L 300.87 93.86
  Z"
/>
<path fill="#000000" d="
  M 474.0446 157.8756
  A 52.36 43.23 103.3 0 1 444.0195 96.9749
  A 52.36 43.23 103.3 0 1 498.1354 55.9644
  A 52.36 43.23 103.3 0 1 528.1605 116.8651
  A 52.36 43.23 103.3 0 1 474.0446 157.8756
  Z
  M 478.2248 138.3055
  A 32.47 21.81 104.0 0 0 507.2421 112.0763
  A 32.47 21.81 104.0 0 0 493.9352 75.2945
  A 32.47 21.81 104.0 0 0 464.9179 101.5237
  A 32.47 21.81 104.0 0 0 478.2248 138.3055
  Z"
/>
<path fill="#000000" d="
  M 542.75 110.09
  A 4.58 4.49 -53.3 0 0 542.40 107.51
  L 518.46 55.71
  A 0.34 0.34 76.5 0 1 518.75 55.23
  Q 530.15 54.69 541.56 55.17
  A 0.78 0.75 -9.2 0 1 542.25 55.65
  L 554.60 87.43
  Q 555.01 88.50 555.62 87.53
  L 575.42 55.81
  A 1.74 1.73 16.0 0 1 576.89 55.00
  L 599.17 55.06
  Q 600.17 55.06 599.63 55.90
  Q 581.48 84.37 563.84 112.37
  Q 562.50 114.50 562.13 116.99
  Q 559.20 136.62 556.26 156.18
  A 0.68 0.67 -85.5 0 1 555.60 156.75
  L 536.07 156.69
  A 0.75 0.75 -85.4 0 1 535.33 155.82
  L 542.75 110.09
  Z"
/>
<path fill="#000000" d="
  M 375.70 56.10
  A 0.65 0.65 4.3 0 1 376.33 55.56
  Q 394.03 55.45 412.00 55.50
  C 421.94 55.53 430.64 60.39 435.99 68.42
  C 444.24 80.80 439.25 93.75 429.77 103.46
  A 1.74 1.74 -45.2 0 0 429.78 105.89
  C 441.05 117.35 441.85 131.04 431.87 143.25
  C 425.56 150.99 415.46 156.82 405.25 156.79
  Q 383.25 156.75 360.61 156.75
  A 0.80 0.80 -85.4 0 1 359.82 155.82
  L 375.70 56.10
  Z
  M 393.68 77.90
  L 390.62 95.29
  A 0.61 0.60 3.4 0 0 391.25 95.99
  C 397.25 95.64 406.74 97.07 411.90 94.02
  C 417.36 90.78 419.58 82.65 413.35 78.68
  C 409.05 75.94 399.60 76.88 394.69 77.04
  A 1.07 1.05 4.0 0 0 393.68 77.90
  Z
  M 387.21 117.09
  L 384.16 136.34
  A 0.80 0.79 4.3 0 0 384.95 137.25
  C 392.96 137.25 407.00 139.04 413.44 133.69
  C 420.41 127.89 415.72 117.14 407.25 116.75
  Q 397.41 116.30 387.82 116.56
  A 0.63 0.63 3.8 0 0 387.21 117.09
  Z"
/>
<path fill="#000000" d="
  M 185.94 200.79
  Q 189.25 213.34 185.06 224.81
  C 178.79 242.01 159.09 246.77 142.75 246.76
  Q 113.25 246.75 82.44 246.75
  A 1.67 1.67 -14.8 0 1 80.99 245.91
  L 51.99 194.53
  Q 51.60 193.84 51.22 194.53
  L 31.33 230.36
  A 0.43 0.43 14.6 0 0 31.71 231.00
  L 50.84 231.00
  A 0.66 0.66 0.0 0 1 51.50 231.66
  L 51.50 246.24
  A 0.69 0.69 0.4 0 1 50.80 246.93
  L 2.19 246.76
  Q 1.06 246.76 1.63 245.79
  Q 19.89 214.92 37.69 185.19
  Q 42.07 177.86 43.53 175.72
  A 0.99 0.86 14.5 0 1 44.32 175.33
  L 60.58 175.48
  A 1.69 1.60 -14.8 0 1 62.00 176.26
  L 96.82 233.94
  A 0.35 0.29 54.7 0 0 97.31 234.07
  L 97.44 233.95
  A 0.46 0.29 77.8 0 0 97.56 233.63
  L 97.50 175.74
  A 0.42 0.42 0.7 0 1 97.93 175.32
  Q 122.03 175.64 146.25 175.41
  C 156.46 175.32 168.97 178.17 176.62 185.38
  C 177.65 186.35 177.22 184.87 177.03 184.58
  Q 174.23 180.53 171.63 176.22
  Q 171.15 175.42 172.07 175.43
  L 194.19 175.55
  A 0.87 0.86 75.0 0 1 194.94 175.99
  L 221.27 221.21
  Q 221.96 222.40 222.62 221.20
  L 247.31 176.41
  A 1.64 1.56 -75.1 0 1 248.68 175.57
  L 268.82 175.33
  Q 269.77 175.32 269.29 176.16
  L 228.68 246.20
  A 1.11 1.09 -74.7 0 1 227.73 246.75
  L 215.12 246.75
  A 0.92 0.91 74.0 0 1 214.34 246.31
  Q 200.40 223.76 187.06 201.19
  Q 186.70 200.58 186.30 200.39
  Q 185.77 200.15 185.94 200.79
  Z
  M 165.71 204.56
  C 163.76 195.35 154.91 191.49 146.25 191.49
  Q 133.00 191.50 118.53 191.50
  A 0.78 0.78 0.0 0 0 117.75 192.28
  L 117.75 229.22
  A 1.01 1.01 0.6 0 0 118.74 230.23
  C 130.17 230.47 149.28 231.92 158.94 226.44
  C 165.88 222.50 167.26 211.82 165.71 204.56
  Z"
/>
<path fill="#000000" d="
  M 270.92 230.92
  L 289.48 230.75
  A 0.82 0.78 89.3 0 1 290.27 231.56
  L 290.42 245.92
  A 0.84 0.81 -90.0 0 1 289.61 246.76
  L 240.83 246.93
  Q 239.70 246.94 240.27 245.97
  L 281.69 176.02
  A 1.70 1.50 13.4 0 1 283.10 175.27
  L 299.50 175.34
  A 1.24 1.08 -13.5 0 1 300.52 175.87
  L 335.25 233.41
  Q 336.44 235.38 336.43 233.08
  L 336.26 176.53
  A 1.33 1.22 0.0 0 1 337.60 175.30
  L 349.43 175.35
  A 1.64 1.12 -17.8 0 1 350.34 175.62
  L 403.92 217.49
  Q 404.82 218.19 404.82 217.05
  L 404.75 176.29
  A 0.83 0.81 -0.0 0 1 405.58 175.48
  L 422.55 175.33
  A 0.94 0.91 -0.3 0 1 423.50 176.24
  L 423.50 245.88
  A 0.87 0.87 0.0 0 1 422.63 246.75
  L 410.08 246.75
  A 1.83 1.82 64.3 0 1 408.94 246.35
  L 356.11 204.10
  Q 355.31 203.46 355.31 204.48
  L 355.25 246.08
  A 0.67 0.67 -0.2 0 1 354.58 246.75
  L 321.12 246.95
  A 1.66 1.65 -15.0 0 1 319.66 246.11
  L 290.56 194.42
  Q 290.23 193.84 289.90 194.43
  L 270.37 230.01
  A 0.62 0.62 13.9 0 0 270.92 230.92
  Z"
/>
<path fill="#000000" d="
  M 539.07 230.19
  L 594.23 230.25
  A 0.77 0.76 0.0 0 1 595.00 231.01
  L 595.00 245.88
  A 0.87 0.87 0.0 0 1 594.13 246.75
  L 518.52 246.75
  A 0.71 0.70 0.0 0 1 517.81 246.05
  L 517.75 175.98
  A 0.55 0.54 -0.0 0 1 518.30 175.44
  L 593.24 175.50
  A 1.00 0.99 0.3 0 1 594.24 176.50
  L 594.19 190.95
  A 0.56 0.55 -0.0 0 1 593.63 191.50
  L 539.19 191.44
  A 0.61 0.59 5.1 0 0 538.59 191.92
  Q 537.78 196.11 538.68 201.27
  A 0.66 0.66 -4.6 0 0 539.33 201.82
  L 569.97 201.75
  A 1.01 0.98 0.3 0 1 570.98 202.74
  L 570.84 216.81
  A 0.53 0.53 -89.4 0 1 570.31 217.33
  L 539.38 217.33
  A 1.05 0.95 -0.5 0 0 538.33 218.30
  L 538.51 229.69
  A 0.56 0.51 -0.5 0 0 539.07 230.19
  Z"
/>
<path fill="#000000" d="
  M 489.69 192.06
  L 450.80 192.06
  A 0.51 0.49 90.0 0 0 450.31 192.57
  L 450.31 229.19
  A 0.50 0.50 0.0 0 0 450.81 229.69
  L 489.36 229.51
  A 1.11 1.07 -0.0 0 0 490.46 228.45
  L 490.49 219.28
  A 0.61 0.60 -89.1 0 1 491.10 218.68
  L 509.73 218.75
  A 1.28 1.27 -0.7 0 1 511.01 219.99
  C 511.39 238.64 510.38 246.84 489.25 246.90
  Q 460.42 246.98 444.25 246.50
  C 431.97 246.13 429.72 237.05 429.65 226.75
  Q 429.44 195.88 430.00 189.75
  Q 431.30 175.50 445.50 175.50
  Q 468.50 175.50 491.50 175.50
  C 497.43 175.50 503.14 175.80 507.18 180.23
  C 512.06 185.59 510.51 194.23 511.00 201.02
  A 0.68 0.68 88.0 0 1 510.32 201.75
  L 491.52 201.75
  A 1.20 1.10 89.5 0 1 490.42 200.57
  L 490.26 192.56
  A 0.57 0.51 -0.5 0 0 489.69 192.06
  Z"
/>
</svg>
