<?xml version="1.0" encoding="UTF-8" standalone="no"?>
<!DOCTYPE svg PUBLIC "-//W3C//DTD SVG 1.1//EN" "http://www.w3.org/Graphics/SVG/1.1/DTD/svg11.dtd">
<svg xmlns="http://www.w3.org/2000/svg" version="1.1" viewBox="0 0 600 300">
<path fill="#000000" d="
  M 127.91 122.43
  L 127.76 97.12
  A 0.88 0.86 -0.3 0 1 128.64 96.25
  L 139.34 96.25
  A 0.66 0.66 0.0 0 1 140.00 96.91
  L 140.00 135.58
  A 0.67 0.67 0.0 0 1 139.33 136.25
  L 128.65 136.25
  A 1.34 1.29 -15.4 0 1 127.53 135.64
  L 111.56 109.92
  Q 110.57 108.33 110.58 110.21
  L 110.74 135.59
  A 0.67 0.66 -0.0 0 1 110.07 136.25
  L 98.77 136.25
  A 0.52 0.52 -90.0 0 1 98.25 135.73
  L 98.25 96.91
  A 0.66 0.66 0.0 0 1 98.91 96.25
  L 109.72 96.25
  A 1.35 1.33 -15.7 0 1 110.86 96.88
  L 126.76 122.77
  Q 127.93 124.67 127.91 122.43
  Z"
/>
<rect fill="#000000" x="-5.88" y="-4.38" transform="translate(152.62,100.63) rotate(-0.1)" width="11.76" height="8.76" rx="0.52"/>
<path fill="#000000" d="
  M 320.69 110.70
  L 320.74 97.29
  A 1.01 0.94 -89.4 0 1 321.69 96.29
  L 331.75 96.46
  A 0.56 0.52 88.9 0 1 332.27 97.00
  C 332.84 109.74 332.36 122.69 332.51 135.31
  A 0.92 0.91 90.0 0 1 331.59 136.24
  L 321.81 136.20
  A 1.27 0.45 48.8 0 1 321.04 135.77
  L 320.44 135.23
  A 0.86 0.58 -35.2 0 0 319.57 135.25
  Q 315.04 137.88 310.50 136.75
  C 289.54 131.55 300.75 101.15 320.01 111.11
  A 0.47 0.46 13.7 0 0 320.69 110.70
  Z
  M 320.7516 117.8239
  A 4.38 4.38 0.0 0 0 316.3564 113.4592
  L 315.8764 113.4609
  A 4.38 4.38 0.0 0 0 311.5117 117.8562
  L 311.5484 128.3561
  A 4.38 4.38 0.0 0 0 315.9436 132.7208
  L 316.4236 132.7191
  A 4.38 4.38 0.0 0 0 320.7883 128.3238
  L 320.7516 117.8239
  Z"
/>
<path fill="#000000" d="
  M 205.19 110.29
  L 200.58 110.26
  A 0.89 0.86 -4.6 0 1 199.71 109.54
  Q 199.08 105.70 201.29 106.33
  Q 201.75 106.46 202.24 106.44
  L 204.26 106.32
  Q 206.35 106.19 205.91 104.41
  Q 204.98 100.61 207.56 100.87
  C 210.54 101.18 213.69 100.99 216.68 100.84
  A 0.78 0.70 -12.8 0 1 217.41 101.25
  Q 218.22 103.06 217.56 105.08
  A 1.18 1.05 6.9 0 0 218.77 106.45
  L 222.92 106.29
  A 1.27 1.14 84.1 0 1 224.10 107.36
  C 224.78 111.47 221.13 110.58 218.71 110.05
  A 0.87 0.85 -83.9 0 0 217.68 110.90
  L 217.58 135.56
  A 0.55 0.54 -90.0 0 1 217.05 136.10
  L 206.55 136.21
  A 0.84 0.80 89.3 0 1 205.74 135.38
  L 205.69 110.82
  A 0.53 0.50 -90.0 0 0 205.19 110.29
  Z"
/>
<path fill="#000000" d="
  M 84.76 150.77
  C 71.89 129.79 50.36 109.68 26.48 101.99
  Q 24.83 101.46 26.55 101.49
  L 44.18 101.78
  A 1.68 1.37 59.7 0 1 45.09 102.12
  Q 70.48 122.05 85.77 150.50
  C 86.56 151.96 85.27 151.60 84.76 150.77
  Z"
/>
<path fill="#000000" d="
  M 57.10 101.42
  L 63.44 101.55
  A 1.06 1.06 -18.6 0 1 64.25 101.95
  Q 74.91 115.06 83.81 132.19
  Q 85.48 135.39 85.92 137.75
  A 0.66 0.43 81.3 0 1 85.58 138.50
  Q 85.25 138.54 84.95 138.05
  C 76.91 125.35 67.94 112.19 56.73 102.39
  Q 55.58 101.39 57.10 101.42
  Z"
/>
<path fill="#000000" d="
  M 71.01 101.45
  L 85.07 101.67
  A 0.52 0.52 0.0 0 1 85.58 102.18
  L 85.81 120.35
  Q 85.84 122.24 84.94 120.57
  Q 79.54 110.54 70.81 101.94
  Q 70.29 101.43 71.01 101.45
  Z"
/>
<path fill="#000000" d="
  M 246.14 127.10
  L 255.44 127.03
  A 0.88 0.82 12.7 0 1 256.26 128.23
  C 250.63 138.86 236.64 140.75 227.69 133.56
  C 218.19 125.94 222.76 113.29 233.19 109.70
  C 243.52 106.15 254.48 110.66 257.31 121.75
  A 1.22 1.21 -7.4 0 1 256.13 123.26
  L 235.68 123.42
  A 0.55 0.52 -88.2 0 0 235.16 123.94
  C 235.01 127.05 234.58 131.43 237.33 133.53
  C 241.98 137.07 244.57 132.19 244.97 128.10
  A 1.19 1.10 2.1 0 1 246.14 127.10
  Z
  M 244.75 117.00
  C 245.26 109.55 233.65 110.16 235.21 118.70
  A 0.61 0.61 -5.1 0 0 235.81 119.20
  L 243.50 119.25
  A 2.37 1.15 -86.8 0 0 244.75 117.00
  Z"
/>
<path fill="#000000" d="
  M 370.74 123.03
  A 17.25 14.63 0.0 0 1 353.49 137.66
  A 17.25 14.63 0.0 0 1 336.24 123.03
  A 17.25 14.63 0.0 0 1 353.49 108.40
  A 17.25 14.63 0.0 0 1 370.74 123.03
  Z
  M 358.14 116.20
  A 4.57 4.57 0.0 0 0 353.57 111.63
  L 353.17 111.63
  A 4.57 4.57 0.0 0 0 348.60 116.20
  L 348.60 129.78
  A 4.57 4.57 0.0 0 0 353.17 134.35
  L 353.57 134.35
  A 4.57 4.57 0.0 0 0 358.14 129.78
  L 358.14 116.20
  Z"
/>
<path fill="#000000" d="
  M 177.23 112.32
  C 180.79 109.22 185.84 108.32 190.38 109.61
  C 201.38 112.73 199.86 124.30 199.33 135.57
  A 0.54 0.51 -88.8 0 1 198.82 136.09
  L 188.31 136.21
  A 0.51 0.50 90.0 0 1 187.81 135.70
  C 187.78 131.45 188.84 119.16 186.37 116.07
  C 183.90 112.99 177.66 114.24 176.83 118.32
  Q 176.82 118.34 176.66 122.70
  Q 176.43 129.19 176.44 135.70
  A 0.51 0.51 89.7 0 1 175.93 136.21
  L 165.69 136.09
  A 0.53 0.51 89.4 0 1 165.18 135.57
  L 164.82 111.27
  A 1.26 1.25 -86.8 0 1 166.23 110.00
  Q 170.87 110.56 175.51 110.07
  Q 176.81 109.93 176.61 112.00
  Q 176.52 112.94 177.23 112.32
  Z"
/>
<path fill="#000000" d="
  M 272.61 112.27
  Q 272.42 112.99 272.99 112.51
  C 279.24 107.19 290.19 107.89 293.97 115.78
  C 296.22 120.48 295.21 129.46 295.50 135.33
  A 0.84 0.82 88.7 0 1 294.67 136.22
  L 284.18 136.09
  A 0.54 0.51 88.8 0 1 283.67 135.57
  Q 283.43 127.91 283.48 120.24
  C 283.52 113.47 275.02 112.18 272.92 117.65
  C 271.51 121.30 272.50 131.33 272.44 135.68
  A 0.52 0.51 89.4 0 1 271.94 136.20
  L 261.54 136.24
  A 0.59 0.58 89.5 0 1 260.95 135.65
  L 260.76 111.25
  A 1.31 1.29 3.7 0 1 262.24 109.97
  Q 266.87 110.58 271.27 110.25
  Q 273.16 110.10 272.61 112.27
  Z"
/>
<rect fill="#000000" x="-5.87" y="-13.01" transform="translate(152.62,123.23) rotate(0.1)" width="11.74" height="26.02" rx="0.28"/>
<path fill="#000000" d="
  M 35.35 114.08
  C 56.19 120.35 74.40 136.66 82.69 156.81
  C 93.03 181.96 76.22 199.27 50.80 191.09
  Q 28.50 183.91 13.69 165.06
  C 4.05 152.80 -7.57 127.92 10.31 116.31
  C 17.43 111.69 27.80 111.80 35.35 114.08
  Z
  M 32.61 131.09
  C 21.87 126.03 12.19 133.72 19.72 145.21
  A 1.25 1.24 -21.6 0 0 20.99 145.75
  C 28.57 144.40 36.09 148.51 40.86 154.15
  Q 42.54 156.14 43.93 153.95
  C 49.46 145.28 40.16 134.64 32.61 131.09
  Z
  M 71.85 144.70
  C 68.02 139.40 58.86 132.76 51.98 136.58
  C 47.43 139.11 48.21 146.12 51.16 149.63
  A 1.04 0.94 -21.4 0 0 52.01 149.95
  C 59.25 149.25 64.92 153.57 70.59 158.78
  A 0.89 0.88 68.0 0 0 71.13 159.01
  Q 73.74 159.20 74.03 156.81
  Q 74.08 156.34 74.38 155.92
  C 76.40 153.05 73.56 147.06 71.85 144.70
  Z
  M 23.18 169.32
  Q 23.28 169.92 24.00 170.00
  Q 26.23 170.23 27.56 170.69
  Q 29.41 171.32 31.27 170.88
  Q 31.66 170.79 32.10 170.38
  C 33.97 168.65 36.31 171.18 37.38 169.03
  A 0.56 0.53 -68.1 0 1 38.02 168.74
  Q 39.10 169.04 39.28 168.02
  A 0.37 0.35 12.2 0 1 39.74 167.74
  L 40.18 167.87
  A 0.80 0.65 -63.4 0 0 40.95 167.52
  Q 41.86 166.12 43.26 165.20
  A 1.41 1.09 -15.3 0 0 43.82 164.46
  Q 44.31 162.50 43.82 160.54
  A 1.48 0.78 24.6 0 0 43.26 159.82
  Q 42.74 159.45 42.68 158.81
  A 0.59 0.57 -89.5 0 0 42.19 158.29
  Q 41.30 158.18 40.72 157.48
  A 0.93 0.92 -21.1 0 0 39.94 157.14
  L 39.06 157.20
  A 1.04 0.70 63.2 0 1 38.30 156.77
  C 37.37 155.51 33.80 155.97 32.31 156.04
  A 1.66 1.22 -58.9 0 0 31.44 156.40
  C 29.93 157.63 27.26 157.43 25.29 158.56
  C 23.64 159.51 21.36 159.56 21.41 162.44
  A 0.61 0.58 -8.1 0 1 20.95 163.02
  Q 19.71 163.36 19.90 164.75
  Q 19.96 165.24 19.90 165.74
  Q 19.75 166.98 20.93 166.94
  A 0.73 0.73 -15.9 0 1 21.60 167.31
  Q 22.11 168.21 22.74 168.60
  A 1.12 0.92 -82.2 0 1 23.18 169.32
  Z
  M 72.4082 166.4634
  A 11.80 7.45 -9.2 0 0 59.5689 160.9958
  A 11.80 7.45 -9.2 0 0 49.1118 170.2366
  A 11.80 7.45 -9.2 0 0 61.9511 175.7042
  A 11.80 7.45 -9.2 0 0 72.4082 166.4634
  Z"
/>
<path fill="#000000" d="
  M 218.49 170.98
  A 1.54 1.53 -7.6 0 0 216.62 169.55
  Q 213.27 170.31 213.41 168.11
  C 213.56 165.70 213.44 163.34 213.64 160.93
  A 0.63 0.53 -87.1 0 1 214.18 160.35
  L 217.73 160.34
  A 1.03 0.96 0.3 0 0 218.76 159.39
  L 218.80 143.05
  A 0.53 0.52 -0.0 0 1 219.32 142.54
  L 229.82 142.43
  A 0.70 0.68 90.0 0 1 230.50 143.13
  L 230.50 159.72
  A 0.62 0.61 0.0 0 0 231.12 160.33
  L 238.59 160.25
  A 0.93 0.90 89.7 0 1 239.50 161.18
  L 239.50 169.25
  A 0.50 0.50 0.0 0 1 239.00 169.75
  L 231.37 169.75
  A 0.87 0.87 0.0 0 0 230.50 170.62
  L 230.50 190.59
  A 0.65 0.63 89.6 0 0 231.14 191.24
  L 237.86 191.16
  A 0.63 0.62 -0.5 0 1 238.50 191.78
  L 238.50 200.06
  A 0.51 0.51 0.6 0 1 237.98 200.57
  Q 231.12 200.47 224.64 200.49
  C 219.01 200.50 218.68 198.18 218.77 193.39
  Q 218.97 181.64 218.49 170.98
  Z"
/>
<path fill="#000000" d="
  M 97.45 199.09
  C 97.70 196.46 97.30 193.96 97.74 191.31
  A 0.62 0.62 5.4 0 1 98.36 190.80
  Q 119.98 191.31 141.06 190.79
  C 143.50 190.73 145.92 189.64 146.37 187.22
  Q 146.75 185.14 146.75 183.02
  Q 146.74 176.79 140.50 176.71
  Q 126.44 176.53 112.38 176.50
  C 106.24 176.49 102.12 176.03 99.06 171.05
  C 96.62 167.06 97.39 158.88 97.57 154.22
  C 97.86 146.81 102.11 142.77 109.40 142.74
  Q 130.48 142.63 152.42 142.69
  A 1.03 0.98 0.3 0 1 153.45 143.68
  L 153.36 151.32
  A 0.66 0.61 -5.2 0 1 152.82 151.92
  Q 150.71 152.34 147.25 152.25
  Q 136.95 151.98 116.74 152.22
  C 112.14 152.27 109.96 153.26 109.50 158.00
  C 108.51 168.19 114.49 167.00 122.43 167.00
  Q 133.96 167.00 145.50 166.98
  Q 158.80 166.97 158.75 180.50
  C 158.73 185.72 159.52 191.11 156.98 195.20
  C 153.12 201.41 148.01 200.50 139.97 200.50
  Q 119.61 200.50 99.25 200.50
  Q 97.31 200.50 97.45 199.09
  Z"
/>
<circle fill="#000000" cx="447.20" cy="148.63" r="6.23"/>
<rect fill="#000000" x="295.75" y="143.26" width="12.00" height="57.48" rx="0.59"/>
<rect fill="#000000" x="314.51" y="143.24" width="11.98" height="57.56" rx="0.61"/>
<rect fill="#000000" x="441.25" y="159.75" width="12.00" height="41.04" rx="0.72"/>
<path fill="#000000" d="
  M 197.14 160.15
  C 212.05 159.52 209.21 179.06 208.92 187.71
  C 208.62 196.68 204.55 200.50 195.80 200.50
  C 189.16 200.50 174.51 202.03 168.93 199.09
  C 163.47 196.21 159.18 183.65 167.80 181.51
  Q 181.95 178.00 196.08 174.43
  A 0.66 0.63 -6.9 0 0 196.59 173.81
  C 196.56 169.35 189.63 169.51 186.74 169.50
  Q 177.25 169.46 167.38 169.57
  A 0.97 0.89 -0.6 0 1 166.40 168.69
  L 166.40 160.94
  A 0.55 0.51 -0.6 0 1 166.94 160.43
  C 176.99 160.21 187.11 160.57 197.14 160.15
  Z
  M 177.01 190.86
  A 4.49 4.49 -26.5 0 0 179.53 191.70
  Q 186.46 191.89 192.12 191.61
  C 197.23 191.35 196.48 188.76 196.92 184.88
  Q 197.14 182.92 195.18 183.57
  C 189.96 185.29 184.33 186.44 178.98 187.76
  C 177.58 188.10 173.16 188.13 177.01 190.86
  Z"
/>
<path fill="#000000" d="
  M 255.89 187.07
  Q 256.59 190.72 260.19 190.81
  Q 273.72 191.14 288.50 190.99
  A 0.73 0.71 -0.4 0 1 289.24 191.70
  L 289.20 199.94
  A 0.51 0.50 -0.0 0 1 288.69 200.44
  Q 273.14 200.53 257.58 200.51
  C 247.52 200.49 243.50 196.68 243.50 186.75
  C 243.50 175.91 239.90 160.25 256.62 160.25
  Q 266.51 160.25 276.40 160.25
  C 285.20 160.25 290.41 165.16 289.24 174.61
  Q 288.94 176.95 286.88 178.11
  Q 284.32 179.54 281.11 180.27
  Q 268.65 183.11 256.30 186.43
  A 0.57 0.56 -13.0 0 0 255.89 187.07
  Z
  M 256.45 170.67
  Q 255.25 173.47 255.53 176.90
  A 0.52 0.51 -9.2 0 0 256.17 177.35
  L 275.85 172.48
  A 1.08 1.07 -26.7 0 0 276.43 170.75
  C 273.90 167.67 261.32 169.03 258.04 169.46
  A 2.01 2.01 -82.2 0 0 256.45 170.67
  Z"
/>
<path fill="#000000" d="
  M 365.10 173.70
  Q 364.30 169.89 360.50 169.75
  Q 348.88 169.32 335.72 169.52
  A 0.90 0.88 -0.6 0 1 334.80 168.64
  L 334.75 160.89
  A 0.66 0.64 -0.0 0 1 335.41 160.25
  Q 347.05 160.25 358.47 160.25
  C 366.69 160.25 371.94 159.27 375.84 165.58
  C 378.81 170.38 377.61 183.24 377.40 188.98
  Q 377.25 192.89 375.82 195.17
  C 371.95 201.35 366.95 200.50 359.02 200.50
  C 353.35 200.50 342.63 201.73 337.70 199.23
  Q 330.69 195.69 331.50 187.00
  C 331.92 182.50 335.78 181.67 340.19 180.60
  Q 352.49 177.61 364.70 174.32
  A 0.56 0.52 -13.8 0 0 365.10 173.70
  Z
  M 345.75 190.91
  A 3.09 3.05 -23.3 0 0 347.44 191.57
  Q 353.71 192.04 360.71 191.62
  C 366.04 191.30 365.02 188.27 365.49 184.29
  A 0.79 0.79 86.2 0 0 364.51 183.43
  Q 354.77 185.96 345.24 188.21
  Q 343.02 188.74 345.75 190.91
  Z"
/>
<path fill="#000000" d="
  M 408.16 190.75
  L 423.24 161.10
  A 1.55 1.54 -76.5 0 1 424.62 160.25
  L 436.02 160.25
  A 0.68 0.68 13.8 0 1 436.62 161.24
  Q 428.21 177.27 419.94 193.69
  C 416.09 201.33 406.68 204.77 399.69 199.56
  Q 397.12 197.64 394.32 192.21
  Q 386.23 176.53 378.22 160.88
  A 0.43 0.43 76.4 0 1 378.60 160.25
  L 390.69 160.30
  A 0.85 0.84 -13.1 0 1 391.42 160.75
  L 406.87 190.74
  Q 407.52 192.01 408.16 190.75
  Z"
/>
<path fill="#000000" d="
  M 459.25 181.51
  C 459.24 173.62 457.55 160.62 469.75 160.44
  Q 481.04 160.28 492.32 160.25
  C 500.85 160.24 506.40 165.81 505.00 174.75
  Q 504.49 178.02 500.56 179.06
  Q 486.32 182.82 472.05 186.24
  A 0.78 0.77 -15.9 0 0 471.49 187.23
  C 472.33 189.72 473.96 190.72 476.66 190.80
  Q 489.65 191.17 503.84 190.98
  A 1.15 1.15 -0.2 0 1 505.00 192.13
  L 505.00 199.84
  A 0.66 0.66 -0.2 0 1 504.34 200.50
  Q 488.14 200.50 472.01 200.50
  Q 467.67 200.50 465.23 199.22
  C 458.30 195.58 459.26 189.85 459.25 181.51
  Z
  M 471.67 171.70
  Q 471.03 173.51 471.30 176.91
  A 0.49 0.48 80.4 0 0 471.90 177.34
  L 491.30 172.49
  Q 493.73 171.88 491.82 170.25
  C 489.31 168.09 479.11 169.00 475.48 169.00
  Q 472.62 169.00 471.67 171.70
  Z"
/>
<path fill="#000000" d="
  M 567.51 190.49
  Q 568.13 192.30 569.01 190.62
  L 583.90 161.98
  A 2.29 2.27 -76.2 0 1 585.92 160.75
  L 597.52 160.75
  Q 598.40 160.75 597.85 161.44
  Q 596.69 162.90 595.75 164.78
  Q 588.55 179.09 581.15 193.29
  C 578.16 199.02 575.47 202.64 569.06 202.92
  C 558.48 203.37 554.56 188.52 552.19 180.06
  Q 551.23 176.65 550.31 180.31
  C 547.83 190.20 543.46 205.75 529.63 202.42
  A 1.12 0.80 76.2 0 1 529.01 201.89
  C 528.80 201.50 529.09 201.65 528.60 201.44
  Q 524.93 199.81 523.04 196.23
  Q 513.91 178.95 505.22 161.45
  A 0.34 0.32 76.3 0 1 505.50 160.96
  L 517.57 160.90
  A 0.89 0.78 74.5 0 1 518.30 161.38
  L 533.17 189.91
  Q 534.39 192.25 535.25 189.76
  L 544.89 161.61
  A 1.28 1.28 -80.4 0 1 546.10 160.75
  L 556.66 160.75
  A 0.91 0.87 -9.0 0 1 557.51 161.34
  L 567.51 190.49
  Z"
/>
<path fill="#000000" d="
  M 42.54 192.54
  Q 44.07 193.25 42.38 193.25
  L 5.51 193.32
  Q 3.32 193.32 5.27 192.34
  C 14.67 187.60 13.26 178.76 9.19 171.10
  A 0.55 0.32 63.6 0 1 9.23 170.44
  Q 9.45 170.35 9.81 170.69
  Q 24.31 184.15 42.54 192.54
  Z"
/>
</svg>
