<?xml version="1.0" encoding="UTF-8" standalone="no"?>
<!DOCTYPE svg PUBLIC "-//W3C//DTD SVG 1.1//EN" "http://www.w3.org/Graphics/SVG/1.1/DTD/svg11.dtd">
<svg xmlns="http://www.w3.org/2000/svg" version="1.1" viewBox="0 0 600 300">
<path fill="#279eb4" d="
  M 73.70 90.47
  C 76.27 90.64 78.10 84.77 78.71 82.85
  Q 79.71 79.72 81.07 77.50
  Q 87.62 66.81 91.98 55.07
  Q 92.69 53.17 93.96 47.38
  C 94.95 42.85 97.25 37.44 99.68 33.46
  Q 106.88 21.62 118.19 13.72
  C 120.87 11.85 123.40 11.77 126.50 11.78
  Q 132.79 11.81 153.00 11.25
  C 163.60 10.96 163.01 18.44 162.67 26.68
  C 162.44 32.38 161.32 38.02 161.14 43.51
  C 160.94 50.04 159.78 55.11 161.35 60.71
  Q 162.30 64.09 162.40 65.96
  C 163.49 86.26 164.53 106.36 162.65 126.66
  C 162.26 130.92 163.00 136.03 157.24 136.97
  Q 144.78 139.00 143.69 125.48
  Q 142.66 112.57 142.50 104.00
  C 142.39 98.07 141.64 91.84 141.22 86.92
  Q 139.44 66.14 137.50 45.37
  C 137.22 42.43 137.40 37.71 136.22 33.91
  A 1.05 1.03 -88.4 0 0 135.61 33.25
  C 129.14 30.70 127.48 34.95 124.65 40.24
  Q 110.33 67.06 92.56 102.81
  C 90.89 106.17 90.01 112.04 87.93 113.98
  A 1.72 1.66 -15.5 0 0 87.45 114.79
  C 85.77 121.37 75.66 128.04 71.06 130.81
  Q 67.11 133.20 62.31 132.45
  C 58.60 131.87 56.33 127.93 54.84 124.86
  C 53.38 121.86 53.62 119.02 53.39 115.63
  C 53.14 112.11 51.16 107.88 49.89 104.57
  C 48.87 101.92 48.97 98.97 47.50 95.75
  Q 43.99 88.03 39.49 75.31
  C 37.54 69.80 36.88 64.80 32.49 60.14
  Q 30.83 58.36 30.04 60.66
  Q 27.21 68.90 27.75 76.75
  C 28.53 88.19 26.67 99.85 26.70 111.34
  C 26.72 116.13 26.23 121.05 26.19 125.94
  C 26.13 133.14 14.74 131.18 10.94 129.37
  C 3.12 125.65 1.75 117.69 1.45 109.80
  C 0.33 80.68 -0.66 58.96 2.84 35.04
  Q 3.03 33.69 3.01 29.45
  C 2.93 12.59 31.44 10.28 42.95 12.46
  A 1.32 1.32 -12.7 0 1 43.74 12.96
  C 47.28 17.81 47.29 22.02 49.11 27.43
  Q 49.81 29.51 50.25 32.00
  C 53.78 51.81 63.76 70.79 72.18 89.41
  A 1.83 1.82 79.7 0 0 73.70 90.47
  Z"
/>
<path fill="#279eb4" d="
  M 424.27 125.13
  C 401.00 135.15 376.00 124.32 368.48 99.51
  C 365.66 90.20 363.34 76.47 367.36 67.26
  Q 369.05 63.40 373.47 58.79
  C 381.61 50.30 391.95 42.07 403.94 40.44
  C 406.18 40.13 419.16 39.34 422.89 40.96
  C 427.17 42.81 431.20 43.43 435.23 46.03
  C 439.32 48.67 440.56 46.05 442.07 42.63
  C 445.75 34.22 453.90 27.93 462.72 34.81
  A 2.08 2.08 -71.8 0 1 463.51 36.38
  C 463.76 44.97 462.99 54.48 463.06 62.21
  Q 463.29 87.48 463.25 111.84
  Q 463.25 114.47 464.51 116.77
  C 467.21 121.74 471.59 133.39 461.75 134.25
  Q 455.28 134.81 450.86 130.24
  C 448.05 127.33 444.33 123.95 442.81 121.19
  C 441.46 118.73 440.41 115.63 437.40 115.39
  Q 435.19 115.21 433.81 117.06
  Q 429.49 122.89 424.27 125.13
  Z
  M 438.03 63.64
  C 438.53 62.20 441.76 54.29 436.92 56.07
  Q 430.67 58.36 425.00 57.50
  C 418.68 56.54 408.40 54.46 404.19 57.69
  Q 395.98 63.97 389.72 73.82
  Q 389.14 74.73 388.95 75.79
  Q 387.54 83.57 388.02 91.64
  C 388.52 99.97 393.71 105.55 398.79 110.77
  Q 400.08 112.10 401.91 112.43
  C 408.03 113.50 408.26 112.28 412.46 107.77
  C 416.24 103.69 420.93 99.67 422.89 94.54
  Q 423.06 94.08 423.44 93.73
  Q 424.92 92.37 426.31 89.81
  Q 433.76 76.13 438.03 63.64
  Z"
/>
<path fill="#279eb4" d="
  M 327.55 126.49
  Q 326.03 124.79 323.77 125.13
  Q 309.25 127.32 295.47 125.44
  C 289.51 124.62 282.41 123.98 277.29 122.30
  C 260.92 116.92 251.15 104.05 258.81 86.56
  C 261.69 79.99 263.52 76.49 269.37 71.97
  C 284.62 60.17 300.96 51.92 320.67 52.43
  C 323.64 52.51 325.95 54.45 324.75 57.50
  C 323.11 61.69 307.22 68.39 302.76 70.37
  Q 302.39 70.53 302.03 70.97
  Q 301.25 71.93 299.56 72.56
  C 289.40 76.36 275.17 86.67 281.25 99.50
  C 287.00 111.63 306.12 108.74 316.33 107.30
  Q 319.88 106.79 324.31 105.06
  C 328.26 103.52 331.03 102.88 332.35 98.50
  Q 333.99 93.03 333.70 87.25
  Q 333.20 77.49 333.96 67.76
  C 334.40 62.07 338.13 56.26 340.99 51.43
  Q 341.24 51.02 341.27 50.50
  C 341.45 47.09 345.30 43.57 348.12 41.98
  C 351.98 39.81 355.57 40.46 359.30 42.45
  A 2.70 2.69 -78.4 0 1 360.72 44.61
  C 361.02 48.37 360.01 52.32 359.84 55.14
  C 358.75 73.65 357.86 91.84 356.43 110.65
  Q 355.42 123.96 355.75 130.00
  C 356.35 140.83 350.61 149.82 340.54 153.84
  Q 312.86 164.87 282.99 162.94
  Q 267.55 161.94 261.50 161.25
  C 257.66 160.81 248.36 155.64 256.47 151.90
  C 258.80 150.83 261.48 149.53 264.00 149.22
  C 277.36 147.57 290.19 151.87 303.70 149.41
  Q 312.79 147.76 321.19 143.69
  C 323.64 142.50 328.98 132.72 328.85 129.95
  Q 328.76 127.85 327.55 126.49
  Z"
/>
<path fill="#279eb4" d="
  M 200.97 48.84
  Q 201.89 48.23 202.98 48.12
  Q 214.13 47.00 224.75 47.25
  C 231.40 47.41 240.70 54.91 241.71 61.67
  C 242.99 70.27 238.10 79.86 230.17 83.66
  C 219.96 88.55 209.38 90.28 198.44 93.94
  Q 194.87 95.13 194.05 97.97
  C 190.96 108.58 196.80 111.83 205.88 115.35
  Q 218.41 120.20 223.50 121.50
  C 231.67 123.58 241.79 124.57 254.25 125.83
  C 259.08 126.32 275.22 127.20 277.02 132.57
  Q 277.71 134.61 276.11 136.05
  Q 272.75 139.10 268.74 139.43
  C 250.19 140.93 233.25 140.25 217.17 135.88
  C 212.80 134.69 207.94 134.14 203.75 132.57
  Q 200.03 131.17 198.63 130.78
  C 192.34 129.02 184.15 127.34 179.08 123.09
  C 176.86 121.23 172.81 112.99 172.35 110.11
  Q 169.78 93.71 170.50 75.25
  Q 170.72 69.50 173.79 65.56
  Q 175.46 63.42 180.07 61.08
  Q 190.38 55.85 200.97 48.84
  Z
  M 216.86 64.46
  C 213.28 62.62 209.89 65.10 205.67 65.53
  C 200.16 66.09 196.22 67.62 193.98 72.95
  C 191.87 77.97 195.30 77.89 198.96 77.70
  C 204.93 77.39 216.39 75.15 218.49 68.34
  Q 219.29 65.72 216.86 64.46
  Z"
/>
<path fill="#279eb4" d="
  M 239.22 205.33
  C 234.57 198.28 228.17 192.45 222.70 186.89
  C 214.88 178.95 198.94 176.86 187.91 175.09
  C 186.45 174.86 182.97 174.89 180.64 174.22
  Q 178.93 173.73 177.78 173.66
  Q 163.96 172.80 153.75 171.25
  Q 141.66 169.41 138.99 158.19
  C 137.78 153.11 140.39 150.64 145.50 151.25
  Q 156.42 152.55 167.33 153.95
  C 187.36 156.53 207.29 160.31 227.29 163.25
  C 231.30 163.83 237.44 166.35 241.10 168.33
  C 248.58 172.37 254.09 176.31 258.51 183.08
  C 260.40 185.97 263.89 192.98 264.62 196.67
  Q 267.87 213.12 266.75 233.00
  C 265.72 251.20 252.16 253.12 238.90 259.52
  C 228.94 264.33 216.24 266.38 205.49 269.21
  C 200.13 270.62 194.69 273.02 189.15 274.75
  C 187.07 275.39 184.71 275.04 182.44 276.19
  C 177.82 278.55 172.64 280.35 168.15 282.31
  Q 161.51 285.21 150.94 288.94
  C 144.83 291.09 137.10 292.27 136.75 283.25
  Q 136.51 277.16 137.46 273.49
  Q 140.41 262.04 142.05 250.31
  Q 144.96 229.43 150.52 209.12
  C 152.66 201.29 146.40 198.22 146.08 191.28
  C 145.91 187.70 146.46 182.42 148.78 179.51
  Q 149.69 178.37 151.05 177.83
  Q 159.53 174.49 164.65 179.36
  C 173.39 187.66 178.15 198.67 175.50 210.25
  C 173.67 218.24 173.66 227.73 171.81 234.06
  C 170.67 237.96 170.59 241.63 169.77 244.92
  Q 168.47 250.13 167.93 255.97
  Q 167.74 258.12 169.77 258.85
  Q 172.62 259.88 176.04 258.90
  C 188.76 255.29 201.39 251.28 213.40 245.35
  C 219.97 242.11 227.24 239.02 234.08 235.23
  C 241.38 231.19 239.76 212.91 239.52 206.26
  A 1.82 1.78 -63.5 0 0 239.22 205.33
  Z"
/>
<path fill="#279eb4" d="
  M 497.82 267.49
  A 4.32 4.30 -84.1 0 1 496.03 265.28
  Q 494.38 260.65 494.41 256.75
  Q 494.52 242.99 492.25 232.50
  Q 490.28 223.38 489.69 217.26
  C 489.06 210.62 489.35 203.80 487.54 197.37
  C 486.08 192.17 485.49 185.60 488.44 180.87
  C 491.46 176.03 493.92 173.73 500.25 173.50
  C 504.23 173.36 504.75 174.97 504.75 178.60
  C 504.75 186.44 504.16 194.65 505.71 202.27
  C 506.50 206.12 507.22 211.29 509.23 214.66
  Q 509.54 215.18 510.31 217.11
  C 512.61 222.92 517.71 219.10 521.62 218.62
  C 527.46 217.92 533.00 215.76 538.81 214.65
  C 542.35 213.98 545.70 211.86 549.00 211.50
  C 561.17 210.16 575.73 212.75 583.74 222.86
  C 588.34 228.67 588.12 235.76 581.30 239.90
  C 578.38 241.68 576.05 244.10 580.07 246.67
  C 584.42 249.44 600.34 257.39 599.25 263.47
  C 598.43 268.03 591.40 268.30 587.59 268.01
  Q 585.96 267.89 583.15 266.67
  C 580.00 265.31 576.75 265.55 573.73 264.40
  Q 566.96 261.82 560.35 258.90
  Q 553.06 255.68 547.32 253.97
  Q 536.08 250.63 524.72 247.69
  C 520.97 246.72 518.64 244.80 514.73 247.29
  A 1.24 1.20 81.6 0 0 514.19 248.04
  C 512.87 253.54 513.11 259.47 511.25 264.50
  C 509.37 269.59 501.91 270.00 497.82 267.49
  Z
  M 534.21 231.43
  C 533.88 233.06 534.74 233.66 536.28 233.94
  C 545.11 235.55 553.78 236.25 561.85 233.24
  A 1.32 1.24 1.7 0 0 562.55 232.62
  C 564.24 229.25 562.05 227.78 558.90 227.69
  C 555.37 227.59 535.26 226.16 534.21 231.43
  Z"
/>
<path fill="#279eb4" d="
  M 418.28 267.37
  C 393.97 261.75 381.55 238.57 382.50 215.00
  C 382.68 210.47 389.59 197.06 392.49 193.03
  Q 399.84 182.80 411.01 177.85
  Q 419.62 174.03 430.48 174.33
  C 441.32 174.62 453.70 177.17 463.13 182.74
  C 466.50 184.73 469.13 185.59 471.69 189.16
  A 2.72 2.71 -52.0 0 1 472.00 191.76
  C 468.75 199.76 449.41 190.16 443.65 189.15
  C 437.21 188.03 427.62 187.56 421.96 191.56
  C 417.06 195.02 404.65 205.78 404.50 212.03
  Q 404.45 214.00 404.00 215.92
  C 402.01 224.40 403.48 231.32 408.51 238.59
  C 412.42 244.23 419.15 251.76 426.19 253.25
  Q 442.14 256.63 458.05 252.20
  Q 469.28 249.07 480.95 249.06
  Q 482.87 249.06 483.55 250.85
  C 484.93 254.50 482.57 255.52 480.11 257.30
  C 462.26 270.18 439.27 272.22 418.28 267.37
  Z"
/>
<path fill="#279eb4" d="
  M 287.08 256.75
  C 281.86 251.33 278.03 240.33 277.25 232.75
  Q 275.89 219.50 275.75 208.00
  Q 275.69 203.31 274.82 199.59
  C 272.03 187.67 285.43 188.62 291.45 193.37
  C 295.95 196.92 294.89 204.53 294.34 209.98
  C 293.16 221.56 295.41 238.81 303.19 247.81
  C 308.92 254.45 321.40 254.86 329.50 254.25
  Q 348.11 252.84 351.71 235.06
  Q 351.79 234.67 352.12 234.18
  C 353.15 232.64 353.27 226.84 354.06 223.81
  C 355.87 216.89 352.91 209.80 357.06 203.31
  C 359.15 200.06 364.13 200.17 367.51 201.13
  C 373.51 202.84 372.60 207.95 372.49 213.93
  Q 372.39 219.20 371.75 221.25
  C 370.45 225.40 372.18 230.57 373.53 234.45
  Q 378.22 247.93 382.81 261.44
  Q 385.10 268.17 379.12 272.59
  C 370.70 278.81 365.72 270.75 360.97 265.15
  A 3.16 3.06 77.2 0 0 359.47 264.17
  C 355.02 262.83 346.37 265.10 342.06 267.31
  C 339.93 268.41 338.01 268.20 336.33 268.65
  Q 323.61 272.05 310.82 269.01
  Q 310.41 268.91 307.27 268.69
  C 302.80 268.37 295.56 264.05 292.44 262.06
  C 290.49 260.82 288.65 258.37 287.08 256.75
  Z"
/>
</svg>
