<?xml version="1.0" encoding="UTF-8" standalone="no"?>
<!DOCTYPE svg PUBLIC "-//W3C//DTD SVG 1.1//EN" "http://www.w3.org/Graphics/SVG/1.1/DTD/svg11.dtd">
<svg xmlns="http://www.w3.org/2000/svg" version="1.1" viewBox="0 0 600 300">
<g stroke-width="2.00" fill="none" stroke-linecap="butt">
<path stroke="#ed1c24" vector-effect="non-scaling-stroke" d="
  M 0.21 132.75
  L 0.21 99.50"
/>
<path stroke="#ed1c24" vector-effect="non-scaling-stroke" d="
  M 0.21 99.50
  L 0.00 89.69"
/>
<path stroke="#ed1c24" vector-effect="non-scaling-stroke" d="
  M 0.00 85.94
  L 0.21 81.75"
/>
<path stroke="#ed1c24" vector-effect="non-scaling-stroke" d="
  M 0.21 81.75
  L 0.21 54.00"
/>
<path stroke="#ed1c24" vector-effect="non-scaling-stroke" d="
  M 0.21 81.75
  L 0.00 81.69"
/>
<path stroke="#ed1c24" vector-effect="non-scaling-stroke" d="
  M 0.21 99.50
  L 0.00 99.44"
/>
</g>
<path fill="#ed1c24" d="
  M 600.00 71.31
  L 600.00 119.31
  C 598.25 126.53 590.95 136.02 582.50 135.97
  Q 546.50 135.75 510.50 135.75
  C 506.84 135.75 504.01 135.86 500.83 134.10
  C 493.56 130.08 490.81 123.97 490.65 115.54
  Q 490.25 95.48 490.63 75.42
  Q 490.77 67.98 491.93 64.73
  C 494.43 57.69 500.66 52.30 508.50 52.29
  Q 543.58 52.25 578.65 52.25
  Q 584.35 52.25 587.65 53.53
  Q 598.88 57.90 600.00 71.31
  Z
  M 574.00 72.86
  A 0.37 0.37 0.0 0 0 573.63 72.49
  L 516.87 72.49
  A 0.37 0.37 0.0 0 0 516.50 72.86
  L 516.50 116.38
  A 0.37 0.37 0.0 0 0 516.87 116.75
  L 573.63 116.75
  A 0.37 0.37 0.0 0 0 574.00 116.38
  L 574.00 72.86
  Z"
/>
<path fill="#ed1c24" d="
  M 0.21 132.75
  L 0.21 99.50
  L 0.00 89.69
  L 0.00 85.94
  L 0.21 81.75
  L 0.21 54.00
  Q 38.85 53.56 77.50 53.51
  Q 91.03 53.49 97.97 64.86
  Q 99.48 67.35 99.50 70.34
  L 99.76 132.20
  A 0.83 0.83 -1.5 0 1 98.97 133.03
  Q 86.01 133.61 73.81 132.97
  A 0.53 0.53 1.7 0 1 73.31 132.44
  L 73.25 76.74
  A 0.68 0.67 90.0 0 0 72.58 76.06
  L 26.95 76.00
  A 0.95 0.95 88.9 0 0 26.00 76.95
  L 26.00 132.57
  A 0.68 0.68 -89.6 0 1 25.32 133.25
  Q 13.88 133.25 2.50 133.32
  Q 1.27 133.32 0.21 132.75
  Z"
/>
<path fill="#ed1c24" d="
  M 0.00 53.94
  L 0.21 54.00
  L 0.21 81.75
  L 0.00 81.69
  L 0.00 53.94
  Z"
/>
<path fill="#ed1c24" d="
  M 341.69 76.29
  Q 326.75 75.56 311.82 76.29
  A 0.53 0.53 -1.1 0 0 311.31 76.82
  L 311.25 132.52
  A 0.55 0.54 89.5 0 1 310.72 133.07
  L 286.93 133.24
  A 0.94 0.92 89.7 0 1 286.00 132.30
  L 286.00 77.41
  A 0.93 0.92 -0.0 0 0 285.07 76.49
  L 254.44 76.32
  A 0.94 0.92 0.0 0 0 253.50 77.24
  L 253.50 131.79
  A 0.99 0.96 89.7 0 1 252.55 132.78
  L 228.80 132.98
  A 0.81 0.79 89.7 0 1 228.00 132.17
  L 228.00 55.93
  A 1.68 1.68 -0.7 0 1 229.68 54.25
  Q 289.63 54.25 347.25 54.25
  C 351.50 54.25 354.92 54.16 358.57 56.38
  C 369.28 62.88 368.25 71.10 368.25 84.26
  Q 368.25 107.75 368.25 131.94
  A 0.84 0.83 89.7 0 1 367.43 132.78
  L 343.05 132.94
  A 0.88 0.86 90.0 0 1 342.19 132.06
  L 342.19 76.82
  A 0.53 0.52 -88.9 0 0 341.69 76.29
  Z"
/>
<path fill="#ed1c24" d="
  M 139.84 81.96
  C 155.36 81.92 170.93 82.32 186.39 82.25
  A 0.87 0.86 -90.0 0 0 187.25 81.38
  L 187.25 73.10
  A 0.85 0.85 0.0 0 0 186.40 72.25
  L 119.44 72.25
  A 0.52 0.51 -90.0 0 1 118.93 71.73
  L 119.00 55.47
  A 0.72 0.71 -90.0 0 1 119.71 54.75
  Q 158.25 54.75 196.25 54.75
  C 205.04 54.75 212.46 62.00 214.28 69.81
  Q 214.78 71.96 214.70 86.23
  Q 214.57 108.85 214.50 132.03
  A 0.98 0.97 -89.7 0 1 213.53 133.00
  Q 176.43 133.00 139.36 133.00
  Q 126.89 133.00 124.70 132.44
  C 106.01 127.65 104.53 87.90 123.73 82.66
  Q 126.17 81.99 139.84 81.96
  Z
  M 187.6282 100.6547
  A 0.49 0.49 0.0 0 0 187.1365 100.1664
  L 139.2168 100.3337
  A 0.49 0.49 0.0 0 0 138.7285 100.8254
  L 138.7718 113.2053
  A 0.49 0.49 0.0 0 0 139.2635 113.6936
  L 187.1832 113.5263
  A 0.49 0.49 0.0 0 0 187.6715 113.0346
  L 187.6282 100.6547
  Z"
/>
<path fill="#ed1c24" d="
  M 408.04 75.06
  A 0.74 0.73 90.0 0 0 407.31 75.80
  L 407.25 113.04
  A 0.71 0.70 90.0 0 0 407.95 113.75
  L 476.94 113.75
  A 0.56 0.56 0.0 0 1 477.50 114.31
  L 477.50 133.19
  A 0.56 0.56 0.0 0 1 476.94 133.75
  Q 437.75 133.75 398.75 133.82
  C 390.97 133.83 384.66 127.07 381.75 120.50
  Q 381.15 119.14 381.20 113.75
  Q 381.40 93.02 381.27 72.28
  C 381.23 64.76 385.80 58.82 392.55 56.07
  Q 395.78 54.75 401.65 54.75
  Q 438.99 54.75 476.94 54.75
  A 0.56 0.56 0.0 0 1 477.50 55.31
  L 477.50 74.43
  A 0.84 0.83 0.0 0 1 476.66 75.26
  L 408.04 75.06
  Z"
/>
<path fill="#ed1c24" d="
  M 0.00 81.69
  L 0.21 81.75
  L 0.00 85.94
  L 0.00 81.69
  Z"
/>
<path fill="#ed1c24" d="
  M 0.00 89.69
  L 0.21 99.50
  L 0.00 99.44
  L 0.00 89.69
  Z"
/>
<path fill="#ed1c24" d="
  M 0.00 99.44
  L 0.21 99.50
  L 0.21 132.75
  L 0.00 132.69
  L 0.00 99.44
  Z"
/>
<path fill="#ed1c24" d="
  M 57.98 211.13
  C 68.34 223.30 94.97 218.31 92.94 199.82
  C 91.71 188.58 69.85 191.97 62.14 185.59
  C 56.91 181.25 56.90 174.02 58.85 167.70
  C 65.60 145.77 92.64 143.07 110.85 150.67
  A 1.22 1.21 22.1 0 1 111.51 152.23
  Q 108.75 159.23 107.17 166.57
  A 0.73 0.62 -83.9 0 1 106.57 167.14
  L 103.07 167.24
  A 0.53 0.47 -88.8 0 1 102.59 166.68
  C 102.79 162.30 104.86 157.79 100.93 155.33
  C 92.44 150.01 78.89 150.89 73.82 160.53
  C 70.29 167.24 72.00 174.16 80.32 175.64
  Q 95.62 178.37 99.00 179.50
  Q 108.34 182.62 108.25 192.50
  C 108.12 207.18 96.50 218.33 82.82 221.61
  Q 65.21 225.83 49.08 217.95
  A 0.53 0.52 23.1 0 1 48.81 217.30
  Q 51.79 208.89 53.41 200.49
  A 0.74 0.57 -83.9 0 1 53.99 199.88
  L 57.38 199.82
  A 0.68 0.62 -86.0 0 1 57.99 200.59
  L 57.01 207.67
  Q 56.73 209.66 57.98 211.13
  Z"
/>
<path fill="#ed1c24" d="
  M 452.36 225.01
  Q 451.64 226.00 452.87 226.00
  L 486.69 226.00
  A 0.56 0.56 0.0 0 1 487.25 226.56
  L 487.25 243.33
  A 0.67 0.67 -0.2 0 1 486.58 244.00
  L 425.83 244.00
  A 0.47 0.47 4.2 0 1 425.36 243.46
  C 427.96 226.31 439.31 214.97 451.46 203.96
  Q 461.55 194.81 465.50 189.50
  C 470.82 182.33 472.17 168.82 460.68 166.52
  Q 447.62 163.90 445.07 179.09
  A 0.87 0.85 -82.4 0 1 444.15 179.81
  L 428.30 178.40
  A 0.88 0.87 -85.3 0 1 427.52 177.46
  C 429.04 158.13 442.78 148.86 461.50 150.25
  C 491.34 152.47 493.40 183.09 476.19 201.18
  C 468.59 209.16 458.71 216.21 452.36 225.01
  Z"
/>
<path fill="#ed1c24" d="
  M 523.36 225.01
  Q 522.64 226.00 523.87 226.00
  L 557.69 226.00
  A 0.56 0.56 -89.8 0 1 558.25 226.56
  L 558.25 243.33
  A 0.67 0.67 -89.8 0 1 557.58 244.00
  L 496.83 244.00
  A 0.47 0.47 4.2 0 1 496.36 243.46
  C 500.03 218.97 522.49 206.18 536.19 189.94
  C 541.40 183.76 543.44 169.33 532.57 166.71
  Q 518.69 163.37 516.09 178.97
  A 1.14 1.14 -82.4 0 1 514.86 179.91
  L 499.20 178.43
  A 0.77 0.76 5.4 0 1 498.51 177.61
  C 499.78 161.59 509.48 151.36 525.77 150.13
  C 558.41 147.65 567.98 179.39 547.19 201.19
  C 539.60 209.15 529.69 216.21 523.36 225.01
  Z"
/>
<path fill="#ed1c24" d="
  M 233.76 174.44
  L 236.17 159.00
  A 0.83 0.83 85.3 0 1 236.73 158.34
  Q 242.96 156.28 248.98 153.70
  Q 252.62 152.14 251.54 155.94
  Q 249.05 164.76 247.13 174.34
  A 0.50 0.49 -84.2 0 0 247.61 174.94
  L 260.87 175.00
  A 0.80 0.78 -76.8 0 1 261.56 176.14
  L 259.55 180.34
  A 1.17 1.08 -76.0 0 1 258.55 181.00
  L 246.55 181.00
  A 0.66 0.65 6.0 0 0 245.91 181.51
  Q 243.02 194.64 241.60 207.30
  C 241.20 210.93 240.65 213.66 245.49 213.94
  C 246.72 214.01 255.90 211.52 250.63 216.45
  Q 247.73 219.17 244.91 221.96
  A 1.63 1.62 -73.5 0 1 244.07 222.42
  C 238.11 223.66 228.19 223.53 226.64 216.33
  Q 226.15 214.04 227.27 208.23
  Q 229.77 195.14 232.52 181.80
  A 0.74 0.70 5.8 0 0 231.80 180.96
  L 226.19 180.87
  A 0.64 0.60 86.7 0 1 225.60 180.31
  C 225.26 177.50 231.12 176.11 233.24 175.14
  A 0.95 0.89 83.2 0 0 233.76 174.44
  Z"
/>
<path fill="#ed1c24" d="
  M 178.75 211.50
  C 180.79 220.56 199.60 220.24 201.52 210.25
  C 203.70 198.90 179.42 205.78 177.51 192.27
  Q 176.83 187.46 179.70 182.08
  C 186.40 169.55 203.80 169.35 215.82 173.18
  A 0.66 0.66 -73.9 0 1 216.26 173.98
  Q 214.70 179.71 213.50 185.50
  Q 213.11 187.40 211.23 187.11
  Q 210.74 187.03 210.26 187.13
  Q 208.41 187.51 208.75 185.75
  C 209.38 182.46 209.98 179.69 206.62 177.78
  C 201.18 174.68 191.65 175.60 189.75 182.75
  C 186.78 193.95 216.16 185.23 214.49 203.00
  C 213.23 216.51 199.37 223.49 187.50 223.00
  Q 179.62 222.67 172.20 220.07
  A 0.64 0.62 -73.4 0 1 171.81 219.33
  L 174.86 206.19
  A 1.17 1.11 -88.8 0 1 175.71 205.33
  Q 180.26 204.34 179.25 207.00
  Q 178.30 209.50 178.75 211.50
  Z"
/>
<path fill="#ed1c24" d="
  M 268.59 181.54
  Q 275.01 175.68 283.41 172.61
  C 299.65 166.67 313.67 175.52 308.12 194.19
  A 1.26 1.26 -88.0 0 1 307.18 195.07
  C 297.88 197.11 284.98 197.70 278.25 197.00
  C 274.79 196.64 275.39 198.46 275.55 201.05
  C 276.47 216.55 290.70 217.09 301.79 211.97
  A 1.19 0.93 -40.5 0 1 302.72 211.93
  C 305.39 213.19 299.83 218.54 298.23 219.30
  C 288.50 223.94 272.03 225.66 264.65 215.96
  C 258.20 207.49 261.05 193.74 265.99 184.84
  Q 267.02 182.98 268.59 181.54
  Z
  M 280.99 180.73
  Q 277.62 185.04 276.59 191.48
  A 0.44 0.44 4.4 0 0 277.03 191.99
  L 293.93 191.94
  A 0.68 0.67 8.0 0 0 294.58 191.46
  Q 295.72 187.53 295.31 183.44
  C 294.48 175.27 285.08 175.51 280.99 180.73
  Z"
/>
<path fill="#ed1c24" d="
  M 341.12 179.49
  Q 340.92 180.46 341.74 179.86
  C 348.06 175.33 353.00 170.16 361.40 171.05
  C 367.21 171.66 371.15 174.46 371.75 180.48
  Q 371.82 181.21 372.42 180.78
  C 381.44 174.23 388.18 166.74 399.69 173.31
  C 404.28 175.93 404.26 183.66 403.37 188.02
  C 401.64 196.44 398.47 207.21 398.75 215.70
  A 1.70 1.70 -84.8 0 0 400.09 217.31
  C 401.50 217.61 405.99 217.31 405.05 219.38
  Q 404.84 219.86 404.86 220.30
  C 404.99 222.55 403.36 222.00 401.89 222.00
  Q 392.49 222.04 383.52 221.94
  A 1.09 1.09 -81.0 0 1 382.49 220.52
  Q 387.54 204.74 389.01 188.25
  C 389.86 178.70 377.87 179.97 373.71 184.42
  Q 371.76 186.52 370.74 191.29
  Q 368.23 203.05 366.81 215.00
  A 1.50 1.22 -62.2 0 0 367.00 215.94
  C 369.37 219.67 375.26 214.94 373.05 221.28
  A 1.06 1.03 -80.0 0 1 372.07 221.99
  L 345.19 221.82
  A 0.50 0.46 2.6 0 1 344.69 221.31
  L 344.89 219.33
  A 2.19 1.70 1.6 0 1 347.00 217.78
  Q 351.44 217.70 352.17 214.98
  Q 355.22 203.59 357.00 188.50
  C 358.22 178.15 345.36 180.13 341.24 185.38
  Q 339.68 187.37 339.06 191.20
  C 337.79 199.00 335.18 208.30 335.25 216.08
  A 1.20 1.17 -86.1 0 0 336.24 217.25
  L 340.57 217.88
  A 0.67 0.61 2.1 0 1 341.13 218.43
  Q 341.29 220.02 340.65 221.49
  A 0.79 0.73 10.7 0 1 339.94 221.94
  L 313.28 222.00
  A 0.72 0.70 86.8 0 1 312.58 221.36
  C 311.87 214.09 319.44 221.26 320.98 214.25
  Q 324.26 199.29 326.38 184.13
  C 326.85 180.72 327.68 178.75 322.56 179.33
  Q 320.09 179.61 320.00 177.12
  Q 319.99 176.92 320.56 175.47
  A 0.84 0.83 -81.7 0 1 321.25 174.95
  Q 331.57 173.96 340.99 171.23
  A 1.27 1.21 88.5 0 1 342.50 172.73
  L 341.12 179.49
  Z"
/>
<path fill="#ed1c24" d="
  M 143.77 207.24
  Q 143.91 207.95 144.30 207.33
  Q 151.97 195.01 158.91 182.29
  C 164.51 172.03 153.31 179.28 154.83 174.22
  Q 154.93 173.89 154.94 173.25
  Q 154.95 172.79 155.21 172.42
  A 1.14 0.85 13.3 0 1 156.06 172.05
  L 175.06 172.17
  A 0.56 0.56 87.8 0 1 175.62 172.69
  Q 175.73 174.22 175.01 175.57
  A 0.92 0.82 12.2 0 1 174.25 176.00
  Q 170.29 176.09 168.31 179.31
  Q 137.67 229.14 131.69 238.69
  C 126.00 247.76 116.90 253.81 106.12 249.56
  A 0.89 0.85 -68.8 0 1 105.65 248.43
  L 109.09 239.49
  A 0.75 0.72 -63.2 0 1 110.17 239.11
  Q 114.78 242.14 118.74 241.70
  C 124.63 241.04 130.30 231.34 132.78 226.45
  A 1.47 1.47 -37.8 0 0 132.90 225.51
  Q 128.36 204.02 123.68 182.55
  C 122.70 178.08 122.61 176.27 117.64 176.25
  A 1.11 1.10 -0.5 0 1 116.54 175.18
  Q 116.49 174.07 117.12 172.52
  A 0.76 0.72 10.1 0 1 117.82 172.06
  L 145.47 172.00
  A 0.54 0.50 4.1 0 1 146.01 172.58
  L 145.57 175.46
  A 0.73 0.61 -0.1 0 1 144.94 175.99
  L 140.65 176.49
  Q 137.67 176.84 138.25 179.73
  L 143.77 207.24
  Z"
/>
</svg>
