<?xml version="1.0" encoding="UTF-8" standalone="no"?>
<!DOCTYPE svg PUBLIC "-//W3C//DTD SVG 1.1//EN" "http://www.w3.org/Graphics/SVG/1.1/DTD/svg11.dtd">
<svg xmlns="http://www.w3.org/2000/svg" version="1.1" viewBox="0 0 600 300">
<path fill="#000000" d="
  M 51.31 56.44
  C 63.43 64.93 63.11 97.59 48.93 104.11
  C 43.06 106.80 32.33 106.21 25.43 106.06
  A 0.67 0.61 89.5 0 1 24.83 105.41
  L 24.70 99.71
  A 1.23 1.15 -89.4 0 1 25.90 98.45
  C 33.86 98.88 42.71 99.56 44.27 89.41
  Q 45.26 82.97 44.75 75.25
  C 44.22 67.23 42.39 62.54 33.91 61.26
  Q 26.10 60.08 17.28 60.57
  A 1.09 1.08 88.6 0 0 16.25 61.66
  L 16.19 139.94
  A 0.51 0.50 89.4 0 1 15.70 140.45
  L 3.10 140.49
  A 0.86 0.85 90.0 0 1 2.25 139.63
  L 2.25 53.16
  A 0.91 0.91 2.4 0 1 3.16 52.25
  Q 17.00 52.25 30.50 52.23
  C 36.80 52.22 46.19 52.85 51.31 56.44
  Z"
/>
<rect fill="#000000" x="-6.84" y="-44.13" transform="translate(77.83,96.39) rotate(0.1)" width="13.68" height="88.26" rx="0.41"/>
<rect fill="#000000" x="-6.87" y="-6.12" transform="translate(449.63,58.37) rotate(0.1)" width="13.74" height="12.24" rx="0.53"/>
<path fill="#000000" d="
  M 234.43 131.97
  C 241.64 132.26 249.36 133.08 256.28 132.21
  Q 263.10 131.36 265.05 124.94
  C 267.20 117.89 268.63 103.56 258.69 101.81
  C 254.19 101.02 246.65 101.39 241.88 99.70
  Q 231.96 96.19 230.25 84.50
  C 229.11 76.70 229.63 64.55 235.16 58.40
  C 239.57 53.52 247.36 52.62 253.75 52.61
  Q 263.91 52.59 274.06 53.16
  A 0.57 0.54 0.7 0 1 274.60 53.68
  L 274.82 60.57
  A 0.50 0.47 0.0 0 1 274.31 61.05
  C 268.50 60.92 262.62 60.93 256.82 60.62
  C 243.77 59.92 241.60 73.89 244.81 83.19
  C 249.02 95.35 276.49 79.74 279.75 106.25
  C 281.43 119.87 280.32 139.20 262.25 140.25
  Q 250.69 140.92 234.18 140.09
  A 0.67 0.66 -4.6 0 1 233.57 139.58
  Q 232.97 136.86 233.40 132.86
  A 1.00 0.99 -85.7 0 1 234.43 131.97
  Z"
/>
<path fill="#000000" d="
  M 310.07 81.07
  A 1.30 1.25 0.5 0 0 308.75 82.32
  C 308.75 96.38 308.19 110.40 309.04 124.12
  C 309.66 134.03 312.34 132.47 320.68 132.32
  A 0.56 0.48 -0.6 0 1 321.25 132.80
  L 321.25 139.70
  A 0.58 0.52 -1.7 0 1 320.70 140.22
  C 310.77 140.88 295.13 143.81 295.17 128.00
  Q 295.25 95.12 295.25 61.60
  A 0.85 0.85 0.2 0 1 296.10 60.75
  L 308.09 60.75
  A 0.66 0.66 0.2 0 1 308.75 61.41
  L 308.75 72.34
  A 0.66 0.66 -0.1 0 0 309.41 73.00
  L 323.84 73.00
  A 0.66 0.66 0.2 0 1 324.50 73.66
  L 324.50 80.21
  A 1.01 0.98 -89.7 0 1 323.51 81.22
  L 310.07 81.07
  Z"
/>
<path fill="#000000" d="
  M 415.82 72.95
  L 430.08 73.00
  A 0.67 0.66 -0.0 0 1 430.75 73.66
  L 430.75 80.58
  A 0.67 0.66 -90.0 0 1 430.09 81.25
  L 415.82 81.18
  A 0.81 0.80 0.4 0 0 415.01 81.97
  Q 414.81 103.13 415.25 123.38
  C 415.47 133.62 418.12 132.55 426.93 132.33
  A 0.50 0.48 -1.1 0 1 427.45 132.81
  L 427.50 139.75
  A 0.54 0.54 -1.1 0 1 426.98 140.29
  Q 421.29 140.53 415.86 140.54
  C 406.52 140.54 401.83 138.39 401.71 128.59
  Q 401.32 95.05 401.50 61.50
  A 0.54 0.51 89.5 0 1 402.00 60.96
  L 414.11 60.80
  A 1.07 0.95 89.1 0 1 415.07 61.85
  L 415.26 72.44
  A 0.57 0.52 0.1 0 0 415.82 72.95
  Z"
/>
<path fill="#000000" d="
  M 478.19 79.44
  C 485.89 70.30 506.33 71.61 516.19 75.06
  C 524.10 77.83 527.74 85.72 528.92 94.06
  C 530.69 106.57 531.88 131.68 517.21 137.99
  C 504.29 143.55 479.05 143.68 473.93 126.70
  C 469.80 113.02 468.73 90.66 478.19 79.44
  Z
  M 490.36 86.08
  C 485.40 94.75 485.74 111.00 488.00 121.41
  C 489.08 126.39 490.71 129.60 495.45 131.29
  C 502.83 133.92 511.53 131.45 513.41 122.98
  Q 516.95 106.98 513.60 90.93
  C 511.64 81.51 501.65 79.64 494.05 82.82
  Q 491.65 83.82 490.36 86.08
  Z"
/>
<path fill="#000000" d="
  M 191.19 121.57
  Q 191.73 123.15 192.31 121.57
  L 209.92 73.48
  A 0.75 0.74 10.1 0 1 210.62 73.00
  L 221.99 73.00
  A 0.44 0.43 11.1 0 1 222.40 73.60
  L 183.93 166.71
  A 0.47 0.47 19.6 0 0 184.23 167.34
  C 206.42 174.20 215.16 189.94 216.00 212.26
  Q 216.64 229.12 216.49 246.73
  A 0.88 0.85 0.0 0 1 215.61 247.58
  L 199.66 247.66
  A 1.42 1.37 0.2 0 1 198.23 246.27
  Q 198.51 228.97 198.04 212.50
  Q 197.71 201.21 195.80 196.24
  C 188.20 176.43 156.03 173.35 142.13 187.70
  C 135.48 194.55 134.14 203.96 134.18 213.25
  Q 134.25 230.13 134.25 247.00
  A 0.50 0.50 0.0 0 1 133.75 247.50
  L 116.82 247.50
  A 0.83 0.83 -89.7 0 1 115.99 246.66
  Q 116.17 226.37 115.63 207.25
  C 115.17 190.75 104.91 181.17 89.09 179.24
  C 78.66 177.96 66.31 180.41 59.10 188.51
  C 52.93 195.44 52.00 204.20 52.00 213.75
  Q 52.00 230.00 52.00 246.83
  A 0.67 0.67 -0.0 0 1 51.33 247.50
  L 34.14 247.50
  A 0.64 0.64 -0.2 0 1 33.50 246.86
  C 33.50 231.57 32.39 216.23 35.19 201.54
  C 41.17 170.17 68.78 162.16 96.78 166.27
  Q 113.88 168.77 124.96 182.70
  A 0.30 0.30 44.5 0 0 125.43 182.70
  C 137.38 167.03 153.72 164.82 172.28 165.55
  A 1.13 1.11 12.4 0 0 173.36 164.87
  L 183.82 139.46
  A 1.30 1.23 46.6 0 0 183.82 138.54
  L 158.90 73.48
  A 0.35 0.35 -10.7 0 1 159.23 73.00
  L 173.78 73.00
  A 1.10 1.10 80.8 0 1 174.82 73.75
  L 191.19 121.57
  Z"
/>
<path fill="#000000" d="
  M 113.11 126.36
  C 116.29 133.97 129.53 132.27 136.46 131.55
  A 1.10 1.10 -3.2 0 0 137.44 130.46
  Q 137.55 113.34 137.57 95.50
  Q 137.58 81.46 123.51 81.92
  Q 115.76 82.17 107.25 82.26
  A 0.60 0.59 -4.5 0 1 106.66 81.76
  Q 105.99 77.54 106.37 74.19
  A 0.61 0.60 1.7 0 1 106.94 73.66
  Q 117.06 73.21 127.19 73.19
  C 134.00 73.17 139.94 73.56 145.11 77.94
  Q 150.85 82.80 151.00 90.75
  Q 151.43 114.12 151.24 138.51
  A 1.50 1.50 -89.8 0 1 149.75 140.00
  Q 137.12 140.11 124.00 140.25
  C 109.45 140.41 98.29 138.47 97.59 121.41
  C 96.75 101.20 110.85 97.87 127.83 98.79
  A 0.93 0.88 2.0 0 1 128.71 99.68
  L 128.61 105.81
  A 0.58 0.53 -1.7 0 1 128.06 106.34
  C 122.16 106.67 116.08 105.91 113.06 112.56
  C 111.32 116.42 111.56 122.67 113.11 126.36
  Z"
/>
<path fill="#000000" d="
  M 371.19 130.94
  Q 371.30 113.10 371.39 95.25
  Q 371.45 85.22 363.93 82.64
  C 358.54 80.79 348.01 82.14 340.92 82.26
  A 0.66 0.65 89.2 0 1 340.25 81.60
  L 340.25 74.60
  A 1.03 1.02 89.1 0 1 341.24 73.57
  Q 350.51 73.22 358.98 73.20
  C 376.48 73.15 384.57 77.00 384.84 95.21
  Q 385.16 116.47 384.99 138.51
  A 1.51 1.51 -0.4 0 1 383.51 140.01
  C 370.84 140.26 357.09 141.41 344.44 139.06
  C 335.24 137.35 332.27 130.89 331.42 122.13
  C 330.53 112.99 334.05 102.93 344.06 100.49
  Q 353.05 98.30 362.05 98.92
  A 0.74 0.63 -89.3 0 1 362.64 99.63
  L 362.79 105.22
  A 1.25 1.06 89.8 0 1 361.70 106.51
  C 354.70 106.30 347.74 106.80 346.03 115.15
  C 342.25 133.65 358.49 133.26 370.69 131.51
  A 0.58 0.57 -4.0 0 0 371.19 130.94
  Z"
/>
<rect fill="#000000" x="442.76" y="73.01" width="13.74" height="67.52" rx="0.26"/>
<path fill="#000000" d="
  M 558.56 83.07
  L 558.50 139.58
  A 0.98 0.95 -0.3 0 1 557.53 140.53
  L 546.40 140.67
  A 1.38 1.32 -0.4 0 1 545.00 139.35
  L 545.00 74.34
  A 0.84 0.83 -90.0 0 1 545.83 73.50
  Q 561.38 73.44 577.00 73.00
  C 585.48 72.76 594.08 76.05 597.32 84.14
  Q 598.68 87.54 598.71 95.65
  Q 598.79 117.70 598.75 139.76
  A 0.53 0.49 -90.0 0 1 598.26 140.29
  L 585.94 140.35
  A 0.55 0.51 89.4 0 1 585.43 139.81
  Q 585.04 113.12 585.25 96.50
  C 585.48 78.51 570.85 81.30 559.05 82.51
  A 0.56 0.55 87.2 0 0 558.56 83.07
  Z"
/>
<path fill="#000000" d="
  M 497.76 195.25
  C 496.78 175.55 503.67 154.88 524.01 147.73
  C 534.94 143.89 551.61 143.18 564.44 143.81
  A 1.11 1.11 1.4 0 1 565.50 144.92
  L 565.50 157.49
  A 0.76 0.76 0.0 0 1 564.74 158.25
  C 550.53 158.25 533.26 156.61 522.76 168.77
  C 512.57 180.55 517.80 198.82 514.68 213.68
  C 507.58 247.54 476.74 248.66 448.94 247.34
  A 0.56 0.53 1.2 0 1 448.41 246.82
  L 448.27 234.39
  A 0.86 0.83 -1.0 0 1 449.11 233.55
  C 465.20 233.26 487.92 234.90 495.00 216.25
  Q 498.36 207.41 497.76 195.25
  Z"
/>
<rect fill="#000000" x="240.45" y="165.51" width="18.10" height="13.48" rx="0.50"/>
<path fill="#000000" d="
  M 288.84 187.14
  C 295.45 176.15 306.03 168.51 319.00 166.47
  C 331.97 164.43 347.40 164.81 358.90 170.36
  C 373.24 177.28 381.67 191.66 382.42 207.75
  Q 383.34 227.33 382.95 246.93
  A 0.53 0.50 -89.4 0 1 382.45 247.45
  L 365.43 247.33
  A 0.53 0.51 88.8 0 1 364.92 246.82
  Q 364.54 230.31 364.75 220.00
  C 364.99 208.42 365.25 196.21 356.86 187.70
  C 348.57 179.28 334.56 177.36 323.15 180.07
  C 305.71 184.21 301.18 195.99 300.97 212.50
  Q 300.75 229.38 300.75 246.82
  A 0.69 0.68 -0.0 0 1 300.06 247.50
  L 283.39 247.58
  A 0.88 0.87 -0.3 0 1 282.51 246.72
  Q 282.35 229.00 282.75 212.50
  C 282.95 204.30 284.46 194.40 288.84 187.14
  Z"
/>
<rect fill="#000000" x="406.99" y="165.50" width="18.26" height="13.76" rx="0.52"/>
<rect fill="#000000" x="240.49" y="193.50" width="18.02" height="54.02" rx="0.27"/>
<rect fill="#000000" x="406.99" y="193.49" width="18.26" height="54.50" rx="0.77"/>
</svg>
