<?xml version="1.0" encoding="UTF-8" standalone="no"?>
<!DOCTYPE svg PUBLIC "-//W3C//DTD SVG 1.1//EN" "http://www.w3.org/Graphics/SVG/1.1/DTD/svg11.dtd">
<svg xmlns="http://www.w3.org/2000/svg" version="1.1" viewBox="0 0 600 300">
<path fill="#000000" d="
  M 166.54 96.26
  C 209.31 108.67 205.60 177.56 160.73 183.85
  Q 157.91 184.25 140.75 184.25
  Q 71.27 184.25 2.08 184.25
  A 0.58 0.58 89.5 0 1 1.50 183.67
  L 1.50 146.12
  A 0.87 0.87 -87.8 0 1 2.37 145.25
  Q 71.25 145.25 139.25 145.32
  C 147.97 145.32 148.72 133.83 138.17 133.81
  Q 94.96 133.72 51.75 133.74
  Q 36.91 133.75 31.83 132.62
  C -9.88 123.33 -10.50 57.02 30.13 45.68
  Q 35.19 44.26 45.01 44.21
  Q 119.19 43.83 194.47 44.00
  A 0.78 0.78 0.0 0 1 195.25 44.78
  L 195.25 81.93
  A 1.32 1.32 0.0 0 1 193.93 83.25
  Q 125.42 83.20 57.56 83.31
  C 47.59 83.33 48.73 94.82 58.75 94.75
  Q 75.06 94.64 151.20 94.80
  Q 161.56 94.82 166.54 96.26
  Z"
/>
<path fill="#000000" d="
  M 349.93 126.87
  L 349.75 44.87
  A 0.81 0.81 -1.2 0 1 350.56 44.06
  L 400.80 44.00
  A 0.96 0.95 90.0 0 1 401.75 44.96
  L 401.81 183.40
  A 0.85 0.85 -0.0 0 1 400.96 184.25
  L 350.65 184.25
  A 1.76 1.73 -24.0 0 1 349.50 183.82
  L 256.75 101.18
  Q 255.75 100.28 255.75 101.62
  L 255.81 183.65
  A 0.60 0.60 0.0 0 1 255.21 184.25
  L 204.32 184.19
  A 0.51 0.50 0.0 0 1 203.81 183.69
  L 203.81 44.76
  A 0.76 0.76 88.5 0 1 204.57 44.00
  L 254.15 44.00
  A 3.89 3.86 -24.0 0 1 256.73 44.98
  L 349.12 127.24
  Q 349.94 127.97 349.93 126.87
  Z"
/>
<path fill="#000000" d="
  M 515.80 112.68
  Q 519.82 115.64 523.59 118.89
  Q 561.48 151.52 599.40 183.91
  Q 600.02 184.44 599.20 184.44
  L 538.32 184.19
  A 1.38 1.30 -23.2 0 1 537.44 183.87
  L 460.22 118.26
  Q 459.75 117.86 459.75 118.48
  L 459.69 183.60
  A 0.65 0.64 -0.5 0 1 459.05 184.24
  L 408.62 184.50
  A 1.05 1.05 -0.3 0 1 407.56 183.45
  L 407.50 45.26
  A 1.26 1.26 88.2 0 1 408.76 44.00
  L 458.77 44.06
  A 0.97 0.96 -0.0 0 1 459.74 45.02
  L 459.57 105.22
  Q 459.57 106.32 460.42 105.63
  Q 496.85 76.09 532.94 46.94
  C 535.02 45.25 535.81 44.00 538.67 44.00
  Q 567.84 44.00 597.02 44.00
  Q 598.52 44.00 597.36 44.96
  L 515.78 111.88
  A 0.51 0.51 43.7 0 0 515.80 112.68
  Z"
/>
<path fill="#000000" d="
  M 594.89 223.88
  A 32.10 32.10 0.0 0 1 562.79 255.98
  L 38.21 255.98
  A 32.10 32.10 0.0 0 1 6.11 223.88
  L 6.11 223.12
  A 32.10 32.10 0.0 0 1 38.21 191.02
  L 562.79 191.02
  A 32.10 32.10 0.0 0 1 594.89 223.12
  L 594.89 223.88
  Z
  M 62.80 239.45
  A 2.48 2.47 -75.9 0 1 61.50 237.27
  Q 61.50 225.48 61.50 214.75
  C 61.50 208.59 62.61 206.98 69.07 207.03
  C 74.46 207.08 77.75 208.01 76.89 214.85
  A 0.98 0.97 -86.3 0 0 77.85 215.95
  L 90.59 216.00
  A 0.64 0.63 -86.4 0 0 91.22 215.44
  C 92.99 201.15 78.28 199.89 68.29 199.99
  C 61.48 200.05 46.25 201.28 46.25 211.25
  Q 46.25 219.82 46.25 228.40
  Q 46.25 237.18 46.85 239.04
  C 50.78 251.16 82.52 250.39 88.91 241.89
  Q 91.97 237.81 91.02 230.81
  A 1.19 1.14 85.7 0 0 89.87 229.78
  L 77.69 229.91
  A 0.56 0.53 -88.3 0 0 77.16 230.44
  L 76.77 237.45
  A 2.52 2.46 -11.4 0 1 75.33 239.56
  Q 68.68 242.65 62.80 239.45
  Z
  M 135.80 239.44
  Q 135.13 220.01 135.68 200.81
  A 0.79 0.79 -89.3 0 0 134.89 200.00
  L 121.36 200.00
  A 0.86 0.86 -89.6 0 0 120.50 200.86
  L 120.50 246.41
  A 0.59 0.59 0.0 0 0 121.09 247.00
  L 159.51 247.00
  A 0.99 0.99 0.0 0 0 160.50 246.01
  L 160.50 241.02
  A 1.04 1.03 0.3 0 0 159.47 239.99
  L 136.32 239.94
  A 0.52 0.51 -0.6 0 1 135.80 239.44
  Z
  M 216.56 238.79
  L 219.00 246.34
  A 0.75 0.71 -8.2 0 0 219.69 246.83
  L 233.54 247.06
  A 0.59 0.58 81.7 0 0 234.10 246.29
  L 219.11 200.57
  A 0.83 0.82 80.6 0 0 218.33 200.00
  L 197.64 200.00
  A 1.12 1.11 9.0 0 0 196.58 200.76
  L 181.72 246.10
  A 0.65 0.64 -80.4 0 0 182.32 246.95
  L 194.58 246.99
  A 1.26 1.16 -81.2 0 0 195.73 246.07
  L 197.79 238.83
  A 1.09 1.09 -81.6 0 1 198.85 238.04
  L 215.93 238.28
  A 0.73 0.64 80.1 0 1 216.56 238.79
  Z
  M 258.64 205.91
  C 247.87 220.43 279.20 227.08 283.94 232.56
  C 291.20 240.97 277.52 242.02 273.25 240.25
  Q 269.83 238.84 270.59 234.46
  A 1.21 1.16 -85.3 0 0 269.44 233.04
  L 256.68 233.16
  A 0.59 0.56 -87.7 0 0 256.13 233.69
  Q 255.26 242.93 263.50 245.75
  C 272.17 248.72 290.40 249.89 298.06 243.16
  C 302.83 238.97 301.67 232.79 297.05 228.83
  C 291.02 223.66 282.85 221.25 275.95 217.29
  C 271.82 214.93 269.05 209.26 275.54 207.48
  C 279.96 206.26 287.22 206.70 286.72 213.15
  A 0.79 0.79 2.3 0 0 287.51 214.00
  L 299.89 214.00
  A 1.24 1.24 86.2 0 0 301.12 212.59
  Q 299.89 203.74 292.04 201.61
  C 283.10 199.17 269.26 198.89 261.31 203.52
  Q 259.73 204.44 258.64 205.91
  Z
  M 327.64 205.91
  C 322.26 213.17 328.13 219.67 334.55 222.72
  C 338.62 224.66 353.07 230.50 354.50 234.50
  C 357.52 242.94 337.87 243.97 339.59 234.48
  A 1.22 1.19 -84.6 0 0 338.43 233.04
  L 325.81 233.05
  A 0.59 0.57 -86.0 0 0 325.24 233.56
  C 322.68 252.50 361.58 251.02 368.51 241.23
  C 377.06 229.16 351.71 221.17 344.95 217.29
  C 340.82 214.93 338.02 209.27 344.54 207.47
  C 348.96 206.26 356.22 206.70 355.72 213.15
  A 0.79 0.79 2.3 0 0 356.51 214.00
  L 369.17 214.00
  A 0.83 0.83 -89.9 0 0 370.00 213.17
  C 369.99 196.19 339.16 198.36 330.31 203.52
  Q 328.73 204.44 327.64 205.91
  Z
  M 411.51 200.42
  A 0.41 0.41 0.0 0 0 411.10 200.01
  L 396.90 200.01
  A 0.41 0.41 0.0 0 0 396.49 200.42
  L 396.49 246.58
  A 0.41 0.41 0.0 0 0 396.90 246.99
  L 411.10 246.99
  A 0.41 0.41 0.0 0 0 411.51 246.58
  L 411.51 200.42
  Z
  M 455.73 239.42
  A 2.33 2.33 -77.0 0 1 454.52 237.48
  Q 453.96 225.43 454.42 213.78
  C 454.56 210.38 454.24 208.69 457.69 207.69
  Q 463.68 205.95 468.62 208.68
  A 1.40 1.39 4.4 0 1 469.25 209.41
  Q 470.32 212.21 470.05 215.25
  A 0.50 0.45 -87.6 0 0 470.49 215.79
  L 483.56 215.85
  A 0.61 0.57 -86.0 0 0 484.13 215.32
  Q 485.52 204.13 474.50 201.50
  C 466.87 199.68 439.25 197.70 439.25 210.75
  Q 439.25 221.52 439.25 232.28
  Q 439.25 237.36 439.43 238.21
  C 442.21 251.21 475.05 250.34 481.64 242.21
  Q 484.98 238.09 484.03 230.81
  A 1.18 1.14 86.1 0 0 482.88 229.78
  L 470.69 229.91
  A 0.56 0.53 -88.3 0 0 470.16 230.44
  L 469.77 237.45
  A 2.52 2.46 -11.4 0 1 468.33 239.56
  Q 461.68 242.65 455.73 239.42
  Z
  M 513.64 205.91
  C 502.86 220.45 534.17 227.03 538.94 232.56
  C 546.18 240.96 532.54 242.03 528.25 240.25
  Q 524.83 238.84 525.60 234.45
  A 1.21 1.18 -85.1 0 0 524.44 233.04
  L 511.81 233.05
  A 0.58 0.57 -86.0 0 0 511.24 233.55
  Q 510.02 242.50 517.81 245.44
  Q 532.86 251.11 549.36 245.22
  C 559.14 241.72 557.29 231.20 549.69 226.81
  Q 544.32 223.71 533.30 218.71
  C 530.60 217.49 526.87 214.81 526.64 211.60
  C 526.24 205.83 542.41 204.22 541.72 213.15
  A 0.79 0.79 2.3 0 0 542.51 214.00
  L 555.17 214.00
  A 0.83 0.83 0.2 0 0 556.00 213.17
  C 555.99 196.19 525.16 198.36 516.31 203.52
  Q 514.73 204.44 513.64 205.91
  Z"
/>
<path fill="#000000" d="
  M 200.09 231.52
  L 206.79 209.52
  A 0.37 0.37 40.8 0 1 207.49 209.52
  L 214.19 231.52
  A 0.37 0.37 80.8 0 1 213.84 232.00
  L 200.44 232.00
  A 0.37 0.37 8.7 0 1 200.09 231.52
  Z"
/>
</svg>
