<?xml version="1.0" encoding="UTF-8" standalone="no"?>
<!DOCTYPE svg PUBLIC "-//W3C//DTD SVG 1.1//EN" "http://www.w3.org/Graphics/SVG/1.1/DTD/svg11.dtd">
<svg xmlns="http://www.w3.org/2000/svg" version="1.1" viewBox="0 0 600 300">
<path fill="#000000" d="
  M 384.42 75.92
  L 384.50 65.92
  A 0.92 0.91 -90.0 0 1 385.41 65.00
  L 479.81 65.00
  A 0.69 0.69 0.0 0 1 480.50 65.69
  L 480.50 75.81
  A 0.94 0.93 90.0 0 1 479.57 76.75
  L 442.56 76.56
  A 0.25 0.25 0.0 0 0 442.31 76.81
  L 442.50 159.27
  A 0.73 0.73 -0.1 0 1 441.77 160.00
  L 423.21 160.00
  A 0.77 0.77 89.9 0 1 422.44 159.23
  L 422.43 77.42
  A 0.67 0.66 -90.0 0 0 421.77 76.75
  L 385.23 76.75
  A 0.82 0.81 -89.7 0 1 384.42 75.92
  Z"
/>
<path fill="#000000" d="
  M 0.00 160.24
  L 0.00 129.69
  C 0.74 118.78 8.75 106.05 20.75 105.50
  Q 32.09 104.98 68.00 105.45
  C 75.27 105.55 83.38 103.93 84.92 95.53
  C 86.56 86.59 82.61 76.75 72.00 77.25
  Q 60.53 77.79 -0.01 76.97
  L 0.00 65.58
  Q 61.18 65.36 79.75 65.50
  C 98.64 65.64 107.19 80.48 104.33 97.84
  C 101.90 112.68 90.61 118.14 76.56 118.20
  Q 55.36 118.29 34.17 118.26
  C 24.78 118.24 20.39 121.19 20.17 130.66
  Q 19.83 144.90 20.01 159.75
  A 1.00 1.00 -1.5 0 1 19.05 160.76
  Q 9.60 161.13 0.00 160.24
  Z"
/>
<path fill="#000000" d="
  M 209.47 65.43
  A 0.78 0.78 0.9 0 1 210.25 66.21
  L 210.25 76.37
  A 0.88 0.88 0.0 0 1 209.37 77.25
  Q 194.95 77.25 180.96 77.25
  C 167.68 77.25 161.66 77.06 161.43 91.78
  Q 161.16 109.56 161.20 127.34
  Q 161.24 141.26 159.86 145.52
  C 156.13 157.07 145.22 160.76 133.25 160.66
  Q 112.62 160.50 91.52 160.50
  A 0.52 0.52 -90.0 0 1 91.00 159.98
  L 91.00 149.41
  A 0.66 0.66 0.0 0 1 91.66 148.75
  Q 108.35 148.75 124.58 148.75
  C 134.85 148.75 140.75 145.43 140.75 134.00
  Q 140.75 117.31 140.75 100.61
  C 140.75 85.09 141.09 71.70 156.69 66.94
  Q 161.42 65.51 175.44 65.51
  Q 192.18 65.52 209.47 65.43
  Z"
/>
<path fill="#000000" d="
  M 241.13 65.43
  A 0.75 0.71 75.4 0 1 241.77 65.83
  Q 259.89 99.29 277.89 132.28
  C 278.88 134.09 279.58 135.51 281.39 136.59
  Q 283.43 137.80 285.24 136.26
  C 287.23 134.56 287.95 132.81 289.14 130.60
  Q 306.44 98.52 323.88 66.08
  A 1.54 1.51 -75.4 0 1 325.24 65.26
  L 337.41 65.30
  A 0.58 0.58 -75.6 0 1 337.91 66.15
  Q 315.23 108.89 292.50 150.75
  C 286.48 161.84 272.93 165.56 266.00 152.75
  Q 242.72 109.72 219.51 66.23
  A 0.63 0.62 75.6 0 1 220.05 65.30
  L 241.13 65.43
  Z"
/>
<path fill="#000000" d="
  M 505.44 78.44
  C 509.20 71.48 514.31 63.87 523.25 65.25
  C 529.06 66.15 532.17 70.43 535.12 75.89
  Q 557.91 118.02 580.48 160.22
  A 0.53 0.53 75.7 0 1 580.02 161.00
  L 559.68 161.00
  A 2.12 2.10 -14.3 0 1 557.83 159.91
  L 547.85 142.01
  A 1.96 1.95 75.4 0 0 546.14 141.00
  L 486.85 141.00
  A 1.77 1.72 -75.5 0 0 485.32 141.93
  L 475.66 160.08
  A 1.74 1.56 12.3 0 1 474.19 160.92
  L 462.60 161.04
  A 0.83 0.81 13.2 0 1 461.84 159.85
  Q 483.29 119.37 505.44 78.44
  Z
  M 511.45 93.96
  Q 502.28 110.77 492.92 128.30
  A 0.31 0.31 -75.5 0 0 493.19 128.75
  L 540.07 128.82
  A 0.51 0.51 76.0 0 0 540.52 128.07
  Q 531.14 110.75 521.42 93.10
  C 517.91 86.73 514.38 88.59 511.45 93.96
  Z"
/>
<rect fill="#000000" x="-10.17" y="-47.57" transform="translate(361.33,113.08) rotate(-0.1)" width="20.34" height="95.14" rx="0.70"/>
<path fill="#000000" d="
  M 589.39 155.31
  L 589.49 158.69
  A 1.31 1.08 -26.9 0 1 589.11 159.56
  Q 587.80 160.86 587.73 157.55
  Q 587.71 156.51 587.87 155.48
  Q 588.08 154.15 586.27 154.17
  A 0.50 0.35 4.0 0 1 585.75 153.75
  Q 585.78 153.61 585.87 153.49
  A 0.71 0.36 6.4 0 1 586.34 153.31
  L 590.44 153.10
  A 0.46 0.40 2.4 0 1 590.92 153.56
  Q 590.77 154.46 589.80 154.72
  A 0.61 0.57 82.0 0 0 589.39 155.31
  Z"
/>
<path fill="#000000" d="
  M 600.00 154.06
  L 600.00 159.56
  Q 599.64 160.12 599.21 159.97
  A 0.86 0.56 -83.0 0 1 598.83 159.19
  Q 599.00 153.43 596.98 159.09
  A 0.76 0.65 -77.5 0 1 596.31 159.60
  C 595.01 159.54 595.29 158.29 594.78 157.32
  C 592.33 152.61 594.84 160.37 593.03 159.88
  A 0.75 0.63 -84.6 0 1 592.55 159.19
  C 592.52 158.57 591.76 150.98 594.39 153.45
  C 595.20 154.22 595.29 155.56 595.80 156.47
  Q 596.50 157.72 596.96 156.36
  C 597.25 155.50 598.71 150.83 600.00 154.06
  Z"
/>
<path fill="#000000" d="
  M 231.28 213.13
  C 235.89 214.94 246.22 215.62 243.62 223.70
  C 241.11 231.53 225.82 230.54 224.85 221.31
  A 0.61 0.61 79.3 0 1 225.29 220.66
  Q 226.79 220.26 228.33 220.57
  A 0.94 0.82 84.8 0 1 228.96 221.17
  C 231.32 228.37 242.26 225.87 239.19 220.24
  A 1.44 1.28 -1.0 0 0 238.47 219.62
  Q 235.83 218.55 230.50 217.25
  C 224.54 215.80 224.16 208.15 229.79 205.58
  C 234.50 203.43 242.92 204.64 243.18 211.18
  A 0.61 0.50 86.9 0 1 242.72 211.81
  L 240.06 212.00
  A 0.84 0.61 73.2 0 1 239.38 211.48
  C 236.74 205.36 227.63 208.05 230.53 212.53
  A 1.68 1.34 -0.0 0 0 231.28 213.13
  Z"
/>
<path fill="#000000" d="
  M 164.55 220.07
  L 164.45 227.68
  A 0.71 0.66 83.5 0 1 163.96 228.34
  Q 162.46 228.76 161.01 228.15
  A 0.77 0.73 -79.1 0 1 160.56 227.45
  L 160.50 205.89
  A 0.88 0.87 -1.0 0 1 161.35 205.02
  C 165.22 204.92 172.76 204.29 175.89 206.23
  C 180.34 208.99 179.57 216.72 174.95 218.71
  C 172.29 219.87 168.29 219.50 165.05 219.56
  A 0.52 0.50 -89.4 0 0 164.55 220.07
  Z
  M 173.69 209.75
  C 171.80 207.82 167.74 208.40 165.20 208.43
  A 0.57 0.51 -0.1 0 0 164.64 208.93
  L 164.54 215.09
  A 0.86 0.77 4.0 0 0 165.30 215.88
  Q 168.39 216.26 170.92 215.84
  C 174.13 215.31 176.17 212.28 173.69 209.75
  Z"
/>
<rect fill="#000000" x="-1.88" y="-11.71" transform="translate(183.90,216.73) rotate(-0.1)" width="3.76" height="23.42" rx="0.80"/>
<rect fill="#000000" x="-2.00" y="-1.86" transform="translate(289.77,206.87) rotate(-2.5)" width="4.00" height="3.72" rx="1.17"/>
<path fill="#000000" d="
  M 353.20 222.25
  Q 353.67 224.06 354.25 222.26
  L 359.47 206.09
  A 1.37 1.31 2.8 0 1 360.48 205.21
  C 364.49 204.39 363.87 205.41 362.95 208.13
  Q 359.66 217.89 356.23 227.59
  A 0.88 0.81 -84.2 0 1 355.58 228.16
  Q 353.67 228.51 351.79 228.07
  A 0.93 0.89 87.2 0 1 351.15 227.46
  L 343.83 205.99
  A 0.59 0.59 -15.5 0 1 344.26 205.23
  C 348.42 204.28 347.84 205.43 348.81 208.13
  Q 351.40 215.28 353.20 222.25
  Z"
/>
<rect fill="#000000" x="-2.00" y="-1.88" transform="translate(367.76,206.87) rotate(1.5)" width="4.00" height="3.76" rx="0.86"/>
<path fill="#000000" d="
  M 252.81 211.43
  L 254.69 211.51
  A 0.77 0.74 81.4 0 1 255.37 212.03
  Q 256.41 214.88 252.97 214.24
  A 0.83 0.82 5.0 0 0 252.00 215.05
  L 252.00 223.08
  A 2.25 2.24 8.4 0 0 253.61 225.23
  Q 256.07 225.96 255.40 227.73
  A 1.04 0.94 0.9 0 1 254.72 228.33
  Q 251.23 229.33 248.89 226.81
  A 1.65 1.39 -73.4 0 1 248.51 225.94
  Q 247.77 218.57 248.25 216.25
  Q 248.80 213.58 246.61 214.46
  A 0.76 0.76 -17.0 0 1 245.59 213.92
  Q 244.94 210.94 247.17 211.43
  A 0.92 0.91 1.1 0 0 248.27 210.38
  Q 247.28 204.74 251.74 206.84
  A 0.88 0.71 -81.0 0 1 252.16 207.56
  L 252.26 210.94
  A 0.57 0.50 0.7 0 0 252.81 211.43
  Z"
/>
<path fill="#000000" d="
  M 276.93 214.59
  Q 274.61 214.59 274.74 212.47
  A 1.05 1.05 -83.0 0 1 275.98 211.50
  Q 277.77 211.82 277.52 210.03
  Q 276.81 204.83 280.77 206.45
  A 1.60 1.59 17.9 0 1 281.72 208.30
  Q 280.81 212.17 283.75 211.44
  A 1.12 1.12 71.7 0 1 285.06 212.10
  Q 285.93 214.23 282.67 214.26
  A 1.15 1.15 -89.2 0 0 281.53 215.37
  Q 281.39 219.35 281.61 222.66
  C 281.78 225.21 281.48 225.14 284.04 225.72
  A 1.36 1.35 -89.4 0 1 285.08 226.79
  C 285.61 229.40 276.56 230.17 277.75 222.75
  Q 278.16 220.20 277.50 215.05
  A 0.57 0.53 -4.0 0 0 276.93 214.59
  Z"
/>
<path fill="#000000" d="
  M 379.78 225.38
  Q 380.48 225.59 381.20 225.45
  A 0.80 0.62 -18.9 0 1 381.98 225.72
  Q 382.61 226.79 382.15 227.99
  A 0.90 0.82 5.8 0 1 381.45 228.51
  Q 378.98 228.82 376.84 227.88
  Q 375.25 227.18 375.25 225.44
  L 375.25 214.87
  A 0.59 0.59 -6.3 0 0 374.53 214.30
  Q 371.47 214.99 372.40 212.03
  A 0.66 0.59 9.8 0 1 373.05 211.62
  Q 375.98 211.82 375.16 208.10
  A 1.18 1.17 78.1 0 1 376.07 206.70
  C 382.64 205.31 375.77 212.84 381.21 211.45
  A 0.65 0.59 -19.4 0 1 381.92 211.75
  Q 383.62 215.11 380.08 214.32
  A 0.84 0.79 6.0 0 0 379.06 215.10
  L 379.26 224.70
  A 0.74 0.72 8.4 0 0 379.78 225.38
  Z"
/>
<path fill="#000000" d="
  M 199.28 214.29
  C 194.35 212.57 193.63 218.34 190.18 216.50
  A 0.67 0.66 -69.3 0 1 189.85 215.76
  C 191.38 209.63 200.06 209.85 203.67 213.64
  A 1.33 1.25 23.9 0 1 204.03 214.50
  L 204.32 224.69
  A 0.69 0.67 8.5 0 0 204.80 225.32
  Q 206.78 225.96 206.12 227.98
  A 1.04 0.98 -88.2 0 1 205.48 228.62
  Q 203.56 229.23 200.82 227.68
  A 1.20 1.19 -43.2 0 0 199.72 227.65
  C 195.83 229.52 187.75 229.22 189.33 222.65
  C 190.60 217.40 196.85 219.59 200.16 217.36
  A 1.12 1.01 -16.7 0 0 200.64 216.57
  C 200.71 215.65 200.21 214.62 199.28 214.29
  Z
  M 199.81 220.45
  C 183.41 220.96 201.36 232.14 200.37 220.93
  A 0.54 0.53 -4.0 0 0 199.81 220.45
  Z"
/>
<path fill="#000000" d="
  M 258.46 214.94
  C 260.70 209.12 272.85 209.55 272.63 216.50
  C 272.53 219.46 271.55 224.15 273.94 226.36
  A 1.52 0.88 30.1 0 1 274.41 227.18
  C 274.59 229.52 271.05 229.06 269.79 227.93
  A 1.74 1.73 51.6 0 0 267.81 227.70
  C 264.16 229.69 256.86 229.30 257.51 223.25
  C 258.07 217.98 264.26 218.94 267.25 218.00
  C 272.26 216.43 265.29 211.06 261.72 216.02
  A 1.56 1.18 -73.5 0 1 260.96 216.58
  Q 257.44 217.60 258.46 214.94
  Z
  M 261.34 223.17
  C 260.84 226.57 269.28 227.42 268.57 221.24
  A 0.67 0.67 1.2 0 0 268.01 220.66
  Q 264.47 220.07 261.81 222.35
  A 1.47 1.24 -20.1 0 0 261.34 223.17
  Z"
/>
<path fill="#000000" d="
  M 303.4707 228.9280
  A 9.04 8.65 91.2 0 1 295.0119 219.7088
  A 9.04 8.65 91.2 0 1 303.8493 210.8520
  A 9.04 8.65 91.2 0 1 312.3081 220.0712
  A 9.04 8.65 91.2 0 1 303.4707 228.9280
  Z
  M 303.7736 225.7985
  A 5.89 4.77 88.7 0 0 308.4088 219.8018
  A 5.89 4.77 88.7 0 0 303.5064 214.0215
  A 5.89 4.77 88.7 0 0 298.8712 220.0182
  A 5.89 4.77 88.7 0 0 303.7736 225.7985
  Z"
/>
<path fill="#000000" d="
  M 318.93 228.12
  Q 317.42 229.19 315.89 228.07
  A 1.04 0.99 -72.4 0 1 315.49 227.25
  L 315.67 212.19
  A 0.69 0.67 82.9 0 1 316.17 211.53
  Q 317.33 211.22 318.48 211.63
  A 0.79 0.58 -85.5 0 1 318.89 212.30
  Q 318.91 212.81 319.29 213.07
  A 0.78 0.58 -47.8 0 0 320.11 212.91
  Q 323.60 209.76 327.34 211.62
  C 332.03 213.96 330.56 223.11 330.45 227.44
  A 0.75 0.63 84.6 0 1 329.97 228.13
  Q 329.04 228.36 327.20 227.99
  A 0.89 0.88 6.1 0 1 326.50 227.13
  C 326.50 223.73 326.42 220.55 326.58 217.44
  C 326.79 213.09 321.36 213.09 319.81 216.13
  C 318.62 218.47 319.25 224.57 319.30 227.32
  A 1.01 0.86 74.3 0 1 318.93 228.12
  Z"
/>
<path fill="#000000" d="
  M 385.11 214.60
  Q 388.71 210.09 394.06 211.19
  C 401.14 212.64 399.75 218.67 399.44 224.19
  A 2.62 0.47 43.8 0 0 400.75 226.00
  Q 402.49 227.77 400.30 228.63
  Q 398.25 229.44 395.74 227.54
  A 0.81 0.81 50.2 0 0 394.87 227.46
  C 383.82 233.18 378.85 218.48 392.00 218.56
  Q 396.21 218.58 395.34 215.30
  A 1.17 1.16 -84.8 0 0 394.74 214.57
  C 389.57 212.02 388.63 218.31 385.54 216.67
  A 1.38 1.37 33.3 0 1 385.11 214.60
  Z
  M 388.24 222.71
  C 387.25 227.11 395.96 227.32 395.60 220.94
  A 0.52 0.44 83.6 0 0 395.07 220.44
  L 389.22 221.61
  A 1.48 1.17 -86.6 0 0 388.24 222.71
  Z"
/>
<path fill="#000000" d="
  M 212.35 226.52
  Q 209.66 219.40 206.99 212.28
  A 0.47 0.45 71.9 0 1 207.29 211.66
  Q 208.87 211.20 210.47 211.66
  A 0.98 0.93 87.1 0 1 211.11 212.27
  L 214.53 222.28
  Q 215.27 224.44 216.00 222.26
  L 219.26 212.40
  A 1.42 1.38 -7.2 0 1 219.86 211.65
  Q 221.56 210.63 222.86 211.94
  A 0.84 0.75 -58.9 0 1 223.02 212.78
  Q 219.87 221.79 216.28 230.64
  C 214.88 234.07 212.86 235.63 209.17 234.92
  A 0.98 0.91 -4.7 0 1 208.47 234.37
  Q 208.05 233.39 208.21 232.30
  A 0.57 0.51 6.2 0 1 208.81 231.87
  C 212.37 232.17 213.48 229.52 212.35 226.52
  Z"
/>
<rect fill="#000000" x="-1.95" y="-8.55" transform="translate(289.71,219.90) rotate(-0.1)" width="3.90" height="17.10" rx="0.98"/>
<rect fill="#000000" x="-1.99" y="-8.44" transform="translate(367.76,219.94) rotate(-0.1)" width="3.98" height="16.88" rx="0.62"/>
<path fill="#000000" d="
  M 343.75 223.20
  A 5.42 5.42 0.0 0 1 338.33 228.62
  A 5.42 5.42 0.0 0 1 332.91 223.20
  A 5.42 5.42 0.0 0 1 338.33 217.78
  A 5.42 5.42 0.0 0 1 343.75 223.20
  Z
  M 337.7207 227.5015
  A 4.38 4.04 97.6 0 0 342.3045 223.6943
  A 4.38 4.04 97.6 0 0 338.8793 218.8185
  A 4.38 4.04 97.6 0 0 334.2955 222.6257
  A 4.38 4.04 97.6 0 0 337.7207 227.5015
  Z"
/>
<path fill="#000000" d="
  M 338.26 224.29
  C 336.59 223.36 337.99 225.53 336.93 225.83
  A 0.50 0.46 83.4 0 1 336.34 225.32
  L 336.44 221.30
  A 0.96 0.69 -15.1 0 1 337.02 220.59
  Q 339.38 219.58 340.53 221.79
  A 0.87 0.73 -43.2 0 1 340.43 222.64
  Q 339.44 224.01 340.19 225.51
  Q 340.44 226.00 339.95 225.94
  Q 339.14 225.85 338.82 225.04
  A 1.48 0.75 80.2 0 0 338.26 224.29
  Z
  M 338.69 223.05
  Q 339.88 222.93 339.32 221.86
  A 0.94 0.84 -10.1 0 0 338.56 221.39
  Q 336.68 221.28 337.85 222.69
  A 1.01 0.94 66.2 0 0 338.69 223.05
  Z"
/>
</svg>
