<?xml version="1.0" encoding="UTF-8" standalone="no"?>
<!DOCTYPE svg PUBLIC "-//W3C//DTD SVG 1.1//EN" "http://www.w3.org/Graphics/SVG/1.1/DTD/svg11.dtd">
<svg xmlns="http://www.w3.org/2000/svg" version="1.1" viewBox="0 0 600 300">
<g stroke-width="2.00" fill="none" stroke-linecap="butt">
<path stroke="#ed1c24" vector-effect="non-scaling-stroke" d="
  M 600.00 135.06
  Q 599.37 137.19 600.00 139.31"
/>
<path stroke="#770e12" vector-effect="non-scaling-stroke" d="
  M 578.51 158.88
  Q 542.25 158.65 506.00 158.75
  Q 501.78 158.76 497.00 154.71"
/>
<path stroke="#770e12" vector-effect="non-scaling-stroke" d="
  M 99.79 155.00
  Q 99.80 155.50 99.55 155.84
  A 1.20 0.73 8.7 0 1 98.69 156.20
  Q 86.45 156.46 74.21 156.02
  C 73.36 155.99 73.04 155.58 73.21 154.75"
/>
<path stroke="#ed1c24" vector-effect="non-scaling-stroke" d="
  M 0.00 150.44
  L 0.21 145.50"
/>
<path stroke="#ed1c24" vector-effect="non-scaling-stroke" d="
  M 0.21 145.50
  L 0.21 123.75"
/>
<path stroke="#ed1c24" vector-effect="non-scaling-stroke" d="
  M 0.21 123.75
  L 0.21 117.25"
/>
<path stroke="#ed1c24" vector-effect="non-scaling-stroke" d="
  M 0.21 117.25
  L 0.21 109.00"
/>
<path stroke="#ed1c24" vector-effect="non-scaling-stroke" d="
  M 0.21 95.75
  L 0.00 78.44"
/>
<path stroke="#770e12" vector-effect="non-scaling-stroke" d="
  M 368.28 155.19
  Q 358.91 156.30 344.25 156.00
  Q 342.33 155.96 342.12 155.07"
/>
<path stroke="#770e12" vector-effect="non-scaling-stroke" d="
  M 311.45 155.48
  Q 299.34 156.83 286.75 156.19
  Q 285.74 156.14 285.96 155.00"
/>
<path stroke="#770e12" vector-effect="non-scaling-stroke" d="
  M 253.83 155.31
  Q 242.39 156.65 230.40 155.80
  C 229.52 155.74 228.10 156.59 227.92 155.03"
/>
<path stroke="#770e12" vector-effect="non-scaling-stroke" d="
  M 214.54 155.53
  Q 168.02 156.43 129.25 156.00
  Q 125.90 155.96 121.95 154.82"
/>
<path stroke="#770e12" vector-effect="non-scaling-stroke" d="
  M 477.54 155.00
  L 477.46 156.10
  A 0.67 0.50 0.7 0 1 476.81 156.57
  Q 436.16 157.07 395.50 156.50
  Q 394.03 156.48 391.05 154.65"
/>
<path stroke="#ed1c24" vector-effect="non-scaling-stroke" d="
  M 0.21 117.25
  L 0.00 117.19"
/>
<path stroke="#ed1c24" vector-effect="non-scaling-stroke" d="
  M 0.21 123.75
  L 0.00 123.69"
/>
<path stroke="#ed1c24" vector-effect="non-scaling-stroke" d="
  M 0.21 145.50
  L 0.00 145.44"
/>
<path stroke="#808080" vector-effect="non-scaling-stroke" d="
  M 73.19 204.42
  C 70.28 204.89 63.86 205.41 62.20 202.58
  C 60.26 199.28 61.50 180.33 61.50 175.28
  Q 61.50 173.19 63.39 172.29
  Q 66.54 170.79 70.36 171.19
  C 77.02 171.90 76.64 173.48 77.01 179.45
  A 0.58 0.56 88.3 0 0 77.56 179.99
  L 90.56 180.07
  A 0.62 0.61 -83.8 0 0 91.17 179.57
  C 94.89 160.82 65.06 163.14 55.50 165.49
  C 49.44 166.97 46.25 170.82 46.25 177.12
  Q 46.25 185.59 46.25 194.06
  Q 46.25 201.74 46.28 201.92
  C 48.14 212.79 66.24 212.15 74.00 211.75
  Q 81.24 211.37 86.44 208.13
  C 91.80 204.79 91.62 200.09 91.12 194.19
  A 0.55 0.54 86.6 0 0 90.57 193.69
  L 77.44 193.92
  A 0.50 0.50 0.0 0 0 76.95 194.43
  C 77.02 198.61 77.63 203.69 73.19 204.42"
/>
<path stroke="#808080" vector-effect="non-scaling-stroke" d="
  M 135.80 203.44
  L 135.74 164.86
  A 0.86 0.84 90.0 0 0 134.90 164.00
  L 121.06 164.00
  A 0.81 0.81 0.0 0 0 120.25 164.81
  L 120.25 210.18
  A 0.69 0.69 -87.3 0 0 120.87 210.87
  Q 125.12 211.35 128.25 211.26
  Q 144.03 210.82 159.81 211.06
  A 0.56 0.49 0.0 0 0 160.37 210.57
  L 160.38 204.69
  A 0.57 0.51 0.0 0 0 159.81 204.18
  L 136.31 203.94
  A 0.52 0.50 0.6 0 1 135.80 203.44"
/>
<path stroke="#808080" vector-effect="non-scaling-stroke" d="
  M 215.26 202.00
  A 1.53 1.43 81.0 0 1 216.65 203.08
  L 218.89 210.47
  A 0.74 0.66 -6.9 0 0 219.57 210.94
  L 233.70 211.26
  A 0.57 0.57 -8.0 0 0 234.26 210.52
  L 219.23 164.67
  A 0.97 0.94 80.6 0 0 218.33 164.01
  L 197.20 164.17
  A 0.72 0.70 -80.9 0 0 196.53 164.67
  L 181.47 210.46
  A 0.37 0.36 -80.7 0 0 181.81 210.95
  L 194.85 210.99
  A 0.78 0.77 7.9 0 0 195.60 210.43
  L 197.79 202.98
  A 1.36 1.35 -82.0 0 1 199.09 201.99
  L 215.26 202.00"
/>
<path stroke="#808080" vector-effect="non-scaling-stroke" d="
  M 257.94 170.69
  C 247.02 187.94 291.79 191.63 285.37 202.36
  C 283.42 205.60 276.35 205.02 273.43 204.06
  C 270.42 203.07 270.25 201.21 270.61 198.39
  A 1.19 1.15 -86.5 0 0 269.46 197.04
  L 256.68 197.16
  A 0.58 0.58 -87.1 0 0 256.12 197.67
  C 253.83 215.04 281.98 212.59 291.25 210.75
  C 300.67 208.88 305.34 197.77 296.19 191.81
  Q 289.81 187.66 280.25 183.50
  C 256.82 173.31 287.87 164.79 286.47 177.04
  A 0.92 0.91 3.3 0 0 287.39 178.06
  L 300.31 178.05
  A 0.57 0.54 2.8 0 0 300.87 177.57
  C 302.24 165.11 287.03 164.09 278.58 163.95
  C 272.36 163.85 261.75 164.66 257.94 170.69"
/>
<path stroke="#808080" vector-effect="non-scaling-stroke" d="
  M 326.94 170.69
  C 316.03 187.92 360.79 191.66 354.37 202.35
  C 352.42 205.60 345.38 205.02 342.45 204.07
  C 339.35 203.05 339.37 201.20 339.59 198.34
  A 1.22 1.17 -88.0 0 0 338.42 197.03
  L 325.68 197.16
  A 0.57 0.55 -88.3 0 0 325.14 197.69
  Q 324.30 207.62 333.75 210.25
  C 342.94 212.81 360.85 213.73 367.69 206.44
  C 374.47 199.20 366.55 191.66 360.20 188.77
  Q 352.39 185.22 344.87 181.08
  C 340.98 178.95 338.15 172.88 344.33 171.65
  C 348.91 170.74 356.35 170.36 355.63 177.43
  A 0.46 0.44 -86.5 0 0 356.06 177.94
  L 369.31 178.06
  A 0.57 0.57 3.4 0 0 369.88 177.56
  C 371.36 165.18 355.94 164.06 347.63 163.94
  C 341.40 163.85 330.76 164.65 326.94 170.69"
/>
<path stroke="#808080" vector-effect="non-scaling-stroke" d="
  M 411.6095 164.5332
  A 0.56 0.56 0.0 0 0 411.0475 163.9752
  L 396.7476 164.0251
  A 0.56 0.56 0.0 0 0 396.1896 164.5871
  L 396.3505 210.7068
  A 0.56 0.56 0.0 0 0 396.9125 211.2648
  L 411.2124 211.2149
  A 0.56 0.56 0.0 0 0 411.7704 210.6529
  L 411.6095 164.5332"
/>
<path stroke="#808080" vector-effect="non-scaling-stroke" d="
  M 440.86 170.47
  Q 439.25 172.54 439.25 175.16
  Q 439.25 183.59 439.25 191.96
  Q 439.25 201.56 439.34 202.02
  C 441.88 214.93 469.74 213.10 477.56 209.31
  C 484.55 205.93 484.67 201.20 484.11 194.19
  A 0.54 0.53 87.1 0 0 483.57 193.69
  L 470.44 193.92
  A 0.53 0.51 -89.4 0 0 469.94 194.43
  L 469.75 201.02
  Q 469.68 203.32 467.38 204.03
  Q 462.81 205.45 458.01 204.33
  C 454.33 203.47 454.51 201.71 454.50 198.50
  Q 454.46 186.54 454.56 174.86
  Q 454.58 173.00 456.30 172.32
  Q 461.29 170.33 467.02 171.89
  Q 469.70 172.62 469.78 175.07
  L 469.93 179.47
  A 0.61 0.59 88.5 0 0 470.53 180.06
  L 483.98 180.00
  A 0.46 0.46 -4.3 0 0 484.44 179.47
  C 484.15 177.54 484.38 175.49 484.04 173.86
  C 482.45 166.26 473.65 164.66 466.75 164.25
  C 458.25 163.74 446.32 163.43 440.86 170.47"
/>
<path stroke="#808080" vector-effect="non-scaling-stroke" d="
  M 521.28 165.39
  C 513.82 167.08 508.21 174.10 513.44 181.31
  C 517.69 187.18 530.28 191.04 537.01 195.24
  C 541.49 198.04 543.04 203.32 536.23 204.55
  Q 532.81 205.16 529.30 204.52
  Q 525.37 203.79 525.54 198.51
  A 1.42 1.39 -89.0 0 0 524.15 197.04
  L 511.81 197.05
  A 0.60 0.58 -85.4 0 0 511.23 197.56
  C 508.84 213.09 530.32 212.23 540.00 211.73
  C 553.61 211.04 564.12 199.97 548.36 190.17
  C 543.81 187.34 523.36 180.28 527.25 173.74
  C 529.67 169.68 542.68 169.53 541.58 177.25
  A 0.47 0.44 -85.4 0 0 542.00 177.78
  L 555.31 178.07
  A 0.58 0.56 -86.1 0 0 555.88 177.56
  C 557.96 161.37 530.39 163.32 521.28 165.39"
/>
<path stroke="#808080" vector-effect="non-scaling-stroke" d="
  M 200.15 195.60
  A 0.31 0.31 -81.5 0 0 200.44 196.00
  L 213.80 196.00
  A 0.31 0.31 81.5 0 0 214.09 195.60
  L 207.42 173.76
  A 0.31 0.31 0.0 0 0 206.82 173.76
  L 200.15 195.60"
/>
</g>
<path fill="#ed1c24" d="
  M 600.00 93.81
  L 600.00 135.06
  Q 599.37 137.19 600.00 139.31
  L 600.03 142.07
  Q 595.88 158.75 578.51 158.88
  Q 542.25 158.65 506.00 158.75
  Q 501.78 158.76 497.00 154.71
  C 492.38 149.97 490.78 145.59 490.67 138.57
  Q 490.31 116.41 490.89 94.25
  C 491.16 83.92 498.54 75.06 509.25 75.09
  Q 544.54 75.20 579.83 75.30
  C 591.24 75.33 598.78 82.20 600.00 93.81
  Z
  M 574.01 95.76
  A 0.27 0.27 0.0 0 0 573.74 95.49
  L 516.76 95.49
  A 0.27 0.27 0.0 0 0 516.49 95.76
  L 516.49 139.48
  A 0.27 0.27 0.0 0 0 516.76 139.75
  L 573.74 139.75
  A 0.27 0.27 0.0 0 0 574.01 139.48
  L 574.01 95.76
  Z"
/>
<path fill="#ed1c24" d="
  M 99.79 155.00
  Q 99.80 155.50 99.55 155.84
  A 1.20 0.73 8.7 0 1 98.69 156.20
  Q 86.45 156.46 74.21 156.02
  C 73.36 155.99 73.04 155.58 73.21 154.75
  L 73.25 99.64
  A 0.45 0.45 0.0 0 0 72.80 99.19
  L 26.76 99.26
  A 0.77 0.76 90.0 0 0 26.00 100.03
  L 26.00 155.53
  A 0.66 0.66 -0.9 0 1 25.36 156.19
  Q 12.70 156.49 0.00 155.76
  L 0.00 150.44
  L 0.21 145.50
  L 0.21 123.75
  L 0.21 117.25
  L 0.21 109.00
  L 0.21 95.75
  L 0.00 78.44
  L 0.00 76.98
  Q 34.31 76.62 68.62 76.72
  Q 81.67 76.76 84.34 77.41
  C 91.67 79.20 99.90 86.30 99.57 94.74
  C 98.78 114.64 99.46 135.07 99.79 155.00
  Z"
/>
<path fill="#ed1c24" d="
  M 368.28 155.19
  Q 358.91 156.30 344.25 156.00
  Q 342.33 155.96 342.12 155.07
  L 342.25 100.51
  A 1.51 1.51 -0.2 0 0 340.73 99.00
  L 312.10 99.24
  A 0.86 0.86 -0.3 0 0 311.25 100.10
  L 311.45 155.48
  Q 299.34 156.83 286.75 156.19
  Q 285.74 156.14 285.96 155.00
  L 286.00 100.44
  A 1.14 1.13 0.0 0 0 284.86 99.31
  L 254.18 99.50
  A 0.68 0.67 0.0 0 0 253.50 100.17
  L 253.83 155.31
  Q 242.39 156.65 230.40 155.80
  C 229.52 155.74 228.10 156.59 227.92 155.03
  L 227.93 77.86
  A 0.55 0.54 -90.0 0 1 228.47 77.31
  Q 289.16 77.20 349.75 77.28
  C 358.98 77.29 366.03 83.33 367.87 92.11
  Q 368.25 93.94 368.25 107.44
  Q 368.24 131.14 368.28 155.19
  Z"
/>
<path fill="#ed1c24" d="
  M 214.54 155.53
  Q 168.02 156.43 129.25 156.00
  Q 125.90 155.96 121.95 154.82
  Q 113.01 148.54 110.90 138.57
  C 108.20 125.77 111.12 105.13 128.50 105.09
  Q 157.63 105.00 186.52 105.25
  A 0.72 0.70 -0.4 0 0 187.24 104.54
  L 187.20 95.81
  A 0.51 0.50 0.0 0 0 186.69 95.31
  L 119.44 95.25
  A 0.51 0.51 -89.6 0 1 118.93 94.74
  L 119.00 78.63
  A 0.89 0.88 -89.7 0 1 119.88 77.75
  Q 158.50 77.75 196.50 77.68
  C 205.13 77.67 213.24 85.73 214.59 94.13
  Q 214.78 95.31 214.71 106.38
  Q 214.55 130.44 214.54 155.53
  Z
  M 187.7193 123.8073
  A 0.60 0.60 0.0 0 0 187.1182 123.2083
  L 139.3383 123.2917
  A 0.60 0.60 0.0 0 0 138.7394 123.8928
  L 138.7607 136.1327
  A 0.60 0.60 0.0 0 0 139.3618 136.7317
  L 187.1417 136.6483
  A 0.60 0.60 0.0 0 0 187.7406 136.0472
  L 187.7193 123.8073
  Z"
/>
<path fill="#ed1c24" d="
  M 477.54 155.00
  L 477.46 156.10
  A 0.67 0.50 0.7 0 1 476.81 156.57
  Q 436.16 157.07 395.50 156.50
  Q 394.03 156.48 391.05 154.65
  Q 380.19 147.42 380.85 134.79
  C 381.56 121.13 380.43 107.40 381.44 93.78
  C 382.28 82.55 391.59 77.75 401.70 77.75
  Q 439.32 77.71 476.95 77.81
  A 0.49 0.49 0.1 0 1 477.44 78.30
  L 477.44 97.59
  A 0.67 0.66 0.0 0 1 476.77 98.25
  L 408.11 98.00
  A 0.81 0.80 -90.0 0 0 407.31 98.81
  L 407.25 135.88
  A 0.88 0.87 -0.0 0 0 408.13 136.75
  L 476.93 136.81
  A 0.51 0.50 0.0 0 1 477.44 137.31
  L 477.54 155.00
  Z"
/>
<path fill="#ed1c24" d="
  M 0.00 78.44
  L 0.21 95.75
  L 0.00 95.69
  L 0.00 78.44
  Z"
/>
<path fill="#ed1c24" d="
  M 0.00 108.94
  L 0.21 109.00
  L 0.21 117.25
  L 0.00 117.19
  L 0.00 108.94
  Z"
/>
<path fill="#ed1c24" d="
  M 0.00 117.19
  L 0.21 117.25
  L 0.21 123.75
  L 0.00 123.69
  L 0.00 117.19
  Z"
/>
<path fill="#ed1c24" d="
  M 0.00 123.69
  L 0.21 123.75
  L 0.21 145.50
  L 0.00 145.44
  L 0.00 123.69
  Z"
/>
<path fill="#ed1c24" d="
  M 600.00 135.06
  L 600.00 139.31
  Q 599.37 137.19 600.00 135.06
  Z"
/>
<path fill="#ed1c24" d="
  M 0.00 145.44
  L 0.21 145.50
  L 0.00 150.44
  L 0.00 145.44
  Z"
/>
<path fill="#000000" d="
  M 121.95 154.82
  Q 125.90 155.96 129.25 156.00
  Q 168.02 156.43 214.54 155.53
  Q 221.28 154.58 227.92 155.03
  C 228.10 156.59 229.52 155.74 230.40 155.80
  Q 242.39 156.65 253.83 155.31
  L 285.96 155.00
  Q 285.74 156.14 286.75 156.19
  Q 299.34 156.83 311.45 155.48
  Q 326.69 154.59 342.12 155.07
  Q 342.33 155.96 344.25 156.00
  Q 358.91 156.30 368.28 155.19
  L 391.05 154.65
  Q 394.03 156.48 395.50 156.50
  Q 436.16 157.07 476.81 156.57
  A 0.67 0.50 0.7 0 0 477.46 156.10
  L 477.54 155.00
  L 497.00 154.71
  Q 501.78 158.76 506.00 158.75
  Q 542.25 158.65 578.51 158.88
  Q 578.40 159.33 579.19 159.81
  C 605.31 175.54 597.03 216.72 566.25 219.75
  Q 561.81 220.19 553.75 220.18
  Q 299.16 220.00 44.57 220.00
  Q 34.54 220.00 29.58 218.59
  Q 17.04 215.03 10.69 204.13
  C -2.97 180.64 14.87 153.81 41.25 155.00
  Q 49.89 155.39 73.21 154.75
  C 73.04 155.58 73.36 155.99 74.21 156.02
  Q 86.45 156.46 98.69 156.20
  A 1.20 0.73 8.7 0 0 99.55 155.84
  Q 99.80 155.50 99.79 155.00
  L 121.95 154.82
  Z
  M 73.19 204.42
  C 70.28 204.89 63.86 205.41 62.20 202.58
  C 60.26 199.28 61.50 180.33 61.50 175.28
  Q 61.50 173.19 63.39 172.29
  Q 66.54 170.79 70.36 171.19
  C 77.02 171.90 76.64 173.48 77.01 179.45
  A 0.58 0.56 88.3 0 0 77.56 179.99
  L 90.56 180.07
  A 0.62 0.61 -83.8 0 0 91.17 179.57
  C 94.89 160.82 65.06 163.14 55.50 165.49
  C 49.44 166.97 46.25 170.82 46.25 177.12
  Q 46.25 185.59 46.25 194.06
  Q 46.25 201.74 46.28 201.92
  C 48.14 212.79 66.24 212.15 74.00 211.75
  Q 81.24 211.37 86.44 208.13
  C 91.80 204.79 91.62 200.09 91.12 194.19
  A 0.55 0.54 86.6 0 0 90.57 193.69
  L 77.44 193.92
  A 0.50 0.50 0.0 0 0 76.95 194.43
  C 77.02 198.61 77.63 203.69 73.19 204.42
  Z
  M 135.80 203.44
  L 135.74 164.86
  A 0.86 0.84 90.0 0 0 134.90 164.00
  L 121.06 164.00
  A 0.81 0.81 0.0 0 0 120.25 164.81
  L 120.25 210.18
  A 0.69 0.69 -87.3 0 0 120.87 210.87
  Q 125.12 211.35 128.25 211.26
  Q 144.03 210.82 159.81 211.06
  A 0.56 0.49 0.0 0 0 160.37 210.57
  L 160.38 204.69
  A 0.57 0.51 0.0 0 0 159.81 204.18
  L 136.31 203.94
  A 0.52 0.50 0.6 0 1 135.80 203.44
  Z
  M 215.26 202.00
  A 1.53 1.43 81.0 0 1 216.65 203.08
  L 218.89 210.47
  A 0.74 0.66 -6.9 0 0 219.57 210.94
  L 233.70 211.26
  A 0.57 0.57 -8.0 0 0 234.26 210.52
  L 219.23 164.67
  A 0.97 0.94 80.6 0 0 218.33 164.01
  L 197.20 164.17
  A 0.72 0.70 -80.9 0 0 196.53 164.67
  L 181.47 210.46
  A 0.37 0.36 -80.7 0 0 181.81 210.95
  L 194.85 210.99
  A 0.78 0.77 7.9 0 0 195.60 210.43
  L 197.79 202.98
  A 1.36 1.35 -82.0 0 1 199.09 201.99
  L 215.26 202.00
  Z
  M 257.94 170.69
  C 247.02 187.94 291.79 191.63 285.37 202.36
  C 283.42 205.60 276.35 205.02 273.43 204.06
  C 270.42 203.07 270.25 201.21 270.61 198.39
  A 1.19 1.15 -86.5 0 0 269.46 197.04
  L 256.68 197.16
  A 0.58 0.58 -87.1 0 0 256.12 197.67
  C 253.83 215.04 281.98 212.59 291.25 210.75
  C 300.67 208.88 305.34 197.77 296.19 191.81
  Q 289.81 187.66 280.25 183.50
  C 256.82 173.31 287.87 164.79 286.47 177.04
  A 0.92 0.91 3.3 0 0 287.39 178.06
  L 300.31 178.05
  A 0.57 0.54 2.8 0 0 300.87 177.57
  C 302.24 165.11 287.03 164.09 278.58 163.95
  C 272.36 163.85 261.75 164.66 257.94 170.69
  Z
  M 326.94 170.69
  C 316.03 187.92 360.79 191.66 354.37 202.35
  C 352.42 205.60 345.38 205.02 342.45 204.07
  C 339.35 203.05 339.37 201.20 339.59 198.34
  A 1.22 1.17 -88.0 0 0 338.42 197.03
  L 325.68 197.16
  A 0.57 0.55 -88.3 0 0 325.14 197.69
  Q 324.30 207.62 333.75 210.25
  C 342.94 212.81 360.85 213.73 367.69 206.44
  C 374.47 199.20 366.55 191.66 360.20 188.77
  Q 352.39 185.22 344.87 181.08
  C 340.98 178.95 338.15 172.88 344.33 171.65
  C 348.91 170.74 356.35 170.36 355.63 177.43
  A 0.46 0.44 -86.5 0 0 356.06 177.94
  L 369.31 178.06
  A 0.57 0.57 3.4 0 0 369.88 177.56
  C 371.36 165.18 355.94 164.06 347.63 163.94
  C 341.40 163.85 330.76 164.65 326.94 170.69
  Z
  M 411.6095 164.5332
  A 0.56 0.56 0.0 0 0 411.0475 163.9752
  L 396.7476 164.0251
  A 0.56 0.56 0.0 0 0 396.1896 164.5871
  L 396.3505 210.7068
  A 0.56 0.56 0.0 0 0 396.9125 211.2648
  L 411.2124 211.2149
  A 0.56 0.56 0.0 0 0 411.7704 210.6529
  L 411.6095 164.5332
  Z
  M 440.86 170.47
  Q 439.25 172.54 439.25 175.16
  Q 439.25 183.59 439.25 191.96
  Q 439.25 201.56 439.34 202.02
  C 441.88 214.93 469.74 213.10 477.56 209.31
  C 484.55 205.93 484.67 201.20 484.11 194.19
  A 0.54 0.53 87.1 0 0 483.57 193.69
  L 470.44 193.92
  A 0.53 0.51 -89.4 0 0 469.94 194.43
  L 469.75 201.02
  Q 469.68 203.32 467.38 204.03
  Q 462.81 205.45 458.01 204.33
  C 454.33 203.47 454.51 201.71 454.50 198.50
  Q 454.46 186.54 454.56 174.86
  Q 454.58 173.00 456.30 172.32
  Q 461.29 170.33 467.02 171.89
  Q 469.70 172.62 469.78 175.07
  L 469.93 179.47
  A 0.61 0.59 88.5 0 0 470.53 180.06
  L 483.98 180.00
  A 0.46 0.46 -4.3 0 0 484.44 179.47
  C 484.15 177.54 484.38 175.49 484.04 173.86
  C 482.45 166.26 473.65 164.66 466.75 164.25
  C 458.25 163.74 446.32 163.43 440.86 170.47
  Z
  M 521.28 165.39
  C 513.82 167.08 508.21 174.10 513.44 181.31
  C 517.69 187.18 530.28 191.04 537.01 195.24
  C 541.49 198.04 543.04 203.32 536.23 204.55
  Q 532.81 205.16 529.30 204.52
  Q 525.37 203.79 525.54 198.51
  A 1.42 1.39 -89.0 0 0 524.15 197.04
  L 511.81 197.05
  A 0.60 0.58 -85.4 0 0 511.23 197.56
  C 508.84 213.09 530.32 212.23 540.00 211.73
  C 553.61 211.04 564.12 199.97 548.36 190.17
  C 543.81 187.34 523.36 180.28 527.25 173.74
  C 529.67 169.68 542.68 169.53 541.58 177.25
  A 0.47 0.44 -85.4 0 0 542.00 177.78
  L 555.31 178.07
  A 0.58 0.56 -86.1 0 0 555.88 177.56
  C 557.96 161.37 530.39 163.32 521.28 165.39
  Z"
/>
<path fill="#ffffff" d="
  M 62.20 202.58
  C 63.86 205.41 70.28 204.89 73.19 204.42
  C 77.63 203.69 77.02 198.61 76.95 194.43
  A 0.50 0.50 -19.5 0 1 77.44 193.92
  L 90.57 193.69
  A 0.55 0.54 86.6 0 1 91.12 194.19
  C 91.62 200.09 91.80 204.79 86.44 208.13
  Q 81.24 211.37 74.00 211.75
  C 66.24 212.15 48.14 212.79 46.28 201.92
  Q 46.25 201.74 46.25 194.06
  Q 46.25 185.59 46.25 177.12
  C 46.25 170.82 49.44 166.97 55.50 165.49
  C 65.06 163.14 94.89 160.82 91.17 179.57
  A 0.62 0.61 -83.8 0 1 90.56 180.07
  L 77.56 179.99
  A 0.58 0.56 88.3 0 1 77.01 179.45
  C 76.64 173.48 77.02 171.90 70.36 171.19
  Q 66.54 170.79 63.39 172.29
  Q 61.50 173.19 61.50 175.28
  C 61.50 180.33 60.26 199.28 62.20 202.58
  Z"
/>
<path fill="#ffffff" d="
  M 136.31 203.94
  L 159.81 204.18
  A 0.57 0.51 -0.0 0 1 160.38 204.69
  L 160.37 210.57
  A 0.56 0.49 -0.0 0 1 159.81 211.06
  Q 144.03 210.82 128.25 211.26
  Q 125.12 211.35 120.87 210.87
  A 0.69 0.69 -87.3 0 1 120.25 210.18
  L 120.25 164.81
  A 0.81 0.81 0.0 0 1 121.06 164.00
  L 134.90 164.00
  A 0.86 0.84 -90.0 0 1 135.74 164.86
  L 135.80 203.44
  A 0.52 0.50 0.6 0 0 136.31 203.94
  Z"
/>
<path fill="#ffffff" d="
  M 215.26 202.00
  L 199.09 201.99
  A 1.36 1.35 -82.0 0 0 197.79 202.98
  L 195.60 210.43
  A 0.78 0.77 7.9 0 1 194.85 210.99
  L 181.81 210.95
  A 0.37 0.36 -80.7 0 1 181.47 210.46
  L 196.53 164.67
  A 0.72 0.70 -80.9 0 1 197.20 164.17
  L 218.33 164.01
  A 0.97 0.94 80.6 0 1 219.23 164.67
  L 234.26 210.52
  A 0.57 0.57 -8.0 0 1 233.70 211.26
  L 219.57 210.94
  A 0.74 0.66 -6.9 0 1 218.89 210.47
  L 216.65 203.08
  A 1.53 1.43 81.0 0 0 215.26 202.00
  Z
  M 200.15 195.60
  A 0.31 0.31 -81.5 0 0 200.44 196.00
  L 213.80 196.00
  A 0.31 0.31 81.5 0 0 214.09 195.60
  L 207.42 173.76
  A 0.31 0.31 0.0 0 0 206.82 173.76
  L 200.15 195.60
  Z"
/>
<path fill="#ffffff" d="
  M 257.94 170.69
  C 261.75 164.66 272.36 163.85 278.58 163.95
  C 287.03 164.09 302.24 165.11 300.87 177.57
  A 0.57 0.54 2.8 0 1 300.31 178.05
  L 287.39 178.06
  A 0.92 0.91 3.3 0 1 286.47 177.04
  C 287.87 164.79 256.82 173.31 280.25 183.50
  Q 289.81 187.66 296.19 191.81
  C 305.34 197.77 300.67 208.88 291.25 210.75
  C 281.98 212.59 253.83 215.04 256.12 197.67
  A 0.58 0.58 -87.1 0 1 256.68 197.16
  L 269.46 197.04
  A 1.19 1.15 -86.5 0 1 270.61 198.39
  C 270.25 201.21 270.42 203.07 273.43 204.06
  C 276.35 205.02 283.42 205.60 285.37 202.36
  C 291.79 191.63 247.02 187.94 257.94 170.69
  Z"
/>
<path fill="#ffffff" d="
  M 326.94 170.69
  C 330.76 164.65 341.40 163.85 347.63 163.94
  C 355.94 164.06 371.36 165.18 369.88 177.56
  A 0.57 0.57 3.4 0 1 369.31 178.06
  L 356.06 177.94
  A 0.46 0.44 -86.5 0 1 355.63 177.43
  C 356.35 170.36 348.91 170.74 344.33 171.65
  C 338.15 172.88 340.98 178.95 344.87 181.08
  Q 352.39 185.22 360.20 188.77
  C 366.55 191.66 374.47 199.20 367.69 206.44
  C 360.85 213.73 342.94 212.81 333.75 210.25
  Q 324.30 207.62 325.14 197.69
  A 0.57 0.55 -88.3 0 1 325.68 197.16
  L 338.42 197.03
  A 1.22 1.17 -88.0 0 1 339.59 198.34
  C 339.37 201.20 339.35 203.05 342.45 204.07
  C 345.38 205.02 352.42 205.60 354.37 202.35
  C 360.79 191.66 316.03 187.92 326.94 170.69
  Z"
/>
<rect fill="#ffffff" x="-7.71" y="-23.62" transform="translate(403.98,187.62) rotate(-0.2)" width="15.42" height="47.24" rx="0.56"/>
<path fill="#ffffff" d="
  M 440.86 170.47
  C 446.32 163.43 458.25 163.74 466.75 164.25
  C 473.65 164.66 482.45 166.26 484.04 173.86
  C 484.38 175.49 484.15 177.54 484.44 179.47
  A 0.46 0.46 -4.3 0 1 483.98 180.00
  L 470.53 180.06
  A 0.61 0.59 88.5 0 1 469.93 179.47
  L 469.78 175.07
  Q 469.70 172.62 467.02 171.89
  Q 461.29 170.33 456.30 172.32
  Q 454.58 173.00 454.56 174.86
  Q 454.46 186.54 454.50 198.50
  C 454.51 201.71 454.33 203.47 458.01 204.33
  Q 462.81 205.45 467.38 204.03
  Q 469.68 203.32 469.75 201.02
  L 469.94 194.43
  A 0.53 0.51 -89.4 0 1 470.44 193.92
  L 483.57 193.69
  A 0.54 0.53 87.1 0 1 484.11 194.19
  C 484.67 201.20 484.55 205.93 477.56 209.31
  C 469.74 213.10 441.88 214.93 439.34 202.02
  Q 439.25 201.56 439.25 191.96
  Q 439.25 183.59 439.25 175.16
  Q 439.25 172.54 440.86 170.47
  Z"
/>
<path fill="#ffffff" d="
  M 513.44 181.31
  C 508.21 174.10 513.82 167.08 521.28 165.39
  C 530.39 163.32 557.96 161.37 555.88 177.56
  A 0.58 0.56 -86.1 0 1 555.31 178.07
  L 542.00 177.78
  A 0.47 0.44 -85.4 0 1 541.58 177.25
  C 542.68 169.53 529.67 169.68 527.25 173.74
  C 523.36 180.28 543.81 187.34 548.36 190.17
  C 564.12 199.97 553.61 211.04 540.00 211.73
  C 530.32 212.23 508.84 213.09 511.23 197.56
  A 0.60 0.58 -85.4 0 1 511.81 197.05
  L 524.15 197.04
  A 1.42 1.39 -89.0 0 1 525.54 198.51
  Q 525.37 203.79 529.30 204.52
  Q 532.81 205.16 536.23 204.55
  C 543.04 203.32 541.49 198.04 537.01 195.24
  C 530.28 191.04 517.69 187.18 513.44 181.31
  Z"
/>
<path fill="#000000" d="
  M 200.15 195.60
  L 206.82 173.76
  A 0.31 0.31 -46.9 0 1 207.42 173.76
  L 214.09 195.60
  A 0.31 0.31 81.3 0 1 213.80 196.00
  L 200.44 196.00
  A 0.31 0.31 -81.3 0 1 200.15 195.60
  Z"
/>
</svg>
