<?xml version="1.0" encoding="UTF-8" standalone="no"?>
<!DOCTYPE svg PUBLIC "-//W3C//DTD SVG 1.1//EN" "http://www.w3.org/Graphics/SVG/1.1/DTD/svg11.dtd">
<svg xmlns="http://www.w3.org/2000/svg" version="1.1" viewBox="0 0 600 223">
<path fill="#000000" d="
  M 148.04 -0.13
  L 153.06 0.00
  Q 186.83 1.16 210.48 26.14
  A 2.37 2.37 58.3 0 0 213.01 26.74
  Q 242.67 16.00 274.25 12.50
  C 282.81 11.55 292.82 12.50 295.28 22.69
  Q 295.52 23.69 295.24 24.68
  Q 293.81 29.78 290.24 32.73
  C 271.36 48.39 251.26 60.22 229.98 72.22
  A 1.58 1.57 74.3 0 0 229.18 73.66
  C 230.24 95.19 222.39 115.94 206.93 130.94
  A 1.10 1.10 -67.6 0 1 206.19 131.25
  Q 188.03 131.52 169.81 131.74
  C 169.04 131.75 166.78 132.34 167.80 130.49
  A 1.50 0.90 -6.0 0 1 168.54 129.93
  L 170.89 129.07
  A 1.39 1.28 69.7 0 0 171.61 127.32
  Q 170.55 124.49 168.32 126.13
  A 1.24 0.97 -53.4 0 1 167.45 126.37
  C 163.94 125.73 168.55 120.06 170.95 123.76
  A 1.13 1.13 60.9 0 0 172.39 124.17
  C 176.96 122.01 180.71 126.48 183.20 118.89
  Q 184.03 116.36 186.03 118.11
  C 188.49 120.27 193.01 117.58 189.95 115.96
  A 1.19 0.95 -37.3 0 0 189.05 115.94
  Q 185.48 117.33 184.60 113.60
  Q 184.26 112.16 183.32 113.30
  C 181.04 116.06 178.18 120.23 173.95 117.82
  A 1.82 1.82 38.8 0 0 171.82 118.05
  C 168.98 120.64 151.23 134.22 148.43 127.97
  A 0.79 0.74 -36.0 0 1 148.59 127.14
  C 151.25 124.33 153.80 119.79 147.56 118.81
  Q 145.32 118.46 143.56 119.31
  L 130.30 125.71
  Q 129.82 125.94 129.21 125.96
  C 124.83 126.15 121.28 126.74 116.96 126.32
  Q 112.35 125.88 107.74 126.62
  C 106.70 126.79 105.41 126.63 105.67 125.29
  A 0.96 0.80 -6.7 0 1 106.28 124.65
  C 127.20 117.26 153.28 109.24 176.66 98.43
  Q 202.08 86.68 226.95 72.90
  A 2.25 2.24 68.6 0 0 228.04 70.40
  C 227.28 67.34 228.22 64.20 226.59 61.10
  A 1.10 1.09 61.7 0 0 225.10 60.65
  Q 196.52 76.37 166.80 89.11
  C 157.25 93.20 145.42 98.54 134.28 102.34
  Q 111.62 110.06 88.89 117.29
  A 1.08 1.04 62.4 0 0 88.41 118.95
  L 94.20 126.76
  A 1.99 1.70 61.6 0 0 96.20 127.53
  L 100.58 126.21
  A 3.08 2.56 -30.1 0 1 103.28 126.67
  Q 121.68 142.65 143.10 146.59
  C 146.16 147.15 148.04 146.39 147.13 151.14
  A 1.99 1.99 7.2 0 1 145.05 152.75
  Q 117.43 150.89 96.10 129.99
  A 1.47 1.46 59.0 0 0 94.68 129.63
  C 81.58 133.42 68.41 136.90 55.13 138.83
  Q 35.68 141.64 16.00 142.25
  C 8.71 142.47 -0.10 137.90 0.16 129.48
  C 0.34 123.31 2.48 120.14 7.19 116.19
  C 27.19 99.39 50.06 85.98 73.69 74.70
  A 2.70 2.68 88.2 0 0 75.01 73.29
  Q 76.19 70.40 76.44 67.85
  C 77.21 59.78 79.62 51.95 83.22 44.70
  Q 103.14 4.67 148.04 -0.13
  Z
  M 228.07 56.92
  C 229.23 57.24 230.55 56.07 231.30 55.70
  Q 251.71 45.66 270.31 32.59
  C 273.41 30.41 276.56 26.89 269.50 26.00
  C 265.33 25.48 258.00 27.41 254.47 28.10
  C 243.47 30.24 231.63 33.81 221.24 38.01
  A 1.43 1.43 -25.8 0 0 220.53 40.04
  Q 224.52 47.02 226.80 55.63
  A 1.83 1.82 -89.8 0 0 228.07 56.92
  Z
  M 115.3730 31.8150
  A 1.95 1.20 131.3 0 0 117.5615 31.1420
  A 1.95 1.20 131.3 0 0 117.9470 28.8850
  A 1.95 1.20 131.3 0 0 115.7585 29.5580
  A 1.95 1.20 131.3 0 0 115.3730 31.8150
  Z
  M 187.35 42.53
  C 190.07 39.98 186.18 38.55 184.18 38.35
  A 0.56 0.53 -87.1 0 1 183.71 37.80
  Q 183.70 35.26 181.36 35.89
  A 1.35 1.34 62.7 0 0 180.68 38.05
  L 184.20 42.33
  Q 185.67 44.11 187.35 42.53
  Z
  M 119.27 37.01
  C 117.54 35.52 114.07 36.17 111.94 36.38
  A 1.22 1.10 13.0 0 0 111.13 36.83
  C 107.91 41.24 114.88 44.09 116.58 41.59
  A 2.99 2.97 -84.7 0 1 117.80 40.57
  Q 121.46 38.91 119.27 37.01
  Z
  M 126.50 67.69
  C 125.14 68.49 118.70 74.42 119.94 68.69
  Q 120.53 65.92 117.81 67.81
  Q 114.21 70.32 110.72 73.00
  C 108.67 74.58 105.59 74.23 107.65 70.72
  Q 112.12 63.12 105.68 65.32
  C 98.00 67.95 98.21 62.16 92.95 59.86
  Q 91.37 59.17 91.28 57.46
  Q 90.98 52.21 92.97 47.85
  C 93.97 45.64 92.23 44.27 91.17 46.83
  Q 78.62 76.99 90.82 107.45
  A 1.17 1.08 -27.5 0 0 92.49 107.90
  L 99.54 103.47
  A 0.88 0.83 43.8 0 1 100.45 103.48
  Q 101.92 104.38 102.01 106.54
  Q 102.09 108.44 103.62 107.30
  C 106.24 105.36 106.23 103.07 110.03 101.55
  Q 111.97 100.78 111.53 98.73
  C 111.27 97.54 118.66 91.54 120.06 90.85
  C 123.51 89.16 125.52 87.79 128.30 85.09
  A 2.10 2.09 -51.7 0 1 130.82 84.79
  C 132.94 86.04 137.63 82.15 139.76 80.39
  A 1.72 1.70 -60.7 0 1 141.08 80.01
  C 145.55 80.62 146.87 77.66 148.91 74.61
  A 1.13 0.88 -70.9 0 1 149.68 74.11
  Q 150.94 74.01 151.56 75.19
  C 154.32 80.39 156.73 73.18 160.96 75.98
  A 1.50 1.41 -52.1 0 0 162.83 75.69
  L 166.21 71.91
  A 1.37 1.30 -59.6 0 0 165.70 69.73
  C 163.91 69.16 159.70 68.81 161.68 65.71
  Q 162.63 64.24 161.74 62.73
  C 160.62 60.83 164.42 57.65 160.74 57.06
  A 1.18 1.07 -57.7 0 0 159.85 57.31
  Q 157.25 59.37 155.93 62.45
  Q 154.97 64.68 153.18 63.31
  L 149.89 60.79
  A 1.27 1.18 32.5 0 0 148.03 61.13
  Q 146.83 63.50 144.46 64.56
  A 0.71 0.68 55.6 0 1 143.67 64.39
  Q 141.15 61.76 137.48 62.62
  A 2.04 1.41 37.7 0 1 136.54 62.57
  L 134.24 61.86
  A 1.56 1.19 -41.0 0 0 133.29 61.92
  Q 129.40 63.45 127.20 67.00
  Q 126.92 67.44 126.50 67.69
  Z
  M 153.6699 57.3601
  A 1.40 1.11 -21.8 0 0 151.9578 56.8494
  A 1.40 1.11 -21.8 0 0 151.0701 58.3999
  A 1.40 1.11 -21.8 0 0 152.7822 58.9106
  A 1.40 1.11 -21.8 0 0 153.6699 57.3601
  Z
  M 16.10 126.32
  A 0.82 0.82 -48.0 0 0 16.15 127.30
  C 18.56 130.14 20.79 129.19 23.95 128.89
  C 31.11 128.20 39.35 126.83 45.27 125.97
  Q 65.21 123.09 84.59 117.22
  A 1.06 1.06 -22.0 0 0 85.23 115.72
  Q 79.79 105.16 76.96 92.83
  A 0.88 0.88 71.7 0 0 75.75 92.22
  Q 46.19 104.99 19.06 123.31
  Q 17.34 124.47 16.10 126.32
  Z
  M 198.6384 109.0384
  A 4.75 2.34 -37.5 0 0 193.4455 110.0736
  A 4.75 2.34 -37.5 0 0 191.1016 114.8216
  A 4.75 2.34 -37.5 0 0 196.2945 113.7864
  A 4.75 2.34 -37.5 0 0 198.6384 109.0384
  Z
  M 201.58 117.53
  Q 200.60 118.60 201.41 119.64
  A 0.77 0.73 -28.0 0 0 202.24 119.87
  Q 204.07 119.29 204.04 117.25
  A 1.27 1.21 -69.5 0 0 203.67 116.38
  Q 202.64 115.37 202.10 116.72
  Q 201.91 117.16 201.58 117.53
  Z"
/>
<rect fill="#000000" x="-1.51" y="-3.44" transform="translate(155.66,67.61) rotate(39.9)" width="3.02" height="6.88" rx="1.40"/>
<path fill="#000000" d="
  M 142.42 66.01
  A 1.47 1.47 37.5 0 1 142.71 68.20
  Q 141.40 69.68 139.53 70.82
  C 137.93 71.80 135.95 74.42 134.50 71.00
  Q 133.96 69.73 136.25 66.75
  Q 138.71 63.54 142.42 66.01
  Z"
/>
<path fill="#000000" d="
  M 465.72 118.43
  A 1.10 1.09 -21.4 0 0 465.06 119.93
  C 466.51 123.08 465.52 125.17 461.89 125.20
  Q 452.60 125.29 442.43 125.24
  A 1.63 1.63 89.5 0 1 440.80 123.64
  Q 440.50 107.16 440.28 89.99
  C 440.25 87.63 440.57 83.24 440.11 80.05
  Q 439.71 77.25 442.54 77.25
  Q 453.94 77.25 465.21 77.25
  Q 475.76 77.25 479.57 78.85
  C 491.66 83.91 493.24 102.24 483.40 110.42
  A 1.14 1.10 -36.9 0 0 483.16 111.91
  L 490.64 123.04
  Q 491.92 124.95 489.71 124.98
  L 471.80 125.20
  A 1.15 1.06 67.5 0 1 470.98 124.82
  C 470.17 123.91 466.51 118.19 465.72 118.43
  Z
  M 465.19 85.51
  Q 465.21 94.28 465.25 103.57
  C 465.25 105.14 464.61 107.48 466.62 108.07
  C 473.29 110.01 471.06 92.96 471.01 89.99
  C 470.96 87.03 471.13 85.10 468.05 83.68
  Q 465.18 82.36 465.19 85.51
  Z"
/>
<path fill="#000000" d="
  M 518.12 125.78
  C 511.60 125.47 505.07 125.83 498.53 125.50
  A 1.02 1.02 2.3 0 1 497.56 124.45
  C 497.76 118.53 498.97 107.88 496.71 102.55
  Q 491.78 90.89 487.33 79.83
  Q 486.51 77.78 488.73 77.75
  L 511.19 77.49
  Q 513.11 77.47 513.80 79.13
  L 518.11 89.42
  Q 519.31 92.28 520.43 89.45
  Q 522.22 84.94 524.18 80.52
  C 525.62 77.27 527.80 76.05 531.06 77.75
  A 0.65 0.62 -69.2 0 1 531.37 78.48
  Q 528.21 89.89 523.56 100.77
  C 521.20 106.30 522.46 118.20 522.32 124.57
  A 0.73 0.71 81.4 0 1 521.84 125.24
  Q 520.02 125.87 518.12 125.78
  Z"
/>
<path fill="#000000" d="
  M 240.32 122.21
  C 231.64 115.44 230.04 102.32 233.62 92.71
  C 238.54 79.53 252.15 75.38 265.31 78.69
  Q 268.21 79.41 267.63 82.02
  Q 267.52 82.50 267.67 82.97
  Q 268.36 85.26 266.24 85.68
  A 1.53 1.07 45.4 0 1 265.32 85.51
  C 260.13 82.74 255.89 88.11 256.13 92.98
  C 256.46 99.69 255.29 110.02 256.56 115.06
  Q 258.09 121.15 266.00 121.00
  Q 268.74 120.95 268.74 122.90
  C 268.75 127.26 268.62 127.28 264.38 127.66
  C 256.61 128.36 246.77 127.24 240.32 122.21
  Z"
/>
<path fill="#000000" d="
  M 429.17 79.78
  C 429.23 76.67 430.81 77.61 433.05 77.36
  Q 434.92 77.15 436.36 78.19
  A 1.06 0.94 -74.8 0 1 436.76 79.00
  C 436.98 90.89 436.62 102.92 437.14 114.77
  C 437.75 128.80 417.43 127.28 408.43 125.84
  Q 396.35 123.90 396.75 111.50
  Q 396.98 104.28 396.52 82.03
  C 396.43 77.70 396.44 78.34 400.44 78.22
  Q 408.87 77.99 417.30 77.77
  C 421.63 77.66 421.18 77.86 421.27 81.87
  Q 421.61 96.98 421.74 112.09
  C 421.77 115.56 421.50 118.11 425.51 119.14
  A 1.31 1.26 37.1 0 0 426.45 119.03
  Q 429.96 117.19 429.50 112.50
  Q 428.66 103.93 429.17 79.78
  Z"
/>
<path fill="#000000" d="
  M 354.69 79.17
  A 0.91 0.90 -82.7 0 1 355.55 78.50
  L 392.47 78.07
  A 1.55 1.54 84.5 0 1 394.01 79.35
  Q 395.05 85.39 390.89 84.91
  C 387.00 84.47 386.78 85.12 386.82 88.84
  Q 387.04 106.64 386.94 124.43
  A 0.92 0.85 75.7 0 1 386.52 125.20
  C 384.45 126.38 382.25 125.97 380.24 126.06
  Q 371.76 126.46 363.61 126.02
  A 1.39 1.36 1.1 0 1 362.30 124.68
  L 361.69 87.33
  Q 361.64 84.59 358.98 85.07
  C 353.50 86.07 353.82 82.49 354.69 79.17
  Z"
/>
<path fill="#000000" d="
  M 349.03 78.30
  C 353.16 77.17 352.66 80.20 352.74 83.04
  Q 353.20 99.02 352.62 115.00
  Q 352.48 119.12 352.81 124.15
  Q 352.95 126.25 350.84 126.25
  L 339.07 126.25
  A 2.30 2.29 67.3 0 1 337.46 125.59
  L 319.68 107.93
  Q 317.75 106.01 317.75 108.74
  Q 317.75 116.45 317.75 124.15
  C 317.75 126.47 317.24 127.22 314.78 126.64
  Q 314.11 126.48 313.41 126.55
  C 309.25 126.98 310.02 124.32 309.99 121.52
  Q 309.82 100.66 309.75 80.76
  Q 309.75 78.76 311.81 78.73
  L 323.95 78.55
  Q 325.89 78.52 327.12 79.75
  Q 335.47 88.07 343.23 96.81
  C 343.84 97.50 344.99 97.57 345.00 96.38
  Q 345.13 86.73 344.75 81.75
  Q 344.44 77.67 348.08 78.33
  Q 348.57 78.42 349.03 78.30
  Z"
/>
<path fill="#000000" d="
  M 271.35 80.35
  Q 271.93 79.27 273.01 79.25
  Q 289.22 78.84 305.14 78.57
  A 1.57 1.35 -88.4 0 1 306.50 80.24
  L 306.25 84.04
  A 1.28 1.04 -88.9 0 1 305.24 85.23
  L 297.75 85.56
  A 1.87 1.82 -1.6 0 0 295.96 87.40
  L 296.07 96.12
  Q 296.10 98.12 298.15 98.10
  L 304.13 98.03
  A 1.80 1.51 86.3 0 1 305.67 99.65
  L 306.00 102.75
  Q 306.27 105.25 302.75 105.25
  L 297.58 105.25
  A 1.58 1.47 -89.8 0 0 296.11 106.82
  L 296.08 118.64
  A 1.13 1.06 -86.2 0 0 296.99 119.75
  Q 300.49 120.23 303.98 119.64
  Q 308.34 118.91 307.17 124.95
  A 1.85 1.84 -84.7 0 1 305.37 126.45
  L 273.24 126.68
  A 1.86 1.82 89.4 0 1 271.40 124.84
  L 271.08 81.51
  Q 271.07 80.86 271.35 80.35
  Z"
/>
<path fill="#000000" d="
  M 531.05 141.52
  C 538.08 132.91 549.17 131.44 559.50 133.75
  Q 560.46 133.96 561.25 137.25
  C 562.48 142.35 558.54 139.92 556.58 139.86
  C 551.35 139.68 550.29 143.78 550.14 148.34
  Q 549.85 157.29 550.04 166.25
  Q 550.24 175.66 560.02 174.98
  A 1.84 1.83 81.0 0 1 561.93 176.38
  Q 562.53 178.87 562.13 180.54
  A 1.56 1.55 -84.3 0 1 560.69 181.72
  Q 554.75 181.99 549.51 181.64
  Q 528.83 180.26 525.75 160.25
  Q 524.16 149.95 531.05 141.52
  Z"
/>
<path fill="#000000" d="
  M 400.69 141.69
  C 407.51 133.14 421.33 131.86 431.16 133.88
  C 458.19 139.43 455.51 178.08 427.94 181.69
  C 412.99 183.64 399.07 178.09 395.53 162.15
  Q 393.09 151.21 400.69 141.69
  Z
  M 420.12 140.93
  A 3.43 3.42 -27.7 0 0 419.51 142.88
  Q 419.47 158.24 419.67 171.46
  C 419.70 173.63 420.61 175.11 422.75 175.45
  A 1.34 1.31 -56.6 0 0 423.68 175.25
  C 426.11 173.70 425.21 171.84 425.30 169.62
  Q 425.83 156.70 425.60 143.78
  C 425.55 140.74 423.07 136.68 420.12 140.93
  Z"
/>
<path fill="#000000" d="
  M 564.31 177.21
  Q 563.40 173.34 567.76 174.00
  Q 569.60 174.28 571.29 173.48
  Q 574.42 172.00 573.19 168.68
  C 570.04 160.15 564.02 150.44 564.00 141.24
  A 4.24 4.23 64.4 0 1 564.93 138.59
  C 567.64 135.21 570.63 133.84 575.17 133.48
  Q 587.13 132.54 596.44 134.31
  Q 598.74 134.75 597.92 137.28
  Q 597.77 137.76 597.82 138.25
  C 598.42 143.83 592.02 138.77 589.01 142.33
  A 1.83 1.83 53.0 0 0 588.74 144.26
  Q 592.35 152.38 596.41 160.07
  C 601.93 170.51 599.29 181.08 586.19 182.01
  Q 575.28 182.79 565.94 181.31
  Q 563.35 180.90 564.26 178.16
  A 1.82 1.66 -44.6 0 0 564.31 177.21
  Z"
/>
<rect fill="#000000" x="-12.40" y="-23.75" transform="translate(510.13,157.49) rotate(0.1)" width="24.80" height="47.50" rx="1.45"/>
<path fill="#000000" d="
  M 263.50 159.75
  C 261.82 140.76 279.49 129.44 296.78 134.71
  Q 298.40 135.20 298.68 136.87
  Q 299.72 143.02 295.95 141.37
  C 284.75 136.48 287.47 162.30 287.63 166.80
  C 287.81 172.21 289.61 175.48 295.11 176.16
  C 296.85 176.38 299.68 175.35 299.87 178.23
  C 300.00 180.23 300.18 183.04 297.45 183.07
  C 292.06 183.13 287.25 183.52 282.44 182.31
  Q 265.11 177.95 263.50 159.75
  Z"
/>
<path fill="#000000" d="
  M 452.36 134.68
  C 453.31 133.31 463.35 133.72 465.70 133.80
  Q 467.49 133.86 468.76 135.13
  L 484.80 151.18
  Q 486.96 153.34 486.98 150.31
  L 487.07 135.04
  A 1.30 1.27 -89.8 0 1 488.34 133.75
  L 493.02 133.75
  A 1.55 1.55 89.4 0 1 494.57 135.27
  Q 494.98 156.36 494.58 177.78
  C 494.50 181.59 494.32 181.42 490.50 181.52
  Q 485.62 181.65 480.75 181.29
  A 1.40 1.33 -19.2 0 1 479.89 180.90
  L 461.64 162.55
  Q 459.64 160.53 459.68 163.36
  Q 459.79 170.63 459.75 177.50
  C 459.73 181.97 459.02 181.82 454.87 181.67
  Q 453.51 181.62 452.57 180.63
  A 1.32 1.18 -69.0 0 1 452.24 179.76
  L 451.76 136.62
  A 3.53 3.26 -30.0 0 1 452.36 134.68
  Z"
/>
<path fill="#000000" d="
  M 151.58 134.86
  C 163.43 133.70 172.16 135.05 182.36 134.33
  Q 185.75 134.09 185.32 138.00
  Q 185.27 138.45 185.42 138.97
  Q 185.84 140.43 184.67 141.25
  A 1.54 0.49 4.2 0 1 183.75 141.47
  L 175.94 141.85
  A 0.76 0.66 -83.9 0 0 175.32 142.43
  Q 174.22 147.02 174.98 151.70
  A 0.96 0.93 -82.4 0 0 175.51 152.41
  Q 178.65 153.87 182.06 152.81
  Q 184.75 151.98 184.75 155.00
  L 184.75 158.32
  Q 184.75 160.25 182.82 160.25
  L 175.95 160.25
  A 1.25 1.19 -89.5 0 0 174.76 161.48
  L 174.52 173.25
  A 1.69 1.52 89.9 0 0 176.08 174.98
  L 184.50 174.75
  A 1.48 1.37 6.6 0 1 186.00 176.50
  Q 185.45 178.38 186.00 180.27
  Q 186.58 182.21 184.55 182.18
  Q 168.84 181.96 152.55 182.05
  C 148.19 182.08 149.78 180.02 149.73 177.18
  Q 149.34 156.34 150.47 136.02
  A 1.24 1.23 88.9 0 1 151.58 134.86
  Z"
/>
<path fill="#000000" d="
  M 223.46 175.76
  Q 224.36 176.64 223.93 178.03
  A 1.69 1.46 -48.6 0 0 223.92 178.97
  C 224.73 181.58 223.25 182.45 220.90 182.42
  Q 205.19 182.25 189.42 182.00
  A 1.63 1.61 1.1 0 1 187.82 180.36
  L 188.55 136.50
  Q 188.58 134.59 190.53 134.57
  L 211.11 134.33
  Q 213.25 134.30 213.24 136.39
  L 213.07 173.51
  A 1.73 1.71 -89.2 0 0 214.74 175.25
  L 222.56 175.43
  A 1.45 1.06 -16.1 0 1 223.46 175.76
  Z"
/>
<path fill="#000000" d="
  M 252.20 174.96
  Q 255.81 175.18 259.71 175.10
  C 261.80 175.05 263.03 175.79 262.41 178.03
  Q 262.27 178.53 262.33 178.99
  C 262.86 182.94 260.25 182.28 257.61 182.23
  Q 243.88 182.00 230.15 181.77
  C 226.52 181.70 226.01 182.36 226.07 178.22
  Q 226.41 157.00 226.50 136.44
  Q 226.51 134.48 228.44 134.47
  L 260.18 134.30
  A 1.02 0.89 -14.8 0 1 260.99 134.70
  Q 261.84 135.91 261.60 137.50
  Q 261.53 137.99 261.64 138.47
  Q 262.02 140.09 260.84 141.13
  A 1.44 1.28 21.9 0 1 259.94 141.45
  L 252.50 141.47
  A 0.97 0.91 0.6 0 0 251.54 142.35
  L 251.25 151.08
  Q 251.18 153.00 253.13 153.37
  C 255.44 153.81 261.63 151.71 261.00 155.77
  Q 260.81 156.95 261.08 158.11
  C 261.84 161.34 254.35 160.25 252.52 160.25
  A 1.27 1.27 0.0 0 0 251.25 161.52
  L 251.25 173.95
  A 1.01 1.01 1.8 0 0 252.20 174.96
  Z"
/>
<path fill="#000000" d="
  M 301.44 138.67
  Q 301.69 137.32 301.45 135.97
  C 301.21 134.67 302.45 134.31 303.53 134.33
  Q 320.00 134.63 336.48 134.51
  C 338.57 134.49 340.79 133.87 341.07 136.63
  C 341.41 139.99 341.95 142.70 336.78 141.66
  Q 333.74 141.04 333.73 144.10
  L 333.51 180.71
  A 1.55 1.49 -89.4 0 1 332.00 182.25
  L 309.76 182.01
  A 1.22 1.20 -89.5 0 1 308.57 180.78
  Q 308.70 163.77 308.75 146.37
  C 308.75 143.96 309.40 141.10 305.91 141.46
  C 303.33 141.73 300.76 142.31 301.44 138.67
  Z"
/>
<path fill="#000000" d="
  M 386.60 167.18
  A 1.80 1.79 -39.8 0 0 386.40 169.32
  L 393.54 180.83
  Q 394.42 182.26 392.76 182.25
  L 374.56 182.19
  A 1.29 1.25 -23.0 0 1 373.70 181.86
  C 373.04 181.24 367.65 171.99 367.93 176.97
  C 368.11 180.14 369.01 182.94 364.34 182.60
  C 357.76 182.11 351.05 182.20 344.54 182.19
  A 1.04 1.03 0.0 0 1 343.50 181.16
  L 343.50 136.41
  Q 343.50 134.50 345.41 134.50
  C 352.49 134.50 359.15 134.50 366.33 134.25
  C 376.85 133.88 389.34 136.68 392.23 148.40
  Q 394.66 158.25 386.60 167.18
  Z
  M 368.00 143.00
  C 368.04 149.39 368.27 155.97 367.89 162.34
  C 367.57 167.58 374.25 164.09 374.25 159.50
  C 374.25 155.25 374.88 149.35 374.24 145.29
  C 373.86 142.90 370.50 139.52 368.30 142.11
  A 1.48 1.16 70.5 0 0 368.00 143.00
  Z"
/>
<path fill="#000000" d="
  M 481.17 201.48
  C 478.86 209.78 482.97 220.81 493.24 218.69
  Q 499.14 217.48 500.26 211.50
  C 501.05 207.30 495.09 208.79 492.57 208.71
  A 1.59 1.20 -17.4 0 1 491.67 208.39
  Q 490.06 207.01 491.66 205.63
  A 1.54 1.03 15.5 0 1 492.56 205.33
  L 502.90 205.07
  A 1.83 1.75 -1.0 0 1 504.77 206.80
  L 504.92 220.43
  A 1.43 0.98 74.2 0 1 504.62 221.32
  Q 502.82 223.21 501.19 219.56
  A 1.10 1.10 -34.5 0 0 499.40 219.23
  Q 495.52 223.14 490.07 222.70
  C 470.46 221.11 472.28 186.93 494.75 190.50
  Q 501.37 191.55 503.84 198.53
  A 0.81 0.81 57.8 0 1 503.65 199.37
  Q 501.24 201.76 499.56 198.69
  C 494.69 189.73 483.62 192.66 481.17 201.48
  Z"
/>
<path fill="#000000" d="
  M 317.48 222.21
  C 298.77 217.48 304.17 186.69 324.75 190.75
  C 343.63 194.47 338.37 227.49 317.48 222.21
  Z
  M 317.45 194.46
  C 307.02 197.89 307.72 218.34 320.35 219.07
  C 337.74 220.06 335.38 188.56 317.45 194.46
  Z"
/>
<path fill="#000000" d="
  M 410.53 208.06
  Q 410.31 211.40 410.50 219.00
  Q 410.64 224.67 406.45 221.26
  A 1.10 0.98 -72.9 0 1 406.07 220.43
  L 406.01 192.25
  A 1.28 0.98 73.5 0 1 406.34 191.39
  Q 407.72 190.09 409.49 190.85
  A 0.89 0.80 -83.8 0 1 410.00 191.56
  Q 410.64 196.89 410.03 201.97
  Q 409.81 203.89 411.74 204.00
  Q 418.48 204.39 425.20 203.69
  A 1.44 1.37 87.1 0 0 426.43 202.26
  L 426.42 192.19
  A 1.31 1.28 66.8 0 1 426.76 191.31
  Q 428.59 189.30 430.38 191.42
  A 1.45 1.23 -69.0 0 1 430.69 192.31
  Q 430.68 205.53 431.07 218.75
  Q 431.22 223.81 427.12 221.56
  A 0.93 0.89 -77.8 0 1 426.66 220.81
  Q 426.18 212.67 426.50 210.50
  C 427.15 206.13 424.38 207.28 421.88 207.21
  Q 416.46 207.07 411.06 207.52
  A 0.58 0.58 -0.6 0 0 410.53 208.06
  Z"
/>
<path fill="#000000" d="
  M 435.69 191.17
  A 0.63 0.60 -0.4 0 1 436.32 190.56
  L 456.76 190.52
  A 1.40 1.05 -17.6 0 1 457.64 190.83
  C 459.93 192.93 457.58 194.25 455.57 194.24
  Q 447.99 194.21 441.07 194.30
  A 1.09 1.09 -0.5 0 0 440.00 195.39
  L 440.00 202.28
  A 1.76 1.75 -87.3 0 0 441.59 204.03
  Q 448.23 204.65 455.18 203.87
  A 1.05 0.98 -23.8 0 1 456.04 204.17
  Q 458.75 207.03 454.25 207.13
  Q 448.38 207.25 441.77 207.25
  Q 439.88 207.25 439.90 209.19
  L 440.00 216.07
  A 1.72 1.61 89.8 0 0 441.60 217.77
  L 457.43 217.83
  A 1.12 0.94 -16.0 0 1 458.26 218.20
  C 460.98 221.65 457.29 221.75 455.19 221.75
  Q 447.22 221.76 439.25 221.87
  Q 435.40 221.93 435.64 218.37
  C 436.25 209.49 435.75 200.10 435.69 191.17
  Z"
/>
<path fill="#000000" d="
  M 520.25 191.51
  A 1.42 1.37 -88.0 0 1 521.17 190.62
  Q 524.85 189.48 526.11 193.09
  Q 530.74 206.32 536.74 220.18
  A 1.36 1.35 -17.7 0 1 535.77 222.05
  C 531.00 223.03 530.75 216.45 529.19 213.45
  A 2.18 2.16 72.9 0 0 527.04 212.30
  C 524.52 212.58 518.08 211.76 516.61 213.58
  C 515.54 214.91 513.84 225.91 510.05 221.40
  A 0.94 0.81 -57.8 0 1 509.92 220.53
  L 520.25 191.51
  Z
  M 521.94 196.44
  L 518.43 207.20
  A 1.52 1.33 -80.7 0 0 519.67 209.19
  L 525.62 208.99
  Q 527.83 208.91 527.03 206.65
  L 523.44 196.56
  Q 522.63 194.30 521.94 196.44
  Z"
/>
<path fill="#000000" d="
  M 545.49 200.09
  Q 545.23 200.03 544.98 200.10
  A 0.73 0.54 82.9 0 0 544.59 200.79
  L 545.43 220.69
  A 1.36 1.27 65.4 0 1 545.13 221.59
  Q 543.46 223.56 541.64 221.58
  A 1.41 1.16 -70.2 0 1 541.32 220.69
  L 540.93 192.58
  A 1.68 1.63 77.8 0 1 541.89 191.05
  Q 545.87 189.23 547.52 193.61
  Q 551.41 203.99 555.30 213.95
  Q 556.11 216.05 556.93 213.95
  Q 561.29 202.77 565.56 191.56
  Q 565.94 190.56 567.26 190.68
  Q 567.77 190.72 568.22 190.57
  C 570.66 189.78 571.44 191.41 571.43 193.53
  Q 571.41 206.74 571.68 219.94
  A 1.09 1.07 69.3 0 1 571.31 220.78
  C 567.57 224.09 567.25 219.89 567.25 217.52
  Q 567.25 209.02 567.25 200.52
  C 567.25 198.82 566.09 198.76 565.54 200.36
  Q 562.26 210.05 558.68 219.63
  C 557.20 223.58 554.96 222.71 553.64 219.36
  Q 549.97 210.04 546.13 200.78
  A 1.19 0.70 77.6 0 0 545.49 200.09
  Z"
/>
<path fill="#000000" d="
  M 600.00 219.06
  L 600.00 220.56
  C 599.01 222.08 598.07 221.50 596.64 221.50
  Q 587.93 221.46 578.06 221.58
  A 1.26 1.24 -0.7 0 1 576.79 220.36
  L 576.50 191.19
  A 0.69 0.68 1.2 0 1 577.23 190.50
  Q 587.37 191.08 597.51 190.64
  Q 599.63 190.54 599.24 192.83
  A 1.72 1.72 -85.0 0 1 597.55 194.25
  L 582.01 194.25
  A 1.26 1.26 0.0 0 0 580.75 195.51
  L 580.75 201.87
  Q 580.75 203.86 582.73 204.00
  Q 589.49 204.48 596.15 203.57
  A 1.64 1.64 86.5 0 1 598.01 205.22
  Q 597.96 207.63 595.75 207.25
  C 593.31 206.83 588.10 207.60 583.06 207.18
  C 579.94 206.92 580.96 214.99 581.20 216.43
  A 1.57 1.57 -4.3 0 0 582.74 217.75
  Q 589.28 217.79 595.82 217.70
  C 597.55 217.67 599.04 216.73 600.00 219.06
  Z"
/>
<path fill="#000000" d="
  M 192.69 204.55
  C 196.12 204.24 201.66 206.14 201.15 200.51
  C 200.91 197.86 199.60 187.67 204.61 191.44
  A 1.09 1.00 -74.4 0 1 205.02 192.25
  Q 205.58 205.06 205.51 217.88
  C 205.49 220.22 206.67 223.36 202.30 222.18
  A 1.73 1.64 -82.3 0 1 201.08 220.49
  L 201.24 209.63
  Q 201.27 207.42 198.88 207.47
  L 186.74 207.75
  A 1.76 1.75 -1.3 0 0 185.02 209.54
  L 185.24 220.88
  A 1.66 1.58 -5.1 0 1 183.83 222.49
  C 180.25 223.03 180.75 220.91 180.75 218.49
  Q 180.75 207.14 180.97 195.78
  C 181.01 194.19 179.88 190.85 183.01 190.82
  Q 184.89 190.80 184.92 192.64
  L 185.08 202.61
  Q 185.11 204.75 187.16 204.57
  C 189.09 204.41 191.07 204.69 192.69 204.55
  Z"
/>
<path fill="#000000" d="
  M 215.53 207.94
  Q 214.24 208.61 214.28 210.48
  L 214.39 215.76
  Q 214.45 218.24 216.45 218.25
  L 231.94 218.30
  A 1.08 0.97 -16.2 0 1 232.75 218.69
  C 234.45 220.93 232.66 222.19 230.47 222.18
  Q 221.04 222.18 211.92 222.43
  A 1.70 1.69 89.2 0 1 210.18 220.73
  L 210.25 192.09
  A 1.04 1.01 -0.3 0 1 211.28 191.08
  L 230.69 190.84
  A 1.26 1.01 -18.7 0 1 231.54 191.15
  C 234.77 194.39 230.60 194.50 228.77 194.50
  Q 222.59 194.50 215.93 194.50
  A 1.68 1.68 0.0 0 0 214.25 196.18
  L 214.25 202.63
  A 1.84 1.84 0.6 0 0 216.05 204.47
  Q 222.79 204.62 228.54 204.37
  C 230.45 204.28 232.10 205.29 230.74 207.29
  A 1.03 0.91 14.6 0 1 229.94 207.70
  C 227.42 207.73 217.11 207.11 215.53 207.94
  Z"
/>
<path fill="#000000" d="
  M 266.44 191.82
  A 1.07 1.06 89.5 0 1 267.48 190.75
  Q 273.13 190.66 278.76 190.83
  C 296.11 191.38 295.54 222.56 277.25 221.82
  Q 273.23 221.66 269.23 222.25
  Q 266.31 222.68 266.33 219.72
  L 266.44 191.82
  Z
  M 270.45 195.75
  L 270.75 216.75
  A 1.27 1.26 90.0 0 0 271.99 218.00
  C 279.53 218.14 287.15 217.96 286.75 207.93
  Q 286.69 206.45 286.81 204.97
  Q 287.29 199.21 283.39 196.00
  C 280.56 193.67 275.63 194.24 271.91 194.25
  A 1.48 1.47 89.4 0 0 270.45 195.75
  Z"
/>
<path fill="#000000" d="
  M 340.93 191.45
  C 341.73 190.17 342.73 190.99 343.65 191.04
  Q 352.04 191.52 360.45 191.09
  A 1.00 0.95 -20.9 0 1 361.26 191.43
  Q 364.11 194.78 359.00 194.67
  Q 352.47 194.53 345.94 194.44
  A 0.75 0.72 10.3 0 0 345.25 194.90
  Q 343.75 198.80 344.74 202.97
  A 1.91 1.85 83.1 0 0 346.55 204.44
  L 357.55 204.40
  A 1.63 1.55 -9.9 0 1 359.05 205.40
  Q 359.83 207.46 357.74 207.54
  Q 351.75 207.75 345.73 207.75
  A 1.01 1.00 3.2 0 0 344.73 208.64
  Q 344.15 214.00 344.87 219.48
  Q 345.19 221.98 342.60 222.27
  Q 340.43 222.51 340.44 220.33
  L 340.56 192.72
  A 2.37 2.35 61.4 0 1 340.93 191.45
  Z"
/>
<path fill="#000000" d="
  M 386.70 194.47
  C 384.14 194.04 376.57 195.95 377.38 191.98
  A 1.19 1.18 -84.4 0 1 378.54 191.02
  L 400.57 190.94
  A 1.21 1.06 -19.7 0 1 401.43 191.28
  Q 402.72 192.62 401.32 193.88
  A 1.41 1.11 18.9 0 1 400.44 194.19
  L 393.57 194.30
  Q 391.67 194.33 391.71 196.23
  L 392.18 220.69
  A 1.16 1.02 71.0 0 1 391.83 221.54
  Q 389.92 223.30 388.08 221.37
  A 1.31 1.09 -70.2 0 1 387.76 220.49
  Q 388.05 207.76 387.22 195.05
  A 0.64 0.63 3.6 0 0 386.70 194.47
  Z"
/>
<path fill="#000000" d="
  M 167.62 213.35
  L 159.07 213.56
  A 2.41 2.34 7.7 0 0 156.84 215.21
  C 155.85 218.40 155.74 223.61 150.94 222.51
  A 1.05 1.05 21.1 0 1 150.26 220.98
  Q 151.77 218.25 152.76 215.25
  Q 156.61 203.64 161.13 192.28
  A 1.26 1.13 -88.8 0 1 161.76 191.61
  Q 165.55 190.02 166.94 194.06
  Q 171.58 207.54 176.85 220.77
  Q 177.70 222.91 174.17 222.32
  Q 172.49 222.04 171.97 220.50
  L 170.11 215.07
  Q 169.51 213.30 167.62 213.35
  Z
  M 159.37 209.81
  L 166.58 209.76
  A 1.31 1.27 79.7 0 0 167.75 208.01
  L 163.97 197.43
  Q 163.21 195.29 162.49 197.52
  L 158.81 208.95
  A 0.66 0.61 -80.3 0 0 159.37 209.81
  Z"
/>
<path fill="#000000" d="
  M 250.05 191.35
  A 2.91 2.90 89.5 0 1 251.88 193.16
  Q 256.61 206.83 262.31 219.94
  Q 263.55 222.77 260.06 222.44
  C 256.57 222.10 256.46 216.16 254.26 213.44
  A 1.11 0.91 -16.9 0 0 253.44 213.10
  L 244.64 213.21
  Q 242.60 213.24 242.18 214.80
  L 240.61 220.64
  Q 240.01 222.90 237.92 222.74
  C 233.88 222.44 236.20 220.07 236.81 218.43
  Q 241.68 205.43 246.15 192.29
  A 1.28 1.12 89.2 0 1 246.75 191.58
  Q 248.40 190.81 250.05 191.35
  Z
  M 244.25 208.85
  A 0.71 0.71 9.2 0 0 244.93 209.77
  L 252.54 209.73
  A 0.71 0.71 80.5 0 0 253.21 208.80
  L 249.34 197.17
  A 0.71 0.71 44.8 0 0 247.99 197.17
  L 244.25 208.85
  Z"
/>
</svg>
