<?xml version="1.0" encoding="UTF-8" standalone="no"?>
<!DOCTYPE svg PUBLIC "-//W3C//DTD SVG 1.1//EN" "http://www.w3.org/Graphics/SVG/1.1/DTD/svg11.dtd">
<svg xmlns="http://www.w3.org/2000/svg" version="1.1" viewBox="0.00 0.00 600.00 129.00">
<path fill="#000000" d="
  M 187.77 45.05
  C 183.85 60.54 168.03 69.08 153.30 69.12
  Q 57.89 69.38 49.82 69.19
  C 37.05 68.90 27.51 78.93 27.49 91.50
  Q 27.48 93.02 27.39 128.02
  A 0.59 0.59 0.0 0 1 26.80 128.61
  L 1.06 128.61
  A 0.37 0.36 0.8 0 1 0.69 128.24
  Q 0.73 109.92 0.62 100.52
  Q 0.46 86.45 2.02 80.63
  C 6.06 65.63 19.60 55.86 35.43 55.84
  Q 116.36 55.75 138.25 55.96
  C 149.21 56.07 160.84 50.10 162.06 38.05
  C 163.57 23.12 153.33 14.09 139.05 14.11
  Q 9.07 14.29 1.22 14.24
  Q 0.68 14.24 0.68 13.70
  L 0.68 1.02
  Q 0.68 0.41 1.30 0.41
  Q 123.79 0.37 154.99 0.45
  Q 164.50 0.47 174.25 6.27
  C 187.65 14.24 191.40 30.73 187.77 45.05
  Z"
/>
<path fill="#000000" d="
  M 182.12 129.00
  L 180.66 129.00
  L 180.52 115.41
  Q 180.52 114.89 181.04 114.89
  Q 208.64 114.93 247.50 114.88
  C 260.36 114.87 267.78 104.64 267.78 92.51
  Q 267.77 54.01 267.74 44.53
  Q 267.70 30.53 269.42 24.70
  C 273.12 12.18 282.59 4.77 295.22 1.47
  Q 299.54 0.34 308.90 0.38
  Q 312.55 0.40 382.66 0.40
  A 0.80 0.80 0.0 0 1 383.46 1.20
  L 383.46 13.52
  A 0.64 0.63 0.0 0 1 382.82 14.15
  Q 353.58 14.19 318.33 14.21
  Q 311.75 14.22 308.78 15.24
  C 302.60 17.38 298.09 22.40 296.06 28.47
  Q 295.15 31.20 295.15 37.13
  Q 295.16 67.25 295.14 90.74
  Q 295.13 99.77 293.78 104.13
  C 288.94 119.82 273.92 129.00 257.75 128.91
  Q 219.93 128.71 182.12 129.00
  Z"
/>
<path fill="#000000" d="
  M 439.24 14.18
  Q 438.37 14.18 438.37 15.06
  Q 438.38 30.14 438.43 45.48
  Q 438.45 52.31 443.46 54.65
  Q 446.00 55.83 452.71 55.83
  Q 556.89 55.84 561.48 55.86
  Q 572.33 55.91 582.61 61.71
  C 598.04 70.41 602.39 86.39 598.48 102.65
  C 595.24 116.13 584.59 124.85 571.35 127.91
  Q 567.26 128.85 558.58 128.84
  Q 549.57 128.83 411.97 128.84
  A 0.77 0.77 0.0 0 1 411.20 128.07
  L 411.20 115.68
  A 0.79 0.79 0.0 0 1 411.99 114.89
  Q 498.69 114.97 549.54 114.86
  C 559.41 114.83 569.14 108.68 571.65 98.77
  Q 575.92 81.94 562.34 73.30
  C 555.57 68.99 548.53 69.21 539.46 69.21
  Q 486.62 69.22 433.80 69.20
  C 424.77 69.20 416.02 65.43 412.66 56.81
  Q 411.17 52.98 411.22 43.50
  Q 411.35 19.70 411.32 1.12
  Q 411.32 0.40 412.04 0.40
  L 593.95 0.40
  A 0.82 0.82 0.0 0 1 594.77 1.22
  L 594.77 13.34
  A 0.84 0.84 0.0 0 1 593.93 14.18
  L 439.24 14.18
  Z"
/>
</svg>
