<?xml version="1.0" encoding="UTF-8" standalone="no"?>
<!DOCTYPE svg PUBLIC "-//W3C//DTD SVG 1.1//EN" "http://www.w3.org/Graphics/SVG/1.1/DTD/svg11.dtd">
<svg xmlns="http://www.w3.org/2000/svg" version="1.1" viewBox="0 0 600 100">
<g stroke-width="2.00" fill="none" stroke-linecap="butt">
<path stroke="#d2e317" vector-effect="non-scaling-stroke" d="
  M 495.00 88.71
  Q 499.77 76.96 488.37 74.09"
/>
<path stroke="#92915d" vector-effect="non-scaling-stroke" d="
  M 450.50 51.49
  L 449.10 28.05"
/>
<path stroke="#bc2185" vector-effect="non-scaling-stroke" d="
  M 393.96 66.00
  L 395.92 75.34"
/>
<path stroke="#3b3e8a" vector-effect="non-scaling-stroke" d="
  M 326.71 90.25
  L 326.00 90.29"
/>
<path stroke="#3b3e8a" vector-effect="non-scaling-stroke" d="
  M 324.71 90.50
  L 324.04 90.50"
/>
</g>
<path fill="#00b3dd" d="
  M 568.81 0.00
  L 570.81 0.00
  C 586.16 1.66 596.19 13.89 596.78 28.94
  Q 597.54 48.41 583.46 61.90
  A 0.65 0.65 -38.5 0 0 583.36 62.70
  C 586.14 67.12 588.40 70.71 592.01 75.41
  Q 597.12 82.09 600.06 90.03
  L 600.00 91.06
  Q 599.52 97.39 593.94 100.00
  L 592.94 100.00
  Q 590.31 99.06 589.06 97.19
  Q 579.63 83.08 570.32 68.63
  A 1.14 1.00 -18.8 0 0 569.25 68.19
  L 562.34 69.23
  A 0.98 0.90 -4.4 0 0 561.50 70.13
  C 561.50 77.05 563.27 91.60 558.91 96.85
  C 554.75 101.85 549.62 100.03 549.44 93.38
  Q 548.53 59.67 548.76 25.17
  A 1.28 1.27 -67.3 0 0 548.40 24.28
  C 543.17 18.95 545.21 10.97 550.56 6.81
  Q 557.55 1.39 568.81 0.00
  Z
  M 571.50 49.75
  C 582.40 46.11 589.12 29.56 579.44 21.07
  C 575.23 17.38 568.45 16.49 562.86 18.72
  C 560.86 19.52 561.50 21.33 561.50 23.08
  Q 561.46 37.13 561.56 51.19
  A 0.46 0.45 -2.9 0 0 562.07 51.64
  Q 567.39 51.12 571.50 49.75
  Z"
/>
<path fill="#f9e52d" d="
  M 495.00 88.71
  Q 499.77 76.96 488.37 74.09
  C 483.36 53.89 486.03 30.36 498.50 13.25
  C 510.60 -3.36 531.04 -1.83 541.30 15.26
  C 549.35 28.68 548.90 49.37 544.76 64.00
  C 539.73 81.81 527.40 106.88 503.81 95.69
  Q 498.15 93.00 495.00 88.71
  Z
  M 511.75 81.29
  Q 513.85 82.17 516.00 81.46
  C 535.81 76.50 544.81 24.58 521.40 18.50
  C 503.93 13.97 498.40 46.02 498.32 57.25
  C 498.25 66.88 501.69 77.74 511.75 81.29
  Z"
/>
<path fill="#ff004f" d="
  M 393.96 66.00
  L 395.92 75.34
  C 390.78 87.71 378.81 103.09 363.23 95.28
  C 346.19 86.73 343.25 59.83 345.76 43.71
  Q 349.91 17.08 374.69 4.69
  C 381.37 1.34 387.06 1.83 391.77 7.83
  C 395.71 12.85 400.50 24.25 392.83 28.67
  C 387.72 31.61 385.38 24.44 383.68 21.05
  Q 382.82 19.33 381.04 20.07
  Q 355.95 30.59 357.65 58.51
  Q 358.10 65.92 361.45 72.53
  C 364.66 78.88 372.35 83.17 378.34 77.18
  Q 381.70 73.81 383.57 69.32
  C 385.44 64.81 389.67 61.68 393.96 66.00
  Z"
/>
<path fill="#3b3e8a" d="
  M 44.71 79.75
  Q 43.96 85.63 45.00 81.29
  L 66.49 6.50
  A 0.81 0.75 -81.2 0 1 67.22 5.92
  L 80.70 5.92
  A 0.78 0.73 86.5 0 1 81.43 6.61
  Q 85.18 40.52 88.70 73.82
  Q 88.75 74.28 88.83 74.67
  Q 89.68 78.96 89.97 74.44
  Q 90.00 73.98 90.10 73.55
  Q 97.29 39.96 104.14 7.15
  A 1.28 1.27 2.2 0 1 105.24 6.14
  Q 111.24 5.42 115.70 5.99
  A 0.65 0.64 0.6 0 1 116.25 6.55
  C 116.79 10.81 121.82 53.56 122.20 53.65
  A 0.51 0.43 -80.0 0 0 122.74 53.20
  Q 122.90 51.89 123.44 49.94
  Q 129.44 28.19 135.40 6.58
  A 1.13 1.12 -82.2 0 1 136.48 5.75
  L 149.13 5.75
  A 0.86 0.85 -0.7 0 1 149.99 6.58
  L 152.43 94.05
  A 0.93 0.93 89.4 0 1 151.50 95.00
  L 141.31 95.00
  A 0.81 0.81 89.3 0 1 140.50 94.21
  L 139.01 42.50
  A 0.69 0.54 -87.8 0 0 138.53 41.84
  C 138.25 41.80 124.89 89.58 123.57 94.21
  A 0.78 0.77 2.8 0 1 122.94 94.77
  Q 119.33 95.34 115.80 94.83
  A 0.66 0.64 -89.5 0 1 115.25 94.26
  Q 112.52 70.33 108.76 46.55
  Q 108.69 46.05 108.58 46.56
  L 98.65 94.13
  A 1.09 1.08 -84.1 0 1 97.59 95.00
  L 79.08 95.00
  A 1.13 1.08 86.4 0 1 78.00 94.01
  L 75.07 69.00
  A 0.60 0.56 86.6 0 0 74.51 68.47
  L 62.00 68.28
  A 0.90 0.85 -81.1 0 0 61.16 68.93
  L 53.77 94.18
  A 1.15 1.14 8.1 0 1 52.67 95.00
  L 42.07 95.00
  A 0.78 0.76 8.5 0 1 41.32 94.01
  L 42.53 90.13
  Q 43.03 88.53 41.77 89.61
  C 29.47 100.21 15.10 96.34 6.56 83.44
  Q 0.24 73.88 0.00 59.94
  L 0.23 53.26
  Q 0.03 27.07 18.44 11.68
  C 28.80 3.03 39.92 0.58 51.88 7.19
  A 0.80 0.79 17.2 0 1 52.28 7.94
  L 50.66 24.73
  A 0.37 0.37 17.2 0 1 50.11 25.02
  C 39.37 19.02 26.53 23.14 19.54 32.78
  Q 8.11 48.53 13.80 67.48
  C 16.14 75.28 23.27 80.65 31.49 76.90
  A 0.94 0.83 -10.9 0 0 32.03 76.20
  L 32.92 68.32
  A 0.51 0.45 3.8 0 0 32.43 67.82
  L 24.55 67.49
  A 0.50 0.48 -86.1 0 1 24.09 66.94
  L 25.58 51.87
  A 0.97 0.95 3.3 0 1 26.55 51.02
  L 47.06 51.17
  A 0.47 0.47 -86.6 0 1 47.52 51.69
  L 44.71 79.75
  Z
  M 70.65 35.33
  L 66.25 50.50
  A 0.39 0.37 -82.4 0 0 66.61 50.99
  L 72.69 50.95
  A 0.45 0.45 -3.4 0 0 73.14 50.45
  L 71.38 35.37
  Q 71.16 33.56 70.65 35.33
  Z"
/>
<path fill="#aae000" d="
  M 488.37 74.09
  Q 499.77 76.96 495.00 88.71
  Q 491.74 91.76 490.00 92.00
  Q 474.95 94.11 459.86 95.99
  C 451.83 96.99 451.94 83.98 451.78 79.25
  Q 451.29 65.36 450.50 51.49
  L 449.10 28.05
  C 448.97 22.92 447.86 10.78 450.27 6.57
  C 453.14 1.54 460.61 4.04 461.00 9.25
  Q 462.50 29.12 464.42 77.31
  A 0.48 0.47 86.5 0 0 464.93 77.77
  Q 476.71 76.72 488.37 74.09
  Z"
/>
<path fill="#7942ba" d="
  M 449.10 28.05
  L 450.50 51.49
  C 448.13 68.82 436.59 103.68 411.44 93.56
  Q 399.70 88.84 395.92 75.34
  L 393.96 66.00
  C 391.22 48.62 394.65 27.18 406.81 13.06
  C 412.41 6.57 421.33 3.04 429.72 5.39
  C 439.61 8.17 446.69 18.17 449.10 28.05
  Z
  M 421.45 20.28
  C 415.37 21.25 411.00 28.65 408.89 33.92
  C 404.09 45.93 401.44 64.60 410.80 75.17
  C 417.61 82.86 426.35 79.85 431.10 71.88
  Q 440.12 56.73 439.06 39.00
  C 438.52 29.91 432.19 18.56 421.45 20.28
  Z"
/>
<path fill="#3b3e8a" d="
  M 171.82 40.69
  L 188.68 40.81
  A 0.73 0.73 3.2 0 1 189.41 41.62
  L 187.62 59.08
  A 1.09 1.05 2.7 0 1 186.55 60.02
  L 169.94 60.17
  A 0.57 0.56 -87.2 0 0 169.38 60.68
  L 167.98 75.07
  A 0.47 0.46 3.4 0 0 168.44 75.58
  L 187.81 75.74
  A 0.71 0.69 2.9 0 1 188.52 76.50
  L 186.63 94.32
  A 0.57 0.57 3.4 0 1 186.06 94.82
  L 154.06 95.00
  A 0.61 0.59 -87.0 0 1 153.47 94.33
  L 162.69 6.17
  A 0.40 0.39 -86.7 0 1 163.08 5.81
  L 194.98 5.75
  A 0.57 0.57 3.1 0 1 195.55 6.38
  L 193.63 24.33
  A 0.57 0.57 3.4 0 1 193.06 24.83
  L 173.78 24.99
  A 0.97 0.94 3.0 0 0 172.82 25.83
  L 171.36 40.19
  A 0.46 0.45 2.8 0 0 171.82 40.69
  Z"
/>
<path fill="#3b3e8a" d="
  M 315.67 33.90
  Q 315.97 35.08 316.43 33.95
  L 327.74 6.40
  A 0.80 0.76 -78.8 0 1 328.44 5.91
  L 340.89 5.76
  A 0.52 0.51 -78.9 0 1 341.36 6.48
  L 320.67 56.40
  Q 320.16 57.64 320.03 58.96
  L 316.56 94.28
  A 0.80 0.79 -87.2 0 1 315.77 95.00
  L 305.47 95.00
  A 0.79 0.78 -87.0 0 1 304.69 94.13
  L 308.77 54.30
  Q 308.93 52.78 308.49 51.32
  L 295.09 6.50
  A 0.59 0.59 -8.1 0 1 295.66 5.75
  L 307.52 5.75
  A 1.35 1.34 82.8 0 1 308.82 6.77
  L 315.67 33.90
  Z"
/>
<path fill="#3b3e8a" d="
  M 273.6932 96.4603
  A 45.37 24.66 93.8 0 1 252.0942 49.5557
  A 45.37 24.66 93.8 0 1 279.7068 5.9197
  A 45.37 24.66 93.8 0 1 301.3058 52.8243
  A 45.37 24.66 93.8 0 1 273.6932 96.4603
  Z
  M 273.6846 78.9715
  A 28.00 12.46 96.1 0 0 289.0495 52.4541
  A 28.00 12.46 96.1 0 0 279.6354 23.2885
  A 28.00 12.46 96.1 0 0 264.2705 49.8059
  A 28.00 12.46 96.1 0 0 273.6846 78.9715
  Z"
/>
<path fill="#3b3e8a" d="
  M 244.26 49.66
  Q 255.22 67.13 244.47 85.01
  C 241.36 90.19 236.32 94.84 230.00 94.81
  Q 218.00 94.75 205.31 94.75
  A 0.62 0.62 2.9 0 1 204.69 94.07
  L 213.80 6.80
  A 0.55 0.53 -87.5 0 1 214.32 6.31
  C 220.43 6.17 234.67 4.93 239.81 7.68
  C 247.04 11.53 250.48 21.68 250.44 29.44
  Q 250.38 39.06 244.27 48.82
  A 0.81 0.77 -45.7 0 0 244.26 49.66
  Z
  M 234.76 26.14
  A 3.71 3.70 -24.7 0 0 232.35 25.25
  L 224.73 25.25
  A 0.66 0.65 3.5 0 0 224.08 25.82
  L 222.36 40.94
  A 0.53 0.52 6.8 0 0 222.82 41.51
  C 226.70 42.05 231.67 42.42 234.62 39.71
  C 238.04 36.56 238.47 29.32 234.76 26.14
  Z
  M 233.96 61.03
  C 230.66 58.99 224.99 59.75 221.27 59.75
  A 0.92 0.92 2.7 0 0 220.35 60.58
  L 218.70 76.80
  A 0.63 0.63 3.2 0 0 219.33 77.50
  Q 224.12 77.50 228.24 77.66
  C 236.01 77.97 238.81 69.73 236.24 63.68
  Q 235.52 62.00 233.96 61.03
  Z"
/>
<path fill="#3b3e8a" d="
  M 325.4969 96.2400
  A 6.62 4.41 90.2 0 1 321.1100 89.6046
  A 6.62 4.41 90.2 0 1 325.5431 83.0000
  A 6.62 4.41 90.2 0 1 329.9300 89.6354
  A 6.62 4.41 90.2 0 1 325.4969 96.2400
  Z
  M 325.4521 95.1297
  A 5.53 3.50 90.6 0 0 329.0098 89.6367
  A 5.53 3.50 90.6 0 0 325.5679 84.0703
  A 5.53 3.50 90.6 0 0 322.0102 89.5633
  A 5.53 3.50 90.6 0 0 325.4521 95.1297
  Z"
/>
<path fill="#3b3e8a" d="
  M 326.71 90.25
  L 326.00 90.29
  Q 325.26 90.04 324.71 90.50
  L 324.04 90.50
  L 324.20 86.54
  A 0.66 0.52 -1.9 0 1 324.81 86.02
  Q 329.07 85.80 326.71 90.25
  Z
  M 324.65 88.00
  A 0.88 0.88 2.5 0 0 325.56 88.99
  C 328.68 88.85 325.02 85.03 324.65 88.00
  Z"
/>
<path fill="#3b3e8a" d="
  M 326.00 90.29
  L 326.71 90.25
  L 327.08 92.19
  A 0.34 0.30 -87.7 0 1 326.70 92.59
  Q 325.46 92.19 326.00 90.29
  Z"
/>
<path fill="#3b3e8a" d="
  M 324.04 90.50
  L 324.71 90.50
  L 324.65 92.01
  A 0.73 0.45 88.4 0 1 324.27 92.67
  Q 323.16 92.88 324.04 90.50
  Z"
/>
</svg>
