<?xml version="1.0" encoding="UTF-8" standalone="no"?>
<!DOCTYPE svg PUBLIC "-//W3C//DTD SVG 1.1//EN" "http://www.w3.org/Graphics/SVG/1.1/DTD/svg11.dtd">
<svg xmlns="http://www.w3.org/2000/svg" version="1.1" viewBox="0 0 600 134">
<g stroke-width="2.00" fill="none" stroke-linecap="butt">
<path stroke="#808080" vector-effect="non-scaling-stroke" d="
  M 49.31 43.03
  C 58.28 42.48 66.32 43.64 73.75 42.75
  C 78.93 42.13 78.92 39.00 79.79 34.14
  Q 80.89 27.96 81.95 21.77
  C 82.87 16.36 79.86 14.52 74.77 14.48
  Q 53.57 14.30 32.90 14.31
  Q 31.76 14.31 32.41 15.28
  L 38.07 23.63
  A 2.41 2.37 33.2 0 1 38.45 25.37
  L 37.23 32.21
  A 0.69 0.66 5.0 0 1 36.56 32.75
  L 23.11 32.75
  A 1.85 1.74 -65.4 0 0 21.88 33.25
  L 12.93 41.70
  Q 11.57 42.97 13.40 42.96
  L 34.08 42.82
  A 0.57 0.55 5.0 0 1 34.65 43.47
  L 31.47 60.90
  Q 31.33 61.67 32.02 61.33
  L 46.49 54.40
  A 1.01 0.94 83.3 0 0 47.01 53.69
  L 48.71 43.56
  A 0.65 0.63 2.7 0 1 49.31 43.03"
/>
<path stroke="#808080" vector-effect="non-scaling-stroke" d="
  M 83.92 52.86
  Q 85.71 54.25 87.98 54.25
  L 122.19 54.25
  A 0.53 0.53 76.1 0 0 122.66 53.47
  Q 120.86 50.13 121.39 46.83
  Q 123.31 34.69 125.22 22.55
  C 126.00 17.55 123.68 14.56 118.42 14.44
  Q 103.05 14.10 87.66 14.24
  C 86.50 14.25 82.51 13.67 84.54 15.87
  Q 85.79 17.24 85.46 19.07
  Q 83.53 29.74 81.79 39.56
  C 80.72 45.57 79.42 49.34 83.92 52.86"
/>
<path stroke="#808080" vector-effect="non-scaling-stroke" d="
  M 124.43 45.24
  C 123.74 50.60 126.85 54.28 132.25 54.27
  Q 146.25 54.25 160.64 54.25
  A 0.31 0.31 -13.9 0 0 160.91 53.80
  L 156.21 44.94
  A 1.31 1.30 75.8 0 0 155.06 44.25
  Q 147.13 44.25 140.50 44.08
  Q 136.70 43.98 137.45 40.74
  C 138.54 36.05 139.19 31.28 140.15 26.73
  Q 140.62 24.50 142.90 24.50
  L 179.51 24.50
  A 2.01 1.88 -68.9 0 0 181.00 23.78
  L 187.83 15.51
  Q 188.84 14.29 187.27 14.32
  Q 165.59 14.81 143.50 14.19
  C 135.05 13.96 129.69 14.19 127.86 23.77
  Q 125.82 34.45 124.43 45.24"
/>
<path stroke="#808080" vector-effect="non-scaling-stroke" d="
  M 197.82 33.56
  L 214.25 15.21
  Q 215.18 14.18 213.76 14.19
  L 199.06 14.33
  A 1.16 0.97 16.9 0 0 198.23 14.68
  L 181.57 34.10
  A 0.70 0.69 -41.0 0 0 181.51 34.92
  L 193.78 53.77
  A 0.98 0.96 -16.1 0 0 194.57 54.20
  L 210.38 54.25
  Q 210.89 54.25 210.61 53.82
  L 197.74 34.49
  A 0.77 0.76 -40.6 0 1 197.82 33.56"
/>
<path stroke="#808080" vector-effect="non-scaling-stroke" d="
  M 227.31 38.31
  L 243.18 38.25
  A 0.85 0.80 12.2 0 0 243.93 37.80
  L 247.84 30.14
  A 0.32 0.32 14.3 0 0 247.56 29.67
  L 228.87 29.51
  A 0.75 0.71 -86.4 0 1 228.17 28.67
  L 228.56 25.19
  A 0.78 0.70 -86.3 0 1 229.26 24.50
  L 249.86 24.50
  A 0.98 0.94 -72.7 0 0 250.66 24.06
  L 256.62 14.85
  Q 256.97 14.31 256.33 14.31
  L 218.45 14.23
  A 0.96 0.93 3.0 0 0 217.50 15.06
  L 213.36 53.69
  A 0.46 0.45 2.8 0 0 213.82 54.19
  L 257.04 54.25
  Q 257.73 54.25 257.38 53.65
  L 252.19 44.75
  A 0.91 0.88 -14.1 0 0 251.43 44.31
  L 226.68 44.07
  A 0.49 0.46 3.1 0 1 226.19 43.56
  L 226.71 38.80
  A 0.61 0.54 2.6 0 1 227.31 38.31"
/>
<path stroke="#808080" vector-effect="non-scaling-stroke" d="
  M 270.09 25.05
  L 264.82 53.87
  Q 264.72 54.38 265.18 54.13
  L 278.49 46.96
  A 1.10 1.07 82.0 0 0 279.04 46.21
  L 282.78 25.07
  A 0.69 0.69 5.0 0 1 283.46 24.50
  L 296.47 24.50
  A 2.54 2.31 -67.3 0 0 298.27 23.66
  L 305.49 15.54
  Q 306.66 14.22 304.91 14.22
  L 260.06 14.32
  A 1.06 0.82 12.4 0 0 259.26 14.70
  L 253.25 23.81
  Q 252.95 24.26 253.50 24.27
  L 269.68 24.57
  A 0.42 0.41 5.2 0 1 270.09 25.05"
/>
<path stroke="#808080" vector-effect="non-scaling-stroke" d="
  M 376.84 90.44
  L 377.49 84.31
  A 0.56 0.56 2.8 0 1 378.05 83.81
  L 392.05 83.75
  A 0.76 0.73 -78.8 0 0 392.74 83.27
  L 394.80 77.95
  A 0.70 0.68 -79.0 0 0 394.18 77.00
  L 378.68 77.00
  A 0.50 0.46 3.1 0 1 378.18 76.49
  L 378.71 71.81
  A 0.61 0.55 2.6 0 1 379.31 71.31
  L 405.83 71.25
  A 0.64 0.63 -84.0 0 1 406.44 72.02
  L 403.60 85.37
  A 1.30 1.26 35.1 0 0 403.78 86.31
  L 413.04 100.76
  A 0.92 0.92 -16.0 0 0 413.82 101.19
  L 452.32 101.25
  A 0.66 0.64 -83.2 0 0 452.95 100.74
  C 455.85 88.57 465.85 84.30 475.31 80.04
  C 479.51 78.15 481.34 76.21 483.69 72.62
  Q 484.09 72.00 483.37 72.01
  L 469.67 72.18
  A 0.35 0.34 8.7 0 1 469.33 71.73
  C 475.44 54.58 488.97 45.66 506.46 42.88
  C 514.77 41.56 523.03 33.00 530.91 33.00
  Q 544.30 33.00 557.35 33.00
  A 3.67 3.49 -60.8 0 0 559.35 32.38
  L 584.71 15.39
  Q 586.41 14.25 584.37 14.25
  Q 550.88 14.25 517.96 14.25
  Q 515.25 14.25 512.75 15.28
  Q 503.51 19.07 494.27 22.87
  A 1.83 1.75 -82.2 0 0 493.51 23.47
  Q 479.39 42.56 465.38 61.73
  Q 463.30 64.57 460.50 66.69
  Q 447.87 76.25 435.10 85.64
  A 1.70 1.50 -60.3 0 1 434.20 85.95
  L 423.42 85.99
  A 1.62 1.47 -13.6 0 1 422.03 85.23
  L 419.20 80.20
  A 1.14 0.89 -52.0 0 1 419.20 79.29
  L 447.36 15.31
  A 0.75 0.75 12.0 0 0 446.67 14.25
  L 420.48 14.25
  A 0.86 0.85 -83.1 0 0 419.65 14.91
  L 408.59 60.34
  A 1.19 1.19 7.0 0 1 407.42 61.25
  Q 369.49 61.07 332.41 61.47
  C 323.95 61.56 323.80 66.70 322.71 74.17
  Q 320.37 90.23 320.25 93.50
  C 319.93 102.18 325.79 101.25 332.89 101.25
  Q 342.95 101.24 353.00 101.18
  C 359.71 101.15 361.89 97.33 362.88 91.05
  Q 364.04 83.73 364.53 76.01
  A 0.48 0.48 -88.3 0 0 364.05 75.50
  L 348.82 75.50
  A 1.31 1.21 -69.4 0 0 347.84 75.99
  L 342.65 82.44
  Q 341.80 83.50 343.17 83.52
  L 350.81 83.65
  A 0.53 0.52 -89.4 0 1 351.32 84.18
  C 351.31 89.65 349.94 90.97 344.61 91.01
  Q 340.08 91.04 335.55 90.94
  Q 333.51 90.89 333.76 88.91
  L 335.63 73.76
  Q 335.95 71.25 338.55 71.25
  L 366.77 71.25
  A 0.75 0.73 -87.1 0 1 367.49 72.07
  L 364.60 100.69
  A 0.46 0.45 2.8 0 0 365.06 101.19
  L 405.55 101.25
  Q 406.70 101.25 406.10 100.25
  L 400.92 91.62
  A 1.27 1.25 74.3 0 0 399.84 91.00
  L 377.32 90.94
  A 0.48 0.45 2.7 0 1 376.84 90.44"
/>
<path stroke="#808080" vector-effect="non-scaling-stroke" d="
  M 167.46 28.82
  L 163.55 53.60
  A 0.56 0.56 -85.6 0 0 164.10 54.25
  L 175.69 54.20
  A 0.59 0.59 -86.5 0 0 176.26 53.69
  L 179.62 28.56
  A 0.45 0.43 -85.9 0 0 179.20 28.05
  L 168.41 28.01
  A 0.96 0.95 -85.1 0 0 167.46 28.82"
/>
<path stroke="#808080" vector-effect="non-scaling-stroke" d="
  M 288.14 83.95
  L 300.63 99.97
  A 3.22 2.86 68.9 0 0 303.01 101.20
  L 315.82 101.25
  A 0.71 0.71 -85.8 0 0 316.52 100.64
  L 324.36 44.74
  Q 324.46 44.04 323.83 44.35
  L 311.26 50.35
  A 0.92 0.91 -8.5 0 0 310.74 51.05
  L 306.38 82.67
  Q 306.26 83.55 305.74 82.83
  L 290.48 61.72
  A 1.01 0.97 71.6 0 0 289.68 61.30
  L 279.11 61.25
  A 0.76 0.74 -83.7 0 0 278.38 61.85
  L 267.41 115.56
  Q 267.01 117.52 268.39 116.08
  C 270.63 113.73 279.07 110.45 282.45 108.81
  A 1.93 1.80 -9.2 0 0 283.49 107.47
  L 287.74 84.05
  Q 287.83 83.56 288.14 83.95"
/>
<path stroke="#808080" vector-effect="non-scaling-stroke" d="
  M 493.21 89.48
  Q 491.63 89.40 493.05 88.72
  Q 509.41 80.82 525.00 72.50
  C 539.94 64.53 543.12 48.34 521.50 46.75
  C 502.90 45.38 485.42 50.43 475.58 67.29
  Q 475.26 67.82 475.89 67.82
  L 498.90 67.75
  Q 500.47 67.75 499.46 66.54
  C 493.14 59.03 512.71 55.37 516.18 60.62
  C 518.76 64.53 509.46 69.73 505.97 71.26
  Q 489.15 78.68 472.35 86.15
  C 466.40 88.80 458.53 93.43 457.32 100.37
  A 0.75 0.74 -84.8 0 0 458.05 101.25
  L 523.57 101.25
  A 1.53 1.51 -77.5 0 0 524.95 100.36
  L 532.03 85.20
  A 0.53 0.47 -65.6 0 0 531.82 84.51
  Q 530.65 84.03 529.56 85.31
  C 527.34 87.93 523.42 89.41 519.70 89.56
  Q 506.08 90.13 493.21 89.48"
/>
<path stroke="#808080" vector-effect="non-scaling-stroke" d="
  M 42.31 90.94
  Q 39.98 90.93 40.25 89.00
  L 42.51 72.75
  A 1.46 1.45 -86.4 0 1 43.94 71.49
  L 83.71 71.26
  A 2.66 2.47 -71.8 0 0 85.79 70.11
  L 91.22 62.21
  Q 91.88 61.25 90.74 61.25
  Q 65.87 61.25 42.25 61.25
  C 33.02 61.25 30.60 66.06 29.35 74.63
  Q 27.31 88.56 27.00 92.75
  Q 26.36 101.25 34.25 101.25
  Q 48.38 101.25 62.49 101.25
  A 0.36 0.36 -12.1 0 0 62.82 100.74
  L 58.59 91.66
  A 1.17 1.15 -12.4 0 0 57.54 91.00
  L 42.31 90.94"
/>
<path stroke="#808080" vector-effect="non-scaling-stroke" d="
  M 101.11 91.80
  L 99.17 100.45
  A 0.66 0.62 -83.3 0 0 99.76 101.25
  L 111.90 101.25
  A 1.00 0.99 5.2 0 0 112.88 100.44
  L 119.96 62.05
  A 0.68 0.67 -85.0 0 0 119.30 61.25
  L 107.36 61.25
  A 0.75 0.74 -84.3 0 0 106.63 61.85
  L 103.04 79.17
  A 0.75 0.73 5.7 0 1 102.31 79.75
  L 83.57 79.75
  A 0.79 0.77 -80.7 0 1 82.85 78.71
  L 83.92 75.45
  A 0.75 0.72 8.8 0 0 83.20 74.50
  L 71.60 74.50
  A 0.61 0.61 -84.2 0 0 71.00 74.99
  L 65.64 100.67
  A 0.46 0.44 -83.7 0 0 66.07 101.23
  L 77.81 101.09
  A 0.68 0.64 -82.5 0 0 78.44 100.58
  L 80.57 91.93
  A 0.68 0.63 -82.3 0 1 81.19 91.42
  L 100.68 91.30
  A 0.43 0.41 5.9 0 1 101.11 91.80"
/>
<path stroke="#808080" vector-effect="non-scaling-stroke" d="
  M 149.84 91.78
  L 152.26 100.45
  A 1.09 1.02 81.8 0 0 153.26 101.25
  L 167.44 101.19
  A 0.38 0.38 81.9 0 0 167.80 100.70
  L 157.03 61.96
  A 0.97 0.96 82.1 0 0 156.10 61.25
  L 139.57 61.31
  A 0.89 0.89 -74.3 0 0 138.81 61.74
  L 115.66 100.91
  Q 115.46 101.25 115.85 101.25
  L 130.34 101.25
  A 0.90 0.87 14.1 0 0 131.12 100.80
  L 136.24 91.76
  A 0.99 0.96 -74.2 0 1 137.10 91.26
  L 149.20 91.30
  A 0.67 0.67 82.9 0 1 149.84 91.78"
/>
<path stroke="#808080" vector-effect="non-scaling-stroke" d="
  M 183.54 90.52
  L 188.11 61.80
  A 0.43 0.43 4.5 0 0 187.68 61.30
  L 177.18 61.25
  A 0.61 0.61 -85.6 0 0 176.58 61.77
  L 170.35 100.74
  A 0.44 0.44 -85.5 0 0 170.78 101.25
  L 197.69 101.19
  A 0.38 0.36 -10.1 0 0 198.05 100.70
  L 194.54 91.64
  A 0.78 0.77 79.5 0 0 193.82 91.14
  L 184.23 91.25
  A 0.68 0.63 3.9 0 1 183.54 90.52"
/>
<path stroke="#808080" vector-effect="non-scaling-stroke" d="
  M 215.04 91.15
  A 0.83 0.76 4.1 0 1 214.21 90.27
  L 218.58 62.00
  A 0.63 0.59 -85.9 0 0 217.99 61.28
  L 207.69 61.40
  A 0.62 0.60 -86.0 0 0 207.11 61.92
  L 200.89 100.69
  A 0.43 0.43 4.5 0 0 201.32 101.19
  L 228.92 101.25
  A 0.48 0.46 -10.5 0 0 229.37 100.62
  L 225.79 91.64
  A 0.79 0.77 78.7 0 0 225.07 91.15
  L 215.04 91.15"
/>
<path stroke="#808080" vector-effect="non-scaling-stroke" d="
  M 246.06 76.51
  L 246.74 72.01
  A 0.89 0.80 -85.4 0 1 247.54 71.25
  L 269.34 71.25
  A 1.66 1.60 -75.2 0 0 270.76 70.39
  L 275.25 62.17
  A 0.62 0.61 -75.5 0 0 274.72 61.25
  L 237.99 61.25
  A 0.74 0.72 -85.9 0 0 237.27 61.89
  L 232.06 100.31
  A 0.83 0.82 -86.0 0 0 232.87 101.25
  L 267.03 101.19
  A 0.55 0.55 77.8 0 0 267.53 100.41
  L 263.46 91.47
  A 0.80 0.79 -11.9 0 0 262.73 91.00
  L 245.01 91.00
  A 0.51 0.44 3.9 0 1 244.50 90.49
  L 245.15 86.04
  A 0.68 0.56 3.3 0 1 245.81 85.56
  L 261.69 85.44
  A 0.81 0.76 -76.4 0 0 262.39 84.98
  L 265.76 78.07
  A 0.41 0.40 -76.1 0 0 265.41 77.48
  L 246.64 77.29
  A 0.69 0.61 -85.1 0 1 246.06 76.51"
/>
<path stroke="#808080" vector-effect="non-scaling-stroke" d="
  M 68.96 24.65
  Q 60.92 24.37 52.01 24.52
  A 1.06 0.98 -84.6 0 0 51.05 25.38
  L 49.74 32.02
  A 0.61 0.58 -84.2 0 0 50.30 32.75
  Q 58.39 32.75 65.93 32.75
  C 69.03 32.75 71.27 32.08 71.29 28.60
  C 71.31 26.25 72.33 24.77 68.96 24.65"
/>
<path stroke="#808080" vector-effect="non-scaling-stroke" d="
  M 113.48 24.67
  L 96.25 24.56
  Q 94.35 24.55 94.00 26.49
  L 91.25 41.77
  Q 90.87 43.87 93.01 44.00
  Q 100.37 44.44 107.75 44.25
  C 111.39 44.16 112.46 43.32 113.05 39.63
  Q 114.11 33.07 115.00 26.49
  A 1.60 1.56 -85.6 0 0 113.48 24.67"
/>
<path stroke="#808080" vector-effect="non-scaling-stroke" d="
  M 145.80 72.98
  L 140.71 82.78
  A 0.31 0.31 -76.5 0 0 140.99 83.24
  L 147.95 83.20
  A 0.40 0.37 83.1 0 0 148.30 82.71
  L 146.22 73.06
  Q 146.09 72.43 145.80 72.98"
/>
</g>
<path fill="#000000" d="
  M 510.57 85.66
  C 517.04 85.31 523.29 86.99 527.74 80.86
  A 1.57 1.48 16.7 0 1 528.96 80.25
  L 538.13 80.15
  A 0.53 0.53 12.0 0 1 538.62 80.90
  L 527.72 104.47
  A 1.34 1.33 -77.5 0 1 526.51 105.25
  C 471.37 105.25 423.56 105.12 360.94 105.31
  A 1.34 0.37 41.5 0 1 360.12 104.91
  L 359.47 104.42
  A 1.13 0.57 -27.8 0 0 358.54 104.44
  Q 356.43 105.25 352.75 105.25
  Q 339.13 105.25 324.24 105.25
  A 3.02 3.01 -22.6 0 1 322.12 104.38
  Q 320.92 103.18 319.98 104.81
  A 0.90 0.80 -72.9 0 1 319.26 105.25
  L 300.26 105.25
  A 1.12 0.94 -15.6 0 1 299.42 104.87
  L 291.49 94.64
  Q 290.43 93.27 290.12 94.95
  L 287.27 110.62
  A 1.51 1.37 -9.5 0 1 286.48 111.62
  L 262.27 123.61
  Q 261.27 124.11 261.50 123.02
  L 265.09 106.09
  A 0.70 0.70 -84.2 0 0 264.41 105.25
  L 150.00 105.25
  A 0.73 0.65 -7.5 0 1 149.32 104.79
  L 146.75 96.24
  A 1.34 1.25 75.3 0 0 145.27 95.30
  Q 142.75 95.85 140.01 95.25
  A 1.11 1.09 -69.2 0 0 138.82 95.80
  L 133.94 104.46
  A 1.60 1.53 13.9 0 1 132.56 105.25
  L 94.43 105.31
  A 0.42 0.41 6.5 0 1 94.02 104.81
  L 96.00 96.24
  A 0.75 0.74 -83.5 0 0 95.28 95.32
  L 84.78 95.47
  A 0.96 0.92 5.4 0 0 83.88 96.18
  L 81.98 104.49
  A 1.07 1.05 6.0 0 1 80.94 105.32
  Q 56.09 105.20 32.25 105.25
  C 25.16 105.26 21.86 97.04 22.84 91.04
  C 25.22 76.56 26.80 62.17 29.75 47.73
  A 0.55 0.55 5.4 0 0 29.20 47.07
  L 1.93 47.24
  Q 1.09 47.25 1.70 46.67
  L 19.56 29.71
  Q 20.79 28.53 22.45 28.52
  Q 27.32 28.46 31.07 28.55
  C 32.39 28.58 33.82 29.34 33.75 27.00
  A 3.78 0.62 -89.5 0 0 33.31 24.19
  L 24.49 10.99
  Q 23.95 10.18 24.91 10.19
  Q 71.59 10.30 118.50 10.25
  Q 123.97 10.24 127.16 13.63
  A 0.53 0.52 -41.7 0 0 127.88 13.67
  C 132.64 9.68 136.12 10.25 143.53 10.25
  Q 225.26 10.25 307.00 10.39
  Q 310.89 10.39 314.77 10.00
  Q 316.18 9.85 315.23 10.90
  L 299.78 28.06
  A 1.33 1.26 -70.9 0 1 298.95 28.49
  Q 293.23 29.14 287.52 28.50
  A 1.21 1.15 -81.3 0 0 286.25 29.48
  L 282.61 49.02
  A 1.15 1.01 -11.7 0 1 282.06 49.75
  Q 277.85 52.17 269.81 56.31
  Q 269.33 56.56 269.45 56.89
  A 0.83 0.51 -8.4 0 0 270.22 57.22
  Q 280.98 56.66 291.74 57.22
  A 1.13 1.03 -14.7 0 1 292.56 57.65
  L 302.52 71.26
  Q 303.43 72.51 303.64 71.00
  L 306.81 48.30
  A 1.32 1.27 -8.9 0 1 307.55 47.32
  L 328.63 37.31
  Q 329.79 36.76 329.61 38.02
  L 326.87 57.45
  A 0.37 0.36 -1.9 0 0 327.31 57.85
  C 328.99 57.52 330.54 57.00 332.27 57.00
  Q 367.77 57.00 403.96 57.00
  A 1.39 1.39 -83.1 0 0 405.31 55.94
  L 416.32 10.95
  A 0.94 0.93 7.1 0 1 417.23 10.25
  L 453.20 10.18
  A 0.64 0.64 11.9 0 1 453.79 11.08
  L 424.20 78.33
  Q 422.69 81.75 426.43 81.75
  L 431.95 81.75
  A 4.02 3.98 -63.0 0 0 434.32 80.97
  Q 446.62 71.95 457.78 63.44
  Q 460.55 61.33 462.60 58.47
  Q 476.03 39.82 489.83 21.45
  C 492.78 17.52 506.63 13.20 511.63 11.26
  Q 514.23 10.25 517.06 10.26
  Q 558.00 10.38 598.94 10.06
  Q 600.14 10.05 599.19 10.69
  L 560.16 36.75
  A 3.02 2.97 27.7 0 1 558.50 37.25
  Q 544.73 37.25 531.39 37.25
  C 527.80 37.25 524.40 39.79 521.27 41.02
  Q 517.46 42.50 521.55 42.56
  C 529.88 42.69 539.53 46.18 541.03 55.38
  C 543.54 70.70 521.24 79.69 510.59 84.62
  Q 510.16 84.82 510.06 85.19
  A 0.48 0.38 4.1 0 0 510.57 85.66
  Z
  M 49.31 43.03
  C 58.28 42.48 66.32 43.64 73.75 42.75
  C 78.93 42.13 78.92 39.00 79.79 34.14
  Q 80.89 27.96 81.95 21.77
  C 82.87 16.36 79.86 14.52 74.77 14.48
  Q 53.57 14.30 32.90 14.31
  Q 31.76 14.31 32.41 15.28
  L 38.07 23.63
  A 2.41 2.37 33.2 0 1 38.45 25.37
  L 37.23 32.21
  A 0.69 0.66 5.0 0 1 36.56 32.75
  L 23.11 32.75
  A 1.85 1.74 -65.4 0 0 21.88 33.25
  L 12.93 41.70
  Q 11.57 42.97 13.40 42.96
  L 34.08 42.82
  A 0.57 0.55 5.0 0 1 34.65 43.47
  L 31.47 60.90
  Q 31.33 61.67 32.02 61.33
  L 46.49 54.40
  A 1.01 0.94 83.3 0 0 47.01 53.69
  L 48.71 43.56
  A 0.65 0.63 2.7 0 1 49.31 43.03
  Z
  M 83.92 52.86
  Q 85.71 54.25 87.98 54.25
  L 122.19 54.25
  A 0.53 0.53 76.1 0 0 122.66 53.47
  Q 120.86 50.13 121.39 46.83
  Q 123.31 34.69 125.22 22.55
  C 126.00 17.55 123.68 14.56 118.42 14.44
  Q 103.05 14.10 87.66 14.24
  C 86.50 14.25 82.51 13.67 84.54 15.87
  Q 85.79 17.24 85.46 19.07
  Q 83.53 29.74 81.79 39.56
  C 80.72 45.57 79.42 49.34 83.92 52.86
  Z
  M 124.43 45.24
  C 123.74 50.60 126.85 54.28 132.25 54.27
  Q 146.25 54.25 160.64 54.25
  A 0.31 0.31 -13.9 0 0 160.91 53.80
  L 156.21 44.94
  A 1.31 1.30 75.8 0 0 155.06 44.25
  Q 147.13 44.25 140.50 44.08
  Q 136.70 43.98 137.45 40.74
  C 138.54 36.05 139.19 31.28 140.15 26.73
  Q 140.62 24.50 142.90 24.50
  L 179.51 24.50
  A 2.01 1.88 -68.9 0 0 181.00 23.78
  L 187.83 15.51
  Q 188.84 14.29 187.27 14.32
  Q 165.59 14.81 143.50 14.19
  C 135.05 13.96 129.69 14.19 127.86 23.77
  Q 125.82 34.45 124.43 45.24
  Z
  M 197.82 33.56
  L 214.25 15.21
  Q 215.18 14.18 213.76 14.19
  L 199.06 14.33
  A 1.16 0.97 16.9 0 0 198.23 14.68
  L 181.57 34.10
  A 0.70 0.69 -41.0 0 0 181.51 34.92
  L 193.78 53.77
  A 0.98 0.96 -16.1 0 0 194.57 54.20
  L 210.38 54.25
  Q 210.89 54.25 210.61 53.82
  L 197.74 34.49
  A 0.77 0.76 -40.6 0 1 197.82 33.56
  Z
  M 227.31 38.31
  L 243.18 38.25
  A 0.85 0.80 12.2 0 0 243.93 37.80
  L 247.84 30.14
  A 0.32 0.32 14.3 0 0 247.56 29.67
  L 228.87 29.51
  A 0.75 0.71 -86.4 0 1 228.17 28.67
  L 228.56 25.19
  A 0.78 0.70 -86.3 0 1 229.26 24.50
  L 249.86 24.50
  A 0.98 0.94 -72.7 0 0 250.66 24.06
  L 256.62 14.85
  Q 256.97 14.31 256.33 14.31
  L 218.45 14.23
  A 0.96 0.93 3.0 0 0 217.50 15.06
  L 213.36 53.69
  A 0.46 0.45 2.8 0 0 213.82 54.19
  L 257.04 54.25
  Q 257.73 54.25 257.38 53.65
  L 252.19 44.75
  A 0.91 0.88 -14.1 0 0 251.43 44.31
  L 226.68 44.07
  A 0.49 0.46 3.1 0 1 226.19 43.56
  L 226.71 38.80
  A 0.61 0.54 2.6 0 1 227.31 38.31
  Z
  M 270.09 25.05
  L 264.82 53.87
  Q 264.72 54.38 265.18 54.13
  L 278.49 46.96
  A 1.10 1.07 82.0 0 0 279.04 46.21
  L 282.78 25.07
  A 0.69 0.69 5.0 0 1 283.46 24.50
  L 296.47 24.50
  A 2.54 2.31 -67.3 0 0 298.27 23.66
  L 305.49 15.54
  Q 306.66 14.22 304.91 14.22
  L 260.06 14.32
  A 1.06 0.82 12.4 0 0 259.26 14.70
  L 253.25 23.81
  Q 252.95 24.26 253.50 24.27
  L 269.68 24.57
  A 0.42 0.41 5.2 0 1 270.09 25.05
  Z
  M 376.84 90.44
  L 377.49 84.31
  A 0.56 0.56 2.8 0 1 378.05 83.81
  L 392.05 83.75
  A 0.76 0.73 -78.8 0 0 392.74 83.27
  L 394.80 77.95
  A 0.70 0.68 -79.0 0 0 394.18 77.00
  L 378.68 77.00
  A 0.50 0.46 3.1 0 1 378.18 76.49
  L 378.71 71.81
  A 0.61 0.55 2.6 0 1 379.31 71.31
  L 405.83 71.25
  A 0.64 0.63 -84.0 0 1 406.44 72.02
  L 403.60 85.37
  A 1.30 1.26 35.1 0 0 403.78 86.31
  L 413.04 100.76
  A 0.92 0.92 -16.0 0 0 413.82 101.19
  L 452.32 101.25
  A 0.66 0.64 -83.2 0 0 452.95 100.74
  C 455.85 88.57 465.85 84.30 475.31 80.04
  C 479.51 78.15 481.34 76.21 483.69 72.62
  Q 484.09 72.00 483.37 72.01
  L 469.67 72.18
  A 0.35 0.34 8.7 0 1 469.33 71.73
  C 475.44 54.58 488.97 45.66 506.46 42.88
  C 514.77 41.56 523.03 33.00 530.91 33.00
  Q 544.30 33.00 557.35 33.00
  A 3.67 3.49 -60.8 0 0 559.35 32.38
  L 584.71 15.39
  Q 586.41 14.25 584.37 14.25
  Q 550.88 14.25 517.96 14.25
  Q 515.25 14.25 512.75 15.28
  Q 503.51 19.07 494.27 22.87
  A 1.83 1.75 -82.2 0 0 493.51 23.47
  Q 479.39 42.56 465.38 61.73
  Q 463.30 64.57 460.50 66.69
  Q 447.87 76.25 435.10 85.64
  A 1.70 1.50 -60.3 0 1 434.20 85.95
  L 423.42 85.99
  A 1.62 1.47 -13.6 0 1 422.03 85.23
  L 419.20 80.20
  A 1.14 0.89 -52.0 0 1 419.20 79.29
  L 447.36 15.31
  A 0.75 0.75 12.0 0 0 446.67 14.25
  L 420.48 14.25
  A 0.86 0.85 -83.1 0 0 419.65 14.91
  L 408.59 60.34
  A 1.19 1.19 7.0 0 1 407.42 61.25
  Q 369.49 61.07 332.41 61.47
  C 323.95 61.56 323.80 66.70 322.71 74.17
  Q 320.37 90.23 320.25 93.50
  C 319.93 102.18 325.79 101.25 332.89 101.25
  Q 342.95 101.24 353.00 101.18
  C 359.71 101.15 361.89 97.33 362.88 91.05
  Q 364.04 83.73 364.53 76.01
  A 0.48 0.48 -88.3 0 0 364.05 75.50
  L 348.82 75.50
  A 1.31 1.21 -69.4 0 0 347.84 75.99
  L 342.65 82.44
  Q 341.80 83.50 343.17 83.52
  L 350.81 83.65
  A 0.53 0.52 -89.4 0 1 351.32 84.18
  C 351.31 89.65 349.94 90.97 344.61 91.01
  Q 340.08 91.04 335.55 90.94
  Q 333.51 90.89 333.76 88.91
  L 335.63 73.76
  Q 335.95 71.25 338.55 71.25
  L 366.77 71.25
  A 0.75 0.73 -87.1 0 1 367.49 72.07
  L 364.60 100.69
  A 0.46 0.45 2.8 0 0 365.06 101.19
  L 405.55 101.25
  Q 406.70 101.25 406.10 100.25
  L 400.92 91.62
  A 1.27 1.25 74.3 0 0 399.84 91.00
  L 377.32 90.94
  A 0.48 0.45 2.7 0 1 376.84 90.44
  Z
  M 167.46 28.82
  L 163.55 53.60
  A 0.56 0.56 -85.6 0 0 164.10 54.25
  L 175.69 54.20
  A 0.59 0.59 -86.5 0 0 176.26 53.69
  L 179.62 28.56
  A 0.45 0.43 -85.9 0 0 179.20 28.05
  L 168.41 28.01
  A 0.96 0.95 -85.1 0 0 167.46 28.82
  Z
  M 288.14 83.95
  L 300.63 99.97
  A 3.22 2.86 68.9 0 0 303.01 101.20
  L 315.82 101.25
  A 0.71 0.71 -85.8 0 0 316.52 100.64
  L 324.36 44.74
  Q 324.46 44.04 323.83 44.35
  L 311.26 50.35
  A 0.92 0.91 -8.5 0 0 310.74 51.05
  L 306.38 82.67
  Q 306.26 83.55 305.74 82.83
  L 290.48 61.72
  A 1.01 0.97 71.6 0 0 289.68 61.30
  L 279.11 61.25
  A 0.76 0.74 -83.7 0 0 278.38 61.85
  L 267.41 115.56
  Q 267.01 117.52 268.39 116.08
  C 270.63 113.73 279.07 110.45 282.45 108.81
  A 1.93 1.80 -9.2 0 0 283.49 107.47
  L 287.74 84.05
  Q 287.83 83.56 288.14 83.95
  Z
  M 493.21 89.48
  Q 491.63 89.40 493.05 88.72
  Q 509.41 80.82 525.00 72.50
  C 539.94 64.53 543.12 48.34 521.50 46.75
  C 502.90 45.38 485.42 50.43 475.58 67.29
  Q 475.26 67.82 475.89 67.82
  L 498.90 67.75
  Q 500.47 67.75 499.46 66.54
  C 493.14 59.03 512.71 55.37 516.18 60.62
  C 518.76 64.53 509.46 69.73 505.97 71.26
  Q 489.15 78.68 472.35 86.15
  C 466.40 88.80 458.53 93.43 457.32 100.37
  A 0.75 0.74 -84.8 0 0 458.05 101.25
  L 523.57 101.25
  A 1.53 1.51 -77.5 0 0 524.95 100.36
  L 532.03 85.20
  A 0.53 0.47 -65.6 0 0 531.82 84.51
  Q 530.65 84.03 529.56 85.31
  C 527.34 87.93 523.42 89.41 519.70 89.56
  Q 506.08 90.13 493.21 89.48
  Z
  M 42.31 90.94
  Q 39.98 90.93 40.25 89.00
  L 42.51 72.75
  A 1.46 1.45 -86.4 0 1 43.94 71.49
  L 83.71 71.26
  A 2.66 2.47 -71.8 0 0 85.79 70.11
  L 91.22 62.21
  Q 91.88 61.25 90.74 61.25
  Q 65.87 61.25 42.25 61.25
  C 33.02 61.25 30.60 66.06 29.35 74.63
  Q 27.31 88.56 27.00 92.75
  Q 26.36 101.25 34.25 101.25
  Q 48.38 101.25 62.49 101.25
  A 0.36 0.36 -12.1 0 0 62.82 100.74
  L 58.59 91.66
  A 1.17 1.15 -12.4 0 0 57.54 91.00
  L 42.31 90.94
  Z
  M 101.11 91.80
  L 99.17 100.45
  A 0.66 0.62 -83.3 0 0 99.76 101.25
  L 111.90 101.25
  A 1.00 0.99 5.2 0 0 112.88 100.44
  L 119.96 62.05
  A 0.68 0.67 -85.0 0 0 119.30 61.25
  L 107.36 61.25
  A 0.75 0.74 -84.3 0 0 106.63 61.85
  L 103.04 79.17
  A 0.75 0.73 5.7 0 1 102.31 79.75
  L 83.57 79.75
  A 0.79 0.77 -80.7 0 1 82.85 78.71
  L 83.92 75.45
  A 0.75 0.72 8.8 0 0 83.20 74.50
  L 71.60 74.50
  A 0.61 0.61 -84.2 0 0 71.00 74.99
  L 65.64 100.67
  A 0.46 0.44 -83.7 0 0 66.07 101.23
  L 77.81 101.09
  A 0.68 0.64 -82.5 0 0 78.44 100.58
  L 80.57 91.93
  A 0.68 0.63 -82.3 0 1 81.19 91.42
  L 100.68 91.30
  A 0.43 0.41 5.9 0 1 101.11 91.80
  Z
  M 149.84 91.78
  L 152.26 100.45
  A 1.09 1.02 81.8 0 0 153.26 101.25
  L 167.44 101.19
  A 0.38 0.38 81.9 0 0 167.80 100.70
  L 157.03 61.96
  A 0.97 0.96 82.1 0 0 156.10 61.25
  L 139.57 61.31
  A 0.89 0.89 -74.3 0 0 138.81 61.74
  L 115.66 100.91
  Q 115.46 101.25 115.85 101.25
  L 130.34 101.25
  A 0.90 0.87 14.1 0 0 131.12 100.80
  L 136.24 91.76
  A 0.99 0.96 -74.2 0 1 137.10 91.26
  L 149.20 91.30
  A 0.67 0.67 82.9 0 1 149.84 91.78
  Z
  M 183.54 90.52
  L 188.11 61.80
  A 0.43 0.43 4.5 0 0 187.68 61.30
  L 177.18 61.25
  A 0.61 0.61 -85.6 0 0 176.58 61.77
  L 170.35 100.74
  A 0.44 0.44 -85.5 0 0 170.78 101.25
  L 197.69 101.19
  A 0.38 0.36 -10.1 0 0 198.05 100.70
  L 194.54 91.64
  A 0.78 0.77 79.5 0 0 193.82 91.14
  L 184.23 91.25
  A 0.68 0.63 3.9 0 1 183.54 90.52
  Z
  M 215.04 91.15
  A 0.83 0.76 4.1 0 1 214.21 90.27
  L 218.58 62.00
  A 0.63 0.59 -85.9 0 0 217.99 61.28
  L 207.69 61.40
  A 0.62 0.60 -86.0 0 0 207.11 61.92
  L 200.89 100.69
  A 0.43 0.43 4.5 0 0 201.32 101.19
  L 228.92 101.25
  A 0.48 0.46 -10.5 0 0 229.37 100.62
  L 225.79 91.64
  A 0.79 0.77 78.7 0 0 225.07 91.15
  L 215.04 91.15
  Z
  M 246.06 76.51
  L 246.74 72.01
  A 0.89 0.80 -85.4 0 1 247.54 71.25
  L 269.34 71.25
  A 1.66 1.60 -75.2 0 0 270.76 70.39
  L 275.25 62.17
  A 0.62 0.61 -75.5 0 0 274.72 61.25
  L 237.99 61.25
  A 0.74 0.72 -85.9 0 0 237.27 61.89
  L 232.06 100.31
  A 0.83 0.82 -86.0 0 0 232.87 101.25
  L 267.03 101.19
  A 0.55 0.55 77.8 0 0 267.53 100.41
  L 263.46 91.47
  A 0.80 0.79 -11.9 0 0 262.73 91.00
  L 245.01 91.00
  A 0.51 0.44 3.9 0 1 244.50 90.49
  L 245.15 86.04
  A 0.68 0.56 3.3 0 1 245.81 85.56
  L 261.69 85.44
  A 0.81 0.76 -76.4 0 0 262.39 84.98
  L 265.76 78.07
  A 0.41 0.40 -76.1 0 0 265.41 77.48
  L 246.64 77.29
  A 0.69 0.61 -85.1 0 1 246.06 76.51
  Z"
/>
<path fill="#ffffff" d="
  M 48.71 43.56
  L 47.01 53.69
  A 1.01 0.94 83.3 0 1 46.49 54.40
  L 32.02 61.33
  Q 31.33 61.67 31.47 60.90
  L 34.65 43.47
  A 0.57 0.55 5.0 0 0 34.08 42.82
  L 13.40 42.96
  Q 11.57 42.97 12.93 41.70
  L 21.88 33.25
  A 1.85 1.74 -65.4 0 1 23.11 32.75
  L 36.56 32.75
  A 0.69 0.66 5.0 0 0 37.23 32.21
  L 38.45 25.37
  A 2.41 2.37 33.2 0 0 38.07 23.63
  L 32.41 15.28
  Q 31.76 14.31 32.90 14.31
  Q 53.57 14.30 74.77 14.48
  C 79.86 14.52 82.87 16.36 81.95 21.77
  Q 80.89 27.96 79.79 34.14
  C 78.92 39.00 78.93 42.13 73.75 42.75
  C 66.32 43.64 58.28 42.48 49.31 43.03
  A 0.65 0.63 2.7 0 0 48.71 43.56
  Z
  M 68.96 24.65
  Q 60.92 24.37 52.01 24.52
  A 1.06 0.98 -84.6 0 0 51.05 25.38
  L 49.74 32.02
  A 0.61 0.58 -84.2 0 0 50.30 32.75
  Q 58.39 32.75 65.93 32.75
  C 69.03 32.75 71.27 32.08 71.29 28.60
  C 71.31 26.25 72.33 24.77 68.96 24.65
  Z"
/>
<path fill="#ffffff" d="
  M 83.92 52.86
  C 79.42 49.34 80.72 45.57 81.79 39.56
  Q 83.53 29.74 85.46 19.07
  Q 85.79 17.24 84.54 15.87
  C 82.51 13.67 86.50 14.25 87.66 14.24
  Q 103.05 14.10 118.42 14.44
  C 123.68 14.56 126.00 17.55 125.22 22.55
  Q 123.31 34.69 121.39 46.83
  Q 120.86 50.13 122.66 53.47
  A 0.53 0.53 76.1 0 1 122.19 54.25
  L 87.98 54.25
  Q 85.71 54.25 83.92 52.86
  Z
  M 113.48 24.67
  L 96.25 24.56
  Q 94.35 24.55 94.00 26.49
  L 91.25 41.77
  Q 90.87 43.87 93.01 44.00
  Q 100.37 44.44 107.75 44.25
  C 111.39 44.16 112.46 43.32 113.05 39.63
  Q 114.11 33.07 115.00 26.49
  A 1.60 1.56 -85.6 0 0 113.48 24.67
  Z"
/>
<path fill="#ffffff" d="
  M 132.25 54.27
  C 126.85 54.28 123.74 50.60 124.43 45.24
  Q 125.82 34.45 127.86 23.77
  C 129.69 14.19 135.05 13.96 143.50 14.19
  Q 165.59 14.81 187.27 14.32
  Q 188.84 14.29 187.83 15.51
  L 181.00 23.78
  A 2.01 1.88 -68.9 0 1 179.51 24.50
  L 142.90 24.50
  Q 140.62 24.50 140.15 26.73
  C 139.19 31.28 138.54 36.05 137.45 40.74
  Q 136.70 43.98 140.50 44.08
  Q 147.13 44.25 155.06 44.25
  A 1.31 1.30 75.8 0 1 156.21 44.94
  L 160.91 53.80
  A 0.31 0.31 -12.6 0 1 160.64 54.25
  Q 146.25 54.25 132.25 54.27
  Z"
/>
<path fill="#ffffff" d="
  M 197.82 33.56
  A 0.77 0.76 -40.6 0 0 197.74 34.49
  L 210.61 53.82
  Q 210.89 54.25 210.38 54.25
  L 194.57 54.20
  A 0.98 0.96 -16.1 0 1 193.78 53.77
  L 181.51 34.92
  A 0.70 0.69 -41.0 0 1 181.57 34.10
  L 198.23 14.68
  A 1.16 0.97 16.9 0 1 199.06 14.33
  L 213.76 14.19
  Q 215.18 14.18 214.25 15.21
  L 197.82 33.56
  Z"
/>
<path fill="#ffffff" d="
  M 226.71 38.80
  L 226.19 43.56
  A 0.49 0.46 3.1 0 0 226.68 44.07
  L 251.43 44.31
  A 0.91 0.88 -14.1 0 1 252.19 44.75
  L 257.38 53.65
  Q 257.73 54.25 257.04 54.25
  L 213.82 54.19
  A 0.46 0.45 2.8 0 1 213.36 53.69
  L 217.50 15.06
  A 0.96 0.93 3.0 0 1 218.45 14.23
  L 256.33 14.31
  Q 256.97 14.31 256.62 14.85
  L 250.66 24.06
  A 0.98 0.94 -72.7 0 1 249.86 24.50
  L 229.26 24.50
  A 0.78 0.70 -86.3 0 0 228.56 25.19
  L 228.17 28.67
  A 0.75 0.71 -86.4 0 0 228.87 29.51
  L 247.56 29.67
  A 0.32 0.32 14.3 0 1 247.84 30.14
  L 243.93 37.80
  A 0.85 0.80 12.2 0 1 243.18 38.25
  L 227.31 38.31
  A 0.61 0.54 2.6 0 0 226.71 38.80
  Z"
/>
<path fill="#ffffff" d="
  M 269.68 24.57
  L 253.50 24.27
  Q 252.95 24.26 253.25 23.81
  L 259.26 14.70
  A 1.06 0.82 12.4 0 1 260.06 14.32
  L 304.91 14.22
  Q 306.66 14.22 305.49 15.54
  L 298.27 23.66
  A 2.54 2.31 -67.3 0 1 296.47 24.50
  L 283.46 24.50
  A 0.69 0.69 5.0 0 0 282.78 25.07
  L 279.04 46.21
  A 1.10 1.07 82.0 0 1 278.49 46.96
  L 265.18 54.13
  Q 264.72 54.38 264.82 53.87
  L 270.09 25.05
  A 0.42 0.41 5.2 0 0 269.68 24.57
  Z"
/>
<path fill="#ffffff" d="
  M 377.32 90.94
  L 399.84 91.00
  A 1.27 1.25 74.3 0 1 400.92 91.62
  L 406.10 100.25
  Q 406.70 101.25 405.55 101.25
  L 365.06 101.19
  A 0.46 0.45 2.8 0 1 364.60 100.69
  L 367.49 72.07
  A 0.75 0.73 -87.1 0 0 366.77 71.25
  L 338.55 71.25
  Q 335.95 71.25 335.63 73.76
  L 333.76 88.91
  Q 333.51 90.89 335.55 90.94
  Q 340.08 91.04 344.61 91.01
  C 349.94 90.97 351.31 89.65 351.32 84.18
  A 0.53 0.52 -89.4 0 0 350.81 83.65
  L 343.17 83.52
  Q 341.80 83.50 342.65 82.44
  L 347.84 75.99
  A 1.31 1.21 -69.4 0 1 348.82 75.50
  L 364.05 75.50
  A 0.48 0.48 -88.3 0 1 364.53 76.01
  Q 364.04 83.73 362.88 91.05
  C 361.89 97.33 359.71 101.15 353.00 101.18
  Q 342.95 101.24 332.89 101.25
  C 325.79 101.25 319.93 102.18 320.25 93.50
  Q 320.37 90.23 322.71 74.17
  C 323.80 66.70 323.95 61.56 332.41 61.47
  Q 369.49 61.07 407.42 61.25
  A 1.19 1.19 7.0 0 0 408.59 60.34
  L 419.65 14.91
  A 0.86 0.85 -83.1 0 1 420.48 14.25
  L 446.67 14.25
  A 0.75 0.75 12.0 0 1 447.36 15.31
  L 419.20 79.29
  A 1.14 0.89 -52.0 0 0 419.20 80.20
  L 422.03 85.23
  A 1.62 1.47 -13.6 0 0 423.42 85.99
  L 434.20 85.95
  A 1.70 1.50 -60.3 0 0 435.10 85.64
  Q 447.87 76.25 460.50 66.69
  Q 463.30 64.57 465.38 61.73
  Q 479.39 42.56 493.51 23.47
  A 1.83 1.75 -82.2 0 1 494.27 22.87
  Q 503.51 19.07 512.75 15.28
  Q 515.25 14.25 517.96 14.25
  Q 550.88 14.25 584.37 14.25
  Q 586.41 14.25 584.71 15.39
  L 559.35 32.38
  A 3.67 3.49 -60.8 0 1 557.35 33.00
  Q 544.30 33.00 530.91 33.00
  C 523.03 33.00 514.77 41.56 506.46 42.88
  C 488.97 45.66 475.44 54.58 469.33 71.73
  A 0.35 0.34 8.7 0 0 469.67 72.18
  L 483.37 72.01
  Q 484.09 72.00 483.69 72.62
  C 481.34 76.21 479.51 78.15 475.31 80.04
  C 465.85 84.30 455.85 88.57 452.95 100.74
  A 0.66 0.64 -83.2 0 1 452.32 101.25
  L 413.82 101.19
  A 0.92 0.92 -16.0 0 1 413.04 100.76
  L 403.78 86.31
  A 1.30 1.26 35.1 0 1 403.60 85.37
  L 406.44 72.02
  A 0.64 0.63 -84.0 0 0 405.83 71.25
  L 379.31 71.31
  A 0.61 0.55 2.6 0 0 378.71 71.81
  L 378.18 76.49
  A 0.50 0.46 3.1 0 0 378.68 77.00
  L 394.18 77.00
  A 0.70 0.68 -79.0 0 1 394.80 77.95
  L 392.74 83.27
  A 0.76 0.73 -78.8 0 1 392.05 83.75
  L 378.05 83.81
  A 0.56 0.56 2.8 0 0 377.49 84.31
  L 376.84 90.44
  A 0.48 0.45 2.7 0 0 377.32 90.94
  Z"
/>
<path fill="#000000" d="
  M 68.96 24.65
  C 72.33 24.77 71.31 26.25 71.29 28.60
  C 71.27 32.08 69.03 32.75 65.93 32.75
  Q 58.39 32.75 50.30 32.75
  A 0.61 0.58 -84.2 0 1 49.74 32.02
  L 51.05 25.38
  A 1.06 0.98 -84.6 0 1 52.01 24.52
  Q 60.92 24.37 68.96 24.65
  Z"
/>
<path fill="#000000" d="
  M 113.48 24.67
  A 1.60 1.56 -85.6 0 1 115.00 26.49
  Q 114.11 33.07 113.05 39.63
  C 112.46 43.32 111.39 44.16 107.75 44.25
  Q 100.37 44.44 93.01 44.00
  Q 90.87 43.87 91.25 41.77
  L 94.00 26.49
  Q 94.35 24.55 96.25 24.56
  L 113.48 24.67
  Z"
/>
<path fill="#ffffff" d="
  M 167.46 28.82
  A 0.96 0.95 -85.1 0 1 168.41 28.01
  L 179.20 28.05
  A 0.45 0.43 -85.9 0 1 179.62 28.56
  L 176.26 53.69
  A 0.59 0.59 -86.5 0 1 175.69 54.20
  L 164.10 54.25
  A 0.56 0.56 -85.6 0 1 163.55 53.60
  L 167.46 28.82
  Z"
/>
<path fill="#ffffff" d="
  M 287.74 84.05
  L 283.49 107.47
  A 1.93 1.80 -9.2 0 1 282.45 108.81
  C 279.07 110.45 270.63 113.73 268.39 116.08
  Q 267.01 117.52 267.41 115.56
  L 278.38 61.85
  A 0.76 0.74 -83.7 0 1 279.11 61.25
  L 289.68 61.30
  A 1.01 0.97 71.6 0 1 290.48 61.72
  L 305.74 82.83
  Q 306.26 83.55 306.38 82.67
  L 310.74 51.05
  A 0.92 0.91 -8.5 0 1 311.26 50.35
  L 323.83 44.35
  Q 324.46 44.04 324.36 44.74
  L 316.52 100.64
  A 0.71 0.71 -85.8 0 1 315.82 101.25
  L 303.01 101.20
  A 3.22 2.86 68.9 0 1 300.63 99.97
  L 288.14 83.95
  Q 287.83 83.56 287.74 84.05
  Z"
/>
<path fill="#ffffff" d="
  M 493.21 89.48
  Q 506.08 90.13 519.70 89.56
  C 523.42 89.41 527.34 87.93 529.56 85.31
  Q 530.65 84.03 531.82 84.51
  A 0.53 0.47 -65.6 0 1 532.03 85.20
  L 524.95 100.36
  A 1.53 1.51 -77.5 0 1 523.57 101.25
  L 458.05 101.25
  A 0.75 0.74 -84.8 0 1 457.32 100.37
  C 458.53 93.43 466.40 88.80 472.35 86.15
  Q 489.15 78.68 505.97 71.26
  C 509.46 69.73 518.76 64.53 516.18 60.62
  C 512.71 55.37 493.14 59.03 499.46 66.54
  Q 500.47 67.75 498.90 67.75
  L 475.89 67.82
  Q 475.26 67.82 475.58 67.29
  C 485.42 50.43 502.90 45.38 521.50 46.75
  C 543.12 48.34 539.94 64.53 525.00 72.50
  Q 509.41 80.82 493.05 88.72
  Q 491.63 89.40 493.21 89.48
  Z"
/>
<path fill="#ffffff" d="
  M 42.31 90.94
  L 57.54 91.00
  A 1.17 1.15 -12.4 0 1 58.59 91.66
  L 62.82 100.74
  A 0.36 0.36 -12.1 0 1 62.49 101.25
  Q 48.38 101.25 34.25 101.25
  Q 26.36 101.25 27.00 92.75
  Q 27.31 88.56 29.35 74.63
  C 30.60 66.06 33.02 61.25 42.25 61.25
  Q 65.87 61.25 90.74 61.25
  Q 91.88 61.25 91.22 62.21
  L 85.79 70.11
  A 2.66 2.47 -71.8 0 1 83.71 71.26
  L 43.94 71.49
  A 1.46 1.45 -86.4 0 0 42.51 72.75
  L 40.25 89.00
  Q 39.98 90.93 42.31 90.94
  Z"
/>
<path fill="#ffffff" d="
  M 100.68 91.30
  L 81.19 91.42
  A 0.68 0.63 -82.3 0 0 80.57 91.93
  L 78.44 100.58
  A 0.68 0.64 -82.5 0 1 77.81 101.09
  L 66.07 101.23
  A 0.46 0.44 -83.7 0 1 65.64 100.67
  L 71.00 74.99
  A 0.61 0.61 -84.2 0 1 71.60 74.50
  L 83.20 74.50
  A 0.75 0.72 8.8 0 1 83.92 75.45
  L 82.85 78.71
  A 0.79 0.77 -80.7 0 0 83.57 79.75
  L 102.31 79.75
  A 0.75 0.73 5.7 0 0 103.04 79.17
  L 106.63 61.85
  A 0.75 0.74 -84.3 0 1 107.36 61.25
  L 119.30 61.25
  A 0.68 0.67 -85.0 0 1 119.96 62.05
  L 112.88 100.44
  A 1.00 0.99 5.2 0 1 111.90 101.25
  L 99.76 101.25
  A 0.66 0.62 -83.3 0 1 99.17 100.45
  L 101.11 91.80
  A 0.43 0.41 5.9 0 0 100.68 91.30
  Z"
/>
<path fill="#ffffff" d="
  M 149.20 91.30
  L 137.10 91.26
  A 0.99 0.96 -74.2 0 0 136.24 91.76
  L 131.12 100.80
  A 0.90 0.87 14.1 0 1 130.34 101.25
  L 115.85 101.25
  Q 115.46 101.25 115.66 100.91
  L 138.81 61.74
  A 0.89 0.89 -74.3 0 1 139.57 61.31
  L 156.10 61.25
  A 0.97 0.96 82.1 0 1 157.03 61.96
  L 167.80 100.70
  A 0.38 0.38 81.9 0 1 167.44 101.19
  L 153.26 101.25
  A 1.09 1.02 81.8 0 1 152.26 100.45
  L 149.84 91.78
  A 0.67 0.67 82.2 0 0 149.20 91.30
  Z
  M 145.80 72.98
  L 140.71 82.78
  A 0.31 0.31 -76.5 0 0 140.99 83.24
  L 147.95 83.20
  A 0.40 0.37 83.1 0 0 148.30 82.71
  L 146.22 73.06
  Q 146.09 72.43 145.80 72.98
  Z"
/>
<path fill="#ffffff" d="
  M 183.54 90.52
  A 0.68 0.63 3.9 0 0 184.23 91.25
  L 193.82 91.14
  A 0.78 0.77 79.5 0 1 194.54 91.64
  L 198.05 100.70
  A 0.38 0.36 -10.1 0 1 197.69 101.19
  L 170.78 101.25
  A 0.44 0.44 -85.5 0 1 170.35 100.74
  L 176.58 61.77
  A 0.61 0.61 -85.6 0 1 177.18 61.25
  L 187.68 61.30
  A 0.43 0.43 4.5 0 1 188.11 61.80
  L 183.54 90.52
  Z"
/>
<path fill="#ffffff" d="
  M 215.04 91.15
  L 225.07 91.15
  A 0.79 0.77 78.7 0 1 225.79 91.64
  L 229.37 100.62
  A 0.48 0.46 -10.5 0 1 228.92 101.25
  L 201.32 101.19
  A 0.43 0.43 4.5 0 1 200.89 100.69
  L 207.11 61.92
  A 0.62 0.60 -86.0 0 1 207.69 61.40
  L 217.99 61.28
  A 0.63 0.59 -85.9 0 1 218.58 62.00
  L 214.21 90.27
  A 0.83 0.76 4.1 0 0 215.04 91.15
  Z"
/>
<path fill="#ffffff" d="
  M 246.06 76.51
  A 0.69 0.61 -85.1 0 0 246.64 77.29
  L 265.41 77.48
  A 0.41 0.40 -76.1 0 1 265.76 78.07
  L 262.39 84.98
  A 0.81 0.76 -76.4 0 1 261.69 85.44
  L 245.81 85.56
  A 0.68 0.56 3.3 0 0 245.15 86.04
  L 244.50 90.49
  A 0.51 0.44 3.9 0 0 245.01 91.00
  L 262.73 91.00
  A 0.80 0.79 -11.9 0 1 263.46 91.47
  L 267.53 100.41
  A 0.55 0.55 77.8 0 1 267.03 101.19
  L 232.87 101.25
  A 0.83 0.82 -86.0 0 1 232.06 100.31
  L 237.27 61.89
  A 0.74 0.72 -85.9 0 1 237.99 61.25
  L 274.72 61.25
  A 0.62 0.61 -75.5 0 1 275.25 62.17
  L 270.76 70.39
  A 1.66 1.60 -75.2 0 1 269.34 71.25
  L 247.54 71.25
  A 0.89 0.80 -85.4 0 0 246.74 72.01
  L 246.06 76.51
  Z"
/>
<path fill="#000000" d="
  M 145.80 72.98
  Q 146.09 72.43 146.22 73.06
  L 148.30 82.71
  A 0.40 0.37 83.1 0 1 147.95 83.20
  L 140.99 83.24
  A 0.31 0.31 -76.5 0 1 140.71 82.78
  L 145.80 72.98
  Z"
/>
</svg>
