<?xml version="1.0" encoding="UTF-8" standalone="no"?>
<!DOCTYPE svg PUBLIC "-//W3C//DTD SVG 1.1//EN" "http://www.w3.org/Graphics/SVG/1.1/DTD/svg11.dtd">
<svg xmlns="http://www.w3.org/2000/svg" version="1.1" viewBox="0 0 600 300">
<path stroke="#000000" stroke-width="2.00" fill="none" stroke-linecap="butt" vector-effect="non-scaling-stroke" d="
  M 0.00 146.44
  L 0.21 114.25"
/>
<path fill="#000000" d="
  M 398.56 146.49
  C 418.64 148.50 432.25 170.08 407.38 180.30
  C 393.54 185.98 381.25 186.45 365.26 185.96
  Q 351.42 185.54 337.84 183.09
  A 0.76 0.73 -85.0 0 1 337.24 182.35
  L 337.07 171.73
  A 0.74 0.71 -82.3 0 1 337.99 171.00
  C 351.13 174.86 384.43 181.39 394.39 168.46
  Q 397.81 164.01 394.40 159.99
  C 387.23 151.52 362.48 152.29 352.49 152.67
  A 0.92 0.87 -0.9 0 1 351.53 151.79
  L 351.70 143.00
  A 0.53 0.49 1.7 0 1 352.25 142.52
  Q 368.99 143.20 383.25 140.25
  C 387.34 139.40 394.98 135.24 392.19 129.85
  C 385.84 117.61 350.41 123.61 339.83 126.55
  A 0.85 0.85 -7.8 0 1 338.75 125.73
  L 338.75 116.29
  A 1.00 0.99 -4.0 0 1 339.61 115.31
  C 351.86 113.57 421.05 107.07 417.69 131.94
  C 416.66 139.56 406.13 144.74 399.25 145.50
  Q 398.50 145.58 398.22 145.98
  A 0.39 0.32 17.6 0 0 398.56 146.49
  Z"
/>
<path fill="#000000" d="
  M 528.25 134.00
  C 525.75 117.97 550.50 113.75 560.99 113.27
  Q 575.56 112.60 590.53 115.16
  A 1.78 1.77 -85.2 0 1 592.00 116.91
  L 592.00 125.80
  A 0.99 0.99 8.0 0 1 590.74 126.75
  C 581.68 124.12 557.57 119.15 550.71 127.56
  C 545.54 133.90 558.60 138.97 563.77 140.70
  Q 576.55 144.96 587.19 150.06
  C 596.57 154.56 604.01 164.32 596.94 174.44
  C 586.21 189.78 544.86 186.32 529.08 184.01
  A 1.50 1.41 4.8 0 1 527.79 182.58
  L 527.96 172.25
  A 0.40 0.39 9.1 0 1 528.47 171.89
  C 538.07 174.74 568.43 181.04 574.76 170.68
  C 578.37 164.77 572.11 160.85 567.40 158.90
  Q 555.76 154.11 544.06 149.44
  C 537.73 146.91 529.46 141.73 528.25 134.00
  Z"
/>
<path fill="#000000" d="
  M 0.00 147.19
  L 0.00 146.44
  L 0.21 114.25
  C 0.23 113.05 3.13 113.45 4.19 113.53
  A 1.35 1.29 -19.8 0 1 5.05 113.91
  L 29.45 137.57
  Q 30.68 138.77 30.67 137.04
  L 30.51 114.13
  A 0.64 0.63 -0.0 0 1 31.15 113.50
  L 35.83 113.50
  A 0.92 0.92 0.0 0 1 36.75 114.42
  L 36.75 146.55
  A 1.36 1.14 -0.2 0 1 35.40 147.69
  L 32.79 147.70
  A 2.10 1.11 -11.0 0 1 31.44 147.29
  L 6.43 122.93
  Q 5.75 122.27 5.75 123.21
  Q 5.75 134.68 5.75 144.92
  C 5.75 146.60 6.14 148.53 3.47 147.67
  A 1.63 1.35 -40.9 0 0 2.54 147.69
  Q 1.19 148.13 0.00 147.19
  Z"
/>
<rect fill="#000000" x="46.50" y="113.50" width="6.50" height="34.18" rx="0.62"/>
<path fill="#000000" d="
  M 93.12 137.75
  Q 94.24 138.84 94.25 137.27
  L 94.42 114.19
  A 0.60 0.51 -89.0 0 1 94.94 113.60
  L 99.70 113.70
  A 0.61 0.50 -89.5 0 1 100.19 114.31
  L 100.25 146.80
  A 0.83 0.82 86.5 0 1 99.53 147.62
  C 97.21 147.91 96.10 148.18 94.29 146.48
  Q 82.35 135.26 70.33 123.20
  Q 69.25 122.12 69.25 123.65
  Q 69.25 135.12 69.25 146.00
  Q 69.25 148.11 67.72 147.68
  Q 67.27 147.55 66.76 147.58
  L 63.95 147.76
  A 1.24 1.13 88.5 0 1 62.75 146.52
  L 62.75 114.40
  A 0.83 0.77 -89.7 0 1 63.53 113.57
  L 68.08 113.62
  A 1.42 0.86 57.5 0 1 68.93 114.04
  L 93.12 137.75
  Z"
/>
<path fill="#000000" d="
  M 129.54 119.81
  Q 129.03 132.33 129.24 144.86
  C 129.27 146.61 129.83 148.39 126.99 147.75
  Q 125.77 147.47 124.56 147.80
  Q 122.73 148.30 122.70 146.50
  Q 122.50 133.62 122.50 120.11
  A 0.81 0.79 -0.4 0 0 121.68 119.32
  L 108.20 119.49
  A 0.96 0.93 89.4 0 1 107.25 118.53
  L 107.25 114.17
  A 0.67 0.67 0.0 0 1 107.92 113.50
  L 143.94 113.56
  A 0.63 0.60 -5.6 0 1 144.55 114.04
  Q 145.09 116.50 144.55 118.95
  A 0.63 0.61 -83.1 0 1 143.94 119.45
  L 130.07 119.34
  A 0.52 0.49 1.7 0 0 129.54 119.81
  Z"
/>
<path fill="#000000" d="
  M 158.81 141.94
  L 184.22 142.00
  A 0.67 0.60 0.4 0 1 184.89 142.61
  L 184.85 147.25
  A 0.60 0.51 -0.1 0 1 184.26 147.75
  L 152.19 147.94
  A 0.69 0.68 0.0 0 1 151.50 147.26
  L 151.50 114.51
  A 0.78 0.77 0.0 0 1 152.28 113.74
  L 184.18 113.57
  A 0.63 0.49 -0.4 0 1 184.81 114.05
  L 184.86 118.73
  A 0.87 0.77 -0.0 0 1 183.99 119.50
  L 158.78 119.50
  A 0.78 0.78 0.0 0 0 158.00 120.28
  L 158.00 126.08
  A 1.17 1.17 90.0 0 0 159.17 127.25
  L 178.25 127.25
  A 0.71 0.69 -9.1 0 1 178.92 127.72
  Q 179.69 130.06 179.07 132.46
  A 0.67 0.64 6.2 0 1 178.44 132.94
  L 158.69 133.17
  A 0.57 0.50 -1.1 0 0 158.13 133.68
  L 158.24 141.44
  A 0.57 0.51 -0.5 0 0 158.81 141.94
  Z"
/>
<path fill="#000000" d="
  M 225.15 146.05
  C 217.37 138.45 209.18 130.96 201.71 123.09
  Q 200.75 122.08 200.75 123.47
  Q 200.75 134.44 200.75 145.15
  C 200.75 146.57 201.37 148.40 198.79 147.71
  Q 198.31 147.58 197.82 147.69
  Q 196.42 147.98 195.04 147.59
  A 0.69 0.65 -82.9 0 1 194.56 146.93
  L 194.56 114.06
  A 0.52 0.51 90.0 0 1 195.07 113.54
  L 199.44 113.54
  A 1.32 1.14 64.2 0 1 200.30 113.91
  L 224.71 137.71
  Q 225.69 138.66 225.68 137.30
  L 225.56 114.31
  A 0.62 0.50 89.5 0 1 226.05 113.69
  L 230.85 113.66
  A 1.01 0.89 89.7 0 1 231.75 114.67
  L 231.69 146.94
  A 0.65 0.64 83.2 0 1 231.20 147.57
  C 228.74 148.14 227.06 147.92 225.15 146.05
  Z"
/>
<path fill="#000000" d="
  M 266.86 147.64
  C 258.66 147.53 250.46 147.87 242.34 147.69
  A 0.60 0.60 0.5 0 1 241.75 147.09
  L 241.75 114.06
  A 0.56 0.56 0.0 0 1 242.31 113.50
  Q 255.38 113.50 267.75 113.50
  C 285.41 113.50 286.15 147.90 266.86 147.64
  Z
  M 248.39 119.43
  A 0.64 0.63 -89.6 0 0 247.75 120.07
  L 247.75 141.14
  A 0.61 0.61 0.0 0 0 248.36 141.75
  Q 257.37 141.75 266.25 141.91
  C 276.66 142.10 278.17 125.09 271.34 120.65
  C 267.76 118.31 253.47 119.48 248.39 119.43
  Z"
/>
<path fill="#000000" d="
  M 329.48 140.23
  A 7.50 7.50 0.0 0 1 321.98 147.73
  L 295.00 147.73
  A 7.50 7.50 0.0 0 1 287.50 140.23
  L 287.50 120.99
  A 7.50 7.50 0.0 0 1 295.00 113.49
  L 321.98 113.49
  A 7.50 7.50 0.0 0 1 329.48 120.99
  L 329.48 140.23
  Z
  M 323.4833 121.1438
  A 1.68 1.68 0.0 0 0 321.8003 119.4668
  L 295.1604 119.5133
  A 1.68 1.68 0.0 0 0 293.4833 121.1962
  L 293.5167 140.3362
  A 1.68 1.68 0.0 0 0 295.1997 142.0132
  L 321.8396 141.9667
  A 1.68 1.68 0.0 0 0 323.5167 140.2838
  L 323.4833 121.1438
  Z"
/>
<path fill="#000000" d="
  M 517.57 170.82
  C 507.82 181.92 491.85 185.30 477.75 185.62
  Q 453.88 186.16 429.12 185.99
  A 0.87 0.87 0.0 0 1 428.25 185.12
  L 428.25 114.35
  A 0.85 0.85 -0.0 0 1 429.10 113.50
  Q 449.25 113.50 469.75 113.50
  C 485.49 113.50 501.07 115.18 513.44 124.81
  C 527.85 136.04 529.61 157.11 517.57 170.82
  Z
  M 476.42 174.78
  C 492.76 172.70 504.15 159.65 499.63 142.68
  C 493.99 121.50 468.90 123.09 452.32 123.31
  A 0.51 0.50 -0.0 0 0 451.81 123.81
  L 451.75 174.95
  A 0.75 0.75 1.2 0 0 452.47 175.70
  Q 465.13 176.22 476.42 174.78
  Z"
/>
<path fill="#000000" d="
  M 0.00 114.19
  L 0.21 114.25
  L 0.00 146.44
  L 0.00 114.19
  Z"
/>
<path fill="#000000" d="
  M 329.49 177.98
  A 7.54 7.54 0.0 0 1 321.95 185.52
  L 295.05 185.52
  A 7.54 7.54 0.0 0 1 287.51 177.98
  L 287.51 159.06
  A 7.54 7.54 0.0 0 1 295.05 151.52
  L 321.95 151.52
  A 7.54 7.54 0.0 0 1 329.49 159.06
  L 329.49 177.98
  Z
  M 323.5069 159.0862
  A 1.56 1.56 0.0 0 0 321.9496 157.5235
  L 295.0897 157.4766
  A 1.56 1.56 0.0 0 0 293.5270 159.0339
  L 293.4931 178.4538
  A 1.56 1.56 0.0 0 0 295.0504 180.0165
  L 321.9103 180.0634
  A 1.56 1.56 0.0 0 0 323.4730 178.5061
  L 323.5069 159.0862
  Z"
/>
</svg>
