<?xml version="1.0" encoding="UTF-8" standalone="no"?>
<!DOCTYPE svg PUBLIC "-//W3C//DTD SVG 1.1//EN" "http://www.w3.org/Graphics/SVG/1.1/DTD/svg11.dtd">
<svg xmlns="http://www.w3.org/2000/svg" version="1.1" viewBox="0 0 600 300">
<path fill="#000000" d="
  M 600.00 86.09
  L 600.00 212.81
  L 0.00 212.84
  L 0.00 166.19
  C 19.16 164.09 19.27 134.01 0.00 131.44
  L 0.00 86.19
  Q 21.87 86.02 84.00 86.00
  Q 342.00 85.93 600.00 86.09
  Z
  M 578.29 149.59
  A 47.34 47.34 0.0 0 0 530.95 102.25
  A 47.34 47.34 0.0 0 0 483.61 149.59
  A 47.34 47.34 0.0 0 0 530.95 196.93
  A 47.34 47.34 0.0 0 0 578.29 149.59
  Z
  M 93.16 108.19
  Q 77.69 123.34 62.28 138.84
  A 1.85 1.83 -23.0 0 0 61.75 140.13
  L 61.75 157.16
  A 2.32 2.31 -67.7 0 0 62.44 158.81
  L 97.30 193.68
  A 1.99 1.98 67.1 0 0 98.69 194.25
  L 124.68 194.25
  Q 125.81 194.25 125.03 193.43
  L 82.02 148.04
  A 0.83 0.82 -45.3 0 1 82.02 146.91
  L 120.88 105.64
  Q 121.80 104.67 120.46 104.68
  C 113.41 104.76 106.19 105.09 99.37 104.64
  C 95.93 104.42 95.26 106.15 93.16 108.19
  Z
  M 440.80 146.81
  L 479.58 105.75
  Q 480.68 104.58 479.05 104.59
  L 457.03 104.73
  Q 455.38 104.75 454.27 105.86
  L 421.03 139.10
  A 1.81 1.78 -22.9 0 0 420.50 140.37
  L 420.50 157.37
  A 1.82 1.77 -68.1 0 0 421.02 158.64
  L 456.45 193.84
  A 1.24 1.23 67.0 0 0 457.31 194.19
  L 483.75 194.32
  Q 484.66 194.32 484.03 193.65
  L 440.80 147.88
  A 0.79 0.78 -45.3 0 1 440.80 146.81
  Z
  M 57.50 105.49
  A 0.74 0.74 0.0 0 0 56.76 104.75
  L 36.98 104.75
  A 0.74 0.74 0.0 0 0 36.24 105.49
  L 36.24 193.51
  A 0.74 0.74 0.0 0 0 36.98 194.25
  L 56.76 194.25
  A 0.74 0.74 0.0 0 0 57.50 193.51
  L 57.50 105.49
  Z
  M 157.21 174.43
  A 0.54 0.54 11.4 0 1 156.71 173.68
  L 172.14 139.11
  A 0.60 0.59 -78.1 0 0 171.60 138.27
  L 155.94 138.42
  A 0.85 0.81 -75.4 0 0 155.21 138.87
  Q 142.99 162.14 130.98 185.52
  Q 129.43 188.53 130.24 193.43
  A 0.97 0.97 85.5 0 0 131.20 194.25
  L 225.35 194.25
  A 0.50 0.49 -13.0 0 0 225.80 193.54
  L 182.26 105.27
  A 0.92 0.92 -12.8 0 0 181.43 104.75
  L 160.40 104.75
  A 0.64 0.64 -13.3 0 0 159.83 105.67
  L 193.91 173.65
  A 0.42 0.42 -13.3 0 1 193.53 174.26
  L 157.21 174.43
  Z
  M 256.61 123.29
  C 262.34 123.11 268.28 123.37 274.21 123.46
  C 287.13 123.67 291.89 130.85 291.94 143.00
  Q 292.05 167.97 291.94 193.49
  A 0.69 0.68 -89.6 0 0 292.62 194.19
  L 312.57 194.25
  A 0.69 0.68 -90.0 0 0 313.25 193.56
  Q 313.25 166.93 313.25 140.52
  Q 313.25 129.99 311.79 125.12
  Q 307.68 111.38 293.66 106.55
  C 287.66 104.48 281.32 104.75 274.50 104.75
  Q 254.13 104.75 234.09 104.75
  A 1.09 1.09 0.0 0 0 233.00 105.84
  L 233.00 193.24
  A 1.01 1.01 0.0 0 0 234.01 194.25
  L 254.75 194.19
  A 0.80 0.79 -89.6 0 0 255.54 193.40
  Q 256.04 159.28 255.46 124.49
  A 1.19 1.18 -1.5 0 1 256.61 123.29
  Z
  M 409.54 105.02
  A 0.27 0.27 0.0 0 0 409.27 104.75
  L 328.51 104.75
  A 0.27 0.27 0.0 0 0 328.24 105.02
  L 328.24 123.00
  A 0.27 0.27 0.0 0 0 328.51 123.27
  L 409.27 123.27
  A 0.27 0.27 0.0 0 0 409.54 123.00
  L 409.54 105.02
  Z
  M 328.19 140.30
  L 328.31 193.64
  A 0.61 0.61 0.0 0 0 328.92 194.25
  L 408.75 194.25
  A 0.85 0.83 90.0 0 0 409.58 193.40
  L 409.67 176.40
  A 0.84 0.82 -89.7 0 0 408.85 175.55
  L 351.63 175.74
  A 0.84 0.83 -0.0 0 1 350.78 174.90
  L 350.92 158.68
  A 0.53 0.49 -0.0 0 1 351.45 158.19
  L 408.69 158.25
  A 0.85 0.82 -89.6 0 0 409.51 157.41
  L 409.68 140.03
  A 0.53 0.51 90.0 0 0 409.17 139.50
  L 328.99 139.50
  A 0.80 0.80 0.0 0 0 328.19 140.30
  Z"
/>
<ellipse fill="#000000" cx="0.00" cy="0.00" transform="translate(530.88,149.49) rotate(89.8)" rx="26.12" ry="24.79"/>
</svg>
