<?xml version="1.0" encoding="UTF-8" standalone="no"?>
<!DOCTYPE svg PUBLIC "-//W3C//DTD SVG 1.1//EN" "http://www.w3.org/Graphics/SVG/1.1/DTD/svg11.dtd">
<svg xmlns="http://www.w3.org/2000/svg" version="1.1" viewBox="0 0 600 300">
<path fill="#000000" d="
  M 157.56 65.19
  C 159.82 65.66 159.50 68.25 158.65 69.93
  Q 145.00 96.78 135.12 125.23
  Q 133.77 129.13 132.54 130.28
  C 129.18 133.45 123.26 131.05 121.98 126.46
  Q 115.91 104.65 113.69 99.06
  C 111.83 94.39 108.97 97.37 108.01 100.19
  Q 103.19 114.27 98.00 128.21
  C 95.94 133.73 87.58 133.03 85.81 127.23
  Q 77.19 99.13 66.01 71.81
  Q 65.32 70.13 65.24 68.32
  C 65.07 64.48 67.70 65.00 70.41 65.00
  Q 79.71 65.00 89.00 65.00
  Q 94.19 65.00 95.38 69.33
  Q 98.78 81.69 103.32 93.70
  Q 104.31 96.33 106.44 94.51
  C 109.41 91.97 109.93 88.33 108.50 84.55
  Q 105.67 77.06 102.55 69.69
  C 101.26 66.64 102.92 65.29 105.83 65.19
  Q 114.70 64.88 123.57 65.20
  C 127.50 65.35 129.83 64.55 131.25 69.25
  Q 136.75 87.43 138.31 90.44
  Q 140.51 94.67 142.24 91.20
  C 144.26 87.16 145.37 84.95 143.19 80.31
  Q 140.68 74.99 137.94 69.78
  C 136.46 66.98 137.92 65.32 140.82 65.16
  Q 153.83 64.40 157.56 65.19
  Z"
/>
<rect fill="#000000" x="165.24" y="66.75" width="180.74" height="6.74" rx="3.35"/>
<path fill="#000000" d="
  M 239.35 80.28
  C 243.16 80.99 244.00 86.11 245.24 89.02
  Q 250.83 102.23 256.01 115.60
  A 1.43 1.24 47.3 0 1 256.04 116.54
  C 255.05 119.23 252.67 118.65 250.58 118.94
  C 246.54 119.49 239.57 119.80 238.25 114.75
  C 237.58 112.18 235.44 104.85 230.57 107.19
  Q 228.66 108.10 229.56 110.17
  L 231.75 115.26
  Q 232.84 117.78 230.08 118.62
  Q 225.38 120.06 221.33 118.36
  Q 218.73 117.28 220.02 114.77
  C 225.51 104.07 230.38 90.79 235.69 82.19
  Q 237.12 79.86 239.35 80.28
  Z
  M 235.65 102.32
  A 2.29 2.29 0.0 0 0 233.36 100.03
  A 2.29 2.29 0.0 0 0 231.07 102.32
  A 2.29 2.29 0.0 0 0 233.36 104.61
  A 2.29 2.29 0.0 0 0 235.65 102.32
  Z"
/>
<path fill="#000000" d="
  M 317.94 84.19
  C 320.33 79.33 324.00 78.35 326.39 83.96
  Q 336.64 108.03 339.44 113.81
  Q 340.93 116.89 338.82 118.86
  A 1.63 1.37 16.2 0 1 337.94 119.25
  C 334.47 119.68 331.04 119.42 327.44 119.39
  C 320.59 119.34 321.65 112.96 318.56 108.94
  Q 316.23 105.90 314.00 107.50
  C 309.60 110.65 315.91 113.53 314.52 116.88
  C 313.29 119.83 307.34 119.36 305.13 118.74
  Q 301.82 117.81 303.40 114.75
  Q 306.26 109.25 309.04 103.74
  C 311.99 97.88 314.76 90.63 317.94 84.19
  Z
  M 317.83 102.34
  A 2.30 2.30 0.0 0 0 315.53 100.04
  A 2.30 2.30 0.0 0 0 313.23 102.34
  A 2.30 2.30 0.0 0 0 315.53 104.64
  A 2.30 2.30 0.0 0 0 317.83 102.34
  Z"
/>
<path fill="#000000" d="
  M 160.40 108.80
  C 159.38 112.17 161.83 113.54 162.25 115.92
  C 163.08 120.54 146.70 122.56 151.17 113.66
  Q 158.33 99.44 165.31 85.13
  C 167.97 79.67 171.30 78.78 173.91 85.05
  Q 179.85 99.29 185.87 113.50
  C 186.99 116.17 187.47 118.55 183.76 119.05
  Q 175.71 120.13 172.50 119.25
  C 167.01 117.75 168.69 105.28 161.03 108.12
  A 1.06 1.03 88.5 0 0 160.40 108.80
  Z
  M 166.13 102.32
  A 2.30 2.30 0.0 0 0 163.83 100.02
  A 2.30 2.30 0.0 0 0 161.53 102.32
  A 2.30 2.30 0.0 0 0 163.83 104.62
  A 2.30 2.30 0.0 0 0 166.13 102.32
  Z"
/>
<path fill="#000000" d="
  M 213.90 86.54
  C 211.99 86.15 211.27 87.94 211.21 89.60
  Q 210.79 101.79 210.72 114.00
  C 210.69 119.99 206.89 119.05 202.76 119.51
  C 199.14 119.92 194.12 119.46 194.19 114.75
  Q 194.37 103.01 194.49 91.26
  C 194.60 79.34 187.85 91.34 186.19 92.94
  Q 184.88 94.20 184.50 92.00
  C 183.96 88.85 182.22 80.84 187.62 80.80
  Q 203.31 80.70 219.01 80.75
  Q 221.52 80.76 221.78 83.25
  C 221.92 84.68 222.76 95.62 218.91 92.41
  C 217.10 90.91 216.19 87.01 213.90 86.54
  Z"
/>
<path fill="#000000" d="
  M 262.42 82.11
  C 263.56 80.46 265.43 80.75 267.26 80.75
  C 273.39 80.75 291.02 79.22 295.68 82.19
  C 300.35 85.17 300.70 93.40 296.06 96.81
  Q 292.89 99.15 295.81 101.69
  C 299.09 104.54 301.10 118.34 295.21 118.76
  C 291.27 119.04 286.69 120.28 283.42 117.29
  A 1.60 1.45 -76.7 0 1 282.96 116.45
  C 282.10 112.14 284.10 104.50 281.07 101.87
  A 1.46 1.43 -22.9 0 0 280.18 101.52
  C 275.69 101.35 277.22 111.48 277.15 114.50
  C 277.02 120.68 267.67 119.27 263.94 118.31
  C 260.16 117.34 261.17 115.18 261.20 112.36
  Q 261.31 99.14 261.52 84.91
  A 5.01 4.99 62.9 0 1 262.42 82.11
  Z
  M 282.6173 88.3395
  A 2.35 2.35 0.0 0 0 280.3045 85.9529
  L 280.0245 85.9485
  A 2.35 2.35 0.0 0 0 277.6379 88.2613
  L 277.5427 94.3205
  A 2.35 2.35 0.0 0 0 279.8555 96.7071
  L 280.1355 96.7115
  A 2.35 2.35 0.0 0 0 282.5221 94.3987
  L 282.6173 88.3395
  Z"
/>
<rect fill="#000000" x="142.22" y="124.99" width="203.78" height="6.76" rx="3.32"/>
<path fill="#000000" d="
  M 450.03 175.20
  C 452.85 159.25 465.04 145.66 481.04 142.79
  C 500.93 139.23 518.34 152.17 523.96 170.86
  Q 529.73 190.03 518.43 208.20
  Q 517.82 209.18 517.30 208.16
  Q 513.06 199.94 508.76 191.72
  C 508.03 190.33 508.27 188.93 508.52 187.46
  Q 511.23 171.15 499.56 161.83
  C 489.02 153.41 475.42 157.75 469.28 168.99
  Q 463.86 178.92 467.04 190.80
  A 1.57 1.46 -40.4 0 1 466.91 191.92
  L 458.25 208.44
  A 0.83 0.83 -47.9 0 1 456.82 208.52
  Q 446.84 193.19 450.03 175.20
  Z"
/>
<path fill="#000000" d="
  M 41.09 181.90
  C 50.87 189.82 50.50 206.28 43.14 215.51
  C 31.20 230.46 10.65 222.83 0.62 210.28
  A 1.24 1.23 46.9 0 1 0.67 208.67
  L 8.35 200.38
  A 0.51 0.50 49.2 0 1 9.14 200.44
  C 13.22 206.43 21.06 211.83 28.37 209.74
  Q 33.78 208.18 34.50 201.50
  C 36.26 185.21 -2.14 191.48 2.25 162.25
  C 5.48 140.77 30.01 139.08 44.35 150.92
  A 1.25 1.19 -51.0 0 1 44.48 152.62
  L 38.21 160.54
  A 0.95 0.89 -50.0 0 1 36.87 160.70
  C 22.02 147.33 5.41 166.46 28.10 174.60
  Q 35.22 177.15 41.09 181.90
  Z"
/>
<path fill="#000000" d="
  M 371.90 164.05
  C 372.32 156.99 375.85 149.78 382.63 146.71
  Q 400.43 138.63 414.64 151.42
  A 0.54 0.52 -50.4 0 1 414.69 152.14
  L 408.06 160.67
  A 0.78 0.77 -49.8 0 1 406.92 160.77
  Q 402.27 156.48 396.25 156.00
  C 391.27 155.61 385.87 159.97 386.95 165.20
  C 387.94 169.93 393.13 172.88 397.56 174.44
  C 408.29 178.22 417.36 184.31 418.25 196.75
  C 420.50 228.12 385.45 230.80 370.29 209.91
  A 0.65 0.62 48.7 0 1 370.32 209.11
  L 378.30 200.59
  A 0.59 0.56 48.7 0 1 379.18 200.67
  Q 383.65 206.78 390.06 209.14
  C 404.14 214.34 410.31 197.54 397.06 191.19
  C 384.07 184.96 370.82 182.05 371.90 164.05
  Z"
/>
<path fill="#000000" d="
  M 600.00 145.06
  L 600.00 222.06
  L 589.38 222.20
  A 2.59 2.31 68.8 0 1 587.44 221.21
  L 548.50 170.97
  Q 547.50 169.68 547.50 171.32
  L 547.50 220.02
  A 0.96 0.95 2.7 0 1 546.45 220.97
  Q 539.88 220.39 533.18 220.98
  A 0.85 0.84 -2.8 0 1 532.25 220.14
  L 532.43 144.18
  A 0.54 0.52 -90.0 0 1 532.94 143.65
  L 542.77 143.55
  A 2.12 1.89 68.7 0 1 544.36 144.36
  L 583.31 194.47
  Q 584.68 196.23 584.68 193.99
  L 584.68 145.43
  A 0.54 0.53 -2.3 0 1 585.18 144.90
  Q 592.60 144.40 600.00 145.06
  Z"
/>
<path fill="#000000" d="
  M 70.25 195.15
  C 70.25 216.40 97.58 215.48 97.54 195.50
  Q 97.50 171.00 97.50 145.52
  A 0.71 0.70 -90.0 0 1 98.20 144.81
  L 111.71 144.75
  A 1.04 1.03 -90.0 0 1 112.74 145.79
  Q 112.90 174.32 112.55 201.78
  C 112.36 216.53 99.73 221.85 87.50 224.50
  C 81.26 225.85 73.61 223.29 67.99 220.70
  C 58.74 216.43 54.75 209.40 54.75 199.44
  Q 54.75 172.81 54.75 145.77
  A 0.96 0.94 -90.0 0 1 55.69 144.81
  L 69.61 144.75
  A 0.65 0.64 -90.0 0 1 70.25 145.40
  Q 70.25 170.43 70.25 195.15
  Z"
/>
<path fill="#000000" d="
  M 153.85 145.82
  C 162.49 148.76 168.82 155.55 169.75 165.00
  C 170.87 176.36 166.83 186.74 155.94 191.03
  C 151.04 192.96 144.74 192.25 139.24 192.25
  A 0.99 0.99 0.0 0 0 138.25 193.24
  L 138.25 219.78
  A 1.00 0.98 -0.3 0 1 137.26 220.76
  L 123.58 220.83
  A 0.82 0.81 -0.3 0 1 122.75 220.02
  L 122.75 146.01
  A 1.26 1.26 0.4 0 1 124.01 144.75
  Q 134.26 144.75 144.03 144.75
  Q 150.71 144.75 153.85 145.82
  Z
  M 150.71 159.57
  C 146.80 156.71 143.81 157.76 139.84 157.41
  A 1.46 1.45 -87.3 0 0 138.25 158.86
  L 138.25 178.61
  A 0.99 0.98 -86.7 0 0 139.12 179.59
  C 147.14 180.53 154.33 177.54 155.41 169.12
  Q 156.13 163.54 150.71 159.57
  Z"
/>
<path fill="#000000" d="
  M 192.03 187.82
  Q 191.41 197.69 191.91 207.57
  A 0.54 0.53 88.8 0 0 192.43 208.08
  L 215.74 208.24
  A 0.96 0.92 0.3 0 1 216.69 209.16
  L 216.73 219.90
  A 0.87 0.85 -0.3 0 1 215.86 220.76
  L 177.47 220.93
  A 1.02 1.02 -0.3 0 1 176.44 219.91
  L 176.50 145.54
  A 0.79 0.79 0.0 0 1 177.29 144.75
  L 214.48 144.75
  A 0.71 0.70 -0.0 0 1 215.19 145.45
  L 215.25 156.65
  A 0.85 0.84 -0.3 0 1 214.40 157.50
  L 192.69 157.50
  A 0.94 0.94 0.0 0 0 191.75 158.44
  L 191.75 173.72
  A 1.03 1.03 0.0 0 0 192.78 174.75
  L 214.69 174.75
  A 0.56 0.56 0.0 0 1 215.25 175.31
  L 215.25 186.59
  A 0.67 0.66 -0.0 0 1 214.58 187.25
  L 192.55 187.31
  A 0.54 0.52 -88.2 0 0 192.03 187.82
  Z"
/>
<path fill="#000000" d="
  M 255.67 145.39
  Q 275.09 151.61 272.92 172.30
  Q 271.48 186.04 258.80 191.32
  A 0.52 0.52 60.9 0 0 258.58 192.11
  L 278.70 220.08
  Q 279.32 220.94 278.24 220.93
  L 260.50 220.74
  A 0.89 0.86 -14.7 0 1 259.74 220.31
  Q 251.51 206.61 243.44 192.81
  Q 242.76 191.65 241.85 192.40
  A 1.17 0.92 74.6 0 0 241.50 193.24
  L 241.50 219.73
  A 1.00 0.98 -89.7 0 1 240.51 220.73
  L 226.82 220.70
  A 0.52 0.51 -90.0 0 1 226.31 220.18
  L 226.25 145.51
  A 0.70 0.70 0.0 0 1 226.95 144.81
  L 251.59 144.75
  Q 253.64 144.74 255.67 145.39
  Z
  M 255.40 160.34
  C 251.20 156.68 247.17 157.88 242.46 157.28
  A 0.86 0.85 -86.2 0 0 241.50 158.13
  L 241.50 178.97
  A 0.75 0.74 -88.0 0 0 242.19 179.72
  C 245.28 179.93 248.67 179.94 251.48 178.74
  C 258.44 175.77 261.80 165.93 255.40 160.34
  Z"
/>
<path fill="#000000" d="
  M 308.81 194.18
  A 0.58 0.58 -69.7 0 0 309.56 193.83
  L 326.58 145.59
  A 1.28 1.27 9.7 0 1 327.78 144.75
  L 342.68 144.75
  A 0.51 0.51 -79.3 0 1 343.15 145.44
  L 313.62 221.48
  A 0.86 0.70 -77.5 0 1 312.94 222.02
  L 305.35 222.13
  A 1.47 1.29 77.7 0 1 304.08 221.19
  L 274.76 145.28
  A 0.39 0.39 -10.3 0 1 275.13 144.75
  L 290.58 144.75
  A 0.80 0.80 80.1 0 1 291.33 145.28
  C 293.04 150.05 308.21 193.94 308.81 194.18
  Z"
/>
<rect fill="#000000" x="346.49" y="144.76" width="15.26" height="76.04" rx="0.56"/>
<rect fill="#000000" x="426.26" y="144.75" width="15.24" height="76.06" rx="0.62"/>
<path fill="#000000" d="
  M 460.18 220.11
  L 487.46 168.50
  A 0.44 0.44 -44.6 0 1 488.24 168.50
  L 515.52 220.11
  A 0.44 0.44 -14.8 0 1 515.13 220.75
  L 460.57 220.75
  A 0.44 0.44 -76.3 0 1 460.18 220.11
  Z"
/>
</svg>
