<?xml version="1.0" encoding="UTF-8" standalone="no"?>
<!DOCTYPE svg PUBLIC "-//W3C//DTD SVG 1.1//EN" "http://www.w3.org/Graphics/SVG/1.1/DTD/svg11.dtd">
<svg xmlns="http://www.w3.org/2000/svg" version="1.1" viewBox="0 0 600 300">
<path fill="#000000" d="
  M 87.19 133.95
  L 87.25 100.17
  A 0.67 0.67 0.0 0 1 87.92 99.50
  L 114.69 99.56
  A 0.50 0.49 0.0 0 1 115.19 100.05
  L 115.25 196.76
  A 0.66 0.66 1.2 0 1 114.56 197.42
  Q 102.34 196.94 88.59 197.55
  A 1.29 1.27 88.7 0 1 87.26 196.26
  L 87.07 159.19
  A 0.51 0.50 0.0 0 0 86.56 158.69
  L 55.86 158.69
  A 0.61 0.61 89.8 0 0 55.25 159.30
  L 55.25 196.81
  A 0.52 0.51 -0.6 0 1 54.74 197.32
  L 28.28 197.51
  A 1.03 1.00 0.0 0 1 27.25 196.51
  L 27.25 100.18
  A 0.67 0.65 -89.6 0 1 27.91 99.51
  L 54.56 99.68
  A 0.51 0.51 -1.3 0 1 55.07 100.19
  L 55.24 134.03
  A 0.97 0.97 89.7 0 0 56.21 134.99
  L 86.27 134.85
  A 0.92 0.90 0.0 0 0 87.19 133.95
  Z"
/>
<rect fill="#000000" x="135.26" y="99.50" width="28.24" height="97.80" rx="0.69"/>
<path fill="#010101" d="
  M 330.57 138.18
  Q 330.00 136.61 329.44 138.18
  L 308.40 196.76
  A 1.11 1.08 -79.4 0 1 307.36 197.49
  L 241.94 197.32
  A 1.04 1.03 -18.7 0 1 241.12 196.92
  L 213.51 161.40
  Q 212.50 160.11 212.50 161.74
  L 212.50 196.75
  A 0.50 0.50 0.0 0 1 212.00 197.25
  L 185.38 197.25
  A 0.88 0.88 0.0 0 1 184.50 196.37
  L 184.50 100.18
  A 0.68 0.68 0.0 0 1 185.18 99.50
  L 211.94 99.50
  A 0.56 0.56 0.0 0 1 212.50 100.06
  L 212.50 132.33
  Q 212.50 134.12 213.59 132.71
  L 238.62 100.20
  A 1.80 1.79 -71.1 0 1 240.04 99.50
  L 273.88 99.50
  Q 274.98 99.50 274.27 100.34
  L 236.51 145.15
  A 1.28 1.28 45.4 0 0 236.50 146.80
  L 277.24 195.79
  A 0.64 0.64 -54.1 0 0 278.33 195.61
  L 314.82 100.49
  A 1.46 1.44 -79.3 0 1 316.17 99.56
  L 344.69 99.56
  A 0.74 0.72 79.5 0 1 345.37 100.04
  L 382.02 196.97
  A 0.35 0.35 -9.9 0 1 381.69 197.44
  L 352.51 197.50
  A 1.05 1.05 80.1 0 1 351.52 196.80
  L 330.57 138.18
  Z"
/>
<path fill="#000000" d="
  M 420.58 168.06
  L 420.74 196.50
  A 0.77 0.76 -0.0 0 1 419.97 197.26
  L 393.60 197.42
  A 1.10 1.09 -0.3 0 1 392.49 196.33
  L 392.68 100.05
  A 0.56 0.55 -89.5 0 1 393.23 99.50
  Q 414.25 99.50 435.25 99.51
  C 470.59 99.52 478.85 145.12 447.71 158.09
  A 0.57 0.56 -30.4 0 0 447.48 158.95
  L 477.06 196.69
  Q 477.70 197.50 476.67 197.50
  L 441.84 197.50
  A 0.98 0.98 -16.9 0 1 441.03 197.07
  L 421.43 167.80
  Q 420.57 166.52 420.58 168.06
  Z
  M 420.67 139.98
  A 0.53 0.50 89.4 0 0 421.17 140.50
  C 424.50 140.50 428.65 140.96 431.48 139.71
  C 438.33 136.69 438.09 125.34 431.04 122.61
  C 428.45 121.60 424.71 122.00 421.62 122.00
  A 1.08 1.04 90.0 0 0 420.58 123.08
  L 420.67 139.98
  Z"
/>
<path fill="#000000" d="
  M 569.61 175.42
  C 562.96 195.98 541.88 202.21 522.80 200.78
  C 504.43 199.40 488.23 188.38 485.75 169.15
  Q 485.50 167.23 485.50 153.33
  Q 485.50 126.71 485.50 100.38
  A 0.88 0.88 0.0 0 1 486.38 99.50
  L 513.06 99.50
  A 0.69 0.69 -0.3 0 1 513.75 100.19
  Q 513.75 126.63 513.75 152.50
  C 513.75 160.43 512.98 169.75 521.81 172.69
  C 529.80 175.35 541.24 173.31 542.50 163.25
  Q 543.22 157.48 543.14 148.00
  Q 542.95 124.03 543.06 100.19
  A 0.68 0.67 -90.0 0 1 543.73 99.51
  L 570.50 99.73
  A 0.52 0.51 -89.4 0 1 571.00 100.25
  Q 571.25 131.34 571.05 162.42
  Q 570.99 171.15 569.61 175.42
  Z"
/>
</svg>
