<?xml version="1.0" encoding="UTF-8" standalone="no"?>
<!DOCTYPE svg PUBLIC "-//W3C//DTD SVG 1.1//EN" "http://www.w3.org/Graphics/SVG/1.1/DTD/svg11.dtd">
<svg xmlns="http://www.w3.org/2000/svg" version="1.1" viewBox="0 0 600 300">
<path fill="#000000" d="
  M 236.61 160.77
  C 235.59 163.16 233.36 167.28 234.48 169.70
  C 235.54 171.98 237.47 171.44 239.66 172.17
  Q 241.18 172.68 239.90 173.71
  A 1.55 1.21 20.2 0 1 239.00 174.00
  Q 231.42 174.00 223.85 174.00
  C 223.09 174.00 222.22 173.62 222.39 172.78
  A 1.09 0.72 -11.9 0 1 223.03 172.13
  Q 227.19 170.42 229.01 166.22
  Q 237.99 145.46 247.11 124.76
  A 1.19 1.04 -84.8 0 1 247.77 124.13
  Q 250.14 123.29 251.19 125.81
  Q 254.48 133.80 269.06 167.44
  Q 270.46 170.66 273.29 171.83
  C 275.63 172.80 274.79 173.99 272.63 174.00
  Q 261.60 174.04 250.56 173.94
  A 0.93 0.82 -13.3 0 1 249.79 173.53
  C 248.73 171.65 253.58 172.25 254.97 170.41
  A 1.07 0.95 58.2 0 0 255.12 169.52
  C 254.37 166.86 253.26 164.43 252.34 161.84
  C 251.45 159.29 249.36 160.03 247.24 159.96
  Q 242.26 159.82 237.30 160.27
  A 0.84 0.82 -80.3 0 0 236.61 160.77
  Z
  M 238.65 156.43
  A 0.39 0.39 -79.6 0 0 239.00 156.97
  L 249.57 157.02
  A 0.39 0.39 78.9 0 0 249.93 156.48
  L 244.71 143.97
  A 0.39 0.39 -44.3 0 0 243.99 143.96
  L 238.65 156.43
  Z"
/>
<path fill="#000000" d="
  M 517.51 124.48
  C 522.14 122.69 530.82 124.67 535.56 126.44
  Q 538.22 127.43 538.95 124.81
  A 1.08 0.82 -87.6 0 1 539.52 124.12
  Q 540.83 123.64 542.07 124.25
  A 0.87 0.78 -77.8 0 1 542.50 125.00
  L 542.45 139.94
  A 0.96 0.87 76.6 0 1 542.02 140.72
  Q 540.49 141.65 539.17 140.54
  A 1.72 1.16 -85.2 0 1 538.70 139.70
  C 536.92 132.29 529.96 125.14 521.82 127.75
  C 508.26 132.11 508.74 152.94 512.94 163.56
  C 517.70 175.64 530.90 173.09 537.85 164.98
  C 540.13 162.31 542.00 161.60 541.36 166.92
  A 3.76 3.73 -16.2 0 1 539.99 169.39
  C 526.16 180.61 500.60 175.56 496.55 156.72
  C 493.46 142.32 500.78 129.33 515.04 124.75
  Q 515.81 124.50 516.56 124.59
  Q 517.07 124.65 517.51 124.48
  Z"
/>
<path fill="#000000" d="
  M 51.25 125.00
  C 70.16 125.00 79.01 141.63 73.87 158.46
  C 67.82 178.31 43.01 174.00 27.69 174.00
  C 26.81 174.00 24.62 173.87 26.13 172.34
  A 1.13 0.90 21.1 0 1 27.00 172.07
  C 30.76 172.48 32.43 170.55 32.45 166.85
  Q 32.54 151.44 32.51 136.04
  C 32.50 130.97 33.25 126.77 26.99 126.97
  A 1.22 0.98 -19.0 0 1 26.13 126.66
  C 24.79 125.28 26.72 125.00 27.62 125.00
  Q 39.43 125.00 51.25 125.00
  Z
  M 45.99 128.57
  C 46.13 141.87 45.50 155.10 45.98 168.25
  Q 46.12 172.00 49.74 171.00
  C 59.57 168.30 60.37 158.83 60.64 150.49
  C 60.94 141.20 58.58 128.12 46.56 128.00
  A 0.57 0.56 -89.5 0 0 45.99 128.57
  Z"
/>
<path fill="#000000" d="
  M 120.23 148.54
  A 0.48 0.47 -41.9 0 0 121.05 148.57
  Q 126.70 140.14 131.18 130.40
  Q 132.06 128.49 130.06 127.85
  C 129.39 127.64 124.58 126.85 126.34 125.30
  A 1.52 1.06 16.6 0 1 127.26 125.00
  Q 134.25 125.00 141.25 125.03
  Q 142.86 125.03 142.60 126.21
  A 1.00 0.79 -6.5 0 1 141.96 126.84
  C 136.09 128.77 128.21 145.79 124.68 151.95
  C 122.34 156.02 123.10 162.97 123.36 167.53
  C 123.69 173.07 126.74 171.15 130.17 172.15
  Q 131.84 172.64 130.41 173.72
  A 1.61 1.29 21.5 0 1 129.51 174.00
  C 127.20 174.01 101.59 174.53 102.04 173.15
  A 1.58 1.57 8.1 0 1 103.50 172.06
  C 108.33 171.92 109.75 171.34 109.75 166.11
  C 109.75 162.38 110.45 157.89 108.75 154.48
  Q 102.66 142.23 95.97 130.29
  Q 94.54 127.75 91.77 126.96
  C 89.57 126.33 90.11 125.00 92.06 125.00
  Q 102.91 125.00 113.75 125.09
  Q 115.91 125.10 114.99 126.53
  A 1.04 0.83 12.5 0 1 114.19 126.92
  Q 112.78 126.93 111.40 127.65
  A 1.55 1.49 -27.3 0 0 110.71 129.67
  L 120.23 148.54
  Z"
/>
<path fill="#000000" d="
  M 168.32 138.27
  Q 168.60 151.70 168.52 165.30
  C 168.49 169.49 170.28 171.91 174.50 172.00
  A 1.33 0.99 -15.3 0 1 175.37 172.34
  C 176.71 173.72 174.78 174.00 173.88 174.00
  Q 165.85 174.04 157.82 173.94
  A 0.82 0.74 -10.0 0 1 157.08 173.48
  Q 156.47 172.00 158.50 172.00
  C 162.55 171.99 163.72 169.22 163.80 165.49
  Q 164.14 150.24 164.02 134.99
  C 163.99 130.44 162.04 127.76 157.69 126.90
  A 0.85 0.67 2.4 0 1 157.04 126.34
  Q 156.76 125.00 158.75 125.00
  Q 166.75 125.00 174.83 125.00
  A 1.47 1.47 71.2 0 1 175.99 125.57
  L 195.82 151.04
  Q 197.09 152.68 197.00 150.61
  Q 196.63 141.63 196.75 132.75
  Q 196.83 127.16 191.01 127.00
  A 1.13 0.88 -13.3 0 1 190.18 126.62
  C 189.16 125.20 190.63 125.00 191.60 125.00
  C 193.30 125.00 207.78 124.64 207.73 125.59
  A 1.32 1.32 81.9 0 1 206.84 126.78
  C 203.09 128.07 201.79 128.49 201.71 132.90
  Q 201.33 153.45 201.50 174.01
  A 0.85 0.78 77.5 0 1 201.07 174.75
  C 199.42 175.57 198.24 174.98 197.14 173.59
  Q 183.04 155.82 168.93 138.05
  Q 168.29 137.25 168.32 138.27
  Z"
/>
<path fill="#000000" d="
  M 309.85 156.83
  L 301.79 167.83
  A 1.22 1.17 -32.6 0 0 301.57 168.75
  Q 302.14 172.13 306.00 172.07
  Q 308.31 172.04 307.25 173.54
  A 1.02 0.93 15.9 0 1 306.44 173.94
  C 300.05 174.02 286.15 174.81 287.46 172.65
  A 1.51 1.02 -1.1 0 1 288.23 172.11
  C 295.54 169.80 302.51 158.69 307.41 152.56
  A 0.87 0.86 -42.5 0 0 307.46 151.53
  Q 300.81 141.62 294.58 132.22
  C 293.12 130.01 292.47 128.38 289.83 127.30
  C 288.10 126.59 287.48 125.00 290.11 125.00
  Q 301.30 125.00 312.50 125.00
  A 1.60 1.35 -22.5 0 1 313.41 125.29
  C 316.68 127.79 307.14 125.44 309.69 130.56
  Q 310.65 132.50 316.22 140.59
  A 0.42 0.41 -39.8 0 0 316.86 140.64
  C 318.76 138.75 329.61 127.22 320.26 127.00
  A 1.41 0.99 -14.0 0 1 319.38 126.66
  C 318.03 125.27 319.98 125.00 320.88 125.00
  Q 329.07 125.01 337.25 125.17
  Q 338.98 125.21 338.34 126.39
  A 1.19 0.90 4.4 0 1 337.56 126.89
  C 331.32 128.08 323.74 139.97 319.73 144.91
  A 0.92 0.91 47.8 0 0 319.68 145.99
  Q 326.67 156.47 333.44 166.81
  Q 335.98 170.70 339.22 172.12
  A 1.33 0.91 9.0 0 1 339.90 172.76
  Q 340.35 174.00 338.75 174.00
  Q 327.71 174.00 316.67 174.00
  C 315.80 174.00 313.36 173.70 315.33 172.28
  A 2.01 1.09 9.9 0 1 316.25 171.97
  Q 318.43 171.76 318.91 169.75
  A 1.30 1.17 37.6 0 0 318.74 168.82
  L 311.11 156.89
  A 0.77 0.76 47.3 0 0 309.85 156.83
  Z"
/>
<path fill="#000000" d="
  M 392.95 166.20
  Q 393.04 150.93 393.01 135.66
  C 393.00 130.86 393.63 126.90 387.75 126.98
  A 1.84 1.17 -18.8 0 1 386.81 126.75
  C 385.03 125.59 387.23 125.00 388.12 125.00
  Q 399.95 124.96 411.79 125.06
  C 412.75 125.06 413.81 125.76 412.88 126.68
  A 1.30 0.86 15.3 0 1 411.99 126.97
  Q 406.09 126.74 406.39 132.39
  C 406.99 143.85 406.50 155.69 406.50 167.19
  C 406.50 170.82 408.58 172.39 412.00 172.06
  A 0.98 0.81 -18.5 0 1 412.82 172.38
  Q 413.96 173.90 411.50 173.92
  Q 399.53 174.04 387.56 173.94
  A 1.38 1.11 -19.0 0 1 386.68 173.62
  C 385.01 172.07 387.60 172.03 388.39 172.03
  C 392.17 172.03 392.93 169.58 392.95 166.20
  Z"
/>
<path fill="#000000" d="
  M 440.32 138.27
  Q 440.60 151.70 440.52 165.30
  C 440.49 169.49 442.28 171.91 446.50 172.00
  A 1.33 0.99 -15.3 0 1 447.37 172.34
  C 448.71 173.72 446.78 174.00 445.88 174.00
  Q 437.85 174.04 429.82 173.94
  A 0.82 0.74 -10.0 0 1 429.08 173.48
  Q 428.47 172.00 430.50 172.00
  C 434.55 171.99 435.72 169.22 435.80 165.49
  Q 436.14 150.24 436.02 134.99
  C 435.99 130.44 434.04 127.76 429.69 126.90
  A 0.85 0.67 2.4 0 1 429.04 126.34
  Q 428.76 125.00 430.75 125.00
  Q 438.75 125.00 446.83 125.00
  A 1.47 1.47 71.2 0 1 447.99 125.57
  L 467.82 151.04
  Q 469.09 152.68 469.00 150.61
  Q 468.63 141.63 468.75 132.75
  Q 468.83 127.16 463.01 127.00
  A 1.13 0.88 -13.3 0 1 462.18 126.62
  C 461.16 125.20 462.63 125.00 463.60 125.00
  C 465.30 125.00 479.78 124.64 479.73 125.59
  A 1.32 1.32 81.9 0 1 478.84 126.78
  C 475.09 128.07 473.79 128.49 473.71 132.90
  Q 473.33 153.45 473.50 174.01
  A 0.85 0.78 77.5 0 1 473.07 174.75
  C 471.42 175.57 470.24 174.98 469.14 173.59
  Q 455.04 155.82 440.93 138.05
  Q 440.29 137.25 440.32 138.27
  Z"
/>
<ellipse fill="#000000" cx="0.00" cy="0.00" transform="translate(568.88,169.01) rotate(0.5)" rx="6.83" ry="6.20"/>
</svg>
