<?xml version="1.0" encoding="UTF-8" standalone="no"?>
<!DOCTYPE svg PUBLIC "-//W3C//DTD SVG 1.1//EN" "http://www.w3.org/Graphics/SVG/1.1/DTD/svg11.dtd">
<svg xmlns="http://www.w3.org/2000/svg" version="1.1" viewBox="0 0 600 227">
<g stroke-width="2.00" fill="none" stroke-linecap="butt">
<path stroke="#b58f01" stroke-opacity="0.839" vector-effect="non-scaling-stroke" d="
  M 362.71 77.00
  Q 361.65 71.44 361.79 76.75"
/>
<path stroke="#df8080" vector-effect="non-scaling-stroke" d="
  M 233.54 110.75
  C 226.01 115.61 216.38 119.56 209.82 127.74"
/>
<path stroke="#df8080" vector-effect="non-scaling-stroke" d="
  M 185.79 112.25
  C 202.12 138.61 193.73 176.89 184.85 204.50
  Q 184.22 206.46 182.09 206.49
  L 166.10 206.69"
/>
<path stroke="#df8080" vector-effect="non-scaling-stroke" d="
  M 165.63 190.79
  Q 167.02 188.32 167.21 185.50"
/>
<path stroke="#df8080" vector-effect="non-scaling-stroke" d="
  M 168.92 143.40
  C 158.24 128.02 139.35 146.92 131.95 155.31
  C 119.52 169.39 109.31 186.72 100.59 203.29
  C 98.78 206.72 98.65 206.52 94.74 206.50
  Q 60.34 206.30 26.03 206.87"
/>
<path stroke="#df8080" vector-effect="non-scaling-stroke" d="
  M 120.21 181.25
  Q 118.09 182.56 117.79 185.00"
/>
<path stroke="#df8080" vector-effect="non-scaling-stroke" d="
  M 164.93 184.48
  C 151.54 190.93 136.74 189.72 122.54 187.25"
/>
<path stroke="#df8080" vector-effect="non-scaling-stroke" d="
  M 324.29 135.50
  Q 320.63 139.81 316.10 143.14
  A 1.15 1.09 -56.3 0 1 315.21 143.34
  Q 301.73 140.67 286.25 141.50
  C 273.58 142.18 253.35 151.57 257.32 167.23
  Q 258.86 173.31 263.93 176.90"
/>
<path stroke="#df8080" vector-effect="non-scaling-stroke" d="
  M 313.25 181.04
  L 315.25 190.26
  A 1.67 1.46 71.0 0 1 314.53 192.02
  C 298.22 200.46 273.27 209.06 254.69 206.06
  Q 236.75 203.17 219.75 193.21"
/>
<path stroke="#c65c64" stroke-opacity="0.996" vector-effect="non-scaling-stroke" d="
  M 219.75 193.21
  Q 218.95 191.94 217.50 191.79"
/>
<path stroke="#e7dce5" stroke-opacity="0.996" vector-effect="non-scaling-stroke" d="
  M 219.21 193.50
  Q 219.38 193.16 219.75 193.21"
/>
<path stroke="#df8080" vector-effect="non-scaling-stroke" d="
  M 456.25 119.46
  Q 446.65 150.30 438.12 182.00
  Q 437.54 184.13 439.74 183.92
  Q 441.36 183.77 442.96 184.50"
/>
<path stroke="#df8080" vector-effect="non-scaling-stroke" d="
  M 442.73 187.91
  L 439.71 199.22
  Q 439.22 201.03 438.08 201.99
  C 430.21 208.56 418.71 209.21 409.49 204.91"
/>
<path stroke="#df8080" vector-effect="non-scaling-stroke" d="
  M 405.75 201.71
  L 402.64 197.40
  A 0.83 0.80 -34.1 0 0 401.54 197.21
  C 381.59 210.11 357.44 213.16 336.99 199.45"
/>
<path stroke="#c65c64" stroke-opacity="0.996" vector-effect="non-scaling-stroke" d="
  M 511.25 119.79
  Q 512.63 121.73 514.50 119.96"
/>
<path stroke="#df8080" vector-effect="non-scaling-stroke" d="
  M 577.82 130.72
  Q 582.38 138.16 583.54 146.75"
/>
<path stroke="#c65c64" stroke-opacity="0.996" vector-effect="non-scaling-stroke" d="
  M 583.54 146.75
  Q 583.55 148.04 584.46 148.75"
/>
<path stroke="#df8080" vector-effect="non-scaling-stroke" d="
  M 584.46 148.75
  C 585.60 166.82 575.75 188.74 565.94 203.50
  C 563.74 206.80 563.66 206.81 559.52 206.74
  Q 547.86 206.52 536.29 206.38"
/>
<path stroke="#df8080" vector-effect="non-scaling-stroke" d="
  M 545.42 144.48
  Q 540.23 138.69 533.08 138.07
  C 526.04 137.45 514.44 140.32 506.62 143.14
  Q 504.92 143.75 504.44 145.49
  Q 496.33 174.78 488.25 204.55
  Q 487.58 207.00 484.25 206.75
  Q 473.65 205.96 453.29 206.50"
/>
<path stroke="#e7dce5" stroke-opacity="0.996" vector-effect="non-scaling-stroke" d="
  M 584.46 148.75
  Q 585.12 146.75 583.54 146.75"
/>
<path stroke="#df6300" vector-effect="non-scaling-stroke" d="
  M 337.08 16.79
  Q 328.48 25.26 322.31 33.81
  C 315.82 42.82 306.62 64.64 322.38 70.50
  C 328.65 72.83 339.85 72.27 346.69 73.81
  C 351.71 74.94 352.59 79.32 349.62 83.26
  C 343.47 91.43 332.55 94.32 322.98 96.25
  A 0.94 0.93 66.0 0 0 322.42 97.73
  L 332.47 111.36
  A 1.48 1.47 63.3 0 0 334.08 111.90
  Q 356.12 105.24 358.50 81.75
  C 359.31 73.78 357.01 66.56 347.75 66.07
  Q 339.24 65.62 330.79 64.74
  C 316.07 63.19 321.39 51.09 328.31 44.81
  Q 335.35 38.43 343.67 33.29
  A 1.92 1.90 -26.5 0 0 344.46 30.98
  L 338.62 15.77
  A 0.55 0.46 66.2 0 0 337.95 15.44
  Q 337.64 15.60 337.51 15.95
  Q 337.29 16.58 337.08 16.79"
/>
<path stroke="#df6300" vector-effect="non-scaling-stroke" d="
  M 478.07 76.48
  Q 476.10 70.74 475.01 64.06
  A 0.91 0.91 73.7 0 1 475.55 63.07
  L 492.78 55.80
  A 1.04 1.02 -18.2 0 0 493.39 54.62
  Q 492.51 50.97 491.07 49.13
  A 0.73 0.70 -28.4 0 0 490.27 48.91
  L 475.20 54.02
  Q 472.76 54.85 472.18 52.38
  L 469.70 41.76
  A 1.72 1.71 75.6 0 1 470.90 39.71
  L 492.47 33.58
  A 1.57 1.55 75.2 0 0 493.55 31.70
  L 491.09 21.58
  A 1.06 1.04 71.2 0 0 489.64 20.85
  L 460.80 33.65
  A 1.65 1.63 -15.8 0 0 459.83 35.36
  C 460.26 38.81 460.80 41.43 463.29 44.27
  Q 472.87 55.18 467.67 69.53
  A 1.65 1.62 -42.5 0 0 467.62 70.48
  L 471.96 88.09
  A 0.96 0.95 72.4 0 0 473.23 88.76
  L 504.58 76.33
  A 1.62 1.44 81.4 0 0 505.51 74.91
  L 505.78 66.39
  Q 505.85 64.16 503.93 65.13
  L 479.88 77.22
  A 1.30 1.30 -22.7 0 1 478.07 76.48"
/>
<path stroke="#df6300" vector-effect="non-scaling-stroke" d="
  M 509.72 41.69
  Q 509.18 64.34 508.99 88.22
  A 1.27 1.15 -86.4 0 0 509.99 89.48
  L 514.66 90.09
  A 1.26 1.23 -82.0 0 0 516.04 89.02
  L 518.50 72.23
  Q 518.94 69.25 521.55 70.64
  Q 531.73 76.02 542.89 75.60
  Q 544.98 75.52 546.20 77.23
  C 550.61 83.42 549.81 87.81 549.24 94.84
  A 0.84 0.80 -80.2 0 0 549.82 95.70
  L 558.01 98.00
  A 0.79 0.78 -81.9 0 0 559.00 97.24
  C 559.08 89.40 558.92 80.24 553.94 74.03
  Q 552.69 72.47 554.15 71.11
  C 562.08 63.77 564.41 55.18 558.61 45.75
  C 552.02 35.03 536.19 34.46 525.30 37.74
  A 1.61 1.59 -30.8 0 1 523.72 37.35
  C 521.53 35.19 513.95 34.64 511.01 34.17
  A 1.09 1.09 4.0 0 0 509.75 35.26
  Q 509.80 38.47 509.72 41.69"
/>
<path stroke="#df6300" vector-effect="non-scaling-stroke" d="
  M 414.19 38.98
  L 413.76 88.93
  A 2.02 1.76 5.9 0 0 415.43 90.72
  L 418.70 91.31
  Q 420.73 91.68 420.99 89.86
  L 422.97 75.75
  Q 423.34 73.14 425.75 74.34
  C 435.51 79.19 446.73 82.07 456.58 76.00
  C 472.62 66.13 467.35 44.67 449.99 40.79
  Q 439.76 38.50 429.77 41.56
  Q 428.47 41.95 427.70 40.97
  A 1.69 1.04 68.9 0 0 426.96 40.41
  Q 421.68 38.76 415.13 38.15
  A 0.86 0.84 3.1 0 0 414.19 38.98"
/>
<path stroke="#df6300" vector-effect="non-scaling-stroke" d="
  M 395.16 44.29
  A 0.78 0.63 71.4 0 0 394.84 45.15
  Q 398.31 58.18 401.72 70.73
  C 403.34 76.67 403.72 81.75 398.81 85.56
  Q 388.38 93.66 378.25 84.73
  Q 375.14 81.99 374.50 79.00
  Q 370.83 61.88 366.88 44.55
  A 1.25 1.23 74.9 0 0 365.31 43.63
  L 358.60 45.72
  A 0.80 0.79 73.5 0 0 358.08 46.70
  Q 362.43 62.02 366.72 77.08
  C 369.46 86.71 371.57 91.90 380.94 94.81
  C 392.92 98.54 408.03 95.17 409.99 80.69
  Q 410.52 76.71 409.00 70.00
  Q 405.90 56.34 402.37 42.23
  A 0.95 0.85 71.1 0 0 401.16 41.55
  L 395.16 44.29"
/>
<path stroke="#df6300" vector-effect="non-scaling-stroke" d="
  M 542.25 67.69
  C 557.91 66.72 558.56 48.61 543.42 44.61
  Q 532.90 41.83 523.30 46.82
  A 2.99 2.68 -11.7 0 0 521.75 48.92
  L 520.37 59.01
  A 2.68 2.42 23.7 0 0 521.43 61.37
  Q 530.78 68.39 542.25 67.69"
/>
<path stroke="#df6300" vector-effect="non-scaling-stroke" d="
  M 447.00 71.50
  C 459.83 70.29 463.48 55.59 450.87 49.86
  Q 439.45 44.66 427.59 50.74
  A 2.92 2.40 -13.3 0 0 426.05 52.77
  L 424.82 63.68
  A 1.09 0.88 27.1 0 0 425.19 64.52
  Q 434.63 72.66 447.00 71.50"
/>
<path stroke="#df8080" vector-effect="non-scaling-stroke" d="
  M 411.00 144.04
  Q 412.47 141.89 410.44 141.06
  C 398.30 136.09 383.02 138.30 374.51 148.81
  C 368.05 156.80 361.71 172.86 372.61 180.42"
/>
</g>
<path fill="#ffc600" d="
  M 362.71 77.00
  Q 361.65 71.44 361.79 76.75
  Q 363.28 102.33 341.41 113.09
  C 337.79 114.87 335.82 116.07 332.58 115.78
  A 3.30 2.97 -13.6 0 1 330.29 114.54
  L 319.42 99.68
  A 3.41 2.70 -70.1 0 1 318.85 97.97
  Q 318.61 93.36 322.52 92.58
  C 331.37 90.78 342.28 87.76 347.58 79.85
  A 1.07 1.06 31.2 0 0 347.20 78.32
  Q 344.64 76.91 341.74 76.71
  Q 325.81 75.60 322.25 74.50
  C 314.44 72.08 310.51 66.42 310.19 58.35
  C 309.49 40.79 322.54 26.11 334.39 14.33
  C 337.79 10.95 341.25 11.88 342.94 16.31
  Q 345.29 22.49 347.59 28.68
  C 349.77 34.55 346.41 35.87 341.58 39.17
  C 335.53 43.31 327.17 48.85 325.16 56.18
  Q 324.49 58.61 326.74 59.74
  Q 329.81 61.29 333.25 61.53
  Q 341.25 62.07 349.24 62.65
  Q 355.46 63.10 359.29 67.64
  Q 360.74 69.35 360.07 67.21
  Q 357.17 57.91 354.75 48.50
  C 353.05 41.88 359.73 41.31 364.19 40.18
  C 368.15 39.17 369.89 41.20 370.75 44.90
  Q 374.29 60.23 377.63 75.62
  C 379.25 83.08 385.23 87.28 392.73 84.75
  C 397.01 83.30 400.24 79.38 398.90 74.65
  Q 395.54 62.74 392.50 50.75
  Q 391.27 45.89 391.62 42.93
  A 1.49 1.42 -20.1 0 1 392.04 42.08
  Q 395.27 38.98 400.25 38.25
  C 405.67 37.46 405.82 40.35 406.91 44.83
  Q 408.56 51.60 409.87 58.44
  Q 410.00 59.14 410.27 58.69
  C 411.24 57.09 410.55 41.22 410.56 38.19
  C 410.60 31.28 426.70 36.28 430.03 37.35
  A 1.74 1.73 -43.0 0 0 430.98 37.38
  C 438.21 35.67 448.86 35.75 455.76 38.59
  Q 456.99 39.10 456.60 37.83
  Q 454.97 32.54 459.36 30.47
  Q 478.37 21.48 487.25 17.75
  C 492.09 15.72 494.26 18.28 495.23 22.82
  C 496.28 27.74 500.10 35.64 492.50 37.50
  Q 486.06 39.07 474.28 42.67
  A 0.55 0.54 -14.9 0 0 473.90 43.31
  L 475.40 49.52
  A 0.51 0.49 -19.4 0 0 476.10 49.84
  C 480.26 47.93 486.93 45.37 492.00 45.48
  A 1.39 1.33 -22.6 0 1 492.88 45.82
  Q 496.92 49.40 497.03 54.65
  C 497.11 58.22 494.86 59.10 492.00 60.25
  Q 486.49 62.46 479.76 65.27
  A 1.00 0.98 72.1 0 0 479.18 66.42
  L 480.59 72.12
  A 0.41 0.41 -20.0 0 0 481.17 72.39
  L 502.41 61.71
  A 2.69 2.55 34.0 0 1 503.91 61.46
  C 506.44 61.76 505.72 60.48 505.77 58.88
  Q 506.20 46.22 506.31 33.55
  A 1.24 1.04 71.8 0 1 506.65 32.70
  L 508.37 31.07
  A 1.34 1.09 19.7 0 1 509.25 30.76
  Q 516.76 30.93 524.02 32.87
  Q 524.26 32.93 524.86 33.34
  Q 525.55 33.81 526.75 33.50
  C 543.46 29.20 565.44 35.56 565.53 56.19
  Q 565.57 65.00 558.19 72.44
  A 0.69 0.67 -37.9 0 0 558.08 73.25
  C 561.73 79.66 562.36 84.77 562.48 92.67
  C 562.56 97.84 563.31 102.28 556.50 101.50
  Q 555.05 101.33 550.19 99.98
  Q 544.50 98.40 545.73 92.53
  C 546.73 87.76 546.30 83.84 543.43 79.80
  A 1.78 1.78 -19.0 0 0 541.91 79.06
  Q 531.96 79.51 522.51 75.11
  A 0.57 0.57 16.1 0 0 521.71 75.55
  Q 520.85 82.26 519.75 89.25
  C 519.30 92.08 518.07 93.50 515.02 93.54
  C 511.02 93.59 508.03 93.71 505.79 90.66
  A 1.52 1.43 28.8 0 1 505.50 89.76
  L 505.58 80.64
  A 0.42 0.41 78.8 0 0 505.01 80.25
  Q 490.55 86.08 476.06 91.81
  C 471.23 93.72 468.78 91.47 467.70 86.81
  Q 466.28 80.68 465.07 74.96
  Q 464.85 73.88 464.08 74.67
  C 453.58 85.35 439.87 84.82 427.06 79.03
  A 0.78 0.76 16.0 0 0 425.97 79.61
  L 424.44 91.69
  Q 424.06 94.67 421.75 94.75
  C 418.76 94.85 412.29 95.16 410.84 91.69
  A 0.86 0.86 -37.2 0 0 409.37 91.49
  C 399.15 104.61 373.88 102.12 366.22 87.45
  C 364.67 84.49 363.97 80.50 362.71 77.00
  Z
  M 337.08 16.79
  Q 328.48 25.26 322.31 33.81
  C 315.82 42.82 306.62 64.64 322.38 70.50
  C 328.65 72.83 339.85 72.27 346.69 73.81
  C 351.71 74.94 352.59 79.32 349.62 83.26
  C 343.47 91.43 332.55 94.32 322.98 96.25
  A 0.94 0.93 66.0 0 0 322.42 97.73
  L 332.47 111.36
  A 1.48 1.47 63.3 0 0 334.08 111.90
  Q 356.12 105.24 358.50 81.75
  C 359.31 73.78 357.01 66.56 347.75 66.07
  Q 339.24 65.62 330.79 64.74
  C 316.07 63.19 321.39 51.09 328.31 44.81
  Q 335.35 38.43 343.67 33.29
  A 1.92 1.90 -26.5 0 0 344.46 30.98
  L 338.62 15.77
  A 0.55 0.46 66.2 0 0 337.95 15.44
  Q 337.64 15.60 337.51 15.95
  Q 337.29 16.58 337.08 16.79
  Z
  M 478.07 76.48
  Q 476.10 70.74 475.01 64.06
  A 0.91 0.91 73.7 0 1 475.55 63.07
  L 492.78 55.80
  A 1.04 1.02 -18.2 0 0 493.39 54.62
  Q 492.51 50.97 491.07 49.13
  A 0.73 0.70 -28.4 0 0 490.27 48.91
  L 475.20 54.02
  Q 472.76 54.85 472.18 52.38
  L 469.70 41.76
  A 1.72 1.71 75.6 0 1 470.90 39.71
  L 492.47 33.58
  A 1.57 1.55 75.2 0 0 493.55 31.70
  L 491.09 21.58
  A 1.06 1.04 71.2 0 0 489.64 20.85
  L 460.80 33.65
  A 1.65 1.63 -15.8 0 0 459.83 35.36
  C 460.26 38.81 460.80 41.43 463.29 44.27
  Q 472.87 55.18 467.67 69.53
  A 1.65 1.62 -42.5 0 0 467.62 70.48
  L 471.96 88.09
  A 0.96 0.95 72.4 0 0 473.23 88.76
  L 504.58 76.33
  A 1.62 1.44 81.4 0 0 505.51 74.91
  L 505.78 66.39
  Q 505.85 64.16 503.93 65.13
  L 479.88 77.22
  A 1.30 1.30 -22.7 0 1 478.07 76.48
  Z
  M 509.72 41.69
  Q 509.18 64.34 508.99 88.22
  A 1.27 1.15 -86.4 0 0 509.99 89.48
  L 514.66 90.09
  A 1.26 1.23 -82.0 0 0 516.04 89.02
  L 518.50 72.23
  Q 518.94 69.25 521.55 70.64
  Q 531.73 76.02 542.89 75.60
  Q 544.98 75.52 546.20 77.23
  C 550.61 83.42 549.81 87.81 549.24 94.84
  A 0.84 0.80 -80.2 0 0 549.82 95.70
  L 558.01 98.00
  A 0.79 0.78 -81.9 0 0 559.00 97.24
  C 559.08 89.40 558.92 80.24 553.94 74.03
  Q 552.69 72.47 554.15 71.11
  C 562.08 63.77 564.41 55.18 558.61 45.75
  C 552.02 35.03 536.19 34.46 525.30 37.74
  A 1.61 1.59 -30.8 0 1 523.72 37.35
  C 521.53 35.19 513.95 34.64 511.01 34.17
  A 1.09 1.09 4.0 0 0 509.75 35.26
  Q 509.80 38.47 509.72 41.69
  Z
  M 414.19 38.98
  L 413.76 88.93
  A 2.02 1.76 5.9 0 0 415.43 90.72
  L 418.70 91.31
  Q 420.73 91.68 420.99 89.86
  L 422.97 75.75
  Q 423.34 73.14 425.75 74.34
  C 435.51 79.19 446.73 82.07 456.58 76.00
  C 472.62 66.13 467.35 44.67 449.99 40.79
  Q 439.76 38.50 429.77 41.56
  Q 428.47 41.95 427.70 40.97
  A 1.69 1.04 68.9 0 0 426.96 40.41
  Q 421.68 38.76 415.13 38.15
  A 0.86 0.84 3.1 0 0 414.19 38.98
  Z
  M 395.16 44.29
  A 0.78 0.63 71.4 0 0 394.84 45.15
  Q 398.31 58.18 401.72 70.73
  C 403.34 76.67 403.72 81.75 398.81 85.56
  Q 388.38 93.66 378.25 84.73
  Q 375.14 81.99 374.50 79.00
  Q 370.83 61.88 366.88 44.55
  A 1.25 1.23 74.9 0 0 365.31 43.63
  L 358.60 45.72
  A 0.80 0.79 73.5 0 0 358.08 46.70
  Q 362.43 62.02 366.72 77.08
  C 369.46 86.71 371.57 91.90 380.94 94.81
  C 392.92 98.54 408.03 95.17 409.99 80.69
  Q 410.52 76.71 409.00 70.00
  Q 405.90 56.34 402.37 42.23
  A 0.95 0.85 71.1 0 0 401.16 41.55
  L 395.16 44.29
  Z"
/>
<path fill="#be0000" d="
  M 337.51 15.95
  Q 337.64 15.60 337.95 15.44
  A 0.55 0.46 66.2 0 1 338.62 15.77
  L 344.46 30.98
  A 1.92 1.90 -26.5 0 1 343.67 33.29
  Q 335.35 38.43 328.31 44.81
  C 321.39 51.09 316.07 63.19 330.79 64.74
  Q 339.24 65.62 347.75 66.07
  C 357.01 66.56 359.31 73.78 358.50 81.75
  Q 356.12 105.24 334.08 111.90
  A 1.48 1.47 63.3 0 1 332.47 111.36
  L 322.42 97.73
  A 0.94 0.93 66.0 0 1 322.98 96.25
  C 332.55 94.32 343.47 91.43 349.62 83.26
  C 352.59 79.32 351.71 74.94 346.69 73.81
  C 339.85 72.27 328.65 72.83 322.38 70.50
  C 306.62 64.64 315.82 42.82 322.31 33.81
  Q 328.48 25.26 337.08 16.79
  Q 337.29 16.58 337.51 15.95
  Z"
/>
<path fill="#be0000" d="
  M 478.07 76.48
  A 1.30 1.30 -22.7 0 0 479.88 77.22
  L 503.93 65.13
  Q 505.85 64.16 505.78 66.39
  L 505.51 74.91
  A 1.62 1.44 81.4 0 1 504.58 76.33
  L 473.23 88.76
  A 0.96 0.95 72.4 0 1 471.96 88.09
  L 467.62 70.48
  A 1.65 1.62 -42.5 0 1 467.67 69.53
  Q 472.87 55.18 463.29 44.27
  C 460.80 41.43 460.26 38.81 459.83 35.36
  A 1.65 1.63 -15.8 0 1 460.80 33.65
  L 489.64 20.85
  A 1.06 1.04 71.2 0 1 491.09 21.58
  L 493.55 31.70
  A 1.57 1.55 75.2 0 1 492.47 33.58
  L 470.90 39.71
  A 1.72 1.71 75.6 0 0 469.70 41.76
  L 472.18 52.38
  Q 472.76 54.85 475.20 54.02
  L 490.27 48.91
  A 0.73 0.70 -28.4 0 1 491.07 49.13
  Q 492.51 50.97 493.39 54.62
  A 1.04 1.02 -18.2 0 1 492.78 55.80
  L 475.55 63.07
  A 0.91 0.91 73.7 0 0 475.01 64.06
  Q 476.10 70.74 478.07 76.48
  Z"
/>
<path fill="#be0000" d="
  M 509.72 41.69
  Q 509.80 38.47 509.75 35.26
  A 1.09 1.09 4.0 0 1 511.01 34.17
  C 513.95 34.64 521.53 35.19 523.72 37.35
  A 1.61 1.59 -30.8 0 0 525.30 37.74
  C 536.19 34.46 552.02 35.03 558.61 45.75
  C 564.41 55.18 562.08 63.77 554.15 71.11
  Q 552.69 72.47 553.94 74.03
  C 558.92 80.24 559.08 89.40 559.00 97.24
  A 0.79 0.78 -81.9 0 1 558.01 98.00
  L 549.82 95.70
  A 0.84 0.80 -80.2 0 1 549.24 94.84
  C 549.81 87.81 550.61 83.42 546.20 77.23
  Q 544.98 75.52 542.89 75.60
  Q 531.73 76.02 521.55 70.64
  Q 518.94 69.25 518.50 72.23
  L 516.04 89.02
  A 1.26 1.23 -82.0 0 1 514.66 90.09
  L 509.99 89.48
  A 1.27 1.15 -86.4 0 1 508.99 88.22
  Q 509.18 64.34 509.72 41.69
  Z
  M 542.25 67.69
  C 557.91 66.72 558.56 48.61 543.42 44.61
  Q 532.90 41.83 523.30 46.82
  A 2.99 2.68 -11.7 0 0 521.75 48.92
  L 520.37 59.01
  A 2.68 2.42 23.7 0 0 521.43 61.37
  Q 530.78 68.39 542.25 67.69
  Z"
/>
<path fill="#be0000" d="
  M 414.19 38.98
  A 0.86 0.84 3.1 0 1 415.13 38.15
  Q 421.68 38.76 426.96 40.41
  A 1.69 1.04 68.9 0 1 427.70 40.97
  Q 428.47 41.95 429.77 41.56
  Q 439.76 38.50 449.99 40.79
  C 467.35 44.67 472.62 66.13 456.58 76.00
  C 446.73 82.07 435.51 79.19 425.75 74.34
  Q 423.34 73.14 422.97 75.75
  L 420.99 89.86
  Q 420.73 91.68 418.70 91.31
  L 415.43 90.72
  A 2.02 1.76 5.9 0 1 413.76 88.93
  L 414.19 38.98
  Z
  M 447.00 71.50
  C 459.83 70.29 463.48 55.59 450.87 49.86
  Q 439.45 44.66 427.59 50.74
  A 2.92 2.40 -13.3 0 0 426.05 52.77
  L 424.82 63.68
  A 1.09 0.88 27.1 0 0 425.19 64.52
  Q 434.63 72.66 447.00 71.50
  Z"
/>
<path fill="#be0000" d="
  M 395.16 44.29
  L 401.16 41.55
  A 0.95 0.85 71.1 0 1 402.37 42.23
  Q 405.90 56.34 409.00 70.00
  Q 410.52 76.71 409.99 80.69
  C 408.03 95.17 392.92 98.54 380.94 94.81
  C 371.57 91.90 369.46 86.71 366.72 77.08
  Q 362.43 62.02 358.08 46.70
  A 0.80 0.79 73.5 0 1 358.60 45.72
  L 365.31 43.63
  A 1.25 1.23 74.9 0 1 366.88 44.55
  Q 370.83 61.88 374.50 79.00
  Q 375.14 81.99 378.25 84.73
  Q 388.38 93.66 398.81 85.56
  C 403.72 81.75 403.34 76.67 401.72 70.73
  Q 398.31 58.18 394.84 45.15
  A 0.78 0.63 71.4 0 1 395.16 44.29
  Z"
/>
<path fill="#ffc600" d="
  M 543.42 44.61
  C 558.56 48.61 557.91 66.72 542.25 67.69
  Q 530.78 68.39 521.43 61.37
  A 2.68 2.42 23.7 0 1 520.37 59.01
  L 521.75 48.92
  A 2.99 2.68 -11.7 0 1 523.30 46.82
  Q 532.90 41.83 543.42 44.61
  Z
  M 546.71 62.39
  C 551.84 59.23 552.60 54.01 546.99 50.56
  Q 537.19 44.54 525.90 49.80
  A 1.07 0.83 -12.8 0 0 525.31 50.52
  L 524.25 58.24
  A 0.92 0.77 23.5 0 0 524.65 59.03
  C 530.44 63.01 540.00 66.53 546.71 62.39
  Z"
/>
<path fill="#ffc600" d="
  M 450.87 49.86
  C 463.48 55.59 459.83 70.29 447.00 71.50
  Q 434.63 72.66 425.19 64.52
  A 1.09 0.88 27.1 0 1 424.82 63.68
  L 426.05 52.77
  A 2.92 2.40 -13.3 0 1 427.59 50.74
  Q 439.45 44.66 450.87 49.86
  Z
  M 454.06 63.31
  C 456.54 59.54 454.05 56.00 450.58 54.00
  Q 440.66 48.28 430.01 53.83
  A 1.02 0.96 -10.7 0 0 429.48 54.56
  L 428.42 61.91
  A 1.14 1.10 20.3 0 0 428.95 63.01
  C 435.78 67.21 448.45 71.86 454.06 63.31
  Z"
/>
<path fill="#483d02" fill-opacity="0.675" d="
  M 362.71 77.00
  Q 362.20 77.08 361.79 76.75
  Q 361.65 71.44 362.71 77.00
  Z"
/>
<path fill="#be0000" d="
  M 233.54 110.75
  C 226.01 115.61 216.38 119.56 209.82 127.74
  C 207.93 129.74 207.24 128.41 206.78 126.58
  Q 203.19 112.45 192.56 102.43
  Q 190.78 100.76 193.09 99.97
  Q 217.14 91.78 233.54 110.75
  Z"
/>
<path fill="#be0000" d="
  M 185.79 112.25
  C 202.12 138.61 193.73 176.89 184.85 204.50
  Q 184.22 206.46 182.09 206.49
  L 166.10 206.69
  Q 162.06 207.71 161.54 205.39
  Q 161.29 204.29 162.30 201.88
  Q 164.56 196.47 165.63 190.79
  Q 167.02 188.32 167.21 185.50
  C 170.05 175.20 174.74 152.37 168.92 143.40
  C 158.24 128.02 139.35 146.92 131.95 155.31
  C 119.52 169.39 109.31 186.72 100.59 203.29
  C 98.78 206.72 98.65 206.52 94.74 206.50
  Q 60.34 206.30 26.03 206.87
  L 22.50 206.75
  Q 19.25 206.64 20.94 204.19
  Q 36.81 181.19 54.94 159.94
  C 74.62 136.86 95.46 114.79 122.31 103.81
  C 142.63 95.50 169.85 94.04 185.79 112.25
  Z"
/>
<path fill="#ffffff" d="
  M 233.54 110.75
  L 236.96 113.54
  Q 238.91 115.12 236.64 116.21
  C 228.21 120.23 220.06 124.82 213.71 132.21
  C 211.33 134.98 210.64 129.10 209.82 127.74
  C 216.38 119.56 226.01 115.61 233.54 110.75
  Z"
/>
<path fill="#ffffff" d="
  M 185.79 112.25
  C 208.67 134.21 197.75 182.82 189.10 208.93
  Q 188.51 210.73 186.62 210.74
  Q 176.55 210.80 167.86 210.76
  C 164.73 210.74 164.88 208.91 166.10 206.69
  L 182.09 206.49
  Q 184.22 206.46 184.85 204.50
  C 193.73 176.89 202.12 138.61 185.79 112.25
  Z"
/>
<path fill="#be0000" d="
  M 324.29 135.50
  Q 320.63 139.81 316.10 143.14
  A 1.15 1.09 -56.3 0 1 315.21 143.34
  Q 301.73 140.67 286.25 141.50
  C 273.58 142.18 253.35 151.57 257.32 167.23
  Q 258.86 173.31 263.93 176.90
  C 273.93 187.40 298.26 180.56 309.98 176.34
  Q 311.65 175.74 312.25 177.73
  L 313.25 181.04
  L 315.25 190.26
  A 1.67 1.46 71.0 0 1 314.53 192.02
  C 298.22 200.46 273.27 209.06 254.69 206.06
  Q 236.75 203.17 219.75 193.21
  Q 218.95 191.94 217.50 191.79
  Q 210.13 185.34 207.81 178.19
  C 200.78 156.43 210.28 136.79 229.84 126.36
  C 261.63 109.42 294.12 112.59 323.06 133.44
  Q 324.23 134.28 324.29 135.50
  Z"
/>
<path fill="#be0000" d="
  M 456.25 119.46
  Q 446.65 150.30 438.12 182.00
  Q 437.54 184.13 439.74 183.92
  Q 441.36 183.77 442.96 184.50
  L 442.73 187.91
  L 439.71 199.22
  Q 439.22 201.03 438.08 201.99
  C 430.21 208.56 418.71 209.21 409.49 204.91
  L 405.75 201.71
  L 402.64 197.40
  A 0.83 0.80 -34.1 0 0 401.54 197.21
  C 381.59 210.11 357.44 213.16 336.99 199.45
  C 322.44 187.31 315.74 166.35 325.44 148.94
  C 331.89 137.36 342.12 129.36 353.46 123.12
  C 372.58 112.60 394.79 114.58 415.04 120.59
  Q 416.94 121.16 417.43 119.23
  Q 417.94 117.18 419.43 115.87
  A 1.42 1.17 20.2 0 1 420.31 115.56
  Q 437.06 115.60 453.81 115.28
  C 456.86 115.22 457.69 116.83 456.25 119.46
  Z
  M 372.61 180.42
  Q 388.21 186.94 400.68 176.63
  A 1.72 1.65 -11.8 0 0 401.22 175.84
  L 411.00 144.04
  Q 412.47 141.89 410.44 141.06
  C 398.30 136.09 383.02 138.30 374.51 148.81
  C 368.05 156.80 361.71 172.86 372.61 180.42
  Z"
/>
<path fill="#be0000" d="
  M 511.25 119.79
  Q 512.63 121.73 514.50 119.96
  C 534.66 117.44 562.56 113.12 577.82 130.72
  Q 582.38 138.16 583.54 146.75
  Q 583.55 148.04 584.46 148.75
  C 585.60 166.82 575.75 188.74 565.94 203.50
  C 563.74 206.80 563.66 206.81 559.52 206.74
  Q 547.86 206.52 536.29 206.38
  Q 530.60 207.81 530.98 204.70
  Q 531.11 203.56 532.62 201.14
  C 542.29 185.58 553.11 162.78 545.42 144.48
  Q 540.23 138.69 533.08 138.07
  C 526.04 137.45 514.44 140.32 506.62 143.14
  Q 504.92 143.75 504.44 145.49
  Q 496.33 174.78 488.25 204.55
  Q 487.58 207.00 484.25 206.75
  Q 473.65 205.96 453.29 206.50
  Q 452.07 206.06 450.75 206.25
  Q 447.80 206.68 448.69 203.69
  Q 461.35 161.11 472.31 118.06
  C 472.96 115.53 475.43 116.02 477.47 115.99
  Q 492.44 115.77 507.42 115.51
  C 513.69 115.40 509.37 118.21 511.25 119.79
  Z"
/>
<path fill="#ffffff" d="
  M 456.25 119.46
  L 459.43 119.55
  Q 461.64 119.61 460.98 121.75
  Q 451.29 153.23 442.96 184.50
  Q 441.36 183.77 439.74 183.92
  Q 437.54 184.13 438.12 182.00
  Q 446.65 150.30 456.25 119.46
  Z"
/>
<path fill="#ceb9ca" fill-opacity="0.988" d="
  M 511.25 119.79
  L 514.50 119.96
  Q 512.63 121.73 511.25 119.79
  Z"
/>
<path fill="#ffffff" d="
  M 577.82 130.72
  Q 591.89 145.56 587.75 166.00
  Q 583.24 188.29 570.27 207.64
  C 567.87 211.22 568.01 211.08 563.66 210.98
  Q 542.66 210.49 538.25 210.75
  Q 532.33 211.10 536.29 206.38
  Q 547.86 206.52 559.52 206.74
  C 563.66 206.81 563.74 206.80 565.94 203.50
  C 575.75 188.74 585.60 166.82 584.46 148.75
  Q 585.12 146.75 583.54 146.75
  Q 582.38 138.16 577.82 130.72
  Z"
/>
<path fill="#ffffff" d="
  M 324.29 135.50
  L 327.62 137.79
  Q 329.37 139.00 327.82 140.55
  L 321.72 146.66
  Q 320.56 147.81 318.96 147.51
  C 301.35 144.22 272.65 142.23 262.56 161.31
  Q 258.61 168.80 263.93 176.90
  Q 258.86 173.31 257.32 167.23
  C 253.35 151.57 273.58 142.18 286.25 141.50
  Q 301.73 140.67 315.21 143.34
  A 1.15 1.09 -56.3 0 0 316.10 143.14
  Q 320.63 139.81 324.29 135.50
  Z"
/>
<path fill="#ffffff" d="
  M 168.92 143.40
  C 150.51 135.48 128.24 168.44 120.21 181.25
  Q 118.09 182.56 117.79 185.00
  Q 110.49 196.78 103.96 209.27
  Q 103.17 210.77 101.46 210.76
  Q 64.00 210.48 28.00 211.32
  Q 21.89 211.46 26.03 206.87
  Q 60.34 206.30 94.74 206.50
  C 98.65 206.52 98.78 206.72 100.59 203.29
  C 109.31 186.72 119.52 169.39 131.95 155.31
  C 139.35 146.92 158.24 128.02 168.92 143.40
  Z"
/>
<path fill="#ffffff" d="
  M 545.42 144.48
  C 534.89 140.36 520.85 143.52 510.54 147.62
  A 3.05 3.02 -3.3 0 0 508.74 149.62
  L 492.52 209.14
  Q 491.98 211.10 489.97 211.04
  Q 472.37 210.51 455.89 210.50
  C 453.13 210.50 451.83 209.23 453.29 206.50
  Q 473.65 205.96 484.25 206.75
  Q 487.58 207.00 488.25 204.55
  Q 496.33 174.78 504.44 145.49
  Q 504.92 143.75 506.62 143.14
  C 514.44 140.32 526.04 137.45 533.08 138.07
  Q 540.23 138.69 545.42 144.48
  Z"
/>
<path fill="#ffffff" d="
  M 411.00 144.04
  C 398.73 140.88 386.05 143.69 378.17 153.92
  C 373.04 160.58 368.48 172.06 372.61 180.42
  C 361.71 172.86 368.05 156.80 374.51 148.81
  C 383.02 138.30 398.30 136.09 410.44 141.06
  Q 412.47 141.89 411.00 144.04
  Z"
/>
<path fill="#ceb9ca" fill-opacity="0.988" d="
  M 583.54 146.75
  Q 585.12 146.75 584.46 148.75
  Q 583.55 148.04 583.54 146.75
  Z"
/>
<path fill="#be0000" d="
  M 164.93 184.48
  C 151.54 190.93 136.74 189.72 122.54 187.25
  L 117.79 185.00
  Q 118.09 182.56 120.21 181.25
  Q 120.19 182.03 121.17 181.29
  Q 121.84 180.80 122.62 180.54
  Q 138.75 175.32 155.22 178.84
  C 160.16 179.90 163.16 180.19 164.93 184.48
  Z"
/>
<path fill="#ffffff" d="
  M 219.21 193.50
  Q 219.38 193.16 219.75 193.21
  Q 236.75 203.17 254.69 206.06
  C 273.27 209.06 298.22 200.46 314.53 192.02
  A 1.67 1.46 71.0 0 0 315.25 190.26
  L 313.25 181.04
  Q 315.88 179.29 316.50 182.00
  Q 317.97 188.38 319.39 194.27
  A 2.19 2.18 70.2 0 1 318.24 196.73
  C 298.85 206.33 272.80 214.65 251.28 208.82
  C 240.46 205.89 227.47 201.39 219.21 193.50
  Z"
/>
<path fill="#ffffff" d="
  M 164.93 184.48
  L 167.21 185.50
  Q 167.02 188.32 165.63 190.79
  Q 146.80 195.87 127.96 191.69
  C 126.30 191.33 120.90 189.89 122.54 187.25
  C 136.74 189.72 151.54 190.93 164.93 184.48
  Z"
/>
<path fill="#ffffff" d="
  M 442.73 187.91
  L 446.17 188.45
  A 1.36 1.28 11.3 0 1 447.30 190.04
  C 446.42 193.56 444.71 204.50 441.74 206.74
  C 432.63 213.59 417.40 214.39 409.49 204.91
  C 418.71 209.21 430.21 208.56 438.08 201.99
  Q 439.22 201.03 439.71 199.22
  L 442.73 187.91
  Z"
/>
<path fill="#ceb9ca" fill-opacity="0.988" d="
  M 217.50 191.79
  Q 218.95 191.94 219.75 193.21
  Q 219.38 193.16 219.21 193.50
  L 217.50 191.79
  Z"
/>
<path fill="#ffffff" d="
  M 405.75 201.71
  C 384.85 215.12 355.84 218.32 336.99 199.45
  C 357.44 213.16 381.59 210.11 401.54 197.21
  A 0.83 0.80 -34.1 0 1 402.64 197.40
  L 405.75 201.71
  Z"
/>
</svg>
