<?xml version="1.0" encoding="UTF-8" standalone="no"?>
<!DOCTYPE svg PUBLIC "-//W3C//DTD SVG 1.1//EN" "http://www.w3.org/Graphics/SVG/1.1/DTD/svg11.dtd">
<svg xmlns="http://www.w3.org/2000/svg" version="1.1" viewBox="0 0 600 300">
<path fill="#000000" d="
  M 596.43 26.82
  A 19.04 19.04 0.0 0 1 577.39 45.86
  A 19.04 19.04 0.0 0 1 558.35 26.82
  A 19.04 19.04 0.0 0 1 577.39 7.78
  A 19.04 19.04 0.0 0 1 596.43 26.82
  Z
  M 593.80 26.77
  A 16.39 16.39 0.0 0 0 577.41 10.38
  A 16.39 16.39 0.0 0 0 561.02 26.77
  A 16.39 16.39 0.0 0 0 577.41 43.16
  A 16.39 16.39 0.0 0 0 593.80 26.77
  Z"
/>
<path fill="#000000" d="
  M 582.25 27.90
  A 1.05 0.99 66.0 0 0 581.69 29.48
  L 586.51 36.81
  A 0.41 0.40 -25.3 0 1 586.29 37.42
  C 584.73 37.90 583.67 37.51 582.79 36.09
  Q 580.62 32.56 578.34 29.10
  A 1.53 1.37 79.5 0 0 577.59 28.52
  Q 575.24 27.77 572.90 28.52
  A 0.72 0.65 81.2 0 0 572.45 29.20
  C 572.51 31.43 572.44 33.66 572.58 35.89
  Q 572.73 38.28 570.27 37.38
  A 0.75 0.70 -80.5 0 1 569.81 36.69
  L 569.75 16.90
  A 0.66 0.65 -0.0 0 1 570.41 16.25
  Q 575.25 16.25 579.75 16.30
  C 587.09 16.39 588.64 26.36 582.25 27.90
  Z
  M 583.08 23.45
  C 584.32 17.36 576.94 18.46 573.59 18.52
  A 1.04 0.97 -1.1 0 0 572.57 19.51
  L 572.63 25.55
  A 0.62 0.59 3.4 0 0 573.17 26.13
  Q 577.10 26.65 580.95 25.68
  Q 582.72 25.24 583.08 23.45
  Z"
/>
<path fill="#000000" d="
  M 420.81 182.75
  C 421.68 182.72 421.53 181.66 421.71 181.12
  Q 442.02 120.72 462.75 60.46
  Q 468.38 44.07 469.66 41.72
  Q 475.27 31.41 486.31 26.56
  C 505.54 18.13 527.98 24.27 538.19 43.06
  Q 539.69 45.83 542.84 55.26
  Q 567.10 127.78 591.57 199.85
  A 0.49 0.49 80.6 0 1 591.11 200.50
  L 494.02 200.50
  A 0.99 0.96 0.3 0 1 493.03 199.53
  L 493.29 176.82
  A 0.52 0.51 0.0 0 1 493.81 176.31
  L 557.26 176.25
  A 0.54 0.53 80.5 0 0 557.76 175.54
  Q 537.22 115.15 516.69 54.81
  C 513.65 45.89 505.00 41.60 496.56 46.31
  C 492.26 48.72 491.17 52.32 489.63 56.83
  Q 465.31 127.98 440.98 199.81
  A 1.03 1.01 -80.3 0 1 440.02 200.50
  Q 393.84 200.50 348.50 200.50
  Q 334.37 200.50 328.61 199.12
  C 311.27 194.99 297.22 181.06 292.85 163.82
  Q 291.50 158.47 291.50 148.57
  Q 291.50 109.41 291.50 70.25
  Q 291.50 65.62 293.58 59.59
  C 299.21 43.23 311.72 31.38 328.39 27.18
  Q 334.03 25.76 344.25 25.67
  Q 381.47 25.35 419.55 25.50
  A 0.96 0.95 0.3 0 1 420.50 26.45
  L 420.44 49.43
  A 0.51 0.50 -90.0 0 1 419.94 49.94
  Q 404.09 49.99 388.25 50.14
  C 373.10 50.29 356.53 49.78 340.64 50.13
  C 325.55 50.47 316.13 60.68 315.93 75.56
  Q 315.44 113.24 315.94 150.91
  C 316.08 162.27 321.81 171.28 332.69 174.90
  Q 336.78 176.25 344.47 176.25
  Q 369.67 176.25 395.40 176.25
  A 0.85 0.85 0.2 0 0 396.25 175.40
  L 396.25 110.75
  A 0.69 0.68 90.0 0 0 395.57 110.06
  L 352.44 110.18
  A 0.94 0.92 -0.0 0 1 351.50 109.26
  L 351.50 86.42
  A 0.67 0.67 -0.4 0 1 352.17 85.75
  L 419.94 85.81
  A 0.56 0.56 0.0 0 1 420.50 86.37
  L 420.32 182.19
  A 0.56 0.48 89.5 0 0 420.81 182.75
  Z"
/>
<path fill="#000000" d="
  M 84.44 143.44
  C 83.75 139.88 81.54 140.55 78.78 140.47
  C 69.64 140.21 59.13 140.80 51.13 139.40
  C 20.91 134.11 -1.18 104.19 4.63 73.36
  C 8.94 50.44 25.89 32.43 48.39 27.18
  Q 54.48 25.76 65.24 25.67
  Q 100.36 25.35 135.47 25.50
  C 139.27 25.51 138.97 25.24 139.01 29.02
  Q 139.13 39.30 138.83 49.57
  A 0.53 0.52 0.6 0 1 138.31 50.07
  Q 101.89 50.36 65.46 50.27
  Q 56.25 50.25 51.68 51.62
  C 21.61 60.70 20.51 104.34 50.73 114.14
  C 59.00 116.82 73.87 116.24 81.25 116.25
  C 115.48 116.28 118.25 165.25 85.31 170.21
  Q 83.36 170.50 69.68 170.50
  Q 37.46 170.50 4.27 170.50
  A 0.76 0.76 -89.6 0 1 3.51 169.73
  L 3.56 146.93
  A 0.69 0.68 0.0 0 1 4.25 146.25
  L 81.25 146.25
  Q 84.98 146.25 84.44 143.44
  Z"
/>
<path fill="#000000" d="
  M 202.08 176.20
  Q 241.76 176.29 280.93 176.25
  A 0.92 0.90 -90.0 0 1 281.83 177.17
  L 281.92 199.53
  A 0.96 0.93 89.7 0 1 280.99 200.50
  Q 243.93 200.50 207.26 200.50
  Q 193.23 200.50 187.36 199.07
  C 170.37 194.92 156.69 181.25 152.15 164.39
  Q 150.76 159.26 150.68 150.46
  Q 150.38 119.48 150.46 88.49
  Q 150.51 71.05 150.82 68.52
  C 153.22 48.80 167.88 32.15 187.10 27.22
  Q 192.78 25.77 203.54 25.67
  Q 242.60 25.31 281.59 25.56
  A 0.67 0.66 0.4 0 1 282.25 26.22
  L 282.25 49.29
  A 0.71 0.71 -90.0 0 1 281.54 50.00
  Q 248.53 50.31 215.31 50.06
  C 206.80 50.00 197.70 48.92 190.57 51.71
  Q 179.70 55.97 176.29 66.37
  Q 174.75 71.06 174.75 85.29
  Q 174.75 117.64 174.75 150.00
  C 174.75 167.19 185.87 176.16 202.08 176.20
  Z"
/>
<path fill="#000000" d="
  M 492.48 150.07
  L 475.63 199.79
  A 1.05 1.04 9.3 0 1 474.64 200.50
  L 447.52 200.50
  A 0.56 0.56 -80.7 0 1 446.99 199.76
  Q 471.47 128.16 495.56 57.06
  C 498.77 47.58 508.23 47.60 511.50 57.18
  Q 530.84 113.76 549.82 170.09
  A 0.50 0.50 80.7 0 1 549.35 170.75
  L 494.13 170.75
  A 0.97 0.96 -1.6 0 1 493.16 169.84
  Q 492.58 160.39 493.40 150.52
  A 0.79 0.48 -81.3 0 0 493.09 149.77
  Q 492.97 149.73 492.81 149.75
  A 0.49 0.36 -80.3 0 0 492.48 150.07
  Z
  M 495.04 143.09
  A 0.30 0.30 -80.6 0 0 495.33 143.48
  L 511.72 143.51
  A 0.30 0.30 80.8 0 0 512.01 143.12
  L 503.85 118.70
  A 0.30 0.30 -44.9 0 0 503.28 118.70
  L 495.04 143.09
  Z"
/>
<path fill="#000000" d="
  M 137.99 132.15
  C 144.67 165.00 121.39 195.87 88.75 200.25
  Q 84.95 200.76 69.25 200.77
  Q 36.66 200.78 4.47 200.69
  A 0.96 0.93 0.3 0 1 3.51 199.75
  L 3.73 176.75
  A 0.51 0.51 -89.4 0 1 4.24 176.25
  Q 41.50 176.42 78.75 176.06
  Q 86.58 175.99 91.08 174.62
  C 123.51 164.73 121.55 118.38 88.84 111.18
  C 81.12 109.47 69.56 110.33 60.25 110.03
  C 30.28 109.08 24.68 66.90 52.60 57.46
  Q 56.89 56.02 65.06 55.92
  Q 101.68 55.47 138.31 55.93
  A 0.53 0.50 1.1 0 1 138.83 56.44
  L 138.70 79.30
  A 0.75 0.71 -0.4 0 1 137.96 80.01
  L 60.75 80.24
  A 1.49 1.40 23.4 0 0 59.86 80.56
  C 56.18 83.61 59.26 85.94 62.63 85.94
  C 72.05 85.93 82.08 84.95 91.40 86.68
  C 114.94 91.06 133.25 108.83 137.99 132.15
  Z"
/>
<path fill="#000000" d="
  M 205.95 85.69
  L 263.83 85.75
  A 0.67 0.67 0.4 0 1 264.50 86.42
  L 264.50 109.46
  A 0.54 0.54 -0.2 0 1 263.96 110.00
  L 181.42 110.06
  A 0.67 0.67 -90.0 0 1 180.75 109.39
  Q 180.75 92.92 180.75 76.95
  C 180.75 67.03 185.14 58.60 195.25 56.30
  Q 197.67 55.75 211.79 55.75
  Q 246.73 55.75 281.38 55.75
  A 0.87 0.87 0.7 0 1 282.25 56.62
  L 282.25 79.31
  A 0.69 0.69 0.0 0 1 281.56 80.00
  Q 246.25 80.00 211.50 79.90
  Q 206.74 79.89 204.99 84.27
  A 1.04 1.03 -79.2 0 0 205.95 85.69
  Z"
/>
<path fill="#000000" d="
  M 365.43 140.52
  Q 358.84 139.97 352.23 140.50
  A 0.67 0.67 -2.4 0 1 351.50 139.83
  L 351.50 116.72
  A 0.77 0.76 -1.2 0 1 352.24 115.96
  Q 371.50 115.38 389.94 116.04
  A 0.52 0.52 1.1 0 1 390.44 116.56
  L 390.50 170.00
  A 0.50 0.50 0.0 0 1 390.00 170.50
  Q 367.28 170.50 344.55 170.50
  C 330.14 170.50 321.50 164.44 321.50 148.50
  Q 321.50 114.47 321.50 80.44
  C 321.50 69.45 323.21 61.12 333.76 57.07
  Q 337.19 55.75 343.43 55.75
  Q 381.82 55.75 420.00 55.75
  A 0.58 0.57 90.0 0 1 420.57 56.33
  L 420.50 79.48
  A 0.52 0.51 90.0 0 1 419.99 80.00
  Q 385.88 80.00 352.25 80.03
  C 347.03 80.03 346.00 83.26 346.00 87.96
  Q 346.00 113.76 346.00 139.57
  C 346.00 148.47 358.60 146.54 365.31 146.10
  A 0.62 0.54 -1.8 0 0 365.88 145.57
  L 365.98 141.05
  A 0.59 0.52 2.8 0 0 365.43 140.52
  Z"
/>
<path fill="#000000" d="
  M 212.01 146.19
  Q 246.60 146.25 281.20 146.31
  A 0.50 0.49 90.0 0 1 281.69 146.81
  L 281.81 169.56
  A 0.51 0.51 -0.6 0 1 281.31 170.07
  Q 241.92 170.41 202.52 170.22
  C 193.10 170.17 185.70 167.70 182.21 158.70
  Q 180.75 154.95 180.75 146.61
  Q 180.75 132.24 180.75 117.06
  A 0.81 0.81 0.0 0 1 181.56 116.25
  L 263.89 116.25
  A 0.69 0.68 90.0 0 1 264.57 116.94
  L 264.50 139.17
  A 1.35 1.35 18.5 0 1 263.14 140.51
  L 205.97 140.32
  A 1.05 1.04 81.2 0 0 204.98 141.69
  C 206.08 145.13 208.37 146.19 212.01 146.19
  Z"
/>
<path fill="#000000" d="
  M 594.89 241.88
  A 32.10 32.10 0.0 0 1 562.79 273.98
  L 38.21 273.98
  A 32.10 32.10 0.0 0 1 6.11 241.88
  L 6.11 241.12
  A 32.10 32.10 0.0 0 1 38.21 209.02
  L 562.79 209.02
  A 32.10 32.10 0.0 0 1 594.89 241.12
  L 594.89 241.88
  Z
  M 62.80 257.45
  A 2.48 2.47 -75.9 0 1 61.50 255.27
  Q 61.50 243.34 61.50 232.48
  C 61.50 228.88 61.06 226.54 64.82 225.59
  C 70.18 224.22 78.46 224.39 76.88 232.61
  A 1.17 1.17 -84.7 0 0 78.03 234.00
  L 90.56 234.00
  A 0.67 0.66 3.4 0 0 91.22 233.42
  C 93.02 219.03 77.97 217.85 67.96 217.98
  C 61.20 218.07 46.25 219.41 46.25 229.25
  Q 46.25 239.83 46.25 250.41
  C 46.25 255.20 46.05 258.41 49.31 261.19
  C 56.17 267.03 71.16 266.79 79.30 264.91
  C 88.80 262.71 92.32 258.76 91.03 248.81
  A 1.18 1.14 86.1 0 0 89.88 247.78
  L 77.69 247.91
  A 0.56 0.53 -88.3 0 0 77.16 248.44
  L 76.77 255.45
  A 2.49 2.46 -11.1 0 1 75.33 257.56
  Q 68.68 260.64 62.80 257.45
  Z
  M 135.80 257.44
  Q 135.13 238.01 135.68 218.81
  A 0.79 0.79 -89.3 0 0 134.89 218.00
  L 121.36 218.00
  A 0.86 0.86 -89.6 0 0 120.50 218.86
  L 120.44 264.36
  A 0.64 0.63 0.4 0 0 121.08 265.00
  L 159.51 265.00
  A 0.99 0.99 0.0 0 0 160.50 264.01
  L 160.50 259.02
  A 1.04 1.03 0.3 0 0 159.47 257.99
  L 136.32 257.94
  A 0.52 0.51 -0.6 0 1 135.80 257.44
  Z
  M 216.56 256.79
  L 219.01 264.34
  A 0.74 0.70 -7.6 0 0 219.69 264.83
  L 233.54 265.06
  A 0.59 0.58 81.7 0 0 234.10 264.29
  L 219.11 218.57
  A 0.83 0.82 80.6 0 0 218.33 218.00
  L 197.64 218.00
  A 1.12 1.11 9.0 0 0 196.58 218.76
  L 181.72 264.35
  A 0.45 0.45 8.9 0 0 182.15 264.94
  L 194.58 264.99
  A 1.26 1.16 -81.2 0 0 195.73 264.07
  L 197.79 256.83
  A 1.09 1.09 -81.6 0 1 198.85 256.04
  L 215.93 256.28
  A 0.73 0.64 80.1 0 1 216.56 256.79
  Z
  M 256.23 251.55
  C 253.28 270.19 292.29 269.15 299.41 259.37
  C 303.95 253.13 299.14 247.73 293.77 244.36
  C 288.25 240.90 282.44 238.87 276.13 235.32
  C 260.92 226.80 287.44 218.74 286.74 231.39
  A 0.60 0.59 1.9 0 0 287.33 232.01
  L 300.35 232.07
  A 0.64 0.63 1.9 0 0 301.00 231.47
  C 301.70 219.86 287.76 217.75 279.20 217.90
  C 272.18 218.01 255.79 219.08 256.53 229.87
  C 257.50 243.91 285.79 244.30 285.97 254.77
  C 286.06 259.96 268.87 262.00 270.61 252.37
  A 1.15 1.14 -85.0 0 0 269.48 251.01
  L 256.81 251.05
  A 0.60 0.58 3.4 0 0 256.23 251.55
  Z
  M 325.22 251.55
  C 322.21 270.17 361.28 269.15 368.42 259.37
  C 377.22 247.28 351.89 239.21 345.12 235.35
  C 329.93 226.68 356.44 218.81 355.74 231.39
  A 0.60 0.59 1.9 0 0 356.33 232.01
  L 369.30 232.07
  A 0.64 0.63 2.4 0 0 369.95 231.48
  C 371.39 213.29 329.35 214.48 325.96 226.90
  C 321.45 243.38 354.77 243.46 354.97 254.76
  C 355.05 259.88 337.99 262.05 339.60 252.39
  A 1.19 1.17 -85.4 0 0 338.44 251.01
  L 325.81 251.05
  A 0.61 0.60 3.9 0 0 325.22 251.55
  Z
  M 411.51 218.42
  A 0.41 0.41 0.0 0 0 411.10 218.01
  L 396.90 218.01
  A 0.41 0.41 0.0 0 0 396.49 218.42
  L 396.49 264.58
  A 0.41 0.41 0.0 0 0 396.90 264.99
  L 411.10 264.99
  A 0.41 0.41 0.0 0 0 411.51 264.58
  L 411.51 218.42
  Z
  M 456.13 257.63
  Q 454.60 256.81 454.59 255.17
  L 454.46 229.41
  Q 454.45 226.73 457.16 225.86
  Q 463.44 223.84 468.62 226.69
  A 1.36 1.35 -86.4 0 1 469.25 227.41
  Q 470.32 230.21 470.05 233.25
  A 0.50 0.45 -87.6 0 0 470.49 233.79
  L 483.56 233.85
  A 0.61 0.57 -86.0 0 0 484.13 233.32
  Q 485.52 222.13 474.50 219.50
  C 466.87 217.68 439.25 215.70 439.25 228.75
  Q 439.25 241.00 439.00 253.25
  C 438.71 267.84 463.43 266.96 472.30 264.91
  C 481.80 262.71 485.32 258.76 484.03 248.81
  A 1.18 1.14 86.1 0 0 482.88 247.78
  L 470.69 247.91
  A 0.56 0.53 -88.3 0 0 470.16 248.44
  L 469.79 255.07
  Q 469.68 257.04 467.83 257.81
  Q 461.39 260.46 456.13 257.63
  Z
  M 511.20 253.25
  C 509.83 269.69 544.82 267.83 552.59 261.63
  C 559.50 256.12 555.30 247.92 548.94 244.31
  Q 545.24 242.21 532.89 236.27
  C 514.10 227.22 542.18 218.44 541.72 231.30
  A 0.68 0.68 -89.2 0 0 542.40 232.00
  L 555.31 232.00
  A 0.69 0.69 -89.6 0 0 556.00 231.32
  Q 556.11 222.83 548.00 220.00
  C 539.52 217.04 518.75 215.89 512.82 225.11
  C 507.48 233.40 518.01 239.83 524.18 242.58
  C 527.51 244.07 538.42 248.48 539.94 251.56
  Q 542.89 257.60 536.23 258.60
  C 531.48 259.32 524.56 259.48 525.57 252.53
  A 1.34 1.33 -85.9 0 0 524.25 251.00
  Q 517.88 251.00 512.00 251.11
  Q 510.57 251.14 511.03 252.31
  Q 511.23 252.82 511.20 253.25
  Z"
/>
<path fill="#000000" d="
  M 200.09 249.52
  L 206.79 227.52
  A 0.37 0.37 40.8 0 1 207.49 227.52
  L 214.19 249.52
  A 0.37 0.37 81.6 0 1 213.84 250.00
  L 200.44 250.00
  A 0.37 0.37 8.4 0 1 200.09 249.52
  Z"
/>
</svg>
