<?xml version="1.0" encoding="UTF-8" standalone="no"?>
<!DOCTYPE svg PUBLIC "-//W3C//DTD SVG 1.1//EN" "http://www.w3.org/Graphics/SVG/1.1/DTD/svg11.dtd">
<svg xmlns="http://www.w3.org/2000/svg" version="1.1" viewBox="0 0 600 300">
<g stroke-width="2.00" fill="none" stroke-linecap="butt">
<path stroke="#17425a" vector-effect="non-scaling-stroke" d="
  M 163.93 127.53
  L 152.29 125.11"
/>
<path stroke="#17425a" vector-effect="non-scaling-stroke" d="
  M 138.00 122.96
  Q 118.75 120.18 105.34 106.36
  Q 104.94 105.94 105.09 106.49
  L 106.52 111.79
  Q 107.08 113.88 105.05 114.00
  Q 103.49 114.10 101.57 112.20
  Q 100.25 110.88 100.50 112.74
  Q 101.36 119.10 100.48 125.33
  C 99.01 135.76 90.79 147.28 92.18 157.75
  A 1.84 1.69 55.1 0 1 92.05 158.71
  Q 86.72 171.20 86.11 184.79"
/>
<path stroke="#8c827c" vector-effect="non-scaling-stroke" d="
  M 127.10 275.55
  C 120.34 269.88 117.20 259.90 123.90 252.85
  A 0.92 0.92 61.3 0 0 124.14 252.02
  Q 123.32 248.14 124.06 243.88
  A 0.70 0.70 0.9 0 0 123.27 243.07
  Q 111.32 244.86 99.00 242.14
  A 2.18 1.74 24.1 0 0 97.05 242.64
  L 93.34 246.76
  Q 92.82 247.34 93.63 247.41
  Q 103.30 248.23 111.93 247.84
  Q 112.48 247.81 112.02 248.09
  C 108.23 250.38 96.27 249.08 91.74 248.56
  A 1.29 1.26 29.9 0 0 90.84 248.79
  C 82.46 254.89 78.70 266.21 77.00 275.46"
/>
<path stroke="#968e87" vector-effect="non-scaling-stroke" d="
  M 74.50 275.46
  Q 75.61 275.05 76.19 273.44
  C 79.33 264.68 81.33 255.87 88.43 249.20
  A 0.80 0.80 -55.7 0 0 88.18 247.87
  C 86.10 247.02 81.94 253.48 81.08 255.15
  C 78.15 260.81 76.65 268.34 73.44 274.19
  Q 72.97 275.03 73.25 275.46"
/>
<path stroke="#8c827c" vector-effect="non-scaling-stroke" d="
  M 71.75 275.46
  Q 76.42 267.21 78.19 261.19
  Q 80.56 253.10 84.93 247.88
  A 0.36 0.36 -59.4 0 0 84.79 247.32
  Q 81.37 245.95 78.23 243.99
  Q 76.75 243.06 78.40 243.63
  L 86.64 246.46
  A 1.63 1.43 -55.3 0 0 88.17 246.08
  L 94.00 240.60
  A 1.06 0.94 -47.2 0 0 94.04 239.08
  Q 85.89 232.79 86.41 223.32
  Q 86.53 221.05 84.95 222.68
  C 77.09 230.73 72.30 243.30 68.44 253.69
  Q 65.20 262.41 58.09 275.13"
/>
<path stroke="#170e07" vector-effect="non-scaling-stroke" d="
  M 27.04 250.25
  L 29.32 251.71"
/>
<path stroke="#8f8580" vector-effect="non-scaling-stroke" d="
  M 29.32 251.71
  Q 28.97 255.71 30.82 259.25
  A 0.46 0.45 -31.4 0 0 31.48 259.41
  Q 34.31 257.50 35.96 254.50"
/>
<path stroke="#170e07" vector-effect="non-scaling-stroke" d="
  M 35.96 254.50
  Q 37.88 253.35 40.06 253.31
  A 0.65 0.55 3.0 0 0 40.68 252.84
  C 40.97 251.11 38.37 251.98 37.25 251.54"
/>
<path stroke="#8d6b4c" vector-effect="non-scaling-stroke" d="
  M 37.25 251.54
  C 48.01 252.24 53.66 240.02 53.69 230.94
  A 0.80 0.80 -13.1 0 1 54.14 230.22
  C 63.07 225.68 60.31 215.54 51.92 212.61
  Q 42.08 209.19 33.29 214.44"
/>
<path stroke="#170e07" vector-effect="non-scaling-stroke" d="
  M 33.29 214.44
  Q 33.16 214.00 32.46 213.75"
/>
<path stroke="#17425a" vector-effect="non-scaling-stroke" d="
  M 32.54 213.25
  C 33.33 213.88 33.58 213.17 34.14 212.90
  Q 45.21 207.51 56.46 212.75"
/>
<path stroke="#7f523b" vector-effect="non-scaling-stroke" d="
  M 79.25 210.79
  L 79.50 210.79"
/>
<path stroke="#4c3a2a" vector-effect="non-scaling-stroke" d="
  M 79.50 210.79
  Q 80.48 210.97 80.92 211.54"
/>
<path stroke="#8d6b4c" vector-effect="non-scaling-stroke" d="
  M 80.92 211.54
  C 84.29 218.30 92.52 229.08 100.27 230.76
  C 108.64 232.58 117.61 233.22 126.18 234.78
  A 0.74 0.73 -69.5 0 0 126.94 234.43
  Q 134.89 221.03 149.80 218.74
  A 0.35 0.35 69.2 0 0 150.04 218.20
  C 149.69 217.66 147.32 214.69 147.98 214.55
  A 1.15 0.63 49.8 0 1 148.79 214.86
  Q 150.59 216.37 152.40 217.85
  C 153.18 218.49 155.83 219.22 153.65 216.86
  Q 151.90 214.97 150.11 213.11
  A 0.49 0.48 46.2 0 1 150.12 212.41
  Q 159.55 203.52 158.84 190.31
  A 0.61 0.60 -8.2 0 1 159.30 189.70
  Q 163.05 188.81 166.46 186.93
  A 0.98 0.98 62.5 0 0 166.86 185.65
  Q 164.74 181.28 161.57 177.38
  Q 161.14 176.87 161.73 176.86
  L 164.19 176.84"
/>
<path stroke="#442612" vector-effect="non-scaling-stroke" d="
  M 164.19 176.84
  Q 163.63 178.48 165.19 180.06
  Q 166.97 181.87 168.69 185.52
  A 1.19 1.19 57.4 0 1 168.38 186.94
  Q 165.88 189.02 162.67 190.32
  Q 161.01 191.00 160.99 192.79
  Q 160.84 203.39 152.81 211.83
  A 1.52 1.51 -44.9 0 0 152.80 213.91
  L 154.71 215.93
  A 1.15 1.15 -43.0 0 0 156.33 215.98
  Q 162.98 209.79 170.75 209.79"
/>
<path stroke="#4b2916" vector-effect="non-scaling-stroke" d="
  M 170.75 209.79
  Q 171.85 210.11 176.19 212.06
  C 178.66 213.17 179.78 211.48 181.39 210.09
  C 199.42 194.62 203.34 169.20 190.21 149.30"
/>
<path stroke="#512e18" vector-effect="non-scaling-stroke" d="
  M 190.21 149.30
  Q 183.84 139.33 173.50 133.96"
/>
<path stroke="#55301a" vector-effect="non-scaling-stroke" d="
  M 173.50 133.96
  C 160.77 127.72 148.68 125.86 135.59 123.62
  Q 121.98 121.30 110.32 114.29
  Q 109.51 113.80 109.68 114.69
  L 111.00 121.46"
/>
<path stroke="#442612" vector-effect="non-scaling-stroke" d="
  M 111.00 121.46
  Q 108.38 120.55 106.72 118.29
  Q 103.93 114.49 104.00 119.25
  Q 104.06 123.87 101.49 130.21
  C 98.97 136.39 93.99 145.38 94.50 152.01
  Q 94.58 153.00 95.30 152.32
  C 98.54 149.32 105.63 144.47 106.00 139.99
  Q 106.15 138.18 106.56 139.92
  L 108.86 149.73"
/>
<path stroke="#8d6b4c" vector-effect="non-scaling-stroke" d="
  M 108.86 149.73
  L 106.20 144.96
  A 0.41 0.38 56.0 0 0 105.61 144.82
  Q 100.24 149.26 96.19 154.94
  Q 94.32 157.56 96.69 155.44
  C 102.75 150.02 106.12 153.45 106.54 160.25"
/>
<path stroke="#442612" vector-effect="non-scaling-stroke" d="
  M 106.54 160.25
  Q 105.37 161.52 105.23 159.56
  C 104.70 152.29 99.24 154.27 96.07 157.63
  Q 92.20 161.73 91.10 168.11
  Q 90.94 169.08 91.68 168.44
  Q 99.20 161.99 101.08 171.26
  C 101.25 172.09 102.24 174.11 100.27 173.23"
/>
<path stroke="#968e87" vector-effect="non-scaling-stroke" d="
  M 100.27 173.23
  C 93.31 172.88 90.99 184.60 91.29 189.25"
/>
<path stroke="#442612" vector-effect="non-scaling-stroke" d="
  M 91.29 189.25
  Q 91.23 189.48 91.00 189.54"
/>
<path stroke="#8d6b4c" vector-effect="non-scaling-stroke" d="
  M 91.00 189.54
  C 89.69 188.23 90.39 187.06 90.48 185.65
  C 90.83 180.42 92.73 171.52 99.07 171.09
  A 0.45 0.41 -8.4 0 0 99.48 170.58
  Q 99.14 169.16 97.70 167.48
  A 1.34 1.33 53.0 0 0 95.94 167.23
  Q 92.22 169.69 90.11 173.34
  C 88.06 176.88 88.25 181.51 87.13 185.77
  A 1.61 1.52 -13.3 0 1 86.61 186.56
  C 85.44 187.54 76.13 197.06 78.00 198.79"
/>
<path stroke="#4c3a2a" vector-effect="non-scaling-stroke" d="
  M 78.00 198.79
  Q 78.32 199.22 78.29 199.75"
/>
<path stroke="#7f523b" vector-effect="non-scaling-stroke" d="
  M 78.29 199.75
  Q 77.06 200.78 77.54 202.25"
/>
<path stroke="#4c3a2a" vector-effect="non-scaling-stroke" d="
  M 77.54 202.25
  Q 77.77 202.73 77.79 203.25"
/>
<path stroke="#7f523b" vector-effect="non-scaling-stroke" d="
  M 77.79 203.25
  Q 77.59 206.21 79.50 208.29"
/>
<path stroke="#4c3a2a" vector-effect="non-scaling-stroke" d="
  M 79.50 208.29
  L 79.79 208.75"
/>
<path stroke="#7f523b" vector-effect="non-scaling-stroke" d="
  M 79.79 208.75
  L 78.96 210.50"
/>
<path stroke="#9c7057" vector-effect="non-scaling-stroke" d="
  M 79.50 210.79
  C 84.05 208.96 90.42 204.28 86.07 198.53
  A 1.79 1.76 -16.2 0 0 84.79 197.84
  Q 80.40 197.53 78.29 199.75"
/>
<path stroke="#774124" vector-effect="non-scaling-stroke" d="
  M 173.50 133.96
  L 167.75 134.00
  Q 166.37 134.01 163.81 135.06
  C 158.93 137.08 153.90 138.86 149.04 140.92
  C 146.39 142.05 143.42 142.22 140.88 144.19
  Q 140.54 144.46 140.01 144.61
  Q 138.39 145.06 137.75 146.71"
/>
<path stroke="#6b3a1e" vector-effect="non-scaling-stroke" d="
  M 137.75 146.71
  C 126.14 140.50 118.66 132.07 111.00 121.46"
/>
<path stroke="#765d45" vector-effect="non-scaling-stroke" d="
  M 37.25 251.54
  C 17.49 247.77 24.16 224.59 33.29 214.44"
/>
<path stroke="#8d6b4c" vector-effect="non-scaling-stroke" d="
  M 116.54 160.75
  C 111.94 163.53 109.52 165.86 110.35 170.78
  Q 110.56 172.07 111.28 170.98
  C 113.39 167.80 112.95 170.71 113.18 171.77
  Q 114.06 175.71 116.27 178.69
  Q 117.54 180.40 117.50 178.27
  C 117.44 174.77 118.96 168.14 122.13 166.56
  Q 123.93 165.66 125.83 166.35
  Q 133.88 169.27 142.00 169.21"
/>
<path stroke="#ab8967" vector-effect="non-scaling-stroke" d="
  M 80.92 211.54
  C 85.35 208.18 90.47 204.76 88.06 199.94
  C 85.66 195.13 81.63 196.03 78.00 198.79"
/>
<path stroke="#a37550" vector-effect="non-scaling-stroke" d="
  M 91.00 189.54
  L 97.01 195.39
  A 1.12 1.11 -35.5 0 0 98.26 195.59
  C 105.24 192.25 104.07 187.83 105.75 181.29"
/>
<path stroke="#a37550" vector-effect="non-scaling-stroke" d="
  M 105.75 181.29
  L 107.96 176.50"
/>
<path stroke="#8d6b4c" vector-effect="non-scaling-stroke" d="
  M 107.96 176.50
  Q 110.94 173.07 107.45 170.20"
/>
<path stroke="#a37550" vector-effect="non-scaling-stroke" d="
  M 107.45 170.20
  L 106.54 160.25"
/>
<path stroke="#67381c" vector-effect="non-scaling-stroke" d="
  M 137.75 146.71
  Q 143.28 149.64 149.50 150.29"
/>
<path stroke="#61331a" vector-effect="non-scaling-stroke" d="
  M 149.50 150.29
  C 162.11 151.40 177.08 149.13 177.26 167.27
  C 177.28 168.95 175.71 172.98 179.72 171.26
  C 184.84 169.07 190.19 166.29 195.81 165.97
  A 0.52 0.51 -4.6 0 1 196.36 166.43
  C 196.71 170.62 197.75 174.37 196.50 179.00
  C 195.94 181.09 196.83 182.50 196.15 184.68
  C 193.52 193.11 189.67 201.66 183.08 207.49
  C 180.54 209.74 179.09 212.93 174.81 210.44
  Q 172.56 209.13 170.75 209.79"
/>
<path stroke="#a37550" vector-effect="non-scaling-stroke" d="
  M 164.19 176.84
  Q 161.99 173.90 158.99 171.96
  A 0.37 0.32 44.6 0 1 158.94 171.37
  C 159.72 170.93 162.78 172.83 160.66 169.82
  A 2.11 2.10 -20.4 0 0 158.71 168.93
  Q 150.00 169.82 142.00 169.21"
/>
<path stroke="#442612" vector-effect="non-scaling-stroke" d="
  M 142.00 169.21
  Q 142.40 167.83 141.00 167.75
  Q 131.59 167.20 124.40 164.49
  A 1.49 1.40 45.0 0 0 123.45 164.46
  Q 118.79 165.97 117.29 170.48
  C 116.90 171.67 117.13 173.38 116.44 174.65
  Q 115.69 176.03 115.26 174.52
  C 114.45 171.70 114.97 168.71 113.15 166.26
  A 0.89 0.88 46.8 0 1 113.18 165.17
  Q 114.76 163.29 117.27 162.62
  A 1.12 0.83 -2.0 0 0 117.98 162.05
  Q 118.44 160.83 116.54 160.75"
/>
<path stroke="#a37550" vector-effect="non-scaling-stroke" d="
  M 116.54 160.75
  Q 110.97 156.23 108.86 149.73"
/>
<path stroke="#6d3b20" vector-effect="non-scaling-stroke" d="
  M 190.21 149.30
  Q 186.65 146.74 183.98 143.25
  Q 181.39 139.86 177.50 142.00
  Q 172.87 144.56 165.81 146.31
  Q 163.04 147.00 161.40 148.19
  A 1.69 1.57 24.2 0 1 160.51 148.49
  Q 158.94 148.53 157.84 149.63
  A 1.32 1.22 20.0 0 1 157.00 149.98
  L 149.50 150.29"
/>
<path stroke="#6b3a1e" vector-effect="non-scaling-stroke" d="
  M 91.75 189.54
  L 97.19 193.86
  A 0.97 0.85 52.5 0 0 98.04 194.03
  Q 103.92 191.94 97.84 188.97"
/>
<path stroke="#5a3016" vector-effect="non-scaling-stroke" d="
  M 97.84 188.97
  Q 96.11 183.93 101.00 183.04"
/>
<path stroke="#ac988b" vector-effect="non-scaling-stroke" d="
  M 101.00 183.04
  Q 99.83 184.04 99.43 185.45
  A 0.66 0.65 -67.6 0 0 99.73 186.20
  Q 102.11 187.59 103.23 184.49"
/>
<path stroke="#5a3016" vector-effect="non-scaling-stroke" d="
  M 103.23 184.49
  Q 103.66 179.71 100.00 176.54"
/>
<path stroke="#442612" vector-effect="non-scaling-stroke" d="
  M 107.45 170.20
  Q 107.59 172.43 107.27 174.68
  C 107.15 175.51 106.09 176.64 107.96 176.50"
/>
<path stroke="#5a3016" vector-effect="non-scaling-stroke" d="
  M 105.75 181.29
  C 102.36 180.18 103.81 176.52 101.00 175.96"
/>
<path stroke="#ac988b" vector-effect="non-scaling-stroke" d="
  M 101.00 175.96
  L 100.27 173.23"
/>
<path stroke="#787779" vector-effect="non-scaling-stroke" d="
  M 35.96 254.50
  Q 32.49 253.93 29.32 251.71"
/>
<path stroke="#9c7057" vector-effect="non-scaling-stroke" d="
  M 79.79 208.75
  L 82.71 205.16
  A 0.95 0.90 56.1 0 0 82.86 204.27
  Q 81.67 200.56 77.54 202.25"
/>
<path stroke="#9c7057" vector-effect="non-scaling-stroke" d="
  M 79.50 208.29
  L 82.26 204.94
  A 0.86 0.70 52.4 0 0 82.28 204.06
  Q 80.74 201.31 77.79 203.25"
/>
<path stroke="#ac988b" vector-effect="non-scaling-stroke" d="
  M 101.00 175.96
  Q 100.58 176.41 100.00 176.54"
/>
<path stroke="#ac988b" vector-effect="non-scaling-stroke" d="
  M 100.00 176.54
  Q 93.72 179.75 92.64 187.11"
/>
<path stroke="#bda193" vector-effect="non-scaling-stroke" d="
  M 92.64 187.11
  Q 92.89 188.76 91.75 189.54"
/>
<path stroke="#ac988b" vector-effect="non-scaling-stroke" d="
  M 91.75 189.54
  L 91.29 189.25"
/>
<path stroke="#ac988b" vector-effect="non-scaling-stroke" d="
  M 103.23 184.49
  Q 102.99 182.18 101.00 183.04"
/>
<path stroke="#6b3a1e" vector-effect="non-scaling-stroke" d="
  M 97.84 188.97
  Q 95.41 187.06 92.64 187.11"
/>
<path stroke="#7f523b" vector-effect="non-scaling-stroke" d="
  M 167.00 219.21
  L 170.00 220.71"
/>
<path stroke="#8d6b4c" vector-effect="non-scaling-stroke" d="
  M 170.00 220.71
  L 174.40 222.42
  A 1.01 0.98 20.6 0 0 175.71 221.85
  C 177.88 215.69 174.82 211.66 168.52 211.64
  Q 161.64 211.62 157.29 217.60
  A 0.32 0.30 -67.4 0 0 157.48 218.10
  L 167.00 219.21"
/>
<path stroke="#dea179" vector-effect="non-scaling-stroke" d="
  M 170.00 220.71
  Q 172.07 216.34 167.00 219.21"
/>
<path stroke="#8c827c" vector-effect="non-scaling-stroke" d="
  M 67.64 239.03
  Q 66.65 237.56 66.50 235.75
  Q 66.29 233.20 65.25 235.50
  C 63.11 240.21 60.79 243.73 54.94 244.03
  A 1.42 1.42 -74.3 0 0 53.82 244.66
  Q 48.67 252.26 40.79 254.44
  A 1.89 1.27 -66.2 0 0 40.00 254.94
  L 35.30 259.77
  Q 34.83 260.26 35.49 260.31
  Q 45.07 261.11 52.11 263.30
  C 58.29 265.23 60.21 265.09 63.25 259.29
  C 69.92 246.58 74.06 231.94 83.96 221.44
  Q 85.67 219.63 83.26 220.25
  Q 73.16 222.83 67.68 231.70
  Q 66.95 232.88 67.26 234.78
  L 67.93 238.93
  Q 68.04 239.61 67.64 239.03"
/>
<path stroke="#86644d" vector-effect="non-scaling-stroke" d="
  M 139.54 271.00
  C 143.20 285.74 165.42 294.86 178.52 288.26
  C 192.35 281.30 196.13 263.51 192.54 249.50"
/>
<path stroke="#8d6b4c" vector-effect="non-scaling-stroke" d="
  M 192.54 249.50
  C 188.28 230.99 171.71 218.38 152.89 220.71
  C 137.21 222.65 128.02 232.00 127.25 248.00
  Q 126.72 259.13 136.03 263.06
  A 0.55 0.54 -65.2 0 0 136.72 262.80
  Q 138.32 259.58 140.42 256.67
  C 141.31 255.44 141.36 256.41 141.16 257.02
  Q 138.94 263.83 139.54 271.00"
/>
<path stroke="#e5b38a" vector-effect="non-scaling-stroke" d="
  M 192.54 249.50
  C 186.07 259.30 188.85 271.77 177.91 278.24
  C 170.28 282.75 159.00 280.71 151.03 277.19
  C 146.78 275.31 145.09 271.94 141.52 269.41
  Q 140.97 269.02 141.00 269.69
  Q 141.06 271.28 139.54 271.00"
/>
<path stroke="#8f8580" vector-effect="non-scaling-stroke" d="
  M 95.89 232.50
  L 89.58 226.72
  Q 88.18 225.43 88.46 227.27
  Q 89.63 234.78 95.82 238.50
  A 0.39 0.34 19.8 0 0 96.39 238.28
  L 96.72 234.15
  A 2.42 1.51 31.3 0 0 95.89 232.50"
/>
<path stroke="#8d6b4c" vector-effect="non-scaling-stroke" d="
  M 61.54 227.41
  A 0.43 0.42 -47.5 0 0 60.85 227.45
  Q 59.10 230.19 56.86 231.67
  A 1.16 1.02 -15.6 0 0 56.37 232.43
  L 55.17 241.70
  Q 55.00 242.98 56.18 242.43
  C 61.82 239.78 65.86 232.96 61.54 227.41"
/>
<path stroke="#8c827c" vector-effect="non-scaling-stroke" d="
  M 99.79 234.75
  Q 100.35 236.56 99.91 239.00
  Q 99.56 240.93 101.46 241.44
  Q 111.25 244.03 123.38 242.02
  A 1.55 1.22 3.1 0 0 124.49 241.24
  L 125.58 238.56
  A 0.57 0.49 20.9 0 0 125.22 237.89
  Q 112.74 233.46 99.10 233.39"
/>
<path stroke="#968e87" vector-effect="non-scaling-stroke" d="
  M 99.10 233.39
  Q 96.59 235.94 97.88 239.41
  Q 98.62 241.41 99.00 239.26
  L 99.79 234.75"
/>
<path stroke="#f4f3f5" vector-effect="non-scaling-stroke" d="
  M 99.10 233.39
  L 99.79 234.75"
/>
<path stroke="#968e87" vector-effect="non-scaling-stroke" d="
  M 90.16 245.66
  A 1.04 1.03 48.3 0 0 90.10 246.83
  C 91.14 248.56 96.31 241.45 96.70 240.75
  Q 96.96 240.29 96.46 240.44
  Q 93.29 241.45 90.16 245.66"
/>
<path stroke="#86644d" vector-effect="non-scaling-stroke" d="
  M 125.24 257.69
  C 118.99 265.74 128.28 276.56 136.94 275.75
  A 0.51 0.50 -6.1 0 0 137.40 275.19
  L 136.39 266.69
  A 0.88 0.82 8.1 0 0 135.84 266.01
  Q 129.78 263.68 126.03 257.73
  A 0.49 0.48 47.7 0 0 125.24 257.69"
/>
<path stroke="#a58f84" vector-effect="non-scaling-stroke" d="
  M 123.68 146.19
  Q 118.94 152.60 120.50 160.51
  Q 120.77 161.85 121.34 160.61
  Q 124.35 154.10 124.69 146.55
  Q 124.77 144.73 123.68 146.19"
/>
<path stroke="#947c6f" vector-effect="non-scaling-stroke" d="
  M 116.25 147.71
  C 115.26 150.74 112.70 151.20 115.19 154.81
  C 115.33 155.02 117.46 162.94 117.49 158.50
  Q 117.52 153.28 117.00 148.08
  Q 116.79 146.06 116.25 147.71"
/>
<path stroke="#ac988b" vector-effect="non-scaling-stroke" d="
  M 126.92 153.93
  Q 124.50 156.68 124.50 160.01
  Q 124.50 161.69 125.31 160.22
  Q 126.78 157.53 127.27 154.09
  Q 127.37 153.41 126.92 153.93"
/>
<path stroke="#a37550" vector-effect="non-scaling-stroke" d="
  M 136.46 176.98
  Q 130.54 178.24 124.45 179.50
  C 122.65 179.87 121.06 179.01 120.36 177.45
  Q 119.84 176.28 119.21 177.40
  Q 115.22 184.53 118.55 192.10
  A 0.83 0.82 -37.1 0 1 118.43 192.95
  C 116.00 195.90 116.77 197.79 116.62 201.18
  C 116.52 203.40 118.07 202.56 119.32 202.44
  Q 128.13 201.66 135.55 206.32
  C 136.31 206.79 136.76 207.74 137.75 206.71"
/>
<path stroke="#b47f58" vector-effect="non-scaling-stroke" d="
  M 137.75 206.71
  Q 138.80 206.33 139.54 205.50"
/>
<path stroke="#a37550" vector-effect="non-scaling-stroke" d="
  M 139.54 205.50
  Q 142.59 203.78 144.01 201.07"
/>
<path stroke="#8d6b4c" vector-effect="non-scaling-stroke" d="
  M 144.01 201.07
  Q 146.07 198.84 146.50 196.23
  Q 146.76 194.70 147.57 196.03
  Q 149.26 198.79 149.79 202.25"
/>
<path stroke="#a37550" vector-effect="non-scaling-stroke" d="
  M 149.79 202.25
  Q 149.70 203.62 150.36 204.55
  A 0.40 0.38 -45.6 0 0 150.99 204.53
  Q 153.60 200.90 153.54 196.49"
/>
<path stroke="#8d6b4c" vector-effect="non-scaling-stroke" d="
  M 153.54 196.49
  Q 156.20 189.48 154.63 182.27
  C 152.82 173.91 142.72 174.69 136.46 176.98"
/>
<path stroke="#442612" vector-effect="non-scaling-stroke" d="
  M 153.54 196.49
  Q 154.27 189.10 152.25 182.00
  C 151.16 178.15 148.61 177.26 144.65 177.37
  Q 140.55 177.48 136.46 176.98"
/>
<path stroke="#442612" vector-effect="non-scaling-stroke" d="
  M 149.79 202.25
  Q 151.84 202.12 150.70 199.84
  Q 150.31 199.06 150.14 198.20
  C 149.28 193.66 146.10 190.56 141.39 189.84
  Q 134.80 188.84 128.44 191.27"
/>
<path stroke="#ac988b" vector-effect="non-scaling-stroke" d="
  M 128.44 191.27
  L 120.44 192.40
  A 1.28 0.92 7.1 0 0 119.64 192.84
  Q 117.49 195.92 117.76 199.82
  A 1.46 1.45 -0.4 0 0 119.15 201.18
  L 126.80 201.57"
/>
<path stroke="#6b3a1e" vector-effect="non-scaling-stroke" d="
  M 126.80 201.57
  Q 133.12 202.31 137.75 206.71"
/>
<path stroke="#442612" vector-effect="non-scaling-stroke" d="
  M 144.01 201.07
  Q 142.54 198.03 144.44 195.44
  Q 145.02 194.64 144.49 194.19
  A 1.76 0.94 26.3 0 1 143.97 193.46
  C 142.92 190.08 128.56 189.10 128.71 196.00"
/>
<path stroke="#55301a" vector-effect="non-scaling-stroke" d="
  M 128.71 196.00
  Q 128.17 196.95 127.25 197.46"
/>
<path stroke="#968e87" vector-effect="non-scaling-stroke" d="
  M 127.25 197.46
  L 128.44 191.27"
/>
<path stroke="#bda193" vector-effect="non-scaling-stroke" d="
  M 127.25 197.46
  L 126.80 201.57"
/>
<path stroke="#6b3a1e" vector-effect="non-scaling-stroke" d="
  M 139.54 205.50
  C 137.65 201.69 133.19 199.70 129.66 198.25
  A 1.42 0.98 6.7 0 1 128.94 197.62
  Q 128.61 196.88 128.71 196.00"
/>
<path stroke="#8d6b4c" vector-effect="non-scaling-stroke" d="
  M 109.93 176.51
  C 109.32 173.49 107.85 180.90 109.78 177.44
  A 1.44 1.26 -39.6 0 0 109.93 176.51"
/>
<path stroke="#a37550" vector-effect="non-scaling-stroke" d="
  M 107.92 179.86
  C 106.95 181.14 106.86 183.98 107.00 185.52
  Q 107.15 187.12 107.56 185.56
  C 107.62 185.33 109.94 177.21 107.92 179.86"
/>
<path stroke="#a37550" vector-effect="non-scaling-stroke" d="
  M 114.55 180.52
  Q 112.67 185.12 115.17 189.26
  Q 115.44 189.70 115.42 189.19
  Q 115.24 184.69 115.75 180.25
  C 116.02 177.96 114.70 180.15 114.55 180.52"
/>
<path stroke="#dea179" vector-effect="non-scaling-stroke" d="
  M 109.02 200.27
  C 106.91 199.38 100.61 195.37 99.13 198.53
  C 96.58 203.97 108.65 208.02 111.60 205.16
  C 114.01 202.83 111.02 201.13 109.02 200.27"
/>
<path stroke="#8d6b4c" vector-effect="non-scaling-stroke" d="
  M 101.39 216.84
  C 99.84 211.55 94.77 207.76 89.29 207.57
  A 0.91 0.69 11.7 0 0 88.51 207.94
  Q 88.27 208.40 89.00 208.50
  Q 97.52 209.66 100.19 217.32
  C 100.99 219.61 101.93 218.68 101.39 216.84"
/>
<path stroke="#4b3129" vector-effect="non-scaling-stroke" d="
  M 139.00 193.79
  C 135.07 193.74 132.66 197.24 135.86 200.11
  Q 138.42 202.40 140.81 198.97"
/>
<path stroke="#ac988b" vector-effect="non-scaling-stroke" d="
  M 140.81 198.97
  L 143.49 196.42
  Q 145.11 194.87 142.83 193.70
  Q 140.88 192.69 139.00 193.79"
/>
<path stroke="#9d989d" vector-effect="non-scaling-stroke" d="
  M 140.81 198.97
  Q 134.94 198.09 139.00 193.79"
/>
</g>
<path fill="#0068a5" d="
  M 115.81 45.57
  C 103.64 45.24 91.70 51.32 83.00 59.75
  A 0.37 0.30 -40.3 0 1 82.49 59.76
  L 82.39 59.61
  A 0.46 0.32 -58.4 0 1 82.37 59.26
  Q 87.94 40.92 93.29 22.51
  C 96.14 12.66 105.17 8.80 108.87 20.92
  Q 112.47 32.70 116.18 45.09
  A 0.38 0.37 83.1 0 1 115.81 45.57
  Z"
/>
<path fill="#0068a5" d="
  M 163.93 127.53
  L 152.29 125.11
  C 150.24 118.88 145.96 105.56 138.18 110.17
  C 132.32 113.65 136.10 118.79 138.00 122.96
  Q 118.75 120.18 105.34 106.36
  Q 104.94 105.94 105.09 106.49
  L 106.52 111.79
  Q 107.08 113.88 105.05 114.00
  Q 103.49 114.10 101.57 112.20
  Q 100.25 110.88 100.50 112.74
  Q 101.36 119.10 100.48 125.33
  C 99.01 135.76 90.79 147.28 92.18 157.75
  A 1.84 1.69 55.1 0 1 92.05 158.71
  Q 86.72 171.20 86.11 184.79
  Q 70.75 190.46 57.75 189.25
  Q 49.25 188.46 44.02 180.66
  A 1.03 1.00 37.9 0 1 43.90 179.77
  L 48.50 166.52
  A 1.19 1.12 -60.2 0 0 48.20 165.27
  C 43.48 161.04 28.33 145.23 28.66 139.30
  C 28.86 135.87 33.19 133.39 35.97 135.19
  Q 37.11 135.92 39.18 139.09
  Q 51.17 157.43 69.91 168.78
  C 73.63 171.03 77.96 171.88 80.25 167.50
  Q 82.99 162.26 77.55 158.96
  C 58.05 147.13 42.60 128.08 39.75 105.00
  Q 39.03 99.14 41.42 93.47
  C 42.61 90.65 44.01 90.89 46.65 91.52
  Q 48.70 92.01 49.45 90.04
  Q 54.33 77.27 63.31 65.56
  C 67.98 59.48 76.17 65.46 71.31 71.81
  Q 59.05 87.85 54.50 108.50
  C 53.58 112.65 52.75 116.29 56.58 118.81
  C 60.50 121.39 65.18 118.79 66.06 114.31
  C 69.86 95.15 80.20 75.75 96.56 64.80
  C 104.34 59.59 110.59 56.60 119.49 58.75
  A 0.88 0.85 -0.9 0 1 120.12 59.34
  L 122.89 68.56
  A 1.48 1.45 83.6 0 0 124.19 69.62
  C 130.80 70.09 144.78 71.32 149.48 75.24
  C 152.70 77.92 151.02 82.80 147.10 83.65
  C 145.15 84.08 143.60 83.16 142.01 82.73
  Q 121.72 77.19 102.25 81.00
  C 96.29 82.17 95.73 91.14 101.62 92.85
  Q 103.36 93.35 107.89 92.83
  C 128.97 90.39 151.77 95.54 167.62 110.38
  Q 171.89 114.38 174.19 119.62
  A 0.87 0.87 -26.7 0 1 173.82 120.73
  Q 168.45 123.69 163.93 127.53
  Z"
/>
<rect fill="#000000" x="498.26" y="75.24" width="31.48" height="9.76" rx="0.52"/>
<path fill="#000000" d="
  M 303.31 162.55
  A 0.45 0.44 -90.0 0 1 302.87 163.00
  Q 294.80 163.00 286.79 163.00
  C 273.96 163.00 264.45 164.44 259.84 152.58
  Q 258.50 149.13 258.50 142.72
  Q 258.50 116.88 258.50 90.07
  A 0.82 0.82 0.0 0 1 259.32 89.25
  L 302.66 89.19
  A 0.61 0.59 89.5 0 1 303.26 89.80
  L 303.41 103.02
  A 1.46 1.39 90.0 0 1 302.01 104.49
  L 273.00 104.32
  A 0.50 0.50 0.6 0 0 272.49 104.82
  L 272.43 118.06
  A 0.68 0.67 -89.2 0 0 273.09 118.75
  C 282.14 118.98 291.53 118.91 300.53 118.57
  A 0.69 0.69 -1.2 0 1 301.25 119.26
  L 301.25 133.08
  A 0.67 0.67 -0.2 0 1 300.58 133.75
  L 273.24 133.75
  A 0.83 0.83 89.3 0 0 272.41 134.60
  C 272.53 139.53 270.25 147.75 277.50 147.75
  Q 289.75 147.75 302.75 147.75
  A 0.51 0.50 90.0 0 1 303.25 148.26
  L 303.31 162.55
  Z"
/>
<path fill="#000000" d="
  M 375.32 118.68
  L 402.97 118.68
  A 1.02 0.99 -0.0 0 0 403.99 117.69
  L 403.82 89.97
  A 0.71 0.69 89.6 0 1 404.51 89.25
  L 416.77 89.25
  A 0.97 0.96 0.3 0 1 417.74 90.22
  L 417.57 162.31
  A 0.54 0.51 -90.0 0 1 417.07 162.84
  L 404.61 163.01
  A 0.62 0.60 89.5 0 1 404.00 162.39
  L 404.00 134.42
  A 0.67 0.67 0.0 0 0 403.33 133.75
  L 375.58 133.81
  A 0.88 0.85 -89.7 0 0 374.73 134.68
  L 374.57 162.32
  A 0.53 0.51 -90.0 0 1 374.06 162.85
  L 361.44 162.84
  A 0.53 0.51 90.0 0 1 360.93 162.31
  L 360.76 90.10
  A 0.79 0.78 -0.7 0 1 361.54 89.31
  L 373.92 89.18
  A 0.83 0.82 89.7 0 1 374.75 90.01
  L 374.81 118.19
  A 0.51 0.49 -0.0 0 0 375.32 118.68
  Z"
/>
<path fill="#000000" d="
  M 551.50 104.75
  C 551.96 97.89 556.26 91.04 563.05 89.54
  Q 564.38 89.25 572.48 89.26
  Q 582.95 89.28 593.86 89.18
  A 0.64 0.63 -0.0 0 1 594.50 89.81
  L 594.50 103.83
  A 0.67 0.66 -89.6 0 1 593.83 104.50
  Q 584.12 104.46 574.86 104.54
  C 570.68 104.58 567.16 105.51 567.97 110.45
  A 1.76 1.49 22.4 0 0 568.41 111.30
  Q 576.48 119.84 588.81 131.69
  C 597.14 139.68 596.40 157.38 584.53 162.08
  Q 582.20 163.00 576.86 163.00
  Q 564.72 163.00 552.13 163.00
  A 0.88 0.88 0.0 0 1 551.25 162.12
  L 551.25 148.42
  A 0.67 0.66 -89.6 0 1 551.92 147.75
  Q 561.82 147.79 571.26 147.71
  C 575.65 147.67 580.87 145.05 576.44 140.18
  Q 567.66 130.54 558.03 121.73
  Q 550.81 115.13 551.50 104.75
  Z"
/>
<path fill="#000000" d="
  M 238.56 104.32
  L 212.43 104.49
  A 0.94 0.92 89.7 0 1 211.50 103.55
  L 211.50 90.13
  A 0.88 0.88 0.0 0 1 212.38 89.25
  L 252.49 89.31
  A 0.76 0.76 0.0 0 1 253.25 90.07
  L 253.25 162.18
  A 0.82 0.82 0.0 0 1 252.43 163.00
  L 240.19 163.00
  A 0.94 0.94 0.0 0 1 239.25 162.06
  L 239.31 105.06
  A 0.75 0.73 0.4 0 0 238.56 104.32
  Z"
/>
<path fill="#000000" d="
  M 319.77 135.68
  C 320.67 141.76 326.28 146.79 332.23 147.69
  C 337.73 148.53 347.64 147.75 354.65 147.75
  A 0.85 0.85 -0.0 0 1 355.50 148.60
  L 355.50 162.33
  A 0.67 0.67 -0.2 0 1 354.83 163.00
  Q 343.25 163.00 332.25 163.00
  C 319.56 163.00 306.11 147.91 305.89 135.50
  C 305.74 127.67 304.74 116.63 307.41 109.48
  C 311.23 99.24 321.96 88.91 333.75 89.10
  Q 343.62 89.25 354.73 89.25
  A 0.77 0.77 -89.5 0 1 355.50 90.02
  L 355.50 103.51
  A 0.99 0.99 -0.5 0 1 354.51 104.50
  Q 345.08 104.50 335.47 104.50
  C 326.88 104.50 319.75 109.73 319.75 118.89
  C 319.75 124.14 319.28 132.38 319.77 135.68
  Z"
/>
<path fill="#000000" d="
  M 436.56 105.07
  L 436.50 162.48
  A 0.52 0.51 -90.0 0 1 435.99 163.00
  L 423.31 163.00
  A 0.56 0.56 0.0 0 1 422.75 162.44
  L 422.75 89.75
  A 0.50 0.50 0.0 0 1 423.25 89.25
  Q 437.25 89.25 451.25 89.25
  C 462.15 89.25 472.81 100.90 476.19 110.06
  C 477.43 113.43 477.24 117.29 477.26 121.11
  Q 477.38 141.71 477.07 162.31
  A 0.54 0.51 -89.4 0 1 476.56 162.84
  L 464.07 162.96
  A 0.52 0.51 -90.0 0 1 463.56 162.44
  Q 463.38 126.17 463.50 119.00
  C 463.65 109.97 455.86 104.12 447.47 104.36
  C 443.61 104.47 440.53 104.42 437.06 104.54
  A 0.53 0.52 88.9 0 0 436.56 105.07
  Z"
/>
<path fill="#000000" d="
  M 483.74 109.75
  C 487.15 100.05 497.28 90.29 507.69 89.25
  C 521.63 87.86 532.24 90.34 540.81 102.44
  Q 546.23 110.09 546.12 118.50
  C 546.01 126.77 547.39 137.67 543.64 145.16
  C 538.87 154.69 528.99 163.38 517.75 163.10
  Q 513.75 163.00 509.75 163.02
  C 496.96 163.08 482.68 148.98 482.58 136.25
  C 482.52 128.32 481.24 116.88 483.74 109.75
  Z
  M 532.28 118.96
  A 14.50 14.50 0.0 0 0 517.78 104.46
  L 510.70 104.46
  A 14.50 14.50 0.0 0 0 496.20 118.96
  L 496.20 133.28
  A 14.50 14.50 0.0 0 0 510.70 147.78
  L 517.78 147.78
  A 14.50 14.50 0.0 0 0 532.28 133.28
  L 532.28 118.96
  Z"
/>
<path fill="#0068a5" d="
  M 200.36 93.88
  C 209.33 100.19 190.12 110.56 185.43 113.25
  A 0.48 0.47 61.4 0 1 184.77 113.05
  Q 177.71 99.52 164.62 92.73
  Q 161.77 91.25 164.98 91.25
  Q 178.88 91.25 192.75 91.43
  Q 196.96 91.49 200.36 93.88
  Z"
/>
<path fill="#0068a5" d="
  M 0.93 95.45
  Q 4.14 91.66 9.25 91.56
  Q 18.62 91.38 28.02 91.25
  A 0.76 0.76 -79.2 0 1 28.73 92.30
  C 25.41 100.39 27.71 112.90 30.69 120.82
  Q 31.30 122.43 29.85 121.49
  Q 20.51 115.39 10.81 109.20
  C 5.35 105.71 2.44 104.25 0.34 99.25
  Q -0.53 97.17 0.93 95.45
  Z"
/>
<path fill="#2e1c0e" d="
  M 138.00 122.96
  L 152.29 125.11
  L 163.93 127.53
  Q 191.71 134.59 199.35 160.09
  C 205.55 180.76 195.93 199.05 180.56 212.66
  A 1.95 1.94 60.2 0 0 180.00 214.74
  Q 181.62 219.65 179.24 224.01
  A 2.05 2.04 32.6 0 0 179.82 226.63
  Q 193.31 236.66 196.69 253.56
  C 199.31 266.67 194.11 283.63 181.55 290.02
  C 167.84 296.99 150.21 289.92 140.76 279.19
  A 1.28 1.24 71.8 0 0 139.94 278.76
  Q 133.29 278.03 127.10 275.55
  C 120.34 269.88 117.20 259.90 123.90 252.85
  A 0.92 0.92 61.3 0 0 124.14 252.02
  Q 123.32 248.14 124.06 243.88
  A 0.70 0.70 0.9 0 0 123.27 243.07
  Q 111.32 244.86 99.00 242.14
  A 2.18 1.74 24.1 0 0 97.05 242.64
  L 93.34 246.76
  Q 92.82 247.34 93.63 247.41
  Q 103.30 248.23 111.93 247.84
  Q 112.48 247.81 112.02 248.09
  C 108.23 250.38 96.27 249.08 91.74 248.56
  A 1.29 1.26 29.9 0 0 90.84 248.79
  C 82.46 254.89 78.70 266.21 77.00 275.46
  L 74.50 275.46
  Q 75.61 275.05 76.19 273.44
  C 79.33 264.68 81.33 255.87 88.43 249.20
  A 0.80 0.80 -55.7 0 0 88.18 247.87
  C 86.10 247.02 81.94 253.48 81.08 255.15
  C 78.15 260.81 76.65 268.34 73.44 274.19
  Q 72.97 275.03 73.25 275.46
  L 71.75 275.46
  Q 76.42 267.21 78.19 261.19
  Q 80.56 253.10 84.93 247.88
  A 0.36 0.36 -59.4 0 0 84.79 247.32
  Q 81.37 245.95 78.23 243.99
  Q 76.75 243.06 78.40 243.63
  L 86.64 246.46
  A 1.63 1.43 -55.3 0 0 88.17 246.08
  L 94.00 240.60
  A 1.06 0.94 -47.2 0 0 94.04 239.08
  Q 85.89 232.79 86.41 223.32
  Q 86.53 221.05 84.95 222.68
  C 77.09 230.73 72.30 243.30 68.44 253.69
  Q 65.20 262.41 58.09 275.13
  Q 56.41 275.49 54.48 275.10
  A 0.30 0.27 -65.4 0 1 54.34 274.64
  L 58.38 268.90
  A 1.52 1.41 26.2 0 0 57.54 266.69
  C 49.47 264.04 40.21 262.14 31.30 263.13
  A 0.78 0.76 70.7 0 1 30.55 262.76
  Q 27.13 257.02 27.04 250.25
  L 29.32 251.71
  Q 28.97 255.71 30.82 259.25
  A 0.46 0.45 -31.4 0 0 31.48 259.41
  Q 34.31 257.50 35.96 254.50
  Q 37.88 253.35 40.06 253.31
  A 0.65 0.55 3.0 0 0 40.68 252.84
  C 40.97 251.11 38.37 251.98 37.25 251.54
  C 48.01 252.24 53.66 240.02 53.69 230.94
  A 0.80 0.80 -13.1 0 1 54.14 230.22
  C 63.07 225.68 60.31 215.54 51.92 212.61
  Q 42.08 209.19 33.29 214.44
  Q 33.16 214.00 32.46 213.75
  L 32.54 213.25
  C 33.33 213.88 33.58 213.17 34.14 212.90
  Q 45.21 207.51 56.46 212.75
  Q 62.25 217.15 61.61 224.43
  A 1.50 1.33 33.0 0 0 61.86 225.34
  L 64.77 229.70
  A 0.91 0.88 51.6 0 0 66.13 229.88
  C 70.78 225.47 74.44 220.62 80.75 219.50
  Q 84.26 218.88 82.24 216.01
  Q 80.50 213.54 79.25 210.79
  L 79.50 210.79
  Q 80.48 210.97 80.92 211.54
  C 84.29 218.30 92.52 229.08 100.27 230.76
  C 108.64 232.58 117.61 233.22 126.18 234.78
  A 0.74 0.73 -69.5 0 0 126.94 234.43
  Q 134.89 221.03 149.80 218.74
  A 0.35 0.35 69.2 0 0 150.04 218.20
  C 149.69 217.66 147.32 214.69 147.98 214.55
  A 1.15 0.63 49.8 0 1 148.79 214.86
  Q 150.59 216.37 152.40 217.85
  C 153.18 218.49 155.83 219.22 153.65 216.86
  Q 151.90 214.97 150.11 213.11
  A 0.49 0.48 46.2 0 1 150.12 212.41
  Q 159.55 203.52 158.84 190.31
  A 0.61 0.60 -8.2 0 1 159.30 189.70
  Q 163.05 188.81 166.46 186.93
  A 0.98 0.98 62.5 0 0 166.86 185.65
  Q 164.74 181.28 161.57 177.38
  Q 161.14 176.87 161.73 176.86
  L 164.19 176.84
  Q 163.63 178.48 165.19 180.06
  Q 166.97 181.87 168.69 185.52
  A 1.19 1.19 57.4 0 1 168.38 186.94
  Q 165.88 189.02 162.67 190.32
  Q 161.01 191.00 160.99 192.79
  Q 160.84 203.39 152.81 211.83
  A 1.52 1.51 -44.9 0 0 152.80 213.91
  L 154.71 215.93
  A 1.15 1.15 -43.0 0 0 156.33 215.98
  Q 162.98 209.79 170.75 209.79
  Q 171.85 210.11 176.19 212.06
  C 178.66 213.17 179.78 211.48 181.39 210.09
  C 199.42 194.62 203.34 169.20 190.21 149.30
  Q 183.84 139.33 173.50 133.96
  C 160.77 127.72 148.68 125.86 135.59 123.62
  Q 121.98 121.30 110.32 114.29
  Q 109.51 113.80 109.68 114.69
  L 111.00 121.46
  Q 108.38 120.55 106.72 118.29
  Q 103.93 114.49 104.00 119.25
  Q 104.06 123.87 101.49 130.21
  C 98.97 136.39 93.99 145.38 94.50 152.01
  Q 94.58 153.00 95.30 152.32
  C 98.54 149.32 105.63 144.47 106.00 139.99
  Q 106.15 138.18 106.56 139.92
  L 108.86 149.73
  L 106.20 144.96
  A 0.41 0.38 56.0 0 0 105.61 144.82
  Q 100.24 149.26 96.19 154.94
  Q 94.32 157.56 96.69 155.44
  C 102.75 150.02 106.12 153.45 106.54 160.25
  Q 105.37 161.52 105.23 159.56
  C 104.70 152.29 99.24 154.27 96.07 157.63
  Q 92.20 161.73 91.10 168.11
  Q 90.94 169.08 91.68 168.44
  Q 99.20 161.99 101.08 171.26
  C 101.25 172.09 102.24 174.11 100.27 173.23
  C 93.31 172.88 90.99 184.60 91.29 189.25
  Q 91.23 189.48 91.00 189.54
  C 89.69 188.23 90.39 187.06 90.48 185.65
  C 90.83 180.42 92.73 171.52 99.07 171.09
  A 0.45 0.41 -8.4 0 0 99.48 170.58
  Q 99.14 169.16 97.70 167.48
  A 1.34 1.33 53.0 0 0 95.94 167.23
  Q 92.22 169.69 90.11 173.34
  C 88.06 176.88 88.25 181.51 87.13 185.77
  A 1.61 1.52 -13.3 0 1 86.61 186.56
  C 85.44 187.54 76.13 197.06 78.00 198.79
  Q 78.32 199.22 78.29 199.75
  Q 77.06 200.78 77.54 202.25
  Q 77.77 202.73 77.79 203.25
  Q 77.59 206.21 79.50 208.29
  L 79.79 208.75
  L 78.96 210.50
  Q 76.04 205.74 75.37 200.62
  Q 75.12 198.69 76.00 196.94
  Q 79.51 189.98 86.11 184.79
  Q 86.72 171.20 92.05 158.71
  A 1.84 1.69 55.1 0 0 92.18 157.75
  C 90.79 147.28 99.01 135.76 100.48 125.33
  Q 101.36 119.10 100.50 112.74
  Q 100.25 110.88 101.57 112.20
  Q 103.49 114.10 105.05 114.00
  Q 107.08 113.88 106.52 111.79
  L 105.09 106.49
  Q 104.94 105.94 105.34 106.36
  Q 118.75 120.18 138.00 122.96
  Z
  M 167.00 219.21
  L 170.00 220.71
  L 174.40 222.42
  A 1.01 0.98 20.6 0 0 175.71 221.85
  C 177.88 215.69 174.82 211.66 168.52 211.64
  Q 161.64 211.62 157.29 217.60
  A 0.32 0.30 -67.4 0 0 157.48 218.10
  L 167.00 219.21
  Z
  M 67.64 239.03
  Q 66.65 237.56 66.50 235.75
  Q 66.29 233.20 65.25 235.50
  C 63.11 240.21 60.79 243.73 54.94 244.03
  A 1.42 1.42 -74.3 0 0 53.82 244.66
  Q 48.67 252.26 40.79 254.44
  A 1.89 1.27 -66.2 0 0 40.00 254.94
  L 35.30 259.77
  Q 34.83 260.26 35.49 260.31
  Q 45.07 261.11 52.11 263.30
  C 58.29 265.23 60.21 265.09 63.25 259.29
  C 69.92 246.58 74.06 231.94 83.96 221.44
  Q 85.67 219.63 83.26 220.25
  Q 73.16 222.83 67.68 231.70
  Q 66.95 232.88 67.26 234.78
  L 67.93 238.93
  Q 68.04 239.61 67.64 239.03
  Z
  M 139.54 271.00
  C 143.20 285.74 165.42 294.86 178.52 288.26
  C 192.35 281.30 196.13 263.51 192.54 249.50
  C 188.28 230.99 171.71 218.38 152.89 220.71
  C 137.21 222.65 128.02 232.00 127.25 248.00
  Q 126.72 259.13 136.03 263.06
  A 0.55 0.54 -65.2 0 0 136.72 262.80
  Q 138.32 259.58 140.42 256.67
  C 141.31 255.44 141.36 256.41 141.16 257.02
  Q 138.94 263.83 139.54 271.00
  Z
  M 95.89 232.50
  L 89.58 226.72
  Q 88.18 225.43 88.46 227.27
  Q 89.63 234.78 95.82 238.50
  A 0.39 0.34 19.8 0 0 96.39 238.28
  L 96.72 234.15
  A 2.42 1.51 31.3 0 0 95.89 232.50
  Z
  M 61.54 227.41
  A 0.43 0.42 -47.5 0 0 60.85 227.45
  Q 59.10 230.19 56.86 231.67
  A 1.16 1.02 -15.6 0 0 56.37 232.43
  L 55.17 241.70
  Q 55.00 242.98 56.18 242.43
  C 61.82 239.78 65.86 232.96 61.54 227.41
  Z
  M 99.79 234.75
  Q 100.35 236.56 99.91 239.00
  Q 99.56 240.93 101.46 241.44
  Q 111.25 244.03 123.38 242.02
  A 1.55 1.22 3.1 0 0 124.49 241.24
  L 125.58 238.56
  A 0.57 0.49 20.9 0 0 125.22 237.89
  Q 112.74 233.46 99.10 233.39
  Q 96.59 235.94 97.88 239.41
  Q 98.62 241.41 99.00 239.26
  L 99.79 234.75
  Z
  M 90.16 245.66
  A 1.04 1.03 48.3 0 0 90.10 246.83
  C 91.14 248.56 96.31 241.45 96.70 240.75
  Q 96.96 240.29 96.46 240.44
  Q 93.29 241.45 90.16 245.66
  Z
  M 125.24 257.69
  C 118.99 265.74 128.28 276.56 136.94 275.75
  A 0.51 0.50 -6.1 0 0 137.40 275.19
  L 136.39 266.69
  A 0.88 0.82 8.1 0 0 135.84 266.01
  Q 129.78 263.68 126.03 257.73
  A 0.49 0.48 47.7 0 0 125.24 257.69
  Z"
/>
<path fill="#7b4326" d="
  M 173.50 133.96
  L 167.75 134.00
  Q 166.37 134.01 163.81 135.06
  C 158.93 137.08 153.90 138.86 149.04 140.92
  C 146.39 142.05 143.42 142.22 140.88 144.19
  Q 140.54 144.46 140.01 144.61
  Q 138.39 145.06 137.75 146.71
  C 126.14 140.50 118.66 132.07 111.00 121.46
  L 109.68 114.69
  Q 109.51 113.80 110.32 114.29
  Q 121.98 121.30 135.59 123.62
  C 148.68 125.86 160.77 127.72 173.50 133.96
  Z"
/>
<path fill="#5a3016" d="
  M 111.00 121.46
  C 118.66 132.07 126.14 140.50 137.75 146.71
  Q 143.28 149.64 149.50 150.29
  C 162.11 151.40 177.08 149.13 177.26 167.27
  C 177.28 168.95 175.71 172.98 179.72 171.26
  C 184.84 169.07 190.19 166.29 195.81 165.97
  A 0.52 0.51 -4.6 0 1 196.36 166.43
  C 196.71 170.62 197.75 174.37 196.50 179.00
  C 195.94 181.09 196.83 182.50 196.15 184.68
  C 193.52 193.11 189.67 201.66 183.08 207.49
  C 180.54 209.74 179.09 212.93 174.81 210.44
  Q 172.56 209.13 170.75 209.79
  Q 162.98 209.79 156.33 215.98
  A 1.15 1.15 -43.0 0 1 154.71 215.93
  L 152.80 213.91
  A 1.52 1.51 -44.9 0 1 152.81 211.83
  Q 160.84 203.39 160.99 192.79
  Q 161.01 191.00 162.67 190.32
  Q 165.88 189.02 168.38 186.94
  A 1.19 1.19 57.4 0 0 168.69 185.52
  Q 166.97 181.87 165.19 180.06
  Q 163.63 178.48 164.19 176.84
  Q 161.99 173.90 158.99 171.96
  A 0.37 0.32 44.6 0 1 158.94 171.37
  C 159.72 170.93 162.78 172.83 160.66 169.82
  A 2.11 2.10 -20.4 0 0 158.71 168.93
  Q 150.00 169.82 142.00 169.21
  Q 142.40 167.83 141.00 167.75
  Q 131.59 167.20 124.40 164.49
  A 1.49 1.40 45.0 0 0 123.45 164.46
  Q 118.79 165.97 117.29 170.48
  C 116.90 171.67 117.13 173.38 116.44 174.65
  Q 115.69 176.03 115.26 174.52
  C 114.45 171.70 114.97 168.71 113.15 166.26
  A 0.89 0.88 46.8 0 1 113.18 165.17
  Q 114.76 163.29 117.27 162.62
  A 1.12 0.83 -2.0 0 0 117.98 162.05
  Q 118.44 160.83 116.54 160.75
  Q 110.97 156.23 108.86 149.73
  L 106.56 139.92
  Q 106.15 138.18 106.00 139.99
  C 105.63 144.47 98.54 149.32 95.30 152.32
  Q 94.58 153.00 94.50 152.01
  C 93.99 145.38 98.97 136.39 101.49 130.21
  Q 104.06 123.87 104.00 119.25
  Q 103.93 114.49 106.72 118.29
  Q 108.38 120.55 111.00 121.46
  Z
  M 123.68 146.19
  Q 118.94 152.60 120.50 160.51
  Q 120.77 161.85 121.34 160.61
  Q 124.35 154.10 124.69 146.55
  Q 124.77 144.73 123.68 146.19
  Z
  M 116.25 147.71
  C 115.26 150.74 112.70 151.20 115.19 154.81
  C 115.33 155.02 117.46 162.94 117.49 158.50
  Q 117.52 153.28 117.00 148.08
  Q 116.79 146.06 116.25 147.71
  Z
  M 126.92 153.93
  Q 124.50 156.68 124.50 160.01
  Q 124.50 161.69 125.31 160.22
  Q 126.78 157.53 127.27 154.09
  Q 127.37 153.41 126.92 153.93
  Z"
/>
<path fill="#733f22" d="
  M 173.50 133.96
  Q 183.84 139.33 190.21 149.30
  Q 186.65 146.74 183.98 143.25
  Q 181.39 139.86 177.50 142.00
  Q 172.87 144.56 165.81 146.31
  Q 163.04 147.00 161.40 148.19
  A 1.69 1.57 24.2 0 1 160.51 148.49
  Q 158.94 148.53 157.84 149.63
  A 1.32 1.22 20.0 0 1 157.00 149.98
  L 149.50 150.29
  Q 143.28 149.64 137.75 146.71
  Q 138.39 145.06 140.01 144.61
  Q 140.54 144.46 140.88 144.19
  C 143.42 142.22 146.39 142.05 149.04 140.92
  C 153.90 138.86 158.93 137.08 163.81 135.06
  Q 166.37 134.01 167.75 134.00
  L 173.50 133.96
  Z"
/>
<path fill="#67361d" d="
  M 190.21 149.30
  C 203.34 169.20 199.42 194.62 181.39 210.09
  C 179.78 211.48 178.66 213.17 176.19 212.06
  Q 171.85 210.11 170.75 209.79
  Q 172.56 209.13 174.81 210.44
  C 179.09 212.93 180.54 209.74 183.08 207.49
  C 189.67 201.66 193.52 193.11 196.15 184.68
  C 196.83 182.50 195.94 181.09 196.50 179.00
  C 197.75 174.37 196.71 170.62 196.36 166.43
  A 0.52 0.51 -4.6 0 0 195.81 165.97
  C 190.19 166.29 184.84 169.07 179.72 171.26
  C 175.71 172.98 177.28 168.95 177.26 167.27
  C 177.08 149.13 162.11 151.40 149.50 150.29
  L 157.00 149.98
  A 1.32 1.22 20.0 0 0 157.84 149.63
  Q 158.94 148.53 160.51 148.49
  A 1.69 1.57 24.2 0 0 161.40 148.19
  Q 163.04 147.00 165.81 146.31
  Q 172.87 144.56 177.50 142.00
  Q 181.39 139.86 183.98 143.25
  Q 186.65 146.74 190.21 149.30
  Z"
/>
<path fill="#ecba89" d="
  M 108.86 149.73
  Q 110.97 156.23 116.54 160.75
  C 111.94 163.53 109.52 165.86 110.35 170.78
  Q 110.56 172.07 111.28 170.98
  C 113.39 167.80 112.95 170.71 113.18 171.77
  Q 114.06 175.71 116.27 178.69
  Q 117.54 180.40 117.50 178.27
  C 117.44 174.77 118.96 168.14 122.13 166.56
  Q 123.93 165.66 125.83 166.35
  Q 133.88 169.27 142.00 169.21
  Q 150.00 169.82 158.71 168.93
  A 2.11 2.10 -20.4 0 1 160.66 169.82
  C 162.78 172.83 159.72 170.93 158.94 171.37
  A 0.37 0.32 44.6 0 0 158.99 171.96
  Q 161.99 173.90 164.19 176.84
  L 161.73 176.86
  Q 161.14 176.87 161.57 177.38
  Q 164.74 181.28 166.86 185.65
  A 0.98 0.98 62.5 0 1 166.46 186.93
  Q 163.05 188.81 159.30 189.70
  A 0.61 0.60 -8.2 0 0 158.84 190.31
  Q 159.55 203.52 150.12 212.41
  A 0.49 0.48 46.2 0 0 150.11 213.11
  Q 151.90 214.97 153.65 216.86
  C 155.83 219.22 153.18 218.49 152.40 217.85
  Q 150.59 216.37 148.79 214.86
  A 1.15 0.63 49.8 0 0 147.98 214.55
  C 147.32 214.69 149.69 217.66 150.04 218.20
  A 0.35 0.35 69.2 0 1 149.80 218.74
  Q 134.89 221.03 126.94 234.43
  A 0.74 0.73 -69.5 0 1 126.18 234.78
  C 117.61 233.22 108.64 232.58 100.27 230.76
  C 92.52 229.08 84.29 218.30 80.92 211.54
  C 85.35 208.18 90.47 204.76 88.06 199.94
  C 85.66 195.13 81.63 196.03 78.00 198.79
  C 76.13 197.06 85.44 187.54 86.61 186.56
  A 1.61 1.52 -13.3 0 0 87.13 185.77
  C 88.25 181.51 88.06 176.88 90.11 173.34
  Q 92.22 169.69 95.94 167.23
  A 1.34 1.33 53.0 0 1 97.70 167.48
  Q 99.14 169.16 99.48 170.58
  A 0.45 0.41 -8.4 0 1 99.07 171.09
  C 92.73 171.52 90.83 180.42 90.48 185.65
  C 90.39 187.06 89.69 188.23 91.00 189.54
  L 97.01 195.39
  A 1.12 1.11 -35.5 0 0 98.26 195.59
  C 105.24 192.25 104.07 187.83 105.75 181.29
  L 107.96 176.50
  Q 110.94 173.07 107.45 170.20
  L 106.54 160.25
  C 106.12 153.45 102.75 150.02 96.69 155.44
  Q 94.32 157.56 96.19 154.94
  Q 100.24 149.26 105.61 144.82
  A 0.41 0.38 56.0 0 1 106.20 144.96
  L 108.86 149.73
  Z
  M 136.46 176.98
  Q 130.54 178.24 124.45 179.50
  C 122.65 179.87 121.06 179.01 120.36 177.45
  Q 119.84 176.28 119.21 177.40
  Q 115.22 184.53 118.55 192.10
  A 0.83 0.82 -37.1 0 1 118.43 192.95
  C 116.00 195.90 116.77 197.79 116.62 201.18
  C 116.52 203.40 118.07 202.56 119.32 202.44
  Q 128.13 201.66 135.55 206.32
  C 136.31 206.79 136.76 207.74 137.75 206.71
  Q 138.80 206.33 139.54 205.50
  Q 142.59 203.78 144.01 201.07
  Q 146.07 198.84 146.50 196.23
  Q 146.76 194.70 147.57 196.03
  Q 149.26 198.79 149.79 202.25
  Q 149.70 203.62 150.36 204.55
  A 0.40 0.38 -45.6 0 0 150.99 204.53
  Q 153.60 200.90 153.54 196.49
  Q 156.20 189.48 154.63 182.27
  C 152.82 173.91 142.72 174.69 136.46 176.98
  Z
  M 109.93 176.51
  C 109.32 173.49 107.85 180.90 109.78 177.44
  A 1.44 1.26 -39.6 0 0 109.93 176.51
  Z
  M 107.92 179.86
  C 106.95 181.14 106.86 183.98 107.00 185.52
  Q 107.15 187.12 107.56 185.56
  C 107.62 185.33 109.94 177.21 107.92 179.86
  Z
  M 114.55 180.52
  Q 112.67 185.12 115.17 189.26
  Q 115.44 189.70 115.42 189.19
  Q 115.24 184.69 115.75 180.25
  C 116.02 177.96 114.70 180.15 114.55 180.52
  Z
  M 109.02 200.27
  C 106.91 199.38 100.61 195.37 99.13 198.53
  C 96.58 203.97 108.65 208.02 111.60 205.16
  C 114.01 202.83 111.02 201.13 109.02 200.27
  Z
  M 101.39 216.84
  C 99.84 211.55 94.77 207.76 89.29 207.57
  A 0.91 0.69 11.7 0 0 88.51 207.94
  Q 88.27 208.40 89.00 208.50
  Q 97.52 209.66 100.19 217.32
  C 100.99 219.61 101.93 218.68 101.39 216.84
  Z"
/>
<path fill="#f0eef1" d="
  M 123.68 146.19
  Q 124.77 144.73 124.69 146.55
  Q 124.35 154.10 121.34 160.61
  Q 120.77 161.85 120.50 160.51
  Q 118.94 152.60 123.68 146.19
  Z"
/>
<path fill="#cec8c8" d="
  M 116.25 147.71
  Q 116.79 146.06 117.00 148.08
  Q 117.52 153.28 117.49 158.50
  C 117.46 162.94 115.33 155.02 115.19 154.81
  C 112.70 151.20 115.26 150.74 116.25 147.71
  Z"
/>
<path fill="#feffff" d="
  M 126.92 153.93
  Q 127.37 153.41 127.27 154.09
  Q 126.78 157.53 125.31 160.22
  Q 124.50 161.69 124.50 160.01
  Q 124.50 156.68 126.92 153.93
  Z"
/>
<path fill="#5a3016" d="
  M 106.54 160.25
  L 107.45 170.20
  Q 107.59 172.43 107.27 174.68
  C 107.15 175.51 106.09 176.64 107.96 176.50
  L 105.75 181.29
  C 102.36 180.18 103.81 176.52 101.00 175.96
  L 100.27 173.23
  C 102.24 174.11 101.25 172.09 101.08 171.26
  Q 99.20 161.99 91.68 168.44
  Q 90.94 169.08 91.10 168.11
  Q 92.20 161.73 96.07 157.63
  C 99.24 154.27 104.70 152.29 105.23 159.56
  Q 105.37 161.52 106.54 160.25
  Z"
/>
<path fill="#2e1c0e" d="
  M 116.54 160.75
  Q 118.44 160.83 117.98 162.05
  A 1.12 0.83 -2.0 0 1 117.27 162.62
  Q 114.76 163.29 113.18 165.17
  A 0.89 0.88 46.8 0 0 113.15 166.26
  C 114.97 168.71 114.45 171.70 115.26 174.52
  Q 115.69 176.03 116.44 174.65
  C 117.13 173.38 116.90 171.67 117.29 170.48
  Q 118.79 165.97 123.45 164.46
  A 1.49 1.40 45.0 0 1 124.40 164.49
  Q 131.59 167.20 141.00 167.75
  Q 142.40 167.83 142.00 169.21
  Q 133.88 169.27 125.83 166.35
  Q 123.93 165.66 122.13 166.56
  C 118.96 168.14 117.44 174.77 117.50 178.27
  Q 117.54 180.40 116.27 178.69
  Q 114.06 175.71 113.18 171.77
  C 112.95 170.71 113.39 167.80 111.28 170.98
  Q 110.56 172.07 110.35 170.78
  C 109.52 165.86 111.94 163.53 116.54 160.75
  Z"
/>
<path fill="#2e1c0e" d="
  M 107.45 170.20
  Q 110.94 173.07 107.96 176.50
  C 106.09 176.64 107.15 175.51 107.27 174.68
  Q 107.59 172.43 107.45 170.20
  Z"
/>
<rect fill="#000000" x="341.76" y="171.50" width="12.74" height="3.94" rx="0.46"/>
<path fill="#feffff" d="
  M 100.27 173.23
  L 101.00 175.96
  Q 100.58 176.41 100.00 176.54
  Q 93.72 179.75 92.64 187.11
  Q 92.89 188.76 91.75 189.54
  L 91.29 189.25
  C 90.99 184.60 93.31 172.88 100.27 173.23
  Z"
/>
<path fill="#2e1c0e" d="
  M 153.54 196.49
  Q 154.27 189.10 152.25 182.00
  C 151.16 178.15 148.61 177.26 144.65 177.37
  Q 140.55 177.48 136.46 176.98
  C 142.72 174.69 152.82 173.91 154.63 182.27
  Q 156.20 189.48 153.54 196.49
  Z"
/>
<path fill="#5a3016" d="
  M 101.00 175.96
  C 103.81 176.52 102.36 180.18 105.75 181.29
  C 104.07 187.83 105.24 192.25 98.26 195.59
  A 1.12 1.11 -35.5 0 1 97.01 195.39
  L 91.00 189.54
  Q 91.23 189.48 91.29 189.25
  L 91.75 189.54
  L 97.19 193.86
  A 0.97 0.85 52.5 0 0 98.04 194.03
  Q 103.92 191.94 97.84 188.97
  Q 96.11 183.93 101.00 183.04
  Q 99.83 184.04 99.43 185.45
  A 0.66 0.65 -67.6 0 0 99.73 186.20
  Q 102.11 187.59 103.23 184.49
  Q 103.66 179.71 100.00 176.54
  Q 100.58 176.41 101.00 175.96
  Z"
/>
<path fill="#2e1c0e" d="
  M 109.78 177.44
  C 107.85 180.90 109.32 173.49 109.93 176.51
  A 1.44 1.26 -39.6 0 1 109.78 177.44
  Z"
/>
<path fill="#5a3016" d="
  M 100.00 176.54
  Q 103.66 179.71 103.23 184.49
  Q 102.99 182.18 101.00 183.04
  Q 96.11 183.93 97.84 188.97
  Q 95.41 187.06 92.64 187.11
  Q 93.72 179.75 100.00 176.54
  Z"
/>
<path fill="#5a3016" d="
  M 136.46 176.98
  Q 140.55 177.48 144.65 177.37
  C 148.61 177.26 151.16 178.15 152.25 182.00
  Q 154.27 189.10 153.54 196.49
  Q 153.60 200.90 150.99 204.53
  A 0.40 0.38 -45.6 0 1 150.36 204.55
  Q 149.70 203.62 149.79 202.25
  Q 151.84 202.12 150.70 199.84
  Q 150.31 199.06 150.14 198.20
  C 149.28 193.66 146.10 190.56 141.39 189.84
  Q 134.80 188.84 128.44 191.27
  L 120.44 192.40
  A 1.28 0.92 7.1 0 0 119.64 192.84
  Q 117.49 195.92 117.76 199.82
  A 1.46 1.45 -0.4 0 0 119.15 201.18
  L 126.80 201.57
  Q 133.12 202.31 137.75 206.71
  C 136.76 207.74 136.31 206.79 135.55 206.32
  Q 128.13 201.66 119.32 202.44
  C 118.07 202.56 116.52 203.40 116.62 201.18
  C 116.77 197.79 116.00 195.90 118.43 192.95
  A 0.83 0.82 -37.1 0 0 118.55 192.10
  Q 115.22 184.53 119.21 177.40
  Q 119.84 176.28 120.36 177.45
  C 121.06 179.01 122.65 179.87 124.45 179.50
  Q 130.54 178.24 136.46 176.98
  Z"
/>
<path fill="#000000" d="
  M 238.50 183.99
  A 0.93 0.89 0.3 0 0 237.57 183.09
  L 227.93 183.10
  A 0.56 0.55 -0.5 0 1 227.37 182.56
  L 227.31 177.78
  A 0.84 0.77 -0.3 0 1 228.15 177.00
  L 243.08 177.00
  A 0.67 0.67 0.0 0 1 243.75 177.67
  L 243.75 205.87
  A 0.88 0.87 -82.3 0 1 242.64 206.72
  Q 241.13 206.30 239.80 206.67
  A 1.21 1.19 -7.4 0 1 238.27 205.52
  L 238.50 183.99
  Z"
/>
<path fill="#000000" d="
  M 252.31 200.02
  Q 257.61 200.86 262.99 200.53
  A 0.73 0.65 -10.1 0 1 263.70 200.97
  Q 264.26 202.60 263.68 205.72
  A 0.75 0.75 2.0 0 1 263.02 206.33
  Q 257.87 206.90 253.57 206.61
  C 248.52 206.28 245.98 204.15 246.00 199.00
  Q 246.07 182.04 246.18 177.68
  A 0.52 0.52 -89.4 0 1 246.70 177.17
  L 262.63 177.02
  A 1.34 1.33 -0.0 0 1 263.98 178.36
  L 263.96 182.35
  A 0.96 0.91 0.3 0 1 263.00 183.25
  L 252.24 183.25
  A 0.63 0.62 6.4 0 0 251.63 183.73
  Q 251.12 186.06 251.79 188.34
  A 0.69 0.63 -7.2 0 0 252.44 188.80
  L 262.06 188.75
  A 0.95 0.94 -90.0 0 1 263.00 189.70
  L 263.00 193.93
  A 1.06 1.01 -89.2 0 1 261.96 194.99
  L 252.60 194.78
  A 0.96 0.80 0.4 0 0 251.61 195.59
  L 251.68 199.45
  A 0.75 0.56 5.4 0 0 252.31 200.02
  Z"
/>
<path fill="#000000" d="
  M 265.00 188.00
  C 265.13 183.67 268.77 179.21 272.73 177.71
  C 275.83 176.55 280.44 177.00 284.09 177.00
  A 0.66 0.66 0.2 0 1 284.75 177.66
  L 284.75 182.59
  A 0.66 0.66 0.4 0 1 284.08 183.25
  C 273.98 183.15 269.65 182.18 270.33 194.49
  C 270.75 202.17 279.22 200.33 284.07 200.65
  A 0.62 0.51 2.8 0 1 284.65 201.18
  L 284.54 206.19
  A 0.58 0.49 1.6 0 1 283.94 206.67
  C 280.38 206.54 276.57 207.17 273.43 206.13
  C 264.68 203.23 264.76 195.87 265.00 188.00
  Z"
/>
<path fill="#000000" d="
  M 293.06 188.71
  L 303.57 188.60
  A 0.56 0.53 -89.4 0 0 304.09 188.06
  L 304.31 177.82
  A 0.66 0.47 -88.8 0 1 304.79 177.18
  L 308.99 177.16
  A 0.88 0.76 -90.0 0 1 309.75 178.04
  L 309.75 206.00
  A 0.78 0.78 -82.1 0 1 308.76 206.75
  Q 307.13 206.30 305.68 206.70
  A 1.13 1.13 -7.6 0 1 304.25 205.61
  L 304.25 195.49
  A 0.73 0.73 86.5 0 0 303.43 194.76
  Q 298.63 195.31 293.69 194.74
  A 1.07 1.07 3.1 0 0 292.50 195.80
  L 292.50 205.98
  A 0.75 0.75 -84.1 0 1 291.60 206.72
  Q 290.00 206.38 288.29 206.74
  A 1.10 1.07 83.8 0 1 286.99 205.67
  L 286.82 178.31
  A 1.32 0.96 74.1 0 1 287.14 177.44
  Q 288.05 176.59 289.35 177.01
  A 1.77 1.54 42.8 0 0 290.28 177.04
  Q 292.78 176.37 292.50 179.50
  Q 292.38 180.84 292.55 188.19
  A 0.53 0.50 88.9 0 0 293.06 188.71
  Z"
/>
<path fill="#000000" d="
  M 317.31 183.81
  L 317.25 205.69
  A 0.96 0.95 -81.8 0 1 316.03 206.61
  Q 314.76 206.24 312.99 206.75
  A 0.97 0.97 -8.1 0 1 311.75 205.82
  L 311.75 177.67
  A 0.67 0.67 -0.2 0 1 312.42 177.00
  C 319.46 177.00 326.16 175.48 331.06 181.94
  C 335.11 187.27 333.60 199.54 333.33 206.06
  A 0.57 0.48 -87.4 0 1 332.82 206.62
  L 328.43 206.42
  A 0.61 0.51 -89.0 0 1 327.94 205.81
  Q 327.93 197.72 327.79 189.63
  C 327.68 183.19 323.09 182.59 317.81 183.24
  A 0.57 0.57 86.6 0 0 317.31 183.81
  Z"
/>
<path fill="#000000" d="
  M 360.9345 194.9921
  A 11.67 11.67 0.0 0 1 349.2442 206.6417
  L 347.2442 206.6382
  A 11.67 11.67 0.0 0 1 335.5946 194.9479
  L 335.6055 188.7079
  A 11.67 11.67 0.0 0 1 347.2958 177.0583
  L 349.2958 177.0618
  A 11.67 11.67 0.0 0 1 360.9454 188.7521
  L 360.9345 194.9921
  Z
  M 355.5051 188.9525
  A 5.72 5.72 0.0 0 0 349.7951 183.2225
  L 346.9351 183.2175
  A 5.72 5.72 0.0 0 0 341.2051 188.9275
  L 341.1949 194.7675
  A 5.72 5.72 0.0 0 0 346.9049 200.4975
  L 349.7649 200.5025
  A 5.72 5.72 0.0 0 0 355.4949 194.7925
  L 355.5051 188.9525
  Z"
/>
<path fill="#000000" d="
  M 370.65 186.71
  C 374.00 189.74 380.04 194.69 380.34 199.34
  C 380.96 208.66 369.26 206.86 363.81 206.47
  A 0.67 0.64 -3.9 0 1 363.20 205.96
  Q 362.65 203.50 363.19 201.05
  A 0.65 0.64 5.7 0 1 363.81 200.55
  C 365.81 200.50 373.87 201.51 373.74 198.55
  A 1.52 1.19 28.1 0 0 373.36 197.69
  C 369.49 193.32 362.86 189.09 363.23 183.53
  C 363.80 174.80 373.48 177.00 379.60 177.00
  A 0.84 0.77 0.3 0 1 380.44 177.78
  L 380.38 182.57
  A 0.60 0.53 -1.2 0 1 379.81 183.09
  C 378.57 183.16 365.64 182.19 370.65 186.71
  Z"
/>
<path fill="#000000" d="
  M 402.42 177.54
  Q 404.64 176.91 406.94 177.23
  A 0.60 0.58 -86.1 0 1 407.44 177.82
  Q 407.55 185.91 407.50 194.00
  C 407.45 202.52 400.87 208.01 392.42 206.65
  A 0.67 0.60 4.6 0 1 391.86 206.06
  L 391.79 201.61
  A 1.47 1.27 4.8 0 1 393.49 200.38
  C 398.32 201.14 401.70 199.61 401.79 194.45
  Q 401.93 186.32 401.94 178.19
  A 0.68 0.65 82.8 0 1 402.42 177.54
  Z"
/>
<path fill="#000000" d="
  M 422.70 183.06
  L 412.30 183.22
  A 0.96 0.93 -0.3 0 1 411.32 182.28
  L 411.37 177.67
  A 0.61 0.50 -1.8 0 1 411.95 177.16
  C 418.94 176.78 428.98 174.40 429.36 184.73
  Q 429.75 195.39 429.33 206.06
  A 0.56 0.55 89.5 0 1 428.81 206.60
  C 420.10 207.27 408.45 208.79 411.60 194.67
  C 412.68 189.82 418.31 189.07 422.35 189.97
  Q 424.30 190.40 424.10 188.21
  L 423.74 184.11
  A 1.15 1.02 87.0 0 0 422.70 183.06
  Z
  M 423.9334 196.9069
  A 1.01 1.01 0.0 0 0 422.9111 195.9093
  L 417.8515 195.9711
  A 1.01 1.01 0.0 0 0 416.8539 196.9933
  L 416.8866 199.6731
  A 1.01 1.01 0.0 0 0 417.9089 200.6707
  L 422.9685 200.6089
  A 1.01 1.01 0.0 0 0 423.9661 199.5867
  L 423.9334 196.9069
  Z"
/>
<path fill="#000000" d="
  M 438.57 195.56
  L 438.33 206.07
  A 0.54 0.50 -88.9 0 1 437.82 206.60
  L 433.56 206.50
  A 0.56 0.51 -89.5 0 1 433.06 205.94
  L 433.00 177.68
  A 0.68 0.68 0.0 0 1 433.68 177.00
  C 439.43 177.00 449.43 175.02 450.72 182.44
  C 452.05 190.11 449.66 194.65 440.80 193.57
  Q 438.62 193.31 438.57 195.56
  Z
  M 445.3253 184.0780
  A 0.94 0.94 0.0 0 0 444.3820 183.1413
  L 439.4020 183.1587
  A 0.94 0.94 0.0 0 0 438.4653 184.1020
  L 438.4747 186.8020
  A 0.94 0.94 0.0 0 0 439.4180 187.7387
  L 444.3980 187.7213
  A 0.94 0.94 0.0 0 0 445.3347 186.7780
  L 445.3253 184.0780
  Z"
/>
<path fill="#000000" d="
  M 466.48 188.96
  L 466.45 184.31
  A 1.12 1.07 -0.3 0 0 465.33 183.25
  L 454.77 183.25
  A 0.93 0.82 0.6 0 1 453.84 182.41
  L 453.95 177.55
  A 0.65 0.52 -0.2 0 1 454.57 177.05
  C 461.97 176.92 471.49 174.50 471.86 184.36
  Q 472.26 195.21 471.83 206.05
  A 0.56 0.54 89.5 0 1 471.32 206.59
  C 463.07 207.03 454.02 208.83 453.75 199.00
  Q 453.45 188.00 465.12 190.04
  A 1.17 1.10 4.8 0 0 466.48 188.96
  Z
  M 466.4901 196.6374
  A 0.72 0.72 0.0 0 0 465.7613 195.9262
  L 460.2017 195.9941
  A 0.72 0.72 0.0 0 0 459.4906 196.7229
  L 459.5299 199.9426
  A 0.72 0.72 0.0 0 0 460.2587 200.6538
  L 465.8183 200.5859
  A 0.72 0.72 0.0 0 0 466.5294 199.8571
  L 466.4901 196.6374
  Z"
/>
<path fill="#000000" d="
  M 481.31 183.79
  L 481.49 205.58
  A 0.82 0.79 -2.8 0 1 480.75 206.37
  L 476.65 206.79
  A 0.82 0.80 -2.6 0 1 475.76 205.99
  L 475.93 177.68
  A 0.55 0.52 -1.8 0 1 476.45 177.16
  C 484.03 176.75 492.43 175.63 496.44 183.87
  C 499.11 189.35 497.47 199.04 497.81 205.31
  Q 497.90 207.11 496.59 206.75
  Q 495.79 206.52 494.97 206.63
  C 491.69 207.05 492.27 206.41 492.24 204.21
  Q 492.14 196.41 492.02 188.60
  C 491.93 182.61 486.04 183.58 482.17 183.02
  A 0.77 0.76 -86.5 0 0 481.31 183.79
  Z"
/>
<path fill="#000000" d="
  M 511.80 198.68
  C 515.06 201.44 519.92 200.50 523.93 200.56
  A 0.56 0.49 1.0 0 1 524.49 201.07
  L 524.28 206.20
  A 0.55 0.48 2.8 0 1 523.70 206.66
  Q 520.45 206.50 517.19 206.70
  C 502.28 207.59 500.08 183.37 512.19 177.99
  C 515.64 176.46 520.05 176.97 523.94 177.05
  A 0.53 0.53 0.0 0 1 524.46 177.57
  L 524.49 182.57
  A 0.69 0.68 -0.0 0 1 523.80 183.25
  C 511.93 183.25 509.93 182.52 510.30 195.54
  Q 510.35 197.45 511.80 198.68
  Z"
/>
<path fill="#000000" d="
  M 551.6812 195.1147
  A 11.69 11.69 0.0 0 1 539.8492 206.6610
  L 537.8694 206.6368
  A 11.69 11.69 0.0 0 1 526.3231 194.8049
  L 526.3988 188.6053
  A 11.69 11.69 0.0 0 1 538.2308 177.0590
  L 540.2106 177.0832
  A 11.69 11.69 0.0 0 1 551.7569 188.9151
  L 551.6812 195.1147
  Z
  M 546.2548 188.8875
  A 5.68 5.68 0.0 0 0 540.5649 183.2174
  L 537.6249 183.2226
  A 5.68 5.68 0.0 0 0 531.9548 188.9125
  L 531.9652 194.8325
  A 5.68 5.68 0.0 0 0 537.6551 200.5026
  L 540.5951 200.4974
  A 5.68 5.68 0.0 0 0 546.2652 194.8075
  L 546.2548 188.8875
  Z"
/>
<path fill="#000000" d="
  M 560.31 205.93
  A 0.76 0.76 -84.5 0 1 559.40 206.68
  Q 558.00 206.38 556.10 206.78
  A 1.11 1.09 -5.9 0 1 554.76 205.71
  L 554.93 177.68
  A 0.53 0.52 -1.8 0 1 555.43 177.16
  Q 564.06 176.62 566.69 177.06
  C 573.29 178.16 572.76 183.30 572.46 188.70
  Q 572.44 189.10 572.15 189.60
  C 571.35 191.00 572.24 191.99 572.31 193.13
  Q 572.69 199.44 572.51 205.76
  A 0.60 0.50 -89.4 0 1 572.01 206.35
  L 567.94 206.40
  A 0.63 0.52 87.3 0 1 567.40 205.81
  Q 566.94 199.78 567.25 198.00
  C 568.04 193.46 564.89 193.68 561.85 193.87
  C 559.55 194.00 560.24 196.22 560.26 197.83
  Q 560.28 201.83 560.31 205.93
  Z
  M 567.1621 184.2461
  A 1.09 1.09 0.0 0 0 566.0740 183.1542
  L 561.3140 183.1458
  A 1.09 1.09 0.0 0 0 560.2221 184.2339
  L 560.2179 186.6539
  A 1.09 1.09 0.0 0 0 561.3060 187.7458
  L 566.0660 187.7542
  A 1.09 1.09 0.0 0 0 567.1579 186.6661
  L 567.1621 184.2461
  Z"
/>
<path fill="#000000" d="
  M 581.51 194.31
  Q 580.73 201.97 581.25 204.25
  Q 581.95 207.32 579.47 206.65
  Q 579.36 206.62 578.52 206.61
  L 576.29 206.57
  A 0.62 0.49 -89.5 0 1 575.81 205.95
  L 575.75 177.87
  A 0.88 0.87 -0.0 0 1 576.63 177.00
  C 582.63 177.00 593.60 174.62 593.52 184.25
  C 593.43 194.14 590.83 193.54 582.07 193.80
  A 0.57 0.57 2.2 0 0 581.51 194.31
  Z
  M 588.0991 184.1540
  A 0.98 0.98 0.0 0 0 587.1259 183.1672
  L 582.2260 183.1330
  A 0.98 0.98 0.0 0 0 581.2392 184.1061
  L 581.2209 186.7260
  A 0.98 0.98 0.0 0 0 582.1941 187.7128
  L 587.0940 187.7470
  A 0.98 0.98 0.0 0 0 588.0808 186.7739
  L 588.0991 184.1540
  Z"
/>
<path fill="#5a3016" d="
  M 107.92 179.86
  C 109.94 177.21 107.62 185.33 107.56 185.56
  Q 107.15 187.12 107.00 185.52
  C 106.86 183.98 106.95 181.14 107.92 179.86
  Z"
/>
<path fill="#5a3016" d="
  M 114.55 180.52
  C 114.70 180.15 116.02 177.96 115.75 180.25
  Q 115.24 184.69 115.42 189.19
  Q 115.44 189.70 115.17 189.26
  Q 112.67 185.12 114.55 180.52
  Z"
/>
<path fill="#feffff" d="
  M 103.23 184.49
  Q 102.11 187.59 99.73 186.20
  A 0.66 0.65 -67.6 0 1 99.43 185.45
  Q 99.83 184.04 101.00 183.04
  Q 102.99 182.18 103.23 184.49
  Z"
/>
<path fill="#7b4326" d="
  M 92.64 187.11
  Q 95.41 187.06 97.84 188.97
  Q 103.92 191.94 98.04 194.03
  A 0.97 0.85 52.5 0 1 97.19 193.86
  L 91.75 189.54
  Q 92.89 188.76 92.64 187.11
  Z"
/>
<path fill="#2e1c0e" d="
  M 149.79 202.25
  Q 149.26 198.79 147.57 196.03
  Q 146.76 194.70 146.50 196.23
  Q 146.07 198.84 144.01 201.07
  Q 142.54 198.03 144.44 195.44
  Q 145.02 194.64 144.49 194.19
  A 1.76 0.94 26.3 0 1 143.97 193.46
  C 142.92 190.08 128.56 189.10 128.71 196.00
  Q 128.17 196.95 127.25 197.46
  L 128.44 191.27
  Q 134.80 188.84 141.39 189.84
  C 146.10 190.56 149.28 193.66 150.14 198.20
  Q 150.31 199.06 150.70 199.84
  Q 151.84 202.12 149.79 202.25
  Z"
/>
<path fill="#5a3016" d="
  M 144.01 201.07
  Q 142.59 203.78 139.54 205.50
  C 137.65 201.69 133.19 199.70 129.66 198.25
  A 1.42 0.98 6.7 0 1 128.94 197.62
  Q 128.61 196.88 128.71 196.00
  C 128.56 189.10 142.92 190.08 143.97 193.46
  A 1.76 0.94 26.3 0 0 144.49 194.19
  Q 145.02 194.64 144.44 195.44
  Q 142.54 198.03 144.01 201.07
  Z
  M 139.00 193.79
  C 135.07 193.74 132.66 197.24 135.86 200.11
  Q 138.42 202.40 140.81 198.97
  L 143.49 196.42
  Q 145.11 194.87 142.83 193.70
  Q 140.88 192.69 139.00 193.79
  Z"
/>
<path fill="#feffff" d="
  M 128.44 191.27
  L 127.25 197.46
  L 126.80 201.57
  L 119.15 201.18
  A 1.46 1.45 -0.4 0 1 117.76 199.82
  Q 117.49 195.92 119.64 192.84
  A 1.28 0.92 7.1 0 1 120.44 192.40
  L 128.44 191.27
  Z"
/>
<path fill="#feffff" d="
  M 140.81 198.97
  Q 134.94 198.09 139.00 193.79
  Q 140.88 192.69 142.83 193.70
  Q 145.11 194.87 143.49 196.42
  L 140.81 198.97
  Z"
/>
<path fill="#3c313b" d="
  M 139.00 193.79
  Q 134.94 198.09 140.81 198.97
  Q 138.42 202.40 135.86 200.11
  C 132.66 197.24 135.07 193.74 139.00 193.79
  Z"
/>
<path fill="#0068a5" d="
  M 56.46 212.75
  Q 45.21 207.51 34.14 212.90
  C 33.58 213.17 33.33 213.88 32.54 213.25
  L 38.90 194.53
  A 0.35 0.35 28.7 0 1 39.45 194.37
  C 48.52 201.62 58.14 202.45 68.91 201.49
  Q 70.78 201.32 69.29 202.51
  L 56.46 212.75
  Z"
/>
<path fill="#7b4326" d="
  M 128.71 196.00
  Q 128.61 196.88 128.94 197.62
  A 1.42 0.98 6.7 0 0 129.66 198.25
  C 133.19 199.70 137.65 201.69 139.54 205.50
  Q 138.80 206.33 137.75 206.71
  Q 133.12 202.31 126.80 201.57
  L 127.25 197.46
  Q 128.17 196.95 128.71 196.00
  Z"
/>
<path fill="#695745" d="
  M 80.92 211.54
  Q 80.48 210.97 79.50 210.79
  C 84.05 208.96 90.42 204.28 86.07 198.53
  A 1.79 1.76 -16.2 0 0 84.79 197.84
  Q 80.40 197.53 78.29 199.75
  Q 78.32 199.22 78.00 198.79
  C 81.63 196.03 85.66 195.13 88.06 199.94
  C 90.47 204.76 85.35 208.18 80.92 211.54
  Z"
/>
<path fill="#cf8868" d="
  M 109.02 200.27
  C 111.02 201.13 114.01 202.83 111.60 205.16
  C 108.65 208.02 96.58 203.97 99.13 198.53
  C 100.61 195.37 106.91 199.38 109.02 200.27
  Z"
/>
<path fill="#cf8868" d="
  M 79.50 210.79
  L 79.25 210.79
  Q 79.02 210.73 78.96 210.50
  L 79.79 208.75
  L 82.71 205.16
  A 0.95 0.90 56.1 0 0 82.86 204.27
  Q 81.67 200.56 77.54 202.25
  Q 77.06 200.78 78.29 199.75
  Q 80.40 197.53 84.79 197.84
  A 1.79 1.76 -16.2 0 1 86.07 198.53
  C 90.42 204.28 84.05 208.96 79.50 210.79
  Z"
/>
<rect fill="#000000" x="-2.75" y="-2.75" transform="translate(591.51,203.75) rotate(-0.3)" width="5.50" height="5.50" rx="0.43"/>
<path fill="#695745" d="
  M 79.79 208.75
  L 79.50 208.29
  L 82.26 204.94
  A 0.86 0.70 52.4 0 0 82.28 204.06
  Q 80.74 201.31 77.79 203.25
  Q 77.77 202.73 77.54 202.25
  Q 81.67 200.56 82.86 204.27
  A 0.95 0.90 56.1 0 1 82.71 205.16
  L 79.79 208.75
  Z"
/>
<path fill="#cf8868" d="
  M 79.50 208.29
  Q 77.59 206.21 77.79 203.25
  Q 80.74 201.31 82.28 204.06
  A 0.86 0.70 52.4 0 1 82.26 204.94
  L 79.50 208.29
  Z"
/>
<path fill="#2e1c0e" d="
  M 89.29 207.57
  C 94.77 207.76 99.84 211.55 101.39 216.84
  C 101.93 218.68 100.99 219.61 100.19 217.32
  Q 97.52 209.66 89.00 208.50
  Q 88.27 208.40 88.51 207.94
  A 0.91 0.69 11.7 0 1 89.29 207.57
  Z"
/>
<path fill="#ecba89" d="
  M 37.25 251.54
  C 17.49 247.77 24.16 224.59 33.29 214.44
  Q 42.08 209.19 51.92 212.61
  C 60.31 215.54 63.07 225.68 54.14 230.22
  A 0.80 0.80 -13.1 0 0 53.69 230.94
  C 53.66 240.02 48.01 252.24 37.25 251.54
  Z"
/>
<path fill="#ecba89" d="
  M 170.00 220.71
  Q 172.07 216.34 167.00 219.21
  L 157.48 218.10
  A 0.32 0.30 -67.4 0 1 157.29 217.60
  Q 161.64 211.62 168.52 211.64
  C 174.82 211.66 177.88 215.69 175.71 221.85
  A 1.01 0.98 20.6 0 1 174.40 222.42
  L 170.00 220.71
  Z"
/>
<path fill="#000000" d="
  M 32.46 213.75
  Q 33.16 214.00 33.29 214.44
  C 24.16 224.59 17.49 247.77 37.25 251.54
  C 38.37 251.98 40.97 251.11 40.68 252.84
  A 0.65 0.55 3.0 0 1 40.06 253.31
  Q 37.88 253.35 35.96 254.50
  Q 32.49 253.93 29.32 251.71
  L 27.04 250.25
  Q 27.11 248.73 26.31 247.44
  C 19.06 235.81 23.37 222.83 32.46 213.75
  Z"
/>
<path fill="#cf8868" d="
  M 170.00 220.71
  L 167.00 219.21
  Q 172.07 216.34 170.00 220.71
  Z"
/>
<path fill="#e9e7ea" d="
  M 67.93 238.93
  L 67.26 234.78
  Q 66.95 232.88 67.68 231.70
  Q 73.16 222.83 83.26 220.25
  Q 85.67 219.63 83.96 221.44
  C 74.06 231.94 69.92 246.58 63.25 259.29
  C 60.21 265.09 58.29 265.23 52.11 263.30
  Q 45.07 261.11 35.49 260.31
  Q 34.83 260.26 35.30 259.77
  L 40.00 254.94
  A 1.89 1.27 -66.2 0 1 40.79 254.44
  Q 48.67 252.26 53.82 244.66
  A 1.42 1.42 -74.3 0 1 54.94 244.03
  C 60.79 243.73 63.11 240.21 65.25 235.50
  Q 66.29 233.20 66.50 235.75
  Q 66.65 237.56 67.64 239.03
  Q 68.04 239.61 67.93 238.93
  Z"
/>
<path fill="#ecba89" d="
  M 192.54 249.50
  C 186.07 259.30 188.85 271.77 177.91 278.24
  C 170.28 282.75 159.00 280.71 151.03 277.19
  C 146.78 275.31 145.09 271.94 141.52 269.41
  Q 140.97 269.02 141.00 269.69
  Q 141.06 271.28 139.54 271.00
  Q 138.94 263.83 141.16 257.02
  C 141.36 256.41 141.31 255.44 140.42 256.67
  Q 138.32 259.58 136.72 262.80
  A 0.55 0.54 -65.2 0 1 136.03 263.06
  Q 126.72 259.13 127.25 248.00
  C 128.02 232.00 137.21 222.65 152.89 220.71
  C 171.71 218.38 188.28 230.99 192.54 249.50
  Z"
/>
<path fill="#e9e7ea" d="
  M 71.75 275.46
  L 58.09 275.13
  Q 65.20 262.41 68.44 253.69
  C 72.30 243.30 77.09 230.73 84.95 222.68
  Q 86.53 221.05 86.41 223.32
  Q 85.89 232.79 94.04 239.08
  A 1.06 0.94 -47.2 0 1 94.00 240.60
  L 88.17 246.08
  A 1.63 1.43 -55.3 0 1 86.64 246.46
  L 78.40 243.63
  Q 76.75 243.06 78.23 243.99
  Q 81.37 245.95 84.79 247.32
  A 0.36 0.36 -59.4 0 1 84.93 247.88
  Q 80.56 253.10 78.19 261.19
  Q 76.42 267.21 71.75 275.46
  Z"
/>
<path fill="#000000" d="
  M 273.29 273.75
  L 273.29 269.50
  Q 273.21 257.27 273.25 245.04
  C 273.25 244.45 273.79 240.75 272.09 243.36
  C 270.24 246.21 265.22 244.90 263.31 242.94
  Q 252.39 231.66 242.27 239.05
  Q 236.81 243.05 234.82 249.48
  C 231.38 260.59 238.26 276.89 252.13 275.47
  Q 258.36 274.83 262.87 269.59
  C 265.45 266.58 271.49 266.15 272.54 270.75
  L 272.54 272.50
  Q 272.26 272.93 272.20 273.45
  Q 272.13 274.03 271.91 274.35
  C 265.27 283.86 254.01 288.17 242.92 284.66
  C 216.21 276.22 217.44 233.59 244.54 226.63
  C 254.76 224.01 265.20 228.30 271.67 236.57
  Q 272.07 237.09 272.23 237.70
  A 0.75 0.59 82.0 0 0 272.81 238.26
  C 274.81 238.31 270.15 227.17 277.44 225.93
  C 281.92 225.16 283.46 227.71 283.56 231.84
  Q 284.05 253.10 283.55 274.68
  A 0.82 0.81 0.7 0 0 284.37 275.51
  L 319.74 275.74
  A 0.81 0.77 12.1 0 0 320.46 275.30
  Q 330.70 252.90 340.89 230.49
  C 343.54 224.66 349.05 223.51 352.17 230.32
  Q 362.89 253.72 373.39 277.22
  C 375.15 281.15 375.94 285.45 370.25 286.00
  Q 366.06 286.41 364.31 282.33
  Q 359.04 270.11 353.48 257.95
  A 0.95 0.92 -12.3 0 0 352.63 257.42
  L 340.63 257.49
  A 1.43 1.40 11.1 0 0 339.34 258.34
  Q 334.23 270.36 328.35 282.56
  C 326.11 287.19 323.85 285.63 319.86 285.73
  Q 300.99 286.20 282.12 286.01
  C 277.23 285.97 272.96 286.56 273.12 280.07
  C 273.18 277.57 273.08 275.84 273.29 273.75
  Z
  M 346.00 243.74
  L 344.64 246.46
  A 0.45 0.39 -69.9 0 0 344.88 247.09
  Q 350.26 248.10 346.86 243.59
  A 0.54 0.48 -51.6 0 0 346.00 243.74
  Z"
/>
<path fill="#000000" d="
  M 410.88 257.68
  C 406.76 254.46 398.73 254.89 393.75 255.23
  C 371.91 256.70 370.74 225.95 392.75 225.81
  Q 401.50 225.75 410.25 225.80
  C 416.09 225.83 417.43 233.76 412.58 235.71
  Q 411.23 236.25 407.84 236.24
  Q 399.33 236.22 390.82 236.31
  A 1.58 1.48 25.1 0 0 389.90 236.61
  C 384.30 240.72 387.87 244.90 393.10 244.97
  Q 398.17 245.04 403.25 245.02
  C 417.27 244.95 428.00 256.70 424.48 270.80
  C 421.78 281.64 413.72 285.64 403.15 285.89
  Q 392.45 286.15 381.75 286.06
  C 375.01 286.00 374.37 275.64 382.25 275.58
  C 389.51 275.52 396.84 275.31 404.09 275.61
  C 414.35 276.03 418.79 263.85 410.88 257.68
  Z"
/>
<path fill="#000000" d="
  M 461.80 274.33
  C 469.13 270.22 467.55 259.85 460.46 256.33
  C 454.47 253.36 444.61 256.46 438.29 254.40
  C 431.95 252.33 427.56 245.43 428.53 238.72
  C 430.86 222.47 450.35 225.74 461.50 225.77
  C 469.48 225.79 468.98 236.61 461.25 236.44
  Q 452.88 236.25 444.50 236.25
  C 439.30 236.25 436.13 241.82 441.29 244.41
  C 443.94 245.74 452.64 245.08 456.00 245.16
  C 478.78 245.70 485.15 277.02 464.11 284.59
  C 457.01 287.14 444.09 286.00 435.15 286.00
  C 425.27 286.00 426.73 275.19 434.25 275.31
  C 440.34 275.41 456.95 277.06 461.80 274.33
  Z"
/>
<rect fill="#000000" x="483.30" y="225.81" width="10.46" height="60.16" rx="4.78"/>
<path fill="#000000" d="
  M 550.93 242.59
  Q 550.21 242.73 549.86 243.47
  A 1.48 0.94 -80.0 0 1 549.24 244.15
  Q 544.10 246.45 540.31 241.94
  C 533.73 234.10 523.60 234.44 517.01 241.89
  C 502.08 258.77 523.21 289.08 540.68 269.50
  C 544.98 264.67 554.67 268.20 548.82 275.86
  C 539.68 287.85 522.78 289.10 511.70 279.29
  C 498.81 267.87 498.32 247.99 508.94 235.19
  C 519.83 222.05 539.14 223.37 549.54 236.31
  C 551.72 239.01 550.50 239.90 552.03 235.98
  C 557.37 222.35 573.58 225.73 585.00 225.83
  C 591.66 225.89 592.42 236.30 583.50 236.28
  Q 575.52 236.25 567.54 236.25
  C 559.64 236.25 560.20 245.00 566.50 245.00
  C 572.25 245.00 579.03 244.48 584.09 245.80
  C 596.33 249.00 602.47 261.17 598.50 272.86
  C 594.93 283.35 585.15 286.44 574.50 286.20
  Q 565.88 286.00 557.25 286.14
  C 549.26 286.27 549.15 275.80 556.25 275.68
  Q 564.18 275.54 572.12 275.51
  Q 580.89 275.47 581.87 275.28
  C 593.42 272.99 591.21 255.89 578.61 255.38
  C 566.92 254.90 554.78 257.51 551.54 243.05
  A 0.58 0.50 78.1 0 0 550.93 242.59
  Z"
/>
<path fill="#f0eef1" d="
  M 95.89 232.50
  A 2.42 1.51 31.3 0 1 96.72 234.15
  L 96.39 238.28
  A 0.39 0.34 19.8 0 1 95.82 238.50
  Q 89.63 234.78 88.46 227.27
  Q 88.18 225.43 89.58 226.72
  L 95.89 232.50
  Z"
/>
<path fill="#ecba89" d="
  M 61.54 227.41
  C 65.86 232.96 61.82 239.78 56.18 242.43
  Q 55.00 242.98 55.17 241.70
  L 56.37 232.43
  A 1.16 1.02 -15.6 0 1 56.86 231.67
  Q 59.10 230.19 60.85 227.45
  A 0.43 0.42 -47.5 0 1 61.54 227.41
  Z"
/>
<path fill="#feffff" d="
  M 99.10 233.39
  L 99.79 234.75
  L 99.00 239.26
  Q 98.62 241.41 97.88 239.41
  Q 96.59 235.94 99.10 233.39
  Z"
/>
<path fill="#e9e7ea" d="
  M 99.10 233.39
  Q 112.74 233.46 125.22 237.89
  A 0.57 0.49 20.9 0 1 125.58 238.56
  L 124.49 241.24
  A 1.55 1.22 3.1 0 1 123.38 242.02
  Q 111.25 244.03 101.46 241.44
  Q 99.56 240.93 99.91 239.00
  Q 100.35 236.56 99.79 234.75
  L 99.10 233.39
  Z"
/>
<path fill="#feffff" d="
  M 90.16 245.66
  Q 93.29 241.45 96.46 240.44
  Q 96.96 240.29 96.70 240.75
  C 96.31 241.45 91.14 248.56 90.10 246.83
  A 1.04 1.03 48.3 0 1 90.16 245.66
  Z"
/>
<path fill="#e9e7ea" d="
  M 127.10 275.55
  Q 101.92 276.04 77.00 275.46
  C 78.70 266.21 82.46 254.89 90.84 248.79
  A 1.29 1.26 29.9 0 1 91.74 248.56
  C 96.27 249.08 108.23 250.38 112.02 248.09
  Q 112.48 247.81 111.93 247.84
  Q 103.30 248.23 93.63 247.41
  Q 92.82 247.34 93.34 246.76
  L 97.05 242.64
  A 2.18 1.74 24.1 0 1 99.00 242.14
  Q 111.32 244.86 123.27 243.07
  A 0.70 0.70 0.9 0 1 124.06 243.88
  Q 123.32 248.14 124.14 252.02
  A 0.92 0.92 61.3 0 1 123.90 252.85
  C 117.20 259.90 120.34 269.88 127.10 275.55
  Z"
/>
<path fill="#feffff" d="
  M 74.50 275.46
  L 73.25 275.46
  Q 72.97 275.03 73.44 274.19
  C 76.65 268.34 78.15 260.81 81.08 255.15
  C 81.94 253.48 86.10 247.02 88.18 247.87
  A 0.80 0.80 -55.7 0 1 88.43 249.20
  C 81.33 255.87 79.33 264.68 76.19 273.44
  Q 75.61 275.05 74.50 275.46
  Z"
/>
<path fill="#deac8b" d="
  M 192.54 249.50
  C 196.13 263.51 192.35 281.30 178.52 288.26
  C 165.42 294.86 143.20 285.74 139.54 271.00
  Q 141.06 271.28 141.00 269.69
  Q 140.97 269.02 141.52 269.41
  C 145.09 271.94 146.78 275.31 151.03 277.19
  C 159.00 280.71 170.28 282.75 177.91 278.24
  C 188.85 271.77 186.07 259.30 192.54 249.50
  Z"
/>
<path fill="#f0eef1" d="
  M 29.32 251.71
  Q 32.49 253.93 35.96 254.50
  Q 34.31 257.50 31.48 259.41
  A 0.46 0.45 -31.4 0 1 30.82 259.25
  Q 28.97 255.71 29.32 251.71
  Z"
/>
<path fill="#deac8b" d="
  M 136.94 275.75
  C 128.28 276.56 118.99 265.74 125.24 257.69
  A 0.49 0.48 47.7 0 1 126.03 257.73
  Q 129.78 263.68 135.84 266.01
  A 0.88 0.82 8.1 0 1 136.39 266.69
  L 137.40 275.19
  A 0.51 0.50 -6.1 0 1 136.94 275.75
  Z"
/>
</svg>
