<?xml version="1.0" encoding="UTF-8" standalone="no"?>
<!DOCTYPE svg PUBLIC "-//W3C//DTD SVG 1.1//EN" "http://www.w3.org/Graphics/SVG/1.1/DTD/svg11.dtd">
<svg xmlns="http://www.w3.org/2000/svg" version="1.1" viewBox="0 0 600 300">
<path fill="#000000" d="
  M 241.06 132.44
  C 231.42 129.02 218.68 119.18 229.08 107.95
  C 238.82 97.43 262.70 94.03 276.25 92.95
  C 294.96 91.46 367.66 89.36 374.43 114.03
  C 377.71 125.97 359.30 132.81 350.98 134.91
  Q 333.02 139.45 314.50 140.00
  C 288.82 140.77 264.03 140.58 241.06 132.44
  Z
  M 329.22 106.91
  C 329.86 105.32 331.13 105.00 332.27 106.41
  Q 332.89 107.18 333.25 108.22
  L 338.73 124.14
  A 0.77 0.75 75.1 0 1 338.16 125.14
  C 335.90 125.54 333.07 125.74 330.65 125.33
  Q 328.85 125.03 329.42 128.16
  A 0.71 0.71 -4.8 0 0 330.12 128.75
  L 342.95 128.75
  A 0.64 0.64 -9.4 0 0 343.56 127.90
  Q 340.14 117.88 337.06 108.67
  C 335.63 104.39 333.39 101.08 328.50 103.00
  C 324.73 104.49 320.83 120.07 319.56 124.27
  C 318.89 126.49 318.47 125.03 318.52 124.14
  Q 318.87 118.57 318.74 112.69
  A 0.91 0.86 89.0 0 0 317.87 111.80
  L 309.68 111.90
  A 0.82 0.76 -76.7 0 0 308.97 112.38
  Q 307.28 116.05 312.64 115.09
  Q 315.23 114.63 315.23 117.19
  L 315.23 123.99
  A 1.22 1.21 -0.7 0 1 314.04 125.20
  C 310.17 125.31 303.25 126.96 303.25 120.75
  Q 303.25 114.88 303.25 110.16
  Q 303.25 106.58 306.99 106.50
  L 317.88 106.27
  A 0.79 0.75 -85.3 0 0 318.61 105.61
  Q 319.14 102.36 316.74 102.65
  C 309.37 103.54 300.30 100.15 299.80 111.23
  C 299.63 115.20 298.88 123.00 301.34 126.19
  C 304.40 130.15 316.02 128.75 320.68 128.75
  A 1.38 1.37 -81.8 0 0 322.00 127.76
  Q 325.07 117.14 329.22 106.91
  Z
  M 268.79 119.80
  Q 269.76 120.75 268.40 120.76
  L 258.32 120.80
  A 0.82 0.72 9.1 0 0 257.60 121.26
  Q 257.04 122.61 257.69 123.89
  A 0.88 0.75 -11.3 0 0 258.44 124.31
  C 261.86 124.27 273.18 125.88 272.75 120.25
  C 272.27 113.87 264.72 118.83 261.71 113.85
  C 260.38 111.63 260.97 108.86 263.07 107.43
  C 265.58 105.71 273.17 106.52 276.51 106.29
  A 0.78 0.73 6.0 0 0 277.18 105.78
  Q 277.64 104.42 276.96 103.23
  A 0.84 0.75 -14.6 0 0 276.20 102.84
  C 271.78 103.06 265.90 102.38 262.39 103.84
  C 253.90 107.37 256.93 119.70 266.41 119.76
  C 266.73 119.76 268.67 119.69 268.79 119.80
  Z
  M 280.03 106.52
  Q 279.07 107.89 279.05 109.56
  C 278.96 114.67 277.33 125.00 282.66 127.81
  C 285.90 129.53 293.14 128.75 297.36 128.75
  A 0.69 0.68 7.8 0 0 298.02 128.26
  Q 298.94 125.19 297.10 125.32
  C 293.88 125.55 290.52 125.14 287.25 125.25
  C 280.44 125.50 282.45 116.53 282.49 112.10
  C 282.53 108.36 283.40 105.77 287.75 106.50
  Q 289.97 106.87 297.51 106.29
  A 0.84 0.77 7.7 0 0 298.21 105.80
  Q 298.72 104.52 298.17 103.26
  A 0.78 0.72 -12.2 0 0 297.44 102.83
  C 291.64 103.04 283.69 101.30 280.03 106.52
  Z
  M 329.38 122.81
  C 329.26 125.12 334.36 124.25 336.38 124.25
  A 0.88 0.87 79.9 0 0 337.20 123.07
  Q 334.40 115.29 332.00 107.77
  C 331.69 106.79 330.50 105.95 330.00 107.25
  Q 328.12 112.15 322.91 128.03
  A 0.49 0.48 -72.3 0 0 323.22 128.66
  Q 324.72 129.09 326.23 128.61
  A 1.25 1.12 -83.8 0 0 326.92 127.99
  C 327.33 127.14 328.57 122.42 328.94 122.32
  A 0.46 0.35 85.9 0 1 329.38 122.81
  Z
  M 266.15 115.27
  C 275.58 113.80 276.28 125.60 268.00 125.37
  C 266.05 125.31 259.90 124.69 258.37 125.26
  Q 257.24 125.68 257.73 128.19
  A 0.71 0.71 83.9 0 0 258.42 128.75
  Q 263.37 128.75 267.50 128.89
  C 281.20 129.36 279.83 109.96 266.74 111.92
  A 1.16 0.93 -24.1 0 1 265.86 111.69
  C 264.04 109.98 274.43 111.06 275.00 111.12
  Q 278.18 111.47 277.33 108.29
  A 1.02 1.01 83.0 0 0 276.38 107.54
  C 272.94 107.42 265.05 106.53 262.78 109.16
  Q 260.77 111.49 263.49 114.36
  A 3.04 3.03 -26.0 0 0 266.15 115.27
  Z
  M 287.41 111.21
  C 288.92 108.72 300.03 114.10 298.10 108.04
  A 0.72 0.70 -7.8 0 0 297.43 107.55
  C 294.56 107.49 287.20 106.97 285.42 107.84
  Q 282.93 109.05 283.78 114.16
  A 1.45 1.44 83.8 0 0 285.28 115.37
  C 287.87 115.22 291.07 115.05 294.08 115.35
  Q 296.48 115.58 295.48 112.40
  A 0.95 0.93 -8.0 0 0 294.59 111.75
  L 287.81 111.70
  Q 287.12 111.70 287.41 111.21
  Z
  M 310.33 120.52
  C 306.41 122.74 307.61 114.90 307.47 113.17
  Q 307.29 110.75 309.72 110.75
  C 312.07 110.75 314.52 110.71 316.98 110.90
  Q 319.84 111.12 318.46 107.95
  A 0.80 0.76 -11.3 0 0 317.74 107.50
  Q 313.00 107.49 308.26 107.33
  C 302.64 107.14 304.20 113.93 304.24 117.60
  C 304.32 124.09 304.41 124.29 310.98 124.32
  Q 312.23 124.33 313.46 124.05
  A 0.75 0.73 89.6 0 0 314.03 123.45
  Q 314.62 120.25 314.03 117.05
  A 0.66 0.59 -2.6 0 0 313.43 116.56
  L 310.05 116.37
  A 1.03 0.84 17.6 0 0 309.24 116.69
  Q 307.36 119.03 310.28 120.10
  Q 310.77 120.27 310.33 120.52
  Z
  M 287.29 120.19
  C 287.40 119.44 292.44 119.84 294.82 119.61
  A 1.04 0.91 10.1 0 0 295.59 119.15
  Q 296.21 118.06 295.70 117.00
  A 0.85 0.80 -12.2 0 0 294.95 116.55
  L 284.36 116.51
  A 0.86 0.85 -89.7 0 0 283.50 117.37
  L 283.50 121.00
  Q 283.50 124.25 286.25 124.25
  C 289.67 124.25 293.31 124.03 296.70 124.32
  Q 298.64 124.49 298.07 121.60
  A 1.09 1.07 -5.2 0 0 297.02 120.74
  L 287.80 120.70
  A 0.51 0.45 3.4 0 1 287.29 120.19
  Z"
/>
<path fill="#000000" d="
  M 329.79 119.65
  C 331.31 114.06 333.56 121.37 330.14 120.29
  A 0.53 0.53 -73.9 0 1 329.79 119.65
  Z"
/>
<path fill="#000000" d="
  M 600.00 175.06
  L 600.00 178.31
  C 595.59 205.91 536.77 206.99 515.25 206.99
  Q 299.63 207.00 84.00 206.98
  C 64.05 206.98 4.04 206.13 0.00 177.94
  L 0.00 174.94
  Q 2.06 163.60 12.28 158.26
  C 32.21 147.85 57.29 146.25 80.00 146.00
  C 99.25 145.79 119.42 146.85 138.46 144.82
  C 150.08 143.58 211.83 135.65 213.50 121.75
  C 213.89 118.46 214.69 121.41 214.65 121.96
  C 213.64 137.37 257.24 143.96 267.52 145.03
  C 286.14 146.97 306.52 145.75 325.50 145.75
  Q 329.93 145.75 343.84 143.49
  C 354.44 141.77 385.52 135.66 385.50 121.22
  C 385.50 120.95 385.80 119.29 386.15 120.97
  C 388.44 131.99 415.46 137.06 424.22 138.88
  C 441.29 142.44 460.83 146.09 478.25 145.87
  Q 500.13 145.59 522.00 145.98
  C 541.38 146.33 596.95 148.33 600.00 175.06
  Z
  M 105.73 154.68
  C 81.86 154.72 57.55 153.97 34.43 161.03
  C 27.27 163.21 15.41 170.40 18.39 179.17
  C 24.69 197.72 76.09 198.46 91.58 198.33
  C 180.02 197.57 268.55 198.30 357.00 198.40
  Q 492.96 198.55 524.75 198.00
  C 537.34 197.78 578.80 194.61 581.63 177.77
  C 585.05 157.49 531.49 154.91 520.00 154.75
  Q 489.00 154.31 443.00 154.32
  Q 274.36 154.36 105.73 154.68
  Z"
/>
<path fill="#000000" d="
  M 122.25 159.75
  C 126.79 159.76 131.48 163.66 130.92 168.19
  A 1.50 1.49 3.6 0 1 129.42 169.50
  Q 95.17 169.39 62.31 169.50
  C 61.00 169.50 58.59 170.14 58.77 168.02
  C 59.01 165.41 58.51 162.95 58.97 160.31
  A 0.61 0.60 -84.8 0 1 59.56 159.81
  Q 90.90 159.70 122.25 159.75
  Z"
/>
<path fill="#000000" d="
  M 233.76 169.44
  C 216.93 169.64 199.91 169.03 182.94 169.26
  A 0.66 0.66 4.1 0 1 182.28 168.50
  C 183.77 159.20 189.52 159.75 197.93 159.75
  Q 215.76 159.75 233.91 159.75
  A 0.82 0.82 -85.8 0 1 234.72 160.69
  Q 234.16 164.37 234.75 168.27
  A 1.01 1.01 85.3 0 1 233.76 169.44
  Z"
/>
<path fill="#000000" d="
  M 282.50 159.68
  C 287.62 159.66 290.94 163.35 291.33 168.53
  A 0.91 0.90 -2.0 0 1 290.42 169.50
  L 238.69 169.50
  A 0.69 0.69 -88.8 0 1 238.00 168.78
  C 238.26 161.35 242.90 159.75 249.72 159.75
  Q 266.11 159.74 282.50 159.68
  Z"
/>
<path fill="#000000" d="
  M 351.40 159.64
  C 356.91 159.39 361.26 162.79 361.51 168.55
  A 0.83 0.82 -89.1 0 1 360.63 169.41
  Q 356.85 169.13 352.75 169.25
  Q 331.38 169.85 310.01 169.26
  A 0.58 0.51 0.1 0 1 309.44 168.76
  L 309.39 160.44
  A 0.56 0.50 -1.1 0 1 309.94 159.93
  C 323.71 159.71 337.68 160.26 351.40 159.64
  Z"
/>
<path fill="#000000" d="
  M 364.81 168.83
  C 364.58 164.16 368.41 159.95 373.00 159.90
  Q 389.44 159.72 405.87 159.79
  C 412.59 159.82 416.54 161.74 417.02 168.78
  A 0.49 0.48 88.3 0 1 416.54 169.30
  L 365.30 169.31
  A 0.50 0.49 88.8 0 1 364.81 168.83
  Z"
/>
<rect fill="#000000" x="132.76" y="160.25" width="47.24" height="9.74" rx="0.74"/>
<rect fill="#000000" x="-6.42" y="-4.85" transform="translate(426.58,165.10) rotate(0.2)" width="12.84" height="9.70" rx="0.77"/>
<path fill="#000000" d="
  M 492.46 162.49
  C 491.81 162.53 474.59 188.66 472.67 191.52
  A 2.77 2.76 16.8 0 1 470.37 192.75
  L 456.82 192.75
  Q 455.12 192.75 454.14 191.31
  L 433.73 161.10
  A 0.30 0.30 69.6 0 1 433.94 160.63
  Q 441.43 159.75 448.94 160.51
  A 1.07 1.06 75.9 0 1 449.72 160.98
  L 462.98 180.57
  A 0.62 0.62 44.8 0 0 464.01 180.57
  L 477.17 161.03
  A 1.76 1.75 16.8 0 1 478.63 160.25
  L 538.83 160.25
  A 0.92 0.92 89.9 0 1 539.75 161.17
  L 539.75 168.85
  A 0.94 0.92 90.0 0 1 538.83 169.79
  L 493.28 169.80
  A 0.79 0.72 1.7 0 1 492.49 169.03
  L 492.86 163.03
  A 0.51 0.38 -89.5 0 0 492.46 162.49
  Z"
/>
<circle fill="#000000" cx="32.69" cy="176.47" r="8.23"/>
<circle fill="#000000" cx="567.29" cy="176.47" r="8.23"/>
<rect fill="#000000" x="-6.67" y="-10.51" transform="translate(65.18,182.02) rotate(-0.3)" width="13.34" height="21.02" rx="0.59"/>
<rect fill="#000000" x="-6.75" y="-10.52" transform="translate(95.25,182.03) rotate(-0.1)" width="13.50" height="21.04" rx="0.77"/>
<rect fill="#000000" x="117.28" y="171.50" width="13.46" height="21.06" rx="0.72"/>
<rect fill="#000000" x="-6.75" y="-10.52" transform="translate(244.25,182.03) rotate(0.1)" width="13.50" height="21.04" rx="0.74"/>
<path fill="#000000" d="
  M 278.44 185.08
  L 256.42 185.25
  A 0.93 0.92 -90.0 0 1 255.50 184.32
  L 255.50 178.56
  A 0.59 0.57 -0.5 0 1 256.08 177.99
  L 278.56 177.83
  A 0.57 0.52 -0.1 0 0 279.12 177.32
  L 279.22 172.26
  A 0.52 0.48 -89.4 0 1 279.70 171.75
  L 290.77 171.75
  A 0.71 0.69 0.4 0 1 291.48 172.45
  L 291.33 192.07
  A 0.56 0.54 -1.8 0 1 290.81 192.60
  Q 286.81 192.86 282.80 192.77
  C 280.70 192.73 278.56 193.41 279.25 190.00
  Q 279.59 188.31 279.04 185.55
  A 0.60 0.59 -6.4 0 0 278.44 185.08
  Z"
/>
<rect fill="#000000" x="-6.11" y="-10.52" transform="translate(315.37,182.22) rotate(0.1)" width="12.22" height="21.04" rx="0.64"/>
<path fill="#000000" d="
  M 347.47 181.53
  Q 349.14 177.66 348.01 172.80
  A 0.86 0.85 83.5 0 1 348.84 171.75
  L 360.75 171.75
  A 0.54 0.54 87.7 0 1 361.29 172.25
  C 362.26 184.47 363.05 193.30 348.24 193.00
  Q 336.25 192.75 324.09 192.75
  A 1.09 1.09 89.8 0 1 323.00 191.66
  L 323.00 183.92
  A 0.92 0.92 -0.1 0 1 323.92 183.00
  L 345.24 183.00
  A 2.43 2.43 11.6 0 0 347.47 181.53
  Z"
/>
<rect fill="#000000" x="-6.05" y="-10.55" transform="translate(370.80,182.19) rotate(0.1)" width="12.10" height="21.10" rx="0.65"/>
<path fill="#000000" d="
  M 403.26 175.49
  Q 404.10 174.31 403.80 172.55
  A 0.68 0.67 85.3 0 1 404.46 171.76
  L 416.32 171.69
  A 0.64 0.63 -6.9 0 1 416.94 172.17
  Q 418.59 178.75 414.62 184.04
  A 0.63 0.62 -46.7 0 0 414.64 184.82
  L 419.81 190.94
  Q 420.70 191.99 420.69 190.69
  L 420.51 172.62
  A 0.88 0.87 -0.0 0 1 421.39 171.75
  L 431.81 171.75
  A 0.94 0.94 0.0 0 1 432.75 172.69
  L 432.75 191.57
  A 1.18 1.16 -89.5 0 1 431.57 192.75
  L 406.75 192.27
  A 1.34 0.87 60.0 0 1 405.95 191.86
  L 400.82 186.62
  A 1.36 0.94 -15.3 0 0 399.94 186.31
  L 379.63 186.25
  A 0.88 0.87 0.0 0 1 378.75 185.38
  L 378.75 177.41
  A 0.66 0.66 -0.2 0 1 379.41 176.75
  L 400.80 176.75
  A 3.03 3.01 17.6 0 0 403.26 175.49
  Z"
/>
<path fill="#000000" d="
  M 146.79 181.28
  C 147.90 183.33 150.27 183.01 152.38 182.99
  Q 165.97 182.87 179.56 183.18
  A 0.55 0.50 0.6 0 1 180.10 183.68
  L 180.20 191.79
  A 1.00 0.95 -0.3 0 1 179.20 192.75
  Q 162.73 192.75 146.79 192.75
  C 130.10 192.75 133.94 184.88 133.07 172.50
  A 0.70 0.70 88.1 0 1 133.77 171.75
  L 145.24 171.75
  A 1.65 1.14 55.3 0 1 146.12 172.08
  C 149.04 174.22 173.07 173.00 178.46 173.00
  A 0.59 0.55 88.9 0 1 179.01 173.57
  L 179.15 179.13
  A 0.84 0.78 88.9 0 1 178.37 180.00
  L 147.55 180.00
  A 0.87 0.86 -14.3 0 0 146.79 181.28
  Z"
/>
<path fill="#000000" d="
  M 232.56 174.69
  C 238.64 180.24 236.76 192.45 226.50 192.56
  Q 209.12 192.75 191.75 192.75
  C 180.10 192.75 182.49 179.71 182.44 172.44
  A 0.53 0.50 -90.0 0 1 182.94 171.91
  L 195.19 171.79
  A 0.55 0.53 88.3 0 1 195.72 172.31
  C 195.96 176.52 193.84 183.40 200.33 183.11
  C 209.19 182.73 216.56 183.37 220.31 182.81
  Q 222.16 182.54 222.31 180.69
  A 0.49 0.49 -88.3 0 0 221.82 180.17
  L 206.33 180.02
  A 1.19 1.04 0.3 0 1 205.15 178.98
  L 205.20 173.56
  A 0.63 0.52 -0.7 0 1 205.81 173.05
  C 210.98 172.96 229.26 171.67 232.56 174.69
  Z"
/>
<path fill="#000000" d="
  M 506.42 180.80
  C 506.83 182.26 508.02 182.94 509.58 182.95
  Q 524.53 183.04 539.31 183.00
  A 0.94 0.92 0.0 0 1 540.25 183.92
  L 540.20 191.81
  A 0.97 0.95 0.3 0 1 539.23 192.75
  Q 520.62 192.75 502.50 192.69
  C 490.42 192.65 493.00 180.13 493.00 172.53
  A 0.78 0.78 -89.9 0 1 493.78 171.75
  L 505.00 171.75
  A 1.63 1.17 56.0 0 1 505.87 172.07
  C 508.49 174.03 527.88 172.94 538.07 173.18
  A 0.56 0.51 0.6 0 1 538.62 173.69
  L 538.70 179.24
  A 0.85 0.77 -0.7 0 1 537.86 180.02
  L 506.82 180.30
  A 0.41 0.39 -7.9 0 0 506.42 180.80
  Z"
/>
</svg>
