<?xml version="1.0" encoding="UTF-8" standalone="no"?>
<!DOCTYPE svg PUBLIC "-//W3C//DTD SVG 1.1//EN" "http://www.w3.org/Graphics/SVG/1.1/DTD/svg11.dtd">
<svg xmlns="http://www.w3.org/2000/svg" version="1.1" viewBox="0 0 600 300">
<path fill="#000000" d="
  M 309.44 126.55
  L 297.01 126.51
  A 0.51 0.50 -89.4 0 0 296.50 127.02
  L 296.50 144.65
  A 0.85 0.85 -0.0 0 1 295.65 145.50
  L 229.35 145.50
  A 0.85 0.84 0.0 0 1 228.50 144.66
  L 228.57 127.33
  A 0.78 0.75 -90.0 0 0 227.82 126.55
  L 212.55 126.56
  A 2.01 1.81 -72.0 0 0 210.96 127.48
  L 199.72 145.02
  A 0.92 0.91 16.3 0 1 198.95 145.44
  L 174.78 145.50
  A 0.78 0.75 0.4 0 1 174.00 144.74
  L 174.17 131.38
  Q 174.18 130.41 173.52 131.10
  Q 159.70 145.41 140.00 145.45
  Q 114.62 145.50 88.30 145.50
  A 0.80 0.80 -88.7 0 1 87.50 144.70
  L 87.50 127.42
  A 0.67 0.67 0.0 0 0 86.83 126.75
  L 75.93 126.75
  A 3.08 3.06 -72.1 0 0 73.44 128.03
  L 61.33 144.93
  A 1.41 1.37 17.3 0 1 60.20 145.50
  L 29.17 145.50
  Q 28.46 145.50 28.87 144.92
  L 41.25 127.70
  Q 41.94 126.75 40.76 126.76
  L 11.25 127.00
  Q 10.01 127.01 10.69 125.96
  L 39.14 82.19
  A 1.52 1.51 -73.4 0 1 40.41 81.50
  L 73.06 81.50
  A 1.64 1.62 -71.9 0 0 74.38 80.82
  L 90.04 58.85
  A 1.41 1.40 -72.4 0 1 91.19 58.25
  Q 116.50 58.25 140.75 58.32
  Q 160.83 58.37 173.03 72.94
  Q 174.09 74.20 174.07 72.52
  L 173.91 58.93
  A 0.54 0.50 -0.5 0 1 174.45 58.42
  L 199.94 58.30
  A 0.51 0.50 90.0 0 1 200.44 58.81
  L 200.50 80.48
  A 1.14 1.09 -1.3 0 0 201.69 81.57
  L 210.16 81.25
  A 1.33 1.11 12.2 0 0 211.16 80.73
  L 225.51 59.00
  A 1.68 1.68 -73.1 0 1 226.91 58.25
  L 293.67 58.25
  A 1.05 1.04 -17.2 0 1 294.53 58.70
  L 309.77 80.52
  A 1.15 0.81 67.1 0 0 310.55 81.01
  L 318.40 81.16
  A 0.91 0.84 -89.7 0 0 319.25 80.25
  L 319.25 58.91
  A 0.66 0.66 -0.2 0 1 319.91 58.25
  L 406.97 58.25
  A 0.82 0.80 89.6 0 1 407.77 59.06
  L 407.92 80.55
  A 0.55 0.51 90.0 0 0 408.43 81.10
  L 420.60 81.04
  A 1.01 0.92 -90.0 0 0 421.51 80.04
  L 421.56 58.82
  A 0.51 0.50 -90.0 0 1 422.06 58.31
  Q 445.88 58.06 469.71 58.40
  C 480.62 58.55 486.26 59.98 494.26 66.37
  Q 494.94 66.91 494.92 66.01
  L 494.79 58.81
  A 0.53 0.49 -0.5 0 1 495.32 58.31
  L 546.43 58.25
  A 1.06 1.04 0.0 0 1 547.49 59.29
  L 547.32 80.32
  A 0.42 0.41 -89.3 0 0 547.73 80.75
  L 589.24 80.69
  Q 590.30 80.69 589.70 81.57
  L 559.55 125.16
  A 2.84 2.61 15.7 0 1 557.30 126.30
  L 547.93 126.40
  A 0.54 0.50 89.5 0 0 547.44 126.94
  L 547.50 144.65
  A 0.85 0.85 -0.0 0 1 546.65 145.50
  L 479.47 145.50
  A 2.04 2.04 71.8 0 1 477.83 144.67
  C 476.16 142.43 465.44 126.94 464.74 126.90
  A 0.51 0.40 86.2 0 0 464.34 127.49
  C 465.13 132.99 464.40 139.09 464.75 144.74
  A 0.71 0.71 88.1 0 1 464.04 145.50
  L 440.52 145.50
  A 0.52 0.52 -90.0 0 1 440.00 144.98
  L 440.00 135.77
  Q 440.00 134.97 439.47 135.57
  C 423.94 153.23 394.35 150.16 385.04 127.38
  A 1.06 1.05 -3.7 0 0 384.31 126.75
  Q 380.38 125.81 377.42 126.55
  A 0.68 0.66 -7.4 0 0 376.91 127.19
  L 376.93 144.78
  A 0.72 0.68 90.0 0 1 376.25 145.50
  L 352.80 145.50
  A 0.64 0.62 -90.0 0 1 352.18 144.86
  L 352.19 127.21
  A 1.12 0.94 -0.3 0 0 351.06 126.27
  L 345.17 126.31
  A 1.18 0.97 -0.5 0 0 344.00 127.29
  L 344.06 144.99
  A 0.50 0.50 89.4 0 1 343.56 145.50
  L 322.90 145.50
  A 1.43 1.40 73.5 0 1 321.71 144.84
  L 310.21 126.99
  A 0.95 0.89 72.6 0 0 309.44 126.55
  Z
  M 72.57 118.04
  L 93.56 117.79
  A 0.96 0.93 89.7 0 1 94.50 118.75
  L 94.50 137.98
  A 0.52 0.52 90.0 0 0 95.02 138.50
  L 106.76 138.50
  A 0.55 0.54 -0.5 0 0 107.31 137.95
  L 107.00 66.14
  A 0.86 0.84 89.7 0 0 106.15 65.28
  L 94.44 65.41
  A 1.04 0.92 -70.1 0 0 93.65 65.84
  L 42.39 137.80
  Q 41.84 138.58 42.80 138.58
  L 56.42 138.51
  A 1.93 1.81 16.6 0 0 57.93 137.75
  L 71.78 118.47
  A 1.01 0.93 -71.2 0 1 72.57 118.04
  Z
  M 164.84 74.29
  C 150.09 62.07 133.23 65.33 115.78 65.19
  A 1.02 1.01 0.3 0 0 114.75 66.20
  L 114.75 138.00
  A 0.68 0.68 -1.2 0 0 115.46 138.68
  C 131.92 138.14 151.99 141.72 165.30 129.37
  C 180.07 115.68 178.67 91.64 166.93 76.45
  Q 166.01 75.25 164.84 74.29
  Z
  M 289.55 83.60
  Q 289.55 81.45 290.71 83.27
  L 325.31 137.64
  A 1.87 1.83 -15.8 0 0 326.88 138.50
  L 336.22 138.50
  A 0.78 0.78 -89.9 0 0 337.00 137.72
  L 337.00 66.04
  A 0.99 0.95 -0.6 0 0 335.99 65.09
  L 326.77 65.25
  A 0.53 0.50 -0.6 0 0 326.25 65.75
  L 326.44 115.69
  Q 326.44 116.84 325.81 115.94
  L 290.98 65.84
  A 1.99 1.68 -14.9 0 0 289.41 65.10
  L 279.56 65.21
  A 0.82 0.79 -0.4 0 0 278.75 66.00
  L 278.75 137.87
  A 0.86 0.80 -0.0 0 0 279.61 138.67
  L 288.97 138.58
  A 0.72 0.69 -0.8 0 0 289.68 137.88
  L 289.55 83.60
  Z
  M 358.50 75.05
  A 0.77 0.76 -89.6 0 1 359.25 75.82
  L 359.18 137.78
  A 0.75 0.73 0.0 0 0 359.93 138.51
  L 369.30 138.58
  A 0.64 0.62 0.0 0 0 369.94 137.96
  L 369.75 75.94
  A 0.94 0.94 0.0 0 1 370.69 75.00
  L 383.13 75.00
  A 0.87 0.87 0.0 0 0 384.00 74.13
  L 384.00 66.02
  A 0.95 0.95 -0.3 0 0 383.04 65.07
  L 345.89 65.24
  A 0.91 0.90 -4.4 0 0 345.00 66.27
  Q 345.58 70.00 345.00 73.76
  A 1.09 1.08 4.6 0 0 346.07 75.00
  L 358.50 75.05
  Z
  M 407.64 138.95
  C 424.13 143.41 439.20 132.56 439.22 115.25
  Q 439.25 91.00 439.25 66.09
  A 1.04 0.99 -0.6 0 0 438.19 65.10
  L 429.18 65.23
  A 0.94 0.90 -0.3 0 0 428.25 66.13
  Q 428.25 91.25 428.25 116.25
  C 428.25 130.92 407.97 135.53 402.28 122.22
  Q 400.82 118.81 400.79 111.46
  Q 400.71 89.23 400.75 66.04
  A 0.81 0.80 0.0 0 0 399.94 65.24
  L 390.55 65.17
  A 0.55 0.54 0.0 0 0 390.00 65.71
  Q 390.00 89.50 390.00 113.00
  Q 390.00 134.17 407.64 138.95
  Z
  M 457.58 106.32
  Q 457.58 104.19 458.80 105.92
  L 481.46 137.95
  A 1.36 1.30 -16.9 0 0 482.55 138.50
  L 494.58 138.58
  Q 495.44 138.58 494.93 137.90
  L 475.25 111.90
  A 0.49 0.49 -22.3 0 1 475.58 111.12
  C 491.35 109.09 497.74 98.03 495.20 83.12
  Q 493.06 70.51 480.52 66.63
  C 471.72 63.90 458.03 65.27 447.97 65.19
  A 1.22 1.21 -89.8 0 0 446.75 66.41
  L 446.74 137.61
  A 1.12 1.04 0.0 0 0 447.86 138.65
  L 456.98 138.58
  A 0.72 0.67 -0.4 0 0 457.69 137.91
  L 457.58 106.32
  Z
  M 193.32 118.21
  L 193.68 66.06
  A 0.55 0.54 3.4 0 0 193.18 65.51
  Q 187.32 64.92 181.44 65.39
  A 0.57 0.56 -1.1 0 0 180.92 65.93
  C 180.49 75.52 180.99 86.36 180.89 94.69
  Q 180.64 116.44 181.30 138.19
  A 0.51 0.48 -0.6 0 0 181.81 138.66
  L 194.75 138.66
  A 1.61 1.40 14.3 0 0 196.04 138.01
  L 234.45 77.92
  Q 235.68 75.99 235.68 78.28
  L 235.51 137.89
  A 0.61 0.60 0.5 0 0 236.12 138.50
  L 272.30 138.56
  A 0.71 0.70 -3.9 0 0 273.00 137.76
  Q 272.43 133.72 272.94 129.63
  A 0.79 0.78 3.8 0 0 272.16 128.75
  L 246.74 128.75
  A 0.99 0.99 0.5 0 1 245.75 127.76
  L 245.75 107.17
  A 0.67 0.67 -90.0 0 1 246.42 106.50
  L 272.10 106.44
  A 0.77 0.74 90.0 0 0 272.84 105.67
  L 272.76 97.34
  A 0.86 0.85 0.3 0 0 271.91 96.49
  L 246.44 96.32
  A 0.55 0.53 88.3 0 1 245.91 95.80
  Q 245.41 85.68 246.03 75.56
  A 0.54 0.53 1.7 0 1 246.57 75.06
  L 271.76 75.00
  A 0.99 0.99 -0.5 0 0 272.75 74.01
  L 272.75 65.79
  A 0.54 0.54 0.0 0 0 272.21 65.25
  L 230.50 65.25
  A 1.43 1.42 16.3 0 0 229.30 65.90
  L 194.55 118.58
  Q 193.31 120.47 193.32 118.21
  Z
  M 512.56 95.94
  L 512.51 75.94
  A 0.94 0.93 -0.3 0 1 513.45 75.00
  L 540.43 75.00
  A 1.34 1.33 -4.6 0 0 541.75 73.46
  Q 541.22 70.12 541.83 66.27
  A 0.87 0.86 -85.5 0 0 540.98 65.26
  L 502.19 65.43
  A 0.51 0.50 -90.0 0 0 501.69 65.94
  L 501.75 137.95
  A 0.56 0.55 0.0 0 0 502.31 138.50
  L 540.85 138.56
  A 0.91 0.90 -4.3 0 0 541.75 137.52
  Q 541.17 133.75 541.82 129.54
  A 0.69 0.69 4.3 0 0 541.14 128.75
  L 513.51 128.75
  A 1.01 1.01 89.6 0 1 512.50 127.74
  L 512.50 107.23
  A 0.73 0.73 -0.6 0 1 513.23 106.50
  L 540.67 106.50
  A 0.90 0.86 -89.3 0 0 541.53 105.62
  L 541.72 97.34
  A 0.82 0.77 -89.3 0 0 540.95 96.50
  L 513.07 96.44
  A 0.51 0.50 0.0 0 1 512.56 95.94
  Z"
/>
<path fill="#000000" d="
  M 164.14 110.92
  C 159.34 129.11 141.79 129.16 126.63 128.71
  A 1.17 1.16 -89.2 0 1 125.50 127.54
  L 125.50 75.79
  A 0.74 0.73 89.2 0 1 126.21 75.05
  C 136.08 74.71 147.09 73.98 155.37 80.40
  C 164.44 87.43 167.04 99.94 164.14 110.92
  Z"
/>
<path fill="#000000" d="
  M 457.69 76.18
  A 1.15 1.13 89.5 0 1 458.80 75.03
  C 467.05 74.81 477.95 73.67 483.06 81.80
  Q 486.23 86.84 484.58 92.37
  C 481.19 103.69 467.55 103.28 458.34 102.97
  A 0.62 0.61 -89.0 0 1 457.75 102.35
  L 457.69 76.18
  Z"
/>
<path fill="#000000" d="
  M 93.20 84.42
  Q 94.74 82.06 94.74 84.89
  L 94.78 105.79
  A 0.99 0.98 -0.3 0 1 93.80 106.77
  L 79.23 106.93
  Q 78.53 106.94 78.91 106.35
  L 93.20 84.42
  Z"
/>
<path fill="#000000" d="
  M 366.14 164.00
  Q 367.00 164.92 367.00 163.66
  L 367.00 150.94
  A 0.69 0.69 0.0 0 1 367.69 150.25
  L 388.84 150.25
  A 1.28 1.27 -17.3 0 1 389.89 150.80
  L 404.40 171.53
  A 1.71 1.70 72.3 0 0 405.79 172.25
  L 414.88 172.25
  A 0.87 0.86 -0.3 0 0 415.75 171.38
  L 415.68 151.18
  A 0.92 0.91 89.7 0 1 416.59 150.25
  L 439.99 150.25
  A 0.71 0.69 -89.6 0 1 440.68 150.97
  L 440.51 171.23
  A 1.01 1.00 -0.0 0 0 441.53 172.24
  L 483.12 172.07
  Q 483.87 172.06 483.45 172.67
  L 452.73 217.02
  A 1.03 0.95 15.6 0 1 451.93 217.43
  L 441.19 217.66
  A 0.53 0.51 89.4 0 0 440.69 218.19
  L 440.75 238.82
  A 0.68 0.68 0.0 0 1 440.07 239.50
  L 419.33 239.50
  A 1.87 1.80 73.1 0 1 417.79 238.64
  L 404.59 218.11
  A 0.96 0.87 72.7 0 0 403.82 217.66
  L 392.76 217.54
  A 0.90 0.84 -89.7 0 0 391.91 218.44
  L 391.83 238.81
  A 0.52 0.52 -0.6 0 1 391.32 239.33
  L 367.75 239.51
  A 0.54 0.50 -0.0 0 1 367.21 239.01
  L 367.12 226.50
  Q 367.11 224.94 366.07 226.03
  C 347.21 245.84 316.43 246.03 298.15 225.94
  Q 297.17 224.87 297.18 226.32
  L 297.25 238.85
  A 0.66 0.65 -0.0 0 1 296.59 239.50
  L 273.06 239.44
  A 0.65 0.64 -6.8 0 1 272.43 238.95
  Q 271.93 236.98 272.41 235.06
  Q 273.07 232.41 270.97 234.16
  C 259.81 243.48 241.04 243.29 230.54 233.02
  Q 228.70 231.23 229.25 233.74
  Q 229.82 236.38 229.35 239.01
  A 0.61 0.60 5.1 0 1 228.75 239.50
  L 205.01 239.57
  A 0.51 0.51 0.0 0 1 204.50 239.06
  L 204.44 218.56
  A 0.64 0.63 6.2 0 0 203.94 217.94
  Q 201.29 217.32 198.67 218.04
  A 0.98 0.93 -87.1 0 0 198.03 218.65
  L 191.10 238.96
  A 0.70 0.69 -80.7 0 1 190.44 239.44
  L 169.35 239.49
  A 1.05 1.04 79.9 0 1 168.35 238.79
  L 161.07 218.45
  A 1.06 1.04 80.0 0 0 160.09 217.75
  L 103.08 217.75
  Q 102.07 217.75 102.64 216.92
  L 132.73 173.31
  A 1.89 1.88 17.2 0 1 134.28 172.50
  L 143.52 172.50
  A 0.78 0.78 80.0 0 0 144.25 171.45
  L 136.86 151.35
  A 0.82 0.81 79.7 0 1 137.62 150.25
  L 162.01 150.25
  A 1.59 1.54 -9.7 0 1 163.49 151.26
  L 171.19 171.82
  A 1.18 1.13 -9.4 0 0 172.27 172.56
  L 184.69 172.65
  A 1.88 1.78 8.8 0 0 186.45 171.44
  L 193.21 151.13
  A 1.28 1.27 9.2 0 1 194.42 150.26
  L 228.82 150.43
  A 0.56 0.50 0.5 0 1 229.38 150.94
  L 229.25 157.75
  Q 229.21 159.69 230.44 158.19
  Q 233.59 154.32 238.13 152.20
  Q 255.08 144.26 271.43 156.19
  Q 272.33 156.84 272.37 155.67
  L 272.45 153.25
  Q 272.47 152.78 272.29 152.30
  Q 271.93 151.29 272.62 150.57
  A 1.34 0.95 15.5 0 1 273.50 150.25
  L 296.47 150.25
  A 0.77 0.76 0.0 0 1 297.24 151.01
  L 297.19 162.83
  Q 297.18 164.92 298.57 163.37
  C 316.61 143.33 347.88 144.51 366.14 164.00
  Z
  M 253.73 156.19
  C 242.11 154.87 230.97 162.84 230.25 174.75
  C 229.21 192.13 242.37 195.38 255.25 200.50
  C 269.03 205.98 263.97 225.62 249.82 223.63
  Q 240.85 222.36 239.04 211.21
  A 1.15 1.15 85.3 0 0 237.91 210.25
  L 229.49 210.25
  A 1.33 1.32 -2.9 0 0 228.17 211.71
  Q 230.05 229.91 246.99 233.78
  Q 252.46 235.03 258.31 233.06
  Q 274.76 227.53 274.25 210.00
  C 273.82 195.01 264.35 191.32 251.70 186.49
  Q 245.74 184.21 243.93 182.46
  C 238.76 177.44 242.09 167.40 249.25 166.25
  Q 258.72 164.73 261.49 173.58
  C 262.42 176.56 260.56 176.75 264.68 176.75
  Q 268.25 176.75 272.10 176.75
  A 0.93 0.93 86.7 0 0 273.02 175.71
  Q 271.01 158.16 253.73 156.19
  Z
  M 371.22 194.93
  A 39.13 39.13 0.0 0 0 332.09 155.80
  A 39.13 39.13 0.0 0 0 292.96 194.93
  A 39.13 39.13 0.0 0 0 332.09 234.06
  A 39.13 39.13 0.0 0 0 371.22 194.93
  Z
  M 179.11 212.38
  L 158.63 158.05
  A 1.25 1.21 79.0 0 0 157.49 157.25
  L 147.21 157.31
  A 0.51 0.50 80.1 0 0 146.74 157.99
  L 173.17 231.72
  A 1.24 1.19 -9.1 0 0 174.31 232.51
  L 185.27 232.57
  A 0.96 0.92 9.0 0 0 186.19 231.93
  L 210.42 158.50
  A 0.96 0.95 9.0 0 0 209.51 157.25
  L 199.31 157.25
  A 1.13 1.13 -80.6 0 0 198.24 158.02
  L 180.22 212.36
  Q 179.69 213.93 179.11 212.38
  Z
  M 222.50 157.86
  A 0.59 0.59 0.0 0 0 221.91 157.27
  L 212.09 157.27
  A 0.59 0.59 0.0 0 0 211.50 157.86
  L 211.50 231.94
  A 0.59 0.59 0.0 0 0 212.09 232.53
  L 221.91 232.53
  A 0.59 0.59 0.0 0 0 222.50 231.94
  L 222.50 157.86
  Z
  M 290.25 157.53
  A 0.27 0.27 0.0 0 0 289.98 157.26
  L 279.52 157.26
  A 0.27 0.27 0.0 0 0 279.25 157.53
  L 279.25 232.25
  A 0.27 0.27 0.0 0 0 279.52 232.52
  L 289.98 232.52
  A 0.27 0.27 0.0 0 0 290.25 232.25
  L 290.25 157.53
  Z
  M 385.35 175.06
  L 421.92 231.89
  A 0.96 0.85 72.3 0 0 422.68 232.34
  L 433.19 232.46
  A 0.53 0.50 -90.0 0 0 433.69 231.93
  L 433.75 157.90
  A 0.65 0.65 89.9 0 0 433.10 157.25
  L 423.20 157.30
  A 0.71 0.71 -0.4 0 0 422.50 158.01
  L 422.57 208.58
  Q 422.57 209.91 421.81 208.82
  L 386.49 158.13
  A 2.06 2.04 -17.2 0 0 384.80 157.25
  L 374.99 157.25
  A 1.25 1.24 89.3 0 0 373.75 158.53
  C 374.37 182.84 373.75 207.27 373.75 231.74
  A 0.93 0.93 -1.2 0 0 374.72 232.67
  L 384.32 232.33
  A 0.52 0.51 88.9 0 0 384.81 231.81
  L 384.75 175.23
  Q 384.75 174.13 385.35 175.06
  Z"
/>
<ellipse fill="#000000" cx="0.00" cy="0.00" transform="translate(332.10,194.95) rotate(90.2)" rx="29.02" ry="28.04"/>
</svg>
