<?xml version="1.0" encoding="UTF-8" standalone="no"?>
<!DOCTYPE svg PUBLIC "-//W3C//DTD SVG 1.1//EN" "http://www.w3.org/Graphics/SVG/1.1/DTD/svg11.dtd">
<svg xmlns="http://www.w3.org/2000/svg" version="1.1" viewBox="0 0 600 300">
<g stroke-width="2.00" fill="none" stroke-linecap="butt">
<path stroke="#000000" vector-effect="non-scaling-stroke" d="
  M 189.25 256.29
  Q 188.57 256.52 189.00 256.96"
/>
<path stroke="#000000" vector-effect="non-scaling-stroke" d="
  M 277.25 279.04
  Q 277.37 279.71 276.75 279.96"
/>
</g>
<path fill="#000000" d="
  M 231.68 85.18
  Q 254.44 61.49 272.94 37.94
  C 283.99 23.87 295.94 6.73 316.37 10.10
  C 333.09 12.86 344.98 26.10 345.00 43.75
  C 345.02 57.85 336.47 70.07 329.02 84.48
  Q 321.01 99.95 317.19 116.94
  C 313.51 133.27 319.71 151.81 337.26 156.38
  Q 337.77 156.51 337.26 156.62
  Q 335.44 157.00 332.25 157.00
  Q 239.00 157.00 145.13 157.00
  Q 143.01 157.00 144.77 155.81
  C 175.67 134.93 205.66 112.24 231.68 85.18
  Z"
/>
<path fill="#000000" d="
  M 445.56 92.44
  C 458.95 105.03 454.59 126.64 450.19 141.94
  Q 448.46 147.96 447.66 153.16
  C 447.10 156.81 448.46 157.00 444.00 157.00
  Q 400.75 157.00 357.50 157.11
  Q 355.69 157.11 354.16 156.56
  Q 353.79 156.42 354.17 156.33
  C 376.86 150.77 390.87 124.29 401.69 105.44
  C 410.56 89.98 429.47 77.31 445.56 92.44
  Z"
/>
<path fill="#000000" d="
  M 278.66 180.65
  C 286.84 164.07 303.08 157.15 320.73 166.10
  C 327.15 169.36 325.65 160.82 328.03 162.26
  A 1.00 0.84 -77.0 0 1 328.44 163.07
  Q 328.61 180.08 328.50 184.75
  Q 328.45 186.81 326.95 185.75
  A 1.39 1.07 -82.6 0 1 326.48 184.94
  C 324.37 173.27 312.88 161.58 300.41 169.49
  C 287.95 177.39 288.43 199.37 291.06 211.94
  C 292.94 220.92 297.94 229.28 308.22 229.07
  C 315.80 228.91 322.53 223.89 326.47 217.46
  Q 327.52 215.75 327.50 217.74
  L 327.46 221.68
  A 1.65 1.42 -30.1 0 1 327.14 222.60
  C 322.32 229.14 315.80 233.24 307.55 233.91
  C 278.38 236.29 267.75 202.76 278.66 180.65
  Z"
/>
<path fill="#000000" d="
  M 88.67 222.25
  C 88.66 226.92 91.01 230.84 95.93 231.05
  A 1.66 0.96 -11.7 0 1 96.84 231.35
  C 97.92 232.28 96.57 233.00 95.67 233.00
  Q 87.40 233.00 79.14 233.00
  C 78.24 233.00 76.84 232.41 77.92 231.38
  A 1.64 1.02 9.8 0 1 78.81 231.02
  C 84.46 230.44 85.50 226.62 85.50 221.39
  Q 85.50 198.44 85.50 175.49
  C 85.50 169.66 86.17 164.92 79.00 164.99
  A 1.82 1.23 -18.9 0 1 78.07 164.74
  C 76.50 163.65 78.43 163.00 79.37 163.00
  Q 89.33 163.00 99.87 163.00
  A 1.00 0.98 -9.4 0 1 100.81 163.66
  L 116.56 208.89
  Q 116.88 209.81 117.19 208.89
  L 132.57 163.80
  A 1.16 1.16 -80.3 0 1 133.68 163.01
  L 154.43 163.06
  A 1.28 0.92 -15.0 0 1 155.30 163.39
  Q 155.96 164.11 155.17 164.73
  A 1.48 0.96 19.5 0 1 154.26 164.95
  C 149.27 164.58 147.79 167.56 147.70 172.14
  Q 147.19 198.15 147.70 224.15
  C 147.78 228.66 149.48 231.39 154.25 231.05
  A 1.43 0.92 -18.5 0 1 155.16 231.28
  Q 156.05 232.00 155.16 232.72
  A 1.60 1.12 18.0 0 1 154.25 233.00
  L 127.06 232.94
  A 1.19 0.91 -14.7 0 1 126.20 232.58
  Q 125.66 231.90 126.35 231.29
  A 1.35 0.92 17.9 0 1 127.24 231.03
  Q 133.88 231.37 133.91 224.50
  Q 134.00 197.88 134.00 171.25
  Q 134.00 170.52 133.65 170.56
  A 0.81 0.46 -82.1 0 0 133.16 171.20
  Q 132.93 172.21 132.59 173.20
  Q 122.46 202.96 112.49 231.81
  Q 111.60 234.38 110.69 231.82
  Q 99.99 201.92 89.56 171.94
  Q 89.45 171.60 89.27 171.45
  Q 88.81 171.05 88.81 171.81
  Q 88.72 197.03 88.67 222.25
  Z"
/>
<path fill="#000000" d="
  M 196.41 231.54
  Q 196.82 232.09 196.32 232.62
  A 1.32 0.90 14.4 0 1 195.44 232.94
  L 167.82 232.94
  A 1.44 1.16 -19.6 0 1 166.93 232.63
  C 165.47 231.32 167.46 231.00 168.35 231.06
  C 174.96 231.45 174.72 225.75 174.75 221.00
  Q 174.93 196.27 174.54 171.54
  C 174.47 166.78 172.71 164.95 168.00 165.00
  Q 165.69 165.02 166.76 163.46
  A 1.00 0.90 15.2 0 1 167.56 163.06
  L 195.43 163.06
  A 1.28 0.92 -15.0 0 1 196.30 163.39
  Q 196.96 164.11 196.17 164.73
  A 1.42 0.92 20.1 0 1 195.24 164.94
  C 190.58 164.50 188.78 167.09 188.71 171.54
  Q 188.33 196.31 188.49 221.09
  C 188.53 226.81 188.17 231.05 195.56 231.19
  A 1.18 0.76 -10.5 0 1 196.41 231.54
  Z"
/>
<path fill="#000000" d="
  M 227.69 169.91
  Q 227.69 167.73 225.51 167.85
  Q 215.16 168.41 212.45 175.48
  Q 211.20 178.74 210.75 182.19
  A 1.08 0.76 86.5 0 1 210.28 182.96
  Q 209.75 183.22 209.36 182.84
  A 1.34 0.66 -80.7 0 1 209.09 181.94
  L 209.07 163.70
  A 0.70 0.66 90.0 0 1 209.73 163.00
  L 259.40 163.00
  A 0.85 0.85 -0.0 0 1 260.25 163.85
  Q 260.25 173.22 260.25 181.97
  C 260.25 182.75 259.98 183.25 259.15 183.02
  A 0.96 0.74 89.4 0 1 258.59 182.31
  C 256.66 172.08 253.43 167.25 242.19 168.04
  A 0.74 0.73 -2.1 0 0 241.50 168.77
  Q 241.50 196.87 241.41 224.00
  Q 241.39 231.25 248.44 231.08
  A 1.28 0.84 -14.4 0 1 249.31 231.38
  Q 249.87 232.00 249.32 232.61
  A 1.30 0.91 14.6 0 1 248.44 232.94
  Q 234.79 233.04 221.14 233.00
  C 220.24 233.00 218.84 232.41 219.92 231.38
  A 1.31 0.98 19.2 0 1 220.81 231.10
  Q 227.74 231.56 227.75 224.75
  Q 227.80 196.41 227.69 169.91
  Z"
/>
<path fill="#000000" d="
  M 383.93 199.06
  L 365.35 199.00
  A 0.85 0.85 0.2 0 0 364.50 199.85
  Q 364.50 211.88 364.52 224.25
  Q 364.54 231.18 371.25 231.02
  A 1.87 1.26 -20.2 0 1 372.19 231.25
  C 373.99 232.42 371.75 233.00 370.87 233.01
  Q 357.18 233.17 343.50 232.77
  A 0.96 0.83 -11.2 0 1 342.73 232.33
  Q 341.97 230.98 344.00 231.00
  C 348.61 231.05 350.47 229.52 350.54 224.74
  Q 350.93 198.37 350.75 172.00
  Q 350.70 164.98 344.41 164.98
  C 343.56 164.98 341.71 164.57 342.93 163.38
  A 1.37 1.06 17.8 0 1 343.81 163.06
  Q 357.32 162.96 370.84 163.00
  C 373.37 163.01 373.50 165.06 370.88 164.96
  C 366.37 164.77 364.80 167.49 364.67 171.74
  Q 364.34 182.20 364.51 193.34
  A 0.68 0.67 -0.4 0 0 365.19 194.00
  L 384.01 194.00
  A 0.56 0.56 89.5 0 0 384.57 193.43
  Q 384.47 184.24 384.49 175.56
  C 384.50 169.68 385.08 164.82 377.82 164.92
  A 1.67 1.14 -19.1 0 1 376.90 164.67
  C 375.10 163.35 377.55 163.00 378.37 163.00
  Q 391.91 162.96 405.44 163.06
  A 1.00 0.90 -15.2 0 1 406.24 163.46
  Q 407.31 165.05 405.00 165.00
  C 400.16 164.90 398.54 167.11 398.45 171.84
  Q 397.94 198.15 398.45 224.46
  C 398.54 229.13 400.36 231.09 405.00 231.00
  Q 407.30 230.96 406.24 232.54
  A 0.98 0.90 15.6 0 1 405.45 232.94
  L 377.50 232.99
  A 1.21 1.20 88.8 0 1 376.30 231.83
  C 376.28 231.42 376.96 231.07 377.42 231.08
  C 385.52 231.24 384.50 225.75 384.51 219.11
  Q 384.54 209.34 384.44 199.57
  A 0.51 0.51 0.0 0 0 383.93 199.06
  Z"
/>
<path fill="#000000" d="
  M 438.56 199.56
  Q 438.45 211.78 438.53 224.00
  Q 438.56 228.53 443.01 228.92
  Q 462.32 230.61 466.45 212.31
  A 1.66 1.27 82.3 0 1 466.92 211.48
  Q 468.73 209.92 468.36 212.76
  Q 467.07 222.49 465.97 232.48
  A 0.58 0.57 -87.2 0 1 465.40 233.00
  L 417.81 232.94
  A 1.41 1.11 -18.9 0 1 416.93 232.63
  C 415.47 231.32 417.46 231.00 418.36 231.06
  C 423.05 231.37 424.47 228.58 424.54 224.25
  Q 425.00 193.25 424.75 171.50
  Q 424.67 164.63 417.82 164.91
  A 1.64 1.02 -17.5 0 1 416.88 164.67
  Q 416.04 164.02 416.84 163.30
  A 1.51 1.07 17.1 0 1 417.75 163.00
  L 463.84 163.00
  A 0.66 0.66 0.2 0 1 464.50 163.66
  Q 464.50 173.25 464.56 182.50
  Q 464.57 184.29 463.27 183.88
  A 0.91 0.77 -88.9 0 1 462.72 183.20
  C 459.89 168.46 452.90 167.43 439.21 168.05
  A 0.75 0.74 88.8 0 0 438.50 168.80
  L 438.44 194.31
  A 0.55 0.53 -87.8 0 0 438.93 194.86
  C 447.84 195.62 450.01 186.67 450.53 179.81
  A 1.02 0.71 84.1 0 1 450.97 179.01
  Q 451.37 178.82 451.72 179.08
  A 1.16 0.76 -79.0 0 1 452.07 179.94
  L 452.19 213.94
  A 1.24 0.87 75.6 0 1 451.86 214.82
  Q 451.38 215.24 450.85 214.85
  A 1.23 0.83 -79.8 0 1 450.48 214.01
  C 450.14 207.15 447.21 198.51 439.05 199.02
  A 0.54 0.53 87.7 0 0 438.56 199.56
  Z"
/>
<path fill="#000000" d="
  M 481.44 163.67
  A 0.84 0.84 -84.1 0 1 482.26 163.00
  L 511.00 163.00
  A 1.15 0.84 -13.2 0 1 511.85 163.36
  Q 512.33 164.00 511.85 164.64
  A 1.04 0.77 16.4 0 1 511.00 164.95
  C 502.51 164.31 503.50 170.01 503.50 176.67
  Q 503.50 199.71 503.50 222.75
  Q 503.50 227.85 508.25 227.92
  C 512.21 227.99 517.05 228.49 520.49 227.22
  C 527.86 224.51 530.65 215.28 532.20 208.31
  A 1.82 1.46 79.8 0 1 532.67 207.45
  Q 534.36 205.86 534.12 208.74
  Q 533.12 220.61 532.26 232.40
  A 0.65 0.65 -87.6 0 1 531.61 233.00
  Q 507.09 233.00 482.92 233.00
  C 480.70 233.00 480.73 231.00 483.11 231.02
  Q 489.50 231.09 489.50 224.00
  Q 489.50 197.75 489.64 171.50
  Q 489.68 164.69 482.75 165.01
  Q 481.16 165.09 481.44 163.67
  Z"
/>
<path fill="#000000" d="
  M 600.00 207.31
  L 600.00 212.31
  L 598.27 232.18
  A 0.90 0.88 -87.5 0 1 597.39 233.00
  Q 572.84 233.00 548.91 233.00
  C 546.89 233.00 546.63 230.96 549.11 231.03
  Q 555.57 231.22 555.55 224.50
  Q 555.50 198.30 555.50 172.10
  C 555.50 167.61 554.00 164.73 549.17 164.95
  C 546.88 165.05 546.53 163.01 549.10 163.00
  Q 563.15 162.96 577.19 163.06
  A 0.82 0.75 -11.0 0 1 577.92 163.51
  Q 578.70 165.22 576.50 165.00
  C 571.42 164.48 569.50 167.10 569.50 171.98
  Q 569.50 195.59 569.50 219.19
  C 569.50 224.26 568.99 228.33 575.25 228.13
  C 578.86 228.02 583.36 228.40 586.47 227.22
  C 594.24 224.27 596.43 215.27 598.44 207.69
  Q 598.79 206.36 600.00 207.31
  Z"
/>
<path fill="#000000" d="
  M 67.61 191.19
  A 0.36 0.36 2.6 0 1 67.94 191.55
  L 68.00 258.23
  A 0.71 0.71 0.0 0 0 68.71 258.94
  L 148.41 259.00
  Q 149.71 259.00 148.71 259.84
  Q 144.13 263.64 138.40 266.87
  C 115.83 279.58 90.72 292.62 63.93 289.92
  C 49.78 288.50 32.90 283.79 22.05 274.14
  C 2.52 256.78 -10.16 211.93 13.17 192.17
  Q 25.34 181.86 41.24 185.30
  C 50.27 187.26 58.21 190.52 67.61 191.19
  Z"
/>
<path fill="#000000" d="
  M 189.25 256.29
  Q 188.57 256.52 189.00 256.96
  C 181.56 256.41 176.39 260.84 176.49 268.17
  C 176.66 280.91 189.66 281.31 197.37 275.31
  A 0.39 0.36 -29.6 0 1 197.96 275.45
  Q 198.37 276.60 197.19 277.19
  Q 185.95 282.78 174.69 277.81
  C 167.32 274.56 165.49 265.56 172.19 260.44
  Q 179.61 254.76 189.25 256.29
  Z"
/>
<path fill="#000000" d="
  M 189.00 256.96
  Q 188.57 256.52 189.25 256.29
  L 195.33 257.96
  A 0.93 0.90 30.9 0 0 196.20 257.76
  Q 198.64 255.57 198.67 256.75
  Q 198.75 259.25 198.75 263.08
  Q 198.75 264.84 197.82 263.34
  Q 194.38 257.77 189.00 256.96
  Z"
/>
<path fill="#000000" d="
  M 238.4498 267.8593
  A 17.32 12.19 -0.3 0 1 221.1938 280.1398
  A 17.32 12.19 -0.3 0 1 203.8102 268.0407
  A 17.32 12.19 -0.3 0 1 221.0662 255.7602
  A 17.32 12.19 -0.3 0 1 238.4498 267.8593
  Z
  M 229.5914 264.9689
  A 7.76 7.76 0.0 0 0 221.8857 257.1549
  L 220.5658 257.1457
  A 7.76 7.76 0.0 0 0 212.7518 264.8513
  L 212.7086 271.0311
  A 7.76 7.76 0.0 0 0 220.4143 278.8451
  L 221.7342 278.8543
  A 7.76 7.76 0.0 0 0 229.5482 271.1487
  L 229.5914 264.9689
  Z"
/>
<path fill="#000000" d="
  M 277.25 279.04
  Q 277.37 279.71 276.75 279.96
  L 266.30 279.95
  A 1.28 1.16 65.0 0 1 265.45 279.59
  C 261.67 275.90 255.88 268.58 253.54 269.16
  A 0.67 0.58 83.1 0 0 253.09 269.82
  L 253.31 277.61
  A 0.75 0.72 -84.5 0 0 253.86 278.31
  Q 256.49 278.94 257.15 279.37
  Q 258.09 279.99 255.64 280.01
  Q 248.59 280.04 241.55 279.95
  A 0.71 0.57 -3.2 0 1 240.88 279.47
  C 240.74 278.56 245.72 280.02 245.64 275.75
  Q 245.52 269.35 245.50 262.94
  C 245.49 259.39 245.97 256.46 241.48 256.77
  Q 240.43 256.84 241.03 256.29
  A 1.01 0.83 19.5 0 1 241.67 256.06
  C 246.88 256.00 272.11 253.49 270.81 262.87
  C 270.37 266.07 266.92 267.72 264.02 268.17
  Q 263.09 268.32 263.74 268.99
  C 267.27 272.64 271.72 279.29 277.25 279.04
  Z
  M 253.55 267.80
  C 265.99 270.52 265.74 254.60 253.89 257.09
  A 0.87 0.84 84.6 0 0 253.23 257.92
  L 253.09 267.20
  A 0.62 0.58 -84.2 0 0 253.55 267.80
  Z"
/>
<path fill="#000000" d="
  M 276.75 279.96
  Q 277.37 279.71 277.25 279.04
  Q 281.04 279.19 280.84 275.76
  C 280.50 270.01 280.76 264.09 280.69 258.31
  Q 280.66 256.55 277.50 257.00
  Q 276.24 257.18 276.37 256.52
  A 0.73 0.56 4.2 0 1 277.06 256.06
  C 283.44 255.97 296.47 254.59 301.44 258.56
  C 305.57 261.87 303.04 265.97 299.08 267.59
  Q 294.48 269.47 288.97 268.95
  A 0.83 0.80 -88.2 0 0 288.09 269.80
  L 288.31 277.61
  A 1.19 1.18 -87.8 0 0 289.36 278.76
  Q 292.31 279.06 292.49 279.59
  A 0.68 0.32 -3.5 0 1 291.75 280.00
  L 276.75 279.96
  Z
  M 293.54 258.06
  Q 291.07 256.77 288.88 257.03
  A 0.72 0.71 87.3 0 0 288.25 257.73
  L 288.19 267.31
  A 0.55 0.53 -87.8 0 0 288.68 267.86
  Q 296.75 268.59 295.28 260.43
  Q 294.99 258.82 293.54 258.06
  Z"
/>
<path fill="#000000" d="
  M 341.4398 267.8494
  A 17.31 12.19 -0.3 0 1 324.1938 280.1298
  A 17.31 12.19 -0.3 0 1 306.8202 268.0306
  A 17.31 12.19 -0.3 0 1 324.0662 255.7502
  A 17.31 12.19 -0.3 0 1 341.4398 267.8494
  Z
  M 323.04 278.89
  C 331.89 280.25 333.08 271.49 332.50 265.00
  C 331.57 254.63 318.39 253.94 316.00 264.25
  C 314.60 270.28 315.89 277.79 323.04 278.89
  Z"
/>
<path fill="#000000" d="
  M 367.74 268.99
  C 370.98 272.16 378.74 283.86 383.62 276.39
  Q 389.93 266.74 395.71 256.98
  Q 396.85 255.05 397.99 256.98
  C 400.73 261.64 408.72 277.61 413.31 279.11
  C 413.77 279.26 414.50 279.87 413.25 279.89
  C 411.79 279.91 397.89 280.44 398.10 279.51
  A 0.90 0.47 -4.1 0 1 398.81 279.07
  L 401.22 278.69
  A 0.90 0.84 70.7 0 0 401.79 277.39
  L 400.03 274.08
  A 2.11 2.05 -13.7 0 0 398.19 273.00
  L 388.76 273.00
  A 1.32 1.17 20.5 0 0 387.88 273.34
  Q 386.25 274.95 386.03 277.25
  A 0.98 0.94 -68.2 0 0 386.37 278.09
  Q 387.50 279.01 389.01 279.02
  A 1.24 0.84 -13.6 0 1 389.86 279.34
  Q 390.49 280.07 389.00 280.06
  Q 379.62 280.00 370.07 280.00
  A 1.26 1.11 65.7 0 1 369.21 279.61
  L 359.25 269.25
  Q 357.25 267.17 357.25 270.75
  C 357.25 272.56 357.26 274.31 357.13 276.12
  C 356.82 280.35 361.86 278.29 361.63 279.48
  A 0.71 0.56 4.3 0 1 360.95 279.94
  L 345.76 280.00
  A 1.14 0.82 -13.5 0 1 344.90 279.65
  Q 344.39 278.98 345.99 279.09
  C 349.61 279.34 349.17 277.37 349.29 274.99
  C 349.54 270.03 349.32 265.10 349.60 260.16
  Q 349.78 257.16 346.50 257.21
  Q 344.25 257.25 345.13 256.33
  A 1.31 0.96 15.6 0 1 346.01 256.00
  C 351.20 256.00 375.86 253.56 374.81 262.73
  C 374.44 266.01 371.07 267.74 368.06 268.06
  Q 366.92 268.19 367.74 268.99
  Z
  M 357.55 267.80
  C 369.99 270.52 369.74 254.60 357.89 257.09
  A 0.87 0.84 84.6 0 0 357.23 257.92
  L 357.09 267.20
  A 0.62 0.58 -84.2 0 0 357.55 267.80
  Z
  M 388.81 271.53
  A 0.30 0.30 15.9 0 0 389.07 271.99
  L 398.31 272.02
  A 0.30 0.30 -15.4 0 0 398.57 271.56
  L 393.97 263.93
  A 0.30 0.30 -44.7 0 0 393.46 263.93
  L 388.81 271.53
  Z"
/>
<path fill="#000000" d="
  M 422.62 257.05
  Q 415.92 255.77 413.56 261.81
  Q 412.83 263.69 412.81 261.69
  L 412.78 256.97
  A 1.00 0.96 -0.3 0 1 413.78 256.00
  L 441.01 256.00
  A 0.99 0.99 0.0 0 1 442.00 256.99
  L 442.00 260.75
  Q 442.00 264.02 440.56 260.94
  Q 438.38 256.25 431.95 257.15
  A 0.82 0.81 -4.1 0 0 431.25 257.95
  Q 431.25 266.87 431.25 275.50
  Q 431.25 279.25 434.66 279.03
  C 436.35 278.92 435.92 280.00 434.40 280.00
  Q 427.11 280.00 419.83 280.00
  C 418.38 280.00 418.42 278.90 419.81 279.04
  Q 423.50 279.41 423.50 275.25
  Q 423.50 266.75 423.50 258.11
  A 1.09 1.08 5.5 0 0 422.62 257.05
  Z"
/>
<path fill="#000000" d="
  M 447.69 257.06
  Q 446.28 257.40 445.40 256.67
  Q 444.99 256.32 445.57 256.27
  Q 453.41 255.65 461.27 256.17
  C 462.62 256.26 461.88 257.05 460.98 256.97
  Q 457.22 256.67 457.42 260.24
  C 457.74 265.96 457.50 271.83 457.50 277.47
  A 0.74 0.72 7.9 0 0 458.04 278.17
  Q 460.61 278.89 461.32 279.35
  Q 462.33 280.00 459.84 280.00
  Q 452.79 279.99 445.75 279.83
  Q 444.67 279.81 445.17 279.28
  A 1.09 0.73 16.4 0 1 445.94 279.04
  Q 449.75 279.34 449.56 275.68
  C 449.29 270.09 449.50 264.36 449.50 258.75
  Q 449.50 256.62 447.69 257.06
  Z"
/>
<path fill="#000000" d="
  M 499.4398 267.8494
  A 17.31 12.19 -0.3 0 1 482.1938 280.1298
  A 17.31 12.19 -0.3 0 1 464.8202 268.0306
  A 17.31 12.19 -0.3 0 1 482.0662 255.7502
  A 17.31 12.19 -0.3 0 1 499.4398 267.8494
  Z
  M 480.38 278.77
  C 489.69 280.69 491.11 271.81 490.50 265.00
  C 489.57 254.63 476.24 254.10 473.96 263.99
  C 472.73 269.35 473.51 277.35 480.38 278.77
  Z"
/>
<path fill="#000000" d="
  M 528.33 270.20
  Q 529.20 271.09 529.20 269.86
  L 529.19 258.81
  Q 529.18 257.20 525.50 257.00
  Q 524.15 256.93 524.67 256.38
  A 1.42 0.91 12.3 0 1 525.56 256.05
  Q 529.56 255.97 533.56 255.99
  Q 535.65 256.01 534.84 256.61
  Q 534.32 256.99 532.06 257.41
  A 1.22 1.21 -4.9 0 0 531.06 258.59
  L 531.00 279.13
  Q 531.00 280.76 529.78 279.68
  L 509.14 261.15
  Q 508.02 260.14 508.09 261.64
  C 508.29 266.01 508.49 270.78 508.14 275.34
  Q 507.85 279.04 511.91 279.01
  C 513.66 278.99 513.73 280.00 511.93 280.00
  Q 507.51 280.00 503.08 280.00
  C 500.65 280.00 502.25 279.05 503.37 278.99
  Q 506.50 278.83 506.50 276.00
  C 506.50 271.06 506.31 266.01 506.61 261.08
  Q 506.85 257.22 502.75 257.00
  Q 501.50 256.93 501.90 256.36
  A 1.11 0.78 11.7 0 1 502.74 256.00
  L 512.24 256.00
  A 1.45 1.36 -24.0 0 1 513.13 256.31
  Q 521.11 262.82 528.33 270.20
  Z"
/>
</svg>
