<?xml version="1.0" encoding="UTF-8" standalone="no"?>
<!DOCTYPE svg PUBLIC "-//W3C//DTD SVG 1.1//EN" "http://www.w3.org/Graphics/SVG/1.1/DTD/svg11.dtd">
<svg xmlns="http://www.w3.org/2000/svg" version="1.1" viewBox="0 0 600 125">
<g stroke-width="2.00" fill="none" stroke-linecap="butt">
<path stroke="#808080" vector-effect="non-scaling-stroke" d="
  M 118.06 27.25
  Q 123.16 26.61 128.34 27.26
  Q 129.77 27.44 128.79 26.38
  L 112.53 8.79
  A 0.55 0.54 -37.2 0 0 111.82 8.70
  L 84.59 26.40
  Q 83.68 27.00 84.75 26.98
  L 94.83 26.83
  Q 95.53 26.82 95.20 27.42
  Q 91.55 33.90 88.28 40.55
  Q 69.57 78.53 50.97 116.55
  A 0.33 0.31 -76.3 0 0 51.24 117.02
  L 72.45 117.22
  A 1.58 1.50 -75.8 0 0 73.83 116.35
  L 117.34 27.77
  A 0.93 0.91 -80.4 0 1 118.06 27.25"
/>
<path stroke="#808080" vector-effect="non-scaling-stroke" d="
  M 48.31 116.31
  Q 53.73 105.84 59.47 94.51
  A 1.42 1.40 45.5 0 0 59.47 93.26
  L 37.17 48.09
  A 1.06 1.06 -13.0 0 0 36.22 47.50
  L 11.40 47.50
  A 0.38 0.38 76.9 0 0 11.06 48.05
  L 44.71 116.36
  A 1.72 1.31 84.9 0 0 45.36 117.07
  Q 47.36 118.15 48.31 116.31"
/>
<path stroke="#004e80" vector-effect="non-scaling-stroke" d="
  M 98.00 24.46
  Q 98.42 24.85 98.06 25.56
  Q 88.50 44.74 54.47 114.06
  A 0.33 0.32 -75.8 0 0 54.74 114.53
  L 71.30 114.72
  A 1.41 1.37 13.0 0 0 72.57 113.95
  L 77.00 104.79"
/>
<path stroke="#015980" vector-effect="non-scaling-stroke" d="
  M 77.00 104.79
  L 116.34 25.26
  A 0.98 0.74 -74.0 0 1 117.05 24.73
  L 122.75 24.52
  Q 124.16 24.47 123.23 23.48
  L 112.32 11.88
  A 0.82 0.81 52.1 0 0 111.28 11.74
  L 92.18 23.94
  Q 91.27 24.52 92.33 24.51
  L 98.00 24.46"
/>
<path stroke="#01a7ff" vector-effect="non-scaling-stroke" d="
  M 77.00 104.79
  C 75.56 104.10 81.19 93.34 81.87 91.77
  C 83.01 89.18 84.93 86.85 86.16 84.11
  Q 88.62 78.61 88.66 78.53
  C 97.33 61.65 104.29 46.30 114.38 26.22
  Q 115.92 23.17 118.41 22.86
  Q 120.04 22.65 119.01 21.40
  L 112.34 13.38
  A 1.03 0.96 66.7 0 0 111.50 13.01
  C 109.62 13.15 108.40 14.95 107.28 15.64
  Q 102.61 18.51 98.21 21.77
  A 1.00 0.72 76.1 0 0 97.90 22.55
  L 98.00 24.46"
/>
<path stroke="#808080" vector-effect="non-scaling-stroke" d="
  M 258.8871 99.0698
  A 24.94 22.03 89.8 0 0 280.8299 74.0531
  A 24.94 22.03 89.8 0 0 258.7129 49.1902
  A 24.94 22.03 89.8 0 0 236.7701 74.2069
  A 24.94 22.03 89.8 0 0 258.8871 99.0698"
/>
<path stroke="#808080" vector-effect="non-scaling-stroke" d="
  M 220.05 66.69
  L 220.00 60.02
  A 0.55 0.53 -0.0 0 1 220.55 59.49
  L 234.31 59.34
  A 0.55 0.52 -0.6 0 0 234.85 58.82
  L 234.96 50.98
  A 0.74 0.71 0.4 0 0 234.22 50.26
  L 212.19 50.42
  A 0.52 0.51 89.4 0 0 211.69 50.94
  L 211.81 97.43
  A 0.51 0.51 0.0 0 0 212.32 97.94
  L 234.32 98.00
  A 0.67 0.66 -0.4 0 0 234.99 97.33
  L 234.95 89.31
  A 0.51 0.51 0.6 0 0 234.45 88.80
  L 220.67 88.75
  A 0.67 0.66 0.0 0 1 220.00 88.09
  L 220.00 77.08
  A 0.58 0.58 0.6 0 1 220.58 76.50
  L 234.01 76.50
  A 0.99 0.99 -0.5 0 0 235.00 75.51
  L 235.00 68.01
  A 0.77 0.77 0.0 0 0 234.23 67.24
  L 220.57 67.20
  A 0.53 0.51 0.6 0 1 220.05 66.69"
/>
<path stroke="#808080" vector-effect="non-scaling-stroke" d="
  M 139.10 81.81
  Q 138.66 83.18 138.22 81.81
  L 128.42 50.74
  A 0.72 0.71 -9.0 0 0 127.74 50.25
  L 120.28 50.25
  A 0.57 0.56 80.9 0 0 119.75 50.99
  L 134.23 96.98
  A 1.38 1.25 79.9 0 0 135.48 97.95
  L 142.06 97.86
  A 0.76 0.67 -79.9 0 0 142.72 97.33
  L 157.73 50.83
  A 0.43 0.42 -81.4 0 0 157.33 50.27
  L 149.69 50.40
  A 0.73 0.66 -80.5 0 0 149.04 50.91
  L 139.10 81.81"
/>
<path stroke="#808080" vector-effect="non-scaling-stroke" d="
  M 168.4593 50.7927
  A 0.55 0.55 0.0 0 0 167.9083 50.2436
  L 160.5483 50.2565
  A 0.55 0.55 0.0 0 0 159.9993 50.8074
  L 160.0807 97.4473
  A 0.55 0.55 0.0 0 0 160.6317 97.9964
  L 167.9917 97.9835
  A 0.55 0.55 0.0 0 0 168.5407 97.4326
  L 168.4593 50.7927"
/>
<path stroke="#808080" vector-effect="non-scaling-stroke" d="
  M 198.56 53.69
  C 192.16 49.35 181.90 49.86 174.31 50.52
  A 0.55 0.53 87.8 0 0 173.82 51.07
  L 173.94 97.31
  A 0.52 0.51 -88.9 0 0 174.43 97.83
  C 188.28 98.42 201.35 99.46 206.01 84.75
  C 209.09 75.01 207.91 60.02 198.56 53.69"
/>
<path stroke="#808080" vector-effect="non-scaling-stroke" d="
  M 316.89 53.02
  C 305.35 41.86 289.64 56.81 299.43 69.35
  C 302.83 73.69 315.17 83.24 312.29 87.53
  C 308.90 92.58 303.29 87.78 301.81 84.13
  A 0.74 0.74 61.4 0 0 300.69 83.80
  L 294.71 88.03
  A 0.66 0.64 61.7 0 0 294.49 88.79
  Q 296.87 95.06 302.38 97.61
  C 308.70 100.52 316.67 98.57 319.69 91.94
  C 325.55 79.05 312.19 70.97 304.93 62.82
  Q 303.55 61.27 305.05 59.83
  C 308.18 56.82 312.02 59.69 313.57 62.70
  A 0.73 0.73 -36.2 0 0 314.74 62.88
  L 320.02 57.60
  A 0.71 0.71 -40.8 0 0 320.09 56.66
  Q 318.48 54.56 316.89 53.02"
/>
<path stroke="#808080" vector-effect="non-scaling-stroke" d="
  M 372.45 87.43
  C 367.99 92.31 364.11 88.07 361.84 84.05
  A 0.65 0.62 58.0 0 0 360.93 83.82
  L 354.95 88.02
  A 0.67 0.62 62.4 0 0 354.74 88.79
  Q 358.08 97.61 366.39 98.72
  C 381.34 100.71 385.67 83.12 376.31 74.19
  Q 369.41 67.60 365.97 64.03
  Q 363.16 61.10 366.35 59.00
  Q 367.96 57.93 369.67 58.80
  Q 372.32 60.15 373.71 62.51
  A 0.94 0.93 -37.8 0 0 375.18 62.69
  L 379.68 58.19
  A 1.60 1.60 51.3 0 0 379.90 56.19
  C 371.26 42.56 351.20 51.39 357.63 66.00
  C 361.05 73.76 370.15 77.38 372.97 84.66
  A 2.70 2.68 55.8 0 1 372.45 87.43"
/>
<path stroke="#808080" vector-effect="non-scaling-stroke" d="
  M 338.38 66.04
  L 331.48 51.12
  A 1.51 1.49 -12.2 0 0 330.11 50.25
  L 322.60 50.25
  A 0.44 0.43 77.7 0 0 322.21 50.87
  L 334.08 76.46
  Q 334.50 77.38 334.50 78.40
  L 334.50 97.13
  A 0.83 0.78 89.7 0 0 335.29 97.96
  L 342.32 97.86
  A 0.56 0.52 -89.4 0 0 342.83 97.32
  C 343.01 91.46 341.77 80.30 343.98 75.25
  Q 349.28 63.16 355.14 51.16
  A 0.60 0.59 -76.7 0 0 354.62 50.30
  L 346.82 50.30
  A 0.79 0.79 -77.8 0 0 346.10 50.77
  L 339.25 66.03
  Q 338.82 66.99 338.38 66.04"
/>
<path stroke="#808080" vector-effect="non-scaling-stroke" d="
  M 398.05 59.55
  L 404.17 59.51
  A 0.87 0.86 1.0 0 0 405.04 58.68
  L 405.28 51.33
  A 1.05 1.05 -89.2 0 0 404.23 50.25
  L 382.28 50.25
  A 0.77 0.74 -0.4 0 0 381.51 51.00
  L 381.65 58.81
  A 0.59 0.53 1.8 0 0 382.19 59.33
  L 388.44 59.76
  A 0.55 0.52 -88.3 0 1 388.93 60.31
  L 389.02 96.94
  A 1.08 1.07 -0.3 0 0 390.10 98.00
  L 396.63 98.00
  A 0.88 0.87 90.0 0 0 397.50 97.12
  L 397.56 60.07
  A 0.52 0.49 -90.0 0 1 398.05 59.55"
/>
<path stroke="#808080" vector-effect="non-scaling-stroke" d="
  M 415.55 66.69
  L 415.43 60.12
  A 0.63 0.62 -0.4 0 1 416.06 59.49
  L 429.81 59.34
  A 0.56 0.52 -0.6 0 0 430.36 58.82
  L 430.36 50.94
  A 0.56 0.52 0.6 0 0 429.81 50.42
  L 407.72 50.26
  A 0.68 0.66 -90.0 0 0 407.06 50.94
  L 407.24 97.29
  A 0.71 0.71 90.0 0 0 407.95 98.00
  L 429.76 98.00
  A 0.68 0.67 89.6 0 0 430.43 97.31
  L 430.42 89.32
  A 0.52 0.50 -89.4 0 0 429.93 88.80
  L 416.37 88.75
  A 0.88 0.87 0.3 0 1 415.50 87.88
  L 415.50 77.06
  A 0.56 0.56 0.0 0 1 416.06 76.50
  L 429.98 76.50
  A 0.52 0.52 90.0 0 0 430.50 75.98
  L 430.50 68.03
  A 0.80 0.79 0.0 0 0 429.70 67.24
  L 416.07 67.20
  A 0.53 0.52 0.0 0 1 415.55 66.69"
/>
<path stroke="#808080" vector-effect="non-scaling-stroke" d="
  M 455.45 81.26
  L 446.71 50.92
  A 0.74 0.66 81.7 0 0 446.07 50.39
  L 439.08 50.29
  A 0.83 0.78 -85.0 0 0 438.29 50.99
  L 431.38 97.19
  A 0.52 0.52 9.6 0 0 431.80 97.78
  Q 435.25 98.38 438.70 97.78
  A 0.71 0.70 -0.6 0 0 439.27 97.20
  Q 440.38 90.64 443.50 70.25
  C 443.59 69.64 444.14 69.56 444.31 70.25
  Q 447.90 83.90 452.28 97.33
  A 0.79 0.64 78.8 0 0 452.94 97.88
  L 459.19 97.78
  A 0.81 0.66 -80.5 0 0 459.85 97.20
  L 467.84 70.31
  A 0.67 0.35 -76.0 0 1 468.30 69.79
  C 468.72 69.83 472.23 94.24 472.69 97.21
  A 0.91 0.90 85.5 0 0 473.58 97.98
  L 480.31 97.95
  A 0.58 0.57 85.6 0 0 480.87 97.28
  L 474.01 51.08
  A 0.93 0.86 85.1 0 0 473.14 50.29
  L 466.18 50.39
  A 0.75 0.66 -80.9 0 0 465.54 50.92
  C 464.69 53.69 456.47 82.01 455.95 81.91
  A 0.94 0.49 79.9 0 1 455.45 81.26"
/>
<path stroke="#808080" vector-effect="non-scaling-stroke" d="
  M 507.63 51.69
  C 488.48 61.20 491.03 94.59 512.50 98.49
  C 521.73 100.17 528.96 97.17 535.20 90.35
  A 1.12 1.10 46.5 0 0 535.22 88.88
  L 530.74 83.60
  A 0.99 0.98 45.0 0 0 529.23 83.59
  Q 524.29 89.41 517.45 89.56
  C 496.62 90.01 499.61 53.59 520.83 59.10
  Q 526.01 60.44 529.75 64.81
  A 0.44 0.44 46.6 0 0 530.41 64.83
  L 535.67 59.15
  A 0.48 0.46 48.0 0 0 535.69 58.53
  C 528.85 49.83 517.79 46.64 507.63 51.69"
/>
<path stroke="#808080" vector-effect="non-scaling-stroke" d="
  M 559.4305 99.0497
  A 24.93 22.04 89.7 0 0 581.3397 74.0046
  A 24.93 22.04 89.7 0 0 559.1695 49.1903
  A 24.93 22.04 89.7 0 0 537.2603 74.2354
  A 24.93 22.04 89.7 0 0 559.4305 99.0497"
/>
<path stroke="#004e80" vector-effect="non-scaling-stroke" d="
  M 34.72 49.94
  L 15.00 50.00
  A 0.34 0.33 77.1 0 0 14.70 50.48
  L 45.86 114.02
  Q 46.54 115.42 47.24 114.02
  L 56.96 94.53
  A 1.57 1.55 -44.6 0 0 56.98 93.15
  L 36.38 50.97
  A 1.85 1.83 -12.8 0 0 34.72 49.94"
/>
<path stroke="#808080" vector-effect="non-scaling-stroke" d="
  M 259.0519 89.6476
  A 15.58 13.59 89.0 0 0 272.3679 73.8328
  A 15.58 13.59 89.0 0 0 258.5081 58.4924
  A 15.58 13.59 89.0 0 0 245.1921 74.3072
  A 15.58 13.59 89.0 0 0 259.0519 89.6476"
/>
<path stroke="#808080" vector-effect="non-scaling-stroke" d="
  M 559.4705 89.6488
  A 15.59 13.59 89.3 0 0 572.8690 73.8940
  A 15.59 13.59 89.3 0 0 559.0895 58.4712
  A 15.59 13.59 89.3 0 0 545.6910 74.2260
  A 15.59 13.59 89.3 0 0 559.4705 89.6488"
/>
<path stroke="#808080" vector-effect="non-scaling-stroke" d="
  M 198.53 80.28
  C 201.45 69.09 196.06 58.01 182.93 59.62
  A 0.57 0.57 86.6 0 0 182.43 60.19
  L 182.26 87.98
  A 0.80 0.79 -1.0 0 0 183.09 88.77
  C 190.25 88.46 196.38 88.51 198.53 80.28"
/>
<path stroke="#808080" vector-effect="non-scaling-stroke" d="
  M 588.7646 98.6097
  A 5.29 4.68 90.6 0 0 593.4997 93.3690
  A 5.29 4.68 90.6 0 0 588.8754 88.0303
  A 5.29 4.68 90.6 0 0 584.1403 93.2710
  A 5.29 4.68 90.6 0 0 588.7646 98.6097"
/>
</g>
<path fill="#ffffff" d="
  M 88.03 31.50
  A 0.40 0.39 -77.5 0 0 87.67 30.93
  L 71.40 31.00
  Q 69.68 31.01 71.13 30.07
  L 112.41 3.34
  A 0.72 0.72 52.4 0 1 113.33 3.46
  L 137.87 30.01
  Q 138.93 31.16 137.35 31.15
  L 121.54 31.02
  A 1.59 1.52 -76.1 0 0 120.14 31.91
  L 76.28 121.11
  A 0.82 0.80 12.8 0 1 75.55 121.56
  L 42.90 121.50
  A 0.85 0.84 77.1 0 1 42.14 121.02
  Q 23.89 83.94 6.00 47.03
  Q 5.35 45.71 4.49 44.63
  Q 3.59 43.50 5.03 43.50
  L 39.00 43.50
  A 1.23 1.23 76.7 0 1 40.10 44.18
  L 60.39 85.74
  Q 60.90 86.77 61.41 85.73
  L 88.03 31.50
  Z
  M 118.06 27.25
  Q 123.16 26.61 128.34 27.26
  Q 129.77 27.44 128.79 26.38
  L 112.53 8.79
  A 0.55 0.54 -37.2 0 0 111.82 8.70
  L 84.59 26.40
  Q 83.68 27.00 84.75 26.98
  L 94.83 26.83
  Q 95.53 26.82 95.20 27.42
  Q 91.55 33.90 88.28 40.55
  Q 69.57 78.53 50.97 116.55
  A 0.33 0.31 -76.3 0 0 51.24 117.02
  L 72.45 117.22
  A 1.58 1.50 -75.8 0 0 73.83 116.35
  L 117.34 27.77
  A 0.93 0.91 -80.4 0 1 118.06 27.25
  Z
  M 48.31 116.31
  Q 53.73 105.84 59.47 94.51
  A 1.42 1.40 45.5 0 0 59.47 93.26
  L 37.17 48.09
  A 1.06 1.06 -13.0 0 0 36.22 47.50
  L 11.40 47.50
  A 0.38 0.38 76.9 0 0 11.06 48.05
  L 44.71 116.36
  A 1.72 1.31 84.9 0 0 45.36 117.07
  Q 47.36 118.15 48.31 116.31
  Z"
/>
<path fill="#000000" d="
  M 117.34 27.77
  L 73.83 116.35
  A 1.58 1.50 -75.8 0 1 72.45 117.22
  L 51.24 117.02
  A 0.33 0.31 -76.3 0 1 50.97 116.55
  Q 69.57 78.53 88.28 40.55
  Q 91.55 33.90 95.20 27.42
  Q 95.53 26.82 94.83 26.83
  L 84.75 26.98
  Q 83.68 27.00 84.59 26.40
  L 111.82 8.70
  A 0.55 0.54 -37.2 0 1 112.53 8.79
  L 128.79 26.38
  Q 129.77 27.44 128.34 27.26
  Q 123.16 26.61 118.06 27.25
  A 0.93 0.91 -80.4 0 0 117.34 27.77
  Z
  M 98.00 24.46
  Q 98.42 24.85 98.06 25.56
  Q 88.50 44.74 54.47 114.06
  A 0.33 0.32 -75.8 0 0 54.74 114.53
  L 71.30 114.72
  A 1.41 1.37 13.0 0 0 72.57 113.95
  L 77.00 104.79
  L 116.34 25.26
  A 0.98 0.74 -74.0 0 1 117.05 24.73
  L 122.75 24.52
  Q 124.16 24.47 123.23 23.48
  L 112.32 11.88
  A 0.82 0.81 52.1 0 0 111.28 11.74
  L 92.18 23.94
  Q 91.27 24.52 92.33 24.51
  L 98.00 24.46
  Z"
/>
<path fill="#01b2ff" d="
  M 77.00 104.79
  C 75.56 104.10 81.19 93.34 81.87 91.77
  C 83.01 89.18 84.93 86.85 86.16 84.11
  Q 88.62 78.61 88.66 78.53
  C 97.33 61.65 104.29 46.30 114.38 26.22
  Q 115.92 23.17 118.41 22.86
  Q 120.04 22.65 119.01 21.40
  L 112.34 13.38
  A 1.03 0.96 66.7 0 0 111.50 13.01
  C 109.62 13.15 108.40 14.95 107.28 15.64
  Q 102.61 18.51 98.21 21.77
  A 1.00 0.72 76.1 0 0 97.90 22.55
  L 98.00 24.46
  L 92.33 24.51
  Q 91.27 24.52 92.18 23.94
  L 111.28 11.74
  A 0.82 0.81 52.1 0 1 112.32 11.88
  L 123.23 23.48
  Q 124.16 24.47 122.75 24.52
  L 117.05 24.73
  A 0.98 0.74 -74.0 0 0 116.34 25.26
  L 77.00 104.79
  Z"
/>
<path fill="#009cff" d="
  M 77.00 104.79
  L 72.57 113.95
  A 1.41 1.37 13.0 0 1 71.30 114.72
  L 54.74 114.53
  A 0.33 0.32 -75.8 0 1 54.47 114.06
  Q 88.50 44.74 98.06 25.56
  Q 98.42 24.85 98.00 24.46
  L 97.90 22.55
  A 1.00 0.72 76.1 0 1 98.21 21.77
  Q 102.61 18.51 107.28 15.64
  C 108.40 14.95 109.62 13.15 111.50 13.01
  A 1.03 0.96 66.7 0 1 112.34 13.38
  L 119.01 21.40
  Q 120.04 22.65 118.41 22.86
  Q 115.92 23.17 114.38 26.22
  C 104.29 46.30 97.33 61.65 88.66 78.53
  Q 88.62 78.61 86.16 84.11
  C 84.93 86.85 83.01 89.18 81.87 91.77
  C 81.19 93.34 75.56 104.10 77.00 104.79
  Z"
/>
<path fill="#ffffff" d="
  M 6.81 34.24
  C 18.71 35.70 9.84 41.64 3.78 39.37
  A 1.15 0.96 4.1 0 1 3.12 38.73
  Q 2.51 36.87 6.05 38.26
  A 3.33 3.32 45.8 0 0 8.34 38.30
  C 12.35 36.93 4.98 35.95 4.31 35.69
  Q 1.24 34.47 3.56 32.81
  C 5.07 31.74 13.50 29.84 12.44 33.30
  A 0.54 0.47 17.6 0 1 11.78 33.59
  C 10.85 33.28 5.91 32.29 6.13 33.73
  A 0.80 0.57 1.2 0 0 6.81 34.24
  Z"
/>
<path fill="#ffffff" d="
  M 28.79 33.95
  L 33.97 35.63
  A 1.27 1.20 -2.5 0 1 34.68 36.25
  C 36.71 40.55 27.74 39.99 25.89 39.25
  A 1.04 0.91 6.5 0 1 25.28 38.58
  Q 24.87 36.81 28.18 38.27
  A 3.12 3.10 -46.1 0 0 30.84 38.21
  Q 33.48 36.87 29.59 36.65
  Q 28.30 36.57 27.16 35.95
  C 21.36 32.79 30.41 30.53 33.60 31.75
  A 1.38 1.34 -3.3 0 1 34.32 32.37
  Q 35.41 34.42 32.81 33.19
  Q 30.80 32.24 28.72 33.54
  Q 28.31 33.79 28.79 33.95
  Z"
/>
<path fill="#ffffff" d="
  M 15.73 31.30
  A 4.31 4.30 86.1 0 1 17.56 32.90
  C 20.13 36.92 19.55 30.70 23.76 31.50
  A 0.54 0.50 -63.6 0 1 24.01 32.36
  L 20.51 36.57
  A 1.29 0.46 79.0 0 0 20.37 37.49
  L 20.48 38.95
  A 0.71 0.60 -11.1 0 1 19.97 39.59
  Q 16.85 40.55 17.40 37.24
  A 1.14 1.02 -61.6 0 0 17.19 36.36
  L 14.06 32.39
  A 0.49 0.46 53.4 0 1 14.14 31.70
  Q 15.12 31.02 15.73 31.30
  Z"
/>
<path fill="#ffffff" d="
  M 42.28 33.92
  C 42.15 36.03 43.50 40.92 39.79 39.62
  A 0.74 0.73 9.2 0 1 39.29 38.94
  L 39.26 34.11
  A 1.09 1.07 77.9 0 0 37.75 33.11
  Q 35.83 33.98 35.99 32.06
  A 0.57 0.57 2.8 0 1 36.56 31.55
  L 44.94 31.55
  A 0.75 0.67 -7.9 0 1 45.64 32.02
  Q 46.09 33.48 43.17 33.16
  A 0.81 0.80 -85.0 0 0 42.28 33.92
  Z"
/>
<path fill="#ffffff" d="
  M 50.33 33.80
  Q 50.59 34.87 53.11 34.20
  A 1.94 1.94 66.4 0 1 55.24 35.04
  Q 56.07 36.36 52.85 35.86
  A 3.41 3.36 34.2 0 0 50.66 36.26
  Q 49.62 36.85 49.96 37.26
  A 2.40 2.38 68.3 0 0 51.96 38.13
  Q 55.95 37.88 55.48 39.31
  A 0.81 0.64 7.3 0 1 54.75 39.75
  L 48.27 39.75
  A 0.77 0.77 0.0 0 1 47.50 38.98
  L 47.50 32.00
  A 0.50 0.50 0.0 0 1 48.00 31.50
  L 54.74 31.50
  A 1.09 0.80 -11.9 0 1 55.58 31.88
  C 56.60 33.36 51.47 33.08 50.79 33.21
  A 0.56 0.47 -12.1 0 0 50.33 33.80
  Z"
/>
<path fill="#ffffff" d="
  M 61.47 34.86
  A 1.02 1.01 85.2 0 0 60.43 36.10
  Q 61.28 39.86 58.87 39.74
  A 0.90 0.88 1.4 0 1 58.01 38.86
  L 58.05 32.31
  A 0.71 0.70 80.9 0 1 58.53 31.64
  Q 61.63 30.61 62.89 34.15
  Q 63.91 37.00 64.87 34.14
  Q 66.06 30.60 69.53 31.60
  A 0.67 0.57 -82.8 0 1 69.95 32.24
  L 69.73 38.75
  A 1.03 0.74 80.6 0 1 69.34 39.54
  Q 68.15 40.25 67.11 39.36
  A 0.99 0.84 -67.9 0 1 66.83 38.51
  Q 67.80 32.32 64.58 37.39
  A 0.90 0.76 -68.2 0 1 63.81 37.80
  Q 62.37 37.65 61.98 36.05
  Q 61.70 34.87 61.47 34.86
  Z"
/>
<path fill="#ffffff" d="
  M 155.91 67.91
  L 146.00 98.76
  Q 145.26 101.05 142.90 101.32
  C 139.10 101.75 132.10 102.82 130.86 97.79
  Q 130.41 95.93 130.39 95.87
  Q 123.63 74.40 116.86 52.93
  C 114.43 45.21 123.04 46.70 127.25 46.70
  Q 131.18 46.70 132.00 50.50
  Q 133.20 56.07 138.64 70.96
  Q 138.81 71.44 138.97 70.96
  Q 142.54 60.41 145.75 49.75
  C 146.76 46.40 149.86 46.72 152.81 46.77
  C 159.40 46.89 167.51 45.65 170.85 47.95
  A 0.65 0.65 -47.1 0 0 171.63 47.92
  C 173.61 46.31 175.36 46.80 177.61 46.68
  C 189.17 46.04 201.86 47.15 207.44 59.06
  Q 207.70 59.62 208.00 59.65
  A 0.66 0.39 88.5 0 0 208.40 58.94
  C 208.12 54.85 206.56 46.92 212.50 46.85
  Q 222.82 46.72 233.13 46.79
  C 238.68 46.83 238.63 49.63 238.35 54.29
  Q 238.29 55.16 238.19 56.01
  C 238.12 56.56 238.85 56.44 239.17 56.02
  C 246.40 46.51 258.03 43.05 268.97 48.17
  C 283.32 54.88 287.98 74.41 281.09 87.88
  C 272.53 104.60 250.54 108.16 239.17 92.15
  A 0.64 0.37 57.1 0 0 238.54 91.83
  C 237.27 92.48 241.23 101.32 234.00 101.41
  Q 223.92 101.53 213.85 101.46
  C 206.09 101.40 208.33 95.02 208.26 89.96
  Q 208.24 88.52 207.57 89.80
  C 200.98 102.43 189.04 101.78 176.75 101.50
  Q 173.45 101.42 171.67 100.29
  A 0.84 0.78 44.9 0 0 170.83 100.26
  Q 168.71 101.51 166.31 101.63
  C 161.46 101.88 156.11 102.18 156.38 95.33
  C 156.75 86.27 156.48 77.13 156.69 68.04
  Q 156.75 65.29 155.91 67.91
  Z
  M 258.8871 99.0698
  A 24.94 22.03 89.8 0 0 280.8299 74.0531
  A 24.94 22.03 89.8 0 0 258.7129 49.1902
  A 24.94 22.03 89.8 0 0 236.7701 74.2069
  A 24.94 22.03 89.8 0 0 258.8871 99.0698
  Z
  M 220.05 66.69
  L 220.00 60.02
  A 0.55 0.53 -0.0 0 1 220.55 59.49
  L 234.31 59.34
  A 0.55 0.52 -0.6 0 0 234.85 58.82
  L 234.96 50.98
  A 0.74 0.71 0.4 0 0 234.22 50.26
  L 212.19 50.42
  A 0.52 0.51 89.4 0 0 211.69 50.94
  L 211.81 97.43
  A 0.51 0.51 0.0 0 0 212.32 97.94
  L 234.32 98.00
  A 0.67 0.66 -0.4 0 0 234.99 97.33
  L 234.95 89.31
  A 0.51 0.51 0.6 0 0 234.45 88.80
  L 220.67 88.75
  A 0.67 0.66 0.0 0 1 220.00 88.09
  L 220.00 77.08
  A 0.58 0.58 0.6 0 1 220.58 76.50
  L 234.01 76.50
  A 0.99 0.99 -0.5 0 0 235.00 75.51
  L 235.00 68.01
  A 0.77 0.77 0.0 0 0 234.23 67.24
  L 220.57 67.20
  A 0.53 0.51 0.6 0 1 220.05 66.69
  Z
  M 139.10 81.81
  Q 138.66 83.18 138.22 81.81
  L 128.42 50.74
  A 0.72 0.71 -9.0 0 0 127.74 50.25
  L 120.28 50.25
  A 0.57 0.56 80.9 0 0 119.75 50.99
  L 134.23 96.98
  A 1.38 1.25 79.9 0 0 135.48 97.95
  L 142.06 97.86
  A 0.76 0.67 -79.9 0 0 142.72 97.33
  L 157.73 50.83
  A 0.43 0.42 -81.4 0 0 157.33 50.27
  L 149.69 50.40
  A 0.73 0.66 -80.5 0 0 149.04 50.91
  L 139.10 81.81
  Z
  M 168.4593 50.7927
  A 0.55 0.55 0.0 0 0 167.9083 50.2436
  L 160.5483 50.2565
  A 0.55 0.55 0.0 0 0 159.9993 50.8074
  L 160.0807 97.4473
  A 0.55 0.55 0.0 0 0 160.6317 97.9964
  L 167.9917 97.9835
  A 0.55 0.55 0.0 0 0 168.5407 97.4326
  L 168.4593 50.7927
  Z
  M 198.56 53.69
  C 192.16 49.35 181.90 49.86 174.31 50.52
  A 0.55 0.53 87.8 0 0 173.82 51.07
  L 173.94 97.31
  A 0.52 0.51 -88.9 0 0 174.43 97.83
  C 188.28 98.42 201.35 99.46 206.01 84.75
  C 209.09 75.01 207.91 60.02 198.56 53.69
  Z
  M 235.2500 63.2409
  A 0.47 0.47 0.0 0 0 234.7817 62.7692
  L 223.7617 62.7308
  A 0.47 0.47 0.0 0 0 223.2901 63.1991
  L 223.2900 63.2391
  A 0.47 0.47 0.0 0 0 223.7583 63.7108
  L 234.7783 63.7492
  A 0.47 0.47 0.0 0 0 235.2499 63.2809
  L 235.2500 63.2409
  Z
  M 235.20 84.76
  L 234.04 80.79
  A 1.11 0.88 79.6 0 0 233.14 80.00
  L 224.14 80.00
  A 0.63 0.60 -0.4 0 0 223.51 80.61
  L 223.54 84.69
  A 0.53 0.51 0.0 0 0 224.07 85.20
  L 234.89 85.24
  A 0.38 0.33 81.6 0 0 235.20 84.76
  Z"
/>
<path fill="#ffffff" d="
  M 373.95 67.45
  C 380.10 71.65 384.73 78.29 384.57 86.00
  C 384.16 106.60 357.43 107.88 351.20 89.09
  Q 350.52 87.06 352.24 85.76
  C 354.40 84.12 356.70 82.70 358.89 81.10
  C 363.37 77.83 365.03 83.82 367.66 85.89
  A 1.26 1.10 57.3 0 0 368.56 86.15
  C 370.48 85.89 369.13 84.24 368.42 83.58
  C 361.61 77.14 354.70 71.51 353.50 64.00
  Q 353.28 62.62 352.69 63.94
  L 346.87 76.95
  Q 346.50 77.78 346.50 78.56
  Q 346.50 88.50 346.45 97.25
  C 346.42 103.42 332.12 103.06 331.07 98.13
  C 329.64 91.43 332.87 82.45 330.00 76.00
  Q 326.58 68.31 323.03 60.62
  A 0.69 0.69 54.0 0 0 321.90 60.44
  C 319.67 62.90 317.25 66.14 313.72 66.56
  Q 312.84 66.67 313.55 67.21
  C 319.00 71.32 324.37 77.45 324.57 84.64
  C 325.16 105.84 298.25 108.65 291.21 89.64
  Q 290.28 87.14 292.40 85.53
  C 294.79 83.70 300.09 78.90 303.10 80.88
  C 303.64 81.24 308.51 88.46 309.20 85.92
  Q 309.64 84.30 308.36 83.23
  C 302.38 78.24 294.68 71.56 293.19 64.29
  C 290.44 50.87 305.20 40.67 316.60 48.40
  C 317.58 49.06 318.72 50.91 319.54 48.37
  A 2.35 2.34 -80.9 0 1 321.77 46.75
  Q 326.00 46.75 330.00 46.67
  C 334.69 46.58 336.71 54.04 338.36 57.89
  Q 338.82 58.95 339.24 57.88
  C 340.78 54.08 342.83 46.07 348.01 46.75
  Q 350.59 47.09 353.17 46.68
  Q 356.26 46.20 358.27 48.78
  A 0.51 0.51 53.7 0 0 358.97 48.89
  Q 367.46 42.83 377.45 48.77
  A 0.75 0.75 40.2 0 0 378.30 48.70
  C 381.07 46.39 381.93 46.75 386.01 46.75
  Q 407.38 46.78 428.75 46.75
  C 434.46 46.74 433.61 49.77 433.89 53.99
  C 434.06 56.39 434.66 51.73 434.73 51.46
  C 435.41 48.77 435.42 46.90 439.00 46.82
  Q 442.63 46.75 446.25 46.75
  C 449.37 46.75 449.82 49.60 450.56 52.00
  Q 453.35 61.00 455.58 69.32
  Q 456.05 71.06 456.56 69.33
  L 462.51 49.23
  Q 463.11 47.20 465.24 46.94
  C 469.77 46.38 476.51 45.00 477.45 51.32
  Q 480.50 71.84 483.60 92.36
  C 484.33 97.16 485.62 101.27 479.25 101.43
  C 475.01 101.53 470.17 102.90 469.25 97.16
  Q 468.32 91.34 467.34 85.53
  C 467.22 84.84 466.81 85.56 466.77 85.74
  Q 465.22 91.93 463.25 98.00
  C 461.70 102.79 455.87 101.73 452.26 101.33
  Q 449.72 101.06 449.07 98.74
  L 445.22 84.97
  Q 444.93 83.91 444.75 84.99
  Q 443.76 91.19 442.76 97.37
  C 442.32 100.15 441.06 101.51 438.25 101.51
  Q 423.00 101.50 407.75 101.50
  Q 404.00 101.50 403.90 97.31
  Q 403.51 80.44 403.44 63.56
  A 0.60 0.56 -86.8 0 0 402.95 62.97
  Q 402.21 62.87 401.52 63.11
  A 0.76 0.68 81.4 0 0 401.06 63.81
  Q 400.90 89.03 401.00 96.50
  C 401.09 102.86 394.52 101.57 390.25 101.50
  C 386.73 101.44 385.56 99.70 385.56 96.27
  Q 385.55 81.16 385.50 66.05
  C 385.50 64.47 386.24 62.38 383.49 62.89
  Q 383.00 62.98 382.53 62.86
  C 378.35 61.76 378.47 66.11 374.17 66.56
  Q 372.85 66.70 373.95 67.45
  Z
  M 316.89 53.02
  C 305.35 41.86 289.64 56.81 299.43 69.35
  C 302.83 73.69 315.17 83.24 312.29 87.53
  C 308.90 92.58 303.29 87.78 301.81 84.13
  A 0.74 0.74 61.4 0 0 300.69 83.80
  L 294.71 88.03
  A 0.66 0.64 61.7 0 0 294.49 88.79
  Q 296.87 95.06 302.38 97.61
  C 308.70 100.52 316.67 98.57 319.69 91.94
  C 325.55 79.05 312.19 70.97 304.93 62.82
  Q 303.55 61.27 305.05 59.83
  C 308.18 56.82 312.02 59.69 313.57 62.70
  A 0.73 0.73 -36.2 0 0 314.74 62.88
  L 320.02 57.60
  A 0.71 0.71 -40.8 0 0 320.09 56.66
  Q 318.48 54.56 316.89 53.02
  Z
  M 372.45 87.43
  C 367.99 92.31 364.11 88.07 361.84 84.05
  A 0.65 0.62 58.0 0 0 360.93 83.82
  L 354.95 88.02
  A 0.67 0.62 62.4 0 0 354.74 88.79
  Q 358.08 97.61 366.39 98.72
  C 381.34 100.71 385.67 83.12 376.31 74.19
  Q 369.41 67.60 365.97 64.03
  Q 363.16 61.10 366.35 59.00
  Q 367.96 57.93 369.67 58.80
  Q 372.32 60.15 373.71 62.51
  A 0.94 0.93 -37.8 0 0 375.18 62.69
  L 379.68 58.19
  A 1.60 1.60 51.3 0 0 379.90 56.19
  C 371.26 42.56 351.20 51.39 357.63 66.00
  C 361.05 73.76 370.15 77.38 372.97 84.66
  A 2.70 2.68 55.8 0 1 372.45 87.43
  Z
  M 338.38 66.04
  L 331.48 51.12
  A 1.51 1.49 -12.2 0 0 330.11 50.25
  L 322.60 50.25
  A 0.44 0.43 77.7 0 0 322.21 50.87
  L 334.08 76.46
  Q 334.50 77.38 334.50 78.40
  L 334.50 97.13
  A 0.83 0.78 89.7 0 0 335.29 97.96
  L 342.32 97.86
  A 0.56 0.52 -89.4 0 0 342.83 97.32
  C 343.01 91.46 341.77 80.30 343.98 75.25
  Q 349.28 63.16 355.14 51.16
  A 0.60 0.59 -76.7 0 0 354.62 50.30
  L 346.82 50.30
  A 0.79 0.79 -77.8 0 0 346.10 50.77
  L 339.25 66.03
  Q 338.82 66.99 338.38 66.04
  Z
  M 398.05 59.55
  L 404.17 59.51
  A 0.87 0.86 1.0 0 0 405.04 58.68
  L 405.28 51.33
  A 1.05 1.05 -89.2 0 0 404.23 50.25
  L 382.28 50.25
  A 0.77 0.74 -0.4 0 0 381.51 51.00
  L 381.65 58.81
  A 0.59 0.53 1.8 0 0 382.19 59.33
  L 388.44 59.76
  A 0.55 0.52 -88.3 0 1 388.93 60.31
  L 389.02 96.94
  A 1.08 1.07 -0.3 0 0 390.10 98.00
  L 396.63 98.00
  A 0.88 0.87 90.0 0 0 397.50 97.12
  L 397.56 60.07
  A 0.52 0.49 -90.0 0 1 398.05 59.55
  Z
  M 415.55 66.69
  L 415.43 60.12
  A 0.63 0.62 -0.4 0 1 416.06 59.49
  L 429.81 59.34
  A 0.56 0.52 -0.6 0 0 430.36 58.82
  L 430.36 50.94
  A 0.56 0.52 0.6 0 0 429.81 50.42
  L 407.72 50.26
  A 0.68 0.66 -90.0 0 0 407.06 50.94
  L 407.24 97.29
  A 0.71 0.71 90.0 0 0 407.95 98.00
  L 429.76 98.00
  A 0.68 0.67 89.6 0 0 430.43 97.31
  L 430.42 89.32
  A 0.52 0.50 -89.4 0 0 429.93 88.80
  L 416.37 88.75
  A 0.88 0.87 0.3 0 1 415.50 87.88
  L 415.50 77.06
  A 0.56 0.56 0.0 0 1 416.06 76.50
  L 429.98 76.50
  A 0.52 0.52 90.0 0 0 430.50 75.98
  L 430.50 68.03
  A 0.80 0.79 0.0 0 0 429.70 67.24
  L 416.07 67.20
  A 0.53 0.52 0.0 0 1 415.55 66.69
  Z
  M 455.45 81.26
  L 446.71 50.92
  A 0.74 0.66 81.7 0 0 446.07 50.39
  L 439.08 50.29
  A 0.83 0.78 -85.0 0 0 438.29 50.99
  L 431.38 97.19
  A 0.52 0.52 9.6 0 0 431.80 97.78
  Q 435.25 98.38 438.70 97.78
  A 0.71 0.70 -0.6 0 0 439.27 97.20
  Q 440.38 90.64 443.50 70.25
  C 443.59 69.64 444.14 69.56 444.31 70.25
  Q 447.90 83.90 452.28 97.33
  A 0.79 0.64 78.8 0 0 452.94 97.88
  L 459.19 97.78
  A 0.81 0.66 -80.5 0 0 459.85 97.20
  L 467.84 70.31
  A 0.67 0.35 -76.0 0 1 468.30 69.79
  C 468.72 69.83 472.23 94.24 472.69 97.21
  A 0.91 0.90 85.5 0 0 473.58 97.98
  L 480.31 97.95
  A 0.58 0.57 85.6 0 0 480.87 97.28
  L 474.01 51.08
  A 0.93 0.86 85.1 0 0 473.14 50.29
  L 466.18 50.39
  A 0.75 0.66 -80.9 0 0 465.54 50.92
  C 464.69 53.69 456.47 82.01 455.95 81.91
  A 0.94 0.49 79.9 0 1 455.45 81.26
  Z
  M 432.98 61.63
  Q 432.95 61.38 432.80 61.58
  C 431.31 63.49 418.75 62.28 419.06 63.27
  A 0.82 0.57 -6.3 0 0 419.81 63.68
  C 423.68 63.60 427.98 63.38 431.72 64.36
  Q 433.35 64.78 432.98 61.63
  Z
  M 418.90 84.74
  A 0.50 0.49 -89.4 0 0 419.39 85.25
  C 422.27 85.25 425.20 85.13 428.03 85.32
  Q 429.97 85.45 429.81 83.49
  Q 429.80 83.27 429.91 82.53
  L 430.20 80.56
  A 0.51 0.44 3.8 0 0 429.68 80.05
  L 419.53 80.01
  A 0.57 0.53 -88.4 0 0 418.99 80.56
  L 418.90 84.74
  Z"
/>
<path fill="#ffffff" d="
  M 539.45 91.71
  A 0.66 0.66 -42.3 0 0 538.38 91.66
  C 530.73 101.25 519.54 104.97 507.94 100.69
  C 488.10 93.38 485.61 62.96 502.31 50.81
  C 514.43 42.00 529.55 45.25 538.40 56.58
  A 0.55 0.54 -46.1 0 0 539.28 56.56
  C 545.59 47.47 558.17 42.80 568.56 47.56
  C 587.56 56.28 589.84 83.27 575.06 96.56
  C 564.34 106.20 547.29 103.54 539.45 91.71
  Z
  M 507.63 51.69
  C 488.48 61.20 491.03 94.59 512.50 98.49
  C 521.73 100.17 528.96 97.17 535.20 90.35
  A 1.12 1.10 46.5 0 0 535.22 88.88
  L 530.74 83.60
  A 0.99 0.98 45.0 0 0 529.23 83.59
  Q 524.29 89.41 517.45 89.56
  C 496.62 90.01 499.61 53.59 520.83 59.10
  Q 526.01 60.44 529.75 64.81
  A 0.44 0.44 46.6 0 0 530.41 64.83
  L 535.67 59.15
  A 0.48 0.46 48.0 0 0 535.69 58.53
  C 528.85 49.83 517.79 46.64 507.63 51.69
  Z
  M 559.4305 99.0497
  A 24.93 22.04 89.7 0 0 581.3397 74.0046
  A 24.93 22.04 89.7 0 0 559.1695 49.1903
  A 24.93 22.04 89.7 0 0 537.2603 74.2354
  A 24.93 22.04 89.7 0 0 559.4305 99.0497
  Z
  M 531.88 67.97
  C 528.20 70.06 525.46 64.94 522.75 63.50
  C 506.28 54.74 499.76 83.96 516.16 86.14
  C 520.57 86.73 523.34 84.70 526.36 81.65
  Q 530.69 77.29 534.51 82.97
  Q 534.74 83.31 534.97 83.40
  Q 535.53 83.60 535.27 82.84
  Q 532.30 74.50 535.17 65.72
  Q 535.39 65.06 534.78 65.39
  C 533.50 66.07 532.87 67.41 531.88 67.97
  Z"
/>
<path fill="#000000" d="
  M 48.31 116.31
  Q 47.36 118.15 45.36 117.07
  A 1.72 1.31 84.9 0 1 44.71 116.36
  L 11.06 48.05
  A 0.38 0.38 76.9 0 1 11.40 47.50
  L 36.22 47.50
  A 1.06 1.06 -13.0 0 1 37.17 48.09
  L 59.47 93.26
  A 1.42 1.40 45.5 0 1 59.47 94.51
  Q 53.73 105.84 48.31 116.31
  Z
  M 34.72 49.94
  L 15.00 50.00
  A 0.34 0.33 77.1 0 0 14.70 50.48
  L 45.86 114.02
  Q 46.54 115.42 47.24 114.02
  L 56.96 94.53
  A 1.57 1.55 -44.6 0 0 56.98 93.15
  L 36.38 50.97
  A 1.85 1.83 -12.8 0 0 34.72 49.94
  Z"
/>
<path fill="#000000" d="
  M 258.8871 99.0698
  A 24.94 22.03 89.8 0 1 236.7701 74.2069
  A 24.94 22.03 89.8 0 1 258.7129 49.1902
  A 24.94 22.03 89.8 0 1 280.8299 74.0531
  A 24.94 22.03 89.8 0 1 258.8871 99.0698
  Z
  M 259.0519 89.6476
  A 15.58 13.59 89.0 0 0 272.3679 73.8328
  A 15.58 13.59 89.0 0 0 258.5081 58.4924
  A 15.58 13.59 89.0 0 0 245.1921 74.3072
  A 15.58 13.59 89.0 0 0 259.0519 89.6476
  Z"
/>
<path fill="#000000" d="
  M 299.43 69.35
  C 289.64 56.81 305.35 41.86 316.89 53.02
  Q 318.48 54.56 320.09 56.66
  A 0.71 0.71 -40.8 0 1 320.02 57.60
  L 314.74 62.88
  A 0.73 0.73 -36.2 0 1 313.57 62.70
  C 312.02 59.69 308.18 56.82 305.05 59.83
  Q 303.55 61.27 304.93 62.82
  C 312.19 70.97 325.55 79.05 319.69 91.94
  C 316.67 98.57 308.70 100.52 302.38 97.61
  Q 296.87 95.06 294.49 88.79
  A 0.66 0.64 61.7 0 1 294.71 88.03
  L 300.69 83.80
  A 0.74 0.74 61.4 0 1 301.81 84.13
  C 303.29 87.78 308.90 92.58 312.29 87.53
  C 315.17 83.24 302.83 73.69 299.43 69.35
  Z"
/>
<path fill="#000000" d="
  M 361.84 84.05
  C 364.11 88.07 367.99 92.31 372.45 87.43
  A 2.70 2.68 55.8 0 0 372.97 84.66
  C 370.15 77.38 361.05 73.76 357.63 66.00
  C 351.20 51.39 371.26 42.56 379.90 56.19
  A 1.60 1.60 51.3 0 1 379.68 58.19
  L 375.18 62.69
  A 0.94 0.93 -37.8 0 1 373.71 62.51
  Q 372.32 60.15 369.67 58.80
  Q 367.96 57.93 366.35 59.00
  Q 363.16 61.10 365.97 64.03
  Q 369.41 67.60 376.31 74.19
  C 385.67 83.12 381.34 100.71 366.39 98.72
  Q 358.08 97.61 354.74 88.79
  A 0.67 0.62 62.4 0 1 354.95 88.02
  L 360.93 83.82
  A 0.65 0.62 58.0 0 1 361.84 84.05
  Z"
/>
<path fill="#000000" d="
  M 512.50 98.49
  C 491.03 94.59 488.48 61.20 507.63 51.69
  C 517.79 46.64 528.85 49.83 535.69 58.53
  A 0.48 0.46 48.0 0 1 535.67 59.15
  L 530.41 64.83
  A 0.44 0.44 46.6 0 1 529.75 64.81
  Q 526.01 60.44 520.83 59.10
  C 499.61 53.59 496.62 90.01 517.45 89.56
  Q 524.29 89.41 529.23 83.59
  A 0.99 0.98 45.0 0 1 530.74 83.60
  L 535.22 88.88
  A 1.12 1.10 46.5 0 1 535.20 90.35
  C 528.96 97.17 521.73 100.17 512.50 98.49
  Z"
/>
<path fill="#000000" d="
  M 559.4305 99.0497
  A 24.93 22.04 89.7 0 1 537.2603 74.2354
  A 24.93 22.04 89.7 0 1 559.1695 49.1903
  A 24.93 22.04 89.7 0 1 581.3397 74.0046
  A 24.93 22.04 89.7 0 1 559.4305 99.0497
  Z
  M 559.4705 89.6488
  A 15.59 13.59 89.3 0 0 572.8690 73.8940
  A 15.59 13.59 89.3 0 0 559.0895 58.4712
  A 15.59 13.59 89.3 0 0 545.6910 74.2260
  A 15.59 13.59 89.3 0 0 559.4705 89.6488
  Z"
/>
<path fill="#009cff" d="
  M 34.72 49.94
  A 1.85 1.83 -12.8 0 1 36.38 50.97
  L 56.98 93.15
  A 1.57 1.55 -44.6 0 1 56.96 94.53
  L 47.24 114.02
  Q 46.54 115.42 45.86 114.02
  L 14.70 50.48
  A 0.34 0.33 77.1 0 1 15.00 50.00
  L 34.72 49.94
  Z"
/>
<path fill="#000000" d="
  M 220.57 67.20
  L 234.23 67.24
  A 0.77 0.77 0.0 0 1 235.00 68.01
  L 235.00 75.51
  A 0.99 0.99 -0.5 0 1 234.01 76.50
  L 220.58 76.50
  A 0.58 0.58 0.0 0 0 220.00 77.08
  L 220.00 88.09
  A 0.67 0.66 0.0 0 0 220.67 88.75
  L 234.45 88.80
  A 0.51 0.51 0.6 0 1 234.95 89.31
  L 234.99 97.33
  A 0.67 0.66 -0.4 0 1 234.32 98.00
  L 212.32 97.94
  A 0.51 0.51 0.0 0 1 211.81 97.43
  L 211.69 50.94
  A 0.52 0.51 89.4 0 1 212.19 50.42
  L 234.22 50.26
  A 0.74 0.71 0.4 0 1 234.96 50.98
  L 234.85 58.82
  A 0.55 0.52 -0.6 0 1 234.31 59.34
  L 220.55 59.49
  A 0.55 0.53 0.0 0 0 220.00 60.02
  L 220.05 66.69
  A 0.53 0.51 0.6 0 0 220.57 67.20
  Z"
/>
<path fill="#000000" d="
  M 139.10 81.81
  L 149.04 50.91
  A 0.73 0.66 -80.5 0 1 149.69 50.40
  L 157.33 50.27
  A 0.43 0.42 -81.4 0 1 157.73 50.83
  L 142.72 97.33
  A 0.76 0.67 -79.9 0 1 142.06 97.86
  L 135.48 97.95
  A 1.38 1.25 79.9 0 1 134.23 96.98
  L 119.75 50.99
  A 0.57 0.56 80.9 0 1 120.28 50.25
  L 127.74 50.25
  A 0.72 0.71 -9.0 0 1 128.42 50.74
  L 138.22 81.81
  Q 138.66 83.18 139.10 81.81
  Z"
/>
<rect fill="#000000" x="-4.23" y="-23.87" transform="translate(164.27,74.12) rotate(-0.1)" width="8.46" height="47.74" rx="0.55"/>
<path fill="#000000" d="
  M 198.56 53.69
  C 207.91 60.02 209.09 75.01 206.01 84.75
  C 201.35 99.46 188.28 98.42 174.43 97.83
  A 0.52 0.51 -88.9 0 1 173.94 97.31
  L 173.82 51.07
  A 0.55 0.53 87.8 0 1 174.31 50.52
  C 181.90 49.86 192.16 49.35 198.56 53.69
  Z
  M 198.53 80.28
  C 201.45 69.09 196.06 58.01 182.93 59.62
  A 0.57 0.57 86.6 0 0 182.43 60.19
  L 182.26 87.98
  A 0.80 0.79 -1.0 0 0 183.09 88.77
  C 190.25 88.46 196.38 88.51 198.53 80.28
  Z"
/>
<path fill="#000000" d="
  M 338.38 66.04
  Q 338.82 66.99 339.25 66.03
  L 346.10 50.77
  A 0.79 0.79 -77.8 0 1 346.82 50.30
  L 354.62 50.30
  A 0.60 0.59 -76.7 0 1 355.14 51.16
  Q 349.28 63.16 343.98 75.25
  C 341.77 80.30 343.01 91.46 342.83 97.32
  A 0.56 0.52 -89.4 0 1 342.32 97.86
  L 335.29 97.96
  A 0.83 0.78 89.7 0 1 334.50 97.13
  L 334.50 78.40
  Q 334.50 77.38 334.08 76.46
  L 322.21 50.87
  A 0.44 0.43 77.7 0 1 322.60 50.25
  L 330.11 50.25
  A 1.51 1.49 -12.2 0 1 331.48 51.12
  L 338.38 66.04
  Z"
/>
<path fill="#000000" d="
  M 397.56 60.07
  L 397.50 97.12
  A 0.88 0.87 -90.0 0 1 396.63 98.00
  L 390.10 98.00
  A 1.08 1.07 -0.3 0 1 389.02 96.94
  L 388.93 60.31
  A 0.55 0.52 -88.3 0 0 388.44 59.76
  L 382.19 59.33
  A 0.59 0.53 1.8 0 1 381.65 58.81
  L 381.51 51.00
  A 0.77 0.74 -0.4 0 1 382.28 50.25
  L 404.23 50.25
  A 1.05 1.05 -89.2 0 1 405.28 51.33
  L 405.04 58.68
  A 0.87 0.86 1.0 0 1 404.17 59.51
  L 398.05 59.55
  A 0.52 0.49 -90.0 0 0 397.56 60.07
  Z"
/>
<path fill="#000000" d="
  M 416.07 67.20
  L 429.70 67.24
  A 0.80 0.79 0.0 0 1 430.50 68.03
  L 430.50 75.98
  A 0.52 0.52 -90.0 0 1 429.98 76.50
  L 416.06 76.50
  A 0.56 0.56 0.0 0 0 415.50 77.06
  L 415.50 87.88
  A 0.88 0.87 0.3 0 0 416.37 88.75
  L 429.93 88.80
  A 0.52 0.50 -89.4 0 1 430.42 89.32
  L 430.43 97.31
  A 0.68 0.67 89.6 0 1 429.76 98.00
  L 407.95 98.00
  A 0.71 0.71 -90.0 0 1 407.24 97.29
  L 407.06 50.94
  A 0.68 0.66 -90.0 0 1 407.72 50.26
  L 429.81 50.42
  A 0.56 0.52 0.6 0 1 430.36 50.94
  L 430.36 58.82
  A 0.56 0.52 -0.6 0 1 429.81 59.34
  L 416.06 59.49
  A 0.63 0.62 -0.4 0 0 415.43 60.12
  L 415.55 66.69
  A 0.53 0.52 0.0 0 0 416.07 67.20
  Z"
/>
<path fill="#000000" d="
  M 455.95 81.91
  C 456.47 82.01 464.69 53.69 465.54 50.92
  A 0.75 0.66 -80.9 0 1 466.18 50.39
  L 473.14 50.29
  A 0.93 0.86 85.1 0 1 474.01 51.08
  L 480.87 97.28
  A 0.58 0.57 85.6 0 1 480.31 97.95
  L 473.58 97.98
  A 0.91 0.90 85.5 0 1 472.69 97.21
  C 472.23 94.24 468.72 69.83 468.30 69.79
  A 0.67 0.35 -76.0 0 0 467.84 70.31
  L 459.85 97.20
  A 0.81 0.66 -80.5 0 1 459.19 97.78
  L 452.94 97.88
  A 0.79 0.64 78.8 0 1 452.28 97.33
  Q 447.90 83.90 444.31 70.25
  C 444.14 69.56 443.59 69.64 443.50 70.25
  Q 440.38 90.64 439.27 97.20
  A 0.71 0.70 -0.6 0 1 438.70 97.78
  Q 435.25 98.38 431.80 97.78
  A 0.52 0.52 9.6 0 1 431.38 97.19
  L 438.29 50.99
  A 0.83 0.78 -85.0 0 1 439.08 50.29
  L 446.07 50.39
  A 0.74 0.66 81.7 0 1 446.71 50.92
  L 455.45 81.26
  A 0.94 0.49 79.9 0 0 455.95 81.91
  Z"
/>
<path fill="#ffffff" d="
  M 259.0519 89.6476
  A 15.58 13.59 89.0 0 1 245.1921 74.3072
  A 15.58 13.59 89.0 0 1 258.5081 58.4924
  A 15.58 13.59 89.0 0 1 272.3679 73.8328
  A 15.58 13.59 89.0 0 1 259.0519 89.6476
  Z
  M 258.8974 86.2493
  A 12.17 10.14 89.4 0 0 268.9094 73.9738
  A 12.17 10.14 89.4 0 0 258.6426 61.9107
  A 12.17 10.14 89.4 0 0 248.6306 74.1862
  A 12.17 10.14 89.4 0 0 258.8974 86.2493
  Z"
/>
<path fill="#ffffff" d="
  M 559.4705 89.6488
  A 15.59 13.59 89.3 0 1 545.6910 74.2260
  A 15.59 13.59 89.3 0 1 559.0895 58.4712
  A 15.59 13.59 89.3 0 1 572.8690 73.8940
  A 15.59 13.59 89.3 0 1 559.4705 89.6488
  Z
  M 559.4172 86.2393
  A 12.15 10.15 89.4 0 0 569.4394 73.9837
  A 12.15 10.15 89.4 0 0 559.1628 61.9407
  A 12.15 10.15 89.4 0 0 549.1406 74.1963
  A 12.15 10.15 89.4 0 0 559.4172 86.2393
  Z"
/>
<path fill="#ffffff" d="
  M 182.93 59.62
  C 196.06 58.01 201.45 69.09 198.53 80.28
  C 196.38 88.51 190.25 88.46 183.09 88.77
  A 0.80 0.79 -1.0 0 1 182.26 87.98
  L 182.43 60.19
  A 0.57 0.57 86.6 0 1 182.93 59.62
  Z
  M 186.23 85.08
  C 198.97 87.00 199.23 63.01 186.27 63.00
  A 0.52 0.52 0.0 0 0 185.75 63.52
  L 185.75 84.50
  A 0.59 0.56 -86.1 0 0 186.23 85.08
  Z"
/>
<path fill="#ffffff" d="
  M 582.87 99.11
  C 575.95 91.60 587.11 78.17 595.13 87.87
  Q 596.82 89.93 597.15 91.66
  Q 597.65 94.31 596.39 96.69
  C 593.29 102.55 587.51 104.14 582.87 99.11
  Z
  M 588.7646 98.6097
  A 5.29 4.68 90.6 0 0 593.4997 93.3690
  A 5.29 4.68 90.6 0 0 588.8754 88.0303
  A 5.29 4.68 90.6 0 0 584.1403 93.2710
  A 5.29 4.68 90.6 0 0 588.7646 98.6097
  Z"
/>
<ellipse fill="#000000" cx="0.00" cy="0.00" transform="translate(588.82,93.32) rotate(90.6)" rx="5.29" ry="4.68"/>
</svg>
