<?xml version="1.0" encoding="UTF-8" standalone="no"?>
<!DOCTYPE svg PUBLIC "-//W3C//DTD SVG 1.1//EN" "http://www.w3.org/Graphics/SVG/1.1/DTD/svg11.dtd">
<svg xmlns="http://www.w3.org/2000/svg" version="1.1" viewBox="0 0 600 300">
<path fill="#000000" d="
  M 381.72 183.58
  Q 380.64 187.85 380.16 192.99
  A 1.95 1.94 -87.2 0 1 378.23 194.75
  Q 374.62 194.75 371.51 194.94
  C 368.18 195.14 368.50 192.93 368.50 190.29
  Q 368.50 154.89 368.50 119.50
  C 368.50 114.33 375.34 116.16 378.53 116.25
  Q 380.38 116.30 380.73 118.12
  C 384.85 140.03 398.67 176.25 426.00 176.00
  C 437.64 175.89 445.42 165.19 446.00 154.30
  C 446.76 139.92 436.40 127.87 423.35 122.83
  C 398.64 113.30 372.09 97.97 367.02 69.07
  Q 364.90 57.01 367.06 44.94
  C 371.43 20.51 384.27 4.08 410.11 0.99
  C 412.81 0.67 415.49 -0.17 418.69 0.58
  C 423.21 1.65 427.86 2.26 432.22 3.95
  Q 441.40 7.52 450.01 11.88
  A 1.42 1.41 -64.4 0 0 451.93 11.20
  C 454.94 4.64 453.03 -1.46 464.08 1.23
  A 2.18 2.17 6.8 0 1 465.75 3.34
  L 465.69 64.18
  A 0.94 0.94 -10.4 0 1 465.08 65.06
  C 461.49 66.42 455.12 67.79 453.81 62.44
  C 450.44 48.59 443.14 33.10 431.63 24.60
  C 420.52 16.41 399.66 19.71 396.88 34.34
  C 394.33 47.79 406.30 60.92 417.99 65.78
  C 438.03 74.11 457.60 84.82 469.28 103.91
  Q 481.01 123.09 477.25 147.50
  C 475.35 159.82 471.85 171.59 462.86 180.80
  C 453.32 190.58 439.64 194.70 426.00 194.64
  Q 406.38 194.57 391.69 182.31
  Q 388.90 179.98 385.74 179.34
  A 1.01 0.97 -59.2 0 0 384.88 179.58
  C 383.58 180.75 382.17 181.80 381.72 183.58
  Z"
/>
<path fill="#000000" d="
  M 198.33 213.69
  A 1.12 1.00 4.8 0 1 199.27 214.68
  L 199.42 224.16
  A 1.61 1.51 -0.5 0 1 197.82 225.69
  Q 161.11 225.80 123.54 225.75
  C 119.78 225.75 120.30 225.31 120.22 221.94
  Q 120.16 219.07 120.54 215.46
  Q 120.72 213.75 122.39 213.34
  C 131.55 211.11 138.43 210.15 138.44 198.68
  C 138.52 155.21 139.00 111.63 138.32 68.17
  Q 138.11 55.02 123.52 54.21
  Q 120.72 54.05 120.38 51.27
  C 120.13 49.25 119.86 45.16 120.90 43.52
  C 122.16 41.53 124.01 42.25 125.93 42.25
  Q 162.17 42.15 197.09 42.55
  Q 199.33 42.57 199.57 44.80
  Q 200.12 50.04 199.78 51.30
  Q 198.85 54.68 195.35 54.52
  C 189.76 54.26 185.86 57.02 182.64 61.30
  C 179.80 65.07 180.25 68.11 180.25 72.68
  Q 180.25 132.93 180.25 193.19
  Q 180.25 200.41 181.71 203.58
  C 184.60 209.90 191.76 212.64 198.33 213.69
  Z"
/>
<path fill="#000000" d="
  M 284.69 300.00
  L 280.69 300.00
  C 260.33 298.10 244.77 286.28 236.51 267.66
  Q 221.78 234.45 224.21 197.94
  C 226.43 164.65 242.31 105.42 287.50 111.74
  Q 298.15 113.23 306.50 119.80
  C 308.02 121.00 309.44 122.57 311.52 123.49
  Q 313.61 124.41 314.55 122.33
  Q 315.30 120.69 315.81 118.97
  C 316.64 116.15 315.28 111.97 320.13 112.07
  C 321.57 112.10 324.54 111.62 326.28 112.76
  A 0.99 0.93 -73.7 0 1 326.69 113.56
  L 326.57 177.31
  A 0.84 0.79 77.5 0 1 326.13 178.05
  C 323.44 179.45 316.60 179.93 316.12 175.80
  C 314.36 160.92 306.35 134.08 288.86 131.31
  C 260.93 126.89 258.00 181.32 257.36 197.73
  Q 256.60 217.16 259.50 238.00
  C 261.30 250.91 267.71 282.91 286.49 280.18
  Q 300.69 278.12 305.17 264.52
  Q 309.50 251.36 308.58 237.51
  C 308.09 230.11 309.38 219.94 298.76 219.35
  C 294.03 219.08 295.50 213.37 295.50 209.94
  Q 295.50 208.17 297.13 207.49
  C 299.51 206.49 302.10 206.75 304.73 206.75
  Q 324.12 206.74 343.50 206.57
  Q 345.35 206.56 348.02 207.54
  A 1.87 1.87 -80.0 0 1 349.25 209.30
  L 349.25 217.26
  A 1.22 1.09 70.4 0 1 348.90 218.11
  C 345.78 221.09 341.84 217.53 339.81 221.81
  Q 339.65 222.15 339.03 222.40
  A 1.31 0.83 -80.4 0 0 338.44 223.06
  L 336.84 226.66
  Q 336.56 227.28 336.56 227.57
  L 336.75 298.00
  A 1.75 1.74 -90.0 0 1 335.01 299.75
  L 325.75 299.75
  Q 323.65 299.75 323.24 297.69
  Q 321.62 289.52 318.93 281.55
  A 0.79 0.79 -31.6 0 0 317.63 281.24
  C 308.87 289.97 297.03 299.05 284.69 300.00
  Z"
/>
</svg>
