<?xml version="1.0" encoding="UTF-8" standalone="no"?>
<!DOCTYPE svg PUBLIC "-//W3C//DTD SVG 1.1//EN" "http://www.w3.org/Graphics/SVG/1.1/DTD/svg11.dtd">
<svg xmlns="http://www.w3.org/2000/svg" version="1.1" viewBox="0 0 600 300">
<g stroke-width="2.00" fill="none" stroke-linecap="butt">
<path stroke="#750001" stroke-opacity="0.996" vector-effect="non-scaling-stroke" d="
  M 136.65 92.50
  Q 135.65 96.47 134.75 100.36
  C 132.18 111.40 121.43 119.65 110.75 121.86
  C 101.98 123.67 96.83 117.05 92.75 110.04"
/>
<path stroke="#780001" stroke-opacity="0.996" vector-effect="non-scaling-stroke" d="
  M 113.96 89.00
  C 112.00 96.18 109.62 102.29 101.07 103.16
  C 89.47 104.34 97.95 83.79 83.89 83.86
  C 81.12 83.88 78.69 83.91 76.42 85.14
  Q 65.95 90.83 55.19 95.94
  Q 48.77 98.98 46.71 104.50"
/>
<path stroke="#dd0000" vector-effect="non-scaling-stroke" d="
  M 46.71 104.50
  L 36.29 105.00
  A 0.56 0.51 88.5 0 1 35.75 104.44
  C 35.75 98.96 34.46 106.08 33.71 103.75"
/>
<path stroke="#570001" stroke-opacity="0.996" vector-effect="non-scaling-stroke" d="
  M 45.54 124.00
  L 45.46 111.50"
/>
<path stroke="#680001" stroke-opacity="0.996" vector-effect="non-scaling-stroke" d="
  M 45.46 111.50
  L 46.71 104.50"
/>
<path stroke="#bd0000" vector-effect="non-scaling-stroke" d="
  M 45.46 111.50
  Q 45.00 124.74 45.24 138.00
  Q 45.29 140.62 45.13 138.99
  Q 44.82 135.87 44.41 139.08
  Q 44.38 139.32 44.35 139.57
  A 0.56 0.53 -87.0 0 1 43.82 140.07
  L 19.57 140.06
  A 0.35 0.34 -89.2 0 1 19.23 139.70
  L 19.46 125.75"
/>
<path stroke="#9b0000" vector-effect="non-scaling-stroke" d="
  M 45.21 187.00
  L 43.31 189.87
  A 1.21 0.88 7.2 0 1 42.51 190.31
  Q 30.48 191.87 18.44 190.62
  A 1.07 0.89 74.9 0 1 17.71 190.11
  Q 16.98 188.91 16.04 190.00"
/>
<path stroke="#460001" stroke-opacity="0.996" vector-effect="non-scaling-stroke" d="
  M 119.79 180.50
  C 120.65 190.41 119.94 199.51 108.99 201.90
  A 1.31 0.78 -69.4 0 0 108.30 202.45
  Q 108.02 202.87 107.53 202.76
  Q 106.77 202.59 106.56 202.62
  Q 102.51 203.12 99.75 205.70
  C 93.53 211.54 92.92 217.88 91.87 225.87
  Q 91.12 231.58 91.00 231.99
  C 89.09 238.56 81.21 239.46 75.25 239.25
  Q 53.36 238.48 36.75 237.00
  Q 34.76 236.82 32.50 234.54"
/>
<path stroke="#460001" stroke-opacity="0.996" vector-effect="non-scaling-stroke" d="
  M 29.46 214.25
  Q 28.41 210.56 25.69 209.56
  Q 19.98 207.48 17.50 205.54"
/>
<path stroke="#560103" stroke-opacity="0.996" vector-effect="non-scaling-stroke" d="
  M 16.96 204.50
  Q 17.62 202.32 15.54 201.50"
/>
<path stroke="#700001" stroke-opacity="0.996" vector-effect="non-scaling-stroke" d="
  M 157.75 107.46
  Q 157.28 109.07 157.54 110.75"
/>
<path stroke="#ab0000" vector-effect="non-scaling-stroke" d="
  M 156.71 113.25
  L 153.04 117.00"
/>
<path stroke="#ce7a00" vector-effect="non-scaling-stroke" d="
  M 153.04 117.00
  Q 147.68 121.61 146.21 128.50"
/>
<path stroke="#700001" stroke-opacity="0.996" vector-effect="non-scaling-stroke" d="
  M 146.21 128.50
  Q 139.54 132.18 137.31 132.56
  C 128.20 134.12 123.13 130.35 115.45 127.40"
/>
<path stroke="#7ea200" stroke-opacity="0.757" vector-effect="non-scaling-stroke" d="
  M 245.54 101.75
  L 245.54 105.75"
/>
<path stroke="#617a01" stroke-opacity="0.996" vector-effect="non-scaling-stroke" d="
  M 245.54 105.75
  Q 244.76 111.94 238.69 112.67
  C 235.65 113.03 232.75 113.75 229.74 113.75
  Q 216.17 113.75 202.60 113.75
  C 195.06 113.75 191.86 113.32 186.56 116.81
  C 181.78 119.97 167.46 129.93 166.29 134.75"
/>
<path stroke="#92d601" vector-effect="non-scaling-stroke" d="
  M 166.21 135.00
  Q 164.37 137.13 164.69 140.01
  Q 164.98 142.56 163.35 141.59
  A 1.90 1.27 50.3 0 0 162.44 141.32
  C 158.52 141.35 148.84 140.53 145.62 142.16
  Q 144.65 142.66 144.85 141.59
  Q 145.20 139.64 144.53 138.53"
/>
<path stroke="#617a01" stroke-opacity="0.996" vector-effect="non-scaling-stroke" d="
  M 146.04 130.75
  Q 146.74 129.71 146.21 128.50"
/>
<path stroke="#9c7a00" vector-effect="non-scaling-stroke" d="
  M 153.04 117.00
  L 157.50 113.79"
/>
<path stroke="#345c01" stroke-opacity="0.996" vector-effect="non-scaling-stroke" d="
  M 165.46 143.75
  Q 164.93 145.88 165.46 148.00"
/>
<path stroke="#4ca602" vector-effect="non-scaling-stroke" d="
  M 179.25 176.96
  Q 178.88 178.83 177.25 178.75
  Q 162.93 178.04 151.92 179.12"
/>
<path stroke="#795c01" vector-effect="non-scaling-stroke" d="
  M 151.92 179.12
  L 146.75 173.96"
/>
<path stroke="#4ca602" vector-effect="non-scaling-stroke" d="
  M 146.75 173.96
  Q 146.63 169.11 144.91 164.54"
/>
<path stroke="#010001" stroke-opacity="0.753" vector-effect="non-scaling-stroke" d="
  M 245.96 106.25
  L 245.54 105.75"
/>
<path stroke="#604b01" vector-effect="non-scaling-stroke" d="
  M 151.92 179.12
  Q 152.98 181.16 154.04 182.00"
/>
<path stroke="#480001" stroke-opacity="0.996" vector-effect="non-scaling-stroke" d="
  M 154.04 182.00
  C 152.82 184.86 162.13 191.55 164.35 193.14
  Q 165.76 194.15 165.23 195.82
  L 163.56 200.99"
/>
<path stroke="#480001" stroke-opacity="0.996" vector-effect="non-scaling-stroke" d="
  M 163.56 200.99
  Q 160.89 210.33 153.72 216.73
  Q 145.48 224.08 134.27 221.16"
/>
<path stroke="#604b01" vector-effect="non-scaling-stroke" d="
  M 146.75 173.96
  L 146.54 174.00"
/>
<path stroke="#1a4b02" stroke-opacity="0.996" vector-effect="non-scaling-stroke" d="
  M 245.71 197.25
  Q 244.38 201.83 239.31 203.06
  C 226.56 206.16 212.12 205.32 199.18 204.78
  C 187.03 204.27 181.32 204.39 172.75 198.00
  Q 161.11 189.33 154.04 182.00"
/>
<path stroke="#020002" stroke-opacity="0.992" vector-effect="non-scaling-stroke" d="
  M 164.21 201.25
  L 163.56 200.99"
/>
<path stroke="#6b0001" stroke-opacity="0.996" vector-effect="non-scaling-stroke" d="
  M 88.91 100.82
  L 65.32 110.72
  A 2.48 2.44 -12.5 0 0 63.81 113.05
  L 64.29 128.75"
/>
<path stroke="#ba0000" vector-effect="non-scaling-stroke" d="
  M 64.46 140.50
  Q 64.24 146.22 64.08 151.94
  Q 64.05 153.01 64.09 151.94
  Q 64.20 148.75 63.36 150.96
  A 1.23 1.07 -87.8 0 1 62.73 151.63
  C 59.25 152.99 56.30 151.58 52.98 152.15
  A 0.56 0.55 -13.4 0 1 52.35 151.77
  L 50.96 146.99"
/>
<path stroke="#620103" stroke-opacity="0.996" vector-effect="non-scaling-stroke" d="
  M 90.34 197.83
  C 86.98 201.25 83.95 203.36 78.87 203.73
  Q 67.97 204.53 57.05 205.10
  C 51.49 205.39 51.78 201.51 50.54 197.50"
/>
<path stroke="#a4e101" vector-effect="non-scaling-stroke" d="
  M 354.00 121.54
  Q 354.49 123.17 353.00 122.97
  Q 343.28 121.69 333.50 122.29"
/>
<path stroke="#637c01" stroke-opacity="0.996" vector-effect="non-scaling-stroke" d="
  M 333.50 122.29
  Q 331.22 115.65 324.84 114.62
  C 314.15 112.91 302.54 113.75 291.71 113.75
  C 288.05 113.75 281.21 112.97 278.66 110.52
  Q 275.89 107.85 276.33 103.21"
/>
<path stroke="#436601" stroke-opacity="0.996" vector-effect="non-scaling-stroke" d="
  M 333.50 122.29
  Q 334.65 127.86 334.22 135.14"
/>
<path stroke="#6dbd01" vector-effect="non-scaling-stroke" d="
  M 355.96 162.00
  L 355.71 162.71
  Q 355.59 163.06 355.60 162.69
  Q 355.64 160.52 353.50 160.75
  C 347.00 161.46 340.75 160.78 334.19 161.65"
/>
<path stroke="#436601" stroke-opacity="0.996" vector-effect="non-scaling-stroke" d="
  M 334.19 161.65
  C 332.68 157.73 329.97 156.08 325.84 155.37
  C 318.03 154.03 307.72 154.68 294.87 154.93
  C 289.86 155.03 278.73 155.08 276.96 161.25"
/>
<path stroke="#5eb202" vector-effect="non-scaling-stroke" d="
  M 276.96 161.25
  Q 275.85 162.45 275.05 161.64
  A 1.31 0.99 62.4 0 0 274.25 161.26
  L 259.19 160.84
  Q 258.83 160.83 258.22 161.00
  Q 256.88 161.37 256.45 159.16"
/>
<path stroke="#48a402" vector-effect="non-scaling-stroke" d="
  M 331.19 175.77
  Q 339.68 177.73 348.44 176.86
  Q 351.59 176.54 354.69 177.09
  A 0.63 0.60 15.4 0 0 355.38 176.72
  Q 356.34 174.23 356.29 171.50"
/>
<path stroke="#1d4d02" stroke-opacity="0.996" vector-effect="non-scaling-stroke" d="
  M 356.99 193.97
  C 354.81 199.86 353.93 203.42 347.00 204.67
  A 1.68 1.58 50.5 0 1 346.04 204.55
  C 341.89 202.76 336.72 201.35 336.50 195.87
  A 0.54 0.53 -15.8 0 0 335.70 195.43
  C 331.85 197.60 328.22 199.31 323.92 201.53
  C 313.60 206.87 293.03 205.68 280.27 203.55
  C 275.88 202.81 266.68 199.08 264.06 195.44
  Q 260.17 190.02 257.76 187.27"
/>
<path stroke="#2d5701" stroke-opacity="0.996" vector-effect="non-scaling-stroke" d="
  M 334.19 161.65
  Q 335.27 165.09 334.54 168.25"
/>
<path stroke="#1d4d02" stroke-opacity="0.996" vector-effect="non-scaling-stroke" d="
  M 277.04 162.00
  L 276.96 161.25"
/>
<path stroke="#93d601" vector-effect="non-scaling-stroke" d="
  M 394.31 134.41
  L 373.25 136.16"
/>
<path stroke="#5b7601" stroke-opacity="0.996" vector-effect="non-scaling-stroke" d="
  M 373.25 136.16
  C 370.13 130.19 367.12 124.86 367.04 118.50"
/>
<path stroke="#5b7601" stroke-opacity="0.996" vector-effect="non-scaling-stroke" d="
  M 366.96 117.75
  L 366.96 106.00"
/>
<path stroke="#55ad02" vector-effect="non-scaling-stroke" d="
  M 411.29 171.25
  C 410.64 172.67 409.95 173.24 408.29 173.28
  Q 399.68 173.49 390.92 172.91"
/>
<path stroke="#3a6001" stroke-opacity="0.996" vector-effect="non-scaling-stroke" d="
  M 373.25 136.16
  L 390.92 172.91"
/>
<path stroke="#1d4d02" stroke-opacity="0.996" vector-effect="non-scaling-stroke" d="
  M 390.92 172.91
  Q 396.54 184.89 402.59 196.86
  C 404.22 200.11 408.29 204.27 412.49 204.99
  C 414.38 205.31 418.69 204.92 421.48 204.79
  C 426.23 204.58 430.16 200.30 432.46 196.50"
/>
<path stroke="#010001" stroke-opacity="0.753" vector-effect="non-scaling-stroke" d="
  M 432.46 196.50
  Q 432.84 196.92 432.75 197.46"
/>
<path stroke="#256501" stroke-opacity="0.757" vector-effect="non-scaling-stroke" d="
  M 434.46 193.00
  L 432.46 196.50"
/>
<path stroke="#1d4d02" stroke-opacity="0.996" vector-effect="non-scaling-stroke" d="
  M 441.54 178.75
  L 441.50 178.29"
/>
<path stroke="#375e01" stroke-opacity="0.996" vector-effect="non-scaling-stroke" d="
  M 452.25 155.96
  L 448.50 164.00"
/>
<path stroke="#375e01" stroke-opacity="0.996" vector-effect="non-scaling-stroke" d="
  M 448.50 164.00
  L 441.50 178.29"
/>
<path stroke="#52aa02" vector-effect="non-scaling-stroke" d="
  M 441.50 178.29
  Q 440.43 179.00 439.43 178.52
  Q 438.83 178.23 438.51 178.22
  L 419.48 178.06"
/>
<path stroke="#5b7601" stroke-opacity="0.996" vector-effect="non-scaling-stroke" d="
  M 467.71 120.00
  Q 466.73 125.67 464.04 130.75"
/>
<path stroke="#5b7601" stroke-opacity="0.996" vector-effect="non-scaling-stroke" d="
  M 464.04 130.75
  L 459.75 139.29"
/>
<path stroke="#90d401" vector-effect="non-scaling-stroke" d="
  M 459.75 139.29
  Q 445.70 138.25 441.75 138.75
  Q 438.53 139.16 438.50 136.71"
/>
<path stroke="#020002" stroke-opacity="0.992" vector-effect="non-scaling-stroke" d="
  M 452.46 156.00
  L 452.25 155.96"
/>
<path stroke="#375e01" stroke-opacity="0.996" vector-effect="non-scaling-stroke" d="
  M 452.25 155.96
  L 459.75 139.29"
/>
<path stroke="#020002" stroke-opacity="0.992" vector-effect="non-scaling-stroke" d="
  M 464.29 131.25
  Q 464.31 130.84 464.04 130.75"
/>
<path stroke="#96d801" vector-effect="non-scaling-stroke" d="
  M 578.54 140.00
  L 578.34 143.76
  A 0.50 0.44 7.2 0 1 577.76 144.16
  C 572.46 143.23 567.78 143.97 562.55 143.77
  Q 560.15 143.68 557.77 143.90"
/>
<path stroke="#5e7801" stroke-opacity="0.996" vector-effect="non-scaling-stroke" d="
  M 558.12 129.29
  Q 554.79 120.98 547.32 116.64
  C 539.78 112.24 527.29 113.75 518.81 113.75
  C 511.17 113.75 504.43 118.81 500.04 124.75"
/>
<path stroke="#96d801" vector-effect="non-scaling-stroke" d="
  M 499.96 125.00
  C 498.75 127.96 498.97 133.83 493.56 133.74
  Q 486.28 133.61 478.65 134.02
  A 0.71 0.71 2.4 0 1 477.91 133.22
  Q 478.34 129.92 477.54 127.50"
/>
<path stroke="#3a6001" stroke-opacity="0.996" vector-effect="non-scaling-stroke" d="
  M 576.71 159.00
  C 575.43 162.59 573.02 163.49 569.20 163.52
  Q 534.13 163.85 499.06 163.81
  A 0.52 0.45 -2.9 0 0 498.54 164.31
  L 498.79 166.25"
/>
<path stroke="#52ab02" vector-effect="non-scaling-stroke" d="
  M 503.35 178.41
  Q 490.96 179.87 478.69 178.40"
/>
<path stroke="#1a4b02" stroke-opacity="0.996" vector-effect="non-scaling-stroke" d="
  M 577.72 199.58
  C 574.42 204.33 563.43 205.00 558.25 205.00
  Q 541.75 205.00 525.25 205.20
  C 517.36 205.30 505.45 205.55 498.94 200.56
  Q 486.96 191.38 479.26 181.70"
/>
<path stroke="#6b0001" stroke-opacity="0.996" vector-effect="non-scaling-stroke" d="
  M 91.24 119.01
  Q 84.16 117.81 77.69 114.71
  Q 77.38 114.56 76.76 114.50
  Q 75.81 114.40 75.46 113.50"
/>
<path stroke="#6c0103" stroke-opacity="0.996" vector-effect="non-scaling-stroke" d="
  M 88.54 170.25
  Q 88.83 178.01 88.26 185.73
  Q 88.16 187.05 88.65 188.22
  A 1.09 1.08 -13.0 0 1 87.71 189.72
  Q 78.60 190.27 70.04 192.27"
/>
<path stroke="#510001" stroke-opacity="0.996" vector-effect="non-scaling-stroke" d="
  M 144.79 180.50
  Q 145.77 186.34 144.29 192.45"
/>
<path stroke="#900000" vector-effect="non-scaling-stroke" d="
  M 144.29 192.45
  Q 137.95 193.04 131.75 193.25
  Q 128.73 193.35 127.30 191.66
  A 0.41 0.41 47.7 0 0 126.69 191.63
  C 125.83 192.52 126.12 186.16 126.04 185.75"
/>
<path stroke="#510001" stroke-opacity="0.996" vector-effect="non-scaling-stroke" d="
  M 125.46 181.25
  C 124.87 168.66 113.11 163.26 102.18 168.62"
/>
<path stroke="#410001" stroke-opacity="0.996" vector-effect="non-scaling-stroke" d="
  M 41.50 247.79
  Q 43.43 248.43 44.59 249.69
  Q 46.25 251.51 48.71 251.71
  Q 70.11 253.41 90.95 256.04
  C 106.84 258.05 114.14 239.17 115.77 226.77
  C 116.26 223.06 116.77 221.07 120.82 220.99
  Q 122.76 220.96 124.52 220.14
  C 135.68 214.96 141.96 203.70 144.29 192.45"
/>
<path stroke="#3e0001" stroke-opacity="0.996" vector-effect="non-scaling-stroke" d="
  M 139.21 232.00
  C 137.16 238.66 132.38 248.79 125.25 251.25
  Q 118.32 253.64 111.68 253.61"
/>
</g>
<path fill="#e70000" d="
  M 136.65 92.50
  Q 135.65 96.47 134.75 100.36
  C 132.18 111.40 121.43 119.65 110.75 121.86
  C 101.98 123.67 96.83 117.05 92.75 110.04
  L 91.75 107.37
  Q 91.21 105.90 92.61 106.79
  Q 100.11 111.55 107.03 107.55
  C 109.63 106.04 112.43 104.71 114.24 102.32
  C 118.38 96.88 120.00 91.64 119.36 84.48
  Q 117.96 68.74 117.75 62.00
  C 117.54 55.16 117.26 51.91 114.02 47.61
  A 1.04 1.02 59.1 0 1 114.40 46.05
  L 119.71 43.62
  Q 121.24 42.92 122.84 43.71
  C 132.46 48.43 134.23 54.60 134.82 65.42
  Q 135.55 78.96 136.65 92.50
  Z"
/>
<path fill="#ed0000" d="
  M 113.96 89.00
  C 112.00 96.18 109.62 102.29 101.07 103.16
  C 89.47 104.34 97.95 83.79 83.89 83.86
  C 81.12 83.88 78.69 83.91 76.42 85.14
  Q 65.95 90.83 55.19 95.94
  Q 48.77 98.98 46.71 104.50
  L 36.29 105.00
  A 0.56 0.51 88.5 0 1 35.75 104.44
  C 35.75 98.96 34.46 106.08 33.71 103.75
  C 35.03 94.38 35.23 89.64 43.53 84.98
  Q 72.44 68.73 101.63 53.01
  C 108.15 49.49 111.38 49.74 112.06 57.83
  Q 113.38 73.39 113.96 89.00
  Z"
/>
<path fill="#dd0000" d="
  M 157.75 107.46
  Q 157.28 109.07 157.54 110.75
  L 156.71 113.25
  L 153.04 117.00
  Q 147.68 121.61 146.21 128.50
  Q 139.54 132.18 137.31 132.56
  C 128.20 134.12 123.13 130.35 115.45 127.40
  Q 124.55 123.82 129.31 119.31
  C 131.91 116.86 136.53 111.67 138.35 107.61
  C 143.03 97.22 141.91 90.31 140.92 76.25
  Q 140.30 67.56 139.82 58.89
  Q 139.73 57.44 140.80 58.43
  Q 145.76 62.99 150.64 67.61
  C 155.98 72.67 156.04 77.31 156.56 85.49
  Q 157.26 96.47 157.75 107.46
  Z"
/>
<path fill="#020002" fill-opacity="0.992" d="
  M 113.96 89.00
  C 114.10 96.29 108.89 103.99 101.09 104.46
  C 92.06 105.01 94.11 93.74 91.28 88.94
  C 88.94 84.98 81.47 84.02 77.61 85.94
  Q 67.72 90.86 57.87 95.87
  C 51.60 99.07 48.87 99.69 47.06 105.81
  C 45.18 112.20 45.97 117.74 45.54 124.00
  L 45.46 111.50
  L 46.71 104.50
  Q 48.77 98.98 55.19 95.94
  Q 65.95 90.83 76.42 85.14
  C 78.69 83.91 81.12 83.88 83.89 83.86
  C 97.95 83.79 89.47 104.34 101.07 103.16
  C 109.62 102.29 112.00 96.18 113.96 89.00
  Z"
/>
<path fill="#d30000" d="
  M 88.91 100.82
  L 65.32 110.72
  A 2.48 2.44 -12.5 0 0 63.81 113.05
  L 64.29 128.75
  L 64.46 140.50
  Q 64.24 146.22 64.08 151.94
  Q 64.05 153.01 64.09 151.94
  Q 64.20 148.75 63.36 150.96
  A 1.23 1.07 -87.8 0 1 62.73 151.63
  C 59.25 152.99 56.30 151.58 52.98 152.15
  A 0.56 0.55 -13.4 0 1 52.35 151.77
  L 50.96 146.99
  Q 51.15 129.01 51.32 111.00
  C 51.38 105.76 53.64 103.79 58.30 101.43
  Q 68.79 96.12 79.25 90.75
  Q 81.91 89.38 85.71 90.64
  A 1.05 0.85 5.2 0 1 86.37 91.28
  L 88.91 100.82
  Z"
/>
<path fill="#020002" fill-opacity="0.992" d="
  M 136.65 92.50
  Q 136.07 101.43 133.31 106.31
  C 125.15 120.77 101.04 134.31 92.75 110.04
  C 96.83 117.05 101.98 123.67 110.75 121.86
  C 121.43 119.65 132.18 111.40 134.75 100.36
  Q 135.65 96.47 136.65 92.50
  Z"
/>
<path fill="#bff400" d="
  M 245.54 101.75
  L 245.54 105.75
  Q 244.76 111.94 238.69 112.67
  C 235.65 113.03 232.75 113.75 229.74 113.75
  Q 216.17 113.75 202.60 113.75
  C 195.06 113.75 191.86 113.32 186.56 116.81
  C 181.78 119.97 167.46 129.93 166.29 134.75
  L 166.21 135.00
  Q 164.37 137.13 164.69 140.01
  Q 164.98 142.56 163.35 141.59
  A 1.90 1.27 50.3 0 0 162.44 141.32
  C 158.52 141.35 148.84 140.53 145.62 142.16
  Q 144.65 142.66 144.85 141.59
  Q 145.20 139.64 144.53 138.53
  L 146.04 130.75
  Q 146.74 129.71 146.21 128.50
  Q 147.68 121.61 153.04 117.00
  L 157.50 113.79
  C 166.52 105.52 176.85 95.33 188.25 94.96
  L 193.25 94.46
  Q 200.96 94.25 226.50 94.25
  C 232.66 94.25 243.89 94.76 245.54 101.75
  Z"
/>
<path fill="#c4f700" d="
  M 323.50 94.46
  L 327.00 94.71
  C 339.74 95.50 345.54 102.57 351.84 112.48
  C 353.69 115.39 352.93 118.42 354.00 121.54
  Q 354.49 123.17 353.00 122.97
  Q 343.28 121.69 333.50 122.29
  Q 331.22 115.65 324.84 114.62
  C 314.15 112.91 302.54 113.75 291.71 113.75
  C 288.05 113.75 281.21 112.97 278.66 110.52
  Q 275.89 107.85 276.33 103.21
  C 276.17 92.98 295.23 94.23 302.25 94.21
  Q 312.88 94.18 323.50 94.46
  Z"
/>
<path fill="#b4ec00" d="
  M 394.31 134.41
  L 373.25 136.16
  C 370.13 130.19 367.12 124.86 367.04 118.50
  L 366.96 117.75
  L 366.96 106.00
  Q 367.79 102.50 368.89 99.08
  C 370.60 93.74 376.69 93.35 381.31 94.94
  C 385.51 96.38 385.44 98.65 386.37 103.06
  Q 387.93 110.49 387.47 118.47
  Q 387.44 119.09 387.72 119.73
  L 394.31 134.41
  Z"
/>
<path fill="#b4ec00" d="
  M 467.71 120.00
  Q 466.73 125.67 464.04 130.75
  L 459.75 139.29
  Q 445.70 138.25 441.75 138.75
  Q 438.53 139.16 438.50 136.71
  Q 441.90 129.07 445.39 121.47
  C 448.69 114.28 443.18 100.95 451.42 95.84
  C 454.87 93.71 461.35 93.22 464.38 96.52
  C 468.25 100.72 468.21 114.63 467.71 120.00
  Z"
/>
<path fill="#b9f000" d="
  M 578.54 140.00
  L 578.34 143.76
  A 0.50 0.44 7.2 0 1 577.76 144.16
  C 572.46 143.23 567.78 143.97 562.55 143.77
  Q 560.15 143.68 557.77 143.90
  L 558.12 129.29
  Q 554.79 120.98 547.32 116.64
  C 539.78 112.24 527.29 113.75 518.81 113.75
  C 511.17 113.75 504.43 118.81 500.04 124.75
  L 499.96 125.00
  C 498.75 127.96 498.97 133.83 493.56 133.74
  Q 486.28 133.61 478.65 134.02
  A 0.71 0.71 2.4 0 1 477.91 133.22
  Q 478.34 129.92 477.54 127.50
  C 477.83 120.38 479.94 115.64 485.43 110.69
  C 492.50 104.32 500.50 96.14 510.75 94.71
  Q 512.17 94.94 513.50 94.46
  Q 531.16 93.58 548.55 95.23
  Q 550.53 95.42 552.17 96.55
  Q 561.82 103.22 570.91 110.59
  C 576.24 114.91 576.46 119.03 577.49 126.48
  Q 578.41 133.20 578.54 140.00
  Z"
/>
<path fill="#020002" fill-opacity="0.992" d="
  M 88.91 100.82
  Q 89.49 101.91 87.68 102.65
  Q 76.30 107.33 65.63 112.06
  A 2.35 2.35 76.0 0 0 64.24 114.38
  Q 64.80 122.10 64.29 128.75
  L 63.81 113.05
  A 2.48 2.44 -12.5 0 1 65.32 110.72
  L 88.91 100.82
  Z"
/>
<path fill="#000100" fill-opacity="0.514" d="
  M 245.54 101.75
  Q 246.30 103.93 245.96 106.25
  L 245.54 105.75
  L 245.54 101.75
  Z"
/>
<path fill="#cd0000" d="
  M 46.71 104.50
  L 45.46 111.50
  Q 45.00 124.74 45.24 138.00
  Q 45.29 140.62 45.13 138.99
  Q 44.82 135.87 44.41 139.08
  Q 44.38 139.32 44.35 139.57
  A 0.56 0.53 -87.0 0 1 43.82 140.07
  L 19.57 140.06
  A 0.35 0.34 -89.2 0 1 19.23 139.70
  L 19.46 125.75
  Q 19.51 118.93 25.56 115.31
  Q 31.82 111.58 33.71 103.75
  C 34.46 106.08 35.75 98.96 35.75 104.44
  A 0.56 0.51 88.5 0 0 36.29 105.00
  L 46.71 104.50
  Z"
/>
<path fill="#020002" fill-opacity="0.992" d="
  M 276.33 103.21
  Q 275.89 107.85 278.66 110.52
  C 281.21 112.97 288.05 113.75 291.71 113.75
  C 302.54 113.75 314.15 112.91 324.84 114.62
  Q 331.22 115.65 333.50 122.29
  Q 334.65 127.86 334.22 135.14
  C 333.94 119.80 331.73 115.49 315.71 114.84
  C 304.57 114.39 292.72 116.42 282.49 113.58
  C 277.13 112.09 275.01 108.65 276.33 103.21
  Z"
/>
<path fill="#020002" fill-opacity="0.992" d="
  M 245.54 105.75
  L 245.96 106.25
  C 244.93 113.58 237.25 114.93 230.99 114.87
  C 225.56 114.82 220.80 114.94 215.72 114.98
  C 210.07 115.03 202.19 115.52 195.25 114.75
  Q 192.93 114.49 188.62 116.92
  Q 175.99 124.00 166.29 134.75
  C 167.46 129.93 181.78 119.97 186.56 116.81
  C 191.86 113.32 195.06 113.75 202.60 113.75
  Q 216.17 113.75 229.74 113.75
  C 232.75 113.75 235.65 113.03 238.69 112.67
  Q 244.76 111.94 245.54 105.75
  Z"
/>
<path fill="#020002" fill-opacity="0.992" d="
  M 366.96 106.00
  L 366.96 117.75
  Q 365.85 111.87 366.96 106.00
  Z"
/>
<path fill="#020002" fill-opacity="0.992" d="
  M 157.75 107.46
  Q 158.50 109.18 157.54 110.75
  Q 157.28 109.07 157.75 107.46
  Z"
/>
<path fill="#d30000" d="
  M 91.24 119.01
  Q 84.16 117.81 77.69 114.71
  Q 77.38 114.56 76.76 114.50
  Q 75.81 114.40 75.46 113.50
  L 85.67 108.84
  A 0.61 0.60 64.9 0 1 86.47 109.14
  L 91.24 119.01
  Z"
/>
<path fill="#ac0000" d="
  M 45.46 111.50
  L 45.54 124.00
  L 45.21 187.00
  L 43.31 189.87
  A 1.21 0.88 7.2 0 1 42.51 190.31
  Q 30.48 191.87 18.44 190.62
  A 1.07 0.89 74.9 0 1 17.71 190.11
  Q 16.98 188.91 16.04 190.00
  L 19.46 125.75
  L 19.23 139.70
  A 0.35 0.34 -89.2 0 0 19.57 140.06
  L 43.82 140.07
  A 0.56 0.53 -87.0 0 0 44.35 139.57
  Q 44.38 139.32 44.41 139.08
  Q 44.82 135.87 45.13 138.99
  Q 45.29 140.62 45.24 138.00
  Q 45.00 124.74 45.46 111.50
  Z"
/>
<path fill="#790000" d="
  M 156.71 113.25
  Q 156.69 113.91 157.50 113.79
  L 153.04 117.00
  L 156.71 113.25
  Z"
/>
<path fill="#020002" fill-opacity="0.992" d="
  M 75.46 113.50
  Q 75.81 114.40 76.76 114.50
  Q 77.38 114.56 77.69 114.71
  Q 84.16 117.81 91.24 119.01
  Q 92.20 120.34 90.26 120.48
  C 87.86 120.67 78.77 116.24 76.03 115.13
  A 1.15 0.82 9.5 0 1 75.38 114.48
  Q 75.25 113.98 75.46 113.50
  Z"
/>
<path fill="#020002" fill-opacity="0.992" d="
  M 558.12 129.29
  Q 556.19 125.78 552.31 121.94
  C 542.77 112.49 530.57 115.04 518.60 114.86
  C 511.26 114.76 505.52 119.58 500.04 124.75
  C 504.43 118.81 511.17 113.75 518.81 113.75
  C 527.29 113.75 539.78 112.24 547.32 116.64
  Q 554.79 120.98 558.12 129.29
  Z"
/>
<path fill="#b40000" d="
  M 88.54 170.25
  Q 88.83 178.01 88.26 185.73
  Q 88.16 187.05 88.65 188.22
  A 1.09 1.08 -13.0 0 1 87.71 189.72
  Q 78.60 190.27 70.04 192.27
  L 69.75 118.96
  A 0.68 0.68 -78.6 0 1 70.69 118.33
  L 86.24 124.86
  A 1.25 1.23 -80.2 0 1 87.01 125.97
  L 88.54 170.25
  Z"
/>
<path fill="#020002" fill-opacity="0.992" d="
  M 367.04 118.50
  C 367.12 124.86 370.13 130.19 373.25 136.16
  L 390.92 172.91
  Q 396.54 184.89 402.59 196.86
  C 404.22 200.11 408.29 204.27 412.49 204.99
  C 414.38 205.31 418.69 204.92 421.48 204.79
  C 426.23 204.58 430.16 200.30 432.46 196.50
  Q 432.84 196.92 432.75 197.46
  C 430.43 200.69 425.95 205.93 421.67 206.11
  C 417.77 206.28 412.48 206.98 409.01 204.81
  Q 405.10 202.36 404.06 200.69
  C 397.91 190.79 390.35 173.24 385.12 162.51
  Q 371.87 135.33 368.06 127.19
  Q 366.31 123.44 367.04 118.50
  Z"
/>
<path fill="#020002" fill-opacity="0.992" d="
  M 467.71 120.00
  Q 467.71 126.12 464.29 131.25
  Q 464.31 130.84 464.04 130.75
  Q 466.73 125.67 467.71 120.00
  Z"
/>
<path fill="#83cb01" d="
  M 354.00 121.54
  Q 355.29 128.82 354.75 134.75
  Q 354.66 135.75 354.96 136.34
  Q 355.25 136.93 355.24 137.26
  Q 355.06 149.94 355.50 152.50
  Q 356.31 157.22 355.96 162.00
  L 355.71 162.71
  Q 355.59 163.06 355.60 162.69
  Q 355.64 160.52 353.50 160.75
  C 347.00 161.46 340.75 160.78 334.19 161.65
  C 332.68 157.73 329.97 156.08 325.84 155.37
  C 318.03 154.03 307.72 154.68 294.87 154.93
  C 289.86 155.03 278.73 155.08 276.96 161.25
  Q 275.85 162.45 275.05 161.64
  A 1.31 0.99 62.4 0 0 274.25 161.26
  L 259.19 160.84
  Q 258.83 160.83 258.22 161.00
  Q 256.88 161.37 256.45 159.16
  Q 258.71 149.95 266.56 143.06
  Q 272.28 138.05 278.81 136.81
  Q 286.42 135.37 302.50 135.79
  Q 318.44 136.21 334.22 135.14
  Q 334.65 127.86 333.50 122.29
  Q 343.28 121.69 353.00 122.97
  Q 354.49 123.17 354.00 121.54
  Z"
/>
<path fill="#72c001" d="
  M 499.96 125.00
  Q 498.26 133.66 498.79 143.29
  A 0.75 0.75 88.4 0 0 499.54 144.00
  L 557.77 143.90
  Q 560.15 143.68 562.55 143.77
  C 567.78 143.97 572.46 143.23 577.76 144.16
  A 0.50 0.44 7.2 0 0 578.34 143.76
  L 578.54 140.00
  Q 579.24 149.67 576.71 159.00
  C 575.43 162.59 573.02 163.49 569.20 163.52
  Q 534.13 163.85 499.06 163.81
  A 0.52 0.45 -2.9 0 0 498.54 164.31
  L 498.79 166.25
  Q 498.35 173.12 503.35 178.41
  Q 490.96 179.87 478.69 178.40
  L 477.97 172.25
  A 1.54 1.26 -74.6 0 0 477.61 171.44
  L 477.42 171.23
  A 0.74 0.49 -71.9 0 1 477.28 170.71
  Q 477.65 167.37 477.53 164.00
  Q 476.90 145.75 477.54 127.50
  Q 478.34 129.92 477.91 133.22
  A 0.71 0.71 2.4 0 0 478.65 134.02
  Q 486.28 133.61 493.56 133.74
  C 498.97 133.83 498.75 127.96 499.96 125.00
  Z"
/>
<path fill="#020002" fill-opacity="0.992" d="
  M 115.45 127.40
  C 123.13 130.35 128.20 134.12 137.31 132.56
  Q 139.54 132.18 146.21 128.50
  Q 146.74 129.71 146.04 130.75
  Q 146.03 129.45 144.83 130.34
  Q 137.04 136.08 127.06 133.44
  Q 120.40 131.68 115.45 127.40
  Z"
/>
<path fill="#020002" fill-opacity="0.992" d="
  M 464.04 130.75
  Q 464.31 130.84 464.29 131.25
  Q 458.88 143.86 452.46 156.00
  L 452.25 155.96
  L 459.75 139.29
  L 464.04 130.75
  Z"
/>
<path fill="#72c001" d="
  M 394.31 134.41
  L 411.29 171.25
  C 410.64 172.67 409.95 173.24 408.29 173.28
  Q 399.68 173.49 390.92 172.91
  L 373.25 136.16
  L 394.31 134.41
  Z"
/>
<path fill="#65b701" d="
  M 166.21 135.00
  Q 164.79 139.24 165.46 143.75
  Q 164.93 145.88 165.46 148.00
  C 165.53 153.21 164.85 159.35 166.33 164.34
  C 167.41 168.03 176.12 174.20 179.25 176.96
  Q 178.88 178.83 177.25 178.75
  Q 162.93 178.04 151.92 179.12
  L 146.75 173.96
  Q 146.63 169.11 144.91 164.54
  Q 143.61 151.57 144.53 138.53
  Q 145.20 139.64 144.85 141.59
  Q 144.65 142.66 145.62 142.16
  C 148.84 140.53 158.52 141.35 162.44 141.32
  A 1.90 1.27 50.3 0 1 163.35 141.59
  Q 164.98 142.56 164.69 140.01
  Q 164.37 137.13 166.21 135.00
  Z"
/>
<path fill="#6bbb01" d="
  M 438.50 136.71
  Q 438.53 139.16 441.75 138.75
  Q 445.70 138.25 459.75 139.29
  L 452.25 155.96
  L 448.50 164.00
  L 441.50 178.29
  Q 440.43 179.00 439.43 178.52
  Q 438.83 178.23 438.51 178.22
  L 419.48 178.06
  L 438.50 136.71
  Z"
/>
<path fill="#a00000" d="
  M 64.46 140.50
  Q 64.53 166.95 64.50 193.39
  C 64.50 198.23 65.90 198.35 70.14 197.99
  Q 83.68 196.84 89.06 196.06
  Q 90.66 195.83 90.34 197.83
  C 86.98 201.25 83.95 203.36 78.87 203.73
  Q 67.97 204.53 57.05 205.10
  C 51.49 205.39 51.78 201.51 50.54 197.50
  L 50.96 146.99
  L 52.35 151.77
  A 0.56 0.55 -13.4 0 0 52.98 152.15
  C 56.30 151.58 59.25 152.99 62.73 151.63
  A 1.23 1.07 -87.8 0 0 63.36 150.96
  Q 64.20 148.75 64.09 151.94
  Q 64.05 153.01 64.08 151.94
  Q 64.24 146.22 64.46 140.50
  Z"
/>
<path fill="#020002" fill-opacity="0.992" d="
  M 165.46 143.75
  Q 166.13 145.86 165.46 148.00
  Q 164.93 145.88 165.46 143.75
  Z"
/>
<path fill="#020002" fill-opacity="0.992" d="
  M 334.19 161.65
  Q 335.27 165.09 334.54 168.25
  C 335.21 155.40 323.64 155.64 314.75 155.99
  C 303.99 156.41 293.61 155.42 282.75 157.75
  Q 278.53 158.66 277.04 162.00
  L 276.96 161.25
  C 278.73 155.08 289.86 155.03 294.87 154.93
  C 307.72 154.68 318.03 154.03 325.84 155.37
  C 329.97 156.08 332.68 157.73 334.19 161.65
  Z"
/>
<path fill="#020002" fill-opacity="0.992" d="
  M 452.25 155.96
  L 452.46 156.00
  Q 451.19 160.36 448.50 164.00
  L 452.25 155.96
  Z"
/>
<path fill="#020002" fill-opacity="0.992" d="
  M 576.71 159.00
  Q 575.92 164.75 570.25 164.75
  Q 518.81 164.73 499.75 164.99
  A 0.78 0.68 7.1 0 0 499.04 165.47
  L 498.79 166.25
  L 498.54 164.31
  A 0.52 0.45 -2.9 0 1 499.06 163.81
  Q 534.13 163.85 569.20 163.52
  C 573.02 163.49 575.43 162.59 576.71 159.00
  Z"
/>
<path fill="#389902" d="
  M 256.45 159.16
  Q 256.88 161.37 258.22 161.00
  Q 258.83 160.83 259.19 160.84
  L 274.25 161.26
  A 1.31 0.99 62.4 0 1 275.05 161.64
  Q 275.85 162.45 276.96 161.25
  L 277.04 162.00
  C 276.98 167.89 274.93 181.00 281.14 183.40
  C 288.93 186.41 300.01 184.82 309.56 185.12
  Q 311.69 185.18 313.59 184.24
  Q 322.47 179.82 331.19 175.77
  Q 339.68 177.73 348.44 176.86
  Q 351.59 176.54 354.69 177.09
  A 0.63 0.60 15.4 0 0 355.38 176.72
  Q 356.34 174.23 356.29 171.50
  Q 357.24 182.75 356.99 193.97
  C 354.81 199.86 353.93 203.42 347.00 204.67
  A 1.68 1.58 50.5 0 1 346.04 204.55
  C 341.89 202.76 336.72 201.35 336.50 195.87
  A 0.54 0.53 -15.8 0 0 335.70 195.43
  C 331.85 197.60 328.22 199.31 323.92 201.53
  C 313.60 206.87 293.03 205.68 280.27 203.55
  C 275.88 202.81 266.68 199.08 264.06 195.44
  Q 260.17 190.02 257.76 187.27
  Q 253.94 173.39 256.45 159.16
  Z"
/>
<path fill="#a00000" d="
  M 144.79 180.50
  Q 145.77 186.34 144.29 192.45
  Q 137.95 193.04 131.75 193.25
  Q 128.73 193.35 127.30 191.66
  A 0.41 0.41 47.7 0 0 126.69 191.63
  C 125.83 192.52 126.12 186.16 126.04 185.75
  L 125.46 181.25
  C 124.87 168.66 113.11 163.26 102.18 168.62
  C 116.06 152.56 140.27 160.64 144.79 180.50
  Z"
/>
<path fill="#57ae01" d="
  M 355.96 162.00
  L 356.29 171.50
  Q 356.34 174.23 355.38 176.72
  A 0.63 0.60 15.4 0 1 354.69 177.09
  Q 351.59 176.54 348.44 176.86
  Q 339.68 177.73 331.19 175.77
  L 334.16 173.62
  A 1.19 0.69 80.5 0 0 334.49 172.74
  L 334.54 168.25
  Q 335.27 165.09 334.19 161.65
  C 340.75 160.78 347.00 161.46 353.50 160.75
  Q 355.64 160.52 355.60 162.69
  Q 355.59 163.06 355.71 162.71
  L 355.96 162.00
  Z"
/>
<path fill="#020002" fill-opacity="0.992" d="
  M 448.50 164.00
  Q 445.88 171.78 441.54 178.75
  L 441.50 178.29
  L 448.50 164.00
  Z"
/>
<path fill="#329502" d="
  M 144.91 164.54
  Q 146.63 169.11 146.75 173.96
  L 146.54 174.00
  L 144.91 164.54
  Z"
/>
<path fill="#020002" fill-opacity="0.992" d="
  M 125.46 181.25
  C 123.99 174.24 119.27 167.84 111.52 167.66
  C 109.84 167.62 108.26 168.49 106.24 168.31
  A 1.33 1.21 -59.1 0 0 105.37 168.57
  Q 103.77 169.80 102.18 168.62
  C 113.11 163.26 124.87 168.66 125.46 181.25
  Z"
/>
<path fill="#230206" fill-opacity="0.988" d="
  M 88.54 170.25
  L 89.28 189.06
  Q 89.35 190.87 87.54 191.21
  Q 79.14 192.84 70.04 192.27
  Q 78.60 190.27 87.71 189.72
  A 1.09 1.08 -13.0 0 0 88.65 188.22
  Q 88.16 187.05 88.26 185.73
  Q 88.83 178.01 88.54 170.25
  Z"
/>
<path fill="#389902" d="
  M 411.29 171.25
  L 416.45 182.90
  Q 416.84 183.78 417.23 182.94
  L 419.48 178.06
  L 438.51 178.22
  Q 438.83 178.23 439.43 178.52
  Q 440.43 179.00 441.50 178.29
  L 441.54 178.75
  C 440.03 182.21 438.39 185.19 436.69 188.95
  Q 435.74 191.06 434.46 193.00
  L 432.46 196.50
  C 430.16 200.30 426.23 204.58 421.48 204.79
  C 418.69 204.92 414.38 205.31 412.49 204.99
  C 408.29 204.27 404.22 200.11 402.59 196.86
  Q 396.54 184.89 390.92 172.91
  Q 399.68 173.49 408.29 173.28
  C 409.95 173.24 410.64 172.67 411.29 171.25
  Z"
/>
<path fill="#890000" d="
  M 119.79 180.50
  C 120.65 190.41 119.94 199.51 108.99 201.90
  A 1.31 0.78 -69.4 0 0 108.30 202.45
  Q 108.02 202.87 107.53 202.76
  Q 106.77 202.59 106.56 202.62
  Q 102.51 203.12 99.75 205.70
  C 93.53 211.54 92.92 217.88 91.87 225.87
  Q 91.12 231.58 91.00 231.99
  C 89.09 238.56 81.21 239.46 75.25 239.25
  Q 53.36 238.48 36.75 237.00
  Q 34.76 236.82 32.50 234.54
  C 29.50 227.49 32.63 221.18 29.46 214.25
  Q 28.41 210.56 25.69 209.56
  Q 19.98 207.48 17.50 205.54
  Q 17.05 205.12 16.96 204.50
  Q 17.62 202.32 15.54 201.50
  C 14.44 198.97 15.71 192.87 16.04 190.00
  Q 16.98 188.91 17.71 190.11
  A 1.07 0.89 74.9 0 0 18.44 190.62
  Q 30.48 191.87 42.51 190.31
  A 1.21 0.88 7.2 0 0 43.31 189.87
  L 45.21 187.00
  C 45.12 195.71 42.98 211.77 56.70 211.43
  Q 77.15 210.93 81.00 210.25
  C 88.28 208.96 95.13 203.73 96.03 195.80
  C 96.72 189.69 96.42 183.53 100.39 178.15
  C 105.75 170.88 117.22 170.15 119.79 180.50
  Z"
/>
<path fill="#8d0000" d="
  M 146.54 174.00
  L 146.75 173.96
  L 151.92 179.12
  Q 152.98 181.16 154.04 182.00
  C 152.82 184.86 162.13 191.55 164.35 193.14
  Q 165.76 194.15 165.23 195.82
  L 163.56 200.99
  Q 160.89 210.33 153.72 216.73
  Q 145.48 224.08 134.27 221.16
  Q 139.22 217.59 143.06 211.31
  C 149.53 200.74 155.24 184.84 146.54 174.00
  Z"
/>
<path fill="#329502" d="
  M 179.25 176.96
  C 184.27 181.98 189.81 184.98 197.16 185.02
  Q 212.98 185.12 228.81 185.23
  C 236.27 185.28 247.99 185.96 245.71 197.25
  Q 244.38 201.83 239.31 203.06
  C 226.56 206.16 212.12 205.32 199.18 204.78
  C 187.03 204.27 181.32 204.39 172.75 198.00
  Q 161.11 189.33 154.04 182.00
  Q 152.98 181.16 151.92 179.12
  Q 162.93 178.04 177.25 178.75
  Q 178.88 178.83 179.25 176.96
  Z"
/>
<path fill="#329502" d="
  M 478.69 178.40
  Q 490.96 179.87 503.35 178.41
  C 510.02 185.58 518.88 185.30 528.75 185.00
  Q 540.79 184.63 566.06 185.46
  C 574.95 185.75 581.15 189.47 577.72 199.58
  C 574.42 204.33 563.43 205.00 558.25 205.00
  Q 541.75 205.00 525.25 205.20
  C 517.36 205.30 505.45 205.55 498.94 200.56
  Q 486.96 191.38 479.26 181.70
  L 478.69 178.40
  Z"
/>
<path fill="#020002" fill-opacity="0.992" d="
  M 119.79 180.50
  C 122.63 192.08 118.73 202.36 105.91 204.13
  C 95.61 205.55 93.18 218.09 92.35 226.71
  C 91.29 237.77 87.20 240.66 76.40 240.44
  Q 59.12 240.10 37.50 238.25
  Q 33.62 237.92 32.50 234.54
  Q 34.76 236.82 36.75 237.00
  Q 53.36 238.48 75.25 239.25
  C 81.21 239.46 89.09 238.56 91.00 231.99
  Q 91.12 231.58 91.87 225.87
  C 92.92 217.88 93.53 211.54 99.75 205.70
  Q 102.51 203.12 106.56 202.62
  Q 106.77 202.59 107.53 202.76
  Q 108.02 202.87 108.30 202.45
  A 1.31 0.78 -69.4 0 1 108.99 201.90
  C 119.94 199.51 120.65 190.41 119.79 180.50
  Z"
/>
<path fill="#020002" fill-opacity="0.992" d="
  M 144.79 180.50
  C 147.70 194.26 140.19 212.09 127.77 219.64
  C 124.43 221.67 123.49 222.15 119.81 222.31
  C 116.72 222.45 116.71 225.27 116.38 227.70
  Q 114.90 238.49 108.69 248.44
  Q 101.71 259.60 89.24 257.42
  C 76.10 255.13 62.54 253.91 49.25 252.75
  Q 44.59 252.34 41.50 247.79
  Q 43.43 248.43 44.59 249.69
  Q 46.25 251.51 48.71 251.71
  Q 70.11 253.41 90.95 256.04
  C 106.84 258.05 114.14 239.17 115.77 226.77
  C 116.26 223.06 116.77 221.07 120.82 220.99
  Q 122.76 220.96 124.52 220.14
  C 135.68 214.96 141.96 203.70 144.29 192.45
  Q 145.77 186.34 144.79 180.50
  Z"
/>
<path fill="#020002" fill-opacity="0.992" d="
  M 479.26 181.70
  Q 486.96 191.38 498.94 200.56
  C 505.45 205.55 517.36 205.30 525.25 205.20
  Q 541.75 205.00 558.25 205.00
  C 563.43 205.00 574.42 204.33 577.72 199.58
  C 576.28 204.94 564.98 206.25 560.24 206.25
  Q 541.25 206.25 522.25 206.29
  C 515.82 206.30 505.95 206.36 500.37 202.81
  Q 487.52 194.64 479.26 181.70
  Z"
/>
<path fill="#020002" fill-opacity="0.992" d="
  M 154.04 182.00
  Q 161.11 189.33 172.75 198.00
  C 181.32 204.39 187.03 204.27 199.18 204.78
  C 212.12 205.32 226.56 206.16 239.31 203.06
  Q 244.38 201.83 245.71 197.25
  C 245.31 203.56 239.50 204.38 234.56 205.44
  Q 231.66 206.07 228.02 206.16
  Q 208.71 206.68 189.42 205.61
  C 180.87 205.14 174.17 200.99 167.93 195.55
  A 0.98 0.90 32.2 0 0 166.42 195.82
  L 164.21 201.25
  L 163.56 200.99
  L 165.23 195.82
  Q 165.76 194.15 164.35 193.14
  C 162.13 191.55 152.82 184.86 154.04 182.00
  Z"
/>
<path fill="#800000" d="
  M 126.04 185.75
  C 126.12 186.16 125.83 192.52 126.69 191.63
  A 0.41 0.41 47.7 0 1 127.30 191.66
  Q 128.73 193.35 131.75 193.25
  Q 137.95 193.04 144.29 192.45
  C 141.96 203.70 135.68 214.96 124.52 220.14
  Q 122.76 220.96 120.82 220.99
  C 116.77 221.07 116.26 223.06 115.77 226.77
  C 114.14 239.17 106.84 258.05 90.95 256.04
  Q 70.11 253.41 48.71 251.71
  Q 46.25 251.51 44.59 249.69
  Q 43.43 248.43 41.50 247.79
  L 38.92 244.80
  Q 37.57 243.22 39.58 243.37
  Q 57.39 244.64 76.00 245.50
  C 83.28 245.84 90.88 244.07 94.96 237.71
  C 100.01 229.85 95.13 215.49 104.37 210.05
  Q 104.88 209.75 110.82 208.02
  C 121.76 204.84 125.78 196.52 126.04 185.75
  Z"
/>
<path fill="#020002" fill-opacity="0.992" d="
  M 257.76 187.27
  Q 260.17 190.02 264.06 195.44
  C 266.68 199.08 275.88 202.81 280.27 203.55
  C 293.03 205.68 313.60 206.87 323.92 201.53
  C 328.22 199.31 331.85 197.60 335.70 195.43
  A 0.54 0.53 -15.8 0 1 336.50 195.87
  C 336.72 201.35 341.89 202.76 346.04 204.55
  A 1.68 1.58 50.5 0 0 347.00 204.67
  C 353.93 203.42 354.81 199.86 356.99 193.97
  Q 356.95 200.10 352.61 203.15
  C 350.06 204.94 347.53 206.46 344.70 205.18
  C 340.53 203.30 337.56 202.16 335.70 197.60
  A 0.87 0.87 63.6 0 0 334.45 197.18
  C 326.32 202.06 317.59 206.47 307.87 206.33
  C 301.67 206.24 295.44 206.36 289.25 206.14
  Q 279.28 205.79 268.94 200.31
  C 263.75 197.56 260.34 192.36 257.76 187.27
  Z"
/>
<path fill="#000100" fill-opacity="0.514" d="
  M 434.46 193.00
  Q 434.12 195.41 432.75 197.46
  Q 432.84 196.92 432.46 196.50
  L 434.46 193.00
  Z"
/>
<path fill="#230206" fill-opacity="0.988" d="
  M 50.54 197.50
  C 51.78 201.51 51.49 205.39 57.05 205.10
  Q 67.97 204.53 78.87 203.73
  C 83.95 203.36 86.98 201.25 90.34 197.83
  C 87.64 202.95 83.67 205.11 77.75 205.30
  C 69.67 205.56 62.98 206.74 55.24 206.33
  Q 52.79 206.20 51.82 203.95
  Q 50.49 200.87 50.54 197.50
  Z"
/>
<path fill="#020002" fill-opacity="0.992" d="
  M 163.56 200.99
  L 164.21 201.25
  Q 160.45 214.09 149.12 221.07
  C 144.66 223.82 140.46 222.92 135.56 222.69
  Q 134.59 222.64 134.27 221.16
  Q 145.48 224.08 153.72 216.73
  Q 160.89 210.33 163.56 200.99
  Z"
/>
<path fill="#230206" fill-opacity="0.988" d="
  M 15.54 201.50
  Q 17.62 202.32 16.96 204.50
  L 15.54 201.50
  Z"
/>
<path fill="#020002" fill-opacity="0.992" d="
  M 17.50 205.54
  Q 19.98 207.48 25.69 209.56
  Q 28.41 210.56 29.46 214.25
  C 26.05 208.89 19.47 210.84 17.50 205.54
  Z"
/>
<path fill="#790000" d="
  M 139.21 232.00
  C 137.16 238.66 132.38 248.79 125.25 251.25
  Q 118.32 253.64 111.68 253.61
  Q 119.62 241.84 121.67 228.51
  A 1.22 1.22 -85.2 0 1 122.90 227.47
  L 138.57 227.83
  A 1.27 1.26 88.5 0 1 139.79 229.00
  Q 139.89 230.32 139.21 232.00
  Z"
/>
<path fill="#020002" fill-opacity="0.992" d="
  M 139.21 232.00
  Q 137.87 241.13 131.82 248.05
  C 126.96 253.61 118.77 254.75 112.07 254.93
  A 1.06 0.73 -12.1 0 1 111.22 254.58
  Q 110.86 254.04 111.68 253.61
  Q 118.32 253.64 125.25 251.25
  C 132.38 248.79 137.16 238.66 139.21 232.00
  Z"
/>
</svg>
