<?xml version="1.0" encoding="UTF-8" standalone="no"?>
<!DOCTYPE svg PUBLIC "-//W3C//DTD SVG 1.1//EN" "http://www.w3.org/Graphics/SVG/1.1/DTD/svg11.dtd">
<svg xmlns="http://www.w3.org/2000/svg" version="1.1" viewBox="0 0 600 300">
<path fill="#000000" d="
  M 0.00 153.44
  L 0.00 93.19
  L 32.24 93.01
  A 0.77 0.76 -90.0 0 1 33.00 93.78
  L 33.00 105.00
  A 0.50 0.50 0.0 0 1 32.50 105.50
  L 14.02 105.50
  A 0.52 0.52 -0.8 0 0 13.50 106.02
  L 13.50 116.63
  A 0.65 0.63 0.0 0 0 14.15 117.26
  L 32.81 117.42
  A 0.54 0.52 88.9 0 1 33.33 117.94
  L 33.73 129.24
  Q 33.74 129.77 34.04 129.34
  L 58.47 94.59
  A 2.67 2.23 -70.9 0 1 60.33 93.47
  L 68.64 92.99
  A 0.89 0.81 88.5 0 1 69.50 93.88
  L 69.50 153.19
  A 0.56 0.56 0.0 0 1 68.94 153.75
  L 59.00 153.75
  A 0.82 0.77 89.2 0 1 58.23 152.95
  L 58.10 144.94
  A 0.54 0.54 89.5 0 0 57.56 144.41
  L 38.25 144.47
  A 1.11 0.91 -68.2 0 0 37.45 144.91
  L 31.31 153.10
  A 1.14 1.00 -69.5 0 1 30.49 153.54
  L 18.58 153.71
  Q 17.56 153.73 18.15 152.86
  L 33.20 130.83
  Q 33.59 130.25 32.89 130.25
  L 13.74 130.25
  A 0.77 0.76 -89.6 0 0 12.98 131.01
  L 12.83 153.06
  A 0.58 0.56 -2.3 0 1 12.31 153.61
  Q 6.15 154.10 0.00 153.44
  Z
  M 48.20 132.58
  L 57.65 132.94
  A 0.64 0.58 -89.1 0 0 58.25 132.30
  L 58.25 118.98
  Q 58.25 117.82 57.56 118.76
  L 47.91 131.94
  Q 47.47 132.55 48.20 132.58
  Z"
/>
<path fill="#000000" d="
  M 103.82 131.21
  Q 104.13 131.87 104.43 131.20
  L 121.22 93.62
  A 1.05 1.02 -77.5 0 1 122.16 93.00
  L 134.05 93.05
  A 0.72 0.71 -89.6 0 1 134.75 93.77
  L 134.75 152.85
  A 0.87 0.84 -89.7 0 1 133.90 153.72
  L 124.18 153.59
  A 0.54 0.51 88.8 0 1 123.67 153.07
  Q 123.36 141.79 123.50 130.50
  Q 123.53 127.87 123.89 126.59
  A 0.57 0.31 -72.4 0 0 123.77 125.99
  Q 123.67 125.95 123.53 125.98
  A 0.58 0.38 -74.9 0 0 123.20 126.27
  L 109.19 153.18
  A 1.04 1.03 -76.3 0 1 108.27 153.75
  L 98.73 153.75
  A 1.60 1.59 -11.9 0 1 97.27 152.80
  L 86.50 128.27
  Q 85.47 125.93 85.50 128.49
  L 85.76 152.96
  A 0.78 0.78 89.6 0 1 84.98 153.75
  L 72.91 153.75
  A 0.66 0.66 0.0 0 1 72.25 153.09
  L 72.25 93.78
  A 0.78 0.78 0.0 0 1 73.03 93.00
  L 85.06 93.00
  A 1.14 1.12 -12.1 0 1 86.09 93.65
  L 103.82 131.21
  Z"
/>
<rect fill="#000000" x="137.27" y="93.01" width="12.24" height="60.74" rx="0.72"/>
<path fill="#000000" d="
  M 165.18 141.19
  L 178.57 141.42
  A 0.56 0.55 88.3 0 1 179.11 141.94
  Q 179.53 147.14 178.90 153.21
  A 0.61 0.60 -86.8 0 1 178.30 153.75
  L 152.95 153.69
  A 0.71 0.70 -90.0 0 1 152.25 152.98
  L 152.25 94.03
  A 0.98 0.96 90.0 0 1 153.21 93.05
  L 163.26 93.00
  A 1.04 1.03 89.7 0 1 164.29 94.03
  L 164.75 140.76
  A 0.44 0.43 0.7 0 0 165.18 141.19
  Z"
/>
<path fill="#000000" d="
  M 189.59 114.72
  Q 190.15 115.77 190.70 114.74
  L 201.86 93.82
  A 1.07 1.06 -76.0 0 1 202.80 93.25
  L 215.82 93.25
  A 0.42 0.41 14.1 0 1 216.19 93.86
  L 197.99 127.81
  Q 197.25 129.18 197.25 130.74
  L 197.25 152.94
  A 0.81 0.81 0.0 0 1 196.44 153.75
  L 184.91 153.75
  A 0.66 0.65 -0.4 0 1 184.25 153.11
  L 183.99 130.55
  Q 183.98 129.11 183.30 127.84
  L 165.01 93.52
  A 0.32 0.31 -13.2 0 1 165.30 93.06
  L 177.81 93.42
  A 0.93 0.84 -11.6 0 1 178.57 93.87
  L 189.59 114.72
  Z"
/>
<path fill="#000000" d="
  M 339.60 124.53
  A 31.00 31.00 0.0 0 1 308.60 155.53
  A 31.00 31.00 0.0 0 1 277.60 124.53
  A 31.00 31.00 0.0 0 1 308.60 93.53
  A 31.00 31.00 0.0 0 1 339.60 124.53
  Z
  M 327.39 124.53
  A 18.79 18.79 0.0 0 0 308.60 105.74
  A 18.79 18.79 0.0 0 0 289.81 124.53
  A 18.79 18.79 0.0 0 0 308.60 143.32
  A 18.79 18.79 0.0 0 0 327.39 124.53
  Z"
/>
<path fill="#000000" d="
  M 354.57 127.12
  Q 354.00 125.86 354.00 127.23
  L 354.00 152.87
  A 0.88 0.88 0.0 0 1 353.12 153.75
  L 342.01 153.75
  A 0.95 0.95 0.0 0 1 341.06 152.80
  L 341.00 94.67
  A 0.67 0.67 -0.4 0 1 341.67 94.00
  L 354.35 94.00
  A 1.41 1.41 78.7 0 1 355.65 94.87
  L 372.01 133.99
  Q 372.46 135.06 372.90 133.99
  L 389.18 94.45
  A 0.80 0.75 -78.5 0 1 389.87 93.96
  L 402.34 93.77
  A 0.93 0.90 89.7 0 1 403.25 94.70
  L 403.25 153.48
  A 0.72 0.71 89.6 0 1 402.55 154.20
  L 392.36 154.24
  A 0.87 0.85 89.7 0 1 391.50 153.37
  Q 391.50 140.75 391.50 127.75
  Q 391.50 127.07 391.70 126.60
  A 1.24 0.22 -65.1 0 0 391.93 125.72
  C 391.80 125.05 391.10 125.74 390.94 126.08
  Q 384.56 139.82 377.79 153.37
  A 0.82 0.81 -76.0 0 1 377.07 153.81
  L 367.06 153.69
  A 0.79 0.78 77.6 0 1 366.35 153.23
  L 354.57 127.12
  Z"
/>
<path fill="#000000" d="
  M 600.00 114.06
  L 600.00 116.31
  Q 599.34 127.86 588.78 133.14
  A 0.76 0.75 -27.2 0 0 588.44 134.16
  L 598.72 153.87
  A 0.43 0.42 76.2 0 1 598.35 154.49
  L 586.82 154.45
  A 0.95 0.94 73.4 0 1 586.03 154.02
  L 568.81 127.18
  Q 567.82 125.63 567.81 127.46
  L 567.69 153.93
  A 0.52 0.51 89.4 0 1 567.19 154.45
  L 556.27 154.49
  A 0.52 0.51 89.5 0 1 555.75 153.97
  L 555.75 94.33
  A 0.58 0.58 -0.1 0 1 556.33 93.75
  Q 567.00 93.75 577.75 93.71
  C 590.24 93.67 598.33 102.04 600.00 114.06
  Z
  M 585.06 119.06
  C 586.86 116.89 586.57 113.51 584.91 111.32
  C 581.30 106.55 572.88 107.78 568.56 108.02
  A 0.55 0.54 -1.7 0 0 568.04 108.56
  L 568.16 121.05
  A 0.51 0.50 -0.6 0 0 568.68 121.55
  C 572.96 121.48 582.08 122.66 585.06 119.06
  Z"
/>
<path fill="#000000" d="
  M 418.19 133.97
  C 418.50 140.40 417.95 146.66 418.01 153.22
  A 1.28 1.27 -0.2 0 1 416.73 154.50
  L 406.81 154.50
  A 0.81 0.81 0.0 0 1 406.00 153.69
  L 406.00 94.85
  A 0.85 0.85 -0.0 0 1 406.85 94.00
  C 414.28 94.00 422.94 93.18 429.99 94.56
  C 440.69 96.65 447.28 107.71 444.35 118.10
  C 441.09 129.65 430.36 133.17 419.15 132.98
  A 0.94 0.94 89.1 0 0 418.19 133.97
  Z
  M 427.67 119.62
  C 431.48 118.75 433.68 113.42 431.98 110.24
  C 429.82 106.20 423.21 106.71 419.20 107.10
  A 1.07 1.02 -3.4 0 0 418.24 108.13
  L 418.41 119.32
  A 0.60 0.57 3.5 0 0 418.93 119.88
  C 421.52 120.19 425.83 120.03 427.67 119.62
  Z"
/>
<path fill="#000000" d="
  M 481.81 146.81
  C 468.34 162.89 447.96 151.13 447.34 132.97
  Q 446.70 114.48 447.02 94.88
  A 0.89 0.88 -89.3 0 1 447.90 94.01
  L 458.03 94.04
  A 1.29 1.26 -89.8 0 1 459.29 95.34
  Q 459.04 115.85 459.56 133.19
  C 459.89 143.86 473.72 145.08 473.81 134.56
  Q 473.99 115.03 474.00 94.67
  A 0.67 0.67 -0.4 0 1 474.67 94.00
  L 485.32 94.00
  A 0.67 0.67 0.4 0 1 485.99 94.67
  Q 486.18 116.75 485.75 138.00
  Q 485.67 142.21 481.81 146.81
  Z"
/>
<path fill="#000000" d="
  M 497.19 106.55
  L 489.81 106.51
  A 1.02 0.98 0.0 0 1 488.80 105.54
  L 488.76 94.74
  A 0.75 0.74 -0.0 0 1 489.51 94.00
  L 519.43 94.00
  A 0.57 0.54 0.5 0 1 520.00 94.55
  L 519.67 105.61
  A 0.98 0.93 0.9 0 1 518.69 106.51
  L 510.31 106.55
  A 0.52 0.50 90.0 0 0 509.81 107.07
  L 509.57 153.56
  A 0.56 0.51 -89.4 0 1 509.06 154.11
  L 498.76 154.05
  A 0.56 0.52 89.4 0 1 498.24 153.50
  L 497.69 107.07
  A 0.52 0.50 90.0 0 0 497.19 106.55
  Z"
/>
<path fill="#000000" d="
  M 535.31 117.96
  L 552.32 118.43
  A 0.54 0.51 1.2 0 1 552.84 118.94
  L 552.95 130.66
  A 0.61 0.59 -0.0 0 1 552.34 131.25
  L 535.41 131.25
  A 0.66 0.66 90.0 0 0 534.75 131.91
  L 534.75 141.61
  A 0.93 0.91 -0.0 0 0 535.68 142.52
  L 552.32 142.67
  A 0.54 0.53 0.0 0 1 552.86 143.20
  L 552.80 153.99
  A 0.56 0.53 0.5 0 1 552.24 154.51
  L 522.51 154.26
  A 0.78 0.77 -89.6 0 1 521.75 153.48
  L 521.75 94.50
  A 0.50 0.50 0.0 0 1 522.25 94.00
  L 552.43 94.06
  A 0.53 0.51 0.0 0 1 552.96 94.57
  L 552.84 105.31
  A 0.53 0.52 -0.0 0 1 552.31 105.83
  L 535.54 105.98
  A 0.79 0.75 -0.4 0 0 534.76 106.73
  L 534.80 117.43
  A 0.53 0.52 -89.4 0 0 535.31 117.96
  Z"
/>
<path fill="#000000" d="
  M 265.53 138.04
  Q 271.78 137.44 277.87 138.09
  A 0.50 0.50 -71.3 0 1 278.24 138.84
  C 262.83 165.23 223.51 157.31 220.96 126.39
  Q 220.17 116.92 225.50 108.75
  C 238.83 88.30 267.24 89.91 278.54 111.11
  A 0.44 0.44 -13.9 0 1 278.15 111.75
  L 266.95 111.75
  A 3.42 3.39 64.2 0 1 264.81 110.99
  C 258.12 105.59 250.78 103.88 242.84 107.62
  C 234.55 111.52 230.11 122.05 233.35 130.90
  C 238.30 144.44 253.93 147.14 264.54 138.45
  A 1.79 1.79 22.4 0 1 265.53 138.04
  Z"
/>
<path fill="#000000" d="
  M 0.00 169.19
  L 0.00 162.56
  L 590.56 162.69
  Q 591.34 162.69 590.73 163.17
  L 583.83 168.60
  A 3.39 2.94 22.8 0 1 581.85 169.25
  L 0.00 169.19
  Z"
/>
<path fill="#000000" d="
  M 105.87 181.47
  A 0.72 0.72 3.6 0 1 106.50 182.18
  L 106.50 187.15
  A 0.97 0.96 -86.8 0 1 105.43 188.12
  L 72.00 184.31
  A 0.67 0.66 88.3 0 1 71.41 183.75
  Q 70.92 180.89 71.46 178.05
  A 0.55 0.53 8.5 0 1 72.06 177.62
  L 105.87 181.47
  Z"
/>
<path fill="#000000" d="
  M 37.08 178.19
  A 0.43 0.42 89.3 0 1 37.50 178.61
  Q 37.59 184.13 37.11 189.74
  C 35.41 209.34 18.66 205.75 4.84 205.75
  A 0.71 0.69 -89.2 0 1 4.15 205.02
  L 4.25 200.19
  A 0.99 0.94 -88.5 0 1 5.21 199.23
  C 10.47 199.35 15.49 199.10 20.53 199.07
  C 29.03 199.00 32.89 194.33 31.64 185.94
  A 0.59 0.57 86.0 0 0 31.07 185.43
  L 1.30 185.26
  A 0.56 0.55 0.5 0 1 0.75 184.71
  L 0.75 178.78
  A 0.77 0.77 89.0 0 1 1.52 178.01
  L 37.08 178.19
  Z"
/>
<rect fill="#000000" x="109.50" y="178.00" width="5.26" height="17.50" rx="0.75"/>
<path fill="#000000" d="
  M 115.60 198.96
  Q 123.16 198.77 129.75 198.61
  C 140.76 198.34 140.19 188.37 140.07 179.05
  A 0.62 0.50 88.0 0 1 140.54 178.43
  L 143.70 178.23
  A 0.59 0.47 87.5 0 1 144.20 178.81
  C 144.37 187.10 146.55 198.75 137.14 203.69
  C 131.49 206.65 122.54 205.88 115.61 205.73
  A 0.88 0.88 0.7 0 1 114.75 204.85
  L 114.75 199.84
  A 0.88 0.88 -1.0 0 1 115.60 198.96
  Z"
/>
<path fill="#000000" d="
  M 225.95 197.88
  L 225.79 186.10
  A 0.86 0.83 89.7 0 0 224.96 185.25
  L 196.06 185.19
  A 0.51 0.51 0.0 0 1 195.55 184.68
  L 195.50 178.93
  A 0.70 0.68 -0.0 0 1 196.20 178.25
  L 230.54 177.99
  A 0.71 0.71 -0.5 0 1 231.25 178.70
  L 231.32 205.23
  A 0.52 0.52 -90.0 0 1 230.80 205.75
  L 196.32 205.69
  A 0.53 0.50 0.0 0 1 195.79 205.19
  L 195.79 200.07
  A 0.52 0.52 -0.0 0 1 196.31 199.55
  L 224.65 199.27
  A 1.37 1.32 89.1 0 0 225.95 197.88
  Z"
/>
<path fill="#000000" d="
  M 258.50 198.50
  C 266.81 196.37 264.77 184.95 265.16 178.68
  A 0.60 0.52 -88.3 0 1 265.68 178.11
  L 269.87 178.09
  A 0.91 0.83 88.6 0 1 270.71 178.97
  C 271.16 191.65 271.06 205.13 254.60 205.63
  Q 245.68 205.89 236.75 205.75
  Q 234.46 205.71 234.53 203.75
  C 234.66 200.04 234.09 199.60 238.24 199.78
  Q 251.28 200.35 258.50 198.50
  Z"
/>
<path fill="#000000" d="
  M 278.02 193.80
  Q 277.70 199.13 283.00 199.50
  Q 288.60 199.89 307.94 199.81
  A 0.61 0.50 -0.5 0 1 308.55 200.30
  L 308.65 205.07
  A 0.61 0.50 -1.6 0 1 308.06 205.58
  Q 289.96 206.34 278.75 205.25
  C 271.24 204.52 272.91 183.77 273.05 178.82
  A 0.71 0.68 82.8 0 1 273.54 178.16
  Q 275.25 177.69 276.96 178.16
  A 0.72 0.55 -85.6 0 1 277.37 178.80
  L 277.60 184.51
  A 0.61 0.55 -2.0 0 0 278.23 185.04
  Q 287.74 184.70 296.25 185.45
  Q 296.56 185.48 297.11 185.85
  L 299.67 187.58
  Q 300.48 188.13 300.21 187.14
  Q 298.10 179.56 303.08 178.97
  C 306.66 178.54 309.38 181.22 308.13 184.87
  Q 307.91 185.51 308.04 186.44
  L 308.77 191.95
  A 1.06 0.95 -3.6 0 1 307.71 193.02
  L 278.56 193.29
  A 0.55 0.54 1.1 0 0 278.02 193.80
  Z
  M 306.46 183.29
  A 2.59 2.59 0.0 0 0 303.87 180.70
  A 2.59 2.59 0.0 0 0 301.28 183.29
  A 2.59 2.59 0.0 0 0 303.87 185.88
  A 2.59 2.59 0.0 0 0 306.46 183.29
  Z"
/>
<path fill="#000000" d="
  M 383.12 186.53
  C 381.75 189.81 378.64 194.17 374.68 194.31
  A 0.62 0.59 82.6 0 1 374.07 193.82
  Q 373.40 190.78 373.86 187.68
  A 0.86 0.78 -6.6 0 1 374.42 187.04
  Q 378.64 185.62 379.12 179.46
  A 1.26 1.23 -87.5 0 1 380.36 178.30
  L 408.82 178.43
  A 0.51 0.50 0.6 0 1 409.33 178.94
  L 409.09 197.32
  A 1.48 1.20 -29.3 0 1 408.74 198.20
  Q 405.41 202.17 401.34 205.37
  A 1.54 1.35 -61.1 0 1 400.45 205.69
  L 378.07 205.70
  A 0.54 0.51 -0.5 0 1 377.53 205.20
  L 377.43 200.40
  A 0.70 0.67 0.4 0 1 378.15 199.72
  Q 388.52 200.05 398.24 199.23
  A 3.02 3.01 -77.4 0 0 400.61 197.72
  C 401.81 195.64 399.24 196.25 398.28 196.25
  Q 391.64 196.25 384.98 196.25
  A 0.67 0.64 0.0 0 1 384.31 195.61
  L 384.31 189.89
  A 0.67 0.64 -0.0 0 1 384.98 189.25
  Q 393.50 189.25 401.50 189.25
  Q 404.88 189.25 404.42 186.44
  A 0.66 0.63 -2.6 0 0 403.81 185.91
  Q 393.80 185.40 383.80 186.03
  A 0.83 0.78 -79.4 0 0 383.12 186.53
  Z"
/>
<rect fill="#000000" x="234.15" y="178.50" width="21.10" height="6.74" rx="0.59"/>
<path fill="#000000" d="
  M 62.18 191.29
  L 40.21 191.02
  A 1.14 1.03 0.5 0 1 39.08 189.98
  L 39.12 184.68
  A 0.58 0.51 -0.1 0 1 39.69 184.18
  L 67.95 184.00
  A 0.76 0.76 88.9 0 1 68.72 184.74
  C 69.01 195.37 69.30 200.09 56.66 199.74
  A 1.57 1.55 8.9 0 0 55.12 200.85
  C 53.26 207.13 44.83 206.15 39.74 205.56
  A 0.58 0.54 4.5 0 1 39.22 205.00
  L 39.38 199.94
  A 0.57 0.51 -0.1 0 1 39.94 199.44
  L 50.31 199.10
  A 0.60 0.53 -1.1 0 0 50.89 198.57
  L 50.94 194.78
  A 1.08 0.98 -88.4 0 1 51.96 193.72
  C 54.12 193.80 62.73 194.57 62.72 191.82
  A 0.54 0.53 -0.0 0 0 62.18 191.29
  Z"
/>
<path fill="#000000" d="
  M 329.99 198.43
  L 329.74 193.59
  A 1.94 1.67 -1.2 0 0 327.81 192.00
  L 314.42 192.00
  A 0.67 0.67 0.2 0 1 313.75 191.33
  L 313.75 186.02
  A 0.77 0.77 -89.9 0 1 314.52 185.25
  L 333.09 185.25
  A 1.24 1.20 89.8 0 1 334.29 186.48
  L 334.41 198.56
  A 0.55 0.54 -88.9 0 0 334.93 199.11
  L 339.18 199.32
  A 0.62 0.51 0.2 0 1 339.77 199.81
  L 339.99 205.19
  A 0.54 0.48 -1.0 0 1 339.45 205.69
  L 312.06 205.69
  A 0.62 0.50 -0.5 0 1 311.44 205.20
  L 311.41 200.41
  A 1.07 0.90 -1.6 0 1 312.44 199.49
  L 329.44 198.97
  A 0.56 0.52 -1.5 0 0 329.99 198.43
  Z"
/>
<path fill="#000000" d="
  M 105.06 190.69
  Q 107.02 190.90 106.65 192.53
  Q 106.53 193.04 106.63 193.49
  Q 107.00 195.07 106.45 196.54
  A 0.69 0.66 12.9 0 1 105.75 196.96
  L 71.93 193.62
  A 0.62 0.57 2.9 0 1 71.38 193.06
  L 71.29 187.75
  A 0.55 0.51 2.5 0 1 71.89 187.24
  Q 88.54 188.89 105.06 190.69
  Z"
/>
<rect fill="#000000" x="147.75" y="188.50" width="34.00" height="7.00" rx="0.64"/>
<rect fill="#000000" x="337.25" y="189.25" width="35.00" height="6.76" rx="0.75"/>
<path fill="#000000" d="
  M 106.11 199.82
  A 0.48 0.42 1.8 0 1 106.54 200.22
  L 106.74 205.20
  A 0.78 0.69 2.0 0 1 105.89 205.90
  L 72.34 202.92
  A 1.00 0.88 2.8 0 1 71.43 202.03
  L 71.44 197.05
  A 0.58 0.46 3.4 0 1 72.07 196.61
  L 106.11 199.82
  Z"
/>
</svg>
