<?xml version="1.0" encoding="UTF-8" standalone="no"?>
<!DOCTYPE svg PUBLIC "-//W3C//DTD SVG 1.1//EN" "http://www.w3.org/Graphics/SVG/1.1/DTD/svg11.dtd">
<svg xmlns="http://www.w3.org/2000/svg" version="1.1" viewBox="0 0 600 300">
<path fill="#000000" d="
  M 336.53 45.26
  Q 334.81 45.35 336.23 46.33
  Q 359.85 62.50 370.69 88.06
  C 379.64 109.19 374.91 133.77 355.06 146.60
  Q 347.83 151.28 336.61 154.05
  Q 307.39 161.26 278.58 149.91
  C 247.37 137.61 214.60 111.72 204.65 78.24
  Q 204.56 77.94 204.52 77.62
  Q 203.71 71.62 205.41 77.44
  C 206.99 82.86 211.91 89.15 216.06 93.69
  C 227.41 106.09 243.35 114.81 260.51 114.75
  Q 263.23 114.74 260.98 113.21
  C 237.94 97.58 215.28 65.48 225.02 36.22
  Q 232.48 13.83 256.50 7.00
  Q 290.77 -2.75 323.27 11.45
  C 353.29 24.57 384.41 50.21 393.42 83.22
  Q 393.50 83.51 393.52 83.80
  Q 393.64 86.46 392.85 84.09
  C 385.66 62.75 359.01 44.03 336.53 45.26
  Z
  M 274.46 44.68
  C 252.59 54.30 257.77 80.77 268.86 95.87
  C 282.72 114.74 309.49 130.27 333.41 121.78
  A 0.87 0.68 1.1 0 0 333.85 121.45
  C 334.35 120.63 333.30 121.25 333.05 121.27
  Q 318.17 122.76 306.19 112.81
  C 298.52 106.45 291.37 95.77 293.29 85.51
  C 295.58 73.35 308.70 70.82 318.75 74.01
  C 333.02 78.54 348.53 92.99 345.57 109.51
  Q 345.01 112.64 346.51 110.01
  C 349.57 104.62 349.76 95.79 348.50 90.00
  C 342.87 64.20 315.29 42.29 289.00 41.75
  Q 281.46 41.60 274.46 44.68
  Z"
/>
<path fill="#000000" d="
  M 46.29 195.41
  L 50.74 195.23
  A 1.75 0.77 8.3 0 0 51.68 194.97
  L 58.31 190.01
  A 1.51 1.08 84.9 0 0 58.79 189.19
  L 65.39 159.99
  A 1.42 1.37 -14.4 0 1 65.89 159.18
  Q 68.44 157.10 71.18 155.28
  C 74.21 153.25 78.13 153.73 81.78 153.66
  A 0.40 0.40 -84.3 0 1 82.18 154.15
  L 74.36 188.77
  A 1.37 1.21 80.9 0 1 73.86 189.56
  L 59.96 199.81
  A 2.58 2.07 21.6 0 1 58.53 200.25
  L 4.14 200.25
  A 0.71 0.71 6.2 0 1 3.44 199.39
  L 12.19 160.05
  A 1.55 1.46 -15.1 0 1 12.69 159.24
  Q 14.96 157.34 17.36 155.59
  C 20.52 153.29 24.56 153.51 28.23 153.33
  A 0.71 0.71 -85.0 0 1 28.95 154.19
  L 20.14 194.15
  A 1.13 1.03 3.7 0 0 21.34 195.39
  L 24.00 195.22
  A 1.56 0.49 3.3 0 0 24.92 194.99
  L 31.62 190.07
  A 1.48 1.02 85.8 0 0 32.10 189.25
  L 38.88 159.99
  A 1.61 1.48 -16.0 0 1 39.38 159.17
  Q 41.90 157.00 44.67 155.16
  C 47.59 153.22 51.75 153.66 55.11 153.34
  A 0.50 0.49 3.8 0 1 55.64 153.94
  Q 51.94 170.64 48.22 186.99
  C 47.60 189.73 46.75 191.62 45.30 193.83
  Q 44.20 195.50 46.29 195.41
  Z"
/>
<path fill="#000000" d="
  M 369.69 161.19
  C 374.29 154.29 380.32 155.03 389.53 155.07
  Q 403.59 155.13 417.88 153.97
  Q 419.78 153.81 418.33 155.07
  L 411.94 160.59
  A 2.72 2.57 -64.3 0 1 410.21 161.25
  Q 400.62 161.25 391.01 161.03
  Q 382.97 160.84 382.25 169.00
  Q 381.85 173.53 386.25 173.44
  C 397.17 173.22 417.18 168.67 409.69 188.94
  C 404.98 201.68 396.62 200.50 383.35 200.50
  Q 359.65 200.50 335.80 200.50
  Q 334.05 200.50 335.42 199.36
  L 340.64 195.02
  A 3.40 2.86 -61.0 0 1 342.65 194.25
  Q 363.67 194.25 384.17 194.25
  C 389.80 194.25 392.60 193.67 394.00 188.00
  C 395.72 181.04 391.38 182.00 386.39 182.00
  Q 380.20 181.99 374.00 181.95
  C 361.06 181.88 365.30 167.77 369.69 161.19
  Z"
/>
<path fill="#000000" d="
  M 192.44 199.31
  C 189.16 197.73 190.14 195.10 191.00 191.84
  Q 192.37 186.59 193.90 180.94
  A 2.22 2.18 82.2 0 1 194.85 179.66
  Q 201.73 175.34 208.00 171.50
  C 210.21 170.15 220.82 171.13 226.51 170.78
  A 1.59 1.57 23.8 0 0 227.40 170.44
  Q 232.87 166.12 235.98 160.33
  A 2.52 2.51 14.0 0 1 238.20 159.00
  L 251.83 159.00
  Q 252.53 159.00 252.07 159.54
  L 242.08 171.17
  A 1.02 1.01 40.4 0 0 242.20 172.60
  C 244.47 174.56 243.85 175.90 243.11 178.80
  Q 240.45 189.25 237.42 200.07
  A 0.84 0.83 8.0 0 1 236.60 200.68
  C 224.30 200.48 211.70 200.13 199.27 200.58
  Q 195.35 200.72 192.44 199.31
  Z
  M 226.25 174.85
  C 224.41 174.65 222.23 174.74 220.17 174.67
  C 216.69 174.55 213.23 177.24 210.42 179.21
  A 1.44 1.24 -13.4 0 0 209.87 179.97
  L 206.09 194.40
  Q 205.56 196.44 207.68 196.45
  L 221.78 196.49
  A 1.09 1.09 7.8 0 0 222.85 195.68
  L 227.84 177.15
  Q 228.40 175.08 226.25 174.85
  Z"
/>
<path fill="#000000" d="
  M 175.04 171.01
  C 180.51 170.94 189.67 172.03 187.49 180.20
  Q 184.95 189.69 182.58 198.66
  A 2.14 2.14 7.4 0 1 180.51 200.25
  L 166.93 200.25
  A 0.48 0.48 8.5 0 1 166.47 199.63
  Q 169.37 189.84 171.75 180.25
  C 173.59 172.82 161.05 174.60 156.87 174.85
  A 1.21 1.19 5.6 0 0 155.77 175.74
  L 151.31 192.45
  A 1.83 1.27 85.0 0 1 150.83 193.29
  L 143.52 199.73
  A 2.24 1.99 22.2 0 1 142.08 200.24
  L 134.06 200.20
  A 0.39 0.39 -82.0 0 1 133.69 199.70
  L 141.39 171.22
  A 1.42 1.40 9.3 0 1 142.84 170.19
  Q 159.35 171.24 175.04 171.01
  Z"
/>
<path fill="#000000" d="
  M 454.98 196.63
  C 459.28 197.85 462.69 195.31 467.02 192.47
  A 1.40 1.35 -10.6 0 0 467.57 191.70
  L 471.81 176.17
  A 1.78 1.52 79.8 0 1 472.29 175.35
  Q 477.51 170.52 484.63 170.42
  C 488.84 170.37 488.63 169.48 487.59 173.74
  Q 485.43 182.53 482.83 191.21
  A 1.40 1.21 85.6 0 1 482.28 191.96
  L 469.14 199.82
  A 3.51 2.66 22.7 0 1 467.47 200.25
  L 414.43 200.50
  A 0.94 0.94 -82.5 0 1 413.52 199.31
  L 419.76 176.52
  A 3.24 3.08 82.1 0 1 421.08 174.68
  Q 423.23 173.29 425.16 172.17
  C 428.45 170.25 432.30 170.49 435.97 170.32
  A 0.53 0.52 6.4 0 1 436.50 170.98
  L 429.88 195.77
  A 0.53 0.53 -72.8 0 0 430.22 196.42
  C 433.95 197.69 438.03 194.52 441.02 192.47
  A 1.44 1.27 -11.9 0 0 441.58 191.72
  L 445.67 176.65
  A 3.87 3.64 83.6 0 1 447.37 174.38
  C 450.10 172.78 452.18 171.08 455.50 170.78
  Q 458.79 170.47 461.98 170.32
  A 0.52 0.52 6.9 0 1 462.50 170.98
  Q 459.90 180.32 457.41 189.68
  Q 456.61 192.69 454.52 195.11
  A 0.95 0.94 28.4 0 0 454.98 196.63
  Z"
/>
<path fill="#000000" d="
  M 525.43 174.78
  C 514.41 174.19 507.26 175.98 505.36 187.86
  C 504.24 194.89 509.89 197.21 515.83 196.38
  Q 518.35 196.02 516.26 197.49
  L 512.84 199.90
  A 1.73 1.55 -60.3 0 1 511.94 200.20
  C 505.38 200.33 487.42 201.49 489.01 189.72
  C 490.79 176.53 500.24 170.76 513.00 170.83
  Q 527.88 170.91 542.22 170.27
  A 0.79 0.79 6.4 0 1 543.02 171.27
  L 535.37 199.25
  A 1.05 1.00 -82.2 0 1 534.41 200.02
  L 520.42 200.22
  A 0.95 0.88 -82.5 0 1 519.57 199.03
  L 525.83 175.30
  A 0.43 0.41 8.8 0 0 525.43 174.78
  Z"
/>
<path fill="#000000" d="
  M 549.78 171.08
  A 1.16 1.16 -80.7 0 1 550.96 170.23
  Q 568.12 170.99 584.74 170.51
  Q 590.19 170.36 593.94 172.81
  C 597.87 175.39 596.72 178.71 595.58 183.09
  Q 593.48 191.19 591.25 199.27
  A 1.02 0.95 -81.8 0 1 590.33 200.01
  L 575.86 200.23
  A 0.68 0.66 -82.2 0 1 575.22 199.36
  C 576.38 195.43 581.62 180.02 580.22 177.02
  C 578.65 173.65 568.46 174.75 565.26 174.75
  A 0.89 0.88 -82.2 0 0 564.41 175.40
  L 559.73 192.74
  A 2.47 1.97 -18.3 0 1 559.01 193.84
  L 552.05 199.85
  A 1.43 1.15 -60.9 0 1 551.19 200.20
  L 542.45 200.24
  A 0.45 0.44 -83.0 0 1 542.02 199.68
  L 549.78 171.08
  Z"
/>
<path fill="#000000" d="
  M 131.47 172.27
  Q 134.06 173.72 133.29 176.55
  L 129.48 190.71
  A 1.38 1.34 -10.0 0 1 128.91 191.50
  Q 122.45 195.79 116.36 199.22
  Q 114.53 200.25 112.38 200.25
  Q 99.31 200.25 86.25 200.23
  Q 82.91 200.23 80.58 197.69
  A 2.69 2.57 31.7 0 1 79.94 195.24
  L 83.81 180.54
  A 1.70 1.57 -10.5 0 1 84.51 179.60
  C 88.38 177.11 96.47 171.04 100.88 170.96
  Q 112.23 170.76 123.58 170.98
  C 126.67 171.04 128.61 170.67 131.47 172.27
  Z
  M 116.25 174.88
  C 114.14 174.66 111.80 174.73 109.55 174.65
  C 106.20 174.51 102.27 177.72 100.22 179.04
  A 1.37 1.33 82.1 0 0 99.67 179.79
  Q 97.88 185.93 96.38 192.15
  C 95.33 196.46 95.68 196.37 99.91 196.64
  Q 106.76 197.07 112.00 192.94
  C 114.98 190.58 116.62 180.64 117.56 176.74
  A 1.51 1.51 9.8 0 0 116.25 174.88
  Z"
/>
<path fill="#000000" d="
  M 263.45 196.69
  L 284.81 196.69
  Q 285.32 196.69 284.93 197.02
  Q 281.06 200.33 278.50 200.50
  Q 274.30 200.79 252.58 200.26
  C 248.28 200.15 244.28 198.90 245.82 193.74
  C 247.12 189.36 248.12 184.91 249.42 180.53
  A 1.36 1.24 84.9 0 1 249.98 179.79
  L 263.68 171.47
  A 3.68 3.07 25.1 0 1 265.46 171.00
  C 274.16 171.00 282.96 171.25 291.63 170.94
  C 296.62 170.76 300.74 173.05 298.67 178.75
  C 297.75 181.29 286.52 187.16 283.68 188.76
  Q 283.27 188.99 282.75 188.99
  L 263.43 189.17
  A 0.72 0.68 7.1 0 0 262.76 189.66
  L 261.46 194.32
  Q 260.80 196.69 263.45 196.69
  Z
  M 270.98 175.87
  C 266.83 178.00 264.42 179.31 264.26 184.49
  A 0.73 0.73 -88.9 0 0 264.99 185.25
  C 269.83 185.25 275.11 185.96 279.30 184.03
  C 283.69 182.00 285.46 181.04 285.88 175.90
  A 1.06 1.06 2.5 0 0 284.82 174.75
  C 280.51 174.75 274.79 173.93 270.98 175.87
  Z"
/>
<path fill="#000000" d="
  M 303.63 180.90
  A 2.43 2.37 -8.5 0 1 304.70 179.49
  L 317.29 171.73
  A 4.97 4.86 -60.2 0 1 319.86 171.00
  Q 332.25 171.00 344.00 171.15
  Q 349.95 171.23 352.69 176.32
  Q 353.90 178.57 351.83 180.05
  Q 349.83 181.48 347.17 182.97
  C 344.10 184.68 339.90 184.00 336.48 184.00
  A 0.52 0.52 8.9 0 1 335.98 183.32
  C 338.11 176.51 336.27 174.82 329.50 174.73
  C 326.31 174.69 322.52 177.50 320.08 179.38
  A 1.54 1.50 80.0 0 0 319.55 180.16
  L 314.26 199.50
  A 0.98 0.93 -82.8 0 1 313.38 200.22
  L 299.14 200.51
  A 0.70 0.69 -82.4 0 1 298.47 199.62
  L 303.63 180.90
  Z"
/>
<path fill="#000000" d="
  M 312.55 290.57
  C 299.44 288.87 295.23 276.25 298.34 265.16
  Q 303.27 247.58 308.60 230.12
  C 310.43 224.14 310.92 219.75 316.36 215.90
  C 323.84 210.62 332.92 214.49 330.11 224.49
  Q 324.77 243.52 319.94 262.69
  C 318.63 267.86 315.24 281.14 322.97 281.61
  C 327.31 281.87 332.55 277.76 335.88 274.83
  A 0.97 0.94 67.3 0 0 336.20 274.01
  C 334.68 258.45 346.86 245.13 360.29 239.52
  C 364.27 237.86 376.54 236.44 370.13 244.79
  C 363.31 253.66 353.87 269.60 362.09 280.54
  Q 364.31 283.51 368.02 284.28
  C 387.80 288.40 394.38 249.24 377.23 248.50
  Q 375.70 248.43 376.95 247.54
  Q 383.38 242.92 391.72 241.80
  C 395.90 241.24 403.88 242.19 406.52 246.51
  C 416.87 263.43 402.21 279.75 387.79 286.91
  C 374.10 293.71 352.90 296.27 341.10 284.00
  Q 339.88 282.73 338.36 283.61
  C 329.93 288.48 322.30 291.83 312.55 290.57
  Z"
/>
<path fill="#000000" d="
  M 220.66 215.89
  A 0.52 0.52 -79.0 0 1 221.08 216.52
  C 219.65 222.55 216.20 242.72 210.74 245.26
  C 206.89 247.05 205.06 243.84 204.79 240.35
  C 204.23 232.71 204.31 225.86 195.20 223.80
  C 184.23 221.31 173.95 231.55 168.05 239.44
  C 160.95 248.95 155.95 268.74 167.17 277.42
  C 178.37 286.08 192.34 278.43 201.58 271.21
  C 204.37 269.04 206.99 267.54 210.00 269.80
  C 213.32 272.30 212.63 276.24 209.61 278.63
  C 195.71 289.60 176.80 293.71 159.62 288.68
  C 130.91 280.27 129.68 248.82 149.38 230.53
  C 168.88 212.44 195.95 211.44 220.66 215.89
  Z"
/>
<path fill="#000000" d="
  M 252.81 238.44
  C 256.02 239.34 254.97 241.92 253.56 243.93
  C 248.45 251.21 242.79 259.07 242.00 268.00
  C 241.25 276.50 245.28 285.48 255.25 284.00
  C 270.36 281.75 275.45 248.78 259.40 248.50
  Q 257.77 248.47 259.08 247.51
  C 267.30 241.52 285.03 236.72 290.69 248.98
  C 295.60 259.63 290.63 272.06 282.15 279.41
  Q 266.01 293.38 244.00 292.75
  C 222.77 292.14 210.65 272.92 223.94 254.43
  C 229.67 246.45 242.18 235.44 252.81 238.44
  Z"
/>
<path fill="#000000" d="
  M 446.62 263.63
  C 438.12 271.03 432.59 279.02 428.85 289.72
  A 0.85 0.85 -84.6 0 1 428.19 290.27
  C 423.99 290.91 416.35 291.66 413.21 287.06
  C 410.97 283.79 412.35 280.66 413.25 277.00
  Q 415.86 266.44 418.52 255.90
  Q 420.28 248.93 422.47 246.32
  C 426.44 241.57 436.39 238.70 440.03 245.80
  A 1.50 1.46 -53.6 0 1 440.16 246.73
  C 439.88 248.12 435.97 259.82 438.21 259.33
  A 1.49 1.06 -70.1 0 0 438.99 258.79
  C 447.59 247.54 461.50 238.86 476.19 239.78
  A 0.42 0.42 -81.4 0 1 476.57 240.30
  Q 472.95 256.05 470.25 265.00
  C 468.86 269.60 463.01 271.13 461.74 265.25
  C 460.14 257.86 450.67 260.12 446.62 263.63
  Z"
/>
<path fill="#000000" d="
  M 315.75 294.08
  C 318.85 294.25 315.45 295.54 315.25 294.50
  A 0.46 0.36 -2.4 0 1 315.75 294.08
  Z"
/>
</svg>
