<?xml version="1.0" encoding="UTF-8" standalone="no"?>
<!DOCTYPE svg PUBLIC "-//W3C//DTD SVG 1.1//EN" "http://www.w3.org/Graphics/SVG/1.1/DTD/svg11.dtd">
<svg xmlns="http://www.w3.org/2000/svg" version="1.1" viewBox="0 0 600 300">
<g stroke-width="2.00" fill="none" stroke-linecap="butt">
<path stroke="#395211" vector-effect="non-scaling-stroke" d="
  M 573.79 118.00
  L 573.79 130.00"
/>
<path stroke="#405c12" vector-effect="non-scaling-stroke" d="
  M 573.79 130.00
  C 570.41 170.15 546.96 194.83 507.75 200.75
  Q 506.59 200.93 506.71 200.00"
/>
<path stroke="#405c12" vector-effect="non-scaling-stroke" d="
  M 506.71 200.00
  L 513.79 166.00"
/>
<path stroke="#395211" vector-effect="non-scaling-stroke" d="
  M 513.79 166.00
  L 519.78 138.12
  Q 520.14 136.42 519.43 138.01
  Q 515.43 146.96 508.75 154.96"
/>
<path stroke="#405c12" vector-effect="non-scaling-stroke" d="
  M 508.75 154.96
  Q 492.53 173.52 467.49 172.40
  C 437.47 171.06 420.59 145.82 419.51 117.81
  C 419.51 117.68 418.86 114.62 418.64 117.18
  C 416.41 143.35 421.13 167.90 442.49 185.13
  C 457.10 196.92 488.01 210.37 506.21 201.00"
/>
<path stroke="#405c12" vector-effect="non-scaling-stroke" d="
  M 506.21 201.00
  C 506.82 201.76 498.26 235.65 495.46 247.75"
/>
<path stroke="#395211" vector-effect="non-scaling-stroke" d="
  M 495.46 247.75
  L 493.25 256.76
  A 0.34 0.33 -87.0 0 0 493.62 257.18
  L 501.25 256.21"
/>
<path stroke="#405c12" vector-effect="non-scaling-stroke" d="
  M 501.25 256.21
  C 548.24 250.21 586.42 217.43 594.48 169.89
  C 603.05 119.28 579.43 76.40 533.83 54.07
  C 533.53 53.92 533.05 53.36 532.82 53.51
  A 0.49 0.36 40.0 0 0 532.99 54.20
  C 555.75 68.06 571.51 91.23 573.79 118.00"
/>
<path stroke="#78ad23" vector-effect="non-scaling-stroke" d="
  M 501.25 256.21
  C 501.14 255.25 505.34 254.24 506.29 254.09
  C 542.84 248.23 573.75 224.66 587.40 190.44
  C 594.29 173.19 595.82 154.59 594.01 136.48
  Q 592.93 125.74 589.98 116.95
  C 583.45 97.51 570.82 80.03 553.80 68.35
  C 553.50 68.14 552.08 66.43 552.72 67.96
  C 552.94 68.50 556.68 72.56 558.25 74.75
  Q 571.10 92.72 574.75 112.50
  Q 575.10 114.40 575.02 117.50
  A 0.87 0.59 85.7 0 1 574.58 118.26
  Q 574.18 118.37 573.79 118.00"
/>
<path stroke="#78ad23" vector-effect="non-scaling-stroke" d="
  M 495.46 247.75
  Q 495.23 248.68 495.70 248.89
  A 0.62 0.46 -68.4 0 0 496.37 248.47
  C 497.64 245.25 498.29 240.85 498.86 238.54
  Q 503.08 221.55 507.04 204.31
  Q 507.54 202.14 509.75 201.82
  C 547.15 196.40 573.58 167.87 574.98 129.74
  A 0.46 0.38 85.3 0 0 574.50 129.25
  Q 574.03 129.37 573.79 130.00"
/>
<path stroke="#78ad23" vector-effect="non-scaling-stroke" d="
  M 508.75 154.96
  Q 509.63 155.43 508.94 156.20
  Q 491.98 175.03 466.60 173.88
  C 463.87 173.75 461.12 172.96 458.35 172.38
  C 444.22 169.42 433.04 160.62 426.53 147.93
  C 423.82 142.65 421.93 139.17 420.62 134.24
  Q 420.52 133.87 420.47 134.25
  C 419.26 143.41 421.94 153.73 425.67 162.12
  C 437.71 189.15 473.35 206.13 501.52 201.55
  C 504.70 201.04 505.46 199.70 506.00 196.75
  Q 506.96 191.50 511.44 170.37
  C 511.76 168.83 511.13 166.05 513.79 166.00"
/>
<path stroke="#7fb724" vector-effect="non-scaling-stroke" d="
  M 506.71 200.00
  L 506.21 201.00"
/>
<path stroke="#808080" vector-effect="non-scaling-stroke" d="
  M 238.80 120.18
  Q 238.04 120.18 238.59 120.71
  C 244.41 126.35 244.25 131.84 242.33 139.90
  Q 234.84 171.34 227.38 202.78
  Q 226.51 206.44 227.87 209.92
  C 229.81 214.85 232.98 214.50 238.14 214.50
  Q 249.90 214.50 261.33 214.50
  Q 262.76 214.50 261.58 213.70
  Q 254.11 208.63 256.54 199.65
  Q 265.40 166.88 274.10 134.07
  C 275.34 129.41 274.08 120.23 268.00 120.25
  Q 253.78 120.30 238.80 120.18"
/>
<path stroke="#808080" vector-effect="non-scaling-stroke" d="
  M 294.42 194.45
  L 303.63 155.23
  A 0.65 0.62 6.1 0 1 304.26 154.75
  L 324.12 154.75
  A 1.12 1.12 6.9 0 0 325.21 153.90
  L 328.16 141.87
  A 0.50 0.50 -83.1 0 0 327.68 141.25
  Q 308.18 141.21 289.28 141.30
  C 280.78 141.34 277.31 147.43 275.42 155.15
  Q 270.61 174.68 265.94 194.25
  Q 264.37 200.83 264.98 204.37
  Q 266.67 214.27 278.75 214.37
  Q 294.88 214.50 311.00 214.55
  C 315.92 214.57 318.08 211.98 319.71 207.42
  Q 323.13 197.89 325.50 187.13
  Q 325.90 185.30 324.81 186.82
  C 321.37 191.61 317.69 194.97 311.50 195.00
  Q 303.16 195.04 294.82 194.94
  A 0.41 0.40 6.2 0 1 294.42 194.45"
/>
<path stroke="#808080" vector-effect="non-scaling-stroke" d="
  M 49.12 204.80
  C 48.38 210.25 47.87 217.92 40.25 217.95
  Q 27.69 217.99 15.13 218.00
  C 10.70 218.00 8.05 216.49 7.33 212.08
  C 7.07 210.48 6.59 211.61 6.53 212.08
  Q 5.86 217.10 5.04 222.10
  C 3.65 230.61 3.84 236.75 14.25 236.75
  Q 32.44 236.75 50.62 236.75
  C 68.06 236.75 70.24 225.95 73.39 210.41
  Q 80.32 176.28 87.35 141.75
  A 0.42 0.42 5.7 0 0 86.94 141.25
  Q 58.38 141.25 30.25 141.00
  Q 26.91 140.97 24.19 143.19
  C 17.70 148.45 17.19 153.19 15.45 162.42
  Q 12.27 179.22 9.20 196.04
  C 7.85 203.44 8.53 211.42 18.25 211.54
  Q 28.42 211.67 38.58 211.34
  C 43.16 211.19 46.30 208.11 48.89 204.71
  Q 49.19 204.32 49.12 204.80"
/>
<path stroke="#808080" vector-effect="non-scaling-stroke" d="
  M 120.19 201.63
  C 121.29 202.45 114.87 214.01 125.70 214.31
  Q 139.00 214.67 152.75 214.49
  Q 154.19 214.48 152.99 213.68
  Q 145.72 208.85 147.56 199.81
  Q 149.56 190.03 158.25 154.50
  C 160.10 146.93 155.91 141.25 148.00 141.25
  Q 126.00 141.25 103.41 141.25
  A 0.65 0.62 -83.7 0 0 102.80 141.76
  L 100.12 153.78
  A 0.80 0.77 -83.7 0 0 100.87 154.75
  L 125.77 154.75
  Q 128.76 154.75 128.75 157.75
  Q 128.73 161.83 127.23 166.09
  A 0.70 0.68 9.7 0 1 126.56 166.55
  Q 116.01 166.33 105.46 166.62
  C 91.17 167.02 85.80 181.58 84.00 193.34
  C 82.90 200.52 82.13 206.93 88.15 211.29
  C 92.17 214.21 98.23 214.69 103.25 214.25
  C 111.26 213.53 115.10 208.41 119.59 201.89
  A 0.55 0.34 -55.0 0 1 120.19 201.63"
/>
<path stroke="#808080" vector-effect="non-scaling-stroke" d="
  M 223.20 187.41
  C 219.59 190.49 218.33 193.41 212.51 193.46
  Q 200.63 193.54 188.75 193.46
  Q 184.89 193.43 185.50 189.50
  Q 186.58 182.59 187.67 178.55
  A 0.68 0.66 -81.9 0 1 188.31 178.06
  L 224.36 178.00
  A 0.76 0.76 6.7 0 0 225.10 177.42
  Q 227.81 166.26 230.32 155.70
  Q 231.52 150.60 230.83 147.72
  C 228.94 139.84 222.25 141.25 214.24 141.25
  Q 199.78 141.25 185.33 141.25
  C 176.99 141.25 170.61 143.98 168.31 152.31
  Q 166.33 159.49 159.63 191.17
  C 157.63 200.62 155.85 214.46 170.25 214.48
  Q 190.75 214.50 211.25 214.54
  C 218.74 214.56 220.81 206.55 221.63 200.52
  Q 222.50 194.10 223.75 187.74
  Q 223.94 186.78 223.20 187.41"
/>
<path stroke="#808080" vector-effect="non-scaling-stroke" d="
  M 351.77 141.43
  C 342.77 141.62 336.30 148.87 334.65 157.23
  Q 330.54 178.03 326.56 198.86
  Q 324.94 207.33 331.96 212.07
  Q 335.57 214.51 340.00 214.51
  Q 355.20 214.50 370.40 214.50
  Q 376.58 214.50 379.90 213.17
  C 388.60 209.68 390.81 203.50 392.42 194.06
  Q 395.33 176.96 398.83 159.97
  C 400.58 151.45 399.37 141.64 388.50 141.25
  Q 378.27 140.89 351.77 141.43"
/>
<path stroke="#808080" vector-effect="non-scaling-stroke" d="
  M 42.02 188.82
  C 45.29 189.33 50.65 190.46 51.50 185.25
  Q 53.78 171.23 56.32 156.87
  A 0.76 0.76 4.3 0 0 55.55 155.98
  C 52.05 156.06 46.69 155.17 45.61 159.67
  Q 42.49 172.79 40.06 186.07
  Q 39.62 188.45 42.02 188.82"
/>
<path stroke="#808080" vector-effect="non-scaling-stroke" d="
  M 114.26 185.72
  C 113.47 191.52 120.56 196.20 122.75 188.91
  Q 124.33 183.68 124.95 178.24
  A 0.50 0.49 -84.2 0 0 124.51 177.69
  Q 115.49 176.73 114.26 185.72"
/>
<path stroke="#808080" vector-effect="non-scaling-stroke" d="
  M 203.47 156.77
  C 200.25 155.05 193.32 155.35 192.00 159.50
  Q 191.01 162.60 190.13 166.25
  A 0.41 0.40 -83.2 0 0 190.52 166.75
  L 202.44 166.75
  A 0.87 0.78 6.3 0 0 203.27 166.16
  L 204.96 159.76
  Q 205.47 157.84 203.47 156.77"
/>
<path stroke="#808080" vector-effect="non-scaling-stroke" d="
  M 364.38 157.84
  Q 361.89 159.66 361.81 160.01
  Q 358.52 174.60 355.46 189.24
  C 354.87 192.05 353.45 195.34 357.77 195.55
  C 361.91 195.75 364.36 195.65 365.37 190.91
  Q 368.54 175.95 371.75 161.00
  Q 372.48 157.58 369.94 157.56
  L 365.31 157.52
  A 1.70 1.43 -58.9 0 0 364.38 157.84"
/>
</g>
<path fill="#000000" d="
  M 600.00 145.06
  L 600.00 152.56
  C 598.40 215.58 550.51 258.89 489.13 261.02
  A 0.63 0.63 -84.1 0 1 488.50 260.24
  L 501.17 207.51
  A 0.36 0.35 -87.6 0 0 500.78 207.08
  C 479.15 210.25 455.03 200.83 438.40 186.85
  C 412.43 165.01 410.26 131.11 419.67 100.77
  Q 421.09 96.19 421.00 100.98
  C 420.55 124.60 427.64 153.53 450.85 164.36
  C 464.87 170.91 482.68 169.94 495.79 161.58
  C 509.96 152.55 521.65 129.85 527.57 114.55
  Q 529.85 108.64 528.54 114.84
  L 511.56 195.42
  A 0.62 0.61 0.3 0 0 512.29 196.15
  C 536.54 191.11 557.63 176.51 565.56 152.56
  C 573.37 128.99 571.84 101.74 556.99 81.35
  C 544.60 64.32 521.99 49.17 503.26 39.92
  C 501.91 39.25 503.82 39.52 503.96 39.56
  C 556.49 54.62 596.68 86.33 600.00 145.06
  Z
  M 573.79 118.00
  L 573.79 130.00
  C 570.41 170.15 546.96 194.83 507.75 200.75
  Q 506.59 200.93 506.71 200.00
  L 513.79 166.00
  L 519.78 138.12
  Q 520.14 136.42 519.43 138.01
  Q 515.43 146.96 508.75 154.96
  Q 492.53 173.52 467.49 172.40
  C 437.47 171.06 420.59 145.82 419.51 117.81
  C 419.51 117.68 418.86 114.62 418.64 117.18
  C 416.41 143.35 421.13 167.90 442.49 185.13
  C 457.10 196.92 488.01 210.37 506.21 201.00
  C 506.82 201.76 498.26 235.65 495.46 247.75
  L 493.25 256.76
  A 0.34 0.33 -87.0 0 0 493.62 257.18
  L 501.25 256.21
  C 548.24 250.21 586.42 217.43 594.48 169.89
  C 603.05 119.28 579.43 76.40 533.83 54.07
  C 533.53 53.92 533.05 53.36 532.82 53.51
  A 0.49 0.36 40.0 0 0 532.99 54.20
  C 555.75 68.06 571.51 91.23 573.79 118.00
  Z"
/>
<path fill="#7fb724" d="
  M 501.25 256.21
  C 501.14 255.25 505.34 254.24 506.29 254.09
  C 542.84 248.23 573.75 224.66 587.40 190.44
  C 594.29 173.19 595.82 154.59 594.01 136.48
  Q 592.93 125.74 589.98 116.95
  C 583.45 97.51 570.82 80.03 553.80 68.35
  C 553.50 68.14 552.08 66.43 552.72 67.96
  C 552.94 68.50 556.68 72.56 558.25 74.75
  Q 571.10 92.72 574.75 112.50
  Q 575.10 114.40 575.02 117.50
  A 0.87 0.59 85.7 0 1 574.58 118.26
  Q 574.18 118.37 573.79 118.00
  C 571.51 91.23 555.75 68.06 532.99 54.20
  A 0.49 0.36 40.0 0 1 532.82 53.51
  C 533.05 53.36 533.53 53.92 533.83 54.07
  C 579.43 76.40 603.05 119.28 594.48 169.89
  C 586.42 217.43 548.24 250.21 501.25 256.21
  Z"
/>
<path fill="#71a321" d="
  M 501.25 256.21
  L 493.62 257.18
  A 0.34 0.33 -87.0 0 1 493.25 256.76
  L 495.46 247.75
  Q 495.23 248.68 495.70 248.89
  A 0.62 0.46 -68.4 0 0 496.37 248.47
  C 497.64 245.25 498.29 240.85 498.86 238.54
  Q 503.08 221.55 507.04 204.31
  Q 507.54 202.14 509.75 201.82
  C 547.15 196.40 573.58 167.87 574.98 129.74
  A 0.46 0.38 85.3 0 0 574.50 129.25
  Q 574.03 129.37 573.79 130.00
  L 573.79 118.00
  Q 574.18 118.37 574.58 118.26
  A 0.87 0.59 85.7 0 0 575.02 117.50
  Q 575.10 114.40 574.75 112.50
  Q 571.10 92.72 558.25 74.75
  C 556.68 72.56 552.94 68.50 552.72 67.96
  C 552.08 66.43 553.50 68.14 553.80 68.35
  C 570.82 80.03 583.45 97.51 589.98 116.95
  Q 592.93 125.74 594.01 136.48
  C 595.82 154.59 594.29 173.19 587.40 190.44
  C 573.75 224.66 542.84 248.23 506.29 254.09
  C 505.34 254.24 501.14 255.25 501.25 256.21
  Z"
/>
<path fill="#7fb724" d="
  M 508.75 154.96
  Q 509.63 155.43 508.94 156.20
  Q 491.98 175.03 466.60 173.88
  C 463.87 173.75 461.12 172.96 458.35 172.38
  C 444.22 169.42 433.04 160.62 426.53 147.93
  C 423.82 142.65 421.93 139.17 420.62 134.24
  Q 420.52 133.87 420.47 134.25
  C 419.26 143.41 421.94 153.73 425.67 162.12
  C 437.71 189.15 473.35 206.13 501.52 201.55
  C 504.70 201.04 505.46 199.70 506.00 196.75
  Q 506.96 191.50 511.44 170.37
  C 511.76 168.83 511.13 166.05 513.79 166.00
  L 506.71 200.00
  L 506.21 201.00
  C 488.01 210.37 457.10 196.92 442.49 185.13
  C 421.13 167.90 416.41 143.35 418.64 117.18
  C 418.86 114.62 419.51 117.68 419.51 117.81
  C 420.59 145.82 437.47 171.06 467.49 172.40
  Q 492.53 173.52 508.75 154.96
  Z"
/>
<path fill="#000000" d="
  M 79.47 203.55
  Q 79.39 198.70 78.55 203.48
  C 75.83 218.83 74.00 239.96 53.29 240.33
  Q 37.48 240.61 21.66 240.54
  C 11.95 240.50 3.49 241.61 1.06 231.79
  Q 0.22 228.39 1.35 221.74
  Q 6.74 190.14 12.40 158.59
  C 14.18 148.69 16.83 142.67 25.42 138.26
  Q 26.90 137.50 28.56 137.50
  L 91.10 137.50
  A 0.65 0.65 5.5 0 1 91.74 138.27
  Q 87.65 159.28 83.74 179.05
  C 83.43 180.56 84.31 179.33 84.38 179.11
  C 87.60 170.11 94.87 162.76 105.00 162.76
  Q 114.25 162.75 123.50 162.75
  A 0.86 0.82 13.1 0 0 124.25 162.31
  Q 125.06 160.72 124.88 158.93
  A 0.58 0.55 -2.8 0 0 124.31 158.44
  L 96.28 158.50
  A 0.81 0.80 -83.4 0 1 95.50 157.51
  L 99.95 138.05
  A 0.63 0.62 -83.6 0 1 100.56 137.56
  Q 121.39 137.46 142.23 137.49
  Q 151.24 137.50 152.25 137.71
  C 162.12 139.73 163.17 149.95 161.17 158.15
  Q 156.64 176.71 152.44 195.34
  C 150.80 202.59 149.43 207.37 156.00 211.50
  Q 157.66 212.55 156.81 210.94
  C 152.78 203.30 154.31 198.35 156.33 188.69
  Q 162.27 160.28 164.69 151.44
  C 167.50 141.18 175.45 137.50 185.51 137.50
  Q 199.76 137.50 214.02 137.50
  Q 224.65 137.50 226.42 138.00
  C 238.51 141.37 234.05 154.58 232.02 163.54
  Q 230.03 172.28 228.16 181.03
  C 227.80 182.73 228.67 181.84 228.81 181.25
  Q 238.26 142.64 239.75 134.50
  C 241.40 125.44 233.42 121.44 227.25 117.18
  Q 226.26 116.50 227.47 116.50
  Q 247.12 116.50 267.00 116.52
  C 275.92 116.53 279.60 125.76 278.03 133.31
  Q 276.91 138.71 275.22 143.97
  A 0.43 0.33 -82.4 0 0 275.54 144.53
  Q 276.00 144.46 276.50 143.75
  C 279.70 139.18 284.26 137.50 290.12 137.51
  Q 311.34 137.54 332.55 137.44
  A 0.45 0.45 6.6 0 1 332.99 137.99
  L 328.06 158.06
  A 0.58 0.58 -82.9 0 1 327.50 158.50
  L 307.20 158.44
  A 0.65 0.62 6.1 0 0 306.57 158.92
  L 299.06 190.48
  A 0.63 0.63 -83.4 0 0 299.67 191.25
  C 304.07 191.25 312.77 192.27 316.40 190.07
  C 319.81 187.99 322.42 183.95 324.75 180.75
  C 326.96 177.72 327.05 176.48 327.86 172.19
  Q 330.81 156.44 332.00 153.00
  C 334.92 144.55 342.85 137.26 352.25 137.34
  Q 370.25 137.50 388.25 137.50
  C 398.65 137.50 404.73 146.42 402.97 156.15
  Q 398.83 179.07 394.75 202.00
  C 393.40 209.58 384.08 216.85 376.50 218.07
  Q 375.36 218.25 363.47 218.25
  Q 354.59 218.25 345.70 218.25
  C 335.57 218.25 329.62 217.54 324.38 209.15
  Q 323.55 207.82 323.06 209.31
  Q 320.11 218.30 310.50 218.29
  Q 275.65 218.25 240.80 218.25
  C 232.76 218.25 226.05 218.61 224.12 210.13
  Q 223.62 207.91 222.82 210.05
  C 219.59 218.65 213.83 218.25 204.92 218.25
  Q 165.33 218.24 125.75 218.15
  Q 119.57 218.14 116.50 212.83
  A 0.56 0.56 54.3 0 0 115.65 212.69
  C 107.11 220.10 90.93 220.37 83.03 211.83
  Q 79.55 208.06 79.47 203.55
  Z
  M 238.80 120.18
  Q 238.04 120.18 238.59 120.71
  C 244.41 126.35 244.25 131.84 242.33 139.90
  Q 234.84 171.34 227.38 202.78
  Q 226.51 206.44 227.87 209.92
  C 229.81 214.85 232.98 214.50 238.14 214.50
  Q 249.90 214.50 261.33 214.50
  Q 262.76 214.50 261.58 213.70
  Q 254.11 208.63 256.54 199.65
  Q 265.40 166.88 274.10 134.07
  C 275.34 129.41 274.08 120.23 268.00 120.25
  Q 253.78 120.30 238.80 120.18
  Z
  M 294.42 194.45
  L 303.63 155.23
  A 0.65 0.62 6.1 0 1 304.26 154.75
  L 324.12 154.75
  A 1.12 1.12 6.9 0 0 325.21 153.90
  L 328.16 141.87
  A 0.50 0.50 -83.1 0 0 327.68 141.25
  Q 308.18 141.21 289.28 141.30
  C 280.78 141.34 277.31 147.43 275.42 155.15
  Q 270.61 174.68 265.94 194.25
  Q 264.37 200.83 264.98 204.37
  Q 266.67 214.27 278.75 214.37
  Q 294.88 214.50 311.00 214.55
  C 315.92 214.57 318.08 211.98 319.71 207.42
  Q 323.13 197.89 325.50 187.13
  Q 325.90 185.30 324.81 186.82
  C 321.37 191.61 317.69 194.97 311.50 195.00
  Q 303.16 195.04 294.82 194.94
  A 0.41 0.40 6.2 0 1 294.42 194.45
  Z
  M 49.12 204.80
  C 48.38 210.25 47.87 217.92 40.25 217.95
  Q 27.69 217.99 15.13 218.00
  C 10.70 218.00 8.05 216.49 7.33 212.08
  C 7.07 210.48 6.59 211.61 6.53 212.08
  Q 5.86 217.10 5.04 222.10
  C 3.65 230.61 3.84 236.75 14.25 236.75
  Q 32.44 236.75 50.62 236.75
  C 68.06 236.75 70.24 225.95 73.39 210.41
  Q 80.32 176.28 87.35 141.75
  A 0.42 0.42 5.7 0 0 86.94 141.25
  Q 58.38 141.25 30.25 141.00
  Q 26.91 140.97 24.19 143.19
  C 17.70 148.45 17.19 153.19 15.45 162.42
  Q 12.27 179.22 9.20 196.04
  C 7.85 203.44 8.53 211.42 18.25 211.54
  Q 28.42 211.67 38.58 211.34
  C 43.16 211.19 46.30 208.11 48.89 204.71
  Q 49.19 204.32 49.12 204.80
  Z
  M 120.19 201.63
  C 121.29 202.45 114.87 214.01 125.70 214.31
  Q 139.00 214.67 152.75 214.49
  Q 154.19 214.48 152.99 213.68
  Q 145.72 208.85 147.56 199.81
  Q 149.56 190.03 158.25 154.50
  C 160.10 146.93 155.91 141.25 148.00 141.25
  Q 126.00 141.25 103.41 141.25
  A 0.65 0.62 -83.7 0 0 102.80 141.76
  L 100.12 153.78
  A 0.80 0.77 -83.7 0 0 100.87 154.75
  L 125.77 154.75
  Q 128.76 154.75 128.75 157.75
  Q 128.73 161.83 127.23 166.09
  A 0.70 0.68 9.7 0 1 126.56 166.55
  Q 116.01 166.33 105.46 166.62
  C 91.17 167.02 85.80 181.58 84.00 193.34
  C 82.90 200.52 82.13 206.93 88.15 211.29
  C 92.17 214.21 98.23 214.69 103.25 214.25
  C 111.26 213.53 115.10 208.41 119.59 201.89
  A 0.55 0.34 -55.0 0 1 120.19 201.63
  Z
  M 223.20 187.41
  C 219.59 190.49 218.33 193.41 212.51 193.46
  Q 200.63 193.54 188.75 193.46
  Q 184.89 193.43 185.50 189.50
  Q 186.58 182.59 187.67 178.55
  A 0.68 0.66 -81.9 0 1 188.31 178.06
  L 224.36 178.00
  A 0.76 0.76 6.7 0 0 225.10 177.42
  Q 227.81 166.26 230.32 155.70
  Q 231.52 150.60 230.83 147.72
  C 228.94 139.84 222.25 141.25 214.24 141.25
  Q 199.78 141.25 185.33 141.25
  C 176.99 141.25 170.61 143.98 168.31 152.31
  Q 166.33 159.49 159.63 191.17
  C 157.63 200.62 155.85 214.46 170.25 214.48
  Q 190.75 214.50 211.25 214.54
  C 218.74 214.56 220.81 206.55 221.63 200.52
  Q 222.50 194.10 223.75 187.74
  Q 223.94 186.78 223.20 187.41
  Z
  M 351.77 141.43
  C 342.77 141.62 336.30 148.87 334.65 157.23
  Q 330.54 178.03 326.56 198.86
  Q 324.94 207.33 331.96 212.07
  Q 335.57 214.51 340.00 214.51
  Q 355.20 214.50 370.40 214.50
  Q 376.58 214.50 379.90 213.17
  C 388.60 209.68 390.81 203.50 392.42 194.06
  Q 395.33 176.96 398.83 159.97
  C 400.58 151.45 399.37 141.64 388.50 141.25
  Q 378.27 140.89 351.77 141.43
  Z
  M 190.65 182.32
  L 189.23 189.10
  A 0.56 0.54 5.9 0 0 189.78 189.75
  Q 201.28 189.79 212.19 189.71
  C 216.91 189.67 220.05 185.98 222.59 182.30
  Q 223.02 181.68 222.26 181.68
  L 191.39 181.75
  A 0.76 0.72 5.6 0 0 190.65 182.32
  Z
  M 260.26 200.40
  Q 258.41 205.56 262.05 209.70
  Q 262.33 210.02 262.60 210.00
  A 0.48 0.34 69.8 0 0 262.78 209.34
  Q 260.15 204.17 261.39 198.49
  A 0.56 0.47 -79.8 0 0 261.02 197.84
  Q 260.11 197.71 260.35 199.44
  Q 260.42 199.95 260.26 200.40
  Z"
/>
<path fill="#ffffff" d="
  M 238.80 120.18
  Q 253.78 120.30 268.00 120.25
  C 274.08 120.23 275.34 129.41 274.10 134.07
  Q 265.40 166.88 256.54 199.65
  Q 254.11 208.63 261.58 213.70
  Q 262.76 214.50 261.33 214.50
  Q 249.90 214.50 238.14 214.50
  C 232.98 214.50 229.81 214.85 227.87 209.92
  Q 226.51 206.44 227.38 202.78
  Q 234.84 171.34 242.33 139.90
  C 244.25 131.84 244.41 126.35 238.59 120.71
  Q 238.04 120.18 238.80 120.18
  Z"
/>
<path fill="#7fb724" d="
  M 495.46 247.75
  C 498.26 235.65 506.82 201.76 506.21 201.00
  L 506.71 200.00
  Q 506.59 200.93 507.75 200.75
  C 546.96 194.83 570.41 170.15 573.79 130.00
  Q 574.03 129.37 574.50 129.25
  A 0.46 0.38 85.3 0 1 574.98 129.74
  C 573.58 167.87 547.15 196.40 509.75 201.82
  Q 507.54 202.14 507.04 204.31
  Q 503.08 221.55 498.86 238.54
  C 498.29 240.85 497.64 245.25 496.37 248.47
  A 0.62 0.46 -68.4 0 1 495.70 248.89
  Q 495.23 248.68 495.46 247.75
  Z"
/>
<path fill="#71a321" d="
  M 508.75 154.96
  Q 515.43 146.96 519.43 138.01
  Q 520.14 136.42 519.78 138.12
  L 513.79 166.00
  C 511.13 166.05 511.76 168.83 511.44 170.37
  Q 506.96 191.50 506.00 196.75
  C 505.46 199.70 504.70 201.04 501.52 201.55
  C 473.35 206.13 437.71 189.15 425.67 162.12
  C 421.94 153.73 419.26 143.41 420.47 134.25
  Q 420.52 133.87 420.62 134.24
  C 421.93 139.17 423.82 142.65 426.53 147.93
  C 433.04 160.62 444.22 169.42 458.35 172.38
  C 461.12 172.96 463.87 173.75 466.60 173.88
  Q 491.98 175.03 508.94 156.20
  Q 509.63 155.43 508.75 154.96
  Z"
/>
<path fill="#ffffff" d="
  M 294.82 194.94
  Q 303.16 195.04 311.50 195.00
  C 317.69 194.97 321.37 191.61 324.81 186.82
  Q 325.90 185.30 325.50 187.13
  Q 323.13 197.89 319.71 207.42
  C 318.08 211.98 315.92 214.57 311.00 214.55
  Q 294.88 214.50 278.75 214.37
  Q 266.67 214.27 264.98 204.37
  Q 264.37 200.83 265.94 194.25
  Q 270.61 174.68 275.42 155.15
  C 277.31 147.43 280.78 141.34 289.28 141.30
  Q 308.18 141.21 327.68 141.25
  A 0.50 0.50 -83.1 0 1 328.16 141.87
  L 325.21 153.90
  A 1.12 1.12 6.9 0 1 324.12 154.75
  L 304.26 154.75
  A 0.65 0.62 6.1 0 0 303.63 155.23
  L 294.42 194.45
  A 0.41 0.40 6.2 0 0 294.82 194.94
  Z"
/>
<path fill="#ffffff" d="
  M 48.89 204.71
  C 46.30 208.11 43.16 211.19 38.58 211.34
  Q 28.42 211.67 18.25 211.54
  C 8.53 211.42 7.85 203.44 9.20 196.04
  Q 12.27 179.22 15.45 162.42
  C 17.19 153.19 17.70 148.45 24.19 143.19
  Q 26.91 140.97 30.25 141.00
  Q 58.38 141.25 86.94 141.25
  A 0.42 0.42 5.7 0 1 87.35 141.75
  Q 80.32 176.28 73.39 210.41
  C 70.24 225.95 68.06 236.75 50.62 236.75
  Q 32.44 236.75 14.25 236.75
  C 3.84 236.75 3.65 230.61 5.04 222.10
  Q 5.86 217.10 6.53 212.08
  C 6.59 211.61 7.07 210.48 7.33 212.08
  C 8.05 216.49 10.70 218.00 15.13 218.00
  Q 27.69 217.99 40.25 217.95
  C 47.87 217.92 48.38 210.25 49.12 204.80
  Q 49.19 204.32 48.89 204.71
  Z
  M 42.02 188.82
  C 45.29 189.33 50.65 190.46 51.50 185.25
  Q 53.78 171.23 56.32 156.87
  A 0.76 0.76 4.3 0 0 55.55 155.98
  C 52.05 156.06 46.69 155.17 45.61 159.67
  Q 42.49 172.79 40.06 186.07
  Q 39.62 188.45 42.02 188.82
  Z"
/>
<path fill="#ffffff" d="
  M 119.59 201.89
  C 115.10 208.41 111.26 213.53 103.25 214.25
  C 98.23 214.69 92.17 214.21 88.15 211.29
  C 82.13 206.93 82.90 200.52 84.00 193.34
  C 85.80 181.58 91.17 167.02 105.46 166.62
  Q 116.01 166.33 126.56 166.55
  A 0.70 0.68 9.7 0 0 127.23 166.09
  Q 128.73 161.83 128.75 157.75
  Q 128.76 154.75 125.77 154.75
  L 100.87 154.75
  A 0.80 0.77 -83.7 0 1 100.12 153.78
  L 102.80 141.76
  A 0.65 0.62 -83.7 0 1 103.41 141.25
  Q 126.00 141.25 148.00 141.25
  C 155.91 141.25 160.10 146.93 158.25 154.50
  Q 149.56 190.03 147.56 199.81
  Q 145.72 208.85 152.99 213.68
  Q 154.19 214.48 152.75 214.49
  Q 139.00 214.67 125.70 214.31
  C 114.87 214.01 121.29 202.45 120.19 201.63
  A 0.55 0.34 -55.0 0 0 119.59 201.89
  Z
  M 114.26 185.72
  C 113.47 191.52 120.56 196.20 122.75 188.91
  Q 124.33 183.68 124.95 178.24
  A 0.50 0.49 -84.2 0 0 124.51 177.69
  Q 115.49 176.73 114.26 185.72
  Z"
/>
<path fill="#ffffff" d="
  M 212.51 193.46
  C 218.33 193.41 219.59 190.49 223.20 187.41
  Q 223.94 186.78 223.75 187.74
  Q 222.50 194.10 221.63 200.52
  C 220.81 206.55 218.74 214.56 211.25 214.54
  Q 190.75 214.50 170.25 214.48
  C 155.85 214.46 157.63 200.62 159.63 191.17
  Q 166.33 159.49 168.31 152.31
  C 170.61 143.98 176.99 141.25 185.33 141.25
  Q 199.78 141.25 214.24 141.25
  C 222.25 141.25 228.94 139.84 230.83 147.72
  Q 231.52 150.60 230.32 155.70
  Q 227.81 166.26 225.10 177.42
  A 0.76 0.76 6.7 0 1 224.36 178.00
  L 188.31 178.06
  A 0.68 0.66 -81.9 0 0 187.67 178.55
  Q 186.58 182.59 185.50 189.50
  Q 184.89 193.43 188.75 193.46
  Q 200.63 193.54 212.51 193.46
  Z
  M 203.47 156.77
  C 200.25 155.05 193.32 155.35 192.00 159.50
  Q 191.01 162.60 190.13 166.25
  A 0.41 0.40 -83.2 0 0 190.52 166.75
  L 202.44 166.75
  A 0.87 0.78 6.3 0 0 203.27 166.16
  L 204.96 159.76
  Q 205.47 157.84 203.47 156.77
  Z"
/>
<path fill="#ffffff" d="
  M 334.65 157.23
  C 336.30 148.87 342.77 141.62 351.77 141.43
  Q 378.27 140.89 388.50 141.25
  C 399.37 141.64 400.58 151.45 398.83 159.97
  Q 395.33 176.96 392.42 194.06
  C 390.81 203.50 388.60 209.68 379.90 213.17
  Q 376.58 214.50 370.40 214.50
  Q 355.20 214.50 340.00 214.51
  Q 335.57 214.51 331.96 212.07
  Q 324.94 207.33 326.56 198.86
  Q 330.54 178.03 334.65 157.23
  Z
  M 364.38 157.84
  Q 361.89 159.66 361.81 160.01
  Q 358.52 174.60 355.46 189.24
  C 354.87 192.05 353.45 195.34 357.77 195.55
  C 361.91 195.75 364.36 195.65 365.37 190.91
  Q 368.54 175.95 371.75 161.00
  Q 372.48 157.58 369.94 157.56
  L 365.31 157.52
  A 1.70 1.43 -58.9 0 0 364.38 157.84
  Z"
/>
<path fill="#000000" d="
  M 203.47 156.77
  Q 205.47 157.84 204.96 159.76
  L 203.27 166.16
  A 0.87 0.78 6.3 0 1 202.44 166.75
  L 190.52 166.75
  A 0.41 0.40 -83.2 0 1 190.13 166.25
  Q 191.01 162.60 192.00 159.50
  C 193.32 155.35 200.25 155.05 203.47 156.77
  Z
  M 195.58 163.09
  C 197.92 163.50 201.08 163.46 201.19 160.31
  A 0.68 0.67 -79.7 0 0 200.73 159.64
  Q 197.31 158.53 195.02 161.72
  A 0.87 0.87 22.8 0 0 195.58 163.09
  Z"
/>
<path fill="#000000" d="
  M 42.02 188.82
  Q 39.62 188.45 40.06 186.07
  Q 42.49 172.79 45.61 159.67
  C 46.69 155.17 52.05 156.06 55.55 155.98
  A 0.76 0.76 4.3 0 1 56.32 156.87
  Q 53.78 171.23 51.50 185.25
  C 50.65 190.46 45.29 189.33 42.02 188.82
  Z
  M 46.23 185.38
  Q 47.46 185.56 47.81 183.81
  Q 50.13 172.21 51.69 160.49
  A 0.65 0.61 -77.6 0 0 51.29 159.81
  Q 49.56 159.22 49.14 161.08
  Q 46.58 172.39 44.25 183.75
  Q 43.86 185.63 45.28 185.38
  Q 45.69 185.30 46.23 185.38
  Z"
/>
<path fill="#000000" d="
  M 364.38 157.84
  A 1.70 1.43 -58.9 0 1 365.31 157.52
  L 369.94 157.56
  Q 372.48 157.58 371.75 161.00
  Q 368.54 175.95 365.37 190.91
  C 364.36 195.65 361.91 195.75 357.77 195.55
  C 353.45 195.34 354.87 192.05 355.46 189.24
  Q 358.52 174.60 361.81 160.01
  Q 361.89 159.66 364.38 157.84
  Z
  M 367.7194 162.1612
  A 0.81 0.81 0.0 0 0 367.0988 161.1983
  L 366.1410 160.9912
  A 0.81 0.81 0.0 0 0 365.1781 161.6118
  L 358.8806 190.7388
  A 0.81 0.81 0.0 0 0 359.5012 191.7017
  L 360.4590 191.9088
  A 0.81 0.81 0.0 0 0 361.4219 191.2882
  L 367.7194 162.1612
  Z"
/>
<path fill="#000000" d="
  M 122.75 188.91
  C 120.56 196.20 113.47 191.52 114.26 185.72
  Q 115.49 176.73 124.51 177.69
  A 0.50 0.49 -84.2 0 1 124.95 178.24
  Q 124.33 183.68 122.75 188.91
  Z
  M 120.31 181.77
  C 118.58 181.22 117.96 187.38 118.25 188.25
  C 119.12 190.88 120.59 182.65 120.63 182.49
  A 0.63 0.52 -74.5 0 0 120.31 181.77
  Z"
/>
</svg>
