<?xml version="1.0" encoding="UTF-8" standalone="no"?>
<!DOCTYPE svg PUBLIC "-//W3C//DTD SVG 1.1//EN" "http://www.w3.org/Graphics/SVG/1.1/DTD/svg11.dtd">
<svg xmlns="http://www.w3.org/2000/svg" version="1.1" viewBox="0 0 600 300">
<path fill="#000000" d="
  M 49.95 93.30
  A 0.68 0.63 0.4 0 1 49.27 92.66
  L 49.41 80.69
  A 0.53 0.52 -89.4 0 1 49.93 80.17
  L 86.81 80.18
  A 0.54 0.52 0.0 0 1 87.35 80.70
  L 87.35 92.56
  A 0.55 0.54 -0.5 0 1 86.81 93.10
  L 76.97 93.23
  A 0.98 0.94 -0.3 0 0 76.00 94.17
  L 76.00 130.84
  A 0.70 0.68 -0.4 0 1 75.31 131.52
  L 61.72 131.67
  A 0.97 0.95 -0.6 0 1 60.74 130.73
  L 60.57 93.94
  A 0.53 0.53 0.6 0 0 60.05 93.41
  L 49.95 93.30
  Z"
/>
<rect fill="#000000" x="91.25" y="80.00" width="14.50" height="51.54" rx="0.62"/>
<path fill="#000000" d="
  M 143.43 112.05
  L 133.30 112.01
  A 0.56 0.55 0.5 0 1 132.75 111.46
  L 132.75 99.62
  A 0.87 0.87 0.0 0 1 133.62 98.75
  L 158.44 98.75
  A 0.81 0.81 0.0 0 1 159.25 99.56
  L 159.25 130.94
  A 0.56 0.56 0.0 0 1 158.69 131.50
  C 138.83 131.50 110.74 136.91 109.49 107.43
  C 109.02 96.26 114.08 86.18 124.61 82.08
  C 133.56 78.58 148.35 79.81 158.57 80.17
  A 0.54 0.52 1.1 0 1 159.09 80.69
  L 159.21 92.42
  A 0.88 0.84 0.0 0 1 158.32 93.27
  Q 146.00 93.08 135.00 93.50
  C 127.27 93.80 121.95 102.30 123.56 109.34
  C 125.92 119.67 135.41 118.11 143.27 118.31
  A 0.85 0.76 0.7 0 0 144.15 117.54
  L 144.04 112.55
  A 0.61 0.51 -0.5 0 0 143.43 112.05
  Z"
/>
<path fill="#000000" d="
  M 180.04 98.09
  Q 181.14 99.50 182.93 99.50
  L 200.51 99.50
  A 0.99 0.99 0.5 0 1 201.50 100.49
  L 201.50 112.01
  A 0.99 0.99 -0.5 0 1 200.51 113.00
  L 182.10 113.00
  A 2.73 2.72 -74.8 0 0 179.75 114.35
  C 178.25 116.92 180.62 118.24 182.92 118.27
  Q 201.82 118.58 220.55 118.25
  A 0.69 0.69 -0.4 0 1 221.25 118.94
  L 221.25 130.81
  A 0.75 0.75 0.0 0 1 220.50 131.56
  Q 198.75 131.63 176.74 131.31
  C 161.73 131.09 156.20 115.90 167.02 105.95
  A 0.82 0.82 -41.6 0 0 167.09 104.83
  C 161.63 98.21 160.13 89.01 167.06 83.08
  C 172.80 78.18 192.64 79.90 200.63 80.01
  A 0.88 0.88 0.3 0 1 201.50 80.89
  L 201.50 92.48
  A 0.77 0.77 0.5 0 1 200.73 93.25
  L 183.40 93.25
  Q 181.83 93.25 180.60 94.23
  Q 178.41 95.99 180.04 98.09
  Z"
/>
<path fill="#000000" d="
  M 248.53 118.43
  Q 282.90 118.12 317.72 118.24
  C 330.69 118.29 317.49 108.14 324.29 103.39
  C 329.86 99.50 336.35 104.11 338.32 109.73
  C 342.48 121.58 333.79 132.08 321.73 131.63
  Q 318.34 131.50 318.26 131.50
  Q 276.10 131.56 232.77 131.50
  A 1.03 1.02 -90.0 0 1 231.75 130.47
  C 231.75 125.63 231.53 120.81 231.85 116.26
  C 232.16 111.82 228.17 112.50 225.33 112.50
  A 0.57 0.56 0.5 0 1 224.76 111.93
  L 224.80 99.56
  A 0.55 0.52 88.9 0 1 225.30 99.01
  L 232.70 98.68
  A 1.66 1.18 16.0 0 0 233.58 98.37
  Q 236.82 95.66 233.87 93.96
  C 231.46 92.57 225.16 93.25 222.01 93.25
  A 0.76 0.76 89.7 0 0 221.25 94.01
  L 221.25 114.19
  A 1.04 1.01 -89.7 0 1 220.23 115.23
  L 207.10 115.05
  A 1.25 1.19 -89.5 0 1 205.93 113.80
  L 205.93 81.07
  A 0.82 0.82 0.0 0 1 206.75 80.25
  Q 220.12 80.25 233.00 80.27
  C 249.04 80.30 256.30 95.58 244.81 107.89
  A 0.99 0.98 46.9 0 0 244.77 109.19
  Q 247.90 113.01 247.25 116.94
  A 1.28 1.28 -85.7 0 0 248.53 118.43
  Z"
/>
<circle fill="#000000" cx="54.60" cy="99.44" r="4.86"/>
<circle fill="#000000" cx="81.95" cy="99.44" r="4.86"/>
<circle fill="#000000" cx="348.18" cy="125.18" r="6.20"/>
<path fill="#000000" d="
  M 58.33 209.99
  C 36.84 211.86 18.35 205.54 11.69 183.56
  C 4.17 158.78 23.12 135.89 48.50 135.96
  Q 61.50 136.00 75.14 136.00
  A 1.12 1.11 -90.0 0 1 76.25 137.12
  Q 76.06 171.62 76.01 206.44
  Q 76.00 213.25 74.66 216.90
  C 71.43 225.68 63.94 230.65 54.61 230.85
  Q 35.90 231.27 17.18 230.82
  A 0.52 0.51 0.0 0 1 16.67 230.32
  L 16.44 216.22
  A 0.72 0.70 -0.8 0 1 17.16 215.50
  Q 35.50 215.50 53.50 215.51
  Q 57.89 215.52 59.72 212.09
  Q 60.96 209.76 58.33 209.99
  Z
  M 33.75 188.12
  C 39.36 195.07 47.49 195.18 55.91 194.81
  C 59.96 194.63 60.27 195.56 60.24 190.97
  Q 60.12 171.52 60.43 152.31
  A 0.79 0.79 -89.3 0 0 59.64 151.50
  C 49.00 151.50 38.05 149.68 32.00 160.25
  Q 23.39 175.29 33.75 188.12
  Z"
/>
<path fill="#000000" d="
  M 133.49 168.94
  C 134.26 161.75 135.93 151.75 126.04 151.75
  Q 108.83 151.75 90.82 151.75
  A 0.76 0.75 0.0 0 1 90.06 151.00
  L 90.01 136.83
  A 0.84 0.82 -0.3 0 1 90.85 136.00
  Q 106.88 136.00 122.29 136.00
  Q 130.97 136.00 135.04 137.43
  C 144.86 140.89 149.18 149.06 149.32 159.14
  Q 149.67 183.56 149.49 209.11
  A 1.15 1.15 -89.7 0 1 148.34 210.25
  Q 127.75 210.25 108.25 210.16
  Q 99.66 210.12 93.93 205.18
  C 81.19 194.22 86.42 172.61 103.36 169.73
  C 110.69 168.48 123.77 169.52 132.95 169.44
  A 0.56 0.54 -87.1 0 0 133.49 168.94
  Z
  M 102.69 194.56
  C 105.14 196.68 106.74 196.51 109.73 196.50
  Q 121.10 196.46 132.97 196.57
  A 0.73 0.70 0.0 0 0 133.70 195.87
  L 133.69 184.30
  A 1.34 1.31 -0.2 0 0 132.35 183.00
  Q 122.27 183.00 111.69 183.00
  Q 106.24 183.00 105.34 183.24
  C 100.46 184.56 98.47 190.93 102.69 194.56
  Z"
/>
<path fill="#000000" d="
  M 178.31 152.07
  L 178.19 209.08
  A 1.12 1.10 -89.7 0 1 177.09 210.19
  L 163.51 210.25
  A 0.83 0.82 -90.0 0 1 162.69 209.42
  L 162.69 136.72
  A 0.72 0.72 0.0 0 1 163.41 136.00
  Q 197.13 136.00 230.50 136.00
  C 243.12 136.00 251.50 143.63 251.50 156.75
  Q 251.50 182.50 251.50 209.44
  A 0.81 0.81 0.0 0 1 250.69 210.25
  L 236.87 210.25
  A 1.05 1.05 -89.5 0 1 235.82 209.18
  Q 236.17 182.79 235.95 156.16
  C 235.93 153.67 234.90 151.50 232.25 151.50
  Q 223.50 151.50 215.10 151.50
  A 0.85 0.85 0.0 0 0 214.25 152.35
  L 214.25 209.16
  A 1.09 1.09 0.0 0 1 213.16 210.25
  L 199.99 210.25
  A 1.24 1.24 0.0 0 1 198.75 209.01
  L 198.75 152.38
  A 0.88 0.88 0.0 0 0 197.87 151.50
  L 178.82 151.56
  A 0.51 0.51 0.0 0 0 178.31 152.07
  Z"
/>
<path fill="#000000" d="
  M 281.41 181.12
  C 286.81 197.63 303.84 195.13 317.20 194.56
  A 0.95 0.95 -1.8 0 1 318.19 195.49
  C 318.27 199.65 318.08 203.92 318.32 208.12
  C 318.48 210.91 316.19 210.23 314.40 210.27
  Q 300.39 210.60 293.00 209.75
  C 280.23 208.28 269.01 198.42 264.44 186.68
  C 257.24 168.22 265.88 146.66 284.43 138.96
  C 294.76 134.67 308.80 135.92 317.57 136.17
  A 0.54 0.53 0.6 0 1 318.09 136.69
  L 318.23 150.59
  A 0.93 0.90 -0.3 0 1 317.30 151.50
  C 303.54 151.50 288.06 147.92 281.60 164.41
  A 0.48 0.48 10.7 0 0 282.05 165.07
  L 317.51 165.00
  A 0.68 0.67 -0.0 0 1 318.19 165.67
  L 318.25 179.95
  A 0.56 0.55 -0.0 0 1 317.69 180.50
  L 281.86 180.50
  A 0.47 0.47 81.0 0 0 281.41 181.12
  Z"
/>
<path fill="#000000" d="
  M 373.08 142.26
  C 384.80 134.24 398.70 136.00 412.33 136.00
  A 0.65 0.63 0.4 0 1 412.98 136.64
  L 412.83 150.81
  A 0.54 0.52 -1.1 0 1 412.31 151.33
  C 397.21 151.96 382.04 147.51 376.04 165.95
  C 372.96 175.40 376.80 189.28 387.15 193.33
  C 393.47 195.80 404.75 194.88 411.67 194.58
  A 1.28 1.28 -1.1 0 1 413.00 195.86
  L 413.00 209.15
  A 1.10 1.10 -0.3 0 1 411.91 210.25
  C 402.58 210.37 390.93 210.95 382.85 208.59
  C 353.16 199.92 347.51 159.76 373.08 142.26
  Z"
/>
<path fill="#000000" d="
  M 456.1255 210.0699
  A 36.96 36.19 90.1 0 1 420.0001 173.0468
  A 36.96 36.19 90.1 0 1 456.2545 136.1501
  A 36.96 36.19 90.1 0 1 492.3799 173.1732
  A 36.96 36.19 90.1 0 1 456.1255 210.0699
  Z
  M 456.2525 194.5200
  A 21.46 18.04 90.1 0 0 474.3300 173.0915
  A 21.46 18.04 90.1 0 0 456.3275 151.6000
  A 21.46 18.04 90.1 0 0 438.2500 173.0285
  A 21.46 18.04 90.1 0 0 456.2525 194.5200
  Z"
/>
<path fill="#000000" d="
  M 517.56 209.58
  A 0.61 0.60 -90.0 0 1 516.96 210.19
  L 503.24 210.25
  A 1.00 0.99 90.0 0 1 502.25 209.25
  L 502.18 136.69
  A 0.63 0.63 0.0 0 1 502.81 136.06
  Q 533.81 135.96 565.00 135.99
  Q 575.33 136.00 579.30 137.58
  C 586.82 140.56 590.68 147.04 590.82 155.12
  Q 591.29 182.35 590.81 209.74
  A 0.53 0.52 0.6 0 1 590.28 210.25
  L 576.52 210.25
  A 1.02 1.02 -89.6 0 1 575.50 209.23
  Q 575.55 182.19 575.44 155.84
  C 575.43 152.56 573.79 151.50 570.75 151.50
  Q 562.63 151.50 554.85 151.50
  A 0.85 0.85 0.2 0 0 554.00 152.35
  L 554.00 209.16
  A 1.09 1.09 -0.0 0 1 552.91 210.25
  L 539.24 210.25
  A 0.68 0.67 0.0 0 1 538.56 209.58
  L 538.50 152.28
  A 0.78 0.78 89.9 0 0 537.72 151.50
  L 518.35 151.50
  A 0.85 0.85 0.2 0 0 517.50 152.35
  L 517.56 209.58
  Z"
/>
<path fill="#000000" d="
  M 332.41 212.01
  Q 330.29 211.08 329.30 213.18
  Q 326.75 218.58 323.15 215.02
  Q 321.20 213.09 323.05 211.07
  Q 325.31 208.61 327.69 210.60
  A 0.85 0.60 47.0 0 0 328.53 210.77
  Q 329.20 210.39 328.23 209.51
  C 324.11 205.77 323.06 200.57 325.56 195.56
  Q 329.08 188.48 338.94 189.31
  A 1.99 1.94 31.0 0 0 340.12 189.03
  C 343.14 187.17 349.80 184.24 353.30 185.66
  C 359.39 188.13 350.34 197.58 348.17 199.72
  A 1.29 1.21 70.4 0 0 347.80 200.57
  C 347.52 208.11 339.77 215.24 332.41 212.01
  Z
  M 347.72 196.92
  Q 351.03 193.54 352.68 190.43
  C 356.06 184.05 344.09 189.25 342.61 189.87
  Q 341.21 190.47 342.51 191.26
  Q 345.46 193.04 346.87 196.74
  A 0.52 0.51 56.7 0 0 347.72 196.92
  Z"
/>
</svg>
