<?xml version="1.0" encoding="UTF-8" standalone="no"?>
<!DOCTYPE svg PUBLIC "-//W3C//DTD SVG 1.1//EN" "http://www.w3.org/Graphics/SVG/1.1/DTD/svg11.dtd">
<svg xmlns="http://www.w3.org/2000/svg" version="1.1" viewBox="0 0 600 300">
<g stroke-width="2.00" fill="none" stroke-linecap="butt">
<path stroke="#aa833e" vector-effect="non-scaling-stroke" d="
  M 492.00 38.71
  Q 477.85 39.32 463.69 38.81
  Q 463.15 38.79 462.49 39.81"
/>
<path stroke="#ac8640" vector-effect="non-scaling-stroke" d="
  M 401.29 39.74
  Q 386.35 38.61 371.50 38.71"
/>
<path stroke="#b8924a" vector-effect="non-scaling-stroke" d="
  M 494.55 45.19
  Q 479.06 44.77 463.51 45.39"
/>
<path stroke="#c8a85c" vector-effect="non-scaling-stroke" d="
  M 399.50 50.54
  L 367.45 50.29"
/>
<path stroke="#c6a559" vector-effect="non-scaling-stroke" d="
  M 496.34 51.38
  Q 480.14 49.36 464.10 51.54"
/>
<path stroke="#d2b465" vector-effect="non-scaling-stroke" d="
  M 399.21 81.50
  C 399.45 85.05 397.62 83.51 396.06 83.49
  Q 381.53 83.30 367.00 83.79"
/>
<path stroke="#d5b969" vector-effect="non-scaling-stroke" d="
  M 498.29 63.50
  Q 498.08 65.85 497.67 62.95
  A 0.94 0.93 -5.7 0 0 496.69 62.15
  Q 485.50 62.81 476.00 62.24
  Q 470.33 61.89 464.79 63.00"
/>
<path stroke="#be9c52" vector-effect="non-scaling-stroke" d="
  M 492.47 96.42
  L 462.62 95.84"
/>
<path stroke="#ac8640" vector-effect="non-scaling-stroke" d="
  M 487.03 106.86
  Q 479.84 106.21 477.75 106.25
  Q 468.76 106.44 459.79 106.00"
/>
<path stroke="#aa833e" vector-effect="non-scaling-stroke" d="
  M 466.50 127.21
  Q 466.40 126.29 465.06 126.31
  Q 461.40 126.38 445.49 125.58"
/>
<path stroke="#d0b364" vector-effect="non-scaling-stroke" d="
  M 494.95 89.29
  L 463.78 88.55"
/>
<path stroke="#ad8741" vector-effect="non-scaling-stroke" d="
  M 402.56 102.20
  L 374.30 103.60"
/>
<path stroke="#ab843e" vector-effect="non-scaling-stroke" d="
  M 418.74 125.84
  L 398.81 126.30
  A 0.56 0.51 -0.6 0 0 398.26 126.81
  L 398.25 127.96"
/>
<path stroke="#c09e54" vector-effect="non-scaling-stroke" d="
  M 401.04 95.99
  Q 388.59 97.46 378.00 96.75
  Q 374.12 96.49 371.29 97.75"
/>
<path stroke="#ac8640" vector-effect="non-scaling-stroke" d="
  M 173.24 38.64
  Q 155.12 39.32 142.50 38.75
  Q 138.94 38.59 136.91 40.47"
/>
<path stroke="#ac8640" vector-effect="non-scaling-stroke" d="
  M 128.21 39.25
  C 125.92 40.37 123.72 38.22 121.54 40.75"
/>
<path stroke="#c1a055" vector-effect="non-scaling-stroke" d="
  M 183.56 51.52
  Q 182.43 50.64 181.27 50.79
  Q 179.74 50.98 179.71 50.98
  Q 162.84 50.63 145.98 51.53"
/>
<path stroke="#c6a65a" vector-effect="non-scaling-stroke" d="
  M 128.21 51.25
  Q 128.17 49.31 127.80 49.75
  A 0.74 0.58 -57.8 0 1 127.09 50.01
  Q 124.14 48.98 121.54 50.75"
/>
<path stroke="#d4b768" vector-effect="non-scaling-stroke" d="
  M 189.55 58.91
  Q 170.34 59.71 159.25 59.25
  Q 156.23 59.12 154.46 59.80
  Q 154.15 59.92 153.51 59.88
  Q 152.82 59.83 153.50 61.04"
/>
<path stroke="#cdaf61" vector-effect="non-scaling-stroke" d="
  M 128.23 90.91
  Q 125.14 91.24 122.13 90.82
  C 121.80 90.78 121.67 90.98 121.54 90.25"
/>
<path stroke="#d5b969" vector-effect="non-scaling-stroke" d="
  M 217.25 85.28
  Q 198.77 84.32 180.29 84.73
  C 178.01 84.78 176.31 84.33 174.33 85.76
  A 0.46 0.40 56.0 0 1 173.73 85.60
  Q 173.34 85.01 172.54 85.00"
/>
<path stroke="#b7934a" vector-effect="non-scaling-stroke" d="
  M 128.21 98.00
  Q 127.77 99.76 127.75 98.36
  A 0.24 0.23 83.3 0 0 127.46 98.13
  Q 124.37 98.83 121.54 98.25"
/>
<path stroke="#caab5e" vector-effect="non-scaling-stroke" d="
  M 217.24 90.78
  Q 199.11 90.29 181.00 90.49
  Q 179.69 90.50 178.52 90.98
  A 0.59 0.54 61.5 0 1 177.84 90.74
  Q 177.39 90.06 176.54 90.00"
/>
<path stroke="#d0b364" vector-effect="non-scaling-stroke" d="
  M 217.21 61.00
  Q 213.85 59.99 210.47 60.94
  A 0.30 0.29 -7.9 0 0 210.25 61.22
  Q 210.24 62.77 209.79 61.00"
/>
<path stroke="#c09d52" vector-effect="non-scaling-stroke" d="
  M 217.23 96.10
  Q 199.57 95.03 181.97 96.38"
/>
<path stroke="#b48f48" vector-effect="non-scaling-stroke" d="
  M 217.21 44.00
  L 210.81 43.78
  A 0.70 0.67 8.4 0 0 210.12 44.27
  L 209.79 45.50"
/>
<path stroke="#b18a43" vector-effect="non-scaling-stroke" d="
  M 217.21 104.75
  Q 217.18 102.82 216.00 102.75
  C 215.10 102.70 190.40 101.39 188.18 103.11
  A 0.44 0.37 52.0 0 1 187.62 102.99
  Q 187.35 102.64 186.79 102.75"
/>
<path stroke="#ac8640" vector-effect="non-scaling-stroke" d="
  M 285.46 39.00
  Q 284.96 37.06 284.94 39.10
  Q 284.94 39.41 284.69 39.21
  C 283.29 38.06 259.08 38.88 255.52 38.88"
/>
<path stroke="#bf9d52" vector-effect="non-scaling-stroke" d="
  M 285.46 52.00
  Q 285.27 48.33 284.89 50.44
  A 0.41 0.40 15.1 0 1 284.35 50.74
  C 283.05 50.26 281.69 50.75 280.79 50.73
  Q 268.65 50.47 256.51 50.74
  A 0.65 0.59 -5.9 0 1 255.87 50.27
  L 255.54 48.75"
/>
<path stroke="#ceb062" vector-effect="non-scaling-stroke" d="
  M 285.46 58.00
  C 285.28 57.35 285.35 52.32 285.00 54.26
  A 0.94 0.94 -82.8 0 1 284.01 55.03
  Q 281.48 54.85 278.78 55.04
  C 271.27 55.59 263.76 54.81 256.18 55.28
  A 0.58 0.58 -88.8 0 0 255.64 55.80
  L 255.29 59.25"
/>
<path stroke="#d9be6e" vector-effect="non-scaling-stroke" d="
  M 320.46 66.50
  Q 320.42 64.56 320.05 65.00
  A 0.45 0.40 -50.4 0 1 319.47 65.09
  Q 318.70 64.47 317.19 64.44
  Q 306.47 64.18 295.75 64.25
  Q 294.30 64.26 292.65 63.33
  A 0.61 0.56 53.0 0 0 292.32 63.27
  Q 291.79 63.36 292.28 63.52
  Q 292.42 63.56 292.27 63.57
  Q 275.64 64.53 257.17 64.22
  A 1.17 1.12 0.0 0 0 255.98 65.36
  L 256.22 78.96
  A 0.83 0.80 0.0 0 0 257.04 79.75
  Q 269.56 79.77 280.48 79.75
  C 282.05 79.75 283.50 80.28 284.56 78.75
  Q 284.81 78.37 284.82 78.81
  Q 284.98 84.89 285.46 80.25"
/>
<path stroke="#ceb062" vector-effect="non-scaling-stroke" d="
  M 285.46 88.00
  Q 285.06 94.53 285.00 89.04
  C 285.00 88.44 285.41 86.01 284.21 87.77
  A 0.98 0.90 -71.0 0 1 283.45 88.18
  L 256.57 87.94
  A 0.51 0.49 90.0 0 1 256.09 87.44
  Q 256.07 86.31 255.29 85.50"
/>
<path stroke="#bf9d52" vector-effect="non-scaling-stroke" d="
  M 285.46 92.25
  L 285.18 95.21
  Q 285.16 95.43 285.06 95.24
  Q 284.83 94.79 284.31 95.31
  Q 270.31 95.07 256.31 95.43
  A 0.54 0.53 -2.8 0 1 255.76 94.94
  L 255.29 88.50"
/>
<path stroke="#ceb062" vector-effect="non-scaling-stroke" d="
  M 320.46 59.75
  Q 320.52 58.47 319.79 57.65
  A 1.19 0.93 -16.6 0 0 318.94 57.32
  C 315.61 57.37 308.84 57.91 307.50 55.71"
/>
<path stroke="#d5b969" vector-effect="non-scaling-stroke" d="
  M 320.46 79.50
  Q 320.59 81.69 318.25 81.25
  Q 315.58 80.75 310.50 82.04"
/>
<path stroke="#ad8741" vector-effect="non-scaling-stroke" d="
  M 285.46 106.25
  Q 284.98 111.20 284.94 106.15
  Q 284.94 105.88 284.78 106.11
  C 284.56 106.45 260.33 106.24 257.78 106.25
  C 256.94 106.25 255.71 107.10 255.89 105.39
  Q 255.91 105.18 255.76 105.34
  Q 255.50 105.61 255.29 105.00"
/>
<path stroke="#bb984f" vector-effect="non-scaling-stroke" d="
  M 320.46 46.25
  Q 319.96 44.31 319.94 46.35
  Q 319.94 46.66 319.66 46.48
  Q 318.89 45.97 317.97 46.13
  Q 317.42 46.22 317.01 46.15
  Q 314.40 45.72 312.30 46.97"
/>
<path stroke="#aa823d" vector-effect="non-scaling-stroke" d="
  M 348.71 128.25
  Q 348.00 129.83 348.00 127.96
  A 0.49 0.48 87.8 0 0 347.48 127.47
  C 326.03 128.90 304.31 127.63 282.83 127.86
  Q 260.56 128.11 238.29 127.85"
/>
<path stroke="#ad8741" vector-effect="non-scaling-stroke" d="
  M 351.96 108.25
  C 351.97 106.37 351.09 107.25 350.27 107.27
  Q 346.14 107.36 342.48 106.13"
/>
<path stroke="#b58f46" vector-effect="non-scaling-stroke" d="
  M 220.21 169.75
  Q 216.95 170.52 213.96 169.00"
/>
<path stroke="#a27a37" vector-effect="non-scaling-stroke" d="
  M 220.21 176.25
  Q 206.79 175.18 193.48 176.72"
/>
<path stroke="#86612b" vector-effect="non-scaling-stroke" d="
  M 220.21 193.75
  Q 219.62 194.58 219.65 193.32
  Q 219.67 192.91 219.58 193.30
  L 219.42 194.07
  A 0.60 0.59 -82.0 0 1 218.81 194.54
  L 211.61 194.22
  A 1.28 1.28 17.6 0 0 210.46 194.81
  Q 209.76 195.91 208.75 195.29"
/>
<path stroke="#b58f46" vector-effect="non-scaling-stroke" d="
  M 201.06 169.94
  Q 194.98 171.81 188.47 171.52
  C 187.66 171.49 187.18 171.88 187.25 172.71"
/>
<path stroke="#b08942" vector-effect="non-scaling-stroke" d="
  M 161.08 172.48
  Q 157.73 169.86 152.75 171.00
  Q 146.59 172.41 138.95 170.11"
/>
<path stroke="#986f31" vector-effect="non-scaling-stroke" d="
  M 146.51 184.15
  Q 136.58 182.92 128.25 183.50
  Q 125.80 183.67 124.19 182.40
  A 0.80 0.69 -36.4 0 0 123.40 182.34
  Q 122.98 182.53 122.50 182.46"
/>
<path stroke="#815d29" vector-effect="non-scaling-stroke" d="
  M 140.58 195.78
  Q 132.23 195.21 124.00 196.00
  Q 121.76 196.21 114.43 195.60
  A 0.60 0.47 88.2 0 1 113.98 195.07
  Q 113.93 194.46 113.21 194.25"
/>
<path stroke="#6d4f26" vector-effect="non-scaling-stroke" d="
  M 137.46 207.50
  Q 136.11 208.87 134.64 207.82
  A 1.72 0.98 50.1 0 0 133.76 207.49
  L 108.32 207.92
  A 0.86 0.71 73.8 0 1 107.64 207.46
  L 107.25 206.71"
/>
<path stroke="#6b4e26" vector-effect="non-scaling-stroke" d="
  M 135.21 234.50
  Q 134.61 236.17 134.52 234.85
  A 0.38 0.37 87.5 0 0 134.15 234.50
  L 104.81 234.56
  A 1.23 0.99 16.7 0 0 103.95 234.91
  Q 103.19 235.74 103.21 237.00"
/>
<path stroke="#7a592a" vector-effect="non-scaling-stroke" d="
  M 135.46 236.50
  Q 134.81 237.11 134.90 238.02
  A 0.35 0.33 -88.3 0 1 134.51 238.41
  Q 133.10 238.17 132.56 238.19
  Q 122.39 238.59 105.50 238.25
  Q 104.09 238.22 103.46 239.75"
/>
<path stroke="#8e6930" vector-effect="non-scaling-stroke" d="
  M 136.05 246.37
  Q 124.52 245.86 106.31 246.31
  Q 104.81 246.35 104.71 247.75"
/>
<path stroke="#8e6930" vector-effect="non-scaling-stroke" d="
  M 140.46 266.75
  Q 139.71 268.51 137.75 268.44
  Q 125.87 268.04 114.03 269.14"
/>
<path stroke="#725429" vector-effect="non-scaling-stroke" d="
  M 147.50 279.21
  L 147.33 280.21
  A 0.65 0.55 5.1 0 1 146.68 280.67
  Q 136.18 280.27 125.70 281.63"
/>
<path stroke="#584125" vector-effect="non-scaling-stroke" d="
  M 153.28 284.66
  L 131.72 286.17"
/>
<path stroke="#614828" vector-effect="non-scaling-stroke" d="
  M 221.96 279.50
  L 221.72 282.50
  A 0.45 0.40 -83.3 0 1 221.25 282.92
  C 212.12 281.55 203.16 282.79 192.34 282.36"
/>
<path stroke="#815d2b" vector-effect="non-scaling-stroke" d="
  M 221.96 271.25
  L 221.52 273.45
  A 0.59 0.58 5.3 0 1 220.94 273.92
  L 192.76 273.94"
/>
<path stroke="#946c2f" vector-effect="non-scaling-stroke" d="
  M 221.96 266.75
  C 221.70 267.43 221.82 272.45 221.51 269.86
  A 0.85 0.84 -1.2 0 0 220.73 269.12
  C 211.16 268.50 201.99 268.81 192.74 269.09"
/>
<path stroke="#906a30" vector-effect="non-scaling-stroke" d="
  M 223.79 248.75
  Q 207.30 247.23 191.15 248.52"
/>
<path stroke="#b18a43" vector-effect="non-scaling-stroke" d="
  M 464.00 170.96
  Q 459.68 172.00 455.26 171.93
  C 450.59 171.85 447.38 172.20 443.25 172.54"
/>
<path stroke="#b48d45" vector-effect="non-scaling-stroke" d="
  M 419.36 172.92
  Q 410.83 171.22 401.06 171.44
  Q 400.08 171.46 400.25 170.54"
/>
<path stroke="#a07836" vector-effect="non-scaling-stroke" d="
  M 414.61 176.28
  Q 408.14 173.93 401.25 175.25
  Q 399.58 175.57 394.25 174.21"
/>
<path stroke="#a17937" vector-effect="non-scaling-stroke" d="
  M 470.25 174.54
  Q 471.09 175.35 470.77 176.09
  A 1.03 0.72 2.5 0 1 470.01 176.57
  C 463.41 177.44 456.96 175.85 450.50 177.29"
/>
<path stroke="#84602b" vector-effect="non-scaling-stroke" d="
  M 402.96 196.00
  Q 391.32 195.10 379.65 195.70
  C 377.66 195.80 376.16 196.70 374.79 194.50"
/>
<path stroke="#8a662f" vector-effect="non-scaling-stroke" d="
  M 404.87 270.64
  Q 402.52 272.58 398.00 272.00
  Q 390.07 270.97 378.75 272.54"
/>
<path stroke="#523d25" vector-effect="non-scaling-stroke" d="
  M 419.26 288.24
  Q 413.87 289.57 406.75 289.00
  Q 403.09 288.71 398.00 289.79"
/>
<path stroke="#7d5a29" vector-effect="non-scaling-stroke" d="
  M 490.25 197.21
  Q 489.05 199.18 487.18 198.25
  Q 486.68 198.00 486.25 197.98
  Q 474.03 197.48 461.75 198.35"
/>
<path stroke="#523d25" vector-effect="non-scaling-stroke" d="
  M 465.78 289.66
  Q 457.58 287.20 449.00 288.50
  Q 448.03 288.65 445.66 287.55"
/>
<path stroke="#684d29" vector-effect="non-scaling-stroke" d="
  M 474.62 283.10
  Q 464.36 280.97 455.25 282.25
  Q 453.34 282.52 452.50 281.46"
/>
<path stroke="#6d4f26" vector-effect="non-scaling-stroke" d="
  M 400.46 206.77
  Q 387.63 207.30 374.75 207.25
  Q 370.88 207.23 369.25 206.46"
/>
<path stroke="#916a2e" vector-effect="non-scaling-stroke" d="
  M 481.04 184.00
  Q 481.11 184.99 481.64 185.79
  A 0.41 0.39 61.7 0 1 481.48 186.39
  Q 479.41 187.21 476.25 187.00
  Q 469.16 186.52 457.54 187.25"
/>
<path stroke="#87642f" vector-effect="non-scaling-stroke" d="
  M 483.08 274.19
  Q 470.53 272.38 457.79 272.75"
/>
<path stroke="#906a30" vector-effect="non-scaling-stroke" d="
  M 399.70 249.51
  L 367.98 250.19"
/>
<path stroke="#6a4d26" vector-effect="non-scaling-stroke" d="
  M 494.96 208.25
  C 494.68 209.64 494.42 210.09 492.95 210.03
  Q 479.13 209.41 465.31 209.92
  A 1.22 1.12 63.9 0 1 464.46 209.59
  L 463.54 208.75"
/>
<path stroke="#684c27" vector-effect="non-scaling-stroke" d="
  M 498.29 234.25
  Q 498.65 232.28 497.07 232.00
  Q 493.15 231.29 489.18 231.41
  C 482.24 231.61 475.29 231.51 468.35 231.44
  C 467.57 231.44 466.46 231.85 465.71 231.38
  A 0.29 0.29 21.3 0 0 465.27 231.57
  Q 465.17 232.09 464.79 232.50"
/>
<path stroke="#6b4f2a" vector-effect="non-scaling-stroke" d="
  M 409.51 279.50
  Q 400.30 280.74 392.50 280.25
  Q 388.92 280.03 386.25 281.29"
/>
<path stroke="#755629" vector-effect="non-scaling-stroke" d="
  M 398.71 235.75
  Q 398.25 234.94 397.74 236.10
  A 0.73 0.68 -76.3 0 1 397.07 236.54
  Q 382.06 235.79 367.05 236.49
  C 366.30 236.52 365.80 235.91 365.71 237.50"
/>
<path stroke="#78582b" vector-effect="non-scaling-stroke" d="
  M 497.75 237.29
  Q 497.35 237.81 497.23 238.43
  Q 497.15 238.87 496.83 238.58
  Q 495.99 237.85 494.94 237.81
  Q 481.19 237.24 464.73 237.86"
/>
<path stroke="#8e6930" vector-effect="non-scaling-stroke" d="
  M 495.59 249.17
  Q 480.40 247.50 465.25 248.23
  A 0.74 0.52 75.5 0 1 464.68 247.75
  Q 464.52 247.35 464.04 247.25"
/>
<path stroke="#b48d45" vector-effect="non-scaling-stroke" d="
  M 349.21 170.77
  Q 328.73 170.86 308.25 171.12
  Q 300.95 171.21 288.26 170.85
  C 277.65 170.55 267.03 170.92 256.41 170.74
  Q 252.19 170.67 248.00 171.54"
/>
<path stroke="#a27a37" vector-effect="non-scaling-stroke" d="
  M 349.21 176.75
  Q 345.91 177.21 341.00 176.75
  Q 335.97 176.28 329.48 177.79"
/>
<path stroke="#a07836" vector-effect="non-scaling-stroke" d="
  M 288.71 178.50
  C 288.00 176.36 286.68 176.95 285.02 176.92
  Q 271.03 176.68 257.04 177.00"
/>
<path stroke="#86612b" vector-effect="non-scaling-stroke" d="
  M 349.21 196.25
  L 343.29 196.75"
/>
<path stroke="#84602b" vector-effect="non-scaling-stroke" d="
  M 288.46 194.75
  Q 272.93 196.05 269.00 195.50
  Q 264.47 194.86 259.88 194.82
  A 0.64 0.57 -67.6 0 0 259.39 195.06
  Q 259.00 195.53 258.95 194.71
  Q 258.92 194.40 258.75 194.67
  L 258.54 195.00"
/>
<path stroke="#6d4f26" vector-effect="non-scaling-stroke" d="
  M 288.46 203.75
  Q 288.87 206.61 286.93 206.60
  C 281.24 206.58 276.75 207.47 273.81 207.19
  Q 266.19 206.45 258.54 206.75"
/>
<path stroke="#755629" vector-effect="non-scaling-stroke" d="
  M 323.46 234.75
  Q 314.88 234.24 306.39 235.69"
/>
<path stroke="#755629" vector-effect="non-scaling-stroke" d="
  M 288.49 240.79
  L 270.36 240.73
  Q 269.71 240.72 269.34 240.68
  Q 263.19 239.87 258.56 241.09"
/>
<path stroke="#906a30" vector-effect="non-scaling-stroke" d="
  M 288.49 248.80
  L 274.24 247.34
  A 0.54 0.51 31.4 0 0 273.91 247.41
  L 273.75 247.50
  Q 273.47 247.67 273.07 247.68
  L 259.22 247.98
  A 0.24 0.23 88.8 0 0 259.00 248.22
  Q 258.99 249.77 258.54 248.00"
/>
<path stroke="#8e6930" vector-effect="non-scaling-stroke" d="
  M 288.48 268.75
  Q 273.46 268.21 258.51 268.75"
/>
<path stroke="#6f522a" vector-effect="non-scaling-stroke" d="
  M 288.75 278.73
  Q 273.36 279.66 258.00 279.21"
/>
<path stroke="#543f26" vector-effect="non-scaling-stroke" d="
  M 293.34 286.07
  Q 293.41 287.61 290.94 287.69
  Q 278.21 288.08 252.65 287.40"
/>
<path stroke="#604626" vector-effect="non-scaling-stroke" d="
  M 352.99 283.21
  Q 342.53 282.64 338.25 283.00
  Q 334.31 283.33 331.39 282.03"
/>
<path stroke="#85602b" vector-effect="non-scaling-stroke" d="
  M 354.46 274.50
  C 349.93 273.37 346.72 274.61 343.02 273.57
  A 0.39 0.31 -70.7 0 1 342.85 273.08
  Q 342.98 272.78 342.71 272.50"
/>
</g>
<path fill="#a27936" d="
  M 492.00 38.71
  Q 477.85 39.32 463.69 38.81
  Q 463.15 38.79 462.49 39.81
  C 459.48 24.50 451.63 9.91 434.50 8.25
  C 415.37 6.39 404.71 23.39 401.29 39.74
  Q 386.35 38.61 371.50 38.71
  C 384.40 8.50 416.64 -2.86 447.52 3.22
  Q 478.34 9.29 492.00 38.71
  Z"
/>
<path fill="#a27936" d="
  M 173.24 38.64
  Q 155.12 39.32 142.50 38.75
  Q 138.94 38.59 136.91 40.47
  L 128.80 30.43
  Q 127.99 29.42 128.02 30.74
  L 128.21 39.25
  C 125.92 40.37 123.72 38.22 121.54 40.75
  L 121.44 22.07
  A 1.33 1.33 -65.9 0 0 121.10 21.18
  C 118.30 18.03 112.49 10.90 107.46 8.46
  Q 107.10 8.29 106.50 8.30
  Q 104.23 8.34 105.00 4.51
  A 0.95 0.94 5.5 0 1 105.93 3.75
  L 143.99 3.75
  A 1.20 1.17 69.6 0 1 144.90 4.18
  L 173.24 38.64
  Z"
/>
<path fill="#a27936" d="
  M 217.21 44.00
  L 210.81 43.78
  A 0.70 0.67 8.4 0 0 210.12 44.27
  L 209.79 45.50
  Q 210.00 34.81 209.47 24.14
  C 208.98 14.30 203.07 8.63 192.76 9.22
  A 0.57 0.48 -2.2 0 1 192.16 8.76
  L 192.00 4.32
  A 0.57 0.49 -1.0 0 1 192.57 3.81
  L 232.62 3.75
  A 0.88 0.88 -87.9 0 1 233.50 4.63
  L 233.50 8.30
  A 1.20 1.19 -0.7 0 1 232.33 9.49
  Q 218.64 9.82 217.50 23.00
  Q 217.04 28.31 217.21 44.00
  Z"
/>
<path fill="#a27936" d="
  M 285.46 39.00
  Q 284.96 37.06 284.94 39.10
  Q 284.94 39.41 284.69 39.21
  C 283.29 38.06 259.08 38.88 255.52 38.88
  Q 255.37 29.78 255.11 20.92
  C 254.80 10.25 247.88 8.78 238.81 8.93
  A 0.51 0.49 -0.6 0 1 238.29 8.44
  L 238.26 4.26
  A 0.53 0.51 -0.0 0 1 238.79 3.75
  L 345.73 3.75
  A 0.52 0.52 -90.0 0 1 346.25 4.27
  L 346.25 40.99
  A 0.62 0.61 85.0 0 1 345.75 41.60
  Q 343.62 42.02 342.25 41.42
  A 1.04 0.87 -86.3 0 1 341.72 40.69
  C 336.26 10.93 317.29 10.64 292.13 11.25
  C 288.50 11.33 285.49 12.92 285.50 16.75
  Q 285.53 27.87 285.46 39.00
  Z"
/>
<path fill="#af8843" d="
  M 320.46 46.25
  Q 319.96 44.31 319.94 46.35
  Q 319.94 46.66 319.66 46.48
  Q 318.89 45.97 317.97 46.13
  Q 317.42 46.22 317.01 46.15
  Q 314.40 45.72 312.30 46.97
  Q 314.49 40.56 315.28 33.49
  A 0.55 0.55 2.9 0 1 315.83 33.00
  L 319.83 33.00
  A 0.67 0.66 -0.0 0 1 320.50 33.66
  L 320.46 46.25
  Z"
/>
<path fill="#b6924a" d="
  M 285.46 39.00
  L 285.46 52.00
  Q 285.27 48.33 284.89 50.44
  A 0.41 0.40 15.1 0 1 284.35 50.74
  C 283.05 50.26 281.69 50.75 280.79 50.73
  Q 268.65 50.47 256.51 50.74
  A 0.65 0.59 -5.9 0 1 255.87 50.27
  L 255.54 48.75
  L 255.52 38.88
  C 259.08 38.88 283.29 38.06 284.69 39.21
  Q 284.94 39.41 284.94 39.10
  Q 284.96 37.06 285.46 39.00
  Z"
/>
<path fill="#b6924a" d="
  M 173.24 38.64
  L 183.56 51.52
  Q 182.43 50.64 181.27 50.79
  Q 179.74 50.98 179.71 50.98
  Q 162.84 50.63 145.98 51.53
  L 136.91 40.47
  Q 138.94 38.59 142.50 38.75
  Q 155.12 39.32 173.24 38.64
  Z"
/>
<path fill="#b6924a" d="
  M 371.50 38.71
  Q 386.35 38.61 401.29 39.74
  L 399.50 50.54
  L 367.45 50.29
  Q 368.76 44.12 371.50 38.71
  Z"
/>
<path fill="#b28c45" d="
  M 492.00 38.71
  L 494.55 45.19
  Q 479.06 44.77 463.51 45.39
  L 462.49 39.81
  Q 463.15 38.79 463.69 38.81
  Q 477.85 39.32 492.00 38.71
  Z"
/>
<path fill="#b6924a" d="
  M 128.21 39.25
  L 128.21 51.25
  Q 128.17 49.31 127.80 49.75
  A 0.74 0.58 -57.8 0 1 127.09 50.01
  Q 124.14 48.98 121.54 50.75
  L 121.54 40.75
  C 123.72 38.22 125.92 40.37 128.21 39.25
  Z"
/>
<path fill="#c5a559" d="
  M 217.21 44.00
  L 217.21 61.00
  Q 213.85 59.99 210.47 60.94
  A 0.30 0.29 -7.9 0 0 210.25 61.22
  Q 210.24 62.77 209.79 61.00
  L 209.79 45.50
  L 210.12 44.27
  A 0.70 0.67 8.4 0 1 210.81 43.78
  L 217.21 44.00
  Z"
/>
<path fill="#bd984e" d="
  M 494.55 45.19
  L 496.34 51.38
  Q 480.14 49.36 464.10 51.54
  L 463.51 45.39
  Q 479.06 44.77 494.55 45.19
  Z"
/>
<path fill="#c7a75a" d="
  M 320.46 46.25
  L 320.46 59.75
  Q 320.52 58.47 319.79 57.65
  A 1.19 0.93 -16.6 0 0 318.94 57.32
  C 315.61 57.37 308.84 57.91 307.50 55.71
  Q 310.54 51.74 312.30 46.97
  Q 314.40 45.72 317.01 46.15
  Q 317.42 46.22 317.97 46.13
  Q 318.89 45.97 319.66 46.48
  Q 319.94 46.66 319.94 46.35
  Q 319.96 44.31 320.46 46.25
  Z"
/>
<path fill="#c7a75a" d="
  M 255.54 48.75
  L 255.87 50.27
  A 0.65 0.59 -5.9 0 0 256.51 50.74
  Q 268.65 50.47 280.79 50.73
  C 281.69 50.75 283.05 50.26 284.35 50.74
  A 0.41 0.40 15.1 0 0 284.89 50.44
  Q 285.27 48.33 285.46 52.00
  L 285.46 58.00
  C 285.28 57.35 285.35 52.32 285.00 54.26
  A 0.94 0.94 -82.8 0 1 284.01 55.03
  Q 281.48 54.85 278.78 55.04
  C 271.27 55.59 263.76 54.81 256.18 55.28
  A 0.58 0.58 -88.8 0 0 255.64 55.80
  L 255.29 59.25
  L 255.54 48.75
  Z"
/>
<path fill="#d5b969" d="
  M 128.21 51.25
  L 128.23 90.91
  Q 125.14 91.24 122.13 90.82
  C 121.80 90.78 121.67 90.98 121.54 90.25
  L 121.54 50.75
  Q 124.14 48.98 127.09 50.01
  A 0.74 0.58 -57.8 0 0 127.80 49.75
  Q 128.17 49.31 128.21 51.25
  Z"
/>
<path fill="#d9bd6d" d="
  M 367.45 50.29
  L 399.50 50.54
  Q 398.04 66.01 399.21 81.50
  C 399.45 85.05 397.62 83.51 396.06 83.49
  Q 381.53 83.30 367.00 83.79
  Q 363.45 66.86 367.45 50.29
  Z"
/>
<path fill="#ccae60" d="
  M 183.56 51.52
  L 189.55 58.91
  Q 170.34 59.71 159.25 59.25
  Q 156.23 59.12 154.46 59.80
  Q 154.15 59.92 153.51 59.88
  Q 152.82 59.83 153.50 61.04
  L 145.98 51.53
  Q 162.84 50.63 179.71 50.98
  Q 179.74 50.98 181.27 50.79
  Q 182.43 50.64 183.56 51.52
  Z"
/>
<path fill="#cfb163" d="
  M 496.34 51.38
  L 498.29 63.50
  Q 498.08 65.85 497.67 62.95
  A 0.94 0.93 -5.7 0 0 496.69 62.15
  Q 485.50 62.81 476.00 62.24
  Q 470.33 61.89 464.79 63.00
  L 464.10 51.54
  Q 480.14 49.36 496.34 51.38
  Z"
/>
<path fill="#d5b969" d="
  M 285.46 58.00
  L 285.62 61.81
  A 0.60 0.55 0.7 0 0 286.18 62.34
  C 294.41 62.82 301.58 61.98 307.50 55.71
  C 308.84 57.91 315.61 57.37 318.94 57.32
  A 1.19 0.93 -16.6 0 1 319.79 57.65
  Q 320.52 58.47 320.46 59.75
  L 320.46 66.50
  Q 320.42 64.56 320.05 65.00
  A 0.45 0.40 -50.4 0 1 319.47 65.09
  Q 318.70 64.47 317.19 64.44
  Q 306.47 64.18 295.75 64.25
  Q 294.30 64.26 292.65 63.33
  A 0.61 0.56 53.0 0 0 292.32 63.27
  Q 291.79 63.36 292.28 63.52
  Q 292.42 63.56 292.27 63.57
  Q 275.64 64.53 257.17 64.22
  A 1.17 1.12 0.0 0 0 255.98 65.36
  L 256.22 78.96
  A 0.83 0.80 0.0 0 0 257.04 79.75
  Q 269.56 79.77 280.48 79.75
  C 282.05 79.75 283.50 80.28 284.56 78.75
  Q 284.81 78.37 284.82 78.81
  Q 284.98 84.89 285.46 80.25
  L 285.46 88.00
  Q 285.06 94.53 285.00 89.04
  C 285.00 88.44 285.41 86.01 284.21 87.77
  A 0.98 0.90 -71.0 0 1 283.45 88.18
  L 256.57 87.94
  A 0.51 0.49 90.0 0 1 256.09 87.44
  Q 256.07 86.31 255.29 85.50
  L 255.29 59.25
  L 255.64 55.80
  A 0.58 0.58 -88.8 0 1 256.18 55.28
  C 263.76 54.81 271.27 55.59 278.78 55.04
  Q 281.48 54.85 284.01 55.03
  A 0.94 0.94 -82.8 0 0 285.00 54.26
  C 285.35 52.32 285.28 57.35 285.46 58.00
  Z"
/>
<path fill="#dbc06f" d="
  M 189.55 58.91
  L 208.69 82.32
  Q 209.75 83.61 209.75 81.96
  L 209.79 61.00
  Q 210.24 62.77 210.25 61.22
  A 0.30 0.29 -7.9 0 1 210.47 60.94
  Q 213.85 59.99 217.21 61.00
  L 217.25 85.28
  Q 198.77 84.32 180.29 84.73
  C 178.01 84.78 176.31 84.33 174.33 85.76
  A 0.46 0.40 56.0 0 1 173.73 85.60
  Q 173.34 85.01 172.54 85.00
  L 153.50 61.04
  Q 152.82 59.83 153.51 59.88
  Q 154.15 59.92 154.46 59.80
  Q 156.23 59.12 159.25 59.25
  Q 170.34 59.71 189.55 58.91
  Z"
/>
<path fill="#dbc06f" d="
  M 498.29 63.50
  Q 498.88 76.93 494.95 89.29
  L 463.78 88.55
  Q 465.06 75.43 464.79 63.00
  Q 470.33 61.89 476.00 62.24
  Q 485.50 62.81 496.69 62.15
  A 0.94 0.93 -5.7 0 1 497.67 62.95
  Q 498.08 65.85 498.29 63.50
  Z"
/>
<path fill="#ddc372" d="
  M 320.46 66.50
  L 320.46 79.50
  Q 320.59 81.69 318.25 81.25
  Q 315.58 80.75 310.50 82.04
  C 305.46 71.45 296.33 70.48 285.81 70.50
  A 0.52 0.48 89.4 0 0 285.33 71.03
  L 285.46 80.25
  Q 284.98 84.89 284.82 78.81
  Q 284.81 78.37 284.56 78.75
  C 283.50 80.28 282.05 79.75 280.48 79.75
  Q 269.56 79.77 257.04 79.75
  A 0.83 0.80 0.0 0 1 256.22 78.96
  L 255.98 65.36
  A 1.17 1.12 0.0 0 1 257.17 64.22
  Q 275.64 64.53 292.27 63.57
  Q 292.42 63.56 292.28 63.52
  Q 291.79 63.36 292.32 63.27
  A 0.61 0.56 53.0 0 1 292.65 63.33
  Q 294.30 64.26 295.75 64.25
  Q 306.47 64.18 317.19 64.44
  Q 318.70 64.47 319.47 65.09
  A 0.45 0.40 -50.4 0 0 320.05 65.00
  Q 320.42 64.56 320.46 66.50
  Z"
/>
<path fill="#ccae60" d="
  M 320.46 79.50
  L 320.45 98.44
  A 0.65 0.64 83.2 0 1 319.96 99.07
  Q 317.88 99.59 315.79 99.07
  A 0.75 0.70 -86.8 0 1 315.26 98.44
  Q 314.22 89.85 310.50 82.04
  Q 315.58 80.75 318.25 81.25
  Q 320.59 81.69 320.46 79.50
  Z"
/>
<path fill="#caaa5d" d="
  M 399.21 81.50
  Q 399.52 88.18 401.04 95.99
  Q 388.59 97.46 378.00 96.75
  Q 374.12 96.49 371.29 97.75
  Q 368.25 91.04 367.00 83.79
  Q 381.53 83.30 396.06 83.49
  C 397.62 83.51 399.45 85.05 399.21 81.50
  Z"
/>
<path fill="#cfb163" d="
  M 217.25 85.28
  L 217.24 90.78
  Q 199.11 90.29 181.00 90.49
  Q 179.69 90.50 178.52 90.98
  A 0.59 0.54 61.5 0 1 177.84 90.74
  Q 177.39 90.06 176.54 90.00
  L 172.54 85.00
  Q 173.34 85.01 173.73 85.60
  A 0.46 0.40 56.0 0 0 174.33 85.76
  C 176.31 84.33 178.01 84.78 180.29 84.73
  Q 198.77 84.32 217.25 85.28
  Z"
/>
<path fill="#c7a75a" d="
  M 255.29 85.50
  Q 256.07 86.31 256.09 87.44
  A 0.51 0.49 90.0 0 0 256.57 87.94
  L 283.45 88.18
  A 0.98 0.90 -71.0 0 0 284.21 87.77
  C 285.41 86.01 285.00 88.44 285.00 89.04
  Q 285.06 94.53 285.46 88.00
  L 285.46 92.25
  L 285.18 95.21
  Q 285.16 95.43 285.06 95.24
  Q 284.83 94.79 284.31 95.31
  Q 270.31 95.07 256.31 95.43
  A 0.54 0.53 -2.8 0 1 255.76 94.94
  L 255.29 88.50
  L 255.29 85.50
  Z"
/>
<path fill="#c5a559" d="
  M 463.78 88.55
  L 494.95 89.29
  L 492.47 96.42
  L 462.62 95.84
  L 463.78 88.55
  Z"
/>
<path fill="#b6924a" d="
  M 255.29 88.50
  L 255.76 94.94
  A 0.54 0.53 -2.8 0 0 256.31 95.43
  Q 270.31 95.07 284.31 95.31
  Q 284.83 94.79 285.06 95.24
  Q 285.16 95.43 285.18 95.21
  L 285.46 92.25
  L 285.46 106.25
  Q 284.98 111.20 284.94 106.15
  Q 284.94 105.88 284.78 106.11
  C 284.56 106.45 260.33 106.24 257.78 106.25
  C 256.94 106.25 255.71 107.10 255.89 105.39
  Q 255.91 105.18 255.76 105.34
  Q 255.50 105.61 255.29 105.00
  L 255.29 88.50
  Z"
/>
<path fill="#c5a559" d="
  M 176.54 90.00
  Q 177.39 90.06 177.84 90.74
  A 0.59 0.54 61.5 0 0 178.52 90.98
  Q 179.69 90.50 181.00 90.49
  Q 199.11 90.29 217.24 90.78
  L 217.23 96.10
  Q 199.57 95.03 181.97 96.38
  L 176.54 90.00
  Z"
/>
<path fill="#c5a559" d="
  M 121.54 90.25
  C 121.67 90.98 121.80 90.78 122.13 90.82
  Q 125.14 91.24 128.23 90.91
  L 128.21 98.00
  Q 127.77 99.76 127.75 98.36
  A 0.24 0.23 83.3 0 0 127.46 98.13
  Q 124.37 98.83 121.54 98.25
  L 121.54 90.25
  Z"
/>
<path fill="#b6924a" d="
  M 351.96 108.25
  C 351.97 106.37 351.09 107.25 350.27 107.27
  Q 346.14 107.36 342.48 106.13
  Q 346.33 99.10 348.55 91.67
  A 0.78 0.59 -79.2 0 1 349.18 91.10
  L 354.19 91.21
  A 0.52 0.45 -84.0 0 1 354.61 91.81
  L 351.96 108.25
  Z"
/>
<path fill="#b6924a" d="
  M 462.62 95.84
  L 492.47 96.42
  Q 490.26 101.95 487.03 106.86
  Q 479.84 106.21 477.75 106.25
  Q 468.76 106.44 459.79 106.00
  L 462.62 95.84
  Z"
/>
<path fill="#b6924a" d="
  M 401.04 95.99
  L 402.56 102.20
  L 374.30 103.60
  L 371.29 97.75
  Q 374.12 96.49 378.00 96.75
  Q 388.59 97.46 401.04 95.99
  Z"
/>
<path fill="#ba944b" d="
  M 217.23 96.10
  L 217.21 104.75
  Q 217.18 102.82 216.00 102.75
  C 215.10 102.70 190.40 101.39 188.18 103.11
  A 0.44 0.37 52.0 0 1 187.62 102.99
  Q 187.35 102.64 186.79 102.75
  L 181.97 96.38
  Q 199.57 95.03 217.23 96.10
  Z"
/>
<path fill="#a8803b" d="
  M 128.21 98.00
  C 128.46 112.78 126.86 126.00 146.44 125.82
  A 0.63 0.47 -0.6 0 1 147.08 126.29
  L 147.11 130.00
  A 0.86 0.75 -0.0 0 1 146.25 130.75
  L 103.81 130.75
  A 0.56 0.56 0.0 0 1 103.25 130.19
  L 103.25 126.30
  A 0.58 0.58 -1.6 0 1 103.80 125.72
  C 122.64 124.68 121.73 113.52 121.54 98.25
  Q 124.37 98.83 127.46 98.13
  A 0.24 0.23 83.3 0 1 127.75 98.36
  Q 127.77 99.76 128.21 98.00
  Z"
/>
<path fill="#a47b37" d="
  M 402.56 102.20
  Q 404.13 107.24 407.31 113.44
  Q 411.26 121.15 418.74 125.84
  L 398.81 126.30
  A 0.56 0.51 -0.6 0 0 398.26 126.81
  L 398.25 127.96
  Q 382.88 119.35 374.30 103.60
  L 402.56 102.20
  Z"
/>
<path fill="#a8803b" d="
  M 217.21 104.75
  L 217.25 133.47
  A 0.52 0.51 -90.0 0 1 216.74 133.99
  L 212.30 133.96
  A 1.14 0.95 67.3 0 1 211.49 133.54
  L 186.79 102.75
  Q 187.35 102.64 187.62 102.99
  A 0.44 0.37 52.0 0 0 188.18 103.11
  C 190.40 101.39 215.10 102.70 216.00 102.75
  Q 217.18 102.82 217.21 104.75
  Z"
/>
<path fill="#a47b37" d="
  M 255.29 105.00
  Q 255.50 105.61 255.76 105.34
  Q 255.91 105.18 255.89 105.39
  C 255.71 107.10 256.94 106.25 257.78 106.25
  C 260.33 106.24 284.56 106.45 284.78 106.11
  Q 284.94 105.88 284.94 106.15
  Q 284.98 111.20 285.46 106.25
  C 285.37 112.16 284.40 120.85 290.42 123.57
  C 294.39 125.36 302.98 124.47 308.00 124.39
  Q 330.33 124.04 342.48 106.13
  Q 346.14 107.36 350.27 107.27
  C 351.09 107.25 351.97 106.37 351.96 108.25
  L 348.71 128.25
  Q 348.00 129.83 348.00 127.96
  A 0.49 0.48 87.8 0 0 347.48 127.47
  C 326.03 128.90 304.31 127.63 282.83 127.86
  Q 260.56 128.11 238.29 127.85
  Q 237.30 125.49 240.75 125.71
  C 255.38 126.65 255.60 117.00 255.29 105.00
  Z"
/>
<path fill="#a27936" d="
  M 459.79 106.00
  Q 468.76 106.44 477.75 106.25
  Q 479.84 106.21 487.03 106.86
  Q 479.19 119.43 466.50 127.21
  Q 466.40 126.29 465.06 126.31
  Q 461.40 126.38 445.49 125.58
  Q 455.73 118.09 459.79 106.00
  Z"
/>
<path fill="#b28c45" d="
  M 418.74 125.84
  Q 432.13 131.66 445.49 125.58
  Q 461.40 126.38 465.06 126.31
  Q 466.40 126.29 466.50 127.21
  C 446.29 138.42 418.80 139.10 398.25 127.96
  L 398.26 126.81
  A 0.56 0.51 -0.6 0 1 398.81 126.30
  L 418.74 125.84
  Z"
/>
<path fill="#af8843" d="
  M 348.71 128.25
  L 348.18 131.26
  A 0.67 0.60 4.6 0 1 347.53 131.75
  L 238.86 131.75
  A 0.57 0.54 -0.0 0 1 238.29 131.21
  L 238.29 127.85
  Q 260.56 128.11 282.83 127.86
  C 304.31 127.63 326.03 128.90 347.48 127.47
  A 0.49 0.48 87.8 0 1 348.00 127.96
  Q 348.00 129.83 348.71 128.25
  Z"
/>
<path fill="#ddc372" d="
  M 188.32 151.52
  A 0.81 0.81 -66.7 0 1 188.66 152.38
  C 186.18 162.38 171.13 154.56 176.85 143.73
  C 179.44 138.82 185.64 138.07 188.48 143.42
  A 0.80 0.80 -30.9 0 1 188.22 144.45
  Q 186.14 145.86 185.59 144.79
  C 184.60 142.87 182.87 141.83 181.08 143.09
  C 175.22 147.18 182.26 160.14 185.77 151.15
  A 0.69 0.59 -74.1 0 1 186.44 150.71
  Q 187.27 150.83 188.32 151.52
  Z"
/>
<path fill="#dfc573" d="
  M 409.45 144.23
  C 410.15 138.27 419.63 138.22 420.62 143.95
  A 0.74 0.72 -20.3 0 1 420.26 144.71
  Q 418.15 145.91 417.19 143.56
  Q 416.16 141.06 413.31 142.81
  Q 411.29 144.05 413.07 145.27
  Q 414.43 146.20 416.04 146.47
  C 422.64 147.55 423.04 155.81 416.51 156.79
  Q 410.54 157.68 409.11 152.23
  A 0.85 0.77 64.6 0 1 409.36 151.40
  Q 410.30 150.63 411.49 151.10
  A 1.41 0.98 80.9 0 1 412.14 151.77
  C 415.02 157.92 420.82 150.91 416.69 150.06
  C 413.45 149.40 409.02 147.90 409.45 144.23
  Z"
/>
<path fill="#dfc573" d="
  M 444.50 150.00
  C 427.18 146.59 445.74 132.68 448.50 143.77
  A 1.02 1.01 -13.1 0 1 447.72 145.01
  Q 445.69 145.42 445.00 143.50
  Q 443.96 140.58 441.00 143.00
  Q 439.34 144.36 440.81 145.24
  Q 442.14 146.03 443.65 146.37
  C 450.76 147.95 450.78 156.22 444.28 156.99
  Q 438.94 157.61 436.93 152.33
  A 0.88 0.88 70.8 0 1 437.49 151.17
  C 440.28 150.28 439.63 151.74 440.80 153.03
  Q 443.32 155.82 445.94 152.44
  Q 447.39 150.57 444.50 150.00
  Z"
/>
<path fill="#dfc573" d="
  M 111.94 152.79
  L 107.33 152.77
  A 1.43 1.33 -85.8 0 0 106.00 154.00
  Q 105.49 157.74 102.28 156.62
  A 0.49 0.47 -69.7 0 1 102.00 155.98
  Q 105.54 147.26 107.25 141.75
  Q 108.13 138.92 110.81 140.26
  A 1.28 1.12 -89.2 0 1 111.41 140.97
  Q 115.17 151.90 116.19 154.31
  Q 117.49 157.41 114.42 156.69
  A 1.08 0.91 -1.4 0 1 113.70 156.11
  L 112.57 153.29
  A 0.79 0.62 76.6 0 0 111.94 152.79
  Z
  M 107.46 149.72
  A 0.34 0.34 -82.0 0 0 107.79 150.16
  L 110.94 150.11
  A 0.34 0.34 -3.6 0 0 111.26 149.66
  L 109.60 144.81
  A 0.34 0.34 0.0 0 0 108.96 144.82
  L 107.46 149.72
  Z"
/>
<path fill="#ddc372" d="
  M 128.53 141.40
  Q 133.02 146.58 130.24 153.03
  C 128.25 157.64 123.52 156.44 119.51 156.59
  A 0.96 0.94 -0.9 0 1 118.51 155.64
  L 118.56 140.95
  A 0.84 0.80 0.4 0 1 119.41 140.15
  L 125.92 140.24
  A 3.64 3.31 -18.3 0 1 128.53 141.40
  Z
  M 122.22 153.63
  C 130.12 155.67 130.54 142.16 122.47 142.73
  A 0.87 0.85 87.9 0 0 121.68 143.60
  L 121.75 153.01
  A 0.66 0.63 -83.7 0 0 122.22 153.63
  Z"
/>
<path fill="#dfc573" d="
  M 139.42 151.29
  Q 142.35 143.42 142.56 141.31
  Q 142.74 139.46 145.54 140.21
  A 0.50 0.49 16.9 0 1 145.88 140.84
  L 141.21 155.59
  A 1.47 1.30 85.4 0 1 140.64 156.35
  Q 138.07 157.93 137.09 154.97
  Q 135.22 149.29 133.36 143.60
  C 132.86 142.08 130.69 138.47 135.24 140.37
  A 1.14 0.92 88.5 0 1 135.82 141.05
  L 139.08 151.28
  Q 139.24 151.78 139.42 151.29
  Z"
/>
<path fill="#dfc573" d="
  M 153.41 140.23
  A 1.21 1.11 89.6 0 1 154.05 140.92
  L 159.51 155.97
  A 0.47 0.44 73.0 0 1 159.21 156.57
  Q 155.59 157.41 155.22 153.55
  A 0.66 0.53 86.9 0 0 154.69 152.96
  L 149.68 152.85
  A 0.75 0.71 8.0 0 0 148.95 153.37
  L 148.26 155.67
  A 1.06 0.66 -83.7 0 1 147.76 156.31
  Q 144.14 157.62 145.09 155.08
  Q 147.70 148.08 150.15 141.03
  A 1.53 1.10 -88.9 0 1 150.71 140.28
  Q 151.89 139.59 153.41 140.23
  Z
  M 153.30 150.13
  A 0.59 0.58 85.9 0 0 153.95 149.36
  L 152.49 144.98
  Q 151.96 143.38 151.47 145.04
  L 150.15 149.51
  Q 149.83 150.59 150.85 150.21
  Q 151.82 149.86 153.30 150.13
  Z"
/>
<path fill="#dfc573" d="
  M 163.85 146.82
  Q 164.10 150.24 164.23 153.68
  C 164.30 155.47 164.77 156.97 162.13 156.74
  A 0.97 0.96 2.6 0 1 161.25 155.78
  L 161.30 140.81
  A 0.78 0.74 80.5 0 1 161.77 140.11
  Q 163.82 139.33 164.92 141.32
  Q 167.10 145.28 169.52 149.74
  Q 170.47 151.51 170.41 149.50
  Q 170.31 146.08 170.31 141.91
  C 170.31 140.21 170.97 139.34 172.73 140.09
  A 0.79 0.74 -79.5 0 1 173.19 140.81
  L 173.25 155.75
  A 0.86 0.79 77.8 0 1 172.81 156.50
  C 168.25 158.80 166.82 147.27 164.30 146.37
  A 0.41 0.35 -84.9 0 0 163.85 146.82
  Z"
/>
<path fill="#ddc372" d="
  M 195.07 153.72
  C 198.03 153.89 203.56 152.41 202.75 156.01
  A 0.87 0.79 5.4 0 1 201.93 156.62
  L 192.48 156.75
  A 0.94 0.83 -0.4 0 1 191.52 155.91
  L 191.67 140.68
  A 0.52 0.49 -0.0 0 1 192.19 140.19
  Q 195.75 140.23 199.30 140.25
  C 200.95 140.25 203.02 138.84 202.45 142.31
  A 0.97 0.87 5.8 0 1 201.46 143.03
  L 195.34 142.76
  A 0.67 0.61 -82.2 0 0 194.71 143.29
  C 193.85 147.23 194.81 146.57 197.41 146.49
  C 199.35 146.43 202.96 145.60 201.92 148.79
  A 0.74 0.67 7.7 0 1 201.25 149.25
  L 195.31 149.30
  A 0.64 0.53 0.9 0 0 194.69 149.80
  L 194.50 153.20
  A 0.60 0.48 3.7 0 0 195.07 153.72
  Z"
/>
<path fill="#ddc372" d="
  M 208.99 140.15
  C 216.92 139.59 219.05 144.43 217.56 151.56
  C 216.22 157.99 211.12 156.09 206.42 156.76
  A 0.81 0.80 -4.1 0 1 205.50 155.97
  Q 205.50 149.55 205.50 143.33
  C 205.50 138.94 205.45 140.40 208.99 140.15
  Z
  M 212.15 142.94
  Q 211.52 142.59 209.07 142.81
  A 0.62 0.62 -2.5 0 0 208.50 143.43
  L 208.55 153.19
  A 0.60 0.59 -86.6 0 0 209.06 153.77
  Q 215.70 154.75 214.58 146.47
  Q 214.25 144.09 212.15 142.94
  Z"
/>
<path fill="#ddc372" d="
  M 229.34 143.81
  L 229.70 146.20
  A 0.57 0.52 -6.6 0 0 230.31 146.64
  C 232.01 146.47 239.18 145.29 236.49 149.04
  A 1.06 0.74 12.1 0 1 235.70 149.37
  L 230.18 149.37
  A 0.69 0.59 -83.6 0 0 229.58 149.93
  Q 229.24 151.71 229.68 153.46
  A 0.64 0.58 -6.8 0 0 230.30 153.90
  L 237.19 153.79
  A 0.61 0.59 84.4 0 1 237.79 154.30
  C 238.46 157.93 235.60 156.50 233.93 156.47
  Q 230.60 156.41 227.37 156.74
  A 0.88 0.86 87.1 0 1 226.42 155.86
  L 226.42 140.63
  A 0.62 0.62 -87.1 0 1 227.10 140.01
  C 230.02 140.31 233.34 140.51 236.28 140.03
  Q 237.98 139.75 237.45 142.24
  A 1.12 1.12 13.1 0 1 236.08 143.09
  Q 232.73 142.21 229.78 143.15
  A 0.63 0.60 -13.0 0 0 229.34 143.81
  Z"
/>
<path fill="#dfc573" d="
  M 249.48 149.62
  L 249.48 140.96
  A 0.99 0.97 83.8 0 1 250.24 140.00
  C 252.77 139.45 252.25 141.04 252.25 142.59
  Q 252.25 149.17 252.25 155.75
  A 0.90 0.81 77.5 0 1 251.82 156.52
  C 250.16 157.40 249.14 156.52 248.32 155.05
  Q 246.01 150.87 244.02 147.18
  Q 242.94 145.18 243.00 147.49
  L 243.21 155.95
  A 0.72 0.65 -11.1 0 1 242.71 156.61
  Q 239.89 157.50 240.16 154.42
  Q 240.74 147.82 240.32 141.23
  A 1.12 1.11 85.9 0 1 241.35 140.03
  C 243.93 139.83 243.65 140.80 244.62 142.46
  Q 246.70 146.05 248.44 149.83
  Q 249.47 152.06 249.48 149.62
  Z"
/>
<path fill="#dbc06f" d="
  M 258.71 144.08
  A 1.23 1.21 -1.8 0 0 257.41 142.88
  Q 253.54 143.10 254.60 140.52
  A 0.77 0.69 10.5 0 1 255.31 140.09
  L 265.52 140.23
  A 0.65 0.62 -5.0 0 1 266.14 140.73
  Q 266.71 143.48 263.61 142.70
  A 1.47 1.46 -82.2 0 0 261.79 144.09
  Q 261.70 149.28 261.84 155.50
  Q 261.88 157.42 259.29 156.28
  A 0.96 0.92 -78.9 0 1 258.74 155.43
  L 258.71 144.08
  Z"
/>
<path fill="#ddc372" d="
  M 271.82 153.71
  Q 274.38 153.82 276.94 153.76
  C 278.78 153.73 280.31 153.27 279.65 156.09
  A 0.89 0.89 10.0 0 1 278.67 156.77
  Q 274.00 156.18 269.46 156.76
  A 1.08 1.08 86.5 0 1 268.25 155.69
  L 268.25 140.88
  A 0.92 0.84 -0.0 0 1 269.17 140.04
  L 278.70 140.10
  A 0.70 0.60 -7.2 0 1 279.35 140.53
  C 281.37 146.80 269.85 138.32 271.49 145.86
  A 1.09 0.96 -5.9 0 0 272.54 146.61
  L 278.05 146.53
  A 0.63 0.60 85.6 0 1 278.65 147.07
  C 279.16 150.50 277.90 149.27 276.01 149.22
  Q 273.97 149.16 271.93 149.38
  A 0.64 0.56 -3.0 0 0 271.36 149.93
  L 271.26 153.19
  A 0.58 0.51 1.6 0 0 271.82 153.71
  Z"
/>
<path fill="#dfc573" d="
  M 291.34 149.47
  L 295.27 156.05
  A 0.44 0.43 -25.3 0 1 295.04 156.68
  C 291.45 157.98 289.66 151.97 287.19 149.81
  Q 285.25 148.12 285.25 151.25
  C 285.25 153.34 286.40 157.65 282.90 156.71
  A 0.88 0.87 -82.8 0 1 282.25 155.86
  L 282.25 140.69
  A 0.70 0.69 2.6 0 1 283.01 140.00
  C 285.57 140.25 291.03 139.66 292.88 141.11
  C 295.48 143.14 294.94 147.83 291.54 148.93
  A 0.37 0.37 65.9 0 0 291.34 149.47
  Z
  M 290.62 143.30
  Q 288.09 142.37 285.79 142.93
  A 0.69 0.64 -7.5 0 0 285.27 143.56
  L 285.30 146.06
  A 1.13 1.08 2.7 0 0 286.32 147.13
  Q 292.08 147.70 290.97 143.69
  A 0.59 0.56 -88.5 0 0 290.62 143.30
  Z"
/>
<path fill="#dbc06f" d="
  M 300.68 155.94
  L 300.75 144.07
  Q 300.77 142.03 298.83 142.72
  Q 295.94 143.74 296.28 140.73
  A 0.91 0.83 3.1 0 1 297.19 139.99
  L 307.55 140.14
  A 0.64 0.60 -5.5 0 1 308.17 140.62
  C 308.99 144.60 306.05 142.20 304.28 142.87
  A 0.76 0.73 81.0 0 0 303.80 143.56
  Q 303.70 149.53 303.53 155.49
  Q 303.48 157.39 301.19 156.65
  A 0.75 0.75 -80.8 0 1 300.68 155.94
  Z"
/>
<path fill="#dfc573" d="
  M 313.11 140.40
  Q 315.56 138.93 316.75 142.00
  Q 319.39 148.81 321.60 155.77
  A 0.67 0.64 65.8 0 1 321.33 156.53
  C 318.70 158.11 318.24 154.94 317.55 153.38
  A 0.87 0.78 76.7 0 0 316.81 152.86
  L 312.18 152.86
  A 1.01 0.78 -71.7 0 0 311.42 153.37
  C 310.41 155.12 310.83 157.99 307.51 156.48
  A 0.56 0.55 -67.9 0 1 307.22 155.78
  L 312.52 141.16
  A 1.63 1.29 89.4 0 1 313.11 140.40
  Z
  M 313.94 144.94
  C 313.70 146.12 311.21 151.03 313.95 150.19
  A 1.83 1.80 43.4 0 1 314.94 150.17
  C 317.76 150.90 315.22 146.28 314.94 145.06
  Q 314.39 142.71 313.94 144.94
  Z"
/>
<rect fill="#dfc573" x="-1.52" y="-8.34" transform="translate(325.02,148.37) rotate(-0.1)" width="3.04" height="16.68" rx="0.73"/>
<path fill="#dfc573" d="
  M 332.26 147.38
  C 332.11 149.84 334.14 157.80 330.01 156.58
  A 0.71 0.71 8.2 0 1 329.50 155.90
  L 329.50 140.66
  A 0.62 0.62 85.0 0 1 330.01 140.05
  Q 332.13 139.64 333.04 141.20
  Q 335.74 145.85 337.53 149.58
  Q 338.78 152.18 338.75 149.27
  L 338.67 140.94
  A 0.89 0.81 77.5 0 1 339.11 140.17
  Q 340.10 139.65 341.09 140.22
  A 0.94 0.81 -77.0 0 1 341.50 141.00
  L 341.45 155.70
  A 0.95 0.90 75.3 0 1 341.03 156.47
  Q 338.99 157.74 337.81 155.69
  Q 335.42 151.51 333.31 147.17
  Q 332.39 145.29 332.26 147.38
  Z"
/>
<path fill="#ddc372" d="
  M 355.71 145.05
  L 353.42 155.83
  A 1.08 0.97 85.1 0 1 352.87 156.56
  C 350.91 157.53 350.14 156.23 349.81 154.50
  Q 348.90 149.87 347.88 145.28
  C 347.65 144.28 347.25 145.09 347.25 145.45
  Q 347.16 150.58 347.41 155.70
  A 0.81 0.75 74.8 0 1 347.02 156.44
  Q 344.51 157.86 344.51 154.75
  Q 344.50 148.00 344.50 140.73
  A 0.78 0.68 0.8 0 1 345.30 140.05
  L 348.45 140.12
  A 0.71 0.59 -6.6 0 1 349.09 140.54
  Q 350.43 144.83 351.17 149.27
  C 351.36 150.41 352.44 151.92 352.50 149.00
  Q 352.54 147.37 354.02 142.27
  C 354.38 141.02 354.14 139.36 356.29 140.07
  A 1.70 1.38 -39.0 0 0 357.21 140.07
  Q 357.86 139.88 358.49 140.10
  A 0.78 0.67 -81.6 0 1 358.94 140.81
  Q 359.04 147.50 359.00 154.19
  C 358.99 155.87 359.50 157.30 356.82 156.71
  A 0.72 0.72 -84.9 0 1 356.26 156.03
  C 356.22 154.43 356.66 145.26 356.25 144.80
  Q 355.86 144.37 355.71 145.05
  Z"
/>
<path fill="#ddc372" d="
  M 365.82 146.46
  L 371.75 146.51
  A 0.75 0.64 -6.8 0 1 372.43 146.96
  Q 372.74 147.98 372.39 148.98
  A 0.75 0.63 9.7 0 1 371.69 149.39
  L 366.46 149.24
  A 1.24 1.14 -82.1 0 0 365.29 150.20
  Q 364.61 153.22 365.92 153.74
  C 366.75 154.06 371.17 153.75 372.69 153.79
  A 0.74 0.72 -8.0 0 1 373.36 154.28
  Q 374.34 157.09 371.86 156.75
  C 368.93 156.36 366.17 156.44 363.24 156.75
  A 1.12 1.12 -3.0 0 1 362.00 155.64
  L 362.00 141.07
  A 0.93 0.93 1.7 0 1 362.99 140.14
  Q 368.04 140.45 372.26 140.13
  Q 373.72 140.02 373.02 142.59
  A 0.65 0.58 7.9 0 1 372.38 143.02
  L 366.21 142.76
  A 0.74 0.65 -79.2 0 0 365.54 143.28
  Q 365.04 144.94 365.19 145.95
  A 0.64 0.59 -3.6 0 0 365.82 146.46
  Z"
/>
<path fill="#ddc372" d="
  M 385.47 149.98
  Q 385.07 145.86 385.28 140.99
  A 1.09 1.09 -5.8 0 1 386.10 139.99
  C 388.35 139.42 387.76 141.69 387.74 142.98
  Q 387.63 149.21 387.91 155.43
  A 1.19 0.92 71.8 0 1 387.60 156.30
  Q 386.61 157.19 385.26 156.65
  A 1.48 1.28 83.7 0 1 384.56 156.00
  L 379.79 147.27
  Q 378.61 145.10 378.69 147.55
  Q 378.79 150.66 378.76 153.75
  C 378.74 155.40 379.43 157.63 376.48 156.49
  A 0.75 0.74 -79.9 0 1 376.00 155.79
  L 376.00 141.12
  A 1.12 1.12 -6.1 0 1 376.88 140.03
  C 379.00 139.55 379.16 140.45 379.96 141.86
  Q 382.35 146.10 384.68 150.37
  C 385.13 151.20 385.52 150.44 385.47 149.98
  Z"
/>
<path fill="#dbc06f" d="
  M 397.56 143.57
  L 397.44 155.94
  A 0.78 0.69 80.9 0 1 396.99 156.65
  Q 395.92 157.07 394.91 156.52
  A 0.94 0.79 -77.8 0 1 394.50 155.74
  L 394.50 143.50
  A 0.75 0.70 88.2 0 0 393.75 142.75
  L 391.25 142.93
  A 1.12 0.81 -17.8 0 1 390.39 142.65
  Q 389.37 141.50 390.39 140.35
  A 1.08 0.89 20.3 0 1 391.24 140.05
  Q 396.00 140.55 400.77 140.23
  Q 402.44 140.12 401.99 142.03
  A 1.34 1.33 19.2 0 1 400.11 142.93
  Q 399.10 142.45 398.01 142.86
  A 0.78 0.69 80.9 0 0 397.56 143.57
  Z"
/>
<path fill="#dfc573" d="
  M 430.20 156.42
  Q 429.16 157.27 427.91 156.53
  A 0.92 0.80 -76.3 0 1 427.51 155.75
  C 427.54 152.70 427.99 150.28 426.37 147.49
  Q 424.40 144.11 422.50 140.70
  A 0.44 0.41 66.5 0 1 422.72 140.08
  C 426.43 138.99 427.68 143.64 428.81 146.18
  Q 429.10 146.82 429.43 146.20
  C 430.65 143.93 432.04 138.70 435.48 140.11
  A 0.45 0.44 -63.9 0 1 435.69 140.75
  Q 433.57 144.58 431.42 148.39
  C 430.04 150.82 430.48 152.94 430.55 155.57
  A 1.15 0.94 73.2 0 1 430.20 156.42
  Z"
/>
<path fill="#dbc06f" d="
  M 454.96 144.21
  A 1.38 1.36 -2.5 0 0 453.47 142.86
  Q 449.71 143.15 450.62 140.53
  A 0.76 0.63 7.9 0 1 451.31 140.10
  L 461.69 140.10
  A 0.75 0.64 -8.1 0 1 462.37 140.53
  Q 463.35 143.31 459.79 142.70
  A 1.50 1.50 5.3 0 0 458.04 144.15
  C 457.98 147.46 457.84 151.17 458.06 154.87
  Q 458.24 157.79 455.44 156.47
  A 0.84 0.75 -79.4 0 1 455.00 155.75
  L 454.96 144.21
  Z"
/>
<path fill="#ddc372" d="
  M 467.35 152.92
  A 0.83 0.70 -88.1 0 0 468.04 153.80
  L 475.06 153.89
  A 0.68 0.65 83.7 0 1 475.69 154.42
  C 476.53 157.95 473.35 156.49 471.87 156.47
  Q 468.67 156.42 465.47 156.75
  A 0.91 0.89 86.6 0 1 464.48 155.85
  L 464.33 141.04
  A 0.88 0.86 -89.4 0 1 465.22 140.15
  Q 469.51 140.33 473.09 140.21
  C 474.87 140.15 476.06 139.33 475.41 142.45
  A 0.81 0.72 6.9 0 1 474.60 143.01
  L 468.43 142.77
  A 0.77 0.68 -82.4 0 0 467.71 143.39
  Q 467.36 145.21 467.63 146.23
  A 0.70 0.56 -7.4 0 0 468.30 146.64
  L 474.28 146.52
  A 0.70 0.65 85.2 0 1 474.95 147.13
  C 475.40 150.64 470.53 149.25 468.24 149.25
  A 0.89 0.75 -88.4 0 0 467.48 150.10
  L 467.35 152.92
  Z"
/>
<path fill="#ddc372" d="
  M 481.04 145.06
  L 481.21 155.51
  A 1.18 0.79 76.3 0 1 480.90 156.35
  Q 479.91 157.19 478.73 156.48
  A 0.95 0.85 -76.3 0 1 478.31 155.69
  Q 478.21 149.22 478.25 142.75
  C 478.26 141.21 477.91 139.42 480.27 140.09
  A 1.85 1.29 -36.7 0 0 481.20 140.06
  Q 481.84 139.86 482.41 140.16
  A 1.37 0.89 87.2 0 1 482.96 140.92
  Q 484.24 145.27 485.23 149.70
  Q 485.66 151.60 485.99 149.80
  Q 486.83 145.23 488.17 140.79
  A 0.83 0.65 -80.6 0 1 488.81 140.20
  L 492.06 140.11
  A 0.58 0.51 88.5 0 1 492.59 140.68
  L 492.70 155.93
  A 0.79 0.73 79.2 0 1 492.25 156.66
  Q 491.29 157.04 490.40 156.53
  A 0.96 0.80 -78.3 0 1 489.99 155.76
  Q 489.91 150.50 490.31 145.25
  Q 490.37 144.44 490.06 144.53
  A 0.84 0.50 -85.7 0 0 489.65 145.11
  L 487.27 155.69
  A 1.15 0.90 87.6 0 1 486.75 156.42
  Q 483.97 157.77 483.50 154.50
  Q 482.71 148.99 481.24 145.03
  Q 481.03 144.47 481.04 145.06
  Z"
/>
<path fill="#bd984e" d="
  M 220.21 169.75
  Q 216.95 170.52 213.96 169.00
  C 214.29 168.47 216.94 162.53 217.53 162.60
  Q 218.13 162.68 218.45 162.56
  C 221.30 161.51 220.25 168.26 220.21 169.75
  Z"
/>
<path fill="#bd984e" d="
  M 201.06 169.94
  Q 194.98 171.81 188.47 171.52
  C 187.66 171.49 187.18 171.88 187.25 172.71
  Q 174.22 167.75 161.08 172.48
  Q 157.73 169.86 152.75 171.00
  Q 146.59 172.41 138.95 170.11
  C 158.17 159.91 181.72 160.32 201.06 169.94
  Z"
/>
<path fill="#ba944b" d="
  M 464.00 170.96
  Q 459.68 172.00 455.26 171.93
  C 450.59 171.85 447.38 172.20 443.25 172.54
  Q 431.04 168.04 419.36 172.92
  Q 410.83 171.22 401.06 171.44
  Q 400.08 171.46 400.25 170.54
  C 418.73 161.41 445.61 161.71 464.00 170.96
  Z"
/>
<path fill="#ba944b" d="
  M 349.21 170.77
  Q 328.73 170.86 308.25 171.12
  Q 300.95 171.21 288.26 170.85
  C 277.65 170.55 267.03 170.92 256.41 170.74
  Q 252.19 170.67 248.00 171.54
  L 241.94 171.51
  A 0.70 0.69 0.4 0 1 241.25 170.82
  L 241.25 166.99
  A 1.02 1.02 6.4 0 1 242.49 166.00
  Q 244.35 166.41 246.25 166.41
  Q 297.09 166.30 348.72 166.18
  A 0.53 0.52 -0.0 0 1 349.25 166.70
  L 349.21 170.77
  Z"
/>
<path fill="#ad853e" d="
  M 213.96 169.00
  Q 216.95 170.52 220.21 169.75
  L 220.21 176.25
  Q 206.79 175.18 193.48 176.72
  L 187.25 172.71
  C 187.18 171.88 187.66 171.49 188.47 171.52
  Q 194.98 171.81 201.06 169.94
  C 205.69 171.19 210.11 174.01 213.96 169.00
  Z"
/>
<path fill="#a27936" d="
  M 138.95 170.11
  Q 146.59 172.41 152.75 171.00
  Q 157.73 169.86 161.08 172.48
  Q 152.07 176.45 146.51 184.15
  Q 136.58 182.92 128.25 183.50
  Q 125.80 183.67 124.19 182.40
  A 0.80 0.69 -36.4 0 0 123.40 182.34
  Q 122.98 182.53 122.50 182.46
  Q 129.72 174.78 138.95 170.11
  Z"
/>
<path fill="#ad853e" d="
  M 400.25 170.54
  Q 400.08 171.46 401.06 171.44
  Q 410.83 171.22 419.36 172.92
  L 414.61 176.28
  Q 408.14 173.93 401.25 175.25
  Q 399.58 175.57 394.25 174.21
  L 400.25 170.54
  Z"
/>
<path fill="#ad853e" d="
  M 349.21 170.77
  L 349.21 176.75
  Q 345.91 177.21 341.00 176.75
  Q 335.97 176.28 329.48 177.79
  C 319.27 172.98 304.87 173.14 294.50 173.50
  Q 289.73 173.67 288.71 178.50
  C 288.00 176.36 286.68 176.95 285.02 176.92
  Q 271.03 176.68 257.04 177.00
  Q 253.86 172.18 248.00 171.54
  Q 252.19 170.67 256.41 170.74
  C 267.03 170.92 277.65 170.55 288.26 170.85
  Q 300.95 171.21 308.25 171.12
  Q 328.73 170.86 349.21 170.77
  Z"
/>
<path fill="#a8803b" d="
  M 464.00 170.96
  L 470.25 174.54
  Q 471.09 175.35 470.77 176.09
  A 1.03 0.72 2.5 0 1 470.01 176.57
  C 463.41 177.44 456.96 175.85 450.50 177.29
  Q 447.23 174.38 443.25 172.54
  C 447.38 172.20 450.59 171.85 455.26 171.93
  Q 459.68 172.00 464.00 170.96
  Z"
/>
<path fill="#936b2e" d="
  M 394.25 174.21
  Q 399.58 175.57 401.25 175.25
  Q 408.14 173.93 414.61 176.28
  Q 406.17 184.90 402.96 196.00
  Q 391.32 195.10 379.65 195.70
  C 377.66 195.80 376.16 196.70 374.79 194.50
  Q 382.16 182.09 394.25 174.21
  Z"
/>
<path fill="#9a7232" d="
  M 470.25 174.54
  Q 476.22 178.62 481.04 184.00
  Q 481.11 184.99 481.64 185.79
  A 0.41 0.39 61.7 0 1 481.48 186.39
  Q 479.41 187.21 476.25 187.00
  Q 469.16 186.52 457.54 187.25
  Q 454.91 181.64 450.50 177.29
  C 456.96 175.85 463.41 177.44 470.01 176.57
  A 1.03 0.72 2.5 0 0 470.77 176.09
  Q 471.09 175.35 470.25 174.54
  Z"
/>
<path fill="#976e2f" d="
  M 220.21 176.25
  L 220.21 193.75
  Q 219.62 194.58 219.65 193.32
  Q 219.67 192.91 219.58 193.30
  L 219.42 194.07
  A 0.60 0.59 -82.0 0 1 218.81 194.54
  L 211.61 194.22
  A 1.28 1.28 17.6 0 0 210.46 194.81
  Q 209.76 195.91 208.75 195.29
  Q 202.26 185.47 193.48 176.72
  Q 206.79 175.18 220.21 176.25
  Z"
/>
<path fill="#936b2e" d="
  M 288.71 178.50
  L 288.46 194.75
  Q 272.93 196.05 269.00 195.50
  Q 264.47 194.86 259.88 194.82
  A 0.64 0.57 -67.6 0 0 259.39 195.06
  Q 259.00 195.53 258.95 194.71
  Q 258.92 194.40 258.75 194.67
  L 258.54 195.00
  C 258.59 190.06 259.15 181.33 257.04 177.00
  Q 271.03 176.68 285.02 176.92
  C 286.68 176.95 288.00 176.36 288.71 178.50
  Z"
/>
<path fill="#976e2f" d="
  M 349.21 176.75
  L 349.21 196.25
  L 343.29 196.75
  Q 340.30 184.24 329.48 177.79
  Q 335.97 176.28 341.00 176.75
  Q 345.91 177.21 349.21 176.75
  Z"
/>
<path fill="#8d652b" d="
  M 146.51 184.15
  Q 142.76 189.71 140.58 195.78
  Q 132.23 195.21 124.00 196.00
  Q 121.76 196.21 114.43 195.60
  A 0.60 0.47 88.2 0 1 113.98 195.07
  Q 113.93 194.46 113.21 194.25
  Q 117.10 187.76 122.50 182.46
  Q 122.98 182.53 123.40 182.34
  A 0.80 0.69 -36.4 0 1 124.19 182.40
  Q 125.80 183.67 128.25 183.50
  Q 136.58 182.92 146.51 184.15
  Z"
/>
<path fill="#88622a" d="
  M 481.04 184.00
  Q 486.58 189.95 490.25 197.21
  Q 489.05 199.18 487.18 198.25
  Q 486.68 198.00 486.25 197.98
  Q 474.03 197.48 461.75 198.35
  L 457.54 187.25
  Q 469.16 186.52 476.25 187.00
  Q 479.41 187.21 481.48 186.39
  A 0.41 0.39 61.7 0 0 481.64 185.79
  Q 481.11 184.99 481.04 184.00
  Z"
/>
<path fill="#755427" d="
  M 220.21 193.75
  L 220.20 207.44
  A 0.52 0.51 -90.0 0 1 219.69 207.96
  L 215.17 207.98
  A 1.23 1.03 75.5 0 1 214.17 207.26
  L 208.75 195.29
  Q 209.76 195.91 210.46 194.81
  A 1.28 1.28 17.6 0 1 211.61 194.22
  L 218.81 194.54
  A 0.60 0.59 -82.0 0 0 219.42 194.07
  L 219.58 193.30
  Q 219.67 192.91 219.65 193.32
  Q 219.62 194.58 220.21 193.75
  Z"
/>
<path fill="#755427" d="
  M 113.21 194.25
  Q 113.93 194.46 113.98 195.07
  A 0.60 0.47 88.2 0 0 114.43 195.60
  Q 121.76 196.21 124.00 196.00
  Q 132.23 195.21 140.58 195.78
  L 137.46 207.50
  Q 136.11 208.87 134.64 207.82
  A 1.72 0.98 50.1 0 0 133.76 207.49
  L 108.32 207.92
  A 0.86 0.71 73.8 0 1 107.64 207.46
  L 107.25 206.71
  Q 109.43 200.09 113.21 194.25
  Z"
/>
<path fill="#755427" d="
  M 288.46 194.75
  L 288.46 203.75
  Q 288.87 206.61 286.93 206.60
  C 281.24 206.58 276.75 207.47 273.81 207.19
  Q 266.19 206.45 258.54 206.75
  L 258.54 195.00
  L 258.75 194.67
  Q 258.92 194.40 258.95 194.71
  Q 259.00 195.53 259.39 195.06
  A 0.64 0.57 -67.6 0 1 259.88 194.82
  Q 264.47 194.86 269.00 195.50
  Q 272.93 196.05 288.46 194.75
  Z"
/>
<path fill="#755427" d="
  M 374.79 194.50
  C 376.16 196.70 377.66 195.80 379.65 195.70
  Q 391.32 195.10 402.96 196.00
  L 400.46 206.77
  Q 387.63 207.30 374.75 207.25
  Q 370.88 207.23 369.25 206.46
  Q 371.20 200.10 374.79 194.50
  Z"
/>
<path fill="#644925" d="
  M 323.46 234.75
  Q 314.88 234.24 306.39 235.69
  C 301.04 233.46 294.86 232.86 289.07 232.82
  A 0.51 0.49 0.6 0 0 288.55 233.31
  L 288.49 240.79
  L 270.36 240.73
  Q 269.71 240.72 269.34 240.68
  Q 263.19 239.87 258.56 241.09
  L 258.54 206.75
  Q 266.19 206.45 273.81 207.19
  C 276.75 207.47 281.24 206.58 286.93 206.60
  Q 288.87 206.61 288.46 203.75
  Q 288.53 213.75 288.54 223.75
  C 288.54 225.67 290.22 224.71 291.56 224.83
  C 309.61 226.45 317.31 211.71 318.23 196.28
  A 1.10 1.10 11.0 0 1 319.67 195.31
  Q 321.09 195.77 322.25 195.34
  A 0.93 0.93 -10.1 0 1 323.50 196.21
  L 323.46 234.75
  Z"
/>
<path fill="#755427" d="
  M 349.21 196.25
  C 349.26 198.44 349.15 200.66 349.36 202.84
  C 349.51 204.49 346.10 204.36 345.19 203.75
  A 1.43 0.78 88.5 0 1 344.72 202.94
  L 343.29 196.75
  L 349.21 196.25
  Z"
/>
<path fill="#725227" d="
  M 490.25 197.21
  Q 493.24 202.46 494.96 208.25
  C 494.68 209.64 494.42 210.09 492.95 210.03
  Q 479.13 209.41 465.31 209.92
  A 1.22 1.12 63.9 0 1 464.46 209.59
  L 463.54 208.75
  L 461.75 198.35
  Q 474.03 197.48 486.25 197.98
  Q 486.68 198.00 487.18 198.25
  Q 489.05 199.18 490.25 197.21
  Z"
/>
<path fill="#644925" d="
  M 369.25 206.46
  Q 370.88 207.23 374.75 207.25
  Q 387.63 207.30 400.46 206.77
  Q 398.28 220.83 398.71 235.75
  Q 398.25 234.94 397.74 236.10
  A 0.73 0.68 -76.3 0 1 397.07 236.54
  Q 382.06 235.79 367.05 236.49
  C 366.30 236.52 365.80 235.91 365.71 237.50
  Q 364.06 221.56 369.25 206.46
  Z"
/>
<path fill="#644925" d="
  M 107.25 206.71
  L 107.64 207.46
  A 0.86 0.71 73.8 0 0 108.32 207.92
  L 133.76 207.49
  A 1.72 0.98 50.1 0 1 134.64 207.82
  Q 136.11 208.87 137.46 207.50
  Q 135.01 220.89 135.21 234.50
  Q 134.61 236.17 134.52 234.85
  A 0.38 0.37 87.5 0 0 134.15 234.50
  L 104.81 234.56
  A 1.23 0.99 16.7 0 0 103.95 234.91
  Q 103.19 235.74 103.21 237.00
  Q 101.96 221.39 107.25 206.71
  Z"
/>
<path fill="#624825" d="
  M 494.96 208.25
  Q 498.85 220.97 498.29 234.25
  Q 498.65 232.28 497.07 232.00
  Q 493.15 231.29 489.18 231.41
  C 482.24 231.61 475.29 231.51 468.35 231.44
  C 467.57 231.44 466.46 231.85 465.71 231.38
  A 0.29 0.29 21.3 0 0 465.27 231.57
  Q 465.17 232.09 464.79 232.50
  Q 464.89 220.59 463.54 208.75
  L 464.46 209.59
  A 1.22 1.12 63.9 0 0 465.31 209.92
  Q 479.13 209.41 492.95 210.03
  C 494.42 210.09 494.68 209.64 494.96 208.25
  Z"
/>
<path fill="#6d5028" d="
  M 498.29 234.25
  Q 498.49 235.89 497.75 237.29
  Q 497.35 237.81 497.23 238.43
  Q 497.15 238.87 496.83 238.58
  Q 495.99 237.85 494.94 237.81
  Q 481.19 237.24 464.73 237.86
  L 464.79 232.50
  Q 465.17 232.09 465.27 231.57
  A 0.29 0.29 21.3 0 1 465.71 231.38
  C 466.46 231.85 467.57 231.44 468.35 231.44
  C 475.29 231.51 482.24 231.61 489.18 231.41
  Q 493.15 231.29 497.07 232.00
  Q 498.65 232.28 498.29 234.25
  Z"
/>
<path fill="#725227" d="
  M 135.21 234.50
  L 135.46 236.50
  Q 134.81 237.11 134.90 238.02
  A 0.35 0.33 -88.3 0 1 134.51 238.41
  Q 133.10 238.17 132.56 238.19
  Q 122.39 238.59 105.50 238.25
  Q 104.09 238.22 103.46 239.75
  L 103.21 237.00
  Q 103.19 235.74 103.95 234.91
  A 1.23 0.99 16.7 0 1 104.81 234.56
  L 134.15 234.50
  A 0.38 0.37 87.5 0 1 134.52 234.85
  Q 134.61 236.17 135.21 234.50
  Z"
/>
<path fill="#86622d" d="
  M 323.46 234.75
  L 323.50 260.97
  A 0.65 0.58 -90.0 0 1 322.92 261.62
  L 318.99 261.61
  A 0.69 0.53 85.3 0 1 318.44 261.01
  C 317.29 251.24 313.79 242.38 306.39 235.69
  Q 314.88 234.24 323.46 234.75
  Z"
/>
<path fill="#86622d" d="
  M 398.71 235.75
  L 399.70 249.51
  L 367.98 250.19
  Q 366.16 244.11 365.71 237.50
  C 365.80 235.91 366.30 236.52 367.05 236.49
  Q 382.06 235.79 397.07 236.54
  A 0.73 0.68 -76.3 0 0 397.74 236.10
  Q 398.25 234.94 398.71 235.75
  Z"
/>
<path fill="#825f2d" d="
  M 135.46 236.50
  L 136.05 246.37
  Q 124.52 245.86 106.31 246.31
  Q 104.81 246.35 104.71 247.75
  L 103.46 239.75
  Q 104.09 238.22 105.50 238.25
  Q 122.39 238.59 132.56 238.19
  Q 133.10 238.17 134.51 238.41
  A 0.35 0.33 -88.3 0 0 134.90 238.02
  Q 134.81 237.11 135.46 236.50
  Z"
/>
<path fill="#825f2d" d="
  M 497.75 237.29
  Q 497.19 243.82 495.59 249.17
  Q 480.40 247.50 465.25 248.23
  A 0.74 0.52 75.5 0 1 464.68 247.75
  Q 464.52 247.35 464.04 247.25
  L 464.73 237.86
  Q 481.19 237.24 494.94 237.81
  Q 495.99 237.85 496.83 238.58
  Q 497.15 238.87 497.23 238.43
  Q 497.35 237.81 497.75 237.29
  Z"
/>
<path fill="#86622d" d="
  M 223.79 248.75
  Q 207.30 247.23 191.15 248.52
  C 186.75 244.08 181.16 243.93 175.32 243.94
  A 0.67 0.48 -0.0 0 1 174.65 243.46
  L 174.68 240.17
  A 0.78 0.67 -0.0 0 1 175.46 239.50
  L 236.94 239.56
  A 0.82 0.70 -9.4 0 1 237.67 240.00
  Q 238.05 240.89 237.75 242.00
  Q 237.15 244.22 235.75 244.25
  C 231.47 244.35 226.54 244.85 223.79 248.75
  Z"
/>
<path fill="#86622d" d="
  M 288.49 240.79
  L 288.49 248.80
  L 274.24 247.34
  A 0.54 0.51 31.4 0 0 273.91 247.41
  L 273.75 247.50
  Q 273.47 247.67 273.07 247.68
  L 259.22 247.98
  A 0.24 0.23 88.8 0 0 259.00 248.22
  Q 258.99 249.77 258.54 248.00
  L 258.56 241.09
  Q 263.19 239.87 269.34 240.68
  Q 269.71 240.72 270.36 240.73
  L 288.49 240.79
  Z"
/>
<path fill="#9a7232" d="
  M 136.05 246.37
  Q 137.20 256.90 140.46 266.75
  Q 139.71 268.51 137.75 268.44
  Q 125.87 268.04 114.03 269.14
  Q 107.12 259.58 104.71 247.75
  Q 104.81 246.35 106.31 246.31
  Q 124.52 245.86 136.05 246.37
  Z"
/>
<path fill="#9a7232" d="
  M 288.49 248.80
  L 288.48 268.75
  Q 273.46 268.21 258.51 268.75
  L 258.54 248.00
  Q 258.99 249.77 259.00 248.22
  A 0.24 0.23 88.8 0 1 259.22 247.98
  L 273.07 247.68
  Q 273.47 247.67 273.75 247.50
  L 273.91 247.41
  A 0.54 0.51 31.4 0 1 274.24 247.34
  L 288.49 248.80
  Z"
/>
<path fill="#9a7232" d="
  M 464.04 247.25
  Q 464.52 247.35 464.68 247.75
  A 0.74 0.52 75.5 0 0 465.25 248.23
  Q 480.40 247.50 495.59 249.17
  Q 491.98 263.93 483.08 274.19
  Q 470.53 272.38 457.79 272.75
  Q 463.17 260.57 464.04 247.25
  Z"
/>
<path fill="#9a7232" d="
  M 223.79 248.75
  C 221.30 253.00 221.89 259.73 221.96 266.75
  C 221.70 267.43 221.82 272.45 221.51 269.86
  A 0.85 0.84 -1.2 0 0 220.73 269.12
  C 211.16 268.50 201.99 268.81 192.74 269.09
  Q 193.67 258.61 191.15 248.52
  Q 207.30 247.23 223.79 248.75
  Z"
/>
<path fill="#9a7232" d="
  M 399.70 249.51
  Q 400.75 259.93 404.87 270.64
  Q 402.52 272.58 398.00 272.00
  Q 390.07 270.97 378.75 272.54
  Q 371.03 262.65 367.98 250.19
  L 399.70 249.51
  Z"
/>
<path fill="#976e2f" d="
  M 354.46 274.50
  C 349.93 273.37 346.72 274.61 343.02 273.57
  A 0.39 0.31 -70.7 0 1 342.85 273.08
  Q 342.98 272.78 342.71 272.50
  Q 348.84 264.08 351.68 254.05
  A 0.71 0.59 -79.9 0 1 352.30 253.52
  L 357.26 253.68
  A 0.49 0.44 -84.9 0 1 357.68 254.24
  L 354.46 274.50
  Z"
/>
<path fill="#825f2d" d="
  M 140.46 266.75
  Q 143.03 273.52 147.50 279.21
  L 147.33 280.21
  A 0.65 0.55 5.1 0 1 146.68 280.67
  Q 136.18 280.27 125.70 281.63
  Q 118.96 276.66 114.03 269.14
  Q 125.87 268.04 137.75 268.44
  Q 139.71 268.51 140.46 266.75
  Z"
/>
<path fill="#8d652b" d="
  M 221.96 266.75
  L 221.96 271.25
  L 221.52 273.45
  A 0.59 0.58 5.3 0 1 220.94 273.92
  L 192.76 273.94
  L 192.74 269.09
  C 201.99 268.81 211.16 268.50 220.73 269.12
  A 0.85 0.84 -1.2 0 1 221.51 269.86
  C 221.82 272.45 221.70 267.43 221.96 266.75
  Z"
/>
<path fill="#825f2d" d="
  M 288.48 268.75
  L 288.75 278.73
  Q 273.36 279.66 258.00 279.21
  L 258.51 268.75
  Q 273.46 268.21 288.48 268.75
  Z"
/>
<path fill="#7a592c" d="
  M 404.87 270.64
  L 409.51 279.50
  Q 400.30 280.74 392.50 280.25
  Q 388.92 280.03 386.25 281.29
  Q 381.92 277.41 378.75 272.54
  Q 390.07 270.97 398.00 272.00
  Q 402.52 272.58 404.87 270.64
  Z"
/>
<path fill="#74552b" d="
  M 221.96 271.25
  L 221.96 279.50
  L 221.72 282.50
  A 0.45 0.40 -83.3 0 1 221.25 282.92
  C 212.12 281.55 203.16 282.79 192.34 282.36
  L 192.76 273.94
  L 220.94 273.92
  A 0.59 0.58 5.3 0 0 221.52 273.45
  L 221.96 271.25
  Z"
/>
<path fill="#725227" d="
  M 342.71 272.50
  Q 342.98 272.78 342.85 273.08
  A 0.39 0.31 -70.7 0 0 343.02 273.57
  C 346.72 274.61 349.93 273.37 354.46 274.50
  L 352.99 283.21
  Q 342.53 282.64 338.25 283.00
  Q 334.31 283.33 331.39 282.03
  Q 337.91 278.15 342.71 272.50
  Z"
/>
<path fill="#74552b" d="
  M 457.79 272.75
  Q 470.53 272.38 483.08 274.19
  Q 479.23 280.16 474.62 283.10
  Q 464.36 280.97 455.25 282.25
  Q 453.34 282.52 452.50 281.46
  Q 455.63 277.40 457.79 272.75
  Z"
/>
<path fill="#5b4427" d="
  M 288.75 278.73
  Q 288.91 283.14 293.34 286.07
  Q 293.41 287.61 290.94 287.69
  Q 278.21 288.08 252.65 287.40
  Q 257.22 283.83 258.00 279.21
  Q 273.36 279.66 288.75 278.73
  Z"
/>
<path fill="#624825" d="
  M 147.50 279.21
  L 153.28 284.66
  L 131.72 286.17
  Q 128.54 284.61 125.70 281.63
  Q 136.18 280.27 146.68 280.67
  A 0.65 0.55 5.1 0 0 147.33 280.21
  L 147.50 279.21
  Z"
/>
<path fill="#5b4427" d="
  M 409.51 279.50
  Q 413.30 284.47 419.26 288.24
  Q 413.87 289.57 406.75 289.00
  Q 403.09 288.71 398.00 289.79
  Q 391.44 286.49 386.25 281.29
  Q 388.92 280.03 392.50 280.25
  Q 400.30 280.74 409.51 279.50
  Z"
/>
<path fill="#4d3a24" d="
  M 221.96 279.50
  L 221.76 285.95
  A 0.91 0.72 -14.8 0 1 221.24 286.65
  C 194.81 298.92 156.65 303.94 131.72 286.17
  L 153.28 284.66
  C 162.87 290.17 185.72 295.20 192.34 282.36
  C 203.16 282.79 212.12 281.55 221.25 282.92
  A 0.45 0.40 -83.3 0 0 221.72 282.50
  L 221.96 279.50
  Z"
/>
<path fill="#5b4427" d="
  M 452.50 281.46
  Q 453.34 282.52 455.25 282.25
  Q 464.36 280.97 474.62 283.10
  Q 470.35 287.53 465.78 289.66
  Q 457.58 287.20 449.00 288.50
  Q 448.03 288.65 445.66 287.55
  Q 449.50 284.84 452.50 281.46
  Z"
/>
<path fill="#4d3a24" d="
  M 331.39 282.03
  Q 334.31 283.33 338.25 283.00
  Q 342.53 282.64 352.99 283.21
  L 351.33 293.42
  A 1.01 0.98 4.3 0 1 350.34 294.25
  L 242.07 294.19
  A 0.62 0.49 -0.5 0 1 241.45 293.71
  L 241.37 288.93
  A 1.03 0.91 0.7 0 1 242.44 288.01
  Q 247.67 288.20 252.65 287.40
  Q 278.21 288.08 290.94 287.69
  Q 293.41 287.61 293.34 286.07
  C 305.82 288.10 319.80 287.49 331.39 282.03
  Z"
/>
<path fill="#483623" d="
  M 445.66 287.55
  Q 448.03 288.65 449.00 288.50
  Q 457.58 287.20 465.78 289.66
  C 445.95 300.78 417.83 300.98 398.00 289.79
  Q 403.09 288.71 406.75 289.00
  Q 413.87 289.57 419.26 288.24
  Q 432.62 293.71 445.66 287.55
  Z"
/>
</svg>
