<?xml version="1.0" encoding="UTF-8" standalone="no"?>
<!DOCTYPE svg PUBLIC "-//W3C//DTD SVG 1.1//EN" "http://www.w3.org/Graphics/SVG/1.1/DTD/svg11.dtd">
<svg xmlns="http://www.w3.org/2000/svg" version="1.1" viewBox="0 0 600 300">
<path fill="#000000" d="
  M 442.25 161.75
  C 442.27 133.84 456.65 98.47 489.56 98.11
  C 516.01 97.82 529.42 118.31 529.39 142.75
  C 529.35 169.08 516.94 194.44 489.25 200.00
  C 464.66 204.94 442.23 186.95 442.25 161.75
  Z
  M 475.84 126.35
  C 466.47 136.77 457.40 172.90 477.00 178.25
  C 502.94 185.33 513.67 142.64 502.97 127.25
  C 496.14 117.42 483.87 117.44 475.84 126.35
  Z"
/>
<path fill="#000000" d="
  M 0.00 161.69
  L 0.00 156.69
  Q 4.06 115.16 43.55 102.65
  Q 67.66 95.01 92.27 101.00
  A 1.23 1.23 -78.5 0 1 93.19 102.39
  L 90.06 121.89
  A 1.20 1.19 -76.0 0 1 88.50 122.83
  Q 83.12 121.04 77.78 120.31
  C 53.87 117.08 21.99 130.41 23.00 158.75
  C 23.62 176.01 41.68 181.50 56.00 178.25
  Q 59.68 177.41 59.59 174.05
  Q 59.58 173.56 59.77 173.10
  C 61.28 169.46 58.18 170.24 56.13 170.26
  Q 49.60 170.30 43.07 170.20
  A 0.47 0.44 4.4 0 1 42.61 169.70
  L 45.00 152.00
  A 2.03 1.95 3.7 0 1 47.00 150.31
  L 84.92 150.25
  A 1.03 1.02 4.1 0 1 85.94 151.42
  L 81.89 180.44
  A 0.46 0.40 -87.9 0 0 82.31 180.97
  C 82.77 180.91 112.07 106.68 114.87 99.61
  A 0.96 0.95 -79.2 0 1 115.76 99.00
  L 144.89 99.00
  A 0.59 0.58 86.7 0 1 145.47 99.52
  Q 150.46 139.78 155.26 179.83
  C 155.86 184.86 158.14 174.66 158.20 174.48
  Q 170.72 137.11 183.03 99.66
  A 0.72 0.69 -81.0 0 1 183.68 99.17
  L 206.81 99.01
  A 0.97 0.95 85.5 0 1 207.76 99.84
  L 215.25 150.02
  Q 215.67 152.82 216.71 150.17
  L 236.62 99.53
  A 0.76 0.74 9.7 0 1 237.31 99.06
  L 263.02 98.81
  A 0.73 0.72 -1.7 0 1 263.75 99.49
  L 270.03 199.58
  A 0.87 0.86 -1.8 0 1 269.16 200.50
  L 248.16 200.50
  A 0.83 0.83 88.2 0 1 247.33 199.72
  L 243.77 143.37
  Q 243.71 142.31 243.32 143.30
  L 221.19 199.78
  A 0.79 0.71 -77.8 0 1 220.51 200.27
  L 201.34 200.48
  A 0.75 0.74 85.1 0 1 200.60 199.85
  L 192.26 147.30
  A 0.59 0.44 78.9 0 0 191.69 146.78
  C 191.06 146.95 175.81 194.76 174.20 199.66
  A 1.23 1.22 -80.7 0 1 173.04 200.50
  L 136.18 200.50
  A 0.95 0.94 -3.4 0 1 135.24 199.67
  L 131.73 171.61
  A 1.55 1.54 86.4 0 0 130.20 170.25
  L 111.37 170.25
  A 1.58 1.56 10.2 0 0 109.90 171.26
  L 98.98 199.79
  A 1.12 1.10 -79.0 0 1 97.95 200.50
  L 75.73 200.50
  Q 74.18 200.50 75.05 199.21
  Q 75.80 198.10 75.78 196.50
  A 0.34 0.34 -12.7 0 0 75.30 196.20
  C 55.94 204.69 33.95 204.38 16.44 191.81
  Q 1.62 181.18 0.00 161.69
  Z
  M 126.81 131.31
  Q 126.57 129.26 125.81 131.31
  L 118.98 149.73
  A 0.35 0.35 9.9 0 0 119.31 150.20
  L 128.11 150.24
  A 0.80 0.79 86.7 0 0 128.89 149.35
  L 126.81 131.31
  Z"
/>
<path fill="#000000" d="
  M 303.82 137.69
  L 333.21 137.75
  A 0.46 0.45 3.8 0 1 333.67 138.26
  L 330.74 159.36
  A 1.04 1.04 4.2 0 1 329.71 160.25
  L 300.76 160.25
  A 1.33 1.32 -86.3 0 0 299.45 161.41
  L 297.49 176.84
  A 0.81 0.80 3.7 0 0 298.29 177.75
  L 332.54 177.75
  A 0.57 0.56 -86.4 0 1 333.09 178.39
  L 330.25 199.26
  A 1.43 1.41 -86.0 0 1 328.85 200.50
  L 272.09 200.50
  A 0.86 0.86 -87.0 0 1 271.24 199.55
  Q 272.57 187.50 274.36 174.98
  Q 279.75 137.13 284.98 99.42
  A 0.48 0.48 3.3 0 1 285.46 99.00
  L 343.74 98.93
  A 0.67 0.67 -85.9 0 1 344.40 99.70
  L 341.18 120.67
  A 0.97 0.97 4.1 0 1 340.22 121.50
  L 306.28 121.50
  A 1.05 1.00 3.4 0 0 305.24 122.38
  L 303.35 137.19
  A 0.47 0.45 3.2 0 0 303.82 137.69
  Z"
/>
<path fill="#000000" d="
  M 439.44 161.01
  C 442.04 177.63 433.36 193.51 417.18 198.68
  Q 412.54 200.16 402.54 200.38
  Q 381.80 200.83 361.06 200.20
  A 0.44 0.44 4.6 0 1 360.63 199.70
  L 374.59 99.39
  A 0.53 0.52 3.7 0 1 375.11 98.94
  Q 394.24 99.03 413.51 99.01
  Q 420.06 99.00 423.82 100.29
  C 434.17 103.83 440.98 112.87 441.46 123.87
  C 441.75 130.51 439.42 142.03 432.41 145.18
  A 1.23 1.23 -34.8 0 0 432.05 147.19
  Q 438.22 153.19 439.44 161.01
  Z
  M 394.65 122.04
  C 393.43 126.11 393.10 132.72 392.73 137.07
  A 0.48 0.48 -85.9 0 0 393.18 137.59
  C 399.95 138.01 411.39 139.15 415.51 133.75
  C 418.52 129.81 417.92 124.70 413.34 122.40
  C 409.50 120.48 399.81 121.50 395.31 121.56
  A 0.69 0.67 7.8 0 0 394.65 122.04
  Z
  M 389.32 161.16
  L 387.11 177.19
  A 0.47 0.46 3.9 0 0 387.57 177.70
  Q 403.50 177.94 406.94 177.69
  C 417.00 176.94 422.18 160.85 407.98 160.38
  Q 399.67 160.11 390.35 160.27
  A 1.07 1.03 3.1 0 0 389.32 161.16
  Z"
/>
<path fill="#000000" d="
  M 540.49 151.30
  A 4.85 4.51 -55.2 0 0 540.11 148.65
  L 517.43 99.81
  A 0.57 0.57 77.7 0 1 517.95 99.00
  L 541.63 98.92
  A 1.37 1.36 -12.0 0 1 542.90 99.74
  L 554.76 126.85
  Q 555.17 127.80 555.74 126.93
  L 572.94 100.29
  A 2.96 2.85 15.7 0 1 575.37 98.99
  L 599.01 98.82
  Q 600.21 98.81 599.57 99.80
  Q 582.00 126.87 564.61 154.04
  Q 563.31 156.06 562.99 158.44
  Q 560.19 179.17 557.48 199.62
  A 1.02 1.01 -86.1 0 1 556.48 200.50
  L 534.66 200.44
  A 0.80 0.80 4.1 0 1 533.87 199.53
  L 540.49 151.30
  Z"
/>
<path fill="#000000" d="
  M 577.99 192.00
  A 7.96 7.96 0.0 0 1 570.03 199.96
  A 7.96 7.96 0.0 0 1 562.07 192.00
  A 7.96 7.96 0.0 0 1 570.03 184.04
  A 7.96 7.96 0.0 0 1 577.99 192.00
  Z
  M 576.79 192.10
  A 6.81 6.81 0.0 0 0 569.98 185.29
  A 6.81 6.81 0.0 0 0 563.17 192.10
  A 6.81 6.81 0.0 0 0 569.98 198.91
  A 6.81 6.81 0.0 0 0 576.79 192.10
  Z"
/>
<path fill="#000000" d="
  M 569.09 192.29
  A 0.16 0.16 18.0 0 0 568.87 192.40
  Q 568.27 195.16 567.78 195.86
  C 566.52 197.66 567.00 189.19 567.00 188.75
  A 1.08 1.07 -8.4 0 1 567.77 187.72
  Q 571.23 186.67 573.19 188.28
  C 574.52 189.38 574.38 191.39 572.66 192.04
  A 0.88 0.68 -11.4 0 0 572.11 192.67
  Q 571.98 193.95 572.93 194.87
  A 1.38 0.91 28.8 0 1 573.36 195.68
  C 573.47 197.88 569.99 192.67 569.09 192.29
  Z
  M 572.7096 189.7359
  A 1.24 1.24 0.0 0 0 571.4675 188.4981
  L 569.2675 188.5019
  A 1.24 1.24 0.0 0 0 568.0297 189.7441
  L 568.0304 190.1441
  A 1.24 1.24 0.0 0 0 569.2725 191.3819
  L 571.4725 191.3781
  A 1.24 1.24 0.0 0 0 572.7103 190.1359
  L 572.7096 189.7359
  Z"
/>
</svg>
