<?xml version="1.0" encoding="UTF-8" standalone="no"?>
<!DOCTYPE svg PUBLIC "-//W3C//DTD SVG 1.1//EN" "http://www.w3.org/Graphics/SVG/1.1/DTD/svg11.dtd">
<svg xmlns="http://www.w3.org/2000/svg" version="1.1" viewBox="0 0 600 300">
<path fill="#000000" d="
  M 368.59 139.91
  Q 368.53 143.14 369.56 140.08
  Q 380.45 107.67 391.50 75.32
  C 395.14 64.67 396.36 58.39 405.04 54.08
  C 414.27 49.51 425.48 51.38 432.04 59.47
  Q 434.48 62.47 436.63 68.75
  Q 450.57 109.49 464.47 150.89
  A 0.47 0.46 80.9 0 1 464.03 151.50
  L 410.10 151.50
  A 0.85 0.85 -0.0 0 1 409.25 150.65
  L 409.25 138.74
  A 0.99 0.99 0.0 0 1 410.24 137.75
  L 444.92 137.75
  A 0.54 0.54 80.4 0 0 445.43 137.03
  Q 433.88 102.98 422.75 70.00
  C 420.10 62.13 410.61 61.37 407.83 69.57
  Q 394.11 110.08 380.17 150.98
  A 0.77 0.76 -80.3 0 1 379.45 151.50
  Q 353.87 151.50 328.64 151.50
  Q 319.98 151.50 315.52 150.12
  C 302.81 146.19 296.64 135.81 296.39 122.79
  Q 296.01 102.97 296.37 83.15
  Q 296.52 75.20 298.04 71.06
  C 302.13 59.94 313.10 53.03 325.00 53.11
  Q 346.50 53.25 368.07 53.25
  A 0.68 0.67 0.0 0 1 368.75 53.92
  L 368.70 66.06
  A 0.96 0.95 0.3 0 1 367.74 67.00
  Q 346.86 67.00 326.38 67.00
  C 317.08 67.00 310.00 71.13 310.00 81.50
  Q 310.00 102.13 309.94 122.75
  C 309.91 131.26 314.99 137.39 323.48 137.58
  Q 338.36 137.92 354.34 137.73
  A 0.85 0.85 0.2 0 0 355.19 136.88
  L 355.25 101.42
  A 0.67 0.67 -0.2 0 0 354.58 100.75
  L 331.26 100.75
  A 1.26 1.26 -89.6 0 1 330.00 99.49
  L 330.00 88.47
  A 1.22 1.22 0.7 0 1 331.22 87.25
  L 367.99 87.25
  A 0.52 0.51 -0.6 0 1 368.51 87.75
  Q 369.07 114.46 368.59 139.91
  Z"
/>
<path fill="#000000" d="
  M 180.17 119.98
  C 181.03 118.27 179.20 117.75 177.87 117.75
  C 172.32 117.75 166.20 118.16 161.12 117.01
  Q 140.68 112.38 135.57 90.94
  Q 133.95 84.14 136.15 77.47
  Q 144.25 52.81 170.75 53.06
  Q 190.50 53.25 209.76 53.25
  A 1.06 1.01 89.4 0 1 210.77 54.29
  L 210.97 65.84
  A 1.14 1.08 89.5 0 1 209.89 67.00
  Q 191.66 67.00 173.71 67.00
  C 162.18 67.00 154.04 68.42 150.00 79.50
  C 145.38 92.15 155.59 104.08 168.50 104.00
  Q 174.98 103.96 179.25 104.25
  C 199.51 105.63 198.88 134.20 177.28 134.57
  Q 157.75 134.90 138.22 134.76
  C 136.50 134.74 134.47 135.33 134.65 132.72
  C 134.91 129.03 134.73 125.31 134.80 121.75
  A 0.77 0.77 -89.2 0 1 135.57 121.00
  L 178.51 121.00
  A 1.87 1.86 -76.4 0 0 180.17 119.98
  Z"
/>
<path fill="#000000" d="
  M 246.02 137.69
  Q 268.17 137.68 290.32 137.93
  A 0.53 0.51 0.6 0 1 290.84 138.44
  L 290.96 150.93
  A 0.51 0.51 0.0 0 1 290.45 151.44
  Q 269.78 151.53 249.10 151.51
  Q 240.95 151.50 236.55 150.13
  Q 223.22 145.97 218.90 132.65
  Q 217.50 128.34 217.44 120.68
  Q 217.33 106.15 217.43 91.62
  Q 217.53 77.53 217.62 76.91
  C 219.62 62.32 231.51 53.63 245.80 53.41
  Q 267.65 53.09 290.47 53.26
  A 0.79 0.78 0.4 0 1 291.25 54.04
  L 291.25 65.97
  A 1.03 1.03 -89.8 0 1 290.22 67.00
  Q 268.62 67.00 248.00 67.00
  C 235.90 67.00 231.00 71.93 231.00 84.01
  Q 231.00 99.78 231.00 115.55
  C 231.00 125.33 230.26 132.41 238.82 136.44
  Q 241.47 137.69 246.02 137.69
  Z"
/>
<path fill="#000000" d="
  M 408.46 123.92
  Q 404.60 137.62 399.61 150.97
  A 0.73 0.71 9.7 0 1 398.93 151.44
  L 384.35 151.50
  A 0.73 0.73 -80.6 0 1 383.66 150.53
  Q 397.39 110.57 411.18 70.10
  C 412.82 65.27 418.36 66.44 419.77 70.74
  Q 430.14 102.33 441.02 133.80
  A 0.72 0.72 -9.5 0 1 440.34 134.75
  L 410.15 134.75
  A 0.90 0.85 0.9 0 1 409.25 133.87
  L 409.63 124.32
  A 0.88 0.51 -82.7 0 0 409.29 123.52
  Q 409.11 123.45 408.91 123.47
  A 0.64 0.49 -82.3 0 0 408.46 123.92
  Z
  M 414.80 106.27
  L 410.44 118.87
  A 0.56 0.55 9.7 0 0 410.97 119.60
  L 419.45 119.69
  A 0.56 0.54 -8.6 0 0 419.99 118.98
  L 415.76 106.28
  Q 415.29 104.87 414.80 106.27
  Z"
/>
<path fill="#000000" d="
  M 176.25 87.25
  C 214.36 84.58 224.55 138.74 188.29 150.11
  Q 183.85 151.50 175.05 151.50
  Q 156.06 151.50 135.94 151.50
  A 1.16 1.11 0.2 0 1 134.78 150.38
  L 134.91 138.43
  A 0.54 0.51 -0.0 0 1 135.44 137.93
  Q 155.08 137.65 174.72 137.72
  Q 182.26 137.75 185.59 136.42
  C 201.14 130.25 201.11 107.68 185.08 101.96
  C 177.77 99.35 168.50 102.63 161.15 99.35
  C 146.10 92.65 151.25 70.28 168.00 70.27
  Q 188.88 70.25 210.25 70.25
  A 0.70 0.68 -89.6 0 1 210.93 70.96
  L 210.69 83.17
  A 0.59 0.58 -89.5 0 1 210.11 83.75
  Q 189.10 83.70 168.43 83.81
  C 164.98 83.83 164.65 87.13 168.29 87.21
  Q 174.73 87.36 176.25 87.25
  Z"
/>
<path fill="#000000" d="
  M 248.82 87.20
  L 280.28 87.07
  A 1.00 0.99 89.4 0 1 281.27 88.05
  L 281.42 99.79
  A 0.95 0.91 89.7 0 1 280.51 100.75
  L 235.39 100.75
  A 1.11 1.11 89.7 0 1 234.28 99.65
  C 234.16 93.22 232.89 80.38 236.04 75.16
  C 239.48 69.44 244.37 70.25 251.65 70.25
  Q 270.76 70.25 290.40 70.25
  A 0.85 0.85 -0.0 0 1 291.25 71.10
  L 291.25 83.09
  A 0.66 0.66 -0.2 0 1 290.59 83.75
  L 251.79 83.75
  A 4.94 4.92 -60.3 0 0 249.26 84.45
  Q 247.69 85.38 248.12 86.73
  A 0.75 0.67 -7.9 0 0 248.82 87.20
  Z"
/>
<path fill="#000000" d="
  M 324.44 134.59
  C 315.41 134.37 313.25 128.62 313.25 120.43
  Q 313.25 104.45 313.25 88.47
  C 313.25 78.18 313.22 70.25 325.38 70.25
  Q 346.36 70.25 367.90 70.25
  A 0.85 0.85 -0.0 0 1 368.75 71.10
  L 368.75 83.09
  A 0.66 0.66 -0.2 0 1 368.09 83.75
  Q 350.54 83.75 333.31 83.75
  C 329.23 83.75 327.01 83.45 327.00 88.10
  Q 326.96 103.48 327.06 117.99
  Q 327.08 120.69 329.74 120.75
  L 337.44 120.93
  A 0.75 0.69 9.9 0 0 338.14 120.48
  Q 338.63 119.17 337.96 117.98
  A 0.91 0.70 -11.5 0 0 337.20 117.61
  L 331.03 117.72
  A 1.08 1.01 89.5 0 1 330.00 116.64
  L 330.00 104.92
  A 0.92 0.92 0.6 0 1 330.92 104.00
  L 351.09 104.00
  A 0.73 0.73 0.6 0 1 351.82 104.73
  L 351.75 133.87
  A 0.86 0.86 -0.3 0 1 350.90 134.73
  Q 336.84 134.89 324.44 134.59
  Z"
/>
<path fill="#000000" d="
  M 251.72 120.94
  Q 270.87 121.04 290.33 121.00
  A 0.67 0.66 -0.0 0 1 291.00 121.66
  L 291.00 133.65
  A 0.85 0.85 -0.0 0 1 290.15 134.50
  Q 268.90 134.50 248.19 134.50
  C 239.71 134.50 234.69 132.22 234.38 123.28
  Q 234.12 115.43 234.24 107.57
  C 234.31 103.00 234.35 104.25 238.11 104.25
  Q 259.34 104.29 280.57 104.19
  A 0.52 0.50 -0.0 0 1 281.09 104.69
  L 281.21 116.94
  A 0.84 0.81 -0.3 0 1 280.37 117.76
  L 248.69 117.93
  A 0.52 0.49 -0.5 0 0 248.17 118.43
  C 248.24 120.38 249.95 120.94 251.72 120.94
  Z"
/>
<path fill="#000000" d="
  M 31.32 200.44
  Q 50.29 200.53 69.26 200.51
  Q 76.97 200.50 80.56 201.91
  Q 90.84 205.96 90.75 219.25
  C 90.68 230.37 93.29 244.63 79.76 249.00
  Q 76.67 250.00 68.14 250.00
  Q 42.45 250.00 16.74 250.00
  A 0.68 0.66 -0.0 0 1 16.06 249.34
  L 16.06 233.84
  A 0.60 0.59 0.0 0 1 16.66 233.25
  L 73.56 233.25
  A 0.70 0.69 90.0 0 0 74.25 232.55
  L 74.32 217.53
  A 0.72 0.70 90.0 0 0 73.62 216.81
  Q 57.53 216.72 41.22 216.74
  C 29.04 216.75 20.41 218.13 15.81 206.96
  C 13.68 201.81 13.49 183.06 15.79 178.03
  Q 20.60 167.50 33.75 167.50
  Q 58.87 167.50 84.21 167.50
  A 1.01 0.97 0.6 0 1 85.22 168.49
  L 85.03 183.50
  A 0.54 0.52 -0.0 0 1 84.50 184.01
  Q 57.91 184.57 31.58 184.07
  A 0.75 0.73 0.8 0 0 30.81 184.80
  L 30.80 199.93
  A 0.52 0.51 0.0 0 0 31.32 200.44
  Z"
/>
<path fill="#000000" d="
  M 120.81 233.19
  L 168.34 233.25
  A 0.91 0.91 0.0 0 0 169.25 232.34
  L 169.19 217.70
  A 0.96 0.95 0.0 0 0 168.23 216.75
  L 137.31 216.82
  A 0.75 0.73 -0.0 0 1 136.56 216.09
  L 136.51 201.27
  A 0.77 0.77 0.0 0 1 137.28 200.50
  L 184.84 200.50
  A 0.66 0.66 0.0 0 1 185.50 201.16
  L 185.50 249.15
  A 0.85 0.85 0.0 0 1 184.65 250.00
  Q 153.00 250.00 122.00 250.01
  C 109.89 250.01 103.75 244.58 103.75 232.25
  Q 103.75 210.50 103.75 188.74
  C 103.75 179.25 105.72 171.58 115.14 168.56
  Q 118.46 167.50 127.96 167.50
  Q 154.58 167.50 181.93 167.50
  A 0.76 0.75 0.0 0 1 182.69 168.25
  L 182.75 183.13
  A 1.12 1.11 -0.3 0 1 181.63 184.25
  L 120.92 184.25
  A 0.67 0.67 0.0 0 0 120.25 184.92
  L 120.31 232.68
  A 0.51 0.50 90.0 0 0 120.81 233.19
  Z"
/>
<path fill="#000000" d="
  M 288.06 233.19
  L 303.06 233.42
  A 0.53 0.51 0.6 0 1 303.58 233.93
  L 303.73 249.14
  A 0.87 0.85 -0.3 0 1 302.86 250.00
  L 256.07 250.00
  A 1.32 1.32 0.0 0 1 254.75 248.68
  L 254.75 233.92
  A 0.67 0.67 0.0 0 1 255.42 233.25
  L 270.57 233.25
  A 0.68 0.68 0.0 0 0 271.25 232.57
  L 271.19 184.70
  A 0.53 0.52 -0.5 0 0 270.65 184.18
  L 255.69 184.25
  A 0.95 0.94 -90.0 0 1 254.75 183.30
  L 254.75 168.49
  A 0.99 0.99 0.0 0 1 255.74 167.50
  L 286.64 167.50
  A 0.86 0.86 0.0 0 1 287.50 168.36
  L 287.56 232.69
  A 0.51 0.50 0.6 0 0 288.06 233.19
  Z"
/>
<path fill="#000000" d="
  M 314.75 183.00
  C 314.75 177.12 319.51 171.21 324.98 168.91
  Q 327.73 167.75 333.20 167.68
  Q 344.82 167.53 371.50 167.50
  C 376.86 167.49 381.84 167.15 386.39 169.14
  C 394.71 172.78 396.18 179.36 396.21 188.42
  Q 396.29 209.58 396.25 230.75
  C 396.23 242.74 392.36 249.69 379.50 249.80
  Q 356.00 250.00 332.50 250.02
  C 319.44 250.03 314.46 243.31 314.56 230.75
  Q 314.75 206.87 314.75 183.00
  Z
  M 379.8122 184.5726
  A 0.30 0.30 0.0 0 0 379.5127 184.2721
  L 331.3328 184.1880
  A 0.30 0.30 0.0 0 0 331.0323 184.4875
  L 330.9478 232.9074
  A 0.30 0.30 0.0 0 0 331.2473 233.2079
  L 379.4272 233.2920
  A 0.30 0.30 0.0 0 0 379.7277 232.9925
  L 379.8122 184.5726
  Z"
/>
<path fill="#000000" d="
  M 408.47 184.25
  C 408.45 173.56 416.72 167.86 426.62 167.66
  Q 448.68 167.23 470.74 167.64
  Q 477.27 167.77 480.50 169.26
  C 487.37 172.43 489.70 178.01 489.84 185.64
  Q 490.27 208.42 489.86 231.19
  C 489.62 244.51 484.96 250.08 471.25 250.05
  Q 449.75 250.00 428.25 250.07
  C 412.20 250.13 408.50 243.97 408.50 228.92
  Q 408.50 206.58 408.47 184.25
  Z
  M 473.5078 184.5274
  A 0.40 0.40 0.0 0 0 473.1071 184.1281
  L 425.0872 184.2119
  A 0.40 0.40 0.0 0 0 424.6879 184.6126
  L 424.7722 232.8926
  A 0.40 0.40 0.0 0 0 425.1729 233.2919
  L 473.1928 233.2081
  A 0.40 0.40 0.0 0 0 473.5921 232.8074
  L 473.5078 184.5274
  Z"
/>
<path fill="#000000" d="
  M 505.88 173.89
  C 509.68 169.22 513.94 167.78 520.27 167.68
  Q 537.87 167.40 555.47 167.45
  C 568.24 167.49 578.08 166.63 582.65 178.50
  Q 584.00 182.03 584.00 188.70
  Q 584.00 211.10 584.00 233.50
  C 584.00 245.04 576.15 250.05 565.50 250.04
  Q 543.00 250.00 520.50 250.00
  C 508.42 250.00 502.12 244.72 502.17 232.25
  Q 502.24 211.07 502.25 189.88
  C 502.25 182.66 501.96 178.73 505.88 173.89
  Z
  M 567.49 184.78
  A 0.55 0.55 0.0 0 0 566.94 184.23
  L 519.04 184.23
  A 0.55 0.55 0.0 0 0 518.49 184.78
  L 518.49 232.70
  A 0.55 0.55 0.0 0 0 519.04 233.25
  L 566.94 233.25
  A 0.55 0.55 0.0 0 0 567.49 232.70
  L 567.49 184.78
  Z"
/>
<rect fill="#000000" x="198.00" y="200.50" width="49.00" height="16.50" rx="0.80"/>
</svg>
