<?xml version="1.0" encoding="UTF-8" standalone="no"?>
<!DOCTYPE svg PUBLIC "-//W3C//DTD SVG 1.1//EN" "http://www.w3.org/Graphics/SVG/1.1/DTD/svg11.dtd">
<svg xmlns="http://www.w3.org/2000/svg" version="1.1" viewBox="0 0 600 300">
<path stroke="#000000" stroke-width="2.00" fill="none" stroke-linecap="butt" vector-effect="non-scaling-stroke" d="
  M 381.96 168.25
  L 382.04 168.50"
/>
<path fill="#000000" d="
  M 75.29 94.43
  C 111.03 94.09 117.13 143.59 82.77 151.08
  C 78.42 152.02 76.86 150.13 76.30 146.02
  C 74.56 133.36 63.88 125.32 51.56 123.44
  C 46.96 122.73 49.46 114.28 50.76 111.54
  Q 55.98 100.57 67.46 96.49
  C 70.07 95.56 72.51 94.45 75.29 94.43
  Z"
/>
<path fill="#000000" d="
  M 105.76 148.64
  C 106.94 119.00 149.52 112.97 160.49 140.35
  C 165.39 152.56 161.54 165.68 151.08 173.83
  C 147.81 176.38 134.64 183.37 133.36 175.40
  C 131.13 161.50 121.63 152.93 107.73 151.00
  Q 105.68 150.71 105.76 148.64
  Z"
/>
<path fill="#000000" d="
  M 592.6387 130.3500
  A 5.13 4.92 -3.8 0 1 587.8461 135.5992
  A 5.13 4.92 -3.8 0 1 582.4013 131.0300
  A 5.13 4.92 -3.8 0 1 587.1939 125.7808
  A 5.13 4.92 -3.8 0 1 592.6387 130.3500
  Z
  M 591.21 130.63
  A 3.82 3.82 0.0 0 0 587.39 126.81
  A 3.82 3.82 0.0 0 0 583.57 130.63
  A 3.82 3.82 0.0 0 0 587.39 134.45
  A 3.82 3.82 0.0 0 0 591.21 130.63
  Z"
/>
<path fill="#000000" d="
  M 586.56 131.47
  Q 585.28 134.51 585.37 130.50
  Q 585.44 126.86 588.86 128.46
  A 1.21 1.21 35.8 0 1 589.18 130.43
  Q 588.43 131.15 589.00 132.32
  A 0.51 0.41 66.3 0 1 588.82 133.00
  C 588.12 133.24 587.73 131.78 587.16 131.29
  A 0.41 0.37 -58.7 0 0 586.56 131.47
  Z
  M 588.21 129.78
  C 589.19 127.87 584.12 129.46 587.44 130.10
  A 0.74 0.63 18.0 0 0 588.21 129.78
  Z"
/>
<path fill="#000000" d="
  M 282.63 147.80
  Q 283.56 153.08 289.25 152.92
  Q 295.13 152.75 300.95 152.75
  A 0.53 0.51 0.5 0 1 301.48 153.27
  L 301.46 157.69
  A 0.52 0.50 -0.0 0 1 300.94 158.19
  C 294.88 158.27 285.84 159.28 280.73 156.84
  C 271.32 152.35 271.83 136.80 281.06 132.12
  C 285.92 129.66 295.21 130.75 301.08 130.75
  A 0.67 0.67 0.2 0 1 301.75 131.42
  L 301.75 135.58
  A 0.92 0.92 -0.1 0 1 300.83 136.50
  C 295.40 136.50 285.02 134.49 282.81 140.83
  A 0.87 0.86 -80.4 0 0 283.62 141.99
  L 300.68 141.83
  A 0.81 0.71 -10.4 0 1 301.40 142.26
  Q 302.30 144.40 301.50 146.61
  A 0.76 0.72 8.9 0 1 300.81 147.08
  L 283.06 147.31
  A 0.44 0.42 -5.1 0 0 282.63 147.80
  Z"
/>
<path fill="#000000" d="
  M 249.30 149.81
  L 249.26 157.73
  A 0.53 0.52 -89.4 0 1 248.74 158.25
  L 242.17 158.25
  A 0.67 0.67 0.0 0 1 241.50 157.58
  L 241.50 131.78
  A 0.78 0.78 0.0 0 1 242.28 131.00
  C 249.07 131.00 258.78 130.17 264.17 131.19
  C 275.18 133.27 273.33 149.72 260.50 149.00
  Q 255.63 148.73 249.81 149.27
  A 0.55 0.54 -2.3 0 0 249.30 149.81
  Z
  M 262.96 138.56
  C 262.00 135.75 252.46 136.03 250.18 136.36
  A 0.64 0.58 -4.6 0 0 249.63 136.94
  L 249.63 143.07
  A 0.60 0.53 2.3 0 0 250.19 143.60
  C 253.22 143.84 265.33 145.48 262.96 138.56
  Z"
/>
<path fill="#000000" d="
  M 314.05 148.81
  L 314.01 157.06
  A 1.13 1.05 -89.7 0 1 312.95 158.19
  L 306.44 158.11
  A 0.55 0.52 90.0 0 1 305.92 157.56
  L 305.92 131.69
  A 0.54 0.52 -1.1 0 1 306.44 131.17
  Q 323.82 130.68 328.50 131.00
  C 334.00 131.38 338.08 136.57 336.46 141.87
  Q 335.30 145.64 330.43 147.85
  A 0.42 0.41 59.5 0 0 330.27 148.48
  L 337.18 157.45
  Q 337.59 157.98 336.93 157.98
  L 329.07 157.95
  A 1.02 0.93 -15.9 0 1 328.26 157.55
  L 322.79 149.64
  A 3.41 2.38 66.7 0 0 320.40 148.16
  L 314.55 148.21
  A 0.60 0.51 89.5 0 0 314.05 148.81
  Z
  M 313.91 142.37
  A 0.86 0.84 -89.3 0 0 314.75 143.25
  L 324.01 143.25
  Q 325.86 143.25 327.17 141.96
  Q 329.73 139.44 326.83 137.38
  Q 325.59 136.50 323.98 136.49
  L 314.68 136.41
  A 0.68 0.67 -89.6 0 0 314.01 137.08
  L 313.91 142.37
  Z"
/>
<path fill="#000000" d="
  M 202.03 143.73
  C 208.00 148.71 205.10 158.22 197.00 158.23
  Q 186.75 158.25 175.81 158.25
  A 0.59 0.56 89.5 0 1 175.25 157.67
  L 175.15 153.45
  A 0.68 0.66 89.2 0 1 175.81 152.75
  L 193.95 152.69
  A 1.61 1.45 24.8 0 0 194.85 152.41
  Q 197.67 150.40 195.11 147.98
  A 2.67 2.61 -22.6 0 0 193.28 147.25
  C 187.03 147.25 176.15 149.15 173.96 141.85
  C 171.99 135.31 176.56 131.28 183.00 131.25
  Q 192.72 131.21 202.43 131.31
  A 0.90 0.70 -9.3 0 1 203.20 131.73
  Q 203.75 132.94 203.15 135.54
  A 1.25 1.24 -83.2 0 1 201.94 136.50
  Q 193.99 136.50 186.58 136.50
  C 183.46 136.50 180.36 138.44 183.70 141.61
  A 1.32 1.18 -21.0 0 0 184.57 141.94
  C 188.31 141.95 199.01 141.21 202.03 143.73
  Z"
/>
<path fill="#000000" d="
  M 228.97 152.18
  Q 229.65 142.10 229.01 132.14
  A 0.76 0.71 88.5 0 1 229.72 131.33
  L 236.50 131.43
  A 0.58 0.52 89.9 0 1 237.01 132.00
  L 237.06 157.50
  A 0.75 0.75 0.0 0 1 236.31 158.25
  Q 227.24 158.25 218.73 158.25
  C 211.60 158.25 207.99 155.42 208.01 148.28
  Q 208.02 140.24 207.94 132.19
  A 0.65 0.62 83.9 0 1 208.42 131.56
  Q 210.91 130.97 214.84 131.44
  A 1.04 1.03 -86.6 0 1 215.75 132.47
  C 215.75 137.32 214.85 145.38 215.85 149.60
  C 216.86 153.89 223.82 152.81 228.44 152.70
  A 0.55 0.54 -88.8 0 0 228.97 152.18
  Z"
/>
<path fill="#000000" d="
  M 364.31 138.81
  Q 361.68 142.35 365.19 142.13
  C 370.60 141.78 376.17 142.00 381.66 142.00
  A 1.09 1.09 89.8 0 1 382.75 143.09
  L 382.75 146.58
  A 1.22 1.20 -0.2 0 1 381.54 147.78
  L 363.68 147.92
  A 0.54 0.51 -88.8 0 0 363.17 148.44
  L 362.83 157.57
  A 0.65 0.64 84.8 0 1 362.33 158.18
  Q 358.93 158.93 355.62 158.34
  A 0.52 0.51 5.1 0 1 355.18 157.82
  C 355.25 152.28 354.06 141.96 356.49 137.30
  C 360.90 128.84 374.09 131.19 382.18 131.30
  A 0.66 0.50 0.6 0 1 382.83 131.80
  L 382.84 135.64
  A 1.01 0.86 -0.3 0 1 381.84 136.50
  L 368.06 136.56
  Q 365.98 136.57 364.31 138.81
  Z"
/>
<path fill="#000000" d="
  M 387.19 132.02
  A 0.80 0.78 0.4 0 1 387.99 131.25
  C 394.34 131.25 404.25 130.28 409.10 132.60
  C 417.53 136.64 415.81 147.95 415.28 157.99
  A 0.58 0.55 -89.9 0 1 414.76 158.53
  Q 401.11 159.28 392.31 158.44
  C 387.85 158.01 384.85 154.24 385.13 149.74
  C 385.77 139.39 399.46 142.00 406.54 142.00
  A 0.65 0.64 82.2 0 0 407.16 141.18
  Q 405.82 136.50 400.50 136.56
  Q 394.09 136.64 387.68 136.34
  A 0.54 0.53 1.7 0 1 387.17 135.81
  L 387.19 132.02
  Z
  M 394.36 148.59
  C 391.16 154.98 403.57 153.28 406.43 153.25
  A 1.08 1.08 -0.3 0 0 407.50 152.17
  L 407.50 148.16
  A 0.91 0.91 -0.1 0 0 406.59 147.25
  L 396.53 147.25
  A 2.43 2.42 13.3 0 0 394.36 148.59
  Z"
/>
<path fill="#000000" d="
  M 443.31 137.82
  L 443.26 157.57
  A 1.11 1.01 -89.2 0 1 442.23 158.67
  L 435.75 158.57
  A 0.57 0.51 -89.5 0 1 435.25 158.00
  Q 435.23 149.42 435.25 140.83
  C 435.26 136.33 434.96 136.88 430.77 136.88
  Q 429.58 136.88 428.51 137.35
  A 0.78 0.71 78.7 0 0 428.08 138.06
  L 428.24 157.85
  A 0.61 0.59 -89.5 0 1 427.64 158.46
  L 420.43 158.36
  A 0.55 0.52 90.0 0 1 419.92 157.82
  L 419.76 132.12
  A 0.88 0.86 -0.3 0 1 420.64 131.25
  Q 435.25 131.25 449.50 131.25
  Q 455.35 131.25 457.84 135.69
  C 460.50 140.44 459.25 151.91 459.25 157.98
  A 0.77 0.77 -89.9 0 1 458.48 158.75
  L 452.48 158.75
  A 0.98 0.98 0.1 0 1 451.50 157.77
  L 451.50 140.81
  Q 451.50 139.00 449.90 138.16
  Q 447.17 136.73 443.80 137.23
  A 0.60 0.57 86.1 0 0 443.31 137.82
  Z"
/>
<path fill="#000000" d="
  M 505.75 146.75
  C 504.04 124.76 543.26 125.87 538.95 148.49
  C 537.00 158.74 524.87 161.36 516.23 158.90
  C 509.70 157.04 506.28 153.59 505.75 146.75
  Z
  M 531.4568 143.9071
  A 7.77 7.77 0.0 0 0 523.7276 136.0965
  L 521.2877 136.0837
  A 7.77 7.77 0.0 0 0 513.4771 143.8129
  L 513.4632 146.4729
  A 7.77 7.77 0.0 0 0 521.1924 154.2835
  L 523.6323 154.2963
  A 7.77 7.77 0.0 0 0 531.4429 146.5671
  L 531.4568 143.9071
  Z"
/>
<rect fill="#000000" x="-4.26" y="-13.49" transform="translate(468.26,145.00) rotate(0.1)" width="8.52" height="26.98" rx="0.77"/>
<path fill="#000000" d="
  M 480.55 155.65
  C 472.86 148.42 475.77 131.72 488.00 131.58
  Q 495.13 131.50 502.51 131.50
  A 0.99 0.99 0.0 0 1 503.50 132.49
  L 503.50 136.59
  A 0.66 0.66 0.4 0 1 502.83 137.25
  Q 496.62 137.21 490.65 137.28
  C 487.13 137.33 485.27 138.89 484.68 142.24
  C 482.24 156.13 494.08 153.70 502.41 153.43
  A 0.72 0.66 -0.8 0 1 503.15 154.09
  L 503.14 158.08
  A 0.60 0.51 -1.8 0 1 502.57 158.59
  C 496.16 158.92 485.48 160.28 480.55 155.65
  Z"
/>
<path fill="#000000" d="
  M 566.56 138.07
  L 566.50 158.35
  A 0.90 0.89 -90.0 0 1 565.61 159.25
  L 558.93 159.25
  A 0.52 0.50 -90.0 0 1 558.43 158.73
  L 558.33 138.19
  A 0.56 0.51 90.0 0 0 557.82 137.63
  L 551.94 137.62
  A 0.58 0.49 -90.0 0 0 551.45 138.20
  L 551.33 158.56
  A 0.59 0.57 -3.4 0 1 550.81 159.13
  Q 547.60 159.52 543.72 158.87
  A 0.67 0.66 -85.5 0 1 543.17 158.21
  L 543.06 132.80
  A 0.80 0.78 90.0 0 1 543.84 132.00
  Q 554.65 132.00 565.69 132.00
  C 573.33 132.00 580.13 130.99 582.08 138.85
  C 583.17 143.26 582.58 152.62 582.33 158.56
  A 0.58 0.54 -89.4 0 1 581.80 159.12
  L 575.78 159.19
  A 1.09 1.02 89.7 0 1 574.75 158.10
  L 574.75 141.24
  Q 574.75 139.58 573.32 138.74
  Q 570.47 137.08 567.05 137.49
  A 0.59 0.56 86.7 0 0 566.56 138.07
  Z"
/>
<ellipse fill="#000000" cx="41.61" cy="158.61" rx="32.66" ry="15.85"/>
<path fill="#000000" d="
  M 388.07 166.32
  A 4.29 4.29 0.0 0 1 383.78 170.61
  A 4.29 4.29 0.0 0 1 379.49 166.32
  A 4.29 4.29 0.0 0 1 383.78 162.03
  A 4.29 4.29 0.0 0 1 388.07 166.32
  Z
  M 381.71 164.06
  Q 378.74 166.69 381.96 168.25
  L 382.04 168.50
  Q 383.26 170.47 385.31 168.81
  C 390.10 164.97 383.74 161.13 381.71 164.06
  Z"
/>
<path fill="#000000" d="
  M 382.00 164.29
  Q 382.50 164.18 382.85 164.44
  A 1.26 0.59 -87.3 0 1 383.20 165.30
  Q 383.30 166.54 384.31 165.76
  A 0.73 0.66 63.1 0 0 384.53 164.97
  L 384.42 164.64
  Q 384.30 164.29 384.64 164.43
  Q 386.32 165.18 384.50 167.35
  A 0.47 0.46 30.4 0 1 383.98 167.48
  Q 382.86 167.03 382.04 168.50
  L 381.96 168.25
  L 382.00 164.29
  Z"
/>
<path fill="#000000" d="
  M 188.85 180.30
  C 183.69 184.08 180.17 183.31 173.97 183.24
  A 0.66 0.66 7.8 0 1 173.34 182.41
  Q 173.72 181.00 173.25 179.24
  A 0.61 0.60 -6.8 0 1 173.85 178.48
  C 180.23 178.65 188.27 179.16 189.70 171.05
  A 1.07 1.07 2.7 0 0 188.56 169.80
  Q 181.66 170.31 175.00 169.79
  A 0.72 0.69 -4.3 0 1 174.36 169.27
  Q 173.91 167.49 174.36 165.73
  A 0.67 0.63 6.7 0 1 175.00 165.25
  L 192.73 165.25
  A 0.56 0.55 86.5 0 1 193.28 165.74
  Q 193.80 170.02 192.37 175.70
  A 2.00 1.99 -56.8 0 0 192.72 177.39
  L 196.70 182.60
  A 0.35 0.35 -26.3 0 1 196.51 183.15
  Q 191.83 184.49 189.49 180.43
  A 0.44 0.44 56.3 0 0 188.85 180.30
  Z"
/>
<path fill="#000000" d="
  M 230.96 176.86
  Q 232.46 178.66 234.74 178.14
  C 237.31 177.55 236.88 180.32 236.91 182.04
  C 236.94 183.82 235.04 183.36 233.60 183.14
  C 223.91 181.69 225.33 173.14 225.55 165.81
  A 0.71 0.67 82.8 0 1 226.03 165.15
  Q 227.49 164.71 228.96 165.15
  A 0.65 0.63 -80.5 0 1 229.41 165.81
  C 229.27 169.02 228.80 174.28 230.96 176.86
  Z"
/>
<path fill="#000000" d="
  M 237.09 168.30
  A 3.27 3.27 0.0 0 1 233.82 171.57
  A 3.27 3.27 0.0 0 1 230.55 168.30
  A 3.27 3.27 0.0 0 1 233.82 165.03
  A 3.27 3.27 0.0 0 1 237.09 168.30
  Z
  M 235.25 168.40
  A 1.38 1.38 0.0 0 0 233.87 167.02
  A 1.38 1.38 0.0 0 0 232.49 168.40
  A 1.38 1.38 0.0 0 0 233.87 169.78
  A 1.38 1.38 0.0 0 0 235.25 168.40
  Z"
/>
<rect fill="#000000" x="-11.34" y="-2.11" transform="translate(316.00,168.34) rotate(6.6)" width="22.68" height="4.22" rx="0.27"/>
<path fill="#000000" d="
  M 223.41 165.93
  C 224.98 173.89 223.23 184.13 212.75 183.06
  A 0.65 0.54 3.9 0 1 212.16 182.50
  L 212.21 178.80
  A 0.58 0.47 2.2 0 1 212.82 178.35
  C 220.97 178.79 219.48 171.14 219.55 166.07
  A 0.71 0.66 83.5 0 1 220.04 165.41
  Q 221.41 165.01 222.82 165.31
  A 0.80 0.77 -89.7 0 1 223.41 165.93
  Z"
/>
<path fill="#000000" d="
  M 277.68 170.05
  Q 270.78 169.96 263.88 169.99
  C 260.44 170.01 259.59 170.60 260.17 166.56
  A 1.47 1.45 -86.1 0 1 261.60 165.30
  L 281.29 165.25
  A 0.70 0.70 0.0 0 1 281.99 165.95
  C 282.04 169.91 282.58 174.36 280.83 177.72
  C 277.09 184.91 268.03 183.59 261.94 183.10
  A 0.64 0.52 2.3 0 1 261.34 182.57
  L 261.39 178.92
  A 0.83 0.68 0.8 0 1 262.23 178.25
  C 268.09 178.30 279.02 180.48 278.24 170.55
  A 0.58 0.54 -1.6 0 0 277.68 170.05
  Z"
/>
<path fill="#000000" d="
  M 348.88 171.75
  A 1.48 1.27 -89.6 0 0 347.61 170.25
  L 330.77 170.25
  A 0.96 0.96 2.7 0 1 329.81 169.20
  L 330.13 165.93
  A 0.57 0.56 -87.2 0 1 330.69 165.42
  L 351.98 165.27
  A 0.98 0.93 -90.0 0 1 352.92 166.26
  L 352.80 182.56
  A 0.52 0.51 88.9 0 1 352.31 183.08
  Q 342.26 183.38 332.20 183.26
  C 331.03 183.25 329.20 183.88 329.34 181.89
  C 329.61 178.17 329.07 178.25 333.00 178.25
  Q 340.06 178.25 348.13 178.25
  A 0.75 0.69 -89.6 0 0 348.82 177.51
  L 348.88 171.75
  Z"
/>
<rect fill="#000000" x="355.12" y="165.50" width="13.88" height="4.74" rx="0.74"/>
<path fill="#000000" d="
  M 371.64 177.46
  C 375.24 175.23 374.31 170.80 374.00 167.27
  Q 373.79 164.95 377.32 165.74
  A 0.92 0.92 4.0 0 1 378.03 166.55
  C 379.80 185.24 370.53 183.92 356.05 183.45
  A 0.96 0.80 -11.5 0 1 355.27 183.03
  Q 354.89 182.35 355.10 181.48
  Q 355.22 180.96 355.10 180.52
  Q 354.38 177.96 356.97 178.15
  C 360.03 178.36 369.21 178.97 371.64 177.46
  Z"
/>
<path fill="#000000" d="
  M 293.99 180.78
  C 292.91 184.04 288.70 183.25 285.62 183.25
  A 0.66 0.66 83.3 0 1 284.98 182.74
  C 283.06 174.51 291.86 182.91 291.51 176.39
  A 0.60 0.60 88.7 0 1 292.12 175.75
  C 293.09 175.76 300.73 176.50 299.23 173.96
  A 0.97 0.76 -12.0 0 0 298.45 173.58
  L 284.82 173.73
  A 0.85 0.82 84.2 0 1 284.00 173.03
  Q 283.62 171.07 283.88 170.03
  A 0.72 0.64 6.8 0 1 284.56 169.56
  L 302.18 169.55
  A 0.78 0.70 -9.1 0 1 302.89 170.01
  C 303.11 170.65 303.01 171.71 303.07 172.33
  Q 303.74 178.93 295.94 179.30
  A 2.17 2.16 -82.1 0 0 293.99 180.78
  Z"
/>
<path fill="#000000" d="
  M 125.07 177.93
  C 129.91 181.30 132.69 187.19 127.98 192.24
  C 115.94 205.12 86.51 205.63 71.99 196.01
  C 58.77 187.26 67.45 177.34 78.27 173.81
  C 92.95 169.02 112.30 169.07 125.07 177.93
  Z"
/>
<rect fill="#000000" x="-11.38" y="-2.07" transform="translate(316.21,174.15) rotate(6.8)" width="22.76" height="4.14" rx="0.27"/>
<rect fill="#000000" x="-8.73" y="-2.39" transform="translate(245.50,174.11) rotate(0.1)" width="17.46" height="4.78" rx="0.60"/>
<rect fill="#000000" x="195.26" y="171.76" width="17.40" height="4.76" rx="0.61"/>
<rect fill="#000000" x="-11.47" y="-2.13" transform="translate(316.15,180.15) rotate(6.8)" width="22.94" height="4.26" rx="0.69"/>
</svg>
