<?xml version="1.0" encoding="UTF-8" standalone="no"?>
<!DOCTYPE svg PUBLIC "-//W3C//DTD SVG 1.1//EN" "http://www.w3.org/Graphics/SVG/1.1/DTD/svg11.dtd">
<svg xmlns="http://www.w3.org/2000/svg" version="1.1" viewBox="0 0 600 300">
<g stroke-width="2.00" fill="none" stroke-linecap="butt">
<path stroke="#806009" vector-effect="non-scaling-stroke" d="
  M 183.82 14.31
  C 166.89 31.22 149.72 47.91 132.61 64.64
  A 1.24 1.17 -23.6 0 0 132.25 65.49
  L 132.25 152.25
  A 1.19 1.18 22.2 0 0 132.61 153.10
  Q 164.51 184.22 196.05 215.70
  Q 196.81 216.47 197.46 217.34
  A 1.01 0.94 70.7 0 0 198.24 217.75
  L 284.39 217.01
  A 3.20 3.14 -67.8 0 0 286.64 216.04
  L 335.65 165.85
  A 0.50 0.49 44.6 0 0 335.64 165.15
  L 294.97 124.59
  A 3.76 3.72 67.5 0 0 292.35 123.49
  L 243.06 123.19
  A 0.51 0.50 -0.6 0 1 242.55 122.70
  Q 241.96 101.12 242.00 79.53
  C 242.00 77.35 241.52 75.97 243.45 74.43
  A 0.87 0.87 48.4 0 0 243.52 73.14
  L 184.68 14.31
  A 0.61 0.61 90.0 0 0 183.82 14.31"
/>
<path stroke="#005174" vector-effect="non-scaling-stroke" d="
  M 350.71 47.63
  L 346.67 57.78
  A 1.42 1.05 -51.6 0 0 346.64 58.72
  L 349.08 64.75
  A 1.12 0.91 -0.4 0 0 349.79 65.32
  L 356.46 67.07
  A 0.83 0.81 28.0 0 0 357.28 66.83
  L 363.66 59.83
  A 1.52 1.46 55.3 0 0 363.92 58.25
  Q 362.37 54.57 360.48 51.80
  C 358.52 48.94 354.71 48.27 351.51 47.26
  A 0.66 0.64 19.5 0 0 350.71 47.63"
/>
<path stroke="#005174" vector-effect="non-scaling-stroke" d="
  M 310.36 74.95
  L 307.38 90.27
  A 0.91 0.83 -64.4 0 0 307.63 91.09
  L 318.89 101.41
  A 0.92 0.80 55.8 0 0 319.73 101.63
  L 332.58 97.73
  A 0.81 0.80 -4.6 0 0 333.15 97.07
  L 335.63 79.49
  A 1.42 1.32 18.3 0 0 334.87 78.10
  L 322.20 71.49
  A 1.40 1.26 -35.2 0 0 321.26 71.38
  L 311.58 73.66
  A 1.67 1.62 89.4 0 0 310.36 74.95"
/>
<path stroke="#022e3d" vector-effect="non-scaling-stroke" d="
  M 390.75 162.46
  Q 393.96 162.54 397.00 161.54"
/>
<path stroke="#005174" vector-effect="non-scaling-stroke" d="
  M 397.00 161.54
  Q 397.44 161.60 397.78 161.46
  A 1.13 0.67 -88.3 0 0 398.27 160.69
  L 401.75 143.40
  A 1.10 1.07 -0.2 0 1 402.62 142.55
  L 414.69 140.28
  A 0.81 0.78 1.0 0 0 415.31 139.70
  Q 416.56 134.76 417.55 129.76
  C 418.15 126.70 417.03 124.67 416.41 122.09
  Q 413.88 111.50 410.92 101.02
  Q 410.44 99.33 410.44 98.02
  A 0.69 0.69 82.8 0 0 409.58 97.35
  L 384.48 103.96
  A 0.98 0.97 75.7 0 0 383.79 105.15
  Q 385.31 111.22 386.72 116.69
  C 387.70 120.51 385.41 125.96 384.33 129.70
  A 1.13 1.01 88.7 0 1 383.73 130.40
  L 364.02 138.72
  A 0.83 0.81 -18.9 0 0 363.53 139.68
  Q 365.58 147.34 367.32 154.41
  Q 367.85 156.58 369.28 157.93
  Q 372.26 160.75 376.77 163.54
  A 3.32 3.15 56.0 0 0 378.90 164.01
  L 390.75 162.46"
/>
<path stroke="#027fb1" vector-effect="non-scaling-stroke" d="
  M 397.00 161.54
  Q 393.74 161.17 390.75 162.46"
/>
<path stroke="#806009" vector-effect="non-scaling-stroke" d="
  M 205.07 76.43
  A 0.89 0.82 -71.1 0 0 204.35 76.82
  L 198.02 86.22
  A 0.92 0.80 -45.1 0 0 197.96 87.14
  L 205.30 99.76
  A 0.90 0.87 -14.4 0 0 206.07 100.20
  L 216.02 100.25
  A 1.65 1.62 -72.6 0 0 217.37 99.53
  L 223.47 90.39
  A 0.84 0.78 -45.0 0 0 223.50 89.51
  L 215.48 76.97
  A 0.99 0.89 -14.0 0 0 214.69 76.55
  L 205.07 76.43"
/>
<path stroke="#806009" vector-effect="non-scaling-stroke" d="
  M 176.02 108.07
  Q 165.58 105.06 161.34 115.47
  A 0.71 0.71 27.7 0 0 161.61 116.33
  C 165.45 118.83 168.07 122.22 172.85 122.52
  A 1.86 1.74 24.7 0 0 174.17 122.08
  L 180.67 116.21
  A 0.68 0.66 -35.4 0 0 180.82 115.39
  L 177.35 109.07
  A 2.35 1.90 -2.0 0 0 176.02 108.07"
/>
<path stroke="#806009" vector-effect="non-scaling-stroke" d="
  M 198.56 175.11
  C 207.19 188.60 224.27 189.11 238.81 185.81
  C 245.43 184.31 247.98 180.19 251.77 175.61
  C 258.01 168.07 261.15 159.08 261.86 149.36
  C 262.20 144.67 261.52 139.01 261.22 133.94
  Q 261.13 132.28 260.07 133.56
  Q 258.06 135.97 257.23 138.99
  Q 253.81 151.41 249.11 163.38
  C 247.41 167.72 242.35 170.90 238.60 173.33
  C 229.70 179.13 207.66 182.14 198.79 174.90
  Q 198.02 174.27 198.56 175.11"
/>
</g>
<path fill="#000000" d="
  M 342.93 171.55
  A 0.78 0.78 -44.7 0 0 341.82 171.55
  L 291.69 222.95
  Q 290.19 224.49 288.03 224.50
  L 194.56 225.00
  A 2.56 2.53 -22.4 0 1 192.77 224.27
  L 125.71 157.84
  A 2.42 2.38 -68.1 0 1 125.00 156.13
  L 125.00 61.40
  A 2.18 2.14 68.1 0 1 125.64 59.86
  L 183.67 2.69
  A 1.20 1.20 45.5 0 1 185.36 2.71
  Q 217.58 35.80 249.42 67.05
  A 1.18 1.17 -44.8 0 0 251.07 67.05
  L 300.48 18.65
  A 2.32 2.30 22.7 0 1 302.09 18.00
  L 384.76 18.00
  A 3.57 3.57 -22.9 0 1 387.25 19.01
  L 445.17 75.18
  A 2.76 2.72 22.4 0 1 446.00 77.14
  L 446.00 159.93
  A 2.25 2.23 68.3 0 1 445.31 161.55
  Q 417.83 187.70 389.93 214.18
  Q 388.71 215.34 387.85 216.47
  A 0.62 0.62 -48.6 0 1 386.90 216.53
  L 342.93 171.55
  Z
  M 183.82 14.31
  C 166.89 31.22 149.72 47.91 132.61 64.64
  A 1.24 1.17 -23.6 0 0 132.25 65.49
  L 132.25 152.25
  A 1.19 1.18 22.2 0 0 132.61 153.10
  Q 164.51 184.22 196.05 215.70
  Q 196.81 216.47 197.46 217.34
  A 1.01 0.94 70.7 0 0 198.24 217.75
  L 284.39 217.01
  A 3.20 3.14 -67.8 0 0 286.64 216.04
  L 335.65 165.85
  A 0.50 0.49 44.6 0 0 335.64 165.15
  L 294.97 124.59
  A 3.76 3.72 67.5 0 0 292.35 123.49
  L 243.06 123.19
  A 0.51 0.50 -0.6 0 1 242.55 122.70
  Q 241.96 101.12 242.00 79.53
  C 242.00 77.35 241.52 75.97 243.45 74.43
  A 0.87 0.87 48.4 0 0 243.52 73.14
  L 184.68 14.31
  A 0.61 0.61 90.0 0 0 183.82 14.31
  Z
  M 350.71 47.63
  L 346.67 57.78
  A 1.42 1.05 -51.6 0 0 346.64 58.72
  L 349.08 64.75
  A 1.12 0.91 -0.4 0 0 349.79 65.32
  L 356.46 67.07
  A 0.83 0.81 28.0 0 0 357.28 66.83
  L 363.66 59.83
  A 1.52 1.46 55.3 0 0 363.92 58.25
  Q 362.37 54.57 360.48 51.80
  C 358.52 48.94 354.71 48.27 351.51 47.26
  A 0.66 0.64 19.5 0 0 350.71 47.63
  Z
  M 310.36 74.95
  L 307.38 90.27
  A 0.91 0.83 -64.4 0 0 307.63 91.09
  L 318.89 101.41
  A 0.92 0.80 55.8 0 0 319.73 101.63
  L 332.58 97.73
  A 0.81 0.80 -4.6 0 0 333.15 97.07
  L 335.63 79.49
  A 1.42 1.32 18.3 0 0 334.87 78.10
  L 322.20 71.49
  A 1.40 1.26 -35.2 0 0 321.26 71.38
  L 311.58 73.66
  A 1.67 1.62 89.4 0 0 310.36 74.95
  Z
  M 390.75 162.46
  Q 393.96 162.54 397.00 161.54
  Q 397.44 161.60 397.78 161.46
  A 1.13 0.67 -88.3 0 0 398.27 160.69
  L 401.75 143.40
  A 1.10 1.07 -0.2 0 1 402.62 142.55
  L 414.69 140.28
  A 0.81 0.78 1.0 0 0 415.31 139.70
  Q 416.56 134.76 417.55 129.76
  C 418.15 126.70 417.03 124.67 416.41 122.09
  Q 413.88 111.50 410.92 101.02
  Q 410.44 99.33 410.44 98.02
  A 0.69 0.69 82.8 0 0 409.58 97.35
  L 384.48 103.96
  A 0.98 0.97 75.7 0 0 383.79 105.15
  Q 385.31 111.22 386.72 116.69
  C 387.70 120.51 385.41 125.96 384.33 129.70
  A 1.13 1.01 88.7 0 1 383.73 130.40
  L 364.02 138.72
  A 0.83 0.81 -18.9 0 0 363.53 139.68
  Q 365.58 147.34 367.32 154.41
  Q 367.85 156.58 369.28 157.93
  Q 372.26 160.75 376.77 163.54
  A 3.32 3.15 56.0 0 0 378.90 164.01
  L 390.75 162.46
  Z"
/>
<path fill="#ffc011" d="
  M 132.61 64.64
  C 149.72 47.91 166.89 31.22 183.82 14.31
  A 0.61 0.61 0.0 0 1 184.68 14.31
  L 243.52 73.14
  A 0.87 0.87 48.4 0 1 243.45 74.43
  C 241.52 75.97 242.00 77.35 242.00 79.53
  Q 241.96 101.12 242.55 122.70
  A 0.51 0.50 -0.6 0 0 243.06 123.19
  L 292.35 123.49
  A 3.76 3.72 67.5 0 1 294.97 124.59
  L 335.64 165.15
  A 0.50 0.49 44.6 0 1 335.65 165.85
  L 286.64 216.04
  A 3.20 3.14 -67.8 0 1 284.39 217.01
  L 198.24 217.75
  A 1.01 0.94 70.7 0 1 197.46 217.34
  Q 196.81 216.47 196.05 215.70
  Q 164.51 184.22 132.61 153.10
  A 1.19 1.18 22.2 0 1 132.25 152.25
  L 132.25 65.49
  A 1.24 1.17 -23.6 0 1 132.61 64.64
  Z
  M 205.07 76.43
  A 0.89 0.82 -71.1 0 0 204.35 76.82
  L 198.02 86.22
  A 0.92 0.80 -45.1 0 0 197.96 87.14
  L 205.30 99.76
  A 0.90 0.87 -14.4 0 0 206.07 100.20
  L 216.02 100.25
  A 1.65 1.62 -72.6 0 0 217.37 99.53
  L 223.47 90.39
  A 0.84 0.78 -45.0 0 0 223.50 89.51
  L 215.48 76.97
  A 0.99 0.89 -14.0 0 0 214.69 76.55
  L 205.07 76.43
  Z
  M 176.02 108.07
  Q 165.58 105.06 161.34 115.47
  A 0.71 0.71 27.7 0 0 161.61 116.33
  C 165.45 118.83 168.07 122.22 172.85 122.52
  A 1.86 1.74 24.7 0 0 174.17 122.08
  L 180.67 116.21
  A 0.68 0.66 -35.4 0 0 180.82 115.39
  L 177.35 109.07
  A 2.35 1.90 -2.0 0 0 176.02 108.07
  Z
  M 198.56 175.11
  C 207.19 188.60 224.27 189.11 238.81 185.81
  C 245.43 184.31 247.98 180.19 251.77 175.61
  C 258.01 168.07 261.15 159.08 261.86 149.36
  C 262.20 144.67 261.52 139.01 261.22 133.94
  Q 261.13 132.28 260.07 133.56
  Q 258.06 135.97 257.23 138.99
  Q 253.81 151.41 249.11 163.38
  C 247.41 167.72 242.35 170.90 238.60 173.33
  C 229.70 179.13 207.66 182.14 198.79 174.90
  Q 198.02 174.27 198.56 175.11
  Z"
/>
<path fill="#00a2e7" d="
  M 350.71 47.63
  A 0.66 0.64 19.5 0 1 351.51 47.26
  C 354.71 48.27 358.52 48.94 360.48 51.80
  Q 362.37 54.57 363.92 58.25
  A 1.52 1.46 55.3 0 1 363.66 59.83
  L 357.28 66.83
  A 0.83 0.81 28.0 0 1 356.46 67.07
  L 349.79 65.32
  A 1.12 0.91 -0.4 0 1 349.08 64.75
  L 346.64 58.72
  A 1.42 1.05 -51.6 0 1 346.67 57.78
  L 350.71 47.63
  Z"
/>
<path fill="#00a2e7" d="
  M 310.36 74.95
  A 1.67 1.62 89.4 0 1 311.58 73.66
  L 321.26 71.38
  A 1.40 1.26 -35.2 0 1 322.20 71.49
  L 334.87 78.10
  A 1.42 1.32 18.3 0 1 335.63 79.49
  L 333.15 97.07
  A 0.81 0.80 -4.6 0 1 332.58 97.73
  L 319.73 101.63
  A 0.92 0.80 55.8 0 1 318.89 101.41
  L 307.63 91.09
  A 0.91 0.83 -64.4 0 1 307.38 90.27
  L 310.36 74.95
  Z"
/>
<path fill="#000000" d="
  M 205.07 76.43
  L 214.69 76.55
  A 0.99 0.89 -14.0 0 1 215.48 76.97
  L 223.50 89.51
  A 0.84 0.78 -45.0 0 1 223.47 90.39
  L 217.37 99.53
  A 1.65 1.62 -72.6 0 1 216.02 100.25
  L 206.07 100.20
  A 0.90 0.87 -14.4 0 1 205.30 99.76
  L 197.96 87.14
  A 0.92 0.80 -45.1 0 1 198.02 86.22
  L 204.35 76.82
  A 0.89 0.82 -71.1 0 1 205.07 76.43
  Z"
/>
<path fill="#00a2e7" d="
  M 397.00 161.54
  Q 393.74 161.17 390.75 162.46
  L 378.90 164.01
  A 3.32 3.15 56.0 0 1 376.77 163.54
  Q 372.26 160.75 369.28 157.93
  Q 367.85 156.58 367.32 154.41
  Q 365.58 147.34 363.53 139.68
  A 0.83 0.81 -18.9 0 1 364.02 138.72
  L 383.73 130.40
  A 1.13 1.01 88.7 0 0 384.33 129.70
  C 385.41 125.96 387.70 120.51 386.72 116.69
  Q 385.31 111.22 383.79 105.15
  A 0.98 0.97 75.7 0 1 384.48 103.96
  L 409.58 97.35
  A 0.69 0.69 82.8 0 1 410.44 98.02
  Q 410.44 99.33 410.92 101.02
  Q 413.88 111.50 416.41 122.09
  C 417.03 124.67 418.15 126.70 417.55 129.76
  Q 416.56 134.76 415.31 139.70
  A 0.81 0.78 1.0 0 1 414.69 140.28
  L 402.62 142.55
  A 1.10 1.07 -0.2 0 0 401.75 143.40
  L 398.27 160.69
  A 1.13 0.67 -88.3 0 1 397.78 161.46
  Q 397.44 161.60 397.00 161.54
  Z"
/>
<path fill="#000000" d="
  M 176.02 108.07
  A 2.35 1.90 -2.0 0 1 177.35 109.07
  L 180.82 115.39
  A 0.68 0.66 -35.4 0 1 180.67 116.21
  L 174.17 122.08
  A 1.86 1.74 24.7 0 1 172.85 122.52
  C 168.07 122.22 165.45 118.83 161.61 116.33
  A 0.71 0.71 27.7 0 1 161.34 115.47
  Q 165.58 105.06 176.02 108.07
  Z"
/>
<path fill="#000000" d="
  M 198.56 175.11
  Q 198.02 174.27 198.79 174.90
  C 207.66 182.14 229.70 179.13 238.60 173.33
  C 242.35 170.90 247.41 167.72 249.11 163.38
  Q 253.81 151.41 257.23 138.99
  Q 258.06 135.97 260.07 133.56
  Q 261.13 132.28 261.22 133.94
  C 261.52 139.01 262.20 144.67 261.86 149.36
  C 261.15 159.08 258.01 168.07 251.77 175.61
  C 247.98 180.19 245.43 184.31 238.81 185.81
  C 224.27 189.11 207.19 188.60 198.56 175.11
  Z"
/>
<path fill="#045b7a" d="
  M 397.00 161.54
  Q 393.96 162.54 390.75 162.46
  Q 393.74 161.17 397.00 161.54
  Z"
/>
<path fill="#000000" d="
  M 161.14 239.30
  C 179.98 230.20 204.37 240.08 207.07 261.99
  C 211.97 301.88 154.64 310.34 145.44 274.31
  C 141.81 260.10 148.07 245.60 161.14 239.30
  Z
  M 188.05 285.81
  C 193.01 275.55 195.57 234.78 173.42 239.68
  C 156.90 243.34 159.17 273.14 163.06 284.19
  C 167.19 295.90 182.51 297.25 188.05 285.81
  Z"
/>
<path fill="#000000" d="
  M 293.41 292.54
  C 276.42 299.31 251.20 300.30 240.53 281.84
  C 233.34 269.41 236.27 252.99 247.44 243.78
  C 258.18 234.92 272.69 233.87 285.50 239.15
  C 288.86 240.53 291.13 240.90 292.50 237.00
  Q 293.06 235.40 294.29 236.24
  A 1.04 0.89 -75.5 0 1 294.69 237.06
  Q 294.81 246.25 294.72 255.44
  C 294.69 258.02 293.05 257.06 292.52 255.58
  C 288.63 244.77 277.92 237.06 266.51 240.12
  C 250.87 244.32 251.01 267.84 254.19 280.31
  C 257.26 292.38 268.65 296.03 279.57 292.15
  A 1.34 1.34 -8.5 0 0 280.46 290.95
  Q 280.76 283.91 280.21 277.59
  C 279.89 273.97 277.78 272.49 274.34 272.69
  C 273.59 272.74 271.78 272.36 273.10 271.28
  A 1.53 1.09 17.8 0 1 273.99 271.00
  C 283.27 270.97 301.97 270.52 301.72 271.84
  A 0.94 0.81 -5.6 0 1 301.10 272.49
  C 298.06 273.47 295.01 273.02 294.90 277.50
  Q 294.75 283.50 294.75 290.56
  A 2.14 2.13 -11.0 0 1 293.41 292.54
  Z"
/>
<path fill="#000000" d="
  M 386.25 295.51
  C 369.80 290.92 361.76 272.00 367.00 256.50
  C 378.05 223.78 431.23 232.03 428.25 268.50
  C 426.43 290.80 406.58 301.20 386.25 295.51
  Z
  M 386.17 287.64
  C 390.85 294.38 399.53 296.14 405.65 290.31
  C 412.56 283.74 412.79 271.48 412.39 262.83
  C 411.97 253.91 410.05 240.73 398.75 239.50
  C 377.50 237.19 378.58 276.71 386.17 287.64
  Z"
/>
<path fill="#ffffff" d="
  M 510.08 284.85
  C 511.27 283.59 513.24 279.68 512.69 285.98
  A 3.69 3.66 70.2 0 1 511.63 288.25
  Q 502.50 297.35 489.00 297.02
  C 471.82 296.60 458.62 286.40 457.50 269.00
  C 456.90 259.76 461.19 250.77 468.07 244.46
  Q 482.19 231.52 502.19 238.31
  C 505.42 239.41 510.72 242.50 511.74 236.81
  A 0.92 0.74 89.2 0 1 512.27 236.13
  C 514.14 235.48 513.55 237.26 513.58 238.09
  Q 513.88 246.45 513.66 254.82
  C 513.57 258.23 511.79 256.47 511.38 254.96
  C 507.78 241.57 491.59 234.51 480.70 244.82
  C 468.82 256.06 469.78 292.75 492.11 292.75
  Q 502.65 292.75 510.08 284.85
  Z"
/>
<path fill="#000000" d="
  M 68.41 271.46
  Q 68.12 259.60 68.25 246.75
  Q 68.33 238.95 61.07 238.75
  C 60.32 238.73 59.07 238.34 59.93 237.40
  A 1.29 0.97 15.7 0 1 60.81 237.06
  L 78.43 237.05
  A 1.17 1.01 -17.3 0 1 79.28 237.42
  Q 80.36 238.72 78.19 238.94
  C 73.41 239.41 72.03 241.24 71.96 246.06
  Q 71.57 270.41 71.75 294.77
  Q 71.78 299.09 69.04 295.74
  L 31.13 249.47
  Q 30.18 248.30 30.18 249.81
  Q 30.30 268.16 30.33 286.25
  Q 30.34 294.02 38.44 294.31
  Q 40.18 294.37 39.31 295.61
  A 1.02 0.89 15.2 0 1 38.51 296.00
  L 18.82 295.94
  A 0.66 0.56 -3.5 0 1 18.18 295.46
  Q 18.00 294.21 20.00 294.25
  C 25.39 294.36 26.72 290.36 26.81 285.55
  Q 27.16 267.04 27.01 248.53
  C 26.98 245.32 27.41 244.40 24.94 241.81
  Q 22.34 239.10 19.40 238.74
  C 18.08 238.58 17.02 237.26 19.25 237.00
  Q 23.11 236.55 38.99 237.23
  A 1.14 1.08 -17.5 0 1 39.81 237.63
  L 67.38 271.83
  Q 68.46 273.17 68.41 271.46
  Z"
/>
<path fill="#000000" d="
  M 108.73 292.44
  C 120.54 294.68 130.86 290.05 134.66 278.04
  A 1.28 1.04 -89.6 0 1 135.25 277.33
  C 137.25 276.38 136.26 278.89 136.17 279.64
  Q 135.19 287.36 133.92 295.54
  A 0.56 0.55 -85.0 0 1 133.38 296.00
  L 83.56 295.94
  A 0.87 0.78 -12.2 0 1 82.81 295.51
  Q 82.09 294.12 84.00 294.25
  Q 91.08 294.75 91.06 288.00
  Q 91.00 268.65 91.00 249.30
  C 91.00 243.37 91.83 238.32 84.33 238.71
  C 82.09 238.82 81.96 237.00 84.04 237.00
  Q 107.99 236.96 131.63 237.06
  A 0.58 0.58 89.0 0 1 132.21 237.62
  Q 132.57 245.62 132.45 252.82
  C 132.41 255.34 130.49 255.07 130.17 252.86
  C 128.30 239.88 116.10 240.03 106.05 240.42
  A 0.58 0.57 89.0 0 0 105.50 241.00
  L 105.44 263.32
  A 0.55 0.55 -87.1 0 0 105.93 263.87
  C 114.01 264.77 116.89 258.02 117.74 251.15
  C 117.84 250.34 118.28 249.46 119.19 250.10
  A 1.13 0.83 -78.0 0 1 119.57 250.94
  Q 119.81 265.26 119.75 279.58
  C 119.75 280.58 119.26 281.65 118.12 280.83
  A 1.31 0.92 -82.0 0 1 117.70 280.01
  C 116.84 272.83 114.48 267.81 106.07 267.37
  A 0.61 0.61 0.9 0 0 105.43 267.99
  L 105.50 288.52
  Q 105.51 291.82 108.73 292.44
  Z"
/>
<path fill="#000000" d="
  M 326.56 267.82
  C 326.47 274.20 326.68 280.64 326.38 287.01
  C 326.07 293.46 331.31 292.94 336.24 292.81
  Q 351.06 292.41 355.78 277.93
  C 355.99 277.30 356.51 276.79 357.13 277.17
  A 0.89 0.65 -73.7 0 1 357.43 278.00
  L 354.93 295.49
  A 0.61 0.60 4.4 0 1 354.33 296.00
  L 304.55 295.94
  A 0.85 0.78 -12.5 0 1 303.81 295.51
  Q 303.10 294.13 305.00 294.25
  Q 312.29 294.70 312.22 287.75
  Q 312.02 268.71 312.00 249.67
  C 312.00 243.47 312.94 238.19 305.06 238.70
  C 304.33 238.75 302.77 238.29 303.90 237.35
  A 1.58 1.20 19.5 0 1 304.81 237.06
  L 352.81 237.18
  A 0.53 0.52 88.9 0 1 353.33 237.69
  C 353.56 243.38 354.39 256.72 351.85 254.36
  A 1.57 1.17 -79.4 0 1 351.43 253.50
  C 349.35 239.78 337.79 240.19 327.01 240.52
  A 0.53 0.53 -1.1 0 0 326.50 241.05
  L 326.50 263.33
  A 0.69 0.68 89.2 0 0 327.20 264.02
  C 335.73 263.77 337.75 258.23 338.75 251.07
  A 1.20 0.99 80.7 0 1 339.22 250.26
  Q 340.65 249.33 340.67 251.44
  Q 340.79 265.51 340.75 279.59
  C 340.75 280.56 340.39 281.49 339.24 280.95
  A 1.00 0.79 -83.2 0 1 338.77 280.18
  C 338.10 273.40 334.76 266.90 327.05 267.28
  A 0.54 0.52 88.3 0 0 326.56 267.82
  Z"
/>
<path fill="#ffffff" d="
  M 549.50 237.00
  C 563.24 237.00 575.73 244.55 578.92 258.46
  C 582.53 274.20 575.68 290.38 559.00 294.50
  C 548.79 297.02 533.35 296.05 520.89 295.94
  C 520.46 295.94 519.87 295.24 519.87 295.24
  A 1.30 1.27 -77.6 0 1 520.84 294.60
  C 525.60 294.03 528.18 293.93 528.31 288.38
  Q 528.81 266.64 528.31 244.90
  C 528.21 240.72 526.43 238.38 522.13 238.69
  C 521.37 238.74 519.07 238.78 520.40 237.34
  A 1.25 0.98 16.6 0 1 521.26 237.00
  Q 535.38 237.00 549.50 237.00
  Z
  M 545.04 292.22
  Q 551.44 293.84 556.14 290.21
  C 565.81 282.76 564.89 263.42 562.07 253.34
  Q 558.29 239.84 543.38 240.53
  A 0.66 0.66 -1.4 0 0 542.75 241.19
  L 542.75 289.27
  Q 542.75 291.63 545.04 292.22
  Z"
/>
<ellipse fill="#000000" cx="0.00" cy="0.00" transform="translate(222.18,266.51) rotate(88.4)" rx="7.46" ry="7.24"/>
</svg>
