<?xml version="1.0" encoding="UTF-8" standalone="no"?>
<!DOCTYPE svg PUBLIC "-//W3C//DTD SVG 1.1//EN" "http://www.w3.org/Graphics/SVG/1.1/DTD/svg11.dtd">
<svg xmlns="http://www.w3.org/2000/svg" version="1.1" viewBox="0 0 600 300">
<path stroke="#000000" stroke-width="2.00" fill="none" stroke-linecap="butt" vector-effect="non-scaling-stroke" d="
  M 493.71 113.00
  L 493.29 113.50"
/>
<path fill="#000000" d="
  M 599.96 98.58
  L 600.00 105.81
  Q 595.34 116.38 584.18 119.07
  Q 583.69 119.19 583.32 119.53
  Q 574.37 127.73 562.96 131.83
  A 1.91 1.81 7.8 0 0 562.18 132.39
  Q 554.19 142.28 557.75 154.00
  C 559.06 158.33 558.44 161.39 556.07 165.13
  C 551.91 171.68 541.20 170.12 535.24 167.61
  Q 531.05 165.85 525.02 164.96
  Q 522.34 164.56 522.27 167.26
  Q 522.02 176.54 527.30 186.38
  A 1.46 1.45 -21.4 0 0 528.95 187.10
  C 533.36 185.95 535.08 186.80 538.68 186.92
  C 555.68 187.46 546.30 212.67 532.19 208.63
  C 524.90 206.54 524.03 200.24 523.82 193.32
  A 1.23 1.03 -27.2 0 1 524.18 192.47
  C 526.57 190.03 525.11 188.74 523.93 186.47
  Q 518.82 176.57 518.52 165.89
  A 1.14 1.14 86.2 0 0 517.27 164.79
  Q 508.38 165.62 501.33 164.70
  C 499.34 164.44 497.22 162.89 494.81 163.23
  A 0.85 0.81 -83.8 0 0 494.15 163.79
  Q 490.58 174.10 485.62 183.81
  C 484.64 185.72 485.02 186.81 486.19 188.37
  A 1.20 1.08 33.3 0 1 486.42 189.25
  C 485.26 196.24 483.02 205.80 475.45 207.02
  C 466.72 208.43 459.77 202.01 461.00 192.75
  C 461.78 186.88 465.91 186.95 470.30 185.38
  C 472.26 184.68 477.97 181.76 479.55 183.09
  Q 481.15 184.42 482.25 182.65
  Q 487.94 173.56 490.37 163.77
  Q 490.99 161.28 488.60 161.30
  L 480.91 161.36
  Q 480.44 161.37 479.71 161.60
  C 473.01 163.77 463.89 162.99 459.73 156.49
  C 455.01 149.12 460.96 139.63 462.95 132.54
  C 464.53 126.94 464.36 120.93 464.43 115.03
  A 2.32 2.30 11.0 0 0 462.95 112.85
  Q 453.05 109.07 444.83 103.66
  C 443.47 102.76 442.65 102.84 441.22 103.32
  A 1.98 1.47 -40.8 0 1 440.26 103.39
  C 433.54 101.92 424.05 97.79 421.15 90.79
  C 417.75 82.55 424.03 74.85 432.89 77.96
  C 441.18 80.86 443.60 90.20 445.50 98.00
  Q 446.28 101.19 447.31 101.94
  Q 454.61 107.24 463.06 110.02
  Q 465.01 110.66 465.00 108.60
  C 464.98 105.07 467.50 100.59 468.59 97.14
  C 470.44 91.31 468.56 83.56 469.75 79.25
  Q 471.97 71.19 479.35 66.42
  A 2.63 2.60 -61.2 0 1 480.77 66.00
  L 488.19 66.00
  Q 488.93 66.00 489.57 66.37
  C 494.02 68.93 498.63 72.02 503.23 74.32
  C 506.79 76.10 512.77 76.31 516.84 76.59
  Q 524.57 77.11 530.06 80.69
  C 535.23 84.05 538.58 86.17 544.90 86.26
  C 552.11 86.35 559.68 86.49 565.48 90.73
  C 568.80 93.15 569.68 97.16 570.19 101.01
  A 1.39 1.32 -33.3 0 1 569.98 101.91
  C 569.13 103.25 568.77 103.81 568.49 105.57
  C 568.17 107.64 565.30 110.98 564.09 112.85
  C 561.63 116.67 561.18 119.68 561.91 124.00
  Q 561.99 124.47 561.82 124.96
  Q 561.01 127.31 562.88 128.46
  A 1.20 1.00 -34.8 0 0 563.79 128.54
  Q 573.62 125.45 580.33 118.32
  A 2.24 2.21 -26.8 0 0 580.92 116.56
  Q 580.29 110.79 579.10 106.04
  Q 578.02 101.73 578.32 99.85
  C 579.52 92.22 589.20 86.98 595.73 92.08
  Q 598.77 94.45 599.96 98.58
  Z
  M 476.35 94.22
  C 471.00 104.34 468.98 115.91 469.20 127.27
  C 469.39 136.87 468.67 142.86 476.20 147.76
  C 477.17 148.38 478.63 148.41 479.48 149.58
  A 1.58 1.11 72.2 0 0 480.22 150.14
  Q 485.99 151.86 491.75 153.58
  C 494.80 154.49 497.81 154.50 500.99 155.03
  Q 513.37 157.09 525.77 155.65
  C 533.05 154.80 539.48 148.62 542.81 142.56
  C 548.68 131.89 554.40 107.77 542.94 98.56
  C 535.07 92.24 525.87 89.25 514.16 86.08
  C 511.56 85.38 508.44 85.23 505.31 84.69
  C 499.19 83.64 488.43 83.69 482.34 87.32
  Q 478.92 89.34 476.35 94.22
  Z"
/>
<ellipse fill="#000000" cx="0.00" cy="0.00" transform="translate(506.75,99.40) rotate(112.3)" rx="7.89" ry="3.74"/>
<path fill="#000000" d="
  M 0.00 107.44
  L 0.00 106.69
  C 6.33 103.47 12.53 99.92 18.90 96.81
  Q 20.79 95.88 22.13 94.61
  A 1.06 1.05 55.3 0 1 23.81 94.92
  L 44.22 138.36
  A 1.26 0.96 80.5 0 0 44.90 139.00
  C 47.10 139.66 47.61 135.73 48.26 134.38
  Q 56.43 117.38 64.69 100.44
  Q 66.88 95.94 67.78 94.48
  A 0.56 0.53 29.8 0 1 68.50 94.31
  L 89.80 105.43
  A 1.44 1.41 35.5 0 1 90.20 107.68
  Q 88.17 109.77 86.64 112.20
  C 73.21 133.52 60.07 154.98 46.40 176.16
  C 45.74 177.17 44.51 181.62 42.54 178.42
  C 28.07 154.94 14.40 130.97 0.00 107.44
  Z"
/>
<ellipse fill="#000000" cx="0.00" cy="0.00" transform="translate(518.11,101.96) rotate(104.4)" rx="7.96" ry="3.74"/>
<path fill="#000000" d="
  M 493.71 113.00
  L 493.29 113.50
  Q 492.77 111.87 491.73 110.53
  C 487.29 104.81 498.88 105.62 494.19 110.44
  Q 493.31 111.34 493.71 113.00
  Z"
/>
<path fill="#000000" d="
  M 371.94 109.17
  A 0.73 0.72 -89.6 0 1 372.67 108.44
  Q 381.07 108.48 389.44 108.04
  C 393.91 107.81 402.21 107.95 408.68 106.93
  A 1.56 1.52 84.8 0 1 410.44 108.43
  L 410.77 119.86
  Q 410.82 121.83 408.93 121.82
  L 393.27 121.75
  Q 390.16 121.74 391.06 124.67
  Q 392.08 128.02 391.31 131.35
  C 390.86 133.34 391.45 135.05 393.75 134.75
  Q 398.30 134.15 401.63 134.39
  C 403.37 134.52 404.57 133.75 406.05 133.75
  Q 408.25 133.75 408.03 135.94
  Q 407.54 140.85 408.13 146.05
  Q 408.35 147.94 406.39 147.89
  L 392.98 147.50
  Q 390.04 147.42 391.00 150.26
  C 392.14 153.64 389.23 159.26 394.00 159.28
  C 399.18 159.30 404.64 159.45 409.76 158.68
  Q 412.89 158.20 412.50 162.27
  Q 412.01 167.40 412.75 172.52
  A 1.24 1.24 87.7 0 1 411.44 173.94
  Q 392.14 172.63 372.80 173.19
  A 0.96 0.95 89.4 0 1 371.82 172.22
  L 371.94 109.17
  Z"
/>
<path fill="#000000" d="
  M 216.21 141.21
  Q 217.77 143.75 219.14 141.10
  Q 222.66 134.30 226.02 129.08
  Q 230.56 122.04 234.94 114.91
  C 235.83 113.45 237.51 111.63 238.09 109.45
  C 238.63 107.40 239.49 107.54 240.31 109.44
  Q 253.02 138.53 266.44 167.33
  A 0.58 0.57 -21.5 0 1 266.09 168.13
  Q 257.67 170.79 249.81 175.31
  A 0.99 0.98 -25.6 0 1 248.39 174.82
  L 237.23 145.16
  A 1.20 0.93 84.3 0 0 236.60 144.49
  Q 234.40 143.70 233.00 146.50
  Q 231.32 149.85 220.75 165.30
  C 219.56 167.05 218.17 168.42 217.40 170.79
  Q 216.47 173.68 214.86 171.11
  C 209.53 162.65 203.84 154.25 198.93 145.50
  A 1.37 1.05 78.3 0 0 198.22 144.89
  Q 196.47 144.37 195.94 146.19
  Q 189.87 166.97 187.34 174.72
  A 0.58 0.57 13.5 0 1 186.70 175.11
  C 181.53 174.23 176.24 171.15 170.84 169.64
  A 0.93 0.93 18.1 0 1 170.22 168.42
  Q 178.03 147.82 186.07 128.62
  C 186.81 126.84 187.66 124.15 188.81 121.56
  Q 191.80 114.82 194.45 107.92
  Q 195.26 105.80 196.29 107.82
  C 200.43 115.94 205.94 123.79 210.30 131.30
  Q 213.34 136.52 216.21 141.21
  Z"
/>
<path fill="#000000" d="
  M 143.59 152.16
  Q 142.27 149.48 138.74 147.70
  C 131.19 143.90 120.74 138.08 122.81 128.16
  C 124.73 118.98 133.53 114.64 141.27 111.20
  C 146.05 109.08 151.58 108.44 156.83 107.31
  Q 158.74 106.90 158.97 108.84
  Q 159.58 113.93 160.59 119.23
  Q 161.16 122.20 158.79 122.14
  C 155.81 122.06 152.94 122.45 150.31 122.70
  Q 147.49 122.96 145.41 124.88
  C 142.70 127.36 143.39 129.09 146.27 130.81
  Q 152.99 134.84 159.75 138.81
  A 1.52 1.20 89.5 0 1 160.34 139.54
  Q 161.07 141.50 163.13 142.21
  A 1.17 1.15 -1.6 0 1 163.82 142.85
  C 169.26 155.73 156.83 166.67 145.77 170.32
  Q 137.54 173.03 128.96 174.51
  Q 126.37 174.95 126.71 172.35
  C 126.92 170.69 126.37 163.52 125.80 162.36
  Q 124.03 158.79 127.99 159.25
  Q 136.24 160.20 142.93 155.00
  Q 144.41 153.84 143.59 152.16
  Z"
/>
<path fill="#000000" d="
  M 278.32 114.94
  Q 278.33 112.77 277.49 110.74
  A 1.27 1.26 -11.4 0 1 278.65 109.00
  L 297.30 108.73
  A 1.35 1.34 0.4 0 1 298.67 110.11
  Q 297.82 140.75 298.67 171.40
  A 1.61 1.59 89.7 0 1 297.05 173.06
  L 278.50 172.77
  A 0.97 0.81 -11.3 0 1 277.71 172.34
  Q 277.26 171.52 277.72 170.67
  Q 278.00 170.15 278.00 169.75
  Q 278.18 142.34 278.32 114.94
  Z"
/>
<path fill="#000000" d="
  M 317.73 111.10
  Q 317.49 108.78 319.87 108.79
  L 337.70 108.81
  A 0.98 0.95 0.6 0 1 338.68 109.78
  Q 338.38 131.68 338.50 153.80
  C 338.51 155.88 338.10 158.20 341.00 157.93
  C 346.16 157.45 352.38 158.62 357.27 157.16
  A 0.78 0.69 -25.8 0 1 358.07 157.38
  C 358.81 158.31 359.28 159.36 359.16 160.62
  Q 358.58 166.35 359.11 171.41
  Q 359.37 173.92 356.85 173.77
  Q 342.46 172.92 328.35 172.99
  C 326.16 173.00 322.56 172.61 319.55 173.10
  A 1.18 0.94 -25.4 0 1 318.66 172.89
  Q 317.33 171.74 317.77 169.67
  Q 318.25 167.40 318.25 165.08
  Q 318.25 144.87 318.36 124.00
  Q 318.39 117.32 317.73 111.10
  Z"
/>
<path fill="#000000" d="
  M 493.71 113.00
  C 494.34 119.66 498.11 127.69 505.25 129.25
  Q 514.37 131.25 520.78 123.53
  C 522.60 121.34 525.20 119.25 524.82 115.99
  A 1.35 1.05 65.8 0 1 525.04 115.09
  Q 526.71 112.88 528.90 114.90
  A 0.78 0.78 31.5 0 1 529.10 115.73
  Q 528.25 118.16 525.79 119.14
  A 1.51 1.29 -0.2 0 0 525.07 119.76
  C 521.07 127.20 514.92 133.49 506.22 132.12
  C 497.64 130.76 492.21 121.59 493.29 113.50
  L 493.71 113.00
  Z"
/>
<circle fill="#000000" cx="88.79" cy="169.64" r="10.06"/>
<path fill="#000000" d="
  M 16.02 203.37
  A 1.70 1.69 22.9 0 1 14.40 204.02
  Q 12.65 203.75 12.62 205.25
  Q 12.51 210.62 12.50 215.99
  A 0.79 0.76 78.7 0 1 12.04 216.71
  Q 8.45 218.27 8.60 214.77
  C 8.71 212.21 8.66 209.76 9.05 207.26
  Q 9.65 203.42 5.99 203.92
  A 0.91 0.76 -19.0 0 1 5.18 203.61
  Q 4.18 202.23 5.55 201.00
  A 1.37 1.13 20.4 0 1 6.44 200.69
  L 15.19 200.80
  A 1.40 0.96 -14.6 0 1 16.07 201.12
  Q 17.02 202.04 16.02 203.37
  Z"
/>
<path fill="#000000" d="
  M 37.66 210.17
  C 40.32 210.09 39.42 202.48 42.55 200.79
  Q 43.96 200.03 45.37 201.16
  A 0.67 0.65 -58.0 0 1 45.54 201.95
  Q 42.45 208.45 39.71 215.11
  C 38.56 217.92 36.26 217.74 35.23 215.05
  Q 32.75 208.62 29.50 202.67
  Q 28.50 200.86 30.54 200.53
  C 34.21 199.95 35.06 206.10 35.79 208.79
  A 1.87 1.87 81.4 0 0 37.66 210.17
  Z"
/>
<path fill="#000000" d="
  M 81.00 213.54
  A 1.99 1.98 -30.4 0 0 83.36 214.15
  Q 86.22 212.92 86.19 215.63
  A 1.21 1.17 -0.0 0 1 84.99 216.79
  L 77.71 216.86
  A 0.74 0.73 -0.4 0 1 76.97 216.14
  L 76.78 202.50
  A 1.83 1.10 72.2 0 1 77.00 201.57
  Q 78.46 199.29 80.36 201.42
  A 1.42 1.25 -69.4 0 1 80.70 202.31
  C 80.75 204.13 80.27 212.58 81.00 213.54
  Z"
/>
<path fill="#000000" d="
  M 285.79 206.85
  L 290.59 208.52
  A 1.24 1.16 -1.8 0 1 291.28 209.13
  Q 294.13 215.08 286.89 217.45
  A 2.36 2.33 41.9 0 1 285.65 217.51
  L 281.29 216.54
  A 0.70 0.66 4.3 0 1 280.74 215.94
  Q 280.60 214.38 281.82 213.52
  A 0.70 0.62 45.4 0 1 282.63 213.57
  C 284.32 214.90 288.94 215.61 288.33 212.46
  C 287.77 209.58 284.39 210.46 282.59 209.05
  C 277.10 204.72 284.56 198.31 290.55 201.27
  A 0.96 0.92 10.3 0 1 291.08 202.00
  C 291.70 206.76 282.89 200.00 285.13 206.23
  A 1.10 0.97 1.9 0 0 285.79 206.85
  Z"
/>
<path fill="#000000" d="
  M 105.21 203.82
  A 3.55 3.53 45.1 0 0 107.51 203.83
  Q 109.75 203.08 109.75 205.15
  A 0.91 0.90 5.6 0 1 108.67 206.03
  Q 107.04 205.72 105.75 206.32
  A 1.10 1.06 84.5 0 0 105.17 207.05
  Q 104.52 209.96 108.70 209.41
  A 0.61 0.61 75.9 0 1 109.36 209.81
  Q 110.14 212.06 106.76 211.34
  A 1.47 1.46 -83.1 0 0 105.00 212.73
  C 104.86 217.09 111.08 213.38 109.57 216.37
  A 0.97 0.72 -72.2 0 1 108.82 216.91
  L 105.74 216.86
  Q 104.91 216.85 104.76 216.88
  Q 102.01 217.54 102.24 215.20
  C 102.59 211.76 102.15 208.29 102.29 204.81
  A 0.89 0.82 78.7 0 1 102.74 204.07
  Q 104.02 203.40 105.21 203.82
  Z"
/>
<path fill="#000000" d="
  M 128.95 203.68
  A 1.41 1.40 81.6 0 1 130.15 204.58
  Q 132.08 209.64 133.70 213.95
  C 134.10 215.03 136.79 217.60 132.93 216.91
  A 1.09 0.94 78.1 0 1 132.22 216.37
  Q 131.02 214.13 128.48 214.63
  Q 128.03 214.72 127.52 214.60
  C 124.56 213.92 125.47 217.70 122.24 217.00
  A 0.87 0.87 -68.2 0 1 121.68 215.69
  Q 124.47 211.17 125.82 206.02
  Q 126.48 203.48 128.95 203.68
  Z
  M 127.60 212.18
  C 131.53 213.68 129.24 206.10 126.92 210.36
  A 1.29 1.29 -65.5 0 0 127.60 212.18
  Z"
/>
<path fill="#000000" d="
  M 147.74 203.87
  C 150.68 203.42 158.24 203.90 156.35 208.87
  C 155.53 211.01 152.45 211.94 155.73 214.76
  Q 159.71 218.16 154.55 216.82
  A 1.27 1.22 80.2 0 1 153.80 216.27
  C 153.14 215.24 151.30 211.34 149.93 214.29
  Q 149.79 214.62 149.82 215.24
  C 149.98 217.73 146.98 217.58 147.00 215.50
  Q 147.05 210.66 146.91 204.85
  A 0.98 0.97 -5.1 0 1 147.74 203.87
  Z
  M 153.48 208.13
  A 1.79 1.79 0.0 0 0 151.69 206.34
  A 1.79 1.79 0.0 0 0 149.90 208.13
  A 1.79 1.79 0.0 0 0 151.69 209.92
  A 1.79 1.79 0.0 0 0 153.48 208.13
  Z"
/>
<path fill="#000000" d="
  M 172.52 210.81
  C 172.37 212.83 173.98 217.94 170.30 216.95
  A 0.76 0.75 -82.5 0 1 169.75 216.22
  Q 169.75 210.50 169.65 205.50
  C 169.60 203.20 171.72 203.27 172.91 204.53
  C 173.44 205.09 181.02 216.23 180.12 208.41
  Q 179.94 206.83 179.79 205.25
  A 1.63 1.23 65.0 0 1 179.99 204.31
  Q 180.96 202.76 182.35 204.18
  A 1.38 1.19 -70.7 0 1 182.70 205.07
  C 182.76 208.50 182.59 212.00 182.80 215.41
  Q 182.91 217.35 180.60 216.98
  A 2.57 2.52 75.0 0 1 179.04 216.06
  C 177.79 214.51 174.67 209.23 172.99 210.06
  A 0.95 0.82 81.2 0 0 172.52 210.81
  Z"
/>
<path fill="#000000" d="
  M 223.56 203.61
  A 1.99 1.99 -85.6 0 1 225.25 205.58
  L 225.25 216.03
  A 0.77 0.77 -9.6 0 1 224.73 216.76
  Q 222.32 217.56 221.18 215.87
  C 220.68 215.13 215.16 206.04 214.67 211.70
  Q 214.49 213.85 214.90 216.01
  A 0.78 0.69 70.2 0 1 214.59 216.79
  Q 213.40 217.50 212.36 216.61
  A 1.10 0.92 -70.7 0 1 212.04 215.75
  C 212.27 213.08 211.44 206.49 212.64 204.32
  A 1.29 1.28 -54.0 0 1 214.64 204.00
  Q 217.15 206.36 219.02 209.48
  C 222.78 215.78 222.61 207.13 222.15 205.47
  A 1.51 1.03 56.8 0 1 222.17 204.53
  Q 222.64 203.47 223.56 203.61
  Z"
/>
<path fill="#000000" d="
  M 247.20 214.48
  A 1.65 1.64 28.2 0 0 246.60 212.50
  Q 244.92 211.36 245.09 210.50
  A 0.76 0.56 3.9 0 1 245.81 210.04
  L 250.49 210.02
  A 1.23 1.21 -79.6 0 1 251.62 211.69
  C 247.04 223.72 232.93 214.75 239.06 206.56
  Q 243.48 200.65 249.60 205.43
  A 1.54 1.07 20.8 0 1 250.14 206.22
  Q 250.38 207.44 249.07 207.46
  A 1.59 0.99 53.4 0 1 248.18 207.11
  C 245.93 205.31 243.48 205.16 241.62 207.67
  C 237.41 213.37 245.86 217.78 247.20 214.48
  Z"
/>
<path fill="#000000" d="
  M 317.02 216.71
  C 313.17 219.01 314.55 212.35 314.47 210.81
  A 1.60 1.41 -69.5 0 0 314.13 209.92
  L 309.70 204.56
  Q 309.12 203.85 310.02 203.78
  C 315.01 203.36 313.11 207.42 316.06 207.15
  A 1.31 1.02 -69.3 0 0 316.86 206.66
  Q 318.14 204.99 319.92 203.92
  C 321.44 203.01 323.36 203.78 321.21 205.70
  Q 316.66 209.76 317.37 215.93
  A 0.84 0.75 72.5 0 1 317.02 216.71
  Z"
/>
<path fill="#000000" d="
  M 334.04 207.94
  C 334.12 204.35 339.28 201.70 341.69 204.63
  Q 343.40 206.70 340.43 206.01
  C 337.85 205.40 335.10 206.58 338.42 209.14
  Q 338.78 209.42 339.30 209.50
  C 347.11 210.61 341.75 220.46 334.43 216.50
  A 1.27 1.19 7.7 0 1 333.84 215.78
  C 332.93 212.72 337.64 215.62 339.34 215.01
  A 1.09 1.05 -1.6 0 0 339.99 214.35
  C 341.43 209.92 333.95 212.55 334.04 207.94
  Z"
/>
<rect fill="#000000" x="195.95" y="203.83" width="2.84" height="13.10" rx="0.75"/>
<path fill="#000000" d="
  M 357.86 209.71
  Q 358.14 208.12 357.36 206.71
  Q 357.03 206.13 355.73 206.39
  A 1.39 0.88 -24.8 0 1 354.81 206.27
  Q 353.98 205.71 354.30 204.71
  A 0.79 0.76 -81.7 0 1 355.00 204.17
  L 362.56 203.89
  A 0.86 0.81 75.8 0 1 363.32 204.37
  Q 363.87 205.47 362.86 206.19
  A 1.63 0.63 8.2 0 1 361.94 206.40
  Q 360.31 206.43 360.25 208.50
  Q 360.14 212.23 360.40 215.94
  A 0.78 0.74 74.3 0 1 360.01 216.68
  C 356.00 218.78 357.56 211.41 357.86 209.71
  Z"
/>
<path fill="#000000" d="
  M 378.41 212.31
  Q 377.42 215.57 381.11 215.10
  C 383.74 214.77 383.41 216.88 381.34 216.97
  Q 378.69 217.09 376.06 216.75
  A 0.58 0.56 2.9 0 1 375.55 216.20
  L 375.50 205.03
  A 1.19 1.18 2.7 0 1 376.80 203.86
  C 377.77 203.96 384.66 203.10 382.58 205.64
  A 1.16 0.95 15.2 0 1 381.75 206.01
  L 379.57 206.06
  A 0.94 0.84 12.8 0 0 378.80 206.49
  Q 377.01 209.72 381.68 209.48
  A 0.75 0.74 -3.9 0 1 382.47 210.16
  Q 382.62 212.04 379.93 211.43
  A 1.29 1.29 -75.0 0 0 378.41 212.31
  Z"
/>
<path fill="#000000" d="
  M 400.38 211.20
  Q 398.46 209.42 398.28 211.86
  L 398.00 215.76
  A 1.38 1.14 88.9 0 1 397.02 217.00
  C 393.67 217.49 395.43 215.18 395.66 213.86
  C 395.99 211.92 395.91 202.72 399.15 203.77
  C 401.60 204.57 400.61 207.08 401.68 208.78
  C 404.50 213.25 405.56 205.13 406.44 204.44
  C 409.05 202.36 409.64 204.63 409.88 206.66
  Q 410.43 211.14 411.43 216.02
  A 0.73 0.71 -17.3 0 1 410.99 216.84
  C 407.47 218.26 408.77 213.80 408.19 212.06
  Q 407.28 209.37 405.81 211.56
  Q 404.54 213.47 404.29 215.75
  A 1.72 1.05 79.9 0 1 403.94 216.65
  C 402.39 218.36 401.30 212.06 400.38 211.20
  Z"
/>
<path fill="#000000" d="
  M 516.30 232.24
  C 514.90 233.92 464.43 231.14 458.31 228.44
  Q 457.01 227.86 455.74 227.94
  A 1.62 0.93 -18.7 0 1 454.83 227.76
  Q 453.63 226.97 454.80 226.24
  A 1.66 1.01 20.5 0 1 455.74 226.06
  C 458.68 226.29 462.14 223.82 465.42 223.58
  Q 472.27 223.09 473.75 222.75
  C 477.33 221.93 481.72 222.18 484.33 222.04
  C 503.59 220.95 524.40 221.04 544.58 223.68
  Q 550.38 224.44 556.00 226.18
  C 556.96 226.47 557.15 227.50 556.11 227.77
  Q 539.22 232.17 521.75 231.25
  Q 519.90 231.15 517.05 231.71
  A 1.55 0.78 -61.8 0 0 516.30 232.24
  Z"
/>
</svg>
