<?xml version="1.0" encoding="UTF-8" standalone="no"?>
<!DOCTYPE svg PUBLIC "-//W3C//DTD SVG 1.1//EN" "http://www.w3.org/Graphics/SVG/1.1/DTD/svg11.dtd">
<svg xmlns="http://www.w3.org/2000/svg" version="1.1" viewBox="0 0 600 300">
<path fill="#ff0000" d="
  M 275.14 107.14
  C 300.84 77.37 348.38 77.98 372.78 109.49
  C 382.74 122.35 387.88 140.99 384.99 157.45
  C 379.61 188.01 356.73 208.88 325.92 210.67
  C 314.39 211.34 300.36 207.98 290.45 201.84
  C 273.08 191.07 262.57 174.02 260.51 153.63
  C 258.86 137.24 264.63 119.31 275.14 107.14
  Z
  M 367.96 148.00
  A 44.95 44.95 0.0 0 0 323.01 103.05
  A 44.95 44.95 0.0 0 0 278.06 148.00
  A 44.95 44.95 0.0 0 0 323.01 192.95
  A 44.95 44.95 0.0 0 0 367.96 148.00
  Z"
/>
<rect fill="#000000" x="-9.38" y="-58.89" transform="translate(577.54,150.63) rotate(0.2)" width="18.76" height="117.78" rx="0.36"/>
<path fill="#000000" d="
  M 100.08 166.45
  Q 101.19 167.37 101.19 165.92
  L 100.75 94.97
  A 1.41 1.39 89.8 0 1 102.14 93.55
  L 118.86 93.56
  A 0.65 0.64 -90.0 0 1 119.50 94.21
  L 119.50 206.91
  Q 119.50 207.52 119.03 207.14
  L 31.62 135.98
  Q 29.50 134.26 29.50 136.99
  L 29.50 208.07
  A 0.68 0.67 -90.0 0 1 28.83 208.75
  L 14.07 208.70
  A 0.52 0.51 0.6 0 1 13.56 208.19
  C 13.13 170.96 14.06 133.56 12.96 96.37
  Q 12.90 94.40 14.42 95.66
  L 100.08 166.45
  Z"
/>
<path fill="#000000" d="
  M 404.55 95.69
  C 425.23 119.68 445.96 143.65 466.50 167.94
  A 1.09 1.08 44.9 0 0 468.15 167.94
  L 530.63 94.31
  Q 531.50 93.28 531.50 94.62
  L 531.50 209.06
  A 0.52 0.51 0.0 0 1 530.98 209.57
  L 512.52 209.50
  A 0.77 0.76 0.0 0 1 511.75 208.74
  L 511.49 148.08
  Q 511.48 146.34 510.37 147.69
  L 467.32 199.62
  A 0.42 0.42 -90.0 0 1 466.68 199.62
  L 423.67 148.49
  Q 422.25 146.81 422.25 149.01
  L 422.19 208.94
  A 0.50 0.50 0.0 0 1 421.69 209.44
  L 404.18 209.49
  A 0.43 0.43 0.0 0 1 403.75 209.06
  L 403.75 95.99
  Q 403.75 94.77 404.55 95.69
  Z"
/>
<path fill="#000000" d="
  M 165.94 185.76
  L 153.18 209.10
  A 0.81 0.77 13.6 0 1 152.48 209.50
  L 133.03 209.58
  Q 132.12 209.58 132.58 208.79
  L 146.26 185.49
  Q 146.94 184.32 145.55 184.33
  L 134.34 184.46
  A 1.14 1.08 89.8 0 1 133.25 183.32
  L 133.25 168.43
  A 0.93 0.93 0.0 0 1 134.18 167.50
  L 154.53 167.50
  A 1.45 1.44 14.2 0 0 155.80 166.75
  L 195.08 95.40
  Q 195.48 94.68 195.87 95.40
  L 259.06 208.91
  A 0.45 0.44 -14.4 0 1 258.66 209.57
  L 237.66 209.57
  A 0.97 0.92 -13.1 0 1 236.81 209.07
  L 224.23 185.23
  A 1.38 1.37 75.8 0 0 223.02 184.50
  L 168.04 184.50
  A 2.43 2.38 -75.4 0 0 165.94 185.76
  Z
  M 214.27 167.07
  A 1.06 1.06 75.5 0 0 215.19 165.50
  L 195.93 130.04
  Q 195.16 128.62 194.38 130.04
  L 174.68 166.20
  A 0.71 0.71 14.2 0 0 175.31 167.25
  L 214.27 167.07
  Z"
/>
</svg>
