<?xml version="1.0" encoding="UTF-8" standalone="no"?>
<!DOCTYPE svg PUBLIC "-//W3C//DTD SVG 1.1//EN" "http://www.w3.org/Graphics/SVG/1.1/DTD/svg11.dtd">
<svg xmlns="http://www.w3.org/2000/svg" version="1.1" viewBox="0 0 600 185">
<path fill="#081fb8" d="
  M 22.15 54.14
  C 22.62 70.09 39.43 79.30 53.33 72.06
  A 0.42 0.41 76.8 0 1 53.93 72.44
  L 53.77 89.43
  A 1.18 1.15 87.0 0 1 52.76 90.59
  C 49.11 91.02 45.56 92.30 42.12 91.98
  C 18.78 89.85 1.25 70.00 5.72 46.55
  C 9.92 24.57 31.45 11.54 53.21 16.94
  A 0.64 0.63 -83.1 0 1 53.69 17.56
  L 53.81 34.68
  A 0.36 0.36 13.7 0 1 53.28 35.00
  C 38.82 27.20 21.66 37.84 22.15 54.14
  Z"
/>
<path fill="#081fb8" d="
  M 429.63 66.66
  Q 429.25 65.46 428.50 66.47
  C 423.69 72.98 411.38 71.74 404.50 70.74
  C 394.47 69.30 393.65 62.45 393.54 53.76
  C 393.42 44.30 394.60 37.32 405.42 35.90
  C 411.65 35.09 423.83 33.96 427.77 40.28
  C 427.99 40.64 428.23 40.95 428.67 40.70
  A 0.80 0.48 80.6 0 0 428.92 40.06
  L 428.77 23.01
  A 0.77 0.75 -0.4 0 1 429.54 22.25
  L 440.59 22.25
  A 0.91 0.91 -0.0 0 1 441.50 23.16
  L 441.50 69.98
  A 0.52 0.52 -90.0 0 1 440.98 70.50
  L 430.58 70.50
  A 1.19 1.19 7.2 0 1 429.43 69.02
  Q 429.85 67.37 429.63 66.66
  Z
  M 407.09 48.19
  Q 406.24 50.36 406.28 52.73
  C 406.34 57.46 406.57 61.09 412.50 61.50
  Q 419.41 61.98 424.74 60.94
  C 429.43 60.02 429.02 55.09 428.71 51.31
  C 428.39 47.39 427.30 46.12 423.50 45.50
  Q 416.72 44.39 409.98 45.75
  Q 407.87 46.18 407.09 48.19
  Z"
/>
<path fill="#081fb8" d="
  M 125.50 36.50
  C 131.93 37.65 134.66 43.02 134.47 49.40
  A 0.85 0.81 -88.6 0 1 133.65 50.22
  L 122.20 50.09
  A 0.66 0.62 82.9 0 1 121.59 49.58
  C 120.20 43.67 108.93 44.76 105.00 45.50
  C 100.00 46.44 100.27 53.88 101.00 57.25
  C 102.14 62.52 111.77 61.96 115.76 61.70
  Q 119.39 61.47 121.85 57.31
  A 1.16 1.15 -74.2 0 1 122.84 56.75
  L 133.27 56.75
  A 1.24 1.24 -89.3 0 1 134.51 58.02
  C 134.35 66.54 130.36 69.63 122.13 70.73
  Q 108.68 72.52 96.75 70.25
  C 86.43 68.29 87.43 53.69 88.38 45.99
  C 89.35 38.07 96.19 36.00 102.99 35.54
  Q 115.44 34.70 125.50 36.50
  Z"
/>
<path fill="#081fb8" d="
  M 168.98 35.70
  C 180.43 36.59 184.95 38.41 185.46 50.84
  C 185.85 60.62 185.46 70.06 173.06 70.81
  Q 160.76 71.56 151.52 70.94
  C 143.18 70.37 138.32 68.32 137.50 59.50
  C 136.64 50.29 135.72 38.54 146.75 36.50
  Q 156.35 34.72 168.98 35.70
  Z
  M 172.6895 51.2989
  A 5.89 5.89 0.0 0 0 166.8511 45.3577
  L 155.9915 45.2629
  A 5.89 5.89 0.0 0 0 150.0503 51.1013
  L 150.0105 55.6611
  A 5.89 5.89 0.0 0 0 155.8489 61.6023
  L 166.7085 61.6971
  A 5.89 5.89 0.0 0 0 172.6497 55.8587
  L 172.6895 51.2989
  Z"
/>
<path fill="#081fb8" d="
  M 201.05 40.97
  C 205.41 32.76 225.10 33.90 229.45 41.98
  A 0.42 0.42 48.0 0 0 230.17 42.02
  C 233.85 36.58 237.27 35.72 243.41 35.56
  C 250.54 35.37 257.77 36.46 260.81 43.09
  C 263.43 48.80 262.44 61.92 262.51 69.68
  A 0.81 0.81 89.7 0 1 261.70 70.50
  L 250.16 70.50
  A 0.49 0.49 -88.9 0 1 249.67 69.99
  Q 250.08 58.95 249.30 49.13
  Q 249.05 46.01 245.95 45.56
  C 239.87 44.69 232.28 43.92 231.75 52.50
  Q 231.22 61.22 231.67 69.68
  A 0.77 0.77 88.3 0 1 230.90 70.50
  L 219.60 70.50
  A 0.85 0.85 0.0 0 1 218.75 69.65
  Q 218.75 60.00 218.75 50.00
  C 218.75 45.35 212.63 44.91 208.85 45.19
  C 203.68 45.57 201.16 47.02 200.94 52.44
  Q 200.61 60.46 200.77 69.69
  A 0.79 0.79 89.3 0 1 199.98 70.50
  L 188.67 70.50
  A 0.67 0.67 -90.0 0 1 188.00 69.83
  L 188.00 37.23
  A 0.63 0.62 -3.1 0 1 188.56 36.61
  Q 194.16 35.98 199.45 36.50
  A 0.60 0.56 3.9 0 1 199.99 37.07
  L 199.88 40.70
  A 0.77 0.42 -86.6 0 0 200.23 41.45
  C 200.44 41.48 200.93 41.19 201.05 40.97
  Z"
/>
<path fill="#081fb8" d="
  M 294.27 46.55
  C 291.62 44.92 287.65 44.96 284.55 45.28
  C 277.50 46.00 278.23 51.76 278.06 58.12
  Q 277.92 63.48 278.30 69.22
  A 1.20 1.20 88.2 0 1 277.10 70.50
  L 266.17 70.50
  A 0.92 0.92 -0.6 0 1 265.25 69.58
  L 265.31 37.41
  A 0.94 0.93 89.4 0 1 266.22 36.47
  L 276.32 36.24
  A 0.92 0.91 89.4 0 1 277.25 37.16
  C 277.25 38.16 277.06 41.33 277.58 41.40
  A 0.99 0.54 -63.2 0 0 278.32 40.89
  C 281.38 36.07 288.21 35.08 293.54 35.49
  C 299.64 35.95 303.26 37.10 306.78 41.99
  A 0.39 0.39 44.7 0 0 307.41 41.99
  Q 311.64 35.97 318.00 35.75
  C 328.52 35.38 339.23 36.25 339.69 49.24
  Q 340.05 59.53 339.58 69.82
  A 0.54 0.54 -89.4 0 1 339.05 70.34
  L 327.43 70.49
  A 0.51 0.49 -90.0 0 1 326.93 69.97
  Q 327.19 59.84 326.80 50.00
  C 326.54 43.48 309.62 42.16 309.16 52.14
  Q 308.75 60.97 308.81 69.80
  A 0.54 0.50 -90.0 0 1 308.31 70.34
  L 296.87 70.45
  A 0.75 0.69 89.6 0 1 296.17 69.70
  L 296.00 49.49
  Q 295.98 47.61 294.27 46.55
  Z"
/>
<path fill="#081fb8" d="
  M 387.42 67.07
  C 382.13 73.04 363.69 71.50 356.54 70.96
  C 348.29 70.33 343.25 68.04 342.75 59.25
  C 342.25 50.37 340.58 38.01 352.81 36.31
  C 361.74 35.07 378.45 34.37 385.44 38.06
  C 389.74 40.33 390.23 44.74 390.59 49.71
  C 390.97 55.19 391.08 62.94 387.42 67.07
  Z
  M 377.7763 51.1785
  A 5.79 5.79 0.0 0 0 372.0269 45.3482
  L 361.1472 45.2722
  A 5.79 5.79 0.0 0 0 355.3169 51.0217
  L 355.2837 55.7815
  A 5.79 5.79 0.0 0 0 361.0331 61.6118
  L 371.9128 61.6878
  A 5.79 5.79 0.0 0 0 377.7431 55.9383
  L 377.7763 51.1785
  Z"
/>
<path fill="#081fb8" d="
  M 490.81 63.81
  C 488.64 72.14 475.46 71.19 469.00 71.32
  C 462.30 71.46 450.55 72.17 446.34 66.32
  C 443.04 61.72 443.41 51.21 444.25 45.75
  Q 445.52 37.51 454.17 36.33
  Q 468.65 34.34 482.50 36.50
  C 494.52 38.37 492.99 55.46 490.81 63.81
  Z
  M 479.2426 51.3787
  A 5.95 5.95 0.0 0 0 473.3553 45.3667
  L 462.6158 45.2542
  A 5.95 5.95 0.0 0 0 456.6039 51.1416
  L 456.5574 55.5813
  A 5.95 5.95 0.0 0 0 462.4447 61.5933
  L 473.1842 61.7058
  A 5.95 5.95 0.0 0 0 479.1961 55.8184
  L 479.2426 51.3787
  Z"
/>
<path fill="#081fb8" d="
  M 509.31 47.06
  C 506.32 49.92 507.50 64.79 507.50 69.48
  A 0.98 0.93 -89.4 0 1 506.55 70.46
  L 495.26 70.29
  A 0.54 0.52 -89.5 0 1 494.75 69.75
  L 494.69 37.00
  A 0.71 0.71 1.9 0 1 495.45 36.29
  Q 499.81 36.62 503.92 36.14
  C 509.23 35.52 505.38 40.42 506.73 41.47
  A 0.55 0.44 -56.3 0 0 507.44 41.24
  C 511.75 33.90 528.38 32.96 532.51 40.59
  C 534.00 43.33 534.14 47.52 534.19 50.80
  A 0.69 0.69 89.6 0 1 533.50 51.50
  L 522.90 51.50
  A 0.82 0.82 -88.4 0 1 522.08 50.63
  C 522.50 43.70 512.55 43.97 509.31 47.06
  Z"
/>
<path fill="#081fb8" d="
  M 581.79 62.34
  Q 579.42 67.94 575.42 69.27
  C 567.28 71.98 543.73 73.77 538.55 65.85
  C 535.51 61.19 535.83 50.22 536.81 44.81
  C 537.79 39.41 541.84 37.24 547.16 36.36
  C 554.20 35.20 571.83 33.89 577.72 38.46
  C 582.51 42.18 582.68 50.28 582.12 55.56
  A 0.57 0.56 -87.2 0 1 581.56 56.07
  L 549.89 56.24
  A 0.89 0.88 0.3 0 0 549.01 57.10
  C 548.90 62.44 551.88 62.70 556.43 63.14
  C 560.16 63.50 567.28 64.20 569.35 60.12
  A 1.06 0.94 -74.4 0 1 570.24 59.55
  L 580.08 59.58
  Q 582.95 59.59 581.79 62.34
  Z
  M 550.10 45.48
  Q 548.91 47.00 549.01 48.69
  A 0.56 0.53 -1.6 0 0 549.57 49.19
  L 568.45 49.25
  A 1.00 0.99 86.4 0 0 569.43 48.13
  Q 569.00 44.64 566.47 44.15
  Q 559.50 42.82 552.62 43.98
  A 4.06 4.05 -75.7 0 0 550.10 45.48
  Z"
/>
<path fill="#081fb8" d="
  M 595.7344 42.3558
  A 3.34 3.34 0.0 0 1 592.4296 45.7306
  L 586.8699 45.7889
  A 3.34 3.34 0.0 0 1 583.4951 42.4840
  L 583.4656 39.6642
  A 3.34 3.34 0.0 0 1 586.7704 36.2894
  L 592.3301 36.2311
  A 3.34 3.34 0.0 0 1 595.7049 39.5360
  L 595.7344 42.3558
  Z
  M 594.1348 39.4537
  A 2.15 2.15 0.0 0 0 591.9773 37.3112
  L 586.9173 37.3289
  A 2.15 2.15 0.0 0 0 584.7748 39.4863
  L 584.7852 42.4663
  A 2.15 2.15 0.0 0 0 586.9427 44.6088
  L 592.0027 44.5911
  A 2.15 2.15 0.0 0 0 594.1452 42.4337
  L 594.1348 39.4537
  Z"
/>
<path fill="#081fb8" d="
  M 85.23 38.39
  C 81.00 42.64 77.03 47.13 72.68 51.22
  A 1.33 1.21 -64.7 0 1 71.81 51.58
  L 55.35 51.74
  A 0.86 0.84 89.7 0 1 54.50 50.88
  L 54.50 37.92
  A 0.67 0.67 0.0 0 1 55.17 37.25
  L 84.75 37.25
  Q 86.37 37.25 85.23 38.39
  Z"
/>
<path fill="#081fb8" d="
  M 592.75 41.78
  C 593.66 44.33 591.57 43.26 590.68 42.62
  Q 589.13 41.50 587.42 43.21
  A 0.78 0.78 58.4 0 1 586.13 42.90
  Q 585.61 41.32 586.16 39.30
  A 0.94 0.94 -0.6 0 1 586.79 38.66
  C 588.15 38.26 594.95 37.85 592.86 40.92
  A 0.99 0.96 -38.7 0 0 592.75 41.78
  Z
  M 587.89 40.34
  C 587.29 41.31 591.39 41.50 590.92 40.26
  A 0.80 0.71 76.8 0 0 590.19 39.74
  L 588.67 39.81
  A 1.11 0.88 -72.6 0 0 587.89 40.34
  Z"
/>
<path fill="#cd1c33" d="
  M 85.14 70.06
  L 55.35 70.00
  A 0.85 0.85 -0.7 0 1 54.50 69.15
  L 54.50 56.16
  A 0.66 0.66 0.0 0 1 55.16 55.50
  L 71.89 55.50
  A 1.22 1.18 67.6 0 1 72.76 55.88
  L 85.53 69.15
  Q 86.41 70.07 85.14 70.06
  Z"
/>
<path fill="#000000" d="
  M 421.65 95.12
  A 1.20 1.14 2.6 0 1 422.84 94.09
  L 430.19 94.10
  A 1.65 0.86 -13.0 0 1 431.11 94.34
  Q 432.86 95.66 428.98 96.17
  A 1.12 1.12 86.5 0 0 428.00 97.28
  Q 428.00 100.41 428.00 102.81
  C 428.00 104.30 429.01 105.65 426.27 105.49
  A 0.83 0.82 -88.2 0 1 425.50 104.66
  L 425.46 97.12
  A 1.27 1.25 -6.7 0 0 423.91 95.91
  Q 421.52 96.44 421.65 95.12
  Z"
/>
<path fill="#000000" d="
  M 435.48 97.74
  C 435.32 97.93 436.42 106.56 433.76 105.42
  A 0.83 0.75 -80.4 0 1 433.30 104.69
  L 433.26 94.81
  A 0.52 0.51 89.4 0 1 433.77 94.28
  L 436.43 94.28
  A 0.74 0.70 80.1 0 1 437.10 94.78
  Q 437.90 97.05 438.44 99.39
  C 439.49 104.01 440.34 97.46 440.36 97.38
  Q 440.57 96.36 441.12 95.47
  Q 442.41 93.36 444.79 94.30
  A 0.74 0.72 11.7 0 1 445.26 94.99
  L 445.09 104.57
  A 0.79 0.77 79.9 0 1 444.61 105.28
  C 442.14 106.27 443.11 99.58 442.84 97.99
  Q 442.75 97.49 442.59 97.97
  Q 441.64 100.85 440.73 103.76
  C 439.88 106.46 437.95 105.97 437.40 103.40
  Q 436.82 100.70 436.08 98.05
  Q 435.87 97.30 435.48 97.74
  Z"
/>
<path fill="#000000" d="
  M 266.81 124.44
  L 320.33 124.50
  A 0.92 0.92 -0.6 0 1 321.25 125.42
  L 321.25 139.24
  A 1.26 1.26 0.0 0 1 319.99 140.50
  L 266.69 140.50
  A 0.69 0.69 0.0 0 0 266.00 141.19
  L 266.00 151.14
  A 0.68 0.68 0.0 0 0 266.68 151.82
  L 323.53 151.75
  A 0.97 0.97 0.2 0 1 324.50 152.72
  L 324.50 168.33
  A 0.92 0.92 -0.1 0 1 323.58 169.25
  L 245.12 169.25
  A 0.67 0.67 89.6 0 1 244.45 168.59
  L 244.25 98.42
  A 1.37 1.36 0.0 0 1 245.62 97.06
  L 323.37 97.25
  A 0.88 0.88 0.0 0 1 324.25 98.13
  L 324.25 113.33
  A 0.74 0.74 -0.0 0 1 323.51 114.07
  L 267.00 114.00
  A 0.98 0.90 -0.6 0 0 266.02 114.92
  L 266.26 123.95
  A 0.55 0.50 -0.5 0 0 266.81 124.44
  Z"
/>
<path fill="#000000" d="
  M 233.31 102.19
  C 238.92 106.21 239.71 114.95 239.83 121.46
  C 240.24 142.68 236.72 151.73 213.50 152.00
  Q 194.66 152.21 176.49 151.83
  A 1.21 1.21 0.7 0 0 175.25 153.04
  L 175.25 168.99
  A 0.51 0.51 0.0 0 1 174.74 169.50
  L 154.00 169.50
  A 0.50 0.50 0.0 0 1 153.50 169.00
  L 153.50 98.07
  A 0.57 0.57 -0.5 0 1 154.06 97.50
  Q 186.50 97.32 218.25 97.66
  Q 227.14 97.76 233.31 102.19
  Z
  M 175.55 133.16
  A 0.70 0.67 -0.8 0 0 176.25 133.81
  Q 193.66 133.89 211.58 133.53
  C 216.77 133.43 218.00 130.05 217.97 125.44
  C 217.94 119.52 217.41 115.85 210.49 115.70
  Q 193.91 115.33 176.15 115.51
  A 0.87 0.83 -1.0 0 0 175.29 116.36
  L 175.55 133.16
  Z"
/>
<path fill="#000000" d="
  M 361.32 115.75
  L 331.13 115.75
  A 0.88 0.88 0.0 0 1 330.25 114.87
  L 330.25 98.06
  A 0.56 0.56 0.0 0 1 330.81 97.50
  L 416.65 97.50
  A 0.85 0.85 -0.0 0 1 417.50 98.35
  L 417.50 115.08
  A 0.67 0.67 -0.4 0 1 416.83 115.75
  L 387.00 115.75
  A 1.69 1.69 0.0 0 0 385.31 117.44
  L 385.25 168.85
  A 0.64 0.63 90.0 0 1 384.62 169.49
  L 362.94 169.33
  A 0.52 0.52 0.6 0 1 362.43 168.81
  L 362.26 116.69
  A 0.95 0.94 89.7 0 0 361.32 115.75
  Z"
/>
</svg>
