<?xml version="1.0" encoding="UTF-8" standalone="no"?>
<!DOCTYPE svg PUBLIC "-//W3C//DTD SVG 1.1//EN" "http://www.w3.org/Graphics/SVG/1.1/DTD/svg11.dtd">
<svg xmlns="http://www.w3.org/2000/svg" version="1.1" viewBox="0 0 600 300">
<g stroke-width="2.00" fill="none" stroke-linecap="butt">
<path stroke="#000000" vector-effect="non-scaling-stroke" d="
  M 0.00 130.94
  L 0.21 113.25"
/>
<path stroke="#000000" vector-effect="non-scaling-stroke" d="
  M 0.21 61.50
  L 0.00 56.44"
/>
</g>
<path fill="#000000" d="
  M 600.00 70.06
  L 600.00 119.31
  Q 597.19 130.34 586.40 135.25
  Q 585.30 135.75 584.09 135.75
  Q 546.88 135.75 510.00 135.75
  C 497.84 135.75 490.91 128.12 490.65 116.16
  Q 489.98 84.17 490.75 69.25
  Q 491.04 63.55 496.19 57.69
  C 501.28 51.88 506.95 52.25 515.61 52.24
  Q 547.94 52.21 580.26 52.30
  C 591.14 52.33 598.45 59.19 600.00 70.06
  Z
  M 574.00 72.87
  A 0.38 0.38 0.0 0 0 573.62 72.49
  L 516.88 72.49
  A 0.38 0.38 0.0 0 0 516.50 72.87
  L 516.50 116.37
  A 0.38 0.38 0.0 0 0 516.88 116.75
  L 573.62 116.75
  A 0.38 0.38 0.0 0 0 574.00 116.37
  L 574.00 72.87
  Z"
/>
<path fill="#000000" d="
  M -0.01 132.53
  L 0.00 130.94
  L 0.21 113.25
  L 0.21 105.50
  L 0.21 99.25
  L 0.21 83.50
  L 0.21 66.00
  L 0.21 61.50
  L 0.00 56.44
  L 0.00 53.94
  Q 36.60 53.63 73.20 53.73
  Q 83.05 53.75 87.11 55.30
  C 94.50 58.13 99.44 64.48 99.55 72.69
  Q 99.92 101.66 99.74 131.65
  A 1.61 1.61 -89.8 0 1 98.13 133.25
  L 74.65 133.25
  A 1.40 1.40 0.0 0 1 73.25 131.85
  L 73.25 77.03
  A 0.82 0.81 90.0 0 0 72.44 76.21
  L 26.84 76.01
  A 0.78 0.78 0.0 0 0 26.06 76.79
  L 26.00 132.33
  A 0.87 0.87 -1.4 0 1 25.17 133.20
  Q 12.68 133.84 -0.01 132.53
  Z"
/>
<path fill="#000000" d="
  M 285.43 76.56
  L 254.25 76.50
  A 0.52 0.51 -89.4 0 0 253.74 77.01
  Q 253.15 104.13 253.76 131.48
  A 1.49 1.49 89.4 0 1 252.27 133.00
  L 228.86 133.00
  A 0.86 0.86 0.0 0 1 228.00 132.14
  L 228.00 54.94
  A 0.69 0.69 0.0 0 1 228.69 54.25
  Q 290.00 54.25 351.25 54.22
  C 358.37 54.21 364.36 59.79 366.89 65.94
  Q 368.25 69.26 368.25 75.77
  Q 368.25 103.33 368.25 131.66
  A 1.34 1.34 -90.0 0 1 366.91 133.00
  L 343.35 133.00
  A 1.10 1.10 -0.8 0 1 342.25 131.90
  L 342.25 77.03
  A 1.03 1.03 -89.8 0 0 341.22 76.00
  L 312.24 76.00
  A 0.99 0.99 -0.5 0 0 311.25 76.99
  L 311.32 132.35
  A 0.66 0.64 90.0 0 1 310.68 133.01
  L 287.17 133.22
  A 1.12 1.10 89.7 0 1 286.06 132.10
  L 285.94 77.05
  A 0.51 0.49 0.0 0 0 285.43 76.56
  Z"
/>
<path fill="#000000" d="
  M 133.16 81.97
  C 150.98 81.90 168.79 82.34 186.60 82.25
  A 0.66 0.65 -90.0 0 0 187.25 81.59
  L 187.25 72.93
  A 0.68 0.68 0.0 0 0 186.57 72.25
  L 119.66 72.25
  A 0.66 0.66 0.0 0 1 119.00 71.59
  L 119.00 55.62
  A 0.87 0.87 -0.7 0 1 119.87 54.75
  Q 157.54 54.75 194.64 54.75
  C 204.47 54.75 212.61 60.92 214.50 70.62
  Q 214.77 72.04 214.72 82.91
  Q 214.59 107.06 214.50 132.03
  A 0.98 0.98 -89.7 0 1 213.52 133.00
  Q 171.63 132.94 131.00 133.00
  Q 116.94 133.02 112.42 120.28
  C 108.50 109.22 108.67 88.03 121.98 83.14
  Q 125.10 82.00 133.16 81.97
  Z
  M 187.6390 100.8847
  A 0.72 0.72 0.0 0 0 186.9165 100.1672
  L 139.4568 100.3329
  A 0.72 0.72 0.0 0 0 138.7393 101.0554
  L 138.7810 112.9753
  A 0.72 0.72 0.0 0 0 139.5035 113.6928
  L 186.9632 113.5271
  A 0.72 0.72 0.0 0 0 187.6807 112.8046
  L 187.6390 100.8847
  Z"
/>
<path fill="#000000" d="
  M 401.94 133.75
  C 392.45 133.75 386.51 130.41 382.43 121.72
  Q 381.25 119.20 381.25 114.59
  Q 381.25 92.79 381.25 69.57
  Q 381.25 68.34 381.70 67.21
  C 385.16 58.56 392.05 54.75 401.16 54.75
  Q 438.96 54.75 476.83 54.75
  A 0.67 0.67 0.4 0 1 477.50 55.42
  L 477.50 74.30
  A 0.96 0.96 89.7 0 1 476.54 75.26
  L 407.73 75.00
  A 0.43 0.42 90.0 0 0 407.31 75.43
  L 407.32 113.20
  A 0.55 0.54 90.0 0 0 407.86 113.75
  L 476.94 113.75
  A 0.56 0.56 0.0 0 1 477.50 114.31
  L 477.50 133.19
  A 0.56 0.56 0.0 0 1 476.94 133.75
  Q 439.35 133.75 401.94 133.75
  Z"
/>
<path fill="#000000" d="
  M 0.00 56.44
  L 0.21 61.50
  L 0.00 61.44
  L 0.00 56.44
  Z"
/>
<path fill="#000000" d="
  M 0.00 113.19
  L 0.21 113.25
  L 0.00 130.94
  L 0.00 113.19
  Z"
/>
<path fill="#000000" d="
  M 74.21 172.72
  Q 75.80 174.62 78.22 175.14
  Q 88.10 177.26 97.50 179.00
  C 106.73 180.71 109.27 188.84 107.76 197.28
  C 103.00 223.74 68.80 227.73 49.26 217.92
  A 0.58 0.58 -66.7 0 1 48.98 217.21
  Q 51.80 209.06 53.23 200.56
  A 0.86 0.77 87.8 0 1 53.78 199.90
  Q 55.81 199.27 57.73 200.10
  A 0.61 0.57 -71.9 0 1 58.06 200.80
  C 57.23 204.14 56.07 208.86 58.55 211.78
  C 67.98 222.89 89.08 218.70 92.69 204.44
  C 95.12 194.83 88.88 192.89 80.86 191.43
  Q 69.82 189.41 66.75 188.25
  C 57.74 184.86 55.89 175.95 58.88 167.34
  C 66.47 145.55 92.25 143.20 110.73 150.58
  A 1.33 1.24 -71.0 0 1 111.44 152.17
  L 107.05 166.70
  A 0.71 0.60 -80.4 0 1 106.45 167.21
  L 103.13 167.25
  A 0.75 0.70 -86.8 0 1 102.43 166.41
  L 103.28 159.31
  Q 103.55 157.07 101.53 155.71
  C 92.87 149.85 78.89 150.68 73.54 160.86
  Q 69.96 167.66 74.21 172.72
  Z"
/>
<path fill="#000000" d="
  M 427.58 177.69
  C 428.13 165.34 435.01 154.82 447.23 151.43
  C 465.87 146.26 486.97 154.17 487.25 176.25
  C 487.53 198.54 464.13 209.45 452.56 224.52
  Q 451.43 226.00 453.30 226.01
  L 486.56 226.18
  A 0.53 0.52 89.4 0 1 487.08 226.70
  L 487.31 243.19
  A 0.81 0.80 -0.3 0 1 486.50 244.00
  L 425.86 244.00
  A 0.54 0.53 4.2 0 1 425.33 243.39
  C 428.86 220.52 449.00 207.35 463.79 191.54
  C 470.59 184.27 473.42 168.24 459.70 166.30
  Q 447.18 164.54 445.14 179.03
  A 0.93 0.89 -83.4 0 1 444.17 179.83
  L 428.06 178.26
  A 0.55 0.53 -86.1 0 1 427.58 177.69
  Z"
/>
<path fill="#000000" d="
  M 523.65 225.94
  L 557.58 226.00
  A 0.67 0.67 89.8 0 1 558.25 226.67
  L 558.25 243.31
  A 0.69 0.69 0.3 0 1 557.56 244.00
  L 496.80 244.00
  A 0.45 0.44 -86.1 0 1 496.36 243.49
  C 499.61 220.76 520.09 207.17 534.80 191.55
  C 541.63 184.29 544.41 168.24 530.70 166.30
  Q 518.18 164.54 516.14 179.03
  A 0.93 0.89 -83.4 0 1 515.17 179.83
  L 499.06 178.26
  A 0.55 0.53 -86.1 0 1 498.58 177.69
  C 500.77 135.53 570.10 143.45 556.49 185.83
  C 551.06 202.76 533.85 211.74 523.21 225.01
  Q 522.46 225.94 523.65 225.94
  Z"
/>
<path fill="#000000" d="
  M 245.71 181.81
  Q 242.97 195.57 241.23 209.69
  Q 240.85 212.77 243.81 213.67
  Q 246.68 214.54 250.28 213.36
  Q 252.10 212.76 252.00 214.45
  A 1.58 1.13 -29.0 0 1 251.59 215.31
  C 249.26 217.86 245.80 222.14 242.28 222.72
  C 233.97 224.08 224.64 221.79 226.75 211.00
  Q 229.61 196.38 232.41 181.74
  A 0.49 0.49 -80.2 0 0 232.01 181.17
  C 229.86 180.82 224.83 182.22 225.91 179.03
  A 2.09 2.05 88.3 0 1 227.06 177.78
  L 233.15 175.17
  A 0.95 0.89 -8.6 0 0 233.71 174.46
  L 236.03 159.05
  A 0.86 0.82 -6.9 0 1 236.57 158.39
  L 249.31 153.61
  Q 252.61 152.38 251.75 155.74
  L 247.06 174.23
  A 0.63 0.62 7.1 0 0 247.68 175.00
  Q 254.00 175.00 259.99 174.75
  Q 262.66 174.64 260.93 177.23
  Q 260.13 178.41 259.91 179.82
  C 259.61 181.73 250.54 180.86 246.31 181.27
  A 0.68 0.66 -86.5 0 0 245.71 181.81
  Z"
/>
<path fill="#000000" d="
  M 180.88 214.98
  C 186.68 219.80 198.25 219.25 201.32 211.15
  C 206.19 198.30 174.30 206.57 177.50 188.75
  C 180.81 170.30 200.46 168.64 215.30 173.06
  A 1.16 1.13 -75.3 0 1 216.08 174.43
  L 213.30 186.21
  A 1.07 0.79 -89.2 0 1 212.76 186.92
  C 210.76 187.72 208.04 187.53 209.00 184.25
  C 211.94 174.25 193.46 173.25 190.01 182.02
  C 185.28 194.03 215.72 185.01 214.53 202.72
  C 213.55 217.34 198.11 223.84 185.18 222.84
  Q 178.50 222.32 172.39 220.13
  A 0.89 0.87 -73.7 0 1 171.84 219.10
  L 174.96 205.81
  A 0.83 0.52 -80.8 0 1 175.54 205.15
  L 178.85 205.18
  A 0.82 0.72 -81.6 0 1 179.51 206.20
  C 178.73 209.23 178.15 212.72 180.88 214.98
  Z"
/>
<path fill="#000000" d="
  M 264.93 186.68
  C 273.30 168.63 317.93 160.98 308.13 194.15
  A 1.34 1.33 1.8 0 1 307.13 195.08
  C 297.95 197.09 285.12 197.72 278.50 197.00
  C 274.53 196.57 275.36 198.76 275.54 201.72
  C 276.41 216.37 291.54 217.08 301.62 212.04
  A 1.18 0.93 -42.6 0 1 302.53 211.97
  C 305.90 213.42 299.02 218.99 297.60 219.64
  C 287.18 224.39 268.56 225.53 262.79 213.28
  C 259.17 205.59 261.30 194.52 264.93 186.68
  Z
  M 288.50 177.18
  C 280.56 177.16 277.73 184.73 276.60 191.38
  A 0.53 0.53 -85.4 0 0 277.12 192.00
  L 293.96 192.00
  A 0.70 0.70 6.8 0 0 294.64 191.47
  C 295.92 186.11 296.88 177.20 288.50 177.18
  Z"
/>
<path fill="#000000" d="
  M 341.11 179.57
  Q 340.96 180.28 341.58 179.86
  C 345.48 177.21 349.86 173.36 353.53 172.00
  C 360.72 169.35 370.75 171.12 371.74 180.42
  Q 371.84 181.33 372.56 180.78
  C 379.82 175.23 384.36 169.61 394.56 171.44
  C 404.71 173.26 404.71 181.57 402.91 189.94
  Q 400.51 201.05 398.95 212.30
  C 398.24 217.40 399.10 217.65 403.94 217.81
  A 1.41 0.79 -10.0 0 1 404.83 218.12
  Q 405.43 218.72 405.04 219.63
  Q 404.85 220.09 404.83 220.56
  C 404.77 222.46 403.27 222.00 401.94 222.00
  Q 393.20 222.00 383.88 222.00
  A 1.36 1.35 8.9 0 1 382.59 220.23
  Q 387.56 204.74 389.04 188.25
  C 389.89 178.73 378.32 180.10 373.90 184.20
  C 369.40 188.38 367.57 208.61 366.93 215.27
  A 1.86 1.86 11.5 0 0 368.23 217.23
  C 369.34 217.57 374.77 217.28 373.76 219.31
  Q 373.54 219.76 373.56 220.25
  Q 373.65 222.00 371.50 222.00
  Q 358.50 222.00 345.06 222.00
  A 0.45 0.43 4.8 0 1 344.61 221.49
  L 345.18 218.54
  A 0.79 0.56 -2.7 0 1 345.82 218.04
  L 350.12 217.36
  Q 351.78 217.09 352.28 215.09
  Q 355.58 201.75 357.00 188.75
  C 358.16 178.12 345.51 179.99 341.29 185.28
  Q 339.69 187.30 339.04 191.31
  C 337.41 201.48 334.84 209.49 335.39 216.31
  A 0.81 0.80 -82.0 0 0 335.90 217.00
  C 337.65 217.70 342.47 216.97 341.00 220.00
  A 3.18 1.37 -68.4 0 1 339.00 222.00
  L 313.07 222.00
  A 0.81 0.80 -0.4 0 1 312.26 221.21
  Q 312.16 217.20 316.01 217.64
  C 320.49 218.15 320.71 215.51 321.51 211.75
  Q 324.72 196.74 326.73 181.68
  Q 327.02 179.44 324.77 179.25
  C 323.72 179.16 319.44 179.48 320.03 177.95
  Q 320.22 177.48 320.20 177.00
  Q 320.12 174.96 322.50 174.75
  Q 331.80 173.91 340.76 171.25
  Q 343.02 170.58 342.50 172.99
  L 341.11 179.57
  Z"
/>
<path fill="#000000" d="
  M 143.77 207.24
  Q 143.91 207.95 144.30 207.33
  Q 152.70 193.89 160.14 179.91
  C 163.81 173.00 152.08 179.92 155.25 172.53
  A 0.88 0.88 11.7 0 1 156.06 172.00
  L 174.67 172.00
  A 0.80 0.80 88.9 0 1 175.47 172.77
  Q 175.53 174.60 175.03 175.57
  A 0.94 0.76 9.9 0 1 174.25 176.00
  Q 170.29 176.12 168.31 179.31
  Q 143.22 219.94 134.69 233.94
  C 128.79 243.62 119.43 255.77 106.02 249.41
  A 0.56 0.55 22.8 0 1 105.73 248.72
  L 108.89 240.15
  A 1.34 1.32 26.0 0 1 110.85 239.49
  C 122.38 246.71 127.88 234.79 132.64 226.84
  A 1.79 1.73 -36.3 0 0 132.86 225.55
  L 122.78 178.87
  Q 122.26 176.46 119.76 176.50
  Q 114.78 176.58 117.24 172.42
  A 0.90 0.86 14.7 0 1 118.00 172.00
  L 145.43 172.00
  A 0.59 0.58 -89.5 0 1 146.01 172.60
  Q 145.98 174.38 145.44 175.50
  A 1.07 0.82 4.8 0 1 144.68 175.99
  L 140.47 176.57
  Q 137.72 176.95 138.28 179.75
  L 143.77 207.24
  Z"
/>
</svg>
