<?xml version="1.0" encoding="UTF-8" standalone="no"?>
<!DOCTYPE svg PUBLIC "-//W3C//DTD SVG 1.1//EN" "http://www.w3.org/Graphics/SVG/1.1/DTD/svg11.dtd">
<svg xmlns="http://www.w3.org/2000/svg" version="1.1" viewBox="0 0 600 300">
<g stroke-width="2.00" fill="none" stroke-linecap="butt">
<path stroke="#121011" vector-effect="non-scaling-stroke" d="
  M 430.00 100.54
  C 429.60 102.96 426.87 100.56 427.25 102.96"
/>
<path stroke="#8b841b" vector-effect="non-scaling-stroke" d="
  M 427.25 102.96
  C 408.44 97.56 395.73 105.39 387.21 121.75"
/>
<path stroke="#8b7b1d" vector-effect="non-scaling-stroke" d="
  M 387.21 121.75
  L 382.21 128.00"
/>
<path stroke="#8a731f" vector-effect="non-scaling-stroke" d="
  M 382.21 128.00
  Q 376.49 132.72 380.68 136.85
  C 385.70 141.80 391.16 133.88 394.00 130.54"
/>
<path stroke="#8b7b1d" vector-effect="non-scaling-stroke" d="
  M 394.00 130.54
  C 400.27 123.58 416.60 116.15 419.88 130.26"
/>
<path stroke="#8a6a21" vector-effect="non-scaling-stroke" d="
  M 419.88 130.26
  Q 419.77 137.77 416.44 144.95"
/>
<path stroke="#895626" vector-effect="non-scaling-stroke" d="
  M 416.44 144.95
  Q 407.76 157.80 396.71 169.00"
/>
<path stroke="#873f2c" vector-effect="non-scaling-stroke" d="
  M 396.71 169.00
  Q 386.89 178.06 377.99 188.08"
/>
<path stroke="#86322f" vector-effect="non-scaling-stroke" d="
  M 377.99 188.08
  C 375.36 193.38 378.99 200.58 384.03 202.61
  Q 386.02 203.41 388.02 202.68
  Q 405.50 196.32 421.50 188.29"
/>
<path stroke="#873f2c" vector-effect="non-scaling-stroke" d="
  M 421.50 188.29
  L 451.04 175.50"
/>
<path stroke="#884a29" vector-effect="non-scaling-stroke" d="
  M 451.04 175.50
  L 478.00 164.79"
/>
<path stroke="#895626" vector-effect="non-scaling-stroke" d="
  M 478.00 164.79
  C 487.10 161.21 496.12 157.44 505.28 153.99
  Q 511.23 151.75 513.81 149.81
  C 520.66 144.68 506.21 146.43 504.74 146.69
  Q 475.16 151.84 446.75 161.54"
/>
<path stroke="#884a29" vector-effect="non-scaling-stroke" d="
  M 446.75 161.54
  Q 430.42 167.30 414.46 174.00"
/>
<path stroke="#873f2c" vector-effect="non-scaling-stroke" d="
  M 414.46 174.00
  Q 408.73 176.11 403.17 178.64
  Q 402.79 178.82 402.74 178.54
  A 0.68 0.40 -36.4 0 1 402.95 178.05
  L 409.96 170.75"
/>
<path stroke="#895626" vector-effect="non-scaling-stroke" d="
  M 409.96 170.75
  Q 420.43 159.91 428.25 147.04"
/>
<path stroke="#8a6a21" vector-effect="non-scaling-stroke" d="
  M 428.25 147.04
  Q 432.56 141.10 435.21 134.25"
/>
<path stroke="#8b7b1d" vector-effect="non-scaling-stroke" d="
  M 435.21 134.25
  Q 437.94 127.00 437.46 119.25"
/>
<path stroke="#8b841b" vector-effect="non-scaling-stroke" d="
  M 437.46 119.25
  L 437.29 115.50"
/>
<path stroke="#121011" vector-effect="non-scaling-stroke" d="
  M 437.29 115.50
  C 441.16 117.69 436.24 108.80 439.23 109.89"
/>
<path stroke="#121011" vector-effect="non-scaling-stroke" d="
  M 221.50 248.21
  C 221.05 246.29 224.10 248.26 223.54 245.50"
/>
<path stroke="#851a36" vector-effect="non-scaling-stroke" d="
  M 223.54 245.50
  Q 228.08 249.25 234.00 248.72
  C 238.54 248.31 241.71 250.74 245.12 250.80
  C 249.94 250.88 255.52 246.00 253.31 240.94
  Q 246.89 226.23 245.01 214.24"
/>
<path stroke="#852533" vector-effect="non-scaling-stroke" d="
  M 245.01 214.24
  L 243.96 200.50"
/>
<path stroke="#86322f" vector-effect="non-scaling-stroke" d="
  M 243.96 200.50
  Q 243.45 198.87 243.90 197.30
  A 0.90 0.81 -0.2 0 1 244.55 196.71
  C 248.72 195.78 252.93 191.87 250.96 187.25"
/>
<path stroke="#873a2d" vector-effect="non-scaling-stroke" d="
  M 250.96 187.25
  Q 248.05 182.67 242.63 181.40"
/>
<path stroke="#87462a" vector-effect="non-scaling-stroke" d="
  M 242.63 181.40
  L 242.21 163.75"
/>
<path stroke="#895826" vector-effect="non-scaling-stroke" d="
  M 242.21 163.75
  L 242.49 145.73"
/>
<path stroke="#8a6c20" vector-effect="non-scaling-stroke" d="
  M 242.49 145.73
  L 242.80 122.86"
/>
<path stroke="#8b7b1d" vector-effect="non-scaling-stroke" d="
  M 242.80 122.86
  L 243.21 117.00"
/>
<path stroke="#8b841b" vector-effect="non-scaling-stroke" d="
  M 243.21 117.00
  Q 245.41 89.86 252.18 63.48
  C 253.86 56.98 254.73 47.97 247.67 45.05
  Q 245.94 44.34 244.29 45.20
  C 237.07 48.92 229.80 57.35 224.38 63.37
  Q 197.95 92.73 171.71 122.25"
/>
<path stroke="#8a731f" vector-effect="non-scaling-stroke" d="
  M 171.71 122.25
  L 157.00 138.96"
/>
<path stroke="#896422" vector-effect="non-scaling-stroke" d="
  M 157.00 138.96
  L 144.00 153.96"
/>
<path stroke="#895826" vector-effect="non-scaling-stroke" d="
  M 144.00 153.96
  L 137.75 161.21"
/>
<path stroke="#884c29" vector-effect="non-scaling-stroke" d="
  M 137.75 161.21
  L 126.30 175.28"
/>
<path stroke="#873f2c" vector-effect="non-scaling-stroke" d="
  M 126.30 175.28
  Q 121.08 177.39 114.50 176.25
  C 105.27 174.66 94.36 173.78 87.50 181.79"
/>
<path stroke="#873a2d" vector-effect="non-scaling-stroke" d="
  M 87.50 181.79
  L 77.25 188.71"
/>
<path stroke="#86322f" vector-effect="non-scaling-stroke" d="
  M 77.25 188.71
  Q 69.83 194.04 76.40 201.43"
/>
<path stroke="#852931" vector-effect="non-scaling-stroke" d="
  M 76.40 201.43
  Q 91.53 206.47 107.45 204.14
  Q 108.06 204.04 107.75 204.53
  L 105.50 207.96"
/>
<path stroke="#851a36" vector-effect="non-scaling-stroke" d="
  M 105.50 207.96
  C 91.23 225.85 76.47 243.49 62.87 261.88
  C 59.98 265.79 62.83 271.35 67.49 271.87
  Q 90.06 274.39 103.33 256.58
  Q 120.51 233.52 136.75 209.79"
/>
<path stroke="#852931" vector-effect="non-scaling-stroke" d="
  M 136.75 209.79
  L 140.87 204.39
  A 1.30 1.24 -67.6 0 1 142.00 203.89
  Q 169.72 206.49 195.69 198.34"
/>
<path stroke="#86322f" vector-effect="non-scaling-stroke" d="
  M 195.69 198.34
  L 207.75 197.54"
/>
<path stroke="#852533" vector-effect="non-scaling-stroke" d="
  M 207.75 197.54
  L 210.29 207.75"
/>
<path stroke="#851a36" vector-effect="non-scaling-stroke" d="
  M 210.29 207.75
  Q 212.17 220.28 215.46 232.50"
/>
<path stroke="#121011" vector-effect="non-scaling-stroke" d="
  M 215.46 232.50
  Q 212.44 231.78 212.71 234.75"
/>
<path stroke="#445c78" vector-effect="non-scaling-stroke" d="
  M 212.71 234.75
  L 211.71 232.00"
/>
<path stroke="#433729" vector-effect="non-scaling-stroke" d="
  M 211.71 232.00
  Q 211.97 229.93 210.79 228.25"
/>
<path stroke="#445c78" vector-effect="non-scaling-stroke" d="
  M 210.79 228.25
  L 205.86 202.68
  A 1.89 1.84 82.4 0 0 203.92 201.15
  Q 196.55 201.70 188.21 204.00"
/>
<path stroke="#405976" vector-effect="non-scaling-stroke" d="
  M 188.21 204.00
  Q 177.18 206.47 165.96 207.75"
/>
<path stroke="#3c5775" vector-effect="non-scaling-stroke" d="
  M 165.96 207.75
  L 156.00 208.04"
/>
<path stroke="#395574" vector-effect="non-scaling-stroke" d="
  M 156.00 208.04
  L 143.31 207.58
  A 0.94 0.92 18.5 0 0 142.51 207.97
  L 125.21 232.50"
/>
<path stroke="#345173" vector-effect="non-scaling-stroke" d="
  M 125.21 232.50
  Q 118.40 241.80 111.72 251.21
  C 104.45 261.45 96.39 270.82 83.75 274.29"
/>
<path stroke="#28496f" vector-effect="non-scaling-stroke" d="
  M 83.75 274.29
  C 75.09 276.46 57.75 278.20 58.51 263.99
  Q 58.62 262.09 59.75 260.55
  L 70.54 246.00"
/>
<path stroke="#2c4c70" vector-effect="non-scaling-stroke" d="
  M 70.54 246.00
  L 100.45 208.64
  Q 100.76 208.25 100.26 208.26
  C 93.47 208.31 82.15 208.35 75.67 204.51
  A 1.21 1.14 51.3 0 0 74.76 204.38
  L 67.00 206.54"
/>
<path stroke="#28496f" vector-effect="non-scaling-stroke" d="
  M 67.00 206.54
  L 44.42 213.77"
/>
<path stroke="#24476e" vector-effect="non-scaling-stroke" d="
  M 44.42 213.77
  Q 35.72 216.07 28.20 220.53
  Q 26.34 221.63 26.26 223.79
  C 25.65 239.71 30.62 255.07 38.98 268.17"
/>
<path stroke="#28496f" vector-effect="non-scaling-stroke" d="
  M 38.98 268.17
  Q 44.48 277.61 50.73 286.43
  C 54.29 291.44 59.81 289.19 63.82 287.59
  Q 75.80 282.77 87.79 278.00"
/>
<path stroke="#345173" vector-effect="non-scaling-stroke" d="
  M 87.79 278.00
  L 133.49 261.11"
/>
<path stroke="#395574" vector-effect="non-scaling-stroke" d="
  M 133.49 261.11
  L 156.25 253.29"
/>
<path stroke="#3c5775" vector-effect="non-scaling-stroke" d="
  M 156.25 253.29
  L 164.50 250.54"
/>
<path stroke="#405976" vector-effect="non-scaling-stroke" d="
  M 164.50 250.54
  L 189.75 242.79"
/>
<path stroke="#445c78" vector-effect="non-scaling-stroke" d="
  M 189.75 242.79
  L 213.38 236.14"
/>
<path stroke="#121011" vector-effect="non-scaling-stroke" d="
  M 213.38 236.14
  Q 215.01 237.13 214.71 239.50"
/>
<path stroke="#121011" vector-effect="non-scaling-stroke" d="
  M 335.25 91.04
  Q 337.23 90.75 337.79 89.00"
/>
<path stroke="#86193b" vector-effect="non-scaling-stroke" d="
  M 337.79 89.00
  C 351.20 93.08 355.10 78.30 351.75 68.54"
/>
<path stroke="#615533" vector-effect="non-scaling-stroke" d="
  M 351.75 68.54
  Q 369.99 92.04 382.92 120.12
  Q 383.55 121.49 384.22 120.14
  Q 387.57 113.31 392.17 107.88
  A 0.74 0.73 -38.5 0 0 392.27 107.06
  Q 378.35 80.93 355.75 61.79"
/>
<path stroke="#1b5f38" vector-effect="non-scaling-stroke" d="
  M 355.75 61.79
  Q 361.00 60.94 366.89 63.07
  A 1.36 1.29 28.6 0 0 368.40 62.67
  L 372.25 57.76
  Q 372.81 57.04 373.08 57.89
  Q 374.37 62.06 374.25 65.00
  Q 374.16 67.09 375.28 68.03
  Q 375.71 68.40 375.91 68.76
  C 377.56 71.80 379.13 68.90 380.58 67.89
  Q 382.01 66.91 383.31 65.69
  Q 384.23 64.84 384.26 66.09
  C 384.33 68.77 384.21 71.61 383.38 74.27
  Q 382.79 76.15 385.20 78.19
  A 0.69 0.65 43.5 0 0 386.08 78.19
  L 389.62 75.01
  Q 390.73 74.01 390.51 75.46
  Q 389.90 79.37 389.64 83.28
  C 389.51 85.28 390.44 86.83 390.69 88.76
  Q 390.89 90.34 391.68 88.95
  C 398.60 76.82 395.24 63.53 392.49 50.50
  Q 392.35 49.87 392.89 50.21
  L 401.51 55.72
  A 0.83 0.74 36.1 0 0 402.54 55.62
  L 405.78 51.82
  Q 406.61 50.84 407.00 51.99
  Q 408.27 55.75 408.31 59.70
  A 1.62 1.34 30.2 0 0 408.63 60.57
  L 414.95 68.90
  Q 415.47 69.58 415.74 68.78
  C 416.57 66.30 416.79 63.33 417.05 61.19
  C 419.09 44.99 406.46 33.92 392.57 28.17
  C 389.42 26.87 389.83 24.76 388.63 22.50
  C 383.78 13.31 376.00 12.10 366.44 11.59
  A 0.68 0.67 84.7 0 1 365.83 11.08
  C 364.00 3.69 354.75 3.42 348.66 3.25
  C 339.90 3.01 328.12 5.06 325.82 15.15
  C 325.31 17.39 325.50 20.18 325.50 22.62
  Q 325.50 24.09 324.33 23.20
  Q 311.54 13.49 297.93 19.97
  C 292.17 22.71 290.28 26.06 289.58 32.21
  A 2.69 2.65 75.3 0 1 288.51 34.07
  Q 275.62 43.54 270.06 58.81
  Q 262.50 79.60 276.23 96.93
  Q 277.12 98.05 277.46 96.64
  L 279.37 88.74
  A 1.37 1.26 -54.0 0 0 279.26 87.81
  Q 276.50 82.69 276.32 77.19
  Q 276.28 75.83 277.30 76.68
  L 281.68 80.31
  A 0.92 0.87 33.7 0 0 283.05 80.08
  L 287.47 71.62
  A 2.34 2.18 52.5 0 0 287.63 69.95
  Q 286.31 65.35 286.75 61.06
  Q 286.81 60.56 287.21 60.86
  L 292.85 64.96
  A 0.66 0.66 44.2 0 0 293.64 64.95
  Q 298.22 61.44 303.56 59.81
  Q 305.16 59.32 304.19 60.68
  C 293.56 75.70 291.36 101.23 310.57 110.94
  A 0.67 0.63 15.7 0 0 311.54 110.43
  L 311.95 102.32
  A 1.66 1.16 36.7 0 0 311.65 101.41
  Q 308.88 97.50 308.43 91.88
  Q 308.34 90.72 309.30 91.34
  L 312.14 93.17
  A 0.43 0.41 26.2 0 0 312.77 92.97
  C 313.38 91.08 313.74 90.28 312.69 88.43
  Q 310.44 84.45 310.20 78.77
  Q 310.17 78.20 310.64 78.50
  L 315.36 81.43
  A 0.52 0.52 -58.3 0 0 316.08 81.25
  L 320.21 74.41
  A 1.59 1.32 -36.0 0 0 320.44 73.51
  L 319.75 65.23
  Q 319.48 61.97 321.10 64.85
  Q 323.62 69.32 328.41 68.21"
/>
<path stroke="#121011" vector-effect="non-scaling-stroke" d="
  M 328.41 68.21
  Q 327.72 68.45 327.82 69.03
  A 0.60 0.47 -9.3 0 0 328.48 69.39
  C 329.73 69.20 330.08 69.72 329.57 70.81
  Q 325.30 79.87 331.98 87.26
  Q 333.31 88.73 334.21 90.50"
/>
<path stroke="#895227" vector-effect="non-scaling-stroke" d="
  M 308.46 146.50
  Q 296.65 160.62 285.65 175.51"
/>
<path stroke="#873c2c" vector-effect="non-scaling-stroke" d="
  M 285.65 175.51
  L 272.71 192.75"
/>
<path stroke="#862d30" vector-effect="non-scaling-stroke" d="
  M 272.71 192.75
  L 268.21 199.25"
/>
<path stroke="#852034" vector-effect="non-scaling-stroke" d="
  M 268.21 199.25
  C 266.06 201.93 264.80 205.07 262.44 207.00
  C 258.56 210.17 257.89 211.18 258.76 216.64
  A 0.86 0.80 80.4 0 0 259.70 217.36
  L 268.21 215.82
  A 1.27 1.00 -74.1 0 0 268.97 215.27
  L 276.75 203.04"
/>
<path stroke="#862d30" vector-effect="non-scaling-stroke" d="
  M 276.75 203.04
  L 283.75 192.54"
/>
<path stroke="#873c2c" vector-effect="non-scaling-stroke" d="
  M 283.75 192.54
  L 294.50 176.79"
/>
<path stroke="#895227" vector-effect="non-scaling-stroke" d="
  M 294.50 176.79
  L 310.94 155.04"
/>
<path stroke="#8a6a21" vector-effect="non-scaling-stroke" d="
  M 310.94 155.04
  L 322.60 141.43
  Q 322.94 141.03 322.79 141.54
  L 319.29 153.25"
/>
<path stroke="#895826" vector-effect="non-scaling-stroke" d="
  M 319.29 153.25
  L 316.46 164.00"
/>
<path stroke="#88442b" vector-effect="non-scaling-stroke" d="
  M 316.46 164.00
  Q 313.51 175.50 311.82 187.26
  A 1.79 1.54 -57.2 0 0 311.95 188.20
  C 317.14 199.32 327.59 187.10 331.19 182.19
  Q 340.01 170.14 348.75 158.04"
/>
<path stroke="#896123" vector-effect="non-scaling-stroke" d="
  M 348.75 158.04
  L 356.45 148.92
  Q 357.66 147.49 357.05 149.28
  L 353.25 160.46"
/>
<path stroke="#884c29" vector-effect="non-scaling-stroke" d="
  M 353.25 160.46
  L 348.46 172.50"
/>
<path stroke="#87382e" vector-effect="non-scaling-stroke" d="
  M 348.46 172.50
  Q 344.41 180.54 343.75 186.75
  C 343.23 191.69 345.19 197.96 351.44 196.11
  Q 352.83 195.70 354.82 196.35
  A 1.40 1.38 -48.0 0 0 355.86 196.29
  Q 363.44 192.82 367.95 186.68
  Q 369.06 185.16 368.66 183.32
  Q 367.78 179.33 363.70 183.43
  Q 362.96 184.17 362.10 184.75
  Q 359.39 186.59 359.05 183.38
  C 358.83 181.40 359.73 178.78 360.21 176.75"
/>
<path stroke="#884c29" vector-effect="non-scaling-stroke" d="
  M 360.21 176.75
  Q 364.03 167.06 366.71 157.00"
/>
<path stroke="#896123" vector-effect="non-scaling-stroke" d="
  M 366.71 157.00
  C 368.46 152.06 373.32 134.87 365.82 134.49
  C 359.35 134.16 346.92 148.53 343.29 153.50"
/>
<path stroke="#88442b" vector-effect="non-scaling-stroke" d="
  M 343.29 153.50
  L 327.68 173.70
  Q 326.78 174.87 327.16 173.45
  L 328.71 167.75"
/>
<path stroke="#895826" vector-effect="non-scaling-stroke" d="
  M 328.71 167.75
  L 334.46 148.25"
/>
<path stroke="#8a6a21" vector-effect="non-scaling-stroke" d="
  M 334.46 148.25
  Q 336.31 141.86 338.25 135.50
  C 338.95 133.22 336.85 126.22 335.68 124.05
  Q 334.37 121.63 331.87 122.77
  C 324.42 126.15 314.46 138.98 308.46 146.50"
/>
<path stroke="#f3a729" vector-effect="non-scaling-stroke" d="
  M 334.46 148.25
  Q 332.59 148.85 332.85 146.81
  A 0.42 0.41 -87.6 0 0 332.43 146.34
  L 323.50 146.73
  A 1.30 1.01 14.0 0 0 322.65 147.11
  Q 321.72 148.20 321.91 149.76
  A 1.46 0.91 -41.8 0 1 321.66 150.62
  L 321.01 151.61
  Q 320.91 151.77 320.84 152.57
  Q 320.76 153.58 319.29 153.25"
/>
<path stroke="#f3a12b" vector-effect="non-scaling-stroke" d="
  M 310.94 155.04
  Q 311.28 151.35 314.07 148.76
  A 0.54 0.51 -41.4 0 0 314.14 148.04
  Q 312.53 146.08 310.10 147.12
  A 0.55 0.53 41.0 0 1 309.75 147.14
  Q 308.87 146.91 308.46 146.50"
/>
<path stroke="#f17336" vector-effect="non-scaling-stroke" d="
  M 294.50 176.79
  C 292.18 176.77 294.65 173.47 295.20 173.04
  A 0.57 0.57 -51.0 0 0 295.10 172.08
  Q 293.10 171.09 291.55 171.05
  A 0.78 0.68 -76.0 0 0 290.88 171.52
  Q 289.40 175.00 285.65 175.51"
/>
<path stroke="#f18133" vector-effect="non-scaling-stroke" d="
  M 328.71 167.75
  Q 327.87 168.38 327.16 168.04
  A 0.81 0.46 -76.9 0 1 326.93 167.28
  L 327.29 164.76
  A 0.54 0.49 4.8 0 0 326.76 164.20
  L 320.07 164.04
  A 1.23 0.88 -62.3 0 0 319.25 164.45
  Q 318.35 165.46 318.12 164.31
  Q 318.04 163.88 317.79 164.24
  Q 316.65 165.94 316.46 164.00"
/>
<path stroke="#ee4e3f" vector-effect="non-scaling-stroke" d="
  M 283.75 192.54
  L 282.14 192.84
  Q 281.63 192.94 281.89 192.45
  L 282.77 190.79
  A 0.40 0.40 16.3 0 0 282.45 190.21
  L 277.82 189.80
  A 1.40 1.04 -56.2 0 0 276.92 190.12
  C 276.12 190.79 272.90 196.69 272.71 192.75"
/>
<path stroke="#ec3247" vector-effect="non-scaling-stroke" d="
  M 276.75 203.04
  Q 275.68 202.62 274.98 201.73
  A 0.80 0.72 62.5 0 0 274.21 201.44
  Q 270.14 202.39 268.21 199.25"
/>
<path stroke="#f2922f" vector-effect="non-scaling-stroke" d="
  M 366.71 157.00
  L 365.79 157.03
  A 0.59 0.45 -6.7 0 1 365.22 156.69
  C 364.59 154.10 359.61 154.82 357.51 155.10
  A 1.12 1.11 -88.2 0 0 356.55 156.01
  Q 355.93 159.20 353.25 160.46"
/>
<path stroke="#f28a31" vector-effect="non-scaling-stroke" d="
  M 348.75 158.04
  C 346.99 156.49 350.81 153.89 351.70 152.41
  C 352.57 150.97 353.47 150.26 354.37 148.98
  A 0.83 0.83 51.6 0 0 354.46 148.19
  C 351.73 141.41 346.22 156.09 343.29 153.50"
/>
<path stroke="#ef6939" vector-effect="non-scaling-stroke" d="
  M 360.21 176.75
  C 358.85 176.78 359.83 174.42 359.74 173.40
  A 0.50 0.50 1.4 0 0 359.30 172.94
  Q 354.99 172.38 350.74 173.16
  A 1.92 1.07 37.6 0 1 349.80 173.02
  L 348.46 172.50"
/>
<path stroke="#615533" vector-effect="non-scaling-stroke" d="
  M 401.02 129.05
  C 396.48 132.54 393.38 136.40 389.61 140.15
  A 1.02 0.92 65.8 0 0 389.34 140.99
  L 390.89 153.07
  A 0.55 0.52 84.2 0 0 391.44 153.55
  L 405.88 152.61
  Q 408.07 152.47 407.66 150.25
  Q 405.83 140.40 401.81 129.28
  A 0.51 0.51 61.1 0 0 401.02 129.05"
/>
<path stroke="#747c87" vector-effect="non-scaling-stroke" d="
  M 426.78 155.69
  Q 422.11 162.52 416.80 168.08
  Q 414.61 170.37 417.53 169.15
  Q 436.05 161.41 456.03 155.00
  Q 456.77 154.76 455.99 154.74
  Q 441.74 154.42 427.59 155.23
  A 1.05 1.05 15.3 0 0 426.78 155.69"
/>
<path stroke="#606e80" vector-effect="non-scaling-stroke" d="
  M 351.25 199.33
  Q 347.39 200.76 344.56 198.44
  C 335.34 190.87 343.31 175.46 346.79 167.55
  Q 347.81 165.23 346.45 167.16
  C 339.50 177.03 332.29 188.54 322.21 195.53"
/>
<path stroke="#58697d" vector-effect="non-scaling-stroke" d="
  M 322.21 195.53
  C 315.87 197.95 312.06 194.49 308.72 189.75
  A 2.40 2.18 34.6 0 1 308.31 188.01
  L 313.08 162.55
  A 0.53 0.48 -79.5 0 0 312.71 161.95
  Q 310.06 161.47 308.31 163.81
  Q 288.89 189.86 271.51 217.72
  A 2.60 2.57 -82.2 0 1 270.05 218.84
  Q 262.56 221.10 255.50 221.21"
/>
<path stroke="#50647c" vector-effect="non-scaling-stroke" d="
  M 255.50 221.21
  C 255.02 214.16 254.16 209.11 258.82 205.26
  Q 260.96 203.49 261.76 202.33
  Q 275.32 182.76 290.11 164.00
  Q 290.33 163.72 289.98 163.75
  Q 268.02 165.56 246.18 168.62
  A 0.58 0.55 -4.7 0 0 245.68 169.18
  L 245.99 178.61
  A 0.73 0.69 8.8 0 0 246.48 179.24
  C 256.28 182.56 258.26 194.44 248.22 198.87
  A 1.27 1.26 77.5 0 0 247.47 200.06
  Q 247.79 213.39 250.89 224.96"
/>
<path stroke="#58697d" vector-effect="non-scaling-stroke" d="
  M 250.89 224.96
  C 251.00 228.10 252.03 227.05 253.68 226.67
  Q 284.99 219.60 316.34 212.74"
/>
<path stroke="#606e80" vector-effect="non-scaling-stroke" d="
  M 316.34 212.74
  L 336.50 208.29"
/>
<path stroke="#687383" vector-effect="non-scaling-stroke" d="
  M 336.50 208.29
  L 375.48 199.91
  A 0.37 0.37 67.4 0 0 375.71 199.34
  C 370.06 190.98 375.47 184.81 381.44 179.19
  Q 391.74 169.49 403.17 156.62
  Q 403.51 156.24 403.00 156.27
  L 371.96 157.91
  Q 370.02 158.01 369.52 159.92
  Q 367.38 168.00 363.91 176.85
  Q 362.82 179.65 364.92 178.30
  C 367.10 176.90 370.07 178.43 371.19 180.31
  C 375.04 186.78 366.05 194.42 361.06 197.56
  Q 356.30 200.56 351.25 199.33"
/>
<path stroke="#a8c6e5" vector-effect="non-scaling-stroke" d="
  M 336.50 208.29
  Q 335.58 208.28 335.68 207.54
  A 0.77 0.61 -2.6 0 1 336.31 206.99
  Q 341.70 206.17 346.79 204.18
  A 1.84 1.54 35.6 0 1 347.74 204.11
  Q 351.28 204.77 349.57 201.75
  A 0.33 0.33 -19.1 0 1 349.81 201.27
  Q 351.18 201.01 351.25 199.33"
/>
<path stroke="#98bbe0" vector-effect="non-scaling-stroke" d="
  M 322.21 195.53
  Q 325.55 195.32 327.80 193.48
  Q 329.51 192.08 329.00 194.23
  C 328.01 198.43 330.18 201.92 328.74 205.97
  A 1.31 1.23 44.9 0 0 328.77 206.88
  Q 329.40 208.44 327.67 208.16
  A 1.60 1.31 30.7 0 0 326.74 208.30
  C 323.47 210.05 320.22 209.99 316.78 211.37
  A 0.82 0.64 82.9 0 0 316.37 212.06
  L 316.34 212.74"
/>
<path stroke="#89b2dc" vector-effect="non-scaling-stroke" d="
  M 250.89 224.96
  Q 253.07 224.24 255.26 224.75
  Q 256.47 225.03 255.71 224.05
  Q 254.74 222.80 255.50 221.21"
/>
<path stroke="#7b8088" vector-effect="non-scaling-stroke" d="
  M 486.75 165.04
  Q 456.31 176.65 426.49 189.74
  A 0.40 0.29 -12.1 0 0 426.25 190.01
  Q 426.23 190.21 426.49 190.17
  Q 459.80 185.09 493.25 180.96"
/>
<path stroke="#83858b" vector-effect="non-scaling-stroke" d="
  M 493.25 180.96
  L 513.75 178.54"
/>
<path stroke="#8a8a8d" vector-effect="non-scaling-stroke" d="
  M 513.75 178.54
  Q 541.51 175.88 569.12 171.95
  C 571.16 171.66 575.47 170.51 571.67 167.73
  Q 569.86 166.41 567.68 165.87
  Q 546.60 160.69 525.25 158.54"
/>
<path stroke="#83858b" vector-effect="non-scaling-stroke" d="
  M 525.25 158.54
  C 519.80 157.69 510.21 155.72 505.07 157.66
  Q 495.83 161.15 486.75 165.04"
/>
<path stroke="#edf4fa" vector-effect="non-scaling-stroke" d="
  M 525.25 158.54
  Q 525.96 160.53 527.93 160.58
  Q 528.23 160.59 528.80 160.91
  L 532.89 163.20
  A 1.00 0.84 19.4 0 1 533.41 164.08
  Q 533.22 166.03 533.72 166.46
  A 0.97 0.14 39.0 0 1 534.27 167.06
  Q 535.25 173.79 528.75 174.75
  Q 527.29 174.97 526.58 175.38
  A 1.69 0.82 -43.5 0 1 525.70 175.66
  C 521.20 175.44 517.76 177.07 512.75 177.01
  A 1.55 1.31 23.2 0 0 511.84 177.29
  Q 509.82 178.80 513.75 178.54"
/>
<path stroke="#dfeaf6" vector-effect="non-scaling-stroke" d="
  M 493.25 180.96
  L 491.46 179.74
  A 0.77 0.73 -66.9 0 1 491.17 178.96
  Q 492.41 173.31 491.75 167.55
  A 1.55 1.25 -75.5 0 0 491.36 166.69
  Q 490.08 165.38 488.20 165.52
  C 487.60 165.56 486.71 166.34 486.75 165.04"
/>
<path stroke="#6f664c" vector-effect="non-scaling-stroke" d="
  M 390.50 227.96
  C 350.99 229.45 313.77 236.33 277.98 251.26
  Q 276.06 252.06 278.15 252.06
  L 469.63 252.00
  Q 471.23 252.00 469.95 251.04
  C 454.76 239.63 437.44 230.68 418.50 227.96"
/>
<path stroke="#615533" vector-effect="non-scaling-stroke" d="
  M 418.50 227.96
  L 416.46 205.75"
/>
<path stroke="#433729" vector-effect="non-scaling-stroke" d="
  M 416.46 205.75
  Q 416.94 203.21 415.79 201.00"
/>
<path stroke="#615533" vector-effect="non-scaling-stroke" d="
  M 415.79 201.00
  L 415.36 196.75
  A 1.30 1.26 -16.1 0 0 413.51 195.77
  Q 402.37 201.16 392.27 204.89
  A 0.77 0.77 -9.0 0 0 391.78 205.56
  L 390.50 227.96"
/>
<path stroke="#84713e" vector-effect="non-scaling-stroke" d="
  M 415.79 201.00
  Q 415.21 203.52 416.46 205.75"
/>
<path stroke="#b1a062" vector-effect="non-scaling-stroke" d="
  M 418.50 227.96
  L 390.50 227.96"
/>
<path stroke="#5c994d" vector-effect="non-scaling-stroke" d="
  M 355.75 61.79
  Q 351.41 61.07 347.25 62.54"
/>
<path stroke="#815c55" vector-effect="non-scaling-stroke" d="
  M 347.25 62.54
  Q 340.78 61.00 335.75 65.29"
/>
<path stroke="#0d542b" vector-effect="non-scaling-stroke" d="
  M 335.75 65.29
  L 328.41 68.21"
/>
<path stroke="#f7e41a" vector-effect="non-scaling-stroke" d="
  M 243.21 117.00
  Q 241.72 119.29 240.47 116.96
  A 0.92 0.84 76.7 0 0 239.75 116.47
  C 236.81 116.27 234.70 116.02 231.43 116.30
  C 228.57 116.54 225.69 115.69 223.18 115.82
  Q 218.65 116.06 214.21 117.07"
/>
<path stroke="#8b841b" vector-effect="non-scaling-stroke" d="
  M 214.21 117.07
  L 215.21 112.37
  Q 215.56 110.70 214.45 111.92
  L 205.25 122.04"
/>
<path stroke="#f7e41a" vector-effect="non-scaling-stroke" d="
  M 205.25 122.04
  Q 204.18 120.36 206.05 118.27
  Q 207.30 116.86 205.42 116.71
  C 197.79 116.06 189.37 117.24 181.54 116.16
  C 178.82 115.78 176.15 119.11 174.83 121.33"
/>
<path stroke="#f6dc1c" vector-effect="non-scaling-stroke" d="
  M 174.83 121.33
  Q 173.43 123.09 171.71 122.25"
/>
<path stroke="#c75350" vector-effect="non-scaling-stroke" d="
  M 351.75 68.54
  Q 350.22 64.97 347.25 62.54"
/>
<path stroke="#780e2e" vector-effect="non-scaling-stroke" d="
  M 337.79 89.00
  C 326.42 84.03 327.85 72.53 335.75 65.29"
/>
<path stroke="#7e790e" vector-effect="non-scaling-stroke" d="
  M 437.29 115.50
  Q 435.76 106.39 427.25 102.96"
/>
<path stroke="#f7e41a" vector-effect="non-scaling-stroke" d="
  M 437.46 119.25
  Q 436.78 117.60 435.41 116.54
  A 1.68 1.37 -21.1 0 0 434.49 116.24
  Q 418.44 115.86 402.39 116.42
  C 399.59 116.52 396.76 115.80 393.93 115.49
  A 0.95 0.94 -65.6 0 0 393.11 115.80
  Q 390.48 118.70 389.31 121.06
  Q 388.48 122.74 387.21 121.75"
/>
<path stroke="#8b7b1d" vector-effect="non-scaling-stroke" d="
  M 214.21 117.07
  L 213.00 123.21"
/>
<path stroke="#8a6c20" vector-effect="non-scaling-stroke" d="
  M 213.00 123.21
  Q 210.40 135.49 209.29 148.00"
/>
<path stroke="#895826" vector-effect="non-scaling-stroke" d="
  M 209.29 148.00
  L 207.79 161.25"
/>
<path stroke="#87462a" vector-effect="non-scaling-stroke" d="
  M 207.79 161.25
  L 206.74 180.46"
/>
<path stroke="#873a2d" vector-effect="non-scaling-stroke" d="
  M 206.74 180.46
  Q 192.86 181.10 179.00 179.54"
/>
<path stroke="#873f2c" vector-effect="non-scaling-stroke" d="
  M 179.00 179.54
  Q 168.51 178.36 158.02 178.27"
/>
<path stroke="#884c29" vector-effect="non-scaling-stroke" d="
  M 158.02 178.27
  L 168.50 165.04"
/>
<path stroke="#895826" vector-effect="non-scaling-stroke" d="
  M 168.50 165.04
  L 176.75 155.04"
/>
<path stroke="#896422" vector-effect="non-scaling-stroke" d="
  M 176.75 155.04
  L 189.00 140.54"
/>
<path stroke="#8a731f" vector-effect="non-scaling-stroke" d="
  M 189.00 140.54
  L 203.92 123.58"
/>
<path stroke="#8b7b1d" vector-effect="non-scaling-stroke" d="
  M 203.92 123.58
  L 205.25 122.04"
/>
<path stroke="#445c78" vector-effect="non-scaling-stroke" d="
  M 201.82 175.00
  Q 196.14 175.93 190.45 176.72
  C 190.27 176.75 188.35 177.32 190.25 177.36
  Q 196.25 177.50 202.72 177.50
  A 0.69 0.69 -83.7 0 0 203.39 176.96
  C 203.95 174.56 203.47 174.73 201.82 175.00"
/>
<path stroke="#f5ca20" vector-effect="non-scaling-stroke" d="
  M 435.21 134.25
  C 430.77 135.29 439.47 128.15 432.26 127.63
  Q 430.89 127.53 425.50 127.75
  Q 421.58 127.91 419.88 130.26"
/>
<path stroke="#f6d31e" vector-effect="non-scaling-stroke" d="
  M 394.00 130.54
  C 390.42 131.60 396.83 125.72 396.92 125.63
  A 0.59 0.53 -46.7 0 0 396.94 124.87
  C 395.67 123.59 391.15 124.63 388.92 124.07
  A 1.23 0.99 31.1 0 0 388.02 124.19
  C 386.24 125.37 384.51 129.63 382.21 128.00"
/>
<path stroke="#f6d31e" vector-effect="non-scaling-stroke" d="
  M 203.92 123.58
  Q 200.92 121.10 197.11 121.27
  C 191.29 121.52 185.41 121.33 179.57 121.69
  A 1.61 1.59 66.3 0 1 178.33 121.20
  Q 176.76 119.57 174.83 121.33"
/>
<path stroke="#f6cc20" vector-effect="non-scaling-stroke" d="
  M 242.80 122.86
  Q 237.93 121.70 233.05 121.98
  C 229.09 122.20 225.59 121.78 221.80 121.92
  C 220.16 121.98 217.63 121.56 215.48 122.32
  A 1.16 0.92 -85.2 0 0 214.86 122.98
  Q 214.33 124.36 213.00 123.21"
/>
<path stroke="#f4bb24" vector-effect="non-scaling-stroke" d="
  M 189.00 140.54
  Q 188.56 140.59 188.31 140.37
  A 0.71 0.46 -51.0 0 1 188.39 139.56
  L 190.90 136.34
  Q 193.15 133.45 189.34 133.71
  Q 177.25 134.54 165.48 133.73
  Q 163.08 133.57 161.90 135.67
  Q 160.34 138.47 157.00 138.96"
/>
<path stroke="#f4a929" vector-effect="non-scaling-stroke" d="
  M 242.49 145.73
  Q 227.13 146.78 211.81 145.84
  A 0.45 0.45 0.6 0 0 211.34 146.30
  Q 211.36 148.64 209.29 148.00"
/>
<path stroke="#f3a52a" vector-effect="non-scaling-stroke" d="
  M 428.25 147.04
  Q 422.94 143.36 416.44 144.95"
/>
<path stroke="#f3a02b" vector-effect="non-scaling-stroke" d="
  M 176.75 155.04
  C 173.96 154.88 177.17 152.90 177.41 151.56
  A 0.49 0.43 6.1 0 0 176.94 151.04
  C 172.88 150.92 168.87 151.51 165.02 151.38
  Q 158.85 151.15 152.68 151.23
  C 149.89 151.27 147.85 150.26 146.23 153.52
  Q 145.17 155.66 144.00 153.96"
/>
<path stroke="#f17a35" vector-effect="non-scaling-stroke" d="
  M 409.96 170.75
  Q 408.92 170.50 409.37 168.73
  Q 409.68 167.52 408.52 167.98
  Q 404.83 169.44 401.74 167.59
  A 0.87 0.67 40.3 0 0 400.88 167.55
  L 397.60 169.78
  A 0.19 0.15 -45.5 0 1 397.43 169.80
  Q 396.73 169.46 396.71 169.00"
/>
<path stroke="#f18333" vector-effect="non-scaling-stroke" d="
  M 242.21 163.75
  Q 233.53 162.31 226.25 163.25
  Q 223.23 163.64 221.04 162.98
  A 1.26 0.84 -43.4 0 0 220.17 163.13
  Q 219.68 163.42 218.99 163.27
  Q 214.17 162.24 208.84 164.06
  A 0.49 0.44 76.0 0 1 208.25 163.66
  L 207.79 161.25"
/>
<path stroke="#f18532" vector-effect="non-scaling-stroke" d="
  M 478.00 164.79
  Q 477.86 163.22 476.73 163.37
  A 1.79 1.10 -25.3 0 1 475.80 163.27
  Q 474.15 162.50 472.25 162.54
  Q 459.97 162.80 447.69 162.64
  Q 446.36 162.63 446.75 161.54"
/>
<path stroke="#f18831" vector-effect="non-scaling-stroke" d="
  M 168.50 165.04
  Q 167.99 165.16 167.75 165.00
  A 0.74 0.43 -53.9 0 1 167.84 164.15
  L 172.35 158.06
  Q 172.98 157.20 171.93 157.24
  Q 159.60 157.74 147.44 157.56
  Q 146.13 157.54 144.06 157.16
  A 0.83 0.82 -65.7 0 0 143.26 157.47
  Q 141.11 160.23 137.75 161.21"
/>
<path stroke="#f06f37" vector-effect="non-scaling-stroke" d="
  M 158.02 178.27
  L 157.67 175.81
  A 0.56 0.47 84.7 0 0 157.18 175.33
  Q 150.73 175.58 147.94 174.94
  Q 145.53 174.38 143.70 174.69
  C 139.05 175.46 134.50 175.22 128.98 174.78
  A 1.68 1.68 18.1 0 0 127.40 175.58
  Q 126.13 177.69 126.30 175.28"
/>
<path stroke="#ef653a" vector-effect="non-scaling-stroke" d="
  M 242.63 181.40
  Q 240.57 179.86 238.94 179.81
  Q 226.17 179.42 206.74 180.46"
/>
<path stroke="#f06d38" vector-effect="non-scaling-stroke" d="
  M 451.04 175.50
  L 449.34 174.12
  A 1.63 0.83 52.1 0 0 448.49 173.72
  Q 436.22 172.99 423.92 173.21
  C 420.80 173.26 418.23 173.86 415.48 174.94
  Q 413.96 175.53 414.46 174.00"
/>
<path stroke="#ee553e" vector-effect="non-scaling-stroke" d="
  M 421.50 188.29
  Q 420.78 188.45 420.50 188.19
  A 0.58 0.33 -48.8 0 1 420.63 187.53
  C 421.63 186.38 412.15 186.48 411.56 186.51
  C 403.10 187.01 395.95 186.83 388.01 186.76
  C 385.43 186.74 382.61 184.76 380.25 187.75
  Q 379.07 189.25 377.99 188.08"
/>
<path stroke="#ef5d3c" vector-effect="non-scaling-stroke" d="
  M 179.00 179.54
  C 180.51 182.47 168.21 180.19 167.31 180.33
  Q 166.75 180.42 167.31 180.52
  Q 169.53 180.90 165.26 180.98
  Q 164.75 180.99 164.26 181.12
  C 158.48 182.63 152.92 180.76 147.00 181.44
  Q 146.65 181.48 146.03 181.34
  Q 145.30 181.17 144.00 181.25
  C 135.84 181.74 125.96 180.99 117.66 181.14
  Q 106.05 181.36 94.43 181.32
  C 92.09 181.31 90.71 180.55 88.77 182.52
  Q 86.71 184.63 87.50 181.79"
/>
<path stroke="#ed503f" vector-effect="non-scaling-stroke" d="
  M 250.96 187.25
  L 247.14 186.26
  A 1.44 0.84 28.3 0 0 246.25 186.29
  C 242.08 188.42 229.44 187.35 224.75 187.13
  Q 216.85 186.77 210.85 186.98
  C 195.13 187.53 179.49 187.02 163.77 186.98
  Q 156.98 186.97 149.21 186.75
  Q 148.62 186.73 148.03 186.68
  C 138.58 185.85 129.25 187.18 119.86 187.16
  C 107.24 187.14 97.52 187.42 86.38 187.03
  C 83.12 186.92 81.89 186.38 79.06 188.81
  Q 78.31 189.46 77.25 188.71"
/>
<path stroke="#ec3b45" vector-effect="non-scaling-stroke" d="
  M 243.96 200.50
  L 243.71 201.28
  Q 243.53 201.82 243.19 201.37
  Q 241.96 199.78 241.53 197.80
  A 0.58 0.55 81.1 0 0 240.94 197.35
  C 231.36 198.02 222.87 196.57 214.40 197.58
  C 213.26 197.71 211.72 197.32 210.73 198.52
  A 0.34 0.33 -42.3 0 1 210.19 198.50
  Q 209.36 197.30 207.75 197.54"
/>
<path stroke="#ec3f43" vector-effect="non-scaling-stroke" d="
  M 195.69 198.34
  Q 194.43 198.68 194.76 197.54
  A 0.34 0.33 -83.1 0 0 194.43 197.10
  C 187.38 197.64 179.59 196.74 173.53 196.85
  Q 149.79 197.25 126.05 197.07
  A 1.10 0.59 -59.5 0 0 125.33 197.51
  Q 125.01 197.90 124.44 197.56
  Q 111.04 198.34 107.50 197.75
  Q 99.33 196.38 91.12 197.02
  Q 88.68 197.21 85.29 196.83
  Q 81.69 196.42 78.06 196.98
  A 1.00 0.78 -78.7 0 0 77.41 197.54
  Q 77.20 198.03 76.75 198.33
  A 0.33 0.32 -42.5 0 0 76.72 198.85
  Q 77.94 199.87 76.40 201.43"
/>
<path stroke="#eb284a" vector-effect="non-scaling-stroke" d="
  M 136.75 209.79
  Q 136.45 207.54 134.70 208.27
  Q 134.17 208.50 133.75 208.49
  L 110.50 208.25
  Q 110.06 208.25 109.59 207.97
  Q 108.18 207.15 107.20 208.51
  A 0.56 0.46 -54.4 0 1 106.49 208.70
  L 105.50 207.96"
/>
<path stroke="#eb244b" vector-effect="non-scaling-stroke" d="
  M 245.01 214.24
  Q 245.15 211.89 243.96 210.27
  A 0.28 0.27 -42.7 0 0 243.53 210.26
  Q 242.62 211.28 243.08 210.08
  Q 243.36 209.35 242.67 209.70
  Q 240.60 210.73 238.84 210.51
  C 233.67 209.87 227.99 210.76 223.40 210.54
  Q 218.70 210.32 214.00 210.25
  Q 211.42 210.21 210.29 207.75"
/>
<path stroke="#687883" vector-effect="non-scaling-stroke" d="
  M 210.79 228.25
  Q 210.64 230.27 211.71 232.00"
/>
<path stroke="#37516b" vector-effect="non-scaling-stroke" d="
  M 212.71 234.75
  L 213.38 236.14"
/>
<path stroke="#659ad1" vector-effect="non-scaling-stroke" d="
  M 189.75 242.79
  Q 188.88 240.84 191.25 240.75
  A 1.75 0.94 12.1 0 0 192.18 240.48
  L 195.43 238.13
  A 1.27 1.05 80.4 0 0 195.89 237.33
  C 196.07 236.04 195.72 229.27 195.85 229.04
  Q 196.17 228.47 196.17 228.19
  L 196.33 208.23
  Q 196.35 205.73 193.95 205.77
  C 193.38 205.78 187.36 205.84 188.21 204.00"
/>
<path stroke="#5d95ce" vector-effect="non-scaling-stroke" d="
  M 164.50 250.54
  C 163.24 249.28 166.51 248.97 167.20 248.15
  A 1.34 1.10 -68.5 0 1 167.99 247.71
  Q 170.98 247.39 171.25 244.85
  C 171.40 243.41 170.30 242.30 171.04 240.45
  Q 171.16 240.16 171.14 239.51
  L 170.99 234.05
  Q 170.94 232.15 169.69 231.51
  Q 166.77 230.00 169.03 228.94
  Q 169.30 228.82 169.99 228.83
  C 172.20 228.85 170.93 224.41 170.69 222.81
  Q 170.47 221.37 170.96 213.50
  C 171.29 208.08 163.17 211.75 165.96 207.75"
/>
<path stroke="#347ac2" vector-effect="non-scaling-stroke" d="
  M 70.54 246.00
  C 69.91 245.18 70.04 244.36 70.76 243.60
  Q 73.30 240.93 75.02 237.69
  A 1.16 1.09 50.4 0 0 75.08 236.78
  Q 74.57 235.34 74.15 233.88
  C 73.39 231.27 74.08 229.55 74.20 226.91
  C 74.29 225.09 73.46 223.26 73.39 221.34
  C 73.25 216.86 72.05 212.79 71.78 208.40
  A 0.49 0.49 82.3 0 0 71.19 207.95
  Q 64.54 209.34 66.14 208.10
  A 1.55 0.86 15.0 0 1 67.06 207.87
  Q 68.32 207.91 69.12 206.83
  Q 69.52 206.30 68.90 206.54
  Q 67.97 206.89 67.00 206.54"
/>
<path stroke="#3d7fc4" vector-effect="non-scaling-stroke" d="
  M 83.75 274.29
  C 81.78 276.41 84.86 275.81 85.58 275.48
  Q 89.25 273.80 93.59 272.19
  Q 94.18 271.98 93.72 272.40
  C 92.04 273.98 89.49 275.99 87.27 276.60
  Q 85.83 277.00 87.79 278.00"
/>
<path stroke="#2c75bf" vector-effect="non-scaling-stroke" d="
  M 38.98 268.17
  Q 42.54 269.88 43.40 273.76
  A 1.83 1.67 -75.5 0 0 43.85 274.61
  Q 46.74 277.60 48.68 281.29
  A 0.60 0.59 -31.1 0 0 49.55 281.50
  C 51.50 280.13 51.29 279.22 51.32 277.20
  Q 51.67 250.35 51.51 223.51
  C 51.49 220.65 52.18 217.96 50.90 214.72
  A 0.49 0.49 -26.1 0 0 50.19 214.48
  Q 46.73 216.64 44.42 213.77"
/>
<path stroke="#5690cc" vector-effect="non-scaling-stroke" d="
  M 156.00 208.04
  L 150.38 208.19
  A 0.40 0.38 -13.1 0 0 150.02 208.73
  Q 150.89 210.52 152.49 210.54
  A 0.99 0.86 -14.8 0 1 153.27 210.92
  L 154.13 212.15
  A 1.80 1.41 32.5 0 1 154.45 213.06
  Q 155.04 230.68 154.76 248.32
  C 154.75 249.12 154.16 250.03 154.87 251.06
  A 0.33 0.32 -27.3 0 1 154.70 251.55
  Q 154.18 251.74 153.95 252.22
  Q 153.74 252.68 154.25 252.45
  Q 155.54 251.87 156.25 253.29"
/>
<path stroke="#4e8bca" vector-effect="non-scaling-stroke" d="
  M 133.49 261.11
  Q 133.72 259.36 136.00 258.75
  C 141.24 257.33 139.92 253.66 140.08 249.73
  Q 140.71 233.85 139.45 218.00
  C 139.11 213.81 137.28 218.80 136.56 219.01
  A 1.43 0.52 -9.0 0 0 135.76 219.45
  L 132.28 224.33
  Q 132.05 224.64 132.00 225.25
  C 131.86 226.61 130.94 226.65 130.41 227.29
  C 129.68 228.15 126.14 233.84 125.21 232.50"
/>
<path stroke="#770f29" vector-effect="non-scaling-stroke" d="
  M 223.54 245.50
  Q 217.58 240.22 215.46 232.50"
/>
</g>
<path fill="#1f1b1d" d="
  M 348.31 0.00
  L 350.56 0.00
  C 357.52 0.27 364.56 1.77 368.25 8.07
  A 0.87 0.85 73.4 0 0 369.00 8.49
  Q 385.25 8.43 392.69 23.85
  A 3.48 3.43 88.6 0 0 394.42 25.52
  Q 402.73 29.12 409.18 34.84
  C 422.50 46.65 422.33 59.40 417.22 75.30
  Q 416.82 76.56 416.04 75.50
  Q 410.73 68.29 405.52 61.48
  Q 404.72 60.43 405.08 59.21
  A 0.90 0.62 -66.4 0 0 404.92 58.37
  Q 404.33 57.87 403.94 58.94
  Q 403.18 60.98 401.69 59.81
  L 397.88 56.84
  Q 396.79 55.99 397.04 57.34
  C 399.70 72.00 400.86 84.28 390.33 95.89
  A 0.71 0.68 -38.7 0 0 390.22 96.70
  L 394.74 104.83
  A 0.47 0.44 -32.7 0 0 395.41 104.95
  C 405.14 97.89 418.80 95.42 430.00 100.54
  C 429.60 102.96 426.87 100.56 427.25 102.96
  C 408.44 97.56 395.73 105.39 387.21 121.75
  L 382.21 128.00
  Q 376.49 132.72 380.68 136.85
  C 385.70 141.80 391.16 133.88 394.00 130.54
  C 400.27 123.58 416.60 116.15 419.88 130.26
  Q 419.77 137.77 416.44 144.95
  Q 407.76 157.80 396.71 169.00
  Q 386.89 178.06 377.99 188.08
  C 375.36 193.38 378.99 200.58 384.03 202.61
  Q 386.02 203.41 388.02 202.68
  Q 405.50 196.32 421.50 188.29
  L 451.04 175.50
  L 478.00 164.79
  C 487.10 161.21 496.12 157.44 505.28 153.99
  Q 511.23 151.75 513.81 149.81
  C 520.66 144.68 506.21 146.43 504.74 146.69
  Q 475.16 151.84 446.75 161.54
  Q 430.42 167.30 414.46 174.00
  Q 408.73 176.11 403.17 178.64
  Q 402.79 178.82 402.74 178.54
  A 0.68 0.40 -36.4 0 1 402.95 178.05
  L 409.96 170.75
  Q 420.43 159.91 428.25 147.04
  Q 432.56 141.10 435.21 134.25
  Q 437.94 127.00 437.46 119.25
  L 437.29 115.50
  C 441.16 117.69 436.24 108.80 439.23 109.89
  C 443.88 125.03 438.77 138.62 429.79 150.88
  Q 428.99 151.97 430.35 151.92
  Q 445.40 151.29 461.00 151.50
  Q 466.55 151.57 469.89 150.73
  Q 489.02 145.91 508.52 142.88
  C 516.64 141.61 524.80 148.07 514.29 153.45
  Q 512.98 154.11 514.45 154.24
  Q 539.90 156.42 564.00 161.90
  C 567.85 162.78 575.94 164.06 576.07 169.53
  C 576.17 173.46 572.51 174.57 568.73 175.13
  Q 552.41 177.57 536.01 179.32
  C 496.92 183.51 458.15 188.14 419.15 194.64
  A 0.99 0.96 82.4 0 0 418.36 195.71
  L 421.28 224.46
  A 0.97 0.92 -87.7 0 0 422.03 225.31
  C 443.51 229.56 462.71 240.39 479.35 254.45
  Q 480.22 255.18 479.08 255.18
  L 263.14 255.19
  Q 261.55 255.19 262.98 254.51
  C 302.05 235.98 343.38 226.99 386.73 225.20
  A 0.84 0.83 -89.6 0 0 387.53 224.40
  L 388.47 206.65
  A 0.58 0.58 85.4 0 0 387.77 206.05
  Q 382.92 207.13 378.94 203.19
  A 1.62 1.59 61.0 0 0 377.48 202.76
  L 253.43 229.94
  A 0.99 0.98 70.6 0 0 252.76 231.34
  C 254.75 235.39 257.78 241.18 256.71 245.47
  C 254.99 252.34 247.02 256.26 240.41 253.12
  Q 238.08 252.01 235.52 252.24
  Q 227.70 252.94 221.50 248.21
  C 221.05 246.29 224.10 248.26 223.54 245.50
  Q 228.08 249.25 234.00 248.72
  C 238.54 248.31 241.71 250.74 245.12 250.80
  C 249.94 250.88 255.52 246.00 253.31 240.94
  Q 246.89 226.23 245.01 214.24
  L 243.96 200.50
  Q 243.45 198.87 243.90 197.30
  A 0.90 0.81 -0.2 0 1 244.55 196.71
  C 248.72 195.78 252.93 191.87 250.96 187.25
  Q 248.05 182.67 242.63 181.40
  L 242.21 163.75
  L 242.49 145.73
  L 242.80 122.86
  L 243.21 117.00
  Q 245.41 89.86 252.18 63.48
  C 253.86 56.98 254.73 47.97 247.67 45.05
  Q 245.94 44.34 244.29 45.20
  C 237.07 48.92 229.80 57.35 224.38 63.37
  Q 197.95 92.73 171.71 122.25
  L 157.00 138.96
  L 144.00 153.96
  L 137.75 161.21
  L 126.30 175.28
  Q 121.08 177.39 114.50 176.25
  C 105.27 174.66 94.36 173.78 87.50 181.79
  L 77.25 188.71
  Q 69.83 194.04 76.40 201.43
  Q 91.53 206.47 107.45 204.14
  Q 108.06 204.04 107.75 204.53
  L 105.50 207.96
  C 91.23 225.85 76.47 243.49 62.87 261.88
  C 59.98 265.79 62.83 271.35 67.49 271.87
  Q 90.06 274.39 103.33 256.58
  Q 120.51 233.52 136.75 209.79
  L 140.87 204.39
  A 1.30 1.24 -67.6 0 1 142.00 203.89
  Q 169.72 206.49 195.69 198.34
  L 207.75 197.54
  L 210.29 207.75
  Q 212.17 220.28 215.46 232.50
  Q 212.44 231.78 212.71 234.75
  L 211.71 232.00
  Q 211.97 229.93 210.79 228.25
  L 205.86 202.68
  A 1.89 1.84 82.4 0 0 203.92 201.15
  Q 196.55 201.70 188.21 204.00
  Q 177.18 206.47 165.96 207.75
  L 156.00 208.04
  L 143.31 207.58
  A 0.94 0.92 18.5 0 0 142.51 207.97
  L 125.21 232.50
  Q 118.40 241.80 111.72 251.21
  C 104.45 261.45 96.39 270.82 83.75 274.29
  C 75.09 276.46 57.75 278.20 58.51 263.99
  Q 58.62 262.09 59.75 260.55
  L 70.54 246.00
  L 100.45 208.64
  Q 100.76 208.25 100.26 208.26
  C 93.47 208.31 82.15 208.35 75.67 204.51
  A 1.21 1.14 51.3 0 0 74.76 204.38
  L 67.00 206.54
  L 44.42 213.77
  Q 35.72 216.07 28.20 220.53
  Q 26.34 221.63 26.26 223.79
  C 25.65 239.71 30.62 255.07 38.98 268.17
  Q 44.48 277.61 50.73 286.43
  C 54.29 291.44 59.81 289.19 63.82 287.59
  Q 75.80 282.77 87.79 278.00
  L 133.49 261.11
  L 156.25 253.29
  L 164.50 250.54
  L 189.75 242.79
  L 213.38 236.14
  Q 215.01 237.13 214.71 239.50
  Q 205.51 241.52 196.48 244.18
  Q 129.25 264.00 64.44 290.69
  Q 61.35 291.96 57.55 292.50
  C 50.52 293.50 49.04 289.53 45.77 284.72
  C 33.34 266.40 20.83 245.30 23.25 222.25
  C 24.07 214.40 63.87 204.25 71.46 202.07
  A 0.44 0.42 70.4 0 0 71.73 201.48
  C 66.56 190.09 74.46 186.16 82.54 181.13
  Q 84.01 180.22 87.38 177.18
  Q 93.71 171.45 102.75 172.00
  Q 118.37 172.95 122.69 173.16
  A 0.98 0.96 20.9 0 0 123.50 172.81
  C 150.37 140.44 178.67 109.30 206.69 77.94
  Q 223.99 58.57 234.90 47.93
  C 238.58 44.34 244.00 39.73 249.55 42.28
  C 257.26 45.81 257.37 54.69 255.76 61.95
  C 250.61 85.18 246.26 107.84 245.91 131.75
  Q 245.67 148.40 245.69 164.56
  A 0.73 0.72 -2.9 0 0 246.49 165.28
  L 291.80 160.45
  A 3.13 2.99 14.7 0 0 293.94 159.26
  Q 307.73 141.00 323.31 124.81
  C 330.10 117.77 338.61 116.24 340.77 128.28
  C 341.39 131.78 342.31 133.14 341.25 137.00
  Q 338.66 146.44 335.59 155.74
  C 334.76 158.27 336.56 156.61 336.95 156.08
  C 340.97 150.49 363.46 120.89 371.81 134.80
  C 374.78 139.75 372.90 148.33 371.08 153.74
  A 0.75 0.75 -82.3 0 0 371.83 154.73
  L 386.80 153.97
  A 1.03 1.03 -5.2 0 0 387.77 152.81
  L 386.55 142.60
  A 0.98 0.98 -4.7 0 0 385.53 141.74
  Q 379.35 142.02 376.66 137.45
  C 373.79 132.57 377.00 128.20 380.43 124.94
  A 1.63 1.62 -34.1 0 0 380.79 123.09
  Q 370.54 100.33 356.54 80.26
  Q 355.75 79.13 355.50 80.49
  C 353.68 90.37 344.52 95.75 335.25 91.04
  Q 337.23 90.75 337.79 89.00
  C 351.20 93.08 355.10 78.30 351.75 68.54
  Q 369.99 92.04 382.92 120.12
  Q 383.55 121.49 384.22 120.14
  Q 387.57 113.31 392.17 107.88
  A 0.74 0.73 -38.5 0 0 392.27 107.06
  Q 378.35 80.93 355.75 61.79
  Q 361.00 60.94 366.89 63.07
  A 1.36 1.29 28.6 0 0 368.40 62.67
  L 372.25 57.76
  Q 372.81 57.04 373.08 57.89
  Q 374.37 62.06 374.25 65.00
  Q 374.16 67.09 375.28 68.03
  Q 375.71 68.40 375.91 68.76
  C 377.56 71.80 379.13 68.90 380.58 67.89
  Q 382.01 66.91 383.31 65.69
  Q 384.23 64.84 384.26 66.09
  C 384.33 68.77 384.21 71.61 383.38 74.27
  Q 382.79 76.15 385.20 78.19
  A 0.69 0.65 43.5 0 0 386.08 78.19
  L 389.62 75.01
  Q 390.73 74.01 390.51 75.46
  Q 389.90 79.37 389.64 83.28
  C 389.51 85.28 390.44 86.83 390.69 88.76
  Q 390.89 90.34 391.68 88.95
  C 398.60 76.82 395.24 63.53 392.49 50.50
  Q 392.35 49.87 392.89 50.21
  L 401.51 55.72
  A 0.83 0.74 36.1 0 0 402.54 55.62
  L 405.78 51.82
  Q 406.61 50.84 407.00 51.99
  Q 408.27 55.75 408.31 59.70
  A 1.62 1.34 30.2 0 0 408.63 60.57
  L 414.95 68.90
  Q 415.47 69.58 415.74 68.78
  C 416.57 66.30 416.79 63.33 417.05 61.19
  C 419.09 44.99 406.46 33.92 392.57 28.17
  C 389.42 26.87 389.83 24.76 388.63 22.50
  C 383.78 13.31 376.00 12.10 366.44 11.59
  A 0.68 0.67 84.7 0 1 365.83 11.08
  C 364.00 3.69 354.75 3.42 348.66 3.25
  C 339.90 3.01 328.12 5.06 325.82 15.15
  C 325.31 17.39 325.50 20.18 325.50 22.62
  Q 325.50 24.09 324.33 23.20
  Q 311.54 13.49 297.93 19.97
  C 292.17 22.71 290.28 26.06 289.58 32.21
  A 2.69 2.65 75.3 0 1 288.51 34.07
  Q 275.62 43.54 270.06 58.81
  Q 262.50 79.60 276.23 96.93
  Q 277.12 98.05 277.46 96.64
  L 279.37 88.74
  A 1.37 1.26 -54.0 0 0 279.26 87.81
  Q 276.50 82.69 276.32 77.19
  Q 276.28 75.83 277.30 76.68
  L 281.68 80.31
  A 0.92 0.87 33.7 0 0 283.05 80.08
  L 287.47 71.62
  A 2.34 2.18 52.5 0 0 287.63 69.95
  Q 286.31 65.35 286.75 61.06
  Q 286.81 60.56 287.21 60.86
  L 292.85 64.96
  A 0.66 0.66 44.2 0 0 293.64 64.95
  Q 298.22 61.44 303.56 59.81
  Q 305.16 59.32 304.19 60.68
  C 293.56 75.70 291.36 101.23 310.57 110.94
  A 0.67 0.63 15.7 0 0 311.54 110.43
  L 311.95 102.32
  A 1.66 1.16 36.7 0 0 311.65 101.41
  Q 308.88 97.50 308.43 91.88
  Q 308.34 90.72 309.30 91.34
  L 312.14 93.17
  A 0.43 0.41 26.2 0 0 312.77 92.97
  C 313.38 91.08 313.74 90.28 312.69 88.43
  Q 310.44 84.45 310.20 78.77
  Q 310.17 78.20 310.64 78.50
  L 315.36 81.43
  A 0.52 0.52 -58.3 0 0 316.08 81.25
  L 320.21 74.41
  A 1.59 1.32 -36.0 0 0 320.44 73.51
  L 319.75 65.23
  Q 319.48 61.97 321.10 64.85
  Q 323.62 69.32 328.41 68.21
  Q 327.72 68.45 327.82 69.03
  A 0.60 0.47 -9.3 0 0 328.48 69.39
  C 329.73 69.20 330.08 69.72 329.57 70.81
  Q 325.30 79.87 331.98 87.26
  Q 333.31 88.73 334.21 90.50
  Q 324.99 84.92 326.72 74.11
  C 326.85 73.26 328.52 70.86 325.67 72.33
  A 1.27 1.25 50.5 0 1 324.31 72.19
  Q 323.76 71.75 323.47 72.06
  A 1.01 0.50 64.8 0 0 323.45 72.96
  C 324.28 75.16 318.82 82.56 317.39 84.84
  A 1.05 1.05 34.1 0 1 315.88 85.13
  C 314.50 84.13 313.63 84.43 314.61 85.88
  Q 315.48 87.15 316.39 88.40
  A 1.30 1.09 35.5 0 1 316.63 89.31
  L 315.33 97.90
  A 0.33 0.33 22.3 0 1 314.81 98.11
  C 310.77 95.30 315.28 100.89 315.19 102.05
  Q 314.74 108.20 314.69 113.85
  A 0.86 0.85 4.8 0 1 313.69 114.69
  C 291.72 110.96 289.73 83.48 296.80 67.45
  A 0.38 0.33 -77.6 0 0 296.51 66.92
  C 294.71 67.00 294.03 70.94 291.73 67.97
  A 1.58 0.88 65.3 0 0 290.96 67.41
  Q 289.56 67.07 290.98 69.37
  A 2.27 2.26 -47.2 0 1 291.06 71.60
  L 284.17 84.75
  A 0.70 0.64 -68.9 0 1 283.44 85.11
  Q 282.59 84.90 281.99 84.21
  A 0.54 0.34 43.1 0 0 281.27 84.07
  Q 280.94 84.67 282.33 86.58
  A 2.59 2.52 -56.2 0 1 282.72 88.71
  L 279.04 102.87
  A 0.52 0.52 -62.8 0 1 278.20 103.14
  C 254.53 83.50 263.81 49.34 285.29 32.64
  A 2.75 2.72 -13.1 0 0 286.28 31.07
  Q 288.79 19.95 297.36 16.50
  Q 309.78 11.50 321.31 17.74
  A 0.65 0.65 -70.2 0 0 322.26 17.29
  C 325.08 2.40 335.51 0.64 348.31 0.00
  Z
  M 385.75 82.79
  C 384.05 82.79 381.35 78.79 379.95 77.25
  A 2.05 2.04 -52.2 0 1 379.66 74.92
  Q 382.04 70.47 377.78 73.89
  A 0.92 0.85 -40.7 0 1 376.57 73.85
  L 371.35 68.33
  A 1.56 1.44 -61.5 0 1 371.01 66.97
  C 371.34 65.52 371.31 63.37 369.90 65.76
  C 368.77 67.67 364.27 65.00 365.91 66.58
  Q 378.88 79.09 388.38 94.39
  C 389.55 96.28 389.63 94.26 389.27 93.44
  Q 387.09 88.55 386.32 83.25
  A 0.58 0.54 -4.0 0 0 385.75 82.79
  Z
  M 308.46 146.50
  Q 296.65 160.62 285.65 175.51
  L 272.71 192.75
  L 268.21 199.25
  C 266.06 201.93 264.80 205.07 262.44 207.00
  C 258.56 210.17 257.89 211.18 258.76 216.64
  A 0.86 0.80 80.4 0 0 259.70 217.36
  L 268.21 215.82
  A 1.27 1.00 -74.1 0 0 268.97 215.27
  L 276.75 203.04
  L 283.75 192.54
  L 294.50 176.79
  L 310.94 155.04
  L 322.60 141.43
  Q 322.94 141.03 322.79 141.54
  L 319.29 153.25
  L 316.46 164.00
  Q 313.51 175.50 311.82 187.26
  A 1.79 1.54 -57.2 0 0 311.95 188.20
  C 317.14 199.32 327.59 187.10 331.19 182.19
  Q 340.01 170.14 348.75 158.04
  L 356.45 148.92
  Q 357.66 147.49 357.05 149.28
  L 353.25 160.46
  L 348.46 172.50
  Q 344.41 180.54 343.75 186.75
  C 343.23 191.69 345.19 197.96 351.44 196.11
  Q 352.83 195.70 354.82 196.35
  A 1.40 1.38 -48.0 0 0 355.86 196.29
  Q 363.44 192.82 367.95 186.68
  Q 369.06 185.16 368.66 183.32
  Q 367.78 179.33 363.70 183.43
  Q 362.96 184.17 362.10 184.75
  Q 359.39 186.59 359.05 183.38
  C 358.83 181.40 359.73 178.78 360.21 176.75
  Q 364.03 167.06 366.71 157.00
  C 368.46 152.06 373.32 134.87 365.82 134.49
  C 359.35 134.16 346.92 148.53 343.29 153.50
  L 327.68 173.70
  Q 326.78 174.87 327.16 173.45
  L 328.71 167.75
  L 334.46 148.25
  Q 336.31 141.86 338.25 135.50
  C 338.95 133.22 336.85 126.22 335.68 124.05
  Q 334.37 121.63 331.87 122.77
  C 324.42 126.15 314.46 138.98 308.46 146.50
  Z
  M 411.49 146.42
  C 415.83 139.58 422.94 122.34 405.14 126.58
  A 0.78 0.78 -17.3 0 0 404.59 127.62
  Q 408.30 137.22 409.89 146.10
  Q 410.28 148.33 411.49 146.42
  Z
  M 401.02 129.05
  C 396.48 132.54 393.38 136.40 389.61 140.15
  A 1.02 0.92 65.8 0 0 389.34 140.99
  L 390.89 153.07
  A 0.55 0.52 84.2 0 0 391.44 153.55
  L 405.88 152.61
  Q 408.07 152.47 407.66 150.25
  Q 405.83 140.40 401.81 129.28
  A 0.51 0.51 61.1 0 0 401.02 129.05
  Z
  M 426.78 155.69
  Q 422.11 162.52 416.80 168.08
  Q 414.61 170.37 417.53 169.15
  Q 436.05 161.41 456.03 155.00
  Q 456.77 154.76 455.99 154.74
  Q 441.74 154.42 427.59 155.23
  A 1.05 1.05 15.3 0 0 426.78 155.69
  Z
  M 312.73 158.11
  Q 312.13 159.34 313.44 158.94
  Q 314.85 158.51 315.00 156.75
  Q 315.10 155.51 314.12 156.27
  Q 313.34 156.87 312.73 158.11
  Z
  M 351.25 199.33
  Q 347.39 200.76 344.56 198.44
  C 335.34 190.87 343.31 175.46 346.79 167.55
  Q 347.81 165.23 346.45 167.16
  C 339.50 177.03 332.29 188.54 322.21 195.53
  C 315.87 197.95 312.06 194.49 308.72 189.75
  A 2.40 2.18 34.6 0 1 308.31 188.01
  L 313.08 162.55
  A 0.53 0.48 -79.5 0 0 312.71 161.95
  Q 310.06 161.47 308.31 163.81
  Q 288.89 189.86 271.51 217.72
  A 2.60 2.57 -82.2 0 1 270.05 218.84
  Q 262.56 221.10 255.50 221.21
  C 255.02 214.16 254.16 209.11 258.82 205.26
  Q 260.96 203.49 261.76 202.33
  Q 275.32 182.76 290.11 164.00
  Q 290.33 163.72 289.98 163.75
  Q 268.02 165.56 246.18 168.62
  A 0.58 0.55 -4.7 0 0 245.68 169.18
  L 245.99 178.61
  A 0.73 0.69 8.8 0 0 246.48 179.24
  C 256.28 182.56 258.26 194.44 248.22 198.87
  A 1.27 1.26 77.5 0 0 247.47 200.06
  Q 247.79 213.39 250.89 224.96
  C 251.00 228.10 252.03 227.05 253.68 226.67
  Q 284.99 219.60 316.34 212.74
  L 336.50 208.29
  L 375.48 199.91
  A 0.37 0.37 67.4 0 0 375.71 199.34
  C 370.06 190.98 375.47 184.81 381.44 179.19
  Q 391.74 169.49 403.17 156.62
  Q 403.51 156.24 403.00 156.27
  L 371.96 157.91
  Q 370.02 158.01 369.52 159.92
  Q 367.38 168.00 363.91 176.85
  Q 362.82 179.65 364.92 178.30
  C 367.10 176.90 370.07 178.43 371.19 180.31
  C 375.04 186.78 366.05 194.42 361.06 197.56
  Q 356.30 200.56 351.25 199.33
  Z
  M 486.75 165.04
  Q 456.31 176.65 426.49 189.74
  A 0.40 0.29 -12.1 0 0 426.25 190.01
  Q 426.23 190.21 426.49 190.17
  Q 459.80 185.09 493.25 180.96
  L 513.75 178.54
  Q 541.51 175.88 569.12 171.95
  C 571.16 171.66 575.47 170.51 571.67 167.73
  Q 569.86 166.41 567.68 165.87
  Q 546.60 160.69 525.25 158.54
  C 519.80 157.69 510.21 155.72 505.07 157.66
  Q 495.83 161.15 486.75 165.04
  Z
  M 390.50 227.96
  C 350.99 229.45 313.77 236.33 277.98 251.26
  Q 276.06 252.06 278.15 252.06
  L 469.63 252.00
  Q 471.23 252.00 469.95 251.04
  C 454.76 239.63 437.44 230.68 418.50 227.96
  L 416.46 205.75
  Q 416.94 203.21 415.79 201.00
  L 415.36 196.75
  A 1.30 1.26 -16.1 0 0 413.51 195.77
  Q 402.37 201.16 392.27 204.89
  A 0.77 0.77 -9.0 0 0 391.78 205.56
  L 390.50 227.96
  Z"
/>
<path fill="#16a252" d="
  M 355.75 61.79
  Q 351.41 61.07 347.25 62.54
  Q 340.78 61.00 335.75 65.29
  L 328.41 68.21
  Q 323.62 69.32 321.10 64.85
  Q 319.48 61.97 319.75 65.23
  L 320.44 73.51
  A 1.59 1.32 -36.0 0 1 320.21 74.41
  L 316.08 81.25
  A 0.52 0.52 -61.6 0 1 315.36 81.43
  L 310.64 78.50
  Q 310.17 78.20 310.20 78.77
  Q 310.44 84.45 312.69 88.43
  C 313.74 90.28 313.38 91.08 312.77 92.97
  A 0.43 0.41 26.2 0 1 312.14 93.17
  L 309.30 91.34
  Q 308.34 90.72 308.43 91.88
  Q 308.88 97.50 311.65 101.41
  A 1.66 1.16 36.7 0 1 311.95 102.32
  L 311.54 110.43
  A 0.67 0.63 15.7 0 1 310.57 110.94
  C 291.36 101.23 293.56 75.70 304.19 60.68
  Q 305.16 59.32 303.56 59.81
  Q 298.22 61.44 293.64 64.95
  A 0.66 0.66 44.2 0 1 292.85 64.96
  L 287.21 60.86
  Q 286.81 60.56 286.75 61.06
  Q 286.31 65.35 287.63 69.95
  A 2.34 2.18 52.5 0 1 287.47 71.62
  L 283.05 80.08
  A 0.92 0.87 33.7 0 1 281.68 80.31
  L 277.30 76.68
  Q 276.28 75.83 276.32 77.19
  Q 276.50 82.69 279.26 87.81
  A 1.37 1.26 -54.0 0 1 279.37 88.74
  L 277.46 96.64
  Q 277.12 98.05 276.23 96.93
  Q 262.50 79.60 270.06 58.81
  Q 275.62 43.54 288.51 34.07
  A 2.69 2.65 75.3 0 0 289.58 32.21
  C 290.28 26.06 292.17 22.71 297.93 19.97
  Q 311.54 13.49 324.33 23.20
  Q 325.50 24.09 325.50 22.62
  C 325.50 20.18 325.31 17.39 325.82 15.15
  C 328.12 5.06 339.90 3.01 348.66 3.25
  C 354.75 3.42 364.00 3.69 365.83 11.08
  A 0.68 0.67 84.7 0 0 366.44 11.59
  C 376.00 12.10 383.78 13.31 388.63 22.50
  C 389.83 24.76 389.42 26.87 392.57 28.17
  C 406.46 33.92 419.09 44.99 417.05 61.19
  C 416.79 63.33 416.57 66.30 415.74 68.78
  Q 415.47 69.58 414.95 68.90
  L 408.63 60.57
  A 1.62 1.34 30.2 0 1 408.31 59.70
  Q 408.27 55.75 407.00 51.99
  Q 406.61 50.84 405.78 51.82
  L 402.54 55.62
  A 0.83 0.74 36.1 0 1 401.51 55.72
  L 392.89 50.21
  Q 392.35 49.87 392.49 50.50
  C 395.24 63.53 398.60 76.82 391.68 88.95
  Q 390.89 90.34 390.69 88.76
  C 390.44 86.83 389.51 85.28 389.64 83.28
  Q 389.90 79.37 390.51 75.46
  Q 390.73 74.01 389.62 75.01
  L 386.08 78.19
  A 0.69 0.65 43.5 0 1 385.20 78.19
  Q 382.79 76.15 383.38 74.27
  C 384.21 71.61 384.33 68.77 384.26 66.09
  Q 384.23 64.84 383.31 65.69
  Q 382.01 66.91 380.58 67.89
  C 379.13 68.90 377.56 71.80 375.91 68.76
  Q 375.71 68.40 375.28 68.03
  Q 374.16 67.09 374.25 65.00
  Q 374.37 62.06 373.08 57.89
  Q 372.81 57.04 372.25 57.76
  L 368.40 62.67
  A 1.36 1.29 28.6 0 1 366.89 63.07
  Q 361.00 60.94 355.75 61.79
  Z"
/>
<path fill="#f7ed18" d="
  M 243.21 117.00
  Q 241.72 119.29 240.47 116.96
  A 0.92 0.84 76.7 0 0 239.75 116.47
  C 236.81 116.27 234.70 116.02 231.43 116.30
  C 228.57 116.54 225.69 115.69 223.18 115.82
  Q 218.65 116.06 214.21 117.07
  L 215.21 112.37
  Q 215.56 110.70 214.45 111.92
  L 205.25 122.04
  Q 204.18 120.36 206.05 118.27
  Q 207.30 116.86 205.42 116.71
  C 197.79 116.06 189.37 117.24 181.54 116.16
  C 178.82 115.78 176.15 119.11 174.83 121.33
  Q 173.43 123.09 171.71 122.25
  Q 197.95 92.73 224.38 63.37
  C 229.80 57.35 237.07 48.92 244.29 45.20
  Q 245.94 44.34 247.67 45.05
  C 254.73 47.97 253.86 56.98 252.18 63.48
  Q 245.41 89.86 243.21 117.00
  Z"
/>
<path fill="#a28f48" d="
  M 355.75 61.79
  Q 378.35 80.93 392.27 107.06
  A 0.74 0.73 -38.5 0 1 392.17 107.88
  Q 387.57 113.31 384.22 120.14
  Q 383.55 121.49 382.92 120.12
  Q 369.99 92.04 351.75 68.54
  Q 350.22 64.97 347.25 62.54
  Q 351.41 61.07 355.75 61.79
  Z"
/>
<path fill="#ec1658" d="
  M 347.25 62.54
  Q 350.22 64.97 351.75 68.54
  C 355.10 78.30 351.20 93.08 337.79 89.00
  C 326.42 84.03 327.85 72.53 335.75 65.29
  Q 340.78 61.00 347.25 62.54
  Z"
/>
<path fill="#040504" d="
  M 335.75 65.29
  C 327.85 72.53 326.42 84.03 337.79 89.00
  Q 337.23 90.75 335.25 91.04
  Q 334.63 90.95 334.21 90.50
  Q 333.31 88.73 331.98 87.26
  Q 325.30 79.87 329.57 70.81
  C 330.08 69.72 329.73 69.20 328.48 69.39
  A 0.60 0.47 -9.3 0 1 327.82 69.03
  Q 327.72 68.45 328.41 68.21
  L 335.75 65.29
  Z"
/>
<path fill="#040504" d="
  M 430.00 100.54
  Q 436.16 103.60 439.23 109.89
  C 436.24 108.80 441.16 117.69 437.29 115.50
  Q 435.76 106.39 427.25 102.96
  C 426.87 100.56 429.60 102.96 430.00 100.54
  Z"
/>
<path fill="#f7ed18" d="
  M 427.25 102.96
  Q 435.76 106.39 437.29 115.50
  L 437.46 119.25
  Q 436.78 117.60 435.41 116.54
  A 1.68 1.37 -21.1 0 0 434.49 116.24
  Q 418.44 115.86 402.39 116.42
  C 399.59 116.52 396.76 115.80 393.93 115.49
  A 0.95 0.94 -65.6 0 0 393.11 115.80
  Q 390.48 118.70 389.31 121.06
  Q 388.48 122.74 387.21 121.75
  C 395.73 105.39 408.44 97.56 427.25 102.96
  Z"
/>
<path fill="#1f1b1d" d="
  M 214.21 117.07
  L 213.00 123.21
  Q 210.40 135.49 209.29 148.00
  L 207.79 161.25
  L 206.74 180.46
  Q 192.86 181.10 179.00 179.54
  Q 168.51 178.36 158.02 178.27
  L 168.50 165.04
  L 176.75 155.04
  L 189.00 140.54
  L 203.92 123.58
  L 205.25 122.04
  L 214.45 111.92
  Q 215.56 110.70 215.21 112.37
  L 214.21 117.07
  Z
  M 169.67 175.44
  Q 174.84 176.18 179.97 175.31
  Q 191.34 173.40 203.22 171.68
  A 0.84 0.83 -2.9 0 0 203.94 170.89
  Q 204.99 147.01 209.50 123.48
  Q 209.79 122.00 208.78 123.13
  Q 186.84 147.69 165.63 174.07
  Q 164.65 175.29 166.21 175.25
  Q 167.97 175.20 169.67 175.44
  Z
  M 201.82 175.00
  Q 196.14 175.93 190.45 176.72
  C 190.27 176.75 188.35 177.32 190.25 177.36
  Q 196.25 177.50 202.72 177.50
  A 0.69 0.69 -83.7 0 0 203.39 176.96
  C 203.95 174.56 203.47 174.73 201.82 175.00
  Z"
/>
<path fill="#f6db1c" d="
  M 437.46 119.25
  Q 437.94 127.00 435.21 134.25
  C 430.77 135.29 439.47 128.15 432.26 127.63
  Q 430.89 127.53 425.50 127.75
  Q 421.58 127.91 419.88 130.26
  C 416.60 116.15 400.27 123.58 394.00 130.54
  C 390.42 131.60 396.83 125.72 396.92 125.63
  A 0.59 0.53 -46.7 0 0 396.94 124.87
  C 395.67 123.59 391.15 124.63 388.92 124.07
  A 1.23 0.99 31.1 0 0 388.02 124.19
  C 386.24 125.37 384.51 129.63 382.21 128.00
  L 387.21 121.75
  Q 388.48 122.74 389.31 121.06
  Q 390.48 118.70 393.11 115.80
  A 0.95 0.94 -65.6 0 1 393.93 115.49
  C 396.76 115.80 399.59 116.52 402.39 116.42
  Q 418.44 115.86 434.49 116.24
  A 1.68 1.37 -21.1 0 1 435.41 116.54
  Q 436.78 117.60 437.46 119.25
  Z"
/>
<path fill="#f6db1c" d="
  M 205.25 122.04
  L 203.92 123.58
  Q 200.92 121.10 197.11 121.27
  C 191.29 121.52 185.41 121.33 179.57 121.69
  A 1.61 1.59 66.3 0 1 178.33 121.20
  Q 176.76 119.57 174.83 121.33
  C 176.15 119.11 178.82 115.78 181.54 116.16
  C 189.37 117.24 197.79 116.06 205.42 116.71
  Q 207.30 116.86 206.05 118.27
  Q 204.18 120.36 205.25 122.04
  Z"
/>
<path fill="#f6db1c" d="
  M 243.21 117.00
  L 242.80 122.86
  Q 237.93 121.70 233.05 121.98
  C 229.09 122.20 225.59 121.78 221.80 121.92
  C 220.16 121.98 217.63 121.56 215.48 122.32
  A 1.16 0.92 -85.2 0 0 214.86 122.98
  Q 214.33 124.36 213.00 123.21
  L 214.21 117.07
  Q 218.65 116.06 223.18 115.82
  C 225.69 115.69 228.57 116.54 231.43 116.30
  C 234.70 116.02 236.81 116.27 239.75 116.47
  A 0.92 0.84 76.7 0 1 240.47 116.96
  Q 241.72 119.29 243.21 117.00
  Z"
/>
<path fill="#f5ca20" d="
  M 203.92 123.58
  L 189.00 140.54
  Q 188.56 140.59 188.31 140.37
  A 0.71 0.46 -51.0 0 1 188.39 139.56
  L 190.90 136.34
  Q 193.15 133.45 189.34 133.71
  Q 177.25 134.54 165.48 133.73
  Q 163.08 133.57 161.90 135.67
  Q 160.34 138.47 157.00 138.96
  L 171.71 122.25
  Q 173.43 123.09 174.83 121.33
  Q 176.76 119.57 178.33 121.20
  A 1.61 1.59 66.3 0 0 179.57 121.69
  C 185.41 121.33 191.29 121.52 197.11 121.27
  Q 200.92 121.10 203.92 123.58
  Z"
/>
<path fill="#f5bd23" d="
  M 242.80 122.86
  L 242.49 145.73
  Q 227.13 146.78 211.81 145.84
  A 0.45 0.45 0.6 0 0 211.34 146.30
  Q 211.36 148.64 209.29 148.00
  Q 210.40 135.49 213.00 123.21
  Q 214.33 124.36 214.86 122.98
  A 1.16 0.92 -85.2 0 1 215.48 122.32
  C 217.63 121.56 220.16 121.98 221.80 121.92
  C 225.59 121.78 229.09 122.20 233.05 121.98
  Q 237.93 121.70 242.80 122.86
  Z"
/>
<path fill="#f4b924" d="
  M 334.46 148.25
  Q 332.59 148.85 332.85 146.81
  A 0.42 0.41 -87.6 0 0 332.43 146.34
  L 323.50 146.73
  A 1.30 1.01 14.0 0 0 322.65 147.11
  Q 321.72 148.20 321.91 149.76
  A 1.46 0.91 -41.8 0 1 321.66 150.62
  L 321.01 151.61
  Q 320.91 151.77 320.84 152.57
  Q 320.76 153.58 319.29 153.25
  L 322.79 141.54
  Q 322.94 141.03 322.60 141.43
  L 310.94 155.04
  Q 311.28 151.35 314.07 148.76
  A 0.54 0.51 -41.4 0 0 314.14 148.04
  Q 312.53 146.08 310.10 147.12
  A 0.55 0.53 41.0 0 1 309.75 147.14
  Q 308.87 146.91 308.46 146.50
  C 314.46 138.98 324.42 126.15 331.87 122.77
  Q 334.37 121.63 335.68 124.05
  C 336.85 126.22 338.95 133.22 338.25 135.50
  Q 336.31 141.86 334.46 148.25
  Z"
/>
<path fill="#f5ca20" d="
  M 394.00 130.54
  C 391.16 133.88 385.70 141.80 380.68 136.85
  Q 376.49 132.72 382.21 128.00
  C 384.51 129.63 386.24 125.37 388.02 124.19
  A 1.23 0.99 31.1 0 1 388.92 124.07
  C 391.15 124.63 395.67 123.59 396.94 124.87
  A 0.59 0.53 -46.7 0 1 396.92 125.63
  C 396.83 125.72 390.42 131.60 394.00 130.54
  Z"
/>
<path fill="#f4b924" d="
  M 435.21 134.25
  Q 432.56 141.10 428.25 147.04
  Q 422.94 143.36 416.44 144.95
  Q 419.77 137.77 419.88 130.26
  Q 421.58 127.91 425.50 127.75
  Q 430.89 127.53 432.26 127.63
  C 439.47 128.15 430.77 135.29 435.21 134.25
  Z"
/>
<path fill="#a28f48" d="
  M 389.61 140.15
  C 393.38 136.40 396.48 132.54 401.02 129.05
  A 0.51 0.51 61.1 0 1 401.81 129.28
  Q 405.83 140.40 407.66 150.25
  Q 408.07 152.47 405.88 152.61
  L 391.44 153.55
  A 0.55 0.52 84.2 0 1 390.89 153.07
  L 389.34 140.99
  A 1.02 0.92 65.8 0 1 389.61 140.15
  Z"
/>
<path fill="#f3ac27" d="
  M 189.00 140.54
  L 176.75 155.04
  C 173.96 154.88 177.17 152.90 177.41 151.56
  A 0.49 0.43 6.1 0 0 176.94 151.04
  C 172.88 150.92 168.87 151.51 165.02 151.38
  Q 158.85 151.15 152.68 151.23
  C 149.89 151.27 147.85 150.26 146.23 153.52
  Q 145.17 155.66 144.00 153.96
  L 157.00 138.96
  Q 160.34 138.47 161.90 135.67
  Q 163.08 133.57 165.48 133.73
  Q 177.25 134.54 189.34 133.71
  Q 193.15 133.45 190.90 136.34
  L 188.39 139.56
  A 0.71 0.46 -51.0 0 0 188.31 140.37
  Q 188.56 140.59 189.00 140.54
  Z"
/>
<path fill="#f3a729" d="
  M 366.71 157.00
  L 365.79 157.03
  A 0.59 0.45 -6.7 0 1 365.22 156.69
  C 364.59 154.10 359.61 154.82 357.51 155.10
  A 1.12 1.11 -88.2 0 0 356.55 156.01
  Q 355.93 159.20 353.25 160.46
  L 357.05 149.28
  Q 357.66 147.49 356.45 148.92
  L 348.75 158.04
  C 346.99 156.49 350.81 153.89 351.70 152.41
  C 352.57 150.97 353.47 150.26 354.37 148.98
  A 0.83 0.83 51.6 0 0 354.46 148.19
  C 351.73 141.41 346.22 156.09 343.29 153.50
  C 346.92 148.53 359.35 134.16 365.82 134.49
  C 373.32 134.87 368.46 152.06 366.71 157.00
  Z"
/>
<path fill="#f2912f" d="
  M 428.25 147.04
  Q 420.43 159.91 409.96 170.75
  Q 408.92 170.50 409.37 168.73
  Q 409.68 167.52 408.52 167.98
  Q 404.83 169.44 401.74 167.59
  A 0.87 0.67 40.3 0 0 400.88 167.55
  L 397.60 169.78
  A 0.19 0.15 -45.5 0 1 397.43 169.80
  Q 396.73 169.46 396.71 169.00
  Q 407.76 157.80 416.44 144.95
  Q 422.94 143.36 428.25 147.04
  Z"
/>
<path fill="#f2942e" d="
  M 242.49 145.73
  L 242.21 163.75
  Q 233.53 162.31 226.25 163.25
  Q 223.23 163.64 221.04 162.98
  A 1.26 0.84 -43.4 0 0 220.17 163.13
  Q 219.68 163.42 218.99 163.27
  Q 214.17 162.24 208.84 164.06
  A 0.49 0.44 76.0 0 1 208.25 163.66
  L 207.79 161.25
  L 209.29 148.00
  Q 211.36 148.64 211.34 146.30
  A 0.45 0.45 0.6 0 1 211.81 145.84
  Q 227.13 146.78 242.49 145.73
  Z"
/>
<path fill="#f2942e" d="
  M 334.46 148.25
  L 328.71 167.75
  Q 327.87 168.38 327.16 168.04
  A 0.81 0.46 -76.9 0 1 326.93 167.28
  L 327.29 164.76
  A 0.54 0.49 4.8 0 0 326.76 164.20
  L 320.07 164.04
  A 1.23 0.88 -62.3 0 0 319.25 164.45
  Q 318.35 165.46 318.12 164.31
  Q 318.04 163.88 317.79 164.24
  Q 316.65 165.94 316.46 164.00
  L 319.29 153.25
  Q 320.76 153.58 320.84 152.57
  Q 320.91 151.77 321.01 151.61
  L 321.66 150.62
  A 1.46 0.91 -41.8 0 0 321.91 149.76
  Q 321.72 148.20 322.65 147.11
  A 1.30 1.01 14.0 0 1 323.50 146.73
  L 332.43 146.34
  A 0.42 0.41 -87.6 0 1 332.85 146.81
  Q 332.59 148.85 334.46 148.25
  Z"
/>
<path fill="#f2912f" d="
  M 478.00 164.79
  Q 477.86 163.22 476.73 163.37
  A 1.79 1.10 -25.3 0 1 475.80 163.27
  Q 474.15 162.50 472.25 162.54
  Q 459.97 162.80 447.69 162.64
  Q 446.36 162.63 446.75 161.54
  Q 475.16 151.84 504.74 146.69
  C 506.21 146.43 520.66 144.68 513.81 149.81
  Q 511.23 151.75 505.28 153.99
  C 496.12 157.44 487.10 161.21 478.00 164.79
  Z"
/>
<path fill="#f28931" d="
  M 308.46 146.50
  Q 308.87 146.91 309.75 147.14
  A 0.55 0.53 41.0 0 0 310.10 147.12
  Q 312.53 146.08 314.14 148.04
  A 0.54 0.51 -41.4 0 1 314.07 148.76
  Q 311.28 151.35 310.94 155.04
  L 294.50 176.79
  C 292.18 176.77 294.65 173.47 295.20 173.04
  A 0.57 0.57 -51.0 0 0 295.10 172.08
  Q 293.10 171.09 291.55 171.05
  A 0.78 0.68 -76.0 0 0 290.88 171.52
  Q 289.40 175.00 285.65 175.51
  Q 296.65 160.62 308.46 146.50
  Z"
/>
<path fill="#f06d38" d="
  M 348.75 158.04
  Q 340.01 170.14 331.19 182.19
  C 327.59 187.10 317.14 199.32 311.95 188.20
  A 1.79 1.54 -57.2 0 1 311.82 187.26
  Q 313.51 175.50 316.46 164.00
  Q 316.65 165.94 317.79 164.24
  Q 318.04 163.88 318.12 164.31
  Q 318.35 165.46 319.25 164.45
  A 1.23 0.88 -62.3 0 1 320.07 164.04
  L 326.76 164.20
  A 0.54 0.49 4.8 0 1 327.29 164.76
  L 326.93 167.28
  A 0.81 0.46 -76.9 0 0 327.16 168.04
  Q 327.87 168.38 328.71 167.75
  L 327.16 173.45
  Q 326.78 174.87 327.68 173.70
  L 343.29 153.50
  C 346.22 156.09 351.73 141.41 354.46 148.19
  A 0.83 0.83 51.6 0 1 354.37 148.98
  C 353.47 150.26 352.57 150.97 351.70 152.41
  C 350.81 153.89 346.99 156.49 348.75 158.04
  Z"
/>
<path fill="#f2942e" d="
  M 176.75 155.04
  L 168.50 165.04
  Q 167.99 165.16 167.75 165.00
  A 0.74 0.43 -53.9 0 1 167.84 164.15
  L 172.35 158.06
  Q 172.98 157.20 171.93 157.24
  Q 159.60 157.74 147.44 157.56
  Q 146.13 157.54 144.06 157.16
  A 0.83 0.82 -65.7 0 0 143.26 157.47
  Q 141.11 160.23 137.75 161.21
  L 144.00 153.96
  Q 145.17 155.66 146.23 153.52
  C 147.85 150.26 149.89 151.27 152.68 151.23
  Q 158.85 151.15 165.02 151.38
  C 168.87 151.51 172.88 150.92 176.94 151.04
  A 0.49 0.43 6.1 0 1 177.41 151.56
  C 177.17 152.90 173.96 154.88 176.75 155.04
  Z"
/>
<path fill="#c8dcf0" d="
  M 426.78 155.69
  A 1.05 1.05 15.3 0 1 427.59 155.23
  Q 441.74 154.42 455.99 154.74
  Q 456.77 154.76 456.03 155.00
  Q 436.05 161.41 417.53 169.15
  Q 414.61 170.37 416.80 168.08
  Q 422.11 162.52 426.78 155.69
  Z"
/>
<path fill="#f07c34" d="
  M 366.71 157.00
  Q 364.03 167.06 360.21 176.75
  C 358.85 176.78 359.83 174.42 359.74 173.40
  A 0.50 0.50 1.4 0 0 359.30 172.94
  Q 354.99 172.38 350.74 173.16
  A 1.92 1.07 37.6 0 1 349.80 173.02
  L 348.46 172.50
  L 353.25 160.46
  Q 355.93 159.20 356.55 156.01
  A 1.12 1.11 -88.2 0 1 357.51 155.10
  C 359.61 154.82 364.59 154.10 365.22 156.69
  A 0.59 0.45 -6.7 0 0 365.79 157.03
  L 366.71 157.00
  Z"
/>
<path fill="#b0cbe8" d="
  M 336.50 208.29
  Q 335.58 208.28 335.68 207.54
  A 0.77 0.61 -2.6 0 1 336.31 206.99
  Q 341.70 206.17 346.79 204.18
  A 1.84 1.54 35.6 0 1 347.74 204.11
  Q 351.28 204.77 349.57 201.75
  A 0.33 0.33 -19.1 0 1 349.81 201.27
  Q 351.18 201.01 351.25 199.33
  Q 356.30 200.56 361.06 197.56
  C 366.05 194.42 375.04 186.78 371.19 180.31
  C 370.07 178.43 367.10 176.90 364.92 178.30
  Q 362.82 179.65 363.91 176.85
  Q 367.38 168.00 369.52 159.92
  Q 370.02 158.01 371.96 157.91
  L 403.00 156.27
  Q 403.51 156.24 403.17 156.62
  Q 391.74 169.49 381.44 179.19
  C 375.47 184.81 370.06 190.98 375.71 199.34
  A 0.37 0.37 67.4 0 1 375.48 199.91
  L 336.50 208.29
  Z"
/>
<path fill="#e6eff8" d="
  M 525.25 158.54
  Q 525.96 160.53 527.93 160.58
  Q 528.23 160.59 528.80 160.91
  L 532.89 163.20
  A 1.00 0.84 19.4 0 1 533.41 164.08
  Q 533.22 166.03 533.72 166.46
  A 0.97 0.14 39.0 0 1 534.27 167.06
  Q 535.25 173.79 528.75 174.75
  Q 527.29 174.97 526.58 175.38
  A 1.69 0.82 -43.5 0 1 525.70 175.66
  C 521.20 175.44 517.76 177.07 512.75 177.01
  A 1.55 1.31 23.2 0 0 511.84 177.29
  Q 509.82 178.80 513.75 178.54
  L 493.25 180.96
  L 491.46 179.74
  A 0.77 0.73 -66.9 0 1 491.17 178.96
  Q 492.41 173.31 491.75 167.55
  A 1.55 1.25 -75.5 0 0 491.36 166.69
  Q 490.08 165.38 488.20 165.52
  C 487.60 165.56 486.71 166.34 486.75 165.04
  Q 495.83 161.15 505.07 157.66
  C 510.21 155.72 519.80 157.69 525.25 158.54
  Z"
/>
<path fill="#f07c34" d="
  M 168.50 165.04
  L 158.02 178.27
  L 157.67 175.81
  A 0.56 0.47 84.7 0 0 157.18 175.33
  Q 150.73 175.58 147.94 174.94
  Q 145.53 174.38 143.70 174.69
  C 139.05 175.46 134.50 175.22 128.98 174.78
  A 1.68 1.68 18.1 0 0 127.40 175.58
  Q 126.13 177.69 126.30 175.28
  L 137.75 161.21
  Q 141.11 160.23 143.26 157.47
  A 0.83 0.82 -65.7 0 1 144.06 157.16
  Q 146.13 157.54 147.44 157.56
  Q 159.60 157.74 171.93 157.24
  Q 172.98 157.20 172.35 158.06
  L 167.84 164.15
  A 0.74 0.43 -53.9 0 0 167.75 165.00
  Q 167.99 165.16 168.50 165.04
  Z"
/>
<path fill="#f4f9fc" d="
  M 525.25 158.54
  Q 546.60 160.69 567.68 165.87
  Q 569.86 166.41 571.67 167.73
  C 575.47 170.51 571.16 171.66 569.12 171.95
  Q 541.51 175.88 513.75 178.54
  Q 509.82 178.80 511.84 177.29
  A 1.55 1.31 23.2 0 1 512.75 177.01
  C 517.76 177.07 521.20 175.44 525.70 175.66
  A 1.69 0.82 -43.5 0 0 526.58 175.38
  Q 527.29 174.97 528.75 174.75
  Q 535.25 173.79 534.27 167.06
  A 0.97 0.14 39.0 0 0 533.72 166.46
  Q 533.22 166.03 533.41 164.08
  A 1.00 0.84 19.4 0 0 532.89 163.20
  L 528.80 160.91
  Q 528.23 160.59 527.93 160.58
  Q 525.96 160.53 525.25 158.54
  Z"
/>
<path fill="#ef7137" d="
  M 207.79 161.25
  L 208.25 163.66
  A 0.49 0.44 76.0 0 0 208.84 164.06
  Q 214.17 162.24 218.99 163.27
  Q 219.68 163.42 220.17 163.13
  A 1.26 0.84 -43.4 0 1 221.04 162.98
  Q 223.23 163.64 226.25 163.25
  Q 233.53 162.31 242.21 163.75
  L 242.63 181.40
  Q 240.57 179.86 238.94 179.81
  Q 226.17 179.42 206.74 180.46
  L 207.79 161.25
  Z"
/>
<path fill="#f07835" d="
  M 446.75 161.54
  Q 446.36 162.63 447.69 162.64
  Q 459.97 162.80 472.25 162.54
  Q 474.15 162.50 475.80 163.27
  A 1.79 1.10 -25.3 0 0 476.73 163.37
  Q 477.86 163.22 478.00 164.79
  L 451.04 175.50
  L 449.34 174.12
  A 1.63 0.83 52.1 0 0 448.49 173.72
  Q 436.22 172.99 423.92 173.21
  C 420.80 173.26 418.23 173.86 415.48 174.94
  Q 413.96 175.53 414.46 174.00
  Q 430.42 167.30 446.75 161.54
  Z"
/>
<path fill="#90b6dd" d="
  M 322.21 195.53
  Q 325.55 195.32 327.80 193.48
  Q 329.51 192.08 329.00 194.23
  C 328.01 198.43 330.18 201.92 328.74 205.97
  A 1.31 1.23 44.9 0 0 328.77 206.88
  Q 329.40 208.44 327.67 208.16
  A 1.60 1.31 30.7 0 0 326.74 208.30
  C 323.47 210.05 320.22 209.99 316.78 211.37
  A 0.82 0.64 82.9 0 0 316.37 212.06
  L 316.34 212.74
  Q 284.99 219.60 253.68 226.67
  C 252.03 227.05 251.00 228.10 250.89 224.96
  Q 253.07 224.24 255.26 224.75
  Q 256.47 225.03 255.71 224.05
  Q 254.74 222.80 255.50 221.21
  Q 262.56 221.10 270.05 218.84
  A 2.60 2.57 -82.2 0 0 271.51 217.72
  Q 288.89 189.86 308.31 163.81
  Q 310.06 161.47 312.71 161.95
  A 0.53 0.48 -79.5 0 1 313.08 162.55
  L 308.31 188.01
  A 2.40 2.18 34.6 0 0 308.72 189.75
  C 312.06 194.49 315.87 197.95 322.21 195.53
  Z"
/>
<path fill="#81adda" d="
  M 255.50 221.21
  Q 254.74 222.80 255.71 224.05
  Q 256.47 225.03 255.26 224.75
  Q 253.07 224.24 250.89 224.96
  Q 247.79 213.39 247.47 200.06
  A 1.27 1.26 77.5 0 1 248.22 198.87
  C 258.26 194.44 256.28 182.56 246.48 179.24
  A 0.73 0.69 8.8 0 1 245.99 178.61
  L 245.68 169.18
  A 0.58 0.55 -4.7 0 1 246.18 168.62
  Q 268.02 165.56 289.98 163.75
  Q 290.33 163.72 290.11 164.00
  Q 275.32 182.76 261.76 202.33
  Q 260.96 203.49 258.82 205.26
  C 254.16 209.11 255.02 214.16 255.50 221.21
  Z"
/>
<path fill="#d7e4f3" d="
  M 486.75 165.04
  C 486.71 166.34 487.60 165.56 488.20 165.52
  Q 490.08 165.38 491.36 166.69
  A 1.55 1.25 -75.5 0 1 491.75 167.55
  Q 492.41 173.31 491.17 178.96
  A 0.77 0.73 -66.9 0 0 491.46 179.74
  L 493.25 180.96
  Q 459.80 185.09 426.49 190.17
  Q 426.23 190.21 426.25 190.01
  A 0.40 0.29 -12.1 0 1 426.49 189.74
  Q 456.31 176.65 486.75 165.04
  Z"
/>
<path fill="#a0c0e2" d="
  M 351.25 199.33
  Q 351.18 201.01 349.81 201.27
  A 0.33 0.33 -19.1 0 0 349.57 201.75
  Q 351.28 204.77 347.74 204.11
  A 1.84 1.54 35.6 0 0 346.79 204.18
  Q 341.70 206.17 336.31 206.99
  A 0.77 0.61 -2.6 0 0 335.68 207.54
  Q 335.58 208.28 336.50 208.29
  L 316.34 212.74
  L 316.37 212.06
  A 0.82 0.64 82.9 0 1 316.78 211.37
  C 320.22 209.99 323.47 210.05 326.74 208.30
  A 1.60 1.31 30.7 0 1 327.67 208.16
  Q 329.40 208.44 328.77 206.88
  A 1.31 1.23 44.9 0 1 328.74 205.97
  C 330.18 201.92 328.01 198.43 329.00 194.23
  Q 329.51 192.08 327.80 193.48
  Q 325.55 195.32 322.21 195.53
  C 332.29 188.54 339.50 177.03 346.45 167.16
  Q 347.81 165.23 346.79 167.55
  C 343.31 175.46 335.34 190.87 344.56 198.44
  Q 347.39 200.76 351.25 199.33
  Z"
/>
<path fill="#ef623a" d="
  M 409.96 170.75
  L 402.95 178.05
  A 0.68 0.40 -36.4 0 0 402.74 178.54
  Q 402.79 178.82 403.17 178.64
  Q 408.73 176.11 414.46 174.00
  Q 413.96 175.53 415.48 174.94
  C 418.23 173.86 420.80 173.26 423.92 173.21
  Q 436.22 172.99 448.49 173.72
  A 1.63 0.83 52.1 0 1 449.34 174.12
  L 451.04 175.50
  L 421.50 188.29
  Q 420.78 188.45 420.50 188.19
  A 0.58 0.33 -48.8 0 1 420.63 187.53
  C 421.63 186.38 412.15 186.48 411.56 186.51
  C 403.10 187.01 395.95 186.83 388.01 186.76
  C 385.43 186.74 382.61 184.76 380.25 187.75
  Q 379.07 189.25 377.99 188.08
  Q 386.89 178.06 396.71 169.00
  Q 396.73 169.46 397.43 169.80
  A 0.19 0.15 -45.5 0 0 397.60 169.78
  L 400.88 167.55
  A 0.87 0.67 40.3 0 1 401.74 167.59
  Q 404.83 169.44 408.52 167.98
  Q 409.68 167.52 409.37 168.73
  Q 408.92 170.50 409.96 170.75
  Z"
/>
<path fill="#ef5d3b" d="
  M 294.50 176.79
  L 283.75 192.54
  L 282.14 192.84
  Q 281.63 192.94 281.89 192.45
  L 282.77 190.79
  A 0.40 0.40 16.3 0 0 282.45 190.21
  L 277.82 189.80
  A 1.40 1.04 -56.2 0 0 276.92 190.12
  C 276.12 190.79 272.90 196.69 272.71 192.75
  L 285.65 175.51
  Q 289.40 175.00 290.88 171.52
  A 0.78 0.68 -76.0 0 1 291.55 171.05
  Q 293.10 171.09 295.10 172.08
  A 0.57 0.57 -51.0 0 1 295.20 173.04
  C 294.65 173.47 292.18 176.77 294.50 176.79
  Z"
/>
<path fill="#ee553e" d="
  M 360.21 176.75
  C 359.73 178.78 358.83 181.40 359.05 183.38
  Q 359.39 186.59 362.10 184.75
  Q 362.96 184.17 363.70 183.43
  Q 367.78 179.33 368.66 183.32
  Q 369.06 185.16 367.95 186.68
  Q 363.44 192.82 355.86 196.29
  A 1.40 1.38 -48.0 0 1 354.82 196.35
  Q 352.83 195.70 351.44 196.11
  C 345.19 197.96 343.23 191.69 343.75 186.75
  Q 344.41 180.54 348.46 172.50
  L 349.80 173.02
  A 1.92 1.07 37.6 0 0 350.74 173.16
  Q 354.99 172.38 359.30 172.94
  A 0.50 0.50 1.4 0 1 359.74 173.40
  C 359.83 174.42 358.85 176.78 360.21 176.75
  Z"
/>
<path fill="#ef623a" d="
  M 158.02 178.27
  Q 168.51 178.36 179.00 179.54
  C 180.51 182.47 168.21 180.19 167.31 180.33
  Q 166.75 180.42 167.31 180.52
  Q 169.53 180.90 165.26 180.98
  Q 164.75 180.99 164.26 181.12
  C 158.48 182.63 152.92 180.76 147.00 181.44
  Q 146.65 181.48 146.03 181.34
  Q 145.30 181.17 144.00 181.25
  C 135.84 181.74 125.96 180.99 117.66 181.14
  Q 106.05 181.36 94.43 181.32
  C 92.09 181.31 90.71 180.55 88.77 182.52
  Q 86.71 184.63 87.50 181.79
  C 94.36 173.78 105.27 174.66 114.50 176.25
  Q 121.08 177.39 126.30 175.28
  Q 126.13 177.69 127.40 175.58
  A 1.68 1.68 18.1 0 1 128.98 174.78
  C 134.50 175.22 139.05 175.46 143.70 174.69
  Q 145.53 174.38 147.94 174.94
  Q 150.73 175.58 157.18 175.33
  A 0.56 0.47 84.7 0 1 157.67 175.81
  L 158.02 178.27
  Z"
/>
<path fill="#699cd2" d="
  M 201.82 175.00
  C 203.47 174.73 203.95 174.56 203.39 176.96
  A 0.69 0.69 -83.7 0 1 202.72 177.50
  Q 196.25 177.50 190.25 177.36
  C 188.35 177.32 190.27 176.75 190.45 176.72
  Q 196.14 175.93 201.82 175.00
  Z"
/>
<path fill="#ee583d" d="
  M 179.00 179.54
  Q 192.86 181.10 206.74 180.46
  Q 226.17 179.42 238.94 179.81
  Q 240.57 179.86 242.63 181.40
  Q 248.05 182.67 250.96 187.25
  L 247.14 186.26
  A 1.44 0.84 28.3 0 0 246.25 186.29
  C 242.08 188.42 229.44 187.35 224.75 187.13
  Q 216.85 186.77 210.85 186.98
  C 195.13 187.53 179.49 187.02 163.77 186.98
  Q 156.98 186.97 149.21 186.75
  Q 148.62 186.73 148.03 186.68
  C 138.58 185.85 129.25 187.18 119.86 187.16
  C 107.24 187.14 97.52 187.42 86.38 187.03
  C 83.12 186.92 81.89 186.38 79.06 188.81
  Q 78.31 189.46 77.25 188.71
  L 87.50 181.79
  Q 86.71 184.63 88.77 182.52
  C 90.71 180.55 92.09 181.31 94.43 181.32
  Q 106.05 181.36 117.66 181.14
  C 125.96 180.99 135.84 181.74 144.00 181.25
  Q 145.30 181.17 146.03 181.34
  Q 146.65 181.48 147.00 181.44
  C 152.92 180.76 158.48 182.63 164.26 181.12
  Q 164.75 180.99 165.26 180.98
  Q 169.53 180.90 167.31 180.52
  Q 166.75 180.42 167.31 180.33
  C 168.21 180.19 180.51 182.47 179.00 179.54
  Z"
/>
<path fill="#ec4841" d="
  M 250.96 187.25
  C 252.93 191.87 248.72 195.78 244.55 196.71
  A 0.90 0.81 -0.2 0 0 243.90 197.30
  Q 243.45 198.87 243.96 200.50
  L 243.71 201.28
  Q 243.53 201.82 243.19 201.37
  Q 241.96 199.78 241.53 197.80
  A 0.58 0.55 81.1 0 0 240.94 197.35
  C 231.36 198.02 222.87 196.57 214.40 197.58
  C 213.26 197.71 211.72 197.32 210.73 198.52
  A 0.34 0.33 -42.3 0 1 210.19 198.50
  Q 209.36 197.30 207.75 197.54
  L 195.69 198.34
  Q 194.43 198.68 194.76 197.54
  A 0.34 0.33 -83.1 0 0 194.43 197.10
  C 187.38 197.64 179.59 196.74 173.53 196.85
  Q 149.79 197.25 126.05 197.07
  A 1.10 0.59 -59.5 0 0 125.33 197.51
  Q 125.01 197.90 124.44 197.56
  Q 111.04 198.34 107.50 197.75
  Q 99.33 196.38 91.12 197.02
  Q 88.68 197.21 85.29 196.83
  Q 81.69 196.42 78.06 196.98
  A 1.00 0.78 -78.7 0 0 77.41 197.54
  Q 77.20 198.03 76.75 198.33
  A 0.33 0.32 -42.5 0 0 76.72 198.85
  Q 77.94 199.87 76.40 201.43
  Q 69.83 194.04 77.25 188.71
  Q 78.31 189.46 79.06 188.81
  C 81.89 186.38 83.12 186.92 86.38 187.03
  C 97.52 187.42 107.24 187.14 119.86 187.16
  C 129.25 187.18 138.58 185.85 148.03 186.68
  Q 148.62 186.73 149.21 186.75
  Q 156.98 186.97 163.77 186.98
  C 179.49 187.02 195.13 187.53 210.85 186.98
  Q 216.85 186.77 224.75 187.13
  C 229.44 187.35 242.08 188.42 246.25 186.29
  A 1.44 0.84 28.3 0 1 247.14 186.26
  L 250.96 187.25
  Z"
/>
<path fill="#ec4841" d="
  M 421.50 188.29
  Q 405.50 196.32 388.02 202.68
  Q 386.02 203.41 384.03 202.61
  C 378.99 200.58 375.36 193.38 377.99 188.08
  Q 379.07 189.25 380.25 187.75
  C 382.61 184.76 385.43 186.74 388.01 186.76
  C 395.95 186.83 403.10 187.01 411.56 186.51
  C 412.15 186.48 421.63 186.38 420.63 187.53
  A 0.58 0.33 -48.8 0 0 420.50 188.19
  Q 420.78 188.45 421.50 188.29
  Z"
/>
<path fill="#ed3f43" d="
  M 283.75 192.54
  L 276.75 203.04
  Q 275.68 202.62 274.98 201.73
  A 0.80 0.72 62.5 0 0 274.21 201.44
  Q 270.14 202.39 268.21 199.25
  L 272.71 192.75
  C 272.90 196.69 276.12 190.79 276.92 190.12
  A 1.40 1.04 -56.2 0 1 277.82 189.80
  L 282.45 190.21
  A 0.40 0.40 16.3 0 1 282.77 190.79
  L 281.89 192.45
  Q 281.63 192.94 282.14 192.84
  L 283.75 192.54
  Z"
/>
<path fill="#a28f48" d="
  M 415.79 201.00
  Q 415.21 203.52 416.46 205.75
  L 418.50 227.96
  L 390.50 227.96
  L 391.78 205.56
  A 0.77 0.77 -9.0 0 1 392.27 204.89
  Q 402.37 201.16 413.51 195.77
  A 1.30 1.26 -16.1 0 1 415.36 196.75
  L 415.79 201.00
  Z"
/>
<path fill="#eb3645" d="
  M 195.69 198.34
  Q 169.72 206.49 142.00 203.89
  A 1.30 1.24 -67.6 0 0 140.87 204.39
  L 136.75 209.79
  Q 136.45 207.54 134.70 208.27
  Q 134.17 208.50 133.75 208.49
  L 110.50 208.25
  Q 110.06 208.25 109.59 207.97
  Q 108.18 207.15 107.20 208.51
  A 0.56 0.46 -54.4 0 1 106.49 208.70
  L 105.50 207.96
  L 107.75 204.53
  Q 108.06 204.04 107.45 204.14
  Q 91.53 206.47 76.40 201.43
  Q 77.94 199.87 76.72 198.85
  A 0.33 0.32 -42.5 0 1 76.75 198.33
  Q 77.20 198.03 77.41 197.54
  A 1.00 0.78 -78.7 0 1 78.06 196.98
  Q 81.69 196.42 85.29 196.83
  Q 88.68 197.21 91.12 197.02
  Q 99.33 196.38 107.50 197.75
  Q 111.04 198.34 124.44 197.56
  Q 125.01 197.90 125.33 197.51
  A 1.10 0.59 -59.5 0 1 126.05 197.07
  Q 149.79 197.25 173.53 196.85
  C 179.59 196.74 187.38 197.64 194.43 197.10
  A 0.34 0.33 -83.1 0 1 194.76 197.54
  Q 194.43 198.68 195.69 198.34
  Z"
/>
<path fill="#eb2e48" d="
  M 243.96 200.50
  L 245.01 214.24
  Q 245.15 211.89 243.96 210.27
  A 0.28 0.27 -42.7 0 0 243.53 210.26
  Q 242.62 211.28 243.08 210.08
  Q 243.36 209.35 242.67 209.70
  Q 240.60 210.73 238.84 210.51
  C 233.67 209.87 227.99 210.76 223.40 210.54
  Q 218.70 210.32 214.00 210.25
  Q 211.42 210.21 210.29 207.75
  L 207.75 197.54
  Q 209.36 197.30 210.19 198.50
  A 0.34 0.33 -42.3 0 0 210.73 198.52
  C 211.72 197.32 213.26 197.71 214.40 197.58
  C 222.87 196.57 231.36 198.02 240.94 197.35
  A 0.58 0.55 81.1 0 1 241.53 197.80
  Q 241.96 199.78 243.19 201.37
  Q 243.53 201.82 243.71 201.28
  L 243.96 200.50
  Z"
/>
<path fill="#eb244b" d="
  M 268.21 199.25
  Q 270.14 202.39 274.21 201.44
  A 0.80 0.72 62.5 0 1 274.98 201.73
  Q 275.68 202.62 276.75 203.04
  L 268.97 215.27
  A 1.27 1.00 -74.1 0 1 268.21 215.82
  L 259.70 217.36
  A 0.86 0.80 80.4 0 1 258.76 216.64
  C 257.89 211.18 258.56 210.17 262.44 207.00
  C 264.80 205.07 266.06 201.93 268.21 199.25
  Z"
/>
<path fill="#699cd2" d="
  M 210.79 228.25
  Q 210.64 230.27 211.71 232.00
  L 212.71 234.75
  L 213.38 236.14
  L 189.75 242.79
  Q 188.88 240.84 191.25 240.75
  A 1.75 0.94 12.1 0 0 192.18 240.48
  L 195.43 238.13
  A 1.27 1.05 80.4 0 0 195.89 237.33
  C 196.07 236.04 195.72 229.27 195.85 229.04
  Q 196.17 228.47 196.17 228.19
  L 196.33 208.23
  Q 196.35 205.73 193.95 205.77
  C 193.38 205.78 187.36 205.84 188.21 204.00
  Q 196.55 201.70 203.92 201.15
  A 1.89 1.84 82.4 0 1 205.86 202.68
  L 210.79 228.25
  Z"
/>
<path fill="#665334" d="
  M 415.79 201.00
  Q 416.94 203.21 416.46 205.75
  Q 415.21 203.52 415.79 201.00
  Z"
/>
<path fill="#6097cf" d="
  M 188.21 204.00
  C 187.36 205.84 193.38 205.78 193.95 205.77
  Q 196.35 205.73 196.33 208.23
  L 196.17 228.19
  Q 196.17 228.47 195.85 229.04
  C 195.72 229.27 196.07 236.04 195.89 237.33
  A 1.27 1.05 80.4 0 1 195.43 238.13
  L 192.18 240.48
  A 1.75 0.94 12.1 0 1 191.25 240.75
  Q 188.88 240.84 189.75 242.79
  L 164.50 250.54
  C 163.24 249.28 166.51 248.97 167.20 248.15
  A 1.34 1.10 -68.5 0 1 167.99 247.71
  Q 170.98 247.39 171.25 244.85
  C 171.40 243.41 170.30 242.30 171.04 240.45
  Q 171.16 240.16 171.14 239.51
  L 170.99 234.05
  Q 170.94 232.15 169.69 231.51
  Q 166.77 230.00 169.03 228.94
  Q 169.30 228.82 169.99 228.83
  C 172.20 228.85 170.93 224.41 170.69 222.81
  Q 170.47 221.37 170.96 213.50
  C 171.29 208.08 163.17 211.75 165.96 207.75
  Q 177.18 206.47 188.21 204.00
  Z"
/>
<path fill="#387cc3" d="
  M 70.54 246.00
  C 69.91 245.18 70.04 244.36 70.76 243.60
  Q 73.30 240.93 75.02 237.69
  A 1.16 1.09 50.4 0 0 75.08 236.78
  Q 74.57 235.34 74.15 233.88
  C 73.39 231.27 74.08 229.55 74.20 226.91
  C 74.29 225.09 73.46 223.26 73.39 221.34
  C 73.25 216.86 72.05 212.79 71.78 208.40
  A 0.49 0.49 82.3 0 0 71.19 207.95
  Q 64.54 209.34 66.14 208.10
  A 1.55 0.86 15.0 0 1 67.06 207.87
  Q 68.32 207.91 69.12 206.83
  Q 69.52 206.30 68.90 206.54
  Q 67.97 206.89 67.00 206.54
  L 74.76 204.38
  A 1.21 1.14 51.3 0 1 75.67 204.51
  C 82.15 208.35 93.47 208.31 100.26 208.26
  Q 100.76 208.25 100.45 208.64
  L 70.54 246.00
  Z"
/>
<path fill="#3077c0" d="
  M 67.00 206.54
  Q 67.97 206.89 68.90 206.54
  Q 69.52 206.30 69.12 206.83
  Q 68.32 207.91 67.06 207.87
  A 1.55 0.86 15.0 0 0 66.14 208.10
  Q 64.54 209.34 71.19 207.95
  A 0.49 0.49 82.3 0 1 71.78 208.40
  C 72.05 212.79 73.25 216.86 73.39 221.34
  C 73.46 223.26 74.29 225.09 74.20 226.91
  C 74.08 229.55 73.39 231.27 74.15 233.88
  Q 74.57 235.34 75.08 236.78
  A 1.16 1.09 50.4 0 1 75.02 237.69
  Q 73.30 240.93 70.76 243.60
  C 70.04 244.36 69.91 245.18 70.54 246.00
  L 59.75 260.55
  Q 58.62 262.09 58.51 263.99
  C 57.75 278.20 75.09 276.46 83.75 274.29
  C 81.78 276.41 84.86 275.81 85.58 275.48
  Q 89.25 273.80 93.59 272.19
  Q 94.18 271.98 93.72 272.40
  C 92.04 273.98 89.49 275.99 87.27 276.60
  Q 85.83 277.00 87.79 278.00
  Q 75.80 282.77 63.82 287.59
  C 59.81 289.19 54.29 291.44 50.73 286.43
  Q 44.48 277.61 38.98 268.17
  Q 42.54 269.88 43.40 273.76
  A 1.83 1.67 -75.5 0 0 43.85 274.61
  Q 46.74 277.60 48.68 281.29
  A 0.60 0.59 -31.1 0 0 49.55 281.50
  C 51.50 280.13 51.29 279.22 51.32 277.20
  Q 51.67 250.35 51.51 223.51
  C 51.49 220.65 52.18 217.96 50.90 214.72
  A 0.49 0.49 -26.1 0 0 50.19 214.48
  Q 46.73 216.64 44.42 213.77
  L 67.00 206.54
  Z"
/>
<path fill="#ea194e" d="
  M 136.75 209.79
  Q 120.51 233.52 103.33 256.58
  Q 90.06 274.39 67.49 271.87
  C 62.83 271.35 59.98 265.79 62.87 261.88
  C 76.47 243.49 91.23 225.85 105.50 207.96
  L 106.49 208.70
  A 0.56 0.46 -54.4 0 0 107.20 208.51
  Q 108.18 207.15 109.59 207.97
  Q 110.06 208.25 110.50 208.25
  L 133.75 208.49
  Q 134.17 208.50 134.70 208.27
  Q 136.45 207.54 136.75 209.79
  Z"
/>
<path fill="#538ecb" d="
  M 156.00 208.04
  L 150.38 208.19
  A 0.40 0.38 -13.1 0 0 150.02 208.73
  Q 150.89 210.52 152.49 210.54
  A 0.99 0.86 -14.8 0 1 153.27 210.92
  L 154.13 212.15
  A 1.80 1.41 32.5 0 1 154.45 213.06
  Q 155.04 230.68 154.76 248.32
  C 154.75 249.12 154.16 250.03 154.87 251.06
  A 0.33 0.32 -27.3 0 1 154.70 251.55
  Q 154.18 251.74 153.95 252.22
  Q 153.74 252.68 154.25 252.45
  Q 155.54 251.87 156.25 253.29
  L 133.49 261.11
  Q 133.72 259.36 136.00 258.75
  C 141.24 257.33 139.92 253.66 140.08 249.73
  Q 140.71 233.85 139.45 218.00
  C 139.11 213.81 137.28 218.80 136.56 219.01
  A 1.43 0.52 -9.0 0 0 135.76 219.45
  L 132.28 224.33
  Q 132.05 224.64 132.00 225.25
  C 131.86 226.61 130.94 226.65 130.41 227.29
  C 129.68 228.15 126.14 233.84 125.21 232.50
  L 142.51 207.97
  A 0.94 0.92 18.5 0 1 143.31 207.58
  L 156.00 208.04
  Z"
/>
<path fill="#5992cd" d="
  M 165.96 207.75
  C 163.17 211.75 171.29 208.08 170.96 213.50
  Q 170.47 221.37 170.69 222.81
  C 170.93 224.41 172.20 228.85 169.99 228.83
  Q 169.30 228.82 169.03 228.94
  Q 166.77 230.00 169.69 231.51
  Q 170.94 232.15 170.99 234.05
  L 171.14 239.51
  Q 171.16 240.16 171.04 240.45
  C 170.30 242.30 171.40 243.41 171.25 244.85
  Q 170.98 247.39 167.99 247.71
  A 1.34 1.10 -68.5 0 0 167.20 248.15
  C 166.51 248.97 163.24 249.28 164.50 250.54
  L 156.25 253.29
  Q 155.54 251.87 154.25 252.45
  Q 153.74 252.68 153.95 252.22
  Q 154.18 251.74 154.70 251.55
  A 0.33 0.32 -27.3 0 0 154.87 251.06
  C 154.16 250.03 154.75 249.12 154.76 248.32
  Q 155.04 230.68 154.45 213.06
  A 1.80 1.41 32.5 0 0 154.13 212.15
  L 153.27 210.92
  A 0.99 0.86 -14.8 0 0 152.49 210.54
  Q 150.89 210.52 150.02 208.73
  A 0.40 0.38 -13.1 0 1 150.38 208.19
  L 156.00 208.04
  L 165.96 207.75
  Z"
/>
<path fill="#ea194e" d="
  M 210.29 207.75
  Q 211.42 210.21 214.00 210.25
  Q 218.70 210.32 223.40 210.54
  C 227.99 210.76 233.67 209.87 238.84 210.51
  Q 240.60 210.73 242.67 209.70
  Q 243.36 209.35 243.08 210.08
  Q 242.62 211.28 243.53 210.26
  A 0.28 0.27 -42.7 0 1 243.96 210.27
  Q 245.15 211.89 245.01 214.24
  Q 246.89 226.23 253.31 240.94
  C 255.52 246.00 249.94 250.88 245.12 250.80
  C 241.71 250.74 238.54 248.31 234.00 248.72
  Q 228.08 249.25 223.54 245.50
  Q 217.58 240.22 215.46 232.50
  Q 212.17 220.28 210.29 207.75
  Z"
/>
<path fill="#2872be" d="
  M 44.42 213.77
  Q 46.73 216.64 50.19 214.48
  A 0.49 0.49 -26.1 0 1 50.90 214.72
  C 52.18 217.96 51.49 220.65 51.51 223.51
  Q 51.67 250.35 51.32 277.20
  C 51.29 279.22 51.50 280.13 49.55 281.50
  A 0.60 0.59 -31.1 0 1 48.68 281.29
  Q 46.74 277.60 43.85 274.61
  A 1.83 1.67 -75.5 0 1 43.40 273.76
  Q 42.54 269.88 38.98 268.17
  C 30.62 255.07 25.65 239.71 26.26 223.79
  Q 26.34 221.63 28.20 220.53
  Q 35.72 216.07 44.42 213.77
  Z"
/>
<path fill="#4987c8" d="
  M 133.49 261.11
  L 87.79 278.00
  Q 85.83 277.00 87.27 276.60
  C 89.49 275.99 92.04 273.98 93.72 272.40
  Q 94.18 271.98 93.59 272.19
  Q 89.25 273.80 85.58 275.48
  C 84.86 275.81 81.78 276.41 83.75 274.29
  C 96.39 270.82 104.45 261.45 111.72 251.21
  Q 118.40 241.80 125.21 232.50
  C 126.14 233.84 129.68 228.15 130.41 227.29
  C 130.94 226.65 131.86 226.61 132.00 225.25
  Q 132.05 224.64 132.28 224.33
  L 135.76 219.45
  A 1.43 0.52 -9.0 0 1 136.56 219.01
  C 137.28 218.80 139.11 213.81 139.45 218.00
  Q 140.71 233.85 140.08 249.73
  C 139.92 253.66 141.24 257.33 136.00 258.75
  Q 133.72 259.36 133.49 261.11
  Z"
/>
<path fill="#bfb07b" d="
  M 390.50 227.96
  L 418.50 227.96
  C 437.44 230.68 454.76 239.63 469.95 251.04
  Q 471.23 252.00 469.63 252.00
  L 278.15 252.06
  Q 276.06 252.06 277.98 251.26
  C 313.77 236.33 350.99 229.45 390.50 227.96
  Z"
/>
<path fill="#665334" d="
  M 210.79 228.25
  Q 211.97 229.93 211.71 232.00
  Q 210.64 230.27 210.79 228.25
  Z"
/>
<path fill="#040504" d="
  M 215.46 232.50
  Q 217.58 240.22 223.54 245.50
  C 224.10 248.26 221.05 246.29 221.50 248.21
  Q 217.08 244.66 214.71 239.50
  Q 215.01 237.13 213.38 236.14
  L 212.71 234.75
  Q 212.44 231.78 215.46 232.50
  Z"
/>
</svg>
