<?xml version="1.0" encoding="UTF-8" standalone="no"?>
<!DOCTYPE svg PUBLIC "-//W3C//DTD SVG 1.1//EN" "http://www.w3.org/Graphics/SVG/1.1/DTD/svg11.dtd">
<svg xmlns="http://www.w3.org/2000/svg" version="1.1" viewBox="0 0 600 300">
<path fill="#000000" d="
  M 24.91 197.11
  Q 24.78 197.89 25.49 197.56
  L 57.01 183.04
  A 0.66 0.65 70.2 0 1 57.92 183.47
  L 63.35 203.65
  Q 63.68 204.86 64.46 203.88
  L 82.21 181.60
  A 0.67 0.67 32.7 0 1 83.04 181.42
  L 113.27 197.01
  Q 114.24 197.51 113.90 196.46
  L 103.09 162.78
  A 1.56 1.51 85.6 0 0 101.91 161.74
  C 97.26 160.94 98.04 161.54 98.98 164.48
  Q 102.87 176.64 107.07 188.70
  Q 107.52 190.01 106.28 189.39
  L 81.86 177.28
  A 0.92 0.91 32.7 0 0 80.74 177.52
  L 65.93 195.95
  Q 65.18 196.88 64.92 195.71
  L 60.81 177.74
  A 0.63 0.62 -20.2 0 0 59.91 177.33
  L 30.24 192.25
  Q 29.29 192.73 29.74 191.77
  L 41.02 167.55
  A 0.79 0.79 -63.8 0 0 40.67 166.52
  L 19.44 155.31
  Q 18.37 154.75 19.43 154.19
  L 36.58 145.13
  A 0.87 0.87 63.9 0 0 36.96 144.01
  L 24.50 116.30
  Q 23.99 115.18 25.18 115.50
  L 51.94 122.56
  A 0.80 0.79 10.5 0 0 52.93 121.89
  L 55.81 95.90
  Q 55.95 94.69 56.70 95.66
  L 73.46 117.47
  A 0.53 0.51 -40.1 0 0 74.23 117.52
  L 91.11 101.77
  Q 91.92 101.01 92.02 102.14
  L 93.76 121.69
  A 0.47 0.46 -7.3 0 0 94.31 122.11
  L 117.87 117.88
  Q 119.23 117.63 118.43 118.75
  L 104.72 137.89
  Q 104.11 138.75 105.16 138.75
  L 127.30 138.75
  A 0.52 0.52 -90.0 0 1 127.82 139.27
  L 127.93 211.47
  A 1.02 1.02 -89.7 0 1 126.92 212.50
  Q 98.71 212.58 71.50 212.70
  Q 57.75 212.77 51.56 211.65
  C 12.85 204.67 -8.79 164.61 4.04 128.13
  C 12.22 104.90 33.56 86.25 59.16 86.25
  Q 92.99 86.25 127.26 86.25
  A 0.70 0.67 90.0 0 1 127.93 86.95
  L 127.93 113.06
  A 0.69 0.67 -90.0 0 1 127.26 113.75
  L 97.45 113.75
  A 0.93 0.91 -1.6 0 1 96.52 112.89
  L 95.41 95.01
  Q 95.35 94.04 94.62 94.66
  L 74.83 111.57
  A 0.70 0.69 -40.0 0 1 73.86 111.49
  L 54.24 88.50
  Q 53.75 87.92 53.64 88.68
  L 49.89 116.87
  A 0.80 0.79 -79.5 0 1 48.92 117.54
  L 18.72 110.51
  Q 18.08 110.36 18.32 110.97
  L 31.26 142.97
  A 0.58 0.57 65.2 0 1 31.00 143.69
  L 11.97 153.89
  Q 10.81 154.51 11.94 155.15
  L 35.02 168.20
  A 0.76 0.76 -65.0 0 1 35.36 169.14
  C 32.15 177.55 29.35 186.53 25.64 194.78
  Q 25.08 196.04 24.91 197.11
  Z
  M 68.06 138.81
  L 98.17 138.75
  A 2.25 2.12 -71.3 0 0 99.94 137.81
  L 109.35 124.65
  Q 110.28 123.34 108.70 123.62
  L 90.56 126.87
  A 0.47 0.46 -7.3 0 1 90.01 126.45
  L 88.72 110.75
  Q 88.62 109.52 87.72 110.35
  L 73.62 123.42
  A 0.48 0.47 -39.8 0 1 72.93 123.36
  L 59.71 106.25
  Q 58.83 105.11 58.67 106.53
  L 56.42 127.17
  A 0.59 0.58 10.3 0 1 55.69 127.67
  L 31.77 121.37
  Q 31.15 121.21 31.41 121.78
  L 42.18 145.65
  A 1.04 1.03 64.0 0 1 41.73 146.99
  L 27.90 154.36
  Q 27.15 154.76 27.91 155.16
  L 45.91 164.70
  A 1.03 1.01 -63.5 0 1 46.34 166.04
  L 38.24 183.27
  Q 38.02 183.74 38.49 183.51
  L 62.68 171.31
  A 0.63 0.62 -19.5 0 1 63.57 171.73
  L 67.00 186.74
  Q 67.24 187.81 67.93 186.95
  L 79.43 172.48
  A 1.12 1.11 32.4 0 1 80.80 172.18
  L 99.82 181.66
  Q 100.60 182.05 100.32 181.21
  L 94.04 162.31
  A 1.19 1.16 80.6 0 0 92.93 161.50
  L 67.75 161.50
  A 0.50 0.49 0.6 0 1 67.25 161.00
  L 67.56 139.31
  A 0.50 0.50 0.0 0 1 68.06 138.81
  Z"
/>
<path fill="#000000" d="
  M 598.18 155.85
  C 604.83 180.31 590.18 206.14 565.25 212.00
  Q 556.55 214.04 548.50 213.95
  Q 530.88 213.75 512.52 213.75
  A 1.02 1.02 -89.6 0 1 511.50 212.73
  L 511.50 106.50
  A 0.69 0.68 -90.0 0 1 512.18 105.81
  L 543.40 105.75
  A 0.85 0.85 -0.0 0 1 544.25 106.60
  L 544.25 122.16
  A 0.98 0.98 -3.2 0 0 545.34 123.13
  C 569.69 120.40 591.52 131.32 598.18 155.85
  Z
  M 544.19 150.11
  L 544.25 186.14
  A 1.20 1.20 -83.3 0 0 545.17 187.31
  C 579.17 195.57 576.63 138.64 544.83 149.22
  A 0.95 0.94 -9.6 0 0 544.19 150.11
  Z"
/>
<rect fill="#000000" x="339.24" y="106.50" width="32.26" height="107.00" rx="0.68"/>
<path fill="#000000" d="
  M 264.79 148.25
  A 0.78 0.74 0.4 0 0 264.00 148.99
  C 264.00 158.91 262.38 177.94 266.31 184.69
  Q 269.65 190.42 278.93 189.51
  Q 280.85 189.32 280.86 191.22
  L 280.99 212.99
  A 0.51 0.50 -0.6 0 1 280.48 213.50
  Q 267.77 213.50 255.05 213.50
  Q 247.66 213.50 244.15 212.08
  C 235.89 208.74 232.32 199.91 232.23 191.14
  Q 231.83 150.17 232.01 108.02
  A 1.02 1.02 -0.4 0 1 233.03 107.00
  L 263.08 107.00
  A 0.92 0.92 -0.6 0 1 264.00 107.92
  L 264.00 125.13
  A 0.62 0.62 0.0 0 0 264.62 125.75
  L 279.40 125.75
  A 0.85 0.85 -0.0 0 1 280.25 126.60
  L 280.25 147.46
  A 1.01 0.96 -89.4 0 1 279.27 148.47
  L 264.79 148.25
  Z"
/>
<path fill="#000000" d="
  M 319.38 148.30
  A 1.33 1.25 0.9 0 0 318.04 149.52
  Q 317.68 165.26 318.43 178.10
  Q 318.61 181.20 319.99 183.98
  C 322.80 189.66 328.29 190.68 334.14 189.45
  A 0.71 0.71 -6.0 0 1 335.00 190.14
  L 334.94 212.93
  A 0.51 0.49 -90.0 0 1 334.45 213.44
  Q 322.73 213.52 311.01 213.51
  Q 301.64 213.50 298.15 212.13
  C 289.18 208.60 286.25 198.37 286.25 189.25
  Q 286.25 149.50 286.25 107.95
  A 0.89 0.89 -88.4 0 1 287.14 107.06
  L 316.93 107.01
  A 1.08 1.06 89.5 0 1 318.00 108.08
  L 318.06 125.45
  A 0.52 0.50 -0.6 0 0 318.58 125.94
  L 333.34 125.77
  A 1.10 1.08 -89.7 0 1 334.43 126.89
  L 334.08 147.82
  A 0.54 0.53 -89.4 0 1 333.55 148.35
  L 319.38 148.30
  Z"
/>
<rect fill="#000000" x="380.69" y="107.00" width="30.80" height="13.50" rx="0.72"/>
<path fill="#000000" d="
  M 228.73 166.55
  A 46.96 45.83 0.0 0 1 181.77 212.38
  A 46.96 45.83 0.0 0 1 134.81 166.55
  A 46.96 45.83 0.0 0 1 181.77 120.72
  A 46.96 45.83 0.0 0 1 228.73 166.55
  Z
  M 181.8052 186.7100
  A 20.14 16.76 89.9 0 0 198.5300 166.5407
  A 20.14 16.76 89.9 0 0 181.7348 146.4300
  A 20.14 16.76 89.9 0 0 165.0100 166.5993
  A 20.14 16.76 89.9 0 0 181.8052 186.7100
  Z"
/>
<path fill="#000000" d="
  M 447.35 178.89
  C 448.69 185.44 452.10 190.42 459.48 190.54
  Q 481.97 190.89 504.24 191.00
  A 0.76 0.76 0.0 0 1 505.00 191.76
  L 505.00 212.94
  A 0.56 0.56 0.0 0 1 504.44 213.50
  Q 484.18 213.50 464.42 213.50
  Q 455.23 213.50 450.21 212.15
  C 428.65 206.36 415.04 185.80 418.13 163.48
  C 420.97 142.91 436.37 128.65 456.53 126.11
  C 486.28 122.36 511.05 147.65 505.90 177.33
  A 0.60 0.60 5.2 0 1 505.31 177.82
  L 448.09 178.00
  A 0.75 0.74 -5.6 0 0 447.35 178.89
  Z
  M 478.25 160.51
  C 472.41 144.17 452.25 143.09 445.98 160.30
  A 0.71 0.70 -80.1 0 0 446.64 161.25
  L 477.73 161.25
  A 0.55 0.55 -10.0 0 0 478.25 160.51
  Z"
/>
<rect fill="#000000" x="380.75" y="126.26" width="30.50" height="87.24" rx="0.35"/>
</svg>
