<?xml version="1.0" encoding="UTF-8" standalone="no"?>
<!DOCTYPE svg PUBLIC "-//W3C//DTD SVG 1.1//EN" "http://www.w3.org/Graphics/SVG/1.1/DTD/svg11.dtd">
<svg xmlns="http://www.w3.org/2000/svg" version="1.1" viewBox="0 0 600 300">
<path fill="#000000" d="
  M 438.68 76.18
  A 8.86 8.86 0.0 0 1 429.82 85.04
  A 8.86 8.86 0.0 0 1 420.96 76.18
  A 8.86 8.86 0.0 0 1 429.82 67.32
  A 8.86 8.86 0.0 0 1 438.68 76.18
  Z
  M 437.42 76.21
  A 7.59 7.59 0.0 0 0 429.83 68.62
  A 7.59 7.59 0.0 0 0 422.24 76.21
  A 7.59 7.59 0.0 0 0 429.83 83.80
  A 7.59 7.59 0.0 0 0 437.42 76.21
  Z"
/>
<path fill="#000000" d="
  M 432.57 76.40
  A 1.29 1.18 56.7 0 0 432.29 78.14
  L 433.77 80.30
  A 0.65 0.50 57.5 0 1 433.69 81.14
  C 432.03 82.14 430.91 75.34 427.98 77.03
  A 0.98 0.86 78.1 0 0 427.54 77.81
  L 427.46 80.43
  A 0.99 0.67 84.1 0 1 427.03 81.23
  C 425.76 81.81 426.25 72.95 426.25 71.96
  A 0.65 0.64 -3.5 0 1 426.82 71.32
  C 429.11 71.07 432.34 70.80 433.69 72.97
  Q 434.89 74.89 432.57 76.40
  Z
  M 432.4267 73.4770
  A 0.99 0.99 0.0 0 0 431.4315 72.4922
  L 428.4315 72.5079
  A 0.99 0.99 0.0 0 0 427.4467 73.5030
  L 427.4533 74.7630
  A 0.99 0.99 0.0 0 0 428.4485 75.7478
  L 431.4485 75.7321
  A 0.99 0.99 0.0 0 0 432.4333 74.7370
  L 432.4267 73.4770
  Z"
/>
<path fill="#000000" d="
  M 356.74 148.28
  C 356.84 148.26 374.98 95.13 376.71 90.12
  Q 379.17 83.06 381.69 80.16
  C 390.63 69.89 408.03 73.52 412.59 86.84
  Q 424.42 121.40 436.38 156.12
  A 0.48 0.48 80.7 0 1 435.93 156.75
  L 391.13 156.75
  A 0.86 0.85 3.6 0 1 390.28 155.79
  Q 390.84 151.13 390.29 146.58
  A 0.97 0.96 -3.4 0 1 391.25 145.50
  L 420.01 145.50
  A 0.54 0.53 80.5 0 0 420.51 144.79
  Q 411.18 117.34 401.63 90.00
  C 399.86 84.94 395.79 82.32 390.97 86.00
  A 4.79 4.79 80.8 0 0 389.35 88.25
  L 366.16 156.03
  A 1.07 1.07 -80.4 0 1 365.15 156.75
  Q 343.57 156.75 321.91 156.75
  C 310.02 156.75 299.80 152.01 296.83 139.84
  C 294.70 131.13 296.00 113.14 296.00 101.25
  C 296.00 84.58 304.98 76.04 321.41 75.66
  Q 338.58 75.26 355.76 75.74
  A 0.55 0.51 0.6 0 1 356.30 76.25
  L 356.36 86.32
  A 0.55 0.50 -0.6 0 1 355.82 86.82
  Q 339.14 87.10 322.46 87.03
  C 312.61 86.98 307.50 89.96 307.50 100.13
  Q 307.50 116.26 307.50 132.40
  Q 307.50 136.87 308.80 139.35
  C 312.35 146.12 318.00 145.50 325.87 145.50
  Q 335.14 145.50 344.26 145.50
  A 0.83 0.81 -89.6 0 0 345.07 144.68
  L 345.18 115.44
  A 0.67 0.64 -89.6 0 0 344.54 114.76
  L 325.05 114.94
  A 0.79 0.69 -0.0 0 1 324.25 114.24
  L 324.36 104.30
  A 0.88 0.81 0.3 0 1 325.24 103.50
  L 355.54 103.50
  A 0.96 0.95 0.0 0 1 356.50 104.45
  L 356.32 147.75
  A 0.51 0.36 86.5 0 0 356.74 148.28
  Z"
/>
<path fill="#000000" d="
  M 200.17 117.87
  C 215.30 120.24 213.27 143.06 196.75 142.75
  Q 190.89 142.64 161.94 142.81
  A 0.54 0.51 -0.5 0 1 161.40 142.31
  L 161.27 132.34
  A 0.81 0.77 -0.7 0 1 162.07 131.56
  Q 179.66 131.45 197.50 131.38
  Q 199.81 131.38 198.91 129.72
  A 1.86 1.85 75.6 0 0 197.28 128.75
  C 190.28 128.75 184.62 129.31 178.38 126.97
  C 154.95 118.21 156.40 85.21 179.70 77.20
  Q 183.88 75.76 190.99 75.63
  Q 207.44 75.35 223.77 75.56
  A 0.80 0.76 89.6 0 1 224.52 76.34
  L 224.80 85.82
  A 1.15 1.09 89.2 0 1 223.70 87.01
  Q 206.06 86.84 189.18 87.17
  C 176.88 87.41 168.99 98.14 174.92 109.54
  C 180.47 120.19 190.53 116.36 200.17 117.87
  Z"
/>
<path fill="#000000" d="
  M 254.38 145.46
  Q 272.04 145.54 290.70 145.50
  A 0.80 0.79 -0.0 0 1 291.50 146.29
  L 291.50 156.09
  A 0.66 0.66 -0.2 0 1 290.84 156.75
  Q 271.38 156.75 252.00 156.75
  C 238.62 156.75 229.92 144.98 229.96 132.25
  Q 230.00 116.38 229.99 100.50
  C 229.98 85.32 239.08 75.91 254.75 75.75
  Q 282.11 75.47 291.00 75.73
  A 0.57 0.53 0.6 0 1 291.55 76.25
  L 291.68 86.05
  A 1.01 0.94 -0.3 0 1 290.66 87.01
  Q 271.37 86.83 253.27 87.18
  C 246.03 87.32 241.60 91.44 241.57 99.00
  Q 241.51 115.02 241.50 131.04
  C 241.50 140.45 244.72 145.41 254.38 145.46
  Z"
/>
<path fill="#000000" d="
  M 390.20 133.72
  C 389.35 133.70 389.52 134.70 389.37 135.16
  Q 386.22 145.34 382.22 156.24
  A 0.78 0.76 9.6 0 1 381.49 156.75
  L 369.36 156.75
  A 0.50 0.50 9.6 0 1 368.89 156.09
  Q 379.94 124.13 390.81 92.27
  C 391.82 89.30 393.22 85.30 396.95 87.63
  Q 398.32 88.48 399.06 90.61
  Q 408.07 116.36 416.65 141.95
  A 0.82 0.80 -8.6 0 1 415.85 143.00
  L 391.31 142.92
  A 1.11 0.78 -11.7 0 1 390.47 142.56
  Q 390.03 141.95 390.29 141.20
  Q 390.43 140.80 390.44 140.24
  L 390.61 134.30
  A 0.57 0.42 -88.9 0 0 390.20 133.72
  Z
  M 391.42 129.97
  A 0.38 0.38 7.4 0 0 391.78 130.47
  L 398.79 130.49
  A 0.38 0.38 -12.4 0 0 399.15 129.99
  L 395.66 119.39
  A 0.38 0.38 44.4 0 0 394.94 119.39
  L 391.42 129.97
  Z"
/>
<path fill="#000000" d="
  M 256.31 103.68
  L 282.42 103.52
  A 0.90 0.90 89.0 0 1 283.33 104.40
  L 283.50 113.79
  A 0.95 0.94 -0.6 0 1 282.55 114.75
  L 244.75 114.75
  A 0.50 0.50 0.0 0 1 244.25 114.25
  C 244.22 109.33 243.07 97.79 245.58 93.78
  C 247.40 90.88 249.98 89.77 253.57 89.70
  Q 271.50 89.33 290.70 89.51
  A 1.01 1.00 0.0 0 1 291.70 90.50
  L 291.75 99.89
  A 1.12 1.10 -0.3 0 1 290.63 101.00
  Q 274.41 100.95 258.32 101.06
  C 256.90 101.07 255.41 101.58 255.69 103.21
  A 0.64 0.56 -4.2 0 0 256.31 103.68
  Z"
/>
<path fill="#000000" d="
  M 330.42 131.48
  Q 331.80 130.46 330.55 129.15
  A 1.32 1.05 -16.6 0 0 329.68 128.80
  L 324.82 128.70
  A 0.54 0.52 89.4 0 1 324.31 128.18
  L 324.07 118.49
  A 0.72 0.67 88.8 0 1 324.73 117.75
  L 341.48 117.55
  A 1.04 0.99 -90.0 0 1 342.48 118.60
  L 342.25 142.24
  A 0.51 0.51 0.0 0 1 341.74 142.75
  Q 331.33 142.79 320.73 142.72
  C 313.60 142.67 310.25 139.91 310.25 132.83
  Q 310.25 116.44 310.25 100.06
  C 310.25 93.55 313.02 89.84 319.56 89.70
  Q 337.08 89.34 355.35 89.51
  A 1.16 1.16 0.2 0 1 356.50 90.67
  L 356.50 99.97
  A 1.03 1.03 -89.8 0 1 355.47 101.00
  L 324.13 101.00
  Q 321.81 101.00 321.72 103.32
  C 321.43 111.18 321.76 119.24 321.38 127.39
  C 321.11 133.22 325.88 130.89 329.51 131.63
  A 1.23 0.92 27.3 0 0 330.42 131.48
  Z"
/>
<path fill="#000000" d="
  M 215.63 110.36
  C 232.59 125.44 224.20 153.78 201.21 156.64
  Q 200.30 156.75 188.77 156.75
  Q 175.65 156.75 162.13 156.75
  A 0.88 0.88 0.0 0 1 161.25 155.87
  L 161.25 146.17
  A 0.67 0.67 0.0 0 1 161.92 145.50
  Q 179.75 145.50 197.00 145.43
  C 211.23 145.37 219.19 129.04 208.08 118.93
  C 200.84 112.34 192.83 116.61 184.70 114.32
  C 173.44 111.13 172.45 95.01 183.42 90.66
  Q 185.73 89.75 190.70 89.75
  Q 207.23 89.75 223.86 89.75
  A 0.91 0.91 -89.4 0 1 224.77 90.68
  L 224.51 100.13
  A 0.89 0.89 -89.3 0 1 223.62 101.00
  L 188.09 101.00
  A 1.02 1.00 13.4 0 0 187.19 101.54
  Q 186.14 103.59 188.75 103.51
  C 198.69 103.22 207.77 103.37 215.63 110.36
  Z"
/>
<path fill="#000000" d="
  M 255.67 130.07
  A 2.38 2.32 -10.4 0 0 257.85 131.53
  L 290.75 131.74
  A 0.55 0.53 -0.5 0 1 291.30 132.26
  L 291.46 141.96
  A 0.82 0.78 -0.3 0 1 290.64 142.75
  Q 273.27 142.75 256.21 142.75
  C 248.47 142.75 244.25 140.73 244.25 132.58
  Q 244.25 125.69 244.25 118.31
  A 0.56 0.56 0.0 0 1 244.81 117.75
  L 282.79 117.75
  A 0.71 0.71 -90.0 0 1 283.50 118.46
  L 283.50 127.91
  A 0.84 0.84 89.7 0 1 282.66 128.75
  Q 269.37 128.75 257.25 128.50
  Q 255.02 128.46 255.67 130.07
  Z"
/>
<path fill="#000000" d="
  M 0.00 180.45
  L 0.00 167.94
  Q 48.94 167.63 97.88 167.74
  C 108.53 167.76 114.36 166.79 114.31 179.50
  A 1.01 1.01 -89.7 0 1 113.30 180.50
  L 0.00 180.45
  Z"
/>
<rect fill="#000000" x="120.00" y="167.76" width="75.50" height="12.74" rx="0.51"/>
<path fill="#000000" d="
  M 201.01 179.46
  C 200.95 173.98 202.38 168.06 208.86 167.98
  Q 244.40 167.53 279.94 167.81
  A 0.51 0.51 89.4 0 1 280.45 168.31
  L 280.50 180.00
  A 0.50 0.50 0.0 0 1 280.00 180.50
  L 202.06 180.50
  A 1.05 1.05 89.7 0 1 201.01 179.46
  Z"
/>
<path fill="#000000" d="
  M 290.01 179.46
  C 289.95 173.79 291.70 167.66 298.50 167.64
  Q 331.57 167.57 364.64 167.97
  C 371.98 168.06 373.51 173.64 373.25 179.84
  A 0.69 0.69 -88.7 0 1 372.56 180.50
  L 291.06 180.50
  A 1.05 1.05 89.7 0 1 290.01 179.46
  Z"
/>
<path fill="#000000" d="
  M 429.01 179.46
  C 428.95 173.99 430.38 168.05 436.86 167.98
  Q 473.58 167.57 511.44 167.76
  A 0.81 0.81 0.0 0 1 512.25 168.57
  L 512.25 179.81
  A 0.69 0.69 0.0 0 1 511.56 180.50
  L 430.06 180.50
  A 1.05 1.05 89.7 0 1 429.01 179.46
  Z"
/>
<path fill="#000000" d="
  M 600.00 172.06
  L 600.00 180.31
  L 518.87 180.50
  A 0.83 0.81 0.3 0 1 518.04 179.68
  L 518.16 168.44
  A 0.55 0.51 -0.6 0 1 518.70 167.93
  Q 551.00 167.62 583.30 167.74
  C 588.70 167.76 597.43 166.20 600.00 172.06
  Z"
/>
<path fill="#000000" d="
  M 0.00 215.44
  L -0.01 183.82
  Q 10.15 183.14 20.30 183.66
  A 0.56 0.52 1.7 0 1 20.83 184.18
  L 20.83 215.07
  A 0.56 0.52 -1.7 0 1 20.30 215.59
  Q 10.15 216.11 0.00 215.44
  Z"
/>
<rect fill="#000000" x="46.75" y="183.50" width="21.00" height="32.26" rx="0.59"/>
<rect fill="#000000" x="93.50" y="183.50" width="21.00" height="32.26" rx="0.52"/>
<path fill="#000000" d="
  M 141.84 200.06
  Q 140.41 200.07 141.24 201.24
  C 142.97 203.67 144.68 203.25 147.33 203.25
  Q 171.16 203.25 195.00 203.25
  A 0.50 0.50 0.0 0 1 195.50 203.75
  L 195.45 215.19
  A 0.51 0.51 -89.4 0 1 194.94 215.69
  Q 161.47 215.80 128.00 215.83
  C 118.40 215.83 120.00 202.73 119.94 196.42
  Q 119.87 190.23 120.28 184.06
  A 0.54 0.53 1.7 0 1 120.82 183.56
  L 139.92 183.50
  A 0.94 0.93 81.0 0 1 140.81 184.15
  C 142.08 188.12 143.72 187.50 147.75 187.50
  Q 168.78 187.50 190.49 187.50
  A 0.98 0.94 0.3 0 1 191.47 188.45
  L 191.34 199.31
  A 0.53 0.51 -0.0 0 1 190.81 199.82
  L 141.84 200.06
  Z"
/>
<path fill="#000000" d="
  M 263.15 201.67
  A 2.10 2.09 83.1 0 0 261.12 200.07
  L 236.69 200.00
  A 0.69 0.69 0.0 0 1 236.00 199.31
  L 236.00 188.49
  A 0.99 0.99 0.0 0 1 236.99 187.50
  Q 255.38 187.50 274.00 187.50
  C 280.37 187.50 283.41 191.70 284.12 197.78
  C 284.77 203.36 285.07 214.22 277.94 215.68
  Q 277.58 215.75 270.04 215.75
  Q 240.60 215.75 211.16 215.75
  C 205.18 215.75 201.66 214.04 201.35 207.75
  Q 200.82 196.75 201.02 184.44
  A 0.94 0.92 -89.1 0 1 201.95 183.52
  L 221.31 183.67
  A 0.53 0.52 -90.0 0 1 221.83 184.20
  L 221.98 202.30
  A 0.95 0.92 90.0 0 0 222.89 203.24
  Q 242.66 203.39 261.06 202.98
  Q 263.45 202.92 263.15 201.67
  Z"
/>
<rect fill="#000000" x="290.00" y="183.50" width="21.00" height="32.26" rx="0.64"/>
<path fill="#000000" d="
  M 352.20 194.55
  L 352.25 184.17
  A 0.67 0.66 -90.0 0 1 352.91 183.50
  L 372.37 183.50
  A 0.87 0.86 -0.0 0 1 373.24 184.36
  L 373.07 215.07
  A 0.51 0.50 -90.0 0 1 372.57 215.58
  L 353.13 215.74
  A 0.89 0.87 89.7 0 1 352.25 214.85
  L 352.25 208.66
  A 0.66 0.66 -0.1 0 0 351.59 208.00
  L 314.03 208.00
  A 0.78 0.78 89.9 0 1 313.25 207.22
  L 313.25 195.92
  A 0.67 0.67 -0.2 0 1 313.92 195.25
  L 351.48 195.25
  A 0.72 0.71 0.4 0 0 352.20 194.55
  Z"
/>
<path fill="#000000" d="
  M 429.19 183.96
  A 0.48 0.48 -88.8 0 1 429.67 183.50
  L 449.33 183.50
  A 0.67 0.67 0.2 0 1 450.00 184.17
  Q 450.00 191.49 450.00 198.74
  C 450.00 202.03 451.29 203.25 454.50 203.25
  Q 482.50 203.25 511.24 203.25
  A 0.98 0.94 0.3 0 1 512.22 204.20
  L 512.09 215.06
  A 0.54 0.51 -0.6 0 1 511.56 215.57
  Q 477.33 215.87 443.11 215.76
  C 434.54 215.74 429.90 216.23 429.30 206.66
  Q 428.58 195.31 429.19 183.96
  Z"
/>
<rect fill="#000000" x="518.00" y="183.50" width="21.00" height="32.26" rx="0.64"/>
<path fill="#000000" d="
  M 600.00 183.81
  L 600.00 211.56
  Q 598.03 215.75 592.50 215.75
  Q 567.25 215.75 542.16 215.75
  A 0.91 0.91 -89.7 0 1 541.25 214.84
  L 541.25 204.04
  A 0.81 0.80 0.0 0 1 542.06 203.24
  L 579.56 203.07
  A 0.52 0.51 0.0 0 0 580.08 202.56
  L 580.23 184.55
  A 1.01 0.95 -89.7 0 1 581.19 183.54
  L 600.00 183.81
  Z"
/>
<rect fill="#000000" x="379.00" y="187.50" width="36.50" height="12.50" rx="0.65"/>
</svg>
