<?xml version="1.0" encoding="UTF-8" standalone="no"?>
<!DOCTYPE svg PUBLIC "-//W3C//DTD SVG 1.1//EN" "http://www.w3.org/Graphics/SVG/1.1/DTD/svg11.dtd">
<svg xmlns="http://www.w3.org/2000/svg" version="1.1" viewBox="0 0 600 300">
<g stroke-width="2.00" fill="none" stroke-linecap="butt">
<path stroke="#1d1d80" vector-effect="non-scaling-stroke" d="
  M 158.94 128.91
  C 134.92 56.42 34.66 61.56 17.99 136.10
  Q 17.43 138.61 16.54 140.90
  Q 15.72 143.01 17.94 142.99
  L 33.82 142.83
  A 0.62 0.58 -84.7 0 0 34.40 142.32
  C 44.08 86.61 117.81 77.01 140.50 129.04"
/>
<path stroke="#1d1d80" vector-effect="non-scaling-stroke" d="
  M 19.54 171.75
  C 43.83 247.46 149.98 237.93 161.63 159.14
  A 0.99 0.99 -85.7 0 0 160.65 158.00
  L 145.13 158.00
  A 0.94 0.93 4.7 0 0 144.20 158.78
  C 139.32 188.77 113.21 208.99 82.49 205.87
  C 56.94 203.28 38.98 183.00 34.37 158.56
  A 0.69 0.67 83.8 0 0 33.70 158.00
  L 16.47 158.18"
/>
<path stroke="#5d4707" vector-effect="non-scaling-stroke" d="
  M 131.04 161.75
  Q 133.20 158.06 132.71 153.75"
/>
<path stroke="#806300" vector-effect="non-scaling-stroke" d="
  M 132.71 153.75
  L 132.71 145.25"
/>
<path stroke="#5d4707" vector-effect="non-scaling-stroke" d="
  M 132.71 145.25
  Q 132.56 143.01 131.29 141.25"
/>
<path stroke="#806300" vector-effect="non-scaling-stroke" d="
  M 131.29 141.25
  Q 127.01 124.03 113.32 115.10
  C 82.20 94.81 43.12 120.09 47.38 156.49
  C 49.46 174.21 63.25 189.38 80.69 192.99
  C 103.53 197.71 125.10 184.19 131.04 161.75"
/>
<path stroke="#dcaa07" vector-effect="non-scaling-stroke" d="
  M 131.29 141.25
  C 131.39 142.41 130.97 146.16 132.71 145.25"
/>
<path stroke="#dcaa07" vector-effect="non-scaling-stroke" d="
  M 132.71 153.75
  C 131.19 155.38 131.12 159.66 131.04 161.75"
/>
<path stroke="#806300" vector-effect="non-scaling-stroke" d="
  M 88.97 151.45
  C 85.07 131.92 55.37 134.25 55.00 154.49
  A 0.50 0.50 -89.4 0 0 55.50 155.00
  L 63.50 155.00
  A 2.81 1.78 -73.6 0 0 65.50 153.25
  C 68.59 146.08 76.88 146.92 79.24 154.51
  A 0.69 0.69 81.4 0 0 79.90 155.00
  L 98.56 155.00
  A 0.72 0.71 9.0 0 0 99.24 154.51
  C 101.66 147.33 110.03 145.71 112.94 153.06
  Q 113.70 155.00 115.00 155.00
  L 123.46 155.00
  A 0.54 0.54 -4.9 0 0 123.99 154.37
  C 120.44 134.04 94.67 131.72 89.19 151.45
  Q 89.06 151.92 88.97 151.45"
/>
</g>
<path fill="#000000" d="
  M 158.94 128.91
  C 134.92 56.42 34.66 61.56 17.99 136.10
  Q 17.43 138.61 16.54 140.90
  Q 15.72 143.01 17.94 142.99
  L 33.82 142.83
  A 0.62 0.58 -84.7 0 0 34.40 142.32
  C 44.08 86.61 117.81 77.01 140.50 129.04
  Q 142.93 135.53 144.34 142.32
  A 0.62 0.61 84.2 0 0 144.94 142.82
  L 174.80 142.99
  A 0.98 0.96 -1.2 0 1 175.77 143.90
  Q 178.36 187.76 145.81 216.81
  C 122.27 237.83 87.10 243.68 57.58 231.93
  C 31.57 221.59 12.99 200.11 5.34 173.04
  A 0.86 0.84 -7.8 0 1 6.17 171.98
  L 19.54 171.75
  C 43.83 247.46 149.98 237.93 161.63 159.14
  A 0.99 0.99 -85.7 0 0 160.65 158.00
  L 145.13 158.00
  A 0.94 0.93 4.7 0 0 144.20 158.78
  C 139.32 188.77 113.21 208.99 82.49 205.87
  C 56.94 203.28 38.98 183.00 34.37 158.56
  A 0.69 0.67 83.8 0 0 33.70 158.00
  L 16.47 158.18
  L 3.53 157.94
  A 1.20 1.18 -1.9 0 1 2.36 156.86
  C -0.05 127.17 14.69 97.34 37.81 80.06
  C 87.52 42.91 156.93 69.15 173.27 128.18
  A 0.60 0.59 82.1 0 1 172.71 128.94
  L 158.94 128.91
  Z
  M 131.04 161.75
  Q 133.20 158.06 132.71 153.75
  L 132.71 145.25
  Q 132.56 143.01 131.29 141.25
  Q 127.01 124.03 113.32 115.10
  C 82.20 94.81 43.12 120.09 47.38 156.49
  C 49.46 174.21 63.25 189.38 80.69 192.99
  C 103.53 197.71 125.10 184.19 131.04 161.75
  Z"
/>
<path fill="#3939ff" d="
  M 158.94 128.91
  L 140.50 129.04
  C 117.81 77.01 44.08 86.61 34.40 142.32
  A 0.62 0.58 -84.7 0 1 33.82 142.83
  L 17.94 142.99
  Q 15.72 143.01 16.54 140.90
  Q 17.43 138.61 17.99 136.10
  C 34.66 61.56 134.92 56.42 158.94 128.91
  Z"
/>
<path fill="#ffc600" d="
  M 131.29 141.25
  C 131.39 142.41 130.97 146.16 132.71 145.25
  L 132.71 153.75
  C 131.19 155.38 131.12 159.66 131.04 161.75
  C 125.10 184.19 103.53 197.71 80.69 192.99
  C 63.25 189.38 49.46 174.21 47.38 156.49
  C 43.12 120.09 82.20 94.81 113.32 115.10
  Q 127.01 124.03 131.29 141.25
  Z
  M 88.97 151.45
  C 85.07 131.92 55.37 134.25 55.00 154.49
  A 0.50 0.50 -89.4 0 0 55.50 155.00
  L 63.50 155.00
  A 2.81 1.78 -73.6 0 0 65.50 153.25
  C 68.59 146.08 76.88 146.92 79.24 154.51
  A 0.69 0.69 81.4 0 0 79.90 155.00
  L 98.56 155.00
  A 0.72 0.71 9.0 0 0 99.24 154.51
  C 101.66 147.33 110.03 145.71 112.94 153.06
  Q 113.70 155.00 115.00 155.00
  L 123.46 155.00
  A 0.54 0.54 -4.9 0 0 123.99 154.37
  C 120.44 134.04 94.67 131.72 89.19 151.45
  Q 89.06 151.92 88.97 151.45
  Z"
/>
<path fill="#000000" d="
  M 466.88 148.77
  C 471.70 120.86 514.94 118.45 528.62 140.31
  C 531.55 145.00 532.64 152.86 530.19 157.91
  C 521.44 175.94 496.54 180.02 480.04 170.70
  C 473.39 166.94 465.40 157.40 466.88 148.77
  Z
  M 495.78 136.50
  C 476.48 138.37 473.20 160.11 493.75 164.26
  Q 504.63 166.46 513.85 160.63
  C 520.83 156.21 520.61 145.29 514.11 140.63
  C 508.80 136.83 502.15 135.88 495.78 136.50
  Z"
/>
<path fill="#000000" d="
  M 397.32 152.13
  C 396.36 138.72 409.95 128.96 421.90 126.96
  C 436.03 124.60 448.59 127.99 457.94 139.06
  C 460.28 141.84 463.27 147.35 456.75 148.00
  C 448.75 148.79 448.58 145.03 443.52 141.26
  C 434.87 134.83 422.27 135.49 414.19 141.69
  C 409.20 145.51 408.46 153.80 412.36 158.68
  Q 414.63 161.52 419.97 163.66
  Q 435.73 169.96 448.07 156.82
  C 450.73 153.99 457.28 152.91 460.09 155.71
  Q 461.54 157.16 460.56 158.97
  C 453.02 172.80 439.29 177.19 424.23 175.68
  C 411.58 174.41 398.29 165.57 397.32 152.13
  Z"
/>
<path fill="#000000" d="
  M 199.76 146.38
  Q 201.19 147.01 203.25 146.96
  Q 223.21 146.52 243.17 147.17
  C 247.79 147.32 249.17 148.92 248.63 153.51
  Q 248.42 155.31 247.82 157.01
  Q 243.24 170.08 229.50 174.50
  Q 210.91 180.47 193.75 171.25
  Q 188.43 168.39 185.96 163.20
  A 1.30 1.17 43.3 0 1 185.88 162.27
  C 187.36 157.56 197.42 160.15 200.69 162.06
  C 204.69 164.40 207.92 166.50 212.66 166.50
  C 216.75 166.50 220.88 166.98 224.64 165.56
  Q 230.75 163.26 234.05 159.04
  Q 236.90 155.38 232.27 155.50
  Q 210.50 156.06 188.75 156.25
  C 178.25 156.34 185.68 141.63 188.88 138.19
  C 203.14 122.91 230.43 123.56 244.19 138.56
  Q 246.24 140.80 243.25 141.50
  C 237.40 142.88 234.32 142.00 228.09 139.68
  C 219.80 136.59 205.60 136.45 199.30 144.58
  A 1.18 1.17 -59.4 0 0 199.76 146.38
  Z"
/>
<path fill="#000000" d="
  M 551.18 153.79
  Q 550.13 159.77 551.11 166.52
  C 552.17 173.88 546.45 174.45 541.30 173.43
  C 536.58 172.50 537.45 168.12 537.59 163.54
  Q 538.20 143.64 537.50 135.75
  C 536.69 126.58 543.11 129.47 548.50 128.75
  Q 554.26 127.98 556.19 132.56
  Q 561.36 144.88 567.33 156.24
  Q 568.66 158.78 569.93 156.20
  Q 574.80 146.27 579.43 136.25
  C 581.76 131.19 581.94 128.61 588.63 128.42
  C 594.49 128.26 599.96 127.59 599.50 135.75
  Q 598.52 153.40 599.50 166.75
  C 599.82 171.03 597.99 173.72 593.62 173.81
  C 588.58 173.92 584.17 173.57 585.00 167.00
  Q 585.30 164.66 585.02 155.25
  A 1.45 1.03 -75.4 0 0 584.68 154.36
  Q 583.89 153.58 583.31 154.81
  Q 578.10 165.92 575.69 170.19
  C 573.62 173.83 569.21 174.05 565.54 173.53
  Q 561.55 172.96 559.75 168.50
  Q 556.65 160.83 552.68 153.54
  Q 551.58 151.53 551.18 153.79
  Z"
/>
<path fill="#000000" d="
  M 269.60 145.14
  Q 270.32 146.99 272.30 146.94
  Q 284.20 146.64 296.08 146.74
  C 298.26 146.76 300.24 146.41 301.86 148.06
  C 305.01 151.29 301.94 154.92 298.19 154.95
  Q 278.79 155.11 273.75 155.00
  Q 269.65 154.91 269.21 158.03
  C 268.74 161.40 268.97 165.26 273.44 165.25
  Q 286.08 165.21 298.73 165.30
  C 304.91 165.34 304.86 172.67 300.44 173.46
  Q 300.21 173.50 296.56 173.50
  Q 278.43 173.50 260.29 173.50
  C 255.44 173.50 255.40 171.11 255.52 167.23
  Q 256.12 147.90 255.50 133.50
  C 255.36 130.22 256.74 128.77 260.07 128.72
  Q 280.15 128.40 300.03 128.75
  Q 302.57 128.79 303.25 131.24
  C 304.52 135.83 301.86 137.73 297.57 137.79
  Q 285.76 137.98 272.49 137.72
  Q 270.48 137.68 269.69 139.52
  Q 268.49 142.29 269.60 145.14
  Z"
/>
<path fill="#000000" d="
  M 323.67 153.99
  C 321.01 149.14 322.23 166.30 322.25 166.50
  Q 322.87 172.26 318.53 173.29
  C 313.80 174.42 308.12 174.22 308.31 167.69
  Q 308.80 150.81 308.37 133.94
  C 308.20 127.14 316.18 128.71 320.32 128.77
  C 324.48 128.83 325.99 130.42 327.56 133.94
  Q 332.56 145.12 337.82 156.20
  Q 339.12 158.94 340.65 156.33
  C 345.04 148.84 347.92 140.66 352.08 133.03
  C 354.82 128.00 358.89 128.43 363.85 128.65
  Q 369.84 128.92 369.25 136.25
  Q 368.58 144.52 369.15 164.05
  C 369.36 171.13 370.03 173.48 361.94 173.51
  Q 360.10 173.51 358.27 173.26
  C 356.46 173.01 355.99 169.34 356.11 167.39
  Q 356.50 161.19 356.28 154.99
  C 356.24 153.79 355.17 152.05 354.27 154.04
  C 352.08 158.82 349.53 163.37 347.46 168.24
  C 345.51 172.81 343.75 173.58 339.00 173.50
  C 332.60 173.39 331.03 170.30 328.69 164.31
  Q 327.07 160.17 323.67 153.99
  Z"
/>
<rect fill="#000000" x="377.18" y="128.82" width="13.42" height="44.62" rx="3.84"/>
<path fill="#000000" d="
  M 89.19 151.45
  C 94.67 131.72 120.44 134.04 123.99 154.37
  A 0.54 0.54 -4.9 0 1 123.46 155.00
  L 115.00 155.00
  Q 113.70 155.00 112.94 153.06
  C 110.03 145.71 101.66 147.33 99.24 154.51
  A 0.72 0.71 9.0 0 1 98.56 155.00
  L 79.90 155.00
  A 0.69 0.69 81.4 0 1 79.24 154.51
  C 76.88 146.92 68.59 146.08 65.50 153.25
  A 2.81 1.78 -73.6 0 1 63.50 155.00
  L 55.50 155.00
  A 0.50 0.50 -89.4 0 1 55.00 154.49
  C 55.37 134.25 85.07 131.92 88.97 151.45
  Q 89.06 151.92 89.19 151.45
  Z"
/>
<path fill="#b98d0e" d="
  M 131.29 141.25
  Q 132.56 143.01 132.71 145.25
  C 130.97 146.16 131.39 142.41 131.29 141.25
  Z"
/>
<path fill="#b98d0e" d="
  M 132.71 153.75
  Q 133.20 158.06 131.04 161.75
  C 131.12 159.66 131.19 155.38 132.71 153.75
  Z"
/>
<path fill="#3939ff" d="
  M 19.54 171.75
  L 16.47 158.18
  L 33.70 158.00
  A 0.69 0.67 83.8 0 1 34.37 158.56
  C 38.98 183.00 56.94 203.28 82.49 205.87
  C 113.21 208.99 139.32 188.77 144.20 158.78
  A 0.94 0.93 4.7 0 1 145.13 158.00
  L 160.65 158.00
  A 0.99 0.99 -85.7 0 1 161.63 159.14
  C 149.98 237.93 43.83 247.46 19.54 171.75
  Z"
/>
</svg>
