<?xml version="1.0" encoding="UTF-8" standalone="no"?>
<!DOCTYPE svg PUBLIC "-//W3C//DTD SVG 1.1//EN" "http://www.w3.org/Graphics/SVG/1.1/DTD/svg11.dtd">
<svg xmlns="http://www.w3.org/2000/svg" version="1.1" viewBox="0 0 600 67">
<g stroke-width="2.00" fill="none" stroke-linecap="butt">
<path stroke="#016f14" vector-effect="non-scaling-stroke" d="
  M 126.31 0.00
  C 123.43 0.27 116.47 0.46 115.14 3.23
  A 1.37 1.14 -83.9 0 1 114.48 3.87
  C 113.42 4.31 107.17 7.00 106.76 7.61
  A 1.45 0.82 -70.0 0 1 106.08 8.19
  Q 104.15 8.77 108.00 8.96"
/>
<path stroke="#80ba89" vector-effect="non-scaling-stroke" d="
  M 108.00 8.96
  Q 99.75 9.03 91.50 9.00
  Q 89.88 8.99 90.35 10.25
  A 1.21 0.92 4.7 0 0 91.03 10.86
  C 94.97 12.27 96.37 14.48 98.00 18.21"
/>
<path stroke="#016f14" vector-effect="non-scaling-stroke" d="
  M 98.00 18.21
  Q 96.26 18.78 97.16 19.90
  A 0.45 0.44 51.8 0 1 97.09 20.55
  C 95.16 22.02 91.01 24.60 90.10 26.96
  A 0.89 0.89 -85.7 0 1 89.45 27.52
  C 86.31 28.23 80.44 34.12 77.82 36.36
  A 0.47 0.42 -35.2 0 1 77.13 36.28
  Q 76.78 35.64 77.05 34.77
  Q 78.13 31.28 75.13 29.62"
/>
<path stroke="#80ba89" vector-effect="non-scaling-stroke" d="
  M 75.13 29.62
  C 71.17 4.06 46.11 9.00 27.50 9.00
  Q 24.85 9.00 25.94 10.60
  A 0.97 0.83 -16.7 0 0 26.75 10.96
  Q 32.50 10.66 32.50 16.75
  Q 32.50 31.65 32.50 46.54
  C 32.50 51.86 33.19 56.32 26.56 56.09
  A 0.74 0.65 9.7 0 0 25.86 56.52
  Q 25.36 58.01 27.50 58.00
  Q 36.75 57.97 46.00 58.04"
/>
<path stroke="#016f14" vector-effect="non-scaling-stroke" d="
  M 46.00 58.04
  C 45.27 58.20 41.16 58.03 42.52 58.86
  C 43.32 59.36 45.26 59.63 46.27 59.88
  A 0.38 0.35 24.2 0 1 46.51 60.44
  L 44.78 62.83
  A 1.28 0.80 7.6 0 1 43.94 63.21
  Q 42.48 63.32 41.24 64.05
  A 1.25 1.23 -6.8 0 0 40.65 64.79
  Q 39.90 67.44 43.44 67.00"
/>
<path stroke="#016417" vector-effect="non-scaling-stroke" d="
  M 155.31 0.00
  L 152.22 0.81
  A 1.27 0.83 -77.1 0 0 151.54 1.46
  C 150.51 3.55 148.14 4.48 146.73 6.29
  A 1.46 0.74 -0.3 0 1 145.93 6.70
  L 141.71 7.57
  Q 141.28 7.66 141.71 7.95
  Q 142.20 8.29 141.75 8.96"
/>
<path stroke="#80b48a" vector-effect="non-scaling-stroke" d="
  M 141.75 8.96
  Q 134.50 9.03 127.25 9.05
  Q 125.90 9.06 125.98 10.20
  A 0.80 0.69 8.1 0 0 126.54 10.84
  L 129.71 11.82
  Q 131.95 12.51 130.99 14.62
  Q 126.94 23.50 121.06 32.45
  A 0.33 0.32 -43.5 0 1 120.51 32.44
  Q 115.31 23.60 111.06 14.44
  C 108.86 9.69 116.05 12.47 115.12 9.53
  A 0.74 0.69 -7.6 0 0 114.44 9.05
  L 108.00 8.96"
/>
<path stroke="#025b1a" vector-effect="non-scaling-stroke" d="
  M 204.56 0.00
  L 203.23 0.36
  A 0.36 0.33 64.9 0 0 203.07 0.89
  C 204.06 2.44 201.15 3.48 200.20 4.24
  A 1.33 0.99 79.6 0 0 199.79 5.07
  Q 199.67 6.22 198.71 5.94
  A 1.32 1.15 -47.1 0 0 197.84 6.03
  L 194.78 7.53
  Q 194.46 7.69 194.80 7.80
  Q 195.87 8.15 191.90 8.60
  Q 191.25 8.67 191.90 8.69
  L 200.75 8.96"
/>
<path stroke="#80af8c" vector-effect="non-scaling-stroke" d="
  M 200.75 8.96
  L 190.82 9.06
  A 0.89 0.73 10.1 0 0 190.05 9.49
  Q 189.75 10.13 190.14 10.65
  A 1.27 0.75 -8.3 0 0 191.01 11.01
  C 194.32 11.19 196.16 12.83 196.41 16.29
  Q 197.06 25.36 196.71 35.32
  Q 196.69 35.99 196.27 35.46
  L 175.98 9.40
  A 1.06 1.03 -18.3 0 0 175.15 9.00
  Q 166.75 9.00 158.75 9.00
  Q 156.76 9.00 157.04 10.34
  A 0.85 0.69 2.9 0 0 157.67 10.91
  C 166.46 12.80 164.03 23.49 163.96 30.00"
/>
<path stroke="#02581b" vector-effect="non-scaling-stroke" d="
  M 163.96 30.00
  L 163.69 46.68
  Q 163.68 46.86 163.62 46.69
  L 162.71 44.44
  Q 162.51 43.92 162.18 44.45
  C 160.74 46.79 158.37 47.81 156.47 49.71
  C 154.40 51.78 152.02 52.38 149.87 54.48
  Q 147.32 56.97 143.00 59.75
  Q 141.91 60.45 136.94 64.74
  A 0.57 0.49 54.0 0 0 136.88 65.44
  C 137.65 66.62 134.36 65.52 135.19 67.00"
/>
<path stroke="#016417" vector-effect="non-scaling-stroke" d="
  M 79.44 67.00
  Q 79.20 64.65 80.05 62.47
  A 1.71 1.48 -9.2 0 1 80.67 61.73
  L 85.14 58.84
  Q 85.54 58.58 85.78 58.11
  Q 87.30 55.21 90.22 54.09
  Q 91.87 53.46 92.60 52.77
  Q 93.62 51.80 94.50 50.71
  Q 94.81 50.33 95.27 50.14
  Q 97.32 49.30 98.70 47.64
  A 1.37 1.22 12.8 0 1 99.50 47.20
  C 102.70 46.70 102.39 43.91 104.65 42.12
  A 0.99 0.92 -22.4 0 0 105.02 41.32
  Q 104.79 37.88 106.79 35.00"
/>
<path stroke="#80af8c" vector-effect="non-scaling-stroke" d="
  M 106.79 35.00
  C 108.34 37.48 109.75 39.48 109.75 42.58
  C 109.75 47.64 112.03 56.96 103.26 56.06
  A 0.93 0.76 17.2 0 0 102.44 56.39
  C 101.49 57.79 102.96 58.00 103.93 58.00
  Q 116.81 58.04 129.69 57.94
  A 1.34 1.06 17.9 0 0 130.57 57.61
  C 132.37 55.82 126.01 55.94 124.81 54.84
  C 122.57 52.77 123.48 42.57 123.50 39.27
  Q 123.51 38.36 123.95 37.56
  Q 129.78 27.07 135.43 17.54
  C 137.27 14.43 138.24 12.36 141.85 10.98
  A 1.53 0.94 -6.4 0 0 142.59 10.40
  Q 143.15 9.38 141.75 8.96"
/>
<path stroke="#02541c" vector-effect="non-scaling-stroke" d="
  M 234.81 0.00
  Q 233.97 0.44 232.94 0.24
  Q 231.57 -0.03 232.76 0.70
  C 236.08 2.74 229.40 7.04 228.00 7.75
  C 225.09 9.22 223.48 11.58 221.60 12.99
  C 215.39 17.64 209.64 21.20 204.71 26.05
  A 0.66 0.35 17.3 0 1 204.22 26.14
  L 203.92 26.09
  A 0.74 0.52 -77.1 0 0 203.28 26.67
  L 202.40 30.20
  Q 202.34 30.45 202.35 30.18
  Q 202.39 29.04 202.01 28.02
  Q 201.83 27.55 201.82 28.06
  L 201.54 37.00"
/>
<path stroke="#81ab8d" vector-effect="non-scaling-stroke" d="
  M 201.54 37.00
  L 201.75 15.00
  Q 201.78 12.00 204.25 11.75
  Q 205.90 11.58 207.32 10.77
  A 0.91 0.73 -20.2 0 0 207.78 10.01
  C 207.63 8.41 202.02 8.99 200.75 8.96"
/>
<path stroke="#034b1f" vector-effect="non-scaling-stroke" d="
  M 306.56 0.00
  Q 302.04 0.45 297.50 0.57
  Q 294.94 0.63 296.58 1.10
  A 0.46 0.45 20.3 0 1 296.87 1.72
  C 295.89 3.97 293.55 4.40 291.74 6.78
  A 1.18 0.78 8.8 0 1 290.95 7.14
  Q 290.42 7.18 290.39 7.69
  A 0.47 0.46 -88.6 0 1 289.94 8.13
  Q 289.23 8.16 289.25 8.96"
/>
<path stroke="#81a88e" vector-effect="non-scaling-stroke" d="
  M 289.25 8.96
  Q 287.38 9.91 289.00 11.04"
/>
<path stroke="#034b1f" vector-effect="non-scaling-stroke" d="
  M 289.00 11.04
  Q 289.08 11.60 288.77 11.87
  A 0.76 0.50 43.0 0 1 287.94 11.73
  C 283.54 8.02 283.36 15.51 279.06 16.25
  A 0.68 0.67 -89.9 0 0 278.51 16.81
  Q 278.22 18.45 276.68 18.37
  A 1.35 0.77 -52.6 0 0 275.87 18.71
  L 274.51 19.83
  A 0.79 0.63 -28.9 0 0 274.22 20.53
  Q 274.43 21.49 273.24 21.34
  A 1.20 0.89 21.4 0 0 272.38 21.57
  Q 270.90 22.93 270.17 24.79
  A 0.56 0.55 18.2 0 1 269.52 25.11
  C 264.34 23.82 264.83 34.23 259.20 28.22"
/>
<path stroke="#81a88e" vector-effect="non-scaling-stroke" d="
  M 259.20 28.22
  L 250.94 8.97
  A 1.48 1.19 87.2 0 0 250.31 8.26
  Q 247.62 6.95 246.44 9.73
  Q 239.50 26.07 232.52 42.40
  Q 230.09 48.10 226.75 53.32
  C 226.24 54.12 219.25 57.89 223.73 57.95
  Q 229.74 58.02 235.75 58.04"
/>
<path stroke="#034b1f" vector-effect="non-scaling-stroke" d="
  M 235.75 58.04
  Q 229.82 58.40 223.87 58.26
  C 221.66 58.21 222.46 59.64 224.08 59.37
  Q 225.92 59.07 225.19 59.52
  A 1.74 0.73 12.4 0 1 224.25 59.69
  Q 223.09 59.66 222.95 60.69
  A 1.42 0.78 85.7 0 1 222.57 61.53
  Q 221.60 62.34 220.30 62.34
  A 1.55 0.94 14.9 0 0 219.41 62.60
  Q 218.02 63.70 217.10 66.06
  Q 216.80 66.83 217.60 66.64
  Q 218.69 66.38 218.94 67.00"
/>
<path stroke="#81a88e" vector-effect="non-scaling-stroke" d="
  M 163.96 30.00
  Q 164.03 39.50 164.08 49.00
  Q 164.11 55.66 157.81 56.04
  A 0.80 0.71 5.7 0 0 157.13 56.53
  C 156.45 58.67 159.02 58.00 160.08 58.02
  Q 167.55 58.16 175.00 57.78
  A 0.85 0.72 7.0 0 0 175.72 57.31
  Q 176.17 56.12 174.75 56.00
  Q 168.36 55.45 168.35 49.25
  Q 168.31 35.87 168.73 22.51
  Q 168.75 22.00 169.06 22.39
  Q 183.15 39.97 197.02 57.72
  Q 198.70 59.87 201.12 58.78
  A 0.81 0.72 79.6 0 0 201.56 58.06
  L 201.54 37.00"
/>
<path stroke="#044920" vector-effect="non-scaling-stroke" d="
  M 399.06 0.00
  L 405.43 0.56
  Q 405.76 0.59 405.44 0.67
  Q 403.95 1.05 402.80 2.09
  A 1.71 1.36 14.6 0 1 401.94 2.47
  Q 400.74 2.64 400.15 3.73
  A 1.79 1.49 -85.1 0 1 399.49 4.40
  Q 397.33 5.54 397.40 7.94
  A 0.55 0.50 86.7 0 1 396.94 8.51
  L 392.50 8.96"
/>
<path stroke="#82a290" vector-effect="non-scaling-stroke" d="
  M 392.50 8.96
  L 387.31 9.05
  A 1.09 0.97 15.9 0 0 386.49 9.45
  Q 385.33 11.01 387.50 11.00
  Q 393.06 10.98 393.05 16.25
  Q 393.03 24.87 392.96 33.50"
/>
<path stroke="#034b1f" vector-effect="non-scaling-stroke" d="
  M 392.96 33.50
  Q 391.72 33.47 391.40 34.57
  A 0.41 0.35 17.4 0 1 390.89 34.79
  C 389.60 34.35 386.80 37.12 386.23 37.78
  C 385.04 39.17 383.66 38.88 382.28 40.21
  Q 379.69 42.70 376.84 44.87
  C 375.72 45.72 374.16 45.55 373.56 47.45
  A 1.28 1.06 89.0 0 1 372.99 48.16
  Q 367.98 50.77 362.72 56.57
  A 2.22 2.19 -75.4 0 1 361.63 57.22
  Q 355.91 58.61 354.04 63.66
  A 2.04 2.03 -80.4 0 1 352.18 64.99
  Q 350.67 65.03 349.71 65.64
  Q 349.25 65.94 349.81 65.94
  Q 354.92 66.03 351.44 67.00"
/>
<path stroke="#82a290" vector-effect="non-scaling-stroke" d="
  M 235.75 58.04
  L 239.45 57.95
  A 1.00 0.88 13.9 0 0 240.24 57.54
  Q 241.08 56.23 238.92 55.96
  Q 237.43 55.78 236.05 55.16
  C 232.07 53.38 235.63 47.05 236.93 44.45
  A 0.83 0.80 -76.0 0 1 237.65 44.00
  L 250.22 44.00
  A 1.73 1.72 78.8 0 1 251.81 45.07
  Q 253.15 48.35 254.33 50.96
  C 257.53 58.03 247.59 54.78 249.73 57.56
  A 1.11 0.90 -14.6 0 0 250.57 57.94
  Q 269.30 58.12 273.25 58.00
  Q 275.29 57.94 274.58 56.61
  A 1.34 0.94 2.1 0 0 273.84 56.05
  Q 270.98 55.10 269.81 52.69
  Q 265.20 43.18 259.20 28.22"
/>
<path stroke="#82a290" vector-effect="non-scaling-stroke" d="
  M 289.00 11.04
  Q 292.26 12.43 294.81 16.69
  Q 297.01 20.36 307.47 35.59
  A 0.70 0.68 -43.5 0 1 307.44 36.40
  C 303.43 41.48 295.20 53.82 289.16 55.58
  C 286.85 56.25 286.29 57.99 289.26 58.00
  Q 297.85 58.04 306.44 57.94
  A 1.43 1.15 19.2 0 0 307.34 57.62
  C 308.96 56.17 303.55 55.52 302.28 54.43
  Q 300.78 53.15 301.91 51.67
  L 310.17 40.88
  A 0.39 0.38 47.3 0 1 310.80 40.91
  L 318.89 53.32
  A 1.24 1.22 64.4 0 1 318.26 55.16
  L 315.80 55.95
  A 1.56 0.83 -4.8 0 0 315.01 56.46
  Q 313.97 57.99 316.25 57.99
  Q 327.37 58.00 338.50 57.91
  Q 340.46 57.90 339.82 56.61
  A 1.54 0.97 8.2 0 0 339.10 56.00
  C 335.74 54.52 334.75 52.52 332.82 49.65
  Q 326.17 39.78 319.83 29.87
  A 0.89 0.88 -42.2 0 1 319.89 28.84
  C 324.08 23.64 331.61 11.83 337.95 10.76
  A 0.88 0.73 1.1 0 0 338.63 10.22
  Q 339.00 9.00 337.25 8.99
  Q 328.66 8.95 320.06 9.06
  A 0.94 0.85 14.0 0 0 319.28 9.48
  C 317.75 12.05 325.93 10.36 323.69 15.44
  Q 322.10 19.03 316.90 24.58
  A 0.40 0.40 -40.3 0 1 316.27 24.53
  L 309.25 13.44
  A 0.79 0.77 46.3 0 1 309.26 12.58
  Q 310.29 11.09 312.13 10.99
  C 314.67 10.86 314.50 9.00 312.33 9.00
  Q 300.79 9.03 289.25 8.96"
/>
<path stroke="#03541c" vector-effect="non-scaling-stroke" d="
  M 442.07 0.01
  Q 440.70 1.54 435.81 5.81
  Q 433.77 7.60 435.94 7.79
  Q 436.12 7.80 435.93 7.84
  L 431.17 8.83"
/>
<path stroke="#81a68f" vector-effect="non-scaling-stroke" d="
  M 431.17 8.83
  Q 427.26 9.04 430.00 11.04"
/>
<path stroke="#03521d" vector-effect="non-scaling-stroke" d="
  M 430.00 11.04
  Q 429.94 13.21 428.17 12.92
  A 1.37 0.72 19.1 0 0 427.25 13.06
  L 424.11 15.40
  A 0.36 0.36 57.3 0 1 423.58 15.28
  Q 423.15 14.51 422.16 15.45
  Q 421.94 15.66 421.71 16.29
  Q 421.49 16.93 420.80 17.04
  A 0.71 0.65 0.2 0 0 420.23 17.56
  C 419.38 21.47 417.07 20.42 414.43 21.98
  A 1.07 0.88 81.5 0 0 413.98 22.74
  Q 413.81 24.14 412.37 24.07
  A 2.57 1.98 -59.2 0 0 410.70 24.73
  L 408.27 26.91
  Q 407.67 27.44 407.64 27.54
  C 407.24 28.77 407.73 33.70 406.54 33.50"
/>
<path stroke="#81a68f" vector-effect="non-scaling-stroke" d="
  M 406.54 33.50
  Q 406.31 24.38 406.67 15.28
  C 406.90 9.70 413.99 11.94 412.91 9.50
  A 0.81 0.72 -10.4 0 0 412.19 9.06
  L 392.50 8.96"
/>
<path stroke="#026118" vector-effect="non-scaling-stroke" d="
  M 514.31 0.00
  L 512.46 0.33
  Q 512.30 0.36 512.45 0.39
  Q 513.04 0.54 512.79 0.66
  Q 512.41 0.85 512.29 0.98
  C 510.13 3.40 503.33 10.37 499.91 11.02
  A 2.57 2.55 15.7 0 0 498.51 11.80
  Q 493.66 17.16 488.29 20.60
  Q 481.78 24.77 481.00 26.00
  Q 479.46 28.43 475.42 30.03
  A 0.48 0.48 74.4 0 1 474.77 29.66
  Q 474.42 27.36 474.07 29.11
  Q 473.99 29.50 473.95 29.11
  L 473.54 24.75"
/>
<path stroke="#81ad8d" vector-effect="non-scaling-stroke" d="
  M 473.54 24.75
  L 473.79 14.58
  Q 473.84 12.57 476.07 11.87
  L 479.21 10.87
  A 0.72 0.69 -9.5 0 0 479.72 10.19
  C 479.69 8.60 478.36 9.00 477.26 9.00
  Q 470.50 9.00 463.75 9.00
  Q 461.61 9.00 462.12 10.48
  A 0.84 0.71 -4.8 0 0 462.81 10.97
  Q 468.66 11.42 468.69 17.50
  Q 468.75 26.50 468.75 35.38
  Q 468.75 36.03 468.35 35.52
  L 448.08 9.53
  A 1.45 1.35 -17.6 0 0 446.96 9.00
  L 431.17 8.83"
/>
<path stroke="#016e14" vector-effect="non-scaling-stroke" d="
  M 547.56 0.00
  L 552.76 0.50
  Q 555.51 0.77 553.26 2.34
  C 552.21 3.06 544.37 8.13 544.10 9.02
  Q 543.99 9.37 543.79 9.06
  Q 543.27 8.23 542.54 9.75"
/>
<path stroke="#80b38b" vector-effect="non-scaling-stroke" d="
  M 542.54 9.75
  Q 542.85 7.38 539.45 8.28
  A 1.02 1.01 86.6 0 0 538.70 9.13
  Q 538.44 11.09 536.13 10.25
  C 526.81 6.88 516.15 6.86 507.66 12.13
  C 493.51 20.92 491.31 42.45 504.54 53.75"
/>
<path stroke="#016e14" vector-effect="non-scaling-stroke" d="
  M 504.54 53.75
  Q 503.46 53.97 502.48 53.45
  A 0.79 0.67 37.3 0 0 501.66 53.49
  L 496.93 57.48
  Q 496.54 57.80 496.08 57.93
  Q 494.01 58.51 493.04 60.47
  A 0.47 0.32 -72.5 0 1 492.70 60.74
  L 492.47 60.73
  A 1.05 0.38 8.4 0 0 491.74 60.88
  L 485.58 66.38
  A 1.58 0.98 13.3 0 1 484.68 66.68
  L 475.19 67.00"
/>
<path stroke="#016317" vector-effect="non-scaling-stroke" d="
  M 441.89 66.95
  Q 444.19 64.86 446.66 63.00
  C 450.57 60.05 453.66 56.58 458.50 53.96
  Q 459.33 53.51 459.93 52.78
  Q 461.78 50.54 463.09 53.16
  A 0.41 0.40 -23.1 0 0 463.60 53.36
  L 463.96 53.22
  A 0.72 0.56 59.0 0 1 464.67 53.49
  Q 465.10 54.02 465.75 53.46"
/>
<path stroke="#80b38b" vector-effect="non-scaling-stroke" d="
  M 465.75 53.46
  C 467.57 55.66 469.67 60.26 473.12 58.78
  A 0.79 0.73 79.3 0 0 473.56 58.07
  L 473.54 24.75"
/>
<path stroke="#80ba89" vector-effect="non-scaling-stroke" d="
  M 504.54 53.75
  C 515.23 60.80 530.69 61.60 540.88 52.82
  A 1.30 0.81 -28.0 0 0 541.35 52.01
  L 541.40 47.69
  A 0.67 0.61 5.3 0 0 540.83 47.07
  Q 539.43 46.84 538.31 48.31
  C 531.14 57.73 516.63 59.57 512.46 46.00"
/>
<path stroke="#016f14" vector-effect="non-scaling-stroke" d="
  M 512.46 46.00
  C 512.83 45.42 513.00 43.20 513.69 43.86
  A 0.62 0.52 47.5 0 0 514.42 43.96
  L 518.35 41.06
  A 1.76 1.08 -87.3 0 0 518.89 40.27
  C 519.70 37.94 523.05 37.10 525.09 35.59
  C 526.22 34.76 526.63 33.25 528.50 33.00
  A 2.20 2.20 18.2 0 0 529.78 32.36
  C 532.47 29.64 537.21 28.37 536.88 24.55
  A 0.54 0.46 85.5 0 1 537.30 23.97
  Q 538.03 23.94 538.71 24.50"
/>
<path stroke="#80ba89" vector-effect="non-scaling-stroke" d="
  M 538.71 24.50
  Q 539.51 25.33 542.01 24.67
  A 0.68 0.66 82.8 0 0 542.50 24.02
  L 542.54 9.75"
/>
<path stroke="#80ba89" vector-effect="non-scaling-stroke" d="
  M 575.6809 52.5117
  A 5.47 5.47 0.0 0 0 570.2204 47.0322
  L 567.7004 47.0278
  A 5.47 5.47 0.0 0 0 562.2209 52.4883
  L 562.2191 53.4883
  A 5.47 5.47 0.0 0 0 567.6796 58.9678
  L 570.1996 58.9722
  A 5.47 5.47 0.0 0 0 575.6791 53.5117
  L 575.6809 52.5117"
/>
<path stroke="#81a68f" vector-effect="non-scaling-stroke" d="
  M 238.77 40.54
  A 0.32 0.32 11.3 0 0 239.06 40.99
  L 249.60 41.01
  A 0.32 0.32 78.6 0 0 249.90 40.56
  L 244.65 28.20
  A 0.32 0.32 -43.6 0 0 244.06 28.20
  L 238.77 40.54"
/>
<path stroke="#80b48a" vector-effect="non-scaling-stroke" d="
  M 538.71 24.50
  C 537.19 16.99 530.30 9.18 522.00 11.69
  C 508.87 15.67 508.95 35.43 512.46 46.00"
/>
<path stroke="#80b48a" vector-effect="non-scaling-stroke" d="
  M 75.13 29.62
  C 77.67 48.98 64.03 59.49 46.00 58.04"
/>
<path stroke="#80b889" vector-effect="non-scaling-stroke" d="
  M 59.09 22.22
  C 57.44 16.00 52.99 12.50 46.62 11.99
  A 0.57 0.57 2.3 0 0 46.00 12.56
  Q 46.00 32.13 45.85 51.00
  Q 45.81 55.74 50.25 54.75
  C 62.42 52.03 61.52 31.33 59.09 22.22"
/>
<path stroke="#80b48a" vector-effect="non-scaling-stroke" d="
  M 106.79 35.00
  L 98.00 18.21"
/>
<path stroke="#81ab8d" vector-effect="non-scaling-stroke" d="
  M 406.54 33.50
  Q 406.30 42.68 406.68 51.86
  C 406.91 57.44 413.78 54.79 412.88 57.48
  A 0.74 0.66 8.0 0 1 412.19 57.94
  Q 399.97 58.05 387.75 58.00
  Q 386.16 57.99 386.13 56.50"
/>
<path stroke="#81a88e" vector-effect="non-scaling-stroke" d="
  M 386.13 56.50
  Q 386.83 56.03 388.75 56.00
  C 391.75 55.95 392.71 53.83 392.83 51.04
  Q 393.19 42.27 392.96 33.50"
/>
<path stroke="#80af8c" vector-effect="non-scaling-stroke" d="
  M 465.75 53.46
  L 441.06 22.38
  Q 440.75 22.00 440.73 22.49
  Q 440.18 36.23 440.66 49.98
  C 440.80 53.87 442.73 55.83 446.50 55.99
  A 1.75 1.10 -14.0 0 1 447.41 56.29
  C 448.93 57.51 446.96 58.00 446.07 58.00
  Q 438.16 57.97 430.25 58.04"
/>
<path stroke="#81ab8d" vector-effect="non-scaling-stroke" d="
  M 430.25 58.04
  Q 428.42 57.96 429.08 56.51
  A 0.92 0.77 7.4 0 1 429.82 56.04
  Q 435.93 55.63 435.96 49.25
  Q 436.04 34.10 435.95 18.95
  C 435.93 14.60 434.15 11.98 430.00 11.04"
/>
<path stroke="#025b1a" vector-effect="non-scaling-stroke" d="
  M 430.25 58.04
  Q 430.95 58.84 430.85 59.77
  A 0.76 0.62 -4.3 0 1 430.25 60.34
  C 426.36 61.18 426.36 64.62 422.81 65.47
  A 1.42 0.73 -3.1 0 0 421.99 65.95
  Q 421.72 66.39 421.69 67.00"
/>
<path stroke="#02541c" vector-effect="non-scaling-stroke" d="
  M 376.94 67.00
  C 377.16 65.62 375.54 66.38 375.04 66.00
  Q 374.54 65.61 375.32 65.57
  Q 376.92 65.50 377.05 63.96
  A 0.42 0.32 -82.4 0 1 377.45 63.56
  Q 377.67 63.61 377.81 63.80
  A 0.40 0.31 48.5 0 0 378.35 63.90
  L 380.23 61.94
  Q 380.56 61.58 381.03 61.41
  C 382.11 61.00 384.51 58.25 385.06 58.78
  A 0.56 0.28 49.4 0 0 385.52 58.97
  L 385.80 58.88
  Q 386.41 58.66 385.71 58.39
  Q 383.13 57.36 386.13 56.50"
/>
</g>
<path fill="#007412" d="
  M 0.00 0.00
  L 126.31 0.00
  C 123.43 0.27 116.47 0.46 115.14 3.23
  A 1.37 1.14 -83.9 0 1 114.48 3.87
  C 113.42 4.31 107.17 7.00 106.76 7.61
  A 1.45 0.82 -70.0 0 1 106.08 8.19
  Q 104.15 8.77 108.00 8.96
  Q 99.75 9.03 91.50 9.00
  Q 89.88 8.99 90.35 10.25
  A 1.21 0.92 4.7 0 0 91.03 10.86
  C 94.97 12.27 96.37 14.48 98.00 18.21
  Q 96.26 18.78 97.16 19.90
  A 0.45 0.44 51.8 0 1 97.09 20.55
  C 95.16 22.02 91.01 24.60 90.10 26.96
  A 0.89 0.89 -85.7 0 1 89.45 27.52
  C 86.31 28.23 80.44 34.12 77.82 36.36
  A 0.47 0.42 -35.2 0 1 77.13 36.28
  Q 76.78 35.64 77.05 34.77
  Q 78.13 31.28 75.13 29.62
  C 71.17 4.06 46.11 9.00 27.50 9.00
  Q 24.85 9.00 25.94 10.60
  A 0.97 0.83 -16.7 0 0 26.75 10.96
  Q 32.50 10.66 32.50 16.75
  Q 32.50 31.65 32.50 46.54
  C 32.50 51.86 33.19 56.32 26.56 56.09
  A 0.74 0.65 9.7 0 0 25.86 56.52
  Q 25.36 58.01 27.50 58.00
  Q 36.75 57.97 46.00 58.04
  C 45.27 58.20 41.16 58.03 42.52 58.86
  C 43.32 59.36 45.26 59.63 46.27 59.88
  A 0.38 0.35 24.2 0 1 46.51 60.44
  L 44.78 62.83
  A 1.28 0.80 7.6 0 1 43.94 63.21
  Q 42.48 63.32 41.24 64.05
  A 1.25 1.23 -6.8 0 0 40.65 64.79
  Q 39.90 67.44 43.44 67.00
  L 0.00 67.00
  L 0.00 0.00
  Z"
/>
<path fill="#016915" d="
  M 126.31 0.00
  L 155.31 0.00
  L 152.22 0.81
  A 1.27 0.83 -77.1 0 0 151.54 1.46
  C 150.51 3.55 148.14 4.48 146.73 6.29
  A 1.46 0.74 -0.3 0 1 145.93 6.70
  L 141.71 7.57
  Q 141.28 7.66 141.71 7.95
  Q 142.20 8.29 141.75 8.96
  Q 134.50 9.03 127.25 9.05
  Q 125.90 9.06 125.98 10.20
  A 0.80 0.69 8.1 0 0 126.54 10.84
  L 129.71 11.82
  Q 131.95 12.51 130.99 14.62
  Q 126.94 23.50 121.06 32.45
  A 0.33 0.32 -43.5 0 1 120.51 32.44
  Q 115.31 23.60 111.06 14.44
  C 108.86 9.69 116.05 12.47 115.12 9.53
  A 0.74 0.69 -7.6 0 0 114.44 9.05
  L 108.00 8.96
  Q 104.15 8.77 106.08 8.19
  A 1.45 0.82 -70.0 0 0 106.76 7.61
  C 107.17 7.00 113.42 4.31 114.48 3.87
  A 1.37 1.14 -83.9 0 0 115.14 3.23
  C 116.47 0.46 123.43 0.27 126.31 0.00
  Z"
/>
<path fill="#015f18" d="
  M 155.31 0.00
  L 204.56 0.00
  L 203.23 0.36
  A 0.36 0.33 64.9 0 0 203.07 0.89
  C 204.06 2.44 201.15 3.48 200.20 4.24
  A 1.33 0.99 79.6 0 0 199.79 5.07
  Q 199.67 6.22 198.71 5.94
  A 1.32 1.15 -47.1 0 0 197.84 6.03
  L 194.78 7.53
  Q 194.46 7.69 194.80 7.80
  Q 195.87 8.15 191.90 8.60
  Q 191.25 8.67 191.90 8.69
  L 200.75 8.96
  L 190.82 9.06
  A 0.89 0.73 10.1 0 0 190.05 9.49
  Q 189.75 10.13 190.14 10.65
  A 1.27 0.75 -8.3 0 0 191.01 11.01
  C 194.32 11.19 196.16 12.83 196.41 16.29
  Q 197.06 25.36 196.71 35.32
  Q 196.69 35.99 196.27 35.46
  L 175.98 9.40
  A 1.06 1.03 -18.3 0 0 175.15 9.00
  Q 166.75 9.00 158.75 9.00
  Q 156.76 9.00 157.04 10.34
  A 0.85 0.69 2.9 0 0 157.67 10.91
  C 166.46 12.80 164.03 23.49 163.96 30.00
  L 163.69 46.68
  Q 163.68 46.86 163.62 46.69
  L 162.71 44.44
  Q 162.51 43.92 162.18 44.45
  C 160.74 46.79 158.37 47.81 156.47 49.71
  C 154.40 51.78 152.02 52.38 149.87 54.48
  Q 147.32 56.97 143.00 59.75
  Q 141.91 60.45 136.94 64.74
  A 0.57 0.49 54.0 0 0 136.88 65.44
  C 137.65 66.62 134.36 65.52 135.19 67.00
  L 79.44 67.00
  Q 79.20 64.65 80.05 62.47
  A 1.71 1.48 -9.2 0 1 80.67 61.73
  L 85.14 58.84
  Q 85.54 58.58 85.78 58.11
  Q 87.30 55.21 90.22 54.09
  Q 91.87 53.46 92.60 52.77
  Q 93.62 51.80 94.50 50.71
  Q 94.81 50.33 95.27 50.14
  Q 97.32 49.30 98.70 47.64
  A 1.37 1.22 12.8 0 1 99.50 47.20
  C 102.70 46.70 102.39 43.91 104.65 42.12
  A 0.99 0.92 -22.4 0 0 105.02 41.32
  Q 104.79 37.88 106.79 35.00
  C 108.34 37.48 109.75 39.48 109.75 42.58
  C 109.75 47.64 112.03 56.96 103.26 56.06
  A 0.93 0.76 17.2 0 0 102.44 56.39
  C 101.49 57.79 102.96 58.00 103.93 58.00
  Q 116.81 58.04 129.69 57.94
  A 1.34 1.06 17.9 0 0 130.57 57.61
  C 132.37 55.82 126.01 55.94 124.81 54.84
  C 122.57 52.77 123.48 42.57 123.50 39.27
  Q 123.51 38.36 123.95 37.56
  Q 129.78 27.07 135.43 17.54
  C 137.27 14.43 138.24 12.36 141.85 10.98
  A 1.53 0.94 -6.4 0 0 142.59 10.40
  Q 143.15 9.38 141.75 8.96
  Q 142.20 8.29 141.71 7.95
  Q 141.28 7.66 141.71 7.57
  L 145.93 6.70
  A 1.46 0.74 -0.3 0 0 146.73 6.29
  C 148.14 4.48 150.51 3.55 151.54 1.46
  A 1.27 0.83 -77.1 0 1 152.22 0.81
  L 155.31 0.00
  Z"
/>
<path fill="#02571b" d="
  M 204.56 0.00
  L 234.81 0.00
  Q 233.97 0.44 232.94 0.24
  Q 231.57 -0.03 232.76 0.70
  C 236.08 2.74 229.40 7.04 228.00 7.75
  C 225.09 9.22 223.48 11.58 221.60 12.99
  C 215.39 17.64 209.64 21.20 204.71 26.05
  A 0.66 0.35 17.3 0 1 204.22 26.14
  L 203.92 26.09
  A 0.74 0.52 -77.1 0 0 203.28 26.67
  L 202.40 30.20
  Q 202.34 30.45 202.35 30.18
  Q 202.39 29.04 202.01 28.02
  Q 201.83 27.55 201.82 28.06
  L 201.54 37.00
  L 201.75 15.00
  Q 201.78 12.00 204.25 11.75
  Q 205.90 11.58 207.32 10.77
  A 0.91 0.73 -20.2 0 0 207.78 10.01
  C 207.63 8.41 202.02 8.99 200.75 8.96
  L 191.90 8.69
  Q 191.25 8.67 191.90 8.60
  Q 195.87 8.15 194.80 7.80
  Q 194.46 7.69 194.78 7.53
  L 197.84 6.03
  A 1.32 1.15 -47.1 0 1 198.71 5.94
  Q 199.67 6.22 199.79 5.07
  A 1.33 0.99 79.6 0 1 200.20 4.24
  C 201.15 3.48 204.06 2.44 203.07 0.89
  A 0.36 0.33 64.9 0 1 203.23 0.36
  L 204.56 0.00
  Z"
/>
<path fill="#02501d" d="
  M 234.81 0.00
  L 306.56 0.00
  Q 302.04 0.45 297.50 0.57
  Q 294.94 0.63 296.58 1.10
  A 0.46 0.45 20.3 0 1 296.87 1.72
  C 295.89 3.97 293.55 4.40 291.74 6.78
  A 1.18 0.78 8.8 0 1 290.95 7.14
  Q 290.42 7.18 290.39 7.69
  A 0.47 0.46 -88.6 0 1 289.94 8.13
  Q 289.23 8.16 289.25 8.96
  Q 287.38 9.91 289.00 11.04
  Q 289.08 11.60 288.77 11.87
  A 0.76 0.50 43.0 0 1 287.94 11.73
  C 283.54 8.02 283.36 15.51 279.06 16.25
  A 0.68 0.67 -89.9 0 0 278.51 16.81
  Q 278.22 18.45 276.68 18.37
  A 1.35 0.77 -52.6 0 0 275.87 18.71
  L 274.51 19.83
  A 0.79 0.63 -28.9 0 0 274.22 20.53
  Q 274.43 21.49 273.24 21.34
  A 1.20 0.89 21.4 0 0 272.38 21.57
  Q 270.90 22.93 270.17 24.79
  A 0.56 0.55 18.2 0 1 269.52 25.11
  C 264.34 23.82 264.83 34.23 259.20 28.22
  L 250.94 8.97
  A 1.48 1.19 87.2 0 0 250.31 8.26
  Q 247.62 6.95 246.44 9.73
  Q 239.50 26.07 232.52 42.40
  Q 230.09 48.10 226.75 53.32
  C 226.24 54.12 219.25 57.89 223.73 57.95
  Q 229.74 58.02 235.75 58.04
  Q 229.82 58.40 223.87 58.26
  C 221.66 58.21 222.46 59.64 224.08 59.37
  Q 225.92 59.07 225.19 59.52
  A 1.74 0.73 12.4 0 1 224.25 59.69
  Q 223.09 59.66 222.95 60.69
  A 1.42 0.78 85.7 0 1 222.57 61.53
  Q 221.60 62.34 220.30 62.34
  A 1.55 0.94 14.9 0 0 219.41 62.60
  Q 218.02 63.70 217.10 66.06
  Q 216.80 66.83 217.60 66.64
  Q 218.69 66.38 218.94 67.00
  L 135.19 67.00
  C 134.36 65.52 137.65 66.62 136.88 65.44
  A 0.57 0.49 54.0 0 1 136.94 64.74
  Q 141.91 60.45 143.00 59.75
  Q 147.32 56.97 149.87 54.48
  C 152.02 52.38 154.40 51.78 156.47 49.71
  C 158.37 47.81 160.74 46.79 162.18 44.45
  Q 162.51 43.92 162.71 44.44
  L 163.62 46.69
  Q 163.68 46.86 163.69 46.68
  L 163.96 30.00
  Q 164.03 39.50 164.08 49.00
  Q 164.11 55.66 157.81 56.04
  A 0.80 0.71 5.7 0 0 157.13 56.53
  C 156.45 58.67 159.02 58.00 160.08 58.02
  Q 167.55 58.16 175.00 57.78
  A 0.85 0.72 7.0 0 0 175.72 57.31
  Q 176.17 56.12 174.75 56.00
  Q 168.36 55.45 168.35 49.25
  Q 168.31 35.87 168.73 22.51
  Q 168.75 22.00 169.06 22.39
  Q 183.15 39.97 197.02 57.72
  Q 198.70 59.87 201.12 58.78
  A 0.81 0.72 79.6 0 0 201.56 58.06
  L 201.54 37.00
  L 201.82 28.06
  Q 201.83 27.55 202.01 28.02
  Q 202.39 29.04 202.35 30.18
  Q 202.34 30.45 202.40 30.20
  L 203.28 26.67
  A 0.74 0.52 -77.1 0 1 203.92 26.09
  L 204.22 26.14
  A 0.66 0.35 17.3 0 0 204.71 26.05
  C 209.64 21.20 215.39 17.64 221.60 12.99
  C 223.48 11.58 225.09 9.22 228.00 7.75
  C 229.40 7.04 236.08 2.74 232.76 0.70
  Q 231.57 -0.03 232.94 0.24
  Q 233.97 0.44 234.81 0.00
  Z"
/>
<path fill="#044521" d="
  M 306.56 0.00
  L 399.06 0.00
  L 405.43 0.56
  Q 405.76 0.59 405.44 0.67
  Q 403.95 1.05 402.80 2.09
  A 1.71 1.36 14.6 0 1 401.94 2.47
  Q 400.74 2.64 400.15 3.73
  A 1.79 1.49 -85.1 0 1 399.49 4.40
  Q 397.33 5.54 397.40 7.94
  A 0.55 0.50 86.7 0 1 396.94 8.51
  L 392.50 8.96
  L 387.31 9.05
  A 1.09 0.97 15.9 0 0 386.49 9.45
  Q 385.33 11.01 387.50 11.00
  Q 393.06 10.98 393.05 16.25
  Q 393.03 24.87 392.96 33.50
  Q 391.72 33.47 391.40 34.57
  A 0.41 0.35 17.4 0 1 390.89 34.79
  C 389.60 34.35 386.80 37.12 386.23 37.78
  C 385.04 39.17 383.66 38.88 382.28 40.21
  Q 379.69 42.70 376.84 44.87
  C 375.72 45.72 374.16 45.55 373.56 47.45
  A 1.28 1.06 89.0 0 1 372.99 48.16
  Q 367.98 50.77 362.72 56.57
  A 2.22 2.19 -75.4 0 1 361.63 57.22
  Q 355.91 58.61 354.04 63.66
  A 2.04 2.03 -80.4 0 1 352.18 64.99
  Q 350.67 65.03 349.71 65.64
  Q 349.25 65.94 349.81 65.94
  Q 354.92 66.03 351.44 67.00
  L 218.94 67.00
  Q 218.69 66.38 217.60 66.64
  Q 216.80 66.83 217.10 66.06
  Q 218.02 63.70 219.41 62.60
  A 1.55 0.94 14.9 0 1 220.30 62.34
  Q 221.60 62.34 222.57 61.53
  A 1.42 0.78 85.7 0 0 222.95 60.69
  Q 223.09 59.66 224.25 59.69
  A 1.74 0.73 12.4 0 0 225.19 59.52
  Q 225.92 59.07 224.08 59.37
  C 222.46 59.64 221.66 58.21 223.87 58.26
  Q 229.82 58.40 235.75 58.04
  L 239.45 57.95
  A 1.00 0.88 13.9 0 0 240.24 57.54
  Q 241.08 56.23 238.92 55.96
  Q 237.43 55.78 236.05 55.16
  C 232.07 53.38 235.63 47.05 236.93 44.45
  A 0.83 0.80 -76.0 0 1 237.65 44.00
  L 250.22 44.00
  A 1.73 1.72 78.8 0 1 251.81 45.07
  Q 253.15 48.35 254.33 50.96
  C 257.53 58.03 247.59 54.78 249.73 57.56
  A 1.11 0.90 -14.6 0 0 250.57 57.94
  Q 269.30 58.12 273.25 58.00
  Q 275.29 57.94 274.58 56.61
  A 1.34 0.94 2.1 0 0 273.84 56.05
  Q 270.98 55.10 269.81 52.69
  Q 265.20 43.18 259.20 28.22
  C 264.83 34.23 264.34 23.82 269.52 25.11
  A 0.56 0.55 18.2 0 0 270.17 24.79
  Q 270.90 22.93 272.38 21.57
  A 1.20 0.89 21.4 0 1 273.24 21.34
  Q 274.43 21.49 274.22 20.53
  A 0.79 0.63 -28.9 0 1 274.51 19.83
  L 275.87 18.71
  A 1.35 0.77 -52.6 0 1 276.68 18.37
  Q 278.22 18.45 278.51 16.81
  A 0.68 0.67 -89.9 0 1 279.06 16.25
  C 283.36 15.51 283.54 8.02 287.94 11.73
  A 0.76 0.50 43.0 0 0 288.77 11.87
  Q 289.08 11.60 289.00 11.04
  Q 292.26 12.43 294.81 16.69
  Q 297.01 20.36 307.47 35.59
  A 0.70 0.68 -43.5 0 1 307.44 36.40
  C 303.43 41.48 295.20 53.82 289.16 55.58
  C 286.85 56.25 286.29 57.99 289.26 58.00
  Q 297.85 58.04 306.44 57.94
  A 1.43 1.15 19.2 0 0 307.34 57.62
  C 308.96 56.17 303.55 55.52 302.28 54.43
  Q 300.78 53.15 301.91 51.67
  L 310.17 40.88
  A 0.39 0.38 47.3 0 1 310.80 40.91
  L 318.89 53.32
  A 1.24 1.22 64.4 0 1 318.26 55.16
  L 315.80 55.95
  A 1.56 0.83 -4.8 0 0 315.01 56.46
  Q 313.97 57.99 316.25 57.99
  Q 327.37 58.00 338.50 57.91
  Q 340.46 57.90 339.82 56.61
  A 1.54 0.97 8.2 0 0 339.10 56.00
  C 335.74 54.52 334.75 52.52 332.82 49.65
  Q 326.17 39.78 319.83 29.87
  A 0.89 0.88 -42.2 0 1 319.89 28.84
  C 324.08 23.64 331.61 11.83 337.95 10.76
  A 0.88 0.73 1.1 0 0 338.63 10.22
  Q 339.00 9.00 337.25 8.99
  Q 328.66 8.95 320.06 9.06
  A 0.94 0.85 14.0 0 0 319.28 9.48
  C 317.75 12.05 325.93 10.36 323.69 15.44
  Q 322.10 19.03 316.90 24.58
  A 0.40 0.40 -40.3 0 1 316.27 24.53
  L 309.25 13.44
  A 0.79 0.77 46.3 0 1 309.26 12.58
  Q 310.29 11.09 312.13 10.99
  C 314.67 10.86 314.50 9.00 312.33 9.00
  Q 300.79 9.03 289.25 8.96
  Q 289.23 8.16 289.94 8.13
  A 0.47 0.46 -88.6 0 0 290.39 7.69
  Q 290.42 7.18 290.95 7.14
  A 1.18 0.78 8.8 0 0 291.74 6.78
  C 293.55 4.40 295.89 3.97 296.87 1.72
  A 0.46 0.45 20.3 0 0 296.58 1.10
  Q 294.94 0.63 297.50 0.57
  Q 302.04 0.45 306.56 0.00
  Z"
/>
<path fill="#034d1e" d="
  M 399.06 0.00
  L 442.07 0.01
  Q 440.70 1.54 435.81 5.81
  Q 433.77 7.60 435.94 7.79
  Q 436.12 7.80 435.93 7.84
  L 431.17 8.83
  Q 427.26 9.04 430.00 11.04
  Q 429.94 13.21 428.17 12.92
  A 1.37 0.72 19.1 0 0 427.25 13.06
  L 424.11 15.40
  A 0.36 0.36 57.3 0 1 423.58 15.28
  Q 423.15 14.51 422.16 15.45
  Q 421.94 15.66 421.71 16.29
  Q 421.49 16.93 420.80 17.04
  A 0.71 0.65 0.2 0 0 420.23 17.56
  C 419.38 21.47 417.07 20.42 414.43 21.98
  A 1.07 0.88 81.5 0 0 413.98 22.74
  Q 413.81 24.14 412.37 24.07
  A 2.57 1.98 -59.2 0 0 410.70 24.73
  L 408.27 26.91
  Q 407.67 27.44 407.64 27.54
  C 407.24 28.77 407.73 33.70 406.54 33.50
  Q 406.31 24.38 406.67 15.28
  C 406.90 9.70 413.99 11.94 412.91 9.50
  A 0.81 0.72 -10.4 0 0 412.19 9.06
  L 392.50 8.96
  L 396.94 8.51
  A 0.55 0.50 86.7 0 0 397.40 7.94
  Q 397.33 5.54 399.49 4.40
  A 1.79 1.49 -85.1 0 0 400.15 3.73
  Q 400.74 2.64 401.94 2.47
  A 1.71 1.36 14.6 0 0 402.80 2.09
  Q 403.95 1.05 405.44 0.67
  Q 405.76 0.59 405.43 0.56
  L 399.06 0.00
  Z"
/>
<path fill="#025b1a" d="
  M 442.07 0.01
  L 514.31 0.00
  L 512.46 0.33
  Q 512.30 0.36 512.45 0.39
  Q 513.04 0.54 512.79 0.66
  Q 512.41 0.85 512.29 0.98
  C 510.13 3.40 503.33 10.37 499.91 11.02
  A 2.57 2.55 15.7 0 0 498.51 11.80
  Q 493.66 17.16 488.29 20.60
  Q 481.78 24.77 481.00 26.00
  Q 479.46 28.43 475.42 30.03
  A 0.48 0.48 74.4 0 1 474.77 29.66
  Q 474.42 27.36 474.07 29.11
  Q 473.99 29.50 473.95 29.11
  L 473.54 24.75
  L 473.79 14.58
  Q 473.84 12.57 476.07 11.87
  L 479.21 10.87
  A 0.72 0.69 -9.5 0 0 479.72 10.19
  C 479.69 8.60 478.36 9.00 477.26 9.00
  Q 470.50 9.00 463.75 9.00
  Q 461.61 9.00 462.12 10.48
  A 0.84 0.71 -4.8 0 0 462.81 10.97
  Q 468.66 11.42 468.69 17.50
  Q 468.75 26.50 468.75 35.38
  Q 468.75 36.03 468.35 35.52
  L 448.08 9.53
  A 1.45 1.35 -17.6 0 0 446.96 9.00
  L 431.17 8.83
  L 435.93 7.84
  Q 436.12 7.80 435.94 7.79
  Q 433.77 7.60 435.81 5.81
  Q 440.70 1.54 442.07 0.01
  Z"
/>
<path fill="#016716" d="
  M 514.31 0.00
  L 547.56 0.00
  L 552.76 0.50
  Q 555.51 0.77 553.26 2.34
  C 552.21 3.06 544.37 8.13 544.10 9.02
  Q 543.99 9.37 543.79 9.06
  Q 543.27 8.23 542.54 9.75
  Q 542.85 7.38 539.45 8.28
  A 1.02 1.01 86.6 0 0 538.70 9.13
  Q 538.44 11.09 536.13 10.25
  C 526.81 6.88 516.15 6.86 507.66 12.13
  C 493.51 20.92 491.31 42.45 504.54 53.75
  Q 503.46 53.97 502.48 53.45
  A 0.79 0.67 37.3 0 0 501.66 53.49
  L 496.93 57.48
  Q 496.54 57.80 496.08 57.93
  Q 494.01 58.51 493.04 60.47
  A 0.47 0.32 -72.5 0 1 492.70 60.74
  L 492.47 60.73
  A 1.05 0.38 8.4 0 0 491.74 60.88
  L 485.58 66.38
  A 1.58 0.98 13.3 0 1 484.68 66.68
  L 475.19 67.00
  L 441.89 66.95
  Q 444.19 64.86 446.66 63.00
  C 450.57 60.05 453.66 56.58 458.50 53.96
  Q 459.33 53.51 459.93 52.78
  Q 461.78 50.54 463.09 53.16
  A 0.41 0.40 -23.1 0 0 463.60 53.36
  L 463.96 53.22
  A 0.72 0.56 59.0 0 1 464.67 53.49
  Q 465.10 54.02 465.75 53.46
  C 467.57 55.66 469.67 60.26 473.12 58.78
  A 0.79 0.73 79.3 0 0 473.56 58.07
  L 473.54 24.75
  L 473.95 29.11
  Q 473.99 29.50 474.07 29.11
  Q 474.42 27.36 474.77 29.66
  A 0.48 0.48 74.4 0 0 475.42 30.03
  Q 479.46 28.43 481.00 26.00
  Q 481.78 24.77 488.29 20.60
  Q 493.66 17.16 498.51 11.80
  A 2.57 2.55 15.7 0 1 499.91 11.02
  C 503.33 10.37 510.13 3.40 512.29 0.98
  Q 512.41 0.85 512.79 0.66
  Q 513.04 0.54 512.45 0.39
  Q 512.30 0.36 512.46 0.33
  L 514.31 0.00
  Z"
/>
<path fill="#007412" d="
  M 547.56 0.00
  L 600.00 0.00
  L 600.00 67.00
  L 475.19 67.00
  L 484.68 66.68
  A 1.58 0.98 13.3 0 0 485.58 66.38
  L 491.74 60.88
  A 1.05 0.38 8.4 0 1 492.47 60.73
  L 492.70 60.74
  A 0.47 0.32 -72.5 0 0 493.04 60.47
  Q 494.01 58.51 496.08 57.93
  Q 496.54 57.80 496.93 57.48
  L 501.66 53.49
  A 0.79 0.67 37.3 0 1 502.48 53.45
  Q 503.46 53.97 504.54 53.75
  C 515.23 60.80 530.69 61.60 540.88 52.82
  A 1.30 0.81 -28.0 0 0 541.35 52.01
  L 541.40 47.69
  A 0.67 0.61 5.3 0 0 540.83 47.07
  Q 539.43 46.84 538.31 48.31
  C 531.14 57.73 516.63 59.57 512.46 46.00
  C 512.83 45.42 513.00 43.20 513.69 43.86
  A 0.62 0.52 47.5 0 0 514.42 43.96
  L 518.35 41.06
  A 1.76 1.08 -87.3 0 0 518.89 40.27
  C 519.70 37.94 523.05 37.10 525.09 35.59
  C 526.22 34.76 526.63 33.25 528.50 33.00
  A 2.20 2.20 18.2 0 0 529.78 32.36
  C 532.47 29.64 537.21 28.37 536.88 24.55
  A 0.54 0.46 85.5 0 1 537.30 23.97
  Q 538.03 23.94 538.71 24.50
  Q 539.51 25.33 542.01 24.67
  A 0.68 0.66 82.8 0 0 542.50 24.02
  L 542.54 9.75
  Q 543.27 8.23 543.79 9.06
  Q 543.99 9.37 544.10 9.02
  C 544.37 8.13 552.21 3.06 553.26 2.34
  Q 555.51 0.77 552.76 0.50
  L 547.56 0.00
  Z
  M 575.6809 52.5117
  A 5.47 5.47 0.0 0 0 570.2204 47.0322
  L 567.7004 47.0278
  A 5.47 5.47 0.0 0 0 562.2209 52.4883
  L 562.2191 53.4883
  A 5.47 5.47 0.0 0 0 567.6796 58.9678
  L 570.1996 58.9722
  A 5.47 5.47 0.0 0 0 575.6791 53.5117
  L 575.6809 52.5117
  Z"
/>
<path fill="#ffffff" d="
  M 259.20 28.22
  Q 265.20 43.18 269.81 52.69
  Q 270.98 55.10 273.84 56.05
  A 1.34 0.94 2.1 0 1 274.58 56.61
  Q 275.29 57.94 273.25 58.00
  Q 269.30 58.12 250.57 57.94
  A 1.11 0.90 -14.6 0 1 249.73 57.56
  C 247.59 54.78 257.53 58.03 254.33 50.96
  Q 253.15 48.35 251.81 45.07
  A 1.73 1.72 78.8 0 0 250.22 44.00
  L 237.65 44.00
  A 0.83 0.80 -76.0 0 0 236.93 44.45
  C 235.63 47.05 232.07 53.38 236.05 55.16
  Q 237.43 55.78 238.92 55.96
  Q 241.08 56.23 240.24 57.54
  A 1.00 0.88 13.9 0 1 239.45 57.95
  L 235.75 58.04
  Q 229.74 58.02 223.73 57.95
  C 219.25 57.89 226.24 54.12 226.75 53.32
  Q 230.09 48.10 232.52 42.40
  Q 239.50 26.07 246.44 9.73
  Q 247.62 6.95 250.31 8.26
  A 1.48 1.19 87.2 0 1 250.94 8.97
  L 259.20 28.22
  Z
  M 238.77 40.54
  A 0.32 0.32 11.3 0 0 239.06 40.99
  L 249.60 41.01
  A 0.32 0.32 78.6 0 0 249.90 40.56
  L 244.65 28.20
  A 0.32 0.32 -43.6 0 0 244.06 28.20
  L 238.77 40.54
  Z"
/>
<path fill="#ffffff" d="
  M 542.54 9.75
  L 542.50 24.02
  A 0.68 0.66 82.8 0 1 542.01 24.67
  Q 539.51 25.33 538.71 24.50
  C 537.19 16.99 530.30 9.18 522.00 11.69
  C 508.87 15.67 508.95 35.43 512.46 46.00
  C 516.63 59.57 531.14 57.73 538.31 48.31
  Q 539.43 46.84 540.83 47.07
  A 0.67 0.61 5.3 0 1 541.40 47.69
  L 541.35 52.01
  A 1.30 0.81 -28.0 0 1 540.88 52.82
  C 530.69 61.60 515.23 60.80 504.54 53.75
  C 491.31 42.45 493.51 20.92 507.66 12.13
  C 516.15 6.86 526.81 6.88 536.13 10.25
  Q 538.44 11.09 538.70 9.13
  A 1.02 1.01 86.6 0 1 539.45 8.28
  Q 542.85 7.38 542.54 9.75
  Z"
/>
<path fill="#ffffff" d="
  M 75.13 29.62
  C 77.67 48.98 64.03 59.49 46.00 58.04
  Q 36.75 57.97 27.50 58.00
  Q 25.36 58.01 25.86 56.52
  A 0.74 0.65 9.7 0 1 26.56 56.09
  C 33.19 56.32 32.50 51.86 32.50 46.54
  Q 32.50 31.65 32.50 16.75
  Q 32.50 10.66 26.75 10.96
  A 0.97 0.83 -16.7 0 1 25.94 10.60
  Q 24.85 9.00 27.50 9.00
  C 46.11 9.00 71.17 4.06 75.13 29.62
  Z
  M 59.09 22.22
  C 57.44 16.00 52.99 12.50 46.62 11.99
  A 0.57 0.57 2.3 0 0 46.00 12.56
  Q 46.00 32.13 45.85 51.00
  Q 45.81 55.74 50.25 54.75
  C 62.42 52.03 61.52 31.33 59.09 22.22
  Z"
/>
<path fill="#ffffff" d="
  M 108.00 8.96
  L 114.44 9.05
  A 0.74 0.69 -7.6 0 1 115.12 9.53
  C 116.05 12.47 108.86 9.69 111.06 14.44
  Q 115.31 23.60 120.51 32.44
  A 0.33 0.32 -43.5 0 0 121.06 32.45
  Q 126.94 23.50 130.99 14.62
  Q 131.95 12.51 129.71 11.82
  L 126.54 10.84
  A 0.80 0.69 8.1 0 1 125.98 10.20
  Q 125.90 9.06 127.25 9.05
  Q 134.50 9.03 141.75 8.96
  Q 143.15 9.38 142.59 10.40
  A 1.53 0.94 -6.4 0 1 141.85 10.98
  C 138.24 12.36 137.27 14.43 135.43 17.54
  Q 129.78 27.07 123.95 37.56
  Q 123.51 38.36 123.50 39.27
  C 123.48 42.57 122.57 52.77 124.81 54.84
  C 126.01 55.94 132.37 55.82 130.57 57.61
  A 1.34 1.06 17.9 0 1 129.69 57.94
  Q 116.81 58.04 103.93 58.00
  C 102.96 58.00 101.49 57.79 102.44 56.39
  A 0.93 0.76 17.2 0 1 103.26 56.06
  C 112.03 56.96 109.75 47.64 109.75 42.58
  C 109.75 39.48 108.34 37.48 106.79 35.00
  L 98.00 18.21
  C 96.37 14.48 94.97 12.27 91.03 10.86
  A 1.21 0.92 4.7 0 1 90.35 10.25
  Q 89.88 8.99 91.50 9.00
  Q 99.75 9.03 108.00 8.96
  Z"
/>
<path fill="#ffffff" d="
  M 200.75 8.96
  C 202.02 8.99 207.63 8.41 207.78 10.01
  A 0.91 0.73 -20.2 0 1 207.32 10.77
  Q 205.90 11.58 204.25 11.75
  Q 201.78 12.00 201.75 15.00
  L 201.54 37.00
  L 201.56 58.06
  A 0.81 0.72 79.6 0 1 201.12 58.78
  Q 198.70 59.87 197.02 57.72
  Q 183.15 39.97 169.06 22.39
  Q 168.75 22.00 168.73 22.51
  Q 168.31 35.87 168.35 49.25
  Q 168.36 55.45 174.75 56.00
  Q 176.17 56.12 175.72 57.31
  A 0.85 0.72 7.0 0 1 175.00 57.78
  Q 167.55 58.16 160.08 58.02
  C 159.02 58.00 156.45 58.67 157.13 56.53
  A 0.80 0.71 5.7 0 1 157.81 56.04
  Q 164.11 55.66 164.08 49.00
  Q 164.03 39.50 163.96 30.00
  C 164.03 23.49 166.46 12.80 157.67 10.91
  A 0.85 0.69 2.9 0 1 157.04 10.34
  Q 156.76 9.00 158.75 9.00
  Q 166.75 9.00 175.15 9.00
  A 1.06 1.03 -18.3 0 1 175.98 9.40
  L 196.27 35.46
  Q 196.69 35.99 196.71 35.32
  Q 197.06 25.36 196.41 16.29
  C 196.16 12.83 194.32 11.19 191.01 11.01
  A 1.27 0.75 -8.3 0 1 190.14 10.65
  Q 189.75 10.13 190.05 9.49
  A 0.89 0.73 10.1 0 1 190.82 9.06
  L 200.75 8.96
  Z"
/>
<path fill="#ffffff" d="
  M 289.25 8.96
  Q 300.79 9.03 312.33 9.00
  C 314.50 9.00 314.67 10.86 312.13 10.99
  Q 310.29 11.09 309.26 12.58
  A 0.79 0.77 46.3 0 0 309.25 13.44
  L 316.27 24.53
  A 0.40 0.40 -40.3 0 0 316.90 24.58
  Q 322.10 19.03 323.69 15.44
  C 325.93 10.36 317.75 12.05 319.28 9.48
  A 0.94 0.85 14.0 0 1 320.06 9.06
  Q 328.66 8.95 337.25 8.99
  Q 339.00 9.00 338.63 10.22
  A 0.88 0.73 1.1 0 1 337.95 10.76
  C 331.61 11.83 324.08 23.64 319.89 28.84
  A 0.89 0.88 -42.2 0 0 319.83 29.87
  Q 326.17 39.78 332.82 49.65
  C 334.75 52.52 335.74 54.52 339.10 56.00
  A 1.54 0.97 8.2 0 1 339.82 56.61
  Q 340.46 57.90 338.50 57.91
  Q 327.37 58.00 316.25 57.99
  Q 313.97 57.99 315.01 56.46
  A 1.56 0.83 -4.8 0 1 315.80 55.95
  L 318.26 55.16
  A 1.24 1.22 64.4 0 0 318.89 53.32
  L 310.80 40.91
  A 0.39 0.38 47.3 0 0 310.17 40.88
  L 301.91 51.67
  Q 300.78 53.15 302.28 54.43
  C 303.55 55.52 308.96 56.17 307.34 57.62
  A 1.43 1.15 19.2 0 1 306.44 57.94
  Q 297.85 58.04 289.26 58.00
  C 286.29 57.99 286.85 56.25 289.16 55.58
  C 295.20 53.82 303.43 41.48 307.44 36.40
  A 0.70 0.68 -43.5 0 0 307.47 35.59
  Q 297.01 20.36 294.81 16.69
  Q 292.26 12.43 289.00 11.04
  Q 287.38 9.91 289.25 8.96
  Z"
/>
<path fill="#ffffff" d="
  M 392.50 8.96
  L 412.19 9.06
  A 0.81 0.72 -10.4 0 1 412.91 9.50
  C 413.99 11.94 406.90 9.70 406.67 15.28
  Q 406.31 24.38 406.54 33.50
  Q 406.30 42.68 406.68 51.86
  C 406.91 57.44 413.78 54.79 412.88 57.48
  A 0.74 0.66 8.0 0 1 412.19 57.94
  Q 399.97 58.05 387.75 58.00
  Q 386.16 57.99 386.13 56.50
  Q 386.83 56.03 388.75 56.00
  C 391.75 55.95 392.71 53.83 392.83 51.04
  Q 393.19 42.27 392.96 33.50
  Q 393.03 24.87 393.05 16.25
  Q 393.06 10.98 387.50 11.00
  Q 385.33 11.01 386.49 9.45
  A 1.09 0.97 15.9 0 1 387.31 9.05
  L 392.50 8.96
  Z"
/>
<path fill="#ffffff" d="
  M 431.17 8.83
  L 446.96 9.00
  A 1.45 1.35 -17.6 0 1 448.08 9.53
  L 468.35 35.52
  Q 468.75 36.03 468.75 35.38
  Q 468.75 26.50 468.69 17.50
  Q 468.66 11.42 462.81 10.97
  A 0.84 0.71 -4.8 0 1 462.12 10.48
  Q 461.61 9.00 463.75 9.00
  Q 470.50 9.00 477.26 9.00
  C 478.36 9.00 479.69 8.60 479.72 10.19
  A 0.72 0.69 -9.5 0 1 479.21 10.87
  L 476.07 11.87
  Q 473.84 12.57 473.79 14.58
  L 473.54 24.75
  L 473.56 58.07
  A 0.79 0.73 79.3 0 1 473.12 58.78
  C 469.67 60.26 467.57 55.66 465.75 53.46
  L 441.06 22.38
  Q 440.75 22.00 440.73 22.49
  Q 440.18 36.23 440.66 49.98
  C 440.80 53.87 442.73 55.83 446.50 55.99
  A 1.75 1.10 -14.0 0 1 447.41 56.29
  C 448.93 57.51 446.96 58.00 446.07 58.00
  Q 438.16 57.97 430.25 58.04
  Q 428.42 57.96 429.08 56.51
  A 0.92 0.77 7.4 0 1 429.82 56.04
  Q 435.93 55.63 435.96 49.25
  Q 436.04 34.10 435.95 18.95
  C 435.93 14.60 434.15 11.98 430.00 11.04
  Q 427.26 9.04 431.17 8.83
  Z"
/>
<path fill="#02571b" d="
  M 430.00 11.04
  C 434.15 11.98 435.93 14.60 435.95 18.95
  Q 436.04 34.10 435.96 49.25
  Q 435.93 55.63 429.82 56.04
  A 0.92 0.77 7.4 0 0 429.08 56.51
  Q 428.42 57.96 430.25 58.04
  Q 430.95 58.84 430.85 59.77
  A 0.76 0.62 -4.3 0 1 430.25 60.34
  C 426.36 61.18 426.36 64.62 422.81 65.47
  A 1.42 0.73 -3.1 0 0 421.99 65.95
  Q 421.72 66.39 421.69 67.00
  L 376.94 67.00
  C 377.16 65.62 375.54 66.38 375.04 66.00
  Q 374.54 65.61 375.32 65.57
  Q 376.92 65.50 377.05 63.96
  A 0.42 0.32 -82.4 0 1 377.45 63.56
  Q 377.67 63.61 377.81 63.80
  A 0.40 0.31 48.5 0 0 378.35 63.90
  L 380.23 61.94
  Q 380.56 61.58 381.03 61.41
  C 382.11 61.00 384.51 58.25 385.06 58.78
  A 0.56 0.28 49.4 0 0 385.52 58.97
  L 385.80 58.88
  Q 386.41 58.66 385.71 58.39
  Q 383.13 57.36 386.13 56.50
  Q 386.16 57.99 387.75 58.00
  Q 399.97 58.05 412.19 57.94
  A 0.74 0.66 8.0 0 0 412.88 57.48
  C 413.78 54.79 406.91 57.44 406.68 51.86
  Q 406.30 42.68 406.54 33.50
  C 407.73 33.70 407.24 28.77 407.64 27.54
  Q 407.67 27.44 408.27 26.91
  L 410.70 24.73
  A 2.57 1.98 -59.2 0 1 412.37 24.07
  Q 413.81 24.14 413.98 22.74
  A 1.07 0.88 81.5 0 1 414.43 21.98
  C 417.07 20.42 419.38 21.47 420.23 17.56
  A 0.71 0.65 0.2 0 1 420.80 17.04
  Q 421.49 16.93 421.71 16.29
  Q 421.94 15.66 422.16 15.45
  Q 423.15 14.51 423.58 15.28
  A 0.36 0.36 57.3 0 0 424.11 15.40
  L 427.25 13.06
  A 1.37 0.72 19.1 0 1 428.17 12.92
  Q 429.94 13.21 430.00 11.04
  Z"
/>
<path fill="#016915" d="
  M 538.71 24.50
  Q 538.03 23.94 537.30 23.97
  A 0.54 0.46 85.5 0 0 536.88 24.55
  C 537.21 28.37 532.47 29.64 529.78 32.36
  A 2.20 2.20 20.9 0 1 528.50 33.00
  C 526.63 33.25 526.22 34.76 525.09 35.59
  C 523.05 37.10 519.70 37.94 518.89 40.27
  A 1.76 1.08 -87.3 0 1 518.35 41.06
  L 514.42 43.96
  A 0.62 0.52 47.5 0 1 513.69 43.86
  C 513.00 43.20 512.83 45.42 512.46 46.00
  C 508.95 35.43 508.87 15.67 522.00 11.69
  C 530.30 9.18 537.19 16.99 538.71 24.50
  Z"
/>
<path fill="#007113" d="
  M 46.62 11.99
  C 52.99 12.50 57.44 16.00 59.09 22.22
  C 61.52 31.33 62.42 52.03 50.25 54.75
  Q 45.81 55.74 45.85 51.00
  Q 46.00 32.13 46.00 12.56
  A 0.57 0.57 2.3 0 1 46.62 11.99
  Z"
/>
<path fill="#016915" d="
  M 98.00 18.21
  L 106.79 35.00
  Q 104.79 37.88 105.02 41.32
  A 0.99 0.92 -22.4 0 1 104.65 42.12
  C 102.39 43.91 102.70 46.70 99.50 47.20
  A 1.37 1.22 12.8 0 0 98.70 47.64
  Q 97.32 49.30 95.27 50.14
  Q 94.81 50.33 94.50 50.71
  Q 93.62 51.80 92.60 52.77
  Q 91.87 53.46 90.22 54.09
  Q 87.30 55.21 85.78 58.11
  Q 85.54 58.58 85.14 58.84
  L 80.67 61.73
  A 1.71 1.48 -9.2 0 0 80.05 62.47
  Q 79.20 64.65 79.44 67.00
  L 43.44 67.00
  Q 39.90 67.44 40.65 64.79
  A 1.25 1.23 -6.8 0 1 41.24 64.05
  Q 42.48 63.32 43.94 63.21
  A 1.28 0.80 7.6 0 0 44.78 62.83
  L 46.51 60.44
  A 0.38 0.35 24.2 0 0 46.27 59.88
  C 45.26 59.63 43.32 59.36 42.52 58.86
  C 41.16 58.03 45.27 58.20 46.00 58.04
  C 64.03 59.49 77.67 48.98 75.13 29.62
  Q 78.13 31.28 77.05 34.77
  Q 76.78 35.64 77.13 36.28
  A 0.47 0.42 -35.2 0 0 77.82 36.36
  C 80.44 34.12 86.31 28.23 89.45 27.52
  A 0.89 0.89 -85.7 0 0 90.10 26.96
  C 91.01 24.60 95.16 22.02 97.09 20.55
  A 0.45 0.44 51.8 0 0 97.16 19.90
  Q 96.26 18.78 98.00 18.21
  Z"
/>
<path fill="#015f18" d="
  M 465.75 53.46
  Q 465.10 54.02 464.67 53.49
  A 0.72 0.56 59.0 0 0 463.96 53.22
  L 463.60 53.36
  A 0.41 0.40 -23.1 0 1 463.09 53.16
  Q 461.78 50.54 459.93 52.78
  Q 459.33 53.51 458.50 53.96
  C 453.66 56.58 450.57 60.05 446.66 63.00
  Q 444.19 64.86 441.89 66.95
  L 421.69 67.00
  Q 421.72 66.39 421.99 65.95
  A 1.42 0.73 -3.1 0 1 422.81 65.47
  C 426.36 64.62 426.36 61.18 430.25 60.34
  A 0.76 0.62 -4.3 0 0 430.85 59.77
  Q 430.95 58.84 430.25 58.04
  Q 438.16 57.97 446.07 58.00
  C 446.96 58.00 448.93 57.51 447.41 56.29
  A 1.75 1.10 -14.0 0 0 446.50 55.99
  C 442.73 55.83 440.80 53.87 440.66 49.98
  Q 440.18 36.23 440.73 22.49
  Q 440.75 22.00 441.06 22.38
  L 465.75 53.46
  Z"
/>
<path fill="#034d1e" d="
  M 238.77 40.54
  L 244.06 28.20
  A 0.32 0.32 -44.5 0 1 244.65 28.20
  L 249.90 40.56
  A 0.32 0.32 78.6 0 1 249.60 41.01
  L 239.06 40.99
  A 0.32 0.32 11.8 0 1 238.77 40.54
  Z"
/>
<path fill="#02501d" d="
  M 392.96 33.50
  Q 393.19 42.27 392.83 51.04
  C 392.71 53.83 391.75 55.95 388.75 56.00
  Q 386.83 56.03 386.13 56.50
  Q 383.13 57.36 385.71 58.39
  Q 386.41 58.66 385.80 58.88
  L 385.52 58.97
  A 0.56 0.28 49.4 0 1 385.06 58.78
  C 384.51 58.25 382.11 61.00 381.03 61.41
  Q 380.56 61.58 380.23 61.94
  L 378.35 63.90
  A 0.40 0.31 48.5 0 1 377.81 63.80
  Q 377.67 63.61 377.45 63.56
  A 0.42 0.32 -82.4 0 0 377.05 63.96
  Q 376.92 65.50 375.32 65.57
  Q 374.54 65.61 375.04 66.00
  C 375.54 66.38 377.16 65.62 376.94 67.00
  L 351.44 67.00
  Q 354.92 66.03 349.81 65.94
  Q 349.25 65.94 349.71 65.64
  Q 350.67 65.03 352.18 64.99
  A 2.04 2.03 -80.4 0 0 354.04 63.66
  Q 355.91 58.61 361.63 57.22
  A 2.22 2.19 -75.4 0 0 362.72 56.57
  Q 367.98 50.77 372.99 48.16
  A 1.28 1.06 89.0 0 0 373.56 47.45
  C 374.16 45.55 375.72 45.72 376.84 44.87
  Q 379.69 42.70 382.28 40.21
  C 383.66 38.88 385.04 39.17 386.23 37.78
  C 386.80 37.12 389.60 34.35 390.89 34.79
  A 0.41 0.35 17.4 0 0 391.40 34.57
  Q 391.72 33.47 392.96 33.50
  Z"
/>
<rect fill="#ffffff" x="-6.73" y="-5.97" transform="translate(568.95,53.00) rotate(0.1)" width="13.46" height="11.94" rx="5.47"/>
</svg>
