<?xml version="1.0" encoding="UTF-8" standalone="no"?>
<!DOCTYPE svg PUBLIC "-//W3C//DTD SVG 1.1//EN" "http://www.w3.org/Graphics/SVG/1.1/DTD/svg11.dtd">
<svg xmlns="http://www.w3.org/2000/svg" version="1.1" viewBox="0 0 600 300">
<path fill="#000000" d="
  M 190.61 114.09
  Q 192.54 116.75 193.52 119.89
  C 194.33 122.49 196.00 124.62 192.52 126.23
  Q 182.19 131.01 171.46 135.10
  Q 169.23 135.95 168.51 133.96
  L 166.06 127.25
  A 2.17 1.99 -25.4 0 1 167.07 124.77
  C 173.06 121.34 179.46 118.37 185.61 114.83
  Q 187.55 113.71 189.82 113.68
  A 1.00 0.96 71.1 0 1 190.61 114.09
  Z"
/>
<path fill="#000000" d="
  M 129.33 153.74
  Q 129.33 154.80 129.89 153.89
  L 138.88 139.28
  Q 139.80 137.78 141.62 137.79
  L 152.84 137.88
  Q 156.98 137.91 154.64 141.53
  L 143.43 158.87
  A 0.98 0.97 44.7 0 0 143.44 159.93
  Q 149.73 169.53 155.44 178.99
  C 156.72 181.10 158.71 182.75 155.90 184.96
  A 1.56 1.29 21.6 0 1 155.00 185.25
  L 141.48 185.25
  Q 139.67 185.25 138.79 183.66
  Q 134.57 175.98 131.25 169.25
  C 130.77 168.28 129.73 165.59 129.48 165.77
  A 0.73 0.45 80.2 0 0 129.26 166.32
  L 129.50 183.50
  A 1.75 1.73 -0.3 0 1 127.75 185.25
  C 123.89 185.25 119.90 185.06 116.06 185.35
  C 113.60 185.53 112.75 183.92 112.75 181.65
  Q 112.75 151.32 112.75 120.62
  Q 112.75 118.66 114.70 118.48
  Q 120.93 117.88 127.53 118.40
  A 1.91 1.86 2.0 0 1 129.30 120.25
  L 129.33 153.74
  Z"
/>
<path fill="#000000" d="
  M 49.80 126.45
  C 63.38 137.60 59.03 158.62 41.00 161.75
  Q 35.42 162.72 28.69 162.46
  A 0.66 0.66 1.2 0 0 28.00 163.12
  L 28.00 182.25
  Q 28.00 184.25 26.00 184.25
  Q 20.00 184.25 14.00 184.33
  C 9.87 184.39 10.26 181.93 10.24 178.89
  Q 10.08 150.95 10.50 123.26
  A 1.53 1.53 -0.6 0 1 11.98 121.75
  Q 25.63 121.31 39.25 121.75
  Q 44.28 121.91 49.80 126.45
  Z
  M 39.22 145.16
  C 42.26 137.37 34.89 133.94 28.56 134.97
  A 0.62 0.56 85.6 0 0 28.09 135.57
  L 28.15 148.58
  A 0.67 0.64 90.0 0 0 28.79 149.25
  Q 32.18 149.25 36.08 148.07
  Q 38.35 147.38 39.22 145.16
  Z"
/>
<path fill="#000000" d="
  M 85.05 136.90
  C 114.92 138.99 116.05 183.58 84.60 185.12
  C 73.82 185.65 63.50 179.76 59.63 169.52
  C 53.28 152.76 67.95 135.70 85.05 136.90
  Z
  M 85.56 149.17
  C 79.78 146.84 76.80 151.09 75.42 156.10
  Q 73.53 162.94 76.31 169.35
  Q 77.40 171.87 80.02 172.68
  C 92.90 176.68 92.90 158.88 88.92 151.98
  Q 87.82 150.09 85.56 149.17
  Z"
/>
<path fill="#000000" d="
  M 434.68 155.56
  L 423.94 155.44
  A 0.52 0.51 1.1 0 0 423.42 155.93
  Q 422.93 172.52 423.25 177.25
  C 424.14 190.43 406.15 188.90 406.30 175.75
  Q 406.49 160.51 406.50 145.27
  C 406.50 141.58 407.79 137.50 412.07 137.50
  Q 439.06 137.50 466.05 137.50
  Q 473.68 137.50 474.93 137.82
  Q 480.60 139.25 480.44 146.44
  Q 479.89 171.57 480.25 176.50
  C 481.21 189.54 464.82 189.46 464.79 178.75
  Q 464.75 167.62 464.75 155.94
  A 0.52 0.51 0.0 0 0 464.23 155.43
  L 452.19 155.50
  A 0.51 0.51 0.0 0 0 451.68 156.01
  Q 451.80 167.03 451.75 177.50
  C 451.69 190.48 435.36 188.63 435.30 177.27
  Q 435.25 166.67 435.19 156.06
  A 0.51 0.50 0.0 0 0 434.68 155.56
  Z"
/>
<path fill="#000000" d="
  M 174.43 167.55
  C 176.70 176.55 188.13 175.28 194.56 172.06
  C 200.42 169.13 198.75 178.54 198.75 181.42
  A 2.22 2.20 -12.3 0 1 197.45 183.43
  C 177.36 192.52 153.71 180.79 157.63 156.45
  C 159.28 146.24 165.77 139.30 176.44 137.94
  C 192.42 135.90 202.55 146.00 202.52 161.71
  C 202.51 164.12 202.96 167.01 199.50 167.00
  Q 187.15 166.95 174.80 167.06
  A 0.39 0.38 82.5 0 0 174.43 167.55
  Z
  M 187.86 155.32
  C 188.55 146.62 173.86 146.01 173.92 155.32
  A 0.52 0.52 0.0 0 0 174.44 155.84
  L 187.32 155.85
  A 0.57 0.54 -87.7 0 0 187.86 155.32
  Z"
/>
<path fill="#000000" d="
  M 259.25 153.07
  Q 255.47 151.14 251.64 152.96
  A 1.29 1.24 -3.0 0 0 250.99 153.65
  Q 250.25 155.63 250.25 159.25
  Q 250.25 171.25 250.25 183.25
  Q 250.25 185.25 248.25 185.25
  L 236.55 185.25
  Q 233.86 185.25 233.78 182.56
  Q 233.47 171.67 233.49 161.57
  C 233.50 156.25 233.93 150.83 226.75 152.25
  Q 223.01 152.99 222.94 157.50
  Q 222.75 170.37 222.75 182.92
  Q 222.75 185.25 220.42 185.25
  L 209.73 185.25
  Q 207.50 185.25 207.50 183.02
  L 207.50 140.60
  A 1.11 1.10 71.9 0 1 207.95 139.71
  C 210.00 138.24 218.69 138.48 220.00 139.00
  Q 221.87 139.74 221.66 143.23
  Q 221.59 144.29 222.26 143.47
  C 229.05 135.07 241.02 136.19 247.44 144.11
  A 0.40 0.40 90.0 0 0 248.06 144.11
  C 256.63 133.35 276.48 136.74 276.37 151.75
  Q 276.25 167.63 276.25 182.51
  Q 276.25 185.25 273.51 185.25
  L 263.57 185.25
  Q 261.00 185.25 261.00 182.68
  Q 261.00 171.62 261.00 160.00
  Q 261.00 156.17 259.90 153.75
  A 1.52 1.39 3.8 0 0 259.25 153.07
  Z"
/>
<path fill="#000000" d="
  M 286.57 146.34
  C 296.68 134.17 315.92 135.36 325.66 146.93
  C 333.20 155.89 332.74 171.56 324.38 179.65
  C 315.72 188.03 298.50 189.17 289.06 181.35
  C 279.68 173.59 279.01 155.45 286.57 146.34
  Z
  M 299.68 154.24
  Q 295.88 162.48 299.75 170.90
  Q 300.89 173.38 303.54 174.03
  C 312.92 176.31 315.45 166.99 314.50 159.92
  C 313.56 152.95 310.17 149.34 302.76 151.57
  Q 300.62 152.21 299.68 154.24
  Z"
/>
<path fill="#000000" d="
  M 350.24 144.51
  Q 350.36 145.21 350.81 144.66
  C 361.96 131.24 380.69 138.26 381.09 155.45
  Q 381.38 168.04 381.26 180.64
  C 381.24 182.85 381.68 184.32 380.04 186.09
  A 1.21 1.04 18.3 0 1 379.19 186.44
  Q 373.63 186.53 368.07 186.51
  C 364.15 186.49 364.50 184.49 364.50 181.48
  Q 364.50 169.99 364.48 158.50
  C 364.47 154.95 362.39 153.42 358.98 153.29
  C 350.89 152.99 351.50 159.38 351.50 165.82
  Q 351.50 175.29 351.50 184.75
  A 1.75 1.75 0.0 0 1 349.75 186.50
  L 337.23 186.50
  Q 335.06 186.50 335.06 184.34
  L 335.00 141.58
  Q 334.99 138.75 337.84 138.75
  C 341.51 138.75 351.47 136.80 350.33 142.94
  Q 350.14 143.95 350.24 144.51
  Z"
/>
<path fill="#000000" d="
  M 533.59 156.06
  C 533.89 161.98 535.24 179.26 531.67 183.76
  C 525.19 191.95 516.81 182.03 517.13 174.87
  C 517.50 166.80 517.25 158.60 517.25 150.51
  C 517.25 142.57 519.92 138.75 527.95 138.75
  Q 540.73 138.76 553.50 138.82
  C 560.08 138.85 563.18 142.62 563.34 148.97
  Q 563.61 159.94 563.54 170.91
  C 563.49 177.32 563.76 182.08 559.19 185.44
  C 553.26 189.79 546.81 182.53 546.79 176.50
  Q 546.75 166.50 546.75 155.94
  A 0.52 0.51 0.0 0 0 546.23 155.43
  L 534.07 155.56
  A 0.48 0.47 -1.7 0 0 533.59 156.06
  Z"
/>
<circle fill="#000000" cx="498.74" cy="147.70" r="7.59"/>
<circle fill="#000000" cx="581.93" cy="147.70" r="7.64"/>
<rect fill="#000000" x="-7.73" y="-13.98" transform="translate(498.72,172.48) rotate(-0.3)" width="15.46" height="27.96" rx="7.29"/>
<path fill="#000000" d="
  M 574.13 167.00
  C 573.95 161.21 579.63 156.52 585.29 159.48
  C 591.51 162.74 589.77 172.11 589.56 177.82
  C 589.35 183.65 583.12 189.65 577.45 184.55
  C 572.78 180.36 574.30 172.73 574.13 167.00
  Z"
/>
</svg>
