<?xml version="1.0" encoding="UTF-8" standalone="no"?>
<!DOCTYPE svg PUBLIC "-//W3C//DTD SVG 1.1//EN" "http://www.w3.org/Graphics/SVG/1.1/DTD/svg11.dtd">
<svg xmlns="http://www.w3.org/2000/svg" version="1.1" viewBox="0 0 600 300">
<g stroke-width="2.00" fill="none" stroke-linecap="butt">
<path stroke="#2c6b90" vector-effect="non-scaling-stroke" d="
  M 517.53 118.68
  L 516.34 96.68
  A 0.57 0.55 0.0 0 0 515.81 96.16
  Q 504.80 95.65 493.81 96.28
  A 0.52 0.51 -2.3 0 0 493.32 96.80
  L 494.18 137.68
  A 1.09 1.07 69.3 0 1 493.81 138.52
  L 441.40 183.86
  Q 440.66 184.50 441.64 184.50
  L 463.95 184.50
  A 2.72 2.63 23.7 0 0 465.72 183.84
  L 494.23 158.92
  Q 494.74 158.47 494.76 159.14
  L 495.25 183.82
  A 0.69 0.68 89.6 0 0 495.93 184.50
  L 519.20 184.44
  A 0.48 0.48 88.9 0 0 519.68 183.94
  L 518.08 140.19
  A 2.08 1.99 69.1 0 1 518.76 138.57
  L 567.39 96.60
  Q 568.09 96.00 567.17 96.00
  L 545.02 96.00
  A 3.66 3.38 -64.2 0 0 542.68 96.92
  L 517.94 118.87
  Q 517.56 119.21 517.53 118.68"
/>
<path stroke="#acacad" vector-effect="non-scaling-stroke" d="
  M 192.50 176.00
  C 192.48 181.71 196.75 185.29 202.01 186.20
  C 220.26 189.35 237.77 179.79 247.07 164.29
  Q 259.12 144.23 270.58 123.82
  C 274.89 116.14 279.45 106.11 271.30 100.97
  Q 267.73 98.72 260.32 98.69
  Q 242.97 98.64 230.59 109.86
  Q 226.05 113.99 220.24 123.22
  Q 208.06 142.60 197.33 162.83
  C 194.48 168.18 192.51 171.36 192.50 176.00"
/>
<path stroke="#acacad" vector-effect="non-scaling-stroke" d="
  M 59.94 117.99
  L 21.29 184.43
  Q 20.81 185.25 21.75 185.25
  L 42.43 185.19
  A 0.90 0.89 -74.7 0 0 43.20 184.75
  L 81.91 118.36
  A 1.78 1.76 15.0 0 1 83.44 117.49
  L 95.19 117.45
  A 1.00 0.99 -72.8 0 0 95.98 117.03
  L 106.85 101.69
  Q 107.87 100.25 106.10 100.25
  L 57.85 100.25
  A 1.39 1.36 -74.8 0 0 56.66 100.95
  L 47.63 116.79
  A 0.48 0.48 15.3 0 0 48.04 117.51
  L 59.69 117.55
  A 0.29 0.29 -75.0 0 1 59.94 117.99"
/>
<path stroke="#acacad" vector-effect="non-scaling-stroke" d="
  M 90.73 170.52
  L 83.82 184.55
  A 0.48 0.48 -76.5 0 0 84.24 185.25
  L 105.13 185.25
  A 1.50 1.50 -78.4 0 0 106.51 184.34
  L 142.39 100.80
  A 0.35 0.35 26.4 0 0 142.07 100.32
  L 112.24 100.25
  A 3.08 3.02 -71.9 0 0 109.76 101.54
  L 50.72 184.49
  Q 50.18 185.25 51.11 185.25
  L 72.44 185.19
  A 0.94 0.93 -73.0 0 0 73.22 184.77
  L 82.71 170.51
  A 1.16 1.08 -71.4 0 1 83.65 170.00
  L 90.44 170.05
  A 0.33 0.32 -76.9 0 1 90.73 170.52"
/>
<path stroke="#acacad" vector-effect="non-scaling-stroke" d="
  M 158.08 100.70
  L 109.23 184.55
  Q 108.82 185.25 109.64 185.25
  L 130.40 185.25
  A 0.97 0.96 -75.0 0 0 131.24 184.76
  L 179.82 101.30
  Q 180.43 100.25 179.21 100.25
  L 158.86 100.25
  A 0.90 0.90 15.0 0 0 158.08 100.70"
/>
<path stroke="#acacad" vector-effect="non-scaling-stroke" d="
  M 185.22 117.57
  A 0.44 0.43 15.6 0 1 185.60 118.22
  L 146.84 184.86
  Q 146.61 185.25 147.06 185.25
  L 167.89 185.25
  A 1.46 1.45 15.2 0 0 169.14 184.54
  L 207.89 118.00
  A 1.03 1.00 -74.1 0 1 208.76 117.50
  L 220.40 117.50
  A 1.60 1.60 -75.2 0 0 221.79 116.69
  L 230.93 100.87
  A 0.42 0.41 -75.2 0 0 230.57 100.25
  L 183.48 100.25
  A 1.11 1.08 14.2 0 0 182.52 100.80
  L 173.48 116.82
  A 0.32 0.31 14.6 0 0 173.76 117.28
  L 185.22 117.57"
/>
<path stroke="#acacad" vector-effect="non-scaling-stroke" d="
  M 295.91 117.81
  A 0.31 0.30 -74.7 0 1 296.17 118.27
  L 257.34 185.11
  Q 257.11 185.50 257.56 185.50
  L 278.72 185.50
  A 1.33 1.31 15.0 0 0 279.86 184.85
  L 318.32 118.29
  A 1.11 1.10 15.3 0 1 319.27 117.75
  L 331.20 117.70
  A 0.91 0.89 -74.6 0 0 331.95 117.26
  L 341.41 101.14
  Q 341.64 100.75 341.19 100.75
  L 293.80 100.81
  A 0.87 0.84 -74.7 0 0 293.06 101.25
  L 283.81 117.26
  A 0.29 0.29 15.0 0 0 284.06 117.69
  L 295.91 117.81"
/>
<path stroke="#acacad" vector-effect="non-scaling-stroke" d="
  M 391.81 120.69
  C 391.69 118.78 389.75 119.69 388.69 119.70
  Q 381.70 119.79 374.70 119.69
  A 0.91 0.89 15.3 0 0 373.93 120.12
  L 327.07 200.75
  Q 326.81 201.19 327.32 201.19
  L 347.59 201.25
  A 1.21 1.15 -74.0 0 0 348.60 200.66
  L 357.56 185.22
  A 1.15 1.13 18.7 0 1 358.70 184.67
  C 371.53 186.46 384.62 181.14 392.44 170.94
  Q 403.17 156.93 413.13 136.34
  C 422.77 116.41 403.86 116.80 392.28 121.02
  A 0.37 0.35 79.1 0 1 391.81 120.69"
/>
<path stroke="#acacad" vector-effect="non-scaling-stroke" d="
  M 418.85 136.11
  C 411.72 144.39 393.39 170.56 400.86 181.48
  Q 403.28 185.04 408.06 185.44
  Q 432.21 187.47 444.29 165.96
  A 0.31 0.30 -75.0 0 0 444.03 165.50
  L 428.31 165.56
  A 0.74 0.73 -78.6 0 0 427.63 166.02
  C 426.70 168.27 422.41 174.68 420.65 169.97
  A 1.39 1.16 -47.7 0 1 420.69 169.04
  Q 423.55 162.23 427.54 155.99
  A 0.92 0.90 -73.7 0 1 428.31 155.56
  L 451.46 155.50
  A 0.92 0.92 16.0 0 0 452.24 155.07
  C 457.43 146.80 475.94 118.50 452.00 118.80
  C 438.79 118.96 427.23 126.39 418.85 136.11"
/>
<path stroke="#acacad" vector-effect="non-scaling-stroke" d="
  M 318.41 167.23
  Q 317.98 166.43 317.37 163.99
  A 1.26 1.23 -37.0 0 1 317.51 163.06
  L 342.53 120.19
  Q 342.79 119.75 342.27 119.75
  L 321.86 119.75
  A 0.91 0.89 15.0 0 0 321.08 120.19
  L 295.74 164.07
  A 1.07 1.06 50.3 0 0 295.66 164.97
  L 301.57 181.52
  A 0.74 0.72 80.6 0 0 302.24 182.01
  L 313.06 182.19
  Q 313.75 182.21 313.37 182.79
  C 307.26 192.23 294.56 189.33 285.72 186.23
  A 0.93 0.92 -64.9 0 0 284.62 186.64
  L 278.11 197.57
  A 0.55 0.55 -63.4 0 0 278.37 198.36
  C 299.31 206.76 323.93 200.23 335.56 180.28
  Q 353.01 150.34 370.37 120.21
  Q 370.80 119.47 369.93 119.48
  L 349.83 119.67
  A 1.02 0.97 14.1 0 0 348.96 120.16
  L 321.61 167.29
  Q 319.95 170.14 318.41 167.23"
/>
<path stroke="#acacad" vector-effect="non-scaling-stroke" d="
  M 251.56 113.19
  C 247.06 113.44 244.25 119.22 241.22 124.51
  Q 229.65 144.77 217.88 164.90
  Q 216.50 167.27 215.44 169.79
  A 1.56 1.13 -49.2 0 0 215.36 170.73
  C 216.96 175.94 223.91 166.67 224.64 165.27
  C 231.97 151.10 240.75 137.32 248.85 123.56
  Q 251.11 119.73 252.94 115.69
  Q 254.13 113.04 251.56 113.19"
/>
<path stroke="#acacad" vector-effect="non-scaling-stroke" d="
  M 115.45 121.18
  L 92.48 153.81
  Q 91.82 154.75 92.98 154.75
  L 98.41 154.75
  A 1.46 1.40 -76.3 0 0 99.68 153.94
  L 115.68 121.32
  Q 116.45 119.75 115.45 121.18"
/>
<path stroke="#acacad" vector-effect="non-scaling-stroke" d="
  M 386.55 135.27
  Q 376.13 152.94 365.55 171.36
  A 0.44 0.44 -71.7 0 0 365.88 172.02
  Q 369.78 172.48 371.96 169.20
  Q 381.42 154.97 390.47 137.58
  A 4.27 4.25 54.6 0 0 390.91 134.93
  C 390.46 132.01 387.60 133.49 386.55 135.27"
/>
<path stroke="#acacad" vector-effect="non-scaling-stroke" d="
  M 440.52 134.75
  L 435.81 141.52
  Q 435.48 142.00 436.07 142.00
  L 440.65 142.00
  A 0.89 0.81 12.5 0 0 441.42 141.56
  L 444.79 134.97
  A 1.10 0.97 -46.2 0 0 444.83 134.03
  Q 444.21 132.74 442.40 133.37
  A 4.08 3.37 3.3 0 0 440.52 134.75"
/>
</g>
<path fill="#58595b" d="
  M 474.48 139.15
  L 481.64 133.34
  A 1.13 0.91 73.9 0 0 481.99 132.50
  L 480.73 84.65
  A 0.64 0.63 -0.9 0 1 481.37 84.00
  L 527.45 84.06
  A 0.54 0.52 87.6 0 1 527.97 84.56
  L 528.60 92.97
  Q 528.64 93.49 529.03 93.14
  L 538.70 84.40
  A 1.30 1.25 -65.5 0 1 539.56 84.06
  L 598.80 84.00
  Q 600.08 84.00 599.11 84.84
  L 531.36 143.65
  A 1.89 1.89 68.6 0 0 530.71 145.14
  L 532.27 195.92
  A 0.56 0.55 89.0 0 1 531.72 196.50
  L 483.60 196.50
  A 0.54 0.54 -89.5 0 1 483.06 195.95
  L 483.26 185.92
  Q 483.28 184.81 482.42 185.53
  L 470.01 195.98
  A 2.24 2.16 24.0 0 1 468.58 196.50
  C 452.58 196.50 435.19 195.24 419.57 197.25
  C 408.69 198.66 398.89 197.71 391.33 189.13
  A 0.57 0.56 52.7 0 0 390.59 189.02
  Q 379.03 196.58 365.19 197.41
  A 0.99 0.91 12.5 0 0 364.42 197.86
  L 355.94 212.23
  A 2.61 2.43 -73.5 0 1 353.77 213.51
  Q 331.55 213.35 310.00 213.61
  Q 290.32 213.84 290.01 213.81
  C 279.10 212.84 271.10 208.23 261.70 203.04
  A 0.71 0.67 -60.3 0 1 261.47 202.08
  L 263.61 198.47
  Q 264.15 197.56 263.05 197.57
  L 236.80 197.74
  A 0.38 0.38 -75.3 0 1 236.47 197.17
  Q 238.82 192.98 240.96 189.48
  C 241.78 188.15 240.27 188.88 239.93 189.11
  C 224.45 199.80 195.14 205.94 182.92 186.46
  A 0.53 0.53 -46.5 0 0 182.01 186.49
  L 176.18 196.71
  A 1.11 1.07 14.5 0 1 175.23 197.25
  L 0.71 197.25
  Q -0.04 197.25 0.33 196.61
  L 38.69 130.27
  Q 39.31 129.19 38.07 129.31
  Q 32.43 129.85 26.82 129.25
  A 0.34 0.33 18.0 0 1 26.56 128.76
  L 49.60 88.99
  A 1.48 1.46 14.6 0 1 50.88 88.25
  L 244.84 88.25
  Q 246.03 88.25 247.18 87.95
  C 258.76 84.97 273.25 85.61 282.40 94.52
  A 0.46 0.43 -53.2 0 0 283.09 94.39
  L 286.20 89.15
  A 1.02 0.84 11.4 0 1 286.99 88.73
  Q 297.24 88.35 307.50 88.54
  C 325.69 88.88 343.79 88.20 362.04 88.70
  A 0.37 0.37 -74.5 0 1 362.35 89.25
  L 352.08 107.02
  Q 351.81 107.50 352.36 107.50
  Q 372.78 107.50 393.07 107.50
  C 405.04 107.50 415.18 104.00 424.11 114.84
  A 0.57 0.57 -36.4 0 0 424.85 114.95
  Q 436.11 107.74 449.25 106.77
  C 469.77 105.26 480.60 119.11 474.22 138.96
  Q 474.04 139.50 474.48 139.15
  Z
  M 517.53 118.68
  L 516.34 96.68
  A 0.57 0.55 0.0 0 0 515.81 96.16
  Q 504.80 95.65 493.81 96.28
  A 0.52 0.51 -2.3 0 0 493.32 96.80
  L 494.18 137.68
  A 1.09 1.07 69.3 0 1 493.81 138.52
  L 441.40 183.86
  Q 440.66 184.50 441.64 184.50
  L 463.95 184.50
  A 2.72 2.63 23.7 0 0 465.72 183.84
  L 494.23 158.92
  Q 494.74 158.47 494.76 159.14
  L 495.25 183.82
  A 0.69 0.68 89.6 0 0 495.93 184.50
  L 519.20 184.44
  A 0.48 0.48 88.9 0 0 519.68 183.94
  L 518.08 140.19
  A 2.08 1.99 69.1 0 1 518.76 138.57
  L 567.39 96.60
  Q 568.09 96.00 567.17 96.00
  L 545.02 96.00
  A 3.66 3.38 -64.2 0 0 542.68 96.92
  L 517.94 118.87
  Q 517.56 119.21 517.53 118.68
  Z
  M 192.50 176.00
  C 192.48 181.71 196.75 185.29 202.01 186.20
  C 220.26 189.35 237.77 179.79 247.07 164.29
  Q 259.12 144.23 270.58 123.82
  C 274.89 116.14 279.45 106.11 271.30 100.97
  Q 267.73 98.72 260.32 98.69
  Q 242.97 98.64 230.59 109.86
  Q 226.05 113.99 220.24 123.22
  Q 208.06 142.60 197.33 162.83
  C 194.48 168.18 192.51 171.36 192.50 176.00
  Z
  M 59.94 117.99
  L 21.29 184.43
  Q 20.81 185.25 21.75 185.25
  L 42.43 185.19
  A 0.90 0.89 -74.7 0 0 43.20 184.75
  L 81.91 118.36
  A 1.78 1.76 15.0 0 1 83.44 117.49
  L 95.19 117.45
  A 1.00 0.99 -72.8 0 0 95.98 117.03
  L 106.85 101.69
  Q 107.87 100.25 106.10 100.25
  L 57.85 100.25
  A 1.39 1.36 -74.8 0 0 56.66 100.95
  L 47.63 116.79
  A 0.48 0.48 15.3 0 0 48.04 117.51
  L 59.69 117.55
  A 0.29 0.29 -75.0 0 1 59.94 117.99
  Z
  M 90.73 170.52
  L 83.82 184.55
  A 0.48 0.48 -76.5 0 0 84.24 185.25
  L 105.13 185.25
  A 1.50 1.50 -78.4 0 0 106.51 184.34
  L 142.39 100.80
  A 0.35 0.35 26.4 0 0 142.07 100.32
  L 112.24 100.25
  A 3.08 3.02 -71.9 0 0 109.76 101.54
  L 50.72 184.49
  Q 50.18 185.25 51.11 185.25
  L 72.44 185.19
  A 0.94 0.93 -73.0 0 0 73.22 184.77
  L 82.71 170.51
  A 1.16 1.08 -71.4 0 1 83.65 170.00
  L 90.44 170.05
  A 0.33 0.32 -76.9 0 1 90.73 170.52
  Z
  M 158.08 100.70
  L 109.23 184.55
  Q 108.82 185.25 109.64 185.25
  L 130.40 185.25
  A 0.97 0.96 -75.0 0 0 131.24 184.76
  L 179.82 101.30
  Q 180.43 100.25 179.21 100.25
  L 158.86 100.25
  A 0.90 0.90 15.0 0 0 158.08 100.70
  Z
  M 185.22 117.57
  A 0.44 0.43 15.6 0 1 185.60 118.22
  L 146.84 184.86
  Q 146.61 185.25 147.06 185.25
  L 167.89 185.25
  A 1.46 1.45 15.2 0 0 169.14 184.54
  L 207.89 118.00
  A 1.03 1.00 -74.1 0 1 208.76 117.50
  L 220.40 117.50
  A 1.60 1.60 -75.2 0 0 221.79 116.69
  L 230.93 100.87
  A 0.42 0.41 -75.2 0 0 230.57 100.25
  L 183.48 100.25
  A 1.11 1.08 14.2 0 0 182.52 100.80
  L 173.48 116.82
  A 0.32 0.31 14.6 0 0 173.76 117.28
  L 185.22 117.57
  Z
  M 295.91 117.81
  A 0.31 0.30 -74.7 0 1 296.17 118.27
  L 257.34 185.11
  Q 257.11 185.50 257.56 185.50
  L 278.72 185.50
  A 1.33 1.31 15.0 0 0 279.86 184.85
  L 318.32 118.29
  A 1.11 1.10 15.3 0 1 319.27 117.75
  L 331.20 117.70
  A 0.91 0.89 -74.6 0 0 331.95 117.26
  L 341.41 101.14
  Q 341.64 100.75 341.19 100.75
  L 293.80 100.81
  A 0.87 0.84 -74.7 0 0 293.06 101.25
  L 283.81 117.26
  A 0.29 0.29 15.0 0 0 284.06 117.69
  L 295.91 117.81
  Z
  M 391.81 120.69
  C 391.69 118.78 389.75 119.69 388.69 119.70
  Q 381.70 119.79 374.70 119.69
  A 0.91 0.89 15.3 0 0 373.93 120.12
  L 327.07 200.75
  Q 326.81 201.19 327.32 201.19
  L 347.59 201.25
  A 1.21 1.15 -74.0 0 0 348.60 200.66
  L 357.56 185.22
  A 1.15 1.13 18.7 0 1 358.70 184.67
  C 371.53 186.46 384.62 181.14 392.44 170.94
  Q 403.17 156.93 413.13 136.34
  C 422.77 116.41 403.86 116.80 392.28 121.02
  A 0.37 0.35 79.1 0 1 391.81 120.69
  Z
  M 418.85 136.11
  C 411.72 144.39 393.39 170.56 400.86 181.48
  Q 403.28 185.04 408.06 185.44
  Q 432.21 187.47 444.29 165.96
  A 0.31 0.30 -75.0 0 0 444.03 165.50
  L 428.31 165.56
  A 0.74 0.73 -78.6 0 0 427.63 166.02
  C 426.70 168.27 422.41 174.68 420.65 169.97
  A 1.39 1.16 -47.7 0 1 420.69 169.04
  Q 423.55 162.23 427.54 155.99
  A 0.92 0.90 -73.7 0 1 428.31 155.56
  L 451.46 155.50
  A 0.92 0.92 16.0 0 0 452.24 155.07
  C 457.43 146.80 475.94 118.50 452.00 118.80
  C 438.79 118.96 427.23 126.39 418.85 136.11
  Z
  M 318.41 167.23
  Q 317.98 166.43 317.37 163.99
  A 1.26 1.23 -37.0 0 1 317.51 163.06
  L 342.53 120.19
  Q 342.79 119.75 342.27 119.75
  L 321.86 119.75
  A 0.91 0.89 15.0 0 0 321.08 120.19
  L 295.74 164.07
  A 1.07 1.06 50.3 0 0 295.66 164.97
  L 301.57 181.52
  A 0.74 0.72 80.6 0 0 302.24 182.01
  L 313.06 182.19
  Q 313.75 182.21 313.37 182.79
  C 307.26 192.23 294.56 189.33 285.72 186.23
  A 0.93 0.92 -64.9 0 0 284.62 186.64
  L 278.11 197.57
  A 0.55 0.55 -63.4 0 0 278.37 198.36
  C 299.31 206.76 323.93 200.23 335.56 180.28
  Q 353.01 150.34 370.37 120.21
  Q 370.80 119.47 369.93 119.48
  L 349.83 119.67
  A 1.02 0.97 14.1 0 0 348.96 120.16
  L 321.61 167.29
  Q 319.95 170.14 318.41 167.23
  Z"
/>
<path fill="#007dc5" d="
  M 517.94 118.87
  L 542.68 96.92
  A 3.66 3.38 -64.2 0 1 545.02 96.00
  L 567.17 96.00
  Q 568.09 96.00 567.39 96.60
  L 518.76 138.57
  A 2.08 1.99 69.1 0 0 518.08 140.19
  L 519.68 183.94
  A 0.48 0.48 88.9 0 1 519.20 184.44
  L 495.93 184.50
  A 0.69 0.68 89.6 0 1 495.25 183.82
  L 494.76 159.14
  Q 494.74 158.47 494.23 158.92
  L 465.72 183.84
  A 2.72 2.63 23.7 0 1 463.95 184.50
  L 441.64 184.50
  Q 440.66 184.50 441.40 183.86
  L 493.81 138.52
  A 1.09 1.07 69.3 0 0 494.18 137.68
  L 493.32 96.80
  A 0.52 0.51 -2.3 0 1 493.81 96.28
  Q 504.80 95.65 515.81 96.16
  A 0.57 0.55 0.0 0 1 516.34 96.68
  L 517.53 118.68
  Q 517.56 119.21 517.94 118.87
  Z"
/>
<path fill="#ffffff" d="
  M 202.01 186.20
  C 196.75 185.29 192.48 181.71 192.50 176.00
  C 192.51 171.36 194.48 168.18 197.33 162.83
  Q 208.06 142.60 220.24 123.22
  Q 226.05 113.99 230.59 109.86
  Q 242.97 98.64 260.32 98.69
  Q 267.73 98.72 271.30 100.97
  C 279.45 106.11 274.89 116.14 270.58 123.82
  Q 259.12 144.23 247.07 164.29
  C 237.77 179.79 220.26 189.35 202.01 186.20
  Z
  M 251.56 113.19
  C 247.06 113.44 244.25 119.22 241.22 124.51
  Q 229.65 144.77 217.88 164.90
  Q 216.50 167.27 215.44 169.79
  A 1.56 1.13 -49.2 0 0 215.36 170.73
  C 216.96 175.94 223.91 166.67 224.64 165.27
  C 231.97 151.10 240.75 137.32 248.85 123.56
  Q 251.11 119.73 252.94 115.69
  Q 254.13 113.04 251.56 113.19
  Z"
/>
<path fill="#ffffff" d="
  M 59.69 117.55
  L 48.04 117.51
  A 0.48 0.48 15.3 0 1 47.63 116.79
  L 56.66 100.95
  A 1.39 1.36 -74.8 0 1 57.85 100.25
  L 106.10 100.25
  Q 107.87 100.25 106.85 101.69
  L 95.98 117.03
  A 1.00 0.99 -72.8 0 1 95.19 117.45
  L 83.44 117.49
  A 1.78 1.76 15.0 0 0 81.91 118.36
  L 43.20 184.75
  A 0.90 0.89 -74.7 0 1 42.43 185.19
  L 21.75 185.25
  Q 20.81 185.25 21.29 184.43
  L 59.94 117.99
  A 0.29 0.29 -75.0 0 0 59.69 117.55
  Z"
/>
<path fill="#ffffff" d="
  M 90.44 170.05
  L 83.65 170.00
  A 1.16 1.08 -71.4 0 0 82.71 170.51
  L 73.22 184.77
  A 0.94 0.93 -73.0 0 1 72.44 185.19
  L 51.11 185.25
  Q 50.18 185.25 50.72 184.49
  L 109.76 101.54
  A 3.08 3.02 -71.9 0 1 112.24 100.25
  L 142.07 100.32
  A 0.35 0.35 0.0 0 1 142.39 100.80
  L 106.51 184.34
  A 1.50 1.50 -78.4 0 1 105.13 185.25
  L 84.24 185.25
  A 0.48 0.48 -76.5 0 1 83.82 184.55
  L 90.73 170.52
  A 0.33 0.32 -76.9 0 0 90.44 170.05
  Z
  M 115.45 121.18
  L 92.48 153.81
  Q 91.82 154.75 92.98 154.75
  L 98.41 154.75
  A 1.46 1.40 -76.3 0 0 99.68 153.94
  L 115.68 121.32
  Q 116.45 119.75 115.45 121.18
  Z"
/>
<path fill="#ffffff" d="
  M 158.08 100.70
  A 0.90 0.90 15.0 0 1 158.86 100.25
  L 179.21 100.25
  Q 180.43 100.25 179.82 101.30
  L 131.24 184.76
  A 0.97 0.96 -75.0 0 1 130.40 185.25
  L 109.64 185.25
  Q 108.82 185.25 109.23 184.55
  L 158.08 100.70
  Z"
/>
<path fill="#ffffff" d="
  M 185.22 117.57
  L 173.76 117.28
  A 0.32 0.31 14.6 0 1 173.48 116.82
  L 182.52 100.80
  A 1.11 1.08 14.2 0 1 183.48 100.25
  L 230.57 100.25
  A 0.42 0.41 -75.2 0 1 230.93 100.87
  L 221.79 116.69
  A 1.60 1.60 -75.2 0 1 220.40 117.50
  L 208.76 117.50
  A 1.03 1.00 -74.1 0 0 207.89 118.00
  L 169.14 184.54
  A 1.46 1.45 15.2 0 1 167.89 185.25
  L 147.06 185.25
  Q 146.61 185.25 146.84 184.86
  L 185.60 118.22
  A 0.44 0.43 15.6 0 0 185.22 117.57
  Z"
/>
<path fill="#ffffff" d="
  M 295.91 117.81
  L 284.06 117.69
  A 0.29 0.29 15.0 0 1 283.81 117.26
  L 293.06 101.25
  A 0.87 0.84 -74.7 0 1 293.80 100.81
  L 341.19 100.75
  Q 341.64 100.75 341.41 101.14
  L 331.95 117.26
  A 0.91 0.89 -74.6 0 1 331.20 117.70
  L 319.27 117.75
  A 1.11 1.10 15.3 0 0 318.32 118.29
  L 279.86 184.85
  A 1.33 1.31 15.0 0 1 278.72 185.50
  L 257.56 185.50
  Q 257.11 185.50 257.34 185.11
  L 296.17 118.27
  A 0.31 0.30 -74.7 0 0 295.91 117.81
  Z"
/>
<path fill="#58595b" d="
  M 251.56 113.19
  Q 254.13 113.04 252.94 115.69
  Q 251.11 119.73 248.85 123.56
  C 240.75 137.32 231.97 151.10 224.64 165.27
  C 223.91 166.67 216.96 175.94 215.36 170.73
  A 1.56 1.13 -49.2 0 1 215.44 169.79
  Q 216.50 167.27 217.88 164.90
  Q 229.65 144.77 241.22 124.51
  C 244.25 119.22 247.06 113.44 251.56 113.19
  Z"
/>
<path fill="#ffffff" d="
  M 392.28 121.02
  C 403.86 116.80 422.77 116.41 413.13 136.34
  Q 403.17 156.93 392.44 170.94
  C 384.62 181.14 371.53 186.46 358.70 184.67
  A 1.15 1.13 18.7 0 0 357.56 185.22
  L 348.60 200.66
  A 1.21 1.15 -74.0 0 1 347.59 201.25
  L 327.32 201.19
  Q 326.81 201.19 327.07 200.75
  L 373.93 120.12
  A 0.91 0.89 15.3 0 1 374.70 119.69
  Q 381.70 119.79 388.69 119.70
  C 389.75 119.69 391.69 118.78 391.81 120.69
  A 0.37 0.35 79.1 0 0 392.28 121.02
  Z
  M 386.55 135.27
  Q 376.13 152.94 365.55 171.36
  A 0.44 0.44 -71.7 0 0 365.88 172.02
  Q 369.78 172.48 371.96 169.20
  Q 381.42 154.97 390.47 137.58
  A 4.27 4.25 54.6 0 0 390.91 134.93
  C 390.46 132.01 387.60 133.49 386.55 135.27
  Z"
/>
<path fill="#ffffff" d="
  M 418.85 136.11
  C 427.23 126.39 438.79 118.96 452.00 118.80
  C 475.94 118.50 457.43 146.80 452.24 155.07
  A 0.92 0.92 16.0 0 1 451.46 155.50
  L 428.31 155.56
  A 0.92 0.90 -73.7 0 0 427.54 155.99
  Q 423.55 162.23 420.69 169.04
  A 1.39 1.16 -47.7 0 0 420.65 169.97
  C 422.41 174.68 426.70 168.27 427.63 166.02
  A 0.74 0.73 -78.6 0 1 428.31 165.56
  L 444.03 165.50
  A 0.31 0.30 -75.0 0 1 444.29 165.96
  Q 432.21 187.47 408.06 185.44
  Q 403.28 185.04 400.86 181.48
  C 393.39 170.56 411.72 144.39 418.85 136.11
  Z
  M 440.52 134.75
  L 435.81 141.52
  Q 435.48 142.00 436.07 142.00
  L 440.65 142.00
  A 0.89 0.81 12.5 0 0 441.42 141.56
  L 444.79 134.97
  A 1.10 0.97 -46.2 0 0 444.83 134.03
  Q 444.21 132.74 442.40 133.37
  A 4.08 3.37 3.3 0 0 440.52 134.75
  Z"
/>
<path fill="#ffffff" d="
  M 318.41 167.23
  Q 319.95 170.14 321.61 167.29
  L 348.96 120.16
  A 1.02 0.97 14.1 0 1 349.83 119.67
  L 369.93 119.48
  Q 370.80 119.47 370.37 120.21
  Q 353.01 150.34 335.56 180.28
  C 323.93 200.23 299.31 206.76 278.37 198.36
  A 0.55 0.55 -63.4 0 1 278.11 197.57
  L 284.62 186.64
  A 0.93 0.92 -64.9 0 1 285.72 186.23
  C 294.56 189.33 307.26 192.23 313.37 182.79
  Q 313.75 182.21 313.06 182.19
  L 302.24 182.01
  A 0.74 0.72 80.6 0 1 301.57 181.52
  L 295.66 164.97
  A 1.07 1.06 50.3 0 1 295.74 164.07
  L 321.08 120.19
  A 0.91 0.89 15.0 0 1 321.86 119.75
  L 342.27 119.75
  Q 342.79 119.75 342.53 120.19
  L 317.51 163.06
  A 1.26 1.23 -37.0 0 0 317.37 163.99
  Q 317.98 166.43 318.41 167.23
  Z"
/>
<path fill="#58595b" d="
  M 115.45 121.18
  Q 116.45 119.75 115.68 121.32
  L 99.68 153.94
  A 1.46 1.40 -76.3 0 1 98.41 154.75
  L 92.98 154.75
  Q 91.82 154.75 92.48 153.81
  L 115.45 121.18
  Z"
/>
<path fill="#58595b" d="
  M 440.52 134.75
  A 4.08 3.37 3.3 0 1 442.40 133.37
  Q 444.21 132.74 444.83 134.03
  A 1.10 0.97 -46.2 0 1 444.79 134.97
  L 441.42 141.56
  A 0.89 0.81 12.5 0 1 440.65 142.00
  L 436.07 142.00
  Q 435.48 142.00 435.81 141.52
  L 440.52 134.75
  Z"
/>
<path fill="#58595b" d="
  M 386.55 135.27
  C 387.60 133.49 390.46 132.01 390.91 134.93
  A 4.27 4.25 54.6 0 1 390.47 137.58
  Q 381.42 154.97 371.96 169.20
  Q 369.78 172.48 365.88 172.02
  A 0.44 0.44 -71.7 0 1 365.55 171.36
  Q 376.13 152.94 386.55 135.27
  Z"
/>
</svg>
