<?xml version="1.0" encoding="UTF-8" standalone="no"?>
<!DOCTYPE svg PUBLIC "-//W3C//DTD SVG 1.1//EN" "http://www.w3.org/Graphics/SVG/1.1/DTD/svg11.dtd">
<svg xmlns="http://www.w3.org/2000/svg" version="1.1" viewBox="0 0 600 300">
<g stroke-width="2.00" fill="none" stroke-linecap="butt">
<path stroke="#800001" stroke-opacity="0.988" vector-effect="non-scaling-stroke" d="
  M 60.04 23.25
  Q 59.62 32.92 50.64 33.70
  Q 47.95 33.93 47.59 36.60
  C 46.85 42.03 44.45 45.09 39.12 45.81
  C 34.05 46.50 35.35 50.52 33.66 53.61
  C 29.06 62.03 17.29 58.10 16.46 49.00"
/>
<path stroke="#800001" stroke-opacity="0.988" vector-effect="non-scaling-stroke" d="
  M 28.71 36.75
  C 28.16 32.97 25.74 33.80 23.03 32.92
  Q 18.27 31.38 16.75 26.29"
/>
<path stroke="#810001" stroke-opacity="0.988" vector-effect="non-scaling-stroke" d="
  M 85.41 24.74
  C 82.15 37.33 66.36 35.55 66.71 23.00"
/>
<path stroke="#800001" stroke-opacity="0.988" vector-effect="non-scaling-stroke" d="
  M 160.29 23.50
  Q 159.77 32.34 151.75 33.50
  Q 148.63 33.95 147.96 36.25"
/>
<path stroke="#800001" stroke-opacity="0.988" vector-effect="non-scaling-stroke" d="
  M 147.96 36.25
  Q 147.50 42.46 142.43 45.11
  C 138.18 47.33 136.37 44.32 134.92 50.86
  C 132.71 60.89 118.72 60.55 116.94 50.60
  C 116.00 45.36 114.48 46.80 110.45 45.36
  Q 104.72 43.31 104.21 36.75"
/>
<path stroke="#800001" stroke-opacity="0.988" vector-effect="non-scaling-stroke" d="
  M 104.21 36.75
  C 103.21 33.28 101.25 33.84 98.47 32.97
  Q 91.68 30.85 91.71 23.25"
/>
<path stroke="#810001" stroke-opacity="0.988" vector-effect="non-scaling-stroke" d="
  M 185.29 23.00
  C 184.60 36.44 168.80 36.62 166.71 24.75"
/>
<path stroke="#800001" stroke-opacity="0.988" vector-effect="non-scaling-stroke" d="
  M 235.46 25.00
  C 234.56 29.42 232.34 32.05 227.91 33.04
  C 225.70 33.53 222.28 34.64 223.21 37.50"
/>
<path stroke="#800001" stroke-opacity="0.988" vector-effect="non-scaling-stroke" d="
  M 235.46 50.25
  Q 234.37 56.19 228.75 57.79"
/>
<path stroke="#ba0000" vector-effect="non-scaling-stroke" d="
  M 228.75 57.79
  L 223.25 57.79"
/>
<path stroke="#800001" stroke-opacity="0.988" vector-effect="non-scaling-stroke" d="
  M 223.25 57.79
  Q 217.58 55.62 216.79 49.50"
/>
<path stroke="#800001" stroke-opacity="0.988" vector-effect="non-scaling-stroke" d="
  M 216.79 49.50
  C 216.21 45.24 213.30 46.37 210.54 45.31
  Q 205.52 43.39 204.31 36.50
  Q 203.86 33.89 201.21 33.74
  Q 193.82 33.33 191.79 25.00"
/>
<path stroke="#3f0001" stroke-opacity="0.988" vector-effect="non-scaling-stroke" d="
  M 223.25 57.79
  Q 226.01 60.15 228.75 57.79"
/>
<path stroke="#790001" stroke-opacity="0.988" vector-effect="non-scaling-stroke" d="
  M 97.63 60.23
  Q 97.88 67.89 91.53 70.33
  C 87.61 71.84 86.08 69.91 84.97 75.39
  C 82.84 85.92 68.32 85.89 66.75 75.21"
/>
<path stroke="#790001" stroke-opacity="0.988" vector-effect="non-scaling-stroke" d="
  M 66.75 75.21
  C 66.08 70.15 62.60 71.56 59.53 70.05
  Q 54.01 67.33 54.21 60.50"
/>
<path stroke="#790001" stroke-opacity="0.988" vector-effect="non-scaling-stroke" d="
  M 197.71 59.70
  Q 198.33 67.18 192.54 70.03
  C 189.80 71.38 186.04 70.15 185.15 74.68
  Q 184.65 77.24 184.63 77.29
  C 182.18 84.59 171.28 85.79 168.07 78.58
  C 165.75 73.40 168.25 72.47 161.40 70.63
  Q 154.23 68.71 154.46 60.25"
/>
<path stroke="#dd0000" vector-effect="non-scaling-stroke" d="
  M 49.50 89.96
  Q 46.49 92.03 42.25 91.75
  Q 37.18 91.42 25.69 91.94
  C 20.88 92.16 26.98 91.08 26.75 90.04"
/>
<path stroke="#750001" stroke-opacity="0.988" vector-effect="non-scaling-stroke" d="
  M 28.79 87.50
  Q 29.13 84.14 25.56 83.69
  Q 18.97 82.85 16.65 76.25"
/>
<path stroke="#d00000" vector-effect="non-scaling-stroke" d="
  M 72.46 109.95
  Q 71.85 111.82 70.44 111.81
  Q 63.37 111.75 56.31 111.69
  A 1.58 1.11 56.5 0 1 55.44 111.35
  C 54.42 110.53 54.26 114.83 54.04 111.25"
/>
<path stroke="#6e0001" stroke-opacity="0.988" vector-effect="non-scaling-stroke" d="
  M 54.04 111.25
  Q 52.86 107.51 49.00 109.04"
/>
<path stroke="#d00000" vector-effect="non-scaling-stroke" d="
  M 49.00 109.04
  Q 47.22 109.61 46.39 111.24
  A 0.85 0.78 -76.0 0 1 45.69 111.70
  Q 39.91 111.80 34.13 111.76
  C 33.21 111.75 31.75 111.27 31.35 112.51
  Q 31.22 112.91 31.00 112.57
  C 29.18 109.74 29.43 116.18 29.04 111.00"
/>
<path stroke="#6e0001" stroke-opacity="0.988" vector-effect="non-scaling-stroke" d="
  M 29.04 111.00
  C 25.96 106.03 19.18 109.90 16.79 101.25"
/>
<path stroke="#670001" stroke-opacity="0.988" vector-effect="non-scaling-stroke" d="
  M 135.30 124.51
  Q 133.72 133.59 124.46 133.73"
/>
<path stroke="#c40000" vector-effect="non-scaling-stroke" d="
  M 124.46 133.73
  Q 115.68 133.40 106.75 133.26
  Q 95.63 133.08 84.51 133.57
  C 81.62 133.70 78.35 133.05 75.19 133.28
  C 67.91 133.81 60.80 133.21 53.51 133.25
  A 1.27 1.07 64.5 0 1 52.67 132.87
  Q 51.35 131.49 50.07 132.86
  A 1.34 1.10 -66.3 0 1 49.25 133.28
  C 46.40 133.42 26.81 134.06 25.76 132.68
  A 1.42 0.55 60.1 0 0 25.03 132.09
  L 19.74 131.02"
/>
<path stroke="#670001" stroke-opacity="0.988" vector-effect="non-scaling-stroke" d="
  M 19.74 131.02
  Q 16.40 128.25 16.46 123.75"
/>
<path stroke="#670001" stroke-opacity="0.988" vector-effect="non-scaling-stroke" d="
  M 29.04 111.00
  Q 29.13 111.82 28.79 112.50"
/>
<path stroke="#670001" stroke-opacity="0.988" vector-effect="non-scaling-stroke" d="
  M 54.04 111.25
  Q 54.13 112.07 53.79 112.75"
/>
<path stroke="#670001" stroke-opacity="0.988" vector-effect="non-scaling-stroke" d="
  M 47.96 113.00
  Q 46.90 110.65 49.00 109.04"
/>
<path stroke="#ba0000" vector-effect="non-scaling-stroke" d="
  M 134.00 145.21
  Q 133.56 146.93 132.43 146.73
  C 128.28 145.97 122.87 146.48 118.56 146.44
  Q 118.12 146.44 117.65 146.16
  Q 116.14 145.28 114.75 146.29"
/>
<path stroke="#6a0003" stroke-opacity="0.980" vector-effect="non-scaling-stroke" d="
  M 114.75 146.29
  L 113.25 145.96"
/>
<path stroke="#ba0000" vector-effect="non-scaling-stroke" d="
  M 113.25 145.96
  Q 112.66 144.56 110.50 144.75
  Q 103.61 145.37 93.97 144.63
  Q 89.11 144.26 84.15 144.61
  Q 73.74 145.34 63.31 144.72
  Q 63.08 144.70 62.45 144.37
  Q 62.00 144.13 61.25 144.25
  Q 52.67 145.65 41.99 144.55
  Q 41.56 144.51 41.06 144.73
  Q 39.57 145.37 38.36 144.35
  A 1.35 0.89 55.2 0 0 37.51 144.01
  C 36.28 144.09 35.48 144.74 34.31 144.79
  Q 28.73 145.03 23.16 144.84
  C 22.35 144.81 20.29 145.73 20.98 144.01
  Q 21.17 143.53 20.72 143.72
  C 20.00 144.04 17.77 146.80 18.96 143.50"
/>
<path stroke="#620001" stroke-opacity="0.988" vector-effect="non-scaling-stroke" d="
  M 122.96 137.50
  Q 122.51 135.42 124.46 133.73"
/>
<path stroke="#620001" stroke-opacity="0.988" vector-effect="non-scaling-stroke" d="
  M 19.74 131.02
  C 22.36 133.42 28.83 133.22 28.71 136.75"
/>
<path stroke="#650003" stroke-opacity="0.980" vector-effect="non-scaling-stroke" d="
  M 113.25 145.96
  Q 109.79 146.61 110.46 150.00"
/>
<path stroke="#650003" stroke-opacity="0.980" vector-effect="non-scaling-stroke" d="
  M 116.29 150.75
  Q 117.62 147.81 114.75 146.29"
/>
<path stroke="#5d0001" stroke-opacity="0.988" vector-effect="non-scaling-stroke" d="
  M 135.29 148.50
  Q 134.85 157.71 126.00 158.75
  Q 122.50 159.16 122.79 162.50"
/>
<path stroke="#ae0000" vector-effect="non-scaling-stroke" d="
  M 122.79 162.50
  L 122.41 164.23
  A 0.78 0.58 4.4 0 1 121.68 164.69
  L 106.49 164.75
  Q 106.11 164.75 105.58 164.49
  Q 104.58 163.98 104.19 165.07
  A 1.20 0.68 -81.0 0 1 103.62 165.78
  Q 102.68 166.11 102.46 165.00"
/>
<path stroke="#650003" stroke-opacity="0.980" vector-effect="non-scaling-stroke" d="
  M 104.00 162.78
  Q 104.77 160.90 103.43 159.59
  C 101.12 157.32 97.75 158.90 97.54 162.25"
/>
<path stroke="#ae0000" vector-effect="non-scaling-stroke" d="
  M 97.54 162.25
  Q 98.19 164.65 95.75 164.75
  Q 85.83 165.14 78.43 164.14"
/>
<path stroke="#5d0001" stroke-opacity="0.988" vector-effect="non-scaling-stroke" d="
  M 78.79 162.50
  C 80.56 159.98 76.13 157.43 73.46 159.75"
/>
<path stroke="#ae0000" vector-effect="non-scaling-stroke" d="
  M 73.46 159.75
  Q 71.44 161.32 71.71 162.41
  Q 72.32 164.86 69.80 164.90
  Q 60.52 165.05 53.36 164.18"
/>
<path stroke="#5d0001" stroke-opacity="0.988" vector-effect="non-scaling-stroke" d="
  M 53.79 162.75
  C 54.76 156.50 45.94 157.95 47.96 163.00"
/>
<path stroke="#ae0000" vector-effect="non-scaling-stroke" d="
  M 49.23 165.02
  Q 39.91 164.30 30.77 166.71"
/>
<path stroke="#5d0001" stroke-opacity="0.988" vector-effect="non-scaling-stroke" d="
  M 30.77 166.71
  L 29.25 163.46"
/>
<path stroke="#5d0001" stroke-opacity="0.988" vector-effect="non-scaling-stroke" d="
  M 29.25 163.46
  C 29.43 159.84 27.70 159.18 24.41 158.48
  Q 18.18 157.16 16.50 150.54"
/>
<path stroke="#a20000" vector-effect="non-scaling-stroke" d="
  M 147.51 184.18
  L 146.17 186.54
  A 0.87 0.66 -70.8 0 1 145.50 186.99
  C 140.86 186.87 135.42 187.29 130.93 186.55
  A 0.52 0.52 -78.2 0 0 130.35 186.93
  Q 130.02 188.19 128.79 188.25"
/>
<path stroke="#5e0003" stroke-opacity="0.980" vector-effect="non-scaling-stroke" d="
  M 128.79 188.00
  L 129.23 187.42
  A 1.00 0.94 55.1 0 0 129.36 186.52
  C 128.24 183.06 123.37 182.14 122.72 186.77"
/>
<path stroke="#a20000" vector-effect="non-scaling-stroke" d="
  M 122.72 186.77
  Q 113.59 187.30 104.51 186.24"
/>
<path stroke="#690204" stroke-opacity="0.953" vector-effect="non-scaling-stroke" d="
  M 104.51 186.24
  Q 101.17 180.62 97.71 185.75"
/>
<path stroke="#a20000" vector-effect="non-scaling-stroke" d="
  M 97.71 185.75
  Q 89.64 186.42 81.57 185.73
  Q 81.10 185.69 80.66 185.39
  Q 79.45 184.56 78.00 184.29"
/>
<path stroke="#5e0003" stroke-opacity="0.980" vector-effect="non-scaling-stroke" d="
  M 78.00 184.29
  Q 73.81 182.15 72.47 186.70"
/>
<path stroke="#a20000" vector-effect="non-scaling-stroke" d="
  M 72.47 186.70
  Q 65.32 186.79 58.19 186.94
  Q 56.50 186.97 55.53 186.72
  A 0.42 0.41 -77.8 0 0 55.02 187.06
  Q 54.91 187.72 54.46 188.25"
/>
<path stroke="#560001" stroke-opacity="0.988" vector-effect="non-scaling-stroke" d="
  M 54.46 188.25
  C 53.78 181.96 48.74 184.63 45.32 181.69
  C 40.87 177.88 43.43 171.57 37.00 171.00
  Q 32.96 170.64 30.77 166.71"
/>
<path stroke="#5e0003" stroke-opacity="0.980" vector-effect="non-scaling-stroke" d="
  M 97.96 162.75
  L 97.54 162.25"
/>
<path stroke="#510001" stroke-opacity="0.988" vector-effect="non-scaling-stroke" d="
  M 54.46 188.25
  Q 55.39 195.15 62.25 195.79"
/>
<path stroke="#4b0001" stroke-opacity="0.988" vector-effect="non-scaling-stroke" d="
  M 62.25 195.79
  Q 66.91 196.50 67.04 201.25"
/>
<path stroke="#560001" stroke-opacity="0.988" vector-effect="non-scaling-stroke" d="
  M 123.21 163.00
  L 122.79 162.50"
/>
<path stroke="#560001" stroke-opacity="0.988" vector-effect="non-scaling-stroke" d="
  M 72.96 162.75
  Q 72.11 161.12 73.46 159.75"
/>
<path stroke="#590003" stroke-opacity="0.980" vector-effect="non-scaling-stroke" d="
  M 78.00 184.29
  Q 79.89 185.90 78.79 187.75"
/>
<path stroke="#590003" stroke-opacity="0.980" vector-effect="non-scaling-stroke" d="
  M 72.96 188.00
  Q 72.38 187.26 72.47 186.70"
/>
<path stroke="#640204" stroke-opacity="0.953" vector-effect="non-scaling-stroke" d="
  M 104.51 186.24
  Q 104.86 186.94 103.79 187.75"
/>
<path stroke="#640204" stroke-opacity="0.953" vector-effect="non-scaling-stroke" d="
  M 98.00 187.54
  Q 97.17 186.77 97.71 185.75"
/>
<path stroke="#980000" vector-effect="non-scaling-stroke" d="
  M 159.00 195.21
  C 158.93 195.34 157.64 200.03 157.72 198.11
  A 0.33 0.31 -88.3 0 0 157.41 197.76
  L 143.57 197.94
  A 0.87 0.75 73.6 0 1 142.85 197.48
  Q 141.08 194.15 135.73 196.51
  A 1.19 1.19 -27.6 0 0 135.19 198.22
  C 135.44 198.63 134.44 199.26 133.79 199.23
  Q 126.25 198.86 118.65 198.94
  A 0.62 0.62 -5.7 0 1 118.04 198.44
  Q 117.62 196.34 116.00 197.04"
/>
<path stroke="#640204" stroke-opacity="0.953" vector-effect="non-scaling-stroke" d="
  M 116.00 197.04
  Q 114.53 195.49 112.54 196.00"
/>
<path stroke="#980000" vector-effect="non-scaling-stroke" d="
  M 112.54 196.00
  Q 110.60 194.86 108.33 197.18
  A 2.21 1.89 18.2 0 1 106.87 197.78
  L 94.17 198.02
  A 1.06 0.96 -17.8 0 1 93.34 197.64
  Q 91.10 194.66 91.46 197.57"
/>
<path stroke="#640204" stroke-opacity="0.953" vector-effect="non-scaling-stroke" d="
  M 91.46 197.57
  Q 89.74 195.64 87.75 195.79"
/>
<path stroke="#980000" vector-effect="non-scaling-stroke" d="
  M 87.75 195.79
  Q 85.17 195.01 84.77 197.36
  A 0.83 0.82 7.1 0 1 83.88 198.05
  Q 77.12 197.49 71.00 198.00
  Q 67.59 198.28 65.86 196.10
  A 1.17 0.64 60.1 0 0 65.07 195.62
  L 62.25 195.79"
/>
<path stroke="#590003" stroke-opacity="0.980" vector-effect="non-scaling-stroke" d="
  M 123.21 188.25
  Q 122.58 187.34 122.72 186.77"
/>
<path stroke="#460001" stroke-opacity="0.988" vector-effect="non-scaling-stroke" d="
  M 82.25 218.49
  C 85.56 221.76 92.40 219.99 91.79 225.75"
/>
<path stroke="#8d0000" vector-effect="non-scaling-stroke" d="
  M 184.25 220.46
  Q 183.18 220.90 183.02 222.00
  A 0.54 0.51 -85.7 0 1 182.50 222.47
  L 168.42 222.27
  A 1.59 1.38 -20.1 0 1 167.42 221.89
  Q 164.19 218.89 161.79 221.50"
/>
<path stroke="#530003" stroke-opacity="0.980" vector-effect="non-scaling-stroke" d="
  M 161.79 221.50
  Q 161.62 221.84 161.25 221.79"
/>
<path stroke="#8d0000" vector-effect="non-scaling-stroke" d="
  M 161.25 221.79
  Q 159.82 221.99 159.38 223.27
  A 0.78 0.54 -75.6 0 1 158.76 223.81
  Q 158.02 223.76 157.66 222.76
  A 0.73 0.69 79.8 0 0 156.98 222.26
  L 141.48 222.53"
/>
<path stroke="#4b0001" stroke-opacity="0.988" vector-effect="non-scaling-stroke" d="
  M 141.48 222.53
  Q 140.69 222.22 139.63 220.79"
/>
<path stroke="#8d0000" vector-effect="non-scaling-stroke" d="
  M 139.63 220.79
  Q 136.97 219.36 134.98 222.71
  Q 134.42 223.65 133.99 222.64
  C 133.71 221.99 124.65 222.25 123.33 222.25
  Q 121.29 222.25 118.31 221.43
  Q 114.72 220.44 110.94 220.65
  A 1.81 1.15 -55.6 0 0 110.07 221.02
  L 108.92 221.96
  A 1.53 1.22 21.2 0 1 108.00 222.25
  L 95.06 222.20
  A 0.48 0.44 -88.1 0 1 94.63 221.70
  Q 94.66 220.75 93.71 220.75
  Q 92.40 220.76 91.14 220.38
  Q 88.20 219.51 87.48 220.07
  A 0.57 0.36 -41.6 0 1 86.88 220.17
  Q 84.86 218.50 82.25 218.49"
/>
<path stroke="#4b0001" stroke-opacity="0.988" vector-effect="non-scaling-stroke" d="
  M 82.25 218.49
  Q 79.64 216.43 79.53 213.00
  C 79.41 209.01 77.31 209.27 74.42 208.58
  Q 68.58 207.18 67.04 201.25"
/>
<path stroke="#5e0204" stroke-opacity="0.953" vector-effect="non-scaling-stroke" d="
  M 87.75 195.79
  Q 84.79 197.19 85.23 200.23"
/>
<path stroke="#5e0204" stroke-opacity="0.953" vector-effect="non-scaling-stroke" d="
  M 91.29 200.75
  Q 92.62 199.10 91.46 197.57"
/>
<path stroke="#5e0204" stroke-opacity="0.953" vector-effect="non-scaling-stroke" d="
  M 112.54 196.00
  Q 109.46 197.23 110.46 200.50"
/>
<path stroke="#5e0204" stroke-opacity="0.953" vector-effect="non-scaling-stroke" d="
  M 116.54 200.50
  Q 117.53 198.62 116.00 197.04"
/>
<path stroke="#460001" stroke-opacity="0.988" vector-effect="non-scaling-stroke" d="
  M 139.63 220.79
  C 131.28 221.95 137.39 231.77 127.70 233.35
  C 124.77 233.83 122.72 234.10 122.50 237.25
  Q 122.03 244.10 115.75 245.79"
/>
<path stroke="#810000" vector-effect="non-scaling-stroke" d="
  M 115.75 245.79
  L 112.25 245.56
  A 1.01 0.99 22.1 0 0 111.44 245.89
  L 111.04 246.33
  A 1.10 0.95 20.4 0 1 110.18 246.65
  Q 101.22 245.93 92.15 246.48"
/>
<path stroke="#460001" stroke-opacity="0.988" vector-effect="non-scaling-stroke" d="
  M 103.96 237.65
  C 105.17 232.86 97.87 233.85 95.26 231.74
  Q 92.48 229.50 91.79 225.75"
/>
<path stroke="#3f0001" stroke-opacity="0.988" vector-effect="non-scaling-stroke" d="
  M 110.54 249.25
  C 110.41 246.20 113.72 246.36 115.75 245.79"
/>
<path stroke="#820000" vector-effect="non-scaling-stroke" d="
  M 194.04 229.75
  Q 194.17 230.95 195.18 231.47
  A 0.60 0.59 -69.9 0 1 195.49 232.15
  Q 194.95 234.17 195.95 234.67
  A 0.82 0.56 19.5 0 1 196.42 235.31
  C 196.09 240.40 186.38 236.04 181.96 238.33
  Q 180.46 239.10 180.88 237.00
  A 1.47 0.99 -62.0 0 0 180.78 236.06
  Q 179.93 234.62 178.25 234.54"
/>
<path stroke="#460001" stroke-opacity="0.988" vector-effect="non-scaling-stroke" d="
  M 178.25 234.54
  Q 175.22 232.46 173.25 235.29"
/>
<path stroke="#820000" vector-effect="non-scaling-stroke" d="
  M 173.25 235.29
  L 171.94 237.01
  A 1.24 0.88 -67.5 0 1 171.19 237.48
  Q 163.25 238.11 155.31 237.60
  A 0.46 0.44 -88.9 0 0 154.84 238.07
  Q 154.85 239.79 153.71 238.75"
/>
<path stroke="#460001" stroke-opacity="0.988" vector-effect="non-scaling-stroke" d="
  M 153.79 238.50
  C 156.18 233.55 149.82 233.93 147.30 232.80
  C 142.78 230.78 142.45 226.89 141.48 222.53"
/>
<path stroke="#4e0003" stroke-opacity="0.980" vector-effect="non-scaling-stroke" d="
  M 161.25 221.79
  Q 160.01 223.25 160.54 225.00"
/>
<path stroke="#4e0003" stroke-opacity="0.980" vector-effect="non-scaling-stroke" d="
  M 166.46 224.00
  Q 165.60 220.11 161.79 221.50"
/>
<path stroke="#3f0001" stroke-opacity="0.988" vector-effect="non-scaling-stroke" d="
  M 122.75 262.79
  C 119.16 274.76 106.01 273.11 104.00 261.50
  Q 103.56 258.94 101.40 258.85
  C 98.46 258.74 97.67 261.00 97.25 263.50
  C 95.31 275.08 79.62 272.83 79.09 261.00"
/>
<path stroke="#400001" stroke-opacity="0.988" vector-effect="non-scaling-stroke" d="
  M 160.54 249.75
  C 159.84 245.64 165.75 246.32 168.01 245.06
  C 172.69 242.46 171.59 239.60 173.25 235.29"
/>
<path stroke="#400001" stroke-opacity="0.988" vector-effect="non-scaling-stroke" d="
  M 235.54 248.75
  Q 234.75 257.85 225.25 259.00
  Q 222.42 259.34 223.21 262.50"
/>
<path stroke="#400001" stroke-opacity="0.988" vector-effect="non-scaling-stroke" d="
  M 234.44 279.16
  Q 227.07 287.15 219.77 280.62
  C 217.94 278.98 217.49 277.01 216.75 274.75"
/>
<path stroke="#400001" stroke-opacity="0.988" vector-effect="non-scaling-stroke" d="
  M 216.75 274.75
  Q 216.91 272.00 214.24 271.58
  Q 209.11 270.78 205.50 267.04"
/>
<path stroke="#400001" stroke-opacity="0.988" vector-effect="non-scaling-stroke" d="
  M 204.46 264.00
  C 205.10 260.65 203.64 259.39 200.45 258.72
  Q 193.52 257.27 191.96 250.35
  C 190.73 244.92 188.20 246.86 184.58 245.13
  Q 181.62 243.73 180.27 240.52
  A 0.41 0.25 73.7 0 0 179.97 240.25
  L 179.75 240.25"
/>
<path stroke="#400001" stroke-opacity="0.988" vector-effect="non-scaling-stroke" d="
  M 179.75 240.25
  Q 180.12 237.04 178.25 234.54"
/>
<path stroke="#400001" stroke-opacity="0.988" vector-effect="non-scaling-stroke" d="
  M 172.96 262.50
  C 170.63 272.78 158.88 274.27 154.50 264.50"
/>
<path stroke="#400001" stroke-opacity="0.988" vector-effect="non-scaling-stroke" d="
  M 154.50 264.50
  Q 154.89 261.64 153.19 259.73
  C 151.80 258.16 149.03 258.58 148.50 260.50
  C 147.20 265.17 146.82 268.10 142.03 270.09
  Q 134.57 273.19 129.75 265.29"
/>
<path stroke="#750001" stroke-opacity="0.988" vector-effect="non-scaling-stroke" d="
  M 235.46 74.75
  C 234.79 79.05 232.65 81.83 228.37 82.94
  C 225.71 83.64 222.81 84.22 222.96 87.25"
/>
<path stroke="#dd0000" vector-effect="non-scaling-stroke" d="
  M 222.96 87.25
  Q 222.59 87.95 222.89 89.43
  A 0.43 0.43 89.5 0 1 222.39 89.94
  Q 221.19 89.72 220.97 90.20
  A 0.77 0.41 -69.8 0 1 220.44 90.67
  Q 213.47 90.38 206.49 90.49
  C 205.84 90.50 204.79 91.11 204.55 90.25
  A 0.34 0.31 67.0 0 0 204.07 90.03
  Q 202.07 91.32 203.11 90.15"
/>
<path stroke="#6e0001" stroke-opacity="0.988" vector-effect="non-scaling-stroke" d="
  M 235.46 100.00
  C 233.47 111.18 218.90 111.00 216.75 99.46"
/>
<path stroke="#6e0001" stroke-opacity="0.988" vector-effect="non-scaling-stroke" d="
  M 216.75 99.46
  C 216.91 95.31 212.00 94.51 210.41 99.27
  Q 209.88 100.87 209.55 102.52
  C 208.35 108.45 201.61 107.25 197.99 110.39"
/>
<path stroke="#d00000" vector-effect="non-scaling-stroke" d="
  M 197.99 110.39
  Q 196.91 110.44 197.08 111.27
  A 1.03 0.56 70.6 0 1 196.94 112.13
  Q 196.48 112.56 196.05 112.15
  A 1.37 0.78 56.0 0 0 195.24 111.75
  L 181.74 111.75
  A 0.69 0.45 78.4 0 1 181.24 111.25
  L 180.95 110.23
  A 0.45 0.32 -26.7 0 0 180.34 110.14
  Q 179.93 110.39 179.71 109.75"
/>
<path stroke="#6e0001" stroke-opacity="0.988" vector-effect="non-scaling-stroke" d="
  M 223.21 87.50
  Q 223.00 87.47 222.96 87.25"
/>
<path stroke="#670001" stroke-opacity="0.988" vector-effect="non-scaling-stroke" d="
  M 166.79 125.25
  Q 169.19 134.25 177.29 133.11
  C 187.08 131.74 183.15 121.72 188.25 121.00
  Q 197.75 119.66 197.99 110.39"
/>
<path stroke="#720001" stroke-opacity="0.988" vector-effect="non-scaling-stroke" d="
  M 147.74 85.23
  Q 147.92 92.43 142.11 95.12
  C 138.16 96.96 135.68 95.02 134.81 101.06
  C 133.69 108.87 123.52 110.25 118.79 104.95
  C 117.07 103.02 117.42 100.00 116.44 98.31
  C 114.46 94.93 112.04 96.42 109.45 95.06
  Q 104.45 92.43 104.21 86.25"
/>
<path stroke="#670001" stroke-opacity="0.988" vector-effect="non-scaling-stroke" d="
  M 160.46 126.00
  C 158.55 131.45 153.44 135.27 147.68 132.78
  Q 143.55 130.99 141.67 126.22"
/>
<path stroke="#670001" stroke-opacity="0.988" vector-effect="non-scaling-stroke" d="
  M 235.46 126.00
  C 232.41 136.27 219.87 135.73 216.79 125.75"
/>
<path stroke="#5d0001" stroke-opacity="0.988" vector-effect="non-scaling-stroke" d="
  M 235.46 151.25
  C 231.97 161.17 219.46 160.72 216.79 150.50"
/>
<path stroke="#560001" stroke-opacity="0.988" vector-effect="non-scaling-stroke" d="
  M 235.54 173.75
  C 235.02 185.61 219.76 187.00 216.77 175.18"
/>
<path stroke="#4f0001" stroke-opacity="0.988" vector-effect="non-scaling-stroke" d="
  M 235.54 198.50
  C 234.65 210.88 219.62 212.22 216.79 200.25"
/>
<path stroke="#460001" stroke-opacity="0.988" vector-effect="non-scaling-stroke" d="
  M 235.46 226.25
  C 231.97 236.12 220.41 235.86 216.84 226.17"
/>
<path stroke="#3f0001" stroke-opacity="0.988" vector-effect="non-scaling-stroke" d="
  M 47.71 261.25
  L 47.50 264.00"
/>
<path stroke="#3f0001" stroke-opacity="0.988" vector-effect="non-scaling-stroke" d="
  M 47.50 264.00
  C 43.40 275.53 29.03 272.47 29.00 259.99"
/>
<path stroke="#3f0001" stroke-opacity="0.988" vector-effect="non-scaling-stroke" d="
  M 72.92 261.23
  C 71.84 274.24 55.45 274.17 53.96 261.75"
/>
<path stroke="#800001" stroke-opacity="0.988" vector-effect="non-scaling-stroke" d="
  M 129.04 37.50
  C 129.59 32.07 122.03 32.58 122.96 37.50"
/>
<path stroke="#790001" stroke-opacity="0.988" vector-effect="non-scaling-stroke" d="
  M 78.79 62.75
  C 80.33 57.50 71.52 57.04 72.96 62.75"
/>
<path stroke="#790001" stroke-opacity="0.988" vector-effect="non-scaling-stroke" d="
  M 179.23 62.44
  C 181.68 60.47 172.58 55.33 173.04 62.00"
/>
<path stroke="#6e0001" stroke-opacity="0.988" vector-effect="non-scaling-stroke" d="
  M 41.29 100.25
  C 42.33 95.01 34.95 94.47 35.29 99.75"
/>
<path stroke="#6f0003" stroke-opacity="0.980" vector-effect="non-scaling-stroke" d="
  M 41.29 125.50
  C 42.72 120.21 34.82 119.21 35.29 124.75"
/>
<path stroke="#670001" stroke-opacity="0.988" vector-effect="non-scaling-stroke" d="
  M 66.29 125.50
  C 69.09 120.66 58.17 119.12 60.46 125.25"
/>
<path stroke="#620001" stroke-opacity="0.988" vector-effect="non-scaling-stroke" d="
  M 53.79 137.50
  C 54.44 131.74 46.05 132.91 47.96 138.00"
/>
<path stroke="#620001" stroke-opacity="0.988" vector-effect="non-scaling-stroke" d="
  M 78.79 137.75
  C 80.47 134.98 75.97 132.20 73.31 134.81
  Q 72.04 136.06 72.96 137.75"
/>
<path stroke="#620001" stroke-opacity="0.988" vector-effect="non-scaling-stroke" d="
  M 103.79 137.75
  C 105.39 132.89 97.43 131.77 97.96 137.50"
/>
<path stroke="#650003" stroke-opacity="0.980" vector-effect="non-scaling-stroke" d="
  M 66.29 150.25
  C 67.79 145.90 60.36 143.48 60.29 149.75"
/>
<path stroke="#700204" stroke-opacity="0.953" vector-effect="non-scaling-stroke" d="
  M 91.64 150.55
  Q 88.97 141.00 84.94 150.14"
/>
<path stroke="#650003" stroke-opacity="0.980" vector-effect="non-scaling-stroke" d="
  M 41.15 151.01
  C 42.97 143.98 33.55 145.23 35.46 150.50"
/>
<path stroke="#690204" stroke-opacity="0.953" vector-effect="non-scaling-stroke" d="
  M 91.29 175.50
  C 93.80 173.07 86.80 166.45 85.19 175.03"
/>
<path stroke="#690204" stroke-opacity="0.953" vector-effect="non-scaling-stroke" d="
  M 66.54 175.49
  C 67.65 170.49 60.07 169.01 60.29 174.75"
/>
<path stroke="#690204" stroke-opacity="0.953" vector-effect="non-scaling-stroke" d="
  M 116.29 175.75
  C 118.40 170.31 109.43 168.72 110.46 175.25"
/>
<path stroke="#530003" stroke-opacity="0.980" vector-effect="non-scaling-stroke" d="
  M 141.50 200.46
  C 142.79 194.73 134.31 194.87 135.46 200.25"
/>
<path stroke="#530003" stroke-opacity="0.980" vector-effect="non-scaling-stroke" d="
  M 103.75 213.21
  C 106.36 211.03 102.39 208.42 100.29 208.71
  C 98.30 208.99 97.14 210.81 97.96 212.75"
/>
<path stroke="#530003" stroke-opacity="0.980" vector-effect="non-scaling-stroke" d="
  M 128.79 213.00
  C 131.11 210.91 127.31 208.56 125.42 208.69
  C 123.37 208.83 122.42 210.66 123.00 212.54"
/>
<path stroke="#4b0001" stroke-opacity="0.988" vector-effect="non-scaling-stroke" d="
  M 153.97 213.28
  Q 154.89 208.45 150.61 208.79
  C 148.30 208.98 147.29 210.92 148.21 213.00"
/>
<path stroke="#590204" stroke-opacity="0.953" vector-effect="non-scaling-stroke" d="
  M 116.25 225.96
  C 118.70 220.33 109.51 218.95 110.46 225.00"
/>
</g>
<path fill="#ffffff" d="
  M 433.95 67.69
  C 435.54 43.97 442.99 17.29 470.76 13.54
  C 506.40 8.73 520.10 30.98 523.64 62.39
  A 0.55 0.54 86.7 0 1 523.10 63.00
  L 497.80 62.94
  A 1.07 1.06 86.3 0 1 496.75 62.01
  C 495.91 55.32 493.04 47.23 487.76 43.28
  C 478.39 36.29 466.08 42.31 462.81 52.56
  Q 456.85 71.24 460.50 92.00
  C 462.26 102.04 466.60 112.17 478.06 112.69
  C 490.50 113.25 495.96 100.89 497.37 90.69
  A 0.60 0.58 -86.5 0 1 497.94 90.17
  L 523.35 90.01
  A 0.48 0.47 -87.8 0 1 523.82 90.53
  C 521.18 119.72 508.67 141.50 475.74 140.14
  C 437.57 138.57 432.00 96.50 433.95 67.69
  Z"
/>
<path fill="#f90000" d="
  M 60.04 23.25
  Q 59.62 32.92 50.64 33.70
  Q 47.95 33.93 47.59 36.60
  C 46.85 42.03 44.45 45.09 39.12 45.81
  C 34.05 46.50 35.35 50.52 33.66 53.61
  C 29.06 62.03 17.29 58.10 16.46 49.00
  Q 17.55 41.34 24.75 40.50
  Q 28.52 40.06 28.71 36.75
  C 28.16 32.97 25.74 33.80 23.03 32.92
  Q 18.27 31.38 16.75 26.29
  C 15.43 12.97 33.18 11.55 35.30 24.17
  C 35.97 28.10 40.16 29.26 41.29 25.19
  C 41.56 24.22 41.47 23.28 41.78 22.39
  C 45.20 12.68 58.10 13.14 60.04 23.25
  Z"
/>
<path fill="#fc0000" d="
  M 85.41 24.74
  C 82.15 37.33 66.36 35.55 66.71 23.00
  C 69.17 11.98 83.66 13.08 85.41 24.74
  Z"
/>
<path fill="#f90000" d="
  M 160.29 23.50
  Q 159.77 32.34 151.75 33.50
  Q 148.63 33.95 147.96 36.25
  Q 147.50 42.46 142.43 45.11
  C 138.18 47.33 136.37 44.32 134.92 50.86
  C 132.71 60.89 118.72 60.55 116.94 50.60
  C 116.00 45.36 114.48 46.80 110.45 45.36
  Q 104.72 43.31 104.21 36.75
  C 103.21 33.28 101.25 33.84 98.47 32.97
  Q 91.68 30.85 91.71 23.25
  C 94.91 12.03 109.08 13.08 110.44 24.81
  Q 110.69 27.03 112.51 27.44
  C 117.04 28.45 116.41 23.25 117.66 20.79
  C 122.20 11.83 135.25 14.79 135.31 24.70
  Q 135.33 26.64 137.14 27.31
  Q 141.02 28.74 141.54 24.51
  C 142.93 13.21 157.21 11.88 160.29 23.50
  Z
  M 122.96 37.50
  Q 126.00 43.22 129.04 37.50
  C 129.59 32.07 122.03 32.58 122.96 37.50
  Z"
/>
<path fill="#fc0000" d="
  M 185.29 23.00
  C 184.60 36.44 168.80 36.62 166.71 24.75
  C 168.09 13.10 182.63 11.96 185.29 23.00
  Z"
/>
<path fill="#f90000" d="
  M 235.46 25.00
  C 234.56 29.42 232.34 32.05 227.91 33.04
  C 225.70 33.53 222.28 34.64 223.21 37.50
  Q 223.84 39.96 226.69 40.31
  Q 235.20 41.37 235.46 50.25
  Q 234.37 56.19 228.75 57.79
  L 223.25 57.79
  Q 217.58 55.62 216.79 49.50
  C 216.21 45.24 213.30 46.37 210.54 45.31
  Q 205.52 43.39 204.31 36.50
  Q 203.86 33.89 201.21 33.74
  Q 193.82 33.33 191.79 25.00
  C 191.95 19.46 195.72 15.47 201.32 15.60
  Q 208.69 15.78 211.09 25.41
  Q 211.55 27.27 213.42 27.68
  Q 216.19 28.29 216.68 24.88
  C 218.58 11.69 235.15 12.67 235.46 25.00
  Z"
/>
<path fill="#ffffff" d="
  M 319.53 70.59
  C 324.41 72.25 327.51 78.21 328.86 83.04
  C 333.96 101.21 333.04 137.19 305.50 137.10
  Q 277.50 137.00 248.93 137.00
  A 0.68 0.68 0.0 0 1 248.25 136.32
  L 248.25 16.32
  A 0.57 0.57 -0.5 0 1 248.81 15.75
  Q 277.66 15.58 305.92 15.94
  C 317.02 16.08 323.43 21.29 326.00 32.50
  C 329.15 46.24 328.21 59.25 319.38 70.05
  A 0.34 0.34 -60.7 0 0 319.53 70.59
  Z
  M 295.34 62.06
  C 305.87 61.71 305.28 42.11 295.00 42.18
  Q 284.12 42.25 272.67 42.25
  A 0.67 0.67 0.2 0 0 272.00 42.92
  L 272.00 61.36
  A 0.89 0.88 0.7 0 0 272.87 62.24
  Q 284.49 62.42 295.34 62.06
  Z
  M 297.00 110.75
  C 308.81 110.75 309.43 86.00 296.75 86.00
  Q 284.75 86.00 272.56 86.00
  A 0.56 0.56 0.0 0 0 272.00 86.56
  L 272.00 109.88
  A 0.87 0.87 0.0 0 0 272.87 110.75
  Q 284.75 110.75 297.00 110.75
  Z"
/>
<path fill="#ffffff" d="
  M 413.50 70.30
  C 428.89 78.84 426.59 109.03 421.69 121.94
  Q 417.41 133.21 407.09 136.07
  Q 403.72 137.00 388.32 137.00
  Q 365.65 137.00 342.94 137.00
  A 0.69 0.69 0.0 0 1 342.25 136.31
  L 342.31 16.31
  A 0.51 0.50 -0.0 0 1 342.82 15.81
  Q 371.30 15.54 399.79 15.93
  C 414.64 16.14 419.48 25.41 421.17 38.72
  C 422.43 48.73 421.26 62.21 413.43 69.72
  A 0.36 0.36 -52.0 0 0 413.50 70.30
  Z
  M 389.34 62.06
  C 399.86 61.71 399.31 42.11 389.00 42.18
  Q 378.12 42.25 366.67 42.25
  A 0.67 0.67 0.2 0 0 366.00 42.92
  L 366.00 61.36
  A 0.89 0.88 0.7 0 0 366.87 62.24
  Q 378.49 62.42 389.34 62.06
  Z
  M 391.93 110.49
  C 402.45 110.22 403.40 86.03 390.75 85.99
  Q 378.66 85.95 366.57 86.06
  A 0.51 0.50 -0.0 0 0 366.06 86.56
  L 366.00 109.98
  A 0.78 0.77 0.4 0 0 366.77 110.75
  Q 379.97 110.80 391.93 110.49
  Z"
/>
<path fill="#030002" fill-opacity="0.973" d="
  M 66.71 23.00
  C 66.36 35.55 82.15 37.33 85.41 24.74
  C 83.68 39.72 64.38 36.64 66.71 23.00
  Z"
/>
<path fill="#030002" fill-opacity="0.973" d="
  M 185.29 23.00
  C 187.79 37.22 166.45 38.99 166.71 24.75
  C 168.80 36.62 184.60 36.44 185.29 23.00
  Z"
/>
<path fill="#030002" fill-opacity="0.973" d="
  M 60.04 23.25
  C 60.85 30.38 57.36 33.25 51.12 34.60
  C 47.46 35.39 48.11 38.09 47.10 40.80
  Q 45.03 46.28 38.09 47.40
  Q 35.72 47.78 35.42 50.16
  C 33.70 63.62 15.73 62.05 16.46 49.00
  C 17.29 58.10 29.06 62.03 33.66 53.61
  C 35.35 50.52 34.05 46.50 39.12 45.81
  C 44.45 45.09 46.85 42.03 47.59 36.60
  Q 47.95 33.93 50.64 33.70
  Q 59.62 32.92 60.04 23.25
  Z"
/>
<path fill="#030002" fill-opacity="0.973" d="
  M 91.71 23.25
  Q 91.68 30.85 98.47 32.97
  C 101.25 33.84 103.21 33.28 104.21 36.75
  Q 103.88 37.01 103.96 37.50
  Q 103.22 35.05 100.57 34.67
  Q 90.81 33.26 91.71 23.25
  Z"
/>
<path fill="#030002" fill-opacity="0.973" d="
  M 160.29 23.50
  Q 160.86 33.48 151.00 34.75
  Q 149.50 34.94 148.04 36.50
  L 147.96 36.25
  Q 148.63 33.95 151.75 33.50
  Q 159.77 32.34 160.29 23.50
  Z"
/>
<path fill="#030002" fill-opacity="0.973" d="
  M 191.79 25.00
  Q 193.82 33.33 201.21 33.74
  Q 203.86 33.89 204.31 36.50
  Q 205.52 43.39 210.54 45.31
  C 213.30 46.37 216.21 45.24 216.79 49.50
  Q 216.87 49.99 216.54 50.25
  Q 216.22 47.48 213.25 47.25
  Q 208.41 46.88 205.81 43.07
  C 204.60 41.29 204.41 38.72 203.61 36.52
  A 1.68 1.54 -84.8 0 0 203.03 35.76
  C 201.06 34.36 198.89 34.71 197.14 33.83
  Q 191.98 31.27 191.79 25.00
  Z"
/>
<path fill="#030002" fill-opacity="0.973" d="
  M 235.46 25.00
  Q 235.31 31.73 229.19 34.19
  Q 226.44 35.29 225.50 35.25
  Q 223.17 35.15 223.21 37.50
  C 222.28 34.64 225.70 33.53 227.91 33.04
  C 232.34 32.05 234.56 29.42 235.46 25.00
  Z"
/>
<path fill="#030002" fill-opacity="0.973" d="
  M 16.75 26.29
  Q 18.27 31.38 23.03 32.92
  C 25.74 33.80 28.16 32.97 28.71 36.75
  C 26.55 33.96 24.04 34.89 21.83 33.91
  Q 17.17 31.85 16.75 26.29
  Z"
/>
<path fill="#030002" fill-opacity="0.973" d="
  M 129.04 37.50
  C 128.40 34.13 123.38 34.24 122.96 37.50
  C 122.03 32.58 129.59 32.07 129.04 37.50
  Z"
/>
<path fill="#030002" fill-opacity="0.973" d="
  M 147.96 36.25
  L 148.04 36.50
  C 147.98 48.72 136.21 45.42 135.50 50.00
  C 134.83 54.31 133.67 56.92 129.53 58.77
  Q 123.09 61.63 118.51 55.98
  Q 116.98 54.11 116.67 51.71
  Q 116.14 47.74 113.16 47.25
  C 107.58 46.34 104.35 43.47 103.96 37.50
  Q 103.88 37.01 104.21 36.75
  Q 104.72 43.31 110.45 45.36
  C 114.48 46.80 116.00 45.36 116.94 50.60
  C 118.72 60.55 132.71 60.89 134.92 50.86
  C 136.37 44.32 138.18 47.33 142.43 45.11
  Q 147.50 42.46 147.96 36.25
  Z"
/>
<path fill="#ec0000" d="
  M 97.63 60.23
  Q 97.88 67.89 91.53 70.33
  C 87.61 71.84 86.08 69.91 84.97 75.39
  C 82.84 85.92 68.32 85.89 66.75 75.21
  C 66.08 70.15 62.60 71.56 59.53 70.05
  Q 54.01 67.33 54.21 60.50
  C 56.25 51.11 65.76 55.16 66.59 49.01
  C 67.93 39.01 80.37 37.23 84.54 46.18
  C 85.86 49.03 84.29 52.20 89.07 52.86
  Q 95.74 53.78 97.63 60.23
  Z
  M 72.96 62.75
  Q 75.93 67.98 78.79 62.75
  C 80.33 57.50 71.52 57.04 72.96 62.75
  Z"
/>
<path fill="#ec0000" d="
  M 197.71 59.70
  Q 198.33 67.18 192.54 70.03
  C 189.80 71.38 186.04 70.15 185.15 74.68
  Q 184.65 77.24 184.63 77.29
  C 182.18 84.59 171.28 85.79 168.07 78.58
  C 165.75 73.40 168.25 72.47 161.40 70.63
  Q 154.23 68.71 154.46 60.25
  Q 156.03 53.95 163.42 52.86
  Q 166.45 52.42 166.53 49.36
  C 166.77 40.81 177.75 37.47 183.37 43.81
  C 187.09 48.00 182.97 51.49 190.15 52.99
  Q 195.67 54.15 197.71 59.70
  Z
  M 173.04 62.00
  Q 175.43 68.58 179.23 62.44
  C 181.68 60.47 172.58 55.33 173.04 62.00
  Z"
/>
<path fill="#030002" fill-opacity="0.973" d="
  M 216.79 49.50
  Q 217.58 55.62 223.25 57.79
  Q 226.01 60.15 228.75 57.79
  Q 234.37 56.19 235.46 50.25
  C 235.15 62.82 217.58 62.60 216.54 50.25
  Q 216.87 49.99 216.79 49.50
  Z"
/>
<path fill="#7a0000" d="
  M 223.25 57.79
  L 228.75 57.79
  Q 226.01 60.15 223.25 57.79
  Z"
/>
<path fill="#030002" fill-opacity="0.973" d="
  M 78.79 62.75
  C 79.01 59.35 73.33 58.62 72.96 62.75
  C 71.52 57.04 80.33 57.50 78.79 62.75
  Z"
/>
<path fill="#030002" fill-opacity="0.973" d="
  M 179.23 62.44
  Q 176.26 57.40 173.04 62.00
  C 172.58 55.33 181.68 60.47 179.23 62.44
  Z"
/>
<path fill="#030002" fill-opacity="0.973" d="
  M 197.71 59.70
  Q 199.28 71.22 188.06 72.27
  A 1.47 1.23 15.5 0 0 187.20 72.66
  C 184.84 75.06 185.62 77.73 184.10 80.13
  C 180.27 86.20 170.44 86.15 167.42 79.19
  Q 167.32 78.95 166.75 75.58
  C 166.11 71.85 163.05 72.54 160.53 71.62
  Q 153.06 68.89 154.46 60.25
  Q 154.23 68.71 161.40 70.63
  C 168.25 72.47 165.75 73.40 168.07 78.58
  C 171.28 85.79 182.18 84.59 184.63 77.29
  Q 184.65 77.24 185.15 74.68
  C 186.04 70.15 189.80 71.38 192.54 70.03
  Q 198.33 67.18 197.71 59.70
  Z"
/>
<path fill="#030002" fill-opacity="0.973" d="
  M 97.63 60.23
  Q 98.72 69.01 91.18 71.73
  C 89.08 72.49 85.64 71.83 85.25 75.50
  C 83.94 87.90 67.23 87.44 66.46 75.50
  Q 66.52 75.27 66.75 75.21
  C 68.32 85.89 82.84 85.92 84.97 75.39
  C 86.08 69.91 87.61 71.84 91.53 70.33
  Q 97.88 67.89 97.63 60.23
  Z"
/>
<path fill="#030002" fill-opacity="0.973" d="
  M 54.21 60.50
  Q 54.01 67.33 59.53 70.05
  C 62.60 71.56 66.08 70.15 66.75 75.21
  Q 66.52 75.27 66.46 75.50
  C 65.59 72.05 63.59 72.71 60.99 71.89
  Q 53.07 69.38 54.21 60.50
  Z"
/>
<path fill="#e30000" d="
  M 49.50 89.96
  Q 46.49 92.03 42.25 91.75
  Q 37.18 91.42 25.69 91.94
  C 20.88 92.16 26.98 91.08 26.75 90.04
  Q 28.37 89.27 28.79 87.50
  Q 29.13 84.14 25.56 83.69
  Q 18.97 82.85 16.65 76.25
  C 16.67 64.44 30.90 61.34 34.62 71.72
  C 35.86 75.17 34.54 77.14 39.18 77.93
  Q 47.39 79.32 48.00 88.25
  Q 48.06 89.13 49.50 89.96
  Z"
/>
<path fill="#e30000" d="
  M 235.46 74.75
  C 234.79 79.05 232.65 81.83 228.37 82.94
  C 225.71 83.64 222.81 84.22 222.96 87.25
  Q 222.59 87.95 222.89 89.43
  A 0.43 0.43 89.5 0 1 222.39 89.94
  Q 221.19 89.72 220.97 90.20
  A 0.77 0.41 -69.8 0 1 220.44 90.67
  Q 213.47 90.38 206.49 90.49
  C 205.84 90.50 204.79 91.11 204.55 90.25
  A 0.34 0.31 67.0 0 0 204.07 90.03
  Q 202.07 91.32 203.11 90.15
  Q 204.05 79.24 214.15 77.56
  Q 216.32 77.20 216.64 75.02
  C 218.56 61.84 234.92 62.68 235.46 74.75
  Z"
/>
<path fill="#030002" fill-opacity="0.973" d="
  M 235.46 74.75
  Q 235.35 83.37 227.05 84.50
  Q 226.71 84.55 226.19 84.89
  C 224.88 85.73 223.07 84.91 223.21 87.50
  Q 223.00 87.47 222.96 87.25
  C 222.81 84.22 225.71 83.64 228.37 82.94
  C 232.65 81.83 234.79 79.05 235.46 74.75
  Z"
/>
<path fill="#030002" fill-opacity="0.973" d="
  M 16.65 76.25
  Q 18.97 82.85 25.56 83.69
  Q 29.13 84.14 28.79 87.50
  Q 27.67 85.01 24.00 84.50
  Q 17.40 83.58 16.65 76.25
  Z"
/>
<path fill="#dd0000" d="
  M 147.74 85.23
  Q 147.92 92.43 142.11 95.12
  C 138.16 96.96 135.68 95.02 134.81 101.06
  C 133.69 108.87 123.52 110.25 118.79 104.95
  C 117.07 103.02 117.42 100.00 116.44 98.31
  C 114.46 94.93 112.04 96.42 109.45 95.06
  Q 104.45 92.43 104.21 86.25
  C 106.41 75.27 120.66 75.24 122.81 85.81
  C 123.43 88.86 124.99 92.42 128.36 88.80
  A 1.55 1.29 73.5 0 0 128.73 87.94
  C 129.88 76.50 144.28 73.80 147.74 85.23
  Z"
/>
<path fill="#030002" fill-opacity="0.973" d="
  M 147.74 85.23
  Q 148.76 95.25 139.79 97.05
  C 136.45 97.72 135.60 98.42 135.25 101.75
  C 134.27 111.09 121.25 112.26 117.42 103.96
  Q 117.40 103.91 116.56 100.43
  C 115.72 96.98 113.54 97.60 110.87 96.77
  Q 103.52 94.50 104.21 86.25
  Q 104.45 92.43 109.45 95.06
  C 112.04 96.42 114.46 94.93 116.44 98.31
  C 117.42 100.00 117.07 103.02 118.79 104.95
  C 123.52 110.25 133.69 108.87 134.81 101.06
  C 135.68 95.02 138.16 96.96 142.11 95.12
  Q 147.92 92.43 147.74 85.23
  Z"
/>
<path fill="#d70000" d="
  M 222.96 87.25
  Q 223.00 87.47 223.21 87.50
  C 224.69 91.48 227.31 89.76 229.99 91.17
  Q 235.07 93.82 235.46 100.00
  C 233.47 111.18 218.90 111.00 216.75 99.46
  C 216.91 95.31 212.00 94.51 210.41 99.27
  Q 209.88 100.87 209.55 102.52
  C 208.35 108.45 201.61 107.25 197.99 110.39
  Q 196.91 110.44 197.08 111.27
  A 1.03 0.56 70.6 0 1 196.94 112.13
  Q 196.48 112.56 196.05 112.15
  A 1.37 0.78 56.0 0 0 195.24 111.75
  L 181.74 111.75
  A 0.69 0.45 78.4 0 1 181.24 111.25
  L 180.95 110.23
  A 0.45 0.32 -26.7 0 0 180.34 110.14
  Q 179.93 110.39 179.71 109.75
  C 181.97 101.08 190.59 105.48 191.69 99.00
  Q 193.17 90.27 203.11 90.15
  Q 202.07 91.32 204.07 90.03
  A 0.34 0.31 67.0 0 1 204.55 90.25
  C 204.79 91.11 205.84 90.50 206.49 90.49
  Q 213.47 90.38 220.44 90.67
  A 0.77 0.41 -69.8 0 0 220.97 90.20
  Q 221.19 89.72 222.39 89.94
  A 0.43 0.43 89.5 0 0 222.89 89.43
  Q 222.59 87.95 222.96 87.25
  Z"
/>
<path fill="#d70000" d="
  M 26.75 90.04
  C 26.98 91.08 20.88 92.16 25.69 91.94
  Q 37.18 91.42 42.25 91.75
  Q 46.49 92.03 49.50 89.96
  Q 59.11 90.65 60.53 100.00
  Q 60.97 102.87 63.99 103.11
  Q 70.48 103.63 72.46 109.95
  Q 71.85 111.82 70.44 111.81
  Q 63.37 111.75 56.31 111.69
  A 1.58 1.11 56.5 0 1 55.44 111.35
  C 54.42 110.53 54.26 114.83 54.04 111.25
  Q 52.86 107.51 49.00 109.04
  Q 47.22 109.61 46.39 111.24
  A 0.85 0.78 -76.0 0 1 45.69 111.70
  Q 39.91 111.80 34.13 111.76
  C 33.21 111.75 31.75 111.27 31.35 112.51
  Q 31.22 112.91 31.00 112.57
  C 29.18 109.74 29.43 116.18 29.04 111.00
  C 25.96 106.03 19.18 109.90 16.79 101.25
  Q 16.26 90.94 26.75 90.04
  Z
  M 35.29 99.75
  Q 37.73 105.73 41.29 100.25
  C 42.33 95.01 34.95 94.47 35.29 99.75
  Z"
/>
<path fill="#030002" fill-opacity="0.973" d="
  M 41.29 100.25
  Q 38.81 94.39 35.29 99.75
  C 34.95 94.47 42.33 95.01 41.29 100.25
  Z"
/>
<path fill="#030002" fill-opacity="0.973" d="
  M 216.75 99.46
  L 216.54 99.50
  Q 213.30 95.30 211.35 98.71
  C 209.27 102.34 210.61 105.42 206.10 108.25
  C 204.23 109.43 201.70 109.57 199.51 110.40
  A 1.92 1.91 -7.6 0 0 198.27 112.02
  Q 197.41 121.47 188.24 122.25
  Q 186.41 122.41 185.97 124.19
  C 185.45 126.29 185.03 128.58 183.89 130.37
  C 179.05 137.96 167.07 135.01 166.79 125.25
  Q 169.19 134.25 177.29 133.11
  C 187.08 131.74 183.15 121.72 188.25 121.00
  Q 197.75 119.66 197.99 110.39
  C 201.61 107.25 208.35 108.45 209.55 102.52
  Q 209.88 100.87 210.41 99.27
  C 212.00 94.51 216.91 95.31 216.75 99.46
  Z"
/>
<path fill="#030002" fill-opacity="0.973" d="
  M 216.54 99.50
  L 216.75 99.46
  C 218.90 111.00 233.47 111.18 235.46 100.00
  C 235.22 112.35 218.01 113.44 216.54 99.50
  Z"
/>
<path fill="#030002" fill-opacity="0.973" d="
  M 16.79 101.25
  C 19.18 109.90 25.96 106.03 29.04 111.00
  Q 29.13 111.82 28.79 112.50
  C 27.05 108.98 24.45 109.88 21.70 108.73
  Q 17.06 106.80 16.79 101.25
  Z"
/>
<path fill="#030002" fill-opacity="0.973" d="
  M 54.04 111.25
  Q 54.13 112.07 53.79 112.75
  C 53.74 109.36 48.16 108.57 47.96 113.00
  Q 46.90 110.65 49.00 109.04
  Q 52.86 107.51 54.04 111.25
  Z"
/>
<path fill="#c90000" d="
  M 49.00 109.04
  Q 46.90 110.65 47.96 113.00
  Q 51.10 117.90 53.79 112.75
  Q 54.13 112.07 54.04 111.25
  C 54.26 114.83 54.42 110.53 55.44 111.35
  A 1.58 1.11 56.5 0 0 56.31 111.69
  Q 63.37 111.75 70.44 111.81
  Q 71.85 111.82 72.46 109.95
  Q 72.38 114.52 75.99 115.33
  C 80.75 116.39 83.84 117.71 85.11 122.89
  C 85.85 125.90 86.87 130.43 90.85 126.30
  A 1.49 1.25 73.1 0 0 91.22 125.43
  C 91.77 118.97 96.88 113.97 103.46 115.94
  Q 108.90 117.56 110.51 124.95
  Q 111.09 127.57 113.77 127.75
  Q 116.06 127.91 116.43 125.13
  C 118.10 112.75 133.52 112.01 135.30 124.51
  Q 133.72 133.59 124.46 133.73
  Q 115.68 133.40 106.75 133.26
  Q 95.63 133.08 84.51 133.57
  C 81.62 133.70 78.35 133.05 75.19 133.28
  C 67.91 133.81 60.80 133.21 53.51 133.25
  A 1.27 1.07 64.5 0 1 52.67 132.87
  Q 51.35 131.49 50.07 132.86
  A 1.34 1.10 -66.3 0 1 49.25 133.28
  C 46.40 133.42 26.81 134.06 25.76 132.68
  A 1.42 0.55 60.1 0 0 25.03 132.09
  L 19.74 131.02
  Q 16.40 128.25 16.46 123.75
  Q 17.91 116.41 25.94 115.44
  Q 28.07 115.18 28.79 112.50
  Q 29.13 111.82 29.04 111.00
  C 29.43 116.18 29.18 109.74 31.00 112.57
  Q 31.22 112.91 31.35 112.51
  C 31.75 111.27 33.21 111.75 34.13 111.76
  Q 39.91 111.80 45.69 111.70
  A 0.85 0.78 -76.0 0 0 46.39 111.24
  Q 47.22 109.61 49.00 109.04
  Z
  M 35.29 124.75
  Q 37.61 130.59 41.29 125.50
  C 42.72 120.21 34.82 119.21 35.29 124.75
  Z
  M 60.46 125.25
  Q 63.13 130.36 66.29 125.50
  C 69.09 120.66 58.17 119.12 60.46 125.25
  Z"
/>
<path fill="#c90000" d="
  M 179.71 109.75
  Q 179.93 110.39 180.34 110.14
  A 0.45 0.32 -26.7 0 1 180.95 110.23
  L 181.24 111.25
  A 0.69 0.45 78.4 0 0 181.74 111.75
  L 195.24 111.75
  A 1.37 0.78 56.0 0 1 196.05 112.15
  Q 196.48 112.56 196.94 112.13
  A 1.03 0.56 70.6 0 0 197.08 111.27
  Q 196.91 110.44 197.99 110.39
  Q 197.75 119.66 188.25 121.00
  C 183.15 121.72 187.08 131.74 177.29 133.11
  Q 169.19 134.25 166.79 125.25
  C 166.99 113.85 178.19 117.29 179.00 112.75
  Q 179.43 110.36 179.71 109.75
  Z"
/>
<path fill="#c90000" d="
  M 160.46 126.00
  C 158.55 131.45 153.44 135.27 147.68 132.78
  Q 143.55 130.99 141.67 126.22
  Q 141.06 123.22 143.19 119.94
  C 148.85 111.22 160.92 115.82 160.46 126.00
  Z"
/>
<path fill="#c90000" d="
  M 235.46 126.00
  C 232.41 136.27 219.87 135.73 216.79 125.75
  C 217.71 110.86 236.36 112.89 235.46 126.00
  Z"
/>
<path fill="#120106" fill-opacity="0.961" d="
  M 41.29 125.50
  C 40.80 121.27 35.64 121.50 35.29 124.75
  C 34.82 119.21 42.72 120.21 41.29 125.50
  Z"
/>
<path fill="#030002" fill-opacity="0.973" d="
  M 66.29 125.50
  C 66.09 120.79 60.37 121.69 60.46 125.25
  C 58.17 119.12 69.09 120.66 66.29 125.50
  Z"
/>
<path fill="#030002" fill-opacity="0.973" d="
  M 16.46 123.75
  Q 16.40 128.25 19.74 131.02
  C 22.36 133.42 28.83 133.22 28.71 136.75
  C 26.26 134.25 23.47 134.79 21.12 133.46
  Q 15.84 130.48 16.46 123.75
  Z"
/>
<path fill="#030002" fill-opacity="0.973" d="
  M 135.30 124.51
  Q 135.41 133.32 127.25 134.50
  Q 123.83 134.99 122.96 137.50
  Q 122.51 135.42 124.46 133.73
  Q 133.72 133.59 135.30 124.51
  Z"
/>
<path fill="#030002" fill-opacity="0.973" d="
  M 216.79 125.75
  C 219.87 135.73 232.41 136.27 235.46 126.00
  C 233.73 137.83 218.25 137.62 216.79 125.75
  Z"
/>
<path fill="#030002" fill-opacity="0.973" d="
  M 160.46 126.00
  C 159.93 130.47 157.32 133.32 152.89 134.32
  Q 144.21 136.27 141.67 126.22
  Q 143.55 130.99 147.68 132.78
  C 153.44 135.27 158.55 131.45 160.46 126.00
  Z"
/>
<path fill="#be0000" d="
  M 124.46 133.73
  Q 122.51 135.42 122.96 137.50
  C 124.29 141.92 131.02 139.52 134.00 145.21
  Q 133.56 146.93 132.43 146.73
  C 128.28 145.97 122.87 146.48 118.56 146.44
  Q 118.12 146.44 117.65 146.16
  Q 116.14 145.28 114.75 146.29
  L 113.25 145.96
  Q 112.66 144.56 110.50 144.75
  Q 103.61 145.37 93.97 144.63
  Q 89.11 144.26 84.15 144.61
  Q 73.74 145.34 63.31 144.72
  Q 63.08 144.70 62.45 144.37
  Q 62.00 144.13 61.25 144.25
  Q 52.67 145.65 41.99 144.55
  Q 41.56 144.51 41.06 144.73
  Q 39.57 145.37 38.36 144.35
  A 1.35 0.89 55.2 0 0 37.51 144.01
  C 36.28 144.09 35.48 144.74 34.31 144.79
  Q 28.73 145.03 23.16 144.84
  C 22.35 144.81 20.29 145.73 20.98 144.01
  Q 21.17 143.53 20.72 143.72
  C 20.00 144.04 17.77 146.80 18.96 143.50
  Q 21.63 140.69 25.56 140.29
  Q 28.77 139.98 28.71 136.75
  C 28.83 133.22 22.36 133.42 19.74 131.02
  L 25.03 132.09
  A 1.42 0.55 60.1 0 1 25.76 132.68
  C 26.81 134.06 46.40 133.42 49.25 133.28
  A 1.34 1.10 -66.3 0 0 50.07 132.86
  Q 51.35 131.49 52.67 132.87
  A 1.27 1.07 64.5 0 0 53.51 133.25
  C 60.80 133.21 67.91 133.81 75.19 133.28
  C 78.35 133.05 81.62 133.70 84.51 133.57
  Q 95.63 133.08 106.75 133.26
  Q 115.68 133.40 124.46 133.73
  Z
  M 47.96 138.00
  Q 51.43 143.03 53.79 137.50
  C 54.44 131.74 46.05 132.91 47.96 138.00
  Z
  M 72.96 137.75
  Q 75.97 143.04 78.79 137.75
  C 80.47 134.98 75.97 132.20 73.31 134.81
  Q 72.04 136.06 72.96 137.75
  Z
  M 97.96 137.50
  C 98.75 140.94 102.88 141.39 103.79 137.75
  C 105.39 132.89 97.43 131.77 97.96 137.50
  Z"
/>
<path fill="#030002" fill-opacity="0.973" d="
  M 53.79 137.50
  C 52.85 133.90 47.62 134.23 47.96 138.00
  C 46.05 132.91 54.44 131.74 53.79 137.50
  Z"
/>
<path fill="#030002" fill-opacity="0.973" d="
  M 78.79 137.75
  C 78.99 134.40 73.37 133.62 72.96 137.75
  Q 72.04 136.06 73.31 134.81
  C 75.97 132.20 80.47 134.98 78.79 137.75
  Z"
/>
<path fill="#030002" fill-opacity="0.973" d="
  M 103.79 137.75
  C 103.44 133.85 98.31 134.35 97.96 137.50
  C 97.43 131.77 105.39 132.89 103.79 137.75
  Z"
/>
<path fill="#b50000" d="
  M 235.46 151.25
  C 231.97 161.17 219.46 160.72 216.79 150.50
  C 216.07 136.70 237.11 137.39 235.46 151.25
  Z"
/>
<path fill="#ffffff" d="
  M 381.67 150.69
  C 381.65 150.24 381.86 140.92 384.50 144.56
  A 3.92 3.90 27.1 0 1 385.25 146.86
  C 385.25 151.68 386.28 164.29 384.50 167.50
  Q 383.19 169.87 382.19 166.81
  C 381.66 165.21 381.80 163.35 381.56 162.07
  C 379.95 153.74 371.45 144.38 362.31 149.31
  C 357.64 151.83 355.48 156.50 353.55 161.82
  C 348.61 175.44 347.23 211.42 364.25 219.90
  C 373.16 224.33 380.28 215.12 383.81 207.81
  Q 385.18 204.99 386.31 207.94
  C 387.23 210.31 386.32 211.44 385.44 213.50
  C 378.83 229.01 363.18 232.16 354.15 216.23
  C 348.34 205.98 347.04 197.40 347.12 185.58
  C 347.20 172.81 348.15 149.50 362.31 143.22
  C 371.10 139.32 375.81 144.93 381.35 150.83
  Q 381.68 151.18 381.67 150.69
  Z"
/>
<path fill="#ffffff" d="
  M 466.9400 227.0400
  A 42.54 20.80 90.0 0 1 446.1400 184.5000
  A 42.54 20.80 90.0 0 1 466.9400 141.9600
  A 42.54 20.80 90.0 0 1 487.7400 184.5000
  A 42.54 20.80 90.0 0 1 466.9400 227.0400
  Z
  M 466.9500 221.0400
  A 36.57 17.29 90.0 0 0 484.2400 184.4700
  A 36.57 17.29 90.0 0 0 466.9500 147.9000
  A 36.57 17.29 90.0 0 0 449.6600 184.4700
  A 36.57 17.29 90.0 0 0 466.9500 221.0400
  Z"
/>
<path fill="#b50000" d="
  M 18.96 143.50
  C 17.77 146.80 20.00 144.04 20.72 143.72
  Q 21.17 143.53 20.98 144.01
  C 20.29 145.73 22.35 144.81 23.16 144.84
  Q 28.73 145.03 34.31 144.79
  C 35.48 144.74 36.28 144.09 37.51 144.01
  A 1.35 0.89 55.2 0 1 38.36 144.35
  Q 39.57 145.37 41.06 144.73
  Q 41.56 144.51 41.99 144.55
  Q 52.67 145.65 61.25 144.25
  Q 62.00 144.13 62.45 144.37
  Q 63.08 144.70 63.31 144.72
  Q 73.74 145.34 84.15 144.61
  Q 89.11 144.26 93.97 144.63
  Q 103.61 145.37 110.50 144.75
  Q 112.66 144.56 113.25 145.96
  Q 109.79 146.61 110.46 150.00
  Q 112.72 155.29 116.29 150.75
  Q 117.62 147.81 114.75 146.29
  Q 116.14 145.28 117.65 146.16
  Q 118.12 146.44 118.56 146.44
  C 122.87 146.48 128.28 145.97 132.43 146.73
  Q 133.56 146.93 134.00 145.21
  Q 135.10 146.66 135.29 148.50
  Q 134.85 157.71 126.00 158.75
  Q 122.50 159.16 122.79 162.50
  L 122.41 164.23
  A 0.78 0.58 4.4 0 1 121.68 164.69
  L 106.49 164.75
  Q 106.11 164.75 105.58 164.49
  Q 104.58 163.98 104.19 165.07
  A 1.20 0.68 -81.0 0 1 103.62 165.78
  Q 102.68 166.11 102.46 165.00
  L 104.00 162.78
  Q 104.77 160.90 103.43 159.59
  C 101.12 157.32 97.75 158.90 97.54 162.25
  Q 98.19 164.65 95.75 164.75
  Q 85.83 165.14 78.43 164.14
  L 78.79 162.50
  C 80.56 159.98 76.13 157.43 73.46 159.75
  Q 71.44 161.32 71.71 162.41
  Q 72.32 164.86 69.80 164.90
  Q 60.52 165.05 53.36 164.18
  L 53.79 162.75
  C 54.76 156.50 45.94 157.95 47.96 163.00
  L 49.23 165.02
  Q 39.91 164.30 30.77 166.71
  L 29.25 163.46
  C 29.43 159.84 27.70 159.18 24.41 158.48
  Q 18.18 157.16 16.50 150.54
  Q 16.34 146.53 18.96 143.50
  Z
  M 60.29 149.75
  C 60.73 153.43 65.26 153.90 66.29 150.25
  C 67.79 145.90 60.36 143.48 60.29 149.75
  Z
  M 84.94 150.14
  Q 88.23 155.41 91.64 150.55
  Q 88.97 141.00 84.94 150.14
  Z
  M 35.46 150.50
  Q 37.66 155.00 41.15 151.01
  C 42.97 143.98 33.55 145.23 35.46 150.50
  Z"
/>
<path fill="#ffffff" d="
  M 252.06 218.96
  L 257.72 219.00
  Q 259.59 219.01 259.92 220.80
  Q 260.75 225.35 256.49 225.22
  Q 250.78 225.05 245.06 224.95
  A 1.57 1.32 -21.1 0 1 244.16 224.64
  Q 241.89 222.81 243.38 220.14
  Q 244.26 218.56 246.05 218.91
  C 248.78 219.45 248.24 218.27 248.25 216.47
  Q 248.39 183.58 248.07 150.69
  A 0.54 0.53 1.2 0 0 247.56 150.17
  Q 241.55 149.79 244.67 144.61
  A 0.96 0.86 -72.7 0 1 245.44 144.15
  L 253.43 144.03
  A 1.32 1.23 81.9 0 1 254.65 145.02
  L 266.96 193.00
  Q 267.34 194.49 267.71 192.99
  L 279.57 144.67
  A 0.70 0.64 -82.9 0 1 280.19 144.14
  L 288.34 144.06
  A 2.21 2.07 80.5 0 1 290.36 145.60
  Q 291.83 150.26 286.69 150.20
  A 0.50 0.49 -0.0 0 0 286.19 150.69
  L 286.07 217.74
  A 1.31 1.31 83.4 0 0 287.68 219.02
  C 291.44 218.12 292.43 222.64 290.09 224.63
  A 1.52 1.24 19.7 0 1 289.19 224.95
  C 285.12 225.02 281.00 224.86 276.94 225.05
  C 273.32 225.22 271.81 217.74 279.68 219.28
  Q 282.68 219.87 282.69 216.81
  Q 282.80 184.72 282.64 150.75
  Q 282.64 149.88 282.19 150.05
  A 1.10 0.62 -85.6 0 0 281.70 150.78
  L 269.68 200.07
  A 1.08 0.97 86.2 0 1 269.11 200.79
  Q 267.16 201.64 265.46 200.49
  A 1.40 1.15 -84.3 0 1 264.94 199.71
  Q 258.60 175.39 252.32 151.05
  C 251.76 148.86 251.50 150.83 251.50 151.28
  Q 251.45 184.86 251.56 218.44
  A 0.52 0.51 -89.4 0 0 252.06 218.96
  Z"
/>
<path fill="#ffffff" d="
  M 319.06 218.95
  L 330.50 219.00
  A 1.47 1.07 -16.7 0 1 331.38 219.31
  Q 333.10 220.89 332.26 223.47
  A 2.21 2.20 8.9 0 1 330.16 225.00
  L 303.79 225.00
  Q 301.60 225.00 301.30 222.83
  Q 300.73 218.73 304.55 218.93
  C 307.86 219.11 311.23 219.00 314.57 219.00
  A 0.68 0.68 0.0 0 0 315.25 218.32
  L 315.25 150.77
  A 0.72 0.72 0.8 0 0 314.55 150.05
  C 311.34 149.98 307.94 149.87 304.60 150.06
  Q 300.73 150.28 301.31 146.05
  Q 301.60 144.00 303.66 144.00
  L 330.28 144.00
  A 2.07 2.07 82.5 0 1 332.28 145.54
  Q 333.53 150.36 328.74 150.18
  Q 324.13 150.00 319.18 150.00
  A 0.68 0.67 0.0 0 0 318.50 150.67
  L 318.56 218.44
  A 0.51 0.51 0.6 0 0 319.06 218.95
  Z"
/>
<path fill="#ffffff" d="
  M 436.80 218.84
  C 439.04 218.50 440.61 218.90 441.02 221.37
  Q 441.76 225.86 435.18 224.83
  A 1.61 1.59 85.5 0 1 433.90 223.72
  C 430.49 212.61 426.36 198.75 418.16 190.28
  Q 416.95 189.03 415.38 189.05
  L 406.45 189.15
  A 0.53 0.53 -89.9 0 0 405.92 189.68
  L 405.92 218.32
  A 0.59 0.56 4.1 0 0 406.43 218.88
  C 409.40 219.26 414.17 217.70 414.50 221.50
  Q 414.83 225.32 411.19 225.11
  C 406.67 224.85 402.09 225.02 397.57 224.95
  A 1.33 1.20 -19.9 0 1 396.69 224.59
  Q 394.08 222.00 396.69 219.41
  A 1.27 1.19 -66.2 0 1 397.56 219.04
  L 401.78 219.01
  A 0.72 0.70 0.0 0 0 402.50 218.31
  L 402.44 151.47
  A 1.63 1.63 -4.9 0 0 400.53 149.87
  Q 395.01 150.81 395.55 146.18
  Q 395.80 144.00 397.99 144.00
  Q 407.28 144.00 416.38 144.00
  C 428.60 144.00 433.44 156.02 433.43 166.50
  Q 433.41 179.10 422.41 187.19
  A 0.58 0.58 52.9 0 0 422.30 188.01
  C 428.56 196.25 431.71 205.12 436.15 218.46
  A 0.59 0.58 -14.1 0 0 436.80 218.84
  Z
  M 405.69 179.44
  Q 405.69 180.87 405.87 182.31
  A 0.63 0.63 89.4 0 0 406.43 182.86
  C 410.65 183.21 417.81 183.67 421.44 181.44
  C 431.12 175.47 433.01 162.10 425.19 153.35
  C 420.75 148.39 412.70 150.00 406.48 150.00
  A 0.73 0.73 -0.1 0 0 405.75 150.73
  Q 405.64 164.97 405.69 179.44
  Z"
/>
<path fill="#120106" fill-opacity="0.961" d="
  M 66.29 150.25
  Q 63.79 144.28 60.29 149.75
  C 60.36 143.48 67.79 145.90 66.29 150.25
  Z"
/>
<path fill="#240509" fill-opacity="0.902" d="
  M 91.64 150.55
  L 90.24 147.94
  A 1.05 0.96 78.3 0 0 89.51 147.41
  Q 86.57 146.99 84.94 150.14
  Q 88.97 141.00 91.64 150.55
  Z"
/>
<path fill="#120106" fill-opacity="0.961" d="
  M 113.25 145.96
  L 114.75 146.29
  Q 117.62 147.81 116.29 150.75
  C 116.51 146.35 111.19 146.16 110.46 150.00
  Q 109.79 146.61 113.25 145.96
  Z"
/>
<path fill="#120106" fill-opacity="0.961" d="
  M 41.15 151.01
  C 41.03 145.16 35.00 147.24 35.46 150.50
  C 33.55 145.23 42.97 143.98 41.15 151.01
  Z"
/>
<path fill="#030002" fill-opacity="0.973" d="
  M 135.29 148.50
  Q 136.00 157.29 127.99 159.51
  C 125.56 160.18 123.41 159.64 123.21 163.00
  L 122.79 162.50
  Q 122.50 159.16 126.00 158.75
  Q 134.85 157.71 135.29 148.50
  Z"
/>
<path fill="#030002" fill-opacity="0.973" d="
  M 16.50 150.54
  Q 18.18 157.16 24.41 158.48
  C 27.70 159.18 29.43 159.84 29.25 163.46
  L 29.04 163.50
  C 27.81 156.95 17.39 161.97 16.50 150.54
  Z"
/>
<path fill="#030002" fill-opacity="0.973" d="
  M 216.79 150.50
  C 219.46 160.72 231.97 161.17 235.46 151.25
  C 233.49 162.69 218.39 162.76 216.79 150.50
  Z"
/>
<path fill="#030002" fill-opacity="0.973" d="
  M 53.79 162.75
  C 53.07 158.74 47.81 159.26 47.96 163.00
  C 45.94 157.95 54.76 156.50 53.79 162.75
  Z"
/>
<path fill="#030002" fill-opacity="0.973" d="
  M 78.79 162.50
  C 78.84 159.28 73.60 158.85 72.96 162.75
  Q 72.11 161.12 73.46 159.75
  C 76.13 157.43 80.56 159.98 78.79 162.50
  Z"
/>
<path fill="#120106" fill-opacity="0.961" d="
  M 104.00 162.78
  C 103.60 159.11 98.69 158.93 97.96 162.75
  L 97.54 162.25
  C 97.75 158.90 101.12 157.32 103.43 159.59
  Q 104.77 160.90 104.00 162.78
  Z"
/>
<path fill="#a70000" d="
  M 73.46 159.75
  Q 72.11 161.12 72.96 162.75
  Q 75.02 167.08 78.43 164.14
  Q 85.83 165.14 95.75 164.75
  Q 98.19 164.65 97.54 162.25
  L 97.96 162.75
  Q 99.10 166.02 102.46 165.00
  Q 102.68 166.11 103.62 165.78
  A 1.20 0.68 -81.0 0 0 104.19 165.07
  Q 104.58 163.98 105.58 164.49
  Q 106.11 164.75 106.49 164.75
  L 121.68 164.69
  A 0.78 0.58 4.4 0 0 122.41 164.23
  L 122.79 162.50
  L 123.21 163.00
  C 124.13 165.46 125.62 165.14 127.76 165.66
  Q 134.40 167.27 135.61 174.95
  Q 136.04 177.64 138.76 177.79
  Q 144.64 178.12 147.51 184.18
  L 146.17 186.54
  A 0.87 0.66 -70.8 0 1 145.50 186.99
  C 140.86 186.87 135.42 187.29 130.93 186.55
  A 0.52 0.52 -78.2 0 0 130.35 186.93
  Q 130.02 188.19 128.79 188.25
  L 128.79 188.00
  L 129.23 187.42
  A 1.00 0.94 55.1 0 0 129.36 186.52
  C 128.24 183.06 123.37 182.14 122.72 186.77
  Q 113.59 187.30 104.51 186.24
  Q 101.17 180.62 97.71 185.75
  Q 89.64 186.42 81.57 185.73
  Q 81.10 185.69 80.66 185.39
  Q 79.45 184.56 78.00 184.29
  Q 73.81 182.15 72.47 186.70
  Q 65.32 186.79 58.19 186.94
  Q 56.50 186.97 55.53 186.72
  A 0.42 0.41 -77.8 0 0 55.02 187.06
  Q 54.91 187.72 54.46 188.25
  C 53.78 181.96 48.74 184.63 45.32 181.69
  C 40.87 177.88 43.43 171.57 37.00 171.00
  Q 32.96 170.64 30.77 166.71
  Q 39.91 164.30 49.23 165.02
  Q 51.81 165.60 53.36 164.18
  Q 60.52 165.05 69.80 164.90
  Q 72.32 164.86 71.71 162.41
  Q 71.44 161.32 73.46 159.75
  Z
  M 85.19 175.03
  Q 88.14 180.56 91.29 175.50
  C 93.80 173.07 86.80 166.45 85.19 175.03
  Z
  M 60.29 174.75
  Q 62.53 180.69 66.54 175.49
  C 67.65 170.49 60.07 169.01 60.29 174.75
  Z
  M 110.46 175.25
  Q 113.05 180.19 116.29 175.75
  C 118.40 170.31 109.43 168.72 110.46 175.25
  Z"
/>
<path fill="#030002" fill-opacity="0.973" d="
  M 29.04 163.50
  L 29.25 163.46
  L 30.77 166.71
  Q 32.96 170.64 37.00 171.00
  C 43.43 171.57 40.87 177.88 45.32 181.69
  C 48.74 184.63 53.78 181.96 54.46 188.25
  Q 55.39 195.15 62.25 195.79
  Q 66.91 196.50 67.04 201.25
  L 66.96 202.50
  C 65.80 195.48 61.96 198.40 57.87 195.56
  C 53.25 192.36 55.30 185.37 50.06 184.73
  C 44.02 183.99 42.83 180.43 41.18 175.32
  Q 40.41 172.95 37.98 172.36
  Q 29.79 170.38 29.04 163.50
  Z"
/>
<path fill="#a70000" d="
  M 235.54 173.75
  C 235.02 185.61 219.76 187.00 216.77 175.18
  C 217.65 162.79 233.45 162.00 235.54 173.75
  Z"
/>
<path fill="#240509" fill-opacity="0.902" d="
  M 91.29 175.50
  Q 91.08 173.98 90.23 172.72
  A 1.11 1.04 74.7 0 0 89.45 172.24
  Q 86.48 171.92 85.19 175.03
  C 86.80 166.45 93.80 173.07 91.29 175.50
  Z"
/>
<path fill="#240509" fill-opacity="0.902" d="
  M 66.54 175.49
  Q 64.04 169.01 60.29 174.75
  C 60.07 169.01 67.65 170.49 66.54 175.49
  Z"
/>
<path fill="#240509" fill-opacity="0.902" d="
  M 116.29 175.75
  C 116.96 171.29 111.18 171.16 110.46 175.25
  C 109.43 168.72 118.40 170.31 116.29 175.75
  Z"
/>
<path fill="#030002" fill-opacity="0.973" d="
  M 235.54 173.75
  C 236.84 187.97 216.17 187.93 216.77 175.18
  C 219.76 187.00 235.02 185.61 235.54 173.75
  Z"
/>
<path fill="#240509" fill-opacity="0.902" d="
  M 104.51 186.24
  Q 104.86 186.94 103.79 187.75
  L 103.36 186.03
  A 1.09 0.89 7.7 0 0 102.73 185.36
  Q 99.28 183.95 98.00 187.54
  Q 97.17 186.77 97.71 185.75
  Q 101.17 180.62 104.51 186.24
  Z"
/>
<path fill="#120106" fill-opacity="0.961" d="
  M 78.00 184.29
  Q 79.89 185.90 78.79 187.75
  C 79.01 184.28 73.23 183.65 72.96 188.00
  Q 72.38 187.26 72.47 186.70
  Q 73.81 182.15 78.00 184.29
  Z"
/>
<path fill="#120106" fill-opacity="0.961" d="
  M 128.79 188.00
  C 129.27 184.19 123.08 183.50 123.21 188.25
  Q 122.58 187.34 122.72 186.77
  C 123.37 182.14 128.24 183.06 129.36 186.52
  A 1.00 0.94 55.1 0 1 129.23 187.42
  L 128.79 188.00
  Z"
/>
<path fill="#9d0000" d="
  M 78.00 184.29
  Q 79.45 184.56 80.66 185.39
  Q 81.10 185.69 81.57 185.73
  Q 89.64 186.42 97.71 185.75
  Q 97.17 186.77 98.00 187.54
  Q 100.76 193.20 103.79 187.75
  Q 104.86 186.94 104.51 186.24
  Q 113.59 187.30 122.72 186.77
  Q 122.58 187.34 123.21 188.25
  Q 126.00 192.48 128.79 188.25
  Q 130.02 188.19 130.35 186.93
  A 0.52 0.52 -78.2 0 1 130.93 186.55
  C 135.42 187.29 140.86 186.87 145.50 186.99
  A 0.87 0.66 -70.8 0 0 146.17 186.54
  L 147.51 184.18
  Q 147.16 189.77 152.26 190.45
  Q 156.92 191.07 159.00 195.21
  C 158.93 195.34 157.64 200.03 157.72 198.11
  A 0.33 0.31 -88.3 0 0 157.41 197.76
  L 143.57 197.94
  A 0.87 0.75 73.6 0 1 142.85 197.48
  Q 141.08 194.15 135.73 196.51
  A 1.19 1.19 -27.6 0 0 135.19 198.22
  C 135.44 198.63 134.44 199.26 133.79 199.23
  Q 126.25 198.86 118.65 198.94
  A 0.62 0.62 -5.7 0 1 118.04 198.44
  Q 117.62 196.34 116.00 197.04
  Q 114.53 195.49 112.54 196.00
  Q 110.60 194.86 108.33 197.18
  A 2.21 1.89 18.2 0 1 106.87 197.78
  L 94.17 198.02
  A 1.06 0.96 -17.8 0 1 93.34 197.64
  Q 91.10 194.66 91.46 197.57
  Q 89.74 195.64 87.75 195.79
  Q 85.17 195.01 84.77 197.36
  A 0.83 0.82 7.1 0 1 83.88 198.05
  Q 77.12 197.49 71.00 198.00
  Q 67.59 198.28 65.86 196.10
  A 1.17 0.64 60.1 0 0 65.07 195.62
  L 62.25 195.79
  Q 55.39 195.15 54.46 188.25
  Q 54.91 187.72 55.02 187.06
  A 0.42 0.41 -77.8 0 1 55.53 186.72
  Q 56.50 186.97 58.19 186.94
  Q 65.32 186.79 72.47 186.70
  Q 72.38 187.26 72.96 188.00
  Q 76.14 192.92 78.79 187.75
  Q 79.89 185.90 78.00 184.29
  Z"
/>
<path fill="#990000" d="
  M 235.54 198.50
  C 234.65 210.88 219.62 212.22 216.79 200.25
  C 216.99 188.49 232.35 186.50 235.54 198.50
  Z"
/>
<path fill="#920000" d="
  M 159.00 195.21
  Q 160.41 197.10 160.52 199.97
  Q 160.62 202.73 163.37 202.92
  Q 172.07 203.55 173.00 212.00
  C 173.53 216.79 181.38 214.58 184.25 220.46
  Q 183.18 220.90 183.02 222.00
  A 0.54 0.51 -85.7 0 1 182.50 222.47
  L 168.42 222.27
  A 1.59 1.38 -20.1 0 1 167.42 221.89
  Q 164.19 218.89 161.79 221.50
  Q 161.62 221.84 161.25 221.79
  Q 159.82 221.99 159.38 223.27
  A 0.78 0.54 -75.6 0 1 158.76 223.81
  Q 158.02 223.76 157.66 222.76
  A 0.73 0.69 79.8 0 0 156.98 222.26
  L 141.48 222.53
  Q 140.69 222.22 139.63 220.79
  Q 136.97 219.36 134.98 222.71
  Q 134.42 223.65 133.99 222.64
  C 133.71 221.99 124.65 222.25 123.33 222.25
  Q 121.29 222.25 118.31 221.43
  Q 114.72 220.44 110.94 220.65
  A 1.81 1.15 -55.6 0 0 110.07 221.02
  L 108.92 221.96
  A 1.53 1.22 21.2 0 1 108.00 222.25
  L 95.06 222.20
  A 0.48 0.44 -88.1 0 1 94.63 221.70
  Q 94.66 220.75 93.71 220.75
  Q 92.40 220.76 91.14 220.38
  Q 88.20 219.51 87.48 220.07
  A 0.57 0.36 -41.6 0 1 86.88 220.17
  Q 84.86 218.50 82.25 218.49
  Q 79.64 216.43 79.53 213.00
  C 79.41 209.01 77.31 209.27 74.42 208.58
  Q 68.58 207.18 67.04 201.25
  Q 66.91 196.50 62.25 195.79
  L 65.07 195.62
  A 1.17 0.64 60.1 0 1 65.86 196.10
  Q 67.59 198.28 71.00 198.00
  Q 77.12 197.49 83.88 198.05
  A 0.83 0.82 7.1 0 0 84.77 197.36
  Q 85.17 195.01 87.75 195.79
  Q 84.79 197.19 85.23 200.23
  Q 88.09 205.28 91.29 200.75
  Q 92.62 199.10 91.46 197.57
  Q 91.10 194.66 93.34 197.64
  A 1.06 0.96 -17.8 0 0 94.17 198.02
  L 106.87 197.78
  A 2.21 1.89 18.2 0 0 108.33 197.18
  Q 110.60 194.86 112.54 196.00
  Q 109.46 197.23 110.46 200.50
  Q 113.48 205.17 116.54 200.50
  Q 117.53 198.62 116.00 197.04
  Q 117.62 196.34 118.04 198.44
  A 0.62 0.62 -5.7 0 0 118.65 198.94
  Q 126.25 198.86 133.79 199.23
  C 134.44 199.26 135.44 198.63 135.19 198.22
  A 1.19 1.19 -27.6 0 1 135.73 196.51
  Q 141.08 194.15 142.85 197.48
  A 0.87 0.75 73.6 0 0 143.57 197.94
  L 157.41 197.76
  A 0.33 0.31 -88.3 0 1 157.72 198.11
  C 157.64 200.03 158.93 195.34 159.00 195.21
  Z
  M 135.46 200.25
  Q 138.39 205.37 141.50 200.46
  C 142.79 194.73 134.31 194.87 135.46 200.25
  Z
  M 97.96 212.75
  Q 100.57 217.77 103.75 213.21
  C 106.36 211.03 102.39 208.42 100.29 208.71
  C 98.30 208.99 97.14 210.81 97.96 212.75
  Z
  M 123.00 212.54
  Q 125.56 218.04 128.79 213.00
  C 131.11 210.91 127.31 208.56 125.42 208.69
  C 123.37 208.83 122.42 210.66 123.00 212.54
  Z
  M 148.21 213.00
  Q 150.73 217.70 153.97 213.28
  Q 154.89 208.45 150.61 208.79
  C 148.30 208.98 147.29 210.92 148.21 213.00
  Z"
/>
<path fill="#240509" fill-opacity="0.902" d="
  M 87.75 195.79
  Q 89.74 195.64 91.46 197.57
  Q 92.62 199.10 91.29 200.75
  Q 89.36 193.71 85.23 200.23
  Q 84.79 197.19 87.75 195.79
  Z"
/>
<path fill="#240509" fill-opacity="0.902" d="
  M 116.00 197.04
  Q 117.53 198.62 116.54 200.50
  C 116.18 195.50 110.89 196.72 110.46 200.50
  Q 109.46 197.23 112.54 196.00
  Q 114.53 195.49 116.00 197.04
  Z"
/>
<path fill="#120106" fill-opacity="0.961" d="
  M 141.50 200.46
  C 140.99 196.19 136.37 196.44 135.46 200.25
  C 134.31 194.87 142.79 194.73 141.50 200.46
  Z"
/>
<path fill="#030002" fill-opacity="0.973" d="
  M 235.54 198.50
  C 236.11 212.69 217.81 213.81 216.79 200.25
  C 219.62 212.22 234.65 210.88 235.54 198.50
  Z"
/>
<path fill="#030002" fill-opacity="0.973" d="
  M 67.04 201.25
  Q 68.58 207.18 74.42 208.58
  C 77.31 209.27 79.41 209.01 79.53 213.00
  Q 79.64 216.43 82.25 218.49
  C 85.56 221.76 92.40 219.99 91.79 225.75
  Q 91.87 226.24 91.54 226.50
  C 91.38 221.91 88.65 222.89 85.69 221.86
  Q 79.27 219.63 78.80 212.89
  Q 78.62 210.43 76.18 210.10
  Q 68.67 209.05 66.96 202.50
  L 67.04 201.25
  Z"
/>
<path fill="#120106" fill-opacity="0.961" d="
  M 103.75 213.21
  C 103.76 208.54 98.11 209.25 97.96 212.75
  C 97.14 210.81 98.30 208.99 100.29 208.71
  C 102.39 208.42 106.36 211.03 103.75 213.21
  Z"
/>
<path fill="#120106" fill-opacity="0.961" d="
  M 128.79 213.00
  C 129.28 209.38 124.08 208.74 123.00 212.54
  C 122.42 210.66 123.37 208.83 125.42 208.69
  C 127.31 208.56 131.11 210.91 128.79 213.00
  Z"
/>
<path fill="#030002" fill-opacity="0.973" d="
  M 153.97 213.28
  C 153.75 208.57 147.81 209.16 148.21 213.00
  C 147.29 210.92 148.30 208.98 150.61 208.79
  Q 154.89 208.45 153.97 213.28
  Z"
/>
<path fill="#880000" d="
  M 235.46 226.25
  C 231.97 236.12 220.41 235.86 216.84 226.17
  C 215.50 211.92 237.01 212.02 235.46 226.25
  Z"
/>
<path fill="#880000" d="
  M 139.63 220.79
  C 131.28 221.95 137.39 231.77 127.70 233.35
  C 124.77 233.83 122.72 234.10 122.50 237.25
  Q 122.03 244.10 115.75 245.79
  L 112.25 245.56
  A 1.01 0.99 22.1 0 0 111.44 245.89
  L 111.04 246.33
  A 1.10 0.95 20.4 0 1 110.18 246.65
  Q 101.22 245.93 92.15 246.48
  Q 95.03 240.78 99.56 240.56
  Q 102.98 240.40 103.96 237.65
  C 105.17 232.86 97.87 233.85 95.26 231.74
  Q 92.48 229.50 91.79 225.75
  C 92.40 219.99 85.56 221.76 82.25 218.49
  Q 84.86 218.50 86.88 220.17
  A 0.57 0.36 -41.6 0 0 87.48 220.07
  Q 88.20 219.51 91.14 220.38
  Q 92.40 220.76 93.71 220.75
  Q 94.66 220.75 94.63 221.70
  A 0.48 0.44 -88.1 0 0 95.06 222.20
  L 108.00 222.25
  A 1.53 1.22 21.2 0 0 108.92 221.96
  L 110.07 221.02
  A 1.81 1.15 -55.6 0 1 110.94 220.65
  Q 114.72 220.44 118.31 221.43
  Q 121.29 222.25 123.33 222.25
  C 124.65 222.25 133.71 221.99 133.99 222.64
  Q 134.42 223.65 134.98 222.71
  Q 136.97 219.36 139.63 220.79
  Z
  M 110.46 225.00
  Q 112.62 230.22 116.25 225.96
  C 118.70 220.33 109.51 218.95 110.46 225.00
  Z"
/>
<path fill="#880000" d="
  M 184.25 220.46
  C 185.61 222.48 185.08 225.31 186.72 226.82
  C 188.30 228.27 191.69 228.23 194.04 229.75
  Q 194.17 230.95 195.18 231.47
  A 0.60 0.59 -69.9 0 1 195.49 232.15
  Q 194.95 234.17 195.95 234.67
  A 0.82 0.56 19.5 0 1 196.42 235.31
  C 196.09 240.40 186.38 236.04 181.96 238.33
  Q 180.46 239.10 180.88 237.00
  A 1.47 0.99 -62.0 0 0 180.78 236.06
  Q 179.93 234.62 178.25 234.54
  Q 175.22 232.46 173.25 235.29
  L 171.94 237.01
  A 1.24 0.88 -67.5 0 1 171.19 237.48
  Q 163.25 238.11 155.31 237.60
  A 0.46 0.44 -88.9 0 0 154.84 238.07
  Q 154.85 239.79 153.71 238.75
  L 153.79 238.50
  C 156.18 233.55 149.82 233.93 147.30 232.80
  C 142.78 230.78 142.45 226.89 141.48 222.53
  L 156.98 222.26
  A 0.73 0.69 79.8 0 1 157.66 222.76
  Q 158.02 223.76 158.76 223.81
  A 0.78 0.54 -75.6 0 0 159.38 223.27
  Q 159.82 221.99 161.25 221.79
  Q 160.01 223.25 160.54 225.00
  C 161.76 229.45 167.18 228.10 166.46 224.00
  Q 165.60 220.11 161.79 221.50
  Q 164.19 218.89 167.42 221.89
  A 1.59 1.38 -20.1 0 0 168.42 222.27
  L 182.50 222.47
  A 0.54 0.51 -85.7 0 0 183.02 222.00
  Q 183.18 220.90 184.25 220.46
  Z"
/>
<path fill="#030002" fill-opacity="0.973" d="
  M 139.63 220.79
  Q 140.69 222.22 141.48 222.53
  C 142.45 226.89 142.78 230.78 147.30 232.80
  C 149.82 233.93 156.18 233.55 153.79 238.50
  Q 153.63 234.93 149.50 234.50
  Q 144.63 233.99 142.53 229.54
  C 141.71 227.82 141.70 225.54 140.64 223.46
  Q 139.35 220.96 137.25 222.84
  C 135.15 224.74 135.48 227.70 134.44 229.60
  Q 132.77 232.65 129.50 234.25
  Q 128.52 234.73 126.00 235.00
  C 123.26 235.30 123.51 236.77 123.06 238.82
  Q 121.31 246.88 112.93 247.41
  A 1.51 0.94 10.9 0 0 112.05 247.75
  L 110.54 249.25
  C 110.41 246.20 113.72 246.36 115.75 245.79
  Q 122.03 244.10 122.50 237.25
  C 122.72 234.10 124.77 233.83 127.70 233.35
  C 137.39 231.77 131.28 221.95 139.63 220.79
  Z"
/>
<path fill="#240509" fill-opacity="0.902" d="
  M 116.25 225.96
  Q 116.78 222.46 113.50 222.04
  A 1.29 1.27 -59.4 0 0 112.59 222.28
  Q 111.15 223.33 110.46 225.00
  C 109.51 218.95 118.70 220.33 116.25 225.96
  Z"
/>
<path fill="#120106" fill-opacity="0.961" d="
  M 166.46 224.00
  Q 162.74 219.99 160.54 225.00
  Q 160.01 223.25 161.25 221.79
  Q 161.62 221.84 161.79 221.50
  Q 165.60 220.11 166.46 224.00
  Z"
/>
<path fill="#030002" fill-opacity="0.973" d="
  M 91.79 225.75
  Q 92.48 229.50 95.26 231.74
  C 97.87 233.85 105.17 232.86 103.96 237.65
  C 101.70 233.38 99.17 235.48 95.93 233.42
  Q 92.29 231.09 91.54 226.50
  Q 91.87 226.24 91.79 225.75
  Z"
/>
<path fill="#030002" fill-opacity="0.973" d="
  M 216.84 226.17
  C 220.41 235.86 231.97 236.12 235.46 226.25
  C 233.91 237.56 218.88 237.75 216.84 226.17
  Z"
/>
<path fill="#7c0000" d="
  M 194.04 229.75
  Q 197.40 232.31 198.09 236.37
  C 198.89 241.14 200.15 239.72 203.65 240.81
  Q 209.49 242.63 210.54 248.60
  C 211.10 251.79 213.15 255.12 216.21 251.15
  A 1.91 1.48 72.5 0 0 216.54 250.25
  C 217.70 237.94 233.29 236.97 235.54 248.75
  Q 234.75 257.85 225.25 259.00
  Q 222.42 259.34 223.21 262.50
  C 224.39 266.30 227.16 264.99 229.53 266.10
  C 234.08 268.24 237.63 274.41 234.44 279.16
  Q 227.07 287.15 219.77 280.62
  C 217.94 278.98 217.49 277.01 216.75 274.75
  Q 216.91 272.00 214.24 271.58
  Q 209.11 270.78 205.50 267.04
  Q 204.59 265.66 204.46 264.00
  C 205.10 260.65 203.64 259.39 200.45 258.72
  Q 193.52 257.27 191.96 250.35
  C 190.73 244.92 188.20 246.86 184.58 245.13
  Q 181.62 243.73 180.27 240.52
  A 0.41 0.25 73.7 0 0 179.97 240.25
  L 179.75 240.25
  Q 180.12 237.04 178.25 234.54
  Q 179.93 234.62 180.78 236.06
  A 1.47 0.99 -62.0 0 1 180.88 237.00
  Q 180.46 239.10 181.96 238.33
  C 186.38 236.04 196.09 240.40 196.42 235.31
  A 0.82 0.56 19.5 0 0 195.95 234.67
  Q 194.95 234.17 195.49 232.15
  A 0.60 0.59 -69.9 0 0 195.18 231.47
  Q 194.17 230.95 194.04 229.75
  Z"
/>
<path fill="#030002" fill-opacity="0.973" d="
  M 178.25 234.54
  Q 180.12 237.04 179.75 240.25
  L 178.59 236.53
  A 1.65 1.49 -83.1 0 0 178.04 235.75
  C 175.41 233.81 173.77 235.54 173.34 238.28
  Q 172.43 244.08 167.26 246.61
  C 164.80 247.82 162.45 246.48 160.54 249.75
  C 159.84 245.64 165.75 246.32 168.01 245.06
  C 172.69 242.46 171.59 239.60 173.25 235.29
  Q 175.22 232.46 178.25 234.54
  Z"
/>
<path fill="#7c0000" d="
  M 173.25 235.29
  C 171.59 239.60 172.69 242.46 168.01 245.06
  C 165.75 246.32 159.84 245.64 160.54 249.75
  Q 161.06 252.55 164.50 253.00
  Q 172.37 254.03 172.96 262.50
  C 170.63 272.78 158.88 274.27 154.50 264.50
  Q 154.89 261.64 153.19 259.73
  C 151.80 258.16 149.03 258.58 148.50 260.50
  C 147.20 265.17 146.82 268.10 142.03 270.09
  Q 134.57 273.19 129.75 265.29
  C 128.26 257.99 131.55 254.27 138.33 252.94
  C 141.70 252.29 141.23 249.98 142.05 247.43
  Q 144.08 241.10 151.19 240.44
  Q 152.81 240.29 153.71 238.75
  Q 154.85 239.79 154.84 238.07
  A 0.46 0.44 -88.9 0 1 155.31 237.60
  Q 163.25 238.11 171.19 237.48
  A 1.24 0.88 -67.5 0 0 171.94 237.01
  L 173.25 235.29
  Z"
/>
<path fill="#030002" fill-opacity="0.973" d="
  M 179.75 240.25
  L 179.97 240.25
  A 0.41 0.25 73.7 0 1 180.27 240.52
  Q 181.62 243.73 184.58 245.13
  C 188.20 246.86 190.73 244.92 191.96 250.35
  Q 193.52 257.27 200.45 258.72
  C 203.64 259.39 205.10 260.65 204.46 264.00
  Q 204.05 261.85 202.55 260.39
  A 1.54 1.22 -15.1 0 0 201.69 260.02
  Q 192.98 259.17 191.50 250.45
  C 190.63 245.36 181.90 248.77 179.75 240.25
  Z"
/>
<path fill="#7a0000" d="
  M 115.75 245.79
  C 113.72 246.36 110.41 246.20 110.54 249.25
  C 111.00 255.65 122.64 250.96 122.75 262.79
  C 119.16 274.76 106.01 273.11 104.00 261.50
  Q 103.56 258.94 101.40 258.85
  C 98.46 258.74 97.67 261.00 97.25 263.50
  C 95.31 275.08 79.62 272.83 79.09 261.00
  Q 80.60 254.43 87.31 253.06
  Q 92.42 252.02 92.15 246.48
  Q 101.22 245.93 110.18 246.65
  A 1.10 0.95 20.4 0 0 111.04 246.33
  L 111.44 245.89
  A 1.01 0.99 22.1 0 1 112.25 245.56
  L 115.75 245.79
  Z"
/>
<path fill="#030002" fill-opacity="0.973" d="
  M 235.54 248.75
  Q 235.82 258.58 226.44 259.94
  Q 223.73 260.33 223.21 262.50
  Q 222.42 259.34 225.25 259.00
  Q 234.75 257.85 235.54 248.75
  Z"
/>
<path fill="#7a0000" d="
  M 47.71 261.25
  L 47.50 264.00
  C 43.40 275.53 29.03 272.47 29.00 259.99
  Q 35.14 247.72 45.56 256.44
  Q 47.27 257.87 47.71 261.25
  Z"
/>
<path fill="#7a0000" d="
  M 72.92 261.23
  C 71.84 274.24 55.45 274.17 53.96 261.75
  C 55.81 249.99 70.37 250.12 72.92 261.23
  Z"
/>
<path fill="#030002" fill-opacity="0.973" d="
  M 122.75 262.79
  C 120.96 275.99 104.66 274.52 103.78 262.50
  A 1.87 1.41 -72.3 0 0 103.46 261.59
  Q 101.16 258.53 98.57 261.37
  A 1.64 1.36 72.8 0 0 98.21 262.24
  C 96.90 276.24 78.09 275.08 79.09 261.00
  C 79.62 272.83 95.31 275.08 97.25 263.50
  C 97.67 261.00 98.46 258.74 101.40 258.85
  Q 103.56 258.94 104.00 261.50
  C 106.01 273.11 119.16 274.76 122.75 262.79
  Z"
/>
<path fill="#030002" fill-opacity="0.973" d="
  M 154.50 264.50
  C 153.95 263.23 153.98 261.71 153.06 260.76
  C 148.85 256.40 147.52 266.25 146.53 267.86
  C 142.19 274.93 132.30 272.95 129.75 265.29
  Q 134.57 273.19 142.03 270.09
  C 146.82 268.10 147.20 265.17 148.50 260.50
  C 149.03 258.58 151.80 258.16 153.19 259.73
  Q 154.89 261.64 154.50 264.50
  Z"
/>
<path fill="#030002" fill-opacity="0.973" d="
  M 29.00 259.99
  C 29.03 272.47 43.40 275.53 47.50 264.00
  C 44.96 277.18 27.08 273.75 29.00 259.99
  Z"
/>
<path fill="#030002" fill-opacity="0.973" d="
  M 47.71 261.25
  Q 48.57 262.75 47.50 264.00
  L 47.71 261.25
  Z"
/>
<path fill="#030002" fill-opacity="0.973" d="
  M 72.92 261.23
  C 72.73 276.00 53.52 275.70 53.96 261.75
  C 55.45 274.17 71.84 274.24 72.92 261.23
  Z"
/>
<path fill="#030002" fill-opacity="0.973" d="
  M 172.96 262.50
  C 172.75 274.45 155.70 275.49 154.50 264.50
  C 158.88 274.27 170.63 272.78 172.96 262.50
  Z"
/>
<path fill="#030002" fill-opacity="0.973" d="
  M 205.50 267.04
  Q 209.11 270.78 214.24 271.58
  Q 216.91 272.00 216.75 274.75
  C 214.31 270.48 208.56 273.34 205.50 267.04
  Z"
/>
<path fill="#030002" fill-opacity="0.973" d="
  M 216.75 274.75
  C 217.49 277.01 217.94 278.98 219.77 280.62
  Q 227.07 287.15 234.44 279.16
  C 230.04 288.99 217.24 285.04 216.75 274.75
  Z"
/>
</svg>
