<?xml version="1.0" encoding="UTF-8" standalone="no"?>
<!DOCTYPE svg PUBLIC "-//W3C//DTD SVG 1.1//EN" "http://www.w3.org/Graphics/SVG/1.1/DTD/svg11.dtd">
<svg xmlns="http://www.w3.org/2000/svg" version="1.1" viewBox="0 0 600 300">
<path fill="#000000" d="
  M 211.97 169.27
  Q 136.22 203.86 60.56 238.64
  C 54.67 241.35 59.66 237.29 59.83 237.08
  Q 104.06 180.19 148.84 122.64
  Q 149.72 121.50 148.41 122.10
  L 91.07 148.33
  A 1.96 1.93 -4.9 0 0 90.00 149.58
  Q 88.22 156.05 87.29 161.72
  Q 85.43 173.06 82.56 185.03
  A 0.94 0.93 6.6 0 1 81.65 185.75
  L 1.01 185.75
  A 0.74 0.74 -83.7 0 1 0.29 184.85
  L 18.22 103.81
  A 0.71 0.71 -83.9 0 1 18.91 103.25
  L 41.27 103.25
  A 0.73 0.72 -83.8 0 1 41.97 104.13
  L 29.46 161.00
  A 0.62 0.61 -83.9 0 0 30.06 161.75
  L 62.85 161.69
  A 0.73 0.73 -83.5 0 0 63.56 161.12
  L 76.08 104.06
  A 1.02 1.01 -84.0 0 1 77.07 103.25
  L 99.28 103.25
  A 0.67 0.67 6.3 0 1 99.93 104.06
  L 94.77 126.90
  Q 94.58 127.76 95.38 127.39
  L 251.02 56.24
  Q 251.68 55.94 251.24 56.52
  L 159.68 175.95
  Q 158.34 177.69 160.31 176.72
  L 215.49 149.37
  A 3.31 3.26 -7.1 0 0 217.25 147.14
  L 226.70 103.99
  A 0.94 0.93 -83.8 0 1 227.61 103.25
  L 308.41 103.25
  A 0.70 0.70 -83.7 0 1 309.09 104.10
  L 304.21 126.20
  A 1.35 1.33 -83.5 0 1 302.91 127.25
  L 246.04 127.25
  A 0.71 0.70 -82.5 0 0 245.36 127.78
  L 244.34 131.82
  A 0.69 0.69 6.8 0 0 245.02 132.68
  L 284.24 132.56
  A 0.74 0.72 -84.2 0 1 284.95 133.45
  L 280.13 155.57
  A 0.87 0.86 -83.7 0 1 279.29 156.25
  L 239.82 156.31
  A 0.74 0.60 5.3 0 0 239.12 156.78
  L 238.01 161.38
  A 0.40 0.36 5.7 0 0 238.41 161.82
  L 295.72 161.75
  A 0.63 0.62 -83.6 0 1 296.32 162.52
  L 291.38 184.99
  A 0.97 0.94 -83.5 0 1 290.46 185.75
  L 209.62 185.75
  A 0.79 0.77 -83.4 0 1 208.87 184.78
  L 212.34 169.55
  Q 212.45 169.05 211.97 169.27
  Z"
/>
<path fill="#000000" d="
  M 392.56 103.65
  C 395.89 106.74 400.37 110.41 403.20 113.86
  A 1.05 1.04 -58.1 0 1 403.40 114.74
  L 399.06 133.46
  A 1.23 1.18 -10.5 0 1 398.52 134.21
  L 383.58 143.40
  A 1.04 1.02 -38.9 0 0 383.39 145.03
  L 393.71 154.80
  A 1.58 1.52 28.3 0 1 394.18 156.25
  L 390.17 175.07
  A 1.26 1.14 81.9 0 1 389.65 175.84
  L 374.66 185.25
  A 3.56 3.08 25.4 0 1 372.86 185.75
  L 306.22 185.75
  A 0.67 0.67 6.3 0 1 305.57 184.94
  L 323.32 103.92
  A 0.79 0.78 -83.5 0 1 324.08 103.31
  L 391.69 103.31
  A 1.35 1.27 64.6 0 1 392.56 103.65
  Z
  M 341.94 127.69
  L 340.90 131.50
  A 0.85 0.78 -81.9 0 0 341.64 132.57
  Q 357.89 132.46 373.50 132.50
  C 374.73 132.50 376.59 133.33 376.59 131.06
  Q 376.59 130.53 376.78 130.12
  C 378.62 126.20 375.48 127.25 373.54 127.25
  Q 358.11 127.29 342.52 127.19
  A 0.68 0.56 -80.4 0 0 341.94 127.69
  Z
  M 335.54 156.94
  L 334.56 160.57
  A 0.94 0.87 -81.9 0 0 335.38 161.75
  L 369.13 161.75
  A 0.97 0.90 -82.7 0 0 370.02 161.01
  L 370.92 157.37
  A 0.91 0.88 -83.0 0 0 370.07 156.25
  L 336.38 156.25
  A 0.92 0.85 -82.1 0 0 335.54 156.94
  Z"
/>
<path fill="#000000" d="
  M 419.37 104.09
  A 1.08 1.08 -83.6 0 1 420.42 103.25
  L 500.83 103.25
  A 0.96 0.96 6.3 0 1 501.77 104.42
  L 484.00 185.24
  A 0.65 0.63 -83.8 0 1 483.38 185.75
  L 402.38 185.75
  A 0.80 0.79 6.1 0 1 401.60 184.79
  L 419.37 104.09
  Z
  M 437.98 127.75
  L 430.73 160.89
  A 0.71 0.71 -83.8 0 0 431.42 161.75
  L 464.31 161.75
  A 1.13 1.12 6.0 0 0 465.41 160.87
  L 472.59 127.80
  A 0.41 0.40 6.2 0 0 472.19 127.31
  L 438.60 127.25
  A 0.64 0.63 -83.8 0 0 437.98 127.75
  Z"
/>
<path fill="#000000" d="
  M 540.39 164.85
  L 518.80 185.34
  A 1.29 1.19 -64.9 0 1 517.95 185.69
  L 494.44 185.75
  A 0.60 0.59 6.5 0 1 493.85 185.03
  L 495.80 176.67
  A 1.81 1.29 -22.9 0 1 496.31 175.84
  L 528.39 145.10
  A 0.62 0.62 -37.8 0 0 528.49 144.32
  L 509.90 113.95
  A 1.67 1.35 40.3 0 1 509.69 112.82
  L 511.80 103.91
  A 0.67 0.63 5.5 0 1 512.43 103.42
  L 535.02 103.26
  A 1.54 1.52 74.0 0 1 536.32 103.99
  L 548.94 124.57
  A 0.78 0.77 52.2 0 0 550.14 124.73
  L 572.38 103.59
  A 1.31 1.28 23.2 0 1 573.26 103.25
  L 595.86 103.31
  A 0.91 0.91 -82.0 0 1 596.73 104.47
  Q 595.76 107.88 595.09 110.99
  C 594.28 114.69 591.87 115.88 589.06 118.56
  Q 575.45 131.58 562.06 144.21
  A 1.10 1.08 52.9 0 0 561.88 145.57
  L 580.49 175.82
  A 1.32 1.29 -55.4 0 1 580.65 176.75
  L 578.87 185.06
  A 0.88 0.88 6.1 0 1 578.01 185.75
  L 554.79 185.75
  A 1.68 1.60 73.5 0 1 553.40 184.95
  L 541.02 164.91
  A 0.41 0.40 -38.3 0 0 540.39 164.85
  Z"
/>
</svg>
