<?xml version="1.0" encoding="UTF-8" standalone="no"?>
<!DOCTYPE svg PUBLIC "-//W3C//DTD SVG 1.1//EN" "http://www.w3.org/Graphics/SVG/1.1/DTD/svg11.dtd">
<svg xmlns="http://www.w3.org/2000/svg" version="1.1" viewBox="0 0 600 300">
<path stroke="#4b7ab6" stroke-width="2.00" fill="none" stroke-linecap="butt" vector-effect="non-scaling-stroke" d="
  M 408.71 98.50
  Q 406.74 98.69 407.15 100.22
  A 0.52 0.51 73.9 0 0 407.80 100.59
  Q 408.98 100.22 409.00 98.79"
/>
<path fill="#13579e" d="
  M 313.81 50.31
  C 308.99 55.09 309.51 60.00 309.47 68.12
  Q 309.37 85.19 309.68 102.27
  C 309.86 112.36 315.73 116.75 325.41 116.75
  Q 339.06 116.75 353.30 116.75
  A 0.89 0.88 0.0 0 0 354.19 115.87
  L 354.25 81.06
  A 0.89 0.88 -0.3 0 0 353.35 80.18
  L 330.16 80.25
  A 0.70 0.67 89.6 0 1 329.49 79.56
  L 329.32 67.24
  A 0.73 0.70 89.6 0 1 330.02 66.50
  L 367.07 66.50
  A 0.42 0.42 -89.3 0 1 367.49 66.93
  L 367.32 119.61
  A 0.70 0.37 -83.7 0 0 367.54 120.18
  Q 367.64 120.23 367.75 120.22
  A 0.32 0.24 -79.1 0 0 368.00 119.99
  Q 380.31 83.66 392.56 47.31
  C 398.12 30.82 419.14 25.36 430.21 39.50
  Q 432.89 42.94 435.84 51.75
  Q 448.86 90.67 462.23 129.92
  A 0.43 0.43 82.1 0 1 461.80 130.49
  C 444.23 129.80 426.45 130.49 408.59 130.50
  A 0.89 0.86 89.7 0 1 407.73 129.62
  L 407.57 117.48
  A 0.71 0.67 90.0 0 1 408.25 116.76
  L 442.84 117.00
  A 0.60 0.59 -9.1 0 0 443.41 116.22
  Q 432.54 84.13 421.78 52.29
  Q 419.93 46.80 417.82 45.03
  C 413.25 41.20 407.35 44.77 405.71 50.15
  C 397.54 76.80 387.88 103.27 378.93 129.70
  A 1.17 1.16 -80.4 0 1 377.81 130.50
  Q 352.03 130.14 326.09 130.23
  Q 319.08 130.25 315.06 128.98
  C 302.69 125.08 296.37 115.05 296.16 102.27
  Q 295.82 81.89 295.85 61.50
  Q 295.87 47.82 305.56 39.56
  C 313.65 32.67 321.02 33.25 333.46 33.25
  Q 349.97 33.25 366.94 33.25
  A 0.56 0.56 0.0 0 1 367.50 33.81
  L 367.50 46.07
  A 0.68 0.68 -0.4 0 1 366.82 46.75
  Q 345.00 46.75 323.68 46.75
  C 319.92 46.75 316.28 47.87 313.81 50.31
  Z"
/>
<path fill="#13579e" d="
  M 246.64 116.71
  Q 268.22 116.79 290.08 116.75
  A 0.67 0.66 -0.0 0 1 290.75 117.41
  L 290.75 129.46
  A 0.83 0.82 89.7 0 1 289.94 130.29
  Q 268.45 130.57 248.29 130.33
  C 233.12 130.15 222.34 123.99 218.50 108.25
  Q 217.69 104.91 217.81 93.75
  Q 218.00 77.50 218.04 61.25
  C 218.07 48.63 225.53 37.56 237.97 34.20
  Q 241.49 33.25 249.13 33.26
  Q 269.67 33.28 290.26 33.19
  A 0.73 0.73 -0.4 0 1 291.00 33.92
  L 291.00 45.76
  A 0.99 0.99 -1.4 0 1 290.01 46.75
  Q 268.30 46.75 246.80 46.75
  Q 242.15 46.75 239.43 48.03
  C 230.84 52.08 231.50 59.06 231.50 68.64
  Q 231.50 81.59 231.50 94.54
  C 231.50 104.32 230.70 111.35 239.23 115.40
  Q 241.93 116.69 246.64 116.71
  Z"
/>
<path fill="#13579e" d="
  M 178.56 100.19
  Q 181.96 100.17 181.13 97.78
  A 0.83 0.78 -5.4 0 0 180.45 97.25
  C 174.37 96.44 167.69 97.15 162.55 96.14
  Q 152.22 94.11 145.56 86.78
  C 125.97 65.21 141.90 32.87 170.25 33.09
  Q 190.63 33.25 210.80 33.25
  A 0.95 0.94 -0.0 0 1 211.75 34.19
  L 211.70 46.05
  A 0.72 0.71 0.4 0 1 210.98 46.75
  Q 194.24 46.75 178.14 46.75
  Q 166.25 46.75 163.43 47.55
  C 144.77 52.85 147.24 80.63 166.35 83.08
  C 170.88 83.65 179.50 82.47 184.51 84.18
  C 197.60 88.64 198.73 106.55 186.09 112.15
  Q 183.04 113.50 177.71 113.54
  Q 158.05 113.70 137.66 113.56
  A 0.92 0.92 0.3 0 1 136.75 112.64
  L 136.75 101.09
  A 0.84 0.84 0.0 0 1 137.59 100.25
  Q 158.66 100.29 178.56 100.19
  Z"
/>
<path fill="#13579e" d="
  M 406.93 103.24
  L 398.13 129.87
  A 0.94 0.92 9.0 0 1 397.24 130.50
  L 382.74 130.50
  A 0.53 0.53 -80.3 0 1 382.24 129.79
  Q 395.15 91.95 407.81 54.06
  C 408.76 51.22 409.26 48.11 412.18 46.98
  C 415.50 45.70 417.17 48.52 418.13 51.36
  Q 428.61 82.16 438.84 113.03
  A 0.36 0.36 80.7 0 1 438.50 113.51
  L 408.80 113.74
  A 1.30 1.28 -88.5 0 1 407.51 112.36
  C 407.57 111.32 408.13 102.96 407.51 102.80
  A 0.61 0.43 -72.8 0 0 406.93 103.24
  Z
  M 408.71 98.50
  Q 406.74 98.69 407.15 100.22
  A 0.52 0.51 73.9 0 0 407.80 100.59
  Q 408.98 100.22 409.00 98.79
  L 417.39 98.75
  A 0.81 0.78 80.1 0 0 418.11 97.68
  L 414.18 86.05
  Q 413.58 84.27 412.99 86.00
  L 408.71 98.50
  Z"
/>
<path fill="#13579e" d="
  M 168.97 63.30
  Q 166.84 63.29 167.07 65.40
  Q 167.25 66.98 169.69 66.74
  C 177.78 65.94 185.96 66.30 193.28 69.74
  C 224.56 84.45 213.83 129.76 179.05 130.35
  Q 158.22 130.70 137.70 130.44
  A 0.96 0.94 0.3 0 1 136.75 129.50
  L 136.80 117.45
  A 0.72 0.71 0.4 0 1 137.52 116.75
  Q 159.50 116.75 180.50 116.75
  C 200.67 116.75 205.04 87.28 185.24 81.10
  C 174.21 77.66 160.90 84.98 154.75 70.50
  C 151.13 61.96 156.96 52.10 165.79 50.33
  Q 167.43 49.99 176.26 50.03
  Q 193.71 50.10 211.05 49.81
  A 0.69 0.67 -0.0 0 1 211.75 50.49
  L 211.54 62.98
  A 0.53 0.52 1.1 0 1 211.00 63.49
  L 168.97 63.30
  Z"
/>
<path fill="#13579e" d="
  M 248.07 66.03
  A 0.50 0.49 9.7 0 0 248.55 66.69
  L 280.37 66.51
  A 0.88 0.87 89.7 0 1 281.25 67.39
  L 281.25 79.75
  A 0.50 0.50 0.0 0 1 280.75 80.25
  L 235.53 80.25
  A 0.78 0.78 0.0 0 1 234.75 79.47
  Q 234.75 70.13 234.70 62.00
  C 234.64 51.45 241.30 49.75 250.61 49.75
  Q 270.44 49.75 290.34 49.75
  A 0.66 0.66 0.2 0 1 291.00 50.41
  L 291.00 62.65
  A 0.85 0.85 0.2 0 1 290.15 63.50
  Q 270.45 63.50 251.36 63.50
  C 249.49 63.50 248.66 64.42 248.07 66.03
  Z"
/>
<path fill="#13579e" d="
  M 331.96 113.61
  C 320.29 113.57 312.75 114.06 312.75 100.34
  Q 312.75 81.57 312.75 62.80
  C 312.75 54.45 316.31 49.77 325.25 49.75
  Q 346.10 49.70 366.94 49.81
  A 0.52 0.51 89.4 0 1 367.45 50.32
  L 367.49 62.54
  A 0.99 0.97 -0.0 0 1 366.50 63.51
  L 329.21 63.49
  Q 326.25 63.49 326.25 66.48
  L 326.25 97.27
  Q 326.25 99.60 328.57 99.80
  C 331.06 100.02 338.69 101.95 337.46 97.41
  A 0.73 0.62 80.7 0 0 336.82 96.87
  L 330.42 97.05
  A 0.86 0.75 -1.4 0 1 329.53 96.31
  L 329.43 83.94
  A 0.52 0.50 -90.0 0 1 329.93 83.42
  L 349.96 83.30
  A 0.81 0.79 90.0 0 1 350.75 84.11
  L 350.81 112.82
  A 0.52 0.51 -1.2 0 1 350.31 113.33
  Q 341.14 113.64 331.96 113.61
  Z"
/>
<path fill="#13579e" d="
  M 251.57 100.05
  Q 270.82 100.33 290.07 100.19
  A 0.52 0.51 -0.6 0 1 290.59 100.69
  L 290.74 113.00
  A 0.51 0.50 -0.0 0 1 290.23 113.50
  Q 272.09 113.50 253.94 113.50
  C 243.27 113.50 235.08 114.31 234.80 101.50
  Q 234.61 92.84 234.92 84.19
  A 0.53 0.51 -88.8 0 1 235.43 83.68
  L 280.57 83.44
  A 0.52 0.50 -0.0 0 1 281.09 83.94
  L 281.22 95.72
  A 1.06 1.02 -0.3 0 1 280.16 96.75
  L 249.14 96.75
  A 0.88 0.87 -9.8 0 0 248.31 97.92
  Q 249.06 100.01 251.57 100.05
  Z"
/>
<path fill="#839dcd" d="
  M 408.71 98.50
  Q 408.77 98.73 409.00 98.79
  Q 408.98 100.22 407.80 100.59
  A 0.52 0.51 73.9 0 1 407.15 100.22
  Q 406.74 98.69 408.71 98.50
  Z"
/>
<path fill="#e50000" d="
  M 55.25 155.42
  C 53.17 153.23 50.12 150.44 56.22 150.59
  Q 60.35 150.70 64.69 147.94
  C 90.10 131.78 123.94 128.67 153.22 133.93
  C 172.08 137.32 199.56 149.62 193.03 174.53
  C 190.76 183.20 182.70 186.92 174.53 189.90
  A 1.53 1.19 0.4 0 0 173.77 190.48
  Q 172.76 192.18 175.32 192.92
  C 188.67 196.78 202.87 206.86 203.68 221.86
  C 205.12 248.41 167.27 258.48 147.50 260.25
  Q 132.87 261.56 111.25 260.32
  Q 87.98 258.99 66.40 250.51
  C 63.44 249.35 58.31 246.78 54.50 245.75
  C 52.48 245.20 43.51 248.69 46.75 243.00
  Q 50.66 236.12 60.64 220.21
  C 62.89 216.61 64.83 216.37 66.27 220.78
  C 70.77 234.49 107.61 240.34 119.75 241.05
  C 133.77 241.87 161.44 241.41 169.75 227.82
  C 175.37 218.64 168.20 211.00 160.05 207.61
  C 146.68 202.05 132.00 201.65 117.74 202.38
  Q 112.29 202.66 106.14 206.11
  Q 104.00 207.31 104.00 204.86
  Q 104.00 193.96 104.00 182.71
  C 104.00 180.61 105.35 178.30 107.50 180.60
  Q 108.70 181.89 110.43 182.26
  C 122.79 184.97 135.25 183.59 147.50 181.00
  C 155.76 179.25 169.17 169.64 159.32 160.39
  C 147.78 149.54 127.73 150.56 112.80 152.50
  C 103.72 153.68 77.06 160.85 77.41 172.31
  C 77.50 175.17 75.70 176.32 73.53 174.16
  Q 64.27 164.91 55.25 155.42
  Z"
/>
<path fill="#e50000" d="
  M 221.75 230.12
  C 225.84 225.52 231.98 219.82 237.56 216.56
  C 256.65 205.42 280.95 197.38 299.20 190.21
  Q 304.90 187.97 310.36 185.21
  C 315.27 182.72 325.48 174.07 324.02 167.04
  C 321.18 153.46 300.07 150.64 289.10 151.16
  C 275.31 151.81 261.49 157.21 250.77 166.02
  C 248.23 168.11 242.98 174.69 244.98 178.33
  A 1.86 0.99 45.8 0 1 245.25 179.25
  C 245.15 181.72 243.20 181.52 241.77 180.22
  Q 229.93 169.42 218.66 158.04
  A 0.95 0.84 31.4 0 1 218.40 157.19
  C 218.85 155.37 220.88 156.13 222.25 155.74
  Q 225.77 154.75 228.72 152.48
  C 254.98 132.29 291.39 125.91 323.02 136.00
  C 337.99 140.78 356.12 150.07 355.93 168.64
  Q 355.76 185.92 340.81 195.06
  Q 324.99 204.74 305.89 210.52
  C 287.94 215.95 268.28 220.97 252.85 232.06
  Q 250.10 234.03 248.87 236.31
  Q 247.58 238.70 250.30 238.69
  Q 303.16 238.38 356.00 238.58
  Q 359.39 238.59 361.72 236.22
  Q 365.39 232.51 365.44 238.00
  Q 365.54 249.72 365.44 261.45
  A 1.50 1.09 72.0 0 1 365.15 262.34
  C 364.22 263.44 363.15 263.16 362.24 262.12
  Q 359.47 259.00 354.75 259.00
  Q 284.00 259.00 214.10 259.00
  Q 211.31 259.00 211.46 256.21
  Q 212.30 240.75 221.75 230.12
  Z"
/>
<path fill="#e50000" d="
  M 491.57 200.68
  C 507.49 216.70 523.33 232.80 539.23 248.83
  C 543.27 252.90 546.58 254.71 551.88 255.89
  C 554.25 256.42 554.52 258.50 551.52 258.50
  Q 528.64 258.50 505.75 258.48
  Q 501.83 258.47 504.79 255.85
  Q 506.19 254.61 504.89 253.25
  Q 487.25 234.81 468.88 216.50
  C 464.59 212.23 464.12 212.99 460.14 216.99
  Q 443.17 234.07 426.45 251.41
  C 424.70 253.22 422.99 254.43 425.75 256.75
  Q 427.75 258.43 425.44 258.44
  Q 401.73 258.55 378.01 258.50
  C 376.12 258.50 374.73 256.93 377.18 256.10
  Q 379.77 255.23 382.35 254.34
  C 387.99 252.39 391.88 247.67 396.31 243.06
  Q 405.76 233.24 442.02 196.61
  C 443.99 194.62 445.90 193.33 443.21 190.56
  Q 419.41 166.07 395.28 141.90
  C 391.83 138.45 388.99 136.99 384.48 135.96
  C 381.42 135.25 380.16 132.77 384.41 132.74
  Q 407.83 132.57 431.26 132.99
  A 0.80 0.61 -5.5 0 1 431.98 133.44
  Q 432.29 134.50 430.36 135.70
  A 1.32 1.32 52.4 0 0 430.10 137.72
  Q 446.61 155.38 464.08 172.20
  A 1.15 1.14 44.5 0 0 465.68 172.19
  Q 481.58 156.47 497.18 140.47
  C 498.94 138.67 501.07 137.09 498.42 135.09
  C 497.34 134.29 496.88 132.75 498.75 132.75
  Q 522.63 132.75 546.51 132.75
  A 1.14 0.80 -12.5 0 1 547.35 133.10
  L 548.20 134.25
  A 0.47 0.42 -30.7 0 1 547.99 134.91
  C 544.83 136.46 541.16 136.69 538.01 138.69
  Q 536.40 139.72 533.64 142.51
  Q 509.36 167.05 485.30 191.83
  A 1.33 1.33 -42.4 0 0 485.22 193.60
  Q 488.20 197.28 491.57 200.68
  Z"
/>
<path fill="#340201" fill-opacity="0.608" d="
  M 551.70 133.42
  Q 550.87 133.25 550.03 133.51
  Q 549.58 133.65 549.96 133.39
  Q 551.93 132.07 553.25 134.07
  Q 553.62 134.63 553.01 134.58
  Q 552.57 134.55 552.34 134.03
  A 1.10 0.72 76.6 0 0 551.70 133.42
  Z"
/>
<path fill="#810e09" fill-opacity="0.882" d="
  M 550.81 134.74
  Q 551.64 135.38 551.55 136.21
  A 0.55 0.54 5.7 0 1 550.94 136.70
  Q 549.83 136.58 550.27 134.93
  A 0.35 0.34 -64.2 0 1 550.81 134.74
  Z"
/>
<path fill="#340201" fill-opacity="0.608" d="
  M 549.42 137.90
  C 546.61 134.82 551.23 138.20 550.22 138.27
  A 1.13 0.84 61.4 0 1 549.42 137.90
  Z"
/>
<path fill="#810e09" fill-opacity="0.882" d="
  M 553.36 137.39
  Q 553.59 138.27 552.49 138.11
  Q 551.80 138.00 552.27 137.59
  L 552.75 137.16
  A 0.40 0.36 63.0 0 1 553.36 137.39
  Z"
/>
</svg>
