<?xml version="1.0" encoding="UTF-8" standalone="no"?>
<!DOCTYPE svg PUBLIC "-//W3C//DTD SVG 1.1//EN" "http://www.w3.org/Graphics/SVG/1.1/DTD/svg11.dtd">
<svg xmlns="http://www.w3.org/2000/svg" version="1.1" viewBox="0.00 0.00 600.00 300.00">
<path fill="#000000" d="
  M 600.00 169.53
  L 600.00 174.06
  Q 598.26 192.31 585.01 202.72
  C 574.98 210.61 562.34 213.35 550.04 209.91
  Q 530.50 204.43 510.48 201.56
  Q 509.99 201.49 509.99 201.98
  L 510.02 219.73
  Q 510.02 220.23 509.52 220.23
  L 500.06 220.23
  A 0.45 0.45 0.0 0 0 499.61 220.68
  L 499.63 276.26
  Q 499.63 276.91 498.99 276.91
  L 98.63 276.91
  A 0.47 0.46 90.0 0 1 98.17 276.44
  L 98.18 200.00
  A 0.34 0.34 0.0 0 0 97.79 199.66
  C 74.19 202.72 51.00 208.07 27.70 213.17
  Q 27.47 213.22 27.48 212.98
  L 34.48 103.28
  Q 34.50 102.99 34.21 102.99
  L 0.00 103.70
  L 0.00 102.22
  L 5.76 22.82
  Q 5.80 22.31 6.31 22.31
  Q 272.37 22.34 543.98 22.18
  Q 555.19 22.17 559.86 23.34
  Q 575.24 27.20 584.59 40.48
  Q 590.60 49.02 591.49 60.27
  Q 595.81 114.89 600.00 169.53
  Z
  M 42.98 95.35
  L 36.19 202.48
  Q 36.16 203.06 36.72 202.93
  C 49.34 200.16 62.43 197.10 74.73 195.05
  Q 90.14 192.48 105.85 190.49
  A 0.26 0.26 0.0 0 1 106.14 190.75
  L 106.13 268.66
  A 0.36 0.36 0.0 0 0 106.49 269.03
  L 491.23 269.03
  Q 491.48 269.03 491.48 268.77
  L 491.47 212.84
  A 0.69 0.69 0.0 0 1 492.16 212.15
  L 501.18 212.17
  Q 501.79 212.17 501.79 211.57
  L 501.77 192.55
  Q 501.77 192.12 502.20 192.18
  Q 518.50 194.40 535.06 197.84
  Q 543.15 199.51 550.33 201.80
  Q 556.39 203.73 561.90 203.45
  C 580.12 202.53 593.23 186.92 591.87 169.13
  Q 587.44 111.33 583.79 62.31
  C 582.74 48.19 573.49 36.39 560.03 32.13
  Q 555.73 30.77 545.08 30.77
  Q 374.79 30.65 204.50 30.53
  Q 202.38 30.53 200.24 30.53
  Q 107.19 30.51 14.07 30.54
  Q 13.52 30.54 13.48 31.10
  Q 11.37 58.97 9.28 88.95
  Q 9.06 92.09 8.61 95.06
  A 0.30 0.30 0.0 0 0 8.92 95.40
  L 42.35 94.70
  Q 43.02 94.68 42.98 95.35
  Z"
/>
<path fill="#000000" d="
  M 99.07 75.22
  L 92.96 172.74
  A 0.47 0.46 -2.3 0 1 92.55 173.17
  Q 74.35 175.63 57.25 179.15
  Q 56.42 179.33 56.64 178.51
  Q 56.68 178.34 56.62 178.17
  Q 56.41 177.52 55.77 177.76
  L 54.37 178.28
  Q 53.79 178.49 53.83 177.87
  L 60.40 75.80
  A 0.35 0.34 -89.2 0 0 60.05 75.43
  L 30.19 76.01
  Q 29.65 76.02 29.27 75.63
  Q 28.37 74.71 27.14 75.22
  A 0.50 0.50 0.0 0 1 26.45 74.73
  L 28.12 49.03
  A 0.57 0.57 0.0 0 1 28.70 48.49
  Q 79.99 48.60 131.00 48.77
  Q 132.32 48.77 135.03 49.81
  Q 135.50 49.99 135.50 50.49
  L 135.49 73.27
  A 0.37 0.37 0.0 0 1 135.12 73.64
  L 99.79 74.52
  Q 99.11 74.54 99.07 75.22
  Z"
/>
<path fill="#000000" d="
  M 548.63 181.79
  Q 517.08 174.43 483.44 171.05
  C 474.24 170.12 465.76 166.18 461.69 157.36
  Q 460.04 153.79 459.68 146.97
  Q 457.32 102.92 455.00 64.37
  C 454.64 58.32 458.21 52.77 463.62 50.20
  Q 466.56 48.81 471.26 48.83
  Q 506.70 48.96 546.45 48.84
  Q 551.62 48.82 557.11 51.59
  C 562.35 54.24 564.68 59.08 565.12 65.04
  Q 569.15 119.36 573.13 171.37
  Q 573.51 176.24 569.95 180.34
  C 566.01 184.89 560.41 185.62 554.93 183.66
  Q 551.67 182.50 548.63 181.79
  Z
  M 499.97 147.33
  A 0.33 0.33 0.0 0 0 500.27 147.64
  L 530.97 151.21
  A 0.33 0.33 0.0 0 0 531.34 150.86
  L 526.08 75.51
  A 0.33 0.33 0.0 0 0 525.75 75.20
  L 496.31 75.20
  A 0.33 0.33 0.0 0 0 495.98 75.55
  L 499.97 147.33
  Z"
/>
<path fill="#000000" d="
  M 234.24 129.69
  L 234.17 130.00
  Q 234.09 130.34 234.42 130.42
  L 235.56 130.71
  Q 236.37 130.91 236.05 131.68
  L 228.04 150.76
  A 0.81 0.81 0.0 0 1 227.30 151.27
  Q 186.42 152.67 143.87 157.21
  A 0.47 0.47 0.0 0 1 143.40 156.53
  Q 143.59 156.18 143.10 156.00
  A 0.28 0.24 49.1 0 0 142.96 155.98
  Q 142.05 156.06 141.26 156.26
  Q 140.57 156.45 140.61 155.73
  L 146.58 57.21
  Q 146.61 56.78 147.04 56.78
  L 234.48 56.78
  A 1.05 1.04 68.2 0 1 235.24 57.11
  Q 236.28 58.18 237.96 57.67
  A 0.38 0.37 4.3 0 1 238.41 58.19
  L 229.49 76.76
  A 0.86 0.84 12.6 0 1 228.72 77.24
  L 177.52 77.24
  A 0.26 0.25 -87.5 0 0 177.27 77.48
  L 176.48 93.29
  A 0.56 0.56 0.0 0 0 177.04 93.88
  L 224.07 93.88
  Q 224.83 93.88 225.44 94.32
  Q 226.48 95.06 227.71 94.71
  A 0.61 0.60 -7.6 0 1 228.48 95.29
  L 228.48 113.50
  Q 228.48 114.00 227.99 114.01
  L 176.03 115.91
  A 0.59 0.58 -89.4 0 0 175.47 116.47
  L 174.80 131.79
  Q 174.77 132.41 175.39 132.38
  L 234.24 129.69
  Z"
/>
<path fill="#000000" d="
  M 234.24 129.69
  L 242.07 123.55
  Q 242.46 123.25 242.46 122.76
  L 243.36 57.27
  Q 243.37 56.66 243.98 56.66
  L 272.03 56.67
  Q 272.61 56.67 272.97 57.14
  Q 273.16 57.38 273.45 57.47
  C 274.06 57.65 274.72 57.45 275.36 57.52
  Q 275.84 57.57 275.84 58.05
  L 275.75 79.05
  Q 275.74 79.92 276.34 79.29
  L 296.94 57.23
  A 1.42 1.40 -68.2 0 1 297.97 56.78
  L 332.00 56.78
  Q 332.48 56.78 332.85 57.10
  Q 333.97 58.09 335.23 57.64
  Q 336.84 57.05 335.62 58.36
  L 296.87 99.84
  Q 294.66 102.20 297.44 100.55
  Q 303.57 96.93 309.07 92.41
  C 313.47 88.79 318.57 86.26 323.62 83.71
  C 326.49 82.26 328.25 79.96 330.85 78.22
  Q 338.48 73.12 345.93 68.98
  A 1.05 1.05 0.0 0 0 346.47 68.03
  L 346.18 57.31
  Q 346.17 56.78 346.69 56.78
  L 435.02 56.78
  Q 435.56 56.78 435.97 57.14
  Q 436.90 57.94 438.14 57.68
  Q 438.87 57.52 438.91 58.27
  L 443.76 156.52
  A 0.55 0.55 0.0 0 1 443.15 157.09
  Q 428.28 155.28 413.35 154.26
  Q 412.74 154.22 412.23 153.89
  Q 411.63 153.49 410.91 153.47
  L 410.24 153.46
  Q 409.55 153.44 409.53 152.74
  L 407.26 77.48
  Q 407.25 76.97 406.73 76.97
  L 379.28 76.96
  Q 379.02 76.96 379.03 77.22
  L 381.44 151.75
  A 0.26 0.25 90.0 0 1 381.18 152.02
  L 351.45 150.71
  A 1.69 1.63 62.2 0 1 350.60 150.43
  Q 349.57 149.74 348.53 149.85
  Q 347.84 149.93 347.83 149.23
  L 346.87 90.25
  A 1.60 1.58 -24.1 0 1 347.30 89.14
  Q 350.24 85.99 353.84 83.15
  Q 354.00 83.01 353.88 82.84
  L 353.87 82.83
  Q 353.75 82.66 353.57 82.78
  Q 350.26 85.01 347.79 87.24
  C 344.06 90.62 340.85 94.56 336.65 97.44
  C 331.20 101.18 324.96 102.91 319.93 107.80
  Q 317.65 110.01 314.50 111.75
  C 311.15 113.61 307.46 116.25 304.98 118.30
  Q 299.00 123.22 293.33 128.48
  Q 289.49 132.04 284.77 134.85
  Q 278.00 138.87 272.08 143.23
  Q 261.32 151.17 250.34 158.47
  Q 250.18 158.58 250.06 158.42
  L 249.91 158.22
  Q 249.91 158.21 249.94 158.18
  L 259.82 150.59
  Q 260.98 149.70 259.52 149.75
  L 246.00 150.26
  Q 245.42 150.28 245.00 149.87
  Q 244.16 149.05 242.95 149.30
  Q 242.05 149.49 242.01 148.57
  Q 241.96 147.55 242.86 147.05
  Q 251.96 141.98 260.27 136.71
  Q 262.40 135.35 264.70 133.41
  C 268.78 129.97 273.54 127.03 278.09 124.15
  C 284.93 119.83 290.83 114.51 296.49 108.87
  A 0.53 0.52 -46.2 0 1 297.20 108.85
  L 303.64 114.60
  Q 304.05 114.97 304.56 114.74
  Q 309.55 112.50 313.85 109.80
  C 315.77 108.59 316.31 106.64 318.01 105.33
  Q 324.50 100.32 332.26 97.81
  Q 333.19 97.51 333.88 96.82
  Q 339.66 91.13 346.34 86.32
  Q 346.77 86.02 346.76 85.50
  C 346.68 81.56 346.78 77.47 346.46 73.54
  C 346.19 70.17 349.62 68.63 351.87 66.82
  Q 352.57 66.26 351.70 66.48
  Q 350.81 66.70 350.07 67.31
  Q 341.85 74.03 334.08 80.40
  C 329.94 83.79 325.41 87.59 320.19 89.37
  Q 313.16 91.78 307.80 98.04
  Q 306.67 99.35 304.87 100.23
  Q 299.99 102.62 295.97 106.35
  Q 282.77 118.62 278.32 121.40
  Q 266.79 128.60 262.18 132.48
  Q 258.30 135.73 254.24 138.32
  Q 239.69 147.55 227.47 155.39
  A 0.36 0.35 55.8 0 1 226.99 155.29
  L 226.85 155.08
  Q 226.84 155.08 226.99 154.96
  L 241.87 143.12
  Q 242.29 142.79 242.29 142.25
  L 242.39 128.69
  Q 242.39 128.15 242.83 127.83
  C 254.35 119.60 266.54 111.48 277.81 102.57
  Q 280.35 100.57 282.92 97.60
  Q 285.77 94.30 290.30 92.01
  C 293.57 90.36 295.53 87.22 298.90 85.54
  Q 302.06 83.97 304.75 81.88
  Q 314.05 74.66 322.68 66.26
  Q 322.86 66.09 322.69 65.91
  L 322.52 65.72
  Q 322.48 65.68 322.43 65.72
  Q 313.51 73.52 302.36 81.49
  Q 299.84 83.30 296.90 84.80
  Q 294.18 86.20 291.70 88.81
  Q 290.16 90.44 288.03 91.47
  Q 284.12 93.36 281.41 96.33
  Q 276.92 101.26 271.88 104.88
  Q 256.88 115.68 241.31 126.79
  Q 237.98 129.17 234.24 129.69
  Z
  M 276.73 127.24
  A 0.49 0.49 0.0 0 0 275.92 127.60
  L 275.66 138.29
  A 0.49 0.49 0.0 0 0 276.45 138.69
  L 283.11 133.50
  A 0.49 0.49 0.0 0 0 283.13 132.75
  L 276.73 127.24
  Z"
/>
<path fill="#000000" d="
  M 302.09 148.68
  Q 300.97 148.57 300.16 147.84
  Q 293.33 141.69 286.82 136.26
  A 0.50 0.50 0.0 0 1 286.94 135.42
  Q 290.69 133.79 293.68 131.08
  Q 300.75 124.69 307.70 118.65
  A 0.46 0.46 0.0 0 1 308.31 118.65
  L 343.77 149.74
  Q 345.47 151.23 343.24 150.85
  Q 341.73 150.60 340.20 150.56
  Q 322.16 150.17 304.34 149.84
  Q 303.57 149.83 303.10 149.23
  Q 302.71 148.74 302.09 148.68
  Z"
/>
<path fill="#000000" d="
  M 275.43 149.46
  L 266.73 149.86
  A 0.07 0.07 0.0 0 1 266.67 149.75
  Q 267.09 149.11 267.68 148.71
  Q 271.24 146.33 274.92 143.51
  Q 276.29 142.46 276.00 144.16
  C 275.79 145.40 275.60 146.89 275.91 148.12
  Q 276.01 148.51 275.99 148.90
  Q 275.97 149.43 275.43 149.46
  Z"
/>
<path fill="#000000" d="
  M 143.63 219.74
  L 143.66 249.76
  A 0.43 0.42 90.0 0 1 143.24 250.19
  L 125.53 250.19
  A 0.41 0.41 0.0 0 1 125.12 249.78
  L 125.12 179.95
  Q 125.12 179.52 125.54 179.52
  Q 147.43 179.58 170.31 179.47
  C 176.70 179.44 180.60 183.10 180.42 189.52
  Q 180.16 198.72 180.42 208.76
  C 180.60 215.42 177.02 219.45 170.33 219.39
  Q 156.52 219.26 144.01 219.36
  A 0.38 0.38 0.0 0 0 143.63 219.74
  Z
  M 161.7624 193.8258
  A 0.33 0.33 0.0 0 0 161.4330 193.4952
  L 143.9730 193.4648
  A 0.33 0.33 0.0 0 0 143.6424 193.7942
  L 143.6176 208.0142
  A 0.33 0.33 0.0 0 0 143.9470 208.3448
  L 161.4070 208.3752
  A 0.33 0.33 0.0 0 0 161.7376 208.0458
  L 161.7624 193.8258
  Z"
/>
<path fill="#000000" d="
  M 221.35 235.81
  L 209.03 204.09
  A 0.30 0.30 0.0 0 0 208.47 204.09
  L 190.68 249.99
  A 0.30 0.30 0.0 0 1 190.41 250.18
  L 172.98 250.22
  A 0.30 0.30 0.0 0 1 172.70 249.81
  L 199.88 179.71
  A 0.30 0.30 0.0 0 1 200.16 179.52
  L 217.33 179.53
  A 0.30 0.30 0.0 0 1 217.61 179.72
  L 244.77 249.79
  A 0.30 0.30 0.0 0 1 244.49 250.20
  L 204.51 250.19
  A 0.30 0.30 0.0 0 1 204.21 249.89
  L 204.17 236.51
  A 0.30 0.30 0.0 0 1 204.47 236.21
  L 221.07 236.22
  A 0.30 0.30 0.0 0 0 221.35 235.81
  Z"
/>
<path fill="#000000" d="
  M 290.51 219.97
  L 306.77 249.74
  Q 307.02 250.20 306.49 250.20
  L 289.20 250.19
  A 1.23 1.23 0.0 0 1 288.12 249.55
  L 271.88 219.74
  Q 271.65 219.33 271.18 219.32
  L 269.09 219.32
  Q 268.50 219.32 268.50 219.91
  L 268.52 249.84
  A 0.36 0.35 -0.0 0 1 268.16 250.19
  L 250.22 250.19
  A 0.34 0.34 0.0 0 1 249.88 249.85
  L 249.88 179.82
  A 0.32 0.32 0.0 0 1 250.20 179.50
  Q 271.41 179.55 295.58 179.44
  C 300.74 179.41 305.04 182.91 305.00 188.24
  Q 304.90 199.19 305.00 210.37
  C 305.04 215.59 300.98 219.52 295.77 219.36
  Q 293.25 219.29 290.90 219.30
  Q 290.15 219.31 290.51 219.97
  Z
  M 286.70 193.74
  A 0.41 0.41 0.0 0 0 286.29 193.33
  L 268.91 193.33
  A 0.41 0.41 0.0 0 0 268.50 193.74
  L 268.50 207.84
  A 0.41 0.41 0.0 0 0 268.91 208.25
  L 286.29 208.25
  A 0.41 0.41 0.0 0 0 286.70 207.84
  L 286.70 193.74
  Z"
/>
<path fill="#000000" d="
  M 352.34 219.94
  L 368.60 249.72
  A 0.32 0.32 0.0 0 1 368.32 250.20
  L 350.70 250.19
  A 0.67 0.67 0.0 0 1 350.11 249.84
  L 333.88 220.02
  Q 333.63 219.54 333.10 219.43
  Q 332.00 219.19 330.85 219.36
  Q 330.31 219.44 330.31 219.97
  L 330.34 249.55
  Q 330.34 250.19 329.70 250.19
  L 312.34 250.19
  Q 311.73 250.19 311.73 249.59
  L 311.73 179.94
  A 0.43 0.43 0.0 0 1 312.17 179.51
  Q 333.66 179.57 358.24 179.49
  C 363.53 179.47 367.02 184.02 366.94 189.03
  Q 366.78 198.96 366.95 209.21
  C 367.01 213.13 365.81 216.38 362.28 218.27
  C 359.53 219.75 355.86 219.43 352.74 219.30
  Q 351.98 219.27 352.34 219.94
  Z
  M 348.38 193.78
  A 0.30 0.30 0.0 0 0 348.08 193.48
  L 330.48 193.48
  A 0.30 0.30 0.0 0 0 330.18 193.78
  L 330.18 208.06
  A 0.30 0.30 0.0 0 0 330.48 208.36
  L 348.08 208.36
  A 0.30 0.30 0.0 0 0 348.38 208.06
  L 348.38 193.78
  Z"
/>
<path fill="#000000" d="
  M 428.8536 241.4782
  A 8.75 8.75 0.0 0 1 420.0883 250.2130
  L 382.2684 250.1469
  A 8.75 8.75 0.0 0 1 373.5337 241.3817
  L 373.6264 188.2218
  A 8.75 8.75 0.0 0 1 382.3917 179.4870
  L 420.2116 179.5531
  A 8.75 8.75 0.0 0 1 428.9463 188.3183
  L 428.8536 241.4782
  Z
  M 410.37 193.71
  A 0.38 0.38 0.0 0 0 409.99 193.33
  L 392.61 193.33
  A 0.38 0.38 0.0 0 0 392.23 193.71
  L 392.23 235.83
  A 0.38 0.38 0.0 0 0 392.61 236.21
  L 409.99 236.21
  A 0.38 0.38 0.0 0 0 410.37 235.83
  L 410.37 193.71
  Z"
/>
<path fill="#000000" d="
  M 453.44 193.33
  L 436.08 193.32
  A 0.37 0.37 0.0 0 1 435.71 192.95
  L 435.71 179.89
  A 0.37 0.37 0.0 0 1 436.08 179.52
  L 482.68 179.52
  A 0.37 0.37 0.0 0 1 483.05 179.89
  L 483.06 192.96
  A 0.37 0.37 0.0 0 1 482.69 193.33
  L 472.77 193.33
  A 0.37 0.37 0.0 0 0 472.40 193.70
  L 472.42 249.82
  A 0.37 0.37 0.0 0 1 472.05 250.19
  L 454.15 250.19
  A 0.37 0.37 0.0 0 1 453.78 249.82
  L 453.81 193.70
  A 0.37 0.37 0.0 0 0 453.44 193.33
  Z"
/>
</svg>
