<?xml version="1.0" encoding="UTF-8" standalone="no"?>
<!DOCTYPE svg PUBLIC "-//W3C//DTD SVG 1.1//EN" "http://www.w3.org/Graphics/SVG/1.1/DTD/svg11.dtd">
<svg xmlns="http://www.w3.org/2000/svg" version="1.1" viewBox="0 0 600 300">
<path fill="#000000" d="
  M 278.28 103.53
  C 295.66 86.04 323.92 80.31 346.88 89.87
  C 388.84 107.33 398.74 161.32 367.09 192.84
  C 356.67 203.21 343.53 208.71 329.18 210.59
  C 321.04 211.66 314.39 210.27 306.11 208.25
  C 260.11 197.00 245.06 136.96 278.28 103.53
  Z
  M 367.95 148.00
  A 44.95 44.95 0.0 0 0 323.00 103.05
  A 44.95 44.95 0.0 0 0 278.05 148.00
  A 44.95 44.95 0.0 0 0 323.00 192.95
  A 44.95 44.95 0.0 0 0 367.95 148.00
  Z"
/>
<rect fill="#000000" x="-9.38" y="-58.89" transform="translate(577.55,150.63) rotate(0.2)" width="18.76" height="117.78" rx="0.34"/>
<path fill="#000000" d="
  M 100.08 166.45
  Q 101.19 167.37 101.19 165.92
  L 100.75 94.98
  A 1.42 1.39 89.8 0 1 102.14 93.55
  L 118.86 93.56
  A 0.65 0.64 -90.0 0 1 119.50 94.21
  L 119.50 206.91
  Q 119.50 207.52 119.03 207.14
  L 31.63 135.99
  Q 29.57 134.31 29.56 136.97
  L 29.44 208.18
  A 0.52 0.49 -89.5 0 1 28.94 208.70
  L 13.94 208.58
  A 0.51 0.50 90.0 0 1 13.44 208.07
  L 13.00 96.12
  Q 12.99 94.47 14.26 95.52
  L 100.08 166.45
  Z"
/>
<path fill="#000000" d="
  M 404.54 95.61
  C 425.24 119.77 445.94 143.60 466.47 167.89
  A 1.13 1.13 45.3 0 0 468.20 167.90
  L 530.84 94.17
  Q 531.50 93.39 531.50 94.42
  L 531.50 208.99
  A 0.58 0.58 -0.1 0 1 530.92 209.57
  L 512.32 209.50
  A 0.57 0.57 -0.0 0 1 511.75 208.93
  L 511.57 148.24
  Q 511.56 146.30 510.32 147.80
  L 467.28 199.90
  A 0.33 0.33 -90.0 0 1 466.78 199.90
  L 423.65 148.47
  Q 422.25 146.80 422.25 148.98
  L 422.25 209.01
  A 0.68 0.67 0.4 0 1 421.56 209.68
  L 404.69 209.49
  A 0.95 0.92 0.3 0 1 403.75 208.57
  L 403.75 95.91
  Q 403.75 94.70 404.54 95.61
  Z"
/>
<path fill="#000000" d="
  M 165.94 185.76
  L 153.18 209.10
  A 0.81 0.77 13.6 0 1 152.48 209.50
  L 133.03 209.58
  Q 132.12 209.58 132.58 208.79
  L 146.26 185.49
  Q 146.94 184.32 145.55 184.33
  L 134.34 184.46
  A 1.14 1.08 89.8 0 1 133.25 183.32
  L 133.25 168.43
  A 0.93 0.93 0.0 0 1 134.18 167.50
  L 154.54 167.50
  A 1.44 1.44 14.4 0 0 155.80 166.76
  L 195.08 95.40
  Q 195.48 94.68 195.87 95.40
  L 259.06 208.91
  A 0.45 0.44 -14.4 0 1 258.66 209.57
  L 237.66 209.57
  A 0.97 0.92 -13.1 0 1 236.81 209.07
  L 224.23 185.23
  A 1.38 1.37 75.8 0 0 223.02 184.50
  L 168.04 184.50
  A 2.43 2.38 -75.4 0 0 165.94 185.76
  Z
  M 214.28 167.07
  A 1.06 1.05 75.6 0 0 215.20 165.51
  L 195.93 130.05
  Q 195.16 128.62 194.38 130.05
  L 174.68 166.20
  A 0.71 0.71 14.2 0 0 175.31 167.25
  L 214.28 167.07
  Z"
/>
</svg>
