<?xml version="1.0" encoding="UTF-8" standalone="no"?>
<!DOCTYPE svg PUBLIC "-//W3C//DTD SVG 1.1//EN" "http://www.w3.org/Graphics/SVG/1.1/DTD/svg11.dtd">
<svg xmlns="http://www.w3.org/2000/svg" version="1.1" viewBox="0 0 600 300">
<path stroke="#846115" stroke-width="2.00" fill="none" stroke-linecap="butt" vector-effect="non-scaling-stroke" d="
  M 67.31 160.95
  L 67.55 139.57
  A 0.52 0.51 -90.0 0 1 68.06 139.05
  L 97.99 138.77
  A 2.19 2.09 16.7 0 0 99.72 137.89
  L 109.70 123.92
  Q 110.07 123.40 109.44 123.51
  L 90.52 126.86
  A 0.64 0.63 82.6 0 1 89.78 126.28
  L 88.46 110.45
  Q 88.38 109.55 87.71 110.18
  L 73.39 123.45
  A 0.42 0.41 50.0 0 1 72.78 123.39
  L 59.61 106.31
  Q 58.68 105.11 58.51 106.63
  L 56.13 127.06
  A 0.46 0.45 -79.5 0 1 55.57 127.45
  L 32.06 121.53
  Q 31.13 121.29 31.51 122.17
  L 42.02 146.09
  A 0.57 0.55 64.2 0 1 41.78 146.81
  L 27.49 154.42
  Q 27.04 154.66 27.49 154.90
  L 45.99 164.82
  A 0.54 0.54 26.3 0 1 46.23 165.52
  L 38.39 182.52
  Q 37.78 183.83 39.07 183.18
  L 62.71 171.36
  A 0.42 0.41 -19.9 0 1 63.30 171.63
  L 67.00 187.27
  Q 67.13 187.81 67.49 187.38
  L 79.54 172.46
  A 1.00 0.97 32.6 0 1 80.74 172.21
  L 99.52 181.51
  Q 100.49 181.99 100.14 180.95
  L 94.05 162.35
  A 1.24 1.23 80.8 0 0 92.88 161.50
  L 67.82 161.44
  A 0.51 0.48 0.5 0 1 67.31 160.95"
/>
<path fill="#18161a" d="
  M 25.03 197.49
  L 56.47 183.11
  A 0.90 0.87 -19.9 0 1 57.70 183.66
  L 63.35 203.88
  Q 63.59 204.72 64.12 204.04
  L 81.79 182.00
  A 1.14 1.12 -57.1 0 1 83.19 181.69
  L 113.02 196.86
  Q 114.09 197.41 113.72 196.26
  L 102.72 162.17
  A 0.83 0.61 78.2 0 0 102.08 161.59
  L 98.49 161.64
  A 0.45 0.39 79.6 0 0 98.15 162.23
  L 106.82 188.44
  Q 107.23 189.69 106.06 189.11
  L 81.84 177.17
  A 1.17 1.14 32.2 0 0 80.43 177.47
  L 65.71 195.91
  Q 65.19 196.56 65.00 195.76
  L 60.70 177.42
  A 0.45 0.44 70.1 0 0 60.07 177.12
  L 30.56 191.81
  Q 29.37 192.41 29.93 191.20
  L 40.97 167.45
  A 0.82 0.80 26.9 0 0 40.61 166.39
  L 19.55 155.18
  Q 18.56 154.65 19.56 154.13
  L 36.67 145.12
  A 0.70 0.70 63.8 0 0 36.98 144.21
  L 24.47 116.47
  Q 23.97 115.37 25.14 115.67
  L 51.86 122.65
  A 0.81 0.81 10.6 0 0 52.87 121.96
  L 55.79 96.17
  Q 55.91 95.09 56.57 95.95
  L 73.29 117.63
  A 0.45 0.45 -40.4 0 0 73.95 117.68
  L 91.19 101.78
  Q 91.75 101.27 91.80 102.02
  L 93.30 121.40
  A 0.92 0.92 -7.0 0 0 94.38 122.24
  L 118.05 118.07
  Q 118.73 117.95 118.33 118.52
  L 104.19 138.33
  Q 103.84 138.82 104.44 138.82
  L 127.20 138.75
  A 0.55 0.55 -89.2 0 1 127.75 139.30
  L 127.69 211.58
  A 0.65 0.65 -0.4 0 1 127.05 212.23
  C 106.70 212.50 86.72 212.23 66.90 212.76
  C 48.58 213.25 30.31 206.85 17.70 193.43
  C -14.96 158.70 0.18 103.82 44.25 88.25
  C 47.71 87.03 51.88 86.50 55.98 86.50
  Q 91.03 86.50 127.03 86.50
  A 0.72 0.72 0.0 0 1 127.75 87.22
  L 127.75 113.08
  A 0.67 0.67 0.0 0 1 127.08 113.75
  L 97.53 113.69
  A 1.28 1.26 88.3 0 1 96.27 112.48
  L 95.22 94.81
  Q 95.19 94.29 94.80 94.62
  L 75.02 111.39
  A 1.01 0.99 -40.3 0 1 73.61 111.29
  L 54.23 88.80
  Q 53.51 87.96 53.37 89.06
  L 49.64 116.75
  A 0.80 0.79 10.2 0 1 48.67 117.42
  L 18.74 110.50
  Q 17.98 110.32 18.27 111.04
  L 31.11 142.87
  A 0.75 0.74 65.4 0 1 30.77 143.81
  L 11.50 154.04
  Q 10.65 154.49 11.48 154.97
  L 34.71 168.16
  A 0.83 0.82 -64.7 0 1 35.07 169.17
  L 24.73 197.22
  Q 24.55 197.71 25.03 197.49
  Z
  M 67.31 160.95
  L 67.55 139.57
  A 0.52 0.51 -90.0 0 1 68.06 139.05
  L 97.99 138.77
  A 2.19 2.09 16.7 0 0 99.72 137.89
  L 109.70 123.92
  Q 110.07 123.40 109.44 123.51
  L 90.52 126.86
  A 0.64 0.63 82.6 0 1 89.78 126.28
  L 88.46 110.45
  Q 88.38 109.55 87.71 110.18
  L 73.39 123.45
  A 0.42 0.41 50.0 0 1 72.78 123.39
  L 59.61 106.31
  Q 58.68 105.11 58.51 106.63
  L 56.13 127.06
  A 0.46 0.45 -79.5 0 1 55.57 127.45
  L 32.06 121.53
  Q 31.13 121.29 31.51 122.17
  L 42.02 146.09
  A 0.57 0.55 64.2 0 1 41.78 146.81
  L 27.49 154.42
  Q 27.04 154.66 27.49 154.90
  L 45.99 164.82
  A 0.54 0.54 26.3 0 1 46.23 165.52
  L 38.39 182.52
  Q 37.78 183.83 39.07 183.18
  L 62.71 171.36
  A 0.42 0.41 -19.9 0 1 63.30 171.63
  L 67.00 187.27
  Q 67.13 187.81 67.49 187.38
  L 79.54 172.46
  A 1.00 0.97 32.6 0 1 80.74 172.21
  L 99.52 181.51
  Q 100.49 181.99 100.14 180.95
  L 94.05 162.35
  A 1.24 1.23 80.8 0 0 92.88 161.50
  L 67.82 161.44
  A 0.51 0.48 0.5 0 1 67.31 160.95
  Z"
/>
<path fill="#efac0f" d="
  M 67.82 161.44
  L 92.88 161.50
  A 1.24 1.23 80.8 0 1 94.05 162.35
  L 100.14 180.95
  Q 100.49 181.99 99.52 181.51
  L 80.74 172.21
  A 1.00 0.97 32.6 0 0 79.54 172.46
  L 67.49 187.38
  Q 67.13 187.81 67.00 187.27
  L 63.30 171.63
  A 0.42 0.41 -19.9 0 0 62.71 171.36
  L 39.07 183.18
  Q 37.78 183.83 38.39 182.52
  L 46.23 165.52
  A 0.54 0.54 26.3 0 0 45.99 164.82
  L 27.49 154.90
  Q 27.04 154.66 27.49 154.42
  L 41.78 146.81
  A 0.57 0.55 64.2 0 0 42.02 146.09
  L 31.51 122.17
  Q 31.13 121.29 32.06 121.53
  L 55.57 127.45
  A 0.46 0.45 -79.5 0 0 56.13 127.06
  L 58.51 106.63
  Q 58.68 105.11 59.61 106.31
  L 72.78 123.39
  A 0.42 0.41 50.0 0 0 73.39 123.45
  L 87.71 110.18
  Q 88.38 109.55 88.46 110.45
  L 89.78 126.28
  A 0.64 0.63 82.6 0 0 90.52 126.86
  L 109.44 123.51
  Q 110.07 123.40 109.70 123.92
  L 99.72 137.89
  A 2.19 2.09 16.7 0 1 97.99 138.77
  L 68.06 139.05
  A 0.52 0.51 90.0 0 0 67.55 139.57
  L 67.31 160.95
  A 0.51 0.48 0.5 0 0 67.82 161.44
  Z"
/>
<path fill="#18161a" d="
  M 600.00 164.31
  L 600.00 171.56
  C 595.26 200.93 575.84 214.19 546.89 213.66
  Q 529.89 213.36 512.46 213.50
  A 0.51 0.51 -0.6 0 1 511.94 212.99
  L 511.81 106.80
  A 0.81 0.80 0.0 0 1 512.62 106.00
  L 543.60 106.00
  A 0.88 0.85 0.3 0 1 544.48 106.86
  L 544.31 122.70
  A 0.54 0.52 88.0 0 0 544.87 123.24
  Q 550.49 122.85 556.25 123.02
  C 580.45 123.75 597.30 140.66 600.00 164.31
  Z
  M 544.44 150.28
  L 544.50 186.36
  A 0.79 0.77 -81.5 0 0 545.04 187.11
  C 576.93 197.17 579.44 139.99 545.35 149.09
  A 1.24 1.23 -7.7 0 0 544.44 150.28
  Z"
/>
<rect fill="#18161a" x="339.49" y="106.50" width="32.26" height="107.00" rx="0.48"/>
<path fill="#18161a" d="
  M 265.12 148.27
  A 1.11 1.06 0.3 0 0 264.00 149.33
  Q 264.00 159.37 264.00 169.25
  C 264.00 180.36 264.43 191.32 279.51 189.51
  A 1.20 1.17 -3.7 0 1 280.85 190.66
  L 280.98 212.77
  A 0.73 0.72 -0.4 0 1 280.25 213.50
  Q 268.61 213.50 257.68 213.50
  Q 247.84 213.50 244.02 211.94
  C 234.31 207.99 232.20 197.61 232.16 187.75
  Q 232.00 148.12 232.00 107.87
  A 0.87 0.87 0.0 0 1 232.87 107.00
  L 263.12 107.00
  A 0.88 0.88 0.0 0 1 264.00 107.88
  L 264.00 125.15
  A 0.85 0.85 -0.2 0 0 264.85 126.00
  L 279.69 126.00
  A 0.56 0.56 0.0 0 1 280.25 126.56
  L 280.25 147.46
  A 1.01 0.96 -89.4 0 1 279.27 148.47
  L 265.12 148.27
  Z"
/>
<path fill="#18161a" d="
  M 318.82 125.95
  L 333.58 126.00
  A 0.92 0.89 0.6 0 1 334.50 126.91
  L 334.08 147.81
  A 0.54 0.52 -89.4 0 1 333.56 148.34
  L 318.74 148.32
  A 0.53 0.50 1.1 0 0 318.21 148.80
  Q 317.70 160.45 318.16 171.78
  C 318.61 183.00 320.69 192.27 334.48 189.31
  A 0.63 0.63 83.8 0 1 335.25 189.93
  L 335.25 212.84
  A 0.66 0.66 -0.2 0 1 334.59 213.50
  Q 323.31 213.50 312.24 213.50
  Q 302.04 213.50 298.44 212.12
  C 288.33 208.25 286.24 197.08 286.25 187.18
  Q 286.29 147.44 286.19 107.81
  A 0.81 0.81 0.0 0 1 287.00 107.00
  L 316.75 107.05
  A 1.38 1.33 90.0 0 1 318.07 108.42
  L 318.28 125.43
  A 0.55 0.52 0.6 0 0 318.82 125.95
  Z"
/>
<rect fill="#18161a" x="380.74" y="107.00" width="30.76" height="13.50" rx="0.70"/>
<path fill="#18161a" d="
  M 228.67 166.63
  A 46.93 45.80 0.0 0 1 181.74 212.43
  A 46.93 45.80 0.0 0 1 134.81 166.63
  A 46.93 45.80 0.0 0 1 181.74 120.83
  A 46.93 45.80 0.0 0 1 228.67 166.63
  Z
  M 181.7552 186.7100
  A 20.18 16.82 89.9 0 0 198.5400 166.5006
  A 20.18 16.82 89.9 0 0 181.6848 146.3500
  A 20.18 16.82 89.9 0 0 164.9000 166.5594
  A 20.18 16.82 89.9 0 0 181.7552 186.7100
  Z"
/>
<path fill="#18161a" d="
  M 447.60 178.56
  C 448.40 187.13 453.63 190.42 461.76 190.59
  Q 482.58 191.02 504.25 191.00
  A 0.77 0.76 89.6 0 1 505.01 191.76
  L 505.18 212.80
  A 0.69 0.67 89.6 0 1 504.51 213.50
  Q 482.37 213.50 460.75 213.50
  Q 450.14 213.50 440.71 208.20
  C 405.58 188.44 412.32 135.81 452.06 127.06
  C 483.51 120.14 510.67 145.02 506.25 177.01
  A 1.08 1.07 -86.0 0 1 505.19 177.94
  L 448.07 178.06
  A 0.47 0.46 -2.2 0 0 447.60 178.56
  Z
  M 478.28 160.35
  C 471.66 143.91 452.16 143.08 446.10 160.43
  A 0.62 0.62 9.4 0 0 446.69 161.25
  L 477.67 161.25
  A 0.66 0.66 -10.9 0 0 478.28 160.35
  Z"
/>
<rect fill="#18161a" x="380.75" y="126.25" width="30.76" height="87.26" rx="0.59"/>
</svg>
