<?xml version="1.0" encoding="UTF-8" standalone="no"?>
<!DOCTYPE svg PUBLIC "-//W3C//DTD SVG 1.1//EN" "http://www.w3.org/Graphics/SVG/1.1/DTD/svg11.dtd">
<svg xmlns="http://www.w3.org/2000/svg" version="1.1" viewBox="0 0 600 103">
<path fill="#33cc66" d="
  M 239.32 3.63
  C 264.33 6.44 282.40 24.39 284.27 49.81
  A 0.88 0.87 87.9 0 1 283.40 50.75
  L 264.98 50.75
  A 0.76 0.75 87.5 0 1 264.23 50.06
  C 262.36 28.68 239.65 16.91 221.59 28.41
  Q 211.11 35.10 208.50 49.94
  A 0.99 0.97 -84.7 0 1 207.54 50.75
  L 189.60 50.75
  A 0.83 0.83 -88.4 0 1 188.77 49.87
  C 190.32 25.51 206.14 8.99 230.00 4.25
  Q 235.36 3.19 239.32 3.63
  Z"
/>
<path fill="#33cc66" d="
  M 138.44 25.81
  L 109.07 25.69
  A 0.52 0.51 89.4 0 1 108.56 25.18
  L 108.32 7.96
  A 0.70 0.68 89.6 0 1 109.00 7.25
  L 190.98 7.25
  A 0.72 0.70 -0.0 0 1 191.70 7.95
  L 191.58 25.07
  A 0.52 0.50 -0.0 0 1 191.06 25.57
  L 161.67 25.74
  A 0.90 0.87 -0.3 0 0 160.77 26.62
  L 160.93 49.93
  A 0.81 0.79 89.6 0 1 160.14 50.75
  L 139.48 50.75
  A 0.55 0.55 89.7 0 1 138.93 50.20
  L 138.94 26.31
  A 0.50 0.50 0.0 0 0 138.44 25.81
  Z"
/>
<path fill="#33cc66" d="
  M 302.89 7.45
  A 1.00 0.98 84.1 0 1 303.84 8.24
  L 313.50 50.27
  A 0.39 0.39 83.5 0 1 313.12 50.75
  L 294.51 50.75
  A 0.60 0.60 83.2 0 1 293.93 50.29
  L 283.89 8.27
  A 0.81 0.79 83.2 0 1 284.66 7.27
  L 302.89 7.45
  Z"
/>
<path fill="#33cc66" d="
  M 341.75 44.19
  Q 340.47 46.54 340.25 49.27
  A 1.61 1.60 -87.7 0 1 338.65 50.75
  L 321.29 50.75
  A 0.57 0.57 -83.2 0 1 320.74 50.05
  L 330.99 8.03
  A 0.76 0.74 -83.4 0 1 331.70 7.45
  L 351.19 7.30
  A 1.26 1.19 82.3 0 1 352.37 8.26
  L 362.53 49.88
  A 0.70 0.69 82.8 0 1 361.86 50.75
  L 344.70 50.75
  A 1.45 1.33 83.3 0 1 343.38 49.61
  L 342.17 44.21
  Q 342.04 43.65 341.75 44.19
  Z"
/>
<path fill="#33cc66" d="
  M 369.80 49.80
  C 373.36 36.03 376.55 22.11 379.88 8.20
  A 1.25 1.24 6.8 0 1 381.09 7.25
  L 398.93 7.25
  A 0.74 0.74 6.8 0 1 399.65 8.16
  L 389.54 49.80
  A 1.26 1.24 6.7 0 1 388.32 50.75
  L 370.54 50.75
  A 0.76 0.76 7.1 0 1 369.80 49.80
  Z"
/>
<path fill="#33cc66" d="
  M 436.94 27.80
  L 429.50 27.75
  A 0.50 0.50 0.0 0 0 429.00 28.25
  L 429.00 49.90
  A 0.85 0.85 0.2 0 1 428.15 50.75
  L 409.87 50.75
  A 0.87 0.87 0.7 0 1 409.00 49.88
  L 409.00 7.97
  A 0.52 0.52 -0.6 0 1 409.51 7.45
  Q 426.78 7.01 443.75 7.50
  C 449.40 7.66 450.95 10.24 452.97 15.37
  Q 459.78 32.70 466.57 50.04
  A 0.36 0.34 78.8 0 1 466.26 50.53
  L 447.18 50.59
  A 0.76 0.73 78.8 0 1 446.49 50.11
  L 437.61 28.28
  A 0.76 0.70 78.4 0 0 436.94 27.80
  Z"
/>
<rect fill="#33cc66" x="477.75" y="7.25" width="19.50" height="43.50" rx="0.70"/>
<path fill="#33cc66" d="
  M 519.57 49.43
  C 501.14 44.30 503.08 16.54 518.55 9.45
  Q 522.20 7.78 529.21 7.49
  C 547.89 6.73 566.81 7.25 585.52 7.25
  A 1.18 1.14 -89.8 0 1 586.66 8.44
  L 586.58 25.98
  A 0.52 0.50 -90.0 0 1 586.08 26.50
  L 528.64 26.50
  A 2.64 2.61 -76.0 0 0 526.32 27.91
  C 524.57 31.26 527.88 31.76 530.27 31.73
  C 542.21 31.61 559.47 30.86 568.19 32.60
  Q 582.17 35.39 589.55 49.83
  A 0.64 0.63 -13.4 0 1 588.98 50.75
  Q 558.62 50.75 529.00 50.72
  Q 524.19 50.71 519.57 49.43
  Z"
/>
<path fill="#33cc66" d="
  M 25.81 87.20
  L 29.93 87.30
  A 0.61 0.60 -3.9 0 1 30.52 87.80
  Q 31.10 91.65 30.57 95.50
  A 0.61 0.59 -87.0 0 1 30.01 96.02
  Q 17.60 96.56 5.19 96.08
  A 0.57 0.53 0.6 0 1 4.64 95.56
  L 4.53 88.06
  A 0.57 0.56 87.9 0 1 5.06 87.48
  L 9.44 87.17
  A 0.54 0.48 -2.6 0 0 9.94 86.69
  L 10.00 62.45
  A 0.56 0.47 2.6 0 0 9.48 61.97
  L 5.05 61.66
  A 0.61 0.56 -87.5 0 1 4.53 61.04
  L 4.65 53.44
  A 0.54 0.51 -0.0 0 1 5.19 52.93
  L 55.45 52.75
  A 0.56 0.55 90.0 0 1 56.00 53.31
  L 56.00 69.61
  A 0.85 0.81 -89.7 0 1 55.18 70.46
  L 44.44 70.34
  A 0.55 0.53 -0.5 0 1 43.89 69.82
  L 43.78 62.71
  A 0.72 0.67 89.6 0 0 43.11 62.00
  L 26.16 62.00
  A 0.66 0.66 2.3 0 0 25.50 62.66
  L 25.50 71.19
  A 0.56 0.56 90.0 0 0 26.06 71.75
  L 39.38 71.75
  A 0.87 0.87 89.3 0 1 40.25 72.62
  L 40.25 79.87
  A 0.88 0.88 2.0 0 1 39.37 80.75
  L 26.19 80.75
  A 0.95 0.92 -0.3 0 0 25.24 81.68
  L 25.30 86.68
  A 0.52 0.52 0.6 0 0 25.81 87.20
  Z"
/>
<path fill="#33cc66" d="
  M 65.93 61.32
  L 62.18 61.12
  A 0.57 0.56 1.1 0 1 61.64 60.57
  L 61.54 53.54
  A 0.82 0.78 -0.3 0 1 62.36 52.75
  L 82.18 52.81
  A 0.83 0.77 -11.9 0 1 82.91 53.25
  L 92.30 73.66
  Q 93.02 75.23 93.69 73.65
  L 102.24 53.40
  A 0.78 0.75 -78.2 0 1 102.94 52.92
  L 123.12 52.76
  A 0.65 0.63 -90.0 0 1 123.75 53.41
  L 123.75 60.59
  A 0.66 0.66 0.0 0 1 123.09 61.25
  L 118.91 61.25
  A 0.66 0.66 0.0 0 0 118.25 61.91
  L 118.31 86.19
  A 0.65 0.64 -83.2 0 0 118.80 86.82
  Q 120.63 87.25 122.48 86.76
  A 0.97 0.95 -7.7 0 1 123.71 87.67
  L 123.60 95.57
  A 0.55 0.51 -0.0 0 1 123.05 96.08
  L 100.93 96.08
  A 0.54 0.51 -0.0 0 1 100.39 95.57
  L 100.39 87.69
  A 0.65 0.63 85.9 0 1 100.93 87.05
  L 103.20 86.70
  A 0.57 0.52 -4.0 0 0 103.69 86.19
  L 103.98 74.24
  A 0.70 0.41 -89.4 0 0 103.57 73.53
  C 103.09 73.52 95.66 92.95 94.96 94.72
  A 2.22 1.88 -77.2 0 1 93.10 96.12
  L 87.81 96.04
  A 0.93 0.67 74.1 0 1 87.11 95.49
  Q 82.39 85.37 77.99 75.11
  Q 77.37 73.66 76.52 72.78
  Q 75.94 72.18 75.95 73.03
  L 76.09 85.94
  A 0.87 0.70 -80.6 0 0 76.50 86.67
  Q 78.17 87.46 80.07 86.81
  A 0.89 0.89 -9.4 0 1 81.25 87.65
  L 81.25 95.59
  A 0.65 0.64 -90.0 0 1 80.61 96.24
  L 62.18 96.08
  A 0.55 0.53 0.0 0 1 61.64 95.56
  L 61.55 88.02
  A 1.26 1.20 6.0 0 1 63.07 86.85
  Q 66.84 87.67 66.61 84.94
  C 65.98 77.45 66.51 69.37 66.44 61.80
  A 0.53 0.48 1.2 0 0 65.93 61.32
  Z"
/>
<rect fill="#33cc66" x="138.99" y="53.25" width="21.78" height="43.00" rx="0.31"/>
<path fill="#33cc66" d="
  M 226.64 77.59
  C 244.27 84.17 262.57 72.42 264.16 53.96
  A 0.79 0.78 -87.2 0 1 264.94 53.25
  L 283.34 53.25
  A 0.94 0.93 -87.2 0 1 284.27 54.28
  Q 281.40 83.17 255.69 95.44
  C 225.62 109.79 190.45 86.80 188.77 54.22
  A 0.90 0.88 88.8 0 1 189.66 53.27
  L 208.06 53.42
  A 0.61 0.58 85.4 0 1 208.64 53.94
  Q 211.32 71.87 226.64 77.59
  Z"
/>
<path fill="#33cc66" d="
  M 316.79 64.68
  A 0.57 0.54 -73.7 0 0 317.50 64.27
  L 320.04 53.92
  A 0.69 0.65 6.4 0 1 320.70 53.42
  L 338.55 53.27
  A 0.72 0.69 -83.4 0 1 339.22 54.15
  L 329.37 94.72
  A 2.00 1.97 -83.1 0 1 327.45 96.25
  L 305.94 96.25
  A 1.20 1.19 83.2 0 1 304.78 95.33
  L 294.80 53.92
  A 0.54 0.54 83.2 0 1 295.32 53.25
  L 313.45 53.25
  A 0.99 0.98 81.6 0 1 314.39 53.96
  C 314.68 54.92 316.76 64.66 316.79 64.68
  Z"
/>
<path fill="#33cc66" d="
  M 365.59 63.06
  Q 366.24 65.53 366.81 63.08
  L 368.84 54.38
  A 1.46 1.46 6.5 0 1 370.26 53.25
  L 388.08 53.25
  A 0.62 0.62 -83.0 0 1 388.68 54.02
  L 378.51 95.21
  A 1.37 1.36 -82.9 0 1 377.19 96.25
  L 355.92 96.25
  A 1.09 1.08 82.8 0 1 354.87 95.43
  L 344.41 54.13
  A 0.69 0.68 82.8 0 1 345.07 53.27
  L 362.56 53.42
  A 0.68 0.64 -6.5 0 1 363.21 53.91
  L 365.59 63.06
  Z"
/>
<rect fill="#33cc66" x="409.00" y="53.25" width="20.00" height="43.00" rx="0.52"/>
<path fill="#33cc66" d="
  M 477.93 73.94
  L 477.75 54.13
  A 0.87 0.87 89.7 0 1 478.62 53.25
  L 496.40 53.25
  A 0.85 0.85 -0.2 0 1 497.25 54.10
  L 497.25 95.38
  A 0.88 0.87 -0.3 0 1 496.38 96.25
  Q 484.25 96.37 472.00 96.06
  Q 464.46 95.88 461.70 88.98
  Q 454.83 71.77 447.65 53.84
  A 0.43 0.43 -11.0 0 1 448.05 53.25
  L 467.03 53.25
  A 1.46 1.46 80.0 0 1 468.40 54.21
  C 469.32 56.72 475.72 74.40 477.44 74.48
  A 0.54 0.47 -89.0 0 0 477.93 73.94
  Z"
/>
<path fill="#33cc66" d="
  M 563.62 75.51
  C 572.81 72.16 576.09 60.51 567.71 54.05
  Q 566.67 53.25 567.99 53.25
  L 589.87 53.25
  A 1.61 1.61 -8.2 0 1 591.41 54.40
  C 596.39 71.46 586.68 89.45 570.09 94.53
  Q 565.33 95.99 555.25 96.03
  Q 531.77 96.14 507.67 96.25
  A 1.41 1.41 -0.2 0 1 506.25 94.84
  L 506.25 77.16
  A 0.66 0.66 -0.2 0 1 506.91 76.50
  Q 530.97 76.50 554.75 76.50
  Q 560.93 76.50 563.62 75.51
  Z"
/>
</svg>
