<?xml version="1.0" encoding="UTF-8" standalone="no"?>
<!DOCTYPE svg PUBLIC "-//W3C//DTD SVG 1.1//EN" "http://www.w3.org/Graphics/SVG/1.1/DTD/svg11.dtd">
<svg xmlns="http://www.w3.org/2000/svg" version="1.1" viewBox="0 0 600 300">
<g stroke-width="2.00" fill="none" stroke-linecap="butt">
<path stroke="#a2a5a1" stroke-opacity="0.800" vector-effect="non-scaling-stroke" d="
  M 326.00 239.79
  L 320.75 239.79"
/>
<path stroke="#cad0c6" stroke-opacity="0.910" vector-effect="non-scaling-stroke" d="
  M 442.50 240.46
  Q 444.93 239.92 442.42 239.99
  C 441.54 240.02 439.45 239.35 438.60 239.18"
/>
</g>
<path fill="#53cec2" d="
  M 37.81 135.56
  L 37.75 164.71
  Q 37.74 167.75 34.72 167.75
  L 26.06 167.75
  Q 23.00 167.75 23.00 164.69
  L 23.00 64.81
  A 0.74 0.73 -2.6 0 1 23.67 64.08
  Q 44.58 62.13 64.75 62.20
  C 76.95 62.24 89.43 67.18 91.44 80.81
  Q 93.28 93.29 91.86 106.78
  C 88.79 135.95 69.46 138.59 44.00 135.46
  Q 41.17 135.12 38.32 135.07
  A 0.50 0.49 0.6 0 0 37.81 135.56
  Z
  M 76.99 87.50
  C 76.96 76.22 69.08 75.60 60.27 75.46
  Q 49.28 75.29 38.32 76.03
  A 0.54 0.54 -1.7 0 0 37.81 76.57
  L 37.75 121.08
  A 0.82 0.81 3.1 0 0 38.48 121.89
  Q 50.34 123.21 61.25 123.07
  C 67.94 122.98 74.25 120.95 75.87 113.58
  C 77.71 105.20 77.00 96.05 76.99 87.50
  Z"
/>
<path fill="#53cec2" d="
  M 265.25 77.35
  A 0.45 0.45 86.6 0 0 264.75 76.90
  L 251.50 78.50
  Q 249.26 78.77 249.00 76.00
  L 248.12 66.78
  A 0.88 0.85 83.9 0 1 248.86 65.83
  L 277.50 62.25
  Q 280.00 61.94 280.00 64.50
  Q 280.00 114.25 280.00 164.00
  C 280.00 169.75 271.50 167.75 267.74 167.75
  Q 264.99 167.75 265.00 165.01
  L 265.25 77.35
  Z"
/>
<path fill="#53cec2" d="
  M 309.00 91.75
  C 310.38 70.00 322.85 62.76 343.08 62.22
  C 351.08 62.00 360.46 62.31 367.44 65.31
  C 383.61 72.28 382.99 89.40 383.47 104.05
  Q 384.09 122.93 382.25 141.75
  Q 381.96 144.72 379.51 151.12
  C 372.78 168.72 354.41 169.71 338.50 168.50
  C 314.79 166.70 309.45 152.73 308.50 131.50
  Q 307.66 112.74 309.00 91.75
  Z
  M 328.26 80.59
  C 322.03 89.02 323.17 105.94 323.32 115.98
  C 323.46 125.78 321.91 144.61 330.20 151.57
  C 335.86 156.34 344.99 155.51 352.50 155.00
  C 366.28 154.06 367.63 142.69 368.00 131.50
  Q 368.48 117.12 368.00 99.00
  C 367.84 92.74 367.28 84.27 362.78 79.90
  C 356.84 74.14 338.32 75.30 331.99 77.74
  Q 329.71 78.62 328.26 80.59
  Z"
/>
<path fill="#53cec2" d="
  M 405.00 91.75
  C 406.39 70.00 418.84 62.76 439.08 62.22
  C 447.08 62.00 456.46 62.31 463.44 65.31
  C 479.61 72.28 478.99 89.40 479.47 104.05
  Q 480.09 122.93 478.25 141.75
  Q 477.96 144.72 475.51 151.12
  C 468.78 168.71 450.41 169.71 434.50 168.50
  C 410.79 166.70 405.45 152.74 404.50 131.50
  Q 403.66 112.75 405.00 91.75
  Z
  M 424.26 80.59
  Q 420.96 85.06 420.44 90.52
  Q 419.04 105.08 419.30 119.70
  C 419.49 130.60 419.21 138.37 422.00 145.75
  C 425.42 154.80 434.22 155.68 442.74 155.42
  C 460.25 154.89 463.44 148.46 464.00 131.50
  Q 464.48 117.12 464.00 99.00
  C 463.84 92.74 463.28 84.27 458.78 79.90
  C 452.84 74.14 434.32 75.30 427.99 77.74
  Q 425.71 78.62 424.26 80.59
  Z"
/>
<path fill="#53cec2" d="
  M 501.00 91.75
  C 502.39 70.00 514.84 62.76 535.08 62.22
  C 551.59 61.78 569.59 63.68 573.56 82.94
  C 576.63 97.82 575.70 114.05 575.25 130.50
  C 574.41 161.58 560.05 170.75 530.50 168.50
  C 506.79 166.70 501.45 152.74 500.50 131.50
  Q 499.66 112.75 501.00 91.75
  Z
  M 520.29 80.55
  C 515.74 86.64 515.48 95.36 515.42 102.65
  C 515.32 115.33 515.11 127.81 516.53 140.44
  C 518.33 156.43 532.45 155.83 544.50 155.00
  C 558.28 154.05 559.63 142.70 560.00 131.50
  Q 560.48 117.12 560.00 99.00
  C 559.84 92.74 559.28 84.27 554.78 79.90
  C 548.84 74.14 530.33 75.30 524.00 77.74
  Q 521.74 78.61 520.29 80.55
  Z"
/>
<path fill="#53cec2" d="
  M 140.71 147.22
  L 167.78 63.91
  A 0.76 0.74 7.4 0 1 168.45 63.41
  Q 173.20 63.14 177.97 63.23
  C 180.26 63.28 182.05 62.75 182.88 65.51
  A 1.76 1.38 -49.5 0 1 182.84 66.47
  L 148.85 167.21
  A 0.72 0.72 8.3 0 1 148.20 167.69
  L 134.04 168.03
  A 1.49 1.45 -10.2 0 1 132.60 167.06
  L 97.91 66.22
  A 1.28 1.08 52.2 0 1 97.95 65.30
  Q 98.45 64.27 99.34 63.55
  A 1.55 1.27 21.1 0 1 100.25 63.25
  L 112.49 63.25
  A 0.71 0.70 -9.1 0 1 113.16 63.73
  Q 125.41 100.90 137.75 137.75
  Q 138.49 139.97 140.43 147.20
  Q 140.56 147.68 140.71 147.22
  Z"
/>
<rect fill="#53cec2" x="-23.95" y="-6.54" transform="translate(213.87,123.80) rotate(0.2)" width="47.90" height="13.08" rx="2.75"/>
<path fill="#ffffff" d="
  M 326.00 239.79
  L 320.75 239.79
  C 314.94 239.81 307.40 239.19 302.78 238.17
  C 287.17 234.70 288.69 217.09 289.51 204.00
  Q 290.44 189.29 304.77 186.90
  Q 322.31 183.97 339.70 187.01
  C 349.28 188.69 352.92 195.12 352.43 204.95
  A 0.82 0.80 -88.1 0 1 351.62 205.73
  L 336.18 205.58
  A 0.54 0.50 88.8 0 1 335.68 205.06
  C 335.49 199.92 332.07 200.39 327.53 200.00
  Q 319.54 199.31 311.57 200.29
  C 308.19 200.71 306.48 202.38 306.41 205.75
  Q 306.25 212.75 306.42 219.75
  Q 306.54 224.56 311.25 225.05
  Q 318.62 225.81 326.01 225.46
  C 331.63 225.19 335.87 225.58 336.46 219.25
  A 0.55 0.53 -86.5 0 1 337.00 218.75
  L 352.94 218.80
  A 0.51 0.50 -88.9 0 1 353.43 219.32
  C 353.18 238.60 341.66 239.37 326.00 239.79
  Z"
/>
<circle fill="#53cec2" cx="30.49" cy="193.49" r="7.38"/>
<circle fill="#53cec2" cx="50.49" cy="193.49" r="7.38"/>
<circle fill="#53cec2" cx="70.49" cy="193.49" r="7.38"/>
<circle fill="#53cec2" cx="90.49" cy="193.49" r="7.38"/>
<circle fill="#53cec2" cx="110.50" cy="193.49" r="7.39"/>
<circle fill="#53cec2" cx="130.49" cy="193.49" r="7.38"/>
<circle fill="#53cec2" cx="150.49" cy="193.49" r="7.38"/>
<circle fill="#53cec2" cx="170.49" cy="193.49" r="7.38"/>
<circle fill="#53cec2" cx="190.49" cy="193.49" r="7.38"/>
<circle fill="#53cec2" cx="210.49" cy="193.49" r="7.38"/>
<circle fill="#53cec2" cx="230.49" cy="193.49" r="7.38"/>
<circle fill="#53cec2" cx="250.49" cy="193.49" r="7.38"/>
<circle fill="#53cec2" cx="270.49" cy="193.48" r="7.38"/>
<path fill="#ffffff" d="
  M 548.77 240.63
  L 537.50 240.54
  C 534.61 240.66 531.69 239.53 529.50 239.20
  C 519.51 237.72 513.21 234.19 512.25 223.00
  Q 511.30 211.92 512.10 202.74
  C 513.20 190.14 521.26 187.26 532.96 186.25
  Q 548.68 184.89 561.31 186.94
  C 573.50 188.92 575.85 198.98 576.27 210.09
  Q 576.54 217.22 575.00 225.50
  C 572.50 238.93 559.67 239.67 548.77 240.63
  Z
  M 529.38 204.27
  Q 527.74 213.34 529.47 222.45
  A 1.67 1.35 -78.7 0 0 529.91 223.29
  Q 531.81 225.09 535.00 225.25
  C 539.89 225.50 557.79 227.09 558.50 221.75
  Q 559.23 216.29 558.63 205.98
  C 558.43 202.64 557.19 200.63 553.75 200.45
  Q 543.87 199.92 534.00 200.50
  C 531.30 200.66 529.89 201.43 529.38 204.27
  Z"
/>
<path fill="#ffffff" d="
  M 454.75 240.54
  L 447.00 240.54
  L 442.50 240.46
  Q 444.93 239.92 442.42 239.99
  C 441.54 240.02 439.45 239.35 438.60 239.18
  Q 421.70 239.61 421.56 223.32
  A 0.51 0.50 -90.0 0 1 422.06 222.81
  L 437.72 222.75
  A 0.55 0.54 -88.0 0 1 438.26 223.34
  C 437.98 227.30 442.85 227.48 445.75 227.50
  Q 457.59 227.58 459.94 227.44
  C 465.35 227.11 465.60 219.49 460.75 219.25
  Q 438.11 218.13 433.50 217.75
  C 423.67 216.95 420.23 206.85 421.89 198.48
  C 424.05 187.59 433.41 186.42 442.62 186.43
  C 457.27 186.45 478.71 182.67 478.45 202.69
  A 0.51 0.50 0.6 0 1 477.94 203.18
  L 463.06 203.18
  A 1.38 0.87 -13.7 0 1 462.17 202.88
  Q 461.62 202.33 461.67 201.49
  A 1.64 0.84 -73.3 0 0 461.50 200.57
  C 459.32 197.12 446.18 198.57 442.25 198.65
  Q 436.45 198.76 437.61 203.60
  Q 438.22 206.15 440.84 206.24
  Q 454.01 206.69 466.75 207.50
  C 474.51 207.99 478.93 211.39 480.31 219.03
  C 482.26 229.90 477.40 237.92 466.29 239.26
  C 462.84 239.67 458.84 240.96 454.75 240.54
  Z"
/>
<path fill="#ffffff" d="
  M 374.95 187.57
  A 0.95 0.95 -78.1 0 1 375.82 187.00
  L 398.69 187.06
  A 0.79 0.76 77.3 0 1 399.39 187.52
  L 421.19 238.11
  A 0.46 0.46 -11.8 0 1 420.77 238.75
  L 404.29 238.75
  A 1.08 1.04 -9.7 0 1 403.29 238.07
  L 400.24 229.99
  A 0.75 0.73 79.7 0 0 399.55 229.50
  L 375.02 229.50
  A 1.18 1.05 -78.4 0 0 374.00 230.26
  L 371.02 238.11
  A 0.77 0.71 9.1 0 1 370.31 238.58
  L 353.67 238.72
  A 0.42 0.41 -78.5 0 1 353.29 238.13
  L 374.95 187.57
  Z
  M 385.02 201.05
  Q 382.00 209.18 378.67 217.89
  A 0.45 0.45 -79.6 0 0 379.09 218.50
  L 395.34 218.50
  A 0.43 0.43 79.3 0 0 395.74 217.91
  Q 392.43 209.24 389.35 200.96
  C 387.96 197.19 386.26 197.73 385.02 201.05
  Z"
/>
<rect fill="#ffffff" x="487.24" y="187.32" width="16.78" height="51.18" rx="0.31"/>
<circle fill="#53cec2" cx="30.49" cy="213.49" r="7.38"/>
<circle fill="#53cec2" cx="50.49" cy="213.49" r="7.38"/>
<circle fill="#53cec2" cx="70.49" cy="213.49" r="7.39"/>
<circle fill="#53cec2" cx="90.49" cy="213.49" r="7.38"/>
<circle fill="#53cec2" cx="110.49" cy="213.49" r="7.39"/>
<circle fill="#53cec2" cx="130.49" cy="213.49" r="7.38"/>
<circle fill="#53cec2" cx="150.49" cy="213.49" r="7.39"/>
<circle fill="#53cec2" cx="170.49" cy="213.49" r="7.38"/>
<circle fill="#53cec2" cx="190.49" cy="213.49" r="7.39"/>
<circle fill="#53cec2" cx="210.49" cy="213.49" r="7.38"/>
<circle fill="#53cec2" cx="230.49" cy="213.49" r="7.39"/>
<circle fill="#53cec2" cx="250.49" cy="213.49" r="7.38"/>
<circle fill="#53cec2" cx="270.49" cy="213.49" r="7.38"/>
<circle fill="#53cec2" cx="30.49" cy="233.48" r="7.38"/>
<circle fill="#53cec2" cx="50.49" cy="233.48" r="7.38"/>
<circle fill="#53cec2" cx="70.49" cy="233.49" r="7.39"/>
<circle fill="#53cec2" cx="90.49" cy="233.48" r="7.38"/>
<circle fill="#53cec2" cx="110.49" cy="233.49" r="7.39"/>
<circle fill="#53cec2" cx="130.49" cy="233.48" r="7.38"/>
<circle fill="#53cec2" cx="150.49" cy="233.49" r="7.39"/>
<circle fill="#53cec2" cx="170.49" cy="233.48" r="7.38"/>
<circle fill="#53cec2" cx="190.49" cy="233.49" r="7.39"/>
<circle fill="#53cec2" cx="210.49" cy="233.48" r="7.38"/>
<circle fill="#53cec2" cx="230.49" cy="233.49" r="7.39"/>
<circle fill="#53cec2" cx="250.49" cy="233.48" r="7.38"/>
<circle fill="#53cec2" cx="270.49" cy="233.48" r="7.38"/>
<path fill="#899781" fill-opacity="0.816" d="
  M 438.60 239.18
  C 439.45 239.35 441.54 240.02 442.42 239.99
  Q 444.93 239.92 442.50 240.46
  Q 440.23 240.52 438.60 239.18
  Z"
/>
<path fill="#060f04" fill-opacity="0.600" d="
  M 320.75 239.79
  L 326.00 239.79
  Q 323.38 240.94 320.75 239.79
  Z"
/>
</svg>
