<?xml version="1.0" encoding="utf-8"?>
<!-- Generator: Adobe Illustrator 21.0.2, SVG Export Plug-In . SVG Version: 6.00 Build 0)  -->
<svg version="1.1"
	 id="svg2" inkscape:version="0.91 r13725" sodipodi:docname="Capcom (Old).svg" xmlns:cc="http://creativecommons.org/ns#" xmlns:dc="http://purl.org/dc/elements/1.1/" xmlns:inkscape="http://www.inkscape.org/namespaces/inkscape" xmlns:rdf="http://www.w3.org/1999/02/22-rdf-syntax-ns#" xmlns:sodipodi="http://sodipodi.sourceforge.net/DTD/sodipodi-0.dtd" xmlns:svg="http://www.w3.org/2000/svg"
	 xmlns="http://www.w3.org/2000/svg" xmlns:xlink="http://www.w3.org/1999/xlink" x="0px" y="0px" viewBox="0 0 1000 286.8"
	 style="enable-background:new 0 0 1000 286.8;" xml:space="preserve">
<g id="g16">
	<g id="g22" transform="translate(171.0109,395.3955)">
		<path id="path24" inkscape:connector-curvature="0" d="M42.5-317.8l18-42.5l18.8,42.5H42.5z M156.6-253.6
			c-12.2,0-14.9-8.4-14.9-8.4L82.9-395.4H47.5L-9.3-259.1c0,0-2.2,5.5-13,5.5v13h50v-13c-12.7,0-8.8-8.4-8.8-8.4L34-297.7h54.2
			l14.6,32.9c0,0,4,11.2-7.2,11.2v13h61V-253.6z"/>
	</g>
	<g id="g26" transform="translate(239.1349,417.7651)">
		<path id="path28" inkscape:connector-curvature="0" d="M144.4-396h29c0,0,26.5-0.6,26.5,21.7c0,36.8-55.5,41.1-55.5,41.1V-396z
			 M144.4-312.7c0,0,92.3-9.1,92.3-63.5c0-41.7-60.5-41.6-60.5-41.6H97.7v14.4c0,0,10.6,0.2,10.6,12.3v104.5c0,0,0.3,10.6-10.6,10.6
			v13h57.8v-13c-11.4,0-11-8.4-11-8.4v-28.3H144.4z"/>
	</g>
	<g id="g30" transform="translate(660.155,395.3955)">
	</g>
	<g id="g34" transform="translate(414.5143,426.479)">
		<path id="path36" inkscape:connector-curvature="0" d="M406.6-426.5h56.3l22.9,60.5l22.6-60.5h57.1v13c-10.1,0-8.5,9.1-8.5,9.1
			l16.2,108.8c0,0,1.4,10.9,12.3,10.9v13h-60.6v-13c11,0,9.3-12.2,9.3-12.2l-12.8-82l-25.8,65.3h-30.7L440-378.9L424.1-297
			c0,0-2.3,12.3,9,12.3v13h-49.8c0,0-0.1-13,0-13c11.1,0,13-10,13-10l20.1-107.5c0,0,2.7-11.2-9.8-11.2L406.6-426.5z"/>
	</g>
	<g id="g38" transform="translate(521.9968,426.479)">
	</g>
	<g id="g42" transform="translate(373.5807,373.0254)">
		<path id="path44" inkscape:connector-curvature="0" d="M345.4-239.7c0,0-49.2,0-49.1-55.8s49.1-56.3,49.1-56.3S396-351,396-295.5
			S345.4-239.7,345.4-239.7 M345.4-373c0,0-89.1,0-88.9,77.6c0.1,77.6,88.9,77.2,88.9,77.2s89,0,89.1-77.2
			C434.7-372.7,345.4-373,345.4-373"/>
	</g>
	<g id="g46" transform="translate(145.0715,414.4512)">
		<path id="path48" inkscape:connector-curvature="0" d="M3.8-384.4l-26.9,31.2l-10.3-8.4c0,0,11.2-19.7-7.4-24.3
			c0,0-60.3-18.5-60.3,40.3c0,62,65.6,66.5,65.6,66.5c19.7,2.8,19.2-14.8,19.2-14.8h13.1c0,0,0.1,29.7,0,32s-111.3,11.2-138.6-60
			c-11.6-30.2,5.8-92.5,76.6-92.5C-19.5-414.5,3.8-384.4,3.8-384.4"/>
	</g>
	<g id="g50" transform="translate(339.029,414.4512)">
		<path id="path52" inkscape:connector-curvature="0" d="M293.8-384.4l-26.9,31.2l-10.3-8.4c0,0,11.2-19.7-7.4-24.3
			c0,0-60.3-18.5-60.3,40.3c0,62,65.6,66.5,65.6,66.5c19.7,2.8,19.2-14.8,19.2-14.8h13.1c0,0,0.1,29.7,0,32s-111.3,11.2-138.6-60
			c-11.6-30.2,5.8-92.5,76.6-92.5C270.5-414.5,293.8-384.4,293.8-384.4"/>
	</g>
	<g id="g54" transform="translate(489.0563,425.8667)">
	</g>
	<g id="g58" transform="translate(487.8835,422.5386)">
	</g>
	<g id="g62" transform="translate(580.2263,379.3906)">
	</g>
</g>
<g>
	<polygon points="330.8,231.6 354.5,231.6 342.4,197.5 	"/>
	<path d="M938,162.8H62c-34.2,0-62,27.8-62,62s27.8,62,62,62h876c34.2,0,62-27.8,62-62S972.2,162.8,938,162.8z M155.3,255.7
		c-7.3,5.6-17.1,8.5-29.1,8.5c-14.7,0-25.9-3.8-33.6-11.4c-7.7-7.6-11.5-18-11.5-31.4c0-13.4,3.8-24,11.5-31.5
		c7.6-7.6,19-11.4,34-11.4c24.9,0,38.5,10.7,40.7,32.2l-24,1.2c-0.6-12.3-6.2-18.5-16.6-18.5c-5.5,0-9.8,2-13.1,6
		c-3.2,4-4.9,11.7-4.9,23.1c0,10.2,1.5,17.3,4.5,21.1s7.4,5.8,13.4,5.8c9.5,0,15.1-5.5,16.8-16.7l24.2,1
		C166.7,242.7,162.6,250.1,155.3,255.7z M273.3,263h-64.7v-83.1h0h26.2v67.5h38.5V263z M365.3,263l-6-17.2h-33.6l-5.9,17.2h-24.1
		l35.9-83.1H358l34.1,83.1H365.3z M491.9,256.8c-7.7,5-18,7.5-30.8,7.5c-21.6,0-35.5-7.6-41.5-22.8l22.9-4.6
		c2.8,8.4,9.2,12.5,19.2,12.5c4.5,0,8.2-0.8,11.1-2.5c2.8-1.6,4.2-3.8,4.2-6.5c0-2-1-3.8-3-5.5c-2-1.6-6.5-3.3-13.6-5.1
		c-9.2-2.3-16-4.3-20.5-6.2c-4.5-1.8-8.2-4.5-11.1-7.9c-2.9-3.4-4.4-7.3-4.4-11.7c0-7.5,3.5-13.6,10.4-18.4
		c6.9-4.8,16.1-7.2,27.4-7.2c20.6,0.2,33.5,6.6,38.7,19.6l-21.7,5.8c-3.1-6.9-8.7-10.3-17-10.3c-3.9,0-6.9,0.8-9.1,2.3
		s-3.4,3.3-3.4,5.3c0,2.4,1.3,4.2,4,5.6c2.7,1.4,8.2,3.2,16.7,5.5c7.7,2,13.8,4,18.2,5.9c4.4,1.9,8,4.6,10.7,7.9s4.1,7.2,4.1,11.7
		C503.4,245.5,499.6,251.8,491.9,256.8z M609.1,256.8c-7.7,5-18,7.5-30.8,7.5c-21.6,0-35.5-7.6-41.5-22.8l22.9-4.6
		c2.8,8.4,9.2,12.5,19.2,12.5c4.5,0,8.2-0.8,11.1-2.5c2.8-1.6,4.2-3.8,4.2-6.5c0-2-1-3.8-3-5.5c-2-1.6-6.5-3.3-13.6-5.1
		c-9.2-2.3-16-4.3-20.5-6.2c-4.5-1.8-8.2-4.5-11.1-7.9c-2.9-3.4-4.4-7.3-4.4-11.7c0-7.5,3.5-13.6,10.4-18.4s16.1-7.2,27.4-7.2
		c20.6,0.2,33.5,6.6,38.7,19.6l-21.7,5.8c-3.1-6.9-8.8-10.3-17-10.3c-3.8,0-6.9,0.8-9.1,2.3c-2.2,1.5-3.4,3.3-3.4,5.3
		c0,2.4,1.3,4.2,4,5.6c2.7,1.4,8.2,3.2,16.7,5.5c7.7,2,13.8,4,18.2,5.9c4.4,1.9,8,4.6,10.7,7.9s4.1,7.2,4.1,11.7
		C620.6,245.5,616.8,251.8,609.1,256.8z M688.5,263h-26.2v-83.1h26.2V263z M806.7,255.7c-7.3,5.6-17.1,8.5-29.1,8.5
		c-14.7,0-25.9-3.8-33.6-11.4c-7.7-7.6-11.5-18-11.5-31.4c0-13.4,3.8-24,11.5-31.5c7.6-7.6,19-11.4,34-11.4
		c24.9,0,38.5,10.7,40.7,32.2l-24,1.2c-0.6-12.3-6.2-18.5-16.6-18.5c-5.5,0-9.8,2-13.1,6c-3.2,4-4.9,11.7-4.9,23.1
		c0,10.2,1.5,17.3,4.5,21.1s7.4,5.8,13.4,5.8c9.5,0,15.1-5.5,16.8-16.7l24.2,1C818.1,242.7,814,250.1,806.7,255.7z M924.1,256.8
		c-7.7,5-18,7.5-30.8,7.5c-21.6,0-35.5-7.6-41.5-22.8l22.9-4.6c2.8,8.4,9.2,12.5,19.2,12.5c4.5,0,8.2-0.8,11.1-2.5
		c2.8-1.6,4.2-3.8,4.2-6.5c0-2-1-3.8-3-5.5c-2-1.6-6.5-3.3-13.6-5.1c-9.2-2.3-16-4.3-20.5-6.2c-4.5-1.8-8.2-4.5-11.1-7.9
		c-2.9-3.4-4.4-7.3-4.4-11.7c0-7.5,3.5-13.6,10.4-18.4s16.1-7.2,27.4-7.2c20.6,0.2,33.6,6.6,38.7,19.6l-21.7,5.8
		c-3.1-6.9-8.8-10.3-17-10.3c-3.8,0-6.9,0.8-9.1,2.3c-2.2,1.5-3.4,3.3-3.4,5.3c0,2.4,1.3,4.2,4,5.6c2.7,1.4,8.2,3.2,16.7,5.5
		c7.7,2,13.8,4,18.2,5.9c4.4,1.9,8,4.6,10.7,7.9s4.1,7.2,4.1,11.7C935.6,245.5,931.8,251.8,924.1,256.8z"/>
</g>
</svg>
