<?xml version="1.0" encoding="UTF-8" standalone="no"?>
<!DOCTYPE svg PUBLIC "-//W3C//DTD SVG 1.1//EN" "http://www.w3.org/Graphics/SVG/1.1/DTD/svg11.dtd">
<svg xmlns="http://www.w3.org/2000/svg" version="1.1" viewBox="0 0 600 300">
<path fill="#000000" d="
  M 599.93 110.33
  L 600.00 188.56
  C 598.35 220.04 570.66 219.16 547.50 219.15
  Q 297.37 219.00 47.25 219.00
  C 24.58 219.00 1.22 217.67 0.00 188.69
  L 0.00 110.44
  C 1.41 84.50 20.75 79.99 43.00 79.99
  Q 298.00 80.00 553.00 80.00
  C 575.36 80.00 599.32 81.77 599.93 110.33
  Z
  M 15.66 109.82
  Q 15.25 111.73 15.25 113.68
  Q 15.25 145.04 15.25 176.76
  C 15.25 187.51 14.56 195.66 23.08 201.10
  C 31.41 206.42 46.43 205.75 57.75 205.75
  Q 298.26 205.75 538.78 205.75
  C 549.82 205.75 560.93 206.03 571.00 204.00
  C 582.60 201.66 585.44 193.27 585.58 182.27
  Q 586.02 149.04 585.57 115.81
  C 585.43 104.76 581.21 96.92 569.25 95.25
  C 557.30 93.58 544.94 93.75 532.37 93.75
  Q 292.43 93.75 52.50 93.58
  Q 44.08 93.58 32.00 95.00
  Q 18.50 96.59 15.66 109.82
  Z"
/>
<path fill="#000000" d="
  M 248.96 165.93
  L 292.87 165.76
  A 0.86 0.85 0.0 0 1 293.73 166.61
  L 293.58 183.32
  A 0.52 0.50 -0.0 0 1 293.06 183.82
  L 228.01 183.80
  A 1.02 1.01 90.0 0 1 227.00 182.78
  L 227.00 115.76
  A 0.72 0.69 -0.0 0 1 227.72 115.07
  L 247.51 115.08
  A 0.74 0.71 -0.0 0 1 248.25 115.79
  L 248.25 165.23
  A 0.70 0.70 -0.4 0 0 248.96 165.93
  Z"
/>
<path fill="#000000" d="
  M 299.69 115.67
  A 0.60 0.59 -89.5 0 1 300.29 115.07
  Q 336.16 115.53 373.78 114.98
  A 0.90 0.88 -0.6 0 1 374.70 115.86
  L 374.70 130.69
  A 0.52 0.50 -0.6 0 1 374.19 131.19
  L 320.69 131.43
  A 0.54 0.50 -0.0 0 0 320.15 131.93
  L 320.14 141.57
  A 0.55 0.50 0.0 0 0 320.69 142.07
  L 370.35 142.25
  A 0.90 0.89 -0.0 0 1 371.25 143.14
  L 371.25 155.73
  A 0.79 0.78 -0.4 0 1 370.47 156.51
  L 320.69 156.68
  A 0.54 0.49 0.0 0 0 320.15 157.17
  L 320.14 167.05
  A 0.54 0.52 0.0 0 0 320.68 167.57
  L 374.23 167.75
  A 0.52 0.51 -0.0 0 1 374.75 168.26
  L 374.75 183.04
  A 0.96 0.95 -90.0 0 1 373.80 184.00
  L 300.59 183.80
  A 1.04 1.02 -90.0 0 1 299.57 182.76
  L 299.69 115.67
  Z"
/>
<path fill="#000000" d="
  M 470.58 142.74
  C 471.33 123.49 477.40 117.83 496.25 115.75
  Q 503.98 114.90 527.56 115.21
  C 538.33 115.35 554.09 114.52 560.28 124.94
  C 566.14 134.80 564.69 154.34 563.25 166.00
  C 560.70 186.71 541.01 185.59 525.25 185.96
  C 514.22 186.22 498.74 186.99 487.25 184.75
  C 476.67 182.69 472.39 174.86 471.32 164.74
  Q 470.16 153.77 470.58 142.74
  Z
  M 495.39 136.71
  Q 493.39 138.77 493.03 140.26
  C 491.22 147.97 489.07 166.19 500.25 167.75
  Q 516.22 169.98 534.72 167.53
  C 544.42 166.24 543.63 155.47 543.19 148.34
  C 542.75 141.19 541.89 135.29 534.00 134.25
  Q 525.28 133.10 513.95 133.58
  C 508.93 133.80 502.65 133.45 497.38 135.42
  Q 496.24 135.84 495.39 136.71
  Z"
/>
<path fill="#000000" d="
  M 71.34 169.03
  C 79.68 168.67 89.40 169.61 95.75 168.00
  Q 100.89 166.69 101.08 160.81
  A 1.30 1.29 -89.3 0 1 102.36 159.55
  L 119.76 159.50
  A 0.96 0.95 89.1 0 1 120.71 160.43
  C 121.07 170.33 121.45 182.54 108.75 184.75
  C 91.63 187.72 71.90 186.92 57.06 186.19
  C 35.39 185.12 35.09 168.94 35.10 152.04
  C 35.11 138.77 33.87 120.18 51.75 117.75
  Q 64.13 116.07 71.75 116.14
  C 84.08 116.27 98.98 114.91 110.50 118.50
  C 120.02 121.46 120.78 133.12 120.74 141.49
  A 0.76 0.76 0.0 0 1 119.98 142.25
  L 102.10 142.25
  A 1.17 1.16 84.6 0 1 100.96 141.30
  C 99.56 133.60 91.38 133.43 85.25 133.45
  Q 71.32 133.50 66.25 134.25
  C 53.72 136.10 56.72 148.95 56.37 157.93
  C 55.96 168.50 63.25 169.37 71.34 169.03
  Z"
/>
<path fill="#000000" d="
  M 181.55 116.21
  C 195.48 116.34 215.74 114.18 218.31 133.58
  Q 219.44 142.15 219.25 155.25
  C 218.99 172.65 217.09 186.94 195.75 186.67
  C 180.60 186.48 164.49 187.45 149.56 185.00
  C 131.93 182.11 129.19 175.51 127.96 159.26
  Q 126.85 144.57 129.50 132.00
  C 132.34 118.53 148.38 116.61 160.50 116.34
  Q 171.02 116.12 181.55 116.21
  Z
  M 199.57 151.64
  C 199.57 143.82 199.84 134.74 189.25 134.03
  Q 177.69 133.26 166.12 133.68
  C 158.38 133.97 149.14 133.55 148.50 144.00
  C 147.92 153.39 145.63 167.44 159.50 168.25
  Q 175.57 169.19 188.56 168.06
  C 199.08 167.15 199.57 160.80 199.57 151.64
  Z"
/>
<path fill="#000000" d="
  M 378.71 144.32
  C 379.17 133.06 380.58 121.19 393.81 118.08
  C 407.25 114.92 422.72 116.25 436.50 116.23
  C 456.46 116.20 465.74 119.81 464.71 141.68
  A 0.53 0.52 -88.9 0 1 464.19 142.19
  L 446.12 142.25
  A 1.13 1.11 81.6 0 1 445.05 141.44
  C 442.29 131.81 430.03 133.13 421.59 133.57
  C 416.09 133.86 406.77 132.97 402.84 137.85
  C 399.68 141.76 399.89 157.41 400.82 161.73
  C 402.54 169.69 409.34 169.02 416.77 169.03
  Q 425.26 169.05 433.75 168.73
  C 439.72 168.50 445.07 167.47 445.42 160.19
  A 0.55 0.53 -88.3 0 1 445.95 159.67
  L 463.83 159.52
  A 0.87 0.85 88.3 0 1 464.69 160.35
  C 465.41 174.49 464.07 184.43 447.19 185.65
  Q 430.35 186.88 413.46 186.57
  C 401.83 186.35 383.31 187.52 380.50 172.25
  Q 378.09 159.17 378.71 144.32
  Z"
/>
</svg>
