<?xml version="1.0" encoding="UTF-8" standalone="no"?>
<!DOCTYPE svg PUBLIC "-//W3C//DTD SVG 1.1//EN" "http://www.w3.org/Graphics/SVG/1.1/DTD/svg11.dtd">
<svg xmlns="http://www.w3.org/2000/svg" version="1.1" viewBox="0 0 600 263">
<g stroke-width="2.00" fill="none" stroke-linecap="butt">
<path stroke="#0d0e0e" vector-effect="non-scaling-stroke" d="
  M 192.75 194.79
  C 224.83 197.01 251.56 174.08 249.76 141.13
  Q 249.64 139.00 247.52 139.00
  L 145.25 139.00
  A 1.40 0.86 13.3 0 0 144.35 139.30
  L 142.55 141.10
  A 1.14 0.78 68.7 0 0 142.34 142.00
  C 142.93 145.46 142.86 149.32 143.41 152.31
  C 147.88 176.55 168.54 193.12 192.75 194.79"
/>
<path stroke="#8d8d8d" vector-effect="non-scaling-stroke" d="
  M 457.90 142.27
  Q 405.76 141.60 353.83 142.26"
/>
<path stroke="#0d0e0e" vector-effect="non-scaling-stroke" d="
  M 353.83 142.26
  C 352.55 141.55 351.96 141.98 352.03 143.37
  Q 353.93 178.84 383.88 191.65
  C 418.50 206.47 458.23 185.36 459.29 146.11
  Q 459.31 145.44 459.75 144.11
  Q 460.38 142.22 457.90 142.27"
/>
<path stroke="#808080" vector-effect="non-scaling-stroke" d="
  M 353.83 142.26
  C 353.42 211.81 459.48 212.40 457.90 142.27"
/>
<path stroke="#808080" vector-effect="non-scaling-stroke" d="
  M 247.87 140.69
  L 144.76 140.50
  A 0.58 0.58 -89.9 0 0 144.18 141.08
  Q 144.33 169.54 165.35 183.80
  C 185.12 197.20 213.72 196.79 232.03 180.84
  Q 248.71 166.31 248.49 141.31
  A 0.62 0.62 0.0 0 0 247.87 140.69"
/>
</g>
<path fill="#ff0000" d="
  M 413.56 0.00
  L 415.81 0.00
  Q 429.53 1.45 435.10 14.23
  A 1.05 1.01 -21.6 0 1 434.48 15.60
  L 428.31 17.82
  A 0.89 0.85 -21.6 0 1 427.21 17.37
  C 423.57 9.01 414.41 5.96 407.05 11.27
  C 399.98 16.37 398.99 27.99 407.06 32.94
  C 412.40 36.21 418.45 36.74 424.49 39.02
  C 450.18 48.70 444.37 89.29 414.97 88.62
  Q 396.75 88.21 390.40 68.93
  A 1.28 1.26 -19.4 0 1 391.17 67.35
  L 398.06 64.73
  A 0.42 0.41 -15.7 0 1 398.62 65.04
  C 400.38 74.77 408.19 81.72 418.25 80.00
  C 432.68 77.53 436.88 58.08 424.92 49.54
  C 417.78 44.44 408.58 45.64 401.22 40.20
  C 393.12 34.21 390.69 24.22 394.07 14.82
  Q 398.58 2.25 413.56 0.00
  Z"
/>
<path fill="#ff0000" d="
  M 24.50 0.21
  C 43.08 2.77 51.64 24.26 36.88 37.41
  A 0.36 0.36 -51.5 0 0 36.94 37.99
  Q 48.79 44.46 50.63 56.45
  C 53.69 76.49 38.94 86.54 20.67 87.30
  C 15.67 87.50 6.73 87.41 0.00 86.94
  L -0.06 19.93
  Q 3.83 -0.07 24.50 0.21
  Z
  M 23.12 9.34
  C 17.38 8.69 11.74 12.23 10.04 17.91
  C 8.56 22.86 9.20 30.53 9.41 34.82
  A 0.57 0.55 1.2 0 0 9.93 35.35
  C 17.04 35.82 26.36 36.52 31.28 31.68
  C 39.62 23.48 34.21 10.60 23.12 9.34
  Z
  M 16.47 78.61
  C 27.59 78.86 39.83 77.30 41.71 64.29
  C 43.12 54.46 37.70 45.54 27.38 44.36
  C 23.06 43.87 15.36 44.10 9.82 44.52
  A 0.55 0.54 -2.3 0 0 9.31 45.06
  L 9.31 77.93
  A 0.64 0.61 -84.5 0 0 9.80 78.55
  C 12.03 79.01 14.97 78.57 16.47 78.61
  Z"
/>
<path fill="#ff0000" d="
  M 111.69 54.06
  L 70.63 54.00
  A 0.88 0.88 89.3 0 0 69.75 54.88
  L 69.75 85.65
  A 0.80 0.76 -89.6 0 1 68.98 86.45
  L 61.19 86.36
  A 0.56 0.52 90.0 0 1 60.68 85.81
  Q 60.42 64.85 60.46 43.88
  Q 60.50 28.56 61.32 24.66
  C 64.27 10.68 75.71 1.28 89.84 0.31
  C 104.67 -0.70 118.50 10.82 121.06 25.78
  Q 121.50 28.36 121.49 39.75
  Q 121.47 62.45 121.57 85.78
  A 0.73 0.72 -0.4 0 1 120.85 86.50
  L 113.10 86.57
  A 0.84 0.83 -0.3 0 1 112.25 85.74
  L 112.19 54.56
  A 0.50 0.50 0.0 0 0 111.69 54.06
  Z
  M 111.63 25.87
  C 108.20 10.56 90.21 3.07 77.81 14.07
  C 68.95 21.94 69.42 32.07 69.79 42.81
  A 1.49 1.48 -0.8 0 0 71.28 44.25
  L 111.48 44.25
  A 0.71 0.71 -89.6 0 0 112.19 43.55
  C 112.28 37.86 112.73 30.81 111.63 25.87
  Z"
/>
<path fill="#ff0000" d="
  M 183.35 22.56
  C 173.67 -1.19 142.86 7.94 142.79 32.50
  Q 142.70 58.84 142.82 85.86
  A 0.64 0.64 89.8 0 1 142.18 86.50
  L 134.02 86.50
  A 0.52 0.52 -0.0 0 1 133.50 85.98
  Q 133.50 62.31 133.50 38.98
  Q 133.50 26.57 135.05 21.69
  C 142.53 -1.89 173.13 -7.63 188.24 12.60
  C 194.76 21.32 194.50 28.99 194.50 41.43
  Q 194.50 63.59 194.50 85.75
  A 0.56 0.51 90.0 0 1 193.99 86.31
  L 185.75 86.31
  A 0.56 0.50 -90.0 0 1 185.25 85.75
  Q 185.25 60.50 185.25 35.25
  Q 185.25 27.21 183.35 22.56
  Z"
/>
<path fill="#ff0000" d="
  M 301.62 51.96
  L 329.50 86.70
  Q 329.95 87.25 329.24 87.25
  L 319.00 87.25
  A 1.98 1.96 -19.0 0 1 317.45 86.50
  L 286.34 46.93
  Q 285.43 45.78 285.43 47.24
  L 285.50 86.82
  A 0.51 0.50 -0.0 0 1 284.99 87.32
  L 276.70 87.26
  A 0.52 0.50 1.1 0 1 276.19 86.75
  Q 276.30 55.97 276.39 25.75
  C 276.46 3.73 303.53 -8.48 319.55 6.99
  C 336.68 23.53 325.65 51.64 301.82 51.57
  Q 301.31 51.57 301.62 51.96
  Z
  M 319.12 26.05
  A 17.26 17.26 0.0 0 0 301.86 8.79
  A 17.26 17.26 0.0 0 0 284.60 26.05
  A 17.26 17.26 0.0 0 0 301.86 43.31
  A 17.26 17.26 0.0 0 0 319.12 26.05
  Z"
/>
<path fill="#ff0000" d="
  M 600.00 43.81
  L 600.00 46.56
  Q 597.51 72.54 576.65 83.58
  C 552.83 96.18 523.65 84.52 514.31 59.94
  C 499.68 21.39 541.39 -13.00 576.88 5.96
  Q 598.03 17.26 600.00 43.81
  Z
  M 575.1957 74.3973
  A 35.41 34.93 57.0 0 0 585.2048 25.6758
  A 35.41 34.93 57.0 0 0 536.6243 15.0027
  A 35.41 34.93 57.0 0 0 526.6152 63.7242
  A 35.41 34.93 57.0 0 0 575.1957 74.3973
  Z"
/>
<path fill="#ff0000" d="
  M 214.57 53.37
  L 214.74 86.26
  A 0.99 0.98 -0.3 0 1 213.75 87.25
  L 206.14 87.25
  A 0.89 0.89 -89.7 0 1 205.25 86.35
  C 205.30 68.81 205.28 54.83 205.50 31.50
  Q 205.60 20.64 211.30 13.02
  C 222.17 -1.50 243.81 -3.43 256.72 9.30
  C 284.86 37.06 244.93 79.37 215.17 53.09
  Q 214.56 52.56 214.57 53.37
  Z
  M 257.05 30.99
  A 21.39 21.39 0.0 0 0 235.66 9.60
  A 21.39 21.39 0.0 0 0 214.27 30.99
  A 21.39 21.39 0.0 0 0 235.66 52.38
  A 21.39 21.39 0.0 0 0 257.05 30.99
  Z"
/>
<path fill="#ff0000" d="
  M 348.56 12.06
  L 348.50 36.58
  A 0.67 0.67 -0.2 0 0 349.17 37.25
  L 374.10 37.25
  A 0.71 0.68 89.6 0 1 374.78 37.95
  L 374.90 45.47
  A 1.02 0.95 89.7 0 1 373.95 46.50
  L 349.02 46.50
  A 0.52 0.52 90.0 0 0 348.50 47.02
  L 348.50 77.12
  A 0.88 0.88 0.0 0 0 349.38 78.00
  L 378.70 78.00
  A 0.56 0.55 90.0 0 1 379.25 78.56
  L 379.30 86.56
  A 0.51 0.50 -90.0 0 1 378.80 87.07
  L 339.81 87.19
  A 0.49 0.49 -0.6 0 1 339.31 86.70
  L 339.25 2.70
  A 0.51 0.51 0.6 0 1 339.77 2.19
  L 375.69 2.25
  A 0.53 0.50 0.5 0 1 376.22 2.76
  L 376.10 10.82
  A 0.54 0.51 0.5 0 1 375.56 11.32
  L 349.06 11.56
  A 0.51 0.50 -0.6 0 0 348.56 12.06
  Z"
/>
<path fill="#ff0000" d="
  M 480.81 11.82
  L 480.75 86.11
  A 1.09 1.04 -89.7 0 1 479.70 87.20
  L 471.94 87.11
  A 0.55 0.52 -89.5 0 1 471.43 86.56
  L 471.32 12.19
  A 0.94 0.93 -90.0 0 0 470.39 11.25
  L 452.13 11.25
  A 0.67 0.65 89.6 0 1 451.48 10.59
  L 451.40 2.96
  A 0.71 0.68 -90.0 0 1 452.08 2.25
  L 499.90 2.25
  A 0.85 0.85 -0.2 0 1 500.75 3.10
  L 500.75 10.67
  A 0.80 0.77 -0.0 0 1 499.95 11.44
  L 481.32 11.30
  A 0.52 0.51 90.0 0 0 480.81 11.82
  Z"
/>
<path fill="#1a1a1a" d="
  M 49.89 107.68
  C 219.44 108.14 388.20 109.03 558.41 109.51
  A 1.03 1.03 0.1 0 1 559.44 110.54
  L 559.50 173.25
  A 1.26 1.25 -12.6 0 1 558.77 174.39
  L 369.28 262.63
  A 1.09 1.07 -32.0 0 1 368.01 262.35
  C 356.88 249.19 347.12 235.27 335.35 222.65
  C 329.67 216.57 321.60 210.01 314.66 206.96
  C 295.03 198.34 278.04 215.97 265.88 230.12
  Q 252.77 245.38 238.70 261.27
  A 1.31 1.31 -56.7 0 1 237.16 261.59
  L 49.52 172.16
  A 0.81 0.79 13.0 0 1 49.06 171.44
  L 49.00 108.57
  A 0.89 0.89 -1.6 0 1 49.89 107.68
  Z
  M 192.75 194.79
  C 224.83 197.01 251.56 174.08 249.76 141.13
  Q 249.64 139.00 247.52 139.00
  L 145.25 139.00
  A 1.40 0.86 13.3 0 0 144.35 139.30
  L 142.55 141.10
  A 1.14 0.78 68.7 0 0 142.34 142.00
  C 142.93 145.46 142.86 149.32 143.41 152.31
  C 147.88 176.55 168.54 193.12 192.75 194.79
  Z
  M 457.90 142.27
  Q 405.76 141.60 353.83 142.26
  C 352.55 141.55 351.96 141.98 352.03 143.37
  Q 353.93 178.84 383.88 191.65
  C 418.50 206.47 458.23 185.36 459.29 146.11
  Q 459.31 145.44 459.75 144.11
  Q 460.38 142.22 457.90 142.27
  Z"
/>
<path fill="#000101" d="
  M 249.76 141.13
  C 251.56 174.08 224.83 197.01 192.75 194.79
  C 168.54 193.12 147.88 176.55 143.41 152.31
  C 142.86 149.32 142.93 145.46 142.34 142.00
  A 1.14 0.78 68.7 0 1 142.55 141.10
  L 144.35 139.30
  A 1.40 0.86 13.3 0 1 145.25 139.00
  L 247.52 139.00
  Q 249.64 139.00 249.76 141.13
  Z
  M 247.87 140.69
  L 144.76 140.50
  A 0.58 0.58 -89.9 0 0 144.18 141.08
  Q 144.33 169.54 165.35 183.80
  C 185.12 197.20 213.72 196.79 232.03 180.84
  Q 248.71 166.31 248.49 141.31
  A 0.62 0.62 0.0 0 0 247.87 140.69
  Z"
/>
<path fill="#ffffff" d="
  M 247.87 140.69
  A 0.62 0.62 0.0 0 1 248.49 141.31
  Q 248.71 166.31 232.03 180.84
  C 213.72 196.79 185.12 197.20 165.35 183.80
  Q 144.33 169.54 144.18 141.08
  A 0.58 0.58 -89.7 0 1 144.76 140.50
  L 247.87 140.69
  Z"
/>
<path fill="#000101" d="
  M 353.83 142.26
  C 353.42 211.81 459.48 212.40 457.90 142.27
  Q 460.38 142.22 459.75 144.11
  Q 459.31 145.44 459.29 146.11
  C 458.23 185.36 418.50 206.47 383.88 191.65
  Q 353.93 178.84 352.03 143.37
  C 351.96 141.98 352.55 141.55 353.83 142.26
  Z"
/>
<path fill="#ffffff" d="
  M 457.90 142.27
  C 459.48 212.40 353.42 211.81 353.83 142.26
  Q 405.76 141.60 457.90 142.27
  Z"
/>
</svg>
