<?xml version="1.0" encoding="UTF-8" standalone="no"?>
<!DOCTYPE svg PUBLIC "-//W3C//DTD SVG 1.1//EN" "http://www.w3.org/Graphics/SVG/1.1/DTD/svg11.dtd">
<svg xmlns="http://www.w3.org/2000/svg" version="1.1" viewBox="0 0 600 100">
<g stroke-width="2.00" fill="none" stroke-linecap="butt">
<path stroke="#bbb9b7" stroke-opacity="0.843" vector-effect="non-scaling-stroke" d="
  M 92.29 29.50
  Q 93.66 29.84 93.71 28.50"
/>
<path stroke="#bebdbc" vector-effect="non-scaling-stroke" d="
  M 102.54 19.50
  Q 103.51 19.40 103.50 18.54"
/>
<path stroke="#c6c6c4" vector-effect="non-scaling-stroke" d="
  M 146.04 20.25
  Q 146.28 21.53 147.50 21.71"
/>
<path stroke="#c6c6c4" vector-effect="non-scaling-stroke" d="
  M 152.04 26.50
  Q 152.47 27.59 153.50 27.71"
/>
<path stroke="#bbb9b7" stroke-opacity="0.843" vector-effect="non-scaling-stroke" d="
  M 154.75 28.54
  Q 154.11 29.85 155.07 29.87
  A 0.58 0.56 -87.9 0 0 155.64 29.32
  L 155.71 28.25"
/>
<path stroke="#c6c6c4" vector-effect="non-scaling-stroke" d="
  M 280.25 26.54
  Q 280.34 27.70 281.50 27.71"
/>
<path stroke="#bbb9b7" stroke-opacity="0.843" vector-effect="non-scaling-stroke" d="
  M 282.54 28.50
  Q 283.46 31.70 283.71 28.25"
/>
<path stroke="#bbb9b7" stroke-opacity="0.843" vector-effect="non-scaling-stroke" d="
  M 350.04 28.00
  Q 351.27 27.58 351.71 26.50"
/>
<path stroke="#bbb9b7" stroke-opacity="0.843" vector-effect="non-scaling-stroke" d="
  M 352.54 25.50
  Q 353.59 25.53 353.71 24.50"
/>
<path stroke="#ffffff" vector-effect="non-scaling-stroke" d="
  M 356.25 21.96
  Q 358.58 22.33 358.21 20.00"
/>
<path stroke="#bfc3bf" stroke-opacity="0.929" vector-effect="non-scaling-stroke" d="
  M 409.71 72.00
  Q 408.25 72.29 408.04 73.75"
/>
<path stroke="#bfc3bf" stroke-opacity="0.929" vector-effect="non-scaling-stroke" d="
  M 407.71 74.25
  Q 406.24 74.14 406.25 75.71"
/>
<path stroke="#bfc3bf" stroke-opacity="0.929" vector-effect="non-scaling-stroke" d="
  M 405.75 76.04
  Q 404.37 76.59 403.75 77.96"
/>
<path stroke="#bbb9b7" stroke-opacity="0.843" vector-effect="non-scaling-stroke" d="
  M 403.46 78.25
  Q 402.39 78.72 401.79 79.75"
/>
<path stroke="#bfc3bf" stroke-opacity="0.929" vector-effect="non-scaling-stroke" d="
  M 401.46 80.25
  Q 400.36 80.27 400.25 81.46"
/>
<path stroke="#c6c6c4" vector-effect="non-scaling-stroke" d="
  M 199.50 81.46
  Q 198.59 79.17 196.29 78.25"
/>
<path stroke="#ff7a00" vector-effect="non-scaling-stroke" d="
  M 571.96 31.00
  L 571.29 35.85
  Q 571.21 36.44 570.81 35.96
  C 568.48 33.16 566.20 35.30 563.25 34.96"
/>
<path stroke="#915311" vector-effect="non-scaling-stroke" d="
  M 563.25 34.96
  C 564.20 32.62 564.07 30.43 564.13 27.96
  C 564.20 25.30 561.82 26.02 560.10 25.97
  Q 554.20 25.82 548.31 26.27
  A 1.40 1.26 17.7 0 0 547.45 26.66
  L 540.88 33.28
  A 1.23 1.13 -43.7 0 1 539.17 33.31
  L 533.62 27.20
  A 2.93 2.10 63.0 0 0 531.78 26.25
  L 517.21 26.02
  A 1.37 1.14 -87.5 0 0 516.04 27.31
  L 515.73 32.51"
/>
<path stroke="#ff7a00" vector-effect="non-scaling-stroke" d="
  M 515.73 32.51
  Q 509.01 32.24 501.75 32.19
  C 500.89 32.19 499.96 31.47 500.04 33.25"
/>
<path stroke="#915311" vector-effect="non-scaling-stroke" d="
  M 500.04 33.25
  L 500.01 26.69
  A 0.70 0.69 89.6 0 0 499.32 26.00
  L 484.99 26.00
  A 1.06 1.06 88.5 0 0 483.93 27.12
  Q 484.33 34.86 483.56 41.26
  Q 483.50 41.75 483.16 41.39
  L 469.28 26.90
  A 1.98 1.73 65.9 0 0 467.96 26.29
  L 452.79 26.01
  A 0.81 0.78 -89.7 0 0 452.00 26.82
  L 451.96 46.25"
/>
<path stroke="#ff7800" vector-effect="non-scaling-stroke" d="
  M 451.96 46.25
  Q 451.59 40.57 446.27 42.39
  A 1.23 0.82 40.7 0 1 445.40 42.28
  Q 444.71 41.93 444.59 42.93
  Q 444.55 43.23 444.54 42.94
  Q 444.45 40.97 444.40 39.00
  C 444.32 35.64 444.24 40.74 444.04 41.25"
/>
<path stroke="#bb641f" stroke-opacity="0.843" vector-effect="non-scaling-stroke" d="
  M 519.96 54.00
  Q 518.59 54.60 518.00 55.96"
/>
<path stroke="#ff6600" vector-effect="non-scaling-stroke" d="
  M 515.96 66.50
  Q 516.06 61.76 514.43 64.70
  A 0.92 0.84 -71.9 0 1 513.59 65.18
  L 500.00 64.19"
/>
<path stroke="#ff6400" vector-effect="non-scaling-stroke" d="
  M 451.96 66.50
  L 451.65 64.92
  A 0.59 0.59 83.5 0 0 451.06 64.45
  L 445.31 64.55
  A 0.45 0.42 86.3 0 0 444.90 65.05
  Q 445.02 66.19 444.04 66.50"
/>
<path stroke="#bb641f" stroke-opacity="0.843" vector-effect="non-scaling-stroke" d="
  M 571.71 38.00
  Q 570.43 38.45 570.25 39.71"
/>
<path stroke="#ff6600" vector-effect="non-scaling-stroke" d="
  M 568.04 50.25
  Q 568.96 53.45 566.45 52.24
  A 1.46 1.42 -36.9 0 0 565.52 52.12
  L 562.56 52.73
  A 0.98 0.91 -83.1 0 0 561.90 53.29
  Q 561.57 54.08 561.19 53.31
  Q 560.23 53.04 559.25 53.04"
/>
<path stroke="#914911" vector-effect="non-scaling-stroke" d="
  M 563.25 34.96
  L 552.40 45.71
  A 0.52 0.50 45.0 0 0 552.41 46.44
  L 559.25 53.04"
/>
<path stroke="#913f11" vector-effect="non-scaling-stroke" d="
  M 559.25 53.04
  L 563.12 57.16
  A 1.67 1.08 29.5 0 1 563.56 58.00
  Q 564.32 64.65 563.93 72.75
  A 1.31 1.31 -88.6 0 1 562.62 74.00
  L 548.89 74.00
  A 0.92 0.92 -88.8 0 1 547.97 73.04
  C 548.13 69.22 548.85 63.61 546.39 60.54
  Q 544.09 57.67 540.59 54.93
  A 1.06 1.00 42.0 0 0 539.23 54.96
  L 533.04 60.82
  Q 531.99 61.82 531.97 63.67
  L 531.85 73.32
  A 0.54 0.53 0.5 0 1 531.31 73.84
  L 516.69 73.84
  A 0.54 0.54 89.5 0 1 516.15 73.31
  L 515.96 66.50"
/>
<path stroke="#914911" vector-effect="non-scaling-stroke" d="
  M 515.96 66.50
  C 515.99 62.51 515.15 56.97 518.00 55.96"
/>
<path stroke="#383634" stroke-opacity="0.843" vector-effect="non-scaling-stroke" d="
  M 518.00 55.96
  Q 519.61 55.61 519.96 54.00"
/>
<path stroke="#914911" vector-effect="non-scaling-stroke" d="
  M 519.96 54.00
  L 527.20 46.94
  A 1.34 1.29 -46.5 0 0 527.19 45.00
  Q 520.41 39.11 515.73 32.51"
/>
<path stroke="#914911" vector-effect="non-scaling-stroke" d="
  M 500.04 33.25
  L 500.00 64.19"
/>
<path stroke="#913f11" vector-effect="non-scaling-stroke" d="
  M 500.00 64.19
  L 500.00 73.24
  A 0.77 0.76 -0.0 0 1 499.23 74.00
  C 494.72 74.00 490.40 73.81 486.32 74.14
  Q 483.21 74.40 483.98 70.74
  Q 484.83 66.67 482.08 63.92
  Q 475.72 57.53 468.65 50.53
  Q 468.06 49.95 468.06 50.78
  L 468.00 73.13
  A 0.81 0.79 -90.0 0 1 467.21 73.94
  L 452.86 74.00
  A 0.88 0.86 89.7 0 1 452.00 73.13
  L 451.96 66.50"
/>
<path stroke="#914711" vector-effect="non-scaling-stroke" d="
  M 451.96 66.50
  L 451.96 46.25"
/>
<path stroke="#919191" vector-effect="non-scaling-stroke" d="
  M 51.54 26.19
  L 36.99 26.02
  A 1.01 0.98 -89.7 0 0 36.00 27.03
  L 36.00 73.32
  A 0.68 0.68 -89.6 0 0 36.68 74.00
  L 83.34 74.00
  A 0.66 0.66 0.0 0 0 84.00 73.34
  L 84.00 66.67
  A 0.67 0.67 0.0 0 0 83.33 66.00
  L 52.68 66.00
  A 0.68 0.68 89.6 0 1 52.00 65.32
  L 52.00 26.67
  A 0.48 0.46 -90.0 0 0 51.54 26.19"
/>
<path stroke="#bebdbc" vector-effect="non-scaling-stroke" d="
  M 106.25 27.79
  Q 103.47 29.23 101.96 32.00"
/>
<path stroke="#bebdbc" vector-effect="non-scaling-stroke" d="
  M 101.96 32.00
  Q 100.40 32.22 100.29 33.75"
/>
<path stroke="#919191" vector-effect="non-scaling-stroke" d="
  M 100.29 33.75
  Q 99.62 50.03 100.22 66.21"
/>
<path stroke="#bebdbc" vector-effect="non-scaling-stroke" d="
  M 100.22 66.21
  C 101.40 68.48 105.40 72.35 107.61 73.66"
/>
<path stroke="#919191" vector-effect="non-scaling-stroke" d="
  M 107.61 73.66
  Q 123.79 74.47 140.25 73.71"
/>
<path stroke="#bebdbc" vector-effect="non-scaling-stroke" d="
  M 140.25 73.71
  Q 142.06 74.03 141.71 72.25"
/>
<path stroke="#919191" vector-effect="non-scaling-stroke" d="
  M 141.71 72.25
  Q 141.77 72.02 142.00 71.96"
/>
<path stroke="#bebdbc" vector-effect="non-scaling-stroke" d="
  M 142.00 71.96
  Q 143.90 71.94 144.00 70.04"
/>
<path stroke="#919191" vector-effect="non-scaling-stroke" d="
  M 144.00 70.04
  Q 144.22 70.00 144.25 69.79"
/>
<path stroke="#bebdbc" vector-effect="non-scaling-stroke" d="
  M 144.25 69.79
  Q 145.84 69.81 145.96 68.25"
/>
<path stroke="#919191" vector-effect="non-scaling-stroke" d="
  M 145.96 68.25
  L 146.04 68.00"
/>
<path stroke="#c6c6c4" vector-effect="non-scaling-stroke" d="
  M 146.04 68.00
  Q 148.02 68.08 147.71 66.25"
/>
<path stroke="#919191" vector-effect="non-scaling-stroke" d="
  M 147.71 66.25
  Q 148.44 50.12 147.71 34.00"
/>
<path stroke="#c6c6c4" vector-effect="non-scaling-stroke" d="
  M 147.71 34.00
  Q 147.18 31.47 145.01 30.18
  Q 144.59 29.93 144.32 29.51
  Q 143.56 28.35 142.29 27.85
  A 0.85 0.71 -84.9 0 1 141.83 27.19
  Q 141.72 26.16 140.19 26.20"
/>
<path stroke="#919191" vector-effect="non-scaling-stroke" d="
  M 140.19 26.20
  Q 124.92 25.85 109.50 25.96
  Q 107.29 25.98 106.25 27.79"
/>
<path stroke="#575756" vector-effect="non-scaling-stroke" d="
  M 140.19 26.20
  Q 143.43 30.79 147.71 34.00"
/>
<path stroke="#575756" vector-effect="non-scaling-stroke" d="
  M 147.71 66.25
  Q 145.86 66.03 146.04 68.00"
/>
<path stroke="#4f4e4e" vector-effect="non-scaling-stroke" d="
  M 145.96 68.25
  Q 143.83 67.69 144.25 69.79"
/>
<path stroke="#4f4e4e" vector-effect="non-scaling-stroke" d="
  M 144.00 70.04
  Q 141.95 69.87 142.00 71.96"
/>
<path stroke="#4f4e4e" vector-effect="non-scaling-stroke" d="
  M 141.71 72.25
  Q 139.91 71.91 140.25 73.71"
/>
<path stroke="#4f4e4e" vector-effect="non-scaling-stroke" d="
  M 107.61 73.66
  Q 105.03 68.98 100.22 66.21"
/>
<path stroke="#4f4e4e" vector-effect="non-scaling-stroke" d="
  M 100.29 33.75
  Q 101.99 33.97 102.04 32.25"
/>
<path stroke="#4f4e4e" vector-effect="non-scaling-stroke" d="
  M 102.04 32.25
  Q 104.77 30.61 106.25 27.79"
/>
<path stroke="#7c7a79" vector-effect="non-scaling-stroke" d="
  M 102.04 32.25
  L 101.96 32.00"
/>
<path stroke="#c6c6c4" vector-effect="non-scaling-stroke" d="
  M 195.16 49.24
  Q 192.95 45.80 190.66 44.05
  Q 190.28 43.76 190.06 43.29
  C 188.11 39.11 182.67 46.67 181.54 48.75"
/>
<path stroke="#919191" vector-effect="non-scaling-stroke" d="
  M 181.54 48.75
  Q 181.34 50.17 180.64 49.80
  A 0.99 0.73 -80.7 0 1 180.23 49.00
  L 180.02 26.81
  A 0.82 0.80 89.6 0 0 179.22 26.00
  L 164.68 26.00
  A 0.68 0.68 0.4 0 0 164.00 26.68
  L 164.00 73.09
  A 0.87 0.79 89.0 0 0 164.82 73.96
  L 171.69 73.76
  A 1.47 0.99 -60.6 0 0 172.54 73.33
  L 187.64 58.35
  A 0.52 0.52 -90.0 0 1 188.36 58.35
  Q 194.74 64.59 200.95 71.00
  C 204.29 74.46 206.53 74.47 211.08 73.80
  A 1.07 1.07 86.0 0 0 212.00 72.74
  L 212.00 26.56
  A 0.56 0.56 0.0 0 0 211.44 26.00
  L 196.95 26.00
  A 0.99 0.99 88.4 0 0 195.96 27.05
  Q 196.62 38.41 195.16 49.24"
/>
<path stroke="#575756" vector-effect="non-scaling-stroke" d="
  M 181.54 48.75
  C 183.77 47.43 188.40 40.71 190.56 45.44
  Q 191.15 46.72 195.16 49.24"
/>
<path stroke="#bebdbc" vector-effect="non-scaling-stroke" d="
  M 246.83 56.45
  Q 249.49 60.41 252.92 63.65
  Q 256.04 66.61 258.15 68.79
  Q 260.68 71.42 263.61 73.72"
/>
<path stroke="#919191" vector-effect="non-scaling-stroke" d="
  M 263.61 73.72
  Q 267.69 74.12 271.68 74.03
  C 273.44 73.99 276.28 74.89 276.13 71.94
  C 276.02 69.81 276.07 67.75 275.69 65.63"
/>
<path stroke="#c6c6c4" vector-effect="non-scaling-stroke" d="
  M 275.69 65.63
  Q 273.18 61.96 269.71 59.25"
/>
<path stroke="#c6c6c4" vector-effect="non-scaling-stroke" d="
  M 269.71 59.25
  C 268.00 57.21 264.55 53.11 262.05 52.16"
/>
<path stroke="#919191" vector-effect="non-scaling-stroke" d="
  M 262.05 52.16
  L 260.66 50.93
  Q 260.22 50.55 260.80 50.48
  L 267.75 49.71"
/>
<path stroke="#bebdbc" vector-effect="non-scaling-stroke" d="
  M 267.75 49.71
  Q 270.53 49.20 271.84 46.76
  A 1.96 1.59 -6.7 0 1 272.50 46.08
  Q 273.68 45.36 274.00 44.04"
/>
<path stroke="#bebdbc" vector-effect="non-scaling-stroke" d="
  M 274.00 44.04
  Q 275.57 43.77 275.50 42.29"
/>
<path stroke="#919191" vector-effect="non-scaling-stroke" d="
  M 275.50 42.29
  Q 277.08 38.24 275.50 34.21"
/>
<path stroke="#bebdbc" vector-effect="non-scaling-stroke" d="
  M 275.50 34.21
  Q 275.96 32.65 274.75 31.91
  Q 274.64 31.84 274.01 31.28
  L 270.25 27.96"
/>
<path stroke="#c6c6c4" vector-effect="non-scaling-stroke" d="
  M 270.25 27.96
  Q 269.75 26.40 268.25 26.29"
/>
<path stroke="#919191" vector-effect="non-scaling-stroke" d="
  M 268.25 26.29
  L 229.02 26.01
  A 1.03 1.01 -89.7 0 0 228.00 27.04
  L 228.00 73.15
  A 0.85 0.85 0.0 0 0 228.85 74.00
  L 243.01 74.00
  A 1.05 1.01 -89.4 0 0 244.02 72.97
  L 244.28 54.80
  Q 244.29 54.26 244.71 54.62
  L 246.83 56.45"
/>
<path stroke="#575756" vector-effect="non-scaling-stroke" d="
  M 268.25 26.29
  Q 268.29 27.77 269.75 28.04"
/>
<path stroke="#4f4e4e" vector-effect="non-scaling-stroke" d="
  M 269.75 28.04
  L 275.50 34.21"
/>
<path stroke="#4f4e4e" vector-effect="non-scaling-stroke" d="
  M 275.50 42.29
  Q 274.22 42.57 273.75 43.96"
/>
<path stroke="#4f4e4e" vector-effect="non-scaling-stroke" d="
  M 273.75 43.96
  Q 270.23 46.30 267.75 49.71"
/>
<path stroke="#575756" vector-effect="non-scaling-stroke" d="
  M 262.05 52.16
  Q 265.17 56.56 269.46 59.75"
/>
<path stroke="#575756" vector-effect="non-scaling-stroke" d="
  M 269.46 59.75
  Q 271.74 63.43 275.69 65.63"
/>
<path stroke="#4f4e4e" vector-effect="non-scaling-stroke" d="
  M 263.61 73.72
  Q 263.08 71.82 261.78 70.70
  C 256.57 66.26 251.91 61.10 246.83 56.45"
/>
<path stroke="#8c8c89" vector-effect="non-scaling-stroke" d="
  M 269.71 59.25
  Q 269.41 59.40 269.46 59.75"
/>
<path stroke="#7c7a79" vector-effect="non-scaling-stroke" d="
  M 274.00 44.04
  L 273.75 43.96"
/>
<path stroke="#848381" vector-effect="non-scaling-stroke" d="
  M 270.25 27.96
  L 269.75 28.04"
/>
<path stroke="#919191" vector-effect="non-scaling-stroke" d="
  M 308.05 41.45
  L 308.04 34.56
  A 0.52 0.50 -0.0 0 1 308.56 34.06
  L 339.26 34.00
  A 0.74 0.74 -0.6 0 0 340.00 33.26
  L 340.00 26.81
  A 0.81 0.81 0.0 0 0 339.19 26.00
  L 292.82 26.00
  A 0.82 0.82 -89.6 0 0 292.00 26.82
  L 292.00 73.18
  A 0.82 0.82 0.0 0 0 292.82 74.00
  L 339.22 74.00
  A 0.78 0.78 -89.9 0 0 340.00 73.22
  L 340.00 66.92
  A 0.92 0.92 0.0 0 0 339.08 66.00
  L 308.66 66.00
  A 0.66 0.66 0.2 0 1 308.00 65.34
  L 308.00 50.52
  A 0.52 0.52 -89.9 0 1 308.52 50.00
  L 323.34 50.00
  A 0.66 0.66 0.1 0 0 324.00 49.34
  L 324.00 42.92
  A 0.92 0.92 0.0 0 0 323.08 42.00
  L 308.56 41.95
  A 0.52 0.50 0.6 0 1 308.05 41.45"
/>
<path stroke="#bebdbc" vector-effect="non-scaling-stroke" d="
  M 362.00 28.04
  Q 358.46 30.13 356.54 33.75"
/>
<path stroke="#919191" vector-effect="non-scaling-stroke" d="
  M 356.54 33.75
  Q 355.00 37.90 356.54 42.00"
/>
<path stroke="#bfc3bf" stroke-opacity="0.929" vector-effect="non-scaling-stroke" d="
  M 356.54 42.00
  Q 357.59 44.69 360.00 46.25"
/>
<path stroke="#bfc3bf" stroke-opacity="0.929" vector-effect="non-scaling-stroke" d="
  M 360.00 46.25
  Q 360.42 47.53 361.71 47.75"
/>
<path stroke="#919191" vector-effect="non-scaling-stroke" d="
  M 361.71 47.75
  Q 362.84 49.70 364.00 49.75
  Q 374.87 50.18 386.67 49.98
  A 1.31 1.31 -0.4 0 1 388.00 51.29
  L 388.00 65.50
  A 0.50 0.50 0.0 0 1 387.50 66.00
  L 357.02 66.00
  A 0.98 0.90 -0.6 0 0 356.04 66.92
  L 356.14 73.30
  A 0.55 0.53 -0.5 0 0 356.69 73.82
  L 396.09 73.79"
/>
<path stroke="#bebdbc" vector-effect="non-scaling-stroke" d="
  M 396.09 73.79
  Q 400.82 70.74 403.77 66.27"
/>
<path stroke="#919191" vector-effect="non-scaling-stroke" d="
  M 403.77 66.27
  Q 404.36 57.97 403.72 49.71"
/>
<path stroke="#c6c6c4" vector-effect="non-scaling-stroke" d="
  M 403.72 49.71
  Q 400.81 44.87 396.17 42.12"
/>
<path stroke="#919191" vector-effect="non-scaling-stroke" d="
  M 396.17 42.12
  L 372.81 41.94
  A 0.60 0.51 0.1 0 1 372.22 41.44
  L 372.12 35.07
  A 1.20 1.07 -0.5 0 1 373.31 33.99
  L 403.06 33.82
  A 0.64 0.63 6.2 0 0 403.68 33.33
  Q 404.43 29.95 403.89 26.90
  A 1.09 1.08 -4.4 0 0 402.83 26.00
  Q 383.37 25.88 364.00 26.25
  Q 362.48 26.28 362.00 28.04"
/>
<path stroke="#575756" vector-effect="non-scaling-stroke" d="
  M 396.17 42.12
  Q 398.98 46.86 403.72 49.71"
/>
<path stroke="#4f4e4e" vector-effect="non-scaling-stroke" d="
  M 403.77 66.27
  Q 402.39 66.80 400.00 69.25
  Q 396.83 72.51 396.09 73.79"
/>
<path stroke="#484c48" stroke-opacity="0.929" vector-effect="non-scaling-stroke" d="
  M 361.71 47.75
  Q 361.65 46.10 360.00 46.25"
/>
<path stroke="#484c48" stroke-opacity="0.929" vector-effect="non-scaling-stroke" d="
  M 360.00 46.25
  Q 358.96 43.57 356.54 42.00"
/>
<path stroke="#4f4e4e" vector-effect="non-scaling-stroke" d="
  M 356.54 33.75
  Q 359.95 31.53 362.00 28.04"
/>
<path stroke="#919191" vector-effect="non-scaling-stroke" d="
  M 132.00 34.70
  A 0.70 0.70 0.0 0 0 131.30 34.00
  L 116.70 34.00
  A 0.70 0.70 0.0 0 0 116.00 34.70
  L 116.00 65.30
  A 0.70 0.70 0.0 0 0 116.70 66.00
  L 131.30 66.00
  A 0.70 0.70 0.0 0 0 132.00 65.30
  L 132.00 34.70"
/>
<path stroke="#919191" vector-effect="non-scaling-stroke" d="
  M 259.9960 34.5440
  A 0.53 0.53 0.0 0 0 259.4670 34.0130
  L 244.5270 33.9870
  A 0.53 0.53 0.0 0 0 243.9961 34.5160
  L 243.9840 41.4560
  A 0.53 0.53 0.0 0 0 244.5130 41.9870
  L 259.4530 42.0130
  A 0.53 0.53 0.0 0 0 259.9839 41.4840
  L 259.9960 34.5440"
/>
</g>
<path fill="#ffffff" d="
  M 92.29 29.50
  Q 93.66 29.84 93.71 28.50
  L 102.54 19.50
  Q 103.51 19.40 103.50 18.54
  L 103.86 18.26
  A 1.52 1.05 17.8 0 1 104.72 18.00
  Q 123.61 18.00 142.50 17.98
  Q 145.03 17.98 146.04 20.25
  Q 146.28 21.53 147.50 21.71
  Q 148.99 22.46 149.72 23.85
  A 1.35 1.23 -1.4 0 0 150.41 24.45
  Q 151.67 24.93 152.04 26.50
  Q 152.47 27.59 153.50 27.71
  L 154.75 28.54
  Q 154.11 29.85 155.07 29.87
  A 0.58 0.56 -87.9 0 0 155.64 29.32
  L 155.71 28.25
  L 155.95 19.39
  A 1.43 1.32 -89.1 0 1 157.27 18.00
  L 270.51 18.00
  A 3.72 3.04 -18.0 0 1 273.02 18.98
  L 280.25 26.54
  Q 280.34 27.70 281.50 27.71
  L 282.54 28.50
  Q 283.46 31.70 283.71 28.25
  L 283.95 19.39
  A 1.43 1.32 -89.1 0 1 285.27 18.00
  L 346.80 18.06
  A 1.32 1.31 -88.0 0 1 348.11 19.47
  Q 347.73 24.83 348.41 28.77
  A 0.91 0.61 86.8 0 0 348.94 29.47
  Q 349.71 29.64 350.04 28.00
  Q 351.27 27.58 351.71 26.50
  L 352.54 25.50
  Q 353.59 25.53 353.71 24.50
  L 356.25 21.96
  Q 358.58 22.33 358.21 20.00
  Q 358.32 17.96 360.50 17.97
  Q 385.88 18.00 411.33 18.00
  A 0.67 0.66 0.0 0 1 412.00 18.66
  Q 412.05 44.09 411.94 68.94
  Q 411.93 71.16 409.71 72.00
  Q 408.25 72.29 408.04 73.75
  L 407.71 74.25
  Q 406.24 74.14 406.25 75.71
  L 405.75 76.04
  Q 404.37 76.59 403.75 77.96
  Q 403.52 78.02 403.46 78.25
  Q 402.39 78.72 401.79 79.75
  L 401.46 80.25
  Q 400.36 80.27 400.25 81.46
  Q 398.77 82.00 395.50 82.00
  Q 299.25 82.00 203.00 82.00
  Q 201.78 82.00 199.50 81.46
  Q 198.59 79.17 196.29 78.25
  C 193.26 75.80 191.34 72.46 188.25 70.57
  A 0.65 0.64 38.9 0 0 187.46 70.65
  L 177.17 80.70
  Q 175.84 82.00 174.00 82.00
  L 28.69 82.00
  A 0.69 0.69 2.0 0 1 28.00 81.31
  L 28.00 18.99
  A 0.99 0.99 0.0 0 1 28.99 18.00
  Q 41.54 18.00 54.29 18.00
  C 58.38 18.00 59.06 17.55 61.75 20.00
  Q 68.36 26.02 75.06 33.23
  A 3.51 3.51 -66.5 0 1 76.00 35.62
  L 76.00 57.33
  A 0.67 0.67 0.0 0 0 76.67 58.00
  L 91.24 58.00
  A 0.80 0.78 -89.6 0 0 92.02 57.21
  L 92.29 29.50
  Z
  M 51.54 26.19
  L 36.99 26.02
  A 1.01 0.98 -89.7 0 0 36.00 27.03
  L 36.00 73.32
  A 0.68 0.68 -89.6 0 0 36.68 74.00
  L 83.34 74.00
  A 0.66 0.66 0.0 0 0 84.00 73.34
  L 84.00 66.67
  A 0.67 0.67 0.0 0 0 83.33 66.00
  L 52.68 66.00
  A 0.68 0.68 89.6 0 1 52.00 65.32
  L 52.00 26.67
  A 0.48 0.46 -90.0 0 0 51.54 26.19
  Z
  M 106.25 27.79
  Q 103.47 29.23 101.96 32.00
  Q 100.40 32.22 100.29 33.75
  Q 99.62 50.03 100.22 66.21
  C 101.40 68.48 105.40 72.35 107.61 73.66
  Q 123.79 74.47 140.25 73.71
  Q 142.06 74.03 141.71 72.25
  Q 141.77 72.02 142.00 71.96
  Q 143.90 71.94 144.00 70.04
  Q 144.22 70.00 144.25 69.79
  Q 145.84 69.81 145.96 68.25
  L 146.04 68.00
  Q 148.02 68.08 147.71 66.25
  Q 148.44 50.12 147.71 34.00
  Q 147.18 31.47 145.01 30.18
  Q 144.59 29.93 144.32 29.51
  Q 143.56 28.35 142.29 27.85
  A 0.85 0.71 -84.9 0 1 141.83 27.19
  Q 141.72 26.16 140.19 26.20
  Q 124.92 25.85 109.50 25.96
  Q 107.29 25.98 106.25 27.79
  Z
  M 195.16 49.24
  Q 192.95 45.80 190.66 44.05
  Q 190.28 43.76 190.06 43.29
  C 188.11 39.11 182.67 46.67 181.54 48.75
  Q 181.34 50.17 180.64 49.80
  A 0.99 0.73 -80.7 0 1 180.23 49.00
  L 180.02 26.81
  A 0.82 0.80 89.6 0 0 179.22 26.00
  L 164.68 26.00
  A 0.68 0.68 0.4 0 0 164.00 26.68
  L 164.00 73.09
  A 0.87 0.79 89.0 0 0 164.82 73.96
  L 171.69 73.76
  A 1.47 0.99 -60.6 0 0 172.54 73.33
  L 187.64 58.35
  A 0.52 0.52 -90.0 0 1 188.36 58.35
  Q 194.74 64.59 200.95 71.00
  C 204.29 74.46 206.53 74.47 211.08 73.80
  A 1.07 1.07 86.0 0 0 212.00 72.74
  L 212.00 26.56
  A 0.56 0.56 0.0 0 0 211.44 26.00
  L 196.95 26.00
  A 0.99 0.99 88.4 0 0 195.96 27.05
  Q 196.62 38.41 195.16 49.24
  Z
  M 246.83 56.45
  Q 249.49 60.41 252.92 63.65
  Q 256.04 66.61 258.15 68.79
  Q 260.68 71.42 263.61 73.72
  Q 267.69 74.12 271.68 74.03
  C 273.44 73.99 276.28 74.89 276.13 71.94
  C 276.02 69.81 276.07 67.75 275.69 65.63
  Q 273.18 61.96 269.71 59.25
  C 268.00 57.21 264.55 53.11 262.05 52.16
  L 260.66 50.93
  Q 260.22 50.55 260.80 50.48
  L 267.75 49.71
  Q 270.53 49.20 271.84 46.76
  A 1.96 1.59 -6.7 0 1 272.50 46.08
  Q 273.68 45.36 274.00 44.04
  Q 275.57 43.77 275.50 42.29
  Q 277.08 38.24 275.50 34.21
  Q 275.96 32.65 274.75 31.91
  Q 274.64 31.84 274.01 31.28
  L 270.25 27.96
  Q 269.75 26.40 268.25 26.29
  L 229.02 26.01
  A 1.03 1.01 -89.7 0 0 228.00 27.04
  L 228.00 73.15
  A 0.85 0.85 0.0 0 0 228.85 74.00
  L 243.01 74.00
  A 1.05 1.01 -89.4 0 0 244.02 72.97
  L 244.28 54.80
  Q 244.29 54.26 244.71 54.62
  L 246.83 56.45
  Z
  M 308.05 41.45
  L 308.04 34.56
  A 0.52 0.50 -0.0 0 1 308.56 34.06
  L 339.26 34.00
  A 0.74 0.74 -0.6 0 0 340.00 33.26
  L 340.00 26.81
  A 0.81 0.81 0.0 0 0 339.19 26.00
  L 292.82 26.00
  A 0.82 0.82 -89.6 0 0 292.00 26.82
  L 292.00 73.18
  A 0.82 0.82 0.0 0 0 292.82 74.00
  L 339.22 74.00
  A 0.78 0.78 -89.9 0 0 340.00 73.22
  L 340.00 66.92
  A 0.92 0.92 0.0 0 0 339.08 66.00
  L 308.66 66.00
  A 0.66 0.66 0.2 0 1 308.00 65.34
  L 308.00 50.52
  A 0.52 0.52 -89.9 0 1 308.52 50.00
  L 323.34 50.00
  A 0.66 0.66 0.1 0 0 324.00 49.34
  L 324.00 42.92
  A 0.92 0.92 0.0 0 0 323.08 42.00
  L 308.56 41.95
  A 0.52 0.50 0.6 0 1 308.05 41.45
  Z
  M 362.00 28.04
  Q 358.46 30.13 356.54 33.75
  Q 355.00 37.90 356.54 42.00
  Q 357.59 44.69 360.00 46.25
  Q 360.42 47.53 361.71 47.75
  Q 362.84 49.70 364.00 49.75
  Q 374.87 50.18 386.67 49.98
  A 1.31 1.31 -0.4 0 1 388.00 51.29
  L 388.00 65.50
  A 0.50 0.50 0.0 0 1 387.50 66.00
  L 357.02 66.00
  A 0.98 0.90 -0.6 0 0 356.04 66.92
  L 356.14 73.30
  A 0.55 0.53 -0.5 0 0 356.69 73.82
  L 396.09 73.79
  Q 400.82 70.74 403.77 66.27
  Q 404.36 57.97 403.72 49.71
  Q 400.81 44.87 396.17 42.12
  L 372.81 41.94
  A 0.60 0.51 0.1 0 1 372.22 41.44
  L 372.12 35.07
  A 1.20 1.07 -0.5 0 1 373.31 33.99
  L 403.06 33.82
  A 0.64 0.63 6.2 0 0 403.68 33.33
  Q 404.43 29.95 403.89 26.90
  A 1.09 1.08 -4.4 0 0 402.83 26.00
  Q 383.37 25.88 364.00 26.25
  Q 362.48 26.28 362.00 28.04
  Z"
/>
<path fill="#ff8300" d="
  M 571.96 31.00
  L 571.29 35.85
  Q 571.21 36.44 570.81 35.96
  C 568.48 33.16 566.20 35.30 563.25 34.96
  C 564.20 32.62 564.07 30.43 564.13 27.96
  C 564.20 25.30 561.82 26.02 560.10 25.97
  Q 554.20 25.82 548.31 26.27
  A 1.40 1.26 17.7 0 0 547.45 26.66
  L 540.88 33.28
  A 1.23 1.13 -43.7 0 1 539.17 33.31
  L 533.62 27.20
  A 2.93 2.10 63.0 0 0 531.78 26.25
  L 517.21 26.02
  A 1.37 1.14 -87.5 0 0 516.04 27.31
  L 515.73 32.51
  Q 509.01 32.24 501.75 32.19
  C 500.89 32.19 499.96 31.47 500.04 33.25
  L 500.01 26.69
  A 0.70 0.69 89.6 0 0 499.32 26.00
  L 484.99 26.00
  A 1.06 1.06 88.5 0 0 483.93 27.12
  Q 484.33 34.86 483.56 41.26
  Q 483.50 41.75 483.16 41.39
  L 469.28 26.90
  A 1.98 1.73 65.9 0 0 467.96 26.29
  L 452.79 26.01
  A 0.81 0.78 -89.7 0 0 452.00 26.82
  L 451.96 46.25
  Q 451.59 40.57 446.27 42.39
  A 1.23 0.82 40.7 0 1 445.40 42.28
  Q 444.71 41.93 444.59 42.93
  Q 444.55 43.23 444.54 42.94
  Q 444.45 40.97 444.40 39.00
  C 444.32 35.64 444.24 40.74 444.04 41.25
  L 444.00 18.67
  A 0.67 0.67 -0.4 0 1 444.67 18.00
  L 571.48 18.00
  A 0.52 0.51 -0.0 0 1 572.00 18.51
  L 571.96 31.00
  Z"
/>
<path fill="#7c7a79" d="
  M 103.50 18.54
  Q 103.51 19.40 102.54 19.50
  Q 101.81 17.81 103.50 18.54
  Z"
/>
<path fill="#ffffff" d="
  M 358.21 20.00
  Q 358.58 22.33 356.25 21.96
  L 358.21 20.00
  Z"
/>
<path fill="#8c8c89" d="
  M 146.04 20.25
  Q 147.39 20.43 147.50 21.71
  Q 146.28 21.53 146.04 20.25
  Z"
/>
<path fill="#59534d" fill-opacity="0.686" d="
  M 353.71 24.50
  Q 353.59 25.53 352.54 25.50
  Q 351.74 23.82 353.71 24.50
  Z"
/>
<path fill="#222222" d="
  M 51.54 26.19
  A 0.48 0.46 90.0 0 1 52.00 26.67
  L 52.00 65.32
  A 0.68 0.68 -89.6 0 0 52.68 66.00
  L 83.33 66.00
  A 0.67 0.67 0.0 0 1 84.00 66.67
  L 84.00 73.34
  A 0.66 0.66 0.0 0 1 83.34 74.00
  L 36.68 74.00
  A 0.68 0.68 89.6 0 1 36.00 73.32
  L 36.00 27.03
  A 1.01 0.98 -89.7 0 1 36.99 26.02
  L 51.54 26.19
  Z"
/>
<path fill="#222222" d="
  M 140.19 26.20
  Q 143.43 30.79 147.71 34.00
  Q 148.44 50.12 147.71 66.25
  Q 145.86 66.03 146.04 68.00
  L 145.96 68.25
  Q 143.83 67.69 144.25 69.79
  Q 144.22 70.00 144.00 70.04
  Q 141.95 69.87 142.00 71.96
  Q 141.77 72.02 141.71 72.25
  Q 139.91 71.91 140.25 73.71
  Q 123.79 74.47 107.61 73.66
  Q 105.03 68.98 100.22 66.21
  Q 99.62 50.03 100.29 33.75
  Q 101.99 33.97 102.04 32.25
  Q 104.77 30.61 106.25 27.79
  Q 107.29 25.98 109.50 25.96
  Q 124.92 25.85 140.19 26.20
  Z
  M 132.00 34.70
  A 0.70 0.70 0.0 0 0 131.30 34.00
  L 116.70 34.00
  A 0.70 0.70 0.0 0 0 116.00 34.70
  L 116.00 65.30
  A 0.70 0.70 0.0 0 0 116.70 66.00
  L 131.30 66.00
  A 0.70 0.70 0.0 0 0 132.00 65.30
  L 132.00 34.70
  Z"
/>
<path fill="#222222" d="
  M 181.54 48.75
  C 183.77 47.43 188.40 40.71 190.56 45.44
  Q 191.15 46.72 195.16 49.24
  Q 196.62 38.41 195.96 27.05
  A 0.99 0.99 88.4 0 1 196.95 26.00
  L 211.44 26.00
  A 0.56 0.56 -1.9 0 1 212.00 26.56
  L 212.00 72.74
  A 1.07 1.07 86.0 0 1 211.08 73.80
  C 206.53 74.47 204.29 74.46 200.95 71.00
  Q 194.74 64.59 188.36 58.35
  A 0.52 0.52 0.0 0 0 187.64 58.35
  L 172.54 73.33
  A 1.47 0.99 -60.6 0 1 171.69 73.76
  L 164.82 73.96
  A 0.87 0.79 89.0 0 1 164.00 73.09
  L 164.00 26.68
  A 0.68 0.68 -0.4 0 1 164.68 26.00
  L 179.22 26.00
  A 0.82 0.80 89.6 0 1 180.02 26.81
  L 180.23 49.00
  A 0.99 0.73 -80.7 0 0 180.64 49.80
  Q 181.34 50.17 181.54 48.75
  Z"
/>
<path fill="#222222" d="
  M 268.25 26.29
  Q 268.29 27.77 269.75 28.04
  L 275.50 34.21
  Q 277.08 38.24 275.50 42.29
  Q 274.22 42.57 273.75 43.96
  Q 270.23 46.30 267.75 49.71
  L 260.80 50.48
  Q 260.22 50.55 260.66 50.93
  L 262.05 52.16
  Q 265.17 56.56 269.46 59.75
  Q 271.74 63.43 275.69 65.63
  C 276.07 67.75 276.02 69.81 276.13 71.94
  C 276.28 74.89 273.44 73.99 271.68 74.03
  Q 267.69 74.12 263.61 73.72
  Q 263.08 71.82 261.78 70.70
  C 256.57 66.26 251.91 61.10 246.83 56.45
  L 244.71 54.62
  Q 244.29 54.26 244.28 54.80
  L 244.02 72.97
  A 1.05 1.01 -89.4 0 1 243.01 74.00
  L 228.85 74.00
  A 0.85 0.85 0.0 0 1 228.00 73.15
  L 228.00 27.04
  A 1.03 1.01 -89.7 0 1 229.02 26.01
  L 268.25 26.29
  Z
  M 259.9960 34.5440
  A 0.53 0.53 0.0 0 0 259.4670 34.0130
  L 244.5270 33.9870
  A 0.53 0.53 0.0 0 0 243.9961 34.5160
  L 243.9840 41.4560
  A 0.53 0.53 0.0 0 0 244.5130 41.9870
  L 259.4530 42.0130
  A 0.53 0.53 0.0 0 0 259.9839 41.4840
  L 259.9960 34.5440
  Z"
/>
<path fill="#222222" d="
  M 308.56 41.95
  L 323.08 42.00
  A 0.92 0.92 -0.6 0 1 324.00 42.92
  L 324.00 49.34
  A 0.66 0.66 -0.2 0 1 323.34 50.00
  L 308.52 50.00
  A 0.52 0.52 90.0 0 0 308.00 50.52
  L 308.00 65.34
  A 0.66 0.66 -0.1 0 0 308.66 66.00
  L 339.08 66.00
  A 0.92 0.92 -0.6 0 1 340.00 66.92
  L 340.00 73.22
  A 0.78 0.78 -89.9 0 1 339.22 74.00
  L 292.82 74.00
  A 0.82 0.82 0.0 0 1 292.00 73.18
  L 292.00 26.82
  A 0.82 0.82 -89.2 0 1 292.82 26.00
  L 339.19 26.00
  A 0.81 0.81 -0.0 0 1 340.00 26.81
  L 340.00 33.26
  A 0.74 0.74 -0.0 0 1 339.26 34.00
  L 308.56 34.06
  A 0.52 0.50 0.0 0 0 308.04 34.56
  L 308.05 41.45
  A 0.52 0.50 0.6 0 0 308.56 41.95
  Z"
/>
<path fill="#222222" d="
  M 396.17 42.12
  Q 398.98 46.86 403.72 49.71
  Q 404.36 57.97 403.77 66.27
  Q 402.39 66.80 400.00 69.25
  Q 396.83 72.51 396.09 73.79
  L 356.69 73.82
  A 0.55 0.53 -0.5 0 1 356.14 73.30
  L 356.04 66.92
  A 0.98 0.90 -0.6 0 1 357.02 66.00
  L 387.50 66.00
  A 0.50 0.50 0.0 0 0 388.00 65.50
  L 388.00 51.29
  A 1.31 1.31 -0.4 0 0 386.67 49.98
  Q 374.87 50.18 364.00 49.75
  Q 362.84 49.70 361.71 47.75
  Q 361.65 46.10 360.00 46.25
  Q 358.96 43.57 356.54 42.00
  Q 355.00 37.90 356.54 33.75
  Q 359.95 31.53 362.00 28.04
  Q 362.48 26.28 364.00 26.25
  Q 383.37 25.88 402.83 26.00
  A 1.09 1.08 -4.4 0 1 403.89 26.90
  Q 404.43 29.95 403.68 33.33
  A 0.64 0.63 6.2 0 1 403.06 33.82
  L 373.31 33.99
  A 1.20 1.07 -0.5 0 0 372.12 35.07
  L 372.22 41.44
  A 0.60 0.51 0.1 0 0 372.81 41.94
  L 396.17 42.12
  Z"
/>
<path fill="#222222" d="
  M 500.04 33.25
  L 500.00 64.19
  L 500.00 73.24
  A 0.77 0.76 -0.0 0 1 499.23 74.00
  C 494.72 74.00 490.40 73.81 486.32 74.14
  Q 483.21 74.40 483.98 70.74
  Q 484.83 66.67 482.08 63.92
  Q 475.72 57.53 468.65 50.53
  Q 468.06 49.95 468.06 50.78
  L 468.00 73.13
  A 0.81 0.79 -90.0 0 1 467.21 73.94
  L 452.86 74.00
  A 0.88 0.86 89.7 0 1 452.00 73.13
  L 451.96 66.50
  L 451.96 46.25
  L 452.00 26.82
  A 0.81 0.78 -89.7 0 1 452.79 26.01
  L 467.96 26.29
  A 1.98 1.73 65.9 0 1 469.28 26.90
  L 483.16 41.39
  Q 483.50 41.75 483.56 41.26
  Q 484.33 34.86 483.93 27.12
  A 1.06 1.06 88.5 0 1 484.99 26.00
  L 499.32 26.00
  A 0.70 0.69 89.6 0 1 500.01 26.69
  L 500.04 33.25
  Z"
/>
<path fill="#222222" d="
  M 563.25 34.96
  L 552.40 45.71
  A 0.52 0.50 45.0 0 0 552.41 46.44
  L 559.25 53.04
  L 563.12 57.16
  A 1.67 1.08 29.5 0 1 563.56 58.00
  Q 564.32 64.65 563.93 72.75
  A 1.31 1.31 -88.6 0 1 562.62 74.00
  L 548.89 74.00
  A 0.92 0.92 -88.8 0 1 547.97 73.04
  C 548.13 69.22 548.85 63.61 546.39 60.54
  Q 544.09 57.67 540.59 54.93
  A 1.06 1.00 42.0 0 0 539.23 54.96
  L 533.04 60.82
  Q 531.99 61.82 531.97 63.67
  L 531.85 73.32
  A 0.54 0.53 0.5 0 1 531.31 73.84
  L 516.69 73.84
  A 0.54 0.54 89.5 0 1 516.15 73.31
  L 515.96 66.50
  C 515.99 62.51 515.15 56.97 518.00 55.96
  Q 519.61 55.61 519.96 54.00
  L 527.20 46.94
  A 1.34 1.29 -46.5 0 0 527.19 45.00
  Q 520.41 39.11 515.73 32.51
  L 516.04 27.31
  A 1.37 1.14 -87.5 0 1 517.21 26.02
  L 531.78 26.25
  A 2.93 2.10 63.0 0 1 533.62 27.20
  L 539.17 33.31
  A 1.23 1.13 -43.7 0 0 540.88 33.28
  L 547.45 26.66
  A 1.40 1.26 17.7 0 1 548.31 26.27
  Q 554.20 25.82 560.10 25.97
  C 561.82 26.02 564.20 25.30 564.13 27.96
  C 564.07 30.43 564.20 32.62 563.25 34.96
  Z"
/>
<path fill="#8c8c89" d="
  M 140.19 26.20
  Q 141.72 26.16 141.83 27.19
  A 0.85 0.71 -84.9 0 0 142.29 27.85
  Q 143.56 28.35 144.32 29.51
  Q 144.59 29.93 145.01 30.18
  Q 147.18 31.47 147.71 34.00
  Q 143.43 30.79 140.19 26.20
  Z"
/>
<path fill="#8c8c89" d="
  M 268.25 26.29
  Q 269.75 26.40 270.25 27.96
  L 269.75 28.04
  Q 268.29 27.77 268.25 26.29
  Z"
/>
<path fill="#8c8c89" d="
  M 152.04 26.50
  Q 153.65 26.09 153.50 27.71
  Q 152.47 27.59 152.04 26.50
  Z"
/>
<path fill="#8c8c89" d="
  M 280.25 26.54
  Q 281.74 26.21 281.50 27.71
  Q 280.34 27.70 280.25 26.54
  Z"
/>
<path fill="#59534d" fill-opacity="0.686" d="
  M 351.71 26.50
  Q 351.27 27.58 350.04 28.00
  Q 349.87 26.15 351.71 26.50
  Z"
/>
<path fill="#7c7a79" d="
  M 106.25 27.79
  Q 104.77 30.61 102.04 32.25
  L 101.96 32.00
  Q 103.47 29.23 106.25 27.79
  Z"
/>
<path fill="#7c7a79" d="
  M 269.75 28.04
  L 270.25 27.96
  L 274.01 31.28
  Q 274.64 31.84 274.75 31.91
  Q 275.96 32.65 275.50 34.21
  L 269.75 28.04
  Z"
/>
<path fill="#7c7a79" d="
  M 362.00 28.04
  Q 359.95 31.53 356.54 33.75
  Q 358.46 30.13 362.00 28.04
  Z"
/>
<path fill="#59534d" fill-opacity="0.686" d="
  M 155.71 28.25
  L 155.64 29.32
  A 0.58 0.56 -87.9 0 1 155.07 29.87
  Q 154.11 29.85 154.75 28.54
  Q 155.28 28.57 155.71 28.25
  Z"
/>
<path fill="#59534d" fill-opacity="0.686" d="
  M 283.71 28.25
  Q 283.46 31.70 282.54 28.50
  Q 283.20 28.62 283.71 28.25
  Z"
/>
<path fill="#59534d" fill-opacity="0.686" d="
  M 93.71 28.50
  Q 93.66 29.84 92.29 29.50
  Q 92.19 28.10 93.71 28.50
  Z"
/>
<path fill="#ff7000" d="
  M 571.96 31.00
  L 571.71 38.00
  Q 570.43 38.45 570.25 39.71
  C 569.01 40.27 569.97 41.86 568.97 41.66
  A 1.02 0.83 25.5 0 0 568.14 41.86
  L 565.60 44.26
  Q 564.04 45.74 565.47 47.35
  L 568.04 50.25
  Q 568.96 53.45 566.45 52.24
  A 1.46 1.42 -36.9 0 0 565.52 52.12
  L 562.56 52.73
  A 0.98 0.91 -83.1 0 0 561.90 53.29
  Q 561.57 54.08 561.19 53.31
  Q 560.23 53.04 559.25 53.04
  L 552.41 46.44
  A 0.52 0.50 45.0 0 1 552.40 45.71
  L 563.25 34.96
  C 566.20 35.30 568.48 33.16 570.81 35.96
  Q 571.21 36.44 571.29 35.85
  L 571.96 31.00
  Z"
/>
<path fill="#7c7a79" d="
  M 101.96 32.00
  L 102.04 32.25
  Q 101.99 33.97 100.29 33.75
  Q 100.40 32.22 101.96 32.00
  Z"
/>
<path fill="#ff7000" d="
  M 515.73 32.51
  Q 520.41 39.11 527.19 45.00
  A 1.34 1.29 -46.5 0 1 527.20 46.94
  L 519.96 54.00
  Q 518.59 54.60 518.00 55.96
  C 515.15 56.97 515.99 62.51 515.96 66.50
  Q 516.06 61.76 514.43 64.70
  A 0.92 0.84 -71.9 0 1 513.59 65.18
  L 500.00 64.19
  L 500.04 33.25
  C 499.96 31.47 500.89 32.19 501.75 32.19
  Q 509.01 32.24 515.73 32.51
  Z"
/>
<rect fill="#ffffff" x="116.00" y="34.00" width="16.00" height="32.00" rx="0.70"/>
<rect fill="#ffffff" x="-8.00" y="-4.00" transform="translate(251.99,38.00) rotate(0.1)" width="16.00" height="8.00" rx="0.53"/>
<path fill="#ff6c00" d="
  M 451.96 46.25
  L 451.96 66.50
  L 451.65 64.92
  A 0.59 0.59 83.5 0 0 451.06 64.45
  L 445.31 64.55
  A 0.45 0.42 86.3 0 0 444.90 65.05
  Q 445.02 66.19 444.04 66.50
  L 444.04 41.25
  C 444.24 40.74 444.32 35.64 444.40 39.00
  Q 444.45 40.97 444.54 42.94
  Q 444.55 43.23 444.59 42.93
  Q 444.71 41.93 445.40 42.28
  A 1.23 0.82 40.7 0 0 446.27 42.39
  Q 451.59 40.57 451.96 46.25
  Z"
/>
<path fill="#59534d" fill-opacity="0.686" d="
  M 571.71 38.00
  Q 572.32 40.06 570.25 39.71
  Q 570.43 38.45 571.71 38.00
  Z"
/>
<path fill="#8c8c89" d="
  M 195.16 49.24
  Q 191.15 46.72 190.56 45.44
  C 188.40 40.71 183.77 47.43 181.54 48.75
  C 182.67 46.67 188.11 39.11 190.06 43.29
  Q 190.28 43.76 190.66 44.05
  Q 192.95 45.80 195.16 49.24
  Z"
/>
<path fill="#747d75" fill-opacity="0.859" d="
  M 356.54 42.00
  Q 358.96 43.57 360.00 46.25
  Q 357.59 44.69 356.54 42.00
  Z"
/>
<path fill="#7c7a79" d="
  M 275.50 42.29
  Q 275.57 43.77 274.00 44.04
  L 273.75 43.96
  Q 274.22 42.57 275.50 42.29
  Z"
/>
<path fill="#8c8c89" d="
  M 396.17 42.12
  Q 400.81 44.87 403.72 49.71
  Q 398.98 46.86 396.17 42.12
  Z"
/>
<path fill="#7c7a79" d="
  M 273.75 43.96
  L 274.00 44.04
  Q 273.68 45.36 272.50 46.08
  A 1.96 1.59 -6.7 0 0 271.84 46.76
  Q 270.53 49.20 267.75 49.71
  Q 270.23 46.30 273.75 43.96
  Z"
/>
<path fill="#747d75" fill-opacity="0.859" d="
  M 360.00 46.25
  Q 361.65 46.10 361.71 47.75
  Q 360.42 47.53 360.00 46.25
  Z"
/>
<path fill="#ff5c00" d="
  M 500.00 64.19
  L 513.59 65.18
  A 0.92 0.84 -71.9 0 0 514.43 64.70
  Q 516.06 61.76 515.96 66.50
  L 516.15 73.31
  A 0.54 0.54 89.5 0 0 516.69 73.84
  L 531.31 73.84
  A 0.54 0.53 0.5 0 0 531.85 73.32
  L 531.97 63.67
  Q 531.99 61.82 533.04 60.82
  L 539.23 54.96
  A 1.06 1.00 42.0 0 1 540.59 54.93
  Q 544.09 57.67 546.39 60.54
  C 548.85 63.61 548.13 69.22 547.97 73.04
  A 0.92 0.92 -88.8 0 0 548.89 74.00
  L 562.62 74.00
  A 1.31 1.31 -88.6 0 0 563.93 72.75
  Q 564.32 64.65 563.56 58.00
  A 1.67 1.08 29.5 0 0 563.12 57.16
  L 559.25 53.04
  Q 560.23 53.04 561.19 53.31
  Q 561.57 54.08 561.90 53.29
  A 0.98 0.91 -83.1 0 1 562.56 52.73
  L 565.52 52.12
  A 1.46 1.42 -36.9 0 1 566.45 52.24
  Q 568.96 53.45 568.04 50.25
  C 570.57 51.70 571.93 53.37 571.95 56.51
  Q 572.04 68.98 572.00 81.15
  A 0.85 0.85 -0.0 0 1 571.15 82.00
  L 444.87 82.00
  A 0.87 0.86 0.0 0 1 444.00 81.14
  L 444.04 66.50
  Q 445.02 66.19 444.90 65.05
  A 0.45 0.42 86.3 0 1 445.31 64.55
  L 451.06 64.45
  A 0.59 0.59 83.5 0 1 451.65 64.92
  L 451.96 66.50
  L 452.00 73.13
  A 0.88 0.86 89.7 0 0 452.86 74.00
  L 467.21 73.94
  A 0.81 0.79 -90.0 0 0 468.00 73.13
  L 468.06 50.78
  Q 468.06 49.95 468.65 50.53
  Q 475.72 57.53 482.08 63.92
  Q 484.83 66.67 483.98 70.74
  Q 483.21 74.40 486.32 74.14
  C 490.40 73.81 494.72 74.00 499.23 74.00
  A 0.77 0.76 0.0 0 0 500.00 73.24
  L 500.00 64.19
  Z"
/>
<path fill="#8c8c89" d="
  M 262.05 52.16
  C 264.55 53.11 268.00 57.21 269.71 59.25
  Q 269.41 59.40 269.46 59.75
  Q 265.17 56.56 262.05 52.16
  Z"
/>
<path fill="#59534d" fill-opacity="0.686" d="
  M 519.96 54.00
  Q 519.61 55.61 518.00 55.96
  Q 518.59 54.60 519.96 54.00
  Z"
/>
<path fill="#7c7a79" d="
  M 246.83 56.45
  C 251.91 61.10 256.57 66.26 261.78 70.70
  Q 263.08 71.82 263.61 73.72
  Q 260.68 71.42 258.15 68.79
  Q 256.04 66.61 252.92 63.65
  Q 249.49 60.41 246.83 56.45
  Z"
/>
<path fill="#8c8c89" d="
  M 269.71 59.25
  Q 273.18 61.96 275.69 65.63
  Q 271.74 63.43 269.46 59.75
  Q 269.41 59.40 269.71 59.25
  Z"
/>
<path fill="#7c7a79" d="
  M 100.22 66.21
  Q 105.03 68.98 107.61 73.66
  C 105.40 72.35 101.40 68.48 100.22 66.21
  Z"
/>
<path fill="#8c8c89" d="
  M 147.71 66.25
  Q 148.02 68.08 146.04 68.00
  Q 145.86 66.03 147.71 66.25
  Z"
/>
<path fill="#7c7a79" d="
  M 403.77 66.27
  Q 400.82 70.74 396.09 73.79
  Q 396.83 72.51 400.00 69.25
  Q 402.39 66.80 403.77 66.27
  Z"
/>
<path fill="#7c7a79" d="
  M 145.96 68.25
  Q 145.84 69.81 144.25 69.79
  Q 143.83 67.69 145.96 68.25
  Z"
/>
<path fill="#7c7a79" d="
  M 144.00 70.04
  Q 143.90 71.94 142.00 71.96
  Q 141.95 69.87 144.00 70.04
  Z"
/>
<path fill="#747d75" fill-opacity="0.859" d="
  M 409.71 72.00
  Q 410.14 73.93 408.04 73.75
  Q 408.25 72.29 409.71 72.00
  Z"
/>
<path fill="#7c7a79" d="
  M 141.71 72.25
  Q 142.06 74.03 140.25 73.71
  Q 139.91 71.91 141.71 72.25
  Z"
/>
<path fill="#747d75" fill-opacity="0.859" d="
  M 407.71 74.25
  Q 407.72 75.72 406.25 75.71
  Q 406.24 74.14 407.71 74.25
  Z"
/>
<path fill="#747d75" fill-opacity="0.859" d="
  M 405.75 76.04
  Q 405.52 77.73 403.75 77.96
  Q 404.37 76.59 405.75 76.04
  Z"
/>
<path fill="#8c8c89" d="
  M 196.29 78.25
  Q 198.59 79.17 199.50 81.46
  Q 197.25 80.51 196.29 78.25
  Z"
/>
<path fill="#59534d" fill-opacity="0.686" d="
  M 403.46 78.25
  Q 403.63 79.88 401.79 79.75
  Q 402.39 78.72 403.46 78.25
  Z"
/>
<path fill="#747d75" fill-opacity="0.859" d="
  M 401.46 80.25
  Q 401.59 81.59 400.25 81.46
  Q 400.36 80.27 401.46 80.25
  Z"
/>
</svg>
