<?xml version="1.0" encoding="UTF-8" standalone="no"?>
<!DOCTYPE svg PUBLIC "-//W3C//DTD SVG 1.1//EN" "http://www.w3.org/Graphics/SVG/1.1/DTD/svg11.dtd">
<svg xmlns="http://www.w3.org/2000/svg" version="1.1" viewBox="0 0 600 162">
<g stroke-width="2.00" fill="none" stroke-linecap="butt">
<path stroke="#8cb4d9" vector-effect="non-scaling-stroke" d="
  M 84.04 97.45
  Q 95.94 96.64 108.83 97.02
  A 0.89 0.89 0.9 0 0 109.75 96.13
  L 109.71 42.50"
/>
<path stroke="#80a7d4" vector-effect="non-scaling-stroke" d="
  M 109.71 42.50
  L 109.68 6.22
  Q 109.68 4.43 108.70 5.93
  L 10.63 154.93
  Q 10.09 155.75 11.07 155.75
  L 45.18 155.75
  A 0.96 0.95 16.3 0 0 45.98 155.32
  L 84.04 97.45"
/>
<path stroke="#0d5bae" vector-effect="non-scaling-stroke" d="
  M 109.71 42.50
  Q 109.75 45.69 108.46 48.54
  Q 108.25 49.02 108.24 48.50
  C 107.77 31.63 109.09 21.17 107.79 10.66
  Q 107.69 9.85 107.25 10.53
  Q 84.71 45.01 62.13 79.06
  Q 37.83 115.72 13.48 153.07
  Q 12.82 154.08 14.01 154.08
  L 43.99 154.04
  A 2.93 2.80 -72.7 0 0 46.35 152.73
  L 82.23 97.91
  A 1.38 0.88 -69.8 0 1 82.98 97.34
  Q 83.48 97.25 84.04 97.45"
/>
<path stroke="#f68e92" vector-effect="non-scaling-stroke" d="
  M 152.79 14.25
  L 152.81 35.70
  A 0.52 0.49 0.6 0 0 153.32 36.19
  L 194.98 36.46"
/>
<path stroke="#f58080" vector-effect="non-scaling-stroke" d="
  M 194.98 36.46
  L 226.05 5.82
  Q 226.38 5.50 225.92 5.50
  L 153.31 5.56
  A 0.51 0.51 90.0 0 0 152.80 6.07
  L 152.79 14.25"
/>
<path stroke="#ec0e13" vector-effect="non-scaling-stroke" d="
  M 194.98 36.46
  C 194.67 34.81 195.38 34.60 196.33 33.68
  Q 209.41 21.06 221.90 7.87
  A 0.33 0.32 -58.6 0 0 221.78 7.33
  Q 219.72 6.64 216.75 6.75
  C 198.04 7.41 176.18 6.54 156.35 6.97
  Q 153.73 7.03 154.15 9.61
  Q 154.64 12.71 152.79 14.25"
/>
<path stroke="#8cb4d9" vector-effect="non-scaling-stroke" d="
  M 144.46 83.75
  L 144.46 52.25"
/>
<path stroke="#80a7d4" vector-effect="non-scaling-stroke" d="
  M 144.46 52.25
  L 144.32 6.19
  A 0.51 0.50 90.0 0 0 143.82 5.68
  L 115.28 5.51
  A 0.79 0.78 -90.0 0 0 114.50 6.30
  L 114.68 155.05
  A 0.53 0.53 1.1 0 0 115.19 155.58
  Q 129.57 156.11 143.94 155.46
  A 0.52 0.51 -1.2 0 0 144.44 154.95
  L 144.46 83.75"
/>
<path stroke="#0d5bae" vector-effect="non-scaling-stroke" d="
  M 144.46 52.25
  Q 144.09 53.02 143.51 52.89
  A 0.73 0.54 -85.9 0 1 143.07 52.20
  L 143.44 7.62
  A 1.11 1.10 89.3 0 0 142.30 6.50
  L 116.51 7.23
  A 0.53 0.53 -1.0 0 0 115.99 7.75
  C 115.71 35.49 116.08 63.20 115.83 90.93
  Q 115.56 122.22 116.00 153.51
  A 0.95 0.93 -0.3 0 0 116.95 154.43
  L 142.30 154.43
  A 1.20 1.17 0.2 0 0 143.50 153.27
  Q 143.89 119.20 143.75 85.15
  C 143.75 84.62 143.38 83.02 144.46 83.75"
/>
<path stroke="#f68e92" vector-effect="non-scaling-stroke" d="
  M 197.28 43.98
  Q 196.67 48.74 196.81 53.81
  C 197.61 84.06 197.33 114.77 196.86 145.04
  Q 196.79 149.80 197.04 154.13"
/>
<path stroke="#f58080" vector-effect="non-scaling-stroke" d="
  M 197.04 154.13
  Q 196.76 154.85 196.82 155.26
  A 0.79 0.51 -2.7 0 0 197.57 155.70
  L 229.06 155.57
  A 0.50 0.50 0.0 0 0 229.56 155.07
  L 229.79 36.00"
/>
<path stroke="#f68e92" vector-effect="non-scaling-stroke" d="
  M 229.79 36.00
  L 268.16 36.20"
/>
<path stroke="#f58080" vector-effect="non-scaling-stroke" d="
  M 268.16 36.20
  C 269.13 36.49 269.75 36.33 269.75 35.20
  Q 269.79 20.63 269.69 6.05
  A 0.50 0.49 0.0 0 0 269.19 5.56
  L 234.01 5.50
  A 1.23 1.23 22.5 0 0 233.14 5.86
  Q 215.02 24.00 197.06 42.31
  Q 196.40 42.99 197.28 43.98"
/>
<path stroke="#ec0e13" vector-effect="non-scaling-stroke" d="
  M 268.16 36.20
  Q 267.50 34.91 267.69 33.36
  C 268.66 25.38 268.01 16.33 267.93 7.99
  A 0.75 0.73 90.0 0 0 267.20 7.24
  L 235.49 6.95
  Q 233.94 6.94 232.80 8.09
  L 197.28 43.98"
/>
<path stroke="#ec0e13" vector-effect="non-scaling-stroke" d="
  M 229.79 36.00
  Q 228.90 35.52 228.31 36.09
  A 1.41 0.86 77.3 0 0 228.00 37.01
  L 228.00 152.74
  A 1.27 1.26 -0.2 0 1 226.74 154.00
  L 197.04 154.13"
/>
<path stroke="#80acd6" vector-effect="non-scaling-stroke" d="
  M 278.29 135.25
  L 278.25 155.24
  A 0.51 0.51 0.0 0 0 278.76 155.75
  L 350.30 155.57
  A 0.52 0.50 0.0 0 0 350.82 155.07
  L 350.82 124.19
  A 0.53 0.52 1.1 0 0 350.31 123.67
  Q 329.98 122.95 309.47 124.07"
/>
<path stroke="#8cb4d9" vector-effect="non-scaling-stroke" d="
  M 309.47 124.07
  Q 309.32 122.64 309.31 117.19
  Q 309.20 61.72 309.25 6.06
  A 0.56 0.56 -0.8 0 0 308.69 5.50
  L 278.81 5.50
  A 0.56 0.56 0.8 0 0 278.25 6.06
  L 278.29 135.25"
/>
<path stroke="#0d60b0" vector-effect="non-scaling-stroke" d="
  M 309.47 124.07
  Q 328.73 125.84 348.02 124.50
  A 1.34 1.30 88.4 0 1 349.41 125.86
  L 349.02 152.82
  A 1.20 1.16 -90.0 0 1 347.87 154.01
  L 281.60 154.24
  A 1.64 1.62 88.3 0 1 279.97 152.68
  Q 279.59 145.00 280.00 136.75
  Q 280.08 135.19 278.29 135.25"
/>
<path stroke="#80a7d4" vector-effect="non-scaling-stroke" d="
  M 387.56 6.16
  A 0.66 0.65 -90.0 0 0 386.91 5.50
  L 358.35 5.50
  A 0.78 0.77 -5.8 0 0 357.59 6.43
  Q 357.87 7.86 357.87 9.75
  Q 357.76 53.57 357.75 97.40
  Q 357.75 106.47 359.03 112.00
  C 366.28 143.30 396.23 163.22 428.08 152.81
  C 432.55 151.34 431.52 152.12 431.49 147.62
  Q 431.38 131.85 431.68 116.41
  Q 431.70 115.41 431.00 116.12
  C 414.06 133.35 387.61 121.39 387.56 97.25
  Q 387.45 51.91 387.56 6.16"
/>
<path stroke="#80acd6" vector-effect="non-scaling-stroke" d="
  M 436.54 76.50
  L 436.50 155.19
  A 0.56 0.56 0.0 0 0 437.06 155.75
  L 467.25 155.75
  A 0.50 0.50 0.0 0 0 467.75 155.25
  L 467.75 6.04
  A 0.52 0.50 89.5 0 0 467.24 5.52
  L 439.95 5.86"
/>
<path stroke="#8cb4d9" vector-effect="non-scaling-stroke" d="
  M 439.95 5.86
  Q 438.53 5.23 437.00 5.50
  A 0.61 0.61 84.9 0 0 436.50 6.10
  L 436.54 76.50"
/>
<path stroke="#0d60b0" vector-effect="non-scaling-stroke" d="
  M 439.95 5.86
  Q 452.38 7.78 465.01 7.00
  A 0.93 0.93 -1.7 0 1 466.00 7.93
  L 466.06 153.16
  A 0.85 0.83 90.0 0 1 465.23 154.01
  L 439.10 154.02
  A 1.11 1.08 89.5 0 1 438.02 152.93
  Q 437.47 117.03 437.94 82.56
  Q 437.97 80.10 436.54 76.50"
/>
<path stroke="#80aad4" vector-effect="non-scaling-stroke" d="
  M 485.50 24.89
  C 482.25 30.13 479.66 34.69 478.74 40.84
  C 473.92 73.05 496.63 94.01 527.50 94.00
  C 538.76 94.00 551.61 91.24 557.12 104.27
  Q 558.75 108.13 558.00 111.00
  C 555.39 120.98 548.74 123.78 538.92 123.68
  Q 508.57 123.37 476.83 123.51
  A 0.77 0.75 90.0 0 0 476.08 124.28
  L 476.01 155.07
  A 0.67 0.66 -89.6 0 0 476.67 155.75
  Q 507.63 155.75 537.75 155.76
  C 603.32 155.79 609.46 64.16 542.50 63.74
  C 530.48 63.67 518.04 65.32 512.68 56.31
  C 509.28 50.60 510.17 45.76 513.44 40.19
  Q 523.51 23.05 533.91 5.90
  Q 534.15 5.50 533.68 5.50
  L 497.60 5.50
  A 0.90 0.89 -74.7 0 0 496.83 5.94
  C 493.08 12.33 490.03 17.58 485.50 24.89"
/>
<path stroke="#80aad4" vector-effect="non-scaling-stroke" d="
  M 540.17 5.97
  C 534.29 15.93 528.25 25.81 522.32 35.76
  Q 522.06 36.19 522.56 36.19
  L 571.74 36.25
  A 1.00 0.99 -74.7 0 0 572.60 35.75
  L 590.42 5.98
  Q 590.70 5.50 590.15 5.50
  L 541.00 5.50
  A 0.97 0.96 15.3 0 0 540.17 5.97"
/>
<path stroke="#0d5bae" vector-effect="non-scaling-stroke" d="
  M 428.56 119.87
  C 412.53 130.68 392.56 124.47 387.29 105.66
  Q 386.24 101.91 386.28 93.73
  Q 386.49 50.58 385.81 7.42
  A 0.48 0.47 89.4 0 0 385.33 6.94
  L 359.49 7.24
  A 0.53 0.50 -89.4 0 0 358.99 7.76
  Q 358.61 45.76 358.72 83.76
  Q 358.76 101.17 359.02 103.73
  Q 361.01 123.24 374.62 138.38
  C 388.77 154.13 409.46 157.64 429.16 151.20
  A 0.97 0.96 -8.0 0 0 429.82 150.33
  Q 430.66 135.81 429.91 120.55
  Q 429.84 119.01 428.56 119.87"
/>
<path stroke="#0d5eae" vector-effect="non-scaling-stroke" d="
  M 492.94 81.36
  Q 493.62 82.07 494.40 82.67
  C 505.64 91.30 519.31 93.12 533.50 92.00
  C 543.93 91.17 556.51 94.42 559.17 105.67
  C 560.99 113.33 556.21 120.43 549.26 123.27
  Q 546.14 124.55 540.17 124.54
  C 527.08 124.52 513.63 125.01 500.94 124.87
  Q 489.60 124.74 478.26 124.75
  A 0.51 0.49 0.0 0 0 477.75 125.24
  L 477.81 153.20
  A 0.83 0.81 0.0 0 0 478.63 154.00
  Q 509.53 154.54 540.56 154.31
  Q 546.05 154.26 554.56 152.06
  C 578.00 146.01 589.25 126.84 588.20 103.82
  C 587.30 83.74 572.17 68.39 552.52 66.04
  Q 538.10 64.32 529.50 64.75
  C 516.03 65.42 503.51 55.02 511.75 41.00
  Q 521.42 24.54 531.07 8.05
  Q 531.80 6.81 530.34 6.81
  L 498.92 6.99
  A 1.75 1.69 15.0 0 0 497.47 7.79
  C 493.40 14.44 489.45 21.28 485.21 27.94
  C 474.39 44.95 479.49 67.32 492.94 81.36"
/>
<path stroke="#0d5eae" vector-effect="non-scaling-stroke" d="
  M 583.33 6.72
  Q 563.86 7.18 542.73 6.98
  A 2.68 2.65 -73.9 0 0 540.44 8.26
  L 524.99 33.51
  A 1.28 1.28 -61.5 0 0 525.53 35.34
  C 527.13 36.09 533.10 34.73 536.37 34.92
  C 547.89 35.62 559.64 35.01 571.19 34.94
  A 0.90 0.87 -74.3 0 0 571.95 34.50
  Q 579.36 22.35 586.71 10.15
  C 589.56 5.41 586.26 6.65 583.33 6.72"
/>
</g>
<path fill="#ffffff" d="
  M 351.79 0.00
  L 352.56 0.00
  L 392.75 0.21
  Q 393.00 0.68 393.00 2.00
  Q 393.00 49.00 393.00 96.00
  C 393.00 116.60 415.98 125.48 429.37 108.79
  A 4.02 4.01 64.4 0 0 430.25 106.28
  L 430.25 1.12
  A 0.87 0.87 -2.2 0 1 431.12 0.25
  L 471.50 0.21
  Q 472.07 0.13 472.51 0.30
  A 0.85 0.68 -80.6 0 1 472.94 1.06
  L 472.83 34.03
  Q 472.82 35.61 473.43 34.16
  Q 474.91 30.65 476.79 27.55
  Q 484.75 14.48 492.54 1.30
  Q 493.29 0.05 494.75 0.21
  L 599.25 0.21
  Q 600.08 0.94 599.47 1.52
  Q 598.93 2.03 598.80 2.25
  L 575.07 41.89
  A 0.89 0.87 -74.0 0 1 574.32 42.32
  L 519.31 42.32
  A 0.96 0.87 14.9 0 0 518.53 42.72
  C 512.31 52.09 519.71 58.50 529.00 58.36
  C 538.91 58.21 549.76 58.18 558.77 60.52
  C 603.26 72.06 606.60 132.07 569.27 153.94
  Q 556.95 161.14 542.00 161.79
  L 430.93 161.56
  A 0.59 0.53 84.9 0 1 430.40 161.06
  L 430.06 159.04
  A 0.49 0.44 -12.9 0 0 429.45 158.70
  Q 418.47 161.93 407.00 161.54
  C 384.18 160.36 366.29 145.30 357.21 125.20
  Q 356.56 123.78 356.56 125.34
  L 356.50 161.17
  A 0.52 0.51 0.0 0 1 355.98 161.68
  L 272.68 161.69
  A 0.43 0.43 0.0 0 1 272.25 161.26
  L 272.25 43.05
  A 0.56 0.55 0.0 0 0 271.69 42.50
  L 236.21 42.44
  A 0.71 0.70 0.0 0 0 235.50 43.14
  L 235.44 161.19
  A 0.49 0.49 0.0 0 1 234.95 161.68
  L 191.87 161.68
  A 0.62 0.60 0.0 0 1 191.25 161.08
  L 191.25 43.19
  A 0.69 0.69 0.0 0 0 190.56 42.50
  L 151.31 42.50
  A 0.56 0.56 0.0 0 0 150.75 43.06
  L 150.75 160.44
  A 0.56 0.56 0.0 0 1 150.19 161.00
  L 109.94 161.00
  A 0.69 0.69 0.0 0 1 109.25 160.31
  L 109.25 103.41
  A 0.91 0.90 -90.0 0 0 108.35 102.50
  L 88.80 102.56
  A 0.95 0.91 -72.6 0 0 88.03 102.98
  L 49.46 161.27
  A 0.89 0.89 16.9 0 1 48.69 161.68
  Q 26.62 161.37 4.55 161.49
  C 3.16 161.50 1.58 162.23 0.00 161.19
  L 0.00 160.94
  Q 4.08 155.08 24.56 124.06
  Q 65.24 62.48 105.82 0.82
  Q 106.15 0.30 106.75 0.21
  L 314.50 0.21
  Q 315.00 0.70 315.00 2.25
  Q 314.97 59.78 314.94 117.30
  A 0.52 0.50 90.0 0 0 315.44 117.82
  L 353.44 117.94
  A 0.39 0.38 82.5 0 0 353.81 117.45
  Q 351.54 108.79 351.56 105.19
  Q 351.86 52.59 351.79 0.00
  Z
  M 84.04 97.45
  Q 95.94 96.64 108.83 97.02
  A 0.89 0.89 0.9 0 0 109.75 96.13
  L 109.71 42.50
  L 109.68 6.22
  Q 109.68 4.43 108.70 5.93
  L 10.63 154.93
  Q 10.09 155.75 11.07 155.75
  L 45.18 155.75
  A 0.96 0.95 16.3 0 0 45.98 155.32
  L 84.04 97.45
  Z
  M 152.79 14.25
  L 152.81 35.70
  A 0.52 0.49 0.6 0 0 153.32 36.19
  L 194.98 36.46
  L 226.05 5.82
  Q 226.38 5.50 225.92 5.50
  L 153.31 5.56
  A 0.51 0.51 90.0 0 0 152.80 6.07
  L 152.79 14.25
  Z
  M 144.46 83.75
  L 144.46 52.25
  L 144.32 6.19
  A 0.51 0.50 90.0 0 0 143.82 5.68
  L 115.28 5.51
  A 0.79 0.78 -90.0 0 0 114.50 6.30
  L 114.68 155.05
  A 0.53 0.53 1.1 0 0 115.19 155.58
  Q 129.57 156.11 143.94 155.46
  A 0.52 0.51 -1.2 0 0 144.44 154.95
  L 144.46 83.75
  Z
  M 197.28 43.98
  Q 196.67 48.74 196.81 53.81
  C 197.61 84.06 197.33 114.77 196.86 145.04
  Q 196.79 149.80 197.04 154.13
  Q 196.76 154.85 196.82 155.26
  A 0.79 0.51 -2.7 0 0 197.57 155.70
  L 229.06 155.57
  A 0.50 0.50 0.0 0 0 229.56 155.07
  L 229.79 36.00
  L 268.16 36.20
  C 269.13 36.49 269.75 36.33 269.75 35.20
  Q 269.79 20.63 269.69 6.05
  A 0.50 0.49 0.0 0 0 269.19 5.56
  L 234.01 5.50
  A 1.23 1.23 22.5 0 0 233.14 5.86
  Q 215.02 24.00 197.06 42.31
  Q 196.40 42.99 197.28 43.98
  Z
  M 278.29 135.25
  L 278.25 155.24
  A 0.51 0.51 0.0 0 0 278.76 155.75
  L 350.30 155.57
  A 0.52 0.50 0.0 0 0 350.82 155.07
  L 350.82 124.19
  A 0.53 0.52 1.1 0 0 350.31 123.67
  Q 329.98 122.95 309.47 124.07
  Q 309.32 122.64 309.31 117.19
  Q 309.20 61.72 309.25 6.06
  A 0.56 0.56 -0.8 0 0 308.69 5.50
  L 278.81 5.50
  A 0.56 0.56 0.8 0 0 278.25 6.06
  L 278.29 135.25
  Z
  M 387.56 6.16
  A 0.66 0.65 -90.0 0 0 386.91 5.50
  L 358.35 5.50
  A 0.78 0.77 -5.8 0 0 357.59 6.43
  Q 357.87 7.86 357.87 9.75
  Q 357.76 53.57 357.75 97.40
  Q 357.75 106.47 359.03 112.00
  C 366.28 143.30 396.23 163.22 428.08 152.81
  C 432.55 151.34 431.52 152.12 431.49 147.62
  Q 431.38 131.85 431.68 116.41
  Q 431.70 115.41 431.00 116.12
  C 414.06 133.35 387.61 121.39 387.56 97.25
  Q 387.45 51.91 387.56 6.16
  Z
  M 436.54 76.50
  L 436.50 155.19
  A 0.56 0.56 0.0 0 0 437.06 155.75
  L 467.25 155.75
  A 0.50 0.50 0.0 0 0 467.75 155.25
  L 467.75 6.04
  A 0.52 0.50 89.5 0 0 467.24 5.52
  L 439.95 5.86
  Q 438.53 5.23 437.00 5.50
  A 0.61 0.61 84.9 0 0 436.50 6.10
  L 436.54 76.50
  Z
  M 485.50 24.89
  C 482.25 30.13 479.66 34.69 478.74 40.84
  C 473.92 73.05 496.63 94.01 527.50 94.00
  C 538.76 94.00 551.61 91.24 557.12 104.27
  Q 558.75 108.13 558.00 111.00
  C 555.39 120.98 548.74 123.78 538.92 123.68
  Q 508.57 123.37 476.83 123.51
  A 0.77 0.75 90.0 0 0 476.08 124.28
  L 476.01 155.07
  A 0.67 0.66 -89.6 0 0 476.67 155.75
  Q 507.63 155.75 537.75 155.76
  C 603.32 155.79 609.46 64.16 542.50 63.74
  C 530.48 63.67 518.04 65.32 512.68 56.31
  C 509.28 50.60 510.17 45.76 513.44 40.19
  Q 523.51 23.05 533.91 5.90
  Q 534.15 5.50 533.68 5.50
  L 497.60 5.50
  A 0.90 0.89 -74.7 0 0 496.83 5.94
  C 493.08 12.33 490.03 17.58 485.50 24.89
  Z
  M 540.17 5.97
  C 534.29 15.93 528.25 25.81 522.32 35.76
  Q 522.06 36.19 522.56 36.19
  L 571.74 36.25
  A 1.00 0.99 -74.7 0 0 572.60 35.75
  L 590.42 5.98
  Q 590.70 5.50 590.15 5.50
  L 541.00 5.50
  A 0.97 0.96 15.3 0 0 540.17 5.97
  Z
  M 542.44 117.94
  C 550.05 118.04 555.29 106.83 547.92 102.33
  Q 545.51 100.86 540.62 100.63
  Q 531.31 100.18 522.00 99.80
  C 498.85 98.85 479.92 86.38 473.55 63.49
  Q 473.38 62.86 473.15 62.83
  A 0.63 0.30 -89.1 0 0 472.82 63.49
  L 472.99 117.21
  A 0.74 0.73 89.2 0 0 473.73 117.94
  Q 508.00 117.47 542.44 117.94
  Z"
/>
<path fill="#004ea8" d="
  M 109.71 42.50
  Q 109.75 45.69 108.46 48.54
  Q 108.25 49.02 108.24 48.50
  C 107.77 31.63 109.09 21.17 107.79 10.66
  Q 107.69 9.85 107.25 10.53
  Q 84.71 45.01 62.13 79.06
  Q 37.83 115.72 13.48 153.07
  Q 12.82 154.08 14.01 154.08
  L 43.99 154.04
  A 2.93 2.80 -72.7 0 0 46.35 152.73
  L 82.23 97.91
  A 1.38 0.88 -69.8 0 1 82.98 97.34
  Q 83.48 97.25 84.04 97.45
  L 45.98 155.32
  A 0.96 0.95 16.3 0 1 45.18 155.75
  L 11.07 155.75
  Q 10.09 155.75 10.63 154.93
  L 108.70 5.93
  Q 109.68 4.43 109.68 6.22
  L 109.71 42.50
  Z"
/>
<path fill="#eb0001" d="
  M 194.98 36.46
  C 194.67 34.81 195.38 34.60 196.33 33.68
  Q 209.41 21.06 221.90 7.87
  A 0.33 0.32 -58.6 0 0 221.78 7.33
  Q 219.72 6.64 216.75 6.75
  C 198.04 7.41 176.18 6.54 156.35 6.97
  Q 153.73 7.03 154.15 9.61
  Q 154.64 12.71 152.79 14.25
  L 152.80 6.07
  A 0.51 0.51 89.4 0 1 153.31 5.56
  L 225.92 5.50
  Q 226.38 5.50 226.05 5.82
  L 194.98 36.46
  Z"
/>
<path fill="#004ea8" d="
  M 144.46 52.25
  Q 144.09 53.02 143.51 52.89
  A 0.73 0.54 -85.9 0 1 143.07 52.20
  L 143.44 7.62
  A 1.11 1.10 89.3 0 0 142.30 6.50
  L 116.51 7.23
  A 0.53 0.53 -1.0 0 0 115.99 7.75
  C 115.71 35.49 116.08 63.20 115.83 90.93
  Q 115.56 122.22 116.00 153.51
  A 0.95 0.93 -0.3 0 0 116.95 154.43
  L 142.30 154.43
  A 1.20 1.17 0.2 0 0 143.50 153.27
  Q 143.89 119.20 143.75 85.15
  C 143.75 84.62 143.38 83.02 144.46 83.75
  L 144.44 154.95
  A 0.52 0.51 -1.2 0 1 143.94 155.46
  Q 129.57 156.11 115.19 155.58
  A 0.53 0.53 1.1 0 1 114.68 155.05
  L 114.50 6.30
  A 0.79 0.78 90.0 0 1 115.28 5.51
  L 143.82 5.68
  A 0.51 0.50 -90.0 0 1 144.32 6.19
  L 144.46 52.25
  Z"
/>
<path fill="#eb0001" d="
  M 268.16 36.20
  Q 267.50 34.91 267.69 33.36
  C 268.66 25.38 268.01 16.33 267.93 7.99
  A 0.75 0.73 90.0 0 0 267.20 7.24
  L 235.49 6.95
  Q 233.94 6.94 232.80 8.09
  L 197.28 43.98
  Q 196.40 42.99 197.06 42.31
  Q 215.02 24.00 233.14 5.86
  A 1.23 1.23 22.5 0 1 234.01 5.50
  L 269.19 5.56
  A 0.50 0.49 -0.0 0 1 269.69 6.05
  Q 269.79 20.63 269.75 35.20
  C 269.75 36.33 269.13 36.49 268.16 36.20
  Z"
/>
<path fill="#1968b3" d="
  M 309.47 124.07
  Q 328.73 125.84 348.02 124.50
  A 1.34 1.30 88.4 0 1 349.41 125.86
  L 349.02 152.82
  A 1.20 1.16 -90.0 0 1 347.87 154.01
  L 281.60 154.24
  A 1.64 1.62 88.3 0 1 279.97 152.68
  Q 279.59 145.00 280.00 136.75
  Q 280.08 135.19 278.29 135.25
  L 278.25 6.06
  A 0.56 0.56 2.5 0 1 278.81 5.50
  L 308.69 5.50
  A 0.56 0.56 -2.5 0 1 309.25 6.06
  Q 309.20 61.72 309.31 117.19
  Q 309.32 122.64 309.47 124.07
  Z"
/>
<path fill="#004ea8" d="
  M 387.56 6.16
  Q 387.45 51.91 387.56 97.25
  C 387.61 121.39 414.06 133.35 431.00 116.12
  Q 431.70 115.41 431.68 116.41
  Q 431.38 131.85 431.49 147.62
  C 431.52 152.12 432.55 151.34 428.08 152.81
  C 396.23 163.22 366.28 143.30 359.03 112.00
  Q 357.75 106.47 357.75 97.40
  Q 357.76 53.57 357.87 9.75
  Q 357.87 7.86 357.59 6.43
  A 0.78 0.77 -5.8 0 1 358.35 5.50
  L 386.91 5.50
  A 0.66 0.65 90.0 0 1 387.56 6.16
  Z
  M 428.56 119.87
  C 412.53 130.68 392.56 124.47 387.29 105.66
  Q 386.24 101.91 386.28 93.73
  Q 386.49 50.58 385.81 7.42
  A 0.48 0.47 89.4 0 0 385.33 6.94
  L 359.49 7.24
  A 0.53 0.50 -89.4 0 0 358.99 7.76
  Q 358.61 45.76 358.72 83.76
  Q 358.76 101.17 359.02 103.73
  Q 361.01 123.24 374.62 138.38
  C 388.77 154.13 409.46 157.64 429.16 151.20
  A 0.97 0.96 -8.0 0 0 429.82 150.33
  Q 430.66 135.81 429.91 120.55
  Q 429.84 119.01 428.56 119.87
  Z"
/>
<path fill="#1968b3" d="
  M 439.95 5.86
  Q 452.38 7.78 465.01 7.00
  A 0.93 0.93 -1.7 0 1 466.00 7.93
  L 466.06 153.16
  A 0.85 0.83 90.0 0 1 465.23 154.01
  L 439.10 154.02
  A 1.11 1.08 89.5 0 1 438.02 152.93
  Q 437.47 117.03 437.94 82.56
  Q 437.97 80.10 436.54 76.50
  L 436.50 6.10
  A 0.61 0.61 84.9 0 1 437.00 5.50
  Q 438.53 5.23 439.95 5.86
  Z"
/>
<path fill="#0158ad" d="
  M 439.95 5.86
  L 467.24 5.52
  A 0.52 0.50 89.5 0 1 467.75 6.04
  L 467.75 155.25
  A 0.50 0.50 0.0 0 1 467.25 155.75
  L 437.06 155.75
  A 0.56 0.56 0.0 0 1 436.50 155.19
  L 436.54 76.50
  Q 437.97 80.10 437.94 82.56
  Q 437.47 117.03 438.02 152.93
  A 1.11 1.08 89.5 0 0 439.10 154.02
  L 465.23 154.01
  A 0.85 0.83 90.0 0 0 466.06 153.16
  L 466.00 7.93
  A 0.93 0.93 -1.7 0 0 465.01 7.00
  Q 452.38 7.78 439.95 5.86
  Z"
/>
<path fill="#0154a9" d="
  M 485.50 24.89
  C 490.03 17.58 493.08 12.33 496.83 5.94
  A 0.90 0.89 -74.7 0 1 497.60 5.50
  L 533.68 5.50
  Q 534.15 5.50 533.91 5.90
  Q 523.51 23.05 513.44 40.19
  C 510.17 45.76 509.28 50.60 512.68 56.31
  C 518.04 65.32 530.48 63.67 542.50 63.74
  C 609.46 64.16 603.32 155.79 537.75 155.76
  Q 507.63 155.75 476.67 155.75
  A 0.67 0.66 -89.6 0 1 476.01 155.07
  L 476.08 124.28
  A 0.77 0.75 -90.0 0 1 476.83 123.51
  Q 508.57 123.37 538.92 123.68
  C 548.74 123.78 555.39 120.98 558.00 111.00
  Q 558.75 108.13 557.12 104.27
  C 551.61 91.24 538.76 94.00 527.50 94.00
  C 496.63 94.01 473.92 73.05 478.74 40.84
  C 479.66 34.69 482.25 30.13 485.50 24.89
  Z
  M 492.94 81.36
  Q 493.62 82.07 494.40 82.67
  C 505.64 91.30 519.31 93.12 533.50 92.00
  C 543.93 91.17 556.51 94.42 559.17 105.67
  C 560.99 113.33 556.21 120.43 549.26 123.27
  Q 546.14 124.55 540.17 124.54
  C 527.08 124.52 513.63 125.01 500.94 124.87
  Q 489.60 124.74 478.26 124.75
  A 0.51 0.49 0.0 0 0 477.75 125.24
  L 477.81 153.20
  A 0.83 0.81 0.0 0 0 478.63 154.00
  Q 509.53 154.54 540.56 154.31
  Q 546.05 154.26 554.56 152.06
  C 578.00 146.01 589.25 126.84 588.20 103.82
  C 587.30 83.74 572.17 68.39 552.52 66.04
  Q 538.10 64.32 529.50 64.75
  C 516.03 65.42 503.51 55.02 511.75 41.00
  Q 521.42 24.54 531.07 8.05
  Q 531.80 6.81 530.34 6.81
  L 498.92 6.99
  A 1.75 1.69 15.0 0 0 497.47 7.79
  C 493.40 14.44 489.45 21.28 485.21 27.94
  C 474.39 44.95 479.49 67.32 492.94 81.36
  Z"
/>
<path fill="#0154a9" d="
  M 522.32 35.76
  C 528.25 25.81 534.29 15.93 540.17 5.97
  A 0.97 0.96 15.3 0 1 541.00 5.50
  L 590.15 5.50
  Q 590.70 5.50 590.42 5.98
  L 572.60 35.75
  A 1.00 0.99 -74.7 0 1 571.74 36.25
  L 522.56 36.19
  Q 522.06 36.19 522.32 35.76
  Z
  M 583.33 6.72
  Q 563.86 7.18 542.73 6.98
  A 2.68 2.65 -73.9 0 0 540.44 8.26
  L 524.99 33.51
  A 1.28 1.28 -61.5 0 0 525.53 35.34
  C 527.13 36.09 533.10 34.73 536.37 34.92
  C 547.89 35.62 559.64 35.01 571.19 34.94
  A 0.90 0.87 -74.3 0 0 571.95 34.50
  Q 579.36 22.35 586.71 10.15
  C 589.56 5.41 586.26 6.65 583.33 6.72
  Z"
/>
<path fill="#1968b3" d="
  M 144.46 52.25
  L 144.46 83.75
  C 143.38 83.02 143.75 84.62 143.75 85.15
  Q 143.89 119.20 143.50 153.27
  A 1.20 1.17 0.2 0 1 142.30 154.43
  L 116.95 154.43
  A 0.95 0.93 -0.3 0 1 116.00 153.51
  Q 115.56 122.22 115.83 90.93
  C 116.08 63.20 115.71 35.49 115.99 7.75
  A 0.53 0.53 -1.5 0 1 116.51 7.23
  L 142.30 6.50
  A 1.11 1.10 89.3 0 1 143.44 7.62
  L 143.07 52.20
  A 0.73 0.54 -85.9 0 0 143.51 52.89
  Q 144.09 53.02 144.46 52.25
  Z"
/>
<path fill="#1968b3" d="
  M 583.33 6.72
  C 586.26 6.65 589.56 5.41 586.71 10.15
  Q 579.36 22.35 571.95 34.50
  A 0.90 0.87 -74.3 0 1 571.19 34.94
  C 559.64 35.01 547.89 35.62 536.37 34.92
  C 533.10 34.73 527.13 36.09 525.53 35.34
  A 1.28 1.28 -61.5 0 1 524.99 33.51
  L 540.44 8.26
  A 2.68 2.65 -73.9 0 1 542.73 6.98
  Q 563.86 7.18 583.33 6.72
  Z"
/>
<path fill="#ed1c24" d="
  M 194.98 36.46
  L 153.32 36.19
  A 0.52 0.49 0.6 0 1 152.81 35.70
  L 152.79 14.25
  Q 154.64 12.71 154.15 9.61
  Q 153.73 7.03 156.35 6.97
  C 176.18 6.54 198.04 7.41 216.75 6.75
  Q 219.72 6.64 221.78 7.33
  A 0.33 0.32 -58.6 0 1 221.90 7.87
  Q 209.41 21.06 196.33 33.68
  C 195.38 34.60 194.67 34.81 194.98 36.46
  Z"
/>
<path fill="#ed1c24" d="
  M 268.16 36.20
  L 229.79 36.00
  Q 228.90 35.52 228.31 36.09
  A 1.41 0.86 77.3 0 0 228.00 37.01
  L 228.00 152.74
  A 1.27 1.26 -0.2 0 1 226.74 154.00
  L 197.04 154.13
  Q 196.79 149.80 196.86 145.04
  C 197.33 114.77 197.61 84.06 196.81 53.81
  Q 196.67 48.74 197.28 43.98
  L 232.80 8.09
  Q 233.94 6.94 235.49 6.95
  L 267.20 7.24
  A 0.75 0.73 -90.0 0 1 267.93 7.99
  C 268.01 16.33 268.66 25.38 267.69 33.36
  Q 267.50 34.91 268.16 36.20
  Z"
/>
<path fill="#1968b3" d="
  M 387.29 105.66
  C 392.56 124.47 412.53 130.68 428.56 119.87
  Q 429.84 119.01 429.91 120.55
  Q 430.66 135.81 429.82 150.33
  A 0.97 0.96 -8.0 0 1 429.16 151.20
  C 409.46 157.64 388.77 154.13 374.62 138.38
  Q 361.01 123.24 359.02 103.73
  Q 358.76 101.17 358.72 83.76
  Q 358.61 45.76 358.99 7.76
  A 0.53 0.50 -89.4 0 1 359.49 7.24
  L 385.33 6.94
  A 0.48 0.47 89.4 0 1 385.81 7.42
  Q 386.49 50.58 386.28 93.73
  Q 386.24 101.91 387.29 105.66
  Z"
/>
<path fill="#1968b3" d="
  M 492.94 81.36
  C 479.49 67.32 474.39 44.95 485.21 27.94
  C 489.45 21.28 493.40 14.44 497.47 7.79
  A 1.75 1.69 15.0 0 1 498.92 6.99
  L 530.34 6.81
  Q 531.80 6.81 531.07 8.05
  Q 521.42 24.54 511.75 41.00
  C 503.51 55.02 516.03 65.42 529.50 64.75
  Q 538.10 64.32 552.52 66.04
  C 572.17 68.39 587.30 83.74 588.20 103.82
  C 589.25 126.84 578.00 146.01 554.56 152.06
  Q 546.05 154.26 540.56 154.31
  Q 509.53 154.54 478.63 154.00
  A 0.83 0.81 0.0 0 1 477.81 153.20
  L 477.75 125.24
  A 0.51 0.49 0.0 0 1 478.26 124.75
  Q 489.60 124.74 500.94 124.87
  C 513.63 125.01 527.08 124.52 540.17 124.54
  Q 546.14 124.55 549.26 123.27
  C 556.21 120.43 560.99 113.33 559.17 105.67
  C 556.51 94.42 543.93 91.17 533.50 92.00
  C 519.31 93.12 505.64 91.30 494.40 82.67
  Q 493.62 82.07 492.94 81.36
  Z"
/>
<path fill="#1968b3" d="
  M 109.71 42.50
  L 109.75 96.13
  A 0.89 0.89 0.9 0 1 108.83 97.02
  Q 95.94 96.64 84.04 97.45
  Q 83.48 97.25 82.98 97.34
  A 1.38 0.88 -69.8 0 0 82.23 97.91
  L 46.35 152.73
  A 2.93 2.80 -72.7 0 1 43.99 154.04
  L 14.01 154.08
  Q 12.82 154.08 13.48 153.07
  Q 37.83 115.72 62.13 79.06
  Q 84.71 45.01 107.25 10.53
  Q 107.69 9.85 107.79 10.66
  C 109.09 21.17 107.77 31.63 108.24 48.50
  Q 108.25 49.02 108.46 48.54
  Q 109.75 45.69 109.71 42.50
  Z"
/>
<path fill="#eb0001" d="
  M 229.79 36.00
  L 229.56 155.07
  A 0.50 0.50 0.0 0 1 229.06 155.57
  L 197.57 155.70
  A 0.79 0.51 -2.7 0 1 196.82 155.26
  Q 196.76 154.85 197.04 154.13
  L 226.74 154.00
  A 1.27 1.26 -0.2 0 0 228.00 152.74
  L 228.00 37.01
  A 1.41 0.86 77.3 0 1 228.31 36.09
  Q 228.90 35.52 229.79 36.00
  Z"
/>
<path fill="#0158ad" d="
  M 309.47 124.07
  Q 329.98 122.95 350.31 123.67
  A 0.53 0.52 1.1 0 1 350.82 124.19
  L 350.82 155.07
  A 0.52 0.50 -0.0 0 1 350.30 155.57
  L 278.76 155.75
  A 0.51 0.51 0.0 0 1 278.25 155.24
  L 278.29 135.25
  Q 280.08 135.19 280.00 136.75
  Q 279.59 145.00 279.97 152.68
  A 1.64 1.62 88.3 0 0 281.60 154.24
  L 347.87 154.01
  A 1.20 1.16 -90.0 0 0 349.02 152.82
  L 349.41 125.86
  A 1.34 1.30 88.4 0 0 348.02 124.50
  Q 328.73 125.84 309.47 124.07
  Z"
/>
</svg>
