<?xml version="1.0" encoding="UTF-8" standalone="no"?>
<!DOCTYPE svg PUBLIC "-//W3C//DTD SVG 1.1//EN" "http://www.w3.org/Graphics/SVG/1.1/DTD/svg11.dtd">
<svg xmlns="http://www.w3.org/2000/svg" version="1.1" viewBox="0 0 600 300">
<path fill="#000000" d="
  M 348.53 68.83
  C 343.11 52.70 321.75 67.87 328.49 79.60
  Q 331.49 84.82 337.00 86.75
  C 346.25 89.99 355.39 97.26 355.67 107.72
  Q 356.11 123.72 342.40 132.63
  C 328.47 141.69 308.28 138.56 305.75 119.25
  Q 305.43 116.79 306.89 116.02
  C 307.80 115.55 310.73 114.84 312.17 114.97
  A 0.88 0.88 1.1 0 1 312.97 115.80
  C 313.52 124.94 321.01 134.00 330.95 130.99
  C 344.37 126.93 355.07 110.78 343.01 98.66
  C 334.87 90.49 318.55 90.75 319.51 75.25
  C 320.29 62.77 331.09 54.65 343.27 55.84
  Q 353.83 56.87 355.67 67.01
  A 0.80 0.76 67.9 0 1 355.36 67.79
  Q 352.58 69.75 349.17 69.38
  A 0.84 0.76 82.8 0 1 348.53 68.83
  Z"
/>
<path fill="#000000" d="
  M 411.74 130.67
  Q 410.87 129.64 410.63 130.97
  L 406.66 153.41
  A 1.24 1.14 -84.0 0 1 405.51 154.43
  L 399.94 154.37
  A 0.57 0.54 88.9 0 1 399.40 153.82
  Q 399.36 152.18 400.00 148.50
  Q 405.17 118.61 410.60 88.18
  A 1.34 1.21 -84.1 0 1 411.82 87.08
  L 417.75 87.17
  A 0.50 0.44 -84.4 0 1 418.16 87.75
  C 417.53 91.55 419.71 88.68 420.56 88.14
  C 439.05 76.41 466.96 83.29 462.59 110.22
  Q 460.44 123.47 449.06 131.56
  C 438.80 138.86 420.64 141.15 411.74 130.67
  Z
  M 443.42 89.65
  C 429.98 85.39 416.27 98.27 413.98 110.77
  C 412.25 120.20 417.40 128.54 426.64 131.01
  C 440.45 134.72 456.15 118.81 455.44 105.39
  C 455.06 98.28 450.03 91.75 443.42 89.65
  Z"
/>
<path fill="#000000" d="
  M 477.45 125.95
  A 0.91 0.90 -45.2 0 0 477.45 127.34
  C 486.47 134.87 497.58 131.14 505.14 123.85
  A 1.36 1.26 -66.6 0 1 506.00 123.47
  Q 509.47 123.30 511.74 124.69
  Q 513.58 125.81 512.05 127.32
  Q 500.49 138.81 484.50 137.50
  C 471.28 136.42 462.69 126.93 463.45 113.75
  C 464.59 93.74 482.76 80.22 502.11 83.02
  C 508.27 83.92 512.55 86.32 516.34 91.04
  A 1.44 1.43 50.5 0 1 516.16 93.04
  L 477.45 125.95
  Z
  M 477.19 98.94
  Q 469.55 107.74 472.11 119.77
  A 0.91 0.91 -26.3 0 0 473.59 120.27
  L 505.83 92.79
  A 0.49 0.49 42.2 0 0 505.79 92.00
  C 495.45 85.15 484.53 90.46 477.19 98.94
  Z"
/>
<path fill="#000000" d="
  M 530.95 91.38
  Q 536.30 87.18 542.98 85.92
  Q 547.80 85.01 546.20 89.04
  Q 546.03 89.47 546.09 89.99
  C 546.37 92.12 545.02 91.78 543.77 92.27
  Q 534.48 95.92 529.98 104.00
  Q 527.80 107.92 526.06 117.54
  Q 524.44 126.49 522.78 135.44
  A 0.73 0.58 -83.9 0 1 522.20 136.03
  L 516.23 136.16
  A 0.99 0.90 -85.2 0 1 515.34 135.00
  L 523.70 87.59
  A 0.72 0.72 -84.7 0 1 524.41 87.00
  L 530.27 87.00
  A 1.09 1.00 -83.5 0 1 531.23 88.31
  L 530.61 91.19
  Q 530.49 91.74 530.95 91.38
  Z"
/>
<path fill="#000000" d="
  M 361.70 87.64
  A 0.77 0.77 4.9 0 1 362.46 87.00
  L 368.78 87.00
  A 0.54 0.54 -84.7 0 1 369.31 87.64
  Q 366.73 102.12 364.12 116.23
  Q 362.29 126.07 371.00 130.25
  C 378.37 133.79 387.25 126.34 389.93 120.37
  Q 390.86 118.29 393.06 105.97
  Q 394.67 96.90 396.23 87.81
  A 0.72 0.70 89.5 0 1 396.80 87.22
  Q 400.00 86.63 403.20 87.22
  A 0.53 0.51 -81.5 0 1 403.62 87.81
  Q 400.40 110.45 398.31 118.81
  Q 394.68 133.37 380.50 136.50
  C 374.80 137.76 366.77 137.20 362.04 133.83
  C 355.95 129.49 355.53 121.81 356.81 114.81
  Q 359.29 101.26 361.70 87.64
  Z"
/>
<path fill="#000000" d="
  M 246.17 174.71
  Q 247.02 176.72 249.51 176.25
  Q 251.29 175.91 253.06 176.26
  C 255.79 176.80 254.97 179.78 254.40 181.85
  C 253.53 185.04 254.10 188.56 249.63 188.86
  Q 246.48 189.08 243.45 189.24
  A 1.31 1.30 -84.6 0 0 242.25 190.24
  Q 239.44 202.09 236.72 213.96
  C 235.77 218.10 236.51 219.67 240.76 220.34
  A 1.40 1.39 18.1 0 1 241.79 222.36
  Q 239.55 226.66 236.50 230.36
  Q 235.18 231.97 233.20 231.32
  Q 218.94 226.61 222.37 211.47
  Q 228.01 186.62 234.85 162.07
  C 236.15 157.39 243.99 159.00 247.77 159.00
  A 1.26 1.26 85.1 0 1 249.01 160.05
  C 249.44 162.56 248.23 165.13 247.90 166.89
  Q 247.26 170.39 246.15 173.78
  A 1.47 1.09 -54.6 0 0 246.17 174.71
  Z"
/>
<path fill="#000000" d="
  M 265.49 160.11
  A 2.88 2.78 -70.3 0 1 267.74 159.00
  L 276.84 159.04
  Q 279.24 159.05 278.69 161.43
  C 277.80 165.27 277.09 168.73 276.13 172.07
  C 273.99 179.58 283.11 173.84 284.35 177.72
  C 284.89 179.44 282.61 186.82 281.34 187.86
  C 276.34 191.93 273.08 183.94 270.45 194.73
  Q 268.27 203.70 266.27 212.72
  C 265.57 215.88 265.39 219.84 269.42 220.16
  Q 272.30 220.39 270.72 222.82
  C 268.24 226.63 266.29 232.88 260.44 230.31
  C 250.41 225.91 250.32 218.99 252.46 208.84
  Q 257.05 187.02 263.56 165.69
  C 264.07 164.00 264.05 161.99 265.49 160.11
  Z"
/>
<path fill="#000000" d="
  M 41.45 219.72
  C 43.34 220.12 46.41 219.25 45.53 222.86
  C 44.60 226.67 43.81 230.13 41.99 233.59
  A 2.07 2.06 19.6 0 1 39.75 234.65
  C 19.47 230.49 7.27 218.51 9.06 196.75
  Q 10.48 179.57 23.69 169.69
  C 34.83 161.35 48.27 159.36 61.86 159.99
  Q 64.23 160.10 63.75 162.23
  L 61.81 170.83
  Q 61.36 172.82 59.06 173.13
  Q 56.14 173.52 52.25 173.43
  C 41.18 173.18 27.43 179.30 24.49 191.06
  Q 18.53 214.87 41.45 219.72
  Z"
/>
<path fill="#000000" d="
  M 372.04 214.55
  Q 372.45 214.55 372.69 214.19
  Q 391.15 185.30 396.56 176.06
  C 400.23 169.80 404.98 163.73 411.94 161.45
  C 417.35 159.68 423.46 160.25 429.27 160.25
  Q 432.32 160.25 432.68 163.28
  C 432.85 164.73 431.73 170.23 428.99 170.07
  A 1.85 1.55 28.3 0 0 428.07 170.26
  C 424.52 172.17 417.61 168.96 414.81 173.06
  Q 396.19 200.40 377.80 230.02
  Q 376.63 231.92 374.39 231.96
  C 370.16 232.02 365.53 231.82 360.85 232.12
  Q 357.46 232.34 357.46 228.50
  Q 357.48 195.50 357.50 162.81
  A 1.85 1.85 -5.7 0 1 358.98 161.00
  Q 363.11 160.18 367.25 161.00
  Q 370.68 161.68 371.00 162.75
  Q 371.79 165.43 371.64 168.26
  C 371.15 177.02 371.59 185.79 371.03 194.47
  C 370.71 199.44 369.97 204.69 371.16 209.58
  Q 371.68 211.70 371.59 213.93
  A 0.60 0.46 -88.4 0 0 372.04 214.55
  Z"
/>
<path fill="#000000" d="
  M 466.94 163.42
  Q 467.34 161.82 469.54 161.49
  Q 474.01 160.83 478.93 161.26
  A 0.91 0.84 -8.0 0 1 479.66 161.76
  C 480.57 163.78 479.93 166.52 479.16 168.43
  C 477.70 172.00 470.01 170.85 466.55 170.37
  A 1.17 1.05 10.8 0 1 465.55 169.05
  L 466.94 163.42
  Z"
/>
<path fill="#000000" d="
  M 288.94 184.94
  C 305.22 168.10 332.17 170.69 341.51 193.63
  Q 342.34 195.66 340.37 196.60
  L 302.12 214.84
  Q 299.24 216.21 301.95 217.90
  Q 308.23 221.81 316.52 218.72
  Q 318.21 218.09 319.10 218.04
  Q 321.21 217.94 320.84 220.02
  C 319.27 228.67 319.51 231.73 309.50 231.89
  C 283.65 232.32 270.43 204.08 288.94 184.94
  Z
  M 316.01 187.92
  C 304.53 185.73 295.38 193.12 294.69 204.77
  A 0.95 0.94 -9.3 0 0 295.99 205.70
  Q 309.15 200.36 322.58 193.46
  A 1.11 1.11 -34.2 0 0 322.91 191.75
  Q 320.33 188.75 316.01 187.92
  Z"
/>
<path fill="#000000" d="
  M 184.55 217.93
  C 190.29 220.51 195.11 220.34 200.84 217.91
  Q 203.78 216.66 202.94 219.67
  L 200.06 230.06
  Q 199.56 231.89 197.55 232.24
  C 184.18 234.58 170.93 228.97 164.56 216.69
  C 155.75 199.70 168.94 181.80 185.07 176.60
  C 200.00 171.80 215.54 178.03 222.36 191.92
  C 223.34 193.93 224.52 195.21 223.52 197.62
  A 1.32 1.12 -3.9 0 1 222.86 198.26
  L 184.54 215.07
  Q 181.32 216.49 184.55 217.93
  Z
  M 204.73 190.66
  Q 188.46 182.14 178.88 196.65
  Q 176.36 200.45 176.75 205.02
  A 1.20 1.20 76.9 0 0 178.38 206.04
  Q 192.75 200.44 204.67 194.67
  Q 208.68 192.72 204.73 190.66
  Z"
/>
<path fill="#000000" d="
  M 55.20 185.95
  C 65.63 175.84 80.60 173.21 93.35 179.98
  C 101.31 184.21 107.19 192.94 107.56 202.11
  Q 107.71 205.96 106.01 213.27
  Q 103.98 222.00 101.65 230.19
  Q 100.83 233.07 97.97 233.00
  L 89.47 232.78
  Q 86.63 232.70 87.46 229.87
  Q 90.42 219.84 92.73 209.73
  Q 94.23 203.17 93.52 199.80
  C 91.56 190.41 79.35 186.17 71.44 189.63
  C 51.22 198.46 59.68 227.38 82.33 220.06
  Q 85.67 218.98 84.65 222.34
  C 83.21 227.07 83.87 233.85 77.16 234.09
  C 50.40 235.04 34.08 206.44 55.20 185.95
  Z"
/>
<path fill="#000000" d="
  M 140.81 176.44
  Q 143.07 176.44 142.50 178.75
  C 141.79 181.61 141.29 186.60 139.68 189.14
  C 138.04 191.74 135.17 192.14 133.94 195.44
  C 128.68 209.48 130.43 229.73 108.50 233.00
  C 102.73 233.86 106.46 224.38 107.21 221.77
  Q 107.79 219.73 109.61 218.64
  Q 112.69 216.77 113.81 212.94
  C 118.04 198.49 120.26 176.46 140.81 176.44
  Z"
/>
<path fill="#000000" d="
  M 163.44 176.68
  Q 166.56 176.77 165.82 179.80
  C 164.87 183.65 164.25 189.27 160.78 191.76
  C 155.92 195.27 155.84 199.76 154.54 205.11
  C 151.42 217.95 149.21 227.36 135.48 232.20
  Q 132.15 233.38 128.79 232.56
  A 0.71 0.67 -86.3 0 1 128.27 231.93
  C 127.92 226.85 128.97 220.59 133.50 218.00
  C 137.46 215.74 139.98 201.87 140.95 197.44
  C 143.20 187.19 152.08 176.33 163.44 176.68
  Z"
/>
<path fill="#000000" d="
  M 473.81 202.96
  C 476.74 186.40 493.72 175.90 509.50 176.50
  C 510.29 176.53 511.85 177.21 512.85 177.41
  C 530.53 180.84 542.45 198.83 532.75 215.72
  Q 522.53 233.55 501.68 233.20
  Q 501.28 233.19 500.75 233.45
  C 499.53 234.06 498.21 233.12 497.00 232.94
  C 482.87 230.89 471.22 217.67 473.81 202.96
  Z
  M 520.5972 198.6426
  A 17.70 16.13 -24.1 0 0 497.8536 191.1460
  A 17.70 16.13 -24.1 0 0 488.2828 213.0974
  A 17.70 16.13 -24.1 0 0 511.0264 220.5940
  A 17.70 16.13 -24.1 0 0 520.5972 198.6426
  Z"
/>
<path fill="#000000" d="
  M 433.54 196.47
  C 436.31 186.38 443.37 178.29 454.25 176.97
  Q 457.62 176.56 458.39 179.51
  A 1.78 0.86 -58.9 0 1 458.30 180.46
  L 455.63 188.17
  A 5.01 3.03 -87.0 0 1 454.10 190.43
  C 448.79 194.24 448.34 197.23 446.38 204.31
  C 443.20 215.80 441.58 225.73 429.50 231.33
  Q 425.67 233.10 421.69 232.77
  Q 419.51 232.58 420.00 230.53
  L 421.93 222.49
  Q 422.45 220.28 424.76 218.66
  C 430.18 214.86 429.73 209.23 431.72 203.06
  Q 431.76 202.96 433.54 196.47
  Z"
/>
<path fill="#000000" d="
  M 414.08 179.64
  C 415.48 177.03 423.62 177.37 425.98 177.80
  Q 428.80 178.31 428.04 181.08
  C 425.09 191.78 422.81 202.52 419.92 212.70
  C 418.05 219.34 416.80 229.27 414.08 231.63
  A 1.38 1.30 23.2 0 1 413.20 231.95
  L 404.26 231.99
  Q 401.12 232.01 401.89 228.93
  Q 406.22 211.59 410.72 193.69
  Q 412.21 187.77 413.15 182.33
  Q 413.39 180.91 414.08 179.64
  Z"
/>
<path fill="#000000" d="
  M 461.19 181.19
  C 462.09 177.47 471.07 177.98 474.11 178.07
  A 1.59 1.58 -10.3 0 1 475.53 179.05
  C 476.87 182.24 474.04 189.03 473.19 192.49
  Q 468.58 211.34 463.25 230.01
  Q 462.76 231.72 461.01 232.04
  Q 455.96 232.98 450.67 231.81
  Q 448.84 231.40 449.29 229.58
  Q 455.32 205.49 461.19 181.19
  Z"
/>
<path fill="#000000" d="
  M 548.19 179.92
  Q 548.87 178.24 550.68 178.33
  Q 559.16 178.79 568.01 178.43
  C 580.50 177.91 592.16 178.29 588.56 194.81
  Q 584.68 212.63 579.31 230.08
  Q 578.55 232.55 575.52 232.41
  L 567.21 232.02
  A 1.81 1.60 1.2 0 1 565.49 230.43
  Q 565.45 227.03 566.62 223.21
  Q 571.05 208.74 574.45 193.99
  Q 575.29 190.33 571.76 190.06
  Q 566.38 189.65 561.09 190.24
  Q 558.68 190.51 558.10 192.86
  Q 556.23 200.33 554.31 207.56
  C 552.74 213.50 550.03 221.03 548.35 227.91
  Q 548.01 229.31 546.85 231.39
  A 1.16 1.13 -75.3 0 1 545.85 231.99
  L 536.56 231.95
  A 1.56 1.36 -23.2 0 1 535.66 231.66
  C 533.65 230.08 534.69 228.29 535.14 226.28
  Q 537.52 215.56 540.60 205.02
  C 542.26 199.33 544.94 188.09 548.19 179.92
  Z"
/>
</svg>
