<?xml version="1.0" encoding="UTF-8" standalone="no"?>
<!DOCTYPE svg PUBLIC "-//W3C//DTD SVG 1.1//EN" "http://www.w3.org/Graphics/SVG/1.1/DTD/svg11.dtd">
<svg xmlns="http://www.w3.org/2000/svg" version="1.1" viewBox="0 0 600 300">
<path fill="#f8682c" d="
  M 244.19 111.81
  C 223.27 110.42 198.65 118.17 178.86 126.58
  Q 178.05 126.92 178.29 126.08
  L 209.31 18.58
  A 0.92 0.91 86.7 0 1 209.84 17.98
  C 229.02 9.81 252.83 3.01 273.74 3.90
  C 294.69 4.79 314.27 13.00 331.04 25.27
  A 0.70 0.69 26.3 0 1 331.30 26.03
  L 300.46 132.55
  A 0.85 0.85 25.5 0 1 299.16 133.01
  C 282.67 121.48 265.17 113.20 244.19 111.81
  Z"
/>
<path fill="#91c300" d="
  M 317.00 144.61
  C 327.35 108.76 337.39 73.03 347.97 37.63
  A 0.73 0.72 -63.4 0 1 349.10 37.25
  C 386.79 65.09 427.02 61.68 468.56 44.43
  C 471.95 43.03 469.70 45.08 469.43 46.03
  Q 454.05 98.72 438.83 151.46
  A 1.11 1.10 85.8 0 1 438.24 152.15
  Q 416.57 162.61 392.94 165.93
  C 364.34 169.94 340.95 161.82 317.52 146.03
  A 1.28 1.28 24.9 0 1 317.00 144.61
  Z"
/>
<path fill="#00b4f1" d="
  M 255.08 134.34
  C 269.14 137.50 282.71 144.97 294.45 153.11
  A 0.65 0.64 26.0 0 1 294.70 153.83
  L 263.08 261.96
  A 0.37 0.36 25.6 0 1 262.52 262.15
  Q 251.21 254.51 239.94 249.31
  C 208.44 234.78 172.69 241.40 142.26 254.91
  Q 141.29 255.33 141.59 254.32
  L 172.28 147.49
  A 2.98 2.95 87.1 0 1 174.00 145.57
  C 199.65 135.05 227.48 128.14 255.08 134.34
  Z"
/>
<path fill="#ffc300" d="
  M 280.60 272.14
  A 1.02 1.01 30.1 0 1 280.26 270.88
  Q 281.02 269.24 281.66 267.04
  Q 296.52 215.77 311.10 164.75
  A 0.76 0.75 24.7 0 1 312.25 164.33
  Q 321.46 170.52 331.11 175.34
  C 364.29 191.90 400.29 184.86 432.73 171.10
  Q 433.60 170.73 433.33 171.64
  L 402.20 278.58
  A 1.07 1.07 -3.7 0 1 401.60 279.26
  Q 379.48 288.79 357.25 292.25
  C 328.50 296.72 303.87 288.64 280.60 272.14
  Z"
/>
</svg>
