<?xml version="1.0" encoding="UTF-8" standalone="no"?>
<!DOCTYPE svg PUBLIC "-//W3C//DTD SVG 1.1//EN" "http://www.w3.org/Graphics/SVG/1.1/DTD/svg11.dtd">
<svg xmlns="http://www.w3.org/2000/svg" version="1.1" viewBox="0 0 600 300">
<g stroke-width="2.00" fill="none" stroke-linecap="butt">
<path stroke="#009add" vector-effect="non-scaling-stroke" d="
  M 410.54 72.75
  L 410.44 76.19
  A 0.50 0.48 -87.7 0 1 409.94 76.67
  Q 398.64 76.26 394.50 76.50
  Q 393.62 76.55 391.91 78.17"
/>
<path stroke="#0082b7" stroke-opacity="0.612" vector-effect="non-scaling-stroke" d="
  M 386.00 68.96
  C 378.33 57.91 371.03 48.96 360.60 41.04"
/>
<path stroke="#0073a3" stroke-opacity="0.690" vector-effect="non-scaling-stroke" d="
  M 360.60 41.04
  Q 341.32 29.39 318.97 26.35
  C 297.42 23.41 278.31 22.07 258.52 31.30
  C 240.42 39.73 221.98 52.71 210.96 69.75"
/>
<path stroke="#009add" vector-effect="non-scaling-stroke" d="
  M 210.96 69.75
  Q 209.02 71.51 208.10 73.97
  A 0.66 0.58 10.8 0 1 207.46 74.35
  Q 207.03 74.32 206.63 74.47
  A 1.24 0.69 -79.0 0 0 206.05 75.16
  C 205.20 77.35 199.94 76.37 198.08 76.34
  C 195.01 76.30 191.95 77.81 189.71 74.25"
/>
<path stroke="#008dd1" vector-effect="non-scaling-stroke" d="
  M 419.00 91.71
  L 418.31 92.37
  A 0.30 0.29 -34.0 0 1 417.83 92.28
  Q 417.29 91.02 416.51 91.80
  A 1.36 0.94 -59.8 0 1 415.68 92.19
  L 401.94 92.19
  Q 401.57 92.19 401.02 92.46
  C 399.76 93.07 398.94 91.20 397.54 91.00"
/>
<path stroke="#008dd1" vector-effect="non-scaling-stroke" d="
  M 205.75 79.29
  C 203.85 82.25 201.73 88.65 198.86 90.26
  C 195.40 92.19 189.79 90.86 186.01 90.76
  C 185.20 90.74 183.97 91.57 184.16 89.99
  A 1.09 0.52 40.3 0 0 183.83 89.26
  Q 183.54 88.93 183.71 88.25"
/>
<path stroke="#006091" stroke-opacity="0.690" vector-effect="non-scaling-stroke" d="
  M 201.68 88.16
  L 205.75 79.29"
/>
<path stroke="#006d9e" stroke-opacity="0.690" vector-effect="non-scaling-stroke" d="
  M 205.75 79.29
  L 210.96 69.75"
/>
<path stroke="#006091" stroke-opacity="0.690" vector-effect="non-scaling-stroke" d="
  M 423.54 120.75
  C 418.99 129.73 409.13 124.97 405.79 118.00"
/>
<path stroke="#0079bd" vector-effect="non-scaling-stroke" d="
  M 195.96 126.50
  L 195.62 124.93
  Q 195.52 124.49 195.39 124.93
  Q 195.11 125.85 194.86 125.13
  A 0.68 0.61 82.4 0 0 194.35 124.69
  Q 186.68 123.62 178.38 124.30
  A 0.60 0.57 -3.3 0 1 177.73 123.75
  L 177.46 114.75"
/>
<path stroke="#0067ad" vector-effect="non-scaling-stroke" d="
  M 196.91 138.24
  Q 197.11 141.13 195.91 139.53
  A 0.88 0.87 -21.3 0 0 195.10 139.18
  C 190.60 139.71 182.43 138.85 179.04 141.00"
/>
<path stroke="#005ca2" vector-effect="non-scaling-stroke" d="
  M 202.50 159.21
  Q 201.76 159.17 201.33 159.65
  A 0.99 0.70 -59.5 0 1 200.57 159.99
  C 198.20 159.64 187.12 157.92 186.14 160.52
  Q 186.00 160.87 185.87 160.51
  Q 185.44 159.32 184.04 159.50"
/>
<path stroke="#004e95" vector-effect="non-scaling-stroke" d="
  M 212.75 178.71
  C 210.59 178.05 212.56 180.92 213.08 181.46
  A 0.45 0.37 53.4 0 1 213.05 182.12
  Q 212.27 182.49 211.43 181.15
  A 0.93 0.89 -16.2 0 0 210.64 180.74
  L 197.55 180.83
  A 0.94 0.90 -71.7 0 0 196.80 181.23
  Q 196.09 182.23 195.00 182.54"
/>
<path stroke="#003f72" stroke-opacity="0.690" vector-effect="non-scaling-stroke" d="
  M 195.00 182.54
  L 193.79 180.75"
/>
<path stroke="#003267" stroke-opacity="0.690" vector-effect="non-scaling-stroke" d="
  M 363.29 194.00
  C 348.14 210.81 320.49 224.94 297.96 226.71
  Q 268.44 229.03 240.78 218.99
  C 221.81 212.10 206.23 199.33 195.00 182.54"
/>
<path stroke="#003b6e" stroke-opacity="0.690" vector-effect="non-scaling-stroke" d="
  M 374.11 178.81
  Q 369.34 186.92 363.29 194.00"
/>
<path stroke="#004b92" vector-effect="non-scaling-stroke" d="
  M 363.29 194.00
  Q 362.22 194.40 361.49 195.28
  Q 361.24 195.58 361.19 195.19
  L 361.07 194.29
  A 0.74 0.63 0.6 0 0 360.44 193.74
  C 354.63 193.03 348.67 194.21 341.80 192.79
  A 0.32 0.31 -67.4 0 1 341.61 192.30
  Q 342.18 191.41 341.75 190.54"
/>
<path stroke="#00589e" vector-effect="non-scaling-stroke" d="
  M 377.23 171.83
  Q 376.09 171.79 376.12 172.56
  A 1.30 0.41 80.2 0 1 376.02 173.29
  Q 375.57 174.14 375.46 173.18
  A 0.39 0.38 85.3 0 0 375.06 172.83
  C 368.98 173.12 361.65 172.13 358.28 173.48
  Q 357.80 173.67 357.93 173.20
  C 358.12 172.44 359.81 169.98 358.25 169.96"
/>
<path stroke="#0066ab" vector-effect="non-scaling-stroke" d="
  M 379.96 134.50
  Q 379.30 135.72 379.92 136.88
  A 1.68 0.76 51.0 0 1 380.16 137.81
  Q 379.99 139.16 378.78 137.93
  A 1.45 1.27 67.1 0 0 377.93 137.52
  Q 370.72 136.94 363.53 137.77
  C 362.89 137.84 362.73 137.67 362.34 137.22
  Q 362.11 136.96 362.11 137.31
  Q 362.11 138.02 361.54 137.75"
/>
<path stroke="#0079bd" vector-effect="non-scaling-stroke" d="
  M 377.96 122.25
  Q 376.98 123.18 378.04 124.29
  Q 379.06 125.36 377.62 125.03
  Q 368.54 122.93 359.54 124.75"
/>
<path stroke="#008dd1" vector-effect="non-scaling-stroke" d="
  M 369.80 91.83
  Q 358.10 92.78 353.75 92.25
  Q 351.29 91.95 350.45 93.54
  A 1.13 0.45 -66.5 0 1 349.79 94.20
  L 349.00 94.29"
/>
<path stroke="#006d9e" stroke-opacity="0.690" vector-effect="non-scaling-stroke" d="
  M 335.75 79.54
  Q 343.38 86.00 349.00 94.29"
/>
<path stroke="#006091" stroke-opacity="0.690" vector-effect="non-scaling-stroke" d="
  M 349.00 94.29
  Q 353.98 101.32 355.54 109.82"
/>
<path stroke="#006698" stroke-opacity="0.690" vector-effect="non-scaling-stroke" d="
  M 238.54 104.75
  Q 242.19 95.27 248.46 87.25"
/>
<path stroke="#009add" vector-effect="non-scaling-stroke" d="
  M 359.79 76.00
  L 359.70 77.25
  A 0.52 0.43 -86.2 0 1 359.24 77.73
  Q 348.21 77.25 337.30 77.81
  Q 336.10 77.87 337.18 78.38
  Q 338.48 78.99 338.03 79.70
  A 0.78 0.66 23.4 0 1 337.21 79.95
  L 335.75 79.54"
/>
<path stroke="#0073a3" stroke-opacity="0.690" vector-effect="non-scaling-stroke" d="
  M 335.75 79.54
  Q 317.52 64.61 294.84 65.12
  C 281.14 65.43 270.06 69.80 258.69 77.44
  Q 251.83 82.05 248.46 87.25"
/>
<path stroke="#0096d9" vector-effect="non-scaling-stroke" d="
  M 248.46 87.25
  Q 247.58 87.37 247.45 86.56
  A 0.29 0.29 -18.9 0 0 247.02 86.35
  C 246.04 86.91 245.24 86.49 244.33 86.55
  Q 237.04 87.07 229.93 85.63"
/>
<path stroke="#0087cb" vector-effect="non-scaling-stroke" d="
  M 237.96 106.25
  C 236.90 106.59 237.21 108.15 236.52 108.13
  A 0.76 0.39 86.7 0 1 236.11 107.44
  C 236.01 106.29 231.61 106.79 230.40 106.91
  C 227.51 107.19 224.25 106.42 221.00 107.46"
/>
<path stroke="#0079be" vector-effect="non-scaling-stroke" d="
  M 236.00 114.79
  L 234.93 116.08
  A 0.37 0.34 40.0 0 1 234.42 116.10
  Q 234.03 115.76 233.92 116.83
  A 1.04 0.98 -87.7 0 1 232.96 117.77
  L 220.76 118.03
  A 0.51 0.50 -88.7 0 0 220.27 118.51
  Q 220.22 119.38 219.54 120.00"
/>
<path stroke="#006ab0" vector-effect="non-scaling-stroke" d="
  M 236.96 135.25
  Q 231.88 137.59 225.75 136.50
  Q 222.97 136.01 221.19 138.20"
/>
<path stroke="#005ca2" vector-effect="non-scaling-stroke" d="
  M 242.50 150.71
  Q 241.82 151.83 243.08 153.62
  Q 243.50 154.22 242.78 154.26
  C 238.13 154.57 233.47 154.22 228.78 154.47
  Q 226.57 154.59 225.25 152.54"
/>
<path stroke="#003f72" stroke-opacity="0.690" vector-effect="non-scaling-stroke" d="
  M 337.21 156.25
  C 328.98 174.98 303.98 184.86 284.99 186.46
  C 264.01 188.23 245.54 181.84 232.00 165.04"
/>
<path stroke="#005ca2" vector-effect="non-scaling-stroke" d="
  M 338.21 153.00
  L 336.38 156.47
  A 0.28 0.27 -51.2 0 1 335.93 156.52
  C 334.76 155.16 324.94 155.75 322.75 155.75
  Q 320.10 155.75 317.60 156.46"
/>
<path stroke="#0067ad" vector-effect="non-scaling-stroke" d="
  M 339.46 143.25
  C 339.30 142.20 339.16 131.34 339.16 137.75
  Q 339.16 140.49 337.59 138.88
  A 1.23 1.15 66.4 0 0 336.74 138.51
  L 323.31 138.57
  A 0.88 0.75 -73.3 0 0 322.61 139.02
  Q 322.24 139.68 321.54 140.00"
/>
<path stroke="#007bbf" vector-effect="non-scaling-stroke" d="
  M 337.96 125.25
  Q 337.19 126.58 336.73 125.82
  A 0.89 0.44 66.0 0 0 336.15 125.34
  Q 335.93 125.33 335.73 125.45
  Q 335.24 125.73 335.07 125.76
  Q 334.09 125.91 334.82 125.29
  Q 335.28 124.89 334.67 124.93
  Q 327.70 125.27 321.07 124.51
  A 0.16 0.15 -73.5 0 0 320.90 124.61
  C 320.20 126.38 319.85 123.95 319.04 123.25"
/>
<path stroke="#006394" stroke-opacity="0.690" vector-effect="non-scaling-stroke" d="
  M 317.03 117.41
  Q 306.94 104.27 290.85 103.28
  C 282.87 102.79 277.12 106.42 273.46 113.25"
/>
<path stroke="#007dc2" vector-effect="non-scaling-stroke" d="
  M 273.46 113.25
  Q 271.80 116.23 268.91 116.75
  C 266.46 117.19 260.72 116.94 257.32 116.50
  A 0.63 0.56 3.0 0 1 256.76 115.95
  L 256.71 111.75"
/>
<path stroke="#005386" stroke-opacity="0.690" vector-effect="non-scaling-stroke" d="
  M 272.01 117.06
  L 273.46 113.25"
/>
<path stroke="#006cb2" vector-effect="non-scaling-stroke" d="
  M 274.50 129.46
  Q 273.62 129.66 273.90 130.27
  A 0.28 0.24 77.2 0 1 273.69 130.66
  Q 265.40 130.15 256.91 130.88"
/>
<path stroke="#00497c" stroke-opacity="0.690" vector-effect="non-scaling-stroke" d="
  M 301.71 145.00
  C 296.70 152.65 279.67 149.74 272.84 147.35
  C 267.99 145.64 264.47 141.98 260.82 138.38"
/>
<path stroke="#353535" vector-effect="non-scaling-stroke" d="
  M 131.24 239.06
  Q 128.17 230.26 122.00 223.21"
/>
<path stroke="#3f3f3f" vector-effect="non-scaling-stroke" d="
  M 122.00 223.21
  C 113.89 214.40 101.16 210.73 89.50 210.74
  Q 74.65 210.75 59.79 210.75"
/>
<path stroke="#0f0f0f" vector-effect="non-scaling-stroke" d="
  M 125.50 270.79
  L 124.38 271.41
  A 1.23 0.44 -83.0 0 0 123.96 272.25
  Q 123.82 272.90 123.23 273.13
  A 0.97 0.62 47.1 0 1 122.39 272.91
  Q 121.84 272.47 121.47 272.66
  A 4.54 4.46 32.9 0 1 119.08 273.15
  Q 114.70 272.86 112.29 274.78"
/>
<path stroke="#222222" vector-effect="non-scaling-stroke" d="
  M 112.29 274.78
  Q 117.60 268.98 118.63 261.34"
/>
<path stroke="#242424" vector-effect="non-scaling-stroke" d="
  M 122.00 223.21
  Q 117.62 224.64 112.98 224.26"
/>
<path stroke="#242424" vector-effect="non-scaling-stroke" d="
  M 72.21 230.25
  L 71.84 232.76
  A 0.49 0.46 10.3 0 1 71.26 233.14
  Q 66.82 232.25 61.75 233.25
  Q 60.80 233.44 60.29 232.25"
/>
<path stroke="#161616" vector-effect="non-scaling-stroke" d="
  M 72.55 280.65
  Q 71.89 281.91 72.33 282.99
  A 1.01 0.82 -3.5 0 0 73.07 283.52
  C 86.84 285.63 101.90 284.88 112.29 274.78"
/>
<path stroke="#0f0f0f" vector-effect="non-scaling-stroke" d="
  M 72.21 259.00
  L 71.67 262.52
  A 0.69 0.60 3.9 0 1 71.00 263.03
  L 61.31 262.97
  A 0.58 0.54 87.7 0 1 60.77 262.43
  L 60.29 255.75"
/>
<path stroke="#3a3a3a" vector-effect="non-scaling-stroke" d="
  M 526.71 218.25
  L 517.00 221.29"
/>
<path stroke="#343434" vector-effect="non-scaling-stroke" d="
  M 526.75 232.46
  Q 526.34 233.23 526.57 234.04
  Q 526.71 234.53 526.71 235.00
  Q 526.72 236.13 527.80 235.71
  Q 528.30 235.52 528.74 235.51
  L 541.46 235.25"
/>
<path stroke="#1a1a1a" vector-effect="non-scaling-stroke" d="
  M 526.71 252.50
  C 525.94 252.03 526.34 248.59 526.02 250.41
  A 0.21 0.21 24.6 0 1 525.68 250.53
  Q 522.90 248.30 518.42 249.99
  A 0.54 0.48 78.5 0 1 517.77 249.50
  L 517.29 242.50"
/>
<path stroke="#343434" vector-effect="non-scaling-stroke" d="
  M 510.54 235.75
  L 516.70 235.46
  A 0.71 0.68 6.8 0 0 517.35 234.97
  Q 517.71 233.77 517.46 232.50"
/>
<path stroke="#090909" vector-effect="non-scaling-stroke" d="
  M 526.71 258.00
  L 526.00 273.46
  A 1.23 1.02 -5.8 0 1 525.02 274.46
  L 517.54 276.00"
/>
<path stroke="#151515" vector-effect="non-scaling-stroke" d="
  M 527.13 279.24
  C 526.56 286.92 535.71 285.30 540.25 284.29"
/>
<path stroke="#323232" vector-effect="non-scaling-stroke" d="
  M 504.71 237.50
  C 503.99 232.44 487.70 233.48 484.19 234.18
  Q 475.76 235.87 471.56 243.34"
/>
<path stroke="#2b2b2b" vector-effect="non-scaling-stroke" d="
  M 480.31 247.00
  Q 480.16 251.54 484.50 253.46"
/>
<path stroke="#171717" vector-effect="non-scaling-stroke" d="
  M 484.50 253.46
  Q 480.30 252.58 476.30 255.64"
/>
<path stroke="#0a0a0a" vector-effect="non-scaling-stroke" d="
  M 509.00 272.04
  Q 507.29 271.35 507.38 269.56
  A 0.87 0.69 -77.4 0 0 507.01 268.79
  Q 505.94 268.23 504.88 268.94
  A 1.58 1.31 -57.8 0 1 504.00 269.23
  L 499.95 269.13"
/>
<path stroke="#242424" vector-effect="non-scaling-stroke" d="
  M 508.95 270.28
  Q 507.94 268.90 507.10 267.43
  C 502.97 260.16 491.74 256.71 484.50 253.46"
/>
<path stroke="#161616" vector-effect="non-scaling-stroke" d="
  M 470.54 280.25
  C 478.14 284.86 487.25 287.85 495.19 284.19
  Q 499.86 282.03 499.66 276.75"
/>
<path stroke="#323232" vector-effect="non-scaling-stroke" d="
  M 151.04 233.75
  L 140.75 235.29"
/>
<path stroke="#181818" vector-effect="non-scaling-stroke" d="
  M 151.54 249.91
  Q 147.34 248.21 142.78 249.54
  A 0.35 0.34 82.9 0 1 142.34 249.19
  Q 142.50 245.15 141.54 241.25"
/>
<path stroke="#323232" vector-effect="non-scaling-stroke" d="
  M 176.47 235.36
  Q 160.42 229.62 151.76 243.08
  Q 151.48 243.53 151.31 243.04
  Q 150.85 241.71 151.44 240.32"
/>
<path stroke="#090909" vector-effect="non-scaling-stroke" d="
  M 151.21 269.75
  L 150.88 271.81
  A 0.59 0.57 -85.3 0 1 150.31 272.31
  C 148.31 272.28 144.27 272.04 142.84 273.42
  Q 141.71 274.51 141.54 276.25"
/>
<path stroke="#2d2d2d" vector-effect="non-scaling-stroke" d="
  M 223.86 250.06
  Q 222.28 248.39 221.96 246.00"
/>
<path stroke="#323232" vector-effect="non-scaling-stroke" d="
  M 221.96 246.00
  Q 215.12 232.92 200.01 234.07
  Q 181.97 235.43 176.54 252.50"
/>
<path stroke="#2d2d2d" vector-effect="non-scaling-stroke" d="
  M 176.54 252.50
  Q 176.46 253.26 175.75 252.96"
/>
<path stroke="#1a1a1a" vector-effect="non-scaling-stroke" d="
  M 221.96 246.00
  Q 218.70 241.98 213.94 244.58"
/>
<path stroke="#1a1a1a" vector-effect="non-scaling-stroke" d="
  M 186.33 249.16
  L 179.29 249.45
  A 1.54 1.36 -1.5 0 0 177.81 250.83
  Q 177.83 252.03 176.54 252.50"
/>
<path stroke="#1f1f1f" vector-effect="non-scaling-stroke" d="
  M 185.50 268.21
  Q 185.06 270.05 185.96 271.75"
/>
<path stroke="#0b0b0b" vector-effect="non-scaling-stroke" d="
  M 185.96 271.75
  L 177.96 273.75"
/>
<path stroke="#262626" vector-effect="non-scaling-stroke" d="
  M 186.50 250.04
  L 186.41 252.25
  A 0.69 0.53 -87.6 0 0 186.91 252.96
  Q 201.08 253.60 214.43 252.96
  A 0.68 0.64 4.3 0 0 215.06 252.45
  Q 215.33 251.21 215.00 249.96"
/>
<path stroke="#151515" vector-effect="non-scaling-stroke" d="
  M 222.46 280.00
  C 209.27 288.33 192.21 288.07 185.96 271.75"
/>
<path stroke="#323232" vector-effect="non-scaling-stroke" d="
  M 273.27 248.11
  C 268.46 229.82 248.11 232.80 234.54 236.25"
/>
<path stroke="#171717" vector-effect="non-scaling-stroke" d="
  M 273.71 254.50
  Q 273.41 254.21 273.26 253.80
  Q 273.18 253.59 273.13 253.80
  Q 272.83 255.08 272.71 253.82
  A 0.43 0.42 -83.3 0 0 272.44 253.47
  Q 268.13 251.95 263.71 253.25"
/>
<path stroke="#2b2c2b" vector-effect="non-scaling-stroke" d="
  M 263.71 253.25
  Q 264.96 251.03 264.23 250.19"
/>
<path stroke="#232323" vector-effect="non-scaling-stroke" d="
  M 263.71 253.25
  C 258.24 257.45 250.56 257.17 244.47 258.37
  Q 234.41 260.35 229.85 269.54"
/>
<path stroke="#080808" vector-effect="non-scaling-stroke" d="
  M 273.71 274.50
  L 273.22 277.49
  A 0.58 0.39 -81.6 0 1 272.76 277.99
  L 265.42 277.27
  A 0.99 0.93 22.0 0 0 264.62 277.58
  Q 263.82 278.47 262.75 278.96"
/>
<path stroke="#1c1c1c" vector-effect="non-scaling-stroke" d="
  M 262.75 278.96
  Q 264.63 275.57 264.46 271.75"
/>
<path stroke="#080808" vector-effect="non-scaling-stroke" d="
  M 238.27 268.91
  Q 237.11 272.71 231.84 272.76
  A 0.86 0.86 85.1 0 0 231.00 273.76
  Q 231.29 275.55 229.54 275.25"
/>
<path stroke="#151515" vector-effect="non-scaling-stroke" d="
  M 238.07 275.78
  C 240.16 289.11 256.45 288.13 262.75 278.96"
/>
<path stroke="#323232" vector-effect="non-scaling-stroke" d="
  M 463.67 247.00
  Q 458.82 234.33 445.50 233.75
  Q 436.04 233.34 425.04 236.25"
/>
<path stroke="#181818" vector-effect="non-scaling-stroke" d="
  M 464.22 252.64
  L 454.64 252.70"
/>
<path stroke="#2b2c2b" vector-effect="non-scaling-stroke" d="
  M 454.64 252.70
  Q 455.36 250.24 455.15 249.11"
/>
<path stroke="#242424" vector-effect="non-scaling-stroke" d="
  M 454.64 252.70
  C 448.26 257.92 439.19 257.22 432.75 259.00
  Q 424.04 261.40 420.33 269.83"
/>
<path stroke="#0a0a0a" vector-effect="non-scaling-stroke" d="
  M 464.21 268.25
  Q 463.41 269.49 463.85 271.43
  Q 464.25 273.23 463.29 271.65
  Q 462.87 270.97 462.65 269.94
  A 1.03 0.81 -88.4 0 0 462.12 269.23
  Q 461.11 268.82 459.99 268.93
  Q 459.53 268.97 459.03 268.83
  C 456.56 268.12 456.30 272.42 455.00 274.04"
/>
<path stroke="#1d1d1d" vector-effect="non-scaling-stroke" d="
  M 455.00 274.04
  Q 454.55 273.62 454.46 273.00"
/>
<path stroke="#0a0a0a" vector-effect="non-scaling-stroke" d="
  M 428.96 269.00
  C 426.93 269.34 428.55 271.77 428.11 272.28
  A 2.63 2.62 -62.6 0 1 425.47 273.12
  Q 422.53 272.37 421.42 274.23
  A 0.50 0.46 -59.5 0 1 420.78 274.42
  L 420.04 274.00"
/>
<path stroke="#161616" vector-effect="non-scaling-stroke" d="
  M 428.32 275.41
  Q 431.98 289.71 446.31 284.56
  Q 453.50 281.98 455.00 274.04"
/>
<path stroke="#323232" vector-effect="non-scaling-stroke" d="
  M 293.71 234.00
  L 283.04 235.75"
/>
<path stroke="#141414" vector-effect="non-scaling-stroke" d="
  M 362.71 256.75
  Q 361.51 256.31 361.76 254.97
  A 0.59 0.58 -76.5 0 0 361.36 254.31
  Q 358.15 253.34 355.29 254.05
  A 0.57 0.56 70.4 0 1 354.63 253.73
  L 353.97 252.32"
/>
<path stroke="#161616" vector-effect="non-scaling-stroke" d="
  M 327.96 251.50
  Q 327.25 253.08 325.86 254.04
  A 1.03 0.86 34.5 0 1 324.97 254.12
  Q 322.47 253.20 320.13 254.44
  A 0.33 0.32 72.4 0 1 319.67 254.19
  Q 319.53 253.31 318.59 252.80"
/>
<path stroke="#141414" vector-effect="non-scaling-stroke" d="
  M 293.75 250.79
  Q 293.73 252.05 293.09 252.87
  A 0.79 0.69 25.3 0 1 292.28 253.10
  Q 289.38 252.24 286.48 253.10
  A 1.34 0.83 -74.0 0 0 285.81 253.71
  Q 285.57 254.12 285.22 254.13
  A 0.69 0.48 85.0 0 1 284.70 253.50
  L 284.29 249.75"
/>
<path stroke="#080808" vector-effect="non-scaling-stroke" d="
  M 327.96 271.25
  Q 325.27 275.05 320.54 274.43
  A 1.17 1.17 -0.1 0 1 319.52 273.41
  Q 319.31 271.70 318.79 272.75"
/>
<path stroke="#323232" vector-effect="non-scaling-stroke" d="
  M 362.31 245.37
  Q 357.46 236.70 348.75 234.75
  Q 335.56 231.79 325.68 240.23
  A 0.66 0.65 44.6 0 1 324.83 240.23
  C 315.52 232.40 302.77 230.82 294.55 240.58
  Q 293.58 241.73 293.74 240.30
  L 294.00 238.04"
/>
<path stroke="#323232" vector-effect="non-scaling-stroke" d="
  M 413.96 236.25
  C 397.14 231.54 380.07 233.37 370.81 250.06
  Q 370.33 250.94 369.54 250.75"
/>
<path stroke="#181818" vector-effect="non-scaling-stroke" d="
  M 379.46 250.40
  L 371.94 250.19
  Q 370.05 250.13 370.00 252.50
  Q 369.97 253.84 368.79 254.00"
/>
<path stroke="#1d1d1d" vector-effect="non-scaling-stroke" d="
  M 378.46 265.00
  Q 378.52 270.88 381.46 276.00"
/>
<path stroke="#090909" vector-effect="non-scaling-stroke" d="
  M 381.46 276.00
  Q 379.86 274.85 379.21 272.92
  A 0.41 0.38 -22.9 0 0 378.66 272.72
  Q 377.96 273.06 377.27 272.42
  A 1.41 1.26 64.5 0 0 376.44 272.07
  L 372.19 271.86
  A 0.84 0.81 78.9 0 1 371.47 271.36
  L 368.98 265.78"
/>
<path stroke="#151515" vector-effect="non-scaling-stroke" d="
  M 415.61 280.51
  C 404.77 286.90 388.90 288.45 381.46 276.00"
/>
</g>
<path fill="#009ee0" d="
  M 410.54 72.75
  L 410.44 76.19
  A 0.50 0.48 -87.7 0 1 409.94 76.67
  Q 398.64 76.26 394.50 76.50
  Q 393.62 76.55 391.91 78.17
  L 386.00 68.96
  C 378.33 57.91 371.03 48.96 360.60 41.04
  Q 341.32 29.39 318.97 26.35
  C 297.42 23.41 278.31 22.07 258.52 31.30
  C 240.42 39.73 221.98 52.71 210.96 69.75
  Q 209.02 71.51 208.10 73.97
  A 0.66 0.58 10.8 0 1 207.46 74.35
  Q 207.03 74.32 206.63 74.47
  A 1.24 0.69 -79.0 0 0 206.05 75.16
  C 205.20 77.35 199.94 76.37 198.08 76.34
  C 195.01 76.30 191.95 77.81 189.71 74.25
  C 196.87 57.90 207.39 45.51 222.00 35.00
  C 243.07 19.83 267.05 8.73 293.48 8.31
  C 322.88 7.85 352.23 14.12 376.94 30.31
  C 391.68 39.97 402.68 57.27 410.54 72.75
  Z"
/>
<path fill="#010102" fill-opacity="0.380" d="
  M 360.60 41.04
  C 355.59 39.54 363.48 43.73 359.29 43.25
  Q 350.41 37.57 341.75 35.25
  Q 339.44 34.63 338.16 33.80
  Q 337.70 33.49 337.26 33.43
  C 333.62 32.86 329.84 31.59 326.55 31.05
  Q 313.20 28.86 303.00 27.75
  Q 275.20 24.72 250.83 38.48
  C 249.95 38.97 248.45 40.33 246.97 40.74
  C 242.83 41.87 238.69 46.16 235.30 48.45
  Q 223.06 56.73 214.10 68.59
  Q 207.17 77.78 201.68 88.16
  L 205.75 79.29
  L 210.96 69.75
  C 221.98 52.71 240.42 39.73 258.52 31.30
  C 278.31 22.07 297.42 23.41 318.97 26.35
  Q 341.32 29.39 360.60 41.04
  Z"
/>
<path fill="#020301" fill-opacity="0.224" d="
  M 360.60 41.04
  C 371.03 48.96 378.33 57.91 386.00 68.96
  Q 382.30 67.00 380.25 64.25
  Q 370.95 51.77 359.29 43.25
  C 363.48 43.73 355.59 39.54 360.60 41.04
  Z"
/>
<path fill="#009ee0" d="
  M 359.79 76.00
  L 359.70 77.25
  A 0.52 0.43 -86.2 0 1 359.24 77.73
  Q 348.21 77.25 337.30 77.81
  Q 336.10 77.87 337.18 78.38
  Q 338.48 78.99 338.03 79.70
  A 0.78 0.66 23.4 0 1 337.21 79.95
  L 335.75 79.54
  Q 317.52 64.61 294.84 65.12
  C 281.14 65.43 270.06 69.80 258.69 77.44
  Q 251.83 82.05 248.46 87.25
  Q 247.58 87.37 247.45 86.56
  A 0.29 0.29 -18.9 0 0 247.02 86.35
  C 246.04 86.91 245.24 86.49 244.33 86.55
  Q 237.04 87.07 229.93 85.63
  C 234.61 78.22 239.79 71.61 246.86 66.26
  Q 259.28 56.86 273.94 51.20
  C 288.36 45.64 309.30 49.15 323.76 52.89
  C 337.79 56.51 349.96 65.19 359.79 76.00
  Z"
/>
<path fill="#010102" fill-opacity="0.380" d="
  M 335.75 79.54
  Q 343.38 86.00 349.00 94.29
  Q 353.98 101.32 355.54 109.82
  Q 352.36 99.56 345.80 91.14
  A 0.80 0.20 -4.2 0 0 345.12 91.02
  Q 344.55 91.05 343.31 89.94
  Q 342.72 89.41 342.28 88.76
  Q 341.32 87.34 340.05 86.84
  Q 339.53 86.64 339.24 86.29
  C 332.53 78.23 320.12 72.31 310.48 70.12
  C 297.22 67.12 280.13 68.58 267.86 75.44
  Q 267.83 75.46 264.36 77.11
  C 262.71 77.89 261.59 79.20 260.01 79.98
  Q 254.12 82.87 250.22 88.23
  Q 244.27 96.41 238.54 104.75
  Q 242.19 95.27 248.46 87.25
  Q 251.83 82.05 258.69 77.44
  C 270.06 69.80 281.14 65.43 294.84 65.12
  Q 317.52 64.61 335.75 79.54
  Z"
/>
<path fill="#0096d9" d="
  M 210.96 69.75
  L 205.75 79.29
  C 203.85 82.25 201.73 88.65 198.86 90.26
  C 195.40 92.19 189.79 90.86 186.01 90.76
  C 185.20 90.74 183.97 91.57 184.16 89.99
  A 1.09 0.52 40.3 0 0 183.83 89.26
  Q 183.54 88.93 183.71 88.25
  Q 186.15 81.01 189.71 74.25
  C 191.95 77.81 195.01 76.30 198.08 76.34
  C 199.94 76.37 205.20 77.35 206.05 75.16
  A 1.24 0.69 -79.0 0 1 206.63 74.47
  Q 207.03 74.32 207.46 74.35
  A 0.66 0.58 10.8 0 0 208.10 73.97
  Q 209.02 71.51 210.96 69.75
  Z"
/>
<path fill="#0096d9" d="
  M 410.54 72.75
  Q 415.95 81.71 419.00 91.71
  L 418.31 92.37
  A 0.30 0.29 -34.0 0 1 417.83 92.28
  Q 417.29 91.02 416.51 91.80
  A 1.36 0.94 -59.8 0 1 415.68 92.19
  L 401.94 92.19
  Q 401.57 92.19 401.02 92.46
  C 399.76 93.07 398.94 91.20 397.54 91.00
  Q 395.71 84.07 391.91 78.17
  Q 393.62 76.55 394.50 76.50
  Q 398.64 76.26 409.94 76.67
  A 0.50 0.48 -87.7 0 0 410.44 76.19
  L 410.54 72.75
  Z"
/>
<path fill="#0096d9" d="
  M 359.79 76.00
  Q 365.97 83.33 369.80 91.83
  Q 358.10 92.78 353.75 92.25
  Q 351.29 91.95 350.45 93.54
  A 1.13 0.45 -66.5 0 1 349.79 94.20
  L 349.00 94.29
  Q 343.38 86.00 335.75 79.54
  L 337.21 79.95
  A 0.78 0.66 23.4 0 0 338.03 79.70
  Q 338.48 78.99 337.18 78.38
  Q 336.10 77.87 337.30 77.81
  Q 348.21 77.25 359.24 77.73
  A 0.52 0.43 -86.2 0 0 359.70 77.25
  L 359.79 76.00
  Z"
/>
<path fill="#0084c8" d="
  M 205.75 79.29
  L 201.68 88.16
  Q 195.73 102.39 196.16 117.83
  C 196.24 120.64 195.87 123.59 195.96 126.50
  L 195.62 124.93
  Q 195.52 124.49 195.39 124.93
  Q 195.11 125.85 194.86 125.13
  A 0.68 0.61 82.4 0 0 194.35 124.69
  Q 186.68 123.62 178.38 124.30
  A 0.60 0.57 -3.3 0 1 177.73 123.75
  L 177.46 114.75
  Q 178.64 101.04 183.71 88.25
  Q 183.54 88.93 183.83 89.26
  A 1.09 0.52 40.3 0 1 184.16 89.99
  C 183.97 91.57 185.20 90.74 186.01 90.76
  C 189.79 90.86 195.40 92.19 198.86 90.26
  C 201.73 88.65 203.85 82.25 205.75 79.29
  Z"
/>
<path fill="#008dd1" d="
  M 229.93 85.63
  Q 237.04 87.07 244.33 86.55
  C 245.24 86.49 246.04 86.91 247.02 86.35
  A 0.29 0.29 -18.9 0 1 247.45 86.56
  Q 247.58 87.37 248.46 87.25
  Q 242.19 95.27 238.54 104.75
  L 237.96 106.25
  C 236.90 106.59 237.21 108.15 236.52 108.13
  A 0.76 0.39 86.7 0 1 236.11 107.44
  C 236.01 106.29 231.61 106.79 230.40 106.91
  C 227.51 107.19 224.25 106.42 221.00 107.46
  Q 222.95 95.34 229.93 85.63
  Z"
/>
<path fill="#0088cb" d="
  M 337.96 125.25
  Q 337.19 126.58 336.73 125.82
  A 0.89 0.44 66.0 0 0 336.15 125.34
  Q 335.93 125.33 335.73 125.45
  Q 335.24 125.73 335.07 125.76
  Q 334.09 125.91 334.82 125.29
  Q 335.28 124.89 334.67 124.93
  Q 327.70 125.27 321.07 124.51
  A 0.16 0.15 -73.5 0 0 320.90 124.61
  C 320.20 126.38 319.85 123.95 319.04 123.25
  L 317.03 117.41
  Q 306.94 104.27 290.85 103.28
  C 282.87 102.79 277.12 106.42 273.46 113.25
  Q 271.80 116.23 268.91 116.75
  C 266.46 117.19 260.72 116.94 257.32 116.50
  A 0.63 0.56 3.0 0 1 256.76 115.95
  L 256.71 111.75
  C 259.12 102.38 266.41 94.14 275.40 89.95
  C 284.39 85.76 298.04 87.42 307.26 90.22
  Q 333.38 98.14 337.96 125.25
  Z"
/>
<path fill="#0084c8" d="
  M 397.54 91.00
  C 398.94 91.20 399.76 93.07 401.02 92.46
  Q 401.57 92.19 401.94 92.19
  L 415.68 92.19
  A 1.36 0.94 -59.8 0 0 416.51 91.80
  Q 417.29 91.02 417.83 92.28
  A 0.30 0.29 -34.0 0 0 418.31 92.37
  L 419.00 91.71
  Q 423.33 105.91 423.54 120.75
  C 418.99 129.73 409.13 124.97 405.79 118.00
  L 397.54 91.00
  Z"
/>
<path fill="#0084c8" d="
  M 369.80 91.83
  Q 375.89 106.64 377.96 122.25
  Q 376.98 123.18 378.04 124.29
  Q 379.06 125.36 377.62 125.03
  Q 368.54 122.93 359.54 124.75
  L 355.54 109.82
  Q 353.98 101.32 349.00 94.29
  L 349.79 94.20
  A 1.13 0.45 -66.5 0 0 350.45 93.54
  Q 351.29 91.95 353.75 92.25
  Q 358.10 92.78 369.80 91.83
  Z"
/>
<path fill="#010102" fill-opacity="0.380" d="
  M 317.03 117.41
  Q 315.04 118.09 313.75 116.75
  C 306.07 108.76 290.74 102.86 280.05 109.10
  C 276.89 110.95 274.60 114.21 272.01 117.06
  L 273.46 113.25
  C 277.12 106.42 282.87 102.79 290.85 103.28
  Q 306.94 104.27 317.03 117.41
  Z"
/>
<path fill="#0080c4" d="
  M 237.96 106.25
  Q 236.46 110.40 236.00 114.79
  L 234.93 116.08
  A 0.37 0.34 40.0 0 1 234.42 116.10
  Q 234.03 115.76 233.92 116.83
  A 1.04 0.98 -87.7 0 1 232.96 117.77
  L 220.76 118.03
  A 0.51 0.50 -88.7 0 0 220.27 118.51
  Q 220.22 119.38 219.54 120.00
  Q 219.66 113.66 221.00 107.46
  C 224.25 106.42 227.51 107.19 230.40 106.91
  C 231.61 106.79 236.01 106.29 236.11 107.44
  A 0.76 0.39 86.7 0 0 236.52 108.13
  C 237.21 108.15 236.90 106.59 237.96 106.25
  Z"
/>
<path fill="#0072b8" d="
  M 256.71 111.75
  L 256.76 115.95
  A 0.63 0.56 3.0 0 0 257.32 116.50
  C 260.72 116.94 266.46 117.19 268.91 116.75
  Q 271.80 116.23 273.46 113.25
  L 272.01 117.06
  Q 270.95 123.62 274.50 129.46
  Q 273.62 129.66 273.90 130.27
  A 0.28 0.24 77.2 0 1 273.69 130.66
  Q 265.40 130.15 256.91 130.88
  Q 253.49 121.28 256.71 111.75
  Z"
/>
<path fill="#006db2" d="
  M 177.46 114.75
  L 177.73 123.75
  A 0.60 0.57 -3.3 0 0 178.38 124.30
  Q 186.68 123.62 194.35 124.69
  A 0.68 0.61 82.4 0 1 194.86 125.13
  Q 195.11 125.85 195.39 124.93
  Q 195.52 124.49 195.62 124.93
  L 195.96 126.50
  L 196.91 138.24
  Q 197.11 141.13 195.91 139.53
  A 0.88 0.87 -21.3 0 0 195.10 139.18
  C 190.60 139.71 182.43 138.85 179.04 141.00
  Q 176.42 128.00 177.46 114.75
  Z"
/>
<path fill="#0072b8" d="
  M 236.00 114.79
  Q 235.09 125.07 236.96 135.25
  Q 231.88 137.59 225.75 136.50
  Q 222.97 136.01 221.19 138.20
  Q 218.82 129.29 219.54 120.00
  Q 220.22 119.38 220.27 118.51
  A 0.51 0.50 -88.7 0 1 220.76 118.03
  L 232.96 117.77
  A 1.04 0.98 -87.7 0 0 233.92 116.83
  Q 234.03 115.76 234.42 116.10
  A 0.37 0.34 40.0 0 0 234.93 116.08
  L 236.00 114.79
  Z"
/>
<path fill="#010102" fill-opacity="0.380" d="
  M 405.79 118.00
  C 409.13 124.97 418.99 129.73 423.54 120.75
  Q 423.36 129.49 415.49 128.51
  C 412.29 128.11 407.09 125.96 407.38 122.06
  A 1.11 1.08 -64.9 0 0 407.09 121.22
  Q 405.85 119.88 405.79 118.00
  Z"
/>
<path fill="#006db2" d="
  M 377.96 122.25
  L 379.96 134.50
  Q 379.30 135.72 379.92 136.88
  A 1.68 0.76 51.0 0 1 380.16 137.81
  Q 379.99 139.16 378.78 137.93
  A 1.45 1.27 67.1 0 0 377.93 137.52
  Q 370.72 136.94 363.53 137.77
  C 362.89 137.84 362.73 137.67 362.34 137.22
  Q 362.11 136.96 362.11 137.31
  Q 362.11 138.02 361.54 137.75
  Q 361.08 131.17 359.54 124.75
  Q 368.54 122.93 377.62 125.03
  Q 379.06 125.36 378.04 124.29
  Q 376.98 123.18 377.96 122.25
  Z"
/>
<path fill="#006db2" d="
  M 319.04 123.25
  C 319.85 123.95 320.20 126.38 320.90 124.61
  A 0.16 0.15 -73.5 0 1 321.07 124.51
  Q 327.70 125.27 334.67 124.93
  Q 335.28 124.89 334.82 125.29
  Q 334.09 125.91 335.07 125.76
  Q 335.24 125.73 335.73 125.45
  Q 335.93 125.33 336.15 125.34
  A 0.89 0.44 66.0 0 1 336.73 125.82
  Q 337.19 126.58 337.96 125.25
  Q 340.01 134.13 339.46 143.25
  C 339.30 142.20 339.16 131.34 339.16 137.75
  Q 339.16 140.49 337.59 138.88
  A 1.23 1.15 66.4 0 0 336.74 138.51
  L 323.31 138.57
  A 0.88 0.75 -73.3 0 0 322.61 139.02
  Q 322.24 139.68 321.54 140.00
  Q 321.98 131.36 319.04 123.25
  Z"
/>
<path fill="#0065ab" d="
  M 274.50 129.46
  C 278.91 135.63 289.29 134.60 297.43 134.33
  A 1.73 1.58 -28.0 0 1 298.37 134.57
  Q 304.19 138.11 301.71 145.00
  C 296.70 152.65 279.67 149.74 272.84 147.35
  C 267.99 145.64 264.47 141.98 260.82 138.38
  L 256.91 130.88
  Q 265.40 130.15 273.69 130.66
  A 0.28 0.24 77.2 0 0 273.90 130.27
  Q 273.62 129.66 274.50 129.46
  Z"
/>
<path fill="#005ea4" d="
  M 379.96 134.50
  Q 383.36 153.52 377.23 171.83
  Q 376.09 171.79 376.12 172.56
  A 1.30 0.41 80.2 0 1 376.02 173.29
  Q 375.57 174.14 375.46 173.18
  A 0.39 0.38 85.3 0 0 375.06 172.83
  C 368.98 173.12 361.65 172.13 358.28 173.48
  Q 357.80 173.67 357.93 173.20
  C 358.12 172.44 359.81 169.98 358.25 169.96
  C 363.42 159.07 363.39 149.89 361.54 137.75
  Q 362.11 138.02 362.11 137.31
  Q 362.11 136.96 362.34 137.22
  C 362.73 137.67 362.89 137.84 363.53 137.77
  Q 370.72 136.94 377.93 137.52
  A 1.45 1.27 67.1 0 1 378.78 137.93
  Q 379.99 139.16 380.16 137.81
  A 1.68 0.76 51.0 0 0 379.92 136.88
  Q 379.30 135.72 379.96 134.50
  Z"
/>
<path fill="#0061a7" d="
  M 236.96 135.25
  Q 238.57 143.40 242.50 150.71
  Q 241.82 151.83 243.08 153.62
  Q 243.50 154.22 242.78 154.26
  C 238.13 154.57 233.47 154.22 228.78 154.47
  Q 226.57 154.59 225.25 152.54
  Q 222.56 145.63 221.19 138.20
  Q 222.97 136.01 225.75 136.50
  Q 231.88 137.59 236.96 135.25
  Z"
/>
<path fill="#0061a7" d="
  M 339.46 143.25
  L 338.21 153.00
  L 336.38 156.47
  A 0.28 0.27 -51.2 0 1 335.93 156.52
  C 334.76 155.16 324.94 155.75 322.75 155.75
  Q 320.10 155.75 317.60 156.46
  Q 322.11 149.04 321.54 140.00
  Q 322.24 139.68 322.61 139.02
  A 0.88 0.75 -73.3 0 1 323.31 138.57
  L 336.74 138.51
  A 1.23 1.15 66.4 0 1 337.59 138.88
  Q 339.16 140.49 339.16 137.75
  C 339.16 131.34 339.30 142.20 339.46 143.25
  Z"
/>
<path fill="#0061a7" d="
  M 196.91 138.24
  L 202.50 159.21
  Q 201.76 159.17 201.33 159.65
  A 0.99 0.70 -59.5 0 1 200.57 159.99
  C 198.20 159.64 187.12 157.92 186.14 160.52
  Q 186.00 160.87 185.87 160.51
  Q 185.44 159.32 184.04 159.50
  L 179.04 141.00
  C 182.43 138.85 190.60 139.71 195.10 139.18
  A 0.88 0.87 -21.3 0 1 195.91 139.53
  Q 197.11 141.13 196.91 138.24
  Z"
/>
<path fill="#010102" fill-opacity="0.380" d="
  M 260.82 138.38
  C 264.47 141.98 267.99 145.64 272.84 147.35
  C 279.67 149.74 296.70 152.65 301.71 145.00
  C 301.96 151.55 297.22 152.54 291.67 152.93
  C 287.63 153.22 283.11 153.24 278.83 152.08
  C 276.39 151.42 273.81 151.36 272.25 150.75
  Q 263.47 147.30 260.82 138.38
  Z"
/>
<path fill="#00569c" d="
  M 242.50 150.71
  C 257.58 175.65 285.79 175.39 309.07 162.85
  Q 313.71 160.36 317.60 156.46
  Q 320.10 155.75 322.75 155.75
  C 324.94 155.75 334.76 155.16 335.93 156.52
  A 0.28 0.27 -51.2 0 0 336.38 156.47
  L 338.21 153.00
  L 337.21 156.25
  C 328.98 174.98 303.98 184.86 284.99 186.46
  C 264.01 188.23 245.54 181.84 232.00 165.04
  Q 227.61 159.34 225.25 152.54
  Q 226.57 154.59 228.78 154.47
  C 233.47 154.22 238.13 154.57 242.78 154.26
  Q 243.50 154.22 243.08 153.62
  Q 241.82 151.83 242.50 150.71
  Z"
/>
<path fill="#010102" fill-opacity="0.380" d="
  M 337.21 156.25
  Q 336.36 159.29 335.31 162.27
  C 331.69 172.46 318.63 179.32 309.77 183.48
  C 293.58 191.08 273.90 191.82 256.91 186.69
  Q 254.54 185.97 251.80 184.22
  Q 249.38 182.67 246.84 181.32
  Q 240.25 177.81 235.26 172.24
  Q 232.50 169.15 232.00 165.04
  C 245.54 181.84 264.01 188.23 284.99 186.46
  C 303.98 184.86 328.98 174.98 337.21 156.25
  Z"
/>
<path fill="#00569c" d="
  M 202.50 159.21
  Q 206.61 169.49 212.75 178.71
  C 210.59 178.05 212.56 180.92 213.08 181.46
  A 0.45 0.37 53.4 0 1 213.05 182.12
  Q 212.27 182.49 211.43 181.15
  A 0.93 0.89 -16.2 0 0 210.64 180.74
  L 197.55 180.83
  A 0.94 0.90 -71.7 0 0 196.80 181.23
  Q 196.09 182.23 195.00 182.54
  L 193.79 180.75
  Q 187.89 170.60 184.04 159.50
  Q 185.44 159.32 185.87 160.51
  Q 186.00 160.87 186.14 160.52
  C 187.12 157.92 198.20 159.64 200.57 159.99
  A 0.99 0.70 -59.5 0 0 201.33 159.65
  Q 201.76 159.17 202.50 159.21
  Z"
/>
<path fill="#005197" d="
  M 358.25 169.96
  C 359.81 169.98 358.12 172.44 357.93 173.20
  Q 357.80 173.67 358.28 173.48
  C 361.65 172.13 368.98 173.12 375.06 172.83
  A 0.39 0.38 85.3 0 1 375.46 173.18
  Q 375.57 174.14 376.02 173.29
  A 1.30 0.41 80.2 0 0 376.12 172.56
  Q 376.09 171.79 377.23 171.83
  L 374.11 178.81
  Q 369.34 186.92 363.29 194.00
  Q 362.22 194.40 361.49 195.28
  Q 361.24 195.58 361.19 195.19
  L 361.07 194.29
  A 0.74 0.63 0.6 0 0 360.44 193.74
  C 354.63 193.03 348.67 194.21 341.80 192.79
  A 0.32 0.31 -67.4 0 1 341.61 192.30
  Q 342.18 191.41 341.75 190.54
  Q 352.36 182.15 358.25 169.96
  Z"
/>
<path fill="#00458d" d="
  M 212.75 178.71
  C 226.45 196.98 247.82 206.12 270.03 208.80
  C 285.52 210.67 300.43 210.22 314.96 204.75
  Q 329.26 199.36 341.75 190.54
  Q 342.18 191.41 341.61 192.30
  A 0.32 0.31 -67.4 0 0 341.80 192.79
  C 348.67 194.21 354.63 193.03 360.44 193.74
  A 0.74 0.63 0.6 0 1 361.07 194.29
  L 361.19 195.19
  Q 361.24 195.58 361.49 195.28
  Q 362.22 194.40 363.29 194.00
  C 348.14 210.81 320.49 224.94 297.96 226.71
  Q 268.44 229.03 240.78 218.99
  C 221.81 212.10 206.23 199.33 195.00 182.54
  Q 196.09 182.23 196.80 181.23
  A 0.94 0.90 -71.7 0 1 197.55 180.83
  L 210.64 180.74
  A 0.93 0.89 -16.2 0 1 211.43 181.15
  Q 212.27 182.49 213.05 182.12
  A 0.45 0.37 53.4 0 0 213.08 181.46
  C 212.56 180.92 210.59 178.05 212.75 178.71
  Z"
/>
<path fill="#010102" fill-opacity="0.380" d="
  M 374.11 178.81
  C 366.00 202.08 343.61 214.99 322.31 224.31
  Q 319.80 225.41 308.25 228.25
  Q 304.49 229.17 301.90 229.30
  Q 297.68 229.51 297.62 229.52
  C 280.74 231.46 263.23 229.37 246.68 224.07
  Q 246.57 224.03 242.86 223.22
  C 240.80 222.77 239.64 221.67 238.02 221.00
  C 233.53 219.14 227.97 217.02 224.26 213.86
  C 223.05 212.83 221.68 212.48 220.50 211.39
  C 218.48 209.54 215.88 208.49 214.07 206.91
  Q 207.54 201.19 201.83 194.63
  Q 201.57 194.33 201.03 194.05
  Q 199.89 193.46 200.43 192.36
  A 0.35 0.35 -70.1 0 0 200.20 191.86
  Q 198.90 191.53 198.43 190.04
  Q 198.07 188.90 197.39 187.91
  Q 194.51 183.71 193.79 180.75
  L 195.00 182.54
  C 206.23 199.33 221.81 212.10 240.78 218.99
  Q 268.44 229.03 297.96 226.71
  C 320.49 224.94 348.14 210.81 363.29 194.00
  Q 369.34 186.92 374.11 178.81
  Z"
/>
<path fill="#505050" d="
  M 131.24 239.06
  Q 128.17 230.26 122.00 223.21
  C 113.89 214.40 101.16 210.73 89.50 210.74
  Q 74.65 210.75 59.79 210.75
  L 58.96 208.39
  A 0.48 0.46 79.8 0 1 59.39 207.75
  Q 75.25 207.75 90.75 207.82
  C 109.99 207.90 128.18 218.95 131.24 239.06
  Z"
/>
<path fill="#2e2e2e" d="
  M 122.00 223.21
  Q 117.62 224.64 112.98 224.26
  C 102.58 213.37 87.09 214.07 73.31 215.77
  A 1.22 1.22 86.2 0 0 72.25 216.98
  L 72.21 230.25
  L 71.84 232.76
  A 0.49 0.46 10.3 0 1 71.26 233.14
  Q 66.82 232.25 61.75 233.25
  Q 60.80 233.44 60.29 232.25
  Q 60.55 221.48 59.79 210.75
  Q 74.65 210.75 89.50 210.74
  C 101.16 210.73 113.89 214.40 122.00 223.21
  Z"
/>
<path fill="#505050" d="
  M 526.71 218.25
  L 517.00 221.29
  Q 516.20 220.21 516.17 218.94
  A 0.70 0.65 -9.2 0 1 516.67 218.29
  L 525.65 215.78
  A 0.53 0.52 67.9 0 1 526.26 216.04
  Q 526.93 217.32 526.71 218.25
  Z"
/>
<path fill="#232323" d="
  M 526.71 218.25
  L 526.75 232.46
  Q 526.34 233.23 526.57 234.04
  Q 526.71 234.53 526.71 235.00
  Q 526.72 236.13 527.80 235.71
  Q 528.30 235.52 528.74 235.51
  L 541.46 235.25
  L 541.32 238.70
  A 0.53 0.43 7.1 0 1 540.70 239.09
  Q 534.62 237.95 527.64 238.29
  A 1.14 1.10 88.4 0 0 526.59 239.44
  L 526.71 252.50
  C 525.94 252.03 526.34 248.59 526.02 250.41
  A 0.21 0.21 24.6 0 1 525.68 250.53
  Q 522.90 248.30 518.42 249.99
  A 0.54 0.48 78.5 0 1 517.77 249.50
  L 517.29 242.50
  L 517.39 239.05
  A 0.61 0.57 -83.6 0 0 516.94 238.45
  C 514.46 237.90 509.52 239.73 510.54 235.75
  L 516.70 235.46
  A 0.71 0.68 6.8 0 0 517.35 234.97
  Q 517.71 233.77 517.46 232.50
  Q 517.82 226.87 517.00 221.29
  L 526.71 218.25
  Z"
/>
<path fill="#1a1a1a" d="
  M 122.00 223.21
  Q 128.17 230.26 131.24 239.06
  Q 135.03 256.25 125.50 270.79
  L 124.38 271.41
  A 1.23 0.44 -83.0 0 0 123.96 272.25
  Q 123.82 272.90 123.23 273.13
  A 0.97 0.62 47.1 0 1 122.39 272.91
  Q 121.84 272.47 121.47 272.66
  A 4.54 4.46 32.9 0 1 119.08 273.15
  Q 114.70 272.86 112.29 274.78
  Q 117.60 268.98 118.63 261.34
  C 121.73 249.23 121.21 234.37 112.98 224.26
  Q 117.62 224.64 122.00 223.21
  Z"
/>
<path fill="#1a1a1a" d="
  M 72.21 230.25
  L 72.21 259.00
  L 71.67 262.52
  A 0.69 0.60 3.9 0 1 71.00 263.03
  L 61.31 262.97
  A 0.58 0.54 87.7 0 1 60.77 262.43
  L 60.29 255.75
  L 60.29 232.25
  Q 60.80 233.44 61.75 233.25
  Q 66.82 232.25 71.26 233.14
  A 0.49 0.46 10.3 0 0 71.84 232.76
  L 72.21 230.25
  Z"
/>
<path fill="#454545" d="
  M 504.71 237.50
  C 503.99 232.44 487.70 233.48 484.19 234.18
  Q 475.76 235.87 471.56 243.34
  C 473.31 228.33 493.52 229.26 503.83 232.53
  A 0.86 0.66 9.7 0 1 504.42 233.17
  L 504.71 237.50
  Z"
/>
<path fill="#454545" d="
  M 151.04 233.75
  L 140.75 235.29
  L 139.72 233.04
  A 0.42 0.42 -16.9 0 1 140.04 232.45
  L 150.44 230.85
  A 0.49 0.45 84.7 0 1 150.96 231.32
  L 151.04 233.75
  Z"
/>
<path fill="#454545" d="
  M 176.47 235.36
  Q 160.42 229.62 151.76 243.08
  Q 151.48 243.53 151.31 243.04
  Q 150.85 241.71 151.44 240.32
  C 156.70 230.72 166.75 229.03 176.47 232.40
  A 0.84 0.68 9.8 0 1 177.03 233.04
  Q 177.10 233.96 176.47 235.36
  Z"
/>
<path fill="#454545" d="
  M 223.86 250.06
  Q 222.28 248.39 221.96 246.00
  Q 215.12 232.92 200.01 234.07
  Q 181.97 235.43 176.54 252.50
  Q 176.46 253.26 175.75 252.96
  Q 180.45 232.83 198.59 231.13
  C 211.97 229.88 221.91 236.41 223.86 250.06
  Z"
/>
<path fill="#454545" d="
  M 273.27 248.11
  C 268.46 229.82 248.11 232.80 234.54 236.25
  Q 233.75 233.78 235.44 233.19
  C 249.09 228.40 271.69 228.05 273.27 248.11
  Z"
/>
<path fill="#454545" d="
  M 463.67 247.00
  Q 458.82 234.33 445.50 233.75
  Q 436.04 233.34 425.04 236.25
  Q 424.20 233.62 426.25 233.00
  C 440.37 228.74 460.69 227.93 463.67 247.00
  Z"
/>
<path fill="#454545" d="
  M 293.71 234.00
  L 283.04 235.75
  L 282.01 233.26
  A 0.37 0.37 -15.7 0 1 282.30 232.75
  L 292.94 231.13
  A 0.60 0.56 -12.4 0 1 293.60 231.52
  Q 293.96 232.71 293.71 234.00
  Z"
/>
<path fill="#454545" d="
  M 362.31 245.37
  Q 357.46 236.70 348.75 234.75
  Q 335.56 231.79 325.68 240.23
  A 0.66 0.65 44.6 0 1 324.83 240.23
  C 315.52 232.40 302.77 230.82 294.55 240.58
  Q 293.58 241.73 293.74 240.30
  L 294.00 238.04
  C 302.05 228.08 316.01 229.01 324.72 237.34
  A 0.90 0.90 -44.0 0 0 325.94 237.36
  C 335.04 229.32 348.54 228.47 357.73 236.52
  Q 361.70 240.00 362.31 245.37
  Z"
/>
<path fill="#454545" d="
  M 413.96 236.25
  C 397.14 231.54 380.07 233.37 370.81 250.06
  Q 370.33 250.94 369.54 250.75
  C 375.36 233.42 393.15 228.06 409.64 232.21
  C 412.15 232.84 414.78 232.38 413.96 236.25
  Z"
/>
<path fill="#454545" d="
  M 517.46 232.50
  Q 517.71 233.77 517.35 234.97
  A 0.71 0.68 6.8 0 1 516.70 235.46
  L 510.54 235.75
  L 510.59 233.18
  A 0.61 0.54 -0.5 0 1 511.19 232.64
  L 517.46 232.50
  Z"
/>
<path fill="#454545" d="
  M 526.75 232.46
  L 540.68 232.56
  A 0.74 0.66 -8.0 0 1 541.37 233.02
  Q 541.71 234.09 541.46 235.25
  L 528.74 235.51
  Q 528.30 235.52 527.80 235.71
  Q 526.72 236.13 526.71 235.00
  Q 526.71 234.53 526.57 234.04
  Q 526.34 233.23 526.75 232.46
  Z"
/>
<path fill="#1f1f1f" d="
  M 273.27 248.11
  Q 274.11 251.14 273.71 254.50
  Q 273.41 254.21 273.26 253.80
  Q 273.18 253.59 273.13 253.80
  Q 272.83 255.08 272.71 253.82
  A 0.43 0.42 -83.3 0 0 272.44 253.47
  Q 268.13 251.95 263.71 253.25
  Q 264.96 251.03 264.23 250.19
  Q 265.37 245.57 264.19 243.06
  C 259.50 233.14 242.34 237.53 235.26 241.44
  A 0.37 0.31 -17.1 0 1 234.72 241.21
  L 234.54 236.25
  C 248.11 232.80 268.46 229.82 273.27 248.11
  Z"
/>
<path fill="#1e1e1e" d="
  M 504.71 237.50
  L 504.42 239.57
  A 0.38 0.35 19.8 0 1 503.86 239.81
  C 496.48 235.44 478.70 232.80 480.31 247.00
  Q 480.16 251.54 484.50 253.46
  Q 480.30 252.58 476.30 255.64
  Q 470.33 250.53 471.56 243.34
  Q 475.76 235.87 484.19 234.18
  C 487.70 233.48 503.99 232.44 504.71 237.50
  Z"
/>
<path fill="#1f1f1f" d="
  M 151.04 233.75
  L 151.44 240.32
  Q 150.85 241.71 151.31 243.04
  Q 151.48 243.53 151.76 243.08
  Q 160.42 229.62 176.47 235.36
  L 174.40 240.79
  A 0.48 0.46 -67.5 0 1 173.77 241.07
  C 164.61 236.95 153.74 238.40 151.54 249.91
  Q 147.34 248.21 142.78 249.54
  A 0.35 0.34 82.9 0 1 142.34 249.19
  Q 142.50 245.15 141.54 241.25
  L 140.75 235.29
  L 151.04 233.75
  Z"
/>
<path fill="#1f1f1f" d="
  M 221.96 246.00
  Q 218.70 241.98 213.94 244.58
  C 206.80 231.07 190.74 236.55 186.33 249.16
  L 179.29 249.45
  A 1.54 1.36 -1.5 0 0 177.81 250.83
  Q 177.83 252.03 176.54 252.50
  Q 181.97 235.43 200.01 234.07
  Q 215.12 232.92 221.96 246.00
  Z"
/>
<path fill="#1e1e1e" d="
  M 362.31 245.37
  Q 363.09 250.89 362.71 256.75
  Q 361.51 256.31 361.76 254.97
  A 0.59 0.58 -76.5 0 0 361.36 254.31
  Q 358.15 253.34 355.29 254.05
  A 0.57 0.56 70.4 0 1 354.63 253.73
  L 353.97 252.32
  C 353.65 232.25 328.10 233.42 327.96 251.50
  Q 327.25 253.08 325.86 254.04
  A 1.03 0.86 34.5 0 1 324.97 254.12
  Q 322.47 253.20 320.13 254.44
  A 0.33 0.32 72.4 0 1 319.67 254.19
  Q 319.53 253.31 318.59 252.80
  C 321.22 233.72 296.14 232.12 293.75 250.79
  Q 293.73 252.05 293.09 252.87
  A 0.79 0.69 25.3 0 1 292.28 253.10
  Q 289.38 252.24 286.48 253.10
  A 1.34 0.83 -74.0 0 0 285.81 253.71
  Q 285.57 254.12 285.22 254.13
  A 0.69 0.48 85.0 0 1 284.70 253.50
  L 284.29 249.75
  Q 284.70 242.64 283.04 235.75
  L 293.71 234.00
  L 294.00 238.04
  L 293.74 240.30
  Q 293.58 241.73 294.55 240.58
  C 302.77 230.82 315.52 232.40 324.83 240.23
  A 0.66 0.65 44.6 0 0 325.68 240.23
  Q 335.56 231.79 348.75 234.75
  Q 357.46 236.70 362.31 245.37
  Z"
/>
<path fill="#1f1f1f" d="
  M 463.67 247.00
  L 464.22 252.64
  L 454.64 252.70
  Q 455.36 250.24 455.15 249.11
  C 457.56 232.50 433.99 236.47 426.38 241.40
  Q 424.99 242.30 425.00 240.66
  L 425.04 236.25
  Q 436.04 233.34 445.50 233.75
  Q 458.82 234.33 463.67 247.00
  Z"
/>
<path fill="#1f1f1f" d="
  M 413.96 236.25
  L 413.94 240.69
  A 0.38 0.36 14.1 0 1 413.39 241.00
  C 401.21 234.52 384.46 235.64 379.46 250.40
  L 371.94 250.19
  Q 370.05 250.13 370.00 252.50
  Q 369.97 253.84 368.79 254.00
  L 369.54 250.75
  Q 370.33 250.94 370.81 250.06
  C 380.07 233.37 397.14 231.54 413.96 236.25
  Z"
/>
<path fill="#101010" d="
  M 141.54 241.25
  Q 142.50 245.15 142.34 249.19
  A 0.35 0.34 82.9 0 0 142.78 249.54
  Q 147.34 248.21 151.54 249.91
  L 151.21 269.75
  L 150.88 271.81
  A 0.59 0.57 -85.3 0 1 150.31 272.31
  C 148.31 272.28 144.27 272.04 142.84 273.42
  Q 141.71 274.51 141.54 276.25
  L 141.54 241.25
  Z"
/>
<path fill="#101010" d="
  M 517.29 242.50
  L 517.77 249.50
  A 0.54 0.48 78.5 0 0 518.42 249.99
  Q 522.90 248.30 525.68 250.53
  A 0.21 0.21 24.6 0 0 526.02 250.41
  C 526.34 248.59 525.94 252.03 526.71 252.50
  L 526.71 258.00
  L 526.00 273.46
  A 1.23 1.02 -5.8 0 1 525.02 274.46
  L 517.54 276.00
  L 517.29 242.50
  Z"
/>
<path fill="#141414" d="
  M 221.96 246.00
  Q 222.28 248.39 223.86 250.06
  L 224.50 255.75
  A 0.50 0.45 -3.1 0 1 224.00 256.25
  L 185.66 256.25
  A 0.87 0.87 -88.6 0 0 184.79 257.08
  Q 184.47 263.03 185.50 268.21
  Q 185.06 270.05 185.96 271.75
  L 177.96 273.75
  Q 173.09 263.82 175.75 252.96
  Q 176.46 253.26 176.54 252.50
  Q 177.83 252.03 177.81 250.83
  A 1.54 1.36 -1.5 0 1 179.29 249.45
  L 186.33 249.16
  Q 186.02 249.58 186.50 250.04
  L 186.41 252.25
  A 0.69 0.53 -87.6 0 0 186.91 252.96
  Q 201.08 253.60 214.43 252.96
  A 0.68 0.64 4.3 0 0 215.06 252.45
  Q 215.33 251.21 215.00 249.96
  Q 215.29 247.07 213.94 244.58
  Q 218.70 241.98 221.96 246.00
  Z"
/>
<path fill="#373837" d="
  M 480.31 247.00
  C 488.89 255.99 507.48 255.06 508.95 270.28
  Q 507.94 268.90 507.10 267.43
  C 502.97 260.16 491.74 256.71 484.50 253.46
  Q 480.16 251.54 480.31 247.00
  Z"
/>
<path fill="#373837" d="
  M 455.15 249.11
  Q 455.36 250.24 454.64 252.70
  C 448.26 257.92 439.19 257.22 432.75 259.00
  Q 424.04 261.40 420.33 269.83
  C 421.21 261.46 427.15 257.30 434.68 255.41
  Q 435.73 255.14 441.39 254.66
  Q 449.14 253.99 455.15 249.11
  Z"
/>
<path fill="#373837" d="
  M 264.23 250.19
  Q 264.96 251.03 263.71 253.25
  C 258.24 257.45 250.56 257.17 244.47 258.37
  Q 234.41 260.35 229.85 269.54
  Q 231.65 260.14 239.70 256.78
  Q 241.45 256.05 248.47 255.05
  Q 256.73 253.87 264.23 250.19
  Z"
/>
<path fill="#090909" d="
  M 284.29 249.75
  L 284.70 253.50
  A 0.69 0.48 85.0 0 0 285.22 254.13
  Q 285.57 254.12 285.81 253.71
  A 1.34 0.83 -74.0 0 1 286.48 253.10
  Q 289.38 252.24 292.28 253.10
  A 0.79 0.69 25.3 0 0 293.09 252.87
  Q 293.73 252.05 293.75 250.79
  C 293.75 260.44 293.99 270.19 293.68 279.83
  Q 293.56 283.81 295.20 287.76
  A 0.54 0.53 78.8 0 1 294.71 288.50
  L 283.31 288.45
  A 0.40 0.39 -82.5 0 1 282.94 287.95
  C 283.58 285.44 284.25 283.30 284.25 280.63
  Q 284.22 265.19 284.29 249.75
  Z"
/>
<path fill="#373837" d="
  M 186.50 250.04
  L 215.00 249.96
  Q 215.33 251.21 215.06 252.45
  A 0.68 0.64 4.3 0 1 214.43 252.96
  Q 201.08 253.60 186.91 252.96
  A 0.69 0.53 -87.6 0 1 186.41 252.25
  L 186.50 250.04
  Z"
/>
<path fill="#101010" d="
  M 379.46 250.40
  Q 377.48 257.39 378.46 265.00
  Q 378.52 270.88 381.46 276.00
  Q 379.86 274.85 379.21 272.92
  A 0.41 0.38 -22.9 0 0 378.66 272.72
  Q 377.96 273.06 377.27 272.42
  A 1.41 1.26 64.5 0 0 376.44 272.07
  L 372.19 271.86
  A 0.84 0.81 78.9 0 1 371.47 271.36
  L 368.98 265.78
  Q 367.58 259.95 368.79 254.00
  Q 369.97 253.84 370.00 252.50
  Q 370.05 250.13 371.94 250.19
  L 379.46 250.40
  Z"
/>
<path fill="#0e0e0e" d="
  M 327.96 251.50
  L 327.96 271.25
  Q 325.27 275.05 320.54 274.43
  A 1.17 1.17 -0.1 0 1 319.52 273.41
  Q 319.31 271.70 318.79 272.75
  L 318.59 252.80
  Q 319.53 253.31 319.67 254.19
  A 0.33 0.32 72.4 0 0 320.13 254.44
  Q 322.47 253.20 324.97 254.12
  A 1.03 0.86 34.5 0 0 325.86 254.04
  Q 327.25 253.08 327.96 251.50
  Z"
/>
<path fill="#090909" d="
  M 353.97 252.32
  L 354.63 253.73
  A 0.57 0.56 70.4 0 0 355.29 254.05
  Q 358.15 253.34 361.36 254.31
  A 0.59 0.58 -76.5 0 1 361.76 254.97
  Q 361.51 256.31 362.71 256.75
  Q 362.78 269.12 362.63 281.50
  Q 362.59 284.97 364.18 287.88
  A 0.42 0.42 -14.3 0 1 363.81 288.50
  L 353.21 288.50
  A 0.67 0.67 -78.1 0 1 352.60 287.56
  Q 354.22 283.80 354.18 280.25
  Q 354.02 266.20 353.97 252.32
  Z"
/>
<path fill="#101010" d="
  M 464.22 252.64
  L 464.21 268.25
  Q 463.41 269.49 463.85 271.43
  Q 464.25 273.23 463.29 271.65
  Q 462.87 270.97 462.65 269.94
  A 1.03 0.81 -88.4 0 0 462.12 269.23
  Q 461.11 268.82 459.99 268.93
  Q 459.53 268.97 459.03 268.83
  C 456.56 268.12 456.30 272.42 455.00 274.04
  Q 454.55 273.62 454.46 273.00
  C 456.06 267.83 455.11 262.97 455.75 257.74
  Q 455.88 256.72 455.05 257.32
  C 446.75 263.40 434.37 257.94 428.96 269.00
  C 426.93 269.34 428.55 271.77 428.11 272.28
  A 2.63 2.62 -62.6 0 1 425.47 273.12
  Q 422.53 272.37 421.42 274.23
  A 0.50 0.46 -59.5 0 1 420.78 274.42
  L 420.04 274.00
  Q 419.54 271.82 420.33 269.83
  Q 424.04 261.40 432.75 259.00
  C 439.19 257.22 448.26 257.92 454.64 252.70
  L 464.22 252.64
  Z"
/>
<path fill="#0e0e0e" d="
  M 273.71 254.50
  L 273.71 274.50
  L 273.22 277.49
  A 0.58 0.39 -81.6 0 1 272.76 277.99
  L 265.42 277.27
  A 0.99 0.93 22.0 0 0 264.62 277.58
  Q 263.82 278.47 262.75 278.96
  Q 264.63 275.57 264.46 271.75
  Q 265.57 265.07 265.02 257.82
  A 0.33 0.32 -16.3 0 0 264.53 257.56
  C 256.34 262.01 242.78 259.41 238.27 268.91
  Q 237.11 272.71 231.84 272.76
  A 0.86 0.86 85.1 0 0 231.00 273.76
  Q 231.29 275.55 229.54 275.25
  L 229.85 269.54
  Q 234.41 260.35 244.47 258.37
  C 250.56 257.17 258.24 257.45 263.71 253.25
  Q 268.13 251.95 272.44 253.47
  A 0.43 0.42 -83.3 0 1 272.71 253.82
  Q 272.83 255.08 273.13 253.80
  Q 273.18 253.59 273.26 253.80
  Q 273.41 254.21 273.71 254.50
  Z"
/>
<path fill="#101010" d="
  M 484.50 253.46
  C 491.74 256.71 502.97 260.16 507.10 267.43
  Q 507.94 268.90 508.95 270.28
  Q 509.42 271.19 509.00 272.04
  Q 507.29 271.35 507.38 269.56
  A 0.87 0.69 -77.4 0 0 507.01 268.79
  Q 505.94 268.23 504.88 268.94
  A 1.58 1.31 -57.8 0 1 504.00 269.23
  L 499.95 269.13
  Q 489.26 260.57 476.30 255.64
  Q 480.30 252.58 484.50 253.46
  Z"
/>
<path fill="#030303" d="
  M 60.29 255.75
  L 60.77 262.43
  A 0.58 0.54 87.7 0 0 61.31 262.97
  L 71.00 263.03
  A 0.69 0.60 3.9 0 0 71.67 262.52
  L 72.21 259.00
  L 72.55 280.65
  Q 71.89 281.91 72.33 282.99
  A 1.01 0.82 -3.5 0 0 73.07 283.52
  C 86.84 285.63 101.90 284.88 112.29 274.78
  Q 114.70 272.86 119.08 273.15
  A 4.54 4.46 32.9 0 0 121.47 272.66
  Q 121.84 272.47 122.39 272.91
  A 0.97 0.62 47.1 0 0 123.23 273.13
  Q 123.82 272.90 123.96 272.25
  A 1.23 0.44 -83.0 0 1 124.38 271.41
  L 125.50 270.79
  Q 112.62 288.80 90.00 288.55
  Q 74.28 288.38 58.73 288.69
  A 0.45 0.45 -79.5 0 1 58.31 288.07
  C 61.85 279.16 60.23 265.51 60.29 255.75
  Z"
/>
<path fill="#010101" d="
  M 526.71 258.00
  C 526.76 264.06 525.69 273.63 527.13 279.24
  C 526.56 286.92 535.71 285.30 540.25 284.29
  C 540.65 288.68 537.92 288.51 534.23 289.08
  C 525.66 290.38 517.61 285.32 517.54 276.00
  L 525.02 274.46
  A 1.23 1.02 -5.8 0 0 526.00 273.46
  L 526.71 258.00
  Z"
/>
<path fill="#292929" d="
  M 118.63 261.34
  Q 117.60 268.98 112.29 274.78
  C 101.90 284.88 86.84 285.63 73.07 283.52
  A 1.01 0.82 -3.5 0 1 72.33 282.99
  Q 71.89 281.91 72.55 280.65
  C 91.74 282.89 110.08 281.56 118.63 261.34
  Z"
/>
<path fill="#292929" d="
  M 378.46 265.00
  C 382.43 284.63 400.91 285.90 415.51 277.49
  Q 416.64 276.84 416.29 278.10
  L 415.61 280.51
  C 404.77 286.90 388.90 288.45 381.46 276.00
  Q 378.52 270.88 378.46 265.00
  Z"
/>
<path fill="#010101" d="
  M 368.98 265.78
  L 371.47 271.36
  A 0.84 0.81 78.9 0 0 372.19 271.86
  L 376.44 272.07
  A 1.41 1.26 64.5 0 1 377.27 272.42
  Q 377.96 273.06 378.66 272.72
  A 0.41 0.38 -22.9 0 1 379.21 272.92
  Q 379.86 274.85 381.46 276.00
  C 388.90 288.45 404.77 286.90 415.61 280.51
  L 414.42 286.25
  A 0.87 0.85 -3.1 0 1 413.82 286.90
  C 395.12 292.64 373.06 288.09 368.98 265.78
  Z"
/>
<path fill="#292929" d="
  M 185.50 268.21
  C 190.71 285.36 209.79 284.96 222.33 276.89
  Q 223.21 276.32 223.01 277.29
  L 222.46 280.00
  C 209.27 288.33 192.21 288.07 185.96 271.75
  Q 185.06 270.05 185.50 268.21
  Z"
/>
<path fill="#030303" d="
  M 464.21 268.25
  C 464.39 273.68 462.91 283.01 465.37 287.76
  A 0.49 0.48 76.2 0 1 464.95 288.48
  L 456.19 288.35
  A 0.57 0.57 88.3 0 1 455.63 287.82
  L 455.21 282.88
  Q 455.14 282.08 454.62 282.68
  C 444.94 293.94 420.82 291.18 420.04 274.00
  L 420.78 274.42
  A 0.50 0.46 -59.5 0 0 421.42 274.23
  Q 422.53 272.37 425.47 273.12
  A 2.63 2.62 -62.6 0 0 428.11 272.28
  C 428.55 271.77 426.93 269.34 428.96 269.00
  Q 428.09 271.97 428.32 275.41
  Q 431.98 289.71 446.31 284.56
  Q 453.50 281.98 455.00 274.04
  C 456.30 272.42 456.56 268.12 459.03 268.83
  Q 459.53 268.97 459.99 268.93
  Q 461.11 268.82 462.12 269.23
  A 1.03 0.81 -88.4 0 1 462.65 269.94
  Q 462.87 270.97 463.29 271.65
  Q 464.25 273.23 463.85 271.43
  Q 463.41 269.49 464.21 268.25
  Z"
/>
<path fill="#030303" d="
  M 509.00 272.04
  C 508.93 291.12 485.12 290.44 472.79 286.83
  A 1.02 0.78 4.4 0 1 472.12 286.23
  L 470.54 280.25
  C 478.14 284.86 487.25 287.85 495.19 284.19
  Q 499.86 282.03 499.66 276.75
  Q 500.57 273.38 499.95 269.13
  L 504.00 269.23
  A 1.58 1.31 -57.8 0 0 504.88 268.94
  Q 505.94 268.23 507.01 268.79
  A 0.87 0.69 -77.4 0 1 507.38 269.56
  Q 507.29 271.35 509.00 272.04
  Z"
/>
<path fill="#010101" d="
  M 238.27 268.91
  Q 237.63 272.33 238.07 275.78
  C 240.16 289.11 256.45 288.13 262.75 278.96
  Q 263.82 278.47 264.62 277.58
  A 0.99 0.93 22.0 0 1 265.42 277.27
  L 272.76 277.99
  A 0.58 0.39 -81.6 0 0 273.22 277.49
  L 273.71 274.50
  Q 273.39 281.10 275.13 288.01
  A 0.40 0.40 -6.8 0 1 274.74 288.50
  L 266.14 288.50
  A 1.07 1.00 0.0 0 1 265.07 287.50
  L 265.03 282.77
  Q 265.03 282.05 264.54 282.56
  Q 259.78 287.47 254.43 288.65
  C 243.93 290.96 231.46 287.64 229.54 275.25
  Q 231.29 275.55 231.00 273.76
  A 0.86 0.86 85.1 0 1 231.84 272.76
  Q 237.11 272.71 238.27 268.91
  Z"
/>
<path fill="#010101" d="
  M 151.21 269.75
  Q 150.94 278.40 151.84 287.99
  A 0.46 0.46 87.2 0 1 151.38 288.50
  C 147.98 288.50 144.67 288.37 141.48 288.61
  C 139.03 288.79 140.96 286.61 141.12 285.45
  Q 141.76 280.88 141.54 276.25
  Q 141.71 274.51 142.84 273.42
  C 144.27 272.04 148.31 272.28 150.31 272.31
  A 0.59 0.57 -85.3 0 0 150.88 271.81
  L 151.21 269.75
  Z"
/>
<path fill="#010101" d="
  M 327.96 271.25
  C 328.02 276.82 327.23 282.71 329.46 287.91
  A 0.44 0.42 -11.8 0 1 329.06 288.50
  L 318.48 288.75
  A 0.93 0.90 10.1 0 1 317.58 287.51
  C 319.43 283.05 318.68 278.62 318.79 272.75
  Q 319.31 271.70 319.52 273.41
  A 1.17 1.17 -0.0 0 0 320.54 274.43
  Q 325.27 275.05 327.96 271.25
  Z"
/>
<path fill="#010101" d="
  M 185.96 271.75
  C 192.21 288.07 209.27 288.33 222.46 280.00
  L 221.45 285.33
  A 1.02 0.87 -8.3 0 1 220.86 286.01
  C 205.06 292.83 186.61 289.77 177.96 273.75
  L 185.96 271.75
  Z"
/>
<path fill="#292929" d="
  M 264.46 271.75
  Q 264.63 275.57 262.75 278.96
  C 256.45 288.13 240.16 289.11 238.07 275.78
  C 244.97 287.10 261.05 284.21 264.46 271.75
  Z"
/>
<path fill="#292929" d="
  M 454.46 273.00
  Q 454.55 273.62 455.00 274.04
  Q 453.50 281.98 446.31 284.56
  Q 431.98 289.71 428.32 275.41
  Q 432.07 282.55 439.75 282.75
  Q 450.60 283.03 454.46 273.00
  Z"
/>
<path fill="#292929" d="
  M 499.66 276.75
  Q 499.86 282.03 495.19 284.19
  C 487.25 287.85 478.14 284.86 470.54 280.25
  L 470.04 277.65
  Q 469.82 276.48 470.90 277.21
  C 479.14 282.69 492.92 287.04 499.66 276.75
  Z"
/>
<path fill="#292929" d="
  M 527.13 279.24
  C 530.61 283.59 535.72 282.40 540.33 281.18
  A 0.37 0.34 -3.6 0 1 540.80 281.56
  L 540.25 284.29
  C 535.71 285.30 526.56 286.92 527.13 279.24
  Z"
/>
</svg>
