<?xml version="1.0" encoding="UTF-8" standalone="no"?>
<!DOCTYPE svg PUBLIC "-//W3C//DTD SVG 1.1//EN" "http://www.w3.org/Graphics/SVG/1.1/DTD/svg11.dtd">
<svg xmlns="http://www.w3.org/2000/svg" version="1.1" viewBox="0 0 600 300">
<path fill="#000000" d="
  M 307.15 150.10
  A 51.64 51.64 0.0 0 1 255.51 201.74
  A 51.64 51.64 0.0 0 1 203.87 150.10
  A 51.64 51.64 0.0 0 1 255.51 98.46
  A 51.64 51.64 0.0 0 1 307.15 150.10
  Z
  M 291.70 150.24
  A 36.08 36.08 0.0 0 0 255.62 114.16
  A 36.08 36.08 0.0 0 0 219.54 150.24
  A 36.08 36.08 0.0 0 0 255.62 186.32
  A 36.08 36.08 0.0 0 0 291.70 150.24
  Z"
/>
<rect fill="#000000" x="-7.79" y="-48.74" transform="translate(466.00,148.01) rotate(0.1)" width="15.58" height="97.48" rx="0.63"/>
<path fill="#000000" d="
  M 553.35 184.69
  L 598.32 184.75
  A 0.50 0.50 -89.4 0 1 598.82 185.26
  L 598.75 196.23
  A 0.52 0.51 -90.0 0 1 598.24 196.75
  L 536.51 196.75
  A 0.76 0.76 0.0 0 1 535.75 195.99
  L 535.75 186.31
  A 2.32 2.29 -22.5 0 1 536.44 184.67
  Q 554.16 167.28 570.44 150.19
  C 572.44 148.08 575.68 143.53 577.10 140.63
  C 581.83 131.02 581.50 115.03 568.60 111.54
  C 559.42 109.05 550.23 113.35 543.89 119.98
  A 0.89 0.87 47.5 0 1 542.58 119.91
  L 536.61 112.70
  A 0.94 0.91 48.1 0 1 536.66 111.44
  Q 552.11 96.49 572.94 100.31
  C 583.76 102.30 591.02 110.58 593.17 121.27
  C 595.83 134.42 589.57 146.79 580.46 156.47
  Q 567.20 170.58 552.99 183.76
  Q 551.99 184.69 553.35 184.69
  Z"
/>
<path fill="#000000" d="
  M 72.59 160.69
  Q 73.82 162.02 73.81 160.20
  L 73.50 101.37
  A 0.81 0.81 -0.4 0 1 74.30 100.56
  L 88.76 100.50
  A 0.56 0.55 90.0 0 1 89.31 101.06
  L 89.43 193.68
  Q 89.43 195.37 88.12 194.30
  L 16.09 135.43
  Q 15.25 134.75 15.25 135.83
  L 15.25 195.69
  A 0.56 0.56 -88.7 0 1 14.69 196.25
  L 2.59 196.25
  A 0.81 0.81 89.3 0 1 1.78 195.46
  C 0.83 164.39 1.62 133.11 1.31 102.09
  Q 1.31 101.29 1.93 101.80
  Q 34.96 129.16 68.03 156.44
  Q 70.57 158.54 72.59 160.69
  Z"
/>
<path fill="#000000" d="
  M 374.82 162.45
  A 0.47 0.47 90.0 0 0 375.54 162.45
  L 427.44 101.13
  Q 428.44 99.96 428.43 101.50
  L 428.19 195.95
  A 0.52 0.52 -0.6 0 1 427.68 196.47
  L 412.28 196.73
  A 0.54 0.52 89.5 0 1 411.75 196.19
  L 411.68 146.52
  Q 411.67 144.63 410.48 146.09
  L 375.58 188.52
  A 0.66 0.65 44.8 0 1 374.57 188.52
  L 339.05 145.92
  Q 338.31 145.03 338.31 146.20
  L 338.50 196.18
  A 0.58 0.57 -0.0 0 1 337.92 196.75
  L 323.80 196.75
  A 1.05 1.04 -0.0 0 1 322.75 195.71
  L 323.00 102.50
  Q 323.00 102.00 323.33 102.38
  Q 349.46 132.07 374.82 162.45
  Z"
/>
<path fill="#000000" d="
  M 118.93 161.00
  L 151.06 102.21
  Q 151.57 101.29 152.07 102.21
  L 204.09 195.99
  A 0.63 0.63 -13.9 0 1 203.52 196.92
  L 186.31 196.69
  A 0.87 0.83 -12.8 0 1 185.57 196.25
  L 175.38 176.95
  A 1.32 1.28 75.6 0 0 174.24 176.25
  L 128.48 176.25
  A 0.87 0.84 -74.7 0 0 127.74 176.69
  L 116.57 196.38
  A 0.90 0.83 13.7 0 1 115.81 196.80
  L 100.26 196.92
  Q 99.10 196.93 99.68 195.95
  L 110.90 177.01
  Q 111.34 176.25 110.47 176.25
  L 101.34 176.25
  A 1.09 1.09 0.0 0 1 100.25 175.16
  L 100.25 162.54
  A 0.86 0.82 -0.7 0 1 101.09 161.72
  L 118.20 161.47
  A 0.90 0.82 -74.9 0 0 118.93 161.00
  Z
  M 150.76 131.07
  L 134.70 160.62
  A 0.64 0.63 -75.9 0 0 135.26 161.56
  L 167.33 161.50
  Q 169.33 161.50 167.78 160.23
  Q 166.96 159.55 166.23 158.17
  Q 158.97 144.47 151.92 131.07
  Q 151.35 129.99 150.76 131.07
  Z"
/>
</svg>
