<?xml version="1.0" encoding="UTF-8" standalone="no"?>
<!DOCTYPE svg PUBLIC "-//W3C//DTD SVG 1.1//EN" "http://www.w3.org/Graphics/SVG/1.1/DTD/svg11.dtd">
<svg xmlns="http://www.w3.org/2000/svg" version="1.1" viewBox="0 0 600 300">
<path fill="#000000" d="
  M 172.06 65.94
  C 195.26 72.81 209.82 93.53 207.75 117.50
  C 202.72 175.67 112.40 181.12 98.85 125.27
  Q 93.96 105.14 105.31 87.06
  C 119.01 65.24 148.14 58.85 172.06 65.94
  Z
  M 169.06 78.69
  Q 160.28 71.41 149.25 73.00
  C 118.19 77.49 116.33 130.27 135.19 147.56
  C 150.13 161.26 171.79 153.81 178.50 135.75
  C 184.97 118.35 184.73 91.68 169.06 78.69
  Z"
/>
<path fill="#000000" d="
  M 0.00 67.44
  L 0.00 66.69
  C 6.45 66.46 18.52 65.42 23.67 66.95
  C 29.67 68.74 28.99 74.15 29.03 80.15
  Q 29.10 94.41 28.82 108.58
  Q 28.80 109.19 29.24 108.76
  L 71.50 67.11
  A 2.21 2.11 21.7 0 1 73.02 66.50
  L 94.97 66.50
  Q 95.69 66.50 95.17 66.99
  L 52.96 107.02
  A 0.80 0.80 48.2 0 0 52.90 108.12
  Q 69.76 128.31 86.69 146.81
  Q 95.63 156.60 107.95 159.78
  C 109.38 160.15 109.99 161.45 108.00 161.75
  C 91.19 164.28 70.92 162.40 58.60 148.66
  Q 43.67 132.02 29.45 114.55
  Q 28.93 113.91 28.93 114.73
  L 29.00 160.01
  A 0.94 0.91 0.3 0 1 28.05 160.92
  L 7.05 160.84
  A 1.07 1.04 0.3 0 1 5.99 159.80
  Q 6.18 117.19 5.78 75.81
  C 5.73 71.38 3.80 69.13 0.00 67.44
  Z"
/>
<path fill="#000000" d="
  M 240.32 92.99
  L 240.44 160.45
  A 0.52 0.49 -0.0 0 1 239.92 160.94
  L 225.97 160.91
  A 0.97 0.90 0.3 0 1 225.00 160.00
  Q 225.18 117.52 224.77 75.75
  C 224.74 71.68 223.02 69.45 219.53 67.88
  A 1.03 0.72 13.4 0 1 218.93 67.20
  Q 218.83 66.44 219.75 66.44
  Q 230.62 66.50 241.50 66.54
  Q 247.35 66.56 251.14 70.85
  Q 274.68 97.50 297.61 124.67
  Q 297.86 124.97 298.00 125.56
  Q 298.19 126.37 298.95 126.60
  A 0.42 0.37 -82.4 0 0 299.43 126.18
  L 299.26 67.35
  A 0.79 0.78 -90.0 0 1 300.04 66.56
  L 313.67 66.50
  A 0.89 0.88 -90.0 0 1 314.56 67.40
  Q 314.45 110.28 314.50 152.25
  C 314.51 162.21 306.66 160.45 299.86 160.90
  A 1.48 1.47 -22.1 0 1 298.64 160.39
  Q 272.27 129.96 248.56 102.19
  Q 244.67 97.64 241.31 92.68
  Q 240.32 91.22 240.32 92.99
  Z"
/>
<path fill="#000000" d="
  M 390.19 138.76
  L 349.90 138.98
  A 1.35 1.34 11.7 0 0 348.69 139.77
  L 339.45 160.27
  A 1.05 0.95 10.4 0 1 338.53 160.84
  L 322.38 160.92
  A 0.49 0.47 11.5 0 1 321.92 160.25
  Q 341.57 118.10 360.91 76.49
  Q 363.47 70.99 358.81 67.44
  Q 357.58 66.50 359.00 66.50
  Q 366.96 66.50 374.91 66.50
  C 382.99 66.50 384.66 68.71 387.72 75.26
  Q 407.62 117.82 427.17 160.33
  A 0.37 0.36 -12.6 0 1 426.84 160.84
  L 402.16 160.94
  A 1.07 1.05 -12.0 0 1 401.19 160.32
  L 392.13 139.98
  A 2.13 2.06 -11.9 0 0 390.19 138.76
  Z
  M 370.49 91.76
  L 354.55 126.90
  A 0.60 0.60 -77.6 0 0 355.09 127.75
  L 385.91 127.75
  A 0.62 0.61 78.1 0 0 386.47 126.88
  L 371.03 91.76
  Q 370.76 91.15 370.49 91.76
  Z"
/>
<path fill="#000000" d="
  M 495.76 125.01
  Q 496.38 124.37 497.29 121.62
  Q 497.47 121.08 497.70 120.54
  L 520.52 67.40
  A 1.49 1.49 -78.3 0 1 521.89 66.50
  C 528.32 66.50 537.70 64.88 541.76 70.35
  Q 543.44 72.60 544.50 79.06
  Q 551.15 119.43 557.84 160.30
  A 0.56 0.54 -4.4 0 1 557.28 160.93
  L 535.29 160.84
  A 0.88 0.84 -3.9 0 1 534.44 160.13
  L 523.88 93.44
  Q 523.67 92.14 523.16 93.35
  L 495.24 159.65
  A 1.81 1.76 10.2 0 1 493.65 160.72
  L 488.05 160.91
  A 0.82 0.80 -15.5 0 1 487.31 160.50
  C 485.43 157.15 483.82 152.66 482.70 150.09
  Q 470.47 121.94 458.86 93.97
  Q 458.44 92.98 458.28 94.04
  L 448.12 160.08
  A 1.06 0.98 4.1 0 1 447.08 160.91
  L 434.29 160.92
  A 0.83 0.78 4.4 0 1 433.46 160.01
  Q 440.00 120.35 446.44 80.91
  C 447.42 74.91 448.62 70.91 443.37 67.81
  A 1.00 0.58 24.6 0 1 442.85 67.07
  C 442.97 66.12 459.28 66.50 461.14 66.50
  C 466.43 66.50 470.64 67.37 472.81 72.19
  Q 480.37 88.96 495.12 124.73
  A 0.48 0.35 59.6 0 0 495.76 125.01
  Z"
/>
<path fill="#000000" d="
  M 600.00 73.31
  L 600.00 160.59
  L 577.09 160.93
  A 0.83 0.82 89.3 0 1 576.25 160.10
  Q 576.25 120.87 576.25 82.18
  C 576.25 75.05 577.04 70.79 570.71 67.86
  C 569.96 67.52 569.51 66.50 570.75 66.50
  Q 580.25 66.50 589.74 66.50
  C 595.30 66.50 599.02 67.47 600.00 73.31
  Z"
/>
<path fill="#000000" d="
  M 594.89 204.88
  A 32.10 32.10 0.0 0 1 562.79 236.98
  L 38.21 236.98
  A 32.10 32.10 0.0 0 1 6.11 204.88
  L 6.11 204.12
  A 32.10 32.10 0.0 0 1 38.21 172.02
  L 562.79 172.02
  A 32.10 32.10 0.0 0 1 594.89 204.12
  L 594.89 204.88
  Z
  M 62.79 220.45
  A 2.49 2.49 14.4 0 1 61.50 218.27
  Q 61.50 206.34 61.50 195.48
  C 61.50 191.88 61.07 189.54 64.82 188.58
  Q 68.89 187.54 72.85 188.44
  C 77.10 189.42 77.01 191.48 76.98 195.27
  A 1.62 1.50 -90.0 0 0 78.49 196.90
  L 90.56 196.85
  A 0.60 0.58 -86.5 0 0 91.13 196.33
  Q 92.56 185.32 81.92 182.61
  C 73.21 180.40 53.11 178.82 47.57 188.28
  Q 46.26 190.53 46.25 194.98
  Q 46.22 205.61 46.03 216.25
  C 45.74 232.59 81.43 231.84 88.55 223.32
  Q 91.98 219.22 91.04 211.82
  A 1.20 1.15 85.8 0 0 89.88 210.78
  L 77.69 210.91
  A 0.56 0.53 -88.3 0 0 77.16 211.44
  L 76.77 218.44
  A 2.52 2.48 -11.3 0 1 75.33 220.56
  Q 68.68 223.67 62.79 220.45
  Z
  M 160.46 222.31
  Q 160.61 221.80 160.33 221.36
  A 1.10 0.74 -10.9 0 0 159.49 221.00
  L 136.27 221.00
  A 0.77 0.77 0.0 0 1 135.50 220.23
  L 135.56 181.45
  A 0.45 0.45 0.0 0 0 135.11 181.00
  L 121.15 181.00
  A 0.65 0.65 0.0 0 0 120.50 181.65
  L 120.44 227.55
  A 0.45 0.45 -0.2 0 0 120.89 228.00
  L 159.65 228.00
  A 0.71 0.71 -83.9 0 0 160.34 227.44
  Q 160.78 225.38 160.36 223.24
  Q 160.29 222.88 160.46 222.31
  Z
  M 216.59 219.79
  L 218.73 227.33
  A 0.94 0.93 82.2 0 0 219.63 228.02
  L 232.97 228.16
  A 1.01 0.99 -8.2 0 0 233.96 226.87
  L 219.25 181.74
  A 1.09 1.09 80.7 0 0 218.22 181.00
  L 197.57 181.00
  A 1.13 1.13 8.8 0 0 196.49 181.79
  L 181.70 227.14
  A 0.66 0.65 -80.9 0 0 182.32 228.00
  L 194.59 228.00
  A 1.22 1.16 -81.8 0 0 195.72 227.11
  L 197.79 219.83
  A 1.09 1.09 -81.6 0 1 198.85 219.04
  L 215.93 219.28
  A 0.70 0.70 -7.3 0 1 216.59 219.79
  Z
  M 258.44 187.19
  C 253.33 194.07 259.17 200.70 265.54 203.74
  C 269.69 205.72 284.19 211.51 285.56 215.69
  C 288.27 223.90 268.88 224.93 270.59 215.48
  A 1.23 1.18 -84.8 0 0 269.43 214.03
  L 256.68 214.16
  A 0.59 0.56 -87.7 0 0 256.13 214.69
  C 254.54 231.63 281.12 230.07 291.26 227.55
  C 305.37 224.05 302.97 211.45 291.82 206.18
  C 288.22 204.47 267.13 196.57 272.37 190.26
  C 275.34 186.69 287.89 186.75 286.55 193.87
  A 0.96 0.96 5.3 0 0 287.49 195.00
  L 300.30 195.00
  A 0.70 0.70 0.0 0 0 301.00 194.30
  C 301.04 180.61 283.02 180.26 273.57 181.19
  C 267.74 181.76 261.69 182.80 258.44 187.19
  Z
  M 330.18 184.72
  C 324.21 188.83 323.80 195.81 329.78 200.47
  Q 334.67 204.28 340.38 206.70
  C 343.81 208.15 358.75 213.92 354.30 219.71
  C 351.45 223.41 338.18 223.63 339.59 215.45
  A 1.20 1.16 -85.3 0 0 338.44 214.04
  L 325.68 214.16
  A 0.59 0.56 -87.7 0 0 325.13 214.69
  C 323.53 231.67 350.10 230.05 360.24 227.47
  C 367.74 225.57 373.32 219.16 368.24 212.15
  C 363.70 205.87 352.93 202.63 346.21 199.01
  C 335.15 193.05 342.23 186.65 351.43 188.35
  Q 355.69 189.14 355.76 194.22
  A 0.77 0.75 89.2 0 0 356.52 194.98
  L 369.32 194.84
  A 0.59 0.56 -87.7 0 0 369.87 194.31
  C 371.43 177.74 338.60 178.93 330.18 184.72
  Z
  M 411.51 181.43
  A 0.42 0.42 0.0 0 0 411.09 181.01
  L 396.91 181.01
  A 0.42 0.42 0.0 0 0 396.49 181.43
  L 396.49 227.57
  A 0.42 0.42 0.0 0 0 396.91 227.99
  L 411.09 227.99
  A 0.42 0.42 0.0 0 0 411.51 227.57
  L 411.51 181.43
  Z
  M 455.74 220.44
  A 2.49 2.39 15.8 0 1 454.52 218.35
  L 454.48 192.26
  Q 454.48 189.65 457.05 188.82
  C 460.11 187.83 464.84 187.66 467.59 188.93
  C 470.65 190.35 469.89 193.67 470.04 196.45
  A 0.53 0.52 88.9 0 0 470.56 196.96
  L 483.56 196.84
  A 0.59 0.59 -86.5 0 0 484.13 196.33
  Q 485.56 185.31 474.93 182.59
  C 466.65 180.47 444.36 178.84 440.01 188.98
  Q 439.25 190.75 439.25 194.63
  C 439.25 200.74 437.51 218.76 441.55 223.38
  C 448.06 230.81 469.95 230.03 477.47 226.55
  Q 485.56 222.80 484.13 211.43
  A 0.60 0.57 86.5 0 0 483.57 210.91
  L 470.84 210.78
  A 0.96 0.93 87.7 0 0 469.91 211.82
  C 470.15 214.83 470.70 218.82 467.99 220.69
  C 464.91 222.81 458.37 222.02 455.74 220.44
  Z
  M 522.97 181.81
  C 508.88 184.25 507.81 197.78 520.56 203.69
  C 522.19 204.44 538.88 211.12 540.69 216.06
  C 542.57 221.22 535.83 222.10 532.47 221.92
  C 527.85 221.67 524.81 220.74 525.57 215.23
  A 1.04 1.01 -86.1 0 0 524.57 214.04
  L 511.68 214.16
  A 0.59 0.56 -87.7 0 0 511.13 214.69
  C 509.53 231.67 536.10 230.05 546.24 227.47
  C 553.74 225.57 559.32 219.17 554.24 212.15
  C 551.68 208.61 547.14 206.10 542.99 204.27
  C 539.65 202.79 529.51 198.69 527.81 195.69
  C 523.08 187.32 535.67 186.89 539.44 189.06
  Q 541.79 190.41 541.74 194.18
  A 0.79 0.76 -90.0 0 0 542.51 194.98
  L 555.31 194.84
  A 0.59 0.57 -87.7 0 0 555.87 194.31
  C 557.31 178.99 531.76 180.29 522.97 181.81
  Z"
/>
<path fill="#000000" d="
  M 200.09 212.52
  L 206.79 190.52
  A 0.37 0.37 40.8 0 1 207.49 190.52
  L 214.19 212.52
  A 0.37 0.37 -7.8 0 1 213.84 213.00
  L 200.44 213.00
  A 0.37 0.37 8.4 0 1 200.09 212.52
  Z"
/>
</svg>
