<?xml version="1.0" encoding="UTF-8" standalone="no"?>
<!DOCTYPE svg PUBLIC "-//W3C//DTD SVG 1.1//EN" "http://www.w3.org/Graphics/SVG/1.1/DTD/svg11.dtd">
<svg xmlns="http://www.w3.org/2000/svg" version="1.1" viewBox="0 0 600 300">
<ellipse fill="#000000" cx="0.00" cy="0.00" transform="translate(278.77,81.28) rotate(0.9)" rx="21.34" ry="20.28"/>
<ellipse fill="#000000" cx="0.00" cy="0.00" transform="translate(351.73,81.27) rotate(0.8)" rx="21.35" ry="20.28"/>
<path fill="#000000" d="
  M 600.00 82.06
  L 600.00 170.56
  C 598.58 187.05 584.94 197.59 568.75 197.57
  Q 511.25 197.50 453.75 197.50
  C 436.25 197.50 422.36 189.79 419.05 172.96
  Q 418.25 168.89 418.25 153.00
  Q 418.25 118.75 418.25 84.50
  C 418.25 69.23 429.34 61.17 443.75 61.25
  Q 459.15 61.33 462.81 61.42
  A 0.54 0.53 -89.4 0 1 463.32 61.95
  Q 463.61 96.47 463.52 130.99
  Q 463.50 138.43 464.75 142.88
  C 476.27 183.70 549.40 180.82 555.43 137.74
  Q 555.75 135.42 555.75 117.75
  Q 555.75 90.88 555.75 63.42
  A 1.15 1.15 -0.3 0 1 556.89 62.27
  Q 570.03 62.09 582.09 62.41
  C 592.80 62.69 598.92 72.36 600.00 82.06
  Z"
/>
<path fill="#000000" d="
  M 484.94 62.31
  A 1.06 1.05 90.0 0 1 485.99 61.25
  L 532.75 61.25
  A 0.50 0.50 0.0 0 1 533.25 61.75
  Q 533.25 93.62 533.25 125.50
  Q 533.25 133.28 531.91 136.82
  C 528.03 147.01 517.39 152.47 506.76 151.44
  C 491.31 149.94 484.98 136.35 485.00 122.25
  Q 485.05 92.09 484.94 62.31
  Z"
/>
<path fill="#000000" d="
  M 0.00 71.69
  L 0.00 71.05
  L 37.03 70.76
  A 1.03 0.99 82.5 0 1 38.00 71.53
  L 68.95 192.27
  Q 69.41 194.07 69.87 192.27
  Q 83.45 139.80 97.75 87.00
  C 101.17 74.36 112.21 67.93 124.81 69.69
  C 138.55 71.60 142.10 81.18 145.74 94.27
  C 148.09 102.76 172.19 192.99 172.35 192.98
  A 0.77 0.54 -85.7 0 0 172.88 192.33
  Q 173.21 190.27 173.72 188.24
  Q 188.59 129.87 203.52 71.40
  A 0.88 0.87 7.2 0 1 204.37 70.75
  L 240.91 70.75
  A 0.69 0.69 -82.3 0 1 241.57 71.62
  Q 222.60 140.31 203.44 207.94
  C 199.29 222.58 194.26 235.85 177.50 238.75
  C 161.54 241.51 150.86 229.28 146.94 215.31
  Q 133.96 169.10 121.32 122.09
  Q 120.84 120.28 120.36 122.09
  Q 111.51 155.45 101.97 189.30
  C 99.70 197.34 96.10 211.42 92.69 220.94
  C 83.15 247.53 48.57 243.16 41.25 217.75
  Q 18.94 140.36 1.00 74.50
  Q 0.49 72.64 0.00 71.69
  Z"
/>
<rect fill="#000000" x="261.00" y="121.50" width="36.00" height="116.48" rx="0.89"/>
<rect fill="#000000" x="333.75" y="121.50" width="36.24" height="116.50" rx="0.72"/>
</svg>
