<?xml version="1.0" encoding="UTF-8" standalone="no"?>
<!DOCTYPE svg PUBLIC "-//W3C//DTD SVG 1.1//EN" "http://www.w3.org/Graphics/SVG/1.1/DTD/svg11.dtd">
<svg xmlns="http://www.w3.org/2000/svg" version="1.1" viewBox="0 0 600 300">
<path stroke="#000000" stroke-width="2.00" fill="none" stroke-linecap="butt" vector-effect="non-scaling-stroke" d="
  M 171.46 197.50
  Q 171.73 196.43 171.16 196.51
  A 0.85 0.67 -85.1 0 0 170.55 197.16
  Q 170.38 197.94 170.54 198.75"
/>
<ellipse fill="#000000" cx="0.00" cy="0.00" transform="translate(185.57,92.40) rotate(131.7)" rx="83.49" ry="34.06"/>
<ellipse fill="#000000" cx="0.00" cy="0.00" transform="translate(306.86,92.40) rotate(133.0)" rx="84.23" ry="34.45"/>
<ellipse fill="#000000" cx="0.00" cy="0.00" transform="translate(423.99,92.40) rotate(133.0)" rx="84.24" ry="34.45"/>
<path fill="#000000" d="
  M 0.00 232.94
  L 0.00 226.69
  C 0.59 200.79 14.64 172.37 43.25 170.19
  Q 53.64 169.40 62.72 173.32
  C 77.35 179.63 81.42 190.89 82.23 205.88
  A 1.06 1.06 88.5 0 1 81.17 207.00
  L 62.70 207.00
  A 0.93 0.93 89.4 0 1 61.77 206.09
  Q 61.48 191.80 48.25 190.77
  C 27.73 189.18 20.80 212.62 20.50 228.75
  C 20.27 240.76 24.52 254.07 39.00 253.60
  C 49.70 253.25 56.03 245.61 59.17 236.24
  A 0.82 0.80 9.3 0 0 58.39 235.18
  L 41.18 235.08
  A 0.45 0.44 -85.5 0 1 40.75 234.56
  L 43.47 217.30
  A 0.60 0.57 3.9 0 1 44.06 216.81
  L 80.11 216.75
  A 0.44 0.44 -85.5 0 1 80.54 217.26
  C 78.43 229.95 77.11 241.28 70.08 253.12
  C 59.39 271.10 34.68 281.42 15.50 267.39
  C 4.95 259.66 0.16 246.00 0.00 232.94
  Z"
/>
<path fill="#000000" d="
  M 380.33 236.29
  A 0.83 0.82 8.8 0 0 379.54 235.23
  L 362.18 235.08
  A 0.44 0.44 -85.0 0 1 361.75 234.56
  L 364.68 217.52
  A 0.94 0.91 4.7 0 1 365.60 216.76
  L 400.99 216.99
  A 0.46 0.45 -86.6 0 1 401.44 217.50
  C 398.95 236.59 395.09 255.76 377.94 267.19
  C 356.87 281.22 330.02 272.32 323.44 247.81
  C 317.09 224.18 323.54 189.92 345.97 175.93
  C 359.32 167.60 379.00 168.22 391.69 177.81
  C 400.08 184.16 403.54 196.18 403.09 206.32
  A 0.54 0.53 -88.3 0 1 402.56 206.83
  L 383.73 206.98
  A 0.99 0.97 89.4 0 1 382.75 206.00
  C 382.68 194.27 375.27 189.34 364.29 190.93
  C 353.44 192.49 348.32 200.73 344.67 210.81
  C 341.01 220.92 339.22 238.99 346.72 247.90
  C 351.55 253.63 359.29 254.92 366.11 252.52
  C 373.22 250.01 378.12 243.39 380.33 236.29
  Z"
/>
<path fill="#000000" d="
  M 118.93 252.30
  L 94.68 252.42
  A 0.77 0.70 -78.4 0 0 94.01 252.91
  L 87.24 270.85
  A 0.74 0.72 -79.5 0 1 86.56 271.33
  L 68.35 271.49
  A 0.57 0.56 -78.8 0 1 67.83 270.71
  L 107.13 173.40
  A 1.35 1.32 -78.8 0 1 108.36 172.56
  L 128.02 172.50
  A 0.94 0.93 -3.1 0 1 128.95 173.33
  L 140.05 270.95
  A 0.50 0.49 86.9 0 1 139.56 271.50
  L 121.89 271.50
  A 0.67 0.65 87.1 0 1 121.24 270.90
  L 119.49 252.80
  A 0.56 0.56 -2.8 0 0 118.93 252.30
  Z
  M 101.11 235.31
  L 117.57 235.25
  A 0.59 0.59 87.8 0 0 118.16 234.61
  L 115.00 197.48
  Q 114.87 195.97 114.35 197.39
  L 100.67 234.69
  A 0.47 0.46 10.0 0 0 101.11 235.31
  Z"
/>
<path fill="#000000" d="
  M 171.46 197.50
  Q 171.73 196.43 171.16 196.51
  A 0.85 0.67 -85.1 0 0 170.55 197.16
  Q 170.38 197.94 170.54 198.75
  L 160.56 271.05
  A 0.53 0.52 3.7 0 1 160.04 271.50
  L 143.36 271.50
  A 0.80 0.80 -85.4 0 1 142.57 270.57
  L 158.76 173.65
  A 1.04 1.02 -85.1 0 1 159.78 172.77
  L 183.82 172.92
  A 0.58 0.55 87.6 0 1 184.36 173.44
  Q 187.09 205.30 189.56 237.19
  Q 189.73 239.40 189.59 240.51
  A 1.34 0.70 -72.4 0 0 189.75 241.43
  Q 190.19 241.99 190.56 241.06
  Q 204.24 207.07 218.33 172.83
  A 0.54 0.54 11.4 0 1 218.83 172.50
  L 243.09 172.68
  A 0.80 0.79 -85.0 0 1 243.86 173.61
  L 227.55 270.67
  A 1.00 0.99 -85.2 0 1 226.57 271.50
  L 210.45 271.50
  A 0.71 0.71 -84.9 0 1 209.75 270.66
  L 223.38 196.86
  A 0.31 0.24 -86.6 0 0 223.13 196.49
  L 222.97 196.51
  A 0.33 0.21 -75.4 0 0 222.75 196.71
  L 192.88 270.90
  A 0.98 0.95 10.7 0 1 191.98 271.50
  L 178.77 271.50
  A 0.92 0.92 -2.4 0 1 177.85 270.66
  L 171.46 197.50
  Z"
/>
<path fill="#000000" d="
  M 259.72 230.81
  L 256.22 250.16
  A 0.92 0.92 -84.8 0 0 257.12 251.25
  L 288.04 251.25
  A 0.82 0.81 -85.5 0 1 288.84 252.20
  L 285.89 270.72
  A 0.85 0.84 -85.6 0 1 285.06 271.44
  L 234.55 271.50
  A 0.66 0.65 -85.1 0 1 233.91 270.73
  L 250.06 173.30
  A 0.97 0.96 -85.0 0 1 251.01 172.50
  L 300.72 172.50
  A 0.72 0.72 -85.5 0 1 301.43 173.33
  L 298.50 192.27
  A 1.15 1.15 -85.6 0 1 297.36 193.25
  L 266.61 193.25
  A 0.62 0.62 5.0 0 0 266.00 193.76
  L 263.00 210.27
  A 0.57 0.56 5.4 0 0 263.56 210.94
  L 290.87 210.73
  A 0.96 0.95 4.1 0 1 291.83 211.82
  L 289.08 229.26
  A 1.22 1.19 4.2 0 1 287.89 230.26
  L 260.31 230.31
  A 0.62 0.60 -84.1 0 0 259.72 230.81
  Z"
/>
<path fill="#000000" d="
  M 427.80 210.94
  L 455.56 211.00
  A 0.44 0.44 4.4 0 1 456.00 211.51
  L 453.16 229.44
  A 0.96 0.95 4.2 0 1 452.21 230.25
  L 424.44 230.25
  A 0.62 0.61 -84.9 0 0 423.84 230.76
  L 420.25 250.37
  A 0.69 0.69 -84.8 0 0 420.93 251.19
  L 452.09 251.25
  A 0.78 0.75 4.7 0 1 452.86 252.13
  L 449.67 271.08
  A 0.64 0.59 4.9 0 1 449.05 271.56
  L 398.82 271.50
  A 0.69 0.68 4.6 0 1 398.14 270.71
  L 414.27 173.32
  A 0.97 0.97 -85.5 0 1 415.23 172.50
  L 464.66 172.56
  A 0.90 0.89 -85.6 0 1 465.54 173.60
  L 462.63 192.32
  A 1.08 1.06 -85.6 0 1 461.58 193.24
  L 431.20 193.07
  A 1.02 0.94 4.3 0 0 430.20 193.86
  L 427.37 210.44
  A 0.43 0.42 5.0 0 0 427.80 210.94
  Z"
/>
<path fill="#000000" d="
  M 452.28 271.56
  A 0.58 0.57 -79.4 0 1 451.74 270.77
  L 491.08 173.28
  A 1.24 1.24 10.8 0 1 492.23 172.50
  L 512.12 172.50
  A 0.65 0.64 86.5 0 1 512.76 173.07
  L 523.86 270.89
  A 0.62 0.62 -3.3 0 1 523.24 271.58
  L 506.14 271.58
  A 1.08 1.06 -2.6 0 1 505.07 270.62
  L 503.51 252.86
  A 0.67 0.66 -2.3 0 0 502.84 252.25
  L 478.69 252.25
  A 0.86 0.83 -79.2 0 0 477.91 252.80
  L 471.24 270.84
  A 0.76 0.74 -80.0 0 1 470.56 271.33
  L 452.28 271.56
  Z
  M 498.15 197.53
  L 484.58 234.48
  A 0.71 0.70 9.6 0 0 485.26 235.42
  L 501.36 235.27
  A 0.68 0.67 -2.8 0 0 502.03 234.54
  L 498.94 197.64
  Q 498.78 195.82 498.15 197.53
  Z"
/>
<path fill="#000000" d="
  M 551.23 234.55
  L 545.12 270.80
  A 0.84 0.84 -85.1 0 1 544.29 271.50
  L 526.89 271.58
  A 0.79 0.78 4.6 0 1 526.11 270.67
  L 542.14 173.62
  A 1.32 1.31 -85.5 0 1 543.42 172.51
  Q 557.37 172.38 570.54 172.59
  C 585.50 172.82 596.89 175.45 599.00 192.00
  Q 602.17 216.89 580.98 229.26
  A 1.06 1.06 64.0 0 0 580.53 230.57
  L 596.28 270.83
  A 0.55 0.54 -10.6 0 1 595.77 271.57
  L 575.63 271.51
  A 1.45 1.43 -10.2 0 1 574.30 270.60
  L 560.58 235.14
  A 1.96 1.70 77.7 0 0 558.89 233.88
  L 551.81 233.98
  A 0.68 0.59 -85.3 0 0 551.23 234.55
  Z
  M 558.34 192.67
  L 554.39 215.44
  A 0.45 0.45 6.8 0 0 554.81 215.97
  C 566.79 216.79 582.08 215.99 580.05 199.43
  C 578.90 190.03 566.06 190.97 558.92 192.11
  A 0.71 0.70 0.5 0 0 558.34 192.67
  Z"
/>
<path fill="#000000" d="
  M 171.46 197.50
  Q 170.51 197.52 170.54 198.75
  Q 170.38 197.94 170.55 197.16
  A 0.85 0.67 -85.1 0 1 171.16 196.51
  Q 171.73 196.43 171.46 197.50
  Z"
/>
</svg>
