<?xml version="1.0" encoding="UTF-8" standalone="no"?>
<!DOCTYPE svg PUBLIC "-//W3C//DTD SVG 1.1//EN" "http://www.w3.org/Graphics/SVG/1.1/DTD/svg11.dtd">
<svg xmlns="http://www.w3.org/2000/svg" version="1.1" viewBox="0 0 600 300">
<path fill="#000000" d="
  M 276.25 42.59
  C 268.92 65.85 222.51 66.26 214.42 43.32
  C 210.08 30.99 217.03 20.49 228.20 15.69
  Q 243.54 9.10 260.21 14.62
  C 272.30 18.62 280.31 29.70 276.25 42.59
  Z
  M 263.8400 36.1924
  A 18.58 17.77 0.1 0 0 245.2910 18.3900
  A 18.58 17.77 0.1 0 0 226.6800 36.1276
  A 18.58 17.77 0.1 0 0 245.2290 53.9300
  A 18.58 17.77 0.1 0 0 263.8400 36.1924
  Z"
/>
<path fill="#000000" d="
  M 193.84 15.75
  Q 193.72 14.56 195.51 14.41
  Q 197.50 14.25 199.34 14.25
  A 0.91 0.91 -87.6 0 1 200.25 15.16
  L 200.25 28.21
  A 0.64 0.64 -8.7 0 1 199.80 28.82
  Q 194.67 30.42 193.72 26.66
  Q 192.98 23.76 190.27 22.47
  Q 178.09 16.68 165.17 19.62
  C 162.21 20.30 155.43 24.98 161.81 27.44
  Q 163.92 28.25 170.24 28.81
  C 180.74 29.73 206.74 30.64 203.06 47.56
  C 201.44 55.02 191.73 58.26 184.99 59.20
  Q 170.62 61.23 157.44 55.31
  Q 155.55 54.46 156.00 56.75
  C 156.55 59.53 151.34 58.60 149.80 58.29
  A 0.61 0.61 -84.9 0 1 149.30 57.69
  L 149.30 42.31
  A 0.63 0.48 -89.6 0 1 149.79 41.68
  L 154.06 41.72
  A 1.50 1.21 77.3 0 1 155.26 42.67
  C 159.82 54.22 176.81 54.79 186.75 52.27
  C 191.49 51.06 194.36 45.30 187.99 43.34
  Q 185.34 42.53 182.57 42.29
  C 177.03 41.81 170.81 40.82 164.63 40.06
  C 156.59 39.07 146.61 35.02 148.00 25.00
  Q 148.80 19.25 154.87 16.44
  Q 172.82 8.15 192.66 16.62
  A 0.85 0.85 -81.4 0 0 193.84 15.75
  Z"
/>
<path fill="#000000" d="
  M 332.93 40.28
  Q 334.33 41.54 334.27 39.67
  L 333.77 22.91
  Q 333.69 20.25 330.97 20.24
  L 326.07 20.21
  A 0.53 0.52 0.0 0 1 325.54 19.69
  L 325.51 15.36
  A 0.61 0.60 -0.0 0 1 326.12 14.76
  L 349.81 14.92
  A 0.68 0.67 83.2 0 1 350.45 15.43
  Q 350.97 17.54 350.55 19.70
  A 0.62 0.62 5.7 0 1 349.94 20.20
  L 344.88 20.26
  Q 342.47 20.29 342.50 22.62
  L 342.94 56.70
  A 0.80 0.79 88.9 0 1 342.17 57.51
  Q 340.14 57.54 337.87 57.51
  C 333.97 57.47 334.31 57.69 331.50 55.19
  Q 316.63 41.94 301.19 28.13
  Q 300.50 27.51 300.50 28.44
  L 300.50 50.05
  Q 300.50 52.23 302.73 52.25
  L 308.19 52.29
  A 0.92 0.82 -11.9 0 1 308.96 52.73
  Q 309.49 53.68 309.17 54.79
  A 1.67 1.45 -49.1 0 0 309.17 55.71
  C 309.93 58.08 307.74 57.51 306.37 57.49
  Q 295.86 57.37 286.15 57.66
  A 1.55 1.55 -7.5 0 1 284.59 56.47
  Q 283.39 51.31 287.28 52.13
  C 292.50 53.22 292.25 50.36 292.25 46.60
  Q 292.25 37.44 292.25 28.27
  C 292.25 22.73 292.87 19.25 285.72 20.37
  A 1.56 1.39 -5.1 0 1 283.92 19.03
  L 283.92 15.29
  A 0.64 0.48 0.0 0 1 284.56 14.81
  L 303.56 14.75
  A 2.89 2.74 -22.9 0 1 305.45 15.46
  L 332.93 40.28
  Z"
/>
<path fill="#000000" d="
  M 391.58 33.38
  L 400.69 22.69
  Q 403.39 19.51 399.75 20.25
  Q 396.08 20.99 396.87 17.73
  Q 396.98 17.26 396.88 16.77
  C 396.29 14.06 398.68 14.75 400.30 14.75
  Q 410.37 14.71 420.43 14.81
  A 0.65 0.49 -0.0 0 1 421.08 15.30
  L 421.05 19.40
  A 1.08 0.95 2.8 0 1 419.89 20.33
  Q 416.29 20.02 413.54 20.69
  A 1.65 1.54 -73.6 0 0 412.73 21.17
  Q 405.12 29.36 397.90 37.89
  C 395.94 40.20 395.25 40.07 395.25 43.75
  Q 395.25 47.00 395.25 50.27
  Q 395.25 52.25 397.23 52.25
  L 401.95 52.25
  A 1.12 1.03 -1.3 0 1 403.06 53.23
  L 403.25 56.93
  A 0.56 0.48 -1.4 0 1 402.69 57.44
  L 374.91 57.50
  A 0.83 0.76 0.0 0 1 374.08 56.74
  L 374.10 52.93
  A 0.60 0.57 -0.0 0 1 374.69 52.37
  L 379.44 52.29
  Q 382.00 52.25 382.00 49.88
  L 382.00 42.27
  A 2.52 2.49 -65.6 0 0 381.40 40.64
  Q 373.25 31.14 365.72 22.55
  Q 363.57 20.10 357.55 20.37
  A 1.75 1.60 -0.9 0 1 355.71 18.74
  L 355.78 15.84
  A 1.12 1.12 -89.2 0 1 356.90 14.75
  L 384.37 14.75
  A 0.88 0.88 -89.1 0 1 385.25 15.63
  L 385.25 19.28
  A 1.05 1.04 -86.8 0 1 384.09 20.32
  Q 379.23 19.77 381.33 22.18
  C 384.56 25.90 387.58 29.74 390.91 33.38
  A 0.46 0.44 43.9 0 0 391.58 33.38
  Z"
/>
<path fill="#000000" d="
  M 426.48 51.41
  A 7.13 7.13 0.0 0 1 419.35 58.54
  A 7.13 7.13 0.0 0 1 412.22 51.41
  A 7.13 7.13 0.0 0 1 419.35 44.28
  A 7.13 7.13 0.0 0 1 426.48 51.41
  Z
  M 416.21 46.75
  C 409.83 48.41 415.63 61.57 422.29 56.25
  C 428.22 52.81 424.72 44.47 417.69 45.69
  Q 416.40 45.91 416.21 46.75
  Z"
/>
<path fill="#000000" d="
  M 421.79 55.50
  Q 421.12 54.76 421.18 53.74
  A 1.13 0.78 -73.5 0 0 420.90 52.89
  Q 419.84 51.93 418.33 52.23
  A 0.98 0.97 -5.3 0 0 417.55 53.16
  Q 417.46 55.68 416.64 55.30
  A 0.93 0.73 -80.5 0 1 416.20 54.50
  L 416.29 47.25
  Q 419.07 46.56 421.84 47.45
  Q 424.10 48.17 422.75 50.12
  C 421.58 51.79 424.00 55.17 421.79 55.50
  Z
  M 421.7216 49.4929
  A 1.17 1.17 0.0 0 0 420.5848 48.2906
  L 418.4256 48.2303
  A 1.17 1.17 0.0 0 0 417.2234 49.3672
  L 417.2184 49.5471
  A 1.17 1.17 0.0 0 0 418.3552 50.7494
  L 420.5144 50.8097
  A 1.17 1.17 0.0 0 0 421.7166 49.6728
  L 421.7216 49.4929
  Z"
/>
<path fill="#000000" d="
  M 168.75 95.36
  C 185.12 95.86 197.79 106.97 198.75 123.75
  C 200.08 147.10 186.63 158.89 164.07 158.94
  C 132.33 159.01 100.28 159.78 68.58 158.91
  C 52.47 158.47 49.42 170.44 49.64 184.00
  Q 49.89 198.54 49.57 213.07
  A 0.52 0.51 -90.0 0 1 49.07 213.58
  L 25.55 213.74
  A 1.32 1.29 -90.0 0 1 24.25 212.41
  Q 24.47 193.75 24.50 175.00
  C 24.52 163.92 32.64 151.71 43.65 147.84
  Q 47.43 146.51 54.02 146.46
  Q 138.76 145.79 156.25 146.25
  C 176.99 146.80 179.06 115.29 163.88 109.18
  Q 160.97 108.01 153.97 107.97
  Q 89.37 107.58 25.12 107.75
  A 0.79 0.75 89.6 0 1 24.37 106.97
  L 24.34 96.39
  A 1.13 1.05 89.7 0 1 25.39 95.25
  Q 91.63 95.25 157.75 95.25
  Q 165.28 95.25 168.75 95.36
  Z"
/>
<path fill="#000000" d="
  M 193.74 213.57
  A 1.10 1.08 -89.5 0 1 192.67 212.46
  L 192.75 202.07
  A 1.07 1.05 -89.7 0 1 193.81 201.00
  Q 225.37 201.17 256.33 200.81
  Q 262.12 200.74 264.94 199.39
  C 271.25 196.39 273.54 189.37 273.58 182.50
  Q 273.73 157.78 273.75 133.05
  Q 273.76 121.65 275.22 116.60
  C 280.93 96.92 298.58 94.92 316.50 95.04
  Q 348.25 95.25 379.44 95.25
  A 1.68 1.65 -89.7 0 1 381.09 96.95
  L 381.02 106.80
  A 0.97 0.95 -89.7 0 1 380.07 107.76
  Q 347.30 107.58 315.71 108.17
  C 304.75 108.38 299.53 115.40 299.46 126.00
  Q 299.28 150.58 299.25 175.16
  Q 299.24 187.57 297.73 192.68
  Q 292.94 208.97 274.25 213.00
  C 269.19 214.09 262.26 213.74 257.09 213.76
  Q 225.16 213.88 193.74 213.57
  Z"
/>
<path fill="#000000" d="
  M 554.64 128.68
  C 555.43 115.19 549.00 107.79 535.25 107.78
  Q 471.00 107.75 406.19 107.75
  A 0.69 0.69 0.0 0 1 405.50 107.06
  L 405.50 96.27
  A 1.02 1.02 88.7 0 1 406.52 95.25
  Q 473.63 95.25 539.50 95.25
  Q 548.10 95.25 553.47 95.95
  Q 570.56 98.16 577.18 112.39
  C 583.17 125.28 580.66 141.77 569.99 151.60
  A 0.98 0.98 -42.7 0 0 569.93 152.98
  C 585.77 170.35 584.77 204.43 558.69 212.17
  Q 553.38 213.75 539.14 213.75
  Q 472.94 213.75 406.73 213.75
  A 1.17 1.15 0.0 0 1 405.56 212.60
  L 405.51 202.34
  A 1.35 1.33 -0.2 0 1 406.86 201.00
  Q 472.37 201.00 537.25 201.00
  Q 551.27 201.00 554.19 187.69
  C 555.70 180.81 554.65 170.33 550.25 164.50
  C 546.19 159.12 540.16 159.00 534.00 159.00
  Q 470.03 159.05 406.63 158.94
  A 1.13 1.13 0.0 0 1 405.50 157.81
  L 405.50 147.34
  A 1.09 1.09 -89.8 0 1 406.59 146.25
  Q 471.88 146.25 537.50 146.25
  C 548.89 146.25 554.04 139.14 554.64 128.68
  Z"
/>
<path fill="#000000" d="
  M 138.19 270.05
  L 121.59 270.01
  A 1.08 1.06 -79.7 0 0 120.59 270.72
  L 117.86 278.23
  A 0.88 0.85 3.4 0 1 117.21 278.79
  Q 114.06 279.41 111.46 278.83
  A 1.36 1.35 -73.3 0 1 110.49 277.02
  L 117.05 259.78
  A 1.62 1.59 -82.6 0 1 118.36 258.75
  Q 133.89 256.84 149.55 259.01
  A 1.04 1.03 14.2 0 1 150.38 260.39
  L 143.85 277.97
  A 1.46 1.26 -77.4 0 1 142.57 278.92
  L 137.05 278.76
  A 1.10 0.90 -78.1 0 1 136.31 277.33
  L 138.58 270.56
  A 0.41 0.39 9.4 0 0 138.19 270.05
  Z
  M 141.2099 264.3442
  A 0.83 0.83 0.0 0 0 140.3785 263.5156
  L 123.8985 263.5444
  A 0.83 0.83 0.0 0 0 123.0700 264.3758
  L 123.0701 264.4358
  A 0.83 0.83 0.0 0 0 123.9015 265.2644
  L 140.3815 265.2356
  A 0.83 0.83 0.0 0 0 141.2100 264.4042
  L 141.2099 264.3442
  Z"
/>
<path fill="#000000" d="
  M 184.13 271.27
  L 181.59 278.22
  A 0.90 0.86 -85.4 0 1 180.95 278.79
  Q 177.73 279.42 175.79 279.00
  Q 173.46 278.51 174.41 276.07
  L 176.35 271.06
  A 0.45 0.38 12.3 0 0 175.95 270.54
  L 164.12 269.34
  A 1.02 0.97 -76.2 0 1 163.33 267.97
  L 167.01 258.40
  A 0.82 0.64 -76.4 0 1 167.68 257.87
  L 174.19 257.98
  A 0.42 0.38 -79.9 0 1 174.53 258.53
  L 172.47 264.71
  A 0.47 0.40 -78.1 0 0 172.80 265.32
  L 178.07 265.63
  A 1.01 0.53 -64.3 0 0 178.77 265.11
  L 179.50 263.95
  A 1.03 0.82 12.7 0 1 180.32 263.55
  L 185.86 263.50
  A 0.77 0.76 -79.5 0 1 186.57 264.55
  Q 186.29 265.25 186.62 265.68
  A 0.82 0.54 -25.2 0 0 187.45 265.80
  Q 188.54 265.41 190.22 265.56
  Q 191.92 265.72 192.57 264.08
  L 194.80 258.41
  A 1.07 1.04 10.4 0 1 195.79 257.75
  L 201.81 257.75
  A 0.56 0.56 10.1 0 1 202.34 258.50
  L 198.69 268.34
  A 2.29 2.24 7.7 0 1 196.75 269.79
  L 184.82 270.77
  A 0.82 0.76 7.1 0 0 184.13 271.27
  Z"
/>
<path fill="#000000" d="
  M 337.95 270.05
  L 321.58 270.01
  A 1.54 1.52 -79.8 0 0 320.15 271.02
  L 317.45 278.37
  A 0.88 0.78 -78.9 0 1 316.69 278.95
  L 311.52 278.91
  Q 309.41 278.90 310.26 276.66
  L 316.74 259.59
  A 1.22 1.19 -82.9 0 1 317.71 258.82
  Q 332.37 256.98 348.56 259.01
  A 1.53 1.53 -76.1 0 1 349.80 261.07
  L 343.36 278.21
  A 0.94 0.88 -84.7 0 1 342.70 278.80
  Q 339.46 279.47 336.69 278.70
  A 1.28 1.17 -71.8 0 1 335.95 277.05
  L 338.32 270.56
  A 0.39 0.38 10.4 0 0 337.95 270.05
  Z
  M 340.7297 264.3029
  A 0.84 0.84 0.0 0 0 339.8853 263.4673
  L 323.5856 263.5527
  A 0.84 0.84 0.0 0 0 322.7500 264.3971
  L 322.7503 264.4571
  A 0.84 0.84 0.0 0 0 323.5947 265.2927
  L 339.8944 265.2073
  A 0.84 0.84 0.0 0 0 340.7300 264.3629
  L 340.7297 264.3029
  Z"
/>
<path fill="#000000" d="
  M 17.27 265.17
  Q 15.96 264.03 17.95 260.37
  Q 18.78 258.84 20.50 258.66
  Q 35.67 257.09 52.03 258.97
  A 1.18 1.15 13.8 0 1 53.00 260.53
  L 49.79 268.99
  A 1.60 1.56 10.0 0 1 48.30 270.00
  L 24.34 270.00
  A 1.35 1.28 -79.6 0 0 23.12 270.89
  L 20.44 278.29
  A 0.83 0.69 -78.2 0 1 19.75 278.84
  L 13.95 278.83
  A 1.14 1.02 -78.2 0 1 13.06 277.29
  L 17.49 265.90
  A 0.71 0.60 32.9 0 0 17.27 265.17
  Z
  M 43.76 264.38
  A 0.83 0.83 0.0 0 0 42.93 263.55
  L 26.39 263.55
  A 0.83 0.83 0.0 0 0 25.56 264.38
  L 25.56 264.42
  A 0.83 0.83 0.0 0 0 26.39 265.25
  L 42.93 265.25
  A 0.83 0.83 0.0 0 0 43.76 264.42
  L 43.76 264.38
  Z"
/>
<path fill="#000000" d="
  M 72.31 272.73
  Q 85.56 273.78 98.76 272.07
  A 0.44 0.43 -3.5 0 1 99.26 272.50
  C 99.22 275.41 97.95 277.02 94.92 277.45
  Q 79.10 279.71 63.75 276.77
  A 1.14 1.13 -74.1 0 1 62.91 275.24
  L 68.87 259.61
  A 2.06 1.94 -79.2 0 1 70.70 258.28
  L 75.64 258.27
  A 1.12 1.06 -79.2 0 1 76.60 259.78
  L 71.97 272.22
  A 0.39 0.38 12.0 0 0 72.31 272.73
  Z"
/>
<path fill="#000000" d="
  M 432.60 276.59
  A 0.81 0.80 16.3 0 1 432.00 275.51
  L 437.88 260.27
  A 1.16 1.10 -0.5 0 1 438.54 259.63
  C 441.54 258.52 444.90 258.78 447.41 258.59
  Q 460.01 257.66 472.42 259.74
  A 0.75 0.73 15.0 0 1 473.01 260.73
  L 467.14 276.11
  A 1.52 1.47 5.2 0 1 465.97 277.05
  Q 448.52 279.92 432.60 276.59
  Z
  M 463.14 263.56
  L 445.90 263.31
  A 2.39 2.18 -78.1 0 0 443.78 264.84
  L 440.94 272.04
  A 0.39 0.39 -75.0 0 0 441.24 272.57
  Q 450.74 273.84 460.25 272.57
  A 0.90 0.80 5.0 0 0 460.95 272.05
  L 463.82 264.55
  A 0.73 0.73 10.8 0 0 463.14 263.56
  Z"
/>
<path fill="#000000" d="
  M 224.00 264.48
  A 0.72 0.72 13.0 0 0 224.65 265.51
  L 250.28 265.74
  A 0.69 0.65 10.5 0 1 250.93 266.63
  L 247.17 276.24
  A 0.97 0.80 3.1 0 1 246.45 276.77
  Q 230.47 279.45 213.56 276.59
  A 1.23 1.23 -79.1 0 1 212.56 275.11
  C 213.53 270.71 214.66 272.05 217.65 272.34
  Q 228.70 273.44 239.79 272.73
  C 242.00 272.59 242.19 270.76 239.92 270.75
  Q 227.57 270.71 216.01 270.80
  A 1.34 1.33 9.7 0 1 214.74 269.01
  L 217.79 260.79
  A 2.26 2.23 6.9 0 1 219.66 259.34
  Q 236.50 257.53 252.45 259.74
  A 0.66 0.64 1.3 0 1 253.02 260.31
  Q 253.19 262.11 251.75 263.97
  A 0.91 0.90 23.2 0 1 250.92 264.30
  C 247.27 263.83 225.21 261.92 224.00 264.48
  Z"
/>
<path fill="#000000" d="
  M 266.57 264.32
  Q 266.10 261.98 267.67 260.11
  A 1.37 1.16 12.6 0 1 268.49 259.68
  Q 285.14 257.51 301.75 259.93
  A 0.69 0.66 0.2 0 1 302.34 260.50
  Q 302.66 262.74 301.06 264.35
  A 1.06 1.02 25.0 0 1 300.20 264.64
  L 288.66 263.43
  A 1.64 1.51 12.6 0 0 286.99 264.40
  L 281.84 278.22
  A 0.92 0.85 -83.9 0 1 281.19 278.79
  Q 277.92 279.39 275.12 278.80
  A 1.04 1.00 16.1 0 1 274.34 277.45
  L 279.03 265.13
  A 1.21 1.20 -83.0 0 0 277.77 263.50
  L 267.19 264.77
  A 0.57 0.56 -8.8 0 1 266.57 264.32
  Z"
/>
<path fill="#000000" d="
  M 375.29 263.61
  L 363.81 264.84
  A 0.56 0.55 -3.2 0 1 363.19 264.29
  C 363.19 261.47 364.24 259.69 367.31 259.38
  Q 382.70 257.82 398.77 259.85
  A 0.86 0.84 5.4 0 1 399.52 260.74
  Q 399.38 262.96 398.05 264.34
  A 1.12 1.00 22.8 0 1 397.18 264.64
  L 385.47 263.44
  A 1.46 1.43 13.1 0 0 383.97 264.35
  L 378.80 278.06
  A 1.46 1.42 -79.2 0 1 377.46 279.00
  L 372.99 279.00
  Q 370.64 279.00 371.47 276.82
  L 376.11 264.72
  A 0.82 0.80 -82.2 0 0 375.29 263.61
  Z"
/>
<path fill="#000000" d="
  M 407.61 278.84
  A 0.99 0.91 -78.3 0 1 406.82 277.51
  L 413.50 259.49
  A 1.15 1.14 -79.6 0 1 414.57 258.75
  L 420.60 258.75
  A 0.67 0.67 -79.7 0 1 421.23 259.66
  L 414.40 278.07
  A 1.33 1.15 -77.8 0 1 413.24 278.94
  L 407.61 278.84
  Z"
/>
<path fill="#000000" d="
  M 514.57 264.51
  Q 506.10 263.83 496.49 264.54
  A 1.69 1.63 -81.3 0 0 495.05 265.64
  L 490.37 278.23
  A 0.92 0.91 3.5 0 1 489.71 278.81
  Q 486.40 279.63 483.27 278.38
  A 0.53 0.52 21.1 0 1 482.97 277.71
  L 489.60 260.04
  A 1.87 1.77 6.9 0 1 491.15 258.89
  C 494.94 258.51 497.99 259.51 501.13 259.38
  Q 512.23 258.91 523.26 260.50
  A 1.13 1.11 14.4 0 1 524.16 261.99
  L 518.02 278.30
  A 1.00 0.96 -79.5 0 1 517.11 278.95
  L 512.24 278.97
  Q 510.04 278.98 510.86 276.89
  L 515.26 265.63
  A 0.83 0.82 -76.9 0 0 514.57 264.51
  Z"
/>
<path fill="#000000" d="
  M 576.97 270.89
  A 0.71 0.70 87.3 0 0 576.27 270.25
  L 558.21 270.25
  A 0.78 0.78 3.0 0 1 557.43 269.39
  C 557.80 265.86 559.13 266.25 562.26 266.25
  Q 569.75 266.25 577.24 266.25
  C 578.79 266.25 580.94 265.42 579.12 263.59
  A 1.39 1.23 -18.3 0 0 578.26 263.22
  Q 567.07 262.55 555.93 263.75
  C 554.14 263.94 552.76 264.93 553.62 261.78
  A 2.57 2.56 2.8 0 1 555.68 259.92
  Q 570.75 257.44 587.40 259.84
  A 0.59 0.56 15.2 0 1 587.87 260.62
  L 581.66 275.73
  A 1.01 0.90 4.2 0 1 580.94 276.28
  Q 565.86 279.20 549.25 276.23
  A 0.87 0.86 13.2 0 1 548.57 275.14
  C 549.46 272.00 550.69 272.61 553.71 272.89
  Q 563.83 273.82 573.98 273.31
  C 575.55 273.23 577.13 272.68 576.97 270.89
  Z"
/>
</svg>
