<?xml version="1.0" encoding="UTF-8" standalone="no"?>
<!DOCTYPE svg PUBLIC "-//W3C//DTD SVG 1.1//EN" "http://www.w3.org/Graphics/SVG/1.1/DTD/svg11.dtd">
<svg xmlns="http://www.w3.org/2000/svg" version="1.1" viewBox="0 0 600 300">
<g stroke-width="2.00" fill="none" stroke-linecap="butt">
<path stroke="#807b00" vector-effect="non-scaling-stroke" d="
  M 447.50 10.21
  Q 441.97 17.88 436.93 25.90
  C 435.17 28.70 434.26 29.08 434.25 33.00
  Q 434.16 78.70 434.37 124.57"
/>
<path stroke="#0d080d" vector-effect="non-scaling-stroke" d="
  M 434.37 124.57
  Q 432.34 126.26 433.24 128.72
  Q 433.43 129.22 433.72 128.77
  L 444.93 111.60
  A 1.32 1.06 -75.6 0 1 445.67 111.05
  C 447.77 110.60 448.29 112.36 448.31 114.13
  Q 448.35 119.65 449.68 125.01"
/>
<path stroke="#807b00" vector-effect="non-scaling-stroke" d="
  M 449.68 125.01
  L 449.57 169.68
  Q 449.57 170.18 449.75 169.72
  C 450.24 168.42 450.26 167.65 451.23 166.55
  Q 458.13 158.66 465.19 150.66
  A 2.19 2.17 66.2 0 0 465.75 149.20
  Q 465.88 106.75 465.65 65.00
  Q 465.65 63.87 465.79 62.75"
/>
<path stroke="#0d080d" vector-effect="non-scaling-stroke" d="
  M 465.79 62.75
  Q 466.68 61.46 466.55 59.88
  A 0.80 0.47 -88.2 0 0 466.21 59.26
  Q 465.91 59.15 465.81 59.81
  Q 465.51 61.78 465.25 62.46"
/>
<path stroke="#807b00" vector-effect="non-scaling-stroke" d="
  M 465.25 62.46
  L 448.18 83.70
  Q 447.56 84.47 447.57 83.49
  L 447.96 10.50"
/>
<path stroke="#20201a" vector-effect="non-scaling-stroke" d="
  M 447.96 10.50
  Q 448.51 8.00 448.50 7.50
  C 448.45 5.77 447.51 10.15 447.50 10.21"
/>
<path stroke="#a09b1a" vector-effect="non-scaling-stroke" d="
  M 447.96 10.50
  L 447.50 10.21"
/>
<path stroke="#8d830d" vector-effect="non-scaling-stroke" d="
  M 465.25 62.46
  Q 465.67 62.43 465.79 62.75"
/>
<path stroke="#8d830d" vector-effect="non-scaling-stroke" d="
  M 449.68 125.01
  Q 450.38 113.59 449.83 102.58
  Q 449.78 101.46 449.20 102.42
  Q 442.29 113.83 434.37 124.57"
/>
<path stroke="#807b00" vector-effect="non-scaling-stroke" d="
  M 354.50 11.21
  L 341.84 29.96
  A 4.05 3.47 65.3 0 0 341.23 32.11
  C 341.56 63.25 341.47 93.56 341.24 124.49
  Q 341.23 126.52 342.35 124.82
  L 349.00 114.71"
/>
<path stroke="#0d080d" vector-effect="non-scaling-stroke" d="
  M 349.00 114.71
  C 351.93 115.48 351.67 109.58 355.21 112.84
  A 1.22 1.12 -71.0 0 1 355.58 113.69
  L 355.81 124.43
  A 0.72 0.51 11.5 0 0 356.31 124.96
  C 356.90 125.14 356.82 130.09 356.96 131.00"
/>
<path stroke="#807b00" vector-effect="non-scaling-stroke" d="
  M 356.96 131.00
  L 356.72 168.56
  Q 356.71 169.28 357.18 168.74
  L 372.37 151.31
  A 1.35 1.34 -24.7 0 0 372.70 150.43
  L 372.71 139.25"
/>
<path stroke="#20201a" vector-effect="non-scaling-stroke" d="
  M 372.71 139.25
  L 373.29 113.25"
/>
<path stroke="#0d080d" vector-effect="non-scaling-stroke" d="
  M 373.29 113.25
  Q 373.44 103.01 373.65 92.77
  C 373.76 87.56 372.79 80.71 373.26 74.73
  Q 373.73 68.84 374.15 61.35
  Q 374.32 58.42 372.42 60.66
  Q 366.62 67.52 359.94 75.94
  Q 358.75 77.43 357.32 77.47
  A 1.38 0.63 51.0 0 1 356.49 77.06
  Q 355.83 76.48 354.79 76.75"
/>
<path stroke="#807b00" vector-effect="non-scaling-stroke" d="
  M 354.79 76.75
  L 354.96 11.25"
/>
<path stroke="#20201a" vector-effect="non-scaling-stroke" d="
  M 354.96 11.25
  Q 355.87 4.25 354.50 11.21"
/>
<path stroke="#a09b1a" vector-effect="non-scaling-stroke" d="
  M 354.96 11.25
  L 354.50 11.21"
/>
<path stroke="#8d830d" vector-effect="non-scaling-stroke" d="
  M 354.79 76.75
  L 354.60 83.88
  Q 354.57 85.27 355.43 84.20
  L 371.61 64.00
  Q 372.68 62.67 372.67 64.39
  L 372.54 104.25"
/>
<path stroke="#a09b1a" vector-effect="non-scaling-stroke" d="
  M 372.54 104.25
  L 372.71 139.25"
/>
<path stroke="#8d830d" vector-effect="non-scaling-stroke" d="
  M 356.96 131.00
  L 357.00 103.00
  Q 357.00 102.46 356.71 102.91
  L 349.00 114.71"
/>
<path stroke="#2d2826" vector-effect="non-scaling-stroke" d="
  M 373.29 113.25
  L 372.54 104.25"
/>
<path stroke="#808080" vector-effect="non-scaling-stroke" d="
  M 572.20 132.69
  L 548.86 132.75
  A 0.61 0.60 0.0 0 1 548.25 132.15
  L 548.43 48.69
  A 0.51 0.51 -89.4 0 1 548.94 48.19
  L 572.31 48.19
  A 0.50 0.50 0.0 0 1 572.81 48.69
  L 572.75 66.92
  A 0.60 0.58 1.0 0 0 573.33 67.50
  L 583.99 67.70
  A 0.50 0.49 0.6 0 0 584.50 67.21
  C 584.52 61.39 585.87 44.74 583.32 40.53
  C 576.95 29.98 559.93 29.51 548.94 32.44
  C 543.88 33.78 535.54 39.03 535.48 45.09
  Q 535.00 91.92 535.49 138.74
  A 1.53 1.39 -67.3 0 0 535.81 139.64
  Q 540.93 146.00 548.25 146.50
  Q 565.48 147.68 583.73 147.23
  A 0.54 0.53 -1.1 0 0 584.25 146.70
  L 584.25 85.76
  A 0.52 0.51 0.0 0 0 583.73 85.25
  L 556.06 85.07
  A 0.51 0.50 -0.0 0 0 555.55 85.57
  L 555.55 102.19
  A 0.51 0.50 89.4 0 0 556.06 102.70
  L 571.78 102.46
  A 0.95 0.92 -0.6 0 1 572.75 103.38
  L 572.69 132.18
  A 0.51 0.49 -90.0 0 1 572.20 132.69"
/>
<path stroke="#808080" vector-effect="non-scaling-stroke" d="
  M 322.69 49.06
  L 322.81 150.19
  A 0.49 0.48 0.0 0 0 323.30 150.67
  L 335.23 150.51
  A 0.53 0.51 -0.6 0 0 335.75 150.00
  Q 335.93 99.29 335.53 49.28
  C 335.42 35.01 325.35 31.59 313.09 31.49
  C 302.84 31.39 294.06 32.32 289.41 42.46
  Q 288.25 45.01 288.26 48.75
  Q 288.38 99.35 288.07 149.94
  A 0.48 0.46 -0.0 0 0 288.56 150.41
  L 301.07 150.27
  A 0.69 0.67 -0.4 0 0 301.75 149.60
  L 301.75 102.78
  A 0.53 0.52 -90.0 0 1 302.27 102.25
  L 312.56 102.32
  A 0.51 0.51 0.0 0 0 313.07 101.81
  L 313.00 85.05
  A 0.55 0.54 90.0 0 0 312.46 84.50
  L 301.80 84.50
  A 0.57 0.56 89.5 0 1 301.24 83.94
  L 301.07 49.07
  A 0.51 0.49 -90.0 0 1 301.56 48.56
  L 322.18 48.55
  A 0.51 0.51 -89.6 0 1 322.69 49.06"
/>
<path stroke="#808080" vector-effect="non-scaling-stroke" d="
  M 513.92 104.80
  L 485.79 32.99
  A 0.79 0.76 78.5 0 0 485.08 32.50
  L 473.82 32.55
  A 0.52 0.52 -0.6 0 0 473.31 33.07
  Q 473.26 82.21 473.48 131.35
  C 473.50 135.77 472.96 143.69 473.52 149.93
  A 0.54 0.51 -2.3 0 0 474.06 150.40
  L 485.75 150.46
  A 0.50 0.46 -0.0 0 0 486.25 150.00
  L 486.19 79.81
  Q 486.19 79.31 486.38 79.78
  L 514.50 150.09
  A 0.81 0.73 78.3 0 0 515.18 150.59
  L 527.15 150.73
  A 0.61 0.60 -90.0 0 0 527.75 150.12
  L 527.75 32.31
  A 0.55 0.54 89.5 0 0 527.20 31.76
  L 514.81 31.80
  A 0.51 0.51 -0.6 0 0 514.31 32.31
  Q 514.05 68.41 514.50 104.50
  Q 514.50 104.68 514.35 104.88
  Q 514.09 105.24 513.92 104.80"
/>
<path stroke="#808080" vector-effect="non-scaling-stroke" d="
  M 264.03 97.65
  C 273.88 94.15 278.53 86.62 278.50 76.25
  Q 278.44 56.70 278.33 48.08
  C 278.24 41.37 276.37 36.49 270.94 33.03
  A 5.02 4.98 -28.4 0 0 268.29 32.25
  L 232.56 32.07
  A 0.49 0.49 0.6 0 0 232.06 32.56
  L 231.82 150.45
  A 0.50 0.44 0.6 0 0 232.32 150.90
  L 244.19 150.90
  A 0.50 0.46 -0.0 0 0 244.69 150.44
  L 244.75 48.83
  A 0.54 0.54 -1.1 0 1 245.27 48.29
  C 250.90 48.06 258.47 47.69 262.21 52.18
  C 265.95 56.66 266.09 66.23 265.48 72.00
  Q 264.27 83.51 252.76 85.21
  A 0.60 0.60 -4.5 0 0 252.25 85.80
  C 252.25 92.74 251.88 98.46 253.50 105.25
  Q 258.65 126.92 264.24 149.81
  A 1.02 0.98 -7.4 0 0 265.25 150.55
  L 278.22 150.26
  A 0.40 0.39 -8.7 0 0 278.59 149.77
  L 263.70 98.30
  A 0.53 0.53 71.9 0 1 264.03 97.65"
/>
<path stroke="#0a0806" vector-effect="non-scaling-stroke" d="
  M 408.23 133.37
  Q 403.12 134.39 399.42 129.91
  A 1.13 1.12 36.3 0 1 399.24 128.77
  C 400.50 125.63 403.65 118.99 403.36 115.80
  A 1.11 1.04 -27.0 0 1 403.66 114.97
  C 406.43 111.98 404.60 109.00 406.66 106.32
  C 408.58 103.84 409.30 101.11 410.33 98.22
  A 1.51 1.08 52.5 0 0 410.30 97.30
  Q 409.96 96.33 410.73 95.88
  A 1.47 0.86 -16.5 0 0 411.36 95.21
  L 414.50 86.25
  Q 414.81 85.37 415.50 83.75
  Q 417.72 78.54 419.25 73.10
  Q 419.38 72.64 420.78 69.64
  Q 421.79 67.49 421.04 65.00"
/>
<path stroke="#808080" vector-effect="non-scaling-stroke" d="
  M 421.04 65.00
  Q 423.14 58.76 425.38 52.58
  C 427.45 46.88 426.55 38.86 426.45 32.81
  A 0.51 0.51 89.4 0 0 425.94 32.31
  L 380.02 32.45
  A 0.52 0.52 90.0 0 0 379.50 32.97
  L 379.50 48.00
  A 0.44 0.44 0.0 0 0 379.94 48.44
  L 410.95 48.50
  A 0.62 0.61 10.4 0 1 411.53 49.33
  Q 396.34 88.97 381.27 129.30
  C 380.25 132.03 379.52 133.20 379.50 136.50
  Q 379.45 143.35 379.56 150.19
  A 0.50 0.49 90.0 0 0 380.05 150.69
  L 426.93 150.69
  A 0.52 0.51 0.0 0 0 427.45 150.18
  L 427.27 134.00
  A 0.53 0.51 0.0 0 0 426.75 133.50
  L 408.23 133.37"
/>
<path stroke="#898886" vector-effect="non-scaling-stroke" d="
  M 421.04 65.00
  L 396.32 133.00
  A 0.37 0.36 -80.4 0 0 396.66 133.49
  L 408.23 133.37"
/>
<path stroke="#7f5c0a" vector-effect="non-scaling-stroke" d="
  M 83.18 188.56
  L 83.06 242.56
  A 1.27 1.26 -1.9 0 0 84.41 243.82
  C 141.37 240.05 161.12 168.41 112.90 137.45
  A 1.15 1.14 -53.0 0 1 112.66 135.73
  C 141.72 102.94 120.81 56.84 77.26 55.21
  A 1.21 1.19 0.7 0 0 76.01 56.41
  L 76.18 85.80
  A 0.60 0.60 4.5 0 0 76.69 86.39
  C 90.25 88.64 100.06 96.27 99.73 110.86
  C 99.45 123.85 89.36 134.61 76.77 136.80
  Q 69.32 138.09 69.31 138.10
  C 37.29 147.32 48.64 195.25 82.70 188.16
  A 0.40 0.40 83.3 0 1 83.18 188.56"
/>
<path stroke="#7f5c0a" vector-effect="non-scaling-stroke" d="
  M 65.31 94.70
  L 65.25 59.04
  A 0.85 0.84 -2.2 0 0 64.34 58.20
  C 24.76 61.33 6.26 107.66 35.75 135.27
  A 0.60 0.59 -42.1 0 1 35.70 136.18
  C -13.36 172.72 11.65 249.30 73.27 248.00
  A 0.43 0.43 -0.7 0 0 73.69 247.57
  L 73.69 202.30
  A 0.52 0.51 1.2 0 0 73.19 201.79
  Q 49.95 200.48 41.43 181.19
  C 32.31 160.54 44.85 137.87 66.43 133.61
  Q 72.62 132.39 74.36 131.58
  C 93.59 122.55 85.84 96.62 65.81 95.22
  A 0.54 0.52 2.4 0 1 65.31 94.70"
/>
</g>
<path fill="#000000" d="
  M 380.49 120.50
  L 380.59 120.49
  A 0.25 0.13 -77.2 0 0 380.72 120.34
  L 404.57 57.10
  A 0.82 0.81 -79.7 0 0 403.81 56.00
  L 382.51 56.00
  A 1.10 1.10 69.4 0 1 381.68 55.62
  Q 379.68 53.32 376.49 51.75
  A 0.89 0.87 14.0 0 1 376.00 50.95
  L 376.19 29.65
  A 0.91 0.90 -89.7 0 1 377.09 28.75
  L 430.08 28.81
  A 0.60 0.59 -72.3 0 0 430.57 28.55
  L 448.33 1.89
  Q 449.74 -0.23 450.91 2.04
  C 451.65 3.49 451.74 4.33 453.15 5.61
  C 455.65 7.88 455.24 9.79 455.25 12.92
  Q 455.38 40.31 455.06 67.69
  Q 455.05 68.88 455.75 68.00
  L 466.42 54.63
  A 1.31 1.17 -72.2 0 1 467.24 54.15
  Q 468.50 53.99 469.01 55.07
  Q 469.75 56.65 469.75 54.91
  L 469.75 29.85
  A 0.85 0.85 0.2 0 1 470.60 29.00
  Q 478.02 29.00 485.77 29.00
  C 487.25 29.00 488.32 28.62 488.82 30.45
  Q 489.32 32.30 490.76 33.56
  C 492.37 34.97 493.01 37.02 493.83 39.07
  Q 501.63 58.60 509.31 78.19
  C 509.67 79.10 510.41 81.69 510.74 81.41
  A 0.71 0.46 76.8 0 0 510.93 80.89
  L 510.75 29.13
  A 0.88 0.88 87.4 0 1 511.63 28.25
  L 530.59 28.25
  A 0.62 0.62 87.5 0 1 531.21 28.82
  C 531.51 32.13 534.15 32.82 535.56 35.87
  A 0.35 0.35 52.7 0 0 536.14 35.95
  C 544.57 26.04 563.10 26.20 574.00 29.00
  C 582.35 31.14 586.85 38.35 590.88 45.00
  Q 591.94 46.75 591.96 48.91
  Q 592.08 61.77 591.94 74.31
  A 0.95 0.95 -89.7 0 1 590.99 75.25
  L 576.45 75.25
  A 3.18 2.63 59.3 0 1 574.67 74.61
  L 570.40 71.40
  A 2.88 2.38 21.7 0 1 569.25 69.31
  L 569.25 56.48
  A 0.72 0.66 0.4 0 0 568.54 55.82
  L 556.89 55.78
  A 1.14 1.04 0.0 0 0 555.75 56.82
  L 555.75 81.02
  A 0.73 0.72 89.6 0 0 556.48 81.75
  L 586.75 81.51
  A 1.31 0.88 -14.7 0 1 587.64 81.82
  Q 588.18 82.38 588.09 83.26
  A 1.26 0.58 -76.5 0 0 588.27 84.16
  L 590.77 86.87
  A 4.44 2.77 32.9 0 1 592.00 89.49
  L 592.00 153.76
  A 0.99 0.99 0.0 0 1 591.01 154.75
  Q 580.82 154.75 570.63 154.75
  C 554.82 154.75 546.03 155.23 535.75 145.37
  Q 535.25 144.89 535.25 145.59
  L 535.25 157.52
  A 0.74 0.74 -2.1 0 1 534.56 158.26
  Q 526.27 158.88 517.81 158.23
  A 1.20 1.10 71.4 0 1 517.01 157.79
  Q 515.15 155.41 512.36 154.03
  A 1.40 1.38 3.1 0 1 511.71 153.31
  Q 504.53 135.03 497.22 117.23
  C 496.90 116.43 494.46 108.67 493.97 109.02
  A 0.76 0.45 81.7 0 0 493.74 109.58
  C 493.10 125.26 493.87 141.15 493.69 156.67
  A 1.28 1.27 -0.2 0 1 492.43 157.93
  Q 484.84 158.04 477.47 158.00
  C 475.99 157.99 474.88 158.34 474.56 156.42
  Q 474.30 154.84 473.24 156.04
  L 452.50 179.57
  Q 451.52 180.68 451.31 179.21
  Q 451.05 177.34 450.00 177.22
  Q 449.56 177.17 449.14 176.90
  L 446.78 175.37
  A 0.98 0.61 23.4 0 1 446.32 174.70
  L 446.50 125.40
  Q 446.51 123.90 445.70 125.17
  Q 441.76 131.33 437.77 137.43
  C 435.80 140.44 436.18 136.68 435.43 136.01
  Q 434.97 135.60 434.95 136.24
  L 434.79 143.44
  A 0.86 0.84 15.2 0 0 435.24 144.20
  C 436.80 145.05 440.08 143.20 439.62 145.76
  Q 439.53 146.23 439.63 146.73
  Q 439.71 147.11 439.70 147.50
  Q 439.19 205.83 439.50 235.00
  Q 439.63 247.26 437.76 256.20
  C 432.71 280.33 412.44 291.35 389.25 291.18
  Q 365.25 291.00 340.60 291.00
  A 0.85 0.85 0.0 0 1 339.75 290.15
  L 339.81 249.05
  A 0.51 0.49 -0.0 0 1 340.32 248.56
  Q 361.59 248.46 382.86 248.49
  C 390.02 248.51 394.06 245.63 394.87 238.22
  A 0.94 0.93 -88.4 0 0 393.90 237.19
  C 384.94 237.58 376.16 237.37 367.99 234.30
  C 335.02 221.88 327.80 181.45 352.45 156.93
  A 2.73 2.73 -22.5 0 0 353.25 155.00
  L 353.25 126.48
  Q 353.25 125.32 352.62 126.29
  C 351.71 127.70 344.98 138.76 344.09 138.46
  A 0.79 0.78 9.7 0 0 343.03 139.20
  L 343.17 157.28
  A 0.96 0.92 89.7 0 1 342.25 158.25
  L 325.31 158.19
  A 1.01 0.94 70.7 0 1 324.53 157.78
  Q 322.82 155.46 319.75 154.01
  A 0.86 0.86 12.4 0 1 319.25 153.23
  L 319.25 110.92
  A 0.92 0.92 0.0 0 0 318.33 110.00
  L 310.26 110.00
  A 0.77 0.76 0.4 0 0 309.49 110.75
  L 309.26 150.07
  A 2.49 2.40 18.5 0 0 310.31 152.08
  Q 325.17 162.60 329.69 178.95
  Q 331.24 184.54 331.38 195.21
  Q 331.64 215.24 331.49 236.42
  A 0.78 0.77 -89.6 0 1 330.72 237.19
  L 284.92 237.25
  A 0.67 0.67 0.2 0 1 284.25 236.58
  Q 284.25 222.02 284.25 207.86
  Q 284.25 197.83 283.81 196.20
  C 282.09 189.90 275.30 186.65 268.69 187.14
  A 0.55 0.54 -2.3 0 0 268.18 187.68
  L 268.01 236.42
  A 0.84 0.83 -89.7 0 1 267.18 237.25
  L 221.31 237.25
  A 0.56 0.56 0.0 0 1 220.75 236.69
  L 220.81 145.06
  A 0.51 0.51 0.0 0 1 221.32 144.55
  L 226.69 144.50
  A 1.37 1.33 -1.8 0 0 228.04 143.10
  C 227.86 139.27 228.25 135.02 228.23 131.97
  Q 227.83 82.02 228.00 32.08
  C 228.01 29.60 227.47 28.50 230.75 28.50
  Q 248.62 28.50 266.50 28.50
  C 270.97 28.50 272.89 29.09 276.08 32.42
  Q 281.08 37.66 284.26 44.26
  Q 284.61 45.00 284.84 44.22
  Q 289.74 27.66 307.50 28.12
  C 318.14 28.40 330.80 27.29 337.07 38.25
  A 0.64 0.51 62.2 0 0 337.79 38.56
  Q 338.73 38.13 338.23 36.51
  C 336.83 31.94 337.68 29.07 340.46 25.02
  Q 347.66 14.52 354.87 3.26
  Q 357.05 -0.14 358.30 3.69
  Q 358.88 5.45 361.51 7.79
  A 2.19 2.17 -69.5 0 1 362.25 9.43
  L 362.19 68.10
  Q 362.19 69.46 363.03 68.39
  L 373.25 55.45
  A 1.17 0.90 -66.3 0 1 374.06 55.01
  L 375.40 55.01
  A 0.92 0.86 86.2 0 1 376.26 55.82
  Q 376.64 58.96 379.37 60.52
  A 1.77 1.76 -75.0 0 1 380.25 62.05
  L 380.31 120.25
  A 0.24 0.16 88.0 0 0 380.49 120.50
  Z
  M 447.50 10.21
  Q 441.97 17.88 436.93 25.90
  C 435.17 28.70 434.26 29.08 434.25 33.00
  Q 434.16 78.70 434.37 124.57
  Q 432.34 126.26 433.24 128.72
  Q 433.43 129.22 433.72 128.77
  L 444.93 111.60
  A 1.32 1.06 -75.6 0 1 445.67 111.05
  C 447.77 110.60 448.29 112.36 448.31 114.13
  Q 448.35 119.65 449.68 125.01
  L 449.57 169.68
  Q 449.57 170.18 449.75 169.72
  C 450.24 168.42 450.26 167.65 451.23 166.55
  Q 458.13 158.66 465.19 150.66
  A 2.19 2.17 66.2 0 0 465.75 149.20
  Q 465.88 106.75 465.65 65.00
  Q 465.65 63.87 465.79 62.75
  Q 466.68 61.46 466.55 59.88
  A 0.80 0.47 -88.2 0 0 466.21 59.26
  Q 465.91 59.15 465.81 59.81
  Q 465.51 61.78 465.25 62.46
  L 448.18 83.70
  Q 447.56 84.47 447.57 83.49
  L 447.96 10.50
  Q 448.51 8.00 448.50 7.50
  C 448.45 5.77 447.51 10.15 447.50 10.21
  Z
  M 354.50 11.21
  L 341.84 29.96
  A 4.05 3.47 65.3 0 0 341.23 32.11
  C 341.56 63.25 341.47 93.56 341.24 124.49
  Q 341.23 126.52 342.35 124.82
  L 349.00 114.71
  C 351.93 115.48 351.67 109.58 355.21 112.84
  A 1.22 1.12 -71.0 0 1 355.58 113.69
  L 355.81 124.43
  A 0.72 0.51 11.5 0 0 356.31 124.96
  C 356.90 125.14 356.82 130.09 356.96 131.00
  L 356.72 168.56
  Q 356.71 169.28 357.18 168.74
  L 372.37 151.31
  A 1.35 1.34 -24.7 0 0 372.70 150.43
  L 372.71 139.25
  L 373.29 113.25
  Q 373.44 103.01 373.65 92.77
  C 373.76 87.56 372.79 80.71 373.26 74.73
  Q 373.73 68.84 374.15 61.35
  Q 374.32 58.42 372.42 60.66
  Q 366.62 67.52 359.94 75.94
  Q 358.75 77.43 357.32 77.47
  A 1.38 0.63 51.0 0 1 356.49 77.06
  Q 355.83 76.48 354.79 76.75
  L 354.96 11.25
  Q 355.87 4.25 354.50 11.21
  Z
  M 572.20 132.69
  L 548.86 132.75
  A 0.61 0.60 0.0 0 1 548.25 132.15
  L 548.43 48.69
  A 0.51 0.51 -89.4 0 1 548.94 48.19
  L 572.31 48.19
  A 0.50 0.50 0.0 0 1 572.81 48.69
  L 572.75 66.92
  A 0.60 0.58 1.0 0 0 573.33 67.50
  L 583.99 67.70
  A 0.50 0.49 0.6 0 0 584.50 67.21
  C 584.52 61.39 585.87 44.74 583.32 40.53
  C 576.95 29.98 559.93 29.51 548.94 32.44
  C 543.88 33.78 535.54 39.03 535.48 45.09
  Q 535.00 91.92 535.49 138.74
  A 1.53 1.39 -67.3 0 0 535.81 139.64
  Q 540.93 146.00 548.25 146.50
  Q 565.48 147.68 583.73 147.23
  A 0.54 0.53 -1.1 0 0 584.25 146.70
  L 584.25 85.76
  A 0.52 0.51 0.0 0 0 583.73 85.25
  L 556.06 85.07
  A 0.51 0.50 -0.0 0 0 555.55 85.57
  L 555.55 102.19
  A 0.51 0.50 89.4 0 0 556.06 102.70
  L 571.78 102.46
  A 0.95 0.92 -0.6 0 1 572.75 103.38
  L 572.69 132.18
  A 0.51 0.49 -90.0 0 1 572.20 132.69
  Z
  M 322.69 49.06
  L 322.81 150.19
  A 0.49 0.48 0.0 0 0 323.30 150.67
  L 335.23 150.51
  A 0.53 0.51 -0.6 0 0 335.75 150.00
  Q 335.93 99.29 335.53 49.28
  C 335.42 35.01 325.35 31.59 313.09 31.49
  C 302.84 31.39 294.06 32.32 289.41 42.46
  Q 288.25 45.01 288.26 48.75
  Q 288.38 99.35 288.07 149.94
  A 0.48 0.46 -0.0 0 0 288.56 150.41
  L 301.07 150.27
  A 0.69 0.67 -0.4 0 0 301.75 149.60
  L 301.75 102.78
  A 0.53 0.52 -90.0 0 1 302.27 102.25
  L 312.56 102.32
  A 0.51 0.51 0.0 0 0 313.07 101.81
  L 313.00 85.05
  A 0.55 0.54 90.0 0 0 312.46 84.50
  L 301.80 84.50
  A 0.57 0.56 89.5 0 1 301.24 83.94
  L 301.07 49.07
  A 0.51 0.49 -90.0 0 1 301.56 48.56
  L 322.18 48.55
  A 0.51 0.51 -89.6 0 1 322.69 49.06
  Z
  M 513.92 104.80
  L 485.79 32.99
  A 0.79 0.76 78.5 0 0 485.08 32.50
  L 473.82 32.55
  A 0.52 0.52 -0.6 0 0 473.31 33.07
  Q 473.26 82.21 473.48 131.35
  C 473.50 135.77 472.96 143.69 473.52 149.93
  A 0.54 0.51 -2.3 0 0 474.06 150.40
  L 485.75 150.46
  A 0.50 0.46 -0.0 0 0 486.25 150.00
  L 486.19 79.81
  Q 486.19 79.31 486.38 79.78
  L 514.50 150.09
  A 0.81 0.73 78.3 0 0 515.18 150.59
  L 527.15 150.73
  A 0.61 0.60 -90.0 0 0 527.75 150.12
  L 527.75 32.31
  A 0.55 0.54 89.5 0 0 527.20 31.76
  L 514.81 31.80
  A 0.51 0.51 -0.6 0 0 514.31 32.31
  Q 514.05 68.41 514.50 104.50
  Q 514.50 104.68 514.35 104.88
  Q 514.09 105.24 513.92 104.80
  Z
  M 264.03 97.65
  C 273.88 94.15 278.53 86.62 278.50 76.25
  Q 278.44 56.70 278.33 48.08
  C 278.24 41.37 276.37 36.49 270.94 33.03
  A 5.02 4.98 -28.4 0 0 268.29 32.25
  L 232.56 32.07
  A 0.49 0.49 0.6 0 0 232.06 32.56
  L 231.82 150.45
  A 0.50 0.44 0.6 0 0 232.32 150.90
  L 244.19 150.90
  A 0.50 0.46 -0.0 0 0 244.69 150.44
  L 244.75 48.83
  A 0.54 0.54 -1.1 0 1 245.27 48.29
  C 250.90 48.06 258.47 47.69 262.21 52.18
  C 265.95 56.66 266.09 66.23 265.48 72.00
  Q 264.27 83.51 252.76 85.21
  A 0.60 0.60 -4.5 0 0 252.25 85.80
  C 252.25 92.74 251.88 98.46 253.50 105.25
  Q 258.65 126.92 264.24 149.81
  A 1.02 0.98 -7.4 0 0 265.25 150.55
  L 278.22 150.26
  A 0.40 0.39 -8.7 0 0 278.59 149.77
  L 263.70 98.30
  A 0.53 0.53 71.9 0 1 264.03 97.65
  Z
  M 408.23 133.37
  Q 403.12 134.39 399.42 129.91
  A 1.13 1.12 36.3 0 1 399.24 128.77
  C 400.50 125.63 403.65 118.99 403.36 115.80
  A 1.11 1.04 -27.0 0 1 403.66 114.97
  C 406.43 111.98 404.60 109.00 406.66 106.32
  C 408.58 103.84 409.30 101.11 410.33 98.22
  A 1.51 1.08 52.5 0 0 410.30 97.30
  Q 409.96 96.33 410.73 95.88
  A 1.47 0.86 -16.5 0 0 411.36 95.21
  L 414.50 86.25
  Q 414.81 85.37 415.50 83.75
  Q 417.72 78.54 419.25 73.10
  Q 419.38 72.64 420.78 69.64
  Q 421.79 67.49 421.04 65.00
  Q 423.14 58.76 425.38 52.58
  C 427.45 46.88 426.55 38.86 426.45 32.81
  A 0.51 0.51 89.4 0 0 425.94 32.31
  L 380.02 32.45
  A 0.52 0.52 90.0 0 0 379.50 32.97
  L 379.50 48.00
  A 0.44 0.44 0.0 0 0 379.94 48.44
  L 410.95 48.50
  A 0.62 0.61 10.4 0 1 411.53 49.33
  Q 396.34 88.97 381.27 129.30
  C 380.25 132.03 379.52 133.20 379.50 136.50
  Q 379.45 143.35 379.56 150.19
  A 0.50 0.49 90.0 0 0 380.05 150.69
  L 426.93 150.69
  A 0.52 0.51 0.0 0 0 427.45 150.18
  L 427.27 134.00
  A 0.53 0.51 0.0 0 0 426.75 133.50
  L 408.23 133.37
  Z
  M 252.98 55.96
  A 0.93 0.87 -89.4 0 0 252.08 56.90
  L 252.24 80.62
  A 0.99 0.98 83.8 0 0 253.42 81.58
  C 263.74 79.37 263.08 66.69 261.03 58.66
  Q 260.38 56.14 258.17 56.09
  L 252.98 55.96
  Z
  M 316.44 81.81
  Q 316.53 83.80 317.95 85.09
  Q 319.25 86.26 319.25 84.51
  L 319.25 57.80
  Q 319.25 56.17 317.19 56.11
  L 310.78 55.92
  Q 308.55 55.85 308.55 57.88
  L 308.50 79.99
  A 1.18 1.06 1.1 0 0 309.64 81.05
  L 315.94 81.23
  A 0.61 0.51 88.7 0 1 316.44 81.81
  Z
  M 430.23 65.58
  L 407.26 129.16
  A 0.49 0.49 9.7 0 0 407.72 129.81
  L 430.06 129.81
  A 0.51 0.51 -89.4 0 0 430.57 129.31
  L 430.81 65.68
  Q 430.82 63.94 430.23 65.58
  Z
  M 284.43 91.97
  Q 280.16 100.37 272.20 104.28
  A 0.61 0.60 69.1 0 0 271.89 104.99
  Q 277.23 124.02 282.75 143.00
  Q 283.20 144.55 284.02 144.21
  A 0.91 0.67 83.4 0 0 284.46 143.44
  C 285.04 126.73 284.36 109.11 284.68 92.03
  Q 284.69 91.44 284.43 91.97
  Z
  M 556.41 109.50
  A 0.51 0.50 8.1 0 0 555.75 109.98
  L 555.92 128.56
  A 0.53 0.53 0.6 0 0 556.44 129.09
  L 568.27 129.22
  A 1.00 0.96 -89.4 0 0 569.25 128.22
  L 569.25 111.77
  A 1.49 1.49 84.9 0 0 567.49 110.30
  Q 562.32 111.22 556.41 109.50
  Z
  M 253.13 144.38
  L 258.30 144.36
  A 0.80 0.71 82.0 0 0 258.95 143.37
  L 252.56 116.92
  Q 252.05 114.82 252.06 116.98
  L 252.19 143.29
  A 1.10 0.93 89.4 0 0 253.13 144.38
  Z"
/>
<path fill="#404033" d="
  M 447.96 10.50
  L 447.50 10.21
  C 447.51 10.15 448.45 5.77 448.50 7.50
  Q 448.51 8.00 447.96 10.50
  Z"
/>
<path fill="#404033" d="
  M 354.96 11.25
  L 354.50 11.21
  Q 355.87 4.25 354.96 11.25
  Z"
/>
<path fill="#fff500" d="
  M 447.50 10.21
  L 447.96 10.50
  L 447.57 83.49
  Q 447.56 84.47 448.18 83.70
  L 465.25 62.46
  Q 465.67 62.43 465.79 62.75
  Q 465.65 63.87 465.65 65.00
  Q 465.88 106.75 465.75 149.20
  A 2.19 2.17 66.2 0 1 465.19 150.66
  Q 458.13 158.66 451.23 166.55
  C 450.26 167.65 450.24 168.42 449.75 169.72
  Q 449.57 170.18 449.57 169.68
  L 449.68 125.01
  Q 450.38 113.59 449.83 102.58
  Q 449.78 101.46 449.20 102.42
  Q 442.29 113.83 434.37 124.57
  Q 434.16 78.70 434.25 33.00
  C 434.26 29.08 435.17 28.70 436.93 25.90
  Q 441.97 17.88 447.50 10.21
  Z"
/>
<path fill="#fff500" d="
  M 354.50 11.21
  L 354.96 11.25
  L 354.79 76.75
  L 354.60 83.88
  Q 354.57 85.27 355.43 84.20
  L 371.61 64.00
  Q 372.68 62.67 372.67 64.39
  L 372.54 104.25
  L 372.71 139.25
  L 372.70 150.43
  A 1.35 1.34 -24.7 0 1 372.37 151.31
  L 357.18 168.74
  Q 356.71 169.28 356.72 168.56
  L 356.96 131.00
  L 357.00 103.00
  Q 357.00 102.46 356.71 102.91
  L 349.00 114.71
  L 342.35 124.82
  Q 341.23 126.52 341.24 124.49
  C 341.47 93.56 341.56 63.25 341.23 32.11
  A 4.05 3.47 65.3 0 1 341.84 29.96
  L 354.50 11.21
  Z"
/>
<path fill="#ffffff" d="
  M 572.69 132.18
  L 572.75 103.38
  A 0.95 0.92 -0.6 0 0 571.78 102.46
  L 556.06 102.70
  A 0.51 0.50 89.4 0 1 555.55 102.19
  L 555.55 85.57
  A 0.51 0.50 -0.0 0 1 556.06 85.07
  L 583.73 85.25
  A 0.52 0.51 0.0 0 1 584.25 85.76
  L 584.25 146.70
  A 0.54 0.53 -1.1 0 1 583.73 147.23
  Q 565.48 147.68 548.25 146.50
  Q 540.93 146.00 535.81 139.64
  A 1.53 1.39 -67.3 0 1 535.49 138.74
  Q 535.00 91.92 535.48 45.09
  C 535.54 39.03 543.88 33.78 548.94 32.44
  C 559.93 29.51 576.95 29.98 583.32 40.53
  C 585.87 44.74 584.52 61.39 584.50 67.21
  A 0.50 0.49 0.6 0 1 583.99 67.70
  L 573.33 67.50
  A 0.60 0.58 1.0 0 1 572.75 66.92
  L 572.81 48.69
  A 0.50 0.50 0.0 0 0 572.31 48.19
  L 548.94 48.19
  A 0.51 0.51 -89.4 0 0 548.43 48.69
  L 548.25 132.15
  A 0.61 0.60 -0.0 0 0 548.86 132.75
  L 572.20 132.69
  A 0.51 0.49 90.0 0 0 572.69 132.18
  Z"
/>
<path fill="#ffffff" d="
  M 322.18 48.55
  L 301.56 48.56
  A 0.51 0.49 90.0 0 0 301.07 49.07
  L 301.24 83.94
  A 0.57 0.56 89.5 0 0 301.80 84.50
  L 312.46 84.50
  A 0.55 0.54 90.0 0 1 313.00 85.05
  L 313.07 101.81
  A 0.51 0.51 0.0 0 1 312.56 102.32
  L 302.27 102.25
  A 0.53 0.52 -90.0 0 0 301.75 102.78
  L 301.75 149.60
  A 0.69 0.67 -0.4 0 1 301.07 150.27
  L 288.56 150.41
  A 0.48 0.46 -0.0 0 1 288.07 149.94
  Q 288.38 99.35 288.26 48.75
  Q 288.25 45.01 289.41 42.46
  C 294.06 32.32 302.84 31.39 313.09 31.49
  C 325.35 31.59 335.42 35.01 335.53 49.28
  Q 335.93 99.29 335.75 150.00
  A 0.53 0.51 -0.6 0 1 335.23 150.51
  L 323.30 150.67
  A 0.49 0.48 0.0 0 1 322.81 150.19
  L 322.69 49.06
  A 0.51 0.51 89.8 0 0 322.18 48.55
  Z"
/>
<path fill="#ffffff" d="
  M 514.35 104.88
  Q 514.50 104.68 514.50 104.50
  Q 514.05 68.41 514.31 32.31
  A 0.51 0.51 -0.6 0 1 514.81 31.80
  L 527.20 31.76
  A 0.55 0.54 89.5 0 1 527.75 32.31
  L 527.75 150.12
  A 0.61 0.60 -90.0 0 1 527.15 150.73
  L 515.18 150.59
  A 0.81 0.73 78.3 0 1 514.50 150.09
  L 486.38 79.78
  Q 486.19 79.31 486.19 79.81
  L 486.25 150.00
  A 0.50 0.46 -0.0 0 1 485.75 150.46
  L 474.06 150.40
  A 0.54 0.51 -2.3 0 1 473.52 149.93
  C 472.96 143.69 473.50 135.77 473.48 131.35
  Q 473.26 82.21 473.31 33.07
  A 0.52 0.52 -0.6 0 1 473.82 32.55
  L 485.08 32.50
  A 0.79 0.76 78.5 0 1 485.79 32.99
  L 513.92 104.80
  Q 514.09 105.24 514.35 104.88
  Z"
/>
<path fill="#ffffff" d="
  M 263.70 98.30
  L 278.59 149.77
  A 0.40 0.39 -8.7 0 1 278.22 150.26
  L 265.25 150.55
  A 1.02 0.98 -7.4 0 1 264.24 149.81
  Q 258.65 126.92 253.50 105.25
  C 251.88 98.46 252.25 92.74 252.25 85.80
  A 0.60 0.60 -4.5 0 1 252.76 85.21
  Q 264.27 83.51 265.48 72.00
  C 266.09 66.23 265.95 56.66 262.21 52.18
  C 258.47 47.69 250.90 48.06 245.27 48.29
  A 0.54 0.54 -1.1 0 0 244.75 48.83
  L 244.69 150.44
  A 0.50 0.46 -0.0 0 1 244.19 150.90
  L 232.32 150.90
  A 0.50 0.44 0.6 0 1 231.82 150.45
  L 232.06 32.56
  A 0.49 0.49 0.6 0 1 232.56 32.07
  L 268.29 32.25
  A 5.02 4.98 -28.4 0 1 270.94 33.03
  C 276.37 36.49 278.24 41.37 278.33 48.08
  Q 278.44 56.70 278.50 76.25
  C 278.53 86.62 273.88 94.15 264.03 97.65
  A 0.53 0.53 71.9 0 0 263.70 98.30
  Z"
/>
<path fill="#ffffff" d="
  M 421.04 65.00
  L 396.32 133.00
  A 0.37 0.36 -80.4 0 0 396.66 133.49
  L 408.23 133.37
  L 426.75 133.50
  A 0.53 0.51 0.0 0 1 427.27 134.00
  L 427.45 150.18
  A 0.52 0.51 0.0 0 1 426.93 150.69
  L 380.05 150.69
  A 0.50 0.49 90.0 0 1 379.56 150.19
  Q 379.45 143.35 379.50 136.50
  C 379.52 133.20 380.25 132.03 381.27 129.30
  Q 396.34 88.97 411.53 49.33
  A 0.62 0.61 10.4 0 0 410.95 48.50
  L 379.94 48.44
  A 0.44 0.44 0.0 0 1 379.50 48.00
  L 379.50 32.97
  A 0.52 0.52 -90.0 0 1 380.02 32.45
  L 425.94 32.31
  A 0.51 0.51 89.4 0 1 426.45 32.81
  C 426.55 38.86 427.45 46.88 425.38 52.58
  Q 423.14 58.76 421.04 65.00
  Z"
/>
<path fill="#000000" d="
  M 71.25 249.23
  C 10.98 248.53 -14.55 172.86 33.65 136.16
  A 0.86 0.86 -41.3 0 0 33.74 134.87
  C 15.33 116.30 15.80 86.26 35.55 68.71
  Q 47.23 58.33 64.47 57.00
  A 0.91 0.91 80.7 0 0 65.28 55.87
  Q 64.72 53.73 66.76 53.80
  Q 72.00 54.00 77.25 54.12
  C 120.87 55.08 142.98 101.89 114.18 135.76
  A 0.83 0.83 -52.9 0 0 114.35 136.99
  C 162.22 169.70 142.32 240.27 85.32 244.94
  C 83.40 245.09 81.81 244.00 82.60 247.42
  A 1.47 1.46 -7.1 0 1 81.20 249.21
  Q 76.72 249.30 71.25 249.23
  Z
  M 83.18 188.56
  L 83.06 242.56
  A 1.27 1.26 -1.9 0 0 84.41 243.82
  C 141.37 240.05 161.12 168.41 112.90 137.45
  A 1.15 1.14 -53.0 0 1 112.66 135.73
  C 141.72 102.94 120.81 56.84 77.26 55.21
  A 1.21 1.19 0.7 0 0 76.01 56.41
  L 76.18 85.80
  A 0.60 0.60 4.5 0 0 76.69 86.39
  C 90.25 88.64 100.06 96.27 99.73 110.86
  C 99.45 123.85 89.36 134.61 76.77 136.80
  Q 69.32 138.09 69.31 138.10
  C 37.29 147.32 48.64 195.25 82.70 188.16
  A 0.40 0.40 83.3 0 1 83.18 188.56
  Z
  M 65.31 94.70
  L 65.25 59.04
  A 0.85 0.84 -2.2 0 0 64.34 58.20
  C 24.76 61.33 6.26 107.66 35.75 135.27
  A 0.60 0.59 -42.1 0 1 35.70 136.18
  C -13.36 172.72 11.65 249.30 73.27 248.00
  A 0.43 0.43 -0.7 0 0 73.69 247.57
  L 73.69 202.30
  A 0.52 0.51 1.2 0 0 73.19 201.79
  Q 49.95 200.48 41.43 181.19
  C 32.31 160.54 44.85 137.87 66.43 133.61
  Q 72.62 132.39 74.36 131.58
  C 93.59 122.55 85.84 96.62 65.81 95.22
  A 0.54 0.52 2.4 0 1 65.31 94.70
  Z"
/>
<path fill="#fdb813" d="
  M 82.70 188.16
  C 48.64 195.25 37.29 147.32 69.31 138.10
  Q 69.32 138.09 76.77 136.80
  C 89.36 134.61 99.45 123.85 99.73 110.86
  C 100.06 96.27 90.25 88.64 76.69 86.39
  A 0.60 0.60 4.5 0 1 76.18 85.80
  L 76.01 56.41
  A 1.21 1.19 0.7 0 1 77.26 55.21
  C 120.81 56.84 141.72 102.94 112.66 135.73
  A 1.15 1.14 -53.0 0 0 112.90 137.45
  C 161.12 168.41 141.37 240.05 84.41 243.82
  A 1.27 1.26 -1.9 0 1 83.06 242.56
  L 83.18 188.56
  A 0.40 0.40 84.8 0 0 82.70 188.16
  Z"
/>
<path fill="#fdb813" d="
  M 65.81 95.22
  C 85.84 96.62 93.59 122.55 74.36 131.58
  Q 72.62 132.39 66.43 133.61
  C 44.85 137.87 32.31 160.54 41.43 181.19
  Q 49.95 200.48 73.19 201.79
  A 0.52 0.51 1.2 0 1 73.69 202.30
  L 73.69 247.57
  A 0.43 0.43 -0.7 0 1 73.27 248.00
  C 11.65 249.30 -13.36 172.72 35.70 136.18
  A 0.60 0.59 -42.1 0 0 35.75 135.27
  C 6.26 107.66 24.76 61.33 64.34 58.20
  A 0.85 0.84 -2.2 0 1 65.25 59.04
  L 65.31 94.70
  A 0.54 0.52 2.4 0 0 65.81 95.22
  Z"
/>
<path fill="#1a1019" d="
  M 373.29 113.25
  L 372.54 104.25
  L 372.67 64.39
  Q 372.68 62.67 371.61 64.00
  L 355.43 84.20
  Q 354.57 85.27 354.60 83.88
  L 354.79 76.75
  Q 355.83 76.48 356.49 77.06
  A 1.38 0.63 51.0 0 0 357.32 77.47
  Q 358.75 77.43 359.94 75.94
  Q 366.62 67.52 372.42 60.66
  Q 374.32 58.42 374.15 61.35
  Q 373.73 68.84 373.26 74.73
  C 372.79 80.71 373.76 87.56 373.65 92.77
  Q 373.44 103.01 373.29 113.25
  Z"
/>
<path fill="#1a1019" d="
  M 465.79 62.75
  Q 465.67 62.43 465.25 62.46
  Q 465.51 61.78 465.81 59.81
  Q 465.91 59.15 466.21 59.26
  A 0.80 0.47 -88.2 0 1 466.55 59.88
  Q 466.68 61.46 465.79 62.75
  Z"
/>
<path fill="#13100c" d="
  M 421.04 65.00
  Q 421.79 67.49 420.78 69.64
  Q 419.38 72.64 419.25 73.10
  Q 417.72 78.54 415.50 83.75
  Q 414.81 85.37 414.50 86.25
  L 411.36 95.21
  A 1.47 0.86 -16.5 0 1 410.73 95.88
  Q 409.96 96.33 410.30 97.30
  A 1.51 1.08 52.5 0 1 410.33 98.22
  C 409.30 101.11 408.58 103.84 406.66 106.32
  C 404.60 109.00 406.43 111.98 403.66 114.97
  A 1.11 1.04 -27.0 0 0 403.36 115.80
  C 403.65 118.99 400.50 125.63 399.24 128.77
  A 1.13 1.12 36.3 0 0 399.42 129.91
  Q 403.12 134.39 408.23 133.37
  L 396.66 133.49
  A 0.37 0.36 -80.4 0 1 396.32 133.00
  L 421.04 65.00
  Z"
/>
<path fill="#1a1019" d="
  M 449.68 125.01
  Q 448.35 119.65 448.31 114.13
  C 448.29 112.36 447.77 110.60 445.67 111.05
  A 1.32 1.06 -75.6 0 0 444.93 111.60
  L 433.72 128.77
  Q 433.43 129.22 433.24 128.72
  Q 432.34 126.26 434.37 124.57
  Q 442.29 113.83 449.20 102.42
  Q 449.78 101.46 449.83 102.58
  Q 450.38 113.59 449.68 125.01
  Z"
/>
<path fill="#1a1019" d="
  M 356.96 131.00
  C 356.82 130.09 356.90 125.14 356.31 124.96
  A 0.72 0.51 11.5 0 1 355.81 124.43
  L 355.58 113.69
  A 1.22 1.12 -71.0 0 0 355.21 112.84
  C 351.67 109.58 351.93 115.48 349.00 114.71
  L 356.71 102.91
  Q 357.00 102.46 357.00 103.00
  L 356.96 131.00
  Z"
/>
<path fill="#404033" d="
  M 372.54 104.25
  L 373.29 113.25
  L 372.71 139.25
  L 372.54 104.25
  Z"
/>
<rect fill="#000000" x="154.50" y="144.50" width="55.00" height="92.74" rx="0.55"/>
<path fill="#000000" d="
  M 211.04 292.67
  C 192.14 297.73 190.72 269.75 211.08 274.18
  A 1.12 1.04 6.5 0 1 211.96 275.21
  L 211.98 279.60
  Q 211.98 280.33 211.38 279.91
  Q 208.48 277.89 205.68 278.64
  C 197.69 280.79 203.23 292.55 211.17 287.06
  Q 212.00 286.48 212.00 287.49
  L 212.00 291.42
  A 1.29 1.28 82.8 0 1 211.04 292.67
  Z"
/>
<path fill="#000000" d="
  M 237.90 283.43
  A 11.49 9.99 0.0 0 1 226.41 293.42
  A 11.49 9.99 0.0 0 1 214.92 283.43
  A 11.49 9.99 0.0 0 1 226.41 273.44
  A 11.49 9.99 0.0 0 1 237.90 283.43
  Z
  M 232.0184 283.7932
  A 5.45 5.13 1.4 0 0 226.6953 278.5315
  A 5.45 5.13 1.4 0 0 221.1216 283.5268
  A 5.45 5.13 1.4 0 0 226.4447 288.7885
  A 5.45 5.13 1.4 0 0 232.0184 283.7932
  Z"
/>
<path fill="#000000" d="
  M 76.08 287.21
  L 75.55 282.55
  A 0.75 0.71 -2.8 0 1 76.30 281.77
  L 81.19 281.79
  A 0.60 0.57 86.0 0 1 81.76 282.31
  Q 82.48 287.58 81.64 292.82
  A 0.57 0.56 -84.7 0 1 81.07 293.30
  C 77.51 293.21 72.88 293.46 69.93 291.91
  C 64.03 288.82 63.22 280.81 68.70 276.49
  Q 73.95 272.37 81.30 274.48
  A 0.74 0.63 -84.2 0 1 81.76 275.14
  L 81.91 278.81
  A 0.88 0.78 -81.0 0 1 80.83 279.70
  Q 75.81 277.55 72.57 281.02
  Q 70.88 282.84 71.50 285.24
  Q 72.37 288.66 75.70 287.83
  A 0.58 0.51 80.1 0 0 76.08 287.21
  Z"
/>
<path fill="#000000" d="
  M 174.25 286.82
  Q 173.46 285.17 173.96 282.29
  A 0.66 0.66 5.2 0 1 174.61 281.75
  L 179.34 281.75
  A 0.66 0.66 89.8 0 1 180.00 282.41
  L 180.00 292.57
  A 0.76 0.75 -0.0 0 1 179.24 293.32
  C 175.12 293.28 167.99 293.76 165.06 289.44
  C 158.12 279.19 169.78 271.64 179.13 274.29
  A 1.20 1.18 -82.4 0 1 180.00 275.44
  L 180.00 278.78
  A 0.84 0.84 -83.0 0 1 178.96 279.60
  C 166.19 276.44 168.63 290.67 174.08 287.52
  A 0.56 0.49 62.3 0 0 174.25 286.82
  Z"
/>
<path fill="#000000" d="
  M 44.56 288.66
  Q 46.85 288.61 47.48 288.50
  C 50.27 288.03 50.20 290.78 49.68 292.53
  A 0.72 0.69 8.2 0 1 49.00 293.02
  L 35.49 293.02
  A 0.54 0.52 89.4 0 1 34.97 292.49
  L 34.77 274.86
  A 0.88 0.85 -0.3 0 1 35.65 274.00
  L 48.44 274.00
  A 0.73 0.66 0.4 0 1 49.17 274.67
  L 49.15 278.07
  A 0.60 0.53 -1.1 0 1 48.57 278.60
  L 41.81 278.82
  A 0.75 0.67 7.6 0 0 41.13 279.28
  C 40.30 281.78 45.90 280.59 47.94 280.97
  A 0.63 0.59 5.2 0 1 48.46 281.56
  L 48.49 285.88
  A 0.65 0.62 -0.0 0 1 47.84 286.50
  L 41.81 286.55
  A 0.86 0.74 10.6 0 0 41.06 286.99
  Q 40.72 287.74 41.17 288.38
  A 1.06 0.69 -11.1 0 0 41.99 288.71
  L 44.56 288.66
  Z"
/>
<rect fill="#000000" x="-3.54" y="-9.53" transform="translate(58.54,283.55) rotate(0.3)" width="7.08" height="19.06" rx="0.49"/>
<path fill="#000000" d="
  M 93.31 280.71
  L 98.39 280.75
  A 1.00 0.91 -89.4 0 0 99.30 279.77
  L 99.38 274.68
  A 0.59 0.54 -88.5 0 1 99.94 274.10
  L 104.45 274.20
  A 0.61 0.50 -89.5 0 1 104.94 274.81
  L 105.00 292.29
  A 0.94 0.93 7.4 0 1 103.82 293.19
  Q 102.02 292.70 100.49 293.18
  A 0.96 0.96 81.5 0 1 99.25 292.26
  L 99.25 286.14
  A 0.83 0.78 89.7 0 0 98.46 285.31
  L 93.18 285.38
  A 0.56 0.48 90.0 0 0 92.70 285.94
  L 92.71 292.18
  A 0.62 0.52 89.1 0 1 92.21 292.80
  L 87.55 293.01
  A 0.58 0.47 89.1 0 1 87.06 292.43
  L 87.00 275.24
  A 1.10 0.97 -89.8 0 1 87.99 274.13
  L 92.21 274.19
  A 0.65 0.47 88.8 0 1 92.69 274.82
  L 92.79 280.19
  A 0.53 0.53 0.2 0 0 93.31 280.71
  Z"
/>
<path fill="#000000" d="
  M 112.94 280.79
  L 109.06 280.69
  A 0.63 0.50 0.7 0 1 108.45 280.20
  L 108.39 274.92
  A 1.02 0.91 -0.3 0 1 109.41 274.00
  L 123.41 274.00
  A 1.09 1.09 0.2 0 1 124.50 275.09
  C 124.50 277.57 125.90 281.54 121.43 280.64
  A 1.57 1.55 5.9 0 0 119.54 282.15
  L 119.51 292.07
  A 0.73 0.65 89.2 0 1 118.88 292.80
  L 114.06 293.01
  A 0.57 0.48 89.0 0 1 113.56 292.44
  L 113.44 281.31
  A 0.52 0.51 -89.4 0 0 112.94 280.79
  Z"
/>
<rect fill="#000000" x="-3.62" y="-9.54" transform="translate(132.63,283.54) rotate(-0.1)" width="7.24" height="19.08" rx="0.62"/>
<path fill="#000000" d="
  M 147.30 284.68
  L 147.26 292.46
  A 0.64 0.54 -2.2 0 1 146.66 293.01
  L 143.26 293.25
  A 1.88 1.59 -2.3 0 1 141.25 291.69
  L 141.31 274.82
  A 0.64 0.47 -89.6 0 1 141.79 274.18
  L 146.16 274.24
  A 2.74 2.18 70.5 0 1 148.19 275.51
  L 152.11 281.67
  Q 153.45 283.77 153.50 281.27
  L 153.64 274.68
  A 0.59 0.53 -88.9 0 1 154.17 274.11
  L 158.29 274.11
  A 1.00 0.94 -89.7 0 1 159.23 275.12
  L 159.08 292.31
  A 0.60 0.52 89.5 0 1 158.57 292.91
  L 154.05 293.01
  A 1.07 0.80 67.9 0 1 153.26 292.53
  L 147.86 284.53
  Q 147.31 283.70 147.30 284.68
  Z"
/>
<path fill="#000000" d="
  M 268.52 292.96
  A 1.09 1.03 -89.7 0 1 267.50 291.87
  L 267.50 275.38
  A 1.15 1.15 -4.7 0 1 268.46 274.25
  Q 271.57 273.74 273.35 274.27
  A 0.72 0.70 -82.2 0 1 273.84 274.94
  L 273.95 288.06
  A 0.66 0.60 -84.4 0 0 274.41 288.68
  Q 277.39 289.34 280.44 288.89
  A 0.60 0.55 -11.3 0 1 281.09 289.28
  Q 281.53 290.89 281.14 292.52
  A 0.69 0.65 -82.6 0 1 280.50 293.04
  L 268.52 292.96
  Z"
/>
<path fill="#000000" d="
  M 281.93 278.63
  Q 281.62 277.97 281.65 277.21
  C 281.80 273.50 281.54 274.04 285.09 273.98
  Q 291.08 273.88 297.07 274.16
  A 0.62 0.52 1.7 0 1 297.66 274.68
  L 297.61 278.51
  A 0.65 0.51 -1.3 0 1 296.99 279.02
  L 293.69 279.16
  A 0.55 0.53 -0.6 0 0 293.16 279.68
  L 293.02 292.21
  A 0.87 0.84 -0.7 0 1 292.18 293.04
  L 287.92 293.18
  A 0.89 0.78 -1.1 0 1 287.00 292.40
  L 287.00 279.91
  A 0.96 0.95 -8.6 0 0 285.76 279.00
  Q 284.22 279.47 282.68 279.17
  A 1.09 0.98 -5.9 0 1 281.93 278.63
  Z"
/>
<path fill="#000000" d="
  M 302.25 293.06
  A 0.52 0.52 1.1 0 1 301.75 292.54
  L 301.75 275.27
  A 1.17 1.17 -1.8 0 1 302.85 274.10
  C 307.19 273.80 312.82 273.09 315.91 276.37
  C 319.53 280.24 319.12 287.81 315.02 291.28
  C 312.03 293.82 306.21 293.27 302.25 293.06
  Z
  M 312.46 285.83
  C 313.94 282.02 311.98 278.57 307.56 279.23
  A 0.63 0.58 87.3 0 0 307.06 279.82
  L 306.83 287.12
  A 0.86 0.83 -87.6 0 0 307.61 288.00
  Q 311.52 288.25 312.46 285.83
  Z"
/>
<rect fill="#000000" x="-2.06" y="-1.93" transform="translate(248.31,291.18) rotate(-0.6)" width="4.12" height="3.86" rx="0.48"/>
<path fill="#000000" d="
  M 255.99 292.66
  Q 253.81 288.13 259.08 289.32
  A 0.76 0.74 -88.4 0 1 259.65 289.94
  C 260.14 292.80 259.88 297.15 256.32 297.42
  A 0.74 0.58 -8.9 0 1 255.58 297.00
  C 255.33 296.12 257.78 295.53 257.64 293.68
  A 0.63 0.62 0.6 0 0 257.07 293.11
  L 256.63 293.08
  A 0.83 0.70 -6.8 0 1 255.99 292.66
  Z"
/>
<rect fill="#000000" x="-2.08" y="-1.95" transform="translate(325.68,291.19) rotate(0.3)" width="4.16" height="3.90" rx="0.56"/>
</svg>
