<?xml version="1.0" encoding="UTF-8" standalone="no"?>
<!DOCTYPE svg PUBLIC "-//W3C//DTD SVG 1.1//EN" "http://www.w3.org/Graphics/SVG/1.1/DTD/svg11.dtd">
<svg xmlns="http://www.w3.org/2000/svg" version="1.1" viewBox="0 0 600 300">
<path fill="#000000" d="
  M 15.31 111.82
  L 15.19 157.36
  A 0.86 0.84 -90.0 0 1 14.36 158.21
  L 8.66 158.24
  A 0.67 0.66 90.0 0 1 8.00 157.57
  L 8.00 104.93
  A 0.68 0.68 -89.6 0 1 8.68 104.25
  L 181.59 104.25
  A 0.93 0.92 -89.7 0 0 182.51 103.33
  L 182.68 65.68
  A 0.42 0.42 -89.3 0 0 182.26 65.25
  Q 97.04 65.25 11.84 65.25
  C 7.51 65.25 8.02 65.37 7.93 61.22
  Q 7.90 59.87 8.19 58.55
  A 0.65 0.63 6.1 0 1 8.82 58.06
  L 188.52 58.00
  A 0.73 0.73 -88.3 0 1 189.25 58.73
  L 189.19 110.80
  A 0.51 0.51 89.6 0 1 188.68 111.31
  L 15.82 111.32
  A 0.51 0.50 0.0 0 0 15.31 111.82
  Z"
/>
<path fill="#000000" d="
  M 289.81 65.81
  L 289.75 157.43
  A 0.82 0.82 0.0 0 1 288.93 158.25
  L 189.82 158.19
  A 0.63 0.62 -5.5 0 1 189.20 157.69
  Q 188.56 154.66 189.31 151.67
  A 0.64 0.63 6.9 0 1 189.93 151.19
  L 281.19 151.19
  A 0.76 0.75 90.0 0 0 281.94 150.43
  L 281.75 59.13
  A 1.13 1.13 -89.4 0 1 282.88 58.00
  L 380.96 58.00
  A 1.00 0.92 -89.1 0 1 381.88 59.03
  L 381.76 64.40
  A 0.81 0.76 -89.2 0 1 381.00 65.19
  L 290.32 65.31
  A 0.51 0.50 -0.0 0 0 289.81 65.81
  Z"
/>
<path fill="#000000" d="
  M 416.74 150.75
  A 0.80 0.80 -10.9 0 0 417.48 151.25
  Q 501.50 151.25 585.50 151.37
  Q 587.39 151.37 588.90 151.07
  A 1.53 1.50 -5.5 0 1 590.73 152.55
  L 590.68 157.61
  A 0.68 0.65 0.4 0 1 590.00 158.25
  L 409.44 158.25
  A 0.69 0.69 0.0 0 1 408.75 157.56
  L 408.75 104.94
  A 0.69 0.69 0.0 0 1 409.44 104.25
  L 582.56 104.25
  A 0.94 0.94 0.1 0 0 583.50 103.31
  L 583.50 66.04
  A 1.06 1.06 85.0 0 0 582.26 65.00
  Q 580.39 65.32 578.50 65.32
  Q 494.50 65.25 410.03 65.25
  A 1.28 1.28 -89.8 0 1 408.75 63.97
  L 408.75 58.66
  A 0.66 0.66 -0.2 0 1 409.41 58.00
  L 590.13 58.00
  A 0.55 0.55 -89.5 0 1 590.68 58.56
  Q 590.52 83.18 590.74 108.04
  C 590.78 111.75 590.94 111.50 587.27 111.50
  Q 502.17 111.45 417.06 111.56
  A 0.49 0.49 89.4 0 0 416.57 112.06
  Q 416.87 129.40 416.76 146.74
  C 416.75 147.84 416.19 149.44 416.74 150.75
  Z"
/>
<path fill="#000000" d="
  M 434.14 202.97
  C 435.91 198.69 435.90 190.61 429.00 191.25
  Q 424.95 191.62 414.51 191.03
  A 0.72 0.67 -4.8 0 1 413.86 190.52
  Q 413.51 189.13 413.86 187.74
  A 0.68 0.67 5.7 0 1 414.49 187.23
  C 426.29 186.66 444.13 182.10 442.50 201.25
  C 441.79 209.57 432.88 209.43 425.32 209.49
  C 417.49 209.56 419.36 218.75 419.53 224.16
  A 0.87 0.86 -0.7 0 0 420.40 225.00
  L 440.44 225.06
  A 0.67 0.64 -7.4 0 1 441.08 225.53
  Q 441.58 227.36 441.09 229.20
  A 0.68 0.66 7.2 0 1 440.44 229.69
  Q 428.22 229.80 416.00 229.72
  C 408.95 229.67 412.85 214.30 413.94 210.19
  C 416.11 202.00 427.44 207.17 433.51 203.69
  A 1.46 1.45 86.3 0 0 434.14 202.97
  Z"
/>
<path fill="#000000" d="
  M 174.76 194.71
  C 179.80 198.49 178.77 207.64 175.94 212.19
  C 173.73 215.73 167.97 214.32 165.07 214.21
  A 0.77 0.72 -7.6 0 1 164.38 213.72
  C 163.07 210.08 169.14 212.43 171.59 210.05
  A 1.51 1.39 73.8 0 0 172.01 209.20
  Q 172.77 203.99 171.89 199.47
  Q 171.35 196.70 168.76 196.50
  L 162.07 195.98
  A 1.04 1.00 -87.7 0 0 160.99 197.01
  L 160.75 227.75
  A 0.62 0.49 -89.4 0 1 160.26 228.36
  L 156.33 228.37
  A 0.64 0.57 90.0 0 1 155.76 227.73
  L 155.93 193.68
  A 0.57 0.54 -2.9 0 1 156.44 193.14
  Q 165.30 192.31 173.54 194.15
  Q 174.21 194.30 174.76 194.71
  Z"
/>
<rect fill="#000000" x="182.00" y="193.00" width="6.00" height="35.50" rx="0.59"/>
<path fill="#000000" d="
  M 248.09 224.87
  C 253.31 224.35 259.37 227.23 260.18 219.74
  C 260.56 216.21 260.89 213.59 256.72 213.14
  Q 252.68 212.70 248.91 211.25
  A 1.57 1.39 -2.2 0 1 248.18 210.65
  C 245.60 206.42 244.15 197.21 249.39 194.24
  C 252.64 192.40 256.87 193.00 260.48 193.00
  C 262.87 193.00 263.79 192.62 263.11 195.62
  A 0.76 0.76 -80.9 0 1 262.30 196.21
  Q 257.67 195.80 253.64 197.28
  A 2.52 2.51 -1.1 0 0 252.14 198.83
  C 248.46 209.82 258.45 205.59 263.14 209.40
  C 266.33 212.00 266.59 218.61 265.50 222.25
  C 263.02 230.54 253.95 228.61 248.06 228.45
  A 0.55 0.50 0.6 0 1 247.52 227.95
  L 247.55 225.43
  A 0.60 0.57 -2.3 0 1 248.09 224.87
  Z"
/>
<rect fill="#000000" x="-3.00" y="-2.38" transform="translate(333.51,195.37) rotate(-0.9)" width="6.00" height="4.76" rx="0.80"/>
<path fill="#000000" d="
  M 277.65 219.86
  C 277.51 222.79 277.84 225.38 281.51 224.84
  A 0.56 0.42 -5.2 0 1 282.14 225.23
  L 282.14 227.98
  A 0.57 0.52 0.5 0 1 281.56 228.50
  L 275.55 228.44
  Q 273.65 228.42 272.94 226.57
  Q 271.60 223.07 271.69 219.34
  C 271.88 211.84 271.74 204.31 271.81 196.81
  A 0.62 0.61 84.3 0 1 272.30 196.20
  Q 274.64 195.69 277.01 196.14
  A 0.75 0.58 7.3 0 1 277.62 196.75
  L 277.52 200.73
  A 0.75 0.65 -89.2 0 0 278.17 201.50
  L 283.25 201.50
  A 0.89 0.77 -11.9 0 1 284.01 201.92
  Q 284.54 202.92 284.19 204.03
  A 0.77 0.67 -78.8 0 1 283.50 204.56
  L 279.26 204.40
  A 1.59 1.45 -0.4 0 0 277.61 205.93
  Q 277.98 212.55 277.65 219.86
  Z"
/>
<path fill="#000000" d="
  M 319.80 223.43
  Q 321.60 225.18 324.02 224.84
  A 0.53 0.44 -6.3 0 1 324.62 225.23
  L 324.75 227.94
  A 0.58 0.49 -3.2 0 1 324.19 228.46
  C 318.98 228.69 314.26 229.51 314.24 222.50
  Q 314.21 209.66 314.31 196.81
  A 0.68 0.68 81.3 0 1 314.78 196.16
  Q 321.11 194.22 319.25 200.76
  A 0.59 0.58 8.3 0 0 319.81 201.50
  L 325.18 201.54
  A 0.75 0.73 -9.0 0 1 325.87 202.03
  C 327.35 205.98 322.38 204.36 320.00 204.68
  A 0.58 0.57 -4.0 0 0 319.50 205.25
  L 319.44 222.55
  A 1.20 1.19 -67.5 0 0 319.80 223.43
  Z"
/>
<path fill="#000000" d="
  M 342.75 209.00
  C 343.78 202.86 347.45 201.10 353.13 200.76
  Q 363.38 200.16 365.03 211.00
  C 365.69 215.35 365.48 222.52 362.30 225.78
  C 358.89 229.28 351.22 228.94 347.06 227.44
  C 341.17 225.31 341.93 213.86 342.75 209.00
  Z
  M 351.31 205.55
  Q 348.97 207.55 348.74 208.50
  C 347.51 213.42 346.75 230.36 357.23 223.16
  A 3.76 3.73 80.5 0 0 358.73 221.04
  C 359.82 216.98 360.79 203.80 353.39 204.65
  A 3.85 3.84 21.5 0 0 351.31 205.55
  Z"
/>
<path fill="#000000" d="
  M 208.95 223.93
  Q 209.03 218.06 209.02 212.18
  C 209.00 204.92 206.51 203.97 199.74 205.25
  Q 197.49 205.68 196.71 203.52
  Q 196.67 203.42 197.15 202.03
  A 0.70 0.69 9.3 0 1 197.81 201.56
  C 203.95 201.51 214.29 198.72 214.42 208.75
  Q 214.55 217.97 214.69 226.99
  A 0.64 0.64 84.6 0 1 214.17 227.62
  Q 204.84 229.43 196.50 226.75
  C 193.02 225.63 193.01 220.25 193.47 217.25
  C 194.30 211.95 201.08 211.21 205.24 211.46
  A 0.77 0.72 -6.5 0 1 205.92 211.97
  Q 206.29 213.16 205.96 214.35
  A 0.74 0.65 4.5 0 1 205.30 214.84
  Q 196.45 215.41 200.82 223.26
  A 1.28 1.21 -4.9 0 0 201.55 223.84
  Q 204.92 224.84 208.44 224.49
  A 0.57 0.57 87.8 0 0 208.95 223.93
  Z"
/>
<path fill="#000000" d="
  M 295.28 224.05
  L 301.06 224.68
  A 0.92 0.85 -87.2 0 0 302.00 223.76
  C 302.00 219.71 302.90 210.39 301.15 207.19
  C 299.11 203.45 294.64 204.94 291.10 205.29
  A 0.71 0.70 -10.7 0 1 290.35 204.78
  Q 289.81 202.79 290.21 201.90
  A 0.92 0.66 9.4 0 1 291.00 201.51
  C 299.15 201.73 306.85 198.41 307.34 210.30
  Q 307.67 218.18 307.48 226.77
  A 1.00 0.99 -4.7 0 1 306.67 227.72
  C 302.04 228.59 288.13 229.58 286.52 223.49
  C 284.17 214.57 289.25 211.33 297.25 211.28
  Q 299.33 211.27 298.87 214.41
  A 0.67 0.67 1.6 0 1 298.27 214.97
  C 293.96 215.39 291.24 216.11 292.83 221.69
  Q 293.45 223.85 295.28 224.05
  Z"
/>
<path fill="#000000" d="
  M 371.19 202.44
  A 0.98 0.97 0.9 0 1 372.19 201.48
  Q 379.26 201.65 385.50 201.34
  Q 391.29 201.05 392.25 206.75
  Q 392.90 210.63 392.45 227.94
  A 0.53 0.51 -89.4 0 1 391.94 228.46
  L 387.63 228.49
  A 0.65 0.63 90.0 0 1 387.00 227.84
  Q 387.00 219.75 387.03 211.75
  C 387.06 204.98 383.41 203.79 377.54 205.43
  A 0.67 0.65 82.6 0 0 377.06 206.07
  L 377.00 227.96
  A 0.65 0.63 0.4 0 1 376.34 228.59
  L 371.90 228.52
  A 0.92 0.86 1.0 0 1 371.00 227.65
  L 371.19 202.44
  Z"
/>
<path fill="#000000" d="
  M 227.08 227.28
  L 217.94 202.42
  A 0.68 0.68 79.8 0 1 218.58 201.50
  L 223.65 201.50
  A 0.72 0.71 -9.0 0 1 224.33 201.99
  L 229.94 219.62
  Q 230.46 221.28 231.10 219.65
  L 237.99 202.14
  A 0.86 0.68 -76.4 0 1 238.68 201.60
  L 242.72 201.63
  A 0.57 0.54 -77.3 0 1 243.19 202.42
  L 226.49 241.35
  A 0.99 0.93 -78.4 0 1 225.63 241.95
  L 222.46 242.01
  A 0.68 0.66 -79.1 0 1 221.85 241.07
  L 227.07 228.21
  A 1.33 1.31 46.1 0 0 227.08 227.28
  Z"
/>
<rect fill="#000000" x="330.50" y="201.50" width="6.00" height="27.00" rx="0.59"/>
<path fill="#000000" d="
  M 405.25 219.71
  C 403.81 219.41 401.79 217.53 400.75 220.00
  C 398.19 219.17 396.41 227.57 403.69 227.69
  Q 404.21 227.70 403.73 227.90
  Q 400.32 229.36 398.44 226.31
  C 394.07 219.23 404.94 214.13 407.40 221.62
  C 407.61 222.28 408.34 223.38 407.69 224.11
  Q 407.34 224.51 407.25 223.94
  Q 406.86 221.53 405.25 219.71
  Z"
/>
<path fill="#000000" d="
  M 400.75 220.00
  L 404.46 220.00
  Q 405.42 222.45 405.13 225.07
  A 0.69 0.56 -86.8 0 1 404.58 225.67
  Q 403.93 225.69 403.91 224.82
  A 1.00 0.69 -82.0 0 0 403.52 224.04
  Q 402.09 223.30 401.16 225.27
  Q 400.78 226.07 400.62 225.20
  Q 400.17 222.77 400.75 220.00
  Z
  M 402.93 222.87
  A 0.91 0.90 -85.7 0 0 403.95 221.99
  C 404.00 219.63 398.58 222.33 402.93 222.87
  Z"
/>
</svg>
