<?xml version="1.0" encoding="UTF-8" standalone="no"?>
<!DOCTYPE svg PUBLIC "-//W3C//DTD SVG 1.1//EN" "http://www.w3.org/Graphics/SVG/1.1/DTD/svg11.dtd">
<svg xmlns="http://www.w3.org/2000/svg" version="1.1" viewBox="0 0 600 300">
<path fill="#000000" d="
  M 474.35 83.11
  C 483.93 71.36 500.22 72.35 508.94 84.56
  C 518.41 97.83 521.64 115.05 524.75 132.75
  Q 525.41 136.49 524.78 138.17
  Q 522.21 145.13 515.31 141.94
  C 511.87 140.34 510.88 127.82 510.06 123.66
  A 1.62 1.61 -7.6 0 0 508.35 122.36
  Q 504.73 122.63 500.50 122.46
  Q 486.62 121.89 473.14 122.48
  A 1.23 1.22 -86.4 0 0 472.00 123.49
  C 471.35 127.35 470.80 135.88 468.38 138.77
  C 464.68 143.18 456.61 140.24 457.25 134.50
  C 459.10 117.91 463.93 95.89 474.35 83.11
  Z
  M 506.32 108.45
  C 504.24 102.43 499.03 87.58 490.62 88.13
  C 482.92 88.63 477.40 102.93 475.63 108.96
  A 0.43 0.42 8.2 0 0 476.04 109.50
  L 505.57 109.50
  A 0.79 0.79 -8.7 0 0 506.32 108.45
  Z"
/>
<path fill="#000000" d="
  M 439.95 120.05
  C 432.25 119.94 420.24 121.53 416.68 117.56
  C 412.89 113.30 415.64 106.35 421.84 106.18
  Q 428.63 106.00 445.75 106.25
  C 453.46 106.36 453.65 110.83 453.64 117.34
  Q 453.60 138.17 433.25 144.00
  C 425.27 146.29 414.83 146.14 407.04 143.43
  C 379.16 133.74 376.99 86.38 406.70 77.58
  Q 424.35 72.35 440.32 80.04
  C 445.84 82.70 453.29 87.26 447.84 94.11
  C 444.27 98.59 440.84 95.84 436.59 93.36
  Q 423.43 85.66 408.19 91.94
  C 399.17 95.65 397.35 104.66 398.71 113.72
  Q 401.11 129.77 417.25 131.49
  C 425.59 132.39 438.57 130.57 440.35 120.56
  A 0.43 0.42 -84.1 0 0 439.95 120.05
  Z"
/>
<path fill="#000000" d="
  M 263.57 107.07
  C 256.17 94.06 268.60 80.40 281.08 78.69
  C 293.64 76.97 306.44 79.25 318.51 82.71
  C 323.29 84.08 325.43 88.91 322.42 92.99
  C 320.00 96.29 316.68 95.62 312.85 94.56
  C 303.58 92.00 279.90 86.36 274.47 97.97
  Q 273.76 99.50 274.81 100.83
  C 276.91 103.50 278.51 104.48 282.12 104.52
  C 292.11 104.63 316.38 103.55 322.63 111.90
  C 330.56 122.49 326.37 137.27 314.00 141.50
  C 301.63 145.73 285.54 144.50 272.81 141.69
  C 261.99 139.30 264.76 126.37 275.25 129.03
  Q 292.83 133.49 309.50 129.50
  C 317.10 127.68 312.87 119.25 306.57 118.51
  Q 296.88 117.38 288.50 117.50
  C 278.18 117.65 269.04 116.68 263.57 107.07
  Z"
/>
<path fill="#000000" d="
  M 51.44 186.24
  Q 52.29 186.15 51.77 185.47
  Q 45.83 177.56 42.16 170.02
  A 0.71 0.69 72.3 0 0 41.44 169.63
  C 32.19 171.01 12.73 173.84 6.83 165.58
  C -8.48 144.11 26.90 123.59 41.88 116.60
  A 4.40 4.37 1.0 0 0 43.89 114.67
  C 61.95 79.67 103.89 68.17 137.61 88.42
  A 2.07 2.05 56.5 0 0 138.92 88.69
  Q 158.17 86.12 177.50 87.75
  C 186.21 88.48 187.17 104.08 173.66 102.95
  Q 164.41 102.18 154.84 102.78
  Q 153.56 102.85 154.36 103.86
  Q 159.12 109.89 162.07 116.20
  A 1.30 1.30 70.0 0 0 163.59 116.91
  Q 172.94 114.31 182.28 114.72
  Q 184.73 114.82 186.96 115.86
  C 194.26 119.27 201.63 126.33 201.11 134.96
  C 200.08 152.29 176.79 164.67 163.57 171.19
  Q 162.14 171.89 161.39 173.29
  C 142.89 207.35 103.17 220.20 69.12 200.38
  A 2.61 2.56 -33.5 0 0 67.41 200.05
  C 54.24 201.94 40.70 203.35 27.72 201.20
  C 14.67 199.04 18.20 181.72 30.44 185.56
  C 36.45 187.45 45.35 186.94 51.44 186.24
  Z
  M 157.54 117.54
  C 146.82 94.42 122.22 81.24 97.63 83.26
  C 62.24 86.17 37.55 117.92 42.20 152.62
  A 0.98 0.98 78.8 0 0 43.42 153.44
  C 81.82 143.54 118.97 130.08 156.98 118.76
  A 0.89 0.88 -20.5 0 0 157.54 117.54
  Z
  M 181.41 130.60
  A 4.72 3.40 47.4 0 0 178.78 130.06
  L 168.24 131.60
  A 1.34 1.27 80.4 0 0 167.19 133.16
  Q 168.84 141.96 167.76 150.42
  Q 167.65 151.30 168.43 150.89
  Q 176.82 146.40 182.86 139.37
  C 186.08 135.62 185.97 133.00 181.41 130.60
  Z
  M 46.89 169.06
  C 57.60 192.38 81.43 206.52 106.79 204.80
  C 141.04 202.48 165.46 173.17 163.55 139.50
  Q 163.37 136.33 162.46 133.39
  A 0.80 0.80 73.6 0 0 161.48 132.85
  C 123.07 143.74 80.01 159.56 47.43 167.94
  A 0.81 0.81 -19.4 0 0 46.89 169.06
  Z
  M 37.52 153.39
  Q 36.67 145.43 37.39 137.57
  Q 37.48 136.58 36.62 137.08
  C 30.62 140.60 21.10 147.14 19.00 154.02
  Q 18.40 155.97 20.44 156.02
  Q 27.82 156.19 36.61 154.59
  A 1.11 1.11 -7.9 0 0 37.52 153.39
  Z"
/>
<path fill="#000000" d="
  M 343.56 117.07
  L 343.32 127.28
  A 0.95 0.92 -89.4 0 0 344.24 128.25
  Q 359.34 128.25 374.43 128.25
  Q 377.57 128.25 379.00 128.82
  C 384.56 131.04 384.00 138.71 378.56 140.75
  Q 377.22 141.25 374.37 141.25
  Q 356.98 141.25 339.58 141.25
  C 333.75 141.25 330.50 139.61 330.50 133.48
  Q 330.50 109.62 330.60 85.75
  C 330.63 79.26 336.53 78.68 341.75 78.76
  Q 357.88 79.00 374.00 79.00
  C 386.17 79.00 385.17 92.11 375.50 92.08
  Q 359.84 92.05 344.19 91.94
  A 0.53 0.49 0.0 0 0 343.66 92.43
  L 343.53 103.00
  A 0.77 0.74 0.4 0 0 344.30 103.75
  Q 356.25 103.75 367.25 103.66
  C 373.95 103.61 376.64 112.20 370.94 115.47
  Q 369.13 116.50 365.36 116.49
  Q 354.71 116.47 344.07 116.56
  A 0.53 0.51 -88.8 0 0 343.56 117.07
  Z"
/>
<path fill="#000000" d="
  M 207.50 203.25
  C 215.40 204.99 241.26 208.81 246.51 201.87
  C 249.32 198.15 244.55 193.97 241.25 193.00
  Q 238.80 192.28 228.75 192.27
  C 221.72 192.27 211.64 192.74 205.42 189.52
  C 196.86 185.10 192.41 175.17 196.81 166.31
  C 206.75 146.30 235.36 152.42 252.01 157.20
  C 261.78 160.01 257.48 172.48 247.97 169.59
  C 239.83 167.11 212.37 160.62 208.42 172.10
  C 207.19 175.69 211.18 178.92 214.25 179.00
  Q 225.63 179.30 237.00 179.80
  Q 245.40 180.17 250.50 182.25
  C 257.69 185.18 261.23 193.66 260.10 200.98
  C 257.56 217.47 241.13 218.59 227.87 218.69
  Q 216.58 218.77 205.57 215.90
  C 195.99 213.41 199.26 201.43 207.50 203.25
  Z"
/>
<path fill="#000000" d="
  M 262.50 212.25
  C 264.94 195.30 272.06 155.53 294.83 153.96
  C 311.73 152.78 320.01 170.57 324.08 184.48
  Q 329.53 203.07 330.50 214.25
  C 331.30 223.40 319.16 224.69 317.75 216.00
  Q 316.64 209.20 315.24 202.05
  A 0.92 0.92 84.2 0 0 314.34 201.31
  L 278.73 201.25
  A 1.32 1.32 -84.1 0 0 277.44 202.30
  C 276.57 206.35 276.11 214.52 273.77 217.53
  C 269.76 222.68 261.55 218.87 262.50 212.25
  Z
  M 299.65 167.89
  C 289.96 162.96 282.79 181.01 281.09 187.66
  A 0.67 0.67 7.3 0 0 281.74 188.50
  L 310.83 188.50
  A 0.75 0.75 0.0 0 0 311.55 187.54
  C 309.63 180.92 305.73 170.97 299.65 167.89
  Z"
/>
<path fill="#000000" d="
  M 506.40 197.44
  Q 513.33 202.17 520.96 207.28
  C 526.60 211.07 523.65 219.30 517.27 219.02
  Q 515.04 218.92 511.80 216.78
  Q 488.98 201.68 481.56 196.19
  C 477.45 193.15 478.10 188.16 482.40 185.83
  C 485.52 184.14 488.94 185.20 491.93 185.29
  C 496.55 185.43 512.55 184.73 507.53 175.38
  C 502.72 166.41 478.66 167.07 470.27 167.90
  A 0.86 0.85 -3.0 0 0 469.50 168.75
  Q 469.50 189.87 469.50 210.54
  Q 469.50 214.05 468.51 215.77
  C 466.23 219.72 459.81 220.22 457.16 216.60
  Q 455.76 214.70 455.71 210.56
  Q 455.40 186.94 455.77 163.32
  C 455.88 156.25 459.51 155.95 465.28 155.36
  C 480.28 153.83 518.50 153.08 521.75 173.70
  C 523.46 184.52 517.44 193.55 506.61 196.29
  Q 505.22 196.64 506.40 197.44
  Z"
/>
<path fill="#000000" d="
  M 386.24 159.27
  C 388.81 154.99 394.72 154.12 397.32 158.73
  C 399.58 162.73 398.25 179.40 398.25 184.75
  Q 398.25 193.83 399.76 197.57
  Q 403.61 207.05 416.00 207.21
  C 425.66 207.34 433.90 207.20 437.88 197.54
  Q 439.25 194.22 439.25 187.75
  Q 439.25 175.25 439.25 162.75
  C 439.25 153.87 451.76 152.47 452.10 163.40
  Q 452.55 178.20 452.02 193.00
  C 451.67 202.85 445.68 211.85 437.24 216.52
  C 427.89 221.70 410.56 221.93 400.83 216.74
  C 389.06 210.47 385.51 200.32 385.49 187.37
  Q 385.46 174.43 385.50 161.93
  A 5.18 5.14 -29.7 0 1 386.24 159.27
  Z"
/>
<path fill="#000000" d="
  M 544.08 161.73
  Q 560.97 178.94 577.51 196.51
  Q 578.72 197.80 578.67 196.03
  Q 578.24 180.41 578.66 164.24
  Q 578.77 160.25 579.90 158.51
  C 582.13 155.09 588.01 155.30 590.52 158.60
  Q 591.75 160.21 591.75 163.24
  Q 591.75 189.13 591.75 215.23
  A 1.63 1.62 -25.4 0 1 591.38 216.26
  C 585.17 223.75 580.98 218.43 575.90 213.18
  Q 559.56 196.31 543.03 179.15
  Q 542.04 178.12 542.08 179.55
  Q 542.53 195.45 542.09 211.97
  C 541.80 222.76 529.51 222.05 529.44 213.25
  Q 529.25 188.00 529.31 162.75
  C 529.32 155.52 537.64 153.99 541.77 158.97
  Q 544.00 161.65 544.08 161.73
  Z"
/>
<path fill="#000000" d="
  M 326.01 169.95
  C 317.16 170.19 315.59 157.18 325.73 156.96
  Q 350.57 156.43 375.41 156.95
  C 385.95 157.17 384.80 170.15 375.53 169.81
  C 369.95 169.60 364.21 169.75 358.38 169.75
  A 0.89 0.89 -89.3 0 0 357.49 170.62
  Q 357.07 190.48 357.24 210.70
  C 357.26 212.90 357.55 214.98 356.63 217.02
  C 353.35 224.29 344.57 220.98 344.46 213.46
  Q 344.16 193.71 344.55 171.66
  A 1.83 1.83 -89.2 0 0 342.74 169.80
  Q 334.97 169.70 326.01 169.95
  Z"
/>
</svg>
