<?xml version="1.0" encoding="UTF-8" standalone="no"?>
<!DOCTYPE svg PUBLIC "-//W3C//DTD SVG 1.1//EN" "http://www.w3.org/Graphics/SVG/1.1/DTD/svg11.dtd">
<svg xmlns="http://www.w3.org/2000/svg" version="1.1" viewBox="0 0 600 300">
<path fill="#000000" d="
  M 225.57 139.53
  Q 225.08 140.53 226.17 140.28
  C 234.29 138.36 242.30 133.86 245.49 126.10
  C 249.97 115.20 240.98 107.70 235.12 99.40
  A 1.88 1.86 -50.4 0 1 234.95 97.51
  C 238.05 91.00 249.92 87.09 257.00 84.00
  C 268.80 78.85 278.03 72.22 278.44 58.00
  C 278.79 45.88 269.50 41.00 258.83 40.14
  C 218.29 36.90 182.30 76.52 166.35 109.58
  C 161.88 118.85 159.41 129.07 161.43 139.26
  C 164.75 156.06 182.16 152.19 189.69 141.69
  Q 198.68 129.13 204.81 113.06
  Q 211.62 95.20 224.81 73.81
  C 231.30 63.29 239.85 55.12 252.40 52.73
  Q 254.03 52.42 255.92 53.49
  A 1.11 1.10 -50.6 0 1 256.09 55.29
  Q 253.73 57.30 251.16 58.96
  Q 242.66 64.45 237.77 73.34
  C 228.14 90.85 220.20 109.50 211.94 127.69
  C 205.74 141.34 191.96 158.18 175.38 157.73
  C 156.40 157.22 145.08 139.70 148.93 121.98
  Q 154.85 94.70 173.66 74.16
  C 198.11 47.48 237.37 27.15 274.25 36.50
  C 294.44 41.62 299.92 64.22 287.06 79.06
  C 281.66 85.30 276.16 86.69 266.54 89.94
  Q 255.07 93.82 243.95 97.36
  Q 241.76 98.06 243.73 99.24
  C 249.95 102.96 256.65 108.01 258.26 115.50
  C 261.81 132.07 248.36 142.79 234.00 146.25
  C 228.25 147.64 219.94 147.47 215.58 143.26
  C 211.64 139.45 211.91 130.84 218.27 129.02
  C 224.45 127.24 227.93 134.72 225.57 139.53
  Z"
/>
<path fill="#000000" d="
  M 303.25 136.24
  C 308.06 139.54 316.08 132.42 319.34 129.05
  A 1.26 1.23 67.6 0 0 319.69 128.18
  Q 319.77 115.57 321.00 111.00
  Q 329.57 79.08 351.16 54.16
  C 355.98 48.60 363.29 41.86 370.50 41.03
  C 380.42 39.88 380.28 50.15 378.60 56.91
  C 372.30 82.15 353.78 109.09 333.87 126.58
  Q 332.55 127.75 333.07 129.43
  C 337.24 142.87 349.90 136.04 355.63 128.83
  A 1.54 1.44 67.2 0 0 355.96 127.94
  C 357.34 102.18 373.47 77.07 392.81 61.06
  C 395.94 58.47 402.19 56.03 405.32 59.93
  C 408.31 63.65 406.79 71.78 405.35 76.07
  C 399.23 94.32 387.08 114.40 370.94 125.43
  Q 369.53 126.40 369.71 128.09
  Q 370.31 133.96 375.75 134.50
  C 382.90 135.21 389.08 126.06 391.73 120.65
  C 396.86 110.15 402.90 99.97 409.25 90.02
  A 3.34 3.28 -82.1 0 1 411.04 88.64
  Q 415.98 87.08 420.66 88.64
  A 1.03 1.03 20.4 0 1 421.29 90.01
  Q 420.32 92.33 418.74 94.97
  Q 411.20 107.58 404.81 120.81
  Q 402.75 125.07 402.00 129.77
  Q 401.52 132.76 404.55 132.75
  Q 410.04 132.72 413.98 127.47
  Q 427.29 109.75 434.81 92.31
  C 436.73 87.87 442.44 89.09 446.24 89.53
  Q 448.47 89.79 447.48 91.80
  Q 428.23 130.93 408.65 171.16
  C 406.50 175.58 405.27 178.73 400.92 181.49
  A 1.34 1.33 -57.0 0 1 400.01 181.69
  C 392.13 180.63 394.23 174.71 396.79 169.76
  Q 405.00 153.84 413.70 138.17
  Q 415.04 135.76 412.98 137.61
  C 406.22 143.71 393.55 148.76 389.57 135.91
  Q 389.30 135.06 388.71 135.72
  C 380.79 144.45 365.49 153.28 357.78 138.00
  A 0.90 0.89 53.6 0 0 356.34 137.78
  C 347.72 146.69 329.76 155.89 321.92 139.77
  A 1.11 1.10 54.5 0 0 320.15 139.47
  C 311.70 147.92 295.04 155.31 288.44 139.56
  A 0.99 0.99 53.5 0 0 286.77 139.31
  C 281.96 145.09 272.92 149.78 265.85 145.80
  C 257.87 141.32 259.48 127.45 262.56 120.63
  C 266.73 111.40 273.60 102.61 281.30 96.45
  C 288.55 90.66 300.41 84.52 310.00 87.00
  C 317.90 89.04 316.77 100.83 307.75 100.52
  Q 303.61 100.38 301.66 95.71
  A 1.72 1.72 70.7 0 0 299.61 94.72
  C 288.74 97.78 280.39 109.13 275.69 119.19
  C 273.84 123.13 270.64 133.40 274.54 136.56
  C 281.85 142.48 298.52 111.24 300.89 106.64
  A 3.26 3.24 6.8 0 1 303.01 104.98
  Q 307.53 103.89 312.48 105.39
  A 1.33 1.32 21.3 0 1 313.29 107.23
  Q 307.10 120.04 302.38 133.59
  Q 301.80 135.25 303.25 136.24
  Z
  M 368.25 50.00
  C 357.88 56.87 349.44 71.46 343.69 83.14
  Q 336.11 98.51 332.84 116.09
  Q 332.47 118.11 333.82 116.57
  Q 352.61 95.19 364.35 69.51
  C 367.64 62.30 369.78 57.74 371.00 51.25
  Q 371.66 47.74 368.25 50.00
  Z
  M 369.94 117.12
  C 383.51 105.46 390.79 91.62 397.21 75.24
  Q 398.16 72.82 398.50 70.25
  Q 399.04 66.12 395.31 68.56
  Q 393.20 69.94 391.58 71.84
  Q 378.59 87.08 371.90 105.87
  C 370.70 109.25 370.00 112.99 369.14 116.63
  Q 368.80 118.11 369.94 117.12
  Z"
/>
<path fill="#000000" d="
  M 474.73 240.37
  Q 472.10 239.17 471.30 236.29
  A 1.38 1.34 -80.7 0 0 470.77 235.53
  C 469.10 234.35 468.56 233.83 467.71 231.74
  Q 466.71 229.26 463.82 228.97
  A 0.58 0.54 2.4 0 1 463.30 228.44
  L 463.00 194.28
  A 1.55 1.55 2.0 0 1 464.67 192.73
  Q 468.20 192.98 467.25 190.00
  Q 466.24 186.83 468.75 187.25
  Q 472.87 187.93 471.60 184.06
  Q 470.93 182.01 473.05 182.41
  Q 476.43 183.06 475.72 179.88
  Q 475.27 177.83 477.36 177.97
  Q 480.37 178.18 479.70 175.29
  A 1.03 1.03 0.2 0 1 480.94 174.06
  Q 482.79 174.50 483.61 173.81
  A 1.22 0.68 79.2 0 0 483.90 172.94
  C 483.80 169.35 488.11 173.04 489.51 169.91
  A 0.85 0.72 -76.4 0 1 490.19 169.41
  L 503.91 169.26
  A 0.78 0.77 0.4 0 1 504.69 170.04
  L 504.58 190.57
  A 0.53 0.52 89.4 0 1 504.07 191.10
  L 495.50 191.27
  A 1.64 1.57 -4.9 0 0 493.90 193.09
  C 494.79 198.84 488.50 192.64 489.55 198.53
  Q 489.94 200.70 487.76 200.30
  C 484.29 199.66 485.03 201.59 484.98 203.78
  Q 484.82 212.24 485.29 220.69
  A 0.78 0.78 -80.0 0 0 485.77 221.38
  L 488.59 222.50
  A 1.18 1.06 3.6 0 1 489.24 223.16
  L 490.04 225.58
  A 0.92 0.90 -2.2 0 0 490.69 226.17
  Q 493.48 226.86 494.63 229.48
  A 1.16 1.01 84.2 0 0 495.29 230.10
  C 498.20 231.00 504.43 231.75 506.24 228.15
  A 1.70 1.61 -4.1 0 1 506.88 227.45
  Q 508.37 226.52 508.50 224.50
  Q 509.12 214.47 509.00 207.25
  Q 508.54 179.78 508.81 152.68
  A 0.94 0.93 -89.4 0 1 509.75 151.75
  Q 517.51 151.79 525.06 151.70
  C 528.68 151.66 531.56 149.49 530.79 155.41
  C 530.57 157.17 530.25 158.77 530.25 160.54
  Q 530.11 197.14 530.50 233.57
  A 1.20 1.20 6.4 0 1 529.02 234.75
  Q 525.74 233.99 526.61 237.74
  Q 527.12 239.94 524.87 239.80
  Q 521.46 239.60 521.83 242.98
  A 1.09 1.09 79.1 0 1 521.04 244.15
  Q 518.54 244.83 518.05 246.19
  Q 517.83 246.79 517.59 247.03
  Q 513.75 250.80 512.56 251.31
  Q 499.94 256.77 487.41 251.80
  C 485.08 250.87 483.53 248.99 481.02 247.88
  A 1.57 1.15 81.2 0 1 480.37 247.23
  L 479.45 245.49
  A 1.50 0.94 7.4 0 0 478.72 244.89
  Q 476.10 243.84 475.31 241.05
  A 1.09 1.05 -86.7 0 0 474.73 240.37
  Z"
/>
<path fill="#000000" d="
  M 196.20 179.60
  Q 196.96 179.93 198.25 179.75
  Q 200.86 179.38 200.25 182.00
  Q 199.49 185.26 203.21 184.39
  Q 205.21 183.93 205.22 185.94
  L 205.25 191.51
  A 1.00 0.99 -0.0 0 1 204.25 192.50
  L 193.20 192.50
  A 0.94 0.92 0.0 0 0 192.26 193.42
  L 192.48 221.75
  A 1.29 1.26 0.5 0 0 193.74 223.00
  Q 197.01 223.09 196.29 226.30
  A 0.79 0.78 9.1 0 0 196.98 227.25
  Q 198.98 227.45 200.19 228.86
  A 1.20 0.91 -67.2 0 1 200.41 229.73
  C 200.09 232.15 202.28 231.50 203.58 231.72
  Q 207.10 232.29 210.68 232.31
  A 0.54 0.54 88.3 0 1 211.22 232.82
  Q 211.90 242.54 211.23 252.60
  A 1.83 1.81 89.1 0 1 209.61 254.29
  Q 201.11 255.23 191.81 252.01
  A 4.87 4.82 79.4 0 1 189.69 250.54
  Q 188.88 249.56 187.50 249.31
  A 1.67 1.01 -5.7 0 1 186.64 248.90
  Q 185.87 248.06 185.71 246.98
  A 1.46 1.46 -88.6 0 0 184.55 245.76
  C 180.47 244.97 183.91 239.93 179.50 240.75
  Q 177.27 241.16 177.75 238.50
  Q 178.03 236.94 177.05 235.90
  A 1.49 0.88 -8.0 0 0 176.19 235.54
  C 172.66 235.22 175.75 230.00 170.80 229.57
  A 0.60 0.60 0.7 0 1 170.25 229.02
  C 169.30 217.24 170.34 205.21 169.47 193.31
  A 0.65 0.64 3.5 0 0 168.94 192.72
  Q 162.84 191.67 160.00 192.25
  C 155.69 193.13 157.64 188.55 157.15 186.24
  Q 156.64 183.80 159.08 184.35
  Q 163.14 185.26 162.65 181.16
  A 1.13 1.12 -86.8 0 1 164.02 179.93
  Q 167.44 180.74 166.88 177.04
  A 0.91 0.91 86.3 0 1 167.80 175.99
  Q 169.83 176.03 169.63 174.72
  C 169.11 171.38 169.50 167.06 169.50 163.25
  A 1.00 1.00 0.0 0 1 170.50 162.25
  L 190.65 162.25
  A 1.20 1.18 -89.8 0 1 191.83 163.46
  L 191.76 174.95
  A 1.36 1.35 -6.3 0 0 193.42 176.27
  Q 195.86 175.72 195.71 178.82
  A 0.80 0.80 13.1 0 0 196.20 179.60
  Z"
/>
<path fill="#000000" d="
  M 562.28 225.59
  L 565.01 226.81
  A 0.84 0.65 -80.3 0 1 565.40 227.55
  Q 565.38 229.10 566.44 230.12
  A 1.27 1.27 67.5 0 0 567.30 230.48
  L 577.27 230.75
  A 1.01 0.95 0.9 0 1 578.25 231.70
  L 578.25 250.81
  Q 578.25 253.10 575.96 253.20
  Q 569.39 253.48 563.78 252.76
  C 561.41 252.45 559.58 250.87 557.05 250.29
  A 1.28 1.23 78.5 0 1 556.30 249.77
  Q 555.05 247.94 553.25 247.65
  A 1.53 1.51 86.7 0 1 552.02 246.54
  Q 551.36 244.04 549.72 243.94
  C 548.12 243.84 546.77 243.78 547.75 241.50
  Q 548.88 238.86 545.75 239.50
  Q 542.31 240.20 543.25 237.00
  Q 544.12 234.03 541.75 234.50
  C 535.68 235.69 542.19 227.32 536.46 228.93
  A 1.33 1.30 -8.1 0 1 534.77 227.69
  L 534.55 193.57
  A 1.21 1.17 4.7 0 1 535.96 192.41
  Q 539.35 192.99 538.57 189.09
  Q 538.11 186.86 540.38 187.14
  Q 543.82 187.58 543.00 183.00
  A 1.46 1.12 4.2 0 1 544.81 181.81
  Q 546.26 182.14 547.12 181.32
  A 1.18 0.81 71.5 0 0 547.37 180.44
  Q 547.07 177.29 550.19 177.18
  A 0.88 0.73 10.0 0 0 550.93 176.76
  Q 551.48 175.63 551.37 174.31
  A 0.45 0.44 88.2 0 1 551.81 173.83
  Q 554.15 173.82 555.52 171.98
  Q 555.86 171.54 556.27 171.35
  Q 565.47 167.25 577.03 168.98
  A 1.13 1.13 4.1 0 1 578.00 170.10
  L 578.00 189.96
  A 0.83 0.79 -1.1 0 1 577.20 190.75
  L 566.33 191.24
  A 0.92 0.87 89.0 0 0 565.50 192.15
  Q 565.47 195.09 562.86 195.42
  A 1.31 1.31 1.8 0 0 561.72 196.49
  Q 560.94 200.90 564.25 200.25
  Q 566.62 199.79 577.76 200.47
  A 0.54 0.52 1.8 0 1 578.27 200.99
  L 578.47 219.72
  A 1.56 1.51 -0.4 0 1 576.91 221.25
  Q 570.38 221.25 564.50 221.21
  Q 560.12 221.17 561.62 224.98
  A 1.34 0.86 10.1 0 0 562.28 225.59
  Z"
/>
<path fill="#000000" d="
  M 334.30 182.73
  Q 338.14 183.16 338.75 186.94
  A 0.77 0.75 -87.1 0 0 339.29 187.55
  C 343.71 188.78 341.11 194.03 344.23 193.56
  A 1.54 1.53 84.3 0 1 346.00 195.02
  Q 346.64 210.91 346.51 226.83
  C 346.49 229.09 347.09 230.52 343.82 230.21
  Q 341.67 230.01 342.23 232.09
  Q 342.51 233.15 342.12 234.81
  A 1.28 1.27 12.3 0 1 340.62 235.77
  Q 337.59 235.17 338.40 238.95
  Q 338.86 241.09 336.71 240.65
  Q 333.18 239.92 333.90 243.49
  A 1.37 1.36 -89.7 0 1 332.28 245.10
  Q 329.40 244.49 329.91 247.76
  A 0.87 0.75 70.0 0 1 329.61 248.56
  Q 328.48 249.32 326.99 249.10
  A 0.79 0.55 13.2 0 0 326.21 249.41
  L 325.54 250.95
  A 1.08 0.67 -77.6 0 1 324.95 251.56
  C 321.08 252.54 317.40 254.11 313.67 254.41
  Q 304.03 255.19 295.26 250.91
  A 1.89 1.34 79.5 0 1 294.58 250.25
  Q 294.05 249.34 293.19 248.76
  A 1.17 0.87 -32.1 0 0 292.29 248.69
  Q 291.17 249.06 290.51 248.17
  A 1.30 0.79 -68.7 0 1 290.35 247.27
  Q 290.69 244.94 287.95 245.00
  A 1.45 1.45 -85.3 0 1 286.49 243.28
  Q 287.16 239.83 283.39 240.29
  A 1.48 1.48 -0.3 0 1 281.73 238.65
  Q 282.16 235.07 278.74 235.50
  A 0.89 0.87 86.0 0 1 277.75 234.62
  L 277.72 231.23
  A 1.61 1.55 -6.9 0 0 275.76 229.75
  Q 272.84 230.41 273.50 227.50
  Q 273.84 225.98 273.50 219.49
  C 273.06 211.34 273.76 203.06 273.57 194.93
  A 1.40 1.39 89.8 0 1 274.98 193.50
  Q 277.17 193.53 277.54 190.66
  Q 277.80 188.59 279.77 187.90
  Q 280.86 187.52 282.25 184.22
  A 1.30 1.27 -87.2 0 1 283.04 183.49
  C 285.17 182.78 285.57 181.51 286.81 179.91
  C 295.03 169.27 310.66 165.89 322.04 171.76
  A 2.86 2.86 -37.0 0 0 323.89 172.02
  Q 326.30 171.54 325.75 174.02
  A 0.70 0.70 -1.5 0 0 326.63 174.85
  Q 330.28 173.77 329.88 177.70
  A 0.54 0.50 -82.6 0 0 330.30 178.29
  L 332.81 178.65
  A 0.64 0.62 0.7 0 1 333.35 179.19
  L 333.73 182.20
  A 0.66 0.60 0.3 0 0 334.30 182.73
  Z
  M 302.96 195.59
  C 299.84 196.75 300.19 200.30 296.05 201.67
  A 0.83 0.79 -5.5 0 0 295.49 202.32
  Q 294.36 210.96 296.00 221.04
  A 1.55 1.53 -88.3 0 0 297.17 222.29
  Q 299.64 222.85 300.32 225.45
  A 1.87 1.85 1.2 0 0 301.61 226.78
  Q 303.85 227.43 304.42 229.75
  A 1.46 1.46 2.6 0 0 305.36 230.78
  C 308.61 231.94 315.31 233.02 316.57 228.43
  A 0.89 0.89 -0.6 0 1 317.18 227.81
  Q 319.77 227.02 320.61 224.47
  A 1.36 0.55 -79.0 0 1 321.12 223.68
  L 323.65 222.25
  A 1.44 0.98 -16.9 0 0 324.35 221.38
  Q 325.75 212.99 324.64 205.38
  C 324.35 203.38 324.97 201.76 322.30 201.19
  A 2.04 2.03 -0.7 0 1 320.75 199.68
  Q 320.07 196.91 317.29 195.85
  A 1.59 1.48 -4.7 0 1 316.54 195.26
  C 315.67 193.90 315.24 192.91 313.55 192.46
  C 310.36 191.61 305.47 191.56 303.66 194.99
  A 1.38 1.28 2.2 0 1 302.96 195.59
  Z"
/>
<path fill="#000000" d="
  M 416.28 221.86
  L 418.95 222.69
  A 1.42 1.06 -0.8 0 1 419.71 223.24
  Q 420.37 224.36 420.52 225.69
  A 0.96 0.76 13.1 0 0 421.05 226.35
  L 424.01 227.78
  A 0.82 0.63 -76.0 0 1 424.35 228.56
  C 423.98 231.64 432.84 231.29 435.06 231.61
  A 0.61 0.59 4.5 0 1 435.58 232.20
  L 435.71 252.65
  A 1.22 1.18 -4.6 0 1 434.68 253.82
  Q 425.41 255.26 417.92 252.05
  C 416.77 251.56 415.63 251.59 414.84 250.23
  Q 414.03 248.84 412.46 248.56
  Q 410.84 248.28 410.69 246.54
  A 1.41 1.40 1.9 0 0 409.50 245.28
  Q 407.00 244.91 406.54 242.49
  A 2.59 2.57 -87.1 0 0 404.75 240.49
  Q 403.02 239.98 402.36 237.75
  Q 401.90 236.22 400.52 235.43
  C 398.05 234.02 398.27 229.42 395.33 229.50
  A 0.83 0.82 86.3 0 1 394.48 228.74
  C 393.49 217.50 393.68 206.14 393.49 194.77
  Q 393.45 192.60 395.58 193.02
  C 400.94 194.05 395.03 186.31 400.61 187.42
  Q 402.81 187.86 402.34 185.66
  Q 401.57 182.08 404.75 182.75
  Q 407.24 183.27 406.50 181.25
  C 404.43 175.59 411.21 180.91 410.43 175.54
  A 0.85 0.84 2.2 0 1 411.45 174.60
  Q 414.38 175.24 414.77 172.31
  A 0.61 0.60 -88.8 0 1 415.32 171.78
  C 418.36 171.54 420.68 170.04 423.27 169.60
  C 431.53 168.19 441.16 169.95 447.28 176.06
  C 449.01 177.78 451.19 178.65 451.73 181.44
  A 0.77 0.76 -89.5 0 0 452.30 182.03
  Q 455.76 182.76 456.23 186.35
  A 1.04 1.03 86.7 0 0 457.23 187.25
  C 460.09 187.33 459.93 189.14 460.10 191.61
  C 461.51 211.76 460.50 232.80 460.50 253.08
  A 0.67 0.66 89.6 0 1 459.85 253.75
  L 441.05 254.19
  A 1.04 1.03 88.9 0 1 440.00 253.17
  Q 439.57 227.63 439.74 202.00
  Q 439.76 198.94 438.42 196.26
  A 1.50 1.14 4.8 0 0 437.72 195.63
  Q 436.09 194.92 435.37 193.28
  A 1.44 1.14 85.2 0 0 434.73 192.60
  Q 430.41 190.66 425.71 192.01
  A 1.65 1.65 84.6 0 0 424.52 193.45
  Q 424.26 196.65 421.37 196.03
  A 1.32 1.32 -0.3 0 0 419.80 197.61
  Q 420.66 201.41 417.72 200.90
  C 414.04 200.26 415.53 203.15 415.42 204.94
  Q 414.93 213.08 415.76 221.20
  A 0.80 0.73 -85.9 0 0 416.28 221.86
  Z"
/>
<path fill="#000000" d="
  M 31.67 183.53
  Q 33.37 183.55 33.09 181.27
  C 32.56 176.94 35.78 179.82 36.86 176.99
  Q 37.07 176.41 37.35 176.13
  C 44.96 168.33 59.04 168.16 68.36 171.67
  C 69.86 172.23 71.32 171.92 71.31 174.21
  A 0.97 0.96 -12.4 0 0 72.68 175.08
  Q 74.15 174.39 74.99 175.56
  A 1.27 0.83 -63.6 0 1 75.10 176.49
  Q 74.55 178.82 77.83 178.43
  Q 79.89 178.19 79.43 180.21
  Q 78.59 183.91 81.67 183.21
  A 1.56 1.56 -13.3 0 1 83.52 184.35
  Q 84.49 188.18 85.77 187.97
  Q 87.74 187.63 87.75 189.63
  C 87.80 210.50 88.79 232.08 87.78 253.17
  A 1.12 1.11 -88.6 0 1 86.67 254.24
  L 67.36 254.25
  A 1.13 1.12 -89.7 0 1 66.24 253.11
  Q 66.44 225.37 65.50 199.25
  Q 65.42 197.06 63.17 196.43
  A 1.17 0.66 75.5 0 1 62.58 195.82
  L 61.37 193.32
  A 1.29 0.66 7.0 0 0 60.59 192.79
  Q 56.88 191.72 53.18 192.54
  A 2.28 2.27 -85.6 0 0 51.54 193.95
  Q 50.50 196.71 48.30 197.43
  A 1.53 1.27 3.9 0 0 47.54 197.98
  Q 45.88 200.45 43.21 201.78
  A 0.99 0.92 -10.3 0 0 42.68 202.49
  Q 41.35 211.54 43.23 221.72
  A 1.91 1.90 -2.4 0 0 44.92 223.27
  Q 45.70 223.34 46.10 224.43
  C 46.90 226.57 48.09 227.69 50.11 228.72
  A 1.25 1.17 -87.0 0 1 50.70 229.42
  C 51.87 232.98 56.91 232.43 59.90 232.22
  Q 61.94 232.08 62.04 234.13
  Q 62.41 241.82 62.27 250.32
  C 62.23 252.25 62.99 254.73 60.02 254.62
  C 52.20 254.34 45.91 255.12 39.47 250.20
  C 38.21 249.25 37.22 249.48 36.58 247.48
  Q 36.06 245.85 34.36 245.72
  Q 32.90 245.60 32.70 243.07
  Q 32.55 241.25 30.73 241.25
  Q 29.74 241.24 28.85 240.10
  A 1.71 1.22 -71.6 0 1 28.57 239.19
  Q 28.51 236.17 26.66 235.50
  A 2.77 2.74 -89.0 0 1 24.96 233.72
  Q 23.93 230.44 21.64 230.18
  A 1.03 1.03 1.7 0 1 20.73 229.22
  Q 19.84 212.51 20.54 194.41
  A 1.13 1.12 -82.3 0 1 21.91 193.36
  Q 25.76 194.26 24.79 190.09
  Q 24.29 187.94 26.48 188.20
  Q 29.30 188.54 28.51 184.55
  A 0.96 0.88 -4.5 0 1 29.49 183.50
  L 31.67 183.53
  Z"
/>
<path fill="#000000" d="
  M 265.28 182.85
  L 267.08 183.96
  A 1.27 0.63 -89.3 0 1 267.49 184.81
  Q 267.78 186.75 269.14 188.15
  A 1.82 1.36 25.1 0 1 269.59 188.99
  C 270.59 194.70 270.01 199.54 269.81 205.21
  C 269.75 206.92 268.61 207.75 268.27 209.06
  Q 267.86 210.63 267.75 212.26
  A 0.82 0.82 -80.9 0 1 266.73 213.00
  Q 262.99 212.03 263.96 216.18
  A 1.19 1.19 -2.3 0 1 262.62 217.63
  Q 258.92 217.07 259.87 219.34
  Q 266.94 236.17 273.95 252.87
  A 1.00 0.99 79.1 0 1 273.02 254.25
  L 253.85 254.00
  A 1.57 1.56 78.2 0 1 252.44 253.07
  L 239.40 223.56
  Q 239.00 222.66 239.00 221.67
  L 239.00 208.34
  A 1.09 1.09 0.0 0 1 240.09 207.25
  C 241.75 207.25 245.65 208.05 245.74 205.39
  A 1.00 0.99 -3.2 0 1 246.59 204.45
  C 251.30 203.75 250.23 197.28 250.04 193.93
  A 1.79 1.78 88.3 0 0 248.26 192.25
  L 237.35 192.25
  A 1.60 1.60 0.0 0 0 235.75 193.85
  L 235.75 253.31
  A 0.94 0.94 0.0 0 1 234.81 254.25
  L 215.61 254.25
  A 1.18 1.18 89.8 0 1 214.43 253.08
  L 214.31 188.57
  A 0.64 0.53 88.1 0 1 214.80 187.94
  L 217.89 187.68
  A 1.39 1.18 -9.3 0 0 219.18 186.17
  C 217.57 180.30 224.95 186.13 223.00 180.00
  Q 222.25 177.65 225.25 178.25
  Q 228.32 178.86 228.12 176.06
  A 0.74 0.62 78.5 0 1 228.51 175.35
  L 230.77 174.42
  Q 231.28 174.20 231.58 173.88
  C 237.72 167.12 248.40 169.05 255.31 173.69
  C 258.63 175.92 263.35 178.48 264.66 182.21
  A 1.40 0.63 21.5 0 0 265.28 182.85
  Z"
/>
<path fill="#000000" d="
  M 114.30 226.56
  Q 116.49 227.23 118.08 230.30
  A 1.92 1.90 -7.8 0 0 119.41 231.30
  C 122.03 231.79 129.44 232.83 129.50 228.77
  A 0.85 0.84 76.9 0 1 129.95 228.04
  Q 136.00 224.88 130.27 222.38
  A 0.82 0.75 -80.4 0 1 129.82 221.68
  C 129.75 219.56 128.66 218.52 126.48 218.47
  Q 113.52 218.20 100.56 218.19
  Q 99.40 218.19 99.03 216.80
  A 1.67 0.81 87.8 0 0 98.58 215.96
  L 96.48 214.23
  A 1.76 1.24 20.2 0 1 95.94 213.45
  Q 95.05 210.23 91.98 209.15
  A 0.81 0.75 7.7 0 1 91.45 208.51
  Q 90.45 198.66 90.74 189.16
  A 0.96 0.96 2.6 0 1 91.76 188.23
  Q 95.14 188.47 94.73 185.10
  Q 94.47 182.94 96.61 183.27
  C 102.34 184.13 96.12 177.49 101.42 178.53
  A 1.34 1.34 4.2 0 0 103.02 177.15
  C 102.81 172.83 106.69 176.81 107.20 173.50
  A 0.98 0.87 83.8 0 1 107.70 172.79
  C 115.05 169.47 120.64 169.20 128.73 170.03
  C 132.09 170.38 134.90 171.73 138.21 172.68
  A 0.61 0.57 -80.1 0 1 138.62 173.31
  Q 138.43 175.59 141.00 175.00
  Q 143.49 174.43 143.00 176.75
  Q 142.44 179.40 144.75 178.50
  Q 147.37 177.48 146.75 180.50
  Q 145.98 184.26 149.75 183.50
  Q 151.99 183.05 151.25 185.75
  C 150.60 188.13 151.84 188.22 153.71 188.08
  C 156.24 187.90 155.05 190.97 155.14 192.47
  Q 155.39 196.49 155.22 199.94
  A 1.59 1.54 -88.3 0 1 153.66 201.46
  L 134.51 201.26
  A 0.87 0.79 75.4 0 1 133.78 200.78
  Q 132.21 197.56 130.02 196.40
  A 1.19 1.14 6.1 0 1 129.43 195.70
  Q 128.89 193.91 127.56 192.64
  A 1.32 1.13 62.9 0 0 126.69 192.28
  L 119.55 192.44
  A 2.30 2.04 -83.1 0 0 117.55 194.21
  Q 116.88 197.06 114.49 197.45
  A 0.92 0.79 4.3 0 0 113.80 197.96
  Q 112.50 201.19 116.32 201.64
  A 0.75 0.73 -3.9 0 1 116.95 202.17
  L 117.69 204.95
  A 0.67 0.66 83.0 0 0 118.32 205.45
  C 129.35 205.76 136.54 204.95 144.76 206.17
  A 1.56 1.35 -14.0 0 1 145.61 206.60
  Q 146.75 207.77 146.60 208.98
  A 1.36 1.35 -87.1 0 0 147.97 210.51
  Q 150.24 210.45 150.65 213.71
  A 1.15 1.15 -10.0 0 0 152.05 214.69
  C 154.05 214.25 155.00 215.01 155.15 217.02
  Q 155.85 225.89 155.28 234.76
  A 0.78 0.67 84.4 0 1 154.80 235.44
  L 151.98 236.38
  A 0.61 0.57 -13.2 0 0 151.57 236.99
  Q 151.91 240.35 148.80 240.77
  A 1.62 1.11 10.6 0 0 147.94 241.15
  Q 146.92 242.19 146.73 243.68
  A 1.35 0.70 87.2 0 1 146.33 244.55
  L 144.26 246.08
  Q 143.77 246.44 143.61 246.77
  C 142.62 248.83 140.97 249.23 139.31 250.25
  C 128.03 257.18 112.69 256.21 103.06 246.48
  Q 102.59 246.01 101.06 244.96
  C 98.87 243.46 99.33 241.35 96.27 239.89
  A 1.34 1.23 -89.8 0 1 95.65 239.21
  Q 94.73 236.93 91.90 235.38
  A 1.20 1.18 -80.4 0 1 91.29 234.51
  Q 90.47 229.19 90.81 224.11
  A 1.44 1.43 0.4 0 1 92.18 222.77
  Q 102.13 222.27 111.75 223.20
  A 1.56 1.20 -14.5 0 1 112.62 223.57
  Q 113.58 224.52 113.77 225.93
  A 0.78 0.78 -85.2 0 0 114.30 226.56
  Z"
/>
<path fill="#000000" d="
  M 351.65 229.77
  L 349.43 229.59
  A 0.54 0.53 2.3 0 1 348.93 229.06
  L 348.49 195.86
  Q 348.46 193.62 350.72 193.49
  C 354.39 193.28 351.60 188.22 355.96 187.55
  A 1.71 1.71 -11.0 0 0 357.36 185.48
  C 356.18 180.30 362.80 185.40 361.75 179.50
  A 1.80 1.12 1.9 0 1 363.81 178.31
  C 368.08 178.81 362.66 174.34 368.02 174.53
  A 1.60 1.60 89.5 0 0 369.67 172.85
  C 369.54 170.44 373.73 173.16 375.22 170.40
  A 0.94 0.74 -72.2 0 1 375.94 169.91
  L 391.56 169.91
  A 0.52 0.52 -90.0 0 1 392.08 170.43
  L 392.20 190.93
  A 0.52 0.52 -0.6 0 1 391.69 191.45
  L 380.54 191.81
  A 1.32 1.32 -7.9 0 0 379.30 193.45
  Q 379.97 196.11 377.94 196.06
  Q 376.18 196.01 375.66 197.69
  Q 374.67 200.86 372.44 201.23
  A 2.10 2.09 87.5 0 0 370.70 203.13
  Q 370.09 211.28 371.40 221.12
  A 1.36 1.36 -2.1 0 0 372.66 222.29
  C 375.04 222.42 375.23 226.31 378.20 227.40
  A 1.91 1.12 3.7 0 1 379.00 227.94
  Q 379.76 228.98 379.80 230.15
  A 1.35 1.29 89.7 0 0 381.05 231.44
  L 391.02 231.76
  A 1.19 1.16 -0.8 0 1 392.16 232.84
  Q 392.81 242.90 392.23 253.01
  A 1.61 1.60 88.3 0 1 390.82 254.51
  C 385.91 255.10 373.10 254.16 369.48 249.72
  Q 369.20 249.38 368.69 249.18
  L 366.76 248.43
  A 0.83 0.65 -81.1 0 1 366.34 247.68
  Q 366.43 244.49 363.53 244.85
  A 1.43 1.43 88.9 0 1 361.93 243.31
  C 362.46 237.23 356.45 243.34 357.57 238.52
  Q 358.02 236.58 356.43 235.50
  A 1.19 0.85 -30.3 0 0 355.53 235.42
  Q 353.09 236.11 353.35 231.96
  Q 353.47 229.93 351.65 229.77
  Z"
/>
</svg>
