<?xml version="1.0" encoding="UTF-8" standalone="no"?>
<!DOCTYPE svg PUBLIC "-//W3C//DTD SVG 1.1//EN" "http://www.w3.org/Graphics/SVG/1.1/DTD/svg11.dtd">
<svg xmlns="http://www.w3.org/2000/svg" version="1.1" viewBox="0 0 600 300">
<path fill="#000000" d="
  M 381.05 85.32
  A 3.18 3.15 71.7 0 0 379.81 87.82
  L 379.49 167.48
  A 0.77 0.77 -89.9 0 1 378.72 168.25
  L 343.82 168.19
  A 0.62 0.62 0.0 0 1 343.20 167.57
  Q 342.88 129.35 343.24 92.00
  C 343.27 89.06 343.52 86.13 340.44 84.81
  C 335.35 82.64 320.84 81.11 320.72 90.20
  Q 320.22 129.06 320.69 167.78
  A 0.72 0.71 0.0 0 1 319.96 168.50
  L 286.08 168.25
  A 0.58 0.57 0.0 0 1 285.50 167.68
  Q 285.35 127.65 285.70 88.21
  Q 285.76 81.73 287.09 77.97
  C 292.94 61.47 314.18 54.84 329.91 54.31
  C 341.46 53.92 351.52 55.44 361.35 61.10
  A 1.32 1.31 -44.4 0 0 362.66 61.11
  C 383.90 49.40 428.42 51.76 437.34 79.79
  Q 438.75 84.23 438.75 93.36
  Q 438.75 130.23 438.75 167.63
  A 0.87 0.87 0.0 0 1 437.88 168.50
  L 404.05 168.50
  A 0.82 0.81 89.6 0 1 403.24 167.69
  L 403.01 89.16
  Q 403.00 86.06 400.27 84.51
  C 394.87 81.45 386.08 81.49 381.05 85.32
  Z"
/>
<path fill="#000000" d="
  M 599.76 112.57
  A 76.75 58.18 0.0 0 1 523.01 170.75
  A 76.75 58.18 0.0 0 1 446.26 112.57
  A 76.75 58.18 0.0 0 1 523.01 54.39
  A 76.75 58.18 0.0 0 1 599.76 112.57
  Z
  M 564.31 112.57
  A 41.30 29.56 0.0 0 0 523.01 83.01
  A 41.30 29.56 0.0 0 0 481.71 112.57
  A 41.30 29.56 0.0 0 0 523.01 142.13
  A 41.30 29.56 0.0 0 0 564.31 112.57
  Z"
/>
<path fill="#000000" d="
  M 227.49 123.67
  C 236.57 139.18 257.59 142.69 273.77 142.25
  A 0.71 0.71 -0.8 0 1 274.50 142.96
  L 274.50 168.60
  A 0.85 0.85 -1.4 0 1 273.69 169.45
  C 240.84 170.93 200.84 159.52 190.00 124.25
  Q 188.04 117.87 188.44 110.36
  C 189.81 84.34 211.95 67.46 235.35 60.94
  Q 255.38 55.36 276.19 56.29
  A 0.52 0.51 1.2 0 1 276.69 56.80
  L 276.75 82.57
  A 0.96 0.95 0.6 0 1 275.77 83.52
  Q 259.99 83.23 246.25 87.75
  C 231.46 92.61 218.40 108.13 227.49 123.67
  Z"
/>
<path fill="#000000" d="
  M 63.68 152.31
  Q 63.58 159.88 63.92 167.04
  A 0.91 0.91 88.5 0 1 63.01 168.00
  L 29.45 167.94
  A 0.71 0.70 -90.0 0 1 28.75 167.23
  L 28.75 85.92
  A 1.46 1.43 0.2 0 0 27.30 84.49
  L 0.94 84.32
  A 0.52 0.51 -0.0 0 1 0.42 83.81
  L 0.42 57.19
  A 0.51 0.51 -0.0 0 1 0.93 56.68
  L 93.19 56.50
  A 0.81 0.81 0.0 0 1 94.00 57.31
  L 94.00 83.73
  A 1.02 1.02 0.0 0 1 92.98 84.75
  L 64.81 84.81
  A 0.83 0.82 -90.0 0 0 63.99 85.64
  Q 64.14 119.78 63.68 152.31
  Z"
/>
<path fill="#000000" d="
  M 136.19 84.92
  A 2.56 2.55 73.9 0 0 135.00 87.08
  L 135.00 98.32
  A 0.93 0.93 0.0 0 0 135.93 99.25
  L 182.94 99.18
  A 0.56 0.56 0.2 0 1 183.50 99.74
  L 183.50 125.94
  A 0.56 0.56 0.0 0 1 182.94 126.50
  L 135.63 126.50
  A 0.88 0.87 0.0 0 0 134.75 127.37
  C 134.70 132.06 132.84 141.25 140.50 141.25
  Q 161.50 141.25 182.98 141.25
  A 0.52 0.51 -0.0 0 1 183.50 141.76
  L 183.44 167.72
  A 0.77 0.77 -0.4 0 1 182.68 168.49
  Q 162.66 168.64 143.73 168.39
  Q 131.34 168.23 125.90 166.80
  C 115.78 164.13 104.95 157.82 101.09 147.51
  Q 99.75 143.94 99.75 137.31
  Q 99.75 112.23 99.75 87.14
  Q 99.75 80.57 101.09 77.04
  C 104.85 67.13 115.05 60.39 124.87 57.81
  Q 129.85 56.50 142.75 56.50
  Q 159.87 56.50 177.00 56.49
  Q 180.25 56.49 183.45 56.98
  A 0.59 0.56 -85.4 0 1 183.92 57.56
  L 183.92 82.92
  A 1.08 1.05 90.0 0 1 182.87 84.00
  Q 161.25 84.00 140.25 83.96
  Q 137.71 83.96 136.19 84.92
  Z"
/>
<path fill="#000000" d="
  M 594.89 213.88
  A 32.10 32.10 0.0 0 1 562.79 245.98
  L 38.21 245.98
  A 32.10 32.10 0.0 0 1 6.11 213.88
  L 6.11 213.12
  A 32.10 32.10 0.0 0 1 38.21 181.02
  L 562.79 181.02
  A 32.10 32.10 0.0 0 1 594.89 213.12
  L 594.89 213.88
  Z
  M 62.81 229.46
  A 2.50 2.50 14.2 0 1 61.50 227.26
  Q 61.50 215.34 61.50 204.48
  C 61.50 200.88 61.06 198.54 64.82 197.59
  C 70.18 196.22 78.46 196.39 76.88 204.61
  A 1.17 1.17 -84.7 0 0 78.03 206.00
  L 90.56 206.00
  A 0.67 0.66 3.4 0 0 91.22 205.42
  C 93.01 191.15 78.27 189.89 68.30 189.99
  C 61.49 190.05 46.25 191.29 46.25 201.25
  Q 46.25 213.25 46.00 225.24
  C 45.71 239.83 70.44 238.97 79.30 236.91
  C 88.80 234.71 92.32 230.76 91.03 220.81
  A 1.18 1.14 86.1 0 0 89.88 219.78
  L 77.69 219.91
  A 0.56 0.53 -88.3 0 0 77.16 220.44
  L 76.79 227.07
  Q 76.68 229.04 74.83 229.81
  Q 68.39 232.46 62.81 229.46
  Z
  M 135.80 229.44
  Q 135.13 210.01 135.68 190.81
  A 0.79 0.79 -89.3 0 0 134.89 190.00
  L 121.36 190.00
  A 0.86 0.86 -89.6 0 0 120.50 190.86
  L 120.44 236.36
  A 0.64 0.63 0.4 0 0 121.08 237.00
  L 159.51 237.00
  A 0.99 0.99 0.0 0 0 160.50 236.01
  L 160.50 231.02
  A 1.04 1.03 0.3 0 0 159.47 229.99
  L 136.32 229.94
  A 0.52 0.51 -0.6 0 1 135.80 229.44
  Z
  M 216.56 228.79
  L 219.00 236.34
  A 0.75 0.71 -8.2 0 0 219.69 236.83
  L 233.54 237.06
  A 0.59 0.58 81.7 0 0 234.10 236.29
  L 219.11 190.56
  A 0.83 0.82 80.6 0 0 218.33 190.00
  L 197.64 190.00
  A 1.12 1.11 9.0 0 0 196.58 190.76
  L 181.66 236.54
  A 0.31 0.31 -81.0 0 0 181.95 236.94
  L 194.57 236.99
  A 1.26 1.17 -81.3 0 0 195.73 236.07
  L 197.79 228.83
  A 1.09 1.09 -81.6 0 1 198.85 228.04
  L 215.93 228.28
  A 0.73 0.64 80.1 0 1 216.56 228.79
  Z
  M 258.64 195.91
  C 253.26 203.17 259.13 209.67 265.55 212.72
  C 270.25 214.95 283.94 220.21 285.69 225.06
  C 288.33 232.39 268.83 234.18 270.59 224.48
  A 1.23 1.18 -84.8 0 0 269.43 223.03
  L 256.68 223.16
  A 0.59 0.56 -87.7 0 0 256.13 223.69
  C 254.49 241.12 282.48 239.06 292.46 236.07
  C 300.31 233.72 304.66 225.49 297.81 219.44
  Q 292.31 214.57 284.09 211.38
  C 280.36 209.94 274.49 207.37 272.40 203.79
  C 267.83 195.97 287.47 193.45 286.72 203.15
  A 0.79 0.79 2.3 0 0 287.51 204.00
  L 299.89 204.00
  A 1.24 1.24 86.2 0 0 301.12 202.59
  Q 299.89 193.74 292.04 191.61
  C 283.10 189.17 269.26 188.89 261.31 193.52
  Q 259.73 194.44 258.64 195.91
  Z
  M 327.44 196.18
  C 316.81 213.60 351.62 214.93 354.75 225.25
  C 356.95 232.50 337.79 233.99 339.59 224.51
  A 1.24 1.20 -84.5 0 0 338.41 223.03
  L 325.68 223.16
  A 0.57 0.55 -88.3 0 0 325.14 223.69
  Q 324.28 232.81 332.50 235.75
  C 341.21 238.86 362.02 240.24 368.46 231.31
  C 377.19 219.20 351.71 211.17 344.95 207.29
  C 340.82 204.93 338.01 199.26 344.54 197.48
  C 348.95 196.28 356.22 196.70 355.72 203.15
  A 0.79 0.79 2.3 0 0 356.51 204.00
  L 369.17 204.00
  A 0.83 0.83 -89.9 0 0 370.00 203.17
  C 369.99 185.89 338.81 188.57 329.92 193.75
  Q 328.38 194.65 327.44 196.18
  Z
  M 411.51 190.41
  A 0.40 0.40 0.0 0 0 411.11 190.01
  L 396.89 190.01
  A 0.40 0.40 0.0 0 0 396.49 190.41
  L 396.49 236.59
  A 0.40 0.40 0.0 0 0 396.89 236.99
  L 411.11 236.99
  A 0.40 0.40 0.0 0 0 411.51 236.59
  L 411.51 190.41
  Z
  M 455.98 229.55
  A 2.74 2.64 14.5 0 1 454.54 227.21
  L 454.48 201.33
  Q 454.47 198.67 457.12 197.86
  C 463.14 196.03 471.19 196.10 469.86 204.95
  A 0.87 0.85 -85.7 0 0 470.70 205.96
  L 483.57 205.84
  A 0.60 0.57 -86.5 0 0 484.13 205.32
  C 485.89 191.10 471.20 189.82 461.21 189.97
  C 454.45 190.08 439.25 191.29 439.25 201.25
  Q 439.25 213.25 439.00 225.24
  C 438.71 239.83 463.44 238.97 472.30 236.91
  C 481.80 234.71 485.32 230.76 484.03 220.81
  A 1.18 1.14 86.1 0 0 482.88 219.78
  L 470.69 219.91
  A 0.56 0.53 -88.3 0 0 470.16 220.44
  L 469.79 227.07
  Q 469.68 229.05 467.83 229.81
  Q 461.39 232.44 455.98 229.55
  Z
  M 513.65 195.90
  C 508.27 203.11 514.13 209.69 520.54 212.74
  Q 528.55 216.53 536.38 220.67
  C 539.94 222.56 543.89 228.26 537.96 230.12
  C 533.49 231.53 524.22 232.08 525.59 224.48
  A 1.22 1.19 -84.6 0 0 524.43 223.04
  L 511.81 223.05
  A 0.58 0.57 -86.0 0 0 511.24 223.55
  C 508.92 240.54 536.36 239.05 546.26 236.56
  C 553.52 234.73 559.12 228.34 554.49 221.50
  C 549.85 214.66 538.01 211.34 530.95 207.29
  C 526.82 204.93 524.02 199.27 530.54 197.47
  C 534.96 196.26 542.22 196.70 541.72 203.15
  A 0.79 0.79 2.3 0 0 542.51 204.00
  L 555.17 204.00
  A 0.83 0.83 0.2 0 0 556.00 203.17
  C 555.99 186.20 525.17 188.36 516.32 193.52
  Q 514.75 194.44 513.65 195.90
  Z"
/>
<path fill="#000000" d="
  M 200.09 221.52
  L 206.79 199.52
  A 0.37 0.37 40.8 0 1 207.49 199.52
  L 214.19 221.52
  A 0.37 0.37 81.6 0 1 213.84 222.00
  L 200.44 222.00
  A 0.37 0.37 8.7 0 1 200.09 221.52
  Z"
/>
</svg>
