<?xml version="1.0" encoding="UTF-8" standalone="no"?>
<!DOCTYPE svg PUBLIC "-//W3C//DTD SVG 1.1//EN" "http://www.w3.org/Graphics/SVG/1.1/DTD/svg11.dtd">
<svg xmlns="http://www.w3.org/2000/svg" version="1.1" viewBox="0 0 600 300">
<path fill="#000000" d="
  M 381.41 116.35
  C 373.46 124.63 365.38 132.91 357.29 141.08
  A 1.24 1.17 -66.4 0 1 356.44 141.44
  L 342.18 141.50
  A 0.68 0.67 0.0 0 0 341.50 142.17
  L 341.57 219.40
  A 0.85 0.85 -89.3 0 1 340.72 220.25
  L 317.27 220.25
  A 1.02 1.02 -89.6 0 1 316.25 219.23
  L 316.25 145.33
  A 1.87 1.71 -24.6 0 1 316.78 144.08
  L 331.31 129.06
  Q 333.45 126.86 330.69 124.56
  C 327.72 122.10 326.28 123.95 323.82 126.17
  Q 316.02 133.18 307.84 141.00
  A 1.79 1.79 -66.9 0 1 306.60 141.50
  L 281.07 141.50
  Q 279.93 141.50 280.68 140.64
  Q 309.33 107.83 338.31 74.56
  C 338.80 74.01 341.74 69.08 341.75 72.13
  Q 341.80 93.44 341.50 114.67
  A 0.81 0.80 -89.6 0 0 342.30 115.49
  L 380.95 115.31
  Q 382.41 115.30 381.41 116.35
  Z"
/>
<path fill="#000000" d="
  M 81.96 166.97
  C 77.88 172.03 82.32 179.56 88.17 172.34
  Q 111.98 142.94 135.93 113.64
  A 1.10 1.08 -70.7 0 1 136.75 113.24
  C 146.67 112.95 156.94 113.60 166.76 112.87
  C 170.34 112.61 167.39 115.41 166.69 116.37
  Q 129.20 167.93 91.90 219.45
  A 0.89 0.89 44.3 0 1 90.46 219.45
  L 13.66 113.69
  Q 13.15 113.00 14.01 113.00
  L 124.30 112.94
  Q 125.90 112.94 124.88 114.17
  Q 103.14 140.67 81.96 166.97
  Z"
/>
<path fill="#000000" d="
  M 176.33 192.09
  Q 189.00 195.72 193.36 181.58
  Q 193.83 180.05 194.96 178.91
  L 214.02 159.85
  A 0.89 0.89 -37.3 0 1 215.43 160.04
  C 229.54 185.08 216.39 213.47 188.94 220.19
  C 168.53 225.18 148.17 210.96 142.64 192.29
  C 130.42 151.04 181.33 122.85 211.00 154.16
  A 1.24 1.23 45.8 0 1 210.98 155.89
  L 175.99 190.75
  A 0.80 0.80 -59.3 0 0 176.33 192.09
  Z
  M 184.12 169.01
  C 174.61 166.90 167.29 174.69 169.19 184.20
  Q 169.48 185.65 170.55 184.58
  L 184.54 170.59
  Q 185.76 169.37 184.12 169.01
  Z"
/>
<path fill="#000000" d="
  M 256.25 186.57
  C 262.17 197.27 277.78 193.57 279.02 181.56
  A 1.48 1.30 73.1 0 1 279.41 180.70
  L 300.04 159.84
  A 0.81 0.80 52.1 0 1 301.30 160.00
  C 315.65 184.09 301.89 214.03 275.16 220.29
  C 251.04 225.95 226.58 205.73 226.68 181.21
  C 226.83 145.03 269.49 127.21 295.32 152.44
  A 0.61 0.61 -90.0 0 1 295.32 153.30
  L 276.82 171.80
  A 1.02 1.01 -51.6 0 1 275.57 171.95
  Q 266.27 166.28 259.85 171.11
  C 254.88 174.85 253.18 181.02 256.25 186.57
  Z"
/>
<path fill="#000000" d="
  M 449.43 190.45
  Q 447.99 191.89 449.98 192.25
  Q 464.03 194.78 466.42 181.24
  A 1.64 1.56 73.7 0 1 466.86 180.39
  L 487.24 159.89
  A 0.96 0.95 53.4 0 1 488.76 160.12
  C 502.25 185.48 490.08 212.93 462.56 220.06
  C 438.06 226.42 413.77 205.30 414.03 180.72
  C 414.25 159.29 430.08 142.64 451.06 140.88
  Q 469.77 139.31 484.37 154.26
  A 1.07 1.05 45.6 0 1 484.37 155.75
  L 449.43 190.45
  Z
  M 457.33 169.07
  C 447.44 167.13 440.36 174.75 442.77 184.60
  Q 442.92 185.21 443.37 184.76
  L 457.75 170.48
  Q 458.88 169.37 457.33 169.07
  Z"
/>
<path fill="#000000" d="
  M 385.56 169.56
  L 385.32 219.57
  A 0.53 0.52 -0.0 0 1 384.80 220.08
  L 361.29 220.23
  A 0.98 0.97 89.7 0 1 360.31 219.25
  L 360.25 141.74
  A 0.67 0.66 -88.8 0 1 360.94 141.07
  Q 374.41 141.54 388.14 140.99
  Q 390.22 140.91 388.74 142.38
  Q 379.27 151.77 369.81 161.56
  C 367.60 163.86 367.10 166.45 370.12 168.26
  C 372.59 169.74 373.98 167.90 375.69 166.18
  Q 388.05 153.77 400.46 141.41
  A 1.24 1.10 20.0 0 1 401.30 141.08
  L 426.70 141.02
  Q 428.41 141.02 427.32 142.30
  L 405.84 167.56
  Q 404.82 168.76 403.13 168.78
  L 386.06 169.03
  A 0.53 0.51 89.4 0 0 385.56 169.56
  Z"
/>
<path fill="#000000" d="
  M 539.30 199.60
  C 543.87 194.90 538.55 189.80 534.16 194.23
  Q 521.73 206.76 509.59 219.28
  A 3.19 3.19 -67.9 0 1 507.30 220.25
  L 482.09 220.25
  Q 480.78 220.25 481.63 219.26
  L 513.99 181.22
  A 0.96 0.94 -45.0 0 0 514.00 179.99
  L 481.68 142.05
  Q 480.84 141.07 482.14 141.07
  L 541.32 141.00
  Q 543.83 141.00 542.07 142.80
  L 522.68 162.67
  Q 520.58 164.82 522.55 167.18
  C 524.97 170.07 527.08 168.68 529.28 166.46
  Q 541.58 154.01 553.03 142.36
  A 3.65 3.60 -67.7 0 1 555.59 141.27
  L 580.73 141.06
  Q 582.31 141.05 581.28 142.26
  L 548.82 180.36
  A 0.60 0.59 -45.4 0 0 548.82 181.13
  L 581.32 219.00
  Q 582.39 220.25 580.75 220.25
  L 520.49 220.25
  Q 519.14 220.25 520.08 219.29
  Q 529.60 209.60 539.30 199.60
  Z"
/>
</svg>
