<?xml version="1.0" encoding="UTF-8" standalone="no"?>
<!DOCTYPE svg PUBLIC "-//W3C//DTD SVG 1.1//EN" "http://www.w3.org/Graphics/SVG/1.1/DTD/svg11.dtd">
<svg xmlns="http://www.w3.org/2000/svg" version="1.1" viewBox="0 0 600 300">
<g stroke-width="2.00" fill="none" stroke-linecap="butt">
<path stroke="#020201" stroke-opacity="0.682" vector-effect="non-scaling-stroke" d="
  M 465.96 87.00
  Q 464.84 88.15 464.54 89.75"
/>
<path stroke="#020201" stroke-opacity="0.682" vector-effect="non-scaling-stroke" d="
  M 532.54 100.75
  L 532.93 94.07
  A 1.29 1.03 -69.9 0 0 532.63 93.17
  Q 532.07 92.62 531.44 93.00
  A 1.02 0.79 78.0 0 0 531.05 93.81
  L 531.21 115.24"
/>
<path stroke="#7b7b79" stroke-opacity="0.984" vector-effect="non-scaling-stroke" d="
  M 99.57 108.22
  Q 102.39 108.38 100.57 110.53
  Q 92.04 120.63 83.01 130.06
  C 81.26 131.88 79.76 134.48 77.63 136.41
  A 1.31 1.28 23.2 0 1 76.75 136.75
  Q 59.75 136.75 42.74 136.75
  Q 38.42 136.75 36.48 137.88
  C 31.27 140.94 31.43 149.80 36.24 152.94
  C 40.15 155.49 53.02 154.25 58.02 154.25
  Q 61.41 154.25 59.16 156.78
  Q 36.61 182.21 13.11 207.86
  Q 11.12 210.03 9.25 212.70
  Q 8.65 213.57 9.68 213.36
  Q 20.44 211.22 30.94 210.47
  C 35.02 210.17 40.43 210.28 45.18 209.95
  C 52.26 209.46 58.89 210.08 66.50 210.25
  C 82.74 210.62 101.52 214.86 116.56 222.52
  A 0.76 0.72 37.7 0 0 117.39 222.44
  Q 118.56 221.41 120.50 218.75
  Q 133.29 201.16 146.05 183.58
  Q 146.61 182.80 145.77 183.24
  L 120.07 196.58
  A 1.99 1.87 -46.0 0 1 118.42 196.66
  Q 92.83 185.88 65.37 183.89
  C 62.71 183.70 59.82 182.96 56.98 182.75
  Q 54.93 182.60 56.31 181.07
  L 79.95 154.89
  A 1.92 1.91 20.8 0 1 81.38 154.25
  Q 99.08 154.25 116.88 154.25
  Q 121.78 154.25 123.83 152.90
  C 128.64 149.74 128.58 141.19 123.78 138.11
  C 119.57 135.40 104.73 136.75 99.31 136.69
  A 1.21 1.21 -74.6 0 1 98.28 134.87
  C 100.07 131.81 102.47 129.74 104.45 127.53
  Q 123.47 106.27 142.56 85.06
  Q 147.31 79.79 149.13 78.09
  Q 149.51 77.73 149.00 77.71
  Q 147.28 77.65 144.44 78.44
  Q 141.80 79.17 128.66 80.41
  C 116.32 81.58 104.12 81.13 91.75 80.75
  C 75.83 80.26 56.92 76.46 41.44 68.48
  A 0.82 0.75 38.2 0 0 40.59 68.54
  Q 39.35 69.52 37.44 72.19
  Q 24.79 89.78 12.30 106.98
  Q 11.31 108.35 12.79 107.57
  L 37.56 94.58
  A 2.78 2.55 -45.8 0 1 39.83 94.45
  Q 66.06 105.38 94.46 107.41
  C 96.12 107.53 98.11 108.14 99.57 108.22"
/>
<path stroke="#7b7b79" stroke-opacity="0.984" vector-effect="non-scaling-stroke" d="
  M 267.1014 84.3568
  A 6.48 6.48 0.0 0 0 260.5988 77.8995
  L 260.2188 77.9008
  A 6.48 6.48 0.0 0 0 253.7615 84.4034
  L 253.8786 117.9632
  A 6.48 6.48 0.0 0 0 260.3812 124.4205
  L 260.7612 124.4192
  A 6.48 6.48 0.0 0 0 267.2185 117.9166
  L 267.1014 84.3568"
/>
<path stroke="#7b7b79" stroke-opacity="0.984" vector-effect="non-scaling-stroke" d="
  M 271.25 82.30
  A 3.29 3.27 -29.2 0 0 270.75 84.04
  L 270.75 117.79
  A 3.91 3.89 27.3 0 0 271.48 120.06
  Q 277.15 128.03 283.15 120.89
  Q 284.25 119.58 284.26 117.79
  L 284.43 91.94
  A 0.53 0.52 -90.0 0 1 284.95 91.41
  L 303.06 91.41
  A 0.47 0.45 -86.6 0 1 303.51 91.93
  Q 302.31 103.06 302.97 114.25
  C 303.22 118.56 304.39 123.19 308.96 124.39
  C 314.25 125.77 316.96 120.04 317.09 115.62
  Q 317.52 101.01 317.08 86.41
  C 316.96 82.61 315.85 80.11 312.85 78.08
  A 1.70 1.45 -23.9 0 0 311.94 77.81
  Q 297.29 77.71 282.64 77.74
  C 276.30 77.75 274.48 77.10 271.25 82.30"
/>
<path stroke="#7b7b79" stroke-opacity="0.984" vector-effect="non-scaling-stroke" d="
  M 334.29 95.19
  L 334.24 92.11
  A 0.88 0.85 -0.3 0 1 335.12 91.25
  C 341.86 91.25 358.31 92.88 363.37 89.40
  C 367.54 86.53 367.06 81.36 362.96 78.84
  Q 361.18 77.75 357.81 77.75
  Q 342.78 77.75 327.75 77.79
  C 320.92 77.81 320.10 83.42 320.00 89.00
  Q 319.66 108.21 320.15 116.24
  C 320.51 122.09 325.91 127.57 331.26 122.58
  Q 334.78 119.29 334.02 112.09
  Q 333.73 109.31 336.53 109.32
  C 341.95 109.35 358.17 110.62 362.98 107.96
  C 367.36 105.53 367.31 99.85 362.99 97.27
  C 358.15 94.37 345.77 95.80 334.81 95.69
  A 0.52 0.50 -0.0 0 1 334.29 95.19"
/>
<path stroke="#7b7b79" stroke-opacity="0.984" vector-effect="non-scaling-stroke" d="
  M 416.0717 95.6074
  A 18.02 18.02 0.0 0 0 397.9889 77.6504
  L 386.6890 77.6899
  A 18.02 18.02 0.0 0 0 368.7320 95.7727
  L 368.7683 106.1726
  A 18.02 18.02 0.0 0 0 386.8511 124.1296
  L 398.1510 124.0901
  A 18.02 18.02 0.0 0 0 416.1080 106.0073
  L 416.0717 95.6074"
/>
<path stroke="#7b7b79" stroke-opacity="0.984" vector-effect="non-scaling-stroke" d="
  M 428.61 79.33
  C 423.29 82.40 418.75 88.23 418.75 94.50
  C 418.75 104.41 417.26 114.35 426.45 120.79
  C 433.76 125.90 446.74 124.22 455.25 124.31
  Q 462.20 124.38 464.91 118.45
  Q 465.71 116.70 464.69 115.07
  Q 461.49 109.91 455.25 110.01
  Q 444.74 110.18 434.40 109.76
  Q 432.25 109.67 432.25 107.52
  Q 432.25 101.50 432.33 95.50
  C 432.38 91.91 434.63 91.25 437.86 91.25
  Q 447.31 91.25 456.75 91.20
  C 461.81 91.18 467.03 87.16 464.29 81.85
  C 461.89 77.17 457.89 77.76 452.26 77.71
  C 446.33 77.67 433.60 76.46 428.61 79.33"
/>
<path stroke="#7b7b79" stroke-opacity="0.984" vector-effect="non-scaling-stroke" d="
  M 477.29 79.09
  C 465.90 85.10 465.12 98.41 467.59 109.96
  C 470.25 122.38 480.31 124.38 491.17 124.40
  C 500.12 124.41 509.04 122.29 512.66 113.31
  C 514.63 108.42 514.86 98.52 514.00 93.50
  Q 512.21 83.08 503.38 78.95
  C 498.44 76.64 489.28 77.75 483.75 77.75
  Q 479.84 77.75 477.29 79.09"
/>
<path stroke="#7b7b79" stroke-opacity="0.984" vector-effect="non-scaling-stroke" d="
  M 550.59 91.79
  Q 557.11 112.62 560.00 120.25
  C 561.67 124.66 566.45 126.80 570.51 123.93
  C 574.23 121.30 573.44 117.85 572.11 113.78
  Q 565.99 95.14 561.44 82.31
  C 560.38 79.34 558.45 77.83 555.12 77.78
  Q 538.43 77.55 521.75 77.99
  A 1.80 1.57 24.1 0 0 520.83 78.27
  C 518.21 80.02 516.82 81.57 516.79 85.00
  Q 516.67 101.22 516.80 117.44
  C 516.87 126.33 529.91 126.65 530.11 116.12
  Q 530.34 104.10 530.31 92.07
  A 0.69 0.67 82.2 0 1 530.79 91.41
  Q 532.50 90.93 534.08 91.37
  A 0.81 0.81 18.3 0 1 534.62 92.44
  C 532.77 97.23 534.02 109.19 534.04 114.75
  C 534.09 126.69 548.22 127.71 548.23 114.50
  Q 548.25 104.13 548.25 93.77
  C 548.25 92.42 547.79 90.76 549.94 91.19
  A 0.89 0.82 85.4 0 1 550.59 91.79"
/>
<path stroke="#7b7b79" stroke-opacity="0.984" vector-effect="non-scaling-stroke" d="
  M 401.7625 95.4312
  A 3.10 3.10 0.0 0 0 398.6788 92.3150
  L 385.3590 92.2453
  A 3.10 3.10 0.0 0 0 382.2428 95.3290
  L 382.1775 107.8088
  A 3.10 3.10 0.0 0 0 385.2612 110.9250
  L 398.5810 110.9947
  A 3.10 3.10 0.0 0 0 401.6972 107.9110
  L 401.7625 95.4312"
/>
<path stroke="#7b7b79" stroke-opacity="0.984" vector-effect="non-scaling-stroke" d="
  M 499.7991 95.5160
  A 3.48 3.48 0.0 0 0 496.3070 92.0482
  L 483.7871 92.0919
  A 3.48 3.48 0.0 0 0 480.3193 95.5840
  L 480.3609 107.5040
  A 3.48 3.48 0.0 0 0 483.8530 110.9718
  L 496.3729 110.9281
  A 3.48 3.48 0.0 0 0 499.8407 107.4360
  L 499.7991 95.5160"
/>
<path stroke="#020201" stroke-opacity="0.682" vector-effect="non-scaling-stroke" d="
  M 576.71 83.00
  Q 577.12 83.42 577.71 83.25"
/>
<path stroke="#7c7b7b" stroke-opacity="0.988" vector-effect="non-scaling-stroke" d="
  M 577.71 83.25
  C 577.68 85.13 577.34 90.17 578.11 91.69
  C 579.45 94.35 579.42 87.24 579.46 87.05
  A 0.39 0.37 18.2 0 1 580.00 86.79
  L 580.97 87.24
  A 0.32 0.32 11.0 0 0 581.43 86.93
  C 581.31 85.34 579.90 82.07 578.00 82.04"
/>
<path stroke="#020201" stroke-opacity="0.682" vector-effect="non-scaling-stroke" d="
  M 578.00 82.04
  Q 577.23 81.40 576.46 82.00"
/>
<path stroke="#7c7b7b" stroke-opacity="0.988" vector-effect="non-scaling-stroke" d="
  M 576.46 82.00
  L 569.82 81.78
  A 0.92 0.68 9.6 0 0 569.00 82.20
  Q 568.66 83.00 571.13 83.56
  A 0.92 0.85 -84.4 0 1 571.79 84.43
  L 571.94 91.25
  A 1.10 1.05 18.9 0 0 572.37 92.08
  C 573.83 93.22 573.25 85.29 573.25 84.01
  A 0.92 0.80 -2.7 0 1 574.09 83.20
  L 576.71 83.00"
/>
<path stroke="#020201" stroke-opacity="0.682" vector-effect="non-scaling-stroke" d="
  M 585.50 88.04
  Q 585.47 89.13 586.71 88.75"
/>
<path stroke="#7c7b7b" stroke-opacity="0.988" vector-effect="non-scaling-stroke" d="
  M 586.71 88.75
  L 586.93 91.45
  A 0.91 0.84 9.6 0 0 587.50 92.19
  C 588.73 92.67 588.25 84.50 588.25 83.45
  Q 588.25 81.14 586.89 83.01
  C 586.59 83.41 583.24 88.33 585.50 88.04"
/>
<path stroke="#7c7b7b" stroke-opacity="0.988" vector-effect="non-scaling-stroke" d="
  M 584.06 90.83
  Q 584.62 88.05 582.05 88.67
  A 0.44 0.38 -22.5 0 0 581.75 89.27
  L 583.02 91.16
  Q 583.77 92.27 584.06 90.83"
/>
<path stroke="#7c7b7b" stroke-opacity="0.988" vector-effect="non-scaling-stroke" d="
  M 323.56 207.69
  Q 320.23 202.73 318.28 197.07
  Q 308.74 169.29 298.74 141.66
  C 297.96 139.49 297.84 137.23 294.80 137.71
  A 1.13 1.08 -77.9 0 0 294.04 138.23
  Q 292.94 139.99 291.69 143.44
  Q 288.17 153.09 271.27 197.62
  C 269.46 202.39 268.30 205.84 264.44 209.44
  C 263.97 209.87 261.97 209.78 261.19 209.85
  C 256.14 210.33 254.53 207.14 254.46 202.54
  Q 254.07 178.39 254.25 154.25
  Q 254.30 148.05 255.75 144.40
  A 1.19 0.85 -82.2 0 1 256.39 143.72
  L 262.00 142.07
  Q 262.69 141.86 262.88 141.66
  C 264.03 140.48 262.59 139.75 261.49 139.75
  Q 253.70 139.75 245.08 139.75
  A 2.13 2.12 10.7 0 0 243.10 141.09
  L 223.50 191.01
  Q 222.52 193.49 221.42 191.07
  Q 217.87 183.28 214.46 174.40
  Q 207.86 157.26 201.18 140.48
  A 1.16 1.13 78.9 0 0 200.12 139.75
  L 182.05 139.81
  A 1.41 1.11 18.9 0 0 181.17 140.12
  Q 180.22 141.01 181.12 141.92
  A 1.48 1.03 -12.4 0 0 182.00 142.28
  C 188.87 142.84 189.75 147.12 189.75 153.33
  Q 189.75 177.92 189.75 202.50
  Q 189.75 207.17 186.43 209.47
  A 1.79 1.47 22.4 0 1 185.51 209.75
  C 184.50 209.79 178.86 210.71 181.11 212.94
  A 1.36 0.94 -15.3 0 0 181.99 213.25
  Q 191.82 213.25 201.64 213.25
  C 202.83 213.25 206.03 212.55 203.91 211.07
  Q 202.93 210.38 201.74 210.18
  C 195.92 209.20 196.61 207.71 195.92 202.19
  C 194.33 189.42 195.18 175.41 195.43 162.52
  C 195.45 161.30 196.47 159.31 197.43 161.66
  Q 207.73 186.83 217.57 212.20
  Q 218.49 214.58 220.61 213.16
  C 222.47 211.91 222.88 209.90 223.67 207.89
  Q 232.40 185.66 240.92 163.35
  C 241.47 161.94 243.77 157.97 243.81 163.50
  Q 243.93 184.00 243.50 204.50
  Q 243.45 206.88 241.07 208.85
  C 239.50 210.16 236.87 209.68 235.81 210.56
  Q 232.72 213.15 237.00 213.17
  Q 258.75 213.25 281.40 213.25
  A 0.65 0.64 -83.9 0 0 282.03 212.74
  Q 282.71 209.64 280.84 209.67
  C 275.11 209.79 275.01 206.14 276.48 201.82
  Q 278.44 196.05 280.56 190.72
  A 2.34 2.34 -79.0 0 1 282.73 189.25
  L 302.39 189.25
  A 2.12 2.12 80.6 0 1 304.40 190.69
  C 305.60 194.27 313.99 211.25 303.99 209.83
  A 0.91 0.80 21.2 0 0 303.17 210.13
  Q 302.19 211.41 303.03 212.78
  A 0.97 0.84 -13.6 0 0 303.82 213.19
  L 328.44 213.25
  A 0.66 0.66 -83.3 0 0 329.08 212.74
  Q 329.81 209.58 327.50 209.75
  Q 325.07 209.93 323.56 207.69"
/>
<path stroke="#7c7b7b" stroke-opacity="0.988" vector-effect="non-scaling-stroke" d="
  M 373.28 137.80
  C 370.64 136.94 372.19 144.14 366.03 141.25
  C 344.98 131.38 326.99 144.91 322.25 165.50
  Q 317.95 184.16 326.42 200.13
  C 330.56 207.94 339.26 214.21 348.00 214.34
  C 356.29 214.47 363.17 214.39 369.39 208.90
  Q 374.97 203.97 377.81 197.14
  C 379.29 193.57 376.45 192.40 374.49 195.18
  C 369.73 201.88 365.80 207.90 357.10 208.73
  C 346.39 209.74 337.89 201.31 335.17 191.32
  C 331.71 178.63 332.08 156.36 343.03 147.05
  C 347.65 143.13 354.94 141.75 360.78 144.71
  C 367.66 148.19 371.76 156.42 372.98 163.69
  A 0.66 0.55 83.1 0 0 373.56 164.24
  L 376.57 164.15
  A 0.69 0.60 -85.8 0 0 377.15 163.57
  C 377.56 160.99 376.51 158.62 376.44 156.47
  Q 376.23 150.08 376.04 143.69
  C 375.99 142.12 375.11 140.80 375.28 139.00
  Q 375.39 137.75 374.25 137.89
  Q 373.74 137.95 373.28 137.80"
/>
<path stroke="#7c7b7b" stroke-opacity="0.988" vector-effect="non-scaling-stroke" d="
  M 487.51 162.63
  Q 487.60 159.04 489.67 161.98
  L 526.03 213.78
  A 1.01 0.89 70.8 0 0 526.81 214.22
  L 529.52 214.24
  A 0.75 0.72 -89.6 0 0 530.25 213.49
  Q 530.25 181.45 530.25 150.13
  C 530.25 148.17 530.86 146.68 531.47 144.83
  A 2.08 2.08 -3.5 0 1 532.54 143.62
  Q 540.40 139.89 545.37 145.68
  A 1.38 1.30 -66.8 0 1 545.69 146.56
  Q 545.80 175.66 545.78 204.75
  C 545.78 209.37 542.14 209.43 538.72 210.32
  C 536.78 210.83 535.27 213.13 538.75 213.25
  Q 548.21 213.58 586.30 213.07
  A 0.76 0.74 9.7 0 0 586.99 212.60
  Q 590.26 203.99 592.24 195.05
  A 1.13 1.13 -78.8 0 0 591.33 193.69
  Q 588.77 193.25 587.67 195.50
  Q 585.21 200.56 581.68 204.95
  Q 579.73 207.37 576.66 207.85
  Q 569.50 208.96 560.26 208.17
  Q 557.75 207.95 557.38 205.47
  Q 555.41 192.39 556.46 178.00
  A 0.60 0.59 89.5 0 1 556.99 177.45
  Q 563.74 176.80 570.48 177.34
  C 576.24 177.80 577.14 182.54 577.92 187.27
  A 0.97 0.92 -83.9 0 0 578.45 187.97
  Q 581.39 189.32 581.28 186.23
  C 581.00 178.38 581.26 170.42 581.19 162.56
  A 0.76 0.73 -79.9 0 0 580.72 161.86
  Q 577.92 160.79 577.75 163.75
  C 577.52 167.70 575.34 171.16 571.10 171.86
  Q 564.03 173.01 557.12 172.76
  A 0.90 0.89 1.0 0 1 556.25 171.87
  L 556.25 144.91
  A 0.66 0.66 -89.5 0 1 556.91 144.25
  Q 564.75 144.25 572.25 144.24
  Q 581.76 144.22 582.81 153.49
  Q 583.23 157.18 586.71 156.10
  A 0.69 0.69 -8.6 0 0 587.20 155.44
  L 587.20 140.49
  A 0.76 0.75 -0.4 0 0 586.44 139.75
  Q 551.25 139.77 517.50 139.75
  Q 514.78 139.75 516.03 141.77
  A 0.99 0.86 -13.0 0 0 516.82 142.19
  C 520.88 142.27 523.65 144.22 523.88 148.54
  Q 524.66 162.69 524.75 187.75
  Q 524.76 189.67 523.51 189.77
  A 1.00 0.78 66.9 0 1 522.71 189.33
  L 488.95 140.85
  A 2.42 2.41 -17.3 0 0 486.96 139.81
  L 418.31 139.81
  A 1.36 1.18 20.9 0 0 417.44 140.13
  Q 415.44 141.96 418.50 142.28
  C 425.70 143.02 425.75 148.92 425.75 154.75
  Q 425.75 164.00 425.75 172.87
  A 0.88 0.87 -90.0 0 1 424.88 173.75
  L 398.82 173.69
  A 0.51 0.50 0.0 0 1 398.31 173.19
  Q 398.14 155.44 398.25 150.75
  Q 398.44 142.72 406.31 142.10
  A 1.07 0.86 8.8 0 0 407.09 141.65
  C 407.88 140.23 406.65 139.75 405.46 139.75
  Q 392.98 139.75 380.50 139.70
  Q 378.07 139.69 378.86 141.72
  A 0.80 0.67 -7.7 0 0 379.57 142.17
  C 383.33 142.26 387.52 144.12 387.56 148.50
  Q 387.74 172.90 387.75 197.30
  C 387.75 203.92 388.62 208.91 381.50 210.18
  C 378.01 210.80 377.23 213.25 381.73 213.25
  Q 393.21 213.25 404.70 213.25
  C 406.19 213.25 408.06 213.70 407.06 211.19
  Q 406.47 209.70 404.44 209.81
  Q 400.12 210.04 398.86 205.16
  Q 398.25 202.79 398.25 200.34
  L 398.25 179.06
  A 0.81 0.81 0.0 0 1 399.06 178.25
  L 424.88 178.25
  A 0.87 0.87 0.0 0 1 425.75 179.12
  L 425.75 201.68
  Q 425.75 204.64 424.45 207.29
  Q 423.17 209.88 419.90 209.80
  Q 418.11 209.75 417.04 211.18
  C 415.68 212.99 417.85 213.25 419.05 213.25
  Q 456.52 213.25 494.00 213.02
  Q 497.89 212.99 495.39 210.82
  A 1.74 1.46 -17.3 0 0 494.51 210.45
  C 486.48 209.46 487.27 204.18 487.21 197.03
  Q 487.07 178.99 487.51 162.63"
/>
<path stroke="#7c7b7b" stroke-opacity="0.988" vector-effect="non-scaling-stroke" d="
  M 292.08 161.12
  Q 288.14 169.91 285.25 178.75
  Q 284.32 181.61 284.29 183.19
  A 0.53 0.51 0.6 0 0 284.81 183.70
  L 300.05 183.75
  A 0.99 0.98 82.8 0 0 301.00 182.51
  Q 298.45 172.75 294.66 163.40
  Q 294.03 161.84 293.27 160.95
  A 0.71 0.71 36.8 0 0 292.08 161.12"
/>
<path stroke="#7c7b7b" stroke-opacity="0.988" vector-effect="non-scaling-stroke" d="
  M 438.42 143.84
  Q 436.25 145.62 436.25 148.43
  L 436.25 205.50
  A 1.73 1.52 -65.2 0 0 436.52 206.42
  C 439.54 210.87 443.97 210.89 448.77 209.87
  Q 452.49 209.07 453.40 204.01
  Q 453.75 202.04 453.75 200.04
  Q 453.75 178.00 453.75 154.00
  C 453.75 150.08 453.79 145.98 450.37 143.63
  C 447.59 141.72 441.09 141.64 438.42 143.84"
/>
<path stroke="#7c7b7b" stroke-opacity="0.988" vector-effect="non-scaling-stroke" d="
  M 465.68 144.35
  Q 464.10 148.21 464.12 151.75
  Q 464.25 176.36 464.25 200.97
  C 464.25 204.08 463.78 207.59 466.98 209.11
  Q 468.80 209.97 470.77 210.36
  C 474.32 211.05 480.51 210.20 480.74 205.50
  C 480.92 201.86 481.75 198.28 481.75 194.81
  Q 481.75 176.49 481.75 158.16
  C 481.75 153.68 482.26 150.69 479.25 147.13
  C 476.07 143.37 471.02 142.18 466.35 143.72
  A 1.10 1.10 -88.2 0 0 465.68 144.35"
/>
<path stroke="#7c7b7b" stroke-opacity="0.988" vector-effect="non-scaling-stroke" d="
  M 180.26 184.51
  A 0.76 0.76 0.0 0 0 179.50 183.75
  L 155.52 183.75
  A 0.76 0.76 0.0 0 0 154.76 184.51
  L 154.76 191.49
  A 0.76 0.76 0.0 0 0 155.52 192.25
  L 179.50 192.25
  A 0.76 0.76 0.0 0 0 180.26 191.49
  L 180.26 184.51"
/>
</g>
<path fill="#010101" fill-opacity="0.996" d="
  M 59.46 181.25
  Q 60.90 181.38 62.53 181.94
  C 65.43 182.92 67.93 182.23 70.85 182.76
  C 79.63 184.37 88.38 185.56 97.08 187.63
  Q 107.97 190.23 117.92 194.69
  Q 119.59 195.44 120.99 194.26
  C 122.99 192.57 125.05 191.76 127.30 190.62
  Q 143.96 182.16 147.19 180.69
  C 149.50 179.64 150.00 181.14 148.80 182.75
  C 137.60 197.81 128.04 211.85 118.05 224.86
  A 0.58 0.56 33.9 0 1 117.31 224.99
  Q 107.81 219.46 102.75 218.25
  Q 99.28 217.42 97.70 216.72
  Q 97.26 216.52 96.75 216.57
  C 94.91 216.75 94.00 215.63 92.63 215.31
  C 71.96 210.52 53.17 210.94 30.75 211.73
  Q 30.34 211.75 29.81 212.00
  C 27.62 213.05 24.23 212.06 21.23 212.78
  C 18.95 213.33 16.55 212.97 14.19 214.04
  Q 13.93 214.15 13.24 214.21
  L 10.54 214.44
  A 1.45 0.34 -41.9 0 0 9.70 214.90
  Q 8.52 215.81 6.40 215.38
  Q 4.45 214.97 5.90 213.61
  C 8.33 211.33 9.90 208.51 12.21 206.30
  C 16.08 202.60 19.01 198.59 22.90 194.64
  C 26.50 190.98 28.63 187.55 32.97 183.32
  Q 34.65 181.68 37.19 178.40
  C 42.20 171.94 49.58 166.32 53.99 159.53
  C 54.42 158.87 59.28 155.29 56.08 155.45
  C 50.89 155.71 45.68 155.36 40.48 155.62
  C 35.03 155.90 31.59 152.72 31.51 147.27
  C 31.41 140.83 31.92 135.49 39.84 135.51
  Q 57.51 135.54 75.19 135.44
  A 1.49 1.48 25.8 0 0 76.10 135.13
  C 78.57 133.23 79.85 130.56 81.92 128.58
  C 85.25 125.41 88.13 121.58 91.07 118.52
  Q 94.63 114.81 97.88 110.82
  A 1.45 0.95 -36.2 0 0 98.21 109.94
  Q 98.14 108.97 96.97 109.32
  A 1.42 1.14 -36.9 0 1 96.04 109.29
  C 92.22 107.60 89.40 108.98 85.88 108.17
  C 82.20 107.33 78.56 106.77 74.92 106.59
  C 73.22 106.52 72.14 105.76 70.75 105.47
  Q 55.25 102.31 39.06 96.11
  A 1.29 1.27 -51.9 0 0 37.89 96.26
  Q 34.80 98.42 31.49 100.04
  Q 20.85 105.22 10.25 110.50
  Q 8.91 111.17 8.63 110.06
  A 1.25 0.92 -40.2 0 1 8.85 109.15
  Q 23.84 87.80 39.28 66.78
  C 40.18 65.57 41.03 65.12 42.04 66.51
  Q 42.39 66.98 42.76 67.17
  Q 58.30 75.28 75.67 77.42
  Q 75.99 77.46 80.38 78.38
  C 82.81 78.89 85.88 77.75 88.09 79.20
  A 1.94 1.34 53.4 0 0 89.00 79.51
  Q 107.14 79.82 125.27 79.54
  Q 126.65 79.52 129.61 78.75
  C 132.15 78.09 135.50 79.28 137.61 77.81
  A 1.63 1.26 -56.0 0 1 138.49 77.52
  Q 139.91 77.58 141.31 77.47
  C 143.02 77.34 144.54 76.15 146.76 76.42
  A 1.48 1.47 -56.3 0 0 147.68 76.23
  Q 149.65 75.06 151.20 75.37
  Q 153.63 75.84 151.88 77.63
  L 144.91 84.70
  A 1.70 1.05 82.7 0 0 144.52 85.56
  C 144.08 88.33 135.93 92.95 135.47 95.44
  A 1.69 0.80 88.6 0 1 135.09 96.30
  L 126.91 104.71
  A 1.74 1.16 81.1 0 0 126.52 105.56
  C 126.33 106.72 119.78 113.00 118.65 114.40
  C 115.74 117.98 112.92 120.63 109.91 123.71
  A 1.73 0.97 85.1 0 0 109.52 124.57
  C 109.21 126.20 102.45 132.12 101.14 133.30
  Q 98.69 135.50 101.98 135.50
  Q 111.02 135.50 120.03 135.50
  C 125.77 135.50 128.50 138.55 128.50 144.24
  C 128.50 148.59 128.85 152.22 124.53 154.61
  Q 122.92 155.50 119.80 155.50
  Q 101.41 155.50 83.15 155.50
  A 2.68 2.46 20.9 0 0 81.33 156.22
  L 74.84 162.64
  A 1.39 0.65 83.9 0 0 74.55 163.49
  C 74.44 164.88 67.51 171.04 66.14 172.18
  A 1.88 1.23 89.0 0 0 65.63 172.99
  C 64.80 175.60 61.36 178.35 59.14 180.19
  Q 58.01 181.11 59.46 181.25
  Z
  M 99.57 108.22
  Q 102.39 108.38 100.57 110.53
  Q 92.04 120.63 83.01 130.06
  C 81.26 131.88 79.76 134.48 77.63 136.41
  A 1.31 1.28 23.2 0 1 76.75 136.75
  Q 59.75 136.75 42.74 136.75
  Q 38.42 136.75 36.48 137.88
  C 31.27 140.94 31.43 149.80 36.24 152.94
  C 40.15 155.49 53.02 154.25 58.02 154.25
  Q 61.41 154.25 59.16 156.78
  Q 36.61 182.21 13.11 207.86
  Q 11.12 210.03 9.25 212.70
  Q 8.65 213.57 9.68 213.36
  Q 20.44 211.22 30.94 210.47
  C 35.02 210.17 40.43 210.28 45.18 209.95
  C 52.26 209.46 58.89 210.08 66.50 210.25
  C 82.74 210.62 101.52 214.86 116.56 222.52
  A 0.76 0.72 37.7 0 0 117.39 222.44
  Q 118.56 221.41 120.50 218.75
  Q 133.29 201.16 146.05 183.58
  Q 146.61 182.80 145.77 183.24
  L 120.07 196.58
  A 1.99 1.87 -46.0 0 1 118.42 196.66
  Q 92.83 185.88 65.37 183.89
  C 62.71 183.70 59.82 182.96 56.98 182.75
  Q 54.93 182.60 56.31 181.07
  L 79.95 154.89
  A 1.92 1.91 20.8 0 1 81.38 154.25
  Q 99.08 154.25 116.88 154.25
  Q 121.78 154.25 123.83 152.90
  C 128.64 149.74 128.58 141.19 123.78 138.11
  C 119.57 135.40 104.73 136.75 99.31 136.69
  A 1.21 1.21 -74.6 0 1 98.28 134.87
  C 100.07 131.81 102.47 129.74 104.45 127.53
  Q 123.47 106.27 142.56 85.06
  Q 147.31 79.79 149.13 78.09
  Q 149.51 77.73 149.00 77.71
  Q 147.28 77.65 144.44 78.44
  Q 141.80 79.17 128.66 80.41
  C 116.32 81.58 104.12 81.13 91.75 80.75
  C 75.83 80.26 56.92 76.46 41.44 68.48
  A 0.82 0.75 38.2 0 0 40.59 68.54
  Q 39.35 69.52 37.44 72.19
  Q 24.79 89.78 12.30 106.98
  Q 11.31 108.35 12.79 107.57
  L 37.56 94.58
  A 2.78 2.55 -45.8 0 1 39.83 94.45
  Q 66.06 105.38 94.46 107.41
  C 96.12 107.53 98.11 108.14 99.57 108.22
  Z"
/>
<path fill="#f8f8f5" fill-opacity="0.969" d="
  M 99.57 108.22
  C 98.11 108.14 96.12 107.53 94.46 107.41
  Q 66.06 105.38 39.83 94.45
  A 2.78 2.55 -45.8 0 0 37.56 94.58
  L 12.79 107.57
  Q 11.31 108.35 12.30 106.98
  Q 24.79 89.78 37.44 72.19
  Q 39.35 69.52 40.59 68.54
  A 0.82 0.75 38.2 0 1 41.44 68.48
  C 56.92 76.46 75.83 80.26 91.75 80.75
  C 104.12 81.13 116.32 81.58 128.66 80.41
  Q 141.80 79.17 144.44 78.44
  Q 147.28 77.65 149.00 77.71
  Q 149.51 77.73 149.13 78.09
  Q 147.31 79.79 142.56 85.06
  Q 123.47 106.27 104.45 127.53
  C 102.47 129.74 100.07 131.81 98.28 134.87
  A 1.21 1.21 -74.6 0 0 99.31 136.69
  C 104.73 136.75 119.57 135.40 123.78 138.11
  C 128.58 141.19 128.64 149.74 123.83 152.90
  Q 121.78 154.25 116.88 154.25
  Q 99.08 154.25 81.38 154.25
  A 1.92 1.91 20.8 0 0 79.95 154.89
  L 56.31 181.07
  Q 54.93 182.60 56.98 182.75
  C 59.82 182.96 62.71 183.70 65.37 183.89
  Q 92.83 185.88 118.42 196.66
  A 1.99 1.87 -46.0 0 0 120.07 196.58
  L 145.77 183.24
  Q 146.61 182.80 146.05 183.58
  Q 133.29 201.16 120.50 218.75
  Q 118.56 221.41 117.39 222.44
  A 0.76 0.72 37.7 0 1 116.56 222.52
  C 101.52 214.86 82.74 210.62 66.50 210.25
  C 58.89 210.08 52.26 209.46 45.18 209.95
  C 40.43 210.28 35.02 210.17 30.94 210.47
  Q 20.44 211.22 9.68 213.36
  Q 8.65 213.57 9.25 212.70
  Q 11.12 210.03 13.11 207.86
  Q 36.61 182.21 59.16 156.78
  Q 61.41 154.25 58.02 154.25
  C 53.02 154.25 40.15 155.49 36.24 152.94
  C 31.43 149.80 31.27 140.94 36.48 137.88
  Q 38.42 136.75 42.74 136.75
  Q 59.75 136.75 76.75 136.75
  A 1.31 1.28 23.2 0 0 77.63 136.41
  C 79.76 134.48 81.26 131.88 83.01 130.06
  Q 92.04 120.63 100.57 110.53
  Q 102.39 108.38 99.57 108.22
  Z"
/>
<path fill="#010101" fill-opacity="0.996" d="
  M 264.31 77.05
  C 267.01 79.11 268.07 80.70 268.05 84.30
  Q 267.91 102.24 268.06 120.18
  A 1.83 1.61 64.3 0 1 267.80 121.11
  Q 260.83 131.71 252.80 121.40
  A 1.55 1.41 -65.8 0 1 252.50 120.49
  Q 252.50 102.15 252.50 83.81
  Q 252.50 81.05 253.73 79.55
  Q 256.86 75.71 263.39 76.67
  Q 263.90 76.74 264.31 77.05
  Z
  M 267.1014 84.3568
  A 6.48 6.48 0.0 0 0 260.5988 77.8995
  L 260.2188 77.9008
  A 6.48 6.48 0.0 0 0 253.7615 84.4034
  L 253.8786 117.9632
  A 6.48 6.48 0.0 0 0 260.3812 124.4205
  L 260.7612 124.4192
  A 6.48 6.48 0.0 0 0 267.2185 117.9166
  L 267.1014 84.3568
  Z"
/>
<path fill="#010101" fill-opacity="0.996" d="
  M 367.54 86.50
  C 366.22 90.84 363.35 92.28 358.78 92.38
  Q 347.95 92.61 337.11 92.51
  C 334.67 92.48 334.56 94.50 336.93 94.50
  Q 347.91 94.50 358.90 94.50
  C 362.53 94.50 364.01 95.42 366.25 98.00
  Q 366.93 98.78 367.48 98.16
  A 1.19 0.80 67.4 0 0 367.66 97.27
  Q 366.77 91.88 368.92 86.94
  Q 372.05 80.73 377.93 77.65
  C 382.65 75.17 395.76 76.50 401.47 76.50
  Q 404.60 76.50 406.79 77.65
  Q 413.40 81.14 416.32 88.29
  A 1.50 1.29 -51.1 0 1 416.35 89.23
  Q 415.50 92.22 417.51 91.08
  A 1.15 1.00 82.3 0 0 418.01 90.32
  Q 418.71 85.95 421.58 82.84
  C 423.80 80.43 427.71 76.69 431.00 76.50
  Q 436.60 76.18 458.39 76.63
  Q 461.65 76.70 463.40 77.99
  Q 467.52 81.03 465.96 87.00
  Q 464.84 88.15 464.54 89.75
  Q 462.19 92.50 460.25 92.50
  Q 449.51 92.50 438.77 92.50
  C 431.25 92.50 433.69 100.21 433.43 104.95
  Q 433.23 108.50 437.25 108.50
  Q 447.12 108.50 457.00 108.50
  Q 461.76 108.50 465.01 112.55
  A 1.05 0.86 65.5 0 0 465.81 112.94
  Q 467.55 112.83 466.11 110.63
  A 3.79 3.78 28.5 0 1 465.50 108.57
  C 465.50 105.46 464.86 91.99 466.04 90.50
  Q 466.93 89.46 467.00 89.00
  Q 467.80 84.03 471.30 81.03
  C 474.30 78.46 477.49 76.20 481.38 76.39
  C 487.61 76.70 499.81 75.02 505.06 77.68
  Q 511.49 80.93 514.08 88.03
  Q 514.23 88.44 514.16 89.00
  Q 513.94 90.67 515.24 90.15
  A 0.80 0.70 81.5 0 0 515.70 89.44
  C 515.77 83.88 514.07 81.00 519.00 77.26
  C 521.65 75.25 552.93 76.53 558.44 76.56
  A 1.24 1.23 67.0 0 1 559.30 76.91
  C 560.59 78.11 562.01 79.08 562.63 80.80
  C 566.21 90.71 569.17 100.78 572.88 110.63
  Q 574.91 116.03 574.44 121.94
  Q 574.34 123.18 572.50 124.75
  C 570.24 126.68 566.72 126.98 564.15 126.50
  C 560.65 125.85 558.44 121.83 557.63 118.84
  C 555.74 111.89 553.08 105.10 550.96 98.20
  C 550.68 97.28 551.08 95.84 549.55 95.60
  A 0.44 0.40 -87.5 0 0 549.09 96.06
  Q 549.69 105.59 549.52 115.14
  C 549.49 116.54 549.82 118.13 548.97 119.52
  Q 548.71 119.96 548.65 120.44
  Q 548.32 123.51 545.25 124.50
  Q 544.19 124.84 541.00 125.50
  C 537.87 126.15 535.12 123.10 533.77 121.16
  A 1.59 0.97 -71.7 0 1 533.56 120.25
  Q 533.63 119.12 532.92 118.29
  A 1.36 1.27 26.1 0 1 532.59 117.43
  L 532.54 100.75
  L 532.93 94.07
  A 1.29 1.03 -69.9 0 0 532.63 93.17
  Q 532.07 92.62 531.44 93.00
  A 1.02 0.79 78.0 0 0 531.05 93.81
  L 531.21 115.24
  Q 532.00 127.40 519.92 125.16
  A 1.68 1.42 69.5 0 1 519.10 124.70
  L 515.93 121.54
  A 1.40 1.27 22.8 0 1 515.53 120.68
  Q 515.26 116.20 515.81 113.56
  Q 516.22 111.62 514.67 111.83
  A 0.81 0.61 -84.3 0 0 514.12 112.43
  L 513.23 116.09
  A 1.55 0.86 -23.0 0 1 512.65 116.83
  Q 511.58 117.62 511.27 118.94
  A 1.42 0.86 89.4 0 1 510.80 119.74
  L 504.18 124.25
  A 1.65 0.97 19.0 0 1 503.25 124.44
  Q 501.55 124.33 500.16 125.21
  A 1.86 1.46 -55.7 0 1 499.24 125.50
  C 487.14 125.50 474.32 128.11 467.66 115.50
  A 1.01 0.67 70.8 0 0 466.94 114.95
  Q 466.74 114.95 466.56 115.03
  A 0.65 0.54 77.2 0 0 466.25 115.63
  L 466.43 118.53
  A 2.38 2.23 -32.8 0 1 466.09 119.89
  L 464.54 122.45
  A 1.13 0.14 -60.0 0 1 464.00 123.17
  C 462.01 124.22 460.49 125.50 458.13 125.50
  C 453.53 125.50 435.11 126.66 432.09 124.84
  A 1.90 1.51 53.7 0 0 431.18 124.59
  C 427.79 124.65 427.08 122.72 424.45 121.46
  C 421.24 119.92 418.91 114.82 418.06 111.55
  A 1.07 0.84 89.1 0 0 417.49 110.85
  Q 416.12 110.32 416.41 112.26
  A 1.20 1.10 -32.1 0 1 416.17 113.13
  Q 415.40 114.13 415.41 115.44
  A 1.35 1.12 70.4 0 1 415.09 116.31
  C 412.38 119.25 408.91 123.37 404.98 124.58
  Q 402.22 125.43 399.33 125.47
  C 397.17 125.50 384.26 126.33 382.08 124.88
  A 1.86 1.18 52.0 0 0 381.19 124.56
  Q 377.76 124.50 375.40 122.05
  Q 375.07 121.71 374.59 121.55
  C 370.99 120.31 366.61 110.96 367.82 107.46
  A 0.66 0.55 -66.4 0 0 367.60 106.70
  Q 366.66 106.18 365.94 107.44
  C 364.73 109.56 361.96 110.50 359.38 110.49
  Q 347.72 110.46 336.06 110.56
  A 0.53 0.51 0.6 0 0 335.53 111.06
  L 335.32 119.19
  Q 335.30 119.75 335.10 120.18
  C 333.36 123.93 329.32 128.16 324.94 126.00
  C 322.37 124.73 320.15 123.43 319.58 120.49
  A 0.79 0.65 87.8 0 0 319.03 119.87
  C 317.53 119.60 317.66 121.31 317.15 122.16
  Q 316.04 124.02 313.69 125.44
  C 310.51 127.36 304.73 125.54 303.47 122.65
  Q 301.50 118.16 301.50 117.00
  Q 301.46 105.84 301.44 93.54
  A 1.05 1.04 0.0 0 0 300.39 92.50
  L 286.38 92.50
  A 0.88 0.88 0.0 0 0 285.50 93.38
  L 285.50 120.25
  A 1.61 1.57 63.3 0 1 285.21 121.17
  C 280.48 127.79 275.15 128.27 270.11 121.59
  A 1.47 1.38 -64.5 0 1 269.82 120.69
  Q 270.05 109.55 269.63 98.43
  C 269.42 93.12 269.98 87.12 269.71 81.43
  A 1.34 0.89 73.8 0 1 269.99 80.54
  L 273.43 77.08
  A 2.36 1.86 17.8 0 1 274.98 76.50
  Q 293.44 76.50 310.91 76.50
  C 315.52 76.50 316.19 78.15 318.26 81.82
  A 0.43 0.42 55.9 0 0 318.90 81.95
  Q 320.33 80.76 320.56 78.81
  Q 320.83 76.50 324.75 76.50
  Q 342.60 76.50 360.46 76.50
  C 362.47 76.50 363.35 76.24 364.32 77.87
  Q 365.18 79.32 366.70 80.06
  C 367.92 80.66 367.49 85.03 367.54 86.50
  Z
  M 271.25 82.30
  A 3.29 3.27 -29.2 0 0 270.75 84.04
  L 270.75 117.79
  A 3.91 3.89 27.3 0 0 271.48 120.06
  Q 277.15 128.03 283.15 120.89
  Q 284.25 119.58 284.26 117.79
  L 284.43 91.94
  A 0.53 0.52 -90.0 0 1 284.95 91.41
  L 303.06 91.41
  A 0.47 0.45 -86.6 0 1 303.51 91.93
  Q 302.31 103.06 302.97 114.25
  C 303.22 118.56 304.39 123.19 308.96 124.39
  C 314.25 125.77 316.96 120.04 317.09 115.62
  Q 317.52 101.01 317.08 86.41
  C 316.96 82.61 315.85 80.11 312.85 78.08
  A 1.70 1.45 -23.9 0 0 311.94 77.81
  Q 297.29 77.71 282.64 77.74
  C 276.30 77.75 274.48 77.10 271.25 82.30
  Z
  M 334.29 95.19
  L 334.24 92.11
  A 0.88 0.85 -0.3 0 1 335.12 91.25
  C 341.86 91.25 358.31 92.88 363.37 89.40
  C 367.54 86.53 367.06 81.36 362.96 78.84
  Q 361.18 77.75 357.81 77.75
  Q 342.78 77.75 327.75 77.79
  C 320.92 77.81 320.10 83.42 320.00 89.00
  Q 319.66 108.21 320.15 116.24
  C 320.51 122.09 325.91 127.57 331.26 122.58
  Q 334.78 119.29 334.02 112.09
  Q 333.73 109.31 336.53 109.32
  C 341.95 109.35 358.17 110.62 362.98 107.96
  C 367.36 105.53 367.31 99.85 362.99 97.27
  C 358.15 94.37 345.77 95.80 334.81 95.69
  A 0.52 0.50 -0.0 0 1 334.29 95.19
  Z
  M 416.0717 95.6074
  A 18.02 18.02 0.0 0 0 397.9889 77.6504
  L 386.6890 77.6899
  A 18.02 18.02 0.0 0 0 368.7320 95.7727
  L 368.7683 106.1726
  A 18.02 18.02 0.0 0 0 386.8511 124.1296
  L 398.1510 124.0901
  A 18.02 18.02 0.0 0 0 416.1080 106.0073
  L 416.0717 95.6074
  Z
  M 428.61 79.33
  C 423.29 82.40 418.75 88.23 418.75 94.50
  C 418.75 104.41 417.26 114.35 426.45 120.79
  C 433.76 125.90 446.74 124.22 455.25 124.31
  Q 462.20 124.38 464.91 118.45
  Q 465.71 116.70 464.69 115.07
  Q 461.49 109.91 455.25 110.01
  Q 444.74 110.18 434.40 109.76
  Q 432.25 109.67 432.25 107.52
  Q 432.25 101.50 432.33 95.50
  C 432.38 91.91 434.63 91.25 437.86 91.25
  Q 447.31 91.25 456.75 91.20
  C 461.81 91.18 467.03 87.16 464.29 81.85
  C 461.89 77.17 457.89 77.76 452.26 77.71
  C 446.33 77.67 433.60 76.46 428.61 79.33
  Z
  M 477.29 79.09
  C 465.90 85.10 465.12 98.41 467.59 109.96
  C 470.25 122.38 480.31 124.38 491.17 124.40
  C 500.12 124.41 509.04 122.29 512.66 113.31
  C 514.63 108.42 514.86 98.52 514.00 93.50
  Q 512.21 83.08 503.38 78.95
  C 498.44 76.64 489.28 77.75 483.75 77.75
  Q 479.84 77.75 477.29 79.09
  Z
  M 550.59 91.79
  Q 557.11 112.62 560.00 120.25
  C 561.67 124.66 566.45 126.80 570.51 123.93
  C 574.23 121.30 573.44 117.85 572.11 113.78
  Q 565.99 95.14 561.44 82.31
  C 560.38 79.34 558.45 77.83 555.12 77.78
  Q 538.43 77.55 521.75 77.99
  A 1.80 1.57 24.1 0 0 520.83 78.27
  C 518.21 80.02 516.82 81.57 516.79 85.00
  Q 516.67 101.22 516.80 117.44
  C 516.87 126.33 529.91 126.65 530.11 116.12
  Q 530.34 104.10 530.31 92.07
  A 0.69 0.67 82.2 0 1 530.79 91.41
  Q 532.50 90.93 534.08 91.37
  A 0.81 0.81 18.3 0 1 534.62 92.44
  C 532.77 97.23 534.02 109.19 534.04 114.75
  C 534.09 126.69 548.22 127.71 548.23 114.50
  Q 548.25 104.13 548.25 93.77
  C 548.25 92.42 547.79 90.76 549.94 91.19
  A 0.89 0.82 85.4 0 1 550.59 91.79
  Z"
/>
<rect fill="#f8f8f5" fill-opacity="0.969" x="-6.67" y="-23.26" transform="translate(260.49,101.16) rotate(-0.2)" width="13.34" height="46.52" rx="6.48"/>
<path fill="#f8f8f5" fill-opacity="0.969" d="
  M 271.25 82.30
  C 274.48 77.10 276.30 77.75 282.64 77.74
  Q 297.29 77.71 311.94 77.81
  A 1.70 1.45 -23.9 0 1 312.85 78.08
  C 315.85 80.11 316.96 82.61 317.08 86.41
  Q 317.52 101.01 317.09 115.62
  C 316.96 120.04 314.25 125.77 308.96 124.39
  C 304.39 123.19 303.22 118.56 302.97 114.25
  Q 302.31 103.06 303.51 91.93
  A 0.47 0.45 -86.6 0 0 303.06 91.41
  L 284.95 91.41
  A 0.53 0.52 -90.0 0 0 284.43 91.94
  L 284.26 117.79
  Q 284.25 119.58 283.15 120.89
  Q 277.15 128.03 271.48 120.06
  A 3.91 3.89 27.3 0 1 270.75 117.79
  L 270.75 84.04
  A 3.29 3.27 -29.2 0 1 271.25 82.30
  Z"
/>
<path fill="#f8f8f5" fill-opacity="0.969" d="
  M 334.81 95.69
  C 345.77 95.80 358.15 94.37 362.99 97.27
  C 367.31 99.85 367.36 105.53 362.98 107.96
  C 358.17 110.62 341.95 109.35 336.53 109.32
  Q 333.73 109.31 334.02 112.09
  Q 334.78 119.29 331.26 122.58
  C 325.91 127.57 320.51 122.09 320.15 116.24
  Q 319.66 108.21 320.00 89.00
  C 320.10 83.42 320.92 77.81 327.75 77.79
  Q 342.78 77.75 357.81 77.75
  Q 361.18 77.75 362.96 78.84
  C 367.06 81.36 367.54 86.53 363.37 89.40
  C 358.31 92.88 341.86 91.25 335.12 91.25
  A 0.88 0.85 -0.3 0 0 334.24 92.11
  L 334.29 95.19
  A 0.52 0.50 0.0 0 0 334.81 95.69
  Z"
/>
<path fill="#f8f8f5" fill-opacity="0.969" d="
  M 416.1080 106.0073
  A 18.02 18.02 0.0 0 1 398.1510 124.0901
  L 386.8511 124.1296
  A 18.02 18.02 0.0 0 1 368.7683 106.1726
  L 368.7320 95.7727
  A 18.02 18.02 0.0 0 1 386.6890 77.6899
  L 397.9889 77.6504
  A 18.02 18.02 0.0 0 1 416.0717 95.6074
  L 416.1080 106.0073
  Z
  M 401.7625 95.4312
  A 3.10 3.10 0.0 0 0 398.6788 92.3150
  L 385.3590 92.2453
  A 3.10 3.10 0.0 0 0 382.2428 95.3290
  L 382.1775 107.8088
  A 3.10 3.10 0.0 0 0 385.2612 110.9250
  L 398.5810 110.9947
  A 3.10 3.10 0.0 0 0 401.6972 107.9110
  L 401.7625 95.4312
  Z"
/>
<path fill="#f8f8f5" fill-opacity="0.969" d="
  M 418.75 94.50
  C 418.75 88.23 423.29 82.40 428.61 79.33
  C 433.60 76.46 446.33 77.67 452.26 77.71
  C 457.89 77.76 461.89 77.17 464.29 81.85
  C 467.03 87.16 461.81 91.18 456.75 91.20
  Q 447.31 91.25 437.86 91.25
  C 434.63 91.25 432.38 91.91 432.33 95.50
  Q 432.25 101.50 432.25 107.52
  Q 432.25 109.67 434.40 109.76
  Q 444.74 110.18 455.25 110.01
  Q 461.49 109.91 464.69 115.07
  Q 465.71 116.70 464.91 118.45
  Q 462.20 124.38 455.25 124.31
  C 446.74 124.22 433.76 125.90 426.45 120.79
  C 417.26 114.35 418.75 104.41 418.75 94.50
  Z"
/>
<path fill="#f8f8f5" fill-opacity="0.969" d="
  M 467.59 109.96
  C 465.12 98.41 465.90 85.10 477.29 79.09
  Q 479.84 77.75 483.75 77.75
  C 489.28 77.75 498.44 76.64 503.38 78.95
  Q 512.21 83.08 514.00 93.50
  C 514.86 98.52 514.63 108.42 512.66 113.31
  C 509.04 122.29 500.12 124.41 491.17 124.40
  C 480.31 124.38 470.25 122.38 467.59 109.96
  Z
  M 499.7991 95.5160
  A 3.48 3.48 0.0 0 0 496.3070 92.0482
  L 483.7871 92.0919
  A 3.48 3.48 0.0 0 0 480.3193 95.5840
  L 480.3609 107.5040
  A 3.48 3.48 0.0 0 0 483.8530 110.9718
  L 496.3729 110.9281
  A 3.48 3.48 0.0 0 0 499.8407 107.4360
  L 499.7991 95.5160
  Z"
/>
<path fill="#f8f8f5" fill-opacity="0.969" d="
  M 549.94 91.19
  C 547.79 90.76 548.25 92.42 548.25 93.77
  Q 548.25 104.13 548.23 114.50
  C 548.22 127.71 534.09 126.69 534.04 114.75
  C 534.02 109.19 532.77 97.23 534.62 92.44
  A 0.81 0.81 18.3 0 0 534.08 91.37
  Q 532.50 90.93 530.79 91.41
  A 0.69 0.67 82.2 0 0 530.31 92.07
  Q 530.34 104.10 530.11 116.12
  C 529.91 126.65 516.87 126.33 516.80 117.44
  Q 516.67 101.22 516.79 85.00
  C 516.82 81.57 518.21 80.02 520.83 78.27
  A 1.80 1.57 24.1 0 1 521.75 77.99
  Q 538.43 77.55 555.12 77.78
  C 558.45 77.83 560.38 79.34 561.44 82.31
  Q 565.99 95.14 572.11 113.78
  C 573.44 117.85 574.23 121.30 570.51 123.93
  C 566.45 126.80 561.67 124.66 560.00 120.25
  Q 557.11 112.62 550.59 91.79
  A 0.89 0.82 85.4 0 0 549.94 91.19
  Z"
/>
<path fill="#010101" fill-opacity="0.996" d="
  M 582.79 86.31
  C 583.21 86.34 585.41 81.84 586.74 80.90
  Q 589.52 78.93 589.48 82.25
  L 589.34 92.82
  A 0.56 0.52 -88.9 0 1 588.81 93.37
  L 584.75 93.32
  Q 584.15 93.31 583.79 93.44
  Q 582.01 94.07 581.44 92.42
  A 0.81 0.42 73.2 0 0 580.84 91.80
  Q 580.41 91.89 580.00 92.83
  A 1.00 0.99 -83.4 0 1 579.29 93.40
  Q 577.94 93.66 577.02 93.38
  A 0.76 0.64 -82.9 0 1 576.56 92.68
  L 576.44 85.57
  A 1.02 0.89 -75.2 0 0 576.04 84.76
  C 573.64 83.13 574.48 91.67 574.45 92.68
  A 0.73 0.67 83.0 0 1 573.97 93.35
  Q 572.61 93.77 571.23 93.40
  A 0.76 0.73 -86.1 0 1 570.69 92.76
  C 570.50 91.08 571.37 83.96 568.89 84.47
  A 0.88 0.87 -13.2 0 1 567.86 83.84
  Q 566.89 80.25 569.01 80.32
  Q 573.37 80.46 578.93 80.51
  A 2.75 2.74 75.0 0 1 581.28 81.87
  Q 582.34 83.70 582.33 85.70
  A 0.62 0.50 -88.0 0 0 582.79 86.31
  Z
  M 576.71 83.00
  Q 577.12 83.42 577.71 83.25
  C 577.68 85.13 577.34 90.17 578.11 91.69
  C 579.45 94.35 579.42 87.24 579.46 87.05
  A 0.39 0.37 18.2 0 1 580.00 86.79
  L 580.97 87.24
  A 0.32 0.32 11.0 0 0 581.43 86.93
  C 581.31 85.34 579.90 82.07 578.00 82.04
  Q 577.23 81.40 576.46 82.00
  L 569.82 81.78
  A 0.92 0.68 9.6 0 0 569.00 82.20
  Q 568.66 83.00 571.13 83.56
  A 0.92 0.85 -84.4 0 1 571.79 84.43
  L 571.94 91.25
  A 1.10 1.05 18.9 0 0 572.37 92.08
  C 573.83 93.22 573.25 85.29 573.25 84.01
  A 0.92 0.80 -2.7 0 1 574.09 83.20
  L 576.71 83.00
  Z
  M 585.50 88.04
  Q 585.47 89.13 586.71 88.75
  L 586.93 91.45
  A 0.91 0.84 9.6 0 0 587.50 92.19
  C 588.73 92.67 588.25 84.50 588.25 83.45
  Q 588.25 81.14 586.89 83.01
  C 586.59 83.41 583.24 88.33 585.50 88.04
  Z
  M 584.06 90.83
  Q 584.62 88.05 582.05 88.67
  A 0.44 0.38 -22.5 0 0 581.75 89.27
  L 583.02 91.16
  Q 583.77 92.27 584.06 90.83
  Z"
/>
<path fill="#f8f7f6" fill-opacity="0.980" d="
  M 576.46 82.00
  Q 577.17 82.50 576.71 83.00
  L 574.09 83.20
  A 0.92 0.80 -2.7 0 0 573.25 84.01
  C 573.25 85.29 573.83 93.22 572.37 92.08
  A 1.10 1.05 18.9 0 1 571.94 91.25
  L 571.79 84.43
  A 0.92 0.85 -84.4 0 0 571.13 83.56
  Q 568.66 83.00 569.00 82.20
  A 0.92 0.68 9.6 0 1 569.82 81.78
  L 576.46 82.00
  Z"
/>
<path fill="#030402" fill-opacity="0.365" d="
  M 578.00 82.04
  Q 577.65 82.58 577.71 83.25
  Q 577.12 83.42 576.71 83.00
  Q 577.17 82.50 576.46 82.00
  Q 577.23 81.40 578.00 82.04
  Z"
/>
<path fill="#f8f7f6" fill-opacity="0.980" d="
  M 578.00 82.04
  C 579.90 82.07 581.31 85.34 581.43 86.93
  A 0.32 0.32 11.0 0 1 580.97 87.24
  L 580.00 86.79
  A 0.39 0.37 18.2 0 0 579.46 87.05
  C 579.42 87.24 579.45 94.35 578.11 91.69
  C 577.34 90.17 577.68 85.13 577.71 83.25
  Q 577.65 82.58 578.00 82.04
  Z"
/>
<path fill="#f8f7f6" fill-opacity="0.980" d="
  M 586.71 88.75
  Q 587.14 84.11 585.50 88.04
  C 583.24 88.33 586.59 83.41 586.89 83.01
  Q 588.25 81.14 588.25 83.45
  C 588.25 84.50 588.73 92.67 587.50 92.19
  A 0.91 0.84 9.6 0 1 586.93 91.45
  L 586.71 88.75
  Z"
/>
<path fill="#030402" fill-opacity="0.365" d="
  M 586.71 88.75
  Q 585.47 89.13 585.50 88.04
  Q 587.14 84.11 586.71 88.75
  Z"
/>
<path fill="#030402" fill-opacity="0.365" d="
  M 465.96 87.00
  Q 466.11 87.66 465.79 88.25
  Q 465.39 89.27 464.54 89.75
  Q 464.84 88.15 465.96 87.00
  Z"
/>
<path fill="#f8f7f6" fill-opacity="0.980" d="
  M 584.06 90.83
  Q 583.77 92.27 583.02 91.16
  L 581.75 89.27
  A 0.44 0.38 -22.5 0 1 582.05 88.67
  Q 584.62 88.05 584.06 90.83
  Z"
/>
<path fill="#010101" fill-opacity="0.996" d="
  M 499.8407 107.4360
  A 3.48 3.48 0.0 0 1 496.3729 110.9281
  L 483.8530 110.9718
  A 3.48 3.48 0.0 0 1 480.3609 107.5040
  L 480.3193 95.5840
  A 3.48 3.48 0.0 0 1 483.7871 92.0919
  L 496.3070 92.0482
  A 3.48 3.48 0.0 0 1 499.7991 95.5160
  L 499.8407 107.4360
  Z
  M 498.5549 96.5857
  A 3.23 3.23 0.0 0 0 495.3080 93.3726
  L 484.8081 93.4276
  A 3.23 3.23 0.0 0 0 481.5951 96.6745
  L 481.6451 106.2343
  A 3.23 3.23 0.0 0 0 484.8920 109.4474
  L 495.3919 109.3924
  A 3.23 3.23 0.0 0 0 498.6049 106.1455
  L 498.5549 96.5857
  Z"
/>
<path fill="#010101" fill-opacity="0.996" d="
  M 401.6972 107.9110
  A 3.10 3.10 0.0 0 1 398.5810 110.9947
  L 385.2612 110.9250
  A 3.10 3.10 0.0 0 1 382.1775 107.8088
  L 382.2428 95.3290
  A 3.10 3.10 0.0 0 1 385.3590 92.2453
  L 398.6788 92.3150
  A 3.10 3.10 0.0 0 1 401.7625 95.4312
  L 401.6972 107.9110
  Z
  M 400.4346 96.4041
  A 2.80 2.80 0.0 0 0 397.6592 93.5798
  L 386.3196 93.4808
  A 2.80 2.80 0.0 0 0 383.4953 96.2563
  L 383.4054 106.5559
  A 2.80 2.80 0.0 0 0 386.1808 109.3802
  L 397.5204 109.4792
  A 2.80 2.80 0.0 0 0 400.3447 106.7037
  L 400.4346 96.4041
  Z"
/>
<path fill="#030402" fill-opacity="0.365" d="
  M 532.54 100.75
  L 532.27 96.81
  A 0.46 0.36 75.8 0 0 531.71 96.38
  C 531.17 96.70 531.20 113.39 531.21 115.24
  L 531.05 93.81
  A 1.02 0.79 78.0 0 1 531.44 93.00
  Q 532.07 92.62 532.63 93.17
  A 1.29 1.03 -69.9 0 1 532.93 94.07
  L 532.54 100.75
  Z"
/>
<path fill="#010101" fill-opacity="0.996" d="
  M 221.33 187.54
  Q 222.15 189.84 223.06 187.57
  C 226.17 179.81 228.83 172.38 232.29 164.27
  Q 235.03 157.84 237.39 151.26
  Q 239.37 145.73 241.60 139.99
  A 2.34 2.34 10.6 0 1 243.78 138.50
  L 263.33 138.50
  A 0.92 0.91 -5.8 0 1 264.23 139.23
  Q 265.23 143.96 261.98 143.58
  A 1.85 1.30 26.6 0 0 261.04 143.72
  L 260.13 144.19
  Q 259.70 144.41 259.19 144.44
  Q 256.38 144.60 256.47 147.51
  A 1.48 1.41 -28.7 0 1 256.19 148.39
  Q 255.50 149.34 255.50 150.25
  Q 255.50 176.75 255.50 203.25
  Q 255.50 204.68 257.24 206.62
  C 259.95 209.64 262.51 209.15 265.09 206.19
  Q 265.71 205.48 266.18 204.66
  Q 269.09 199.60 270.63 195.30
  Q 280.95 166.62 292.13 138.27
  A 1.68 1.42 87.9 0 1 292.71 137.53
  Q 295.16 135.87 298.09 136.78
  A 1.10 1.02 85.6 0 1 298.76 137.40
  C 301.77 144.39 304.47 153.17 306.56 158.77
  Q 314.31 179.58 315.50 183.75
  Q 316.31 186.57 317.18 188.63
  C 319.60 194.34 320.78 199.81 324.11 205.21
  C 325.42 207.33 327.20 208.01 329.45 208.68
  A 1.08 0.95 -0.0 0 1 330.13 209.28
  Q 330.97 211.58 330.33 213.96
  A 0.68 0.65 7.2 0 1 329.68 214.44
  L 302.59 214.50
  A 1.09 1.09 89.8 0 1 301.50 213.41
  L 301.50 209.65
  A 1.28 1.28 6.5 0 1 303.07 208.40
  C 308.91 209.75 307.84 204.02 306.50 201.00
  Q 304.82 197.19 303.12 192.12
  Q 302.58 190.50 300.87 190.50
  Q 293.00 190.50 284.50 190.39
  Q 281.59 190.35 281.49 193.00
  Q 281.48 193.54 281.27 193.94
  C 280.13 196.18 275.04 206.59 278.94 207.70
  Q 279.36 207.82 279.80 208.15
  Q 280.70 208.81 282.09 208.48
  A 1.15 1.14 -6.6 0 1 283.50 209.59
  L 283.50 213.51
  A 0.99 0.99 0.0 0 1 282.51 214.50
  L 235.50 214.50
  A 2.39 1.60 78.8 0 1 233.75 212.75
  C 232.76 209.37 234.79 208.95 237.65 208.53
  Q 240.24 208.14 241.50 205.50
  Q 242.43 203.54 242.44 202.44
  L 242.68 166.56
  A 0.56 0.49 -90.0 0 0 242.19 166.00
  Q 241.13 166.02 240.84 167.32
  Q 239.75 172.36 237.70 177.09
  Q 232.51 189.11 231.50 192.00
  Q 229.05 199.03 227.10 203.25
  C 226.49 204.56 226.47 206.53 225.16 207.96
  Q 224.96 208.19 224.72 208.81
  L 222.95 213.51
  A 1.29 0.85 -6.4 0 1 222.22 214.12
  Q 219.84 214.95 217.41 214.22
  A 1.37 1.24 80.7 0 1 216.67 213.63
  Q 215.32 211.44 214.49 209.00
  Q 211.54 200.30 207.71 191.95
  Q 207.56 191.62 207.54 191.00
  Q 207.53 190.57 207.35 190.17
  Q 201.84 177.81 197.36 165.05
  C 197.23 164.70 196.93 164.38 196.57 164.57
  A 0.72 0.44 81.2 0 0 196.32 165.17
  Q 196.61 180.19 196.51 195.22
  Q 196.50 196.64 196.98 198.21
  C 198.17 202.07 195.97 205.15 199.67 208.14
  A 1.42 1.08 -21.4 0 0 200.56 208.39
  Q 202.77 208.28 204.76 209.68
  A 1.31 1.29 12.5 0 1 205.28 210.48
  Q 206.21 214.84 203.18 214.60
  C 195.76 214.02 187.81 214.51 180.32 214.44
  A 0.68 0.65 -7.2 0 1 179.67 213.96
  Q 178.13 208.32 183.99 208.48
  A 1.74 1.29 21.4 0 0 184.92 208.23
  C 187.57 206.45 188.50 204.23 188.50 200.88
  Q 188.50 175.50 188.50 151.57
  Q 188.50 149.22 187.21 147.25
  Q 185.47 144.59 183.56 144.44
  A 1.66 1.43 -19.9 0 1 182.70 144.11
  Q 181.66 143.29 180.31 143.38
  A 0.63 0.56 -7.9 0 1 179.68 142.96
  Q 179.17 141.00 179.67 139.04
  A 0.67 0.65 7.4 0 1 180.31 138.56
  L 201.19 138.55
  A 1.40 1.39 79.1 0 1 202.48 139.43
  C 209.09 156.02 215.72 171.65 221.33 187.54
  Z
  M 323.56 207.69
  Q 320.23 202.73 318.28 197.07
  Q 308.74 169.29 298.74 141.66
  C 297.96 139.49 297.84 137.23 294.80 137.71
  A 1.13 1.08 -77.9 0 0 294.04 138.23
  Q 292.94 139.99 291.69 143.44
  Q 288.17 153.09 271.27 197.62
  C 269.46 202.39 268.30 205.84 264.44 209.44
  C 263.97 209.87 261.97 209.78 261.19 209.85
  C 256.14 210.33 254.53 207.14 254.46 202.54
  Q 254.07 178.39 254.25 154.25
  Q 254.30 148.05 255.75 144.40
  A 1.19 0.85 -82.2 0 1 256.39 143.72
  L 262.00 142.07
  Q 262.69 141.86 262.88 141.66
  C 264.03 140.48 262.59 139.75 261.49 139.75
  Q 253.70 139.75 245.08 139.75
  A 2.13 2.12 10.7 0 0 243.10 141.09
  L 223.50 191.01
  Q 222.52 193.49 221.42 191.07
  Q 217.87 183.28 214.46 174.40
  Q 207.86 157.26 201.18 140.48
  A 1.16 1.13 78.9 0 0 200.12 139.75
  L 182.05 139.81
  A 1.41 1.11 18.9 0 0 181.17 140.12
  Q 180.22 141.01 181.12 141.92
  A 1.48 1.03 -12.4 0 0 182.00 142.28
  C 188.87 142.84 189.75 147.12 189.75 153.33
  Q 189.75 177.92 189.75 202.50
  Q 189.75 207.17 186.43 209.47
  A 1.79 1.47 22.4 0 1 185.51 209.75
  C 184.50 209.79 178.86 210.71 181.11 212.94
  A 1.36 0.94 -15.3 0 0 181.99 213.25
  Q 191.82 213.25 201.64 213.25
  C 202.83 213.25 206.03 212.55 203.91 211.07
  Q 202.93 210.38 201.74 210.18
  C 195.92 209.20 196.61 207.71 195.92 202.19
  C 194.33 189.42 195.18 175.41 195.43 162.52
  C 195.45 161.30 196.47 159.31 197.43 161.66
  Q 207.73 186.83 217.57 212.20
  Q 218.49 214.58 220.61 213.16
  C 222.47 211.91 222.88 209.90 223.67 207.89
  Q 232.40 185.66 240.92 163.35
  C 241.47 161.94 243.77 157.97 243.81 163.50
  Q 243.93 184.00 243.50 204.50
  Q 243.45 206.88 241.07 208.85
  C 239.50 210.16 236.87 209.68 235.81 210.56
  Q 232.72 213.15 237.00 213.17
  Q 258.75 213.25 281.40 213.25
  A 0.65 0.64 -83.9 0 0 282.03 212.74
  Q 282.71 209.64 280.84 209.67
  C 275.11 209.79 275.01 206.14 276.48 201.82
  Q 278.44 196.05 280.56 190.72
  A 2.34 2.34 -79.0 0 1 282.73 189.25
  L 302.39 189.25
  A 2.12 2.12 80.6 0 1 304.40 190.69
  C 305.60 194.27 313.99 211.25 303.99 209.83
  A 0.91 0.80 21.2 0 0 303.17 210.13
  Q 302.19 211.41 303.03 212.78
  A 0.97 0.84 -13.6 0 0 303.82 213.19
  L 328.44 213.25
  A 0.66 0.66 -83.3 0 0 329.08 212.74
  Q 329.81 209.58 327.50 209.75
  Q 325.07 209.93 323.56 207.69
  Z"
/>
<path fill="#010101" fill-opacity="0.996" d="
  M 490.32 206.95
  Q 491.20 208.54 492.80 208.49
  Q 498.68 208.32 497.32 213.94
  A 0.65 0.63 -83.1 0 1 496.70 214.44
  L 416.43 214.50
  A 0.80 0.80 -6.3 0 1 415.65 213.88
  C 413.93 206.54 420.62 210.30 423.31 206.06
  Q 424.50 204.20 424.50 202.00
  L 424.50 180.52
  A 1.02 1.02 89.8 0 0 423.48 179.50
  L 400.06 179.50
  A 0.56 0.56 0.0 0 0 399.50 180.06
  C 399.50 184.10 398.52 201.22 400.13 203.67
  A 2.03 1.42 35.0 0 1 400.45 204.55
  Q 400.60 207.23 403.03 208.31
  A 2.06 1.15 -22.7 0 0 403.99 208.42
  Q 405.67 208.22 406.94 209.31
  Q 408.20 210.40 408.50 212.00
  C 409.09 215.19 406.93 214.49 404.96 214.51
  Q 391.85 214.67 378.75 214.27
  A 0.92 0.88 -12.6 0 1 377.99 213.81
  C 375.98 210.19 378.46 209.22 381.53 208.53
  C 385.69 207.60 386.50 204.27 386.50 200.22
  Q 386.50 175.81 386.50 151.40
  C 386.50 149.83 386.82 148.78 385.81 147.44
  Q 384.88 146.20 383.56 145.19
  Q 381.96 143.96 379.38 143.36
  A 1.51 1.51 -82.7 0 0 377.53 144.79
  Q 377.40 149.88 377.56 154.26
  C 377.67 157.27 379.18 160.82 378.31 164.70
  A 0.78 0.77 -89.4 0 1 377.71 165.29
  Q 374.88 165.86 372.06 165.30
  A 0.58 0.57 -82.5 0 1 371.61 164.70
  C 371.73 162.74 370.77 161.26 370.38 159.91
  C 364.39 139.24 343.59 139.98 336.95 159.98
  Q 331.15 177.46 337.31 193.44
  C 339.93 200.23 347.88 207.90 355.79 207.50
  C 364.10 207.08 370.11 199.60 373.52 193.20
  A 0.94 0.82 -75.5 0 1 374.25 192.70
  L 378.55 192.50
  A 0.97 0.92 89.2 0 1 379.51 193.48
  C 379.34 202.32 371.85 210.92 363.79 214.23
  C 357.31 216.89 341.79 215.98 336.25 212.96
  C 333.28 211.34 331.12 208.17 328.27 205.74
  Q 327.78 205.33 327.41 204.81
  Q 321.88 197.15 320.50 189.00
  Q 320.23 187.43 319.97 186.70
  Q 319.74 186.08 319.72 185.75
  C 319.42 180.87 318.79 173.72 319.89 169.02
  Q 320.46 166.59 320.46 166.54
  C 322.19 154.44 329.41 143.64 341.00 138.50
  C 343.40 137.44 345.51 137.56 347.61 137.00
  C 354.22 135.24 361.91 137.32 368.17 140.14
  A 0.98 0.97 15.1 0 0 369.54 139.36
  C 369.92 135.98 372.61 136.32 375.22 136.43
  C 377.77 136.54 375.12 143.62 378.18 138.94
  A 0.93 0.91 -72.8 0 1 378.97 138.51
  L 407.74 138.73
  A 0.66 0.65 -5.5 0 1 408.37 139.24
  Q 408.79 141.07 408.46 142.44
  A 1.25 1.25 3.0 0 1 407.40 143.39
  Q 401.22 144.16 400.27 149.20
  Q 400.20 149.57 399.84 150.06
  C 398.83 151.44 399.50 168.69 399.50 171.59
  A 0.91 0.91 -0.1 0 0 400.41 172.50
  L 423.36 172.50
  A 1.14 1.14 0.0 0 0 424.50 171.36
  L 424.50 154.43
  Q 424.50 152.72 424.20 151.03
  Q 423.09 144.81 418.41 143.64
  C 415.53 142.92 414.91 143.91 415.79 139.55
  A 1.31 1.31 -84.3 0 1 417.07 138.50
  L 488.43 138.50
  A 1.78 1.76 72.4 0 1 489.88 139.26
  L 522.46 186.08
  A 0.82 0.49 58.3 0 0 523.23 186.48
  C 524.36 186.02 523.05 157.13 522.90 154.00
  C 522.61 147.99 523.13 144.24 516.37 143.48
  Q 513.70 143.18 515.03 139.15
  A 0.95 0.94 8.9 0 1 515.93 138.50
  L 587.55 138.50
  A 0.95 0.95 0.1 0 1 588.50 139.45
  L 588.50 156.51
  A 0.99 0.99 0.0 0 1 587.51 157.50
  L 583.73 157.50
  Q 581.55 157.50 581.50 155.31
  Q 581.37 149.86 576.94 146.56
  Q 575.57 145.55 573.69 145.56
  L 558.19 145.66
  A 0.55 0.53 -89.4 0 0 557.67 146.19
  Q 557.37 157.08 557.49 167.98
  C 557.54 172.08 557.45 171.35 561.23 171.59
  Q 563.76 171.75 566.18 171.15
  C 569.71 170.28 572.58 171.10 575.06 167.31
  Q 576.86 164.57 576.50 163.00
  C 575.66 159.37 580.30 160.24 581.96 160.67
  A 0.67 0.65 -82.6 0 1 582.44 161.31
  Q 582.55 174.15 582.52 187.00
  Q 582.51 190.16 579.73 189.40
  Q 579.26 189.27 578.75 189.32
  C 576.02 189.59 576.64 187.12 576.10 185.69
  C 575.22 183.33 574.80 180.67 572.41 179.31
  C 569.69 177.77 562.09 178.44 558.51 178.53
  A 1.01 0.98 -1.2 0 0 557.53 179.52
  L 557.73 198.51
  A 1.82 0.85 45.5 0 0 558.05 199.41
  C 559.78 202.17 556.05 206.86 562.25 206.54
  A 1.79 1.70 -31.4 0 1 563.18 206.74
  C 566.77 208.69 569.88 206.46 573.31 206.44
  C 577.20 206.42 579.10 205.67 581.50 202.25
  Q 584.55 197.90 586.77 194.46
  Q 587.77 192.93 589.57 192.62
  C 593.70 191.91 593.91 193.80 593.14 197.08
  Q 591.51 204.07 588.43 213.54
  A 1.30 1.29 -81.0 0 1 587.20 214.44
  L 536.32 214.44
  A 0.70 0.66 -7.8 0 1 535.66 213.97
  C 533.09 205.34 544.50 212.29 544.50 201.82
  Q 544.50 175.02 544.50 147.81
  A 1.43 1.39 -65.7 0 0 544.17 146.90
  Q 541.39 143.54 537.74 143.49
  A 1.70 1.03 -51.8 0 0 536.86 143.82
  Q 535.82 144.54 534.50 144.50
  Q 532.39 144.43 532.50 146.75
  Q 532.56 147.97 531.88 148.93
  A 1.69 1.23 -34.2 0 0 531.56 149.82
  L 531.50 214.73
  A 0.72 0.71 89.6 0 1 530.80 215.45
  L 525.76 215.51
  A 0.97 0.95 72.3 0 1 524.97 215.09
  L 489.79 165.20
  Q 488.44 163.30 488.45 165.62
  L 488.49 203.26
  Q 488.49 203.64 488.78 204.17
  L 490.32 206.95
  Z
  M 373.28 137.80
  C 370.64 136.94 372.19 144.14 366.03 141.25
  C 344.98 131.38 326.99 144.91 322.25 165.50
  Q 317.95 184.16 326.42 200.13
  C 330.56 207.94 339.26 214.21 348.00 214.34
  C 356.29 214.47 363.17 214.39 369.39 208.90
  Q 374.97 203.97 377.81 197.14
  C 379.29 193.57 376.45 192.40 374.49 195.18
  C 369.73 201.88 365.80 207.90 357.10 208.73
  C 346.39 209.74 337.89 201.31 335.17 191.32
  C 331.71 178.63 332.08 156.36 343.03 147.05
  C 347.65 143.13 354.94 141.75 360.78 144.71
  C 367.66 148.19 371.76 156.42 372.98 163.69
  A 0.66 0.55 83.1 0 0 373.56 164.24
  L 376.57 164.15
  A 0.69 0.60 -85.8 0 0 377.15 163.57
  C 377.56 160.99 376.51 158.62 376.44 156.47
  Q 376.23 150.08 376.04 143.69
  C 375.99 142.12 375.11 140.80 375.28 139.00
  Q 375.39 137.75 374.25 137.89
  Q 373.74 137.95 373.28 137.80
  Z
  M 487.51 162.63
  Q 487.60 159.04 489.67 161.98
  L 526.03 213.78
  A 1.01 0.89 70.8 0 0 526.81 214.22
  L 529.52 214.24
  A 0.75 0.72 -89.6 0 0 530.25 213.49
  Q 530.25 181.45 530.25 150.13
  C 530.25 148.17 530.86 146.68 531.47 144.83
  A 2.08 2.08 -3.5 0 1 532.54 143.62
  Q 540.40 139.89 545.37 145.68
  A 1.38 1.30 -66.8 0 1 545.69 146.56
  Q 545.80 175.66 545.78 204.75
  C 545.78 209.37 542.14 209.43 538.72 210.32
  C 536.78 210.83 535.27 213.13 538.75 213.25
  Q 548.21 213.58 586.30 213.07
  A 0.76 0.74 9.7 0 0 586.99 212.60
  Q 590.26 203.99 592.24 195.05
  A 1.13 1.13 -78.8 0 0 591.33 193.69
  Q 588.77 193.25 587.67 195.50
  Q 585.21 200.56 581.68 204.95
  Q 579.73 207.37 576.66 207.85
  Q 569.50 208.96 560.26 208.17
  Q 557.75 207.95 557.38 205.47
  Q 555.41 192.39 556.46 178.00
  A 0.60 0.59 89.5 0 1 556.99 177.45
  Q 563.74 176.80 570.48 177.34
  C 576.24 177.80 577.14 182.54 577.92 187.27
  A 0.97 0.92 -83.9 0 0 578.45 187.97
  Q 581.39 189.32 581.28 186.23
  C 581.00 178.38 581.26 170.42 581.19 162.56
  A 0.76 0.73 -79.9 0 0 580.72 161.86
  Q 577.92 160.79 577.75 163.75
  C 577.52 167.70 575.34 171.16 571.10 171.86
  Q 564.03 173.01 557.12 172.76
  A 0.90 0.89 1.0 0 1 556.25 171.87
  L 556.25 144.91
  A 0.66 0.66 -89.5 0 1 556.91 144.25
  Q 564.75 144.25 572.25 144.24
  Q 581.76 144.22 582.81 153.49
  Q 583.23 157.18 586.71 156.10
  A 0.69 0.69 -8.6 0 0 587.20 155.44
  L 587.20 140.49
  A 0.76 0.75 -0.4 0 0 586.44 139.75
  Q 551.25 139.77 517.50 139.75
  Q 514.78 139.75 516.03 141.77
  A 0.99 0.86 -13.0 0 0 516.82 142.19
  C 520.88 142.27 523.65 144.22 523.88 148.54
  Q 524.66 162.69 524.75 187.75
  Q 524.76 189.67 523.51 189.77
  A 1.00 0.78 66.9 0 1 522.71 189.33
  L 488.95 140.85
  A 2.42 2.41 -17.3 0 0 486.96 139.81
  L 418.31 139.81
  A 1.36 1.18 20.9 0 0 417.44 140.13
  Q 415.44 141.96 418.50 142.28
  C 425.70 143.02 425.75 148.92 425.75 154.75
  Q 425.75 164.00 425.75 172.87
  A 0.88 0.87 -90.0 0 1 424.88 173.75
  L 398.82 173.69
  A 0.51 0.50 0.0 0 1 398.31 173.19
  Q 398.14 155.44 398.25 150.75
  Q 398.44 142.72 406.31 142.10
  A 1.07 0.86 8.8 0 0 407.09 141.65
  C 407.88 140.23 406.65 139.75 405.46 139.75
  Q 392.98 139.75 380.50 139.70
  Q 378.07 139.69 378.86 141.72
  A 0.80 0.67 -7.7 0 0 379.57 142.17
  C 383.33 142.26 387.52 144.12 387.56 148.50
  Q 387.74 172.90 387.75 197.30
  C 387.75 203.92 388.62 208.91 381.50 210.18
  C 378.01 210.80 377.23 213.25 381.73 213.25
  Q 393.21 213.25 404.70 213.25
  C 406.19 213.25 408.06 213.70 407.06 211.19
  Q 406.47 209.70 404.44 209.81
  Q 400.12 210.04 398.86 205.16
  Q 398.25 202.79 398.25 200.34
  L 398.25 179.06
  A 0.81 0.81 0.0 0 1 399.06 178.25
  L 424.88 178.25
  A 0.87 0.87 0.0 0 1 425.75 179.12
  L 425.75 201.68
  Q 425.75 204.64 424.45 207.29
  Q 423.17 209.88 419.90 209.80
  Q 418.11 209.75 417.04 211.18
  C 415.68 212.99 417.85 213.25 419.05 213.25
  Q 456.52 213.25 494.00 213.02
  Q 497.89 212.99 495.39 210.82
  A 1.74 1.46 -17.3 0 0 494.51 210.45
  C 486.48 209.46 487.27 204.18 487.21 197.03
  Q 487.07 178.99 487.51 162.63
  Z"
/>
<path fill="#f8f7f6" fill-opacity="0.980" d="
  M 323.56 207.69
  Q 325.07 209.93 327.50 209.75
  Q 329.81 209.58 329.08 212.74
  A 0.66 0.66 -83.3 0 1 328.44 213.25
  L 303.82 213.19
  A 0.97 0.84 -13.6 0 1 303.03 212.78
  Q 302.19 211.41 303.17 210.13
  A 0.91 0.80 21.2 0 1 303.99 209.83
  C 313.99 211.25 305.60 194.27 304.40 190.69
  A 2.12 2.12 80.6 0 0 302.39 189.25
  L 282.73 189.25
  A 2.34 2.34 -79.0 0 0 280.56 190.72
  Q 278.44 196.05 276.48 201.82
  C 275.01 206.14 275.11 209.79 280.84 209.67
  Q 282.71 209.64 282.03 212.74
  A 0.65 0.64 -83.9 0 1 281.40 213.25
  Q 258.75 213.25 237.00 213.17
  Q 232.72 213.15 235.81 210.56
  C 236.87 209.68 239.50 210.16 241.07 208.85
  Q 243.45 206.88 243.50 204.50
  Q 243.93 184.00 243.81 163.50
  C 243.77 157.97 241.47 161.94 240.92 163.35
  Q 232.40 185.66 223.67 207.89
  C 222.88 209.90 222.47 211.91 220.61 213.16
  Q 218.49 214.58 217.57 212.20
  Q 207.73 186.83 197.43 161.66
  C 196.47 159.31 195.45 161.30 195.43 162.52
  C 195.18 175.41 194.33 189.42 195.92 202.19
  C 196.61 207.71 195.92 209.20 201.74 210.18
  Q 202.93 210.38 203.91 211.07
  C 206.03 212.55 202.83 213.25 201.64 213.25
  Q 191.82 213.25 181.99 213.25
  A 1.36 0.94 -15.3 0 1 181.11 212.94
  C 178.86 210.71 184.50 209.79 185.51 209.75
  A 1.79 1.47 22.4 0 0 186.43 209.47
  Q 189.75 207.17 189.75 202.50
  Q 189.75 177.92 189.75 153.33
  C 189.75 147.12 188.87 142.84 182.00 142.28
  A 1.48 1.03 -12.4 0 1 181.12 141.92
  Q 180.22 141.01 181.17 140.12
  A 1.41 1.11 18.9 0 1 182.05 139.81
  L 200.12 139.75
  A 1.16 1.13 78.9 0 1 201.18 140.48
  Q 207.86 157.26 214.46 174.40
  Q 217.87 183.28 221.42 191.07
  Q 222.52 193.49 223.50 191.01
  L 243.10 141.09
  A 2.13 2.12 10.7 0 1 245.08 139.75
  Q 253.70 139.75 261.49 139.75
  C 262.59 139.75 264.03 140.48 262.88 141.66
  Q 262.69 141.86 262.00 142.07
  L 256.39 143.72
  A 1.19 0.85 -82.2 0 0 255.75 144.40
  Q 254.30 148.05 254.25 154.25
  Q 254.07 178.39 254.46 202.54
  C 254.53 207.14 256.14 210.33 261.19 209.85
  C 261.97 209.78 263.97 209.87 264.44 209.44
  C 268.30 205.84 269.46 202.39 271.27 197.62
  Q 288.17 153.09 291.69 143.44
  Q 292.94 139.99 294.04 138.23
  A 1.13 1.08 -77.9 0 1 294.80 137.71
  C 297.84 137.23 297.96 139.49 298.74 141.66
  Q 308.74 169.29 318.28 197.07
  Q 320.23 202.73 323.56 207.69
  Z
  M 292.08 161.12
  Q 288.14 169.91 285.25 178.75
  Q 284.32 181.61 284.29 183.19
  A 0.53 0.51 0.6 0 0 284.81 183.70
  L 300.05 183.75
  A 0.99 0.98 82.8 0 0 301.00 182.51
  Q 298.45 172.75 294.66 163.40
  Q 294.03 161.84 293.27 160.95
  A 0.71 0.71 36.8 0 0 292.08 161.12
  Z"
/>
<path fill="#f8f7f6" fill-opacity="0.980" d="
  M 366.03 141.25
  C 372.19 144.14 370.64 136.94 373.28 137.80
  Q 373.74 137.95 374.25 137.89
  Q 375.39 137.75 375.28 139.00
  C 375.11 140.80 375.99 142.12 376.04 143.69
  Q 376.23 150.08 376.44 156.47
  C 376.51 158.62 377.56 160.99 377.15 163.57
  A 0.69 0.60 -85.8 0 1 376.57 164.15
  L 373.56 164.24
  A 0.66 0.55 83.1 0 1 372.98 163.69
  C 371.76 156.42 367.66 148.19 360.78 144.71
  C 354.94 141.75 347.65 143.13 343.03 147.05
  C 332.08 156.36 331.71 178.63 335.17 191.32
  C 337.89 201.31 346.39 209.74 357.10 208.73
  C 365.80 207.90 369.73 201.88 374.49 195.18
  C 376.45 192.40 379.29 193.57 377.81 197.14
  Q 374.97 203.97 369.39 208.90
  C 363.17 214.39 356.29 214.47 348.00 214.34
  C 339.26 214.21 330.56 207.94 326.42 200.13
  Q 317.95 184.16 322.25 165.50
  C 326.99 144.91 344.98 131.38 366.03 141.25
  Z"
/>
<path fill="#f8f7f6" fill-opacity="0.980" d="
  M 487.51 162.63
  Q 487.07 178.99 487.21 197.03
  C 487.27 204.18 486.48 209.46 494.51 210.45
  A 1.74 1.46 -17.3 0 1 495.39 210.82
  Q 497.89 212.99 494.00 213.02
  Q 456.52 213.25 419.05 213.25
  C 417.85 213.25 415.68 212.99 417.04 211.18
  Q 418.11 209.75 419.90 209.80
  Q 423.17 209.88 424.45 207.29
  Q 425.75 204.64 425.75 201.68
  L 425.75 179.12
  A 0.87 0.87 0.0 0 0 424.88 178.25
  L 399.06 178.25
  A 0.81 0.81 0.0 0 0 398.25 179.06
  L 398.25 200.34
  Q 398.25 202.79 398.86 205.16
  Q 400.12 210.04 404.44 209.81
  Q 406.47 209.70 407.06 211.19
  C 408.06 213.70 406.19 213.25 404.70 213.25
  Q 393.21 213.25 381.73 213.25
  C 377.23 213.25 378.01 210.80 381.50 210.18
  C 388.62 208.91 387.75 203.92 387.75 197.30
  Q 387.74 172.90 387.56 148.50
  C 387.52 144.12 383.33 142.26 379.57 142.17
  A 0.80 0.67 -7.7 0 1 378.86 141.72
  Q 378.07 139.69 380.50 139.70
  Q 392.98 139.75 405.46 139.75
  C 406.65 139.75 407.88 140.23 407.09 141.65
  A 1.07 0.86 8.8 0 1 406.31 142.10
  Q 398.44 142.72 398.25 150.75
  Q 398.14 155.44 398.31 173.19
  A 0.51 0.50 0.0 0 0 398.82 173.69
  L 424.88 173.75
  A 0.88 0.87 90.0 0 0 425.75 172.87
  Q 425.75 164.00 425.75 154.75
  C 425.75 148.92 425.70 143.02 418.50 142.28
  Q 415.44 141.96 417.44 140.13
  A 1.36 1.18 20.9 0 1 418.31 139.81
  L 486.96 139.81
  A 2.42 2.41 -17.3 0 1 488.95 140.85
  L 522.71 189.33
  A 1.00 0.78 66.9 0 0 523.51 189.77
  Q 524.76 189.67 524.75 187.75
  Q 524.66 162.69 523.88 148.54
  C 523.65 144.22 520.88 142.27 516.82 142.19
  A 0.99 0.86 -13.0 0 1 516.03 141.77
  Q 514.78 139.75 517.50 139.75
  Q 551.25 139.77 586.44 139.75
  A 0.76 0.75 -0.4 0 1 587.20 140.49
  L 587.20 155.44
  A 0.69 0.69 -8.6 0 1 586.71 156.10
  Q 583.23 157.18 582.81 153.49
  Q 581.76 144.22 572.25 144.24
  Q 564.75 144.25 556.91 144.25
  A 0.66 0.66 90.0 0 0 556.25 144.91
  L 556.25 171.87
  A 0.90 0.89 1.0 0 0 557.12 172.76
  Q 564.03 173.01 571.10 171.86
  C 575.34 171.16 577.52 167.70 577.75 163.75
  Q 577.92 160.79 580.72 161.86
  A 0.76 0.73 -79.9 0 1 581.19 162.56
  C 581.26 170.42 581.00 178.38 581.28 186.23
  Q 581.39 189.32 578.45 187.97
  A 0.97 0.92 -83.9 0 1 577.92 187.27
  C 577.14 182.54 576.24 177.80 570.48 177.34
  Q 563.74 176.80 556.99 177.45
  A 0.60 0.59 89.5 0 0 556.46 178.00
  Q 555.41 192.39 557.38 205.47
  Q 557.75 207.95 560.26 208.17
  Q 569.50 208.96 576.66 207.85
  Q 579.73 207.37 581.68 204.95
  Q 585.21 200.56 587.67 195.50
  Q 588.77 193.25 591.33 193.69
  A 1.13 1.13 -78.8 0 1 592.24 195.05
  Q 590.26 203.99 586.99 212.60
  A 0.76 0.74 9.7 0 1 586.30 213.07
  Q 548.21 213.58 538.75 213.25
  C 535.27 213.13 536.78 210.83 538.72 210.32
  C 542.14 209.43 545.78 209.37 545.78 204.75
  Q 545.80 175.66 545.69 146.56
  A 1.38 1.30 -66.8 0 0 545.37 145.68
  Q 540.40 139.89 532.54 143.62
  A 2.08 2.08 -3.5 0 0 531.47 144.83
  C 530.86 146.68 530.25 148.17 530.25 150.13
  Q 530.25 181.45 530.25 213.49
  A 0.75 0.72 -89.6 0 1 529.52 214.24
  L 526.81 214.22
  A 1.01 0.89 70.8 0 1 526.03 213.78
  L 489.67 161.98
  Q 487.60 159.04 487.51 162.63
  Z
  M 438.42 143.84
  Q 436.25 145.62 436.25 148.43
  L 436.25 205.50
  A 1.73 1.52 -65.2 0 0 436.52 206.42
  C 439.54 210.87 443.97 210.89 448.77 209.87
  Q 452.49 209.07 453.40 204.01
  Q 453.75 202.04 453.75 200.04
  Q 453.75 178.00 453.75 154.00
  C 453.75 150.08 453.79 145.98 450.37 143.63
  C 447.59 141.72 441.09 141.64 438.42 143.84
  Z
  M 465.68 144.35
  Q 464.10 148.21 464.12 151.75
  Q 464.25 176.36 464.25 200.97
  C 464.25 204.08 463.78 207.59 466.98 209.11
  Q 468.80 209.97 470.77 210.36
  C 474.32 211.05 480.51 210.20 480.74 205.50
  C 480.92 201.86 481.75 198.28 481.75 194.81
  Q 481.75 176.49 481.75 158.16
  C 481.75 153.68 482.26 150.69 479.25 147.13
  C 476.07 143.37 471.02 142.18 466.35 143.72
  A 1.10 1.10 -88.2 0 0 465.68 144.35
  Z"
/>
<path fill="#010101" fill-opacity="0.996" d="
  M 438.42 143.84
  C 441.09 141.64 447.59 141.72 450.37 143.63
  C 453.79 145.98 453.75 150.08 453.75 154.00
  Q 453.75 178.00 453.75 200.04
  Q 453.75 202.04 453.40 204.01
  Q 452.49 209.07 448.77 209.87
  C 443.97 210.89 439.54 210.87 436.52 206.42
  A 1.73 1.52 -65.2 0 1 436.25 205.50
  L 436.25 148.43
  Q 436.25 145.62 438.42 143.84
  Z
  M 438.94 145.69
  Q 437.57 146.83 437.56 148.31
  Q 437.46 175.33 437.50 202.34
  Q 437.50 204.63 438.44 205.91
  C 441.23 209.76 448.21 209.87 451.19 206.19
  Q 452.50 204.56 452.50 202.25
  Q 452.50 178.60 452.50 154.95
  Q 452.50 149.42 451.32 147.26
  C 448.91 142.83 442.86 142.41 438.94 145.69
  Z"
/>
<path fill="#010101" fill-opacity="0.996" d="
  M 465.68 144.35
  A 1.10 1.10 -88.2 0 1 466.35 143.72
  C 471.02 142.18 476.07 143.37 479.25 147.13
  C 482.26 150.69 481.75 153.68 481.75 158.16
  Q 481.75 176.49 481.75 194.81
  C 481.75 198.28 480.92 201.86 480.74 205.50
  C 480.51 210.20 474.32 211.05 470.77 210.36
  Q 468.80 209.97 466.98 209.11
  C 463.78 207.59 464.25 204.08 464.25 200.97
  Q 464.25 176.36 464.12 151.75
  Q 464.10 148.21 465.68 144.35
  Z
  M 466.65 146.46
  Q 466.56 147.80 465.75 149.31
  Q 465.50 149.77 465.50 150.24
  L 465.50 203.84
  A 2.71 2.64 -63.3 0 0 465.99 205.39
  Q 468.75 209.27 473.33 208.76
  C 481.73 207.80 478.37 204.95 479.88 198.94
  Q 480.50 196.50 480.50 194.96
  Q 480.50 174.38 480.50 153.81
  C 480.50 148.42 473.61 143.83 468.49 144.50
  A 2.13 2.13 -1.8 0 0 466.65 146.46
  Z"
/>
<path fill="#010101" fill-opacity="0.996" d="
  M 292.08 161.12
  A 0.71 0.71 36.8 0 1 293.27 160.95
  Q 294.03 161.84 294.66 163.40
  Q 298.45 172.75 301.00 182.51
  A 0.99 0.98 82.8 0 1 300.05 183.75
  L 284.81 183.70
  A 0.53 0.51 0.6 0 1 284.29 183.19
  Q 284.32 181.61 285.25 178.75
  Q 288.14 169.91 292.08 161.12
  Z
  M 293.75 165.32
  Q 294.45 163.96 293.07 163.82
  A 0.71 0.67 -76.7 0 0 292.38 164.27
  L 286.06 181.32
  A 0.88 0.87 10.1 0 0 286.89 182.50
  L 298.33 182.50
  A 0.80 0.80 82.1 0 0 299.10 181.48
  Q 296.79 173.16 293.70 166.20
  A 1.12 0.96 -46.2 0 1 293.75 165.32
  Z"
/>
<path fill="#010101" fill-opacity="0.996" d="
  M 181.50 192.90
  A 0.60 0.60 0.0 0 1 180.90 193.50
  L 154.10 193.50
  A 0.60 0.60 0.0 0 1 153.50 192.90
  L 153.50 183.10
  A 0.60 0.60 0.0 0 1 154.10 182.50
  L 180.90 182.50
  A 0.60 0.60 0.0 0 1 181.50 183.10
  L 181.50 192.90
  Z
  M 180.26 184.51
  A 0.76 0.76 0.0 0 0 179.50 183.75
  L 155.52 183.75
  A 0.76 0.76 0.0 0 0 154.76 184.51
  L 154.76 191.49
  A 0.76 0.76 0.0 0 0 155.52 192.25
  L 179.50 192.25
  A 0.76 0.76 0.0 0 0 180.26 191.49
  L 180.26 184.51
  Z"
/>
<rect fill="#f8f7f6" fill-opacity="0.980" x="154.76" y="183.75" width="25.50" height="8.50" rx="0.76"/>
</svg>
