<?xml version="1.0" encoding="UTF-8" standalone="no"?>
<!DOCTYPE svg PUBLIC "-//W3C//DTD SVG 1.1//EN" "http://www.w3.org/Graphics/SVG/1.1/DTD/svg11.dtd">
<svg xmlns="http://www.w3.org/2000/svg" version="1.1" viewBox="0 0 600 300">
<g stroke-width="2.00" fill="none" stroke-linecap="butt">
<path stroke="#808080" vector-effect="non-scaling-stroke" d="
  M 55.20 166.59
  L 55.25 209.75
  A 0.50 0.50 0.0 0 0 55.75 210.25
  L 79.20 210.19
  A 0.50 0.49 -90.0 0 0 79.69 209.69
  L 79.57 90.44
  A 0.51 0.50 0.0 0 0 79.06 89.94
  L 55.98 90.00
  A 0.97 0.95 -0.3 0 0 55.01 90.96
  L 55.08 102.80
  A 2.92 2.64 63.2 0 1 54.66 104.33
  L 42.75 123.41
  A 0.50 0.49 -45.3 0 1 41.91 123.42
  L 29.82 103.86
  A 1.77 1.73 -61.4 0 1 29.56 102.94
  L 29.50 90.57
  A 0.62 0.60 0.0 0 0 28.88 89.97
  L 5.26 90.08
  A 0.77 0.74 -0.4 0 0 4.50 90.82
  L 4.50 209.70
  A 0.55 0.54 90.0 0 0 5.04 210.25
  L 29.44 210.19
  A 0.49 0.49 89.4 0 0 29.93 209.69
  Q 29.61 187.72 29.83 165.75
  Q 29.84 164.41 30.75 163.80
  A 0.51 0.47 57.6 0 1 31.44 163.99
  L 42.69 183.25
  A 0.31 0.31 46.4 0 0 43.22 183.27
  L 53.80 166.22
  Q 55.19 163.98 55.20 166.59"
/>
<path stroke="#808080" vector-effect="non-scaling-stroke" d="
  M 552.30 190.56
  L 569.83 190.50
  A 0.67 0.67 89.8 0 1 570.50 191.17
  L 570.50 209.73
  A 0.52 0.52 90.0 0 0 571.02 210.25
  L 594.70 210.19
  A 0.50 0.49 -90.0 0 0 595.19 209.69
  L 595.25 90.30
  A 0.55 0.55 89.9 0 0 594.70 89.75
  L 551.34 89.75
  A 1.40 1.36 -73.7 0 0 550.17 90.41
  L 527.73 126.34
  A 3.14 2.96 -30.3 0 0 527.25 127.97
  L 527.25 209.69
  A 0.56 0.56 90.0 0 0 527.81 210.25
  L 551.20 210.25
  A 0.56 0.55 -90.0 0 0 551.75 209.69
  L 551.81 191.06
  A 0.50 0.49 -90.0 0 1 552.30 190.56"
/>
<path stroke="#808080" vector-effect="non-scaling-stroke" d="
  M 115.75 90.36
  A 0.35 0.35 0.0 0 0 115.40 90.01
  L 91.60 90.01
  A 0.35 0.35 0.0 0 0 91.25 90.36
  L 91.25 209.90
  A 0.35 0.35 0.0 0 0 91.60 210.25
  L 115.40 210.25
  A 0.35 0.35 0.0 0 0 115.75 209.90
  L 115.75 90.36"
/>
<path stroke="#808080" vector-effect="non-scaling-stroke" d="
  M 152.73 129.94
  Q 152.45 127.95 152.50 124.50
  Q 152.72 108.12 152.49 90.73
  A 0.74 0.74 89.6 0 0 151.75 90.00
  L 128.56 90.00
  A 0.56 0.56 0.0 0 0 128.00 90.56
  L 128.00 209.57
  A 0.68 0.68 0.0 0 0 128.68 210.25
  L 152.44 210.19
  A 0.51 0.49 90.0 0 0 152.93 209.68
  L 152.93 170.69
  A 0.62 0.61 -5.1 0 1 153.44 170.09
  Q 157.18 169.40 160.94 169.98
  A 1.17 1.12 77.2 0 1 161.71 170.49
  L 170.97 184.58
  A 1.82 1.42 34.1 0 1 171.27 185.50
  L 171.45 209.56
  A 0.52 0.49 -89.4 0 0 171.93 210.08
  L 195.37 210.24
  A 0.64 0.63 -90.0 0 0 196.00 209.60
  L 196.00 170.56
  A 3.14 3.12 28.9 0 0 195.51 168.88
  L 183.99 151.01
  A 1.60 1.60 -44.5 0 1 183.99 149.29
  Q 189.29 141.05 194.88 132.61
  Q 196.07 130.80 196.00 127.25
  Q 195.62 109.25 195.75 90.76
  A 0.51 0.50 0.6 0 0 195.24 90.25
  L 171.81 90.25
  A 0.56 0.56 0.0 0 0 171.25 90.81
  L 171.25 113.78
  A 3.24 3.13 61.3 0 1 170.80 115.42
  L 161.95 130.01
  A 0.93 0.85 -73.0 0 1 161.20 130.45
  L 153.32 130.46
  A 0.61 0.59 85.5 0 1 152.73 129.94"
/>
<path stroke="#808080" vector-effect="non-scaling-stroke" d="
  M 208.40 89.94
  A 0.89 0.89 0.3 0 0 207.50 90.83
  L 207.50 209.73
  A 0.51 0.50 89.4 0 0 208.01 210.24
  L 231.81 210.08
  A 0.51 0.51 -0.6 0 0 232.31 209.57
  L 232.25 191.30
  A 1.05 1.05 0.0 0 1 233.30 190.25
  L 240.37 190.25
  A 1.39 1.38 73.4 0 1 241.53 190.88
  C 245.03 196.21 251.19 203.46 250.98 209.73
  A 0.51 0.50 -89.4 0 0 251.48 210.25
  L 274.95 210.19
  A 0.51 0.49 90.0 0 0 275.44 209.68
  L 275.49 189.91
  A 2.66 2.63 28.5 0 0 275.03 188.39
  L 263.25 171.00
  A 1.22 1.20 -45.9 0 1 263.24 169.66
  L 274.94 151.84
  A 3.54 3.35 63.0 0 0 275.50 149.94
  L 275.50 90.65
  A 0.66 0.65 0.0 0 0 274.84 90.00
  L 208.40 89.94"
/>
<path stroke="#808080" vector-effect="non-scaling-stroke" d="
  M 355.75 90.66
  A 0.41 0.41 0.0 0 0 355.34 90.25
  L 288.04 90.25
  A 0.41 0.41 0.0 0 0 287.63 90.66
  L 287.63 209.84
  A 0.41 0.41 0.0 0 0 288.04 210.25
  L 355.34 210.25
  A 0.41 0.41 0.0 0 0 355.75 209.84
  L 355.75 90.66"
/>
<path stroke="#808080" vector-effect="non-scaling-stroke" d="
  M 409.60 130.08
  L 434.80 130.25
  A 0.52 0.51 90.0 0 0 435.31 129.73
  L 435.25 90.55
  A 0.55 0.55 0.2 0 0 434.70 90.00
  L 367.92 90.06
  A 0.67 0.67 0.2 0 0 367.25 90.73
  Q 367.25 109.63 367.10 128.50
  Q 367.08 130.96 369.26 130.25
  A 0.92 0.92 82.8 0 1 370.47 131.19
  Q 370.35 132.68 371.38 134.31
  Q 382.57 151.90 393.69 169.40
  Q 394.38 170.50 393.08 170.50
  L 367.89 170.50
  A 0.64 0.64 0.0 0 0 367.25 171.14
  L 367.44 209.73
  A 0.53 0.53 89.4 0 0 367.97 210.25
  L 434.83 210.25
  A 0.69 0.69 89.6 0 0 435.52 209.55
  Q 435.16 191.28 435.24 173.77
  C 435.25 172.29 436.69 169.75 433.47 170.25
  A 0.99 0.96 69.0 0 1 432.48 169.79
  L 408.76 131.57
  Q 407.83 130.07 409.60 130.08"
/>
<path stroke="#808080" vector-effect="non-scaling-stroke" d="
  M 490.70 170.81
  Q 491.41 190.03 490.73 209.74
  A 0.50 0.50 -89.4 0 0 491.23 210.25
  L 515.13 210.25
  A 0.37 0.37 0.0 0 0 515.50 209.88
  L 515.44 90.81
  A 0.50 0.50 0.0 0 0 514.94 90.31
  L 491.44 90.19
  A 0.51 0.49 0.0 0 0 490.93 90.68
  L 490.75 129.41
  A 1.09 1.08 -90.0 0 1 489.67 130.50
  L 472.92 130.50
  A 0.67 0.67 0.2 0 1 472.25 129.83
  L 472.25 90.77
  A 0.71 0.70 90.0 0 0 471.55 90.06
  L 448.35 90.00
  A 0.85 0.85 0.2 0 0 447.50 90.85
  L 447.50 209.69
  A 0.56 0.56 0.0 0 0 448.06 210.25
  L 471.71 210.25
  A 0.61 0.61 0.0 0 0 472.32 209.64
  L 472.25 170.90
  A 0.65 0.63 -89.6 0 1 472.89 170.25
  L 490.20 170.30
  A 0.52 0.50 89.4 0 1 490.70 170.81"
/>
<path stroke="#808080" vector-effect="non-scaling-stroke" d="
  M 233.17 135.90
  A 0.68 0.64 -0.5 0 0 232.50 136.54
  L 232.50 149.90
  A 0.82 0.81 90.0 0 0 233.31 150.72
  L 239.19 150.71
  A 0.92 0.92 16.0 0 0 239.97 150.28
  L 249.08 136.46
  Q 249.58 135.70 248.63 135.71
  L 233.17 135.90"
/>
<path stroke="#808080" vector-effect="non-scaling-stroke" d="
  M 560.96 130.69
  C 556.94 136.40 551.22 142.91 552.01 149.95
  A 0.55 0.55 -2.9 0 0 552.56 150.44
  L 569.70 150.50
  A 0.55 0.55 90.0 0 0 570.25 149.95
  L 570.25 131.18
  A 0.67 0.66 89.6 0 0 569.58 130.51
  L 561.21 130.56
  A 0.34 0.30 -69.3 0 0 560.96 130.69"
/>
<path stroke="#808080" vector-effect="non-scaling-stroke" d="
  M 330.75 131.12
  A 0.62 0.62 0.0 0 0 330.13 130.50
  L 313.37 130.50
  A 0.62 0.62 0.0 0 0 312.75 131.12
  L 312.75 169.38
  A 0.62 0.62 0.0 0 0 313.37 170.00
  L 330.13 170.00
  A 0.62 0.62 0.0 0 0 330.75 169.38
  L 330.75 131.12"
/>
</g>
<path fill="#000000" d="
  M 33.75 203.40
  C 33.75 205.48 34.17 208.29 34.00 210.77
  Q 33.78 214.00 30.55 214.00
  Q 18.66 214.00 6.58 214.00
  C 2.53 214.00 1.00 213.96 1.00 209.33
  Q 1.00 149.67 0.93 90.00
  C 0.93 85.77 3.66 86.25 7.16 86.24
  Q 19.05 86.21 30.94 86.31
  A 1.45 1.23 -21.0 0 1 31.83 86.62
  C 34.79 89.10 33.17 95.54 33.64 99.62
  C 34.20 104.42 39.19 110.69 41.80 114.84
  A 0.69 0.68 -45.2 0 0 42.96 114.83
  Q 46.22 109.54 49.60 104.09
  C 51.80 100.56 51.18 93.91 51.00 90.25
  C 50.84 86.92 52.68 86.25 55.67 86.25
  Q 66.09 86.25 76.50 86.25
  C 80.80 86.25 83.75 85.43 83.75 90.75
  Q 83.75 150.12 83.75 209.50
  C 83.75 213.31 82.25 214.00 78.65 214.00
  Q 67.24 214.00 55.84 214.00
  C 51.42 214.00 51.33 212.16 51.23 208.51
  Q 50.86 194.79 51.17 181.07
  A 0.75 0.49 -86.5 0 0 50.75 180.33
  C 49.05 180.12 47.74 189.37 41.73 187.67
  C 38.79 186.85 36.22 181.34 34.99 178.74
  Q 33.75 176.09 33.75 179.01
  Q 33.77 191.20 33.75 203.40
  Z
  M 55.20 166.59
  L 55.25 209.75
  A 0.50 0.50 0.0 0 0 55.75 210.25
  L 79.20 210.19
  A 0.50 0.49 -90.0 0 0 79.69 209.69
  L 79.57 90.44
  A 0.51 0.50 0.0 0 0 79.06 89.94
  L 55.98 90.00
  A 0.97 0.95 -0.3 0 0 55.01 90.96
  L 55.08 102.80
  A 2.92 2.64 63.2 0 1 54.66 104.33
  L 42.75 123.41
  A 0.50 0.49 -45.3 0 1 41.91 123.42
  L 29.82 103.86
  A 1.77 1.73 -61.4 0 1 29.56 102.94
  L 29.50 90.57
  A 0.62 0.60 0.0 0 0 28.88 89.97
  L 5.26 90.08
  A 0.77 0.74 -0.4 0 0 4.50 90.82
  L 4.50 209.70
  A 0.55 0.54 90.0 0 0 5.04 210.25
  L 29.44 210.19
  A 0.49 0.49 89.4 0 0 29.93 209.69
  Q 29.61 187.72 29.83 165.75
  Q 29.84 164.41 30.75 163.80
  A 0.51 0.47 57.6 0 1 31.44 163.99
  L 42.69 183.25
  A 0.31 0.31 46.4 0 0 43.22 183.27
  L 53.80 166.22
  Q 55.19 163.98 55.20 166.59
  Z"
/>
<path fill="#000000" d="
  M 565.94 194.55
  L 557.06 194.51
  A 1.35 1.33 88.8 0 0 555.72 195.93
  Q 556.06 202.66 556.02 208.98
  C 555.99 213.57 554.05 214.00 550.10 214.00
  Q 539.02 214.00 527.95 214.00
  C 524.21 214.00 523.00 212.61 523.00 209.00
  Q 523.00 169.38 523.00 129.75
  Q 523.00 125.16 524.61 122.66
  Q 535.65 105.50 546.76 87.66
  A 2.80 2.77 9.7 0 1 548.53 86.42
  Q 551.18 85.83 554.00 85.85
  Q 574.38 86.00 594.75 85.92
  C 597.69 85.91 598.94 87.62 598.93 90.51
  Q 598.57 180.80 598.75 210.00
  C 598.77 213.65 597.04 214.00 593.78 214.00
  Q 582.27 214.00 570.75 214.00
  C 567.83 214.00 566.50 212.92 566.51 209.86
  Q 566.54 202.46 566.44 195.06
  A 0.51 0.50 90.0 0 0 565.94 194.55
  Z
  M 552.30 190.56
  L 569.83 190.50
  A 0.67 0.67 89.8 0 1 570.50 191.17
  L 570.50 209.73
  A 0.52 0.52 90.0 0 0 571.02 210.25
  L 594.70 210.19
  A 0.50 0.49 -90.0 0 0 595.19 209.69
  L 595.25 90.30
  A 0.55 0.55 89.9 0 0 594.70 89.75
  L 551.34 89.75
  A 1.40 1.36 -73.7 0 0 550.17 90.41
  L 527.73 126.34
  A 3.14 2.96 -30.3 0 0 527.25 127.97
  L 527.25 209.69
  A 0.56 0.56 90.0 0 0 527.81 210.25
  L 551.20 210.25
  A 0.56 0.55 -90.0 0 0 551.75 209.69
  L 551.81 191.06
  A 0.50 0.49 -90.0 0 1 552.30 190.56
  Z"
/>
<path fill="#000000" d="
  M 119.75 210.69
  A 3.29 3.29 0.0 0 1 116.46 213.98
  L 90.46 213.98
  A 3.29 3.29 0.0 0 1 87.17 210.69
  L 87.17 89.55
  A 3.29 3.29 0.0 0 1 90.46 86.26
  L 116.46 86.26
  A 3.29 3.29 0.0 0 1 119.75 89.55
  L 119.75 210.69
  Z
  M 115.75 90.36
  A 0.35 0.35 0.0 0 0 115.40 90.01
  L 91.60 90.01
  A 0.35 0.35 0.0 0 0 91.25 90.36
  L 91.25 209.90
  A 0.35 0.35 0.0 0 0 91.60 210.25
  L 115.40 210.25
  A 0.35 0.35 0.0 0 0 115.75 209.90
  L 115.75 90.36
  Z"
/>
<path fill="#000000" d="
  M 157.30 126.33
  Q 158.89 126.63 160.00 124.75
  Q 163.19 119.34 166.25 114.40
  Q 167.25 112.79 167.25 110.90
  Q 167.25 100.88 167.25 91.00
  C 167.25 86.79 168.88 86.26 172.77 86.38
  Q 184.52 86.76 196.27 86.25
  Q 199.70 86.10 199.77 89.53
  Q 200.17 107.66 200.01 126.77
  C 199.98 129.90 200.36 132.36 198.56 135.06
  Q 193.75 142.28 189.28 149.23
  A 1.84 1.76 45.6 0 0 189.30 151.17
  L 199.68 167.38
  A 1.96 1.57 -67.0 0 1 199.94 168.31
  L 200.18 210.55
  Q 200.20 214.00 196.77 214.00
  Q 184.60 214.00 172.45 214.00
  C 168.71 214.00 167.13 212.91 167.50 209.00
  C 167.57 208.29 168.12 188.28 166.75 186.25
  Q 162.86 180.50 159.06 174.69
  Q 156.75 171.15 156.75 175.75
  L 156.75 211.26
  A 1.61 1.37 66.9 0 1 156.47 212.16
  C 154.83 214.39 153.21 214.00 150.73 214.00
  C 146.55 214.00 127.73 215.02 125.24 213.19
  C 123.29 211.77 124.00 210.16 124.00 208.09
  Q 124.00 149.42 124.00 90.75
  C 124.00 85.58 126.98 86.25 131.24 86.25
  C 138.03 86.25 144.94 86.49 151.72 86.12
  C 157.14 85.83 156.53 89.37 156.49 93.36
  Q 156.29 109.53 156.80 125.69
  A 0.67 0.62 -85.3 0 0 157.30 126.33
  Z
  M 152.73 129.94
  Q 152.45 127.95 152.50 124.50
  Q 152.72 108.12 152.49 90.73
  A 0.74 0.74 89.6 0 0 151.75 90.00
  L 128.56 90.00
  A 0.56 0.56 0.0 0 0 128.00 90.56
  L 128.00 209.57
  A 0.68 0.68 0.0 0 0 128.68 210.25
  L 152.44 210.19
  A 0.51 0.49 90.0 0 0 152.93 209.68
  L 152.93 170.69
  A 0.62 0.61 -5.1 0 1 153.44 170.09
  Q 157.18 169.40 160.94 169.98
  A 1.17 1.12 77.2 0 1 161.71 170.49
  L 170.97 184.58
  A 1.82 1.42 34.1 0 1 171.27 185.50
  L 171.45 209.56
  A 0.52 0.49 -89.4 0 0 171.93 210.08
  L 195.37 210.24
  A 0.64 0.63 -90.0 0 0 196.00 209.60
  L 196.00 170.56
  A 3.14 3.12 28.9 0 0 195.51 168.88
  L 183.99 151.01
  A 1.60 1.60 -44.5 0 1 183.99 149.29
  Q 189.29 141.05 194.88 132.61
  Q 196.07 130.80 196.00 127.25
  Q 195.62 109.25 195.75 90.76
  A 0.51 0.50 0.6 0 0 195.24 90.25
  L 171.81 90.25
  A 0.56 0.56 0.0 0 0 171.25 90.81
  L 171.25 113.78
  A 3.24 3.13 61.3 0 1 170.80 115.42
  L 161.95 130.01
  A 0.93 0.85 -73.0 0 1 161.20 130.45
  L 153.32 130.46
  A 0.61 0.59 85.5 0 1 152.73 129.94
  Z"
/>
<path fill="#000000" d="
  M 205.63 213.68
  C 203.03 212.15 203.51 210.82 203.49 208.25
  C 203.36 192.33 203.79 176.28 203.59 160.50
  Q 203.32 138.89 203.59 117.28
  C 203.68 109.36 203.27 98.32 203.73 88.87
  Q 203.86 86.25 206.49 86.25
  Q 240.42 86.25 274.33 86.25
  C 278.20 86.25 279.50 86.63 279.50 90.89
  Q 279.50 121.18 279.50 150.79
  Q 279.50 152.80 278.49 154.36
  L 268.71 169.43
  A 1.36 1.29 -45.8 0 0 268.69 170.89
  L 279.16 186.65
  A 1.68 1.60 29.4 0 1 279.44 187.56
  L 279.50 211.24
  A 1.67 1.33 68.3 0 1 279.22 212.16
  C 277.58 214.39 275.96 214.00 273.48 214.00
  Q 262.63 214.00 251.78 214.00
  C 248.26 214.00 246.13 212.33 246.72 208.67
  A 2.88 2.86 33.9 0 0 246.33 206.71
  C 245.09 204.68 238.93 193.32 236.91 194.46
  A 0.94 0.79 77.8 0 0 236.50 195.24
  Q 236.44 201.31 236.49 207.38
  C 236.52 211.09 236.67 214.00 231.87 214.00
  Q 219.42 214.00 206.82 214.00
  A 2.45 2.34 58.7 0 1 205.63 213.68
  Z
  M 208.40 89.94
  A 0.89 0.89 0.3 0 0 207.50 90.83
  L 207.50 209.73
  A 0.51 0.50 89.4 0 0 208.01 210.24
  L 231.81 210.08
  A 0.51 0.51 -0.6 0 0 232.31 209.57
  L 232.25 191.30
  A 1.05 1.05 0.0 0 1 233.30 190.25
  L 240.37 190.25
  A 1.39 1.38 73.4 0 1 241.53 190.88
  C 245.03 196.21 251.19 203.46 250.98 209.73
  A 0.51 0.50 -89.4 0 0 251.48 210.25
  L 274.95 210.19
  A 0.51 0.49 90.0 0 0 275.44 209.68
  L 275.49 189.91
  A 2.66 2.63 28.5 0 0 275.03 188.39
  L 263.25 171.00
  A 1.22 1.20 -45.9 0 1 263.24 169.66
  L 274.94 151.84
  A 3.54 3.35 63.0 0 0 275.50 149.94
  L 275.50 90.65
  A 0.66 0.65 0.0 0 0 274.84 90.00
  L 208.40 89.94
  Z"
/>
<path fill="#000000" d="
  M 359.75 210.38
  A 3.61 3.61 0.0 0 1 356.14 213.99
  L 287.12 213.99
  A 3.61 3.61 0.0 0 1 283.51 210.38
  L 283.51 90.02
  A 3.61 3.61 0.0 0 1 287.12 86.41
  L 356.14 86.41
  A 3.61 3.61 0.0 0 1 359.75 90.02
  L 359.75 210.38
  Z
  M 355.75 90.66
  A 0.41 0.41 0.0 0 0 355.34 90.25
  L 288.04 90.25
  A 0.41 0.41 0.0 0 0 287.63 90.66
  L 287.63 209.84
  A 0.41 0.41 0.0 0 0 288.04 210.25
  L 355.34 210.25
  A 0.41 0.41 0.0 0 0 355.75 209.84
  L 355.75 90.66
  Z"
/>
<path fill="#000000" d="
  M 417.04 134.09
  Q 415.57 134.04 416.35 135.28
  L 434.61 164.50
  Q 435.33 165.65 436.51 166.28
  C 439.95 168.10 439.53 169.90 439.47 173.83
  Q 439.17 192.51 439.43 211.18
  A 1.55 1.31 66.8 0 1 439.15 212.09
  C 437.27 214.47 435.61 214.00 432.89 214.00
  Q 400.07 214.00 367.25 213.92
  C 362.85 213.91 363.25 211.13 363.25 207.50
  Q 363.25 189.93 363.25 172.35
  C 363.25 168.70 364.08 165.89 368.18 166.12
  C 374.05 166.45 379.95 166.23 385.78 166.43
  Q 386.51 166.46 386.12 165.84
  Q 376.80 150.88 367.88 136.80
  C 366.67 134.89 365.00 133.70 363.61 131.84
  A 1.51 1.43 -65.1 0 1 363.31 130.94
  Q 363.15 100.36 363.25 90.25
  C 363.30 85.83 366.21 86.25 369.50 86.25
  Q 401.87 86.25 434.25 86.25
  C 439.97 86.25 439.49 89.23 439.52 93.98
  Q 439.65 111.57 439.29 129.15
  C 439.19 134.31 437.05 134.21 432.82 134.26
  Q 424.60 134.37 417.04 134.09
  Z
  M 409.60 130.08
  L 434.80 130.25
  A 0.52 0.51 90.0 0 0 435.31 129.73
  L 435.25 90.55
  A 0.55 0.55 0.2 0 0 434.70 90.00
  L 367.92 90.06
  A 0.67 0.67 0.2 0 0 367.25 90.73
  Q 367.25 109.63 367.10 128.50
  Q 367.08 130.96 369.26 130.25
  A 0.92 0.92 82.8 0 1 370.47 131.19
  Q 370.35 132.68 371.38 134.31
  Q 382.57 151.90 393.69 169.40
  Q 394.38 170.50 393.08 170.50
  L 367.89 170.50
  A 0.64 0.64 0.0 0 0 367.25 171.14
  L 367.44 209.73
  A 0.53 0.53 89.4 0 0 367.97 210.25
  L 434.83 210.25
  A 0.69 0.69 89.6 0 0 435.52 209.55
  Q 435.16 191.28 435.24 173.77
  C 435.25 172.29 436.69 169.75 433.47 170.25
  A 0.99 0.96 69.0 0 1 432.48 169.79
  L 408.76 131.57
  Q 407.83 130.07 409.60 130.08
  Z"
/>
<path fill="#000000" d="
  M 486.19 174.51
  L 476.88 174.29
  A 0.68 0.62 89.5 0 0 476.25 174.99
  Q 476.69 192.34 476.35 209.69
  C 476.28 213.41 474.57 214.00 471.25 214.00
  Q 459.92 214.00 448.59 214.00
  C 445.01 214.00 443.50 213.28 443.50 209.50
  Q 443.50 149.63 443.50 89.75
  C 443.50 86.00 446.70 86.25 449.89 86.25
  Q 461.07 86.26 472.25 86.32
  C 476.65 86.34 476.25 89.13 476.25 92.75
  Q 476.25 108.53 476.25 124.80
  A 1.89 1.73 -0.0 0 0 478.14 126.53
  L 484.88 126.53
  A 1.79 1.64 -0.3 0 0 486.68 124.86
  Q 486.41 110.23 486.48 95.11
  C 486.51 89.91 485.89 85.60 492.51 86.11
  Q 497.74 86.51 515.75 86.25
  C 519.63 86.19 519.50 89.50 519.50 92.70
  Q 519.50 152.20 519.50 210.37
  Q 519.50 214.00 515.87 214.00
  Q 503.88 214.00 491.99 214.00
  C 487.24 214.00 486.74 212.61 486.75 208.30
  Q 486.80 191.68 486.69 175.07
  A 0.56 0.51 -89.5 0 0 486.19 174.51
  Z
  M 490.70 170.81
  Q 491.41 190.03 490.73 209.74
  A 0.50 0.50 -89.4 0 0 491.23 210.25
  L 515.13 210.25
  A 0.37 0.37 0.0 0 0 515.50 209.88
  L 515.44 90.81
  A 0.50 0.50 0.0 0 0 514.94 90.31
  L 491.44 90.19
  A 0.51 0.49 0.0 0 0 490.93 90.68
  L 490.75 129.41
  A 1.09 1.08 -90.0 0 1 489.67 130.50
  L 472.92 130.50
  A 0.67 0.67 0.2 0 1 472.25 129.83
  L 472.25 90.77
  A 0.71 0.70 90.0 0 0 471.55 90.06
  L 448.35 90.00
  A 0.85 0.85 0.2 0 0 447.50 90.85
  L 447.50 209.69
  A 0.56 0.56 0.0 0 0 448.06 210.25
  L 471.71 210.25
  A 0.61 0.61 0.0 0 0 472.32 209.64
  L 472.25 170.90
  A 0.65 0.63 -89.6 0 1 472.89 170.25
  L 490.20 170.30
  A 0.52 0.50 89.4 0 1 490.70 170.81
  Z"
/>
<path fill="#ffffff" d="
  M 55.20 166.59
  Q 55.19 163.98 53.80 166.22
  L 43.22 183.27
  A 0.31 0.31 46.4 0 1 42.69 183.25
  L 31.44 163.99
  A 0.51 0.47 57.6 0 0 30.75 163.80
  Q 29.84 164.41 29.83 165.75
  Q 29.61 187.72 29.93 209.69
  A 0.49 0.49 89.4 0 1 29.44 210.19
  L 5.04 210.25
  A 0.55 0.54 -90.0 0 1 4.50 209.70
  L 4.50 90.82
  A 0.77 0.74 -0.4 0 1 5.26 90.08
  L 28.88 89.97
  A 0.62 0.60 0.0 0 1 29.50 90.57
  L 29.56 102.94
  A 1.77 1.73 -61.4 0 0 29.82 103.86
  L 41.91 123.42
  A 0.50 0.49 -45.3 0 0 42.75 123.41
  L 54.66 104.33
  A 2.92 2.64 63.2 0 0 55.08 102.80
  L 55.01 90.96
  A 0.97 0.95 -0.3 0 1 55.98 90.00
  L 79.06 89.94
  A 0.51 0.50 0.0 0 1 79.57 90.44
  L 79.69 209.69
  A 0.50 0.49 -90.0 0 1 79.20 210.19
  L 55.75 210.25
  A 0.50 0.50 0.0 0 1 55.25 209.75
  L 55.20 166.59
  Z"
/>
<path fill="#ffffff" d="
  M 208.40 89.94
  L 274.84 90.00
  A 0.66 0.65 0.0 0 1 275.50 90.65
  L 275.50 149.94
  A 3.54 3.35 63.0 0 1 274.94 151.84
  L 263.24 169.66
  A 1.22 1.20 -45.9 0 0 263.25 171.00
  L 275.03 188.39
  A 2.66 2.63 28.5 0 1 275.49 189.91
  L 275.44 209.68
  A 0.51 0.49 -90.0 0 1 274.95 210.19
  L 251.48 210.25
  A 0.51 0.50 -89.4 0 1 250.98 209.73
  C 251.19 203.46 245.03 196.21 241.53 190.88
  A 1.39 1.38 73.4 0 0 240.37 190.25
  L 233.30 190.25
  A 1.05 1.05 0.0 0 0 232.25 191.30
  L 232.31 209.57
  A 0.51 0.51 -0.6 0 1 231.81 210.08
  L 208.01 210.24
  A 0.51 0.50 89.4 0 1 207.50 209.73
  L 207.50 90.83
  A 0.89 0.89 0.3 0 1 208.40 89.94
  Z
  M 233.17 135.90
  A 0.68 0.64 -0.5 0 0 232.50 136.54
  L 232.50 149.90
  A 0.82 0.81 90.0 0 0 233.31 150.72
  L 239.19 150.71
  A 0.92 0.92 16.0 0 0 239.97 150.28
  L 249.08 136.46
  Q 249.58 135.70 248.63 135.71
  L 233.17 135.90
  Z"
/>
<path fill="#ffffff" d="
  M 551.81 191.06
  L 551.75 209.69
  A 0.56 0.55 -90.0 0 1 551.20 210.25
  L 527.81 210.25
  A 0.56 0.56 -89.8 0 1 527.25 209.69
  L 527.25 127.97
  A 3.14 2.96 -30.3 0 1 527.73 126.34
  L 550.17 90.41
  A 1.40 1.36 -73.7 0 1 551.34 89.75
  L 594.70 89.75
  A 0.55 0.55 89.8 0 1 595.25 90.30
  L 595.19 209.69
  A 0.50 0.49 -90.0 0 1 594.70 210.19
  L 571.02 210.25
  A 0.52 0.52 -90.0 0 1 570.50 209.73
  L 570.50 191.17
  A 0.67 0.67 90.0 0 0 569.83 190.50
  L 552.30 190.56
  A 0.50 0.49 -90.0 0 0 551.81 191.06
  Z
  M 560.96 130.69
  C 556.94 136.40 551.22 142.91 552.01 149.95
  A 0.55 0.55 -2.9 0 0 552.56 150.44
  L 569.70 150.50
  A 0.55 0.55 90.0 0 0 570.25 149.95
  L 570.25 131.18
  A 0.67 0.66 89.6 0 0 569.58 130.51
  L 561.21 130.56
  A 0.34 0.30 -69.3 0 0 560.96 130.69
  Z"
/>
<rect fill="#ffffff" x="91.25" y="90.01" width="24.50" height="120.24" rx="0.35"/>
<path fill="#ffffff" d="
  M 153.32 130.46
  L 161.20 130.45
  A 0.93 0.85 -73.0 0 0 161.95 130.01
  L 170.80 115.42
  A 3.24 3.13 61.3 0 0 171.25 113.78
  L 171.25 90.81
  A 0.56 0.56 0.0 0 1 171.81 90.25
  L 195.24 90.25
  A 0.51 0.50 0.6 0 1 195.75 90.76
  Q 195.62 109.25 196.00 127.25
  Q 196.07 130.80 194.88 132.61
  Q 189.29 141.05 183.99 149.29
  A 1.60 1.60 -44.8 0 0 183.99 151.01
  L 195.51 168.88
  A 3.14 3.12 28.9 0 1 196.00 170.56
  L 196.00 209.60
  A 0.64 0.63 90.0 0 1 195.37 210.24
  L 171.93 210.08
  A 0.52 0.49 -89.4 0 1 171.45 209.56
  L 171.27 185.50
  A 1.82 1.42 34.1 0 0 170.97 184.58
  L 161.71 170.49
  A 1.17 1.12 77.2 0 0 160.94 169.98
  Q 157.18 169.40 153.44 170.09
  A 0.62 0.61 -5.1 0 0 152.93 170.69
  L 152.93 209.68
  A 0.51 0.49 -90.0 0 1 152.44 210.19
  L 128.68 210.25
  A 0.68 0.68 0.0 0 1 128.00 209.57
  L 128.00 90.56
  A 0.56 0.56 0.0 0 1 128.56 90.00
  L 151.75 90.00
  A 0.74 0.74 89.6 0 1 152.49 90.73
  Q 152.72 108.12 152.50 124.50
  Q 152.45 127.95 152.73 129.94
  A 0.61 0.59 85.5 0 0 153.32 130.46
  Z"
/>
<path fill="#ffffff" d="
  M 409.60 130.08
  Q 407.83 130.07 408.76 131.57
  L 432.48 169.79
  A 0.99 0.96 69.0 0 0 433.47 170.25
  C 436.69 169.75 435.25 172.29 435.24 173.77
  Q 435.16 191.28 435.52 209.55
  A 0.69 0.69 89.6 0 1 434.83 210.25
  L 367.97 210.25
  A 0.53 0.53 89.4 0 1 367.44 209.73
  L 367.25 171.14
  A 0.64 0.64 0.0 0 1 367.89 170.50
  L 393.08 170.50
  Q 394.38 170.50 393.69 169.40
  Q 382.57 151.90 371.38 134.31
  Q 370.35 132.68 370.47 131.19
  A 0.92 0.92 82.8 0 0 369.26 130.25
  Q 367.08 130.96 367.10 128.50
  Q 367.25 109.63 367.25 90.73
  A 0.67 0.67 -0.4 0 1 367.92 90.06
  L 434.70 90.00
  A 0.55 0.55 -0.8 0 1 435.25 90.55
  L 435.31 129.73
  A 0.52 0.51 -90.0 0 1 434.80 130.25
  L 409.60 130.08
  Z"
/>
<path fill="#ffffff" d="
  M 490.20 170.30
  L 472.89 170.25
  A 0.65 0.63 -89.6 0 0 472.25 170.90
  L 472.32 209.64
  A 0.61 0.61 0.0 0 1 471.71 210.25
  L 448.06 210.25
  A 0.56 0.56 0.0 0 1 447.50 209.69
  L 447.50 90.85
  A 0.85 0.85 -0.0 0 1 448.35 90.00
  L 471.55 90.06
  A 0.71 0.70 90.0 0 1 472.25 90.77
  L 472.25 129.83
  A 0.67 0.67 0.0 0 0 472.92 130.50
  L 489.67 130.50
  A 1.09 1.08 90.0 0 0 490.75 129.41
  L 490.93 90.68
  A 0.51 0.49 -0.0 0 1 491.44 90.19
  L 514.94 90.31
  A 0.50 0.50 0.0 0 1 515.44 90.81
  L 515.50 209.88
  A 0.37 0.37 0.0 0 1 515.13 210.25
  L 491.23 210.25
  A 0.50 0.50 -89.4 0 1 490.73 209.74
  Q 491.41 190.03 490.70 170.81
  A 0.52 0.50 89.4 0 0 490.20 170.30
  Z"
/>
<path fill="#ffffff" d="
  M 355.75 209.84
  A 0.41 0.41 0.0 0 1 355.34 210.25
  L 288.04 210.25
  A 0.41 0.41 0.0 0 1 287.63 209.84
  L 287.63 90.66
  A 0.41 0.41 0.0 0 1 288.04 90.25
  L 355.34 90.25
  A 0.41 0.41 0.0 0 1 355.75 90.66
  L 355.75 209.84
  Z
  M 330.75 131.12
  A 0.62 0.62 0.0 0 0 330.13 130.50
  L 313.37 130.50
  A 0.62 0.62 0.0 0 0 312.75 131.12
  L 312.75 169.38
  A 0.62 0.62 0.0 0 0 313.37 170.00
  L 330.13 170.00
  A 0.62 0.62 0.0 0 0 330.75 169.38
  L 330.75 131.12
  Z"
/>
<path fill="#000000" d="
  M 330.75 169.38
  A 0.62 0.62 0.0 0 1 330.13 170.00
  L 313.37 170.00
  A 0.62 0.62 0.0 0 1 312.75 169.38
  L 312.75 131.12
  A 0.62 0.62 0.0 0 1 313.37 130.50
  L 330.13 130.50
  A 0.62 0.62 0.0 0 1 330.75 131.12
  L 330.75 169.38
  Z
  M 326.75 135.38
  A 0.87 0.87 0.0 0 0 325.88 134.51
  L 317.62 134.51
  A 0.87 0.87 0.0 0 0 316.75 135.38
  L 316.75 165.02
  A 0.87 0.87 0.0 0 0 317.62 165.89
  L 325.88 165.89
  A 0.87 0.87 0.0 0 0 326.75 165.02
  L 326.75 135.38
  Z"
/>
<path fill="#000000" d="
  M 560.96 130.69
  A 0.34 0.30 -69.3 0 1 561.21 130.56
  L 569.58 130.51
  A 0.67 0.66 89.6 0 1 570.25 131.18
  L 570.25 149.95
  A 0.55 0.55 89.9 0 1 569.70 150.50
  L 552.56 150.44
  A 0.55 0.55 -2.9 0 1 552.01 149.95
  C 551.22 142.91 556.94 136.40 560.96 130.69
  Z
  M 565.36 134.50
  C 562.80 134.40 557.95 143.21 556.49 145.51
  Q 555.75 146.69 557.18 146.66
  L 565.01 146.51
  A 1.21 1.19 0.2 0 0 566.19 145.36
  L 566.51 135.77
  A 1.22 1.19 -87.9 0 0 565.36 134.50
  Z"
/>
<path fill="#000000" d="
  M 233.17 135.90
  L 248.63 135.71
  Q 249.58 135.70 249.08 136.46
  L 239.97 150.28
  A 0.92 0.92 16.0 0 1 239.19 150.71
  L 233.31 150.72
  A 0.82 0.81 90.0 0 1 232.50 149.90
  L 232.50 136.54
  A 0.68 0.64 -0.5 0 1 233.17 135.90
  Z
  M 237.61 140.06
  A 0.96 0.93 -89.2 0 0 236.64 141.03
  L 236.66 146.02
  Q 236.66 146.59 237.13 146.17
  Q 239.63 143.89 240.99 140.77
  A 0.45 0.36 -74.6 0 0 240.72 140.15
  L 237.61 140.06
  Z"
/>
</svg>
