<?xml version="1.0" encoding="UTF-8" standalone="no"?>
<!DOCTYPE svg PUBLIC "-//W3C//DTD SVG 1.1//EN" "http://www.w3.org/Graphics/SVG/1.1/DTD/svg11.dtd">
<svg xmlns="http://www.w3.org/2000/svg" version="1.1" viewBox="0 0 600 300">
<g stroke-width="2.00" fill="none" stroke-linecap="butt">
<path stroke="#000000" vector-effect="non-scaling-stroke" d="
  M 147.79 25.50
  L 147.75 25.96"
/>
<path stroke="#000000" vector-effect="non-scaling-stroke" d="
  M 109.46 122.25
  L 109.50 122.46"
/>
<path stroke="#000000" vector-effect="non-scaling-stroke" d="
  M 110.21 124.50
  L 110.54 125.00"
/>
<path stroke="#000100" stroke-opacity="0.773" vector-effect="non-scaling-stroke" d="
  M 341.50 94.21
  Q 341.98 96.08 343.25 94.79"
/>
<path stroke="#000100" stroke-opacity="0.773" vector-effect="non-scaling-stroke" d="
  M 297.94 149.32
  L 299.46 148.50"
/>
<path stroke="#000100" stroke-opacity="0.773" vector-effect="non-scaling-stroke" d="
  M 287.42 202.38
  Q 287.74 202.77 288.06 201.95
  A 0.51 0.45 -67.9 0 0 287.84 201.32
  Q 287.55 201.20 287.37 201.47
  A 0.76 0.75 42.2 0 0 287.42 202.38"
/>
<path stroke="#000100" stroke-opacity="0.773" vector-effect="non-scaling-stroke" d="
  M 380.3567 166.1533
  A 0.74 0.61 135.0 0 0 381.3113 166.0613
  A 0.74 0.61 135.0 0 0 381.4033 165.1067
  A 0.74 0.61 135.0 0 0 380.4487 165.1987
  A 0.74 0.61 135.0 0 0 380.3567 166.1533"
/>
<path stroke="#000100" stroke-opacity="0.773" vector-effect="non-scaling-stroke" d="
  M 373.54 183.85
  Q 373.04 185.44 374.28 184.01
  A 0.67 0.47 -39.7 0 0 374.44 183.42
  Q 374.33 183.14 374.06 183.23
  A 0.99 0.61 -81.6 0 0 373.54 183.85"
/>
<path stroke="#000100" stroke-opacity="0.773" vector-effect="non-scaling-stroke" d="
  M 518.77 198.37
  A 0.64 0.64 0.0 0 0 518.13 197.73
  A 0.64 0.64 0.0 0 0 517.49 198.37
  A 0.64 0.64 0.0 0 0 518.13 199.01
  A 0.64 0.64 0.0 0 0 518.77 198.37"
/>
</g>
<path fill="#000000" d="
  M 359.14 40.23
  L 360.07 37.42
  A 1.00 0.63 -80.2 0 1 360.65 36.78
  Q 361.55 36.59 361.94 37.56
  Q 364.13 43.09 359.30 46.57
  Q 356.92 48.28 355.77 45.59
  Q 352.20 37.23 352.25 27.81
  Q 352.27 25.17 349.80 25.27
  L 339.80 25.71
  Q 337.86 25.79 337.77 24.03
  C 337.49 19.11 340.41 20.77 343.15 20.69
  Q 346.70 20.58 348.50 21.00
  Q 350.96 21.57 351.49 16.87
  A 1.93 1.91 -5.4 0 1 352.84 15.25
  Q 355.40 14.47 354.85 19.19
  A 1.66 1.66 -84.9 0 0 356.39 21.04
  C 357.89 21.14 357.68 18.80 357.98 17.90
  C 359.57 13.21 363.79 21.42 361.89 24.13
  Q 360.90 25.54 359.18 25.41
  Q 354.77 25.06 355.29 28.53
  C 355.98 33.16 356.86 40.63 358.43 40.72
  A 0.73 0.70 -78.5 0 0 359.14 40.23
  Z"
/>
<path fill="#000000" d="
  M 46.41 22.98
  C 47.07 21.48 45.66 16.09 48.96 17.16
  Q 50.96 17.80 50.31 19.80
  Q 48.98 23.94 52.75 23.75
  Q 56.37 23.57 54.94 20.81
  Q 53.75 18.53 55.23 16.53
  Q 56.57 14.72 58.17 16.30
  Q 60.38 18.47 59.20 21.28
  C 58.24 23.57 59.45 23.29 59.83 25.15
  C 61.33 32.45 50.11 23.57 50.00 31.00
  Q 49.88 38.97 50.19 46.95
  A 1.46 1.46 -2.8 0 1 48.82 48.46
  Q 45.59 48.65 46.12 45.30
  C 46.90 40.28 46.89 35.27 46.71 29.84
  Q 46.65 27.92 44.74 28.09
  C 42.27 28.30 35.00 30.20 36.93 24.92
  A 2.47 2.26 9.5 0 1 39.23 23.43
  L 45.70 23.48
  A 0.84 0.74 -76.8 0 0 46.41 22.98
  Z"
/>
<path fill="#000000" d="
  M 389.73 22.16
  A 1.31 1.31 76.7 0 0 391.49 23.25
  Q 395.19 21.89 395.25 26.06
  Q 395.30 28.80 392.64 28.10
  Q 388.23 26.94 388.10 30.99
  Q 387.76 41.28 379.52 46.29
  A 1.69 1.68 50.8 0 1 377.51 46.08
  Q 375.55 44.24 375.43 42.69
  A 0.75 0.66 -14.9 0 1 375.89 42.00
  Q 383.35 38.87 384.64 29.76
  Q 384.92 27.76 383.00 27.76
  L 379.34 27.77
  A 2.88 2.61 -73.5 0 0 376.99 29.20
  L 374.31 33.81
  Q 372.91 36.24 371.44 33.81
  Q 369.78 31.08 371.66 28.96
  C 374.50 25.77 376.13 22.19 377.17 17.78
  Q 377.71 15.51 379.98 16.02
  C 384.89 17.11 376.30 24.79 382.59 23.29
  Q 384.32 22.87 386.07 23.18
  Q 387.87 23.49 388.53 22.46
  A 1.06 0.80 54.3 0 0 388.55 21.55
  C 387.69 19.53 385.69 16.56 390.69 17.56
  A 1.05 1.04 -65.0 0 0 391.72 17.18
  Q 393.00 15.57 394.20 16.82
  Q 395.44 18.11 394.72 19.75
  Q 393.66 22.18 391.56 20.21
  A 0.49 0.48 46.4 0 0 390.93 20.19
  Q 389.63 21.26 389.73 22.16
  Z"
/>
<path fill="#000000" d="
  M 147.79 25.50
  L 147.75 25.96
  Q 146.27 27.57 145.52 30.71
  A 2.10 2.09 22.1 0 0 146.49 33.00
  Q 150.09 35.12 147.99 37.80
  A 1.26 1.26 -50.9 0 1 146.18 37.99
  Q 145.02 36.99 144.39 37.43
  A 1.15 0.58 82.7 0 0 144.08 38.31
  L 144.08 46.81
  A 1.40 1.36 -25.6 0 1 143.75 47.70
  Q 141.81 49.95 140.47 47.46
  A 1.76 0.85 -70.8 0 1 140.36 46.51
  L 141.00 40.61
  Q 141.20 38.72 139.45 39.68
  Q 137.60 40.69 136.73 38.23
  Q 136.13 36.51 137.47 35.28
  Q 140.70 32.30 142.76 28.50
  C 143.55 27.05 143.44 24.80 141.00 26.00
  C 135.71 28.59 136.09 21.90 138.94 21.70
  A 1.80 1.00 11.1 0 0 139.86 21.40
  Q 141.14 20.40 140.90 18.56
  A 1.59 1.06 65.5 0 1 141.05 17.64
  Q 142.84 14.63 144.24 17.72
  A 1.49 1.13 -54.6 0 1 144.27 18.67
  C 143.09 22.54 147.56 21.50 147.79 25.50
  Z"
/>
<path fill="#000000" d="
  M 320.97 36.81
  Q 317.35 34.04 314.22 31.77
  Q 311.82 30.04 312.00 32.98
  C 312.15 35.60 313.53 48.04 310.39 48.45
  Q 308.16 48.74 308.23 46.49
  Q 308.62 32.97 308.03 20.17
  C 307.93 17.87 307.48 15.88 310.75 16.25
  Q 313.35 16.55 312.25 19.50
  C 310.07 25.35 313.34 26.42 318.03 29.27
  C 321.67 31.47 330.31 35.53 325.83 39.37
  A 1.24 1.17 -61.1 0 1 324.93 39.66
  C 322.94 39.46 322.02 37.63 320.97 36.81
  Z"
/>
<path fill="#000000" d="
  M 240.28 28.42
  Q 235.87 29.92 236.76 24.71
  A 1.23 1.23 -83.5 0 1 238.05 23.68
  Q 242.44 23.94 242.17 19.37
  Q 242.06 17.60 243.45 16.50
  Q 244.71 15.51 245.37 16.89
  Q 246.22 18.64 245.93 20.57
  C 245.38 24.21 246.15 23.78 249.26 23.74
  Q 254.04 23.67 258.93 23.23
  A 1.26 1.25 -88.2 0 1 260.28 24.67
  Q 259.02 32.80 253.65 36.95
  A 1.16 1.03 -56.1 0 1 252.75 37.18
  Q 250.81 36.80 250.24 34.72
  Q 249.75 32.92 251.50 32.26
  Q 253.65 31.45 254.75 29.68
  A 1.20 1.02 -40.4 0 0 254.90 28.76
  C 254.41 27.21 250.07 28.76 248.33 28.27
  Q 245.75 27.55 245.75 30.24
  L 245.75 38.98
  A 1.78 1.71 89.5 0 0 247.49 40.76
  L 258.58 40.54
  A 1.61 1.54 -1.8 0 1 260.22 42.01
  C 260.40 46.15 258.91 45.42 255.96 45.53
  Q 247.51 45.87 245.00 45.25
  C 239.43 43.88 244.21 29.81 241.22 28.43
  A 1.40 1.03 -35.7 0 0 240.28 28.42
  Z"
/>
<path fill="#000000" d="
  M 147.75 25.96
  L 147.79 25.50
  C 153.84 22.65 151.96 25.20 152.53 18.56
  Q 152.78 15.72 154.65 16.91
  Q 156.51 18.08 156.06 20.23
  Q 155.14 24.71 159.05 24.33
  A 1.75 1.75 -15.6 0 1 160.80 25.31
  Q 162.79 29.41 158.23 28.70
  Q 155.47 28.28 155.89 31.04
  Q 156.70 36.31 155.60 40.36
  Q 155.01 42.57 157.29 42.43
  Q 162.44 42.10 161.61 45.12
  Q 161.06 47.07 158.81 47.08
  L 148.76 47.11
  A 2.00 1.77 -0.7 0 1 146.77 45.39
  Q 146.65 41.44 149.54 42.55
  A 1.88 1.05 36.8 0 0 150.49 42.68
  C 153.97 42.01 152.33 33.84 152.82 30.96
  C 153.12 29.14 152.50 27.97 150.47 28.58
  A 1.11 0.88 -32.0 0 1 149.58 28.48
  Q 148.29 27.56 147.75 25.96
  Z"
/>
<path fill="#000000" d="
  M 212.46 24.07
  C 216.08 22.34 210.06 15.99 216.44 16.81
  Q 218.95 17.13 217.31 20.81
  Q 216.42 22.82 217.69 24.11
  A 1.17 0.98 -21.0 0 0 218.56 24.41
  L 224.55 24.01
  Q 226.51 23.89 226.50 25.83
  Q 226.45 33.79 225.46 41.50
  Q 224.89 45.98 220.25 46.51
  C 217.36 46.84 216.33 43.74 217.47 42.15
  Q 218.26 41.06 221.18 40.68
  A 0.69 0.61 -1.5 0 0 221.77 40.13
  L 222.75 30.67
  A 1.59 1.40 13.7 0 0 221.69 29.16
  C 218.04 27.87 217.11 28.96 216.52 32.46
  Q 215.13 40.66 208.82 46.07
  A 1.42 1.41 40.4 0 1 207.16 46.20
  Q 204.74 44.71 204.99 42.30
  A 1.01 0.84 -14.9 0 1 205.50 41.58
  Q 210.74 38.72 213.01 31.33
  Q 213.74 28.96 211.36 29.02
  L 206.32 29.16
  A 0.80 0.68 -10.2 0 1 205.60 28.74
  Q 204.68 26.58 205.91 24.60
  A 1.03 0.96 12.5 0 1 206.69 24.14
  C 208.59 24.00 210.95 24.79 212.46 24.07
  Z"
/>
<path fill="#000000" d="
  M 445.35 39.22
  L 451.27 38.62
  Q 451.91 38.56 452.24 38.63
  C 454.92 39.22 455.42 37.30 454.40 35.26
  C 453.42 33.31 449.40 28.01 455.07 28.16
  A 0.86 0.80 76.6 0 1 455.79 28.64
  Q 458.80 34.61 461.44 40.76
  C 462.33 42.86 463.75 44.13 460.70 45.78
  Q 458.82 46.79 458.17 44.75
  C 457.07 41.29 454.45 43.38 452.47 43.58
  Q 446.82 44.16 441.19 44.95
  Q 435.87 45.69 437.82 40.46
  A 1.18 0.98 -3.8 0 1 438.47 39.84
  C 439.60 39.38 440.29 38.92 440.68 37.66
  Q 443.29 29.40 445.22 20.97
  C 445.68 18.98 444.90 15.78 448.72 16.91
  Q 450.65 17.48 450.10 19.34
  L 444.56 38.04
  A 0.91 0.79 -83.0 0 0 445.35 39.22
  Z"
/>
<path fill="#000000" d="
  M 577.73 37.04
  Q 576.57 39.97 579.90 39.52
  L 586.19 38.69
  Q 588.89 38.33 587.75 36.25
  L 584.99 31.24
  A 1.61 1.60 49.7 0 1 585.13 29.48
  C 587.55 26.34 589.38 29.13 590.33 31.44
  Q 592.36 36.41 594.79 41.20
  C 596.80 45.14 591.37 48.41 591.00 44.46
  A 1.80 1.73 -6.8 0 0 588.96 42.92
  L 571.82 45.39
  A 0.78 0.78 -18.7 0 1 571.04 45.01
  Q 569.80 42.85 570.84 40.51
  Q 570.94 40.29 571.49 39.79
  L 573.38 38.08
  A 1.50 0.62 -90.0 0 0 573.75 37.19
  C 574.63 31.68 578.40 23.89 578.25 20.25
  Q 578.08 16.16 581.63 16.92
  Q 583.55 17.33 583.11 19.25
  Q 580.84 29.23 577.73 37.04
  Z"
/>
<path fill="#000000" d="
  M 110.25 42.00
  C 116.51 41.34 121.42 32.80 122.50 27.00
  Q 122.99 24.39 121.00 25.25
  C 117.49 26.77 114.17 23.81 111.77 28.51
  C 110.62 30.76 106.98 37.25 104.38 32.56
  Q 103.44 30.86 104.95 29.63
  Q 109.37 26.05 111.30 21.04
  C 112.03 19.15 111.84 15.79 115.35 17.41
  A 1.25 1.24 -74.2 0 1 116.07 18.71
  Q 115.71 21.43 117.62 21.09
  C 120.22 20.63 123.10 20.66 125.89 20.76
  A 1.27 1.27 4.6 0 1 127.10 22.18
  C 125.81 33.08 122.48 42.53 111.69 47.15
  A 2.35 2.35 57.3 0 1 109.01 46.56
  Q 105.35 42.51 110.25 42.00
  Z"
/>
<rect fill="#000000" x="-9.05" y="-2.53" transform="translate(549.41,20.12) rotate(-0.2)" width="18.10" height="5.06" rx="1.45"/>
<rect fill="#000000" x="-4.44" y="-2.66" transform="translate(478.33,21.59) rotate(30.7)" width="8.88" height="5.32" rx="1.45"/>
<path fill="#000000" d="
  M 174.29 45.14
  Q 171.83 43.21 171.16 40.22
  C 169.48 32.80 171.17 20.52 180.26 18.52
  C 197.73 14.69 200.17 43.33 185.24 47.13
  A 0.92 0.89 -29.7 0 1 184.38 46.91
  Q 180.29 42.97 186.31 41.42
  Q 188.82 40.77 189.93 38.42
  C 192.32 33.37 191.79 26.63 186.92 23.05
  A 1.11 1.11 -62.3 0 0 185.22 23.58
  C 184.40 25.98 184.37 28.88 183.95 30.89
  C 182.91 35.76 181.69 41.68 177.88 45.05
  Q 176.13 46.59 174.29 45.14
  Z
  M 177.06 39.31
  C 179.54 35.15 181.02 28.60 181.37 24.54
  Q 181.59 22.09 179.58 23.51
  C 174.40 27.21 173.38 33.03 174.75 38.75
  Q 175.51 41.92 177.06 39.31
  Z"
/>
<path fill="#000000" d="
  M 506.48 19.12
  A 2.04 2.03 15.8 0 1 508.46 18.02
  Q 515.37 18.58 521.51 18.08
  Q 524.04 17.87 523.42 20.34
  Q 521.85 26.53 519.34 31.89
  A 1.09 1.05 -54.8 0 0 519.52 33.09
  L 526.86 40.74
  Q 528.42 42.38 527.07 44.05
  C 523.91 47.97 523.25 43.89 521.61 42.28
  C 519.59 40.31 517.19 34.54 514.69 38.69
  Q 513.36 40.88 508.13 45.43
  A 1.15 0.96 -56.9 0 1 507.26 45.70
  Q 505.25 45.35 504.59 42.58
  A 2.13 2.12 -22.7 0 1 505.53 40.29
  Q 514.65 34.56 518.00 24.49
  A 0.94 0.91 -81.0 0 0 517.13 23.25
  L 507.24 23.47
  A 1.09 0.83 -14.8 0 1 506.42 23.13
  Q 505.22 21.56 506.48 19.12
  Z"
/>
<path fill="#000000" d="
  M 17.30 39.29
  C 20.76 40.00 28.60 37.36 26.81 43.33
  A 1.55 1.55 9.1 0 1 25.29 44.43
  Q 16.21 44.19 6.77 44.48
  C 4.27 44.55 2.17 45.20 2.75 41.24
  Q 3.06 39.16 5.53 39.26
  L 11.76 39.50
  A 1.95 1.60 -89.3 0 0 13.41 37.53
  L 13.36 26.79
  A 0.83 0.72 88.0 0 0 12.59 25.96
  L 6.77 26.37
  Q 4.73 26.52 4.56 24.81
  C 4.08 20.05 6.09 21.26 9.00 21.25
  Q 16.75 21.21 24.50 21.25
  A 0.75 0.72 -10.3 0 1 25.19 21.71
  C 28.68 30.70 16.48 21.20 16.50 29.12
  Q 16.50 33.90 16.78 38.69
  A 0.65 0.65 -86.0 0 0 17.30 39.29
  Z"
/>
<path fill="#000000" d="
  M 490.31 24.94
  C 490.65 22.71 491.59 21.96 493.47 23.85
  A 2.87 2.86 27.4 0 1 494.27 26.36
  Q 491.63 41.88 477.13 45.85
  C 473.58 46.82 472.68 45.37 472.78 42.01
  A 1.86 1.86 -0.7 0 1 474.54 40.21
  C 483.98 39.75 488.97 33.70 490.31 24.94
  Z"
/>
<path fill="#000000" d="
  M 281.36 24.14
  Q 282.61 22.73 284.33 24.22
  A 1.59 0.83 -88.1 0 1 284.73 25.06
  L 285.56 29.46
  Q 285.92 31.38 284.21 31.93
  Q 281.47 32.80 281.64 29.81
  Q 281.67 29.31 281.45 28.87
  C 280.65 27.26 280.01 25.67 281.36 24.14
  Z"
/>
<rect fill="#000000" x="-1.93" y="-4.29" transform="translate(82.48,28.39) rotate(-10.1)" width="3.86" height="8.58" rx="1.83"/>
<path fill="#000000" d="
  M 289.55 24.84
  Q 291.02 23.60 292.38 25.17
  A 1.45 1.23 -69.0 0 1 292.69 26.06
  C 292.71 34.57 289.54 44.03 280.31 46.09
  A 1.08 1.04 -30.6 0 1 279.41 45.88
  Q 277.91 44.62 277.37 42.74
  A 1.12 0.99 57.0 0 1 277.51 41.82
  C 278.51 40.44 280.27 40.89 281.48 40.39
  C 287.76 37.79 288.27 32.80 289.13 25.68
  A 1.36 1.10 77.6 0 1 289.55 24.84
  Z"
/>
<path fill="#000000" d="
  M 89.83 24.90
  Q 91.81 25.00 91.78 26.97
  Q 91.56 41.30 80.80 46.27
  Q 78.92 47.14 77.78 45.41
  C 74.41 40.34 79.20 41.78 81.41 40.55
  Q 88.39 36.68 87.82 28.01
  Q 87.61 24.80 89.83 24.90
  Z"
/>
<path fill="#000000" d="
  M 277.87 33.27
  Q 276.41 34.88 275.02 32.92
  Q 274.79 32.59 274.72 31.99
  C 274.47 29.75 271.72 26.54 275.00 25.28
  C 276.60 24.67 277.61 25.64 277.60 27.19
  Q 277.60 27.72 277.81 28.12
  C 278.70 29.80 279.33 31.66 277.87 33.27
  Z"
/>
<path fill="#000000" d="
  M 75.11 33.92
  Q 73.28 31.62 72.86 28.71
  C 72.53 26.37 74.13 24.72 76.31 26.69
  Q 77.73 27.97 77.94 31.31
  Q 78.10 33.95 75.93 34.27
  A 0.95 0.84 64.5 0 1 75.11 33.92
  Z"
/>
<rect fill="#000000" x="-4.43" y="-2.61" transform="translate(476.07,29.88) rotate(28.5)" width="8.86" height="5.22" rx="1.86"/>
<path fill="#000000" d="
  M 550.02 42.26
  C 547.95 45.36 545.20 49.28 541.61 44.49
  Q 540.36 42.83 542.30 42.07
  Q 548.23 39.75 548.53 32.57
  A 1.47 1.46 -85.8 0 0 547.23 31.06
  Q 543.73 30.65 540.76 31.29
  Q 536.88 32.12 537.68 27.10
  A 1.19 1.19 -83.6 0 1 538.93 26.10
  Q 549.28 26.76 559.94 26.02
  A 1.48 1.47 79.6 0 1 561.45 27.07
  C 563.26 33.07 557.78 31.59 554.70 30.99
  Q 552.49 30.56 552.50 32.81
  Q 552.51 38.52 550.02 42.26
  Z"
/>
<path fill="#000000" d="
  M 404.42 28.80
  A 1.20 1.20 8.7 0 1 405.66 27.89
  Q 417.50 28.60 427.56 27.73
  A 1.00 0.90 -19.5 0 1 428.39 28.07
  Q 430.21 30.32 428.69 32.84
  A 0.92 0.91 16.5 0 1 427.85 33.29
  Q 416.64 32.72 406.25 33.46
  A 1.54 1.07 -21.4 0 1 405.33 33.24
  Q 403.61 31.97 404.42 28.80
  Z"
/>
<path fill="#000000" d="
  M 338.99 29.55
  A 1.64 1.63 13.8 0 1 340.67 28.54
  C 343.32 28.82 353.31 27.09 350.20 32.50
  A 1.34 1.08 2.3 0 1 349.44 33.06
  C 345.31 34.26 346.12 41.09 349.46 38.60
  A 1.25 1.25 61.4 0 1 351.39 39.17
  Q 352.80 43.09 349.00 43.73
  Q 344.30 44.51 339.49 46.18
  A 0.90 0.90 -21.1 0 1 338.38 45.69
  Q 337.67 44.05 338.35 41.61
  A 1.21 1.20 -78.7 0 1 339.65 40.74
  C 345.34 41.41 344.99 31.98 340.47 33.57
  A 0.96 0.78 -31.3 0 1 339.60 33.45
  Q 337.98 32.06 338.99 29.55
  Z"
/>
<path fill="#000000" d="
  M 38.35 45.50
  C 35.41 43.18 37.71 41.26 38.74 38.99
  C 39.21 37.95 41.94 28.35 44.15 31.92
  A 2.63 2.40 40.1 0 1 44.43 34.04
  L 40.81 44.83
  Q 40.12 46.88 38.35 45.50
  Z"
/>
<path fill="#000000" d="
  M 57.71 45.50
  A 1.82 1.82 -12.7 0 1 55.76 44.27
  L 52.56 34.69
  Q 51.46 31.37 53.56 31.31
  C 56.94 31.22 56.01 33.88 56.59 35.69
  C 57.29 37.90 62.73 44.89 57.71 45.50
  Z"
/>
<path fill="#000000" d="
  M 328.79 70.03
  C 331.00 71.94 329.64 75.78 333.73 74.73
  Q 334.39 74.56 333.98 75.11
  Q 333.20 76.14 334.19 77.12
  Q 334.60 77.52 334.72 77.91
  Q 336.61 83.67 333.46 88.76
  A 1.23 1.03 6.1 0 1 332.70 89.27
  C 326.72 90.56 334.72 94.46 329.06 97.56
  Q 323.76 100.48 318.73 102.78
  A 1.91 1.90 -31.0 0 1 316.43 102.21
  C 312.74 97.39 308.03 97.98 303.57 94.69
  Q 302.21 93.69 301.95 92.03
  C 301.06 86.36 299.68 77.10 305.36 73.62
  Q 309.46 71.11 313.49 68.48
  Q 315.28 67.31 317.51 67.45
  Q 318.01 67.49 318.46 67.30
  C 322.70 65.61 325.80 67.46 328.79 70.03
  Z
  M 312.94 83.44
  Q 311.15 85.67 314.50 86.50
  L 318.41 87.47
  A 1.81 1.67 15.8 0 0 320.53 86.40
  C 322.65 79.91 315.21 80.60 312.94 83.44
  Z"
/>
<path fill="#000000" d="
  M 115.50 80.47
  Q 117.44 79.50 119.43 78.60
  C 120.28 78.21 123.31 78.34 121.15 76.56
  Q 120.61 76.11 121.18 76.01
  Q 122.03 75.85 123.00 78.17
  A 1.71 1.70 81.6 0 0 124.38 79.20
  C 129.20 79.69 127.69 83.74 130.90 86.16
  Q 132.50 87.37 131.83 89.26
  Q 131.27 90.85 131.97 92.08
  A 1.03 0.59 53.1 0 1 132.08 92.96
  Q 131.78 93.44 131.15 93.06
  A 0.74 0.56 37.8 0 0 130.35 93.05
  C 129.77 93.58 126.59 96.48 130.20 95.68
  Q 130.73 95.56 130.47 96.01
  Q 129.54 97.64 127.67 96.52
  A 0.98 0.91 47.0 0 0 126.81 96.46
  Q 124.18 97.64 121.25 97.32
  A 1.61 1.30 -51.1 0 0 120.33 97.52
  Q 118.69 98.44 117.39 97.07
  A 1.58 0.60 89.6 0 1 117.05 96.19
  Q 116.91 95.26 115.81 95.35
  A 1.15 0.84 -18.7 0 1 114.95 95.08
  Q 113.53 93.56 113.54 91.43
  A 0.98 0.95 19.9 0 0 113.16 90.65
  C 110.56 88.56 112.16 84.80 113.93 82.73
  C 116.36 79.89 112.67 81.66 112.36 81.21
  A 0.56 0.34 -31.3 0 1 112.67 80.61
  C 113.89 79.88 116.81 76.48 117.77 76.61
  Q 118.32 76.68 117.86 77.05
  Q 116.20 78.37 115.27 80.24
  Q 115.05 80.70 115.50 80.47
  Z"
/>
<path fill="#000000" d="
  M 239.68 141.51
  Q 239.11 140.67 238.21 140.20
  A 1.24 0.99 -37.4 0 0 237.29 140.18
  Q 234.81 141.11 236.75 138.87
  A 0.95 0.87 33.4 0 0 236.40 137.49
  L 233.65 136.06
  Q 233.10 135.77 232.76 135.78
  Q 230.59 135.84 232.23 134.14
  A 1.72 1.71 -28.0 0 0 232.69 132.65
  Q 232.42 131.02 232.85 130.30
  A 1.41 0.36 -54.8 0 0 233.18 129.44
  Q 233.05 126.35 230.84 128.63
  A 0.95 0.70 -55.8 0 1 230.02 128.92
  Q 229.16 128.67 229.39 127.78
  A 1.33 0.91 -14.6 0 1 230.00 127.08
  C 234.12 124.82 234.13 120.07 233.63 115.94
  A 1.14 0.95 66.5 0 1 233.89 115.06
  Q 234.91 113.99 234.25 116.50
  Q 233.69 118.63 235.44 117.19
  Q 236.43 116.37 237.07 115.26
  A 1.68 1.47 -84.1 0 1 237.76 114.62
  Q 239.32 113.91 240.44 112.62
  Q 240.99 112.00 241.11 112.51
  C 241.24 113.00 238.73 116.61 242.15 114.20
  Q 243.95 112.93 242.82 111.38
  A 0.85 0.65 45.3 0 1 242.71 110.54
  Q 243.13 109.84 243.95 109.64
  A 1.48 0.79 38.5 0 1 244.87 109.81
  C 246.75 110.77 248.86 109.07 250.96 109.46
  Q 254.05 110.04 254.14 110.04
  Q 257.35 110.14 260.56 110.40
  A 1.34 1.04 65.8 0 1 261.37 110.83
  Q 262.28 111.85 263.23 110.94
  A 1.30 0.63 -53.3 0 1 264.06 110.51
  L 266.70 110.62
  A 1.06 0.94 -10.5 0 0 267.76 109.26
  Q 265.84 105.48 265.98 101.24
  A 0.60 0.54 -85.6 0 0 265.52 100.64
  C 262.79 100.23 266.49 104.16 264.65 103.61
  A 1.41 1.41 10.1 0 1 263.64 102.17
  Q 263.88 98.07 261.50 98.25
  Q 259.49 98.40 259.94 94.44
  Q 260.11 92.94 261.44 92.90
  A 0.69 0.60 6.1 0 0 262.07 92.46
  L 263.18 88.30
  A 1.21 1.21 -7.5 0 1 263.74 87.57
  C 267.05 85.66 269.50 83.42 273.22 81.85
  Q 276.58 80.44 279.00 77.31
  A 1.70 1.69 41.3 0 1 281.53 77.15
  C 281.92 77.54 285.81 79.28 285.77 79.44
  A 1.00 0.48 -14.0 0 1 285.14 79.96
  Q 282.62 80.92 286.81 82.03
  A 2.06 2.02 75.5 0 1 287.74 82.59
  C 292.38 87.56 298.08 95.63 292.91 102.11
  Q 291.22 104.23 293.14 106.14
  Q 294.88 107.86 297.35 107.34
  Q 298.48 107.10 300.52 105.26
  C 306.56 99.80 313.01 105.00 318.62 107.95
  Q 319.03 108.17 319.55 108.15
  Q 322.05 108.07 322.39 110.45
  A 0.94 0.67 -27.6 0 1 322.01 111.20
  Q 321.21 111.82 321.73 112.83
  A 1.26 1.08 42.3 0 1 321.84 113.72
  C 320.56 117.94 327.57 113.23 324.89 116.44
  A 1.44 0.95 -34.8 0 0 324.54 117.31
  Q 324.61 118.57 326.08 117.83
  Q 326.61 117.57 326.52 118.15
  Q 326.14 120.51 325.05 122.50
  C 324.47 123.54 323.01 124.03 323.36 125.77
  A 1.57 1.07 60.1 0 1 323.29 126.70
  Q 320.98 131.41 317.63 135.44
  A 1.32 1.24 14.6 0 1 316.82 135.88
  C 313.71 136.29 310.52 137.27 307.69 137.46
  Q 302.65 137.79 296.87 137.12
  Q 294.09 136.80 293.14 139.23
  L 291.66 143.03
  A 0.99 0.73 42.2 0 0 291.83 143.86
  Q 292.50 144.75 291.75 145.75
  Q 291.09 146.64 291.31 150.31
  Q 291.80 158.41 291.28 166.50
  A 1.76 1.53 35.1 0 0 291.51 167.43
  Q 292.78 169.66 292.65 172.23
  C 292.56 173.86 291.13 175.10 292.25 177.32
  A 0.55 0.54 59.2 0 1 292.08 178.02
  Q 289.88 179.54 289.81 182.31
  Q 289.79 182.82 289.57 183.24
  C 287.22 187.60 289.76 190.45 288.63 194.77
  A 1.18 1.17 37.0 0 0 288.76 195.66
  C 292.67 202.11 285.25 204.13 286.16 210.26
  A 0.69 0.68 72.6 0 1 285.80 210.97
  C 283.95 211.93 283.43 214.35 281.80 214.26
  A 0.66 0.57 86.6 0 1 281.26 213.70
  Q 280.87 211.13 278.56 212.46
  A 0.33 0.32 -22.7 0 1 278.08 212.27
  C 277.21 209.30 277.87 214.52 276.68 213.54
  A 1.34 1.07 -77.3 0 1 276.27 212.69
  Q 275.76 206.54 276.62 200.41
  Q 276.77 199.30 276.58 198.60
  Q 275.96 196.27 274.15 200.35
  Q 273.59 201.63 273.65 203.24
  L 274.19 215.93
  Q 274.25 217.33 273.59 216.08
  C 270.96 211.07 271.64 217.87 271.67 218.29
  A 0.94 0.55 77.6 0 1 271.42 219.07
  C 270.92 219.39 268.62 212.27 268.26 211.40
  A 1.27 0.72 56.4 0 1 268.19 210.46
  L 269.20 208.39
  A 1.52 0.56 -55.2 0 0 269.43 207.50
  C 268.98 204.34 268.06 202.11 268.68 198.83
  Q 269.25 195.80 269.68 192.75
  A 1.92 1.10 -33.6 0 1 270.11 191.89
  Q 271.18 190.60 269.75 189.00
  Q 267.69 186.70 267.90 182.69
  A 1.31 0.90 -25.6 0 1 268.35 181.91
  C 270.26 180.29 266.34 178.61 268.88 176.08
  A 1.86 1.32 -23.7 0 0 269.37 175.26
  C 270.06 172.23 269.84 169.29 270.15 166.24
  C 270.31 164.60 268.49 156.58 265.63 163.22
  A 1.92 1.28 -15.9 0 1 265.01 163.95
  Q 263.60 164.94 265.26 166.26
  Q 266.11 166.93 265.10 167.31
  C 262.96 168.10 263.06 169.47 262.71 171.41
  C 262.50 172.56 261.18 180.80 259.54 180.33
  Q 259.00 180.18 259.29 180.66
  Q 260.57 182.78 258.97 182.40
  A 0.57 0.47 13.8 0 0 258.30 182.72
  L 257.59 185.69
  A 0.42 0.36 2.6 0 0 258.05 186.12
  C 259.97 185.94 256.68 189.55 256.53 191.25
  A 1.17 0.96 -19.3 0 1 256.07 192.01
  Q 254.73 193.03 255.44 195.38
  A 1.48 1.48 77.7 0 1 254.22 197.28
  Q 251.94 197.60 253.46 199.84
  A 1.39 1.15 36.5 0 1 253.68 200.74
  Q 253.07 204.51 250.81 207.59
  A 1.07 1.04 56.1 0 0 250.65 208.48
  Q 251.25 210.64 249.66 212.22
  Q 248.72 213.15 248.92 211.84
  Q 249.73 206.51 247.09 211.76
  A 0.69 0.68 -48.7 0 1 245.91 211.84
  Q 242.61 206.93 241.56 201.57
  Q 241.46 201.05 240.94 200.42
  L 237.54 196.26
  A 0.73 0.54 -45.8 0 1 237.65 195.45
  C 240.18 192.44 235.09 191.05 238.08 189.05
  A 1.59 1.58 58.2 0 0 238.57 186.94
  C 237.56 185.19 239.52 183.48 239.71 181.74
  A 1.19 0.91 31.9 0 0 239.39 180.90
  C 237.57 178.94 240.37 178.44 241.26 177.66
  C 243.67 175.54 244.22 172.32 245.32 169.46
  A 0.58 0.38 -73.9 0 0 245.09 168.72
  L 244.80 168.70
  A 0.57 0.32 -2.8 0 1 244.37 168.48
  Q 242.21 163.91 243.15 158.98
  Q 243.24 158.51 243.09 158.02
  Q 241.39 152.40 246.81 148.11
  Q 249.64 145.86 249.76 144.60
  L 249.93 142.80
  A 0.55 0.50 6.1 0 0 249.44 142.25
  L 245.56 141.86
  A 1.30 1.13 -58.1 0 0 244.68 142.13
  Q 242.42 143.92 239.65 143.13
  C 239.06 142.96 237.31 141.59 239.44 141.86
  Q 239.96 141.92 239.68 141.51
  Z
  M 260.24 95.34
  A 0.88 0.87 25.4 0 0 260.68 96.56
  C 263.92 97.89 261.93 92.22 260.24 95.34
  Z
  M 254.89 140.16
  C 252.36 138.66 252.52 143.70 255.01 143.35
  Q 255.17 143.33 255.96 143.41
  L 259.14 143.73
  Q 261.12 143.92 261.98 145.18
  Q 263.16 146.90 265.43 146.84
  A 1.37 1.21 61.8 0 1 266.29 147.16
  Q 267.04 147.76 267.86 147.51
  A 1.31 0.78 -76.3 0 0 268.51 146.85
  L 270.06 143.56
  Q 271.31 140.92 269.00 141.25
  Q 267.13 141.52 266.70 140.47
  A 1.74 1.65 75.6 0 0 264.97 139.39
  L 255.81 140.36
  A 1.54 1.47 -31.4 0 1 254.89 140.16
  Z
  M 255.14 187.79
  C 255.30 187.23 257.51 180.45 254.81 182.61
  A 1.44 1.07 -21.9 0 0 254.31 183.43
  L 253.74 188.49
  A 1.23 0.97 30.9 0 0 254.08 189.39
  C 255.30 190.69 254.96 188.41 255.14 187.79
  Z
  M 287.42 202.38
  Q 287.74 202.77 288.06 201.95
  A 0.51 0.45 -67.9 0 0 287.84 201.32
  Q 287.55 201.20 287.37 201.47
  A 0.76 0.75 42.2 0 0 287.42 202.38
  Z"
/>
<path fill="#000000" d="
  M 105.70 84.23
  C 106.37 85.19 108.15 86.66 108.25 88.00
  Q 108.64 93.44 109.50 95.00
  Q 111.29 98.25 108.87 100.66
  Q 108.80 100.73 108.34 101.47
  L 107.80 102.33
  A 0.64 0.48 31.2 0 1 107.02 102.41
  C 105.82 101.74 99.52 101.95 98.07 101.94
  A 1.54 1.06 -17.0 0 1 97.16 101.65
  L 96.29 100.91
  A 1.00 0.93 -29.2 0 0 95.46 100.71
  L 91.05 101.63
  A 1.07 0.86 56.1 0 1 90.19 101.36
  Q 86.57 98.10 85.50 93.25
  Q 85.26 92.16 86.19 90.19
  L 88.05 86.23
  A 1.55 0.80 -13.0 0 1 88.78 85.61
  Q 91.60 84.33 93.30 81.74
  A 1.83 1.48 -80.2 0 1 94.02 81.11
  Q 101.39 78.03 105.70 84.23
  Z"
/>
<path fill="#000000" d="
  M 109.46 122.25
  L 109.50 122.46
  Q 108.08 124.27 110.21 124.50
  L 110.54 125.00
  C 109.16 129.12 106.57 129.82 102.48 128.88
  Q 97.78 127.80 93.48 130.31
  A 0.79 0.72 -20.5 0 0 93.09 131.06
  Q 93.31 132.48 94.87 131.79
  A 1.87 1.53 -48.5 0 1 95.80 131.64
  C 97.01 131.82 102.56 131.08 102.79 131.50
  C 102.31 132.40 99.55 133.19 100.41 133.91
  A 0.93 0.86 -33.7 0 0 101.29 134.05
  Q 102.59 133.58 103.25 132.29
  Q 105.05 132.02 103.92 133.18
  Q 101.77 135.39 98.08 136.04
  A 0.73 0.73 -4.2 0 1 97.22 135.30
  Q 97.27 133.52 96.73 133.57
  A 0.78 0.43 89.9 0 0 96.33 134.31
  C 96.23 136.97 88.30 134.92 92.83 139.71
  Q 94.02 140.96 92.32 140.68
  C 90.55 140.38 90.15 144.89 92.20 144.65
  A 0.58 0.51 -8.5 0 1 92.82 145.05
  Q 92.98 145.92 92.61 146.72
  Q 92.19 147.61 92.21 148.59
  Q 92.34 153.79 91.74 157.29
  Q 90.35 165.37 89.82 173.55
  C 89.52 178.15 89.58 190.03 85.25 192.57
  A 2.04 1.68 -5.9 0 0 84.58 193.25
  Q 82.58 196.87 79.23 199.27
  A 1.73 1.70 -8.0 0 0 78.64 200.04
  C 77.36 203.39 72.73 206.29 72.31 208.51
  A 1.52 1.25 79.5 0 1 71.86 209.32
  Q 68.85 211.82 67.37 215.47
  A 1.31 1.24 89.5 0 1 66.74 216.15
  C 63.64 217.64 58.66 218.97 57.74 220.86
  A 0.97 0.69 -74.2 0 1 57.07 221.40
  Q 56.01 221.48 55.98 220.25
  A 0.92 0.61 -84.2 0 0 55.58 219.49
  Q 54.95 219.23 54.75 220.00
  Q 54.18 222.24 50.89 221.58
  A 0.47 0.47 -65.7 0 1 50.61 220.84
  L 52.95 217.66
  A 0.39 0.35 -63.3 0 0 52.79 217.07
  Q 51.89 216.83 51.43 217.78
  Q 51.16 218.34 50.87 218.57
  Q 49.34 219.82 50.30 217.73
  Q 50.75 216.77 51.59 216.13
  Q 53.86 214.43 51.87 212.51
  A 1.55 1.48 44.3 0 0 49.74 212.49
  L 43.03 219.34
  A 1.56 1.45 -57.9 0 1 41.51 219.75
  C 38.15 218.68 37.68 221.65 36.76 223.85
  A 0.79 0.41 -67.3 0 1 36.09 224.41
  Q 35.60 224.22 36.00 222.28
  Q 36.21 221.25 36.87 220.42
  Q 38.18 218.76 36.79 218.11
  A 0.81 0.65 16.3 0 1 36.32 217.44
  C 36.55 209.05 44.71 210.70 46.64 203.68
  C 47.50 200.52 49.07 198.88 50.13 196.07
  Q 50.72 194.50 52.18 193.69
  C 54.40 192.45 54.98 191.46 55.59 188.80
  C 56.11 186.52 58.53 185.86 58.58 183.31
  Q 58.59 182.93 58.82 182.38
  L 59.69 180.30
  A 1.67 1.01 -84.0 0 1 60.25 179.56
  C 62.77 178.01 64.63 172.23 65.11 169.56
  A 0.33 0.33 -2.4 0 0 64.70 169.19
  Q 62.15 169.80 64.75 167.75
  C 66.04 166.73 69.59 161.59 65.82 161.66
  A 0.53 0.46 -0.6 0 1 65.28 161.20
  L 65.26 158.88
  Q 65.26 157.65 64.29 158.36
  C 59.25 162.02 63.77 155.97 63.56 154.39
  C 63.06 150.72 63.47 147.80 62.31 143.82
  A 1.39 1.39 -25.1 0 0 60.20 143.06
  C 58.13 144.44 57.80 146.14 57.40 148.91
  C 57.01 151.56 54.26 157.18 52.79 159.33
  A 0.94 0.88 -40.9 0 0 52.70 160.21
  L 53.30 161.55
  A 0.49 0.45 -23.9 0 1 53.03 162.17
  C 50.28 163.40 48.91 168.71 45.63 164.53
  Q 44.86 163.55 44.41 164.70
  Q 43.38 167.34 42.70 166.20
  A 1.06 0.75 -52.9 0 1 42.73 165.31
  Q 43.72 163.22 41.42 164.09
  Q 39.97 164.64 40.89 163.40
  Q 42.20 161.63 40.73 161.12
  A 1.41 1.13 -43.7 0 0 39.78 161.20
  Q 36.82 162.61 36.69 165.93
  A 0.71 0.60 86.0 0 1 36.21 166.58
  C 34.16 167.00 36.99 163.82 35.68 163.84
  A 1.02 0.56 -68.6 0 0 35.01 164.40
  L 33.79 166.59
  Q 32.97 168.07 32.53 166.36
  C 31.73 163.29 30.39 167.17 28.21 166.44
  Q 27.76 166.28 27.26 166.35
  Q 26.39 166.47 26.36 165.92
  A 0.98 0.59 -23.3 0 1 26.87 165.20
  C 30.17 163.19 24.85 159.02 28.04 159.66
  A 1.53 1.53 14.6 0 0 29.80 158.63
  Q 30.71 155.79 28.24 157.74
  Q 27.62 158.23 27.88 157.52
  L 28.81 155.00
  A 0.83 0.59 8.0 0 1 29.57 154.61
  Q 31.07 154.63 30.67 153.22
  A 1.20 0.65 65.3 0 1 30.73 152.30
  L 31.83 150.79
  A 1.33 0.27 -50.6 0 0 32.28 149.94
  C 32.37 147.53 26.66 154.78 30.09 149.18
  C 31.16 147.43 32.56 147.10 33.20 144.55
  A 1.08 0.89 90.0 0 1 33.77 143.86
  C 35.67 143.15 32.99 146.04 33.45 146.85
  A 0.54 0.51 -30.8 0 0 34.19 147.01
  C 36.63 145.54 35.05 143.19 36.37 141.99
  Q 37.25 141.18 36.08 140.94
  C 33.62 140.44 37.16 138.95 35.72 138.00
  A 0.54 0.54 38.1 0 1 35.62 137.19
  Q 37.42 135.21 36.74 133.68
  A 0.38 0.34 -35.9 0 0 36.15 133.62
  C 34.01 135.75 35.15 133.04 35.38 132.60
  Q 36.20 131.02 35.52 129.28
  A 0.41 0.40 73.7 0 1 35.81 128.73
  Q 38.95 128.11 38.55 125.24
  C 38.23 122.95 38.45 122.24 38.89 120.25
  A 1.68 0.95 51.8 0 0 38.75 119.32
  L 38.39 118.49
  A 0.68 0.56 -30.0 0 1 38.67 117.74
  C 40.29 116.62 42.40 112.28 38.29 113.30
  A 0.39 0.34 80.5 0 1 37.87 112.95
  L 37.47 108.91
  Q 37.39 108.14 37.46 107.97
  L 38.54 105.20
  A 0.58 0.51 18.6 0 1 39.22 104.92
  Q 40.93 105.41 41.96 104.16
  A 0.87 0.79 53.8 0 0 42.05 103.29
  C 40.86 100.71 36.85 97.45 37.53 94.61
  C 38.15 91.97 42.88 89.39 45.09 87.80
  A 1.94 1.10 11.4 0 1 46.00 87.50
  Q 47.13 87.41 47.46 86.31
  A 1.13 0.95 89.9 0 1 48.03 85.63
  Q 50.03 84.75 51.24 82.93
  A 0.49 0.49 -57.0 0 1 51.91 82.78
  L 63.38 90.18
  Q 63.80 90.45 64.03 90.89
  Q 65.79 94.29 70.27 94.81
  Q 70.91 94.89 70.37 95.25
  Q 68.85 96.27 70.06 96.95
  C 75.03 99.74 72.75 103.10 70.26 106.19
  C 69.65 106.94 62.41 111.29 68.09 111.79
  Q 68.96 111.87 70.53 111.62
  C 76.42 110.68 82.04 109.77 88.13 109.49
  Q 97.44 109.06 106.74 108.53
  Q 107.20 108.50 107.66 108.22
  Q 109.08 107.35 110.76 107.64
  A 1.74 1.66 38.1 0 0 111.70 107.55
  C 113.96 106.68 115.93 108.86 118.20 109.24
  A 0.47 0.35 17.1 0 1 118.60 109.79
  Q 118.23 110.41 116.55 110.73
  Q 116.18 110.80 115.71 111.21
  L 112.11 114.29
  A 0.74 0.52 35.2 0 1 111.38 114.29
  Q 109.31 113.21 107.81 114.36
  A 0.79 0.76 -27.5 0 0 107.53 115.19
  L 108.75 119.48
  A 1.18 1.07 53.1 0 1 108.67 120.35
  Q 108.02 121.56 109.46 122.25
  Z
  M 105.71 113.07
  Q 107.53 113.56 108.10 112.23
  A 0.62 0.60 -64.4 0 0 107.84 111.45
  Q 106.79 110.86 105.47 112.15
  Q 104.78 112.82 105.71 113.07
  Z"
/>
<path fill="#000000" d="
  M 224.65 169.01
  Q 224.51 170.29 225.63 169.79
  Q 229.24 168.18 227.60 170.62
  A 0.49 0.49 -63.4 0 0 227.84 171.35
  Q 230.11 172.18 230.10 173.98
  C 230.07 177.15 230.81 180.59 231.46 183.69
  A 1.55 1.02 22.1 0 0 231.99 184.46
  Q 232.62 184.97 232.55 185.70
  A 1.24 0.68 -25.3 0 1 232.01 186.45
  Q 231.29 186.96 230.93 187.77
  A 1.39 0.97 54.4 0 0 230.94 188.70
  C 231.81 191.05 229.71 192.60 230.64 194.15
  A 1.28 0.54 51.8 0 1 230.89 195.06
  L 229.92 198.25
  A 1.14 0.71 -7.8 0 1 229.21 198.84
  C 224.50 200.33 221.84 202.11 215.95 202.43
  Q 215.87 202.44 213.11 202.86
  C 208.02 203.64 205.21 195.64 204.02 191.82
  Q 203.25 189.35 199.99 192.65
  A 3.89 3.89 -70.0 0 1 197.55 193.79
  C 192.83 194.20 186.16 192.74 182.66 196.09
  Q 182.32 196.41 182.26 195.94
  Q 181.96 193.87 180.98 195.37
  C 180.70 195.80 180.50 199.38 179.40 195.69
  Q 179.08 194.60 178.39 195.50
  C 177.38 196.83 178.72 199.72 176.90 199.49
  A 1.41 1.40 -67.0 0 0 175.60 200.02
  Q 173.45 202.73 170.46 201.46
  A 1.59 0.87 36.0 0 0 169.52 201.34
  L 159.46 204.08
  A 1.41 1.02 -33.3 0 1 158.55 204.04
  C 156.57 203.06 152.41 200.30 152.41 197.81
  A 1.42 0.68 -81.0 0 0 152.14 196.91
  Q 151.56 196.29 150.55 196.37
  A 1.77 0.76 38.6 0 1 149.68 196.13
  L 146.50 194.50
  A 0.96 0.95 9.2 0 1 146.00 193.82
  L 145.17 188.73
  A 0.63 0.52 75.6 0 1 145.47 188.09
  Q 147.26 187.36 146.65 185.22
  A 0.78 0.75 -28.8 0 1 146.89 184.45
  Q 148.05 183.45 146.76 182.67
  A 0.47 0.38 36.2 0 1 146.59 182.03
  Q 147.45 181.15 149.86 181.80
  A 2.08 2.07 -56.5 0 0 151.66 181.43
  Q 153.14 180.27 149.90 180.25
  Q 148.79 180.24 149.60 179.48
  Q 151.70 177.54 152.32 175.42
  A 0.83 0.80 1.0 0 1 152.93 174.85
  Q 154.39 174.52 153.65 173.56
  A 1.16 0.78 40.4 0 1 153.41 172.71
  Q 153.75 171.32 154.50 173.10
  A 0.56 0.54 69.5 0 0 155.17 173.42
  Q 159.13 172.19 161.86 169.08
  A 1.54 0.71 82.2 0 0 162.13 168.19
  L 162.20 166.55
  A 1.49 0.66 -36.9 0 1 162.67 165.71
  C 166.03 162.25 164.85 157.31 168.49 152.51
  C 170.08 150.41 169.11 148.01 170.40 146.08
  A 0.88 0.52 -51.3 0 0 170.52 145.24
  Q 170.36 145.01 170.06 144.95
  A 1.06 0.37 8.4 0 1 169.27 144.54
  Q 169.09 144.07 169.86 143.80
  A 1.15 1.15 -7.3 0 0 170.61 142.83
  Q 170.91 139.48 170.29 138.36
  A 3.54 2.47 -56.9 0 1 170.21 135.86
  L 171.88 130.81
  A 1.25 0.63 48.9 0 0 171.65 129.90
  Q 170.82 128.60 170.89 127.06
  Q 170.91 126.60 170.70 126.12
  Q 170.08 124.76 171.69 124.49
  A 0.96 0.71 1.4 0 0 172.40 123.99
  Q 172.84 122.76 170.76 123.30
  Q 169.75 123.55 170.30 122.67
  Q 170.97 121.60 172.20 121.28
  A 1.00 0.75 -2.8 0 0 172.87 120.72
  Q 173.20 119.59 171.70 120.27
  A 0.91 0.68 -34.1 0 1 170.84 120.23
  Q 170.10 119.60 171.35 119.01
  A 1.17 1.08 -5.9 0 0 171.95 118.33
  Q 172.83 115.28 174.45 112.55
  Q 175.82 110.23 174.51 110.95
  Q 173.77 111.36 172.08 113.40
  Q 171.74 113.82 171.84 113.29
  C 172.29 111.01 175.27 109.25 174.04 107.17
  A 0.78 0.72 47.9 0 1 174.05 106.34
  Q 176.40 103.04 177.22 99.06
  Q 177.31 98.60 177.63 98.19
  L 180.21 94.91
  A 0.95 0.71 56.6 0 0 180.26 94.06
  Q 179.83 93.03 180.89 92.42
  A 1.09 1.08 76.8 0 0 181.42 91.56
  Q 181.58 89.38 182.80 90.21
  A 1.80 1.78 -33.4 0 0 184.16 90.48
  Q 187.18 89.85 185.96 88.74
  A 0.92 0.39 39.4 0 1 185.55 87.96
  Q 185.82 87.34 187.98 87.84
  Q 189.10 88.10 190.23 87.97
  Q 191.84 87.80 192.16 88.53
  Q 192.83 90.06 194.48 90.31
  C 201.70 91.41 199.19 95.27 196.31 98.93
  C 195.36 100.15 194.74 102.65 197.75 101.00
  Q 201.28 99.07 201.00 97.75
  Q 200.83 96.93 200.99 96.74
  A 0.69 0.26 60.4 0 1 201.63 97.28
  Q 202.32 98.61 203.50 97.58
  A 0.84 0.80 56.7 0 1 204.76 97.87
  L 208.06 104.51
  Q 208.31 105.02 208.32 105.43
  C 208.35 108.23 209.95 115.22 207.43 116.76
  Q 207.22 116.89 206.51 116.95
  Q 205.38 117.05 205.62 119.45
  A 0.93 0.93 77.7 0 1 205.00 120.42
  C 202.38 121.30 204.30 122.96 203.45 123.82
  A 0.65 0.42 48.7 0 1 202.68 123.60
  Q 200.41 120.85 201.00 125.25
  Q 201.14 126.29 200.75 128.50
  Q 200.64 129.12 199.99 129.09
  A 0.93 0.52 8.7 0 0 199.19 129.39
  C 198.43 130.86 202.74 132.42 199.49 133.38
  A 1.27 1.08 2.5 0 0 198.76 133.95
  C 197.93 135.60 197.58 136.38 197.63 138.42
  C 197.70 141.40 194.37 146.33 193.18 149.29
  C 192.92 149.95 192.92 152.95 191.83 150.62
  A 0.83 0.83 -35.1 0 0 190.49 150.39
  Q 187.62 153.28 187.75 157.01
  Q 187.83 159.19 186.85 161.59
  L 183.00 171.01
  A 0.92 0.90 10.9 0 0 183.86 172.25
  Q 189.88 172.25 194.67 168.84
  Q 196.07 167.85 197.74 167.50
  C 201.57 166.71 198.51 161.79 197.36 160.10
  A 1.93 1.46 33.2 0 1 197.03 159.18
  Q 196.90 156.35 198.63 153.81
  Q 198.98 153.29 199.08 152.68
  Q 199.66 149.22 201.71 148.55
  A 1.17 1.03 0.5 0 0 202.38 147.97
  Q 204.37 143.55 209.17 144.12
  C 210.51 144.28 211.87 143.72 213.00 144.23
  Q 215.03 145.16 217.20 145.70
  A 1.37 0.92 72.7 0 1 217.91 146.27
  L 219.26 148.40
  A 0.83 0.73 -23.7 0 0 220.17 148.69
  Q 222.17 148.05 221.94 150.38
  A 2.35 2.35 17.8 0 0 223.12 152.67
  C 226.20 154.40 227.67 160.21 225.49 163.28
  Q 225.23 163.65 225.18 164.18
  L 224.65 169.01
  Z
  M 191.19 89.57
  C 191.72 88.13 187.46 89.30 190.50 89.86
  A 0.66 0.50 14.3 0 0 191.19 89.57
  Z
  M 197.7753 95.3779
  A 1.04 0.82 86.4 0 0 198.5284 94.2885
  A 1.04 0.82 86.4 0 0 197.6447 93.3021
  A 1.04 0.82 86.4 0 0 196.8916 94.3915
  A 1.04 0.82 86.4 0 0 197.7753 95.3779
  Z
  M 195.6324 135.2397
  A 1.58 1.32 119.9 0 0 197.5643 134.5280
  A 1.58 1.32 119.9 0 0 197.2076 132.5003
  A 1.58 1.32 119.9 0 0 195.2757 133.2120
  A 1.58 1.32 119.9 0 0 195.6324 135.2397
  Z"
/>
<path fill="#000000" d="
  M 341.50 94.21
  Q 341.98 96.08 343.25 94.79
  L 344.09 94.06
  A 1.52 0.68 88.3 0 0 344.45 93.19
  Q 344.59 92.21 345.75 92.39
  A 1.73 1.16 26.5 0 0 346.69 92.27
  L 355.30 87.73
  A 1.07 1.06 -46.6 0 1 356.21 87.70
  C 358.34 88.63 362.77 92.30 364.81 91.58
  Q 366.63 90.94 367.59 92.63
  Q 371.40 99.36 371.56 105.05
  A 0.66 0.62 -9.0 0 1 371.08 105.67
  Q 369.71 106.08 369.30 107.45
  Q 369.13 108.00 368.83 108.29
  C 367.60 109.49 362.49 111.88 366.07 114.02
  A 0.99 0.85 -39.8 0 0 366.95 114.03
  C 369.86 112.58 372.04 111.31 375.45 111.33
  Q 388.83 111.41 402.20 110.69
  Q 404.25 110.57 402.84 112.05
  L 399.85 115.15
  A 0.76 0.75 -41.4 0 1 398.70 115.08
  Q 397.35 113.27 396.45 115.37
  C 394.05 121.00 399.65 116.79 400.23 118.07
  A 0.51 0.38 -16.5 0 1 399.82 118.63
  Q 398.64 118.88 398.21 119.96
  A 1.31 0.89 50.9 0 0 398.29 120.88
  Q 399.15 122.77 397.24 122.38
  A 1.80 1.13 29.7 0 0 396.29 122.42
  C 394.08 123.28 389.98 124.98 395.17 127.38
  Q 396.64 128.06 398.08 127.32
  Q 400.57 126.03 400.30 129.50
  A 1.59 1.41 -61.7 0 0 400.52 130.43
  C 401.24 131.53 406.45 136.21 401.29 134.71
  A 0.36 0.36 -83.7 0 0 400.83 135.08
  Q 400.96 137.45 398.37 135.35
  A 1.55 1.54 -50.1 0 0 396.23 135.55
  C 392.31 140.14 391.63 135.62 387.91 136.54
  C 385.74 137.08 383.79 136.65 384.48 140.00
  Q 384.56 140.41 384.40 140.71
  A 1.34 0.51 -53.4 0 0 384.16 141.56
  Q 384.74 144.80 384.08 147.96
  A 0.60 0.60 -76.5 0 1 383.33 148.42
  Q 380.77 147.71 381.80 149.52
  A 0.85 0.74 -14.9 0 0 382.55 149.89
  Q 384.50 149.80 384.09 151.47
  A 1.03 0.73 -8.3 0 1 383.46 152.07
  Q 382.66 152.37 382.22 153.06
  A 0.91 0.65 48.8 0 0 382.30 153.90
  L 383.52 155.81
  A 1.59 1.14 -65.2 0 1 383.70 156.74
  Q 383.34 160.57 382.91 164.40
  C 382.64 166.73 381.84 167.92 379.50 168.21
  A 1.94 1.09 9.1 0 0 378.60 168.54
  C 375.90 170.66 380.90 169.58 380.23 171.31
  A 0.75 0.51 -65.2 0 0 380.36 172.10
  Q 380.70 172.34 381.18 172.35
  A 0.39 0.36 7.0 0 1 381.55 172.79
  Q 381.17 174.52 382.93 175.31
  A 0.39 0.39 38.3 0 1 383.01 175.98
  Q 379.80 178.41 377.43 181.20
  C 376.17 182.69 375.36 185.65 374.06 186.56
  Q 371.11 188.63 372.94 192.06
  Q 373.59 193.30 372.24 193.66
  A 1.66 0.83 34.0 0 1 371.30 193.54
  Q 369.05 192.63 369.61 196.53
  A 0.75 0.75 2.9 0 1 368.69 197.36
  Q 365.30 196.53 367.01 199.81
  A 0.89 0.82 -43.9 0 1 366.96 200.66
  L 362.93 207.00
  A 1.24 0.85 -71.8 0 1 362.21 207.55
  L 357.57 208.38
  Q 357.08 208.47 357.43 208.81
  C 359.56 210.88 355.90 214.46 354.06 214.81
  C 350.67 215.46 347.72 213.80 344.43 214.23
  Q 342.48 214.49 340.34 214.90
  A 1.49 1.29 -1.9 0 1 338.55 213.45
  L 339.10 210.48
  A 1.54 1.08 -61.4 0 0 339.00 209.57
  Q 337.90 207.42 340.27 206.63
  A 1.69 1.23 2.7 0 0 341.06 206.11
  Q 343.09 203.42 343.51 200.06
  A 1.72 1.39 -25.3 0 1 343.92 199.21
  Q 345.34 197.63 343.93 196.15
  A 0.45 0.43 48.2 0 1 343.95 195.49
  C 345.36 194.40 346.66 194.59 347.76 193.16
  Q 349.08 191.47 348.98 189.30
  A 0.81 0.69 11.0 0 0 348.46 188.65
  Q 345.95 187.70 347.06 185.50
  A 0.33 0.30 41.4 0 1 347.59 185.49
  Q 348.46 186.67 349.08 185.22
  A 0.93 0.78 -56.4 0 0 348.98 184.32
  Q 348.51 183.79 347.81 184.34
  Q 347.39 184.67 347.35 184.20
  C 347.23 182.95 348.52 183.61 349.17 183.48
  Q 352.26 182.85 354.15 180.35
  A 1.85 1.15 75.6 0 0 354.44 179.43
  L 354.78 174.09
  A 1.51 1.43 0.8 0 1 356.24 172.75
  C 358.76 172.68 358.97 167.53 359.05 165.56
  Q 359.06 165.17 359.29 164.61
  Q 359.73 163.55 359.07 162.63
  A 1.78 1.15 36.6 0 1 358.74 161.75
  Q 358.58 150.09 359.97 138.78
  A 0.99 0.98 9.6 0 0 359.19 137.70
  C 348.88 135.51 351.12 147.20 345.77 150.10
  A 0.92 0.69 81.9 0 0 345.38 150.81
  L 345.31 151.96
  A 0.55 0.42 5.2 0 1 344.70 152.34
  Q 342.80 152.12 343.50 154.75
  Q 344.34 157.90 341.94 159.19
  Q 340.86 159.76 340.20 160.76
  A 0.85 0.58 -61.8 0 1 339.43 161.16
  C 338.44 160.89 340.39 159.66 339.88 159.06
  A 0.54 0.44 -43.7 0 0 339.16 159.12
  Q 336.97 161.34 336.39 158.19
  A 0.95 0.84 8.3 0 0 335.83 157.53
  C 333.78 156.68 334.43 153.22 334.69 151.56
  Q 335.09 148.96 336.00 148.50
  Q 337.74 147.63 335.72 146.99
  Q 334.77 146.69 335.64 146.21
  Q 337.87 145.00 337.74 142.56
  A 0.37 0.36 -14.4 0 0 337.22 142.26
  C 334.41 143.58 331.28 151.68 327.79 148.17
  A 2.30 2.28 -22.7 0 0 326.11 147.49
  Q 323.40 147.56 325.03 146.24
  A 1.78 1.41 -16.1 0 0 325.58 145.47
  C 327.33 139.96 330.21 135.87 332.31 129.56
  Q 333.27 126.68 335.95 123.15
  A 1.55 1.55 64.0 0 0 336.26 122.25
  Q 336.52 113.96 338.25 105.86
  C 338.41 105.12 339.38 99.92 338.80 99.76
  A 0.63 0.50 11.7 0 1 338.32 99.19
  C 338.48 97.76 340.61 97.87 340.76 95.76
  A 1.63 0.62 84.8 0 1 341.02 94.83
  L 341.50 94.21
  Z
  M 392.66 135.49
  Q 392.05 136.06 392.80 136.53
  A 0.74 0.70 -49.4 0 0 393.65 136.44
  Q 394.49 135.71 393.54 135.33
  A 0.84 0.82 33.8 0 0 392.66 135.49
  Z
  M 335.51 155.12
  Q 335.44 155.48 335.77 155.64
  A 0.91 0.66 -49.4 0 0 336.64 155.43
  Q 337.74 154.44 336.16 154.62
  A 0.76 0.59 0.1 0 0 335.51 155.12
  Z
  M 381.23 162.59
  Q 381.16 162.85 381.23 163.08
  A 0.51 0.43 -26.0 0 0 381.94 163.26
  Q 383.11 162.53 381.90 162.26
  A 0.59 0.51 14.7 0 0 381.23 162.59
  Z
  M 380.3567 166.1533
  A 0.74 0.61 135.0 0 0 381.3113 166.0613
  A 0.74 0.61 135.0 0 0 381.4033 165.1067
  A 0.74 0.61 135.0 0 0 380.4487 165.1987
  A 0.74 0.61 135.0 0 0 380.3567 166.1533
  Z
  M 373.54 183.85
  Q 373.04 185.44 374.28 184.01
  A 0.67 0.47 -39.7 0 0 374.44 183.42
  Q 374.33 183.14 374.06 183.23
  A 0.99 0.61 -81.6 0 0 373.54 183.85
  Z
  M 346.0921 210.3673
  A 1.47 1.07 -48.6 0 0 344.3174 210.7624
  A 1.47 1.07 -48.6 0 0 344.1479 212.5727
  A 1.47 1.07 -48.6 0 0 345.9226 212.1776
  A 1.47 1.07 -48.6 0 0 346.0921 210.3673
  Z"
/>
<path fill="#000000" d="
  M 527.81 123.42
  Q 529.57 123.47 528.12 125.01
  A 1.88 1.59 -36.7 0 0 527.69 126.87
  L 528.95 129.86
  A 0.75 0.45 65.4 0 1 528.86 130.68
  Q 528.34 130.98 527.55 129.88
  Q 527.17 129.35 527.29 129.99
  Q 527.77 132.51 525.10 130.98
  A 0.88 0.87 -50.1 0 0 524.08 131.08
  Q 521.27 133.54 525.35 135.07
  Q 526.04 135.32 525.41 135.71
  C 523.80 136.68 520.68 143.04 518.07 141.15
  A 1.53 0.97 51.2 0 0 517.19 140.85
  C 515.07 141.04 509.17 142.41 507.35 141.33
  A 1.28 1.10 -32.9 0 0 506.47 141.21
  Q 505.16 141.49 505.35 139.81
  A 0.59 0.53 -79.9 0 0 504.95 139.17
  L 503.30 138.78
  A 1.07 0.96 -4.0 0 1 502.61 138.24
  C 499.71 132.11 494.81 141.30 493.28 134.56
  A 2.03 1.29 -84.4 0 0 492.84 133.69
  C 490.66 131.46 492.92 135.84 491.68 135.69
  A 1.14 0.92 75.4 0 1 490.92 135.13
  Q 490.35 134.14 490.27 132.99
  A 1.83 0.74 -53.9 0 1 490.50 132.07
  C 491.34 130.34 488.99 128.68 488.12 127.59
  A 1.32 1.13 -65.0 0 1 487.87 126.69
  Q 488.08 124.27 486.89 124.02
  Q 484.43 123.50 484.80 121.02
  Q 485.77 114.57 484.59 108.24
  A 0.86 0.85 64.8 0 1 484.88 107.43
  C 489.02 103.83 487.94 100.10 494.44 97.68
  Q 495.81 97.17 496.57 95.99
  A 1.96 1.17 -75.0 0 1 497.25 95.33
  Q 499.10 94.41 501.04 94.49
  A 1.15 1.14 2.2 0 0 502.24 93.39
  Q 502.30 92.12 503.05 92.30
  Q 503.80 92.48 504.00 92.49
  L 509.01 92.70
  A 1.55 0.80 52.4 0 1 509.86 93.10
  Q 511.25 94.24 513.19 93.03
  Q 514.96 91.92 516.08 93.69
  Q 517.09 95.28 519.45 94.91
  A 0.44 0.42 83.5 0 1 519.94 95.32
  Q 520.09 97.50 522.27 96.90
  A 0.88 0.69 -88.5 0 0 522.81 96.25
  Q 523.18 94.36 525.84 95.09
  A 1.64 1.51 5.8 0 1 527.03 96.43
  L 527.79 104.45
  A 1.02 1.00 -77.0 0 0 528.25 105.20
  Q 529.78 106.17 530.61 107.68
  A 0.68 0.68 -31.4 0 1 530.39 108.58
  Q 528.95 109.53 528.90 110.69
  A 0.76 0.68 82.0 0 1 528.46 111.35
  Q 526.20 112.20 528.10 113.71
  A 0.54 0.52 -54.9 0 1 528.21 114.41
  C 527.13 116.15 528.65 118.97 527.80 119.42
  A 1.18 0.59 -19.4 0 0 527.18 120.06
  Q 526.97 121.17 528.07 120.53
  A 0.67 0.55 -34.5 0 1 528.85 120.60
  C 530.38 122.34 526.91 121.55 527.17 122.96
  A 0.68 0.55 -3.4 0 0 527.81 123.42
  Z
  M 515.4694 94.0599
  A 1.13 0.88 -15.4 0 0 514.1463 93.5116
  A 1.13 0.88 -15.4 0 0 513.2906 94.6601
  A 1.13 0.88 -15.4 0 0 514.6137 95.2084
  A 1.13 0.88 -15.4 0 0 515.4694 94.0599
  Z
  M 525.7316 97.9185
  A 0.96 0.71 58.5 0 0 525.8354 96.7290
  A 0.96 0.71 58.5 0 0 524.7284 96.2815
  A 0.96 0.71 58.5 0 0 524.6246 97.4710
  A 0.96 0.71 58.5 0 0 525.7316 97.9185
  Z"
/>
<path fill="#010201" fill-opacity="0.541" d="
  M 343.25 94.79
  Q 341.98 96.08 341.50 94.21
  L 343.25 94.79
  Z"
/>
<path fill="#000000" d="
  M 419.81 175.68
  L 424.01 175.33
  A 1.38 1.26 -28.6 0 1 424.90 175.55
  C 426.77 176.79 428.34 175.84 430.03 176.18
  C 431.34 176.45 431.95 177.03 433.38 176.96
  C 436.69 176.79 447.73 177.03 449.80 175.08
  A 1.82 1.81 -23.9 0 0 450.36 173.64
  Q 450.12 170.55 448.85 169.10
  A 1.20 0.91 33.2 0 1 448.55 168.25
  C 448.72 166.76 450.55 164.09 449.47 163.22
  A 1.25 0.63 30.3 0 1 448.97 162.45
  L 448.94 161.25
  Q 448.92 160.69 448.77 160.30
  Q 448.38 159.32 449.12 158.57
  A 0.99 0.89 -29.2 0 0 449.40 157.75
  Q 449.14 156.12 449.55 154.54
  A 1.74 1.73 -47.0 0 0 449.52 153.59
  Q 448.76 151.27 449.74 149.01
  A 0.33 0.33 13.7 0 0 449.46 148.55
  Q 447.38 148.44 447.70 147.90
  A 1.19 0.43 -4.7 0 1 448.55 147.51
  Q 450.31 147.21 450.43 145.44
  A 0.71 0.70 -6.3 0 1 450.93 144.83
  Q 452.31 144.43 451.54 143.16
  Q 451.28 142.74 451.22 142.26
  Q 451.01 140.62 449.31 140.65
  A 0.92 0.88 -17.3 0 1 448.55 140.27
  Q 446.37 137.13 440.73 137.30
  A 1.01 1.01 80.5 0 0 439.80 138.61
  Q 440.36 140.40 438.98 140.14
  A 1.40 1.25 34.2 0 0 438.08 140.26
  C 435.22 141.77 433.03 135.02 432.77 140.26
  A 1.45 1.35 69.5 0 1 432.41 141.13
  C 431.54 142.09 424.92 147.84 424.90 144.56
  A 0.59 0.45 90.0 0 0 424.45 143.97
  C 423.09 143.98 421.71 147.05 421.68 144.81
  A 1.99 1.24 -72.6 0 0 421.44 143.88
  Q 419.75 141.11 418.59 143.89
  A 1.83 1.83 -69.6 0 1 416.33 144.93
  Q 411.65 143.40 408.90 141.88
  C 403.83 139.08 412.82 142.77 410.80 138.63
  A 1.66 1.22 -60.4 0 1 410.69 137.70
  Q 410.86 136.60 409.89 136.03
  Q 409.56 135.83 409.19 135.38
  L 407.68 133.54
  Q 406.76 132.42 408.11 132.49
  Q 410.36 132.61 409.87 131.03
  A 0.80 0.79 84.9 0 0 409.20 130.46
  L 407.75 130.27
  A 0.98 0.58 0.3 0 1 406.99 129.82
  L 405.57 125.74
  A 1.43 0.62 -58.6 0 1 405.70 124.80
  Q 407.51 120.56 405.93 116.22
  A 1.29 1.06 52.4 0 1 405.96 115.29
  C 407.99 111.32 413.35 115.41 412.77 111.84
  A 0.71 0.70 -14.8 0 1 413.23 111.06
  Q 415.85 110.13 413.96 109.20
  A 0.68 0.52 23.1 0 1 413.57 108.51
  Q 413.69 108.13 414.03 107.93
  A 1.30 0.27 7.8 0 1 414.98 107.86
  Q 416.55 108.00 418.20 105.05
  A 1.56 1.54 -78.2 0 1 419.36 104.28
  C 421.21 104.07 418.70 105.53 418.78 106.05
  A 0.64 0.54 -9.8 0 0 419.50 106.47
  L 422.70 105.90
  Q 424.65 105.56 425.65 106.34
  Q 428.13 108.27 430.00 107.32
  A 0.64 0.58 -32.2 0 1 430.74 107.45
  Q 432.75 109.89 435.94 110.16
  A 1.37 1.02 -56.2 0 0 436.82 109.85
  Q 439.05 108.08 441.57 109.49
  A 1.82 1.47 52.9 0 0 442.50 109.72
  Q 449.50 109.25 456.50 108.70
  Q 458.19 108.56 458.24 107.04
  A 0.98 0.98 -73.0 0 1 459.74 106.24
  Q 461.33 107.24 463.15 106.78
  Q 473.10 104.28 476.81 112.48
  Q 477.25 113.44 477.42 116.15
  C 477.69 120.51 483.28 121.83 480.06 126.81
  A 2.47 0.72 77.8 0 0 479.94 128.56
  Q 480.08 129.71 479.69 130.78
  Q 479.52 131.27 479.55 131.76
  Q 479.72 134.96 476.80 135.92
  A 0.94 0.80 -5.5 0 0 476.20 136.54
  Q 474.09 145.44 473.47 154.55
  A 1.02 0.89 23.5 0 0 473.85 155.35
  C 476.34 157.40 472.39 158.54 473.52 161.06
  A 0.60 0.49 64.8 0 1 473.34 161.79
  L 472.40 162.27
  A 1.63 0.73 -16.5 0 0 471.69 162.88
  Q 469.77 166.55 471.98 170.08
  Q 472.23 170.49 472.29 170.99
  Q 472.56 173.27 474.70 173.94
  A 1.11 0.83 3.2 0 1 475.39 174.52
  C 476.02 176.29 473.49 178.11 475.69 179.06
  Q 477.06 179.65 476.06 180.31
  Q 474.33 181.46 476.06 181.46
  A 0.62 0.59 -5.8 0 1 476.66 181.93
  C 476.89 182.98 478.35 186.80 478.14 187.20
  A 1.36 0.39 -57.3 0 0 477.88 188.06
  Q 478.95 196.51 474.17 204.28
  A 1.70 1.64 -85.6 0 1 473.44 204.93
  Q 470.88 206.11 469.84 207.41
  Q 469.48 207.86 469.12 208.02
  Q 465.29 209.66 462.31 206.12
  A 1.32 1.32 -44.1 0 0 460.31 206.09
  Q 458.16 208.51 457.44 206.57
  A 1.25 1.24 79.9 0 0 456.27 205.75
  C 452.45 205.75 449.28 204.34 445.65 206.95
  Q 445.24 207.25 444.76 207.31
  L 440.64 207.83
  A 0.84 0.83 -11.0 0 1 439.74 207.23
  Q 439.32 205.70 437.75 205.50
  Q 435.12 205.16 433.19 206.69
  Q 432.38 207.33 432.70 207.89
  Q 433.33 209.00 432.11 208.62
  Q 429.93 207.92 430.78 210.29
  A 0.64 0.64 -20.8 0 1 430.41 211.10
  Q 426.94 212.46 423.44 212.34
  A 1.83 1.36 57.3 0 1 422.54 212.00
  Q 420.24 210.34 417.30 211.05
  Q 416.84 211.17 417.00 210.72
  Q 417.94 208.05 415.30 207.30
  A 1.44 1.39 -9.9 0 1 414.53 206.78
  Q 412.76 204.41 409.41 203.30
  Q 408.25 202.92 409.27 202.26
  Q 411.87 200.55 409.70 199.45
  A 0.43 0.40 -61.3 0 1 409.55 198.86
  L 410.73 196.89
  A 1.18 0.97 54.5 0 0 410.79 195.95
  C 409.62 192.61 407.84 196.28 407.03 195.66
  A 0.95 0.48 -69.8 0 1 406.93 194.79
  C 407.38 193.20 405.27 192.34 406.15 191.12
  A 0.47 0.42 41.0 0 1 406.83 191.11
  C 410.06 194.35 412.24 186.02 407.68 188.73
  A 0.45 0.41 -26.5 0 1 407.05 188.55
  Q 406.02 186.02 407.05 183.45
  A 1.34 1.17 49.4 0 0 407.06 182.54
  Q 406.46 180.85 408.07 180.41
  A 0.68 0.66 -5.0 0 0 408.58 179.82
  C 408.90 176.37 414.88 179.64 417.38 175.04
  C 417.82 174.25 419.94 172.58 419.43 175.20
  A 0.40 0.37 -85.7 0 0 419.81 175.68
  Z
  M 408.61 114.98
  Q 407.45 114.52 407.68 115.70
  A 0.58 0.53 79.1 0 0 408.31 116.17
  Q 408.78 116.08 408.96 115.67
  A 0.58 0.49 22.6 0 0 408.61 114.98
  Z
  M 425.91 144.13
  Q 428.15 144.78 429.02 142.78
  A 0.35 0.35 -80.4 0 0 428.68 142.30
  Q 427.30 142.38 425.81 143.62
  Q 425.38 143.97 425.91 144.13
  Z
  M 463.96 159.25
  C 460.31 154.43 461.27 163.53 461.53 164.42
  C 462.08 166.30 462.23 167.49 462.31 169.19
  Q 462.39 170.63 463.50 169.75
  C 466.65 167.27 463.37 164.71 464.37 161.76
  A 2.72 2.71 35.9 0 0 463.96 159.25
  Z
  M 460.94 175.31
  C 464.04 176.20 463.01 170.80 460.81 173.06
  Q 459.13 174.79 460.94 175.31
  Z"
/>
<path fill="#000000" d="
  M 110.54 125.00
  L 110.21 124.50
  Q 110.92 123.12 109.50 122.46
  L 109.46 122.25
  C 111.81 119.80 111.11 123.92 110.54 125.00
  Z"
/>
<path fill="#000000" d="
  M 110.92 134.04
  A 0.81 0.81 -79.0 0 0 111.54 134.96
  Q 114.88 135.75 113.87 134.32
  A 1.19 0.74 43.3 0 1 113.64 133.45
  Q 113.92 132.43 115.11 133.64
  Q 117.48 136.02 120.45 135.68
  C 125.88 135.06 130.90 136.18 136.51 135.33
  Q 136.95 135.26 137.46 135.45
  C 140.29 136.52 142.29 133.01 146.22 134.49
  A 0.60 0.50 -62.7 0 0 146.87 134.22
  L 147.12 133.80
  A 1.03 0.72 9.8 0 1 147.92 133.42
  L 158.48 133.25
  Q 159.61 133.23 158.76 133.99
  C 155.54 136.87 161.08 135.41 160.44 137.79
  A 0.55 0.47 15.1 0 1 159.78 138.10
  Q 157.70 137.51 159.13 139.69
  Q 159.88 140.84 158.51 140.73
  C 154.61 140.41 159.69 147.43 153.24 146.81
  A 1.50 0.86 18.2 0 0 152.32 147.00
  Q 151.49 147.62 151.94 148.81
  Q 152.90 151.39 155.50 148.75
  Q 157.43 146.79 159.38 148.41
  A 0.72 0.70 -39.4 0 0 160.18 148.48
  Q 162.55 147.13 164.01 149.56
  A 0.88 0.74 48.4 0 1 164.03 150.44
  C 163.16 151.78 161.61 148.35 161.14 150.19
  A 0.88 0.55 32.0 0 0 161.50 150.93
  Q 161.81 151.17 161.83 151.51
  A 1.18 0.56 -34.1 0 1 161.36 152.31
  Q 160.24 153.28 159.86 154.75
  A 0.60 0.56 -79.7 0 1 159.26 155.19
  Q 157.42 155.01 155.69 155.79
  A 1.32 1.19 40.0 0 1 154.78 155.82
  C 151.73 154.85 155.58 158.54 152.74 158.32
  A 1.05 0.96 22.3 0 0 151.92 158.62
  C 148.50 162.20 145.27 158.64 143.55 159.85
  Q 143.05 160.21 142.69 160.25
  C 137.05 160.98 130.66 159.31 125.65 162.24
  C 124.33 163.01 123.45 162.84 122.69 161.56
  Q 121.76 160.00 121.25 161.50
  Q 120.39 164.02 118.99 162.45
  A 0.80 0.72 59.6 0 0 118.20 162.20
  C 115.13 163.19 122.85 165.57 116.50 164.60
  A 1.36 1.35 12.4 0 0 114.99 165.56
  C 114.17 168.37 110.53 166.00 108.98 165.42
  A 0.49 0.47 -70.8 0 0 108.37 165.73
  Q 108.11 166.50 107.49 166.94
  A 0.43 0.38 61.1 0 1 106.89 166.73
  Q 106.24 165.15 104.95 164.07
  A 1.06 1.02 18.7 0 1 104.57 163.34
  C 104.17 158.25 102.09 164.19 101.82 162.05
  A 1.39 0.88 -39.4 0 1 102.11 161.18
  Q 104.11 158.48 100.47 159.04
  C 99.41 159.20 100.30 158.57 100.47 158.51
  Q 103.76 157.31 99.74 156.44
  Q 98.56 156.19 99.73 155.92
  Q 103.71 155.02 103.00 151.75
  A 1.44 0.94 -31.6 0 0 100.94 151.69
  Q 97.09 154.93 99.48 151.17
  A 1.04 0.55 -51.6 0 0 99.65 150.26
  C 99.08 149.34 96.24 152.13 97.19 148.05
  A 0.77 0.71 1.3 0 1 97.81 147.50
  Q 99.93 147.14 98.70 145.85
  A 1.44 1.44 -39.5 0 1 98.91 143.69
  Q 102.00 141.51 101.26 139.91
  A 1.05 0.72 53.6 0 1 101.23 139.06
  C 101.84 138.03 105.25 134.32 105.90 137.49
  A 0.40 0.40 70.2 0 0 106.47 137.76
  Q 107.85 137.06 108.00 135.50
  Q 108.20 133.48 110.06 133.56
  Q 110.99 133.61 110.92 134.04
  Z"
/>
<path fill="#000000" d="
  M 160.69 134.69
  A 1.55 1.11 -68.9 0 1 162.50 133.50
  Q 164.60 134.85 162.31 135.04
  A 1.48 1.46 -67.9 0 0 161.45 135.41
  Q 160.19 136.51 160.69 134.69
  Z"
/>
<path fill="#000000" d="
  M 553.22 140.13
  Q 553.01 139.98 552.91 139.75
  A 0.85 0.69 -40.0 0 1 553.07 138.94
  Q 553.81 138.07 554.79 138.74
  Q 555.30 139.09 555.68 139.12
  Q 558.64 139.34 560.19 136.86
  A 1.14 1.06 9.4 0 1 560.93 136.37
  Q 562.48 136.08 563.32 134.75
  A 1.58 0.74 -69.0 0 1 564.01 134.09
  Q 565.10 133.68 564.81 135.44
  Q 564.59 136.83 565.81 135.81
  L 567.73 134.23
  A 0.70 0.49 -49.4 0 1 568.35 134.07
  C 569.40 134.50 565.96 136.25 567.98 136.48
  Q 569.35 136.64 568.23 137.44
  Q 565.53 139.38 566.99 140.33
  A 0.91 0.87 17.5 0 1 567.40 141.07
  Q 567.43 142.34 568.72 141.98
  A 0.50 0.50 -18.0 0 1 569.33 142.29
  Q 569.92 143.98 571.18 142.63
  A 0.54 0.41 -43.2 0 1 571.91 142.55
  Q 572.12 142.84 571.97 143.30
  A 0.68 0.49 -67.8 0 0 572.15 144.05
  L 573.22 144.63
  A 0.30 0.29 39.6 0 1 573.28 145.12
  Q 570.24 147.43 568.06 150.90
  A 1.42 1.40 22.0 0 1 566.58 151.52
  Q 565.88 151.37 565.77 151.70
  A 0.91 0.24 38.2 0 0 566.28 152.38
  Q 566.99 152.98 565.17 155.16
  A 4.31 4.28 -23.2 0 0 564.19 157.59
  Q 564.09 158.99 562.45 158.23
  A 1.69 0.91 38.6 0 0 561.51 158.06
  L 559.79 158.43
  A 0.62 0.53 82.9 0 0 559.37 159.07
  C 559.60 162.53 556.22 156.15 553.93 159.49
  A 1.23 1.22 -58.8 0 0 554.36 161.27
  Q 556.55 162.43 555.98 164.43
  C 555.26 166.94 554.70 168.59 551.84 169.01
  A 2.91 2.89 20.2 0 0 550.33 169.70
  Q 547.36 172.27 546.62 174.84
  C 546.19 176.33 545.81 176.78 544.49 177.36
  A 1.14 1.12 86.6 0 0 543.88 178.06
  Q 543.31 179.99 541.50 179.50
  Q 538.75 178.76 538.06 181.81
  C 537.68 183.52 535.99 185.34 534.08 184.57
  Q 532.00 183.73 533.44 185.61
  A 0.64 0.64 56.5 0 1 533.25 186.55
  Q 528.36 189.33 526.75 192.78
  Q 526.44 193.45 525.88 193.28
  Q 525.23 193.10 524.95 193.17
  C 518.24 194.82 521.63 200.95 514.79 201.84
  A 1.16 1.16 -9.6 0 0 513.80 203.23
  C 514.52 206.71 508.84 207.29 511.54 209.52
  A 1.74 0.80 27.9 0 1 512.12 210.28
  C 512.79 212.49 508.54 208.51 509.17 211.21
  A 1.65 1.10 22.0 0 0 509.71 212.00
  Q 511.84 213.71 508.56 212.94
  Q 505.26 212.16 503.02 215.34
  A 0.59 0.54 29.6 0 1 502.31 215.50
  Q 501.24 215.02 500.69 216.04
  A 0.77 0.68 -73.2 0 1 500.01 216.46
  Q 496.36 216.20 493.24 217.94
  A 0.83 0.82 46.6 0 1 492.39 217.91
  C 488.68 215.59 485.50 214.09 483.54 210.06
  C 481.35 205.55 482.37 199.23 483.33 194.21
  C 483.74 192.07 485.47 190.45 482.69 188.56
  Q 481.09 187.48 482.56 186.81
  Q 484.69 185.86 482.81 184.44
  Q 481.79 183.67 483.06 183.56
  C 485.51 183.37 483.16 182.25 483.21 181.31
  A 0.68 0.53 -2.7 0 1 483.82 180.79
  Q 485.58 180.59 485.18 179.00
  Q 484.71 177.06 486.48 176.09
  L 493.59 172.21
  A 0.82 0.81 59.7 0 0 493.88 171.06
  Q 492.65 169.09 494.94 170.25
  A 1.63 1.62 37.4 0 0 496.77 170.01
  Q 497.84 169.04 499.11 169.93
  A 1.00 0.86 50.6 0 0 499.96 170.08
  Q 502.42 169.23 505.02 169.66
  A 1.59 1.00 -44.1 0 0 505.92 169.47
  C 507.96 168.42 506.98 173.17 508.65 171.22
  C 509.38 170.37 509.28 168.58 510.99 169.68
  A 1.46 1.28 29.4 0 0 513.03 169.25
  L 514.64 165.73
  A 1.30 0.36 -69.9 0 1 515.18 164.98
  Q 516.07 164.53 516.27 165.70
  A 0.46 0.43 78.7 0 0 516.80 166.08
  Q 523.46 164.49 527.55 159.12
  C 528.12 158.36 531.01 157.41 527.98 156.40
  Q 527.48 156.23 527.91 155.97
  Q 529.40 155.05 531.04 155.58
  A 1.53 1.03 34.6 0 0 531.97 155.59
  Q 533.33 155.06 534.22 153.90
  A 0.79 0.70 22.8 0 1 534.98 153.64
  Q 535.97 153.82 536.73 153.15
  C 538.56 151.52 538.08 153.56 536.87 154.06
  C 535.18 154.76 536.84 155.16 537.58 154.89
  Q 539.79 154.07 538.96 151.96
  A 1.02 0.71 58.2 0 1 539.01 151.08
  Q 539.49 150.47 540.32 150.35
  Q 540.92 150.26 541.24 150.05
  Q 543.13 148.85 544.48 147.11
  C 545.81 145.39 546.60 145.20 548.57 144.78
  A 1.06 0.91 56.9 0 1 549.43 145.03
  C 552.35 147.55 551.28 142.07 553.26 140.59
  A 0.29 0.27 42.5 0 0 553.22 140.13
  Z
  M 565.25 142.07
  A 0.89 0.89 18.6 0 0 564.59 140.74
  C 561.96 140.43 562.88 146.10 565.25 142.07
  Z
  M 554.65 163.15
  C 553.53 162.19 551.38 169.37 553.93 166.38
  A 1.59 1.03 76.6 0 0 554.24 165.50
  Q 554.27 164.64 554.72 163.90
  A 0.63 0.54 -54.6 0 0 554.65 163.15
  Z
  M 547.53 170.40
  Q 546.85 169.60 546.44 170.95
  A 0.44 0.39 -81.3 0 0 546.81 171.51
  Q 547.24 171.50 547.53 171.22
  A 0.63 0.57 48.0 0 0 547.53 170.40
  Z
  M 518.77 198.37
  A 0.64 0.64 0.0 0 0 518.13 197.73
  A 0.64 0.64 0.0 0 0 517.49 198.37
  A 0.64 0.64 0.0 0 0 518.13 199.01
  A 0.64 0.64 0.0 0 0 518.77 198.37
  Z"
/>
<path fill="#000000" d="
  M 200.24 135.77
  Q 198.88 136.60 199.70 135.30
  A 0.99 0.67 -69.3 0 1 200.36 134.83
  Q 200.72 134.81 200.67 135.20
  A 0.94 0.67 -17.3 0 1 200.24 135.77
  Z"
/>
<path fill="#000000" d="
  M 297.94 149.32
  L 299.46 148.50
  C 301.73 146.60 302.02 143.02 306.28 144.56
  A 1.47 1.44 45.6 0 0 307.22 144.58
  C 310.47 143.53 308.18 146.38 308.11 147.57
  C 307.92 150.54 312.49 147.82 313.65 147.01
  C 315.00 146.07 316.03 146.13 317.34 146.96
  A 0.59 0.53 -61.8 0 1 317.52 147.69
  Q 316.68 149.42 318.50 148.83
  A 1.15 1.15 71.4 0 1 319.93 149.54
  Q 324.09 161.45 324.42 174.06
  Q 324.44 174.45 324.72 174.96
  Q 325.29 175.97 324.17 176.74
  A 1.31 1.31 49.7 0 0 324.01 178.77
  Q 325.33 180.03 324.58 181.12
  A 0.66 0.61 44.9 0 0 324.61 181.86
  Q 325.13 182.56 325.25 184.00
  Q 325.54 187.38 327.79 192.30
  A 0.99 0.94 48.5 0 1 327.76 193.18
  Q 325.94 196.39 323.01 198.52
  C 319.65 200.97 318.49 201.56 318.69 205.69
  Q 318.79 207.82 316.96 207.19
  Q 316.61 207.07 316.01 207.06
  Q 314.53 207.03 316.49 203.94
  A 0.98 0.98 -57.8 0 0 316.19 202.59
  Q 314.07 201.26 314.00 204.34
  C 313.97 205.87 312.95 205.89 312.69 204.36
  C 312.45 202.97 311.03 198.29 308.91 199.47
  A 1.42 0.78 -41.2 0 1 308.01 199.67
  Q 306.87 199.37 307.41 198.36
  A 0.93 0.92 -43.7 0 0 307.43 197.51
  L 305.53 193.68
  A 2.15 1.32 -66.6 0 1 305.38 192.63
  Q 305.97 186.99 303.59 183.11
  Q 303.34 182.72 303.26 182.19
  Q 303.06 180.85 302.14 180.60
  A 1.15 1.07 -82.3 0 1 301.35 179.48
  L 301.47 175.06
  A 1.12 0.82 24.9 0 0 301.03 174.27
  Q 298.89 172.56 299.13 169.80
  A 0.83 0.80 19.3 0 0 298.75 169.05
  Q 297.00 167.96 296.04 166.14
  A 0.89 0.78 -44.7 0 1 296.10 165.29
  Q 297.24 163.52 296.45 161.47
  A 1.75 1.36 47.3 0 1 296.37 160.52
  Q 296.94 158.18 296.89 155.77
  C 296.84 153.28 294.97 151.85 297.94 149.32
  Z
  M 306.35 192.07
  Q 305.59 193.07 306.94 193.36
  A 0.62 0.59 15.5 0 0 307.65 192.98
  Q 307.93 192.14 307.16 191.82
  A 0.72 0.65 -59.2 0 0 306.35 192.07
  Z"
/>
<path fill="#010201" fill-opacity="0.541" d="
  M 299.46 148.50
  L 297.94 149.32
  Q 295.53 147.50 298.07 147.01
  A 0.47 0.41 82.4 0 1 298.56 147.44
  Q 298.64 148.30 299.46 148.50
  Z"
/>
<path fill="#000000" d="
  M 163.12 162.58
  C 162.16 163.66 162.38 156.44 163.94 158.11
  A 1.07 0.68 -67.4 0 1 164.09 158.96
  L 163.49 161.68
  Q 163.34 162.34 163.12 162.58
  Z"
/>
<path fill="#000000" d="
  M 562.72 160.05
  Q 562.52 160.64 561.90 160.49
  A 0.63 0.58 -80.4 0 1 561.46 159.82
  Q 561.60 158.65 562.44 159.24
  A 0.74 0.69 27.8 0 1 562.72 160.05
  Z"
/>
<ellipse fill="#010201" fill-opacity="0.541" cx="0.00" cy="0.00" transform="translate(380.88,165.63) rotate(135.0)" rx="0.74" ry="0.61"/>
<path fill="#000000" d="
  M 39.33 168.08
  Q 39.15 166.96 40.03 167.51
  A 1.27 1.19 -81.0 0 1 40.56 168.29
  Q 40.88 169.75 39.81 168.89
  A 1.34 1.28 15.7 0 1 39.33 168.08
  Z"
/>
<path fill="#000000" d="
  M 486.08 174.37
  C 488.52 171.76 487.16 177.30 485.95 175.20
  A 0.75 0.68 -39.1 0 1 486.08 174.37
  Z"
/>
<path fill="#010201" fill-opacity="0.541" d="
  M 374.06 183.23
  Q 374.33 183.14 374.44 183.42
  A 0.67 0.47 -39.7 0 1 374.28 184.01
  Q 373.04 185.44 373.54 183.85
  A 0.99 0.61 -81.6 0 1 374.06 183.23
  Z"
/>
<path fill="#000000" d="
  M 403.88 192.88
  C 402.14 193.16 406.66 188.69 404.45 192.41
  A 1.00 0.64 -72.0 0 1 403.88 192.88
  Z"
/>
<circle fill="#010201" fill-opacity="0.541" cx="518.13" cy="198.37" r="0.64"/>
<path fill="#000000" d="
  M 341.46 200.89
  Q 342.42 199.35 342.44 201.16
  C 342.45 201.67 340.92 204.00 340.34 203.61
  A 0.62 0.49 -57.8 0 1 340.26 202.84
  L 341.46 200.89
  Z"
/>
<path fill="#010201" fill-opacity="0.541" d="
  M 287.37 201.47
  Q 287.55 201.20 287.84 201.32
  A 0.51 0.45 -67.9 0 1 288.06 201.95
  Q 287.74 202.77 287.42 202.38
  A 0.76 0.75 42.2 0 1 287.37 201.47
  Z"
/>
<path fill="#000000" d="
  M 34.96 218.87
  Q 35.28 218.52 35.37 218.99
  Q 35.67 220.46 34.41 221.46
  Q 33.94 221.84 33.87 221.27
  Q 33.74 220.20 34.96 218.87
  Z"
/>
<path fill="#000000" d="
  M 541.19 273.27
  Q 542.94 274.68 545.07 274.05
  Q 547.31 273.39 547.68 275.54
  L 548.22 278.63
  Q 548.56 280.59 546.41 280.52
  C 540.20 280.33 532.80 280.75 532.96 272.00
  Q 533.14 261.89 532.35 251.82
  A 0.76 0.69 76.6 0 1 532.75 251.09
  Q 534.31 250.37 536.03 250.85
  A 1.90 1.74 43.0 0 0 536.97 250.86
  Q 540.39 249.93 540.32 253.25
  Q 540.28 255.51 542.48 255.00
  Q 550.24 253.23 547.28 260.30
  Q 546.57 261.98 544.86 261.38
  C 539.42 259.49 540.58 262.57 540.41 265.73
  Q 540.24 269.10 540.74 272.45
  A 1.31 1.17 -77.1 0 0 541.19 273.27
  Z"
/>
<path fill="#000000" d="
  M 328.69 279.06
  C 324.30 276.10 326.02 259.21 325.74 253.90
  A 2.04 1.68 -3.2 0 1 327.67 252.12
  L 331.76 251.87
  A 1.31 1.24 2.8 0 1 333.15 253.32
  C 331.92 260.10 341.36 252.29 341.16 257.98
  Q 341.14 258.50 341.16 260.50
  C 341.20 265.56 332.95 258.23 333.38 265.01
  C 333.62 268.74 331.51 277.59 338.90 274.93
  Q 341.05 274.16 341.01 276.38
  L 340.95 279.41
  Q 340.92 281.56 338.77 281.00
  C 335.12 280.07 332.37 281.55 328.69 279.06
  Z"
/>
<path fill="#000000" d="
  M 259.92 281.06
  A 1.18 1.07 88.5 0 1 258.81 279.90
  L 258.49 253.87
  Q 258.46 251.74 260.49 252.33
  Q 262.10 252.79 263.88 252.21
  Q 265.92 251.54 266.06 253.68
  Q 266.59 261.36 266.00 269.02
  C 265.72 272.59 266.48 276.09 266.51 279.92
  A 0.94 0.89 88.7 0 1 265.65 280.87
  L 259.92 281.06
  Z"
/>
<path fill="#000000" d="
  M 425.16 262.05
  A 1.50 1.38 -13.3 0 0 424.27 263.36
  L 424.45 279.03
  A 1.23 1.23 -1.7 0 1 423.28 280.27
  L 418.01 280.54
  A 1.72 1.40 -0.3 0 1 416.20 279.08
  Q 416.87 268.00 416.18 256.58
  A 1.50 1.50 88.9 0 1 417.71 254.99
  Q 435.25 255.41 452.50 255.16
  Q 461.24 255.03 461.05 263.75
  Q 460.88 271.48 461.41 278.73
  A 1.66 1.65 88.1 0 1 459.76 280.50
  C 458.06 280.50 452.79 281.35 453.34 278.64
  C 454.25 274.12 453.75 268.74 453.75 264.15
  Q 453.75 261.44 450.77 261.50
  L 445.96 261.58
  Q 442.97 261.64 443.03 264.12
  L 443.33 278.65
  Q 443.38 281.00 441.16 280.53
  Q 438.88 280.06 436.58 280.54
  A 1.26 1.25 84.7 0 1 435.07 279.28
  Q 435.23 272.34 435.22 265.00
  C 435.21 260.29 432.19 261.49 429.30 261.36
  Q 426.96 261.26 425.16 262.05
  Z"
/>
<path fill="#000000" d="
  M 585.17 280.06
  A 0.63 0.63 0.9 0 1 584.56 279.43
  Q 584.56 271.96 584.45 264.50
  Q 584.29 254.14 594.50 255.43
  Q 594.99 255.49 595.47 255.32
  Q 600.60 253.54 599.22 260.41
  A 1.69 1.53 6.5 0 1 597.52 261.63
  L 594.43 261.50
  Q 592.14 261.39 592.19 263.76
  L 592.51 278.89
  A 1.32 1.27 -89.8 0 1 591.20 280.24
  L 585.17 280.06
  Z"
/>
<path fill="#000000" d="
  M 353.15 278.11
  Q 351.65 276.77 351.44 274.77
  Q 351.10 271.63 351.14 267.92
  C 351.22 259.96 351.01 255.50 360.28 255.50
  Q 368.63 255.50 377.59 255.50
  A 1.14 1.12 76.0 0 1 378.59 256.11
  C 379.45 257.74 379.19 263.60 375.93 261.77
  A 2.00 1.30 48.8 0 0 375.01 261.51
  Q 369.25 261.67 363.50 261.56
  C 357.28 261.44 358.41 267.91 358.56 271.95
  Q 358.67 274.74 361.46 274.75
  L 377.01 274.82
  A 1.85 1.85 -11.6 0 1 378.71 275.94
  C 381.94 283.50 372.92 280.22 369.75 280.43
  C 364.56 280.79 357.41 281.92 353.15 278.11
  Z"
/>
<path fill="#000000" d="
  M 502.49 279.07
  Q 499.07 276.13 499.25 271.95
  Q 499.58 264.44 498.55 257.32
  Q 498.21 255.01 500.51 255.39
  Q 502.33 255.69 504.50 255.14
  Q 506.42 254.66 506.44 256.64
  Q 506.48 261.36 506.64 266.53
  C 506.78 270.94 505.84 274.57 511.96 274.34
  Q 514.56 274.24 519.00 274.50
  Q 523.60 274.77 523.38 270.40
  C 523.15 265.89 523.27 261.41 522.99 256.84
  Q 522.88 254.98 524.90 255.18
  L 528.42 255.54
  Q 530.45 255.74 530.49 257.42
  Q 530.70 265.12 530.61 272.58
  C 530.54 277.51 529.16 280.08 524.00 280.25
  Q 514.21 280.58 505.03 280.09
  A 4.23 4.17 66.5 0 1 502.49 279.07
  Z"
/>
<path fill="#000000" d="
  M 557.85 262.18
  C 555.50 266.21 555.35 274.76 562.05 274.46
  C 568.22 274.19 574.37 274.51 580.56 274.21
  A 0.88 0.82 -15.5 0 1 581.33 274.61
  Q 583.04 277.55 581.02 280.06
  A 1.00 0.95 20.4 0 1 580.20 280.41
  Q 571.41 280.01 557.75 280.25
  C 548.56 280.41 549.28 271.33 549.39 263.50
  C 549.53 254.28 555.56 255.25 563.21 255.25
  C 570.45 255.25 583.92 252.42 582.25 265.00
  Q 581.55 270.26 576.50 270.25
  Q 569.00 270.25 561.50 270.24
  Q 557.07 270.23 559.05 265.88
  A 1.08 1.06 -77.4 0 1 560.02 265.25
  L 574.09 265.38
  A 1.11 1.08 5.4 0 0 575.17 264.51
  Q 575.92 260.78 572.57 261.06
  C 568.26 261.42 563.82 261.28 559.48 261.25
  A 1.86 1.85 15.1 0 0 557.85 262.18
  Z"
/>
<path fill="#000000" d="
  M 90.06 266.34
  C 90.76 259.82 84.64 261.75 80.73 261.75
  Q 78.54 261.75 78.49 263.87
  L 78.18 279.43
  A 1.37 0.97 75.3 0 1 77.85 280.31
  Q 76.75 281.39 74.99 281.10
  Q 74.51 281.03 74.02 281.15
  Q 72.50 281.56 71.21 280.73
  A 0.88 0.78 -72.4 0 1 70.86 279.94
  Q 71.83 268.51 71.06 257.04
  A 1.43 1.42 -0.9 0 1 72.54 255.52
  Q 87.33 256.12 102.62 255.84
  C 107.12 255.76 109.85 255.17 113.70 258.07
  Q 115.46 259.40 115.50 261.64
  L 115.82 279.10
  A 1.82 1.79 88.2 0 1 114.11 280.95
  L 109.63 281.18
  A 1.05 1.03 -1.1 0 1 108.53 280.14
  L 108.69 263.79
  Q 108.71 261.50 106.52 261.87
  C 102.70 262.52 97.43 259.65 97.25 266.00
  Q 97.06 272.72 97.18 279.45
  A 1.18 1.07 69.8 0 1 96.84 280.30
  Q 95.27 281.80 92.98 281.16
  A 1.49 1.43 -46.2 0 0 92.04 281.20
  Q 89.90 281.98 89.76 279.56
  Q 89.36 272.93 90.06 266.34
  Z"
/>
<path fill="#000000" d="
  M 384.36 279.26
  C 378.77 275.57 378.32 255.58 387.75 255.52
  Q 402.78 255.43 407.25 255.75
  C 416.03 256.39 413.82 265.45 414.24 271.43
  Q 414.80 279.23 408.92 280.42
  C 404.62 281.29 394.52 280.50 388.48 280.50
  Q 386.23 280.50 384.36 279.26
  Z
  M 406.9511 265.1547
  A 3.56 3.56 0.0 0 0 403.4160 261.5700
  L 392.0163 261.4904
  A 3.56 3.56 0.0 0 0 388.4315 265.0254
  L 388.3889 271.1253
  A 3.56 3.56 0.0 0 0 391.9240 274.7100
  L 403.3237 274.7896
  A 3.56 3.56 0.0 0 0 406.9085 271.2546
  L 406.9511 265.1547
  Z"
/>
<path fill="#000000" d="
  M 487.70 261.77
  C 483.36 261.40 479.11 261.56 474.77 261.35
  C 470.62 261.15 470.84 264.50 470.57 268.04
  Q 470.01 275.50 470.88 282.94
  A 0.90 0.84 69.7 0 1 470.54 283.75
  C 469.03 284.84 462.91 285.72 463.12 282.32
  Q 463.73 272.56 463.31 267.44
  C 462.98 263.33 462.82 258.41 466.94 256.30
  C 469.72 254.88 472.97 255.75 475.22 255.69
  C 479.88 255.56 487.79 254.79 491.39 255.72
  C 497.83 257.38 496.75 265.96 496.76 270.89
  C 496.76 274.12 496.59 279.83 491.75 279.79
  Q 491.21 279.78 490.79 279.93
  C 487.60 281.09 481.59 280.38 478.54 280.30
  C 475.24 280.21 471.91 282.03 472.76 276.19
  A 1.97 1.96 4.8 0 1 474.75 274.51
  C 478.78 274.59 489.04 276.68 489.60 271.09
  C 489.84 268.68 489.60 264.75 488.41 262.26
  A 0.86 0.85 -10.1 0 0 487.70 261.77
  Z"
/>
<path fill="#000000" d="
  M 163.31 280.98
  Q 161.47 281.81 160.34 280.35
  A 1.43 1.06 -67.6 0 1 160.11 279.43
  Q 160.75 272.48 160.45 265.50
  C 159.90 253.14 170.28 255.98 178.34 255.84
  C 184.16 255.73 190.10 256.23 190.64 262.91
  Q 190.77 264.46 190.65 266.00
  C 190.24 271.50 189.30 273.58 183.35 273.95
  Q 178.09 274.28 172.81 274.31
  C 169.55 274.34 170.11 272.05 170.43 269.88
  C 170.81 267.32 177.02 268.25 179.31 268.25
  Q 182.30 268.25 183.09 265.37
  C 184.69 259.59 173.95 261.81 170.54 261.56
  A 1.71 1.68 -73.9 0 0 168.92 262.47
  C 167.31 265.56 167.46 273.02 167.95 276.37
  C 168.38 279.28 168.10 281.99 164.22 280.90
  A 1.38 1.23 -46.7 0 0 163.31 280.98
  Z"
/>
<path fill="#000000" d="
  M 216.44 255.75
  C 228.53 255.75 226.66 265.18 226.22 274.02
  C 225.76 283.17 215.47 280.77 209.62 280.75
  C 203.21 280.72 193.24 282.89 193.00 273.00
  C 192.93 270.17 192.54 260.84 195.00 258.03
  C 198.19 254.39 211.62 255.75 216.44 255.75
  Z
  M 201.12 273.87
  C 203.94 276.08 204.78 274.90 207.52 275.11
  C 217.54 275.85 219.65 276.31 219.25 265.00
  Q 219.11 261.04 215.24 261.26
  C 205.65 261.81 198.52 258.35 200.55 272.89
  A 1.55 1.53 15.2 0 0 201.12 273.87
  Z"
/>
<path fill="#000000" d="
  M 255.59 256.35
  Q 257.41 259.25 255.27 261.81
  A 1.05 0.95 19.6 0 1 254.43 262.16
  Q 247.84 261.88 241.25 262.00
  C 236.51 262.08 235.61 265.39 235.74 269.20
  C 235.94 274.83 236.29 275.11 241.81 275.29
  Q 247.75 275.48 254.30 275.01
  A 1.62 1.62 78.6 0 1 255.95 276.11
  C 257.58 280.94 255.25 281.26 251.42 281.10
  C 245.06 280.83 231.29 283.60 229.09 275.70
  C 228.29 272.84 228.37 263.19 229.50 259.75
  C 231.01 255.17 238.36 255.90 242.00 256.25
  Q 245.33 256.57 254.82 255.97
  A 0.87 0.82 -17.1 0 1 255.59 256.35
  Z"
/>
<path fill="#000000" d="
  M 53.45 261.58
  Q 46.58 261.65 39.02 262.05
  Q 36.62 262.18 36.97 260.18
  L 37.58 256.73
  A 0.67 0.57 5.6 0 1 38.25 256.27
  Q 49.05 256.61 59.87 256.53
  C 70.92 256.45 69.42 265.43 68.77 273.33
  C 68.35 278.54 65.61 281.29 60.38 281.07
  C 55.82 280.87 51.17 280.96 46.61 280.98
  Q 41.53 281.00 39.57 279.93
  C 34.48 277.15 34.24 266.13 42.17 266.36
  C 47.39 266.50 52.60 266.23 58.06 266.25
  Q 60.05 266.26 59.99 268.25
  Q 59.91 271.32 56.50 271.04
  Q 51.35 270.62 46.20 270.76
  C 43.33 270.83 40.86 272.86 43.92 275.39
  A 1.36 1.19 -24.3 0 0 44.81 275.66
  C 52.89 275.15 65.10 278.21 62.23 265.51
  C 61.19 260.91 58.00 261.53 53.45 261.58
  Z"
/>
<path fill="#000000" d="
  M 121.44 279.56
  C 117.07 276.70 118.51 268.00 118.50 263.45
  C 118.49 258.68 121.46 255.91 126.16 256.11
  C 131.67 256.36 144.41 254.83 148.70 258.02
  C 152.09 260.54 152.83 267.86 148.38 270.08
  C 144.98 271.77 133.66 270.75 129.19 270.75
  A 1.40 1.39 82.8 0 1 127.84 269.70
  Q 126.65 265.00 131.75 266.00
  Q 136.17 266.86 142.70 265.77
  A 1.21 1.19 12.9 0 0 143.49 265.28
  Q 146.02 261.74 141.25 261.74
  C 136.47 261.75 125.59 259.35 125.22 266.42
  C 125.10 268.77 124.82 270.89 125.36 272.77
  Q 126.09 275.30 128.68 275.30
  L 149.19 275.32
  A 0.95 0.88 -14.9 0 1 149.97 275.73
  Q 151.69 278.42 149.39 280.43
  A 1.46 1.26 20.5 0 1 148.50 280.76
  Q 138.06 280.90 127.62 280.54
  C 125.44 280.46 123.41 280.86 121.44 279.56
  Z"
/>
<path fill="#000000" d="
  M 8.37 263.27
  Q 5.93 269.16 8.23 274.98
  A 0.96 0.88 -9.9 0 0 9.10 275.54
  L 23.91 275.49
  Q 26.05 275.49 26.51 273.55
  C 28.11 266.72 12.88 275.93 15.07 267.47
  A 1.73 1.73 -81.8 0 1 16.79 266.18
  C 20.25 266.28 27.96 265.69 30.71 267.43
  C 34.61 269.90 34.54 276.71 31.27 279.20
  Q 29.25 280.74 24.85 280.89
  Q 16.50 281.16 8.14 280.86
  C -0.97 280.53 0.60 272.17 0.29 266.01
  C -0.24 255.43 6.68 256.44 15.08 256.48
  Q 23.38 256.51 31.68 256.32
  A 0.78 0.74 -11.9 0 1 32.40 256.76
  Q 34.67 261.81 28.93 261.75
  C 24.06 261.69 13.15 260.64 9.00 262.58
  A 1.37 1.16 -88.0 0 0 8.37 263.27
  Z"
/>
<path fill="#000000" d="
  M 277.25 275.75
  Q 276.38 274.21 274.41 274.55
  Q 266.83 275.86 268.83 270.01
  A 1.82 1.82 14.9 0 1 270.91 268.81
  Q 275.63 269.73 277.44 266.13
  Q 279.36 262.31 281.55 257.68
  A 2.03 2.03 -72.0 0 1 283.77 256.55
  C 285.61 256.91 292.29 255.12 290.40 258.64
  C 289.22 260.85 283.82 269.84 284.15 271.87
  C 284.47 273.81 287.31 276.64 288.75 278.00
  C 293.38 282.36 283.89 280.93 282.57 281.03
  Q 280.33 281.20 279.14 279.09
  L 277.25 275.75
  Z"
/>
<path fill="#000000" d="
  M 318.44 270.56
  C 313.26 270.79 308.07 270.53 302.92 270.82
  Q 300.10 270.97 300.37 267.29
  A 1.25 1.24 2.4 0 1 301.64 266.13
  Q 307.56 266.28 311.68 266.26
  C 314.04 266.24 315.81 266.77 316.75 264.00
  Q 317.65 261.33 315.44 261.56
  Q 309.48 262.19 302.26 261.66
  Q 299.71 261.47 298.75 263.84
  C 297.67 266.47 297.26 272.19 299.51 274.32
  C 301.61 276.29 317.70 275.14 321.16 275.08
  Q 323.26 275.04 323.41 277.14
  C 323.72 281.59 321.79 280.77 318.89 280.74
  Q 308.86 280.62 298.82 280.52
  C 290.63 280.45 290.40 273.34 290.86 267.17
  C 291.28 261.45 290.89 256.67 298.33 256.39
  C 304.19 256.17 313.75 255.62 317.89 256.39
  C 325.32 257.78 326.35 270.21 318.44 270.56
  Z"
/>
</svg>
