<?xml version="1.0" encoding="UTF-8" standalone="no"?>
<!DOCTYPE svg PUBLIC "-//W3C//DTD SVG 1.1//EN" "http://www.w3.org/Graphics/SVG/1.1/DTD/svg11.dtd">
<svg xmlns="http://www.w3.org/2000/svg" version="1.1" viewBox="0 0 600 300">
<path fill="#000000" d="
  M 0.00 154.44
  L 0.00 145.94
  Q 3.54 97.14 41.03 69.42
  C 108.68 19.40 205.20 71.89 199.78 156.26
  C 194.81 233.59 106.46 276.96 42.69 231.75
  Q 3.88 204.25 0.00 154.44
  Z
  M 112.01 97.64
  A 25.50 25.50 0.0 0 0 86.51 72.14
  A 25.50 25.50 0.0 0 0 61.01 97.64
  A 25.50 25.50 0.0 0 0 86.51 123.14
  A 25.50 25.50 0.0 0 0 112.01 97.64
  Z
  M 99.94 150.71
  L 96.11 150.74
  A 0.62 0.60 89.5 0 1 95.50 150.12
  L 95.57 136.24
  A 0.50 0.49 82.4 0 0 94.95 135.76
  Q 79.26 140.03 64.09 135.11
  A 0.51 0.50 8.9 0 0 63.43 135.59
  L 63.50 211.49
  A 0.77 0.76 -0.0 0 1 62.73 212.25
  L 56.07 212.25
  A 0.91 0.91 -85.1 0 0 55.17 213.01
  C 54.64 216.12 55.02 215.75 57.20 215.75
  Q 84.48 215.75 111.75 215.75
  Q 124.32 215.75 125.24 215.59
  C 138.11 213.43 143.80 197.01 145.67 185.24
  A 0.92 0.88 -66.2 0 0 145.37 184.41
  Q 143.33 182.67 142.75 185.00
  C 141.62 189.51 138.48 200.98 134.55 201.98
  Q 132.50 202.50 132.50 200.39
  L 132.50 156.36
  A 1.01 0.97 -0.0 0 1 133.51 155.39
  L 145.07 155.35
  A 0.59 0.52 -0.6 0 0 145.65 154.83
  L 145.66 151.43
  A 0.60 0.52 0.6 0 0 145.07 150.91
  L 133.81 150.78
  A 1.26 1.20 0.5 0 1 132.56 149.57
  L 132.66 101.33
  Q 132.67 98.47 131.71 101.16
  C 126.44 115.94 115.92 128.15 100.98 133.60
  A 0.75 0.74 79.9 0 0 100.50 134.30
  L 100.45 150.19
  A 0.53 0.51 -89.4 0 1 99.94 150.71
  Z"
/>
<path fill="#000000" d="
  M 433.82 132.95
  Q 436.42 136.10 436.39 131.99
  L 436.25 108.17
  A 1.17 1.15 83.1 0 0 434.83 107.04
  C 434.28 107.17 428.42 107.57 430.92 105.36
  A 1.60 0.78 8.0 0 1 431.81 105.07
  L 444.92 104.26
  A 0.78 0.73 -1.9 0 1 445.75 104.98
  L 445.75 161.56
  A 0.69 0.69 0.0 0 0 446.44 162.25
  C 447.82 162.25 452.11 161.47 451.38 163.72
  A 0.80 0.68 6.1 0 1 450.69 164.19
  L 437.25 164.79
  A 1.23 1.18 7.2 0 1 436.01 163.25
  Q 436.65 161.25 435.88 160.33
  A 0.51 0.44 -43.7 0 0 435.17 160.36
  Q 428.46 167.43 420.26 164.78
  C 406.52 160.32 404.60 139.86 415.90 131.90
  C 420.98 128.33 429.34 127.51 433.82 132.95
  Z
  M 420.80 133.03
  Q 419.39 134.62 419.26 136.75
  Q 418.66 147.38 419.44 157.74
  C 420.13 166.85 431.21 163.44 434.29 158.43
  C 436.79 154.34 436.14 149.87 436.25 144.75
  Q 436.44 135.56 428.96 131.91
  Q 423.96 129.46 420.80 133.03
  Z"
/>
<path fill="#000000" d="
  M 496.26 133.02
  Q 496.28 135.95 498.05 133.58
  C 503.22 126.65 513.50 128.41 518.86 133.89
  C 525.28 140.44 525.59 152.40 520.06 159.31
  C 514.43 166.35 504.46 167.92 498.16 161.09
  Q 495.68 158.40 496.32 163.26
  A 1.31 1.27 -2.4 0 1 494.96 164.69
  L 481.57 164.19
  A 0.78 0.68 -6.8 0 1 480.88 163.72
  C 480.10 161.28 484.49 162.52 486.20 162.07
  A 0.66 0.64 83.3 0 0 486.69 161.43
  L 486.81 107.71
  A 0.57 0.57 -1.9 0 0 486.20 107.14
  C 485.21 107.20 479.22 107.99 481.00 105.45
  A 1.14 0.84 10.5 0 1 481.81 105.06
  L 495.05 104.37
  A 0.92 0.90 -1.8 0 1 496.02 105.26
  L 496.26 133.02
  Z
  M 510.38 131.86
  C 504.25 127.98 496.41 135.77 496.31 141.75
  C 496.19 149.44 494.56 157.92 502.56 162.19
  C 505.63 163.83 509.69 164.18 511.90 161.19
  C 514.59 157.55 513.52 146.72 513.59 142.11
  C 513.65 138.59 513.58 133.88 510.38 131.86
  Z"
/>
<path fill="#000000" d="
  M 528.95 105.82
  A 0.94 0.93 4.7 0 1 529.91 105.01
  Q 537.16 105.24 544.36 104.27
  A 0.79 0.79 86.2 0 1 545.25 105.05
  L 545.31 161.44
  A 0.64 0.62 -83.8 0 0 545.79 162.06
  C 547.60 162.48 552.23 161.30 551.60 163.70
  A 0.69 0.66 7.1 0 1 550.94 164.19
  L 529.99 164.25
  A 1.35 0.95 -15.8 0 1 529.12 163.94
  Q 528.45 163.25 529.12 162.57
  A 1.34 0.95 15.5 0 1 530.00 162.25
  L 534.99 162.25
  A 0.76 0.76 0.0 0 0 535.75 161.49
  L 535.75 107.73
  A 0.69 0.69 -4.6 0 0 534.95 107.05
  C 533.96 107.22 528.66 108.09 528.95 105.82
  Z"
/>
<circle fill="#000000" cx="225.77" cy="112.09" r="4.98"/>
<circle fill="#000000" cx="465.88" cy="112.08" r="4.97"/>
<path fill="#000000" d="
  M 231.80 162.02
  L 236.76 162.28
  A 1.05 0.62 -5.8 0 1 237.56 162.65
  Q 237.90 163.24 237.55 163.85
  A 0.98 0.77 11.5 0 1 236.75 164.25
  L 216.01 164.25
  A 1.07 0.80 -12.2 0 1 215.18 163.87
  Q 214.78 163.25 215.18 162.63
  A 1.03 0.78 11.9 0 1 215.99 162.25
  L 220.84 162.25
  A 0.91 0.91 0.0 0 0 221.75 161.34
  L 221.75 132.43
  A 0.68 0.68 0.0 0 0 221.07 131.75
  C 220.10 131.75 215.01 132.52 216.07 130.24
  A 0.95 0.71 7.5 0 1 216.82 129.82
  L 230.74 129.13
  A 0.48 0.46 -1.8 0 1 231.25 129.59
  L 231.31 161.44
  A 0.58 0.51 -89.0 0 0 231.80 162.02
  Z"
/>
<path fill="#000000" d="
  M 308.45 165.52
  C 285.17 165.01 286.41 130.46 307.85 129.14
  C 312.93 128.83 318.45 129.74 321.31 134.19
  C 323.80 138.05 322.25 143.50 317.04 143.15
  C 312.48 142.84 312.24 137.33 314.75 134.31
  A 1.46 1.46 -59.1 0 0 314.18 132.03
  Q 307.21 129.19 303.88 133.70
  C 300.47 138.32 301.07 152.72 301.75 157.50
  C 302.37 161.90 306.38 163.63 310.51 163.12
  Q 318.38 162.17 321.33 154.22
  A 1.65 1.27 89.9 0 1 321.91 153.46
  C 324.31 151.89 323.32 155.13 322.93 155.91
  Q 318.03 165.73 308.45 165.52
  Z"
/>
<path fill="#000000" d="
  M 461.98 161.01
  L 461.76 132.66
  A 0.94 0.93 0.0 0 0 460.83 131.74
  L 457.06 131.71
  A 0.94 0.92 -15.6 0 1 456.27 131.28
  Q 455.26 129.66 457.75 129.70
  Q 464.17 129.82 470.57 129.23
  A 0.46 0.46 -2.3 0 1 471.07 129.69
  L 471.24 160.94
  A 1.32 1.30 89.8 0 0 472.54 162.25
  C 473.88 162.25 478.56 161.45 477.65 163.74
  A 0.80 0.71 9.7 0 1 476.93 164.19
  L 455.81 164.20
  A 0.66 0.63 -6.0 0 1 455.17 163.71
  C 454.51 160.97 459.62 162.95 461.58 161.78
  A 0.91 0.80 76.0 0 0 461.98 161.01
  Z"
/>
<path fill="#000000" d="
  M 268.71 132.71
  C 263.57 130.21 258.46 136.45 257.02 140.81
  C 255.29 146.02 256.25 155.30 256.25 161.40
  A 0.85 0.85 -0.2 0 0 257.10 162.25
  L 260.74 162.25
  A 1.17 0.83 -12.8 0 1 261.60 162.61
  Q 262.08 163.25 261.60 163.89
  A 1.16 0.88 14.1 0 1 260.75 164.25
  L 241.56 164.19
  A 0.92 0.83 -13.4 0 1 240.79 163.77
  C 239.50 161.51 244.82 162.26 245.96 162.20
  A 0.84 0.83 -1.8 0 0 246.75 161.37
  L 246.75 132.41
  A 0.66 0.66 0.0 0 0 246.09 131.75
  C 244.97 131.75 239.47 132.50 240.78 130.23
  A 0.99 0.80 11.0 0 1 241.55 129.82
  L 254.91 129.19
  A 1.04 0.97 -0.9 0 1 256.00 130.17
  L 255.92 136.35
  Q 255.91 137.58 256.78 136.73
  C 260.62 132.96 261.45 129.92 267.48 129.26
  C 278.82 128.01 280.16 134.52 280.27 143.92
  Q 280.36 152.66 280.07 161.13
  A 1.12 1.09 1.0 0 0 281.18 162.25
  L 284.95 162.29
  A 0.80 0.79 -11.9 0 1 285.68 162.76
  Q 286.33 164.22 284.50 164.23
  Q 275.37 164.25 266.24 164.25
  A 1.14 0.85 -13.5 0 1 265.40 163.89
  Q 264.92 163.25 265.40 162.61
  A 1.18 0.80 11.6 0 1 266.24 162.26
  L 269.91 162.19
  A 0.70 0.67 89.6 0 0 270.57 161.49
  L 270.50 135.58
  Q 270.50 133.58 268.71 132.71
  Z"
/>
<path fill="#000000" d="
  M 344.73 136.26
  Q 344.70 139.37 346.13 136.55
  Q 350.20 128.53 359.25 129.25
  C 364.68 129.68 365.90 139.81 358.66 139.43
  C 355.46 139.27 353.92 137.40 354.19 134.24
  A 1.04 0.80 -72.3 0 0 353.89 133.40
  Q 352.76 132.47 351.27 133.53
  C 342.48 139.75 345.06 152.12 344.93 161.47
  A 0.73 0.72 1.6 0 0 345.63 162.20
  C 346.91 162.25 353.59 161.38 352.65 163.74
  A 0.78 0.71 9.9 0 1 351.94 164.19
  L 330.32 164.20
  A 0.84 0.78 -11.4 0 1 329.57 163.74
  C 328.56 161.49 333.38 162.25 334.41 162.25
  A 1.09 1.09 -89.8 0 0 335.50 161.16
  L 335.50 132.43
  A 0.68 0.68 0.0 0 0 334.82 131.75
  C 333.69 131.75 328.56 132.53 329.57 130.26
  A 0.93 0.73 7.7 0 1 330.32 129.82
  L 343.42 129.18
  A 1.30 1.28 -1.3 0 1 344.79 130.47
  L 344.73 136.26
  Z"
/>
<path fill="#000000" d="
  M 379.04 145.56
  C 378.77 152.47 377.41 162.40 385.67 163.03
  Q 395.29 163.77 399.04 154.27
  Q 399.69 152.61 401.06 153.25
  A 0.61 0.56 -68.4 0 1 401.34 153.98
  C 393.45 176.63 360.96 163.15 370.10 140.24
  C 376.47 124.29 401.18 125.71 401.51 143.92
  A 0.86 0.83 -1.0 0 1 400.66 144.77
  L 379.57 145.04
  A 0.54 0.53 -88.9 0 0 379.04 145.56
  Z
  M 381.30 132.46
  C 378.54 134.68 378.85 137.95 379.09 141.28
  A 1.06 1.04 87.6 0 0 380.13 142.25
  L 391.01 142.25
  A 0.61 0.61 -84.2 0 0 391.61 141.76
  C 392.35 138.10 391.75 133.00 388.31 131.69
  Q 384.20 130.12 381.30 132.46
  Z"
/>
<path fill="#000000" d="
  M 562.60 162.39
  C 550.19 153.34 555.02 130.95 570.74 129.19
  C 579.81 128.18 588.65 134.45 588.33 144.07
  A 0.52 0.51 -89.4 0 1 587.82 144.58
  L 566.96 144.73
  A 1.19 1.16 0.2 0 0 565.78 145.87
  C 565.68 150.54 565.09 156.77 567.53 160.36
  C 572.57 167.73 583.59 161.01 586.03 154.16
  A 1.56 1.29 88.2 0 1 586.61 153.41
  Q 588.80 152.03 587.78 154.88
  C 583.97 165.47 571.44 168.84 562.60 162.39
  Z
  M 578.55 137.25
  C 578.79 128.78 564.28 128.34 566.00 140.25
  A 2.34 1.13 83.3 0 0 567.31 142.31
  L 577.95 142.33
  A 0.55 0.54 0.0 0 0 578.50 141.79
  Q 578.50 139.12 578.55 137.25
  Z"
/>
<path fill="#000000" d="
  M 100.27 155.48
  A 0.21 0.18 -88.6 0 1 100.44 155.69
  Q 100.54 176.81 100.51 198.03
  C 100.50 204.00 101.71 207.74 106.04 211.42
  Q 107.11 212.33 105.70 212.31
  L 96.18 212.19
  A 0.69 0.69 0.4 0 1 95.50 211.50
  L 95.50 156.16
  A 0.84 0.74 -89.0 0 1 96.27 155.32
  L 100.27 155.48
  Z"
/>
<path fill="#000000" d="
  M 431.68 206.02
  C 416.49 203.87 419.98 174.08 439.06 179.41
  C 451.15 182.78 451.07 204.68 438.34 206.05
  Q 434.67 206.44 431.68 206.02
  Z
  M 435.1092 203.8300
  A 11.00 9.39 89.9 0 0 444.4800 192.8136
  A 11.00 9.39 89.9 0 0 435.0708 181.8300
  A 11.00 9.39 89.9 0 0 425.7000 192.8464
  A 11.00 9.39 89.9 0 0 435.1092 203.8300
  Z"
/>
<path fill="#000000" d="
  M 472.69 194.56
  C 470.83 176.41 494.69 173.01 498.09 189.43
  C 499.30 195.28 497.23 202.97 491.32 205.41
  C 489.05 206.35 485.79 206.03 483.23 205.98
  C 476.89 205.88 473.30 200.55 472.69 194.56
  Z
  M 485.5275 203.8298
  A 10.99 9.41 89.7 0 0 494.8799 192.7907
  A 10.99 9.41 89.7 0 0 485.4125 181.8502
  A 10.99 9.41 89.7 0 0 476.0601 192.8893
  A 10.99 9.41 89.7 0 0 485.5275 203.8298
  Z"
/>
<path fill="#000000" d="
  M 522.93 195.80
  L 516.57 195.70
  A 0.78 0.69 -8.0 0 1 515.87 195.23
  Q 515.48 194.13 515.87 193.02
  A 0.75 0.69 8.6 0 1 516.57 192.55
  L 526.43 192.55
  A 0.58 0.52 -0.5 0 1 527.01 193.06
  L 527.14 201.70
  A 1.89 1.59 -21.0 0 1 526.34 203.15
  C 522.10 206.17 514.19 207.38 509.26 205.25
  C 496.42 199.72 501.33 176.49 518.18 179.09
  Q 524.43 180.06 526.28 186.07
  Q 526.73 187.54 525.06 187.31
  A 2.84 1.20 2.4 0 1 522.94 186.31
  Q 520.89 182.03 516.00 181.98
  C 508.60 181.90 505.46 187.32 505.98 194.11
  C 506.68 203.31 516.30 206.41 523.05 201.01
  A 1.11 0.99 -21.0 0 0 523.47 200.19
  L 523.47 196.31
  A 0.55 0.51 0.6 0 0 522.93 195.80
  Z"
/>
<path fill="#000000" d="
  M 568.17 185.41
  C 569.77 176.17 586.08 176.76 587.50 185.99
  A 0.67 0.67 73.5 0 1 587.11 186.71
  Q 584.22 188.00 583.67 185.98
  Q 582.59 181.96 575.74 182.42
  Q 573.89 182.54 572.47 183.73
  Q 569.50 186.22 572.59 188.44
  C 577.65 192.08 585.66 189.95 587.96 196.19
  C 589.68 200.88 586.39 205.62 581.48 206.10
  C 575.00 206.74 568.65 206.50 567.09 198.49
  A 0.67 0.67 70.9 0 1 567.44 197.76
  C 570.90 196.01 570.47 199.50 571.95 201.03
  C 574.98 204.19 585.38 205.01 584.90 198.66
  C 584.39 191.97 566.34 195.98 568.17 185.41
  Z"
/>
<path fill="#000000" d="
  M 350.33 206.13
  C 337.05 205.44 336.56 179.75 352.25 178.92
  Q 360.62 178.47 363.63 185.92
  A 0.61 0.60 66.6 0 1 363.33 186.69
  Q 360.54 188.03 359.73 186.28
  C 357.50 181.41 351.58 180.60 347.61 183.80
  C 343.44 187.18 343.41 195.19 345.56 199.44
  C 348.92 206.05 358.26 204.64 360.61 197.67
  A 0.76 0.76 -78.5 0 1 361.38 197.16
  Q 364.93 197.43 363.92 199.28
  C 360.23 206.07 357.93 206.53 350.33 206.13
  Z"
/>
<path fill="#000000" d="
  M 299.44 182.55
  L 292.05 182.45
  A 0.75 0.70 -8.3 0 1 291.37 181.98
  Q 290.98 180.88 291.37 179.77
  A 0.73 0.68 8.9 0 1 292.05 179.31
  L 311.68 179.30
  A 0.81 0.74 -10.3 0 1 312.41 179.76
  Q 312.86 180.86 312.45 182.04
  A 0.81 0.68 7.2 0 1 311.75 182.49
  L 304.19 182.65
  A 0.54 0.51 89.5 0 0 303.69 183.19
  L 303.75 204.88
  A 0.92 0.91 84.2 0 1 303.02 205.78
  Q 299.79 206.47 299.93 204.31
  Q 300.61 193.68 299.97 183.06
  A 0.54 0.54 88.9 0 0 299.44 182.55
  Z"
/>
<path fill="#000000" d="
  M 336.56 205.33
  A 0.82 0.81 5.0 0 1 335.75 206.00
  L 317.17 206.00
  A 0.67 0.67 0.2 0 1 316.50 205.33
  L 316.50 180.05
  A 0.80 0.80 0.0 0 1 317.30 179.25
  Q 325.77 179.25 333.20 179.25
  C 335.74 179.25 336.53 178.92 335.83 182.00
  A 0.64 0.63 -83.8 0 1 335.21 182.50
  L 320.66 182.50
  A 0.66 0.66 0.1 0 0 320.00 183.16
  L 320.00 190.09
  A 0.66 0.66 -0.1 0 0 320.66 190.75
  C 324.87 190.75 329.07 190.89 333.15 190.69
  Q 336.05 190.54 334.78 193.37
  A 0.82 0.80 11.6 0 1 334.06 193.83
  L 320.81 194.07
  A 0.60 0.58 4.5 0 0 320.22 194.56
  Q 319.53 198.57 320.33 202.56
  A 0.67 0.61 83.7 0 0 320.94 203.09
  L 335.69 203.09
  A 0.80 0.64 -8.3 0 1 336.40 203.51
  Q 336.73 204.37 336.56 205.33
  Z"
/>
<path fill="#000000" d="
  M 373.05 190.19
  L 385.69 190.31
  A 0.80 0.80 0.4 0 0 386.50 189.51
  C 386.50 186.60 386.67 183.59 386.43 180.80
  Q 386.26 178.76 389.32 179.43
  A 0.89 0.88 -84.0 0 1 390.01 180.30
  L 390.18 204.95
  A 0.88 0.74 78.7 0 1 389.77 205.70
  Q 388.69 206.23 387.01 205.90
  A 0.62 0.62 -85.0 0 1 386.50 205.29
  L 386.50 194.16
  A 0.66 0.66 -0.1 0 0 385.84 193.50
  L 373.05 193.50
  A 0.56 0.55 -90.0 0 0 372.50 194.06
  L 372.45 205.18
  A 0.71 0.68 81.6 0 1 371.97 205.85
  Q 368.38 206.99 368.61 203.57
  C 369.11 195.93 368.74 188.01 368.81 180.32
  A 0.93 0.82 76.9 0 1 369.23 179.54
  Q 370.62 178.76 372.07 179.50
  A 0.91 0.76 -79.6 0 1 372.50 180.26
  L 372.55 189.68
  A 0.52 0.50 89.4 0 0 373.05 190.19
  Z"
/>
<path fill="#000000" d="
  M 413.32 199.70
  Q 413.94 200.62 413.93 199.51
  L 413.80 180.05
  A 0.73 0.71 80.3 0 1 414.27 179.37
  Q 415.70 178.85 417.01 179.55
  A 0.89 0.77 -77.9 0 1 417.42 180.30
  L 417.42 204.94
  A 0.87 0.74 78.5 0 1 417.01 205.68
  C 414.83 206.77 413.33 205.97 412.04 204.01
  Q 406.07 194.89 400.16 186.15
  Q 399.41 185.03 399.43 186.38
  Q 399.54 195.28 399.50 203.54
  C 399.49 205.82 399.74 206.49 396.67 205.82
  A 0.86 0.86 -83.7 0 1 396.00 204.98
  L 396.00 180.21
  A 0.76 0.75 -5.6 0 1 396.61 179.47
  Q 399.64 178.89 400.63 180.42
  Q 406.90 190.10 413.32 199.70
  Z"
/>
<path fill="#000000" d="
  M 456.05 201.92
  A 1.32 1.27 -90.0 0 0 457.33 203.25
  L 468.56 203.20
  A 0.85 0.77 -12.8 0 1 469.31 203.62
  Q 470.49 205.92 467.75 205.94
  Q 460.63 206.00 453.16 206.00
  A 0.66 0.66 0.2 0 1 452.50 205.34
  Q 452.50 193.57 452.50 182.11
  C 452.50 179.30 452.26 178.74 455.47 179.47
  A 0.92 0.88 6.8 0 1 456.19 180.35
  L 456.05 201.92
  Z"
/>
<rect fill="#000000" x="533.00" y="179.27" width="3.54" height="26.70" rx="0.70"/>
<path fill="#000000" d="
  M 547.31 190.69
  L 560.94 190.81
  A 0.70 0.67 -8.5 0 1 561.60 191.28
  Q 562.52 194.27 559.51 194.09
  C 555.52 193.84 551.39 194.00 547.32 194.00
  A 0.67 0.65 89.6 0 0 546.67 194.68
  L 546.75 202.33
  A 0.91 0.89 -89.7 0 0 547.62 203.23
  Q 554.75 203.38 561.10 203.11
  C 562.74 203.04 564.10 203.09 563.21 205.30
  A 0.84 0.78 8.9 0 1 562.50 205.78
  Q 552.98 206.32 543.80 205.83
  A 0.68 0.66 -89.1 0 1 543.17 205.16
  L 543.07 180.26
  A 1.01 0.99 90.0 0 1 544.06 179.25
  Q 553.13 179.25 561.25 179.24
  Q 563.29 179.24 562.68 181.79
  A 0.93 0.93 -83.3 0 1 561.78 182.50
  L 547.31 182.50
  A 0.53 0.52 -0.0 0 0 546.78 183.02
  L 546.79 190.19
  A 0.52 0.50 0.0 0 0 547.31 190.69
  Z"
/>
<path fill="#000000" d="
  M 599.97 184.39
  A 4.80 4.80 0.0 0 1 595.17 189.19
  A 4.80 4.80 0.0 0 1 590.37 184.39
  A 4.80 4.80 0.0 0 1 595.17 179.59
  A 4.80 4.80 0.0 0 1 599.97 184.39
  Z
  M 599.11 184.37
  A 3.93 3.93 0.0 0 0 595.18 180.44
  A 3.93 3.93 0.0 0 0 591.25 184.37
  A 3.93 3.93 0.0 0 0 595.18 188.30
  A 3.93 3.93 0.0 0 0 599.11 184.37
  Z"
/>
<path fill="#000000" d="
  M 593.18 185.98
  Q 593.34 185.15 593.30 184.30
  Q 593.21 182.12 594.03 182.11
  Q 594.95 182.11 594.98 182.10
  Q 596.16 181.83 596.77 182.81
  A 0.84 0.63 -48.2 0 1 596.70 183.64
  Q 595.90 184.83 596.71 186.10
  A 0.55 0.41 60.8 0 1 596.62 186.82
  Q 596.11 187.06 595.75 186.00
  Q 595.14 184.20 593.81 186.31
  Q 592.82 187.90 593.18 185.98
  Z
  M 595.53 183.04
  Q 594.47 181.66 594.28 183.50
  A 0.72 0.65 -78.2 0 0 594.70 184.22
  Q 595.41 184.48 595.68 183.92
  A 0.95 0.74 42.2 0 0 595.53 183.04
  Z"
/>
</svg>
