<?xml version="1.0" encoding="UTF-8" standalone="no"?>
<!DOCTYPE svg PUBLIC "-//W3C//DTD SVG 1.1//EN" "http://www.w3.org/Graphics/SVG/1.1/DTD/svg11.dtd">
<svg xmlns="http://www.w3.org/2000/svg" version="1.1" viewBox="0 0 600 300">
<path fill="#000000" d="
  M 45.00 225.57
  L 11.10 225.50
  Q 9.51 225.50 10.38 224.18
  L 109.12 74.15
  Q 110.01 72.82 110.00 74.42
  L 109.75 165.17
  A 1.08 1.07 -90.0 0 1 108.68 166.25
  L 85.01 166.25
  A 1.01 0.99 -72.8 0 0 84.18 166.70
  L 45.61 225.23
  A 0.75 0.71 -72.8 0 1 45.00 225.57
  Z"
/>
<rect fill="#000000" x="114.50" y="74.05" width="30.00" height="151.46" rx="0.53"/>
<path fill="#000000" d="
  M 152.68 74.92
  A 0.96 0.93 0.3 0 1 153.64 74.00
  L 224.67 73.83
  Q 227.44 73.82 225.48 75.77
  L 196.51 104.62
  A 2.16 2.12 -67.1 0 1 195.00 105.25
  L 153.27 105.25
  A 0.71 0.69 0.4 0 1 152.56 104.55
  L 152.68 74.92
  Z"
/>
<rect fill="#000000" x="436.26" y="74.05" width="31.74" height="151.46" rx="0.75"/>
<path fill="#000000" d="
  M 233.76 74.12
  A 0.41 0.41 22.5 0 1 234.05 74.00
  L 269.05 74.00
  A 0.72 0.71 90.0 0 1 269.76 74.72
  L 269.93 104.58
  A 0.67 0.66 -90.0 0 1 269.27 105.25
  L 230.62 105.25
  A 0.87 0.87 0.0 0 0 229.75 106.12
  L 229.75 224.99
  A 0.58 0.58 -0.3 0 1 229.17 225.57
  L 197.44 225.50
  A 0.69 0.69 0.0 0 1 196.75 224.81
  Q 196.75 168.75 196.75 113.75
  C 196.75 110.42 197.36 110.51 199.86 108.01
  Q 216.63 91.19 233.76 74.12
  Z"
/>
<path fill="#000000" d="
  M 309.31 191.50
  A 1.00 0.99 0.3 0 0 310.31 192.50
  L 350.44 192.56
  A 0.50 0.50 0.0 0 1 350.94 193.06
  L 351.00 224.95
  A 0.55 0.55 0.0 0 1 350.45 225.50
  L 278.86 225.57
  A 0.61 0.61 0.5 0 1 278.25 224.96
  L 278.25 74.81
  A 0.81 0.81 0.0 0 1 279.06 74.00
  L 308.69 74.00
  A 0.81 0.81 0.0 0 1 309.50 74.81
  L 309.31 191.50
  Z"
/>
<path fill="#000000" d="
  M 357.69 74.79
  A 0.80 0.79 -0.0 0 1 358.49 74.00
  L 386.61 74.00
  A 1.08 1.08 89.7 0 1 387.69 75.07
  Q 387.80 121.16 387.75 167.50
  C 387.73 190.79 414.55 201.28 430.90 185.10
  Q 431.82 184.19 431.82 185.48
  L 431.75 220.15
  A 0.81 0.78 80.1 0 1 431.24 220.90
  C 421.95 224.45 412.43 226.48 402.58 224.44
  C 380.41 219.83 363.49 202.51 358.64 179.93
  Q 357.50 174.63 357.48 162.99
  Q 357.39 118.85 357.69 74.79
  Z"
/>
<path fill="#000000" d="
  M 541.21 192.30
  C 564.06 192.03 562.92 163.14 541.28 163.29
  Q 532.64 163.35 524.00 162.98
  C 502.70 162.07 485.58 151.70 479.69 130.31
  Q 476.21 117.71 479.54 106.01
  Q 480.85 101.43 485.26 94.18
  Q 491.12 84.54 496.82 74.80
  A 1.62 1.61 -74.6 0 1 498.21 74.00
  L 533.22 74.06
  Q 534.45 74.06 533.82 75.12
  Q 523.46 92.56 513.98 108.65
  Q 511.32 113.15 510.83 115.71
  C 509.05 125.04 516.99 132.06 526.00 132.25
  Q 535.25 132.45 544.50 132.53
  C 577.07 132.82 597.76 161.05 587.39 192.22
  C 579.03 217.36 556.69 225.50 531.71 225.50
  Q 504.86 225.50 476.91 225.50
  A 0.93 0.92 -90.0 0 1 475.99 224.57
  L 475.82 193.25
  A 0.75 0.74 89.6 0 1 476.56 192.49
  Q 509.30 192.67 541.21 192.30
  Z"
/>
<path fill="#000000" d="
  M 540.24 74.96
  A 2.00 1.99 15.4 0 1 541.95 74.00
  L 589.52 74.06
  Q 590.99 74.06 590.24 75.32
  L 572.56 104.97
  A 0.95 0.94 14.7 0 1 571.74 105.44
  L 522.79 105.50
  Q 521.70 105.50 522.26 104.57
  L 540.24 74.96
  Z"
/>
</svg>
