<?xml version="1.0" encoding="UTF-8" standalone="no"?>
<!DOCTYPE svg PUBLIC "-//W3C//DTD SVG 1.1//EN" "http://www.w3.org/Graphics/SVG/1.1/DTD/svg11.dtd">
<svg xmlns="http://www.w3.org/2000/svg" version="1.1" viewBox="0 0 600 300">
<path stroke="#000000" stroke-width="2.00" fill="none" stroke-linecap="butt" vector-effect="non-scaling-stroke" d="
  M 194.26 282.91
  L 194.53 279.30"
/>
<path fill="#000000" d="
  M 300.82 174.19
  Q 301.25 175.08 301.68 174.20
  L 358.33 59.10
  A 0.46 0.46 -76.8 0 0 357.92 58.43
  L 321.54 58.56
  Q 319.99 58.57 321.29 57.72
  L 409.76 0.24
  A 0.54 0.54 -38.3 0 1 410.45 0.32
  L 463.85 58.07
  Q 464.19 58.44 463.69 58.44
  L 427.24 58.50
  A 1.14 1.13 12.9 0 0 426.22 59.13
  L 333.86 246.97
  A 0.95 0.95 -76.9 0 1 333.01 247.50
  L 262.98 247.50
  A 0.94 0.94 76.7 0 1 262.14 246.98
  L 183.10 85.46
  A 0.36 0.36 -12.8 0 1 183.43 84.94
  L 256.76 85.00
  A 1.15 1.13 -12.8 0 1 257.79 85.64
  L 300.82 174.19
  Z
  M 379.47 46.07
  L 287.50 233.24
  A 0.53 0.53 12.9 0 0 287.98 234.00
  L 324.74 234.00
  A 1.04 1.03 12.8 0 0 325.67 233.42
  L 417.88 45.99
  A 1.29 1.23 -75.9 0 1 419.02 45.27
  L 432.37 45.40
  Q 433.93 45.41 432.89 44.29
  L 408.34 17.71
  A 0.62 0.62 -37.5 0 0 407.55 17.61
  L 366.05 44.57
  Q 364.73 45.43 366.32 45.41
  L 378.98 45.27
  A 0.55 0.55 -77.0 0 1 379.47 46.07
  Z
  M 272.80 232.83
  L 293.53 190.74
  A 1.68 1.66 45.4 0 0 293.53 189.27
  L 249.39 99.02
  A 1.38 1.36 -12.6 0 0 248.15 98.25
  L 205.06 98.25
  A 0.57 0.56 77.0 0 0 204.56 99.06
  L 270.04 232.82
  Q 271.42 235.64 272.80 232.83
  Z"
/>
<path fill="#000000" d="
  M 187.14 63.79
  Q 186.88 64.93 188.44 65.31
  C 191.92 66.16 198.18 66.69 199.81 68.94
  C 202.89 73.18 197.48 76.21 193.94 76.70
  Q 187.75 77.55 181.35 75.98
  A 0.90 0.73 8.3 0 1 180.66 75.23
  L 180.65 72.03
  A 0.44 0.34 15.7 0 1 181.26 71.78
  Q 186.54 74.30 192.36 73.62
  C 195.23 73.29 195.15 71.06 192.40 70.71
  Q 185.44 69.84 183.56 68.69
  C 178.29 65.45 181.03 61.53 185.46 60.23
  Q 192.15 58.26 199.03 60.35
  A 0.89 0.89 -88.3 0 1 199.63 60.99
  Q 200.02 62.53 199.80 63.40
  A 1.15 1.14 21.9 0 1 198.13 64.11
  Q 192.94 61.21 187.77 63.13
  A 1.04 0.84 -7.6 0 0 187.14 63.79
  Z"
/>
<path fill="#000000" d="
  M 224.58 59.44
  Q 225.72 59.41 224.98 60.28
  Q 221.89 63.87 218.84 67.53
  C 216.61 70.20 216.30 71.65 216.88 75.00
  A 1.49 1.49 -5.0 0 1 215.41 76.75
  L 211.41 76.75
  A 0.66 0.66 0.0 0 1 210.75 76.09
  L 210.75 71.33
  A 2.58 2.33 -66.9 0 0 210.21 69.76
  L 202.58 60.49
  Q 201.69 59.41 203.10 59.43
  L 207.67 59.48
  A 1.99 1.62 -15.2 0 1 209.12 60.13
  L 213.54 65.80
  A 0.49 0.49 43.5 0 0 214.33 65.78
  L 218.50 59.95
  A 1.07 0.98 16.3 0 1 219.31 59.55
  L 224.58 59.44
  Z"
/>
<path fill="#000000" d="
  M 228.38 71.83
  C 231.60 73.74 236.34 74.34 239.96 73.33
  A 1.51 1.18 3.6 0 0 240.75 72.79
  C 241.69 71.37 240.12 70.79 238.99 70.67
  Q 231.72 69.83 230.06 68.69
  C 223.09 63.88 230.98 59.44 235.74 59.27
  Q 240.29 59.09 244.78 59.79
  Q 246.97 60.13 246.23 63.89
  A 0.62 0.61 19.5 0 1 245.34 64.31
  Q 239.97 61.48 234.80 62.92
  A 1.38 1.12 2.9 0 0 234.03 63.48
  C 231.81 67.25 250.64 64.89 246.94 72.94
  C 244.46 78.33 232.72 77.20 228.29 76.06
  A 1.22 0.92 -0.7 0 1 227.54 75.51
  Q 226.99 74.38 227.49 72.21
  A 0.60 0.60 21.7 0 1 228.38 71.83
  Z"
/>
<path fill="#000000" d="
  M 255.95 62.94
  Q 253.49 62.40 251.03 62.99
  A 1.61 1.60 -13.2 0 1 249.09 61.79
  Q 248.50 59.24 251.00 59.30
  Q 259.75 59.50 268.99 59.50
  A 0.66 0.65 -6.7 0 1 269.63 60.00
  Q 270.03 61.69 269.34 62.64
  A 1.14 0.60 8.7 0 1 268.51 62.93
  L 263.19 62.87
  A 0.58 0.52 -89.4 0 0 262.67 63.44
  L 262.44 75.94
  A 0.62 0.50 -89.9 0 1 261.95 76.55
  L 257.18 76.65
  A 0.61 0.50 89.0 0 1 256.67 76.05
  L 256.43 63.56
  A 0.64 0.62 -83.8 0 0 255.95 62.94
  Z"
/>
<path fill="#000000" d="
  M 279.49 69.81
  L 279.69 72.96
  A 0.64 0.52 -0.8 0 0 280.31 73.45
  L 289.50 73.50
  A 0.72 0.66 -7.2 0 1 290.16 73.97
  Q 291.18 77.11 288.21 76.89
  C 283.68 76.55 278.99 76.75 274.39 76.75
  A 0.94 0.91 89.7 0 1 273.48 75.82
  L 273.32 60.32
  A 0.81 0.79 89.6 0 1 274.11 59.50
  C 278.90 59.50 283.65 59.70 288.20 59.36
  Q 291.27 59.14 290.11 62.48
  A 0.68 0.63 11.3 0 1 289.43 62.90
  C 286.74 62.73 284.09 62.78 281.40 62.67
  Q 278.34 62.54 279.83 65.50
  A 0.76 0.73 -15.1 0 0 280.56 65.90
  C 282.92 65.73 292.00 64.15 289.26 68.83
  A 0.93 0.82 13.3 0 1 288.49 69.24
  L 280.06 69.30
  A 0.57 0.48 -1.4 0 0 279.49 69.81
  Z"
/>
<path fill="#000000" d="
  M 307.04 67.37
  A 0.80 0.78 45.0 0 0 308.39 67.39
  L 312.71 60.16
  A 1.02 0.87 -72.6 0 1 313.49 59.67
  L 319.32 59.62
  A 0.58 0.50 89.5 0 1 319.83 60.20
  L 319.98 75.89
  A 0.88 0.85 -0.3 0 1 319.10 76.75
  L 314.89 76.75
  A 0.89 0.85 0.3 0 1 314.00 75.89
  L 314.21 66.49
  A 0.93 0.50 -83.8 0 0 313.88 65.67
  C 313.52 65.54 311.10 70.34 309.85 72.15
  A 1.49 1.26 -77.1 0 1 309.09 72.72
  C 303.26 74.36 303.07 65.81 301.43 66.02
  A 0.73 0.45 86.8 0 0 301.04 66.74
  L 301.25 75.82
  A 0.83 0.81 89.3 0 1 300.43 76.68
  L 296.17 76.64
  A 0.57 0.52 -89.5 0 1 295.66 76.07
  L 295.66 60.18
  A 0.55 0.54 89.5 0 1 296.19 59.63
  L 301.69 59.53
  A 0.93 0.90 -15.9 0 1 302.49 59.96
  L 307.04 67.37
  Z"
/>
<path fill="#000000" d="
  M 221.69 300.00
  L 207.44 300.00
  Q 195.95 295.29 194.26 282.91
  L 194.53 279.30
  Q 195.20 274.25 196.06 272.56
  Q 202.38 260.16 216.25 261.00
  C 237.61 262.29 241.27 292.05 221.69 300.00
  Z
  M 214.7044 293.8293
  A 12.83 11.52 89.4 0 0 226.0894 280.8794
  A 12.83 11.52 89.4 0 0 214.4356 268.1707
  A 12.83 11.52 89.4 0 0 203.0506 281.1206
  A 12.83 11.52 89.4 0 0 214.7044 293.8293
  Z"
/>
<path fill="#000000" d="
  M 263.69 300.00
  L 251.44 300.00
  Q 248.25 298.17 245.78 294.81
  Q 244.27 292.75 246.37 291.63
  L 250.88 289.22
  A 1.61 1.55 62.2 0 1 253.00 289.92
  Q 253.95 291.75 256.34 293.41
  Q 258.04 294.60 259.72 293.35
  Q 262.85 291.02 260.10 288.40
  C 256.00 284.48 248.68 279.36 247.25 273.92
  C 243.64 260.25 261.71 256.99 268.82 266.45
  A 1.11 1.03 51.8 0 1 268.70 267.93
  L 264.51 271.38
  Q 262.96 272.66 261.86 270.89
  Q 260.70 269.01 257.74 268.13
  A 1.18 1.14 36.2 0 0 256.81 268.26
  Q 253.74 270.22 257.19 272.81
  Q 261.24 275.86 265.68 280.56
  C 271.68 286.92 271.71 294.99 263.69 300.00
  Z"
/>
<path fill="#000000" d="
  M 344.75 262.54
  L 344.57 267.60
  A 1.55 1.53 0.4 0 1 343.05 269.08
  L 338.30 269.20
  A 0.62 0.50 89.1 0 0 337.82 269.82
  L 337.44 300.00
  L 329.44 300.00
  L 329.26 270.21
  A 1.30 1.28 87.2 0 0 327.86 268.92
  Q 324.56 269.22 323.79 268.98
  Q 321.51 268.27 319.94 270.08
  Q 317.16 273.31 315.04 269.93
  Q 313.82 267.98 311.53 268.08
  Q 309.75 268.16 309.33 270.02
  A 1.12 0.98 34.5 0 0 309.55 270.89
  C 313.74 276.11 322.92 280.47 323.79 288.00
  Q 324.74 296.22 317.69 300.00
  L 305.44 300.00
  Q 301.38 297.80 299.25 293.57
  A 1.16 1.06 62.4 0 1 299.64 292.09
  L 304.90 289.22
  A 1.60 1.50 62.5 0 1 307.01 289.96
  Q 308.43 292.82 311.52 293.85
  A 1.42 1.38 -45.9 0 0 312.48 293.82
  Q 318.10 291.62 313.14 287.37
  C 309.55 284.30 303.85 279.79 301.90 275.85
  C 299.58 271.19 300.81 265.84 305.07 262.85
  C 310.09 259.33 317.65 260.86 321.83 265.18
  Q 323.20 266.59 322.62 263.23
  A 1.00 0.99 84.8 0 1 323.59 262.06
  C 327.48 262.01 341.76 260.95 344.75 262.54
  Z"
/>
<path fill="#000000" d="
  M 450.69 300.00
  L 435.19 300.00
  C 415.10 291.64 419.35 262.15 442.02 261.01
  Q 451.17 260.55 459.05 267.11
  Q 460.68 268.47 459.05 270.00
  L 456.27 272.60
  Q 454.68 274.09 453.12 272.82
  Q 440.96 262.93 432.56 274.31
  Q 430.22 277.49 431.22 282.96
  C 433.31 294.45 445.09 297.56 452.86 289.17
  Q 454.30 287.62 455.67 289.05
  L 459.30 292.84
  A 1.42 1.32 -42.3 0 1 459.13 294.82
  Q 455.05 298.36 450.69 300.00
  Z"
/>
<path fill="#000000" d="
  M 487.69 300.00
  L 473.44 300.00
  C 462.42 295.76 457.12 282.93 462.16 272.44
  C 469.17 257.86 489.76 256.85 497.99 270.84
  C 504.27 281.49 499.31 295.31 487.69 300.00
  Z
  M 480.6720 293.8395
  A 12.84 11.52 89.5 0 0 492.0796 280.8995
  A 12.84 11.52 89.5 0 0 480.4480 268.1605
  A 12.84 11.52 89.5 0 0 469.0404 281.1005
  A 12.84 11.52 89.5 0 0 480.6720 293.8395
  Z"
/>
<path fill="#000000" d="
  M 133.94 300.00
  L 125.94 300.00
  Q 125.58 285.77 125.94 263.31
  Q 125.94 262.88 125.70 262.80
  A 0.55 0.35 -70.0 0 0 125.18 263.20
  L 111.69 300.00
  L 103.94 300.00
  L 90.61 263.61
  A 1.22 1.20 -9.8 0 1 91.76 262.00
  L 98.44 262.00
  A 1.05 1.01 79.7 0 1 99.40 262.69
  L 107.57 285.28
  Q 107.75 285.80 107.94 285.29
  L 116.11 263.18
  A 1.80 1.64 -78.6 0 1 117.72 262.00
  L 133.57 262.17
  A 0.54 0.52 89.4 0 1 134.08 262.69
  Q 134.61 281.35 133.94 300.00
  Z"
/>
<path fill="#000000" d="
  M 154.19 300.00
  L 138.54 300.00
  L 138.50 262.68
  A 0.68 0.68 0.0 0 1 139.18 262.00
  C 145.57 262.00 153.19 261.21 159.03 263.62
  C 174.60 270.05 172.64 297.96 154.19 300.00
  Z
  M 147.17 292.66
  C 165.41 296.12 165.38 267.69 147.41 268.97
  A 0.98 0.95 -2.3 0 0 146.51 269.92
  L 146.67 292.06
  A 0.63 0.63 -84.2 0 0 147.17 292.66
  Z"
/>
<path fill="#000000" d="
  M 194.53 279.30
  L 194.26 282.91
  L 181.38 282.99
  A 0.89 0.88 -0.3 0 0 180.50 283.87
  L 180.50 292.23
  A 0.78 0.77 0.0 0 0 181.28 293.00
  L 193.44 293.05
  A 0.65 0.63 -5.6 0 1 194.06 293.54
  Q 194.82 296.83 193.69 300.00
  L 172.57 300.00
  L 172.44 262.62
  A 0.61 0.61 89.5 0 1 173.05 262.00
  L 193.34 262.00
  A 0.91 0.91 -89.6 0 1 194.25 262.91
  L 194.25 267.77
  A 1.23 1.23 89.8 0 1 193.02 269.00
  L 181.27 269.00
  A 0.77 0.77 0.0 0 0 180.50 269.77
  L 180.50 275.01
  A 0.99 0.99 0.0 0 0 181.49 276.00
  L 193.19 276.05
  A 0.78 0.58 -3.8 0 1 193.91 276.51
  L 194.53 279.30
  Z"
/>
<path fill="#000000" d="
  M 288.86 300.02
  L 280.69 300.00
  L 280.53 284.68
  Q 280.52 283.81 280.16 283.12
  L 269.86 263.45
  A 0.96 0.93 76.1 0 1 270.68 262.04
  L 278.07 262.14
  A 0.88 0.86 76.5 0 1 278.82 262.61
  L 284.11 272.80
  Q 284.74 274.01 285.37 272.83
  L 290.75 262.69
  A 0.95 0.82 -74.6 0 1 291.50 262.19
  L 299.41 262.06
  A 0.68 0.65 -76.3 0 1 299.98 263.05
  L 289.46 283.37
  Q 289.26 283.76 289.24 284.34
  L 288.86 300.02
  Z"
/>
<path fill="#000000" d="
  M 411.71 299.96
  L 403.69 300.00
  C 403.23 298.07 399.97 280.44 399.80 280.37
  A 0.56 0.42 -71.7 0 0 399.18 280.80
  Q 396.50 290.59 392.69 300.00
  L 385.19 300.00
  L 378.80 280.68
  A 0.48 0.33 70.3 0 0 378.31 280.33
  C 378.26 280.35 375.08 298.20 374.69 300.00
  L 345.53 300.00
  L 345.25 262.54
  C 347.67 261.08 362.49 261.98 366.35 262.00
  A 0.91 0.91 0.3 0 1 367.25 262.91
  L 367.25 267.77
  A 1.23 1.23 0.0 0 1 366.02 269.00
  Q 360.83 269.00 356.11 269.00
  C 354.94 269.00 353.07 268.45 353.55 270.46
  Q 353.57 270.56 353.59 271.43
  L 353.69 275.45
  A 0.63 0.51 0.1 0 0 354.31 275.95
  L 366.32 276.00
  A 1.04 0.87 -89.7 0 1 367.19 277.05
  L 367.16 281.79
  A 1.22 1.00 -89.7 0 1 366.16 283.00
  L 354.37 283.00
  A 0.87 0.87 0.0 0 0 353.50 283.87
  L 353.50 292.13
  A 0.87 0.86 90.0 0 0 354.36 293.00
  L 366.94 292.95
  A 0.62 0.60 -86.0 0 0 367.52 292.43
  L 372.60 262.68
  A 0.67 0.59 -84.2 0 1 373.19 262.13
  L 380.75 262.19
  A 0.77 0.68 79.3 0 1 381.42 262.71
  L 388.55 284.15
  Q 389.12 285.88 389.70 284.16
  L 396.68 263.19
  A 1.63 1.44 -79.1 0 1 398.12 262.08
  L 405.19 262.23
  A 0.69 0.60 85.4 0 1 405.78 262.81
  L 411.71 299.96
  Z"
/>
<path fill="#000000" d="
  M 508.69 300.00
  L 505.19 300.00
  Q 500.99 297.46 502.67 293.66
  C 506.16 285.78 517.20 295.68 508.69 300.00
  Z"
/>
</svg>
