<?xml version="1.0" encoding="UTF-8" standalone="no"?>
<!DOCTYPE svg PUBLIC "-//W3C//DTD SVG 1.1//EN" "http://www.w3.org/Graphics/SVG/1.1/DTD/svg11.dtd">
<svg xmlns="http://www.w3.org/2000/svg" version="1.1" viewBox="0.00 0.00 600.00 263.00">
<path fill="#ee3925" d="
  M 462.03 89.58
  A 17.54 17.54 0.0 0 1 444.49 107.12
  L 400.95 107.12
  A 17.54 17.54 0.0 0 1 383.41 89.58
  L 383.41 67.02
  A 17.54 17.54 0.0 0 1 400.95 49.48
  L 444.49 49.48
  A 17.54 17.54 0.0 0 1 462.03 67.02
  L 462.03 89.58
  Z
  M 443.87 72.91
  A 9.16 9.16 0.0 0 0 434.71 63.75
  L 410.73 63.75
  A 9.16 9.16 0.0 0 0 401.57 72.91
  L 401.57 83.75
  A 9.16 9.16 0.0 0 0 410.73 92.91
  L 434.71 92.91
  A 9.16 9.16 0.0 0 0 443.87 83.75
  L 443.87 72.91
  Z"
/>
<path fill="#ee3925" d="
  M 221.02 54.04
  Q 221.37 50.25 219.57 53.52
  L 190.67 105.86
  A 1.30 1.29 14.6 0 1 189.54 106.52
  L 169.46 106.52
  A 1.27 1.26 75.7 0 1 168.35 105.86
  L 138.29 50.97
  A 0.66 0.66 0.0 0 1 139.03 50.01
  Q 140.35 50.33 142.00 50.26
  Q 144.19 50.17 156.53 50.22
  A 1.34 1.33 -13.6 0 1 157.69 50.92
  Q 168.21 70.18 178.87 89.63
  Q 179.08 90.01 179.39 90.13
  A 0.47 0.47 0.0 0 0 179.98 89.92
  L 201.43 51.08
  A 1.65 1.64 -75.5 0 1 202.87 50.23
  L 238.05 50.23
  A 0.81 0.80 90.0 0 1 238.85 51.04
  L 238.85 105.84
  A 0.69 0.68 0.0 0 1 238.16 106.52
  L 221.98 106.52
  A 1.04 1.04 0.0 0 1 220.94 105.48
  Q 220.93 95.05 220.99 56.50
  Q 220.99 54.36 221.02 54.04
  Z"
/>
<path fill="#ee3925" d="
  M 339.01 72.42
  L 379.21 72.42
  A 0.68 0.68 0.0 0 1 379.89 73.10
  L 379.86 83.69
  A 0.68 0.68 0.0 0 1 379.18 84.37
  L 339.00 84.36
  A 0.68 0.68 0.0 0 0 338.32 85.04
  L 338.35 92.10
  A 0.68 0.68 0.0 0 0 339.03 92.78
  L 382.39 92.83
  A 0.68 0.68 0.0 0 1 383.07 93.49
  L 383.36 105.82
  A 0.68 0.68 0.0 0 1 382.68 106.52
  L 321.12 106.52
  A 0.68 0.68 0.0 0 1 320.44 105.84
  L 320.44 50.94
  A 0.68 0.68 0.0 0 1 321.12 50.26
  L 381.88 50.16
  A 0.68 0.68 0.0 0 1 382.56 50.85
  L 382.41 63.43
  A 0.68 0.68 0.0 0 1 381.73 64.10
  L 339.03 64.09
  A 0.68 0.68 0.0 0 0 338.35 64.77
  L 338.33 71.74
  A 0.68 0.68 0.0 0 0 339.01 72.42
  Z"
/>
<path fill="#ee3925" d="
  M 241.76 50.94
  A 0.69 0.69 0.0 0 1 242.45 50.25
  L 300.38 50.36
  A 18.14 17.19 0.1 0 1 318.49 67.58
  L 318.45 89.48
  A 18.14 17.19 0.1 0 1 300.28 106.64
  L 242.35 106.53
  A 0.69 0.69 0.0 0 1 241.66 105.84
  L 241.76 50.94
  Z
  M 259.69 64.76
  L 259.50 92.00
  A 0.65 0.65 0.0 0 0 260.14 92.65
  L 290.76 92.86
  A 9.69 8.86 0.4 0 0 300.51 84.07
  L 300.59 73.25
  A 9.69 8.86 0.4 0 0 290.96 64.33
  L 260.34 64.11
  A 0.65 0.65 0.0 0 0 259.69 64.76
  Z"
/>
<path fill="#ee3925" d="
  M 0.00 152.23
  L 0.00 127.15
  Q 1.47 114.55 13.25 111.78
  Q 18.35 110.59 23.50 110.54
  Q 35.03 110.45 46.75 110.62
  Q 54.26 110.73 57.91 111.35
  C 68.63 113.16 71.03 121.48 70.22 130.99
  A 0.54 0.54 0.0 0 1 69.68 131.49
  L 53.99 131.49
  A 0.66 0.65 -3.5 0 1 53.34 130.92
  Q 52.62 125.06 46.49 124.77
  Q 36.68 124.31 25.26 124.93
  Q 20.55 125.19 18.58 128.50
  Q 17.45 130.39 17.31 135.22
  Q 17.04 144.38 17.83 148.10
  Q 18.87 152.94 24.65 153.47
  Q 36.67 154.55 47.33 153.47
  Q 53.72 152.82 53.71 146.19
  A 0.56 0.56 0.0 0 1 54.27 145.63
  L 70.21 145.63
  A 0.58 0.57 87.2 0 1 70.78 146.16
  C 71.40 153.40 70.77 161.34 64.03 165.32
  Q 61.00 167.12 52.99 167.55
  C 40.54 168.21 30.34 168.86 19.14 167.93
  Q 11.28 167.28 7.75 165.15
  Q 1.39 161.30 0.00 152.23
  Z"
/>
<path fill="#ee3925" d="
  M 148.9484 151.3102
  A 16.81 16.81 0.0 0 1 132.0798 168.0615
  L 91.0400 167.9182
  A 16.81 16.81 0.0 0 1 74.2888 151.0496
  L 74.3716 127.3298
  A 16.81 16.81 0.0 0 1 91.2402 110.5785
  L 132.2800 110.7218
  A 16.81 16.81 0.0 0 1 149.0312 127.5904
  L 148.9484 151.3102
  Z
  M 131.81 133.73
  A 9.00 9.00 0.0 0 0 122.81 124.73
  L 100.57 124.73
  A 9.00 9.00 0.0 0 0 91.57 133.73
  L 91.57 144.83
  A 9.00 9.00 0.0 0 0 100.57 153.83
  L 122.81 153.83
  A 9.00 9.00 0.0 0 0 131.81 144.83
  L 131.81 133.73
  Z"
/>
<path fill="#ee3925" d="
  M 201.35 145.87
  Q 201.54 145.87 201.66 145.66
  Q 211.74 128.91 222.07 111.93
  A 1.37 1.35 -74.1 0 1 223.23 111.27
  L 248.06 111.27
  A 0.80 0.79 90.0 0 1 248.85 112.07
  L 248.85 167.02
  A 0.38 0.38 0.0 0 1 248.47 167.40
  L 231.95 167.40
  Q 231.36 167.40 231.36 166.81
  L 231.36 128.73
  A 0.33 0.33 0.0 0 0 230.75 128.56
  L 207.89 166.38
  Q 207.44 167.13 206.56 167.20
  Q 204.10 167.40 201.33 167.39
  Q 198.57 167.40 196.11 167.19
  Q 195.23 167.12 194.78 166.37
  L 171.97 128.52
  A 0.33 0.33 0.0 0 0 171.36 128.69
  L 171.31 166.77
  Q 171.31 167.36 170.72 167.36
  L 154.20 167.34
  A 0.38 0.38 0.0 0 1 153.82 166.96
  L 153.89 112.01
  A 0.80 0.79 -89.9 0 1 154.68 111.21
  L 179.51 111.24
  A 1.37 1.35 74.2 0 1 180.67 111.90
  Q 190.98 128.90 201.04 145.66
  Q 201.16 145.87 201.35 145.87
  Z"
/>
<path fill="#ee3925" d="
  M 270.13 154.41
  L 270.13 166.56
  Q 270.13 167.39 269.30 167.39
  L 253.71 167.39
  A 0.67 0.67 0.0 0 1 253.04 166.72
  L 253.04 111.99
  Q 253.04 111.35 253.68 111.34
  Q 279.28 110.93 304.53 111.49
  Q 317.43 111.77 320.04 123.73
  Q 321.29 129.43 320.85 136.51
  Q 320.36 144.19 317.24 148.28
  C 313.06 153.75 307.60 153.29 299.93 153.38
  Q 285.56 153.55 271.10 153.44
  A 0.97 0.96 -89.7 0 0 270.13 154.41
  Z
  M 270.12 125.91
  L 270.14 138.87
  A 0.56 0.56 0.0 0 0 270.70 139.43
  L 297.92 139.38
  A 5.70 5.47 -0.1 0 0 303.61 133.90
  L 303.61 130.76
  A 5.70 5.47 -0.1 0 0 297.90 125.30
  L 270.68 125.35
  A 0.56 0.56 0.0 0 0 270.12 125.91
  Z"
/>
<path fill="#ee3925" d="
  M 358.09 154.08
  Q 365.51 154.09 369.28 153.65
  Q 376.17 152.85 376.26 145.07
  Q 376.47 127.56 376.35 112.00
  A 0.72 0.72 0.0 0 1 377.07 111.27
  L 393.04 111.27
  A 0.92 0.91 90.0 0 1 393.95 112.19
  Q 393.89 145.64 393.77 152.47
  Q 393.63 160.34 387.11 164.66
  C 382.95 167.41 375.39 167.90 370.24 168.05
  Q 365.99 168.17 358.08 168.16
  Q 350.16 168.15 345.91 168.02
  C 340.76 167.86 333.20 167.36 329.05 164.60
  Q 322.54 160.26 322.42 152.39
  Q 322.31 145.56 322.32 112.11
  A 0.92 0.91 -89.9 0 1 323.23 111.19
  L 339.20 111.23
  A 0.72 0.72 0.0 0 1 339.92 111.96
  Q 339.77 127.52 339.94 145.03
  Q 340.01 152.81 346.90 153.63
  Q 350.67 154.07 358.09 154.08
  Z"
/>
<path fill="#ee3925" d="
  M 429.73 111.22
  Q 449.76 111.22 460.62 111.23
  A 0.77 0.77 0.0 0 1 461.39 112.00
  L 461.39 124.21
  A 0.86 0.86 0.0 0 1 460.53 125.07
  L 438.81 125.07
  A 0.61 0.61 0.0 0 0 438.20 125.68
  L 438.20 166.71
  A 0.52 0.52 0.0 0 1 437.71 167.23
  Q 434.31 167.39 429.72 167.39
  Q 425.13 167.39 421.73 167.23
  A 0.52 0.52 0.0 0 1 421.24 166.71
  L 421.25 125.68
  A 0.61 0.61 0.0 0 0 420.64 125.07
  L 398.92 125.06
  A 0.86 0.86 0.0 0 1 398.06 124.20
  L 398.06 111.99
  A 0.77 0.77 0.0 0 1 398.83 111.22
  Q 409.69 111.22 429.73 111.22
  Z"
/>
<path fill="#ee3925" d="
  M 524.37 139.26
  Q 524.37 141.90 524.27 144.68
  A 0.56 0.56 0.0 0 1 523.71 145.22
  L 482.98 145.22
  A 0.61 0.60 -90.0 0 0 482.38 145.83
  L 482.38 153.07
  Q 482.38 153.68 482.98 153.68
  L 526.85 153.68
  A 0.42 0.41 -90.0 0 1 527.26 154.10
  L 527.26 167.00
  A 0.39 0.38 -0.0 0 1 526.87 167.38
  L 466.47 167.38
  A 0.75 0.74 -0.4 0 1 465.72 166.65
  Q 465.50 153.08 465.47 139.39
  Q 465.44 125.70 465.60 112.12
  A 0.75 0.74 0.1 0 1 466.35 111.39
  L 526.75 111.13
  A 0.39 0.38 -0.2 0 1 527.14 111.51
  L 527.20 124.41
  A 0.42 0.41 89.8 0 1 526.79 124.83
  L 482.92 125.02
  Q 482.32 125.02 482.32 125.63
  L 482.35 132.87
  A 0.61 0.60 89.8 0 0 482.95 133.48
  L 523.68 133.30
  A 0.56 0.56 0.0 0 1 524.25 133.84
  Q 524.36 136.62 524.37 139.26
  Z"
/>
<path fill="#ee3925" d="
  M 600.00 124.55
  L 600.00 134.46
  Q 598.92 142.07 592.71 144.81
  Q 591.45 145.36 592.74 145.82
  Q 596.94 147.33 598.79 151.37
  Q 599.66 153.28 599.65 158.84
  Q 599.65 164.70 599.64 166.74
  A 0.65 0.65 0.0 0 1 598.99 167.39
  L 583.58 167.39
  Q 582.76 167.39 582.72 166.57
  Q 582.62 164.47 582.68 159.67
  Q 582.72 156.56 581.88 155.36
  Q 580.44 153.30 577.29 153.24
  Q 565.43 153.05 548.92 153.20
  A 0.76 0.76 0.0 0 0 548.16 153.96
  L 548.16 166.98
  A 0.40 0.40 0.0 0 1 547.76 167.38
  L 531.75 167.38
  A 0.61 0.61 0.0 0 1 531.14 166.77
  L 531.14 111.98
  A 0.67 0.67 0.0 0 1 531.81 111.31
  Q 552.64 111.31 580.51 111.19
  C 584.77 111.17 591.25 112.09 594.62 114.63
  Q 599.09 118.00 600.00 124.55
  Z
  M 548.22 126.46
  L 548.24 137.80
  A 1.12 1.12 0.0 0 0 549.36 138.92
  L 577.24 138.87
  A 5.48 5.41 -0.1 0 0 582.71 133.45
  L 582.71 130.69
  A 5.48 5.41 -0.1 0 0 577.22 125.29
  L 549.34 125.34
  A 1.12 1.12 0.0 0 0 548.22 126.46
  Z"
/>
<path fill="#000000" d="
  M 191.74 205.35
  Q 191.95 205.34 192.01 205.24
  Q 200.54 189.22 208.04 175.14
  Q 208.57 174.14 209.69 174.14
  L 212.46 174.14
  Q 213.60 174.14 213.09 175.16
  L 195.69 209.43
  A 1.49 1.48 11.4 0 1 194.47 210.24
  Q 193.27 210.32 191.77 210.33
  Q 190.26 210.33 189.06 210.26
  A 1.49 1.48 -11.9 0 1 187.83 209.47
  L 170.12 175.35
  Q 169.60 174.34 170.74 174.33
  L 173.51 174.30
  Q 174.63 174.29 175.17 175.29
  Q 182.80 189.30 191.48 205.24
  Q 191.54 205.34 191.74 205.35
  Z"
/>
<path fill="#000000" d="
  M 215.67 192.42
  Q 215.69 198.72 216.42 202.28
  C 216.87 204.42 218.12 205.23 220.32 205.48
  Q 231.88 206.78 244.26 205.39
  C 248.13 204.96 247.90 202.13 247.84 199.06
  Q 247.82 198.12 248.76 198.12
  L 251.79 198.12
  Q 252.56 198.12 252.59 198.88
  C 252.79 203.16 252.33 207.72 247.68 209.38
  Q 244.13 210.65 239.76 210.59
  Q 225.35 210.39 220.01 210.07
  Q 212.82 209.65 211.34 202.72
  Q 210.66 199.52 210.64 192.43
  Q 210.61 185.35 211.27 182.14
  Q 212.70 175.20 219.88 174.73
  Q 225.22 174.37 239.63 174.07
  Q 244.00 173.98 247.56 175.22
  C 252.22 176.85 252.71 181.41 252.54 185.69
  Q 252.52 186.45 251.75 186.46
  L 248.72 186.48
  Q 247.78 186.48 247.79 185.54
  C 247.83 182.47 248.04 179.64 244.17 179.24
  Q 231.78 177.94 220.23 179.32
  C 218.03 179.59 216.78 180.41 216.35 182.55
  Q 215.64 186.11 215.67 192.42
  Z"
/>
<path fill="#000000" d="
  M 298.62 198.55
  L 301.86 198.55
  Q 302.93 198.55 302.93 199.61
  L 302.93 201.70
  Q 302.93 202.78 301.85 202.78
  L 298.78 202.78
  A 0.87 0.87 0.0 0 0 297.91 203.65
  L 297.91 209.34
  Q 297.91 210.34 296.91 210.34
  L 294.43 210.34
  Q 293.53 210.34 293.53 209.45
  L 293.53 203.65
  A 0.87 0.87 0.0 0 0 292.66 202.78
  L 264.14 202.78
  A 0.65 0.64 -90.0 0 1 263.50 202.13
  L 263.50 197.70
  Q 263.50 197.19 263.89 196.86
  Q 284.26 179.89 290.07 175.06
  C 291.74 173.68 295.40 174.21 297.42 174.37
  A 0.59 0.58 -87.9 0 1 297.96 174.96
  L 297.96 197.88
  Q 297.96 198.55 298.62 198.55
  Z
  M 293.56 179.50
  A 0.47 0.47 0.0 0 0 292.79 179.13
  L 269.81 197.82
  A 0.47 0.47 0.0 0 0 270.11 198.65
  L 293.05 198.52
  A 0.47 0.47 0.0 0 0 293.52 198.05
  L 293.56 179.50
  Z"
/>
<path fill="#000000" d="
  M 344.6564 200.6654
  A 9.70 9.70 0.0 0 1 334.9058 210.3145
  L 314.0061 210.2050
  A 9.70 9.70 0.0 0 1 304.3570 200.4544
  L 304.4436 183.9146
  A 9.70 9.70 0.0 0 1 314.1942 174.2655
  L 335.0939 174.3750
  A 9.70 9.70 0.0 0 1 344.7430 184.1256
  L 344.6564 200.6654
  Z
  M 339.9235 184.6363
  A 6.09 6.09 0.0 0 0 333.8123 178.5676
  L 315.1724 178.6326
  A 6.09 6.09 0.0 0 0 309.1037 184.7438
  L 309.1565 199.8637
  A 6.09 6.09 0.0 0 0 315.2677 205.9324
  L 333.9076 205.8674
  A 6.09 6.09 0.0 0 0 339.9763 199.7562
  L 339.9235 184.6363
  Z"
/>
<path fill="#000000" d="
  M 387.2356 200.5452
  A 9.74 9.74 0.0 0 1 377.4786 210.2682
  L 356.5787 210.2317
  A 9.74 9.74 0.0 0 1 346.8557 200.4747
  L 346.8844 184.0348
  A 9.74 9.74 0.0 0 1 356.6414 174.3118
  L 377.5413 174.3483
  A 9.74 9.74 0.0 0 1 387.2643 184.1053
  L 387.2356 200.5452
  Z
  M 382.5430 184.8270
  A 6.19 6.19 0.0 0 0 376.3638 178.6262
  L 357.8038 178.5938
  A 6.19 6.19 0.0 0 0 351.6030 184.7730
  L 351.5770 199.6930
  A 6.19 6.19 0.0 0 0 357.7562 205.8938
  L 376.3162 205.9262
  A 6.19 6.19 0.0 0 0 382.5170 199.7470
  L 382.5430 184.8270
  Z"
/>
<path fill="#000000" d="
  M 430.2113 200.5704
  A 9.77 9.77 0.0 0 1 420.4072 210.3063
  L 399.5673 210.2335
  A 9.77 9.77 0.0 0 1 389.8315 200.4295
  L 389.8887 184.0296
  A 9.77 9.77 0.0 0 1 399.6928 174.2937
  L 420.5327 174.3665
  A 9.77 9.77 0.0 0 1 430.2685 184.1705
  L 430.2113 200.5704
  Z
  M 425.4738 184.7161
  A 6.17 6.17 0.0 0 0 419.2823 178.5677
  L 400.7024 178.6325
  A 6.17 6.17 0.0 0 0 394.5539 184.8240
  L 394.6062 199.8039
  A 6.17 6.17 0.0 0 0 400.7977 205.9523
  L 419.3776 205.8875
  A 6.17 6.17 0.0 0 0 425.5261 199.6960
  L 425.4738 184.7161
  Z"
/>
</svg>
