<?xml version="1.0" encoding="UTF-8" standalone="no"?>
<!DOCTYPE svg PUBLIC "-//W3C//DTD SVG 1.1//EN" "http://www.w3.org/Graphics/SVG/1.1/DTD/svg11.dtd">
<svg xmlns="http://www.w3.org/2000/svg" version="1.1" viewBox="0 0 600 300">
<path fill="#166cd1" d="
  M 98.50 78.53
  C 140.50 80.75 177.65 108.15 184.56 151.19
  C 188.52 175.82 174.69 202.74 156.50 218.00
  C 122.50 246.52 72.68 248.02 36.06 223.69
  C -10.12 193.00 -11.74 130.94 32.67 97.86
  Q 61.27 76.55 98.50 78.53
  Z
  M 148.22 122.12
  C 140.61 115.32 133.50 107.48 126.26 100.26
  C 124.83 98.83 123.58 96.11 121.32 98.66
  C 118.19 102.21 114.63 105.47 111.35 108.89
  A 0.51 0.49 -45.4 0 1 110.64 108.91
  L 99.97 98.34
  A 1.71 1.71 0.0 0 0 97.55 98.32
  L 86.99 108.89
  A 0.69 0.69 -44.7 0 1 86.02 108.89
  L 74.67 97.43
  A 0.96 0.91 45.2 0 0 73.34 97.39
  L 61.55 108.99
  A 0.67 0.66 45.3 0 1 60.61 108.98
  L 49.91 98.15
  A 1.05 1.00 -44.8 0 0 48.45 98.18
  L 36.43 110.20
  A 1.48 1.46 -44.9 0 0 36.41 112.29
  L 58.74 134.85
  A 1.10 1.08 -44.6 0 0 60.28 134.85
  L 71.52 123.61
  A 0.70 0.69 45.0 0 1 72.51 123.62
  L 84.38 135.52
  A 1.73 1.66 -45.0 0 0 86.79 135.47
  L 98.17 123.96
  A 0.74 0.72 44.7 0 1 99.21 123.97
  L 110.21 134.97
  A 1.05 1.03 -45.2 0 0 111.68 134.95
  L 122.56 124.06
  A 0.64 0.62 45.0 0 1 123.45 124.07
  L 135.64 136.15
  A 0.53 0.52 45.4 0 0 136.38 136.16
  L 148.31 124.54
  A 1.68 1.63 43.7 0 0 148.22 122.12
  Z
  M 87.17 177.99
  C 90.67 175.05 93.80 171.37 97.17 167.94
  A 0.98 0.98 -44.8 0 1 98.56 167.94
  Q 103.31 172.69 108.31 177.69
  C 111.06 180.43 111.60 178.66 113.55 176.88
  Q 118.10 172.72 122.63 167.70
  A 1.14 1.14 -46.7 0 1 124.28 167.65
  Q 129.31 172.69 134.31 177.69
  Q 136.71 180.08 138.80 177.77
  C 141.61 174.65 144.76 171.83 147.71 168.64
  A 1.07 1.07 -46.1 0 1 149.24 168.61
  L 158.24 177.61
  Q 159.64 179.01 161.00 177.67
  L 171.37 167.48
  A 1.78 1.77 45.5 0 0 171.38 164.97
  L 148.79 142.14
  Q 147.03 140.35 145.21 142.17
  L 135.09 152.29
  A 0.79 0.77 45.3 0 1 133.98 152.27
  L 125.49 143.74
  Q 123.72 141.96 121.79 143.87
  L 112.62 152.91
  A 0.52 0.48 45.0 0 1 111.91 152.88
  L 100.42 141.55
  A 1.51 1.51 0.0 0 0 98.30 141.55
  L 87.35 152.38
  A 0.52 0.50 -45.8 0 1 86.64 152.41
  Q 81.83 147.81 77.19 143.06
  Q 74.59 140.41 72.01 143.01
  Q 66.96 148.08 62.38 152.85
  A 1.05 1.00 44.4 0 1 60.91 152.83
  L 49.17 141.05
  A 1.52 1.49 -44.5 0 0 47.05 141.05
  L 36.82 151.08
  A 1.07 1.06 -44.2 0 1 35.31 151.07
  L 25.66 141.27
  Q 23.72 139.31 21.73 141.27
  L 11.08 151.79
  Q 9.27 153.58 11.14 155.31
  Q 22.99 166.26 34.43 176.59
  C 36.02 178.02 37.19 179.21 39.16 177.16
  Q 43.31 172.81 47.95 168.18
  A 0.83 0.79 44.2 0 1 49.09 168.19
  L 60.29 179.17
  A 0.86 0.84 -42.8 0 0 61.42 179.20
  Q 67.71 173.97 73.19 167.66
  A 0.93 0.90 42.9 0 1 74.52 167.63
  L 85.07 177.95
  A 1.59 1.54 -42.9 0 0 87.17 177.99
  Z
  M 98.07 210.05
  A 0.68 0.66 -45.3 0 1 99.02 210.03
  L 109.78 220.63
  A 1.78 1.76 -45.1 0 0 112.27 220.61
  L 122.64 210.24
  A 0.51 0.51 -0.0 0 1 123.36 210.24
  L 135.01 221.88
  A 1.58 1.57 44.9 0 0 137.24 221.88
  L 148.34 210.79
  A 1.65 1.65 45.1 0 0 148.34 208.46
  L 124.02 184.15
  A 1.16 1.12 45.2 0 0 122.40 184.12
  L 111.46 195.07
  A 0.71 0.70 -45.6 0 1 110.46 195.09
  L 99.40 184.03
  A 0.92 0.92 90.0 0 0 98.10 184.03
  L 87.20 194.93
  A 1.00 1.00 46.9 0 1 85.75 194.88
  Q 80.30 188.73 74.18 183.39
  A 0.54 0.54 43.4 0 0 73.44 183.41
  L 61.54 195.10
  A 0.67 0.67 0.0 0 1 60.60 195.10
  L 50.18 184.57
  A 1.42 1.41 -45.0 0 0 48.17 184.58
  L 36.34 196.54
  A 1.36 1.34 -45.2 0 0 36.33 198.44
  L 58.85 221.22
  A 0.94 0.92 -44.3 0 0 60.16 221.22
  L 71.64 209.85
  A 0.51 0.51 -90.0 0 1 72.36 209.85
  L 84.85 222.22
  A 0.91 0.88 44.8 0 0 86.12 222.24
  L 98.07 210.05
  Z"
/>
<path fill="#000000" d="
  M 279.46 169.05
  Q 275.80 186.11 271.99 203.14
  C 270.79 208.52 271.11 208.40 265.72 208.53
  Q 260.55 208.65 256.03 208.31
  Q 253.57 208.12 254.14 205.73
  Q 265.11 159.19 276.19 113.19
  C 277.20 109.00 279.12 110.00 282.26 110.00
  C 289.45 110.00 296.97 110.39 304.11 109.88
  Q 307.54 109.64 308.50 113.50
  Q 320.08 160.17 330.75 205.92
  Q 331.36 208.52 328.77 208.49
  L 315.78 208.29
  Q 313.94 208.26 313.52 206.33
  L 305.39 169.26
  A 1.26 1.21 83.2 0 0 304.19 168.27
  L 280.07 168.54
  A 0.65 0.63 -84.2 0 0 279.46 169.05
  Z
  M 283.54 150.03
  A 1.00 1.00 -84.9 0 0 284.51 151.24
  L 300.24 151.27
  A 1.00 1.00 -6.1 0 0 301.22 150.06
  L 293.42 113.89
  A 1.00 1.00 35.5 0 0 291.46 113.88
  L 283.54 150.03
  Z"
/>
<path fill="#000000" d="
  M 467.56 159.19
  C 468.32 139.34 474.69 112.56 498.95 109.92
  C 513.83 108.31 525.70 118.40 529.66 132.53
  Q 531.90 140.55 531.25 145.50
  C 530.68 149.86 522.25 148.51 519.00 148.53
  Q 515.37 148.56 515.20 144.99
  C 514.82 137.36 514.14 126.85 504.80 124.71
  C 494.13 122.27 488.11 132.03 486.58 141.26
  C 484.63 152.95 480.58 192.02 498.83 194.76
  C 512.63 196.83 514.99 182.49 515.01 171.68
  C 515.02 168.55 516.19 167.33 519.25 167.25
  Q 527.72 167.02 529.25 167.50
  C 532.59 168.55 531.54 170.57 531.49 173.05
  C 531.10 189.74 523.12 206.92 504.67 209.54
  Q 498.11 210.47 491.13 207.65
  C 471.13 199.59 466.81 178.83 467.56 159.19
  Z"
/>
<path fill="#000000" d="
  M 545.69 119.69
  C 555.97 108.68 572.74 106.10 584.92 115.20
  C 602.16 128.07 600.24 156.50 598.50 175.50
  Q 597.47 186.72 593.35 194.33
  C 586.29 207.38 570.59 213.50 556.72 207.56
  C 535.15 198.32 534.50 171.07 535.50 151.25
  C 536.04 140.59 538.26 127.64 545.69 119.69
  Z
  M 569.25 124.50
  C 550.42 122.24 552.11 155.66 552.66 166.15
  C 553.10 174.47 553.06 183.65 558.19 190.06
  C 565.60 199.34 577.85 194.76 580.25 184.25
  Q 584.24 166.76 582.05 146.79
  C 581.09 138.05 580.14 125.81 569.25 124.50
  Z"
/>
<path fill="#000000" d="
  M 253.24 176.50
  C 253.21 193.52 244.85 208.53 226.43 209.73
  C 210.99 210.73 198.16 201.05 195.66 185.31
  C 194.98 181.03 195.25 175.64 195.25 170.99
  Q 195.25 168.25 197.99 168.25
  C 202.49 168.25 212.82 165.93 211.75 173.50
  C 210.65 181.35 212.12 193.53 222.61 194.00
  C 234.66 194.54 236.51 186.91 236.51 176.50
  Q 236.50 145.75 236.50 115.00
  C 236.50 109.16 243.54 110.76 247.24 110.75
  C 250.68 110.74 253.18 110.66 253.19 115.04
  Q 253.30 145.77 253.24 176.50
  Z"
/>
<path fill="#000000" d="
  M 336.92 112.96
  C 338.83 109.49 346.30 110.75 349.77 110.75
  Q 353.19 110.75 353.19 114.16
  L 353.25 193.42
  A 0.51 0.51 -0.6 0 0 353.77 193.93
  Q 371.66 193.62 389.75 193.75
  Q 394.06 193.78 396.48 194.84
  A 1.08 1.02 -86.5 0 1 397.07 195.55
  Q 398.54 201.00 397.31 206.57
  A 2.17 2.17 5.0 0 1 395.28 208.27
  Q 369.30 209.26 342.86 208.53
  C 338.44 208.41 336.50 208.80 336.50 203.47
  Q 336.50 159.95 336.50 114.62
  Q 336.50 113.74 336.92 112.96
  Z"
/>
<path fill="#000000" d="
  M 404.72 112.40
  Q 405.76 110.91 407.75 110.90
  Q 432.38 110.75 457.00 110.72
  Q 461.04 110.71 461.02 114.75
  C 460.99 119.05 462.93 125.50 456.45 125.50
  Q 439.11 125.50 421.93 125.50
  A 1.19 1.19 88.4 0 0 420.74 126.76
  Q 421.31 137.62 420.72 148.83
  A 1.35 1.35 -88.6 0 0 422.07 150.25
  Q 437.63 150.25 452.55 150.25
  C 455.48 150.25 457.62 150.00 457.73 153.75
  Q 457.83 157.37 457.98 160.99
  C 458.16 165.17 455.24 164.75 451.86 164.75
  Q 436.68 164.75 421.49 164.75
  A 0.67 0.66 -1.2 0 0 420.82 165.44
  Q 421.29 179.03 420.74 192.91
  A 0.98 0.98 -89.4 0 0 421.74 193.93
  Q 437.28 193.63 453.25 193.61
  Q 457.40 193.61 461.52 194.25
  Q 463.52 194.57 463.76 196.58
  Q 464.35 201.50 463.75 206.48
  Q 463.51 208.47 461.52 208.50
  Q 435.25 208.93 409.00 208.75
  C 403.06 208.71 404.00 205.38 404.00 200.46
  Q 404.00 158.08 404.00 114.65
  A 3.88 3.88 -27.3 0 1 404.72 112.40
  Z"
/>
</svg>
