<?xml version="1.0" encoding="UTF-8" standalone="no"?>
<!DOCTYPE svg PUBLIC "-//W3C//DTD SVG 1.1//EN" "http://www.w3.org/Graphics/SVG/1.1/DTD/svg11.dtd">
<svg xmlns="http://www.w3.org/2000/svg" version="1.1" viewBox="0 0 600 300">
<g stroke-width="2.00" fill="none" stroke-linecap="butt">
<path stroke="#000000" vector-effect="non-scaling-stroke" d="
  M 324.00 76.96
  Q 323.78 77.00 323.75 77.21"
/>
<path stroke="#000000" vector-effect="non-scaling-stroke" d="
  M 323.75 181.21
  L 324.00 181.29"
/>
<path stroke="#000000" vector-effect="non-scaling-stroke" d="
  M 142.04 145.25
  Q 142.25 145.21 142.29 145.00"
/>
<path stroke="#000000" vector-effect="non-scaling-stroke" d="
  M 272.54 97.75
  Q 273.14 98.52 273.04 99.50"
/>
<path stroke="#000000" vector-effect="non-scaling-stroke" d="
  M 273.71 99.50
  L 273.29 97.50"
/>
<path stroke="#000000" vector-effect="non-scaling-stroke" d="
  M 142.25 79.04
  L 142.00 78.96"
/>
<path stroke="#000000" vector-effect="non-scaling-stroke" d="
  M 142.04 112.00
  L 141.75 113.46"
/>
<path stroke="#000000" vector-effect="non-scaling-stroke" d="
  M 141.96 128.00
  L 142.04 128.25"
/>
<path stroke="#000000" vector-effect="non-scaling-stroke" d="
  M 324.00 162.85
  L 323.96 163.25"
/>
<path stroke="#000000" vector-effect="non-scaling-stroke" d="
  M 142.29 114.25
  L 142.71 112.00"
/>
</g>
<path fill="#000000" d="
  M 456.04 86.50
  Q 455.96 87.33 455.06 86.69
  C 440.78 76.40 422.52 75.40 405.29 79.25
  C 405.22 70.87 407.84 52.17 399.31 46.94
  C 391.43 42.10 379.35 40.05 370.19 38.70
  C 359.03 37.05 348.59 38.80 337.75 41.50
  C 320.10 45.90 323.99 62.24 324.00 76.96
  Q 323.78 77.00 323.75 77.21
  C 292.20 79.07 272.42 100.65 274.51 132.00
  C 276.36 159.75 295.65 177.55 323.75 181.21
  L 324.00 181.29
  L 323.94 191.32
  A 0.51 0.49 1.1 0 0 324.44 191.82
  L 404.11 192.00
  A 1.10 1.05 -0.5 0 0 405.21 190.93
  L 405.00 179.75
  C 422.17 183.98 441.60 182.32 456.00 171.50
  L 455.82 191.40
  A 0.60 0.59 90.0 0 0 456.41 192.00
  Q 490.75 192.00 524.25 192.00
  C 555.47 192.00 558.92 234.29 530.28 239.52
  Q 527.66 240.00 516.20 240.00
  Q 486.47 240.00 456.70 240.00
  A 0.68 0.68 -88.7 0 0 456.02 240.65
  C 455.62 251.87 463.58 257.80 473.41 259.94
  Q 488.91 263.32 505.80 264.31
  A 0.74 0.73 2.0 0 1 506.50 265.05
  L 506.45 276.25
  A 0.77 0.76 0.4 0 1 505.68 277.00
  L 92.41 277.00
  A 0.66 0.66 89.8 0 1 91.75 276.34
  L 91.75 265.03
  A 0.79 0.79 -1.1 0 1 92.51 264.24
  Q 106.78 263.62 121.24 262.17
  C 134.17 260.88 143.12 255.02 142.27 240.82
  A 0.87 0.87 88.3 0 0 141.40 240.00
  Q 107.75 240.00 74.75 239.92
  C 45.08 239.84 41.06 198.07 69.42 192.52
  Q 72.08 192.00 84.12 192.00
  Q 112.70 192.00 141.36 192.00
  A 0.88 0.87 -0.3 0 0 142.24 191.12
  L 142.04 145.25
  Q 142.25 145.21 142.29 145.00
  L 159.74 145.00
  A 1.42 1.42 80.0 0 1 161.07 145.93
  L 169.25 168.25
  A 1.96 1.18 -12.1 0 1 167.44 169.94
  L 164.96 170.33
  A 0.68 0.54 86.7 0 0 164.50 170.99
  C 164.48 174.10 163.17 180.00 168.00 180.04
  Q 180.15 180.14 192.30 179.83
  A 0.56 0.54 0.5 0 0 192.84 179.32
  Q 193.27 172.99 193.00 170.25
  Q 192.55 165.58 194.06 167.93
  C 196.17 171.19 199.22 170.30 199.27 166.53
  Q 199.68 129.64 199.56 92.75
  Q 199.55 88.72 195.43 88.95
  A 1.35 1.34 86.8 0 1 194.02 87.68
  C 193.79 83.67 192.86 78.67 198.43 78.90
  C 220.18 79.81 236.81 78.55 247.50 79.50
  C 258.12 80.44 269.29 87.02 272.54 97.75
  Q 273.14 98.52 273.04 99.50
  Q 272.97 108.38 273.21 117.24
  Q 273.30 120.69 273.87 117.23
  Q 275.34 108.35 273.71 99.50
  L 273.29 97.50
  Q 273.22 81.25 273.48 65.00
  C 273.64 54.51 272.39 48.31 262.03 44.48
  C 251.11 40.44 235.65 37.07 225.25 38.25
  Q 215.19 39.39 206.53 41.61
  C 192.26 45.25 193.05 54.50 192.89 68.24
  C 192.51 100.38 193.00 132.61 193.00 164.77
  Q 193.00 166.80 192.28 164.90
  L 159.99 79.71
  A 1.10 1.10 -10.4 0 0 158.96 79.00
  L 142.25 79.04
  L 142.00 78.96
  Q 142.44 69.11 142.25 59.25
  C 142.04 48.88 136.13 45.77 126.64 43.03
  Q 109.92 38.21 92.50 36.79
  A 0.58 0.55 1.8 0 1 91.96 36.25
  L 91.79 24.69
  A 0.72 0.68 -0.4 0 1 92.51 24.00
  L 505.58 24.00
  A 0.92 0.92 -0.6 0 1 506.50 24.92
  L 506.50 36.00
  A 0.76 0.75 88.8 0 1 505.78 36.76
  Q 489.62 37.54 473.50 40.50
  C 466.63 41.76 460.00 44.45 457.29 51.18
  Q 456.00 54.40 455.99 63.49
  Q 455.98 75.00 456.04 86.50
  Z
  M 247.56 97.69
  C 240.35 93.07 231.13 93.85 222.81 94.05
  A 0.51 0.51 -0.6 0 0 222.31 94.56
  L 222.25 135.47
  A 0.51 0.51 -9.7 0 0 222.93 135.95
  C 232.06 132.72 244.85 126.94 249.61 119.29
  C 252.87 114.06 254.34 102.03 247.56 97.69
  Z
  M 226.65 170.15
  A 1.61 1.61 2.0 0 1 227.95 171.54
  C 228.56 176.45 228.76 180.00 222.64 180.00
  Q 208.41 180.00 193.68 180.00
  A 0.68 0.68 -89.1 0 0 193.00 180.66
  L 192.74 191.12
  A 0.85 0.85 -89.0 0 0 193.59 192.00
  L 272.44 192.00
  A 0.81 0.81 0.0 0 0 273.25 191.19
  C 273.25 184.62 273.45 120.51 272.95 120.46
  A 0.69 0.42 -74.8 0 0 272.43 120.95
  C 266.13 139.67 240.27 147.95 223.38 152.17
  A 1.45 1.44 -6.4 0 0 222.29 153.53
  Q 222.06 160.98 222.62 167.18
  Q 222.82 169.40 226.65 170.15
  Z
  M 167.82 217.82
  C 171.35 217.86 175.75 217.67 178.33 215.27
  C 181.01 212.78 180.80 208.59 177.75 206.60
  C 174.36 204.40 167.15 204.85 163.03 205.06
  A 1.08 1.06 -2.0 0 0 162.01 206.13
  L 162.06 225.18
  A 0.66 0.45 89.2 0 0 162.53 225.85
  L 166.12 225.71
  A 1.28 0.98 -89.8 0 0 167.08 224.47
  L 167.23 218.30
  A 0.59 0.49 0.5 0 1 167.82 217.82
  Z
  M 194.29 222.68
  L 193.93 205.82
  A 0.70 0.62 -84.1 0 0 193.46 205.17
  Q 191.50 204.67 189.54 205.18
  A 0.65 0.63 83.2 0 0 189.06 205.81
  L 189.00 225.13
  A 0.87 0.87 0.0 0 0 189.87 226.00
  Q 196.20 226.00 201.96 226.00
  C 203.69 226.00 205.04 226.48 204.45 223.77
  A 0.69 0.67 -5.2 0 0 203.79 223.24
  L 194.80 223.20
  A 0.53 0.51 89.4 0 1 194.29 222.68
  Z
  M 225.47 221.22
  L 227.95 225.37
  A 1.05 0.64 66.9 0 0 228.69 225.90
  L 232.76 225.85
  A 0.38 0.34 74.8 0 0 233.03 225.30
  L 222.81 205.64
  A 1.10 1.03 81.0 0 0 222.08 205.07
  Q 220.54 204.77 219.04 205.17
  A 1.14 1.12 -83.6 0 0 218.33 205.75
  L 208.22 225.30
  A 0.39 0.34 -74.4 0 0 208.49 225.86
  L 212.32 225.91
  A 0.98 0.68 -71.7 0 0 213.04 225.37
  L 214.99 221.61
  A 1.58 1.53 -75.9 0 1 216.36 220.76
  L 224.69 220.80
  A 0.94 0.85 -14.0 0 1 225.47 221.22
  Z
  M 249.06 213.76
  L 244.54 206.44
  A 2.51 2.38 -9.9 0 0 242.85 205.32
  Q 237.47 204.39 239.13 206.60
  Q 243.22 212.03 246.74 217.83
  Q 246.97 218.20 246.98 218.75
  L 247.15 225.31
  A 0.60 0.52 89.4 0 0 247.67 225.90
  L 251.32 225.90
  A 0.59 0.56 -89.5 0 0 251.88 225.32
  L 251.93 220.10
  Q 251.95 218.30 252.73 217.12
  C 255.14 213.52 257.48 209.67 260.10 206.21
  Q 261.45 204.43 258.25 205.00
  Q 255.26 205.53 254.56 206.56
  L 249.64 213.80
  A 0.36 0.33 47.0 0 1 249.06 213.76
  Z
  M 281.69 208.44
  C 276.94 216.98 295.75 215.76 293.32 221.16
  C 290.59 227.23 281.00 218.00 280.46 223.82
  A 0.68 0.63 13.4 0 0 280.91 224.49
  Q 286.00 226.29 291.94 225.69
  C 295.63 225.31 299.94 222.58 298.75 218.34
  C 297.82 215.01 291.77 213.79 288.90 212.63
  C 285.35 211.20 285.71 208.10 289.64 207.84
  Q 292.77 207.63 295.57 208.84
  A 1.09 1.09 -58.7 0 0 296.84 208.53
  C 298.68 206.34 298.26 206.38 295.94 205.78
  C 291.77 204.71 283.92 204.42 281.69 208.44
  Z
  M 316.06 213.76
  C 314.64 211.37 313.09 209.06 311.81 206.61
  C 310.65 204.39 304.35 204.05 306.12 206.40
  Q 310.26 211.90 313.69 217.88
  Q 313.92 218.27 313.93 218.80
  L 314.15 225.31
  A 0.64 0.63 4.0 0 0 314.68 225.91
  Q 316.59 226.26 318.46 225.81
  A 0.63 0.61 83.2 0 0 318.93 225.19
  C 318.86 221.81 318.43 218.82 320.53 215.87
  Q 324.07 210.89 327.24 205.67
  A 0.35 0.35 -68.0 0 0 327.02 205.14
  Q 324.90 204.70 322.80 205.19
  A 1.39 0.89 -70.5 0 0 322.07 205.76
  L 316.63 213.80
  A 0.35 0.33 47.3 0 1 316.06 213.76
  Z
  M 333.69 208.44
  C 328.94 216.98 347.75 215.75 345.32 221.16
  C 342.59 227.23 333.00 218.00 332.46 223.82
  A 0.68 0.63 13.4 0 0 332.91 224.49
  Q 338.00 226.29 343.94 225.69
  C 347.63 225.31 351.94 222.58 350.75 218.34
  C 349.82 215.01 343.77 213.79 340.90 212.63
  C 337.35 211.20 337.71 208.10 341.64 207.84
  Q 344.77 207.63 347.57 208.84
  A 1.09 1.09 -58.7 0 0 348.84 208.53
  C 350.68 206.34 350.26 206.38 347.94 205.78
  C 343.77 204.71 335.92 204.42 333.69 208.44
  Z
  M 370.82 207.78
  L 375.69 207.88
  A 1.49 0.71 11.6 0 0 376.59 207.66
  Q 377.53 206.91 377.51 205.86
  A 0.88 0.88 89.3 0 0 376.63 205.00
  Q 368.30 205.00 360.56 205.00
  C 358.99 205.00 357.45 204.50 358.01 207.04
  A 1.04 0.95 -5.2 0 0 359.00 207.79
  L 364.31 207.88
  A 0.57 0.53 89.4 0 1 364.83 208.43
  Q 365.34 220.74 365.00 223.50
  C 364.59 226.78 367.96 226.70 369.59 225.78
  A 0.98 0.75 79.5 0 0 369.99 225.00
  L 370.28 208.32
  A 0.55 0.52 -88.4 0 1 370.82 207.78
  Z
  M 389.22 222.69
  L 389.12 216.68
  A 0.59 0.52 -1.6 0 1 389.69 216.15
  L 397.19 215.93
  A 1.28 0.90 13.6 0 0 398.05 215.59
  Q 398.73 214.82 398.56 213.79
  A 0.64 0.58 -4.2 0 0 397.94 213.30
  L 389.93 213.25
  A 0.81 0.70 0.7 0 1 389.12 212.53
  L 389.19 208.30
  A 0.62 0.50 0.5 0 1 389.81 207.81
  L 399.94 207.69
  A 0.78 0.69 9.1 0 0 400.65 207.24
  Q 400.99 206.37 400.66 205.51
  A 0.80 0.73 -9.3 0 0 399.95 205.05
  L 384.80 205.00
  A 0.80 0.80 0.0 0 0 384.00 205.80
  L 384.00 225.15
  A 0.85 0.84 89.7 0 0 384.85 226.00
  L 400.68 225.94
  A 0.80 0.69 8.9 0 0 401.40 225.49
  Q 401.74 224.62 401.41 223.76
  A 0.80 0.71 -9.7 0 0 400.69 223.31
  L 389.81 223.19
  A 0.59 0.51 -0.5 0 1 389.22 222.69
  Z
  M 433.48 214.31
  L 434.22 225.00
  A 1.08 0.82 -81.2 0 0 434.65 225.80
  Q 435.15 226.10 435.73 226.10
  C 438.30 226.13 438.89 226.51 438.65 223.60
  Q 437.93 214.71 437.23 205.81
  A 0.82 0.76 -82.9 0 0 436.73 205.12
  Q 433.86 203.99 432.56 206.31
  Q 428.73 213.20 424.52 220.39
  A 0.60 0.60 -44.4 0 1 423.48 220.38
  Q 419.44 213.31 415.63 206.21
  Q 414.74 204.54 411.43 205.30
  A 0.82 0.79 -5.1 0 0 410.80 206.02
  L 409.34 225.18
  A 0.64 0.62 -80.0 0 0 409.79 225.84
  Q 411.50 226.32 413.21 225.84
  A 0.74 0.72 84.4 0 0 413.73 225.19
  L 414.47 213.74
  Q 414.50 213.28 414.75 213.68
  L 421.80 225.27
  A 1.39 1.33 83.1 0 0 422.53 225.87
  Q 425.46 226.93 426.94 224.44
  Q 430.93 217.69 433.17 214.23
  Q 433.44 213.80 433.48 214.31
  Z
  M 193.01 241.03
  C 192.86 252.34 200.26 257.25 210.25 259.75
  Q 232.19 265.24 253.07 262.09
  C 264.89 260.32 275.48 254.44 273.03 240.56
  A 0.61 0.61 -5.1 0 0 272.43 240.06
  L 194.06 240.00
  A 1.05 1.04 0.3 0 0 193.01 241.03
  Z
  M 323.98 240.83
  C 323.30 253.20 332.84 257.82 343.50 260.25
  Q 366.89 265.58 388.24 261.47
  C 399.16 259.37 407.15 252.57 405.03 240.55
  A 0.61 0.60 -5.1 0 0 404.43 240.06
  L 324.85 240.00
  A 0.88 0.87 -88.3 0 0 323.98 240.83
  Z"
/>
<path fill="#000000" d="
  M 324.00 76.96
  Q 325.01 77.21 326.06 77.17
  Q 350.26 76.29 368.45 91.82
  Q 370.52 93.59 368.65 95.51
  L 350.62 114.00
  A 0.85 0.83 -49.4 0 1 349.52 114.10
  L 343.30 109.52
  A 1.90 1.75 -62.5 0 1 342.73 107.40
  Q 344.92 101.34 341.54 98.76
  Q 333.90 92.91 324.93 94.09
  A 1.42 1.41 -4.9 0 0 323.70 95.54
  C 324.41 118.13 323.41 140.34 324.00 162.85
  L 323.96 163.25
  C 303.73 156.32 295.92 137.90 298.98 117.75
  C 300.85 105.43 310.04 94.83 323.03 94.21
  A 1.00 0.96 -2.1 0 0 323.98 93.23
  L 323.75 77.21
  Q 323.78 77.00 324.00 76.96
  Z"
/>
<path fill="#000000" d="
  M 96.11 157.21
  A 2.74 2.72 -69.0 0 1 97.00 159.23
  L 97.00 179.26
  A 0.69 0.68 86.2 0 1 96.41 179.94
  C 77.53 182.47 56.00 183.93 38.31 175.78
  C 20.30 167.48 9.83 152.13 8.50 132.00
  C 5.97 93.68 35.63 73.11 71.48 77.87
  Q 89.46 80.26 102.94 92.31
  Q 104.50 93.71 103.00 95.25
  L 84.80 113.83
  A 1.28 1.25 40.5 0 1 83.15 113.94
  L 76.77 109.23
  A 1.08 1.08 35.0 0 1 76.51 107.77
  C 83.23 97.60 66.94 93.87 60.50 94.00
  C 42.52 94.37 33.73 105.88 32.37 122.74
  C 30.21 149.63 50.36 167.98 77.00 164.50
  Q 84.83 163.48 86.57 156.68
  A 0.75 0.69 -85.0 0 1 87.18 156.13
  C 89.77 155.85 94.03 155.31 96.11 157.21
  Z"
/>
<path fill="#000000" d="
  M 142.00 78.96
  L 142.25 79.04
  L 142.04 112.00
  L 141.75 113.46
  L 136.61 127.29
  A 0.64 0.58 -79.7 0 0 137.14 128.15
  L 141.96 128.00
  L 142.04 128.25
  L 142.29 145.00
  Q 142.25 145.21 142.04 145.25
  C 139.88 144.14 134.07 145.07 131.35 145.00
  A 1.02 1.01 10.8 0 0 130.37 145.66
  Q 127.27 154.01 124.19 162.19
  Q 122.86 165.71 122.61 167.93
  A 1.11 1.01 -66.0 0 0 122.90 168.81
  Q 124.30 170.19 126.89 170.19
  A 0.61 0.60 -0.0 0 1 127.50 170.79
  C 127.50 174.42 128.96 180.16 123.50 180.11
  Q 112.50 180.00 101.48 180.00
  Q 98.25 180.00 98.25 176.77
  L 98.25 171.10
  A 0.68 0.67 -8.0 0 1 98.75 170.45
  Q 102.84 169.35 104.10 166.08
  Q 120.75 123.07 137.42 79.56
  A 0.76 0.75 -80.2 0 1 138.11 79.06
  L 142.00 78.96
  Z"
/>
<path fill="#000000" d="
  M 490.44 89.48
  Q 485.53 88.56 486.25 82.75
  Q 486.68 79.25 489.75 79.20
  Q 502.84 78.95 515.67 79.06
  A 0.98 0.95 -8.3 0 1 516.58 79.72
  L 530.53 123.10
  Q 531.14 125.00 531.86 123.13
  L 548.38 79.79
  A 1.25 1.22 10.2 0 1 549.54 79.00
  Q 562.13 79.00 574.25 79.00
  C 579.96 79.00 578.56 84.29 578.45 87.93
  A 0.83 0.77 79.5 0 1 577.99 88.66
  Q 576.75 89.20 575.31 89.06
  Q 573.19 88.86 573.75 92.75
  Q 578.51 126.03 583.65 159.25
  C 584.34 163.72 583.55 170.07 589.86 170.20
  A 0.66 0.65 -89.6 0 1 590.50 170.86
  L 590.50 177.02
  Q 590.50 180.00 587.52 180.00
  Q 574.50 180.00 561.50 179.87
  C 556.68 179.82 557.90 174.37 558.03 171.25
  A 1.23 1.23 -89.3 0 1 559.24 170.07
  Q 563.93 169.98 563.23 165.46
  Q 559.39 140.56 555.28 115.69
  C 555.28 115.69 555.02 108.58 553.95 111.35
  Q 545.18 134.11 536.18 157.15
  A 1.29 1.20 -77.8 0 1 535.01 157.97
  L 521.07 157.73
  A 0.75 0.71 80.6 0 1 520.40 157.22
  L 505.68 112.35
  Q 504.99 110.24 504.63 112.43
  Q 500.43 138.20 496.56 163.24
  C 496.01 166.82 494.94 170.12 499.69 170.30
  A 0.65 0.64 -4.5 0 1 500.30 170.81
  C 500.80 173.19 501.57 179.20 497.83 179.93
  Q 497.45 180.00 493.66 180.00
  Q 484.95 180.00 476.25 179.97
  C 471.17 179.95 472.50 174.81 472.50 171.39
  A 0.96 0.96 -10.0 0 1 473.13 170.49
  C 478.86 168.37 479.30 163.11 480.17 158.03
  Q 485.37 127.42 490.56 96.81
  Q 491.25 92.75 490.99 90.06
  A 0.69 0.64 3.8 0 0 490.44 89.48
  Z"
/>
<path fill="#000000" d="
  M 405.00 79.54
  L 405.04 98.50
  Q 394.58 108.41 393.00 124.25
  Q 390.93 145.06 404.56 158.80
  Q 405.33 169.24 405.00 179.75
  C 380.69 172.20 366.99 151.81 368.82 126.04
  C 370.41 103.70 383.69 86.91 405.00 79.54
  Z"
/>
<path fill="#000000" d="
  M 456.46 87.50
  C 482.68 109.19 483.09 150.27 456.00 171.50
  Q 456.00 129.75 456.00 88.00
  Q 456.00 87.43 456.46 87.50
  Z"
/>
<path fill="#000000" d="
  M 405.25 158.71
  L 405.50 98.79
  C 419.89 87.50 441.73 92.50 448.72 110.01
  C 458.66 134.94 447.22 174.16 412.26 163.22
  Q 408.12 161.92 405.25 158.71
  Z"
/>
<path fill="#000000" d="
  M 273.29 97.50
  L 273.71 99.50
  L 273.04 99.50
  Q 273.14 98.52 272.54 97.75
  Q 273.04 97.89 273.29 97.50
  Z"
/>
<path fill="#000000" d="
  M 142.04 128.25
  L 141.96 128.00
  L 142.29 114.25
  L 142.71 112.00
  L 144.96 104.92
  Q 145.44 103.40 146.00 104.93
  L 154.27 127.47
  A 0.37 0.37 -10.3 0 1 153.93 127.96
  L 142.04 128.25
  Z"
/>
<path fill="#000000" d="
  M 142.04 112.00
  L 142.71 112.00
  L 142.29 114.25
  Q 142.41 113.44 141.75 113.46
  L 142.04 112.00
  Z"
/>
<path fill="#000000" d="
  M 324.00 181.29
  L 323.75 181.21
  L 323.96 163.25
  L 324.00 162.85
  C 332.08 165.92 349.22 167.86 352.62 156.79
  A 1.13 1.12 -81.1 0 1 353.69 156.00
  C 357.84 156.00 363.00 154.43 363.00 160.55
  Q 363.00 169.88 363.00 178.96
  A 0.91 0.90 86.0 0 1 362.23 179.86
  Q 342.70 182.69 324.00 181.29
  Z"
/>
<path fill="#000000" d="
  M 171.87 207.81
  C 176.16 209.39 176.24 213.96 171.61 214.84
  Q 170.00 215.15 167.97 214.91
  A 0.89 0.89 88.7 0 1 167.20 214.17
  Q 165.74 205.55 171.87 207.81
  Z"
/>
<path fill="#000000" d="
  M 217.05 217.56
  L 220.21 210.02
  A 0.31 0.31 -45.5 0 1 220.79 210.02
  L 223.92 217.58
  A 0.31 0.31 -30.3 0 1 223.63 218.01
  L 217.34 217.99
  A 0.31 0.31 -78.8 0 1 217.05 217.56
  Z"
/>
</svg>
