<?xml version="1.0" encoding="UTF-8" standalone="no"?>
<!DOCTYPE svg PUBLIC "-//W3C//DTD SVG 1.1//EN" "http://www.w3.org/Graphics/SVG/1.1/DTD/svg11.dtd">
<svg xmlns="http://www.w3.org/2000/svg" version="1.1" viewBox="0 0 600 300">
<path stroke="#000000" stroke-width="2.00" fill="none" stroke-linecap="butt" vector-effect="non-scaling-stroke" d="
  M 122.00 158.79
  L 121.96 159.00"
/>
<path fill="#000000" d="
  M 274.29 158.85
  C 275.82 159.47 273.82 160.27 273.30 160.84
  Q 271.50 162.85 270.81 165.45
  A 1.51 1.23 -14.9 0 1 270.26 166.21
  Q 268.75 167.29 269.86 168.80
  A 0.31 0.31 63.6 0 1 269.70 169.29
  Q 268.23 169.69 267.43 171.00
  Q 267.17 171.42 266.74 171.66
  Q 265.01 172.65 265.98 174.33
  A 1.42 0.91 46.1 0 1 266.16 175.24
  Q 265.78 176.75 264.25 177.15
  A 1.70 1.18 4.0 0 0 263.44 177.63
  Q 259.46 182.52 254.32 183.30
  Q 251.18 183.78 252.17 180.75
  Q 253.51 176.66 254.99 173.53
  Q 265.29 151.79 275.62 130.07
  C 278.91 123.16 284.06 115.19 286.69 108.94
  C 288.88 103.74 292.89 102.82 297.56 100.81
  Q 301.07 99.31 299.94 102.69
  C 298.00 108.49 294.49 114.22 292.14 119.73
  Q 291.96 120.13 291.54 120.47
  Q 290.07 121.62 290.39 123.51
  A 1.78 1.45 56.9 0 1 290.29 124.46
  L 286.13 133.98
  Q 285.95 134.39 285.54 134.75
  Q 284.22 135.93 284.23 137.75
  A 1.30 1.14 69.8 0 1 283.90 138.61
  Q 282.00 140.62 281.50 142.00
  C 281.18 142.87 281.95 142.89 282.43 142.47
  C 285.44 139.84 299.98 124.86 301.89 136.29
  Q 302.53 140.12 301.44 143.94
  Q 300.91 145.78 300.50 146.50
  C 297.92 151.07 295.06 156.85 293.31 162.09
  C 292.49 164.54 290.69 167.07 290.48 170.38
  A 1.51 1.49 68.9 0 1 290.09 171.28
  Q 288.39 173.11 290.19 173.19
  A 1.34 1.13 -60.7 0 0 291.06 172.86
  C 292.83 171.33 300.36 163.66 301.77 163.25
  Q 303.57 162.73 302.54 164.29
  C 298.39 170.52 290.21 175.50 287.31 179.81
  Q 284.98 183.28 280.97 184.51
  Q 278.62 185.23 277.54 183.02
  C 272.81 173.42 287.27 153.92 289.25 143.27
  Q 289.98 139.31 286.82 141.81
  Q 282.19 145.46 278.40 149.96
  C 276.95 151.68 276.41 151.69 277.32 153.77
  A 0.37 0.37 -8.9 0 1 276.94 154.29
  Q 275.40 154.15 274.96 154.96
  A 0.54 0.44 24.2 0 0 275.28 155.61
  Q 277.17 156.39 275.69 157.27
  A 1.49 0.93 24.7 0 1 274.76 157.39
  Q 273.36 157.17 273.64 158.22
  A 1.15 0.78 10.1 0 0 274.29 158.85
  Z"
/>
<path fill="#000000" d="
  M 122.00 158.79
  L 121.96 159.00
  Q 111.97 169.66 100.93 179.21
  C 98.14 181.62 95.81 182.90 92.52 184.19
  A 1.18 1.17 63.2 0 1 91.10 183.72
  C 88.32 179.31 89.72 171.67 91.38 167.04
  C 97.06 151.26 106.53 135.09 120.21 109.37
  A 1.59 1.25 -82.9 0 1 120.88 108.71
  L 129.45 104.93
  A 1.01 0.96 69.8 0 1 130.77 105.58
  C 131.87 109.29 124.51 120.03 122.51 123.32
  A 1.79 1.46 64.1 0 0 122.29 124.24
  Q 122.34 125.99 121.10 126.19
  Q 119.11 126.51 119.50 128.48
  C 120.11 131.61 116.27 133.27 116.92 134.13
  A 0.66 0.64 -46.4 0 1 116.93 134.89
  L 114.99 137.81
  A 0.65 0.56 39.8 0 0 115.12 138.58
  C 118.25 141.59 109.38 139.59 113.50 142.00
  Q 115.77 143.33 113.25 143.50
  Q 109.26 143.77 112.05 145.27
  A 0.42 0.41 33.3 0 1 112.19 145.89
  C 110.07 148.70 109.30 153.09 107.04 155.23
  A 0.99 0.99 44.6 0 0 107.05 156.68
  Q 108.73 158.21 106.44 158.94
  Q 103.91 159.74 105.00 161.00
  C 106.51 162.73 103.59 166.74 103.03 169.69
  Q 102.95 170.12 102.61 170.57
  Q 101.94 171.45 102.71 171.80
  A 1.11 0.80 -43.9 0 0 103.62 171.67
  Q 112.53 166.12 120.31 159.06
  Q 120.87 158.55 122.00 158.79
  Z"
/>
<path fill="#000000" d="
  M 362.32 118.82
  C 363.87 112.20 367.93 106.68 375.00 105.14
  Q 379.12 104.24 377.60 108.18
  Q 376.31 111.53 373.81 116.31
  Q 372.66 118.52 370.24 118.52
  A 1.52 1.45 25.6 0 0 369.35 118.81
  Q 367.22 120.36 364.56 120.33
  A 1.41 1.37 24.7 0 0 363.68 120.64
  C 360.67 123.09 362.15 119.55 362.32 118.82
  Z"
/>
<path fill="#000000" d="
  M 77.67 147.06
  C 73.05 149.08 70.96 152.05 65.07 151.84
  A 1.21 1.15 -64.5 0 0 64.21 152.17
  C 62.24 154.00 60.22 152.82 57.93 154.73
  A 1.45 1.08 80.5 0 0 57.50 155.57
  Q 57.07 158.35 55.10 160.40
  A 0.74 0.70 55.3 0 0 54.98 161.19
  Q 55.79 162.90 53.93 163.15
  A 1.02 0.90 8.1 0 0 53.20 163.63
  C 51.97 165.91 50.13 173.51 49.02 174.12
  A 0.80 0.50 -24.6 0 0 48.57 174.80
  L 48.73 175.48
  A 0.70 0.59 68.1 0 1 48.50 176.18
  Q 47.38 176.92 47.95 178.24
  A 0.28 0.26 79.1 0 1 47.70 178.63
  C 45.82 178.53 45.41 179.64 44.25 180.38
  Q 39.90 183.16 36.61 184.33
  Q 32.05 185.96 33.25 181.27
  Q 35.56 172.19 39.80 163.93
  C 47.39 149.14 54.57 134.70 64.04 120.95
  C 64.48 120.32 64.78 118.88 63.41 119.72
  A 1.62 1.07 -48.2 0 1 62.50 119.96
  C 57.42 119.36 64.73 112.46 66.04 111.20
  C 70.51 106.93 74.72 106.55 80.75 106.75
  C 85.98 106.92 91.98 107.39 95.34 110.40
  C 97.17 112.03 98.85 111.92 99.76 114.67
  C 100.09 115.67 100.29 115.84 101.22 116.18
  A 1.05 0.88 3.5 0 1 101.85 116.78
  C 107.25 132.86 89.23 142.02 77.67 147.06
  Z
  M 76.49 121.06
  L 76.04 121.18
  A 1.21 1.10 -82.1 0 0 75.34 121.76
  L 63.05 145.33
  Q 61.99 147.36 64.14 146.62
  C 71.73 143.99 92.07 135.89 89.81 125.05
  C 88.83 120.36 84.23 118.32 79.81 118.31
  A 1.24 0.96 16.5 0 0 78.93 118.65
  L 77.21 120.55
  A 1.70 0.81 -60.8 0 1 76.49 121.06
  Z"
/>
<path fill="#000000" d="
  M 569.47 111.23
  C 568.42 111.75 569.07 115.96 567.40 114.32
  A 0.87 0.79 -60.5 0 1 567.21 113.47
  C 567.61 112.13 569.12 107.59 567.46 108.33
  C 565.73 109.09 566.51 116.08 564.41 114.29
  A 0.88 0.71 -65.7 0 1 564.20 113.47
  L 565.17 109.40
  A 0.96 0.91 12.3 0 0 564.41 108.28
  Q 563.38 108.09 563.56 107.50
  A 0.83 0.62 5.2 0 1 564.31 107.04
  L 569.34 107.00
  A 1.30 1.15 83.5 0 1 570.51 108.05
  L 571.05 110.87
  Q 571.39 112.62 572.18 110.95
  C 572.75 109.74 573.68 107.47 575.04 107.01
  C 577.95 106.04 575.22 112.23 575.01 113.46
  C 574.90 114.14 573.86 115.84 573.61 114.07
  A 1.59 0.94 -45.1 0 1 573.84 113.16
  Q 574.44 112.15 574.00 111.18
  Q 573.72 110.58 573.42 111.13
  L 571.84 113.95
  A 1.25 0.40 -65.8 0 1 571.22 114.64
  C 569.49 115.11 570.27 112.28 570.09 111.53
  A 0.45 0.43 69.7 0 0 569.47 111.23
  Z"
/>
<path fill="#000000" d="
  M 211.42 164.13
  Q 210.66 163.09 210.94 161.44
  Q 214.93 138.09 231.89 123.59
  C 239.47 117.11 247.83 111.43 257.25 108.02
  C 262.71 106.05 267.28 109.83 268.42 114.96
  C 269.06 117.80 269.69 121.71 268.44 124.19
  Q 267.62 125.81 267.91 127.08
  A 1.21 0.95 61.5 0 1 267.76 127.96
  Q 265.58 130.93 264.54 134.38
  Q 264.30 135.15 263.86 135.83
  C 260.30 141.31 257.83 142.03 252.83 144.90
  C 251.93 145.43 245.45 150.83 245.30 147.57
  A 1.60 1.18 -34.8 0 1 245.61 146.66
  C 250.06 140.47 254.26 134.27 255.14 126.22
  C 255.57 122.38 255.79 119.58 253.25 116.88
  A 0.70 0.69 -39.7 0 0 252.33 116.80
  C 242.14 124.45 231.82 136.66 226.82 148.39
  C 224.13 154.72 221.40 168.16 228.25 172.58
  Q 229.36 173.29 230.64 173.58
  Q 236.39 174.88 239.91 172.67
  C 242.13 171.27 244.21 170.48 245.97 168.97
  C 247.09 168.01 256.26 159.33 256.81 159.91
  A 0.57 0.43 -50.6 0 1 256.78 160.56
  C 250.26 169.86 241.62 178.50 231.67 184.11
  C 222.18 189.47 211.80 179.35 211.27 170.00
  Q 211.24 169.53 211.00 169.06
  Q 209.86 166.82 211.42 164.88
  A 0.63 0.60 46.5 0 0 211.42 164.13
  Z"
/>
<path fill="#000000" d="
  M 509.81 128.72
  Q 510.95 128.88 510.83 129.72
  A 1.40 0.71 -28.1 0 1 510.29 130.49
  Q 508.78 131.72 507.90 133.48
  Q 507.70 133.89 507.28 134.22
  Q 506.02 135.20 506.36 136.76
  A 1.59 0.75 66.4 0 1 506.33 137.73
  L 505.56 139.39
  Q 505.34 139.88 505.34 140.31
  C 505.34 143.59 501.99 141.98 501.67 143.31
  A 0.68 0.47 16.1 0 0 502.17 143.93
  C 504.71 144.74 501.00 147.39 500.02 147.86
  A 0.70 0.57 -20.1 0 0 499.61 148.55
  L 499.84 149.53
  A 1.00 0.81 63.9 0 1 499.65 150.36
  C 498.20 151.90 498.09 153.87 496.71 155.02
  Q 496.29 155.37 496.11 155.77
  C 492.73 163.32 488.61 170.15 485.03 177.89
  C 484.70 178.61 484.56 182.55 482.96 179.21
  A 0.71 0.65 71.7 0 0 482.25 178.81
  Q 480.14 179.15 478.95 181.00
  Q 478.65 181.46 478.25 181.67
  C 475.67 183.01 467.32 185.86 470.06 179.31
  C 472.42 173.69 475.39 167.59 478.81 161.87
  Q 489.64 143.76 500.50 125.99
  Q 502.43 122.85 499.01 124.25
  Q 494.76 125.99 490.91 128.48
  A 0.46 0.44 -30.0 0 1 490.26 128.32
  Q 489.54 126.91 489.54 125.31
  A 1.61 1.40 -30.0 0 1 489.85 124.41
  C 494.29 118.32 500.67 115.72 510.19 110.19
  C 512.84 108.64 518.44 105.16 519.57 109.44
  C 520.53 113.07 513.23 120.40 512.95 124.19
  A 1.49 0.49 -44.2 0 1 512.54 124.98
  L 510.76 127.21
  A 1.49 1.03 -65.2 0 1 509.81 127.77
  Q 509.49 127.79 509.37 128.20
  A 0.49 0.41 10.3 0 0 509.81 128.72
  Z"
/>
<path fill="#000000" d="
  M 511.30 161.01
  C 515.90 141.01 529.14 121.22 547.14 110.11
  C 556.54 104.31 562.97 113.31 563.43 122.30
  C 563.87 130.98 559.96 141.71 555.96 149.31
  C 554.86 151.39 552.97 152.80 551.64 154.94
  C 548.93 159.28 544.96 163.80 540.74 166.93
  Q 535.81 170.59 531.73 175.22
  C 527.38 180.16 518.92 187.90 513.62 180.65
  C 509.75 175.35 509.90 167.10 511.30 161.01
  Z
  M 544.98 119.11
  C 541.59 119.40 534.74 133.55 532.36 136.96
  Q 530.22 140.02 529.46 141.67
  C 525.73 149.80 522.78 159.18 523.95 168.35
  C 525.28 178.78 535.62 167.93 538.25 164.60
  C 546.17 154.56 551.19 142.08 551.50 129.25
  C 551.57 126.13 549.32 118.73 544.98 119.11
  Z"
/>
<path fill="#000000" d="
  M 121.96 159.00
  L 122.00 158.79
  Q 122.70 157.83 124.44 154.44
  Q 130.42 142.76 140.44 135.44
  Q 145.26 131.91 147.19 130.19
  C 151.91 125.98 158.18 128.99 159.93 134.41
  C 160.65 136.63 159.22 138.70 162.09 140.73
  A 0.50 0.49 34.5 0 1 162.22 141.41
  Q 158.01 147.69 155.11 156.74
  Q 154.87 157.49 154.58 158.21
  Q 152.42 163.41 151.85 169.23
  C 151.66 171.28 151.89 177.09 155.29 172.02
  C 155.84 171.20 165.25 159.81 164.34 163.88
  C 164.01 165.33 160.63 168.45 159.53 170.12
  C 155.78 175.79 149.55 183.17 143.21 184.12
  A 1.74 1.72 76.8 0 1 141.31 182.93
  Q 139.67 177.83 140.61 172.96
  C 140.70 172.47 140.58 171.98 140.03 171.97
  A 1.00 0.64 -68.6 0 0 139.33 172.48
  C 137.07 176.35 128.66 184.24 124.14 184.11
  Q 119.72 183.99 119.68 178.31
  A 1.79 1.40 34.1 0 0 119.39 177.41
  Q 118.38 175.88 119.25 174.19
  A 1.15 1.07 -44.1 0 0 119.30 173.28
  C 117.86 169.68 122.81 160.35 121.96 159.00
  Z
  M 145.30 136.93
  A 0.86 0.86 -50.2 0 0 144.22 137.03
  C 137.62 143.58 135.33 151.29 132.21 159.74
  C 131.02 162.96 130.54 170.63 132.53 173.54
  A 0.57 0.54 -30.3 0 0 133.26 173.71
  C 137.50 171.50 141.19 168.66 142.72 163.86
  C 144.79 157.37 153.52 142.45 145.30 136.93
  Z"
/>
<path fill="#000000" d="
  M 201.29 157.04
  C 201.47 156.98 213.09 152.69 209.03 156.87
  Q 208.53 157.40 207.66 157.70
  C 203.64 159.13 199.13 160.85 197.00 164.85
  C 194.81 168.96 193.16 173.23 190.98 177.37
  C 189.34 180.50 189.88 184.32 186.28 186.10
  A 0.82 0.52 -22.9 0 0 185.78 186.82
  L 185.99 187.57
  A 1.12 0.88 58.2 0 1 185.90 188.37
  L 183.20 192.69
  A 1.85 1.15 -70.6 0 1 182.22 193.48
  Q 180.22 193.93 179.82 196.01
  A 1.66 1.27 79.9 0 1 179.39 196.84
  C 175.14 200.75 160.91 214.30 155.12 213.36
  C 145.90 211.86 148.57 200.68 152.39 195.14
  Q 157.91 187.13 165.93 181.44
  A 0.83 0.83 51.5 0 0 166.07 180.20
  C 162.64 176.39 163.22 169.01 165.45 164.63
  Q 165.66 164.23 165.68 163.68
  Q 165.73 162.46 166.44 160.69
  C 171.62 147.61 179.67 134.66 192.75 128.81
  Q 196.44 127.16 194.45 130.67
  Q 190.43 137.75 185.80 144.41
  C 183.98 147.02 182.39 150.92 179.66 153.71
  A 0.91 0.76 61.8 0 0 179.49 154.53
  Q 179.84 155.75 178.74 156.55
  A 0.97 0.91 -19.0 0 0 178.34 157.31
  Q 178.34 158.75 177.34 159.63
  A 1.67 1.08 -24.3 0 0 176.83 160.42
  C 176.03 163.88 173.62 171.50 177.59 171.45
  C 182.08 171.39 187.00 164.89 188.69 161.07
  Q 195.41 145.93 202.56 135.06
  C 204.58 132.00 209.41 130.53 212.81 128.85
  C 214.11 128.20 215.86 128.70 215.00 130.52
  C 212.08 136.72 208.18 143.02 205.32 148.55
  Q 203.19 152.65 201.05 156.74
  Q 200.81 157.19 201.29 157.04
  Z
  M 160.50 197.75
  C 159.74 208.34 169.60 200.77 171.81 197.31
  Q 178.96 186.15 183.44 173.69
  Q 184.13 171.77 182.44 173.19
  C 175.44 179.07 161.24 187.45 160.50 197.75
  Z"
/>
<path fill="#000000" d="
  M 303.60 163.71
  Q 303.51 162.88 303.81 161.81
  C 306.99 150.58 315.23 142.38 323.53 134.83
  C 325.72 132.84 327.34 130.69 330.51 129.53
  C 337.61 126.90 341.11 134.41 339.70 139.96
  Q 339.58 140.45 339.69 140.92
  C 340.39 143.97 336.69 157.65 334.49 159.32
  Q 334.01 159.69 333.86 160.01
  Q 331.04 166.15 326.94 169.94
  C 323.15 173.43 320.54 176.70 316.94 179.65
  C 302.99 191.04 300.74 173.53 303.53 164.67
  Q 303.66 164.27 303.60 163.71
  Z
  M 319.20 148.07
  Q 318.31 148.42 318.37 149.44
  Q 318.40 150.02 318.22 150.39
  C 316.37 154.24 314.67 159.56 313.94 162.81
  Q 312.69 168.44 315.32 173.95
  A 1.69 1.69 -27.6 0 0 317.68 174.69
  C 325.48 170.28 329.43 157.91 329.55 149.09
  C 329.60 145.40 328.48 142.37 326.75 139.22
  Q 326.03 137.91 325.56 139.33
  Q 325.24 140.29 324.45 140.92
  Q 321.16 143.51 319.84 147.46
  A 1.17 0.88 -6.7 0 1 319.20 148.07
  Z"
/>
<path fill="#000000" d="
  M 362.61 165.07
  C 356.77 171.95 349.05 177.93 342.06 182.06
  Q 340.01 183.28 339.06 182.94
  Q 332.08 180.45 334.44 173.19
  Q 337.57 163.52 339.53 159.74
  Q 348.32 142.75 350.81 139.06
  Q 355.80 131.68 363.71 129.70
  Q 366.98 128.88 365.56 131.93
  C 362.68 138.12 358.72 144.09 356.06 149.77
  Q 352.46 157.48 348.71 165.12
  C 347.55 167.48 347.24 169.28 346.93 171.80
  Q 346.59 174.59 349.10 173.32
  Q 355.51 170.05 361.31 164.31
  Q 362.23 163.41 362.74 164.24
  A 0.78 0.64 -42.0 0 1 362.61 165.07
  Z"
/>
<path fill="#000000" d="
  M 390.74 169.36
  C 386.86 173.21 374.19 187.99 368.19 182.48
  Q 364.93 179.48 365.25 174.00
  C 366.40 154.28 380.17 140.86 395.03 130.26
  Q 397.23 128.69 399.30 130.43
  Q 404.50 134.79 402.47 141.22
  A 0.95 0.75 37.1 0 0 402.68 142.03
  C 403.42 142.90 402.15 143.23 401.72 143.65
  Q 396.75 148.50 391.56 153.11
  A 0.95 0.81 -54.1 0 1 390.70 153.32
  C 389.24 152.83 389.21 151.28 389.60 149.90
  Q 390.73 145.85 389.67 141.41
  Q 389.28 139.79 388.28 141.13
  C 382.23 149.18 376.80 160.19 377.31 169.94
  C 377.79 179.15 392.45 164.81 394.62 162.88
  C 396.53 161.19 396.02 163.13 395.50 163.84
  Q 393.32 166.79 390.74 169.36
  Z"
/>
<path fill="#000000" d="
  M 410.42 159.05
  Q 408.98 163.99 409.45 169.04
  C 410.61 181.47 428.75 163.82 431.40 161.11
  A 0.46 0.43 -40.9 0 1 432.08 161.14
  Q 432.88 162.23 431.94 163.19
  Q 423.00 172.28 414.24 179.77
  Q 412.01 181.67 409.25 182.66
  C 402.35 185.13 398.78 181.72 397.66 175.05
  Q 396.71 169.43 397.53 165.79
  Q 398.40 161.93 400.06 158.33
  C 404.79 148.03 411.84 141.51 420.86 135.12
  C 424.70 132.39 433.23 125.78 437.05 132.40
  Q 439.27 136.24 436.86 140.84
  C 433.18 147.87 426.01 152.02 418.88 154.96
  C 416.27 156.04 413.77 157.53 411.04 158.41
  A 0.96 0.92 -2.1 0 0 410.42 159.05
  Z
  M 424.73 138.36
  C 420.49 141.47 418.17 144.72 415.12 148.58
  Q 413.42 150.74 412.23 154.29
  Q 412.04 154.86 412.63 154.74
  Q 421.84 152.79 426.01 145.90
  C 427.42 143.58 428.08 140.33 425.96 138.42
  A 0.96 0.96 -42.2 0 0 424.73 138.36
  Z"
/>
<path fill="#000000" d="
  M 458.69 160.50
  L 454.80 159.90
  A 1.29 1.27 -57.1 0 0 453.91 160.10
  Q 451.67 161.58 449.36 160.32
  A 0.96 0.89 -42.1 0 0 448.50 160.31
  C 447.10 160.99 445.55 160.33 444.16 160.27
  C 439.14 160.05 446.69 152.98 447.74 151.71
  A 1.22 1.19 -73.0 0 1 448.56 151.26
  Q 461.00 149.99 474.05 150.26
  Q 478.61 150.36 475.96 154.06
  Q 474.37 156.28 473.13 159.88
  A 1.44 1.43 -66.8 0 1 471.11 160.69
  C 467.96 159.04 465.38 163.90 462.81 159.75
  A 0.73 0.73 -41.1 0 0 461.64 159.67
  Q 460.05 161.52 459.44 160.99
  A 1.22 0.23 43.7 0 0 458.69 160.50
  Z"
/>
</svg>
