<?xml version="1.0" encoding="UTF-8" standalone="no"?>
<!DOCTYPE svg PUBLIC "-//W3C//DTD SVG 1.1//EN" "http://www.w3.org/Graphics/SVG/1.1/DTD/svg11.dtd">
<svg xmlns="http://www.w3.org/2000/svg" version="1.1" viewBox="0 0 600 300">
<g stroke-width="2.00" fill="none" stroke-linecap="butt">
<path stroke="#003e61" vector-effect="non-scaling-stroke" d="
  M 174.25 184.66
  Q 164.89 189.27 154.75 189.25
  Q 97.30 189.15 55.75 189.44
  C 47.16 189.50 33.11 188.94 21.75 189.54"
/>
<path stroke="#003e61" vector-effect="non-scaling-stroke" d="
  M 579.25 189.54
  L 538.50 189.24
  A 1.43 1.43 -25.6 0 1 537.61 188.93
  L 532.27 184.69"
/>
<path stroke="#003e61" vector-effect="non-scaling-stroke" d="
  M 459.79 185.00
  Q 459.15 186.48 459.67 187.79
  A 1.07 1.07 -10.6 0 1 458.67 189.25
  L 408.16 189.32
  A 0.68 0.66 89.6 0 1 407.50 188.65
  L 407.46 185.00"
/>
<path stroke="#003e61" vector-effect="non-scaling-stroke" d="
  M 401.79 184.75
  L 401.74 188.40
  A 0.85 0.83 -89.7 0 1 400.91 189.24
  L 350.69 189.31
  A 1.37 1.25 -23.2 0 1 349.80 189.00
  L 344.54 184.50"
/>
<path stroke="#003e61" vector-effect="non-scaling-stroke" d="
  M 255.77 184.87
  L 255.75 188.68
  A 0.64 0.63 90.0 0 1 255.12 189.32
  L 204.30 189.32
  A 0.57 0.55 89.5 0 1 203.75 188.76
  L 203.71 185.00"
/>
<path stroke="#808080" vector-effect="non-scaling-stroke" d="
  M 73.77 234.25
  C 69.44 235.20 60.96 235.95 61.36 229.18
  C 61.82 221.38 61.50 213.28 61.50 205.27
  Q 61.50 203.17 63.41 202.29
  C 67.76 200.29 78.08 199.64 76.62 208.00
  Q 76.24 210.14 78.50 210.12
  L 90.55 210.05
  A 0.66 0.60 4.9 0 0 91.17 209.57
  C 94.74 192.16 69.51 193.38 59.77 194.63
  C 54.17 195.34 46.25 198.51 46.25 204.75
  Q 46.25 214.63 46.25 224.51
  Q 46.25 231.52 46.47 232.47
  C 49.22 244.33 75.20 243.33 84.01 239.58
  C 91.47 236.41 91.65 231.47 91.11 224.19
  A 0.53 0.53 87.8 0 0 90.57 223.69
  L 77.44 223.92
  A 0.53 0.51 -89.4 0 0 76.94 224.43
  L 76.77 230.75
  Q 76.69 233.60 73.77 234.25"
/>
<path stroke="#808080" vector-effect="non-scaling-stroke" d="
  M 135.80 233.44
  L 135.78 194.83
  A 0.84 0.82 89.6 0 0 134.96 194.00
  L 121.06 194.00
  A 0.81 0.81 0.0 0 0 120.25 194.81
  L 120.25 240.53
  A 0.72 0.72 0.0 0 0 120.97 241.25
  L 159.98 241.00
  A 0.52 0.52 0.0 0 0 160.50 240.48
  L 160.50 234.65
  A 0.66 0.65 0.0 0 0 159.84 234.00
  L 136.30 233.94
  A 0.50 0.50 0.0 0 1 135.80 233.44"
/>
<path stroke="#808080" vector-effect="non-scaling-stroke" d="
  M 215.20 232.03
  A 1.49 1.49 -8.6 0 1 216.64 233.09
  L 218.89 240.46
  A 0.74 0.70 -7.6 0 0 219.57 240.95
  L 233.76 241.25
  A 0.53 0.52 81.7 0 0 234.27 240.56
  L 219.32 194.70
  A 0.99 0.94 79.9 0 0 218.40 194.02
  L 197.19 194.17
  A 0.72 0.68 -80.7 0 0 196.53 194.67
  L 181.65 240.52
  A 0.38 0.36 -80.7 0 0 181.99 241.02
  L 194.75 241.02
  A 0.73 0.70 -80.1 0 0 195.42 240.53
  L 198.04 232.67
  A 0.70 0.68 8.1 0 1 198.69 232.20
  L 215.20 232.03"
/>
<path stroke="#808080" vector-effect="non-scaling-stroke" d="
  M 266.29 195.42
  C 258.02 197.26 252.45 205.72 259.69 212.56
  C 265.17 217.74 274.11 220.59 281.23 224.48
  C 284.80 226.43 288.98 232.45 282.49 234.25
  C 277.79 235.56 269.67 235.73 270.61 228.39
  A 1.19 1.16 -86.5 0 0 269.45 227.05
  L 256.81 227.05
  A 0.60 0.58 -85.4 0 0 256.23 227.56
  C 253.91 243.09 275.27 242.24 284.99 241.73
  C 290.83 241.42 297.15 239.59 300.07 234.37
  C 309.25 218.03 266.12 214.31 272.22 203.81
  C 274.10 200.58 279.77 200.92 282.93 201.59
  Q 286.71 202.38 286.45 207.16
  A 0.80 0.79 -88.6 0 0 287.24 208.00
  L 300.47 208.00
  A 0.53 0.52 -89.4 0 0 300.99 207.48
  C 301.17 191.11 276.63 193.13 266.29 195.42"
/>
<path stroke="#808080" vector-effect="non-scaling-stroke" d="
  M 326.94 200.69
  C 321.97 208.53 329.86 214.89 336.80 217.97
  C 340.34 219.53 359.05 226.60 354.14 232.70
  C 352.07 235.28 346.17 235.04 343.30 234.51
  Q 339.37 233.79 339.54 228.51
  A 1.44 1.38 -89.2 0 0 338.15 227.02
  L 325.68 227.16
  A 0.59 0.56 -87.7 0 0 325.13 227.69
  C 323.94 240.71 337.90 241.88 347.02 242.08
  C 354.49 242.24 371.40 240.94 369.89 229.41
  C 369.20 224.18 364.77 220.86 360.19 218.80
  Q 351.95 215.09 344.17 210.75
  Q 342.68 209.92 341.82 208.45
  C 336.48 199.33 356.84 197.94 355.64 207.44
  A 0.44 0.43 -85.9 0 0 356.06 207.94
  L 369.31 208.06
  A 0.57 0.57 3.4 0 0 369.88 207.56
  C 371.36 195.18 355.94 194.06 347.63 193.94
  C 341.40 193.85 330.77 194.65 326.94 200.69"
/>
<path stroke="#808080" vector-effect="non-scaling-stroke" d="
  M 411.7902 194.5935
  A 0.58 0.58 0.0 0 0 411.2112 194.0125
  L 396.9312 193.9876
  A 0.58 0.58 0.0 0 0 396.3502 194.5666
  L 396.2698 240.6465
  A 0.58 0.58 0.0 0 0 396.8488 241.2275
  L 411.1288 241.2524
  A 0.58 0.58 0.0 0 0 411.7098 240.6734
  L 411.7902 194.5935"
/>
<path stroke="#808080" vector-effect="non-scaling-stroke" d="
  M 440.81 200.53
  Q 439.25 202.59 439.25 205.17
  Q 439.25 213.59 439.25 221.96
  Q 439.25 231.50 439.35 232.02
  C 441.88 244.76 469.13 243.11 477.10 239.56
  C 484.41 236.31 484.70 231.42 484.12 224.19
  A 0.56 0.53 -2.2 0 0 483.56 223.70
  L 472.34 223.73
  Q 468.97 223.74 469.50 227.01
  Q 470.57 233.50 465.95 234.47
  Q 460.67 235.58 456.19 233.60
  Q 454.50 232.86 454.50 231.01
  Q 454.50 219.45 454.50 207.89
  C 454.50 205.41 454.08 203.17 456.81 202.06
  C 461.53 200.15 471.11 199.91 469.70 208.31
  A 1.52 1.49 -85.1 0 0 471.16 210.08
  L 483.56 210.07
  A 0.60 0.58 4.5 0 0 484.15 209.58
  Q 485.98 199.13 476.50 196.00
  C 468.16 193.25 447.46 191.74 440.81 200.53"
/>
<path stroke="#808080" vector-effect="non-scaling-stroke" d="
  M 512.94 200.69
  C 505.29 213.38 528.45 220.19 536.24 224.47
  C 540.23 226.67 543.96 232.90 536.85 234.43
  Q 533.13 235.22 529.30 234.52
  Q 525.37 233.79 525.54 228.51
  A 1.42 1.39 -89.0 0 0 524.15 227.04
  L 511.81 227.05
  A 0.60 0.58 -85.4 0 0 511.23 227.56
  C 508.89 243.08 530.29 242.24 539.99 241.73
  C 545.82 241.42 552.15 239.58 555.07 234.38
  C 564.26 218.00 520.96 214.30 527.25 203.74
  C 529.58 199.83 542.34 199.40 541.47 207.04
  A 0.92 0.91 3.3 0 0 542.39 208.06
  L 555.31 208.05
  A 0.57 0.54 2.8 0 0 555.87 207.57
  C 557.25 195.10 542.03 194.09 533.58 193.95
  C 527.53 193.86 516.55 194.69 512.94 200.69"
/>
<path stroke="#808080" vector-effect="non-scaling-stroke" d="
  M 206.96 203.87
  L 200.31 225.41
  A 0.46 0.46 8.4 0 0 200.75 226.00
  L 213.68 226.00
  A 0.41 0.41 -8.8 0 0 214.07 225.47
  L 207.45 203.88
  Q 207.20 203.08 206.96 203.87"
/>
</g>
<path fill="#007cc2" d="
  M 174.25 184.66
  Q 164.89 189.27 154.75 189.25
  Q 97.30 189.15 55.75 189.44
  C 47.16 189.50 33.11 188.94 21.75 189.54
  L 2.06 189.20
  A 0.52 0.51 -89.4 0 1 1.56 188.68
  L 1.50 151.27
  A 0.96 0.96 -89.1 0 1 2.46 150.31
  Q 68.63 150.20 135.42 150.25
  Q 140.66 150.25 141.07 150.18
  C 145.55 149.34 147.81 143.69 143.94 140.31
  C 141.82 138.46 139.18 138.75 136.42 138.75
  Q 96.58 138.75 56.74 138.75
  Q 40.12 138.75 36.77 138.33
  C -8.50 132.61 -12.81 65.00 28.36 51.30
  C 38.39 47.96 50.61 49.00 62.50 49.00
  Q 127.87 49.00 194.44 49.00
  A 0.81 0.81 0.0 0 1 195.25 49.81
  L 195.25 87.34
  A 0.91 0.91 0.0 0 1 194.34 88.25
  Q 126.28 88.20 58.07 88.31
  C 47.72 88.33 48.87 99.69 57.50 99.70
  Q 103.97 99.75 150.44 99.75
  Q 160.15 99.75 165.43 101.09
  C 203.53 110.77 207.02 165.54 174.25 184.66
  Z"
/>
<path fill="#007cc2" d="
  M 401.79 184.75
  L 401.74 188.40
  A 0.85 0.83 -89.7 0 1 400.91 189.24
  L 350.69 189.31
  A 1.37 1.25 -23.2 0 1 349.80 189.00
  L 344.54 184.50
  L 256.45 105.93
  Q 255.75 105.30 255.75 106.24
  L 255.77 184.87
  L 255.75 188.68
  A 0.64 0.63 90.0 0 1 255.12 189.32
  L 204.30 189.32
  A 0.57 0.55 89.5 0 1 203.75 188.76
  L 203.71 185.00
  L 203.75 49.90
  A 0.90 0.90 0.6 0 1 204.65 49.00
  L 254.00 49.00
  A 4.04 4.00 -23.9 0 1 256.68 50.02
  L 348.79 132.07
  Q 349.93 133.09 349.93 131.56
  L 349.93 49.69
  A 0.51 0.51 88.7 0 1 350.44 49.18
  L 401.05 49.06
  A 0.71 0.70 90.0 0 1 401.75 49.77
  L 401.79 184.75
  Z"
/>
<path fill="#007cc2" d="
  M 579.25 189.54
  L 538.50 189.24
  A 1.43 1.43 -25.6 0 1 537.61 188.93
  L 532.27 184.69
  Q 497.35 154.68 462.36 125.15
  C 459.49 122.72 459.75 122.16 459.75 126.24
  Q 459.72 155.62 459.79 185.00
  Q 459.15 186.48 459.67 187.79
  A 1.07 1.07 -10.6 0 1 458.67 189.25
  L 408.16 189.32
  A 0.68 0.66 89.6 0 1 407.50 188.65
  L 407.46 185.00
  L 407.50 49.68
  A 0.68 0.68 -0.4 0 1 408.18 49.00
  L 458.96 49.00
  A 0.73 0.72 0.0 0 1 459.69 49.72
  L 459.57 110.35
  Q 459.57 111.32 460.32 110.71
  L 536.10 49.36
  A 1.60 1.56 -64.1 0 1 537.10 49.00
  L 596.94 49.00
  Q 598.61 49.00 597.32 50.06
  L 515.88 116.69
  A 0.42 0.41 45.8 0 0 515.88 117.33
  L 599.48 188.98
  Q 600.15 189.56 599.27 189.50
  Q 589.25 188.86 579.25 189.54
  Z"
/>
<path fill="#000000" d="
  M 174.25 184.66
  L 203.71 185.00
  L 203.75 188.76
  A 0.57 0.55 89.5 0 0 204.30 189.32
  L 255.12 189.32
  A 0.64 0.63 90.0 0 0 255.75 188.68
  L 255.77 184.87
  Q 299.16 185.09 342.50 185.00
  Q 344.10 185.00 344.54 184.50
  L 349.80 189.00
  A 1.37 1.25 -23.2 0 0 350.69 189.31
  L 400.91 189.24
  A 0.85 0.83 -89.7 0 0 401.74 188.40
  L 401.79 184.75
  L 407.46 185.00
  L 407.50 188.65
  A 0.68 0.66 89.6 0 0 408.16 189.32
  L 458.67 189.25
  A 1.07 1.07 -10.6 0 0 459.67 187.79
  Q 459.15 186.48 459.79 185.00
  L 532.27 184.69
  L 537.61 188.93
  A 1.43 1.43 -25.6 0 0 538.50 189.24
  L 579.25 189.54
  C 604.34 205.70 598.16 242.19 569.25 249.25
  C 564.73 250.35 558.07 250.00 553.13 250.00
  Q 302.06 250.00 51.00 250.00
  Q 35.31 250.00 31.06 249.06
  C 2.48 242.73 -2.52 205.22 21.75 189.54
  C 33.11 188.94 47.16 189.50 55.75 189.44
  Q 97.30 189.15 154.75 189.25
  Q 164.89 189.27 174.25 184.66
  Z
  M 73.77 234.25
  C 69.44 235.20 60.96 235.95 61.36 229.18
  C 61.82 221.38 61.50 213.28 61.50 205.27
  Q 61.50 203.17 63.41 202.29
  C 67.76 200.29 78.08 199.64 76.62 208.00
  Q 76.24 210.14 78.50 210.12
  L 90.55 210.05
  A 0.66 0.60 4.9 0 0 91.17 209.57
  C 94.74 192.16 69.51 193.38 59.77 194.63
  C 54.17 195.34 46.25 198.51 46.25 204.75
  Q 46.25 214.63 46.25 224.51
  Q 46.25 231.52 46.47 232.47
  C 49.22 244.33 75.20 243.33 84.01 239.58
  C 91.47 236.41 91.65 231.47 91.11 224.19
  A 0.53 0.53 87.8 0 0 90.57 223.69
  L 77.44 223.92
  A 0.53 0.51 -89.4 0 0 76.94 224.43
  L 76.77 230.75
  Q 76.69 233.60 73.77 234.25
  Z
  M 135.80 233.44
  L 135.78 194.83
  A 0.84 0.82 89.6 0 0 134.96 194.00
  L 121.06 194.00
  A 0.81 0.81 0.0 0 0 120.25 194.81
  L 120.25 240.53
  A 0.72 0.72 0.0 0 0 120.97 241.25
  L 159.98 241.00
  A 0.52 0.52 0.0 0 0 160.50 240.48
  L 160.50 234.65
  A 0.66 0.65 0.0 0 0 159.84 234.00
  L 136.30 233.94
  A 0.50 0.50 0.0 0 1 135.80 233.44
  Z
  M 215.20 232.03
  A 1.49 1.49 -8.6 0 1 216.64 233.09
  L 218.89 240.46
  A 0.74 0.70 -7.6 0 0 219.57 240.95
  L 233.76 241.25
  A 0.53 0.52 81.7 0 0 234.27 240.56
  L 219.32 194.70
  A 0.99 0.94 79.9 0 0 218.40 194.02
  L 197.19 194.17
  A 0.72 0.68 -80.7 0 0 196.53 194.67
  L 181.65 240.52
  A 0.38 0.36 -80.7 0 0 181.99 241.02
  L 194.75 241.02
  A 0.73 0.70 -80.1 0 0 195.42 240.53
  L 198.04 232.67
  A 0.70 0.68 8.1 0 1 198.69 232.20
  L 215.20 232.03
  Z
  M 266.29 195.42
  C 258.02 197.26 252.45 205.72 259.69 212.56
  C 265.17 217.74 274.11 220.59 281.23 224.48
  C 284.80 226.43 288.98 232.45 282.49 234.25
  C 277.79 235.56 269.67 235.73 270.61 228.39
  A 1.19 1.16 -86.5 0 0 269.45 227.05
  L 256.81 227.05
  A 0.60 0.58 -85.4 0 0 256.23 227.56
  C 253.91 243.09 275.27 242.24 284.99 241.73
  C 290.83 241.42 297.15 239.59 300.07 234.37
  C 309.25 218.03 266.12 214.31 272.22 203.81
  C 274.10 200.58 279.77 200.92 282.93 201.59
  Q 286.71 202.38 286.45 207.16
  A 0.80 0.79 -88.6 0 0 287.24 208.00
  L 300.47 208.00
  A 0.53 0.52 -89.4 0 0 300.99 207.48
  C 301.17 191.11 276.63 193.13 266.29 195.42
  Z
  M 326.94 200.69
  C 321.97 208.53 329.86 214.89 336.80 217.97
  C 340.34 219.53 359.05 226.60 354.14 232.70
  C 352.07 235.28 346.17 235.04 343.30 234.51
  Q 339.37 233.79 339.54 228.51
  A 1.44 1.38 -89.2 0 0 338.15 227.02
  L 325.68 227.16
  A 0.59 0.56 -87.7 0 0 325.13 227.69
  C 323.94 240.71 337.90 241.88 347.02 242.08
  C 354.49 242.24 371.40 240.94 369.89 229.41
  C 369.20 224.18 364.77 220.86 360.19 218.80
  Q 351.95 215.09 344.17 210.75
  Q 342.68 209.92 341.82 208.45
  C 336.48 199.33 356.84 197.94 355.64 207.44
  A 0.44 0.43 -85.9 0 0 356.06 207.94
  L 369.31 208.06
  A 0.57 0.57 3.4 0 0 369.88 207.56
  C 371.36 195.18 355.94 194.06 347.63 193.94
  C 341.40 193.85 330.77 194.65 326.94 200.69
  Z
  M 411.7902 194.5935
  A 0.58 0.58 0.0 0 0 411.2112 194.0125
  L 396.9312 193.9876
  A 0.58 0.58 0.0 0 0 396.3502 194.5666
  L 396.2698 240.6465
  A 0.58 0.58 0.0 0 0 396.8488 241.2275
  L 411.1288 241.2524
  A 0.58 0.58 0.0 0 0 411.7098 240.6734
  L 411.7902 194.5935
  Z
  M 440.81 200.53
  Q 439.25 202.59 439.25 205.17
  Q 439.25 213.59 439.25 221.96
  Q 439.25 231.50 439.35 232.02
  C 441.88 244.76 469.13 243.11 477.10 239.56
  C 484.41 236.31 484.70 231.42 484.12 224.19
  A 0.56 0.53 -2.2 0 0 483.56 223.70
  L 472.34 223.73
  Q 468.97 223.74 469.50 227.01
  Q 470.57 233.50 465.95 234.47
  Q 460.67 235.58 456.19 233.60
  Q 454.50 232.86 454.50 231.01
  Q 454.50 219.45 454.50 207.89
  C 454.50 205.41 454.08 203.17 456.81 202.06
  C 461.53 200.15 471.11 199.91 469.70 208.31
  A 1.52 1.49 -85.1 0 0 471.16 210.08
  L 483.56 210.07
  A 0.60 0.58 4.5 0 0 484.15 209.58
  Q 485.98 199.13 476.50 196.00
  C 468.16 193.25 447.46 191.74 440.81 200.53
  Z
  M 512.94 200.69
  C 505.29 213.38 528.45 220.19 536.24 224.47
  C 540.23 226.67 543.96 232.90 536.85 234.43
  Q 533.13 235.22 529.30 234.52
  Q 525.37 233.79 525.54 228.51
  A 1.42 1.39 -89.0 0 0 524.15 227.04
  L 511.81 227.05
  A 0.60 0.58 -85.4 0 0 511.23 227.56
  C 508.89 243.08 530.29 242.24 539.99 241.73
  C 545.82 241.42 552.15 239.58 555.07 234.38
  C 564.26 218.00 520.96 214.30 527.25 203.74
  C 529.58 199.83 542.34 199.40 541.47 207.04
  A 0.92 0.91 3.3 0 0 542.39 208.06
  L 555.31 208.05
  A 0.57 0.54 2.8 0 0 555.87 207.57
  C 557.25 195.10 542.03 194.09 533.58 193.95
  C 527.53 193.86 516.55 194.69 512.94 200.69
  Z"
/>
<path fill="#ffffff" d="
  M 61.36 229.18
  C 60.96 235.95 69.44 235.20 73.77 234.25
  Q 76.69 233.60 76.77 230.75
  L 76.94 224.43
  A 0.53 0.51 -89.4 0 1 77.44 223.92
  L 90.57 223.69
  A 0.53 0.53 87.8 0 1 91.11 224.19
  C 91.65 231.47 91.47 236.41 84.01 239.58
  C 75.20 243.33 49.22 244.33 46.47 232.47
  Q 46.25 231.52 46.25 224.51
  Q 46.25 214.63 46.25 204.75
  C 46.25 198.51 54.17 195.34 59.77 194.63
  C 69.51 193.38 94.74 192.16 91.17 209.57
  A 0.66 0.60 4.9 0 1 90.55 210.05
  L 78.50 210.12
  Q 76.24 210.14 76.62 208.00
  C 78.08 199.64 67.76 200.29 63.41 202.29
  Q 61.50 203.17 61.50 205.27
  C 61.50 213.28 61.82 221.38 61.36 229.18
  Z"
/>
<path fill="#ffffff" d="
  M 136.30 233.94
  L 159.84 234.00
  A 0.66 0.65 -0.0 0 1 160.50 234.65
  L 160.50 240.48
  A 0.52 0.52 0.0 0 1 159.98 241.00
  L 120.97 241.25
  A 0.72 0.72 0.0 0 1 120.25 240.53
  L 120.25 194.81
  A 0.81 0.81 0.0 0 1 121.06 194.00
  L 134.96 194.00
  A 0.84 0.82 89.6 0 1 135.78 194.83
  L 135.80 233.44
  A 0.50 0.50 0.0 0 0 136.30 233.94
  Z"
/>
<path fill="#ffffff" d="
  M 215.20 232.03
  L 198.69 232.20
  A 0.70 0.68 8.1 0 0 198.04 232.67
  L 195.42 240.53
  A 0.73 0.70 -80.1 0 1 194.75 241.02
  L 181.99 241.02
  A 0.38 0.36 -80.7 0 1 181.65 240.52
  L 196.53 194.67
  A 0.72 0.68 -80.7 0 1 197.19 194.17
  L 218.40 194.02
  A 0.99 0.94 79.9 0 1 219.32 194.70
  L 234.27 240.56
  A 0.53 0.52 81.7 0 1 233.76 241.25
  L 219.57 240.95
  A 0.74 0.70 -7.6 0 1 218.89 240.46
  L 216.64 233.09
  A 1.49 1.49 -8.6 0 0 215.20 232.03
  Z
  M 206.96 203.87
  L 200.31 225.41
  A 0.46 0.46 8.4 0 0 200.75 226.00
  L 213.68 226.00
  A 0.41 0.41 -8.8 0 0 214.07 225.47
  L 207.45 203.88
  Q 207.20 203.08 206.96 203.87
  Z"
/>
<path fill="#ffffff" d="
  M 259.69 212.56
  C 252.45 205.72 258.02 197.26 266.29 195.42
  C 276.63 193.13 301.17 191.11 300.99 207.48
  A 0.53 0.52 -89.4 0 1 300.47 208.00
  L 287.24 208.00
  A 0.80 0.79 -88.6 0 1 286.45 207.16
  Q 286.71 202.38 282.93 201.59
  C 279.77 200.92 274.10 200.58 272.22 203.81
  C 266.12 214.31 309.25 218.03 300.07 234.37
  C 297.15 239.59 290.83 241.42 284.99 241.73
  C 275.27 242.24 253.91 243.09 256.23 227.56
  A 0.60 0.58 -85.4 0 1 256.81 227.05
  L 269.45 227.05
  A 1.19 1.16 -86.5 0 1 270.61 228.39
  C 269.67 235.73 277.79 235.56 282.49 234.25
  C 288.98 232.45 284.80 226.43 281.23 224.48
  C 274.11 220.59 265.17 217.74 259.69 212.56
  Z"
/>
<path fill="#ffffff" d="
  M 326.94 200.69
  C 330.77 194.65 341.40 193.85 347.63 193.94
  C 355.94 194.06 371.36 195.18 369.88 207.56
  A 0.57 0.57 3.4 0 1 369.31 208.06
  L 356.06 207.94
  A 0.44 0.43 -85.9 0 1 355.64 207.44
  C 356.84 197.94 336.48 199.33 341.82 208.45
  Q 342.68 209.92 344.17 210.75
  Q 351.95 215.09 360.19 218.80
  C 364.77 220.86 369.20 224.18 369.89 229.41
  C 371.40 240.94 354.49 242.24 347.02 242.08
  C 337.90 241.88 323.94 240.71 325.13 227.69
  A 0.59 0.56 -87.7 0 1 325.68 227.16
  L 338.15 227.02
  A 1.44 1.38 -89.2 0 1 339.54 228.51
  Q 339.37 233.79 343.30 234.51
  C 346.17 235.04 352.07 235.28 354.14 232.70
  C 359.05 226.60 340.34 219.53 336.80 217.97
  C 329.86 214.89 321.97 208.53 326.94 200.69
  Z"
/>
<rect fill="#ffffff" x="-7.72" y="-23.62" transform="translate(404.03,217.62) rotate(0.1)" width="15.44" height="47.24" rx="0.58"/>
<path fill="#ffffff" d="
  M 440.81 200.53
  C 447.46 191.74 468.16 193.25 476.50 196.00
  Q 485.98 199.13 484.15 209.58
  A 0.60 0.58 4.5 0 1 483.56 210.07
  L 471.16 210.08
  A 1.52 1.49 -85.1 0 1 469.70 208.31
  C 471.11 199.91 461.53 200.15 456.81 202.06
  C 454.08 203.17 454.50 205.41 454.50 207.89
  Q 454.50 219.45 454.50 231.01
  Q 454.50 232.86 456.19 233.60
  Q 460.67 235.58 465.95 234.47
  Q 470.57 233.50 469.50 227.01
  Q 468.97 223.74 472.34 223.73
  L 483.56 223.70
  A 0.56 0.53 -2.2 0 1 484.12 224.19
  C 484.70 231.42 484.41 236.31 477.10 239.56
  C 469.13 243.11 441.88 244.76 439.35 232.02
  Q 439.25 231.50 439.25 221.96
  Q 439.25 213.59 439.25 205.17
  Q 439.25 202.59 440.81 200.53
  Z"
/>
<path fill="#ffffff" d="
  M 512.94 200.69
  C 516.55 194.69 527.53 193.86 533.58 193.95
  C 542.03 194.09 557.25 195.10 555.87 207.57
  A 0.57 0.54 2.8 0 1 555.31 208.05
  L 542.39 208.06
  A 0.92 0.91 3.3 0 1 541.47 207.04
  C 542.34 199.40 529.58 199.83 527.25 203.74
  C 520.96 214.30 564.26 218.00 555.07 234.38
  C 552.15 239.58 545.82 241.42 539.99 241.73
  C 530.29 242.24 508.89 243.08 511.23 227.56
  A 0.60 0.58 -85.4 0 1 511.81 227.05
  L 524.15 227.04
  A 1.42 1.39 -89.0 0 1 525.54 228.51
  Q 525.37 233.79 529.30 234.52
  Q 533.13 235.22 536.85 234.43
  C 543.96 232.90 540.23 226.67 536.24 224.47
  C 528.45 220.19 505.29 213.38 512.94 200.69
  Z"
/>
<path fill="#000000" d="
  M 206.96 203.87
  Q 207.20 203.08 207.45 203.88
  L 214.07 225.47
  A 0.41 0.41 -8.8 0 1 213.68 226.00
  L 200.75 226.00
  A 0.46 0.46 8.4 0 1 200.31 225.41
  L 206.96 203.87
  Z"
/>
</svg>
