<?xml version="1.0" encoding="UTF-8" standalone="no"?>
<!DOCTYPE svg PUBLIC "-//W3C//DTD SVG 1.1//EN" "http://www.w3.org/Graphics/SVG/1.1/DTD/svg11.dtd">
<svg xmlns="http://www.w3.org/2000/svg" version="1.1" viewBox="0 0 600 300">
<path stroke="#000000" stroke-width="2.00" fill="none" stroke-linecap="butt" vector-effect="non-scaling-stroke" d="
  M 595.98 147.99
  Q 595.46 146.16 595.06 148.36
  C 594.65 150.67 596.65 150.38 595.98 147.99"
/>
<path fill="#000000" d="
  M 455.72 20.26
  C 451.25 16.04 442.59 17.90 440.56 24.72
  Q 439.73 27.53 439.69 27.62
  Q 422.48 77.68 405.38 128.36
  A 1.31 1.31 9.3 0 1 404.14 129.25
  Q 368.75 129.25 334.25 129.25
  Q 325.66 129.25 319.98 126.71
  Q 298.69 117.17 298.49 93.50
  Q 298.28 68.29 298.25 43.08
  Q 298.24 34.43 299.42 30.04
  C 303.68 14.21 317.92 4.32 334.25 4.29
  Q 361.50 4.25 389.48 4.25
  A 1.27 1.26 -0.0 0 1 390.75 5.51
  L 390.70 20.57
  A 1.45 1.43 0.2 0 1 389.24 22.00
  Q 361.61 21.96 335.84 22.05
  C 321.88 22.09 316.00 29.08 316.00 42.67
  Q 316.00 67.08 316.00 91.49
  Q 316.00 98.03 317.38 101.30
  C 320.31 108.29 326.18 111.44 333.78 111.58
  Q 352.29 111.92 372.11 111.74
  A 0.93 0.91 -90.0 0 0 373.01 110.82
  L 373.18 65.68
  A 0.67 0.67 -89.6 0 0 372.51 65.00
  L 342.53 65.00
  A 1.38 1.36 90.0 0 1 341.17 63.62
  L 341.24 48.39
  A 1.15 1.13 -89.7 0 1 342.37 47.25
  L 389.76 47.25
  A 0.99 0.99 1.4 0 1 390.75 48.24
  L 390.69 114.82
  A 0.54 0.34 83.3 0 0 391.16 115.40
  C 391.99 115.05 420.00 30.17 422.88 21.71
  C 429.95 1.01 457.19 -5.72 471.81 12.71
  Q 474.40 15.98 476.83 23.04
  C 488.90 58.11 500.44 93.34 512.66 128.47
  A 0.72 0.72 -9.4 0 1 511.97 129.43
  L 442.72 129.25
  A 0.72 0.71 -0.0 0 1 442.00 128.54
  L 442.00 113.03
  A 1.28 1.28 89.8 0 1 443.28 111.75
  L 487.19 111.69
  A 0.93 0.93 80.4 0 0 488.07 110.45
  Q 473.83 69.30 459.88 28.07
  Q 457.94 22.35 455.72 20.26
  Z"
/>
<path fill="#000000" d="
  M 160.31 72.94
  C 173.07 82.70 169.70 102.31 154.04 107.20
  Q 151.49 108.00 146.38 107.99
  Q 120.06 107.96 94.00 108.06
  A 0.75 0.75 0.0 0 1 93.25 107.31
  L 93.25 91.31
  A 0.81 0.81 0.0 0 1 94.06 90.50
  Q 121.37 90.50 147.50 90.69
  Q 150.05 90.70 150.40 88.82
  Q 150.82 86.50 148.46 86.50
  C 141.20 86.50 132.93 86.98 126.57 85.80
  C 103.97 81.61 88.86 58.61 94.24 36.49
  C 99.24 15.94 115.07 4.70 135.94 4.38
  Q 162.38 3.98 188.87 4.44
  A 0.83 0.82 0.4 0 1 189.69 5.26
  L 189.75 21.36
  A 0.65 0.64 -0.0 0 1 189.10 22.00
  Q 161.87 22.00 135.00 22.00
  C 102.45 22.00 103.51 70.13 136.25 68.82
  C 145.37 68.46 153.58 67.79 160.31 72.94
  Z"
/>
<path fill="#000000" d="
  M 235.17 111.70
  Q 262.75 111.79 290.74 111.75
  A 0.95 0.94 -0.0 0 1 291.69 112.69
  L 291.75 128.61
  A 0.65 0.64 0.0 0 1 291.10 129.25
  Q 261.88 129.25 233.00 129.25
  C 216.67 129.25 203.45 119.29 199.12 104.02
  Q 197.75 99.17 197.75 89.85
  Q 197.75 67.45 197.75 45.05
  Q 197.75 34.57 198.96 30.05
  C 201.96 18.80 211.18 9.24 222.26 5.87
  Q 227.37 4.32 239.52 4.28
  Q 265.14 4.21 290.77 4.25
  A 1.17 1.16 -0.0 0 1 291.94 5.41
  L 292.00 21.01
  A 0.99 0.99 -0.6 0 1 291.01 22.00
  Q 263.02 21.96 235.04 22.05
  C 222.79 22.09 215.50 28.10 215.50 40.79
  Q 215.50 66.56 215.50 92.32
  C 215.50 105.53 222.15 111.66 235.17 111.70
  Z"
/>
<path fill="#000000" d="
  M 442.04 95.15
  Q 441.86 93.68 441.38 95.09
  L 430.11 128.40
  A 1.34 1.27 8.5 0 1 428.87 129.26
  L 410.36 129.41
  A 0.96 0.94 9.1 0 1 409.44 128.17
  Q 426.54 78.01 443.25 28.75
  C 444.12 26.17 444.52 24.06 446.95 22.65
  C 452.29 19.56 454.63 24.17 456.13 28.59
  Q 469.41 67.91 482.82 107.21
  A 0.80 0.78 -9.4 0 1 482.06 108.25
  L 444.30 108.17
  Q 441.60 108.17 441.89 105.52
  Q 442.56 99.39 442.04 95.15
  Z
  M 443.77 88.11
  A 0.30 0.30 11.0 0 0 444.05 88.51
  L 455.39 88.49
  A 0.30 0.30 -11.5 0 0 455.67 88.09
  L 449.97 72.00
  A 0.30 0.30 -43.8 0 0 449.41 72.00
  L 443.77 88.11
  Z"
/>
<path fill="#000000" d="
  M 154.75 47.75
  C 186.21 52.90 200.19 88.67 181.06 113.56
  Q 172.97 124.09 160.73 127.72
  Q 155.64 129.23 145.60 129.35
  Q 120.41 129.66 94.32 129.49
  A 1.04 1.01 0.3 0 1 93.28 128.47
  L 93.47 112.25
  A 0.53 0.51 0.6 0 1 94.00 111.75
  Q 120.92 111.91 147.83 111.56
  C 177.93 111.18 180.52 70.14 151.75 65.25
  C 145.95 64.26 135.98 65.74 129.81 64.31
  C 110.38 59.79 109.58 31.93 129.07 26.71
  Q 131.70 26.00 146.00 26.00
  Q 166.03 26.00 186.06 26.00
  C 187.64 26.00 190.08 24.92 189.86 27.93
  C 189.52 32.59 189.75 37.53 189.75 42.47
  A 1.03 1.03 0.0 0 1 188.72 43.50
  L 134.06 43.56
  A 1.17 1.10 20.1 0 0 133.22 43.92
  C 130.32 47.17 134.64 47.53 136.62 47.43
  Q 148.95 46.80 154.75 47.75
  Z"
/>
<path fill="#000000" d="
  M 237.82 47.19
  L 278.00 47.25
  A 1.28 1.22 -0.5 0 1 279.28 48.45
  L 279.47 63.89
  A 1.13 1.10 -0.3 0 1 278.34 65.00
  L 220.49 65.00
  A 1.24 1.24 -1.0 0 1 219.25 63.76
  Q 219.25 53.25 219.10 42.25
  Q 218.86 25.81 235.25 25.79
  Q 263.00 25.75 291.32 25.75
  A 0.68 0.68 0.4 0 1 292.00 26.43
  L 292.00 42.51
  A 0.99 0.99 -1.4 0 1 291.01 43.50
  L 241.22 43.50
  Q 239.80 43.50 238.52 44.11
  Q 236.90 44.88 237.20 46.70
  A 0.64 0.60 -4.9 0 0 237.82 47.19
  Z"
/>
<path fill="#000000" d="
  M 322.71 31.20
  Q 326.79 26.03 333.50 25.97
  Q 361.13 25.75 389.94 25.75
  A 0.81 0.81 -0.0 0 1 390.75 26.56
  L 390.75 42.47
  A 1.03 1.03 -89.8 0 1 389.72 43.50
  Q 365.12 43.50 341.75 43.50
  C 338.08 43.50 337.50 45.54 337.50 48.84
  Q 337.50 66.91 337.50 84.98
  C 337.50 92.22 343.99 90.01 348.76 90.44
  Q 352.37 90.76 351.52 87.33
  A 1.10 1.09 82.8 0 0 350.46 86.50
  L 342.15 86.50
  A 1.16 1.15 -87.9 0 1 341.00 85.26
  Q 341.54 77.53 341.06 69.80
  A 0.99 0.99 88.4 0 1 342.05 68.75
  L 368.38 68.75
  A 0.81 0.80 -0.0 0 1 369.19 69.55
  L 369.25 106.76
  A 1.24 1.24 0.9 0 1 368.01 108.00
  Q 351.65 108.00 335.30 108.00
  Q 330.66 108.00 327.93 106.74
  C 318.88 102.58 319.75 95.45 319.75 85.41
  Q 319.75 65.40 319.75 45.40
  C 319.75 38.71 319.28 35.55 322.71 31.20
  Z"
/>
<path fill="#000000" d="
  M 237.06 87.06
  Q 237.17 90.42 240.81 90.44
  Q 264.91 90.55 290.96 90.50
  A 0.72 0.71 -0.4 0 1 291.69 91.21
  L 291.74 106.98
  A 0.77 0.76 -0.7 0 1 290.98 107.75
  Q 265.38 108.19 239.50 108.00
  C 234.58 107.96 230.51 108.40 226.42 106.23
  C 219.87 102.76 219.25 97.36 219.25 89.91
  Q 219.25 79.83 219.25 69.74
  A 0.99 0.99 -0.5 0 1 220.24 68.75
  L 278.41 68.75
  A 1.09 1.07 0.3 0 1 279.50 69.83
  L 279.45 84.86
  A 1.67 1.65 0.2 0 1 277.78 86.50
  L 237.56 86.56
  A 0.50 0.48 -1.1 0 0 237.06 87.06
  Z"
/>
<path fill="#000000" d="
  M 107.15 205.60
  C 117.53 204.58 132.79 202.19 137.41 191.03
  C 139.71 185.49 135.88 179.43 131.21 176.52
  Q 122.48 171.10 114.75 170.25
  C 109.84 169.71 104.75 168.69 100.05 168.72
  C 79.72 168.84 61.87 172.36 44.56 183.06
  Q 39.05 186.47 38.40 192.08
  C 38.08 194.80 37.71 199.55 33.56 195.94
  Q 28.11 191.19 8.91 170.56
  A 1.44 1.10 28.2 0 1 8.52 169.70
  Q 8.48 167.64 10.75 167.75
  C 18.28 168.12 23.21 164.05 29.34 160.82
  C 46.21 151.96 63.79 146.95 82.90 145.87
  C 84.40 145.79 85.86 145.32 87.50 145.31
  C 101.17 145.23 112.75 144.97 127.79 147.80
  C 149.27 151.83 179.53 165.61 175.01 193.00
  C 172.91 205.70 164.09 209.25 152.75 214.00
  C 148.67 215.71 152.80 217.18 154.26 217.62
  Q 166.44 221.30 175.95 229.79
  C 189.76 242.11 190.72 262.03 177.44 275.19
  C 163.05 289.43 137.42 296.00 117.25 297.28
  C 82.91 299.47 47.24 296.38 16.19 281.81
  Q 13.83 280.71 9.23 279.61
  A 1.89 1.35 -40.4 0 0 8.28 279.69
  C 2.99 281.50 -1.21 281.50 2.71 274.77
  Q 10.17 261.93 18.08 249.37
  C 19.65 246.87 22.88 243.93 24.50 248.75
  Q 26.48 254.65 30.76 257.52
  C 47.76 268.95 69.13 272.68 90.06 273.94
  Q 96.41 274.32 100.76 274.08
  C 112.36 273.45 125.87 272.81 136.18 267.54
  C 152.35 259.27 153.51 243.39 136.27 235.52
  C 124.41 230.10 110.69 228.70 97.85 228.66
  C 90.07 228.63 78.15 228.20 72.24 233.51
  Q 70.69 234.90 69.69 233.08
  Q 68.84 231.52 68.86 229.75
  Q 69.00 217.38 69.05 205.00
  C 69.07 200.49 71.91 202.05 74.21 203.40
  C 82.54 208.28 97.75 206.52 107.15 205.60
  Z"
/>
<path fill="#000000" d="
  M 375.69 300.00
  L 373.93 300.01
  C 372.22 297.54 368.87 295.55 365.87 295.56
  Q 282.61 296.06 199.36 295.51
  C 196.14 295.49 195.23 294.41 195.50 291.25
  C 196.55 278.88 200.00 269.96 208.29 260.43
  Q 216.17 251.36 225.81 245.56
  C 249.28 231.45 278.51 222.57 302.94 212.44
  C 310.60 209.26 319.18 205.06 324.46 197.56
  Q 327.12 193.80 327.60 192.55
  C 329.44 187.80 326.87 181.81 323.49 178.77
  Q 318.63 174.41 312.45 172.27
  C 291.06 164.84 267.50 169.14 248.91 181.17
  C 243.45 184.70 234.31 191.67 235.16 198.82
  C 235.77 203.99 234.59 205.85 230.19 201.77
  Q 217.43 189.96 204.98 177.84
  C 203.69 176.58 202.67 174.29 205.50 174.00
  Q 210.47 173.50 213.04 171.49
  Q 239.17 151.08 270.19 146.44
  C 298.04 142.27 340.42 146.45 359.35 169.88
  C 366.29 178.46 367.80 190.49 364.17 200.81
  C 360.73 210.63 354.08 217.06 344.70 222.40
  C 329.44 231.08 315.09 236.02 297.72 241.14
  C 278.98 246.67 258.70 253.34 243.36 264.83
  Q 240.92 266.65 239.72 269.37
  A 0.99 0.99 15.9 0 0 240.49 270.75
  Q 244.61 271.31 248.75 271.28
  Q 307.00 270.85 365.25 270.97
  Q 368.33 270.98 370.92 269.63
  C 373.24 268.42 377.33 262.83 377.30 271.00
  Q 377.25 283.82 377.25 296.65
  C 377.25 298.25 377.76 299.50 375.69 300.00
  Z"
/>
<path fill="#000000" d="
  M 592.96 148.25
  Q 592.40 149.88 593.21 151.78
  Q 593.47 152.40 593.75 151.79
  Q 594.94 149.21 593.21 148.00
  Q 594.62 145.92 596.87 146.86
  A 2.70 2.68 -84.4 0 1 598.47 148.82
  C 599.81 155.67 592.30 155.03 592.19 150.28
  A 0.46 0.45 82.3 0 0 591.63 149.85
  C 585.22 151.36 580.53 153.09 575.72 157.92
  Q 547.74 186.03 520.12 214.50
  C 518.17 216.50 516.90 217.22 519.56 219.94
  Q 565.68 267.01 582.38 283.76
  C 587.20 288.59 590.43 289.64 596.75 291.50
  Q 600.60 292.63 597.67 294.72
  A 1.71 1.49 24.2 0 1 596.74 295.00
  Q 569.75 295.00 542.75 295.08
  Q 537.14 295.10 540.77 291.47
  Q 542.29 289.96 540.81 288.46
  L 496.05 242.93
  Q 494.03 240.87 491.95 242.93
  Q 470.44 264.23 449.40 286.19
  C 447.37 288.31 444.93 289.78 448.12 292.68
  A 1.45 0.81 29.3 0 1 448.61 293.48
  C 448.70 294.46 447.71 294.94 446.82 294.94
  Q 419.43 295.00 392.04 295.06
  Q 390.66 295.06 389.94 294.59
  C 386.34 292.26 394.97 290.29 395.81 290.05
  C 401.64 288.41 404.02 285.64 409.07 280.51
  Q 438.70 250.42 468.31 220.31
  C 470.56 218.03 470.22 216.61 468.05 214.41
  Q 440.30 186.19 412.43 158.08
  C 407.61 153.22 403.97 151.76 397.55 150.46
  Q 395.55 150.05 395.94 148.05
  Q 396.19 146.72 398.25 146.72
  Q 426.34 146.70 454.44 146.81
  A 1.23 0.99 -16.7 0 1 455.30 147.16
  Q 456.47 148.48 454.69 149.69
  Q 452.10 151.45 453.81 153.19
  L 492.21 192.10
  Q 494.12 194.03 496.05 192.07
  L 534.25 153.25
  Q 536.18 151.29 533.44 149.56
  C 531.16 148.13 532.46 146.75 534.44 146.75
  Q 562.56 146.71 590.68 146.81
  A 1.04 0.89 69.1 0 1 591.45 147.23
  Q 592.02 147.99 592.96 148.25
  Z
  M 595.98 147.99
  Q 595.46 146.16 595.06 148.36
  C 594.65 150.67 596.65 150.38 595.98 147.99
  Z
  M 596.92 150.12
  Q 596.40 151.16 597.25 151.71
  A 0.46 0.44 -61.7 0 0 597.91 151.49
  C 598.62 149.78 597.04 147.21 597.14 149.19
  Q 597.16 149.65 596.92 150.12
  Z
  M 595.65 152.98
  Q 596.60 153.24 596.53 152.30
  A 0.96 0.86 11.3 0 0 595.99 151.58
  Q 594.55 150.91 595.01 152.34
  A 0.98 0.90 87.6 0 0 595.65 152.98
  Z"
/>
<path fill="#000000" d="
  M 595.98 147.99
  C 596.65 150.38 594.65 150.67 595.06 148.36
  Q 595.46 146.16 595.98 147.99
  Z"
/>
</svg>
