<?xml version="1.0" encoding="UTF-8" standalone="no"?>
<!DOCTYPE svg PUBLIC "-//W3C//DTD SVG 1.1//EN" "http://www.w3.org/Graphics/SVG/1.1/DTD/svg11.dtd">
<svg xmlns="http://www.w3.org/2000/svg" version="1.1" viewBox="0 0 600 301">
<path fill="#000000" d="
  M 51.81 52.81
  L 51.75 91.58
  A 0.68 0.67 0.0 0 0 52.43 92.25
  L 60.94 92.25
  A 0.56 0.56 0.0 0 1 61.50 92.81
  L 61.50 130.48
  A 0.71 0.70 -90.0 0 1 60.80 131.19
  L 39.17 131.25
  A 1.95 1.90 66.9 0 1 37.81 130.68
  L 10.62 103.49
  A 1.23 1.22 -68.1 0 1 10.25 102.61
  L 10.25 42.75
  A 1.23 1.20 -23.0 0 1 10.61 41.89
  L 38.15 14.10
  A 2.05 2.02 -67.2 0 1 39.59 13.50
  L 90.25 13.50
  A 1.21 1.14 -20.9 0 1 91.10 13.85
  L 118.40 41.14
  A 1.30 1.22 -69.0 0 1 118.75 42.00
  L 118.93 76.60
  A 0.64 0.64 89.6 0 1 118.29 77.25
  L 80.07 77.19
  A 0.52 0.51 89.4 0 1 79.56 76.68
  L 79.32 52.94
  A 0.52 0.51 -89.4 0 0 78.82 52.42
  L 52.31 52.30
  A 0.51 0.50 90.0 0 0 51.81 52.81
  Z"
/>
<path fill="#000000" d="
  M 172.56 178.69
  L 180.83 178.75
  A 0.67 0.66 0.0 0 1 181.50 179.41
  L 181.50 216.37
  A 0.88 0.87 -90.0 0 1 180.63 217.25
  L 159.82 217.19
  A 1.23 1.20 67.0 0 1 158.96 216.83
  L 132.41 190.28
  A 2.25 2.21 -68.1 0 1 131.75 188.69
  L 131.75 14.00
  A 0.69 0.68 0.4 0 1 132.45 13.32
  L 171.45 13.42
  A 0.98 0.96 0.3 0 1 172.43 14.39
  C 171.90 69.05 172.59 123.76 172.31 178.43
  A 0.26 0.25 90.0 0 0 172.56 178.69
  Z"
/>
<path fill="#000000" d="
  M 462.06 216.80
  A 0.45 0.45 0.0 0 1 461.61 217.25
  L 374.94 217.25
  A 0.69 0.69 0.0 0 1 374.25 216.56
  L 374.25 14.40
  A 0.90 0.90 89.6 0 1 375.15 13.50
  L 461.43 13.56
  A 0.51 0.50 0.0 0 1 461.94 14.06
  L 462.00 50.64
  A 0.86 0.86 -0.4 0 1 461.14 51.50
  L 415.68 51.50
  A 0.68 0.68 0.4 0 0 415.00 52.18
  L 415.00 177.43
  A 0.83 0.82 -0.0 0 0 415.83 178.25
  L 461.43 178.31
  A 0.51 0.51 0.0 0 1 461.94 178.82
  L 462.06 216.80
  Z"
/>
<rect fill="#000000" x="474.75" y="13.49" width="41.50" height="203.76" rx="0.28"/>
<path fill="#000000" d="
  M 218.46 213.70
  C 216.49 215.60 216.01 217.55 212.59 217.35
  C 205.49 216.93 198.23 217.25 191.33 217.25
  A 0.90 0.90 0.0 0 1 190.43 216.35
  L 190.50 179.41
  A 0.66 0.66 0.0 0 1 191.16 178.75
  L 201.83 178.75
  A 0.92 0.92 0.0 0 0 202.75 177.83
  L 202.75 14.01
  A 0.51 0.51 89.3 0 1 203.26 13.50
  L 242.64 13.50
  A 0.61 0.61 -0.7 0 1 243.25 14.11
  L 243.31 188.11
  A 1.96 1.95 67.3 0 1 242.75 189.48
  Q 230.42 202.11 218.46 213.70
  Z"
/>
<rect fill="#000000" x="256.26" y="13.50" width="39.24" height="203.76" rx="0.55"/>
<path fill="#000000" d="
  M 358.33 39.70
  C 361.61 43.02 361.24 41.99 361.25 46.81
  Q 361.38 82.41 361.25 118.00
  A 1.24 1.19 68.4 0 1 360.90 118.86
  L 332.81 147.30
  A 3.30 3.13 21.1 0 1 330.50 148.25
  L 305.41 148.25
  A 0.66 0.66 0.2 0 1 304.75 147.59
  L 304.75 110.63
  A 0.88 0.88 0.0 0 1 305.63 109.75
  L 319.90 109.75
  A 0.85 0.85 0.2 0 0 320.75 108.90
  L 320.75 53.60
  A 0.85 0.85 -0.2 0 0 319.90 52.75
  L 305.25 52.75
  A 0.50 0.50 0.0 0 1 304.75 52.25
  L 304.75 14.06
  A 0.56 0.56 -1.3 0 1 305.31 13.50
  L 331.75 13.50
  A 1.23 1.20 67.0 0 1 332.61 13.86
  Q 345.52 26.73 358.33 39.70
  Z"
/>
<path fill="#000000" d="
  M 545.49 51.87
  A 1.11 1.10 -89.7 0 0 544.39 50.75
  L 526.13 50.75
  A 0.88 0.88 -88.0 0 1 525.25 49.87
  L 525.25 14.25
  A 0.69 0.68 -90.0 0 1 525.93 13.56
  L 555.00 13.50
  A 1.19 1.15 -21.4 0 1 555.84 13.85
  Q 566.04 24.32 576.49 34.54
  C 578.65 36.65 582.04 40.44 585.29 43.00
  A 1.04 0.96 21.3 0 1 585.68 43.80
  L 585.26 93.75
  A 1.27 1.24 -22.5 0 1 584.89 94.61
  L 563.82 115.44
  A 0.87 0.86 -45.0 0 0 563.81 116.67
  L 585.11 137.72
  A 1.58 1.51 23.4 0 1 585.57 138.81
  L 585.69 216.59
  A 0.66 0.66 -0.1 0 1 585.03 217.25
  L 545.75 217.25
  A 0.50 0.50 0.0 0 1 545.25 216.75
  L 545.25 136.12
  A 0.87 0.87 0.0 0 0 544.38 135.25
  L 526.12 135.25
  A 0.81 0.80 -0.0 0 1 525.31 134.45
  L 525.25 97.53
  A 0.78 0.78 -89.9 0 1 526.03 96.75
  L 544.25 96.75
  A 1.02 1.01 90.0 0 0 545.26 95.73
  L 545.49 51.87
  Z"
/>
<rect fill="#000000" x="423.25" y="90.25" width="31.00" height="38.24" rx="0.44"/>
<path fill="#000000" d="
  M 78.94 131.50
  L 70.37 131.28
  A 0.63 0.58 0.5 0 1 69.75 130.70
  L 69.75 92.82
  A 0.55 0.53 -89.5 0 1 70.29 92.27
  L 84.75 92.47
  A 1.31 1.20 66.1 0 1 85.61 92.85
  L 118.40 125.64
  A 1.24 1.19 -68.4 0 1 118.75 126.50
  L 118.75 187.59
  A 1.91 1.87 67.9 0 1 118.20 188.93
  L 90.54 216.58
  A 2.27 2.24 22.0 0 1 88.93 217.25
  L 39.96 217.25
  A 2.01 1.98 -22.2 0 1 38.55 216.67
  L 10.60 188.60
  A 1.20 1.18 22.8 0 1 10.25 187.76
  L 10.25 151.06
  A 0.81 0.81 -86.6 0 1 11.06 150.25
  L 49.47 150.25
  A 0.78 0.78 0.0 0 1 50.25 151.03
  L 50.25 177.43
  A 0.82 0.82 0.4 0 0 51.07 178.25
  L 78.83 178.25
  A 0.67 0.67 0.0 0 0 79.50 177.58
  L 79.44 132.05
  A 0.55 0.51 -89.5 0 0 78.94 131.50
  Z"
/>
<path fill="#000000" d="
  M 428.22 243.40
  C 426.46 241.58 423.84 239.42 421.92 237.20
  Q 421.47 236.68 422.16 236.68
  L 440.02 236.74
  A 2.21 2.15 66.8 0 1 441.51 237.36
  L 460.64 256.16
  A 0.51 0.49 -45.0 0 0 461.35 256.15
  L 480.65 237.10
  A 1.21 1.14 20.9 0 1 481.50 236.75
  L 499.21 236.69
  Q 500.32 236.68 499.53 237.47
  L 472.75 264.00
  A 0.35 0.35 0.0 0 0 472.75 264.50
  L 502.49 294.11
  Q 504.11 295.72 501.80 295.70
  L 486.38 295.50
  A 1.23 1.20 67.6 0 1 485.51 295.13
  L 461.67 271.06
  A 0.87 0.86 -45.0 0 0 460.44 271.07
  L 436.60 295.15
  A 1.24 1.14 20.8 0 1 435.75 295.49
  L 419.30 295.69
  Q 418.04 295.70 418.92 294.83
  L 448.73 265.03
  A 0.83 0.83 -45.7 0 0 448.72 263.85
  Q 438.39 253.89 428.22 243.40
  Z"
/>
<path fill="#000000" d="
  M 163.34 259.46
  A 0.68 0.66 -90.0 0 1 164.00 260.14
  L 164.00 295.06
  A 0.52 0.51 -0.6 0 1 163.49 295.57
  L 100.06 295.68
  A 1.20 1.12 66.7 0 1 99.23 295.32
  L 89.17 285.07
  A 2.38 2.21 24.2 0 1 88.49 283.46
  L 88.32 246.56
  A 1.32 1.07 71.6 0 1 88.65 245.69
  L 96.69 237.49
  A 2.68 2.39 19.8 0 1 98.53 236.75
  L 163.44 236.75
  A 0.56 0.56 0.0 0 1 164.00 237.31
  L 164.00 246.98
  A 0.79 0.78 -0.4 0 1 163.22 247.76
  L 103.18 247.93
  A 0.51 0.48 -90.0 0 0 102.70 248.44
  L 102.56 283.43
  A 0.51 0.50 90.0 0 0 103.06 283.94
  L 150.57 283.82
  A 0.52 0.51 -89.4 0 0 151.08 283.31
  L 151.32 271.45
  A 0.51 0.51 -89.4 0 0 150.81 270.93
  L 127.81 270.69
  A 0.56 0.51 0.1 0 1 127.26 270.19
  L 127.05 260.24
  A 0.80 0.77 -0.7 0 1 127.85 259.45
  L 163.34 259.46
  Z"
/>
<path fill="#000000" d="
  M 248.94 295.69
  C 245.10 295.30 240.16 295.35 236.32 295.65
  A 1.07 1.07 65.6 0 1 235.47 295.33
  L 213.30 273.16
  A 1.27 1.18 -21.1 0 0 212.43 272.81
  L 190.42 272.75
  A 0.76 0.73 90.0 0 0 189.69 273.51
  L 189.58 294.81
  A 0.53 0.52 -90.0 0 1 189.06 295.34
  L 177.15 295.47
  A 0.92 0.89 89.7 0 1 176.25 294.55
  L 176.25 237.27
  A 0.52 0.52 0.0 0 1 176.77 236.75
  L 238.75 236.75
  A 1.41 1.39 64.4 0 1 239.64 237.07
  Q 244.73 241.28 248.87 246.42
  A 1.62 1.16 -72.2 0 1 249.16 247.32
  L 249.16 259.94
  A 1.29 1.03 72.0 0 1 248.84 260.79
  Q 244.14 265.49 239.44 270.19
  C 236.24 273.39 232.52 271.56 228.05 272.24
  Q 227.56 272.31 227.92 272.67
  L 249.44 294.56
  Q 250.72 295.87 248.94 295.69
  Z
  M 234.38 248.09
  A 0.34 0.34 0.0 0 0 234.04 247.75
  L 191.52 247.75
  A 0.34 0.34 0.0 0 0 191.18 248.09
  L 191.18 260.17
  A 0.34 0.34 0.0 0 0 191.52 260.51
  L 234.04 260.51
  A 0.34 0.34 0.0 0 0 234.38 260.17
  L 234.38 248.09
  Z"
/>
<path fill="#000000" d="
  M 301.95 248.74
  L 293.94 248.63
  A 0.92 0.72 -73.3 0 0 293.21 249.14
  L 270.24 294.95
  A 0.95 0.93 -76.7 0 1 269.40 295.48
  L 256.91 295.50
  A 0.55 0.54 -76.5 0 1 256.43 294.70
  L 285.21 237.39
  A 0.86 0.78 -75.1 0 1 285.93 236.92
  L 310.32 236.92
  A 0.86 0.80 75.4 0 1 311.05 237.39
  L 340.19 294.89
  A 0.50 0.48 -13.2 0 1 339.74 295.59
  L 327.24 295.68
  A 0.84 0.77 -13.0 0 1 326.52 295.27
  L 302.67 249.26
  A 0.98 0.74 72.8 0 0 301.95 248.74
  Z"
/>
<path fill="#000000" d="
  M 347.63 295.56
  A 0.88 0.86 0.0 0 1 346.75 294.70
  L 346.81 237.31
  A 0.50 0.50 0.0 0 1 347.31 236.81
  L 414.32 236.93
  A 0.53 0.51 0.0 0 1 414.85 237.44
  L 414.85 247.57
  A 0.54 0.50 0.0 0 1 414.31 248.07
  L 362.17 248.24
  A 0.87 0.85 0.0 0 0 361.30 249.09
  L 361.25 259.09
  A 1.18 1.16 -0.0 0 0 362.43 260.25
  L 405.99 260.19
  A 0.51 0.51 0.0 0 1 406.50 260.70
  L 406.50 271.19
  A 0.81 0.81 0.0 0 1 405.69 272.00
  L 362.34 272.00
  A 1.09 1.06 -0.5 0 0 361.25 273.08
  L 361.51 294.68
  A 0.87 0.86 -0.6 0 1 360.64 295.56
  L 347.63 295.56
  Z"
/>
</svg>
