<?xml version="1.0" encoding="UTF-8" standalone="no"?>
<!DOCTYPE svg PUBLIC "-//W3C//DTD SVG 1.1//EN" "http://www.w3.org/Graphics/SVG/1.1/DTD/svg11.dtd">
<svg xmlns="http://www.w3.org/2000/svg" version="1.1" viewBox="0 0 600 300">
<g stroke-width="2.00" fill="none" stroke-linecap="butt">
<path stroke="#0072a3" stroke-opacity="0.686" vector-effect="non-scaling-stroke" d="
  M 316.92 46.07
  L 305.75 50.29"
/>
<path stroke="#0072a3" stroke-opacity="0.686" vector-effect="non-scaling-stroke" d="
  M 305.75 50.29
  C 303.88 50.45 305.30 48.64 304.38 47.58
  A 0.88 0.70 -26.7 0 0 303.51 47.40
  C 300.51 48.36 294.60 49.15 296.29 53.75"
/>
<path stroke="#007baf" stroke-opacity="0.639" vector-effect="non-scaling-stroke" d="
  M 306.75 71.96
  Q 303.65 75.60 300.28 78.99
  C 296.96 82.32 289.48 83.65 285.79 80.00"
/>
<path stroke="#005289" stroke-opacity="0.639" vector-effect="non-scaling-stroke" d="
  M 291.46 88.75
  C 291.59 88.62 296.44 84.10 293.33 85.01"
/>
<path stroke="#003d70" stroke-opacity="0.686" vector-effect="non-scaling-stroke" d="
  M 285.54 97.00
  Q 285.30 95.95 285.75 95.04"
/>
<path stroke="#0071a3" stroke-opacity="0.667" vector-effect="non-scaling-stroke" d="
  M 336.96 54.00
  Q 329.85 61.48 322.94 69.15
  C 321.53 70.71 320.33 71.60 322.21 73.75"
/>
<path stroke="#006e9f" stroke-opacity="0.686" vector-effect="non-scaling-stroke" d="
  M 323.75 77.29
  L 325.96 81.25"
/>
<path stroke="#006e9f" stroke-opacity="0.686" vector-effect="non-scaling-stroke" d="
  M 292.00 91.04
  Q 291.07 90.43 292.00 89.54"
/>
<path stroke="#0076ab" stroke-opacity="0.639" vector-effect="non-scaling-stroke" d="
  M 292.00 89.54
  L 307.50 72.79"
/>
<path stroke="#0076ab" stroke-opacity="0.639" vector-effect="non-scaling-stroke" d="
  M 305.71 59.50
  C 304.98 58.06 305.84 58.08 306.63 58.68
  Q 310.77 61.80 315.08 64.70
  A 1.45 1.41 -44.0 0 0 316.65 64.71
  L 331.25 55.54"
/>
<path stroke="#004c7f" stroke-opacity="0.686" vector-effect="non-scaling-stroke" d="
  M 291.46 88.75
  L 285.75 95.04"
/>
<path stroke="#005ea4" vector-effect="non-scaling-stroke" d="
  M 285.75 95.04
  Q 284.72 95.83 284.86 97.19
  A 0.98 0.77 72.2 0 1 284.56 98.00
  Q 281.92 100.06 280.21 97.00"
/>
<path stroke="#004c7f" stroke-opacity="0.686" vector-effect="non-scaling-stroke" d="
  M 280.21 97.00
  Q 278.22 95.29 274.94 96.44
  Q 266.60 99.34 258.15 102.52"
/>
<path stroke="#005ea4" vector-effect="non-scaling-stroke" d="
  M 258.15 102.52
  Q 257.01 103.12 256.98 104.50
  Q 256.96 105.15 256.61 104.71
  L 256.20 104.20
  Q 255.73 103.61 255.57 103.52
  C 252.61 101.77 254.73 99.28 253.21 97.32"
/>
<path stroke="#014b7d" stroke-opacity="0.706" vector-effect="non-scaling-stroke" d="
  M 253.21 97.32
  Q 247.04 98.75 241.25 101.26
  C 238.59 102.42 239.82 104.59 242.32 103.71
  Q 246.28 102.31 250.25 100.96"
/>
<path stroke="#005e9d" stroke-opacity="0.557" vector-effect="non-scaling-stroke" d="
  M 250.25 100.96
  Q 250.96 101.78 250.54 102.75"
/>
<path stroke="#005ea4" vector-effect="non-scaling-stroke" d="
  M 250.54 102.75
  L 249.99 112.26
  A 1.25 0.85 80.1 0 1 249.62 113.08
  Q 248.27 114.14 248.49 112.19
  Q 248.54 111.77 248.16 111.98
  Q 247.56 112.32 246.98 112.08
  A 0.65 0.51 -70.7 0 1 246.73 111.34
  Q 247.40 109.04 245.78 106.99"
/>
<path stroke="#004c7f" stroke-opacity="0.686" vector-effect="non-scaling-stroke" d="
  M 245.78 106.99
  Q 240.56 109.21 235.29 110.25"
/>
<path stroke="#004c7f" stroke-opacity="0.686" vector-effect="non-scaling-stroke" d="
  M 249.21 92.50
  L 249.29 90.25"
/>
<path stroke="#003d70" stroke-opacity="0.686" vector-effect="non-scaling-stroke" d="
  M 301.50 118.96
  Q 298.04 124.54 292.69 125.94
  Q 288.61 127.00 289.79 130.75"
/>
<path stroke="#003d70" stroke-opacity="0.686" vector-effect="non-scaling-stroke" d="
  M 313.11 111.73
  L 313.18 114.77"
/>
<path stroke="#003d70" stroke-opacity="0.686" vector-effect="non-scaling-stroke" d="
  M 311.71 121.25
  C 305.93 132.14 296.67 136.05 285.25 138.96"
/>
<path stroke="#003d70" stroke-opacity="0.686" vector-effect="non-scaling-stroke" d="
  M 285.07 125.10
  C 286.07 122.22 293.73 122.63 296.18 118.61
  Q 296.92 117.41 295.53 117.67
  Q 292.94 118.16 291.95 118.92
  Q 290.42 120.08 288.51 119.84
  Q 286.11 119.54 284.99 120.79
  Q 284.58 121.25 284.22 121.38
  L 270.76 126.36"
/>
<path stroke="#004d94" vector-effect="non-scaling-stroke" d="
  M 267.71 115.25
  Q 267.02 119.47 266.92 123.75
  Q 266.87 125.95 265.56 124.90
  A 0.98 0.93 -32.2 0 0 264.71 124.73
  Q 263.54 125.02 263.50 123.75
  Q 263.29 116.25 263.04 108.75"
/>
<path stroke="#003d70" stroke-opacity="0.686" vector-effect="non-scaling-stroke" d="
  M 280.71 111.50
  Q 281.17 104.21 280.21 97.00"
/>
<path stroke="#0071a3" stroke-opacity="0.667" vector-effect="non-scaling-stroke" d="
  M 370.25 58.21
  L 364.42 59.33"
/>
<path stroke="#00578a" stroke-opacity="0.686" vector-effect="non-scaling-stroke" d="
  M 345.29 76.00
  L 345.21 93.25"
/>
<path stroke="#00578a" stroke-opacity="0.686" vector-effect="non-scaling-stroke" d="
  M 262.51 83.79
  Q 260.71 84.51 261.29 87.00"
/>
<path stroke="#0070b5" vector-effect="non-scaling-stroke" d="
  M 261.29 87.00
  L 261.00 91.76
  A 1.13 1.02 -89.0 0 1 260.01 92.82
  C 256.92 92.94 253.61 92.32 250.50 92.51
  Q 249.07 92.59 249.29 90.25"
/>
<path stroke="#00578a" stroke-opacity="0.686" vector-effect="non-scaling-stroke" d="
  M 249.29 90.25
  Q 249.54 87.92 247.50 88.50
  Q 240.31 90.56 229.46 95.31"
/>
<path stroke="#0069ae" vector-effect="non-scaling-stroke" d="
  M 229.46 95.31
  C 229.93 98.24 228.97 99.21 226.51 99.45
  Q 225.01 99.59 225.59 102.25"
/>
<path stroke="#004275" stroke-opacity="0.686" vector-effect="non-scaling-stroke" d="
  M 229.79 98.00
  L 229.46 95.31"
/>
<path stroke="#003d70" stroke-opacity="0.686" vector-effect="non-scaling-stroke" d="
  M 257.79 109.75
  Q 257.27 106.08 258.15 102.52"
/>
<path stroke="#004d94" vector-effect="non-scaling-stroke" d="
  M 257.71 114.25
  C 257.44 115.77 257.82 130.08 252.95 122.47"
/>
<path stroke="#003d70" stroke-opacity="0.686" vector-effect="non-scaling-stroke" d="
  M 252.95 122.47
  L 235.51 128.39"
/>
<path stroke="#003d70" stroke-opacity="0.686" vector-effect="non-scaling-stroke" d="
  M 246.20 112.02
  Q 246.58 109.48 245.78 106.99"
/>
<path stroke="#004b8a" stroke-opacity="0.557" vector-effect="non-scaling-stroke" d="
  M 250.54 102.75
  Q 251.31 109.20 250.20 115.57"
/>
<path stroke="#013c6e" stroke-opacity="0.706" vector-effect="non-scaling-stroke" d="
  M 250.20 115.57
  Q 245.42 117.05 241.23 119.00
  C 238.89 120.08 239.48 122.34 242.05 121.49
  Q 246.68 119.96 251.25 118.29"
/>
<path stroke="#004b8a" stroke-opacity="0.557" vector-effect="non-scaling-stroke" d="
  M 251.25 118.29
  C 254.11 117.62 253.28 114.12 253.21 112.00"
/>
<path stroke="#004c7f" stroke-opacity="0.686" vector-effect="non-scaling-stroke" d="
  M 261.46 87.00
  L 261.29 87.00"
/>
<path stroke="#013c6e" stroke-opacity="0.706" vector-effect="non-scaling-stroke" d="
  M 253.21 97.32
  L 253.21 112.00"
/>
<path stroke="#003468" stroke-opacity="0.686" vector-effect="non-scaling-stroke" d="
  M 267.46 127.25
  L 225.80 142.94"
/>
<path stroke="#003468" stroke-opacity="0.686" vector-effect="non-scaling-stroke" d="
  M 252.96 126.00
  Q 253.54 124.59 252.95 122.47"
/>
<path stroke="#00497c" stroke-opacity="0.686" vector-effect="non-scaling-stroke" d="
  M 332.37 104.48
  Q 322.49 107.51 313.11 111.73"
/>
<path stroke="#005ca2" vector-effect="non-scaling-stroke" d="
  M 313.11 111.73
  C 309.20 112.87 309.45 110.66 309.17 108.00
  Q 308.62 102.76 308.43 97.49"
/>
<path stroke="#0075b9" vector-effect="non-scaling-stroke" d="
  M 322.79 82.00
  C 322.42 85.02 323.75 91.63 319.81 92.26
  A 1.44 0.75 1.9 0 0 318.96 92.67
  Q 318.55 93.20 318.54 94.00"
/>
<path stroke="#006192" stroke-opacity="0.686" vector-effect="non-scaling-stroke" d="
  M 315.12 82.34
  Q 313.87 82.05 312.96 83.50"
/>
<path stroke="#0075b9" vector-effect="non-scaling-stroke" d="
  M 312.96 83.50
  C 312.39 85.92 314.37 92.55 309.24 91.15
  A 0.62 0.59 -79.9 0 1 308.81 90.50
  Q 309.02 88.30 308.29 86.25"
/>
<path stroke="#00476e" stroke-opacity="0.984" vector-effect="non-scaling-stroke" d="
  M 298.75 88.54
  Q 297.76 88.67 298.21 88.00"
/>
<path stroke="#0076a8" stroke-opacity="0.667" vector-effect="non-scaling-stroke" d="
  M 400.54 76.25
  Q 399.36 83.42 394.46 88.75"
/>
<path stroke="#007bc0" vector-effect="non-scaling-stroke" d="
  M 394.46 88.75
  Q 393.57 87.88 392.06 87.73"
/>
<path stroke="#0076a8" stroke-opacity="0.667" vector-effect="non-scaling-stroke" d="
  M 368.25 56.46
  Q 354.23 54.06 340.00 54.46"
/>
<path stroke="#0087cb" vector-effect="non-scaling-stroke" d="
  M 377.46 85.50
  Q 377.15 81.21 377.02 83.74
  A 0.68 0.62 86.9 0 1 376.51 84.36
  Q 372.45 85.18 373.54 80.55"
/>
<path stroke="#006e9f" stroke-opacity="0.686" vector-effect="non-scaling-stroke" d="
  M 373.54 80.55
  Q 373.20 78.73 371.75 79.25
  Q 360.28 83.34 356.12 84.72"
/>
<path stroke="#016c9c" stroke-opacity="0.706" vector-effect="non-scaling-stroke" d="
  M 372.79 71.25
  C 373.31 67.91 374.08 61.72 368.50 62.75
  Q 366.20 63.17 355.56 67.56
  Q 349.99 69.86 350.04 76.50"
/>
<path stroke="#0071a3" stroke-opacity="0.667" vector-effect="non-scaling-stroke" d="
  M 350.04 76.50
  L 349.96 77.50"
/>
<path stroke="#0087cb" vector-effect="non-scaling-stroke" d="
  M 349.96 77.50
  Q 349.26 75.93 349.74 81.06
  A 2.80 2.79 60.3 0 1 349.23 82.93
  Q 347.57 85.25 345.88 84.06
  A 1.13 0.76 -79.9 0 1 345.52 83.25
  L 345.29 76.00"
/>
<path stroke="#006e9f" stroke-opacity="0.686" vector-effect="non-scaling-stroke" d="
  M 345.29 76.00
  Q 344.39 71.19 339.67 72.89
  Q 333.51 75.11 327.36 77.36
  C 326.46 77.69 325.38 78.92 324.79 77.00"
/>
<path stroke="#005a8e" stroke-opacity="0.667" vector-effect="non-scaling-stroke" d="
  M 349.96 77.50
  L 350.30 89.26"
/>
<path stroke="#00578a" stroke-opacity="0.686" vector-effect="non-scaling-stroke" d="
  M 372.96 82.75
  Q 373.00 81.59 373.54 80.55"
/>
<path stroke="#00578a" stroke-opacity="0.686" vector-effect="non-scaling-stroke" d="
  M 376.96 88.25
  L 355.96 95.75"
/>
<path stroke="#004068" stroke-opacity="0.984" vector-effect="non-scaling-stroke" d="
  M 355.96 95.75
  L 350.75 96.21"
/>
<path stroke="#00578a" stroke-opacity="0.686" vector-effect="non-scaling-stroke" d="
  M 350.75 96.21
  C 348.78 99.01 341.24 100.89 335.50 102.79"
/>
<path stroke="#006eb3" vector-effect="non-scaling-stroke" d="
  M 332.55 86.54
  Q 332.98 89.69 329.30 89.76
  A 0.55 0.54 88.9 0 1 328.75 89.22
  L 328.71 83.00"
/>
<path stroke="#0076ab" stroke-opacity="0.639" vector-effect="non-scaling-stroke" d="
  M 330.75 54.29
  L 299.07 57.11"
/>
<path stroke="#005097" vector-effect="non-scaling-stroke" d="
  M 229.71 120.50
  Q 229.16 122.26 227.50 122.66
  A 1.05 0.74 53.7 0 1 226.67 122.38
  Q 225.95 121.72 225.54 122.75"
/>
<path stroke="#006697" stroke-opacity="0.686" vector-effect="non-scaling-stroke" d="
  M 278.79 74.25
  C 274.58 80.02 268.73 80.79 262.51 83.79"
/>
<path stroke="#0081c5" vector-effect="non-scaling-stroke" d="
  M 262.51 83.79
  L 250.90 84.03
  A 0.99 0.98 -4.6 0 1 249.90 83.18
  Q 248.99 76.75 249.21 71.75"
/>
<path stroke="#0072a3" stroke-opacity="0.686" vector-effect="non-scaling-stroke" d="
  M 279.75 72.96
  L 278.79 74.25"
/>
<path stroke="#0094d7" vector-effect="non-scaling-stroke" d="
  M 278.79 74.25
  Q 277.36 75.87 274.75 75.50
  Q 270.55 74.91 250.07 75.43
  A 0.49 0.49 -0.6 0 1 249.57 74.94
  L 249.29 58.50"
/>
<path stroke="#00497c" stroke-opacity="0.686" vector-effect="non-scaling-stroke" d="
  M 313.21 86.25
  L 312.96 83.50"
/>
<path stroke="#004478" stroke-opacity="0.663" vector-effect="non-scaling-stroke" d="
  M 314.75 123.46
  C 338.63 117.74 362.43 112.08 383.70 98.21
  Q 389.77 94.26 394.46 88.75"
/>
<path stroke="#00699b" stroke-opacity="0.667" vector-effect="non-scaling-stroke" d="
  M 244.00 70.54
  C 229.97 75.99 214.95 82.98 204.25 94.54"
/>
<path stroke="#0073b7" vector-effect="non-scaling-stroke" d="
  M 204.25 94.54
  Q 203.07 95.85 201.71 94.75"
/>
<path stroke="#00477e" stroke-opacity="0.635" vector-effect="non-scaling-stroke" d="
  M 222.75 124.29
  Q 216.77 123.01 209.56 119.44
  Q 200.71 115.04 198.01 106.07"
/>
<path stroke="#004b7f" stroke-opacity="0.773" vector-effect="non-scaling-stroke" d="
  M 198.01 106.07
  L 198.37 102.89"
/>
<path stroke="#004478" stroke-opacity="0.663" vector-effect="non-scaling-stroke" d="
  M 201.48 101.18
  Q 201.93 97.36 204.25 94.54"
/>
<path stroke="#0095d7" vector-effect="non-scaling-stroke" d="
  M 312.45 184.30
  Q 302.77 182.77 293.07 183.64
  A 0.43 0.42 89.5 0 1 292.61 183.18
  Q 292.93 179.13 291.29 175.50"
/>
<path stroke="#0172a1" stroke-opacity="0.706" vector-effect="non-scaling-stroke" d="
  M 261.00 152.54
  Q 246.27 150.49 233.00 156.96"
/>
<path stroke="#0172a1" stroke-opacity="0.706" vector-effect="non-scaling-stroke" d="
  M 233.00 156.96
  Q 226.28 160.14 221.75 165.96"
/>
<path stroke="#0097d9" vector-effect="non-scaling-stroke" d="
  M 216.28 180.85
  Q 207.90 182.72 199.25 182.28
  A 1.69 0.80 -43.3 0 0 198.36 182.57
  Q 197.61 183.04 196.87 182.24
  Q 196.09 181.40 196.21 182.54
  Q 196.32 183.75 195.79 184.25"
/>
<path stroke="#007abe" vector-effect="non-scaling-stroke" d="
  M 305.50 199.79
  Q 296.57 198.00 287.49 198.95
  A 1.22 0.71 -15.7 0 1 286.59 198.72
  L 285.46 197.50"
/>
<path stroke="#0083c7" vector-effect="non-scaling-stroke" d="
  M 219.59 193.45
  Q 212.78 195.93 205.02 194.88
  Q 203.35 194.65 202.38 196.03
  Q 201.92 196.68 200.50 196.29"
/>
<path stroke="#004e83" stroke-opacity="0.667" vector-effect="non-scaling-stroke" d="
  M 299.05 205.85
  Q 285.38 215.11 269.11 217.47
  C 249.91 220.27 232.54 218.73 215.25 209.46"
/>
<path stroke="#0070b5" vector-effect="non-scaling-stroke" d="
  M 234.05 205.93
  Q 225.90 208.29 218.25 207.50
  Q 215.70 207.24 215.25 209.46"
/>
<path stroke="#005a8e" stroke-opacity="0.667" vector-effect="non-scaling-stroke" d="
  M 215.25 209.46
  L 210.50 206.54"
/>
<path stroke="#007cb0" stroke-opacity="0.639" vector-effect="non-scaling-stroke" d="
  M 324.04 143.75
  Q 322.30 144.22 320.50 143.96"
/>
<path stroke="#0172a1" stroke-opacity="0.706" vector-effect="non-scaling-stroke" d="
  M 388.50 177.46
  Q 380.55 181.51 371.75 183.01"
/>
<path stroke="#0099db" vector-effect="non-scaling-stroke" d="
  M 371.75 183.01
  Q 363.27 182.34 354.75 182.25
  Q 353.92 182.24 350.54 183.18
  A 1.12 0.87 -81.8 0 0 349.91 183.79
  Q 349.37 185.09 347.79 184.50"
/>
<path stroke="#007cb0" stroke-opacity="0.639" vector-effect="non-scaling-stroke" d="
  M 371.47 159.21
  Q 361.18 152.27 348.54 153.00"
/>
<path stroke="#00537a" stroke-opacity="0.984" vector-effect="non-scaling-stroke" d="
  M 348.54 153.00
  Q 345.53 152.40 342.50 152.96"
/>
<path stroke="#007cb0" stroke-opacity="0.639" vector-effect="non-scaling-stroke" d="
  M 342.50 152.96
  Q 339.75 152.72 340.24 154.64"
/>
<path stroke="#0097d9" vector-effect="non-scaling-stroke" d="
  M 339.96 183.50
  Q 339.55 176.00 339.24 182.18
  A 0.60 0.60 4.1 0 1 338.58 182.75
  Q 330.02 181.80 321.77 182.19
  A 0.44 0.44 85.1 0 1 321.31 181.80
  C 321.08 179.74 320.64 183.17 320.04 183.50"
/>
<path stroke="#008ccf" vector-effect="non-scaling-stroke" d="
  M 373.00 187.29
  Q 372.43 187.78 372.12 188.46
  A 0.96 0.80 -78.8 0 1 371.45 189.00
  C 368.23 189.44 357.72 189.04 356.89 190.48
  A 0.88 0.66 -68.9 0 1 356.19 190.92
  L 354.50 190.79"
/>
<path stroke="#0083c7" vector-effect="non-scaling-stroke" d="
  M 339.96 192.50
  Q 339.59 193.20 339.81 194.28
  A 0.62 0.60 -5.8 0 1 339.21 195.00
  L 320.04 195.35"
/>
<path stroke="#016a9a" stroke-opacity="0.706" vector-effect="non-scaling-stroke" d="
  M 369.92 184.31
  Q 368.79 184.26 369.43 183.63
  A 1.24 0.20 -10.1 0 1 370.32 183.32
  L 371.75 183.01"
/>
<path stroke="#0076ba" vector-effect="non-scaling-stroke" d="
  M 387.79 198.75
  L 387.63 199.47
  A 0.76 0.61 4.1 0 1 386.94 199.95
  C 384.72 199.99 369.57 199.85 368.96 201.09
  A 1.31 0.46 -69.6 0 1 368.37 201.80
  Q 367.76 202.03 367.00 201.79"
/>
<path stroke="#006eb3" vector-effect="non-scaling-stroke" d="
  M 340.11 205.52
  Q 339.57 206.85 339.69 208.26
  A 0.54 0.52 82.9 0 1 339.26 208.83
  Q 329.54 210.30 319.76 208.95"
/>
<path stroke="#00375f" stroke-opacity="0.984" vector-effect="non-scaling-stroke" d="
  M 427.25 217.79
  Q 419.24 217.19 411.25 217.79"
/>
<path stroke="#00375f" stroke-opacity="0.984" vector-effect="non-scaling-stroke" d="
  M 405.00 217.79
  L 393.00 217.79"
/>
<path stroke="#006fb4" vector-effect="non-scaling-stroke" d="
  M 438.71 207.25
  Q 438.34 206.29 438.25 205.27
  Q 437.98 202.49 438.01 206.27
  A 0.50 0.48 0.6 0 1 437.50 206.75
  L 420.74 206.49
  A 0.86 0.83 75.2 0 1 420.03 206.06
  Q 419.35 204.88 419.29 206.75"
/>
<path stroke="#004e75" stroke-opacity="0.984" vector-effect="non-scaling-stroke" d="
  M 466.50 189.96
  Q 464.39 188.83 462.00 189.00"
/>
<path stroke="#004e75" stroke-opacity="0.984" vector-effect="non-scaling-stroke" d="
  M 462.00 189.00
  Q 459.91 187.85 457.46 187.75"
/>
<path stroke="#004e75" stroke-opacity="0.984" vector-effect="non-scaling-stroke" d="
  M 457.46 187.75
  Q 448.87 185.50 439.98 185.93"
/>
<path stroke="#0085c9" vector-effect="non-scaling-stroke" d="
  M 438.71 191.75
  L 438.02 199.25
  A 0.40 0.39 -78.7 0 1 437.52 199.60
  C 432.22 197.95 426.19 198.82 420.69 198.81
  A 0.79 0.59 -5.4 0 1 419.96 198.37
  L 419.29 195.75"
/>
<path stroke="#0099db" vector-effect="non-scaling-stroke" d="
  M 438.72 176.28
  C 437.80 175.07 438.15 177.82 439.78 177.42
  A 0.65 0.48 -15.7 0 1 440.49 177.69
  C 441.08 179.23 425.91 178.85 423.15 178.64
  Q 419.47 178.36 419.87 182.20
  Q 419.93 182.70 419.75 182.23
  Q 419.32 181.05 419.29 179.75"
/>
<path stroke="#0172a1" stroke-opacity="0.706" vector-effect="non-scaling-stroke" d="
  M 179.00 159.54
  Q 156.94 155.30 136.06 165.81
  Q 130.58 168.57 127.84 172.17"
/>
<path stroke="#0097d9" vector-effect="non-scaling-stroke" d="
  M 122.21 181.40
  Q 113.76 182.64 104.00 182.00
  Q 102.82 181.92 102.46 181.00"
/>
<path stroke="#0083c7" vector-effect="non-scaling-stroke" d="
  M 123.96 193.75
  C 116.85 196.11 109.37 192.67 103.25 195.54"
/>
<path stroke="#006eb3" vector-effect="non-scaling-stroke" d="
  M 142.04 207.25
  L 140.60 208.66
  A 1.40 1.34 19.7 0 1 139.75 209.04
  C 132.41 209.55 127.24 208.46 120.66 210.38
  A 1.34 1.32 56.0 0 1 119.44 210.13
  Q 118.58 209.43 117.00 209.29"
/>
<path stroke="#00365e" stroke-opacity="0.984" vector-effect="non-scaling-stroke" d="
  M 176.25 219.04
  L 156.25 218.79"
/>
<path stroke="#004a91" vector-effect="non-scaling-stroke" d="
  M 190.28 244.34
  Q 186.14 242.34 181.21 244.59
  A 0.35 0.31 76.0 0 1 180.77 244.28
  L 180.46 240.75"
/>
<path stroke="#003468" stroke-opacity="0.686" vector-effect="non-scaling-stroke" d="
  M 391.62 250.38
  L 379.57 256.79"
/>
<path stroke="#0170a0" stroke-opacity="0.706" vector-effect="non-scaling-stroke" d="
  M 267.50 60.29
  C 265.82 60.73 260.18 61.96 261.79 64.75"
/>
<path stroke="#007cb0" stroke-opacity="0.639" vector-effect="non-scaling-stroke" d="
  M 317.36 62.32
  Q 317.59 61.03 316.93 59.75
  A 0.79 0.73 -14.5 0 0 316.18 59.35
  Q 308.37 60.08 315.45 63.32
  A 1.37 1.36 17.3 0 0 317.36 62.32"
/>
<path stroke="#006e9f" stroke-opacity="0.686" vector-effect="non-scaling-stroke" d="
  M 366.21 72.00
  L 356.17 75.85"
/>
<path stroke="#00497c" stroke-opacity="0.686" vector-effect="non-scaling-stroke" d="
  M 302.96 104.00
  Q 297.07 106.67 290.75 108.04"
/>
</g>
<path fill="#009cdf" d="
  M 316.92 46.07
  L 305.75 50.29
  C 303.88 50.45 305.30 48.64 304.38 47.58
  A 0.88 0.70 -26.7 0 0 303.51 47.40
  C 300.51 48.36 294.60 49.15 296.29 53.75
  L 296.31 68.37
  A 0.86 0.86 79.9 0 0 297.47 69.18
  L 302.87 67.20
  A 1.65 1.61 89.4 0 0 303.83 66.20
  Q 304.67 63.74 305.47 63.35
  C 306.58 62.81 308.11 67.68 308.53 68.56
  A 1.11 1.01 45.1 0 1 308.57 69.46
  Q 307.94 70.89 306.75 71.96
  Q 303.65 75.60 300.28 78.99
  C 296.96 82.32 289.48 83.65 285.79 80.00
  C 282.35 75.65 283.75 63.35 283.75 57.77
  C 283.76 38.74 295.62 40.60 308.31 33.98
  A 1.35 1.27 -50.0 0 1 309.23 33.87
  Q 318.32 36.32 316.92 46.07
  Z"
/>
<path fill="#010102" fill-opacity="0.373" d="
  M 316.92 46.07
  C 317.49 48.15 317.16 49.05 315.12 49.86
  Q 311.46 51.32 307.86 52.92
  Q 303.90 54.67 304.75 50.54
  Q 305.38 50.62 305.75 50.29
  L 316.92 46.07
  Z"
/>
<path fill="#010102" fill-opacity="0.373" d="
  M 305.75 50.29
  Q 305.38 50.62 304.75 50.54
  C 301.91 49.87 300.37 52.28 297.73 51.64
  A 0.64 0.53 16.8 0 0 297.02 51.94
  L 296.29 53.75
  C 294.60 49.15 300.51 48.36 303.51 47.40
  A 0.88 0.70 -26.7 0 1 304.38 47.58
  C 305.30 48.64 303.88 50.45 305.75 50.29
  Z"
/>
<path fill="#009cdf" d="
  M 279.75 72.96
  L 278.79 74.25
  Q 277.36 75.87 274.75 75.50
  Q 270.55 74.91 250.07 75.43
  A 0.49 0.49 -0.6 0 1 249.57 74.94
  L 249.29 58.50
  Q 248.48 55.49 250.96 54.82
  C 256.38 53.36 261.85 51.02 267.19 49.19
  C 272.53 47.35 279.85 45.63 281.50 52.93
  C 282.57 57.70 282.08 68.39 279.75 72.96
  Z
  M 267.50 60.29
  C 265.82 60.73 260.18 61.96 261.79 64.75
  L 261.52 71.42
  A 0.64 0.62 81.1 0 0 262.36 72.05
  L 268.60 69.74
  A 1.72 1.37 81.9 0 0 269.50 68.21
  C 269.50 66.79 270.60 57.90 267.50 60.29
  Z"
/>
<path fill="#0096d9" d="
  M 336.96 54.00
  Q 329.85 61.48 322.94 69.15
  C 321.53 70.71 320.33 71.60 322.21 73.75
  Q 322.53 75.72 323.75 77.29
  L 325.96 81.25
  Q 325.93 81.67 326.25 81.79
  Q 325.64 82.66 324.81 81.94
  Q 320.60 78.24 316.50 76.04
  A 0.93 0.91 -45.7 0 0 315.62 76.06
  Q 303.41 82.92 292.00 91.04
  Q 291.07 90.43 292.00 89.54
  L 307.50 72.79
  Q 309.10 71.51 310.03 69.70
  A 1.19 1.11 50.0 0 0 310.08 68.77
  Q 308.35 63.92 305.71 59.50
  C 304.98 58.06 305.84 58.08 306.63 58.68
  Q 310.77 61.80 315.08 64.70
  A 1.45 1.41 -44.0 0 0 316.65 64.71
  L 331.25 55.54
  Q 335.99 52.87 340.41 49.70
  C 340.97 49.30 340.73 49.89 340.60 50.04
  Q 338.86 52.09 336.96 54.00
  Z"
/>
<path fill="#0096d9" d="
  M 330.75 54.29
  L 299.07 57.11
  C 298.24 55.81 298.85 55.08 300.20 54.91
  Q 316.21 52.87 333.81 51.92
  Q 334.32 51.89 333.95 52.24
  Q 332.06 54.00 330.75 54.29
  Z"
/>
<path fill="#009cdf" d="
  M 400.54 76.25
  Q 399.36 83.42 394.46 88.75
  Q 393.57 87.88 392.06 87.73
  C 398.38 81.61 399.86 72.65 393.18 66.29
  C 387.08 60.46 376.41 57.43 368.25 56.46
  Q 354.23 54.06 340.00 54.46
  Q 339.02 54.97 338.66 54.46
  A 0.89 0.62 -47.5 0 1 338.78 53.58
  C 340.76 50.86 342.91 52.26 345.18 52.21
  C 359.99 51.91 399.31 55.03 400.54 76.25
  Z"
/>
<path fill="#010101" fill-opacity="0.329" d="
  M 336.96 54.00
  Q 338.65 56.47 340.00 54.46
  Q 354.23 54.06 368.25 56.46
  Q 367.60 56.74 367.98 57.31
  A 1.09 0.69 -10.3 0 0 368.80 57.64
  Q 369.65 57.64 370.25 58.21
  L 364.42 59.33
  Q 350.94 57.30 337.57 57.79
  A 1.37 1.31 21.2 0 0 336.70 58.15
  Q 328.95 65.48 322.21 73.75
  C 320.33 71.60 321.53 70.71 322.94 69.15
  Q 329.85 61.48 336.96 54.00
  Z"
/>
<path fill="#010202" fill-opacity="0.275" d="
  M 330.75 54.29
  Q 329.95 54.84 328.94 54.92
  Q 328.38 54.97 328.68 55.37
  Q 329.44 56.42 331.25 55.54
  L 316.65 64.71
  A 1.45 1.41 -44.0 0 1 315.08 64.70
  Q 310.77 61.80 306.63 58.68
  C 305.84 58.08 304.98 58.06 305.71 59.50
  Q 304.63 59.51 301.06 60.06
  Q 296.18 60.82 299.07 57.11
  L 330.75 54.29
  Z
  M 317.36 62.32
  Q 317.59 61.03 316.93 59.75
  A 0.79 0.73 -14.5 0 0 316.18 59.35
  Q 308.37 60.08 315.45 63.32
  A 1.37 1.36 17.3 0 0 317.36 62.32
  Z"
/>
<path fill="#0096d9" d="
  M 370.25 58.21
  Q 378.07 58.63 377.50 67.00
  Q 377.27 70.42 377.46 85.50
  Q 377.15 81.21 377.02 83.74
  A 0.68 0.62 86.9 0 1 376.51 84.36
  Q 372.45 85.18 373.54 80.55
  Q 373.20 78.73 371.75 79.25
  Q 360.28 83.34 356.12 84.72
  Q 354.32 82.58 356.06 81.56
  C 359.83 79.37 371.13 78.39 372.79 71.25
  C 373.31 67.91 374.08 61.72 368.50 62.75
  Q 366.20 63.17 355.56 67.56
  Q 349.99 69.86 350.04 76.50
  L 349.96 77.50
  Q 349.26 75.93 349.74 81.06
  A 2.80 2.79 60.3 0 1 349.23 82.93
  Q 347.57 85.25 345.88 84.06
  A 1.13 0.76 -79.9 0 1 345.52 83.25
  L 345.29 76.00
  Q 344.39 71.19 339.67 72.89
  Q 333.51 75.11 327.36 77.36
  C 326.46 77.69 325.38 78.92 324.79 77.00
  Q 323.75 75.59 324.32 74.57
  C 325.00 73.39 336.62 69.73 338.66 69.00
  C 341.69 67.91 343.88 67.85 346.54 69.37
  A 0.74 0.73 -58.9 0 0 347.53 69.12
  C 350.96 63.59 358.59 61.71 364.42 59.33
  L 370.25 58.21
  Z"
/>
<path fill="#008bce" d="
  M 249.29 58.50
  L 249.57 74.94
  A 0.49 0.49 -0.6 0 0 250.07 75.43
  Q 270.55 74.91 274.75 75.50
  Q 277.36 75.87 278.79 74.25
  C 274.58 80.02 268.73 80.79 262.51 83.79
  L 250.90 84.03
  A 0.99 0.98 -4.6 0 1 249.90 83.18
  Q 248.99 76.75 249.21 71.75
  L 249.29 58.50
  Z"
/>
<path fill="#009ee0" d="
  M 317.36 62.32
  A 1.37 1.36 17.3 0 1 315.45 63.32
  Q 308.37 60.08 316.18 59.35
  A 0.79 0.73 -14.5 0 1 316.93 59.75
  Q 317.59 61.03 317.36 62.32
  Z"
/>
<path fill="#010202" fill-opacity="0.275" d="
  M 391.56 66.19
  Q 392.93 67.14 392.03 67.54
  A 1.04 0.76 43.7 0 1 391.14 67.42
  Q 385.17 63.65 378.30 62.05
  A 0.71 0.66 5.4 0 1 377.76 61.44
  Q 377.57 58.76 380.33 60.48
  Q 380.74 60.73 381.24 60.76
  C 383.45 60.90 385.25 62.52 386.94 63.35
  Q 388.77 64.25 391.56 66.19
  Z"
/>
<path fill="#040506" fill-opacity="0.408" d="
  M 267.50 60.29
  Q 268.01 61.83 267.32 63.14
  A 1.22 1.06 -79.7 0 1 266.58 63.73
  L 261.79 64.75
  C 260.18 61.96 265.82 60.73 267.50 60.29
  Z"
/>
<path fill="#040506" fill-opacity="0.408" d="
  M 372.79 71.25
  Q 373.09 68.92 372.36 66.77
  A 0.84 0.82 -4.6 0 0 371.70 66.22
  C 366.49 65.40 350.13 70.53 350.29 76.00
  Q 350.31 76.41 350.04 76.50
  Q 349.99 69.86 355.56 67.56
  Q 366.20 63.17 368.50 62.75
  C 374.08 61.72 373.31 67.91 372.79 71.25
  Z"
/>
<path fill="#008bce" d="
  M 244.00 70.54
  C 229.97 75.99 214.95 82.98 204.25 94.54
  Q 203.07 95.85 201.71 94.75
  C 211.46 80.58 229.55 74.06 244.71 67.83
  A 0.77 0.76 -14.4 0 1 245.77 68.45
  Q 245.98 70.25 244.00 70.54
  Z"
/>
<path fill="#0096d9" d="
  M 366.21 72.00
  L 356.17 75.85
  C 353.66 72.65 362.37 70.57 364.40 69.81
  C 366.02 69.21 368.89 69.37 366.21 72.00
  Z"
/>
<path fill="#010101" fill-opacity="0.329" d="
  M 244.00 70.54
  Q 245.20 71.12 245.40 72.19
  A 0.75 0.64 -20.7 0 1 245.00 72.92
  Q 237.80 76.77 236.00 77.50
  Q 222.39 82.97 211.50 91.00
  Q 206.11 94.98 201.48 101.18
  Q 201.93 97.36 204.25 94.54
  C 214.95 82.98 229.97 75.99 244.00 70.54
  Z"
/>
<path fill="#0077bc" d="
  M 249.21 71.75
  Q 248.99 76.75 249.90 83.18
  A 0.99 0.98 -4.6 0 0 250.90 84.03
  L 262.51 83.79
  Q 260.71 84.51 261.29 87.00
  L 261.00 91.76
  A 1.13 1.02 -89.0 0 1 260.01 92.82
  C 256.92 92.94 253.61 92.32 250.50 92.51
  Q 249.07 92.59 249.29 90.25
  Q 249.54 87.92 247.50 88.50
  Q 240.31 90.56 229.46 95.31
  C 229.93 98.24 228.97 99.21 226.51 99.45
  Q 225.01 99.59 225.59 102.25
  L 225.49 93.38
  Q 225.47 91.64 227.17 91.00
  L 248.32 82.98
  A 1.55 1.34 81.1 0 0 249.19 81.58
  L 249.21 71.75
  Z"
/>
<path fill="#010202" fill-opacity="0.275" d="
  M 306.75 71.96
  Q 306.93 72.63 307.50 72.79
  L 292.00 89.54
  Q 291.47 89.30 291.46 88.75
  C 291.59 88.62 296.44 84.10 293.33 85.01
  Q 287.74 86.15 285.00 81.68
  A 0.44 0.36 -26.8 0 1 285.24 81.13
  Q 285.87 80.86 285.79 80.00
  C 289.48 83.65 296.96 82.32 300.28 78.99
  Q 303.65 75.60 306.75 71.96
  Z"
/>
<path fill="#010102" fill-opacity="0.373" d="
  M 366.21 72.00
  Q 368.10 75.02 364.50 75.50
  C 364.02 75.56 353.57 81.00 356.17 75.85
  L 366.21 72.00
  Z"
/>
<path fill="#010102" fill-opacity="0.373" d="
  M 345.29 76.00
  L 345.21 93.25
  L 345.02 77.93
  A 1.12 1.06 -77.8 0 0 344.43 76.96
  C 339.79 74.66 330.85 78.99 325.96 81.25
  L 323.75 77.29
  Q 324.36 77.40 324.79 77.00
  C 325.38 78.92 326.46 77.69 327.36 77.36
  Q 333.51 75.11 339.67 72.89
  Q 344.39 71.19 345.29 76.00
  Z"
/>
<path fill="#010102" fill-opacity="0.373" d="
  M 279.75 72.96
  C 282.35 79.37 267.70 86.04 263.24 86.46
  Q 263.05 86.48 262.30 86.29
  Q 261.66 86.13 261.46 87.00
  L 261.29 87.00
  Q 260.71 84.51 262.51 83.79
  C 268.73 80.79 274.58 80.02 278.79 74.25
  L 279.75 72.96
  Z"
/>
<path fill="#103e56" fill-opacity="0.757" d="
  M 402.46 77.75
  C 401.05 78.82 401.55 75.07 401.62 74.47
  Q 403.28 74.66 402.46 77.75
  Z"
/>
<path fill="#010101" fill-opacity="0.329" d="
  M 401.62 74.47
  C 401.55 75.07 401.05 78.82 402.46 77.75
  Q 402.85 80.68 400.23 81.60
  A 1.10 0.95 -3.3 0 0 399.59 82.22
  C 398.54 85.18 397.81 88.13 395.85 90.60
  Q 391.42 96.17 385.53 100.27
  C 365.05 114.54 339.32 121.99 315.06 126.59
  A 0.52 0.44 -8.1 0 1 314.44 126.20
  L 314.37 124.93
  A 0.82 0.52 -14.9 0 1 314.93 124.32
  Q 315.68 124.05 314.75 123.46
  C 338.63 117.74 362.43 112.08 383.70 98.21
  Q 389.77 94.26 394.46 88.75
  Q 399.36 83.42 400.54 76.25
  Q 400.33 74.69 401.62 74.47
  Z"
/>
<path fill="#0077bc" d="
  M 345.29 76.00
  L 345.52 83.25
  A 1.13 0.76 -79.9 0 0 345.88 84.06
  Q 347.57 85.25 349.23 82.93
  A 2.80 2.79 60.3 0 0 349.74 81.06
  Q 349.26 75.93 349.96 77.50
  L 350.30 89.26
  Q 351.87 92.20 355.31 91.06
  Q 363.69 88.30 371.92 85.13
  Q 373.47 84.53 372.96 82.75
  Q 373.00 81.59 373.54 80.55
  Q 372.45 85.18 376.51 84.36
  A 0.68 0.62 86.9 0 0 377.02 83.74
  Q 377.15 81.21 377.46 85.50
  Q 377.86 87.03 376.96 88.25
  L 355.96 95.75
  L 350.75 96.21
  C 348.78 99.01 341.24 100.89 335.50 102.79
  L 335.24 86.25
  A 0.80 0.62 -83.7 0 0 334.80 85.54
  Q 333.60 85.14 332.55 86.54
  Q 332.98 89.69 329.30 89.76
  A 0.55 0.54 88.9 0 1 328.75 89.22
  L 328.71 83.00
  Q 332.86 80.67 338.31 79.30
  A 0.97 0.96 80.8 0 1 339.51 80.17
  Q 340.02 87.75 339.49 95.70
  A 0.84 0.84 84.3 0 0 340.55 96.57
  C 342.19 96.11 345.56 95.53 345.21 93.25
  L 345.29 76.00
  Z"
/>
<path fill="#010101" fill-opacity="0.329" d="
  M 350.29 76.00
  Q 350.81 82.61 350.30 89.26
  L 349.96 77.50
  L 350.04 76.50
  Q 350.31 76.41 350.29 76.00
  Z"
/>
<path fill="#0085c8" d="
  M 322.79 82.00
  C 322.42 85.02 323.75 91.63 319.81 92.26
  A 1.44 0.75 1.9 0 0 318.96 92.67
  Q 318.55 93.20 318.54 94.00
  L 318.50 81.82
  A 0.58 0.58 -1.0 0 0 317.90 81.24
  Q 316.27 81.27 315.12 82.34
  Q 313.87 82.05 312.96 83.50
  C 312.39 85.92 314.37 92.55 309.24 91.15
  A 0.62 0.59 -79.9 0 1 308.81 90.50
  Q 309.02 88.30 308.29 86.25
  Q 308.69 83.86 306.61 84.91
  Q 302.75 86.87 298.75 88.54
  Q 297.76 88.67 298.21 88.00
  L 315.49 77.51
  A 1.45 1.32 43.1 0 1 316.92 77.53
  Q 320.73 79.73 322.79 82.00
  Z"
/>
<path fill="#010102" fill-opacity="0.373" d="
  M 373.54 80.55
  Q 373.00 81.59 372.96 82.75
  Q 372.12 81.13 370.87 82.15
  Q 370.41 82.53 370.02 82.64
  Q 364.04 84.47 360.25 86.50
  Q 358.12 87.64 356.24 87.35
  A 0.86 0.84 -4.4 0 1 355.56 86.78
  Q 355.15 85.48 356.12 84.72
  Q 360.28 83.34 371.75 79.25
  Q 373.20 78.73 373.54 80.55
  Z"
/>
<path fill="#010102" fill-opacity="0.373" d="
  M 315.12 82.34
  Q 317.96 82.83 316.15 84.22
  Q 315.86 84.44 315.25 84.56
  Q 313.85 84.82 313.21 86.25
  L 312.96 83.50
  Q 313.87 82.05 315.12 82.34
  Z"
/>
<path fill="#0064aa" d="
  M 322.79 82.00
  L 323.06 101.94
  A 0.45 0.44 85.5 0 0 323.56 102.38
  Q 325.68 102.08 327.51 100.96
  A 0.98 0.84 78.0 0 0 327.93 100.19
  L 328.46 83.25
  Q 328.50 83.04 328.71 83.00
  L 328.75 89.22
  A 0.55 0.54 88.9 0 0 329.30 89.76
  Q 332.98 89.69 332.55 86.54
  Q 333.19 95.57 332.37 104.48
  Q 322.49 107.51 313.11 111.73
  C 309.20 112.87 309.45 110.66 309.17 108.00
  Q 308.62 102.76 308.43 97.49
  L 308.29 86.25
  Q 309.02 88.30 308.81 90.50
  A 0.62 0.59 -79.9 0 0 309.24 91.15
  C 314.37 92.55 312.39 85.92 312.96 83.50
  L 313.21 86.25
  L 313.25 105.33
  A 0.90 0.85 79.5 0 0 314.42 106.19
  L 318.00 104.69
  A 0.88 0.73 81.0 0 0 318.45 103.93
  L 318.54 94.00
  Q 318.55 93.20 318.96 92.67
  A 1.44 0.75 1.9 0 1 319.81 92.26
  C 323.75 91.63 322.42 85.02 322.79 82.00
  Z"
/>
<path fill="#0068ae" d="
  M 291.46 88.75
  L 285.75 95.04
  Q 284.72 95.83 284.86 97.19
  A 0.98 0.77 72.2 0 1 284.56 98.00
  Q 281.92 100.06 280.21 97.00
  Q 278.22 95.29 274.94 96.44
  Q 266.60 99.34 258.15 102.52
  Q 257.01 103.12 256.98 104.50
  Q 256.96 105.15 256.61 104.71
  L 256.20 104.20
  Q 255.73 103.61 255.57 103.52
  C 252.61 101.77 254.73 99.28 253.21 97.32
  Q 247.04 98.75 241.25 101.26
  C 238.59 102.42 239.82 104.59 242.32 103.71
  Q 246.28 102.31 250.25 100.96
  Q 250.96 101.78 250.54 102.75
  L 249.99 112.26
  A 1.25 0.85 80.1 0 1 249.62 113.08
  Q 248.27 114.14 248.49 112.19
  Q 248.54 111.77 248.16 111.98
  Q 247.56 112.32 246.98 112.08
  A 0.65 0.51 -70.7 0 1 246.73 111.34
  Q 247.40 109.04 245.78 106.99
  Q 240.56 109.21 235.29 110.25
  L 235.46 99.50
  A 0.82 0.76 -12.1 0 1 235.95 98.80
  C 240.31 96.89 248.78 94.62 249.21 92.50
  L 249.29 90.25
  Q 249.07 92.59 250.50 92.51
  C 253.61 92.32 256.92 92.94 260.01 92.82
  A 1.13 1.02 -89.0 0 0 261.00 91.76
  L 261.29 87.00
  L 261.46 87.00
  L 261.50 95.31
  A 1.22 1.22 78.8 0 0 263.18 96.44
  C 267.62 94.63 276.79 89.94 281.30 92.37
  A 1.49 1.48 35.4 0 0 283.10 92.07
  Q 287.47 87.30 293.33 85.01
  C 296.44 84.10 291.59 88.62 291.46 88.75
  Z"
/>
<path fill="#005aa0" fill-opacity="0.996" d="
  M 392.06 87.73
  Q 393.57 87.88 394.46 88.75
  Q 389.77 94.26 383.70 98.21
  C 362.43 112.08 338.63 117.74 314.75 123.46
  Q 313.90 124.00 313.50 123.00
  Q 312.78 121.19 315.25 120.75
  Q 346.15 115.21 374.19 101.19
  Q 384.07 96.24 392.06 87.73
  Z"
/>
<path fill="#010610" fill-opacity="0.965" d="
  M 298.21 88.00
  Q 297.76 88.67 298.75 88.54
  Q 295.38 90.41 298.21 88.00
  Z"
/>
<path fill="#010102" fill-opacity="0.373" d="
  M 376.96 88.25
  Q 378.66 91.48 375.00 92.00
  Q 373.70 92.19 369.03 94.32
  C 364.89 96.21 360.58 97.37 356.34 98.92
  C 354.18 99.71 351.05 98.80 349.68 101.00
  A 1.78 1.39 -80.4 0 1 348.98 101.64
  Q 345.55 103.12 341.95 104.12
  C 340.18 104.61 338.40 105.85 336.26 105.98
  A 0.79 0.72 -13.7 0 1 335.51 105.57
  Q 334.87 104.26 335.50 102.79
  C 341.24 100.89 348.78 99.01 350.75 96.21
  Q 353.55 97.22 355.96 95.75
  L 376.96 88.25
  Z"
/>
<path fill="#010102" fill-opacity="0.373" d="
  M 249.29 90.25
  L 249.21 92.50
  Q 248.14 91.08 246.00 92.00
  Q 242.17 93.65 229.79 98.00
  L 229.46 95.31
  Q 240.31 90.56 247.50 88.50
  Q 249.54 87.92 249.29 90.25
  Z"
/>
<path fill="#010102" fill-opacity="0.373" d="
  M 291.46 88.75
  Q 291.47 89.30 292.00 89.54
  Q 291.07 90.43 292.00 91.04
  Q 291.43 91.94 291.00 91.44
  A 0.92 0.47 54.4 0 0 290.25 91.05
  C 289.33 91.36 291.40 93.37 289.31 93.97
  A 1.34 1.02 1.2 0 0 288.58 94.50
  Q 287.53 96.29 285.54 97.00
  Q 285.30 95.95 285.75 95.04
  L 291.46 88.75
  Z"
/>
<path fill="#0064aa" d="
  M 302.96 104.00
  Q 297.07 106.67 290.75 108.04
  C 290.04 105.21 289.07 96.96 292.50 95.75
  Q 296.79 94.24 301.33 92.36
  A 1.21 1.20 -11.3 0 1 303.00 93.47
  L 302.96 104.00
  Z"
/>
<path fill="#005aa0" fill-opacity="0.996" d="
  M 204.25 94.54
  Q 201.93 97.36 201.48 101.18
  C 197.55 112.70 213.44 120.22 221.94 122.31
  Q 223.90 122.79 222.75 124.29
  Q 216.77 123.01 209.56 119.44
  Q 200.71 115.04 198.01 106.07
  L 198.37 102.89
  Q 199.17 98.27 201.71 94.75
  Q 203.07 95.85 204.25 94.54
  Z"
/>
<path fill="#005399" d="
  M 285.75 95.04
  Q 285.30 95.95 285.54 97.00
  Q 285.48 103.74 285.49 110.48
  C 285.50 113.57 286.26 116.27 290.09 114.90
  Q 295.92 112.82 301.20 110.95
  A 1.35 1.35 -10.0 0 1 303.00 112.21
  Q 303.02 116.04 301.50 118.96
  Q 298.04 124.54 292.69 125.94
  Q 288.61 127.00 289.79 130.75
  Q 289.14 133.60 291.56 132.56
  C 298.86 129.44 303.90 127.36 307.05 119.52
  C 309.38 113.72 308.20 104.05 308.43 97.49
  Q 308.62 102.76 309.17 108.00
  C 309.45 110.66 309.20 112.87 313.11 111.73
  L 313.18 114.77
  Q 312.95 118.40 311.71 121.25
  C 305.93 132.14 296.67 136.05 285.25 138.96
  L 285.07 125.10
  C 286.07 122.22 293.73 122.63 296.18 118.61
  Q 296.92 117.41 295.53 117.67
  Q 292.94 118.16 291.95 118.92
  Q 290.42 120.08 288.51 119.84
  Q 286.11 119.54 284.99 120.79
  Q 284.58 121.25 284.22 121.38
  L 270.76 126.36
  Q 270.04 113.95 270.50 111.00
  Q 271.10 107.12 268.47 109.19
  A 2.05 1.94 72.0 0 0 267.73 110.74
  L 267.71 115.25
  Q 267.02 119.47 266.92 123.75
  Q 266.87 125.95 265.56 124.90
  A 0.98 0.93 -32.2 0 0 264.71 124.73
  Q 263.54 125.02 263.50 123.75
  Q 263.29 116.25 263.04 108.75
  Q 262.55 106.62 264.45 105.98
  Q 268.67 104.55 272.83 102.72
  Q 275.24 101.65 275.25 104.31
  L 275.31 119.55
  A 0.50 0.48 79.0 0 0 275.98 120.02
  L 280.11 118.29
  A 0.80 0.78 -11.1 0 0 280.61 117.56
  L 280.71 111.50
  Q 281.17 104.21 280.21 97.00
  Q 281.92 100.06 284.56 98.00
  A 0.98 0.77 72.2 0 0 284.86 97.19
  Q 284.72 95.83 285.75 95.04
  Z"
/>
<path fill="#005aa0" fill-opacity="0.996" d="
  M 229.46 95.31
  L 229.79 98.00
  L 229.71 120.50
  Q 229.16 122.26 227.50 122.66
  A 1.05 0.74 53.7 0 1 226.67 122.38
  Q 225.95 121.72 225.54 122.75
  L 225.59 102.25
  Q 225.01 99.59 226.51 99.45
  C 228.97 99.21 229.93 98.24 229.46 95.31
  Z"
/>
<path fill="#010102" fill-opacity="0.373" d="
  M 280.21 97.00
  Q 281.17 104.21 280.71 111.50
  L 280.33 100.20
  A 0.60 0.57 -88.4 0 0 279.82 99.63
  C 274.36 99.06 270.74 101.37 266.45 102.83
  Q 262.61 104.12 258.90 105.73
  A 1.08 0.77 -12.5 0 0 258.29 106.41
  L 257.79 109.75
  Q 257.27 106.08 258.15 102.52
  Q 266.60 99.34 274.94 96.44
  Q 278.22 95.29 280.21 97.00
  Z"
/>
<path fill="#010610" fill-opacity="0.965" d="
  M 355.96 95.75
  Q 353.55 97.22 350.75 96.21
  L 355.96 95.75
  Z"
/>
<path fill="#040506" fill-opacity="0.408" d="
  M 253.21 97.32
  L 253.21 112.00
  Q 252.84 107.26 253.01 102.50
  Q 253.13 99.18 250.25 100.96
  Q 246.28 102.31 242.32 103.71
  C 239.82 104.59 238.59 102.42 241.25 101.26
  Q 247.04 98.75 253.21 97.32
  Z"
/>
<path fill="#005399" d="
  M 253.21 97.32
  C 254.73 99.28 252.61 101.77 255.57 103.52
  Q 255.73 103.61 256.20 104.20
  L 256.61 104.71
  Q 256.96 105.15 256.98 104.50
  Q 257.01 103.12 258.15 102.52
  Q 257.27 106.08 257.79 109.75
  L 257.71 114.25
  C 257.44 115.77 257.82 130.08 252.95 122.47
  L 235.51 128.39
  Q 234.40 122.64 235.46 117.06
  A 1.01 0.86 -8.8 0 1 236.03 116.40
  L 246.20 112.02
  Q 246.58 109.48 245.78 106.99
  Q 247.40 109.04 246.73 111.34
  A 0.65 0.51 -70.7 0 0 246.98 112.08
  Q 247.56 112.32 248.16 111.98
  Q 248.54 111.77 248.49 112.19
  Q 248.27 114.14 249.62 113.08
  A 1.25 0.85 80.1 0 0 249.99 112.26
  L 250.54 102.75
  Q 251.31 109.20 250.20 115.57
  Q 245.42 117.05 241.23 119.00
  C 238.89 120.08 239.48 122.34 242.05 121.49
  Q 246.68 119.96 251.25 118.29
  C 254.11 117.62 253.28 114.12 253.21 112.00
  L 253.21 97.32
  Z"
/>
<path fill="#020508" fill-opacity="0.114" d="
  M 253.21 112.00
  C 253.28 114.12 254.11 117.62 251.25 118.29
  Q 249.85 118.56 250.07 117.71
  A 0.77 0.75 -62.7 0 0 249.84 116.96
  Q 249.11 116.29 250.20 115.57
  Q 251.31 109.20 250.54 102.75
  Q 250.96 101.78 250.25 100.96
  Q 253.13 99.18 253.01 102.50
  Q 252.84 107.26 253.21 112.00
  Z"
/>
<path fill="#002f42" fill-opacity="0.549" d="
  M 198.37 102.89
  L 198.01 106.07
  L 196.54 107.00
  L 196.42 103.25
  A 0.80 0.78 -12.2 0 1 196.92 102.49
  Q 197.62 102.22 198.37 102.89
  Z"
/>
<path fill="#010102" fill-opacity="0.373" d="
  M 302.96 104.00
  Q 304.26 107.64 300.75 108.50
  C 298.67 109.01 292.19 111.46 291.08 110.89
  Q 289.72 110.19 290.75 108.04
  Q 297.07 106.67 302.96 104.00
  Z"
/>
<path fill="#010102" fill-opacity="0.373" d="
  M 332.37 104.48
  C 333.38 108.95 329.74 108.17 327.51 109.13
  Q 325.38 110.05 323.27 111.05
  Q 318.43 113.35 313.18 114.77
  L 313.11 111.73
  Q 322.49 107.51 332.37 104.48
  Z"
/>
<path fill="#010202" fill-opacity="0.275" d="
  M 198.01 106.07
  Q 200.71 115.04 209.56 119.44
  Q 216.77 123.01 222.75 124.29
  Q 221.23 124.58 222.05 124.93
  A 0.73 0.68 -83.7 0 1 222.46 125.48
  L 222.62 126.52
  A 0.49 0.43 82.2 0 1 222.25 127.08
  Q 220.69 127.27 219.31 126.67
  Q 216.96 125.65 216.66 125.57
  C 210.50 123.81 202.86 119.86 199.73 113.95
  A 1.42 1.10 -57.2 0 1 199.65 113.03
  C 200.40 110.07 195.77 110.81 196.54 107.00
  L 198.01 106.07
  Z"
/>
<path fill="#010102" fill-opacity="0.373" d="
  M 245.78 106.99
  Q 246.58 109.48 246.20 112.02
  Q 246.25 109.38 244.07 110.33
  Q 240.65 111.82 236.86 113.32
  Q 235.46 113.87 235.73 112.39
  Q 235.95 111.12 235.29 110.25
  Q 240.56 109.21 245.78 106.99
  Z"
/>
<path fill="#00478e" d="
  M 263.04 108.75
  Q 263.29 116.25 263.50 123.75
  Q 263.54 125.02 264.71 124.73
  A 0.98 0.93 -32.2 0 1 265.56 124.90
  Q 266.87 125.95 266.92 123.75
  Q 267.02 119.47 267.71 115.25
  L 267.46 127.25
  L 225.80 142.94
  L 225.54 122.75
  Q 225.95 121.72 226.67 122.38
  A 1.05 0.74 53.7 0 0 227.50 122.66
  Q 229.16 122.26 229.71 120.50
  L 229.81 135.51
  A 1.02 1.02 -10.8 0 0 231.20 136.45
  Q 240.78 132.77 250.11 129.48
  C 252.01 128.80 253.63 128.89 252.96 126.00
  Q 253.54 124.59 252.95 122.47
  C 257.82 130.08 257.44 115.77 257.71 114.25
  L 257.75 125.78
  A 0.47 0.41 80.3 0 0 258.32 126.24
  L 262.54 124.49
  A 0.87 0.60 80.2 0 0 262.91 123.69
  Q 262.42 116.21 263.04 108.75
  Z"
/>
<path fill="#040506" fill-opacity="0.408" d="
  M 250.20 115.57
  Q 249.11 116.29 249.84 116.96
  A 0.77 0.75 -62.7 0 1 250.07 117.71
  Q 249.85 118.56 251.25 118.29
  Q 246.68 119.96 242.05 121.49
  C 239.48 122.34 238.89 120.08 241.23 119.00
  Q 245.42 117.05 250.20 115.57
  Z"
/>
<path fill="#010102" fill-opacity="0.373" d="
  M 285.07 125.10
  C 281.57 124.79 279.35 126.93 276.71 127.82
  Q 274.69 128.51 272.72 129.31
  A 1.63 1.12 -39.2 0 1 271.76 129.39
  Q 269.86 128.84 270.76 126.36
  L 284.22 121.38
  Q 284.58 121.25 284.99 120.79
  Q 286.11 119.54 288.51 119.84
  Q 290.42 120.08 291.95 118.92
  Q 292.94 118.16 295.53 117.67
  Q 296.92 117.41 296.18 118.61
  C 293.73 122.63 286.07 122.22 285.07 125.10
  Z"
/>
<path fill="#010102" fill-opacity="0.373" d="
  M 301.50 118.96
  Q 301.57 124.76 296.71 127.02
  C 295.16 127.74 290.65 129.60 289.79 130.75
  Q 288.61 127.00 292.69 125.94
  Q 298.04 124.54 301.50 118.96
  Z"
/>
<path fill="#010102" fill-opacity="0.373" d="
  M 311.71 121.25
  Q 311.59 124.82 309.31 128.31
  C 304.08 136.32 295.94 139.57 287.17 142.12
  Q 283.52 143.18 285.25 138.96
  C 296.67 136.05 305.93 132.14 311.71 121.25
  Z"
/>
<path fill="#010102" fill-opacity="0.373" d="
  M 252.95 122.47
  Q 253.54 124.59 252.96 126.00
  Q 245.45 127.51 238.42 130.51
  Q 237.08 131.08 236.38 131.04
  Q 234.63 130.93 235.51 128.39
  L 252.95 122.47
  Z"
/>
<path fill="#010102" fill-opacity="0.373" d="
  M 267.46 127.25
  C 268.31 131.17 266.24 131.45 263.43 132.46
  Q 250.11 137.24 236.74 141.89
  C 234.40 142.70 230.36 144.68 226.80 145.35
  A 0.62 0.61 73.5 0 1 226.11 144.97
  Q 225.67 143.87 225.80 142.94
  L 267.46 127.25
  Z"
/>
<path fill="#009ee0" d="
  M 312.45 184.30
  Q 302.77 182.77 293.07 183.64
  A 0.43 0.42 89.5 0 1 292.61 183.18
  Q 292.93 179.13 291.29 175.50
  C 287.48 162.13 273.77 154.44 261.00 152.54
  Q 246.27 150.49 233.00 156.96
  Q 226.28 160.14 221.75 165.96
  Q 216.77 172.14 216.28 180.85
  Q 207.90 182.72 199.25 182.28
  A 1.69 0.80 -43.3 0 0 198.36 182.57
  Q 197.61 183.04 196.87 182.24
  Q 196.09 181.40 196.21 182.54
  Q 196.32 183.75 195.79 184.25
  Q 194.49 175.17 199.06 167.56
  C 212.19 145.71 241.69 141.85 264.56 143.94
  C 285.19 145.82 314.25 159.04 312.45 184.30
  Z"
/>
<path fill="#010202" fill-opacity="0.275" d="
  M 324.04 143.75
  Q 322.30 144.22 320.50 143.96
  Q 322.18 142.97 324.04 143.75
  Z"
/>
<path fill="#009ee0" d="
  M 324.04 143.75
  C 342.55 143.41 364.66 144.74 381.28 150.41
  C 393.50 154.58 405.23 167.46 388.50 177.46
  Q 380.55 181.51 371.75 183.01
  Q 363.27 182.34 354.75 182.25
  Q 353.92 182.24 350.54 183.18
  A 1.12 0.87 -81.8 0 0 349.91 183.79
  Q 349.37 185.09 347.79 184.50
  C 345.43 182.02 346.41 180.05 349.62 179.60
  C 357.35 178.51 371.22 176.25 375.35 168.90
  Q 378.36 163.54 371.47 159.21
  Q 361.18 152.27 348.54 153.00
  Q 345.53 152.40 342.50 152.96
  Q 339.75 152.72 340.24 154.64
  L 339.96 183.50
  Q 339.55 176.00 339.24 182.18
  A 0.60 0.60 4.1 0 1 338.58 182.75
  Q 330.02 181.80 321.77 182.19
  A 0.44 0.44 85.1 0 1 321.31 181.80
  C 321.08 179.74 320.64 183.17 320.04 183.50
  L 320.24 151.25
  A 1.93 1.60 -65.3 0 0 319.99 150.31
  Q 318.12 147.30 315.33 145.94
  Q 313.12 144.86 315.55 144.57
  L 320.50 143.96
  Q 322.30 144.22 324.04 143.75
  Z"
/>
<path fill="#009ee0" d="
  M 179.00 159.54
  Q 156.94 155.30 136.06 165.81
  Q 130.58 168.57 127.84 172.17
  Q 123.62 175.54 122.21 181.40
  Q 113.76 182.64 104.00 182.00
  Q 102.82 181.92 102.46 181.00
  C 112.07 152.99 162.29 147.25 186.50 149.67
  A 2.74 2.51 -5.6 0 1 188.75 151.36
  L 192.07 160.91
  Q 193.04 163.69 190.26 162.51
  Q 184.84 160.20 179.00 159.54
  Z"
/>
<path fill="#009ee0" d="
  M 438.72 176.28
  C 437.80 175.07 438.15 177.82 439.78 177.42
  A 0.65 0.48 -15.7 0 1 440.49 177.69
  C 441.08 179.23 425.91 178.85 423.15 178.64
  Q 419.47 178.36 419.87 182.20
  Q 419.93 182.70 419.75 182.23
  Q 419.32 181.05 419.29 179.75
  C 419.24 172.46 418.93 164.92 419.31 157.65
  C 419.49 154.03 416.87 153.54 416.05 150.95
  Q 415.36 148.77 417.64 148.94
  Q 448.76 151.25 478.84 155.55
  C 481.31 155.90 483.59 155.46 485.93 157.36
  A 1.62 1.44 -80.3 0 1 486.44 158.18
  Q 487.62 162.79 488.38 167.48
  C 489.03 171.48 484.46 170.50 482.56 169.70
  C 472.40 165.41 464.01 163.76 454.73 161.78
  C 449.59 160.69 444.76 160.89 439.68 160.48
  A 0.49 0.48 3.9 0 0 439.14 160.94
  L 438.72 176.28
  Z"
/>
<path fill="#040506" fill-opacity="0.408" d="
  M 261.00 152.54
  C 260.15 152.83 257.88 152.57 257.59 152.98
  A 1.01 0.51 -61.7 0 1 256.94 153.43
  C 253.04 153.37 248.53 152.50 244.94 154.44
  Q 243.97 154.96 241.03 155.27
  C 238.51 155.54 236.57 156.99 233.94 157.34
  Q 233.54 157.30 233.00 156.96
  Q 246.27 150.49 261.00 152.54
  Z"
/>
<path fill="#010610" fill-opacity="0.965" d="
  M 348.54 153.00
  Q 345.51 153.56 342.50 152.96
  Q 345.53 152.40 348.54 153.00
  Z"
/>
<path fill="#010202" fill-opacity="0.275" d="
  M 342.50 152.96
  Q 345.51 153.56 348.54 153.00
  Q 361.18 152.27 371.47 159.21
  L 360.22 155.16
  Q 359.83 155.01 359.26 155.09
  Q 357.46 155.35 356.12 154.32
  A 1.29 1.26 -27.2 0 0 355.25 154.05
  C 350.04 154.35 346.09 153.15 340.24 154.64
  Q 339.75 152.72 342.50 152.96
  Z"
/>
<path fill="#040506" fill-opacity="0.408" d="
  M 233.00 156.96
  Q 233.54 157.30 233.94 157.34
  Q 232.67 158.14 231.35 158.83
  C 229.29 159.90 227.43 161.75 225.72 163.24
  C 224.41 164.38 223.68 165.59 221.75 165.96
  Q 226.28 160.14 233.00 156.96
  Z"
/>
<path fill="#040506" fill-opacity="0.408" d="
  M 179.00 159.54
  Q 174.89 160.13 170.83 159.45
  C 169.28 159.19 167.69 157.78 165.85 159.40
  A 1.43 1.18 -62.3 0 1 165.00 159.76
  C 161.98 159.81 159.12 160.35 155.99 160.57
  Q 151.18 160.90 146.31 162.81
  Q 136.15 166.81 127.84 172.17
  Q 130.58 168.57 136.06 165.81
  Q 156.94 155.30 179.00 159.54
  Z"
/>
<path fill="#008bce" d="
  M 291.29 175.50
  Q 292.93 179.13 292.61 183.18
  A 0.43 0.42 89.5 0 0 293.07 183.64
  Q 302.77 182.77 312.45 184.30
  Q 311.54 192.81 305.50 199.79
  Q 296.57 198.00 287.49 198.95
  A 1.22 0.71 -15.7 0 1 286.59 198.72
  L 285.46 197.50
  Q 287.14 194.84 289.25 192.50
  C 289.85 191.83 289.95 189.70 290.38 188.55
  Q 292.77 182.25 291.29 175.50
  Z"
/>
<path fill="#0093d6" d="
  M 438.72 176.28
  L 468.70 180.11
  Q 470.67 180.36 470.83 182.20
  L 471.44 189.20
  A 1.20 1.14 -88.6 0 1 470.14 190.50
  L 466.50 189.96
  Q 464.39 188.83 462.00 189.00
  Q 459.91 187.85 457.46 187.75
  Q 448.87 185.50 439.98 185.93
  C 437.99 185.32 438.77 189.86 438.71 191.75
  L 438.02 199.25
  A 0.40 0.39 -78.7 0 1 437.52 199.60
  C 432.22 197.95 426.19 198.82 420.69 198.81
  A 0.79 0.59 -5.4 0 1 419.96 198.37
  L 419.29 195.75
  L 419.29 179.75
  Q 419.32 181.05 419.75 182.23
  Q 419.93 182.70 419.87 182.20
  Q 419.47 178.36 423.15 178.64
  C 425.91 178.85 441.08 179.23 440.49 177.69
  A 0.65 0.48 -15.7 0 0 439.78 177.42
  C 438.15 177.82 437.80 175.07 438.72 176.28
  Z"
/>
<path fill="#040506" fill-opacity="0.408" d="
  M 369.92 184.31
  Q 368.79 184.26 369.43 183.63
  A 1.24 0.20 -10.1 0 1 370.32 183.32
  L 371.75 183.01
  Q 380.55 181.51 388.50 177.46
  Q 389.37 177.88 389.98 177.32
  Q 390.50 176.84 390.42 177.36
  Q 390.38 177.58 390.06 177.81
  Q 380.94 184.46 369.92 184.31
  Z"
/>
<path fill="#008fd2" d="
  M 339.96 183.50
  L 339.96 192.50
  Q 339.59 193.20 339.81 194.28
  A 0.62 0.60 -5.8 0 1 339.21 195.00
  L 320.04 195.35
  L 320.04 183.50
  C 320.64 183.17 321.08 179.74 321.31 181.80
  A 0.44 0.44 85.1 0 0 321.77 182.19
  Q 330.02 181.80 338.58 182.75
  A 0.60 0.60 4.1 0 0 339.24 182.18
  Q 339.55 176.00 339.96 183.50
  Z"
/>
<path fill="#008fd2" d="
  M 216.28 180.85
  Q 216.10 186.90 219.59 193.45
  Q 212.78 195.93 205.02 194.88
  Q 203.35 194.65 202.38 196.03
  Q 201.92 196.68 200.50 196.29
  Q 196.47 190.93 195.79 184.25
  Q 196.32 183.75 196.21 182.54
  Q 196.09 181.40 196.87 182.24
  Q 197.61 183.04 198.36 182.57
  A 1.69 0.80 -43.3 0 1 199.25 182.28
  Q 207.90 182.72 216.28 180.85
  Z"
/>
<path fill="#008fd2" d="
  M 102.46 181.00
  Q 102.82 181.92 104.00 182.00
  Q 113.76 182.64 122.21 181.40
  Q 120.20 187.78 123.96 193.75
  C 116.85 196.11 109.37 192.67 103.25 195.54
  Q 99.49 188.46 102.46 181.00
  Z"
/>
<path fill="#0093d6" d="
  M 371.75 183.01
  L 370.32 183.32
  A 1.24 0.20 -10.1 0 0 369.43 183.63
  Q 368.79 184.26 369.92 184.31
  L 373.00 187.29
  Q 372.43 187.78 372.12 188.46
  A 0.96 0.80 -78.8 0 1 371.45 189.00
  C 368.23 189.44 357.72 189.04 356.89 190.48
  A 0.88 0.66 -68.9 0 1 356.19 190.92
  L 354.50 190.79
  C 353.75 189.96 350.03 187.24 349.95 186.65
  A 0.43 0.43 0.9 0 0 349.59 186.28
  Q 348.12 186.08 347.79 184.50
  Q 349.37 185.09 349.91 183.79
  A 1.12 0.87 -81.8 0 1 350.54 183.18
  Q 353.92 182.24 354.75 182.25
  Q 363.27 182.34 371.75 183.01
  Z"
/>
<path fill="#010610" fill-opacity="0.965" d="
  M 439.98 185.93
  Q 448.87 185.50 457.46 187.75
  L 456.00 187.79
  L 439.98 185.93
  Z"
/>
<path fill="#0085c8" d="
  M 373.00 187.29
  L 387.79 198.75
  L 387.63 199.47
  A 0.76 0.61 4.1 0 1 386.94 199.95
  C 384.72 199.99 369.57 199.85 368.96 201.09
  A 1.31 0.46 -69.6 0 1 368.37 201.80
  Q 367.76 202.03 367.00 201.79
  Q 360.36 196.74 354.50 190.79
  L 356.19 190.92
  A 0.88 0.66 -68.9 0 0 356.89 190.48
  C 357.72 189.04 368.23 189.44 371.45 189.00
  A 0.96 0.80 -78.8 0 0 372.12 188.46
  Q 372.43 187.78 373.00 187.29
  Z"
/>
<path fill="#010610" fill-opacity="0.965" d="
  M 456.00 187.79
  L 457.46 187.75
  Q 459.91 187.85 462.00 189.00
  L 456.00 187.79
  Z"
/>
<path fill="#010610" fill-opacity="0.965" d="
  M 462.00 189.00
  Q 464.39 188.83 466.50 189.96
  Q 464.14 189.96 462.00 189.00
  Z"
/>
<path fill="#0077bc" d="
  M 438.71 191.75
  L 438.71 207.25
  Q 438.34 206.29 438.25 205.27
  Q 437.98 202.49 438.01 206.27
  A 0.50 0.48 0.6 0 1 437.50 206.75
  L 420.74 206.49
  A 0.86 0.83 75.2 0 1 420.03 206.06
  Q 419.35 204.88 419.29 206.75
  L 419.29 195.75
  L 419.96 198.37
  A 0.79 0.59 -5.4 0 0 420.69 198.81
  C 426.19 198.82 432.22 197.95 437.52 199.60
  A 0.40 0.39 -78.7 0 0 438.02 199.25
  L 438.71 191.75
  Z"
/>
<path fill="#0077bc" d="
  M 339.96 192.50
  L 340.11 205.52
  Q 339.57 206.85 339.69 208.26
  A 0.54 0.52 82.9 0 1 339.26 208.83
  Q 329.54 210.30 319.76 208.95
  L 320.04 195.35
  L 339.21 195.00
  A 0.62 0.60 -5.8 0 0 339.81 194.28
  Q 339.59 193.20 339.96 192.50
  Z"
/>
<path fill="#0077bc" d="
  M 219.59 193.45
  Q 224.76 201.40 234.05 205.93
  Q 225.90 208.29 218.25 207.50
  Q 215.70 207.24 215.25 209.46
  L 210.50 206.54
  Q 204.59 202.30 200.50 196.29
  Q 201.92 196.68 202.38 196.03
  Q 203.35 194.65 205.02 194.88
  Q 212.78 195.93 219.59 193.45
  Z"
/>
<path fill="#0077bc" d="
  M 123.96 193.75
  Q 130.53 203.74 142.04 207.25
  L 140.60 208.66
  A 1.40 1.34 19.7 0 1 139.75 209.04
  C 132.41 209.55 127.24 208.46 120.66 210.38
  A 1.34 1.32 56.0 0 1 119.44 210.13
  Q 118.58 209.43 117.00 209.29
  Q 107.87 204.63 103.25 195.54
  C 109.37 192.67 116.85 196.11 123.96 193.75
  Z"
/>
<path fill="#0068ae" d="
  M 285.46 197.50
  L 286.59 198.72
  A 1.22 0.71 -15.7 0 0 287.49 198.95
  Q 296.57 198.00 305.50 199.79
  L 299.05 205.85
  Q 285.38 215.11 269.11 217.47
  C 249.91 220.27 232.54 218.73 215.25 209.46
  Q 215.70 207.24 218.25 207.50
  Q 225.90 208.29 234.05 205.93
  C 251.43 213.69 271.62 210.85 285.46 197.50
  Z"
/>
<path fill="#0066ac" d="
  M 387.79 198.75
  Q 399.79 207.23 412.95 213.82
  Q 415.05 214.87 416.84 213.35
  Q 419.55 211.03 419.29 206.75
  Q 419.35 204.88 420.03 206.06
  A 0.86 0.83 75.2 0 0 420.74 206.49
  L 437.50 206.75
  A 0.50 0.48 0.6 0 0 438.01 206.27
  Q 437.98 202.49 438.25 205.27
  Q 438.34 206.29 438.71 207.25
  Q 438.55 208.60 440.31 208.69
  Q 468.13 210.03 495.27 203.75
  Q 499.88 202.68 497.57 206.81
  Q 494.10 213.00 486.66 218.45
  A 1.49 1.44 26.4 0 1 485.75 218.74
  L 427.25 217.79
  Q 419.24 217.19 411.25 217.79
  L 405.00 217.79
  L 393.00 217.79
  Q 390.67 217.75 388.31 216.31
  Q 376.40 209.08 367.00 201.79
  Q 367.76 202.03 368.37 201.80
  A 1.31 0.46 -69.6 0 0 368.96 201.09
  C 369.57 199.85 384.72 199.99 386.94 199.95
  A 0.76 0.61 4.1 0 0 387.63 199.47
  L 387.79 198.75
  Z"
/>
<path fill="#0064aa" d="
  M 176.25 219.04
  L 156.25 218.79
  C 143.36 218.50 128.39 216.18 117.00 209.29
  Q 118.58 209.43 119.44 210.13
  A 1.34 1.32 56.0 0 0 120.66 210.38
  C 127.24 208.46 132.41 209.55 139.75 209.04
  A 1.40 1.34 19.7 0 0 140.60 208.66
  L 142.04 207.25
  Q 170.44 215.17 197.24 203.53
  C 205.28 200.05 194.15 214.81 193.68 215.56
  Q 192.16 218.01 189.45 218.19
  L 176.25 219.04
  Z"
/>
<path fill="#0064aa" d="
  M 340.11 205.52
  Q 338.42 212.02 343.48 214.84
  C 345.21 215.80 347.25 218.59 343.38 218.47
  Q 330.32 218.09 317.25 218.25
  Q 314.87 218.28 314.06 217.44
  Q 312.94 216.26 314.57 215.58
  Q 319.31 213.60 319.76 208.95
  Q 329.54 210.30 339.26 208.83
  A 0.54 0.52 82.9 0 0 339.69 208.26
  Q 339.57 206.85 340.11 205.52
  Z"
/>
<path fill="#010101" fill-opacity="0.329" d="
  M 299.05 205.85
  Q 296.82 208.84 293.61 210.55
  C 290.78 212.06 288.52 213.98 285.55 215.07
  C 283.35 215.88 279.69 217.72 276.31 217.77
  C 274.25 217.80 273.43 219.07 271.75 219.27
  Q 266.73 219.89 261.69 220.16
  C 258.92 220.31 256.41 218.74 253.28 219.82
  Q 251.19 220.54 250.09 220.60
  C 248.96 220.67 246.16 221.15 245.28 220.40
  A 1.32 0.53 48.9 0 0 244.50 220.00
  Q 240.53 219.97 236.79 218.73
  Q 236.43 218.61 235.82 218.67
  Q 235.05 218.76 234.53 218.16
  A 1.52 0.91 63.9 0 0 233.76 217.66
  L 230.56 217.03
  A 1.14 0.76 73.5 0 1 229.89 216.47
  Q 229.55 215.87 228.74 215.92
  Q 228.09 215.96 227.77 215.84
  L 216.15 211.50
  A 1.48 1.02 77.8 0 1 215.47 210.86
  Q 214.67 209.40 213.05 209.03
  A 1.63 0.81 1.2 0 1 212.21 208.59
  L 210.50 206.54
  L 215.25 209.46
  C 232.54 218.73 249.91 220.27 269.11 217.47
  Q 285.38 215.11 299.05 205.85
  Z"
/>
<path fill="#010610" fill-opacity="0.965" d="
  M 427.25 217.79
  Q 419.25 218.38 411.25 217.79
  Q 419.24 217.19 427.25 217.79
  Z"
/>
<path fill="#010610" fill-opacity="0.965" d="
  M 393.00 217.79
  L 405.00 217.79
  Q 398.99 219.29 393.00 217.79
  Z"
/>
<path fill="#010610" fill-opacity="0.965" d="
  M 156.25 218.79
  L 176.25 219.04
  Q 166.23 220.14 156.25 218.79
  Z"
/>
<path fill="#004f96" d="
  M 190.28 244.34
  Q 186.14 242.34 181.21 244.59
  A 0.35 0.31 76.0 0 1 180.77 244.28
  L 180.46 240.75
  Q 179.87 234.47 186.47 233.43
  Q 189.20 232.99 191.95 233.01
  L 223.59 233.24
  A 1.39 1.38 84.0 0 1 224.93 234.33
  Q 225.99 239.05 222.74 238.94
  Q 206.88 238.40 191.00 238.74
  A 0.56 0.53 0.5 0 0 190.45 239.25
  L 190.28 244.34
  Z"
/>
<path fill="#004990" d="
  M 240.05 248.56
  L 239.39 256.07
  A 0.68 0.62 -2.5 0 1 238.82 256.64
  Q 234.44 257.28 230.70 256.62
  A 1.75 1.75 5.7 0 1 229.25 254.85
  L 229.76 234.18
  A 0.95 0.94 -89.4 0 1 230.69 233.26
  Q 247.99 233.08 264.19 233.43
  C 278.53 233.74 274.82 249.32 264.95 247.34
  Q 263.38 247.02 264.52 248.15
  C 265.37 248.98 276.15 257.10 270.30 256.85
  C 265.05 256.62 263.18 258.23 258.63 254.23
  Q 255.33 251.32 251.95 248.51
  A 1.58 1.20 59.5 0 0 251.07 248.15
  L 240.56 248.04
  A 0.57 0.51 -86.9 0 0 240.05 248.56
  Z
  M 263.4788 239.6696
  A 0.96 0.96 0.0 0 0 262.5171 238.7113
  L 241.0772 238.7487
  A 0.96 0.96 0.0 0 0 240.1188 239.7104
  L 240.1212 241.0504
  A 0.96 0.96 0.0 0 0 241.0829 242.0087
  L 262.5228 241.9713
  A 0.96 0.96 0.0 0 0 263.4812 241.0096
  L 263.4788 239.6696
  Z"
/>
<path fill="#00478e" d="
  M 300.04 238.73
  Q 299.27 239.24 298.17 240.67
  Q 292.09 248.49 285.99 256.30
  A 1.40 1.29 -75.4 0 1 285.21 256.80
  C 281.39 257.63 273.44 257.89 278.93 250.89
  Q 285.41 242.63 291.59 234.32
  A 2.67 2.63 -71.3 0 1 293.71 233.25
  L 306.57 233.25
  Q 308.60 233.25 309.86 234.91
  L 324.67 254.39
  Q 326.28 256.51 323.67 256.93
  Q 321.75 257.23 316.35 256.87
  A 2.60 2.51 72.9 0 1 314.45 255.82
  L 301.94 239.04
  A 1.40 1.38 -35.4 0 0 300.04 238.73
  Z"
/>
<path fill="#004990" d="
  M 338.50 248.31
  L 337.99 255.66
  A 1.59 1.51 1.1 0 1 336.45 257.06
  L 330.03 257.25
  Q 327.70 257.31 327.75 255.27
  L 328.23 234.59
  A 1.13 1.11 0.5 0 1 329.36 233.50
  L 367.58 233.50
  A 1.13 1.10 -12.5 0 1 368.59 234.13
  Q 369.57 236.16 368.64 238.48
  A 0.75 0.71 10.7 0 1 367.94 238.93
  Q 357.13 238.80 346.32 238.76
  C 344.73 238.75 341.96 239.16 340.00 238.72
  A 0.90 0.90 -70.8 0 0 338.99 239.21
  Q 337.46 242.44 339.75 242.45
  C 346.77 242.48 354.08 242.87 361.07 242.39
  Q 364.78 242.14 363.88 246.87
  A 1.40 1.39 -84.1 0 1 362.49 248.01
  Q 353.12 247.85 344.25 248.21
  Q 341.63 248.31 339.05 247.90
  A 0.47 0.46 7.4 0 0 338.50 248.31
  Z"
/>
<path fill="#00478e" d="
  M 391.62 250.38
  L 379.57 256.79
  C 379.34 256.81 365.16 258.05 371.00 254.50
  Q 374.98 252.08 385.92 244.78
  C 386.84 244.17 387.24 243.27 385.75 243.04
  Q 385.20 242.96 384.86 242.69
  C 381.01 239.68 376.58 238.45 373.18 234.81
  Q 371.97 233.52 373.74 233.50
  C 377.27 233.47 382.09 232.75 385.21 234.60
  Q 389.82 237.34 394.34 240.23
  A 0.79 0.78 45.3 0 0 395.18 240.24
  L 405.64 233.83
  A 1.90 1.51 -55.5 0 1 406.56 233.55
  L 414.81 233.50
  Q 419.10 233.48 415.58 235.97
  Q 410.10 239.86 403.34 243.51
  A 0.59 0.58 -41.9 0 0 403.28 244.51
  L 418.38 254.77
  Q 420.63 256.31 417.93 256.64
  C 413.79 257.14 408.98 257.83 405.44 255.40
  Q 400.65 252.13 395.50 248.55
  A 1.18 0.96 42.4 0 0 394.25 248.48
  L 391.62 250.38
  Z"
/>
<path fill="#00448c" d="
  M 180.46 240.75
  L 180.77 244.28
  A 0.35 0.31 76.0 0 0 181.21 244.59
  Q 186.14 242.34 190.28 244.34
  L 190.38 249.81
  A 0.57 0.53 0.0 0 0 190.94 250.33
  L 214.19 250.45
  A 0.94 0.91 16.0 0 0 214.97 250.03
  C 216.93 246.95 213.27 248.01 212.05 247.95
  Q 207.84 247.74 203.10 247.75
  A 1.28 1.28 -5.4 0 1 201.84 246.71
  C 200.74 240.97 203.93 241.72 208.16 241.79
  Q 215.82 241.92 224.29 242.01
  A 0.80 0.79 87.6 0 1 225.07 242.73
  Q 225.71 249.49 224.80 255.88
  A 1.00 1.00 3.7 0 1 223.82 256.74
  Q 207.56 256.90 192.14 256.59
  C 178.94 256.33 179.77 252.29 180.46 240.75
  Z"
/>
<path fill="#010102" fill-opacity="0.373" d="
  M 391.62 250.38
  C 389.85 252.70 382.51 259.06 379.57 256.79
  L 391.62 250.38
  Z"
/>
</svg>
