<?xml version="1.0" encoding="UTF-8" standalone="no"?>
<!DOCTYPE svg PUBLIC "-//W3C//DTD SVG 1.1//EN" "http://www.w3.org/Graphics/SVG/1.1/DTD/svg11.dtd">
<svg xmlns="http://www.w3.org/2000/svg" version="1.1" viewBox="0 0 600 300">
<g stroke-width="2.00" fill="none" stroke-linecap="butt">
<path stroke="#7278ab" vector-effect="non-scaling-stroke" d="
  M 143.50 90.29
  Q 129.84 93.26 117.21 99.25"
/>
<path stroke="#8982b1" vector-effect="non-scaling-stroke" d="
  M 117.21 99.25
  Q 104.01 104.94 92.37 112.99"
/>
<path stroke="#9487b4" vector-effect="non-scaling-stroke" d="
  M 92.37 112.99
  Q 82.12 119.48 73.50 127.71"
/>
<path stroke="#9c8ab6" vector-effect="non-scaling-stroke" d="
  M 73.50 127.71
  L 64.55 136.68
  A 3.68 2.88 -62.6 0 1 62.21 137.75
  L 39.01 137.75
  A 1.23 1.23 22.5 0 0 38.14 138.11
  Q 34.70 141.61 32.08 145.76
  Q 31.82 146.18 32.30 146.18
  L 56.64 146.01
  Q 57.15 146.01 56.86 146.44
  C 48.94 158.05 42.17 175.13 53.87 186.87"
/>
<path stroke="#9487b4" vector-effect="non-scaling-stroke" d="
  M 53.87 186.87
  Q 61.03 192.56 69.89 193.74"
/>
<path stroke="#8580b1" vector-effect="non-scaling-stroke" d="
  M 69.89 193.74
  Q 76.13 195.17 82.63 194.61"
/>
<path stroke="#7679ac" vector-effect="non-scaling-stroke" d="
  M 82.63 194.61
  Q 92.08 193.98 101.50 191.46"
/>
<path stroke="#6472a7" vector-effect="non-scaling-stroke" d="
  M 101.50 191.46
  Q 111.03 189.28 120.45 185.40
  A 0.47 0.46 60.8 0 0 120.64 184.69
  L 115.40 177.38
  A 0.91 0.91 -29.1 0 0 114.30 177.08
  L 103.50 181.71"
/>
<path stroke="#7679ac" vector-effect="non-scaling-stroke" d="
  M 103.50 181.71
  Q 95.16 184.83 86.25 184.79"
/>
<path stroke="#8580b1" vector-effect="non-scaling-stroke" d="
  M 86.25 184.79
  Q 78.87 184.93 73.25 180.29"
/>
<path stroke="#9487b4" vector-effect="non-scaling-stroke" d="
  M 73.25 180.29
  C 64.34 170.75 69.54 155.91 75.54 146.49
  A 0.94 0.90 14.7 0 1 76.31 146.06
  L 86.51 145.89"
/>
<path stroke="#7b7cae" vector-effect="non-scaling-stroke" d="
  M 86.51 145.89
  L 103.61 146.00
  A 0.40 0.40 10.6 0 1 103.98 146.54
  C 102.69 149.91 102.11 154.57 106.00 156.54"
/>
<path stroke="#6f77aa" vector-effect="non-scaling-stroke" d="
  M 106.00 156.54
  Q 111.69 158.74 117.16 156.16"
/>
<path stroke="#6472a7" vector-effect="non-scaling-stroke" d="
  M 117.16 156.16
  Q 124.55 153.64 130.88 149.02"
/>
<path stroke="#586da4" vector-effect="non-scaling-stroke" d="
  M 130.88 149.02
  L 134.59 146.27
  A 1.67 1.07 16.0 0 1 135.49 146.00
  L 142.00 145.96"
/>
<path stroke="#4c67a1" vector-effect="non-scaling-stroke" d="
  M 142.00 145.96
  L 153.00 145.96"
/>
<path stroke="#42639f" vector-effect="non-scaling-stroke" d="
  M 153.00 145.96
  L 165.50 145.96"
/>
<path stroke="#395f9c" vector-effect="non-scaling-stroke" d="
  M 165.50 145.96
  L 177.44 145.95
  A 1.19 1.10 -67.3 0 0 178.28 145.57
  C 189.64 133.22 206.15 105.87 185.26 92.91"
/>
<path stroke="#42639f" vector-effect="non-scaling-stroke" d="
  M 185.26 92.91
  Q 180.12 89.79 174.00 88.71"
/>
<path stroke="#454c8e" vector-effect="non-scaling-stroke" d="
  M 174.00 88.71
  C 173.86 86.84 168.97 87.17 167.25 87.29"
/>
<path stroke="#526aa3" vector-effect="non-scaling-stroke" d="
  M 167.25 87.29
  L 154.63 87.25
  A 0.83 0.82 -90.0 0 0 153.81 88.08
  C 153.83 89.12 152.41 88.73 151.70 88.80
  Q 147.54 89.21 143.50 90.29"
/>
<path stroke="#5ea0c4" vector-effect="non-scaling-stroke" d="
  M 167.25 87.29
  Q 170.01 89.30 173.50 88.79"
/>
<path stroke="#5bb7d4" vector-effect="non-scaling-stroke" d="
  M 173.50 88.79
  C 173.95 91.05 172.43 92.53 171.86 94.07
  Q 169.61 100.17 166.03 105.58
  A 1.67 1.64 -28.6 0 0 165.75 106.50
  C 165.70 109.50 165.05 115.97 162.98 118.27
  Q 160.86 120.63 161.04 116.50"
/>
<path stroke="#526aa3" vector-effect="non-scaling-stroke" d="
  M 161.04 116.50
  C 159.89 105.46 150.85 101.17 140.83 101.68"
/>
<path stroke="#8bcce0" vector-effect="non-scaling-stroke" d="
  M 140.83 101.68
  Q 143.88 94.79 144.50 92.50
  Q 144.91 91.00 143.50 90.29"
/>
<path stroke="#42acce" vector-effect="non-scaling-stroke" d="
  M 185.26 92.91
  Q 182.15 98.90 179.71 105.04
  C 179.15 106.45 179.40 107.86 178.87 109.33
  Q 176.84 114.90 174.19 120.19
  Q 173.68 121.20 173.72 122.76
  Q 173.74 123.27 173.51 123.69
  C 171.13 128.09 169.75 133.49 168.47 137.17
  Q 166.94 141.55 165.50 145.96"
/>
<path stroke="#55b5d3" vector-effect="non-scaling-stroke" d="
  M 153.00 145.96
  Q 153.70 145.21 153.68 143.85
  Q 153.68 143.26 153.93 142.73
  Q 155.47 139.55 155.59 137.30"
/>
<path stroke="#42639f" vector-effect="non-scaling-stroke" d="
  M 155.59 137.30
  Q 161.13 127.50 161.04 116.50"
/>
<path stroke="#7278ab" vector-effect="non-scaling-stroke" d="
  M 140.83 101.68
  Q 126.62 103.12 114.29 110.00"
/>
<path stroke="#c1e4ef" vector-effect="non-scaling-stroke" d="
  M 114.29 110.00
  Q 115.44 104.86 117.00 101.50
  Q 117.64 100.12 117.21 99.25"
/>
<path stroke="#4c67a1" vector-effect="non-scaling-stroke" d="
  M 155.59 137.30
  Q 150.48 138.06 145.00 137.79"
/>
<path stroke="#586da4" vector-effect="non-scaling-stroke" d="
  M 145.00 137.79
  Q 141.96 138.08 144.06 135.81
  C 147.76 131.82 153.30 117.55 142.25 118.04"
/>
<path stroke="#6472a7" vector-effect="non-scaling-stroke" d="
  M 142.25 118.04
  Q 136.04 117.98 130.50 120.79"
/>
<path stroke="#6f77aa" vector-effect="non-scaling-stroke" d="
  M 130.50 120.79
  Q 120.80 125.52 113.25 133.21"
/>
<path stroke="#7b7cae" vector-effect="non-scaling-stroke" d="
  M 113.25 133.21
  L 109.57 137.11
  A 1.30 0.86 -60.5 0 1 108.76 137.52
  L 93.50 137.79"
/>
<path stroke="#9487b4" vector-effect="non-scaling-stroke" d="
  M 93.50 137.79
  L 82.45 137.75
  Q 81.22 137.75 82.04 136.84
  L 87.29 131.00"
/>
<path stroke="#4e99c0" vector-effect="non-scaling-stroke" d="
  M 174.00 88.71
  L 173.50 88.79"
/>
<path stroke="#8982b1" vector-effect="non-scaling-stroke" d="
  M 114.29 110.00
  Q 99.21 118.48 87.29 131.00"
/>
<path stroke="#e4f3f8" vector-effect="non-scaling-stroke" d="
  M 87.29 131.00
  Q 85.96 131.04 86.63 130.11
  C 88.16 127.94 88.76 124.80 89.48 122.97
  Q 91.39 118.11 92.37 112.99"
/>
<path stroke="#83c9de" vector-effect="non-scaling-stroke" d="
  M 142.25 118.04
  Q 145.55 123.51 141.52 127.43
  C 139.58 129.32 138.28 130.80 136.42 131.99
  A 1.35 1.32 -8.7 0 0 135.86 132.73
  C 134.77 136.59 133.98 140.04 132.40 144.06
  Q 131.46 146.47 130.88 149.02"
/>
<path stroke="#9ad3e4" vector-effect="non-scaling-stroke" d="
  M 117.16 156.16
  L 122.56 140.69
  Q 123.24 138.76 125.21 138.02
  Q 132.53 135.26 136.21 131.00"
/>
<path stroke="#c7e7f0" vector-effect="non-scaling-stroke" d="
  M 136.21 131.00
  Q 140.53 127.90 139.77 122.80
  A 0.83 0.81 5.3 0 0 139.21 122.14
  Q 135.78 121.03 132.50 122.79"
/>
<path stroke="#9ad3e4" vector-effect="non-scaling-stroke" d="
  M 132.50 122.79
  Q 130.78 122.71 130.50 120.79"
/>
<path stroke="#d6edf5" vector-effect="non-scaling-stroke" d="
  M 93.50 137.79
  C 91.49 141.04 92.04 147.19 86.51 145.89"
/>
<path stroke="#e0f2f8" vector-effect="non-scaling-stroke" d="
  M 73.25 180.29
  Q 74.61 183.26 72.41 185.70
  Q 72.10 186.05 71.96 186.55
  L 69.89 193.74"
/>
<path stroke="#f7fcfd" vector-effect="non-scaling-stroke" d="
  M 53.87 186.87
  Q 54.90 183.68 55.94 180.82
  C 57.53 176.50 58.64 170.63 61.22 166.90
  A 1.46 1.14 65.2 0 0 61.43 166.00
  C 61.25 164.17 62.42 163.23 62.83 161.99
  Q 66.92 149.50 71.77 137.30
  C 72.72 134.90 73.08 130.26 74.42 128.37
  Q 75.74 126.50 73.50 127.71"
/>
<path stroke="#d2ecf3" vector-effect="non-scaling-stroke" d="
  M 132.50 122.79
  C 130.16 124.67 118.42 136.47 128.75 134.75
  Q 131.43 134.30 136.21 131.00"
/>
<path stroke="#b1ddeb" vector-effect="non-scaling-stroke" d="
  M 106.00 156.54
  Q 106.44 156.27 106.84 156.30
  A 0.62 0.49 8.3 0 0 107.45 155.95
  Q 108.75 151.30 110.30 146.72
  C 111.60 142.89 113.92 139.39 114.50 134.00
  Q 114.62 132.89 113.25 133.21"
/>
<path stroke="#6bbfd8" vector-effect="non-scaling-stroke" d="
  M 145.00 137.79
  Q 145.91 140.10 144.59 142.16
  A 1.65 1.48 62.3 0 0 144.36 143.06
  Q 144.46 145.49 142.00 145.96"
/>
<path stroke="#c2e4f0" vector-effect="non-scaling-stroke" d="
  M 86.25 184.79
  Q 84.98 189.80 82.63 194.61"
/>
<path stroke="#a1d6e6" vector-effect="non-scaling-stroke" d="
  M 101.50 191.46
  Q 102.80 186.79 104.41 182.22
  Q 104.66 181.51 103.50 181.71"
/>
<path stroke="#9c8ab6" vector-effect="non-scaling-stroke" d="
  M 267.58 132.94
  L 268.70 125.20
  A 0.83 0.76 -85.4 0 0 267.96 124.25
  L 258.51 124.25
  A 0.70 0.56 3.8 0 0 257.84 124.72
  L 257.18 128.80
  A 0.53 0.50 5.5 0 0 257.68 129.37
  L 260.94 129.57
  A 0.52 0.43 4.8 0 1 261.44 130.06
  L 261.20 131.83
  A 0.77 0.66 -1.8 0 1 260.57 132.40
  Q 251.63 133.94 251.21 126.04
  C 250.70 116.57 262.69 113.80 269.77 115.62
  A 0.50 0.44 11.7 0 0 270.38 115.27
  L 271.05 110.95
  A 0.68 0.61 13.8 0 0 270.58 110.27
  Q 260.19 106.82 251.44 113.43
  C 237.92 123.65 247.95 144.39 264.44 137.23
  C 265.01 136.98 266.81 135.31 265.94 137.54
  A 0.41 0.36 -77.7 0 0 266.25 138.09
  L 271.31 138.14
  A 0.90 0.66 -73.6 0 0 272.01 137.61
  L 275.46 130.38
  A 0.87 0.80 -76.9 0 1 276.19 129.88
  L 281.93 129.78
  A 0.61 0.59 84.4 0 1 282.53 130.29
  L 283.86 137.57
  A 0.65 0.57 84.6 0 0 284.43 138.11
  L 293.57 138.11
  A 0.76 0.65 -79.8 0 0 294.22 137.58
  L 298.91 123.03
  Q 299.07 122.54 299.18 123.06
  L 302.40 137.51
  A 0.87 0.78 89.2 0 0 302.98 138.14
  Q 304.48 138.53 305.97 138.09
  A 1.10 1.02 -84.4 0 0 306.65 137.49
  L 313.82 121.55
  Q 314.21 120.67 314.26 121.63
  L 314.98 137.50
  A 0.65 0.64 -85.5 0 0 315.49 138.11
  Q 317.86 138.56 320.20 138.05
  A 0.60 0.60 83.2 0 0 320.68 137.44
  L 319.72 110.28
  A 0.56 0.55 -1.1 0 0 319.16 109.75
  L 313.03 109.75
  A 0.97 0.95 -78.3 0 0 312.15 110.34
  L 306.08 124.52
  Q 305.73 125.34 305.57 124.46
  L 303.04 110.58
  A 0.93 0.86 84.1 0 0 302.17 109.81
  L 297.44 109.87
  A 0.79 0.68 -80.5 0 0 296.78 110.42
  L 290.09 130.95
  Q 289.52 132.72 289.20 130.90
  L 285.65 110.42
  A 0.73 0.68 84.7 0 0 284.96 109.80
  L 278.69 109.88
  A 0.86 0.74 -77.0 0 0 277.99 110.40
  L 267.77 132.99
  Q 267.48 133.64 267.58 132.94"
/>
<path stroke="#9c8ab6" vector-effect="non-scaling-stroke" d="
  M 330.35 120.44
  L 330.98 116.65
  A 1.05 1.03 -84.8 0 1 332.01 115.78
  L 340.73 115.94
  A 0.73 0.64 4.1 0 0 341.45 115.39
  L 342.15 110.31
  A 0.46 0.45 3.2 0 0 341.68 109.80
  L 326.43 109.91
  A 0.61 0.59 -85.9 0 0 325.86 110.42
  L 321.46 137.72
  A 0.45 0.44 -85.5 0 0 321.89 138.24
  L 337.30 138.08
  A 0.63 0.63 5.5 0 0 337.92 137.57
  L 338.77 132.89
  A 0.56 0.55 4.8 0 0 338.22 132.25
  L 329.25 132.25
  A 0.51 0.46 3.4 0 1 328.74 131.73
  L 329.33 127.73
  A 0.70 0.62 2.8 0 1 329.99 127.20
  L 337.75 126.98
  A 0.67 0.53 2.3 0 0 338.39 126.51
  L 339.07 121.70
  A 0.51 0.48 4.1 0 0 338.57 121.16
  L 330.81 120.94
  A 0.48 0.43 5.4 0 1 330.35 120.44"
/>
<path stroke="#9c8ab6" vector-effect="non-scaling-stroke" d="
  M 379.1175 138.4430
  A 14.58 12.18 103.9 0 0 394.4433 127.2160
  A 14.58 12.18 103.9 0 0 386.1225 110.1370
  A 14.58 12.18 103.9 0 0 370.7967 121.3640
  A 14.58 12.18 103.9 0 0 379.1175 138.4430"
/>
<path stroke="#9c8ab6" vector-effect="non-scaling-stroke" d="
  M 401.87 118.22
  L 398.51 110.39
  A 0.84 0.69 76.2 0 0 397.81 109.87
  L 392.24 109.92
  A 0.37 0.33 76.0 0 0 391.96 110.45
  L 398.17 123.53
  A 4.39 3.96 -55.6 0 1 398.50 125.99
  L 396.63 137.69
  A 0.47 0.43 -86.0 0 0 397.06 138.23
  L 401.82 138.12
  A 0.69 0.60 -84.0 0 0 402.41 137.57
  C 403.24 133.29 403.23 128.74 405.41 124.90
  Q 409.64 117.47 414.47 110.41
  Q 414.80 109.92 414.26 109.92
  L 408.65 109.88
  A 1.82 1.26 -67.6 0 0 407.37 110.71
  L 402.37 118.29
  Q 402.09 118.72 401.87 118.22"
/>
<path stroke="#9c8ab6" vector-effect="non-scaling-stroke" d="
  M 351.38 110.83
  L 347.01 137.58
  A 0.45 0.44 6.4 0 0 347.43 138.09
  C 351.43 138.34 357.66 138.57 360.36 138.23
  C 367.61 137.29 371.85 130.48 366.85 124.02
  A 0.75 0.75 -42.8 0 1 366.89 123.05
  C 370.37 119.18 370.76 114.73 366.47 111.47
  C 363.32 109.08 356.35 110.00 352.38 110.00
  A 1.02 1.00 4.7 0 0 351.38 110.83"
/>
<path stroke="#9c8ab6" vector-effect="non-scaling-stroke" d="
  M 441.91 129.77
  L 432.68 114.87
  A 1.53 1.21 70.7 0 0 431.53 114.14
  L 427.43 114.10
  A 1.05 0.73 -69.3 0 0 426.68 114.61
  L 415.37 133.38
  Q 415.00 134.00 415.71 134.00
  L 428.70 134.00
  A 0.60 0.56 -88.9 0 0 429.26 133.42
  L 429.33 130.02
  A 0.50 0.48 -88.9 0 0 428.85 129.50
  L 424.22 129.50
  Q 423.47 129.50 423.85 128.85
  L 429.07 119.80
  A 0.36 0.35 45.2 0 1 429.68 119.81
  L 437.74 133.58
  A 0.90 0.85 -13.4 0 0 438.49 134.01
  C 450.48 134.21 468.77 137.19 467.79 122.01
  Q 467.76 121.51 468.01 121.93
  C 469.31 124.07 474.35 133.46 476.26 134.01
  C 478.75 134.72 479.55 133.61 480.74 131.54
  Q 485.54 123.21 490.62 114.80
  Q 491.07 114.05 490.24 114.06
  L 485.44 114.12
  A 0.97 0.83 -72.8 0 0 484.67 114.61
  L 478.04 126.22
  A 0.63 0.63 -45.7 0 1 476.95 126.24
  L 470.07 114.62
  A 0.99 0.82 72.6 0 0 469.32 114.13
  L 464.05 114.03
  A 0.42 0.38 -9.0 0 0 463.64 114.55
  L 464.18 116.00
  Q 464.31 116.35 464.01 116.18
  C 458.74 113.12 450.06 113.74 442.93 114.16
  A 0.54 0.54 -1.1 0 0 442.42 114.69
  L 442.19 129.69
  Q 442.18 130.20 441.91 129.77"
/>
<path stroke="#9c8ab6" vector-effect="non-scaling-stroke" d="
  M 509.40 129.52
  L 500.39 115.24
  A 2.28 1.59 68.6 0 0 498.77 114.16
  L 494.80 114.18
  A 1.09 0.64 -67.6 0 0 494.06 114.74
  L 482.82 133.55
  Q 482.55 134.00 483.07 134.00
  L 496.19 133.94
  A 0.53 0.50 0.0 0 0 496.72 133.44
  L 496.72 130.06
  A 0.56 0.49 1.9 0 0 496.19 129.57
  L 491.75 129.32
  A 0.33 0.33 -73.1 0 1 491.49 128.82
  L 496.52 119.85
  Q 496.84 119.28 497.17 119.85
  L 504.85 133.37
  A 1.25 1.22 74.8 0 0 505.92 134.00
  L 514.75 134.00
  A 0.50 0.50 0.0 0 0 515.25 133.50
  L 515.30 123.04
  Q 515.31 121.91 516.20 122.62
  Q 523.10 128.15 529.81 133.44
  Q 531.39 134.68 533.97 133.85
  A 0.71 0.67 81.6 0 0 534.44 133.18
  L 534.50 114.72
  A 0.71 0.69 90.0 0 0 533.81 114.01
  L 529.81 114.04
  A 0.52 0.51 -89.4 0 0 529.30 114.55
  L 529.25 125.41
  Q 529.25 125.91 528.85 125.62
  Q 521.78 120.37 515.33 115.16
  Q 513.26 113.49 510.53 113.99
  A 0.99 0.97 85.0 0 0 509.74 114.95
  L 509.70 129.44
  Q 509.69 129.98 509.40 129.52"
/>
<path stroke="#9c8ab6" vector-effect="non-scaling-stroke" d="
  M 553.33 119.30
  C 552.87 121.78 554.18 121.46 556.02 121.66
  Q 561.10 122.21 558.72 116.45
  Q 557.86 114.38 555.63 114.22
  Q 548.34 113.70 540.75 114.15
  C 534.01 114.55 536.16 126.45 536.50 131.01
  Q 536.69 133.56 539.24 133.75
  Q 546.66 134.31 554.07 133.86
  C 558.51 133.59 560.28 131.01 559.08 126.79
  A 0.69 0.69 -7.4 0 0 558.43 126.29
  L 553.74 126.25
  A 0.40 0.40 82.2 0 0 553.36 126.76
  C 554.19 129.92 552.46 129.22 550.54 129.27
  Q 546.60 129.36 542.68 129.10
  A 0.53 0.52 -87.7 0 1 542.20 128.57
  L 542.20 119.44
  A 0.54 0.50 89.5 0 1 542.69 118.90
  L 552.93 118.79
  A 0.43 0.41 -84.7 0 1 553.33 119.30"
/>
<path stroke="#9c8ab6" vector-effect="non-scaling-stroke" d="
  M 567.02 128.69
  L 567.02 126.31
  A 0.54 0.51 -0.0 0 1 567.56 125.80
  L 575.73 125.75
  A 0.52 0.51 0.0 0 0 576.25 125.24
  L 576.25 122.01
  A 0.53 0.52 0.6 0 0 575.73 121.49
  L 567.81 121.45
  A 0.76 0.71 -9.3 0 1 567.11 120.98
  Q 566.74 120.00 567.11 119.01
  A 0.78 0.69 9.1 0 1 567.82 118.56
  L 582.00 118.50
  A 0.60 0.51 -0.0 0 0 582.60 117.99
  L 582.59 114.54
  A 0.65 0.48 0.0 0 0 581.94 114.06
  L 561.76 114.00
  A 0.52 0.51 90.0 0 0 561.25 114.52
  L 561.25 133.48
  A 0.52 0.52 90.0 0 0 561.77 134.00
  L 582.30 134.00
  A 0.58 0.51 0.0 0 0 582.88 133.49
  L 582.87 129.98
  A 0.62 0.50 0.6 0 0 582.26 129.48
  L 567.57 129.18
  A 0.56 0.49 0.6 0 1 567.02 128.69"
/>
<path stroke="#9c8ab6" vector-effect="non-scaling-stroke" d="
  M 279.95 119.92
  C 279.31 121.46 276.21 125.01 281.00 124.11
  A 0.64 0.59 78.9 0 0 281.46 123.36
  L 280.75 120.02
  Q 280.47 118.67 279.95 119.92"
/>
<path stroke="#9c8ab6" vector-effect="non-scaling-stroke" d="
  M 380.3641 132.9343
  A 8.97 6.08 104.5 0 0 388.4963 125.7723
  A 8.97 6.08 104.5 0 0 384.8559 115.5657
  A 8.97 6.08 104.5 0 0 376.7237 122.7277
  A 8.97 6.08 104.5 0 0 380.3641 132.9343"
/>
<path stroke="#9c8ab6" vector-effect="non-scaling-stroke" d="
  M 356.45 116.61
  L 355.84 120.45
  A 0.54 0.52 9.3 0 0 356.29 121.05
  C 358.87 121.48 365.71 120.62 362.28 116.67
  A 1.39 0.91 62.3 0 0 361.44 116.20
  L 357.07 116.06
  A 0.65 0.60 -84.1 0 0 356.45 116.61"
/>
<path stroke="#9c8ab6" vector-effect="non-scaling-stroke" d="
  M 354.61 127.92
  L 353.90 131.78
  A 0.73 0.73 -82.1 0 0 354.55 132.64
  C 366.67 133.75 364.20 124.69 355.17 127.29
  A 0.81 0.77 87.9 0 0 354.61 127.92"
/>
<path stroke="#9c8ab6" vector-effect="non-scaling-stroke" d="
  M 448.15 128.64
  A 0.58 0.54 -89.0 0 0 448.66 129.21
  C 452.90 129.46 461.76 130.58 461.65 123.76
  C 461.54 117.06 453.16 118.65 448.56 118.80
  A 0.50 0.47 88.8 0 0 448.10 119.31
  L 448.15 128.64"
/>
</g>
<path fill="#39156d" d="
  M 226.9955 84.1301
  A 128.04 71.00 -30.7 0 1 153.1485 210.5495
  A 128.04 71.00 -30.7 0 1 6.8045 214.8699
  A 128.04 71.00 -30.7 0 1 80.6515 88.4505
  A 128.04 71.00 -30.7 0 1 226.9955 84.1301
  Z
  M 209.9523 88.2199
  A 110.51 61.28 -30.7 0 0 83.6439 91.9483
  A 110.51 61.28 -30.7 0 0 19.9077 201.0601
  A 110.51 61.28 -30.7 0 0 146.2161 197.3317
  A 110.51 61.28 -30.7 0 0 209.9523 88.2199
  Z"
/>
<path fill="#39156d" d="
  M 79.07 155.51
  C 76.26 160.63 69.99 174.76 76.90 179.12
  C 88.08 186.17 103.41 180.18 114.26 174.71
  Q 116.32 173.68 117.83 175.42
  Q 123.78 182.30 125.61 189.26
  Q 126.55 192.85 123.13 194.28
  Q 114.13 198.07 104.70 200.27
  C 98.79 201.65 93.20 203.74 87.19 203.94
  Q 79.42 204.19 71.64 203.84
  C 68.75 203.71 66.65 202.35 64.44 201.81
  C 43.92 196.81 39.24 172.15 48.61 155.83
  Q 49.12 154.93 48.08 154.93
  L 32.17 155.00
  A 1.84 1.82 83.1 0 1 30.40 153.59
  Q 29.69 150.60 27.84 147.73
  A 0.65 0.63 50.1 0 1 27.90 146.95
  Q 31.80 142.78 35.13 138.14
  C 37.45 134.90 39.83 135.25 44.15 135.25
  Q 52.67 135.25 61.82 135.25
  A 1.96 1.96 -68.2 0 0 63.24 134.64
  C 86.41 110.22 118.76 91.57 152.00 86.23
  C 163.05 84.46 176.49 84.58 186.44 89.81
  C 193.60 93.58 197.10 100.40 199.50 109.00
  C 203.61 123.76 193.78 140.72 183.65 151.92
  C 180.99 154.85 181.32 155.01 177.03 155.00
  Q 157.54 154.95 138.05 155.06
  A 1.42 1.36 -63.7 0 0 137.17 155.38
  C 130.30 160.81 110.28 173.15 102.56 163.44
  Q 101.34 161.90 99.46 155.68
  A 0.71 0.65 81.1 0 0 98.82 155.17
  L 79.82 155.05
  A 0.88 0.84 -75.0 0 0 79.07 155.51
  Z
  M 143.50 90.29
  Q 129.84 93.26 117.21 99.25
  Q 104.01 104.94 92.37 112.99
  Q 82.12 119.48 73.50 127.71
  L 64.55 136.68
  A 3.68 2.88 -62.6 0 1 62.21 137.75
  L 39.01 137.75
  A 1.23 1.23 22.5 0 0 38.14 138.11
  Q 34.70 141.61 32.08 145.76
  Q 31.82 146.18 32.30 146.18
  L 56.64 146.01
  Q 57.15 146.01 56.86 146.44
  C 48.94 158.05 42.17 175.13 53.87 186.87
  Q 61.03 192.56 69.89 193.74
  Q 76.13 195.17 82.63 194.61
  Q 92.08 193.98 101.50 191.46
  Q 111.03 189.28 120.45 185.40
  A 0.47 0.46 60.8 0 0 120.64 184.69
  L 115.40 177.38
  A 0.91 0.91 -29.1 0 0 114.30 177.08
  L 103.50 181.71
  Q 95.16 184.83 86.25 184.79
  Q 78.87 184.93 73.25 180.29
  C 64.34 170.75 69.54 155.91 75.54 146.49
  A 0.94 0.90 14.7 0 1 76.31 146.06
  L 86.51 145.89
  L 103.61 146.00
  A 0.40 0.40 10.6 0 1 103.98 146.54
  C 102.69 149.91 102.11 154.57 106.00 156.54
  Q 111.69 158.74 117.16 156.16
  Q 124.55 153.64 130.88 149.02
  L 134.59 146.27
  A 1.67 1.07 16.0 0 1 135.49 146.00
  L 142.00 145.96
  L 153.00 145.96
  L 165.50 145.96
  L 177.44 145.95
  A 1.19 1.10 -67.3 0 0 178.28 145.57
  C 189.64 133.22 206.15 105.87 185.26 92.91
  Q 180.12 89.79 174.00 88.71
  C 173.86 86.84 168.97 87.17 167.25 87.29
  L 154.63 87.25
  A 0.83 0.82 -90.0 0 0 153.81 88.08
  C 153.83 89.12 152.41 88.73 151.70 88.80
  Q 147.54 89.21 143.50 90.29
  Z"
/>
<path fill="#6bbed8" d="
  M 167.25 87.29
  Q 170.01 89.30 173.50 88.79
  C 173.95 91.05 172.43 92.53 171.86 94.07
  Q 169.61 100.17 166.03 105.58
  A 1.67 1.64 -28.6 0 0 165.75 106.50
  C 165.70 109.50 165.05 115.97 162.98 118.27
  Q 160.86 120.63 161.04 116.50
  C 159.89 105.46 150.85 101.17 140.83 101.68
  Q 143.88 94.79 144.50 92.50
  Q 144.91 91.00 143.50 90.29
  Q 147.54 89.21 151.70 88.80
  C 152.41 88.73 153.83 89.12 153.81 88.08
  A 0.83 0.82 -90.0 0 1 154.63 87.25
  L 167.25 87.29
  Z"
/>
<path fill="#5182af" d="
  M 167.25 87.29
  C 168.97 87.17 173.86 86.84 174.00 88.71
  L 173.50 88.79
  Q 170.01 89.30 167.25 87.29
  Z"
/>
<path fill="#4bb0d0" d="
  M 173.50 88.79
  L 174.00 88.71
  Q 180.12 89.79 185.26 92.91
  Q 182.15 98.90 179.71 105.04
  C 179.15 106.45 179.40 107.86 178.87 109.33
  Q 176.84 114.90 174.19 120.19
  Q 173.68 121.20 173.72 122.76
  Q 173.74 123.27 173.51 123.69
  C 171.13 128.09 169.75 133.49 168.47 137.17
  Q 166.94 141.55 165.50 145.96
  L 153.00 145.96
  Q 153.70 145.21 153.68 143.85
  Q 153.68 143.26 153.93 142.73
  Q 155.47 139.55 155.59 137.30
  Q 161.13 127.50 161.04 116.50
  Q 160.86 120.63 162.98 118.27
  C 165.05 115.97 165.70 109.50 165.75 106.50
  A 1.67 1.64 -28.6 0 1 166.03 105.58
  Q 169.61 100.17 171.86 94.07
  C 172.43 92.53 173.95 91.05 173.50 88.79
  Z"
/>
<path fill="#aadae8" d="
  M 143.50 90.29
  Q 144.91 91.00 144.50 92.50
  Q 143.88 94.79 140.83 101.68
  Q 126.62 103.12 114.29 110.00
  Q 115.44 104.86 117.00 101.50
  Q 117.64 100.12 117.21 99.25
  Q 129.84 93.26 143.50 90.29
  Z"
/>
<path fill="#38a8cb" d="
  M 185.26 92.91
  C 206.15 105.87 189.64 133.22 178.28 145.57
  A 1.19 1.10 -67.3 0 1 177.44 145.95
  L 165.50 145.96
  Q 166.94 141.55 168.47 137.17
  C 169.75 133.49 171.13 128.09 173.51 123.69
  Q 173.74 123.27 173.72 122.76
  Q 173.68 121.20 174.19 120.19
  Q 176.84 114.90 178.87 109.33
  C 179.40 107.86 179.15 106.45 179.71 105.04
  Q 182.15 98.90 185.26 92.91
  Z"
/>
<path fill="#d8eef5" d="
  M 117.21 99.25
  Q 117.64 100.12 117.00 101.50
  Q 115.44 104.86 114.29 110.00
  Q 99.21 118.48 87.29 131.00
  Q 85.96 131.04 86.63 130.11
  C 88.16 127.94 88.76 124.80 89.48 122.97
  Q 91.39 118.11 92.37 112.99
  Q 104.01 104.94 117.21 99.25
  Z"
/>
<path fill="#39156d" d="
  M 140.83 101.68
  C 150.85 101.17 159.89 105.46 161.04 116.50
  Q 161.13 127.50 155.59 137.30
  Q 150.48 138.06 145.00 137.79
  Q 141.96 138.08 144.06 135.81
  C 147.76 131.82 153.30 117.55 142.25 118.04
  Q 136.04 117.98 130.50 120.79
  Q 120.80 125.52 113.25 133.21
  L 109.57 137.11
  A 1.30 0.86 -60.5 0 1 108.76 137.52
  L 93.50 137.79
  L 82.45 137.75
  Q 81.22 137.75 82.04 136.84
  L 87.29 131.00
  Q 99.21 118.48 114.29 110.00
  Q 126.62 103.12 140.83 101.68
  Z
  M 155.57 115.64
  C 139.47 101.18 106.97 123.69 95.02 135.09
  Q 94.60 135.50 95.20 135.49
  L 106.96 135.28
  A 3.57 3.15 17.6 0 0 109.47 134.17
  Q 120.27 121.73 135.75 116.50
  C 140.06 115.05 147.23 114.28 150.47 118.54
  C 153.40 122.40 154.79 129.39 153.22 134.46
  A 0.56 0.45 -75.0 0 0 153.52 135.15
  C 154.08 135.28 153.98 134.29 154.16 133.90
  Q 157.41 126.58 157.27 119.35
  Q 157.22 117.13 155.57 115.64
  Z"
/>
<path fill="#39156d" d="
  M 422.57 108.94
  L 471.85 109.00
  A 1.62 1.60 74.5 0 1 473.23 109.79
  L 476.95 116.09
  Q 477.53 117.08 478.10 116.00
  L 481.25 110.02
  A 1.54 1.41 12.7 0 1 482.58 109.26
  L 515.25 109.25
  A 1.47 1.25 -22.4 0 1 516.15 109.54
  L 522.67 114.62
  Q 524.21 115.82 524.25 113.76
  L 524.34 109.68
  A 0.59 0.50 0.5 0 1 524.93 109.19
  L 586.64 109.19
  A 1.42 1.40 -89.8 0 1 588.04 110.62
  L 587.94 138.54
  A 0.72 0.70 -89.6 0 1 587.24 139.25
  L 530.02 139.25
  A 2.58 2.32 -23.9 0 1 528.52 138.76
  L 521.10 133.09
  Q 520.35 132.52 520.37 133.47
  L 520.50 138.58
  A 0.68 0.66 -0.4 0 1 519.82 139.25
  L 473.31 139.19
  A 0.97 0.90 -15.6 0 1 472.52 138.78
  L 469.76 134.67
  A 0.45 0.44 54.2 0 0 469.11 134.56
  Q 463.05 139.22 455.25 139.23
  Q 433.00 139.25 410.75 139.25
  Q 407.09 139.25 407.25 141.25
  Q 407.45 143.83 405.22 143.62
  C 400.75 143.21 395.94 143.50 391.40 143.50
  A 0.57 0.57 -2.8 0 1 390.83 142.99
  C 390.52 140.15 390.09 141.65 388.90 142.19
  Q 380.05 146.25 370.80 139.81
  A 1.12 1.12 45.8 0 0 369.55 139.79
  C 366.08 142.07 363.94 143.23 359.56 143.28
  Q 320.75 143.68 280.85 143.49
  A 1.39 1.38 86.2 0 1 279.48 142.28
  Q 279.21 140.25 278.75 137.59
  C 278.32 135.05 275.56 142.64 275.49 142.82
  A 1.14 1.14 -78.0 0 1 274.43 143.51
  C 267.40 143.39 257.93 144.54 252.29 142.83
  C 244.22 140.37 239.13 132.63 240.11 123.98
  C 241.90 108.31 258.96 101.00 272.75 105.50
  Q 274.28 106.00 275.22 105.18
  A 1.43 0.78 -52.9 0 1 276.06 104.80
  L 289.31 104.91
  A 0.74 0.70 81.2 0 1 289.97 105.42
  Q 290.67 107.64 290.75 110.00
  C 290.84 112.90 293.48 105.38 293.56 105.24
  A 0.87 0.84 14.0 0 1 294.31 104.81
  Q 328.16 104.70 362.00 104.78
  Q 367.96 104.80 371.51 109.36
  A 0.63 0.63 -39.3 0 0 372.43 109.45
  Q 377.54 104.84 384.50 104.81
  Q 403.37 104.75 422.25 104.75
  Q 425.32 104.75 423.19 106.69
  Q 422.37 107.43 422.14 108.45
  A 0.43 0.40 5.9 0 0 422.57 108.94
  Z
  M 267.58 132.94
  L 268.70 125.20
  A 0.83 0.76 -85.4 0 0 267.96 124.25
  L 258.51 124.25
  A 0.70 0.56 3.8 0 0 257.84 124.72
  L 257.18 128.80
  A 0.53 0.50 5.5 0 0 257.68 129.37
  L 260.94 129.57
  A 0.52 0.43 4.8 0 1 261.44 130.06
  L 261.20 131.83
  A 0.77 0.66 -1.8 0 1 260.57 132.40
  Q 251.63 133.94 251.21 126.04
  C 250.70 116.57 262.69 113.80 269.77 115.62
  A 0.50 0.44 11.7 0 0 270.38 115.27
  L 271.05 110.95
  A 0.68 0.61 13.8 0 0 270.58 110.27
  Q 260.19 106.82 251.44 113.43
  C 237.92 123.65 247.95 144.39 264.44 137.23
  C 265.01 136.98 266.81 135.31 265.94 137.54
  A 0.41 0.36 -77.7 0 0 266.25 138.09
  L 271.31 138.14
  A 0.90 0.66 -73.6 0 0 272.01 137.61
  L 275.46 130.38
  A 0.87 0.80 -76.9 0 1 276.19 129.88
  L 281.93 129.78
  A 0.61 0.59 84.4 0 1 282.53 130.29
  L 283.86 137.57
  A 0.65 0.57 84.6 0 0 284.43 138.11
  L 293.57 138.11
  A 0.76 0.65 -79.8 0 0 294.22 137.58
  L 298.91 123.03
  Q 299.07 122.54 299.18 123.06
  L 302.40 137.51
  A 0.87 0.78 89.2 0 0 302.98 138.14
  Q 304.48 138.53 305.97 138.09
  A 1.10 1.02 -84.4 0 0 306.65 137.49
  L 313.82 121.55
  Q 314.21 120.67 314.26 121.63
  L 314.98 137.50
  A 0.65 0.64 -85.5 0 0 315.49 138.11
  Q 317.86 138.56 320.20 138.05
  A 0.60 0.60 83.2 0 0 320.68 137.44
  L 319.72 110.28
  A 0.56 0.55 -1.1 0 0 319.16 109.75
  L 313.03 109.75
  A 0.97 0.95 -78.3 0 0 312.15 110.34
  L 306.08 124.52
  Q 305.73 125.34 305.57 124.46
  L 303.04 110.58
  A 0.93 0.86 84.1 0 0 302.17 109.81
  L 297.44 109.87
  A 0.79 0.68 -80.5 0 0 296.78 110.42
  L 290.09 130.95
  Q 289.52 132.72 289.20 130.90
  L 285.65 110.42
  A 0.73 0.68 84.7 0 0 284.96 109.80
  L 278.69 109.88
  A 0.86 0.74 -77.0 0 0 277.99 110.40
  L 267.77 132.99
  Q 267.48 133.64 267.58 132.94
  Z
  M 330.35 120.44
  L 330.98 116.65
  A 1.05 1.03 -84.8 0 1 332.01 115.78
  L 340.73 115.94
  A 0.73 0.64 4.1 0 0 341.45 115.39
  L 342.15 110.31
  A 0.46 0.45 3.2 0 0 341.68 109.80
  L 326.43 109.91
  A 0.61 0.59 -85.9 0 0 325.86 110.42
  L 321.46 137.72
  A 0.45 0.44 -85.5 0 0 321.89 138.24
  L 337.30 138.08
  A 0.63 0.63 5.5 0 0 337.92 137.57
  L 338.77 132.89
  A 0.56 0.55 4.8 0 0 338.22 132.25
  L 329.25 132.25
  A 0.51 0.46 3.4 0 1 328.74 131.73
  L 329.33 127.73
  A 0.70 0.62 2.8 0 1 329.99 127.20
  L 337.75 126.98
  A 0.67 0.53 2.3 0 0 338.39 126.51
  L 339.07 121.70
  A 0.51 0.48 4.1 0 0 338.57 121.16
  L 330.81 120.94
  A 0.48 0.43 5.4 0 1 330.35 120.44
  Z
  M 379.1175 138.4430
  A 14.58 12.18 103.9 0 0 394.4433 127.2160
  A 14.58 12.18 103.9 0 0 386.1225 110.1370
  A 14.58 12.18 103.9 0 0 370.7967 121.3640
  A 14.58 12.18 103.9 0 0 379.1175 138.4430
  Z
  M 401.87 118.22
  L 398.51 110.39
  A 0.84 0.69 76.2 0 0 397.81 109.87
  L 392.24 109.92
  A 0.37 0.33 76.0 0 0 391.96 110.45
  L 398.17 123.53
  A 4.39 3.96 -55.6 0 1 398.50 125.99
  L 396.63 137.69
  A 0.47 0.43 -86.0 0 0 397.06 138.23
  L 401.82 138.12
  A 0.69 0.60 -84.0 0 0 402.41 137.57
  C 403.24 133.29 403.23 128.74 405.41 124.90
  Q 409.64 117.47 414.47 110.41
  Q 414.80 109.92 414.26 109.92
  L 408.65 109.88
  A 1.82 1.26 -67.6 0 0 407.37 110.71
  L 402.37 118.29
  Q 402.09 118.72 401.87 118.22
  Z
  M 351.38 110.83
  L 347.01 137.58
  A 0.45 0.44 6.4 0 0 347.43 138.09
  C 351.43 138.34 357.66 138.57 360.36 138.23
  C 367.61 137.29 371.85 130.48 366.85 124.02
  A 0.75 0.75 -42.8 0 1 366.89 123.05
  C 370.37 119.18 370.76 114.73 366.47 111.47
  C 363.32 109.08 356.35 110.00 352.38 110.00
  A 1.02 1.00 4.7 0 0 351.38 110.83
  Z
  M 441.91 129.77
  L 432.68 114.87
  A 1.53 1.21 70.7 0 0 431.53 114.14
  L 427.43 114.10
  A 1.05 0.73 -69.3 0 0 426.68 114.61
  L 415.37 133.38
  Q 415.00 134.00 415.71 134.00
  L 428.70 134.00
  A 0.60 0.56 -88.9 0 0 429.26 133.42
  L 429.33 130.02
  A 0.50 0.48 -88.9 0 0 428.85 129.50
  L 424.22 129.50
  Q 423.47 129.50 423.85 128.85
  L 429.07 119.80
  A 0.36 0.35 45.2 0 1 429.68 119.81
  L 437.74 133.58
  A 0.90 0.85 -13.4 0 0 438.49 134.01
  C 450.48 134.21 468.77 137.19 467.79 122.01
  Q 467.76 121.51 468.01 121.93
  C 469.31 124.07 474.35 133.46 476.26 134.01
  C 478.75 134.72 479.55 133.61 480.74 131.54
  Q 485.54 123.21 490.62 114.80
  Q 491.07 114.05 490.24 114.06
  L 485.44 114.12
  A 0.97 0.83 -72.8 0 0 484.67 114.61
  L 478.04 126.22
  A 0.63 0.63 -45.7 0 1 476.95 126.24
  L 470.07 114.62
  A 0.99 0.82 72.6 0 0 469.32 114.13
  L 464.05 114.03
  A 0.42 0.38 -9.0 0 0 463.64 114.55
  L 464.18 116.00
  Q 464.31 116.35 464.01 116.18
  C 458.74 113.12 450.06 113.74 442.93 114.16
  A 0.54 0.54 -1.1 0 0 442.42 114.69
  L 442.19 129.69
  Q 442.18 130.20 441.91 129.77
  Z
  M 509.40 129.52
  L 500.39 115.24
  A 2.28 1.59 68.6 0 0 498.77 114.16
  L 494.80 114.18
  A 1.09 0.64 -67.6 0 0 494.06 114.74
  L 482.82 133.55
  Q 482.55 134.00 483.07 134.00
  L 496.19 133.94
  A 0.53 0.50 0.0 0 0 496.72 133.44
  L 496.72 130.06
  A 0.56 0.49 1.9 0 0 496.19 129.57
  L 491.75 129.32
  A 0.33 0.33 -73.1 0 1 491.49 128.82
  L 496.52 119.85
  Q 496.84 119.28 497.17 119.85
  L 504.85 133.37
  A 1.25 1.22 74.8 0 0 505.92 134.00
  L 514.75 134.00
  A 0.50 0.50 0.0 0 0 515.25 133.50
  L 515.30 123.04
  Q 515.31 121.91 516.20 122.62
  Q 523.10 128.15 529.81 133.44
  Q 531.39 134.68 533.97 133.85
  A 0.71 0.67 81.6 0 0 534.44 133.18
  L 534.50 114.72
  A 0.71 0.69 90.0 0 0 533.81 114.01
  L 529.81 114.04
  A 0.52 0.51 -89.4 0 0 529.30 114.55
  L 529.25 125.41
  Q 529.25 125.91 528.85 125.62
  Q 521.78 120.37 515.33 115.16
  Q 513.26 113.49 510.53 113.99
  A 0.99 0.97 85.0 0 0 509.74 114.95
  L 509.70 129.44
  Q 509.69 129.98 509.40 129.52
  Z
  M 553.33 119.30
  C 552.87 121.78 554.18 121.46 556.02 121.66
  Q 561.10 122.21 558.72 116.45
  Q 557.86 114.38 555.63 114.22
  Q 548.34 113.70 540.75 114.15
  C 534.01 114.55 536.16 126.45 536.50 131.01
  Q 536.69 133.56 539.24 133.75
  Q 546.66 134.31 554.07 133.86
  C 558.51 133.59 560.28 131.01 559.08 126.79
  A 0.69 0.69 -7.4 0 0 558.43 126.29
  L 553.74 126.25
  A 0.40 0.40 82.2 0 0 553.36 126.76
  C 554.19 129.92 552.46 129.22 550.54 129.27
  Q 546.60 129.36 542.68 129.10
  A 0.53 0.52 -87.7 0 1 542.20 128.57
  L 542.20 119.44
  A 0.54 0.50 89.5 0 1 542.69 118.90
  L 552.93 118.79
  A 0.43 0.41 -84.7 0 1 553.33 119.30
  Z
  M 567.02 128.69
  L 567.02 126.31
  A 0.54 0.51 -0.0 0 1 567.56 125.80
  L 575.73 125.75
  A 0.52 0.51 0.0 0 0 576.25 125.24
  L 576.25 122.01
  A 0.53 0.52 0.6 0 0 575.73 121.49
  L 567.81 121.45
  A 0.76 0.71 -9.3 0 1 567.11 120.98
  Q 566.74 120.00 567.11 119.01
  A 0.78 0.69 9.1 0 1 567.82 118.56
  L 582.00 118.50
  A 0.60 0.51 -0.0 0 0 582.60 117.99
  L 582.59 114.54
  A 0.65 0.48 0.0 0 0 581.94 114.06
  L 561.76 114.00
  A 0.52 0.51 90.0 0 0 561.25 114.52
  L 561.25 133.48
  A 0.52 0.52 90.0 0 0 561.77 134.00
  L 582.30 134.00
  A 0.58 0.51 0.0 0 0 582.88 133.49
  L 582.87 129.98
  A 0.62 0.50 0.6 0 0 582.26 129.48
  L 567.57 129.18
  A 0.56 0.49 0.6 0 1 567.02 128.69
  Z"
/>
<path fill="#ffffff" d="
  M 267.77 132.99
  L 277.99 110.40
  A 0.86 0.74 -77.0 0 1 278.69 109.88
  L 284.96 109.80
  A 0.73 0.68 84.7 0 1 285.65 110.42
  L 289.20 130.90
  Q 289.52 132.72 290.09 130.95
  L 296.78 110.42
  A 0.79 0.68 -80.5 0 1 297.44 109.87
  L 302.17 109.81
  A 0.93 0.86 84.1 0 1 303.04 110.58
  L 305.57 124.46
  Q 305.73 125.34 306.08 124.52
  L 312.15 110.34
  A 0.97 0.95 -78.3 0 1 313.03 109.75
  L 319.16 109.75
  A 0.56 0.55 -1.1 0 1 319.72 110.28
  L 320.68 137.44
  A 0.60 0.60 83.2 0 1 320.20 138.05
  Q 317.86 138.56 315.49 138.11
  A 0.65 0.64 -85.5 0 1 314.98 137.50
  L 314.26 121.63
  Q 314.21 120.67 313.82 121.55
  L 306.65 137.49
  A 1.10 1.02 -84.4 0 1 305.97 138.09
  Q 304.48 138.53 302.98 138.14
  A 0.87 0.78 89.2 0 1 302.40 137.51
  L 299.18 123.06
  Q 299.07 122.54 298.91 123.03
  L 294.22 137.58
  A 0.76 0.65 -79.8 0 1 293.57 138.11
  L 284.43 138.11
  A 0.65 0.57 84.6 0 1 283.86 137.57
  L 282.53 130.29
  A 0.61 0.59 84.4 0 0 281.93 129.78
  L 276.19 129.88
  A 0.87 0.80 -76.9 0 0 275.46 130.38
  L 272.01 137.61
  A 0.90 0.66 -73.6 0 1 271.31 138.14
  L 266.25 138.09
  A 0.41 0.36 -77.7 0 1 265.94 137.54
  C 266.81 135.31 265.01 136.98 264.44 137.23
  C 247.95 144.39 237.92 123.65 251.44 113.43
  Q 260.19 106.82 270.58 110.27
  A 0.68 0.61 13.8 0 1 271.05 110.95
  L 270.38 115.27
  A 0.50 0.44 11.7 0 1 269.77 115.62
  C 262.69 113.80 250.70 116.57 251.21 126.04
  Q 251.63 133.94 260.57 132.40
  A 0.77 0.66 -1.8 0 0 261.20 131.83
  L 261.44 130.06
  A 0.52 0.43 4.8 0 0 260.94 129.57
  L 257.68 129.37
  A 0.53 0.50 5.5 0 1 257.18 128.80
  L 257.84 124.72
  A 0.70 0.56 3.8 0 1 258.51 124.25
  L 267.96 124.25
  A 0.83 0.76 -85.4 0 1 268.70 125.20
  L 267.58 132.94
  Q 267.48 133.64 267.77 132.99
  Z
  M 279.95 119.92
  C 279.31 121.46 276.21 125.01 281.00 124.11
  A 0.64 0.59 78.9 0 0 281.46 123.36
  L 280.75 120.02
  Q 280.47 118.67 279.95 119.92
  Z"
/>
<path fill="#ffffff" d="
  M 330.81 120.94
  L 338.57 121.16
  A 0.51 0.48 4.1 0 1 339.07 121.70
  L 338.39 126.51
  A 0.67 0.53 2.3 0 1 337.75 126.98
  L 329.99 127.20
  A 0.70 0.62 2.8 0 0 329.33 127.73
  L 328.74 131.73
  A 0.51 0.46 3.4 0 0 329.25 132.25
  L 338.22 132.25
  A 0.56 0.55 4.8 0 1 338.77 132.89
  L 337.92 137.57
  A 0.63 0.63 5.5 0 1 337.30 138.08
  L 321.89 138.24
  A 0.45 0.44 -85.5 0 1 321.46 137.72
  L 325.86 110.42
  A 0.61 0.59 -85.9 0 1 326.43 109.91
  L 341.68 109.80
  A 0.46 0.45 3.2 0 1 342.15 110.31
  L 341.45 115.39
  A 0.73 0.64 4.1 0 1 340.73 115.94
  L 332.01 115.78
  A 1.05 1.03 -84.8 0 0 330.98 116.65
  L 330.35 120.44
  A 0.48 0.43 5.4 0 0 330.81 120.94
  Z"
/>
<path fill="#ffffff" d="
  M 379.1175 138.4430
  A 14.58 12.18 103.9 0 1 370.7967 121.3640
  A 14.58 12.18 103.9 0 1 386.1225 110.1370
  A 14.58 12.18 103.9 0 1 394.4433 127.2160
  A 14.58 12.18 103.9 0 1 379.1175 138.4430
  Z
  M 380.3641 132.9343
  A 8.97 6.08 104.5 0 0 388.4963 125.7723
  A 8.97 6.08 104.5 0 0 384.8559 115.5657
  A 8.97 6.08 104.5 0 0 376.7237 122.7277
  A 8.97 6.08 104.5 0 0 380.3641 132.9343
  Z"
/>
<path fill="#ffffff" d="
  M 402.37 118.29
  L 407.37 110.71
  A 1.82 1.26 -67.6 0 1 408.65 109.88
  L 414.26 109.92
  Q 414.80 109.92 414.47 110.41
  Q 409.64 117.47 405.41 124.90
  C 403.23 128.74 403.24 133.29 402.41 137.57
  A 0.69 0.60 -84.0 0 1 401.82 138.12
  L 397.06 138.23
  A 0.47 0.43 -86.0 0 1 396.63 137.69
  L 398.50 125.99
  A 4.39 3.96 -55.6 0 0 398.17 123.53
  L 391.96 110.45
  A 0.37 0.33 76.0 0 1 392.24 109.92
  L 397.81 109.87
  A 0.84 0.69 76.2 0 1 398.51 110.39
  L 401.87 118.22
  Q 402.09 118.72 402.37 118.29
  Z"
/>
<path fill="#ffffff" d="
  M 351.38 110.83
  A 1.02 1.00 4.7 0 1 352.38 110.00
  C 356.35 110.00 363.32 109.08 366.47 111.47
  C 370.76 114.73 370.37 119.18 366.89 123.05
  A 0.75 0.75 -42.8 0 0 366.85 124.02
  C 371.85 130.48 367.61 137.29 360.36 138.23
  C 357.66 138.57 351.43 138.34 347.43 138.09
  A 0.45 0.44 6.4 0 1 347.01 137.58
  L 351.38 110.83
  Z
  M 356.45 116.61
  L 355.84 120.45
  A 0.54 0.52 9.3 0 0 356.29 121.05
  C 358.87 121.48 365.71 120.62 362.28 116.67
  A 1.39 0.91 62.3 0 0 361.44 116.20
  L 357.07 116.06
  A 0.65 0.60 -84.1 0 0 356.45 116.61
  Z
  M 354.61 127.92
  L 353.90 131.78
  A 0.73 0.73 -82.1 0 0 354.55 132.64
  C 366.67 133.75 364.20 124.69 355.17 127.29
  A 0.81 0.77 87.9 0 0 354.61 127.92
  Z"
/>
<path fill="#eff8fb" d="
  M 92.37 112.99
  Q 91.39 118.11 89.48 122.97
  C 88.76 124.80 88.16 127.94 86.63 130.11
  Q 85.96 131.04 87.29 131.00
  L 82.04 136.84
  Q 81.22 137.75 82.45 137.75
  L 93.50 137.79
  C 91.49 141.04 92.04 147.19 86.51 145.89
  L 76.31 146.06
  A 0.94 0.90 14.7 0 0 75.54 146.49
  C 69.54 155.91 64.34 170.75 73.25 180.29
  Q 74.61 183.26 72.41 185.70
  Q 72.10 186.05 71.96 186.55
  L 69.89 193.74
  Q 61.03 192.56 53.87 186.87
  Q 54.90 183.68 55.94 180.82
  C 57.53 176.50 58.64 170.63 61.22 166.90
  A 1.46 1.14 65.2 0 0 61.43 166.00
  C 61.25 164.17 62.42 163.23 62.83 161.99
  Q 66.92 149.50 71.77 137.30
  C 72.72 134.90 73.08 130.26 74.42 128.37
  Q 75.74 126.50 73.50 127.71
  Q 82.12 119.48 92.37 112.99
  Z"
/>
<path fill="#ffffff" d="
  M 442.19 129.69
  L 442.42 114.69
  A 0.54 0.54 -1.1 0 1 442.93 114.16
  C 450.06 113.74 458.74 113.12 464.01 116.18
  Q 464.31 116.35 464.18 116.00
  L 463.64 114.55
  A 0.42 0.38 -9.0 0 1 464.05 114.03
  L 469.32 114.13
  A 0.99 0.82 72.6 0 1 470.07 114.62
  L 476.95 126.24
  A 0.63 0.63 -45.7 0 0 478.04 126.22
  L 484.67 114.61
  A 0.97 0.83 -72.8 0 1 485.44 114.12
  L 490.24 114.06
  Q 491.07 114.05 490.62 114.80
  Q 485.54 123.21 480.74 131.54
  C 479.55 133.61 478.75 134.72 476.26 134.01
  C 474.35 133.46 469.31 124.07 468.01 121.93
  Q 467.76 121.51 467.79 122.01
  C 468.77 137.19 450.48 134.21 438.49 134.01
  A 0.90 0.85 -13.4 0 1 437.74 133.58
  L 429.68 119.81
  A 0.36 0.35 45.2 0 0 429.07 119.80
  L 423.85 128.85
  Q 423.47 129.50 424.22 129.50
  L 428.85 129.50
  A 0.50 0.48 -88.9 0 1 429.33 130.02
  L 429.26 133.42
  A 0.60 0.56 -88.9 0 1 428.70 134.00
  L 415.71 134.00
  Q 415.00 134.00 415.37 133.38
  L 426.68 114.61
  A 1.05 0.73 -69.3 0 1 427.43 114.10
  L 431.53 114.14
  A 1.53 1.21 70.7 0 1 432.68 114.87
  L 441.91 129.77
  Q 442.18 130.20 442.19 129.69
  Z
  M 448.15 128.64
  A 0.58 0.54 -89.0 0 0 448.66 129.21
  C 452.90 129.46 461.76 130.58 461.65 123.76
  C 461.54 117.06 453.16 118.65 448.56 118.80
  A 0.50 0.47 88.8 0 0 448.10 119.31
  L 448.15 128.64
  Z"
/>
<path fill="#ffffff" d="
  M 509.70 129.44
  L 509.74 114.95
  A 0.99 0.97 85.0 0 1 510.53 113.99
  Q 513.26 113.49 515.33 115.16
  Q 521.78 120.37 528.85 125.62
  Q 529.25 125.91 529.25 125.41
  L 529.30 114.55
  A 0.52 0.51 -89.4 0 1 529.81 114.04
  L 533.81 114.01
  A 0.71 0.69 90.0 0 1 534.50 114.72
  L 534.44 133.18
  A 0.71 0.67 81.6 0 1 533.97 133.85
  Q 531.39 134.68 529.81 133.44
  Q 523.10 128.15 516.20 122.62
  Q 515.31 121.91 515.30 123.04
  L 515.25 133.50
  A 0.50 0.50 0.0 0 1 514.75 134.00
  L 505.92 134.00
  A 1.25 1.22 74.8 0 1 504.85 133.37
  L 497.17 119.85
  Q 496.84 119.28 496.52 119.85
  L 491.49 128.82
  A 0.33 0.33 -73.1 0 0 491.75 129.32
  L 496.19 129.57
  A 0.56 0.49 1.9 0 1 496.72 130.06
  L 496.72 133.44
  A 0.53 0.50 0.0 0 1 496.19 133.94
  L 483.07 134.00
  Q 482.55 134.00 482.82 133.55
  L 494.06 114.74
  A 1.09 0.64 -67.6 0 1 494.80 114.18
  L 498.77 114.16
  A 2.28 1.59 68.6 0 1 500.39 115.24
  L 509.40 129.52
  Q 509.69 129.98 509.70 129.44
  Z"
/>
<path fill="#ffffff" d="
  M 552.93 118.79
  L 542.69 118.90
  A 0.54 0.50 89.5 0 0 542.20 119.44
  L 542.20 128.57
  A 0.53 0.52 -87.7 0 0 542.68 129.10
  Q 546.60 129.36 550.54 129.27
  C 552.46 129.22 554.19 129.92 553.36 126.76
  A 0.40 0.40 82.2 0 1 553.74 126.25
  L 558.43 126.29
  A 0.69 0.69 -7.4 0 1 559.08 126.79
  C 560.28 131.01 558.51 133.59 554.07 133.86
  Q 546.66 134.31 539.24 133.75
  Q 536.69 133.56 536.50 131.01
  C 536.16 126.45 534.01 114.55 540.75 114.15
  Q 548.34 113.70 555.63 114.22
  Q 557.86 114.38 558.72 116.45
  Q 561.10 122.21 556.02 121.66
  C 554.18 121.46 552.87 121.78 553.33 119.30
  A 0.43 0.41 -84.7 0 0 552.93 118.79
  Z"
/>
<path fill="#ffffff" d="
  M 567.57 129.18
  L 582.26 129.48
  A 0.62 0.50 0.6 0 1 582.87 129.98
  L 582.88 133.49
  A 0.58 0.51 -0.0 0 1 582.30 134.00
  L 561.77 134.00
  A 0.52 0.52 -90.0 0 1 561.25 133.48
  L 561.25 114.52
  A 0.52 0.51 90.0 0 1 561.76 114.00
  L 581.94 114.06
  A 0.65 0.48 0.0 0 1 582.59 114.54
  L 582.60 117.99
  A 0.60 0.51 -0.0 0 1 582.00 118.50
  L 567.82 118.56
  A 0.78 0.69 9.1 0 0 567.11 119.01
  Q 566.74 120.00 567.11 120.98
  A 0.76 0.71 -9.3 0 0 567.81 121.45
  L 575.73 121.49
  A 0.53 0.52 0.6 0 1 576.25 122.01
  L 576.25 125.24
  A 0.52 0.51 -0.0 0 1 575.73 125.75
  L 567.56 125.80
  A 0.54 0.51 0.0 0 0 567.02 126.31
  L 567.02 128.69
  A 0.56 0.49 0.6 0 0 567.57 129.18
  Z"
/>
<ellipse fill="#39156d" cx="0.00" cy="0.00" transform="translate(382.61,124.25) rotate(104.5)" rx="8.97" ry="6.08"/>
<path fill="#39156d" d="
  M 356.45 116.61
  A 0.65 0.60 -84.1 0 1 357.07 116.06
  L 361.44 116.20
  A 1.39 0.91 62.3 0 1 362.28 116.67
  C 365.71 120.62 358.87 121.48 356.29 121.05
  A 0.54 0.52 9.3 0 1 355.84 120.45
  L 356.45 116.61
  Z"
/>
<path fill="#8fcee1" d="
  M 142.25 118.04
  Q 145.55 123.51 141.52 127.43
  C 139.58 129.32 138.28 130.80 136.42 131.99
  A 1.35 1.32 -8.7 0 0 135.86 132.73
  C 134.77 136.59 133.98 140.04 132.40 144.06
  Q 131.46 146.47 130.88 149.02
  Q 124.55 153.64 117.16 156.16
  L 122.56 140.69
  Q 123.24 138.76 125.21 138.02
  Q 132.53 135.26 136.21 131.00
  Q 140.53 127.90 139.77 122.80
  A 0.83 0.81 5.3 0 0 139.21 122.14
  Q 135.78 121.03 132.50 122.79
  Q 130.78 122.71 130.50 120.79
  Q 136.04 117.98 142.25 118.04
  Z"
/>
<path fill="#76c4db" d="
  M 142.25 118.04
  C 153.30 117.55 147.76 131.82 144.06 135.81
  Q 141.96 138.08 145.00 137.79
  Q 145.91 140.10 144.59 142.16
  A 1.65 1.48 62.3 0 0 144.36 143.06
  Q 144.46 145.49 142.00 145.96
  L 135.49 146.00
  A 1.67 1.07 16.0 0 0 134.59 146.27
  L 130.88 149.02
  Q 131.46 146.47 132.40 144.06
  C 133.98 140.04 134.77 136.59 135.86 132.73
  A 1.35 1.32 -8.7 0 1 136.42 131.99
  C 138.28 130.80 139.58 129.32 141.52 127.43
  Q 145.55 123.51 142.25 118.04
  Z"
/>
<path fill="#39156d" d="
  M 448.15 128.64
  L 448.10 119.31
  A 0.50 0.47 88.8 0 1 448.56 118.80
  C 453.16 118.65 461.54 117.06 461.65 123.76
  C 461.76 130.58 452.90 129.46 448.66 129.21
  A 0.58 0.54 -89.0 0 1 448.15 128.64
  Z"
/>
<path fill="#39156d" d="
  M 279.95 119.92
  Q 280.47 118.67 280.75 120.02
  L 281.46 123.36
  A 0.64 0.59 78.9 0 1 281.00 124.11
  C 276.21 125.01 279.31 121.46 279.95 119.92
  Z"
/>
<path fill="#a5d8e7" d="
  M 130.50 120.79
  Q 130.78 122.71 132.50 122.79
  C 130.16 124.67 118.42 136.47 128.75 134.75
  Q 131.43 134.30 136.21 131.00
  Q 132.53 135.26 125.21 138.02
  Q 123.24 138.76 122.56 140.69
  L 117.16 156.16
  Q 111.69 158.74 106.00 156.54
  Q 106.44 156.27 106.84 156.30
  A 0.62 0.49 8.3 0 0 107.45 155.95
  Q 108.75 151.30 110.30 146.72
  C 111.60 142.89 113.92 139.39 114.50 134.00
  Q 114.62 132.89 113.25 133.21
  Q 120.80 125.52 130.50 120.79
  Z"
/>
<path fill="#ffffff" d="
  M 136.21 131.00
  Q 131.43 134.30 128.75 134.75
  C 118.42 136.47 130.16 124.67 132.50 122.79
  Q 135.78 121.03 139.21 122.14
  A 0.83 0.81 5.3 0 1 139.77 122.80
  Q 140.53 127.90 136.21 131.00
  Z"
/>
<path fill="#ffffff" d="
  M 53.87 186.87
  C 42.17 175.13 48.94 158.05 56.86 146.44
  Q 57.15 146.01 56.64 146.01
  L 32.30 146.18
  Q 31.82 146.18 32.08 145.76
  Q 34.70 141.61 38.14 138.11
  A 1.23 1.23 22.5 0 1 39.01 137.75
  L 62.21 137.75
  A 3.68 2.88 -62.6 0 0 64.55 136.68
  L 73.50 127.71
  Q 75.74 126.50 74.42 128.37
  C 73.08 130.26 72.72 134.90 71.77 137.30
  Q 66.92 149.50 62.83 161.99
  C 62.42 163.23 61.25 164.17 61.43 166.00
  A 1.46 1.14 65.2 0 1 61.22 166.90
  C 58.64 170.63 57.53 176.50 55.94 180.82
  Q 54.90 183.68 53.87 186.87
  Z"
/>
<path fill="#39156d" d="
  M 355.17 127.29
  C 364.20 124.69 366.67 133.75 354.55 132.64
  A 0.73 0.73 -82.1 0 1 353.90 131.78
  L 354.61 127.92
  A 0.81 0.77 87.9 0 1 355.17 127.29
  Z"
/>
<path fill="#bde2ee" d="
  M 113.25 133.21
  Q 114.62 132.89 114.50 134.00
  C 113.92 139.39 111.60 142.89 110.30 146.72
  Q 108.75 151.30 107.45 155.95
  A 0.62 0.49 8.3 0 1 106.84 156.30
  Q 106.44 156.27 106.00 156.54
  C 102.11 154.57 102.69 149.91 103.98 146.54
  A 0.40 0.40 10.6 0 0 103.61 146.00
  L 86.51 145.89
  C 92.04 147.19 91.49 141.04 93.50 137.79
  L 108.76 137.52
  A 1.30 0.86 -60.5 0 0 109.57 137.11
  L 113.25 133.21
  Z"
/>
<path fill="#5fb9d5" d="
  M 155.59 137.30
  Q 155.47 139.55 153.93 142.73
  Q 153.68 143.26 153.68 143.85
  Q 153.70 145.21 153.00 145.96
  L 142.00 145.96
  Q 144.46 145.49 144.36 143.06
  A 1.65 1.48 62.3 0 1 144.59 142.16
  Q 145.91 140.10 145.00 137.79
  Q 150.48 138.06 155.59 137.30
  Z"
/>
<path fill="#ffffff" d="
  M 458.05 157.79
  C 462.52 151.71 466.26 145.25 474.76 145.25
  Q 480.13 145.25 485.50 145.25
  Q 489.30 145.25 487.19 147.94
  Q 470.29 169.47 452.69 190.44
  C 450.46 193.09 447.19 193.75 443.51 193.75
  Q 417.38 193.75 391.25 193.75
  Q 387.33 193.75 390.06 190.31
  Q 401.35 176.13 412.94 162.19
  C 415.23 159.43 418.23 158.50 422.01 158.50
  Q 439.26 158.50 456.64 158.50
  A 1.77 1.75 -71.5 0 0 458.05 157.79
  Z
  M 430.11 167.60
  L 416.03 184.84
  Q 415.70 185.24 416.23 185.24
  L 435.20 185.19
  A 1.11 1.00 -67.9 0 0 436.00 184.80
  L 450.32 167.30
  Q 450.77 166.75 450.07 166.75
  L 431.94 166.75
  A 2.41 2.28 18.6 0 0 430.11 167.60
  Z"
/>
<path fill="#ffffff" d="
  M 213.66 193.80
  C 210.33 193.84 197.90 195.07 201.32 190.65
  Q 212.49 176.22 224.34 162.34
  C 226.80 159.45 229.24 158.50 233.24 158.50
  Q 252.69 158.50 271.37 158.50
  Q 274.85 158.50 272.95 161.42
  C 270.30 165.48 267.18 166.75 262.12 166.75
  Q 253.28 166.75 243.60 166.75
  Q 241.93 166.75 240.89 168.07
  Q 232.60 178.57 223.69 189.19
  C 220.95 192.47 218.17 193.74 213.66 193.80
  Z"
/>
<path fill="#ffffff" d="
  M 279.82 185.19
  Q 297.40 185.29 314.99 185.25
  C 322.82 185.24 315.07 191.66 312.83 192.73
  Q 310.71 193.75 306.98 193.75
  Q 280.68 193.75 255.55 193.75
  Q 250.79 193.75 253.74 190.01
  Q 264.81 175.98 276.31 162.31
  C 278.66 159.52 281.39 158.50 285.25 158.50
  Q 310.13 158.50 335.01 158.50
  C 338.02 158.50 342.54 157.88 338.70 162.72
  Q 333.00 169.88 327.22 176.96
  C 324.52 180.28 321.67 181.50 317.15 181.50
  Q 300.79 181.50 284.42 181.50
  C 281.75 181.50 280.61 182.50 279.52 184.72
  A 0.33 0.33 12.5 0 0 279.82 185.19
  Z
  M 313.46 167.23
  Q 313.85 166.75 313.21 166.75
  L 295.06 166.75
  A 1.67 1.29 15.1 0 0 293.86 167.25
  L 289.45 172.65
  Q 289.10 173.07 289.69 173.08
  L 307.45 173.24
  A 2.39 2.10 17.3 0 0 309.25 172.44
  L 313.46 167.23
  Z"
/>
<path fill="#ffffff" d="
  M 381.43 166.81
  L 344.98 166.75
  Q 341.91 166.75 343.34 164.03
  C 345.62 159.73 349.48 158.50 354.47 158.50
  Q 380.61 158.50 406.75 158.58
  Q 408.85 158.58 408.28 160.66
  Q 408.05 161.52 407.49 162.22
  Q 396.00 176.49 385.06 189.81
  C 382.92 192.42 379.57 193.75 375.95 193.75
  Q 349.97 193.75 324.00 193.75
  C 320.00 193.75 320.95 191.39 322.51 189.37
  Q 330.38 179.23 334.94 174.19
  Q 338.59 170.15 344.21 170.39
  C 355.56 170.88 367.13 170.50 378.51 170.50
  A 1.49 1.37 24.0 0 0 379.40 170.20
  Q 380.91 169.00 381.74 167.26
  A 0.33 0.32 11.9 0 0 381.43 166.81
  Z
  M 352.01 179.87
  L 347.83 184.77
  Q 347.47 185.19 348.06 185.19
  L 366.12 185.25
  A 1.92 1.66 17.3 0 0 367.52 184.64
  L 371.95 179.42
  Q 372.37 178.93 371.70 178.93
  L 354.16 179.00
  A 3.06 2.36 15.6 0 0 352.01 179.87
  Z"
/>
<path fill="#ffffff" d="
  M 485.07 185.19
  L 522.57 185.49
  Q 524.72 185.51 523.70 187.42
  C 520.90 192.63 517.12 193.75 511.10 193.75
  Q 486.30 193.75 461.50 193.75
  C 456.12 193.75 458.54 190.62 460.21 188.57
  Q 470.42 175.98 480.69 163.44
  C 483.90 159.52 486.24 158.50 491.57 158.50
  Q 517.41 158.50 543.26 158.50
  Q 547.49 158.50 544.88 161.83
  Q 538.89 169.49 532.28 177.29
  C 529.58 180.49 526.93 181.50 522.52 181.50
  Q 505.38 181.50 488.24 181.50
  A 1.27 0.88 14.0 0 0 487.37 181.83
  L 484.83 184.77
  Q 484.48 185.18 485.07 185.19
  Z
  M 494.93 172.58
  Q 494.56 173.03 495.16 173.04
  L 513.15 173.23
  A 2.42 2.14 -67.7 0 0 514.92 172.36
  L 519.07 167.33
  Q 519.54 166.75 518.80 166.75
  L 500.76 166.75
  A 2.16 1.72 15.5 0 0 499.20 167.41
  L 494.93 172.58
  Z"
/>
<path fill="#ffffff" d="
  M 528.00 193.71
  Q 526.91 193.45 526.50 192.46
  Q 526.53 191.00 527.75 189.50
  Q 538.95 175.70 550.19 161.94
  C 552.13 159.56 555.59 158.50 558.89 158.50
  Q 578.29 158.50 597.14 158.50
  Q 600.66 158.50 598.70 161.42
  C 594.67 167.41 590.46 166.75 582.72 166.75
  Q 575.77 166.75 568.58 166.75
  A 1.67 1.67 19.6 0 0 567.29 167.36
  Q 557.98 178.85 548.44 190.44
  C 544.54 195.17 533.43 193.89 528.00 193.71
  Z"
/>
<path fill="#8fcee1" d="
  M 101.50 191.46
  Q 102.80 186.79 104.41 182.22
  Q 104.66 181.51 103.50 181.71
  L 114.30 177.08
  A 0.91 0.91 -31.7 0 1 115.40 177.38
  L 120.64 184.69
  A 0.47 0.46 60.8 0 1 120.45 185.40
  Q 111.03 189.28 101.50 191.46
  Z"
/>
<path fill="#d1ebf4" d="
  M 73.25 180.29
  Q 78.87 184.93 86.25 184.79
  Q 84.98 189.80 82.63 194.61
  Q 76.13 195.17 69.89 193.74
  L 71.96 186.55
  Q 72.10 186.05 72.41 185.70
  Q 74.61 183.26 73.25 180.29
  Z"
/>
<path fill="#b2ddeb" d="
  M 103.50 181.71
  Q 104.66 181.51 104.41 182.22
  Q 102.80 186.79 101.50 191.46
  Q 92.08 193.98 82.63 194.61
  Q 84.98 189.80 86.25 184.79
  Q 95.16 184.83 103.50 181.71
  Z"
/>
</svg>
