<?xml version="1.0" encoding="UTF-8" standalone="no"?>
<!DOCTYPE svg PUBLIC "-//W3C//DTD SVG 1.1//EN" "http://www.w3.org/Graphics/SVG/1.1/DTD/svg11.dtd">
<svg xmlns="http://www.w3.org/2000/svg" version="1.1" viewBox="0 0 600 300">
<g stroke-width="2.00" fill="none" stroke-linecap="butt">
<path stroke="#0a2c4f" vector-effect="non-scaling-stroke" d="
  M 573.19 203.64
  Q 534.43 204.03 495.52 203.75
  C 494.10 203.74 492.69 204.20 492.96 202.00"
/>
<path stroke="#0a2c4f" vector-effect="non-scaling-stroke" d="
  M 441.29 202.00
  Q 440.94 203.82 439.00 203.82
  Q 389.12 203.75 339.25 203.75
  Q 334.67 203.75 327.04 201.75"
/>
<path stroke="#0a2c4f" vector-effect="non-scaling-stroke" d="
  M 476.14 201.58
  Q 476.15 202.37 475.77 203.08
  A 0.93 0.85 12.8 0 1 475.00 203.52
  L 447.81 203.70
  A 0.78 0.66 -7.5 0 1 447.09 203.24
  Q 446.89 202.65 447.21 202.00"
/>
<path stroke="#0a2c4f" vector-effect="non-scaling-stroke" d="
  M 282.04 202.00
  C 281.99 204.38 280.41 203.75 278.82 203.75
  Q 223.36 203.99 197.25 203.50
  Q 193.02 203.42 185.49 201.79"
/>
<path stroke="#0a2c4f" vector-effect="non-scaling-stroke" d="
  M 97.48 201.69
  C 93.25 202.50 89.61 203.30 85.20 203.34
  Q 56.03 203.59 27.12 203.66"
/>
<path stroke="#89abcf" vector-effect="non-scaling-stroke" d="
  M 494.96 146.50
  Q 493.49 145.93 493.18 147.11
  Q 493.00 147.81 492.93 148.52
  Q 492.76 150.39 493.25 150.41
  A 0.97 0.35 -70.0 0 0 493.83 149.72
  L 495.04 146.75"
/>
<path stroke="#808080" vector-effect="non-scaling-stroke" d="
  M 90.72 240.68
  L 77.47 240.75
  A 0.62 0.62 -4.1 0 0 76.86 241.45
  Q 77.32 244.83 76.55 248.64
  Q 76.20 250.33 74.58 250.89
  Q 69.73 252.58 64.53 251.14
  C 61.23 250.22 61.50 248.42 61.50 245.56
  Q 61.50 234.58 61.50 223.61
  C 61.50 220.15 62.64 218.86 66.00 218.50
  C 71.26 217.94 77.93 217.29 76.63 225.21
  A 1.63 1.58 -85.3 0 0 78.18 227.10
  L 90.56 227.08
  A 0.62 0.61 -84.9 0 0 91.16 226.57
  C 92.71 217.91 87.13 212.99 79.19 211.76
  C 69.93 210.34 46.39 208.75 46.29 223.42
  Q 46.22 234.56 46.24 245.69
  C 46.27 258.05 59.62 259.28 68.86 259.05
  C 80.85 258.75 93.73 257.10 91.12 241.02
  A 0.41 0.41 84.9 0 0 90.72 240.68"
/>
<path stroke="#808080" vector-effect="non-scaling-stroke" d="
  M 135.81 250.44
  L 135.76 211.78
  A 0.78 0.77 90.0 0 0 134.99 211.00
  L 121.06 211.00
  A 0.81 0.81 0.0 0 0 120.25 211.81
  L 120.25 257.54
  A 0.53 0.52 0.0 0 0 120.78 258.06
  L 159.94 258.00
  A 0.56 0.56 0.0 0 0 160.50 257.44
  L 160.50 251.65
  A 0.66 0.65 0.0 0 0 159.84 251.00
  L 136.30 250.94
  A 0.50 0.49 90.0 0 1 135.81 250.44"
/>
<path stroke="#808080" vector-effect="non-scaling-stroke" d="
  M 216.34 249.54
  L 218.79 257.33
  A 0.74 0.68 81.0 0 0 219.44 257.84
  L 233.94 257.95
  A 0.38 0.36 81.2 0 0 234.28 257.46
  L 219.22 211.66
  A 0.71 0.67 80.5 0 0 218.57 211.17
  L 197.19 211.17
  A 0.73 0.69 -79.9 0 0 196.53 211.66
  L 181.37 257.91
  A 0.22 0.21 9.4 0 0 181.58 258.19
  L 194.95 258.19
  A 0.78 0.78 -82.1 0 0 195.70 257.62
  L 198.01 249.66
  A 0.70 0.67 7.7 0 1 198.68 249.17
  L 215.69 249.05
  A 0.69 0.68 81.3 0 1 216.34 249.54"
/>
<path stroke="#808080" vector-effect="non-scaling-stroke" d="
  M 256.23 244.56
  C 253.90 259.82 275.34 259.55 284.50 258.75
  C 290.28 258.24 296.42 257.03 299.69 252.19
  C 306.31 242.40 290.77 234.88 284.13 232.26
  C 280.37 230.78 271.43 227.16 271.75 222.25
  C 272.07 217.29 280.36 218.02 283.08 218.60
  Q 286.78 219.39 286.46 223.82
  A 1.06 1.04 -87.7 0 0 287.49 224.95
  L 300.32 225.06
  A 0.57 0.56 -86.6 0 0 300.88 224.56
  C 302.35 212.14 286.94 211.12 278.62 210.94
  C 271.17 210.79 255.48 212.35 256.46 223.48
  C 257.59 236.28 287.18 238.37 285.76 248.21
  Q 285.43 250.49 283.20 251.07
  C 278.36 252.33 269.96 253.26 270.55 245.54
  A 1.42 1.41 -87.9 0 0 269.14 244.01
  L 256.80 244.05
  A 0.61 0.59 -85.9 0 0 256.23 244.56"
/>
<path stroke="#808080" vector-effect="non-scaling-stroke" d="
  M 331.43 256.32
  C 340.13 260.20 353.09 259.62 361.70 257.08
  C 371.88 254.08 372.94 243.32 364.19 238.06
  Q 358.43 234.60 348.17 230.10
  C 336.38 224.93 339.97 215.61 352.10 218.53
  Q 355.75 219.41 355.45 223.95
  A 1.00 0.99 1.6 0 0 356.45 225.00
  L 369.31 225.06
  A 0.57 0.57 3.4 0 0 369.88 224.56
  C 371.84 209.29 348.73 210.90 339.50 211.50
  C 332.74 211.94 323.14 217.02 325.69 224.93
  C 327.18 229.56 332.34 232.96 336.84 234.88
  C 340.61 236.48 357.64 243.16 354.35 249.03
  C 352.24 252.79 345.81 252.04 342.35 251.05
  Q 339.39 250.19 339.55 245.58
  A 1.49 1.46 -88.9 0 0 338.10 244.04
  L 325.90 244.01
  A 0.65 0.63 -87.6 0 0 325.26 244.62
  Q 324.71 253.33 331.43 256.32"
/>
<path stroke="#808080" vector-effect="non-scaling-stroke" d="
  M 411.70 211.52
  A 0.52 0.52 0.0 0 0 411.18 211.00
  L 396.86 211.00
  A 0.52 0.52 0.0 0 0 396.34 211.52
  L 396.34 257.72
  A 0.52 0.52 0.0 0 0 396.86 258.24
  L 411.18 258.24
  A 0.52 0.52 0.0 0 0 411.70 257.72
  L 411.70 211.52"
/>
<path stroke="#808080" vector-effect="non-scaling-stroke" d="
  M 439.49 249.52
  C 442.52 262.00 469.23 259.80 477.44 256.44
  C 483.98 253.76 485.11 247.70 484.15 241.18
  A 0.58 0.57 84.8 0 0 483.57 240.69
  L 470.44 240.92
  A 0.51 0.50 88.9 0 0 469.95 241.44
  Q 470.07 246.31 469.75 248.00
  C 468.76 253.23 459.26 252.04 456.18 250.61
  Q 454.50 249.83 454.50 247.98
  Q 454.50 235.50 454.29 223.25
  C 454.18 217.12 462.78 217.87 466.69 218.97
  Q 470.52 220.05 469.61 225.00
  Q 469.23 227.05 471.34 227.04
  L 483.86 227.00
  A 0.64 0.63 -8.9 0 0 484.47 226.17
  Q 484.07 224.91 484.18 223.49
  C 485.35 207.35 451.68 209.45 443.81 214.56
  Q 439.25 217.53 439.25 221.75
  Q 439.25 231.61 439.25 241.46
  Q 439.25 248.52 439.49 249.52"
/>
<path stroke="#808080" vector-effect="non-scaling-stroke" d="
  M 516.94 256.06
  C 525.24 260.10 549.43 261.66 555.11 251.42
  C 564.25 234.95 519.38 230.58 527.44 220.47
  C 530.31 216.87 542.29 216.49 541.44 224.08
  A 0.83 0.82 3.4 0 0 542.27 225.00
  L 555.31 225.06
  A 0.56 0.56 2.8 0 0 555.87 224.56
  C 556.99 214.64 547.11 211.73 539.25 211.25
  C 530.80 210.74 514.36 210.17 511.62 220.62
  C 508.78 231.40 529.96 237.84 537.01 242.24
  C 541.50 245.04 543.08 250.35 536.22 251.54
  Q 532.40 252.20 528.52 251.17
  Q 525.54 250.38 525.48 245.56
  A 1.55 1.52 89.4 0 0 523.96 244.04
  L 511.92 244.01
  A 0.64 0.64 -87.6 0 0 511.28 244.60
  Q 510.63 253.00 516.94 256.06"
/>
<path stroke="#808080" vector-effect="non-scaling-stroke" d="
  M 200.15 242.61
  A 0.30 0.30 8.5 0 0 200.44 243.00
  L 213.82 243.00
  A 0.30 0.30 -8.5 0 0 214.11 242.61
  L 207.42 220.81
  A 0.30 0.30 45.6 0 0 206.84 220.81
  L 200.15 242.61"
/>
</g>
<path fill="#000000" d="
  M 596.42 29.81
  A 19.04 19.04 0.0 0 1 577.38 48.85
  A 19.04 19.04 0.0 0 1 558.34 29.81
  A 19.04 19.04 0.0 0 1 577.38 10.77
  A 19.04 19.04 0.0 0 1 596.42 29.81
  Z
  M 593.81 29.77
  A 16.40 16.40 0.0 0 0 577.41 13.37
  A 16.40 16.40 0.0 0 0 561.01 29.77
  A 16.40 16.40 0.0 0 0 577.41 46.17
  A 16.40 16.40 0.0 0 0 593.81 29.77
  Z"
/>
<path fill="#000000" d="
  M 572.55 31.81
  L 572.49 39.49
  A 1.02 0.79 78.0 0 1 572.10 40.30
  Q 571.23 40.83 570.27 40.42
  A 0.80 0.75 -79.7 0 1 569.80 39.69
  L 569.92 19.94
  A 0.57 0.55 -2.9 0 1 570.43 19.39
  C 575.49 18.98 583.94 17.92 585.68 23.27
  Q 587.43 28.64 581.83 31.22
  A 0.70 0.68 60.8 0 0 581.56 32.24
  L 586.51 39.82
  A 0.40 0.40 -25.1 0 1 586.29 40.42
  C 582.99 41.50 580.11 34.74 578.22 31.98
  A 1.19 0.80 67.7 0 0 577.44 31.46
  L 573.06 31.26
  A 0.55 0.49 -89.0 0 0 572.55 31.81
  Z
  M 583.06 26.83
  C 584.57 20.84 577.67 21.10 573.19 21.63
  A 0.63 0.57 -2.9 0 0 572.63 22.19
  L 572.56 28.21
  A 0.97 0.91 2.8 0 0 573.44 29.12
  Q 578.41 29.60 581.70 28.36
  A 2.25 2.22 87.0 0 0 583.06 26.83
  Z"
/>
<path fill="#13579e" d="
  M 573.19 203.64
  Q 534.43 204.03 495.52 203.75
  C 494.10 203.74 492.69 204.20 492.96 202.00
  L 493.18 179.94
  A 0.51 0.50 -90.0 0 1 493.68 179.43
  L 557.44 179.25
  A 0.41 0.41 -9.2 0 0 557.83 178.71
  Q 537.84 120.06 518.22 62.10
  Q 516.08 55.80 515.65 54.95
  C 509.70 43.35 494.32 45.77 490.25 57.75
  Q 465.73 129.86 441.29 202.00
  Q 440.94 203.82 439.00 203.82
  Q 389.12 203.75 339.25 203.75
  Q 334.67 203.75 327.04 201.75
  C 306.71 195.17 291.90 178.51 291.70 156.71
  Q 291.36 118.33 291.47 79.94
  Q 291.50 70.99 292.83 65.70
  C 297.32 47.74 311.81 33.33 330.45 29.63
  Q 334.80 28.76 343.13 28.69
  Q 380.35 28.33 419.41 28.51
  A 1.30 1.27 -89.8 0 1 420.67 29.81
  L 420.51 52.23
  A 0.77 0.75 -89.6 0 1 419.75 53.00
  Q 379.82 52.83 340.78 53.20
  C 325.31 53.35 316.10 63.89 315.95 78.95
  Q 315.61 112.17 315.73 145.40
  C 315.76 155.13 315.33 160.93 319.31 167.44
  Q 323.91 174.94 331.87 177.72
  Q 336.25 179.25 347.29 179.26
  Q 371.56 179.28 395.55 179.19
  A 0.71 0.70 -90.0 0 0 396.25 178.48
  L 396.25 113.85
  A 0.85 0.85 -0.2 0 0 395.40 113.00
  L 352.19 113.00
  A 0.69 0.69 0.0 0 1 351.50 112.31
  L 351.50 89.60
  A 0.85 0.85 -0.0 0 1 352.35 88.75
  L 419.63 88.75
  A 0.87 0.87 0.0 0 1 420.50 89.62
  L 420.44 184.37
  Q 420.44 187.62 421.48 184.54
  Q 442.29 123.40 463.03 62.46
  Q 468.17 47.36 470.26 43.87
  C 484.15 20.62 519.75 19.88 535.22 41.52
  C 540.23 48.52 543.22 59.54 546.25 68.54
  Q 568.83 135.77 591.53 202.96
  A 0.37 0.36 -9.9 0 1 591.19 203.44
  L 573.19 203.64
  Z"
/>
<path fill="#13579e" d="
  M 83.56 144.25
  A 1.62 1.62 -14.8 0 0 82.27 143.50
  Q 72.88 143.08 63.50 143.36
  C 32.14 144.28 7.96 121.94 4.00 91.00
  C 3.29 85.47 3.74 81.96 4.82 76.04
  C 8.95 53.55 25.84 35.54 47.94 30.25
  Q 54.17 28.77 66.18 28.66
  Q 101.48 28.34 137.84 28.51
  A 1.16 1.16 -87.7 0 1 139.00 29.67
  L 139.00 52.56
  A 0.69 0.69 0.0 0 1 138.31 53.25
  Q 104.11 53.25 70.38 53.25
  Q 58.37 53.25 57.64 53.32
  C 43.62 54.76 31.74 65.85 29.14 79.29
  C 25.87 96.19 35.17 112.14 51.81 117.32
  C 60.12 119.91 70.90 119.01 80.00 119.09
  Q 101.55 119.26 107.75 139.00
  C 112.09 152.83 103.35 167.72 89.93 172.06
  Q 85.47 173.50 75.91 173.50
  Q 40.17 173.50 4.16 173.50
  A 0.66 0.66 -3.8 0 1 3.50 172.84
  L 3.50 149.92
  A 0.67 0.67 -0.4 0 1 4.17 149.25
  Q 42.23 149.30 80.21 149.19
  C 83.29 149.18 85.56 147.44 83.56 144.25
  Z"
/>
<path fill="#13579e" d="
  M 282.04 202.00
  C 281.99 204.38 280.41 203.75 278.82 203.75
  Q 223.36 203.99 197.25 203.50
  Q 193.02 203.42 185.49 201.79
  C 164.17 194.29 150.90 177.29 150.69 154.73
  Q 150.37 120.36 150.47 85.99
  Q 150.50 71.97 151.86 66.11
  C 155.86 48.83 169.70 34.77 186.97 30.25
  Q 192.61 28.77 203.67 28.67
  Q 242.16 28.34 281.37 28.50
  A 0.89 0.88 0.3 0 1 282.25 29.38
  L 282.25 52.52
  A 0.54 0.54 -0.2 0 1 281.71 53.06
  Q 241.41 52.95 201.00 52.96
  C 189.60 52.96 179.90 58.54 176.18 69.53
  Q 174.75 73.76 174.75 82.65
  Q 174.76 118.45 174.81 154.25
  C 174.84 169.37 186.02 179.38 201.00 179.25
  Q 214.85 179.13 281.18 179.31
  A 0.52 0.50 89.4 0 1 281.68 179.82
  L 282.04 202.00
  Z"
/>
<path fill="#13579e" d="
  M 476.14 201.58
  Q 476.15 202.37 475.77 203.08
  A 0.93 0.85 12.8 0 1 475.00 203.52
  L 447.81 203.70
  A 0.78 0.66 -7.5 0 1 447.09 203.24
  Q 446.89 202.65 447.21 202.00
  Q 471.84 130.06 496.31 58.06
  C 498.79 50.78 508.73 51.82 511.19 59.06
  Q 530.48 116.01 549.89 173.16
  A 0.45 0.45 -9.3 0 1 549.46 173.75
  L 493.70 173.56
  A 0.70 0.68 0.8 0 1 493.01 172.87
  L 493.29 153.64
  A 0.63 0.41 -88.0 0 0 492.91 153.01
  C 492.49 152.97 477.63 197.23 476.14 201.58
  Z
  M 494.96 146.50
  Q 493.49 145.93 493.18 147.11
  Q 493.00 147.81 492.93 148.52
  Q 492.76 150.39 493.25 150.41
  A 0.97 0.35 -70.0 0 0 493.83 149.72
  L 495.04 146.75
  Q 503.27 146.16 511.29 146.74
  A 0.78 0.77 82.6 0 0 512.07 145.71
  L 504.43 123.05
  Q 503.66 120.75 502.89 123.02
  L 494.96 146.50
  Z"
/>
<path fill="#13579e" d="
  M 97.48 201.69
  C 93.25 202.50 89.61 203.30 85.20 203.34
  Q 56.03 203.59 27.12 203.66
  L 4.12 203.54
  A 0.64 0.62 -90.0 0 1 3.50 202.90
  L 3.50 179.86
  A 0.81 0.81 0.3 0 1 4.32 179.05
  Q 41.26 179.53 77.69 179.09
  Q 86.96 178.98 91.63 177.49
  C 122.92 167.49 121.75 122.83 89.81 114.39
  C 79.54 111.67 66.97 114.37 56.76 112.64
  C 28.79 107.89 26.30 67.80 53.72 60.04
  Q 57.32 59.02 66.89 58.93
  Q 102.03 58.59 138.01 58.75
  A 1.00 0.98 0.6 0 1 139.00 59.74
  L 138.82 82.33
  A 0.69 0.68 0.4 0 1 138.13 83.00
  L 60.74 83.24
  A 1.61 1.49 24.2 0 0 59.84 83.54
  Q 56.78 85.80 59.62 88.42
  A 1.53 1.38 -19.2 0 0 60.50 88.79
  C 69.00 89.42 77.11 88.39 85.36 89.01
  C 125.18 91.98 150.67 133.33 133.94 169.94
  Q 123.28 193.27 97.48 201.69
  Z"
/>
<path fill="#13579e" d="
  M 205.85 88.69
  L 263.73 88.75
  A 0.77 0.77 -89.5 0 1 264.50 89.52
  L 264.56 112.32
  A 0.51 0.50 -0.0 0 1 264.05 112.82
  L 181.42 113.06
  A 0.67 0.67 -90.0 0 1 180.75 112.39
  Q 180.75 95.93 180.75 79.97
  C 180.75 70.11 185.03 61.72 195.09 59.36
  Q 197.69 58.75 211.45 58.75
  Q 246.60 58.75 281.75 58.75
  A 0.50 0.50 0.0 0 1 282.25 59.25
  L 282.25 82.44
  A 0.56 0.56 0.0 0 1 281.69 83.00
  Q 246.00 83.00 211.00 83.14
  Q 206.39 83.16 205.00 87.51
  A 0.90 0.90 -81.0 0 0 205.85 88.69
  Z"
/>
<path fill="#13579e" d="
  M 366.22 144.40
  A 1.09 0.95 -88.6 0 0 365.27 143.25
  L 352.40 143.33
  A 0.89 0.88 -0.3 0 1 351.50 142.45
  L 351.50 119.35
  A 0.54 0.54 0.5 0 1 352.05 118.81
  C 364.69 119.13 377.34 118.40 389.94 119.04
  A 0.52 0.52 1.1 0 1 390.44 119.56
  L 390.50 173.00
  A 0.50 0.50 0.0 0 1 390.00 173.50
  Q 367.50 173.50 345.00 173.50
  C 334.85 173.50 326.63 171.31 322.98 161.47
  Q 321.50 157.46 321.50 147.36
  Q 321.50 116.53 321.50 85.69
  Q 321.50 74.59 323.09 70.49
  C 326.50 61.74 334.14 58.75 343.31 58.75
  Q 381.76 58.75 419.98 58.75
  A 0.52 0.52 89.9 0 1 420.50 59.27
  L 420.50 82.55
  A 0.51 0.51 89.6 0 1 419.99 83.06
  Q 386.98 82.96 354.47 83.00
  C 348.91 83.00 346.00 83.91 346.00 90.00
  Q 346.00 115.97 346.00 141.93
  Q 346.00 145.30 347.19 146.76
  C 350.23 150.48 362.15 149.31 365.57 149.10
  A 0.56 0.48 89.6 0 0 366.02 148.57
  L 366.22 144.40
  Z"
/>
<path fill="#13579e" d="
  M 212.11 149.19
  Q 246.55 149.29 281.01 149.25
  A 0.93 0.91 -89.7 0 1 281.92 150.19
  L 281.83 172.81
  A 0.44 0.43 -90.0 0 1 281.40 173.25
  Q 240.50 173.25 199.50 173.18
  C 190.19 173.16 182.20 166.61 180.89 157.30
  Q 180.75 156.32 180.75 146.68
  Q 180.75 133.31 180.75 119.81
  A 0.56 0.56 0.0 0 1 181.31 119.25
  L 263.54 119.25
  A 0.94 0.91 0.3 0 1 264.48 120.17
  L 264.27 142.76
  A 0.53 0.51 -0.0 0 1 263.75 143.26
  Q 235.62 143.80 206.73 143.23
  Q 204.22 143.19 205.19 145.50
  C 206.43 148.41 208.92 149.19 212.11 149.19
  Z"
/>
<path fill="#ffffff" d="
  M 494.96 146.50
  L 495.04 146.75
  L 493.83 149.72
  A 0.97 0.35 -70.0 0 1 493.25 150.41
  Q 492.76 150.39 492.93 148.52
  Q 493.00 147.81 493.18 147.11
  Q 493.49 145.93 494.96 146.50
  Z"
/>
<path fill="#000000" d="
  M 97.48 201.69
  Q 141.51 202.39 185.49 201.79
  Q 193.02 203.42 197.25 203.50
  Q 223.36 203.99 278.82 203.75
  C 280.41 203.75 281.99 204.38 282.04 202.00
  L 327.04 201.75
  Q 334.67 203.75 339.25 203.75
  Q 389.12 203.75 439.00 203.82
  Q 440.94 203.82 441.29 202.00
  L 447.21 202.00
  Q 446.89 202.65 447.09 203.24
  A 0.78 0.66 -7.5 0 0 447.81 203.70
  L 475.00 203.52
  A 0.93 0.85 12.8 0 0 475.77 203.08
  Q 476.15 202.37 476.14 201.58
  Q 484.61 202.32 492.96 202.00
  C 492.69 204.20 494.10 203.74 495.52 203.75
  Q 534.43 204.03 573.19 203.64
  C 604.42 216.14 601.19 261.34 567.23 266.65
  Q 564.96 267.00 547.25 267.00
  Q 293.75 267.00 40.25 267.00
  C 20.28 267.00 4.29 252.11 6.40 231.41
  Q 8.34 212.33 27.12 203.66
  Q 56.03 203.59 85.20 203.34
  C 89.61 203.30 93.25 202.50 97.48 201.69
  Z
  M 90.72 240.68
  L 77.47 240.75
  A 0.62 0.62 -4.1 0 0 76.86 241.45
  Q 77.32 244.83 76.55 248.64
  Q 76.20 250.33 74.58 250.89
  Q 69.73 252.58 64.53 251.14
  C 61.23 250.22 61.50 248.42 61.50 245.56
  Q 61.50 234.58 61.50 223.61
  C 61.50 220.15 62.64 218.86 66.00 218.50
  C 71.26 217.94 77.93 217.29 76.63 225.21
  A 1.63 1.58 -85.3 0 0 78.18 227.10
  L 90.56 227.08
  A 0.62 0.61 -84.9 0 0 91.16 226.57
  C 92.71 217.91 87.13 212.99 79.19 211.76
  C 69.93 210.34 46.39 208.75 46.29 223.42
  Q 46.22 234.56 46.24 245.69
  C 46.27 258.05 59.62 259.28 68.86 259.05
  C 80.85 258.75 93.73 257.10 91.12 241.02
  A 0.41 0.41 84.9 0 0 90.72 240.68
  Z
  M 135.81 250.44
  L 135.76 211.78
  A 0.78 0.77 90.0 0 0 134.99 211.00
  L 121.06 211.00
  A 0.81 0.81 0.0 0 0 120.25 211.81
  L 120.25 257.54
  A 0.53 0.52 0.0 0 0 120.78 258.06
  L 159.94 258.00
  A 0.56 0.56 0.0 0 0 160.50 257.44
  L 160.50 251.65
  A 0.66 0.65 0.0 0 0 159.84 251.00
  L 136.30 250.94
  A 0.50 0.49 90.0 0 1 135.81 250.44
  Z
  M 216.34 249.54
  L 218.79 257.33
  A 0.74 0.68 81.0 0 0 219.44 257.84
  L 233.94 257.95
  A 0.38 0.36 81.2 0 0 234.28 257.46
  L 219.22 211.66
  A 0.71 0.67 80.5 0 0 218.57 211.17
  L 197.19 211.17
  A 0.73 0.69 -79.9 0 0 196.53 211.66
  L 181.37 257.91
  A 0.22 0.21 9.4 0 0 181.58 258.19
  L 194.95 258.19
  A 0.78 0.78 -82.1 0 0 195.70 257.62
  L 198.01 249.66
  A 0.70 0.67 7.7 0 1 198.68 249.17
  L 215.69 249.05
  A 0.69 0.68 81.3 0 1 216.34 249.54
  Z
  M 256.23 244.56
  C 253.90 259.82 275.34 259.55 284.50 258.75
  C 290.28 258.24 296.42 257.03 299.69 252.19
  C 306.31 242.40 290.77 234.88 284.13 232.26
  C 280.37 230.78 271.43 227.16 271.75 222.25
  C 272.07 217.29 280.36 218.02 283.08 218.60
  Q 286.78 219.39 286.46 223.82
  A 1.06 1.04 -87.7 0 0 287.49 224.95
  L 300.32 225.06
  A 0.57 0.56 -86.6 0 0 300.88 224.56
  C 302.35 212.14 286.94 211.12 278.62 210.94
  C 271.17 210.79 255.48 212.35 256.46 223.48
  C 257.59 236.28 287.18 238.37 285.76 248.21
  Q 285.43 250.49 283.20 251.07
  C 278.36 252.33 269.96 253.26 270.55 245.54
  A 1.42 1.41 -87.9 0 0 269.14 244.01
  L 256.80 244.05
  A 0.61 0.59 -85.9 0 0 256.23 244.56
  Z
  M 331.43 256.32
  C 340.13 260.20 353.09 259.62 361.70 257.08
  C 371.88 254.08 372.94 243.32 364.19 238.06
  Q 358.43 234.60 348.17 230.10
  C 336.38 224.93 339.97 215.61 352.10 218.53
  Q 355.75 219.41 355.45 223.95
  A 1.00 0.99 1.6 0 0 356.45 225.00
  L 369.31 225.06
  A 0.57 0.57 3.4 0 0 369.88 224.56
  C 371.84 209.29 348.73 210.90 339.50 211.50
  C 332.74 211.94 323.14 217.02 325.69 224.93
  C 327.18 229.56 332.34 232.96 336.84 234.88
  C 340.61 236.48 357.64 243.16 354.35 249.03
  C 352.24 252.79 345.81 252.04 342.35 251.05
  Q 339.39 250.19 339.55 245.58
  A 1.49 1.46 -88.9 0 0 338.10 244.04
  L 325.90 244.01
  A 0.65 0.63 -87.6 0 0 325.26 244.62
  Q 324.71 253.33 331.43 256.32
  Z
  M 411.70 211.52
  A 0.52 0.52 0.0 0 0 411.18 211.00
  L 396.86 211.00
  A 0.52 0.52 0.0 0 0 396.34 211.52
  L 396.34 257.72
  A 0.52 0.52 0.0 0 0 396.86 258.24
  L 411.18 258.24
  A 0.52 0.52 0.0 0 0 411.70 257.72
  L 411.70 211.52
  Z
  M 439.49 249.52
  C 442.52 262.00 469.23 259.80 477.44 256.44
  C 483.98 253.76 485.11 247.70 484.15 241.18
  A 0.58 0.57 84.8 0 0 483.57 240.69
  L 470.44 240.92
  A 0.51 0.50 88.9 0 0 469.95 241.44
  Q 470.07 246.31 469.75 248.00
  C 468.76 253.23 459.26 252.04 456.18 250.61
  Q 454.50 249.83 454.50 247.98
  Q 454.50 235.50 454.29 223.25
  C 454.18 217.12 462.78 217.87 466.69 218.97
  Q 470.52 220.05 469.61 225.00
  Q 469.23 227.05 471.34 227.04
  L 483.86 227.00
  A 0.64 0.63 -8.9 0 0 484.47 226.17
  Q 484.07 224.91 484.18 223.49
  C 485.35 207.35 451.68 209.45 443.81 214.56
  Q 439.25 217.53 439.25 221.75
  Q 439.25 231.61 439.25 241.46
  Q 439.25 248.52 439.49 249.52
  Z
  M 516.94 256.06
  C 525.24 260.10 549.43 261.66 555.11 251.42
  C 564.25 234.95 519.38 230.58 527.44 220.47
  C 530.31 216.87 542.29 216.49 541.44 224.08
  A 0.83 0.82 3.4 0 0 542.27 225.00
  L 555.31 225.06
  A 0.56 0.56 2.8 0 0 555.87 224.56
  C 556.99 214.64 547.11 211.73 539.25 211.25
  C 530.80 210.74 514.36 210.17 511.62 220.62
  C 508.78 231.40 529.96 237.84 537.01 242.24
  C 541.50 245.04 543.08 250.35 536.22 251.54
  Q 532.40 252.20 528.52 251.17
  Q 525.54 250.38 525.48 245.56
  A 1.55 1.52 89.4 0 0 523.96 244.04
  L 511.92 244.01
  A 0.64 0.64 -87.6 0 0 511.28 244.60
  Q 510.63 253.00 516.94 256.06
  Z"
/>
<path fill="#ffffff" d="
  M 90.72 240.68
  A 0.41 0.41 84.9 0 1 91.12 241.02
  C 93.73 257.10 80.85 258.75 68.86 259.05
  C 59.62 259.28 46.27 258.05 46.24 245.69
  Q 46.22 234.56 46.29 223.42
  C 46.39 208.75 69.93 210.34 79.19 211.76
  C 87.13 212.99 92.71 217.91 91.16 226.57
  A 0.62 0.61 -84.9 0 1 90.56 227.08
  L 78.18 227.10
  A 1.63 1.58 -85.3 0 1 76.63 225.21
  C 77.93 217.29 71.26 217.94 66.00 218.50
  C 62.64 218.86 61.50 220.15 61.50 223.61
  Q 61.50 234.58 61.50 245.56
  C 61.50 248.42 61.23 250.22 64.53 251.14
  Q 69.73 252.58 74.58 250.89
  Q 76.20 250.33 76.55 248.64
  Q 77.32 244.83 76.86 241.45
  A 0.62 0.62 -4.1 0 1 77.47 240.75
  L 90.72 240.68
  Z"
/>
<path fill="#ffffff" d="
  M 136.30 250.94
  L 159.84 251.00
  A 0.66 0.65 -0.0 0 1 160.50 251.65
  L 160.50 257.44
  A 0.56 0.56 0.0 0 1 159.94 258.00
  L 120.78 258.06
  A 0.53 0.52 0.0 0 1 120.25 257.54
  L 120.25 211.81
  A 0.81 0.81 0.0 0 1 121.06 211.00
  L 134.99 211.00
  A 0.78 0.77 90.0 0 1 135.76 211.78
  L 135.81 250.44
  A 0.50 0.49 90.0 0 0 136.30 250.94
  Z"
/>
<path fill="#ffffff" d="
  M 215.69 249.05
  L 198.68 249.17
  A 0.70 0.67 7.7 0 0 198.01 249.66
  L 195.70 257.62
  A 0.78 0.78 -82.1 0 1 194.95 258.19
  L 181.58 258.19
  A 0.22 0.21 9.4 0 1 181.37 257.91
  L 196.53 211.66
  A 0.73 0.69 -79.9 0 1 197.19 211.17
  L 218.57 211.17
  A 0.71 0.67 80.5 0 1 219.22 211.66
  L 234.28 257.46
  A 0.38 0.36 81.2 0 1 233.94 257.95
  L 219.44 257.84
  A 0.74 0.68 81.0 0 1 218.79 257.33
  L 216.34 249.54
  A 0.69 0.68 81.3 0 0 215.69 249.05
  Z
  M 200.15 242.61
  A 0.30 0.30 8.5 0 0 200.44 243.00
  L 213.82 243.00
  A 0.30 0.30 -8.5 0 0 214.11 242.61
  L 207.42 220.81
  A 0.30 0.30 45.6 0 0 206.84 220.81
  L 200.15 242.61
  Z"
/>
<path fill="#ffffff" d="
  M 284.50 258.75
  C 275.34 259.55 253.90 259.82 256.23 244.56
  A 0.61 0.59 -85.9 0 1 256.80 244.05
  L 269.14 244.01
  A 1.42 1.41 -87.9 0 1 270.55 245.54
  C 269.96 253.26 278.36 252.33 283.20 251.07
  Q 285.43 250.49 285.76 248.21
  C 287.18 238.37 257.59 236.28 256.46 223.48
  C 255.48 212.35 271.17 210.79 278.62 210.94
  C 286.94 211.12 302.35 212.14 300.88 224.56
  A 0.57 0.56 -86.6 0 1 300.32 225.06
  L 287.49 224.95
  A 1.06 1.04 -87.7 0 1 286.46 223.82
  Q 286.78 219.39 283.08 218.60
  C 280.36 218.02 272.07 217.29 271.75 222.25
  C 271.43 227.16 280.37 230.78 284.13 232.26
  C 290.77 234.88 306.31 242.40 299.69 252.19
  C 296.42 257.03 290.28 258.24 284.50 258.75
  Z"
/>
<path fill="#ffffff" d="
  M 331.43 256.32
  Q 324.71 253.33 325.26 244.62
  A 0.65 0.63 -87.6 0 1 325.90 244.01
  L 338.10 244.04
  A 1.49 1.46 -88.9 0 1 339.55 245.58
  Q 339.39 250.19 342.35 251.05
  C 345.81 252.04 352.24 252.79 354.35 249.03
  C 357.64 243.16 340.61 236.48 336.84 234.88
  C 332.34 232.96 327.18 229.56 325.69 224.93
  C 323.14 217.02 332.74 211.94 339.50 211.50
  C 348.73 210.90 371.84 209.29 369.88 224.56
  A 0.57 0.57 3.4 0 1 369.31 225.06
  L 356.45 225.00
  A 1.00 0.99 1.6 0 1 355.45 223.95
  Q 355.75 219.41 352.10 218.53
  C 339.97 215.61 336.38 224.93 348.17 230.10
  Q 358.43 234.60 364.19 238.06
  C 372.94 243.32 371.88 254.08 361.70 257.08
  C 353.09 259.62 340.13 260.20 331.43 256.32
  Z"
/>
<rect fill="#ffffff" x="396.34" y="211.00" width="15.36" height="47.24" rx="0.52"/>
<path fill="#ffffff" d="
  M 477.44 256.44
  C 469.23 259.80 442.52 262.00 439.49 249.52
  Q 439.25 248.52 439.25 241.46
  Q 439.25 231.61 439.25 221.75
  Q 439.25 217.53 443.81 214.56
  C 451.68 209.45 485.35 207.35 484.18 223.49
  Q 484.07 224.91 484.47 226.17
  A 0.64 0.63 -8.9 0 1 483.86 227.00
  L 471.34 227.04
  Q 469.23 227.05 469.61 225.00
  Q 470.52 220.05 466.69 218.97
  C 462.78 217.87 454.18 217.12 454.29 223.25
  Q 454.50 235.50 454.50 247.98
  Q 454.50 249.83 456.18 250.61
  C 459.26 252.04 468.76 253.23 469.75 248.00
  Q 470.07 246.31 469.95 241.44
  A 0.51 0.50 88.9 0 1 470.44 240.92
  L 483.57 240.69
  A 0.58 0.57 84.8 0 1 484.15 241.18
  C 485.11 247.70 483.98 253.76 477.44 256.44
  Z"
/>
<path fill="#ffffff" d="
  M 516.94 256.06
  Q 510.63 253.00 511.28 244.60
  A 0.64 0.64 -87.6 0 1 511.92 244.01
  L 523.96 244.04
  A 1.55 1.52 89.4 0 1 525.48 245.56
  Q 525.54 250.38 528.52 251.17
  Q 532.40 252.20 536.22 251.54
  C 543.08 250.35 541.50 245.04 537.01 242.24
  C 529.96 237.84 508.78 231.40 511.62 220.62
  C 514.36 210.17 530.80 210.74 539.25 211.25
  C 547.11 211.73 556.99 214.64 555.87 224.56
  A 0.56 0.56 2.8 0 1 555.31 225.06
  L 542.27 225.00
  A 0.83 0.82 3.4 0 1 541.44 224.08
  C 542.29 216.49 530.31 216.87 527.44 220.47
  C 519.38 230.58 564.25 234.95 555.11 251.42
  C 549.43 261.66 525.24 260.10 516.94 256.06
  Z"
/>
<path fill="#000000" d="
  M 200.15 242.61
  L 206.84 220.81
  A 0.30 0.30 45.6 0 1 207.42 220.81
  L 214.11 242.61
  A 0.30 0.30 -8.7 0 1 213.82 243.00
  L 200.44 243.00
  A 0.30 0.30 8.6 0 1 200.15 242.61
  Z"
/>
</svg>
