<?xml version="1.0" encoding="UTF-8" standalone="no"?>
<!DOCTYPE svg PUBLIC "-//W3C//DTD SVG 1.1//EN" "http://www.w3.org/Graphics/SVG/1.1/DTD/svg11.dtd">
<svg xmlns="http://www.w3.org/2000/svg" version="1.1" viewBox="0 0 600 300">
<path fill="#cc2229" d="
  M 307.15 150.11
  A 51.64 51.64 0.0 0 1 255.51 201.75
  A 51.64 51.64 0.0 0 1 203.87 150.11
  A 51.64 51.64 0.0 0 1 255.51 98.47
  A 51.64 51.64 0.0 0 1 307.15 150.11
  Z
  M 291.69 150.24
  A 36.08 36.08 0.0 0 0 255.61 114.16
  A 36.08 36.08 0.0 0 0 219.53 150.24
  A 36.08 36.08 0.0 0 0 255.61 186.32
  A 36.08 36.08 0.0 0 0 291.69 150.24
  Z"
/>
<rect fill="#000000" x="-7.79" y="-48.74" transform="translate(466.00,148.01) rotate(0.1)" width="15.58" height="97.48" rx="0.63"/>
<path fill="#cc2229" d="
  M 568.19 152.69
  C 575.89 144.66 581.93 134.90 579.27 123.27
  C 577.51 115.58 571.62 110.32 563.50 110.75
  Q 552.23 111.35 543.85 120.05
  A 0.91 0.85 47.2 0 1 542.54 119.96
  L 536.57 112.71
  A 0.90 0.84 48.1 0 1 536.59 111.53
  Q 549.01 99.33 565.19 99.54
  C 578.84 99.72 590.04 106.47 593.00 120.25
  C 596.07 134.53 589.50 146.98 579.86 157.17
  Q 567.09 170.66 553.27 183.59
  Q 552.03 184.75 553.73 184.75
  L 598.25 184.75
  A 0.50 0.50 0.0 0 1 598.75 185.25
  L 598.70 196.20
  A 0.53 0.51 -1.2 0 1 598.19 196.71
  C 576.59 197.51 558.28 196.40 537.38 197.09
  A 1.55 1.51 -0.9 0 1 535.78 195.58
  L 535.80 185.82
  A 1.28 1.16 -24.4 0 1 536.17 184.96
  Q 557.62 163.71 568.19 152.69
  Z"
/>
<path fill="#000000" d="
  M 72.59 160.69
  Q 73.82 162.02 73.81 160.20
  L 73.50 101.37
  A 0.81 0.81 -0.4 0 1 74.30 100.56
  L 88.76 100.50
  A 0.56 0.55 90.0 0 1 89.31 101.06
  L 89.43 193.68
  Q 89.43 195.37 88.12 194.30
  L 16.09 135.43
  Q 15.25 134.75 15.25 135.83
  L 15.25 195.69
  A 0.56 0.56 -88.7 0 1 14.69 196.25
  L 2.59 196.25
  A 0.81 0.81 89.3 0 1 1.78 195.46
  C 0.83 164.39 1.62 133.11 1.31 102.09
  Q 1.31 101.29 1.93 101.80
  Q 34.96 129.16 68.03 156.44
  Q 70.57 158.54 72.59 160.69
  Z"
/>
<path fill="#000000" d="
  M 374.82 162.45
  A 0.47 0.47 90.0 0 0 375.54 162.45
  L 427.48 101.07
  Q 428.25 100.16 428.25 101.35
  L 428.25 196.08
  A 0.67 0.67 -0.2 0 1 427.58 196.75
  L 412.31 196.75
  A 0.56 0.55 0.0 0 1 411.75 196.20
  L 411.68 146.07
  Q 411.68 144.62 410.76 145.74
  L 375.49 188.63
  A 0.52 0.51 44.7 0 1 374.70 188.63
  L 339.55 146.43
  Q 338.32 144.94 338.32 146.88
  L 338.50 196.11
  A 0.65 0.64 0.0 0 1 337.85 196.75
  L 323.69 196.75
  A 0.76 0.76 89.6 0 1 322.93 196.00
  Q 322.43 149.41 322.99 102.51
  Q 323.00 102.00 323.33 102.38
  Q 349.46 132.07 374.82 162.45
  Z"
/>
<path fill="#000000" d="
  M 118.93 161.00
  L 151.06 102.21
  Q 151.57 101.29 152.07 102.21
  L 204.09 195.99
  A 0.63 0.63 -13.9 0 1 203.52 196.92
  L 186.31 196.69
  A 0.87 0.83 -12.8 0 1 185.57 196.25
  L 175.38 176.95
  A 1.32 1.28 75.6 0 0 174.24 176.25
  L 128.48 176.25
  A 0.87 0.84 -74.7 0 0 127.74 176.69
  L 116.57 196.38
  A 0.90 0.83 13.7 0 1 115.81 196.80
  L 100.26 196.92
  Q 99.10 196.93 99.68 195.95
  L 110.90 177.01
  Q 111.34 176.25 110.47 176.25
  L 101.34 176.25
  A 1.09 1.09 0.0 0 1 100.25 175.16
  L 100.25 162.54
  A 0.86 0.82 -0.7 0 1 101.09 161.72
  L 118.20 161.47
  A 0.90 0.82 -74.9 0 0 118.93 161.00
  Z
  M 150.76 131.07
  L 134.70 160.62
  A 0.64 0.63 -75.9 0 0 135.26 161.56
  L 167.33 161.50
  Q 169.33 161.50 167.78 160.23
  Q 166.96 159.55 166.23 158.17
  Q 158.97 144.47 151.92 131.07
  Q 151.35 129.99 150.76 131.07
  Z"
/>
</svg>
