<?xml version="1.0" encoding="UTF-8" standalone="no"?>
<!DOCTYPE svg PUBLIC "-//W3C//DTD SVG 1.1//EN" "http://www.w3.org/Graphics/SVG/1.1/DTD/svg11.dtd">
<svg xmlns="http://www.w3.org/2000/svg" version="1.1" viewBox="0 0 600 300">
<g stroke-width="2.00" fill="none" stroke-linecap="butt">
<path stroke="#808080" vector-effect="non-scaling-stroke" d="
  M 581.00 75.43
  A 0.43 0.43 0.0 0 0 580.57 75.00
  L 349.43 75.00
  A 0.43 0.43 0.0 0 0 349.00 75.43
  L 349.00 255.57
  A 0.43 0.43 0.0 0 0 349.43 256.00
  L 580.57 256.00
  A 0.43 0.43 0.0 0 0 581.00 255.57
  L 581.00 75.43"
/>
<path stroke="#808080" vector-effect="non-scaling-stroke" d="
  M 504.14 122.70
  C 504.06 123.36 495.31 128.82 494.14 129.61
  Q 468.88 146.50 453.59 172.29
  C 441.35 192.93 436.01 219.98 432.47 243.19
  A 1.35 1.35 -85.6 0 0 433.80 244.75
  L 491.52 244.75
  A 1.16 1.15 -0.5 0 0 492.68 243.58
  C 492.37 213.52 498.89 182.89 514.40 156.97
  C 524.49 140.11 537.15 128.40 555.66 121.25
  A 0.92 0.91 79.9 0 0 556.25 120.39
  L 556.25 87.15
  A 1.40 1.40 89.7 0 0 554.85 85.75
  L 375.63 85.81
  A 1.63 1.63 0.0 0 0 374.00 87.44
  L 374.06 142.68
  A 0.53 0.53 1.1 0 0 374.57 143.21
  Q 389.51 143.90 403.23 143.31
  A 1.75 1.74 -89.3 0 0 404.89 141.69
  Q 405.92 127.67 415.94 123.58
  Q 419.81 122.00 430.27 122.00
  Q 466.89 122.00 503.52 122.00
  A 0.62 0.62 3.6 0 1 504.14 122.70"
/>
</g>
<path fill="#000000" d="
  M 162.33 48.55
  C 178.39 55.14 189.51 32.56 174.96 23.97
  C 166.06 18.72 156.51 23.80 153.04 33.02
  Q 152.83 33.57 152.52 33.60
  A 0.64 0.39 89.4 0 1 152.10 32.93
  L 152.27 25.87
  Q 152.31 24.14 153.36 23.04
  C 174.06 1.45 201.67 35.19 179.20 51.79
  C 172.49 56.75 162.56 56.55 155.87 51.45
  C 153.31 49.49 150.38 45.67 147.61 42.77
  C 139.02 33.79 125.56 43.40 130.94 54.06
  C 135.57 63.26 146.94 59.73 151.45 52.52
  Q 152.55 50.76 152.33 52.82
  C 151.82 57.56 153.72 58.96 149.13 62.17
  C 140.43 68.25 127.46 64.43 124.62 53.85
  C 120.11 36.96 140.91 26.20 152.39 39.38
  C 155.28 42.70 158.21 46.86 162.33 48.55
  Z"
/>
<path fill="#000000" d="
  M 245.08 135.05
  C 252.38 135.82 261.68 132.55 263.00 124.50
  C 264.22 117.09 255.12 113.65 248.91 110.26
  C 240.58 105.70 235.05 103.00 231.81 95.69
  C 226.74 84.25 235.16 71.85 247.19 69.69
  Q 258.39 67.67 267.84 70.54
  A 0.71 0.70 7.7 0 1 268.33 71.18
  L 268.68 80.81
  Q 268.71 81.67 268.12 81.04
  C 261.78 74.13 246.26 73.47 242.96 84.00
  Q 240.57 91.63 248.15 96.04
  C 259.77 102.79 280.57 110.27 273.50 128.53
  C 267.79 143.25 247.49 144.08 234.55 141.18
  A 1.11 1.10 86.6 0 1 233.73 140.44
  L 230.01 129.02
  Q 229.80 128.39 230.33 128.79
  Q 237.61 134.27 245.08 135.05
  Z"
/>
<path fill="#000000" d="
  M 37.31 98.94
  Q 46.42 99.05 55.53 99.00
  C 59.28 98.98 58.98 98.81 59.00 102.50
  Q 59.03 106.13 59.00 109.75
  Q 59.00 110.23 58.74 109.82
  C 55.52 104.61 46.44 106.03 37.44 106.42
  A 0.53 0.53 -0.6 0 0 36.93 106.94
  Q 36.65 117.96 36.72 128.98
  C 36.76 134.53 36.19 137.54 40.58 140.20
  Q 41.60 140.81 40.41 140.74
  Q 30.88 140.18 21.23 140.75
  Q 19.76 140.84 21.05 140.12
  Q 24.67 138.12 24.68 133.75
  Q 24.75 107.22 24.75 80.68
  C 24.75 75.94 25.04 73.17 21.17 70.80
  Q 19.97 70.07 21.38 70.07
  L 63.54 70.24
  A 0.75 0.74 1.1 0 1 64.28 71.00
  Q 64.13 76.26 64.35 80.51
  Q 64.43 82.01 62.04 78.37
  A 1.91 1.89 74.7 0 0 60.55 77.51
  Q 48.85 76.94 37.44 77.42
  A 0.54 0.51 -1.2 0 0 36.92 77.93
  L 36.80 98.43
  A 0.51 0.51 0.2 0 0 37.31 98.94
  Z"
/>
<path fill="#000000" d="
  M 106.37 70.14
  L 125.43 70.07
  Q 126.40 70.07 125.57 70.56
  C 121.34 73.07 121.75 75.97 121.75 81.11
  Q 121.75 100.18 121.78 119.25
  Q 121.80 135.05 107.50 140.50
  C 95.49 145.08 78.10 141.89 72.81 128.84
  Q 71.27 125.03 71.15 116.94
  Q 70.88 99.57 70.98 82.20
  C 71.01 76.43 71.71 73.43 67.41 70.52
  Q 67.02 70.25 67.50 70.25
  L 86.76 70.25
  Q 87.23 70.25 86.82 70.52
  C 84.32 72.19 83.25 74.03 83.25 77.23
  Q 83.25 97.99 83.25 118.74
  Q 83.25 124.60 84.31 127.11
  C 88.81 137.71 103.03 138.00 108.22 127.78
  Q 109.49 125.27 109.57 120.49
  Q 109.91 100.35 109.76 80.22
  C 109.73 76.22 110.02 72.97 106.20 70.76
  Q 105.14 70.15 106.37 70.14
  Z"
/>
<path fill="#000000" d="
  M 134.52 70.20
  Q 142.07 70.29 150.88 70.24
  Q 151.39 70.24 150.98 70.55
  Q 147.30 73.37 147.29 77.25
  Q 147.19 109.88 147.41 142.50
  Q 147.53 160.19 131.28 166.49
  C 130.72 166.70 125.69 168.94 125.50 168.30
  A 0.60 0.35 -33.7 0 1 125.74 167.80
  Q 135.12 159.83 135.25 148.00
  Q 135.37 136.69 135.19 77.27
  C 135.18 74.02 134.27 72.23 131.58 70.65
  Q 130.78 70.18 131.70 70.04
  C 132.78 69.88 133.75 70.19 134.52 70.20
  Z"
/>
<path fill="#000000" d="
  M 176.11 139.81
  Q 177.87 140.89 175.81 140.75
  Q 167.00 140.15 157.96 140.77
  Q 156.29 140.88 157.62 139.87
  Q 160.85 137.41 160.85 134.00
  Q 160.80 105.57 160.69 77.13
  C 160.68 73.89 159.70 72.22 157.17 70.52
  Q 156.77 70.25 157.25 70.25
  L 176.51 70.25
  Q 176.98 70.25 176.58 70.52
  C 172.61 73.27 173.00 76.07 173.00 80.44
  Q 172.96 106.89 173.06 133.34
  C 173.07 136.24 173.72 138.34 176.11 139.81
  Z"
/>
<path fill="#000000" d="
  M 279.55 117.42
  C 279.28 104.19 280.05 91.31 279.57 77.07
  C 279.47 73.86 278.44 72.19 275.92 70.52
  Q 275.52 70.25 276.00 70.25
  L 295.32 70.19
  Q 295.79 70.19 295.39 70.46
  C 292.72 72.25 291.75 74.19 291.75 77.58
  Q 291.71 98.68 291.80 119.78
  Q 291.82 124.88 292.93 127.42
  C 297.60 138.18 312.69 137.61 317.09 127.07
  Q 318.18 124.45 318.21 119.15
  Q 318.33 98.18 318.20 77.22
  C 318.18 74.17 317.24 72.21 314.67 70.80
  Q 313.04 69.91 314.90 70.02
  Q 324.37 70.59 334.27 70.00
  Q 335.37 69.93 334.40 70.46
  Q 330.31 72.68 330.30 77.50
  C 330.26 91.27 329.98 105.12 330.35 118.88
  C 331.08 145.64 291.35 150.90 281.56 129.29
  Q 279.70 125.19 279.55 117.42
  Z"
/>
<path fill="#000000" d="
  M 586.00 260.73
  A 0.27 0.27 0.0 0 1 585.73 261.00
  L 344.27 261.00
  A 0.27 0.27 0.0 0 1 344.00 260.73
  L 344.00 70.27
  A 0.27 0.27 0.0 0 1 344.27 70.00
  L 585.73 70.00
  A 0.27 0.27 0.0 0 1 586.00 70.27
  L 586.00 260.73
  Z
  M 581.00 75.43
  A 0.43 0.43 0.0 0 0 580.57 75.00
  L 349.43 75.00
  A 0.43 0.43 0.0 0 0 349.00 75.43
  L 349.00 255.57
  A 0.43 0.43 0.0 0 0 349.43 256.00
  L 580.57 256.00
  A 0.43 0.43 0.0 0 0 581.00 255.57
  L 581.00 75.43
  Z"
/>
<path fill="#000000" d="
  M 214.18 139.76
  Q 215.48 140.64 213.88 140.65
  L 196.01 140.75
  Q 194.33 140.76 195.71 139.84
  Q 198.91 137.70 198.92 134.00
  Q 199.00 106.75 199.00 78.12
  A 0.84 0.83 1.1 0 0 198.19 77.29
  C 191.74 77.10 183.83 75.75 179.84 81.64
  A 0.92 0.51 -59.4 0 1 179.06 82.10
  C 179.02 82.09 182.03 72.16 182.31 71.09
  A 1.11 1.10 -82.9 0 1 183.38 70.25
  L 230.28 70.25
  A 0.39 0.39 -82.0 0 1 230.65 70.75
  L 227.52 81.86
  A 0.49 0.35 -77.8 0 1 227.10 82.24
  Q 226.88 82.21 226.81 81.94
  C 225.35 75.60 216.59 77.06 211.77 77.29
  A 0.81 0.80 88.9 0 0 211.01 78.09
  Q 210.82 106.88 211.23 134.09
  C 211.26 136.76 212.07 138.35 214.18 139.76
  Z"
/>
<path fill="#ffffff" d="
  M 581.00 255.57
  A 0.43 0.43 0.0 0 1 580.57 256.00
  L 349.43 256.00
  A 0.43 0.43 0.0 0 1 349.00 255.57
  L 349.00 75.43
  A 0.43 0.43 0.0 0 1 349.43 75.00
  L 580.57 75.00
  A 0.43 0.43 0.0 0 1 581.00 75.43
  L 581.00 255.57
  Z
  M 504.14 122.70
  C 504.06 123.36 495.31 128.82 494.14 129.61
  Q 468.88 146.50 453.59 172.29
  C 441.35 192.93 436.01 219.98 432.47 243.19
  A 1.35 1.35 -85.6 0 0 433.80 244.75
  L 491.52 244.75
  A 1.16 1.15 -0.5 0 0 492.68 243.58
  C 492.37 213.52 498.89 182.89 514.40 156.97
  C 524.49 140.11 537.15 128.40 555.66 121.25
  A 0.92 0.91 79.9 0 0 556.25 120.39
  L 556.25 87.15
  A 1.40 1.40 89.7 0 0 554.85 85.75
  L 375.63 85.81
  A 1.63 1.63 0.0 0 0 374.00 87.44
  L 374.06 142.68
  A 0.53 0.53 1.1 0 0 374.57 143.21
  Q 389.51 143.90 403.23 143.31
  A 1.75 1.74 -89.3 0 0 404.89 141.69
  Q 405.92 127.67 415.94 123.58
  Q 419.81 122.00 430.27 122.00
  Q 466.89 122.00 503.52 122.00
  A 0.62 0.62 3.6 0 1 504.14 122.70
  Z"
/>
<path fill="#000000" d="
  M 504.14 122.70
  A 0.62 0.62 3.6 0 0 503.52 122.00
  Q 466.89 122.00 430.27 122.00
  Q 419.81 122.00 415.94 123.58
  Q 405.92 127.67 404.89 141.69
  A 1.75 1.74 -89.3 0 1 403.23 143.31
  Q 389.51 143.90 374.57 143.21
  A 0.53 0.53 1.1 0 1 374.06 142.68
  L 374.00 87.44
  A 1.63 1.63 0.0 0 1 375.63 85.81
  L 554.85 85.75
  A 1.40 1.40 89.7 0 1 556.25 87.15
  L 556.25 120.39
  A 0.92 0.91 79.9 0 1 555.66 121.25
  C 537.15 128.40 524.49 140.11 514.40 156.97
  C 498.89 182.89 492.37 213.52 492.68 243.58
  A 1.16 1.15 -0.5 0 1 491.52 244.75
  L 433.80 244.75
  A 1.35 1.35 -85.6 0 1 432.47 243.19
  C 436.01 219.98 441.35 192.93 453.59 172.29
  Q 468.88 146.50 494.14 129.61
  C 495.31 128.82 504.06 123.36 504.14 122.70
  Z"
/>
<path fill="#000000" d="
  M 86.55 232.06
  L 86.66 247.06
  A 0.51 0.50 -1.1 0 0 87.18 247.55
  L 96.17 247.50
  A 1.09 1.07 89.7 0 1 97.25 248.59
  L 97.25 260.02
  A 0.98 0.98 -89.5 0 1 96.27 261.00
  L 51.78 261.00
  A 1.21 1.21 86.8 0 1 50.58 259.92
  Q 49.96 254.03 50.63 248.41
  A 1.00 0.93 -85.6 0 1 51.58 247.53
  L 60.30 247.68
  A 0.69 0.66 0.4 0 0 61.00 247.02
  L 61.00 196.01
  A 0.72 0.68 -0.8 0 0 60.26 195.33
  L 52.40 195.49
  A 0.68 0.64 89.6 0 1 51.75 194.81
  L 51.75 179.91
  A 0.66 0.66 0.0 0 1 52.41 179.25
  L 147.31 179.25
  A 0.69 0.69 0.0 0 1 148.00 179.94
  L 148.00 212.20
  A 0.55 0.55 0.0 0 1 147.45 212.75
  L 128.62 212.82
  A 0.62 0.61 0.0 0 1 128.00 212.21
  L 128.00 196.11
  A 0.68 0.68 0.0 0 0 127.32 195.43
  L 87.06 195.50
  A 0.56 0.55 -0.0 0 0 86.50 196.05
  L 86.50 214.84
  A 0.66 0.66 0.0 0 0 87.16 215.50
  L 115.13 215.50
  A 0.87 0.86 -0.0 0 1 116.00 216.36
  L 115.94 230.70
  A 0.81 0.80 -0.0 0 1 115.13 231.50
  L 87.05 231.56
  A 0.50 0.49 -0.6 0 0 86.55 232.06
  Z"
/>
<path fill="#000000" d="
  M 267.99 246.20
  L 274.43 246.30
  A 0.51 0.51 0.6 0 1 274.93 246.81
  L 275.17 260.05
  A 0.93 0.91 89.4 0 1 274.26 261.00
  L 233.07 261.00
  A 0.76 0.75 0.0 0 1 232.31 260.25
  L 232.25 246.83
  A 0.69 0.62 -0.9 0 1 232.92 246.21
  L 239.69 246.01
  A 0.57 0.51 89.5 0 0 240.19 245.44
  L 240.20 216.63
  Q 240.20 214.93 239.43 216.45
  L 217.36 260.26
  A 1.34 1.34 13.2 0 1 216.16 261.00
  L 207.03 261.00
  A 1.60 1.59 76.0 0 1 205.62 260.15
  L 182.11 214.89
  Q 181.50 213.72 181.50 215.04
  L 181.50 245.59
  A 0.66 0.66 0.0 0 0 182.16 246.25
  L 188.94 246.25
  A 0.56 0.56 0.0 0 1 189.50 246.81
  L 189.50 260.12
  A 0.82 0.81 -90.0 0 1 188.69 260.94
  L 156.93 261.00
  A 0.94 0.93 -90.0 0 1 156.00 260.06
  L 156.00 246.91
  A 0.66 0.66 0.0 0 1 156.66 246.25
  L 164.31 246.25
  A 1.18 1.16 -0.2 0 0 165.49 245.08
  L 165.32 194.94
  A 0.62 0.62 -84.3 0 0 164.82 194.33
  Q 161.62 193.70 157.23 194.12
  A 1.12 1.12 87.2 0 1 156.00 193.00
  L 156.00 180.03
  A 0.77 0.76 90.0 0 1 156.76 179.26
  L 191.07 179.43
  A 0.79 0.78 -12.4 0 1 191.78 179.88
  L 214.00 225.28
  Q 214.41 226.11 214.83 225.28
  L 237.74 180.11
  A 1.59 1.58 13.5 0 1 239.15 179.25
  L 275.41 179.25
  A 1.09 1.09 89.8 0 1 276.50 180.34
  L 276.50 193.11
  A 0.98 0.94 -0.3 0 1 275.53 194.05
  L 267.69 194.14
  A 0.54 0.52 89.5 0 0 267.18 194.68
  L 267.02 245.21
  A 0.99 0.98 0.9 0 0 267.99 246.20
  Z"
/>
<rect fill="#000000" x="285.75" y="212.75" width="41.50" height="14.76" rx="0.60"/>
</svg>
