<?xml version="1.0" encoding="UTF-8" standalone="no"?>
<!DOCTYPE svg PUBLIC "-//W3C//DTD SVG 1.1//EN" "http://www.w3.org/Graphics/SVG/1.1/DTD/svg11.dtd">
<svg xmlns="http://www.w3.org/2000/svg" version="1.1" viewBox="0 0 600 300">
<path fill="#000000" d="
  M 0.00 104.94
  L 0.00 36.19
  C 4.10 16.54 30.50 11.07 41.27 28.37
  C 46.51 36.78 45.20 48.68 37.29 55.22
  A 0.56 0.55 39.7 0 0 37.38 56.14
  C 48.99 62.54 53.73 74.67 50.03 87.15
  C 43.75 108.33 16.83 105.87 0.00 104.94
  Z
  M 19.76 27.60
  C 7.03 29.83 9.60 43.51 9.43 52.56
  A 0.85 0.84 -1.2 0 0 10.33 53.42
  C 18.10 52.96 27.70 55.10 32.72 47.66
  C 39.17 38.10 31.35 25.57 19.76 27.60
  Z
  M 41.51 75.31
  C 38.17 59.45 21.66 62.50 10.00 62.50
  A 0.50 0.50 0.0 0 0 9.50 63.00
  L 9.50 95.95
  A 0.53 0.53 1.1 0 0 10.01 96.48
  Q 18.13 96.68 25.24 96.09
  C 36.66 95.15 43.85 86.44 41.51 75.31
  Z"
/>
<path fill="#000000" d="
  M 111.45 72.06
  L 70.76 72.00
  A 0.78 0.77 90.0 0 0 69.99 72.78
  L 69.82 104.06
  A 0.54 0.50 -90.0 0 1 69.32 104.60
  L 61.34 104.71
  A 0.88 0.83 89.7 0 1 60.50 103.83
  Q 60.50 78.82 60.50 54.61
  Q 60.50 44.27 61.96 39.55
  C 66.78 23.97 83.33 14.75 99.29 19.17
  C 113.29 23.05 121.36 35.60 121.55 49.96
  Q 121.92 76.20 121.74 103.72
  A 0.95 0.88 -89.1 0 1 120.84 104.66
  L 112.75 104.56
  A 0.57 0.50 -89.5 0 1 112.26 103.99
  L 111.95 72.56
  A 0.50 0.50 0.0 0 0 111.45 72.06
  Z
  M 111.41 62.07
  A 0.84 0.84 0.0 0 0 112.25 61.23
  C 112.25 55.75 112.67 49.35 111.68 44.63
  C 106.18 18.30 70.48 22.74 70.19 50.00
  Q 70.13 55.72 69.83 61.15
  A 0.80 0.80 -88.3 0 0 70.63 62.00
  L 111.41 62.07
  Z"
/>
<path fill="#000000" d="
  M 185.21 50.25
  C 185.01 19.98 143.82 19.37 143.00 49.25
  Q 142.53 66.22 142.81 104.06
  A 0.54 0.49 -90.0 0 1 142.32 104.60
  L 134.13 104.71
  A 0.73 0.69 -89.6 0 1 133.44 103.97
  Q 133.52 83.24 133.51 63.00
  Q 133.50 45.69 134.01 43.04
  C 136.13 32.00 143.93 23.32 154.53 19.64
  C 173.36 13.09 192.16 26.68 194.38 45.90
  Q 194.50 46.93 194.50 61.11
  Q 194.50 82.55 194.50 104.00
  A 0.55 0.51 89.5 0 1 194.00 104.55
  L 185.99 104.71
  A 0.97 0.90 89.7 0 1 185.07 103.73
  Q 185.39 77.22 185.21 50.25
  Z"
/>
<path fill="#000000" d="
  M 430.08 73.79
  C 426.41 66.63 419.45 64.43 411.75 63.00
  C 397.48 60.35 389.09 47.05 393.60 33.38
  C 400.27 13.15 427.44 12.81 435.40 32.62
  A 0.65 0.64 69.5 0 1 435.02 33.47
  L 428.43 35.86
  A 1.15 1.13 66.5 0 1 427.03 35.30
  C 420.00 21.57 402.35 25.58 401.50 40.25
  C 401.01 48.80 408.94 52.84 416.04 54.39
  C 433.28 58.17 443.69 68.69 440.38 87.08
  C 437.99 100.36 423.60 109.32 410.20 106.46
  C 399.91 104.26 392.69 96.96 390.23 86.65
  A 1.19 1.18 -17.2 0 1 390.97 85.26
  L 397.81 82.67
  A 0.77 0.77 -16.5 0 1 398.83 83.22
  Q 400.74 92.02 407.18 95.80
  C 421.45 104.16 437.42 88.10 430.08 73.79
  Z"
/>
<path fill="#000000" d="
  M 286.12 65.21
  Q 285.43 64.34 285.43 65.46
  L 285.50 104.60
  A 0.62 0.59 -89.5 0 1 284.90 105.22
  L 276.68 105.10
  A 0.54 0.51 90.0 0 1 276.18 104.57
  Q 275.86 75.29 276.00 46.00
  Q 276.07 30.77 286.37 23.32
  C 296.61 15.90 311.04 16.28 320.19 25.56
  C 336.27 41.88 325.90 69.46 302.54 69.68
  Q 301.35 69.69 302.10 70.62
  L 329.68 104.78
  Q 330.06 105.25 329.46 105.25
  L 319.16 105.25
  A 2.84 2.77 70.3 0 1 316.97 104.18
  L 286.12 65.21
  Z
  M 318.96 44.04
  A 17.11 17.11 0.0 0 0 301.85 26.93
  A 17.11 17.11 0.0 0 0 284.74 44.04
  A 17.11 17.11 0.0 0 0 301.85 61.15
  A 17.11 17.11 0.0 0 0 318.96 44.04
  Z"
/>
<path fill="#000000" d="
  M 600.00 58.81
  L 600.00 67.31
  C 594.87 105.53 549.04 121.09 522.70 91.80
  C 500.02 66.59 513.03 27.73 545.50 19.50
  C 572.30 12.71 596.87 32.11 600.00 58.81
  Z
  M 575.8251 91.7953
  A 35.25 34.77 55.6 0 0 584.5992 43.0661
  A 35.25 34.77 55.6 0 0 535.9949 33.6247
  A 35.25 34.77 55.6 0 0 527.2208 82.3539
  A 35.25 34.77 55.6 0 0 575.8251 91.7953
  Z"
/>
<path fill="#000000" d="
  M 214.57 72.09
  L 214.81 104.57
  A 0.53 0.49 89.4 0 1 214.32 105.11
  L 205.69 105.11
  A 0.55 0.50 90.0 0 1 205.19 104.56
  Q 205.28 80.93 205.26 57.31
  C 205.25 47.05 204.99 40.94 209.32 33.54
  C 224.05 8.35 263.97 17.05 266.08 46.65
  C 267.21 62.44 256.37 76.29 240.66 78.80
  Q 227.36 80.91 215.35 71.70
  Q 214.56 71.10 214.57 72.09
  Z
  M 256.89 48.99
  A 21.23 21.23 0.0 0 0 235.66 27.76
  A 21.23 21.23 0.0 0 0 214.43 48.99
  A 21.23 21.23 0.0 0 0 235.66 70.22
  A 21.23 21.23 0.0 0 0 256.89 48.99
  Z"
/>
<path fill="#000000" d="
  M 349.31 95.69
  L 378.64 95.75
  A 0.81 0.78 -0.0 0 1 379.45 96.53
  L 379.49 104.73
  A 0.52 0.52 -90.0 0 1 378.97 105.25
  L 339.69 105.25
  A 0.69 0.69 0.0 0 1 339.00 104.56
  L 339.00 21.26
  A 1.26 1.26 -87.6 0 1 340.26 20.00
  L 375.57 20.00
  A 0.93 0.93 0.6 0 1 376.50 20.93
  L 376.50 28.84
  A 0.66 0.66 0.4 0 1 375.84 29.50
  L 349.42 29.50
  A 0.67 0.67 0.2 0 0 348.75 30.17
  L 348.75 54.32
  A 0.93 0.93 0.6 0 0 349.68 55.25
  L 374.17 55.25
  A 0.96 0.86 -89.0 0 1 375.03 56.24
  L 374.81 63.60
  A 0.92 0.86 -89.3 0 1 373.95 64.50
  L 349.84 64.50
  A 1.09 1.09 -89.8 0 0 348.75 65.59
  L 348.81 95.19
  A 0.50 0.50 0.0 0 0 349.31 95.69
  Z"
/>
<path fill="#000000" d="
  M 500.92 21.19
  L 500.93 28.52
  A 0.99 0.89 89.4 0 1 500.05 29.52
  L 481.19 29.67
  A 0.51 0.50 -90.0 0 0 480.69 30.18
  L 480.69 104.69
  A 0.51 0.50 -90.0 0 1 480.19 105.20
  L 471.76 105.24
  A 0.51 0.50 89.4 0 1 471.25 104.73
  L 471.25 30.35
  A 0.85 0.85 -0.2 0 0 470.40 29.50
  L 451.77 29.50
  A 0.62 0.60 90.0 0 1 451.17 28.88
  L 451.24 20.88
  A 0.89 0.87 -89.7 0 1 452.11 20.00
  L 499.82 20.00
  A 1.19 1.10 -90.0 0 1 500.92 21.19
  Z"
/>
<path fill="#000000" d="
  M 338.26 244.21
  Q 328.03 232.29 316.44 226.06
  C 295.82 214.99 276.34 235.52 264.53 249.55
  Q 251.75 264.74 238.87 279.48
  A 1.32 1.32 -56.5 0 1 237.31 279.80
  L 49.52 190.41
  A 0.81 0.81 -77.2 0 1 49.06 189.68
  L 49.00 126.44
  A 0.95 0.95 0.0 0 1 49.95 125.49
  C 178.94 126.00 307.48 125.93 436.00 127.15
  C 476.73 127.54 517.56 127.20 558.70 127.51
  A 0.81 0.80 90.0 0 1 559.50 128.32
  L 559.50 191.49
  A 1.10 1.08 -13.1 0 1 558.88 192.47
  L 369.67 280.67
  A 1.81 1.80 -31.2 0 1 367.47 280.14
  Q 353.26 261.69 338.26 244.21
  Z
  M 153.93 190.72
  C 170.71 212.90 204.88 217.94 227.99 201.97
  C 242.04 192.26 248.40 177.05 248.51 159.90
  A 1.08 1.08 -89.7 0 0 247.43 158.81
  L 144.95 158.93
  A 0.53 0.53 -88.9 0 0 144.42 159.44
  Q 143.87 177.42 153.93 190.72
  Z
  M 354.06 160.81
  C 354.21 229.05 457.67 230.35 457.75 161.55
  A 1.30 1.29 90.0 0 0 456.46 160.25
  L 354.56 160.31
  A 0.50 0.50 0.0 0 0 354.06 160.81
  Z"
/>
</svg>
