<?xml version="1.0" encoding="UTF-8" standalone="no"?>
<!DOCTYPE svg PUBLIC "-//W3C//DTD SVG 1.1//EN" "http://www.w3.org/Graphics/SVG/1.1/DTD/svg11.dtd">
<svg xmlns="http://www.w3.org/2000/svg" version="1.1" viewBox="0 0 600 300">
<path fill="#000000" d="
  M 430.10 141.06
  L 430.24 164.13
  A 0.87 0.86 -0.3 0 1 429.37 165.00
  L 412.81 164.94
  A 0.50 0.50 89.4 0 1 412.31 164.45
  L 412.06 117.16
  A 0.66 0.66 -0.2 0 1 412.72 116.50
  L 453.75 116.50
  A 1.36 1.18 -20.9 0 1 454.62 116.82
  C 458.19 120.01 461.44 129.84 462.50 132.00
  C 464.80 136.69 457.78 142.61 454.67 146.03
  A 1.17 1.10 51.8 0 0 454.55 147.35
  L 463.16 162.64
  Q 464.24 164.56 464.25 162.38
  L 464.43 117.19
  A 0.52 0.51 90.0 0 1 464.94 116.67
  L 481.43 116.52
  A 0.83 0.81 89.7 0 1 482.25 117.35
  L 482.25 164.36
  A 0.64 0.64 0.0 0 1 481.61 165.00
  L 447.09 165.00
  A 1.76 1.75 -15.5 0 1 445.59 164.16
  L 431.49 140.65
  Q 430.09 138.31 430.10 141.06
  Z
  M 449.18 135.14
  C 445.41 139.64 443.54 143.08 438.20 142.36
  Q 436.78 142.17 437.53 143.40
  L 447.67 160.20
  A 2.01 1.72 71.6 0 0 449.28 161.17
  L 457.50 161.06
  A 0.33 0.32 74.2 0 0 457.76 160.57
  L 449.93 146.87
  A 1.21 1.17 -39.9 0 1 450.07 145.52
  L 459.19 134.88
  A 0.78 0.78 -37.5 0 0 459.30 134.05
  L 452.87 120.66
  A 1.69 1.61 -12.2 0 0 451.37 119.75
  L 416.51 119.75
  A 0.52 0.51 90.0 0 0 416.00 120.27
  L 415.81 160.45
  A 0.80 0.79 90.0 0 0 416.60 161.25
  L 425.44 161.25
  A 1.01 0.99 90.0 0 0 426.43 160.24
  L 426.26 126.54
  A 1.28 1.22 0.0 0 1 427.55 125.31
  L 442.93 125.48
  Q 445.52 125.51 446.49 127.75
  L 449.30 134.29
  A 0.83 0.82 -37.1 0 1 449.18 135.14
  Z
  M 478.30 120.25
  A 0.55 0.55 0.0 0 0 477.75 119.70
  L 468.55 119.70
  A 0.55 0.55 0.0 0 0 468.00 120.25
  L 468.00 160.69
  A 0.55 0.55 0.0 0 0 468.55 161.24
  L 477.75 161.24
  A 0.55 0.55 0.0 0 0 478.30 160.69
  L 478.30 120.25
  Z
  M 430.19 129.67
  L 430.25 137.75
  A 0.55 0.51 90.0 0 0 430.76 138.30
  L 440.56 138.36
  A 1.18 1.16 -68.8 0 0 441.43 137.97
  L 444.45 134.64
  A 1.13 0.97 64.7 0 0 444.69 133.76
  Q 444.32 131.42 442.83 129.63
  A 1.05 1.04 -20.0 0 0 442.00 129.25
  L 430.54 129.31
  A 0.36 0.35 90.0 0 0 430.19 129.67
  Z"
/>
<path fill="#000000" d="
  M 513.79 149.59
  L 525.17 132.83
  A 3.63 3.22 64.9 0 0 525.75 130.88
  L 525.75 117.06
  A 0.56 0.56 89.8 0 1 526.31 116.50
  L 543.09 116.50
  A 0.63 0.63 89.5 0 1 543.72 117.12
  Q 543.87 125.05 543.63 131.86
  C 543.53 134.42 544.08 137.39 542.44 139.94
  Q 534.52 152.17 526.71 164.56
  A 0.95 0.93 -73.4 0 1 525.92 165.00
  L 501.15 165.00
  A 0.96 0.95 -16.3 0 1 500.35 164.57
  Q 492.61 152.61 485.19 140.81
  C 482.10 135.91 483.50 124.22 483.50 118.25
  A 1.75 0.75 -90.0 0 1 484.25 116.50
  L 500.56 116.43
  A 0.68 0.68 -0.4 0 1 501.25 117.11
  L 501.25 131.75
  A 1.62 1.60 -62.5 0 0 501.53 132.66
  L 513.21 149.59
  A 0.35 0.35 90.0 0 0 513.79 149.59
  Z
  M 513.21 156.35
  L 497.53 133.42
  A 1.44 1.34 -61.9 0 1 497.29 132.51
  Q 497.77 126.98 497.21 120.31
  A 0.58 0.56 87.2 0 0 496.65 119.78
  L 487.81 119.80
  A 0.55 0.54 -87.7 0 0 487.27 120.31
  C 486.89 125.06 485.91 134.57 488.42 138.67
  Q 495.23 149.77 502.48 160.59
  A 0.98 0.90 71.9 0 0 503.26 161.03
  L 523.56 161.09
  A 0.98 0.92 -72.3 0 0 524.35 160.65
  L 539.21 137.67
  A 5.57 4.72 65.3 0 0 540.00 134.84
  L 540.00 120.50
  A 0.76 0.75 0.0 0 0 539.24 119.75
  L 530.19 119.70
  A 0.52 0.48 0.6 0 0 529.66 120.18
  L 529.66 132.44
  A 1.77 1.16 71.9 0 1 529.41 133.36
  L 513.79 156.34
  A 0.35 0.35 -45.5 0 1 513.21 156.35
  Z"
/>
<path fill="#000000" d="
  M 562.72 147.80
  L 562.82 151.08
  A 0.62 0.49 -0.5 0 0 563.44 151.56
  L 594.13 151.50
  A 1.08 1.05 0.3 0 1 595.21 152.56
  L 595.09 164.31
  A 0.54 0.51 -0.0 0 1 594.55 164.82
  L 545.44 164.82
  A 0.53 0.52 88.9 0 1 544.92 164.31
  Q 544.45 149.37 545.07 132.63
  Q 545.14 130.77 545.91 129.37
  L 552.69 117.18
  A 1.40 1.32 13.8 0 1 553.89 116.50
  L 594.63 116.50
  A 0.56 0.55 -0.0 0 1 595.19 117.05
  L 595.25 128.40
  A 0.85 0.84 -0.3 0 1 594.40 129.25
  L 568.25 129.25
  Q 566.50 129.25 564.69 131.44
  C 562.05 134.62 566.05 133.75 567.47 133.75
  Q 581.13 133.71 592.80 133.80
  Q 596.92 133.83 595.13 137.48
  L 590.62 146.68
  A 1.08 1.02 12.3 0 1 589.67 147.25
  L 563.32 147.31
  A 0.60 0.48 -0.5 0 0 562.72 147.80
  Z
  M 558.46 136.96
  L 562.21 127.38
  Q 562.95 125.51 565.23 125.49
  L 591.31 125.33
  A 0.61 0.50 -1.0 0 0 591.91 124.82
  L 591.86 120.24
  A 0.60 0.50 -0.5 0 0 591.26 119.75
  L 556.07 119.81
  A 0.89 0.86 14.7 0 0 555.31 120.24
  C 553.00 124.18 548.50 130.76 548.50 135.33
  Q 548.50 148.01 548.50 160.40
  A 0.85 0.85 -0.2 0 0 549.35 161.25
  L 591.24 161.25
  A 0.76 0.76 0.0 0 0 592.00 160.49
  L 592.00 156.06
  A 0.56 0.56 90.0 0 0 591.44 155.50
  L 559.65 155.50
  A 0.80 0.76 90.0 0 1 558.89 154.70
  L 558.82 144.14
  A 0.88 0.83 89.7 0 1 559.65 143.25
  Q 572.28 143.25 584.60 143.25
  C 587.99 143.25 588.00 143.65 589.35 140.68
  Q 589.82 139.64 590.51 138.72
  C 591.72 137.09 588.69 137.50 587.72 137.50
  Q 573.27 137.54 558.82 137.44
  A 0.37 0.35 10.1 0 1 558.46 136.96
  Z"
/>
<path fill="#000000" d="
  M 355.54 117.32
  A 0.84 0.83 -89.3 0 1 356.37 116.50
  L 398.69 116.56
  A 1.38 1.11 -19.0 0 1 399.57 116.88
  Q 400.81 118.03 402.31 120.94
  Q 407.16 130.31 410.86 139.28
  Q 411.52 140.88 410.77 142.43
  Q 406.27 151.78 402.06 160.56
  C 400.63 163.55 399.55 164.93 395.93 164.95
  Q 376.19 165.05 355.98 165.00
  A 0.55 0.55 88.9 0 1 355.43 164.47
  Q 354.92 141.65 355.54 117.32
  Z
  M 359.19 120.37
  L 359.25 160.39
  A 0.86 0.86 0.0 0 0 360.11 161.25
  L 396.40 161.25
  A 1.58 1.58 12.9 0 0 397.82 160.36
  L 407.00 141.44
  A 2.03 1.93 -45.7 0 0 407.02 139.71
  L 397.75 120.44
  A 1.26 1.21 -12.3 0 0 396.63 119.75
  L 359.80 119.75
  A 0.62 0.61 90.0 0 0 359.19 120.37
  Z"
/>
<path fill="#000000" d="
  M 142.07 130.74
  L 122.82 163.64
  A 0.93 0.84 -73.0 0 1 122.07 164.09
  L 105.00 164.03
  Q 104.48 164.03 104.76 163.56
  Q 117.94 141.48 131.19 119.44
  Q 132.97 116.47 136.61 116.66
  C 142.03 116.94 147.57 116.75 153.00 116.75
  A 1.97 1.11 47.1 0 1 153.91 117.04
  Q 154.97 117.68 156.13 117.08
  Q 156.65 116.81 157.06 116.81
  L 178.74 116.75
  A 0.77 0.76 -89.6 0 1 179.50 117.53
  L 179.07 163.57
  A 0.52 0.52 -89.4 0 1 178.55 164.08
  L 162.60 164.23
  A 0.85 0.83 89.7 0 1 161.76 163.38
  L 161.92 136.30
  Q 161.93 134.61 161.07 136.05
  L 144.92 163.14
  A 2.29 2.27 15.3 0 1 142.96 164.25
  L 127.00 164.25
  Q 126.00 164.25 126.52 163.39
  L 146.31 130.56
  A 0.52 0.51 -70.1 0 0 145.95 129.78
  Q 144.20 129.52 142.77 130.10
  A 1.63 1.30 -81.1 0 0 142.07 130.74
  Z
  M 149.11 120.69
  Q 142.22 120.75 135.60 120.81
  A 1.53 1.51 -74.5 0 0 134.32 121.55
  L 111.47 159.63
  Q 110.98 160.43 111.94 160.41
  L 119.14 160.23
  A 2.37 2.11 12.6 0 0 121.07 159.16
  Q 129.65 144.41 137.91 130.43
  Q 139.73 127.35 141.55 126.47
  C 144.17 125.20 151.70 127.93 150.40 123.24
  A 1.71 1.31 -48.8 0 1 150.46 122.30
  C 150.91 121.03 150.27 120.68 149.11 120.69
  Z
  M 164.43 122.55
  C 164.56 122.32 165.08 122.00 165.31 122.03
  A 0.73 0.49 -88.0 0 1 165.75 122.74
  L 165.68 159.41
  A 0.84 0.83 90.0 0 0 166.51 160.25
  L 174.74 160.25
  A 0.76 0.76 0.0 0 0 175.50 159.49
  L 175.50 121.33
  A 0.58 0.58 0.0 0 0 174.92 120.75
  L 157.92 120.75
  A 2.46 2.44 -74.6 0 0 155.84 121.94
  L 133.37 159.39
  Q 132.71 160.48 134.05 160.45
  L 140.95 160.31
  A 1.87 1.60 13.2 0 0 142.42 159.55
  Q 153.86 141.15 164.43 122.55
  Z"
/>
<path fill="#000000" d="
  M 198.31 151.19
  L 228.66 151.25
  A 0.64 0.61 89.0 0 1 229.27 151.87
  L 229.55 163.45
  A 0.78 0.74 89.2 0 1 228.81 164.25
  L 181.11 164.25
  A 0.66 0.66 89.6 0 1 180.45 163.60
  Q 180.22 148.58 180.45 134.32
  C 180.54 129.26 184.74 123.09 187.33 118.94
  Q 188.70 116.74 191.24 116.75
  L 228.81 116.93
  A 0.53 0.52 -0.6 0 1 229.34 117.44
  L 229.48 129.24
  A 0.52 0.50 -0.5 0 1 228.96 129.75
  L 200.93 129.75
  A 0.82 0.82 -82.6 0 0 200.14 130.36
  Q 199.80 131.67 198.90 132.71
  Q 197.79 134.00 199.49 134.00
  L 229.51 134.00
  A 0.99 0.99 89.7 0 0 230.50 133.00
  C 230.46 130.12 235.49 122.43 237.07 119.57
  Q 238.73 116.56 242.25 116.59
  Q 261.25 116.75 281.47 116.75
  A 0.78 0.78 89.9 0 1 282.25 117.53
  L 282.25 129.09
  A 0.66 0.66 -0.2 0 1 281.59 129.75
  L 251.23 129.75
  A 0.97 0.96 -77.4 0 0 250.36 130.31
  C 248.89 133.53 247.75 136.04 247.75 139.71
  Q 247.75 144.98 247.75 150.23
  A 1.00 0.97 89.7 0 0 248.73 151.23
  L 265.64 151.09
  A 0.91 0.88 -83.7 0 0 266.49 150.38
  Q 267.41 146.34 264.50 147.00
  Q 262.72 147.40 257.25 146.81
  A 0.37 0.35 15.9 0 1 256.95 146.30
  L 262.70 134.91
  A 1.70 1.63 13.3 0 1 264.21 134.02
  L 283.57 134.17
  A 0.53 0.52 89.4 0 1 284.08 134.68
  Q 284.37 145.43 284.26 156.19
  C 284.18 164.80 282.94 164.25 274.90 164.25
  Q 255.45 164.25 236.00 164.25
  C 230.13 164.25 230.79 161.62 230.65 157.35
  Q 230.47 151.82 230.49 146.28
  C 230.49 143.90 229.90 140.03 230.64 136.73
  A 1.04 0.63 -69.6 0 0 230.47 135.85
  C 229.99 135.42 229.58 135.81 229.37 136.31
  Q 227.22 141.43 224.52 146.40
  A 1.17 1.16 14.3 0 1 223.50 147.00
  L 198.26 147.00
  A 0.71 0.60 -1.1 0 0 197.55 147.63
  L 197.67 150.71
  A 0.65 0.50 -0.9 0 0 198.31 151.19
  Z
  M 270.70 143.80
  L 270.75 154.11
  A 0.88 0.87 -89.7 0 1 269.87 154.99
  L 244.69 154.82
  A 0.53 0.53 88.3 0 1 244.16 154.32
  C 243.79 146.75 242.45 133.87 247.60 127.54
  Q 248.86 126.00 251.50 126.00
  Q 264.50 126.00 277.52 126.00
  A 0.93 0.92 82.7 0 0 278.41 124.84
  Q 277.96 123.08 278.41 121.54
  A 0.61 0.61 -81.5 0 0 277.83 120.75
  L 241.54 120.75
  A 1.15 1.13 -75.0 0 0 240.55 121.33
  L 234.68 131.81
  Q 234.23 132.59 234.23 133.57
  L 234.06 159.45
  A 0.80 0.78 90.0 0 0 234.84 160.25
  L 279.72 160.25
  A 0.79 0.78 90.0 0 0 280.50 159.46
  L 280.56 138.55
  A 0.79 0.78 -89.6 0 0 279.78 137.75
  L 266.06 137.81
  A 0.99 0.97 17.3 0 0 265.26 138.22
  C 264.50 139.29 264.10 140.52 263.35 141.72
  C 261.78 144.23 268.20 143.12 270.19 143.27
  A 0.55 0.54 1.8 0 1 270.70 143.80
  Z
  M 193.80 154.20
  L 193.75 143.80
  A 0.64 0.62 0.0 0 1 194.39 143.18
  L 220.69 143.19
  A 1.23 1.23 22.5 0 0 221.56 142.83
  Q 223.37 141.01 224.34 138.48
  A 0.54 0.53 -79.3 0 0 223.85 137.75
  L 193.77 137.75
  A 0.68 0.68 12.4 0 1 193.15 136.78
  Q 195.11 132.55 196.81 128.31
  C 197.89 125.64 200.20 126.00 202.64 126.00
  Q 213.58 126.00 224.89 126.00
  A 0.85 0.82 -0.3 0 0 225.74 125.17
  L 225.71 121.31
  A 0.53 0.50 0.0 0 0 225.18 120.81
  L 191.26 120.75
  A 1.27 1.27 -75.9 0 0 190.14 121.42
  L 184.43 132.14
  Q 184.00 132.94 184.00 133.86
  L 184.00 159.58
  A 0.67 0.67 0.0 0 0 184.67 160.25
  L 225.17 160.25
  A 0.58 0.58 0.0 0 0 225.75 159.67
  L 225.75 155.73
  A 0.92 0.92 -1.2 0 0 224.79 154.81
  Q 209.44 155.36 194.31 154.71
  A 0.53 0.52 0.6 0 1 193.80 154.20
  Z"
/>
<path fill="#000000" d="
  M 302.39 153.81
  Q 303.02 157.94 302.67 163.26
  A 1.07 1.06 -88.0 0 1 301.61 164.25
  L 286.20 164.25
  A 1.17 1.16 6.3 0 1 285.06 162.83
  Q 285.73 159.82 285.70 156.75
  Q 285.50 137.41 285.18 117.53
  A 0.77 0.76 89.6 0 1 285.94 116.75
  Q 298.76 116.71 311.74 116.80
  C 316.16 116.83 316.52 118.42 318.61 121.49
  Q 332.67 142.14 347.32 163.42
  Q 347.89 164.25 346.89 164.24
  L 327.82 164.19
  A 1.01 1.00 -18.0 0 1 327.01 163.78
  L 321.25 155.59
  A 1.41 1.35 71.6 0 0 320.13 155.00
  L 305.53 155.00
  A 1.75 1.72 72.6 0 1 304.10 154.24
  Q 303.33 153.09 302.76 153.10
  A 0.63 0.42 83.5 0 0 302.39 153.81
  Z
  M 318.64 144.99
  Q 319.44 146.13 318.05 146.00
  Q 311.78 145.44 304.28 146.04
  Q 303.07 146.14 303.91 147.02
  Q 305.01 148.19 305.49 149.47
  Q 306.16 151.26 307.99 151.24
  L 322.20 151.06
  A 1.19 1.15 -17.3 0 1 323.18 151.55
  L 328.89 159.80
  A 1.17 1.04 -14.9 0 0 329.80 160.26
  L 339.54 160.41
  Q 340.58 160.43 340.01 159.59
  L 313.72 121.22
  A 0.95 0.94 -17.0 0 0 312.94 120.81
  L 289.78 120.75
  A 0.78 0.78 -89.9 0 0 289.00 121.53
  L 289.00 159.59
  A 0.66 0.66 -0.1 0 0 289.66 160.25
  L 298.27 160.25
  A 0.55 0.55 0.0 0 0 298.82 159.70
  L 298.75 127.08
  A 0.87 0.87 85.3 0 1 299.48 126.22
  C 304.25 125.40 305.64 126.19 308.39 130.17
  Q 313.65 137.78 318.64 144.99
  Z
  M 302.69 131.05
  L 302.75 141.48
  A 0.52 0.51 90.0 0 0 303.26 142.00
  L 310.69 142.00
  Q 312.02 142.00 311.25 140.89
  L 304.08 130.62
  Q 302.67 128.60 302.69 131.05
  Z"
/>
<path fill="#000000" d="
  M 100.50 163.29
  A 0.71 0.71 0.0 0 1 99.79 164.00
  L 5.21 164.00
  A 0.71 0.71 0.0 0 1 4.50 163.29
  L 4.50 119.03
  A 0.71 0.71 0.0 0 1 5.21 118.32
  L 99.79 118.32
  A 0.71 0.71 0.0 0 1 100.50 119.03
  L 100.50 163.29
  Z
  M 34.37 150.25
  Q 33.25 151.92 33.25 149.90
  L 33.32 123.93
  Q 33.32 122.41 32.47 123.67
  L 9.88 157.39
  Q 9.42 158.07 10.24 158.07
  L 52.40 158.07
  A 0.68 0.67 90.0 0 0 53.07 157.39
  L 53.18 123.81
  Q 53.18 122.27 52.32 123.55
  L 34.37 150.25
  Z
  M 69.76 123.99
  A 0.73 0.73 0.0 0 0 69.03 123.26
  L 58.95 123.26
  A 0.73 0.73 0.0 0 0 58.22 123.99
  L 58.22 157.75
  A 0.73 0.73 0.0 0 0 58.95 158.48
  L 69.03 158.48
  A 0.73 0.73 0.0 0 0 69.76 157.75
  L 69.76 123.99
  Z
  M 74.24 123.68
  Q 71.04 122.86 71.75 125.00
  Q 72.31 126.70 71.31 133.82
  C 71.24 134.33 71.03 135.95 72.18 135.14
  A 1.43 0.78 89.6 0 0 72.62 134.32
  L 74.61 124.31
  A 0.55 0.51 -77.4 0 0 74.24 123.68
  Z
  M 73.57 133.81
  C 73.45 134.16 71.83 135.85 73.72 135.34
  A 1.24 1.01 -79.5 0 0 74.41 134.75
  L 79.39 125.25
  A 0.55 0.54 -60.7 0 0 79.20 124.53
  Q 77.95 123.74 76.77 124.12
  A 0.98 0.81 -89.1 0 0 76.19 124.80
  Q 75.09 129.36 73.57 133.81
  Z
  M 75.93 134.28
  C 75.65 134.76 74.26 135.35 75.30 136.02
  A 0.59 0.53 -55.3 0 0 76.05 135.84
  Q 79.40 131.35 83.32 127.78
  A 1.04 1.04 -49.0 0 0 83.21 126.15
  Q 81.21 124.76 80.25 126.59
  Q 78.20 130.49 75.93 134.28
  Z
  M 77.79 135.31
  C 77.34 135.79 75.24 136.43 76.77 137.08
  A 0.97 0.85 -49.7 0 0 77.66 136.95
  Q 82.04 133.74 87.25 131.29
  A 0.63 0.62 61.3 0 0 87.51 130.39
  Q 86.64 129.03 85.74 128.64
  A 0.95 0.75 -49.4 0 0 84.86 128.81
  Q 81.08 131.79 77.79 135.31
  Z
  M 79.02 138.49
  Q 83.43 136.55 88.24 135.95
  Q 91.25 135.58 88.63 132.53
  A 0.62 0.61 -35.0 0 0 87.85 132.40
  Q 83.42 134.93 79.10 136.99
  C 77.44 137.78 76.63 137.63 78.14 139.81
  A 1.01 0.98 72.4 0 0 78.96 140.25
  L 90.45 140.20
  A 0.68 0.63 5.4 0 0 91.09 139.71
  Q 91.35 138.63 90.74 137.70
  A 0.88 0.76 -18.2 0 0 89.95 137.37
  C 87.87 137.64 80.49 139.41 79.02 138.90
  Q 78.49 138.72 79.02 138.49
  Z
  M 78.00 142.02
  Q 76.58 146.10 72.16 146.53
  A 0.71 0.70 84.3 0 0 71.53 147.31
  Q 72.04 151.88 71.45 157.24
  A 0.91 0.90 3.4 0 0 72.35 158.25
  Q 87.99 158.30 91.13 142.46
  A 0.80 0.80 -84.4 0 0 90.35 141.50
  L 78.73 141.50
  A 0.77 0.77 -80.4 0 0 78.00 142.02
  Z
  M 88.84 153.73
  A 1.93 1.89 -73.6 0 1 89.40 154.78
  Q 89.90 157.62 90.60 157.53
  A 0.72 0.41 82.3 0 0 90.91 156.76
  Q 90.69 155.07 91.58 153.96
  Q 92.20 153.19 91.21 153.11
  Q 87.91 152.82 88.84 153.73
  Z
  M 95.32 155.67
  Q 94.31 156.71 94.27 155.26
  Q 94.19 152.42 92.94 153.25
  A 1.06 0.52 83.0 0 0 92.66 154.06
  L 92.66 156.70
  A 0.65 0.40 -89.2 0 0 93.04 157.34
  L 93.76 157.36
  Q 94.70 157.39 94.73 157.40
  C 98.58 158.45 97.45 152.28 95.89 153.43
  A 0.90 0.77 69.4 0 0 95.60 154.24
  Q 95.75 155.22 95.32 155.67
  Z"
/>
<path fill="#000000" d="
  M 369.44 125.95
  A 0.52 0.51 90.0 0 1 369.95 125.43
  L 388.31 125.50
  Q 390.37 125.50 391.22 127.27
  L 396.76 138.76
  Q 397.60 140.51 396.70 142.35
  Q 394.03 147.81 391.44 153.44
  Q 390.34 155.82 387.27 155.63
  C 381.60 155.26 375.79 155.50 370.16 155.50
  A 0.67 0.66 90.0 0 1 369.50 154.83
  L 369.44 125.95
  Z
  M 373.43 150.77
  A 0.77 0.76 0.4 0 0 374.19 151.53
  L 386.60 151.68
  A 2.41 2.38 -77.3 0 0 388.81 150.26
  L 392.79 141.49
  A 2.13 1.83 -47.6 0 0 392.84 139.86
  L 388.61 130.38
  A 1.87 1.76 76.9 0 0 386.96 129.28
  L 373.94 129.41
  A 0.53 0.50 89.5 0 0 373.45 129.94
  L 373.43 150.77
  Z"
/>
<path fill="#000000" d="
  M 100.50 181.10
  A 0.40 0.40 0.0 0 1 100.10 181.50
  L 4.88 181.50
  A 0.40 0.40 0.0 0 1 4.48 181.10
  L 4.48 165.66
  A 0.40 0.40 0.0 0 1 4.88 165.26
  L 100.10 165.26
  A 0.40 0.40 0.0 0 1 100.50 165.66
  L 100.50 181.10
  Z
  M 60.07 168.63
  C 58.18 168.40 52.73 167.45 52.89 170.41
  C 52.99 172.39 52.93 174.36 53.13 176.32
  A 0.62 0.57 87.1 0 0 53.69 176.87
  L 59.78 176.95
  A 1.77 1.58 -73.6 0 0 61.24 176.04
  Q 63.42 172.14 60.90 169.07
  A 1.31 1.24 -15.7 0 0 60.07 168.63
  Z
  M 68.69 170.31
  Q 70.75 171.23 68.38 172.81
  A 0.89 0.88 -26.4 0 0 68.03 173.83
  Q 68.91 176.48 71.01 177.13
  A 0.70 0.60 21.4 0 0 71.81 176.85
  Q 72.21 176.03 71.10 174.81
  A 0.94 0.94 46.3 0 1 71.13 173.50
  Q 73.50 171.15 70.88 168.82
  A 1.41 1.22 -21.1 0 0 69.99 168.50
  L 64.36 168.50
  A 0.90 0.90 -4.6 0 0 63.47 169.54
  C 63.82 171.71 63.84 173.50 63.55 175.64
  Q 63.25 177.76 65.72 176.87
  A 0.73 0.68 -11.6 0 0 66.20 176.19
  L 66.06 171.94
  Q 65.97 169.10 68.69 170.31
  Z
  M 76.0252 169.1295
  A 0.60 0.60 0.0 0 0 75.4294 168.5253
  L 73.9295 168.5149
  A 0.60 0.60 0.0 0 0 73.3253 169.1107
  L 73.2748 176.3505
  A 0.60 0.60 0.0 0 0 73.8706 176.9547
  L 75.3705 176.9651
  A 0.60 0.60 0.0 0 0 75.9747 176.3693
  L 76.0252 169.1295
  Z
  M 81.89 174.67
  Q 79.60 172.47 79.45 169.31
  A 0.81 0.70 -83.2 0 0 78.98 168.62
  C 74.80 167.10 77.45 176.55 81.54 177.18
  C 85.66 177.82 87.52 172.45 87.46 169.31
  A 0.69 0.67 -83.3 0 0 86.96 168.66
  Q 84.31 167.90 84.67 170.76
  A 1.50 0.85 69.5 0 1 84.52 171.70
  L 82.57 174.62
  A 0.46 0.43 39.4 0 1 81.89 174.67
  Z
  M 91.15 174.73
  Q 91.10 173.74 94.41 173.78
  Q 95.65 173.80 96.77 173.24
  Q 97.46 172.90 96.88 172.31
  A 1.36 0.94 -15.3 0 0 96.00 172.00
  C 95.66 171.99 88.81 172.35 91.61 170.57
  C 92.60 169.95 98.46 171.05 97.05 168.90
  A 1.00 0.86 -14.2 0 0 96.25 168.50
  L 90.87 168.50
  A 1.99 1.98 7.4 0 0 88.95 169.97
  Q 88.10 173.20 88.29 176.38
  A 0.65 0.65 88.6 0 0 88.94 177.00
  C 90.38 177.00 97.96 177.78 97.16 175.76
  A 0.83 0.72 -8.9 0 0 96.43 175.30
  L 91.81 175.20
  A 0.68 0.49 -0.3 0 1 91.15 174.73
  Z
  M 13.80 170.42
  C 17.41 169.56 7.78 178.13 13.01 176.88
  A 1.48 1.45 11.9 0 0 13.81 176.37
  C 14.25 175.80 16.89 170.35 17.52 171.47
  A 1.36 0.68 -64.5 0 1 17.54 172.41
  Q 17.05 174.09 17.34 175.82
  A 0.94 0.88 -84.1 0 0 17.88 176.53
  Q 20.10 177.50 19.60 173.89
  Q 19.34 172.09 19.98 170.39
  C 21.02 167.59 13.18 168.78 11.79 169.17
  A 1.20 1.11 -82.3 0 0 11.08 169.76
  C 10.81 170.28 4.79 178.73 9.11 176.78
  A 1.75 1.42 -81.0 0 0 9.82 176.14
  L 13.05 170.99
  A 1.30 1.11 -77.9 0 1 13.80 170.42
  Z
  M 23.23 174.19
  Q 23.28 173.53 24.52 173.81
  Q 25.63 174.07 26.76 173.88
  Q 29.59 173.41 29.10 172.68
  A 2.16 2.15 69.2 0 0 27.02 171.74
  Q 22.97 172.26 23.76 171.03
  A 2.39 2.39 21.4 0 1 26.19 169.97
  Q 29.21 170.51 29.45 169.31
  A 0.51 0.44 4.7 0 0 28.94 168.79
  L 23.06 168.79
  A 1.18 1.11 -67.8 0 0 22.21 169.18
  Q 20.37 171.24 20.89 174.01
  Q 20.98 174.49 20.88 174.98
  Q 20.45 177.01 22.01 176.94
  C 24.08 176.85 26.13 177.14 28.19 176.98
  A 1.53 1.15 14.8 0 0 29.07 176.62
  C 31.11 174.61 24.41 174.90 23.81 174.79
  A 0.71 0.55 8.3 0 1 23.23 174.19
  Z
  M 36.44 174.97
  L 33.56 174.97
  A 0.72 0.68 80.7 0 1 32.90 174.47
  Q 31.50 170.02 36.34 170.45
  Q 37.57 170.56 38.78 170.39
  Q 39.55 170.29 38.95 169.23
  A 0.88 0.87 -14.7 0 0 38.19 168.79
  L 32.31 168.79
  A 1.07 1.06 -70.6 0 0 31.48 169.19
  Q 29.72 171.42 30.50 175.60
  A 1.50 1.23 83.0 0 0 31.78 176.82
  L 38.54 176.71
  A 0.90 0.77 -84.0 0 0 39.31 175.98
  Q 40.33 170.74 35.51 172.42
  Q 34.46 172.79 35.47 173.26
  Q 36.74 173.86 36.95 174.45
  A 0.50 0.39 -7.6 0 1 36.44 174.97
  Z
  M 43.30 174.68
  L 46.96 175.66
  A 1.81 0.76 57.3 0 1 47.74 176.20
  Q 48.51 176.99 49.84 177.00
  Q 51.21 177.01 50.43 175.85
  L 46.08 169.37
  A 1.13 0.63 64.2 0 0 45.33 168.84
  L 41.05 168.94
  A 0.61 0.56 88.5 0 0 40.51 169.56
  L 40.62 176.07
  A 0.82 0.70 10.8 0 0 41.16 176.75
  Q 43.41 177.52 42.93 175.05
  A 0.31 0.30 -88.6 0 1 43.30 174.68
  Z"
/>
<path fill="#000000" d="
  M 121.14 177.47
  C 120.80 176.08 117.06 175.70 115.89 175.42
  C 104.88 172.77 117.98 162.60 123.59 170.92
  A 0.68 0.67 -23.4 0 1 123.17 171.96
  Q 120.83 172.49 119.81 170.69
  Q 118.54 168.43 115.69 170.44
  C 111.91 173.09 120.92 173.82 121.44 174.06
  C 129.37 177.79 119.77 183.73 113.82 180.58
  C 112.64 179.96 109.29 176.86 113.75 177.20
  A 1.20 1.08 70.9 0 1 114.54 177.64
  Q 116.79 180.44 120.52 178.74
  A 1.12 1.11 71.1 0 0 121.14 177.47
  Z"
/>
<path fill="#000000" d="
  M 146.81 179.19
  Q 149.09 180.15 151.06 178.06
  Q 152.83 176.19 149.46 176.27
  A 1.56 1.55 -16.8 0 1 148.11 175.55
  C 146.93 173.67 153.24 174.25 154.09 174.25
  A 0.65 0.63 0.4 0 1 154.74 174.89
  L 154.71 180.69
  A 0.74 0.67 83.1 0 1 154.23 181.37
  Q 153.08 181.73 152.59 180.64
  A 0.98 0.97 -36.1 0 0 150.98 180.39
  Q 150.06 181.40 148.75 181.46
  C 142.13 181.74 137.72 176.01 141.68 170.53
  C 143.98 167.34 150.64 166.95 153.19 169.56
  Q 156.41 172.86 152.05 172.04
  A 1.89 1.46 66.2 0 1 151.20 171.58
  C 145.43 166.14 139.74 176.21 146.81 179.19
  Z"
/>
<path fill="#000000" d="
  M 211.44 180.05
  Q 210.89 180.11 210.49 180.54
  Q 210.06 180.99 209.72 181.11
  C 200.12 184.31 195.86 170.80 205.50 168.00
  Q 210.30 166.61 213.68 170.61
  A 0.96 0.81 36.9 0 1 213.88 171.48
  C 213.34 173.10 211.56 172.25 210.66 171.33
  C 206.05 166.61 199.75 174.90 205.39 178.66
  Q 208.00 180.40 210.82 177.79
  A 1.10 0.80 -30.4 0 0 211.19 176.94
  C 210.93 175.16 207.21 177.53 208.01 174.91
  A 0.76 0.76 -82.7 0 1 208.69 174.38
  L 213.31 174.18
  A 0.65 0.62 81.4 0 1 213.94 174.67
  Q 214.69 177.66 214.05 180.69
  A 0.85 0.72 -88.5 0 1 213.47 181.34
  Q 212.51 181.53 212.09 180.54
  A 0.77 0.55 72.4 0 0 211.44 180.05
  Z"
/>
<path fill="#000000" d="
  M 249.03 180.94
  C 237.93 185.13 233.57 169.48 244.50 167.81
  C 249.93 166.99 254.27 171.45 252.51 177.00
  C 252.13 178.22 250.66 179.06 252.43 180.31
  Q 253.51 181.07 252.26 181.50
  Q 250.89 181.96 249.85 181.09
  A 0.84 0.79 53.7 0 0 249.03 180.94
  Z
  M 246.25 170.23
  C 240.46 168.80 238.95 179.93 246.51 179.07
  A 0.31 0.30 69.6 0 0 246.72 178.59
  Q 245.42 176.54 247.56 176.64
  A 1.61 0.81 52.5 0 1 248.41 177.05
  C 249.72 178.16 251.54 171.54 246.25 170.23
  Z"
/>
<path fill="#000000" d="
  M 339.75 170.59
  Q 340.89 168.93 342.83 168.37
  Q 347.73 166.93 350.78 169.86
  C 352.06 171.08 352.99 173.48 349.53 172.35
  A 1.70 1.20 73.3 0 1 348.79 171.77
  C 345.80 167.63 340.70 171.52 341.83 175.88
  C 342.63 178.98 345.99 180.69 348.44 177.94
  Q 349.88 176.32 351.54 176.82
  A 0.51 0.48 -71.2 0 1 351.84 177.48
  C 348.60 186.44 333.56 179.64 339.75 170.59
  Z"
/>
<path fill="#000000" d="
  M 368.8796 174.6111
  A 7.53 6.94 -0.6 0 1 361.4227 181.6296
  A 7.53 6.94 -0.6 0 1 353.8204 174.7689
  A 7.53 6.94 -0.6 0 1 361.2773 167.7504
  A 7.53 6.94 -0.6 0 1 368.8796 174.6111
  Z
  M 361.3378 179.2899
  A 4.61 4.27 90.4 0 0 365.6399 174.7098
  A 4.61 4.27 90.4 0 0 361.4022 170.0701
  A 4.61 4.27 90.4 0 0 357.1001 174.6502
  A 4.61 4.27 90.4 0 0 361.3378 179.2899
  Z"
/>
<path fill="#000000" d="
  M 532.3734 174.3864
  A 7.49 6.93 -2.4 0 1 525.1802 181.6239
  A 7.49 6.93 -2.4 0 1 517.4066 175.0136
  A 7.49 6.93 -2.4 0 1 524.5998 167.7761
  A 7.49 6.93 -2.4 0 1 532.3734 174.3864
  Z
  M 524.8370 179.3294
  A 4.65 4.25 90.9 0 0 529.1595 174.7468
  A 4.65 4.25 90.9 0 0 524.9830 170.0306
  A 4.65 4.25 90.9 0 0 520.6605 174.6132
  A 4.65 4.25 90.9 0 0 524.8370 179.3294
  Z"
/>
<path fill="#000000" d="
  M 546.35 180.65
  A 0.56 0.56 69.7 0 0 545.57 180.29
  Q 540.89 182.42 537.62 180.57
  C 528.12 175.24 539.67 161.72 547.95 170.57
  A 1.05 1.05 -28.2 0 1 547.42 172.31
  C 544.33 173.06 543.08 167.10 538.69 171.44
  C 534.60 175.47 540.46 182.51 545.09 177.81
  A 1.18 0.89 -31.0 0 0 545.44 176.94
  C 545.24 175.36 540.61 177.27 542.27 174.72
  A 1.00 0.93 14.7 0 1 543.07 174.29
  L 547.87 174.26
  A 0.61 0.61 0.0 0 1 548.49 174.88
  L 548.46 180.69
  A 0.71 0.67 82.8 0 1 547.98 181.35
  Q 546.64 181.73 546.35 180.65
  Z"
/>
<path fill="#000000" d="
  M 323.98 173.04
  Q 324.68 174.33 325.18 172.95
  C 326.18 170.23 326.85 167.71 330.35 168.42
  A 0.49 0.47 -67.5 0 1 330.64 169.16
  L 326.93 174.84
  Q 325.94 176.36 326.09 178.63
  Q 326.30 181.78 323.23 180.98
  A 0.68 0.65 -83.9 0 1 322.74 180.34
  L 322.71 176.56
  A 1.92 1.16 40.6 0 0 322.41 175.65
  L 318.25 168.94
  A 0.45 0.42 63.8 0 1 318.45 168.30
  C 321.75 167.05 322.84 170.92 323.98 173.04
  Z"
/>
<path fill="#000000" d="
  M 409.03 179.23
  C 414.37 179.79 412.27 172.31 412.68 169.00
  A 0.91 0.79 85.2 0 1 413.20 168.29
  Q 414.42 167.83 415.53 168.52
  A 0.89 0.78 -73.9 0 1 415.90 169.31
  C 415.58 174.35 417.75 180.95 410.25 181.50
  C 401.79 182.12 403.33 174.62 403.54 169.06
  A 0.78 0.71 82.4 0 1 404.02 168.37
  Q 405.12 167.98 406.23 168.37
  A 0.74 0.69 -81.2 0 1 406.70 169.06
  L 406.75 176.66
  Q 406.77 178.99 409.03 179.23
  Z"
/>
<path fill="#000000" d="
  M 425.59 171.06
  Q 425.99 178.46 425.75 180.00
  Q 425.41 182.24 422.95 181.21
  A 0.78 0.76 -78.5 0 1 422.49 180.50
  L 422.53 171.88
  A 1.53 1.51 84.6 0 0 420.73 170.36
  Q 417.49 170.99 417.78 168.81
  A 0.79 0.74 2.9 0 1 418.55 168.16
  L 428.93 168.10
  A 1.33 0.93 -16.0 0 1 429.81 168.40
  C 432.69 171.21 426.83 170.17 426.03 170.40
  A 0.66 0.60 81.2 0 0 425.59 171.06
  Z"
/>
<path fill="#000000" d="
  M 473.04 176.52
  Q 473.62 178.46 474.25 176.52
  L 476.64 169.04
  A 1.11 1.03 89.6 0 1 477.26 168.36
  Q 478.35 167.93 479.46 168.17
  A 0.77 0.77 18.3 0 1 480.00 169.24
  Q 477.66 174.41 475.58 179.69
  C 474.76 181.78 472.63 182.14 471.67 180.03
  Q 469.37 174.95 467.17 169.11
  A 0.46 0.46 73.1 0 1 467.49 168.50
  Q 468.70 168.20 469.46 168.32
  C 470.86 168.53 472.70 175.41 473.04 176.52
  Z"
/>
<rect fill="#000000" x="-1.53" y="-6.53" transform="translate(483.72,174.71) rotate(-0.3)" width="3.06" height="13.06" rx="0.38"/>
<path fill="#000000" d="
  M 129.90 176.04
  C 128.53 180.52 134.65 178.92 137.68 179.04
  A 0.86 0.78 -9.8 0 1 138.41 179.50
  Q 139.20 181.34 137.00 181.31
  Q 132.12 181.25 127.33 181.25
  A 0.63 0.60 89.5 0 1 126.73 180.63
  L 126.57 168.96
  A 0.70 0.67 89.6 0 1 127.24 168.25
  L 137.24 168.25
  A 0.96 0.81 -12.7 0 1 138.03 168.66
  C 139.79 171.60 131.83 170.37 130.89 170.23
  A 0.70 0.68 -73.2 0 0 130.17 170.63
  C 128.35 174.60 134.71 173.23 136.69 173.29
  A 0.85 0.78 -10.1 0 1 137.41 173.75
  C 138.58 176.47 131.99 175.50 130.56 175.55
  A 0.71 0.68 7.2 0 0 129.90 176.04
  Z"
/>
<path fill="#000000" d="
  M 166.08 178.55
  L 161.79 178.49
  A 1.27 1.23 -84.8 0 0 160.56 179.55
  Q 160.23 181.54 157.10 181.08
  A 0.47 0.46 16.7 0 1 156.74 180.42
  Q 159.38 174.68 161.31 169.81
  Q 162.31 167.30 165.34 168.27
  A 1.12 1.07 86.5 0 1 166.01 168.89
  Q 168.15 173.93 170.28 178.97
  C 172.15 183.41 167.30 181.29 167.25 179.73
  A 1.22 1.18 89.2 0 0 166.08 178.55
  Z
  M 164.59 172.48
  C 163.89 168.98 162.60 174.26 162.56 174.31
  Q 160.99 176.87 165.42 176.03
  A 0.41 0.40 70.7 0 0 165.70 175.44
  Q 164.87 173.91 164.59 172.48
  Z"
/>
<path fill="#000000" d="
  M 187.06 173.15
  A 1.41 1.28 -6.3 0 0 188.50 171.52
  Q 187.16 166.79 191.23 168.60
  A 0.72 0.70 -76.2 0 1 191.65 169.31
  Q 191.09 176.28 191.69 179.06
  Q 192.28 181.82 188.97 181.14
  A 0.90 0.89 -84.5 0 1 188.25 180.26
  C 188.25 178.43 189.33 174.72 186.73 175.36
  Q 186.55 175.40 185.76 175.39
  L 182.79 175.32
  A 0.59 0.52 -89.1 0 0 182.25 175.91
  L 182.25 180.50
  A 0.71 0.66 82.4 0 1 181.78 181.17
  Q 180.75 181.46 179.72 181.17
  A 0.71 0.64 -81.9 0 1 179.26 180.49
  Q 179.40 175.54 179.08 170.60
  C 178.95 168.60 179.48 167.35 181.74 168.34
  A 0.96 0.59 -87.7 0 1 182.15 169.07
  L 182.54 172.58
  A 0.69 0.47 -0.5 0 0 183.19 173.02
  L 187.06 173.15
  Z"
/>
<rect fill="#000000" x="194.49" y="168.22" width="3.26" height="13.24" rx="0.88"/>
<path fill="#000000" d="
  M 221.06 172.97
  C 223.20 173.07 227.37 174.46 226.35 170.13
  A 1.69 1.67 -16.6 0 1 227.42 168.17
  Q 230.09 167.21 229.89 169.99
  C 229.69 172.81 229.75 175.61 229.75 178.44
  C 229.75 181.18 230.06 181.68 226.94 181.03
  A 0.68 0.63 -83.8 0 1 226.44 180.36
  L 226.48 176.07
  A 0.71 0.63 8.6 0 0 225.95 175.43
  Q 223.28 174.74 221.79 175.23
  Q 219.77 175.91 220.23 177.99
  Q 221.06 181.81 217.76 181.09
  A 0.65 0.64 6.1 0 1 217.25 180.46
  C 217.25 176.93 217.47 173.22 217.18 169.80
  Q 217.00 167.76 220.04 168.42
  A 0.62 0.59 -84.7 0 1 220.50 169.01
  L 220.54 172.45
  A 0.55 0.52 1.8 0 0 221.06 172.97
  Z"
/>
<path fill="#000000" d="
  M 267.01 179.37
  C 264.58 182.30 258.05 182.64 256.12 178.98
  C 254.95 176.76 255.50 171.73 255.50 169.04
  A 0.65 0.64 -6.1 0 1 256.01 168.41
  Q 259.01 167.76 258.82 169.82
  C 258.58 172.41 257.40 182.91 263.91 178.35
  A 1.24 1.22 78.8 0 0 264.42 177.58
  Q 265.21 173.68 264.46 169.53
  A 0.97 0.97 -11.0 0 1 265.22 168.41
  Q 268.16 167.80 267.93 169.38
  C 267.57 171.79 267.75 174.46 267.75 177.33
  A 3.21 3.18 -25.4 0 1 267.01 179.37
  Z"
/>
<path fill="#000000" d="
  M 275.64 168.47
  Q 277.24 167.81 278.85 168.47
  A 1.35 1.16 87.0 0 1 279.51 169.16
  L 284.15 180.50
  A 0.42 0.41 72.5 0 1 283.86 181.06
  Q 280.72 181.76 280.50 179.49
  A 1.10 1.10 87.1 0 0 279.41 178.50
  C 277.89 178.50 273.92 177.85 273.72 179.83
  A 1.51 1.50 -2.6 0 1 272.50 181.16
  Q 269.50 181.72 270.33 180.05
  C 272.07 176.56 273.46 172.74 275.00 169.14
  A 1.27 1.10 -87.0 0 1 275.64 168.47
  Z
  M 277.33 171.54
  C 276.86 171.46 273.85 176.81 276.52 176.36
  Q 276.95 176.28 277.48 176.36
  Q 278.07 176.44 278.57 176.24
  A 0.61 0.49 72.4 0 0 278.84 175.54
  L 277.91 172.18
  A 0.91 0.67 84.0 0 0 277.33 171.54
  Z"
/>
<path fill="#000000" d="
  M 290.31 178.73
  C 292.82 178.92 298.25 177.51 297.40 180.76
  A 0.66 0.66 -82.2 0 1 296.75 181.26
  L 287.18 181.09
  A 0.52 0.50 -89.4 0 1 286.69 180.57
  Q 286.76 175.74 286.75 170.92
  C 286.75 168.77 285.71 167.85 289.29 168.36
  A 0.80 0.74 -85.9 0 1 289.93 169.16
  L 289.79 178.18
  A 0.56 0.54 2.8 0 0 290.31 178.73
  Z"
/>
<rect fill="#000000" x="-1.64" y="-6.48" transform="translate(301.11,174.76) rotate(-0.3)" width="3.28" height="12.96" rx="0.31"/>
<path fill="#000000" d="
  M 308.98 171.79
  A 1.31 1.31 89.3 0 0 307.68 170.52
  Q 303.66 170.47 304.55 168.73
  A 0.89 0.78 11.9 0 1 305.31 168.30
  L 316.19 168.30
  A 0.76 0.71 -9.3 0 1 316.89 168.77
  Q 317.54 170.45 315.43 170.50
  Q 314.17 170.53 312.94 170.20
  C 311.70 169.87 312.25 178.87 312.25 180.30
  A 0.87 0.86 -5.2 0 1 311.54 181.15
  Q 308.73 181.67 308.93 179.48
  C 309.17 176.84 309.06 173.99 308.98 171.79
  Z"
/>
<path fill="#000000" d="
  M 382.95 171.47
  L 382.67 171.55
  A 0.52 0.31 -86.5 0 0 382.39 171.96
  C 381.96 174.19 381.34 183.08 377.37 181.06
  A 1.13 1.04 -84.8 0 1 376.81 180.33
  L 375.04 172.54
  A 1.52 1.05 -86.4 0 0 374.56 171.74
  C 373.39 170.87 374.22 179.35 374.26 180.33
  A 0.83 0.82 -7.5 0 1 373.61 181.17
  Q 371.00 181.74 371.17 179.75
  C 371.47 176.27 371.24 172.58 371.30 169.06
  A 0.82 0.69 81.7 0 1 371.75 168.34
  C 375.53 166.92 375.94 168.81 376.75 171.60
  C 376.83 171.89 378.62 180.81 379.40 176.48
  Q 379.96 173.31 381.30 169.35
  A 1.25 1.01 -79.3 0 1 382.29 168.51
  L 385.72 168.40
  A 0.68 0.46 88.4 0 1 386.20 169.06
  Q 386.29 173.32 386.26 177.59
  C 386.25 179.44 387.05 182.24 383.72 181.17
  A 0.74 0.69 10.2 0 1 383.21 180.49
  L 383.38 172.06
  A 0.55 0.35 86.5 0 0 382.95 171.47
  Z"
/>
<path fill="#000000" d="
  M 392.33 177.31
  L 392.43 180.44
  A 0.69 0.66 80.7 0 1 391.97 181.12
  Q 390.86 181.50 389.72 181.17
  A 0.72 0.66 -82.5 0 1 389.25 180.49
  L 389.25 168.91
  A 0.66 0.66 -0.2 0 1 389.91 168.25
  C 393.38 168.25 400.21 167.05 400.94 171.56
  C 401.76 176.66 395.97 176.29 392.80 176.74
  A 0.57 0.55 85.4 0 0 392.33 177.31
  Z
  M 392.31 171.17
  Q 391.16 175.95 396.31 174.06
  C 400.60 172.49 395.99 169.25 392.90 170.49
  A 0.98 0.95 86.7 0 0 392.31 171.17
  Z"
/>
<path fill="#000000" d="
  M 432.19 168.79
  A 0.54 0.53 -0.5 0 1 432.73 168.25
  L 442.74 168.25
  A 1.00 0.83 -13.3 0 1 443.54 168.65
  C 445.36 171.59 437.42 170.33 436.57 170.23
  A 1.24 1.24 10.1 0 0 435.21 171.18
  C 434.48 174.32 440.29 173.24 442.19 173.29
  A 0.73 0.68 -6.6 0 1 442.85 173.78
  C 443.66 176.56 438.23 175.35 435.94 175.62
  A 0.85 0.76 3.9 0 0 435.26 176.15
  Q 434.74 177.72 435.85 178.70
  A 1.47 1.15 -19.1 0 0 436.75 179.01
  L 442.82 178.95
  A 1.43 0.85 -13.3 0 1 443.71 179.23
  Q 444.35 179.84 443.94 180.75
  A 0.85 0.77 11.4 0 1 443.19 181.20
  L 432.82 181.20
  A 0.51 0.51 0.0 0 1 432.31 180.69
  L 432.19 168.79
  Z"
/>
<path fill="#000000" d="
  M 449.88 176.09
  Q 449.25 177.59 449.66 179.17
  Q 450.28 181.52 447.45 181.14
  A 1.09 1.07 4.3 0 1 446.51 180.07
  L 446.55 169.07
  A 0.60 0.59 85.5 0 1 447.05 168.48
  C 449.93 167.99 456.99 167.28 458.80 170.38
  Q 460.09 172.58 457.63 174.69
  A 0.46 0.43 47.5 0 0 457.62 175.34
  Q 459.11 176.80 458.83 179.00
  A 1.69 1.62 -55.9 0 0 458.99 179.94
  C 459.99 181.97 457.16 181.54 456.24 181.17
  A 0.91 0.85 -83.1 0 1 455.70 180.44
  L 455.43 177.55
  A 1.25 0.72 -84.5 0 0 455.06 176.74
  C 454.28 176.13 450.09 175.58 449.88 176.09
  Z
  M 455.17 173.26
  C 459.22 170.72 451.66 170.19 450.40 170.30
  A 0.68 0.64 -3.0 0 0 449.79 170.94
  L 449.77 173.19
  A 0.57 0.52 1.1 0 0 450.32 173.71
  C 451.83 173.77 453.86 174.08 455.17 173.26
  Z"
/>
<path fill="#000000" d="
  M 488.43 178.01
  Q 488.37 173.61 488.24 169.03
  A 0.76 0.76 89.3 0 1 489.00 168.25
  C 494.05 168.25 501.46 166.71 501.19 174.50
  Q 500.95 181.58 492.57 181.20
  Q 491.11 181.13 489.68 181.41
  C 487.62 181.82 488.44 179.07 488.43 178.01
  Z
  M 491.44 178.23
  A 0.65 0.64 7.2 0 0 491.94 178.87
  Q 494.25 179.46 496.50 178.41
  A 1.41 1.30 -88.9 0 0 497.15 177.73
  Q 500.76 169.62 492.06 170.51
  A 0.57 0.57 87.8 0 0 491.55 171.07
  L 491.44 178.23
  Z"
/>
<path fill="#000000" d="
  M 503.94 168.70
  A 0.49 0.45 -0.0 0 1 504.43 168.25
  L 514.43 168.30
  A 0.83 0.70 -9.2 0 1 515.17 168.74
  Q 515.52 169.59 514.89 170.20
  A 1.35 1.03 18.0 0 1 514.00 170.51
  L 507.82 170.35
  A 0.85 0.70 11.5 0 0 507.06 170.75
  Q 506.57 171.78 507.06 172.76
  A 0.87 0.76 -11.1 0 0 507.82 173.20
  L 513.50 173.26
  A 1.39 0.94 -15.1 0 1 514.38 173.56
  Q 515.19 174.36 514.38 175.18
  A 1.35 1.00 16.6 0 1 513.50 175.50
  L 507.87 175.50
  A 0.68 0.68 -83.6 0 0 507.21 176.03
  Q 506.65 178.59 507.85 179.00
  C 509.01 179.39 513.15 179.00 514.68 179.04
  A 0.91 0.73 -8.3 0 1 515.44 179.49
  Q 515.78 180.24 515.33 180.88
  A 1.09 0.83 13.0 0 1 514.50 181.25
  L 504.75 181.25
  A 0.95 0.75 -11.2 0 1 503.97 180.85
  Q 503.55 180.09 503.82 179.21
  Q 503.95 178.78 503.95 178.26
  L 503.94 168.70
  Z"
/>
<path fill="#000000" d="
  M 554.83 170.64
  C 556.20 167.37 559.30 166.87 560.58 170.45
  Q 562.42 175.58 564.90 180.61
  A 0.40 0.40 -19.3 0 1 564.62 181.18
  Q 561.42 181.81 560.99 179.56
  A 1.12 0.78 -87.8 0 0 560.51 178.81
  C 558.64 177.84 554.57 177.97 553.86 180.52
  A 1.09 0.86 -88.4 0 1 553.29 181.20
  Q 552.10 181.62 550.95 181.20
  A 0.52 0.48 -68.9 0 1 550.69 180.53
  Q 552.77 175.59 554.83 170.64
  Z
  M 557.19 172.19
  C 556.46 173.79 553.88 176.93 558.80 176.07
  A 0.66 0.66 -20.6 0 0 559.25 175.08
  Q 558.66 174.12 558.50 172.50
  Q 558.24 169.86 557.19 172.19
  Z"
/>
<path fill="#000000" d="
  M 578.73 171.52
  Q 577.11 175.18 576.42 179.15
  C 576.10 180.99 575.43 181.95 573.46 181.20
  A 1.01 0.97 3.2 0 1 572.84 180.53
  L 570.60 172.25
  A 1.50 0.79 86.8 0 0 570.11 171.44
  C 569.20 170.81 569.88 179.37 569.92 180.43
  A 0.71 0.68 79.3 0 1 569.47 181.12
  Q 566.68 182.11 566.88 179.36
  C 567.13 175.99 567.00 172.51 567.00 168.95
  A 0.58 0.51 90.0 0 1 567.51 168.37
  L 571.20 168.43
  A 0.84 0.59 79.0 0 1 571.83 169.04
  C 572.11 169.97 574.08 177.78 574.52 177.70
  A 1.01 0.46 -79.8 0 0 575.04 176.95
  L 577.03 169.12
  A 0.92 0.80 -81.7 0 1 577.83 168.43
  L 581.46 168.41
  A 0.65 0.49 89.4 0 1 581.95 169.05
  L 581.99 180.30
  A 0.99 0.97 -7.0 0 1 581.22 181.26
  Q 577.91 182.01 578.75 178.50
  Q 579.30 176.20 578.97 171.56
  Q 578.94 171.05 578.73 171.52
  Z"
/>
<path fill="#000000" d="
  M 588.80 178.79
  C 590.99 179.20 596.44 177.94 595.82 180.71
  A 0.65 0.63 6.1 0 1 595.19 181.20
  L 585.64 181.24
  A 0.61 0.59 -0.0 0 1 585.02 180.64
  L 585.16 168.93
  A 0.58 0.54 -1.8 0 1 585.70 168.40
  C 588.70 168.20 597.65 167.28 595.75 170.04
  A 1.07 0.93 13.6 0 1 594.94 170.46
  C 592.25 170.60 587.58 169.23 588.00 172.22
  A 1.23 1.19 -3.5 0 0 589.20 173.25
  L 594.93 173.29
  A 0.82 0.75 -9.9 0 1 595.65 173.75
  C 596.80 176.46 590.51 175.50 589.06 175.55
  A 0.97 0.83 12.4 0 0 588.28 175.97
  Q 587.66 177.04 588.11 178.24
  A 0.95 0.85 -3.2 0 0 588.80 178.79
  Z"
/>
<path fill="#000000" d="
  M 55.71 173.69
  L 55.64 171.31
  A 0.91 0.62 80.1 0 1 55.98 170.56
  C 59.49 168.59 62.07 174.33 57.51 175.30
  A 1.66 1.49 83.7 0 1 55.71 173.69
  Z"
/>
<path fill="#000000" d="
  M 44.98 173.26
  Q 42.72 173.40 43.06 170.91
  Q 43.20 169.88 43.81 170.68
  L 45.30 172.66
  Q 45.72 173.22 44.98 173.26
  Z"
/>
</svg>
