<?xml version="1.0" encoding="UTF-8" standalone="no"?>
<!DOCTYPE svg PUBLIC "-//W3C//DTD SVG 1.1//EN" "http://www.w3.org/Graphics/SVG/1.1/DTD/svg11.dtd">
<svg xmlns="http://www.w3.org/2000/svg" version="1.1" viewBox="0 0 600 300">
<path fill="#000000" d="
  M 297.75 0.21
  L 302.50 0.21
  Q 326.91 0.77 348.02 12.82
  A 0.75 0.48 27.8 0 1 348.43 13.54
  Q 348.30 13.86 347.75 13.75
  C 333.57 11.02 312.71 21.55 301.14 28.90
  A 2.05 2.04 -45.1 0 1 298.96 28.91
  C 286.94 21.38 267.19 11.35 253.20 13.73
  C 250.01 14.27 252.05 12.65 252.87 12.20
  Q 273.82 0.81 297.75 0.21
  Z"
/>
<path fill="#000000" d="
  M 240.06 27.94
  C 252.21 32.91 263.17 42.88 272.09 52.09
  A 0.58 0.58 42.3 0 1 272.13 52.86
  Q 251.00 78.95 235.91 107.92
  C 230.02 119.24 219.96 140.85 224.10 154.02
  A 0.66 0.45 72.9 0 1 223.86 154.79
  Q 223.54 154.89 223.25 154.50
  C 196.29 117.93 197.13 68.59 226.84 33.86
  C 231.30 28.64 233.26 25.15 240.06 27.94
  Z"
/>
<path fill="#000000" d="
  M 375.91 154.18
  C 379.89 142.68 372.13 124.48 367.09 114.11
  Q 351.14 81.25 328.11 53.14
  A 0.87 0.87 47.7 0 1 328.16 51.99
  C 333.68 46.25 360.41 20.45 368.40 28.60
  C 402.24 63.13 405.59 115.50 376.96 154.32
  A 1.26 0.80 -66.5 0 1 376.24 154.81
  Q 375.67 154.88 375.91 154.18
  Z"
/>
<path fill="#000000" d="
  M 237.64 169.62
  C 227.68 161.31 240.21 141.50 245.47 133.92
  Q 268.07 101.33 299.51 76.21
  A 0.89 0.88 44.7 0 1 300.62 76.21
  Q 331.04 100.42 353.64 132.35
  C 358.86 139.72 369.96 157.62 364.99 166.51
  Q 363.92 168.43 360.60 171.13
  C 324.22 200.71 273.11 199.20 237.64 169.62
  Z"
/>
<path fill="#000000" d="
  M 232.94 300.00
  L 230.19 300.00
  C 180.34 298.82 181.74 211.76 235.01 216.18
  C 282.22 220.10 280.04 298.73 232.94 300.00
  Z
  M 255.06 238.19
  C 251.62 230.90 245.08 226.21 237.26 224.85
  C 196.09 217.66 191.86 285.58 226.80 291.22
  C 236.36 292.76 247.93 289.71 253.19 280.94
  Q 265.53 260.35 255.06 238.19
  Z"
/>
<path fill="#000000" d="
  M 384.69 300.00
  L 382.44 300.00
  C 366.39 298.96 355.09 289.97 355.91 272.94
  A 0.59 0.53 -88.3 0 1 356.44 272.38
  L 361.88 272.30
  A 1.39 1.29 87.7 0 1 363.19 273.61
  Q 363.88 286.07 372.59 291.09
  C 386.16 298.91 407.41 289.91 403.66 271.77
  C 401.19 259.81 390.06 257.88 379.65 258.54
  A 1.22 1.22 -83.3 0 1 378.41 256.97
  Q 378.79 255.73 378.30 253.90
  A 1.39 1.39 -4.8 0 1 379.77 252.16
  C 391.82 253.31 403.23 248.01 400.56 233.69
  C 398.87 224.61 389.96 221.53 381.72 222.24
  C 371.03 223.17 364.93 230.80 365.19 241.65
  A 0.92 0.83 89.3 0 1 364.35 242.60
  L 358.30 242.54
  A 0.59 0.49 -88.9 0 1 357.82 241.94
  C 358.05 220.66 377.09 211.07 395.70 218.37
  Q 409.15 223.64 408.08 238.49
  Q 407.21 250.70 396.09 254.31
  Q 394.06 254.96 396.15 255.42
  C 414.77 259.52 415.90 283.01 402.94 293.69
  Q 395.75 299.61 384.69 300.00
  Z"
/>
<path fill="#000000" d="
  M 449.44 300.00
  L 446.44 300.00
  C 425.12 298.26 421.63 281.73 420.58 263.77
  C 419.32 242.35 425.59 210.72 455.50 216.50
  Q 471.93 219.67 473.89 236.69
  A 0.46 0.46 87.2 0 1 473.43 237.20
  L 467.74 237.25
  A 1.23 1.20 85.0 0 1 466.54 236.22
  C 464.47 223.78 450.87 218.31 440.59 224.39
  C 430.08 230.61 427.72 246.58 427.57 257.62
  Q 427.55 259.05 428.30 257.83
  C 436.78 244.00 453.34 241.22 465.99 250.27
  C 478.78 259.43 479.26 281.23 468.44 292.19
  Q 461.13 299.58 449.44 300.00
  Z
  M 429.69 267.94
  C 426.44 283.02 437.86 297.52 454.00 293.25
  C 474.84 287.73 473.24 253.21 452.00 251.50
  Q 433.55 250.02 429.69 267.94
  Z"
/>
<path fill="#000000" d="
  M 512.69 300.00
  L 510.19 300.00
  C 492.65 298.97 485.60 284.47 483.89 269.15
  C 481.89 251.30 483.43 218.63 507.43 216.18
  C 527.29 214.15 536.54 226.62 538.93 244.66
  C 541.55 264.48 540.49 298.76 512.69 300.00
  Z
  M 494.05 280.12
  C 496.06 286.72 501.84 293.25 509.00 293.75
  C 526.57 294.98 531.48 279.50 532.25 265.25
  C 533.09 249.74 532.90 218.43 508.02 222.54
  Q 497.26 224.32 493.75 235.75
  Q 487.11 257.32 494.05 280.12
  Z"
/>
<path fill="#000000" d="
  M 87.49 265.42
  L 65.23 297.76
  A 1.76 1.71 16.8 0 1 63.80 298.50
  L 54.93 298.50
  Q 53.86 298.50 54.47 297.62
  L 82.20 257.51
  A 1.08 1.07 -45.3 0 0 82.20 256.28
  L 55.98 218.40
  Q 55.53 217.76 56.32 217.76
  L 66.19 217.80
  A 0.95 0.92 73.0 0 1 66.97 218.23
  L 87.52 248.98
  A 0.86 0.85 -44.5 0 0 88.94 248.99
  L 110.15 218.34
  A 1.04 0.95 -71.7 0 1 110.94 217.90
  L 120.20 217.78
  Q 121.13 217.77 120.58 218.54
  L 93.59 256.32
  A 1.25 1.24 -45.3 0 0 93.59 257.77
  L 122.04 297.37
  Q 122.88 298.53 121.37 298.51
  L 112.31 298.40
  A 2.26 1.89 -13.8 0 1 110.55 297.54
  L 88.80 265.42
  A 0.79 0.79 -44.9 0 0 87.49 265.42
  Z"
/>
<path fill="#000000" d="
  M 175.60 254.90
  Q 174.41 255.58 175.69 256.05
  Q 185.51 259.65 187.76 269.25
  C 191.85 286.78 179.17 298.37 162.50 298.25
  Q 144.41 298.12 126.45 298.44
  A 0.70 0.69 89.6 0 1 125.75 297.74
  L 125.75 261.23
  A 0.74 0.74 -2.2 0 0 124.95 260.49
  Q 117.50 261.02 110.25 260.53
  Q 109.70 260.50 109.99 260.06
  L 114.85 252.92
  A 1.66 1.47 15.4 0 1 116.19 252.26
  L 125.16 252.33
  A 0.58 0.57 0.5 0 0 125.75 251.76
  L 125.75 218.42
  A 0.67 0.67 -0.0 0 1 126.42 217.75
  Q 138.81 217.75 150.84 217.75
  C 163.75 217.75 183.82 217.38 185.46 235.23
  Q 186.69 248.57 175.60 254.90
  Z
  M 176.11 238.75
  C 175.87 232.04 170.46 226.71 164.00 226.50
  Q 150.75 226.07 136.11 226.27
  A 0.86 0.85 -0.7 0 0 135.26 227.13
  L 135.31 251.68
  A 0.51 0.51 0.0 0 0 135.82 252.19
  Q 147.28 252.30 158.75 252.44
  C 167.42 252.54 176.48 248.99 176.11 238.75
  Z
  M 178.65 271.80
  C 177.36 263.77 169.18 260.78 162.00 260.77
  Q 148.97 260.76 135.93 260.69
  A 0.50 0.50 0.0 0 0 135.43 261.19
  L 135.26 289.13
  A 0.86 0.85 0.3 0 0 136.11 289.98
  Q 147.72 290.12 158.51 289.91
  C 170.68 289.67 181.03 286.69 178.65 271.80
  Z"
/>
<path fill="#000000" d="
  M 302.47 265.16
  L 280.00 297.63
  A 1.49 1.45 -72.7 0 1 278.84 298.26
  L 269.62 298.50
  Q 268.35 298.54 269.08 297.48
  L 296.87 257.36
  A 0.98 0.95 45.8 0 0 296.87 256.26
  L 270.67 218.54
  Q 270.13 217.77 271.05 217.78
  L 280.82 217.91
  A 0.98 0.90 71.9 0 1 281.60 218.35
  L 302.32 249.20
  A 0.65 0.64 45.3 0 0 303.38 249.21
  L 324.85 218.20
  A 1.09 1.07 17.4 0 1 325.73 217.75
  L 334.84 217.75
  Q 335.89 217.75 335.28 218.61
  L 308.35 256.22
  A 1.57 1.56 45.2 0 0 308.35 258.05
  L 336.61 297.30
  Q 337.65 298.76 335.87 298.52
  Q 331.25 297.90 327.00 298.47
  A 1.79 1.73 68.7 0 1 325.32 297.70
  L 303.04 265.16
  A 0.35 0.34 44.7 0 0 302.47 265.16
  Z"
/>
<path fill="#000000" d="
  M 543.64 295.22
  C 546.27 289.52 547.33 299.59 544.50 297.75
  A 2.01 1.82 -42.2 0 0 542.50 297.75
  C 538.08 300.30 542.18 293.25 539.60 294.48
  C 538.50 295.01 538.35 296.44 538.44 297.51
  A 0.70 0.57 80.3 0 1 538.05 298.20
  Q 537.09 298.51 536.83 297.49
  Q 536.76 297.23 536.93 296.52
  Q 537.17 295.47 535.95 294.66
  Q 534.41 293.63 536.22 293.65
  L 541.75 293.71
  A 0.78 0.62 78.5 0 1 542.38 294.24
  Q 542.61 294.88 543.06 295.35
  A 0.37 0.35 -55.9 0 0 543.64 295.22
  Z"
/>
</svg>
