<?xml version="1.0" encoding="UTF-8" standalone="no"?>
<!DOCTYPE svg PUBLIC "-//W3C//DTD SVG 1.1//EN" "http://www.w3.org/Graphics/SVG/1.1/DTD/svg11.dtd">
<svg xmlns="http://www.w3.org/2000/svg" version="1.1" viewBox="0 0 600 300">
<path fill="#000000" d="
  M 99.50 24.28
  Q 99.18 25.36 98.31 26.81
  Q 81.07 55.57 63.90 84.16
  A 1.23 1.20 15.0 0 1 62.85 84.75
  L 39.95 84.82
  Q 38.91 84.82 39.44 83.93
  L 75.25 24.41
  A 0.60 0.60 17.2 0 0 74.77 23.50
  C 68.97 23.16 61.71 21.47 58.35 27.20
  Q 41.88 55.33 25.08 84.04
  A 1.42 1.42 15.0 0 1 23.85 84.75
  L 0.99 84.75
  Q 0.05 84.75 0.53 83.95
  Q 23.20 45.99 45.56 9.06
  C 46.82 6.98 49.43 7.00 51.79 7.00
  Q 65.39 7.00 78.93 7.00
  A 0.78 0.74 0.4 0 1 79.71 7.75
  L 79.61 14.94
  A 1.09 0.60 -81.3 0 0 79.92 15.79
  C 80.40 16.10 83.99 9.86 84.57 9.05
  Q 86.05 7.00 88.56 7.00
  L 124.31 7.06
  A 0.69 0.69 -90.0 0 1 125.00 7.75
  L 124.82 84.06
  A 0.53 0.51 -89.4 0 1 124.31 84.58
  L 100.90 84.70
  A 0.61 0.59 -90.0 0 1 100.31 84.09
  L 100.43 24.49
  A 0.49 0.40 88.6 0 0 100.00 23.99
  L 99.78 24.01
  A 0.38 0.28 -79.8 0 0 99.50 24.28
  Z"
/>
<path fill="#000000" d="
  M 158.31 68.44
  L 214.43 68.50
  A 0.63 0.63 87.5 0 1 215.06 69.08
  Q 215.60 76.69 214.98 84.19
  A 0.55 0.54 2.2 0 1 214.43 84.69
  L 133.99 84.75
  A 0.68 0.68 0.0 0 1 133.31 84.07
  L 133.25 32.74
  Q 133.25 31.39 133.89 30.19
  Q 139.19 20.25 145.06 9.81
  Q 146.64 7.00 149.50 7.00
  Q 181.63 7.00 214.23 7.00
  A 0.97 0.94 0.0 0 1 215.20 7.94
  L 215.08 22.56
  A 0.52 0.51 0.0 0 1 214.56 23.07
  L 166.68 23.25
  Q 164.29 23.25 163.14 25.31
  Q 160.20 30.63 158.21 37.21
  A 0.37 0.37 -81.3 0 0 158.56 37.69
  L 214.47 37.75
  A 0.39 0.38 -76.6 0 1 214.81 38.31
  L 207.28 53.37
  A 1.59 1.53 -76.2 0 1 205.89 54.25
  L 158.50 54.25
  A 0.53 0.50 -0.0 0 0 157.97 54.75
  L 157.79 67.93
  A 0.52 0.51 0.0 0 0 158.31 68.44
  Z"
/>
<path fill="#000000" d="
  M 248.56 68.44
  L 287.99 68.50
  A 0.71 0.70 0.0 0 0 288.70 67.80
  L 288.71 55.49
  A 1.40 1.34 -0.2 0 0 287.30 54.15
  L 273.37 54.25
  A 0.63 0.63 -76.8 0 1 272.80 53.33
  L 280.22 38.62
  A 1.59 1.58 -76.5 0 1 281.63 37.75
  L 312.78 37.75
  A 0.53 0.52 89.4 0 1 313.30 38.27
  Q 313.80 59.47 313.30 80.39
  C 313.19 84.89 311.07 84.75 307.46 84.75
  Q 269.24 84.75 231.03 84.75
  C 224.79 84.75 223.29 85.14 223.24 78.43
  Q 223.08 56.13 223.46 33.83
  Q 223.50 31.49 224.55 29.42
  Q 229.74 19.21 235.83 8.76
  Q 236.70 7.27 238.44 7.24
  Q 273.16 6.68 308.56 7.18
  A 0.53 0.51 0.6 0 1 309.08 7.69
  L 309.24 22.74
  A 0.52 0.50 -0.5 0 1 308.72 23.25
  L 256.57 23.25
  Q 254.21 23.25 253.17 25.36
  C 250.77 30.18 247.84 35.96 247.75 41.59
  Q 247.54 54.77 248.04 67.94
  A 0.52 0.52 88.9 0 0 248.56 68.44
  Z"
/>
<path fill="#000000" d="
  M 347.00 55.15
  Q 346.25 53.78 346.24 55.35
  L 346.07 84.07
  A 0.51 0.51 89.6 0 1 345.56 84.58
  L 322.09 84.69
  A 0.60 0.58 89.5 0 1 321.50 84.09
  L 321.56 7.70
  A 0.71 0.70 0.0 0 1 322.27 7.00
  Q 344.63 7.00 366.00 7.08
  C 371.47 7.09 372.59 9.77 375.84 14.54
  Q 399.34 48.98 423.45 83.90
  Q 424.04 84.75 423.00 84.75
  L 395.94 84.75
  A 1.07 1.04 -16.8 0 1 395.07 84.30
  L 384.53 69.16
  A 1.54 1.51 72.2 0 0 383.28 68.50
  L 355.37 68.50
  A 1.61 1.59 75.4 0 1 353.97 67.67
  L 347.00 55.15
  Z
  M 371.57 52.06
  Q 372.63 52.07 372.04 51.19
  Q 364.79 40.41 357.09 29.53
  C 354.11 25.33 353.74 23.15 347.37 23.27
  A 1.14 1.14 -0.5 0 0 346.25 24.41
  L 346.25 51.34
  A 0.67 0.66 0.0 0 0 346.92 52.00
  L 371.57 52.06
  Z"
/>
<path fill="#000000" d="
  M 600.00 70.06
  L 600.00 72.56
  C 597.25 105.42 570.48 134.67 548.18 156.95
  Q 547.56 157.57 547.57 156.69
  Q 547.86 126.35 547.78 95.82
  Q 547.75 82.02 546.09 77.37
  C 541.42 64.22 530.04 63.97 516.68 64.06
  Q 495.39 64.22 473.63 64.32
  Q 472.23 64.32 473.40 63.55
  C 494.05 49.79 517.79 35.70 542.65 32.62
  C 569.78 29.25 598.36 37.47 600.00 70.06
  Z"
/>
<path fill="#000000" d="
  M 473.31 167.19
  L 536.49 166.75
  Q 537.83 166.74 536.83 167.62
  C 498.88 201.03 441.18 233.53 388.54 219.26
  Q 387.59 219.00 388.30 218.32
  Q 425.42 182.92 462.31 147.31
  Q 463.50 146.17 462.54 144.66
  A 0.48 0.47 -34.3 0 0 461.85 144.54
  Q 423.23 172.89 384.80 201.50
  Q 384.28 201.89 384.85 201.35
  Q 422.80 165.13 460.73 128.88
  C 462.15 127.53 462.86 127.23 462.73 124.91
  Q 462.69 124.16 462.07 124.59
  Q 424.87 150.82 388.11 177.37
  Q 387.76 177.62 387.74 177.25
  A 0.60 0.43 -29.0 0 1 387.94 176.82
  Q 423.91 143.25 459.76 109.58
  C 461.65 107.80 463.05 107.02 462.59 103.99
  A 0.32 0.31 -21.4 0 0 462.09 103.78
  Q 433.39 123.68 390.25 154.25
  Q 390.05 154.39 389.92 154.27
  A 0.30 0.22 -43.3 0 1 389.99 153.90
  L 461.47 86.39
  A 3.04 3.02 75.8 0 0 462.31 84.97
  C 463.36 80.99 461.80 82.82 460.52 83.67
  Q 428.32 105.03 413.81 115.06
  C 412.50 115.97 412.56 115.13 413.15 114.44
  C 429.39 95.48 450.68 78.82 471.57 64.81
  Q 472.00 64.52 472.00 65.03
  L 472.81 166.69
  A 0.50 0.50 0.0 0 0 473.31 167.19
  Z"
/>
<path fill="#000000" d="
  M 521.11 143.74
  Q 520.07 145.50 518.02 145.50
  Q 509.50 145.50 501.00 145.64
  Q 495.04 145.74 495.03 139.75
  Q 494.95 113.50 494.75 87.57
  A 0.79 0.79 -1.1 0 1 495.51 86.78
  Q 506.50 86.37 516.75 86.50
  C 520.61 86.55 521.98 89.38 522.04 93.00
  Q 522.42 114.69 522.26 136.39
  C 522.24 139.19 522.59 141.22 521.11 143.74
  Z"
/>
<path fill="#000000" d="
  M 338.21 175.90
  Q 377.07 148.18 415.70 120.15
  C 416.11 119.85 416.03 120.35 415.84 120.53
  Q 377.06 157.30 338.42 194.22
  A 1.82 1.55 -19.3 0 0 337.94 195.04
  C 337.09 198.75 339.67 196.23 340.54 195.63
  Q 378.31 169.36 416.00 142.97
  C 416.74 142.45 416.47 143.17 416.20 143.42
  Q 378.11 178.11 340.20 213.00
  C 338.27 214.78 337.34 215.26 337.52 217.71
  Q 337.57 218.49 338.22 218.05
  C 344.70 213.59 412.97 166.38 413.08 166.48
  A 0.30 0.22 -43.3 0 1 413.01 166.85
  Q 375.83 200.89 338.70 234.97
  C 337.79 235.81 337.43 236.95 337.48 238.08
  Q 337.54 239.38 338.60 238.64
  C 343.15 235.47 388.76 203.52 388.96 203.74
  A 0.69 0.52 -45.7 0 1 388.85 204.56
  Q 362.31 233.93 329.00 257.13
  Q 328.31 257.61 328.31 256.77
  L 328.19 221.31
  A 0.51 0.50 90.0 0 0 327.69 220.80
  L 303.95 220.92
  A 0.54 0.52 0.5 0 0 303.41 221.43
  L 303.27 235.16
  A 0.81 0.78 89.6 0 1 302.51 235.96
  Q 292.00 236.34 282.50 236.24
  C 277.94 236.19 277.02 233.52 276.98 229.38
  Q 276.79 209.27 276.75 189.16
  C 276.74 179.42 276.54 178.27 286.45 178.24
  Q 294.57 178.22 302.69 178.31
  A 0.56 0.55 87.1 0 1 303.24 178.81
  Q 303.86 185.31 303.31 191.83
  A 0.80 0.79 -87.7 0 0 304.10 192.69
  L 327.65 192.49
  A 0.61 0.61 -0.5 0 0 328.25 191.88
  L 328.25 158.01
  A 0.58 0.58 0.0 0 0 327.67 157.43
  L 261.00 157.50
  Q 259.62 157.50 260.60 156.53
  C 293.59 123.73 361.29 76.98 409.45 102.32
  A 0.80 0.80 36.6 0 1 409.64 103.60
  Q 373.98 138.48 338.00 173.75
  Q 337.22 174.51 337.62 175.72
  A 0.39 0.38 -27.2 0 0 338.21 175.90
  Z"
/>
<path fill="#000000" d="
  M 255.81 255.19
  C 260.38 258.60 265.91 258.49 272.86 258.52
  Q 299.87 258.61 326.51 258.32
  Q 327.59 258.30 326.70 258.93
  C 300.57 277.28 266.30 296.44 233.00 291.00
  C 211.78 287.53 203.89 272.21 205.98 252.00
  C 209.27 220.13 226.97 190.74 248.57 167.80
  Q 249.18 167.15 249.19 168.04
  Q 249.30 204.28 249.27 240.75
  Q 249.26 250.30 255.81 255.19
  Z"
/>
</svg>
