<?xml version="1.0" encoding="UTF-8" standalone="no"?>
<!DOCTYPE svg PUBLIC "-//W3C//DTD SVG 1.1//EN" "http://www.w3.org/Graphics/SVG/1.1/DTD/svg11.dtd">
<svg xmlns="http://www.w3.org/2000/svg" version="1.1" viewBox="0 0 600 300">
<path fill="#ffffff" d="
  M 109.69 99.06
  C 123.28 104.66 129.76 115.09 131.09 129.42
  C 131.89 138.07 130.65 149.32 124.55 155.35
  C 118.40 161.44 108.73 160.76 101.21 156.95
  A 0.86 0.86 -76.3 0 1 100.75 156.19
  Q 100.75 135.25 100.70 114.50
  Q 100.69 108.01 94.99 106.08
  Q 92.80 105.34 91.57 107.30
  Q 89.93 109.91 89.94 113.00
  Q 90.00 163.13 90.00 213.25
  A 0.54 0.54 9.1 0 1 89.29 213.76
  L 63.22 205.40
  A 0.68 0.67 8.9 0 1 62.75 204.76
  L 62.81 85.56
  A 0.41 0.41 5.8 0 1 63.30 85.16
  Q 87.99 90.12 109.69 99.06
  Z"
/>
<path fill="#ffffff" d="
  M 314.41 148.79
  C 330.06 148.61 329.05 123.01 314.50 123.01
  Q 270.37 123.00 225.78 123.00
  A 0.90 0.90 -4.1 0 1 224.89 122.23
  Q 224.41 118.90 224.98 115.31
  A 0.59 0.57 -85.3 0 1 225.55 114.81
  Q 271.11 114.71 316.67 114.74
  Q 326.10 114.75 330.13 116.25
  Q 340.79 120.21 342.46 133.25
  C 344.50 149.11 333.06 158.72 317.99 157.57
  C 315.27 157.36 312.34 157.76 310.00 157.71
  Q 282.09 157.19 254.19 157.69
  C 247.54 157.80 242.55 161.30 242.25 168.25
  Q 241.69 181.09 242.19 193.95
  A 0.77 0.77 88.9 0 1 241.42 194.75
  L 225.49 194.75
  A 0.67 0.67 -89.2 0 1 224.82 194.06
  Q 225.10 181.72 225.00 169.25
  C 224.91 158.28 233.62 148.83 245.25 148.92
  Q 279.83 149.18 314.41 148.79
  Z"
/>
<path fill="#ffffff" d="
  M 384.82 186.25
  C 393.71 186.25 399.62 184.30 399.80 174.04
  Q 400.00 162.08 400.00 136.75
  Q 400.00 120.81 412.84 116.25
  Q 417.08 114.75 426.35 114.72
  Q 450.59 114.65 474.82 114.93
  A 0.55 0.52 0.0 0 1 475.36 115.44
  L 475.46 122.42
  A 0.62 0.58 -0.0 0 1 474.84 123.00
  Q 456.14 123.00 438.04 123.00
  C 426.17 123.00 417.04 121.95 417.25 136.50
  Q 417.46 151.18 417.12 170.31
  Q 416.98 178.08 415.47 181.98
  C 410.87 193.88 401.00 194.75 388.55 194.75
  Q 364.14 194.75 339.66 194.75
  A 0.66 0.66 0.2 0 1 339.00 194.09
  L 339.00 186.92
  A 0.67 0.67 -0.2 0 1 339.67 186.25
  Q 362.28 186.25 384.82 186.25
  Z"
/>
<path fill="#ffffff" d="
  M 599.79 178.00
  L 599.50 186.21
  L 583.41 186.25
  A 0.66 0.65 0.0 0 0 582.75 186.90
  L 582.75 193.69
  A 1.04 1.01 -89.7 0 1 581.73 194.73
  L 566.19 194.58
  A 0.55 0.54 -0.5 0 1 565.64 194.05
  L 565.52 187.30
  A 1.07 1.01 89.4 0 0 564.51 186.25
  Q 520.84 186.25 477.42 186.25
  C 474.19 186.25 472.01 186.39 469.18 184.55
  Q 466.96 183.11 468.10 180.73
  Q 469.35 178.14 471.87 176.57
  Q 519.18 147.24 566.77 118.36
  C 571.71 115.37 578.93 111.40 581.67 118.53
  Q 582.49 120.65 582.54 125.56
  Q 582.80 151.31 582.93 177.06
  A 0.51 0.51 89.4 0 0 583.44 177.56
  C 589.13 177.50 598.94 177.10 599.79 178.00
  Z
  M 564.99 177.57
  A 0.45 0.45 -0.0 0 0 565.44 177.12
  L 565.50 130.82
  Q 565.50 129.22 564.14 130.06
  L 489.67 175.95
  Q 486.86 177.68 490.17 177.68
  L 564.99 177.57
  Z"
/>
<path fill="#ffffff" d="
  M -0.04 184.97
  L 0.00 183.44
  C 1.87 177.07 15.24 172.41 21.02 170.44
  Q 38.80 164.39 56.70 157.84
  A 0.55 0.53 80.5 0 1 57.42 158.37
  L 57.27 172.90
  A 1.07 1.02 81.6 0 1 56.57 173.89
  Q 41.97 178.76 27.94 184.27
  C 25.36 185.28 22.83 187.94 27.79 189.08
  C 38.59 191.55 46.93 187.28 56.74 183.66
  A 0.37 0.35 -9.8 0 1 57.23 183.99
  L 57.09 197.06
  A 0.62 0.61 -4.6 0 1 56.58 197.65
  Q 36.16 201.43 16.45 195.81
  C 8.37 193.51 3.05 192.19 -0.04 184.97
  Z"
/>
<path fill="#ffffff" d="
  M 158.44 170.80
  C 164.84 173.22 171.08 178.25 164.69 185.19
  Q 162.43 187.63 155.36 190.23
  Q 125.74 201.09 95.81 211.90
  A 0.56 0.54 80.6 0 1 95.08 211.36
  L 95.23 197.03
  A 1.08 1.03 81.1 0 1 95.92 196.04
  Q 118.01 188.30 139.40 180.50
  C 144.03 178.81 144.79 175.76 139.03 174.80
  Q 131.95 173.63 126.25 175.50
  Q 111.32 180.41 96.00 186.02
  A 0.69 0.69 -9.6 0 1 95.07 185.36
  L 95.43 170.44
  A 0.72 0.70 81.3 0 1 95.90 169.78
  Q 127.35 158.99 158.44 170.80
  Z"
/>
</svg>
