<?xml version="1.0" encoding="UTF-8" standalone="no"?>
<!DOCTYPE svg PUBLIC "-//W3C//DTD SVG 1.1//EN" "http://www.w3.org/Graphics/SVG/1.1/DTD/svg11.dtd">
<svg xmlns="http://www.w3.org/2000/svg" version="1.1" viewBox="0 0 600 300">
<path fill="#ffffff" d="
  M 266.75 47.54
  L 263.00 47.54
  C 260.74 47.72 256.85 45.89 257.15 50.19
  C 257.58 56.57 257.32 63.26 257.44 69.69
  C 257.54 75.20 258.32 80.20 251.02 79.28
  Q 248.28 78.94 247.86 76.21
  Q 246.97 70.50 247.25 65.00
  C 247.42 61.78 246.95 56.06 247.78 49.90
  C 248.34 45.77 238.68 47.47 236.22 47.52
  Q 234.08 47.58 233.04 45.70
  Q 231.59 43.05 232.50 39.48
  Q 233.26 36.55 236.29 36.57
  Q 251.68 36.66 267.73 36.52
  C 271.07 36.49 272.64 37.02 273.00 40.50
  Q 273.76 47.91 266.75 47.54
  Z"
/>
<path fill="#ffffff" d="
  M 172.73 66.21
  A 2.34 2.31 -2.2 0 1 174.64 67.96
  C 176.38 75.22 170.36 79.60 163.50 78.75
  C 154.45 77.63 135.14 84.49 134.25 69.25
  Q 133.56 57.34 134.43 47.58
  C 135.67 33.84 147.49 36.63 157.03 36.70
  Q 166.77 36.76 166.95 36.80
  C 174.28 38.16 176.22 46.98 175.03 53.53
  C 173.76 60.48 168.43 62.86 161.75 62.25
  Q 155.42 61.67 145.76 62.46
  A 1.11 1.02 13.4 0 0 144.95 62.91
  Q 142.98 65.77 145.22 68.33
  A 1.11 1.03 -20.0 0 0 146.05 68.68
  L 163.50 68.26
  A 1.87 1.57 -58.1 0 0 164.42 67.96
  Q 168.04 65.51 172.73 66.21
  Z
  M 148.00 53.21
  Q 148.97 53.04 149.79 52.50
  Q 152.28 52.61 154.75 52.97
  C 157.40 53.35 159.12 52.59 161.75 52.52
  Q 166.50 52.40 164.43 48.49
  A 1.01 0.95 -9.0 0 0 163.69 47.99
  Q 155.54 46.82 147.38 47.75
  C 142.24 48.34 144.61 54.50 148.00 53.21
  Z"
/>
<path fill="#ffffff" d="
  M 192.80 49.62
  C 192.91 54.52 197.23 48.24 197.94 47.69
  Q 202.93 43.80 206.93 40.09
  C 210.62 36.68 212.93 35.98 217.75 36.50
  C 223.52 37.12 221.39 40.39 218.82 42.65
  Q 213.45 47.40 207.80 51.82
  Q 205.20 53.86 207.38 56.33
  Q 215.29 65.33 222.48 75.52
  Q 223.96 77.62 221.57 78.56
  C 211.09 82.67 207.23 71.97 202.69 65.38
  C 200.77 62.59 198.17 59.60 194.89 62.62
  C 189.33 67.73 198.06 80.57 186.20 78.84
  Q 183.34 78.42 183.00 74.50
  C 182.58 69.75 183.82 67.02 183.36 61.74
  C 182.86 55.85 183.59 50.15 183.09 44.31
  C 182.67 39.37 183.63 35.26 189.69 36.56
  C 194.22 37.54 192.72 46.29 192.80 49.62
  Z"
/>
<path fill="#ffffff" d="
  M 322.31 57.06
  C 321.86 63.48 324.61 75.15 316.33 78.55
  C 311.81 80.40 302.42 79.32 296.48 79.21
  C 295.19 79.18 294.16 78.59 292.95 78.34
  Q 290.90 77.92 291.25 79.98
  Q 292.32 86.42 286.00 86.63
  C 278.75 86.87 281.18 79.86 281.07 75.60
  C 280.81 65.45 281.41 55.40 280.92 45.20
  C 280.57 37.77 283.39 35.17 291.04 37.67
  Q 292.60 38.18 294.09 37.49
  C 294.82 37.16 296.37 36.75 297.34 36.73
  Q 309.98 36.39 312.50 36.50
  C 323.37 36.96 322.84 49.50 322.31 57.06
  Z
  M 311.60 67.48
  C 312.83 63.39 312.29 59.00 311.95 54.83
  C 311.42 48.43 314.01 47.37 305.74 47.22
  Q 299.36 47.11 292.99 47.50
  A 1.93 1.93 -0.8 0 0 291.18 49.36
  Q 290.96 56.85 290.99 64.49
  C 291.00 67.48 291.86 69.72 295.26 69.36
  Q 302.36 68.59 309.84 68.76
  A 1.80 1.79 8.9 0 0 311.60 67.48
  Z"
/>
<path fill="#ffffff" d="
  M 330.06 46.81
  C 329.90 41.59 334.46 37.49 339.75 36.75
  Q 343.42 36.24 360.03 36.66
  C 366.54 36.82 370.71 39.73 371.07 46.50
  Q 371.64 57.24 371.00 67.96
  C 370.52 75.95 366.11 79.59 358.19 79.10
  C 350.25 78.60 330.97 83.03 330.70 70.82
  Q 330.43 58.82 330.06 46.81
  Z
  M 340.00 50.19
  C 340.03 53.97 338.84 65.04 340.89 68.15
  A 0.95 0.94 -16.6 0 0 341.68 68.57
  L 359.19 68.49
  Q 361.27 68.48 361.26 66.47
  L 361.24 51.39
  Q 361.24 48.32 358.02 47.96
  Q 350.23 47.09 342.30 47.69
  Q 339.98 47.87 340.00 50.19
  Z"
/>
<path fill="#ffffff" d="
  M 67.62 64.74
  A 1.70 1.70 77.9 0 0 66.03 63.71
  Q 60.21 63.85 55.41 63.62
  C 49.63 63.35 49.57 60.98 50.27 56.10
  Q 50.74 52.82 55.00 53.50
  Q 60.91 54.44 67.20 53.05
  A 1.16 1.01 4.7 0 0 67.94 52.50
  Q 69.01 50.41 67.37 48.82
  A 1.38 1.11 -19.0 0 0 66.49 48.50
  C 62.05 48.50 55.84 49.34 51.83 47.32
  A 1.25 1.23 42.2 0 0 50.61 47.37
  C 46.83 49.70 42.32 52.39 38.24 49.72
  Q 36.20 48.38 36.75 46.01
  C 39.26 35.09 50.37 36.52 58.79 37.02
  Q 60.59 37.13 64.68 36.80
  C 74.04 36.06 79.03 44.43 78.33 52.87
  C 77.86 58.56 77.91 62.33 77.81 67.81
  C 77.59 80.04 70.48 79.16 60.22 79.48
  C 55.23 79.64 45.29 80.94 41.05 78.21
  C 37.03 75.62 32.77 66.14 41.76 66.43
  C 45.65 66.56 47.82 68.41 51.55 68.50
  Q 58.27 68.67 65.00 68.41
  Q 69.11 68.25 67.62 64.74
  Z"
/>
<path fill="#ffffff" d="
  M 101.04 49.57
  Q 100.60 58.87 100.70 68.19
  Q 100.74 72.36 99.53 74.56
  Q 96.48 80.09 88.99 79.50
  Q 86.54 79.31 85.74 76.98
  Q 83.92 71.64 89.74 68.10
  A 2.12 2.10 75.4 0 0 90.75 66.37
  C 91.02 58.13 89.78 47.82 90.75 40.75
  Q 91.37 36.24 96.50 37.25
  Q 99.62 37.86 105.58 36.97
  C 107.31 36.72 108.67 37.33 110.36 37.05
  C 113.58 36.50 117.09 36.73 120.36 36.74
  C 126.08 36.75 126.30 39.09 126.24 43.92
  Q 126.08 57.31 126.50 74.75
  C 126.64 80.75 115.66 82.05 115.88 72.75
  Q 116.15 61.03 116.42 49.85
  A 1.24 1.24 -87.1 0 0 115.28 48.58
  Q 107.90 48.00 101.55 48.99
  A 0.61 0.59 87.2 0 0 101.04 49.57
  Z"
/>
<path fill="#ffffff" d="
  M 408.72 64.37
  C 403.95 62.59 397.16 63.69 392.02 63.43
  C 383.67 63.01 394.85 80.83 382.50 79.25
  C 379.12 78.82 378.55 76.80 378.58 73.62
  Q 378.76 57.40 378.69 41.19
  C 378.67 35.92 388.69 34.21 388.60 40.94
  C 388.56 44.09 388.81 47.65 388.44 50.19
  C 387.92 53.78 390.26 53.41 392.90 53.19
  Q 399.48 52.65 406.39 53.55
  Q 409.65 53.98 409.45 50.70
  C 409.13 45.37 407.07 35.40 416.59 36.80
  Q 419.22 37.19 419.27 39.84
  Q 419.57 56.25 419.73 73.42
  C 419.77 77.23 418.68 79.09 414.75 79.25
  C 407.21 79.57 409.59 70.94 409.22 65.06
  A 0.79 0.78 -81.4 0 0 408.72 64.37
  Z"
/>
<path fill="#ffffff" d="
  M 486.38 51.50
  Q 492.70 47.68 498.12 42.12
  Q 501.24 38.93 505.29 37.28
  C 507.52 36.38 517.66 37.58 512.82 42.32
  C 508.77 46.29 503.23 49.63 499.89 54.12
  Q 498.80 55.59 500.05 56.93
  C 505.49 62.72 509.60 69.43 514.94 75.32
  A 2.18 2.18 41.3 0 1 515.12 78.04
  C 511.40 83.35 503.45 79.33 501.19 74.56
  C 500.10 72.27 496.56 68.19 493.92 63.78
  Q 492.10 60.75 488.66 63.20
  Q 485.21 65.65 485.90 69.98
  C 486.39 73.08 485.73 79.36 481.52 79.60
  C 474.58 80.00 475.58 75.30 475.84 69.25
  Q 476.34 57.85 475.69 46.47
  Q 475.43 41.94 475.90 40.56
  C 477.27 36.53 485.71 35.80 485.54 41.74
  Q 485.41 46.37 485.50 51.01
  A 0.58 0.58 73.9 0 0 486.38 51.50
  Z"
/>
<path fill="#ffffff" d="
  M 456.55 55.56
  C 451.84 59.94 448.18 65.33 443.82 70.15
  C 440.30 74.05 436.06 81.53 429.64 79.23
  Q 427.42 78.43 427.48 76.06
  Q 427.91 59.18 427.55 43.01
  C 427.43 37.72 429.03 37.23 433.75 37.01
  Q 437.07 36.85 437.13 41.00
  Q 437.25 51.00 437.25 61.00
  Q 437.25 62.85 438.44 61.69
  C 445.14 55.13 450.83 47.27 457.07 40.25
  C 460.09 36.85 461.60 36.80 465.92 37.54
  Q 467.87 37.87 468.10 39.84
  Q 468.50 43.24 468.07 47.51
  C 467.40 54.18 469.97 74.64 467.19 77.84
  C 464.66 80.74 457.99 80.69 458.31 75.25
  Q 458.86 65.75 458.25 56.23
  Q 458.11 54.10 456.55 55.56
  Z"
/>
<path fill="#ffffff" d="
  M 553.22 49.39
  C 548.98 47.90 535.93 48.05 532.04 49.72
  C 518.54 55.53 522.46 36.43 536.25 37.50
  C 549.33 38.52 564.42 32.13 564.28 52.23
  Q 564.21 61.89 564.37 71.54
  C 564.49 78.96 562.73 82.31 554.58 79.90
  Q 552.46 79.28 550.47 80.22
  C 549.11 80.86 538.17 80.37 535.77 80.41
  Q 530.64 80.50 528.45 79.24
  C 521.95 75.50 522.52 62.78 526.81 57.56
  C 529.22 54.64 532.95 54.63 536.77 54.80
  Q 544.19 55.12 552.48 55.27
  A 1.99 1.96 7.1 0 0 554.43 53.77
  Q 554.84 52.11 553.90 50.02
  A 1.17 1.15 -1.6 0 0 553.22 49.39
  Z
  M 534.39 67.66
  C 534.05 70.68 550.04 69.77 552.19 69.70
  A 1.57 1.32 21.1 0 0 553.09 69.39
  C 559.67 64.24 536.45 66.22 535.87 66.26
  A 1.57 1.57 1.5 0 0 534.39 67.66
  Z"
/>
<rect fill="#ffffff" x="0.35" y="128.80" width="599.28" height="10.74" rx="2.18"/>
<path fill="#ffffff" d="
  M 521.71 216.60
  Q 521.01 213.97 519.04 215.85
  C 514.35 220.35 514.60 215.90 514.19 212.98
  C 512.78 202.89 513.83 201.55 521.57 195.61
  A 4.12 4.11 23.9 0 1 523.71 194.79
  C 527.39 194.50 530.97 194.44 534.47 194.10
  Q 538.74 193.69 538.68 198.50
  C 538.62 203.21 538.50 207.82 538.71 212.53
  C 538.79 214.58 538.31 216.73 538.31 218.58
  Q 538.35 237.29 538.26 256.00
  C 538.24 260.89 536.40 261.48 532.04 261.50
  C 527.77 261.52 521.77 263.40 521.65 257.21
  Q 521.30 238.94 522.00 220.69
  Q 522.10 218.08 521.71 216.60
  Z"
/>
<path fill="#ffffff" d="
  M 415.00 261.75
  C 406.07 262.41 398.71 254.97 398.46 246.53
  Q 398.14 235.59 398.17 224.64
  C 398.22 210.42 396.85 200.48 410.29 195.28
  C 415.49 193.27 425.13 194.57 430.94 194.51
  C 440.83 194.39 448.86 194.79 453.75 194.50
  C 460.81 194.09 466.31 198.09 469.05 204.13
  Q 470.57 207.48 470.63 214.98
  Q 470.74 227.79 470.41 240.59
  Q 470.23 247.49 468.69 251.17
  C 463.74 263.02 454.09 262.09 441.51 261.84
  Q 419.51 261.42 415.00 261.75
  Z
  M 421.43 211.27
  C 411.75 210.08 414.96 216.78 414.66 222.33
  Q 414.19 231.02 414.44 239.72
  C 414.52 242.38 415.82 244.76 418.50 245.00
  C 426.81 245.75 436.81 245.24 448.00 245.63
  C 455.14 245.89 454.20 240.63 454.33 234.72
  Q 454.53 225.99 454.66 217.25
  C 454.73 213.28 452.54 211.16 448.43 211.36
  Q 438.09 211.86 427.75 211.21
  C 425.66 211.08 423.45 211.52 421.43 211.27
  Z"
/>
<path fill="#ffffff" d="
  M 488.46 260.35
  C 487.17 258.81 487.58 250.19 487.69 248.00
  Q 488.46 233.01 488.50 218.00
  Q 488.51 213.90 484.81 217.06
  C 479.13 221.92 480.62 207.87 480.44 206.56
  C 479.66 201.17 485.31 197.69 489.50 195.47
  C 493.00 193.61 497.82 195.10 500.75 194.50
  Q 504.74 193.68 504.75 198.00
  Q 504.85 227.63 504.46 257.25
  Q 504.41 260.90 501.00 261.75
  C 500.34 261.91 490.24 262.45 488.46 260.35
  Z"
/>
<path fill="#ffffff" d="
  M 329.25 262.25
  C 323.50 262.09 318.31 257.06 315.56 252.19
  C 314.23 249.81 314.00 242.69 314.09 238.89
  Q 314.37 226.70 314.25 214.50
  C 314.22 211.05 314.22 207.56 315.99 204.53
  C 319.44 198.62 324.93 194.81 331.94 194.82
  Q 350.85 194.83 369.75 194.49
  C 380.49 194.29 386.55 200.39 387.71 210.75
  Q 387.76 211.25 387.73 221.26
  Q 387.70 231.25 387.69 241.23
  Q 387.69 248.16 386.28 251.43
  C 383.39 258.15 376.01 262.64 368.61 262.39
  C 353.02 261.87 339.38 262.54 329.25 262.25
  Z
  M 332.00 213.84
  Q 330.90 216.18 330.97 219.32
  Q 331.20 229.41 331.15 239.50
  C 331.13 244.47 334.17 245.45 338.63 245.41
  Q 352.84 245.26 358.75 245.75
  Q 363.96 246.18 368.00 245.50
  C 371.51 244.91 371.37 242.78 371.55 239.97
  Q 372.31 228.61 371.65 217.25
  C 371.28 211.05 367.91 211.66 363.15 211.70
  Q 349.43 211.80 335.31 211.75
  Q 332.99 211.74 332.00 213.84
  Z"
/>
<path fill="#ffffff" d="
  M 116.50 220.00
  C 132.73 218.90 136.71 231.55 135.71 244.96
  C 134.93 255.45 127.63 262.69 116.75 262.50
  C 99.39 262.20 81.93 263.00 64.68 262.46
  Q 62.56 262.39 62.50 260.27
  Q 61.95 239.29 62.59 218.34
  Q 62.69 215.21 62.34 209.19
  C 62.08 204.71 60.21 194.74 67.56 194.73
  C 76.45 194.72 85.69 195.87 95.07 195.13
  Q 98.07 194.89 101.81 195.11
  C 106.55 195.38 111.63 194.76 115.93 194.89
  Q 121.17 195.04 123.31 194.81
  C 129.61 194.15 129.17 198.58 129.27 202.99
  C 129.39 208.75 129.63 211.74 123.04 211.67
  Q 104.07 211.46 83.70 210.96
  Q 81.69 210.91 79.87 211.74
  C 78.09 212.55 76.90 221.49 83.50 220.25
  C 88.59 219.30 92.56 220.63 97.37 220.21
  C 103.85 219.65 110.88 220.38 116.50 220.00
  Z
  M 116.20 236.70
  Q 111.32 235.84 105.00 236.25
  Q 101.58 236.47 83.50 236.00
  C 78.44 235.87 78.80 239.16 79.08 242.86
  C 79.33 246.16 82.33 245.77 85.26 245.76
  C 88.50 245.76 90.70 245.42 94.18 246.05
  C 97.33 246.62 100.39 245.73 103.27 245.93
  Q 112.12 246.53 116.50 245.50
  Q 120.20 244.63 119.33 239.82
  Q 118.85 237.17 116.20 236.70
  Z"
/>
<path fill="#ffffff" d="
  M 200.55 216.82
  Q 198.30 218.60 199.92 220.96
  Q 212.35 239.10 225.16 257.69
  C 229.68 264.24 216.01 262.68 212.40 262.54
  C 210.23 262.45 208.35 262.86 206.94 260.81
  Q 196.38 245.49 186.63 229.80
  A 1.50 1.50 58.7 0 0 184.58 229.30
  Q 178.57 232.91 173.40 237.58
  C 168.51 242.00 171.84 254.02 171.00 259.00
  C 170.16 264.02 161.85 262.54 158.05 262.60
  Q 153.56 262.68 153.75 257.25
  Q 154.08 247.96 154.37 238.68
  C 154.53 233.49 153.76 227.58 153.88 222.00
  C 154.00 216.66 153.48 211.22 153.82 205.75
  C 154.15 200.53 152.23 194.75 160.13 194.75
  Q 163.69 194.75 167.26 194.75
  Q 170.98 194.75 170.70 198.46
  Q 170.02 207.26 171.00 216.75
  Q 171.28 219.49 173.44 217.69
  Q 187.10 206.26 201.44 195.69
  C 203.61 194.09 207.56 194.99 209.52 194.90
  C 212.69 194.77 232.73 192.23 222.01 200.29
  Q 211.19 208.43 200.55 216.82
  Z"
/>
</svg>
