<?xml version="1.0" encoding="UTF-8" standalone="no"?>
<!DOCTYPE svg PUBLIC "-//W3C//DTD SVG 1.1//EN" "http://www.w3.org/Graphics/SVG/1.1/DTD/svg11.dtd">
<svg xmlns="http://www.w3.org/2000/svg" version="1.1" viewBox="0 0 600 300">
<path fill="#000000" d="
  M -0.02 115.00
  L 0.00 110.19
  C 1.42 95.08 13.46 85.24 28.57 86.16
  A 0.54 0.54 1.7 0 1 29.08 86.70
  L 29.08 114.56
  A 0.54 0.52 -1.1 0 1 28.56 115.08
  Q 14.28 115.57 -0.02 115.00
  Z
  M 21.42 93.44
  C 14.07 95.88 9.56 100.25 7.57 107.44
  A 0.64 0.63 -82.1 0 0 8.18 108.25
  L 21.16 108.25
  A 1.09 1.09 88.6 0 0 22.25 107.16
  L 22.25 94.04
  A 0.63 0.63 -9.0 0 0 21.42 93.44
  Z"
/>
<path fill="#000000" d="
  M 62.25 114.66
  A 0.60 0.60 0.0 0 1 61.65 115.26
  L 33.85 115.26
  A 0.60 0.60 0.0 0 1 33.25 114.66
  L 33.25 86.60
  A 0.60 0.60 0.0 0 1 33.85 86.00
  L 61.65 86.00
  A 0.60 0.60 0.0 0 1 62.25 86.60
  L 62.25 114.66
  Z
  M 55.2376 93.5869
  A 0.41 0.41 0.0 0 0 54.8268 93.1776
  L 40.6469 93.2024
  A 0.41 0.41 0.0 0 0 40.2376 93.6131
  L 40.2624 107.8531
  A 0.41 0.41 0.0 0 0 40.6732 108.2624
  L 54.8531 108.2376
  A 0.41 0.41 0.0 0 0 55.2624 107.8269
  L 55.2376 93.5869
  Z"
/>
<path fill="#000000" d="
  M 95.50 114.86
  A 0.39 0.39 0.0 0 1 95.11 115.25
  L 66.65 115.25
  A 0.39 0.39 0.0 0 1 66.26 114.86
  L 66.26 86.60
  A 0.39 0.39 0.0 0 1 66.65 86.21
  L 95.11 86.21
  A 0.39 0.39 0.0 0 1 95.50 86.60
  L 95.50 114.86
  Z
  M 88.4561 93.8835
  A 0.69 0.69 0.0 0 0 87.7637 93.1959
  L 73.9238 93.2442
  A 0.69 0.69 0.0 0 0 73.2362 93.9366
  L 73.2839 107.6165
  A 0.69 0.69 0.0 0 0 73.9763 108.3041
  L 87.8162 108.2558
  A 0.69 0.69 0.0 0 0 88.5038 107.5634
  L 88.4561 93.8835
  Z"
/>
<path fill="#000000" d="
  M 99.93 86.14
  C 116.79 84.64 129.26 97.60 128.47 114.42
  A 0.81 0.80 -88.5 0 1 127.67 115.19
  L 100.29 115.25
  A 1.03 1.01 0.0 0 1 99.26 114.24
  L 99.43 86.68
  A 0.54 0.54 -2.3 0 1 99.93 86.14
  Z
  M 120.97 107.18
  C 119.03 100.11 113.96 95.64 107.14 93.38
  A 0.47 0.46 9.0 0 0 106.52 93.82
  L 106.66 107.57
  A 0.53 0.53 35.7 0 0 107.18 108.09
  L 120.19 108.23
  A 0.83 0.81 82.4 0 0 120.97 107.18
  Z"
/>
<path fill="#000000" d="
  M 263.33 126.61
  C 271.60 134.15 273.93 147.11 270.83 157.77
  C 262.85 185.29 214.11 186.47 205.25 159.00
  C 201.71 148.02 203.86 134.00 212.90 126.12
  C 225.42 115.18 251.06 115.41 263.33 126.61
  Z
  M 261.7075 146.2734
  A 21.30 21.30 0.0 0 0 240.4820 124.8992
  L 235.3020 124.8811
  A 21.30 21.30 0.0 0 0 213.9278 146.1066
  L 213.9125 150.5066
  A 21.30 21.30 0.0 0 0 235.1380 171.8808
  L 240.3180 171.8989
  A 21.30 21.30 0.0 0 0 261.6922 150.6734
  L 261.7075 146.2734
  Z"
/>
<path fill="#000000" d="
  M -0.01 147.90
  L 0.00 119.31
  L 28.57 119.19
  A 0.51 0.51 89.6 0 1 29.08 119.70
  L 29.08 147.56
  A 0.54 0.52 -1.1 0 1 28.56 148.08
  Q 14.27 148.64 -0.01 147.90
  Z
  M 22.2641 126.8263
  A 0.62 0.62 0.0 0 0 21.6462 126.2041
  L 7.8663 126.1560
  A 0.62 0.62 0.0 0 0 7.2442 126.7738
  L 7.1959 140.5937
  A 0.62 0.62 0.0 0 0 7.8138 141.2159
  L 21.5937 141.2640
  A 0.62 0.62 0.0 0 0 22.2158 140.6462
  L 22.2641 126.8263
  Z"
/>
<path fill="#000000" d="
  M 62.25 147.87
  A 0.38 0.38 0.0 0 1 61.87 148.25
  L 33.63 148.25
  A 0.38 0.38 0.0 0 1 33.25 147.87
  L 33.25 119.59
  A 0.38 0.38 0.0 0 1 33.63 119.21
  L 61.87 119.21
  A 0.38 0.38 0.0 0 1 62.25 119.59
  L 62.25 147.87
  Z
  M 55.2624 126.6031
  A 0.40 0.40 0.0 0 0 54.8631 126.2024
  L 40.6632 126.1776
  A 0.40 0.40 0.0 0 0 40.2625 126.5769
  L 40.2376 140.8369
  A 0.40 0.40 0.0 0 0 40.6369 141.2376
  L 54.8368 141.2624
  A 0.40 0.40 0.0 0 0 55.2375 140.8631
  L 55.2624 126.6031
  Z"
/>
<path fill="#000000" d="
  M 95.50 147.69
  A 0.56 0.56 0.0 0 1 94.94 148.25
  L 66.82 148.25
  A 0.56 0.56 0.0 0 1 66.26 147.69
  L 66.26 119.77
  A 0.56 0.56 0.0 0 1 66.82 119.21
  L 94.94 119.21
  A 0.56 0.56 0.0 0 1 95.50 119.77
  L 95.50 147.69
  Z
  M 88.5019 126.9033
  A 0.72 0.72 0.0 0 0 87.7831 126.1821
  L 73.9832 126.1580
  A 0.72 0.72 0.0 0 0 73.2619 126.8767
  L 73.2381 140.5167
  A 0.72 0.72 0.0 0 0 73.9569 141.2379
  L 87.7568 141.2620
  A 0.72 0.72 0.0 0 0 88.4781 140.5433
  L 88.5019 126.9033
  Z"
/>
<path fill="#000000" d="
  M 128.04 119.19
  A 0.45 0.44 -2.0 0 1 128.49 119.60
  C 129.66 136.59 116.76 149.38 99.76 148.07
  A 0.55 0.55 2.2 0 1 99.25 147.52
  L 99.31 120.30
  A 1.06 1.05 -0.0 0 1 100.37 119.25
  L 128.04 119.19
  Z
  M 106.95 126.15
  A 0.39 0.37 -0.0 0 0 106.56 126.52
  L 106.50 140.37
  A 0.39 0.39 82.2 0 0 107.00 140.75
  Q 117.68 137.77 120.97 127.09
  A 0.80 0.77 8.3 0 0 120.19 126.09
  L 106.95 126.15
  Z"
/>
<path fill="#000000" d="
  M 174.58 126.31
  A 0.84 0.83 -0.3 0 0 173.75 127.14
  L 173.75 176.84
  A 0.66 0.66 0.0 0 1 173.09 177.50
  L 164.74 177.50
  A 0.68 0.67 -0.0 0 1 164.06 176.83
  L 164.00 126.93
  A 0.68 0.68 0.0 0 0 163.32 126.25
  L 138.42 126.25
  A 0.67 0.66 0.0 0 1 137.75 125.59
  L 137.80 119.95
  A 0.72 0.70 -0.0 0 1 138.52 119.25
  L 199.35 119.25
  A 0.88 0.81 0.6 0 1 200.23 120.08
  L 200.12 125.56
  A 0.57 0.52 0.5 0 1 199.55 126.07
  L 174.58 126.31
  Z"
/>
<path fill="#000000" d="
  M 305.66 119.97
  A 1.23 1.23 -77.7 0 1 306.78 119.25
  L 318.24 119.25
  A 1.08 1.08 77.6 0 1 319.22 119.88
  L 345.43 176.73
  A 0.51 0.49 77.3 0 1 344.99 177.45
  L 336.14 177.48
  A 1.31 1.27 77.4 0 1 334.95 176.70
  L 328.50 162.24
  A 1.69 1.68 77.7 0 0 326.97 161.25
  L 297.14 161.25
  A 1.17 1.13 11.6 0 0 296.08 161.92
  L 289.24 177.03
  A 0.82 0.77 -76.7 0 1 288.53 177.50
  L 279.79 177.50
  A 0.54 0.54 14.8 0 1 279.30 176.73
  L 305.66 119.97
  Z
  M 299.42 154.23
  A 0.37 0.37 12.6 0 0 299.76 154.75
  L 324.48 154.75
  A 0.37 0.37 -13.4 0 0 324.82 154.23
  L 312.46 126.71
  A 0.37 0.37 90.0 0 0 311.78 126.71
  L 299.42 154.23
  Z"
/>
<path fill="#000000" d="
  M 366.80 157.06
  L 366.75 176.82
  A 0.67 0.66 -89.6 0 1 366.08 177.49
  L 357.79 177.45
  A 0.79 0.78 -90.0 0 1 357.01 176.66
  L 357.18 119.94
  A 0.52 0.52 -1.1 0 1 357.68 119.42
  Q 364.60 119.15 380.00 119.50
  C 391.33 119.76 406.40 123.66 405.03 138.50
  C 403.45 155.69 380.68 156.34 368.27 155.68
  A 1.40 1.39 1.6 0 0 366.80 157.06
  Z
  M 394.40 139.89
  C 399.18 124.36 375.53 125.84 367.61 126.02
  A 0.88 0.88 -0.7 0 0 366.75 126.90
  L 366.75 148.23
  A 0.97 0.97 1.2 0 0 367.68 149.20
  C 376.55 149.60 391.06 150.71 394.40 139.89
  Z"
/>
<path fill="#000000" d="
  M 428.70 170.69
  L 463.82 170.69
  A 0.65 0.65 -7.5 0 1 464.45 171.17
  Q 465.19 174.04 464.56 176.94
  A 0.64 0.62 -83.6 0 1 463.95 177.44
  L 419.04 177.44
  A 0.79 0.78 -90.0 0 1 418.26 176.65
  L 418.43 119.94
  A 0.55 0.52 89.5 0 1 418.94 119.39
  L 426.96 119.31
  A 1.08 1.03 89.7 0 1 428.00 120.39
  L 428.00 169.98
  A 0.71 0.70 90.0 0 0 428.70 170.69
  Z"
/>
<path fill="#000000" d="
  M 492.44 120.14
  A 1.42 1.27 -75.7 0 1 493.67 119.32
  L 505.43 119.51
  A 0.85 0.77 77.3 0 1 506.14 120.01
  L 532.46 176.92
  A 0.41 0.40 77.3 0 1 532.10 177.50
  L 523.04 177.50
  A 1.36 1.33 77.6 0 1 521.82 176.70
  L 515.28 162.07
  A 1.36 1.35 77.9 0 0 514.04 161.26
  L 483.68 161.43
  A 0.78 0.76 11.5 0 0 482.97 161.89
  L 476.40 176.47
  A 1.74 1.68 -77.5 0 1 474.85 177.50
  L 466.98 177.50
  A 0.69 0.69 -77.4 0 1 466.36 176.52
  L 492.44 120.14
  Z
  M 486.23 154.27
  A 0.32 0.32 12.2 0 0 486.52 154.72
  L 511.49 154.77
  A 0.32 0.32 -12.0 0 0 511.78 154.32
  L 499.34 126.69
  A 0.32 0.32 45.1 0 0 498.76 126.69
  L 486.23 154.27
  Z"
/>
<path fill="#000000" d="
  M 600.00 119.79
  L 600.00 177.06
  Q 595.98 177.76 591.89 177.55
  C 589.31 177.43 588.44 178.27 586.75 175.75
  Q 570.06 150.93 553.43 126.05
  Q 552.81 125.12 552.81 126.24
  L 552.99 176.42
  A 1.02 1.01 89.4 0 1 551.99 177.45
  L 544.62 177.50
  A 0.88 0.86 89.7 0 1 543.75 176.62
  L 543.75 119.92
  A 0.67 0.67 -89.8 0 1 544.42 119.25
  L 558.16 119.25
  A 1.40 1.38 -16.6 0 1 559.32 119.87
  L 590.20 165.83
  Q 591.37 167.57 591.15 165.48
  C 589.66 151.13 590.75 135.25 590.75 120.26
  A 0.92 0.91 -3.2 0 1 591.57 119.35
  Q 596.33 118.84 600.00 119.79
  Z"
/>
<path fill="#000000" d="
  M -0.01 180.65
  L 0.00 152.19
  L 28.63 152.01
  A 0.61 0.61 -89.3 0 1 29.24 152.62
  L 29.07 180.31
  A 0.53 0.52 -1.1 0 1 28.56 180.83
  Q 14.27 181.39 -0.01 180.65
  Z
  M 22.2152 159.3738
  A 0.43 0.43 0.0 0 0 21.7837 158.9453
  L 7.6238 158.9948
  A 0.43 0.43 0.0 0 0 7.1953 159.4263
  L 7.2448 173.5862
  A 0.43 0.43 0.0 0 0 7.6763 174.0147
  L 21.8362 173.9652
  A 0.43 0.43 0.0 0 0 22.2647 173.5337
  L 22.2152 159.3738
  Z"
/>
<path fill="#000000" d="
  M 62.2748 180.6847
  A 0.31 0.31 0.0 0 1 61.9653 180.9952
  L 33.5853 181.0447
  A 0.31 0.31 0.0 0 1 33.2748 180.7353
  L 33.2252 152.3353
  A 0.31 0.31 0.0 0 1 33.5347 152.0248
  L 61.9147 151.9753
  A 0.31 0.31 0.0 0 1 62.2252 152.2847
  L 62.2748 180.6847
  Z
  M 55.25 159.44
  A 0.44 0.44 0.0 0 0 54.81 159.00
  L 40.69 159.00
  A 0.44 0.44 0.0 0 0 40.25 159.44
  L 40.25 173.66
  A 0.44 0.44 0.0 0 0 40.69 174.10
  L 54.81 174.10
  A 0.44 0.44 0.0 0 0 55.25 173.66
  L 55.25 159.44
  Z"
/>
<path fill="#000000" d="
  M 0.00 189.94
  L -0.01 185.17
  L 28.62 185.01
  A 0.61 0.61 -0.5 0 1 29.24 185.62
  L 29.07 213.31
  A 0.57 0.56 -2.8 0 1 28.56 213.87
  C 13.57 215.39 1.56 204.71 0.00 189.94
  Z
  M 7.59 192.69
  C 9.54 199.49 14.39 204.76 21.17 206.55
  A 0.84 0.82 7.3 0 0 22.22 205.76
  L 22.09 192.45
  A 0.53 0.52 -0.6 0 0 21.56 191.94
  L 8.06 192.06
  A 0.50 0.49 -8.5 0 0 7.59 192.69
  Z"
/>
<path fill="#000000" d="
  M 62.25 213.55
  A 0.44 0.44 0.0 0 1 61.81 213.99
  L 33.69 213.99
  A 0.44 0.44 0.0 0 1 33.25 213.55
  L 33.25 185.43
  A 0.44 0.44 0.0 0 1 33.69 184.99
  L 61.81 184.99
  A 0.44 0.44 0.0 0 1 62.25 185.43
  L 62.25 213.55
  Z
  M 55.2249 192.2938
  A 0.34 0.34 0.0 0 0 54.8837 191.9550
  L 40.5438 192.0051
  A 0.34 0.34 0.0 0 0 40.2050 192.3463
  L 40.2551 206.6862
  A 0.34 0.34 0.0 0 0 40.5963 207.0250
  L 54.9362 206.9749
  A 0.34 0.34 0.0 0 0 55.2750 206.6337
  L 55.2249 192.2938
  Z"
/>
<path fill="#000000" d="
  M 95.51 213.43
  A 0.57 0.57 0.0 0 1 94.94 214.00
  L 66.82 214.00
  A 0.57 0.57 0.0 0 1 66.25 213.43
  L 66.25 185.57
  A 0.57 0.57 0.0 0 1 66.82 185.00
  L 94.94 185.00
  A 0.57 0.57 0.0 0 1 95.51 185.57
  L 95.51 213.43
  Z
  M 88.4878 192.4867
  A 0.54 0.54 0.0 0 0 87.9469 191.9477
  L 73.7869 191.9724
  A 0.54 0.54 0.0 0 0 73.2478 192.5133
  L 73.2722 206.4733
  A 0.54 0.54 0.0 0 0 73.8131 207.0123
  L 87.9731 206.9876
  A 0.54 0.54 0.0 0 0 88.5122 206.4467
  L 88.4878 192.4867
  Z"
/>
<path fill="#000000" d="
  M 128.45 186.07
  C 129.15 202.63 116.62 215.43 100.13 213.85
  A 0.95 0.92 3.0 0 1 99.27 212.92
  L 99.43 185.69
  A 0.52 0.52 -0.6 0 1 99.94 185.17
  L 127.36 185.01
  A 1.11 1.09 88.6 0 1 128.45 186.07
  Z
  M 120.32 191.94
  L 107.07 192.06
  A 0.66 0.65 89.6 0 0 106.43 192.72
  L 106.49 205.74
  A 0.86 0.85 80.1 0 0 107.63 206.55
  Q 118.06 202.87 120.98 192.80
  A 0.68 0.67 7.7 0 0 120.32 191.94
  Z"
/>
</svg>
