<?xml version="1.0" encoding="UTF-8" standalone="no"?>
<!DOCTYPE svg PUBLIC "-//W3C//DTD SVG 1.1//EN" "http://www.w3.org/Graphics/SVG/1.1/DTD/svg11.dtd">
<svg xmlns="http://www.w3.org/2000/svg" version="1.1" viewBox="0 0 600 300">
<g stroke-width="2.00" fill="none" stroke-linecap="butt">
<path stroke="#000000" vector-effect="non-scaling-stroke" d="
  M 147.79 25.50
  L 147.75 25.96"
/>
<path stroke="#a2740d" stroke-opacity="0.941" vector-effect="non-scaling-stroke" d="
  M 278.50 212.54
  L 278.04 211.75"
/>
<path stroke="#b17f06" stroke-opacity="0.620" vector-effect="non-scaling-stroke" d="
  M 278.04 211.75
  Q 277.54 211.21 277.00 211.79"
/>
<path stroke="#a2740d" stroke-opacity="0.941" vector-effect="non-scaling-stroke" d="
  M 277.00 211.79
  L 276.29 211.75"
/>
<path stroke="#be8a12" stroke-opacity="0.980" vector-effect="non-scaling-stroke" d="
  M 238.25 196.46
  L 237.96 195.50"
/>
<path stroke="#a2740d" stroke-opacity="0.941" vector-effect="non-scaling-stroke" d="
  M 233.79 117.25
  Q 234.19 117.33 234.29 117.00"
/>
<path stroke="#be8a12" stroke-opacity="0.980" vector-effect="non-scaling-stroke" d="
  M 259.79 96.75
  Q 260.10 96.50 260.50 96.46"
/>
<path stroke="#be8a12" stroke-opacity="0.980" vector-effect="non-scaling-stroke" d="
  M 128.46 95.25
  Q 128.39 96.10 127.75 96.29"
/>
<path stroke="#ca9212" stroke-opacity="0.992" vector-effect="non-scaling-stroke" d="
  M 65.71 168.00
  L 65.75 167.29"
/>
<path stroke="#9f7307" stroke-opacity="0.757" vector-effect="non-scaling-stroke" d="
  M 44.25 88.96
  Q 45.48 88.98 46.25 88.04"
/>
<path stroke="#a2740d" stroke-opacity="0.941" vector-effect="non-scaling-stroke" d="
  M 355.50 86.79
  L 354.96 87.25"
/>
<path stroke="#a2740d" stroke-opacity="0.941" vector-effect="non-scaling-stroke" d="
  M 365.00 203.04
  Q 362.14 202.31 364.75 203.54"
/>
<path stroke="#be8a12" stroke-opacity="0.980" vector-effect="non-scaling-stroke" d="
  M 338.75 99.96
  Q 338.75 99.28 339.21 98.75"
/>
<path stroke="#ca9212" stroke-opacity="0.992" vector-effect="non-scaling-stroke" d="
  M 340.54 95.75
  Q 341.59 95.78 341.93 95.19"
/>
<path stroke="#b17f06" stroke-opacity="0.620" vector-effect="non-scaling-stroke" d="
  M 192.54 170.25
  Q 193.69 170.24 194.25 169.29"
/>
<path stroke="#be8a12" stroke-opacity="0.980" vector-effect="non-scaling-stroke" d="
  M 154.25 173.79
  L 154.75 173.71"
/>
<path stroke="#be8a12" stroke-opacity="0.980" vector-effect="non-scaling-stroke" d="
  M 535.75 153.79
  L 536.21 154.75"
/>
<path stroke="#a2740d" stroke-opacity="0.941" vector-effect="non-scaling-stroke" d="
  M 553.00 140.71
  Q 556.60 140.14 552.79 139.75"
/>
<path stroke="#be8a12" stroke-opacity="0.980" vector-effect="non-scaling-stroke" d="
  M 298.04 149.00
  Q 298.51 149.14 298.75 148.79"
/>
<path stroke="#b17f06" stroke-opacity="0.620" vector-effect="non-scaling-stroke" d="
  M 317.6367 133.7045
  A 0.86 0.54 125.0 0 0 318.5723 133.3097
  A 0.86 0.54 125.0 0 0 318.6233 132.2955
  A 0.86 0.54 125.0 0 0 317.6877 132.6903
  A 0.86 0.54 125.0 0 0 317.6367 133.7045"
/>
<path stroke="#a2740d" stroke-opacity="0.941" vector-effect="non-scaling-stroke" d="
  M 286.95 202.41
  C 286.24 204.70 290.14 199.77 287.36 201.84
  A 1.14 1.11 -9.9 0 0 286.95 202.41"
/>
<path stroke="#9f7307" stroke-opacity="0.757" vector-effect="non-scaling-stroke" d="
  M 130.58 87.02
  C 129.80 85.16 129.06 88.24 130.32 87.77
  A 0.58 0.51 67.8 0 0 130.58 87.02"
/>
<path stroke="#9f7307" stroke-opacity="0.757" vector-effect="non-scaling-stroke" d="
  M 339.29 110.26
  C 339.87 107.53 337.09 111.01 338.77 110.78
  A 0.68 0.61 -86.8 0 0 339.29 110.26"
/>
<path stroke="#b17f06" stroke-opacity="0.620" vector-effect="non-scaling-stroke" d="
  M 328.8141 139.6859
  A 0.97 0.48 135.0 0 0 329.8394 139.3394
  A 0.97 0.48 135.0 0 0 330.1859 138.3141
  A 0.97 0.48 135.0 0 0 329.1606 138.6606
  A 0.97 0.48 135.0 0 0 328.8141 139.6859"
/>
<path stroke="#b17f06" stroke-opacity="0.620" vector-effect="non-scaling-stroke" d="
  M 382.09 162.34
  Q 381.89 162.13 381.65 162.21
  A 0.59 0.45 68.8 0 0 381.43 162.96
  Q 381.94 164.17 382.23 163.10
  A 0.87 0.63 -64.6 0 0 382.09 162.34"
/>
<path stroke="#b17f06" stroke-opacity="0.620" vector-effect="non-scaling-stroke" d="
  M 380.34 165.82
  C 380.08 167.28 383.12 164.58 380.81 165.31
  A 0.71 0.64 -5.1 0 0 380.34 165.82"
/>
<path stroke="#a2740d" stroke-opacity="0.941" vector-effect="non-scaling-stroke" d="
  M 373.25 184.36
  C 373.04 185.73 376.69 182.52 373.59 183.94
  A 0.58 0.51 -9.7 0 0 373.25 184.36"
/>
<path stroke="#a2740d" stroke-opacity="0.941" vector-effect="non-scaling-stroke" d="
  M 207.43 196.42
  Q 207.66 199.25 207.41 196.20
  Q 207.30 194.79 207.43 196.42"
/>
<path stroke="#9f7307" stroke-opacity="0.757" vector-effect="non-scaling-stroke" d="
  M 228.94 196.59
  Q 228.75 196.81 228.79 197.06
  A 0.53 0.45 -15.5 0 0 229.48 197.38
  Q 230.13 197.13 229.66 196.62
  A 0.51 0.46 44.7 0 0 228.94 196.59"
/>
<path stroke="#9f7307" stroke-opacity="0.757" vector-effect="non-scaling-stroke" d="
  M 438.27 110.60
  Q 438.16 111.07 438.70 111.03
  A 0.87 0.83 -79.7 0 0 439.43 110.50
  Q 439.72 109.80 438.85 110.04
  A 0.86 0.73 -3.8 0 0 438.27 110.60"
/>
<path stroke="#9f7307" stroke-opacity="0.757" vector-effect="non-scaling-stroke" d="
  M 477.2064 114.3921
  A 0.64 0.51 15.6 0 0 476.7271 113.7288
  A 0.64 0.51 15.6 0 0 475.9736 114.0479
  A 0.64 0.51 15.6 0 0 476.4529 114.7112
  A 0.64 0.51 15.6 0 0 477.2064 114.3921"
/>
<path stroke="#b17f06" stroke-opacity="0.620" vector-effect="non-scaling-stroke" d="
  M 547.02 171.36
  Q 548.59 170.63 547.40 170.47
  A 1.09 0.92 24.4 0 0 546.56 170.71
  Q 546.31 170.93 546.32 171.15
  A 0.52 0.35 -17.7 0 0 547.02 171.36"
/>
<path stroke="#b17f06" stroke-opacity="0.620" vector-effect="non-scaling-stroke" d="
  M 518.67 197.89
  C 518.13 196.72 516.56 199.85 518.45 198.48
  A 0.55 0.42 -32.0 0 0 518.67 197.89"
/>
</g>
<path fill="#000000" d="
  M 359.15 40.23
  L 360.08 37.43
  A 1.01 0.61 -80.0 0 1 360.65 36.78
  Q 361.55 36.59 361.94 37.56
  Q 364.13 43.09 359.30 46.57
  Q 356.92 48.28 355.77 45.59
  Q 352.20 37.23 352.25 27.88
  Q 352.27 25.16 349.72 25.27
  L 339.80 25.71
  Q 337.86 25.80 337.77 24.03
  C 337.50 19.16 340.33 20.74 343.11 20.71
  Q 345.94 20.67 349.21 21.09
  Q 351.75 21.42 351.32 18.89
  Q 350.56 14.47 354.19 15.56
  Q 356.06 16.12 355.00 18.25
  Q 354.10 20.06 355.41 20.81
  A 1.42 1.42 21.1 0 0 357.49 19.89
  C 359.43 11.35 363.72 21.53 361.78 24.29
  A 2.71 2.71 -69.1 0 1 359.24 25.43
  Q 354.76 24.92 355.30 28.53
  C 355.98 33.16 356.85 40.63 358.43 40.72
  A 0.72 0.71 10.6 0 0 359.15 40.23
  Z"
/>
<path fill="#000000" d="
  M 46.41 22.99
  Q 47.02 21.51 46.62 19.29
  A 1.82 1.82 77.8 0 1 47.96 17.21
  Q 50.65 16.51 50.05 21.33
  Q 49.78 23.51 51.95 23.81
  C 56.72 24.49 54.22 20.09 54.72 17.85
  Q 55.55 14.20 58.94 17.11
  A 1.34 1.32 16.5 0 1 59.40 17.94
  Q 59.71 20.05 58.94 22.04
  A 1.63 1.19 -50.2 0 0 58.88 22.98
  C 59.21 24.09 59.94 24.66 60.02 25.83
  Q 60.27 29.18 57.71 28.38
  Q 55.98 27.84 54.16 27.92
  C 49.72 28.11 50.02 28.39 49.98 32.73
  Q 49.92 39.84 50.19 46.95
  A 1.46 1.46 -2.8 0 1 48.82 48.46
  Q 45.59 48.65 46.12 45.30
  C 46.91 40.20 46.89 35.09 46.71 29.56
  A 1.62 1.61 -4.4 0 0 44.89 28.01
  C 42.36 28.34 34.97 30.20 36.93 24.91
  A 2.48 2.27 9.7 0 1 39.23 23.43
  L 45.70 23.48
  A 0.81 0.76 -77.6 0 0 46.41 22.99
  Z"
/>
<path fill="#000000" d="
  M 389.73 22.16
  A 1.31 1.31 76.7 0 0 391.49 23.25
  Q 395.19 21.89 395.25 26.08
  Q 395.30 28.82 392.65 28.11
  Q 388.23 26.91 388.09 30.99
  Q 387.76 41.28 379.23 46.46
  A 1.61 1.48 -31.3 0 1 377.09 46.03
  L 375.36 43.16
  A 0.86 0.80 -26.4 0 1 375.80 41.99
  Q 383.56 38.78 384.61 29.48
  A 1.53 1.46 -86.5 0 0 383.17 27.77
  L 379.31 27.77
  A 2.83 2.53 -73.3 0 0 377.00 29.18
  L 374.31 33.81
  Q 372.91 36.24 371.44 33.81
  Q 369.78 31.08 371.66 28.96
  C 374.50 25.77 376.13 22.19 377.17 17.78
  Q 377.71 15.51 379.98 16.02
  C 384.89 17.11 376.30 24.79 382.59 23.29
  Q 384.32 22.87 386.07 23.18
  Q 387.87 23.49 388.53 22.46
  A 1.04 0.81 52.7 0 0 388.54 21.55
  C 387.46 19.19 386.03 16.66 390.71 17.56
  A 1.04 1.03 -65.5 0 0 391.72 17.18
  Q 393.03 15.51 394.23 16.98
  Q 395.34 18.33 394.64 19.94
  Q 393.66 22.18 391.56 20.21
  A 0.49 0.48 46.4 0 0 390.93 20.19
  Q 389.63 21.26 389.73 22.16
  Z"
/>
<path fill="#000000" d="
  M 147.79 25.50
  L 147.75 25.96
  Q 145.65 28.43 145.45 30.35
  A 2.71 2.68 -66.6 0 0 146.34 32.64
  Q 149.32 35.27 148.46 37.13
  Q 147.42 39.36 145.56 37.44
  Q 144.03 35.85 144.06 37.81
  L 144.19 46.69
  A 1.10 1.07 70.1 0 1 143.82 47.51
  Q 139.95 50.74 140.54 44.57
  Q 140.71 42.78 141.11 41.02
  Q 141.46 39.44 138.17 39.65
  A 1.22 1.21 77.1 0 1 136.96 38.89
  C 136.16 36.94 136.94 35.83 138.39 34.40
  C 139.65 33.17 145.94 25.69 142.19 25.71
  C 140.88 25.72 139.99 26.78 138.43 26.63
  A 1.16 1.07 72.6 0 1 137.63 26.17
  C 134.11 21.27 141.55 22.96 140.85 18.74
  A 2.07 1.15 64.4 0 1 140.91 17.77
  Q 141.88 15.26 143.87 16.91
  A 1.26 0.55 -87.5 0 1 144.19 17.74
  L 144.53 21.10
  A 1.01 0.59 14.9 0 0 145.16 21.73
  Q 147.59 22.70 147.79 25.50
  Z"
/>
<path fill="#000000" d="
  M 308.17 17.25
  Q 308.61 15.28 310.44 16.11
  C 315.18 18.25 308.28 23.63 314.55 27.16
  Q 320.56 30.54 326.18 34.78
  Q 327.56 35.82 327.01 37.46
  Q 325.61 41.62 322.36 38.39
  Q 318.23 34.28 313.75 31.55
  Q 312.04 30.51 312.06 32.55
  L 312.20 46.43
  A 1.28 1.18 -25.1 0 1 311.84 47.31
  C 308.18 51.10 308.24 46.08 308.29 44.17
  Q 308.61 32.20 307.94 20.25
  Q 307.86 18.70 308.17 17.25
  Z"
/>
<path fill="#000000" d="
  M 237.27 28.29
  Q 236.28 27.64 237.01 24.69
  A 1.23 1.23 6.7 0 1 238.19 23.76
  Q 243.20 23.71 241.93 19.52
  Q 241.28 17.38 243.42 16.70
  C 247.00 15.57 245.70 21.11 245.74 22.66
  A 1.10 1.10 89.7 0 0 246.82 23.73
  Q 252.52 23.87 257.49 23.20
  C 261.68 22.63 260.32 25.24 259.81 27.44
  Q 258.38 33.53 253.25 37.25
  Q 251.85 38.26 250.50 35.50
  Q 249.40 33.26 252.64 31.70
  Q 254.20 30.95 254.95 29.39
  Q 255.51 28.24 253.99 27.85
  A 1.60 1.05 -40.4 0 0 253.05 27.97
  Q 250.87 28.94 248.49 28.25
  Q 245.75 27.44 245.75 30.29
  L 245.75 39.00
  A 1.72 1.61 89.4 0 0 247.40 40.72
  L 258.67 40.51
  A 1.50 1.41 -2.7 0 1 260.19 41.81
  C 260.54 46.05 259.01 45.44 255.98 45.52
  Q 247.09 45.76 245.00 45.25
  C 241.10 44.29 242.30 36.01 242.09 32.73
  C 241.94 30.37 243.54 27.67 238.96 28.61
  A 2.25 2.24 55.6 0 1 237.27 28.29
  Z"
/>
<path fill="#000000" d="
  M 147.75 25.96
  L 147.79 25.50
  C 153.90 22.63 151.90 25.20 152.55 18.56
  Q 152.81 15.82 154.64 16.93
  Q 156.51 18.06 156.07 20.20
  Q 155.14 24.71 159.04 24.33
  A 1.79 1.78 73.9 0 1 160.81 25.31
  Q 162.77 29.29 158.23 28.66
  Q 155.47 28.27 155.89 31.02
  Q 156.70 36.31 155.61 40.35
  Q 155.01 42.57 157.31 42.42
  Q 162.44 42.10 161.61 45.12
  Q 161.06 47.07 158.80 47.08
  L 148.53 47.13
  A 1.57 1.37 -4.8 0 1 147.00 46.01
  C 145.47 38.17 153.33 46.60 152.75 39.25
  Q 152.35 34.12 152.83 30.94
  C 153.10 29.12 152.43 28.06 150.48 28.59
  A 1.16 0.86 -29.7 0 1 149.58 28.48
  Q 148.29 27.56 147.75 25.96
  Z"
/>
<path fill="#000000" d="
  M 212.46 24.07
  C 216.08 22.34 210.06 15.99 216.44 16.81
  Q 218.95 17.13 217.31 20.81
  Q 216.42 22.82 217.69 24.11
  A 1.17 0.98 -21.0 0 0 218.56 24.41
  L 224.40 24.03
  Q 226.51 23.89 226.50 25.98
  Q 226.45 33.79 225.46 41.50
  Q 224.89 45.98 220.25 46.51
  C 217.36 46.84 216.33 43.74 217.47 42.15
  Q 218.26 41.06 221.18 40.68
  A 0.69 0.61 -1.5 0 0 221.77 40.13
  L 222.75 30.67
  A 1.59 1.40 13.7 0 0 221.69 29.16
  C 218.04 27.87 217.11 28.96 216.52 32.46
  Q 215.13 40.66 208.82 46.07
  A 1.42 1.41 40.4 0 1 207.16 46.20
  Q 204.74 44.71 204.99 42.30
  A 1.01 0.84 -14.9 0 1 205.50 41.58
  Q 210.74 38.72 213.01 31.33
  Q 213.74 28.96 211.36 29.02
  L 206.32 29.16
  A 0.80 0.68 -10.2 0 1 205.60 28.74
  Q 204.68 26.58 205.91 24.60
  A 1.03 0.96 12.5 0 1 206.69 24.14
  C 208.59 24.00 210.95 24.79 212.46 24.07
  Z"
/>
<path fill="#000000" d="
  M 445.26 39.30
  C 447.47 39.84 450.47 38.42 453.28 38.53
  Q 455.75 38.62 454.83 36.32
  C 453.98 34.23 449.08 28.01 455.06 28.16
  A 0.85 0.83 76.9 0 1 455.79 28.63
  Q 458.67 34.29 461.13 40.16
  C 462.03 42.29 464.13 44.54 460.37 45.87
  A 1.79 1.79 -18.5 0 1 458.07 44.73
  C 457.07 41.62 455.86 43.01 453.85 43.31
  C 449.48 43.96 445.06 44.31 440.72 45.06
  Q 436.46 45.80 437.63 40.73
  A 1.14 1.03 -9.2 0 1 438.19 40.03
  C 439.46 39.38 440.25 39.05 440.72 37.56
  Q 443.30 29.34 445.23 20.95
  C 445.62 19.23 444.95 16.24 448.18 16.70
  Q 450.80 17.08 450.07 19.52
  L 444.56 38.03
  A 1.02 0.99 -74.8 0 0 445.26 39.30
  Z"
/>
<path fill="#000000" d="
  M 577.73 37.05
  Q 576.57 39.97 579.89 39.53
  L 586.19 38.69
  Q 588.89 38.33 587.75 36.25
  L 584.99 31.24
  A 1.61 1.60 49.7 0 1 585.13 29.48
  C 587.55 26.34 589.38 29.13 590.33 31.44
  Q 592.36 36.41 594.79 41.20
  C 596.80 45.14 591.37 48.40 591.00 44.46
  A 1.80 1.73 -6.8 0 0 588.96 42.92
  L 571.82 45.39
  A 0.78 0.78 -18.7 0 1 571.04 45.01
  Q 569.80 42.85 570.84 40.51
  Q 570.94 40.29 571.49 39.79
  L 573.38 38.08
  A 1.50 0.62 -90.0 0 0 573.75 37.19
  C 574.63 31.68 578.40 23.89 578.25 20.25
  Q 578.08 16.16 581.63 16.92
  Q 583.55 17.33 583.11 19.25
  Q 580.84 29.23 577.73 37.05
  Z"
/>
<path fill="#000000" d="
  M 110.25 42.00
  C 116.51 41.34 121.42 32.80 122.50 26.99
  Q 122.98 24.42 120.57 25.43
  C 117.08 26.90 114.20 23.72 111.75 28.50
  C 110.60 30.74 106.99 37.26 104.38 32.56
  Q 103.44 30.86 104.95 29.63
  Q 109.37 26.05 111.30 21.04
  C 112.05 19.08 111.87 15.67 115.49 17.52
  A 1.12 1.10 -73.2 0 1 116.08 18.64
  Q 115.72 21.44 117.61 21.10
  C 120.22 20.62 123.12 20.66 125.92 20.77
  A 1.23 1.23 4.5 0 1 127.10 22.15
  C 125.79 33.01 122.45 42.54 111.88 47.18
  Q 110.22 47.90 109.01 46.56
  Q 105.35 42.51 110.25 42.00
  Z"
/>
<rect fill="#000000" x="-9.05" y="-2.53" transform="translate(549.41,20.12) rotate(-0.2)" width="18.10" height="5.06" rx="1.45"/>
<rect fill="#000000" x="-4.43" y="-2.65" transform="translate(478.33,21.58) rotate(30.6)" width="8.86" height="5.30" rx="1.41"/>
<path fill="#000000" d="
  M 174.19 45.06
  Q 171.90 43.60 171.15 40.23
  C 169.49 32.81 171.18 20.52 180.26 18.52
  C 197.73 14.69 200.17 43.33 185.24 47.13
  A 0.92 0.89 -29.7 0 1 184.38 46.91
  Q 180.29 42.97 186.31 41.42
  Q 188.82 40.77 189.93 38.42
  C 192.32 33.37 191.79 26.63 186.93 23.06
  A 1.10 1.09 24.4 0 0 185.21 23.70
  C 184.47 26.98 181.66 49.85 174.19 45.06
  Z
  M 177.06 39.31
  C 179.47 35.26 181.00 28.81 181.35 24.80
  Q 181.61 21.84 179.26 23.66
  C 174.37 27.46 173.49 32.91 174.75 38.75
  Q 175.45 42.02 177.06 39.31
  Z"
/>
<path fill="#000000" d="
  M 506.48 19.12
  A 2.04 2.03 15.8 0 1 508.46 18.02
  Q 515.37 18.58 521.51 18.08
  Q 524.04 17.87 523.42 20.34
  Q 521.85 26.53 519.34 31.89
  A 1.09 1.05 -54.8 0 0 519.52 33.09
  L 526.86 40.74
  Q 528.42 42.38 527.07 44.05
  C 523.91 47.97 523.25 43.89 521.61 42.28
  C 519.59 40.31 517.19 34.54 514.69 38.69
  Q 513.36 40.88 508.13 45.43
  A 1.15 0.96 -56.9 0 1 507.26 45.70
  Q 505.25 45.35 504.59 42.58
  A 2.13 2.12 -22.7 0 1 505.53 40.29
  Q 514.65 34.56 518.00 24.49
  A 0.94 0.91 -81.0 0 0 517.13 23.25
  L 507.24 23.47
  A 1.09 0.83 -14.8 0 1 506.42 23.13
  Q 505.22 21.56 506.48 19.12
  Z"
/>
<path fill="#000000" d="
  M 17.30 39.29
  C 20.76 40.00 28.60 37.36 26.81 43.33
  A 1.55 1.55 9.1 0 1 25.29 44.43
  Q 15.87 44.20 6.07 44.48
  C 3.54 44.56 2.57 44.93 2.79 41.33
  Q 2.92 39.21 5.08 39.33
  L 11.18 39.68
  Q 13.45 39.80 13.44 37.32
  L 13.36 26.81
  A 0.82 0.71 88.1 0 0 12.59 25.98
  L 7.03 26.36
  Q 4.65 26.52 4.54 24.56
  Q 4.34 20.81 6.80 21.10
  C 12.28 21.75 18.64 21.27 24.18 21.08
  A 1.05 0.94 -18.3 0 1 25.01 21.44
  Q 26.61 23.50 25.02 25.55
  A 1.08 0.96 17.7 0 1 24.19 25.92
  L 18.69 25.81
  Q 16.44 25.77 16.50 27.99
  L 16.78 38.70
  A 0.65 0.62 4.8 0 0 17.30 39.29
  Z"
/>
<path fill="#000000" d="
  M 490.31 24.94
  C 490.65 22.71 491.59 21.96 493.47 23.85
  A 2.87 2.86 27.4 0 1 494.27 26.36
  Q 491.49 42.73 475.88 46.17
  Q 473.54 46.68 473.00 44.34
  C 472.01 40.02 473.03 40.51 476.59 40.06
  C 484.76 39.02 489.14 32.64 490.31 24.94
  Z"
/>
<path fill="#000000" d="
  M 281.36 24.14
  Q 282.61 22.73 284.33 24.22
  A 1.59 0.83 -88.1 0 1 284.73 25.06
  L 285.56 29.46
  Q 285.92 31.38 284.21 31.93
  Q 281.47 32.80 281.64 29.81
  Q 281.67 29.31 281.45 28.87
  C 280.65 27.26 280.01 25.67 281.36 24.14
  Z"
/>
<rect fill="#000000" x="-1.93" y="-4.30" transform="translate(82.48,28.40) rotate(-10.1)" width="3.86" height="8.60" rx="1.83"/>
<path fill="#000000" d="
  M 289.56 24.84
  Q 291.03 23.64 292.37 25.16
  A 1.44 1.28 -68.1 0 1 292.69 26.06
  C 292.71 34.57 289.54 44.03 280.31 46.09
  A 1.08 1.04 -30.6 0 1 279.41 45.88
  Q 277.91 44.62 277.37 42.74
  A 1.12 0.99 57.0 0 1 277.51 41.82
  C 278.51 40.44 280.27 40.89 281.48 40.39
  C 287.76 37.79 288.27 32.80 289.13 25.68
  A 1.34 1.11 77.4 0 1 289.56 24.84
  Z"
/>
<path fill="#000000" d="
  M 89.83 24.90
  Q 91.81 25.00 91.78 26.97
  Q 91.56 41.30 80.80 46.27
  Q 78.92 47.14 77.78 45.41
  C 74.41 40.34 79.20 41.78 81.41 40.55
  Q 88.39 36.68 87.82 28.01
  Q 87.61 24.80 89.83 24.90
  Z"
/>
<path fill="#000000" d="
  M 277.87 33.30
  Q 276.43 34.95 275.01 32.91
  Q 274.79 32.59 274.72 31.99
  C 274.47 29.75 271.72 26.54 275.00 25.28
  C 276.60 24.67 277.61 25.64 277.60 27.19
  Q 277.60 27.72 277.81 28.12
  C 278.71 29.82 279.32 31.65 277.87 33.30
  Z"
/>
<path fill="#000000" d="
  M 75.11 33.93
  C 73.81 32.33 70.62 24.80 75.21 25.92
  A 1.48 1.32 76.4 0 1 75.99 26.46
  C 77.07 27.91 79.56 34.50 75.94 34.37
  A 1.24 1.05 68.0 0 1 75.11 33.93
  Z"
/>
<rect fill="#000000" x="-4.42" y="-2.60" transform="translate(476.08,29.89) rotate(28.4)" width="8.84" height="5.20" rx="1.81"/>
<path fill="#000000" d="
  M 550.02 42.26
  C 547.95 45.36 545.20 49.28 541.61 44.49
  Q 540.36 42.83 542.30 42.07
  Q 548.23 39.75 548.55 32.13
  A 0.94 0.93 4.3 0 0 547.72 31.17
  Q 543.48 30.68 540.76 31.28
  Q 536.88 32.12 537.68 27.10
  A 1.19 1.19 -83.6 0 1 538.93 26.10
  Q 549.28 26.76 559.94 26.02
  A 1.48 1.47 79.6 0 1 561.45 27.07
  C 563.26 33.07 557.78 31.59 554.70 30.99
  Q 552.49 30.56 552.50 32.81
  Q 552.51 38.52 550.02 42.26
  Z"
/>
<path fill="#000000" d="
  M 404.39 29.10
  A 1.78 1.77 9.6 0 1 406.30 27.75
  Q 417.19 28.84 427.44 27.62
  A 0.98 0.89 -21.7 0 1 428.27 27.93
  Q 430.25 30.27 428.59 32.90
  A 0.89 0.84 16.5 0 1 427.82 33.29
  Q 417.03 32.69 406.26 33.46
  A 1.60 1.06 -20.7 0 1 405.33 33.25
  Q 403.68 32.06 404.39 29.10
  Z"
/>
<path fill="#000000" d="
  M 338.99 29.55
  A 1.64 1.63 13.8 0 1 340.67 28.54
  C 343.32 28.82 353.31 27.09 350.20 32.50
  A 1.34 1.08 2.3 0 1 349.44 33.06
  C 345.31 34.26 346.12 41.09 349.46 38.60
  A 1.25 1.25 61.4 0 1 351.39 39.17
  Q 352.80 43.09 349.00 43.73
  Q 344.30 44.51 339.49 46.18
  A 0.90 0.90 -21.1 0 1 338.38 45.69
  Q 337.67 44.05 338.35 41.61
  A 1.21 1.20 -78.7 0 1 339.65 40.74
  C 345.34 41.41 344.99 31.98 340.47 33.57
  A 0.96 0.78 -31.3 0 1 339.60 33.45
  Q 337.98 32.06 338.99 29.55
  Z"
/>
<path fill="#000000" d="
  M 37.97 45.20
  C 35.57 43.29 37.97 40.69 38.79 38.91
  C 39.26 37.87 41.94 28.35 44.15 31.92
  A 2.65 2.47 39.6 0 1 44.43 34.06
  L 41.06 44.33
  Q 40.19 46.95 37.97 45.20
  Z"
/>
<path fill="#000000" d="
  M 56.95 45.36
  A 1.50 1.49 85.2 0 1 55.80 44.38
  C 54.99 42.05 50.05 31.54 54.53 31.25
  A 1.03 1.02 -9.1 0 1 55.60 32.02
  Q 57.24 38.27 59.64 41.66
  A 1.72 1.32 33.7 0 1 59.95 42.56
  Q 59.95 45.85 56.95 45.36
  Z"
/>
<path fill="#d09607" d="
  M 330.74 92.95
  C 333.20 94.58 331.36 96.32 329.56 97.22
  C 327.29 98.35 325.20 101.34 322.82 100.28
  A 1.17 1.16 -64.0 0 0 321.32 100.80
  Q 320.24 102.85 318.60 103.33
  Q 316.72 103.87 315.94 102.08
  Q 313.86 97.24 308.49 97.70
  A 1.00 0.92 65.7 0 1 307.69 97.36
  Q 306.53 96.01 304.81 95.55
  A 1.43 0.78 68.8 0 1 304.12 94.97
  C 303.14 93.50 300.60 94.10 301.91 91.63
  A 1.91 1.91 -39.1 0 0 302.06 90.19
  Q 301.14 86.94 301.25 83.63
  C 301.57 74.23 305.04 73.58 312.31 69.73
  A 0.38 0.35 54.5 0 0 312.38 69.16
  Q 311.99 68.72 311.93 68.19
  A 0.39 0.33 4.2 0 1 312.41 67.84
  Q 313.67 68.12 315.46 67.36
  A 0.41 0.41 75.5 0 1 316.02 67.69
  Q 316.16 69.08 317.40 68.34
  Q 317.70 68.16 318.03 67.62
  Q 318.60 66.68 319.75 66.50
  Q 322.96 66.00 323.69 66.81
  C 324.87 68.13 326.66 66.63 326.90 67.12
  A 0.72 0.34 -50.8 0 1 326.75 67.71
  Q 325.23 70.00 327.95 69.43
  A 0.82 0.74 62.7 0 1 328.72 69.72
  L 330.14 71.39
  A 1.16 0.95 33.9 0 1 330.40 72.25
  Q 329.80 75.93 333.44 74.62
  C 335.94 73.71 331.36 77.26 334.68 77.32
  A 0.64 0.59 -4.4 0 1 335.29 77.80
  C 335.62 79.63 335.85 85.22 334.72 87.03
  A 1.11 0.79 8.6 0 1 333.93 87.43
  Q 332.67 87.52 333.49 88.82
  A 0.32 0.31 -21.4 0 1 333.27 89.30
  Q 329.90 89.95 330.21 92.21
  A 1.27 0.86 20.3 0 0 330.74 92.95
  Z
  M 313.64 82.42
  Q 311.30 85.51 314.27 86.60
  A 1.51 1.02 -37.1 0 0 315.21 86.55
  Q 317.04 85.86 318.26 87.29
  A 1.43 1.32 -13.5 0 0 319.06 87.74
  L 319.77 87.87
  A 0.52 0.42 8.0 0 0 320.38 87.51
  L 320.75 82.49
  A 1.21 0.94 -2.0 0 0 319.41 81.52
  L 314.47 82.00
  A 1.31 1.00 10.6 0 0 313.64 82.42
  Z
  M 330.6547 94.7507
  A 0.98 0.70 -34.8 0 0 329.4505 94.7352
  A 0.98 0.70 -34.8 0 0 329.0453 95.8693
  A 0.98 0.70 -34.8 0 0 330.2495 95.8848
  A 0.98 0.70 -34.8 0 0 330.6547 94.7507
  Z
  M 317.26 101.62
  Q 317.19 101.98 317.52 102.14
  A 0.86 0.65 -51.8 0 0 318.37 101.92
  Q 319.29 101.00 317.91 101.12
  A 0.76 0.59 0.1 0 0 317.26 101.62
  Z"
/>
<path fill="#6d4e13" fill-opacity="0.878" d="
  M 122.44 76.50
  C 123.91 79.22 117.85 74.78 121.70 75.91
  A 1.28 1.21 -4.8 0 1 122.44 76.50
  Z"
/>
<path fill="#d09607" d="
  M 278.50 212.54
  L 278.04 211.75
  Q 277.54 211.21 277.00 211.79
  L 276.29 211.75
  Q 275.72 206.20 276.59 200.67
  Q 276.77 199.57 276.60 198.84
  Q 275.97 196.16 274.14 200.79
  Q 273.62 202.13 273.69 203.71
  L 274.24 215.49
  A 1.21 0.94 72.8 0 1 273.91 216.37
  C 273.17 217.02 273.22 215.63 273.05 215.22
  C 271.08 210.59 272.01 219.30 271.26 219.01
  A 1.01 0.51 79.1 0 1 270.82 218.44
  L 268.31 211.68
  A 2.54 2.37 59.7 0 1 268.92 208.98
  C 270.21 207.83 268.83 204.28 268.57 202.76
  C 268.02 199.62 269.28 196.51 269.47 193.26
  Q 269.49 192.93 269.79 192.34
  L 270.59 190.73
  A 0.84 0.66 40.3 0 0 270.42 189.89
  Q 267.64 186.73 267.90 182.43
  A 1.01 0.80 -16.9 0 1 268.39 181.72
  Q 269.63 181.01 268.56 179.90
  A 1.43 0.70 35.4 0 1 268.11 179.07
  L 268.03 177.31
  A 0.92 0.64 -20.1 0 1 268.52 176.61
  Q 269.90 175.85 269.42 174.22
  A 1.32 1.27 50.4 0 1 269.49 173.30
  C 270.57 171.12 270.22 163.50 269.06 161.69
  C 267.14 158.69 266.09 163.18 264.72 164.29
  A 0.84 0.52 -33.9 0 0 264.38 165.05
  Q 264.47 165.28 264.66 165.45
  A 1.37 0.39 34.1 0 1 265.22 166.12
  Q 266.01 168.54 263.33 168.02
  Q 262.35 167.82 262.74 168.74
  Q 263.47 170.41 262.59 171.89
  Q 262.43 172.17 262.28 172.81
  L 261.01 178.35
  Q 260.85 179.03 260.84 179.32
  Q 260.79 180.55 259.46 180.29
  Q 258.37 180.08 259.22 180.80
  Q 260.87 182.20 258.57 182.71
  A 0.67 0.66 86.5 0 0 258.04 183.31
  Q 257.94 184.59 257.18 185.94
  Q 256.83 186.58 257.48 186.26
  C 261.05 184.50 256.93 189.34 256.64 190.28
  A 1.84 0.85 63.9 0 0 256.66 191.23
  Q 256.99 192.57 255.37 192.56
  A 0.32 0.29 89.0 0 0 255.08 192.89
  L 255.16 197.07
  A 0.57 0.57 -90.0 0 1 254.58 197.65
  Q 254.08 197.64 253.75 197.19
  A 0.32 0.28 41.7 0 0 253.24 197.18
  C 252.79 198.06 251.77 199.94 253.69 199.86
  A 0.37 0.35 6.5 0 1 254.07 200.31
  L 252.62 204.97
  A 1.69 0.98 -20.4 0 1 252.01 205.71
  Q 249.49 207.44 250.99 210.08
  A 0.76 0.62 53.4 0 1 250.95 210.91
  L 250.07 211.85
  Q 249.66 212.30 249.51 212.65
  Q 248.97 213.90 248.63 212.98
  A 1.23 0.82 -46.8 0 1 248.78 212.08
  Q 249.50 210.88 249.11 209.53
  A 0.90 0.83 85.5 0 0 248.45 208.92
  Q 247.58 208.77 247.72 209.76
  A 2.66 2.64 -34.8 0 1 247.43 211.35
  Q 246.16 213.68 246.02 211.74
  A 1.07 1.03 -75.1 0 0 245.59 210.97
  Q 242.43 208.67 242.75 205.50
  Q 242.97 203.33 241.75 202.45
  A 0.82 0.75 24.2 0 1 241.42 201.69
  Q 241.93 198.91 239.06 199.35
  A 0.37 0.37 -1.2 0 1 238.64 198.95
  Q 238.77 197.65 238.25 196.46
  L 237.96 195.50
  L 238.42 192.82
  A 0.74 0.57 19.2 0 0 237.97 192.14
  C 234.53 190.60 240.64 188.93 238.30 185.64
  A 0.74 0.70 44.5 0 1 238.27 184.83
  C 239.06 183.62 241.01 181.03 239.31 180.53
  A 0.65 0.52 13.1 0 1 238.84 179.94
  Q 239.06 178.27 240.82 178.09
  A 1.14 0.99 11.1 0 0 241.59 177.65
  Q 245.39 171.80 245.81 169.31
  C 246.39 165.86 243.92 171.47 243.56 169.24
  Q 243.50 168.84 243.70 168.29
  Q 244.29 166.74 243.36 165.34
  Q 243.18 165.07 243.07 164.43
  L 242.49 161.02
  A 1.19 0.83 65.1 0 1 242.64 160.19
  Q 243.43 159.16 243.27 157.81
  A 1.13 0.77 19.4 0 0 242.74 157.09
  Q 241.48 156.30 242.71 154.61
  A 1.67 1.66 -40.5 0 0 242.85 152.89
  Q 242.40 152.00 243.32 151.68
  A 1.41 0.78 -7.5 0 0 244.06 151.13
  L 244.97 149.39
  A 1.03 1.01 8.6 0 1 245.68 148.88
  Q 247.21 148.62 247.79 147.16
  A 1.30 1.28 -4.2 0 1 248.39 146.48
  Q 249.65 145.80 249.61 144.31
  A 1.51 1.36 64.0 0 1 249.87 143.41
  Q 251.15 141.60 248.61 142.22
  A 1.95 1.90 -39.2 0 1 247.36 142.11
  C 243.82 140.53 242.83 145.40 238.65 142.54
  A 0.63 0.55 31.5 0 1 238.41 141.78
  Q 238.74 141.16 239.56 141.51
  Q 240.00 141.70 239.71 141.34
  C 238.23 139.47 234.31 141.53 236.75 138.79
  A 0.77 0.73 35.0 0 0 236.51 137.64
  L 233.15 135.79
  A 1.21 1.04 47.8 0 0 232.28 135.68
  Q 231.36 135.98 231.43 135.30
  A 1.43 0.62 -32.5 0 1 231.96 134.51
  Q 232.65 133.89 232.90 133.00
  A 1.44 0.83 50.2 0 0 232.74 132.08
  Q 232.19 131.03 232.91 130.11
  A 1.34 0.93 -36.2 0 0 233.21 129.24
  Q 232.90 126.45 231.01 128.56
  A 1.02 0.81 -61.0 0 1 230.19 128.90
  C 228.42 128.63 229.82 127.23 230.61 126.78
  C 234.49 124.59 233.22 120.45 233.79 117.25
  Q 234.19 117.33 234.29 117.00
  Q 236.23 117.43 236.92 115.54
  A 1.65 0.67 -27.2 0 1 237.51 114.85
  L 240.42 112.63
  A 1.09 0.38 -41.6 0 1 241.24 112.29
  C 242.08 112.53 240.22 113.86 240.36 114.48
  A 0.51 0.46 -18.8 0 0 241.04 114.77
  Q 242.62 114.12 243.13 112.48
  A 0.85 0.65 33.0 0 0 242.85 111.70
  C 241.51 110.48 244.01 109.11 245.35 109.95
  A 1.31 1.21 54.1 0 0 246.23 110.13
  L 250.69 109.36
  A 1.21 0.80 52.8 0 1 251.54 109.66
  Q 252.59 110.54 253.86 110.03
  A 1.77 1.21 -40.6 0 1 254.80 109.93
  C 257.17 110.46 260.70 109.64 261.59 110.97
  A 0.92 0.92 49.7 0 0 263.04 111.09
  Q 264.89 109.06 266.67 110.88
  A 0.54 0.48 45.8 0 0 267.38 110.93
  Q 268.85 109.51 267.21 108.01
  A 1.99 1.34 21.9 0 1 266.67 107.21
  C 266.28 105.78 266.48 98.93 264.81 100.86
  A 1.22 1.00 -32.7 0 0 264.52 101.75
  Q 264.60 102.24 264.91 102.64
  A 0.94 0.53 46.7 0 1 265.12 103.48
  Q 264.83 104.00 264.00 103.12
  A 2.00 1.99 -60.5 0 1 263.51 101.34
  C 264.75 95.61 260.00 100.32 259.79 96.75
  Q 260.10 96.50 260.50 96.46
  Q 263.83 97.81 261.75 94.46
  L 262.24 92.25
  Q 262.41 91.47 262.48 91.30
  Q 263.43 89.32 262.68 87.21
  A 0.71 0.38 71.4 0 1 262.82 86.39
  Q 263.24 86.28 264.10 87.02
  A 0.61 0.59 -44.9 0 0 264.89 87.01
  C 265.99 86.02 269.31 85.89 268.06 84.65
  A 1.55 0.82 32.1 0 1 267.58 83.82
  Q 267.44 82.60 269.40 83.95
  A 0.80 0.79 -65.8 0 0 270.62 83.48
  Q 271.51 79.80 272.58 82.52
  A 0.39 0.34 59.9 0 0 273.15 82.71
  L 279.73 76.69
  A 0.59 0.52 -46.5 0 1 280.45 76.63
  Q 282.81 78.50 285.76 78.94
  Q 286.77 79.09 286.03 79.43
  L 284.45 80.16
  A 0.75 0.66 -26.1 0 0 284.06 81.11
  Q 284.89 82.70 286.65 81.26
  A 0.45 0.40 56.6 0 1 287.28 81.43
  L 289.42 85.37
  A 0.70 0.70 66.5 0 0 290.25 85.70
  Q 290.72 85.54 290.49 84.94
  A 0.89 0.59 60.8 0 1 290.55 84.10
  Q 291.19 83.45 291.44 85.01
  Q 291.50 85.41 291.32 85.96
  Q 290.75 87.63 292.20 88.17
  A 0.84 0.61 12.7 0 1 292.75 88.80
  Q 292.75 89.28 292.55 89.75
  A 0.44 0.42 21.8 0 0 292.81 90.32
  Q 294.07 90.77 293.85 92.27
  A 0.88 0.86 -65.9 0 0 294.14 93.06
  Q 296.60 95.18 295.22 98.30
  A 1.61 1.52 -39.5 0 0 295.10 99.24
  Q 295.50 101.52 294.07 99.88
  A 0.53 0.48 48.6 0 0 293.36 99.80
  Q 292.24 100.81 293.19 102.12
  A 0.51 0.51 52.7 0 1 293.10 102.81
  C 289.25 105.91 294.73 105.40 295.03 107.20
  A 0.59 0.53 84.9 0 0 295.56 107.70
  Q 299.37 107.64 301.56 104.06
  Q 302.73 102.15 304.58 103.22
  A 0.90 0.85 45.4 0 0 305.43 103.25
  C 308.84 101.41 310.86 104.64 313.95 105.44
  A 1.70 1.56 74.1 0 1 314.76 105.94
  Q 317.34 108.78 320.95 107.72
  A 0.44 0.43 76.3 0 1 321.50 108.06
  Q 321.79 109.65 323.09 110.59
  A 0.94 0.57 24.8 0 1 323.51 111.22
  C 323.51 111.90 320.52 110.26 321.13 112.23
  A 0.81 0.64 -4.0 0 0 321.82 112.70
  C 324.46 112.90 320.64 114.38 321.33 115.36
  A 0.95 0.93 63.9 0 0 322.35 115.72
  C 331.75 112.94 319.17 120.44 326.31 117.72
  Q 327.29 117.34 326.67 118.20
  Q 325.59 119.69 325.86 121.94
  A 0.69 0.68 73.9 0 1 325.48 122.64
  Q 323.73 123.46 322.64 124.95
  Q 322.06 125.75 323.05 125.69
  Q 325.56 125.53 323.50 127.00
  Q 320.93 128.83 320.56 130.56
  Q 319.83 133.98 317.36 136.41
  A 0.41 0.38 52.3 0 1 316.75 136.31
  C 315.46 134.25 313.03 137.14 310.75 137.04
  Q 310.24 137.02 309.80 137.22
  C 306.36 138.79 302.51 136.37 300.66 137.46
  A 1.30 0.65 -40.1 0 1 299.75 137.68
  L 297.45 136.97
  Q 296.78 136.76 296.50 136.80
  C 293.48 137.22 292.29 140.60 291.62 143.02
  A 1.23 0.82 44.6 0 0 291.80 143.90
  Q 292.56 145.14 291.50 146.50
  Q 291.01 147.13 291.25 150.50
  Q 291.84 158.63 291.28 166.76
  A 1.52 1.35 32.6 0 0 291.53 167.65
  C 294.04 171.52 290.59 174.59 292.44 177.38
  A 0.48 0.47 58.5 0 1 292.28 178.06
  C 288.98 179.86 290.99 181.40 289.33 183.61
  Q 289.01 184.04 288.93 184.50
  L 288.34 188.25
  A 1.49 1.46 -55.1 0 0 288.50 189.19
  C 290.14 192.33 287.29 194.46 289.40 196.90
  A 1.86 1.05 33.3 0 1 289.83 197.74
  C 290.57 203.19 285.61 204.76 286.18 210.25
  A 0.74 0.72 73.1 0 1 285.81 210.97
  Q 284.19 211.82 283.24 213.39
  C 280.75 217.51 282.20 210.08 278.50 212.54
  Z
  M 317.6367 133.7045
  A 0.86 0.54 125.0 0 0 318.5723 133.3097
  A 0.86 0.54 125.0 0 0 318.6233 132.2955
  A 0.86 0.54 125.0 0 0 317.6877 132.6903
  A 0.86 0.54 125.0 0 0 317.6367 133.7045
  Z
  M 311.03 135.80
  Q 311.86 136.50 312.68 135.64
  A 0.48 0.47 -50.1 0 0 312.62 134.92
  Q 311.77 134.32 311.01 135.06
  A 0.50 0.50 43.5 0 0 311.03 135.80
  Z
  M 254.68 140.11
  Q 253.20 139.03 253.27 142.04
  A 1.21 1.21 0.3 0 0 254.44 143.22
  Q 255.65 143.26 256.36 143.50
  Q 256.90 143.67 257.31 143.64
  Q 261.16 143.40 263.30 146.52
  A 1.31 0.77 67.4 0 0 264.04 147.08
  Q 264.78 147.20 265.41 146.62
  A 0.45 0.42 -40.4 0 1 266.05 146.65
  Q 268.48 149.79 269.00 145.79
  Q 269.15 144.61 269.87 143.67
  Q 271.08 142.08 269.73 141.43
  A 1.46 0.88 -31.1 0 0 268.78 141.43
  Q 267.03 141.97 266.79 140.25
  A 0.93 0.75 -86.9 0 0 266.29 139.55
  C 264.20 138.74 262.40 139.78 260.65 139.86
  Q 258.10 139.98 255.56 140.36
  A 1.29 1.03 54.4 0 1 254.68 140.11
  Z
  M 254.71 188.83
  C 254.91 188.25 257.70 180.54 254.96 182.50
  A 1.64 1.34 85.4 0 0 254.41 183.30
  Q 253.59 186.14 253.78 188.70
  Q 253.94 190.97 254.71 188.83
  Z
  M 286.95 202.41
  C 286.24 204.70 290.14 199.77 287.36 201.84
  A 1.14 1.11 -9.9 0 0 286.95 202.41
  Z"
/>
<path fill="#ab7d1e" fill-opacity="0.961" d="
  M 116.29 77.45
  Q 116.46 77.27 116.70 77.18
  C 120.70 75.78 113.90 80.90 113.17 81.31
  C 112.55 81.66 111.53 81.43 112.86 80.64
  Q 114.02 79.94 116.29 77.45
  Z"
/>
<path fill="#d09607" d="
  M 128.46 95.25
  Q 128.39 96.10 127.75 96.29
  Q 124.60 97.48 121.26 97.29
  Q 120.77 97.26 120.30 97.48
  Q 117.58 98.78 117.12 95.94
  A 0.59 0.58 87.0 0 0 116.57 95.44
  Q 113.89 95.36 113.60 92.57
  A 0.52 0.48 -6.8 0 1 114.06 92.03
  Q 115.43 91.88 114.80 90.89
  A 0.97 0.70 -13.3 0 0 114.00 90.56
  Q 112.31 90.64 111.67 89.22
  A 0.91 0.71 -40.4 0 1 111.84 88.38
  Q 112.98 86.97 111.84 85.61
  A 1.10 0.44 46.0 0 1 111.49 84.76
  Q 111.63 84.37 112.32 84.32
  A 1.04 0.90 10.6 0 0 113.07 83.88
  Q 118.77 74.62 127.84 80.96
  A 1.29 1.14 -80.9 0 1 128.33 81.74
  C 128.88 84.77 132.66 87.16 131.71 89.88
  A 2.48 2.46 -51.2 0 0 131.93 91.97
  Q 132.75 93.33 130.77 93.10
  A 0.89 0.74 -62.8 0 0 130.06 93.40
  L 128.46 95.25
  Z
  M 130.58 87.02
  C 129.80 85.16 129.06 88.24 130.32 87.77
  A 0.58 0.51 67.8 0 0 130.58 87.02
  Z"
/>
<path fill="#d09607" d="
  M 88.98 100.37
  Q 88.02 99.88 88.42 99.12
  A 0.72 0.71 -64.1 0 0 88.08 98.13
  Q 85.29 96.91 86.21 95.54
  A 1.45 1.45 42.6 0 0 86.14 93.85
  Q 83.36 90.36 84.90 90.82
  A 1.52 1.50 27.4 0 0 86.51 90.32
  Q 88.02 88.43 86.74 88.07
  A 0.25 0.24 29.5 0 1 86.62 87.66
  Q 87.69 86.61 88.08 85.17
  A 0.46 0.45 16.4 0 1 88.66 84.86
  Q 91.23 85.71 92.58 83.27
  A 0.94 0.88 -76.0 0 1 93.31 82.80
  Q 95.96 82.66 95.72 80.97
  A 1.37 1.29 4.1 0 1 97.44 79.57
  L 102.94 81.05
  A 1.05 0.70 2.3 0 1 103.60 81.53
  Q 104.08 82.68 105.21 83.33
  A 0.80 0.80 -65.5 0 1 105.57 84.30
  Q 104.72 86.68 107.12 85.16
  A 0.40 0.39 71.3 0 1 107.72 85.46
  C 107.87 87.02 108.44 88.02 108.50 89.55
  Q 108.63 92.68 110.19 96.88
  Q 110.90 98.78 109.28 100.00
  Q 108.49 100.59 107.92 102.22
  Q 107.39 103.75 106.74 102.27
  C 105.62 99.75 104.34 103.82 102.58 102.13
  A 0.80 0.73 55.4 0 0 101.79 101.95
  Q 100.40 102.46 99.02 102.00
  A 0.94 0.92 36.5 0 0 98.17 102.12
  Q 96.46 103.35 96.84 101.05
  A 0.40 0.38 -86.9 0 0 96.44 100.59
  C 94.23 100.71 90.15 102.84 89.56 101.04
  A 1.19 1.16 4.9 0 0 88.98 100.37
  Z"
/>
<path fill="#ab7d1e" fill-opacity="0.961" d="
  M 94.59 80.68
  Q 94.55 81.78 93.31 81.92
  A 0.42 0.42 -88.9 0 1 92.85 81.44
  Q 93.02 80.30 94.06 80.19
  A 0.48 0.47 -1.6 0 1 94.59 80.68
  Z"
/>
<path fill="#d09607" d="
  M 109.00 122.04
  Q 108.94 123.10 109.34 123.99
  A 0.56 0.46 -20.9 0 0 110.00 124.21
  Q 110.55 124.02 110.79 124.50
  Q 109.59 128.59 106.08 129.24
  Q 105.36 129.37 101.38 128.70
  Q 97.38 128.02 93.66 130.13
  Q 92.46 130.81 93.18 131.60
  A 1.19 0.96 -18.9 0 0 94.06 131.92
  L 100.25 131.54
  Q 100.61 131.52 101.15 131.20
  Q 101.80 130.82 102.37 131.18
  A 0.50 0.46 -53.7 0 1 102.45 131.90
  C 102.04 132.37 98.73 133.78 100.88 134.01
  A 1.89 1.88 25.3 0 0 102.43 133.46
  Q 103.59 132.28 104.15 132.42
  Q 104.71 132.56 104.16 133.10
  Q 101.53 135.69 97.81 136.00
  A 0.57 0.56 -2.4 0 1 97.20 135.45
  Q 97.12 132.11 95.87 135.21
  A 0.77 0.74 -79.2 0 1 95.19 135.69
  Q 89.60 135.86 92.88 140.05
  A 0.32 0.31 -25.2 0 1 92.69 140.54
  Q 90.06 141.20 91.08 144.29
  A 0.57 0.45 -15.2 0 0 91.72 144.56
  Q 92.11 144.45 92.49 144.58
  A 0.71 0.61 -78.0 0 1 92.89 145.31
  Q 92.72 146.65 92.02 147.82
  A 1.45 1.23 -38.6 0 0 91.84 148.73
  Q 92.73 153.64 91.45 158.46
  A 0.74 0.69 26.7 0 0 91.73 159.21
  C 93.54 160.57 89.02 159.58 90.30 162.36
  A 1.62 1.61 -51.0 0 1 90.41 163.42
  Q 89.52 167.10 90.64 169.96
  A 0.91 0.89 -34.2 0 1 90.45 170.91
  Q 88.60 172.82 90.26 173.72
  Q 91.24 174.26 89.83 175.89
  A 0.48 0.48 -57.1 0 0 89.99 176.64
  C 90.60 176.93 89.92 177.97 89.80 178.34
  Q 88.59 181.90 88.50 188.00
  Q 88.46 190.80 85.51 192.34
  A 1.80 1.63 -1.6 0 0 84.82 193.00
  C 83.48 195.36 78.07 199.90 77.94 201.93
  A 1.04 0.97 75.6 0 1 77.52 202.70
  Q 76.21 203.62 75.51 205.10
  A 0.97 0.95 -82.5 0 1 74.82 205.64
  Q 71.01 206.34 72.50 209.48
  Q 73.12 210.79 71.83 210.14
  Q 69.70 209.06 69.72 211.00
  A 1.33 1.25 67.0 0 1 69.40 211.86
  Q 68.09 213.34 67.54 215.85
  Q 67.08 217.97 65.11 217.07
  C 62.31 215.80 61.89 221.18 60.64 218.76
  A 0.64 0.59 67.8 0 0 59.94 218.43
  Q 57.78 219.07 57.78 221.31
  A 0.69 0.53 85.6 0 1 57.34 221.98
  C 55.51 222.30 56.16 217.29 54.49 220.07
  A 1.54 1.03 65.3 0 0 54.34 221.00
  Q 54.63 223.03 52.87 221.83
  A 1.16 1.16 -39.7 0 0 51.75 221.73
  C 47.46 223.63 53.29 217.43 53.89 216.84
  Q 55.19 215.59 53.48 216.17
  Q 51.98 216.68 51.41 218.03
  Q 51.18 218.58 50.87 218.84
  C 49.16 220.25 49.80 218.08 50.37 217.51
  Q 51.83 216.08 52.97 214.41
  A 0.77 0.73 -44.5 0 0 53.00 213.58
  C 49.12 207.44 45.80 220.12 43.52 217.82
  A 0.85 0.65 58.3 0 0 42.84 217.56
  Q 41.63 217.79 42.97 218.19
  A 0.51 0.42 19.0 0 1 43.33 218.78
  Q 42.86 219.91 40.53 219.64
  A 2.65 2.65 23.1 0 0 38.17 220.59
  C 37.92 220.91 36.44 225.36 35.74 224.44
  A 1.02 0.81 -55.9 0 1 35.67 223.52
  L 37.38 219.37
  A 0.69 0.68 -73.7 0 0 36.88 218.43
  C 35.91 218.26 36.62 210.22 39.16 211.89
  A 1.04 0.86 48.0 0 0 40.04 212.02
  Q 41.64 211.40 39.91 210.73
  A 0.65 0.37 24.0 0 1 39.43 210.08
  Q 39.67 209.67 41.03 209.85
  A 2.02 2.01 24.9 0 0 42.79 209.21
  C 43.27 208.68 50.30 201.37 46.96 202.56
  A 0.88 0.53 -24.9 0 1 46.10 202.47
  C 45.86 202.18 47.84 200.39 47.77 199.33
  Q 47.70 198.25 48.43 199.05
  C 50.08 200.88 49.77 198.44 49.64 197.75
  C 48.76 192.89 54.26 194.36 55.78 190.53
  A 0.88 0.73 37.4 0 0 55.59 189.71
  Q 54.48 188.42 55.86 187.55
  A 0.99 0.93 -14.4 0 0 56.32 186.82
  Q 56.45 185.22 58.19 185.37
  A 0.77 0.54 8.8 0 0 58.94 185.00
  Q 59.18 184.21 57.94 183.37
  Q 57.05 182.76 58.08 182.47
  Q 59.09 182.18 59.51 181.41
  A 1.44 0.68 65.5 0 0 59.52 180.47
  Q 59.30 179.64 59.72 178.91
  A 0.40 0.35 38.3 0 1 60.33 178.88
  C 62.12 180.70 63.83 176.38 63.02 174.92
  A 0.75 0.69 51.1 0 1 63.07 174.12
  Q 65.22 171.43 65.71 168.00
  L 65.75 167.29
  C 66.25 166.33 69.34 160.78 65.79 161.70
  A 0.46 0.46 84.0 0 1 65.21 161.23
  Q 65.39 157.03 63.93 158.61
  C 61.93 160.77 61.42 159.11 62.70 157.38
  C 64.38 155.09 63.65 138.85 59.55 143.40
  C 58.73 144.31 58.94 145.83 57.05 145.84
  A 0.28 0.27 -14.6 0 0 56.81 146.24
  Q 58.54 149.43 56.06 152.56
  Q 55.62 153.12 55.19 154.44
  Q 54.24 157.32 52.54 159.84
  A 0.42 0.42 30.7 0 0 52.70 160.46
  Q 55.28 161.74 52.52 162.40
  A 3.00 2.99 8.8 0 0 50.64 163.77
  Q 48.13 167.93 45.73 164.72
  A 0.83 0.63 60.3 0 0 44.95 164.39
  Q 44.21 164.61 44.01 165.45
  A 1.64 0.68 -85.9 0 1 43.59 166.29
  Q 42.39 167.35 42.85 164.37
  Q 43.00 163.37 42.09 163.83
  C 38.98 165.40 42.92 161.86 40.74 161.12
  A 1.38 1.18 -45.1 0 0 39.79 161.20
  Q 37.64 162.22 36.90 164.47
  C 36.67 165.17 37.10 167.16 35.97 166.49
  A 0.79 0.68 -70.0 0 1 35.67 165.70
  Q 36.39 162.10 34.78 164.93
  Q 34.69 165.08 34.42 165.73
  Q 33.67 167.55 31.71 165.41
  A 0.33 0.33 43.8 0 0 31.23 165.41
  Q 29.83 166.95 26.68 166.00
  Q 25.87 165.76 26.64 165.42
  C 30.81 163.54 24.47 159.17 28.01 159.66
  A 1.18 0.89 22.9 0 0 28.89 159.44
  C 29.43 158.97 30.32 157.81 30.13 157.05
  C 29.73 155.49 28.60 158.22 27.98 158.16
  A 0.46 0.35 -75.2 0 1 27.73 157.56
  L 28.69 155.05
  A 0.66 0.59 -77.0 0 1 29.30 154.62
  Q 31.15 154.73 30.66 152.98
  A 1.14 1.04 -37.9 0 1 30.81 152.11
  L 32.02 150.20
  A 0.42 0.40 -66.5 0 0 31.79 149.57
  C 30.54 149.28 29.83 151.57 29.31 151.00
  A 0.63 0.50 -43.3 0 1 29.42 150.22
  Q 31.66 147.96 32.87 145.07
  C 33.09 144.54 35.58 141.92 33.87 145.34
  C 33.62 145.82 32.57 146.82 33.70 147.11
  A 0.78 0.74 24.4 0 0 34.54 146.82
  L 35.53 145.45
  A 1.51 0.66 76.1 0 0 35.69 144.51
  Q 35.57 142.93 36.45 141.65
  A 0.34 0.34 24.8 0 0 36.26 141.14
  Q 34.65 140.69 35.70 139.15
  A 0.66 0.66 42.9 0 0 35.67 138.37
  Q 34.66 137.11 35.69 136.77
  A 1.25 1.25 88.7 0 0 36.50 135.92
  Q 37.38 132.71 35.82 133.87
  A 1.10 0.49 -42.3 0 1 34.94 134.16
  Q 34.50 133.97 35.18 133.00
  A 2.77 2.74 60.0 0 0 35.66 131.18
  Q 35.38 128.19 36.77 128.37
  A 0.99 0.66 17.1 0 0 37.58 128.13
  Q 39.21 126.17 38.26 123.76
  A 1.07 1.06 47.7 0 1 38.30 122.88
  Q 39.37 120.80 38.47 118.71
  A 0.70 0.65 58.8 0 1 38.63 117.93
  C 39.88 116.82 42.79 112.61 38.46 113.39
  Q 37.20 113.62 37.99 112.18
  A 1.05 1.04 49.0 0 0 38.05 111.29
  C 37.61 110.19 37.16 103.82 39.79 104.80
  A 1.85 0.98 34.6 0 0 40.74 104.91
  C 44.34 104.17 41.49 102.08 40.68 100.94
  Q 39.36 99.09 38.16 97.61
  Q 36.05 95.03 38.43 92.69
  Q 41.02 90.15 44.25 88.96
  Q 45.48 88.98 46.25 88.04
  Q 48.22 87.44 47.46 85.63
  A 0.16 0.16 80.2 0 1 47.61 85.41
  Q 50.69 85.52 50.97 83.25
  Q 51.04 82.66 51.28 82.34
  Q 52.53 80.64 52.08 83.51
  A 0.50 0.48 8.1 0 0 52.51 84.06
  C 56.09 84.61 59.56 87.99 62.59 89.96
  Q 63.08 90.27 63.47 90.70
  Q 66.93 94.52 70.26 94.57
  A 0.48 0.33 4.8 0 1 70.75 94.97
  C 70.59 95.69 68.14 96.28 70.26 96.89
  A 1.66 1.41 73.6 0 1 71.04 97.40
  L 72.83 99.46
  A 1.21 0.74 37.8 0 1 73.15 100.31
  L 72.56 104.20
  A 0.47 0.42 13.8 0 1 71.97 104.52
  Q 69.37 103.68 70.49 106.48
  A 0.37 0.36 -15.2 0 1 70.20 106.97
  L 69.00 107.14
  A 1.36 0.86 -67.3 0 0 68.23 107.68
  Q 67.48 108.71 66.19 108.90
  A 0.51 0.46 -8.6 0 0 65.75 109.44
  Q 66.21 112.12 68.94 112.19
  A 0.96 0.74 -68.5 0 0 69.68 111.75
  Q 70.50 110.55 71.83 111.24
  A 1.28 1.11 47.4 0 0 72.72 111.34
  Q 74.33 110.86 76.01 111.15
  A 1.36 1.26 -54.0 0 0 76.91 110.97
  C 79.37 109.45 81.73 111.07 84.31 109.02
  C 87.15 106.78 82.73 112.20 85.74 110.68
  Q 86.09 110.50 86.44 110.01
  Q 87.15 109.00 88.51 109.16
  A 1.86 1.73 -51.4 0 0 89.45 109.02
  Q 90.79 108.44 91.94 109.34
  A 1.60 0.94 53.3 0 0 92.82 109.71
  Q 93.94 109.68 94.90 109.10
  A 1.85 1.28 -51.4 0 1 95.80 108.83
  Q 98.69 108.95 101.56 108.68
  C 103.55 108.50 106.04 109.22 108.32 108.00
  Q 108.54 107.88 109.25 107.77
  L 113.27 107.17
  A 1.11 0.66 -18.7 0 1 114.10 107.35
  Q 115.85 108.96 118.26 109.42
  Q 118.79 109.52 118.43 109.89
  Q 117.67 110.66 116.50 110.57
  A 0.83 0.75 16.4 0 0 115.75 110.93
  C 115.08 112.00 112.05 115.57 110.71 113.97
  A 1.16 0.68 59.7 0 0 109.93 113.53
  C 109.07 113.59 106.49 114.57 107.84 115.70
  A 0.69 0.67 30.3 0 1 108.05 116.45
  Q 107.46 117.99 108.62 119.16
  A 0.75 0.74 -57.2 0 1 108.79 119.95
  Q 108.37 121.06 109.00 122.04
  Z
  M 105.32 112.24
  Q 104.70 113.18 105.82 113.08
  Q 108.93 112.80 108.09 111.62
  A 1.06 0.93 -16.4 0 0 107.25 111.23
  Q 105.96 111.27 105.32 112.24
  Z"
/>
<path fill="#6d4e13" fill-opacity="0.878" d="
  M 355.50 86.79
  L 354.96 87.25
  Q 353.87 87.61 353.32 86.99
  A 0.36 0.34 -25.3 0 1 353.54 86.42
  Q 354.50 86.23 355.50 86.79
  Z"
/>
<path fill="#3f2d06" fill-opacity="0.510" d="
  M 130.32 87.77
  C 129.06 88.24 129.80 85.16 130.58 87.02
  A 0.58 0.51 67.8 0 1 130.32 87.77
  Z"
/>
<path fill="#6d4e13" fill-opacity="0.878" d="
  M 45.71 87.50
  Q 45.39 88.32 44.54 88.25
  C 44.35 86.86 46.62 86.10 45.71 87.50
  Z"
/>
<path fill="#d09607" d="
  M 355.50 86.79
  Q 357.06 88.11 358.96 88.68
  A 0.65 0.61 -80.7 0 1 359.39 89.32
  Q 359.33 91.23 361.20 90.92
  A 0.69 0.68 70.1 0 1 361.91 91.26
  Q 362.86 92.94 364.17 91.62
  A 1.73 0.99 -60.2 0 1 364.99 91.14
  C 368.53 90.54 367.41 94.57 369.75 96.06
  A 1.27 1.15 -81.5 0 1 370.25 96.81
  L 371.39 101.98
  A 0.48 0.45 87.1 0 1 370.89 102.56
  Q 370.23 102.46 370.06 102.70
  Q 369.77 103.12 370.56 103.18
  C 371.95 103.29 373.04 106.98 371.34 105.86
  A 1.13 0.69 43.6 0 0 370.45 105.67
  Q 369.34 106.13 369.15 108.45
  A 1.07 1.05 -3.2 0 1 368.28 109.41
  Q 362.66 110.40 365.78 114.11
  A 1.01 1.01 -50.5 0 0 367.43 113.95
  C 368.60 111.87 372.57 114.28 371.26 111.92
  A 0.66 0.57 55.4 0 1 371.35 111.14
  Q 372.26 110.35 373.34 110.97
  A 1.73 1.06 46.2 0 0 374.25 111.21
  C 376.62 110.97 379.38 111.41 381.51 110.88
  A 0.67 0.65 68.1 0 1 382.23 111.20
  Q 383.37 113.20 385.21 111.43
  A 1.42 1.21 -64.5 0 1 386.06 111.05
  L 394.75 110.75
  Q 397.86 110.64 398.75 110.75
  L 400.51 110.96
  A 1.90 1.12 -42.2 0 0 401.44 110.77
  C 404.07 109.48 403.21 113.06 401.06 113.49
  A 0.58 0.58 84.6 0 0 400.59 114.06
  Q 400.59 116.38 397.86 114.44
  A 0.84 0.83 30.2 0 0 396.62 114.76
  Q 394.40 119.41 398.82 117.91
  C 399.98 117.51 401.77 118.08 398.86 119.05
  A 1.05 1.04 71.3 0 0 398.20 120.40
  Q 398.98 122.58 397.49 122.37
  Q 396.88 122.28 396.53 122.40
  Q 394.47 123.08 392.97 124.42
  A 1.14 1.14 -47.6 0 0 393.05 126.18
  Q 395.39 127.92 398.20 127.29
  Q 400.51 126.78 400.31 129.26
  A 1.93 1.29 -65.9 0 0 400.47 130.19
  C 401.18 131.56 406.44 136.28 401.38 134.73
  A 0.43 0.43 -82.4 0 0 400.82 135.16
  Q 400.91 137.54 398.40 135.34
  A 1.50 1.49 -48.6 0 0 396.30 135.48
  C 391.91 140.44 391.24 135.01 387.94 136.53
  Q 387.50 136.73 387.00 136.71
  C 382.97 136.59 385.35 140.38 384.06 140.76
  A 1.13 0.47 -10.7 0 0 383.31 141.25
  Q 383.08 141.84 383.93 141.85
  A 0.50 0.45 0.6 0 1 384.43 142.31
  C 384.40 144.25 385.06 149.97 382.42 148.29
  A 0.40 0.35 25.0 0 0 381.84 148.46
  Q 381.30 150.23 383.01 150.08
  A 1.16 0.81 -18.9 0 1 383.88 150.33
  C 386.01 152.50 380.20 151.54 382.94 154.90
  A 3.12 3.12 -63.2 0 1 383.64 157.03
  C 383.54 159.38 383.62 166.59 380.91 167.77
  C 379.76 168.27 378.58 167.81 378.00 169.50
  Q 377.63 170.59 378.75 170.35
  C 382.22 169.63 378.21 172.71 381.19 172.40
  A 0.37 0.36 -0.1 0 1 381.60 172.80
  Q 381.42 174.49 382.83 175.49
  A 0.36 0.35 44.1 0 1 382.84 176.06
  C 379.99 178.26 377.56 180.51 375.81 183.93
  Q 374.74 186.04 373.25 187.50
  C 370.57 190.14 373.51 190.72 372.92 192.75
  Q 372.60 193.84 370.61 193.45
  A 1.10 1.10 88.8 0 0 369.33 194.79
  Q 370.13 198.06 367.98 197.42
  A 1.23 0.77 27.5 0 0 367.07 197.49
  Q 366.01 198.21 366.88 199.43
  A 1.14 0.89 39.5 0 1 367.07 200.30
  Q 366.57 202.03 365.00 203.04
  Q 362.14 202.31 364.75 203.54
  L 362.82 207.11
  A 1.20 0.77 1.8 0 1 362.01 207.59
  L 357.57 208.36
  Q 356.59 208.52 357.47 208.98
  C 360.07 210.35 355.54 214.65 354.31 214.81
  Q 350.31 215.35 347.60 214.39
  Q 345.02 213.47 342.42 214.36
  C 335.24 216.80 340.50 210.29 338.79 209.37
  A 0.68 0.54 22.5 0 1 338.42 208.70
  Q 338.93 206.82 340.81 206.40
  A 0.84 0.73 -2.1 0 0 341.42 205.83
  L 341.58 205.17
  Q 341.68 204.73 342.04 204.33
  Q 343.46 202.77 343.35 200.56
  Q 343.33 200.15 343.58 199.63
  L 344.59 197.47
  A 0.72 0.57 34.1 0 0 344.35 196.70
  C 342.27 195.02 345.57 194.92 346.43 194.32
  Q 348.95 192.56 349.06 189.45
  A 0.70 0.64 11.4 0 0 348.59 188.80
  Q 346.81 188.18 346.59 186.31
  A 0.79 0.67 76.4 0 1 346.98 185.54
  Q 347.55 185.28 348.30 185.55
  A 0.39 0.39 -75.4 0 0 348.81 185.25
  Q 349.24 182.76 351.81 182.58
  A 1.38 1.02 12.9 0 0 352.66 182.21
  Q 355.21 179.50 354.50 175.25
  Q 354.26 173.80 355.40 172.59
  A 0.49 0.41 45.1 0 1 356.06 172.65
  Q 356.89 173.54 357.81 172.31
  A 3.54 0.76 87.7 0 0 358.25 169.75
  Q 358.26 168.78 358.89 168.09
  A 1.14 0.61 -40.1 0 0 359.23 167.24
  L 358.94 165.95
  A 0.86 0.67 66.1 0 1 359.13 165.19
  Q 359.96 164.45 360.41 163.50
  Q 360.91 162.42 359.77 162.74
  C 356.33 163.73 360.34 160.24 358.54 158.84
  A 0.95 0.94 37.3 0 1 358.36 157.53
  Q 359.71 155.70 358.94 154.31
  A 2.17 0.46 -82.9 0 1 358.81 152.81
  L 359.64 140.19
  A 1.32 0.98 -25.2 0 1 360.08 139.37
  Q 361.66 137.97 359.22 137.50
  Q 357.66 137.19 356.06 137.23
  Q 353.92 137.29 353.30 138.83
  A 3.03 3.02 -86.3 0 1 351.23 140.65
  Q 349.16 141.17 349.63 143.52
  A 1.60 1.21 58.3 0 1 349.54 144.46
  L 347.17 149.25
  A 0.84 0.74 12.2 0 1 346.43 149.66
  Q 343.80 149.58 345.33 151.21
  A 1.33 0.89 32.3 0 1 345.71 152.06
  Q 345.67 153.28 344.25 152.25
  Q 342.83 151.21 343.25 152.75
  Q 343.98 155.41 343.16 158.03
  A 1.24 1.04 -7.6 0 1 342.55 158.70
  Q 341.10 159.41 340.20 160.76
  A 1.04 0.45 -60.6 0 1 339.47 161.32
  Q 338.88 161.26 339.83 159.16
  Q 340.24 158.26 339.54 158.96
  Q 336.88 161.61 336.48 158.06
  A 0.76 0.68 6.0 0 0 335.94 157.46
  Q 333.71 156.83 334.96 153.16
  Q 335.16 152.56 335.21 151.93
  Q 335.27 151.10 334.31 151.13
  A 0.30 0.27 11.3 0 1 334.02 150.74
  L 335.06 148.75
  A 0.77 0.67 16.3 0 1 335.81 148.40
  Q 337.64 148.65 336.80 147.39
  A 1.27 0.93 -7.0 0 0 335.99 146.94
  C 332.71 146.50 338.21 145.68 337.91 143.17
  A 0.90 0.87 -83.4 0 0 337.37 142.46
  C 335.84 141.84 333.71 145.80 332.69 146.74
  A 1.90 1.21 87.3 0 0 332.22 147.56
  L 331.87 148.72
  A 0.47 0.41 20.7 0 1 331.25 148.95
  Q 329.95 148.37 328.71 149.15
  A 0.31 0.30 69.0 0 1 328.25 148.94
  Q 327.79 146.47 325.45 147.52
  A 1.54 1.09 -41.9 0 1 324.51 147.63
  Q 322.70 147.10 325.21 146.27
  A 1.60 1.60 -10.9 0 0 326.29 144.68
  C 326.15 142.08 329.06 141.25 327.14 140.02
  A 0.40 0.40 -45.3 0 1 327.14 139.35
  Q 328.48 138.45 329.35 136.76
  A 1.26 1.01 -0.0 0 1 330.05 136.20
  C 331.61 135.69 331.89 129.93 332.36 128.23
  A 1.32 1.06 -12.1 0 1 332.94 127.52
  Q 334.20 126.77 334.49 125.32
  A 0.67 0.66 1.8 0 1 335.06 124.79
  C 337.32 124.51 336.48 117.88 336.65 115.57
  A 1.17 0.86 29.6 0 0 336.29 114.76
  Q 335.43 113.92 336.77 112.62
  A 1.43 1.42 70.5 0 0 337.18 111.75
  Q 337.55 107.73 338.99 104.78
  Q 339.51 103.71 338.72 102.99
  A 0.89 0.44 39.2 0 1 338.36 102.20
  Q 338.49 101.89 338.93 101.88
  A 0.83 0.54 3.9 0 0 339.65 101.48
  Q 339.94 100.54 338.75 99.96
  Q 338.75 99.28 339.21 98.75
  Q 340.64 97.55 340.54 95.75
  Q 341.59 95.78 341.93 95.19
  Q 345.01 95.22 344.22 92.54
  Q 344.09 92.10 344.52 92.27
  Q 345.84 92.79 347.20 92.55
  A 1.44 0.96 -68.5 0 0 347.96 92.02
  Q 348.66 91.09 349.81 90.87
  A 1.22 1.18 11.7 0 0 350.58 90.38
  Q 351.87 88.50 354.24 88.69
  C 355.29 88.77 356.76 88.72 354.96 87.25
  L 355.50 86.79
  Z
  M 339.29 110.26
  C 339.87 107.53 337.09 111.01 338.77 110.78
  A 0.68 0.61 -86.8 0 0 339.29 110.26
  Z
  M 393.42 136.51
  Q 394.20 136.34 393.60 135.61
  A 0.76 0.70 58.0 0 0 392.76 135.38
  Q 392.13 135.64 392.59 136.21
  A 0.85 0.82 64.0 0 0 393.42 136.51
  Z
  M 328.8141 139.6859
  A 0.97 0.48 135.0 0 0 329.8394 139.3394
  A 0.97 0.48 135.0 0 0 330.1859 138.3141
  A 0.97 0.48 135.0 0 0 329.1606 138.6606
  A 0.97 0.48 135.0 0 0 328.8141 139.6859
  Z
  M 335.60 155.50
  Q 335.78 155.77 336.09 155.74
  A 0.68 0.55 87.7 0 0 336.59 155.07
  Q 336.58 153.91 335.75 154.72
  A 0.68 0.56 -39.6 0 0 335.60 155.50
  Z
  M 382.09 162.34
  Q 381.89 162.13 381.65 162.21
  A 0.59 0.45 68.8 0 0 381.43 162.96
  Q 381.94 164.17 382.23 163.10
  A 0.87 0.63 -64.6 0 0 382.09 162.34
  Z
  M 380.34 165.82
  C 380.08 167.28 383.12 164.58 380.81 165.31
  A 0.71 0.64 -5.1 0 0 380.34 165.82
  Z
  M 373.25 184.36
  C 373.04 185.73 376.69 182.52 373.59 183.94
  A 0.58 0.51 -9.7 0 0 373.25 184.36
  Z
  M 345.58 212.37
  C 348.39 208.58 342.76 210.48 344.08 212.35
  A 0.92 0.92 45.7 0 0 345.58 212.37
  Z"
/>
<path fill="#3f2d06" fill-opacity="0.510" d="
  M 45.71 87.50
  Q 45.67 88.08 46.25 88.04
  Q 45.48 88.98 44.25 88.96
  Q 44.50 88.65 44.54 88.25
  Q 45.39 88.32 45.71 87.50
  Z"
/>
<path fill="#d09607" d="
  M 192.54 170.25
  Q 193.69 170.24 194.25 169.29
  C 196.80 165.97 201.43 169.49 198.86 162.17
  A 2.73 2.73 -1.3 0 0 197.06 160.45
  Q 195.84 160.08 196.88 159.07
  A 0.62 0.57 53.7 0 0 196.96 158.34
  L 196.74 157.96
  A 0.71 0.58 -41.4 0 1 196.86 157.24
  Q 197.92 156.00 197.85 154.31
  A 0.44 0.40 -87.9 0 1 198.30 153.85
  L 198.77 153.91
  A 1.36 0.99 24.5 0 0 199.65 153.73
  Q 201.47 152.40 199.24 151.85
  A 0.38 0.35 -70.5 0 1 199.02 151.33
  L 200.24 148.60
  A 0.39 0.37 -55.2 0 1 200.86 148.47
  C 203.13 150.92 202.97 146.82 203.20 145.80
  A 0.72 0.66 1.9 0 1 203.81 145.28
  Q 205.29 145.11 206.26 143.97
  A 1.05 0.66 -58.9 0 1 207.07 143.56
  L 209.31 143.94
  A 2.40 0.71 12.7 0 0 211.31 143.81
  Q 212.61 142.54 213.32 144.45
  A 1.35 1.35 -17.2 0 0 214.92 145.29
  C 219.26 144.16 217.63 149.81 221.01 148.49
  Q 222.34 147.98 221.97 149.35
  Q 221.30 151.88 223.70 153.07
  Q 225.24 153.83 225.35 155.55
  Q 225.43 156.69 226.61 157.70
  A 0.89 0.76 27.8 0 1 226.93 158.49
  L 226.62 160.02
  A 1.84 1.83 -49.4 0 0 226.69 160.96
  C 227.70 163.91 221.93 162.58 225.34 165.17
  A 1.18 1.10 -51.5 0 1 225.47 166.80
  L 224.36 168.15
  A 1.10 1.03 -33.3 0 0 224.14 169.07
  C 224.65 171.16 227.36 169.21 228.34 168.54
  A 0.69 0.50 -35.8 0 1 229.16 168.54
  C 230.15 169.73 223.19 170.88 229.68 172.21
  A 1.05 1.05 23.8 0 1 230.32 173.85
  Q 229.12 175.51 230.42 177.13
  A 1.13 0.80 38.8 0 1 230.67 178.00
  Q 230.40 179.09 229.41 178.16
  Q 229.00 177.77 229.37 178.20
  Q 231.82 181.12 231.15 183.57
  C 230.98 184.15 230.90 184.92 231.78 184.69
  A 1.04 0.59 -22.0 0 1 232.65 184.81
  C 234.43 186.54 229.21 186.98 230.76 188.98
  A 2.16 2.16 40.2 0 1 230.96 191.35
  Q 229.49 194.09 230.94 194.11
  A 0.41 0.33 7.8 0 1 231.35 194.55
  L 230.04 198.61
  A 0.93 0.72 2.9 0 1 229.31 199.12
  L 224.93 199.63
  A 0.94 0.85 -78.2 0 0 224.23 200.14
  Q 222.40 203.74 218.38 201.79
  A 1.52 1.08 43.3 0 0 217.45 201.66
  L 213.17 202.75
  Q 211.01 203.30 209.63 202.00
  Q 204.92 197.56 204.23 191.07
  A 0.62 0.56 88.6 0 0 203.70 190.51
  Q 200.97 190.31 200.29 192.94
  A 0.90 0.78 -88.4 0 1 199.71 193.57
  C 196.07 194.57 184.73 192.81 183.21 195.79
  A 1.25 0.59 -71.2 0 1 182.55 196.47
  C 181.78 196.64 182.07 193.51 180.98 195.16
  C 180.69 195.60 180.56 199.69 179.33 195.79
  A 0.51 0.46 71.5 0 0 178.71 195.44
  C 176.53 196.28 179.27 199.88 177.16 199.56
  A 1.37 1.35 27.4 0 0 176.05 199.90
  Q 173.14 202.53 170.45 201.46
  A 1.97 1.37 42.7 0 0 169.51 201.33
  Q 163.55 202.33 162.00 203.25
  C 158.36 205.42 157.17 203.23 154.56 201.35
  C 152.22 199.66 153.13 196.18 150.49 196.43
  A 1.01 0.99 64.7 0 1 149.67 196.13
  Q 148.51 194.93 146.91 194.70
  A 1.06 1.05 3.8 0 1 146.00 193.67
  Q 145.98 190.78 145.00 188.28
  A 0.28 0.27 -6.2 0 1 145.30 187.91
  Q 147.29 188.20 146.60 186.06
  A 0.91 0.87 -43.6 0 1 146.63 185.44
  Q 147.64 183.04 146.75 182.75
  Q 144.79 182.11 146.75 181.75
  C 147.62 181.59 152.32 182.22 151.88 180.76
  A 0.75 0.60 -7.0 0 0 151.18 180.33
  C 146.58 180.43 151.91 178.31 152.16 175.68
  A 0.84 0.80 -10.2 0 1 152.65 175.01
  Q 153.61 174.58 154.25 173.79
  L 154.75 173.71
  C 156.66 172.52 159.50 172.17 160.59 170.25
  Q 160.80 169.88 161.25 169.59
  Q 162.47 168.82 162.09 166.82
  A 0.93 0.91 64.4 0 1 162.38 165.97
  C 166.19 162.60 164.70 156.49 168.85 151.80
  Q 169.15 151.47 169.26 150.94
  L 170.37 145.73
  A 0.55 0.54 -74.1 0 0 170.03 145.10
  C 166.95 144.01 172.39 143.81 170.81 141.39
  A 1.45 1.20 35.9 0 1 170.58 140.51
  Q 170.76 139.00 170.02 137.68
  A 1.13 0.97 43.5 0 1 169.93 136.78
  C 170.69 134.81 172.76 131.01 171.33 129.13
  A 1.80 1.53 -70.7 0 1 170.99 128.25
  L 170.66 125.30
  A 0.47 0.45 83.8 0 1 171.06 124.78
  Q 173.08 124.59 172.09 123.37
  A 0.85 0.71 -24.2 0 0 171.26 123.14
  Q 168.76 123.76 171.62 121.30
  A 0.42 0.42 -55.6 0 0 171.49 120.59
  Q 169.54 119.87 171.35 119.01
  A 1.42 1.10 -85.5 0 0 171.96 118.34
  L 175.08 111.05
  A 0.78 0.26 -62.5 0 0 175.18 110.42
  C 174.63 109.48 172.82 114.07 172.05 113.63
  A 0.78 0.49 -66.5 0 1 171.92 112.78
  C 172.58 111.11 175.47 108.55 173.88 107.06
  A 0.47 0.45 44.1 0 1 173.86 106.40
  C 176.62 103.67 177.46 98.36 180.19 94.89
  A 0.90 0.87 54.8 0 0 180.32 94.04
  L 180.19 93.68
  A 0.70 0.50 -39.9 0 1 180.35 93.07
  L 181.50 91.69
  A 1.27 0.68 70.5 0 0 181.64 90.76
  C 181.29 88.74 183.01 90.54 183.80 90.61
  Q 184.92 90.70 186.17 89.81
  A 0.47 0.46 -38.6 0 0 186.25 89.13
  Q 184.37 86.97 187.08 87.86
  A 3.64 3.61 -41.8 0 0 188.95 87.96
  Q 191.36 87.45 192.73 89.33
  A 1.89 1.11 71.0 0 0 193.45 89.95
  Q 195.30 90.69 197.25 90.55
  A 1.00 0.86 -18.9 0 1 198.07 90.88
  C 202.05 95.88 196.53 96.39 195.81 99.56
  C 194.74 104.29 200.47 99.62 200.71 97.85
  C 200.79 97.29 200.16 96.25 200.97 95.76
  Q 201.43 95.48 201.40 96.06
  Q 201.24 99.16 203.74 97.20
  A 0.95 0.94 41.5 0 1 204.81 97.14
  Q 206.47 98.15 204.98 99.28
  A 0.44 0.39 -42.3 0 0 204.91 99.93
  Q 205.34 100.31 205.94 100.47
  A 0.73 0.68 5.3 0 1 206.47 101.06
  Q 206.70 103.36 208.56 105.49
  A 0.60 0.60 53.8 0 1 208.42 106.40
  Q 207.10 107.17 208.27 108.04
  A 0.96 0.86 22.0 0 1 208.65 108.82
  L 208.53 110.76
  Q 208.50 111.21 208.72 111.69
  Q 210.18 114.96 207.24 116.92
  A 1.23 0.90 28.5 0 1 206.34 117.04
  Q 204.59 116.63 205.93 119.46
  A 0.38 0.37 -17.8 0 1 205.65 119.99
  Q 202.96 120.47 203.56 123.21
  A 0.49 0.42 80.9 0 1 203.20 123.80
  Q 202.39 123.86 201.90 123.01
  A 0.47 0.40 56.8 0 0 201.27 122.82
  Q 200.32 123.53 200.93 124.76
  A 0.75 0.73 -39.9 0 1 200.85 125.56
  C 199.88 126.83 201.45 129.20 199.99 129.10
  A 0.89 0.57 11.5 0 0 199.22 129.40
  C 198.45 130.81 202.50 132.23 199.53 133.41
  A 1.49 0.83 -73.7 0 0 198.89 134.04
  L 197.08 137.12
  A 0.62 0.51 -53.9 0 0 197.12 137.82
  C 198.54 139.23 197.99 140.74 196.79 142.20
  Q 193.46 146.26 192.86 151.56
  A 0.61 0.44 -82.3 0 1 192.32 152.13
  C 191.73 152.01 192.23 147.94 190.06 150.56
  Q 187.93 153.15 187.55 156.00
  A 1.67 0.62 54.9 0 0 187.79 156.92
  Q 188.27 157.88 187.14 158.97
  A 1.39 1.39 -40.3 0 0 186.99 160.80
  C 189.89 164.68 183.53 160.71 185.55 164.66
  A 1.43 1.42 -35.9 0 1 185.28 166.34
  C 184.43 167.15 180.41 174.15 185.06 171.98
  A 1.55 1.46 -50.6 0 1 185.98 171.86
  Q 189.57 172.56 192.54 170.25
  Z
  M 190.31 88.95
  Q 188.66 89.05 190.04 89.78
  A 1.30 0.97 42.6 0 0 190.98 89.88
  Q 191.56 89.68 191.19 89.26
  A 1.20 0.87 -16.7 0 0 190.31 88.95
  Z
  M 197.01 95.47
  A 0.36 0.35 73.3 0 0 197.51 95.74
  Q 198.51 95.29 198.50 94.31
  A 0.99 0.91 17.2 0 0 198.03 93.51
  Q 196.61 92.62 197.01 95.47
  Z
  M 207.03 113.69
  Q 206.89 113.98 207.09 114.21
  A 0.69 0.54 -37.2 0 0 207.93 114.22
  Q 209.02 113.44 207.78 113.33
  A 0.80 0.63 12.8 0 0 207.03 113.69
  Z
  M 195.6337 135.2172
  A 1.57 1.34 120.9 0 0 197.5898 134.5581
  A 1.57 1.34 120.9 0 0 197.2463 132.5228
  A 1.57 1.34 120.9 0 0 195.2902 133.1819
  A 1.57 1.34 120.9 0 0 195.6337 135.2172
  Z
  M 207.96 144.89
  C 208.84 142.21 205.81 145.89 207.39 145.48
  A 0.91 0.77 -86.1 0 0 207.96 144.89
  Z
  M 207.43 196.42
  Q 207.66 199.25 207.41 196.20
  Q 207.30 194.79 207.43 196.42
  Z
  M 228.94 196.59
  Q 228.75 196.81 228.79 197.06
  A 0.53 0.45 -15.5 0 0 229.48 197.38
  Q 230.13 197.13 229.66 196.62
  A 0.51 0.46 44.7 0 0 228.94 196.59
  Z"
/>
<path fill="#ab7d1e" fill-opacity="0.961" d="
  M 261.00 94.46
  Q 260.12 95.33 260.50 96.46
  Q 260.10 96.50 259.79 96.75
  Q 259.54 94.70 260.15 92.78
  A 0.34 0.32 -59.4 0 1 260.70 92.62
  Q 261.33 93.28 261.00 94.46
  Z"
/>
<path fill="#d09607" d="
  M 527.81 123.40
  Q 529.24 123.42 527.98 125.41
  A 2.05 1.90 -41.7 0 0 527.80 127.27
  L 528.79 129.55
  A 1.60 1.17 47.8 0 1 528.89 130.50
  C 528.29 132.56 528.16 128.66 527.24 129.62
  A 0.97 0.57 67.2 0 0 527.13 130.43
  Q 527.60 132.34 525.19 130.92
  A 1.26 1.26 28.0 0 0 523.42 131.46
  Q 521.94 134.52 524.81 134.56
  Q 527.23 134.60 525.00 136.00
  C 523.66 136.84 523.49 138.19 522.74 139.08
  Q 521.35 140.72 519.23 141.37
  A 0.90 0.74 56.1 0 1 518.42 141.13
  Q 517.43 140.16 516.37 140.93
  A 1.41 1.15 -55.8 0 1 515.50 141.19
  C 513.01 140.93 509.49 142.61 507.59 141.36
  A 1.31 1.31 57.0 0 0 506.70 141.17
  Q 505.08 141.43 505.24 139.69
  A 0.45 0.44 -87.0 0 0 504.81 139.20
  Q 502.45 139.12 501.69 136.81
  Q 500.87 134.34 498.75 136.00
  Q 494.99 138.94 493.33 134.69
  C 491.67 130.46 492.10 135.73 492.00 135.77
  A 0.96 0.62 58.0 0 1 491.17 135.38
  Q 489.85 133.73 490.56 131.72
  A 1.45 1.00 -54.9 0 0 490.57 130.79
  Q 489.85 129.14 488.40 128.04
  A 1.01 0.96 -71.9 0 1 488.03 127.26
  Q 488.07 125.29 486.44 124.06
  A 2.75 1.52 27.6 0 1 485.25 122.25
  Q 485.26 121.46 484.80 120.91
  A 1.09 0.51 44.4 0 1 484.48 120.06
  Q 484.59 119.74 484.96 119.57
  A 0.78 0.59 -16.5 0 0 485.42 118.94
  L 485.08 109.95
  Q 485.07 109.47 484.79 109.01
  Q 483.30 106.51 485.95 106.86
  A 0.58 0.58 11.8 0 0 486.58 106.45
  Q 487.26 104.24 488.34 102.20
  C 489.92 99.24 493.13 98.27 496.10 97.13
  A 1.04 1.04 75.4 0 0 496.75 96.02
  C 496.55 94.49 500.08 94.42 501.10 94.49
  A 1.08 1.08 4.6 0 0 502.25 93.52
  Q 502.41 91.83 503.59 92.48
  Q 503.96 92.68 504.49 92.68
  L 509.06 92.63
  A 1.50 0.66 48.0 0 1 509.94 93.03
  Q 511.69 94.43 513.69 92.91
  A 1.72 1.72 -36.2 0 1 516.15 93.29
  Q 517.73 95.56 519.17 94.90
  Q 520.38 94.34 520.26 95.67
  Q 520.11 97.25 522.16 96.94
  A 0.95 0.94 -12.7 0 0 522.92 95.75
  Q 522.58 94.57 523.85 95.00
  A 1.49 1.45 -43.8 0 0 524.78 95.01
  C 528.01 93.99 527.75 101.17 527.75 104.24
  A 1.33 0.85 31.1 0 0 528.15 105.05
  L 530.47 107.35
  A 0.91 0.83 -38.0 0 1 530.24 108.70
  Q 528.99 109.48 528.83 110.81
  A 0.77 0.72 85.5 0 1 528.33 111.44
  Q 526.41 112.07 528.37 113.83
  A 0.62 0.62 43.8 0 1 528.39 114.73
  C 526.26 116.90 529.40 118.43 527.89 119.46
  A 1.51 0.53 -27.4 0 0 527.25 120.14
  Q 526.90 121.17 528.04 120.36
  A 0.66 0.59 -40.3 0 1 528.83 120.38
  C 530.42 121.87 527.42 121.62 527.27 122.95
  A 0.54 0.40 3.0 0 0 527.81 123.40
  Z
  M 513.44 94.19
  C 512.81 96.02 516.83 95.19 515.00 93.50
  A 1.14 0.89 -62.0 0 0 513.44 94.19
  Z
  M 524.48 96.89
  Q 524.40 97.21 524.60 97.45
  A 0.72 0.57 -32.6 0 0 525.44 97.53
  Q 526.82 96.76 525.18 96.50
  A 0.63 0.53 10.9 0 0 524.48 96.89
  Z"
/>
<path fill="#c38e1e" fill-opacity="0.980" d="
  M 341.93 95.19
  Q 341.59 95.78 340.54 95.75
  C 340.17 93.87 343.65 92.11 341.93 95.19
  Z"
/>
<path fill="#ab7d1e" fill-opacity="0.961" d="
  M 128.46 95.25
  Q 128.86 96.22 129.80 95.55
  C 131.41 94.39 130.36 98.32 127.75 96.29
  Q 128.39 96.10 128.46 95.25
  Z"
/>
<path fill="#ab7d1e" fill-opacity="0.961" d="
  M 339.21 98.75
  Q 338.75 99.28 338.75 99.96
  Q 337.06 103.38 337.35 99.00
  A 3.18 3.16 66.4 0 1 338.05 97.19
  C 339.98 94.77 337.94 98.68 339.21 98.75
  Z"
/>
<path fill="#d09607" d="
  M 475.81 181.35
  Q 477.26 181.23 477.08 183.00
  Q 477.02 183.59 477.18 183.97
  L 478.23 186.49
  A 0.57 0.53 -27.8 0 1 477.99 187.17
  Q 476.79 187.91 477.73 189.07
  A 1.71 1.23 32.1 0 1 478.09 189.95
  C 478.21 192.99 478.30 194.92 476.86 197.85
  C 476.05 199.50 476.32 203.39 474.54 203.43
  A 0.54 0.54 -10.5 0 0 474.04 204.15
  Q 474.70 206.02 473.42 205.60
  Q 471.66 205.01 470.20 207.07
  A 2.71 2.68 -80.1 0 1 468.74 208.11
  Q 464.65 209.29 462.48 206.47
  A 1.28 0.83 65.0 0 0 461.70 205.98
  Q 460.42 205.88 459.34 207.20
  A 0.92 0.92 -41.0 0 1 457.85 207.10
  C 456.56 204.98 449.45 205.24 447.47 205.85
  Q 447.07 205.97 446.68 206.37
  Q 445.37 207.72 443.49 207.37
  A 1.69 1.69 38.9 0 0 442.54 207.47
  Q 440.15 208.46 438.91 206.25
  A 1.01 0.83 74.7 0 0 438.20 205.75
  Q 436.50 205.59 434.89 206.24
  Q 434.48 206.40 433.93 206.41
  Q 432.41 206.43 432.67 207.81
  A 0.56 0.56 82.5 0 1 432.17 208.47
  Q 429.22 208.71 431.10 210.21
  A 0.33 0.32 49.9 0 1 431.06 210.75
  Q 428.32 212.24 425.19 212.19
  Q 423.89 212.17 422.19 211.56
  Q 419.80 210.71 417.25 210.94
  Q 416.79 210.99 417.00 210.56
  Q 418.00 208.47 415.17 207.25
  Q 414.64 207.02 414.29 206.56
  Q 412.49 204.20 409.31 203.45
  Q 408.59 203.28 409.11 202.76
  Q 410.85 201.03 410.46 199.99
  A 1.03 0.63 1.0 0 0 409.70 199.51
  Q 408.32 199.29 409.83 198.34
  Q 411.59 197.22 410.22 194.84
  A 0.95 0.95 52.1 0 0 408.72 194.65
  Q 406.56 196.84 406.90 194.73
  A 1.90 1.59 -54.9 0 0 406.82 193.78
  C 406.61 193.24 405.50 191.37 406.21 190.92
  A 0.81 0.47 49.4 0 1 407.02 191.20
  C 409.18 193.46 412.17 188.49 409.06 188.32
  A 1.73 0.91 -45.5 0 0 408.16 188.61
  C 405.54 190.27 406.89 183.85 407.08 183.22
  A 1.28 1.21 41.7 0 0 407.00 182.31
  Q 406.21 180.69 408.00 180.52
  A 1.03 0.62 2.4 0 0 408.79 180.09
  Q 408.98 179.67 408.76 179.18
  A 0.68 0.52 61.6 0 1 408.88 178.43
  Q 409.99 177.62 411.29 178.06
  Q 411.85 178.25 412.26 178.19
  Q 414.79 177.81 416.80 176.25
  A 1.39 0.72 88.5 0 0 417.20 175.43
  Q 417.41 174.30 419.27 173.92
  Q 419.85 173.80 419.60 174.34
  Q 418.74 176.19 420.25 175.75
  Q 423.80 174.72 424.81 175.44
  Q 426.68 176.75 429.01 176.15
  A 1.53 1.35 -37.9 0 1 429.95 176.21
  Q 432.49 177.32 435.25 177.02
  Q 441.60 176.32 448.00 176.25
  Q 450.51 176.22 450.56 174.31
  Q 450.63 171.51 449.00 169.25
  Q 447.48 167.14 449.56 165.06
  Q 450.91 163.72 449.29 163.09
  A 0.61 0.59 15.5 0 1 448.91 162.45
  Q 449.13 161.05 448.68 159.71
  A 0.68 0.60 -29.3 0 1 448.93 158.99
  Q 449.71 158.40 449.43 157.46
  Q 449.31 157.03 449.31 156.50
  L 449.31 150.75
  Q 449.31 150.19 449.50 149.82
  Q 450.32 148.24 448.49 148.43
  A 1.39 0.82 -18.3 0 1 447.57 148.23
  Q 446.97 147.74 448.25 147.50
  Q 450.22 147.13 450.47 145.49
  A 0.78 0.76 -6.5 0 1 450.98 144.87
  Q 452.35 144.38 451.52 142.92
  Q 451.29 142.52 451.17 142.01
  Q 450.80 140.45 449.05 140.61
  A 0.73 0.72 -17.2 0 1 448.34 140.24
  Q 446.98 137.67 444.26 137.30
  C 442.26 137.04 439.60 136.50 440.09 139.69
  A 0.38 0.37 88.1 0 1 439.69 140.13
  L 439.00 140.05
  A 1.96 1.46 -47.3 0 0 438.05 140.23
  Q 435.74 141.31 434.85 139.04
  A 1.07 0.83 82.4 0 0 434.21 138.41
  Q 432.47 137.97 432.82 139.82
  A 1.20 0.96 62.8 0 1 432.64 140.71
  Q 429.98 144.25 425.73 145.38
  A 0.50 0.48 75.1 0 1 425.14 145.02
  Q 424.47 142.41 422.76 145.15
  Q 421.95 146.44 421.77 144.93
  Q 421.51 142.73 419.74 142.91
  A 1.20 0.84 -70.6 0 0 419.00 143.44
  C 416.91 146.81 410.25 142.73 407.80 141.32
  Q 406.55 140.60 407.99 140.69
  Q 412.18 140.95 410.78 138.66
  A 1.30 1.21 -56.7 0 1 410.63 137.78
  Q 410.88 136.52 409.77 135.90
  Q 409.37 135.67 409.06 135.26
  L 407.60 133.37
  A 0.57 0.42 53.5 0 1 407.60 132.65
  Q 407.97 132.38 408.51 132.42
  A 1.39 0.76 15.4 0 0 409.41 132.21
  Q 411.03 130.88 407.46 129.99
  A 1.31 1.30 79.7 0 1 406.70 129.46
  C 404.37 125.89 406.65 123.40 406.68 120.49
  Q 406.70 118.31 405.93 116.21
  A 1.27 1.03 52.3 0 1 405.95 115.30
  C 408.18 110.91 413.15 115.99 412.74 111.59
  A 0.63 0.62 78.6 0 1 413.17 110.93
  Q 415.69 110.14 414.03 109.38
  A 0.73 0.61 18.0 0 1 413.60 108.69
  Q 413.80 107.30 415.08 107.99
  A 0.95 0.75 40.2 0 0 415.94 108.02
  C 417.68 106.96 416.88 104.04 419.51 104.39
  Q 420.03 104.46 419.65 104.84
  Q 417.06 107.47 421.74 105.85
  C 425.55 104.54 427.05 109.16 429.84 107.30
  A 0.58 0.55 -36.8 0 1 430.57 107.38
  Q 432.70 109.82 435.94 110.15
  A 1.46 1.10 -54.5 0 0 436.83 109.87
  Q 437.92 109.05 439.25 108.82
  A 1.48 1.06 48.3 0 1 440.17 109.03
  C 442.68 110.55 446.18 109.40 448.95 109.11
  Q 449.32 109.07 449.89 109.28
  Q 451.33 109.81 454.03 108.91
  Q 454.60 108.72 455.19 108.84
  Q 457.65 109.35 458.33 106.92
  A 0.75 0.65 -83.0 0 1 458.94 106.37
  Q 460.22 106.27 461.34 106.97
  A 1.34 1.16 52.2 0 0 462.24 107.15
  Q 466.96 106.22 471.75 106.70
  A 1.33 1.01 -11.6 0 1 472.60 107.11
  L 477.66 113.40
  A 1.35 0.68 -74.5 0 1 477.84 114.31
  L 477.56 117.44
  A 1.48 0.87 40.5 0 0 477.87 118.33
  L 480.90 122.40
  A 1.23 0.84 40.4 0 1 481.15 123.31
  L 480.40 126.22
  A 1.40 0.61 -23.6 0 1 479.75 126.92
  Q 478.73 127.57 479.76 128.30
  A 0.80 0.70 24.9 0 1 480.09 129.05
  C 479.67 131.08 479.77 135.15 477.17 135.71
  A 1.34 1.34 89.4 0 0 476.15 136.76
  C 475.58 139.60 472.18 154.79 474.14 155.84
  A 1.24 1.24 -54.0 0 1 474.45 157.79
  Q 472.96 159.35 473.56 161.05
  A 0.58 0.56 66.0 0 1 473.31 161.73
  C 468.48 164.44 471.71 169.34 473.13 172.97
  A 1.01 0.96 -2.5 0 0 473.80 173.55
  Q 476.81 174.35 475.03 177.10
  A 1.18 0.86 -42.5 0 0 474.85 177.99
  Q 475.09 178.76 475.77 179.28
  A 0.61 0.56 -59.4 0 1 475.92 179.98
  L 475.46 180.97
  A 0.32 0.27 7.7 0 0 475.81 181.35
  Z
  M 438.27 110.60
  Q 438.16 111.07 438.70 111.03
  A 0.87 0.83 -79.7 0 0 439.43 110.50
  Q 439.72 109.80 438.85 110.04
  A 0.86 0.73 -3.8 0 0 438.27 110.60
  Z
  M 477.2064 114.3921
  A 0.64 0.51 15.6 0 0 476.7271 113.7288
  A 0.64 0.51 15.6 0 0 475.9736 114.0479
  A 0.64 0.51 15.6 0 0 476.4529 114.7112
  A 0.64 0.51 15.6 0 0 477.2064 114.3921
  Z
  M 407.53 115.78
  C 407.53 117.73 410.93 113.59 407.97 115.09
  A 0.82 0.75 -14.9 0 0 407.53 115.78
  Z
  M 429.05 142.71
  C 428.97 141.70 421.50 144.58 428.07 143.90
  A 1.11 1.10 -5.6 0 0 429.05 142.71
  Z
  M 464.12 163.83
  L 464.58 161.05
  A 0.90 0.87 26.5 0 0 464.30 160.25
  C 463.47 159.50 462.60 155.78 461.25 159.25
  C 460.32 161.64 462.20 165.74 462.31 168.69
  A 1.23 0.70 -81.9 0 0 462.65 169.56
  Q 462.89 169.74 463.20 169.76
  A 1.12 0.78 -64.3 0 0 464.00 169.31
  Q 465.67 167.14 464.33 164.74
  A 1.55 1.00 44.2 0 1 464.12 163.83
  Z
  M 461.76 172.48
  C 460.23 172.62 459.42 175.61 461.69 175.49
  A 1.01 0.99 14.8 0 0 462.50 175.03
  Q 463.16 173.99 462.53 172.90
  A 0.84 0.77 71.2 0 0 461.76 172.48
  Z"
/>
<path fill="#6d4e13" fill-opacity="0.878" d="
  M 35.33 107.45
  C 35.01 105.93 38.40 109.56 35.76 108.01
  A 0.97 0.81 12.5 0 1 35.33 107.45
  Z"
/>
<path fill="#3f2d06" fill-opacity="0.510" d="
  M 338.77 110.78
  C 337.09 111.01 339.87 107.53 339.29 110.26
  A 0.68 0.61 -86.8 0 1 338.77 110.78
  Z"
/>
<path fill="#3f2d06" fill-opacity="0.510" d="
  M 438.85 110.04
  Q 439.72 109.80 439.43 110.50
  A 0.87 0.83 -79.7 0 1 438.70 111.03
  Q 438.16 111.07 438.27 110.60
  A 0.86 0.73 -3.8 0 1 438.85 110.04
  Z"
/>
<ellipse fill="#3f2d06" fill-opacity="0.510" cx="0.00" cy="0.00" transform="translate(476.59,114.22) rotate(15.6)" rx="0.64" ry="0.51"/>
<path fill="#6d4e13" fill-opacity="0.878" d="
  M 234.29 117.00
  Q 234.19 117.33 233.79 117.25
  Q 233.25 115.95 233.91 115.10
  Q 234.26 114.64 234.37 115.24
  Q 234.52 116.08 234.29 117.00
  Z"
/>
<path fill="#ab7d1e" fill-opacity="0.961" d="
  M 110.96 123.75
  Q 109.91 123.16 109.50 122.04
  Q 111.75 121.00 110.96 123.75
  Z"
/>
<ellipse fill="#2e1f01" fill-opacity="0.235" cx="0.00" cy="0.00" transform="translate(318.13,133.00) rotate(125.0)" rx="0.86" ry="0.54"/>
<path fill="#d09607" d="
  M 110.79 134.09
  A 0.86 0.85 -85.7 0 0 111.47 134.89
  Q 114.67 135.54 113.69 133.76
  Q 113.22 132.91 114.16 133.15
  C 115.11 133.40 115.69 134.47 116.59 134.96
  Q 118.46 135.96 120.46 135.71
  C 124.10 135.26 127.47 135.80 131.07 135.90
  C 133.36 135.97 135.77 134.86 138.52 135.61
  A 1.52 1.06 31.3 0 0 139.47 135.55
  L 143.42 133.59
  A 1.62 1.54 -29.6 0 1 145.46 134.10
  Q 146.63 135.88 147.14 133.98
  A 0.69 0.67 -83.9 0 1 147.75 133.47
  Q 152.06 133.20 156.37 133.24
  C 162.82 133.30 154.05 136.29 159.75 136.50
  A 0.81 0.70 -8.0 0 1 160.45 136.95
  Q 161.19 138.80 158.81 138.02
  Q 157.85 137.70 158.49 138.49
  Q 160.46 140.90 157.66 140.99
  A 0.84 0.83 -5.7 0 0 156.86 141.96
  Q 157.42 145.17 155.44 146.50
  A 1.34 0.91 26.8 0 1 154.52 146.62
  Q 152.88 146.28 152.00 147.57
  A 1.08 1.08 -35.7 0 0 151.85 148.48
  Q 152.22 149.82 153.48 149.59
  Q 154.94 149.33 156.11 148.41
  Q 158.07 146.88 159.14 148.56
  A 0.68 0.67 49.6 0 0 160.21 148.65
  C 162.42 146.19 166.00 151.22 163.05 150.57
  Q 162.64 150.47 162.20 150.08
  Q 161.18 149.17 161.16 150.30
  A 1.00 0.64 22.7 0 0 161.65 151.01
  C 162.48 151.53 160.18 153.65 159.89 155.00
  A 0.47 0.47 -69.7 0 1 159.20 155.32
  Q 158.63 155.00 158.00 154.98
  A 1.53 0.88 -51.1 0 0 157.12 155.32
  C 155.59 156.51 152.59 154.83 153.78 157.32
  Q 154.30 158.38 153.12 158.23
  Q 152.23 158.12 151.77 158.86
  A 1.32 0.55 -66.2 0 1 151.10 159.50
  L 147.50 160.44
  A 1.30 0.75 44.8 0 1 146.60 160.20
  C 144.64 158.90 143.08 160.23 141.48 160.37
  C 135.67 160.89 131.38 159.51 124.93 162.58
  A 1.37 1.36 -26.1 0 1 123.13 161.97
  Q 121.88 159.51 120.72 162.61
  A 0.68 0.67 -61.0 0 1 119.68 162.91
  Q 118.08 161.69 117.67 162.70
  A 0.61 0.52 23.1 0 0 118.02 163.39
  Q 120.94 164.75 116.46 164.75
  A 1.64 1.63 18.9 0 0 115.17 165.38
  Q 113.09 168.08 109.81 165.45
  A 0.89 0.89 33.9 0 0 108.47 165.71
  Q 107.79 166.95 107.28 167.08
  A 0.80 0.40 71.5 0 1 106.67 166.47
  Q 106.05 164.74 104.50 163.70
  A 0.56 0.56 29.5 0 1 104.30 162.99
  Q 105.16 161.21 103.55 161.46
  A 1.45 1.03 -66.8 0 0 102.75 161.95
  Q 101.69 163.21 101.96 161.55
  Q 102.03 161.16 102.40 160.70
  Q 103.50 159.33 100.88 158.97
  Q 99.98 158.84 100.74 158.34
  C 103.93 156.22 99.82 157.08 99.25 156.27
  Q 98.94 155.82 99.55 155.87
  C 102.99 156.11 104.44 151.31 102.06 151.26
  A 2.37 2.37 -64.1 0 0 100.50 151.80
  C 95.49 156.05 102.75 148.83 97.73 150.35
  A 0.55 0.42 -12.8 0 1 97.05 150.04
  Q 97.02 149.84 97.09 149.62
  Q 97.22 149.18 97.16 148.86
  Q 96.90 147.35 98.20 147.20
  A 1.30 0.71 4.2 0 0 99.03 146.82
  Q 99.56 146.11 98.77 145.65
  A 0.84 0.62 21.8 0 1 98.34 144.95
  Q 98.47 143.90 99.16 143.10
  A 1.47 0.81 4.8 0 1 100.01 142.72
  Q 101.46 142.52 101.66 141.06
  A 1.58 0.67 50.3 0 0 101.39 140.16
  C 100.31 138.29 103.99 136.64 105.04 136.18
  A 0.41 0.37 73.5 0 1 105.57 136.50
  C 106.24 140.21 108.51 134.23 109.87 133.64
  A 0.61 0.61 -33.9 0 1 110.54 133.77
  Q 110.78 134.00 110.79 134.09
  Z"
/>
<path fill="#d09607" d="
  M 160.50 134.75
  C 161.00 133.37 162.81 132.98 163.50 134.43
  Q 163.93 135.33 160.75 135.13
  A 0.29 0.29 11.8 0 1 160.50 134.75
  Z"
/>
<path fill="#d09607" d="
  M 535.75 153.79
  L 536.21 154.75
  Q 539.77 154.98 538.95 151.79
  A 1.01 0.73 65.1 0 1 539.12 150.92
  Q 539.67 150.37 540.51 150.42
  A 1.18 0.81 17.0 0 0 541.37 150.15
  L 542.63 148.82
  Q 542.96 148.46 543.40 148.28
  Q 544.83 147.69 545.12 146.17
  A 0.70 0.68 -88.0 0 1 545.69 145.62
  C 547.07 145.43 549.04 143.95 550.04 145.27
  A 1.13 0.66 62.0 0 0 550.80 145.74
  C 551.73 145.71 551.95 141.82 553.00 140.71
  Q 556.60 140.14 552.79 139.75
  Q 553.47 137.71 554.94 138.86
  A 1.61 0.99 53.5 0 0 555.81 139.21
  Q 557.68 139.22 559.17 138.12
  A 1.81 0.78 -78.2 0 0 559.72 137.34
  Q 560.20 136.23 561.44 136.17
  A 1.60 0.93 11.5 0 0 562.33 135.87
  C 562.73 135.51 564.89 131.92 564.71 135.46
  Q 564.66 136.55 565.54 135.91
  C 565.61 135.86 570.49 131.54 567.69 135.60
  Q 567.25 136.24 568.02 136.17
  C 570.26 135.95 566.60 138.69 566.39 138.93
  A 0.60 0.51 -47.9 0 0 566.36 139.72
  L 567.02 140.31
  A 0.78 0.65 30.3 0 1 567.28 141.03
  Q 566.88 142.58 568.76 141.75
  A 0.49 0.49 -15.4 0 1 569.45 142.14
  C 569.76 144.86 573.43 140.06 571.76 143.48
  A 0.48 0.48 19.2 0 0 572.09 144.16
  Q 574.81 144.75 572.66 145.53
  A 2.00 1.61 4.5 0 0 571.87 146.07
  C 570.92 147.20 567.95 151.66 566.59 151.51
  A 0.15 0.15 -6.2 0 0 566.43 151.70
  Q 566.83 153.13 564.81 155.69
  A 2.02 2.00 -31.5 0 0 564.41 157.33
  C 564.70 158.76 561.17 157.94 559.78 158.40
  A 0.74 0.66 83.5 0 0 559.31 159.06
  Q 559.24 161.61 557.16 158.95
  A 1.67 1.66 -35.0 0 0 554.97 158.57
  Q 552.12 160.37 555.58 162.14
  A 0.93 0.92 -68.9 0 1 556.05 163.22
  C 555.36 165.63 555.07 169.23 551.81 168.89
  A 1.44 1.06 22.9 0 0 550.90 169.11
  Q 548.83 170.63 547.45 172.78
  C 546.47 174.31 546.87 176.66 544.30 177.44
  A 0.64 0.63 80.9 0 0 543.86 178.06
  Q 543.91 179.81 542.00 179.50
  C 536.18 178.54 539.59 185.84 533.65 184.60
  A 0.90 0.56 21.3 0 0 532.90 184.74
  Q 532.66 184.98 533.06 185.18
  A 0.69 0.50 16.6 0 1 533.46 185.70
  C 533.43 187.24 531.93 187.25 531.03 187.83
  Q 528.23 189.65 526.88 192.73
  A 0.77 0.76 11.8 0 1 526.18 193.18
  C 518.18 193.33 521.32 202.23 514.77 201.77
  A 0.99 0.98 85.2 0 0 513.75 202.99
  C 514.73 207.01 508.23 207.11 512.04 210.09
  Q 513.09 210.90 511.77 210.72
  Q 507.51 210.11 510.12 212.21
  Q 511.38 213.22 509.77 213.04
  Q 505.21 212.54 503.05 215.34
  A 0.61 0.59 31.6 0 1 502.32 215.50
  Q 501.41 215.09 500.96 215.79
  A 1.16 1.00 -75.9 0 1 500.25 216.29
  L 493.27 217.55
  Q 492.70 217.65 492.27 217.51
  C 486.86 215.70 482.37 210.65 482.38 204.87
  C 482.39 202.62 481.96 199.79 482.66 197.36
  C 483.31 195.08 483.44 192.89 484.31 190.71
  A 0.65 0.61 29.9 0 0 484.09 189.97
  Q 482.82 189.02 482.42 187.56
  A 0.68 0.60 -23.1 0 1 482.76 186.84
  Q 484.32 185.96 483.13 184.82
  A 0.96 0.49 38.9 0 1 482.77 184.01
  Q 482.95 183.53 483.88 183.48
  Q 484.87 183.41 484.14 182.74
  Q 482.41 181.17 484.02 180.63
  A 0.80 0.76 -6.4 0 0 484.55 180.00
  C 485.16 175.50 490.20 174.14 493.58 172.25
  A 0.92 0.91 58.0 0 0 493.88 170.93
  C 493.14 169.88 493.50 169.47 494.52 170.02
  C 496.57 171.16 497.20 168.80 499.09 169.96
  A 1.12 0.90 46.9 0 0 499.96 170.08
  Q 502.42 169.25 505.01 169.66
  A 1.61 1.05 -44.9 0 0 505.92 169.47
  C 507.96 168.42 506.98 173.17 508.65 171.22
  C 509.27 170.50 509.07 168.62 510.48 169.48
  C 513.86 171.56 512.52 167.15 515.19 167.15
  A 1.73 1.21 19.4 0 0 516.09 166.90
  Q 518.91 164.90 522.27 164.11
  Q 522.51 164.05 523.08 163.62
  L 525.86 161.53
  A 1.62 0.82 -25.0 0 0 526.42 160.82
  Q 526.90 159.14 528.97 157.93
  Q 529.92 157.38 528.91 156.94
  C 524.91 155.20 532.81 156.07 534.07 154.01
  A 0.99 0.69 -68.0 0 1 534.81 153.53
  Q 535.29 153.55 535.75 153.79
  Z
  M 565.18 141.48
  A 0.60 0.59 5.8 0 0 564.59 140.76
  Q 562.91 140.78 563.00 142.43
  A 0.98 0.87 -79.7 0 0 563.48 143.22
  Q 564.68 143.85 565.18 141.48
  Z
  M 554.35 162.96
  C 553.70 162.64 553.04 165.98 552.79 166.50
  A 0.44 0.35 -72.6 0 0 553.02 167.11
  C 554.13 167.19 554.41 164.43 554.61 163.73
  A 0.70 0.56 -69.9 0 0 554.35 162.96
  Z
  M 547.02 171.36
  Q 548.59 170.63 547.40 170.47
  A 1.09 0.92 24.4 0 0 546.56 170.71
  Q 546.31 170.93 546.32 171.15
  A 0.52 0.35 -17.7 0 0 547.02 171.36
  Z
  M 518.67 197.89
  C 518.13 196.72 516.56 199.85 518.45 198.48
  A 0.55 0.42 -32.0 0 0 518.67 197.89
  Z"
/>
<path fill="#ab7d1e" fill-opacity="0.961" d="
  M 199.62 135.69
  C 200.05 132.53 201.38 135.88 200.06 136.20
  A 0.45 0.37 88.6 0 1 199.62 135.69
  Z"
/>
<ellipse fill="#2e1f01" fill-opacity="0.235" cx="0.00" cy="0.00" transform="translate(329.50,139.00) rotate(135.0)" rx="0.97" ry="0.48"/>
<path fill="#6d4e13" fill-opacity="0.878" d="
  M 552.79 139.75
  Q 556.60 140.14 553.00 140.71
  Q 553.04 140.21 552.79 139.75
  Z"
/>
<path fill="#c38e1e" fill-opacity="0.980" d="
  M 324.68 141.76
  Q 325.82 142.02 325.39 143.24
  A 0.81 0.77 -81.3 0 1 324.70 143.77
  Q 323.46 143.84 324.01 142.16
  A 0.59 0.56 -74.1 0 1 324.68 141.76
  Z"
/>
<path fill="#d09607" d="
  M 298.04 149.00
  Q 298.51 149.14 298.75 148.79
  Q 300.93 147.78 302.00 144.81
  A 0.35 0.35 22.2 0 1 302.48 144.61
  Q 303.44 145.04 304.14 144.14
  A 0.66 0.65 -39.7 0 1 305.24 144.24
  C 306.94 147.52 310.44 140.40 308.17 147.60
  A 1.22 1.22 31.5 0 0 308.47 148.84
  Q 309.66 150.05 310.44 148.17
  A 0.81 0.81 37.1 0 1 311.82 147.98
  Q 312.87 149.27 313.76 146.43
  Q 314.17 145.10 315.10 146.15
  Q 315.87 147.03 317.33 146.70
  A 0.76 0.54 -17.0 0 1 318.11 146.96
  Q 318.39 147.53 317.64 147.97
  A 0.95 0.58 -23.7 0 0 317.14 148.69
  Q 317.23 149.71 319.40 148.92
  A 0.50 0.48 71.0 0 1 320.03 149.24
  L 321.59 154.28
  A 1.70 1.32 -51.5 0 1 321.58 155.21
  C 320.86 157.56 324.86 157.87 322.76 159.09
  A 0.74 0.50 -27.5 0 0 322.37 159.81
  Q 322.51 160.16 322.94 160.26
  A 0.71 0.58 7.2 0 1 323.46 160.81
  L 324.00 169.50
  A 4.62 1.34 -87.7 0 0 324.69 172.31
  Q 325.92 173.99 323.81 173.86
  A 0.55 0.33 -2.7 0 0 323.19 174.27
  Q 323.39 174.81 325.23 175.36
  Q 325.72 175.51 325.30 175.80
  C 321.07 178.74 326.30 179.36 324.65 180.95
  A 0.60 0.55 -38.4 0 0 324.53 181.67
  Q 325.69 183.51 325.55 185.76
  Q 325.52 186.21 325.70 186.71
  L 327.80 192.70
  A 1.07 0.97 -39.6 0 1 327.67 193.60
  Q 325.75 196.48 323.01 198.49
  C 319.83 200.83 318.28 201.79 318.69 205.71
  A 1.42 1.42 -1.4 0 1 317.19 207.28
  C 311.24 206.92 320.74 202.70 315.35 202.51
  A 1.00 1.00 8.8 0 0 314.35 203.24
  Q 313.77 205.34 313.23 205.27
  C 313.04 205.24 311.30 200.66 310.85 199.92
  A 1.03 1.03 68.3 0 0 309.76 199.45
  Q 307.42 199.96 307.36 198.93
  A 1.22 0.50 -35.6 0 1 307.85 198.15
  Q 308.50 197.58 307.41 197.22
  A 0.90 0.90 3.0 0 1 306.81 196.56
  Q 306.43 194.74 305.45 193.82
  A 1.25 1.25 -61.0 0 1 305.10 192.59
  C 306.31 187.96 304.67 184.98 302.73 181.19
  A 1.24 0.87 1.1 0 0 302.01 180.66
  C 299.64 179.99 303.32 175.79 300.16 173.52
  A 1.20 1.05 -78.6 0 1 299.72 172.75
  Q 299.62 171.87 299.07 171.13
  A 0.70 0.69 43.4 0 1 299.04 170.34
  Q 300.24 168.47 297.80 168.64
  A 0.76 0.56 71.6 0 1 297.18 168.20
  L 296.06 165.91
  A 0.73 0.60 54.6 0 1 296.11 165.15
  C 297.88 163.24 295.61 161.85 296.49 159.93
  Q 296.70 159.48 296.75 159.00
  L 297.10 154.81
  A 0.85 0.85 -69.8 0 0 296.75 154.05
  C 294.87 152.73 297.14 150.28 298.04 149.00
  Z
  M 306.23 192.13
  Q 305.80 193.27 307.07 193.33
  A 0.60 0.58 5.4 0 0 307.68 192.84
  Q 307.81 191.89 306.95 191.72
  A 0.65 0.64 -74.4 0 0 306.23 192.13
  Z"
/>
<path fill="#ab7d1e" fill-opacity="0.961" d="
  M 298.75 148.79
  Q 298.51 149.14 298.04 149.00
  Q 295.69 148.38 297.65 147.13
  C 300.38 145.39 297.54 148.37 298.75 148.79
  Z"
/>
<path fill="#c38e1e" fill-opacity="0.980" d="
  M 167.52 150.53
  Q 168.24 150.96 167.50 151.45
  A 0.52 0.46 -28.4 0 1 166.77 151.28
  Q 166.65 151.00 166.77 150.72
  A 0.54 0.48 27.1 0 1 167.52 150.53
  Z"
/>
<path fill="#ab7d1e" fill-opacity="0.961" d="
  M 536.21 154.75
  L 535.75 153.79
  Q 540.37 150.94 536.21 154.75
  Z"
/>
<path fill="#c38e1e" fill-opacity="0.980" d="
  M 163.37 157.93
  C 164.85 157.26 163.45 162.59 163.44 162.98
  A 0.51 0.37 -85.4 0 1 163.00 163.50
  Q 162.86 163.47 162.74 163.38
  A 0.59 0.47 -72.0 0 1 162.57 162.92
  L 162.87 158.67
  A 0.90 0.85 80.7 0 1 163.37 157.93
  Z"
/>
<path fill="#c38e1e" fill-opacity="0.980" d="
  M 562.43 159.09
  Q 562.71 159.13 562.73 159.50
  A 0.77 0.62 -16.4 0 1 562.29 160.14
  Q 560.76 160.86 561.64 159.59
  A 1.03 0.60 -62.6 0 1 562.43 159.09
  Z"
/>
<path fill="#2e1f01" fill-opacity="0.235" d="
  M 382.23 163.10
  Q 381.94 164.17 381.43 162.96
  A 0.59 0.45 68.8 0 1 381.65 162.21
  Q 381.89 162.13 382.09 162.34
  A 0.87 0.63 -64.6 0 1 382.23 163.10
  Z"
/>
<path fill="#d09607" d="
  M 516.35 165.52
  Q 515.77 166.57 514.73 166.39
  A 0.47 0.45 -75.1 0 1 514.39 165.77
  Q 514.91 164.34 516.11 164.83
  A 0.49 0.49 25.9 0 1 516.35 165.52
  Z"
/>
<path fill="#2e1f01" fill-opacity="0.235" d="
  M 380.81 165.31
  C 383.12 164.58 380.08 167.28 380.34 165.82
  A 0.71 0.64 -5.1 0 1 380.81 165.31
  Z"
/>
<path fill="#ab7d1e" fill-opacity="0.961" d="
  M 40.23 167.70
  Q 41.04 168.31 40.39 168.95
  A 0.57 0.55 44.6 0 1 39.61 168.94
  Q 38.93 168.31 39.42 167.75
  A 0.62 0.59 39.7 0 1 40.23 167.70
  Z"
/>
<path fill="#c38e1e" fill-opacity="0.980" d="
  M 65.75 167.29
  L 65.71 168.00
  C 64.83 168.33 62.52 172.09 63.26 169.00
  Q 63.72 167.10 65.75 167.29
  Z"
/>
<path fill="#ab7d1e" fill-opacity="0.961" d="
  M 193.71 168.75
  Q 193.13 169.46 192.25 169.54
  C 191.01 168.93 193.63 166.74 193.71 168.75
  Z"
/>
<path fill="#2e1f01" fill-opacity="0.235" d="
  M 193.71 168.75
  Q 193.67 169.33 194.25 169.29
  Q 193.69 170.24 192.54 170.25
  Q 192.50 169.85 192.25 169.54
  Q 193.13 169.46 193.71 168.75
  Z"
/>
<path fill="#2e1f01" fill-opacity="0.235" d="
  M 546.32 171.15
  Q 546.31 170.93 546.56 170.71
  A 1.09 0.92 24.4 0 1 547.40 170.47
  Q 548.59 170.63 547.02 171.36
  A 0.52 0.35 -17.7 0 1 546.32 171.15
  Z"
/>
<path fill="#ab7d1e" fill-opacity="0.961" d="
  M 154.75 173.71
  L 154.25 173.79
  Q 152.88 173.38 153.39 172.46
  Q 153.73 171.86 154.04 172.42
  L 154.75 173.71
  Z"
/>
<path fill="#c38e1e" fill-opacity="0.980" d="
  M 487.43 174.55
  Q 487.16 175.19 486.49 175.40
  A 0.46 0.46 -12.5 0 1 485.89 175.02
  Q 485.74 173.84 487.07 173.98
  A 0.43 0.41 13.9 0 1 487.43 174.55
  Z"
/>
<path fill="#6d4e13" fill-opacity="0.878" d="
  M 347.50 184.08
  Q 347.40 182.76 348.55 183.62
  A 0.34 0.32 50.3 0 1 348.51 184.19
  L 348.03 184.40
  A 0.38 0.37 75.6 0 1 347.50 184.08
  Z"
/>
<path fill="#6d4e13" fill-opacity="0.878" d="
  M 373.59 183.94
  C 376.69 182.52 373.04 185.73 373.25 184.36
  A 0.58 0.51 -9.7 0 1 373.59 183.94
  Z"
/>
<ellipse fill="#ab7d1e" fill-opacity="0.961" cx="0.00" cy="0.00" transform="translate(404.28,192.04) rotate(120.0)" rx="1.05" ry="0.54"/>
<path fill="#6d4e13" fill-opacity="0.878" d="
  M 207.43 196.42
  Q 207.30 194.79 207.41 196.20
  Q 207.66 199.25 207.43 196.42
  Z"
/>
<path fill="#ab7d1e" fill-opacity="0.961" d="
  M 237.96 195.50
  L 238.25 196.46
  Q 234.01 196.84 237.96 195.50
  Z"
/>
<path fill="#3f2d06" fill-opacity="0.510" d="
  M 229.66 196.62
  Q 230.13 197.13 229.48 197.38
  A 0.53 0.45 -15.5 0 1 228.79 197.06
  Q 228.75 196.81 228.94 196.59
  A 0.51 0.46 44.7 0 1 229.66 196.62
  Z"
/>
<path fill="#2e1f01" fill-opacity="0.235" d="
  M 518.45 198.48
  C 516.56 199.85 518.13 196.72 518.67 197.89
  A 0.55 0.42 -32.0 0 1 518.45 198.48
  Z"
/>
<path fill="#c38e1e" fill-opacity="0.980" d="
  M 341.57 200.73
  Q 342.52 199.18 342.49 200.99
  C 342.49 201.45 341.04 204.12 340.33 203.62
  A 0.64 0.48 -57.4 0 1 340.27 202.83
  L 341.57 200.73
  Z"
/>
<path fill="#6d4e13" fill-opacity="0.878" d="
  M 287.36 201.84
  C 290.14 199.77 286.24 204.70 286.95 202.41
  A 1.14 1.11 -9.9 0 1 287.36 201.84
  Z"
/>
<path fill="#6d4e13" fill-opacity="0.878" d="
  M 365.00 203.04
  Q 365.10 203.39 364.75 203.54
  Q 362.14 202.31 365.00 203.04
  Z"
/>
<path fill="#2e1f01" fill-opacity="0.235" d="
  M 278.04 211.75
  Q 277.49 213.81 277.00 211.79
  Q 277.54 211.21 278.04 211.75
  Z"
/>
<path fill="#6d4e13" fill-opacity="0.878" d="
  M 276.29 211.75
  L 277.00 211.79
  Q 277.49 213.81 278.04 211.75
  L 278.50 212.54
  Q 276.13 215.27 276.29 211.75
  Z"
/>
<path fill="#ab7d1e" fill-opacity="0.961" d="
  M 34.12 219.43
  Q 34.10 218.82 34.49 218.52
  A 0.50 0.46 58.8 0 1 35.20 218.73
  C 36.28 220.88 32.76 223.09 33.97 220.39
  Q 34.14 220.02 34.12 219.43
  Z"
/>
<path fill="#000000" d="
  M 541.19 273.28
  Q 542.93 274.72 545.11 274.04
  Q 547.31 273.36 547.68 275.54
  L 548.21 278.60
  Q 548.55 280.59 546.43 280.52
  C 540.22 280.33 532.80 280.75 532.96 272.00
  Q 533.14 261.89 532.35 251.82
  A 0.76 0.69 76.6 0 1 532.75 251.09
  Q 534.31 250.37 536.03 250.85
  A 1.90 1.74 43.0 0 0 536.97 250.86
  Q 540.39 249.93 540.32 253.25
  Q 540.28 255.51 542.48 255.00
  Q 550.00 253.29 547.25 260.35
  A 1.48 1.22 -88.7 0 1 546.63 261.07
  C 544.82 262.00 543.73 260.57 542.04 260.86
  C 539.26 261.33 540.50 270.78 540.74 272.45
  A 1.34 1.22 -76.3 0 0 541.19 273.28
  Z"
/>
<path fill="#000000" d="
  M 333.75 263.06
  C 333.43 265.90 331.56 278.42 338.47 275.02
  Q 340.48 274.02 340.87 276.24
  Q 341.85 281.83 338.22 280.98
  Q 337.17 280.73 336.08 280.74
  C 326.10 280.82 325.71 276.21 325.96 267.49
  Q 326.14 261.12 325.68 254.75
  Q 325.43 251.18 328.01 251.95
  Q 328.91 252.22 329.83 252.04
  C 336.89 250.72 329.20 257.51 337.86 255.96
  Q 339.21 255.72 340.58 255.86
  C 341.64 255.97 340.78 259.07 341.19 260.31
  Q 342.24 263.55 338.25 262.25
  Q 336.20 261.58 334.27 262.36
  A 0.87 0.82 83.5 0 0 333.75 263.06
  Z"
/>
<path fill="#000000" d="
  M 259.92 281.06
  A 1.18 1.07 88.5 0 1 258.81 279.90
  L 258.49 253.78
  A 1.46 1.45 -82.1 0 1 260.36 252.36
  Q 261.87 252.81 263.77 252.24
  Q 265.92 251.60 266.07 253.84
  Q 266.59 261.39 266.00 269.02
  C 265.72 272.59 266.48 276.09 266.51 279.92
  A 0.94 0.89 88.7 0 1 265.65 280.87
  L 259.92 281.06
  Z"
/>
<path fill="#000000" d="
  M 425.16 262.05
  A 1.50 1.38 -13.3 0 0 424.27 263.36
  L 424.45 279.03
  A 1.23 1.23 -1.7 0 1 423.28 280.27
  L 418.01 280.54
  A 1.72 1.40 -0.3 0 1 416.20 279.08
  Q 416.87 268.00 416.18 256.59
  A 1.51 1.51 -1.2 0 1 417.72 254.99
  Q 435.50 255.41 453.00 255.32
  Q 461.00 255.28 460.93 263.25
  Q 460.86 271.23 461.41 278.73
  A 1.66 1.65 88.1 0 1 459.76 280.50
  C 458.06 280.50 452.79 281.35 453.34 278.64
  C 454.07 275.02 453.75 271.16 453.75 267.47
  C 453.75 263.74 454.37 260.74 449.43 261.51
  Q 448.49 261.66 447.55 261.57
  C 442.53 261.12 443.06 262.96 442.98 266.63
  Q 442.86 272.15 443.33 278.61
  Q 443.51 281.02 441.14 280.53
  Q 438.88 280.06 436.58 280.53
  A 1.25 1.25 84.5 0 1 435.07 279.28
  Q 435.21 272.34 435.21 265.00
  C 435.21 260.29 432.19 261.49 429.30 261.36
  Q 426.96 261.26 425.16 262.05
  Z"
/>
<path fill="#000000" d="
  M 574.67 261.55
  A 1.50 1.32 -16.4 0 0 573.49 261.00
  L 560.06 261.21
  A 2.88 2.66 13.5 0 0 557.69 262.54
  C 556.18 265.11 555.56 271.61 558.56 273.55
  Q 559.73 274.30 562.48 274.36
  Q 571.52 274.55 580.56 274.21
  A 0.88 0.82 -15.5 0 1 581.33 274.61
  Q 583.04 277.55 581.02 280.06
  A 1.05 0.95 19.6 0 1 580.18 280.41
  Q 569.23 279.90 558.25 280.26
  C 551.81 280.46 549.86 276.79 549.54 270.79
  C 549.22 264.62 548.46 256.74 554.83 255.35
  C 559.10 254.42 567.80 255.29 573.28 255.16
  Q 583.62 254.90 582.25 265.75
  C 581.88 268.68 579.85 269.95 576.92 270.11
  Q 568.46 270.55 560.01 270.03
  A 1.14 1.02 -14.6 0 1 559.19 269.61
  C 557.09 266.71 559.24 265.02 562.14 265.12
  Q 567.38 265.32 572.62 265.41
  C 575.30 265.46 576.40 263.84 574.67 261.55
  Z"
/>
<path fill="#000000" d="
  M 585.17 280.06
  A 0.63 0.63 0.9 0 1 584.56 279.43
  Q 584.56 271.96 584.45 264.50
  Q 584.29 254.14 594.50 255.43
  Q 594.99 255.49 595.47 255.32
  Q 600.60 253.54 599.22 260.41
  A 1.69 1.53 6.5 0 1 597.52 261.63
  L 594.43 261.50
  Q 592.14 261.39 592.19 263.76
  L 592.51 278.89
  A 1.32 1.27 -89.8 0 1 591.20 280.24
  L 585.17 280.06
  Z"
/>
<path fill="#000000" d="
  M 369.75 280.43
  C 364.60 280.78 351.36 282.68 351.18 273.75
  C 351.10 269.83 350.85 263.45 351.43 260.76
  Q 352.50 255.83 358.75 255.70
  Q 367.75 255.50 377.59 255.50
  A 1.14 1.12 76.0 0 1 378.59 256.11
  C 379.45 257.74 379.19 263.60 375.93 261.77
  A 2.00 1.30 48.8 0 0 375.01 261.51
  Q 369.25 261.67 363.50 261.56
  C 357.28 261.44 358.41 267.91 358.56 271.95
  Q 358.67 274.74 361.45 274.75
  L 376.97 274.81
  A 1.92 1.91 -11.2 0 1 378.72 275.97
  C 381.91 283.49 372.90 280.22 369.75 280.43
  Z"
/>
<path fill="#000000" d="
  M 523.25 265.45
  C 523.51 262.45 523.00 259.43 523.05 256.50
  A 1.35 1.29 2.5 0 1 524.48 255.25
  L 528.63 255.51
  Q 530.50 255.62 530.50 257.42
  Q 530.50 262.74 530.65 268.47
  C 530.83 275.12 531.28 280.13 523.36 280.32
  Q 514.91 280.52 506.46 280.13
  C 501.85 279.91 498.74 276.43 499.06 271.94
  Q 499.60 264.56 498.48 257.10
  A 1.45 1.43 -4.9 0 1 499.89 255.45
  L 504.84 255.34
  A 1.64 1.59 0.2 0 1 506.51 256.97
  Q 506.40 261.43 506.64 265.52
  C 506.74 267.33 506.08 270.20 507.20 272.46
  Q 508.21 274.49 510.47 274.33
  Q 513.69 274.09 516.39 274.26
  C 525.12 274.81 522.67 272.10 523.25 265.45
  Z"
/>
<path fill="#000000" d="
  M 90.06 266.35
  C 90.33 263.91 89.64 260.96 86.60 261.58
  Q 85.02 261.90 83.40 261.80
  Q 78.37 261.51 78.42 265.32
  C 78.48 270.06 78.08 274.77 78.18 279.32
  A 1.78 1.64 -2.3 0 1 76.50 281.00
  L 72.62 281.23
  A 1.58 1.47 0.0 0 1 70.94 279.66
  Q 71.77 267.91 71.06 257.05
  A 1.38 1.38 88.9 0 1 72.47 255.58
  C 81.04 255.81 89.24 256.05 98.41 255.77
  Q 106.42 255.52 109.75 256.00
  C 113.83 256.59 115.48 259.77 115.53 263.84
  Q 115.61 269.90 115.73 275.95
  C 115.84 281.45 115.60 281.00 110.29 281.26
  Q 108.05 281.37 108.27 278.98
  C 108.73 273.96 108.46 268.86 108.69 263.79
  Q 108.79 261.49 106.52 261.87
  C 102.70 262.51 97.43 259.65 97.25 266.00
  Q 97.06 272.72 97.18 279.45
  A 1.31 1.04 71.0 0 1 96.87 280.32
  Q 95.75 281.51 93.86 281.23
  Q 92.86 281.08 91.86 281.20
  C 89.35 281.52 89.72 280.30 89.64 278.35
  Q 89.41 272.33 90.06 266.35
  Z"
/>
<path fill="#000000" d="
  M 384.17 279.11
  C 379.35 275.36 379.88 264.47 382.01 259.43
  C 384.01 254.70 387.94 255.85 392.02 255.68
  Q 404.89 255.15 409.25 256.00
  C 415.40 257.20 413.88 266.03 414.08 270.36
  C 414.54 280.40 410.99 280.50 402.39 280.50
  Q 395.40 280.50 388.24 280.50
  Q 385.97 280.50 384.17 279.11
  Z
  M 406.9511 265.1447
  A 3.55 3.55 0.0 0 0 403.4260 261.5700
  L 392.0063 261.4903
  A 3.55 3.55 0.0 0 0 388.4316 265.0154
  L 388.3889 271.1353
  A 3.55 3.55 0.0 0 0 391.9140 274.7100
  L 403.3337 274.7897
  A 3.55 3.55 0.0 0 0 406.9084 271.2646
  L 406.9511 265.1447
  Z"
/>
<path fill="#000000" d="
  M 487.70 261.77
  C 483.36 261.40 479.11 261.56 474.77 261.35
  C 470.62 261.15 470.84 264.50 470.57 268.04
  Q 470.01 275.50 470.88 282.94
  A 0.90 0.84 69.7 0 1 470.54 283.75
  C 469.04 284.84 462.90 285.72 463.12 282.33
  Q 463.74 272.64 463.31 267.44
  C 462.98 263.34 462.83 258.42 466.93 256.31
  C 469.71 254.87 472.91 255.76 475.21 255.69
  C 480.81 255.53 492.01 253.84 495.14 258.37
  C 497.49 261.79 496.56 268.79 496.83 273.21
  C 497.01 275.98 494.96 279.82 491.75 279.79
  Q 491.21 279.78 490.79 279.93
  C 487.60 281.09 481.59 280.38 478.54 280.30
  C 475.24 280.21 471.91 282.03 472.76 276.19
  A 1.97 1.96 4.8 0 1 474.75 274.51
  C 478.78 274.59 489.04 276.68 489.60 271.09
  C 489.84 268.68 489.60 264.75 488.41 262.26
  A 0.86 0.85 -10.1 0 0 487.70 261.77
  Z"
/>
<path fill="#000000" d="
  M 183.81 255.94
  C 188.36 256.29 190.77 260.73 190.72 265.01
  C 190.58 276.19 182.76 274.20 174.75 274.25
  C 172.89 274.26 170.09 275.19 170.27 272.10
  C 170.43 269.49 170.34 267.74 173.75 268.25
  C 176.23 268.62 181.19 268.73 182.82 266.17
  Q 184.29 263.86 181.65 261.79
  A 1.57 1.11 -19.2 0 0 180.75 261.53
  L 171.64 261.61
  Q 168.28 261.64 168.03 264.81
  C 167.69 269.25 167.54 273.84 168.11 278.10
  C 168.65 282.19 164.69 280.53 162.44 281.19
  Q 160.02 281.89 160.25 278.25
  Q 160.68 271.26 160.60 264.25
  Q 160.49 255.64 169.25 255.68
  Q 181.13 255.73 183.81 255.94
  Z"
/>
<path fill="#000000" d="
  M 216.44 255.75
  C 228.54 255.75 226.66 265.21 226.22 274.05
  C 226.00 278.26 223.18 281.13 219.06 280.94
  Q 210.78 280.56 202.50 281.06
  C 196.24 281.44 193.26 278.04 193.12 271.94
  C 193.04 268.22 192.53 260.78 195.06 258.01
  C 198.34 254.40 211.59 255.75 216.44 255.75
  Z
  M 201.12 273.87
  C 203.95 276.08 204.82 274.91 207.55 275.12
  C 218.01 275.93 219.66 275.87 219.29 264.67
  Q 219.18 261.02 214.99 261.26
  C 205.40 261.82 198.53 258.46 200.55 272.89
  A 1.55 1.53 15.2 0 0 201.12 273.87
  Z"
/>
<path fill="#000000" d="
  M 255.59 256.35
  Q 257.41 259.25 255.27 261.81
  A 1.05 0.95 19.6 0 1 254.43 262.16
  Q 247.84 261.88 241.25 262.00
  C 236.51 262.08 235.61 265.39 235.74 269.20
  C 235.94 274.82 236.29 275.12 241.81 275.29
  Q 247.76 275.47 254.37 275.01
  A 1.53 1.53 78.9 0 1 255.94 276.07
  Q 256.57 278.02 255.87 280.50
  A 0.84 0.83 -81.1 0 1 255.04 281.11
  Q 246.48 280.86 239.03 281.08
  C 234.34 281.22 230.40 280.41 229.09 275.70
  C 228.29 272.84 228.37 263.19 229.50 259.75
  C 231.01 255.17 238.36 255.90 242.00 256.25
  Q 245.33 256.57 254.82 255.97
  A 0.87 0.82 -17.1 0 1 255.59 256.35
  Z"
/>
<path fill="#000000" d="
  M 53.46 261.58
  Q 46.68 261.66 39.07 262.06
  Q 36.60 262.19 36.97 260.14
  L 37.58 256.73
  A 0.67 0.57 5.6 0 1 38.25 256.27
  Q 49.05 256.61 59.87 256.53
  C 70.92 256.45 69.42 265.43 68.77 273.33
  C 68.35 278.54 65.61 281.29 60.38 281.07
  C 55.82 280.87 51.17 280.96 46.61 280.98
  Q 41.53 281.00 39.57 279.93
  C 34.48 277.15 34.24 266.13 42.17 266.36
  C 47.49 266.51 52.82 266.22 58.42 266.26
  A 1.59 1.59 -88.9 0 1 60.00 267.90
  Q 59.91 271.32 56.50 271.04
  Q 51.35 270.62 46.20 270.76
  C 43.33 270.83 40.86 272.86 43.92 275.39
  A 1.36 1.19 -24.3 0 0 44.81 275.66
  C 52.92 275.16 65.10 278.20 62.23 265.51
  C 61.19 260.91 58.00 261.53 53.46 261.58
  Z"
/>
<path fill="#000000" d="
  M 121.44 279.56
  C 117.05 276.70 118.54 267.95 118.51 263.48
  C 118.48 258.65 121.48 255.99 126.09 256.12
  C 131.70 256.28 143.41 255.00 147.94 257.59
  C 153.09 260.53 152.74 270.75 145.75 270.75
  Q 137.75 270.75 129.50 270.75
  A 1.69 1.68 85.4 0 1 127.84 269.33
  C 127.38 266.42 128.39 265.70 131.14 265.94
  Q 136.66 266.41 142.19 265.98
  A 1.34 1.27 18.4 0 0 143.04 265.58
  Q 146.59 261.93 141.00 261.83
  C 136.29 261.75 125.62 259.35 125.22 266.38
  C 124.95 271.30 123.90 275.22 130.35 275.32
  Q 139.78 275.48 148.64 275.26
  A 1.58 1.58 83.1 0 1 150.22 276.50
  C 150.84 279.29 150.88 280.73 147.52 280.77
  Q 137.58 280.89 127.64 280.54
  C 125.49 280.47 123.43 280.86 121.44 279.56
  Z"
/>
<path fill="#000000" d="
  M 8.37 263.27
  Q 5.91 269.16 8.23 274.98
  A 0.96 0.88 -9.9 0 0 9.10 275.54
  L 23.91 275.49
  Q 26.05 275.49 26.51 273.55
  C 28.11 266.72 12.88 275.92 15.07 267.48
  A 1.74 1.72 -81.8 0 1 16.79 266.18
  C 20.27 266.28 27.94 265.68 30.71 267.43
  C 34.61 269.90 34.54 276.71 31.27 279.20
  Q 29.25 280.74 24.86 280.89
  Q 16.47 281.16 8.08 280.86
  C 0.61 280.59 0.54 275.09 0.39 269.36
  C 0.25 263.70 0.04 256.64 7.25 256.59
  Q 19.47 256.51 31.69 256.32
  A 0.77 0.74 -12.1 0 1 32.40 256.76
  Q 34.67 261.81 28.93 261.75
  C 24.06 261.69 13.15 260.64 9.00 262.58
  A 1.37 1.16 -88.0 0 0 8.37 263.27
  Z"
/>
<path fill="#000000" d="
  M 277.25 275.75
  Q 276.38 274.21 274.41 274.55
  Q 266.83 275.86 268.83 270.01
  A 1.82 1.82 14.9 0 1 270.91 268.81
  Q 275.63 269.73 277.46 266.14
  Q 279.45 262.24 281.44 257.83
  A 2.16 2.15 16.8 0 1 283.77 256.59
  Q 286.00 256.95 288.75 256.50
  Q 292.10 255.95 290.75 258.25
  C 289.42 260.52 283.81 269.77 284.15 271.88
  C 284.48 273.81 287.31 276.64 288.75 278.00
  C 293.38 282.36 283.89 280.93 282.57 281.03
  Q 280.33 281.20 279.14 279.09
  L 277.25 275.75
  Z"
/>
<path fill="#000000" d="
  M 318.54 270.68
  C 314.31 270.53 309.96 270.84 305.70 270.77
  C 302.84 270.73 298.74 271.53 300.83 266.69
  A 1.34 1.23 11.4 0 1 302.06 265.95
  L 314.60 266.20
  Q 316.68 266.25 316.75 264.02
  C 316.84 261.10 315.28 261.68 313.40 261.79
  Q 306.83 262.17 302.75 261.75
  C 297.94 261.26 297.63 266.74 297.75 270.01
  Q 297.98 276.07 304.20 275.62
  Q 312.18 275.04 321.57 275.21
  A 1.69 1.68 86.4 0 1 323.20 276.65
  C 323.89 281.38 322.25 280.78 318.98 280.74
  Q 308.88 280.61 298.77 280.52
  C 288.76 280.43 290.89 269.94 290.97 263.57
  C 291.04 258.93 293.82 256.56 298.46 256.38
  Q 307.71 256.02 316.96 256.40
  C 326.18 256.77 325.64 270.94 318.54 270.68
  Z"
/>
</svg>
