<?xml version="1.0" encoding="UTF-8" standalone="no"?>
<!DOCTYPE svg PUBLIC "-//W3C//DTD SVG 1.1//EN" "http://www.w3.org/Graphics/SVG/1.1/DTD/svg11.dtd">
<svg xmlns="http://www.w3.org/2000/svg" version="1.1" viewBox="0 0 600 300">
<path fill="#000000" d="
  M 136.27 40.13
  A 1.55 1.44 -15.7 0 0 135.22 41.86
  Q 135.73 44.11 133.77 44.58
  Q 129.11 45.71 124.85 47.79
  Q 123.40 48.50 123.10 50.09
  C 116.73 83.98 87.58 201.92 28.94 172.81
  Q 15.46 166.12 5.59 155.62
  A 1.42 1.31 24.3 0 1 5.22 154.75
  C 5.03 149.54 8.96 151.84 10.81 153.77
  C 17.64 160.88 26.84 167.94 37.40 165.64
  C 77.97 156.81 94.00 85.67 98.40 51.87
  A 0.65 0.65 88.4 0 0 97.64 51.15
  Q 77.59 54.76 57.52 56.73
  Q 54.33 57.04 51.09 54.36
  A 2.59 2.58 -27.6 0 0 49.26 53.79
  Q 45.83 54.07 49.55 50.32
  A 1.89 1.80 46.3 0 0 49.55 47.79
  L 46.30 44.17
  Q 44.78 42.49 46.84 41.42
  Q 48.28 40.67 50.10 40.71
  C 52.97 40.78 51.40 39.02 49.83 38.77
  Q 47.75 38.44 48.70 35.34
  A 2.38 2.37 -83.5 0 1 50.79 33.67
  C 56.16 33.27 61.50 34.22 66.70 33.50
  C 74.72 32.39 83.06 30.21 90.50 29.19
  Q 111.96 26.23 133.33 22.62
  C 136.51 22.08 139.05 20.18 142.75 19.25
  Q 155.83 15.97 169.24 14.63
  Q 177.54 13.80 185.76 12.33
  Q 189.11 11.73 188.30 13.86
  C 186.65 18.18 174.04 17.81 170.49 18.01
  Q 166.30 18.25 162.94 20.69
  Q 160.18 22.69 163.00 23.25
  Q 164.86 23.62 166.75 23.50
  Q 169.77 23.31 167.06 24.81
  Q 165.53 25.66 164.21 26.77
  C 161.41 29.11 162.11 31.62 157.06 31.81
  Q 153.45 31.95 150.99 35.04
  A 1.88 1.17 -69.3 0 1 150.23 35.62
  L 136.27 40.13
  Z"
/>
<path fill="#000000" d="
  M 312.66 121.58
  Q 313.17 118.33 311.32 121.05
  C 308.60 125.04 306.00 129.39 302.68 132.51
  C 299.70 135.31 290.62 142.11 286.00 141.50
  Q 282.89 141.09 278.52 140.96
  A 1.66 1.66 79.6 0 1 277.03 139.93
  Q 276.70 139.12 275.69 138.35
  C 271.13 134.90 272.36 129.27 272.23 124.74
  C 271.79 109.91 275.89 99.15 281.01 84.97
  C 283.49 78.11 287.34 72.06 289.42 65.17
  Q 293.99 50.03 302.21 36.52
  C 305.09 31.78 307.62 29.12 312.77 27.81
  Q 316.11 26.96 317.08 30.05
  Q 318.79 35.48 323.16 39.51
  A 1.54 1.54 34.7 0 1 323.49 41.31
  Q 318.91 50.74 313.40 58.97
  C 311.56 61.72 311.14 63.15 311.58 66.32
  A 2.46 2.46 -20.2 0 1 310.46 68.74
  C 305.90 71.68 307.13 78.24 302.06 82.31
  Q 300.08 83.91 300.06 85.06
  C 299.93 92.92 293.91 95.10 292.65 101.99
  Q 292.14 104.77 291.49 106.18
  C 290.04 109.30 278.20 134.86 291.00 129.50
  C 292.79 128.75 301.98 122.40 304.69 118.94
  Q 309.01 113.40 314.46 108.97
  C 316.53 107.29 318.10 105.79 319.13 103.18
  Q 322.17 95.52 325.45 87.97
  C 327.72 82.76 328.23 77.97 329.01 72.50
  C 329.54 68.77 332.63 67.36 333.28 63.83
  Q 333.75 61.27 334.47 59.89
  Q 338.91 51.37 343.36 42.86
  Q 345.07 39.59 346.19 38.55
  Q 348.84 36.10 351.98 38.24
  Q 353.65 39.38 355.68 39.45
  Q 363.78 39.72 361.87 45.86
  Q 361.20 48.03 363.09 49.29
  C 366.36 51.46 363.79 54.76 362.17 56.48
  Q 361.78 56.90 361.63 57.28
  C 353.54 77.84 347.46 89.86 339.69 108.69
  C 337.53 113.92 336.48 118.27 335.07 123.33
  C 334.08 126.89 333.19 133.84 338.49 134.29
  Q 340.52 134.47 341.71 132.81
  Q 347.41 124.85 352.77 116.74
  C 353.70 115.33 352.67 115.04 351.59 115.55
  Q 349.42 116.59 347.01 116.53
  A 0.64 0.46 3.1 0 1 346.38 116.02
  Q 346.46 115.21 348.34 114.14
  A 1.65 1.59 -23.8 0 0 349.11 112.25
  L 347.74 107.99
  A 1.13 1.08 77.9 0 1 348.64 106.53
  C 350.80 106.30 352.61 105.88 354.46 104.51
  C 359.04 101.11 367.27 95.57 369.98 89.99
  C 373.83 82.07 378.12 75.86 384.49 69.60
  C 389.32 64.84 392.26 58.53 396.11 54.18
  C 400.44 49.27 405.73 45.84 409.98 41.08
  A 2.31 2.11 68.1 0 0 410.52 39.63
  L 410.54 34.81
  A 1.46 1.34 -27.2 0 1 410.87 33.92
  Q 412.71 31.72 415.30 30.46
  A 0.60 0.57 59.7 0 1 416.03 30.67
  Q 419.99 36.46 426.50 36.75
  Q 431.74 36.98 431.88 41.41
  C 431.94 43.31 430.71 44.63 430.25 46.75
  C 428.12 56.60 426.96 64.33 426.64 75.18
  Q 426.24 88.64 424.43 101.98
  C 422.61 115.39 423.85 128.67 421.98 141.94
  Q 420.54 152.13 419.79 162.40
  C 419.64 164.40 420.41 165.88 420.25 168.00
  Q 420.17 169.02 419.57 168.20
  Q 417.93 165.98 417.53 163.42
  A 3.27 3.26 12.0 0 0 416.08 161.20
  C 411.01 157.92 417.80 154.46 414.08 149.88
  A 1.13 0.74 40.2 0 1 413.82 149.00
  L 414.28 147.46
  A 1.25 0.76 -60.8 0 0 414.25 146.57
  C 410.97 140.96 411.29 137.27 410.56 131.55
  C 410.36 129.91 409.79 129.38 408.19 129.30
  A 0.57 0.51 -0.4 0 1 407.65 128.82
  C 407.19 123.00 407.49 115.86 405.58 110.40
  C 403.75 105.13 406.21 99.85 406.66 94.32
  Q 407.04 89.77 403.18 92.28
  Q 402.30 92.85 401.33 93.23
  Q 391.62 97.02 384.44 102.44
  Q 381.94 104.32 378.00 104.49
  A 1.26 1.16 18.8 0 0 377.16 104.86
  Q 372.61 109.68 370.44 114.19
  C 365.30 124.84 359.64 138.30 352.19 147.44
  Q 351.09 148.79 350.67 149.79
  A 2.06 1.61 89.3 0 1 350.09 150.55
  Q 346.14 153.53 343.75 158.25
  C 343.46 158.83 335.38 172.67 334.43 168.79
  A 0.74 0.74 63.6 0 0 333.24 168.39
  C 331.74 169.62 330.50 172.16 328.44 171.56
  A 2.55 0.97 17.9 0 0 325.94 171.69
  Q 321.40 179.49 318.32 171.41
  Q 317.72 169.84 318.70 168.47
  C 324.09 160.95 327.50 153.14 330.96 144.60
  Q 331.66 142.86 330.01 143.74
  C 326.25 145.75 321.26 149.49 317.14 146.09
  C 311.61 141.53 311.57 128.47 312.66 121.58
  Z
  M 404.54 60.32
  C 397.58 64.52 391.70 74.79 388.46 82.08
  Q 387.21 84.90 389.76 83.16
  C 393.42 80.67 396.56 77.30 400.98 76.40
  Q 404.25 75.72 404.25 71.68
  Q 404.25 69.12 405.26 66.77
  Q 406.19 64.58 405.94 61.04
  A 0.93 0.92 -17.6 0 0 404.54 60.32
  Z"
/>
<path fill="#000000" d="
  M 491.59 82.02
  C 496.16 85.85 496.59 87.41 503.63 87.20
  A 2.90 2.86 -74.0 0 0 505.96 85.89
  Q 510.91 78.24 516.40 69.87
  C 517.73 67.84 518.44 67.42 517.16 64.73
  Q 516.23 62.77 514.20 61.99
  Q 510.32 60.48 506.13 57.39
  Q 504.42 56.13 502.45 56.93
  Q 500.67 57.66 498.76 57.59
  C 489.72 57.27 487.84 61.67 484.40 68.77
  Q 483.63 70.35 482.86 68.78
  C 480.34 63.66 478.42 75.49 478.25 76.25
  C 477.72 78.63 474.68 81.36 473.63 82.97
  C 468.07 91.52 468.12 104.65 464.38 114.95
  C 462.89 119.05 463.44 123.00 461.50 127.25
  Q 460.88 128.60 460.25 135.50
  Q 459.56 143.08 456.70 148.00
  A 0.72 0.63 -66.2 0 1 455.95 148.35
  C 453.66 147.72 456.74 144.01 454.77 144.53
  A 2.80 2.79 2.9 0 0 452.88 146.23
  Q 448.08 158.76 443.16 168.12
  Q 442.18 169.98 441.22 168.12
  Q 438.23 162.36 437.25 169.25
  Q 436.83 172.22 434.72 176.55
  A 0.71 0.63 15.8 0 1 434.01 176.89
  Q 432.76 176.70 430.89 177.42
  A 1.13 1.13 -16.6 0 1 429.39 176.61
  Q 428.73 173.69 430.06 171.06
  A 1.76 1.75 -42.1 0 0 430.14 169.63
  C 428.03 164.17 432.96 156.76 435.72 152.13
  Q 436.76 150.38 436.44 148.36
  Q 436.20 146.92 437.22 145.39
  A 1.53 1.52 -44.8 0 0 437.23 143.71
  C 435.64 141.29 438.79 139.97 439.45 137.78
  C 440.08 135.66 441.35 130.67 443.06 128.91
  C 445.08 126.82 446.02 125.75 445.06 122.68
  Q 444.52 120.95 445.01 119.21
  Q 447.77 109.52 451.52 100.15
  C 452.52 97.66 454.20 96.35 453.38 92.98
  A 2.02 1.55 53.1 0 1 453.39 92.03
  C 454.60 87.94 456.94 84.61 458.00 80.74
  Q 459.40 75.63 460.75 70.50
  Q 461.50 67.64 459.50 69.50
  Q 454.11 74.51 446.80 73.28
  A 1.27 1.10 74.3 0 1 446.04 72.78
  Q 444.09 70.08 440.91 70.45
  A 2.30 2.30 67.1 0 1 438.85 69.61
  Q 436.30 66.42 433.27 65.12
  A 1.04 0.97 5.5 0 1 432.68 64.45
  Q 431.77 60.75 434.56 58.81
  Q 439.84 55.15 441.82 50.22
  A 1.23 1.17 -89.4 0 1 442.46 49.56
  Q 458.97 42.69 475.50 35.84
  Q 478.99 34.40 482.23 33.96
  C 486.94 33.33 491.60 34.15 495.54 32.53
  C 498.34 31.38 499.05 28.59 503.15 29.10
  C 512.41 30.26 522.33 29.91 530.26 35.62
  C 535.11 39.12 540.58 44.20 543.70 49.73
  C 546.09 53.95 545.29 59.60 544.84 64.22
  C 544.20 70.75 541.38 75.68 537.45 80.66
  C 535.77 82.78 533.47 83.90 531.33 85.62
  A 1.87 1.68 83.8 0 0 530.77 86.40
  C 529.31 90.31 523.16 91.37 520.69 93.94
  Q 518.55 96.15 516.83 96.53
  Q 514.57 97.03 516.40 98.43
  Q 522.95 103.44 526.69 109.81
  C 530.10 115.62 535.42 122.26 540.60 125.57
  C 549.26 131.10 555.32 138.54 563.81 144.19
  Q 567.80 146.84 571.70 151.06
  Q 581.13 161.25 592.29 171.60
  A 4.31 4.28 14.5 0 1 593.56 173.74
  C 594.46 177.38 591.95 174.53 591.30 174.08
  C 587.03 171.12 582.97 169.03 579.24 165.16
  Q 573.05 158.74 565.44 154.06
  C 558.94 150.06 556.29 144.71 549.45 142.03
  Q 543.84 139.82 541.06 134.94
  C 538.88 131.09 535.60 129.46 532.31 126.19
  Q 522.17 116.07 518.64 112.07
  A 1.42 0.95 63.7 0 0 517.83 111.60
  L 516.06 111.44
  A 1.78 0.62 -3.3 0 1 515.14 111.18
  L 507.32 105.62
  Q 506.90 105.33 506.44 105.25
  Q 504.55 104.95 503.24 103.51
  Q 500.75 100.79 497.50 99.04
  Q 497.04 98.80 497.14 99.31
  C 497.71 102.47 499.62 103.39 501.69 105.43
  C 510.05 113.71 519.26 118.94 525.25 127.14
  C 526.60 128.99 527.52 128.19 529.10 129.32
  Q 534.31 133.03 538.94 138.31
  C 542.47 142.34 545.88 145.40 550.91 148.50
  Q 563.22 156.10 571.34 166.80
  Q 572.78 168.69 575.04 169.43
  C 579.82 170.99 579.10 173.65 581.83 176.54
  C 585.69 180.62 590.62 186.27 595.32 189.25
  A 1.27 0.84 18.9 0 1 595.88 189.98
  Q 596.07 191.03 595.06 191.17
  A 1.21 0.90 57.3 0 1 594.19 190.84
  C 590.76 187.65 587.83 184.69 583.87 181.85
  Q 577.37 177.19 569.56 170.44
  C 564.36 165.94 557.41 162.30 552.54 158.04
  Q 544.93 151.38 538.28 143.76
  Q 536.13 141.30 533.48 139.60
  Q 526.79 135.32 520.38 130.63
  C 518.15 129.00 516.01 128.39 513.69 125.56
  Q 511.18 122.51 502.03 112.42
  C 497.40 107.31 490.60 103.87 484.97 100.07
  A 2.25 2.24 26.1 0 1 484.09 97.52
  Q 485.72 92.48 489.31 94.26
  A 1.99 1.45 47.9 0 0 490.26 94.46
  C 498.01 93.72 489.36 88.63 487.85 86.60
  A 1.03 0.99 36.2 0 1 487.69 85.70
  Q 488.20 83.99 489.97 82.11
  A 1.19 1.18 41.5 0 1 491.59 82.02
  Z"
/>
<path fill="#000000" d="
  M 112.30 155.35
  C 110.56 159.28 108.42 162.42 106.92 166.53
  A 1.29 0.84 -83.4 0 1 106.32 167.25
  Q 105.62 167.53 105.74 166.35
  Q 105.85 165.25 106.01 164.15
  Q 106.53 160.60 104.19 163.19
  C 101.67 165.97 103.96 169.50 98.86 172.17
  Q 97.46 172.90 97.89 171.38
  C 99.64 165.23 100.85 157.09 104.00 151.78
  Q 117.74 128.59 124.25 113.75
  Q 126.45 108.73 121.48 110.11
  A 0.96 0.85 -29.5 0 1 120.62 109.93
  C 116.66 106.38 125.18 104.49 127.15 103.44
  A 3.91 3.82 -88.8 0 0 128.71 101.91
  Q 131.81 96.37 134.60 91.77
  C 136.64 88.40 137.71 84.40 139.78 80.80
  Q 145.55 70.78 152.22 62.28
  Q 153.23 61.00 153.58 59.40
  C 155.13 52.22 160.22 46.77 163.44 40.38
  Q 164.48 38.31 166.67 37.77
  A 0.88 0.88 86.8 0 1 167.75 38.74
  Q 167.50 40.69 168.97 40.34
  A 1.10 0.83 -80.2 0 0 169.62 39.73
  C 171.54 35.21 178.03 35.65 183.24 33.60
  C 188.67 31.45 188.27 36.41 188.74 39.70
  A 1.16 1.01 14.7 0 0 189.24 40.44
  Q 191.97 42.22 191.75 46.50
  C 190.95 62.25 189.29 78.33 189.11 93.75
  Q 188.78 121.09 189.18 148.43
  A 1.00 0.74 78.4 0 1 188.80 149.25
  C 187.92 149.79 185.98 145.96 185.49 145.24
  Q 184.22 143.37 183.68 145.53
  L 181.67 153.57
  A 0.88 0.50 -79.6 0 1 181.10 154.25
  C 180.44 154.28 177.51 142.91 177.08 141.52
  A 0.64 0.42 71.8 0 0 176.47 141.03
  C 176.25 141.11 175.11 145.40 174.81 146.06
  Q 173.86 148.19 173.31 145.69
  C 171.86 139.07 174.15 131.97 170.24 126.21
  A 3.31 2.88 -65.7 0 1 169.72 124.48
  L 169.51 98.91
  Q 169.49 96.87 167.70 97.93
  C 159.81 102.62 150.69 104.59 142.32 108.34
  Q 139.68 109.52 138.46 112.13
  Q 131.85 126.30 126.44 140.98
  Q 124.25 146.92 120.50 152.00
  Q 119.26 153.67 115.93 160.90
  C 115.60 161.63 113.68 163.65 114.29 160.79
  C 114.69 158.94 114.11 156.91 113.18 155.30
  Q 112.69 154.46 112.30 155.35
  Z
  M 167.16 62.89
  C 158.26 72.52 153.63 83.76 148.06 95.07
  Q 146.92 97.39 149.33 96.47
  C 151.68 95.58 152.89 93.79 155.07 92.81
  Q 161.53 89.94 167.17 86.50
  A 2.76 2.70 75.4 0 0 168.48 84.21
  L 168.89 63.59
  Q 168.94 60.95 167.16 62.89
  Z"
/>
<path fill="#000000" d="
  M 255.66 136.23
  Q 254.13 137.16 253.46 139.09
  A 1.80 1.50 84.8 0 1 252.92 139.87
  C 250.78 141.56 248.94 143.07 247.02 145.02
  C 243.42 148.68 233.89 147.66 229.66 147.26
  C 226.74 146.98 224.10 145.04 220.81 144.19
  C 216.47 143.06 205.40 131.83 203.94 129.81
  C 200.97 125.70 199.51 118.28 198.49 112.65
  C 194.33 89.71 202.91 67.62 219.14 51.39
  C 222.66 47.86 227.61 41.75 232.39 40.27
  C 236.99 38.85 241.64 37.78 246.17 36.10
  C 250.75 34.40 251.40 39.33 255.60 38.82
  A 0.81 0.80 74.7 0 1 256.43 39.30
  C 258.11 43.20 259.78 46.43 264.45 46.81
  Q 266.47 46.98 264.95 48.18
  L 263.07 49.66
  A 0.97 0.87 -42.1 0 0 262.92 51.05
  Q 265.17 53.13 262.77 54.63
  Q 260.91 55.80 258.73 55.53
  C 252.86 54.79 247.02 59.01 241.75 61.19
  C 230.37 65.89 220.78 77.25 215.47 88.08
  C 206.97 105.42 212.69 125.80 231.01 133.73
  C 236.30 136.02 243.92 137.13 249.26 134.27
  C 252.15 132.72 254.56 131.85 252.63 128.16
  C 249.67 122.51 251.99 110.75 253.87 105.35
  Q 254.34 103.97 254.43 102.51
  Q 254.62 99.18 252.60 99.55
  C 248.55 100.29 244.30 99.36 240.57 101.49
  Q 235.04 104.65 229.34 107.49
  C 227.80 108.26 227.98 106.79 228.77 106.19
  C 232.86 103.03 233.79 98.72 237.06 96.36
  Q 245.63 90.16 255.76 87.02
  Q 259.82 85.76 264.82 81.94
  A 1.08 1.08 51.8 0 1 266.31 82.12
  C 269.23 85.73 274.50 80.95 273.48 86.50
  C 272.69 90.78 272.29 94.89 271.14 99.08
  C 268.97 106.96 266.64 115.26 266.35 123.49
  C 266.09 131.27 265.46 138.92 268.55 146.34
  Q 269.23 147.96 267.71 147.07
  Q 260.69 142.95 256.93 136.55
  A 0.92 0.91 -30.8 0 0 255.66 136.23
  Z"
/>
<path fill="#000000" d="
  M 570.95 179.05
  C 574.78 183.63 579.39 187.19 583.94 191.11
  A 1.58 1.29 19.6 0 1 584.43 191.92
  C 584.82 193.97 582.70 191.82 582.20 191.48
  Q 575.83 187.23 569.79 182.54
  Q 568.60 181.62 565.99 180.52
  C 562.91 179.21 561.07 176.43 559.06 174.78
  C 555.27 171.68 552.24 167.42 548.40 165.04
  C 541.98 161.07 534.91 156.79 529.29 151.89
  C 523.47 146.82 517.31 142.09 511.75 136.75
  Q 509.93 135.01 506.65 133.26
  Q 505.26 132.52 504.41 131.19
  Q 498.17 121.49 488.31 114.94
  Q 487.55 114.43 485.44 110.99
  A 1.16 1.12 79.7 0 0 484.70 110.46
  C 481.10 109.75 474.99 110.02 473.93 105.67
  C 472.09 98.18 477.70 100.87 481.66 101.78
  C 486.66 102.92 491.53 107.35 495.31 110.69
  Q 498.19 113.23 498.81 113.94
  C 502.13 117.71 506.62 124.21 510.84 126.66
  A 2.10 2.03 1.7 0 1 511.60 127.44
  Q 514.26 132.21 517.19 133.31
  Q 519.87 134.32 521.36 137.48
  Q 521.58 137.95 521.97 138.22
  Q 530.09 143.97 537.11 152.37
  Q 537.54 152.89 538.30 153.30
  L 552.93 161.46
  Q 555.20 162.73 556.46 165.44
  C 557.30 167.26 561.28 168.29 563.17 169.88
  C 566.04 172.33 568.51 176.12 570.95 179.05
  Z"
/>
<path fill="#000000" d="
  M 474.03 113.98
  C 477.98 110.95 482.25 117.97 485.06 118.44
  C 491.18 119.46 497.47 122.46 497.75 129.50
  C 497.98 135.47 518.71 150.04 522.50 157.06
  A 2.82 2.79 -8.8 0 0 524.49 158.50
  C 527.95 159.10 533.60 161.91 534.43 165.76
  A 1.82 1.24 -82.1 0 0 534.85 166.60
  Q 539.37 171.04 544.87 174.15
  Q 546.74 175.20 548.16 176.93
  Q 553.15 182.98 560.34 186.13
  Q 562.86 187.24 564.55 188.77
  Q 572.11 195.60 580.22 201.77
  C 582.95 203.85 588.25 210.33 591.06 210.94
  Q 594.23 211.62 593.75 214.75
  Q 593.45 216.69 592.18 214.64
  Q 591.73 213.92 591.06 213.39
  Q 586.07 209.37 580.69 206.56
  C 577.65 204.97 574.42 201.66 571.60 199.68
  Q 554.41 187.61 538.13 174.34
  C 535.14 171.90 531.88 170.36 530.14 166.30
  Q 529.51 164.82 528.00 164.27
  Q 521.31 161.83 516.61 157.26
  C 508.46 149.37 500.47 142.03 493.37 133.08
  A 1.61 1.37 -7.4 0 0 492.58 132.57
  Q 489.90 131.81 489.50 129.25
  C 488.74 124.36 485.10 126.26 482.40 124.24
  C 478.93 121.65 479.83 118.56 474.48 116.74
  Q 471.68 115.79 474.03 113.98
  Z"
/>
<path fill="#000000" d="
  M 437.96 275.22
  C 437.14 275.97 439.05 279.20 436.20 281.14
  Q 434.01 282.63 432.14 280.76
  C 427.21 275.85 430.20 266.02 432.01 260.21
  Q 439.26 236.99 447.96 214.27
  C 448.52 212.78 447.81 211.51 446.07 212.33
  Q 439.52 215.41 432.87 218.28
  Q 429.86 219.58 428.31 217.30
  Q 427.25 215.74 428.43 214.26
  C 431.72 210.16 428.26 210.45 426.46 208.46
  C 419.70 201.00 448.15 193.24 451.73 192.18
  A 1.92 1.81 -2.9 0 0 453.05 190.81
  L 455.25 180.75
  Q 455.91 177.75 458.44 179.06
  C 461.26 180.52 469.24 182.26 469.48 185.76
  Q 469.66 188.30 472.16 187.82
  C 486.19 185.10 508.65 187.23 513.84 203.81
  Q 514.56 206.11 514.67 208.28
  C 515.54 226.05 505.30 237.97 491.62 248.14
  Q 474.90 260.57 456.21 269.76
  C 454.93 270.39 451.07 272.75 449.50 272.75
  C 444.89 272.75 449.39 268.90 450.02 267.71
  A 1.87 1.49 62.6 0 0 450.21 266.75
  C 449.73 260.15 452.57 256.91 458.30 253.52
  C 473.07 244.80 495.15 232.12 498.25 214.50
  C 499.03 210.08 496.23 206.53 492.38 204.44
  C 485.70 200.80 477.63 201.94 470.50 203.74
  C 464.87 205.16 464.89 209.10 463.64 213.64
  Q 462.90 216.33 462.72 217.46
  C 460.20 233.44 451.52 247.84 445.75 262.75
  Q 443.54 268.47 444.62 276.44
  A 1.47 1.11 64.4 0 1 444.43 277.37
  Q 442.85 279.67 439.91 275.43
  A 1.30 1.30 -38.8 0 0 437.96 275.22
  Z"
/>
<path fill="#000000" d="
  M 418.07 202.89
  C 421.08 207.27 408.00 208.43 405.15 209.08
  C 391.61 212.20 382.90 220.01 379.50 234.00
  C 378.45 238.32 379.46 241.03 381.07 245.56
  C 384.53 255.31 393.52 258.95 403.40 258.12
  Q 416.32 257.05 425.56 245.30
  Q 426.54 244.05 427.97 243.37
  Q 429.36 242.71 429.08 244.75
  A 1.39 1.18 35.3 0 0 429.31 245.64
  C 430.88 248.03 426.44 249.62 428.26 251.80
  Q 429.50 253.29 428.45 254.92
  Q 421.86 265.12 409.81 267.31
  C 392.43 270.48 375.53 267.27 367.70 249.71
  Q 367.52 249.30 367.57 248.75
  C 367.80 246.54 366.36 245.75 365.90 244.05
  C 365.02 240.82 365.50 237.92 365.42 235.01
  C 364.98 219.38 371.46 207.46 384.75 199.00
  C 391.01 195.01 408.93 187.38 413.49 191.87
  Q 414.70 193.06 416.37 192.77
  Q 422.51 191.70 421.76 197.43
  A 1.75 1.32 -27.8 0 1 421.35 198.30
  L 418.06 202.11
  A 0.70 0.58 49.4 0 0 418.07 202.89
  Z"
/>
</svg>
