<?xml version="1.0" encoding="UTF-8" standalone="no"?>
<!DOCTYPE svg PUBLIC "-//W3C//DTD SVG 1.1//EN" "http://www.w3.org/Graphics/SVG/1.1/DTD/svg11.dtd">
<svg xmlns="http://www.w3.org/2000/svg" version="1.1" viewBox="0 0 600 300">
<path fill="#000000" d="
  M 131.31 209.19
  L 200.55 209.19
  A 0.71 0.70 -90.0 0 0 201.25 208.48
  L 201.43 84.55
  Q 201.44 83.31 200.56 84.19
  L 49.83 235.05
  A 3.26 3.24 22.4 0 1 47.53 236.00
  L 5.44 236.00
  Q 3.87 236.00 4.99 234.89
  L 230.60 9.65
  Q 231.25 9.00 231.25 9.93
  L 231.25 235.26
  A 0.68 0.67 90.0 0 1 230.58 235.94
  L 60.27 236.00
  Q 59.00 236.00 59.90 235.10
  L 192.30 102.95
  Q 193.25 102.00 193.25 103.34
  L 193.25 200.27
  A 0.74 0.71 -90.0 0 1 192.54 201.01
  L 178.38 200.94
  A 0.83 0.81 -89.7 0 1 177.57 200.10
  L 177.93 153.88
  Q 177.94 152.94 177.28 153.60
  L 131.04 200.07
  A 1.31 1.07 -27.6 0 0 130.67 200.93
  L 130.78 208.69
  A 0.53 0.50 0.0 0 0 131.31 209.19
  Z"
/>
<path fill="#000000" d="
  M 265.82 207.44
  L 308.40 207.50
  A 0.85 0.85 -0.0 0 1 309.25 208.35
  L 309.25 235.08
  A 0.92 0.92 -0.1 0 1 308.33 236.00
  L 237.94 236.00
  A 1.12 1.12 -89.7 0 1 236.82 234.87
  L 237.00 103.68
  A 0.96 0.95 0.0 0 1 237.96 102.73
  L 264.20 102.82
  A 1.05 1.04 0.0 0 1 265.25 103.86
  L 265.31 206.94
  A 0.51 0.50 0.0 0 0 265.82 207.44
  Z"
/>
<path fill="#000000" d="
  M 319.41 102.97
  Q 336.37 102.57 352.62 102.82
  C 367.73 103.05 376.54 102.23 385.56 111.94
  C 404.27 132.08 404.63 169.55 386.68 190.43
  C 376.11 202.71 362.32 201.24 347.84 200.59
  A 1.28 1.28 1.3 0 0 346.50 201.87
  L 346.50 235.45
  A 0.55 0.54 -90.0 0 1 345.96 236.00
  L 319.27 235.94
  A 0.77 0.77 89.9 0 1 318.50 235.17
  L 318.50 103.90
  A 0.93 0.93 -0.6 0 1 319.41 102.97
  Z
  M 367.00 169.02
  Q 377.10 156.59 371.07 141.43
  Q 368.34 134.56 362.23 131.26
  C 357.82 128.87 352.48 129.10 347.33 129.28
  A 0.87 0.86 89.0 0 0 346.50 130.15
  L 346.56 174.19
  A 0.56 0.56 0.0 0 0 347.12 174.75
  C 354.92 174.75 361.52 175.76 367.00 169.02
  Z"
/>
<path fill="#000000" d="
  M 408.39 102.97
  L 435.04 102.93
  A 0.73 0.71 90.0 0 1 435.75 103.66
  L 435.75 154.29
  A 0.65 0.64 -0.0 0 0 436.40 154.93
  L 459.79 154.93
  A 1.71 1.68 -0.0 0 0 461.50 153.25
  L 461.50 103.83
  A 0.90 0.88 90.0 0 1 462.38 102.93
  L 488.70 102.93
  A 0.82 0.80 -90.0 0 1 489.50 103.75
  L 489.56 235.25
  A 0.75 0.75 0.0 0 1 488.81 236.00
  L 462.35 236.00
  A 0.85 0.85 -0.0 0 1 461.50 235.15
  L 461.50 184.34
  A 1.09 1.09 89.8 0 0 460.41 183.25
  L 436.26 183.25
  A 0.59 0.58 90.0 0 0 435.68 183.84
  L 435.57 235.31
  A 0.52 0.50 -90.0 0 1 435.07 235.83
  L 408.19 235.83
  A 0.51 0.51 -89.7 0 1 407.68 235.32
  L 407.50 103.88
  A 0.91 0.89 90.0 0 1 408.39 102.97
  Z"
/>
<path fill="#000000" d="
  M 556.81 209.04
  L 543.72 168.92
  A 0.99 0.52 76.6 0 0 543.12 168.23
  Q 542.95 168.22 542.80 168.33
  A 0.82 0.46 87.0 0 0 542.53 168.88
  Q 542.39 170.11 541.75 172.00
  Q 531.11 203.37 520.32 235.30
  A 1.05 1.04 9.3 0 1 519.33 236.00
  L 498.38 236.00
  A 0.88 0.88 0.0 0 1 497.50 235.12
  L 497.50 209.71
  Q 497.50 208.19 498.00 206.77
  L 534.02 103.67
  A 0.78 0.70 -79.8 0 1 534.69 103.15
  L 549.17 102.77
  A 2.26 2.12 78.9 0 1 551.26 104.27
  Q 574.34 169.23 596.50 234.76
  A 0.89 0.89 80.6 0 1 595.66 235.94
  L 531.66 236.00
  A 0.59 0.59 -81.3 0 1 531.10 235.23
  L 538.65 210.84
  A 1.47 1.41 -81.0 0 1 540.01 209.81
  L 556.23 209.82
  A 0.61 0.60 -8.8 0 0 556.81 209.04
  Z"
/>
<path fill="#000000" d="
  M 282.34 262.42
  C 279.21 259.63 278.22 256.43 279.73 252.39
  C 283.37 242.68 298.56 243.81 300.89 254.91
  A 0.67 0.66 78.0 0 1 300.39 255.69
  Q 298.62 256.09 297.77 255.88
  A 0.97 0.68 84.7 0 1 297.20 255.21
  C 295.55 248.72 285.23 247.90 283.00 253.75
  C 279.33 263.39 302.93 257.71 301.56 272.79
  C 300.43 285.13 280.51 285.15 278.34 272.86
  C 277.93 270.50 277.19 269.77 280.70 270.09
  A 1.37 1.36 -0.5 0 1 281.94 271.30
  C 282.75 279.21 296.38 280.88 297.78 272.67
  C 298.83 266.47 289.12 265.51 285.09 264.06
  Q 283.55 263.50 282.34 262.42
  Z"
/>
<path fill="#000000" d="
  M 383.85 281.39
  C 373.31 277.64 372.43 262.63 375.99 254.21
  C 380.15 244.38 393.70 242.62 398.80 252.83
  C 400.10 255.43 400.70 256.31 397.14 256.84
  A 1.06 1.06 -12.0 0 1 395.96 256.08
  C 393.56 247.39 382.36 248.43 379.50 256.25
  C 376.82 263.59 377.73 280.07 389.71 277.65
  C 393.13 276.96 396.06 273.79 396.50 270.50
  Q 396.72 268.89 398.06 269.51
  Q 398.53 269.72 398.99 269.75
  C 403.49 270.01 395.71 285.62 383.85 281.39
  Z"
/>
<path fill="#000000" d="
  M 421.4953 282.1798
  A 18.20 14.55 89.7 0 1 406.8502 264.0562
  A 18.20 14.55 89.7 0 1 421.3047 245.7802
  A 18.20 14.55 89.7 0 1 435.9498 263.9038
  A 18.20 14.55 89.7 0 1 421.4953 282.1798
  Z
  M 421.4544 278.1998
  A 14.20 10.42 89.7 0 0 431.7999 263.9454
  A 14.20 10.42 89.7 0 0 421.3056 249.8002
  A 14.20 10.42 89.7 0 0 410.9601 264.0546
  A 14.20 10.42 89.7 0 0 421.4544 278.1998
  Z"
/>
<path fill="#000000" d="
  M 19.58 248.03
  A 1.16 1.14 3.1 0 1 20.42 247.29
  C 23.87 246.53 23.67 246.92 24.79 249.98
  Q 30.30 265.09 35.77 280.22
  A 0.47 0.47 72.8 0 1 35.45 280.83
  Q 33.63 281.31 31.80 280.83
  A 0.95 0.88 87.1 0 1 31.16 280.21
  L 28.44 271.81
  A 1.17 1.17 81.1 0 0 27.33 271.00
  L 15.87 271.00
  A 1.03 0.96 -80.4 0 0 14.94 271.71
  L 12.24 280.09
  A 1.21 0.88 -85.9 0 1 11.63 280.81
  Q 10.69 281.16 8.81 280.72
  A 0.63 0.62 16.3 0 1 8.36 279.91
  L 19.58 248.03
  Z
  M 21.32 252.33
  L 16.78 266.11
  A 0.56 0.53 -77.5 0 0 17.22 266.84
  Q 21.59 267.35 26.20 266.75
  A 0.42 0.39 76.8 0 0 26.51 266.21
  L 22.02 252.34
  Q 21.68 251.26 21.32 252.33
  Z"
/>
<path fill="#000000" d="
  M 47.71 276.94
  L 61.18 277.06
  A 0.71 0.67 -8.4 0 1 61.85 277.53
  Q 63.07 281.39 59.47 281.16
  C 54.21 280.84 48.96 281.05 43.69 280.83
  A 0.52 0.52 1.1 0 1 43.19 280.31
  L 43.19 247.94
  A 0.81 0.74 79.7 0 1 43.65 247.21
  Q 45.03 246.64 46.46 247.12
  A 0.72 0.70 -81.0 0 1 46.94 247.80
  L 47.00 276.22
  A 0.72 0.71 90.0 0 0 47.71 276.94
  Z"
/>
<path fill="#000000" d="
  M 91.85 251.41
  Q 94.05 254.98 92.92 259.59
  C 90.72 268.59 81.96 267.00 74.91 267.00
  A 0.66 0.66 89.9 0 0 74.25 267.66
  L 74.25 279.99
  A 0.78 0.78 -6.0 0 1 73.63 280.75
  C 69.49 281.66 70.27 280.79 70.24 278.06
  Q 70.11 263.75 69.99 248.17
  A 1.16 1.16 89.8 0 1 71.15 247.00
  C 77.70 247.00 87.94 245.06 91.85 251.41
  Z
  M 88.19 253.66
  C 85.69 249.86 79.46 250.76 75.36 251.16
  A 1.23 1.23 -2.8 0 0 74.25 252.38
  L 74.25 262.48
  A 0.52 0.52 0.0 0 0 74.77 263.00
  C 78.75 263.00 86.35 264.22 88.31 260.06
  Q 90.02 256.44 88.19 253.66
  Z"
/>
<path fill="#000000" d="
  M 105.56 265.56
  L 105.44 279.94
  A 0.89 0.81 77.2 0 1 105.01 280.70
  Q 103.39 281.55 101.75 280.70
  A 0.86 0.80 -76.6 0 1 101.32 279.94
  Q 101.63 264.61 101.50 249.28
  C 101.48 246.71 101.22 246.49 104.74 247.28
  A 0.68 0.62 6.9 0 1 105.27 247.90
  L 105.45 260.31
  A 0.54 0.48 89.4 0 0 105.93 260.84
  L 120.32 260.84
  A 0.55 0.52 -89.4 0 0 120.84 260.30
  L 121.01 248.24
  A 1.01 0.97 84.7 0 1 121.78 247.27
  C 125.39 246.48 125.00 247.07 125.00 250.22
  Q 125.04 265.21 124.94 280.19
  A 0.73 0.62 84.0 0 1 124.47 280.88
  Q 123.54 281.11 121.70 280.74
  A 0.89 0.88 6.1 0 1 121.00 279.88
  L 121.00 265.87
  A 0.87 0.86 -90.0 0 0 120.14 265.00
  L 106.05 265.06
  A 0.50 0.49 -90.0 0 0 105.56 265.56
  Z"
/>
<path fill="#000000" d="
  M 151.45 271.05
  L 139.75 271.00
  A 0.72 0.70 -80.9 0 0 139.08 271.50
  Q 137.74 275.72 136.64 279.54
  Q 136.05 281.56 132.61 280.72
  A 0.46 0.46 16.5 0 1 132.28 280.12
  L 143.43 248.21
  A 1.43 1.42 -86.6 0 1 144.47 247.28
  C 147.89 246.53 147.68 246.96 148.78 249.96
  C 149.81 252.79 160.00 280.13 159.69 280.58
  Q 159.22 281.28 156.23 280.71
  A 1.90 1.67 84.0 0 1 154.93 279.51
  L 152.13 271.52
  A 0.75 0.70 -8.3 0 0 151.45 271.05
  Z
  M 145.00 252.87
  C 144.69 256.78 142.27 262.04 140.85 266.17
  A 0.61 0.61 -80.4 0 0 141.42 266.98
  L 150.04 266.94
  A 0.59 0.56 80.3 0 0 150.56 266.16
  L 146.01 252.76
  Q 145.20 250.37 145.00 252.87
  Z"
/>
<path fill="#000000" d="
  M 198.60 249.39
  Q 200.47 250.69 201.52 252.70
  C 204.89 259.15 205.05 269.44 201.43 275.40
  C 196.95 282.77 187.34 281.00 179.92 281.00
  A 0.67 0.67 89.8 0 1 179.25 280.33
  L 179.25 247.66
  A 0.66 0.66 0.0 0 1 179.91 247.00
  C 186.05 247.00 193.39 245.76 198.60 249.39
  Z
  M 196.06 252.69
  C 193.15 250.31 187.51 250.79 183.93 251.14
  A 0.57 0.55 -2.9 0 0 183.42 251.69
  L 183.42 276.32
  A 0.58 0.55 3.5 0 0 183.93 276.87
  C 190.78 277.58 197.00 277.82 199.07 270.20
  C 200.53 264.80 200.79 256.55 196.06 252.69
  Z"
/>
<path fill="#000000" d="
  M 218.07 276.94
  L 234.93 277.06
  A 0.71 0.66 -7.6 0 1 235.60 277.53
  Q 236.05 278.99 235.61 280.46
  A 0.72 0.68 8.2 0 1 234.93 280.94
  L 214.27 280.99
  A 0.77 0.76 89.6 0 1 213.50 280.22
  L 213.50 247.82
  A 0.82 0.82 0.0 0 1 214.32 247.00
  Q 224.50 247.00 233.50 247.00
  Q 235.59 247.00 235.17 248.53
  Q 235.04 249.00 235.12 249.49
  Q 235.40 251.28 232.75 251.00
  Q 229.68 250.67 217.93 251.17
  A 0.56 0.51 -1.2 0 0 217.39 251.68
  L 217.39 260.31
  A 0.54 0.52 0.0 0 0 217.93 260.83
  L 233.12 260.98
  A 0.67 0.65 -4.8 0 1 233.76 261.51
  Q 234.13 263.44 233.87 264.47
  A 0.73 0.62 5.6 0 1 233.20 264.94
  L 217.95 265.17
  A 0.58 0.57 -87.7 0 0 217.39 265.69
  Q 216.92 271.07 217.51 276.43
  A 0.57 0.56 87.2 0 0 218.07 276.94
  Z"
/>
<path fill="#000000" d="
  M 249.05 255.59
  Q 248.96 266.50 249.00 278.12
  C 249.01 281.02 249.20 281.50 245.96 280.76
  A 0.90 0.89 -84.1 0 1 245.25 279.88
  L 245.25 247.78
  A 0.74 0.63 -89.3 0 1 245.90 247.04
  L 248.96 247.17
  A 1.12 0.67 68.8 0 1 249.69 247.74
  L 264.26 272.51
  Q 265.18 274.09 265.19 272.26
  Q 265.25 261.29 265.25 249.69
  C 265.25 247.24 264.36 246.37 268.27 247.22
  A 0.71 0.70 -83.9 0 1 268.82 247.91
  L 268.93 280.18
  A 0.71 0.67 81.6 0 1 268.46 280.85
  C 264.40 282.12 264.14 279.64 262.62 277.12
  Q 256.18 266.49 249.79 255.39
  Q 249.07 254.13 249.05 255.59
  Z"
/>
<path fill="#000000" d="
  M 314.56 265.56
  L 314.44 279.94
  A 0.89 0.81 77.2 0 1 314.01 280.70
  Q 312.39 281.55 310.75 280.70
  A 0.91 0.77 -78.4 0 1 310.33 279.93
  L 310.33 248.37
  A 1.16 1.11 84.9 0 1 311.24 247.24
  Q 313.84 246.75 314.40 247.79
  C 315.05 248.99 314.47 258.34 314.44 260.32
  A 0.52 0.49 90.0 0 0 314.93 260.84
  L 329.32 260.84
  A 0.54 0.51 -89.4 0 0 329.83 260.31
  L 330.06 247.81
  A 0.70 0.64 83.4 0 1 330.53 247.16
  Q 332.02 246.72 333.52 247.11
  A 0.67 0.63 -83.3 0 1 334.00 247.75
  L 333.94 280.18
  A 0.75 0.62 84.1 0 1 333.47 280.88
  Q 332.54 281.11 330.70 280.74
  A 0.89 0.88 6.1 0 1 330.00 279.88
  L 330.00 265.87
  A 0.87 0.86 90.0 0 0 329.14 265.00
  L 315.05 265.06
  A 0.50 0.49 -90.0 0 0 314.56 265.56
  Z"
/>
<rect fill="#000000" x="344.75" y="247.03" width="4.02" height="33.96" rx="0.60"/>
<path fill="#000000" d="
  M 495.71 276.94
  L 509.18 277.06
  A 0.71 0.67 -8.4 0 1 509.85 277.53
  Q 511.07 281.39 507.47 281.16
  C 502.21 280.84 496.96 281.05 491.69 280.83
  A 0.52 0.52 1.1 0 1 491.19 280.31
  L 491.19 247.94
  A 0.81 0.74 79.7 0 1 491.65 247.21
  Q 493.03 246.64 494.46 247.12
  A 0.72 0.70 -81.0 0 1 494.94 247.80
  L 495.00 276.22
  A 0.72 0.71 90.0 0 0 495.71 276.94
  Z"
/>
<path fill="#000000" d="
  M 521.18 251.05
  L 512.81 250.94
  A 0.73 0.62 -6.0 0 1 512.12 250.47
  Q 511.89 249.54 512.26 247.71
  A 0.90 0.88 -83.9 0 1 513.12 247.00
  L 534.93 247.06
  A 0.75 0.62 -5.9 0 1 535.63 247.53
  Q 535.86 248.46 535.49 250.30
  A 0.89 0.88 -83.9 0 1 534.63 251.00
  L 526.74 251.00
  A 0.99 0.99 0.0 0 0 525.75 251.99
  L 525.81 280.06
  A 0.79 0.73 79.3 0 1 525.36 280.77
  Q 521.83 282.24 521.81 278.44
  Q 521.76 265.00 521.69 251.57
  A 0.52 0.52 0.6 0 0 521.18 251.05
  Z"
/>
<path fill="#000000" d="
  M 563.31 249.19
  C 570.12 254.15 570.14 266.92 567.50 273.25
  C 563.40 283.08 553.42 281.00 544.92 281.00
  A 0.67 0.67 -89.9 0 1 544.25 280.33
  L 544.25 247.66
  A 0.66 0.66 -89.5 0 1 544.91 247.00
  C 550.63 247.00 558.69 245.82 563.31 249.19
  Z
  M 561.06 252.69
  C 558.16 250.31 552.50 250.80 548.93 251.14
  A 0.57 0.55 -2.9 0 0 548.42 251.69
  L 548.42 276.32
  A 0.57 0.54 2.9 0 0 548.93 276.86
  C 553.67 277.31 560.35 277.69 562.69 273.69
  C 565.89 268.19 566.31 256.99 561.06 252.69
  Z"
/>
<rect fill="#000000" x="-2.13" y="-2.00" transform="translate(447.88,279.00) rotate(1.3)" width="4.26" height="4.00" rx="0.68"/>
<path fill="#000000" d="
  M 461.95 281.10
  C 460.03 281.15 458.61 275.96 464.28 277.30
  A 0.99 0.98 -81.9 0 1 465.03 278.31
  C 464.88 281.57 465.27 285.69 462.18 287.52
  A 0.65 0.62 -35.9 0 1 461.38 287.41
  C 459.95 285.79 463.18 284.14 462.57 281.55
  A 0.63 0.57 -6.1 0 0 461.95 281.10
  Z"
/>
<rect fill="#000000" x="-2.13" y="-2.00" transform="translate(579.87,279.00) rotate(1.2)" width="4.26" height="4.00" rx="0.75"/>
</svg>
