<?xml version="1.0" encoding="UTF-8" standalone="no"?>
<!DOCTYPE svg PUBLIC "-//W3C//DTD SVG 1.1//EN" "http://www.w3.org/Graphics/SVG/1.1/DTD/svg11.dtd">
<svg xmlns="http://www.w3.org/2000/svg" version="1.1" viewBox="0 0 600 196">
<path fill="#ffffff" d="
  M 17.30 47.30
  L 17.26 57.89
  A 0.87 0.86 -89.7 0 1 16.40 58.75
  L 2.91 58.75
  A 0.91 0.91 -2.4 0 1 2.00 57.84
  L 2.00 9.60
  A 1.13 1.13 -4.1 0 1 2.97 8.48
  C 18.60 6.17 48.38 3.66 45.69 29.27
  C 44.58 39.92 35.09 46.46 25.00 46.50
  Q 20.30 46.52 17.80 46.76
  A 0.56 0.54 -2.9 0 0 17.30 47.30
  Z
  M 17.96 37.37
  C 35.27 39.12 35.55 15.26 18.06 16.72
  A 0.89 0.88 -2.5 0 0 17.25 17.60
  L 17.25 36.58
  A 0.79 0.79 -87.2 0 0 17.96 37.37
  Z"
/>
<path fill="#ffffff" d="
  M 219.75 46.54
  L 213.25 46.71
  C 212.41 46.93 212.75 56.75 212.75 58.08
  A 0.67 0.67 -90.0 0 1 212.08 58.75
  L 198.76 58.75
  A 1.26 1.26 -88.2 0 1 197.50 57.49
  L 197.50 9.02
  A 0.64 0.64 87.0 0 1 198.07 8.38
  C 214.51 6.55 246.53 3.47 240.83 31.62
  C 238.85 41.40 229.41 46.43 219.75 46.54
  Z
  M 213.44 37.60
  C 231.14 38.74 230.80 14.77 213.44 16.87
  A 0.59 0.57 -3.4 0 0 212.92 17.44
  L 212.91 37.07
  A 0.57 0.53 2.3 0 0 213.44 37.60
  Z"
/>
<path fill="#ffffff" d="
  M 264.75 59.54
  L 259.50 59.54
  Q 252.99 59.28 246.79 57.34
  A 0.82 0.81 4.1 0 1 246.22 56.69
  L 244.66 46.27
  Q 244.55 45.52 245.25 45.84
  Q 254.53 50.10 264.81 49.31
  C 272.40 48.73 270.12 41.47 264.44 39.56
  C 256.42 36.87 246.60 33.74 246.01 23.56
  C 244.94 5.16 268.79 6.14 279.94 8.70
  A 0.73 0.69 3.6 0 1 280.51 9.31
  L 281.65 19.01
  A 0.56 0.54 7.6 0 1 280.89 19.57
  Q 273.23 16.53 265.42 17.54
  C 257.96 18.49 261.66 24.66 266.31 26.19
  C 273.60 28.58 283.24 31.42 284.72 40.25
  C 286.93 53.41 276.12 59.47 264.75 59.54
  Z"
/>
<path fill="#ffffff" d="
  M 67.06 39.56
  L 66.83 58.07
  A 0.54 0.53 -0.0 0 1 66.30 58.59
  L 52.91 58.71
  A 1.18 1.15 89.8 0 1 51.75 57.53
  L 51.75 9.06
  A 0.81 0.81 -3.4 0 1 52.56 8.25
  L 66.33 8.25
  A 0.67 0.67 5.8 0 1 67.00 8.92
  L 67.00 27.38
  A 0.84 0.82 90.0 0 0 67.82 28.22
  L 82.18 28.20
  A 0.51 0.51 89.6 0 0 82.69 27.69
  L 82.75 9.27
  A 1.02 1.00 -90.0 0 1 83.75 8.25
  L 97.43 8.25
  A 0.64 0.64 -89.8 0 1 98.07 8.89
  L 98.07 57.93
  A 0.82 0.81 -90.0 0 1 97.26 58.75
  L 83.68 58.75
  A 0.93 0.93 0.6 0 1 82.75 57.82
  L 82.75 39.55
  A 0.55 0.55 2.2 0 0 82.24 39.00
  Q 74.52 38.40 67.57 39.02
  A 0.55 0.55 -1.7 0 0 67.06 39.56
  Z"
/>
<rect fill="#ffffff" x="109.25" y="8.25" width="15.26" height="50.50" rx="0.60"/>
<path fill="#ffffff" d="
  M 151.56 48.44
  L 164.81 48.67
  A 0.45 0.42 6.3 0 1 165.25 49.18
  L 163.21 58.10
  A 0.67 0.59 5.3 0 1 162.57 58.57
  L 136.66 58.75
  A 0.89 0.89 0.0 0 1 135.76 57.85
  L 135.93 8.93
  A 0.55 0.53 -2.3 0 1 136.44 8.40
  Q 143.45 7.92 150.44 8.52
  A 0.54 0.54 2.3 0 1 150.94 9.06
  L 151.06 47.93
  A 0.51 0.51 0.6 0 0 151.56 48.44
  Z"
/>
<rect fill="#ffffff" x="170.99" y="8.26" width="15.26" height="50.48" rx="0.66"/>
<path fill="#ffffff" d="
  M 202.94 136.76
  A 0.62 0.62 6.3 0 0 202.33 136.00
  L 156.78 136.00
  A 0.78 0.78 0.0 0 1 156.00 135.22
  L 156.00 129.27
  A 1.27 1.27 0.0 0 1 157.27 128.00
  L 211.12 128.00
  A 0.89 0.88 -0.7 0 1 212.01 128.86
  C 212.80 157.59 192.61 182.46 164.60 188.12
  C 157.67 189.52 145.61 189.86 138.28 188.30
  Q 106.56 181.57 93.56 151.19
  C 90.11 143.11 89.66 133.27 90.01 123.41
  C 90.96 96.14 110.91 73.06 137.56 67.83
  C 144.40 66.49 155.88 66.21 163.12 67.60
  Q 189.30 72.65 204.06 95.82
  Q 206.03 98.93 202.51 98.94
  L 195.32 98.96
  A 1.05 0.89 69.0 0 1 194.52 98.52
  C 182.87 82.20 163.48 72.77 142.97 76.18
  C 113.50 81.08 93.18 109.08 99.68 138.88
  C 106.18 168.72 136.90 187.79 166.92 177.88
  Q 195.91 168.31 202.94 136.76
  Z"
/>
<path fill="#ffffff" d="
  M 46.70 166.38
  Q 46.99 167.16 47.29 166.38
  L 83.51 69.66
  A 0.82 0.67 -77.7 0 1 84.18 69.13
  L 91.35 69.10
  Q 93.61 69.09 92.74 71.41
  Q 73.75 122.27 55.19 171.98
  Q 52.13 180.18 48.68 188.22
  C 47.88 190.06 47.94 190.72 45.81 190.19
  A 0.98 0.96 86.4 0 1 45.13 189.58
  L 0.81 71.63
  Q -0.18 68.99 2.41 69.03
  L 9.32 69.14
  A 0.80 0.70 79.0 0 1 9.99 69.66
  L 46.70 166.38
  Z"
/>
<path fill="#ffffff" d="
  M 345.94 79.94
  C 357.36 65.68 376.96 64.96 389.18 78.81
  C 400.67 91.83 404.79 109.37 405.03 126.30
  C 405.32 146.28 400.08 174.74 380.24 185.19
  Q 371.52 189.78 361.70 187.33
  C 336.36 181.03 330.07 144.90 331.04 123.71
  C 331.80 107.08 335.57 92.88 345.94 79.94
  Z
  M 367.9900 181.7700
  A 53.28 30.80 90.0 0 0 398.7900 128.4900
  A 53.28 30.80 90.0 0 0 367.9900 75.2100
  A 53.28 30.80 90.0 0 0 337.1900 128.4900
  A 53.28 30.80 90.0 0 0 367.9900 181.7700
  Z"
/>
<path fill="#ffffff" d="
  M 427.94 79.94
  C 437.56 67.82 454.11 64.96 466.69 74.56
  C 494.71 95.97 493.52 160.83 466.44 182.69
  C 455.06 191.87 438.21 188.97 428.92 178.33
  C 415.88 163.40 412.15 142.92 413.05 123.71
  C 413.85 106.92 417.54 93.02 427.94 79.94
  Z
  M 449.9900 181.7800
  A 53.28 30.80 90.0 0 0 480.7900 128.5000
  A 53.28 30.80 90.0 0 0 449.9900 75.2200
  A 53.28 30.80 90.0 0 0 419.1900 128.5000
  A 53.28 30.80 90.0 0 0 449.9900 181.7800
  Z"
/>
<path fill="#ffffff" d="
  M 510.94 79.94
  C 520.56 67.88 537.09 64.93 549.69 74.56
  C 569.09 89.40 571.96 121.75 568.99 143.75
  C 566.61 161.42 556.59 185.57 535.87 187.94
  C 518.45 189.93 506.25 174.97 501.13 159.91
  C 492.44 134.30 493.49 101.81 510.94 79.94
  Z
  M 532.9900 181.7700
  A 53.27 30.81 90.0 0 0 563.8000 128.5000
  A 53.27 30.81 90.0 0 0 532.9900 75.2300
  A 53.27 30.81 90.0 0 0 502.1800 128.5000
  A 53.27 30.81 90.0 0 0 532.9900 181.7700
  Z"
/>
<path fill="#ffffff" d="
  M 268.28 113.00
  C 297.26 101.73 325.20 121.04 324.05 152.20
  C 323.26 173.78 304.89 190.01 283.25 189.10
  Q 258.77 188.07 247.93 165.78
  A 0.85 0.74 -33.4 0 1 248.20 164.81
  L 252.62 161.27
  A 0.50 0.47 -30.1 0 1 253.39 161.45
  C 259.60 178.13 277.72 186.48 294.51 181.28
  C 322.47 172.62 326.31 134.51 300.19 120.21
  Q 283.13 110.87 264.36 122.67
  A 0.78 0.70 -41.3 0 1 263.51 122.66
  L 259.26 119.41
  A 0.84 0.75 -61.7 0 1 259.04 118.49
  L 277.26 71.49
  A 0.77 0.76 -79.3 0 1 277.97 71.00
  L 318.20 71.06
  A 0.61 0.61 84.2 0 1 318.80 71.55
  Q 319.33 74.02 318.87 76.29
  A 0.90 0.89 -84.0 0 1 318.00 77.00
  L 282.69 77.00
  A 1.45 1.41 10.3 0 0 281.35 77.90
  L 267.99 112.72
  Q 267.80 113.19 268.28 113.00
  Z"
/>
<path fill="#ffffff" d="
  M 583.46 76.50
  L 583.46 74.00
  Q 584.70 71.67 587.01 73.04
  A 1.01 0.94 -78.4 0 1 587.48 73.82
  C 587.64 76.03 586.00 85.57 591.77 82.20
  A 1.12 1.06 80.7 0 0 592.28 81.45
  C 592.86 78.19 590.57 71.00 596.10 73.01
  A 0.77 0.72 10.0 0 1 596.61 73.69
  L 596.70 81.23
  A 1.84 1.70 -79.5 0 0 597.73 82.87
  C 600.57 84.09 596.55 89.20 593.91 84.76
  A 0.91 0.90 -35.2 0 0 592.55 84.53
  Q 589.80 86.81 587.33 86.12
  Q 585.50 85.61 584.74 87.36
  Q 583.23 90.87 581.11 89.81
  A 1.02 1.02 7.0 0 1 580.55 89.09
  Q 580.20 87.33 582.07 86.15
  Q 583.69 85.13 583.63 82.98
  L 583.46 76.50
  Z"
/>
</svg>
