<?xml version="1.0" encoding="UTF-8" standalone="no"?>
<!DOCTYPE svg PUBLIC "-//W3C//DTD SVG 1.1//EN" "http://www.w3.org/Graphics/SVG/1.1/DTD/svg11.dtd">
<svg xmlns="http://www.w3.org/2000/svg" version="1.1" viewBox="0 0 600 300">
<path stroke="#000000" stroke-width="2.00" fill="none" stroke-linecap="butt" vector-effect="non-scaling-stroke" d="
  M 84.75 53.21
  Q 84.19 53.36 83.79 53.00"
/>
<path fill="#000000" d="
  M 84.75 53.21
  Q 84.19 53.36 83.79 53.00
  C 78.84 46.56 63.65 46.54 57.12 49.41
  C 53.81 50.87 49.43 54.97 51.04 59.18
  C 53.08 64.51 62.22 66.20 67.33 66.26
  Q 68.58 66.27 67.64 67.09
  L 43.25 88.54
  C 32.85 85.01 22.73 76.95 22.44 65.06
  C 22.11 51.97 40.74 42.76 51.23 40.40
  Q 72.61 35.58 93.95 42.91
  Q 95.08 43.29 94.16 44.05
  C 92.82 45.15 84.00 52.18 84.75 53.21
  Z"
/>
<path fill="#000000" d="
  M 171.68 108.82
  C 160.29 97.34 158.50 80.67 165.10 66.69
  C 171.51 53.13 185.30 50.27 199.50 51.47
  C 220.00 53.20 229.04 68.38 228.58 87.56
  A 0.54 0.52 -88.9 0 1 228.06 88.08
  L 205.06 88.20
  A 0.56 0.53 87.7 0 1 204.53 87.68
  C 203.98 79.90 203.00 70.69 192.50 72.25
  C 190.06 72.61 188.23 74.29 187.45 76.69
  Q 184.59 85.44 192.69 91.06
  C 204.77 99.45 221.26 107.39 226.23 120.99
  C 229.66 130.37 229.12 140.00 227.00 149.68
  C 223.57 165.37 212.90 169.00 198.09 169.57
  C 171.13 170.59 158.67 156.33 159.30 129.82
  A 0.52 0.50 -89.4 0 1 159.80 129.31
  L 183.77 129.25
  A 0.70 0.70 -86.0 0 1 184.46 130.05
  C 183.17 139.03 185.93 148.80 197.25 147.75
  C 205.12 147.02 204.49 136.54 201.69 131.76
  Q 200.03 128.90 194.88 125.17
  C 187.41 119.74 178.60 115.78 171.68 108.82
  Z"
/>
<path fill="#000000" d="
  M 83.79 53.00
  Q 84.19 53.36 84.75 53.21
  Q 86.98 53.35 90.56 54.44
  Q 113.88 61.55 127.81 81.19
  C 141.70 100.75 140.97 127.67 127.02 146.94
  C 94.94 191.29 15.45 182.79 0.38 126.73
  A 0.80 0.80 61.6 0 1 0.62 125.92
  L 42.64 89.21
  A 0.36 0.26 -47.1 0 1 43.02 89.13
  L 43.21 89.25
  C 47.31 104.16 66.37 107.54 78.81 103.31
  C 88.00 100.19 94.94 90.49 91.84 80.76
  C 88.78 71.17 78.34 67.03 69.02 66.50
  Q 68.07 66.45 68.80 65.82
  L 83.79 53.00
  Z"
/>
<path fill="#000000" d="
  M 278.00 162.30
  C 269.37 167.13 266.03 171.57 254.61 169.60
  C 237.38 166.62 233.13 151.65 237.11 136.33
  C 241.72 118.53 256.63 119.05 272.00 111.75
  Q 281.31 107.33 275.50 98.50
  C 273.46 95.40 269.43 95.47 266.51 96.89
  C 262.72 98.73 262.33 104.10 262.00 107.77
  A 1.02 1.00 -87.2 0 1 261.00 108.69
  L 237.17 108.75
  A 0.93 0.92 90.0 0 1 236.25 107.82
  C 236.23 98.51 240.31 87.85 248.96 83.03
  C 258.97 77.45 275.90 77.56 286.44 80.06
  C 302.71 83.93 303.28 97.86 303.08 111.75
  Q 302.73 135.57 303.44 159.39
  C 303.53 162.49 304.11 164.90 305.36 167.53
  A 0.33 0.33 -12.5 0 1 305.06 168.00
  L 282.03 168.00
  A 1.12 1.12 76.7 0 1 281.03 167.38
  L 278.65 162.50
  A 0.47 0.47 -27.9 0 0 278.00 162.30
  Z
  M 277.70 126.68
  C 271.34 129.83 261.56 132.57 260.94 141.19
  Q 260.45 147.99 265.60 150.42
  C 268.73 151.90 273.05 151.60 275.19 148.69
  C 279.65 142.62 277.91 134.43 278.43 127.17
  Q 278.49 126.29 277.70 126.68
  Z"
/>
<path fill="#000000" d="
  M 341.18 87.66
  Q 341.08 90.16 342.80 88.17
  C 352.02 77.51 368.33 76.30 376.49 88.78
  A 0.61 0.60 -42.6 0 0 377.47 88.82
  C 385.19 78.93 396.43 76.45 407.17 83.21
  C 412.65 86.67 415.51 91.21 415.51 97.75
  Q 415.50 131.00 415.50 165.73
  A 0.99 0.96 -89.7 0 1 414.53 166.72
  L 391.82 166.46
  A 0.52 0.51 -90.0 0 1 391.31 165.94
  Q 391.25 139.27 391.19 112.60
  C 391.18 107.84 391.66 99.69 384.25 100.50
  C 380.28 100.93 379.02 102.69 378.97 106.70
  Q 378.57 135.64 378.76 165.70
  A 1.05 1.05 0.0 0 1 377.71 166.75
  L 355.55 166.75
  A 1.31 1.31 0.0 0 1 354.24 165.44
  Q 354.43 134.50 354.00 104.50
  C 353.94 100.53 346.58 99.82 344.26 102.32
  C 341.77 105.01 342.46 115.85 342.50 120.00
  Q 342.69 139.70 342.32 166.07
  A 0.54 0.53 -1.2 0 1 341.81 166.59
  Q 330.05 167.10 318.31 166.47
  A 0.53 0.52 1.8 0 1 317.81 165.95
  L 317.81 82.92
  A 0.75 0.74 -0.0 0 1 318.56 82.18
  L 340.63 82.24
  A 0.75 0.73 -88.9 0 1 341.36 83.02
  L 341.18 87.66
  Z"
/>
<path fill="#000000" d="
  M 452.55 89.31
  Q 452.88 89.32 453.06 89.06
  C 461.31 77.57 478.64 77.12 486.94 88.77
  A 0.43 0.42 49.0 0 0 487.59 88.82
  Q 501.03 74.88 517.44 83.06
  C 524.52 86.59 526.22 92.87 526.31 100.91
  Q 526.67 132.68 526.49 165.65
  A 1.04 1.03 -90.0 0 1 525.46 166.69
  L 502.24 166.75
  A 0.67 0.67 -89.2 0 1 501.57 166.06
  Q 502.21 135.21 501.27 105.03
  Q 501.18 102.06 498.32 101.26
  C 492.47 99.62 489.79 102.45 489.71 108.13
  Q 489.33 136.49 489.51 165.94
  A 0.81 0.81 0.0 0 1 488.70 166.75
  L 466.14 166.75
  A 0.96 0.95 0.0 0 1 465.18 165.80
  C 465.27 145.65 465.34 125.79 464.89 106.00
  C 464.73 99.33 453.85 98.00 453.72 107.18
  Q 453.33 135.54 453.51 165.84
  A 1.34 1.33 89.8 0 1 452.18 167.19
  L 429.72 167.25
  A 1.23 1.22 -90.0 0 1 428.50 166.02
  L 428.50 83.16
  A 0.66 0.66 -0.2 0 1 429.16 82.50
  L 451.44 82.56
  A 0.53 0.51 -0.6 0 1 451.97 83.06
  L 452.08 88.70
  A 0.62 0.48 89.9 0 0 452.55 89.31
  Z"
/>
<path fill="#000000" d="
  M 566.14 132.56
  Q 566.44 132.60 566.50 132.25
  Q 570.60 107.39 574.52 82.39
  A 0.80 0.78 -86.1 0 1 575.28 81.71
  L 598.84 81.51
  A 0.82 0.81 -84.0 0 1 599.64 82.51
  Q 591.05 121.66 582.12 161.24
  C 579.34 173.57 575.18 193.08 559.77 194.90
  C 555.31 195.43 548.41 195.29 543.19 194.40
  A 0.63 0.59 5.2 0 1 542.67 193.81
  L 542.54 177.32
  A 1.35 1.17 1.8 0 1 543.97 176.16
  L 550.26 176.54
  A 1.37 0.89 -55.6 0 0 551.13 176.18
  Q 554.07 173.59 553.25 169.75
  Q 548.13 145.74 533.92 82.30
  A 0.43 0.43 -7.9 0 1 534.32 81.78
  Q 545.90 81.15 558.62 81.74
  A 0.91 0.91 -2.7 0 1 559.47 82.51
  Q 562.73 105.64 565.75 128.55
  Q 565.99 130.32 565.85 132.07
  A 0.47 0.35 -83.6 0 0 566.14 132.56
  Z"
/>
<path fill="#000000" d="
  M 12.09 247.11
  C -0.87 228.47 8.41 202.24 30.76 196.93
  Q 34.69 196.00 49.81 196.00
  Q 296.06 196.00 542.31 196.00
  C 557.79 196.00 574.03 193.54 585.58 205.61
  C 604.24 225.11 593.43 256.80 566.73 260.75
  Q 565.06 261.00 546.75 261.00
  Q 294.25 261.00 41.75 261.00
  Q 21.74 261.00 12.09 247.11
  Z
  M 62.79 244.45
  A 2.49 2.49 14.4 0 1 61.50 242.27
  Q 61.50 230.34 61.50 219.48
  C 61.50 215.88 61.06 213.54 64.82 212.59
  Q 68.89 211.55 72.85 212.45
  C 77.11 213.42 77.01 215.48 76.98 219.27
  A 1.62 1.50 -90.0 0 0 78.49 220.90
  L 90.56 220.85
  A 0.60 0.58 -86.5 0 0 91.13 220.33
  Q 92.56 209.32 81.92 206.61
  C 73.21 204.40 53.11 202.82 47.57 212.28
  Q 46.26 214.53 46.25 218.98
  Q 46.22 229.61 46.03 240.25
  C 45.74 256.59 81.43 255.84 88.55 247.32
  Q 91.98 243.22 91.04 235.82
  A 1.20 1.15 85.8 0 0 89.88 234.78
  L 77.69 234.91
  A 0.56 0.53 -88.3 0 0 77.16 235.44
  L 76.77 242.44
  A 2.52 2.48 -11.3 0 1 75.33 244.56
  Q 68.68 247.67 62.79 244.45
  Z
  M 160.46 246.31
  Q 160.61 245.80 160.33 245.36
  A 1.10 0.74 -10.9 0 0 159.49 245.00
  L 136.27 245.00
  A 0.77 0.77 0.0 0 1 135.50 244.23
  L 135.56 205.45
  A 0.45 0.45 0.0 0 0 135.11 205.00
  L 121.15 205.00
  A 0.65 0.65 0.0 0 0 120.50 205.65
  L 120.44 251.55
  A 0.45 0.45 -0.2 0 0 120.89 252.00
  L 159.65 252.00
  A 0.71 0.71 -83.9 0 0 160.34 251.44
  Q 160.78 249.38 160.36 247.24
  Q 160.29 246.88 160.46 246.31
  Z
  M 216.59 243.79
  L 218.73 251.33
  A 0.94 0.93 82.2 0 0 219.63 252.02
  L 232.97 252.16
  A 1.01 0.99 -8.2 0 0 233.96 250.87
  L 219.25 205.74
  A 1.09 1.09 80.7 0 0 218.22 205.00
  L 197.57 205.00
  A 1.13 1.13 8.8 0 0 196.49 205.79
  L 181.70 251.14
  A 0.66 0.65 -80.9 0 0 182.32 252.00
  L 194.59 252.00
  A 1.22 1.16 -81.8 0 0 195.72 251.11
  L 197.79 243.83
  A 1.09 1.09 -81.6 0 1 198.85 243.04
  L 215.93 243.28
  A 0.70 0.70 -7.3 0 1 216.59 243.79
  Z
  M 258.44 211.19
  C 253.33 218.07 259.17 224.70 265.54 227.74
  C 269.69 229.72 284.19 235.51 285.56 239.69
  C 288.27 247.90 268.88 248.93 270.59 239.48
  A 1.23 1.18 -84.8 0 0 269.43 238.03
  L 256.68 238.16
  A 0.59 0.56 -87.7 0 0 256.13 238.69
  C 254.54 255.63 281.12 254.07 291.26 251.55
  C 305.37 248.05 302.97 235.45 291.82 230.18
  C 288.22 228.47 267.13 220.57 272.37 214.26
  C 275.34 210.69 287.89 210.75 286.55 217.87
  A 0.96 0.96 5.3 0 0 287.49 219.00
  L 300.30 219.00
  A 0.70 0.70 0.0 0 0 301.00 218.30
  C 301.04 204.61 283.02 204.26 273.57 205.19
  C 267.74 205.76 261.69 206.80 258.44 211.19
  Z
  M 330.12 208.78
  C 324.19 212.90 323.85 219.83 329.78 224.46
  Q 334.67 228.28 340.38 230.70
  C 343.81 232.15 358.75 237.92 354.30 243.71
  C 351.45 247.41 338.18 247.63 339.59 239.45
  A 1.20 1.16 -85.3 0 0 338.44 238.04
  L 325.68 238.16
  A 0.59 0.56 -87.7 0 0 325.13 238.69
  C 323.53 255.67 350.10 254.05 360.24 251.47
  C 367.74 249.57 373.32 243.16 368.24 236.15
  C 363.70 229.87 352.93 226.63 346.21 223.01
  C 335.15 217.05 342.23 210.65 351.43 212.35
  Q 355.69 213.14 355.76 218.22
  A 0.77 0.75 89.2 0 0 356.52 218.98
  L 369.32 218.84
  A 0.59 0.56 -87.7 0 0 369.87 218.31
  C 371.44 201.66 338.46 202.99 330.12 208.78
  Z
  M 411.51 205.43
  A 0.42 0.42 0.0 0 0 411.09 205.01
  L 396.91 205.01
  A 0.42 0.42 0.0 0 0 396.49 205.43
  L 396.49 251.57
  A 0.42 0.42 0.0 0 0 396.91 251.99
  L 411.09 251.99
  A 0.42 0.42 0.0 0 0 411.51 251.57
  L 411.51 205.43
  Z
  M 455.74 244.44
  A 2.49 2.39 15.8 0 1 454.52 242.35
  L 454.48 216.26
  Q 454.48 213.65 457.05 212.82
  C 460.11 211.83 464.84 211.66 467.59 212.93
  C 470.65 214.35 469.89 217.67 470.04 220.45
  A 0.53 0.52 88.9 0 0 470.56 220.96
  L 483.56 220.84
  A 0.59 0.59 -86.5 0 0 484.13 220.33
  Q 485.56 209.31 474.93 206.59
  C 466.65 204.47 444.36 202.84 440.01 212.98
  Q 439.25 214.75 439.25 218.63
  C 439.25 224.74 437.51 242.76 441.55 247.38
  C 448.06 254.81 469.95 254.03 477.47 250.55
  Q 485.56 246.80 484.13 235.43
  A 0.60 0.57 86.5 0 0 483.57 234.91
  L 470.84 234.78
  A 0.96 0.93 87.7 0 0 469.91 235.82
  C 470.15 238.83 470.70 242.82 467.99 244.69
  C 464.91 246.81 458.37 246.02 455.74 244.44
  Z
  M 522.97 205.81
  C 508.88 208.25 507.81 221.78 520.56 227.69
  C 522.19 228.44 538.88 235.12 540.69 240.06
  C 542.57 245.22 535.83 246.10 532.47 245.92
  C 527.85 245.67 524.81 244.74 525.57 239.23
  A 1.04 1.01 -86.1 0 0 524.57 238.04
  L 511.68 238.16
  A 0.59 0.56 -87.7 0 0 511.13 238.69
  C 509.53 255.67 536.10 254.05 546.24 251.47
  C 553.74 249.57 559.32 243.17 554.24 236.15
  C 551.68 232.61 547.14 230.10 542.99 228.27
  C 539.65 226.79 529.51 222.69 527.81 219.69
  C 523.08 211.32 535.67 210.89 539.44 213.06
  Q 541.79 214.41 541.74 218.18
  A 0.79 0.76 -90.0 0 0 542.51 218.98
  L 555.31 218.84
  A 0.59 0.57 -87.7 0 0 555.87 218.31
  C 557.31 203.00 531.77 204.29 522.97 205.81
  Z"
/>
<path fill="#000000" d="
  M 200.09 236.52
  L 206.79 214.52
  A 0.37 0.37 44.3 0 1 207.49 214.52
  L 214.19 236.52
  A 0.37 0.37 81.6 0 1 213.84 237.00
  L 200.44 237.00
  A 0.37 0.37 8.7 0 1 200.09 236.52
  Z"
/>
</svg>
