<?xml version="1.0" encoding="UTF-8" standalone="no"?>
<!DOCTYPE svg PUBLIC "-//W3C//DTD SVG 1.1//EN" "http://www.w3.org/Graphics/SVG/1.1/DTD/svg11.dtd">
<svg xmlns="http://www.w3.org/2000/svg" version="1.1" viewBox="0.00 0.00 600.00 129.00">
<g stroke-width="2.00" fill="none" stroke-linecap="butt">
<path stroke="#6f8673" vector-effect="non-scaling-stroke" d="
  M 528.06 41.20
  L 527.83 45.69"
/>
<path stroke="#6f8673" vector-effect="non-scaling-stroke" d="
  M 541.88 42.21
  Q 542.71 36.86 542.08 31.22"
/>
<path stroke="#7b489e" vector-effect="non-scaling-stroke" d="
  M 156.26 108.68
  Q 160.68 85.53 159.71 62.85
  Q 159.13 49.52 157.79 36.20"
/>
<path stroke="#29bc9f" vector-effect="non-scaling-stroke" d="
  M 456.59 17.93
  Q 454.90 26.55 457.05 34.32"
/>
<path stroke="#1296d6" vector-effect="non-scaling-stroke" d="
  M 310.77 46.68
  Q 310.03 46.68 309.49 46.49
  A 0.76 0.74 -81.2 0 1 308.99 45.79
  L 308.71 26.83"
/>
<path stroke="#1296d6" vector-effect="non-scaling-stroke" d="
  M 292.60 82.73
  L 290.51 107.83"
/>
<path stroke="#00bbe5" vector-effect="non-scaling-stroke" d="
  M 392.05 114.62
  Q 391.42 109.78 389.23 105.62"
/>
<path stroke="#00bbe5" vector-effect="non-scaling-stroke" d="
  M 387.52 97.03
  L 387.94 89.35"
/>
<path stroke="#00bbe5" vector-effect="non-scaling-stroke" d="
  M 373.74 54.38
  L 373.97 33.20"
/>
<path stroke="#4c6ab4" vector-effect="non-scaling-stroke" d="
  M 237.27 111.14
  L 239.50 93.29"
/>
<path stroke="#4c6ab4" vector-effect="non-scaling-stroke" d="
  M 231.30 67.21
  L 229.99 44.25"
/>
<path stroke="#bc2a97" vector-effect="non-scaling-stroke" d="
  M 111.01 39.92
  L 105.17 39.91"
/>
<path stroke="#4e8f9b" vector-effect="non-scaling-stroke" d="
  M 474.06 115.09
  L 470.25 115.00"
/>
</g>
<path fill="#cd1c94" d="
  M 28.43 32.56
  Q 23.29 31.90 18.77 33.25
  A 3.15 3.00 -48.5 0 1 17.50 33.36
  Q 14.56 33.03 7.93 33.47
  C 4.12 33.73 1.66 33.08 0.30 29.62
  A 0.51 0.44 -59.2 0 1 0.27 29.45
  L 0.27 18.94
  A 0.96 0.66 61.3 0 1 0.29 18.75
  L 1.06 16.24
  A 1.22 1.06 -40.9 0 0 1.12 15.82
  C 0.95 10.32 3.85 3.42 10.32 2.58
  Q 15.71 1.88 20.31 4.34
  A 2.83 2.78 -7.3 0 1 21.10 4.94
  Q 24.80 8.90 24.16 13.65
  A 0.57 0.57 0.0 0 0 24.89 14.27
  Q 27.02 13.65 28.25 13.68
  Q 35.91 13.85 43.77 13.27
  A 0.88 0.88 0.0 0 0 44.55 12.62
  Q 44.88 11.39 45.00 9.31
  Q 45.12 7.15 46.94 4.09
  A 3.39 3.39 0.0 0 1 47.81 3.12
  Q 52.13 -0.04 58.02 0.31
  Q 61.36 0.51 62.98 1.55
  Q 67.72 4.61 69.10 10.37
  C 70.51 16.29 71.10 22.09 68.97 27.86
  A 2.00 1.97 0.8 0 1 67.72 29.06
  C 64.78 30.04 62.36 29.15 59.52 29.53
  C 56.73 29.89 55.34 29.79 52.47 30.31
  Q 50.29 30.70 48.43 30.45
  A 0.75 0.74 5.9 0 0 47.59 31.13
  Q 46.59 43.78 49.19 56.93
  A 8.10 8.06 -49.4 0 1 49.34 58.93
  C 49.14 63.44 50.08 67.83 50.06 72.01
  C 50.01 81.68 51.42 91.48 51.74 101.41
  C 51.88 105.71 52.86 109.70 52.72 113.91
  A 2.82 2.81 75.3 0 1 51.38 116.22
  Q 47.60 118.53 43.28 120.32
  Q 42.99 120.44 40.26 120.56
  A 1.03 0.84 -32.4 0 1 39.92 120.52
  L 34.20 119.09
  A 4.15 4.14 -7.3 0 1 31.57 117.06
  C 29.61 113.48 29.76 107.88 29.82 103.00
  Q 30.08 82.19 29.16 63.80
  C 28.86 57.73 29.17 52.86 28.77 48.58
  C 28.27 43.31 28.83 39.64 29.01 33.24
  A 0.66 0.66 0.0 0 0 28.43 32.56
  Z"
/>
<path fill="#71bf46" d="
  M 528.06 41.20
  L 527.83 45.69
  L 528.11 50.73
  A 1.84 1.83 13.6 0 0 529.03 52.23
  L 530.37 53.00
  A 2.27 2.23 50.0 0 0 532.26 53.18
  L 540.17 50.44
  A 1.22 1.21 -6.3 0 0 540.98 49.44
  L 541.88 42.21
  Q 542.71 36.86 542.08 31.22
  Q 542.99 26.45 542.31 21.71
  A 4.42 4.16 -48.5 0 1 542.28 20.74
  Q 542.55 17.01 542.77 14.99
  C 543.38 9.42 548.43 8.39 552.80 6.56
  A 2.83 2.77 -48.7 0 1 554.51 6.43
  Q 558.93 7.51 560.11 11.93
  A 3.19 3.03 -53.0 0 1 560.21 12.79
  Q 560.15 14.38 560.53 15.57
  A 2.79 2.77 45.8 0 1 560.51 17.32
  C 559.95 18.93 560.22 21.51 559.85 23.70
  Q 558.20 33.22 558.07 43.18
  C 558.05 45.33 560.12 46.40 561.87 46.53
  A 2.41 2.41 0.0 0 1 564.04 48.42
  C 564.92 52.49 565.88 56.17 563.53 59.59
  A 2.86 2.82 89.5 0 1 562.91 60.23
  Q 560.91 61.66 558.58 63.32
  C 556.98 64.45 557.34 67.61 557.53 69.54
  A 8.31 8.13 -42.7 0 1 557.41 71.89
  Q 556.62 75.96 556.87 77.45
  Q 558.01 84.13 557.59 91.65
  Q 557.57 92.15 556.88 94.02
  A 1.66 1.65 54.3 0 0 556.78 94.64
  L 556.91 100.70
  A 3.18 3.17 80.4 0 1 554.72 103.79
  C 550.58 105.15 546.84 104.21 542.89 106.04
  A 1.78 1.77 64.0 0 1 540.57 105.24
  C 539.84 103.83 539.20 100.83 539.19 98.82
  C 539.17 93.36 539.16 86.91 539.79 80.65
  Q 540.21 76.58 540.22 69.58
  A 0.77 0.77 0.0 0 0 539.16 68.86
  Q 536.23 70.01 533.49 70.13
  Q 531.67 70.22 529.40 71.44
  C 527.94 72.21 527.31 74.65 527.31 76.33
  C 527.30 81.59 527.36 84.81 526.47 89.51
  Q 524.98 97.34 525.52 104.50
  A 2.82 2.64 -40.2 0 1 525.40 105.53
  C 523.99 109.83 520.45 111.15 516.06 112.30
  C 513.51 112.97 509.11 113.41 507.56 110.57
  A 1.78 1.74 -59.9 0 1 507.33 109.66
  L 507.41 94.03
  A 3.54 3.47 -38.7 0 1 507.51 93.20
  Q 508.80 88.22 508.17 81.28
  A 1.07 1.07 0.0 0 0 507.68 80.48
  Q 505.48 79.07 501.00 78.96
  Q 499.35 78.92 496.35 77.37
  A 2.53 2.45 -4.5 0 1 495.54 76.70
  Q 490.29 69.99 496.56 64.09
  Q 498.06 62.69 503.27 61.76
  A 5.28 5.05 27.8 0 0 504.22 61.49
  C 507.03 60.43 509.53 59.90 510.19 56.95
  A 2.68 2.39 51.2 0 0 510.23 56.17
  Q 509.50 48.64 509.96 44.23
  Q 510.71 36.97 510.71 35.02
  C 510.70 32.92 511.45 30.76 511.52 29.01
  Q 511.54 28.40 511.54 16.50
  A 0.96 0.94 -22.9 0 1 511.82 15.83
  L 514.88 12.77
  A 1.35 1.32 24.8 0 1 515.95 12.39
  Q 518.38 12.61 521.59 11.27
  Q 524.17 10.19 525.23 10.47
  C 528.62 11.36 530.02 14.17 530.40 17.54
  Q 531.26 25.16 529.43 34.28
  C 529.07 36.11 528.99 38.90 528.06 41.20
  Z"
/>
<path fill="#6c4ca0" d="
  M 156.26 108.68
  Q 160.68 85.53 159.71 62.85
  Q 159.13 49.52 157.79 36.20
  L 163.86 59.56
  A 8.68 8.32 37.1 0 1 164.13 61.24
  Q 164.36 65.18 165.35 68.22
  A 0.83 0.82 -16.2 0 0 166.34 68.76
  Q 167.09 68.58 167.57 67.58
  Q 168.09 66.49 169.03 62.77
  Q 172.06 50.72 172.67 48.64
  Q 174.67 41.86 176.17 34.50
  Q 177.31 28.95 180.30 20.50
  C 182.02 15.63 185.02 12.28 190.26 12.24
  A 2.40 2.35 61.7 0 1 191.65 12.67
  Q 196.61 16.11 197.96 21.73
  Q 198.68 24.72 198.67 26.57
  Q 198.64 29.67 199.15 31.40
  C 200.05 34.41 199.24 39.27 200.13 42.91
  Q 200.62 44.89 200.52 50.66
  A 5.67 5.34 -54.6 0 0 200.75 52.31
  Q 201.41 54.48 201.86 62.11
  Q 202.11 66.22 202.88 71.90
  Q 206.45 98.07 213.21 122.27
  A 2.39 2.38 63.5 0 1 212.37 124.80
  Q 207.29 128.70 199.43 128.22
  A 1.09 1.08 -14.6 0 1 198.57 127.72
  Q 197.28 125.66 197.10 124.03
  Q 196.14 115.57 194.64 108.28
  C 191.91 95.09 190.56 83.75 188.63 71.51
  Q 188.33 69.60 187.13 63.05
  A 1.06 1.06 0.0 0 0 185.21 62.65
  Q 183.98 64.49 183.40 66.13
  Q 181.43 71.65 180.32 78.03
  C 178.65 87.63 176.34 96.96 174.96 104.56
  A 2.83 2.77 -25.0 0 1 174.58 105.57
  Q 172.17 109.56 168.74 110.48
  Q 164.93 111.51 161.39 112.46
  A 2.54 2.54 0.0 0 1 158.79 111.65
  L 156.26 108.68
  Z"
/>
<path fill="#0cbbb4" d="
  M 456.59 17.93
  Q 454.90 26.55 457.05 34.32
  Q 454.08 33.96 451.00 33.28
  Q 449.14 32.87 447.98 34.56
  A 1.68 1.62 65.8 0 0 447.70 35.34
  Q 444.45 67.86 443.60 72.65
  Q 440.14 91.90 438.45 113.39
  A 8.29 7.98 -55.4 0 1 438.27 114.54
  Q 437.65 117.17 437.64 118.64
  A 3.67 3.66 -7.3 0 1 434.91 122.17
  L 432.19 122.88
  A 1.71 1.70 47.1 0 1 431.20 122.84
  Q 430.45 122.59 423.06 121.06
  Q 420.52 120.54 419.47 118.09
  A 2.58 2.50 31.5 0 1 419.30 117.43
  Q 418.18 105.78 420.23 93.57
  C 420.62 91.24 419.90 89.10 420.28 87.25
  Q 421.39 81.87 423.96 65.42
  Q 424.67 60.85 424.92 57.32
  Q 425.23 52.96 426.38 49.26
  C 427.49 45.65 427.75 40.79 428.51 37.35
  C 429.30 33.74 429.05 30.62 424.76 30.49
  Q 418.54 30.30 409.48 29.31
  A 1.01 0.99 -9.7 0 1 408.69 28.76
  Q 406.84 24.90 406.90 23.53
  Q 407.01 20.89 406.64 16.86
  A 2.28 2.28 0.0 0 1 408.40 14.42
  Q 409.70 14.12 411.49 14.13
  Q 418.52 14.17 424.24 15.01
  C 427.87 15.54 431.15 15.56 435.44 16.08
  Q 443.58 17.07 456.59 17.93
  Z"
/>
<path fill="#45bd89" d="
  M 457.05 34.32
  Q 454.90 26.55 456.59 17.93
  L 467.36 18.36
  A 1.34 1.28 61.3 0 1 467.96 18.55
  C 469.53 19.54 471.72 18.68 473.42 19.28
  Q 475.24 19.91 475.87 19.87
  A 0.43 0.43 0.0 0 1 476.33 20.32
  L 476.13 23.87
  A 7.89 7.75 -37.3 0 1 475.97 24.98
  Q 475.62 25.94 474.16 31.92
  C 473.50 34.63 471.91 35.83 468.92 35.63
  Q 463.00 35.23 457.05 34.32
  Z"
/>
<path fill="#71bf46" d="
  M 585.96 21.73
  Q 586.39 21.34 587.46 22.01
  Q 588.17 22.45 588.80 22.35
  C 593.43 21.58 595.36 26.13 597.91 28.84
  A 2.48 2.43 13.1 0 1 598.45 29.69
  Q 600.21 34.12 599.21 37.97
  Q 598.43 40.98 596.52 42.49
  C 592.62 45.60 587.05 43.96 585.60 39.20
  A 1.19 1.19 0.0 0 1 587.22 37.77
  L 588.26 38.23
  A 1.40 1.40 0.0 0 0 589.45 38.21
  Q 590.70 37.60 591.35 36.39
  A 1.13 1.12 -43.6 0 0 591.38 35.36
  Q 590.19 32.87 588.95 31.84
  A 2.12 2.10 -18.7 0 0 588.01 31.38
  Q 583.90 30.52 580.93 33.55
  A 1.89 1.88 -15.3 0 0 580.44 34.40
  C 579.08 39.32 581.72 43.08 584.38 47.05
  A 1.76 1.72 -65.2 0 1 584.67 47.87
  Q 584.82 49.77 583.32 50.43
  A 1.25 1.23 -44.1 0 1 582.31 50.42
  Q 578.60 48.69 577.27 47.54
  C 567.60 39.15 573.02 28.21 582.21 22.67
  A 2.49 2.48 30.9 0 1 583.62 22.32
  Q 584.07 22.34 585.17 22.33
  A 1.11 0.11 -42.9 0 0 585.96 21.73
  Z"
/>
<path fill="#8a449c" d="
  M 157.79 36.20
  Q 159.13 49.52 159.71 62.85
  Q 160.68 85.53 156.26 108.68
  Q 154.04 99.05 152.20 89.69
  Q 151.09 84.06 151.04 79.20
  Q 150.98 73.19 150.13 67.63
  Q 149.95 66.47 149.31 66.22
  A 1.29 1.21 -72.8 0 0 147.70 67.14
  C 146.53 71.57 146.92 76.61 145.77 80.67
  C 143.29 89.46 142.66 98.43 140.12 107.58
  Q 139.38 110.24 137.74 111.71
  C 135.47 113.74 130.67 116.63 127.80 114.97
  Q 126.48 114.20 124.59 111.62
  C 122.44 108.69 123.39 106.20 124.20 102.03
  Q 127.62 84.25 128.84 79.57
  Q 133.51 61.74 134.72 53.49
  Q 134.95 51.90 136.85 46.21
  A 13.33 12.50 -34.4 0 0 137.41 43.67
  C 137.80 40.47 138.15 39.15 138.52 35.77
  Q 139.28 28.68 145.01 23.71
  Q 146.90 22.07 148.49 22.06
  C 155.31 21.99 157.40 31.29 157.79 36.20
  Z"
/>
<path fill="#049fde" d="
  M 310.77 46.68
  Q 310.03 46.68 309.49 46.49
  A 0.76 0.74 -81.2 0 1 308.99 45.79
  L 308.71 26.83
  Q 320.44 24.14 332.26 26.30
  A 4.61 4.09 58.7 0 1 333.20 26.59
  C 336.03 27.81 338.50 28.44 339.02 31.49
  A 1.91 1.89 50.9 0 1 338.92 32.50
  Q 334.82 42.77 333.17 45.85
  Q 331.63 48.72 328.83 49.42
  Q 327.79 49.68 323.32 48.27
  Q 317.28 46.38 310.77 46.68
  Z"
/>
<path fill="#208cce" d="
  M 308.71 26.83
  L 308.99 45.79
  A 0.76 0.74 -81.2 0 0 309.49 46.49
  Q 310.03 46.68 310.77 46.68
  Q 306.10 46.57 301.58 49.86
  C 295.02 54.64 291.98 59.98 291.51 68.35
  Q 291.10 75.55 292.60 82.73
  L 290.51 107.83
  C 284.14 102.70 279.78 95.94 277.85 88.03
  C 276.97 84.47 276.04 82.20 275.91 79.29
  Q 275.49 69.64 276.24 63.93
  Q 277.56 53.80 283.55 43.97
  C 286.36 39.36 290.31 37.13 294.09 33.38
  C 297.51 30.00 303.60 26.99 308.71 26.83
  Z"
/>
<path fill="#6c4ca0" d="
  M 541.88 42.21
  L 542.08 31.22
  Q 542.71 36.86 541.88 42.21
  Z"
/>
<path fill="#00bcd6" d="
  M 392.05 114.62
  Q 391.42 109.78 389.23 105.62
  Q 393.04 106.74 395.58 103.32
  Q 397.72 100.44 395.74 97.78
  Q 392.25 93.09 387.52 97.03
  L 387.94 89.35
  C 394.17 89.85 395.45 84.91 396.51 79.88
  Q 397.10 77.08 397.21 73.60
  Q 397.45 65.15 397.44 63.01
  Q 397.41 58.62 393.87 57.24
  Q 390.80 56.04 385.46 55.07
  C 381.88 54.41 377.64 54.51 373.74 54.38
  L 373.97 33.20
  C 385.14 31.61 395.46 34.22 402.10 43.64
  Q 405.82 48.92 407.98 53.45
  Q 410.34 58.38 411.32 64.33
  Q 412.94 74.15 413.03 81.75
  C 413.21 96.17 406.44 109.22 392.05 114.62
  Z"
/>
<path fill="#4274bb" d="
  M 237.27 111.14
  L 239.50 93.29
  Q 244.98 88.22 246.78 80.74
  Q 247.49 77.78 248.31 74.19
  A 4.78 4.61 52.7 0 0 248.44 73.09
  Q 248.49 69.94 249.18 68.36
  A 2.96 2.95 -43.6 0 0 249.24 66.14
  Q 248.62 64.51 248.63 60.72
  Q 248.64 59.90 247.28 57.26
  A 1.04 1.04 0.0 0 0 246.39 56.70
  Q 244.99 56.65 244.30 55.86
  A 1.24 1.23 -44.0 0 0 242.47 55.84
  Q 241.67 56.71 240.01 56.58
  A 1.68 1.64 31.2 0 0 239.03 56.81
  C 234.64 59.43 233.58 63.22 231.30 67.21
  L 229.99 44.25
  C 232.43 42.91 235.12 41.35 238.08 40.91
  C 240.37 40.57 244.24 42.09 246.55 43.00
  Q 248.56 43.79 249.50 43.57
  A 1.17 1.16 -86.5 0 0 250.39 42.77
  L 252.77 34.99
  A 2.38 2.37 -76.3 0 1 255.47 33.34
  Q 262.05 34.56 268.08 37.64
  A 3.18 3.17 17.0 0 1 269.79 40.85
  L 269.34 44.62
  A 1.91 1.49 64.5 0 1 269.28 44.89
  Q 265.51 56.73 265.34 58.76
  Q 264.20 72.09 267.15 84.87
  Q 267.79 87.63 273.31 102.85
  Q 274.86 107.14 274.90 108.56
  C 275.07 116.01 265.72 117.45 260.35 116.18
  Q 258.60 115.77 257.71 113.31
  Q 256.66 110.40 254.53 104.75
  Q 253.86 102.95 253.00 102.56
  Q 251.75 102.00 250.54 103.30
  Q 244.81 109.46 237.27 111.14
  Z"
/>
<path fill="#00baf4" d="
  M 373.97 33.20
  L 373.74 54.38
  Q 366.22 52.62 361.78 58.56
  A 2.34 2.32 70.1 0 0 361.39 59.40
  Q 359.23 69.21 359.33 80.04
  C 359.39 86.66 363.73 85.83 368.15 87.37
  Q 370.06 88.04 372.96 88.47
  Q 380.43 89.56 387.94 89.35
  L 387.52 97.03
  Q 384.29 101.71 389.23 105.62
  Q 391.42 109.78 392.05 114.62
  L 387.32 116.29
  A 1.44 1.34 -53.4 0 1 386.83 116.38
  C 384.81 116.38 383.13 117.08 380.81 117.33
  Q 372.56 118.22 364.94 116.29
  Q 358.08 114.56 353.74 110.49
  C 351.11 108.02 348.34 105.22 346.50 102.44
  C 340.57 93.46 339.33 80.70 341.57 70.29
  C 344.47 56.80 356.02 44.01 367.18 36.17
  Q 369.34 34.65 373.97 33.20
  Z
  M 366.40 96.92
  A 5.68 5.68 0.0 0 0 360.72 91.24
  A 5.68 5.68 0.0 0 0 355.04 96.92
  A 5.68 5.68 0.0 0 0 360.72 102.60
  A 5.68 5.68 0.0 0 0 366.40 96.92
  Z
  M 381.49 101.69
  A 5.68 5.68 0.0 0 0 375.81 96.01
  A 5.68 5.68 0.0 0 0 370.13 101.69
  A 5.68 5.68 0.0 0 0 375.81 107.37
  A 5.68 5.68 0.0 0 0 381.49 101.69
  Z"
/>
<path fill="#cd1c94" d="
  M 111.01 39.92
  L 105.17 39.91
  L 111.01 39.92
  Z"
/>
<path fill="#ab3799" d="
  M 105.17 39.91
  L 111.01 39.92
  C 113.47 39.76 121.28 39.71 122.85 43.01
  A 1.67 1.64 -53.8 0 1 122.99 43.98
  Q 119.58 65.03 117.54 77.75
  Q 114.62 95.98 114.59 111.25
  A 3.88 3.88 0.0 0 1 112.65 114.61
  Q 106.06 118.46 99.01 115.39
  A 2.63 2.62 13.4 0 1 97.43 112.84
  L 98.18 99.84
  A 0.80 0.79 66.8 0 0 96.78 99.28
  C 87.08 110.72 67.48 115.72 62.36 96.48
  Q 61.10 91.72 60.87 84.85
  C 60.69 79.59 62.56 73.76 63.63 67.79
  A 3.54 3.26 65.8 0 1 63.95 66.83
  C 65.99 62.72 67.38 58.67 70.05 55.63
  Q 74.94 50.07 80.76 46.82
  A 2.10 2.07 30.2 0 1 81.77 46.56
  L 93.18 46.56
  A 1.25 1.19 -31.3 0 1 93.69 46.67
  L 101.50 50.14
  A 0.58 0.58 0.0 0 0 102.31 49.55
  Q 102.10 47.48 102.75 45.53
  C 103.37 43.66 101.85 40.53 105.17 39.91
  Z
  M 78.89 91.98
  Q 80.85 92.36 83.29 91.52
  C 88.44 89.74 90.75 85.76 93.45 80.47
  Q 96.21 75.05 97.20 67.74
  C 98.36 59.21 87.22 60.37 83.58 64.03
  Q 82.11 65.52 79.16 72.09
  C 76.61 77.77 75.00 83.78 76.38 89.38
  A 3.57 3.11 87.1 0 0 78.89 91.98
  Z"
/>
<path fill="#6c4ca0" d="
  M 528.06 41.20
  L 527.83 45.69
  L 528.06 41.20
  Z"
/>
<path fill="#5660ac" d="
  M 229.99 44.25
  L 231.30 67.21
  L 228.17 76.83
  A 1.70 1.56 55.0 0 0 228.10 77.37
  Q 228.40 83.08 229.38 85.96
  Q 230.53 89.37 233.16 92.66
  A 2.12 2.10 83.1 0 0 233.92 93.26
  Q 236.68 94.53 239.50 93.29
  L 237.27 111.14
  Q 233.20 112.45 230.73 111.67
  Q 229.30 111.22 227.61 110.93
  C 222.91 110.14 220.27 108.52 218.50 103.47
  Q 215.52 94.93 215.20 93.41
  A 11.10 10.98 -51.8 0 1 214.94 91.12
  Q 214.86 86.40 214.87 77.24
  C 214.87 72.43 216.67 65.97 217.90 61.90
  Q 221.16 51.10 229.99 44.25
  Z"
/>
<path fill="#45bd89" d="
  M 474.06 115.09
  L 470.25 115.00
  C 462.02 114.29 459.82 110.19 454.87 104.16
  Q 453.52 102.51 452.91 98.93
  C 451.77 92.17 450.33 85.08 451.73 78.49
  Q 453.66 69.36 456.33 61.55
  Q 457.66 57.69 461.40 54.40
  Q 471.47 45.56 483.77 44.91
  C 485.83 44.81 486.28 47.45 486.09 49.04
  A 0.83 0.72 41.2 0 0 486.13 49.34
  L 488.37 55.80
  A 1.30 1.30 0.0 0 1 487.60 57.45
  C 482.34 59.46 471.10 64.76 469.20 70.17
  Q 464.29 84.17 469.32 97.91
  A 2.56 2.56 0.0 0 0 471.97 99.58
  C 477.73 99.03 482.69 92.90 486.66 88.19
  A 1.27 1.27 0.0 0 1 488.59 88.18
  L 490.34 90.18
  A 1.60 1.54 -5.6 0 0 490.76 90.51
  L 497.14 93.95
  A 1.68 1.67 20.4 0 1 497.98 95.77
  Q 495.53 107.44 484.71 111.98
  Q 478.77 114.47 474.06 115.09
  Z"
/>
<path fill="#71bf46" d="
  M 591.04 108.21
  Q 587.64 118.26 577.14 117.64
  C 574.15 117.47 572.39 114.52 572.12 111.78
  Q 572.12 111.73 572.25 107.23
  Q 572.50 98.70 573.84 88.04
  C 574.59 82.05 574.47 76.83 574.55 71.18
  C 574.62 66.49 575.76 62.97 577.22 58.83
  A 1.58 1.57 -79.7 0 1 578.73 57.78
  Q 582.97 57.85 587.31 56.28
  A 2.68 2.54 -51.1 0 1 588.43 56.13
  Q 593.14 56.55 593.52 62.24
  Q 594.03 69.78 592.91 77.81
  Q 591.96 84.66 592.02 87.72
  Q 592.13 93.11 592.18 98.59
  A 1.70 1.69 62.1 0 1 591.89 99.54
  Q 591.32 100.38 591.33 100.77
  Q 591.42 105.13 591.17 107.59
  A 2.87 2.67 58.9 0 1 591.04 108.21
  Z"
/>
<path fill="#049fde" d="
  M 290.51 107.83
  L 292.60 82.73
  C 293.78 87.43 295.76 92.82 300.79 94.10
  Q 305.18 95.21 309.68 92.13
  Q 313.94 89.22 315.44 84.01
  Q 316.05 81.88 313.97 80.52
  C 310.43 78.23 304.91 76.07 301.69 72.84
  C 299.69 70.83 301.84 64.90 303.22 62.73
  Q 305.87 58.55 310.50 59.77
  A 3.41 3.39 68.8 0 1 311.49 60.21
  C 314.07 61.89 316.94 64.15 319.58 63.91
  A 1.87 1.85 56.2 0 1 320.62 64.12
  Q 328.73 68.41 330.71 69.55
  C 335.11 72.08 335.50 78.44 334.12 82.90
  Q 332.83 87.07 332.64 87.63
  Q 330.97 92.74 329.23 95.01
  C 327.45 97.34 325.90 99.86 324.25 101.37
  Q 319.89 105.35 317.83 106.58
  Q 316.26 107.52 309.70 110.39
  Q 307.00 111.57 301.75 111.29
  Q 295.02 110.93 290.51 107.83
  Z"
/>
<path fill="#5660ac" d="
  M 474.06 115.09
  Q 471.98 115.35 470.25 115.00
  L 474.06 115.09
  Z"
/>
</svg>
