<?xml version="1.0" encoding="UTF-8" standalone="no"?>
<!DOCTYPE svg PUBLIC "-//W3C//DTD SVG 1.1//EN" "http://www.w3.org/Graphics/SVG/1.1/DTD/svg11.dtd">
<svg xmlns="http://www.w3.org/2000/svg" version="1.1" viewBox="0 0 600 300">
<path fill="#000000" d="
  M 251.79 56.79
  C 264.05 53.00 274.58 47.83 287.73 47.75
  A 0.55 0.55 10.2 0 1 288.25 48.49
  L 283.45 61.39
  A 1.29 1.24 8.8 0 1 282.30 62.20
  Q 277.41 62.34 272.45 64.10
  Q 257.70 69.36 243.19 74.68
  A 0.80 0.80 -19.9 0 1 242.16 74.20
  Q 238.70 64.34 235.27 54.74
  Q 230.51 41.39 229.43 39.39
  C 213.95 10.63 169.14 22.28 170.53 55.12
  Q 170.74 60.16 174.42 70.53
  Q 189.33 112.51 204.08 154.27
  A 0.70 0.69 -19.3 0 0 204.97 154.69
  Q 246.43 139.86 287.44 125.44
  C 292.51 123.66 298.04 121.82 302.14 118.78
  C 319.09 106.23 319.11 82.97 303.40 69.04
  A 1.10 1.04 -60.0 0 1 303.12 67.86
  L 308.06 54.32
  A 1.32 1.28 -65.5 0 1 309.90 53.60
  C 344.22 72.51 348.85 120.71 314.91 143.08
  Q 309.68 146.52 297.35 150.96
  Q 242.93 170.54 188.49 189.63
  A 0.41 0.41 70.4 0 1 187.97 189.38
  Q 169.99 138.69 152.27 88.49
  Q 146.23 71.39 145.80 69.58
  C 138.84 40.37 157.39 12.04 186.58 6.22
  C 209.68 1.60 231.12 13.08 242.44 33.56
  Q 244.98 38.17 251.15 56.47
  A 0.52 0.51 -18.1 0 0 251.79 56.79
  Z"
/>
<path fill="#000000" d="
  M 368.88 139.58
  C 366.11 147.71 363.12 157.23 359.20 164.06
  C 338.95 199.23 291.32 198.53 269.52 165.29
  A 0.47 0.47 -26.1 0 1 269.76 164.59
  L 284.01 159.41
  A 1.23 1.20 -32.7 0 1 285.27 159.67
  C 298.82 172.62 319.72 172.90 331.99 157.96
  Q 334.86 154.46 337.67 147.27
  Q 345.72 126.67 353.08 105.76
  A 0.79 0.79 20.1 0 1 354.10 105.29
  Q 372.63 112.23 391.37 118.84
  Q 400.42 122.03 405.47 122.26
  C 438.35 123.74 450.13 78.87 421.07 63.32
  Q 419.04 62.23 407.67 58.12
  Q 362.40 41.75 316.53 24.90
  A 0.68 0.67 19.9 0 0 315.66 25.30
  L 279.45 124.66
  A 2.07 1.94 -88.7 0 1 278.27 125.86
  L 263.28 131.28
  A 0.32 0.31 83.8 0 1 262.87 130.94
  Q 263.59 125.40 265.75 119.50
  Q 286.27 63.45 306.92 6.32
  A 0.93 0.92 -69.9 0 1 308.11 5.76
  Q 358.62 24.23 409.60 42.82
  Q 424.64 48.31 428.19 50.16
  C 477.86 76.03 456.42 151.17 401.39 148.09
  C 391.36 147.52 380.03 142.93 370.15 139.00
  A 0.97 0.97 20.3 0 0 368.88 139.58
  Z"
/>
<path fill="#000000" d="
  M 426.28 253.24
  C 428.12 254.42 434.52 253.41 430.69 258.44
  C 429.11 260.51 407.66 260.31 405.33 258.66
  Q 403.35 257.26 404.81 255.32
  C 408.21 250.79 411.86 257.44 413.39 248.41
  C 414.14 244.00 416.82 233.80 415.26 229.87
  Q 410.26 217.26 404.93 205.36
  A 2.51 2.48 88.3 0 0 403.56 204.05
  Q 400.36 202.81 399.76 201.13
  Q 399.12 199.39 401.11 197.99
  C 403.37 196.40 416.16 197.25 419.56 197.29
  C 423.07 197.33 426.92 199.75 422.12 202.92
  A 1.86 1.45 23.7 0 1 421.18 203.16
  Q 416.81 203.01 418.76 207.50
  Q 421.89 214.69 425.66 222.84
  A 0.41 0.41 51.2 0 0 426.36 222.92
  L 438.67 206.22
  Q 440.11 204.26 437.78 203.50
  Q 431.88 201.59 434.67 198.65
  C 437.25 195.94 448.56 196.91 452.63 197.03
  Q 455.46 197.12 455.79 199.93
  C 456.25 204.01 449.83 203.29 447.54 206.05
  Q 438.84 216.54 430.62 227.43
  Q 429.25 229.24 428.85 231.51
  Q 427.12 241.53 425.55 251.63
  A 1.62 1.62 20.7 0 0 426.28 253.24
  Z"
/>
<path fill="#000000" d="
  M 230.56 198.05
  C 244.47 195.06 260.70 201.35 263.25 216.75
  C 264.73 225.68 262.98 236.55 258.47 244.36
  Q 249.80 259.39 230.31 259.58
  C 212.77 259.75 202.16 248.62 204.79 231.01
  C 207.33 213.95 212.25 201.99 230.56 198.05
  Z
  M 250.81 221.47
  C 251.03 213.07 249.75 204.21 239.23 203.84
  C 220.91 203.21 206.09 247.58 226.64 252.02
  C 242.87 255.53 250.50 233.45 250.81 221.47
  Z"
/>
<path fill="#000000" d="
  M 303.72 259.08
  C 283.88 262.36 269.77 250.90 273.00 230.00
  C 275.08 216.52 278.36 205.88 291.68 200.17
  Q 304.85 194.51 317.19 199.56
  C 331.28 205.33 333.58 219.26 330.88 232.78
  Q 326.36 255.33 303.72 259.08
  Z
  M 308.05 203.89
  C 292.54 202.66 285.82 224.93 284.73 236.46
  C 283.58 248.59 293.49 256.14 304.44 250.47
  C 315.53 244.73 319.07 229.27 318.83 217.92
  C 318.67 210.51 316.00 204.52 308.05 203.89
  Z"
/>
<path fill="#000000" d="
  M 358.62 230.35
  A 1.65 1.64 -83.8 0 0 356.91 231.73
  L 353.72 251.69
  Q 353.37 253.89 355.57 253.63
  C 360.38 253.06 361.08 259.39 354.80 259.81
  C 352.30 259.97 335.19 261.66 336.39 256.76
  Q 336.94 254.52 339.18 254.00
  Q 342.82 253.15 343.25 250.50
  Q 346.98 227.37 350.56 205.41
  A 1.41 1.41 9.8 0 0 349.42 203.80
  Q 343.43 202.72 345.73 199.48
  A 2.89 2.89 -72.7 0 1 348.05 198.26
  Q 359.25 198.11 369.50 198.00
  C 376.98 197.92 384.84 199.61 386.51 208.20
  Q 387.86 215.15 384.64 221.41
  C 379.19 232.04 368.69 230.93 358.62 230.35
  Z
  M 361.19 204.68
  L 357.88 225.53
  A 0.52 0.51 -82.0 0 0 358.32 226.13
  C 363.45 226.77 367.45 226.11 370.86 222.02
  C 377.25 214.38 375.92 200.59 362.48 203.30
  A 1.68 1.64 88.9 0 0 361.19 204.68
  Z"
/>
<path fill="#000000" d="
  M 191.14 246.60
  C 193.89 248.01 190.07 255.07 189.18 256.93
  Q 187.81 259.84 184.50 259.87
  Q 168.63 260.00 152.75 260.25
  Q 149.04 260.31 145.48 259.24
  Q 143.44 258.63 143.98 256.56
  C 145.10 252.27 150.45 254.85 151.25 250.50
  Q 155.13 229.31 158.25 207.98
  A 1.91 1.91 -79.9 0 0 156.75 205.83
  Q 153.25 205.11 153.32 202.85
  C 153.42 199.42 157.43 199.50 160.00 199.50
  C 161.44 199.50 181.53 197.70 176.49 203.81
  Q 175.24 205.33 172.62 205.85
  Q 170.68 206.23 169.94 208.06
  C 168.99 210.40 168.75 213.58 168.40 215.58
  Q 165.55 231.92 163.01 248.31
  C 161.60 257.42 175.89 253.89 179.85 252.05
  C 182.31 250.90 185.00 248.36 187.70 246.73
  Q 189.39 245.71 191.14 246.60
  Z"
/>
<path fill="#000000" d="
  M 257.62 296.07
  A 0.98 0.98 4.0 0 1 256.66 294.97
  Q 258.04 283.44 259.37 272.57
  C 259.77 269.28 259.33 266.42 264.24 267.25
  Q 266.05 267.56 265.83 269.38
  Q 264.70 278.51 263.43 286.99
  C 263.04 289.52 264.68 289.79 266.09 288.27
  Q 269.17 284.93 269.98 280.32
  A 1.47 1.20 79.4 0 1 270.43 279.49
  Q 272.38 277.89 273.62 278.58
  Q 275.23 279.48 274.77 281.26
  Q 270.93 296.21 257.62 296.07
  Z"
/>
<path fill="#000000" d="
  M 305.43 294.81
  Q 303.15 293.54 303.26 290.94
  Q 303.76 279.86 305.85 268.68
  A 0.84 0.83 86.6 0 1 306.42 268.03
  Q 313.96 265.68 311.35 273.22
  Q 310.42 275.88 313.23 275.98
  C 315.83 276.08 325.59 277.02 326.03 273.33
  C 327.39 262.08 340.24 269.92 333.40 275.73
  C 331.91 276.98 329.62 276.37 329.06 279.33
  A 1.41 1.32 -85.5 0 1 327.81 280.47
  L 311.99 281.30
  A 1.90 1.56 0.4 0 0 310.21 282.74
  L 309.71 288.80
  Q 309.50 291.25 312.40 291.25
  Q 320.06 291.25 327.62 291.25
  C 328.92 291.25 330.12 291.84 329.49 293.30
  Q 329.27 293.80 329.25 294.25
  C 329.14 296.31 327.80 297.25 325.74 297.25
  Q 318.90 297.25 312.05 297.25
  C 309.50 297.25 307.56 295.99 305.43 294.81
  Z
  M 328.9721 274.6150
  A 2.73 2.27 120.8 0 0 332.3198 273.4323
  A 2.73 2.27 120.8 0 0 331.7679 269.9250
  A 2.73 2.27 120.8 0 0 328.4202 271.1077
  A 2.73 2.27 120.8 0 0 328.9721 274.6150
  Z"
/>
<path fill="#000000" d="
  M 250.70 270.11
  A 1.81 1.80 -2.3 0 1 252.13 268.57
  C 256.30 267.74 256.59 267.98 256.07 272.01
  C 255.00 280.40 252.67 292.20 243.49 294.87
  A 0.67 0.63 -21.8 0 1 242.74 294.58
  C 240.18 290.09 246.33 288.12 247.44 284.69
  Q 249.73 277.59 250.70 270.11
  Z"
/>
<path fill="#000000" d="
  M 279.23 284.31
  A 1.17 1.16 88.3 0 1 278.12 283.26
  Q 277.86 280.51 278.93 279.39
  A 1.30 0.97 16.0 0 1 279.80 279.06
  L 298.48 279.00
  A 1.43 1.41 -88.5 0 1 299.90 280.51
  C 299.59 285.24 298.40 284.48 294.14 284.53
  Q 286.67 284.61 279.23 284.31
  Z"
/>
<rect fill="#000000" x="332.33" y="279.27" width="22.32" height="5.46" rx="1.69"/>
</svg>
