<?xml version="1.0" encoding="UTF-8" standalone="no"?>
<!DOCTYPE svg PUBLIC "-//W3C//DTD SVG 1.1//EN" "http://www.w3.org/Graphics/SVG/1.1/DTD/svg11.dtd">
<svg xmlns="http://www.w3.org/2000/svg" version="1.1" viewBox="0.00 0.00 600.00 196.00">
<g stroke-width="2.00" fill="none" stroke-linecap="butt">
<path stroke="#303d59" vector-effect="non-scaling-stroke" d="
  M 184.01 115.25
  L 180.91 122.25
  A 0.79 0.76 -77.3 0 1 180.21 122.71
  L 170.05 122.71
  A 0.47 0.47 0.0 0 1 169.61 122.06
  L 173.10 113.61"
/>
<path stroke="#5b6ca6" vector-effect="non-scaling-stroke" d="
  M 210.07 135.00
  L 189.29 134.53"
/>
<path stroke="#5b6ca6" vector-effect="non-scaling-stroke" d="
  M 138.75 139.88
  L 111.18 139.52"
/>
<path stroke="#5b6ca6" vector-effect="non-scaling-stroke" d="
  M 56.53 139.88
  L 37.65 139.75"
/>
<path stroke="#515490" vector-effect="non-scaling-stroke" d="
  M 134.19 175.71
  L 115.93 177.22"
/>
<path stroke="#515490" vector-effect="non-scaling-stroke" d="
  M 216.40 166.69
  Q 207.26 165.07 198.28 167.50"
/>
<path stroke="#515490" vector-effect="non-scaling-stroke" d="
  M 51.85 174.98
  Q 42.34 175.78 33.42 178.75"
/>
<path stroke="#6484bb" vector-effect="non-scaling-stroke" d="
  M 521.17 118.46
  L 501.60 117.67"
/>
<path stroke="#56629c" vector-effect="non-scaling-stroke" d="
  M 516.03 149.03
  L 497.59 151.04"
/>
<path stroke="#5b6ca6" vector-effect="non-scaling-stroke" d="
  M 376.54 134.77
  L 354.50 133.34"
/>
<path stroke="#5b6ca6" vector-effect="non-scaling-stroke" d="
  M 303.12 144.19
  Q 294.22 143.35 285.00 144.01"
/>
<path stroke="#515490" vector-effect="non-scaling-stroke" d="
  M 382.92 165.31
  Q 374.21 167.92 364.84 166.75"
/>
<path stroke="#515490" vector-effect="non-scaling-stroke" d="
  M 258.55 151.73
  Q 249.96 156.54 240.42 159.04"
/>
<path stroke="#515490" vector-effect="non-scaling-stroke" d="
  M 425.17 167.72
  L 406.99 169.80"
/>
</g>
<path fill="#000000" d="
  M 16.67 8.59
  A 0.38 0.37 -90.0 0 0 16.30 8.97
  L 16.30 88.04
  Q 16.30 88.62 15.72 88.62
  L 3.00 88.62
  Q 2.37 88.62 2.37 87.99
  L 2.37 0.70
  A 0.38 0.38 0.0 0 1 2.75 0.32
  Q 19.90 0.27 35.57 0.35
  Q 37.84 0.36 43.36 1.42
  Q 49.45 2.60 52.35 5.08
  C 57.72 9.68 59.69 17.66 59.86 25.03
  C 60.01 31.94 59.43 38.87 56.19 44.99
  Q 51.82 53.23 41.77 53.83
  Q 32.32 54.39 25.18 54.02
  Q 24.89 54.01 24.89 53.73
  L 24.89 46.65
  Q 24.89 46.41 25.14 46.41
  Q 31.15 46.52 34.82 46.35
  Q 39.38 46.13 42.09 43.11
  Q 44.01 40.98 44.56 36.25
  Q 45.69 26.53 44.15 18.17
  C 42.77 10.72 37.02 9.17 30.25 8.72
  Q 27.36 8.52 16.67 8.59
  Z"
/>
<rect fill="#000000" x="70.95" y="0.26" width="13.68" height="88.30" rx="0.32"/>
<rect fill="#000000" x="-6.86" y="-6.07" transform="translate(449.69,6.38) rotate(-0.1)" width="13.72" height="12.14" rx="0.28"/>
<path fill="#000000" d="
  M 265.60 55.80
  C 264.74 52.16 261.47 50.05 257.89 49.72
  Q 257.34 49.67 246.89 48.77
  Q 238.56 48.06 234.06 42.36
  C 228.57 35.40 229.07 23.35 231.07 14.60
  C 233.85 2.50 243.63 0.66 254.25 0.45
  Q 256.47 0.41 274.43 1.08
  Q 274.86 1.10 274.86 1.53
  L 274.86 8.79
  Q 274.86 9.22 274.43 9.21
  Q 266.54 8.90 260.51 8.69
  C 252.01 8.40 245.29 9.59 243.91 19.20
  Q 243.24 23.80 244.31 29.25
  C 245.41 34.86 248.90 35.96 254.34 36.48
  Q 255.50 36.59 261.49 37.09
  Q 266.21 37.48 268.52 38.32
  Q 277.04 41.41 279.18 51.02
  Q 281.85 63.00 278.63 74.89
  C 276.93 81.21 274.27 85.20 268.03 87.01
  Q 262.50 88.61 256.77 88.59
  Q 247.05 88.55 233.73 88.08
  Q 233.36 88.07 233.36 87.69
  L 233.36 80.27
  A 0.39 0.39 0.0 0 1 233.77 79.88
  Q 238.96 80.16 247.77 80.44
  Q 254.68 80.66 258.54 79.57
  Q 264.22 77.96 265.60 72.02
  Q 267.50 63.80 265.60 55.80
  Z"
/>
<path fill="#000000" d="
  M 309.39 20.99
  L 323.87 20.99
  A 0.61 0.60 -90.0 0 1 324.47 21.60
  L 324.47 28.47
  A 0.67 0.67 0.0 0 1 323.80 29.14
  L 309.11 29.14
  A 0.30 0.30 0.0 0 0 308.81 29.44
  Q 308.78 51.96 308.86 71.25
  Q 308.87 72.29 309.32 75.77
  C 309.78 79.27 311.24 80.46 314.56 80.46
  Q 318.62 80.47 321.13 80.18
  A 0.22 0.22 0.0 0 1 321.38 80.40
  L 321.38 87.99
  Q 321.38 88.25 321.12 88.26
  Q 312.01 88.70 305.78 88.52
  Q 301.16 88.39 297.68 84.93
  Q 295.86 83.13 295.56 79.52
  Q 295.15 74.67 295.16 72.00
  Q 295.20 36.10 295.16 9.26
  A 0.42 0.42 0.0 0 1 295.58 8.84
  L 308.21 8.84
  Q 308.81 8.84 308.81 9.44
  L 308.81 20.41
  Q 308.81 20.99 309.39 20.99
  Z"
/>
<path fill="#000000" d="
  M 415.02 29.66
  Q 415.13 35.94 415.08 69.77
  Q 415.08 71.14 415.50 76.00
  Q 415.86 80.20 420.06 80.39
  Q 423.83 80.56 427.18 80.16
  Q 427.51 80.12 427.51 80.46
  L 427.51 88.02
  A 0.29 0.29 0.0 0 1 427.23 88.31
  Q 417.26 88.64 412.50 88.60
  C 408.95 88.57 404.86 86.80 402.91 83.67
  Q 402.02 82.23 401.70 78.68
  Q 401.38 75.20 401.38 73.50
  Q 401.37 36.70 401.38 9.19
  A 0.36 0.36 0.0 0 1 401.74 8.83
  L 414.58 8.83
  Q 415.08 8.83 415.08 9.33
  L 415.08 20.42
  Q 415.08 20.98 415.64 20.98
  L 430.09 20.98
  Q 430.67 20.98 430.67 21.57
  L 430.67 28.61
  Q 430.67 29.14 430.15 29.14
  L 415.53 29.14
  Q 415.01 29.14 415.02 29.66
  Z"
/>
<path fill="#000000" d="
  M 500.46 20.44
  Q 508.90 20.45 515.52 22.74
  C 528.74 27.31 529.85 43.11 529.84 54.83
  C 529.83 66.54 528.71 82.34 515.48 86.90
  Q 508.86 89.18 500.42 89.18
  Q 491.99 89.17 485.37 86.88
  C 472.15 82.31 471.04 66.51 471.04 54.79
  C 471.05 43.07 472.18 27.27 485.41 22.72
  Q 492.03 20.44 500.46 20.44
  Z
  M 486.59 54.80
  Q 486.59 60.35 487.22 65.78
  C 488.21 74.30 491.41 80.26 500.89 80.25
  C 510.37 80.26 513.57 74.30 514.56 65.78
  Q 515.18 60.35 515.18 54.80
  Q 515.18 49.25 514.55 43.82
  C 513.56 35.30 510.36 29.34 500.88 29.34
  C 491.40 29.34 488.20 35.30 487.22 43.82
  Q 486.59 49.25 486.59 54.80
  Z"
/>
<path fill="#000000" d="
  M 137.15 79.57
  A 0.34 0.34 0.0 0 0 137.46 79.23
  Q 137.47 72.45 137.39 42.25
  Q 137.38 37.35 134.75 33.75
  C 131.93 29.88 126.31 29.62 121.31 29.83
  Q 112.35 30.21 106.70 30.33
  Q 106.34 30.34 106.34 29.98
  L 106.34 21.96
  A 0.39 0.38 -0.8 0 1 106.72 21.58
  Q 114.35 21.39 128.24 21.03
  C 141.68 20.69 151.10 26.72 151.13 41.29
  Q 151.18 64.61 151.16 87.40
  A 0.47 0.47 0.0 0 1 150.70 87.87
  Q 135.33 88.31 123.53 88.37
  Q 114.04 88.42 107.29 86.24
  C 99.11 83.59 96.96 73.31 97.62 65.50
  C 98.46 55.49 103.26 48.92 113.52 47.46
  Q 119.98 46.54 128.47 46.94
  Q 128.75 46.96 128.75 47.25
  L 128.75 54.27
  A 0.29 0.29 0.0 0 1 128.46 54.56
  Q 122.58 54.56 121.72 54.64
  C 113.53 55.39 111.60 61.91 111.87 68.95
  Q 112.28 79.40 123.03 79.98
  Q 129.25 80.31 137.15 79.57
  Z"
/>
<path fill="#000000" d="
  M 184.01 115.25
  L 180.91 122.25
  A 0.79 0.76 -77.3 0 1 180.21 122.71
  L 170.05 122.71
  A 0.47 0.47 0.0 0 1 169.61 122.06
  L 173.10 113.61
  L 183.86 87.43
  A 1.09 1.07 46.3 0 0 183.87 86.64
  L 158.79 21.27
  A 0.21 0.20 79.2 0 1 158.98 20.99
  L 174.13 20.99
  Q 174.59 20.99 174.73 21.42
  L 191.29 69.71
  Q 191.68 70.87 192.10 69.72
  L 209.95 21.28
  A 0.49 0.48 -79.3 0 1 210.40 20.97
  L 222.25 20.97
  A 0.28 0.28 0.0 0 1 222.51 21.36
  L 184.01 115.25
  Z"
/>
<path fill="#000000" d="
  M 371.29 79.03
  Q 371.41 71.10 371.33 45.02
  C 371.32 39.98 370.85 35.36 367.33 32.44
  Q 364.31 29.94 359.72 29.87
  Q 353.60 29.78 340.62 30.40
  Q 340.18 30.42 340.18 29.98
  L 340.18 22.04
  A 0.46 0.46 0.0 0 1 340.63 21.58
  Q 351.97 21.32 358.51 21.09
  Q 366.06 20.81 370.64 21.83
  C 381.53 24.24 385.01 32.38 385.03 42.50
  Q 385.07 65.00 385.06 87.27
  A 0.61 0.61 0.0 0 1 384.46 87.88
  Q 368.70 88.29 358.02 88.40
  Q 351.73 88.47 344.53 87.19
  Q 334.55 85.43 332.23 75.26
  Q 331.00 69.90 331.52 64.79
  C 332.51 54.96 337.69 48.65 347.90 47.39
  Q 354.87 46.53 362.38 46.96
  Q 362.63 46.97 362.63 47.22
  L 362.63 54.37
  Q 362.63 54.67 362.33 54.65
  Q 356.27 54.28 353.72 54.93
  C 346.55 56.75 345.29 63.34 345.82 69.86
  Q 346.58 79.23 356.36 79.92
  Q 363.50 80.43 370.81 79.56
  Q 371.29 79.50 371.29 79.03
  Z"
/>
<rect fill="#000000" x="442.84" y="21.00" width="13.70" height="67.62" rx="0.35"/>
<path fill="#000000" d="
  M 558.86 30.33
  A 0.26 0.26 0.0 0 0 558.61 30.59
  L 558.61 87.86
  A 0.71 0.71 0.0 0 1 557.90 88.57
  L 545.80 88.57
  A 0.77 0.76 90.0 0 1 545.04 87.80
  L 545.04 22.03
  Q 545.04 21.60 545.46 21.60
  Q 565.37 21.21 578.50 20.99
  Q 580.14 20.97 585.02 21.96
  Q 591.48 23.28 595.25 28.48
  Q 599.15 33.88 598.97 41.50
  Q 598.86 45.94 598.86 88.15
  Q 598.86 88.54 598.47 88.54
  L 585.72 88.54
  Q 585.28 88.54 585.28 88.10
  Q 585.36 51.81 585.37 43.75
  Q 585.38 40.97 584.51 37.77
  C 582.61 30.75 576.46 29.45 570.02 29.83
  Q 564.62 30.15 558.86 30.33
  Z"
/>
<path fill="#688dc4" d="
  M 521.17 118.46
  L 501.60 117.67
  Q 509.22 98.18 530.18 94.17
  Q 548.25 90.72 565.08 91.74
  Q 565.59 91.77 565.59 92.28
  L 565.59 105.72
  Q 565.59 106.21 565.10 106.20
  Q 560.16 106.13 550.51 106.26
  C 539.23 106.40 528.37 109.16 521.17 118.46
  Z"
/>
<path fill="#607ab2" d="
  M 173.10 113.61
  L 169.61 122.06
  A 0.47 0.47 0.0 0 0 170.05 122.71
  L 180.21 122.71
  A 0.79 0.76 -77.3 0 0 180.91 122.25
  L 184.01 115.25
  Q 201.07 119.87 210.07 135.00
  L 189.29 134.53
  Q 182.54 128.85 172.15 127.42
  Q 160.80 125.86 150.93 129.66
  Q 143.52 132.52 138.75 139.88
  L 111.18 139.52
  Q 106.25 132.01 98.75 129.47
  Q 83.70 124.38 69.42 129.39
  Q 61.51 132.16 56.53 139.88
  L 37.65 139.75
  Q 42.44 129.17 51.24 122.45
  C 58.86 116.65 68.18 114.00 77.75 113.59
  Q 82.52 113.39 90.75 113.64
  C 103.79 114.05 116.99 119.66 124.63 130.59
  A 0.45 0.45 0.0 0 0 125.35 130.60
  Q 137.16 115.42 156.78 113.89
  Q 164.76 113.27 173.10 113.61
  Z"
/>
<rect fill="#607ab2" x="240.39" y="113.46" width="18.20" height="13.60" rx="0.39"/>
<path fill="#607ab2" d="
  M 376.54 134.77
  L 354.50 133.34
  Q 351.01 130.81 348.24 129.73
  C 339.24 126.23 327.89 126.05 319.05 129.09
  Q 308.15 132.84 303.12 144.19
  Q 294.22 143.35 285.00 144.01
  Q 286.24 140.15 286.86 138.87
  Q 296.91 118.15 318.92 114.37
  Q 331.47 112.21 346.57 114.38
  Q 365.71 117.12 376.54 134.77
  Z"
/>
<rect fill="#607ab2" x="406.94" y="113.54" width="18.26" height="13.80" rx="0.33"/>
<path fill="#607ab2" d="
  M 521.17 118.46
  Q 516.28 127.00 516.22 137.00
  Q 516.19 143.04 516.03 149.03
  L 497.59 151.04
  Q 497.71 145.53 497.68 140.02
  Q 497.62 128.42 501.60 117.67
  L 521.17 118.46
  Z"
/>
<path fill="#555e99" d="
  M 376.54 134.77
  Q 378.71 138.15 379.70 141.30
  Q 383.21 152.50 382.92 165.31
  Q 374.21 167.92 364.84 166.75
  Q 364.97 158.78 364.28 152.00
  Q 363.12 140.72 354.50 133.34
  L 376.54 134.77
  Z"
/>
<path fill="#555e99" d="
  M 210.07 135.00
  Q 214.15 141.81 215.29 150.00
  Q 216.45 158.32 216.40 166.69
  Q 207.26 165.07 198.28 167.50
  Q 198.57 157.16 197.31 149.47
  Q 195.93 141.09 189.29 134.53
  L 210.07 135.00
  Z"
/>
<path fill="#555e99" d="
  M 56.53 139.88
  Q 52.54 146.80 52.15 156.49
  Q 51.77 165.70 51.85 174.98
  Q 42.34 175.78 33.42 178.75
  Q 33.41 171.33 33.52 164.00
  Q 33.61 157.51 35.15 149.09
  Q 36.17 143.49 37.65 139.75
  L 56.53 139.88
  Z"
/>
<path fill="#555e99" d="
  M 138.75 139.88
  Q 134.45 147.43 134.28 156.50
  Q 134.09 166.11 134.19 175.71
  L 115.93 177.22
  Q 116.25 165.95 115.76 154.75
  Q 115.40 146.55 111.18 139.52
  L 138.75 139.88
  Z"
/>
<path fill="#555e99" d="
  M 258.55 151.73
  Q 249.96 156.54 240.42 159.04
  L 240.40 142.07
  Q 240.40 141.50 240.98 141.50
  L 258.29 141.50
  A 0.34 0.34 0.0 0 1 258.63 141.84
  L 258.55 151.73
  Z"
/>
<path fill="#555e99" d="
  M 425.17 167.72
  L 406.99 169.80
  L 407.02 142.02
  Q 407.02 141.50 407.54 141.50
  L 424.69 141.50
  Q 425.16 141.50 425.16 141.97
  L 425.17 167.72
  Z"
/>
<path fill="#555e99" d="
  M 303.12 144.19
  Q 300.99 150.85 300.87 157.92
  Q 300.55 176.95 300.79 195.03
  A 0.56 0.56 0.0 0 1 300.23 195.60
  L 283.01 195.60
  A 0.44 0.44 0.0 0 1 282.57 195.16
  Q 282.59 177.05 282.64 165.92
  Q 282.70 153.74 285.00 144.01
  Q 294.22 143.35 303.12 144.19
  Z"
/>
<path fill="#4c4986" d="
  M 516.03 149.03
  Q 515.98 158.17 513.32 166.81
  Q 506.75 188.04 485.54 192.99
  Q 470.33 196.54 448.65 195.30
  Q 448.17 195.27 448.17 194.78
  L 448.17 181.97
  A 0.49 0.49 0.0 0 1 448.68 181.48
  Q 459.06 181.82 468.29 181.09
  Q 474.52 180.59 480.37 178.34
  Q 492.74 173.59 496.13 160.88
  Q 497.30 156.45 497.59 151.04
  L 516.03 149.03
  Z"
/>
<path fill="#4c4986" d="
  M 258.55 151.73
  L 258.53 195.00
  Q 258.53 195.50 258.03 195.52
  Q 249.39 195.84 240.93 195.46
  Q 240.40 195.44 240.40 194.92
  L 240.42 159.04
  Q 249.96 156.54 258.55 151.73
  Z"
/>
<path fill="#4c4986" d="
  M 216.40 166.69
  L 216.40 195.00
  Q 216.40 195.60 215.79 195.60
  L 198.81 195.60
  Q 198.27 195.60 198.27 195.06
  L 198.28 167.50
  Q 207.26 165.07 216.40 166.69
  Z"
/>
<path fill="#4c4986" d="
  M 382.92 165.31
  L 383.02 195.31
  A 0.30 0.30 0.0 0 1 382.72 195.61
  L 365.47 195.61
  Q 364.90 195.61 364.90 195.04
  L 364.84 166.75
  Q 374.21 167.92 382.92 165.31
  Z"
/>
<path fill="#4c4986" d="
  M 425.17 167.72
  L 425.16 196.00
  L 408.37 196.00
  L 407.51 195.80
  Q 407.02 195.69 407.02 195.20
  L 406.99 169.80
  L 425.17 167.72
  Z"
/>
<path fill="#4c4986" d="
  M 51.85 174.98
  L 51.82 195.03
  Q 51.82 195.60 51.25 195.60
  L 33.97 195.60
  A 0.63 0.62 -0.0 0 1 33.34 194.98
  L 33.42 178.75
  Q 42.34 175.78 51.85 174.98
  Z"
/>
<path fill="#4c4986" d="
  M 134.19 175.71
  L 134.17 195.09
  Q 134.17 195.61 133.65 195.61
  L 116.31 195.61
  Q 115.98 195.61 115.98 195.27
  L 115.93 177.22
  L 134.19 175.71
  Z"
/>
</svg>
