<?xml version="1.0" encoding="UTF-8" standalone="no"?>
<!DOCTYPE svg PUBLIC "-//W3C//DTD SVG 1.1//EN" "http://www.w3.org/Graphics/SVG/1.1/DTD/svg11.dtd">
<svg xmlns="http://www.w3.org/2000/svg" version="1.1" viewBox="0 0 600 300">
<path fill="#000000" d="
  M 592.58 149.00
  A 68.13 64.61 0.0 0 1 524.45 213.61
  A 68.13 64.61 0.0 0 1 456.32 149.00
  A 68.13 64.61 0.0 0 1 524.45 84.39
  A 68.13 64.61 0.0 0 1 592.58 149.00
  Z
  M 545.25 119.75
  C 545.25 91.36 504.25 91.39 504.25 119.00
  Q 504.25 148.25 504.35 177.50
  C 504.44 202.32 538.59 205.23 544.48 181.48
  Q 545.25 178.37 545.25 170.45
  Q 545.25 145.10 545.25 119.75
  Z"
/>
<path fill="#000000" d="
  M 330.45 147.24
  C 330.53 119.84 343.18 95.72 371.23 88.43
  Q 394.16 82.47 416.12 89.76
  C 427.27 93.46 434.62 95.41 443.78 87.29
  Q 445.95 85.37 448.34 84.90
  Q 451.11 84.37 452.31 86.93
  C 453.64 89.78 453.22 91.57 452.83 95.36
  C 451.80 105.44 447.03 117.30 438.04 122.30
  C 431.42 125.99 422.82 125.85 416.62 120.98
  C 408.05 114.23 403.71 101.34 392.39 98.76
  C 380.26 95.98 376.48 115.14 375.28 123.22
  C 372.62 141.26 371.64 185.35 390.46 197.10
  C 398.08 201.85 408.56 199.98 414.33 193.10
  C 421.06 185.07 420.07 165.11 404.56 170.31
  C 400.35 171.73 397.53 169.70 398.65 165.24
  C 402.02 151.83 420.24 142.50 432.90 144.27
  C 444.65 145.91 452.92 156.41 454.48 168.02
  C 455.80 177.82 450.72 189.37 444.19 196.44
  C 424.31 217.94 388.64 217.92 364.19 205.49
  C 341.43 193.91 330.37 172.68 330.45 147.24
  Z"
/>
<path fill="#000000" d="
  M 255.81 201.69
  Q 269.59 205.24 280.19 196.44
  C 287.69 190.21 290.36 177.64 281.94 171.06
  Q 278.42 168.31 271.73 166.32
  Q 246.05 158.68 231.81 153.44
  C 208.43 144.82 198.83 116.38 218.39 97.90
  C 232.58 84.49 253.94 82.93 271.63 89.35
  Q 271.67 89.37 277.60 92.09
  C 285.10 95.55 296.07 96.64 303.55 91.91
  Q 308.00 89.09 308.21 89.02
  C 316.98 86.16 312.01 104.68 310.38 108.45
  Q 304.11 122.97 289.24 123.83
  C 269.99 124.93 271.42 107.46 258.93 100.30
  C 253.48 97.18 242.80 97.21 239.99 104.33
  C 237.53 110.56 243.36 117.03 248.69 119.53
  Q 249.34 119.84 257.85 122.37
  Q 272.37 126.69 286.90 130.95
  Q 303.37 135.77 305.93 137.00
  C 317.37 142.53 325.84 154.94 326.33 168.09
  C 326.91 183.39 316.42 197.92 303.56 205.31
  C 285.73 215.57 262.53 216.00 242.74 212.30
  C 227.44 209.44 202.81 196.94 208.63 176.94
  C 213.19 161.29 235.90 156.82 248.69 163.31
  C 253.81 165.91 252.47 169.96 249.34 173.60
  C 245.83 177.68 241.75 180.87 242.11 186.78
  C 242.54 193.87 249.09 199.96 255.81 201.69
  Z"
/>
<path fill="#000000" d="
  M 165.86 93.47
  Q 173.18 93.54 180.50 93.50
  C 187.91 93.46 193.04 91.43 200.50 88.75
  C 206.57 86.57 210.54 90.50 209.76 96.38
  C 209.11 101.25 202.94 107.23 199.76 111.04
  C 192.15 120.16 193.00 127.18 193.00 141.00
  Q 193.00 156.37 193.00 171.75
  C 193.00 182.13 199.28 193.17 205.94 200.81
  C 209.15 204.51 209.77 212.49 202.04 211.04
  C 188.95 208.60 177.45 205.67 164.05 208.45
  C 159.27 209.44 144.11 216.61 141.70 210.55
  C 140.19 206.75 143.18 203.15 146.06 200.81
  C 151.54 196.38 155.25 190.13 155.25 182.84
  Q 155.25 157.29 155.25 131.75
  Q 155.25 123.64 154.39 120.33
  C 152.31 112.32 147.12 107.64 141.56 100.44
  C 137.14 94.70 142.16 89.03 148.12 88.96
  Q 149.87 88.94 153.18 90.32
  C 157.51 92.12 160.95 93.43 165.86 93.47
  Z"
/>
<path fill="#000000" d="
  M 86.77 178.42
  C 89.10 177.42 98.27 136.93 99.48 131.73
  C 101.70 122.18 104.71 109.61 95.11 102.67
  C 92.33 100.67 88.44 96.37 90.82 93.20
  C 92.65 90.76 96.64 90.75 99.25 91.75
  C 108.75 95.37 116.18 93.56 125.19 89.95
  C 131.43 87.45 139.44 93.31 134.23 98.97
  C 129.96 103.61 123.33 109.50 121.11 115.41
  Q 111.04 142.17 103.50 169.75
  C 101.41 177.39 101.87 188.62 105.81 194.94
  C 109.70 201.16 118.82 217.74 101.18 214.10
  C 85.00 210.77 69.09 209.72 53.00 214.25
  C 47.84 215.70 38.85 213.66 41.69 206.36
  Q 42.14 205.20 44.84 201.97
  C 50.53 195.16 47.63 190.29 44.56 181.28
  Q 33.98 150.27 22.70 119.51
  C 20.76 114.20 18.55 110.87 14.35 107.64
  C 12.14 105.95 9.57 104.15 8.70 101.50
  C 7.20 96.92 10.49 91.72 15.31 91.56
  Q 15.33 91.56 22.18 92.58
  C 37.29 94.86 53.03 92.01 66.94 88.94
  C 72.96 87.60 74.89 95.15 71.58 99.10
  C 64.89 107.08 62.55 114.02 65.94 124.31
  Q 74.64 150.80 84.50 177.45
  A 1.70 1.70 -21.8 0 0 86.77 178.42
  Z"
/>
</svg>
