<?xml version="1.0" encoding="UTF-8" standalone="no"?>
<!DOCTYPE svg PUBLIC "-//W3C//DTD SVG 1.1//EN" "http://www.w3.org/Graphics/SVG/1.1/DTD/svg11.dtd">
<svg xmlns="http://www.w3.org/2000/svg" version="1.1" viewBox="0 0 600 300">
<g stroke-width="2.00" fill="none" stroke-linecap="butt">
<path stroke="#d88880" vector-effect="non-scaling-stroke" d="
  M 94.44 118.32
  L 94.50 137.94
  A 0.56 0.55 90.0 0 0 95.05 138.50
  L 106.69 138.50
  A 0.62 0.61 -0.5 0 0 107.31 137.88
  L 106.94 65.82
  A 0.51 0.50 90.0 0 0 106.44 65.31
  L 94.90 65.19
  A 1.72 1.71 -72.0 0 0 93.48 65.92
  L 42.57 137.70
  Q 42.01 138.50 42.99 138.50
  L 56.84 138.50
  A 1.31 1.27 -71.9 0 0 57.89 137.95
  L 71.91 118.36
  A 1.47 1.44 17.2 0 1 73.10 117.75
  L 93.93 117.81
  A 0.51 0.51 0.0 0 1 94.44 118.32"
/>
<path stroke="#d88880" vector-effect="non-scaling-stroke" d="
  M 174.15 114.83
  C 180.83 93.00 168.64 66.04 143.56 65.44
  Q 129.91 65.11 115.37 65.26
  A 0.63 0.63 -0.5 0 0 114.75 65.89
  L 114.75 137.69
  A 0.81 0.81 0.0 0 0 115.56 138.50
  C 137.55 138.50 165.67 142.57 174.15 114.83"
/>
<path stroke="#d88880" vector-effect="non-scaling-stroke" d="
  M 235.44 77.16
  L 235.56 137.93
  A 0.52 0.51 90.0 0 0 236.07 138.45
  L 272.30 138.32
  A 0.51 0.50 -0.0 0 0 272.81 137.82
  L 272.69 129.31
  A 0.51 0.51 0.6 0 0 272.19 128.80
  L 246.57 128.50
  A 0.84 0.84 0.3 0 1 245.74 127.66
  L 245.93 107.18
  A 0.51 0.51 0.0 0 1 246.43 106.68
  L 272.19 106.20
  A 0.53 0.52 -90.0 0 0 272.70 105.68
  L 272.81 97.49
  A 1.01 0.99 0.3 0 0 271.80 96.49
  L 246.44 96.32
  A 0.52 0.51 -0.0 0 1 245.92 95.81
  L 245.77 75.87
  A 0.92 0.88 -0.6 0 1 246.68 74.98
  L 272.06 74.83
  A 0.55 0.52 -0.0 0 0 272.60 74.32
  L 272.71 66.03
  A 0.80 0.76 0.7 0 0 271.91 65.25
  L 230.32 65.25
  A 1.17 1.15 16.0 0 0 229.34 65.78
  L 194.30 118.82
  Q 193.31 120.33 193.32 118.52
  L 193.56 65.94
  A 0.52 0.50 -89.4 0 0 193.06 65.41
  L 181.31 65.29
  A 0.52 0.50 90.0 0 0 180.81 65.81
  L 181.18 137.82
  A 0.53 0.51 90.0 0 0 181.68 138.34
  L 195.19 138.45
  A 0.93 0.87 -72.1 0 0 195.96 138.02
  L 235.07 77.05
  Q 235.44 76.48 235.44 77.16"
/>
<path stroke="#d88880" vector-effect="non-scaling-stroke" d="
  M 325.82 115.60
  L 291.19 66.00
  A 1.78 1.76 72.2 0 0 289.75 65.25
  L 279.80 65.25
  A 1.04 1.03 -89.4 0 0 278.77 66.27
  C 278.62 74.03 279.01 82.25 278.89 89.25
  Q 278.49 113.53 278.93 137.81
  A 0.55 0.50 89.4 0 0 279.43 138.35
  L 289.06 138.36
  A 0.54 0.50 -90.0 0 0 289.56 137.82
  L 289.49 83.47
  Q 289.49 81.36 290.63 83.14
  L 325.51 137.82
  A 1.51 1.49 -16.2 0 0 326.77 138.50
  L 336.50 138.50
  A 0.50 0.50 0.0 0 0 337.00 138.00
  L 337.00 65.81
  A 0.56 0.56 0.0 0 0 336.44 65.25
  L 326.75 65.25
  A 0.50 0.50 0.0 0 0 326.25 65.75
  L 326.25 115.46
  Q 326.25 116.21 325.82 115.60"
/>
<path stroke="#d88880" vector-effect="non-scaling-stroke" d="
  M 345.09 74.24
  A 0.77 0.71 89.6 0 0 345.80 75.00
  L 358.40 75.00
  A 0.85 0.85 -0.0 0 1 359.25 75.85
  L 359.25 137.76
  A 0.73 0.72 90.0 0 0 359.97 138.49
  L 369.45 138.45
  A 0.51 0.48 89.4 0 0 369.93 137.93
  L 369.75 75.89
  A 1.00 0.94 -0.6 0 1 370.73 74.95
  L 383.45 74.73
  A 0.54 0.51 89.5 0 0 383.95 74.19
  L 383.99 65.81
  A 0.56 0.56 0.0 0 0 383.43 65.25
  L 345.64 65.25
  A 0.72 0.64 89.6 0 0 345.00 65.98
  L 345.09 74.24"
/>
<path stroke="#d88880" vector-effect="non-scaling-stroke" d="
  M 436.51 126.92
  Q 439.19 121.60 439.20 115.25
  Q 439.25 90.50 439.25 65.76
  A 0.50 0.47 89.4 0 0 438.77 65.26
  L 428.81 65.51
  A 0.55 0.50 88.9 0 0 428.32 66.07
  Q 428.53 90.28 428.25 114.50
  C 428.01 135.44 400.75 134.84 400.75 115.25
  Q 400.75 91.25 400.75 66.03
  A 0.78 0.78 89.9 0 0 399.97 65.25
  L 390.56 65.25
  A 0.56 0.56 0.0 0 0 390.00 65.81
  Q 390.00 86.35 390.00 106.44
  Q 390.00 120.41 391.53 124.89
  C 398.00 143.85 427.37 145.10 436.51 126.92"
/>
<path stroke="#d88880" vector-effect="non-scaling-stroke" d="
  M 475.57 111.26
  C 491.03 109.55 497.63 97.80 495.18 83.27
  Q 493.04 70.53 480.67 66.72
  C 472.04 64.06 458.09 65.25 447.51 65.25
  A 0.51 0.51 -89.8 0 0 447.00 65.76
  L 446.94 137.82
  A 0.53 0.50 -89.5 0 0 447.43 138.35
  L 457.03 138.47
  A 0.72 0.70 90.0 0 0 457.74 137.74
  L 457.57 105.58
  Q 457.56 104.07 458.43 105.30
  L 481.53 138.04
  A 0.97 0.94 71.9 0 0 482.31 138.45
  L 494.63 138.49
  Q 495.50 138.49 494.97 137.79
  L 475.36 111.72
  Q 475.06 111.32 475.57 111.26"
/>
<path stroke="#d88880" vector-effect="non-scaling-stroke" d="
  M 512.33 127.94
  L 512.45 107.19
  A 0.52 0.49 89.4 0 1 512.93 106.67
  L 540.60 106.52
  A 1.16 1.14 -0.3 0 0 541.75 105.38
  L 541.75 97.16
  A 0.66 0.66 90.0 0 0 541.09 96.50
  L 513.01 96.50
  A 0.58 0.57 0.0 0 1 512.43 95.93
  L 512.56 75.56
  A 0.51 0.50 -0.0 0 1 513.07 75.06
  L 540.94 74.94
  A 0.57 0.50 0.5 0 0 541.51 74.45
  L 541.62 65.94
  A 0.56 0.50 0.5 0 0 541.06 65.43
  L 502.31 65.26
  A 0.56 0.55 -89.5 0 0 501.75 65.82
  L 501.75 137.77
  A 0.73 0.73 0.1 0 0 502.48 138.50
  L 541.27 138.50
  A 0.45 0.41 -89.3 0 0 541.68 138.06
  L 541.82 129.70
  A 0.94 0.90 -89.4 0 0 540.92 128.74
  L 512.81 128.46
  A 0.52 0.49 -89.4 0 1 512.33 127.94"
/>
<path stroke="#d88880" vector-effect="non-scaling-stroke" d="
  M 93.47 84.14
  L 79.08 106.51
  Q 78.81 106.92 79.31 106.92
  L 93.94 106.77
  A 0.88 0.86 89.3 0 0 94.79 105.88
  L 94.65 84.52
  Q 94.63 82.33 93.47 84.14"
/>
<path stroke="#d88880" vector-effect="non-scaling-stroke" d="
  M 145.93 127.88
  C 173.66 122.22 170.62 78.77 143.75 75.50
  Q 135.79 74.53 126.19 75.15
  A 0.55 0.54 -1.8 0 0 125.68 75.68
  L 125.50 128.17
  A 0.52 0.52 -1.1 0 0 126.04 128.69
  C 132.60 128.40 140.45 129.00 145.93 127.88"
/>
<path stroke="#d88880" vector-effect="non-scaling-stroke" d="
  M 482.36 96.86
  C 486.29 92.35 485.62 84.45 482.03 80.29
  C 476.95 74.41 465.62 74.20 458.31 75.24
  A 0.58 0.57 -4.0 0 0 457.81 75.81
  L 457.75 102.43
  A 0.55 0.54 1.7 0 0 458.27 102.97
  C 466.32 103.33 476.73 103.34 482.36 96.86"
/>
<path stroke="#c76e59" vector-effect="non-scaling-stroke" d="
  M 248.00 233.79
  Q 251.03 235.29 254.25 234.04"
/>
<path stroke="#d88880" vector-effect="non-scaling-stroke" d="
  M 254.25 234.04
  Q 263.87 232.71 269.36 225.87
  C 278.29 214.72 275.41 196.59 261.77 190.71
  Q 251.84 186.42 249.50 185.75
  C 236.76 182.10 240.08 165.01 252.72 166.19
  Q 260.76 166.95 261.88 176.06
  A 0.62 0.56 86.4 0 0 262.43 176.60
  L 272.13 176.71
  A 0.86 0.82 88.1 0 0 272.96 175.78
  C 270.31 144.93 223.61 152.32 230.99 182.50
  C 233.86 194.23 247.02 197.04 256.60 201.11
  C 269.34 206.52 263.00 226.87 248.49 223.38
  Q 240.69 221.50 239.02 211.08
  A 0.95 0.88 84.5 0 0 238.12 210.28
  L 228.64 210.53
  A 0.57 0.53 87.0 0 0 228.13 211.15
  Q 229.78 230.45 248.00 233.79"
/>
<path stroke="#efe5d9" vector-effect="non-scaling-stroke" d="
  M 254.25 234.04
  L 248.00 233.79"
/>
<path stroke="#c76e59" vector-effect="non-scaling-stroke" d="
  M 328.00 233.79
  Q 331.68 235.29 335.50 234.04"
/>
<path stroke="#d88880" vector-effect="non-scaling-stroke" d="
  M 335.50 234.04
  Q 348.03 232.43 357.06 224.92
  C 381.38 204.70 372.58 164.03 341.50 157.00
  C 313.85 150.75 288.60 173.54 293.60 201.93
  C 296.62 219.07 310.77 231.63 328.00 233.79"
/>
<path stroke="#efe5d9" vector-effect="non-scaling-stroke" d="
  M 335.50 234.04
  L 328.00 233.79"
/>
<path stroke="#d88880" vector-effect="non-scaling-stroke" d="
  M 180.09 212.36
  Q 179.67 213.59 179.21 212.38
  L 158.59 157.83
  A 0.60 0.56 78.4 0 0 158.04 157.44
  L 147.06 157.53
  A 0.38 0.37 79.1 0 0 146.73 158.04
  L 173.27 231.84
  A 0.76 0.67 79.1 0 0 173.93 232.35
  L 185.57 232.35
  A 0.75 0.66 -79.7 0 0 186.22 231.84
  L 210.45 158.15
  A 0.46 0.44 -80.4 0 0 210.04 157.55
  L 199.06 157.53
  A 0.75 0.68 -79.9 0 0 198.40 158.04
  L 180.09 212.36"
/>
<path stroke="#d88880" vector-effect="non-scaling-stroke" d="
  M 222.50 157.81
  A 0.47 0.47 0.0 0 0 222.03 157.34
  L 211.97 157.34
  A 0.47 0.47 0.0 0 0 211.50 157.81
  L 211.50 232.03
  A 0.47 0.47 0.0 0 0 211.97 232.50
  L 222.03 232.50
  A 0.47 0.47 0.0 0 0 222.50 232.03
  L 222.50 157.81"
/>
<path stroke="#d88880" vector-effect="non-scaling-stroke" d="
  M 290.25 157.56
  A 0.26 0.26 0.0 0 0 289.99 157.30
  L 279.51 157.30
  A 0.26 0.26 0.0 0 0 279.25 157.56
  L 279.25 232.26
  A 0.26 0.26 0.0 0 0 279.51 232.52
  L 289.99 232.52
  A 0.26 0.26 0.0 0 0 290.25 232.26
  L 290.25 157.56"
/>
<path stroke="#d88880" vector-effect="non-scaling-stroke" d="
  M 384.81 175.39
  Q 384.81 174.01 385.56 175.18
  L 421.95 232.07
  A 0.96 0.95 -16.3 0 0 422.75 232.50
  L 433.19 232.50
  A 0.56 0.56 0.0 0 0 433.75 231.94
  L 433.81 158.14
  A 0.58 0.58 -86.7 0 0 433.30 157.56
  Q 428.12 156.96 423.01 157.56
  A 0.58 0.57 -3.4 0 0 422.50 158.13
  L 422.57 208.45
  Q 422.57 209.94 421.72 208.72
  L 386.53 158.19
  A 1.97 1.74 70.1 0 0 384.98 157.34
  L 374.31 157.51
  A 0.55 0.51 89.5 0 0 373.81 158.06
  L 373.75 231.60
  A 0.90 0.89 90.0 0 0 374.64 232.50
  L 384.08 232.50
  A 0.74 0.74 0.0 0 0 384.82 231.76
  L 384.81 175.39"
/>
<path stroke="#d88880" vector-effect="non-scaling-stroke" d="
  M 332.0900 223.9400
  A 28.99 28.01 90.0 0 0 360.1000 194.9500
  A 28.99 28.01 90.0 0 0 332.0900 165.9600
  A 28.99 28.01 90.0 0 0 304.0800 194.9500
  A 28.99 28.01 90.0 0 0 332.0900 223.9400"
/>
</g>
<path fill="#b01000" d="
  M 548.06 80.69
  L 589.37 80.50
  Q 590.43 80.50 589.83 81.37
  L 559.22 125.78
  A 0.97 0.96 16.4 0 1 558.44 126.20
  L 548.30 126.25
  A 0.80 0.78 -0.0 0 0 547.50 127.03
  L 547.58 144.93
  A 0.82 0.81 -90.0 0 1 546.77 145.75
  L 479.34 145.75
  A 1.81 1.70 -16.4 0 1 477.89 145.02
  L 465.77 127.78
  Q 464.54 126.03 464.56 128.17
  L 464.73 145.03
  A 0.73 0.71 -0.4 0 1 464.00 145.75
  L 441.02 145.75
  A 1.26 1.19 0.7 0 1 439.76 144.53
  L 439.95 136.76
  Q 439.99 135.37 439.03 136.34
  C 422.28 153.30 394.04 150.05 384.73 126.99
  A 0.77 0.74 79.1 0 0 384.03 126.50
  L 377.56 126.55
  A 0.51 0.50 90.0 0 0 377.06 127.06
  L 377.00 144.81
  A 0.95 0.93 -89.7 0 1 376.07 145.75
  L 353.32 145.75
  A 1.36 1.33 89.8 0 1 351.99 144.40
  L 351.83 127.18
  A 0.55 0.51 -89.5 0 0 351.33 126.63
  L 344.98 126.58
  A 1.13 1.03 89.7 0 0 343.94 127.73
  L 344.25 144.43
  A 1.33 1.29 -0.6 0 1 342.92 145.75
  L 323.33 145.75
  A 2.34 2.24 72.8 0 1 321.42 144.69
  L 309.96 126.97
  A 0.95 0.81 -14.5 0 0 309.18 126.59
  L 297.19 126.70
  A 0.51 0.49 -0.6 0 0 296.69 127.19
  L 296.75 144.21
  A 1.54 1.53 -0.2 0 1 295.21 145.75
  L 229.49 145.75
  A 1.24 1.23 0.2 0 1 228.25 144.51
  L 228.31 127.43
  A 0.51 0.51 89.8 0 0 227.80 126.92
  L 212.33 126.76
  A 1.42 1.28 -71.7 0 0 211.21 127.40
  L 199.89 145.01
  A 1.68 1.62 15.9 0 1 198.50 145.75
  L 174.91 145.75
  A 1.00 0.95 89.4 0 1 173.96 144.77
  L 173.78 131.49
  Q 173.78 130.98 173.41 131.37
  C 163.33 142.29 150.92 145.75 136.50 145.75
  Q 112.50 145.75 88.18 145.75
  A 0.93 0.92 0.0 0 1 87.25 144.83
  L 87.32 127.56
  A 0.56 0.54 -90.0 0 0 86.78 127.00
  L 74.81 127.05
  A 1.03 0.97 -71.7 0 0 74.02 127.48
  L 61.45 145.00
  A 1.84 1.80 17.5 0 1 59.97 145.75
  L 29.49 145.75
  Q 28.18 145.75 28.94 144.69
  L 40.94 127.84
  Q 41.53 127.00 40.50 127.00
  L 10.56 126.94
  Q 10.06 126.94 10.33 126.52
  L 39.44 81.68
  A 0.96 0.95 16.3 0 1 40.24 81.25
  L 73.23 81.25
  A 1.19 1.17 17.5 0 0 74.19 80.76
  L 89.76 58.89
  A 2.10 2.06 -72.2 0 1 91.43 58.01
  Q 113.73 57.85 135.13 58.11
  C 151.49 58.31 162.99 60.69 173.18 72.87
  Q 174.06 73.92 174.04 72.52
  L 173.78 58.98
  A 1.00 0.96 -0.6 0 1 174.78 58.00
  L 199.71 58.00
  A 1.02 1.00 0.3 0 1 200.73 59.01
  L 200.58 80.70
  A 0.49 0.49 -89.4 0 0 201.07 81.20
  L 209.66 81.25
  A 1.97 1.89 -72.3 0 0 211.28 80.37
  L 225.30 59.14
  A 2.56 2.56 -73.2 0 1 227.43 58.00
  L 293.08 58.00
  A 2.00 1.94 -16.9 0 1 294.70 58.83
  L 309.70 80.29
  A 1.61 1.47 70.8 0 0 310.95 80.97
  L 318.69 80.96
  A 0.53 0.50 90.0 0 0 319.19 80.43
  L 319.25 58.88
  A 0.88 0.87 90.0 0 1 320.12 58.00
  L 407.09 58.00
  A 0.66 0.66 0.2 0 1 407.75 58.66
  L 407.75 80.11
  A 0.87 0.85 89.7 0 0 408.61 80.98
  L 420.68 80.95
  A 0.51 0.51 -89.8 0 0 421.19 80.44
  L 421.25 58.91
  A 0.91 0.90 89.7 0 1 422.14 58.00
  Q 445.43 57.89 468.08 58.16
  C 479.16 58.29 486.55 59.33 494.09 66.35
  Q 494.78 67.00 494.75 66.02
  L 494.52 58.99
  A 1.05 0.95 -1.0 0 1 495.57 58.00
  L 546.51 58.00
  A 0.99 0.99 1.4 0 1 547.50 58.99
  L 547.56 80.20
  A 0.50 0.49 0.0 0 0 548.06 80.69
  Z
  M 94.44 118.32
  L 94.50 137.94
  A 0.56 0.55 90.0 0 0 95.05 138.50
  L 106.69 138.50
  A 0.62 0.61 -0.5 0 0 107.31 137.88
  L 106.94 65.82
  A 0.51 0.50 90.0 0 0 106.44 65.31
  L 94.90 65.19
  A 1.72 1.71 -72.0 0 0 93.48 65.92
  L 42.57 137.70
  Q 42.01 138.50 42.99 138.50
  L 56.84 138.50
  A 1.31 1.27 -71.9 0 0 57.89 137.95
  L 71.91 118.36
  A 1.47 1.44 17.2 0 1 73.10 117.75
  L 93.93 117.81
  A 0.51 0.51 0.0 0 1 94.44 118.32
  Z
  M 174.15 114.83
  C 180.83 93.00 168.64 66.04 143.56 65.44
  Q 129.91 65.11 115.37 65.26
  A 0.63 0.63 -0.5 0 0 114.75 65.89
  L 114.75 137.69
  A 0.81 0.81 0.0 0 0 115.56 138.50
  C 137.55 138.50 165.67 142.57 174.15 114.83
  Z
  M 235.44 77.16
  L 235.56 137.93
  A 0.52 0.51 90.0 0 0 236.07 138.45
  L 272.30 138.32
  A 0.51 0.50 -0.0 0 0 272.81 137.82
  L 272.69 129.31
  A 0.51 0.51 0.6 0 0 272.19 128.80
  L 246.57 128.50
  A 0.84 0.84 0.3 0 1 245.74 127.66
  L 245.93 107.18
  A 0.51 0.51 0.0 0 1 246.43 106.68
  L 272.19 106.20
  A 0.53 0.52 -90.0 0 0 272.70 105.68
  L 272.81 97.49
  A 1.01 0.99 0.3 0 0 271.80 96.49
  L 246.44 96.32
  A 0.52 0.51 -0.0 0 1 245.92 95.81
  L 245.77 75.87
  A 0.92 0.88 -0.6 0 1 246.68 74.98
  L 272.06 74.83
  A 0.55 0.52 -0.0 0 0 272.60 74.32
  L 272.71 66.03
  A 0.80 0.76 0.7 0 0 271.91 65.25
  L 230.32 65.25
  A 1.17 1.15 16.0 0 0 229.34 65.78
  L 194.30 118.82
  Q 193.31 120.33 193.32 118.52
  L 193.56 65.94
  A 0.52 0.50 -89.4 0 0 193.06 65.41
  L 181.31 65.29
  A 0.52 0.50 90.0 0 0 180.81 65.81
  L 181.18 137.82
  A 0.53 0.51 90.0 0 0 181.68 138.34
  L 195.19 138.45
  A 0.93 0.87 -72.1 0 0 195.96 138.02
  L 235.07 77.05
  Q 235.44 76.48 235.44 77.16
  Z
  M 325.82 115.60
  L 291.19 66.00
  A 1.78 1.76 72.2 0 0 289.75 65.25
  L 279.80 65.25
  A 1.04 1.03 -89.4 0 0 278.77 66.27
  C 278.62 74.03 279.01 82.25 278.89 89.25
  Q 278.49 113.53 278.93 137.81
  A 0.55 0.50 89.4 0 0 279.43 138.35
  L 289.06 138.36
  A 0.54 0.50 -90.0 0 0 289.56 137.82
  L 289.49 83.47
  Q 289.49 81.36 290.63 83.14
  L 325.51 137.82
  A 1.51 1.49 -16.2 0 0 326.77 138.50
  L 336.50 138.50
  A 0.50 0.50 0.0 0 0 337.00 138.00
  L 337.00 65.81
  A 0.56 0.56 0.0 0 0 336.44 65.25
  L 326.75 65.25
  A 0.50 0.50 0.0 0 0 326.25 65.75
  L 326.25 115.46
  Q 326.25 116.21 325.82 115.60
  Z
  M 345.09 74.24
  A 0.77 0.71 89.6 0 0 345.80 75.00
  L 358.40 75.00
  A 0.85 0.85 -0.0 0 1 359.25 75.85
  L 359.25 137.76
  A 0.73 0.72 90.0 0 0 359.97 138.49
  L 369.45 138.45
  A 0.51 0.48 89.4 0 0 369.93 137.93
  L 369.75 75.89
  A 1.00 0.94 -0.6 0 1 370.73 74.95
  L 383.45 74.73
  A 0.54 0.51 89.5 0 0 383.95 74.19
  L 383.99 65.81
  A 0.56 0.56 0.0 0 0 383.43 65.25
  L 345.64 65.25
  A 0.72 0.64 89.6 0 0 345.00 65.98
  L 345.09 74.24
  Z
  M 436.51 126.92
  Q 439.19 121.60 439.20 115.25
  Q 439.25 90.50 439.25 65.76
  A 0.50 0.47 89.4 0 0 438.77 65.26
  L 428.81 65.51
  A 0.55 0.50 88.9 0 0 428.32 66.07
  Q 428.53 90.28 428.25 114.50
  C 428.01 135.44 400.75 134.84 400.75 115.25
  Q 400.75 91.25 400.75 66.03
  A 0.78 0.78 89.9 0 0 399.97 65.25
  L 390.56 65.25
  A 0.56 0.56 0.0 0 0 390.00 65.81
  Q 390.00 86.35 390.00 106.44
  Q 390.00 120.41 391.53 124.89
  C 398.00 143.85 427.37 145.10 436.51 126.92
  Z
  M 475.57 111.26
  C 491.03 109.55 497.63 97.80 495.18 83.27
  Q 493.04 70.53 480.67 66.72
  C 472.04 64.06 458.09 65.25 447.51 65.25
  A 0.51 0.51 -89.8 0 0 447.00 65.76
  L 446.94 137.82
  A 0.53 0.50 -89.5 0 0 447.43 138.35
  L 457.03 138.47
  A 0.72 0.70 90.0 0 0 457.74 137.74
  L 457.57 105.58
  Q 457.56 104.07 458.43 105.30
  L 481.53 138.04
  A 0.97 0.94 71.9 0 0 482.31 138.45
  L 494.63 138.49
  Q 495.50 138.49 494.97 137.79
  L 475.36 111.72
  Q 475.06 111.32 475.57 111.26
  Z
  M 512.33 127.94
  L 512.45 107.19
  A 0.52 0.49 89.4 0 1 512.93 106.67
  L 540.60 106.52
  A 1.16 1.14 -0.3 0 0 541.75 105.38
  L 541.75 97.16
  A 0.66 0.66 90.0 0 0 541.09 96.50
  L 513.01 96.50
  A 0.58 0.57 0.0 0 1 512.43 95.93
  L 512.56 75.56
  A 0.51 0.50 -0.0 0 1 513.07 75.06
  L 540.94 74.94
  A 0.57 0.50 0.5 0 0 541.51 74.45
  L 541.62 65.94
  A 0.56 0.50 0.5 0 0 541.06 65.43
  L 502.31 65.26
  A 0.56 0.55 -89.5 0 0 501.75 65.82
  L 501.75 137.77
  A 0.73 0.73 0.1 0 0 502.48 138.50
  L 541.27 138.50
  A 0.45 0.41 -89.3 0 0 541.68 138.06
  L 541.82 129.70
  A 0.94 0.90 -89.4 0 0 540.92 128.74
  L 512.81 128.46
  A 0.52 0.49 -89.4 0 1 512.33 127.94
  Z"
/>
<path fill="#ffffff" d="
  M 93.93 117.81
  L 73.10 117.75
  A 1.47 1.44 17.2 0 0 71.91 118.36
  L 57.89 137.95
  A 1.31 1.27 -71.9 0 1 56.84 138.50
  L 42.99 138.50
  Q 42.01 138.50 42.57 137.70
  L 93.48 65.92
  A 1.72 1.71 -72.0 0 1 94.90 65.19
  L 106.44 65.31
  A 0.51 0.50 90.0 0 1 106.94 65.82
  L 107.31 137.88
  A 0.62 0.61 -0.5 0 1 106.69 138.50
  L 95.05 138.50
  A 0.56 0.55 90.0 0 1 94.50 137.94
  L 94.44 118.32
  A 0.51 0.51 0.0 0 0 93.93 117.81
  Z
  M 93.47 84.14
  L 79.08 106.51
  Q 78.81 106.92 79.31 106.92
  L 93.94 106.77
  A 0.88 0.86 89.3 0 0 94.79 105.88
  L 94.65 84.52
  Q 94.63 82.33 93.47 84.14
  Z"
/>
<path fill="#ffffff" d="
  M 143.56 65.44
  C 168.64 66.04 180.83 93.00 174.15 114.83
  C 165.67 142.57 137.55 138.50 115.56 138.50
  A 0.81 0.81 0.0 0 1 114.75 137.69
  L 114.75 65.89
  A 0.63 0.63 -0.5 0 1 115.37 65.26
  Q 129.91 65.11 143.56 65.44
  Z
  M 145.93 127.88
  C 173.66 122.22 170.62 78.77 143.75 75.50
  Q 135.79 74.53 126.19 75.15
  A 0.55 0.54 -1.8 0 0 125.68 75.68
  L 125.50 128.17
  A 0.52 0.52 -1.1 0 0 126.04 128.69
  C 132.60 128.40 140.45 129.00 145.93 127.88
  Z"
/>
<path fill="#ffffff" d="
  M 235.44 77.16
  Q 235.44 76.48 235.07 77.05
  L 195.96 138.02
  A 0.93 0.87 -72.1 0 1 195.19 138.45
  L 181.68 138.34
  A 0.53 0.51 90.0 0 1 181.18 137.82
  L 180.81 65.81
  A 0.52 0.50 -90.0 0 1 181.31 65.29
  L 193.06 65.41
  A 0.52 0.50 -89.4 0 1 193.56 65.94
  L 193.32 118.52
  Q 193.31 120.33 194.30 118.82
  L 229.34 65.78
  A 1.17 1.15 16.0 0 1 230.32 65.25
  L 271.91 65.25
  A 0.80 0.76 0.7 0 1 272.71 66.03
  L 272.60 74.32
  A 0.55 0.52 -0.0 0 1 272.06 74.83
  L 246.68 74.98
  A 0.92 0.88 -0.6 0 0 245.77 75.87
  L 245.92 95.81
  A 0.52 0.51 0.0 0 0 246.44 96.32
  L 271.80 96.49
  A 1.01 0.99 0.3 0 1 272.81 97.49
  L 272.70 105.68
  A 0.53 0.52 -90.0 0 1 272.19 106.20
  L 246.43 106.68
  A 0.51 0.51 0.0 0 0 245.93 107.18
  L 245.74 127.66
  A 0.84 0.84 0.3 0 0 246.57 128.50
  L 272.19 128.80
  A 0.51 0.51 0.6 0 1 272.69 129.31
  L 272.81 137.82
  A 0.51 0.50 -0.0 0 1 272.30 138.32
  L 236.07 138.45
  A 0.52 0.51 -90.0 0 1 235.56 137.93
  L 235.44 77.16
  Z"
/>
<path fill="#ffffff" d="
  M 325.82 115.60
  Q 326.25 116.21 326.25 115.46
  L 326.25 65.75
  A 0.50 0.50 0.0 0 1 326.75 65.25
  L 336.44 65.25
  A 0.56 0.56 0.0 0 1 337.00 65.81
  L 337.00 138.00
  A 0.50 0.50 0.0 0 1 336.50 138.50
  L 326.77 138.50
  A 1.51 1.49 -16.2 0 1 325.51 137.82
  L 290.63 83.14
  Q 289.49 81.36 289.49 83.47
  L 289.56 137.82
  A 0.54 0.50 90.0 0 1 289.06 138.36
  L 279.43 138.35
  A 0.55 0.50 89.4 0 1 278.93 137.81
  Q 278.49 113.53 278.89 89.25
  C 279.01 82.25 278.62 74.03 278.77 66.27
  A 1.04 1.03 -89.4 0 1 279.80 65.25
  L 289.75 65.25
  A 1.78 1.76 72.2 0 1 291.19 66.00
  L 325.82 115.60
  Z"
/>
<path fill="#ffffff" d="
  M 345.09 74.24
  L 345.00 65.98
  A 0.72 0.64 89.6 0 1 345.64 65.25
  L 383.43 65.25
  A 0.56 0.56 0.0 0 1 383.99 65.81
  L 383.95 74.19
  A 0.54 0.51 89.5 0 1 383.45 74.73
  L 370.73 74.95
  A 1.00 0.94 -0.6 0 0 369.75 75.89
  L 369.93 137.93
  A 0.51 0.48 89.4 0 1 369.45 138.45
  L 359.97 138.49
  A 0.73 0.72 -90.0 0 1 359.25 137.76
  L 359.25 75.85
  A 0.85 0.85 -0.2 0 0 358.40 75.00
  L 345.80 75.00
  A 0.77 0.71 89.6 0 1 345.09 74.24
  Z"
/>
<path fill="#ffffff" d="
  M 436.51 126.92
  C 427.37 145.10 398.00 143.85 391.53 124.89
  Q 390.00 120.41 390.00 106.44
  Q 390.00 86.35 390.00 65.81
  A 0.56 0.56 0.0 0 1 390.56 65.25
  L 399.97 65.25
  A 0.78 0.78 89.9 0 1 400.75 66.03
  Q 400.75 91.25 400.75 115.25
  C 400.75 134.84 428.01 135.44 428.25 114.50
  Q 428.53 90.28 428.32 66.07
  A 0.55 0.50 88.9 0 1 428.81 65.51
  L 438.77 65.26
  A 0.50 0.47 89.4 0 1 439.25 65.76
  Q 439.25 90.50 439.20 115.25
  Q 439.19 121.60 436.51 126.92
  Z"
/>
<path fill="#ffffff" d="
  M 475.36 111.72
  L 494.97 137.79
  Q 495.50 138.49 494.63 138.49
  L 482.31 138.45
  A 0.97 0.94 71.9 0 1 481.53 138.04
  L 458.43 105.30
  Q 457.56 104.07 457.57 105.58
  L 457.74 137.74
  A 0.72 0.70 90.0 0 1 457.03 138.47
  L 447.43 138.35
  A 0.53 0.50 -89.5 0 1 446.94 137.82
  L 447.00 65.76
  A 0.51 0.51 89.6 0 1 447.51 65.25
  C 458.09 65.25 472.04 64.06 480.67 66.72
  Q 493.04 70.53 495.18 83.27
  C 497.63 97.80 491.03 109.55 475.57 111.26
  Q 475.06 111.32 475.36 111.72
  Z
  M 482.36 96.86
  C 486.29 92.35 485.62 84.45 482.03 80.29
  C 476.95 74.41 465.62 74.20 458.31 75.24
  A 0.58 0.57 -4.0 0 0 457.81 75.81
  L 457.75 102.43
  A 0.55 0.54 1.7 0 0 458.27 102.97
  C 466.32 103.33 476.73 103.34 482.36 96.86
  Z"
/>
<path fill="#ffffff" d="
  M 512.81 128.46
  L 540.92 128.74
  A 0.94 0.90 -89.4 0 1 541.82 129.70
  L 541.68 138.06
  A 0.45 0.41 -89.3 0 1 541.27 138.50
  L 502.48 138.50
  A 0.73 0.73 0.1 0 1 501.75 137.77
  L 501.75 65.82
  A 0.56 0.55 -89.5 0 1 502.31 65.26
  L 541.06 65.43
  A 0.56 0.50 0.5 0 1 541.62 65.94
  L 541.51 74.45
  A 0.57 0.50 0.5 0 1 540.94 74.94
  L 513.07 75.06
  A 0.51 0.50 -0.0 0 0 512.56 75.56
  L 512.43 95.93
  A 0.58 0.57 0.0 0 0 513.01 96.50
  L 541.09 96.50
  A 0.66 0.66 89.5 0 1 541.75 97.16
  L 541.75 105.38
  A 1.16 1.14 -0.3 0 1 540.60 106.52
  L 512.93 106.67
  A 0.52 0.49 89.4 0 0 512.45 107.19
  L 512.33 127.94
  A 0.52 0.49 -89.4 0 0 512.81 128.46
  Z"
/>
<path fill="#b01000" d="
  M 143.75 75.50
  C 170.62 78.77 173.66 122.22 145.93 127.88
  C 140.45 129.00 132.60 128.40 126.04 128.69
  A 0.52 0.52 -1.1 0 1 125.50 128.17
  L 125.68 75.68
  A 0.55 0.54 -1.8 0 1 126.19 75.15
  Q 135.79 74.53 143.75 75.50
  Z"
/>
<path fill="#b01000" d="
  M 482.36 96.86
  C 476.73 103.34 466.32 103.33 458.27 102.97
  A 0.55 0.54 1.7 0 1 457.75 102.43
  L 457.81 75.81
  A 0.58 0.57 -4.0 0 1 458.31 75.24
  C 465.62 74.20 476.95 74.41 482.03 80.29
  C 485.62 84.45 486.29 92.35 482.36 96.86
  Z"
/>
<path fill="#b01000" d="
  M 93.47 84.14
  Q 94.63 82.33 94.65 84.52
  L 94.79 105.88
  A 0.88 0.86 89.3 0 1 93.94 106.77
  L 79.31 106.92
  Q 78.81 106.92 79.08 106.51
  L 93.47 84.14
  Z"
/>
<path fill="#b01000" d="
  M 297.65 163.83
  C 316.78 143.72 347.44 143.79 366.22 163.71
  Q 367.05 164.58 367.02 163.37
  L 366.74 151.25
  A 1.27 1.23 -0.4 0 1 368.01 150.00
  L 388.57 150.00
  A 1.88 1.82 72.0 0 1 390.08 150.80
  L 404.76 171.54
  A 1.03 0.99 -16.7 0 0 405.56 171.95
  L 414.82 172.06
  A 0.50 0.50 -31.7 0 0 415.33 171.57
  L 415.50 151.35
  A 1.06 1.03 88.9 0 1 416.48 150.30
  Q 428.88 149.66 440.12 150.24
  A 0.67 0.67 1.8 0 1 440.75 150.91
  L 440.75 171.33
  A 0.67 0.67 0.0 0 0 441.42 172.00
  L 483.27 172.00
  Q 484.04 172.00 483.61 172.63
  L 452.85 217.15
  A 1.00 0.96 -72.8 0 1 452.06 217.59
  L 441.32 217.82
  A 0.52 0.50 -0.6 0 0 440.81 218.32
  L 440.75 238.81
  A 0.94 0.93 90.0 0 1 439.82 239.75
  L 419.16 239.75
  A 1.44 1.39 -15.6 0 1 417.96 239.10
  L 404.65 218.18
  A 0.92 0.92 -16.0 0 0 403.87 217.75
  L 392.66 217.75
  A 0.66 0.66 0.1 0 0 392.00 218.41
  L 392.00 239.08
  A 0.67 0.67 -0.2 0 1 391.33 239.75
  L 367.74 239.75
  A 0.96 0.92 0.6 0 1 366.78 238.81
  L 366.97 226.52
  Q 366.98 225.36 366.19 226.17
  C 347.56 245.42 316.82 246.64 298.48 226.40
  Q 297.09 224.87 297.27 226.93
  Q 297.80 233.20 297.30 239.00
  A 0.58 0.56 -87.7 0 1 296.75 239.52
  L 273.01 239.73
  A 0.77 0.75 89.6 0 1 272.25 238.96
  L 272.25 234.46
  Q 272.25 233.45 271.45 234.07
  C 259.15 243.58 241.27 243.84 230.16 232.66
  Q 229.45 231.95 229.50 232.98
  L 229.75 238.72
  A 1.03 0.97 -1.3 0 1 228.72 239.74
  L 204.93 239.58
  A 0.52 0.51 0.6 0 1 204.42 239.07
  L 204.42 218.57
  A 0.53 0.49 -89.5 0 0 203.94 218.04
  L 198.93 217.94
  A 0.67 0.66 9.3 0 0 198.28 218.40
  L 191.55 238.59
  A 1.70 1.65 -80.4 0 1 189.97 239.75
  L 169.29 239.75
  A 1.13 1.10 79.7 0 1 168.25 239.01
  L 160.86 218.53
  A 0.72 0.71 80.1 0 0 160.19 218.05
  L 103.37 218.02
  Q 101.71 218.02 102.65 216.66
  L 132.42 173.46
  A 2.92 2.83 16.7 0 1 134.77 172.24
  L 143.69 172.20
  A 0.36 0.36 -9.7 0 0 144.03 171.72
  L 136.61 151.14
  A 0.81 0.79 79.8 0 1 137.34 150.06
  L 161.73 150.00
  A 2.08 2.05 -10.2 0 1 163.67 151.33
  L 171.29 171.60
  A 1.37 1.26 78.4 0 0 172.51 172.48
  L 185.32 172.34
  A 0.75 0.70 -80.4 0 0 185.98 171.84
  L 193.07 151.03
  A 1.52 1.49 -80.5 0 1 194.49 150.00
  L 228.38 150.00
  A 1.33 1.25 0.6 0 1 229.71 151.28
  L 229.58 157.37
  Q 229.55 158.89 230.56 157.83
  C 241.98 145.85 258.64 146.15 271.50 156.10
  Q 272.25 156.69 272.25 155.73
  L 272.25 150.74
  A 0.54 0.53 89.5 0 1 272.77 150.20
  L 296.25 150.02
  A 1.25 1.23 0.2 0 1 297.51 151.27
  L 297.34 163.69
  Q 297.33 164.17 297.65 163.83
  Z
  M 248.00 233.79
  Q 251.03 235.29 254.25 234.04
  Q 263.87 232.71 269.36 225.87
  C 278.29 214.72 275.41 196.59 261.77 190.71
  Q 251.84 186.42 249.50 185.75
  C 236.76 182.10 240.08 165.01 252.72 166.19
  Q 260.76 166.95 261.88 176.06
  A 0.62 0.56 86.4 0 0 262.43 176.60
  L 272.13 176.71
  A 0.86 0.82 88.1 0 0 272.96 175.78
  C 270.31 144.93 223.61 152.32 230.99 182.50
  C 233.86 194.23 247.02 197.04 256.60 201.11
  C 269.34 206.52 263.00 226.87 248.49 223.38
  Q 240.69 221.50 239.02 211.08
  A 0.95 0.88 84.5 0 0 238.12 210.28
  L 228.64 210.53
  A 0.57 0.53 87.0 0 0 228.13 211.15
  Q 229.78 230.45 248.00 233.79
  Z
  M 328.00 233.79
  Q 331.68 235.29 335.50 234.04
  Q 348.03 232.43 357.06 224.92
  C 381.38 204.70 372.58 164.03 341.50 157.00
  C 313.85 150.75 288.60 173.54 293.60 201.93
  C 296.62 219.07 310.77 231.63 328.00 233.79
  Z
  M 180.09 212.36
  Q 179.67 213.59 179.21 212.38
  L 158.59 157.83
  A 0.60 0.56 78.4 0 0 158.04 157.44
  L 147.06 157.53
  A 0.38 0.37 79.1 0 0 146.73 158.04
  L 173.27 231.84
  A 0.76 0.67 79.1 0 0 173.93 232.35
  L 185.57 232.35
  A 0.75 0.66 -79.7 0 0 186.22 231.84
  L 210.45 158.15
  A 0.46 0.44 -80.4 0 0 210.04 157.55
  L 199.06 157.53
  A 0.75 0.68 -79.9 0 0 198.40 158.04
  L 180.09 212.36
  Z
  M 222.50 157.81
  A 0.47 0.47 0.0 0 0 222.03 157.34
  L 211.97 157.34
  A 0.47 0.47 0.0 0 0 211.50 157.81
  L 211.50 232.03
  A 0.47 0.47 0.0 0 0 211.97 232.50
  L 222.03 232.50
  A 0.47 0.47 0.0 0 0 222.50 232.03
  L 222.50 157.81
  Z
  M 290.25 157.56
  A 0.26 0.26 0.0 0 0 289.99 157.30
  L 279.51 157.30
  A 0.26 0.26 0.0 0 0 279.25 157.56
  L 279.25 232.26
  A 0.26 0.26 0.0 0 0 279.51 232.52
  L 289.99 232.52
  A 0.26 0.26 0.0 0 0 290.25 232.26
  L 290.25 157.56
  Z
  M 384.81 175.39
  Q 384.81 174.01 385.56 175.18
  L 421.95 232.07
  A 0.96 0.95 -16.3 0 0 422.75 232.50
  L 433.19 232.50
  A 0.56 0.56 0.0 0 0 433.75 231.94
  L 433.81 158.14
  A 0.58 0.58 -86.7 0 0 433.30 157.56
  Q 428.12 156.96 423.01 157.56
  A 0.58 0.57 -3.4 0 0 422.50 158.13
  L 422.57 208.45
  Q 422.57 209.94 421.72 208.72
  L 386.53 158.19
  A 1.97 1.74 70.1 0 0 384.98 157.34
  L 374.31 157.51
  A 0.55 0.51 89.5 0 0 373.81 158.06
  L 373.75 231.60
  A 0.90 0.89 90.0 0 0 374.64 232.50
  L 384.08 232.50
  A 0.74 0.74 0.0 0 0 384.82 231.76
  L 384.81 175.39
  Z"
/>
<path fill="#ffffff" d="
  M 254.25 234.04
  L 248.00 233.79
  Q 229.78 230.45 228.13 211.15
  A 0.57 0.53 87.0 0 1 228.64 210.53
  L 238.12 210.28
  A 0.95 0.88 84.5 0 1 239.02 211.08
  Q 240.69 221.50 248.49 223.38
  C 263.00 226.87 269.34 206.52 256.60 201.11
  C 247.02 197.04 233.86 194.23 230.99 182.50
  C 223.61 152.32 270.31 144.93 272.96 175.78
  A 0.86 0.82 88.1 0 1 272.13 176.71
  L 262.43 176.60
  A 0.62 0.56 86.4 0 1 261.88 176.06
  Q 260.76 166.95 252.72 166.19
  C 240.08 165.01 236.76 182.10 249.50 185.75
  Q 251.84 186.42 261.77 190.71
  C 275.41 196.59 278.29 214.72 269.36 225.87
  Q 263.87 232.71 254.25 234.04
  Z"
/>
<path fill="#ffffff" d="
  M 335.50 234.04
  L 328.00 233.79
  C 310.77 231.63 296.62 219.07 293.60 201.93
  C 288.60 173.54 313.85 150.75 341.50 157.00
  C 372.58 164.03 381.38 204.70 357.06 224.92
  Q 348.03 232.43 335.50 234.04
  Z
  M 332.0900 223.9400
  A 28.99 28.01 90.0 0 0 360.1000 194.9500
  A 28.99 28.01 90.0 0 0 332.0900 165.9600
  A 28.99 28.01 90.0 0 0 304.0800 194.9500
  A 28.99 28.01 90.0 0 0 332.0900 223.9400
  Z"
/>
<path fill="#ffffff" d="
  M 180.09 212.36
  L 198.40 158.04
  A 0.75 0.68 -79.9 0 1 199.06 157.53
  L 210.04 157.55
  A 0.46 0.44 -80.4 0 1 210.45 158.15
  L 186.22 231.84
  A 0.75 0.66 -79.7 0 1 185.57 232.35
  L 173.93 232.35
  A 0.76 0.67 79.1 0 1 173.27 231.84
  L 146.73 158.04
  A 0.38 0.37 79.1 0 1 147.06 157.53
  L 158.04 157.44
  A 0.60 0.56 78.4 0 1 158.59 157.83
  L 179.21 212.38
  Q 179.67 213.59 180.09 212.36
  Z"
/>
<rect fill="#ffffff" x="211.50" y="157.34" width="11.00" height="75.16" rx="0.47"/>
<rect fill="#ffffff" x="279.25" y="157.30" width="11.00" height="75.22" rx="0.26"/>
<path fill="#ffffff" d="
  M 384.81 175.39
  L 384.82 231.76
  A 0.74 0.74 0.0 0 1 384.08 232.50
  L 374.64 232.50
  A 0.90 0.89 -90.0 0 1 373.75 231.60
  L 373.81 158.06
  A 0.55 0.51 89.5 0 1 374.31 157.51
  L 384.98 157.34
  A 1.97 1.74 70.1 0 1 386.53 158.19
  L 421.72 208.72
  Q 422.57 209.94 422.57 208.45
  L 422.50 158.13
  A 0.58 0.57 -3.4 0 1 423.01 157.56
  Q 428.12 156.96 433.30 157.56
  A 0.58 0.58 -86.7 0 1 433.81 158.14
  L 433.75 231.94
  A 0.56 0.56 0.0 0 1 433.19 232.50
  L 422.75 232.50
  A 0.96 0.95 -16.3 0 1 421.95 232.07
  L 385.56 175.18
  Q 384.81 174.01 384.81 175.39
  Z"
/>
<ellipse fill="#b01000" cx="0.00" cy="0.00" transform="translate(332.09,194.95) rotate(90.0)" rx="28.99" ry="28.01"/>
<path fill="#decbb2" d="
  M 248.00 233.79
  L 254.25 234.04
  Q 251.03 235.29 248.00 233.79
  Z"
/>
<path fill="#decbb2" d="
  M 328.00 233.79
  L 335.50 234.04
  Q 331.68 235.29 328.00 233.79
  Z"
/>
</svg>
