<?xml version="1.0" encoding="UTF-8" standalone="no"?>
<!DOCTYPE svg PUBLIC "-//W3C//DTD SVG 1.1//EN" "http://www.w3.org/Graphics/SVG/1.1/DTD/svg11.dtd">
<svg xmlns="http://www.w3.org/2000/svg" version="1.1" viewBox="0 0 600 161">
<path fill="#f62c24" d="
  M 76.94 161.00
  L 75.69 161.00
  Q 59.47 160.56 43.25 160.80
  C 24.21 161.07 7.32 149.71 1.95 131.34
  Q 0.51 126.43 0.41 117.50
  Q -0.01 82.24 0.38 46.98
  Q 0.53 34.12 2.18 28.69
  C 6.16 15.64 17.42 5.55 30.58 1.90
  Q 35.57 0.52 46.55 0.34
  Q 61.60 0.10 76.16 0.30
  A 1.87 1.86 0.5 0 1 78.00 2.16
  Q 78.00 80.63 77.95 158.75
  Q 77.95 160.13 76.94 161.00
  Z
  M 63.77 147.57
  A 0.72 0.72 0.4 0 0 64.50 146.85
  L 64.50 14.14
  A 0.71 0.71 -0.4 0 0 63.78 13.43
  Q 52.97 13.55 43.00 13.56
  C 24.68 13.58 13.50 26.45 13.50 44.00
  Q 13.50 78.59 13.50 113.18
  Q 13.50 123.70 14.70 127.71
  C 18.22 139.47 29.68 147.65 42.00 147.54
  Q 52.34 147.45 63.77 147.57
  Z"
/>
<path fill="#f62c24" d="
  M 133.45 2.67
  C 149.89 8.42 160.39 23.36 161.00 40.75
  Q 161.53 55.87 161.25 109.50
  C 161.20 118.28 161.36 126.23 158.48 133.91
  C 152.03 151.08 136.64 160.75 118.00 160.75
  Q 106.50 160.75 94.84 160.75
  A 1.09 1.09 0.0 0 1 93.75 159.66
  L 93.75 1.45
  A 0.97 0.97 -1.2 0 1 94.68 0.48
  C 106.43 -0.05 122.80 -1.06 133.45 2.67
  Z
  M 141.57 88.58
  A 15.94 15.94 0.0 0 0 125.63 72.64
  A 15.94 15.94 0.0 0 0 109.69 88.58
  A 15.94 15.94 0.0 0 0 125.63 104.52
  A 15.94 15.94 0.0 0 0 141.57 88.58
  Z"
/>
<path fill="#f62c24" d="
  M 599.77 42.36
  A 18.46 18.46 0.0 0 1 581.31 60.82
  A 18.46 18.46 0.0 0 1 562.85 42.36
  A 18.46 18.46 0.0 0 1 581.31 23.90
  A 18.46 18.46 0.0 0 1 599.77 42.36
  Z
  M 591.67 42.37
  A 10.38 10.38 0.0 0 0 581.29 31.99
  A 10.38 10.38 0.0 0 0 570.91 42.37
  A 10.38 10.38 0.0 0 0 581.29 52.75
  A 10.38 10.38 0.0 0 0 591.67 42.37
  Z"
/>
<path fill="#f62c24" d="
  M 217.90 44.98
  L 217.76 25.88
  A 0.57 0.55 90.0 0 1 218.32 25.30
  L 224.56 25.39
  A 0.54 0.51 -90.0 0 1 225.07 25.93
  L 225.20 58.94
  A 0.68 0.66 -8.1 0 1 224.71 59.58
  Q 219.40 61.04 216.31 56.94
  Q 209.38 47.73 202.26 38.02
  Q 201.50 36.99 201.50 38.27
  L 201.44 58.94
  A 0.72 0.66 81.6 0 1 200.98 59.61
  C 200.12 59.87 198.85 59.77 198.01 59.84
  C 193.76 60.18 194.25 57.41 194.25 54.36
  Q 194.25 40.91 194.25 27.02
  A 2.12 2.11 -6.1 0 1 195.92 24.96
  Q 200.64 23.96 203.61 27.87
  Q 210.16 36.47 216.71 45.39
  Q 217.92 47.03 217.90 44.98
  Z"
/>
<path fill="#f62c24" d="
  M 307.56 46.44
  Q 307.81 46.79 308.09 46.70
  A 0.77 0.46 83.9 0 0 308.42 45.99
  C 308.21 39.96 308.48 33.89 308.14 27.88
  C 307.92 23.85 311.92 25.37 314.29 24.85
  A 0.80 0.79 83.9 0 1 315.25 25.63
  L 315.32 58.78
  A 0.79 0.78 85.3 0 1 314.67 59.56
  Q 308.93 60.51 306.37 56.90
  Q 299.47 47.21 292.19 37.82
  Q 291.52 36.96 291.56 38.05
  Q 291.87 46.95 291.76 55.84
  C 291.74 57.36 292.48 59.74 290.15 59.88
  C 287.67 60.03 284.57 60.31 284.46 56.86
  Q 283.97 41.27 284.42 25.68
  A 0.65 0.65 -5.2 0 1 284.93 25.07
  C 288.04 24.38 290.78 24.45 293.01 27.15
  Q 299.71 35.25 307.56 46.44
  Z"
/>
<path fill="#f62c24" d="
  M 472.42 46.39
  Q 472.95 47.08 472.94 46.21
  L 472.76 25.63
  A 0.71 0.69 -1.3 0 1 473.45 24.93
  C 476.17 24.85 480.10 23.90 480.14 28.00
  Q 480.29 43.60 480.19 59.19
  A 0.54 0.49 -89.0 0 1 479.68 59.73
  L 473.55 59.52
  A 1.20 0.92 68.0 0 1 472.75 59.05
  L 457.05 37.93
  Q 456.32 36.93 456.32 38.17
  L 456.33 59.06
  A 0.56 0.52 -90.0 0 1 455.81 59.62
  L 450.28 59.70
  A 1.29 1.19 -90.0 0 1 449.08 58.40
  L 449.20 25.68
  A 0.65 0.60 83.8 0 1 449.66 25.06
  Q 452.77 24.31 455.85 25.28
  A 1.60 1.51 79.3 0 1 456.61 25.83
  L 472.42 46.39
  Z"
/>
<path fill="#f62c24" d="
  M 534.44 28.99
  C 546.32 38.55 540.93 58.24 525.26 59.33
  Q 517.28 59.88 509.31 59.23
  A 0.55 0.54 -87.8 0 1 508.81 58.68
  L 508.75 25.54
  A 0.53 0.52 -0.6 0 1 509.27 25.02
  C 517.15 24.85 528.19 23.96 534.44 28.99
  Z
  M 524.75 51.80
  C 537.17 50.74 535.56 31.85 521.74 32.63
  C 520.22 32.72 518.36 32.13 516.76 32.84
  A 0.82 0.75 79.0 0 0 516.31 33.57
  L 516.25 50.56
  A 1.46 1.45 0.8 0 0 517.67 52.01
  Q 521.01 52.12 524.75 51.80
  Z"
/>
<rect fill="#f62c24" x="251.25" y="25.21" width="7.50" height="34.38" rx="0.61"/>
<path fill="#f62c24" d="
  M 401.47 45.81
  L 401.36 51.79
  A 1.09 0.96 0.8 0 0 402.44 52.77
  L 420.06 52.92
  A 0.56 0.53 -0.5 0 1 420.62 53.44
  L 420.70 58.84
  A 0.96 0.89 -0.6 0 1 419.74 59.75
  L 394.99 59.75
  A 0.93 0.92 -89.7 0 1 394.07 58.81
  L 394.18 25.91
  A 0.66 0.66 -89.8 0 1 394.84 25.25
  L 420.25 25.18
  A 0.67 0.55 2.3 0 1 420.93 25.78
  L 420.43 30.59
  A 1.50 1.29 2.5 0 1 418.96 31.75
  L 402.55 31.75
  A 0.96 0.96 8.1 0 0 401.63 32.44
  C 399.57 39.53 402.58 38.75 407.97 38.75
  Q 413.09 38.75 418.62 38.75
  A 0.89 0.87 -0.0 0 1 419.51 39.62
  L 419.46 44.68
  A 0.53 0.52 0.6 0 1 418.93 45.19
  L 402.07 45.31
  A 0.60 0.51 0.5 0 0 401.47 45.81
  Z"
/>
<path fill="#f62c24" d="
  M 358.56 33.30
  L 358.50 59.25
  A 0.50 0.50 0.0 0 1 358.00 59.75
  L 351.37 59.75
  A 0.87 0.85 0.3 0 1 350.50 58.89
  L 350.75 33.67
  A 0.96 0.94 0.9 0 0 349.81 32.72
  L 340.43 32.60
  A 0.55 0.54 0.5 0 1 339.89 32.06
  L 339.78 25.76
  A 0.54 0.51 0.0 0 1 340.32 25.25
  L 368.11 25.25
  A 0.59 0.55 0.5 0 1 368.70 25.81
  L 368.61 32.06
  A 0.57 0.53 -0.5 0 1 368.05 32.59
  L 359.06 32.82
  A 0.51 0.48 -0.6 0 0 358.56 33.30
  Z"
/>
<circle fill="#f62c24" cx="40.52" cy="48.53" r="15.24"/>
<path fill="#f62c24" d="
  M 462.31 114.74
  C 459.02 91.80 476.86 72.85 499.99 75.06
  Q 516.13 76.61 524.97 89.83
  A 0.59 0.57 52.6 0 1 524.88 90.59
  L 515.17 99.06
  A 0.68 0.66 51.2 0 1 514.19 98.94
  Q 506.44 88.57 495.03 89.63
  C 482.01 90.84 472.37 104.59 478.29 116.98
  C 485.71 132.53 504.73 133.24 514.46 119.66
  A 0.46 0.45 38.1 0 1 515.13 119.58
  L 524.63 127.73
  A 1.05 1.04 -52.5 0 1 524.81 129.12
  C 507.40 154.32 466.79 145.91 462.31 114.74
  Z"
/>
<path fill="#f62c24" d="
  M 198.54 125.91
  C 208.30 130.25 223.39 134.40 233.61 128.86
  C 237.11 126.96 240.00 122.41 235.88 119.32
  C 231.18 115.80 217.65 114.21 210.25 112.75
  C 200.33 110.80 189.11 103.60 192.48 91.78
  C 195.36 81.66 206.93 76.93 216.75 76.25
  Q 231.67 75.22 245.52 80.67
  A 0.95 0.93 -67.8 0 1 246.03 81.92
  L 242.27 91.07
  A 1.45 1.41 -69.8 0 1 240.51 91.91
  C 232.02 89.13 215.49 84.86 208.05 91.18
  C 204.51 94.18 206.60 98.63 210.75 99.50
  Q 225.00 102.49 236.91 106.40
  Q 244.58 108.92 247.29 111.52
  C 254.40 118.34 252.17 131.52 244.81 137.31
  Q 240.70 140.55 234.48 141.92
  Q 212.31 146.82 192.05 136.93
  A 0.88 0.87 -62.1 0 1 191.68 135.70
  L 196.96 126.43
  A 1.25 1.24 -63.1 0 1 198.54 125.91
  Z"
/>
<path fill="#f62c24" d="
  M 284.58 121.24
  Q 285.11 123.42 285.74 121.27
  L 298.29 78.38
  Q 298.77 76.75 300.53 76.73
  L 308.37 76.65
  Q 310.46 76.63 311.02 78.53
  L 323.68 121.96
  Q 324.07 123.30 324.43 121.95
  L 336.04 78.61
  Q 336.54 76.75 338.47 76.75
  L 350.16 76.75
  A 0.65 0.65 8.0 0 1 350.79 77.58
  L 333.15 139.47
  Q 332.33 142.35 329.35 142.01
  Q 324.00 141.41 318.77 142.00
  Q 316.63 142.24 316.07 140.21
  L 305.28 101.37
  Q 304.79 99.60 304.29 101.35
  L 293.37 139.93
  Q 292.79 141.99 290.54 141.96
  L 278.05 141.78
  A 1.59 1.53 -7.1 0 1 276.56 140.67
  L 258.73 78.15
  A 1.10 1.10 -8.0 0 1 259.79 76.75
  C 263.20 76.75 266.50 76.84 269.77 76.61
  C 273.65 76.35 273.50 78.96 274.28 81.76
  Q 279.88 101.86 284.58 121.24
  Z"
/>
<path fill="#f62c24" d="
  M 582.94 116.31
  L 554.30 116.31
  A 0.50 0.49 -90.0 0 0 553.81 116.81
  L 553.75 141.19
  A 0.56 0.55 -90.0 0 1 553.20 141.75
  L 542.06 141.75
  Q 539.76 141.75 539.75 139.46
  L 539.50 79.23
  Q 539.49 76.51 542.43 76.56
  L 552.73 76.72
  A 1.03 0.96 0.8 0 1 553.75 77.70
  L 553.49 99.43
  Q 553.46 102.61 556.58 102.49
  C 564.23 102.19 572.49 101.81 580.25 102.42
  Q 583.77 102.70 583.58 99.03
  C 583.21 91.90 583.50 84.62 583.50 77.62
  A 0.87 0.86 90.0 0 1 584.36 76.75
  L 596.45 76.80
  A 0.51 0.49 90.0 0 1 596.94 77.31
  L 597.00 141.24
  A 0.51 0.51 0.0 0 1 596.49 141.75
  L 584.37 141.75
  A 0.88 0.87 90.0 0 1 583.50 140.87
  L 583.44 116.80
  A 0.50 0.49 0.0 0 0 582.94 116.31
  Z"
/>
<rect fill="#f62c24" x="366.75" y="76.75" width="14.50" height="65.02" rx="0.56"/>
<path fill="#f62c24" d="
  M 416.93 91.06
  L 397.44 90.83
  A 0.54 0.52 0.0 0 1 396.91 90.32
  L 396.77 77.74
  A 1.01 0.98 -0.3 0 1 397.78 76.75
  L 451.09 76.75
  A 0.66 0.66 0.2 0 1 451.75 77.41
  L 451.75 89.85
  A 0.89 0.87 -90.0 0 1 450.88 90.74
  L 432.58 90.57
  A 0.65 0.63 0.0 0 0 431.93 91.20
  L 432.00 141.01
  A 0.74 0.74 0.0 0 1 431.26 141.75
  L 418.17 141.75
  A 0.67 0.67 0.2 0 1 417.50 141.08
  L 417.44 91.56
  A 0.52 0.50 0.6 0 0 416.93 91.06
  Z"
/>
<path fill="#f62c24" d="
  M 582.19 148.52
  Q 579.44 148.19 581.00 146.25
  Q 581.86 145.18 585.75 146.00
  Q 587.71 146.41 586.75 147.80
  A 1.05 0.75 12.0 0 1 585.95 148.15
  C 584.27 148.18 584.74 152.71 584.24 154.10
  A 0.65 0.56 -73.7 0 1 583.56 154.54
  C 582.41 154.26 582.56 150.44 582.65 149.06
  A 0.52 0.51 5.3 0 0 582.19 148.52
  Z"
/>
<path fill="#f62c24" d="
  M 595.17 150.73
  C 594.74 151.49 593.77 154.96 592.50 154.43
  A 1.25 0.87 85.7 0 1 591.92 153.72
  Q 591.48 152.42 590.90 151.73
  Q 590.03 150.69 590.02 152.04
  Q 589.98 154.77 589.03 154.64
  A 0.74 0.57 -87.0 0 1 588.54 153.93
  L 588.56 146.89
  Q 588.56 145.08 589.81 146.43
  C 590.47 147.15 592.54 150.90 593.05 150.73
  A 0.88 0.63 87.3 0 0 593.52 150.00
  Q 593.69 147.96 595.33 146.29
  Q 596.55 145.05 596.99 146.73
  Q 598.02 150.71 596.97 153.65
  C 596.79 154.16 596.08 155.04 595.66 154.22
  A 1.44 0.68 -65.5 0 1 595.65 153.28
  Q 595.98 152.02 595.61 150.78
  Q 595.44 150.25 595.17 150.73
  Z"
/>
</svg>
