<?xml version="1.0" encoding="UTF-8" standalone="no"?>
<!DOCTYPE svg PUBLIC "-//W3C//DTD SVG 1.1//EN" "http://www.w3.org/Graphics/SVG/1.1/DTD/svg11.dtd">
<svg xmlns="http://www.w3.org/2000/svg" version="1.1" viewBox="0 0 600 300">
<g stroke-width="2.00" fill="none" stroke-linecap="butt">
<path stroke="#8097c5" vector-effect="non-scaling-stroke" d="
  M 509.52 78.66
  Q 508.45 82.01 511.81 82.40
  A 0.60 0.56 2.5 0 1 512.34 82.94
  C 512.39 83.72 511.84 94.98 514.15 92.87
  A 1.40 0.90 78.7 0 0 514.49 92.00
  L 514.80 83.44
  A 1.57 1.48 -0.5 0 1 516.29 82.01
  Q 519.11 81.87 518.32 78.49
  A 0.74 0.73 -2.2 0 0 517.70 77.92
  Q 513.37 77.31 510.17 78.06
  A 0.91 0.88 1.5 0 0 509.52 78.66"
/>
<path stroke="#8097c5" vector-effect="non-scaling-stroke" d="
  M 466.03 81.41
  A 1.94 1.91 -85.3 0 1 467.53 80.12
  Q 470.52 79.61 470.37 78.51
  A 0.82 0.57 3.0 0 0 469.69 77.98
  Q 466.29 77.43 462.43 78.01
  A 1.03 1.02 87.2 0 0 461.57 78.96
  C 461.44 81.09 462.49 84.79 459.74 85.22
  A 1.97 1.60 -5.6 0 0 458.06 86.88
  L 458.14 92.35
  A 1.72 1.45 -1.5 0 0 459.90 93.76
  L 469.43 93.44
  A 1.30 0.81 10.5 0 0 470.30 93.10
  C 471.01 92.26 470.28 91.78 469.45 91.69
  Q 464.56 91.13 462.75 91.50
  Q 459.76 92.10 460.47 87.98
  A 1.20 1.17 4.3 0 1 461.64 87.00
  L 469.19 86.95
  A 1.10 1.02 18.2 0 0 470.02 86.57
  C 471.45 84.80 468.46 85.15 467.48 84.76
  Q 465.22 83.86 466.03 81.41"
/>
<path stroke="#8097c5" vector-effect="non-scaling-stroke" d="
  M 473.39 78.68
  Q 472.78 85.61 473.39 92.56
  A 0.71 0.68 -86.7 0 0 473.92 93.18
  Q 477.33 93.98 480.71 93.07
  A 1.02 0.96 2.5 0 0 481.39 92.48
  Q 482.16 90.50 480.66 89.29
  A 1.20 0.96 -26.7 0 0 479.76 89.10
  C 471.29 90.59 477.59 80.95 474.68 77.99
  Q 474.24 77.54 473.79 77.84
  A 1.25 0.75 84.5 0 0 473.39 78.68"
/>
<path stroke="#8097c5" vector-effect="non-scaling-stroke" d="
  M 491.52 83.88
  Q 490.07 79.93 494.40 79.70
  C 496.39 79.59 496.16 77.85 494.31 77.79
  Q 491.71 77.71 488.60 77.76
  A 1.23 1.22 -81.4 0 0 487.45 78.61
  C 486.60 81.24 487.77 84.80 484.88 85.08
  Q 483.09 85.26 483.21 87.21
  L 483.50 92.07
  A 1.53 1.43 88.1 0 0 484.93 93.50
  Q 489.69 93.50 494.17 93.50
  C 496.50 93.50 496.11 91.61 494.04 91.54
  C 491.68 91.46 483.59 92.98 485.58 87.96
  A 1.80 1.56 8.2 0 1 487.14 86.96
  L 494.94 86.75
  A 0.71 0.66 5.1 0 0 495.61 86.23
  Q 495.89 84.94 493.23 85.04
  A 1.77 1.76 79.0 0 1 491.52 83.88"
/>
<path stroke="#8097c5" vector-effect="non-scaling-stroke" d="
  M 500.69 90.71
  Q 499.76 86.86 500.30 84.12
  Q 500.78 81.73 503.17 82.15
  Q 508.87 83.14 507.64 78.47
  A 0.72 0.65 82.3 0 0 507.01 77.94
  L 499.59 77.83
  A 1.20 1.12 -87.0 0 0 498.46 78.92
  Q 497.91 85.13 498.57 92.58
  A 0.73 0.70 87.3 0 0 499.27 93.24
  L 507.19 93.21
  A 0.59 0.56 2.1 0 0 507.78 92.69
  C 507.92 91.09 501.98 91.33 501.30 91.25
  A 0.72 0.70 85.8 0 1 500.69 90.71"
/>
<path stroke="#8097c5" vector-effect="non-scaling-stroke" d="
  M 526.32 87.01
  Q 527.73 86.59 529.95 87.17
  A 0.79 0.76 -86.8 0 1 530.51 87.82
  C 530.65 88.75 530.62 93.56 531.96 93.33
  A 0.94 0.78 -83.0 0 0 532.61 92.72
  Q 534.21 87.99 531.31 84.14
  A 1.96 1.55 -72.6 0 1 530.97 83.25
  L 530.40 78.43
  A 0.61 0.58 86.7 0 0 529.82 77.89
  L 521.19 77.89
  A 0.62 0.57 -86.0 0 0 520.62 78.43
  Q 519.76 85.37 520.62 92.31
  A 0.86 0.79 -85.3 0 0 521.15 92.99
  Q 525.55 94.59 524.93 89.12
  A 1.98 1.96 -11.8 0 1 526.32 87.01"
/>
<path stroke="#8097c5" vector-effect="non-scaling-stroke" d="
  M 546.4961 78.9993
  A 1.22 1.22 0.0 0 0 545.2847 77.7708
  L 536.5249 77.7096
  A 1.22 1.22 0.0 0 0 535.2964 78.9211
  L 535.2039 92.1807
  A 1.22 1.22 0.0 0 0 536.4153 93.4092
  L 545.1751 93.4704
  A 1.22 1.22 0.0 0 0 546.4036 92.2589
  L 546.4961 78.9993"
/>
<path stroke="#8097c5" vector-effect="non-scaling-stroke" d="
  M 552.06 82.53
  L 557.07 82.63
  A 0.83 0.72 78.6 0 1 557.76 83.16
  C 559.02 86.36 557.46 89.47 558.41 92.71
  A 0.64 0.58 76.8 0 0 559.07 93.17
  Q 560.25 92.97 560.25 91.25
  Q 560.25 85.25 560.25 79.58
  A 1.79 1.71 89.5 0 0 558.51 77.79
  L 549.95 77.90
  A 0.54 0.53 -0.5 0 0 549.41 78.44
  L 549.46 92.50
  A 0.87 0.78 -80.2 0 0 549.94 93.26
  C 551.81 94.01 551.38 84.31 551.51 83.06
  A 0.58 0.54 -86.6 0 1 552.06 82.53"
/>
<path stroke="#8097c5" vector-effect="non-scaling-stroke" d="
  M 563.71 88.83
  Q 560.90 89.79 561.99 92.60
  A 0.87 0.59 74.7 0 0 562.67 93.18
  L 567.85 92.89
  A 0.89 0.78 85.9 0 0 568.57 91.94
  Q 568.40 89.68 567.94 89.36
  Q 566.58 88.43 566.66 86.79
  C 566.73 85.42 567.58 75.90 564.86 78.16
  A 1.26 0.83 78.5 0 0 564.52 79.00
  L 564.24 88.20
  A 0.80 0.66 -10.5 0 1 563.71 88.83"
/>
<path stroke="#8097c5" vector-effect="non-scaling-stroke" d="
  M 571.15 78.63
  Q 569.83 85.49 570.86 92.57
  A 0.70 0.70 1.2 0 0 571.43 93.16
  C 571.75 93.22 581.46 94.78 579.32 91.88
  A 1.21 0.55 -2.3 0 0 578.50 91.55
  L 573.79 91.08
  A 0.86 0.65 82.0 0 1 573.17 90.46
  Q 572.12 86.87 573.16 83.29
  A 0.78 0.72 -83.4 0 1 573.81 82.73
  L 578.89 82.25
  A 1.53 1.35 3.0 0 0 580.21 81.21
  Q 581.04 77.74 579.00 77.74
  Q 576.00 77.75 572.21 77.75
  A 1.09 1.08 -84.5 0 0 571.15 78.63"
/>
<path stroke="#8097c5" vector-effect="non-scaling-stroke" d="
  M 587.94 91.29
  C 586.04 91.67 580.95 90.65 581.32 92.83
  A 0.69 0.63 -1.4 0 0 581.93 93.36
  Q 587.20 93.85 592.45 93.25
  A 0.75 0.74 4.0 0 0 593.08 92.71
  Q 593.93 89.72 593.24 86.31
  A 1.74 1.74 80.8 0 0 591.33 84.93
  Q 588.12 85.32 585.54 84.59
  A 0.92 0.92 2.4 0 1 584.91 83.96
  Q 583.54 79.15 589.76 80.17
  A 1.73 1.73 -82.9 0 0 591.76 78.61
  C 591.87 77.25 584.43 77.75 583.45 77.75
  A 0.69 0.63 0.9 0 0 582.76 78.36
  L 582.58 85.76
  A 1.00 0.90 3.7 0 0 583.49 86.69
  L 587.81 87.12
  A 0.82 0.80 -6.7 0 1 588.50 87.65
  Q 589.04 89.15 588.60 90.71
  A 0.87 0.81 1.8 0 1 587.94 91.29"
/>
<path stroke="#8097c5" vector-effect="non-scaling-stroke" d="
  M 431.44 78.95
  C 430.97 81.27 432.46 85.00 429.23 85.25
  A 1.86 1.55 -4.7 0 0 427.50 86.95
  L 427.96 92.73
  A 1.13 1.05 -2.2 0 0 429.08 93.69
  L 438.93 93.70
  A 0.97 0.91 15.3 0 0 439.73 93.28
  Q 440.71 91.72 438.25 91.94
  Q 434.48 92.28 430.80 91.54
  A 0.99 0.95 -5.6 0 1 430.10 90.99
  C 427.71 85.61 436.23 87.40 439.19 87.01
  A 0.83 0.65 -0.1 0 0 439.86 86.48
  Q 440.17 85.19 437.65 85.28
  A 1.80 1.78 83.3 0 1 435.84 83.84
  C 434.90 79.07 441.36 80.45 439.85 78.61
  A 1.43 1.09 -9.7 0 0 439.01 78.17
  Q 435.83 77.72 432.03 78.37
  A 0.73 0.72 -0.1 0 0 431.44 78.95"
/>
<path stroke="#8097c5" vector-effect="non-scaling-stroke" d="
  M 445.22 88.44
  C 445.06 87.61 445.15 75.96 443.04 78.60
  A 1.67 1.25 72.0 0 0 442.73 79.51
  C 442.60 83.45 442.81 87.32 442.62 91.25
  C 442.45 94.95 448.41 93.97 450.69 93.54
  A 0.91 0.85 2.9 0 0 451.37 92.97
  Q 451.93 91.30 451.17 89.74
  A 0.92 0.68 -7.0 0 0 450.44 89.33
  L 445.81 89.02
  A 0.71 0.62 85.7 0 1 445.22 88.44"
/>
<path stroke="#8097c5" vector-effect="non-scaling-stroke" d="
  M 392.64 87.82
  Q 392.42 84.86 392.50 79.73
  A 1.46 1.46 -19.7 0 0 391.02 78.25
  C 387.27 78.30 386.62 83.00 385.39 85.73
  A 1.38 0.84 -79.3 0 1 384.76 86.43
  C 383.80 86.81 383.24 80.22 383.04 79.29
  A 0.87 0.87 -86.5 0 0 382.47 78.64
  Q 379.53 77.63 376.66 78.74
  A 0.81 0.78 81.6 0 0 376.16 79.44
  C 376.12 80.30 374.79 96.04 377.85 93.30
  A 1.28 1.01 74.1 0 0 378.20 92.44
  C 378.30 89.11 376.86 81.21 380.98 82.86
  A 1.02 0.63 87.5 0 1 381.45 83.55
  L 382.50 88.36
  A 1.19 0.81 13.5 0 0 383.13 89.05
  C 386.98 90.93 388.17 84.85 389.28 82.48
  C 390.85 79.16 390.54 90.74 390.55 90.85
  C 390.58 93.33 392.03 94.75 394.39 93.34
  A 1.85 0.98 -78.2 0 0 395.00 92.61
  L 397.19 88.11
  A 1.11 0.95 4.4 0 1 397.93 87.57
  Q 400.01 87.15 401.97 87.87
  A 0.83 0.71 -83.9 0 1 402.44 88.56
  L 402.74 92.45
  A 1.05 1.00 14.8 0 0 403.22 93.23
  Q 405.00 94.40 406.78 93.24
  A 0.98 0.96 -17.3 0 0 407.21 92.44
  L 407.09 79.18
  A 0.64 0.61 5.3 0 0 406.57 78.59
  Q 402.60 77.82 398.67 78.81
  A 0.99 0.94 3.1 0 0 397.99 79.39
  L 394.56 88.08
  Q 392.96 92.13 392.64 87.82"
/>
<path stroke="#8097c5" vector-effect="non-scaling-stroke" d="
  M 421.47 83.32
  L 421.98 92.25
  A 1.43 1.02 -76.3 0 0 422.33 93.12
  C 424.67 95.42 424.17 84.44 424.26 83.56
  A 0.78 0.65 88.6 0 1 424.78 82.90
  L 426.69 82.48
  A 1.66 0.63 -2.8 0 0 427.56 82.10
  Q 429.14 80.51 427.75 78.69
  A 1.06 0.94 -15.5 0 0 426.95 78.30
  C 421.73 78.24 416.41 78.47 411.21 78.20
  C 407.94 78.03 407.90 82.86 411.10 82.46
  A 1.51 1.51 -6.2 0 1 412.80 83.82
  C 412.87 84.53 412.30 95.39 414.67 93.11
  A 1.35 1.02 74.6 0 0 415.01 92.26
  L 415.29 83.57
  A 0.72 0.71 82.2 0 1 415.79 82.90
  Q 418.32 82.11 420.95 82.69
  A 0.69 0.67 -85.6 0 1 421.47 83.32"
/>
<path stroke="#8097c5" vector-effect="non-scaling-stroke" d="
  M 30.93 84.99
  A 0.26 0.26 0.0 0 0 30.67 84.73
  L 6.51 84.73
  A 0.26 0.26 0.0 0 0 6.25 84.99
  L 6.25 163.25
  A 0.26 0.26 0.0 0 0 6.51 163.51
  L 30.67 163.51
  A 0.26 0.26 0.0 0 0 30.93 163.25
  L 30.93 84.99"
/>
<path stroke="#8097c5" vector-effect="non-scaling-stroke" d="
  M 128.55 151.93
  Q 128.03 134.19 128.24 116.44
  C 128.27 113.92 127.59 111.21 131.26 111.42
  C 133.81 111.56 136.41 111.50 139.27 111.50
  A 0.60 0.59 3.9 0 0 139.86 110.99
  Q 140.61 105.75 139.93 101.01
  A 0.60 0.59 -3.9 0 0 139.34 100.50
  L 128.81 100.50
  A 0.56 0.56 0.0 0 1 128.25 99.94
  L 128.25 85.11
  A 0.32 0.31 75.3 0 0 127.78 84.83
  Q 115.06 92.06 102.37 99.42
  Q 101.11 100.15 99.02 100.57
  A 0.64 0.63 -5.5 0 0 98.50 101.19
  L 98.55 110.93
  A 0.53 0.53 0.0 0 0 99.07 111.45
  L 105.85 111.55
  Q 108.50 111.59 108.50 114.24
  Q 108.50 133.60 108.50 152.95
  Q 108.50 156.73 108.55 157.04
  C 110.05 166.17 133.17 163.56 139.57 163.33
  A 0.59 0.59 -87.1 0 0 140.13 162.82
  Q 140.73 158.05 140.01 153.30
  A 0.61 0.60 87.1 0 0 139.44 152.77
  L 129.06 152.43
  A 0.52 0.51 0.0 0 1 128.55 151.93"
/>
<path stroke="#4f70ad" vector-effect="non-scaling-stroke" d="
  M 318.71 105.75
  Q 318.78 103.87 317.54 102.50"
/>
<path stroke="#8097c5" vector-effect="non-scaling-stroke" d="
  M 317.54 102.50
  Q 317.55 101.58 317.06 100.88
  A 1.03 0.85 -14.1 0 0 316.26 100.50
  L 276.02 100.50
  A 0.52 0.52 90.0 0 0 275.50 101.02
  L 275.50 112.69
  A 0.56 0.56 0.0 0 0 276.06 113.25
  L 294.97 113.25
  A 0.54 0.53 -0.5 0 0 295.51 112.71
  Q 295.43 107.00 295.72 102.01
  Q 295.79 100.78 296.14 101.79
  Q 305.22 128.24 314.69 154.56
  Q 317.63 162.72 326.00 163.50
  C 334.94 164.34 338.73 158.47 341.26 150.96
  Q 352.31 118.14 363.74 85.28
  A 0.40 0.39 -80.1 0 0 363.37 84.75
  L 353.35 84.75
  A 0.71 0.70 9.1 0 0 352.68 85.23
  L 333.25 142.76
  Q 332.47 145.06 331.67 142.77
  L 318.71 105.75"
/>
<path stroke="#ced9e7" vector-effect="non-scaling-stroke" d="
  M 317.54 102.50
  Q 317.54 104.37 318.71 105.75"
/>
<path stroke="#2b4f97" vector-effect="non-scaling-stroke" d="
  M 82.79 125.50
  Q 81.94 127.95 82.95 130.56"
/>
<path stroke="#8097c5" vector-effect="non-scaling-stroke" d="
  M 82.95 130.56
  Q 82.79 130.94 82.54 131.09
  A 0.75 0.49 52.8 0 1 81.75 130.81
  Q 72.98 120.15 64.57 109.21
  Q 61.86 105.68 58.68 102.55
  Q 56.70 100.61 53.93 100.49
  Q 42.85 100.00 40.41 108.29
  Q 39.75 110.53 39.76 121.76
  Q 39.77 142.29 39.69 163.15
  A 0.56 0.53 -0.0 0 0 40.26 163.69
  L 51.99 163.57
  A 0.51 0.49 0.0 0 0 52.50 163.08
  L 52.50 133.95
  Q 52.50 131.89 53.78 133.50
  Q 62.87 144.86 72.16 156.59
  Q 75.94 161.36 78.19 162.51
  C 83.38 165.15 90.90 162.97 93.93 157.87
  Q 95.25 155.65 95.25 151.35
  Q 95.26 126.33 95.43 101.31
  A 0.56 0.55 4.0 0 0 94.94 100.75
  Q 89.12 100.09 83.30 100.75
  A 0.57 0.57 86.6 0 0 82.80 101.32
  L 82.79 125.50"
/>
<path stroke="#abb8d1" vector-effect="non-scaling-stroke" d="
  M 82.95 130.56
  Q 83.38 127.98 82.79 125.50"
/>
<path stroke="#8097c5" vector-effect="non-scaling-stroke" d="
  M 165.54 125.95
  L 165.72 112.91
  A 1.51 1.43 0.4 0 1 167.23 111.50
  L 192.31 111.50
  A 0.94 0.91 -0.3 0 0 193.25 110.58
  L 193.09 101.19
  A 0.53 0.52 0.0 0 0 192.57 100.68
  Q 179.65 100.45 157.00 100.50
  Q 150.37 100.51 146.56 105.19
  C 144.26 108.01 145.50 113.69 145.50 116.36
  Q 145.50 131.28 145.50 146.21
  C 145.50 153.09 143.19 158.87 151.09 162.48
  Q 152.89 163.30 155.92 163.36
  Q 174.30 163.67 192.68 163.44
  A 0.52 0.50 0.0 0 0 193.20 162.94
  L 193.20 153.31
  A 0.51 0.50 0.6 0 0 192.70 152.81
  L 167.81 152.53
  Q 165.50 152.50 165.51 150.18
  L 165.55 138.31
  A 0.59 0.58 85.4 0 1 166.04 137.73
  Q 168.75 137.30 171.50 137.45
  Q 182.13 138.04 192.24 137.53
  A 1.05 0.99 -2.4 0 0 193.23 136.52
  L 193.00 127.04
  A 0.59 0.55 -0.5 0 0 192.41 126.50
  L 166.05 126.44
  A 0.51 0.49 -0.0 0 1 165.54 125.95"
/>
<path stroke="#8097c5" vector-effect="non-scaling-stroke" d="
  M 222.48 152.46
  A 1.52 1.50 -89.6 0 1 221.00 150.94
  L 220.94 101.06
  A 0.50 0.50 0.0 0 0 220.44 100.56
  L 201.78 100.50
  A 0.77 0.77 0.0 0 0 201.01 101.27
  Q 200.82 128.50 201.21 154.60
  C 201.39 166.73 221.61 163.55 232.19 163.44
  A 0.52 0.51 0.0 0 0 232.71 162.93
  L 232.71 153.06
  A 0.53 0.50 0.6 0 0 232.19 152.56
  L 222.48 152.46"
/>
<path stroke="#8097c5" vector-effect="non-scaling-stroke" d="
  M 270.07 161.01
  Q 270.55 157.56 269.82 153.18
  A 0.57 0.57 -6.1 0 0 269.22 152.70
  Q 263.49 153.00 259.62 152.33
  A 1.66 1.65 5.0 0 1 258.25 150.70
  L 258.25 101.25
  A 0.69 0.68 90.0 0 0 257.57 100.56
  L 238.99 100.50
  A 0.68 0.68 0.0 0 0 238.31 101.18
  Q 238.33 128.17 238.55 155.26
  C 238.59 160.40 243.41 163.26 248.00 163.50
  Q 254.20 163.82 267.92 163.51
  C 269.03 163.49 270.95 164.03 270.19 161.96
  Q 270.01 161.46 270.07 161.01"
/>
<path stroke="#8097c5" vector-effect="non-scaling-stroke" d="
  M 379.2604 100.9373
  A 0.42 0.42 0.0 0 0 378.8411 100.5165
  L 359.9211 100.4835
  A 0.42 0.42 0.0 0 0 359.5004 100.9028
  L 359.4796 112.8027
  A 0.42 0.42 0.0 0 0 359.8989 113.2235
  L 378.8189 113.2565
  A 0.42 0.42 0.0 0 0 379.2396 112.8372
  L 379.2604 100.9373"
/>
<path stroke="#8097c5" vector-effect="non-scaling-stroke" d="
  M 412.47 152.09
  C 406.06 153.93 394.90 152.80 388.06 152.58
  A 0.49 0.48 -88.9 0 0 387.56 153.07
  L 387.43 162.98
  A 0.51 0.51 90.0 0 0 387.94 163.49
  Q 403.62 163.61 418.46 163.52
  C 430.12 163.45 436.54 152.38 434.45 141.89
  C 433.45 136.89 430.12 132.90 426.09 129.90
  Q 418.23 124.03 410.51 117.97
  Q 407.42 115.54 409.63 112.28
  A 1.76 1.75 16.8 0 1 411.09 111.50
  L 434.50 111.50
  A 0.50 0.50 0.0 0 0 435.00 111.00
  L 435.00 101.00
  A 0.50 0.50 0.0 0 0 434.50 100.50
  Q 418.50 100.50 402.50 100.54
  C 393.69 100.57 388.16 109.25 387.53 117.25
  Q 386.69 127.82 395.00 134.00
  C 397.95 136.19 403.81 140.64 410.56 144.55
  Q 414.48 146.81 413.09 151.45
  A 0.94 0.90 -89.6 0 1 412.47 152.09"
/>
<path stroke="#8097c5" vector-effect="non-scaling-stroke" d="
  M 462.75 100.87
  A 0.36 0.36 0.0 0 0 462.39 100.51
  L 443.21 100.51
  A 0.36 0.36 0.0 0 0 442.85 100.87
  L 442.85 112.89
  A 0.36 0.36 0.0 0 0 443.21 113.25
  L 462.39 113.25
  A 0.36 0.36 0.0 0 0 462.75 112.89
  L 462.75 100.87"
/>
<path stroke="#8097c5" vector-effect="non-scaling-stroke" d="
  M 531.71 132.07
  A 31.64 31.64 0.0 0 0 500.07 100.43
  A 31.64 31.64 0.0 0 0 468.43 132.07
  A 31.64 31.64 0.0 0 0 500.07 163.71
  A 31.64 31.64 0.0 0 0 531.71 132.07"
/>
<path stroke="#8097c5" vector-effect="non-scaling-stroke" d="
  M 578.83 130.70
  C 571.92 121.79 564.62 113.16 557.80 104.21
  C 551.55 96.02 537.31 101.44 537.30 111.75
  Q 537.25 137.25 537.25 162.98
  A 0.75 0.70 0.0 0 0 538.00 163.68
  L 549.48 163.59
  A 0.52 0.48 -1.1 0 0 549.99 163.10
  L 549.82 133.57
  A 0.87 0.56 84.7 0 1 550.23 132.79
  C 550.88 132.58 563.10 148.40 568.44 155.21
  Q 573.07 161.10 575.45 162.39
  C 582.21 166.03 592.75 161.40 592.75 153.00
  Q 592.75 127.38 592.75 101.18
  A 0.66 0.63 89.6 0 0 592.11 100.52
  L 580.95 100.66
  A 0.53 0.52 90.0 0 0 580.43 101.19
  L 580.24 130.21
  Q 580.23 132.51 578.83 130.70"
/>
<path stroke="#4f70ad" vector-effect="non-scaling-stroke" d="
  M 275.46 150.50
  Q 274.92 156.38 275.54 162.25"
/>
<path stroke="#8097c5" vector-effect="non-scaling-stroke" d="
  M 275.54 162.25
  L 275.50 163.20
  A 0.56 0.45 0.4 0 0 276.07 163.67
  L 294.94 163.51
  A 0.56 0.54 0.0 0 0 295.50 162.97
  L 295.50 121.13
  A 0.88 0.88 0.0 0 0 294.62 120.25
  L 276.05 120.31
  A 0.51 0.50 -89.4 0 0 275.55 120.81
  L 275.46 150.50"
/>
<path stroke="#ced9e7" vector-effect="non-scaling-stroke" d="
  M 275.54 162.25
  Q 276.68 156.38 275.46 150.50"
/>
<path stroke="#8097c5" vector-effect="non-scaling-stroke" d="
  M 379.31 120.51
  A 0.26 0.26 0.0 0 0 379.05 120.25
  L 359.75 120.25
  A 0.26 0.26 0.0 0 0 359.49 120.51
  L 359.49 163.27
  A 0.26 0.26 0.0 0 0 359.75 163.53
  L 379.05 163.53
  A 0.26 0.26 0.0 0 0 379.31 163.27
  L 379.31 120.51"
/>
<path stroke="#8097c5" vector-effect="non-scaling-stroke" d="
  M 462.7873 120.5473
  A 0.27 0.27 0.0 0 0 462.5178 120.2768
  L 443.2778 120.2432
  A 0.27 0.27 0.0 0 0 443.0073 120.5128
  L 442.9327 163.2727
  A 0.27 0.27 0.0 0 0 443.2022 163.5432
  L 462.4422 163.5768
  A 0.27 0.27 0.0 0 0 462.7127 163.3072
  L 462.7873 120.5473"
/>
<path stroke="#8097c5" vector-effect="non-scaling-stroke" d="
  M 183.49 168.92
  A 0.42 0.42 0.0 0 0 183.07 168.50
  L 179.93 168.50
  A 0.42 0.42 0.0 0 0 179.51 168.92
  L 179.51 209.64
  A 0.42 0.42 0.0 0 0 179.93 210.06
  L 183.07 210.06
  A 0.42 0.42 0.0 0 0 183.49 209.64
  L 183.49 168.92"
/>
<path stroke="#8097c5" vector-effect="non-scaling-stroke" d="
  M 261.00 169.08
  A 0.56 0.56 0.0 0 0 260.44 168.52
  L 258.06 168.52
  A 0.56 0.56 0.0 0 0 257.50 169.08
  L 257.50 209.56
  A 0.56 0.56 0.0 0 0 258.06 210.12
  L 260.44 210.12
  A 0.56 0.56 0.0 0 0 261.00 209.56
  L 261.00 169.08"
/>
<path stroke="#8097c5" vector-effect="non-scaling-stroke" d="
  M 268.51 168.82
  A 0.27 0.27 0.0 0 0 268.24 168.55
  L 265.50 168.55
  A 0.27 0.27 0.0 0 0 265.23 168.82
  L 265.23 209.70
  A 0.27 0.27 0.0 0 0 265.50 209.97
  L 268.24 209.97
  A 0.27 0.27 0.0 0 0 268.51 209.70
  L 268.51 168.82"
/>
<path stroke="#8097c5" vector-effect="non-scaling-stroke" d="
  M 276.0803 168.9618
  A 0.43 0.43 0.0 0 0 275.6556 168.5266
  L 272.9758 168.4938
  A 0.43 0.43 0.0 0 0 272.5406 168.9186
  L 272.4797 173.8982
  A 0.43 0.43 0.0 0 0 272.9044 174.3334
  L 275.5842 174.3662
  A 0.43 0.43 0.0 0 0 276.0194 173.9414
  L 276.0803 168.9618"
/>
<path stroke="#8097c5" vector-effect="non-scaling-stroke" d="
  M 401.94 172.31
  L 402.06 209.44
  A 0.53 0.50 90.0 0 0 402.56 209.97
  L 405.14 209.99
  A 0.63 0.61 90.0 0 0 405.75 209.36
  L 405.75 172.34
  A 0.59 0.57 -89.5 0 1 406.33 171.75
  L 419.43 171.91
  A 0.83 0.70 10.6 0 0 420.17 171.49
  Q 420.70 170.28 420.35 169.03
  A 0.70 0.64 -7.1 0 0 419.69 168.56
  L 388.32 168.50
  A 0.69 0.69 -83.7 0 0 387.65 169.04
  Q 386.99 172.10 388.74 171.87
  C 392.68 171.35 397.42 171.74 401.44 171.80
  A 0.51 0.51 0.6 0 1 401.94 172.31"
/>
<path stroke="#8097c5" vector-effect="non-scaling-stroke" d="
  M 444.50 168.99
  A 0.46 0.46 0.0 0 0 444.04 168.53
  L 441.70 168.53
  A 0.46 0.46 0.0 0 0 441.24 168.99
  L 441.24 209.63
  A 0.46 0.46 0.0 0 0 441.70 210.09
  L 444.04 210.09
  A 0.46 0.46 0.0 0 0 444.50 209.63
  L 444.50 168.99"
/>
<path stroke="#8097c5" vector-effect="non-scaling-stroke" d="
  M 502.9836 169.0378
  A 0.51 0.51 0.0 0 0 502.4700 168.5314
  L 499.9901 168.5487
  A 0.51 0.51 0.0 0 0 499.4836 169.0623
  L 499.5164 173.7622
  A 0.51 0.51 0.0 0 0 500.0300 174.2686
  L 502.5099 174.2513
  A 0.51 0.51 0.0 0 0 503.0164 173.7377
  L 502.9836 169.0378"
/>
<path stroke="#8097c5" vector-effect="non-scaling-stroke" d="
  M 535.3745 168.7685
  A 0.27 0.27 0.0 0 0 535.0998 168.5032
  L 531.9803 168.5577
  A 0.27 0.27 0.0 0 0 531.7151 168.8323
  L 531.8055 174.0115
  A 0.27 0.27 0.0 0 0 532.0802 174.2768
  L 535.1997 174.2223
  A 0.27 0.27 0.0 0 0 535.4649 173.9477
  L 535.3745 168.7685"
/>
<path stroke="#2b4f97" vector-effect="non-scaling-stroke" d="
  M 370.24 206.01
  L 370.65 183.27"
/>
<path stroke="#8097c5" vector-effect="non-scaling-stroke" d="
  M 370.65 183.27
  L 373.50 183.21"
/>
<path stroke="#4f70ad" vector-effect="non-scaling-stroke" d="
  M 373.50 183.21
  Q 376.43 184.11 376.00 181.96"
/>
<path stroke="#8097c5" vector-effect="non-scaling-stroke" d="
  M 376.00 181.96
  C 376.67 178.14 368.92 182.20 370.04 178.50"
/>
<path stroke="#2b4f97" vector-effect="non-scaling-stroke" d="
  M 370.04 178.50
  Q 371.40 174.80 369.75 171.29"
/>
<path stroke="#8097c5" vector-effect="non-scaling-stroke" d="
  M 369.75 171.29
  Q 368.37 170.76 367.03 171.15
  A 0.69 0.67 82.2 0 0 366.55 171.81
  L 366.51 179.16
  A 1.21 1.20 -85.2 0 1 365.11 180.36
  Q 360.41 179.54 361.62 182.73
  A 0.83 0.68 -6.5 0 0 362.32 183.18
  L 365.82 183.38
  A 0.59 0.54 -89.5 0 1 366.33 183.94
  Q 366.84 199.14 366.50 202.50
  C 365.49 212.39 376.90 211.20 376.46 208.56
  A 1.55 1.53 -10.6 0 0 374.62 207.31
  Q 371.52 207.97 370.24 206.01"
/>
<path stroke="#abb8d1" vector-effect="non-scaling-stroke" d="
  M 369.75 171.29
  L 370.04 178.50"
/>
<path stroke="#ced9e7" vector-effect="non-scaling-stroke" d="
  M 376.00 181.96
  Q 375.16 183.28 373.50 183.21"
/>
<path stroke="#abb8d1" vector-effect="non-scaling-stroke" d="
  M 370.65 183.27
  Q 370.41 183.10 370.09 183.38
  A 1.20 0.88 75.1 0 0 369.75 184.25
  L 370.24 206.01"
/>
<path stroke="#8097c5" vector-effect="non-scaling-stroke" d="
  M 217.95 180.21
  L 214.24 180.26
  A 0.72 0.67 7.9 0 0 213.58 180.72
  Q 212.57 183.97 216.95 183.11
  A 1.28 1.28 85.3 0 1 218.48 184.41
  Q 218.18 195.39 218.96 206.48
  Q 219.10 208.45 220.89 209.29
  Q 224.10 210.80 227.51 210.11
  A 0.90 0.85 3.1 0 0 228.18 209.54
  Q 229.01 207.07 226.25 207.51
  C 221.70 208.25 222.24 205.35 222.27 201.93
  Q 222.36 192.85 222.10 184.86
  Q 222.03 182.67 224.19 183.06
  Q 228.68 183.87 228.29 181.05
  A 0.72 0.62 85.9 0 0 227.69 180.44
  L 223.61 180.32
  A 1.55 1.46 1.6 0 1 222.11 178.83
  L 222.22 171.81
  A 0.56 0.50 89.1 0 0 221.69 171.24
  L 219.22 171.38
  A 0.66 0.53 89.8 0 0 218.72 172.01
  L 218.44 179.69
  A 0.54 0.50 -89.3 0 1 217.95 180.21"
/>
<path stroke="#8097c5" vector-effect="non-scaling-stroke" d="
  M 251.98 201.12
  C 247.88 212.65 232.36 208.88 232.67 196.69
  A 0.53 0.53 -89.4 0 1 233.20 196.17
  L 254.53 196.01
  A 1.01 1.00 1.8 0 0 255.54 195.07
  C 255.85 190.31 253.77 184.74 249.99 181.83
  C 243.95 177.18 234.46 179.24 231.06 186.06
  C 225.77 196.68 230.19 212.66 245.00 210.50
  Q 252.98 209.33 255.11 201.09
  A 0.53 0.52 14.9 0 0 254.74 200.46
  Q 252.44 199.81 251.98 201.12"
/>
<path stroke="#8097c5" vector-effect="non-scaling-stroke" d="
  M 301.69 204.71
  Q 302.00 205.62 301.94 206.60
  C 301.59 212.45 301.39 216.98 295.00 218.75
  Q 288.69 220.50 284.40 215.64
  C 283.20 214.28 283.66 212.82 280.96 213.02
  A 1.15 1.15 -14.6 0 0 280.00 214.65
  C 285.21 226.01 304.75 223.93 305.25 210.25
  Q 305.68 198.48 305.51 183.02
  C 305.48 180.75 305.85 179.71 302.64 180.38
  A 1.02 1.02 -9.6 0 0 301.83 181.52
  Q 302.42 185.84 300.49 183.52
  C 297.83 180.33 294.26 178.88 290.06 179.53
  C 273.88 182.04 274.76 209.87 292.00 209.64
  C 296.02 209.59 298.79 207.65 301.19 204.65
  Q 301.52 204.24 301.69 204.71"
/>
<path stroke="#8097c5" vector-effect="non-scaling-stroke" d="
  M 330.31 201.56
  C 325.67 212.68 311.30 208.36 311.25 197.02
  A 1.02 1.02 89.6 0 1 312.27 196.00
  L 333.70 195.94
  A 0.54 0.53 -87.7 0 0 334.23 195.44
  C 335.40 178.15 313.50 172.90 308.75 188.50
  C 306.04 197.40 308.59 209.33 319.24 210.55
  Q 330.77 211.88 333.87 201.22
  A 0.63 0.60 -68.2 0 0 333.58 200.50
  Q 331.27 199.28 330.31 201.56"
/>
<path stroke="#4f70ad" vector-effect="non-scaling-stroke" d="
  M 360.71 196.50
  Q 361.37 190.75 359.79 185.25"
/>
<path stroke="#8097c5" vector-effect="non-scaling-stroke" d="
  M 359.79 185.25
  L 359.71 184.75"
/>
<path stroke="#2b4f97" vector-effect="non-scaling-stroke" d="
  M 359.71 184.75
  Q 358.92 181.46 355.75 180.54"
/>
<path stroke="#8097c5" vector-effect="non-scaling-stroke" d="
  M 355.75 180.54
  Q 346.46 176.80 340.32 184.11
  A 0.37 0.34 -39.4 0 1 339.73 184.08
  Q 339.23 183.08 339.64 181.44
  A 0.75 0.74 -76.1 0 0 339.10 180.53
  C 336.15 179.78 336.25 180.09 336.25 182.44
  Q 336.22 195.72 336.25 209.36
  A 0.59 0.56 -89.5 0 0 336.80 209.95
  L 338.94 209.98
  A 0.56 0.50 -88.9 0 0 339.45 209.43
  Q 339.65 202.42 339.75 195.41
  C 339.87 187.34 341.62 181.66 350.93 182.66
  Q 355.71 183.17 356.50 187.00
  Q 357.31 190.92 357.01 207.32
  C 356.99 208.84 356.36 210.68 359.00 210.00
  A 1.99 1.44 -9.1 0 0 360.50 208.50
  L 360.71 196.50"
/>
<path stroke="#abb8d1" vector-effect="non-scaling-stroke" d="
  M 355.75 180.54
  L 359.71 184.75"
/>
<path stroke="#ced9e7" vector-effect="non-scaling-stroke" d="
  M 359.79 185.25
  L 360.71 196.50"
/>
<path stroke="#8097c5" vector-effect="non-scaling-stroke" d="
  M 427.52 207.92
  C 420.33 208.76 416.62 203.55 415.94 197.23
  A 1.12 1.11 -3.0 0 1 417.05 196.00
  L 438.26 196.00
  A 0.75 0.74 1.2 0 0 439.01 195.29
  C 439.29 189.22 436.58 182.52 430.74 180.24
  C 409.57 171.96 404.17 213.41 428.25 210.48
  Q 436.47 209.48 438.60 201.11
  A 0.69 0.69 12.6 0 0 438.06 200.26
  Q 435.55 199.79 434.79 202.06
  Q 433.02 207.27 427.52 207.92"
/>
<path stroke="#8097c5" vector-effect="non-scaling-stroke" d="
  M 451.71 196.06
  L 472.99 196.00
  A 0.56 0.53 2.2 0 0 473.55 195.51
  Q 474.21 188.40 469.79 183.38
  C 464.14 176.97 453.81 178.52 449.67 185.30
  C 447.07 189.56 446.52 196.45 448.00 201.25
  C 451.88 213.82 470.20 214.36 473.39 200.99
  A 0.59 0.56 -73.6 0 0 473.04 200.31
  Q 470.55 199.41 469.75 201.50
  C 468.01 206.02 465.25 208.18 460.26 207.83
  Q 452.11 207.26 450.61 197.34
  A 1.12 1.11 85.8 0 1 451.71 196.06"
/>
<path stroke="#8097c5" vector-effect="non-scaling-stroke" d="
  M 506.47 186.39
  C 503.58 198.65 526.64 193.38 525.80 202.44
  C 525.11 209.94 512.50 209.23 509.48 203.58
  C 508.61 201.95 508.83 199.24 505.76 200.59
  A 0.68 0.67 73.4 0 0 505.38 201.31
  C 506.59 209.15 512.56 211.11 519.41 210.58
  C 531.86 209.63 532.95 195.11 520.57 193.62
  C 517.37 193.24 506.63 190.94 510.22 185.21
  C 513.23 180.40 523.03 181.32 524.57 187.34
  Q 525.04 189.19 527.72 188.59
  A 0.85 0.84 74.8 0 0 528.33 187.51
  Q 525.56 178.72 516.44 179.44
  C 511.64 179.82 507.65 181.39 506.47 186.39"
/>
<path stroke="#2b4f97" vector-effect="non-scaling-stroke" d="
  M 571.99 208.02
  L 572.21 189.00"
/>
<path stroke="#8097c5" vector-effect="non-scaling-stroke" d="
  M 572.21 189.00
  C 574.73 183.03 583.05 179.10 587.54 185.11
  C 590.55 189.13 589.25 203.88 589.25 209.26
  A 0.75 0.69 -80.5 0 0 589.70 209.95
  Q 591.14 210.51 592.29 209.75
  A 1.05 0.91 75.8 0 0 592.70 208.94
  Q 592.99 196.47 592.50 188.00
  C 592.27 183.96 589.81 181.00 585.86 179.86
  Q 577.94 177.58 572.49 184.30
  A 0.36 0.35 -40.7 0 1 571.90 184.27
  C 570.90 182.47 573.68 179.24 569.00 180.44
  A 0.67 0.66 -7.4 0 0 568.50 181.08
  L 568.51 209.21
  A 0.64 0.63 6.2 0 0 569.01 209.83
  Q 572.11 210.53 571.99 208.02"
/>
<path stroke="#abb8d1" vector-effect="non-scaling-stroke" d="
  M 572.21 189.00
  Q 571.24 198.46 571.99 208.02"
/>
<path stroke="#2b4f97" vector-effect="non-scaling-stroke" d="
  M 192.01 209.56
  L 193.21 187.00"
/>
<path stroke="#8097c5" vector-effect="non-scaling-stroke" d="
  M 193.21 187.00
  C 196.77 179.89 208.65 180.31 208.89 190.25
  Q 209.11 199.37 209.26 208.94
  A 0.86 0.86 -82.2 0 0 209.87 209.75
  Q 211.55 210.23 212.32 209.77
  A 1.03 0.68 79.2 0 0 212.67 208.93
  Q 212.43 200.91 212.46 192.89
  C 212.49 185.97 211.75 180.62 204.25 179.50
  Q 196.73 178.38 192.23 184.53
  Q 191.90 184.98 191.72 184.49
  C 190.98 182.40 193.78 179.29 188.81 180.55
  A 0.74 0.73 -7.1 0 0 188.25 181.26
  L 188.31 209.45
  A 0.64 0.60 -85.1 0 0 188.80 210.07
  Q 190.10 210.32 192.01 209.56"
/>
<path stroke="#abb8d1" vector-effect="non-scaling-stroke" d="
  M 193.21 187.00
  C 190.80 191.84 191.70 196.61 191.54 201.00
  Q 191.38 205.24 192.01 209.56"
/>
<path stroke="#4f70ad" vector-effect="non-scaling-stroke" d="
  M 565.25 188.96
  Q 565.06 186.77 563.29 185.50"
/>
<path stroke="#8097c5" vector-effect="non-scaling-stroke" d="
  M 563.29 185.50
  Q 557.38 177.87 549.40 179.60
  C 532.54 183.26 534.31 210.19 551.52 210.63
  C 563.42 210.93 568.19 198.88 565.25 188.96"
/>
<path stroke="#ced9e7" vector-effect="non-scaling-stroke" d="
  M 563.29 185.50
  Q 563.79 187.50 565.25 188.96"
/>
<path stroke="#8097c5" vector-effect="non-scaling-stroke" d="
  M 275.9952 180.9969
  A 0.72 0.72 0.0 0 0 275.2740 180.2782
  L 273.1940 180.2818
  A 0.72 0.72 0.0 0 0 272.4753 181.0031
  L 272.5248 209.3631
  A 0.72 0.72 0.0 0 0 273.2460 210.0818
  L 275.3260 210.0782
  A 0.72 0.72 0.0 0 0 276.0447 209.3569
  L 275.9952 180.9969"
/>
<path stroke="#8097c5" vector-effect="non-scaling-stroke" d="
  M 485.54 206.11
  C 484.55 205.46 478.06 185.50 477.11 182.79
  C 476.37 180.66 475.34 179.25 472.93 180.51
  A 0.58 0.54 66.3 0 0 472.68 181.22
  L 483.63 209.22
  A 1.30 1.16 89.2 0 0 484.26 209.91
  Q 487.15 211.24 488.19 208.44
  Q 492.98 195.44 497.83 182.46
  C 498.47 180.73 499.24 179.92 496.13 180.33
  A 1.57 1.56 5.9 0 0 494.87 181.35
  L 486.20 205.88
  A 0.45 0.44 -63.7 0 1 485.54 206.11"
/>
<path stroke="#8097c5" vector-effect="non-scaling-stroke" d="
  M 502.99 180.81
  A 0.56 0.56 0.0 0 0 502.43 180.25
  L 500.07 180.25
  A 0.56 0.56 0.0 0 0 499.51 180.81
  L 499.51 209.53
  A 0.56 0.56 0.0 0 0 500.07 210.09
  L 502.43 210.09
  A 0.56 0.56 0.0 0 0 502.99 209.53
  L 502.99 180.81"
/>
<path stroke="#8097c5" vector-effect="non-scaling-stroke" d="
  M 535.3752 180.9169
  A 0.64 0.64 0.0 0 0 534.7341 180.2780
  L 532.3941 180.2821
  A 0.64 0.64 0.0 0 0 531.7552 180.9232
  L 531.8048 209.3631
  A 0.64 0.64 0.0 0 0 532.4459 210.0020
  L 534.7859 209.9979
  A 0.64 0.64 0.0 0 0 535.4248 209.3568
  L 535.3752 180.9169"
/>
<path stroke="#8097c5" vector-effect="non-scaling-stroke" d="
  M 528.6007 80.8998
  A 1.40 1.40 0.0 0 0 527.1598 79.5419
  L 523.8412 79.6404
  A 1.40 1.40 0.0 0 0 522.4834 81.0813
  L 522.5593 83.6402
  A 1.40 1.40 0.0 0 0 524.0002 84.9981
  L 527.3188 84.8996
  A 1.40 1.40 0.0 0 0 528.6766 83.4587
  L 528.6007 80.8998"
/>
<path stroke="#8097c5" vector-effect="non-scaling-stroke" d="
  M 544.2128 81.2709
  A 1.45 1.45 0.0 0 0 542.7502 79.8336
  L 538.9504 79.8668
  A 1.45 1.45 0.0 0 0 537.5131 81.3294
  L 537.5672 87.5291
  A 1.45 1.45 0.0 0 0 539.0298 88.9664
  L 542.8296 88.9332
  A 1.45 1.45 0.0 0 0 544.2669 87.4706
  L 544.2128 81.2709"
/>
<path stroke="#8097c5" vector-effect="non-scaling-stroke" d="
  M 398.54 82.98
  Q 397.37 85.31 399.71 85.26
  L 404.19 85.16
  A 1.28 1.20 -81.0 0 0 405.32 84.28
  Q 406.46 80.81 403.78 80.31
  C 400.64 79.74 399.89 80.28 398.54 82.98"
/>
<path stroke="#8097c5" vector-effect="non-scaling-stroke" d="
  M 494.61 113.68
  C 488.77 120.57 488.64 145.36 495.06 150.94
  Q 498.30 153.75 502.32 152.31
  C 508.85 149.97 509.33 141.70 509.56 136.04
  C 509.86 128.55 510.65 109.08 497.87 111.75
  Q 495.91 112.16 494.61 113.68"
/>
<path stroke="#8097c5" vector-effect="non-scaling-stroke" d="
  M 252.06 192.56
  C 251.76 179.21 234.21 178.56 232.50 192.51
  A 0.61 0.60 -86.6 0 0 233.10 193.19
  L 251.56 193.06
  A 0.50 0.49 -0.6 0 0 252.06 192.56"
/>
<path stroke="#8097c5" vector-effect="non-scaling-stroke" d="
  M 291.7979 206.9791
  A 12.45 10.03 90.7 0 0 301.9793 194.6525
  A 12.45 10.03 90.7 0 0 292.1021 182.0809
  A 12.45 10.03 90.7 0 0 281.9207 194.4075
  A 12.45 10.03 90.7 0 0 291.7979 206.9791"
/>
<path stroke="#8097c5" vector-effect="non-scaling-stroke" d="
  M 330.79 192.09
  C 329.18 178.68 313.04 179.14 311.38 192.42
  A 0.79 0.77 3.2 0 0 312.17 193.29
  L 329.97 193.00
  A 0.84 0.81 -4.0 0 0 330.79 192.09"
/>
<path stroke="#8097c5" vector-effect="non-scaling-stroke" d="
  M 435.57 192.41
  C 434.14 178.83 417.85 178.78 416.12 192.50
  A 0.69 0.68 3.3 0 0 416.81 193.26
  L 434.87 193.18
  A 0.70 0.70 -2.9 0 0 435.57 192.41"
/>
<path stroke="#8097c5" vector-effect="non-scaling-stroke" d="
  M 470.27 192.18
  C 468.78 178.36 451.13 179.53 450.82 192.68
  A 0.49 0.48 1.1 0 0 451.31 193.18
  L 469.35 193.18
  A 0.92 0.90 -3.1 0 0 470.27 192.18"
/>
<path stroke="#8097c5" vector-effect="non-scaling-stroke" d="
  M 551.8300 208.0400
  A 12.93 10.73 90.0 0 0 562.5600 195.1100
  A 12.93 10.73 90.0 0 0 551.8300 182.1800
  A 12.93 10.73 90.0 0 0 541.1000 195.1100
  A 12.93 10.73 90.0 0 0 551.8300 208.0400"
/>
</g>
<path fill="#002e8b" d="
  M 450.79 83.87
  L 452.44 84.18
  A 1.16 0.78 -55.1 0 0 453.31 83.84
  C 457.85 79.55 455.34 72.17 464.25 72.75
  Q 467.78 72.98 474.69 72.81
  C 479.20 72.70 480.21 76.44 480.30 80.68
  A 0.44 0.39 81.3 0 0 480.81 81.10
  Q 481.96 80.74 481.87 79.06
  C 481.44 71.14 490.41 72.80 495.69 72.81
  Q 519.58 72.85 524.00 72.75
  C 528.02 72.65 531.64 73.52 535.27 73.03
  C 540.45 72.32 545.52 73.21 550.64 72.81
  C 555.63 72.43 560.99 73.26 565.46 73.12
  Q 574.69 72.83 588.50 72.75
  C 593.64 72.72 598.52 73.88 596.88 80.52
  A 1.52 1.40 -51.7 0 0 596.95 81.45
  Q 600.23 88.91 597.01 96.47
  Q 596.51 97.62 597.40 98.65
  A 1.48 1.14 29.3 0 1 597.76 99.50
  Q 598.15 123.08 598.03 146.66
  C 597.99 154.54 598.56 158.38 593.81 163.31
  Q 586.03 171.37 575.75 168.50
  C 570.39 167.00 567.97 162.67 564.63 158.73
  Q 559.85 153.10 555.74 147.33
  Q 555.25 146.65 555.22 147.49
  Q 554.89 156.03 554.92 163.75
  C 554.94 170.81 546.59 169.00 541.97 169.00
  A 1.07 1.07 -3.6 0 0 540.91 170.20
  Q 541.38 174.23 540.20 177.15
  Q 539.62 178.61 540.80 177.58
  C 546.94 172.22 556.81 172.81 563.11 177.78
  A 0.58 0.58 -47.7 0 0 563.88 177.74
  Q 567.90 173.78 573.05 175.25
  C 575.04 175.82 576.39 174.54 577.98 174.26
  C 589.77 172.16 598.00 178.65 598.00 190.37
  Q 598.00 200.06 598.01 209.75
  C 598.02 217.36 584.02 217.14 584.01 210.00
  Q 584.00 200.38 584.00 190.77
  C 584.00 187.72 583.00 186.32 579.75 187.60
  Q 577.27 188.58 577.31 191.25
  Q 577.48 200.49 576.89 209.86
  C 576.45 216.87 566.88 216.55 563.56 212.64
  A 0.55 0.54 52.9 0 0 562.84 212.53
  Q 551.99 219.81 540.93 212.78
  A 0.51 0.51 -56.3 0 0 540.24 212.92
  C 537.94 216.22 531.47 215.37 528.50 213.91
  A 1.04 1.01 -44.7 0 0 527.61 213.92
  C 522.36 216.46 513.18 217.41 508.57 213.92
  A 0.98 0.97 -35.4 0 0 507.64 213.77
  C 503.30 215.26 495.54 216.88 494.09 211.17
  C 493.80 210.04 493.14 209.86 492.83 211.27
  C 491.88 215.58 485.63 215.84 482.39 214.69
  C 479.31 213.59 478.28 210.35 477.16 207.50
  Q 476.95 206.97 476.60 207.42
  Q 465.56 221.39 450.13 213.06
  A 0.79 0.78 41.1 0 0 449.29 213.11
  Q 443.61 217.15 437.31 213.69
  A 2.36 1.09 -32.5 0 0 435.44 213.94
  C 430.00 216.57 421.35 217.33 416.15 213.48
  C 413.95 211.84 412.08 210.79 411.12 208.52
  Q 410.81 207.79 410.50 208.25
  Q 410.35 208.48 410.52 208.99
  C 412.77 215.64 403.15 216.00 399.69 214.56
  C 395.63 212.88 396.00 209.17 396.00 204.52
  Q 396.00 191.56 396.00 177.97
  A 1.02 1.02 -1.3 0 0 394.93 176.95
  C 391.58 177.12 386.47 177.84 384.10 175.21
  Q 381.82 172.67 382.69 169.19
  Q 383.19 167.16 381.71 168.25
  C 380.35 169.25 376.96 169.13 375.31 169.08
  A 0.44 0.43 87.7 0 0 374.87 169.56
  L 375.33 174.36
  A 0.71 0.69 87.3 0 0 376.02 175.00
  C 383.30 175.00 383.01 188.60 375.83 188.03
  A 0.53 0.53 2.5 0 0 375.25 188.56
  L 375.25 201.93
  A 0.82 0.81 -88.9 0 0 376.03 202.75
  C 382.62 203.05 382.82 213.26 377.90 214.76
  C 375.64 215.45 373.87 216.25 371.87 215.87
  C 369.89 215.50 366.68 214.80 364.87 213.32
  A 0.61 0.60 -43.7 0 0 364.11 213.31
  Q 359.56 216.83 354.05 214.18
  Q 352.37 213.38 352.21 211.52
  C 351.58 204.37 353.02 194.31 350.73 187.65
  A 0.72 0.71 81.2 0 0 350.07 187.16
  C 346.14 187.05 345.30 189.88 345.15 193.36
  Q 344.70 203.89 345.00 209.25
  C 345.35 215.45 339.13 215.83 334.29 214.79
  Q 333.87 214.70 333.45 214.33
  Q 331.85 212.90 330.06 214.06
  C 324.85 217.46 315.88 216.67 310.59 212.92
  A 0.33 0.33 23.5 0 0 310.08 213.12
  Q 309.01 218.29 305.88 221.93
  Q 303.36 224.87 299.11 225.92
  C 289.56 228.30 278.54 226.51 275.02 215.80
  A 0.82 0.81 -6.9 0 0 274.30 215.24
  C 268.13 214.83 258.28 216.41 253.25 213.77
  A 1.27 1.27 -44.0 0 0 252.14 213.75
  Q 241.90 218.49 232.95 213.74
  A 0.95 0.92 43.5 0 0 232.07 213.75
  Q 224.48 218.00 217.17 213.28
  A 0.72 0.72 -47.1 0 0 216.35 213.31
  Q 211.64 216.77 206.50 214.39
  Q 204.00 213.23 204.00 210.48
  C 204.00 204.71 205.28 192.37 202.80 187.62
  A 0.85 0.83 75.7 0 0 202.06 187.17
  C 198.16 187.13 197.31 189.87 197.15 193.34
  Q 196.67 204.31 197.00 209.00
  Q 197.39 214.52 192.03 215.24
  Q 189.59 215.57 188.66 215.24
  Q 186.39 214.45 184.03 214.86
  Q 174.53 216.53 174.48 207.81
  Q 174.37 188.56 174.68 169.88
  A 0.90 0.90 0.0 0 0 173.77 168.97
  Q 163.46 169.16 154.35 168.84
  C 150.93 168.72 148.43 166.87 145.41 165.46
  A 0.53 0.52 23.0 0 0 144.69 165.75
  C 143.84 168.01 142.88 168.71 140.35 168.80
  Q 124.61 169.36 118.25 169.00
  Q 109.87 168.53 104.04 160.94
  Q 103.00 159.58 103.00 157.85
  L 102.94 117.81
  A 0.83 0.75 -79.2 0 0 102.49 117.07
  Q 101.03 116.42 101.02 118.25
  Q 101.00 135.50 101.00 152.75
  C 101.00 158.75 98.10 161.85 94.01 165.33
  C 87.69 170.72 78.38 170.47 72.35 164.75
  C 67.32 159.98 63.25 153.63 59.08 148.32
  Q 58.00 146.94 58.00 148.69
  C 58.00 152.76 57.95 156.73 58.12 160.73
  Q 58.47 169.32 50.05 169.13
  C 45.87 169.04 36.91 169.89 36.05 166.93
  Q 35.78 165.97 35.21 166.79
  Q 33.64 169.06 31.25 169.05
  Q 19.90 169.01 8.55 169.00
  C 4.47 169.00 1.25 167.28 1.25 163.00
  Q 1.25 124.12 1.25 85.25
  Q 1.25 81.95 3.68 80.18
  C 6.95 77.78 25.77 78.97 30.75 78.94
  C 34.01 78.93 35.66 80.66 35.91 83.94
  Q 36.65 93.40 36.08 102.63
  Q 35.99 104.17 36.93 102.95
  C 44.49 93.13 57.89 91.98 65.66 102.37
  Q 71.04 109.56 77.22 117.07
  Q 78.07 118.10 77.96 116.77
  Q 77.22 107.74 78.25 98.24
  Q 78.55 95.46 81.34 95.24
  Q 89.25 94.64 96.95 95.23
  Q 98.83 95.37 100.43 94.44
  L 123.70 80.90
  Q 124.89 80.21 126.20 80.00
  C 135.20 78.61 133.25 88.97 133.25 94.34
  A 0.66 0.66 0.0 0 0 133.91 95.00
  C 138.02 95.00 143.40 93.74 144.93 98.71
  A 0.35 0.35 64.3 0 0 145.47 98.90
  Q 150.99 95.00 157.25 95.00
  Q 175.13 95.00 193.00 94.95
  Q 195.12 94.95 196.82 96.70
  A 0.61 0.60 50.5 0 0 197.60 96.78
  C 200.53 94.72 201.46 95.00 205.56 95.00
  Q 213.03 95.00 220.50 95.00
  C 225.06 95.00 225.97 97.37 226.04 101.56
  Q 226.42 124.28 226.25 147.01
  A 0.55 0.51 -89.5 0 0 226.75 147.56
  L 232.94 147.72
  A 0.51 0.47 -89.5 0 0 233.43 147.20
  Q 233.24 124.63 233.19 102.06
  C 233.18 96.76 235.37 95.08 240.61 95.04
  Q 249.31 94.96 258.00 95.00
  C 263.69 95.03 263.55 101.54 263.48 106.75
  Q 263.21 126.97 263.31 147.19
  A 0.52 0.51 -89.4 0 0 263.81 147.71
  L 269.36 147.73
  A 0.64 0.63 -89.6 0 0 270.00 147.09
  Q 270.00 134.75 270.00 122.75
  Q 270.00 118.85 271.84 116.79
  A 0.49 0.48 42.9 0 0 271.81 116.11
  C 268.83 113.27 269.96 100.25 270.19 98.94
  Q 270.88 95.03 275.00 95.03
  Q 294.36 95.00 313.71 95.00
  C 321.25 95.00 321.42 98.11 323.52 103.95
  Q 327.80 115.85 332.04 127.86
  Q 332.67 129.65 333.01 127.79
  Q 333.59 124.62 334.86 121.24
  Q 341.22 104.26 346.47 86.91
  C 348.04 81.73 350.67 78.12 356.35 78.91
  Q 358.73 79.24 361.13 79.03
  C 373.81 77.93 367.75 88.45 365.83 94.27
  A 0.52 0.49 -80.6 0 0 366.29 94.95
  L 370.66 94.98
  A 0.57 0.56 86.8 0 0 371.22 94.34
  Q 370.33 86.81 370.98 79.49
  C 371.56 72.98 376.08 72.60 381.46 72.86
  Q 383.31 72.95 384.90 73.92
  A 0.91 0.89 47.9 0 0 385.76 73.97
  Q 390.49 71.76 395.24 73.97
  A 0.71 0.68 -54.6 0 0 396.02 73.82
  C 397.51 72.33 429.22 72.94 440.74 72.99
  C 449.70 73.04 449.36 75.25 450.26 83.19
  A 0.79 0.63 -89.3 0 0 450.79 83.87
  Z
  M 509.52 78.66
  Q 508.45 82.01 511.81 82.40
  A 0.60 0.56 2.5 0 1 512.34 82.94
  C 512.39 83.72 511.84 94.98 514.15 92.87
  A 1.40 0.90 78.7 0 0 514.49 92.00
  L 514.80 83.44
  A 1.57 1.48 -0.5 0 1 516.29 82.01
  Q 519.11 81.87 518.32 78.49
  A 0.74 0.73 -2.2 0 0 517.70 77.92
  Q 513.37 77.31 510.17 78.06
  A 0.91 0.88 1.5 0 0 509.52 78.66
  Z
  M 466.03 81.41
  A 1.94 1.91 -85.3 0 1 467.53 80.12
  Q 470.52 79.61 470.37 78.51
  A 0.82 0.57 3.0 0 0 469.69 77.98
  Q 466.29 77.43 462.43 78.01
  A 1.03 1.02 87.2 0 0 461.57 78.96
  C 461.44 81.09 462.49 84.79 459.74 85.22
  A 1.97 1.60 -5.6 0 0 458.06 86.88
  L 458.14 92.35
  A 1.72 1.45 -1.5 0 0 459.90 93.76
  L 469.43 93.44
  A 1.30 0.81 10.5 0 0 470.30 93.10
  C 471.01 92.26 470.28 91.78 469.45 91.69
  Q 464.56 91.13 462.75 91.50
  Q 459.76 92.10 460.47 87.98
  A 1.20 1.17 4.3 0 1 461.64 87.00
  L 469.19 86.95
  A 1.10 1.02 18.2 0 0 470.02 86.57
  C 471.45 84.80 468.46 85.15 467.48 84.76
  Q 465.22 83.86 466.03 81.41
  Z
  M 473.39 78.68
  Q 472.78 85.61 473.39 92.56
  A 0.71 0.68 -86.7 0 0 473.92 93.18
  Q 477.33 93.98 480.71 93.07
  A 1.02 0.96 2.5 0 0 481.39 92.48
  Q 482.16 90.50 480.66 89.29
  A 1.20 0.96 -26.7 0 0 479.76 89.10
  C 471.29 90.59 477.59 80.95 474.68 77.99
  Q 474.24 77.54 473.79 77.84
  A 1.25 0.75 84.5 0 0 473.39 78.68
  Z
  M 491.52 83.88
  Q 490.07 79.93 494.40 79.70
  C 496.39 79.59 496.16 77.85 494.31 77.79
  Q 491.71 77.71 488.60 77.76
  A 1.23 1.22 -81.4 0 0 487.45 78.61
  C 486.60 81.24 487.77 84.80 484.88 85.08
  Q 483.09 85.26 483.21 87.21
  L 483.50 92.07
  A 1.53 1.43 88.1 0 0 484.93 93.50
  Q 489.69 93.50 494.17 93.50
  C 496.50 93.50 496.11 91.61 494.04 91.54
  C 491.68 91.46 483.59 92.98 485.58 87.96
  A 1.80 1.56 8.2 0 1 487.14 86.96
  L 494.94 86.75
  A 0.71 0.66 5.1 0 0 495.61 86.23
  Q 495.89 84.94 493.23 85.04
  A 1.77 1.76 79.0 0 1 491.52 83.88
  Z
  M 500.69 90.71
  Q 499.76 86.86 500.30 84.12
  Q 500.78 81.73 503.17 82.15
  Q 508.87 83.14 507.64 78.47
  A 0.72 0.65 82.3 0 0 507.01 77.94
  L 499.59 77.83
  A 1.20 1.12 -87.0 0 0 498.46 78.92
  Q 497.91 85.13 498.57 92.58
  A 0.73 0.70 87.3 0 0 499.27 93.24
  L 507.19 93.21
  A 0.59 0.56 2.1 0 0 507.78 92.69
  C 507.92 91.09 501.98 91.33 501.30 91.25
  A 0.72 0.70 85.8 0 1 500.69 90.71
  Z
  M 526.32 87.01
  Q 527.73 86.59 529.95 87.17
  A 0.79 0.76 -86.8 0 1 530.51 87.82
  C 530.65 88.75 530.62 93.56 531.96 93.33
  A 0.94 0.78 -83.0 0 0 532.61 92.72
  Q 534.21 87.99 531.31 84.14
  A 1.96 1.55 -72.6 0 1 530.97 83.25
  L 530.40 78.43
  A 0.61 0.58 86.7 0 0 529.82 77.89
  L 521.19 77.89
  A 0.62 0.57 -86.0 0 0 520.62 78.43
  Q 519.76 85.37 520.62 92.31
  A 0.86 0.79 -85.3 0 0 521.15 92.99
  Q 525.55 94.59 524.93 89.12
  A 1.98 1.96 -11.8 0 1 526.32 87.01
  Z
  M 546.4961 78.9993
  A 1.22 1.22 0.0 0 0 545.2847 77.7708
  L 536.5249 77.7096
  A 1.22 1.22 0.0 0 0 535.2964 78.9211
  L 535.2039 92.1807
  A 1.22 1.22 0.0 0 0 536.4153 93.4092
  L 545.1751 93.4704
  A 1.22 1.22 0.0 0 0 546.4036 92.2589
  L 546.4961 78.9993
  Z
  M 552.06 82.53
  L 557.07 82.63
  A 0.83 0.72 78.6 0 1 557.76 83.16
  C 559.02 86.36 557.46 89.47 558.41 92.71
  A 0.64 0.58 76.8 0 0 559.07 93.17
  Q 560.25 92.97 560.25 91.25
  Q 560.25 85.25 560.25 79.58
  A 1.79 1.71 89.5 0 0 558.51 77.79
  L 549.95 77.90
  A 0.54 0.53 -0.5 0 0 549.41 78.44
  L 549.46 92.50
  A 0.87 0.78 -80.2 0 0 549.94 93.26
  C 551.81 94.01 551.38 84.31 551.51 83.06
  A 0.58 0.54 -86.6 0 1 552.06 82.53
  Z
  M 563.71 88.83
  Q 560.90 89.79 561.99 92.60
  A 0.87 0.59 74.7 0 0 562.67 93.18
  L 567.85 92.89
  A 0.89 0.78 85.9 0 0 568.57 91.94
  Q 568.40 89.68 567.94 89.36
  Q 566.58 88.43 566.66 86.79
  C 566.73 85.42 567.58 75.90 564.86 78.16
  A 1.26 0.83 78.5 0 0 564.52 79.00
  L 564.24 88.20
  A 0.80 0.66 -10.5 0 1 563.71 88.83
  Z
  M 571.15 78.63
  Q 569.83 85.49 570.86 92.57
  A 0.70 0.70 1.2 0 0 571.43 93.16
  C 571.75 93.22 581.46 94.78 579.32 91.88
  A 1.21 0.55 -2.3 0 0 578.50 91.55
  L 573.79 91.08
  A 0.86 0.65 82.0 0 1 573.17 90.46
  Q 572.12 86.87 573.16 83.29
  A 0.78 0.72 -83.4 0 1 573.81 82.73
  L 578.89 82.25
  A 1.53 1.35 3.0 0 0 580.21 81.21
  Q 581.04 77.74 579.00 77.74
  Q 576.00 77.75 572.21 77.75
  A 1.09 1.08 -84.5 0 0 571.15 78.63
  Z
  M 587.94 91.29
  C 586.04 91.67 580.95 90.65 581.32 92.83
  A 0.69 0.63 -1.4 0 0 581.93 93.36
  Q 587.20 93.85 592.45 93.25
  A 0.75 0.74 4.0 0 0 593.08 92.71
  Q 593.93 89.72 593.24 86.31
  A 1.74 1.74 80.8 0 0 591.33 84.93
  Q 588.12 85.32 585.54 84.59
  A 0.92 0.92 2.4 0 1 584.91 83.96
  Q 583.54 79.15 589.76 80.17
  A 1.73 1.73 -82.9 0 0 591.76 78.61
  C 591.87 77.25 584.43 77.75 583.45 77.75
  A 0.69 0.63 0.9 0 0 582.76 78.36
  L 582.58 85.76
  A 1.00 0.90 3.7 0 0 583.49 86.69
  L 587.81 87.12
  A 0.82 0.80 -6.7 0 1 588.50 87.65
  Q 589.04 89.15 588.60 90.71
  A 0.87 0.81 1.8 0 1 587.94 91.29
  Z
  M 431.44 78.95
  C 430.97 81.27 432.46 85.00 429.23 85.25
  A 1.86 1.55 -4.7 0 0 427.50 86.95
  L 427.96 92.73
  A 1.13 1.05 -2.2 0 0 429.08 93.69
  L 438.93 93.70
  A 0.97 0.91 15.3 0 0 439.73 93.28
  Q 440.71 91.72 438.25 91.94
  Q 434.48 92.28 430.80 91.54
  A 0.99 0.95 -5.6 0 1 430.10 90.99
  C 427.71 85.61 436.23 87.40 439.19 87.01
  A 0.83 0.65 -0.1 0 0 439.86 86.48
  Q 440.17 85.19 437.65 85.28
  A 1.80 1.78 83.3 0 1 435.84 83.84
  C 434.90 79.07 441.36 80.45 439.85 78.61
  A 1.43 1.09 -9.7 0 0 439.01 78.17
  Q 435.83 77.72 432.03 78.37
  A 0.73 0.72 -0.1 0 0 431.44 78.95
  Z
  M 445.22 88.44
  C 445.06 87.61 445.15 75.96 443.04 78.60
  A 1.67 1.25 72.0 0 0 442.73 79.51
  C 442.60 83.45 442.81 87.32 442.62 91.25
  C 442.45 94.95 448.41 93.97 450.69 93.54
  A 0.91 0.85 2.9 0 0 451.37 92.97
  Q 451.93 91.30 451.17 89.74
  A 0.92 0.68 -7.0 0 0 450.44 89.33
  L 445.81 89.02
  A 0.71 0.62 85.7 0 1 445.22 88.44
  Z
  M 392.64 87.82
  Q 392.42 84.86 392.50 79.73
  A 1.46 1.46 -19.7 0 0 391.02 78.25
  C 387.27 78.30 386.62 83.00 385.39 85.73
  A 1.38 0.84 -79.3 0 1 384.76 86.43
  C 383.80 86.81 383.24 80.22 383.04 79.29
  A 0.87 0.87 -86.5 0 0 382.47 78.64
  Q 379.53 77.63 376.66 78.74
  A 0.81 0.78 81.6 0 0 376.16 79.44
  C 376.12 80.30 374.79 96.04 377.85 93.30
  A 1.28 1.01 74.1 0 0 378.20 92.44
  C 378.30 89.11 376.86 81.21 380.98 82.86
  A 1.02 0.63 87.5 0 1 381.45 83.55
  L 382.50 88.36
  A 1.19 0.81 13.5 0 0 383.13 89.05
  C 386.98 90.93 388.17 84.85 389.28 82.48
  C 390.85 79.16 390.54 90.74 390.55 90.85
  C 390.58 93.33 392.03 94.75 394.39 93.34
  A 1.85 0.98 -78.2 0 0 395.00 92.61
  L 397.19 88.11
  A 1.11 0.95 4.4 0 1 397.93 87.57
  Q 400.01 87.15 401.97 87.87
  A 0.83 0.71 -83.9 0 1 402.44 88.56
  L 402.74 92.45
  A 1.05 1.00 14.8 0 0 403.22 93.23
  Q 405.00 94.40 406.78 93.24
  A 0.98 0.96 -17.3 0 0 407.21 92.44
  L 407.09 79.18
  A 0.64 0.61 5.3 0 0 406.57 78.59
  Q 402.60 77.82 398.67 78.81
  A 0.99 0.94 3.1 0 0 397.99 79.39
  L 394.56 88.08
  Q 392.96 92.13 392.64 87.82
  Z
  M 421.47 83.32
  L 421.98 92.25
  A 1.43 1.02 -76.3 0 0 422.33 93.12
  C 424.67 95.42 424.17 84.44 424.26 83.56
  A 0.78 0.65 88.6 0 1 424.78 82.90
  L 426.69 82.48
  A 1.66 0.63 -2.8 0 0 427.56 82.10
  Q 429.14 80.51 427.75 78.69
  A 1.06 0.94 -15.5 0 0 426.95 78.30
  C 421.73 78.24 416.41 78.47 411.21 78.20
  C 407.94 78.03 407.90 82.86 411.10 82.46
  A 1.51 1.51 -6.2 0 1 412.80 83.82
  C 412.87 84.53 412.30 95.39 414.67 93.11
  A 1.35 1.02 74.6 0 0 415.01 92.26
  L 415.29 83.57
  A 0.72 0.71 82.2 0 1 415.79 82.90
  Q 418.32 82.11 420.95 82.69
  A 0.69 0.67 -85.6 0 1 421.47 83.32
  Z
  M 30.93 84.99
  A 0.26 0.26 0.0 0 0 30.67 84.73
  L 6.51 84.73
  A 0.26 0.26 0.0 0 0 6.25 84.99
  L 6.25 163.25
  A 0.26 0.26 0.0 0 0 6.51 163.51
  L 30.67 163.51
  A 0.26 0.26 0.0 0 0 30.93 163.25
  L 30.93 84.99
  Z
  M 128.55 151.93
  Q 128.03 134.19 128.24 116.44
  C 128.27 113.92 127.59 111.21 131.26 111.42
  C 133.81 111.56 136.41 111.50 139.27 111.50
  A 0.60 0.59 3.9 0 0 139.86 110.99
  Q 140.61 105.75 139.93 101.01
  A 0.60 0.59 -3.9 0 0 139.34 100.50
  L 128.81 100.50
  A 0.56 0.56 0.0 0 1 128.25 99.94
  L 128.25 85.11
  A 0.32 0.31 75.3 0 0 127.78 84.83
  Q 115.06 92.06 102.37 99.42
  Q 101.11 100.15 99.02 100.57
  A 0.64 0.63 -5.5 0 0 98.50 101.19
  L 98.55 110.93
  A 0.53 0.53 0.0 0 0 99.07 111.45
  L 105.85 111.55
  Q 108.50 111.59 108.50 114.24
  Q 108.50 133.60 108.50 152.95
  Q 108.50 156.73 108.55 157.04
  C 110.05 166.17 133.17 163.56 139.57 163.33
  A 0.59 0.59 -87.1 0 0 140.13 162.82
  Q 140.73 158.05 140.01 153.30
  A 0.61 0.60 87.1 0 0 139.44 152.77
  L 129.06 152.43
  A 0.52 0.51 0.0 0 1 128.55 151.93
  Z
  M 318.71 105.75
  Q 318.78 103.87 317.54 102.50
  Q 317.55 101.58 317.06 100.88
  A 1.03 0.85 -14.1 0 0 316.26 100.50
  L 276.02 100.50
  A 0.52 0.52 90.0 0 0 275.50 101.02
  L 275.50 112.69
  A 0.56 0.56 0.0 0 0 276.06 113.25
  L 294.97 113.25
  A 0.54 0.53 -0.5 0 0 295.51 112.71
  Q 295.43 107.00 295.72 102.01
  Q 295.79 100.78 296.14 101.79
  Q 305.22 128.24 314.69 154.56
  Q 317.63 162.72 326.00 163.50
  C 334.94 164.34 338.73 158.47 341.26 150.96
  Q 352.31 118.14 363.74 85.28
  A 0.40 0.39 -80.1 0 0 363.37 84.75
  L 353.35 84.75
  A 0.71 0.70 9.1 0 0 352.68 85.23
  L 333.25 142.76
  Q 332.47 145.06 331.67 142.77
  L 318.71 105.75
  Z
  M 384.78 107.53
  Q 387.40 103.23 391.05 99.58
  A 0.59 0.59 -58.4 0 0 390.82 98.61
  Q 387.71 97.54 385.82 94.61
  A 0.95 0.88 72.2 0 0 385.06 94.18
  Q 381.67 94.21 383.00 96.81
  C 384.60 99.96 384.40 103.77 384.22 107.35
  Q 384.16 108.55 384.78 107.53
  Z
  M 532.06 109.31
  Q 533.36 103.60 538.58 98.88
  Q 538.99 98.51 538.44 98.46
  Q 530.51 97.70 524.75 98.00
  Q 520.40 98.23 517.95 97.21
  A 1.84 1.30 43.1 0 0 517.01 97.08
  C 513.72 97.67 515.67 98.78 516.91 99.44
  Q 525.48 103.99 530.86 112.11
  Q 531.36 112.87 531.80 112.32
  C 532.22 111.80 531.98 109.69 532.06 109.31
  Z
  M 468.94 112.50
  Q 474.62 103.92 483.84 99.17
  Q 486.10 98.01 483.56 98.08
  L 468.50 98.49
  A 0.52 0.51 -1.7 0 0 468.00 99.01
  L 468.05 112.25
  Q 468.06 113.83 468.94 112.50
  Z
  M 575.05 101.80
  C 575.06 100.84 575.51 99.89 575.56 98.94
  A 0.50 0.50 -88.9 0 0 575.06 98.42
  L 559.42 98.19
  Q 558.96 98.18 559.28 98.53
  Q 566.96 106.87 574.17 116.56
  Q 575.01 117.70 575.00 116.28
  Q 574.96 108.69 575.05 101.80
  Z
  M 82.79 125.50
  Q 81.94 127.95 82.95 130.56
  Q 82.79 130.94 82.54 131.09
  A 0.75 0.49 52.8 0 1 81.75 130.81
  Q 72.98 120.15 64.57 109.21
  Q 61.86 105.68 58.68 102.55
  Q 56.70 100.61 53.93 100.49
  Q 42.85 100.00 40.41 108.29
  Q 39.75 110.53 39.76 121.76
  Q 39.77 142.29 39.69 163.15
  A 0.56 0.53 -0.0 0 0 40.26 163.69
  L 51.99 163.57
  A 0.51 0.49 0.0 0 0 52.50 163.08
  L 52.50 133.95
  Q 52.50 131.89 53.78 133.50
  Q 62.87 144.86 72.16 156.59
  Q 75.94 161.36 78.19 162.51
  C 83.38 165.15 90.90 162.97 93.93 157.87
  Q 95.25 155.65 95.25 151.35
  Q 95.26 126.33 95.43 101.31
  A 0.56 0.55 4.0 0 0 94.94 100.75
  Q 89.12 100.09 83.30 100.75
  A 0.57 0.57 86.6 0 0 82.80 101.32
  L 82.79 125.50
  Z
  M 165.54 125.95
  L 165.72 112.91
  A 1.51 1.43 0.4 0 1 167.23 111.50
  L 192.31 111.50
  A 0.94 0.91 -0.3 0 0 193.25 110.58
  L 193.09 101.19
  A 0.53 0.52 0.0 0 0 192.57 100.68
  Q 179.65 100.45 157.00 100.50
  Q 150.37 100.51 146.56 105.19
  C 144.26 108.01 145.50 113.69 145.50 116.36
  Q 145.50 131.28 145.50 146.21
  C 145.50 153.09 143.19 158.87 151.09 162.48
  Q 152.89 163.30 155.92 163.36
  Q 174.30 163.67 192.68 163.44
  A 0.52 0.50 0.0 0 0 193.20 162.94
  L 193.20 153.31
  A 0.51 0.50 0.6 0 0 192.70 152.81
  L 167.81 152.53
  Q 165.50 152.50 165.51 150.18
  L 165.55 138.31
  A 0.59 0.58 85.4 0 1 166.04 137.73
  Q 168.75 137.30 171.50 137.45
  Q 182.13 138.04 192.24 137.53
  A 1.05 0.99 -2.4 0 0 193.23 136.52
  L 193.00 127.04
  A 0.59 0.55 -0.5 0 0 192.41 126.50
  L 166.05 126.44
  A 0.51 0.49 -0.0 0 1 165.54 125.95
  Z
  M 222.48 152.46
  A 1.52 1.50 -89.6 0 1 221.00 150.94
  L 220.94 101.06
  A 0.50 0.50 0.0 0 0 220.44 100.56
  L 201.78 100.50
  A 0.77 0.77 0.0 0 0 201.01 101.27
  Q 200.82 128.50 201.21 154.60
  C 201.39 166.73 221.61 163.55 232.19 163.44
  A 0.52 0.51 0.0 0 0 232.71 162.93
  L 232.71 153.06
  A 0.53 0.50 0.6 0 0 232.19 152.56
  L 222.48 152.46
  Z
  M 270.07 161.01
  Q 270.55 157.56 269.82 153.18
  A 0.57 0.57 -6.1 0 0 269.22 152.70
  Q 263.49 153.00 259.62 152.33
  A 1.66 1.65 5.0 0 1 258.25 150.70
  L 258.25 101.25
  A 0.69 0.68 90.0 0 0 257.57 100.56
  L 238.99 100.50
  A 0.68 0.68 0.0 0 0 238.31 101.18
  Q 238.33 128.17 238.55 155.26
  C 238.59 160.40 243.41 163.26 248.00 163.50
  Q 254.20 163.82 267.92 163.51
  C 269.03 163.49 270.95 164.03 270.19 161.96
  Q 270.01 161.46 270.07 161.01
  Z
  M 379.2604 100.9373
  A 0.42 0.42 0.0 0 0 378.8411 100.5165
  L 359.9211 100.4835
  A 0.42 0.42 0.0 0 0 359.5004 100.9028
  L 359.4796 112.8027
  A 0.42 0.42 0.0 0 0 359.8989 113.2235
  L 378.8189 113.2565
  A 0.42 0.42 0.0 0 0 379.2396 112.8372
  L 379.2604 100.9373
  Z
  M 412.47 152.09
  C 406.06 153.93 394.90 152.80 388.06 152.58
  A 0.49 0.48 -88.9 0 0 387.56 153.07
  L 387.43 162.98
  A 0.51 0.51 90.0 0 0 387.94 163.49
  Q 403.62 163.61 418.46 163.52
  C 430.12 163.45 436.54 152.38 434.45 141.89
  C 433.45 136.89 430.12 132.90 426.09 129.90
  Q 418.23 124.03 410.51 117.97
  Q 407.42 115.54 409.63 112.28
  A 1.76 1.75 16.8 0 1 411.09 111.50
  L 434.50 111.50
  A 0.50 0.50 0.0 0 0 435.00 111.00
  L 435.00 101.00
  A 0.50 0.50 0.0 0 0 434.50 100.50
  Q 418.50 100.50 402.50 100.54
  C 393.69 100.57 388.16 109.25 387.53 117.25
  Q 386.69 127.82 395.00 134.00
  C 397.95 136.19 403.81 140.64 410.56 144.55
  Q 414.48 146.81 413.09 151.45
  A 0.94 0.90 -89.6 0 1 412.47 152.09
  Z
  M 462.75 100.87
  A 0.36 0.36 0.0 0 0 462.39 100.51
  L 443.21 100.51
  A 0.36 0.36 0.0 0 0 442.85 100.87
  L 442.85 112.89
  A 0.36 0.36 0.0 0 0 443.21 113.25
  L 462.39 113.25
  A 0.36 0.36 0.0 0 0 462.75 112.89
  L 462.75 100.87
  Z
  M 531.71 132.07
  A 31.64 31.64 0.0 0 0 500.07 100.43
  A 31.64 31.64 0.0 0 0 468.43 132.07
  A 31.64 31.64 0.0 0 0 500.07 163.71
  A 31.64 31.64 0.0 0 0 531.71 132.07
  Z
  M 578.83 130.70
  C 571.92 121.79 564.62 113.16 557.80 104.21
  C 551.55 96.02 537.31 101.44 537.30 111.75
  Q 537.25 137.25 537.25 162.98
  A 0.75 0.70 0.0 0 0 538.00 163.68
  L 549.48 163.59
  A 0.52 0.48 -1.1 0 0 549.99 163.10
  L 549.82 133.57
  A 0.87 0.56 84.7 0 1 550.23 132.79
  C 550.88 132.58 563.10 148.40 568.44 155.21
  Q 573.07 161.10 575.45 162.39
  C 582.21 166.03 592.75 161.40 592.75 153.00
  Q 592.75 127.38 592.75 101.18
  A 0.66 0.63 89.6 0 0 592.11 100.52
  L 580.95 100.66
  A 0.53 0.52 90.0 0 0 580.43 101.19
  L 580.24 130.21
  Q 580.23 132.51 578.83 130.70
  Z
  M 437.77 133.76
  C 437.55 127.96 437.55 122.14 438.79 116.40
  Q 438.91 115.84 438.38 116.06
  C 433.41 118.07 424.08 117.00 418.71 117.00
  Q 417.25 117.00 418.42 117.87
  C 424.35 122.24 430.15 125.58 435.12 130.97
  Q 435.78 131.68 436.23 132.54
  Q 437.84 135.59 437.77 133.76
  Z
  M 193.07 121.06
  A 2.45 2.42 -21.9 0 1 194.77 121.77
  C 196.61 123.62 196.01 118.41 196.00 117.25
  A 0.48 0.48 -1.1 0 0 195.50 116.77
  Q 176.89 117.44 173.00 117.00
  Q 170.07 116.67 170.39 118.77
  Q 170.45 119.15 170.34 119.72
  Q 170.25 120.20 170.48 120.57
  A 1.05 0.70 -9.7 0 0 171.31 120.94
  L 193.07 121.06
  Z
  M 140.51 117.39
  A 0.38 0.38 0.0 0 0 140.13 117.01
  L 133.63 117.01
  A 0.38 0.38 0.0 0 0 133.25 117.39
  L 133.25 147.37
  A 0.38 0.38 0.0 0 0 133.63 147.75
  L 140.13 147.75
  A 0.38 0.38 0.0 0 0 140.51 147.37
  L 140.51 117.39
  Z
  M 275.46 150.50
  Q 274.92 156.38 275.54 162.25
  L 275.50 163.20
  A 0.56 0.45 0.4 0 0 276.07 163.67
  L 294.94 163.51
  A 0.56 0.54 0.0 0 0 295.50 162.97
  L 295.50 121.13
  A 0.88 0.88 0.0 0 0 294.62 120.25
  L 276.05 120.31
  A 0.51 0.50 -89.4 0 0 275.55 120.81
  L 275.46 150.50
  Z
  M 379.31 120.51
  A 0.26 0.26 0.0 0 0 379.05 120.25
  L 359.75 120.25
  A 0.26 0.26 0.0 0 0 359.49 120.51
  L 359.49 163.27
  A 0.26 0.26 0.0 0 0 359.75 163.53
  L 379.05 163.53
  A 0.26 0.26 0.0 0 0 379.31 163.27
  L 379.31 120.51
  Z
  M 462.7873 120.5473
  A 0.27 0.27 0.0 0 0 462.5178 120.2768
  L 443.2778 120.2432
  A 0.27 0.27 0.0 0 0 443.0073 120.5128
  L 442.9327 163.2727
  A 0.27 0.27 0.0 0 0 443.2022 163.5432
  L 462.4422 163.5768
  A 0.27 0.27 0.0 0 0 462.7127 163.3072
  L 462.7873 120.5473
  Z
  M 405.61 147.43
  C 398.97 143.29 387.85 136.84 384.91 129.61
  Q 384.24 127.98 384.25 129.74
  L 384.31 148.43
  A 0.32 0.32 -12.0 0 0 384.76 148.72
  C 389.52 146.58 400.10 147.77 405.54 147.69
  Q 406.00 147.68 405.61 147.43
  Z
  M 333.02 175.87
  Q 337.29 174.15 341.77 175.36
  A 1.46 1.46 -48.6 0 0 342.71 175.30
  Q 349.60 172.41 356.44 175.06
  Q 358.62 175.91 360.50 174.94
  A 1.00 0.76 83.1 0 0 360.94 174.19
  L 361.34 169.69
  A 0.66 0.62 -89.1 0 0 360.68 168.97
  C 353.57 169.43 354.00 165.42 354.01 159.71
  Q 354.04 146.24 353.94 133.63
  Q 353.92 130.60 353.01 133.48
  Q 349.27 145.22 345.04 156.76
  C 340.67 168.69 325.17 173.02 315.51 164.68
  Q 311.24 160.99 309.06 154.94
  Q 303.01 138.07 301.87 134.80
  C 301.44 133.58 301.06 134.71 301.06 135.08
  Q 300.96 148.54 300.99 162.00
  C 301.02 171.85 288.03 168.96 281.80 169.06
  A 0.49 0.47 89.4 0 0 281.33 169.56
  Q 281.40 173.58 280.44 177.46
  Q 280.32 177.93 280.72 177.64
  Q 289.01 171.59 298.78 175.32
  A 1.71 1.66 47.8 0 0 299.73 175.38
  C 302.58 174.70 307.97 174.26 309.38 177.47
  A 0.40 0.38 60.1 0 0 309.96 177.64
  Q 317.90 171.74 328.25 175.25
  Q 330.05 175.86 330.86 176.68
  A 1.06 0.61 52.4 0 0 331.69 177.02
  Q 332.12 176.91 332.36 176.53
  A 1.55 0.64 -67.5 0 1 333.02 175.87
  Z
  M 192.44 147.81
  C 193.48 147.81 194.32 148.37 195.32 148.35
  A 0.56 0.55 -0.0 0 0 195.87 147.81
  L 195.97 142.30
  A 0.50 0.47 -1.7 0 0 195.43 141.83
  C 194.10 141.92 192.97 142.50 191.67 142.50
  Q 181.56 142.50 171.00 142.50
  A 0.54 0.53 1.1 0 0 170.46 143.01
  L 170.32 147.20
  A 0.48 0.48 -89.4 0 0 170.80 147.69
  Q 181.62 147.75 192.44 147.81
  Z
  M 468.19 151.92
  C 468.12 155.16 468.79 165.45 466.62 167.58
  C 464.21 169.95 454.36 169.00 450.67 169.00
  A 0.67 0.67 0.0 0 0 450.00 169.67
  L 450.00 175.76
  A 0.79 0.79 -15.0 0 0 451.18 176.44
  C 455.55 173.94 463.69 172.64 467.55 175.18
  A 2.42 2.39 54.0 0 0 469.48 175.50
  Q 474.00 174.35 478.50 175.50
  Q 480.67 176.06 481.50 178.50
  L 485.57 190.54
  Q 485.74 191.03 485.97 190.55
  C 488.43 185.35 488.77 179.20 493.40 175.62
  A 1.20 0.70 -28.1 0 0 493.89 174.82
  L 493.78 169.30
  A 0.74 0.58 7.8 0 0 493.20 168.70
  Q 477.38 165.02 468.94 151.71
  Q 468.22 150.57 468.19 151.92
  Z
  M 527.44 175.83
  C 526.13 172.00 525.78 164.69 531.33 163.99
  A 0.77 0.76 86.6 0 0 532.00 163.23
  C 532.00 161.65 532.30 151.97 531.56 151.61
  A 0.66 0.45 -65.8 0 0 530.87 152.03
  C 527.53 159.62 516.46 165.77 508.59 168.29
  A 1.02 1.01 -14.5 0 0 507.90 169.45
  Q 508.60 173.18 507.51 175.99
  Q 506.84 177.74 508.30 176.57
  C 513.16 172.70 521.63 173.18 526.66 176.44
  Q 527.94 177.27 527.44 175.83
  Z
  M 436.94 157.94
  Q 433.43 164.47 426.30 167.42
  A 2.01 1.48 86.2 0 0 425.33 168.94
  L 424.83 173.23
  A 0.69 0.60 -88.9 0 0 425.48 174.00
  Q 430.67 173.45 434.83 176.45
  Q 436.00 177.29 436.00 175.85
  C 436.00 172.63 435.18 167.48 437.64 164.85
  A 1.36 0.96 73.6 0 0 437.93 164.00
  L 437.87 158.31
  A 0.82 0.42 -87.7 0 0 437.52 157.54
  Q 437.19 157.47 436.94 157.94
  Z
  M 213.34 168.98
  C 207.58 169.14 203.11 167.64 199.07 163.44
  Q 197.94 162.27 198.01 163.90
  C 198.22 169.25 193.40 168.92 189.69 169.16
  A 0.61 0.52 -1.7 0 0 189.11 169.68
  L 189.11 174.31
  A 0.68 0.50 5.0 0 0 189.70 174.83
  L 193.77 175.38
  A 1.93 1.07 24.1 0 0 194.71 175.30
  Q 201.54 172.45 207.94 174.81
  Q 210.94 175.92 213.31 174.74
  A 1.01 0.53 89.3 0 0 213.69 174.00
  L 214.14 170.01
  A 0.92 0.80 -87.1 0 0 213.34 168.98
  Z
  M 246.51 168.97
  Q 242.45 168.24 238.89 165.63
  A 0.82 0.81 28.2 0 0 237.65 166.00
  C 236.16 169.98 230.78 169.00 227.37 169.00
  A 0.54 0.49 87.8 0 0 226.88 169.58
  L 227.24 174.35
  A 0.67 0.58 89.2 0 0 227.79 174.97
  Q 229.88 175.11 231.73 176.31
  A 1.61 1.61 45.6 0 0 233.46 176.33
  C 239.30 172.68 245.21 173.51 251.49 175.98
  A 0.38 0.37 -79.3 0 0 252.00 175.63
  C 252.00 173.80 252.86 168.28 250.25 168.88
  Q 248.39 169.32 246.51 168.97
  Z
  M 183.49 168.92
  A 0.42 0.42 0.0 0 0 183.07 168.50
  L 179.93 168.50
  A 0.42 0.42 0.0 0 0 179.51 168.92
  L 179.51 209.64
  A 0.42 0.42 0.0 0 0 179.93 210.06
  L 183.07 210.06
  A 0.42 0.42 0.0 0 0 183.49 209.64
  L 183.49 168.92
  Z
  M 261.00 169.08
  A 0.56 0.56 0.0 0 0 260.44 168.52
  L 258.06 168.52
  A 0.56 0.56 0.0 0 0 257.50 169.08
  L 257.50 209.56
  A 0.56 0.56 0.0 0 0 258.06 210.12
  L 260.44 210.12
  A 0.56 0.56 0.0 0 0 261.00 209.56
  L 261.00 169.08
  Z
  M 268.51 168.82
  A 0.27 0.27 0.0 0 0 268.24 168.55
  L 265.50 168.55
  A 0.27 0.27 0.0 0 0 265.23 168.82
  L 265.23 209.70
  A 0.27 0.27 0.0 0 0 265.50 209.97
  L 268.24 209.97
  A 0.27 0.27 0.0 0 0 268.51 209.70
  L 268.51 168.82
  Z
  M 276.0803 168.9618
  A 0.43 0.43 0.0 0 0 275.6556 168.5266
  L 272.9758 168.4938
  A 0.43 0.43 0.0 0 0 272.5406 168.9186
  L 272.4797 173.8982
  A 0.43 0.43 0.0 0 0 272.9044 174.3334
  L 275.5842 174.3662
  A 0.43 0.43 0.0 0 0 276.0194 173.9414
  L 276.0803 168.9618
  Z
  M 401.94 172.31
  L 402.06 209.44
  A 0.53 0.50 90.0 0 0 402.56 209.97
  L 405.14 209.99
  A 0.63 0.61 90.0 0 0 405.75 209.36
  L 405.75 172.34
  A 0.59 0.57 -89.5 0 1 406.33 171.75
  L 419.43 171.91
  A 0.83 0.70 10.6 0 0 420.17 171.49
  Q 420.70 170.28 420.35 169.03
  A 0.70 0.64 -7.1 0 0 419.69 168.56
  L 388.32 168.50
  A 0.69 0.69 -83.7 0 0 387.65 169.04
  Q 386.99 172.10 388.74 171.87
  C 392.68 171.35 397.42 171.74 401.44 171.80
  A 0.51 0.51 0.6 0 1 401.94 172.31
  Z
  M 444.50 168.99
  A 0.46 0.46 0.0 0 0 444.04 168.53
  L 441.70 168.53
  A 0.46 0.46 0.0 0 0 441.24 168.99
  L 441.24 209.63
  A 0.46 0.46 0.0 0 0 441.70 210.09
  L 444.04 210.09
  A 0.46 0.46 0.0 0 0 444.50 209.63
  L 444.50 168.99
  Z
  M 502.9836 169.0378
  A 0.51 0.51 0.0 0 0 502.4700 168.5314
  L 499.9901 168.5487
  A 0.51 0.51 0.0 0 0 499.4836 169.0623
  L 499.5164 173.7622
  A 0.51 0.51 0.0 0 0 500.0300 174.2686
  L 502.5099 174.2513
  A 0.51 0.51 0.0 0 0 503.0164 173.7377
  L 502.9836 169.0378
  Z
  M 535.3745 168.7685
  A 0.27 0.27 0.0 0 0 535.0998 168.5032
  L 531.9803 168.5577
  A 0.27 0.27 0.0 0 0 531.7151 168.8323
  L 531.8055 174.0115
  A 0.27 0.27 0.0 0 0 532.0802 174.2768
  L 535.1997 174.2223
  A 0.27 0.27 0.0 0 0 535.4649 173.9477
  L 535.3745 168.7685
  Z
  M 370.24 206.01
  L 370.65 183.27
  L 373.50 183.21
  Q 376.43 184.11 376.00 181.96
  C 376.67 178.14 368.92 182.20 370.04 178.50
  Q 371.40 174.80 369.75 171.29
  Q 368.37 170.76 367.03 171.15
  A 0.69 0.67 82.2 0 0 366.55 171.81
  L 366.51 179.16
  A 1.21 1.20 -85.2 0 1 365.11 180.36
  Q 360.41 179.54 361.62 182.73
  A 0.83 0.68 -6.5 0 0 362.32 183.18
  L 365.82 183.38
  A 0.59 0.54 -89.5 0 1 366.33 183.94
  Q 366.84 199.14 366.50 202.50
  C 365.49 212.39 376.90 211.20 376.46 208.56
  A 1.55 1.53 -10.6 0 0 374.62 207.31
  Q 371.52 207.97 370.24 206.01
  Z
  M 217.95 180.21
  L 214.24 180.26
  A 0.72 0.67 7.9 0 0 213.58 180.72
  Q 212.57 183.97 216.95 183.11
  A 1.28 1.28 85.3 0 1 218.48 184.41
  Q 218.18 195.39 218.96 206.48
  Q 219.10 208.45 220.89 209.29
  Q 224.10 210.80 227.51 210.11
  A 0.90 0.85 3.1 0 0 228.18 209.54
  Q 229.01 207.07 226.25 207.51
  C 221.70 208.25 222.24 205.35 222.27 201.93
  Q 222.36 192.85 222.10 184.86
  Q 222.03 182.67 224.19 183.06
  Q 228.68 183.87 228.29 181.05
  A 0.72 0.62 85.9 0 0 227.69 180.44
  L 223.61 180.32
  A 1.55 1.46 1.6 0 1 222.11 178.83
  L 222.22 171.81
  A 0.56 0.50 89.1 0 0 221.69 171.24
  L 219.22 171.38
  A 0.66 0.53 89.8 0 0 218.72 172.01
  L 218.44 179.69
  A 0.54 0.50 -89.3 0 1 217.95 180.21
  Z
  M 411.32 181.31
  L 414.76 177.86
  Q 415.28 177.34 414.56 177.18
  Q 409.87 176.13 411.03 181.22
  Q 411.10 181.53 411.32 181.31
  Z
  M 251.98 201.12
  C 247.88 212.65 232.36 208.88 232.67 196.69
  A 0.53 0.53 -89.4 0 1 233.20 196.17
  L 254.53 196.01
  A 1.01 1.00 1.8 0 0 255.54 195.07
  C 255.85 190.31 253.77 184.74 249.99 181.83
  C 243.95 177.18 234.46 179.24 231.06 186.06
  C 225.77 196.68 230.19 212.66 245.00 210.50
  Q 252.98 209.33 255.11 201.09
  A 0.53 0.52 14.9 0 0 254.74 200.46
  Q 252.44 199.81 251.98 201.12
  Z
  M 301.69 204.71
  Q 302.00 205.62 301.94 206.60
  C 301.59 212.45 301.39 216.98 295.00 218.75
  Q 288.69 220.50 284.40 215.64
  C 283.20 214.28 283.66 212.82 280.96 213.02
  A 1.15 1.15 -14.6 0 0 280.00 214.65
  C 285.21 226.01 304.75 223.93 305.25 210.25
  Q 305.68 198.48 305.51 183.02
  C 305.48 180.75 305.85 179.71 302.64 180.38
  A 1.02 1.02 -9.6 0 0 301.83 181.52
  Q 302.42 185.84 300.49 183.52
  C 297.83 180.33 294.26 178.88 290.06 179.53
  C 273.88 182.04 274.76 209.87 292.00 209.64
  C 296.02 209.59 298.79 207.65 301.19 204.65
  Q 301.52 204.24 301.69 204.71
  Z
  M 330.31 201.56
  C 325.67 212.68 311.30 208.36 311.25 197.02
  A 1.02 1.02 89.6 0 1 312.27 196.00
  L 333.70 195.94
  A 0.54 0.53 -87.7 0 0 334.23 195.44
  C 335.40 178.15 313.50 172.90 308.75 188.50
  C 306.04 197.40 308.59 209.33 319.24 210.55
  Q 330.77 211.88 333.87 201.22
  A 0.63 0.60 -68.2 0 0 333.58 200.50
  Q 331.27 199.28 330.31 201.56
  Z
  M 360.71 196.50
  Q 361.37 190.75 359.79 185.25
  L 359.71 184.75
  Q 358.92 181.46 355.75 180.54
  Q 346.46 176.80 340.32 184.11
  A 0.37 0.34 -39.4 0 1 339.73 184.08
  Q 339.23 183.08 339.64 181.44
  A 0.75 0.74 -76.1 0 0 339.10 180.53
  C 336.15 179.78 336.25 180.09 336.25 182.44
  Q 336.22 195.72 336.25 209.36
  A 0.59 0.56 -89.5 0 0 336.80 209.95
  L 338.94 209.98
  A 0.56 0.50 -88.9 0 0 339.45 209.43
  Q 339.65 202.42 339.75 195.41
  C 339.87 187.34 341.62 181.66 350.93 182.66
  Q 355.71 183.17 356.50 187.00
  Q 357.31 190.92 357.01 207.32
  C 356.99 208.84 356.36 210.68 359.00 210.00
  A 1.99 1.44 -9.1 0 0 360.50 208.50
  L 360.71 196.50
  Z
  M 427.52 207.92
  C 420.33 208.76 416.62 203.55 415.94 197.23
  A 1.12 1.11 -3.0 0 1 417.05 196.00
  L 438.26 196.00
  A 0.75 0.74 1.2 0 0 439.01 195.29
  C 439.29 189.22 436.58 182.52 430.74 180.24
  C 409.57 171.96 404.17 213.41 428.25 210.48
  Q 436.47 209.48 438.60 201.11
  A 0.69 0.69 12.6 0 0 438.06 200.26
  Q 435.55 199.79 434.79 202.06
  Q 433.02 207.27 427.52 207.92
  Z
  M 451.71 196.06
  L 472.99 196.00
  A 0.56 0.53 2.2 0 0 473.55 195.51
  Q 474.21 188.40 469.79 183.38
  C 464.14 176.97 453.81 178.52 449.67 185.30
  C 447.07 189.56 446.52 196.45 448.00 201.25
  C 451.88 213.82 470.20 214.36 473.39 200.99
  A 0.59 0.56 -73.6 0 0 473.04 200.31
  Q 470.55 199.41 469.75 201.50
  C 468.01 206.02 465.25 208.18 460.26 207.83
  Q 452.11 207.26 450.61 197.34
  A 1.12 1.11 85.8 0 1 451.71 196.06
  Z
  M 506.47 186.39
  C 503.58 198.65 526.64 193.38 525.80 202.44
  C 525.11 209.94 512.50 209.23 509.48 203.58
  C 508.61 201.95 508.83 199.24 505.76 200.59
  A 0.68 0.67 73.4 0 0 505.38 201.31
  C 506.59 209.15 512.56 211.11 519.41 210.58
  C 531.86 209.63 532.95 195.11 520.57 193.62
  C 517.37 193.24 506.63 190.94 510.22 185.21
  C 513.23 180.40 523.03 181.32 524.57 187.34
  Q 525.04 189.19 527.72 188.59
  A 0.85 0.84 74.8 0 0 528.33 187.51
  Q 525.56 178.72 516.44 179.44
  C 511.64 179.82 507.65 181.39 506.47 186.39
  Z
  M 571.99 208.02
  L 572.21 189.00
  C 574.73 183.03 583.05 179.10 587.54 185.11
  C 590.55 189.13 589.25 203.88 589.25 209.26
  A 0.75 0.69 -80.5 0 0 589.70 209.95
  Q 591.14 210.51 592.29 209.75
  A 1.05 0.91 75.8 0 0 592.70 208.94
  Q 592.99 196.47 592.50 188.00
  C 592.27 183.96 589.81 181.00 585.86 179.86
  Q 577.94 177.58 572.49 184.30
  A 0.36 0.35 -40.7 0 1 571.90 184.27
  C 570.90 182.47 573.68 179.24 569.00 180.44
  A 0.67 0.66 -7.4 0 0 568.50 181.08
  L 568.51 209.21
  A 0.64 0.63 6.2 0 0 569.01 209.83
  Q 572.11 210.53 571.99 208.02
  Z
  M 192.01 209.56
  L 193.21 187.00
  C 196.77 179.89 208.65 180.31 208.89 190.25
  Q 209.11 199.37 209.26 208.94
  A 0.86 0.86 -82.2 0 0 209.87 209.75
  Q 211.55 210.23 212.32 209.77
  A 1.03 0.68 79.2 0 0 212.67 208.93
  Q 212.43 200.91 212.46 192.89
  C 212.49 185.97 211.75 180.62 204.25 179.50
  Q 196.73 178.38 192.23 184.53
  Q 191.90 184.98 191.72 184.49
  C 190.98 182.40 193.78 179.29 188.81 180.55
  A 0.74 0.73 -7.1 0 0 188.25 181.26
  L 188.31 209.45
  A 0.64 0.60 -85.1 0 0 188.80 210.07
  Q 190.10 210.32 192.01 209.56
  Z
  M 565.25 188.96
  Q 565.06 186.77 563.29 185.50
  Q 557.38 177.87 549.40 179.60
  C 532.54 183.26 534.31 210.19 551.52 210.63
  C 563.42 210.93 568.19 198.88 565.25 188.96
  Z
  M 275.9952 180.9969
  A 0.72 0.72 0.0 0 0 275.2740 180.2782
  L 273.1940 180.2818
  A 0.72 0.72 0.0 0 0 272.4753 181.0031
  L 272.5248 209.3631
  A 0.72 0.72 0.0 0 0 273.2460 210.0818
  L 275.3260 210.0782
  A 0.72 0.72 0.0 0 0 276.0447 209.3569
  L 275.9952 180.9969
  Z
  M 485.54 206.11
  C 484.55 205.46 478.06 185.50 477.11 182.79
  C 476.37 180.66 475.34 179.25 472.93 180.51
  A 0.58 0.54 66.3 0 0 472.68 181.22
  L 483.63 209.22
  A 1.30 1.16 89.2 0 0 484.26 209.91
  Q 487.15 211.24 488.19 208.44
  Q 492.98 195.44 497.83 182.46
  C 498.47 180.73 499.24 179.92 496.13 180.33
  A 1.57 1.56 5.9 0 0 494.87 181.35
  L 486.20 205.88
  A 0.45 0.44 -63.7 0 1 485.54 206.11
  Z
  M 502.99 180.81
  A 0.56 0.56 0.0 0 0 502.43 180.25
  L 500.07 180.25
  A 0.56 0.56 0.0 0 0 499.51 180.81
  L 499.51 209.53
  A 0.56 0.56 0.0 0 0 500.07 210.09
  L 502.43 210.09
  A 0.56 0.56 0.0 0 0 502.99 209.53
  L 502.99 180.81
  Z
  M 535.3752 180.9169
  A 0.64 0.64 0.0 0 0 534.7341 180.2780
  L 532.3941 180.2821
  A 0.64 0.64 0.0 0 0 531.7552 180.9232
  L 531.8048 209.3631
  A 0.64 0.64 0.0 0 0 532.4459 210.0020
  L 534.7859 209.9979
  A 0.64 0.64 0.0 0 0 535.4248 209.3568
  L 535.3752 180.9169
  Z
  M 518.7916 187.5079
  A 1.04 0.39 -7.3 0 0 517.7104 187.2532
  A 1.04 0.39 -7.3 0 0 516.7284 187.7721
  A 1.04 0.39 -7.3 0 0 517.8096 188.0268
  A 1.04 0.39 -7.3 0 0 518.7916 187.5079
  Z
  M 519.74 202.30
  L 514.30 200.86
  Q 513.73 200.71 513.95 201.29
  C 514.62 203.06 518.24 203.33 519.71 202.91
  Q 520.85 202.59 519.74 202.30
  Z
  M 324.01 201.08
  C 323.36 201.18 316.73 200.63 318.50 202.18
  C 319.82 203.34 325.95 202.76 324.87 201.34
  A 1.00 0.71 -18.6 0 0 324.01 201.08
  Z
  M 464.07 201.80
  Q 464.76 201.33 463.92 201.31
  L 458.05 201.19
  Q 456.37 201.15 457.76 202.10
  Q 460.75 204.13 464.07 201.80
  Z
  M 239.54 201.71
  C 239.48 203.00 246.10 203.35 245.96 201.69
  A 0.72 0.48 -1.6 0 0 245.26 201.25
  L 240.24 201.25
  A 0.71 0.49 1.2 0 0 239.54 201.71
  Z
  M 429.32 201.81
  Q 429.97 201.32 429.17 201.31
  L 423.75 201.24
  A 0.65 0.43 -1.3 0 0 423.08 201.71
  Q 423.12 202.05 423.69 202.31
  Q 426.73 203.74 429.32 201.81
  Z"
/>
<path fill="#ffffff" d="
  M 510.17 78.06
  Q 513.37 77.31 517.70 77.92
  A 0.74 0.73 -2.2 0 1 518.32 78.49
  Q 519.11 81.87 516.29 82.01
  A 1.57 1.48 -0.5 0 0 514.80 83.44
  L 514.49 92.00
  A 1.40 0.90 78.7 0 1 514.15 92.87
  C 511.84 94.98 512.39 83.72 512.34 82.94
  A 0.60 0.56 2.5 0 0 511.81 82.40
  Q 508.45 82.01 509.52 78.66
  A 0.91 0.88 1.5 0 1 510.17 78.06
  Z"
/>
<path fill="#ffffff" d="
  M 466.03 81.41
  Q 465.22 83.86 467.48 84.76
  C 468.46 85.15 471.45 84.80 470.02 86.57
  A 1.10 1.02 18.2 0 1 469.19 86.95
  L 461.64 87.00
  A 1.20 1.17 4.3 0 0 460.47 87.98
  Q 459.76 92.10 462.75 91.50
  Q 464.56 91.13 469.45 91.69
  C 470.28 91.78 471.01 92.26 470.30 93.10
  A 1.30 0.81 10.5 0 1 469.43 93.44
  L 459.90 93.76
  A 1.72 1.45 -1.5 0 1 458.14 92.35
  L 458.06 86.88
  A 1.97 1.60 -5.6 0 1 459.74 85.22
  C 462.49 84.79 461.44 81.09 461.57 78.96
  A 1.03 1.02 87.2 0 1 462.43 78.01
  Q 466.29 77.43 469.69 77.98
  A 0.82 0.57 3.0 0 1 470.37 78.51
  Q 470.52 79.61 467.53 80.12
  A 1.94 1.91 -85.3 0 0 466.03 81.41
  Z"
/>
<path fill="#ffffff" d="
  M 473.79 77.84
  Q 474.24 77.54 474.68 77.99
  C 477.59 80.95 471.29 90.59 479.76 89.10
  A 1.20 0.96 -26.7 0 1 480.66 89.29
  Q 482.16 90.50 481.39 92.48
  A 1.02 0.96 2.5 0 1 480.71 93.07
  Q 477.33 93.98 473.92 93.18
  A 0.71 0.68 -86.7 0 1 473.39 92.56
  Q 472.78 85.61 473.39 78.68
  A 1.25 0.75 84.5 0 1 473.79 77.84
  Z"
/>
<path fill="#ffffff" d="
  M 491.52 83.88
  A 1.77 1.76 79.0 0 0 493.23 85.04
  Q 495.89 84.94 495.61 86.23
  A 0.71 0.66 5.1 0 1 494.94 86.75
  L 487.14 86.96
  A 1.80 1.56 8.2 0 0 485.58 87.96
  C 483.59 92.98 491.68 91.46 494.04 91.54
  C 496.11 91.61 496.50 93.50 494.17 93.50
  Q 489.69 93.50 484.93 93.50
  A 1.53 1.43 88.1 0 1 483.50 92.07
  L 483.21 87.21
  Q 483.09 85.26 484.88 85.08
  C 487.77 84.80 486.60 81.24 487.45 78.61
  A 1.23 1.22 -81.4 0 1 488.60 77.76
  Q 491.71 77.71 494.31 77.79
  C 496.16 77.85 496.39 79.59 494.40 79.70
  Q 490.07 79.93 491.52 83.88
  Z"
/>
<path fill="#ffffff" d="
  M 501.30 91.25
  C 501.98 91.33 507.92 91.09 507.78 92.69
  A 0.59 0.56 2.1 0 1 507.19 93.21
  L 499.27 93.24
  A 0.73 0.70 87.3 0 1 498.57 92.58
  Q 497.91 85.13 498.46 78.92
  A 1.20 1.12 -87.0 0 1 499.59 77.83
  L 507.01 77.94
  A 0.72 0.65 82.3 0 1 507.64 78.47
  Q 508.87 83.14 503.17 82.15
  Q 500.78 81.73 500.30 84.12
  Q 499.76 86.86 500.69 90.71
  A 0.72 0.70 85.8 0 0 501.30 91.25
  Z"
/>
<path fill="#ffffff" d="
  M 526.32 87.01
  A 1.98 1.96 -11.8 0 0 524.93 89.12
  Q 525.55 94.59 521.15 92.99
  A 0.86 0.79 -85.3 0 1 520.62 92.31
  Q 519.76 85.37 520.62 78.43
  A 0.62 0.57 -86.0 0 1 521.19 77.89
  L 529.82 77.89
  A 0.61 0.58 86.7 0 1 530.40 78.43
  L 530.97 83.25
  A 1.96 1.55 -72.6 0 0 531.31 84.14
  Q 534.21 87.99 532.61 92.72
  A 0.94 0.78 -83.0 0 1 531.96 93.33
  C 530.62 93.56 530.65 88.75 530.51 87.82
  A 0.79 0.76 -86.8 0 0 529.95 87.17
  Q 527.73 86.59 526.32 87.01
  Z
  M 528.6007 80.8998
  A 1.40 1.40 0.0 0 0 527.1598 79.5419
  L 523.8412 79.6404
  A 1.40 1.40 0.0 0 0 522.4834 81.0813
  L 522.5593 83.6402
  A 1.40 1.40 0.0 0 0 524.0002 84.9981
  L 527.3188 84.8996
  A 1.40 1.40 0.0 0 0 528.6766 83.4587
  L 528.6007 80.8998
  Z"
/>
<path fill="#ffffff" d="
  M 546.4036 92.2589
  A 1.22 1.22 0.0 0 1 545.1751 93.4704
  L 536.4153 93.4092
  A 1.22 1.22 0.0 0 1 535.2039 92.1807
  L 535.2964 78.9211
  A 1.22 1.22 0.0 0 1 536.5249 77.7096
  L 545.2847 77.7708
  A 1.22 1.22 0.0 0 1 546.4961 78.9993
  L 546.4036 92.2589
  Z
  M 544.2128 81.2709
  A 1.45 1.45 0.0 0 0 542.7502 79.8336
  L 538.9504 79.8668
  A 1.45 1.45 0.0 0 0 537.5131 81.3294
  L 537.5672 87.5291
  A 1.45 1.45 0.0 0 0 539.0298 88.9664
  L 542.8296 88.9332
  A 1.45 1.45 0.0 0 0 544.2669 87.4706
  L 544.2128 81.2709
  Z"
/>
<path fill="#ffffff" d="
  M 551.51 83.06
  C 551.38 84.31 551.81 94.01 549.94 93.26
  A 0.87 0.78 -80.2 0 1 549.46 92.50
  L 549.41 78.44
  A 0.54 0.53 -0.5 0 1 549.95 77.90
  L 558.51 77.79
  A 1.79 1.71 89.5 0 1 560.25 79.58
  Q 560.25 85.25 560.25 91.25
  Q 560.25 92.97 559.07 93.17
  A 0.64 0.58 76.8 0 1 558.41 92.71
  C 557.46 89.47 559.02 86.36 557.76 83.16
  A 0.83 0.72 78.6 0 0 557.07 82.63
  L 552.06 82.53
  A 0.58 0.54 -86.6 0 0 551.51 83.06
  Z"
/>
<path fill="#ffffff" d="
  M 564.24 88.20
  L 564.52 79.00
  A 1.26 0.83 78.5 0 1 564.86 78.16
  C 567.58 75.90 566.73 85.42 566.66 86.79
  Q 566.58 88.43 567.94 89.36
  Q 568.40 89.68 568.57 91.94
  A 0.89 0.78 85.9 0 1 567.85 92.89
  L 562.67 93.18
  A 0.87 0.59 74.7 0 1 561.99 92.60
  Q 560.90 89.79 563.71 88.83
  A 0.80 0.66 -10.5 0 0 564.24 88.20
  Z"
/>
<path fill="#ffffff" d="
  M 571.15 78.63
  A 1.09 1.08 -84.5 0 1 572.21 77.75
  Q 576.00 77.75 579.00 77.74
  Q 581.04 77.74 580.21 81.21
  A 1.53 1.35 3.0 0 1 578.89 82.25
  L 573.81 82.73
  A 0.78 0.72 -83.4 0 0 573.16 83.29
  Q 572.12 86.87 573.17 90.46
  A 0.86 0.65 82.0 0 0 573.79 91.08
  L 578.50 91.55
  A 1.21 0.55 -2.3 0 1 579.32 91.88
  C 581.46 94.78 571.75 93.22 571.43 93.16
  A 0.70 0.70 1.2 0 1 570.86 92.57
  Q 569.83 85.49 571.15 78.63
  Z"
/>
<path fill="#ffffff" d="
  M 588.60 90.71
  Q 589.04 89.15 588.50 87.65
  A 0.82 0.80 -6.7 0 0 587.81 87.12
  L 583.49 86.69
  A 1.00 0.90 3.7 0 1 582.58 85.76
  L 582.76 78.36
  A 0.69 0.63 0.9 0 1 583.45 77.75
  C 584.43 77.75 591.87 77.25 591.76 78.61
  A 1.73 1.73 -82.9 0 1 589.76 80.17
  Q 583.54 79.15 584.91 83.96
  A 0.92 0.92 1.0 0 0 585.54 84.59
  Q 588.12 85.32 591.33 84.93
  A 1.74 1.74 80.8 0 1 593.24 86.31
  Q 593.93 89.72 593.08 92.71
  A 0.75 0.74 4.0 0 1 592.45 93.25
  Q 587.20 93.85 581.93 93.36
  A 0.69 0.63 -1.4 0 1 581.32 92.83
  C 580.95 90.65 586.04 91.67 587.94 91.29
  A 0.87 0.81 1.8 0 0 588.60 90.71
  Z"
/>
<path fill="#ffffff" d="
  M 431.44 78.95
  A 0.73 0.72 -0.1 0 1 432.03 78.37
  Q 435.83 77.72 439.01 78.17
  A 1.43 1.09 -9.7 0 1 439.85 78.61
  C 441.36 80.45 434.90 79.07 435.84 83.84
  A 1.80 1.78 83.3 0 0 437.65 85.28
  Q 440.17 85.19 439.86 86.48
  A 0.83 0.65 -0.1 0 1 439.19 87.01
  C 436.23 87.40 427.71 85.61 430.10 90.99
  A 0.99 0.95 -5.6 0 0 430.80 91.54
  Q 434.48 92.28 438.25 91.94
  Q 440.71 91.72 439.73 93.28
  A 0.97 0.91 15.3 0 1 438.93 93.70
  L 429.08 93.69
  A 1.13 1.05 -2.2 0 1 427.96 92.73
  L 427.50 86.95
  A 1.86 1.55 -4.7 0 1 429.23 85.25
  C 432.46 85.00 430.97 81.27 431.44 78.95
  Z"
/>
<path fill="#ffffff" d="
  M 445.81 89.02
  L 450.44 89.33
  A 0.92 0.68 -7.0 0 1 451.17 89.74
  Q 451.93 91.30 451.37 92.97
  A 0.91 0.85 2.9 0 1 450.69 93.54
  C 448.41 93.97 442.45 94.95 442.62 91.25
  C 442.81 87.32 442.60 83.45 442.73 79.51
  A 1.67 1.25 72.0 0 1 443.04 78.60
  C 445.15 75.96 445.06 87.61 445.22 88.44
  A 0.71 0.62 85.7 0 0 445.81 89.02
  Z"
/>
<path fill="#ffffff" d="
  M 392.64 87.82
  Q 392.96 92.13 394.56 88.08
  L 397.99 79.39
  A 0.99 0.94 3.1 0 1 398.67 78.81
  Q 402.60 77.82 406.57 78.59
  A 0.64 0.61 5.3 0 1 407.09 79.18
  L 407.21 92.44
  A 0.98 0.96 -17.3 0 1 406.78 93.24
  Q 405.00 94.40 403.22 93.23
  A 1.05 1.00 14.8 0 1 402.74 92.45
  L 402.44 88.56
  A 0.83 0.71 -83.9 0 0 401.97 87.87
  Q 400.01 87.15 397.93 87.57
  A 1.11 0.95 4.4 0 0 397.19 88.11
  L 395.00 92.61
  A 1.85 0.98 -78.2 0 1 394.39 93.34
  C 392.03 94.75 390.58 93.33 390.55 90.85
  C 390.54 90.74 390.85 79.16 389.28 82.48
  C 388.17 84.85 386.98 90.93 383.13 89.05
  A 1.19 0.81 13.5 0 1 382.50 88.36
  L 381.45 83.55
  A 1.02 0.63 87.5 0 0 380.98 82.86
  C 376.86 81.21 378.30 89.11 378.20 92.44
  A 1.28 1.01 74.1 0 1 377.85 93.30
  C 374.79 96.04 376.12 80.30 376.16 79.44
  A 0.81 0.78 81.6 0 1 376.66 78.74
  Q 379.53 77.63 382.47 78.64
  A 0.87 0.87 -86.5 0 1 383.04 79.29
  C 383.24 80.22 383.80 86.81 384.76 86.43
  A 1.38 0.84 -79.3 0 0 385.39 85.73
  C 386.62 83.00 387.27 78.30 391.02 78.25
  A 1.46 1.46 32.5 0 1 392.50 79.73
  Q 392.42 84.86 392.64 87.82
  Z
  M 398.54 82.98
  Q 397.37 85.31 399.71 85.26
  L 404.19 85.16
  A 1.28 1.20 -81.0 0 0 405.32 84.28
  Q 406.46 80.81 403.78 80.31
  C 400.64 79.74 399.89 80.28 398.54 82.98
  Z"
/>
<path fill="#ffffff" d="
  M 420.95 82.69
  Q 418.32 82.11 415.79 82.90
  A 0.72 0.71 82.2 0 0 415.29 83.57
  L 415.01 92.26
  A 1.35 1.02 74.6 0 1 414.67 93.11
  C 412.30 95.39 412.87 84.53 412.80 83.82
  A 1.51 1.51 -6.2 0 0 411.10 82.46
  C 407.90 82.86 407.94 78.03 411.21 78.20
  C 416.41 78.47 421.73 78.24 426.95 78.30
  A 1.06 0.94 -15.5 0 1 427.75 78.69
  Q 429.14 80.51 427.56 82.10
  A 1.66 0.63 -2.8 0 1 426.69 82.48
  L 424.78 82.90
  A 0.78 0.65 88.6 0 0 424.26 83.56
  C 424.17 84.44 424.67 95.42 422.33 93.12
  A 1.43 1.02 -76.3 0 1 421.98 92.25
  L 421.47 83.32
  A 0.69 0.67 -85.6 0 0 420.95 82.69
  Z"
/>
<rect fill="#002e8b" x="-3.06" y="-2.68" transform="translate(525.58,82.27) rotate(-1.7)" width="6.12" height="5.36" rx="1.40"/>
<rect fill="#002e8b" x="-3.35" y="-4.55" transform="translate(540.89,84.40) rotate(-0.5)" width="6.70" height="9.10" rx="1.45"/>
<path fill="#002e8b" d="
  M 398.54 82.98
  C 399.89 80.28 400.64 79.74 403.78 80.31
  Q 406.46 80.81 405.32 84.28
  A 1.28 1.20 -81.0 0 1 404.19 85.16
  L 399.71 85.26
  Q 397.37 85.31 398.54 82.98
  Z"
/>
<rect fill="#ffffff" x="6.25" y="84.73" width="24.68" height="78.78" rx="0.26"/>
<path fill="#ffffff" d="
  M 129.06 152.43
  L 139.44 152.77
  A 0.61 0.60 87.1 0 1 140.01 153.30
  Q 140.73 158.05 140.13 162.82
  A 0.59 0.59 -87.1 0 1 139.57 163.33
  C 133.17 163.56 110.05 166.17 108.55 157.04
  Q 108.50 156.73 108.50 152.95
  Q 108.50 133.60 108.50 114.24
  Q 108.50 111.59 105.85 111.55
  L 99.07 111.45
  A 0.53 0.53 0.0 0 1 98.55 110.93
  L 98.50 101.19
  A 0.64 0.63 -5.5 0 1 99.02 100.57
  Q 101.11 100.15 102.37 99.42
  Q 115.06 92.06 127.78 84.83
  A 0.32 0.31 75.3 0 1 128.25 85.11
  L 128.25 99.94
  A 0.56 0.56 0.0 0 0 128.81 100.50
  L 139.34 100.50
  A 0.60 0.59 -3.9 0 1 139.93 101.01
  Q 140.61 105.75 139.86 110.99
  A 0.60 0.59 3.9 0 1 139.27 111.50
  C 136.41 111.50 133.81 111.56 131.26 111.42
  C 127.59 111.21 128.27 113.92 128.24 116.44
  Q 128.03 134.19 128.55 151.93
  A 0.52 0.51 0.0 0 0 129.06 152.43
  Z"
/>
<path fill="#ffffff" d="
  M 317.54 102.50
  Q 317.54 104.37 318.71 105.75
  L 331.67 142.77
  Q 332.47 145.06 333.25 142.76
  L 352.68 85.23
  A 0.71 0.70 9.1 0 1 353.35 84.75
  L 363.37 84.75
  A 0.40 0.39 -80.1 0 1 363.74 85.28
  Q 352.31 118.14 341.26 150.96
  C 338.73 158.47 334.94 164.34 326.00 163.50
  Q 317.63 162.72 314.69 154.56
  Q 305.22 128.24 296.14 101.79
  Q 295.79 100.78 295.72 102.01
  Q 295.43 107.00 295.51 112.71
  A 0.54 0.53 -0.5 0 1 294.97 113.25
  L 276.06 113.25
  A 0.56 0.56 0.0 0 1 275.50 112.69
  L 275.50 101.02
  A 0.52 0.52 -90.0 0 1 276.02 100.50
  L 316.26 100.50
  A 1.03 0.85 -14.1 0 1 317.06 100.88
  Q 317.55 101.58 317.54 102.50
  Z"
/>
<path fill="#ffffff" d="
  M 82.95 130.56
  Q 83.38 127.98 82.79 125.50
  L 82.80 101.32
  A 0.57 0.57 86.6 0 1 83.30 100.75
  Q 89.12 100.09 94.94 100.75
  A 0.56 0.55 4.0 0 1 95.43 101.31
  Q 95.26 126.33 95.25 151.35
  Q 95.25 155.65 93.93 157.87
  C 90.90 162.97 83.38 165.15 78.19 162.51
  Q 75.94 161.36 72.16 156.59
  Q 62.87 144.86 53.78 133.50
  Q 52.50 131.89 52.50 133.95
  L 52.50 163.08
  A 0.51 0.49 0.0 0 1 51.99 163.57
  L 40.26 163.69
  A 0.56 0.53 -0.0 0 1 39.69 163.15
  Q 39.77 142.29 39.76 121.76
  Q 39.75 110.53 40.41 108.29
  Q 42.85 100.00 53.93 100.49
  Q 56.70 100.61 58.68 102.55
  Q 61.86 105.68 64.57 109.21
  Q 72.98 120.15 81.75 130.81
  A 0.75 0.49 52.8 0 0 82.54 131.09
  Q 82.79 130.94 82.95 130.56
  Z"
/>
<path fill="#ffffff" d="
  M 166.05 126.44
  L 192.41 126.50
  A 0.59 0.55 -0.5 0 1 193.00 127.04
  L 193.23 136.52
  A 1.05 0.99 -2.4 0 1 192.24 137.53
  Q 182.13 138.04 171.50 137.45
  Q 168.75 137.30 166.04 137.73
  A 0.59 0.58 85.4 0 0 165.55 138.31
  L 165.51 150.18
  Q 165.50 152.50 167.81 152.53
  L 192.70 152.81
  A 0.51 0.50 0.6 0 1 193.20 153.31
  L 193.20 162.94
  A 0.52 0.50 -0.0 0 1 192.68 163.44
  Q 174.30 163.67 155.92 163.36
  Q 152.89 163.30 151.09 162.48
  C 143.19 158.87 145.50 153.09 145.50 146.21
  Q 145.50 131.28 145.50 116.36
  C 145.50 113.69 144.26 108.01 146.56 105.19
  Q 150.37 100.51 157.00 100.50
  Q 179.65 100.45 192.57 100.68
  A 0.53 0.52 0.0 0 1 193.09 101.19
  L 193.25 110.58
  A 0.94 0.91 -0.3 0 1 192.31 111.50
  L 167.23 111.50
  A 1.51 1.43 0.4 0 0 165.72 112.91
  L 165.54 125.95
  A 0.51 0.49 0.0 0 0 166.05 126.44
  Z"
/>
<path fill="#ffffff" d="
  M 222.48 152.46
  L 232.19 152.56
  A 0.53 0.50 0.6 0 1 232.71 153.06
  L 232.71 162.93
  A 0.52 0.51 -0.0 0 1 232.19 163.44
  C 221.61 163.55 201.39 166.73 201.21 154.60
  Q 200.82 128.50 201.01 101.27
  A 0.77 0.77 0.5 0 1 201.78 100.50
  L 220.44 100.56
  A 0.50 0.50 0.0 0 1 220.94 101.06
  L 221.00 150.94
  A 1.52 1.50 -89.6 0 0 222.48 152.46
  Z"
/>
<path fill="#ffffff" d="
  M 270.19 161.96
  C 270.95 164.03 269.03 163.49 267.92 163.51
  Q 254.20 163.82 248.00 163.50
  C 243.41 163.26 238.59 160.40 238.55 155.26
  Q 238.33 128.17 238.31 101.18
  A 0.68 0.68 0.0 0 1 238.99 100.50
  L 257.57 100.56
  A 0.69 0.68 90.0 0 1 258.25 101.25
  L 258.25 150.70
  A 1.66 1.65 5.0 0 0 259.62 152.33
  Q 263.49 153.00 269.22 152.70
  A 0.57 0.57 -6.1 0 1 269.82 153.18
  Q 270.55 157.56 270.07 161.01
  Q 270.01 161.46 270.19 161.96
  Z"
/>
<rect fill="#ffffff" x="-9.88" y="-6.37" transform="translate(369.37,106.87) rotate(0.1)" width="19.76" height="12.74" rx="0.42"/>
<path fill="#ffffff" d="
  M 413.09 151.45
  Q 414.48 146.81 410.56 144.55
  C 403.81 140.64 397.95 136.19 395.00 134.00
  Q 386.69 127.82 387.53 117.25
  C 388.16 109.25 393.69 100.57 402.50 100.54
  Q 418.50 100.50 434.50 100.50
  A 0.50 0.50 0.0 0 1 435.00 101.00
  L 435.00 111.00
  A 0.50 0.50 0.0 0 1 434.50 111.50
  L 411.09 111.50
  A 1.76 1.75 16.8 0 0 409.63 112.28
  Q 407.42 115.54 410.51 117.97
  Q 418.23 124.03 426.09 129.90
  C 430.12 132.90 433.45 136.89 434.45 141.89
  C 436.54 152.38 430.12 163.45 418.46 163.52
  Q 403.62 163.61 387.94 163.49
  A 0.51 0.51 -89.7 0 1 387.43 162.98
  L 387.56 153.07
  A 0.49 0.48 -88.9 0 1 388.06 152.58
  C 394.90 152.80 406.06 153.93 412.47 152.09
  A 0.94 0.90 -89.6 0 0 413.09 151.45
  Z"
/>
<rect fill="#ffffff" x="442.85" y="100.51" width="19.90" height="12.74" rx="0.36"/>
<path fill="#ffffff" d="
  M 531.71 132.07
  A 31.64 31.64 0.0 0 1 500.07 163.71
  A 31.64 31.64 0.0 0 1 468.43 132.07
  A 31.64 31.64 0.0 0 1 500.07 100.43
  A 31.64 31.64 0.0 0 1 531.71 132.07
  Z
  M 494.61 113.68
  C 488.77 120.57 488.64 145.36 495.06 150.94
  Q 498.30 153.75 502.32 152.31
  C 508.85 149.97 509.33 141.70 509.56 136.04
  C 509.86 128.55 510.65 109.08 497.87 111.75
  Q 495.91 112.16 494.61 113.68
  Z"
/>
<path fill="#ffffff" d="
  M 578.83 130.70
  Q 580.23 132.51 580.24 130.21
  L 580.43 101.19
  A 0.53 0.52 -90.0 0 1 580.95 100.66
  L 592.11 100.52
  A 0.66 0.63 89.6 0 1 592.75 101.18
  Q 592.75 127.38 592.75 153.00
  C 592.75 161.40 582.21 166.03 575.45 162.39
  Q 573.07 161.10 568.44 155.21
  C 563.10 148.40 550.88 132.58 550.23 132.79
  A 0.87 0.56 84.7 0 0 549.82 133.57
  L 549.99 163.10
  A 0.52 0.48 -1.1 0 1 549.48 163.59
  L 538.00 163.68
  A 0.75 0.70 0.0 0 1 537.25 162.98
  Q 537.25 137.25 537.30 111.75
  C 537.31 101.44 551.55 96.02 557.80 104.21
  C 564.62 113.16 571.92 121.79 578.83 130.70
  Z"
/>
<path fill="#9db2ce" d="
  M 317.54 102.50
  Q 318.78 103.87 318.71 105.75
  Q 317.54 104.37 317.54 102.50
  Z"
/>
<path fill="#002e8b" d="
  M 494.61 113.68
  Q 495.91 112.16 497.87 111.75
  C 510.65 109.08 509.86 128.55 509.56 136.04
  C 509.33 141.70 508.85 149.97 502.32 152.31
  Q 498.30 153.75 495.06 150.94
  C 488.64 145.36 488.77 120.57 494.61 113.68
  Z
  M 497.56 119.53
  Q 493.96 132.80 497.80 146.09
  A 1.52 1.41 -81.4 0 0 498.33 146.87
  C 505.71 152.30 503.98 127.38 503.86 125.10
  C 503.72 122.65 502.95 120.22 502.22 117.91
  A 1.24 1.09 -88.4 0 0 501.63 117.20
  C 499.09 115.96 498.18 117.22 497.56 119.53
  Z"
/>
<path fill="#ffffff" d="
  M 275.54 162.25
  Q 276.68 156.38 275.46 150.50
  L 275.55 120.81
  A 0.51 0.50 -89.4 0 1 276.05 120.31
  L 294.62 120.25
  A 0.88 0.88 0.0 0 1 295.50 121.13
  L 295.50 162.97
  A 0.56 0.54 -0.0 0 1 294.94 163.51
  L 276.07 163.67
  A 0.56 0.45 0.4 0 1 275.50 163.20
  L 275.54 162.25
  Z"
/>
<rect fill="#ffffff" x="359.49" y="120.25" width="19.82" height="43.28" rx="0.26"/>
<rect fill="#ffffff" x="-9.89" y="-21.65" transform="translate(452.86,141.91) rotate(0.1)" width="19.78" height="43.30" rx="0.27"/>
<path fill="#5670a3" d="
  M 82.79 125.50
  Q 83.38 127.98 82.95 130.56
  Q 81.94 127.95 82.79 125.50
  Z"
/>
<path fill="#9db2ce" d="
  M 275.46 150.50
  Q 276.68 156.38 275.54 162.25
  Q 274.92 156.38 275.46 150.50
  Z"
/>
<rect fill="#ffffff" x="179.51" y="168.50" width="3.98" height="41.56" rx="0.42"/>
<rect fill="#ffffff" x="257.50" y="168.52" width="3.50" height="41.60" rx="0.56"/>
<rect fill="#ffffff" x="265.23" y="168.55" width="3.28" height="41.42" rx="0.27"/>
<rect fill="#ffffff" x="-1.77" y="-2.92" transform="translate(274.28,171.43) rotate(0.7)" width="3.54" height="5.84" rx="0.43"/>
<path fill="#ffffff" d="
  M 401.44 171.80
  C 397.42 171.74 392.68 171.35 388.74 171.87
  Q 386.99 172.10 387.65 169.04
  A 0.69 0.69 -83.7 0 1 388.32 168.50
  L 419.69 168.56
  A 0.70 0.64 -7.1 0 1 420.35 169.03
  Q 420.70 170.28 420.17 171.49
  A 0.83 0.70 10.6 0 1 419.43 171.91
  L 406.33 171.75
  A 0.59 0.57 -89.5 0 0 405.75 172.34
  L 405.75 209.36
  A 0.63 0.61 90.0 0 1 405.14 209.99
  L 402.56 209.97
  A 0.53 0.50 90.0 0 1 402.06 209.44
  L 401.94 172.31
  A 0.51 0.51 0.6 0 0 401.44 171.80
  Z"
/>
<rect fill="#ffffff" x="441.24" y="168.53" width="3.26" height="41.56" rx="0.46"/>
<rect fill="#ffffff" x="-1.75" y="-2.86" transform="translate(501.25,171.40) rotate(-0.4)" width="3.50" height="5.72" rx="0.51"/>
<rect fill="#ffffff" x="-1.83" y="-2.86" transform="translate(533.59,171.39) rotate(-1.0)" width="3.66" height="5.72" rx="0.27"/>
<path fill="#ffffff" d="
  M 369.75 171.29
  L 370.04 178.50
  C 368.92 182.20 376.67 178.14 376.00 181.96
  Q 375.16 183.28 373.50 183.21
  L 370.65 183.27
  Q 370.41 183.10 370.09 183.38
  A 1.20 0.88 75.1 0 0 369.75 184.25
  L 370.24 206.01
  Q 371.52 207.97 374.62 207.31
  A 1.55 1.53 -10.6 0 1 376.46 208.56
  C 376.90 211.20 365.49 212.39 366.50 202.50
  Q 366.84 199.14 366.33 183.94
  A 0.59 0.54 -89.5 0 0 365.82 183.38
  L 362.32 183.18
  A 0.83 0.68 -6.5 0 1 361.62 182.73
  Q 360.41 179.54 365.11 180.36
  A 1.21 1.20 -85.2 0 0 366.51 179.16
  L 366.55 171.81
  A 0.69 0.67 82.2 0 1 367.03 171.15
  Q 368.37 170.76 369.75 171.29
  Z"
/>
<path fill="#ffffff" d="
  M 218.44 179.69
  L 218.72 172.01
  A 0.66 0.53 89.8 0 1 219.22 171.38
  L 221.69 171.24
  A 0.56 0.50 89.1 0 1 222.22 171.81
  L 222.11 178.83
  A 1.55 1.46 1.6 0 0 223.61 180.32
  L 227.69 180.44
  A 0.72 0.62 85.9 0 1 228.29 181.05
  Q 228.68 183.87 224.19 183.06
  Q 222.03 182.67 222.10 184.86
  Q 222.36 192.85 222.27 201.93
  C 222.24 205.35 221.70 208.25 226.25 207.51
  Q 229.01 207.07 228.18 209.54
  A 0.90 0.85 3.1 0 1 227.51 210.11
  Q 224.10 210.80 220.89 209.29
  Q 219.10 208.45 218.96 206.48
  Q 218.18 195.39 218.48 184.41
  A 1.28 1.28 85.3 0 0 216.95 183.11
  Q 212.57 183.97 213.58 180.72
  A 0.72 0.67 7.9 0 1 214.24 180.26
  L 217.95 180.21
  A 0.54 0.50 -89.3 0 0 218.44 179.69
  Z"
/>
<path fill="#5670a3" d="
  M 369.75 171.29
  Q 371.40 174.80 370.04 178.50
  L 369.75 171.29
  Z"
/>
<path fill="#ffffff" d="
  M 232.67 196.69
  C 232.36 208.88 247.88 212.65 251.98 201.12
  Q 252.44 199.81 254.74 200.46
  A 0.53 0.52 14.9 0 1 255.11 201.09
  Q 252.98 209.33 245.00 210.50
  C 230.19 212.66 225.77 196.68 231.06 186.06
  C 234.46 179.24 243.95 177.18 249.99 181.83
  C 253.77 184.74 255.85 190.31 255.54 195.07
  A 1.01 1.00 1.8 0 1 254.53 196.01
  L 233.20 196.17
  A 0.53 0.53 -89.4 0 0 232.67 196.69
  Z
  M 252.06 192.56
  C 251.76 179.21 234.21 178.56 232.50 192.51
  A 0.61 0.60 -86.6 0 0 233.10 193.19
  L 251.56 193.06
  A 0.50 0.49 -0.6 0 0 252.06 192.56
  Z"
/>
<path fill="#ffffff" d="
  M 301.19 204.65
  C 298.79 207.65 296.02 209.59 292.00 209.64
  C 274.76 209.87 273.88 182.04 290.06 179.53
  C 294.26 178.88 297.83 180.33 300.49 183.52
  Q 302.42 185.84 301.83 181.52
  A 1.02 1.02 -9.6 0 1 302.64 180.38
  C 305.85 179.71 305.48 180.75 305.51 183.02
  Q 305.68 198.48 305.25 210.25
  C 304.75 223.93 285.21 226.01 280.00 214.65
  A 1.15 1.15 -14.6 0 1 280.96 213.02
  C 283.66 212.82 283.20 214.28 284.40 215.64
  Q 288.69 220.50 295.00 218.75
  C 301.39 216.98 301.59 212.45 301.94 206.60
  Q 302.00 205.62 301.69 204.71
  Q 301.52 204.24 301.19 204.65
  Z
  M 291.7979 206.9791
  A 12.45 10.03 90.7 0 0 301.9793 194.6525
  A 12.45 10.03 90.7 0 0 292.1021 182.0809
  A 12.45 10.03 90.7 0 0 281.9207 194.4075
  A 12.45 10.03 90.7 0 0 291.7979 206.9791
  Z"
/>
<path fill="#ffffff" d="
  M 311.25 197.02
  C 311.30 208.36 325.67 212.68 330.31 201.56
  Q 331.27 199.28 333.58 200.50
  A 0.63 0.60 -68.2 0 1 333.87 201.22
  Q 330.77 211.88 319.24 210.55
  C 308.59 209.33 306.04 197.40 308.75 188.50
  C 313.50 172.90 335.40 178.15 334.23 195.44
  A 0.54 0.53 -87.7 0 1 333.70 195.94
  L 312.27 196.00
  A 1.02 1.02 -89.8 0 0 311.25 197.02
  Z
  M 330.79 192.09
  C 329.18 178.68 313.04 179.14 311.38 192.42
  A 0.79 0.77 3.2 0 0 312.17 193.29
  L 329.97 193.00
  A 0.84 0.81 -4.0 0 0 330.79 192.09
  Z"
/>
<path fill="#ffffff" d="
  M 355.75 180.54
  L 359.71 184.75
  L 359.79 185.25
  L 360.71 196.50
  L 360.50 208.50
  A 1.99 1.44 -9.1 0 1 359.00 210.00
  C 356.36 210.68 356.99 208.84 357.01 207.32
  Q 357.31 190.92 356.50 187.00
  Q 355.71 183.17 350.93 182.66
  C 341.62 181.66 339.87 187.34 339.75 195.41
  Q 339.65 202.42 339.45 209.43
  A 0.56 0.50 -88.9 0 1 338.94 209.98
  L 336.80 209.95
  A 0.59 0.56 -89.5 0 1 336.25 209.36
  Q 336.22 195.72 336.25 182.44
  C 336.25 180.09 336.15 179.78 339.10 180.53
  A 0.75 0.74 -76.1 0 1 339.64 181.44
  Q 339.23 183.08 339.73 184.08
  A 0.37 0.34 -39.4 0 0 340.32 184.11
  Q 346.46 176.80 355.75 180.54
  Z"
/>
<path fill="#ffffff" d="
  M 415.94 197.23
  C 416.62 203.55 420.33 208.76 427.52 207.92
  Q 433.02 207.27 434.79 202.06
  Q 435.55 199.79 438.06 200.26
  A 0.69 0.69 12.6 0 1 438.60 201.11
  Q 436.47 209.48 428.25 210.48
  C 404.17 213.41 409.57 171.96 430.74 180.24
  C 436.58 182.52 439.29 189.22 439.01 195.29
  A 0.75 0.74 1.2 0 1 438.26 196.00
  L 417.05 196.00
  A 1.12 1.11 -3.0 0 0 415.94 197.23
  Z
  M 435.57 192.41
  C 434.14 178.83 417.85 178.78 416.12 192.50
  A 0.69 0.68 3.3 0 0 416.81 193.26
  L 434.87 193.18
  A 0.70 0.70 -2.9 0 0 435.57 192.41
  Z"
/>
<path fill="#ffffff" d="
  M 451.71 196.06
  A 1.12 1.11 85.8 0 0 450.61 197.34
  Q 452.11 207.26 460.26 207.83
  C 465.25 208.18 468.01 206.02 469.75 201.50
  Q 470.55 199.41 473.04 200.31
  A 0.59 0.56 -73.6 0 1 473.39 200.99
  C 470.20 214.36 451.88 213.82 448.00 201.25
  C 446.52 196.45 447.07 189.56 449.67 185.30
  C 453.81 178.52 464.14 176.97 469.79 183.38
  Q 474.21 188.40 473.55 195.51
  A 0.56 0.53 2.2 0 1 472.99 196.00
  L 451.71 196.06
  Z
  M 470.27 192.18
  C 468.78 178.36 451.13 179.53 450.82 192.68
  A 0.49 0.48 1.1 0 0 451.31 193.18
  L 469.35 193.18
  A 0.92 0.90 -3.1 0 0 470.27 192.18
  Z"
/>
<path fill="#ffffff" d="
  M 506.47 186.39
  C 507.65 181.39 511.64 179.82 516.44 179.44
  Q 525.56 178.72 528.33 187.51
  A 0.85 0.84 74.8 0 1 527.72 188.59
  Q 525.04 189.19 524.57 187.34
  C 523.03 181.32 513.23 180.40 510.22 185.21
  C 506.63 190.94 517.37 193.24 520.57 193.62
  C 532.95 195.11 531.86 209.63 519.41 210.58
  C 512.56 211.11 506.59 209.15 505.38 201.31
  A 0.68 0.67 73.4 0 1 505.76 200.59
  C 508.83 199.24 508.61 201.95 509.48 203.58
  C 512.50 209.23 525.11 209.94 525.80 202.44
  C 526.64 193.38 503.58 198.65 506.47 186.39
  Z"
/>
<path fill="#ffffff" d="
  M 572.21 189.00
  Q 571.24 198.46 571.99 208.02
  Q 572.11 210.53 569.01 209.83
  A 0.64 0.63 6.2 0 1 568.51 209.21
  L 568.50 181.08
  A 0.67 0.66 -7.4 0 1 569.00 180.44
  C 573.68 179.24 570.90 182.47 571.90 184.27
  A 0.36 0.35 -40.7 0 0 572.49 184.30
  Q 577.94 177.58 585.86 179.86
  C 589.81 181.00 592.27 183.96 592.50 188.00
  Q 592.99 196.47 592.70 208.94
  A 1.05 0.91 75.8 0 1 592.29 209.75
  Q 591.14 210.51 589.70 209.95
  A 0.75 0.69 -80.5 0 1 589.25 209.26
  C 589.25 203.88 590.55 189.13 587.54 185.11
  C 583.05 179.10 574.73 183.03 572.21 189.00
  Z"
/>
<path fill="#ffffff" d="
  M 193.21 187.00
  C 190.80 191.84 191.70 196.61 191.54 201.00
  Q 191.38 205.24 192.01 209.56
  Q 190.10 210.32 188.80 210.07
  A 0.64 0.60 -85.1 0 1 188.31 209.45
  L 188.25 181.26
  A 0.74 0.73 -7.1 0 1 188.81 180.55
  C 193.78 179.29 190.98 182.40 191.72 184.49
  Q 191.90 184.98 192.23 184.53
  Q 196.73 178.38 204.25 179.50
  C 211.75 180.62 212.49 185.97 212.46 192.89
  Q 212.43 200.91 212.67 208.93
  A 1.03 0.68 79.2 0 1 212.32 209.77
  Q 211.55 210.23 209.87 209.75
  A 0.86 0.86 -82.2 0 1 209.26 208.94
  Q 209.11 199.37 208.89 190.25
  C 208.65 180.31 196.77 179.89 193.21 187.00
  Z"
/>
<path fill="#ffffff" d="
  M 563.29 185.50
  Q 563.79 187.50 565.25 188.96
  C 568.19 198.88 563.42 210.93 551.52 210.63
  C 534.31 210.19 532.54 183.26 549.40 179.60
  Q 557.38 177.87 563.29 185.50
  Z
  M 551.8300 208.0400
  A 12.93 10.73 90.0 0 0 562.5600 195.1100
  A 12.93 10.73 90.0 0 0 551.8300 182.1800
  A 12.93 10.73 90.0 0 0 541.1000 195.1100
  A 12.93 10.73 90.0 0 0 551.8300 208.0400
  Z"
/>
<rect fill="#ffffff" x="-1.76" y="-14.90" transform="translate(274.26,195.18) rotate(-0.1)" width="3.52" height="29.80" rx="0.72"/>
<path fill="#ffffff" d="
  M 485.54 206.11
  A 0.45 0.44 -63.7 0 0 486.20 205.88
  L 494.87 181.35
  A 1.57 1.56 5.9 0 1 496.13 180.33
  C 499.24 179.92 498.47 180.73 497.83 182.46
  Q 492.98 195.44 488.19 208.44
  Q 487.15 211.24 484.26 209.91
  A 1.30 1.16 89.2 0 1 483.63 209.22
  L 472.68 181.22
  A 0.58 0.54 66.3 0 1 472.93 180.51
  C 475.34 179.25 476.37 180.66 477.11 182.79
  C 478.06 185.50 484.55 205.46 485.54 206.11
  Z"
/>
<rect fill="#ffffff" x="499.51" y="180.25" width="3.48" height="29.84" rx="0.56"/>
<rect fill="#ffffff" x="-1.81" y="-14.86" transform="translate(533.59,195.14) rotate(-0.1)" width="3.62" height="29.72" rx="0.64"/>
<path fill="#5670a3" d="
  M 355.75 180.54
  Q 358.92 181.46 359.71 184.75
  L 355.75 180.54
  Z"
/>
<path fill="#9db2ce" d="
  M 376.00 181.96
  Q 376.43 184.11 373.50 183.21
  Q 375.16 183.28 376.00 181.96
  Z"
/>
<path fill="#002e8b" d="
  M 232.50 192.51
  C 234.21 178.56 251.76 179.21 252.06 192.56
  A 0.50 0.49 -0.6 0 1 251.56 193.06
  L 233.10 193.19
  A 0.61 0.60 -86.6 0 1 232.50 192.51
  Z
  M 241.00 187.98
  C 247.73 187.64 241.31 186.42 240.63 187.52
  Q 240.33 188.01 241.00 187.98
  Z"
/>
<path fill="#002e8b" d="
  M 291.7979 206.9791
  A 12.45 10.03 90.7 0 1 281.9207 194.4075
  A 12.45 10.03 90.7 0 1 292.1021 182.0809
  A 12.45 10.03 90.7 0 1 301.9793 194.6525
  A 12.45 10.03 90.7 0 1 291.7979 206.9791
  Z
  M 290.52 187.66
  C 286.04 189.80 286.89 197.05 289.04 200.51
  A 1.63 1.49 83.5 0 0 289.76 201.14
  C 296.83 204.12 296.10 196.53 296.00 192.36
  C 295.92 189.04 294.14 185.93 290.52 187.66
  Z"
/>
<path fill="#002e8b" d="
  M 311.38 192.42
  C 313.04 179.14 329.18 178.68 330.79 192.09
  A 0.84 0.81 -4.0 0 1 329.97 193.00
  L 312.17 193.29
  A 0.79 0.77 3.2 0 1 311.38 192.42
  Z
  M 319.88 187.43
  C 318.36 188.87 327.19 187.07 320.58 187.18
  A 1.14 0.78 14.7 0 0 319.88 187.43
  Z"
/>
<path fill="#002e8b" d="
  M 416.12 192.50
  C 417.85 178.78 434.14 178.83 435.57 192.41
  A 0.70 0.70 -2.9 0 1 434.87 193.18
  L 416.81 193.26
  A 0.69 0.68 3.3 0 1 416.12 192.50
  Z
  M 427.7178 187.3301
  A 1.64 0.49 -7.0 0 0 426.0303 187.0437
  A 1.64 0.49 -7.0 0 0 424.4622 187.7299
  A 1.64 0.49 -7.0 0 0 426.1497 188.0163
  A 1.64 0.49 -7.0 0 0 427.7178 187.3301
  Z"
/>
<path fill="#002e8b" d="
  M 450.82 192.68
  C 451.13 179.53 468.78 178.36 470.27 192.18
  A 0.92 0.90 -3.1 0 1 469.35 193.18
  L 451.31 193.18
  A 0.49 0.48 1.1 0 1 450.82 192.68
  Z
  M 460.39 187.14
  C 456.21 187.57 460.54 188.24 461.31 187.85
  Q 463.34 186.82 460.39 187.14
  Z"
/>
<path fill="#002e8b" d="
  M 551.8300 208.0400
  A 12.93 10.73 90.0 0 1 541.1000 195.1100
  A 12.93 10.73 90.0 0 1 551.8300 182.1800
  A 12.93 10.73 90.0 0 1 562.5600 195.1100
  A 12.93 10.73 90.0 0 1 551.8300 208.0400
  Z
  M 549.74 187.80
  C 545.95 190.28 545.07 201.65 551.02 202.63
  C 560.74 204.24 557.46 182.73 549.74 187.80
  Z"
/>
<path fill="#5670a3" d="
  M 370.65 183.27
  L 370.24 206.01
  L 369.75 184.25
  A 1.20 0.88 75.1 0 1 370.09 183.38
  Q 370.41 183.10 370.65 183.27
  Z"
/>
<path fill="#9db2ce" d="
  M 359.79 185.25
  Q 361.37 190.75 360.71 196.50
  L 359.79 185.25
  Z"
/>
<path fill="#9db2ce" d="
  M 563.29 185.50
  Q 565.06 186.77 565.25 188.96
  Q 563.79 187.50 563.29 185.50
  Z"
/>
<path fill="#5670a3" d="
  M 193.21 187.00
  L 192.01 209.56
  Q 191.38 205.24 191.54 201.00
  C 191.70 196.61 190.80 191.84 193.21 187.00
  Z"
/>
<path fill="#5670a3" d="
  M 572.21 189.00
  L 571.99 208.02
  Q 571.24 198.46 572.21 189.00
  Z"
/>
</svg>
