<?xml version="1.0" encoding="UTF-8" standalone="no"?>
<!DOCTYPE svg PUBLIC "-//W3C//DTD SVG 1.1//EN" "http://www.w3.org/Graphics/SVG/1.1/DTD/svg11.dtd">
<svg xmlns="http://www.w3.org/2000/svg" version="1.1" viewBox="0 0 600 300">
<path fill="#000000" d="
  M 269.82 165.95
  Q 269.82 167.32 270.78 166.35
  L 367.40 69.22
  Q 368.00 68.62 368.00 69.47
  L 367.49 122.66
  Q 367.48 123.78 368.26 122.98
  L 421.75 68.87
  Q 422.56 68.05 422.56 69.20
  L 422.44 150.11
  Q 422.44 151.32 423.29 150.46
  L 502.10 71.52
  A 1.79 1.77 22.3 0 1 503.36 71.00
  L 596.55 70.56
  Q 597.36 70.56 596.80 71.14
  L 569.46 99.95
  A 3.35 3.28 -67.9 0 1 567.05 101.00
  L 520.00 101.00
  A 1.24 1.09 19.1 0 0 519.14 101.35
  L 507.59 113.50
  Q 507.08 114.03 507.83 114.05
  L 529.91 114.52
  Q 530.92 114.55 530.22 115.26
  L 500.29 145.83
  A 1.19 1.18 -67.8 0 1 499.44 146.19
  Q 480.98 146.37 475.50 146.00
  C 472.31 145.78 472.47 146.38 470.11 148.79
  Q 464.87 154.15 459.12 159.49
  Q 457.97 160.55 459.53 160.56
  L 540.78 161.00
  Q 541.99 161.00 541.14 161.86
  L 511.57 191.82
  A 2.29 2.24 -67.3 0 1 509.96 192.50
  L 383.80 192.50
  Q 382.36 192.50 383.42 191.47
  L 389.29 185.77
  A 2.68 2.26 71.3 0 0 390.00 183.96
  L 390.07 151.08
  Q 390.07 150.31 389.53 150.85
  L 345.25 195.26
  Q 344.50 196.01 344.50 194.95
  Q 344.50 169.64 344.50 145.49
  C 344.50 141.57 344.75 141.56 341.93 144.46
  Q 318.19 168.96 294.05 193.08
  A 1.23 1.20 -67.0 0 1 293.19 193.44
  L 239.18 193.50
  A 0.68 0.67 -0.0 0 1 238.50 192.83
  L 238.57 151.26
  Q 238.57 150.30 237.90 150.98
  L 157.59 231.28
  Q 156.41 232.46 154.71 232.49
  L 106.47 233.29
  Q 105.16 233.31 106.09 232.39
  L 151.09 188.03
  A 1.21 1.19 67.8 0 0 151.44 187.18
  L 151.03 151.84
  Q 151.02 150.98 150.41 151.59
  L 105.46 196.42
  Q 104.95 196.92 104.95 196.20
  L 104.55 144.96
  Q 104.54 143.70 103.65 144.60
  L 56.48 191.89
  A 2.90 2.89 -67.4 0 1 54.40 192.75
  L 5.16 192.44
  Q 4.55 192.44 4.99 192.01
  C 46.92 151.70 87.61 109.86 128.82 68.93
  Q 129.49 68.27 129.49 69.20
  L 129.93 120.68
  Q 129.94 121.80 130.74 121.01
  L 182.73 69.28
  Q 183.50 68.51 183.50 69.60
  L 183.44 154.14
  Q 183.44 155.31 184.26 154.49
  L 269.51 69.12
  Q 270.00 68.63 270.00 69.32
  L 269.82 165.95
  Z"
/>
</svg>
