<?xml version="1.0" encoding="utf-8"?>
<!-- Generator: Adobe Illustrator 21.0.2, SVG Export Plug-In . SVG Version: 6.00 Build 0)  -->
<svg version="1.1"
	 id="Capa_1" inkscape:version="0.92.2 (5c3e80d, 2017-08-06)" sodipodi:docname="logo.svg" xmlns:cc="http://creativecommons.org/ns#" xmlns:dc="http://purl.org/dc/elements/1.1/" xmlns:inkscape="http://www.inkscape.org/namespaces/inkscape" xmlns:rdf="http://www.w3.org/1999/02/22-rdf-syntax-ns#" xmlns:sodipodi="http://sodipodi.sourceforge.net/DTD/sodipodi-0.dtd" xmlns:svg="http://www.w3.org/2000/svg"
	 xmlns="http://www.w3.org/2000/svg" xmlns:xlink="http://www.w3.org/1999/xlink" x="0px" y="0px" viewBox="0 0 393 105.1"
	 style="enable-background:new 0 0 393 105.1;" xml:space="preserve">
<style type="text/css">
	.st0{fill:#888888;}
	.st1{fill:#D6D6D6;}
	.st2{fill:url(#path107_1_);}
	.st3{fill:#0000A0;}
	.st4{fill:#FF0000;}
</style>
<path id="path90" inkscape:connector-curvature="0" class="st0" d="M0,102.2c0-1.6,7.5-3,16.9-3c9.3,0,16.9,1.3,16.9,3
	s-7.5,3-16.9,3C7.5,105.1,0,103.8,0,102.2z"/>
<g id="g98">
	<path id="path92" inkscape:connector-curvature="0" class="st1" d="M98.6,55.3v0.3c12.1,0.2,20.9,2.6,26.6,7.2
		c5.8,4.6,8.6,10.1,8.6,16.5c0,7.2-3.2,13.1-9.8,17.9c-6.6,4.7-15.1,7-26,7c-9.3,0-16.5-1.8-21.7-5.7c-5-3.7-7.6-7.9-7.6-12.8
		c0-3.2,1.2-5.8,3.5-7.6c2.3-2,5-2.9,8.3-2.9c3.1,0,5.7,0.9,7.8,2.6s3.2,4,3.2,6.7c0,3.7-2.4,6.9-7.5,9.3c-0.9,0.5-1.5,1.1-1.5,1.7
		c0,1.1,1.4,2.1,4.3,3.1c2.8,0.9,5.7,1.2,8.6,1.2c9.6,0,14.4-7,14.4-21.2c0-13.9-5.8-20.9-17.3-20.9L82.7,58c-2,0-2.9-0.8-2.9-2.1
		c0-1.7,1.1-2.4,3.1-2.4l7,0.3c7.2,0,11.9-1.5,14.4-4.7c2.4-3.2,3.7-7.6,3.7-13.4c0-6-0.9-10.4-2.8-13.3c-1.8-2.9-5-4.3-9.5-4.3
		c-2.4,0-4.7,0.5-6.9,1.2c-2.1,0.8-3.2,1.7-3.2,2.4s0.8,1.5,2.1,2.3c3.7,2.3,5.5,4.9,5.5,7.6s-1.1,4.7-3.1,6.4
		c-2,1.5-4.4,2.4-6.9,2.4c-2.9,0-5.7-0.9-7.9-2.8c-2.3-1.8-3.5-4.1-3.5-6.7c0-4.6,2.6-8.6,7.8-11.9c5.2-3.4,11.8-5,19.9-5
		c9,0,16.5,1.8,22.6,5.7c6.1,3.8,9.2,8.7,9.2,14.5C131.3,45.8,120.4,52.8,98.6,55.3L98.6,55.3z"/>
	<path id="path94" inkscape:connector-curvature="0" class="st1" d="M207.2,17.8v80.4h7.8c12.1,0,19.3-3.2,21.8-9.5
		c2.4-6.3,3.8-17.1,3.8-32.4c0-11.9-0.8-20.5-2.3-25.8c-1.5-5.2-3.8-8.7-7-10.2c-3.1-1.7-7-2.4-11.9-2.4L207.2,17.8z M182.8,98.2
		V17.8h-12.7v-4.3h50.6c14.7,0,26.1,4.1,34.7,12.4s12.8,18.8,12.8,31.3c0,6.6-1.4,12.7-4,18.5c-2.6,5.8-6.6,11-11.9,15.7
		c-5.3,4.7-11,7.8-16.7,9.2c-5.7,1.4-12.7,2-20.9,2h-44.6v-4.3h12.7V98.2z"/>
	<path id="path96" inkscape:connector-curvature="0" class="st1" d="M365.5,58c0-13.6-0.3-22.6-0.8-26.9c-0.6-4.3-2-7.8-4.4-10.5
		c-2.3-2.6-6.3-4-11.6-4c-4.6,0-8.1,1.1-10.8,3.2c-2.8,2.1-4.4,5.7-5,10.4c-0.6,4.7-0.9,14.1-0.9,27.8c0,13.6,0.3,22.6,0.9,27
		c0.6,4.4,2.1,7.9,4.6,10.5c2.4,2.6,6.3,4,11.5,4c4.3,0,7.9-1.1,10.7-3.2s4.4-5.5,5.2-10.2C365.2,81.2,365.5,71.9,365.5,58z
		 M304.1,57.6c0-13.3,4.4-24.3,13.1-32.7c8.9-8.4,19.4-12.7,31.6-12.7c11.5,0,21.7,4,30.7,11.9C388.6,32,393,43.3,393,58
		c0,13.8-4.3,24.8-12.8,33.2c-8.6,8.3-18.9,12.5-31.2,12.5c-13.3,0-24.1-4.4-32.4-13.3C308.4,81.7,304.1,70.7,304.1,57.6z"/>
</g>
<radialGradient id="path107_1_" cx="2235.8196" cy="-1557.4946" r="66.6141" gradientTransform="matrix(0.2597 0 0 -0.2597 -561.8831 -333.094)" gradientUnits="userSpaceOnUse">
	<stop  offset="0.5225" style="stop-color:#FFE41B"/>
	<stop  offset="0.8933" style="stop-color:#716A13"/>
	<stop  offset="1" style="stop-color:#49482E"/>
</radialGradient>
<path id="path107" inkscape:connector-curvature="0" class="st2" d="M2.5,74.3c0-7.9,6.4-14.4,14.3-14.4c7.9,0,14.3,6.4,14.3,14.4
	s-6.4,14.4-14.3,14.4C8.9,88.7,2.5,82.2,2.5,74.3z"/>
<path id="path109" inkscape:connector-curvature="0" class="st3" d="M3.5,36.8c-2.1,1.4-2.7,9.6-2.7,9.6s0.6,8.2,2.7,9.6
	s13.4,2.2,13.4,2.2s11.2-0.8,13.4-2.2c2.1-1.4,2.7-9.6,2.7-9.6s-0.6-8.2-2.7-9.6s-13.4-2.2-13.4-2.2S5.6,35.4,3.5,36.8z"/>
<polygon id="polygon111" class="st4" points="0.1,16.8 16.9,0 33.7,16.8 16.9,33.6 "/>
</svg>
