<?xml version="1.0" encoding="UTF-8" standalone="no"?>
<!DOCTYPE svg PUBLIC "-//W3C//DTD SVG 1.1//EN" "http://www.w3.org/Graphics/SVG/1.1/DTD/svg11.dtd">
<svg xmlns="http://www.w3.org/2000/svg" version="1.1" viewBox="0 0 600 300">
<path fill="#000000" d="
  M 0.00 121.94
  L 0.00 85.94
  Q 2.76 67.35 19.00 62.35
  Q 23.40 61.00 31.65 61.00
  Q 61.29 61.00 90.65 61.00
  A 0.85 0.85 -89.3 0 1 91.50 61.85
  L 91.44 84.42
  A 0.84 0.84 0.3 0 1 90.59 85.26
  Q 64.63 85.08 40.08 85.45
  C 30.35 85.60 30.00 91.45 29.66 99.36
  C 29.33 106.86 27.10 123.00 39.00 123.00
  Q 65.00 123.00 90.63 123.00
  A 0.87 0.87 0.0 0 1 91.50 123.87
  L 91.50 146.58
  A 0.92 0.92 -0.6 0 1 90.58 147.50
  Q 61.13 147.50 31.75 147.48
  C 14.60 147.47 2.28 140.19 0.00 121.94
  Z"
/>
<path fill="#000000" d="
  M 209.8080 120.1914
  A 27.16 27.16 0.0 0 1 182.6954 147.3987
  L 124.0355 147.5011
  A 27.16 27.16 0.0 0 1 96.8282 120.3886
  L 96.7720 88.2286
  A 27.16 27.16 0.0 0 1 123.8846 61.0213
  L 182.5445 60.9189
  A 27.16 27.16 0.0 0 1 209.7518 88.0314
  L 209.8080 120.1914
  Z
  M 180.2361 95.0069
  A 9.70 9.70 0.0 0 0 170.5530 85.2900
  L 136.2530 85.2301
  A 9.70 9.70 0.0 0 0 126.5361 94.9132
  L 126.5039 113.3531
  A 9.70 9.70 0.0 0 0 136.1870 123.0700
  L 170.4870 123.1299
  A 9.70 9.70 0.0 0 0 180.2039 113.4468
  L 180.2361 95.0069
  Z"
/>
<path fill="#000000" d="
  M 256.03 122.96
  Q 271.06 123.04 286.59 123.00
  A 1.40 1.40 -0.2 0 1 288.00 124.40
  L 287.94 146.32
  A 1.17 1.17 -0.2 0 1 286.78 147.49
  Q 265.71 147.65 245.78 147.36
  Q 237.67 147.23 233.40 145.75
  C 222.19 141.85 215.17 131.56 215.20 119.25
  Q 215.25 91.00 215.25 61.75
  A 0.69 0.68 -90.0 0 1 215.93 61.06
  L 244.00 61.00
  A 0.81 0.81 -89.7 0 1 244.81 61.82
  Q 244.71 85.56 244.74 109.61
  C 244.76 118.29 246.90 122.90 256.03 122.96
  Z"
/>
<path fill="#000000" d="
  M 384.56 147.05
  A 0.46 0.45 -0.0 0 1 384.10 147.50
  Q 355.13 147.50 326.25 147.50
  C 320.23 147.50 314.43 147.67 309.08 145.80
  Q 295.99 141.23 292.03 128.62
  Q 290.50 123.73 290.49 112.22
  Q 290.47 86.85 290.56 61.99
  A 0.98 0.98 -0.5 0 1 291.54 61.01
  L 384.06 61.18
  A 0.53 0.50 0.6 0 1 384.58 61.68
  L 384.58 81.81
  A 0.51 0.51 0.0 0 1 384.07 82.32
  L 321.06 82.56
  A 0.61 0.61 4.6 0 0 320.47 83.06
  Q 319.87 86.62 320.47 90.20
  A 0.60 0.60 -5.2 0 0 321.06 90.69
  L 384.07 90.56
  A 0.68 0.68 -0.9 0 1 384.75 91.24
  L 384.75 111.59
  A 0.73 0.72 -0.0 0 1 384.02 112.31
  L 321.99 112.25
  Q 319.56 112.25 320.15 114.61
  Q 322.32 123.24 331.00 123.14
  Q 355.00 122.87 379.00 123.37
  Q 381.15 123.42 383.20 123.01
  A 1.29 1.26 -5.6 0 1 384.74 124.25
  L 384.56 147.05
  Z"
/>
<path fill="#000000" d="
  M 391.16 80.65
  C 393.61 72.02 400.55 64.83 409.00 62.24
  Q 413.06 61.00 424.62 61.00
  Q 452.61 61.00 480.98 61.00
  A 0.52 0.52 89.9 0 1 481.50 61.52
  L 481.50 84.12
  A 1.07 1.06 90.0 0 1 480.44 85.19
  Q 458.07 85.29 435.09 85.26
  C 426.22 85.25 419.67 86.20 419.71 96.50
  Q 419.74 103.22 419.75 109.94
  C 419.76 117.21 421.36 122.67 429.44 122.79
  Q 454.51 123.18 480.32 122.99
  A 1.18 1.17 -0.0 0 1 481.50 124.16
  L 481.50 146.49
  A 0.83 0.83 -0.3 0 1 480.68 147.32
  Q 451.17 147.77 421.35 147.36
  Q 412.14 147.23 407.86 145.67
  C 398.67 142.34 391.70 133.73 390.39 123.99
  Q 390.25 122.93 390.25 111.00
  Q 390.25 100.72 390.25 90.44
  Q 390.25 83.85 391.16 80.65
  Z"
/>
<path fill="#000000" d="
  M 600.00 86.31
  L 600.00 122.31
  C 597.57 139.09 586.57 147.14 570.45 147.32
  Q 543.39 147.61 516.33 147.31
  C 503.37 147.17 492.47 141.47 488.56 128.76
  Q 487.00 123.69 487.00 109.59
  C 487.00 101.30 486.38 90.15 487.35 83.82
  C 489.37 70.57 500.87 60.89 514.50 60.92
  Q 541.43 60.99 568.37 61.00
  Q 576.59 61.00 580.99 62.35
  Q 597.44 67.39 600.00 86.31
  Z
  M 570.4241 95.0630
  A 9.85 9.85 0.0 0 0 560.5570 85.2302
  L 526.3570 85.2899
  A 9.85 9.85 0.0 0 0 516.5242 95.1571
  L 516.5559 113.2770
  A 9.85 9.85 0.0 0 0 526.4230 123.1098
  L 560.6230 123.0501
  A 9.85 9.85 0.0 0 0 570.4558 113.1829
  L 570.4241 95.0630
  Z"
/>
<path fill="#000000" d="
  M 135.51 152.52
  C 142.13 152.77 148.78 152.44 155.37 152.50
  Q 156.29 152.51 155.82 153.30
  L 105.47 238.30
  A 1.43 1.41 15.0 0 1 104.24 239.00
  L 79.12 239.00
  A 2.10 2.09 74.6 0 1 77.32 237.97
  L 27.44 153.73
  Q 26.75 152.56 28.10 152.56
  L 58.19 152.50
  A 1.56 1.56 75.0 0 1 59.54 153.28
  L 90.98 207.82
  A 0.64 0.64 -42.8 0 0 92.07 207.86
  L 128.21 154.08
  Q 129.17 152.66 130.89 152.57
  Q 133.47 152.44 135.51 152.52
  Z"
/>
<rect fill="#000000" x="161.49" y="152.71" width="29.76" height="86.28" rx="0.58"/>
<path fill="#000000" d="
  M 223.77 184.94
  Q 241.39 185.02 259.00 185.01
  Q 275.10 185.00 278.92 186.00
  C 305.89 193.07 304.71 233.12 276.81 238.48
  Q 274.12 239.00 258.15 239.00
  Q 229.36 239.00 200.04 239.00
  A 1.03 1.02 -0.0 0 1 199.01 237.98
  L 199.17 215.43
  A 0.53 0.51 -0.0 0 1 199.69 214.93
  Q 233.38 214.62 267.08 214.75
  C 269.80 214.76 272.11 215.16 273.69 212.65
  C 275.72 209.42 273.20 206.75 269.75 206.75
  Q 248.63 206.75 227.50 206.75
  C 222.67 206.75 217.78 206.17 213.41 204.12
  C 197.25 196.52 192.71 176.26 204.19 162.19
  C 211.24 153.54 219.82 152.75 231.64 152.77
  Q 260.57 152.81 289.50 152.38
  Q 292.52 152.34 295.35 152.73
  A 0.75 0.75 4.0 0 1 296.00 153.47
  L 296.00 175.97
  A 0.83 0.83 -0.3 0 1 295.18 176.80
  Q 259.34 177.14 224.75 177.00
  C 217.45 176.97 217.83 184.92 223.77 184.94
  Z"
/>
<rect fill="#000000" x="303.99" y="152.69" width="29.76" height="86.30" rx="0.77"/>
<path fill="#000000" d="
  M 452.0752 211.5024
  A 27.33 27.33 0.0 0 1 424.8407 238.9276
  L 366.3411 239.1318
  A 27.33 27.33 0.0 0 1 338.9158 211.8974
  L 338.8048 180.0976
  A 27.33 27.33 0.0 0 1 366.0393 152.6724
  L 424.5389 152.4682
  A 27.33 27.33 0.0 0 1 451.9642 179.7026
  L 452.0752 211.5024
  Z
  M 422.4237 186.4832
  A 9.64 9.64 0.0 0 0 412.7669 176.8600
  L 378.3470 176.9201
  A 9.64 9.64 0.0 0 0 368.7238 186.5769
  L 368.7563 205.1568
  A 9.64 9.64 0.0 0 0 378.4131 214.7800
  L 412.8330 214.7199
  A 9.64 9.64 0.0 0 0 422.4562 205.0631
  L 422.4237 186.4832
  Z"
/>
<path fill="#000000" d="
  M 487.00 238.10
  A 0.90 0.90 89.7 0 1 486.10 239.00
  L 458.34 239.00
  A 1.09 1.09 89.8 0 1 457.25 237.91
  L 457.25 153.40
  A 0.65 0.64 90.0 0 1 457.89 152.75
  C 485.53 152.55 512.27 152.27 541.00 152.72
  C 556.38 152.96 567.37 164.76 567.50 180.00
  Q 567.75 208.88 567.75 238.09
  A 0.91 0.91 89.7 0 1 566.84 239.00
  L 538.92 239.00
  A 0.92 0.92 89.9 0 1 538.00 238.08
  Q 538.00 215.64 538.00 193.26
  C 538.00 182.78 537.82 177.00 525.97 177.00
  Q 507.38 177.00 487.76 177.00
  A 0.76 0.76 0.0 0 0 487.00 177.76
  L 487.00 238.10
  Z"
/>
</svg>
