<?xml version="1.0" encoding="UTF-8" standalone="no"?>
<!DOCTYPE svg PUBLIC "-//W3C//DTD SVG 1.1//EN" "http://www.w3.org/Graphics/SVG/1.1/DTD/svg11.dtd">
<svg xmlns="http://www.w3.org/2000/svg" version="1.1" viewBox="0 0 600 300">
<path fill="#000000" d="
  M 36.31 107.82
  L 36.25 197.76
  A 0.70 0.63 0.4 0 1 35.54 198.39
  L 28.80 198.35
  A 1.56 1.39 0.2 0 1 27.25 196.96
  L 27.07 108.18
  A 0.61 0.61 5.8 0 0 26.58 107.58
  Q 23.53 106.95 19.70 107.33
  A 1.09 1.09 -2.9 0 1 18.50 106.25
  L 18.50 99.67
  A 0.90 0.89 -90.0 0 1 19.39 98.77
  L 43.73 98.76
  A 0.52 0.52 0.8 0 1 44.25 99.28
  L 44.20 106.69
  A 0.50 0.50 0.0 0 1 43.70 107.19
  L 36.80 107.31
  A 0.51 0.49 90.0 0 0 36.31 107.82
  Z"
/>
<path fill="#000000" d="
  M 277.44 107.79
  L 268.69 107.90
  A 0.53 0.51 89.4 0 0 268.19 108.43
  L 268.25 189.42
  A 0.83 0.83 89.9 0 0 269.08 190.25
  L 277.27 190.25
  A 0.98 0.97 0.0 0 0 278.25 189.28
  L 278.19 151.06
  A 0.61 0.53 -88.0 0 0 277.70 150.46
  L 274.31 150.17
  A 0.58 0.47 3.3 0 1 273.78 149.69
  L 273.89 142.93
  A 0.55 0.53 0.5 0 1 274.44 142.41
  L 285.91 142.27
  A 0.87 0.83 89.7 0 1 286.75 143.14
  L 286.75 197.58
  A 0.67 0.67 -0.2 0 1 286.08 198.25
  C 280.52 198.25 268.53 199.53 264.00 196.87
  C 259.01 193.95 259.75 189.69 259.75 183.42
  Q 259.75 147.19 259.75 110.97
  C 259.75 99.03 266.39 97.90 276.66 98.60
  C 289.48 99.49 287.11 111.93 286.59 121.81
  A 0.58 0.54 -88.8 0 1 286.06 122.36
  L 278.59 122.46
  A 0.61 0.58 89.5 0 1 278.00 121.85
  L 277.94 108.32
  A 0.53 0.49 89.5 0 0 277.44 107.79
  Z"
/>
<path fill="#000000" d="
  M 578.53 157.15
  A 43.86 43.86 0.0 0 1 534.67 201.01
  A 43.86 43.86 0.0 0 1 490.81 157.15
  A 43.86 43.86 0.0 0 1 534.67 113.29
  A 43.86 43.86 0.0 0 1 578.53 157.15
  Z
  M 505.47 138.53
  L 505.35 142.87
  A 0.91 0.83 -9.2 0 0 506.54 143.65
  Q 510.34 142.42 510.12 145.79
  C 509.62 153.88 510.04 162.18 509.82 170.32
  A 0.58 0.53 -3.2 0 1 509.31 170.84
  L 505.80 171.23
  A 0.58 0.58 86.7 0 0 505.29 171.81
  L 505.26 175.38
  A 0.88 0.86 0.3 0 0 506.14 176.25
  L 519.18 176.19
  A 0.69 0.68 7.8 0 0 519.84 175.70
  Q 520.40 173.65 519.73 171.65
  A 0.79 0.74 -5.5 0 0 519.07 171.14
  L 515.94 170.86
  A 0.58 0.56 2.3 0 1 515.42 170.31
  L 515.32 139.21
  A 0.96 0.87 0.0 0 0 514.37 138.35
  L 505.85 138.26
  A 0.38 0.28 0.7 0 0 505.47 138.53
  Z
  M 524.64 143.88
  Q 524.33 157.91 524.56 171.94
  A 1.36 0.67 -81.5 0 0 524.85 172.85
  L 527.89 175.69
  A 1.39 0.54 -7.3 0 0 528.81 175.92
  L 559.50 175.98
  A 1.40 0.58 8.7 0 0 560.43 175.75
  L 563.70 172.90
  A 1.34 0.73 79.6 0 0 564.00 171.99
  Q 564.00 165.56 564.00 159.13
  C 564.00 156.16 561.32 154.76 558.59 154.74
  Q 544.22 154.63 530.22 154.93
  A 0.90 0.86 -0.3 0 1 529.30 154.06
  L 529.40 144.19
  A 0.54 0.53 -0.0 0 1 529.93 143.67
  L 558.05 143.54
  Q 560.06 143.53 559.61 145.52
  C 558.84 148.91 561.54 148.83 563.49 148.14
  A 0.78 0.70 80.9 0 0 563.95 147.43
  L 564.01 142.00
  A 1.34 0.90 -76.0 0 0 563.69 141.11
  L 561.17 138.78
  A 1.47 0.82 -12.1 0 0 560.25 138.50
  C 550.44 138.50 540.29 138.95 530.52 138.39
  C 526.89 138.18 524.72 140.15 524.64 143.88
  Z"
/>
<path fill="#000000" d="
  M 80.19 189.18
  L 80.25 116.25
  A 0.50 0.50 0.0 0 1 80.75 115.75
  L 88.34 115.75
  A 0.66 0.66 0.0 0 1 89.00 116.41
  Q 89.00 150.88 89.00 185.25
  C 89.00 199.19 83.92 198.25 72.10 198.25
  C 62.00 198.25 62.25 191.84 62.25 184.09
  Q 62.25 150.30 62.25 116.51
  A 0.58 0.50 89.5 0 1 62.74 115.93
  L 70.07 115.88
  A 0.57 0.49 88.9 0 1 70.57 116.44
  Q 70.88 151.53 70.75 186.63
  C 70.74 190.76 70.52 189.93 74.58 190.05
  Q 77.15 190.14 79.69 189.76
  A 0.59 0.58 86.1 0 0 80.19 189.18
  Z"
/>
<path fill="#000000" d="
  M 119.33 159.73
  A 0.83 0.82 81.4 0 0 118.75 160.52
  L 118.75 197.64
  A 0.92 0.80 0.4 0 1 117.82 198.44
  L 111.66 198.36
  A 1.19 1.03 0.6 0 1 110.49 197.33
  L 110.50 116.56
  A 0.79 0.79 -0.7 0 1 111.27 115.77
  C 116.88 115.66 129.50 114.44 133.87 117.61
  Q 137.43 120.18 137.37 125.50
  Q 137.25 137.50 137.18 149.50
  Q 137.14 156.47 131.02 159.13
  A 0.60 0.59 -17.2 0 0 130.66 159.80
  L 138.58 197.69
  A 0.46 0.42 82.6 0 1 138.19 198.24
  L 131.51 198.50
  A 0.99 0.94 82.3 0 1 130.55 197.73
  Q 126.56 180.24 122.50 163.00
  C 122.07 161.17 122.26 158.87 119.33 159.73
  Z
  M 128.7726 124.2883
  A 0.52 0.52 0.0 0 0 128.2535 123.7674
  L 119.7736 123.7526
  A 0.52 0.52 0.0 0 0 119.2526 124.2717
  L 119.2074 150.2117
  A 0.52 0.52 0.0 0 0 119.7265 150.7326
  L 128.2064 150.7474
  A 0.52 0.52 0.0 0 0 128.7274 150.2283
  L 128.7726 124.2883
  Z"
/>
<path fill="#000000" d="
  M 182.88 116.90
  C 187.21 119.79 186.75 122.19 186.75 127.66
  Q 186.75 136.20 186.75 144.75
  C 186.75 149.39 187.21 151.67 183.90 154.22
  A 0.82 0.81 45.6 0 0 183.89 155.50
  C 185.88 157.08 186.75 158.75 186.75 161.46
  Q 186.75 175.41 186.75 189.36
  C 186.75 195.09 184.22 198.28 178.47 198.23
  Q 169.87 198.16 161.43 198.49
  A 0.95 0.95 -1.2 0 1 160.44 197.54
  L 160.43 116.20
  A 0.51 0.51 0.6 0 1 160.95 115.69
  L 179.31 115.80
  Q 181.26 115.82 182.88 116.90
  Z
  M 178.5127 124.2683
  A 0.49 0.49 0.0 0 0 178.0236 123.7775
  L 169.5036 123.7626
  A 0.49 0.49 0.0 0 0 169.0127 124.2517
  L 168.9673 150.2717
  A 0.49 0.49 0.0 0 0 169.4564 150.7625
  L 177.9764 150.7774
  A 0.49 0.49 0.0 0 0 178.4673 150.2883
  L 178.5127 124.2683
  Z
  M 178.5156 160.1683
  A 0.70 0.70 0.0 0 0 177.8169 159.4671
  L 169.7169 159.4530
  A 0.70 0.70 0.0 0 0 169.0156 160.1517
  L 168.9644 189.5317
  A 0.70 0.70 0.0 0 0 169.6631 190.2329
  L 177.7631 190.2470
  A 0.70 0.70 0.0 0 0 178.4644 189.5483
  L 178.5156 160.1683
  Z"
/>
<path fill="#000000" d="
  M 319.98 159.36
  C 318.22 158.71 317.55 159.67 317.58 161.31
  Q 317.93 179.50 317.69 197.69
  A 0.53 0.49 -90.0 0 1 317.20 198.22
  L 310.28 198.18
  A 0.82 0.78 90.0 0 1 309.50 197.36
  L 309.50 116.22
  A 0.53 0.52 -89.5 0 1 310.03 115.69
  C 315.41 115.72 327.79 114.49 332.17 117.23
  Q 336.11 119.71 335.87 125.16
  C 335.52 133.08 335.75 141.12 335.75 149.06
  C 335.75 154.12 334.31 157.23 329.78 159.13
  A 0.60 0.59 -17.4 0 0 329.42 159.81
  L 337.47 197.67
  A 0.47 0.46 83.9 0 1 337.02 198.24
  L 330.36 198.21
  A 1.20 1.14 83.2 0 1 329.25 197.29
  L 320.56 160.05
  A 0.99 0.90 -87.9 0 0 319.98 159.36
  Z
  M 327.50 124.25
  A 0.54 0.54 0.0 0 0 326.96 123.71
  L 318.30 123.71
  A 0.54 0.54 0.0 0 0 317.76 124.25
  L 317.76 150.01
  A 0.54 0.54 0.0 0 0 318.30 150.55
  L 326.96 150.55
  A 0.54 0.54 0.0 0 0 327.50 150.01
  L 327.50 124.25
  Z"
/>
<path fill="#000000" d="
  M 235.52 189.47
  A 8.78 8.78 0.0 0 1 226.74 198.25
  L 217.28 198.25
  A 8.78 8.78 0.0 0 1 208.50 189.47
  L 208.50 124.53
  A 8.78 8.78 0.0 0 1 217.28 115.75
  L 226.74 115.75
  A 8.78 8.78 0.0 0 1 235.52 124.53
  L 235.52 189.47
  Z
  M 226.76 124.58
  A 0.66 0.66 0.0 0 0 226.10 123.92
  L 218.16 123.92
  A 0.66 0.66 0.0 0 0 217.50 124.58
  L 217.50 189.08
  A 0.66 0.66 0.0 0 0 218.16 189.74
  L 226.10 189.74
  A 0.66 0.66 0.0 0 0 226.76 189.08
  L 226.76 124.58
  Z"
/>
<path fill="#000000" d="
  M 358.25 125.22
  C 358.25 121.12 358.81 118.25 362.94 116.34
  C 365.84 114.99 377.87 115.48 380.44 116.69
  C 385.05 118.87 384.50 123.07 384.50 128.40
  Q 384.54 162.92 384.44 197.44
  A 0.58 0.50 89.5 0 1 383.95 198.02
  L 377.19 198.15
  A 0.75 0.68 89.6 0 1 376.50 197.40
  L 376.44 159.51
  A 0.60 0.59 -0.5 0 0 375.83 158.92
  L 367.15 159.00
  A 0.91 0.89 -0.3 0 0 366.25 159.89
  L 366.25 197.49
  A 0.57 0.49 -90.0 0 1 365.76 198.06
  L 358.91 198.18
  A 0.69 0.64 89.2 0 1 358.25 197.49
  Q 358.25 160.87 358.25 125.22
  Z
  M 376.25 124.94
  A 0.70 0.70 0.0 0 0 375.55 124.24
  L 367.19 124.24
  A 0.70 0.70 0.0 0 0 366.49 124.94
  L 366.49 150.04
  A 0.70 0.70 0.0 0 0 367.19 150.74
  L 375.55 150.74
  A 0.70 0.70 0.0 0 0 376.25 150.04
  L 376.25 124.94
  Z"
/>
<path fill="#000000" d="
  M 413.56 123.82
  L 413.50 150.10
  A 0.66 0.65 0.0 0 0 414.16 150.75
  L 422.66 150.75
  A 1.09 1.09 89.8 0 1 423.75 151.84
  L 423.75 158.01
  A 0.99 0.99 0.0 0 1 422.76 159.00
  L 414.29 159.00
  A 0.81 0.80 -90.0 0 0 413.49 159.81
  L 413.32 197.56
  A 0.55 0.52 89.5 0 1 412.81 198.11
  L 405.81 198.22
  A 0.54 0.50 90.0 0 1 405.31 197.68
  Q 405.21 163.36 405.25 129.04
  C 405.25 123.21 404.39 119.32 408.91 116.78
  C 412.45 114.79 421.01 115.74 425.19 115.80
  A 0.54 0.50 1.1 0 1 425.72 116.31
  L 425.62 122.56
  A 0.57 0.54 -0.6 0 1 425.07 123.09
  L 414.06 123.32
  A 0.51 0.50 -0.6 0 0 413.56 123.82
  Z"
/>
<path fill="#000000" d="
  M 459.47 163.49
  L 456.07 168.91
  Q 455.01 170.59 455.02 171.93
  L 455.18 197.24
  A 1.26 1.23 -90.0 0 1 453.95 198.50
  L 447.49 198.50
  A 0.99 0.99 0.0 0 1 446.50 197.51
  Q 446.46 185.75 446.54 173.81
  C 446.58 167.39 451.37 159.90 455.03 154.90
  A 1.14 1.13 45.3 0 0 455.03 153.55
  Q 450.23 146.92 447.08 139.47
  Q 446.50 138.11 446.50 136.62
  L 446.50 116.25
  A 0.50 0.50 0.0 0 1 447.00 115.75
  L 454.59 115.75
  A 0.66 0.66 0.2 0 1 455.25 116.41
  L 455.25 138.25
  A 1.67 1.64 28.6 0 0 455.53 139.17
  L 459.51 145.17
  A 0.56 0.56 -43.7 0 0 460.42 145.19
  C 462.62 142.19 464.75 139.83 464.76 135.98
  Q 464.78 126.33 464.69 116.68
  A 0.61 0.61 -5.8 0 1 465.18 116.08
  Q 468.26 115.45 472.52 115.88
  A 0.82 0.81 -87.6 0 1 473.25 116.68
  Q 473.29 126.09 473.22 134.74
  C 473.17 141.31 468.88 148.42 465.20 153.61
  A 1.15 1.15 90.0 0 0 465.20 154.93
  Q 469.13 160.55 471.81 166.77
  Q 473.00 169.56 473.10 172.95
  Q 473.44 185.32 473.20 197.69
  A 0.61 0.61 85.4 0 1 472.70 198.28
  Q 469.25 198.87 465.80 198.28
  A 0.60 0.60 -84.8 0 1 465.31 197.69
  L 465.25 171.26
  A 1.89 1.46 -67.6 0 0 464.99 170.31
  L 460.55 163.43
  A 0.66 0.61 -45.9 0 0 459.47 163.49
  Z"
/>
<rect fill="#000000" x="-14.87" y="-5.57" transform="translate(544.37,165.32) rotate(0.3)" width="29.74" height="11.14" rx="0.70"/>
</svg>
