<?xml version="1.0" encoding="UTF-8" standalone="no"?>
<!DOCTYPE svg PUBLIC "-//W3C//DTD SVG 1.1//EN" "http://www.w3.org/Graphics/SVG/1.1/DTD/svg11.dtd">
<svg xmlns="http://www.w3.org/2000/svg" version="1.1" viewBox="0 0 600 300">
<path fill="#000000" d="
  M 544.56 116.33
  Q 544.58 116.87 544.99 116.51
  L 572.87 91.55
  A 2.15 2.07 -65.2 0 1 574.28 91.00
  L 598.93 91.06
  Q 600.00 91.06 599.19 91.76
  L 546.17 137.44
  A 2.04 2.03 68.7 0 0 545.46 139.07
  L 547.33 187.38
  A 0.36 0.36 -2.5 0 1 546.99 187.75
  Q 534.53 188.29 521.19 187.78
  A 0.99 0.98 0.9 0 1 520.24 186.81
  L 520.00 160.29
  Q 519.98 159.00 519.00 159.86
  L 487.57 187.37
  A 1.39 1.38 -65.8 0 1 486.69 187.71
  L 462.15 188.00
  Q 460.25 188.02 461.71 186.76
  L 518.56 137.77
  A 1.11 1.04 -22.4 0 0 518.94 136.94
  L 518.07 91.72
  A 0.70 0.69 89.2 0 1 518.76 91.00
  L 542.49 91.00
  A 0.95 0.95 88.7 0 1 543.44 91.91
  L 544.56 116.33
  Z"
/>
<path fill="#000000" d="
  M 197.25 189.50
  C 188.38 187.45 186.16 178.79 189.92 171.37
  Q 202.21 147.14 216.49 124.03
  Q 223.68 112.39 228.13 107.82
  Q 243.14 92.43 266.19 93.81
  Q 279.91 94.63 279.45 106.32
  C 279.13 114.11 271.84 125.56 267.76 132.43
  C 261.19 143.50 254.95 155.17 247.87 165.87
  C 236.66 182.82 218.30 194.35 197.25 189.50
  Z
  M 252.78 109.88
  A 1.58 1.58 -45.1 0 0 251.64 109.88
  C 248.03 111.24 247.01 113.48 245.14 116.60
  Q 229.37 143.03 214.26 169.83
  C 213.01 172.04 212.29 175.50 216.69 173.94
  C 219.91 172.79 221.60 169.62 223.81 165.84
  C 234.03 148.38 245.12 130.86 254.31 112.86
  C 255.28 110.98 254.35 110.50 252.78 109.88
  Z"
/>
<path fill="#000000" d="
  M 42.99 114.77
  Q 43.26 114.30 42.70 114.31
  L 29.87 114.46
  Q 28.81 114.47 29.35 113.53
  L 39.33 96.20
  A 0.90 0.90 15.0 0 1 40.11 95.75
  L 94.61 95.75
  Q 95.25 95.75 94.88 96.27
  L 82.87 113.28
  A 3.19 2.89 15.4 0 1 80.38 114.53
  L 67.95 114.66
  A 0.90 0.86 -74.4 0 0 67.19 115.11
  L 24.70 188.00
  A 1.50 1.49 14.8 0 1 23.40 188.75
  L 0.94 188.75
  Q -0.09 188.75 0.43 187.86
  L 42.99 114.77
  Z"
/>
<path fill="#000000" d="
  M 76.19 172.03
  L 69.18 172.06
  A 2.30 2.08 -72.1 0 0 67.38 173.10
  L 57.71 187.83
  A 2.07 2.02 16.2 0 1 55.99 188.75
  L 33.15 188.75
  Q 32.00 188.75 32.67 187.81
  L 98.02 96.22
  A 0.97 0.97 -72.3 0 1 98.81 95.81
  L 132.97 95.75
  A 0.34 0.34 -78.5 0 1 133.28 96.22
  L 93.79 187.99
  A 1.27 1.26 11.7 0 1 92.63 188.75
  L 69.61 188.75
  A 0.64 0.63 -77.0 0 1 69.05 187.83
  L 76.49 172.52
  A 0.34 0.34 -77.1 0 0 76.19 172.03
  Z
  M 85.33 155.34
  A 1.02 1.01 13.2 0 0 86.26 154.77
  L 103.83 119.08
  A 0.44 0.30 -67.2 0 0 103.72 118.52
  C 103.25 118.37 80.63 151.02 78.21 154.54
  Q 77.71 155.26 78.60 155.27
  L 85.33 155.34
  Z"
/>
<path fill="#000000" d="
  M 150.43 96.03
  A 0.42 0.42 -75.7 0 1 150.80 95.81
  L 174.39 95.75
  Q 174.79 95.75 174.59 96.09
  L 121.07 187.98
  A 1.56 1.53 -74.6 0 1 119.74 188.75
  L 97.14 188.69
  Q 96.42 188.69 96.78 188.07
  L 150.43 96.03
  Z"
/>
<path fill="#000000" d="
  M 180.08 114.34
  L 167.91 114.48
  Q 166.81 114.49 167.36 113.53
  L 177.30 96.24
  A 0.89 0.86 14.7 0 1 178.06 95.81
  L 229.95 95.81
  Q 230.46 95.81 230.20 96.26
  L 219.91 114.06
  A 0.93 0.89 14.7 0 1 219.12 114.50
  L 206.31 114.50
  A 1.51 1.49 14.8 0 0 205.01 115.24
  L 162.57 188.05
  A 1.42 1.39 -74.6 0 1 161.36 188.75
  L 138.85 188.75
  Q 137.82 188.75 138.34 187.86
  L 180.66 115.30
  Q 181.23 114.33 180.08 114.34
  Z"
/>
<path fill="#000000" d="
  M 301.73 115.72
  Q 302.29 114.75 301.17 114.75
  L 288.95 114.75
  Q 287.92 114.75 288.44 113.86
  L 298.38 96.93
  A 1.76 1.74 -74.7 0 1 299.89 96.06
  L 350.94 96.00
  Q 351.82 96.00 351.38 96.75
  L 341.39 113.94
  A 1.65 1.62 14.8 0 1 339.97 114.75
  L 327.76 114.75
  A 2.05 2.05 14.9 0 0 325.98 115.78
  L 284.07 188.30
  A 1.42 1.39 -74.6 0 1 282.86 189.00
  L 260.09 189.00
  Q 258.96 189.00 259.53 188.02
  L 301.73 115.72
  Z"
/>
<path fill="#000000" d="
  M 387.04 117.51
  A 1.53 1.52 15.0 0 1 388.36 116.75
  L 406.06 116.75
  A 0.70 0.69 -89.6 0 1 406.75 117.46
  Q 406.72 119.03 408.31 118.40
  C 415.44 115.56 433.73 112.00 433.02 125.59
  Q 432.84 129.06 431.69 131.69
  Q 424.20 148.75 412.51 166.00
  C 402.07 181.41 390.60 189.89 370.68 188.25
  A 2.04 1.95 -71.9 0 0 368.79 189.26
  L 359.20 205.76
  A 0.92 0.88 14.1 0 1 358.44 206.19
  L 336.16 206.43
  Q 335.42 206.44 335.79 205.81
  L 387.04 117.51
  Z
  M 401.84 132.50
  L 378.13 173.22
  A 0.72 0.72 20.0 0 0 378.63 174.29
  C 381.90 174.88 383.78 172.92 385.62 170.21
  Q 396.45 154.21 404.99 136.87
  C 406.21 134.39 407.17 130.46 402.08 132.31
  A 0.43 0.41 5.0 0 0 401.84 132.50
  Z"
/>
<path fill="#000000" d="
  M 416.48 168.87
  C 424.88 145.60 444.99 116.26 472.94 115.81
  C 499.01 115.40 478.95 146.31 473.33 155.18
  A 1.77 1.76 -73.8 0 1 471.84 156.00
  L 446.76 156.00
  A 0.91 0.81 12.3 0 0 445.98 156.44
  L 438.46 170.79
  A 1.32 1.24 52.3 0 0 438.37 171.73
  C 440.16 177.94 445.37 169.28 446.17 167.66
  A 1.14 1.02 11.4 0 1 447.17 167.07
  L 463.44 166.97
  A 0.80 0.77 13.8 0 1 464.17 168.12
  Q 452.07 189.71 428.23 189.08
  C 414.90 188.73 412.36 180.26 416.48 168.87
  Z
  M 460.82 132.52
  L 455.08 140.62
  Q 454.50 141.45 455.47 141.43
  L 460.44 141.29
  A 1.13 0.76 -68.2 0 0 461.21 140.77
  C 462.12 139.37 466.91 132.26 464.10 131.43
  Q 462.02 130.81 460.82 132.52
  Z"
/>
<path fill="#000000" d="
  M 318.79 188.29
  C 319.07 188.02 321.21 186.26 320.85 185.61
  A 1.08 0.63 -7.1 0 0 320.00 185.25
  L 308.56 185.20
  A 0.74 0.73 -9.2 0 1 307.88 184.72
  L 301.39 166.22
  A 1.17 1.03 -41.5 0 1 301.50 165.32
  L 329.19 117.35
  A 1.22 1.21 15.0 0 1 330.24 116.75
  L 352.27 116.75
  Q 353.19 116.75 352.72 117.54
  L 325.59 163.92
  A 2.19 1.90 -41.7 0 0 325.37 165.61
  L 326.98 170.53
  A 0.46 0.44 -27.8 0 0 327.69 170.73
  Q 329.85 169.08 330.65 167.67
  Q 345.08 142.40 359.99 117.43
  A 0.93 0.86 -73.3 0 1 360.75 116.98
  L 383.06 116.80
  Q 383.74 116.80 383.39 117.39
  Q 365.74 147.90 348.44 177.48
  Q 341.65 189.08 337.44 193.26
  C 323.82 206.76 300.13 211.22 282.58 203.10
  A 0.73 0.72 27.8 0 1 282.26 202.08
  L 289.25 190.25
  A 1.12 1.10 25.4 0 1 290.60 189.78
  C 299.39 193.06 311.34 195.83 318.79 188.29
  Z"
/>
</svg>
