<?xml version="1.0" encoding="UTF-8" standalone="no"?>
<!DOCTYPE svg PUBLIC "-//W3C//DTD SVG 1.1//EN" "http://www.w3.org/Graphics/SVG/1.1/DTD/svg11.dtd">
<svg xmlns="http://www.w3.org/2000/svg" version="1.1" viewBox="0 0 600 300">
<g stroke-width="2.00" fill="none" stroke-linecap="butt">
<path stroke="#000000" vector-effect="non-scaling-stroke" d="
  M 278.50 299.79
  L 274.19 300.00"
/>
<path stroke="#000000" vector-effect="non-scaling-stroke" d="
  M 477.50 299.79
  L 473.19 300.00"
/>
</g>
<path fill="#000000" d="
  M 302.25 177.69
  L 363.95 141.58
  A 1.11 1.09 -15.3 0 0 364.50 140.63
  L 364.44 101.33
  Q 364.44 100.48 363.70 100.93
  L 345.12 112.38
  A 1.84 1.79 -16.3 0 0 344.25 113.92
  L 344.25 129.41
  A 1.31 1.30 75.6 0 1 343.58 130.55
  L 302.26 153.37
  A 0.92 0.91 45.3 0 1 301.36 153.36
  L 261.56 130.68
  A 1.09 1.09 14.5 0 1 261.00 129.73
  L 261.00 80.34
  A 1.03 1.03 -15.3 0 1 261.51 79.45
  L 301.07 55.26
  A 0.98 0.97 -44.3 0 1 302.12 55.27
  L 342.85 81.05
  A 1.39 1.36 45.1 0 0 344.30 81.07
  L 391.77 52.13
  Q 392.50 51.69 392.50 52.54
  L 392.50 155.21
  A 1.13 1.13 -15.5 0 1 391.95 156.18
  L 303.14 208.76
  A 2.59 2.57 -44.8 0 1 300.51 208.76
  L 211.69 156.07
  A 0.92 0.91 16.0 0 1 211.25 155.29
  L 211.25 52.36
  A 1.00 0.99 -15.3 0 1 211.75 51.50
  L 300.35 0.66
  Q 301.82 -0.18 303.30 0.66
  L 371.44 39.65
  A 0.43 0.42 44.4 0 1 371.45 40.38
  L 344.45 56.68
  A 1.11 1.11 0.0 0 1 343.31 56.68
  L 302.47 32.23
  A 1.16 1.13 44.8 0 0 301.32 32.22
  L 238.93 68.19
  A 0.87 0.85 -15.3 0 0 238.50 68.93
  L 238.56 140.12
  A 0.73 0.73 -75.0 0 0 238.92 140.75
  L 301.38 177.69
  A 0.88 0.86 -44.4 0 0 302.25 177.69
  Z"
/>
<path fill="#000000" d="
  M 491.4673 241.1441
  A 8.83 8.83 0.0 0 1 482.6065 249.9432
  L 474.9865 249.9166
  A 8.83 8.83 0.0 0 1 466.1874 241.0558
  L 466.2327 228.0759
  A 8.83 8.83 0.0 0 1 475.0935 219.2768
  L 482.7135 219.3034
  A 8.83 8.83 0.0 0 1 491.5126 228.1642
  L 491.4673 241.1441
  Z
  M 485.5017 227.8516
  A 4.01 4.01 0.0 0 0 481.4987 223.8346
  L 476.2587 223.8254
  A 4.01 4.01 0.0 0 0 472.2417 227.8284
  L 472.2183 241.2284
  A 4.01 4.01 0.0 0 0 476.2213 245.2454
  L 481.4613 245.2546
  A 4.01 4.01 0.0 0 0 485.4783 241.2516
  L 485.5017 227.8516
  Z"
/>
<path fill="#000000" d="
  M 126.27 237.75
  Q 126.40 237.72 126.52 237.62
  A 0.61 0.40 76.5 0 0 126.68 237.17
  Q 126.39 229.63 126.49 222.09
  C 126.51 220.55 125.97 218.95 128.51 219.50
  Q 129.50 219.72 130.49 219.50
  C 133.02 218.95 132.50 220.54 132.50 222.09
  Q 132.54 235.52 132.44 248.95
  A 0.61 0.50 89.5 0 1 131.95 249.56
  L 127.49 249.61
  A 1.77 1.43 73.5 0 1 126.08 248.64
  L 115.14 227.53
  Q 114.24 225.80 114.25 227.73
  L 114.32 249.07
  A 0.68 0.67 90.0 0 1 113.65 249.75
  L 109.46 249.75
  A 0.96 0.96 -88.7 0 1 108.50 248.79
  L 108.50 220.23
  A 0.73 0.73 0.6 0 1 109.23 219.50
  L 115.77 219.50
  A 1.08 1.04 -13.0 0 1 116.72 220.07
  L 125.62 237.28
  A 0.78 0.47 67.0 0 0 126.27 237.75
  Z"
/>
<rect fill="#000000" x="165.97" y="219.52" width="6.80" height="30.20" rx="0.48"/>
<path fill="#000000" d="
  M 224.22 237.98
  C 224.43 237.94 224.23 222.87 224.27 220.75
  A 1.08 0.96 -89.4 0 1 225.23 219.69
  L 229.95 219.69
  A 0.62 0.49 -90.0 0 1 230.44 220.31
  L 230.44 248.94
  A 0.63 0.62 83.6 0 1 229.96 249.55
  Q 227.38 250.10 224.80 249.55
  A 1.06 1.02 81.9 0 1 224.08 248.99
  L 213.35 228.14
  Q 212.25 226.00 212.25 228.40
  L 212.25 248.84
  A 0.91 0.91 0.0 0 1 211.34 249.75
  L 207.19 249.75
  A 0.94 0.94 0.0 0 1 206.25 248.81
  L 206.25 220.32
  A 0.82 0.82 0.0 0 1 207.07 219.50
  L 213.49 219.50
  A 1.24 1.21 -13.5 0 1 214.58 220.15
  L 223.63 237.57
  A 0.72 0.45 67.2 0 0 224.22 237.98
  Z"
/>
<path fill="#000000" d="
  M 273.51 225.36
  L 273.73 248.77
  A 0.95 0.95 89.7 0 1 272.78 249.73
  L 268.02 249.70
  A 0.81 0.77 90.0 0 1 267.25 248.89
  L 267.25 225.01
  A 0.76 0.76 0.0 0 0 266.49 224.25
  C 264.62 224.25 259.31 224.65 258.26 224.24
  Q 256.80 223.67 257.60 220.24
  A 0.97 0.95 6.4 0 1 258.54 219.50
  L 282.89 219.50
  A 1.00 0.99 -81.7 0 1 283.84 220.78
  Q 283.49 221.96 283.87 223.41
  A 0.67 0.67 -7.3 0 1 283.22 224.25
  L 274.58 224.25
  A 1.10 1.07 89.7 0 0 273.51 225.36
  Z"
/>
<path fill="#000000" d="
  M 314.40 236.79
  C 314.09 237.90 314.50 238.93 314.40 240.06
  C 313.82 247.11 325.23 244.59 331.07 244.91
  A 0.59 0.58 -1.1 0 1 331.62 245.43
  L 331.89 248.25
  A 1.37 1.34 -3.3 0 1 330.55 249.72
  C 323.38 249.90 308.50 252.25 308.50 240.77
  C 308.50 236.32 307.44 227.22 309.78 223.54
  C 313.42 217.80 324.49 219.50 330.73 219.50
  A 0.98 0.95 0.0 0 1 331.71 220.45
  L 331.72 223.69
  A 0.54 0.51 -0.6 0 1 331.19 224.20
  Q 325.47 224.29 319.75 224.21
  Q 313.23 224.11 314.27 230.90
  A 0.72 0.71 85.2 0 0 314.97 231.50
  L 330.93 231.55
  A 0.82 0.72 -9.1 0 1 331.65 232.01
  C 332.07 233.10 332.30 236.57 330.42 236.38
  C 325.52 235.86 320.02 236.24 315.07 236.31
  A 0.71 0.65 6.9 0 0 314.40 236.79
  Z"
/>
<path fill="#000000" d="
  M 378.11 236.98
  Q 379.32 239.30 379.31 236.70
  L 379.25 220.16
  A 0.67 0.66 0.0 0 1 379.92 219.50
  L 384.59 219.50
  A 0.66 0.66 0.2 0 1 385.25 220.16
  L 385.25 248.45
  A 1.10 0.97 89.7 0 1 384.29 249.55
  L 379.80 249.57
  A 1.04 0.65 70.6 0 1 379.07 248.99
  L 367.96 227.74
  Q 366.98 225.86 367.00 227.98
  L 367.18 248.74
  A 0.89 0.82 90.0 0 1 366.35 249.64
  L 361.54 249.55
  A 0.60 0.49 -89.5 0 1 361.06 248.95
  L 361.00 220.71
  A 1.15 1.08 -89.5 0 1 362.10 219.56
  L 368.56 219.64
  A 0.89 0.82 75.1 0 1 369.31 220.12
  L 378.11 236.98
  Z"
/>
<path fill="#000000" d="
  M 439.05 228.03
  C 438.75 235.71 442.28 249.34 429.75 249.61
  Q 423.25 249.75 415.41 249.75
  A 0.90 0.89 0.0 0 1 414.51 248.86
  L 414.68 220.19
  A 0.53 0.53 -1.7 0 1 415.18 219.66
  C 421.46 219.34 439.50 216.96 439.05 228.03
  Z
  M 432.66 242.26
  Q 433.24 237.78 433.07 232.65
  C 432.93 228.24 434.01 223.78 427.56 224.12
  C 425.01 224.25 423.27 224.25 421.06 224.25
  A 0.56 0.56 0.0 0 0 420.50 224.81
  L 420.50 244.58
  A 0.52 0.50 0.0 0 0 421.02 245.08
  L 429.51 245.00
  Q 432.32 244.97 432.66 242.26
  Z"
/>
<path fill="#000000" d="
  M 139.50 299.79
  L 131.75 299.79
  L 124.50 299.79
  L 119.75 299.79
  L 111.00 299.79
  C 105.71 299.90 100.57 299.21 100.21 292.75
  Q 99.53 280.57 100.31 268.41
  C 100.58 264.23 102.41 260.96 106.75 260.75
  Q 121.25 260.04 147.07 260.68
  A 0.55 0.51 0.0 0 1 147.61 261.18
  L 147.71 268.38
  A 0.90 0.85 -0.6 0 1 146.81 269.25
  L 111.88 269.25
  A 0.86 0.84 -0.3 0 0 111.02 270.10
  L 111.17 290.32
  A 0.51 0.50 0.0 0 0 111.68 290.82
  L 136.04 290.99
  Q 138.09 291.00 137.43 289.04
  Q 136.92 287.51 137.50 285.74
  A 0.94 0.93 -80.9 0 0 136.61 284.50
  L 123.43 284.55
  A 0.62 0.59 -6.2 0 1 122.82 284.08
  Q 122.21 281.36 122.66 277.28
  A 1.16 1.16 -86.7 0 1 123.81 276.25
  L 147.51 276.25
  A 0.68 0.67 -0.4 0 1 148.19 276.91
  C 148.32 283.79 151.16 300.57 139.50 299.79
  Z"
/>
<path fill="#000000" d="
  M 252.97 300.03
  L 251.19 300.00
  L 244.00 299.79
  Q 243.02 299.76 243.00 298.25
  Q 242.88 288.90 243.16 280.28
  Q 243.21 278.75 242.41 280.06
  L 230.10 300.11
  L 222.69 300.00
  Q 216.26 290.43 210.76 280.30
  C 210.43 279.70 209.34 278.68 209.46 280.45
  Q 210.12 290.22 209.44 300.00
  L 207.69 300.00
  Q 200.44 299.37 193.19 300.00
  L 192.44 300.00
  C 190.21 299.18 178.00 276.32 175.81 272.49
  A 0.74 0.72 -44.1 0 0 174.56 272.48
  L 163.55 290.08
  Q 162.87 291.16 164.19 291.16
  L 175.56 291.15
  A 0.64 0.59 84.8 0 1 176.15 291.68
  Q 176.81 295.93 175.60 300.04
  L 174.69 300.00
  L 160.75 299.79
  L 148.69 300.00
  L 147.44 300.00
  C 146.53 299.09 147.60 298.59 147.96 297.98
  Q 158.82 279.49 170.05 261.23
  A 1.05 1.02 12.0 0 1 170.81 260.75
  Q 175.18 260.18 179.57 260.63
  A 1.05 1.02 -12.0 0 1 180.33 261.11
  L 198.61 291.34
  Q 199.77 293.26 199.75 291.01
  L 199.51 261.63
  A 1.08 1.06 90.0 0 1 200.58 260.54
  L 209.07 260.65
  A 0.96 0.87 73.9 0 1 209.83 261.12
  L 225.69 287.57
  A 0.73 0.73 0.0 0 0 226.95 287.57
  L 242.92 261.10
  A 0.96 0.86 -72.7 0 1 243.69 260.64
  L 252.57 260.64
  A 0.57 0.51 88.8 0 1 253.08 261.19
  Q 253.59 280.60 252.97 300.03
  Z"
/>
<path fill="#000000" d="
  M 299.39 300.07
  L 298.19 300.00
  L 291.00 299.79
  L 284.50 299.79
  L 278.50 299.79
  L 274.19 300.00
  L 265.19 300.00
  Q 262.56 299.37 259.94 300.00
  L 258.21 300.02
  L 258.00 261.43
  A 0.91 0.91 0.0 0 1 258.92 260.51
  L 299.06 260.68
  A 0.56 0.52 -0.5 0 1 299.62 261.19
  L 299.73 268.19
  A 0.55 0.50 -0.0 0 1 299.18 268.69
  L 270.11 268.81
  A 1.12 1.12 -0.3 0 0 269.00 269.93
  L 269.00 274.44
  A 0.88 0.88 -0.3 0 0 269.89 275.32
  L 286.08 275.25
  A 0.93 0.92 -90.0 0 1 287.00 276.18
  L 287.00 282.98
  A 0.52 0.52 0.0 0 1 286.48 283.50
  L 270.10 283.50
  A 0.95 0.86 -0.3 0 0 269.15 284.37
  L 269.22 290.45
  A 0.59 0.49 0.0 0 0 269.81 290.94
  L 299.59 291.00
  A 0.59 0.58 -3.9 0 1 300.17 291.50
  Q 300.90 296.23 299.39 300.07
  Z"
/>
<path fill="#000000" d="
  M 344.50 299.79
  L 316.25 299.79
  C 309.99 299.86 308.31 296.19 308.12 290.42
  Q 307.77 280.06 308.13 269.70
  C 308.30 264.99 309.77 261.23 314.75 260.75
  C 320.80 260.16 331.02 260.52 340.94 260.37
  Q 345.70 260.30 348.25 261.25
  C 354.74 263.67 352.94 269.99 353.40 275.24
  A 0.91 0.87 87.6 0 1 352.53 276.23
  L 342.93 276.09
  A 0.55 0.54 -0.5 0 1 342.38 275.56
  L 342.29 270.22
  A 0.98 0.91 89.7 0 0 341.38 269.25
  L 319.88 269.25
  A 0.86 0.84 -0.3 0 0 319.02 270.10
  L 319.17 290.32
  A 0.53 0.51 0.6 0 0 319.69 290.83
  L 341.38 290.99
  A 0.88 0.87 90.0 0 0 342.25 290.11
  L 342.25 283.66
  A 0.66 0.66 0.0 0 1 342.91 283.00
  L 352.33 283.00
  A 0.80 0.79 87.6 0 1 353.12 283.73
  C 353.68 290.43 354.48 300.42 344.50 299.79
  Z"
/>
<path fill="#000000" d="
  M 391.73 299.62
  L 366.00 299.79
  Q 357.75 299.73 357.75 291.75
  Q 357.75 276.75 357.75 261.08
  A 0.58 0.58 0.0 0 1 358.33 260.50
  L 368.06 260.50
  A 0.69 0.69 0.0 0 1 368.75 261.19
  L 368.75 290.52
  A 0.54 0.53 89.5 0 0 369.29 291.06
  L 391.81 290.83
  A 0.52 0.51 -0.6 0 0 392.32 290.32
  L 392.49 261.39
  A 0.89 0.87 -90.0 0 1 393.36 260.50
  L 402.84 260.50
  A 0.66 0.66 0.0 0 1 403.50 261.16
  Q 403.50 274.22 403.50 287.03
  C 403.50 295.62 402.11 301.69 391.73 299.62
  Z"
/>
<path fill="#000000" d="
  M 441.94 300.00
  L 408.52 300.00
  L 408.26 261.28
  A 0.73 0.72 -0.4 0 1 408.98 260.56
  Q 424.28 260.45 440.00 260.50
  C 446.13 260.52 452.25 260.84 452.25 268.61
  C 452.25 272.51 453.10 277.11 448.87 279.34
  A 0.47 0.47 -41.5 0 0 448.82 280.14
  C 452.61 282.75 452.95 285.33 452.92 289.95
  Q 452.87 299.72 441.94 300.00
  Z
  M 420.19 275.57
  Q 430.34 275.65 440.49 275.28
  C 443.24 275.18 443.29 268.60 439.94 268.56
  Q 430.84 268.45 420.57 268.51
  A 1.11 1.11 3.9 0 0 419.47 269.47
  Q 418.97 272.95 419.54 275.08
  A 0.69 0.66 -6.7 0 0 420.19 275.57
  Z
  M 442.3743 284.9802
  A 1.42 1.42 0.0 0 0 440.9567 283.5577
  L 420.6368 283.5223
  A 1.42 1.42 0.0 0 0 419.2143 284.9398
  L 419.2057 289.8398
  A 1.42 1.42 0.0 0 0 420.6233 291.2623
  L 440.9432 291.2977
  A 1.42 1.42 0.0 0 0 442.3657 289.8802
  L 442.3743 284.9802
  Z"
/>
<path fill="#000000" d="
  M 498.44 300.00
  L 497.44 300.00
  L 489.50 299.79
  L 481.75 299.79
  L 477.50 299.79
  L 473.19 300.00
  L 465.69 300.00
  Q 462.06 299.37 458.44 300.00
  L 457.03 300.02
  L 456.76 261.30
  A 0.74 0.74 0.0 0 1 457.50 260.56
  L 497.68 260.50
  A 0.91 0.86 89.3 0 1 498.54 261.39
  L 498.66 267.88
  A 0.86 0.79 89.6 0 1 497.87 268.75
  L 468.77 268.75
  A 0.98 0.93 0.0 0 0 467.79 269.68
  L 467.80 274.63
  A 0.78 0.71 0.4 0 0 468.57 275.34
  L 485.06 275.42
  A 0.56 0.51 0.5 0 1 485.62 275.94
  L 485.57 283.00
  A 0.56 0.50 0.5 0 1 485.01 283.49
  L 468.70 283.67
  A 0.67 0.66 6.5 0 0 468.05 284.18
  Q 467.49 286.42 467.93 289.96
  A 1.24 1.21 -3.5 0 0 469.14 291.01
  L 498.07 291.18
  A 0.64 0.64 83.1 0 1 498.69 291.67
  Q 499.68 295.86 498.44 300.00
  Z"
/>
<path fill="#000000" d="
  M 278.50 299.79
  L 278.44 300.00
  L 274.19 300.00
  L 278.50 299.79
  Z"
/>
<path fill="#000000" d="
  M 477.50 299.79
  L 477.44 300.00
  L 473.19 300.00
  L 477.50 299.79
  Z"
/>
</svg>
