<?xml version="1.0" encoding="UTF-8" standalone="no"?>
<!DOCTYPE svg PUBLIC "-//W3C//DTD SVG 1.1//EN" "http://www.w3.org/Graphics/SVG/1.1/DTD/svg11.dtd">
<svg xmlns="http://www.w3.org/2000/svg" version="1.1" viewBox="0 0 600 300">
<g stroke-width="2.00" fill="none" stroke-linecap="butt">
<path stroke="#778869" vector-effect="non-scaling-stroke" d="
  M 359.04 21.50
  C 355.09 17.01 350.01 14.47 343.85 15.52
  Q 325.86 18.57 310.24 28.19
  Q 306.26 30.64 302.32 33.15
  C 301.98 33.37 301.35 34.62 301.21 33.00"
/>
<path stroke="#aeadae" vector-effect="non-scaling-stroke" d="
  M 301.21 33.00
  L 301.86 32.25"
/>
<path stroke="#929294" vector-effect="non-scaling-stroke" d="
  M 301.86 32.25
  L 306.50 29.46"
/>
<path stroke="#8d8c8d" vector-effect="non-scaling-stroke" d="
  M 306.50 29.46
  L 328.57 18.19
  A 0.82 0.81 -37.3 0 0 328.76 16.86
  C 316.15 5.67 298.09 1.77 282.33 4.08
  Q 279.56 4.48 276.77 4.87
  C 273.66 5.30 270.61 6.86 267.35 7.60
  Q 265.29 8.07 263.44 9.12
  Q 259.60 11.29 255.25 12.21"
/>
<path stroke="#9a9a9c" vector-effect="non-scaling-stroke" d="
  M 306.50 29.46
  Q 306.83 28.58 307.53 27.98
  A 0.53 0.48 -37.9 0 0 307.65 27.29
  C 304.22 22.67 299.44 20.85 293.87 19.94
  C 291.61 19.57 289.29 18.50 286.75 18.49
  A 1.47 1.26 -61.4 0 0 285.88 18.82
  Q 283.79 20.54 281.71 20.17
  Q 280.74 20.00 279.82 19.67
  Q 275.82 18.23 275.50 19.71"
/>
<path stroke="#7f9171" vector-effect="non-scaling-stroke" d="
  M 275.50 19.71
  C 265.79 16.82 252.83 11.99 244.60 20.60"
/>
<path stroke="#748666" vector-effect="non-scaling-stroke" d="
  M 359.75 23.21
  L 350.00 27.79"
/>
<path stroke="#6f9851" vector-effect="non-scaling-stroke" d="
  M 350.00 27.79
  Q 343.97 18.85 334.19 22.44
  Q 328.87 24.39 325.25 25.49
  Q 318.96 27.41 316.38 28.60
  Q 308.88 32.05 305.94 34.44
  Q 303.49 36.42 301.72 37.09
  A 1.15 1.03 46.8 0 1 300.81 37.01
  Q 294.87 33.75 289.27 29.96
  C 286.73 28.25 280.83 25.77 277.87 25.34
  C 273.63 24.73 266.95 20.88 263.18 22.99
  A 1.49 1.34 -53.3 0 1 262.27 23.17
  C 259.12 22.75 253.66 24.86 252.50 28.04"
/>
<path stroke="#839576" vector-effect="non-scaling-stroke" d="
  M 252.50 28.04
  L 247.78 25.83"
/>
<path stroke="#7f9171" vector-effect="non-scaling-stroke" d="
  M 247.78 25.83
  Q 246.48 24.39 244.25 24.21"
/>
<path stroke="#7b8d6d" vector-effect="non-scaling-stroke" d="
  M 244.25 24.21
  L 243.00 23.46"
/>
<path stroke="#849778" vector-effect="non-scaling-stroke" d="
  M 275.50 19.71
  Q 279.68 21.88 284.12 23.00"
/>
<path stroke="#a0b293" vector-effect="non-scaling-stroke" d="
  M 284.12 23.00
  L 301.21 33.00"
/>
<path stroke="#bbbcbe" vector-effect="non-scaling-stroke" d="
  M 301.86 32.25
  Q 293.97 25.53 284.12 23.00"
/>
<path stroke="#7b916a" vector-effect="non-scaling-stroke" d="
  M 350.00 27.79
  Q 348.99 29.01 347.89 29.30"
/>
<path stroke="#7eae57" vector-effect="non-scaling-stroke" d="
  M 347.89 29.30
  Q 344.94 26.31 341.44 24.81
  C 337.37 23.07 334.47 24.90 330.98 25.67
  C 323.15 27.41 315.69 29.96 309.16 34.71
  C 307.03 36.27 302.01 40.40 300.02 38.43
  Q 299.64 38.06 299.21 37.92
  Q 297.31 37.28 295.78 35.97
  C 291.68 32.45 287.21 30.90 282.29 28.78
  Q 279.75 27.69 277.03 27.18
  C 271.18 26.09 266.81 23.94 260.56 24.51
  A 0.56 0.51 86.6 0 0 260.11 25.07
  Q 260.15 26.92 257.94 26.91
  Q 255.28 26.91 255.28 29.78"
/>
<path stroke="#92a982" vector-effect="non-scaling-stroke" d="
  M 255.28 29.78
  Q 254.83 29.48 254.50 29.46"
/>
<path stroke="#8aa079" vector-effect="non-scaling-stroke" d="
  M 254.50 29.46
  L 252.50 28.04"
/>
<path stroke="#8b898a" vector-effect="non-scaling-stroke" d="
  M 361.93 23.54
  Q 363.35 25.36 364.73 27.13
  C 365.69 28.36 367.25 29.49 368.13 31.32
  Q 369.46 34.10 369.51 34.19
  C 374.34 42.36 378.52 51.36 380.22 60.76
  Q 385.91 92.21 369.77 120.60
  A 1.44 1.34 51.3 0 0 369.68 121.78
  L 372.96 131.00"
/>
<path stroke="#969596" vector-effect="non-scaling-stroke" d="
  M 372.96 131.00
  L 373.46 133.25"
/>
<path stroke="#6e7d62" vector-effect="non-scaling-stroke" d="
  M 373.46 133.25
  Q 372.93 133.30 372.81 132.94
  Q 369.16 121.62 364.46 112.25"
/>
<path stroke="#7c7a7b" vector-effect="non-scaling-stroke" d="
  M 364.46 112.25
  Q 368.35 107.03 371.06 98.31
  Q 377.10 78.87 373.51 60.51
  C 371.90 52.29 367.01 37.63 360.00 32.61
  Q 358.49 31.53 358.73 33.36
  C 359.21 36.98 360.39 40.30 360.47 43.86
  Q 360.53 46.93 360.75 50.00
  C 361.08 54.62 358.91 60.88 358.52 66.22
  C 358.42 67.55 357.38 68.18 357.10 69.53
  Q 355.20 78.79 348.70 85.61"
/>
<path stroke="#788c68" vector-effect="non-scaling-stroke" d="
  M 348.70 85.61
  L 342.72 76.79"
/>
<path stroke="#878586" vector-effect="non-scaling-stroke" d="
  M 342.72 76.79
  Q 343.33 71.78 345.50 67.25
  Q 346.11 65.98 346.50 62.75
  Q 347.69 52.92 347.13 43.04
  C 346.88 38.60 347.25 38.34 344.98 35.18
  A 1.54 1.53 -32.3 0 1 345.49 32.94
  Q 346.15 32.58 345.71 31.00"
/>
<path stroke="#849c6c" vector-effect="non-scaling-stroke" d="
  M 345.71 31.00
  L 347.89 29.30"
/>
<path stroke="#929091" vector-effect="non-scaling-stroke" d="
  M 244.25 24.21
  C 242.83 24.40 244.10 25.27 244.54 25.43
  C 248.41 26.77 245.32 28.69 244.09 30.15
  Q 231.93 44.59 230.92 63.69
  Q 229.96 82.01 243.72 95.06
  A 2.00 1.97 20.6 0 1 244.34 96.40
  Q 244.38 97.07 245.50 97.29"
/>
<path stroke="#8a8889" vector-effect="non-scaling-stroke" d="
  M 245.50 97.29
  Q 244.60 100.05 241.99 102.97
  A 0.86 0.81 51.0 0 1 240.65 102.79
  L 239.24 100.46
  A 1.52 0.76 7.7 0 0 238.46 99.93
  C 235.99 99.09 232.98 94.40 231.88 93.10
  C 229.46 90.23 228.65 86.96 227.45 83.51
  C 223.05 70.81 223.52 56.04 228.19 43.94
  Q 232.57 32.55 238.25 24.50"
/>
<path stroke="#a1a0a1" vector-effect="non-scaling-stroke" d="
  M 380.69 43.54
  L 388.75 62.85
  A 1.60 1.31 -53.8 0 1 388.80 63.79
  Q 388.08 66.58 388.69 71.31
  Q 390.27 83.73 387.25 99.00
  C 386.27 103.95 384.37 108.22 383.12 111.92
  C 380.93 118.42 378.03 121.75 375.70 127.65
  A 2.71 2.69 5.5 0 1 373.67 129.31
  Q 372.59 129.51 372.96 131.00"
/>
<path stroke="#8ba373" vector-effect="non-scaling-stroke" d="
  M 345.71 31.00
  L 339.54 35.75"
/>
<path stroke="#94bf58" vector-effect="non-scaling-stroke" d="
  M 339.54 35.75
  Q 340.12 34.13 338.74 34.40
  Q 337.48 34.65 336.21 34.46
  Q 332.75 33.96 331.27 35.32
  Q 330.86 35.70 330.45 35.80
  C 321.43 37.97 311.36 41.98 303.93 47.62
  C 300.34 50.34 297.10 45.84 294.00 44.75
  C 290.18 43.41 287.12 40.83 284.14 39.36
  Q 280.60 37.62 277.23 35.58
  C 274.90 34.16 267.83 32.45 265.43 33.75
  A 1.72 1.45 29.6 0 1 264.51 33.92
  Q 262.58 33.75 263.46 36.00"
/>
<path stroke="#9bb484" vector-effect="non-scaling-stroke" d="
  M 263.46 36.00
  L 255.28 29.78"
/>
<path stroke="#9a999a" vector-effect="non-scaling-stroke" d="
  M 247.78 25.83
  Q 249.37 28.04 251.54 28.90
  Q 253.65 29.75 251.70 30.93
  C 243.26 36.07 236.31 52.34 236.00 62.50
  Q 235.47 79.62 249.09 91.47"
/>
<path stroke="#8d8c8d" vector-effect="non-scaling-stroke" d="
  M 249.09 91.47
  L 245.50 97.29"
/>
<path stroke="#929091" vector-effect="non-scaling-stroke" d="
  M 249.09 91.47
  L 252.09 86.80"
/>
<path stroke="#9a999a" vector-effect="non-scaling-stroke" d="
  M 252.09 86.80
  L 256.53 80.05"
/>
<path stroke="#a4a3a4" vector-effect="non-scaling-stroke" d="
  M 256.53 80.05
  Q 257.23 79.45 257.50 78.54"
/>
<path stroke="#aeadae" vector-effect="non-scaling-stroke" d="
  M 257.50 78.54
  L 260.50 74.29"
/>
<path stroke="#c2c1c1" vector-effect="non-scaling-stroke" d="
  M 260.50 74.29
  L 278.68 52.13
  A 0.57 0.56 -47.1 0 0 278.66 51.38
  L 274.46 47.00"
/>
<path stroke="#aeadae" vector-effect="non-scaling-stroke" d="
  M 274.46 47.00
  L 267.46 40.13"
/>
<path stroke="#a4a3a4" vector-effect="non-scaling-stroke" d="
  M 267.46 40.13
  L 266.50 39.00"
/>
<path stroke="#93a46e" vector-effect="non-scaling-stroke" d="
  M 266.50 39.00
  Q 274.06 44.91 280.54 52.00"
/>
<path stroke="#778869" vector-effect="non-scaling-stroke" d="
  M 280.54 52.00
  Q 261.55 73.55 250.25 91.00
  Q 244.44 99.97 235.50 118.29"
/>
<path stroke="#7d7b7c" vector-effect="non-scaling-stroke" d="
  M 235.50 118.29
  Q 234.01 119.51 232.94 118.81
  Q 226.49 114.61 221.27 106.67
  Q 221.04 106.31 221.00 105.75
  Q 220.92 104.28 219.62 103.47
  Q 217.86 102.39 217.27 100.41
  C 214.40 90.87 211.43 81.69 212.81 71.72
  C 213.19 68.97 212.98 65.77 213.75 62.50
  Q 213.93 61.75 213.00 61.96"
/>
<path stroke="#a7a6a7" vector-effect="non-scaling-stroke" d="
  M 254.50 29.46
  Q 254.16 29.51 253.99 29.72
  A 0.60 0.42 35.9 0 0 254.24 30.45
  L 257.29 32.49
  A 0.45 0.44 -44.6 0 1 257.28 33.23
  C 240.54 44.31 237.90 72.58 252.09 86.80"
/>
<path stroke="#a8b983" vector-effect="non-scaling-stroke" d="
  M 263.46 36.00
  L 266.50 39.00"
/>
<path stroke="#b9b8b9" vector-effect="non-scaling-stroke" d="
  M 266.50 39.00
  Q 264.39 36.87 264.42 39.44
  A 1.17 1.06 70.7 0 1 264.07 40.27
  Q 261.61 42.55 259.13 44.82
  C 257.78 46.07 257.32 47.52 256.29 49.03
  C 253.45 53.19 252.48 57.80 251.96 62.90
  Q 251.02 72.11 256.53 80.05"
/>
<path stroke="#7f936f" vector-effect="non-scaling-stroke" d="
  M 342.72 76.79
  L 331.04 61.25"
/>
<path stroke="#a8a7a8" vector-effect="non-scaling-stroke" d="
  M 331.04 61.25
  C 333.96 61.25 324.54 51.58 323.71 50.75"
/>
<path stroke="#98a872" vector-effect="non-scaling-stroke" d="
  M 323.71 50.75
  L 339.54 35.75"
/>
<path stroke="#6a795e" vector-effect="non-scaling-stroke" d="
  M 364.46 112.25
  L 361.79 107.50"
/>
<path stroke="#748864" vector-effect="non-scaling-stroke" d="
  M 361.79 107.50
  Q 355.88 95.92 348.70 85.61"
/>
<path stroke="#b2c38d" vector-effect="non-scaling-stroke" d="
  M 323.71 50.75
  Q 322.88 50.95 322.96 51.75"
/>
<path stroke="#88af54" vector-effect="non-scaling-stroke" d="
  M 322.96 51.75
  L 321.39 53.57"
/>
<path stroke="#bfd47d" vector-effect="non-scaling-stroke" d="
  M 321.39 53.57
  Q 317.54 53.11 313.94 55.44
  Q 312.53 56.35 305.72 60.29
  C 304.31 61.11 302.64 63.71 300.47 62.41
  C 297.93 60.89 295.60 59.90 293.19 58.31
  Q 287.89 54.83 281.24 53.07"
/>
<path stroke="#85a952" vector-effect="non-scaling-stroke" d="
  M 281.24 53.07
  L 280.54 52.00"
/>
<path stroke="#cdcdce" vector-effect="non-scaling-stroke" d="
  M 267.46 40.13
  Q 264.27 43.19 261.29 46.39
  Q 259.30 48.53 257.80 51.09
  Q 255.39 55.16 255.06 56.31
  C 254.55 58.08 253.44 68.02 255.02 71.31
  Q 255.23 71.76 255.25 72.25
  Q 255.32 74.43 256.87 75.92
  A 0.90 0.83 -63.8 0 1 257.11 76.73
  Q 256.89 77.76 257.50 78.54"
/>
<path stroke="#ebebeb" vector-effect="non-scaling-stroke" d="
  M 274.46 47.00
  Q 273.84 47.21 273.74 47.76
  A 1.25 0.68 39.6 0 0 274.08 48.61
  Q 276.10 50.96 273.16 52.64
  Q 269.44 54.75 267.75 58.75
  Q 267.30 59.81 266.74 60.29
  A 1.77 0.93 -26.1 0 0 266.18 61.06
  Q 264.36 67.80 260.06 73.31
  Q 259.28 74.30 260.50 74.29"
/>
<path stroke="#b7b7b8" vector-effect="non-scaling-stroke" d="
  M 395.21 83.75
  L 394.29 83.91
  A 0.65 0.57 84.3 0 0 393.83 84.56
  Q 394.07 92.29 392.75 97.50
  Q 390.56 106.13 385.06 121.31
  Q 383.53 125.54 379.95 131.16
  C 377.28 135.36 373.88 135.85 374.96 142.25"
/>
<path stroke="#849379" vector-effect="non-scaling-stroke" d="
  M 374.96 142.25
  L 373.46 133.25"
/>
<path stroke="#99ae8a" vector-effect="non-scaling-stroke" d="
  M 331.04 61.25
  L 322.96 51.75"
/>
<path stroke="#668a4b" vector-effect="non-scaling-stroke" d="
  M 361.79 107.50
  Q 361.94 113.99 365.07 119.70
  Q 366.79 122.83 367.22 126.38
  C 367.45 128.26 369.31 138.22 368.09 140.10
  Q 367.37 141.20 366.21 142.00"
/>
<path stroke="#91a683" vector-effect="non-scaling-stroke" d="
  M 366.21 142.00
  L 366.00 141.96"
/>
<path stroke="#859976" vector-effect="non-scaling-stroke" d="
  M 366.00 141.96
  L 363.21 136.75"
/>
<path stroke="#7d916e" vector-effect="non-scaling-stroke" d="
  M 363.21 136.75
  L 362.25 134.79"
/>
<path stroke="#7ba955" vector-effect="non-scaling-stroke" d="
  M 362.25 134.79
  Q 362.44 134.40 362.75 134.17
  A 1.14 0.74 -25.2 0 0 363.21 133.43
  Q 363.39 127.78 361.85 122.47
  Q 361.11 119.89 358.54 112.39
  Q 356.38 106.05 352.31 99.19
  C 351.17 97.26 349.81 95.84 349.00 94.53
  Q 343.17 85.08 336.84 75.96
  Q 336.45 75.40 334.81 72.49
  C 333.28 69.77 329.86 66.99 328.53 65.34
  Q 325.76 61.93 322.84 58.63
  A 1.23 0.97 -15.7 0 0 322.00 58.28
  Q 320.46 58.27 320.71 56.50"
/>
<path stroke="#a6bf7a" vector-effect="non-scaling-stroke" d="
  M 320.71 56.50
  L 321.39 53.57"
/>
<path stroke="#a2b978" vector-effect="non-scaling-stroke" d="
  M 281.24 53.07
  L 282.29 57.00"
/>
<path stroke="#78a353" vector-effect="non-scaling-stroke" d="
  M 282.29 57.00
  L 282.21 57.50"
/>
<path stroke="#6f9851" vector-effect="non-scaling-stroke" d="
  M 282.21 57.50
  Q 281.72 58.00 280.75 56.65
  A 0.79 0.76 48.3 0 0 279.55 56.56
  L 270.99 66.07
  Q 270.32 66.82 270.02 67.11
  C 268.04 69.03 266.80 71.76 265.69 73.42
  Q 260.42 81.35 255.50 89.50
  Q 254.42 91.29 253.69 92.19
  C 250.82 95.70 248.50 100.60 246.89 103.45
  C 243.70 109.11 242.05 114.30 239.31 121.46
  Q 235.99 130.11 238.21 139.50"
/>
<path stroke="#6d7f5f" vector-effect="non-scaling-stroke" d="
  M 238.21 139.50
  L 235.04 145.25"
/>
<path stroke="#708262" vector-effect="non-scaling-stroke" d="
  M 235.04 145.25
  L 234.00 148.21"
/>
<path stroke="#748666" vector-effect="non-scaling-stroke" d="
  M 234.00 148.21
  L 233.04 151.00"
/>
<path stroke="#798b6c" vector-effect="non-scaling-stroke" d="
  M 233.04 151.00
  Q 232.02 153.15 232.15 155.49
  A 0.64 0.41 85.7 0 1 231.80 156.15
  Q 231.57 156.17 231.29 156.00"
/>
<path stroke="#6f8061" vector-effect="non-scaling-stroke" d="
  M 231.29 156.00
  Q 228.18 152.36 228.21 147.50
  C 228.29 136.91 230.78 129.79 235.50 118.29"
/>
<path stroke="#b2cf7e" vector-effect="non-scaling-stroke" d="
  M 320.71 56.50
  L 320.05 57.57"
/>
<path stroke="#e5eab7" vector-effect="non-scaling-stroke" d="
  M 320.05 57.57
  C 312.54 57.63 310.26 61.66 304.40 64.69
  C 297.88 68.06 296.02 61.69 290.49 60.82
  A 1.80 1.80 69.7 0 1 289.62 60.42
  Q 287.92 59.03 286.08 58.64
  A 1.83 1.82 85.1 0 1 284.75 57.51
  Q 283.74 54.84 282.46 57.00"
/>
<path stroke="#b2cf7e" vector-effect="non-scaling-stroke" d="
  M 282.46 57.00
  L 282.29 57.00"
/>
<path stroke="#bad493" vector-effect="non-scaling-stroke" d="
  M 320.05 57.57
  L 319.29 60.50"
/>
<path stroke="#f3f4e2" vector-effect="non-scaling-stroke" d="
  M 319.29 60.50
  Q 319.61 58.63 318.50 59.08
  A 1.03 0.79 88.0 0 0 317.98 59.81
  Q 316.86 66.19 310.56 64.92
  A 1.04 0.98 -59.7 0 0 309.70 65.17
  L 302.71 71.50"
/>
<path stroke="#e2e3d2" vector-effect="non-scaling-stroke" d="
  M 302.71 71.50
  C 300.58 70.27 299.64 72.64 298.25 73.46"
/>
<path stroke="#f3f4e2" vector-effect="non-scaling-stroke" d="
  M 298.25 73.46
  Q 298.06 71.96 296.79 71.37
  A 1.22 1.05 -89.1 0 1 296.22 70.69
  C 295.64 68.93 290.27 67.91 288.54 67.34
  A 1.26 1.15 -2.6 0 1 287.83 66.75
  L 285.72 62.70
  A 0.46 0.39 56.6 0 0 285.08 62.51
  Q 284.41 63.08 284.96 64.25"
/>
<path stroke="#c7da92" vector-effect="non-scaling-stroke" d="
  M 284.96 64.25
  L 284.54 63.75"
/>
<path stroke="#bad493" vector-effect="non-scaling-stroke" d="
  M 284.54 63.75
  L 282.46 57.00"
/>
<path stroke="#7eae57" vector-effect="non-scaling-stroke" d="
  M 282.21 57.50
  Q 282.21 58.55 281.31 58.60
  Q 280.66 58.63 280.36 58.80
  Q 277.28 60.52 275.71 63.75"
/>
<path stroke="#75a354" vector-effect="non-scaling-stroke" d="
  M 275.71 63.75
  Q 274.07 64.79 272.65 66.11
  C 271.51 67.17 270.99 68.88 269.47 70.02
  A 1.37 1.37 77.7 0 0 268.97 70.80
  Q 268.59 72.52 267.17 73.49
  A 1.77 1.46 -10.2 0 0 266.56 74.21
  C 265.31 77.22 262.98 79.47 261.50 82.17
  C 259.90 85.08 257.48 87.89 255.95 90.36
  Q 252.02 96.71 248.00 103.00
  C 245.47 106.95 243.72 114.09 241.71 119.20
  C 239.38 125.14 239.07 127.92 239.36 134.02
  A 2.48 2.48 59.6 0 1 239.00 135.41
  Q 238.50 136.22 239.54 137.00"
/>
<path stroke="#748a63" vector-effect="non-scaling-stroke" d="
  M 239.54 137.00
  L 238.21 139.50"
/>
<path stroke="#89a172" vector-effect="non-scaling-stroke" d="
  M 362.25 134.79
  L 358.59 129.57"
/>
<path stroke="#849c6c" vector-effect="non-scaling-stroke" d="
  M 358.59 129.57
  Q 358.59 129.33 358.00 128.96"
/>
<path stroke="#809868" vector-effect="non-scaling-stroke" d="
  M 358.00 128.96
  Q 357.88 128.44 357.54 128.00"
/>
<path stroke="#99c157" vector-effect="non-scaling-stroke" d="
  M 357.54 128.00
  C 359.41 127.22 354.23 121.96 353.37 120.90
  Q 352.34 119.64 352.01 117.95
  C 351.34 114.51 349.66 107.83 347.15 104.36
  C 343.52 99.33 340.40 93.87 337.19 88.56
  Q 333.34 82.21 323.81 70.45
  Q 321.26 67.30 317.54 65.75"
/>
<path stroke="#c0d9a8" vector-effect="non-scaling-stroke" d="
  M 317.54 65.75
  L 319.29 60.50"
/>
<path stroke="#94bf58" vector-effect="non-scaling-stroke" d="
  M 284.54 63.75
  Q 284.60 64.33 284.36 64.78
  Q 284.12 65.24 283.87 64.74
  C 283.02 63.02 282.28 64.85 281.75 65.31
  Q 277.34 69.11 274.21 73.99
  C 272.54 76.59 269.96 78.41 268.43 81.36
  Q 266.91 84.28 265.82 85.62
  Q 262.06 90.27 259.02 95.44
  C 258.10 97.00 256.16 99.22 255.78 100.94
  Q 255.67 101.45 255.35 101.80
  Q 253.52 103.85 252.75 106.50
  Q 252.63 106.89 252.30 106.91
  A 0.86 0.48 1.3 0 0 251.62 107.27
  L 243.35 129.47
  A 1.95 1.40 -16.6 0 1 242.77 130.22
  Q 241.68 131.06 242.96 131.75"
/>
<path stroke="#7d9565" vector-effect="non-scaling-stroke" d="
  M 242.96 131.75
  L 241.84 133.53"
/>
<path stroke="#7eae57" vector-effect="non-scaling-stroke" d="
  M 241.84 133.53
  Q 241.08 129.08 242.31 125.02
  C 244.62 117.43 245.48 109.35 249.71 102.53
  C 251.79 99.18 253.25 96.16 255.35 93.10
  C 259.08 87.68 261.88 82.35 265.90 77.41
  C 267.05 75.99 267.36 74.01 269.25 72.75
  Q 270.00 72.25 271.74 68.96
  C 272.83 66.92 274.50 65.76 275.71 63.75"
/>
<path stroke="#d2e0a6" vector-effect="non-scaling-stroke" d="
  M 317.54 65.75
  L 315.71 71.00"
/>
<path stroke="#e5ebc0" vector-effect="non-scaling-stroke" d="
  M 315.71 71.00
  Q 315.06 72.04 314.96 73.25"
/>
<path stroke="#f3f4e2" vector-effect="non-scaling-stroke" d="
  M 314.96 73.25
  C 314.18 75.93 311.50 78.31 314.45 80.55
  Q 321.10 85.60 325.83 92.42"
/>
<path stroke="#b5b4b4" vector-effect="non-scaling-stroke" d="
  M 325.83 92.42
  L 310.97 79.18"
/>
<path stroke="#d4d3d3" vector-effect="non-scaling-stroke" d="
  M 310.97 79.18
  L 305.04 74.25"
/>
<path stroke="#dfdfdf" vector-effect="non-scaling-stroke" d="
  M 305.04 74.25
  L 303.29 72.25"
/>
<path stroke="#e8e8e8" vector-effect="non-scaling-stroke" d="
  M 303.29 72.25
  L 302.71 71.50"
/>
<path stroke="#807e7f" vector-effect="non-scaling-stroke" d="
  M 231.29 156.00
  L 230.71 156.50"
/>
<path stroke="#e8e8e8" vector-effect="non-scaling-stroke" d="
  M 298.25 73.46
  L 285.00 85.21"
/>
<path stroke="#dfdfdf" vector-effect="non-scaling-stroke" d="
  M 285.00 85.21
  L 282.25 87.54"
/>
<path stroke="#f0f2da" vector-effect="non-scaling-stroke" d="
  M 282.25 87.54
  C 278.39 87.51 287.71 80.34 288.50 79.81
  Q 290.05 78.77 289.44 77.20
  L 287.54 72.25"
/>
<path stroke="#dee7b3" vector-effect="non-scaling-stroke" d="
  M 287.54 72.25
  L 286.29 68.25"
/>
<path stroke="#cddea7" vector-effect="non-scaling-stroke" d="
  M 286.29 68.25
  L 284.96 64.25"
/>
<path stroke="#748a63" vector-effect="non-scaling-stroke" d="
  M 241.84 133.53
  L 239.54 137.00"
/>
<path stroke="#b2cd63" vector-effect="non-scaling-stroke" d="
  M 286.29 68.25
  C 284.27 71.37 282.33 74.98 279.56 77.56
  Q 277.31 79.66 269.52 90.00
  C 265.64 95.15 258.71 102.82 257.98 110.18
  A 1.59 1.50 70.0 0 1 257.60 111.06
  Q 255.54 113.43 254.79 116.50"
/>
<path stroke="#91a16b" vector-effect="non-scaling-stroke" d="
  M 254.79 116.50
  L 250.35 122.36"
/>
<path stroke="#8d9d67" vector-effect="non-scaling-stroke" d="
  M 250.35 122.36
  L 246.12 127.68"
/>
<path stroke="#8a9a64" vector-effect="non-scaling-stroke" d="
  M 246.12 127.68
  L 242.96 131.75"
/>
<path stroke="#929f66" vector-effect="non-scaling-stroke" d="
  M 357.54 128.00
  L 354.79 124.75"
/>
<path stroke="#8f9c63" vector-effect="non-scaling-stroke" d="
  M 354.79 124.75
  L 340.54 107.75"
/>
<path stroke="#ccdc90" vector-effect="non-scaling-stroke" d="
  M 340.54 107.75
  Q 341.60 105.98 339.46 104.75"
/>
<path stroke="#bed36f" vector-effect="non-scaling-stroke" d="
  M 339.46 104.75
  L 337.90 100.68
  Q 337.63 99.98 337.49 99.82
  Q 335.44 97.37 334.24 94.40
  Q 334.07 93.97 333.67 93.64
  C 332.36 92.59 331.56 90.64 330.89 89.76
  Q 323.61 80.13 315.71 71.00"
/>
<path stroke="#d5e196" vector-effect="non-scaling-stroke" d="
  M 287.54 72.25
  C 284.34 76.12 280.48 79.39 278.14 83.91
  C 275.62 88.79 272.08 92.04 269.10 97.48
  Q 268.08 99.33 265.79 102.07
  Q 263.59 104.71 262.30 107.89"
/>
<path stroke="#a7b07d" vector-effect="non-scaling-stroke" d="
  M 262.30 107.89
  L 257.25 113.96"
/>
<path stroke="#a2aa77" vector-effect="non-scaling-stroke" d="
  M 257.25 113.96
  L 254.79 116.50"
/>
<path stroke="#c3d66f" vector-effect="non-scaling-stroke" d="
  M 276.26 83.54
  C 275.45 85.21 274.06 85.28 273.43 87.70
  Q 273.21 88.57 273.74 87.81
  L 276.52 83.84
  Q 276.71 83.57 276.73 83.47
  Q 277.03 81.93 276.26 83.54"
/>
<path stroke="#cececf" vector-effect="non-scaling-stroke" d="
  M 303.29 72.25
  Q 303.11 73.24 303.86 73.94
  A 0.72 0.61 36.3 0 1 304.04 74.70
  C 301.11 80.78 293.66 89.36 286.03 86.85
  A 1.11 0.96 2.1 0 1 285.36 86.23
  L 285.00 85.21"
/>
<path stroke="#dfe7ab" vector-effect="non-scaling-stroke" d="
  M 339.46 104.75
  Q 334.38 100.49 331.24 94.75
  Q 330.36 93.15 328.98 91.40
  Q 327.72 89.79 326.77 87.99
  C 325.85 86.25 324.59 85.50 323.55 83.92
  C 321.74 81.16 320.05 78.98 317.98 76.57
  Q 317.50 76.01 316.89 75.63
  Q 314.74 74.27 314.96 73.25"
/>
<path stroke="#d6d8c2" vector-effect="non-scaling-stroke" d="
  M 282.25 87.54
  L 281.00 88.96"
/>
<path stroke="#cbcdb6" vector-effect="non-scaling-stroke" d="
  M 281.00 88.96
  L 274.10 95.70"
/>
<path stroke="#c0c1ab" vector-effect="non-scaling-stroke" d="
  M 274.10 95.70
  L 266.50 103.71"
/>
<path stroke="#b9baa4" vector-effect="non-scaling-stroke" d="
  M 266.50 103.71
  L 262.30 107.89"
/>
<path stroke="#bababb" vector-effect="non-scaling-stroke" d="
  M 305.04 74.25
  Q 307.09 76.11 305.56 78.56
  Q 302.58 83.33 299.61 86.15
  C 298.16 87.53 291.93 91.06 290.30 91.45
  Q 286.72 92.30 283.05 91.33
  A 1.56 1.02 70.2 0 1 282.31 90.77
  L 281.00 88.96"
/>
<path stroke="#b0b09f" vector-effect="non-scaling-stroke" d="
  M 340.54 107.75
  L 325.83 92.42"
/>
<path stroke="#918f90" vector-effect="non-scaling-stroke" d="
  M 310.97 79.18
  Q 310.90 80.79 312.54 81.50"
/>
<path stroke="#a4a3a4" vector-effect="non-scaling-stroke" d="
  M 312.54 81.50
  Q 311.29 86.31 306.35 89.90
  Q 305.82 90.29 305.38 90.78
  C 299.23 97.56 288.45 100.49 279.50 100.03
  Q 275.16 99.81 274.10 95.70"
/>
<path stroke="#757374" vector-effect="non-scaling-stroke" d="
  M 354.79 124.75
  Q 353.52 124.50 352.64 123.57
  A 1.26 0.80 58.8 0 0 351.81 123.16
  Q 350.70 123.21 350.66 124.44
  A 1.73 1.13 73.3 0 1 350.39 125.35
  C 347.56 129.27 343.95 131.99 340.70 135.29
  Q 338.79 137.23 336.70 138.99
  Q 336.43 139.22 336.13 139.77
  Q 335.65 140.65 334.19 141.69
  Q 319.43 152.11 305.75 156.90
  Q 273.58 168.18 243.31 152.94
  Q 238.25 150.39 235.04 145.25"
/>
<path stroke="#757374" vector-effect="non-scaling-stroke" d="
  M 246.12 127.68
  Q 246.50 129.53 245.58 131.21
  C 245.12 132.06 244.72 133.68 246.43 133.27
  A 1.20 1.20 70.5 0 1 247.81 133.93
  C 248.54 135.49 261.22 137.95 263.61 138.48
  C 266.84 139.19 270.01 138.78 273.35 138.96
  C 281.57 139.38 290.97 138.28 299.25 135.66
  C 304.43 134.02 311.01 132.35 316.69 129.39
  C 318.55 128.41 321.10 126.30 324.02 125.50
  Q 325.94 124.97 327.27 123.48
  Q 329.93 120.52 333.38 118.55
  A 1.03 0.52 89.1 0 0 333.73 117.83
  L 333.84 117.02
  A 1.07 0.56 -15.1 0 1 334.52 116.39
  Q 337.98 115.02 341.02 111.31
  A 0.81 0.80 44.1 0 0 341.00 110.26
  L 333.89 102.17"
/>
<path stroke="#797778" vector-effect="non-scaling-stroke" d="
  M 333.89 102.17
  L 330.45 98.66"
/>
<path stroke="#7e7d7e" vector-effect="non-scaling-stroke" d="
  M 330.45 98.66
  L 320.70 89.31"
/>
<path stroke="#858485" vector-effect="non-scaling-stroke" d="
  M 320.70 89.31
  L 312.54 81.50"
/>
<path stroke="#919091" vector-effect="non-scaling-stroke" d="
  M 320.70 89.31
  Q 314.45 99.40 303.00 105.00
  Q 289.34 111.68 275.04 110.15
  C 272.08 109.84 269.24 109.89 267.02 107.75
  A 1.69 1.68 33.6 0 1 266.64 105.87
  Q 267.39 104.13 266.50 103.71"
/>
<path stroke="#d4d4d5" vector-effect="non-scaling-stroke" d="
  M 393.96 112.25
  Q 393.20 112.43 392.62 112.90
  A 1.54 1.17 82.3 0 0 392.15 113.73
  C 390.49 121.97 387.38 133.65 382.00 140.25
  Q 380.27 142.38 379.81 143.31
  L 377.79 147.48
  Q 377.42 148.23 377.01 147.51
  C 375.58 145.05 375.38 148.54 375.04 149.50"
/>
<path stroke="#9d9c9d" vector-effect="non-scaling-stroke" d="
  M 375.04 149.50
  L 374.96 148.00"
/>
<path stroke="#8f9f84" vector-effect="non-scaling-stroke" d="
  M 374.96 148.00
  L 374.96 142.25"
/>
<path stroke="#858485" vector-effect="non-scaling-stroke" d="
  M 330.45 98.66
  Q 328.02 104.28 322.85 107.41
  Q 320.67 108.73 319.42 110.01
  C 315.91 113.58 312.54 115.27 306.46 118.40
  C 304.41 119.46 302.15 119.29 300.08 120.87
  A 1.96 1.74 -64.1 0 1 299.19 121.24
  C 295.15 121.71 290.17 123.62 285.41 123.62
  Q 284.07 123.62 281.28 124.12
  C 278.55 124.60 274.75 123.71 272.08 123.31
  C 270.63 123.10 267.77 123.56 265.85 122.65
  C 263.70 121.64 260.31 120.81 258.69 119.81
  C 255.22 117.67 259.78 113.86 257.25 113.96"
/>
<path stroke="#7c7a7b" vector-effect="non-scaling-stroke" d="
  M 333.89 102.17
  Q 331.68 109.00 325.02 112.10
  A 1.82 1.20 -78.0 0 0 324.35 112.76
  Q 323.90 113.49 322.81 114.31
  C 304.99 127.73 284.45 133.61 262.50 130.25
  C 260.27 129.91 258.19 129.19 255.03 128.74
  Q 250.39 128.08 250.35 122.36"
/>
<path stroke="#6a795e" vector-effect="non-scaling-stroke" d="
  M 374.96 148.00
  Q 373.51 149.34 374.71 150.75"
/>
<path stroke="#a1b096" vector-effect="non-scaling-stroke" d="
  M 374.71 150.75
  L 372.96 154.75"
/>
<path stroke="#9aa98f" vector-effect="non-scaling-stroke" d="
  M 372.96 154.75
  Q 370.17 158.46 370.75 153.75
  Q 370.93 152.28 369.00 148.21"
/>
<path stroke="#91a086" vector-effect="non-scaling-stroke" d="
  M 369.00 148.21
  L 368.46 147.00"
/>
<path stroke="#88977d" vector-effect="non-scaling-stroke" d="
  M 368.46 147.00
  L 366.21 142.00"
/>
<path stroke="#dfdedf" vector-effect="non-scaling-stroke" d="
  M 373.50 155.04
  Q 373.08 155.07 372.96 154.75"
/>
<path stroke="#afaeaf" vector-effect="non-scaling-stroke" d="
  M 374.71 150.75
  L 375.04 149.50"
/>
<path stroke="#7c7a7b" vector-effect="non-scaling-stroke" d="
  M 358.00 128.96
  L 355.72 128.41
  A 0.77 0.68 23.4 0 0 354.95 128.66
  C 351.11 133.85 346.50 138.00 341.49 142.59
  C 335.28 148.29 328.40 152.14 320.47 156.26
  C 295.08 169.47 265.24 169.28 240.06 154.69
  C 237.79 153.37 237.40 151.72 235.48 150.45
  A 0.99 0.83 -77.6 0 1 235.09 149.70
  Q 235.03 148.64 234.00 148.21"
/>
<path stroke="#858485" vector-effect="non-scaling-stroke" d="
  M 358.59 129.57
  L 347.59 141.78
  Q 347.33 142.07 346.39 142.90
  Q 324.35 162.40 297.25 167.50
  Q 273.84 171.91 250.03 162.59
  C 247.85 161.73 244.51 159.95 241.31 158.69
  Q 236.06 156.61 233.04 151.00"
/>
<path stroke="#929192" vector-effect="non-scaling-stroke" d="
  M 363.21 136.75
  L 361.27 137.64
  Q 360.78 137.86 360.50 138.22
  C 349.82 152.10 333.14 163.12 317.01 169.30
  C 316.08 169.66 315.46 170.47 314.32 170.61
  C 311.12 170.98 307.91 172.27 305.29 172.77
  Q 285.50 176.58 265.50 173.49
  Q 254.81 171.84 246.44 166.44
  Q 244.84 165.40 243.49 165.09
  Q 242.98 164.97 242.63 164.68
  Q 240.00 162.46 236.72 161.40
  Q 236.52 161.33 235.91 160.89
  L 233.00 158.79"
/>
<path stroke="#a7a6a7" vector-effect="non-scaling-stroke" d="
  M 366.00 141.96
  Q 365.37 142.43 365.37 143.19
  A 1.51 0.92 74.2 0 1 365.12 144.08
  Q 352.08 160.02 333.82 169.59
  C 323.09 175.21 310.54 179.59 299.04 181.44
  C 291.36 182.69 283.84 182.20 275.50 182.62
  Q 272.99 182.75 270.66 181.85
  Q 262.09 178.55 253.53 175.20"
/>
<path stroke="#bcbcbd" vector-effect="non-scaling-stroke" d="
  M 368.46 147.00
  Q 367.64 147.31 368.25 148.58
  A 1.36 1.34 53.1 0 1 368.05 150.07
  Q 362.15 156.77 356.59 161.82
  C 351.11 166.80 343.41 170.92 336.80 175.68
  Q 335.92 176.31 334.84 176.45
  C 332.36 176.76 330.69 178.36 328.65 178.99
  Q 316.24 182.84 303.97 187.14"
/>
<path stroke="#c5c5c6" vector-effect="non-scaling-stroke" d="
  M 303.97 187.14
  Q 300.40 186.83 297.25 188.46"
/>
<path stroke="#cececf" vector-effect="non-scaling-stroke" d="
  M 369.00 148.21
  Q 368.01 149.24 368.74 150.31
  Q 369.08 150.80 369.13 151.18
  C 369.53 154.36 369.56 157.20 367.37 159.81
  C 364.98 162.65 361.75 164.59 359.38 166.90
  C 354.85 171.32 350.42 173.13 345.50 175.79
  C 332.52 182.81 318.79 186.61 303.97 187.14"
/>
</g>
<path fill="#858384" d="
  M 297.75 0.21
  L 305.25 0.21
  Q 333.18 1.33 355.94 17.31
  Q 357.80 18.62 359.04 21.50
  C 355.09 17.01 350.01 14.47 343.85 15.52
  Q 325.86 18.57 310.24 28.19
  Q 306.26 30.64 302.32 33.15
  C 301.98 33.37 301.35 34.62 301.21 33.00
  L 301.86 32.25
  L 306.50 29.46
  L 328.57 18.19
  A 0.82 0.81 -37.3 0 0 328.76 16.86
  C 316.15 5.67 298.09 1.77 282.33 4.08
  Q 279.56 4.48 276.77 4.87
  C 273.66 5.30 270.61 6.86 267.35 7.60
  Q 265.29 8.07 263.44 9.12
  Q 259.60 11.29 255.25 12.21
  Q 275.00 1.07 297.75 0.21
  Z"
/>
<path fill="#959495" d="
  M 306.50 29.46
  Q 306.83 28.58 307.53 27.98
  A 0.53 0.48 -37.9 0 0 307.65 27.29
  C 304.22 22.67 299.44 20.85 293.87 19.94
  C 291.61 19.57 289.29 18.50 286.75 18.49
  A 1.47 1.26 -61.4 0 0 285.88 18.82
  Q 283.79 20.54 281.71 20.17
  Q 280.74 20.00 279.82 19.67
  Q 275.82 18.23 275.50 19.71
  C 265.79 16.82 252.83 11.99 244.60 20.60
  C 246.71 16.47 251.36 14.33 255.25 12.21
  Q 259.60 11.29 263.44 9.12
  Q 265.29 8.07 267.35 7.60
  C 270.61 6.86 273.66 5.30 276.77 4.87
  Q 279.56 4.48 282.33 4.08
  C 298.09 1.77 316.15 5.67 328.76 16.86
  A 0.82 0.81 -37.3 0 1 328.57 18.19
  L 306.50 29.46
  Z"
/>
<path fill="#688d4d" d="
  M 359.04 21.50
  L 359.75 23.21
  L 350.00 27.79
  Q 343.97 18.85 334.19 22.44
  Q 328.87 24.39 325.25 25.49
  Q 318.96 27.41 316.38 28.60
  Q 308.88 32.05 305.94 34.44
  Q 303.49 36.42 301.72 37.09
  A 1.15 1.03 46.8 0 1 300.81 37.01
  Q 294.87 33.75 289.27 29.96
  C 286.73 28.25 280.83 25.77 277.87 25.34
  C 273.63 24.73 266.95 20.88 263.18 22.99
  A 1.49 1.34 -53.3 0 1 262.27 23.17
  C 259.12 22.75 253.66 24.86 252.50 28.04
  L 247.78 25.83
  Q 246.48 24.39 244.25 24.21
  L 243.00 23.46
  Q 243.49 21.75 244.60 20.60
  C 252.83 11.99 265.79 16.82 275.50 19.71
  Q 279.68 21.88 284.12 23.00
  L 301.21 33.00
  C 301.35 34.62 301.98 33.37 302.32 33.15
  Q 306.26 30.64 310.24 28.19
  Q 325.86 18.57 343.85 15.52
  C 350.01 14.47 355.09 17.01 359.04 21.50
  Z"
/>
<path fill="#9fa0a3" d="
  M 306.50 29.46
  L 301.86 32.25
  Q 293.97 25.53 284.12 23.00
  Q 279.68 21.88 275.50 19.71
  Q 275.82 18.23 279.82 19.67
  Q 280.74 20.00 281.71 20.17
  Q 283.79 20.54 285.88 18.82
  A 1.47 1.26 -61.4 0 1 286.75 18.49
  C 289.29 18.50 291.61 19.57 293.87 19.94
  C 299.44 20.85 304.22 22.67 307.65 27.29
  A 0.53 0.48 -37.9 0 1 307.53 27.98
  Q 306.83 28.58 306.50 29.46
  Z"
/>
<path fill="#75a354" d="
  M 350.00 27.79
  Q 348.99 29.01 347.89 29.30
  Q 344.94 26.31 341.44 24.81
  C 337.37 23.07 334.47 24.90 330.98 25.67
  C 323.15 27.41 315.69 29.96 309.16 34.71
  C 307.03 36.27 302.01 40.40 300.02 38.43
  Q 299.64 38.06 299.21 37.92
  Q 297.31 37.28 295.78 35.97
  C 291.68 32.45 287.21 30.90 282.29 28.78
  Q 279.75 27.69 277.03 27.18
  C 271.18 26.09 266.81 23.94 260.56 24.51
  A 0.56 0.51 86.6 0 0 260.11 25.07
  Q 260.15 26.92 257.94 26.91
  Q 255.28 26.91 255.28 29.78
  Q 254.83 29.48 254.50 29.46
  L 252.50 28.04
  C 253.66 24.86 259.12 22.75 262.27 23.17
  A 1.49 1.34 -53.3 0 0 263.18 22.99
  C 266.95 20.88 273.63 24.73 277.87 25.34
  C 280.83 25.77 286.73 28.25 289.27 29.96
  Q 294.87 33.75 300.81 37.01
  A 1.15 1.03 46.8 0 0 301.72 37.09
  Q 303.49 36.42 305.94 34.44
  Q 308.88 32.05 316.38 28.60
  Q 318.96 27.41 325.25 25.49
  Q 328.87 24.39 334.19 22.44
  Q 343.97 18.85 350.00 27.79
  Z"
/>
<path fill="#d7d7d8" d="
  M 301.86 32.25
  L 301.21 33.00
  L 284.12 23.00
  Q 293.97 25.53 301.86 32.25
  Z"
/>
<path fill="#807e7f" d="
  M 359.75 23.21
  L 361.93 23.54
  Q 363.35 25.36 364.73 27.13
  C 365.69 28.36 367.25 29.49 368.13 31.32
  Q 369.46 34.10 369.51 34.19
  C 374.34 42.36 378.52 51.36 380.22 60.76
  Q 385.91 92.21 369.77 120.60
  A 1.44 1.34 51.3 0 0 369.68 121.78
  L 372.96 131.00
  L 373.46 133.25
  Q 372.93 133.30 372.81 132.94
  Q 369.16 121.62 364.46 112.25
  Q 368.35 107.03 371.06 98.31
  Q 377.10 78.87 373.51 60.51
  C 371.90 52.29 367.01 37.63 360.00 32.61
  Q 358.49 31.53 358.73 33.36
  C 359.21 36.98 360.39 40.30 360.47 43.86
  Q 360.53 46.93 360.75 50.00
  C 361.08 54.62 358.91 60.88 358.52 66.22
  C 358.42 67.55 357.38 68.18 357.10 69.53
  Q 355.20 78.79 348.70 85.61
  L 342.72 76.79
  Q 343.33 71.78 345.50 67.25
  Q 346.11 65.98 346.50 62.75
  Q 347.69 52.92 347.13 43.04
  C 346.88 38.60 347.25 38.34 344.98 35.18
  A 1.54 1.53 -32.3 0 1 345.49 32.94
  Q 346.15 32.58 345.71 31.00
  L 347.89 29.30
  Q 348.99 29.01 350.00 27.79
  L 359.75 23.21
  Z"
/>
<path fill="#8e8c8d" d="
  M 243.00 23.46
  L 244.25 24.21
  C 242.83 24.40 244.10 25.27 244.54 25.43
  C 248.41 26.77 245.32 28.69 244.09 30.15
  Q 231.93 44.59 230.92 63.69
  Q 229.96 82.01 243.72 95.06
  A 2.00 1.97 20.6 0 1 244.34 96.40
  Q 244.38 97.07 245.50 97.29
  Q 244.60 100.05 241.99 102.97
  A 0.86 0.81 51.0 0 1 240.65 102.79
  L 239.24 100.46
  A 1.52 0.76 7.7 0 0 238.46 99.93
  C 235.99 99.09 232.98 94.40 231.88 93.10
  C 229.46 90.23 228.65 86.96 227.45 83.51
  C 223.05 70.81 223.52 56.04 228.19 43.94
  Q 232.57 32.55 238.25 24.50
  Q 240.31 23.27 243.00 23.46
  Z"
/>
<path fill="#959495" d="
  M 361.93 23.54
  C 366.74 23.11 378.27 39.48 380.69 43.54
  L 388.75 62.85
  A 1.60 1.31 -53.8 0 1 388.80 63.79
  Q 388.08 66.58 388.69 71.31
  Q 390.27 83.73 387.25 99.00
  C 386.27 103.95 384.37 108.22 383.12 111.92
  C 380.93 118.42 378.03 121.75 375.70 127.65
  A 2.71 2.69 5.5 0 1 373.67 129.31
  Q 372.59 129.51 372.96 131.00
  L 369.68 121.78
  A 1.44 1.34 51.3 0 1 369.77 120.60
  Q 385.91 92.21 380.22 60.76
  C 378.52 51.36 374.34 42.36 369.51 34.19
  Q 369.46 34.10 368.13 31.32
  C 367.25 29.49 365.69 28.36 364.73 27.13
  Q 363.35 25.36 361.93 23.54
  Z"
/>
<path fill="#87b959" d="
  M 347.89 29.30
  L 345.71 31.00
  L 339.54 35.75
  Q 340.12 34.13 338.74 34.40
  Q 337.48 34.65 336.21 34.46
  Q 332.75 33.96 331.27 35.32
  Q 330.86 35.70 330.45 35.80
  C 321.43 37.97 311.36 41.98 303.93 47.62
  C 300.34 50.34 297.10 45.84 294.00 44.75
  C 290.18 43.41 287.12 40.83 284.14 39.36
  Q 280.60 37.62 277.23 35.58
  C 274.90 34.16 267.83 32.45 265.43 33.75
  A 1.72 1.45 29.6 0 1 264.51 33.92
  Q 262.58 33.75 263.46 36.00
  L 255.28 29.78
  Q 255.28 26.91 257.94 26.91
  Q 260.15 26.92 260.11 25.07
  A 0.56 0.51 86.6 0 1 260.56 24.51
  C 266.81 23.94 271.18 26.09 277.03 27.18
  Q 279.75 27.69 282.29 28.78
  C 287.21 30.90 291.68 32.45 295.78 35.97
  Q 297.31 37.28 299.21 37.92
  Q 299.64 38.06 300.02 38.43
  C 302.01 40.40 307.03 36.27 309.16 34.71
  C 315.69 29.96 323.15 27.41 330.98 25.67
  C 334.47 24.90 337.37 23.07 341.44 24.81
  Q 344.94 26.31 347.89 29.30
  Z"
/>
<path fill="#959495" d="
  M 244.25 24.21
  Q 246.48 24.39 247.78 25.83
  Q 249.37 28.04 251.54 28.90
  Q 253.65 29.75 251.70 30.93
  C 243.26 36.07 236.31 52.34 236.00 62.50
  Q 235.47 79.62 249.09 91.47
  L 245.50 97.29
  Q 244.38 97.07 244.34 96.40
  A 2.00 1.97 20.6 0 0 243.72 95.06
  Q 229.96 82.01 230.92 63.69
  Q 231.93 44.59 244.09 30.15
  C 245.32 28.69 248.41 26.77 244.54 25.43
  C 244.10 25.27 242.83 24.40 244.25 24.21
  Z"
/>
<path fill="#858384" d="
  M 238.25 24.50
  Q 232.57 32.55 228.19 43.94
  C 223.52 56.04 223.05 70.81 227.45 83.51
  C 228.65 86.96 229.46 90.23 231.88 93.10
  C 232.98 94.40 235.99 99.09 238.46 99.93
  A 1.52 0.76 7.7 0 1 239.24 100.46
  L 240.65 102.79
  A 0.86 0.81 51.0 0 0 241.99 102.97
  Q 244.60 100.05 245.50 97.29
  L 249.09 91.47
  L 252.09 86.80
  L 256.53 80.05
  Q 257.23 79.45 257.50 78.54
  L 260.50 74.29
  L 278.68 52.13
  A 0.57 0.56 -47.1 0 0 278.66 51.38
  L 274.46 47.00
  L 267.46 40.13
  L 266.50 39.00
  Q 274.06 44.91 280.54 52.00
  Q 261.55 73.55 250.25 91.00
  Q 244.44 99.97 235.50 118.29
  Q 234.01 119.51 232.94 118.81
  Q 226.49 114.61 221.27 106.67
  Q 221.04 106.31 221.00 105.75
  Q 220.92 104.28 219.62 103.47
  Q 217.86 102.39 217.27 100.41
  C 214.40 90.87 211.43 81.69 212.81 71.72
  C 213.19 68.97 212.98 65.77 213.75 62.50
  Q 213.93 61.75 213.00 61.96
  Q 220.81 39.98 238.25 24.50
  Z"
/>
<path fill="#9e9d9e" d="
  M 247.78 25.83
  L 252.50 28.04
  L 254.50 29.46
  Q 254.16 29.51 253.99 29.72
  A 0.60 0.42 35.9 0 0 254.24 30.45
  L 257.29 32.49
  A 0.45 0.44 -44.6 0 1 257.28 33.23
  C 240.54 44.31 237.90 72.58 252.09 86.80
  L 249.09 91.47
  Q 235.47 79.62 236.00 62.50
  C 236.31 52.34 243.26 36.07 251.70 30.93
  Q 253.65 29.75 251.54 28.90
  Q 249.37 28.04 247.78 25.83
  Z"
/>
<path fill="#afaeaf" d="
  M 254.50 29.46
  Q 254.83 29.48 255.28 29.78
  L 263.46 36.00
  L 266.50 39.00
  Q 264.39 36.87 264.42 39.44
  A 1.17 1.06 70.7 0 1 264.07 40.27
  Q 261.61 42.55 259.13 44.82
  C 257.78 46.07 257.32 47.52 256.29 49.03
  C 253.45 53.19 252.48 57.80 251.96 62.90
  Q 251.02 72.11 256.53 80.05
  L 252.09 86.80
  C 237.90 72.58 240.54 44.31 257.28 33.23
  A 0.45 0.44 -44.6 0 0 257.29 32.49
  L 254.24 30.45
  A 0.60 0.42 35.9 0 1 253.99 29.72
  Q 254.16 29.51 254.50 29.46
  Z"
/>
<path fill="#8e8c8d" d="
  M 345.71 31.00
  Q 346.15 32.58 345.49 32.94
  A 1.54 1.53 -32.3 0 0 344.98 35.18
  C 347.25 38.34 346.88 38.60 347.13 43.04
  Q 347.69 52.92 346.50 62.75
  Q 346.11 65.98 345.50 67.25
  Q 343.33 71.78 342.72 76.79
  L 331.04 61.25
  C 333.96 61.25 324.54 51.58 323.71 50.75
  L 339.54 35.75
  L 345.71 31.00
  Z"
/>
<path fill="#787677" d="
  M 364.46 112.25
  L 361.79 107.50
  Q 355.88 95.92 348.70 85.61
  Q 355.20 78.79 357.10 69.53
  C 357.38 68.18 358.42 67.55 358.52 66.22
  C 358.91 60.88 361.08 54.62 360.75 50.00
  Q 360.53 46.93 360.47 43.86
  C 360.39 40.30 359.21 36.98 358.73 33.36
  Q 358.49 31.53 360.00 32.61
  C 367.01 37.63 371.90 52.29 373.51 60.51
  Q 377.10 78.87 371.06 98.31
  Q 368.35 107.03 364.46 112.25
  Z"
/>
<path fill="#a1c457" d="
  M 339.54 35.75
  L 323.71 50.75
  Q 322.88 50.95 322.96 51.75
  L 321.39 53.57
  Q 317.54 53.11 313.94 55.44
  Q 312.53 56.35 305.72 60.29
  C 304.31 61.11 302.64 63.71 300.47 62.41
  C 297.93 60.89 295.60 59.90 293.19 58.31
  Q 287.89 54.83 281.24 53.07
  L 280.54 52.00
  Q 274.06 44.91 266.50 39.00
  L 263.46 36.00
  Q 262.58 33.75 264.51 33.92
  A 1.72 1.45 29.6 0 0 265.43 33.75
  C 267.83 32.45 274.90 34.16 277.23 35.58
  Q 280.60 37.62 284.14 39.36
  C 287.12 40.83 290.18 43.41 294.00 44.75
  C 297.10 45.84 300.34 50.34 303.93 47.62
  C 311.36 41.98 321.43 37.97 330.45 35.80
  Q 330.86 35.70 331.27 35.32
  Q 332.75 33.96 336.21 34.46
  Q 337.48 34.65 338.74 34.40
  Q 340.12 34.13 339.54 35.75
  Z"
/>
<path fill="#c2c2c3" d="
  M 266.50 39.00
  L 267.46 40.13
  Q 264.27 43.19 261.29 46.39
  Q 259.30 48.53 257.80 51.09
  Q 255.39 55.16 255.06 56.31
  C 254.55 58.08 253.44 68.02 255.02 71.31
  Q 255.23 71.76 255.25 72.25
  Q 255.32 74.43 256.87 75.92
  A 0.90 0.83 -63.8 0 1 257.11 76.73
  Q 256.89 77.76 257.50 78.54
  Q 257.23 79.45 256.53 80.05
  Q 251.02 72.11 251.96 62.90
  C 252.48 57.80 253.45 53.19 256.29 49.03
  C 257.32 47.52 257.78 46.07 259.13 44.82
  Q 261.61 42.55 264.07 40.27
  A 1.17 1.06 70.7 0 0 264.42 39.44
  Q 264.39 36.87 266.50 39.00
  Z"
/>
<path fill="#d7d7d8" d="
  M 267.46 40.13
  L 274.46 47.00
  Q 273.84 47.21 273.74 47.76
  A 1.25 0.68 39.6 0 0 274.08 48.61
  Q 276.10 50.96 273.16 52.64
  Q 269.44 54.75 267.75 58.75
  Q 267.30 59.81 266.74 60.29
  A 1.77 0.93 -26.1 0 0 266.18 61.06
  Q 264.36 67.80 260.06 73.31
  Q 259.28 74.30 260.50 74.29
  L 257.50 78.54
  Q 256.89 77.76 257.11 76.73
  A 0.90 0.83 -63.8 0 0 256.87 75.92
  Q 255.32 74.43 255.25 72.25
  Q 255.23 71.76 255.02 71.31
  C 253.44 68.02 254.55 58.08 255.06 56.31
  Q 255.39 55.16 257.80 51.09
  Q 259.30 48.53 261.29 46.39
  Q 264.27 43.19 267.46 40.13
  Z"
/>
<path fill="#acabac" d="
  M 380.69 43.54
  Q 392.85 61.82 395.21 83.75
  L 394.29 83.91
  A 0.65 0.57 84.3 0 0 393.83 84.56
  Q 394.07 92.29 392.75 97.50
  Q 390.56 106.13 385.06 121.31
  Q 383.53 125.54 379.95 131.16
  C 377.28 135.36 373.88 135.85 374.96 142.25
  L 373.46 133.25
  L 372.96 131.00
  Q 372.59 129.51 373.67 129.31
  A 2.71 2.69 5.5 0 0 375.70 127.65
  C 378.03 121.75 380.93 118.42 383.12 111.92
  C 384.37 108.22 386.27 103.95 387.25 99.00
  Q 390.27 83.73 388.69 71.31
  Q 388.08 66.58 388.80 63.79
  A 1.60 1.31 -53.8 0 0 388.75 62.85
  L 380.69 43.54
  Z"
/>
<path fill="#fefefe" d="
  M 274.46 47.00
  L 278.66 51.38
  A 0.57 0.56 -47.1 0 1 278.68 52.13
  L 260.50 74.29
  Q 259.28 74.30 260.06 73.31
  Q 264.36 67.80 266.18 61.06
  A 1.77 0.93 -26.1 0 1 266.74 60.29
  Q 267.30 59.81 267.75 58.75
  Q 269.44 54.75 273.16 52.64
  Q 276.10 50.96 274.08 48.61
  A 1.25 0.68 39.6 0 1 273.74 47.76
  Q 273.84 47.21 274.46 47.00
  Z"
/>
<path fill="#c2c2c3" d="
  M 323.71 50.75
  C 324.54 51.58 333.96 61.25 331.04 61.25
  L 322.96 51.75
  Q 322.88 50.95 323.71 50.75
  Z"
/>
<path fill="#6f9951" d="
  M 322.96 51.75
  L 331.04 61.25
  L 342.72 76.79
  L 348.70 85.61
  Q 355.88 95.92 361.79 107.50
  Q 361.94 113.99 365.07 119.70
  Q 366.79 122.83 367.22 126.38
  C 367.45 128.26 369.31 138.22 368.09 140.10
  Q 367.37 141.20 366.21 142.00
  L 366.00 141.96
  L 363.21 136.75
  L 362.25 134.79
  Q 362.44 134.40 362.75 134.17
  A 1.14 0.74 -25.2 0 0 363.21 133.43
  Q 363.39 127.78 361.85 122.47
  Q 361.11 119.89 358.54 112.39
  Q 356.38 106.05 352.31 99.19
  C 351.17 97.26 349.81 95.84 349.00 94.53
  Q 343.17 85.08 336.84 75.96
  Q 336.45 75.40 334.81 72.49
  C 333.28 69.77 329.86 66.99 328.53 65.34
  Q 325.76 61.93 322.84 58.63
  A 1.23 0.97 -15.7 0 0 322.00 58.28
  Q 320.46 58.27 320.71 56.50
  L 321.39 53.57
  L 322.96 51.75
  Z"
/>
<path fill="#688d4d" d="
  M 280.54 52.00
  L 281.24 53.07
  L 282.29 57.00
  L 282.21 57.50
  Q 281.72 58.00 280.75 56.65
  A 0.79 0.76 48.3 0 0 279.55 56.56
  L 270.99 66.07
  Q 270.32 66.82 270.02 67.11
  C 268.04 69.03 266.80 71.76 265.69 73.42
  Q 260.42 81.35 255.50 89.50
  Q 254.42 91.29 253.69 92.19
  C 250.82 95.70 248.50 100.60 246.89 103.45
  C 243.70 109.11 242.05 114.30 239.31 121.46
  Q 235.99 130.11 238.21 139.50
  L 235.04 145.25
  L 234.00 148.21
  L 233.04 151.00
  Q 232.02 153.15 232.15 155.49
  A 0.64 0.41 85.7 0 1 231.80 156.15
  Q 231.57 156.17 231.29 156.00
  Q 228.18 152.36 228.21 147.50
  C 228.29 136.91 230.78 129.79 235.50 118.29
  Q 244.44 99.97 250.25 91.00
  Q 261.55 73.55 280.54 52.00
  Z"
/>
<path fill="#dce4a2" d="
  M 321.39 53.57
  L 320.71 56.50
  L 320.05 57.57
  C 312.54 57.63 310.26 61.66 304.40 64.69
  C 297.88 68.06 296.02 61.69 290.49 60.82
  A 1.80 1.80 69.7 0 1 289.62 60.42
  Q 287.92 59.03 286.08 58.64
  A 1.83 1.82 85.1 0 1 284.75 57.51
  Q 283.74 54.84 282.46 57.00
  L 282.29 57.00
  L 281.24 53.07
  Q 287.89 54.83 293.19 58.31
  C 295.60 59.90 297.93 60.89 300.47 62.41
  C 302.64 63.71 304.31 61.11 305.72 60.29
  Q 312.53 56.35 313.94 55.44
  Q 317.54 53.11 321.39 53.57
  Z"
/>
<path fill="#edefcc" d="
  M 320.05 57.57
  L 319.29 60.50
  Q 319.61 58.63 318.50 59.08
  A 1.03 0.79 88.0 0 0 317.98 59.81
  Q 316.86 66.19 310.56 64.92
  A 1.04 0.98 -59.7 0 0 309.70 65.17
  L 302.71 71.50
  C 300.58 70.27 299.64 72.64 298.25 73.46
  Q 298.06 71.96 296.79 71.37
  A 1.22 1.05 -89.1 0 1 296.22 70.69
  C 295.64 68.93 290.27 67.91 288.54 67.34
  A 1.26 1.15 -2.6 0 1 287.83 66.75
  L 285.72 62.70
  A 0.46 0.39 56.6 0 0 285.08 62.51
  Q 284.41 63.08 284.96 64.25
  L 284.54 63.75
  L 282.46 57.00
  Q 283.74 54.84 284.75 57.51
  A 1.83 1.82 85.1 0 0 286.08 58.64
  Q 287.92 59.03 289.62 60.42
  A 1.80 1.80 69.7 0 0 290.49 60.82
  C 296.02 61.69 297.88 68.06 304.40 64.69
  C 310.26 61.66 312.54 57.63 320.05 57.57
  Z"
/>
<path fill="#75a354" d="
  M 282.21 57.50
  Q 282.21 58.55 281.31 58.60
  Q 280.66 58.63 280.36 58.80
  Q 277.28 60.52 275.71 63.75
  Q 274.07 64.79 272.65 66.11
  C 271.51 67.17 270.99 68.88 269.47 70.02
  A 1.37 1.37 77.7 0 0 268.97 70.80
  Q 268.59 72.52 267.17 73.49
  A 1.77 1.46 -10.2 0 0 266.56 74.21
  C 265.31 77.22 262.98 79.47 261.50 82.17
  C 259.90 85.08 257.48 87.89 255.95 90.36
  Q 252.02 96.71 248.00 103.00
  C 245.47 106.95 243.72 114.09 241.71 119.20
  C 239.38 125.14 239.07 127.92 239.36 134.02
  A 2.48 2.48 59.6 0 1 239.00 135.41
  Q 238.50 136.22 239.54 137.00
  L 238.21 139.50
  Q 235.99 130.11 239.31 121.46
  C 242.05 114.30 243.70 109.11 246.89 103.45
  C 248.50 100.60 250.82 95.70 253.69 92.19
  Q 254.42 91.29 255.50 89.50
  Q 260.42 81.35 265.69 73.42
  C 266.80 71.76 268.04 69.03 270.02 67.11
  Q 270.32 66.82 270.99 66.07
  L 279.55 56.56
  A 0.79 0.76 48.3 0 1 280.75 56.65
  Q 281.72 58.00 282.21 57.50
  Z"
/>
<path fill="#87b959" d="
  M 320.71 56.50
  Q 320.46 58.27 322.00 58.28
  A 1.23 0.97 -15.7 0 1 322.84 58.63
  Q 325.76 61.93 328.53 65.34
  C 329.86 66.99 333.28 69.77 334.81 72.49
  Q 336.45 75.40 336.84 75.96
  Q 343.17 85.08 349.00 94.53
  C 349.81 95.84 351.17 97.26 352.31 99.19
  Q 356.38 106.05 358.54 112.39
  Q 361.11 119.89 361.85 122.47
  Q 363.39 127.78 363.21 133.43
  A 1.14 0.74 -25.2 0 1 362.75 134.17
  Q 362.44 134.40 362.25 134.79
  L 358.59 129.57
  Q 358.59 129.33 358.00 128.96
  Q 357.88 128.44 357.54 128.00
  C 359.41 127.22 354.23 121.96 353.37 120.90
  Q 352.34 119.64 352.01 117.95
  C 351.34 114.51 349.66 107.83 347.15 104.36
  C 343.52 99.33 340.40 93.87 337.19 88.56
  Q 333.34 82.21 323.81 70.45
  Q 321.26 67.30 317.54 65.75
  L 319.29 60.50
  L 320.05 57.57
  L 320.71 56.50
  Z"
/>
<path fill="#87b959" d="
  M 282.29 57.00
  L 282.46 57.00
  L 284.54 63.75
  Q 284.60 64.33 284.36 64.78
  Q 284.12 65.24 283.87 64.74
  C 283.02 63.02 282.28 64.85 281.75 65.31
  Q 277.34 69.11 274.21 73.99
  C 272.54 76.59 269.96 78.41 268.43 81.36
  Q 266.91 84.28 265.82 85.62
  Q 262.06 90.27 259.02 95.44
  C 258.10 97.00 256.16 99.22 255.78 100.94
  Q 255.67 101.45 255.35 101.80
  Q 253.52 103.85 252.75 106.50
  Q 252.63 106.89 252.30 106.91
  A 0.86 0.48 1.3 0 0 251.62 107.27
  L 243.35 129.47
  A 1.95 1.40 -16.6 0 1 242.77 130.22
  Q 241.68 131.06 242.96 131.75
  L 241.84 133.53
  Q 241.08 129.08 242.31 125.02
  C 244.62 117.43 245.48 109.35 249.71 102.53
  C 251.79 99.18 253.25 96.16 255.35 93.10
  C 259.08 87.68 261.88 82.35 265.90 77.41
  C 267.05 75.99 267.36 74.01 269.25 72.75
  Q 270.00 72.25 271.74 68.96
  C 272.83 66.92 274.50 65.76 275.71 63.75
  Q 277.28 60.52 280.36 58.80
  Q 280.66 58.63 281.31 58.60
  Q 282.21 58.55 282.21 57.50
  L 282.29 57.00
  Z"
/>
<path fill="#f8f8f7" d="
  M 319.29 60.50
  L 317.54 65.75
  L 315.71 71.00
  Q 315.06 72.04 314.96 73.25
  C 314.18 75.93 311.50 78.31 314.45 80.55
  Q 321.10 85.60 325.83 92.42
  L 310.97 79.18
  L 305.04 74.25
  L 303.29 72.25
  L 302.71 71.50
  L 309.70 65.17
  A 1.04 0.98 -59.7 0 1 310.56 64.92
  Q 316.86 66.19 317.98 59.81
  A 1.03 0.79 88.0 0 1 318.50 59.08
  Q 319.61 58.63 319.29 60.50
  Z"
/>
<path fill="#757374" d="
  M 213.00 61.96
  Q 213.93 61.75 213.75 62.50
  C 212.98 65.77 213.19 68.97 212.81 71.72
  C 211.43 81.69 214.40 90.87 217.27 100.41
  Q 217.86 102.39 219.62 103.47
  Q 220.92 104.28 221.00 105.75
  Q 221.04 106.31 221.27 106.67
  Q 226.49 114.61 232.94 118.81
  Q 234.01 119.51 235.50 118.29
  C 230.78 129.79 228.29 136.91 228.21 147.50
  Q 228.18 152.36 231.29 156.00
  L 230.71 156.50
  C 208.54 130.88 200.40 94.34 213.00 61.96
  Z"
/>
<path fill="#f8f8f7" d="
  M 298.25 73.46
  L 285.00 85.21
  L 282.25 87.54
  C 278.39 87.51 287.71 80.34 288.50 79.81
  Q 290.05 78.77 289.44 77.20
  L 287.54 72.25
  L 286.29 68.25
  L 284.96 64.25
  Q 284.41 63.08 285.08 62.51
  A 0.46 0.39 56.6 0 1 285.72 62.70
  L 287.83 66.75
  A 1.26 1.15 -2.6 0 0 288.54 67.34
  C 290.27 67.91 295.64 68.93 296.22 70.69
  A 1.22 1.05 -89.1 0 0 296.79 71.37
  Q 298.06 71.96 298.25 73.46
  Z"
/>
<path fill="#75a354" d="
  M 275.71 63.75
  C 274.50 65.76 272.83 66.92 271.74 68.96
  Q 270.00 72.25 269.25 72.75
  C 267.36 74.01 267.05 75.99 265.90 77.41
  C 261.88 82.35 259.08 87.68 255.35 93.10
  C 253.25 96.16 251.79 99.18 249.71 102.53
  C 245.48 109.35 244.62 117.43 242.31 125.02
  Q 241.08 129.08 241.84 133.53
  L 239.54 137.00
  Q 238.50 136.22 239.00 135.41
  A 2.48 2.48 59.6 0 0 239.36 134.02
  C 239.07 127.92 239.38 125.14 241.71 119.20
  C 243.72 114.09 245.47 106.95 248.00 103.00
  Q 252.02 96.71 255.95 90.36
  C 257.48 87.89 259.90 85.08 261.50 82.17
  C 262.98 79.47 265.31 77.22 266.56 74.21
  A 1.77 1.46 -10.2 0 1 267.17 73.49
  Q 268.59 72.52 268.97 70.80
  A 1.37 1.37 77.7 0 1 269.47 70.02
  C 270.99 68.88 271.51 67.17 272.65 66.11
  Q 274.07 64.79 275.71 63.75
  Z"
/>
<path fill="#a1c457" d="
  M 284.54 63.75
  L 284.96 64.25
  L 286.29 68.25
  C 284.27 71.37 282.33 74.98 279.56 77.56
  Q 277.31 79.66 269.52 90.00
  C 265.64 95.15 258.71 102.82 257.98 110.18
  A 1.59 1.50 70.0 0 1 257.60 111.06
  Q 255.54 113.43 254.79 116.50
  L 250.35 122.36
  L 246.12 127.68
  L 242.96 131.75
  Q 241.68 131.06 242.77 130.22
  A 1.95 1.40 -16.6 0 0 243.35 129.47
  L 251.62 107.27
  A 0.86 0.48 1.3 0 1 252.30 106.91
  Q 252.63 106.89 252.75 106.50
  Q 253.52 103.85 255.35 101.80
  Q 255.67 101.45 255.78 100.94
  C 256.16 99.22 258.10 97.00 259.02 95.44
  Q 262.06 90.27 265.82 85.62
  Q 266.91 84.28 268.43 81.36
  C 269.96 78.41 272.54 76.59 274.21 73.99
  Q 277.34 69.11 281.75 65.31
  C 282.28 64.85 283.02 63.02 283.87 64.74
  Q 284.12 65.24 284.36 64.78
  Q 284.60 64.33 284.54 63.75
  Z"
/>
<path fill="#abc854" d="
  M 317.54 65.75
  Q 321.26 67.30 323.81 70.45
  Q 333.34 82.21 337.19 88.56
  C 340.40 93.87 343.52 99.33 347.15 104.36
  C 349.66 107.83 351.34 114.51 352.01 117.95
  Q 352.34 119.64 353.37 120.90
  C 354.23 121.96 359.41 127.22 357.54 128.00
  L 354.79 124.75
  L 340.54 107.75
  Q 341.60 105.98 339.46 104.75
  L 337.90 100.68
  Q 337.63 99.98 337.49 99.82
  Q 335.44 97.37 334.24 94.40
  Q 334.07 93.97 333.67 93.64
  C 332.36 92.59 331.56 90.64 330.89 89.76
  Q 323.61 80.13 315.71 71.00
  L 317.54 65.75
  Z"
/>
<path fill="#c3d66f" d="
  M 286.29 68.25
  L 287.54 72.25
  C 284.34 76.12 280.48 79.39 278.14 83.91
  C 275.62 88.79 272.08 92.04 269.10 97.48
  Q 268.08 99.33 265.79 102.07
  Q 263.59 104.71 262.30 107.89
  L 257.25 113.96
  L 254.79 116.50
  Q 255.54 113.43 257.60 111.06
  A 1.59 1.50 70.0 0 0 257.98 110.18
  C 258.71 102.82 265.64 95.15 269.52 90.00
  Q 277.31 79.66 279.56 77.56
  C 282.33 74.98 284.27 71.37 286.29 68.25
  Z
  M 276.26 83.54
  C 275.45 85.21 274.06 85.28 273.43 87.70
  Q 273.21 88.57 273.74 87.81
  L 276.52 83.84
  Q 276.71 83.57 276.73 83.47
  Q 277.03 81.93 276.26 83.54
  Z"
/>
<path fill="#d7d7d8" d="
  M 302.71 71.50
  L 303.29 72.25
  Q 303.11 73.24 303.86 73.94
  A 0.72 0.61 36.3 0 1 304.04 74.70
  C 301.11 80.78 293.66 89.36 286.03 86.85
  A 1.11 0.96 2.1 0 1 285.36 86.23
  L 285.00 85.21
  L 298.25 73.46
  C 299.64 72.64 300.58 70.27 302.71 71.50
  Z"
/>
<path fill="#d1de89" d="
  M 315.71 71.00
  Q 323.61 80.13 330.89 89.76
  C 331.56 90.64 332.36 92.59 333.67 93.64
  Q 334.07 93.97 334.24 94.40
  Q 335.44 97.37 337.49 99.82
  Q 337.63 99.98 337.90 100.68
  L 339.46 104.75
  Q 334.38 100.49 331.24 94.75
  Q 330.36 93.15 328.98 91.40
  Q 327.72 89.79 326.77 87.99
  C 325.85 86.25 324.59 85.50 323.55 83.92
  C 321.74 81.16 320.05 78.98 317.98 76.57
  Q 317.50 76.01 316.89 75.63
  Q 314.74 74.27 314.96 73.25
  Q 315.06 72.04 315.71 71.00
  Z"
/>
<path fill="#e7ebbd" d="
  M 287.54 72.25
  L 289.44 77.20
  Q 290.05 78.77 288.50 79.81
  C 287.71 80.34 278.39 87.51 282.25 87.54
  L 281.00 88.96
  L 274.10 95.70
  L 266.50 103.71
  L 262.30 107.89
  Q 263.59 104.71 265.79 102.07
  Q 268.08 99.33 269.10 97.48
  C 272.08 92.04 275.62 88.79 278.14 83.91
  C 280.48 79.39 284.34 76.12 287.54 72.25
  Z"
/>
<path fill="#c5c5c6" d="
  M 303.29 72.25
  L 305.04 74.25
  Q 307.09 76.11 305.56 78.56
  Q 302.58 83.33 299.61 86.15
  C 298.16 87.53 291.93 91.06 290.30 91.45
  Q 286.72 92.30 283.05 91.33
  A 1.56 1.02 70.2 0 1 282.31 90.77
  L 281.00 88.96
  L 282.25 87.54
  L 285.00 85.21
  L 285.36 86.23
  A 1.11 0.96 2.1 0 0 286.03 86.85
  C 293.66 89.36 301.11 80.78 304.04 74.70
  A 0.72 0.61 36.3 0 0 303.86 73.94
  Q 303.11 73.24 303.29 72.25
  Z"
/>
<path fill="#edefcc" d="
  M 314.96 73.25
  Q 314.74 74.27 316.89 75.63
  Q 317.50 76.01 317.98 76.57
  C 320.05 78.98 321.74 81.16 323.55 83.92
  C 324.59 85.50 325.85 86.25 326.77 87.99
  Q 327.72 89.79 328.98 91.40
  Q 330.36 93.15 331.24 94.75
  Q 334.38 100.49 339.46 104.75
  Q 341.60 105.98 340.54 107.75
  L 325.83 92.42
  Q 321.10 85.60 314.45 80.55
  C 311.50 78.31 314.18 75.93 314.96 73.25
  Z"
/>
<path fill="#afaeaf" d="
  M 305.04 74.25
  L 310.97 79.18
  Q 310.90 80.79 312.54 81.50
  Q 311.29 86.31 306.35 89.90
  Q 305.82 90.29 305.38 90.78
  C 299.23 97.56 288.45 100.49 279.50 100.03
  Q 275.16 99.81 274.10 95.70
  L 281.00 88.96
  L 282.31 90.77
  A 1.56 1.02 70.2 0 0 283.05 91.33
  Q 286.72 92.30 290.30 91.45
  C 291.93 91.06 298.16 87.53 299.61 86.15
  Q 302.58 83.33 305.56 78.56
  Q 307.09 76.11 305.04 74.25
  Z"
/>
<path fill="#727071" d="
  M 310.97 79.18
  L 325.83 92.42
  L 340.54 107.75
  L 354.79 124.75
  Q 353.52 124.50 352.64 123.57
  A 1.26 0.80 58.8 0 0 351.81 123.16
  Q 350.70 123.21 350.66 124.44
  A 1.73 1.13 73.3 0 1 350.39 125.35
  C 347.56 129.27 343.95 131.99 340.70 135.29
  Q 338.79 137.23 336.70 138.99
  Q 336.43 139.22 336.13 139.77
  Q 335.65 140.65 334.19 141.69
  Q 319.43 152.11 305.75 156.90
  Q 273.58 168.18 243.31 152.94
  Q 238.25 150.39 235.04 145.25
  L 238.21 139.50
  L 239.54 137.00
  L 241.84 133.53
  L 242.96 131.75
  L 246.12 127.68
  Q 246.50 129.53 245.58 131.21
  C 245.12 132.06 244.72 133.68 246.43 133.27
  A 1.20 1.20 70.5 0 1 247.81 133.93
  C 248.54 135.49 261.22 137.95 263.61 138.48
  C 266.84 139.19 270.01 138.78 273.35 138.96
  C 281.57 139.38 290.97 138.28 299.25 135.66
  C 304.43 134.02 311.01 132.35 316.69 129.39
  C 318.55 128.41 321.10 126.30 324.02 125.50
  Q 325.94 124.97 327.27 123.48
  Q 329.93 120.52 333.38 118.55
  A 1.03 0.52 89.1 0 0 333.73 117.83
  L 333.84 117.02
  A 1.07 0.56 -15.1 0 1 334.52 116.39
  Q 337.98 115.02 341.02 111.31
  A 0.81 0.80 44.1 0 0 341.00 110.26
  L 333.89 102.17
  L 330.45 98.66
  L 320.70 89.31
  L 312.54 81.50
  Q 310.90 80.79 310.97 79.18
  Z"
/>
<path fill="#989798" d="
  M 312.54 81.50
  L 320.70 89.31
  Q 314.45 99.40 303.00 105.00
  Q 289.34 111.68 275.04 110.15
  C 272.08 109.84 269.24 109.89 267.02 107.75
  A 1.69 1.68 33.6 0 1 266.64 105.87
  Q 267.39 104.13 266.50 103.71
  L 274.10 95.70
  Q 275.16 99.81 279.50 100.03
  C 288.45 100.49 299.23 97.56 305.38 90.78
  Q 305.82 90.29 306.35 89.90
  Q 311.29 86.31 312.54 81.50
  Z"
/>
<path fill="#c3d66f" d="
  M 276.26 83.54
  Q 277.03 81.93 276.73 83.47
  Q 276.71 83.57 276.52 83.84
  L 273.74 87.81
  Q 273.21 88.57 273.43 87.70
  C 274.06 85.28 275.45 85.21 276.26 83.54
  Z"
/>
<path fill="#c2c2c3" d="
  M 395.21 83.75
  Q 396.86 98.11 393.96 112.25
  Q 393.20 112.43 392.62 112.90
  A 1.54 1.17 82.3 0 0 392.15 113.73
  C 390.49 121.97 387.38 133.65 382.00 140.25
  Q 380.27 142.38 379.81 143.31
  L 377.79 147.48
  Q 377.42 148.23 377.01 147.51
  C 375.58 145.05 375.38 148.54 375.04 149.50
  L 374.96 148.00
  L 374.96 142.25
  C 373.88 135.85 377.28 135.36 379.95 131.16
  Q 383.53 125.54 385.06 121.31
  Q 390.56 106.13 392.75 97.50
  Q 394.07 92.29 393.83 84.56
  A 0.65 0.57 84.3 0 1 394.29 83.91
  L 395.21 83.75
  Z"
/>
<path fill="#8a898a" d="
  M 320.70 89.31
  L 330.45 98.66
  Q 328.02 104.28 322.85 107.41
  Q 320.67 108.73 319.42 110.01
  C 315.91 113.58 312.54 115.27 306.46 118.40
  C 304.41 119.46 302.15 119.29 300.08 120.87
  A 1.96 1.74 -64.1 0 1 299.19 121.24
  C 295.15 121.71 290.17 123.62 285.41 123.62
  Q 284.07 123.62 281.28 124.12
  C 278.55 124.60 274.75 123.71 272.08 123.31
  C 270.63 123.10 267.77 123.56 265.85 122.65
  C 263.70 121.64 260.31 120.81 258.69 119.81
  C 255.22 117.67 259.78 113.86 257.25 113.96
  L 262.30 107.89
  L 266.50 103.71
  Q 267.39 104.13 266.64 105.87
  A 1.69 1.68 33.6 0 0 267.02 107.75
  C 269.24 109.89 272.08 109.84 275.04 110.15
  Q 289.34 111.68 303.00 105.00
  Q 314.45 99.40 320.70 89.31
  Z"
/>
<path fill="#807e7f" d="
  M 330.45 98.66
  L 333.89 102.17
  Q 331.68 109.00 325.02 112.10
  A 1.82 1.20 -78.0 0 0 324.35 112.76
  Q 323.90 113.49 322.81 114.31
  C 304.99 127.73 284.45 133.61 262.50 130.25
  C 260.27 129.91 258.19 129.19 255.03 128.74
  Q 250.39 128.08 250.35 122.36
  L 254.79 116.50
  L 257.25 113.96
  C 259.78 113.86 255.22 117.67 258.69 119.81
  C 260.31 120.81 263.70 121.64 265.85 122.65
  C 267.77 123.56 270.63 123.10 272.08 123.31
  C 274.75 123.71 278.55 124.60 281.28 124.12
  Q 284.07 123.62 285.41 123.62
  C 290.17 123.62 295.15 121.71 299.19 121.24
  A 1.96 1.74 -64.1 0 0 300.08 120.87
  C 302.15 119.29 304.41 119.46 306.46 118.40
  C 312.54 115.27 315.91 113.58 319.42 110.01
  Q 320.67 108.73 322.85 107.41
  Q 328.02 104.28 330.45 98.66
  Z"
/>
<path fill="#787677" d="
  M 333.89 102.17
  L 341.00 110.26
  A 0.81 0.80 44.1 0 1 341.02 111.31
  Q 337.98 115.02 334.52 116.39
  A 1.07 0.56 -15.1 0 0 333.84 117.02
  L 333.73 117.83
  A 1.03 0.52 89.1 0 1 333.38 118.55
  Q 329.93 120.52 327.27 123.48
  Q 325.94 124.97 324.02 125.50
  C 321.10 126.30 318.55 128.41 316.69 129.39
  C 311.01 132.35 304.43 134.02 299.25 135.66
  C 290.97 138.28 281.57 139.38 273.35 138.96
  C 270.01 138.78 266.84 139.19 263.61 138.48
  C 261.22 137.95 248.54 135.49 247.81 133.93
  A 1.20 1.20 70.5 0 0 246.43 133.27
  C 244.72 133.68 245.12 132.06 245.58 131.21
  Q 246.50 129.53 246.12 127.68
  L 250.35 122.36
  Q 250.39 128.08 255.03 128.74
  C 258.19 129.19 260.27 129.91 262.50 130.25
  C 284.45 133.61 304.99 127.73 322.81 114.31
  Q 323.90 113.49 324.35 112.76
  A 1.82 1.20 -78.0 0 1 325.02 112.10
  Q 331.68 109.00 333.89 102.17
  Z"
/>
<path fill="#5c7b45" d="
  M 361.79 107.50
  L 364.46 112.25
  Q 369.16 121.62 372.81 132.94
  Q 372.93 133.30 373.46 133.25
  L 374.96 142.25
  L 374.96 148.00
  Q 373.51 149.34 374.71 150.75
  L 372.96 154.75
  Q 370.17 158.46 370.75 153.75
  Q 370.93 152.28 369.00 148.21
  L 368.46 147.00
  L 366.21 142.00
  Q 367.37 141.20 368.09 140.10
  C 369.31 138.22 367.45 128.26 367.22 126.38
  Q 366.79 122.83 365.07 119.70
  Q 361.94 113.99 361.79 107.50
  Z"
/>
<path fill="#e6e5e6" d="
  M 393.96 112.25
  Q 389.41 136.39 373.50 155.04
  Q 373.08 155.07 372.96 154.75
  L 374.71 150.75
  L 375.04 149.50
  C 375.38 148.54 375.58 145.05 377.01 147.51
  Q 377.42 148.23 377.79 147.48
  L 379.81 143.31
  Q 380.27 142.38 382.00 140.25
  C 387.38 133.65 390.49 121.97 392.15 113.73
  A 1.54 1.17 82.3 0 1 392.62 112.90
  Q 393.20 112.43 393.96 112.25
  Z"
/>
<path fill="#787677" d="
  M 354.79 124.75
  L 357.54 128.00
  Q 357.88 128.44 358.00 128.96
  L 355.72 128.41
  A 0.77 0.68 23.4 0 0 354.95 128.66
  C 351.11 133.85 346.50 138.00 341.49 142.59
  C 335.28 148.29 328.40 152.14 320.47 156.26
  C 295.08 169.47 265.24 169.28 240.06 154.69
  C 237.79 153.37 237.40 151.72 235.48 150.45
  A 0.99 0.83 -77.6 0 1 235.09 149.70
  Q 235.03 148.64 234.00 148.21
  L 235.04 145.25
  Q 238.25 150.39 243.31 152.94
  Q 273.58 168.18 305.75 156.90
  Q 319.43 152.11 334.19 141.69
  Q 335.65 140.65 336.13 139.77
  Q 336.43 139.22 336.70 138.99
  Q 338.79 137.23 340.70 135.29
  C 343.95 131.99 347.56 129.27 350.39 125.35
  A 1.73 1.13 73.3 0 0 350.66 124.44
  Q 350.70 123.21 351.81 123.16
  A 1.26 0.80 58.8 0 1 352.64 123.57
  Q 353.52 124.50 354.79 124.75
  Z"
/>
<path fill="#807e7f" d="
  M 358.00 128.96
  Q 358.59 129.33 358.59 129.57
  L 347.59 141.78
  Q 347.33 142.07 346.39 142.90
  Q 324.35 162.40 297.25 167.50
  Q 273.84 171.91 250.03 162.59
  C 247.85 161.73 244.51 159.95 241.31 158.69
  Q 236.06 156.61 233.04 151.00
  L 234.00 148.21
  Q 235.03 148.64 235.09 149.70
  A 0.99 0.83 -77.6 0 0 235.48 150.45
  C 237.40 151.72 237.79 153.37 240.06 154.69
  C 265.24 169.28 295.08 169.47 320.47 156.26
  C 328.40 152.14 335.28 148.29 341.49 142.59
  C 346.50 138.00 351.11 133.85 354.95 128.66
  A 0.77 0.68 23.4 0 1 355.72 128.41
  L 358.00 128.96
  Z"
/>
<path fill="#8a898a" d="
  M 358.59 129.57
  L 362.25 134.79
  L 363.21 136.75
  L 361.27 137.64
  Q 360.78 137.86 360.50 138.22
  C 349.82 152.10 333.14 163.12 317.01 169.30
  C 316.08 169.66 315.46 170.47 314.32 170.61
  C 311.12 170.98 307.91 172.27 305.29 172.77
  Q 285.50 176.58 265.50 173.49
  Q 254.81 171.84 246.44 166.44
  Q 244.84 165.40 243.49 165.09
  Q 242.98 164.97 242.63 164.68
  Q 240.00 162.46 236.72 161.40
  Q 236.52 161.33 235.91 160.89
  L 233.00 158.79
  L 230.71 156.50
  L 231.29 156.00
  Q 231.57 156.17 231.80 156.15
  A 0.64 0.41 85.7 0 0 232.15 155.49
  Q 232.02 153.15 233.04 151.00
  Q 236.06 156.61 241.31 158.69
  C 244.51 159.95 247.85 161.73 250.03 162.59
  Q 273.84 171.91 297.25 167.50
  Q 324.35 162.40 346.39 142.90
  Q 347.33 142.07 347.59 141.78
  L 358.59 129.57
  Z"
/>
<path fill="#9a999a" d="
  M 363.21 136.75
  L 366.00 141.96
  Q 365.37 142.43 365.37 143.19
  A 1.51 0.92 74.2 0 1 365.12 144.08
  Q 352.08 160.02 333.82 169.59
  C 323.09 175.21 310.54 179.59 299.04 181.44
  C 291.36 182.69 283.84 182.20 275.50 182.62
  Q 272.99 182.75 270.66 181.85
  Q 262.09 178.55 253.53 175.20
  Q 241.73 168.94 233.00 158.79
  L 235.91 160.89
  Q 236.52 161.33 236.72 161.40
  Q 240.00 162.46 242.63 164.68
  Q 242.98 164.97 243.49 165.09
  Q 244.84 165.40 246.44 166.44
  Q 254.81 171.84 265.50 173.49
  Q 285.50 176.58 305.29 172.77
  C 307.91 172.27 311.12 170.98 314.32 170.61
  C 315.46 170.47 316.08 169.66 317.01 169.30
  C 333.14 163.12 349.82 152.10 360.50 138.22
  Q 360.78 137.86 361.27 137.64
  L 363.21 136.75
  Z"
/>
<path fill="#b3b3b4" d="
  M 366.00 141.96
  L 366.21 142.00
  L 368.46 147.00
  Q 367.64 147.31 368.25 148.58
  A 1.36 1.34 53.1 0 1 368.05 150.07
  Q 362.15 156.77 356.59 161.82
  C 351.11 166.80 343.41 170.92 336.80 175.68
  Q 335.92 176.31 334.84 176.45
  C 332.36 176.76 330.69 178.36 328.65 178.99
  Q 316.24 182.84 303.97 187.14
  Q 300.40 186.83 297.25 188.46
  Q 273.58 187.60 253.53 175.20
  Q 262.09 178.55 270.66 181.85
  Q 272.99 182.75 275.50 182.62
  C 283.84 182.20 291.36 182.69 299.04 181.44
  C 310.54 179.59 323.09 175.21 333.82 169.59
  Q 352.08 160.02 365.12 144.08
  A 1.51 0.92 74.2 0 0 365.37 143.19
  Q 365.37 142.43 366.00 141.96
  Z"
/>
<path fill="#c5c5c6" d="
  M 368.46 147.00
  L 369.00 148.21
  Q 368.01 149.24 368.74 150.31
  Q 369.08 150.80 369.13 151.18
  C 369.53 154.36 369.56 157.20 367.37 159.81
  C 364.98 162.65 361.75 164.59 359.38 166.90
  C 354.85 171.32 350.42 173.13 345.50 175.79
  C 332.52 182.81 318.79 186.61 303.97 187.14
  Q 316.24 182.84 328.65 178.99
  C 330.69 178.36 332.36 176.76 334.84 176.45
  Q 335.92 176.31 336.80 175.68
  C 343.41 170.92 351.11 166.80 356.59 161.82
  Q 362.15 156.77 368.05 150.07
  A 1.36 1.34 53.1 0 0 368.25 148.58
  Q 367.64 147.31 368.46 147.00
  Z"
/>
<path fill="#787677" d="
  M 374.96 148.00
  L 375.04 149.50
  L 374.71 150.75
  Q 373.51 149.34 374.96 148.00
  Z"
/>
<path fill="#d7d7d8" d="
  M 369.00 148.21
  Q 370.93 152.28 370.75 153.75
  Q 370.17 158.46 372.96 154.75
  Q 373.08 155.07 373.50 155.04
  Q 343.65 189.62 297.25 188.46
  Q 300.40 186.83 303.97 187.14
  C 318.79 186.61 332.52 182.81 345.50 175.79
  C 350.42 173.13 354.85 171.32 359.38 166.90
  C 361.75 164.59 364.98 162.65 367.37 159.81
  C 369.56 157.20 369.53 154.36 369.13 151.18
  Q 369.08 150.80 368.74 150.31
  Q 368.01 149.24 369.00 148.21
  Z"
/>
<path fill="#a5c955" d="
  M 199.33 244.77
  C 209.44 206.93 262.15 206.30 272.08 244.61
  C 275.83 259.04 273.45 275.84 263.56 287.56
  C 250.68 302.83 225.42 303.63 210.90 290.68
  C 198.23 279.39 195.00 260.99 199.33 244.77
  Z
  M 254.99 283.53
  C 272.74 266.37 265.89 225.40 236.50 224.75
  C 204.90 224.05 197.14 268.55 218.24 285.28
  C 229.12 293.91 245.00 293.19 254.99 283.53
  Z"
/>
<path fill="#9fa0a3" d="
  M 401.26 255.29
  C 414.79 262.15 417.47 280.72 407.63 291.24
  C 398.79 300.71 381.61 302.34 370.14 296.59
  Q 355.05 289.02 356.70 270.00
  A 0.62 0.55 -87.2 0 1 357.25 269.43
  L 363.46 269.35
  A 0.93 0.80 -90.0 0 1 364.27 270.29
  Q 363.95 289.80 382.00 292.50
  C 391.81 293.97 403.86 288.58 405.43 277.72
  C 407.76 261.67 392.82 258.65 380.75 259.29
  A 0.79 0.71 -2.3 0 1 379.92 258.60
  L 379.75 252.31
  A 0.57 0.47 -1.0 0 1 380.32 251.82
  C 389.40 251.86 401.07 251.13 403.53 240.30
  C 407.87 221.26 371.41 214.70 367.14 239.32
  A 0.65 0.58 -85.2 0 1 366.57 239.86
  L 359.99 239.97
  A 0.53 0.50 -87.9 0 1 359.49 239.39
  C 360.61 225.91 369.18 217.38 382.31 216.25
  C 395.05 215.15 409.23 220.17 411.26 234.17
  C 412.54 242.97 408.95 250.50 401.25 254.82
  Q 400.82 255.06 401.26 255.29
  Z"
/>
<path fill="#9fa0a3" d="
  M 448.44 300.00
  L 448.19 300.00
  C 428.41 299.18 421.51 286.24 419.76 268.32
  C 417.52 245.34 424.62 209.22 457.43 217.15
  Q 472.75 220.85 475.52 239.41
  A 0.61 0.61 81.1 0 1 475.01 240.11
  Q 471.78 240.59 468.31 240.02
  A 0.69 0.69 6.9 0 1 467.74 239.45
  C 466.01 228.97 457.94 222.37 447.47 223.50
  C 432.89 225.07 428.04 241.76 427.44 254.21
  Q 427.42 254.55 427.66 254.30
  C 434.97 246.65 442.28 242.72 452.99 244.13
  C 486.16 248.51 484.04 299.36 448.44 300.00
  Z
  M 449.4791 292.8273
  A 20.89 20.09 88.0 0 0 468.8278 271.2489
  A 20.89 20.09 88.0 0 0 448.0209 251.0727
  A 20.89 20.09 88.0 0 0 428.6722 272.6511
  A 20.89 20.09 88.0 0 0 449.4791 292.8273
  Z"
/>
<path fill="#9fa0a3" d="
  M 512.44 300.00
  L 512.19 300.00
  Q 492.20 298.53 486.24 279.50
  C 479.21 257.07 481.54 214.38 515.48 216.49
  C 545.66 218.37 545.88 260.65 539.44 280.44
  Q 533.21 299.56 512.44 300.00
  Z
  M 501.15 288.86
  C 508.47 294.65 519.35 293.74 525.42 288.28
  C 538.81 276.25 539.41 233.75 521.36 225.25
  C 514.19 221.88 505.10 223.09 499.45 228.92
  C 487.83 240.92 487.51 278.08 501.15 288.86
  Z"
/>
<path fill="#a5c955" d="
  M 91.71 263.89
  L 67.08 297.34
  A 1.73 1.57 16.1 0 1 65.75 297.99
  L 56.96 298.15
  Q 55.82 298.17 56.48 297.27
  L 86.45 256.46
  A 0.63 0.62 45.5 0 0 86.45 255.71
  L 58.87 218.43
  Q 58.55 218.00 59.08 218.00
  L 68.69 218.05
  A 1.00 0.96 71.1 0 1 69.48 218.46
  L 91.76 248.75
  A 0.34 0.34 0.0 0 0 92.32 248.75
  L 114.36 218.74
  A 2.12 1.85 15.5 0 1 115.98 217.96
  L 124.57 217.86
  Q 125.65 217.85 125.02 218.69
  L 97.92 255.45
  A 1.22 1.21 45.3 0 0 97.92 256.90
  L 127.73 297.47
  Q 128.12 298.00 127.46 298.00
  L 118.82 298.00
  A 2.74 2.67 71.5 0 1 116.64 296.88
  L 92.30 263.90
  A 0.37 0.36 45.1 0 0 91.71 263.89
  Z"
/>
<path fill="#a5c955" d="
  M 302.16 264.12
  A 0.77 0.77 0.0 0 0 300.92 264.12
  L 276.48 297.35
  A 1.85 1.67 16.0 0 1 275.06 298.04
  L 266.40 298.14
  Q 265.29 298.16 265.93 297.29
  L 295.93 256.52
  A 0.71 0.71 45.1 0 0 295.93 255.68
  L 268.67 218.79
  Q 268.09 218.00 269.07 218.00
  L 277.74 218.00
  A 1.75 1.73 -18.1 0 1 279.14 218.70
  L 301.13 248.53
  A 0.48 0.48 44.7 0 0 301.90 248.53
  L 323.65 218.95
  A 2.44 2.35 17.4 0 1 325.56 218.00
  L 334.18 217.92
  Q 334.97 217.92 334.51 218.55
  L 307.27 255.50
  A 1.01 1.01 -45.1 0 0 307.27 256.70
  L 337.24 297.53
  Q 337.59 298.00 337.00 298.00
  L 327.49 298.00
  A 1.03 1.00 -17.6 0 1 326.67 297.59
  L 302.16 264.12
  Z"
/>
<path fill="#a5c955" d="
  M 181.97 256.37
  C 190.78 260.35 194.37 269.10 193.18 278.41
  C 191.42 292.03 178.75 297.59 166.10 297.84
  Q 150.17 298.15 133.33 297.99
  A 0.94 0.92 -89.7 0 1 132.42 297.05
  L 132.32 261.18
  A 0.51 0.51 0.0 0 0 131.81 260.67
  L 116.50 260.52
  Q 115.87 260.52 116.23 260.02
  L 121.06 253.33
  A 2.54 2.04 14.2 0 1 122.96 252.46
  L 131.80 252.35
  A 0.53 0.53 0.0 0 0 132.33 251.82
  L 132.32 218.72
  A 0.72 0.69 90.0 0 1 133.01 218.00
  Q 148.63 218.00 164.00 217.99
  C 177.81 217.98 190.48 223.62 190.85 239.30
  Q 191.07 249.05 181.89 255.40
  Q 181.06 255.96 181.97 256.37
  Z
  M 142.17 226.43
  A 0.75 0.75 0.0 0 0 141.42 227.18
  L 141.44 251.82
  A 0.52 0.51 1.2 0 0 141.94 252.33
  Q 152.97 252.64 164.00 252.63
  C 171.94 252.62 180.62 249.94 181.69 240.95
  C 182.80 231.66 175.71 226.49 167.25 226.50
  Q 155.03 226.52 142.17 226.43
  Z
  M 141.92 289.56
  Q 154.17 289.47 166.40 289.49
  C 176.81 289.52 185.97 283.71 184.13 272.14
  C 182.74 263.44 175.47 261.38 167.21 260.82
  Q 154.53 259.97 141.82 260.78
  A 0.53 0.52 88.3 0 0 141.33 261.31
  L 141.32 288.95
  A 0.61 0.59 89.5 0 0 141.92 289.56
  Z"
/>
</svg>
