<?xml version="1.0" encoding="UTF-8" standalone="no"?>
<!DOCTYPE svg PUBLIC "-//W3C//DTD SVG 1.1//EN" "http://www.w3.org/Graphics/SVG/1.1/DTD/svg11.dtd">
<svg xmlns="http://www.w3.org/2000/svg" version="1.1" viewBox="0 0 600 300">
<path fill="#0f4593" d="
  M 277.07 195.89
  A 0.68 0.68 36.0 0 0 278.23 195.71
  L 314.90 100.19
  A 1.07 1.05 -79.6 0 1 315.89 99.50
  L 344.69 99.56
  A 0.74 0.72 79.5 0 1 345.37 100.04
  L 382.19 197.02
  A 0.36 0.36 -10.1 0 1 381.85 197.50
  L 352.59 197.50
  A 1.16 1.14 -9.6 0 1 351.50 196.74
  L 330.42 138.00
  Q 330.01 136.84 329.59 138.00
  L 308.45 196.56
  A 1.40 1.40 9.7 0 1 307.13 197.49
  L 241.75 197.26
  A 1.03 1.02 70.8 0 1 240.94 196.86
  L 213.45 161.52
  Q 212.50 160.29 212.50 161.84
  L 212.44 196.69
  A 0.51 0.50 -0.0 0 1 211.93 197.19
  L 185.27 197.44
  A 0.77 0.76 -0.0 0 1 184.50 196.68
  L 184.50 100.08
  A 0.58 0.58 0.6 0 1 185.08 99.50
  L 211.94 99.56
  A 0.50 0.50 0.0 0 1 212.44 100.06
  L 212.50 132.73
  Q 212.50 134.05 213.31 133.01
  L 238.81 100.10
  A 1.58 1.56 18.8 0 1 240.05 99.50
  L 274.34 99.50
  Q 275.02 99.50 274.58 100.02
  L 236.06 145.81
  A 0.31 0.31 90.0 0 0 236.06 146.19
  L 277.07 195.89
  Z"
/>
<path fill="#0f4593" d="
  M 55.86 134.94
  C 66.05 134.77 76.56 135.51 86.57 134.85
  A 0.54 0.54 -2.3 0 0 87.07 134.31
  L 87.24 100.05
  A 0.56 0.55 -89.5 0 1 87.79 99.50
  L 114.69 99.50
  A 0.56 0.56 0.0 0 1 115.25 100.06
  L 115.25 196.48
  A 1.00 0.97 -89.7 0 1 114.27 197.48
  L 87.82 197.21
  A 0.52 0.52 0.6 0 1 87.31 196.69
  L 87.25 159.35
  A 0.68 0.67 0.0 0 0 86.57 158.68
  L 55.80 158.68
  A 0.56 0.55 -0.0 0 0 55.24 159.23
  L 55.07 196.81
  A 0.53 0.52 -1.1 0 1 54.56 197.33
  Q 41.04 197.80 27.76 197.26
  A 0.53 0.53 1.1 0 1 27.25 196.73
  L 27.25 100.05
  A 0.55 0.55 -1.3 0 1 27.80 99.50
  L 54.69 99.56
  A 0.50 0.50 0.0 0 1 55.19 100.06
  L 55.25 134.34
  A 0.60 0.60 -0.5 0 0 55.86 134.94
  Z"
/>
<rect fill="#0f4593" x="135.33" y="99.50" width="28.18" height="97.96" rx="0.63"/>
<path fill="#0f4593" d="
  M 421.66 167.92
  Q 420.68 166.45 420.68 168.21
  L 420.75 196.77
  A 0.56 0.55 -0.0 0 1 420.19 197.32
  L 393.19 197.32
  A 0.44 0.43 0.0 0 1 392.75 196.89
  L 392.75 100.24
  A 0.74 0.74 -0.0 0 1 393.49 99.50
  Q 415.00 99.50 435.50 99.56
  C 451.39 99.60 464.77 109.23 466.50 125.75
  C 468.00 140.12 461.47 153.11 447.49 158.00
  A 0.49 0.49 61.0 0 0 447.27 158.77
  L 476.93 196.59
  Q 477.64 197.50 476.48 197.50
  L 442.01 197.50
  A 0.98 0.90 -15.6 0 1 441.22 197.10
  L 421.66 167.92
  Z
  M 435.06 136.73
  Q 436.11 135.28 436.27 133.49
  C 437.31 122.24 430.67 122.00 421.60 122.00
  A 0.85 0.85 0.2 0 0 420.75 122.85
  L 420.75 139.98
  A 0.52 0.52 90.0 0 0 421.27 140.50
  C 426.52 140.50 431.50 141.62 435.06 136.73
  Z"
/>
<path fill="#0f4593" d="
  M 569.66 175.33
  C 564.98 190.30 551.39 198.66 536.23 200.47
  C 514.57 203.06 489.98 195.01 485.97 170.53
  Q 485.50 167.63 485.50 152.94
  Q 485.50 126.52 485.50 100.38
  A 0.88 0.88 0.0 0 1 486.38 99.50
  L 513.07 99.50
  A 0.68 0.68 89.9 0 1 513.75 100.18
  Q 513.75 125.25 513.57 149.75
  Q 513.50 158.92 514.31 164.19
  C 515.67 172.96 526.21 174.92 533.73 172.92
  C 542.03 170.72 542.71 165.13 542.81 156.96
  Q 543.16 129.14 542.99 100.31
  A 0.81 0.81 -89.9 0 1 543.80 99.50
  L 570.52 99.50
  A 0.74 0.73 90.0 0 1 571.25 100.24
  Q 571.05 131.38 571.01 162.52
  Q 571.00 171.07 569.66 175.33
  Z"
/>
</svg>
