<?xml version="1.0" encoding="UTF-8" standalone="no"?>
<!DOCTYPE svg PUBLIC "-//W3C//DTD SVG 1.1//EN" "http://www.w3.org/Graphics/SVG/1.1/DTD/svg11.dtd">
<svg xmlns="http://www.w3.org/2000/svg" version="1.1" viewBox="0 0 600 154">
<path fill="#ff0000" d="
  M 422.40 73.98
  C 408.88 63.49 406.46 50.54 407.07 34.08
  C 407.42 24.53 408.70 9.70 416.83 3.27
  C 425.53 -3.61 436.27 1.58 440.22 10.72
  Q 441.29 13.20 441.31 10.46
  L 441.39 3.19
  A 0.55 0.54 0.5 0 1 441.94 2.66
  L 458.56 2.66
  A 0.53 0.51 90.0 0 1 459.07 3.19
  L 459.25 52.02
  A 0.73 0.73 -0.2 0 1 458.52 52.75
  L 441.03 52.70
  A 1.33 1.32 -89.4 0 1 439.72 51.35
  C 439.79 47.59 439.35 41.11 435.44 39.50
  C 430.67 37.53 427.84 43.71 428.36 47.77
  C 429.17 53.97 433.55 58.34 438.70 61.55
  C 444.92 65.43 451.76 70.21 456.28 76.06
  C 462.25 83.79 462.62 93.71 463.13 103.21
  C 463.79 115.66 463.46 145.30 445.37 147.26
  C 438.01 148.06 430.64 143.22 427.66 136.48
  Q 426.52 133.88 426.50 136.73
  L 426.45 144.44
  A 0.52 0.50 -0.0 0 1 425.93 144.94
  L 409.59 145.00
  A 0.85 0.84 -90.0 0 1 408.75 144.15
  L 408.75 91.52
  A 0.71 0.70 -90.0 0 1 409.45 90.81
  L 425.63 90.75
  A 0.89 0.88 89.3 0 1 426.51 91.62
  C 426.60 96.30 426.48 105.70 433.06 106.73
  Q 440.05 107.83 440.85 99.51
  C 442.27 84.78 431.69 81.18 422.40 73.98
  Z"
/>
<path fill="#ff0000" d="
  M 9.94 39.05
  L 4.36 38.99
  A 0.86 0.85 -0.0 0 1 3.50 38.14
  L 3.50 3.16
  A 0.66 0.66 0.0 0 1 4.16 2.50
  L 34.84 2.50
  A 0.66 0.66 -86.2 0 1 35.50 3.16
  L 35.50 38.15
  A 0.87 0.84 -0.3 0 1 34.64 38.99
  L 31.28 39.04
  A 0.81 0.78 -90.0 0 0 30.51 39.84
  Q 30.34 67.18 30.72 92.97
  C 30.77 96.31 31.87 104.69 34.69 106.31
  Q 37.81 108.11 40.17 105.17
  Q 41.41 103.64 41.97 101.75
  Q 43.77 95.66 43.77 88.50
  Q 43.75 64.62 43.75 39.77
  A 0.72 0.72 0.8 0 0 43.05 39.05
  L 40.07 38.95
  A 0.86 0.85 -89.7 0 1 39.24 38.10
  L 39.18 3.19
  A 0.63 0.62 -90.0 0 1 39.80 2.56
  L 65.12 2.50
  A 0.88 0.88 -87.9 0 1 66.00 3.38
  L 66.00 38.08
  A 0.92 0.92 0.0 0 1 65.08 39.00
  L 59.27 39.00
  A 0.52 0.52 0.0 0 0 58.75 39.52
  Q 58.75 75.38 58.75 111.00
  Q 58.75 120.48 57.79 126.97
  Q 54.43 149.67 31.19 147.06
  C 16.56 145.42 10.84 132.86 10.72 119.60
  Q 10.37 79.58 10.44 39.55
  A 0.50 0.50 0.0 0 0 9.94 39.05
  Z"
/>
<path fill="#ff0000" d="
  M 125.99 101.25
  L 126.09 101.24
  A 0.17 0.12 86.1 0 0 126.19 101.08
  L 126.00 39.90
  A 0.90 0.89 90.0 0 0 125.11 39.00
  L 118.41 39.00
  A 0.66 0.66 0.0 0 1 117.75 38.34
  L 117.75 3.27
  A 0.71 0.70 -90.0 0 1 118.45 2.56
  L 146.00 2.50
  A 0.50 0.50 0.0 0 1 146.50 3.00
  L 146.50 38.48
  A 0.52 0.52 -0.4 0 1 145.98 39.00
  L 140.26 39.00
  A 0.76 0.76 -89.5 0 0 139.50 39.76
  L 139.44 144.43
  A 0.52 0.50 -90.0 0 1 138.94 144.95
  L 118.18 144.83
  A 0.65 0.61 83.5 0 1 117.58 144.32
  Q 107.66 98.46 97.75 52.60
  Q 95.74 43.35 94.09 34.03
  C 93.90 33.01 93.50 33.87 93.50 34.19
  Q 93.50 70.10 93.50 106.27
  A 0.80 0.69 0.4 0 0 94.29 106.96
  L 101.08 107.08
  A 0.72 0.67 -89.6 0 1 101.74 107.80
  L 101.57 144.31
  A 0.52 0.52 -0.6 0 1 101.06 144.83
  L 73.67 144.99
  A 0.92 0.91 89.7 0 1 72.75 144.07
  Q 72.75 126.25 72.80 108.25
  Q 72.80 106.25 74.53 106.81
  Q 74.74 106.88 75.50 106.91
  L 78.87 107.03
  A 1.09 0.93 1.2 0 0 80.00 106.11
  L 80.00 39.85
  A 0.85 0.85 90.0 0 0 79.15 39.00
  L 73.42 39.00
  A 0.67 0.67 0.0 0 1 72.75 38.33
  L 72.75 3.45
  A 0.95 0.95 4.1 0 1 73.70 2.50
  L 103.62 2.50
  A 1.14 1.14 83.7 0 1 104.73 3.39
  L 125.77 101.00
  A 0.30 0.17 78.8 0 0 125.99 101.25
  Z"
/>
<path fill="#ff0000" d="
  M 181.31 106.78
  L 187.28 106.91
  A 1.00 0.84 0.7 0 1 188.26 107.75
  L 188.32 144.48
  A 0.52 0.52 -90.0 0 1 187.80 145.00
  L 154.52 145.00
  A 0.71 0.70 -0.0 0 1 153.81 144.30
  L 153.75 107.51
  A 0.71 0.65 0.9 0 1 154.48 106.86
  L 160.14 106.97
  A 0.63 0.59 -89.1 0 0 160.75 106.34
  L 160.75 39.56
  A 0.58 0.56 -0.0 0 0 160.17 39.00
  L 154.45 38.95
  A 0.72 0.70 90.0 0 1 153.75 38.23
  L 153.75 3.17
  A 0.67 0.67 -89.6 0 1 154.42 2.50
  L 187.68 2.56
  A 0.52 0.52 89.4 0 1 188.20 3.07
  L 188.26 38.26
  A 0.56 0.52 89.5 0 1 187.75 38.82
  L 181.95 38.95
  A 1.22 1.12 -0.5 0 0 180.75 40.07
  L 180.81 106.19
  A 0.59 0.51 -89.5 0 0 181.31 106.78
  Z"
/>
<path fill="#ff0000" d="
  M 253.00 39.56
  L 239.40 144.26
  A 0.84 0.84 -86.5 0 1 238.57 145.00
  L 216.11 144.94
  A 1.02 1.01 85.7 0 1 215.11 144.07
  L 200.51 39.81
  A 0.72 0.57 85.2 0 0 199.94 39.20
  L 195.47 39.09
  A 1.25 1.09 0.8 0 1 194.25 38.00
  L 194.25 3.27
  A 0.71 0.70 90.0 0 1 194.95 2.56
  L 225.24 2.50
  A 0.78 0.77 -90.0 0 1 226.01 3.28
  L 226.18 37.89
  A 1.12 1.10 -0.5 0 1 225.07 39.00
  L 220.81 39.04
  A 0.50 0.49 88.3 0 0 220.33 39.56
  Q 220.43 42.15 221.06 46.19
  Q 226.12 78.31 230.75 110.52
  Q 231.23 113.85 231.59 110.50
  L 239.20 39.75
  A 0.51 0.46 -86.1 0 0 238.76 39.19
  L 232.22 39.05
  A 0.99 0.91 0.6 0 1 231.25 38.14
  L 231.25 3.30
  A 0.79 0.77 -90.0 0 1 232.02 2.51
  L 257.55 2.68
  A 0.53 0.51 0.0 0 1 258.08 3.19
  L 258.07 38.07
  A 0.63 0.52 88.1 0 1 257.59 38.69
  L 253.57 39.10
  A 0.65 0.51 -0.7 0 0 253.00 39.56
  Z"
/>
<path fill="#ff0000" d="
  M 304.19 39.04
  L 291.43 39.16
  A 0.52 0.52 -0.6 0 0 290.92 39.68
  L 290.92 64.07
  A 0.51 0.48 0.0 0 0 291.43 64.55
  L 307.68 64.55
  A 0.51 0.51 -89.6 0 1 308.19 65.06
  L 308.25 78.31
  A 0.91 0.91 -0.5 0 1 307.33 79.23
  L 291.57 79.07
  A 0.82 0.79 0.0 0 0 290.75 79.86
  L 290.75 106.13
  A 0.87 0.87 0.0 0 0 291.62 107.00
  L 303.90 107.00
  A 0.85 0.85 0.2 0 0 304.75 106.15
  L 304.75 86.90
  A 0.67 0.66 -0.0 0 1 305.42 86.24
  L 321.78 86.08
  A 0.96 0.93 -0.3 0 1 322.75 87.01
  L 322.75 144.13
  A 0.87 0.87 0.0 0 1 321.88 145.00
  L 264.63 145.00
  A 0.88 0.88 0.0 0 1 263.75 144.12
  L 263.75 107.57
  A 0.69 0.67 0.4 0 1 264.45 106.90
  L 269.74 106.98
  A 1.04 1.00 -89.7 0 0 270.75 105.94
  L 270.75 39.76
  A 0.76 0.76 89.5 0 0 269.99 39.00
  L 264.67 39.00
  A 0.92 0.92 -0.6 0 1 263.75 38.08
  L 263.75 3.43
  A 0.93 0.93 -1.2 0 1 264.68 2.50
  L 320.79 2.50
  A 0.65 0.65 89.9 0 1 321.44 3.15
  L 321.31 58.82
  A 0.52 0.49 -90.0 0 1 320.82 59.34
  L 305.43 59.34
  A 0.54 0.51 89.4 0 1 304.92 58.81
  L 304.69 39.56
  A 0.53 0.50 89.4 0 0 304.19 39.04
  Z"
/>
<path fill="#ff0000" d="
  M 358.56 106.80
  Q 361.21 107.31 364.31 106.72
  A 1.00 1.00 -5.5 0 1 365.50 107.70
  L 365.50 144.44
  A 0.56 0.56 0.0 0 1 364.94 145.00
  L 331.66 145.00
  A 0.90 0.89 0.0 0 1 330.76 144.11
  L 330.94 107.43
  A 0.63 0.60 0.5 0 1 331.58 106.83
  L 337.35 106.94
  A 0.66 0.64 -89.6 0 0 338.00 106.28
  L 338.00 39.66
  A 0.66 0.66 -0.1 0 0 337.34 39.00
  L 331.52 39.00
  A 0.77 0.77 -89.7 0 1 330.75 38.23
  L 330.75 3.67
  A 1.16 1.16 -0.2 0 1 331.90 2.51
  Q 350.88 2.34 368.50 2.75
  C 389.52 3.24 392.52 18.26 392.86 35.52
  C 393.12 48.66 392.24 68.04 375.94 71.29
  Q 372.23 72.03 375.99 72.50
  C 398.25 75.29 384.03 104.88 392.50 108.03
  C 397.50 109.89 397.68 95.41 397.50 94.00
  Q 397.15 91.27 399.28 91.85
  A 1.74 1.57 41.5 0 0 400.21 91.84
  C 403.17 90.98 402.43 93.64 402.61 95.18
  C 404.15 108.68 404.93 126.18 398.96 138.48
  C 394.46 147.76 382.12 148.99 377.06 139.44
  Q 372.39 130.60 372.23 118.50
  Q 371.99 100.78 372.25 93.00
  Q 372.72 78.76 358.84 79.30
  A 0.88 0.87 -1.4 0 0 358.00 80.17
  L 358.06 106.18
  A 0.63 0.62 -84.5 0 0 358.56 106.80
  Z
  M 358.73 65.14
  C 369.15 66.08 374.72 60.57 373.50 50.25
  Q 372.08 38.24 358.95 39.05
  A 1.01 1.01 -1.8 0 0 358.00 40.06
  L 358.00 64.34
  A 0.81 0.80 2.8 0 0 358.73 65.14
  Z"
/>
<path fill="#ff0000" d="
  M 473.69 105.94
  C 478.28 71.80 482.61 37.55 487.69 3.49
  A 1.16 1.15 -85.6 0 1 488.83 2.50
  L 513.59 2.50
  A 0.60 0.59 -3.9 0 1 514.18 3.01
  L 528.60 105.94
  A 1.51 1.27 -5.0 0 0 530.14 107.02
  L 532.25 106.92
  Q 532.96 106.88 533.20 106.78
  Q 535.00 106.03 535.00 108.00
  Q 535.00 126.00 535.00 144.34
  A 0.66 0.66 -89.5 0 1 534.34 145.00
  L 501.02 145.00
  A 0.71 0.70 -0.0 0 1 500.31 144.30
  L 500.25 107.95
  A 1.35 1.18 0.9 0 1 501.64 106.78
  L 504.77 106.87
  Q 505.64 106.90 505.72 106.92
  C 508.47 107.83 507.57 105.68 507.44 104.36
  Q 506.70 96.99 505.59 88.53
  A 1.18 1.18 -3.6 0 0 504.42 87.50
  L 490.86 87.50
  A 0.91 0.90 3.6 0 0 489.96 88.29
  L 487.91 106.10
  A 0.55 0.55 4.3 0 0 488.44 106.71
  L 495.07 106.92
  A 0.52 0.51 -89.4 0 1 495.57 107.44
  L 495.74 144.45
  A 0.55 0.54 -0.5 0 1 495.19 145.00
  L 467.42 145.00
  A 0.67 0.67 0.2 0 1 466.75 144.33
  L 466.75 107.86
  A 1.01 0.94 0.0 0 1 467.76 106.92
  L 470.94 106.90
  Q 471.58 106.89 471.90 107.01
  Q 473.47 107.56 473.69 105.94
  Z
  M 494.91 72.94
  L 502.94 73.09
  A 0.67 0.62 86.3 0 0 503.55 72.33
  L 498.30 31.23
  A 1.17 0.59 -89.2 0 0 497.90 30.41
  Q 497.48 30.17 497.35 31.18
  Q 494.88 51.06 492.08 70.91
  C 491.95 71.83 491.26 74.09 493.21 73.24
  Q 493.93 72.92 494.91 72.94
  Z"
/>
<path fill="#ff0000" d="
  M 547.19 39.05
  L 541.61 38.99
  A 0.86 0.85 -0.0 0 1 540.75 38.14
  L 540.75 3.16
  A 0.66 0.66 -89.8 0 1 541.41 2.50
  L 574.75 2.50
  A 0.69 0.68 0.0 0 1 575.44 3.18
  L 575.32 38.32
  A 0.55 0.53 89.5 0 1 574.80 38.87
  L 568.77 38.94
  A 1.03 0.96 -0.3 0 0 567.75 39.90
  L 567.75 106.14
  A 0.83 0.81 90.0 0 0 568.56 106.97
  L 581.31 106.84
  A 0.53 0.50 -90.0 0 0 581.81 106.31
  L 581.75 80.16
  A 0.95 0.93 -0.3 0 1 582.69 79.23
  L 599.03 79.07
  A 0.71 0.69 -0.4 0 1 599.75 79.76
  L 599.75 144.48
  A 0.52 0.52 -90.0 0 1 599.23 145.00
  L 541.53 145.00
  A 0.78 0.78 89.9 0 1 540.75 144.22
  L 540.81 107.56
  A 0.53 0.49 -90.0 0 1 541.30 107.03
  L 546.64 107.04
  A 1.11 1.06 0.0 0 0 547.75 105.98
  L 547.69 39.55
  A 0.50 0.50 0.0 0 0 547.19 39.05
  Z"
/>
</svg>
