<?xml version="1.0" encoding="UTF-8" standalone="no"?>
<!DOCTYPE svg PUBLIC "-//W3C//DTD SVG 1.1//EN" "http://www.w3.org/Graphics/SVG/1.1/DTD/svg11.dtd">
<svg xmlns="http://www.w3.org/2000/svg" version="1.1" viewBox="0 0 600 300">
<path fill="#000000" d="
  M 157.96 46.17
  C 144.68 59.46 131.66 73.02 118.17 86.09
  A 0.51 0.50 -44.6 0 1 117.46 86.09
  L 75.68 44.18
  A 1.06 1.05 -45.4 0 1 75.68 42.70
  L 116.24 1.10
  A 1.21 1.20 -45.2 0 1 117.96 1.09
  Q 137.69 20.80 157.92 41.04
  C 160.48 43.61 160.62 43.50 157.96 46.17
  Z"
/>
<path fill="#000000" d="
  M 197.25 114.45
  Q 197.53 114.53 197.74 114.36
  A 1.00 0.55 75.8 0 0 197.95 113.57
  C 195.91 94.73 211.86 84.21 228.25 81.82
  A 0.73 0.73 83.3 0 1 229.08 82.48
  L 232.81 124.34
  A 1.33 1.31 80.7 0 1 231.82 125.73
  C 218.32 129.14 208.60 138.50 213.50 153.50
  Q 221.87 179.13 230.85 204.08
  A 0.98 0.98 -21.8 0 1 230.32 205.31
  L 191.78 222.38
  A 0.78 0.78 -21.1 0 1 190.73 221.92
  L 152.77 111.59
  A 0.64 0.64 -21.6 0 1 153.11 110.81
  L 189.52 94.47
  A 0.63 0.63 -21.3 0 1 190.37 94.84
  L 196.66 113.71
  A 1.18 0.67 81.1 0 0 197.25 114.45
  Z"
/>
<path fill="#000000" d="
  M 291.76 178.67
  Q 312.44 183.69 328.76 169.36
  A 0.81 0.81 53.7 0 1 329.98 169.55
  L 348.47 200.10
  A 0.95 0.95 56.4 0 1 348.22 201.35
  C 328.86 215.69 300.19 221.72 276.94 215.06
  C 252.48 208.06 235.97 188.34 234.11 163.11
  C 228.90 92.29 319.51 69.72 349.40 132.11
  A 0.92 0.90 59.2 0 1 349.13 133.23
  L 291.40 176.93
  Q 289.75 178.18 291.76 178.67
  Z
  M 280.93 135.68
  Q 272.95 144.83 276.30 156.94
  A 1.11 1.11 63.6 0 0 278.04 157.53
  L 306.07 136.31
  A 0.86 0.86 -41.0 0 0 306.16 135.03
  C 299.36 128.18 287.35 128.31 280.93 135.68
  Z"
/>
<path fill="#000000" d="
  M 461.72 106.67
  A 1.45 1.45 47.4 0 0 463.81 106.76
  C 487.17 84.55 523.68 98.09 526.59 130.66
  Q 526.71 131.94 526.81 141.84
  Q 527.16 175.58 526.99 211.19
  A 1.20 1.19 87.9 0 1 525.90 212.37
  L 484.48 215.75
  A 0.39 0.38 87.3 0 1 484.06 215.36
  Q 483.96 181.44 484.00 147.44
  Q 484.00 141.37 482.96 139.21
  C 480.20 133.49 469.89 133.94 467.20 139.81
  Q 466.25 141.88 466.25 147.34
  Q 466.25 179.27 466.25 210.83
  A 1.59 1.58 -2.4 0 1 464.79 212.41
  L 424.07 215.76
  A 0.76 0.75 -2.4 0 1 423.25 215.01
  Q 423.25 180.38 423.20 145.50
  Q 423.19 135.54 414.44 135.19
  C 406.50 134.88 405.15 140.83 405.17 147.25
  Q 405.25 179.25 405.25 211.36
  A 1.10 1.09 -2.3 0 1 404.24 212.45
  L 363.26 215.79
  A 0.77 0.75 -2.4 0 1 362.43 215.04
  L 362.45 100.30
  A 1.04 1.02 -2.8 0 1 363.39 99.28
  L 400.88 95.89
  A 0.80 0.79 -2.6 0 1 401.75 96.68
  L 401.75 112.87
  Q 401.75 115.04 402.99 113.26
  C 415.99 94.66 445.24 88.13 461.72 106.67
  Z"
/>
<rect fill="#000000" x="96.75" y="97.75" width="44.50" height="116.50" rx="0.43"/>
<path fill="#000000" d="
  M 594.89 261.88
  A 32.10 32.10 0.0 0 1 562.79 293.98
  L 38.21 293.98
  A 32.10 32.10 0.0 0 1 6.11 261.88
  L 6.11 261.12
  A 32.10 32.10 0.0 0 1 38.21 229.02
  L 562.79 229.02
  A 32.10 32.10 0.0 0 1 594.89 261.12
  L 594.89 261.88
  Z
  M 62.81 277.45
  A 2.47 2.45 -76.2 0 1 61.50 275.27
  Q 61.50 263.34 61.50 252.48
  C 61.50 248.88 61.06 246.54 64.82 245.59
  C 70.18 244.22 78.46 244.39 76.88 252.61
  A 1.17 1.17 -84.7 0 0 78.03 254.00
  L 90.56 254.00
  A 0.67 0.66 3.4 0 0 91.22 253.42
  C 93.01 239.15 78.27 237.89 68.30 237.99
  C 61.49 238.05 46.25 239.29 46.25 249.25
  Q 46.25 261.25 46.00 273.24
  C 45.71 287.83 70.44 286.97 79.30 284.91
  C 88.80 282.71 92.32 278.76 91.03 268.81
  A 1.18 1.14 86.1 0 0 89.88 267.78
  L 77.69 267.91
  A 0.56 0.53 -88.3 0 0 77.16 268.44
  L 76.77 275.47
  A 2.47 2.43 -10.9 0 1 75.33 277.56
  Q 68.68 280.57 62.81 277.45
  Z
  M 135.80 277.44
  Q 135.13 258.01 135.68 238.81
  A 0.79 0.79 -89.3 0 0 134.89 238.00
  L 121.36 238.00
  A 0.86 0.86 -89.6 0 0 120.50 238.86
  L 120.44 284.36
  A 0.64 0.63 0.4 0 0 121.08 285.00
  L 159.51 285.00
  A 0.99 0.99 0.0 0 0 160.50 284.01
  L 160.50 279.02
  A 1.04 1.03 0.3 0 0 159.47 277.99
  L 136.32 277.94
  A 0.52 0.51 -0.6 0 1 135.80 277.44
  Z
  M 216.56 276.79
  L 219.00 284.34
  A 0.75 0.71 -8.2 0 0 219.69 284.83
  L 233.54 285.06
  A 0.59 0.58 81.7 0 0 234.10 284.29
  L 219.11 238.56
  A 0.83 0.82 80.6 0 0 218.33 238.00
  L 197.64 238.00
  A 1.12 1.11 9.0 0 0 196.58 238.76
  L 181.72 284.35
  A 0.45 0.45 8.9 0 0 182.15 284.94
  L 194.58 284.99
  A 1.26 1.16 -81.2 0 0 195.73 284.07
  L 197.79 276.83
  A 1.09 1.09 -81.6 0 1 198.85 276.04
  L 215.93 276.28
  A 0.73 0.64 80.1 0 1 216.56 276.79
  Z
  M 264.44 259.89
  C 269.41 263.01 285.94 268.39 285.96 274.77
  C 285.97 279.80 269.44 282.18 270.56 272.45
  A 1.29 1.27 -86.8 0 0 269.29 271.01
  L 256.81 271.05
  A 0.59 0.59 -86.5 0 0 256.24 271.56
  C 253.93 288.69 282.93 287.46 292.42 284.17
  C 298.93 281.92 304.12 276.03 299.37 269.30
  C 293.45 260.88 275.55 259.06 272.06 251.44
  C 268.66 244.00 287.30 241.35 286.74 251.39
  A 0.60 0.59 1.9 0 0 287.33 252.01
  L 300.35 252.07
  A 0.64 0.63 1.9 0 0 301.00 251.47
  C 301.73 239.39 286.44 237.47 277.68 237.95
  C 270.54 238.35 261.90 238.60 257.74 245.36
  C 253.75 251.83 259.07 256.51 264.44 259.89
  Z
  M 326.73 245.36
  C 320.28 255.84 338.97 263.37 345.70 266.04
  C 348.80 267.27 354.48 270.46 354.97 274.17
  C 355.75 280.14 337.89 282.04 339.61 272.40
  A 1.18 1.17 -85.1 0 0 338.45 271.01
  L 325.81 271.05
  A 0.59 0.59 -86.5 0 0 325.24 271.56
  C 322.68 290.50 361.58 289.02 368.52 279.23
  C 377.03 267.22 351.88 259.21 345.12 255.35
  C 329.93 246.68 356.44 238.81 355.74 251.39
  A 0.60 0.59 1.9 0 0 356.33 252.01
  L 369.30 252.07
  A 0.64 0.63 2.4 0 0 369.95 251.48
  C 370.91 239.38 355.28 237.49 346.66 237.96
  C 339.53 238.34 330.90 238.60 326.73 245.36
  Z
  M 411.51 238.44
  A 0.43 0.43 0.0 0 0 411.08 238.01
  L 396.92 238.01
  A 0.43 0.43 0.0 0 0 396.49 238.44
  L 396.49 284.56
  A 0.43 0.43 0.0 0 0 396.92 284.99
  L 411.08 284.99
  A 0.43 0.43 0.0 0 0 411.51 284.56
  L 411.51 238.44
  Z
  M 455.98 277.55
  A 2.74 2.64 14.5 0 1 454.54 275.21
  L 454.48 249.35
  Q 454.47 246.67 457.14 245.85
  C 463.16 244.02 471.19 244.11 469.86 252.95
  A 0.87 0.85 -85.7 0 0 470.70 253.96
  L 483.57 253.84
  A 0.60 0.57 -86.5 0 0 484.13 253.32
  C 485.89 239.10 471.20 237.82 461.21 237.97
  C 454.45 238.08 439.25 239.29 439.25 249.25
  Q 439.25 261.25 439.00 273.24
  C 438.71 287.83 463.44 286.97 472.30 284.91
  C 481.80 282.71 485.32 278.76 484.03 268.81
  A 1.18 1.14 86.1 0 0 482.88 267.78
  L 470.69 267.91
  A 0.56 0.53 -88.3 0 0 470.16 268.44
  L 469.79 275.07
  Q 469.68 277.04 467.83 277.81
  Q 461.39 280.46 455.98 277.55
  Z
  M 512.66 245.50
  C 506.46 255.89 524.99 263.39 531.70 266.03
  C 534.81 267.25 540.49 270.47 540.97 274.18
  C 541.69 279.82 530.60 279.61 527.55 277.89
  Q 525.10 276.51 525.56 272.45
  A 1.29 1.27 -86.8 0 0 524.29 271.01
  L 511.81 271.05
  A 0.59 0.59 -86.5 0 0 511.24 271.56
  C 509.44 284.89 526.13 286.62 535.52 286.02
  C 542.22 285.60 550.30 285.18 554.51 279.23
  C 563.02 267.22 537.88 259.21 531.12 255.35
  C 516.06 246.75 542.18 238.69 541.74 251.43
  A 0.57 0.56 1.5 0 0 542.30 252.01
  L 555.30 252.07
  A 0.64 0.63 2.4 0 0 555.95 251.48
  C 556.89 239.59 541.81 237.56 533.27 237.96
  C 525.95 238.31 516.86 238.44 512.66 245.50
  Z"
/>
<path fill="#000000" d="
  M 200.09 269.52
  L 206.79 247.52
  A 0.37 0.37 40.8 0 1 207.49 247.52
  L 214.19 269.52
  A 0.37 0.37 -7.8 0 1 213.84 270.00
  L 200.44 270.00
  A 0.37 0.37 8.4 0 1 200.09 269.52
  Z"
/>
</svg>
