<?xml version="1.0" encoding="UTF-8" standalone="no"?>
<!DOCTYPE svg PUBLIC "-//W3C//DTD SVG 1.1//EN" "http://www.w3.org/Graphics/SVG/1.1/DTD/svg11.dtd">
<svg xmlns="http://www.w3.org/2000/svg" version="1.1" viewBox="0 0 600 300">
<path stroke="#ed1c24" stroke-width="2.00" fill="none" stroke-linecap="butt" vector-effect="non-scaling-stroke" d="
  M 331.00 206.79
  Q 331.59 207.23 331.29 207.75"
/>
<path fill="#ffffff" d="
  M 510.74 67.15
  C 489.80 62.92 486.90 34.17 507.17 26.48
  C 514.92 23.55 528.19 24.98 536.88 24.99
  Q 549.29 25.00 551.10 25.31
  C 576.99 29.74 573.51 67.80 546.75 67.60
  Q 536.27 67.53 525.79 67.51
  Q 512.35 67.48 510.74 67.15
  Z
  M 555.93 45.97
  A 7.91 7.91 0.0 0 0 548.02 38.06
  L 514.50 38.06
  A 7.91 7.91 0.0 0 0 506.59 45.97
  L 506.59 46.55
  A 7.91 7.91 0.0 0 0 514.50 54.46
  L 548.02 54.46
  A 7.91 7.91 0.0 0 0 555.93 46.55
  L 555.93 45.97
  Z"
/>
<path fill="#ed1c24" d="
  M 117.54 170.71
  A 0.97 0.96 82.1 0 0 116.61 170.00
  L 74.97 170.00
  A 1.19 1.18 8.2 0 0 73.83 170.85
  L 63.36 207.40
  A 0.83 0.82 7.8 0 1 62.56 208.00
  L 31.85 208.00
  A 0.53 0.53 7.9 0 1 31.34 207.33
  Q 53.07 129.36 74.69 51.98
  C 76.14 46.81 78.68 41.36 82.61 37.84
  C 89.22 31.92 99.17 31.41 106.45 36.26
  C 114.06 41.33 115.99 51.02 118.32 59.26
  Q 139.12 132.97 159.99 207.32
  A 0.54 0.53 82.1 0 1 159.48 208.00
  L 128.89 208.00
  A 1.19 1.18 -7.7 0 1 127.75 207.14
  L 117.54 170.71
  Z
  M 82.57 138.63
  A 0.31 0.31 7.6 0 0 82.87 139.02
  L 108.30 138.98
  A 0.31 0.31 -7.9 0 0 108.60 138.58
  L 95.81 93.79
  A 0.31 0.31 0.0 0 0 95.21 93.79
  L 82.57 138.63
  Z"
/>
<path fill="#ed1c24" d="
  M 164.30 64.06
  L 131.56 64.00
  A 0.56 0.55 0.0 0 1 131.00 63.45
  L 131.06 33.70
  A 0.71 0.70 -0.0 0 1 131.77 33.00
  L 229.44 33.00
  A 0.56 0.56 0.0 0 1 230.00 33.56
  L 230.00 63.33
  A 0.67 0.67 -90.0 0 1 229.33 64.00
  L 196.68 64.00
  A 0.93 0.93 0.0 0 0 195.75 64.93
  L 195.69 207.43
  A 0.51 0.51 0.0 0 1 195.18 207.94
  L 165.56 207.94
  A 0.50 0.50 0.0 0 1 165.06 207.44
  L 165.00 64.77
  A 0.71 0.70 90.0 0 0 164.30 64.06
  Z"
/>
<path fill="#ed1c24" d="
  M 331.00 206.79
  Q 331.59 207.23 331.29 207.75
  L 299.68 207.98
  A 1.11 1.07 81.5 0 1 298.63 207.17
  L 288.36 170.48
  A 0.65 0.65 -7.5 0 0 287.73 170.00
  L 245.56 170.06
  A 0.67 0.67 8.6 0 0 244.92 170.54
  L 234.30 207.32
  A 0.94 0.93 7.8 0 1 233.40 208.00
  L 202.85 208.00
  A 0.53 0.53 7.9 0 1 202.34 207.33
  Q 224.08 129.36 245.69 51.98
  C 248.55 41.75 254.49 33.21 266.25 33.12
  C 279.52 33.01 285.00 42.99 288.11 54.22
  Q 309.26 130.59 331.00 206.79
  Z
  M 253.59 138.62
  A 0.31 0.31 -2.1 0 0 253.89 139.02
  L 279.30 138.97
  A 0.31 0.31 81.9 0 0 279.60 138.58
  L 266.82 93.77
  A 0.31 0.31 46.3 0 0 266.22 93.77
  L 253.59 138.62
  Z"
/>
<path fill="#ed1c24" d="
  M 331.29 207.75
  Q 331.59 207.23 331.00 206.79
  Q 332.06 206.76 331.74 205.94
  Q 331.50 205.34 331.50 205.01
  Q 331.50 133.00 331.50 61.00
  C 331.50 55.68 331.09 50.81 332.91 46.19
  Q 336.80 36.34 346.31 33.83
  Q 349.47 33.00 363.25 33.00
  C 373.53 33.00 386.06 32.21 394.85 33.98
  C 415.21 38.08 432.76 55.50 434.52 76.83
  C 436.64 102.49 418.16 124.86 394.89 133.29
  A 0.46 0.45 64.1 0 0 394.66 133.96
  L 440.73 207.35
  Q 441.14 208.00 440.37 208.00
  L 405.92 208.00
  A 1.29 1.28 73.6 0 1 404.84 207.41
  Q 386.96 179.52 368.86 151.57
  Q 365.59 146.52 363.34 141.01
  Q 362.50 138.95 362.50 141.17
  L 362.32 207.32
  A 0.53 0.51 -1.2 0 1 361.81 207.83
  Q 346.55 208.32 331.29 207.75
  Z
  M 362.79 123.75
  C 366.11 117.42 369.63 113.43 375.74 110.05
  C 386.35 104.18 404.74 96.61 403.73 81.62
  C 403.14 72.74 396.38 65.59 387.53 64.22
  C 381.92 63.34 371.10 64.00 363.43 64.00
  A 0.93 0.92 0.0 0 0 362.50 64.92
  L 362.56 123.69
  Q 362.56 124.19 362.79 123.75
  Z"
/>
<rect fill="#ed1c24" x="453.50" y="33.00" width="31.00" height="175.00" rx="0.47"/>
<path fill="#ffffff" d="
  M 516.00 112.50
  C 486.14 112.50 486.38 70.39 514.75 70.15
  Q 529.19 70.02 543.62 70.00
  Q 551.05 69.99 554.71 71.30
  C 574.69 78.43 573.11 107.61 552.18 112.03
  Q 549.95 112.50 539.79 112.50
  Q 527.89 112.50 516.00 112.50
  Z
  M 555.9295 90.9269
  A 7.91 7.91 0.0 0 0 548.0057 83.0308
  L 514.4857 83.0893
  A 7.91 7.91 0.0 0 0 506.5895 91.0131
  L 506.5905 91.5931
  A 7.91 7.91 0.0 0 0 514.5143 99.4892
  L 548.0343 99.4307
  A 7.91 7.91 0.0 0 0 555.9305 91.5069
  L 555.9295 90.9269
  Z"
/>
<path fill="#ffffff" d="
  M 515.00 130.56
  C 508.87 132.12 503.24 136.76 508.00 143.52
  C 511.37 148.31 516.83 147.25 521.79 147.25
  A 0.62 0.62 81.1 0 0 522.38 146.44
  C 516.19 126.88 533.33 114.94 551.09 118.02
  C 572.94 121.81 575.42 152.81 553.94 159.13
  C 545.37 161.65 529.98 160.25 519.58 160.25
  Q 510.93 160.25 507.09 158.79
  C 495.56 154.39 489.62 140.58 495.84 129.35
  Q 501.36 119.40 514.58 117.83
  A 0.83 0.82 86.6 0 1 515.50 118.65
  L 515.50 129.91
  A 0.67 0.67 82.8 0 1 515.00 130.56
  Z
  M 556.21 139.02
  A 11.07 8.57 0.0 0 0 545.14 130.45
  A 11.07 8.57 0.0 0 0 534.07 139.02
  A 11.07 8.57 0.0 0 0 545.14 147.59
  A 11.07 8.57 0.0 0 0 556.21 139.02
  Z"
/>
<path fill="#ffffff" d="
  M 556.19 196.70
  L 556.25 168.61
  A 0.86 0.84 -89.7 0 1 557.10 167.75
  L 568.30 167.80
  A 0.71 0.71 0.4 0 1 569.00 168.51
  L 568.94 209.69
  A 0.51 0.50 -0.0 0 1 568.43 210.19
  C 554.43 210.42 541.03 212.70 532.56 198.69
  C 529.00 192.79 523.87 182.61 517.95 181.11
  C 506.17 178.12 500.74 194.60 514.47 197.16
  A 1.26 1.26 -84.8 0 1 515.50 198.40
  L 515.50 209.65
  A 0.66 0.65 2.8 0 1 514.78 210.30
  C 494.09 208.27 484.31 183.93 503.12 171.31
  C 511.12 165.94 523.23 166.53 530.89 172.79
  C 539.49 179.82 542.93 198.72 555.70 197.25
  A 0.56 0.55 -3.5 0 0 556.19 196.70
  Z"
/>
<path fill="#000000" d="
  M 262.46 256.01
  C 242.46 246.16 247.84 215.91 270.32 215.40
  Q 284.44 215.08 299.66 215.54
  A 0.87 0.87 1.0 0 1 300.50 216.41
  L 300.50 228.33
  A 1.17 1.17 -0.3 0 1 299.33 229.50
  L 271.26 229.50
  A 1.73 1.43 23.1 0 0 270.34 229.77
  C 268.16 231.28 266.41 233.06 266.32 235.90
  C 266.09 243.55 272.26 244.45 278.76 244.62
  Q 288.56 244.88 299.18 244.73
  A 1.26 1.24 -0.5 0 1 300.45 245.96
  L 300.50 257.51
  A 0.69 0.68 -0.4 0 1 299.82 258.19
  Q 285.47 258.30 271.00 258.25
  Q 266.97 258.24 262.46 256.01
  Z"
/>
<path fill="#000000" d="
  M 43.82 245.70
  C 44.23 243.38 27.15 244.25 25.08 244.25
  Q 19.46 244.25 16.63 242.91
  C 2.65 236.34 7.80 216.30 23.75 216.27
  Q 36.25 216.25 48.09 216.25
  A 1.49 1.41 88.9 0 1 49.50 217.69
  L 49.80 226.87
  A 1.82 1.73 88.4 0 1 48.11 228.75
  L 24.55 229.30
  A 1.53 1.39 22.7 0 0 23.65 229.62
  C 21.55 231.32 24.13 231.75 25.26 231.75
  C 34.77 231.76 48.85 229.30 55.44 237.81
  C 56.99 239.81 57.04 242.52 57.15 245.46
  Q 57.53 254.94 49.96 258.32
  Q 46.75 259.75 39.83 259.75
  Q 22.34 259.75 4.40 259.75
  A 1.40 1.40 -0.0 0 1 3.00 258.35
  L 3.00 249.20
  A 1.69 1.66 89.8 0 1 4.65 247.51
  L 41.93 247.27
  A 1.94 1.91 4.8 0 0 43.82 245.70
  Z"
/>
<path fill="#000000" d="
  M 363.03 240.71
  C 362.91 240.97 368.30 246.74 368.71 247.33
  A 0.82 0.76 43.0 0 1 368.77 248.19
  L 363.27 257.58
  A 0.90 0.86 -74.4 0 1 362.51 258.03
  L 348.93 258.09
  A 0.77 0.69 79.3 0 1 348.26 257.58
  Q 347.26 254.65 348.25 253.00
  Q 356.57 239.07 364.32 224.80
  A 2.15 1.98 12.9 0 1 366.14 223.76
  L 390.21 223.73
  A 2.77 2.58 -14.4 0 1 392.56 225.01
  Q 400.54 238.51 408.12 251.66
  Q 409.40 253.87 408.84 257.58
  A 0.68 0.64 -84.9 0 1 408.19 258.16
  L 395.39 257.89
  A 1.87 1.76 74.2 0 1 393.88 256.98
  L 389.07 248.90
  A 2.03 1.96 -38.4 0 1 389.39 246.50
  L 393.94 241.83
  Q 395.48 240.25 393.27 240.25
  L 385.72 240.25
  Q 383.94 240.25 382.88 238.47
  L 379.45 232.68
  A 1.09 1.01 -46.1 0 0 377.64 232.78
  L 373.83 239.26
  A 2.19 2.00 13.6 0 1 372.01 240.26
  L 363.81 240.30
  A 0.92 0.68 9.0 0 0 363.03 240.71
  Z"
/>
<path fill="#000000" d="
  M 469.08 257.10
  C 454.34 251.33 453.86 231.41 468.48 225.25
  Q 471.44 224.01 476.72 224.02
  Q 488.31 224.03 500.26 223.74
  A 1.44 1.43 -0.8 0 1 501.74 225.17
  L 501.70 234.54
  A 1.23 1.21 0.2 0 1 500.46 235.75
  Q 490.81 235.72 482.11 236.13
  Q 477.98 236.32 477.40 236.46
  C 473.77 237.30 472.14 241.62 474.90 244.44
  C 477.05 246.63 482.17 245.78 485.18 245.70
  A 0.88 0.77 9.6 0 0 485.92 245.24
  Q 486.68 243.56 486.06 241.68
  Q 485.28 239.32 487.75 239.31
  L 500.90 239.25
  A 0.85 0.84 89.7 0 1 501.75 240.10
  L 501.75 256.77
  A 1.24 1.24 -1.0 0 1 500.55 258.01
  Q 486.91 258.45 473.06 258.19
  Q 471.80 258.16 469.08 257.10
  Z"
/>
<path fill="#000000" d="
  M 504.51 257.74
  A 0.63 0.62 -85.1 0 1 504.00 257.12
  L 504.00 225.21
  A 1.14 1.13 86.3 0 1 504.98 224.08
  Q 507.46 223.74 510.75 223.75
  Q 528.78 223.83 546.81 224.18
  A 0.55 0.52 0.0 0 1 547.35 224.69
  L 547.48 234.60
  A 1.75 1.64 -0.5 0 1 545.74 236.26
  L 520.31 236.31
  A 1.01 0.85 14.2 0 0 519.51 236.70
  C 518.62 238.02 519.70 238.98 521.05 239.03
  Q 532.68 239.41 544.32 239.26
  C 545.80 239.24 547.53 238.74 547.73 240.80
  Q 547.92 242.75 545.97 242.75
  L 520.58 242.68
  A 1.32 1.31 2.1 0 0 519.26 243.89
  C 519.08 246.28 520.47 245.75 522.06 245.75
  Q 533.80 245.75 546.24 245.75
  A 1.26 1.26 0.0 0 1 547.50 247.01
  L 547.50 256.77
  A 1.24 1.23 -0.2 0 1 546.27 258.00
  Q 526.91 258.17 507.06 258.01
  Q 506.00 258.00 504.51 257.74
  Z"
/>
<path fill="#000000" d="
  M 319.06 233.74
  Q 324.90 234.37 330.75 233.80
  A 0.63 0.63 -89.4 0 0 331.31 233.25
  Q 331.86 228.64 331.50 226.75
  C 330.87 223.42 332.91 224.02 335.01 223.98
  Q 340.66 223.88 346.31 224.16
  A 0.54 0.53 1.7 0 1 346.82 224.69
  L 346.99 257.49
  A 0.77 0.76 -0.0 0 1 346.22 258.25
  L 333.79 258.25
  Q 331.50 258.25 331.50 255.96
  L 331.50 247.02
  A 0.52 0.52 90.0 0 0 330.98 246.50
  L 319.12 246.50
  A 0.87 0.87 0.0 0 0 318.25 247.37
  L 318.25 257.03
  A 1.19 1.15 -89.8 0 1 317.09 258.22
  L 303.44 258.09
  A 0.52 0.52 0.6 0 1 302.93 257.57
  L 302.56 225.05
  A 1.05 1.04 -0.3 0 1 303.61 224.00
  C 307.80 224.00 311.94 224.17 315.88 223.93
  C 319.65 223.70 318.00 230.14 318.48 233.20
  A 0.65 0.65 -1.7 0 0 319.06 233.74
  Z"
/>
<path fill="#000000" d="
  M 449.46 278.34
  A 2.34 2.18 69.8 0 1 447.72 277.46
  Q 436.79 263.59 428.11 252.65
  Q 426.88 251.09 425.61 252.14
  A 1.54 0.68 -88.9 0 0 425.21 253.00
  L 424.34 257.46
  A 0.67 0.64 4.8 0 1 423.70 257.98
  L 410.90 258.20
  A 0.94 0.89 89.7 0 1 410.00 257.26
  L 410.00 224.88
  A 0.88 0.88 0.0 0 1 410.88 224.00
  Q 427.25 224.00 443.00 224.00
  C 457.91 224.00 461.82 244.37 448.21 250.50
  A 1.10 1.09 58.9 0 0 447.80 252.18
  L 467.59 277.13
  Q 468.68 278.50 466.95 278.49
  L 449.46 278.34
  Z
  M 443.14 237.70
  A 1.44 1.44 0.0 0 0 441.70 236.26
  L 426.66 236.26
  A 1.44 1.44 0.0 0 0 425.22 237.70
  L 425.22 237.78
  A 1.44 1.44 0.0 0 0 426.66 239.22
  L 441.70 239.22
  A 1.44 1.44 0.0 0 0 443.14 237.78
  L 443.14 237.70
  Z"
/>
<path fill="#000000" d="
  M 571.97 251.90
  Q 568.36 250.75 566.09 251.53
  Q 564.24 252.17 564.39 254.13
  C 564.74 258.61 563.76 258.02 559.88 257.97
  Q 555.24 257.92 550.72 258.18
  A 0.92 0.91 88.2 0 1 549.75 257.26
  L 549.75 224.67
  A 0.67 0.67 -89.8 0 1 550.42 224.00
  Q 565.21 224.00 579.94 224.00
  Q 584.97 224.00 587.85 225.28
  C 597.46 229.56 598.09 240.72 591.21 248.03
  A 1.53 1.50 48.6 0 0 591.11 249.97
  L 595.81 256.32
  Q 596.94 257.86 595.01 258.00
  Q 587.63 258.55 578.73 257.89
  Q 577.05 257.76 575.95 256.39
  L 572.76 252.45
  A 1.78 1.73 79.0 0 0 571.97 251.90
  Z
  M 582.33 237.72
  A 1.45 1.45 0.0 0 0 580.88 236.27
  L 565.98 236.27
  A 1.45 1.45 0.0 0 0 564.53 237.72
  L 564.53 237.78
  A 1.45 1.45 0.0 0 0 565.98 239.23
  L 580.88 239.23
  A 1.45 1.45 0.0 0 0 582.33 237.78
  L 582.33 237.72
  Z"
/>
<path fill="#000000" d="
  M 57.97 243.67
  C 58.36 237.90 58.05 232.10 58.06 226.44
  A 1.13 1.09 90.0 0 1 59.15 225.31
  L 72.16 225.23
  A 1.85 1.75 87.9 0 1 73.92 226.96
  Q 74.36 234.48 74.29 241.74
  C 74.23 247.47 78.10 247.65 82.56 247.22
  Q 87.65 246.73 87.37 241.20
  C 87.12 236.32 87.25 231.43 87.25 226.69
  Q 87.25 224.75 89.19 224.75
  L 101.90 224.75
  A 1.12 1.12 -2.2 0 1 103.02 225.78
  C 103.61 232.74 104.86 244.63 101.94 250.71
  Q 99.59 255.62 94.65 258.04
  Q 91.58 259.54 85.70 259.72
  C 73.79 260.10 65.27 261.01 59.50 250.00
  Q 57.76 246.68 57.97 243.67
  Z"
/>
<path fill="#000000" d="
  M 119.68 259.42
  C 116.61 259.59 111.82 260.17 109.46 259.67
  Q 108.85 259.53 108.51 259.57
  C 104.72 260.02 105.25 257.52 105.25 254.91
  Q 105.25 240.93 105.25 226.15
  A 1.40 1.40 0.0 0 1 106.65 224.75
  Q 118.78 224.75 130.85 224.75
  Q 141.07 224.75 144.95 226.32
  C 153.02 229.58 156.14 240.80 150.00 247.78
  C 143.66 254.97 131.28 252.75 122.28 252.75
  A 0.80 0.80 86.8 0 0 121.49 253.64
  Q 121.79 256.42 121.16 258.29
  A 1.67 1.67 7.6 0 1 119.68 259.42
  Z
  M 139.41 238.69
  A 1.43 1.43 0.0 0 0 137.98 237.26
  L 122.64 237.26
  A 1.43 1.43 0.0 0 0 121.21 238.69
  L 121.21 238.81
  A 1.43 1.43 0.0 0 0 122.64 240.24
  L 137.98 240.24
  A 1.43 1.43 0.0 0 0 139.41 238.81
  L 139.41 238.69
  Z"
/>
<path fill="#000000" d="
  M 172.38 247.21
  Q 185.27 247.42 197.80 247.07
  A 0.93 0.93 -0.6 0 1 198.75 248.00
  L 198.75 257.76
  A 1.24 1.24 0.0 0 1 197.51 259.00
  L 155.28 259.00
  A 1.01 1.00 -0.3 0 1 154.27 258.01
  L 154.00 225.65
  A 0.91 0.89 -0.3 0 1 154.91 224.75
  L 197.26 224.75
  A 1.24 1.24 0.0 0 1 198.50 225.99
  L 198.50 236.12
  A 1.07 1.07 -0.3 0 1 197.44 237.19
  C 188.92 237.26 180.12 237.58 171.52 237.21
  Q 168.65 237.09 170.07 239.76
  A 0.85 0.81 -13.4 0 0 170.81 240.19
  Q 183.66 240.29 196.50 240.23
  Q 200.17 240.21 198.23 243.03
  A 0.98 0.96 16.1 0 1 197.44 243.46
  L 171.07 243.82
  A 1.20 0.94 14.7 0 0 170.23 244.18
  C 168.59 246.18 170.62 247.18 172.38 247.21
  Z"
/>
<path fill="#000000" d="
  M 243.97 227.80
  C 251.26 233.66 250.50 243.20 244.18 249.46
  A 0.71 0.67 -35.8 0 0 244.03 250.26
  C 245.38 252.97 249.08 256.24 249.00 258.21
  A 0.56 0.55 0.5 0 1 248.45 258.74
  L 231.94 259.00
  A 3.49 2.98 64.4 0 1 229.57 257.95
  L 224.62 252.84
  A 1.33 1.16 -19.1 0 0 223.75 252.49
  C 221.92 252.48 220.81 252.74 218.79 252.45
  C 213.55 251.69 219.43 259.48 214.31 259.11
  C 210.31 258.83 206.23 259.02 202.29 258.94
  A 1.25 1.25 89.3 0 1 201.06 257.74
  Q 200.38 240.80 201.04 225.30
  A 0.52 0.51 1.1 0 1 201.56 224.81
  Q 219.66 224.70 237.75 224.75
  Q 240.18 224.76 243.97 227.80
  Z
  M 235.1679 238.4451
  A 1.41 1.41 0.0 0 0 233.7335 237.0599
  L 217.6559 237.3405
  A 1.41 1.41 0.0 0 0 216.2707 238.7749
  L 216.2721 238.8549
  A 1.41 1.41 0.0 0 0 217.7065 240.2401
  L 233.7841 239.9595
  A 1.41 1.41 0.0 0 0 235.1693 238.5251
  L 235.1679 238.4451
  Z"
/>
<path fill="#000000" d="
  M 524.44 272.98
  Q 520.19 272.30 515.89 272.07
  C 510.00 271.76 509.87 263.65 515.89 263.43
  Q 519.68 263.29 523.48 263.45
  C 526.38 263.58 528.98 262.98 529.18 266.94
  A 0.91 0.87 72.9 0 1 528.79 267.72
  Q 526.64 269.10 524.89 267.30
  A 1.38 0.71 56.2 0 0 524.08 266.85
  L 517.24 266.69
  A 0.99 0.98 -72.2 0 0 516.41 267.12
  Q 515.82 267.99 517.47 268.70
  Q 518.72 269.24 520.09 269.11
  Q 525.16 268.62 528.08 270.02
  A 2.40 2.39 -80.2 0 1 529.42 271.93
  Q 530.11 278.70 524.75 278.58
  C 521.64 278.50 510.85 279.99 511.71 274.30
  A 0.77 0.76 -2.4 0 1 512.29 273.68
  Q 514.92 273.06 516.94 274.84
  A 1.54 1.26 62.5 0 0 517.81 275.21
  C 519.35 275.26 525.76 276.19 525.09 273.54
  A 0.83 0.74 -1.0 0 0 524.44 272.98
  Z"
/>
<path fill="#000000" d="
  M 476.47 267.55
  A 1.81 1.81 84.6 0 0 478.41 269.16
  Q 484.74 268.67 487.76 269.67
  Q 489.75 270.33 489.93 272.42
  C 490.51 279.18 487.25 278.43 481.79 278.69
  C 478.41 278.86 472.06 279.45 471.82 274.82
  A 0.79 0.76 76.1 0 1 472.25 274.07
  Q 474.12 273.15 476.38 274.47
  Q 477.39 275.06 478.57 275.14
  C 480.54 275.27 484.00 275.73 485.18 274.58
  C 487.58 272.23 475.51 272.18 474.75 272.07
  Q 472.64 271.77 472.23 269.67
  C 471.46 265.73 471.97 263.59 476.47 263.53
  Q 481.57 263.46 487.04 263.50
  Q 488.83 263.52 489.23 265.26
  Q 490.24 269.59 484.25 267.13
  Q 483.31 266.75 482.30 266.75
  C 481.36 266.75 476.33 266.34 476.47 267.55
  Z"
/>
<path fill="#000000" d="
  M 501.81 267.95
  L 505.15 264.11
  A 1.31 0.85 -61.8 0 1 505.99 263.65
  L 510.23 263.62
  Q 511.20 263.62 510.50 264.43
  L 503.97 272.09
  A 3.29 2.85 72.8 0 0 503.26 273.71
  C 502.95 275.86 502.69 280.23 499.00 278.20
  A 0.96 0.82 -80.0 0 1 498.55 277.44
  L 498.30 273.74
  A 1.56 1.46 24.7 0 0 497.94 272.86
  L 490.80 264.43
  Q 490.07 263.56 491.16 263.56
  L 495.18 263.53
  A 1.19 1.13 -19.9 0 1 496.05 263.91
  L 499.53 267.94
  A 1.51 1.51 45.1 0 0 501.81 267.95
  Z"
/>
<path fill="#000000" d="
  M 536.37 266.82
  L 532.44 266.61
  A 0.77 0.73 -7.6 0 1 531.75 266.11
  Q 531.43 265.15 531.76 264.15
  A 0.73 0.71 8.8 0 1 532.45 263.66
  L 549.25 263.72
  A 0.69 0.67 82.0 0 1 549.90 264.23
  Q 550.74 267.27 547.25 266.74
  C 537.41 265.21 547.75 281.21 538.90 277.99
  A 0.77 0.72 10.2 0 1 538.40 277.32
  L 538.27 268.76
  Q 538.25 266.92 536.37 266.82
  Z"
/>
<path fill="#000000" d="
  M 552.80 278.33
  A 1.32 1.28 -89.8 0 1 551.53 277.01
  L 551.50 264.11
  A 0.55 0.55 89.9 0 1 552.05 263.56
  L 567.44 263.55
  A 0.89 0.81 -12.5 0 1 568.21 263.99
  Q 568.90 265.27 567.81 266.36
  A 1.31 1.02 17.2 0 1 566.94 266.69
  L 556.81 266.81
  A 0.73 0.66 8.2 0 0 556.13 267.27
  Q 555.52 269.18 558.00 269.00
  C 558.17 268.99 571.19 268.05 567.13 271.69
  A 1.61 1.20 15.3 0 1 566.24 272.04
  C 565.23 272.13 553.61 271.32 556.40 274.40
  A 1.30 0.89 -13.5 0 0 557.26 274.73
  L 566.76 274.96
  A 1.13 1.13 70.4 0 1 567.60 275.36
  Q 568.83 276.79 567.33 278.12
  A 1.33 1.29 24.0 0 1 566.43 278.45
  L 552.80 278.33
  Z"
/>
<path fill="#000000" d="
  M 580.18 274.11
  C 571.73 256.65 579.02 279.16 572.80 278.49
  A 1.71 1.59 4.0 0 1 571.27 276.85
  L 571.64 264.18
  A 0.55 0.55 -89.9 0 1 572.18 263.64
  L 578.99 263.53
  A 1.25 1.11 75.9 0 1 580.06 264.26
  L 583.34 271.47
  Q 584.12 273.19 584.93 271.45
  L 588.09 264.65
  A 1.89 1.74 -76.4 0 1 589.73 263.55
  L 595.81 263.63
  A 0.57 0.54 90.0 0 1 596.34 264.19
  L 596.49 276.55
  A 1.70 1.64 -5.9 0 1 595.12 278.18
  C 589.57 279.27 594.38 267.35 591.90 267.54
  A 1.10 0.65 -70.3 0 0 591.20 268.12
  C 589.06 272.02 585.25 284.56 580.18 274.11
  Z"
/>
</svg>
