<?xml version="1.0" encoding="UTF-8" standalone="no"?>
<!DOCTYPE svg PUBLIC "-//W3C//DTD SVG 1.1//EN" "http://www.w3.org/Graphics/SVG/1.1/DTD/svg11.dtd">
<svg xmlns="http://www.w3.org/2000/svg" version="1.1" viewBox="0 0 600 176">
<path fill="#919191" d="
  M 431.06 0.00
  L 461.56 0.00
  Q 462.00 5.66 462.00 14.50
  Q 462.01 46.21 461.82 60.95
  A 0.50 0.48 1.2 0 0 462.31 61.44
  L 474.81 61.67
  A 0.51 0.51 0.6 0 1 475.31 62.18
  C 475.17 74.34 475.90 80.66 475.23 89.45
  A 0.53 0.52 2.3 0 1 474.70 89.93
  L 462.44 90.17
  A 0.53 0.51 -0.6 0 0 461.92 90.68
  L 461.77 107.80
  A 0.95 0.91 -89.7 0 1 460.86 108.74
  L 429.69 108.57
  A 0.52 0.51 -0.0 0 1 429.17 108.06
  L 429.01 90.52
  A 0.53 0.51 89.4 0 0 428.50 90.00
  L 375.50 90.00
  A 0.69 0.68 0.0 0 1 374.81 89.32
  L 374.75 63.00
  A 1.31 1.30 66.1 0 1 375.08 62.13
  L 431.06 0.00
  Z
  M 433.73 7.18
  C 416.38 26.30 399.15 45.46 381.84 64.82
  A 1.39 1.36 -24.9 0 0 381.50 65.72
  L 381.50 82.75
  A 0.50 0.50 0.0 0 0 382.00 83.25
  L 435.21 83.25
  A 0.78 0.77 0.4 0 1 435.99 84.03
  L 435.93 101.33
  A 0.61 0.61 -0.5 0 0 436.55 101.94
  L 454.38 101.76
  A 0.63 0.61 -0.5 0 0 455.00 101.15
  L 455.00 84.02
  A 0.77 0.77 89.5 0 1 455.77 83.25
  L 468.00 83.25
  A 0.50 0.50 0.0 0 0 468.50 82.75
  L 468.50 68.99
  A 0.59 0.57 -0.0 0 0 467.91 68.42
  L 455.70 68.45
  A 0.72 0.70 90.0 0 1 455.00 67.73
  L 455.00 7.65
  A 0.89 0.88 89.7 0 0 454.11 6.76
  L 434.56 6.81
  A 1.15 1.11 -68.0 0 0 433.73 7.18
  Z"
/>
<path fill="#919191" d="
  M 473.38 108.04
  C 487.54 72.71 501.97 37.58 515.88 2.29
  A 0.74 0.74 -79.7 0 1 516.57 1.81
  L 556.44 1.75
  A 0.76 0.75 79.1 0 1 557.14 2.23
  L 599.67 107.81
  A 0.68 0.68 78.9 0 1 599.04 108.75
  L 558.51 108.75
  A 0.93 0.90 -8.5 0 1 557.63 108.12
  L 552.50 92.52
  A 0.47 0.47 81.7 0 0 552.05 92.18
  L 520.31 92.31
  A 0.69 0.68 8.6 0 0 519.65 92.79
  L 514.75 108.01
  A 1.07 1.04 -80.8 0 1 513.75 108.75
  L 473.87 108.75
  A 0.52 0.52 10.7 0 1 473.38 108.04
  Z
  M 514.50 85.79
  A 0.78 0.73 -79.5 0 1 515.23 85.25
  Q 536.12 85.83 556.85 85.25
  A 0.65 0.65 80.3 0 1 557.48 85.70
  L 562.65 101.47
  A 0.72 0.66 -8.3 0 0 563.32 101.92
  L 589.21 101.94
  A 0.49 0.49 -10.9 0 0 589.67 101.27
  L 552.60 9.26
  A 1.21 1.20 -10.7 0 0 551.48 8.50
  L 521.35 8.50
  A 0.72 0.72 10.8 0 0 520.68 8.95
  L 483.49 101.27
  A 0.49 0.47 10.6 0 0 483.95 101.92
  L 508.69 101.92
  A 0.74 0.65 8.2 0 0 509.37 101.47
  L 514.50 85.79
  Z"
/>
<path fill="#919191" d="
  M 218.07 61.91
  Q 210.76 68.75 202.56 70.31
  C 178.70 74.87 157.83 57.98 160.80 33.13
  C 163.94 6.85 188.41 0.93 210.75 3.25
  C 244.62 6.77 252.11 38.41 247.95 66.70
  C 243.36 97.95 221.59 109.56 191.72 105.75
  Q 170.19 103.00 162.89 82.44
  A 0.38 0.38 76.5 0 1 163.20 81.93
  L 191.86 78.53
  A 0.58 0.57 -7.7 0 1 192.50 79.01
  C 194.70 93.94 212.43 91.21 215.88 78.53
  Q 218.08 70.44 218.42 62.07
  Q 218.44 61.56 218.07 61.91
  Z
  M 190.13 44.90
  C 195.06 58.71 214.60 55.87 217.20 42.09
  C 219.22 31.41 213.84 19.15 201.16 20.10
  C 188.85 21.03 186.83 35.65 190.13 44.90
  Z"
/>
<path fill="#919191" d="
  M 311.09 62.58
  Q 311.23 61.14 310.15 62.10
  C 283.47 85.86 243.64 60.20 254.90 25.99
  C 260.69 8.39 277.91 2.22 295.44 2.64
  C 310.99 3.00 324.66 6.87 333.35 20.53
  C 340.40 31.62 342.13 47.23 341.09 60.60
  C 339.44 81.78 331.82 98.89 309.19 104.69
  Q 302.23 106.47 294.05 106.29
  C 276.36 105.92 262.04 101.17 255.47 82.87
  A 0.78 0.77 -13.4 0 1 256.11 81.84
  L 284.08 78.56
  A 0.84 0.83 -7.5 0 1 285.00 79.26
  C 287.23 94.40 305.32 90.85 308.48 77.75
  Q 310.41 69.75 311.09 62.58
  Z
  M 309.50 42.00
  C 315.28 13.16 274.14 12.12 282.03 43.60
  C 285.72 58.36 306.52 56.89 309.50 42.00
  Z"
/>
<path fill="#919191" d="
  M 371.27 18.62
  Q 374.48 11.03 377.86 3.52
  A 0.83 0.69 9.1 0 1 378.57 3.10
  L 390.55 2.93
  A 0.96 0.92 11.0 0 1 391.46 4.22
  L 346.55 106.46
  A 0.91 0.91 -78.0 0 1 345.72 107.00
  L 334.54 107.00
  A 0.45 0.45 -78.6 0 1 334.13 106.38
  Q 352.89 62.06 371.27 18.62
  Z"
/>
<path fill="#919191" d="
  M 0.21 27.25
  L 0.21 15.50
  L 0.25 4.13
  A 0.88 0.87 -90.0 0 1 1.12 3.25
  L 85.33 3.25
  A 0.67 0.67 5.8 0 1 86.00 3.92
  L 85.94 28.18
  A 0.51 0.50 -90.0 0 1 85.44 28.69
  L 57.42 28.75
  A 0.67 0.66 0.0 0 0 56.75 29.41
  L 56.75 102.86
  A 1.41 1.41 1.4 0 1 55.27 104.27
  Q 42.25 103.68 29.17 104.28
  A 0.88 0.88 -1.2 0 1 28.25 103.40
  L 28.25 29.67
  A 0.91 0.89 89.7 0 0 27.35 28.76
  L 1.06 28.93
  A 0.82 0.67 -8.6 0 1 0.33 28.50
  Q 0.11 27.93 0.21 27.25
  Z"
/>
<rect fill="#919191" x="-14.24" y="-50.50" transform="translate(108.01,53.75) rotate(0.1)" width="28.48" height="101.00" rx="0.57"/>
<path fill="#919191" d="
  M 519.93 70.11
  L 535.85 20.92
  A 0.32 0.32 -59.1 0 1 536.46 20.91
  L 552.55 70.05
  A 0.32 0.32 -9.1 0 1 552.25 70.47
  L 520.23 70.53
  A 0.32 0.32 8.1 0 1 519.93 70.11
  Z
  M 529.26 63.35
  A 0.32 0.32 9.1 0 0 529.56 63.77
  L 542.85 63.72
  A 0.32 0.32 80.7 0 0 543.15 63.30
  L 536.44 43.03
  A 0.32 0.32 -45.4 0 0 535.83 43.03
  L 529.26 63.35
  Z"
/>
<path fill="#919191" d="
  M 433.02 27.53
  Q 433.96 26.49 435.39 25.29
  Q 436.00 24.78 436.00 25.58
  L 436.00 67.51
  A 0.99 0.99 -0.5 0 1 435.01 68.50
  L 396.98 68.50
  Q 395.94 68.50 396.64 67.73
  Q 414.82 47.70 433.02 27.53
  Z
  M 427.94 43.61
  L 411.96 60.93
  Q 411.43 61.50 412.21 61.50
  L 428.43 61.50
  A 0.59 0.58 -89.5 0 0 429.01 60.92
  L 429.15 44.11
  Q 429.17 42.28 427.94 43.61
  Z"
/>
<rect fill="#919191" x="-12.75" y="-10.00" transform="translate(143.50,50.25) rotate(-0.1)" width="25.50" height="20.00" rx="0.59"/>
<path fill="#919191" d="
  M 279.45 130.45
  L 279.55 123.56
  A 0.89 0.78 79.5 0 1 280.00 122.80
  L 285.97 119.98
  A 0.36 0.34 77.7 0 1 286.45 120.31
  L 286.50 130.39
  A 0.58 0.53 89.5 0 0 287.04 130.97
  L 292.69 130.86
  A 0.89 0.62 -9.2 0 1 293.45 131.23
  Q 294.00 132.40 293.46 134.75
  A 0.75 0.69 5.3 0 1 292.75 135.29
  L 287.19 135.38
  A 0.58 0.53 -89.4 0 0 286.67 135.94
  Q 286.25 145.31 286.65 154.67
  C 286.83 158.84 289.06 159.42 292.70 158.59
  A 1.12 1.05 -11.5 0 1 294.04 159.41
  L 294.66 162.94
  A 0.55 0.50 -10.5 0 1 294.21 163.53
  C 289.85 164.35 282.03 164.65 280.00 159.50
  Q 279.17 157.38 279.30 152.00
  Q 279.50 144.00 279.50 136.36
  A 1.16 1.16 -6.1 0 0 278.10 135.23
  Q 272.78 136.38 274.39 131.53
  A 0.74 0.67 7.7 0 1 275.06 131.07
  L 278.94 130.97
  A 0.53 0.52 -90.0 0 0 279.45 130.45
  Z"
/>
<path fill="#919191" d="
  M 61.31 151.77
  C 62.77 151.66 68.51 151.43 67.46 154.03
  C 62.50 166.30 44.96 166.93 36.06 159.69
  C 31.42 155.91 30.54 148.77 31.48 143.14
  C 32.89 134.76 40.84 130.57 48.82 130.30
  C 56.96 130.02 63.30 131.82 67.09 139.62
  A 0.64 0.58 73.1 0 1 66.66 140.52
  L 60.82 141.19
  A 0.77 0.62 73.0 0 1 60.12 140.72
  C 57.10 133.60 47.67 133.28 42.44 137.19
  C 38.68 139.99 38.09 145.32 38.63 149.86
  C 40.02 161.59 57.62 163.83 60.69 152.30
  A 0.71 0.68 -84.0 0 1 61.31 151.77
  Z"
/>
<path fill="#919191" d="
  M 71.50 145.00
  C 73.03 125.55 108.17 125.37 110.81 143.80
  C 111.94 151.72 109.28 159.09 101.29 162.27
  C 87.81 167.63 70.11 162.74 71.50 145.00
  Z
  M 103.4821 146.0715
  A 11.22 11.22 0.0 0 0 92.2817 134.8320
  L 90.0617 134.8281
  A 11.22 11.22 0.0 0 0 78.8221 146.0285
  L 78.8179 148.4485
  A 11.22 11.22 0.0 0 0 90.0183 159.6880
  L 92.2383 159.6919
  A 11.22 11.22 0.0 0 0 103.4779 148.4915
  L 103.4821 146.0715
  Z"
/>
<path fill="#919191" d="
  M 126.19 134.86
  C 132.59 129.49 144.90 127.55 150.40 135.46
  A 0.45 0.45 51.8 0 0 151.07 135.54
  Q 158.97 128.30 168.62 130.85
  C 173.81 132.22 176.78 135.31 176.81 140.75
  Q 176.89 151.78 176.58 162.81
  A 0.58 0.52 -88.9 0 1 176.06 163.37
  L 170.45 163.44
  A 0.77 0.72 -89.2 0 1 169.72 162.64
  Q 170.04 151.34 169.39 141.01
  C 169.19 137.91 167.56 135.57 164.50 135.25
  Q 150.42 133.78 151.75 148.00
  Q 152.07 151.38 151.58 162.81
  A 0.59 0.52 -88.9 0 1 151.06 163.38
  L 145.18 163.37
  A 0.58 0.51 88.8 0 1 144.67 162.81
  Q 144.21 148.52 144.50 143.25
  Q 144.98 134.35 135.75 135.25
  C 128.34 135.97 126.82 139.92 126.61 146.96
  Q 126.38 154.82 126.51 162.98
  A 0.51 0.51 89.4 0 1 126.00 163.50
  L 120.07 163.50
  A 0.56 0.55 0.5 0 1 119.51 162.94
  L 119.68 131.44
  A 0.52 0.49 -88.9 0 1 120.19 130.92
  L 125.06 131.13
  A 0.61 0.59 0.0 0 1 125.63 131.69
  L 125.82 134.69
  Q 125.84 135.16 126.19 134.86
  Z"
/>
<path fill="#919191" d="
  M 194.19 176.00
  L 187.69 176.00
  L 187.51 131.57
  A 0.76 0.72 1.1 0 1 188.30 130.85
  L 193.18 131.06
  A 0.75 0.64 -5.7 0 1 193.85 131.53
  Q 194.21 132.72 193.83 133.77
  Q 193.23 135.44 194.65 134.37
  Q 202.63 128.37 212.02 130.92
  C 228.28 135.32 228.04 157.91 212.38 163.16
  C 205.86 165.34 200.48 164.42 194.96 160.55
  Q 194.45 160.20 194.44 160.83
  L 194.19 176.00
  Z
  M 204.1115 159.8847
  A 12.75 11.64 95.8 0 0 216.9804 148.3763
  A 12.75 11.64 95.8 0 0 206.6885 134.5153
  A 12.75 11.64 95.8 0 0 193.8196 146.0237
  A 12.75 11.64 95.8 0 0 204.1115 159.8847
  Z"
/>
<path fill="#919191" d="
  M 305.75 149.23
  C 307.72 161.55 323.25 163.31 329.97 153.42
  A 0.90 0.75 16.7 0 1 330.74 153.09
  L 335.73 153.50
  A 1.17 1.11 16.0 0 1 336.70 155.14
  C 328.50 170.10 297.69 166.83 298.46 147.12
  C 298.97 133.94 310.42 129.04 321.98 130.62
  Q 337.11 132.69 337.50 147.82
  A 0.67 0.67 89.6 0 1 336.83 148.50
  L 306.20 148.69
  A 0.46 0.46 85.2 0 0 305.75 149.23
  Z
  M 306.89 141.29
  Q 305.04 144.10 308.37 144.12
  L 328.41 144.23
  A 1.32 1.30 82.5 0 0 329.67 142.57
  C 327.74 135.45 320.02 133.47 313.71 135.37
  Q 310.04 136.48 306.89 141.29
  Z"
/>
<path fill="#919191" d="
  M 353.30 135.10
  Q 359.29 127.28 368.48 131.83
  A 0.58 0.52 25.4 0 1 368.78 132.53
  L 367.19 136.11
  A 1.39 1.19 19.3 0 1 365.61 136.73
  Q 359.23 134.94 356.09 138.13
  C 351.91 142.37 353.02 157.02 353.44 162.62
  A 0.77 0.72 88.1 0 1 352.72 163.45
  L 346.94 163.37
  A 0.57 0.52 -89.5 0 1 346.43 162.80
  L 346.26 131.87
  A 0.88 0.86 -0.3 0 1 347.14 131.00
  L 351.68 131.00
  A 1.03 1.03 7.0 0 1 352.68 132.28
  Q 352.23 134.06 352.74 135.09
  A 0.35 0.31 -40.6 0 0 353.30 135.10
  Z"
/>
<path fill="#919191" d="
  M 260.05 159.39
  Q 249.75 167.94 237.69 162.06
  Q 232.89 159.72 232.74 153.75
  Q 232.48 143.25 232.78 131.75
  A 0.76 0.76 -89.6 0 1 233.54 131.00
  L 238.99 131.00
  A 0.76 0.76 0.0 0 1 239.75 131.76
  Q 239.75 142.25 239.73 151.75
  C 239.71 161.70 254.15 161.43 258.37 155.07
  C 260.93 151.21 259.83 136.77 259.74 131.57
  A 0.56 0.56 89.5 0 1 260.30 131.00
  L 266.12 131.00
  A 0.88 0.88 0.0 0 1 267.00 131.88
  L 267.00 162.61
  A 0.83 0.77 -89.7 0 1 266.22 163.44
  L 261.18 163.38
  A 0.59 0.56 88.9 0 1 260.63 162.82
  L 260.43 159.56
  Q 260.41 159.09 260.05 159.39
  Z"
/>
</svg>
