<?xml version="1.0" encoding="UTF-8" standalone="no"?>
<!DOCTYPE svg PUBLIC "-//W3C//DTD SVG 1.1//EN" "http://www.w3.org/Graphics/SVG/1.1/DTD/svg11.dtd">
<svg xmlns="http://www.w3.org/2000/svg" version="1.1" viewBox="0 0 600 300">
<g stroke-width="2.00" fill="none" stroke-linecap="butt">
<path stroke="#721217" vector-effect="non-scaling-stroke" d="
  M 438.79 172.75
  L 438.56 175.96
  A 0.63 0.51 1.4 0 1 437.94 176.44
  L 403.94 176.50
  A 0.72 0.69 89.6 0 1 403.25 175.79
  L 403.21 173.00"
/>
<path stroke="#721217" vector-effect="non-scaling-stroke" d="
  M 379.54 173.00
  L 379.33 175.70
  A 0.66 0.52 1.3 0 1 378.68 176.19
  C 374.00 176.22 345.76 177.34 343.59 175.81
  Q 342.40 174.97 343.27 172.79"
/>
<path stroke="#721217" vector-effect="non-scaling-stroke" d="
  M 320.54 172.75
  Q 320.84 174.43 320.36 175.97
  A 0.72 0.66 8.4 0 1 319.69 176.43
  L 286.16 176.26
  A 0.79 0.73 -89.2 0 1 285.44 175.46
  L 285.46 172.75"
/>
<path stroke="#721217" vector-effect="non-scaling-stroke" d="
  M 63.79 172.75
  Q 64.11 174.20 63.64 175.47
  A 0.77 0.69 9.3 0 1 62.94 175.92
  L 29.74 175.99
  A 1.15 0.66 -9.4 0 1 28.89 175.67
  Q 28.56 175.22 28.71 174.50"
/>
<path stroke="#721217" vector-effect="non-scaling-stroke" d="
  M 274.54 173.00
  L 274.50 176.98
  A 0.51 0.49 -90.0 0 1 274.02 177.48
  Q 253.31 178.15 234.00 172.72"
/>
<path stroke="#721217" vector-effect="non-scaling-stroke" d="
  M 183.54 173.00
  L 183.32 175.95
  A 0.63 0.52 1.4 0 1 182.70 176.44
  Q 166.14 176.64 138.50 176.25
  Q 128.17 176.10 119.51 172.74"
/>
<path stroke="#721217" vector-effect="non-scaling-stroke" d="
  M 557.48 172.63
  Q 522.87 184.75 488.28 172.59"
/>
<path stroke="#808080" vector-effect="non-scaling-stroke" d="
  M 90.71 211.67
  L 77.30 211.56
  A 0.51 0.49 -89.4 0 0 76.81 212.06
  L 76.75 218.77
  Q 76.72 221.64 73.67 222.32
  C 70.14 223.12 61.50 223.93 61.50 218.00
  Q 61.50 205.75 61.50 193.26
  Q 61.50 191.17 63.40 190.29
  C 66.32 188.95 71.97 188.66 74.95 190.24
  C 77.46 191.57 76.63 194.93 76.79 197.32
  A 0.71 0.71 88.7 0 0 77.49 197.99
  L 90.92 198.19
  A 0.59 0.58 85.8 0 0 91.50 197.51
  C 91.14 195.15 91.52 192.65 90.72 190.58
  C 87.31 181.78 72.40 181.44 64.67 182.05
  C 58.52 182.54 46.25 184.27 46.25 193.00
  Q 46.25 202.94 46.25 212.88
  C 46.25 219.54 45.83 224.21 51.81 226.94
  Q 59.05 230.24 67.47 230.11
  C 79.62 229.94 93.83 228.74 91.12 212.02
  A 0.43 0.42 -4.1 0 0 90.71 211.67"
/>
<path stroke="#808080" vector-effect="non-scaling-stroke" d="
  M 135.81 221.44
  L 135.76 182.92
  A 0.89 0.85 89.7 0 0 134.90 182.03
  L 120.94 182.16
  A 0.54 0.52 -90.0 0 0 120.43 182.69
  L 120.25 228.39
  A 0.80 0.80 90.0 0 0 121.05 229.19
  L 159.75 229.00
  A 0.58 0.50 0.5 0 0 160.33 228.51
  L 160.38 222.68
  A 0.57 0.49 0.5 0 0 159.81 222.18
  L 136.31 221.94
  A 0.51 0.50 0.6 0 1 135.81 221.44"
/>
<path stroke="#808080" vector-effect="non-scaling-stroke" d="
  M 216.00 220.43
  Q 217.74 223.51 218.31 227.44
  Q 218.58 229.25 220.38 229.24
  L 234.02 229.19
  A 0.34 0.33 80.9 0 0 234.33 228.75
  L 219.22 182.66
  A 0.71 0.67 80.5 0 0 218.57 182.17
  L 197.19 182.17
  A 0.74 0.68 -79.9 0 0 196.53 182.67
  L 181.47 228.46
  A 0.38 0.36 -80.7 0 0 181.81 228.96
  L 194.76 229.02
  A 0.73 0.69 -79.9 0 0 195.42 228.53
  L 198.04 220.67
  A 0.70 0.68 8.1 0 1 198.69 220.20
  L 215.25 220.03
  A 0.87 0.78 -13.7 0 1 216.00 220.43"
/>
<path stroke="#808080" vector-effect="non-scaling-stroke" d="
  M 266.09 183.43
  C 258.70 185.19 253.24 192.17 258.44 199.31
  C 263.31 206.01 286.19 211.26 285.78 218.91
  Q 285.65 221.42 283.21 222.03
  C 278.22 223.27 269.98 224.30 270.56 216.47
  A 1.34 1.31 -88.0 0 0 269.25 215.04
  L 256.81 215.05
  A 0.60 0.58 -85.4 0 0 256.23 215.56
  C 255.09 222.72 258.94 226.36 265.50 228.35
  C 273.56 230.79 299.57 232.48 300.99 219.53
  C 302.62 204.72 266.41 201.55 272.25 191.74
  C 274.11 188.61 279.85 188.94 282.93 189.59
  Q 286.71 190.38 286.45 195.13
  A 0.85 0.84 1.6 0 0 287.29 196.01
  L 300.35 196.07
  A 0.64 0.63 0.5 0 0 300.99 195.45
  C 301.19 179.00 275.87 181.10 266.09 183.43"
/>
<path stroke="#808080" vector-effect="non-scaling-stroke" d="
  M 335.28 183.38
  C 327.82 185.09 322.18 192.07 327.44 199.31
  Q 330.12 203.00 336.81 205.95
  C 340.35 207.52 359.05 214.59 354.13 220.71
  C 352.08 223.27 346.15 223.04 343.30 222.52
  Q 339.37 221.79 339.54 216.51
  A 1.42 1.39 -89.0 0 0 338.15 215.04
  L 325.81 215.05
  A 0.60 0.58 -85.4 0 0 325.23 215.56
  C 323.04 230.56 343.75 230.62 353.25 229.75
  C 359.33 229.19 365.45 228.20 368.80 222.88
  C 374.43 213.96 362.29 207.34 355.83 204.64
  C 352.11 203.08 342.16 199.09 341.00 195.00
  C 338.82 187.36 356.77 186.35 355.64 195.44
  A 0.45 0.43 -86.4 0 0 356.06 195.94
  L 369.31 196.06
  A 0.57 0.57 3.4 0 0 369.88 195.56
  C 371.81 179.31 344.35 181.30 335.28 183.38"
/>
<path stroke="#808080" vector-effect="non-scaling-stroke" d="
  M 411.8306 182.5470
  A 0.51 0.51 0.0 0 0 411.3224 182.0352
  L 396.9625 181.9851
  A 0.51 0.51 0.0 0 0 396.4507 182.4933
  L 396.2894 228.6930
  A 0.51 0.51 0.0 0 0 396.7976 229.2048
  L 411.1575 229.2549
  A 0.51 0.51 0.0 0 0 411.6693 228.7467
  L 411.8306 182.5470"
/>
<path stroke="#808080" vector-effect="non-scaling-stroke" d="
  M 441.02 188.32
  Q 439.25 190.28 439.25 192.92
  Q 439.25 201.69 439.25 210.27
  Q 439.25 219.54 439.39 220.21
  C 442.08 233.05 470.13 231.01 477.89 227.14
  C 484.69 223.75 484.46 219.11 484.21 212.37
  A 1.03 0.98 -1.7 0 0 483.16 211.43
  L 470.35 211.67
  A 0.54 0.51 -2.1 0 0 469.82 212.21
  Q 470.02 215.40 469.71 218.75
  C 469.21 224.13 459.68 223.22 456.15 221.59
  Q 454.50 220.83 454.50 219.01
  Q 454.50 207.68 454.50 196.37
  Q 454.50 192.99 454.57 192.64
  C 455.40 188.74 462.41 188.99 465.50 189.47
  Q 470.72 190.27 469.58 196.69
  A 1.02 1.02 -82.5 0 0 470.49 197.88
  Q 477.68 198.56 483.69 197.99
  A 0.63 0.63 -89.4 0 0 484.25 197.44
  C 485.91 182.50 470.48 181.77 460.06 181.96
  C 452.45 182.09 445.88 182.93 441.02 188.32"
/>
<path stroke="#808080" vector-effect="non-scaling-stroke" d="
  M 521.28 183.38
  C 513.82 185.09 508.18 192.07 513.44 199.31
  Q 516.12 203.00 522.80 205.97
  C 526.61 207.66 544.09 214.17 540.37 220.35
  C 538.42 223.60 531.38 223.02 528.45 222.06
  C 525.40 221.07 525.29 219.18 525.60 216.34
  A 1.17 1.12 -87.0 0 0 524.48 215.04
  L 511.68 215.16
  A 0.59 0.57 -87.1 0 0 511.12 215.68
  C 508.98 232.62 538.07 231.60 547.52 228.23
  C 553.89 225.96 559.05 220.14 554.57 213.52
  C 550.07 206.87 540.14 204.31 533.38 200.74
  C 513.52 190.25 543.16 183.29 541.64 195.44
  A 0.45 0.43 -86.4 0 0 542.06 195.94
  L 555.31 196.06
  A 0.57 0.57 3.4 0 0 555.88 195.56
  C 557.80 179.35 530.42 181.28 521.28 183.38"
/>
<path stroke="#808080" vector-effect="non-scaling-stroke" d="
  M 207.02 191.70
  L 200.37 213.34
  A 0.48 0.48 -81.2 0 0 200.83 213.97
  L 213.56 213.84
  A 0.40 0.39 80.9 0 0 213.92 213.33
  L 207.34 191.70
  Q 207.18 191.18 207.02 191.70"
/>
</g>
<path fill="#e3232e" d="
  M 438.79 172.75
  L 438.56 175.96
  A 0.63 0.51 1.4 0 1 437.94 176.44
  L 403.94 176.50
  A 0.72 0.69 89.6 0 1 403.25 175.79
  L 403.21 173.00
  Q 403.45 135.51 403.02 98.03
  C 402.92 89.37 390.45 89.58 384.85 91.33
  C 379.69 92.95 379.76 95.06 379.75 99.78
  Q 379.69 136.39 379.54 173.00
  L 379.33 175.70
  A 0.66 0.52 1.3 0 1 378.68 176.19
  C 374.00 176.22 345.76 177.34 343.59 175.81
  Q 342.40 174.97 343.27 172.79
  L 343.24 97.42
  Q 343.24 94.01 340.13 92.72
  Q 331.04 88.94 322.70 93.49
  Q 320.76 94.55 320.75 96.73
  L 320.54 172.75
  Q 320.84 174.43 320.36 175.97
  A 0.72 0.66 8.4 0 1 319.69 176.43
  L 286.16 176.26
  A 0.79 0.73 -89.2 0 1 285.44 175.46
  L 285.46 172.75
  Q 285.38 134.82 285.70 96.90
  Q 285.76 89.68 287.15 85.79
  C 294.12 66.20 322.55 60.86 340.23 62.52
  Q 351.20 63.55 361.45 69.09
  A 1.13 1.10 -43.7 0 0 362.49 69.10
  C 380.38 60.11 404.49 59.98 422.19 69.81
  Q 433.67 76.19 437.43 88.34
  Q 438.75 92.62 438.75 100.33
  Q 438.72 136.54 438.79 172.75
  Z"
/>
<path fill="#e3232e" d="
  M 557.48 172.63
  Q 522.87 184.75 488.28 172.59
  C 456.41 160.69 433.58 127.92 454.22 94.98
  C 482.19 50.33 569.90 51.71 594.38 99.12
  C 611.11 131.54 586.99 161.46 557.48 172.63
  Z
  M 564.31 120.57
  A 41.30 29.57 0.0 0 0 523.01 91.00
  A 41.30 29.57 0.0 0 0 481.71 120.57
  A 41.30 29.57 0.0 0 0 523.01 150.14
  A 41.30 29.57 0.0 0 0 564.31 120.57
  Z"
/>
<path fill="#e3232e" d="
  M 274.54 173.00
  L 274.50 176.98
  A 0.51 0.49 -90.0 0 1 274.02 177.48
  Q 253.31 178.15 234.00 172.72
  C 218.66 167.75 204.58 159.17 195.97 145.29
  C 181.83 122.52 188.58 96.27 209.93 81.24
  C 229.54 67.43 252.56 63.43 276.23 64.28
  A 0.53 0.53 0.6 0 1 276.75 64.81
  L 276.75 90.69
  A 0.84 0.84 0.7 0 1 275.89 91.53
  C 258.28 91.12 230.77 95.50 225.12 115.87
  Q 223.00 123.49 227.06 130.94
  C 235.62 146.64 256.86 150.83 273.52 150.22
  A 0.95 0.95 -0.9 0 1 274.50 151.17
  L 274.54 173.00
  Z"
/>
<path fill="#e3232e" d="
  M 63.79 172.75
  Q 64.11 174.20 63.64 175.47
  A 0.77 0.69 9.3 0 1 62.94 175.92
  L 29.74 175.99
  A 1.15 0.66 -9.4 0 1 28.89 175.67
  Q 28.56 175.22 28.71 174.50
  L 28.69 93.57
  A 1.07 1.07 0.7 0 0 27.62 92.50
  L 0.92 92.50
  A 0.67 0.67 85.3 0 1 0.25 91.83
  L 0.25 65.06
  A 0.56 0.56 86.0 0 1 0.81 64.50
  L 93.34 64.50
  A 0.66 0.66 0.0 0 1 94.00 65.16
  L 94.00 91.84
  A 0.91 0.91 0.0 0 1 93.09 92.75
  L 64.86 92.75
  A 0.86 0.86 0.0 0 0 64.00 93.61
  L 63.79 172.75
  Z"
/>
<path fill="#e3232e" d="
  M 183.54 173.00
  L 183.32 175.95
  A 0.63 0.52 1.4 0 1 182.70 176.44
  Q 166.14 176.64 138.50 176.25
  Q 128.17 176.10 119.51 172.74
  C 110.44 168.72 101.89 161.86 100.03 151.76
  Q 99.75 150.22 99.75 136.71
  Q 99.75 115.50 99.75 94.28
  C 99.75 75.49 117.40 65.03 134.50 64.74
  Q 159.00 64.33 183.28 64.75
  A 0.74 0.74 -88.5 0 1 184.01 65.52
  Q 183.47 78.59 183.93 91.31
  A 0.42 0.42 88.0 0 1 183.52 91.75
  Q 163.86 92.17 144.21 92.01
  C 141.36 91.99 138.88 91.64 136.34 92.98
  A 2.72 2.51 77.6 0 0 134.98 95.30
  L 134.82 106.53
  A 0.71 0.68 -89.6 0 0 135.50 107.25
  L 182.94 107.25
  A 0.56 0.55 0.0 0 1 183.50 107.80
  L 183.44 133.93
  A 0.51 0.50 -90.0 0 1 182.94 134.44
  L 135.31 134.56
  A 0.52 0.51 -89.4 0 0 134.80 135.07
  C 134.66 140.36 132.61 149.23 141.00 149.24
  Q 161.62 149.25 182.94 149.25
  A 0.56 0.56 0.0 0 1 183.50 149.81
  L 183.54 173.00
  Z"
/>
<path fill="#000000" d="
  M 119.51 172.74
  Q 128.17 176.10 138.50 176.25
  Q 166.14 176.64 182.70 176.44
  A 0.63 0.52 1.4 0 0 183.32 175.95
  L 183.54 173.00
  L 234.00 172.72
  Q 253.31 178.15 274.02 177.48
  A 0.51 0.49 -90.0 0 0 274.50 176.98
  L 274.54 173.00
  L 285.46 172.75
  L 285.44 175.46
  A 0.79 0.73 -89.2 0 0 286.16 176.26
  L 319.69 176.43
  A 0.72 0.66 8.4 0 0 320.36 175.97
  Q 320.84 174.43 320.54 172.75
  Q 331.83 173.35 343.27 172.79
  Q 342.40 174.97 343.59 175.81
  C 345.76 177.34 374.00 176.22 378.68 176.19
  A 0.66 0.52 1.3 0 0 379.33 175.70
  L 379.54 173.00
  L 403.21 173.00
  L 403.25 175.79
  A 0.72 0.69 89.6 0 0 403.94 176.50
  L 437.94 176.44
  A 0.63 0.51 1.4 0 0 438.56 175.96
  L 438.79 172.75
  Q 463.50 173.49 488.28 172.59
  Q 522.87 184.75 557.48 172.63
  Q 572.97 171.99 583.69 180.81
  Q 589.45 185.56 592.41 192.79
  C 601.40 214.75 585.57 237.97 562.00 237.98
  Q 301.25 238.00 40.50 238.07
  C 2.23 238.08 -7.63 187.46 28.71 174.50
  Q 28.56 175.22 28.89 175.67
  A 1.15 0.66 -9.4 0 0 29.74 175.99
  L 62.94 175.92
  A 0.77 0.69 9.3 0 0 63.64 175.47
  Q 64.11 174.20 63.79 172.75
  Q 91.64 173.38 119.51 172.74
  Z
  M 90.71 211.67
  L 77.30 211.56
  A 0.51 0.49 -89.4 0 0 76.81 212.06
  L 76.75 218.77
  Q 76.72 221.64 73.67 222.32
  C 70.14 223.12 61.50 223.93 61.50 218.00
  Q 61.50 205.75 61.50 193.26
  Q 61.50 191.17 63.40 190.29
  C 66.32 188.95 71.97 188.66 74.95 190.24
  C 77.46 191.57 76.63 194.93 76.79 197.32
  A 0.71 0.71 88.7 0 0 77.49 197.99
  L 90.92 198.19
  A 0.59 0.58 85.8 0 0 91.50 197.51
  C 91.14 195.15 91.52 192.65 90.72 190.58
  C 87.31 181.78 72.40 181.44 64.67 182.05
  C 58.52 182.54 46.25 184.27 46.25 193.00
  Q 46.25 202.94 46.25 212.88
  C 46.25 219.54 45.83 224.21 51.81 226.94
  Q 59.05 230.24 67.47 230.11
  C 79.62 229.94 93.83 228.74 91.12 212.02
  A 0.43 0.42 -4.1 0 0 90.71 211.67
  Z
  M 135.81 221.44
  L 135.76 182.92
  A 0.89 0.85 89.7 0 0 134.90 182.03
  L 120.94 182.16
  A 0.54 0.52 -90.0 0 0 120.43 182.69
  L 120.25 228.39
  A 0.80 0.80 90.0 0 0 121.05 229.19
  L 159.75 229.00
  A 0.58 0.50 0.5 0 0 160.33 228.51
  L 160.38 222.68
  A 0.57 0.49 0.5 0 0 159.81 222.18
  L 136.31 221.94
  A 0.51 0.50 0.6 0 1 135.81 221.44
  Z
  M 216.00 220.43
  Q 217.74 223.51 218.31 227.44
  Q 218.58 229.25 220.38 229.24
  L 234.02 229.19
  A 0.34 0.33 80.9 0 0 234.33 228.75
  L 219.22 182.66
  A 0.71 0.67 80.5 0 0 218.57 182.17
  L 197.19 182.17
  A 0.74 0.68 -79.9 0 0 196.53 182.67
  L 181.47 228.46
  A 0.38 0.36 -80.7 0 0 181.81 228.96
  L 194.76 229.02
  A 0.73 0.69 -79.9 0 0 195.42 228.53
  L 198.04 220.67
  A 0.70 0.68 8.1 0 1 198.69 220.20
  L 215.25 220.03
  A 0.87 0.78 -13.7 0 1 216.00 220.43
  Z
  M 266.09 183.43
  C 258.70 185.19 253.24 192.17 258.44 199.31
  C 263.31 206.01 286.19 211.26 285.78 218.91
  Q 285.65 221.42 283.21 222.03
  C 278.22 223.27 269.98 224.30 270.56 216.47
  A 1.34 1.31 -88.0 0 0 269.25 215.04
  L 256.81 215.05
  A 0.60 0.58 -85.4 0 0 256.23 215.56
  C 255.09 222.72 258.94 226.36 265.50 228.35
  C 273.56 230.79 299.57 232.48 300.99 219.53
  C 302.62 204.72 266.41 201.55 272.25 191.74
  C 274.11 188.61 279.85 188.94 282.93 189.59
  Q 286.71 190.38 286.45 195.13
  A 0.85 0.84 1.6 0 0 287.29 196.01
  L 300.35 196.07
  A 0.64 0.63 0.5 0 0 300.99 195.45
  C 301.19 179.00 275.87 181.10 266.09 183.43
  Z
  M 335.28 183.38
  C 327.82 185.09 322.18 192.07 327.44 199.31
  Q 330.12 203.00 336.81 205.95
  C 340.35 207.52 359.05 214.59 354.13 220.71
  C 352.08 223.27 346.15 223.04 343.30 222.52
  Q 339.37 221.79 339.54 216.51
  A 1.42 1.39 -89.0 0 0 338.15 215.04
  L 325.81 215.05
  A 0.60 0.58 -85.4 0 0 325.23 215.56
  C 323.04 230.56 343.75 230.62 353.25 229.75
  C 359.33 229.19 365.45 228.20 368.80 222.88
  C 374.43 213.96 362.29 207.34 355.83 204.64
  C 352.11 203.08 342.16 199.09 341.00 195.00
  C 338.82 187.36 356.77 186.35 355.64 195.44
  A 0.45 0.43 -86.4 0 0 356.06 195.94
  L 369.31 196.06
  A 0.57 0.57 3.4 0 0 369.88 195.56
  C 371.81 179.31 344.35 181.30 335.28 183.38
  Z
  M 411.8306 182.5470
  A 0.51 0.51 0.0 0 0 411.3224 182.0352
  L 396.9625 181.9851
  A 0.51 0.51 0.0 0 0 396.4507 182.4933
  L 396.2894 228.6930
  A 0.51 0.51 0.0 0 0 396.7976 229.2048
  L 411.1575 229.2549
  A 0.51 0.51 0.0 0 0 411.6693 228.7467
  L 411.8306 182.5470
  Z
  M 441.02 188.32
  Q 439.25 190.28 439.25 192.92
  Q 439.25 201.69 439.25 210.27
  Q 439.25 219.54 439.39 220.21
  C 442.08 233.05 470.13 231.01 477.89 227.14
  C 484.69 223.75 484.46 219.11 484.21 212.37
  A 1.03 0.98 -1.7 0 0 483.16 211.43
  L 470.35 211.67
  A 0.54 0.51 -2.1 0 0 469.82 212.21
  Q 470.02 215.40 469.71 218.75
  C 469.21 224.13 459.68 223.22 456.15 221.59
  Q 454.50 220.83 454.50 219.01
  Q 454.50 207.68 454.50 196.37
  Q 454.50 192.99 454.57 192.64
  C 455.40 188.74 462.41 188.99 465.50 189.47
  Q 470.72 190.27 469.58 196.69
  A 1.02 1.02 -82.5 0 0 470.49 197.88
  Q 477.68 198.56 483.69 197.99
  A 0.63 0.63 -89.4 0 0 484.25 197.44
  C 485.91 182.50 470.48 181.77 460.06 181.96
  C 452.45 182.09 445.88 182.93 441.02 188.32
  Z
  M 521.28 183.38
  C 513.82 185.09 508.18 192.07 513.44 199.31
  Q 516.12 203.00 522.80 205.97
  C 526.61 207.66 544.09 214.17 540.37 220.35
  C 538.42 223.60 531.38 223.02 528.45 222.06
  C 525.40 221.07 525.29 219.18 525.60 216.34
  A 1.17 1.12 -87.0 0 0 524.48 215.04
  L 511.68 215.16
  A 0.59 0.57 -87.1 0 0 511.12 215.68
  C 508.98 232.62 538.07 231.60 547.52 228.23
  C 553.89 225.96 559.05 220.14 554.57 213.52
  C 550.07 206.87 540.14 204.31 533.38 200.74
  C 513.52 190.25 543.16 183.29 541.64 195.44
  A 0.45 0.43 -86.4 0 0 542.06 195.94
  L 555.31 196.06
  A 0.57 0.57 3.4 0 0 555.88 195.56
  C 557.80 179.35 530.42 181.28 521.28 183.38
  Z"
/>
<path fill="#ffffff" d="
  M 90.71 211.67
  A 0.43 0.42 -4.1 0 1 91.12 212.02
  C 93.83 228.74 79.62 229.94 67.47 230.11
  Q 59.05 230.24 51.81 226.94
  C 45.83 224.21 46.25 219.54 46.25 212.88
  Q 46.25 202.94 46.25 193.00
  C 46.25 184.27 58.52 182.54 64.67 182.05
  C 72.40 181.44 87.31 181.78 90.72 190.58
  C 91.52 192.65 91.14 195.15 91.50 197.51
  A 0.59 0.58 85.8 0 1 90.92 198.19
  L 77.49 197.99
  A 0.71 0.71 88.7 0 1 76.79 197.32
  C 76.63 194.93 77.46 191.57 74.95 190.24
  C 71.97 188.66 66.32 188.95 63.40 190.29
  Q 61.50 191.17 61.50 193.26
  Q 61.50 205.75 61.50 218.00
  C 61.50 223.93 70.14 223.12 73.67 222.32
  Q 76.72 221.64 76.75 218.77
  L 76.81 212.06
  A 0.51 0.49 -89.4 0 1 77.30 211.56
  L 90.71 211.67
  Z"
/>
<path fill="#ffffff" d="
  M 136.31 221.94
  L 159.81 222.18
  A 0.57 0.49 0.5 0 1 160.38 222.68
  L 160.33 228.51
  A 0.58 0.50 0.5 0 1 159.75 229.00
  L 121.05 229.19
  A 0.80 0.80 -88.7 0 1 120.25 228.39
  L 120.43 182.69
  A 0.54 0.52 -90.0 0 1 120.94 182.16
  L 134.90 182.03
  A 0.89 0.85 89.7 0 1 135.76 182.92
  L 135.81 221.44
  A 0.51 0.50 0.6 0 0 136.31 221.94
  Z"
/>
<path fill="#ffffff" d="
  M 215.25 220.03
  L 198.69 220.20
  A 0.70 0.68 8.1 0 0 198.04 220.67
  L 195.42 228.53
  A 0.73 0.69 -79.9 0 1 194.76 229.02
  L 181.81 228.96
  A 0.38 0.36 -80.7 0 1 181.47 228.46
  L 196.53 182.67
  A 0.74 0.68 -79.9 0 1 197.19 182.17
  L 218.57 182.17
  A 0.71 0.67 80.5 0 1 219.22 182.66
  L 234.33 228.75
  A 0.34 0.33 80.9 0 1 234.02 229.19
  L 220.38 229.24
  Q 218.58 229.25 218.31 227.44
  Q 217.74 223.51 216.00 220.43
  A 0.87 0.78 -13.7 0 0 215.25 220.03
  Z
  M 207.02 191.70
  L 200.37 213.34
  A 0.48 0.48 -81.2 0 0 200.83 213.97
  L 213.56 213.84
  A 0.40 0.39 80.9 0 0 213.92 213.33
  L 207.34 191.70
  Q 207.18 191.18 207.02 191.70
  Z"
/>
<path fill="#ffffff" d="
  M 258.44 199.31
  C 253.24 192.17 258.70 185.19 266.09 183.43
  C 275.87 181.10 301.19 179.00 300.99 195.45
  A 0.64 0.63 0.5 0 1 300.35 196.07
  L 287.29 196.01
  A 0.85 0.84 1.6 0 1 286.45 195.13
  Q 286.71 190.38 282.93 189.59
  C 279.85 188.94 274.11 188.61 272.25 191.74
  C 266.41 201.55 302.62 204.72 300.99 219.53
  C 299.57 232.48 273.56 230.79 265.50 228.35
  C 258.94 226.36 255.09 222.72 256.23 215.56
  A 0.60 0.58 -85.4 0 1 256.81 215.05
  L 269.25 215.04
  A 1.34 1.31 -88.0 0 1 270.56 216.47
  C 269.98 224.30 278.22 223.27 283.21 222.03
  Q 285.65 221.42 285.78 218.91
  C 286.19 211.26 263.31 206.01 258.44 199.31
  Z"
/>
<path fill="#ffffff" d="
  M 327.44 199.31
  C 322.18 192.07 327.82 185.09 335.28 183.38
  C 344.35 181.30 371.81 179.31 369.88 195.56
  A 0.57 0.57 3.4 0 1 369.31 196.06
  L 356.06 195.94
  A 0.45 0.43 -86.4 0 1 355.64 195.44
  C 356.77 186.35 338.82 187.36 341.00 195.00
  C 342.16 199.09 352.11 203.08 355.83 204.64
  C 362.29 207.34 374.43 213.96 368.80 222.88
  C 365.45 228.20 359.33 229.19 353.25 229.75
  C 343.75 230.62 323.04 230.56 325.23 215.56
  A 0.60 0.58 -85.4 0 1 325.81 215.05
  L 338.15 215.04
  A 1.42 1.39 -89.0 0 1 339.54 216.51
  Q 339.37 221.79 343.30 222.52
  C 346.15 223.04 352.08 223.27 354.13 220.71
  C 359.05 214.59 340.35 207.52 336.81 205.95
  Q 330.12 203.00 327.44 199.31
  Z"
/>
<rect fill="#ffffff" x="-7.69" y="-23.61" transform="translate(404.06,205.62) rotate(0.2)" width="15.38" height="47.22" rx="0.51"/>
<path fill="#ffffff" d="
  M 441.02 188.32
  C 445.88 182.93 452.45 182.09 460.06 181.96
  C 470.48 181.77 485.91 182.50 484.25 197.44
  A 0.63 0.63 -89.4 0 1 483.69 197.99
  Q 477.68 198.56 470.49 197.88
  A 1.02 1.02 -82.5 0 1 469.58 196.69
  Q 470.72 190.27 465.50 189.47
  C 462.41 188.99 455.40 188.74 454.57 192.64
  Q 454.50 192.99 454.50 196.37
  Q 454.50 207.68 454.50 219.01
  Q 454.50 220.83 456.15 221.59
  C 459.68 223.22 469.21 224.13 469.71 218.75
  Q 470.02 215.40 469.82 212.21
  A 0.54 0.51 -2.1 0 1 470.35 211.67
  L 483.16 211.43
  A 1.03 0.98 -1.7 0 1 484.21 212.37
  C 484.46 219.11 484.69 223.75 477.89 227.14
  C 470.13 231.01 442.08 233.05 439.39 220.21
  Q 439.25 219.54 439.25 210.27
  Q 439.25 201.69 439.25 192.92
  Q 439.25 190.28 441.02 188.32
  Z"
/>
<path fill="#ffffff" d="
  M 513.44 199.31
  C 508.18 192.07 513.82 185.09 521.28 183.38
  C 530.42 181.28 557.80 179.35 555.88 195.56
  A 0.57 0.57 3.4 0 1 555.31 196.06
  L 542.06 195.94
  A 0.45 0.43 -86.4 0 1 541.64 195.44
  C 543.16 183.29 513.52 190.25 533.38 200.74
  C 540.14 204.31 550.07 206.87 554.57 213.52
  C 559.05 220.14 553.89 225.96 547.52 228.23
  C 538.07 231.60 508.98 232.62 511.12 215.68
  A 0.59 0.57 -87.1 0 1 511.68 215.16
  L 524.48 215.04
  A 1.17 1.12 -87.0 0 1 525.60 216.34
  C 525.29 219.18 525.40 221.07 528.45 222.06
  C 531.38 223.02 538.42 223.60 540.37 220.35
  C 544.09 214.17 526.61 207.66 522.80 205.97
  Q 516.12 203.00 513.44 199.31
  Z"
/>
<path fill="#000000" d="
  M 207.02 191.70
  Q 207.18 191.18 207.34 191.70
  L 213.92 213.33
  A 0.40 0.39 80.9 0 1 213.56 213.84
  L 200.83 213.97
  A 0.48 0.48 -81.2 0 1 200.37 213.34
  L 207.02 191.70
  Z"
/>
</svg>
