<?xml version="1.0" encoding="UTF-8" standalone="no"?>
<!DOCTYPE svg PUBLIC "-//W3C//DTD SVG 1.1//EN" "http://www.w3.org/Graphics/SVG/1.1/DTD/svg11.dtd">
<svg xmlns="http://www.w3.org/2000/svg" version="1.1" viewBox="0 0 600 100">
<path fill="#d61808" d="
  M 41.81 0.00
  L 43.06 0.00
  C 57.98 3.28 47.09 42.23 43.77 51.39
  C 38.52 65.84 25.39 95.72 8.94 100.00
  L 7.69 100.00
  C 1.58 98.60 0.30 91.38 0.00 85.94
  L 0.00 80.44
  Q 3.12 51.33 17.18 26.05
  C 22.45 16.59 31.00 2.30 41.81 0.00
  Z"
/>
<path fill="#008400" d="
  M 93.31 0.00
  L 94.67 -0.09
  Q 100.68 3.07 101.80 9.26
  Q 102.17 11.28 102.02 18.25
  C 101.66 35.71 94.37 56.36 86.21 72.11
  C 81.31 81.56 71.90 96.71 60.44 100.00
  L 58.94 100.00
  Q 54.51 98.68 52.79 93.64
  Q 51.85 90.87 51.64 87.96
  C 50.03 65.19 61.14 37.01 73.71 17.45
  C 78.53 9.95 84.65 2.26 93.31 0.00
  Z"
/>
<path fill="#0000ff" d="
  M 144.56 0.00
  L 146.06 0.00
  C 160.29 5.55 150.70 38.46 147.21 49.10
  C 142.52 63.36 128.03 96.96 111.44 100.00
  L 110.44 100.00
  C 91.36 93.85 112.37 40.35 118.25 28.84
  C 123.22 19.10 132.70 3.44 144.56 0.00
  Z"
/>
<path fill="#000000" d="
  M 209.56 0.00
  L 212.83 -0.03
  C 231.16 3.31 235.73 18.42 235.49 34.73
  A 0.53 0.52 -89.4 0 1 234.97 35.25
  L 222.71 35.20
  A 1.24 1.22 -89.8 0 1 221.49 33.95
  C 221.54 27.67 220.22 21.72 213.48 20.05
  C 190.94 14.48 184.74 82.94 206.86 79.96
  C 214.75 78.90 218.44 70.02 219.86 63.16
  A 0.61 0.60 6.1 0 0 219.26 62.43
  L 207.64 62.50
  A 0.50 0.50 3.5 0 1 207.14 61.94
  L 209.06 45.35
  A 0.69 0.68 3.3 0 1 209.74 44.75
  L 233.94 44.81
  A 0.45 0.45 -87.1 0 1 234.39 45.31
  C 232.71 63.17 230.29 85.44 213.94 96.69
  C 209.45 99.78 203.93 100.26 198.68 98.62
  C 181.80 93.33 179.04 70.97 179.21 56.24
  C 179.43 37.15 185.13 2.89 209.56 0.00
  Z"
/>
<path fill="#000000" d="
  M 439.56 0.00
  L 442.06 0.00
  C 460.17 2.35 465.68 18.70 465.08 34.57
  A 0.54 0.52 -89.4 0 1 464.57 35.09
  L 451.76 35.23
  A 0.52 0.50 89.5 0 1 451.25 34.71
  C 451.26 30.39 450.34 23.45 446.22 21.07
  C 439.73 17.32 432.34 21.17 429.31 27.31
  Q 423.81 38.47 423.07 51.12
  C 422.59 59.30 422.48 79.58 434.50 79.96
  C 443.96 80.26 447.99 70.71 449.50 63.01
  A 0.43 0.43 5.5 0 0 449.08 62.50
  L 437.31 62.50
  A 0.57 0.57 3.5 0 1 436.74 61.86
  L 438.60 45.64
  A 1.01 1.00 3.2 0 1 439.60 44.75
  L 463.44 44.75
  A 0.58 0.57 -87.3 0 1 464.01 45.38
  C 462.29 62.94 459.98 85.56 443.79 96.52
  C 433.29 103.63 420.25 97.57 414.88 87.09
  Q 410.39 78.33 409.45 68.50
  C 407.45 47.48 410.77 3.45 439.56 0.00
  Z"
/>
<path fill="#000000" d="
  M 260.93 79.02
  Q 252.58 78.39 244.53 78.91
  A 1.09 1.06 -84.2 0 0 243.57 79.72
  L 239.08 96.70
  A 0.68 0.67 6.8 0 1 238.44 97.20
  L 226.22 97.25
  A 0.39 0.39 -82.0 0 1 225.85 96.75
  L 252.83 3.01
  A 1.05 1.05 -81.9 0 1 253.84 2.25
  L 266.88 2.25
  A 0.81 0.81 87.7 0 1 267.69 3.00
  L 275.27 96.56
  A 0.49 0.46 87.7 0 1 274.81 97.09
  L 263.07 97.21
  A 0.55 0.55 88.3 0 1 262.52 96.69
  L 261.46 79.56
  A 0.58 0.58 0.6 0 0 260.93 79.02
  Z
  M 257.49 26.46
  L 248.26 61.74
  A 0.76 0.74 6.7 0 0 249.01 62.66
  L 259.62 62.53
  A 0.62 0.59 -2.2 0 0 260.23 61.90
  L 258.10 26.52
  Q 257.99 24.58 257.49 26.46
  Z"
/>
<path fill="#000000" d="
  M 332.29 27.75
  Q 333.71 22.92 331.50 27.71
  L 311.68 96.48
  A 0.99 0.91 -80.7 0 1 310.76 97.20
  L 302.00 97.05
  A 0.57 0.54 88.8 0 1 301.47 96.51
  Q 299.11 61.94 297.02 27.36
  C 296.96 26.39 296.17 26.05 296.05 27.48
  Q 293.28 60.65 289.43 96.75
  A 0.50 0.48 -86.7 0 1 288.95 97.19
  L 277.82 97.20
  A 0.48 0.48 -88.3 0 1 277.34 96.69
  C 277.75 90.11 279.00 81.71 279.53 77.10
  Q 283.76 40.05 288.50 3.07
  A 0.58 0.56 -86.6 0 1 289.06 2.56
  L 305.00 2.51
  A 0.75 0.75 88.0 0 1 305.76 3.22
  L 309.54 67.18
  Q 309.58 67.90 310.03 67.57
  Q 310.33 67.36 310.50 66.75
  Q 315.20 49.76 329.17 2.80
  A 0.69 0.66 -80.7 0 1 329.82 2.31
  L 346.07 2.66
  A 0.48 0.45 -86.0 0 1 346.51 3.19
  L 335.37 96.57
  A 0.59 0.57 -86.6 0 1 334.80 97.09
  L 323.79 97.23
  A 0.56 0.55 -86.4 0 1 323.24 96.59
  L 332.29 27.75
  Z"
/>
<path fill="#000000" d="
  M 355.91 77.99
  L 376.80 77.77
  A 0.79 0.77 -87.0 0 1 377.57 78.65
  L 375.47 96.76
  A 0.56 0.55 -86.5 0 1 374.92 97.25
  L 340.47 97.25
  A 0.55 0.55 -86.3 0 1 339.93 96.63
  L 350.98 3.17
  A 1.04 1.04 -86.6 0 1 352.01 2.25
  L 385.50 2.25
  A 0.67 0.67 3.1 0 1 386.17 2.99
  L 384.21 21.08
  A 1.06 1.04 3.0 0 1 383.16 22.01
  L 362.68 22.17
  A 0.60 0.59 3.9 0 0 362.09 22.68
  L 359.91 38.48
  A 0.74 0.69 3.7 0 0 360.65 39.27
  L 379.07 39.42
  A 0.46 0.46 -87.2 0 1 379.53 39.93
  L 377.63 56.82
  A 0.58 0.56 2.2 0 1 377.07 57.32
  L 358.19 57.68
  A 0.59 0.57 2.8 0 0 357.62 58.18
  L 355.17 77.20
  A 0.73 0.70 3.1 0 0 355.91 77.99
  Z"
/>
<path fill="#000000" d="
  M 479.48 58.06
  L 476.99 77.30
  A 0.60 0.56 3.4 0 0 477.59 77.93
  L 498.82 77.92
  A 0.46 0.45 -86.6 0 1 499.27 78.43
  L 497.24 96.80
  A 0.82 0.79 3.1 0 1 496.43 97.50
  L 462.53 97.50
  A 0.77 0.77 -86.7 0 1 461.77 96.64
  L 472.84 2.98
  A 0.84 0.83 3.5 0 1 473.67 2.25
  L 507.30 2.25
  A 0.70 0.70 2.9 0 1 508.00 3.02
  L 505.94 21.49
  A 0.57 0.57 2.8 0 1 505.37 22.00
  L 484.50 22.00
  A 0.86 0.84 3.4 0 0 483.65 22.74
  L 481.74 38.57
  A 0.46 0.46 3.9 0 0 482.19 39.08
  L 500.93 39.31
  A 0.47 0.45 3.4 0 1 501.39 39.81
  L 499.50 56.94
  A 0.56 0.55 -87.1 0 1 498.95 57.44
  L 480.07 57.56
  A 0.60 0.58 3.9 0 0 479.48 58.06
  Z"
/>
<path fill="#000000" d="
  M 533.43 78.80
  L 517.32 78.81
  A 1.03 0.99 -82.5 0 0 516.35 79.58
  L 512.03 96.56
  A 1.26 1.25 7.1 0 1 510.81 97.50
  L 499.09 97.50
  A 0.53 0.53 7.9 0 1 498.58 96.83
  L 525.62 2.91
  A 0.92 0.91 8.0 0 1 526.50 2.25
  L 539.47 2.25
  A 1.01 1.00 87.5 0 1 540.47 3.17
  L 548.07 96.31
  A 1.11 1.10 87.8 0 1 546.97 97.50
  L 536.18 97.50
  A 0.98 0.95 87.7 0 1 535.23 96.60
  L 533.98 79.31
  A 0.55 0.54 -1.7 0 0 533.43 78.80
  Z
  M 530.07 27.15
  L 521.02 61.72
  A 0.77 0.75 6.9 0 0 521.78 62.66
  L 532.33 62.53
  A 0.74 0.72 -2.2 0 0 533.06 61.76
  L 531.00 27.23
  Q 530.82 24.29 530.07 27.15
  Z"
/>
<path fill="#000000" d="
  M 600.00 26.06
  L 600.00 29.56
  Q 599.27 45.97 587.37 56.91
  A 0.85 0.79 -29.9 0 0 587.12 57.73
  L 597.75 96.51
  A 0.73 0.71 82.0 0 1 597.07 97.44
  L 584.02 97.50
  A 1.39 1.34 81.5 0 1 582.71 96.49
  L 573.08 62.05
  A 1.13 0.95 -89.8 0 0 572.49 61.35
  Q 571.33 60.88 569.99 61.14
  Q 569.50 61.23 569.01 61.12
  C 566.28 60.50 566.81 62.50 566.60 64.15
  Q 564.60 79.96 562.63 96.79
  A 0.81 0.81 -86.4 0 1 561.83 97.50
  L 550.24 97.44
  A 0.59 0.58 -86.5 0 1 549.66 96.78
  L 560.78 3.00
  A 0.84 0.84 -86.8 0 1 561.60 2.26
  Q 571.82 2.13 581.45 2.37
  C 596.88 2.75 599.38 12.72 600.00 26.06
  Z
  M 571.86 21.69
  Q 570.33 31.23 569.34 40.85
  C 569.17 42.52 567.79 44.76 571.25 44.21
  Q 573.18 43.91 575.12 44.02
  Q 581.79 44.42 585.19 38.44
  C 587.15 34.98 587.98 23.82 583.69 21.81
  Q 579.05 19.65 572.42 21.08
  A 0.75 0.71 89.1 0 0 571.86 21.69
  Z"
/>
</svg>
