<?xml version="1.0" encoding="UTF-8" standalone="no"?>
<!DOCTYPE svg PUBLIC "-//W3C//DTD SVG 1.1//EN" "http://www.w3.org/Graphics/SVG/1.1/DTD/svg11.dtd">
<svg xmlns="http://www.w3.org/2000/svg" version="1.1" viewBox="0.00 0.00 600.00 213.00">
<path fill="#80b3ff" d="
  M 481.03 57.46
  C 482.54 58.53 484.30 59.44 485.68 60.64
  C 499.90 72.95 496.17 92.74 484.22 105.48
  Q 470.55 120.06 449.59 118.25
  C 430.95 116.64 420.92 104.51 417.89 86.99
  Q 417.76 86.24 418.52 86.15
  L 439.17 83.67
  A 0.51 0.51 0.0 0 1 439.74 84.12
  C 440.69 92.22 443.92 99.72 453.14 99.96
  C 463.88 100.23 471.49 92.63 471.81 82.03
  C 472.12 71.52 464.48 64.31 453.64 66.30
  Q 452.95 66.42 453.10 65.74
  L 456.82 48.00
  Q 456.96 47.34 457.62 47.41
  C 469.58 48.52 478.01 42.30 477.77 29.62
  C 477.64 22.88 472.89 18.29 466.21 18.35
  C 457.44 18.42 453.32 26.37 451.42 33.73
  Q 451.29 34.26 450.76 34.15
  L 431.01 30.20
  Q 430.50 30.09 430.65 29.60
  Q 432.71 22.83 436.43 16.84
  C 445.37 2.41 462.95 -2.60 479.00 1.54
  C 492.19 4.93 500.47 16.93 500.40 30.44
  C 500.35 42.44 492.43 53.19 481.12 56.90
  Q 480.53 57.09 481.03 57.46
  Z"
/>
<path fill="#80b3ff" d="
  M 536.99 95.76
  L 575.66 95.75
  Q 576.31 95.75 576.18 96.39
  L 572.15 115.98
  Q 572.04 116.50 571.51 116.50
  L 501.76 116.50
  A 0.31 0.30 -85.2 0 1 501.46 116.14
  Q 502.16 112.21 503.25 108.46
  C 506.06 98.74 512.65 89.24 519.72 82.20
  Q 533.70 68.27 548.44 54.08
  C 555.72 47.08 566.57 34.85 560.44 23.96
  Q 557.54 18.81 551.72 18.09
  C 540.48 16.68 536.45 27.36 534.61 36.12
  Q 534.48 36.75 533.84 36.65
  L 512.70 33.51
  A 0.43 0.42 -81.4 0 1 512.34 33.02
  C 516.41 8.81 534.68 -3.22 558.65 1.01
  C 583.39 5.37 590.55 31.35 578.25 51.03
  Q 574.04 57.75 568.95 62.90
  Q 560.27 71.67 548.24 82.75
  Q 541.83 88.65 536.66 95.06
  Q 536.08 95.77 536.99 95.76
  Z"
/>
<path fill="#5fd38d" d="
  M 61.50 87.50
  L 108.99 0.86
  A 0.33 0.33 0.0 0 1 109.28 0.69
  L 132.23 0.65
  A 0.33 0.33 0.0 0 1 132.52 1.14
  L 68.90 116.33
  A 0.33 0.33 0.0 0 1 68.62 116.50
  L 43.59 116.50
  A 0.33 0.33 0.0 0 1 43.26 116.23
  L 22.57 1.05
  A 0.33 0.33 0.0 0 1 22.90 0.66
  L 46.06 0.69
  A 0.33 0.33 0.0 0 1 46.39 0.97
  L 60.88 87.39
  A 0.33 0.33 0.0 0 0 61.50 87.50
  Z"
/>
<path fill="#00ffff" d="
  M 132.17 44.63
  L 135.26 29.87
  A 0.33 0.33 0.0 0 1 135.58 29.61
  L 151.98 29.59
  A 0.33 0.33 0.0 0 1 152.31 29.99
  L 149.19 44.80
  A 0.33 0.33 0.0 0 1 148.86 45.06
  L 132.50 45.03
  A 0.33 0.33 0.0 0 1 132.17 44.63
  Z"
/>
<path fill="#00ffff" d="
  M 177.06 65.26
  C 182.74 55.85 191.75 48.97 203.22 53.70
  Q 203.74 53.92 203.50 54.44
  L 197.45 67.28
  Q 197.13 67.94 196.45 67.69
  C 189.03 65.07 181.45 70.36 177.71 76.58
  Q 175.28 80.61 173.85 85.76
  Q 171.57 93.99 167.22 115.91
  Q 167.10 116.50 166.50 116.50
  L 150.22 116.50
  A 0.21 0.20 -84.2 0 1 150.02 116.25
  L 163.02 54.20
  Q 163.16 53.56 163.82 53.56
  L 178.48 53.56
  Q 179.14 53.56 179.00 54.20
  Q 177.86 59.45 176.58 64.96
  Q 176.52 65.21 176.72 65.36
  Q 176.76 65.40 176.81 65.40
  Q 176.98 65.40 177.06 65.26
  Z"
/>
<path fill="#00ffff" d="
  M 257.31 96.22
  C 252.15 109.19 241.90 117.73 227.75 117.91
  Q 208.57 118.16 202.52 102.28
  C 198.65 92.10 201.05 77.97 206.72 68.46
  C 213.78 56.64 227.61 50.79 241.35 52.37
  C 252.69 53.67 260.53 61.08 262.00 72.61
  Q 262.08 73.19 261.49 73.26
  L 246.33 74.83
  Q 245.77 74.89 245.70 74.33
  Q 244.68 66.03 237.61 64.82
  C 231.61 63.79 225.94 67.56 222.94 72.52
  Q 218.40 80.02 217.61 91.95
  C 217.12 99.43 221.90 106.85 230.43 104.12
  C 235.66 102.45 238.99 98.32 240.77 93.28
  Q 240.95 92.77 241.49 92.85
  L 256.80 95.33
  Q 257.61 95.46 257.31 96.22
  Z"
/>
<path fill="#00ffff" d="
  M 333.77 78.11
  C 334.86 95.93 324.09 113.88 305.67 117.24
  C 283.96 121.20 266.89 109.52 268.50 86.67
  C 269.91 66.79 282.82 52.26 303.65 52.13
  C 320.18 52.02 332.68 60.39 333.77 78.11
  Z
  M 316.79 75.98
  Q 316.48 72.30 314.19 69.47
  Q 309.12 63.21 300.10 65.49
  C 290.31 67.97 285.96 80.24 285.49 89.46
  C 284.70 104.95 301.65 110.23 310.59 98.30
  C 315.37 91.92 317.48 83.96 316.79 75.98
  Z"
/>
<path fill="#00ffff" d="
  M 368.30 60.32
  Q 367.89 62.11 369.27 60.89
  Q 378.66 52.57 389.26 52.12
  C 398.98 51.70 406.74 56.97 407.14 66.98
  Q 407.31 70.98 406.34 75.61
  Q 402.04 96.28 397.96 115.96
  A 0.67 0.66 -84.1 0 1 397.31 116.50
  L 381.21 116.50
  A 0.40 0.39 5.9 0 1 380.82 116.03
  Q 386.37 90.60 389.69 73.29
  C 391.37 64.50 383.22 62.45 376.86 65.86
  C 368.67 70.26 365.84 77.07 363.99 85.58
  Q 360.94 99.56 357.57 116.04
  A 0.59 0.59 0.0 0 1 356.99 116.51
  L 340.84 116.50
  A 0.36 0.35 5.4 0 1 340.49 116.08
  L 353.52 53.97
  A 0.52 0.52 0.0 0 1 354.03 53.55
  L 369.31 53.55
  A 0.42 0.42 0.0 0 1 369.72 54.07
  L 368.30 60.32
  Z"
/>
<path fill="#00ffff" d="
  M 147.30 53.91
  L 134.23 116.27
  A 0.30 0.30 0.0 0 1 133.94 116.51
  L 117.51 116.50
  A 0.30 0.30 0.0 0 1 117.22 116.14
  L 130.28 53.79
  A 0.30 0.30 0.0 0 1 130.57 53.55
  L 147.01 53.55
  A 0.30 0.30 0.0 0 1 147.30 53.91
  Z"
/>
<path fill="#66ff00" d="
  M 596.37 152.68
  L 0.77 152.68
  A 0.50 0.50 0.0 0 1 0.27 152.11
  L 3.00 133.71
  A 0.50 0.50 0.0 0 1 3.49 133.28
  L 599.10 133.28
  A 0.50 0.50 0.0 0 1 599.59 133.85
  L 596.86 152.25
  A 0.50 0.50 0.0 0 1 596.37 152.68
  Z"
/>
<path fill="#ffffff" d="
  M 214.84 202.97
  Q 215.38 204.43 215.92 202.97
  L 223.10 183.59
  A 0.66 0.65 23.3 0 1 224.01 183.23
  L 226.49 184.44
  Q 227.00 184.69 226.80 185.22
  L 217.10 211.41
  Q 216.94 211.83 216.51 211.95
  Q 215.51 212.22 214.34 212.05
  Q 213.87 211.99 213.70 211.54
  L 203.83 184.98
  Q 203.72 184.70 203.99 184.57
  L 206.99 183.06
  A 0.36 0.36 0.0 0 1 207.49 183.25
  L 214.84 202.97
  Z"
/>
<path fill="#ffffff" d="
  M 36.40 193.21
  C 42.27 195.03 43.15 202.30 40.87 207.04
  C 38.20 212.58 31.03 213.58 26.09 211.06
  Q 23.33 209.66 21.87 205.20
  Q 21.79 204.95 22.01 204.81
  L 24.87 202.99
  Q 25.15 202.80 25.30 203.11
  L 26.92 206.42
  Q 27.19 206.95 27.71 207.24
  C 31.49 209.27 36.75 208.38 37.84 203.62
  Q 38.50 200.74 36.96 198.39
  C 35.57 196.27 31.00 197.00 28.88 197.18
  Q 27.92 197.26 28.48 196.47
  L 34.56 188.10
  A 0.36 0.36 0.0 0 0 34.26 187.53
  L 25.29 187.61
  A 0.57 0.57 0.0 0 1 24.72 187.04
  L 24.72 184.00
  Q 24.72 183.46 25.25 183.46
  L 42.25 183.42
  A 0.36 0.36 0.0 0 1 42.54 183.99
  L 36.23 192.70
  A 0.33 0.33 0.0 0 0 36.40 193.21
  Z"
/>
<path fill="#ffffff" d="
  M 279.71 188.16
  L 279.71 211.70
  Q 279.71 212.10 279.30 212.10
  L 276.04 212.10
  Q 275.73 212.10 275.73 211.79
  L 275.73 188.26
  Q 275.73 187.54 275.01 187.55
  L 268.55 187.62
  A 0.59 0.58 -84.8 0 1 267.97 186.92
  Q 268.23 185.56 268.03 184.23
  Q 267.92 183.48 268.68 183.48
  L 287.00 183.44
  Q 287.31 183.44 287.31 183.75
  L 287.30 187.43
  Q 287.30 187.65 287.07 187.65
  L 280.34 187.55
  Q 279.71 187.54 279.71 188.16
  Z"
/>
<path fill="#ffffff" d="
  M 324.65 204.78
  L 321.94 212.07
  Q 321.64 212.91 320.84 212.50
  L 318.57 211.32
  Q 318.00 211.02 318.23 210.42
  L 328.01 184.05
  Q 328.17 183.63 328.59 183.50
  Q 329.51 183.23 330.57 183.39
  Q 331.08 183.48 331.26 183.96
  Q 336.27 197.56 341.20 210.83
  Q 341.29 211.06 341.07 211.17
  Q 341.62 210.90 337.86 212.73
  Q 337.67 212.82 337.60 212.63
  L 334.48 204.53
  Q 334.29 204.05 333.77 204.05
  L 325.68 204.07
  Q 324.92 204.07 324.65 204.78
  Z
  M 327.15 200.03
  C 328.90 199.74 330.49 200.12 332.16 200.00
  Q 332.92 199.95 332.62 199.25
  Q 331.11 195.72 330.25 192.52
  Q 329.80 190.88 329.21 192.48
  L 326.63 199.39
  Q 326.34 200.16 327.15 200.03
  Z"
/>
<path fill="#ffffff" d="
  M 56.30 208.26
  L 67.77 208.21
  Q 68.33 208.21 68.34 208.77
  L 68.39 211.93
  Q 68.39 212.28 68.04 212.28
  L 46.79 212.31
  Q 45.83 212.31 46.51 211.63
  Q 53.43 204.65 59.44 198.23
  Q 61.79 195.72 63.38 192.22
  Q 63.61 191.71 63.49 191.16
  Q 62.70 187.82 59.55 187.54
  Q 53.61 186.99 53.75 192.99
  A 0.25 0.25 0.0 0 1 53.50 193.25
  L 50.04 193.24
  Q 49.77 193.24 49.76 192.97
  Q 49.47 186.13 55.15 183.88
  Q 56.75 183.24 59.31 183.32
  C 65.56 183.52 69.51 189.76 66.42 195.38
  C 63.85 200.06 59.79 203.94 56.04 207.61
  Q 55.38 208.26 56.30 208.26
  Z"
/>
<path fill="#ffffff" d="
  M 128.71 197.63
  Q 131.88 201.37 130.81 206.00
  Q 129.62 211.12 124.35 211.99
  Q 120.32 212.67 111.60 212.23
  Q 111.15 212.21 111.15 211.76
  L 111.15 184.01
  Q 111.15 183.43 111.74 183.43
  Q 117.26 183.48 122.72 183.44
  C 124.29 183.43 125.38 184.19 126.84 184.55
  Q 127.69 184.75 128.27 185.38
  Q 133.55 191.09 128.71 196.89
  Q 128.40 197.26 128.71 197.63
  Z
  M 115.16 188.02
  L 115.14 194.78
  A 0.49 0.49 0.0 0 0 115.63 195.27
  L 121.98 195.28
  A 4.96 3.79 0.1 0 0 126.95 191.50
  L 126.95 191.34
  A 4.96 3.79 0.1 0 0 122.00 187.54
  L 115.65 187.53
  A 0.49 0.49 0.0 0 0 115.16 188.02
  Z
  M 115.17 199.68
  L 115.15 207.88
  A 0.35 0.35 0.0 0 0 115.50 208.23
  L 122.40 208.24
  A 4.55 4.17 0.1 0 0 126.96 204.08
  L 126.96 203.52
  A 4.55 4.17 0.1 0 0 122.42 199.34
  L 115.52 199.33
  A 0.35 0.35 0.0 0 0 115.17 199.68
  Z"
/>
<path fill="#ffffff" d="
  M 158.86 187.55
  L 151.99 187.64
  A 0.39 0.39 0.0 0 1 151.59 187.24
  L 151.60 183.86
  A 0.39 0.39 0.0 0 1 151.99 183.47
  L 170.40 183.46
  A 0.39 0.39 0.0 0 1 170.79 183.85
  L 170.77 187.27
  A 0.39 0.39 0.0 0 1 170.38 187.65
  L 163.65 187.55
  A 0.39 0.39 0.0 0 0 163.25 187.94
  L 163.25 211.68
  A 0.39 0.39 0.0 0 1 162.86 212.07
  L 159.64 212.10
  A 0.39 0.39 0.0 0 1 159.25 211.71
  L 159.25 187.94
  A 0.39 0.39 0.0 0 0 158.86 187.55
  Z"
/>
<path fill="#ffffff" d="
  M 257.46 199.56
  L 264.10 210.35
  Q 264.31 210.70 263.97 210.91
  L 261.21 212.63
  Q 260.82 212.87 260.59 212.48
  L 252.98 199.93
  Q 252.60 199.31 251.87 199.31
  L 248.46 199.35
  Q 247.78 199.36 247.78 200.04
  L 247.77 211.82
  Q 247.77 212.15 247.43 212.15
  L 244.11 212.11
  Q 243.77 212.11 243.77 211.77
  L 243.77 184.03
  Q 243.77 183.54 244.26 183.52
  Q 251.41 183.24 256.35 183.64
  Q 260.28 183.96 262.33 187.04
  C 265.27 191.47 263.11 197.83 257.81 198.76
  Q 257.05 198.89 257.46 199.56
  Z
  M 247.77 187.91
  L 247.77 194.91
  A 0.35 0.35 0.0 0 0 248.12 195.26
  L 254.74 195.26
  A 4.85 3.64 0.0 0 0 259.59 191.62
  L 259.59 191.20
  A 4.85 3.64 -0.0 0 0 254.74 187.56
  L 248.12 187.56
  A 0.35 0.35 0.0 0 0 247.77 187.91
  Z"
/>
<path fill="#ffffff" d="
  M 413.64 193.75
  C 412.12 189.99 410.32 186.84 405.57 187.57
  C 402.49 188.04 400.56 191.82 400.01 194.54
  Q 398.72 200.83 401.91 205.67
  Q 403.69 208.35 406.94 208.34
  C 410.68 208.32 412.56 204.90 413.71 201.84
  Q 413.79 201.63 413.98 201.74
  L 417.03 203.59
  Q 417.32 203.77 417.20 204.09
  Q 415.86 207.63 413.27 210.09
  Q 410.85 212.39 407.20 212.45
  Q 400.17 212.55 397.25 205.63
  Q 393.91 197.71 397.25 190.09
  C 398.44 187.37 400.67 184.71 403.45 183.82
  Q 405.26 183.24 407.96 183.36
  C 412.55 183.58 415.74 187.60 417.17 191.76
  Q 417.26 192.03 417.01 192.18
  L 414.14 193.92
  A 0.35 0.35 0.0 0 1 413.64 193.75
  Z"
/>
<path fill="#ffffff" d="
  M 435.0600 212.6300
  A 14.75 11.39 90.0 0 1 423.6700 197.8800
  A 14.75 11.39 90.0 0 1 435.0600 183.1300
  A 14.75 11.39 90.0 0 1 446.4500 197.8800
  A 14.75 11.39 90.0 0 1 435.0600 212.6300
  Z
  M 435.0984 208.4500
  A 10.57 7.27 89.9 0 0 442.3500 197.8673
  A 10.57 7.27 89.9 0 0 435.0616 187.3100
  A 10.57 7.27 89.9 0 0 427.8100 197.8927
  A 10.57 7.27 89.9 0 0 435.0984 208.4500
  Z"
/>
<path fill="#ffffff" d="
  M 487.05 191.52
  Q 487.18 191.98 487.93 192.80
  C 489.29 194.29 493.59 195.47 495.61 196.07
  Q 502.21 198.03 502.84 204.31
  Q 503.16 207.49 500.89 209.55
  Q 498.43 211.79 495.02 212.24
  Q 486.73 213.33 482.48 207.14
  Q 482.30 206.87 482.52 206.64
  L 484.83 204.05
  A 0.35 0.35 0.0 0 1 485.38 204.09
  C 488.38 208.59 493.30 209.62 497.93 206.77
  A 1.22 1.20 -10.0 0 0 498.47 206.01
  Q 499.29 202.36 496.44 200.93
  C 490.99 198.18 484.06 198.53 482.75 190.86
  Q 482.34 188.44 484.23 186.59
  Q 486.79 184.10 490.18 183.56
  Q 498.46 182.26 502.97 188.49
  Q 503.41 189.08 502.80 189.51
  Q 501.77 190.23 501.10 191.28
  A 0.79 0.79 0.0 0 1 499.76 191.27
  Q 496.30 185.67 488.69 188.33
  Q 486.36 189.15 487.05 191.52
  Z"
/>
<path fill="#ffffff" d="
  M 515.64 211.88
  C 509.12 208.69 507.34 201.09 508.42 194.27
  C 509.14 189.74 512.91 183.12 518.19 183.42
  C 520.03 183.52 521.76 183.08 523.46 184.08
  Q 526.85 186.08 528.17 188.48
  Q 533.16 197.56 528.39 207.00
  C 527.14 209.45 523.75 212.47 520.62 212.33
  C 519.00 212.25 517.12 212.61 515.64 211.88
  Z
  M 519.3800 208.4500
  A 10.56 7.27 90.0 0 0 526.6500 197.8900
  A 10.56 7.27 90.0 0 0 519.3800 187.3300
  A 10.56 7.27 90.0 0 0 512.1100 197.8900
  A 10.56 7.27 90.0 0 0 519.3800 208.4500
  Z"
/>
<path fill="#ffffff" d="
  M 564.04 188.08
  L 564.06 194.81
  A 0.47 0.47 0.0 0 0 564.53 195.28
  L 572.26 195.23
  A 0.47 0.47 0.0 0 1 572.73 195.70
  L 572.76 198.92
  A 0.47 0.47 0.0 0 1 572.28 199.40
  L 564.52 199.32
  A 0.47 0.47 0.0 0 0 564.04 199.80
  L 564.08 207.77
  A 0.47 0.47 0.0 0 0 564.55 208.24
  L 577.84 208.21
  A 0.47 0.47 0.0 0 1 578.31 208.67
  L 578.39 211.82
  A 0.47 0.47 0.0 0 1 577.92 212.30
  L 560.54 212.30
  A 0.47 0.47 0.0 0 1 560.07 211.83
  L 560.08 183.87
  A 0.47 0.47 0.0 0 1 560.56 183.40
  L 577.82 183.65
  A 0.47 0.47 0.0 0 1 578.28 184.12
  L 578.29 187.00
  A 0.47 0.47 0.0 0 1 577.82 187.47
  L 564.51 187.61
  A 0.47 0.47 0.0 0 0 564.04 188.08
  Z"
/>
<rect fill="#ffffff" x="139.57" y="183.73" width="4.16" height="28.38" rx="0.40"/>
<rect fill="#ffffff" x="232.26" y="183.73" width="4.18" height="28.36" rx="0.45"/>
<path fill="#ffffff" d="
  M 302.14 208.11
  C 305.86 208.69 308.82 206.01 308.84 202.22
  Q 308.88 192.88 308.83 183.97
  Q 308.83 183.74 309.06 183.74
  L 312.71 183.74
  Q 312.93 183.74 312.93 183.95
  Q 312.96 192.98 312.92 202.00
  C 312.90 207.04 309.85 211.35 304.73 212.15
  Q 299.36 213.00 295.56 209.02
  C 294.26 207.65 293.23 204.86 293.21 203.00
  Q 293.16 193.49 293.21 184.01
  A 0.29 0.28 -89.0 0 1 293.50 183.72
  L 296.96 183.74
  Q 297.16 183.74 297.16 183.94
  Q 297.24 192.29 297.16 200.89
  C 297.13 204.48 298.19 207.50 302.14 208.11
  Z"
/>
<path fill="#ffffff" d="
  M 350.64 208.25
  L 361.55 208.20
  A 0.39 0.39 0.0 0 1 361.94 208.58
  L 362.00 211.89
  A 0.39 0.39 0.0 0 1 361.61 212.29
  L 346.71 212.30
  A 0.39 0.39 0.0 0 1 346.32 211.91
  L 346.32 184.11
  A 0.39 0.39 0.0 0 1 346.71 183.72
  L 349.86 183.71
  A 0.39 0.39 0.0 0 1 350.25 184.10
  L 350.25 207.86
  A 0.39 0.39 0.0 0 0 350.64 208.25
  Z"
/>
<path fill="#ffffff" d="
  M 468.80 202.36
  Q 469.51 203.47 469.50 202.15
  L 469.48 183.99
  A 0.28 0.27 -0.0 0 1 469.76 183.72
  L 473.23 183.72
  A 0.26 0.26 0.0 0 1 473.49 183.98
  L 473.49 211.55
  Q 473.49 212.10 472.94 212.10
  L 470.66 212.07
  A 0.80 0.79 74.1 0 1 470.01 211.70
  L 458.28 193.36
  Q 457.60 192.30 457.61 193.56
  L 457.66 211.65
  Q 457.66 212.11 457.20 212.10
  L 454.21 212.04
  Q 453.63 212.03 453.63 211.46
  L 453.63 184.30
  Q 453.63 183.72 454.20 183.72
  L 456.28 183.72
  Q 456.94 183.72 457.29 184.28
  L 468.80 202.36
  Z"
/>
<path fill="#ffffff" d="
  M 542.45 208.24
  L 553.38 208.20
  A 0.34 0.34 0.0 0 1 553.73 208.54
  L 553.78 211.94
  A 0.34 0.34 0.0 0 1 553.44 212.29
  L 538.57 212.30
  A 0.34 0.34 0.0 0 1 538.23 211.96
  L 538.23 184.06
  A 0.34 0.34 0.0 0 1 538.57 183.72
  L 541.79 183.73
  A 0.34 0.34 0.0 0 1 542.13 184.07
  L 542.11 207.90
  A 0.34 0.34 0.0 0 0 542.45 208.24
  Z"
/>
<rect fill="#ffffff" x="-12.26" y="-2.59" transform="translate(89.21,198.07) rotate(0.1)" width="24.52" height="5.18" rx="0.41"/>
</svg>
