<?xml version="1.0" encoding="UTF-8" standalone="no"?>
<!DOCTYPE svg PUBLIC "-//W3C//DTD SVG 1.1//EN" "http://www.w3.org/Graphics/SVG/1.1/DTD/svg11.dtd">
<svg xmlns="http://www.w3.org/2000/svg" version="1.1" viewBox="0 0 600 300">
<path stroke="#000000" stroke-width="2.00" fill="none" stroke-linecap="butt" vector-effect="non-scaling-stroke" d="
  M 91.50 69.04
  L 91.29 69.00"
/>
<path fill="#000000" d="
  M 263.66 137.59
  C 255.61 98.76 281.25 61.74 320.54 55.65
  C 350.10 51.07 377.24 66.86 391.38 92.71
  A 0.70 0.70 75.6 0 1 390.77 93.75
  L 379.09 93.75
  A 2.60 2.60 -16.5 0 1 376.91 92.57
  C 356.68 61.49 312.01 58.90 288.03 87.02
  Q 273.14 104.48 274.50 127.25
  C 276.49 160.63 308.53 185.18 341.10 178.50
  C 358.03 175.03 371.83 164.43 380.08 149.10
  A 1.15 1.13 13.8 0 1 381.09 148.50
  L 393.39 148.50
  A 0.34 0.34 11.3 0 1 393.71 148.97
  C 382.04 176.49 355.67 193.58 325.75 191.75
  C 295.34 189.89 269.84 167.40 263.66 137.59
  Z"
/>
<path fill="#000000" d="
  M 91.50 69.04
  L 91.29 69.00
  Q 90.91 67.51 89.43 67.33
  A 1.78 1.06 -10.3 0 1 88.55 67.00
  Q 83.04 62.40 87.54 58.06
  C 93.54 52.29 101.88 61.70 94.70 67.15
  C 93.77 67.86 92.51 68.08 91.50 69.04
  Z"
/>
<path fill="#000000" d="
  M 189.05 153.32
  L 188.77 188.89
  A 0.87 0.84 -89.7 0 1 187.93 189.75
  L 175.93 189.70
  A 0.70 0.69 -89.6 0 1 175.25 189.00
  L 175.25 58.92
  A 0.95 0.94 0.6 0 1 176.22 57.98
  Q 191.00 58.25 205.01 58.27
  Q 216.16 58.28 221.38 59.60
  C 264.23 70.47 269.17 131.49 228.13 148.83
  C 216.04 153.94 202.33 152.64 189.57 152.81
  A 0.52 0.51 0.0 0 0 189.05 153.32
  Z
  M 242.14 93.20
  C 237.53 80.33 225.07 70.99 211.50 70.50
  Q 200.63 70.11 189.29 70.26
  A 0.55 0.54 90.0 0 0 188.75 70.81
  L 188.75 138.72
  A 1.45 1.44 89.0 0 0 190.24 140.17
  Q 199.53 139.86 209.50 140.06
  C 234.18 140.54 250.17 115.60 242.14 93.20
  Z"
/>
<path fill="#000000" d="
  M 530.43 148.56
  L 507.45 189.25
  A 1.50 1.46 14.2 0 1 506.15 190.00
  L 478.00 190.00
  A 0.60 0.59 14.8 0 1 477.48 189.11
  L 515.85 122.02
  A 1.27 1.26 -45.6 0 0 515.84 120.77
  C 512.63 115.18 481.12 59.71 480.73 59.79
  A 0.82 0.50 86.0 0 0 480.33 60.56
  L 480.44 83.66
  A 0.60 0.58 -0.5 0 1 479.84 84.25
  L 440.44 84.25
  A 0.69 0.69 0.0 0 0 439.75 84.94
  L 439.75 107.58
  A 0.67 0.67 -0.2 0 0 440.42 108.25
  L 477.94 108.31
  A 0.52 0.51 -0.6 0 1 478.46 108.81
  L 478.72 132.82
  A 1.15 1.09 -0.2 0 1 477.56 133.93
  L 440.74 133.76
  A 0.99 0.99 0.0 0 0 439.75 134.75
  L 439.75 189.06
  A 0.94 0.94 0.0 0 1 438.81 190.00
  L 415.70 190.00
  A 0.95 0.95 0.0 0 1 414.75 189.05
  L 414.75 58.86
  A 0.86 0.86 -0.4 0 1 415.61 58.00
  L 509.41 58.00
  A 0.87 0.84 -14.0 0 1 510.16 58.43
  L 530.59 94.35
  Q 531.10 95.23 531.59 94.35
  L 551.89 58.78
  A 1.54 1.53 14.6 0 1 553.23 58.00
  L 581.59 58.00
  A 0.46 0.46 -75.2 0 1 581.99 58.69
  L 546.63 120.57
  A 1.65 1.65 -44.7 0 0 546.63 122.21
  L 584.86 189.22
  A 0.48 0.48 74.8 0 1 584.45 189.94
  L 556.17 190.00
  A 1.56 1.54 74.8 0 1 554.83 189.22
  L 531.68 148.55
  Q 531.05 147.45 530.43 148.56
  Z"
/>
<path fill="#000000" d="
  M 91.29 69.00
  L 91.50 69.04
  L 91.44 97.08
  A 0.66 0.66 1.3 0 0 92.08 97.75
  C 111.87 98.44 133.44 105.14 143.96 123.55
  A 0.52 0.51 -32.6 0 0 144.71 123.71
  C 153.71 117.19 158.86 100.36 151.31 90.47
  C 143.42 80.13 128.18 71.66 116.00 69.50
  Q 109.54 68.36 102.91 66.40
  Q 101.18 65.89 101.27 64.09
  C 101.54 58.47 105.91 59.61 110.05 60.35
  C 131.42 64.18 165.02 77.74 162.50 105.25
  Q 161.57 115.35 155.37 123.90
  C 151.26 129.56 148.72 133.38 145.10 137.86
  Q 143.33 140.05 141.75 143.22
  C 138.55 149.61 133.28 154.91 129.77 161.13
  Q 127.92 164.40 125.66 167.40
  C 121.89 172.41 118.87 177.64 114.36 182.15
  A 0.89 0.82 29.1 0 1 113.52 182.35
  C 111.73 181.86 109.53 183.23 110.83 179.79
  Q 111.49 178.03 109.62 178.41
  L 99.74 180.42
  A 1.24 0.60 -3.3 0 0 98.92 180.88
  L 98.78 181.14
  A 0.51 0.38 -71.7 0 1 98.38 181.42
  C 84.50 180.63 72.32 183.00 62.62 170.83
  A 1.88 1.10 -79.4 0 1 62.30 169.94
  Q 62.15 168.70 60.94 169.69
  Q 59.41 170.93 53.00 174.00
  Q 51.48 174.73 52.07 176.54
  A 1.39 1.19 8.9 0 0 52.68 177.25
  L 90.64 198.46
  A 2.16 2.09 -44.5 0 0 92.73 198.44
  L 109.07 189.24
  A 1.92 1.23 -79.4 0 0 109.72 188.55
  C 110.59 187.06 112.00 187.24 113.17 186.57
  Q 138.72 172.05 164.81 157.08
  A 0.46 0.46 75.0 0 1 165.50 157.48
  L 165.50 194.23
  A 1.09 1.09 -14.5 0 1 164.94 195.18
  L 92.43 236.48
  A 1.49 1.47 44.7 0 1 90.96 236.48
  L 19.15 195.55
  A 2.76 2.75 -75.3 0 1 17.75 193.15
  L 17.56 110.06
  A 1.41 1.41 -14.2 0 1 18.30 108.82
  Q 47.85 92.84 77.40 76.88
  C 81.30 74.78 86.89 72.30 91.29 69.00
  Z
  M 137.63 129.53
  C 131.30 112.39 109.88 106.53 93.72 105.77
  C 92.74 105.72 90.71 105.27 91.73 107.08
  A 1.87 1.28 40.3 0 1 91.98 107.99
  L 91.33 125.77
  A 0.95 0.94 2.4 0 0 92.24 126.75
  Q 109.34 127.39 124.73 137.68
  A 1.30 1.29 51.0 0 0 125.91 137.81
  Q 132.36 135.34 137.19 131.20
  A 1.52 1.51 59.9 0 0 137.63 129.53
  Z
  M 115.45 140.98
  Q 104.75 135.00 92.07 134.82
  A 0.43 0.41 -3.9 0 0 91.64 135.30
  C 92.10 138.08 92.43 141.45 91.48 144.15
  C 89.78 148.96 112.96 143.84 115.20 143.18
  Q 117.93 142.37 115.45 140.98
  Z
  M 131.33 145.73
  L 133.50 142.75
  Q 134.71 141.09 132.94 142.19
  C 131.58 143.02 128.17 143.99 130.08 145.83
  A 0.83 0.83 -49.5 0 0 131.33 145.73
  Z
  M 111.07 151.67
  C 110.94 152.71 115.52 154.71 116.88 155.92
  A 1.05 0.98 58.5 0 0 117.75 156.16
  C 120.70 155.56 124.86 152.77 123.36 149.14
  A 1.34 1.27 -18.2 0 0 121.80 148.40
  L 111.69 151.08
  A 0.85 0.63 -7.2 0 0 111.07 151.67
  Z
  M 105.81 158.94
  Q 95.54 155.68 86.31 156.28
  A 1.55 1.37 -64.6 0 0 85.44 156.65
  C 84.42 157.55 79.14 159.57 80.43 160.86
  A 1.46 1.06 -14.1 0 0 81.32 161.22
  Q 93.80 162.08 106.19 160.50
  A 0.77 0.55 -3.1 0 0 106.85 159.97
  Q 106.92 159.29 105.81 158.94
  Z
  M 119.3530 164.1991
  A 1.31 0.63 125.3 0 0 120.6242 163.4941
  A 1.31 0.63 125.3 0 0 120.8670 162.0609
  A 1.31 0.63 125.3 0 0 119.5958 162.7659
  A 1.31 0.63 125.3 0 0 119.3530 164.1991
  Z
  M 105.00 168.50
  C 95.25 170.45 84.50 169.61 73.78 168.25
  A 0.91 0.90 -80.4 0 0 72.78 168.97
  C 72.46 170.56 75.86 168.76 76.26 171.15
  A 0.89 0.88 2.7 0 0 76.89 171.84
  Q 93.86 176.38 109.41 170.08
  C 110.26 169.74 111.32 169.88 112.11 169.32
  Q 112.56 169.01 112.04 168.82
  Q 108.94 167.71 105.00 168.50
  Z"
/>
<path fill="#000000" d="
  M 385.41 133.01
  C 386.45 124.58 386.54 117.43 384.32 109.24
  A 0.78 0.78 82.3 0 1 385.07 108.25
  L 403.04 108.25
  A 1.21 1.21 -88.5 0 1 404.25 109.46
  L 404.19 133.26
  A 0.56 0.56 0.5 0 1 403.62 133.82
  L 386.07 133.76
  A 0.67 0.66 4.2 0 1 385.41 133.01
  Z"
/>
<path fill="#000000" d="
  M 551.19 201.50
  Q 556.28 198.18 561.35 203.69
  A 1.03 0.64 38.9 0 1 561.65 204.56
  C 561.44 205.15 560.51 204.62 560.15 204.28
  Q 555.92 200.27 551.67 203.03
  C 544.13 207.93 552.28 219.56 559.80 212.56
  C 561.57 210.91 562.39 212.26 560.83 213.80
  C 552.55 221.99 540.44 208.51 551.19 201.50
  Z"
/>
<path fill="#000000" d="
  M 242.14 204.28
  L 237.19 215.94
  Q 236.54 217.46 235.81 215.69
  L 231.10 204.23
  A 0.71 0.46 70.7 0 0 230.48 203.75
  Q 230.35 203.78 230.23 203.88
  A 0.60 0.36 77.7 0 0 230.08 204.32
  L 230.21 215.19
  A 0.80 0.73 80.5 0 1 229.74 215.92
  Q 228.76 216.29 228.75 214.75
  Q 228.71 208.03 228.80 201.32
  A 0.69 0.61 85.4 0 1 229.29 200.67
  C 231.92 200.09 235.27 210.38 236.00 212.33
  Q 236.66 214.06 237.31 212.33
  Q 239.32 206.94 241.76 201.76
  Q 242.50 200.20 244.04 200.79
  A 0.82 0.73 -82.3 0 1 244.52 201.51
  C 244.59 203.11 245.70 216.78 243.50 215.93
  A 0.85 0.69 -82.1 0 1 243.05 215.19
  C 242.97 211.24 243.20 204.34 242.77 203.94
  A 0.52 0.34 -61.2 0 0 242.14 204.28
  Z"
/>
<path fill="#000000" d="
  M 311.90 203.46
  Q 311.49 202.90 311.49 203.60
  L 311.45 215.19
  A 0.71 0.66 82.4 0 1 310.98 215.86
  C 309.28 216.38 310.00 214.42 309.99 213.63
  Q 309.93 207.60 310.05 201.57
  A 0.87 0.76 80.1 0 1 310.50 200.82
  C 312.45 199.93 318.07 209.62 319.42 211.62
  Q 320.78 213.65 320.63 211.22
  C 320.59 210.65 319.65 199.35 321.63 200.91
  A 1.11 1.02 -72.6 0 1 322.03 201.76
  L 322.21 214.94
  A 1.00 0.87 76.1 0 1 321.80 215.75
  Q 320.74 216.40 319.81 214.94
  Q 315.99 208.95 311.90 203.46
  Z"
/>
<path fill="#000000" d="
  M 328.81 203.06
  L 328.69 215.19
  A 0.90 0.69 80.8 0 1 328.28 215.96
  C 326.20 216.97 326.99 204.81 327.01 203.31
  A 0.77 0.77 6.1 0 0 326.40 202.56
  Q 323.34 201.89 323.92 200.87
  A 1.00 0.60 9.6 0 1 324.74 200.55
  L 331.25 200.77
  A 1.02 0.64 -6.8 0 1 332.05 201.15
  Q 332.40 201.82 331.49 202.13
  A 1.62 0.63 25.9 0 1 330.53 202.05
  Q 329.79 201.83 329.18 202.24
  A 1.07 0.80 77.6 0 0 328.81 203.06
  Z"
/>
<rect fill="#000000" x="-0.87" y="-7.70" transform="translate(380.63,208.30) rotate(-0.1)" width="1.74" height="15.40" rx="0.85"/>
<path fill="#000000" d="
  M 386.05 204.20
  L 386.00 215.00
  A 1.16 0.95 75.1 0 1 385.62 215.84
  C 383.24 217.71 384.37 202.57 384.42 201.44
  A 0.75 0.66 84.4 0 1 384.91 200.76
  C 385.90 200.50 386.44 200.71 387.04 201.55
  Q 390.84 206.86 394.06 212.03
  Q 395.00 213.54 395.00 211.76
  Q 395.00 206.92 395.00 202.08
  C 395.00 199.89 396.73 200.21 396.76 202.04
  Q 396.88 208.64 396.51 215.09
  Q 396.36 217.66 394.94 215.57
  L 387.06 203.93
  Q 386.05 202.45 386.05 204.20
  Z"
/>
<path fill="#000000" d="
  M 432.41 204.39
  Q 430.92 202.13 430.94 204.79
  L 431.00 215.00
  A 1.19 0.84 76.0 0 1 430.66 215.87
  Q 430.15 216.29 429.59 215.85
  A 1.15 0.85 -75.3 0 1 429.25 215.00
  L 429.30 201.57
  A 0.85 0.73 80.6 0 1 429.75 200.83
  C 432.00 199.91 437.57 209.79 438.61 211.53
  Q 440.00 213.82 440.00 211.14
  Q 440.00 206.38 440.01 201.75
  Q 440.01 200.20 441.07 200.73
  A 0.90 0.78 -78.3 0 1 441.50 201.50
  L 441.50 214.52
  Q 441.50 218.24 439.50 215.19
  L 432.41 204.39
  Z"
/>
<path fill="#000000" d="
  M 489.26 210.83
  L 484.30 210.88
  A 1.02 0.75 11.3 0 0 483.53 211.24
  C 482.76 212.45 482.20 214.72 481.30 215.60
  C 479.46 217.38 480.12 214.58 480.41 213.94
  Q 483.31 207.53 486.06 201.06
  Q 486.95 198.97 487.94 201.06
  Q 491.05 207.68 493.86 214.45
  C 494.96 217.09 492.84 216.27 492.35 214.73
  Q 491.68 212.61 490.12 211.09
  A 1.33 0.76 -13.1 0 0 489.26 210.83
  Z
  M 486.44 203.69
  C 486.00 204.82 483.11 209.94 485.74 209.47
  Q 486.51 209.33 487.29 209.41
  Q 490.59 209.72 489.52 207.82
  Q 488.37 205.80 487.69 203.56
  Q 487.16 201.82 486.44 203.69
  Z"
/>
<path fill="#000000" d="
  M 499.28 208.33
  C 499.91 207.39 503.60 199.53 504.73 200.82
  A 0.85 0.70 -52.7 0 1 504.76 201.70
  L 500.24 210.07
  Q 500.01 210.49 500.01 210.99
  L 499.96 215.18
  A 0.73 0.68 83.1 0 1 499.47 215.86
  Q 497.71 216.36 498.31 213.45
  Q 498.67 211.72 497.90 210.12
  Q 495.81 205.83 493.72 202.30
  C 492.46 200.15 494.38 199.97 495.18 201.53
  Q 496.92 204.95 498.76 208.32
  A 0.31 0.30 -43.1 0 0 499.28 208.33
  Z"
/>
<path fill="#000000" d="
  M 584.93 209.80
  A 0.27 0.27 47.5 0 0 584.48 209.78
  Q 582.55 212.56 580.61 215.38
  C 579.55 216.93 577.96 216.26 579.37 214.42
  Q 581.05 212.24 583.10 208.70
  A 1.54 1.54 42.3 0 0 583.02 207.03
  C 582.69 206.57 578.17 200.91 579.44 200.61
  A 1.05 0.78 55.4 0 1 580.30 200.90
  Q 582.66 203.15 583.92 205.88
  Q 584.48 207.09 585.18 205.95
  C 585.84 204.86 588.04 200.78 589.41 200.60
  Q 590.59 200.44 589.94 201.43
  L 585.68 207.81
  A 0.79 0.78 -47.3 0 0 585.71 208.72
  C 586.00 209.10 592.63 217.45 589.33 216.00
  C 588.07 215.45 585.66 211.12 584.93 209.80
  Z"
/>
<path fill="#000000" d="
  M 176.30 204.06
  L 176.41 214.94
  A 1.04 0.82 75.7 0 1 176.05 215.75
  Q 174.69 216.74 174.70 214.50
  C 174.74 210.45 174.94 206.27 174.69 202.24
  Q 174.56 200.05 176.73 200.87
  A 1.24 1.13 86.5 0 1 177.40 201.52
  L 182.32 212.51
  Q 182.83 213.63 183.32 212.48
  L 188.07 201.40
  A 1.28 1.14 4.1 0 1 188.97 200.71
  C 191.12 200.28 190.75 201.93 190.75 203.30
  C 190.76 204.07 191.54 217.86 189.38 215.82
  A 1.27 1.00 -72.5 0 1 189.05 214.94
  L 189.16 204.31
  A 0.58 0.33 85.5 0 0 188.73 203.68
  C 188.43 203.79 183.96 214.47 183.37 215.69
  Q 182.73 217.01 182.07 215.70
  C 181.39 214.34 177.08 203.78 176.80 203.62
  A 0.43 0.34 -79.6 0 0 176.30 204.06
  Z"
/>
<path fill="#000000" d="
  M 199.52 214.74
  C 203.68 214.14 202.60 205.39 202.35 201.81
  A 1.29 0.81 73.5 0 1 202.60 200.92
  Q 203.08 200.44 203.65 200.89
  A 1.21 0.86 -76.7 0 1 204.00 201.76
  C 204.00 206.26 205.78 215.55 199.33 216.24
  C 192.43 216.97 193.34 208.05 193.48 203.10
  C 193.51 202.21 193.03 200.30 194.73 200.87
  A 0.78 0.69 -82.0 0 1 195.20 201.57
  C 195.31 205.87 193.53 215.61 199.52 214.74
  Z"
/>
<path fill="#000000" d="
  M 209.31 214.45
  L 213.93 214.55
  A 1.03 0.84 -12.3 0 1 214.74 214.96
  C 215.85 216.77 208.91 215.99 208.03 216.04
  A 0.97 0.96 -1.7 0 1 207.00 215.08
  L 207.05 201.57
  A 0.70 0.61 85.5 0 1 207.54 200.91
  Q 208.99 200.61 208.75 203.00
  Q 208.57 204.75 208.80 213.94
  A 0.52 0.52 0.0 0 0 209.31 214.45
  Z"
/>
<path fill="#000000" d="
  M 216.69 202.31
  L 214.92 202.15
  A 1.23 1.15 71.6 0 1 214.09 201.70
  C 212.91 200.24 219.65 200.74 221.94 200.80
  A 0.67 0.51 -0.3 0 1 222.59 201.29
  Q 222.62 202.22 220.05 202.16
  A 0.80 0.79 -89.3 0 0 219.24 202.96
  L 219.20 214.93
  A 1.26 1.08 71.4 0 1 218.85 215.80
  Q 217.57 217.06 217.62 214.50
  Q 217.73 208.64 217.23 202.81
  A 0.61 0.54 0.9 0 0 216.69 202.31
  Z"
/>
<rect fill="#000000" x="224.00" y="200.74" width="1.76" height="15.26" rx="0.66"/>
<path fill="#000000" d="
  M 249.82 214.45
  L 254.93 214.55
  A 1.46 0.93 -13.5 0 1 255.83 214.86
  C 257.66 216.60 248.86 216.00 248.41 216.00
  A 0.91 0.91 0.0 0 1 247.50 215.09
  L 247.50 201.25
  A 0.50 0.50 0.0 0 1 248.00 200.75
  C 248.81 200.75 256.75 200.17 255.86 201.66
  A 1.18 0.94 7.3 0 1 255.07 202.14
  C 253.64 202.35 248.12 201.15 249.05 203.80
  Q 249.15 204.07 249.16 204.74
  L 249.20 206.95
  A 0.63 0.52 0.7 0 0 249.81 207.46
  C 250.57 207.48 256.45 206.94 255.72 208.52
  A 0.97 0.70 7.5 0 1 254.93 208.95
  L 249.81 209.05
  A 0.58 0.52 -0.6 0 0 249.24 209.57
  L 249.25 213.94
  A 0.58 0.51 0.6 0 0 249.82 214.45
  Z"
/>
<path fill="#000000" d="
  M 259.02 200.88
  C 277.10 198.50 273.91 219.58 259.04 215.82
  A 0.65 0.64 7.7 0 1 258.56 215.20
  L 258.50 201.46
  A 0.60 0.58 -3.9 0 1 259.02 200.88
  Z
  M 261.61 202.00
  Q 260.02 201.41 260.00 203.00
  Q 259.93 208.53 260.15 213.31
  A 1.22 1.22 89.7 0 0 261.33 214.48
  C 273.27 214.91 271.79 201.59 262.57 202.15
  Q 262.10 202.17 261.61 202.00
  Z"
/>
<rect fill="#000000" x="273.75" y="200.74" width="1.50" height="15.24" rx="0.50"/>
<path fill="#000000" d="
  M 280.36 211.77
  C 280.04 212.50 278.59 217.24 277.30 215.89
  A 0.84 0.69 -56.6 0 1 277.21 215.04
  L 283.12 201.52
  A 1.46 1.03 -82.7 0 1 283.76 200.82
  Q 284.99 200.30 285.60 201.67
  Q 290.62 212.87 291.31 214.94
  C 292.14 217.38 290.10 215.94 289.74 215.09
  Q 288.95 213.22 287.94 211.49
  A 0.95 0.73 70.5 0 0 287.19 211.00
  L 281.06 211.22
  A 0.93 0.70 -75.4 0 0 280.36 211.77
  Z
  M 281.64 208.79
  A 0.33 0.33 11.5 0 0 281.94 209.25
  L 286.66 209.26
  A 0.33 0.33 -11.3 0 0 286.97 208.80
  L 284.63 203.19
  A 0.33 0.33 58.4 0 0 284.02 203.19
  L 281.64 208.79
  Z"
/>
<path fill="#000000" d="
  M 307.32 215.55
  C 306.63 216.51 301.00 215.97 299.75 215.82
  A 0.62 0.57 4.0 0 1 299.21 215.25
  L 299.16 201.43
  A 0.54 0.53 -1.1 0 1 299.69 200.89
  L 306.69 200.78
  A 0.82 0.68 -9.0 0 1 307.44 201.23
  C 308.02 202.87 302.36 202.14 301.95 202.07
  A 1.16 1.07 5.0 0 0 300.60 203.11
  L 300.60 206.81
  A 0.65 0.55 3.4 0 0 301.18 207.37
  C 302.10 207.47 307.62 206.98 307.15 208.48
  A 0.81 0.63 5.6 0 1 306.44 208.93
  L 301.19 209.14
  A 0.61 0.55 -1.6 0 0 300.61 209.69
  L 300.61 213.82
  A 0.59 0.55 0.5 0 0 301.19 214.37
  L 306.73 214.48
  Q 308.07 214.50 307.32 215.55
  Z"
/>
<path fill="#000000" d="
  M 336.39 214.73
  L 341.45 214.52
  A 0.74 0.70 -10.4 0 1 342.18 214.99
  Q 342.28 215.26 342.20 215.52
  A 0.81 0.64 7.6 0 1 341.45 215.96
  L 334.43 215.86
  A 0.57 0.53 90.0 0 1 333.91 215.30
  L 333.79 201.91
  A 1.18 1.15 -0.2 0 1 334.97 200.75
  C 335.50 200.75 343.61 200.02 341.86 201.90
  A 1.13 1.05 -65.6 0 1 341.00 202.26
  L 336.70 201.99
  A 1.27 1.08 2.0 0 0 335.36 203.06
  L 335.35 206.82
  A 0.59 0.54 0.5 0 0 335.93 207.36
  L 340.75 207.52
  A 1.43 0.85 -11.3 0 1 341.63 207.83
  C 343.42 209.61 336.55 209.00 335.91 209.00
  A 0.66 0.66 0.1 0 0 335.25 209.66
  L 335.25 213.77
  A 1.10 0.97 -1.1 0 0 336.39 214.73
  Z"
/>
<path fill="#000000" d="
  M 346.30 202.82
  C 346.23 206.97 346.85 216.06 345.30 216.02
  A 0.58 0.52 -89.0 0 1 344.80 215.44
  L 344.80 201.32
  A 0.55 0.55 -2.2 0 1 345.31 200.77
  C 349.00 200.50 354.52 200.18 355.01 205.00
  Q 355.39 208.71 351.60 210.15
  A 0.82 0.79 60.2 0 0 351.29 211.41
  L 354.22 215.16
  Q 355.06 216.24 353.67 216.16
  C 352.64 216.09 349.07 210.90 348.39 209.99
  Q 347.69 209.08 348.84 209.03
  C 351.67 208.93 354.35 207.83 353.24 204.47
  C 352.58 202.50 348.89 201.46 346.78 202.13
  A 0.75 0.69 82.6 0 0 346.30 202.82
  Z"
/>
<path fill="#000000" d="
  M 360.81 203.07
  L 360.69 215.19
  A 0.78 0.69 80.9 0 1 360.24 215.90
  C 358.19 216.70 359.00 204.96 359.00 203.04
  A 0.80 0.79 89.6 0 0 358.20 202.24
  Q 356.01 202.26 355.71 201.44
  A 0.49 0.41 -8.6 0 1 356.19 200.89
  L 363.69 200.78
  A 0.48 0.46 4.1 0 1 364.17 201.31
  Q 363.98 202.59 362.29 202.01
  A 1.12 1.12 -80.5 0 0 360.81 203.07
  Z"
/>
<path fill="#000000" d="
  M 369.68 201.72
  Q 371.02 198.96 372.18 201.80
  Q 374.70 207.96 377.51 213.98
  C 378.54 216.19 376.99 217.23 376.14 214.95
  Q 375.40 212.95 374.22 211.21
  A 0.99 0.79 -14.4 0 0 373.44 210.86
  L 367.87 210.97
  A 1.02 1.00 11.3 0 0 366.96 211.56
  L 365.16 215.50
  A 1.16 1.00 -83.0 0 1 364.48 216.12
  C 363.28 216.47 363.69 215.14 363.92 214.59
  Q 366.73 207.82 369.68 201.72
  Z
  M 370.19 203.69
  Q 369.73 204.54 368.31 208.06
  Q 367.55 209.96 369.57 209.31
  A 3.82 3.79 -43.9 0 1 372.03 209.35
  C 374.82 210.35 371.91 205.16 371.57 204.04
  A 1.20 0.73 84.7 0 0 371.01 203.29
  Q 370.50 203.10 370.19 203.69
  Z"
/>
<path fill="#000000" d="
  M 413.46 203.86
  C 412.71 204.32 409.00 214.00 408.31 215.56
  Q 407.46 217.49 406.56 215.44
  Q 404.18 209.96 402.06 204.38
  C 401.84 203.80 400.96 203.12 401.05 204.50
  C 401.11 205.33 402.23 217.76 399.85 215.86
  A 1.20 0.86 -76.4 0 1 399.50 215.00
  C 399.50 210.79 399.70 206.43 399.44 202.24
  Q 399.31 200.05 401.48 200.87
  A 1.21 1.18 -0.9 0 1 402.16 201.51
  L 406.96 212.58
  Q 407.52 213.87 408.02 212.59
  C 408.98 210.14 412.20 200.13 414.77 200.70
  A 0.93 0.93 -83.8 0 1 415.50 201.61
  L 415.50 215.01
  A 1.13 0.89 75.2 0 1 415.14 215.84
  C 412.79 217.64 413.89 205.24 413.92 204.31
  Q 413.94 203.56 413.46 203.86
  Z"
/>
<path fill="#000000" d="
  M 421.25 214.66
  C 422.02 214.54 427.64 213.82 426.77 215.58
  A 0.91 0.74 10.8 0 1 426.00 216.00
  L 419.19 216.00
  A 0.78 0.77 -89.6 0 1 418.42 215.21
  L 418.49 201.34
  A 0.60 0.58 -89.0 0 1 419.08 200.75
  L 426.19 200.80
  A 0.84 0.65 -7.6 0 1 426.94 201.23
  C 427.53 202.90 421.54 202.13 421.06 202.05
  A 0.85 0.79 4.9 0 0 420.07 202.83
  L 420.11 206.83
  A 0.64 0.53 3.5 0 0 420.68 207.37
  C 420.99 207.41 428.16 207.05 426.39 208.69
  A 1.43 0.98 15.8 0 1 425.50 208.99
  L 420.82 209.04
  A 0.72 0.70 7.8 0 0 420.15 209.53
  Q 419.40 212.02 420.51 214.31
  A 0.71 0.66 -17.6 0 0 421.25 214.66
  Z"
/>
<path fill="#000000" d="
  M 444.44 202.06
  Q 443.16 202.43 443.06 201.31
  A 0.49 0.46 -2.7 0 1 443.55 200.80
  L 450.95 200.79
  A 0.62 0.47 0.9 0 1 451.57 201.28
  Q 451.55 202.20 448.75 202.31
  A 0.53 0.52 -1.7 0 0 448.24 202.84
  C 448.25 204.65 449.05 216.97 446.97 215.96
  A 0.91 0.73 -80.5 0 1 446.55 215.20
  L 446.50 204.75
  Q 446.48 201.47 444.44 202.06
  Z"
/>
<path fill="#000000" d="
  M 460.24 211.41
  C 460.24 211.84 460.95 216.77 459.22 215.96
  A 0.89 0.71 -79.8 0 1 458.81 215.20
  L 458.75 201.26
  A 0.52 0.51 0.0 0 1 459.27 200.75
  C 462.51 200.75 467.30 199.95 468.63 203.57
  C 470.29 208.13 466.43 210.20 462.26 209.65
  Q 460.26 209.39 460.24 211.41
  Z
  M 460.93 208.20
  C 466.22 209.51 471.13 204.55 463.67 201.96
  Q 460.88 200.98 460.19 203.86
  Q 459.90 205.06 460.35 207.58
  A 0.77 0.76 2.4 0 0 460.93 208.20
  Z"
/>
<path fill="#000000" d="
  M 473.73 214.64
  C 474.41 214.48 479.12 213.85 478.63 215.47
  A 0.71 0.71 -80.7 0 1 477.94 215.97
  L 471.43 215.86
  A 0.58 0.53 88.8 0 1 470.91 215.31
  Q 470.78 211.91 470.75 202.25
  Q 470.74 200.42 471.98 200.85
  A 0.79 0.69 -82.2 0 1 472.45 201.56
  L 472.50 213.66
  A 1.01 1.00 83.4 0 0 473.73 214.64
  Z"
/>
<path fill="#000000" d="
  M 508.27 202.80
  L 508.37 206.82
  A 0.60 0.55 1.8 0 0 508.93 207.36
  C 509.15 207.38 515.76 207.05 514.75 208.54
  A 1.05 0.91 13.9 0 1 513.93 208.96
  L 509.17 208.99
  A 0.85 0.76 -0.7 0 0 508.33 209.76
  L 508.36 213.82
  A 0.58 0.54 0.5 0 0 508.93 214.36
  L 514.00 214.52
  A 1.46 0.90 -12.3 0 1 514.88 214.83
  C 516.74 216.67 508.12 216.00 507.41 216.00
  A 0.66 0.66 0.2 0 1 506.75 215.34
  L 506.75 201.25
  A 0.50 0.50 0.0 0 1 507.25 200.75
  L 514.44 200.80
  A 0.72 0.62 -6.1 0 1 515.12 201.27
  C 515.50 202.79 509.75 202.21 508.81 202.27
  A 0.58 0.52 -2.8 0 0 508.27 202.80
  Z"
/>
<path fill="#000000" d="
  M 519.31 202.82
  L 519.19 215.19
  A 0.90 0.69 80.8 0 1 518.78 215.96
  C 516.54 217.05 517.60 202.77 517.66 201.43
  A 0.60 0.60 -1.7 0 1 518.19 200.87
  Q 522.27 200.32 524.50 201.00
  C 529.24 202.45 529.26 209.16 524.39 210.15
  A 0.66 0.62 65.1 0 0 524.05 211.18
  L 527.24 215.33
  A 0.57 0.54 52.4 0 1 527.16 216.11
  C 525.95 217.04 522.17 211.02 521.39 209.87
  A 0.42 0.42 -22.0 0 1 521.67 209.21
  C 530.27 207.68 525.96 200.68 519.79 202.19
  A 0.65 0.62 83.9 0 0 519.31 202.82
  Z"
/>
<path fill="#000000" d="
  M 537.27 210.63
  L 537.23 214.99
  A 1.21 0.78 78.8 0 1 536.89 215.84
  C 535.73 216.72 535.50 215.23 535.51 214.46
  Q 535.60 208.68 535.48 201.95
  A 1.09 1.09 -2.5 0 1 536.50 200.84
  C 539.75 200.61 546.19 200.11 545.79 205.41
  C 545.49 209.33 541.87 210.50 538.43 209.76
  A 0.96 0.91 6.7 0 0 537.27 210.63
  Z
  M 537.19 206.69
  A 2.54 1.34 9.3 0 0 539.25 208.25
  C 545.32 209.57 545.93 201.83 540.25 202.20
  Q 539.82 202.23 539.29 202.05
  Q 538.30 201.72 537.46 202.25
  A 1.03 0.67 79.4 0 0 537.13 203.06
  L 537.19 206.69
  Z"
/>
<path fill="#000000" d="
  M 571.54 209.81
  C 571.52 210.44 572.07 216.74 570.48 215.97
  A 0.89 0.77 -78.0 0 1 570.05 215.19
  L 570.16 201.43
  A 0.55 0.55 -0.6 0 1 570.69 200.89
  L 576.75 200.73
  A 1.21 1.15 -21.7 0 1 577.62 201.08
  C 579.28 202.82 572.58 202.20 572.25 202.22
  A 0.68 0.66 4.5 0 0 571.63 202.73
  Q 571.12 204.94 571.78 207.09
  A 0.68 0.64 -8.4 0 0 572.44 207.55
  C 573.48 207.52 576.37 207.22 577.17 207.76
  C 579.52 209.36 572.60 209.08 572.04 209.20
  A 0.65 0.64 84.8 0 0 571.54 209.81
  Z"
/>
<ellipse fill="#000000" cx="0.00" cy="0.00" transform="translate(565.49,208.59) rotate(19.8)" rx="1.16" ry="1.08"/>
<rect fill="#000000" x="174.72" y="221.75" width="418.02" height="17.94" rx="0.87"/>
</svg>
