<?xml version="1.0" encoding="UTF-8" standalone="no"?>
<!DOCTYPE svg PUBLIC "-//W3C//DTD SVG 1.1//EN" "http://www.w3.org/Graphics/SVG/1.1/DTD/svg11.dtd">
<svg xmlns="http://www.w3.org/2000/svg" version="1.1" viewBox="0 0 600 300">
<path fill="#000000" d="
  M 104.31 113.76
  Q 104.90 116.36 105.50 113.76
  L 111.96 85.62
  A 0.83 0.81 6.7 0 1 112.76 85.00
  L 150.93 85.00
  A 0.73 0.72 -6.5 0 1 151.64 85.56
  Q 153.81 94.63 155.81 103.28
  Q 156.39 105.77 156.71 103.32
  C 157.24 99.28 157.45 100.03 161.16 99.99
  Q 178.57 99.82 195.60 100.24
  A 0.97 0.97 -81.8 0 1 196.51 101.46
  Q 194.68 108.33 193.19 115.24
  Q 185.54 150.51 177.65 186.21
  A 1.02 1.00 -83.5 0 1 176.67 187.00
  L 136.09 186.94
  A 0.98 0.91 -5.4 0 1 135.14 186.21
  L 132.54 173.77
  Q 132.03 171.35 131.50 173.73
  L 125.43 201.32
  A 0.65 0.64 6.1 0 1 124.80 201.82
  L 85.88 201.99
  A 0.93 0.92 83.5 0 1 84.97 201.26
  L 75.38 157.76
  Q 74.87 155.43 74.36 157.76
  L 58.93 228.17
  A 1.07 1.07 -83.5 0 1 57.89 229.00
  L 19.31 228.94
  A 1.02 0.93 -15.9 0 1 18.50 228.54
  Q 17.55 227.18 19.20 226.78
  A 0.65 0.61 -6.8 0 0 19.69 226.19
  Q 19.71 225.29 19.91 224.43
  Q 37.63 147.98 55.23 71.58
  A 0.76 0.75 -83.1 0 1 55.96 71.00
  L 93.83 71.00
  A 1.03 1.02 -6.3 0 1 94.83 71.79
  L 104.31 113.76
  Z"
/>
<path fill="#000000" d="
  M 208.00 165.32
  L 205.49 188.20
  A 0.58 0.57 2.9 0 1 204.93 188.70
  C 204.59 188.70 188.55 189.41 193.31 186.96
  A 0.78 0.78 -13.9 0 0 193.74 186.25
  Q 193.66 183.39 193.81 182.06
  Q 198.51 141.02 202.88 99.94
  A 0.59 0.56 -86.6 0 1 203.44 99.42
  L 226.44 99.30
  A 0.95 0.89 72.6 0 1 227.21 99.74
  Q 229.16 102.92 229.25 104.75
  Q 231.31 146.58 232.93 188.17
  A 0.70 0.67 -0.8 0 1 232.23 188.86
  L 221.51 188.91
  A 1.20 1.10 -1.3 0 1 220.32 187.86
  L 219.45 165.32
  A 0.54 0.51 88.8 0 0 218.94 164.80
  L 208.56 164.80
  A 0.59 0.56 -86.6 0 0 208.00 165.32
  Z
  M 216.75 111.26
  Q 215.07 110.60 213.88 111.44
  A 1.22 0.88 81.8 0 0 213.45 112.26
  L 209.10 152.83
  A 0.72 0.70 2.9 0 0 209.82 153.60
  L 218.32 153.59
  A 0.82 0.80 -5.2 0 0 219.13 152.64
  Q 218.56 149.62 218.51 146.25
  Q 218.26 129.74 217.45 112.25
  A 1.12 1.12 9.8 0 0 216.75 111.26
  Z"
/>
<path fill="#000000" d="
  M 244.95 112.52
  L 234.31 112.18
  A 0.61 0.55 -1.5 0 1 233.73 111.69
  L 232.51 100.04
  A 0.76 0.72 -2.7 0 1 233.27 99.25
  L 270.66 99.25
  A 0.88 0.85 -85.9 0 1 271.50 100.25
  L 269.99 111.07
  A 1.36 1.32 -86.0 0 1 268.68 112.25
  L 259.15 112.25
  A 1.38 1.38 -87.0 0 0 257.78 113.49
  L 249.91 188.09
  A 0.74 0.74 3.0 0 1 249.17 188.75
  Q 246.59 188.75 244.31 188.75
  C 243.15 188.75 241.50 189.74 241.12 187.69
  Q 241.02 187.14 240.78 186.77
  C 237.13 181.22 239.15 171.69 239.87 165.64
  C 241.95 148.37 243.71 131.01 245.77 113.52
  A 0.90 0.86 -85.7 0 0 244.95 112.52
  Z"
/>
<path fill="#000000" d="
  M 274.18 99.74
  A 0.56 0.55 -86.5 0 1 274.73 99.25
  L 302.76 99.25
  A 0.98 0.97 -17.7 0 1 303.55 99.65
  C 307.29 104.72 305.62 113.38 304.94 119.69
  Q 301.21 154.05 297.72 188.11
  A 0.70 0.68 -87.2 0 1 297.04 188.74
  L 268.94 188.57
  A 0.88 0.85 75.0 0 1 268.19 188.12
  C 264.63 181.53 265.73 176.79 266.49 169.74
  Q 270.26 134.71 274.18 99.74
  Z
  M 293.4256 113.1134
  A 1.97 1.97 0.0 0 0 291.6723 110.9483
  L 286.9582 110.4528
  A 1.97 1.97 0.0 0 0 284.7931 112.2061
  L 278.3144 173.8466
  A 1.97 1.97 0.0 0 0 280.0677 176.0117
  L 284.7818 176.5072
  A 1.97 1.97 0.0 0 0 286.9469 174.7539
  L 293.4256 113.1134
  Z"
/>
<path fill="#000000" d="
  M 326.18 110.64
  Q 325.89 110.54 323.38 110.86
  A 0.91 0.90 -0.8 0 0 322.59 111.67
  L 314.73 188.22
  A 0.60 0.59 -86.7 0 1 314.14 188.75
  L 303.14 188.75
  A 0.91 0.91 -86.6 0 1 302.24 187.73
  L 311.89 100.18
  A 1.04 1.04 -86.9 0 1 312.92 99.25
  L 354.91 99.25
  A 1.04 1.01 71.3 0 1 355.73 99.67
  C 360.11 105.77 357.99 114.83 357.17 122.60
  Q 353.79 154.85 350.14 188.02
  A 0.82 0.81 -86.9 0 1 349.33 188.75
  L 338.18 188.75
  A 0.65 0.65 3.5 0 1 337.53 188.02
  Q 341.56 152.46 345.54 116.67
  C 345.97 112.78 346.66 110.32 341.52 110.82
  A 1.29 1.29 -89.7 0 0 340.36 111.97
  L 332.17 188.24
  A 0.57 0.57 2.8 0 1 331.60 188.75
  L 320.62 188.75
  A 0.83 0.82 3.4 0 1 319.80 187.83
  L 328.12 113.67
  Q 328.38 111.38 326.18 110.64
  Z"
/>
<path fill="#000000" d="
  M 364.31 103.34
  C 364.49 101.75 363.63 98.86 366.48 99.08
  C 369.83 99.34 373.11 99.18 376.31 99.40
  A 0.71 0.69 -84.9 0 1 376.95 100.18
  L 367.36 188.07
  A 0.59 0.56 -88.2 0 1 366.82 188.60
  L 359.43 188.82
  A 0.93 0.88 72.1 0 1 358.66 188.40
  Q 355.64 183.84 356.25 178.00
  Q 361.09 131.69 364.31 103.34
  Z"
/>
<path fill="#000000" d="
  M 378.70 132.25
  C 379.79 121.41 381.37 110.62 382.51 99.81
  A 0.57 0.55 -86.5 0 1 383.06 99.31
  L 413.37 99.25
  A 0.70 0.69 3.3 0 1 414.07 100.02
  L 412.64 111.82
  A 0.58 0.58 3.3 0 1 412.06 112.33
  L 393.98 112.48
  A 1.07 1.01 2.4 0 0 392.93 113.39
  L 391.12 130.97
  Q 390.87 133.45 393.40 133.46
  L 406.06 133.51
  Q 408.97 133.52 409.70 136.30
  Q 410.84 140.68 410.38 145.01
  Q 408.06 166.55 405.62 188.07
  A 0.57 0.56 -86.6 0 1 405.06 188.57
  L 373.44 188.74
  A 0.90 0.87 -87.1 0 1 372.57 187.74
  L 373.98 175.66
  A 1.03 1.00 -86.5 0 1 374.98 174.75
  L 394.11 174.83
  A 1.11 1.10 3.2 0 0 395.21 173.85
  L 398.15 147.19
  Q 398.49 144.16 395.65 144.16
  L 383.10 144.16
  Q 379.90 144.16 379.26 141.31
  Q 378.25 136.79 378.70 132.25
  Z"
/>
<path fill="#000000" d="
  M 447.24 175.94
  L 455.10 99.99
  A 0.83 0.81 -86.5 0 1 455.92 99.25
  L 466.94 99.30
  A 0.51 0.50 0.6 0 1 467.44 99.80
  Q 467.43 102.02 466.94 106.44
  Q 462.43 147.25 457.87 188.06
  A 0.58 0.56 -86.6 0 1 457.31 188.57
  L 415.01 188.75
  A 0.93 0.92 -17.2 0 1 414.22 188.34
  C 409.81 181.73 411.74 174.37 412.50 167.09
  Q 415.90 134.46 419.73 99.92
  A 0.75 0.74 -87.0 0 1 420.47 99.25
  L 431.69 99.25
  A 0.65 0.65 3.1 0 1 432.34 99.97
  Q 428.12 137.25 424.00 173.75
  Q 423.62 177.14 427.00 176.60
  Q 427.46 176.52 427.95 176.70
  Q 429.34 177.19 429.50 175.75
  Q 433.54 138.50 437.62 100.11
  A 0.91 0.85 -86.0 0 1 438.49 99.30
  L 449.50 99.46
  A 0.49 0.46 -86.6 0 1 449.95 100.00
  Q 444.00 154.97 441.94 172.44
  Q 441.30 177.88 446.71 176.56
  A 0.71 0.68 86.7 0 0 447.24 175.94
  Z"
/>
<path fill="#000000" d="
  M 473.19 99.70
  A 0.51 0.50 -86.8 0 1 473.69 99.25
  L 496.44 99.31
  A 0.90 0.89 -15.7 0 1 497.20 99.73
  Q 499.36 103.17 499.50 105.50
  Q 500.39 120.32 503.17 187.94
  A 0.53 0.53 -4.0 0 1 502.69 188.49
  Q 496.85 189.12 491.00 188.55
  A 0.58 0.56 1.8 0 1 490.48 188.01
  L 489.72 166.45
  A 1.25 1.24 88.8 0 0 488.48 165.25
  L 478.82 165.25
  A 0.82 0.81 -87.3 0 0 478.01 165.99
  L 475.73 188.07
  A 0.87 0.85 2.9 0 1 474.87 188.83
  L 464.18 188.76
  A 0.76 0.75 3.7 0 1 463.43 187.92
  L 473.19 99.70
  Z
  M 483.26 117.10
  Q 481.29 135.03 479.41 153.21
  A 0.89 0.82 -87.5 0 0 480.24 154.19
  L 488.69 154.00
  A 0.55 0.49 88.4 0 0 489.17 153.43
  L 487.71 112.81
  A 0.87 0.86 -77.7 0 0 487.24 112.07
  C 482.33 109.47 483.50 114.85 483.26 117.10
  Z"
/>
<path fill="#000000" d="
  M 504.69 99.79
  A 0.52 0.52 88.9 0 1 505.21 99.25
  L 515.97 99.25
  A 0.75 0.75 88.8 0 1 516.72 99.97
  Q 518.13 136.01 519.46 171.29
  C 519.56 173.87 518.99 176.82 523.12 175.62
  A 0.74 0.74 84.8 0 0 523.65 174.98
  L 531.51 99.81
  A 0.57 0.55 -87.6 0 1 532.05 99.30
  L 543.03 99.25
  A 0.71 0.70 -87.0 0 1 543.72 100.03
  L 534.10 188.17
  A 0.65 0.64 -87.0 0 1 533.46 188.75
  L 510.74 188.75
  A 0.89 0.89 74.3 0 1 509.98 188.32
  Q 507.64 184.44 507.50 180.50
  Q 506.03 140.10 504.69 99.79
  Z"
/>
<path fill="#000000" d="
  M 556.50 147.80
  L 553.58 174.99
  A 1.16 1.14 2.9 0 0 554.74 176.25
  L 573.11 176.25
  A 0.52 0.51 3.8 0 1 573.63 176.83
  L 572.15 188.37
  A 0.68 0.64 3.3 0 1 571.48 188.93
  L 544.30 188.83
  A 1.08 1.04 -16.1 0 1 543.41 188.36
  Q 540.41 183.74 540.67 179.25
  Q 541.14 171.22 542.05 163.23
  Q 545.57 132.24 549.12 100.19
  A 1.05 1.05 -86.9 0 1 550.16 99.25
  L 580.72 99.25
  A 0.76 0.76 -85.5 0 1 581.47 100.13
  L 579.52 112.60
  A 1.12 1.08 3.9 0 1 578.43 113.52
  L 560.19 113.67
  A 0.58 0.54 -87.1 0 0 559.65 114.19
  L 557.61 133.02
  A 0.38 0.37 -87.2 0 0 557.98 133.44
  L 574.90 133.49
  A 0.57 0.57 -86.8 0 1 575.46 134.12
  L 574.27 146.55
  A 0.79 0.78 -87.5 0 1 573.50 147.26
  L 557.06 147.31
  A 0.56 0.55 2.8 0 0 556.50 147.80
  Z"
/>
</svg>
