<?xml version="1.0" encoding="UTF-8" standalone="no"?>
<!DOCTYPE svg PUBLIC "-//W3C//DTD SVG 1.1//EN" "http://www.w3.org/Graphics/SVG/1.1/DTD/svg11.dtd">
<svg xmlns="http://www.w3.org/2000/svg" version="1.1" viewBox="0.00 0.00 600.00 255.00">
<g stroke-width="2.00" fill="none" stroke-linecap="butt">
<path stroke="#760e14" vector-effect="non-scaling-stroke" d="
  M 502.40 170.13
  C 518.95 172.46 535.91 175.32 552.18 180.22
  Q 561.87 183.15 571.13 179.53
  C 584.90 174.14 592.91 161.81 591.79 146.89
  Q 587.85 94.50 583.85 41.60
  Q 583.42 36.02 581.96 31.50
  C 578.67 21.35 569.89 13.21 559.76 10.12
  Q 555.34 8.77 547.09 8.76
  C 369.44 8.69 191.79 8.53 14.13 8.57
  Q 13.50 8.57 13.46 9.19
  L 8.86 72.86
  Q 8.82 73.39 9.35 73.37
  L 42.34 72.63
  Q 43.06 72.62 43.01 73.34
  L 36.23 180.48
  Q 36.20 180.99 36.70 180.88
  C 49.76 178.01 62.88 175.01 76.02 172.81
  Q 91.30 170.26 106.02 168.47
  A 0.15 0.15 0.0 0 1 106.19 168.62
  L 106.18 246.66
  A 0.35 0.34 -90.0 0 0 106.52 247.01
  L 491.02 247.01
  A 0.35 0.35 0.0 0 0 491.37 246.66
  L 491.44 190.45
  A 0.32 0.31 -89.1 0 1 491.76 190.13
  L 501.27 190.21
  A 0.48 0.47 -89.4 0 0 501.75 189.73
  L 501.75 170.70
  Q 501.75 170.03 502.40 170.13"
/>
<path stroke="#760e14" vector-effect="non-scaling-stroke" d="
  M 28.58 53.14
  C 29.20 53.84 29.58 54.17 30.59 54.13
  Q 45.27 53.49 60.37 53.56"
/>
<path stroke="#7d5f14" vector-effect="non-scaling-stroke" d="
  M 60.37 53.56
  L 53.84 155.96
  Q 53.81 156.52 54.33 156.31
  L 56.00 155.66"
/>
<path stroke="#760e14" vector-effect="non-scaling-stroke" d="
  M 56.00 155.66
  Q 56.42 156.18 56.66 156.82
  Q 56.84 157.30 57.34 157.19
  Q 74.36 153.63 92.51 151.22
  Q 92.96 151.16 92.99 150.71
  L 99.10 53.24
  Q 99.14 52.61 99.77 52.59
  L 134.94 51.62
  Q 135.49 51.61 135.49 51.06
  L 135.48 28.28
  Q 135.48 27.79 135.00 27.72
  L 132.83 27.40"
/>
<path stroke="#7d5f14" vector-effect="non-scaling-stroke" d="
  M 132.83 27.40
  Q 132.66 27.01 132.50 26.80
  Q 132.32 26.57 132.03 26.57
  Q 80.08 26.61 28.67 26.48
  A 0.47 0.47 0.0 0 0 28.20 26.92
  L 26.41 52.58
  Q 26.38 53.11 26.91 53.20
  Q 27.71 53.33 28.58 53.14"
/>
<path stroke="#f36d28" vector-effect="non-scaling-stroke" d="
  M 132.83 27.40
  Q 131.16 27.91 128.75 27.89
  Q 79.53 27.46 31.27 27.68
  Q 30.68 27.68 30.64 28.26
  Q 29.75 40.38 29.32 51.75
  Q 29.28 52.92 28.58 53.14"
/>
<path stroke="#f36d28" vector-effect="non-scaling-stroke" d="
  M 56.00 155.66
  L 56.22 155.31
  A 1.38 1.34 -27.9 0 0 56.43 154.66
  L 62.95 54.15
  Q 62.98 53.65 62.50 53.50
  Q 61.64 53.25 60.37 53.56"
/>
<path stroke="#760e14" vector-effect="non-scaling-stroke" d="
  M 473.86 146.69
  Q 478.04 148.41 480.17 148.63
  Q 488.08 149.47 497.51 150.61
  Q 526.17 154.10 555.53 161.77
  Q 560.40 163.04 562.93 162.50
  Q 569.49 161.11 572.28 154.74
  Q 573.37 152.24 572.99 147.21
  Q 569.04 95.53 565.21 43.74
  Q 564.23 30.54 552.37 27.82"
/>
<path stroke="#7d5f14" vector-effect="non-scaling-stroke" d="
  M 552.37 27.82
  Q 550.05 26.80 549.25 26.80
  Q 512.75 26.76 476.25 26.79
  C 468.25 26.80 464.11 26.37 459.09 31.56
  Q 454.70 36.10 455.08 42.72
  Q 457.31 81.75 459.74 125.67
  Q 460.08 131.89 461.92 135.89
  Q 465.35 143.35 473.86 146.69"
/>
<path stroke="#f36d28" vector-effect="non-scaling-stroke" d="
  M 552.37 27.82
  Q 514.80 27.67 477.41 27.72
  Q 469.63 27.73 466.68 28.98
  Q 461.39 31.23 458.72 37.57
  Q 457.62 40.17 457.95 46.37
  Q 458.53 57.57 459.19 68.77
  Q 460.27 87.29 461.19 102.51
  Q 461.99 115.63 462.79 128.75
  Q 463.46 139.82 473.86 146.69"
/>
<path stroke="#520f11" vector-effect="non-scaling-stroke" d="
  M 242.43 101.04
  L 234.60 107.30
  Q 234.25 107.58 233.80 107.56
  Q 233.62 107.56 233.41 107.54"
/>
<path stroke="#760e14" vector-effect="non-scaling-stroke" d="
  M 233.41 107.54
  L 232.98 107.64"
/>
<path stroke="#7d5f14" vector-effect="non-scaling-stroke" d="
  M 232.98 107.64
  L 174.83 110.33"
/>
<path stroke="#760e14" vector-effect="non-scaling-stroke" d="
  M 174.83 110.33
  L 175.58 94.38
  Q 175.60 93.94 176.04 93.92
  L 228.00 92.05
  Q 228.52 92.03 228.52 91.50
  L 228.50 73.53
  Q 228.49 72.98 227.95 72.85
  L 225.06 72.20"
/>
<path stroke="#7d5f14" vector-effect="non-scaling-stroke" d="
  M 225.06 72.20
  L 176.49 71.74"
/>
<path stroke="#760e14" vector-effect="non-scaling-stroke" d="
  M 176.49 71.74
  L 177.34 55.64
  A 0.41 0.41 0.0 0 1 177.75 55.25
  L 228.92 55.25
  A 0.65 0.65 0.0 0 0 229.50 54.89
  L 238.34 36.33
  Q 238.54 35.90 238.07 35.82
  L 235.50 35.39"
/>
<path stroke="#7d5f14" vector-effect="non-scaling-stroke" d="
  M 235.50 35.39
  Q 235.53 34.68 235.00 34.68
  Q 191.35 34.73 146.93 34.73
  A 0.34 0.33 -88.2 0 0 146.60 35.05
  L 140.62 133.71
  Q 140.59 134.18 141.06 134.18
  L 143.29 134.18"
/>
<path stroke="#760e14" vector-effect="non-scaling-stroke" d="
  M 143.29 134.18
  Q 143.31 134.70 143.64 135.00
  Q 143.90 135.24 144.42 135.18
  Q 185.72 130.73 227.02 129.30
  A 1.33 1.33 0.0 0 0 228.20 128.49
  L 236.18 109.45
  Q 236.36 109.03 235.93 108.89
  L 234.18 108.31"
/>
<path stroke="#520f11" vector-effect="non-scaling-stroke" d="
  M 234.18 108.31
  Q 236.40 107.28 238.46 106.34
  Q 240.64 105.35 242.54 104.00
  C 254.70 95.41 265.80 87.75 275.89 79.87
  C 279.63 76.95 282.30 72.75 286.48 70.42
  Q 289.63 68.67 292.47 66.23
  Q 294.94 64.10 298.45 61.97
  Q 309.36 55.37 318.93 46.37"
/>
<path stroke="#760e14" vector-effect="non-scaling-stroke" d="
  M 318.93 46.37
  Q 319.93 45.40 321.23 44.23
  Q 322.07 43.47 323.18 43.04
  Q 323.88 42.77 323.36 43.31
  C 317.55 49.34 311.08 54.89 304.50 60.00
  C 301.32 62.47 297.57 63.80 294.55 66.61
  Q 292.23 68.77 289.51 70.36
  Q 285.43 72.74 282.03 76.39
  C 279.87 78.72 277.44 80.56 275.09 82.76"
/>
<path stroke="#520f11" vector-effect="non-scaling-stroke" d="
  M 275.09 82.76
  L 250.48 100.27"
/>
<path stroke="#760e14" vector-effect="non-scaling-stroke" d="
  M 250.48 100.27
  L 245.35 104.19"
/>
<path stroke="#7d5f14" vector-effect="non-scaling-stroke" d="
  M 245.35 104.19
  L 242.88 105.68
  Q 242.44 105.94 242.44 106.46
  L 242.33 120.50"
/>
<path stroke="#520f11" vector-effect="non-scaling-stroke" d="
  M 242.33 120.50
  L 224.60 134.51
  Q 224.50 134.59 224.57 134.69
  L 224.73 134.91
  Q 224.85 135.09 225.04 134.98
  Q 240.04 125.37 255.13 115.87
  C 259.39 113.20 262.99 109.78 267.14 106.94
  C 273.03 102.89 279.33 99.38 284.65 94.68
  C 290.85 89.20 296.86 83.01 304.13 78.84
  Q 306.57 77.44 308.40 75.52
  C 311.76 71.98 315.60 69.05 320.21 67.49
  C 322.46 66.74 324.84 65.54 326.56 64.28
  Q 336.54 56.92 346.01 48.51
  Q 346.57 48.01 347.53 46.38"
/>
<path stroke="#7d5f14" vector-effect="non-scaling-stroke" d="
  M 347.53 46.38
  Q 347.80 46.02 348.27 45.71"
/>
<path stroke="#760e14" vector-effect="non-scaling-stroke" d="
  M 348.27 45.71
  Q 349.45 46.24 349.74 45.24
  Q 351.97 43.86 354.16 42.44
  Q 354.29 42.35 354.37 42.48
  L 354.38 42.49
  Q 354.46 42.61 354.33 42.70
  Q 351.49 44.55 348.94 46.79"
/>
<path stroke="#7d5f14" vector-effect="non-scaling-stroke" d="
  M 348.94 46.79
  L 346.87 48.82
  A 1.13 1.12 67.4 0 0 346.53 49.65
  Q 346.63 56.59 346.76 63.50
  Q 346.77 64.06 347.44 63.73"
/>
<path stroke="#520f11" vector-effect="non-scaling-stroke" d="
  M 347.44 63.73
  Q 340.35 68.16 334.39 74.15
  Q 333.00 75.56 330.99 76.23
  Q 324.19 78.48 318.25 82.98
  C 316.40 84.38 315.60 86.44 313.57 87.81
  Q 308.95 90.95 304.51 92.60
  Q 304.08 92.76 303.49 92.40"
/>
<path stroke="#760e14" vector-effect="non-scaling-stroke" d="
  M 303.49 92.40
  L 297.37 87.01
  Q 296.96 86.65 296.56 87.01
  L 292.89 90.28"
/>
<path stroke="#520f11" vector-effect="non-scaling-stroke" d="
  M 292.89 90.28
  L 280.57 100.48"
/>
<path stroke="#760e14" vector-effect="non-scaling-stroke" d="
  M 280.57 100.48
  L 270.22 107.29"
/>
<path stroke="#520f11" vector-effect="non-scaling-stroke" d="
  M 270.22 107.29
  C 265.60 110.45 261.33 113.97 256.80 116.75
  Q 253.38 118.85 250.05 120.90"
/>
<path stroke="#760e14" vector-effect="non-scaling-stroke" d="
  M 250.05 120.90
  L 245.04 123.88"
/>
<path stroke="#7d5f14" vector-effect="non-scaling-stroke" d="
  M 245.04 123.88
  Q 243.27 124.50 242.30 125.68
  A 1.04 1.04 0.0 0 0 243.18 127.38
  L 244.52 127.27"
/>
<path stroke="#760e14" vector-effect="non-scaling-stroke" d="
  M 244.52 127.27
  Q 244.64 127.79 245.06 128.11
  Q 245.38 128.35 245.96 128.32
  Q 253.05 127.90 260.57 127.77"
/>
<path stroke="#520f11" vector-effect="non-scaling-stroke" d="
  M 260.57 127.77
  Q 253.38 133.57 245.99 138.70
  Q 244.41 139.79 242.97 141.03
  Q 242.80 141.18 242.94 141.36
  L 242.95 141.37
  Q 243.08 141.54 243.26 141.42
  Q 259.65 130.49 275.54 118.89
  C 281.13 114.80 287.91 111.63 292.84 107.10
  C 300.00 100.52 307.22 93.86 315.81 89.01
  Q 318.37 87.56 320.64 85.34
  Q 324.06 81.98 328.50 80.06
  Q 338.04 75.91 344.76 68.24
  Q 346.69 66.03 350.63 62.45"
/>
<path stroke="#760e14" vector-effect="non-scaling-stroke" d="
  M 350.63 62.45
  Q 353.90 59.48 357.70 57.85
  Q 359.16 57.22 357.90 58.18
  L 348.12 65.66"
/>
<path stroke="#7d5f14" vector-effect="non-scaling-stroke" d="
  M 348.12 65.66
  Q 346.47 69.05 346.79 74.30
  Q 347.04 78.40 347.10 81.35
  Q 347.55 104.13 347.76 127.08
  Q 347.77 127.69 348.37 127.78
  L 349.96 128.02"
/>
<path stroke="#760e14" vector-effect="non-scaling-stroke" d="
  M 349.96 128.02
  Q 350.55 128.69 351.02 128.71
  Q 366.40 129.28 380.90 130.10
  Q 381.49 130.14 381.47 129.54
  L 379.09 55.54
  Q 379.07 54.99 379.61 55.00
  L 407.36 55.25"
/>
<path stroke="#7d5f14" vector-effect="non-scaling-stroke" d="
  M 407.36 55.25
  Q 407.34 61.36 407.54 67.50
  Q 408.58 99.24 409.68 131.00
  Q 409.70 131.73 411.97 131.51"
/>
<path stroke="#760e14" vector-effect="non-scaling-stroke" d="
  M 411.97 131.51
  Q 411.93 132.16 413.75 132.28
  Q 428.65 133.30 443.35 135.14
  A 0.38 0.38 0.0 0 0 443.78 134.75
  L 439.00 36.49
  A 0.84 0.83 10.8 0 0 438.50 35.76
  Q 437.63 35.39 436.51 35.43"
/>
<path stroke="#7d5f14" vector-effect="non-scaling-stroke" d="
  M 436.51 35.43
  L 435.73 35.02
  Q 435.16 34.72 434.52 34.72
  L 346.93 34.73
  Q 346.34 34.73 346.35 35.33
  L 346.55 46.30"
/>
<path stroke="#520f11" vector-effect="non-scaling-stroke" d="
  M 346.55 46.30
  Q 346.53 46.82 345.51 47.19
  Q 343.29 48.00 331.76 55.43
  Q 329.61 56.82 327.18 58.97
  Q 324.10 61.70 318.78 64.13
  Q 312.35 67.08 305.70 72.94
  Q 302.27 75.97 296.19 78.71"
/>
<path stroke="#760e14" vector-effect="non-scaling-stroke" d="
  M 296.19 78.71
  L 335.76 36.29
  Q 336.59 35.39 335.38 35.52
  Q 333.79 35.68 333.23 35.04"
/>
<path stroke="#7d5f14" vector-effect="non-scaling-stroke" d="
  M 333.23 35.04
  L 332.97 34.86
  Q 332.75 34.71 332.48 34.71
  L 297.92 34.73
  A 1.11 1.11 0.0 0 0 297.10 35.09
  L 275.90 57.68"
/>
<path stroke="#760e14" vector-effect="non-scaling-stroke" d="
  M 275.90 57.68
  L 275.75 36.08
  Q 275.75 35.59 275.25 35.58
  Q 273.79 35.56 272.76 35.06"
/>
<path stroke="#7d5f14" vector-effect="non-scaling-stroke" d="
  M 272.76 35.06
  Q 272.68 34.90 272.57 34.75
  Q 272.43 34.55 272.18 34.55
  L 243.95 34.60
  A 0.48 0.47 -89.4 0 0 243.48 35.07
  L 242.43 101.04"
/>
<path stroke="#f36d28" vector-effect="non-scaling-stroke" d="
  M 272.76 35.06
  Q 272.63 35.58 272.25 35.58
  Q 259.50 35.74 246.40 35.57
  A 0.64 0.64 0.0 0 0 245.75 36.20
  L 245.25 99.08"
/>
<path stroke="#ce6e25" vector-effect="non-scaling-stroke" d="
  M 245.25 99.08
  Q 244.12 100.63 242.43 101.04"
/>
<path stroke="#c81d25" vector-effect="non-scaling-stroke" d="
  M 296.19 78.71
  Q 292.35 81.20 288.21 83.72
  Q 287.36 84.24 286.93 83.87
  Q 286.49 83.50 286.19 82.47
  A 0.42 0.41 81.9 0 0 285.81 82.18
  Q 282.97 82.05 280.34 82.01
  Q 279.12 81.99 277.60 82.51
  Q 276.13 83.02 275.09 82.76"
/>
<path stroke="#c81d25" vector-effect="non-scaling-stroke" d="
  M 318.93 46.37
  Q 318.03 46.74 317.37 46.95
  Q 316.58 47.19 315.87 47.59
  Q 306.61 52.79 297.97 59.60
  A 1.42 1.42 0.0 0 1 297.04 59.90
  Q 294.02 59.76 291.81 61.84
  Q 287.32 66.05 281.66 69.61
  C 276.96 72.56 272.94 76.42 268.86 80.07
  C 267.54 81.24 266.12 82.37 264.26 82.40
  Q 257.78 82.52 251.17 82.51
  A 0.96 0.95 -87.7 0 0 250.22 83.39
  Q 249.86 88.12 249.95 93.64
  Q 249.98 95.36 248.85 96.77
  Q 247.49 98.43 245.25 99.08"
/>
<path stroke="#ce6e25" vector-effect="non-scaling-stroke" d="
  M 242.33 120.50
  Q 243.97 119.46 244.86 118.11"
/>
<path stroke="#c81d25" vector-effect="non-scaling-stroke" d="
  M 244.86 118.11
  Q 247.47 116.78 249.41 114.60
  Q 249.73 114.23 249.73 113.74
  L 249.75 103.58
  Q 249.75 103.08 250.01 102.66
  Q 250.92 101.20 250.48 100.27"
/>
<path stroke="#f36d28" vector-effect="non-scaling-stroke" d="
  M 333.23 35.04
  Q 333.22 35.29 332.87 35.52
  Q 332.66 35.66 332.42 35.66
  Q 315.55 35.79 300.83 35.63
  A 2.23 2.21 -67.7 0 0 299.16 36.34
  L 276.36 60.61
  Q 275.94 61.07 275.93 60.44
  L 275.90 57.68"
/>
<path stroke="#f36d28" vector-effect="non-scaling-stroke" d="
  M 176.49 71.74
  Q 176.53 72.68 177.50 72.71
  Q 199.04 73.16 224.50 72.67
  Q 224.94 72.66 225.06 72.20"
/>
<path stroke="#f36d28" vector-effect="non-scaling-stroke" d="
  M 174.83 110.33
  Q 174.75 111.67 175.24 111.64
  Q 193.22 110.30 211.24 109.63
  Q 227.32 109.04 231.75 108.73
  Q 233.34 108.62 232.98 107.64"
/>
<path stroke="#c81d25" vector-effect="non-scaling-stroke" d="
  M 233.41 107.54
  Q 234.15 109.11 234.18 108.31"
/>
<path stroke="#f36d28" vector-effect="non-scaling-stroke" d="
  M 436.51 35.43
  Q 436.33 35.41 436.22 35.52
  Q 436.07 35.68 435.86 35.68
  L 349.11 35.59
  A 0.65 0.65 0.0 0 0 348.46 36.26
  L 348.66 44.24
  A 2.30 2.27 -35.2 0 1 348.50 45.13
  L 348.27 45.71"
/>
<path stroke="#ce6e25" vector-effect="non-scaling-stroke" d="
  M 347.53 46.38
  L 346.55 46.30"
/>
<path stroke="#f36d28" vector-effect="non-scaling-stroke" d="
  M 244.86 118.11
  L 245.35 104.19"
/>
<path stroke="#f36d28" vector-effect="non-scaling-stroke" d="
  M 235.50 35.39
  L 150.02 35.72
  Q 149.29 35.72 149.25 36.45
  L 143.29 134.18"
/>
<path stroke="#f36d28" vector-effect="non-scaling-stroke" d="
  M 411.97 131.51
  L 409.59 56.11
  A 1.13 1.13 0.0 0 0 408.54 55.03
  Q 408.05 55.00 407.36 55.25"
/>
<path stroke="#f36d28" vector-effect="non-scaling-stroke" d="
  M 349.96 128.02
  L 349.45 65.82
  Q 349.45 65.28 348.92 65.41
  Q 348.61 65.49 348.12 65.66"
/>
<path stroke="#c81d25" vector-effect="non-scaling-stroke" d="
  M 350.63 62.45
  L 348.98 62.27"
/>
<path stroke="#f36d28" vector-effect="non-scaling-stroke" d="
  M 348.98 62.27
  L 348.94 46.79"
/>
<path stroke="#c81d25" vector-effect="non-scaling-stroke" d="
  M 260.57 127.77
  Q 262.87 126.22 264.35 124.06
  Q 264.76 123.46 264.04 123.47
  L 250.00 123.62
  Q 249.60 123.63 249.78 123.26
  Q 250.51 121.82 250.05 120.90"
/>
<path stroke="#c81d25" vector-effect="non-scaling-stroke" d="
  M 270.22 107.29
  Q 271.90 111.99 271.12 117.13
  A 0.63 0.63 0.0 0 0 272.03 117.78
  Q 274.02 116.78 275.76 116.69"
/>
<path stroke="#520f11" vector-effect="non-scaling-stroke" d="
  M 275.76 116.69
  Q 280.05 114.55 283.18 111.21"
/>
<path stroke="#c81d25" vector-effect="non-scaling-stroke" d="
  M 283.18 111.21
  Q 284.46 109.00 286.28 107.50
  A 0.70 0.70 0.0 0 0 286.21 106.37
  Q 282.59 104.05 280.57 100.48"
/>
<path stroke="#c81d25" vector-effect="non-scaling-stroke" d="
  M 292.89 90.28
  Q 292.68 90.92 294.34 91.02
  Q 294.82 91.05 295.19 91.37
  L 298.58 94.35
  A 1.84 1.84 0.0 0 0 300.38 94.73
  Q 302.85 93.92 303.49 92.40"
/>
<path stroke="#ce6e25" vector-effect="non-scaling-stroke" d="
  M 348.98 62.27
  L 347.44 63.73"
/>
<path stroke="#f36d28" vector-effect="non-scaling-stroke" d="
  M 244.52 127.27
  L 245.04 123.88"
/>
<path stroke="#760e14" vector-effect="non-scaling-stroke" d="
  M 283.18 111.21
  L 276.39 105.25
  A 0.42 0.42 0.0 0 0 275.69 105.57
  L 275.76 116.69"
/>
<path stroke="#520f11" vector-effect="non-scaling-stroke" d="
  M 304.30 99.55
  L 291.61 110.68"
/>
<path stroke="#760e14" vector-effect="non-scaling-stroke" d="
  M 291.61 110.68
  L 287.16 113.35"
/>
<path stroke="#7d5f14" vector-effect="non-scaling-stroke" d="
  M 287.16 113.35
  Q 286.22 113.78 286.62 114.13
  Q 293.31 119.96 299.95 125.83
  Q 300.68 126.48 301.53 126.64"
/>
<path stroke="#760e14" vector-effect="non-scaling-stroke" d="
  M 301.53 126.64
  Q 303.64 127.82 306.00 127.87
  Q 323.88 128.26 341.76 128.62
  C 342.34 128.63 343.09 128.90 343.66 128.93
  Q 345.31 129.00 344.07 127.91
  L 308.62 96.82
  A 0.70 0.69 -39.5 0 0 307.82 96.75
  Q 305.48 98.12 304.30 99.55"
/>
<path stroke="#f36d28" vector-effect="non-scaling-stroke" d="
  M 301.53 126.64
  Q 301.42 126.49 301.50 126.21
  Q 301.59 125.86 301.31 125.62
  L 287.16 113.35"
/>
<path stroke="#c81d25" vector-effect="non-scaling-stroke" d="
  M 291.61 110.68
  L 304.71 122.64
  Q 305.59 123.45 306.79 123.46
  L 331.25 123.57
  Q 332.10 123.58 331.45 123.02
  L 304.30 99.55"
/>
<path stroke="#760e14" vector-effect="non-scaling-stroke" d="
  M 267.00 127.82
  L 275.22 127.55
  Q 275.74 127.53 275.75 127.02
  L 275.90 121.70
  A 0.46 0.45 73.1 0 0 275.18 121.31
  L 266.83 127.32
  Q 266.10 127.85 267.00 127.82"
/>
<path stroke="#125470" vector-effect="non-scaling-stroke" d="
  M 180.28 187.81
  Q 180.85 175.05 179.99 163.12"
/>
<path stroke="#14627e" vector-effect="non-scaling-stroke" d="
  M 179.99 163.12
  Q 177.18 157.56 173.24 157.55
  Q 149.41 157.46 125.51 157.56
  Q 125.03 157.56 125.03 158.04
  L 125.06 227.62
  Q 125.06 228.19 125.63 228.19
  L 142.98 228.19
  Q 143.55 228.19 143.55 227.62
  L 143.55 197.76
  A 0.36 0.36 0.0 0 1 143.90 197.40
  Q 156.68 197.22 171.16 197.38
  C 176.68 197.44 180.51 193.47 180.28 187.81"
/>
<path stroke="#26b6ee" vector-effect="non-scaling-stroke" d="
  M 179.99 163.12
  Q 177.90 162.43 176.51 160.77
  Q 175.74 159.86 175.23 159.58
  Q 174.33 159.08 173.50 159.07
  Q 150.26 158.84 127.40 158.94
  Q 126.62 158.95 126.62 159.73
  Q 126.64 168.03 126.62 175.83
  Q 126.62 176.23 126.47 176.60
  Q 126.40 176.79 126.39 176.92
  Q 126.04 186.70 127.09 196.26"
/>
<path stroke="#229ddb" vector-effect="non-scaling-stroke" d="
  M 127.09 196.26
  L 127.14 225.20
  A 0.83 0.83 0.0 0 0 127.97 226.03
  L 141.27 226.05
  A 0.47 0.46 -0.6 0 0 141.74 225.58
  L 141.51 197.53"
/>
<path stroke="#26b6ee" vector-effect="non-scaling-stroke" d="
  M 141.51 197.53
  Q 143.81 196.15 145.00 196.13
  Q 157.20 196.00 169.39 196.03
  C 173.63 196.05 176.70 195.55 178.51 191.70
  Q 179.15 190.33 179.33 187.64
  Q 179.47 185.54 179.61 183.45
  Q 179.61 183.42 179.64 183.42
  L 179.89 183.43
  Q 180.14 183.43 180.15 183.68
  L 180.28 187.81"
/>
<path stroke="#208fcd" vector-effect="non-scaling-stroke" d="
  M 141.51 197.53
  Q 141.36 196.69 140.25 196.70
  Q 133.82 196.76 127.09 196.26"
/>
<path stroke="#125470" vector-effect="non-scaling-stroke" d="
  M 208.31 182.55
  L 208.66 182.28
  Q 208.91 182.09 209.16 182.28
  Q 209.37 182.44 209.21 182.61"
/>
<path stroke="#14627e" vector-effect="non-scaling-stroke" d="
  M 209.21 182.61
  L 221.35 213.76
  Q 221.55 214.27 221.01 214.27
  L 204.50 214.25
  Q 204.25 214.25 204.25 214.50
  L 204.25 227.73
  Q 204.25 228.20 204.73 228.20
  L 244.74 228.20
  Q 244.92 228.20 244.86 228.03
  L 217.80 158.14
  Q 217.57 157.53 216.92 157.53
  L 200.43 157.54
  A 0.78 0.78 0.0 0 0 199.70 158.04
  L 172.81 227.66
  Q 172.61 228.17 173.15 228.17
  L 189.86 228.17
  Q 190.54 228.17 190.79 227.54
  L 208.31 182.55"
/>
<path stroke="#26b6ee" vector-effect="non-scaling-stroke" d="
  M 209.21 182.61
  L 209.76 182.25
  Q 210.25 181.93 210.48 182.47
  L 216.78 197.20"
/>
<path stroke="#229ddb" vector-effect="non-scaling-stroke" d="
  M 216.78 197.20
  Q 217.01 197.28 217.14 197.59
  Q 220.16 204.88 222.85 212.30
  Q 223.00 212.72 223.25 213.07
  Q 223.55 213.50 223.56 214.05
  C 223.59 215.50 221.90 216.19 220.70 216.21
  Q 213.41 216.31 206.57 216.24
  Q 206.30 216.23 206.30 216.50
  L 206.35 225.57
  Q 206.35 225.93 206.70 225.92
  Q 224.13 225.61 241.09 226.09
  A 0.73 0.73 0.0 0 0 241.79 225.10
  L 230.78 196.39"
/>
<path stroke="#26b6ee" vector-effect="non-scaling-stroke" d="
  M 230.78 196.39
  L 217.04 159.71
  A 1.12 1.12 0.0 0 0 216.01 158.99
  L 201.52 158.95
  A 1.24 1.23 10.3 0 0 200.34 159.76
  L 186.57 196.51"
/>
<path stroke="#229ddb" vector-effect="non-scaling-stroke" d="
  M 186.57 196.51
  L 175.36 225.88
  Q 175.11 226.54 175.81 226.53
  L 188.73 226.35
  A 0.93 0.93 0.0 0 0 189.60 225.75
  L 200.91 196.67"
/>
<path stroke="#26b6ee" vector-effect="non-scaling-stroke" d="
  M 200.91 196.67
  Q 204.48 190.38 207.16 182.50
  Q 207.33 181.99 207.85 182.07
  Q 208.16 182.12 208.31 182.55"
/>
<path stroke="#208fcd" vector-effect="non-scaling-stroke" d="
  M 230.78 196.39
  L 217.05 196.50
  Q 216.67 196.50 216.68 196.88
  Q 216.69 197.03 216.78 197.20"
/>
<path stroke="#208fcd" vector-effect="non-scaling-stroke" d="
  M 200.91 196.67
  L 186.57 196.51"
/>
<path stroke="#14627e" vector-effect="non-scaling-stroke" d="
  M 249.91 203.34
  L 250.03 227.70
  Q 250.03 228.19 250.52 228.19
  L 268.02 228.21
  Q 268.49 228.21 268.49 227.73
  L 268.48 197.95
  Q 268.48 197.38 269.05 197.36
  L 270.92 197.31
  Q 271.64 197.30 271.98 197.92
  L 288.06 227.43
  A 1.34 1.34 0.0 0 0 289.24 228.13
  L 306.76 228.21
  A 0.17 0.17 0.0 0 0 306.91 227.96
  L 290.29 197.53"
/>
<path stroke="#125470" vector-effect="non-scaling-stroke" d="
  M 290.29 197.53
  Q 293.04 197.40 295.72 197.28
  Q 299.15 197.14 300.80 196.14
  C 303.24 194.66 304.91 192.10 304.94 189.20
  Q 305.03 176.82 304.93 166.13
  C 304.88 160.39 300.88 157.39 295.50 157.43
  Q 271.93 157.58 250.44 157.49
  Q 249.86 157.48 249.87 158.06
  L 249.91 203.34"
/>
<path stroke="#26b6ee" vector-effect="non-scaling-stroke" d="
  M 290.29 197.53
  Q 289.93 197.44 289.40 197.40
  Q 288.86 197.36 288.70 197.64
  Q 288.52 197.95 288.67 198.54"
/>
<path stroke="#208fcd" vector-effect="non-scaling-stroke" d="
  M 288.67 198.54
  L 287.25 196.79
  Q 286.92 196.39 286.40 196.35
  Q 279.95 195.82 273.64 196.92"
/>
<path stroke="#26b6ee" vector-effect="non-scaling-stroke" d="
  M 273.64 196.92
  L 270.30 196.09
  Q 269.80 195.97 269.33 196.16
  L 266.53 197.31"
/>
<path stroke="#208fcd" vector-effect="non-scaling-stroke" d="
  M 266.53 197.31
  Q 266.61 196.43 265.75 196.39
  Q 259.97 196.08 252.18 196.62"
/>
<path stroke="#26b6ee" vector-effect="non-scaling-stroke" d="
  M 252.18 196.62
  Q 250.66 195.85 250.40 197.64
  Q 250.34 198.09 250.54 199.38
  Q 250.87 201.45 249.91 203.34"
/>
<path stroke="#229ddb" vector-effect="non-scaling-stroke" d="
  M 273.64 196.92
  L 289.36 225.92
  A 1.07 1.06 -14.3 0 0 290.27 226.46
  L 303.54 226.47
  Q 304.17 226.47 303.87 225.92
  L 288.67 198.54"
/>
<path stroke="#229ddb" vector-effect="non-scaling-stroke" d="
  M 252.18 196.62
  L 251.88 224.94
  A 1.06 1.06 0.0 0 0 252.94 226.01
  L 266.05 225.98
  Q 266.66 225.98 266.66 225.37
  L 266.53 197.31"
/>
<path stroke="#125470" vector-effect="non-scaling-stroke" d="
  M 366.79 188.72
  Q 367.24 177.77 366.86 165.38
  Q 366.82 164.15 366.34 163.16"
/>
<path stroke="#14627e" vector-effect="non-scaling-stroke" d="
  M 366.34 163.16
  Q 364.10 157.52 358.74 157.51
  Q 335.54 157.49 312.23 157.54
  Q 311.73 157.54 311.73 158.04
  L 311.74 227.71
  Q 311.74 228.18 312.21 228.18
  L 329.73 228.20
  Q 330.29 228.20 330.29 227.64
  L 330.29 197.94
  Q 330.29 197.43 330.81 197.40
  L 332.85 197.32
  Q 333.49 197.29 333.79 197.85
  L 350.06 227.73
  A 0.81 0.81 0.0 0 0 350.77 228.15
  L 368.42 228.22
  A 0.27 0.27 0.0 0 0 368.65 227.82
  L 352.32 197.92
  A 0.41 0.40 -14.0 0 1 352.68 197.33
  C 355.62 197.31 359.23 197.81 361.99 196.51
  Q 366.43 194.43 366.79 188.72"
/>
<path stroke="#26b6ee" vector-effect="non-scaling-stroke" d="
  M 366.34 163.16
  L 365.79 163.41
  Q 365.27 163.65 364.91 163.20
  C 364.46 162.63 364.42 161.87 363.94 161.28
  Q 362.05 158.96 358.72 158.95
  Q 335.98 158.91 313.35 158.90
  A 0.43 0.43 0.0 0 0 312.91 159.34
  L 313.47 198.81"
/>
<path stroke="#229ddb" vector-effect="non-scaling-stroke" d="
  M 313.47 198.81
  L 313.60 225.55
  Q 313.60 226.07 314.12 226.06
  L 328.05 225.94
  A 0.39 0.39 0.0 0 0 328.44 225.55
  L 328.37 199.59"
/>
<path stroke="#26b6ee" vector-effect="non-scaling-stroke" d="
  M 328.37 199.59
  Q 329.05 194.11 335.34 197.09"
/>
<path stroke="#229ddb" vector-effect="non-scaling-stroke" d="
  M 335.34 197.09
  L 350.99 225.60
  A 1.60 1.59 75.8 0 0 352.37 226.43
  L 365.56 226.54
  Q 366.05 226.55 365.81 226.12
  L 349.59 196.86"
/>
<path stroke="#26b6ee" vector-effect="non-scaling-stroke" d="
  M 349.59 196.86
  Q 350.69 197.66 352.72 196.37
  Q 353.13 196.11 353.62 196.11
  Q 358.17 196.16 359.48 195.96
  Q 363.89 195.32 366.79 188.72"
/>
<path stroke="#208fcd" vector-effect="non-scaling-stroke" d="
  M 349.59 196.86
  Q 342.21 195.82 336.13 196.40
  Q 335.20 196.49 335.34 197.09"
/>
<path stroke="#208fcd" vector-effect="non-scaling-stroke" d="
  M 328.37 199.59
  Q 328.52 198.32 327.95 196.88
  Q 327.74 196.37 327.20 196.37
  L 314.33 196.36
  Q 313.83 196.36 313.76 196.86
  L 313.47 198.81"
/>
<path stroke="#14627e" vector-effect="non-scaling-stroke" d="
  M 428.8834 166.1117
  A 8.67 8.67 0.0 0 0 420.1983 157.4569
  L 382.1983 157.5232
  A 8.67 8.67 0.0 0 0 373.5435 166.2083
  L 373.6366 219.5683
  A 8.67 8.67 0.0 0 0 382.3217 228.2231
  L 420.3217 228.1568
  A 8.67 8.67 0.0 0 0 428.9765 219.4717
  L 428.8834 166.1117"
/>
<path stroke="#125470" vector-effect="non-scaling-stroke" d="
  M 472.36 191.98
  L 472.46 174.44"
/>
<path stroke="#14627e" vector-effect="non-scaling-stroke" d="
  M 472.46 174.44
  L 472.45 171.97
  Q 472.45 171.43 472.99 171.42
  L 482.53 171.32
  Q 483.13 171.31 483.13 170.71
  L 483.15 158.09
  Q 483.15 157.54 482.59 157.54
  L 436.31 157.53
  Q 435.65 157.53 435.65 158.19
  L 435.61 170.74
  A 0.62 0.62 0.0 0 0 436.24 171.36
  L 453.17 171.33
  A 0.59 0.59 0.0 0 1 453.76 171.92
  L 453.78 227.74
  Q 453.78 228.20 454.24 228.20
  L 471.76 228.20
  Q 472.33 228.20 472.33 227.64
  L 472.36 191.98"
/>
<path stroke="#26b6ee" vector-effect="non-scaling-stroke" d="
  M 472.46 174.44
  Q 471.84 175.80 472.18 177.36
  A 0.04 0.04 0.0 0 1 472.14 177.41
  L 471.83 177.43
  Q 471.59 177.44 471.59 177.20
  L 471.49 172.36
  A 2.14 2.14 0.0 0 1 473.30 170.20
  Q 476.16 169.74 479.50 170.11
  Q 481.59 170.35 481.65 168.24
  Q 481.73 165.41 481.43 162.72
  C 481.31 161.66 481.78 160.92 481.61 159.91
  Q 481.46 159.00 480.54 158.99
  L 437.52 158.96
  A 0.53 0.52 0.0 0 0 436.99 159.48
  L 436.87 169.25
  A 0.88 0.87 -90.0 0 0 437.75 170.14
  L 452.73 170.05
  A 2.30 2.29 1.0 0 1 455.04 172.43
  Q 454.58 185.17 455.59 198.29"
/>
<path stroke="#229ddb" vector-effect="non-scaling-stroke" d="
  M 455.59 198.29
  L 455.65 225.62
  Q 455.66 226.46 456.50 226.46
  L 469.99 226.35
  Q 470.65 226.35 470.65 225.69
  L 470.55 196.23"
/>
<path stroke="#26b6ee" vector-effect="non-scaling-stroke" d="
  M 470.55 196.23
  Q 471.74 194.59 471.63 191.94
  Q 471.61 191.49 472.00 191.74
  L 472.36 191.98"
/>
<path stroke="#208fcd" vector-effect="non-scaling-stroke" d="
  M 470.55 196.23
  Q 462.37 196.45 457.25 196.25
  Q 455.67 196.19 455.59 198.29"
/>
<path stroke="#c81d25" vector-effect="non-scaling-stroke" d="
  M 65.59 92.45
  L 61.84 151.49
  Q 61.83 151.71 62.04 151.67
  Q 75.01 148.92 88.16 147.37
  Q 88.81 147.30 88.85 146.64
  L 92.19 90.24
  A 0.58 0.58 0.0 0 0 91.56 89.63
  L 66.17 91.86
  A 0.64 0.64 0.0 0 0 65.59 92.45"
/>
<path stroke="#760e14" vector-effect="non-scaling-stroke" d="
  M 526.12 53.28
  L 496.35 53.23
  A 0.35 0.35 0.0 0 0 496.00 53.60
  Q 498.10 89.43 499.94 125.12
  Q 499.75 125.46 500.26 125.55"
/>
<path stroke="#f36d28" vector-effect="non-scaling-stroke" d="
  M 500.26 125.55
  Q 500.30 125.73 500.24 126.00
  Q 500.12 126.52 500.65 126.54
  Q 503.68 126.69 506.79 127.26
  Q 509.50 127.77 513.18 128.07
  Q 518.33 128.49 523.24 129.26
  Q 525.80 129.66 528.25 129.67
  Q 530.79 129.69 533.24 130.06
  Q 533.89 130.15 533.84 129.51
  L 528.51 53.99
  A 0.70 0.67 -79.7 0 0 528.13 53.42
  Q 527.25 53.01 526.12 53.28"
/>
<path stroke="#7d5f14" vector-effect="non-scaling-stroke" d="
  M 500.26 125.55
  L 530.47 129.11
  Q 531.44 129.22 531.37 128.26
  L 526.12 53.28"
/>
<path stroke="#c81d25" vector-effect="non-scaling-stroke" d="
  M 538.48 135.36
  L 496.03 130.37
  Q 495.68 130.33 495.66 129.98
  L 493.30 88.23
  Q 493.23 86.97 491.98 86.90
  L 465.99 85.47
  Q 465.14 85.43 465.18 86.28
  Q 466.03 103.99 467.59 128.16
  C 467.98 134.30 470.73 139.27 476.24 142.23
  Q 479.03 143.72 484.94 144.37
  Q 514.11 147.55 537.87 152.47
  Q 547.90 154.54 557.34 157.43
  C 560.73 158.47 564.29 157.70 566.56 154.66
  Q 568.60 151.94 568.37 149.61
  Q 567.94 145.27 567.63 140.99
  Q 565.89 116.80 564.01 93.32
  Q 563.95 92.56 563.19 92.49
  L 536.58 90.04
  Q 535.88 89.97 535.93 90.67
  L 539.09 134.79
  Q 539.13 135.44 538.48 135.36"
/>
<path stroke="#c81d25" vector-effect="non-scaling-stroke" d="
  M 171.84 89.64
  L 223.00 87.81
  Q 224.26 87.76 224.26 86.50
  L 224.25 84.15
  Q 224.25 82.79 222.89 82.85
  L 152.45 85.63
  A 1.25 1.25 0.0 0 0 151.25 86.80
  L 148.45 129.29
  Q 148.40 130.10 149.21 130.01
  Q 185.92 126.29 223.95 124.70
  A 1.26 1.26 0.0 0 0 225.07 123.92
  L 229.28 113.98
  Q 229.52 113.41 228.99 113.44
  L 170.52 116.53
  A 0.47 0.47 0.0 0 1 170.02 116.04
  L 171.31 90.17
  Q 171.33 89.66 171.84 89.64"
/>
<path stroke="#c81d25" vector-effect="non-scaling-stroke" d="
  M 354.94 123.72
  A 0.76 0.76 0.0 0 0 355.67 124.47
  L 375.86 125.30
  A 0.76 0.76 0.0 0 0 376.65 124.51
  L 375.24 83.22
  A 0.76 0.76 0.0 0 0 374.50 82.49
  L 355.24 82.19
  A 0.76 0.76 0.0 0 0 354.47 82.96
  L 354.94 123.72"
/>
<path stroke="#c81d25" vector-effect="non-scaling-stroke" d="
  M 416.78 127.27
  A 0.58 0.58 0.0 0 0 417.30 127.83
  L 438.31 129.87
  A 0.58 0.58 0.0 0 0 438.94 129.26
  L 436.62 84.92
  A 0.58 0.58 0.0 0 0 436.07 84.37
  L 416.22 83.40
  A 0.58 0.58 0.0 0 0 415.62 84.00
  L 416.78 127.27"
/>
<path stroke="#c81d25" vector-effect="non-scaling-stroke" d="
  M 274.82 96.95
  A 0.37 0.37 0.0 0 0 274.73 96.51
  L 271.67 93.73
  A 0.37 0.37 0.0 0 0 271.05 94.02
  L 271.30 99.87
  A 0.37 0.37 0.0 0 0 271.87 100.16
  L 273.75 98.99
  A 0.37 0.37 0.0 0 0 273.89 98.84
  L 274.82 96.95"
/>
<path stroke="#125470" vector-effect="non-scaling-stroke" d="
  M 286.6376 171.7142
  A 0.35 0.35 0.0 0 0 286.2870 171.3648
  L 268.8470 171.3952
  A 0.35 0.35 0.0 0 0 268.4976 171.7458
  L 268.5224 185.9258
  A 0.35 0.35 0.0 0 0 268.8730 186.2752
  L 286.3130 186.2448
  A 0.35 0.35 0.0 0 0 286.6624 185.8942
  L 286.6376 171.7142"
/>
<path stroke="#229ddb" vector-effect="non-scaling-stroke" d="
  M 375.42 198.34
  Q 375.98 208.12 375.66 218.08
  C 375.56 221.02 376.06 222.98 378.52 224.78
  Q 380.04 225.90 382.59 225.91
  Q 402.39 225.98 420.56 225.88
  Q 424.62 225.85 426.29 222.94
  Q 427.28 221.19 427.23 217.36
  Q 427.10 207.06 426.92 196.75
  Q 426.90 196.05 426.81 196.26"
/>
<path stroke="#26b6ee" vector-effect="non-scaling-stroke" d="
  M 426.81 196.26
  Q 426.73 196.13 426.68 196.03
  Q 426.61 195.88 426.68 195.73
  Q 427.53 194.09 427.50 191.98
  Q 427.39 183.93 427.39 176.19
  Q 427.39 173.27 427.61 170.29
  Q 427.88 166.64 427.10 163.59
  Q 426.59 161.60 425.16 160.40
  Q 423.89 159.33 422.16 159.15
  Q 420.30 158.95 418.41 158.95
  Q 404.93 158.93 389.59 158.79
  Q 385.78 158.76 382.32 158.88
  C 379.65 158.97 377.68 160.00 376.09 162.04
  Q 374.91 163.55 374.84 167.11
  Q 374.54 182.74 375.42 198.34"
/>
<path stroke="#208fcd" vector-effect="non-scaling-stroke" d="
  M 426.81 196.26
  L 413.15 196.46
  Q 412.62 196.47 412.46 196.97
  Q 412.29 197.48 412.42 198.30"
/>
<path stroke="#26b6ee" vector-effect="non-scaling-stroke" d="
  M 412.42 198.30
  Q 412.40 196.75 411.81 195.44
  Q 411.45 194.63 410.41 194.97"
/>
<path stroke="#125470" vector-effect="non-scaling-stroke" d="
  M 410.41 194.97
  L 410.30 171.92
  Q 410.30 171.33 409.71 171.34
  L 392.84 171.42
  Q 392.31 171.42 392.30 171.95
  L 392.05 184.98"
/>
<path stroke="#26b6ee" vector-effect="non-scaling-stroke" d="
  M 392.05 184.98
  Q 390.65 190.32 390.65 196.37"
/>
<path stroke="#208fcd" vector-effect="non-scaling-stroke" d="
  M 390.65 196.37
  Q 383.57 196.18 376.97 196.34
  Q 376.10 196.37 375.85 196.94
  Q 375.64 197.44 375.42 198.34"
/>
<path stroke="#229ddb" vector-effect="non-scaling-stroke" d="
  M 412.42 198.30
  L 412.44 213.83
  A 2.41 2.41 0.0 0 1 410.03 216.24
  L 392.70 216.29
  A 2.19 2.19 0.0 0 1 390.51 214.08
  L 390.65 196.37"
/>
<path stroke="#14627e" vector-effect="non-scaling-stroke" d="
  M 410.41 194.97
  L 410.41 213.64
  Q 410.41 214.25 409.79 214.25
  L 392.77 214.26
  Q 392.24 214.26 392.23 213.73
  L 392.05 184.98"
/>
<path stroke="#125470" vector-effect="non-scaling-stroke" d="
  M 161.6776 171.7843
  A 0.30 0.30 0.0 0 0 161.3770 171.4848
  L 143.9571 171.5152
  A 0.30 0.30 0.0 0 0 143.6576 171.8157
  L 143.6824 186.0557
  A 0.30 0.30 0.0 0 0 143.9830 186.3552
  L 161.4029 186.3248
  A 0.30 0.30 0.0 0 0 161.7024 186.0243
  L 161.6776 171.7843"
/>
<path stroke="#125470" vector-effect="non-scaling-stroke" d="
  M 348.3475 171.7542
  A 0.27 0.27 0.0 0 0 348.0770 171.4847
  L 330.4970 171.5154
  A 0.27 0.27 0.0 0 0 330.2275 171.7858
  L 330.2525 186.1258
  A 0.27 0.27 0.0 0 0 330.5230 186.3953
  L 348.1030 186.3646
  A 0.27 0.27 0.0 0 0 348.3725 186.0942
  L 348.3475 171.7542"
/>
</g>
<path fill="#ec1c27" d="
  M 600.00 147.63
  L 600.00 152.02
  Q 597.84 174.93 578.17 185.18
  Q 570.12 189.38 560.09 189.33
  Q 554.89 189.30 546.04 186.85
  Q 529.73 182.34 510.49 179.56
  Q 509.98 179.48 509.98 180.00
  L 510.01 197.72
  Q 510.01 198.21 509.53 198.21
  L 500.23 198.22
  Q 499.59 198.22 499.58 198.87
  L 499.46 255.00
  L 98.25 255.00
  L 98.20 177.92
  A 0.29 0.28 -4.4 0 0 97.87 177.64
  Q 82.07 179.60 65.51 183.03
  Q 45.76 187.12 28.07 191.10
  Q 27.49 191.23 27.53 190.64
  L 34.49 81.52
  Q 34.52 81.03 34.03 81.04
  L 0.00 81.70
  L 0.00 80.29
  L 5.71 0.81
  A 0.51 0.50 -87.5 0 1 6.21 0.34
  Q 279.32 0.29 551.25 0.22
  Q 556.35 0.22 561.93 1.94
  C 575.12 5.98 585.11 15.72 589.63 28.52
  Q 591.33 33.31 592.18 44.69
  Q 596.04 96.16 600.00 147.63
  Z
  M 502.40 170.13
  C 518.95 172.46 535.91 175.32 552.18 180.22
  Q 561.87 183.15 571.13 179.53
  C 584.90 174.14 592.91 161.81 591.79 146.89
  Q 587.85 94.50 583.85 41.60
  Q 583.42 36.02 581.96 31.50
  C 578.67 21.35 569.89 13.21 559.76 10.12
  Q 555.34 8.77 547.09 8.76
  C 369.44 8.69 191.79 8.53 14.13 8.57
  Q 13.50 8.57 13.46 9.19
  L 8.86 72.86
  Q 8.82 73.39 9.35 73.37
  L 42.34 72.63
  Q 43.06 72.62 43.01 73.34
  L 36.23 180.48
  Q 36.20 180.99 36.70 180.88
  C 49.76 178.01 62.88 175.01 76.02 172.81
  Q 91.30 170.26 106.02 168.47
  A 0.15 0.15 0.0 0 1 106.19 168.62
  L 106.18 246.66
  A 0.35 0.34 -90.0 0 0 106.52 247.01
  L 491.02 247.01
  A 0.35 0.35 0.0 0 0 491.37 246.66
  L 491.44 190.45
  A 0.32 0.31 -89.1 0 1 491.76 190.13
  L 501.27 190.21
  A 0.48 0.47 -89.4 0 0 501.75 189.73
  L 501.75 170.70
  Q 501.75 170.03 502.40 170.13
  Z"
/>
<path fill="#000000" d="
  M 501.75 170.70
  L 501.75 189.73
  A 0.48 0.47 -89.4 0 1 501.27 190.21
  L 491.76 190.13
  A 0.32 0.31 -89.1 0 0 491.44 190.45
  L 491.37 246.66
  A 0.35 0.35 0.0 0 1 491.02 247.01
  L 106.52 247.01
  A 0.35 0.34 -90.0 0 1 106.18 246.66
  L 106.19 168.62
  A 0.15 0.15 0.0 0 0 106.02 168.47
  Q 91.30 170.26 76.02 172.81
  C 62.88 175.01 49.76 178.01 36.70 180.88
  Q 36.20 180.99 36.23 180.48
  L 43.01 73.34
  Q 43.06 72.62 42.34 72.63
  L 9.35 73.37
  Q 8.82 73.39 8.86 72.86
  L 13.46 9.19
  Q 13.50 8.57 14.13 8.57
  C 191.79 8.53 369.44 8.69 547.09 8.76
  Q 555.34 8.77 559.76 10.12
  C 569.89 13.21 578.67 21.35 581.96 31.50
  Q 583.42 36.02 583.85 41.60
  Q 587.85 94.50 591.79 146.89
  C 592.91 161.81 584.90 174.14 571.13 179.53
  Q 561.87 183.15 552.18 180.22
  C 535.91 175.32 518.95 172.46 502.40 170.13
  Q 501.75 170.03 501.75 170.70
  Z
  M 28.58 53.14
  C 29.20 53.84 29.58 54.17 30.59 54.13
  Q 45.27 53.49 60.37 53.56
  L 53.84 155.96
  Q 53.81 156.52 54.33 156.31
  L 56.00 155.66
  Q 56.42 156.18 56.66 156.82
  Q 56.84 157.30 57.34 157.19
  Q 74.36 153.63 92.51 151.22
  Q 92.96 151.16 92.99 150.71
  L 99.10 53.24
  Q 99.14 52.61 99.77 52.59
  L 134.94 51.62
  Q 135.49 51.61 135.49 51.06
  L 135.48 28.28
  Q 135.48 27.79 135.00 27.72
  L 132.83 27.40
  Q 132.66 27.01 132.50 26.80
  Q 132.32 26.57 132.03 26.57
  Q 80.08 26.61 28.67 26.48
  A 0.47 0.47 0.0 0 0 28.20 26.92
  L 26.41 52.58
  Q 26.38 53.11 26.91 53.20
  Q 27.71 53.33 28.58 53.14
  Z
  M 473.86 146.69
  Q 478.04 148.41 480.17 148.63
  Q 488.08 149.47 497.51 150.61
  Q 526.17 154.10 555.53 161.77
  Q 560.40 163.04 562.93 162.50
  Q 569.49 161.11 572.28 154.74
  Q 573.37 152.24 572.99 147.21
  Q 569.04 95.53 565.21 43.74
  Q 564.23 30.54 552.37 27.82
  Q 550.05 26.80 549.25 26.80
  Q 512.75 26.76 476.25 26.79
  C 468.25 26.80 464.11 26.37 459.09 31.56
  Q 454.70 36.10 455.08 42.72
  Q 457.31 81.75 459.74 125.67
  Q 460.08 131.89 461.92 135.89
  Q 465.35 143.35 473.86 146.69
  Z
  M 242.43 101.04
  L 234.60 107.30
  Q 234.25 107.58 233.80 107.56
  Q 233.62 107.56 233.41 107.54
  L 232.98 107.64
  L 174.83 110.33
  L 175.58 94.38
  Q 175.60 93.94 176.04 93.92
  L 228.00 92.05
  Q 228.52 92.03 228.52 91.50
  L 228.50 73.53
  Q 228.49 72.98 227.95 72.85
  L 225.06 72.20
  L 176.49 71.74
  L 177.34 55.64
  A 0.41 0.41 0.0 0 1 177.75 55.25
  L 228.92 55.25
  A 0.65 0.65 0.0 0 0 229.50 54.89
  L 238.34 36.33
  Q 238.54 35.90 238.07 35.82
  L 235.50 35.39
  Q 235.53 34.68 235.00 34.68
  Q 191.35 34.73 146.93 34.73
  A 0.34 0.33 -88.2 0 0 146.60 35.05
  L 140.62 133.71
  Q 140.59 134.18 141.06 134.18
  L 143.29 134.18
  Q 143.31 134.70 143.64 135.00
  Q 143.90 135.24 144.42 135.18
  Q 185.72 130.73 227.02 129.30
  A 1.33 1.33 0.0 0 0 228.20 128.49
  L 236.18 109.45
  Q 236.36 109.03 235.93 108.89
  L 234.18 108.31
  Q 236.40 107.28 238.46 106.34
  Q 240.64 105.35 242.54 104.00
  C 254.70 95.41 265.80 87.75 275.89 79.87
  C 279.63 76.95 282.30 72.75 286.48 70.42
  Q 289.63 68.67 292.47 66.23
  Q 294.94 64.10 298.45 61.97
  Q 309.36 55.37 318.93 46.37
  Q 319.93 45.40 321.23 44.23
  Q 322.07 43.47 323.18 43.04
  Q 323.88 42.77 323.36 43.31
  C 317.55 49.34 311.08 54.89 304.50 60.00
  C 301.32 62.47 297.57 63.80 294.55 66.61
  Q 292.23 68.77 289.51 70.36
  Q 285.43 72.74 282.03 76.39
  C 279.87 78.72 277.44 80.56 275.09 82.76
  L 250.48 100.27
  L 245.35 104.19
  L 242.88 105.68
  Q 242.44 105.94 242.44 106.46
  L 242.33 120.50
  L 224.60 134.51
  Q 224.50 134.59 224.57 134.69
  L 224.73 134.91
  Q 224.85 135.09 225.04 134.98
  Q 240.04 125.37 255.13 115.87
  C 259.39 113.20 262.99 109.78 267.14 106.94
  C 273.03 102.89 279.33 99.38 284.65 94.68
  C 290.85 89.20 296.86 83.01 304.13 78.84
  Q 306.57 77.44 308.40 75.52
  C 311.76 71.98 315.60 69.05 320.21 67.49
  C 322.46 66.74 324.84 65.54 326.56 64.28
  Q 336.54 56.92 346.01 48.51
  Q 346.57 48.01 347.53 46.38
  Q 347.80 46.02 348.27 45.71
  Q 349.45 46.24 349.74 45.24
  Q 351.97 43.86 354.16 42.44
  Q 354.29 42.35 354.37 42.48
  L 354.38 42.49
  Q 354.46 42.61 354.33 42.70
  Q 351.49 44.55 348.94 46.79
  L 346.87 48.82
  A 1.13 1.12 67.4 0 0 346.53 49.65
  Q 346.63 56.59 346.76 63.50
  Q 346.77 64.06 347.44 63.73
  Q 340.35 68.16 334.39 74.15
  Q 333.00 75.56 330.99 76.23
  Q 324.19 78.48 318.25 82.98
  C 316.40 84.38 315.60 86.44 313.57 87.81
  Q 308.95 90.95 304.51 92.60
  Q 304.08 92.76 303.49 92.40
  L 297.37 87.01
  Q 296.96 86.65 296.56 87.01
  L 292.89 90.28
  L 280.57 100.48
  L 270.22 107.29
  C 265.60 110.45 261.33 113.97 256.80 116.75
  Q 253.38 118.85 250.05 120.90
  L 245.04 123.88
  Q 243.27 124.50 242.30 125.68
  A 1.04 1.04 0.0 0 0 243.18 127.38
  L 244.52 127.27
  Q 244.64 127.79 245.06 128.11
  Q 245.38 128.35 245.96 128.32
  Q 253.05 127.90 260.57 127.77
  Q 253.38 133.57 245.99 138.70
  Q 244.41 139.79 242.97 141.03
  Q 242.80 141.18 242.94 141.36
  L 242.95 141.37
  Q 243.08 141.54 243.26 141.42
  Q 259.65 130.49 275.54 118.89
  C 281.13 114.80 287.91 111.63 292.84 107.10
  C 300.00 100.52 307.22 93.86 315.81 89.01
  Q 318.37 87.56 320.64 85.34
  Q 324.06 81.98 328.50 80.06
  Q 338.04 75.91 344.76 68.24
  Q 346.69 66.03 350.63 62.45
  Q 353.90 59.48 357.70 57.85
  Q 359.16 57.22 357.90 58.18
  L 348.12 65.66
  Q 346.47 69.05 346.79 74.30
  Q 347.04 78.40 347.10 81.35
  Q 347.55 104.13 347.76 127.08
  Q 347.77 127.69 348.37 127.78
  L 349.96 128.02
  Q 350.55 128.69 351.02 128.71
  Q 366.40 129.28 380.90 130.10
  Q 381.49 130.14 381.47 129.54
  L 379.09 55.54
  Q 379.07 54.99 379.61 55.00
  L 407.36 55.25
  Q 407.34 61.36 407.54 67.50
  Q 408.58 99.24 409.68 131.00
  Q 409.70 131.73 411.97 131.51
  Q 411.93 132.16 413.75 132.28
  Q 428.65 133.30 443.35 135.14
  A 0.38 0.38 0.0 0 0 443.78 134.75
  L 439.00 36.49
  A 0.84 0.83 10.8 0 0 438.50 35.76
  Q 437.63 35.39 436.51 35.43
  L 435.73 35.02
  Q 435.16 34.72 434.52 34.72
  L 346.93 34.73
  Q 346.34 34.73 346.35 35.33
  L 346.55 46.30
  Q 346.53 46.82 345.51 47.19
  Q 343.29 48.00 331.76 55.43
  Q 329.61 56.82 327.18 58.97
  Q 324.10 61.70 318.78 64.13
  Q 312.35 67.08 305.70 72.94
  Q 302.27 75.97 296.19 78.71
  L 335.76 36.29
  Q 336.59 35.39 335.38 35.52
  Q 333.79 35.68 333.23 35.04
  L 332.97 34.86
  Q 332.75 34.71 332.48 34.71
  L 297.92 34.73
  A 1.11 1.11 0.0 0 0 297.10 35.09
  L 275.90 57.68
  L 275.75 36.08
  Q 275.75 35.59 275.25 35.58
  Q 273.79 35.56 272.76 35.06
  Q 272.68 34.90 272.57 34.75
  Q 272.43 34.55 272.18 34.55
  L 243.95 34.60
  A 0.48 0.47 -89.4 0 0 243.48 35.07
  L 242.43 101.04
  Z
  M 304.30 99.55
  L 291.61 110.68
  L 287.16 113.35
  Q 286.22 113.78 286.62 114.13
  Q 293.31 119.96 299.95 125.83
  Q 300.68 126.48 301.53 126.64
  Q 303.64 127.82 306.00 127.87
  Q 323.88 128.26 341.76 128.62
  C 342.34 128.63 343.09 128.90 343.66 128.93
  Q 345.31 129.00 344.07 127.91
  L 308.62 96.82
  A 0.70 0.69 -39.5 0 0 307.82 96.75
  Q 305.48 98.12 304.30 99.55
  Z
  M 267.00 127.82
  L 275.22 127.55
  Q 275.74 127.53 275.75 127.02
  L 275.90 121.70
  A 0.46 0.45 73.1 0 0 275.18 121.31
  L 266.83 127.32
  Q 266.10 127.85 267.00 127.82
  Z
  M 180.28 187.81
  Q 180.85 175.05 179.99 163.12
  Q 177.18 157.56 173.24 157.55
  Q 149.41 157.46 125.51 157.56
  Q 125.03 157.56 125.03 158.04
  L 125.06 227.62
  Q 125.06 228.19 125.63 228.19
  L 142.98 228.19
  Q 143.55 228.19 143.55 227.62
  L 143.55 197.76
  A 0.36 0.36 0.0 0 1 143.90 197.40
  Q 156.68 197.22 171.16 197.38
  C 176.68 197.44 180.51 193.47 180.28 187.81
  Z
  M 208.31 182.55
  L 208.66 182.28
  Q 208.91 182.09 209.16 182.28
  Q 209.37 182.44 209.21 182.61
  L 221.35 213.76
  Q 221.55 214.27 221.01 214.27
  L 204.50 214.25
  Q 204.25 214.25 204.25 214.50
  L 204.25 227.73
  Q 204.25 228.20 204.73 228.20
  L 244.74 228.20
  Q 244.92 228.20 244.86 228.03
  L 217.80 158.14
  Q 217.57 157.53 216.92 157.53
  L 200.43 157.54
  A 0.78 0.78 0.0 0 0 199.70 158.04
  L 172.81 227.66
  Q 172.61 228.17 173.15 228.17
  L 189.86 228.17
  Q 190.54 228.17 190.79 227.54
  L 208.31 182.55
  Z
  M 249.91 203.34
  L 250.03 227.70
  Q 250.03 228.19 250.52 228.19
  L 268.02 228.21
  Q 268.49 228.21 268.49 227.73
  L 268.48 197.95
  Q 268.48 197.38 269.05 197.36
  L 270.92 197.31
  Q 271.64 197.30 271.98 197.92
  L 288.06 227.43
  A 1.34 1.34 0.0 0 0 289.24 228.13
  L 306.76 228.21
  A 0.17 0.17 0.0 0 0 306.91 227.96
  L 290.29 197.53
  Q 293.04 197.40 295.72 197.28
  Q 299.15 197.14 300.80 196.14
  C 303.24 194.66 304.91 192.10 304.94 189.20
  Q 305.03 176.82 304.93 166.13
  C 304.88 160.39 300.88 157.39 295.50 157.43
  Q 271.93 157.58 250.44 157.49
  Q 249.86 157.48 249.87 158.06
  L 249.91 203.34
  Z
  M 366.79 188.72
  Q 367.24 177.77 366.86 165.38
  Q 366.82 164.15 366.34 163.16
  Q 364.10 157.52 358.74 157.51
  Q 335.54 157.49 312.23 157.54
  Q 311.73 157.54 311.73 158.04
  L 311.74 227.71
  Q 311.74 228.18 312.21 228.18
  L 329.73 228.20
  Q 330.29 228.20 330.29 227.64
  L 330.29 197.94
  Q 330.29 197.43 330.81 197.40
  L 332.85 197.32
  Q 333.49 197.29 333.79 197.85
  L 350.06 227.73
  A 0.81 0.81 0.0 0 0 350.77 228.15
  L 368.42 228.22
  A 0.27 0.27 0.0 0 0 368.65 227.82
  L 352.32 197.92
  A 0.41 0.40 -14.0 0 1 352.68 197.33
  C 355.62 197.31 359.23 197.81 361.99 196.51
  Q 366.43 194.43 366.79 188.72
  Z
  M 428.8834 166.1117
  A 8.67 8.67 0.0 0 0 420.1983 157.4569
  L 382.1983 157.5232
  A 8.67 8.67 0.0 0 0 373.5435 166.2083
  L 373.6366 219.5683
  A 8.67 8.67 0.0 0 0 382.3217 228.2231
  L 420.3217 228.1568
  A 8.67 8.67 0.0 0 0 428.9765 219.4717
  L 428.8834 166.1117
  Z
  M 472.36 191.98
  L 472.46 174.44
  L 472.45 171.97
  Q 472.45 171.43 472.99 171.42
  L 482.53 171.32
  Q 483.13 171.31 483.13 170.71
  L 483.15 158.09
  Q 483.15 157.54 482.59 157.54
  L 436.31 157.53
  Q 435.65 157.53 435.65 158.19
  L 435.61 170.74
  A 0.62 0.62 0.0 0 0 436.24 171.36
  L 453.17 171.33
  A 0.59 0.59 0.0 0 1 453.76 171.92
  L 453.78 227.74
  Q 453.78 228.20 454.24 228.20
  L 471.76 228.20
  Q 472.33 228.20 472.33 227.64
  L 472.36 191.98
  Z"
/>
<path fill="#f9be28" d="
  M 132.83 27.40
  Q 131.16 27.91 128.75 27.89
  Q 79.53 27.46 31.27 27.68
  Q 30.68 27.68 30.64 28.26
  Q 29.75 40.38 29.32 51.75
  Q 29.28 52.92 28.58 53.14
  Q 27.71 53.33 26.91 53.20
  Q 26.38 53.11 26.41 52.58
  L 28.20 26.92
  A 0.47 0.47 0.0 0 1 28.67 26.48
  Q 80.08 26.61 132.03 26.57
  Q 132.32 26.57 132.50 26.80
  Q 132.66 27.01 132.83 27.40
  Z"
/>
<path fill="#f9be28" d="
  M 552.37 27.82
  Q 514.80 27.67 477.41 27.72
  Q 469.63 27.73 466.68 28.98
  Q 461.39 31.23 458.72 37.57
  Q 457.62 40.17 457.95 46.37
  Q 458.53 57.57 459.19 68.77
  Q 460.27 87.29 461.19 102.51
  Q 461.99 115.63 462.79 128.75
  Q 463.46 139.82 473.86 146.69
  Q 465.35 143.35 461.92 135.89
  Q 460.08 131.89 459.74 125.67
  Q 457.31 81.75 455.08 42.72
  Q 454.70 36.10 459.09 31.56
  C 464.11 26.37 468.25 26.80 476.25 26.79
  Q 512.75 26.76 549.25 26.80
  Q 550.05 26.80 552.37 27.82
  Z"
/>
<path fill="#ec1c27" d="
  M 132.83 27.40
  L 135.00 27.72
  Q 135.48 27.79 135.48 28.28
  L 135.49 51.06
  Q 135.49 51.61 134.94 51.62
  L 99.77 52.59
  Q 99.14 52.61 99.10 53.24
  L 92.99 150.71
  Q 92.96 151.16 92.51 151.22
  Q 74.36 153.63 57.34 157.19
  Q 56.84 157.30 56.66 156.82
  Q 56.42 156.18 56.00 155.66
  L 56.22 155.31
  A 1.38 1.34 -27.9 0 0 56.43 154.66
  L 62.95 54.15
  Q 62.98 53.65 62.50 53.50
  Q 61.64 53.25 60.37 53.56
  Q 45.27 53.49 30.59 54.13
  C 29.58 54.17 29.20 53.84 28.58 53.14
  Q 29.28 52.92 29.32 51.75
  Q 29.75 40.38 30.64 28.26
  Q 30.68 27.68 31.27 27.68
  Q 79.53 27.46 128.75 27.89
  Q 131.16 27.91 132.83 27.40
  Z
  M 65.59 92.45
  L 61.84 151.49
  Q 61.83 151.71 62.04 151.67
  Q 75.01 148.92 88.16 147.37
  Q 88.81 147.30 88.85 146.64
  L 92.19 90.24
  A 0.58 0.58 0.0 0 0 91.56 89.63
  L 66.17 91.86
  A 0.64 0.64 0.0 0 0 65.59 92.45
  Z"
/>
<path fill="#ec1c27" d="
  M 552.37 27.82
  Q 564.23 30.54 565.21 43.74
  Q 569.04 95.53 572.99 147.21
  Q 573.37 152.24 572.28 154.74
  Q 569.49 161.11 562.93 162.50
  Q 560.40 163.04 555.53 161.77
  Q 526.17 154.10 497.51 150.61
  Q 488.08 149.47 480.17 148.63
  Q 478.04 148.41 473.86 146.69
  Q 463.46 139.82 462.79 128.75
  Q 461.99 115.63 461.19 102.51
  Q 460.27 87.29 459.19 68.77
  Q 458.53 57.57 457.95 46.37
  Q 457.62 40.17 458.72 37.57
  Q 461.39 31.23 466.68 28.98
  Q 469.63 27.73 477.41 27.72
  Q 514.80 27.67 552.37 27.82
  Z
  M 526.12 53.28
  L 496.35 53.23
  A 0.35 0.35 0.0 0 0 496.00 53.60
  Q 498.10 89.43 499.94 125.12
  Q 499.75 125.46 500.26 125.55
  Q 500.30 125.73 500.24 126.00
  Q 500.12 126.52 500.65 126.54
  Q 503.68 126.69 506.79 127.26
  Q 509.50 127.77 513.18 128.07
  Q 518.33 128.49 523.24 129.26
  Q 525.80 129.66 528.25 129.67
  Q 530.79 129.69 533.24 130.06
  Q 533.89 130.15 533.84 129.51
  L 528.51 53.99
  A 0.70 0.67 -79.7 0 0 528.13 53.42
  Q 527.25 53.01 526.12 53.28
  Z
  M 538.48 135.36
  L 496.03 130.37
  Q 495.68 130.33 495.66 129.98
  L 493.30 88.23
  Q 493.23 86.97 491.98 86.90
  L 465.99 85.47
  Q 465.14 85.43 465.18 86.28
  Q 466.03 103.99 467.59 128.16
  C 467.98 134.30 470.73 139.27 476.24 142.23
  Q 479.03 143.72 484.94 144.37
  Q 514.11 147.55 537.87 152.47
  Q 547.90 154.54 557.34 157.43
  C 560.73 158.47 564.29 157.70 566.56 154.66
  Q 568.60 151.94 568.37 149.61
  Q 567.94 145.27 567.63 140.99
  Q 565.89 116.80 564.01 93.32
  Q 563.95 92.56 563.19 92.49
  L 536.58 90.04
  Q 535.88 89.97 535.93 90.67
  L 539.09 134.79
  Q 539.13 135.44 538.48 135.36
  Z"
/>
<path fill="#f9be28" d="
  M 272.76 35.06
  Q 272.63 35.58 272.25 35.58
  Q 259.50 35.74 246.40 35.57
  A 0.64 0.64 0.0 0 0 245.75 36.20
  L 245.25 99.08
  Q 244.12 100.63 242.43 101.04
  L 243.48 35.07
  A 0.48 0.47 -89.4 0 1 243.95 34.60
  L 272.18 34.55
  Q 272.43 34.55 272.57 34.75
  Q 272.68 34.90 272.76 35.06
  Z"
/>
<path fill="#f9be28" d="
  M 235.50 35.39
  L 150.02 35.72
  Q 149.29 35.72 149.25 36.45
  L 143.29 134.18
  L 141.06 134.18
  Q 140.59 134.18 140.62 133.71
  L 146.60 35.05
  A 0.34 0.33 -88.2 0 1 146.93 34.73
  Q 191.35 34.73 235.00 34.68
  Q 235.53 34.68 235.50 35.39
  Z"
/>
<path fill="#f9be28" d="
  M 333.23 35.04
  Q 333.22 35.29 332.87 35.52
  Q 332.66 35.66 332.42 35.66
  Q 315.55 35.79 300.83 35.63
  A 2.23 2.21 -67.7 0 0 299.16 36.34
  L 276.36 60.61
  Q 275.94 61.07 275.93 60.44
  L 275.90 57.68
  L 297.10 35.09
  A 1.11 1.11 0.0 0 1 297.92 34.73
  L 332.48 34.71
  Q 332.75 34.71 332.97 34.86
  L 333.23 35.04
  Z"
/>
<path fill="#f9be28" d="
  M 436.51 35.43
  Q 436.33 35.41 436.22 35.52
  Q 436.07 35.68 435.86 35.68
  L 349.11 35.59
  A 0.65 0.65 0.0 0 0 348.46 36.26
  L 348.66 44.24
  A 2.30 2.27 -35.2 0 1 348.50 45.13
  L 348.27 45.71
  Q 347.80 46.02 347.53 46.38
  L 346.55 46.30
  L 346.35 35.33
  Q 346.34 34.73 346.93 34.73
  L 434.52 34.72
  Q 435.16 34.72 435.73 35.02
  L 436.51 35.43
  Z"
/>
<path fill="#ec1c27" d="
  M 272.76 35.06
  Q 273.79 35.56 275.25 35.58
  Q 275.75 35.59 275.75 36.08
  L 275.90 57.68
  L 275.93 60.44
  Q 275.94 61.07 276.36 60.61
  L 299.16 36.34
  A 2.23 2.21 -67.7 0 1 300.83 35.63
  Q 315.55 35.79 332.42 35.66
  Q 332.66 35.66 332.87 35.52
  Q 333.22 35.29 333.23 35.04
  Q 333.79 35.68 335.38 35.52
  Q 336.59 35.39 335.76 36.29
  L 296.19 78.71
  Q 292.35 81.20 288.21 83.72
  Q 287.36 84.24 286.93 83.87
  Q 286.49 83.50 286.19 82.47
  A 0.42 0.41 81.9 0 0 285.81 82.18
  Q 282.97 82.05 280.34 82.01
  Q 279.12 81.99 277.60 82.51
  Q 276.13 83.02 275.09 82.76
  C 277.44 80.56 279.87 78.72 282.03 76.39
  Q 285.43 72.74 289.51 70.36
  Q 292.23 68.77 294.55 66.61
  C 297.57 63.80 301.32 62.47 304.50 60.00
  C 311.08 54.89 317.55 49.34 323.36 43.31
  Q 323.88 42.77 323.18 43.04
  Q 322.07 43.47 321.23 44.23
  Q 319.93 45.40 318.93 46.37
  Q 318.03 46.74 317.37 46.95
  Q 316.58 47.19 315.87 47.59
  Q 306.61 52.79 297.97 59.60
  A 1.42 1.42 0.0 0 1 297.04 59.90
  Q 294.02 59.76 291.81 61.84
  Q 287.32 66.05 281.66 69.61
  C 276.96 72.56 272.94 76.42 268.86 80.07
  C 267.54 81.24 266.12 82.37 264.26 82.40
  Q 257.78 82.52 251.17 82.51
  A 0.96 0.95 -87.7 0 0 250.22 83.39
  Q 249.86 88.12 249.95 93.64
  Q 249.98 95.36 248.85 96.77
  Q 247.49 98.43 245.25 99.08
  L 245.75 36.20
  A 0.64 0.64 0.0 0 1 246.40 35.57
  Q 259.50 35.74 272.25 35.58
  Q 272.63 35.58 272.76 35.06
  Z"
/>
<path fill="#ec1c27" d="
  M 235.50 35.39
  L 238.07 35.82
  Q 238.54 35.90 238.34 36.33
  L 229.50 54.89
  A 0.65 0.65 0.0 0 1 228.92 55.25
  L 177.75 55.25
  A 0.41 0.41 0.0 0 0 177.34 55.64
  L 176.49 71.74
  Q 176.53 72.68 177.50 72.71
  Q 199.04 73.16 224.50 72.67
  Q 224.94 72.66 225.06 72.20
  L 227.95 72.85
  Q 228.49 72.98 228.50 73.53
  L 228.52 91.50
  Q 228.52 92.03 228.00 92.05
  L 176.04 93.92
  Q 175.60 93.94 175.58 94.38
  L 174.83 110.33
  Q 174.75 111.67 175.24 111.64
  Q 193.22 110.30 211.24 109.63
  Q 227.32 109.04 231.75 108.73
  Q 233.34 108.62 232.98 107.64
  L 233.41 107.54
  Q 234.15 109.11 234.18 108.31
  L 235.93 108.89
  Q 236.36 109.03 236.18 109.45
  L 228.20 128.49
  A 1.33 1.33 0.0 0 1 227.02 129.30
  Q 185.72 130.73 144.42 135.18
  Q 143.90 135.24 143.64 135.00
  Q 143.31 134.70 143.29 134.18
  L 149.25 36.45
  Q 149.29 35.72 150.02 35.72
  L 235.50 35.39
  Z
  M 171.84 89.64
  L 223.00 87.81
  Q 224.26 87.76 224.26 86.50
  L 224.25 84.15
  Q 224.25 82.79 222.89 82.85
  L 152.45 85.63
  A 1.25 1.25 0.0 0 0 151.25 86.80
  L 148.45 129.29
  Q 148.40 130.10 149.21 130.01
  Q 185.92 126.29 223.95 124.70
  A 1.26 1.26 0.0 0 0 225.07 123.92
  L 229.28 113.98
  Q 229.52 113.41 228.99 113.44
  L 170.52 116.53
  A 0.47 0.47 0.0 0 1 170.02 116.04
  L 171.31 90.17
  Q 171.33 89.66 171.84 89.64
  Z"
/>
<path fill="#ec1c27" d="
  M 436.51 35.43
  Q 437.63 35.39 438.50 35.76
  A 0.84 0.83 10.8 0 1 439.00 36.49
  L 443.78 134.75
  A 0.38 0.38 0.0 0 1 443.35 135.14
  Q 428.65 133.30 413.75 132.28
  Q 411.93 132.16 411.97 131.51
  L 409.59 56.11
  A 1.13 1.13 0.0 0 0 408.54 55.03
  Q 408.05 55.00 407.36 55.25
  L 379.61 55.00
  Q 379.07 54.99 379.09 55.54
  L 381.47 129.54
  Q 381.49 130.14 380.90 130.10
  Q 366.40 129.28 351.02 128.71
  Q 350.55 128.69 349.96 128.02
  L 349.45 65.82
  Q 349.45 65.28 348.92 65.41
  Q 348.61 65.49 348.12 65.66
  L 357.90 58.18
  Q 359.16 57.22 357.70 57.85
  Q 353.90 59.48 350.63 62.45
  L 348.98 62.27
  L 348.94 46.79
  Q 351.49 44.55 354.33 42.70
  Q 354.46 42.61 354.38 42.49
  L 354.37 42.48
  Q 354.29 42.35 354.16 42.44
  Q 351.97 43.86 349.74 45.24
  Q 349.45 46.24 348.27 45.71
  L 348.50 45.13
  A 2.30 2.27 -35.2 0 0 348.66 44.24
  L 348.46 36.26
  A 0.65 0.65 0.0 0 1 349.11 35.59
  L 435.86 35.68
  Q 436.07 35.68 436.22 35.52
  Q 436.33 35.41 436.51 35.43
  Z
  M 354.94 123.72
  A 0.76 0.76 0.0 0 0 355.67 124.47
  L 375.86 125.30
  A 0.76 0.76 0.0 0 0 376.65 124.51
  L 375.24 83.22
  A 0.76 0.76 0.0 0 0 374.50 82.49
  L 355.24 82.19
  A 0.76 0.76 0.0 0 0 354.47 82.96
  L 354.94 123.72
  Z
  M 416.78 127.27
  A 0.58 0.58 0.0 0 0 417.30 127.83
  L 438.31 129.87
  A 0.58 0.58 0.0 0 0 438.94 129.26
  L 436.62 84.92
  A 0.58 0.58 0.0 0 0 436.07 84.37
  L 416.22 83.40
  A 0.58 0.58 0.0 0 0 415.62 84.00
  L 416.78 127.27
  Z"
/>
<path fill="#a31e22" d="
  M 318.93 46.37
  Q 309.36 55.37 298.45 61.97
  Q 294.94 64.10 292.47 66.23
  Q 289.63 68.67 286.48 70.42
  C 282.30 72.75 279.63 76.95 275.89 79.87
  C 265.80 87.75 254.70 95.41 242.54 104.00
  Q 240.64 105.35 238.46 106.34
  Q 236.40 107.28 234.18 108.31
  Q 234.15 109.11 233.41 107.54
  Q 233.62 107.56 233.80 107.56
  Q 234.25 107.58 234.60 107.30
  L 242.43 101.04
  Q 244.12 100.63 245.25 99.08
  Q 247.49 98.43 248.85 96.77
  Q 249.98 95.36 249.95 93.64
  Q 249.86 88.12 250.22 83.39
  A 0.96 0.95 -87.7 0 1 251.17 82.51
  Q 257.78 82.52 264.26 82.40
  C 266.12 82.37 267.54 81.24 268.86 80.07
  C 272.94 76.42 276.96 72.56 281.66 69.61
  Q 287.32 66.05 291.81 61.84
  Q 294.02 59.76 297.04 59.90
  A 1.42 1.42 0.0 0 0 297.97 59.60
  Q 306.61 52.79 315.87 47.59
  Q 316.58 47.19 317.37 46.95
  Q 318.03 46.74 318.93 46.37
  Z"
/>
<path fill="#a31e22" d="
  M 346.55 46.30
  L 347.53 46.38
  Q 346.57 48.01 346.01 48.51
  Q 336.54 56.92 326.56 64.28
  C 324.84 65.54 322.46 66.74 320.21 67.49
  C 315.60 69.05 311.76 71.98 308.40 75.52
  Q 306.57 77.44 304.13 78.84
  C 296.86 83.01 290.85 89.20 284.65 94.68
  C 279.33 99.38 273.03 102.89 267.14 106.94
  C 262.99 109.78 259.39 113.20 255.13 115.87
  Q 240.04 125.37 225.04 134.98
  Q 224.85 135.09 224.73 134.91
  L 224.57 134.69
  Q 224.50 134.59 224.60 134.51
  L 242.33 120.50
  Q 243.97 119.46 244.86 118.11
  Q 247.47 116.78 249.41 114.60
  Q 249.73 114.23 249.73 113.74
  L 249.75 103.58
  Q 249.75 103.08 250.01 102.66
  Q 250.92 101.20 250.48 100.27
  L 275.09 82.76
  Q 276.13 83.02 277.60 82.51
  Q 279.12 81.99 280.34 82.01
  Q 282.97 82.05 285.81 82.18
  A 0.42 0.41 81.9 0 1 286.19 82.47
  Q 286.49 83.50 286.93 83.87
  Q 287.36 84.24 288.21 83.72
  Q 292.35 81.20 296.19 78.71
  Q 302.27 75.97 305.70 72.94
  Q 312.35 67.08 318.78 64.13
  Q 324.10 61.70 327.18 58.97
  Q 329.61 56.82 331.76 55.43
  Q 343.29 48.00 345.51 47.19
  Q 346.53 46.82 346.55 46.30
  Z
  M 274.82 96.95
  A 0.37 0.37 0.0 0 0 274.73 96.51
  L 271.67 93.73
  A 0.37 0.37 0.0 0 0 271.05 94.02
  L 271.30 99.87
  A 0.37 0.37 0.0 0 0 271.87 100.16
  L 273.75 98.99
  A 0.37 0.37 0.0 0 0 273.89 98.84
  L 274.82 96.95
  Z"
/>
<path fill="#f9be28" d="
  M 348.94 46.79
  L 348.98 62.27
  L 347.44 63.73
  Q 346.77 64.06 346.76 63.50
  Q 346.63 56.59 346.53 49.65
  A 1.13 1.12 67.4 0 1 346.87 48.82
  L 348.94 46.79
  Z"
/>
<path fill="#f9be28" d="
  M 500.26 125.55
  L 530.47 129.11
  Q 531.44 129.22 531.37 128.26
  L 526.12 53.28
  Q 527.25 53.01 528.13 53.42
  A 0.70 0.67 -79.7 0 1 528.51 53.99
  L 533.84 129.51
  Q 533.89 130.15 533.24 130.06
  Q 530.79 129.69 528.25 129.67
  Q 525.80 129.66 523.24 129.26
  Q 518.33 128.49 513.18 128.07
  Q 509.50 127.77 506.79 127.26
  Q 503.68 126.69 500.65 126.54
  Q 500.12 126.52 500.24 126.00
  Q 500.30 125.73 500.26 125.55
  Z"
/>
<path fill="#000000" d="
  M 526.12 53.28
  L 531.37 128.26
  Q 531.44 129.22 530.47 129.11
  L 500.26 125.55
  Q 499.75 125.46 499.94 125.12
  Q 498.10 89.43 496.00 53.60
  A 0.35 0.35 0.0 0 1 496.35 53.23
  L 526.12 53.28
  Z"
/>
<path fill="#f9be28" d="
  M 60.37 53.56
  Q 61.64 53.25 62.50 53.50
  Q 62.98 53.65 62.95 54.15
  L 56.43 154.66
  A 1.38 1.34 -27.9 0 1 56.22 155.31
  L 56.00 155.66
  L 54.33 156.31
  Q 53.81 156.52 53.84 155.96
  L 60.37 53.56
  Z"
/>
<path fill="#f9be28" d="
  M 411.97 131.51
  Q 409.70 131.73 409.68 131.00
  Q 408.58 99.24 407.54 67.50
  Q 407.34 61.36 407.36 55.25
  Q 408.05 55.00 408.54 55.03
  A 1.13 1.13 0.0 0 1 409.59 56.11
  L 411.97 131.51
  Z"
/>
<path fill="#a31e22" d="
  M 348.98 62.27
  L 350.63 62.45
  Q 346.69 66.03 344.76 68.24
  Q 338.04 75.91 328.50 80.06
  Q 324.06 81.98 320.64 85.34
  Q 318.37 87.56 315.81 89.01
  C 307.22 93.86 300.00 100.52 292.84 107.10
  C 287.91 111.63 281.13 114.80 275.54 118.89
  Q 259.65 130.49 243.26 141.42
  Q 243.08 141.54 242.95 141.37
  L 242.94 141.36
  Q 242.80 141.18 242.97 141.03
  Q 244.41 139.79 245.99 138.70
  Q 253.38 133.57 260.57 127.77
  Q 262.87 126.22 264.35 124.06
  Q 264.76 123.46 264.04 123.47
  L 250.00 123.62
  Q 249.60 123.63 249.78 123.26
  Q 250.51 121.82 250.05 120.90
  Q 253.38 118.85 256.80 116.75
  C 261.33 113.97 265.60 110.45 270.22 107.29
  Q 271.90 111.99 271.12 117.13
  A 0.63 0.63 0.0 0 0 272.03 117.78
  Q 274.02 116.78 275.76 116.69
  Q 280.05 114.55 283.18 111.21
  Q 284.46 109.00 286.28 107.50
  A 0.70 0.70 0.0 0 0 286.21 106.37
  Q 282.59 104.05 280.57 100.48
  L 292.89 90.28
  Q 292.68 90.92 294.34 91.02
  Q 294.82 91.05 295.19 91.37
  L 298.58 94.35
  A 1.84 1.84 0.0 0 0 300.38 94.73
  Q 302.85 93.92 303.49 92.40
  Q 304.08 92.76 304.51 92.60
  Q 308.95 90.95 313.57 87.81
  C 315.60 86.44 316.40 84.38 318.25 82.98
  Q 324.19 78.48 330.99 76.23
  Q 333.00 75.56 334.39 74.15
  Q 340.35 68.16 347.44 63.73
  L 348.98 62.27
  Z"
/>
<path fill="#f9be28" d="
  M 349.96 128.02
  L 348.37 127.78
  Q 347.77 127.69 347.76 127.08
  Q 347.55 104.13 347.10 81.35
  Q 347.04 78.40 346.79 74.30
  Q 346.47 69.05 348.12 65.66
  Q 348.61 65.49 348.92 65.41
  Q 349.45 65.28 349.45 65.82
  L 349.96 128.02
  Z"
/>
<path fill="#f9be28" d="
  M 176.49 71.74
  L 225.06 72.20
  Q 224.94 72.66 224.50 72.67
  Q 199.04 73.16 177.50 72.71
  Q 176.53 72.68 176.49 71.74
  Z"
/>
<path fill="#a31e22" d="
  M 354.94 123.72
  L 354.47 82.96
  A 0.76 0.76 0.0 0 1 355.24 82.19
  L 374.50 82.49
  A 0.76 0.76 0.0 0 1 375.24 83.22
  L 376.65 124.51
  A 0.76 0.76 0.0 0 1 375.86 125.30
  L 355.67 124.47
  A 0.76 0.76 0.0 0 1 354.94 123.72
  Z"
/>
<path fill="#a31e22" d="
  M 171.31 90.17
  L 170.02 116.04
  A 0.47 0.47 0.0 0 0 170.52 116.53
  L 228.99 113.44
  Q 229.52 113.41 229.28 113.98
  L 225.07 123.92
  A 1.26 1.26 0.0 0 1 223.95 124.70
  Q 185.92 126.29 149.21 130.01
  Q 148.40 130.10 148.45 129.29
  L 151.25 86.80
  A 1.25 1.25 0.0 0 1 152.45 85.63
  L 222.89 82.85
  Q 224.25 82.79 224.25 84.15
  L 224.26 86.50
  Q 224.26 87.76 223.00 87.81
  L 171.84 89.64
  Q 171.33 89.66 171.31 90.17
  Z"
/>
<path fill="#a31e22" d="
  M 416.78 127.27
  L 415.62 84.00
  A 0.58 0.58 0.0 0 1 416.22 83.40
  L 436.07 84.37
  A 0.58 0.58 0.0 0 1 436.62 84.92
  L 438.94 129.26
  A 0.58 0.58 0.0 0 1 438.31 129.87
  L 417.30 127.83
  A 0.58 0.58 0.0 0 1 416.78 127.27
  Z"
/>
<path fill="#a31e22" d="
  M 539.09 134.79
  L 535.93 90.67
  Q 535.88 89.97 536.58 90.04
  L 563.19 92.49
  Q 563.95 92.56 564.01 93.32
  Q 565.89 116.80 567.63 140.99
  Q 567.94 145.27 568.37 149.61
  Q 568.60 151.94 566.56 154.66
  C 564.29 157.70 560.73 158.47 557.34 157.43
  Q 547.90 154.54 537.87 152.47
  Q 514.11 147.55 484.94 144.37
  Q 479.03 143.72 476.24 142.23
  C 470.73 139.27 467.98 134.30 467.59 128.16
  Q 466.03 103.99 465.18 86.28
  Q 465.14 85.43 465.99 85.47
  L 491.98 86.90
  Q 493.23 86.97 493.30 88.23
  L 495.66 129.98
  Q 495.68 130.33 496.03 130.37
  L 538.48 135.36
  Q 539.13 135.44 539.09 134.79
  Z"
/>
<path fill="#ec1c27" d="
  M 303.49 92.40
  Q 302.85 93.92 300.38 94.73
  A 1.84 1.84 0.0 0 1 298.58 94.35
  L 295.19 91.37
  Q 294.82 91.05 294.34 91.02
  Q 292.68 90.92 292.89 90.28
  L 296.56 87.01
  Q 296.96 86.65 297.37 87.01
  L 303.49 92.40
  Z"
/>
<path fill="#a31e22" d="
  M 61.84 151.49
  L 65.59 92.45
  A 0.64 0.64 0.0 0 1 66.17 91.86
  L 91.56 89.63
  A 0.58 0.58 0.0 0 1 92.19 90.24
  L 88.85 146.64
  Q 88.81 147.30 88.16 147.37
  Q 75.01 148.92 62.04 151.67
  Q 61.83 151.71 61.84 151.49
  Z"
/>
<path fill="#ec1c27" d="
  M 274.82 96.95
  L 273.89 98.84
  A 0.37 0.37 0.0 0 1 273.75 98.99
  L 271.87 100.16
  A 0.37 0.37 0.0 0 1 271.30 99.87
  L 271.05 94.02
  A 0.37 0.37 0.0 0 1 271.67 93.73
  L 274.73 96.51
  A 0.37 0.37 0.0 0 1 274.82 96.95
  Z"
/>
<path fill="#ec1c27" d="
  M 301.53 126.64
  Q 301.42 126.49 301.50 126.21
  Q 301.59 125.86 301.31 125.62
  L 287.16 113.35
  L 291.61 110.68
  L 304.71 122.64
  Q 305.59 123.45 306.79 123.46
  L 331.25 123.57
  Q 332.10 123.58 331.45 123.02
  L 304.30 99.55
  Q 305.48 98.12 307.82 96.75
  A 0.70 0.69 -39.5 0 1 308.62 96.82
  L 344.07 127.91
  Q 345.31 129.00 343.66 128.93
  C 343.09 128.90 342.34 128.63 341.76 128.62
  Q 323.88 128.26 306.00 127.87
  Q 303.64 127.82 301.53 126.64
  Z"
/>
<path fill="#a31e22" d="
  M 304.30 99.55
  L 331.45 123.02
  Q 332.10 123.58 331.25 123.57
  L 306.79 123.46
  Q 305.59 123.45 304.71 122.64
  L 291.61 110.68
  L 304.30 99.55
  Z"
/>
<path fill="#ec1c27" d="
  M 250.48 100.27
  Q 250.92 101.20 250.01 102.66
  Q 249.75 103.08 249.75 103.58
  L 249.73 113.74
  Q 249.73 114.23 249.41 114.60
  Q 247.47 116.78 244.86 118.11
  L 245.35 104.19
  L 250.48 100.27
  Z"
/>
<path fill="#ec1c27" d="
  M 280.57 100.48
  Q 282.59 104.05 286.21 106.37
  A 0.70 0.70 0.0 0 1 286.28 107.50
  Q 284.46 109.00 283.18 111.21
  L 276.39 105.25
  A 0.42 0.42 0.0 0 0 275.69 105.57
  L 275.76 116.69
  Q 274.02 116.78 272.03 117.78
  A 0.63 0.63 0.0 0 1 271.12 117.13
  Q 271.90 111.99 270.22 107.29
  L 280.57 100.48
  Z"
/>
<path fill="#f9be28" d="
  M 245.35 104.19
  L 244.86 118.11
  Q 243.97 119.46 242.33 120.50
  L 242.44 106.46
  Q 242.44 105.94 242.88 105.68
  L 245.35 104.19
  Z"
/>
<path fill="#000000" d="
  M 283.18 111.21
  Q 280.05 114.55 275.76 116.69
  L 275.69 105.57
  A 0.42 0.42 0.0 0 1 276.39 105.25
  L 283.18 111.21
  Z"
/>
<path fill="#f9be28" d="
  M 232.98 107.64
  Q 233.34 108.62 231.75 108.73
  Q 227.32 109.04 211.24 109.63
  Q 193.22 110.30 175.24 111.64
  Q 174.75 111.67 174.83 110.33
  L 232.98 107.64
  Z"
/>
<path fill="#f9be28" d="
  M 287.16 113.35
  L 301.31 125.62
  Q 301.59 125.86 301.50 126.21
  Q 301.42 126.49 301.53 126.64
  Q 300.68 126.48 299.95 125.83
  Q 293.31 119.96 286.62 114.13
  Q 286.22 113.78 287.16 113.35
  Z"
/>
<path fill="#ec1c27" d="
  M 250.05 120.90
  Q 250.51 121.82 249.78 123.26
  Q 249.60 123.63 250.00 123.62
  L 264.04 123.47
  Q 264.76 123.46 264.35 124.06
  Q 262.87 126.22 260.57 127.77
  Q 253.05 127.90 245.96 128.32
  Q 245.38 128.35 245.06 128.11
  Q 244.64 127.79 244.52 127.27
  L 245.04 123.88
  L 250.05 120.90
  Z"
/>
<path fill="#ec1c27" d="
  M 275.22 127.55
  L 267.00 127.82
  Q 266.10 127.85 266.83 127.32
  L 275.18 121.31
  A 0.46 0.45 73.1 0 1 275.90 121.70
  L 275.75 127.02
  Q 275.74 127.53 275.22 127.55
  Z"
/>
<path fill="#f9be28" d="
  M 245.04 123.88
  L 244.52 127.27
  L 243.18 127.38
  A 1.04 1.04 0.0 0 1 242.30 125.68
  Q 243.27 124.50 245.04 123.88
  Z"
/>
<path fill="#28c4fb" d="
  M 179.99 163.12
  Q 177.90 162.43 176.51 160.77
  Q 175.74 159.86 175.23 159.58
  Q 174.33 159.08 173.50 159.07
  Q 150.26 158.84 127.40 158.94
  Q 126.62 158.95 126.62 159.73
  Q 126.64 168.03 126.62 175.83
  Q 126.62 176.23 126.47 176.60
  Q 126.40 176.79 126.39 176.92
  Q 126.04 186.70 127.09 196.26
  L 127.14 225.20
  A 0.83 0.83 0.0 0 0 127.97 226.03
  L 141.27 226.05
  A 0.47 0.46 -0.6 0 0 141.74 225.58
  L 141.51 197.53
  Q 143.81 196.15 145.00 196.13
  Q 157.20 196.00 169.39 196.03
  C 173.63 196.05 176.70 195.55 178.51 191.70
  Q 179.15 190.33 179.33 187.64
  Q 179.47 185.54 179.61 183.45
  Q 179.61 183.42 179.64 183.42
  L 179.89 183.43
  Q 180.14 183.43 180.15 183.68
  L 180.28 187.81
  C 180.51 193.47 176.68 197.44 171.16 197.38
  Q 156.68 197.22 143.90 197.40
  A 0.36 0.36 0.0 0 0 143.55 197.76
  L 143.55 227.62
  Q 143.55 228.19 142.98 228.19
  L 125.63 228.19
  Q 125.06 228.19 125.06 227.62
  L 125.03 158.04
  Q 125.03 157.56 125.51 157.56
  Q 149.41 157.46 173.24 157.55
  Q 177.18 157.56 179.99 163.12
  Z"
/>
<path fill="#28c4fb" d="
  M 209.21 182.61
  L 209.76 182.25
  Q 210.25 181.93 210.48 182.47
  L 216.78 197.20
  Q 217.01 197.28 217.14 197.59
  Q 220.16 204.88 222.85 212.30
  Q 223.00 212.72 223.25 213.07
  Q 223.55 213.50 223.56 214.05
  C 223.59 215.50 221.90 216.19 220.70 216.21
  Q 213.41 216.31 206.57 216.24
  Q 206.30 216.23 206.30 216.50
  L 206.35 225.57
  Q 206.35 225.93 206.70 225.92
  Q 224.13 225.61 241.09 226.09
  A 0.73 0.73 0.0 0 0 241.79 225.10
  L 230.78 196.39
  L 217.04 159.71
  A 1.12 1.12 0.0 0 0 216.01 158.99
  L 201.52 158.95
  A 1.24 1.23 10.3 0 0 200.34 159.76
  L 186.57 196.51
  L 175.36 225.88
  Q 175.11 226.54 175.81 226.53
  L 188.73 226.35
  A 0.93 0.93 0.0 0 0 189.60 225.75
  L 200.91 196.67
  Q 204.48 190.38 207.16 182.50
  Q 207.33 181.99 207.85 182.07
  Q 208.16 182.12 208.31 182.55
  L 190.79 227.54
  Q 190.54 228.17 189.86 228.17
  L 173.15 228.17
  Q 172.61 228.17 172.81 227.66
  L 199.70 158.04
  A 0.78 0.78 0.0 0 1 200.43 157.54
  L 216.92 157.53
  Q 217.57 157.53 217.80 158.14
  L 244.86 228.03
  Q 244.92 228.20 244.74 228.20
  L 204.73 228.20
  Q 204.25 228.20 204.25 227.73
  L 204.25 214.50
  Q 204.25 214.25 204.50 214.25
  L 221.01 214.27
  Q 221.55 214.27 221.35 213.76
  L 209.21 182.61
  Z"
/>
<path fill="#23a8e0" d="
  M 290.29 197.53
  Q 289.93 197.44 289.40 197.40
  Q 288.86 197.36 288.70 197.64
  Q 288.52 197.95 288.67 198.54
  L 287.25 196.79
  Q 286.92 196.39 286.40 196.35
  Q 279.95 195.82 273.64 196.92
  L 270.30 196.09
  Q 269.80 195.97 269.33 196.16
  L 266.53 197.31
  Q 266.61 196.43 265.75 196.39
  Q 259.97 196.08 252.18 196.62
  Q 250.66 195.85 250.40 197.64
  Q 250.34 198.09 250.54 199.38
  Q 250.87 201.45 249.91 203.34
  L 249.87 158.06
  Q 249.86 157.48 250.44 157.49
  Q 271.93 157.58 295.50 157.43
  C 300.88 157.39 304.88 160.39 304.93 166.13
  Q 305.03 176.82 304.94 189.20
  C 304.91 192.10 303.24 194.66 300.80 196.14
  Q 299.15 197.14 295.72 197.28
  Q 293.04 197.40 290.29 197.53
  Z
  M 286.6376 171.7142
  A 0.35 0.35 0.0 0 0 286.2870 171.3648
  L 268.8470 171.3952
  A 0.35 0.35 0.0 0 0 268.4976 171.7458
  L 268.5224 185.9258
  A 0.35 0.35 0.0 0 0 268.8730 186.2752
  L 286.3130 186.2448
  A 0.35 0.35 0.0 0 0 286.6624 185.8942
  L 286.6376 171.7142
  Z"
/>
<path fill="#28c4fb" d="
  M 366.34 163.16
  L 365.79 163.41
  Q 365.27 163.65 364.91 163.20
  C 364.46 162.63 364.42 161.87 363.94 161.28
  Q 362.05 158.96 358.72 158.95
  Q 335.98 158.91 313.35 158.90
  A 0.43 0.43 0.0 0 0 312.91 159.34
  L 313.47 198.81
  L 313.60 225.55
  Q 313.60 226.07 314.12 226.06
  L 328.05 225.94
  A 0.39 0.39 0.0 0 0 328.44 225.55
  L 328.37 199.59
  Q 329.05 194.11 335.34 197.09
  L 350.99 225.60
  A 1.60 1.59 75.8 0 0 352.37 226.43
  L 365.56 226.54
  Q 366.05 226.55 365.81 226.12
  L 349.59 196.86
  Q 350.69 197.66 352.72 196.37
  Q 353.13 196.11 353.62 196.11
  Q 358.17 196.16 359.48 195.96
  Q 363.89 195.32 366.79 188.72
  Q 366.43 194.43 361.99 196.51
  C 359.23 197.81 355.62 197.31 352.68 197.33
  A 0.41 0.40 -14.0 0 0 352.32 197.92
  L 368.65 227.82
  A 0.27 0.27 0.0 0 1 368.42 228.22
  L 350.77 228.15
  A 0.81 0.81 0.0 0 1 350.06 227.73
  L 333.79 197.85
  Q 333.49 197.29 332.85 197.32
  L 330.81 197.40
  Q 330.29 197.43 330.29 197.94
  L 330.29 227.64
  Q 330.29 228.20 329.73 228.20
  L 312.21 228.18
  Q 311.74 228.18 311.74 227.71
  L 311.73 158.04
  Q 311.73 157.54 312.23 157.54
  Q 335.54 157.49 358.74 157.51
  Q 364.10 157.52 366.34 163.16
  Z"
/>
<path fill="#28c4fb" d="
  M 428.9765 219.4717
  A 8.67 8.67 0.0 0 1 420.3217 228.1568
  L 382.3217 228.2231
  A 8.67 8.67 0.0 0 1 373.6366 219.5683
  L 373.5435 166.2083
  A 8.67 8.67 0.0 0 1 382.1983 157.5232
  L 420.1983 157.4569
  A 8.67 8.67 0.0 0 1 428.8834 166.1117
  L 428.9765 219.4717
  Z
  M 375.42 198.34
  Q 375.98 208.12 375.66 218.08
  C 375.56 221.02 376.06 222.98 378.52 224.78
  Q 380.04 225.90 382.59 225.91
  Q 402.39 225.98 420.56 225.88
  Q 424.62 225.85 426.29 222.94
  Q 427.28 221.19 427.23 217.36
  Q 427.10 207.06 426.92 196.75
  Q 426.90 196.05 426.81 196.26
  Q 426.73 196.13 426.68 196.03
  Q 426.61 195.88 426.68 195.73
  Q 427.53 194.09 427.50 191.98
  Q 427.39 183.93 427.39 176.19
  Q 427.39 173.27 427.61 170.29
  Q 427.88 166.64 427.10 163.59
  Q 426.59 161.60 425.16 160.40
  Q 423.89 159.33 422.16 159.15
  Q 420.30 158.95 418.41 158.95
  Q 404.93 158.93 389.59 158.79
  Q 385.78 158.76 382.32 158.88
  C 379.65 158.97 377.68 160.00 376.09 162.04
  Q 374.91 163.55 374.84 167.11
  Q 374.54 182.74 375.42 198.34
  Z"
/>
<path fill="#28c4fb" d="
  M 472.46 174.44
  Q 471.84 175.80 472.18 177.36
  A 0.04 0.04 0.0 0 1 472.14 177.41
  L 471.83 177.43
  Q 471.59 177.44 471.59 177.20
  L 471.49 172.36
  A 2.14 2.14 0.0 0 1 473.30 170.20
  Q 476.16 169.74 479.50 170.11
  Q 481.59 170.35 481.65 168.24
  Q 481.73 165.41 481.43 162.72
  C 481.31 161.66 481.78 160.92 481.61 159.91
  Q 481.46 159.00 480.54 158.99
  L 437.52 158.96
  A 0.53 0.52 0.0 0 0 436.99 159.48
  L 436.87 169.25
  A 0.88 0.87 -90.0 0 0 437.75 170.14
  L 452.73 170.05
  A 2.30 2.29 1.0 0 1 455.04 172.43
  Q 454.58 185.17 455.59 198.29
  L 455.65 225.62
  Q 455.66 226.46 456.50 226.46
  L 469.99 226.35
  Q 470.65 226.35 470.65 225.69
  L 470.55 196.23
  Q 471.74 194.59 471.63 191.94
  Q 471.61 191.49 472.00 191.74
  L 472.36 191.98
  L 472.33 227.64
  Q 472.33 228.20 471.76 228.20
  L 454.24 228.20
  Q 453.78 228.20 453.78 227.74
  L 453.76 171.92
  A 0.59 0.59 0.0 0 0 453.17 171.33
  L 436.24 171.36
  A 0.62 0.62 0.0 0 1 435.61 170.74
  L 435.65 158.19
  Q 435.65 157.53 436.31 157.53
  L 482.59 157.54
  Q 483.15 157.54 483.15 158.09
  L 483.13 170.71
  Q 483.13 171.31 482.53 171.32
  L 472.99 171.42
  Q 472.45 171.43 472.45 171.97
  L 472.46 174.44
  Z"
/>
<path fill="#23a8e0" d="
  M 426.81 196.26
  L 413.15 196.46
  Q 412.62 196.47 412.46 196.97
  Q 412.29 197.48 412.42 198.30
  Q 412.40 196.75 411.81 195.44
  Q 411.45 194.63 410.41 194.97
  L 410.30 171.92
  Q 410.30 171.33 409.71 171.34
  L 392.84 171.42
  Q 392.31 171.42 392.30 171.95
  L 392.05 184.98
  Q 390.65 190.32 390.65 196.37
  Q 383.57 196.18 376.97 196.34
  Q 376.10 196.37 375.85 196.94
  Q 375.64 197.44 375.42 198.34
  Q 374.54 182.74 374.84 167.11
  Q 374.91 163.55 376.09 162.04
  C 377.68 160.00 379.65 158.97 382.32 158.88
  Q 385.78 158.76 389.59 158.79
  Q 404.93 158.93 418.41 158.95
  Q 420.30 158.95 422.16 159.15
  Q 423.89 159.33 425.16 160.40
  Q 426.59 161.60 427.10 163.59
  Q 427.88 166.64 427.61 170.29
  Q 427.39 173.27 427.39 176.19
  Q 427.39 183.93 427.50 191.98
  Q 427.53 194.09 426.68 195.73
  Q 426.61 195.88 426.68 196.03
  Q 426.73 196.13 426.81 196.26
  Z"
/>
<path fill="#23a8e0" d="
  M 179.99 163.12
  Q 180.85 175.05 180.28 187.81
  L 180.15 183.68
  Q 180.14 183.43 179.89 183.43
  L 179.64 183.42
  Q 179.61 183.42 179.61 183.45
  Q 179.47 185.54 179.33 187.64
  Q 179.15 190.33 178.51 191.70
  C 176.70 195.55 173.63 196.05 169.39 196.03
  Q 157.20 196.00 145.00 196.13
  Q 143.81 196.15 141.51 197.53
  Q 141.36 196.69 140.25 196.70
  Q 133.82 196.76 127.09 196.26
  Q 126.04 186.70 126.39 176.92
  Q 126.40 176.79 126.47 176.60
  Q 126.62 176.23 126.62 175.83
  Q 126.64 168.03 126.62 159.73
  Q 126.62 158.95 127.40 158.94
  Q 150.26 158.84 173.50 159.07
  Q 174.33 159.08 175.23 159.58
  Q 175.74 159.86 176.51 160.77
  Q 177.90 162.43 179.99 163.12
  Z
  M 161.6776 171.7843
  A 0.30 0.30 0.0 0 0 161.3770 171.4848
  L 143.9571 171.5152
  A 0.30 0.30 0.0 0 0 143.6576 171.8157
  L 143.6824 186.0557
  A 0.30 0.30 0.0 0 0 143.9830 186.3552
  L 161.4029 186.3248
  A 0.30 0.30 0.0 0 0 161.7024 186.0243
  L 161.6776 171.7843
  Z"
/>
<path fill="#23a8e0" d="
  M 230.78 196.39
  L 217.05 196.50
  Q 216.67 196.50 216.68 196.88
  Q 216.69 197.03 216.78 197.20
  L 210.48 182.47
  Q 210.25 181.93 209.76 182.25
  L 209.21 182.61
  Q 209.37 182.44 209.16 182.28
  Q 208.91 182.09 208.66 182.28
  L 208.31 182.55
  Q 208.16 182.12 207.85 182.07
  Q 207.33 181.99 207.16 182.50
  Q 204.48 190.38 200.91 196.67
  L 186.57 196.51
  L 200.34 159.76
  A 1.24 1.23 10.3 0 1 201.52 158.95
  L 216.01 158.99
  A 1.12 1.12 0.0 0 1 217.04 159.71
  L 230.78 196.39
  Z"
/>
<path fill="#23a8e0" d="
  M 366.34 163.16
  Q 366.82 164.15 366.86 165.38
  Q 367.24 177.77 366.79 188.72
  Q 363.89 195.32 359.48 195.96
  Q 358.17 196.16 353.62 196.11
  Q 353.13 196.11 352.72 196.37
  Q 350.69 197.66 349.59 196.86
  Q 342.21 195.82 336.13 196.40
  Q 335.20 196.49 335.34 197.09
  Q 329.05 194.11 328.37 199.59
  Q 328.52 198.32 327.95 196.88
  Q 327.74 196.37 327.20 196.37
  L 314.33 196.36
  Q 313.83 196.36 313.76 196.86
  L 313.47 198.81
  L 312.91 159.34
  A 0.43 0.43 0.0 0 1 313.35 158.90
  Q 335.98 158.91 358.72 158.95
  Q 362.05 158.96 363.94 161.28
  C 364.42 161.87 364.46 162.63 364.91 163.20
  Q 365.27 163.65 365.79 163.41
  L 366.34 163.16
  Z
  M 348.3475 171.7542
  A 0.27 0.27 0.0 0 0 348.0770 171.4847
  L 330.4970 171.5154
  A 0.27 0.27 0.0 0 0 330.2275 171.7858
  L 330.2525 186.1258
  A 0.27 0.27 0.0 0 0 330.5230 186.3953
  L 348.1030 186.3646
  A 0.27 0.27 0.0 0 0 348.3725 186.0942
  L 348.3475 171.7542
  Z"
/>
<path fill="#23a8e0" d="
  M 472.46 174.44
  L 472.36 191.98
  L 472.00 191.74
  Q 471.61 191.49 471.63 191.94
  Q 471.74 194.59 470.55 196.23
  Q 462.37 196.45 457.25 196.25
  Q 455.67 196.19 455.59 198.29
  Q 454.58 185.17 455.04 172.43
  A 2.30 2.29 1.0 0 0 452.73 170.05
  L 437.75 170.14
  A 0.88 0.87 -90.0 0 1 436.87 169.25
  L 436.99 159.48
  A 0.53 0.52 0.0 0 1 437.52 158.96
  L 480.54 158.99
  Q 481.46 159.00 481.61 159.91
  C 481.78 160.92 481.31 161.66 481.43 162.72
  Q 481.73 165.41 481.65 168.24
  Q 481.59 170.35 479.50 170.11
  Q 476.16 169.74 473.30 170.20
  A 2.14 2.14 0.0 0 0 471.49 172.36
  L 471.59 177.20
  Q 471.59 177.44 471.83 177.43
  L 472.14 177.41
  A 0.04 0.04 0.0 0 0 472.18 177.36
  Q 471.84 175.80 472.46 174.44
  Z"
/>
<rect fill="#000000" x="-9.07" y="-7.44" transform="translate(277.58,178.82) rotate(-0.1)" width="18.14" height="14.88" rx="0.35"/>
<path fill="#000000" d="
  M 410.41 194.97
  L 410.41 213.64
  Q 410.41 214.25 409.79 214.25
  L 392.77 214.26
  Q 392.24 214.26 392.23 213.73
  L 392.05 184.98
  L 392.30 171.95
  Q 392.31 171.42 392.84 171.42
  L 409.71 171.34
  Q 410.30 171.33 410.30 171.92
  L 410.41 194.97
  Z"
/>
<rect fill="#000000" x="-9.01" y="-7.42" transform="translate(152.68,178.92) rotate(-0.1)" width="18.02" height="14.84" rx="0.30"/>
<rect fill="#000000" x="-9.06" y="-7.44" transform="translate(339.30,178.94) rotate(-0.1)" width="18.12" height="14.88" rx="0.27"/>
<path fill="#28c4fb" d="
  M 392.05 184.98
  L 392.23 213.73
  Q 392.24 214.26 392.77 214.26
  L 409.79 214.25
  Q 410.41 214.25 410.41 213.64
  L 410.41 194.97
  Q 411.45 194.63 411.81 195.44
  Q 412.40 196.75 412.42 198.30
  L 412.44 213.83
  A 2.41 2.41 0.0 0 1 410.03 216.24
  L 392.70 216.29
  A 2.19 2.19 0.0 0 1 390.51 214.08
  L 390.65 196.37
  Q 390.65 190.32 392.05 184.98
  Z"
/>
<path fill="#28c4fb" d="
  M 273.64 196.92
  L 289.36 225.92
  A 1.07 1.06 -14.3 0 0 290.27 226.46
  L 303.54 226.47
  Q 304.17 226.47 303.87 225.92
  L 288.67 198.54
  Q 288.52 197.95 288.70 197.64
  Q 288.86 197.36 289.40 197.40
  Q 289.93 197.44 290.29 197.53
  L 306.91 227.96
  A 0.17 0.17 0.0 0 1 306.76 228.21
  L 289.24 228.13
  A 1.34 1.34 0.0 0 1 288.06 227.43
  L 271.98 197.92
  Q 271.64 197.30 270.92 197.31
  L 269.05 197.36
  Q 268.48 197.38 268.48 197.95
  L 268.49 227.73
  Q 268.49 228.21 268.02 228.21
  L 250.52 228.19
  Q 250.03 228.19 250.03 227.70
  L 249.91 203.34
  Q 250.87 201.45 250.54 199.38
  Q 250.34 198.09 250.40 197.64
  Q 250.66 195.85 252.18 196.62
  L 251.88 224.94
  A 1.06 1.06 0.0 0 0 252.94 226.01
  L 266.05 225.98
  Q 266.66 225.98 266.66 225.37
  L 266.53 197.31
  L 269.33 196.16
  Q 269.80 195.97 270.30 196.09
  L 273.64 196.92
  Z"
/>
<path fill="#1c75ba" d="
  M 127.09 196.26
  Q 133.82 196.76 140.25 196.70
  Q 141.36 196.69 141.51 197.53
  L 141.74 225.58
  A 0.47 0.46 -0.6 0 1 141.27 226.05
  L 127.97 226.03
  A 0.83 0.83 0.0 0 1 127.14 225.20
  L 127.09 196.26
  Z"
/>
<path fill="#1c75ba" d="
  M 200.91 196.67
  L 189.60 225.75
  A 0.93 0.93 0.0 0 1 188.73 226.35
  L 175.81 226.53
  Q 175.11 226.54 175.36 225.88
  L 186.57 196.51
  L 200.91 196.67
  Z"
/>
<path fill="#1c75ba" d="
  M 230.78 196.39
  L 241.79 225.10
  A 0.73 0.73 0.0 0 1 241.09 226.09
  Q 224.13 225.61 206.70 225.92
  Q 206.35 225.93 206.35 225.57
  L 206.30 216.50
  Q 206.30 216.23 206.57 216.24
  Q 213.41 216.31 220.70 216.21
  C 221.90 216.19 223.59 215.50 223.56 214.05
  Q 223.55 213.50 223.25 213.07
  Q 223.00 212.72 222.85 212.30
  Q 220.16 204.88 217.14 197.59
  Q 217.01 197.28 216.78 197.20
  Q 216.69 197.03 216.68 196.88
  Q 216.67 196.50 217.05 196.50
  L 230.78 196.39
  Z"
/>
<path fill="#1c75ba" d="
  M 266.53 197.31
  L 266.66 225.37
  Q 266.66 225.98 266.05 225.98
  L 252.94 226.01
  A 1.06 1.06 0.0 0 1 251.88 224.94
  L 252.18 196.62
  Q 259.97 196.08 265.75 196.39
  Q 266.61 196.43 266.53 197.31
  Z"
/>
<path fill="#1c75ba" d="
  M 288.67 198.54
  L 303.87 225.92
  Q 304.17 226.47 303.54 226.47
  L 290.27 226.46
  A 1.07 1.06 -14.3 0 1 289.36 225.92
  L 273.64 196.92
  Q 279.95 195.82 286.40 196.35
  Q 286.92 196.39 287.25 196.79
  L 288.67 198.54
  Z"
/>
<path fill="#1c75ba" d="
  M 328.37 199.59
  L 328.44 225.55
  A 0.39 0.39 0.0 0 1 328.05 225.94
  L 314.12 226.06
  Q 313.60 226.07 313.60 225.55
  L 313.47 198.81
  L 313.76 196.86
  Q 313.83 196.36 314.33 196.36
  L 327.20 196.37
  Q 327.74 196.37 327.95 196.88
  Q 328.52 198.32 328.37 199.59
  Z"
/>
<path fill="#1c75ba" d="
  M 349.59 196.86
  L 365.81 226.12
  Q 366.05 226.55 365.56 226.54
  L 352.37 226.43
  A 1.60 1.59 75.8 0 1 350.99 225.60
  L 335.34 197.09
  Q 335.20 196.49 336.13 196.40
  Q 342.21 195.82 349.59 196.86
  Z"
/>
<path fill="#1c75ba" d="
  M 390.65 196.37
  L 390.51 214.08
  A 2.19 2.19 0.0 0 0 392.70 216.29
  L 410.03 216.24
  A 2.41 2.41 0.0 0 0 412.44 213.83
  L 412.42 198.30
  Q 412.29 197.48 412.46 196.97
  Q 412.62 196.47 413.15 196.46
  L 426.81 196.26
  Q 426.90 196.05 426.92 196.75
  Q 427.10 207.06 427.23 217.36
  Q 427.28 221.19 426.29 222.94
  Q 424.62 225.85 420.56 225.88
  Q 402.39 225.98 382.59 225.91
  Q 380.04 225.90 378.52 224.78
  C 376.06 222.98 375.56 221.02 375.66 218.08
  Q 375.98 208.12 375.42 198.34
  Q 375.64 197.44 375.85 196.94
  Q 376.10 196.37 376.97 196.34
  Q 383.57 196.18 390.65 196.37
  Z"
/>
<path fill="#1c75ba" d="
  M 470.55 196.23
  L 470.65 225.69
  Q 470.65 226.35 469.99 226.35
  L 456.50 226.46
  Q 455.66 226.46 455.65 225.62
  L 455.59 198.29
  Q 455.67 196.19 457.25 196.25
  Q 462.37 196.45 470.55 196.23
  Z"
/>
</svg>
