<?xml version="1.0" encoding="UTF-8" standalone="no"?>
<!DOCTYPE svg PUBLIC "-//W3C//DTD SVG 1.1//EN" "http://www.w3.org/Graphics/SVG/1.1/DTD/svg11.dtd">
<svg xmlns="http://www.w3.org/2000/svg" version="1.1" viewBox="0 0 600 300">
<path fill="#00a8ff" d="
  M 599.79 124.50
  L 599.79 129.75
  C 598.38 169.34 551.43 168.34 524.44 162.91
  A 0.64 0.63 5.1 0 1 523.92 162.30
  L 523.76 134.95
  A 0.44 0.44 7.8 0 1 524.33 134.52
  C 534.53 137.60 557.48 141.43 566.40 134.11
  C 573.56 128.24 567.31 123.12 561.49 121.14
  C 552.28 118.01 539.44 114.71 532.40 108.97
  C 522.05 100.53 519.52 86.42 522.82 73.76
  C 525.96 61.68 534.92 52.27 546.73 48.31
  C 558.07 44.50 575.12 46.07 587.94 47.75
  A 0.57 0.56 3.4 0 1 588.44 48.31
  L 588.45 74.84
  A 0.97 0.96 7.7 0 1 587.23 75.76
  C 579.87 73.78 550.53 68.86 551.11 82.87
  Q 551.26 86.58 555.50 88.25
  C 575.34 96.07 598.42 98.25 599.79 124.50
  Z"
/>
<path fill="#00a8ff" d="
  M 0.00 162.53
  L 0.00 48.38
  Q 10.92 47.84 40.00 47.50
  C 62.32 47.24 81.91 53.43 89.50 76.50
  C 97.55 100.99 85.34 128.40 59.99 135.86
  C 51.32 138.41 40.87 138.57 31.26 138.21
  A 1.46 1.44 0.8 0 0 29.75 139.66
  L 29.94 162.42
  A 0.52 0.51 88.9 0 1 29.45 162.94
  Q 14.70 163.40 0.00 162.53
  Z
  M 59.07 96.33
  C 62.01 77.41 45.89 71.02 30.29 73.66
  A 0.57 0.57 -4.8 0 0 29.81 74.22
  L 29.93 111.81
  A 0.57 0.55 2.9 0 0 30.44 112.36
  C 42.60 113.57 56.93 110.09 59.07 96.33
  Z"
/>
<path fill="#00a8ff" d="
  M 448.31 162.55
  A 0.46 0.45 -0.0 0 1 447.85 163.00
  L 419.31 163.00
  A 0.81 0.81 0.0 0 1 418.50 162.19
  L 418.69 48.68
  A 0.53 0.51 -1.2 0 1 419.20 48.17
  Q 437.60 47.56 462.25 47.50
  C 478.53 47.46 493.18 51.96 502.44 65.25
  C 512.77 80.08 513.04 100.57 503.94 116.19
  C 492.27 136.22 471.35 139.15 449.62 138.21
  A 1.10 1.07 -88.5 0 0 448.50 139.30
  L 448.31 162.55
  Z
  M 474.31 104.31
  C 478.94 97.93 479.30 87.71 474.79 81.21
  C 469.35 73.39 457.82 71.98 449.00 73.64
  A 0.62 0.62 84.3 0 0 448.50 74.25
  L 448.50 111.46
  A 0.97 0.97 1.9 0 0 449.41 112.43
  C 458.16 113.01 468.92 111.76 474.31 104.31
  Z"
/>
<path fill="#00a8ff" d="
  M 137.06 90.92
  L 167.11 90.91
  A 1.60 1.57 -0.4 0 0 168.70 89.33
  L 168.56 48.69
  A 0.52 0.51 0.0 0 1 169.08 48.18
  L 197.96 48.18
  A 0.54 0.54 89.3 0 1 198.50 48.72
  L 198.50 162.19
  A 0.81 0.81 0.0 0 1 197.69 163.00
  L 169.74 163.00
  A 1.24 1.23 0.2 0 1 168.50 161.76
  L 168.69 117.26
  A 0.50 0.50 -89.4 0 0 168.19 116.75
  L 137.19 116.75
  A 0.69 0.69 0.0 0 0 136.50 117.44
  L 136.50 162.07
  A 0.93 0.93 0.0 0 1 135.57 163.00
  L 107.35 163.00
  A 0.85 0.85 0.0 0 1 106.50 162.15
  L 106.50 48.75
  A 0.58 0.57 0.0 0 1 107.08 48.18
  L 135.88 48.25
  A 0.56 0.55 0.0 0 1 136.44 48.80
  L 136.56 90.44
  A 0.50 0.48 0.0 0 0 137.06 90.92
  Z"
/>
<rect fill="#00a8ff" x="226.72" y="48.23" width="29.78" height="114.76" rx="0.27"/>
<path fill="#00a8ff" d="
  M 345.31 162.55
  A 0.46 0.45 -0.0 0 1 344.85 163.00
  L 285.57 163.00
  A 0.82 0.82 0.0 0 1 284.75 162.18
  L 284.75 48.69
  A 0.51 0.51 88.7 0 1 285.26 48.18
  L 313.96 48.18
  A 0.54 0.54 0.2 0 1 314.50 48.72
  L 314.56 136.16
  A 0.62 0.61 0.0 0 0 315.18 136.77
  L 344.70 136.97
  A 0.79 0.79 -0.3 0 1 345.49 137.76
  L 345.31 162.55
  Z"
/>
<rect fill="#00a8ff" x="360.25" y="48.23" width="30.00" height="114.76" rx="0.72"/>
<path fill="#ffffff" d="
  M 364.69 236.59
  C 366.44 237.73 368.89 238.24 371.20 238.27
  Q 401.65 238.68 432.10 238.51
  C 435.64 238.49 438.57 238.12 438.34 242.82
  C 438.23 245.10 438.79 249.84 437.61 251.56
  C 436.51 253.14 435.11 252.75 433.36 252.75
  Q 405.68 252.75 378.00 252.94
  C 364.92 253.02 344.75 251.81 344.75 233.75
  Q 344.75 217.04 344.75 200.34
  Q 344.75 193.09 346.19 189.89
  C 350.22 180.96 363.06 178.83 372.00 178.80
  Q 403.75 178.67 435.51 178.50
  Q 438.25 178.49 438.25 181.22
  L 438.25 189.64
  Q 438.25 192.75 435.14 192.75
  Q 405.75 192.75 375.50 192.86
  C 371.80 192.88 363.58 192.31 363.55 198.37
  Q 363.46 215.64 363.50 234.42
  A 2.61 2.59 -73.9 0 0 364.69 236.59
  Z"
/>
<path fill="#ffffff" d="
  M 455.94 180.69
  Q 455.94 178.54 458.06 178.56
  Q 494.40 178.89 530.75 178.72
  C 542.11 178.67 558.60 181.63 562.08 194.40
  Q 562.75 196.86 562.75 209.66
  Q 562.75 218.98 562.75 228.31
  Q 562.75 236.10 561.28 239.47
  C 555.92 251.72 537.65 252.86 526.50 252.83
  Q 492.87 252.75 459.23 252.75
  Q 455.74 252.75 455.75 249.28
  L 455.94 180.69
  Z
  M 542.38 235.17
  Q 543.96 233.85 543.99 231.79
  Q 544.17 215.59 543.80 200.32
  C 543.61 192.16 529.62 192.60 523.97 192.68
  C 507.80 192.93 491.64 192.75 475.60 192.75
  A 0.85 0.85 0.2 0 0 474.75 193.60
  L 474.75 237.97
  A 0.52 0.52 90.0 0 0 475.27 238.49
  Q 503.76 238.68 531.36 238.29
  C 535.66 238.23 539.38 237.67 542.38 235.17
  Z"
/>
<rect fill="#ffffff" x="581.00" y="178.50" width="18.76" height="74.26" rx="2.94"/>
<path fill="#c6c6c6" d="
  M 0.00 197.19
  L 0.00 183.19
  C 1.53 179.00 6.54 178.66 10.50 178.69
  C 12.86 178.71 26.65 178.21 27.76 178.93
  Q 28.77 179.59 28.27 182.22
  A 1.17 1.17 6.8 0 1 27.06 183.17
  Q 17.47 182.70 6.93 183.28
  A 1.51 1.51 -1.6 0 0 5.50 184.79
  L 5.50 195.44
  A 1.56 1.49 -89.8 0 0 6.98 197.00
  L 27.45 197.08
  A 0.86 0.70 -9.6 0 1 28.17 197.49
  Q 28.93 199.05 28.37 200.72
  A 0.73 0.69 8.9 0 1 27.69 201.19
  C 21.40 201.27 15.10 201.15 8.82 201.32
  C 5.40 201.41 1.37 200.72 0.00 197.19
  Z"
/>
<path fill="#c6c6c6" d="
  M 53.50 201.29
  L 47.00 201.29
  L 33.43 201.08
  A 0.52 0.52 0.6 0 1 32.92 200.56
  L 32.77 179.81
  A 1.03 1.00 -1.2 0 1 33.77 178.80
  C 40.11 178.62 61.54 177.15 64.52 182.11
  C 66.08 184.72 65.55 190.16 65.69 193.49
  C 65.99 200.79 59.09 201.54 53.50 201.29
  Z
  M 58.15 183.64
  Q 48.77 182.44 38.93 183.15
  A 0.56 0.54 -1.8 0 0 38.41 183.68
  L 38.28 196.13
  A 1.10 1.07 1.1 0 0 39.35 197.21
  Q 49.27 197.53 57.84 196.76
  Q 59.75 196.59 59.75 194.67
  L 59.75 185.46
  A 1.84 1.83 -86.5 0 0 58.15 183.64
  Z"
/>
<path fill="#c6c6c6" d="
  M 0.00 226.19
  L 0.00 204.69
  Q 2.45 203.78 4.96 204.43
  A 0.65 0.63 -83.2 0 1 5.44 205.06
  Q 5.55 214.27 5.50 223.48
  C 5.49 227.19 5.55 226.91 1.83 226.87
  Q 0.82 226.86 0.00 226.19
  Z"
/>
<path fill="#c6c6c6" d="
  M 14.28 226.32
  A 0.24 0.23 -8.5 0 1 14.11 226.54
  Q 11.90 227.20 9.65 226.48
  A 0.75 0.69 -82.8 0 1 9.17 225.81
  Q 8.87 216.58 8.99 207.34
  C 9.03 204.74 8.55 203.87 12.12 204.37
  Q 13.77 204.61 15.13 205.52
  L 36.75 220.12
  Q 37.26 220.46 37.26 219.85
  L 37.30 205.30
  A 0.85 0.73 80.4 0 1 37.74 204.57
  Q 39.07 203.98 41.77 204.59
  A 1.27 1.27 -83.4 0 1 42.75 205.83
  L 42.75 225.51
  A 1.01 1.01 84.0 0 1 41.95 226.50
  C 38.67 227.19 38.38 226.75 35.53 224.90
  Q 25.13 218.17 15.17 211.12
  Q 14.42 210.59 14.41 211.53
  L 14.28 226.32
  Z"
/>
<path fill="#c6c6c6" d="
  M 64.31 209.06
  L 64.25 226.09
  A 0.66 0.66 0.0 0 1 63.59 226.75
  L 59.44 226.75
  A 0.94 0.94 0.0 0 1 58.50 225.81
  L 58.50 209.06
  A 0.56 0.56 0.0 0 0 57.94 208.50
  L 46.55 208.50
  A 0.77 0.76 -8.0 0 1 45.81 207.95
  Q 45.30 206.24 45.86 204.77
  A 0.78 0.70 9.1 0 1 46.57 204.31
  L 75.67 204.25
  A 0.84 0.72 -1.1 0 1 76.50 204.94
  L 76.61 207.97
  A 0.67 0.45 -1.3 0 1 75.94 208.44
  L 64.81 208.56
  A 0.50 0.50 0.0 0 0 64.31 209.06
  Z"
/>
<path fill="#c6c6c6" d="
  M 86.31 222.67
  Q 94.89 222.38 103.47 222.49
  C 106.28 222.53 106.86 222.20 106.34 225.86
  A 1.02 1.00 -86.0 0 1 105.35 226.74
  L 80.94 226.58
  A 0.54 0.52 0.6 0 1 80.41 226.06
  L 80.41 204.94
  A 0.53 0.52 -0.6 0 1 80.93 204.42
  L 105.41 204.26
  A 0.80 0.80 83.7 0 1 106.19 204.89
  C 107.11 208.97 106.40 208.50 102.88 208.50
  Q 94.79 208.50 86.43 208.50
  A 0.59 0.54 0.0 0 0 85.84 209.04
  L 85.85 212.56
  A 0.58 0.49 0.0 0 0 86.43 213.05
  L 104.68 213.05
  A 0.66 0.53 -1.4 0 1 105.33 213.55
  L 105.49 216.35
  A 1.06 0.87 -1.6 0 1 104.43 217.27
  L 86.45 217.42
  A 0.58 0.53 1.0 0 0 85.87 217.93
  L 85.77 222.18
  A 0.52 0.48 -0.6 0 0 86.31 222.67
  Z"
/>
<path fill="#c6c6c6" d="
  M 116.49 217.81
  L 116.29 225.72
  A 1.05 0.97 -89.4 0 1 115.32 226.75
  L 111.42 226.75
  A 0.67 0.67 -0.0 0 1 110.75 226.08
  L 110.75 205.16
  A 0.91 0.91 0.0 0 1 111.66 204.25
  C 117.60 204.25 132.26 202.88 137.18 205.42
  Q 139.54 206.64 139.93 209.28
  Q 140.91 215.93 134.79 216.96
  A 0.41 0.41 -20.3 0 0 134.50 217.58
  L 139.47 225.59
  A 0.81 0.64 50.2 0 1 139.49 226.43
  Q 138.87 227.21 137.72 226.91
  Q 137.21 226.78 136.76 226.86
  Q 134.05 227.37 132.94 225.16
  C 131.65 222.58 129.99 220.09 128.41 217.61
  A 0.94 0.92 -15.6 0 0 127.62 217.18
  L 117.06 217.31
  A 0.57 0.52 1.0 0 0 116.49 217.81
  Z
  M 134.32 209.61
  A 1.09 1.09 0.0 0 0 133.23 208.52
  L 117.29 208.52
  A 1.09 1.09 0.0 0 0 116.20 209.61
  L 116.20 211.89
  A 1.09 1.09 0.0 0 0 117.29 212.98
  L 133.23 212.98
  A 1.09 1.09 0.0 0 0 134.32 211.89
  L 134.32 209.61
  Z"
/>
<path fill="#c6c6c6" d="
  M 160.07 210.05
  L 148.90 225.24
  A 3.20 3.00 12.3 0 1 146.91 226.43
  Q 140.78 227.45 143.07 224.72
  C 148.36 218.41 153.21 211.51 158.25 204.97
  A 1.72 1.40 -75.0 0 1 159.04 204.40
  Q 160.63 203.94 162.22 204.40
  A 1.75 1.41 74.4 0 1 163.00 204.96
  L 178.69 225.65
  Q 179.61 226.87 178.14 226.80
  L 173.74 226.58
  A 1.17 0.91 68.8 0 1 172.95 226.11
  L 161.18 210.06
  A 0.69 0.69 45.4 0 0 160.07 210.05
  Z"
/>
<path fill="#c6c6c6" d="
  M 188.05 222.44
  L 208.51 222.50
  A 0.96 0.87 -14.9 0 1 209.29 222.90
  Q 210.50 224.74 209.24 226.55
  A 0.97 0.85 16.4 0 1 208.44 226.92
  Q 200.34 226.68 188.00 226.75
  C 178.41 226.80 180.62 214.08 181.43 208.24
  Q 181.70 206.29 183.55 205.57
  C 190.25 202.96 201.34 204.25 208.80 204.25
  A 0.73 0.73 -9.5 0 1 209.49 204.74
  Q 210.14 206.55 209.48 208.06
  A 0.83 0.71 10.2 0 1 208.75 208.49
  L 187.74 208.75
  A 1.02 1.00 89.7 0 0 186.75 209.77
  L 186.80 221.20
  A 1.26 1.25 0.0 0 0 188.05 222.44
  Z"
/>
<path fill="#c6c6c6" d="
  M 224.68 208.56
  L 213.32 208.44
  A 0.71 0.67 -7.6 0 1 212.65 207.96
  Q 212.19 206.37 212.65 204.78
  A 0.70 0.66 7.8 0 1 213.31 204.31
  L 242.68 204.31
  A 0.71 0.67 -7.6 0 1 243.35 204.79
  Q 243.81 206.38 243.35 207.97
  A 0.71 0.67 7.2 0 1 242.69 208.45
  L 231.80 208.49
  A 0.81 0.79 -0.4 0 0 231.00 209.28
  L 231.00 225.80
  A 1.03 0.95 -0.3 0 1 229.98 226.75
  L 227.19 226.78
  A 1.70 1.50 -0.7 0 1 225.47 225.30
  L 225.22 209.05
  A 0.54 0.50 -0.5 0 0 224.68 208.56
  Z"
/>
<path fill="#c6c6c6" d="
  M 247.25 226.71
  L 246.71 224.25
  L 246.75 205.84
  A 1.41 1.21 89.8 0 1 247.95 204.43
  L 251.95 204.42
  A 0.65 0.50 90.0 0 1 252.45 205.07
  L 252.33 226.07
  A 0.58 0.51 -89.4 0 1 251.82 226.64
  L 247.25 226.71
  Z"
/>
<path fill="#c6c6c6" d="
  M 276.06 225.81
  C 274.38 227.86 271.72 227.00 270.19 225.03
  Q 262.93 215.69 255.35 205.52
  Q 254.52 204.42 255.85 204.40
  L 260.08 204.35
  A 1.20 0.77 64.2 0 1 260.88 204.84
  L 272.93 220.96
  A 0.61 0.58 44.9 0 0 273.88 220.98
  L 284.95 205.97
  Q 285.92 204.65 287.47 204.45
  Q 292.98 203.73 291.08 206.02
  C 284.22 214.23 279.60 221.51 276.06 225.81
  Z"
/>
<path fill="#c6c6c6" d="
  M 300.56 222.44
  L 319.67 222.50
  A 0.92 0.89 -11.1 0 1 320.51 223.05
  C 321.60 225.69 320.76 226.97 317.96 226.90
  Q 307.04 226.62 295.01 226.77
  A 0.76 0.76 -89.7 0 1 294.25 226.01
  L 294.25 205.24
  A 0.99 0.99 0.0 0 1 295.24 204.25
  L 319.81 204.25
  A 0.74 0.74 82.2 0 1 320.52 204.79
  Q 320.99 206.44 320.59 207.96
  A 0.69 0.65 7.1 0 1 319.93 208.44
  L 300.56 208.56
  A 0.53 0.50 0.0 0 0 300.03 209.06
  L 300.02 212.43
  A 0.59 0.57 0.0 0 0 300.61 213.00
  L 318.51 213.00
  A 0.81 0.81 84.9 0 1 319.31 213.67
  Q 319.65 215.59 319.36 216.71
  A 0.72 0.65 6.8 0 1 318.68 217.19
  L 300.57 217.31
  A 0.59 0.50 -0.0 0 0 299.98 217.81
  L 299.98 221.95
  A 0.58 0.49 0.0 0 0 300.56 222.44
  Z"
/>
<path fill="#c6c6c6" d="
  M 0.00 251.94
  L -0.02 230.43
  Q 11.48 229.72 23.00 230.30
  C 26.75 230.49 28.74 232.46 29.11 236.25
  Q 30.01 245.52 19.50 244.75
  Q 15.72 244.47 6.19 244.91
  A 0.58 0.57 0.5 0 0 5.65 245.43
  Q 5.38 249.27 5.50 250.25
  Q 5.84 253.05 3.73 252.63
  Q 3.23 252.53 2.75 252.59
  Q 1.25 252.78 0.00 251.94
  Z
  M 5.67 234.86
  L 5.74 240.20
  A 0.57 0.47 0.0 0 0 6.31 240.67
  L 21.41 240.54
  A 1.85 1.71 -0.0 0 0 23.25 238.84
  L 23.25 235.68
  A 1.19 1.17 -89.5 0 0 22.10 234.49
  L 6.32 234.27
  A 0.64 0.58 0.0 0 0 5.67 234.86
  Z"
/>
<path fill="#c6c6c6" d="
  M 37.31 248.42
  C 42.98 248.21 48.67 248.46 54.31 248.11
  Q 57.91 247.88 56.57 252.05
  A 0.66 0.65 -80.7 0 1 55.95 252.50
  L 32.09 252.50
  A 0.84 0.84 0.0 0 1 31.25 251.66
  L 31.25 231.40
  A 1.14 1.12 -6.4 0 1 32.14 230.30
  Q 34.82 229.71 36.25 230.33
  A 0.83 0.70 -80.8 0 1 36.69 231.07
  L 36.81 247.93
  A 0.49 0.48 88.9 0 0 37.31 248.42
  Z"
/>
<path fill="#c6c6c6" d="
  M 76.44 235.89
  L 64.23 251.79
  A 1.63 1.23 -72.5 0 1 63.46 252.34
  Q 61.67 252.81 58.88 252.29
  A 0.60 0.60 -66.4 0 1 58.51 251.34
  L 74.26 230.70
  A 1.66 1.50 -78.0 0 1 75.03 230.14
  C 78.44 229.01 79.06 230.85 80.70 232.98
  Q 87.74 242.13 94.70 251.35
  A 0.89 0.63 45.6 0 1 94.84 252.22
  C 94.42 252.93 91.16 252.44 90.13 252.59
  A 1.18 1.14 67.2 0 1 89.03 252.12
  L 77.05 235.90
  A 0.38 0.38 45.8 0 0 76.44 235.89
  Z"
/>
<path fill="#c6c6c6" d="
  M 105.07 239.70
  A 0.39 0.37 44.1 0 0 105.55 239.71
  L 117.17 230.38
  A 1.55 1.24 -59.6 0 1 118.06 230.04
  L 122.47 230.02
  Q 125.10 230.00 123.02 231.68
  L 108.70 243.24
  A 1.10 1.05 -20.6 0 0 108.30 244.07
  L 108.27 251.13
  A 1.14 0.97 -90.0 0 1 107.31 252.26
  L 103.30 252.33
  A 0.65 0.46 88.4 0 1 102.82 251.70
  L 102.54 243.99
  A 1.18 1.00 22.3 0 0 102.12 243.18
  Q 95.03 237.21 87.77 231.46
  C 85.32 229.53 90.51 230.11 91.46 229.90
  A 2.64 2.38 -29.9 0 1 93.64 230.37
  L 105.07 239.70
  Z"
/>
<path fill="#c6c6c6" d="
  M 132.56 238.69
  L 150.42 238.75
  A 0.84 0.71 -1.1 0 1 151.25 239.43
  L 151.36 242.46
  A 0.65 0.46 -0.8 0 1 150.70 242.94
  L 132.55 243.00
  A 0.55 0.55 0.0 0 0 132.00 243.55
  L 132.00 247.73
  A 0.52 0.52 0.0 0 0 132.52 248.25
  L 151.16 248.25
  A 1.44 1.44 85.6 0 1 152.58 249.47
  C 153.15 253.01 152.47 252.52 149.57 252.49
  Q 138.33 252.38 127.44 252.68
  A 1.16 1.16 -0.7 0 1 126.25 251.52
  L 126.25 231.20
  A 1.14 1.13 -90.0 0 1 127.38 230.06
  L 151.69 230.06
  A 0.85 0.78 -12.5 0 1 152.43 230.49
  Q 153.22 232.12 152.47 233.80
  A 0.80 0.73 10.5 0 1 151.75 234.25
  L 132.55 234.31
  A 0.53 0.50 -0.0 0 0 132.02 234.81
  L 132.02 238.19
  A 0.54 0.50 0.0 0 0 132.56 238.69
  Z"
/>
<path fill="#c6c6c6" d="
  M 180.79 243.25
  L 185.66 251.25
  A 0.67 0.61 71.4 0 1 185.22 252.25
  L 180.81 252.51
  A 1.02 0.73 68.1 0 1 180.04 252.02
  L 174.72 243.45
  A 0.96 0.89 73.0 0 0 173.94 243.00
  L 163.17 243.00
  A 0.67 0.67 0.0 0 0 162.50 243.67
  L 162.50 251.76
  A 0.92 0.91 -87.7 0 1 161.52 252.68
  L 157.68 252.36
  A 0.56 0.56 1.7 0 1 157.16 251.81
  L 156.81 231.64
  A 1.66 1.61 -0.5 0 1 158.47 230.00
  Q 167.75 230.00 176.00 229.99
  C 180.78 229.99 187.11 230.55 186.41 237.27
  Q 185.90 242.24 181.07 242.77
  A 0.35 0.31 -17.8 0 0 180.79 243.25
  Z
  M 180.41 235.16
  A 0.89 0.89 0.0 0 0 179.52 234.27
  L 163.36 234.27
  A 0.89 0.89 0.0 0 0 162.47 235.16
  L 162.47 237.88
  A 0.89 0.89 0.0 0 0 163.36 238.77
  L 179.52 238.77
  A 0.89 0.89 0.0 0 0 180.41 237.88
  L 180.41 235.16
  Z"
/>
</svg>
