<?xml version="1.0" encoding="UTF-8" standalone="no"?>
<!DOCTYPE svg PUBLIC "-//W3C//DTD SVG 1.1//EN" "http://www.w3.org/Graphics/SVG/1.1/DTD/svg11.dtd">
<svg xmlns="http://www.w3.org/2000/svg" version="1.1" viewBox="0 0 600 300">
<path fill="#000000" d="
  M 365.31 0.00
  L 369.06 0.00
  C 374.21 0.16 381.48 1.38 384.67 6.20
  C 385.25 7.08 385.25 8.51 386.12 9.41
  A 1.25 1.02 -19.3 0 0 387.00 9.73
  C 399.15 9.34 408.47 13.16 412.64 25.41
  A 3.18 3.15 2.5 0 0 414.38 27.29
  C 424.21 31.54 435.07 38.23 440.15 48.20
  C 443.84 55.44 443.54 64.07 442.00 72.02
  Q 441.60 74.03 440.40 72.37
  Q 437.84 68.81 434.62 64.86
  C 432.99 62.86 433.56 60.13 433.20 58.37
  Q 432.74 56.17 432.12 54.50
  A 1.25 1.14 -36.7 0 0 430.07 54.30
  L 426.63 58.42
  A 0.64 0.53 36.9 0 1 425.85 58.46
  L 417.31 52.70
  Q 414.83 51.03 415.50 53.98
  C 418.42 66.90 422.05 81.66 415.55 93.87
  Q 413.98 96.81 413.33 93.54
  Q 412.10 87.30 413.51 81.20
  C 414.52 76.81 408.86 83.18 408.32 83.62
  A 0.68 0.64 -46.8 0 1 407.52 83.67
  Q 405.16 81.99 406.06 78.56
  Q 407.18 74.31 406.56 69.92
  Q 406.37 68.56 405.27 69.46
  L 399.67 74.07
  A 0.88 0.78 -40.6 0 1 398.52 74.05
  L 395.73 70.94
  A 1.34 0.59 -77.0 0 1 395.55 70.00
  Q 396.01 65.17 394.18 60.95
  A 0.82 0.79 -37.7 0 0 392.82 60.80
  L 388.33 66.31
  A 0.86 0.78 27.5 0 1 387.43 66.55
  C 381.64 64.77 374.57 63.79 368.65 64.94
  C 363.87 65.88 360.19 64.11 355.63 66.70
  Q 349.28 70.31 341.68 72.86
  A 1.46 1.31 -30.7 0 1 340.25 72.58
  L 336.13 68.54
  Q 334.14 66.58 334.25 69.23
  L 334.64 78.44
  A 2.24 1.63 66.7 0 1 334.38 79.59
  L 330.38 86.21
  A 1.32 1.28 36.6 0 1 328.40 86.48
  Q 326.22 84.56 323.81 84.14
  A 0.43 0.42 -85.0 0 0 323.31 84.57
  Q 323.40 90.52 326.26 95.72
  Q 327.02 97.12 326.68 99.15
  A 0.97 0.95 -68.5 0 1 325.21 99.81
  L 322.83 98.24
  Q 321.18 97.14 321.28 99.11
  Q 321.61 105.02 325.22 110.34
  A 1.67 1.21 -68.2 0 1 325.45 111.25
  L 325.25 118.77
  A 1.26 1.21 -76.5 0 1 323.49 119.90
  C 303.01 109.75 305.76 80.94 316.83 64.73
  Q 318.38 62.45 315.71 63.11
  Q 311.03 64.27 305.33 68.59
  A 1.00 0.98 -44.9 0 1 304.14 68.60
  L 299.16 64.94
  Q 296.76 63.16 296.82 66.13
  Q 296.90 70.24 298.29 74.38
  A 2.46 2.28 -42.0 0 1 298.12 76.25
  L 293.29 85.49
  A 0.84 0.81 -57.7 0 1 292.07 85.79
  L 286.93 81.80
  Q 285.49 80.69 285.50 82.49
  Q 285.53 88.60 288.69 94.37
  A 1.40 1.16 41.2 0 1 288.84 95.30
  L 287.01 103.33
  Q 286.49 105.59 285.07 103.70
  Q 270.30 84.01 279.43 60.72
  Q 285.26 45.86 296.56 36.81
  Q 299.57 34.41 300.61 33.31
  A 1.39 1.15 71.1 0 0 300.94 32.44
  Q 301.17 22.23 310.31 18.56
  Q 326.20 12.19 339.16 22.35
  Q 340.95 23.75 340.77 21.49
  C 339.43 4.57 351.15 0.69 365.31 0.00
  Z"
/>
<path fill="#000000" d="
  M 63.69 300.00
  L 55.19 299.94
  C 48.46 300.79 43.17 294.86 47.73 288.74
  C 63.87 267.07 81.22 246.41 97.94 225.19
  Q 99.15 223.65 97.44 223.81
  C 86.99 224.79 76.82 225.46 66.56 222.71
  C 58.19 220.47 56.64 210.91 64.31 206.56
  Q 74.20 200.95 75.56 199.31
  C 81.95 191.62 89.60 192.39 98.73 193.17
  Q 106.11 193.81 113.50 194.25
  C 117.11 194.47 116.75 193.76 119.05 190.98
  C 147.02 157.22 171.56 130.68 211.10 85.78
  Q 224.94 70.06 239.68 55.17
  Q 244.58 50.22 250.62 46.81
  A 1.63 1.44 -54.1 0 1 251.55 46.60
  C 265.51 47.85 257.28 71.71 255.61 78.97
  Q 250.07 102.98 248.31 127.51
  C 246.64 150.77 247.24 174.89 247.74 198.05
  Q 247.77 199.82 249.50 200.20
  C 259.15 202.28 260.85 212.44 250.80 215.57
  Q 248.92 216.15 249.02 218.12
  C 249.89 235.08 252.14 249.79 259.57 265.22
  C 262.18 270.64 256.66 276.27 251.55 276.32
  C 247.77 276.36 244.02 273.72 239.29 273.93
  Q 235.13 274.11 233.73 273.78
  C 216.81 269.79 215.12 243.31 212.42 229.72
  Q 210.96 222.39 210.75 220.75
  Q 210.17 216.12 206.31 216.69
  C 202.05 217.32 197.74 217.45 194.25 218.25
  C 184.38 220.52 173.93 223.22 164.36 223.99
  Q 150.52 225.11 136.13 223.73
  A 2.71 2.71 20.1 0 0 133.67 224.87
  Q 115.95 250.05 97.63 275.65
  C 88.80 287.99 79.79 298.11 63.69 300.00
  Z
  M 154.98 196.20
  C 172.23 196.43 188.95 199.09 206.58 198.73
  Q 208.46 198.69 208.52 196.81
  Q 209.66 159.19 217.78 121.76
  Q 218.00 120.73 217.25 120.69
  A 1.24 0.82 -60.3 0 0 216.42 121.11
  Q 184.27 156.30 154.04 194.22
  Q 152.49 196.17 154.98 196.20
  Z"
/>
<path fill="#000000" d="
  M 406.30 130.58
  Q 405.68 131.90 405.08 130.57
  Q 392.62 102.82 374.31 78.19
  Q 373.53 77.13 371.07 73.46
  C 369.96 71.79 368.80 68.89 366.66 67.13
  Q 365.35 66.05 366.98 66.00
  L 373.94 65.78
  A 1.52 1.03 55.8 0 1 374.82 66.13
  Q 399.93 86.83 415.17 115.89
  A 0.96 0.94 51.1 0 1 415.07 116.93
  Q 409.33 124.20 406.30 130.58
  Z"
/>
<path fill="#000000" d="
  M 350.58 93.04
  C 334.51 80.32 360.41 57.43 367.68 69.65
  C 371.64 76.29 372.45 85.21 368.00 91.75
  C 364.03 97.59 355.48 96.92 350.58 93.04
  Z"
/>
<path fill="#000000" d="
  M 433.73 191.51
  C 452.24 183.67 471.45 176.02 490.82 170.33
  Q 513.74 163.60 537.23 159.15
  Q 543.68 157.93 551.72 158.32
  A 3.34 3.32 -21.1 0 1 553.92 159.29
  C 557.92 163.31 548.98 167.61 545.58 168.96
  C 518.75 179.57 491.59 189.77 465.14 201.30
  Q 436.88 213.63 428.69 217.69
  Q 420.62 221.68 412.00 224.27
  C 405.96 226.08 401.64 223.04 398.54 218.08
  C 392.82 208.93 399.58 202.49 405.94 196.69
  Q 420.87 183.08 434.38 166.49
  C 439.04 160.78 441.60 156.14 443.75 149.50
  C 448.72 134.15 434.29 131.53 424.78 138.56
  Q 416.78 144.46 413.44 149.19
  C 407.24 157.96 392.62 148.78 401.22 139.97
  Q 407.12 133.94 411.11 126.53
  Q 418.78 112.30 433.50 108.75
  C 439.94 107.20 449.91 107.35 455.93 109.82
  C 470.92 115.99 469.60 137.05 464.35 149.31
  Q 461.71 155.47 454.24 166.53
  Q 445.32 179.75 433.53 191.20
  Q 432.82 191.90 433.73 191.51
  Z"
/>
<path fill="#000000" d="
  M 346.64 182.65
  Q 346.40 183.56 346.96 182.80
  C 351.24 176.91 381.15 133.86 390.51 147.64
  C 397.08 157.30 382.66 187.53 379.94 200.20
  Q 379.56 201.97 381.11 201.04
  C 383.59 199.54 385.65 194.61 389.29 198.00
  C 395.93 204.20 381.59 214.48 377.27 216.83
  Q 376.20 217.42 374.22 217.44
  L 366.69 217.53
  Q 364.84 217.56 363.73 216.66
  C 358.10 212.09 358.80 205.97 360.56 199.31
  Q 362.10 193.48 371.55 171.21
  A 0.55 0.39 -71.1 0 0 371.34 170.49
  C 370.64 170.38 350.39 198.66 348.31 201.56
  C 344.69 206.61 334.45 217.93 327.48 211.73
  C 324.91 209.45 323.49 207.79 324.00 204.25
  Q 327.04 183.08 333.58 162.24
  Q 334.09 160.60 333.01 161.94
  Q 304.64 196.95 280.69 235.69
  C 277.94 240.13 270.84 241.70 266.56 240.94
  C 263.84 240.46 264.24 237.44 264.12 235.53
  C 263.68 228.46 267.56 228.68 270.76 224.10
  Q 296.48 187.16 325.39 152.65
  C 329.28 148.01 336.12 139.80 342.64 134.57
  C 348.24 130.09 354.34 130.59 355.53 138.75
  C 355.93 141.50 357.14 143.40 356.84 146.15
  Q 356.35 150.71 354.86 155.08
  Q 350.17 168.85 346.64 182.65
  Z"
/>
<path fill="#000000" d="
  M 413.05 153.05
  C 416.49 148.93 420.84 143.38 424.87 140.97
  A 0.94 0.94 -24.6 0 1 426.24 141.48
  Q 429.94 152.49 432.44 163.81
  Q 433.17 167.16 429.75 167.06
  C 424.93 166.91 420.03 167.29 415.51 167.68
  A 1.48 1.45 84.0 0 1 413.93 166.38
  L 412.55 154.83
  A 2.46 2.20 63.9 0 1 413.05 153.05
  Z"
/>
<path fill="#000000" d="
  M 289.94 277.81
  Q 288.08 277.26 289.81 276.56
  Q 334.86 258.40 383.25 253.72
  Q 397.48 252.34 412.41 251.46
  A 1.31 1.30 -89.5 0 0 413.63 250.26
  Q 414.50 239.24 414.74 229.62
  C 414.80 227.01 414.30 226.07 417.19 224.94
  Q 428.31 220.58 439.01 215.25
  A 1.22 1.22 -17.4 0 1 440.77 216.17
  Q 443.13 232.56 444.30 249.99
  A 1.61 1.60 -85.7 0 0 445.55 251.45
  C 450.07 252.46 455.04 253.23 459.30 254.60
  Q 481.59 261.81 500.40 275.88
  C 504.40 278.87 498.65 277.50 497.25 277.50
  Q 394.75 277.50 292.25 277.50
  Q 291.89 277.50 291.32 277.74
  Q 290.66 278.03 289.94 277.81
  Z"
/>
</svg>
