<?xml version="1.0" encoding="UTF-8" standalone="no"?>
<!DOCTYPE svg PUBLIC "-//W3C//DTD SVG 1.1//EN" "http://www.w3.org/Graphics/SVG/1.1/DTD/svg11.dtd">
<svg xmlns="http://www.w3.org/2000/svg" version="1.1" viewBox="0 0 600 300">
<g stroke-width="2.00" fill="none" stroke-linecap="butt">
<path stroke="#78c401" vector-effect="non-scaling-stroke" d="
  M 531.04 46.25
  Q 530.56 49.78 530.50 57.75
  C 530.32 82.94 530.75 108.13 530.51 133.32
  Q 530.36 148.15 529.87 163.01"
/>
<path stroke="#84cc00" vector-effect="non-scaling-stroke" d="
  M 524.50 162.96
  C 526.60 162.54 525.82 161.39 525.81 160.06
  Q 525.66 104.44 525.81 48.83
  C 525.81 47.44 526.80 45.70 524.00 46.21"
/>
<path stroke="#8dd300" vector-effect="non-scaling-stroke" d="
  M 520.50 162.96
  C 522.07 161.83 521.50 160.90 521.50 159.37
  Q 521.52 103.43 521.50 47.49
  A 0.51 0.48 1.2 0 0 521.01 47.01
  L 520.00 46.96"
/>
<path stroke="#67b801" vector-effect="non-scaling-stroke" d="
  M 537.54 47.75
  Q 537.49 84.84 537.35 121.94
  Q 537.27 142.45 537.75 162.96"
/>
<path stroke="#97d900" vector-effect="non-scaling-stroke" d="
  M 516.50 162.96
  C 517.11 162.63 517.44 162.20 517.44 161.47
  Q 517.57 81.90 517.50 50.00
  Q 517.50 48.85 516.50 47.96"
/>
<path stroke="#43a002" vector-effect="non-scaling-stroke" d="
  M 552.65 56.30
  C 549.36 58.97 552.41 59.81 552.71 62.25"
/>
<path stroke="#63b221" vector-effect="non-scaling-stroke" d="
  M 552.71 62.25
  L 544.18 55.38
  Q 543.16 54.55 543.68 55.80
  L 548.46 67.25"
/>
<path stroke="#55ac01" vector-effect="non-scaling-stroke" d="
  M 548.46 67.25
  Q 547.02 67.39 547.00 68.50
  Q 546.58 90.23 546.69 142.25
  Q 546.71 152.61 546.94 162.98"
/>
<path stroke="#a1e000" vector-effect="non-scaling-stroke" d="
  M 511.50 162.96
  C 513.38 162.10 512.69 161.19 512.69 159.70
  Q 512.74 106.13 512.69 52.56
  A 1.24 0.94 -74.5 0 0 512.35 51.70
  L 510.96 50.50"
/>
<path stroke="#49a022" vector-effect="non-scaling-stroke" d="
  M 552.71 62.25
  Q 560.65 70.16 566.04 80.00"
/>
<path stroke="#63ae41" vector-effect="non-scaling-stroke" d="
  M 566.04 80.00
  C 565.93 81.81 565.25 83.31 565.25 85.03
  Q 565.21 99.84 565.43 114.65
  C 565.52 120.28 563.99 128.39 565.53 133.89
  C 566.13 136.03 565.29 138.66 565.45 140.64
  C 565.79 144.68 565.24 148.40 565.61 152.44
  Q 565.91 155.71 565.75 159.00
  Q 565.63 161.51 563.69 161.81
  Q 560.79 162.27 563.25 162.96"
/>
<path stroke="#54a821" vector-effect="non-scaling-stroke" d="
  M 558.00 162.96
  Q 563.47 123.81 553.96 85.50"
/>
<path stroke="#5aac21" vector-effect="non-scaling-stroke" d="
  M 553.96 85.50
  L 548.46 67.25"
/>
<path stroke="#439c22" vector-effect="non-scaling-stroke" d="
  M 585.93 163.00
  Q 586.84 118.77 566.04 80.00"
/>
<path stroke="#46a201" vector-effect="non-scaling-stroke" d="
  M 553.96 85.50
  C 553.13 85.99 552.45 82.28 552.22 85.06
  Q 551.77 90.60 551.75 98.75
  Q 551.66 137.27 552.05 161.75
  Q 552.07 163.17 553.75 162.96"
/>
<path stroke="#abe700" vector-effect="non-scaling-stroke" d="
  M 507.58 162.96
  Q 507.56 108.98 507.49 55.00
  Q 507.48 53.63 506.00 53.54"
/>
<path stroke="#b6ee00" vector-effect="non-scaling-stroke" d="
  M 500.50 162.96
  L 501.31 161.62
  A 1.54 1.47 58.6 0 0 501.51 160.70
  C 500.66 152.91 501.15 143.23 501.04 137.34
  Q 500.90 129.79 501.01 122.23
  C 501.32 101.93 501.04 81.61 501.18 61.31
  A 1.52 1.10 -71.0 0 0 500.90 60.40
  Q 500.28 59.63 499.25 59.46"
/>
<path stroke="#65b041" vector-effect="non-scaling-stroke" d="
  M 559.75 168.79
  L 564.46 169.22
  A 0.35 0.29 5.2 0 1 564.79 169.54
  Q 564.78 169.70 564.65 169.81
  A 1.06 0.42 -35.4 0 0 564.23 170.45
  Q 563.80 179.51 563.93 188.57
  C 563.99 192.96 563.66 199.24 564.54 204.75"
/>
<path stroke="#4ba222" vector-effect="non-scaling-stroke" d="
  M 564.54 204.75
  Q 558.07 210.69 550.25 214.71"
/>
<path stroke="#62b221" vector-effect="non-scaling-stroke" d="
  M 550.25 214.71
  L 543.30 217.82
  Q 541.77 218.50 542.49 216.99
  Q 547.78 205.99 551.46 193.75"
/>
<path stroke="#5aac21" vector-effect="non-scaling-stroke" d="
  M 551.46 193.75
  Q 555.22 181.61 557.00 169.04"
/>
<path stroke="#439c22" vector-effect="non-scaling-stroke" d="
  M 584.75 169.04
  Q 580.97 190.56 564.54 204.75"
/>
<path stroke="#4fa901" vector-effect="non-scaling-stroke" d="
  M 549.75 169.04
  L 549.98 193.24
  A 0.85 0.59 -85.6 0 0 550.43 194.01
  Q 550.87 194.13 551.46 193.75"
/>
<path stroke="#409e02" vector-effect="non-scaling-stroke" d="
  M 550.25 214.71
  L 550.04 218.00"
/>
<path stroke="#61b501" vector-effect="non-scaling-stroke" d="
  M 541.08 169.10
  Q 540.00 170.67 540.00 174.00
  Q 540.01 197.90 540.00 221.79"
/>
<path stroke="#75c201" vector-effect="non-scaling-stroke" d="
  M 535.00 169.04
  C 531.63 169.70 533.04 172.38 532.91 174.34
  C 532.01 188.36 532.52 202.64 532.88 216.68
  Q 532.96 219.93 533.29 223.30"
/>
<path stroke="#6ebd01" vector-effect="non-scaling-stroke" d="
  M 535.25 231.29
  L 534.09 240.05"
/>
<path stroke="#9adb00" vector-effect="non-scaling-stroke" d="
  M 511.27 234.13
  Q 512.67 231.39 511.85 228.58
  A 0.47 0.46 -6.6 0 0 511.41 228.24
  Q 509.08 228.17 512.25 227.79"
/>
<path stroke="#8bd100" vector-effect="non-scaling-stroke" d="
  M 526.00 169.04
  Q 524.57 169.27 524.56 171.06
  Q 524.41 204.64 524.75 223.79"
/>
<path stroke="#4fa801" vector-effect="non-scaling-stroke" d="
  M 547.25 233.54
  Q 545.89 238.40 546.29 243.53"
/>
<path stroke="#a2e000" vector-effect="non-scaling-stroke" d="
  M 511.68 168.98
  Q 509.68 170.26 509.88 172.68
  Q 510.01 174.28 510.01 174.32
  Q 510.21 197.14 509.94 220.03"
/>
<path stroke="#359602" vector-effect="non-scaling-stroke" d="
  M 565.46 238.39
  Q 563.60 243.02 564.02 247.90
  A 1.17 0.59 -42.2 0 1 563.75 248.61
  L 563.50 248.96"
/>
<path stroke="#b4ed00" vector-effect="non-scaling-stroke" d="
  M 508.75 169.04
  L 503.12 169.21
  A 0.58 0.53 -1.1 0 0 502.56 169.74
  Q 502.52 192.47 502.25 215.25
  Q 502.24 216.14 501.25 216.04"
/>
</g>
<path fill="#7fc900" d="
  M 531.04 46.25
  Q 530.56 49.78 530.50 57.75
  C 530.32 82.94 530.75 108.13 530.51 133.32
  Q 530.36 148.15 529.87 163.01
  L 524.50 162.96
  C 526.60 162.54 525.82 161.39 525.81 160.06
  Q 525.66 104.44 525.81 48.83
  C 525.81 47.44 526.80 45.70 524.00 46.21
  Q 527.53 45.65 531.04 46.25
  Z"
/>
<path fill="#88cf00" d="
  M 524.00 46.21
  C 526.80 45.70 525.81 47.44 525.81 48.83
  Q 525.66 104.44 525.81 160.06
  C 525.82 161.39 526.60 162.54 524.50 162.96
  L 520.50 162.96
  C 522.07 161.83 521.50 160.90 521.50 159.37
  Q 521.52 103.43 521.50 47.49
  A 0.51 0.48 1.2 0 0 521.01 47.01
  L 520.00 46.96
  L 524.00 46.21
  Z"
/>
<path fill="#70be01" d="
  M 531.04 46.25
  Q 534.44 46.36 537.54 47.75
  Q 537.49 84.84 537.35 121.94
  Q 537.27 142.45 537.75 162.96
  L 529.87 163.01
  Q 530.36 148.15 530.51 133.32
  C 530.75 108.13 530.32 82.94 530.50 57.75
  Q 530.56 49.78 531.04 46.25
  Z"
/>
<path fill="#92d600" d="
  M 520.00 46.96
  L 521.01 47.01
  A 0.51 0.48 1.2 0 1 521.50 47.49
  Q 521.52 103.43 521.50 159.37
  C 521.50 160.90 522.07 161.83 520.50 162.96
  L 516.50 162.96
  C 517.11 162.63 517.44 162.20 517.44 161.47
  Q 517.57 81.90 517.50 50.00
  Q 517.50 48.85 516.50 47.96
  L 520.00 46.96
  Z"
/>
<path fill="#5db101" d="
  M 537.54 47.75
  Q 545.97 50.40 552.65 56.30
  C 549.36 58.97 552.41 59.81 552.71 62.25
  L 544.18 55.38
  Q 543.16 54.55 543.68 55.80
  L 548.46 67.25
  Q 547.02 67.39 547.00 68.50
  Q 546.58 90.23 546.69 142.25
  Q 546.71 152.61 546.94 162.98
  L 537.75 162.96
  Q 537.27 142.45 537.35 121.94
  Q 537.49 84.84 537.54 47.75
  Z"
/>
<path fill="#9cdc00" d="
  M 516.50 47.96
  Q 517.50 48.85 517.50 50.00
  Q 517.57 81.90 517.44 161.47
  C 517.44 162.20 517.11 162.63 516.50 162.96
  L 511.50 162.96
  C 513.38 162.10 512.69 161.19 512.69 159.70
  Q 512.74 106.13 512.69 52.56
  A 1.24 0.94 -74.5 0 0 512.35 51.70
  L 510.96 50.50
  L 516.50 47.96
  Z"
/>
<path fill="#a6e300" d="
  M 510.96 50.50
  L 512.35 51.70
  A 1.24 0.94 -74.5 0 1 512.69 52.56
  Q 512.74 106.13 512.69 159.70
  C 512.69 161.19 513.38 162.10 511.50 162.96
  L 507.58 162.96
  Q 507.56 108.98 507.49 55.00
  Q 507.48 53.63 506.00 53.54
  L 510.96 50.50
  Z"
/>
<path fill="#b0ea00" d="
  M 506.00 53.54
  Q 507.48 53.63 507.49 55.00
  Q 507.56 108.98 507.58 162.96
  L 500.50 162.96
  L 501.31 161.62
  A 1.54 1.47 58.6 0 0 501.51 160.70
  C 500.66 152.91 501.15 143.23 501.04 137.34
  Q 500.90 129.79 501.01 122.23
  C 501.32 101.93 501.04 81.61 501.18 61.31
  A 1.52 1.10 -71.0 0 0 500.90 60.40
  Q 500.28 59.63 499.25 59.46
  L 506.00 53.54
  Z"
/>
<path fill="#68b241" d="
  M 552.71 62.25
  Q 560.65 70.16 566.04 80.00
  C 565.93 81.81 565.25 83.31 565.25 85.03
  Q 565.21 99.84 565.43 114.65
  C 565.52 120.28 563.99 128.39 565.53 133.89
  C 566.13 136.03 565.29 138.66 565.45 140.64
  C 565.79 144.68 565.24 148.40 565.61 152.44
  Q 565.91 155.71 565.75 159.00
  Q 565.63 161.51 563.69 161.81
  Q 560.79 162.27 563.25 162.96
  L 558.00 162.96
  Q 563.47 123.81 553.96 85.50
  L 548.46 67.25
  L 543.68 55.80
  Q 543.16 54.55 544.18 55.38
  L 552.71 62.25
  Z"
/>
<path fill="#298e02" d="
  M 552.65 56.30
  C 573.92 77.52 584.83 110.85 588.16 140.48
  Q 589.47 152.16 588.75 162.00
  Q 588.64 163.55 585.93 163.00
  Q 586.84 118.77 566.04 80.00
  Q 560.65 70.16 552.71 62.25
  C 552.41 59.81 549.36 58.97 552.65 56.30
  Z"
/>
<path fill="#bcf200" d="
  M 499.25 59.46
  Q 500.28 59.63 500.90 60.40
  A 1.52 1.10 -71.0 0 1 501.18 61.31
  C 501.04 81.61 501.32 101.93 501.01 122.23
  Q 500.90 129.79 501.04 137.34
  C 501.15 143.23 500.66 152.91 501.51 160.70
  A 1.54 1.47 58.6 0 1 501.31 161.62
  L 500.50 162.96
  L 466.94 163.00
  A 0.70 0.70 -89.2 0 1 466.24 162.28
  C 466.32 159.54 465.98 156.65 466.05 154.24
  C 466.96 122.24 477.16 83.47 499.25 59.46
  Z"
/>
<path fill="#4ca601" d="
  M 548.46 67.25
  L 553.96 85.50
  C 553.13 85.99 552.45 82.28 552.22 85.06
  Q 551.77 90.60 551.75 98.75
  Q 551.66 137.27 552.05 161.75
  Q 552.07 163.17 553.75 162.96
  L 546.94 162.98
  Q 546.71 152.61 546.69 142.25
  Q 546.58 90.23 547.00 68.50
  Q 547.02 67.39 548.46 67.25
  Z"
/>
<path fill="#deff69" d="
  M 35.56 215.94
  L 58.36 216.00
  A 0.63 0.60 0.4 0 1 58.99 216.61
  L 58.96 220.44
  A 0.52 0.50 0.0 0 1 58.44 220.94
  L 12.30 221.00
  A 0.80 0.77 0.4 0 1 11.50 220.22
  L 11.54 216.55
  A 0.52 0.49 0.0 0 1 12.06 216.06
  L 28.64 216.00
  A 1.20 1.18 8.9 0 0 29.76 215.20
  Q 53.56 144.96 76.75 75.50
  Q 77.59 72.97 80.12 74.20
  A 1.24 1.09 -88.4 0 1 80.72 74.92
  L 126.08 215.51
  A 0.71 0.70 80.9 0 0 126.75 216.00
  L 143.11 216.00
  A 0.64 0.64 0.0 0 1 143.75 216.64
  L 143.75 220.48
  A 0.52 0.52 0.0 0 1 143.23 221.00
  L 82.05 221.00
  A 0.85 0.73 -88.9 0 1 81.33 220.12
  L 81.46 216.55
  A 0.57 0.51 -88.8 0 1 81.97 216.00
  L 101.63 216.00
  A 0.76 0.75 81.0 0 0 102.34 215.01
  L 89.86 176.55
  A 0.80 0.80 -9.0 0 0 89.10 176.00
  L 49.24 176.00
  A 1.13 1.12 9.4 0 0 48.17 176.76
  L 35.22 215.47
  A 0.36 0.36 9.3 0 0 35.56 215.94
  Z
  M 50.19 170.49
  A 0.31 0.31 6.8 0 0 50.49 170.90
  L 87.65 171.10
  A 0.31 0.31 83.5 0 0 87.95 170.69
  L 69.66 113.85
  A 0.31 0.31 7.9 0 0 69.07 113.85
  L 50.19 170.49
  Z"
/>
<path fill="#5daa41" d="
  M 566.04 80.00
  Q 586.84 118.77 585.93 163.00
  L 563.25 162.96
  Q 560.79 162.27 563.69 161.81
  Q 565.63 161.51 565.75 159.00
  Q 565.91 155.71 565.61 152.44
  C 565.24 148.40 565.79 144.68 565.45 140.64
  C 565.29 138.66 566.13 136.03 565.53 133.89
  C 563.99 128.39 565.52 120.28 565.43 114.65
  Q 565.21 99.84 565.25 85.03
  C 565.25 83.31 565.93 81.81 566.04 80.00
  Z"
/>
<path fill="#409e01" d="
  M 553.96 85.50
  Q 563.47 123.81 558.00 162.96
  L 553.75 162.96
  Q 552.07 163.17 552.05 161.75
  Q 551.66 137.27 551.75 98.75
  Q 551.77 90.60 552.22 85.06
  C 552.45 82.28 553.13 85.99 553.96 85.50
  Z"
/>
<path fill="#deff69" d="
  M 212.38 192.13
  A 0.49 0.48 13.9 0 1 212.71 192.67
  C 209.82 209.88 198.33 224.91 179.25 224.00
  C 155.19 222.85 140.10 198.66 141.50 176.25
  C 142.91 153.67 160.72 132.06 184.90 134.11
  C 195.60 135.02 204.46 140.07 208.94 149.81
  C 211.72 155.86 210.09 166.36 202.36 167.75
  C 193.89 169.27 189.26 161.62 191.50 153.75
  C 192.37 150.69 198.13 146.75 193.88 142.87
  Q 190.44 139.73 185.75 139.23
  C 169.02 137.46 163.77 147.26 163.03 162.00
  Q 161.88 184.72 164.00 202.50
  C 165.07 211.49 170.79 218.81 180.31 218.89
  C 195.43 219.02 204.63 207.64 207.95 194.06
  Q 208.72 190.89 212.38 192.13
  Z"
/>
<path fill="#deff69" d="
  M 230.19 140.94
  C 246.34 129.49 268.10 132.41 281.21 147.18
  C 296.72 164.67 295.92 193.28 280.35 210.48
  C 263.42 229.18 237.64 228.45 221.90 208.74
  C 206.06 188.92 208.65 156.21 230.19 140.94
  Z
  M 246.38 139.93
  Q 235.90 142.75 234.73 156.02
  C 233.71 167.72 233.43 185.09 234.55 199.25
  Q 235.21 207.61 237.86 211.73
  C 244.91 222.76 263.43 221.26 268.02 207.92
  Q 269.47 203.71 269.75 198.25
  Q 270.90 175.79 269.50 155.25
  C 268.63 142.43 257.88 136.84 246.38 139.93
  Z"
/>
<path fill="#deff69" d="
  M 371.25 136.71
  Q 372.80 136.95 374.25 136.46
  Q 381.92 136.14 389.21 134.09
  A 0.49 0.48 82.3 0 1 389.82 134.56
  L 389.75 153.66
  Q 389.75 155.86 390.69 153.87
  C 396.30 142.05 406.67 133.05 420.45 134.12
  C 434.65 135.22 441.43 147.19 441.81 160.44
  Q 442.57 187.49 442.24 215.33
  A 0.67 0.66 0.4 0 0 442.91 216.00
  L 456.70 216.05
  A 0.65 0.65 -6.4 0 1 457.32 216.54
  Q 457.83 218.50 457.33 220.46
  A 0.67 0.65 7.4 0 1 456.69 220.94
  L 410.89 221.00
  A 0.88 0.88 -80.2 0 1 410.06 219.82
  Q 410.57 218.39 410.09 216.99
  A 0.74 0.74 80.3 0 1 410.79 216.00
  L 422.32 216.00
  A 0.93 0.93 0.0 0 0 423.25 215.07
  Q 423.25 189.45 423.03 164.55
  C 422.97 157.34 423.25 149.72 421.50 143.25
  C 420.87 140.91 418.13 139.47 415.70 139.23
  C 399.06 137.59 390.60 160.03 390.21 173.01
  Q 389.58 193.87 389.76 215.45
  A 0.55 0.55 0.0 0 0 390.31 216.00
  L 401.99 216.00
  A 0.74 0.74 8.0 0 1 402.70 216.94
  Q 402.24 218.51 402.60 219.75
  A 0.97 0.97 81.7 0 1 401.67 221.00
  L 357.58 221.00
  A 0.58 0.58 89.7 0 1 357.00 220.42
  L 357.00 216.66
  A 0.66 0.66 -0.2 0 1 357.66 216.00
  L 370.08 216.00
  A 0.74 0.73 90.0 0 0 370.81 215.26
  L 370.75 142.69
  A 0.69 0.69 0.0 0 0 370.06 142.00
  L 357.99 142.00
  A 0.59 0.59 81.5 0 0 357.43 142.76
  C 359.12 148.36 358.07 154.79 352.78 157.82
  C 348.65 160.19 341.81 159.36 340.00 154.00
  Q 338.94 150.84 339.68 145.00
  A 1.81 1.48 -59.0 0 0 339.54 144.04
  Q 337.91 140.83 335.31 143.81
  C 327.42 152.86 325.20 163.82 324.88 175.50
  Q 324.34 195.00 324.51 215.33
  A 0.67 0.67 0.0 0 0 325.18 216.00
  L 340.12 216.00
  A 0.74 0.74 -82.8 0 1 340.84 216.93
  Q 340.50 218.32 340.90 219.92
  A 0.87 0.87 83.0 0 1 340.06 221.00
  L 290.56 220.94
  A 0.63 0.50 -0.4 0 1 289.93 220.45
  L 289.84 216.50
  A 0.58 0.49 -0.5 0 1 290.42 216.00
  L 305.24 215.94
  A 0.44 0.44 0.0 0 0 305.68 215.50
  L 305.57 142.68
  A 0.51 0.51 0.6 0 0 305.07 142.17
  L 290.56 141.94
  A 0.66 0.48 1.0 0 1 289.91 141.45
  L 289.98 137.83
  A 1.04 0.87 0.2 0 1 291.01 136.98
  L 310.75 136.71
  Q 312.07 136.99 313.25 136.46
  Q 318.60 136.30 323.65 134.28
  A 0.67 0.66 79.4 0 1 324.56 134.91
  L 324.54 152.82
  Q 324.54 155.79 325.43 152.95
  C 328.37 143.62 335.65 132.93 346.75 134.00
  Q 352.83 134.59 356.24 140.07
  Q 356.53 140.54 356.76 140.08
  Q 357.24 139.12 356.97 137.86
  A 0.75 0.72 -6.3 0 1 357.70 136.98
  L 371.25 136.71
  Z"
/>
<path fill="#6db541" d="
  M 559.75 168.79
  L 564.46 169.22
  A 0.35 0.29 5.2 0 1 564.79 169.54
  Q 564.78 169.70 564.65 169.81
  A 1.06 0.42 -35.4 0 0 564.23 170.45
  Q 563.80 179.51 563.93 188.57
  C 563.99 192.96 563.66 199.24 564.54 204.75
  Q 558.07 210.69 550.25 214.71
  L 543.30 217.82
  Q 541.77 218.50 542.49 216.99
  Q 547.78 205.99 551.46 193.75
  Q 555.22 181.61 557.00 169.04
  L 559.75 168.79
  Z"
/>
<path fill="#5daa41" d="
  M 559.75 168.79
  L 584.75 169.04
  Q 580.97 190.56 564.54 204.75
  C 563.66 199.24 563.99 192.96 563.93 188.57
  Q 563.80 179.51 564.23 170.45
  A 1.06 0.42 -35.4 0 1 564.65 169.81
  Q 564.78 169.70 564.79 169.54
  A 0.35 0.29 5.2 0 0 564.46 169.22
  L 559.75 168.79
  Z"
/>
<path fill="#bcf200" d="
  M 508.75 169.04
  L 503.12 169.21
  A 0.58 0.53 -1.1 0 0 502.56 169.74
  Q 502.52 192.47 502.25 215.25
  Q 502.24 216.14 501.25 216.04
  Q 473.66 200.94 467.22 169.85
  A 0.71 0.70 -6.0 0 1 467.91 169.00
  L 508.75 169.04
  Z"
/>
<path fill="#ace700" d="
  M 508.75 169.04
  L 511.68 168.98
  Q 509.68 170.26 509.88 172.68
  Q 510.01 174.28 510.01 174.32
  Q 510.21 197.14 509.94 220.03
  Q 505.04 218.54 501.25 216.04
  Q 502.24 216.14 502.25 215.25
  Q 502.52 192.47 502.56 169.74
  A 0.58 0.53 -1.1 0 1 503.12 169.21
  L 508.75 169.04
  Z"
/>
<path fill="#97d900" d="
  M 511.68 168.98
  L 526.00 169.04
  Q 524.57 169.27 524.56 171.06
  Q 524.41 204.64 524.75 223.79
  Q 516.76 222.97 509.94 220.03
  Q 510.21 197.14 510.01 174.32
  Q 510.01 174.28 509.88 172.68
  Q 509.68 170.26 511.68 168.98
  Z"
/>
<path fill="#7fc900" d="
  M 526.00 169.04
  L 535.00 169.04
  C 531.63 169.70 533.04 172.38 532.91 174.34
  C 532.01 188.36 532.52 202.64 532.88 216.68
  Q 532.96 219.93 533.29 223.30
  C 529.91 223.46 530.72 227.97 531.19 229.96
  A 0.83 0.76 0.6 0 0 531.81 230.54
  L 535.25 231.29
  L 534.09 240.05
  L 511.27 234.13
  Q 512.67 231.39 511.85 228.58
  A 0.47 0.46 -6.6 0 0 511.41 228.24
  Q 509.08 228.17 512.25 227.79
  L 524.16 229.33
  A 0.64 0.57 3.5 0 0 524.88 228.76
  L 524.75 223.79
  Q 524.41 204.64 524.56 171.06
  Q 524.57 169.27 526.00 169.04
  Z"
/>
<path fill="#6abb01" d="
  M 535.00 169.04
  L 541.08 169.10
  Q 540.00 170.67 540.00 174.00
  Q 540.01 197.90 540.00 221.79
  L 533.29 223.30
  Q 532.96 219.93 532.88 216.68
  C 532.52 202.64 532.01 188.36 532.91 174.34
  C 533.04 172.38 531.63 169.70 535.00 169.04
  Z"
/>
<path fill="#57ae01" d="
  M 541.08 169.10
  L 549.75 169.04
  L 549.98 193.24
  A 0.85 0.59 -85.6 0 0 550.43 194.01
  Q 550.87 194.13 551.46 193.75
  Q 547.78 205.99 542.49 216.99
  Q 541.77 218.50 543.30 217.82
  L 550.25 214.71
  L 550.04 218.00
  Q 545.23 220.45 540.00 221.79
  Q 540.01 197.90 540.00 174.00
  Q 540.00 170.67 541.08 169.10
  Z"
/>
<path fill="#47a301" d="
  M 549.75 169.04
  L 557.00 169.04
  Q 555.22 181.61 551.46 193.75
  Q 550.87 194.13 550.43 194.01
  A 0.85 0.59 -85.6 0 1 549.98 193.24
  L 549.75 169.04
  Z"
/>
<path fill="#298e02" d="
  M 584.75 169.04
  Q 586.63 168.37 587.49 169.56
  A 1.23 0.93 -62.0 0 1 587.64 170.49
  Q 580.40 203.39 550.04 218.00
  L 550.25 214.71
  Q 558.07 210.69 564.54 204.75
  Q 580.97 190.56 584.75 169.04
  Z"
/>
<path fill="#b5ed00" d="
  M 474.75 224.46
  Q 476.10 224.88 477.50 224.71
  L 512.25 227.79
  Q 509.08 228.17 511.41 228.24
  A 0.47 0.46 -6.6 0 1 511.85 228.58
  Q 512.67 231.39 511.27 234.13
  Q 489.64 228.89 467.80 225.12
  C 466.51 224.90 467.24 223.94 468.08 224.04
  Q 471.40 224.44 474.75 224.46
  Z"
/>
<path fill="#5db101" d="
  M 535.25 231.29
  L 547.25 233.54
  Q 545.89 238.40 546.29 243.53
  L 534.09 240.05
  L 535.25 231.29
  Z"
/>
<path fill="#409e01" d="
  M 547.25 233.54
  L 565.46 238.39
  Q 563.60 243.02 564.02 247.90
  A 1.17 0.59 -42.2 0 1 563.75 248.61
  L 563.50 248.96
  L 546.29 243.53
  Q 545.89 238.40 547.25 233.54
  Z"
/>
<path fill="#298e02" d="
  M 565.46 238.39
  L 582.17 244.11
  A 1.09 1.03 -74.4 0 1 582.83 245.36
  L 580.87 254.35
  A 0.60 0.60 16.1 0 1 580.09 254.78
  L 563.50 248.96
  L 563.75 248.61
  A 1.17 0.59 -42.2 0 0 564.02 247.90
  Q 563.60 243.02 565.46 238.39
  Z"
/>
</svg>
