<?xml version="1.0" encoding="UTF-8" standalone="no"?>
<!DOCTYPE svg PUBLIC "-//W3C//DTD SVG 1.1//EN" "http://www.w3.org/Graphics/SVG/1.1/DTD/svg11.dtd">
<svg xmlns="http://www.w3.org/2000/svg" version="1.1" viewBox="0 0 600 300">
<path fill="#000000" d="
  M 428.43 176.35
  C 430.50 180.21 435.62 181.48 438.62 178.07
  Q 440.35 176.10 440.78 172.50
  C 442.30 159.77 434.06 155.04 424.82 148.92
  Q 408.25 137.95 407.04 117.76
  C 406.33 105.93 406.78 84.81 416.84 76.38
  C 425.74 68.93 436.25 74.85 440.36 84.22
  A 0.95 0.72 75.8 0 0 441.06 84.78
  C 441.41 84.79 441.30 77.25 441.39 76.19
  A 0.58 0.55 -87.1 0 1 441.94 75.67
  L 458.24 75.55
  A 1.01 0.99 -90.0 0 1 459.24 76.57
  L 459.04 124.76
  A 0.95 0.94 -89.7 0 1 458.10 125.70
  L 441.20 125.70
  A 1.48 1.46 -89.8 0 1 439.74 124.21
  Q 439.78 117.76 437.22 113.73
  A 1.67 1.58 83.4 0 0 436.48 113.11
  C 430.81 110.70 428.21 115.04 428.54 120.01
  Q 429.09 128.31 436.69 133.06
  C 447.43 139.78 459.46 147.95 461.71 161.81
  C 463.96 175.63 467.46 222.81 441.86 220.23
  C 435.48 219.59 430.09 214.74 427.39 209.01
  A 0.82 0.62 71.9 0 0 426.69 208.52
  C 426.29 208.57 426.51 216.34 426.50 217.34
  A 0.67 0.67 -89.6 0 1 425.83 218.00
  L 409.25 218.00
  A 0.50 0.50 0.0 0 1 408.75 217.50
  L 408.75 164.42
  A 0.67 0.67 -0.2 0 1 409.42 163.75
  L 426.01 163.75
  A 0.55 0.55 0.0 0 1 426.56 164.30
  C 426.56 168.19 426.62 172.99 428.43 176.35
  Z"
/>
<path fill="#000000" d="
  M 9.93 112.06
  L 4.19 111.85
  A 0.54 0.53 -88.9 0 1 3.68 111.31
  L 3.51 76.37
  A 0.88 0.86 -0.3 0 1 4.39 75.50
  L 34.57 75.50
  A 0.93 0.93 89.4 0 1 35.50 76.43
  L 35.44 111.00
  A 1.27 1.06 -1.1 0 1 34.21 112.07
  L 31.03 112.17
  A 0.65 0.48 89.6 0 0 30.56 112.82
  Q 30.45 136.03 30.44 159.25
  Q 30.43 167.09 31.98 174.66
  Q 32.32 176.31 33.31 177.68
  C 37.88 184.02 41.77 176.55 42.75 172.25
  Q 43.87 167.33 43.88 158.25
  Q 43.89 135.47 43.57 112.68
  A 0.57 0.55 2.4 0 0 43.06 112.14
  L 39.93 111.86
  A 0.56 0.55 2.9 0 1 39.43 111.31
  L 39.26 76.78
  A 1.23 1.21 -0.5 0 1 40.48 75.56
  L 65.06 75.50
  A 0.95 0.94 -90.0 0 1 66.00 76.45
  L 66.00 111.23
  A 0.77 0.77 0.0 0 1 65.23 112.00
  L 59.41 112.00
  A 0.66 0.66 0.0 0 0 58.75 112.66
  Q 58.75 148.13 58.75 183.50
  C 58.75 194.54 59.24 207.86 50.83 215.02
  C 41.04 223.36 23.02 222.13 15.56 210.94
  C 11.65 205.07 10.77 197.68 10.70 189.78
  Q 10.37 151.18 10.44 112.57
  A 0.53 0.51 1.2 0 0 9.93 112.06
  Z"
/>
<path fill="#000000" d="
  M 94.26 179.93
  L 100.41 179.72
  A 1.29 1.29 -1.1 0 1 101.75 181.01
  L 101.75 217.34
  A 0.66 0.66 0.0 0 1 101.09 218.00
  L 73.57 218.00
  A 0.82 0.82 0.0 0 1 72.75 217.18
  L 72.75 181.02
  A 1.22 1.20 -88.9 0 1 74.00 179.80
  L 78.79 180.00
  A 1.16 1.13 1.2 0 0 80.00 178.87
  L 80.00 112.68
  A 0.68 0.68 0.0 0 0 79.32 112.00
  L 73.63 112.00
  A 0.88 0.88 0.0 0 1 72.75 111.12
  L 72.75 76.49
  A 0.99 0.99 0.0 0 1 73.74 75.50
  L 103.67 75.50
  A 1.00 1.00 -6.1 0 1 104.65 76.29
  L 125.50 173.38
  A 0.46 0.30 79.1 0 0 125.87 173.76
  L 126.03 173.74
  A 0.23 0.18 87.2 0 0 126.19 173.52
  L 126.01 113.14
  A 1.09 1.08 -89.5 0 0 124.95 112.05
  L 118.32 111.95
  A 0.52 0.50 0.6 0 1 117.81 111.45
  L 117.75 76.37
  A 0.87 0.87 0.0 0 1 118.62 75.50
  L 145.81 75.50
  A 0.69 0.69 0.0 0 1 146.50 76.19
  L 146.50 111.23
  A 0.72 0.70 89.6 0 1 145.81 111.95
  L 140.21 112.00
  A 0.72 0.69 -0.4 0 0 139.50 112.69
  L 139.50 217.35
  A 0.64 0.63 90.0 0 1 138.87 217.99
  L 118.18 217.83
  A 0.65 0.62 84.1 0 1 117.58 217.32
  Q 107.33 169.63 97.07 121.94
  Q 95.49 114.61 94.26 107.23
  A 1.07 0.61 -89.4 0 0 93.87 106.53
  Q 93.46 106.31 93.46 107.25
  Q 93.50 142.75 93.50 179.19
  A 0.74 0.74 -0.8 0 0 94.26 179.93
  Z"
/>
<path fill="#000000" d="
  M 181.32 179.75
  L 187.54 179.72
  A 0.70 0.64 -0.4 0 1 188.25 180.36
  L 188.50 217.13
  A 0.87 0.86 90.0 0 1 187.64 218.00
  L 154.39 218.00
  A 0.63 0.62 0.4 0 1 153.76 217.37
  L 153.93 180.44
  A 0.50 0.50 0.6 0 1 154.44 179.94
  L 159.57 180.04
  A 1.16 1.15 0.5 0 0 160.75 178.89
  L 160.75 112.75
  A 0.70 0.70 0.8 0 0 160.07 112.05
  L 154.32 111.95
  A 0.52 0.51 0.6 0 1 153.81 111.44
  L 153.81 76.20
  A 0.71 0.70 -0.0 0 1 154.52 75.50
  L 187.71 75.50
  A 0.60 0.60 0.0 0 1 188.31 76.10
  L 188.31 111.07
  A 0.64 0.63 83.1 0 1 187.83 111.69
  Q 185.28 112.29 181.98 111.91
  A 1.11 1.11 -86.8 0 0 180.75 113.01
  L 180.81 179.19
  A 0.56 0.51 90.0 0 0 181.32 179.75
  Z"
/>
<path fill="#000000" d="
  M 231.29 184.53
  C 231.67 184.33 238.53 119.10 239.27 112.60
  A 0.55 0.54 -87.1 0 0 238.73 112.00
  L 232.24 112.00
  A 0.99 0.99 0.5 0 1 231.25 111.01
  L 231.25 76.18
  A 0.68 0.68 0.0 0 1 231.93 75.50
  L 257.23 75.50
  A 1.02 1.02 -88.7 0 1 258.25 76.52
  L 258.19 110.94
  A 0.89 0.77 78.1 0 1 257.77 111.70
  Q 256.59 112.31 254.87 111.91
  Q 253.01 111.49 252.76 113.38
  L 239.36 217.10
  A 1.02 0.97 -85.7 0 1 238.38 217.98
  L 215.81 217.71
  A 0.60 0.57 85.3 0 1 215.24 217.20
  L 200.50 112.80
  A 0.70 0.56 85.8 0 0 199.94 112.19
  L 195.67 112.10
  A 1.45 1.27 0.7 0 1 194.25 110.83
  L 194.25 76.41
  A 0.91 0.91 0.0 0 1 195.16 75.50
  L 225.09 75.50
  A 1.20 1.17 -90.0 0 1 226.26 76.70
  L 226.27 110.66
  A 1.34 1.32 -90.0 0 1 224.95 112.00
  L 220.62 112.00
  A 0.64 0.63 85.7 0 0 220.00 112.73
  L 230.75 184.20
  A 0.41 0.37 73.3 0 0 231.29 184.53
  Z"
/>
<path fill="#000000" d="
  M 290.80 152.81
  L 290.92 179.31
  A 0.55 0.55 1.7 0 0 291.43 179.85
  Q 297.82 180.33 304.20 179.73
  A 0.57 0.53 88.3 0 0 304.69 179.18
  L 304.92 159.93
  A 0.53 0.51 -0.0 0 1 305.44 159.43
  L 321.80 159.07
  A 0.93 0.93 -0.6 0 1 322.75 160.00
  L 322.75 217.23
  A 0.71 0.70 90.0 0 1 322.05 217.94
  L 264.42 218.00
  A 0.67 0.67 0.2 0 1 263.75 217.33
  L 263.75 180.51
  A 0.61 0.59 0.5 0 1 264.37 179.92
  L 269.78 179.99
  A 0.99 0.95 -89.4 0 0 270.75 179.00
  L 270.75 112.69
  A 0.72 0.69 0.4 0 0 270.04 112.00
  L 264.45 111.95
  A 0.72 0.70 90.0 0 1 263.75 111.23
  L 263.75 76.16
  A 0.66 0.66 -0.2 0 1 264.41 75.50
  L 320.94 75.56
  A 0.38 0.37 90.0 0 1 321.31 75.94
  L 321.50 131.60
  A 0.91 0.90 0.0 0 1 320.59 132.50
  L 305.39 132.50
  A 0.66 0.65 90.0 0 1 304.74 131.84
  L 304.58 112.68
  A 0.53 0.52 90.0 0 0 304.06 112.15
  L 291.44 112.15
  A 0.53 0.52 -90.0 0 0 290.92 112.68
  L 290.92 137.07
  A 0.51 0.49 -0.0 0 0 291.43 137.56
  L 307.57 137.50
  A 0.68 0.68 0.0 0 1 308.25 138.18
  L 308.25 151.36
  A 0.90 0.90 0.0 0 1 307.35 152.26
  L 291.32 152.31
  A 0.52 0.50 0.0 0 0 290.80 152.81
  Z"
/>
<path fill="#000000" d="
  M 358.81 179.93
  L 364.54 179.71
  A 0.93 0.92 -0.9 0 1 365.50 180.63
  L 365.50 217.36
  A 0.64 0.64 0.0 0 1 364.86 218.00
  L 331.41 218.00
  A 0.66 0.66 0.2 0 1 330.75 217.34
  L 330.75 180.90
  A 1.00 0.91 -89.4 0 1 331.68 179.90
  L 336.82 180.01
  A 1.16 1.08 0.5 0 0 338.00 178.93
  L 337.94 112.80
  A 0.60 0.50 -89.5 0 0 337.45 112.20
  L 332.54 112.10
  A 1.78 1.52 0.9 0 1 330.80 110.56
  L 330.96 76.61
  A 1.12 1.10 -0.3 0 1 332.07 75.51
  Q 350.75 75.33 368.25 75.80
  C 378.09 76.06 387.43 79.56 390.11 89.79
  C 394.03 104.77 397.72 140.23 375.49 144.41
  A 0.85 0.52 -7.3 0 0 374.80 144.96
  Q 374.77 145.42 375.75 145.50
  C 383.67 146.12 388.14 151.28 388.87 158.94
  C 389.38 164.34 388.82 178.16 391.68 180.62
  C 396.89 185.08 397.55 169.70 397.52 167.95
  C 397.48 166.02 396.83 164.01 400.00 164.75
  Q 402.33 165.29 402.50 166.75
  C 403.96 179.29 405.57 202.30 397.96 213.16
  C 393.92 218.93 386.40 221.30 380.66 216.65
  C 369.47 207.58 372.04 178.55 372.34 165.75
  Q 372.65 152.24 358.84 152.25
  A 0.82 0.80 -0.3 0 0 358.02 153.06
  L 358.29 179.44
  A 0.51 0.50 -1.1 0 0 358.81 179.93
  Z
  M 358.56 138.04
  C 368.76 140.00 374.69 133.01 373.50 123.25
  Q 372.05 111.33 359.22 111.97
  A 1.28 1.28 -1.4 0 0 358.00 113.25
  L 358.06 137.45
  A 0.62 0.60 5.9 0 0 358.56 138.04
  Z"
/>
<path fill="#000000" d="
  M 488.31 179.75
  L 494.11 179.65
  A 1.62 1.48 -0.4 0 1 495.75 181.13
  L 495.75 217.61
  A 0.39 0.39 0.0 0 1 495.36 218.00
  L 467.49 218.00
  A 0.68 0.67 -0.0 0 1 466.81 217.33
  L 466.75 181.06
  A 1.26 1.24 -88.3 0 1 468.07 179.80
  L 472.28 180.04
  A 1.28 1.26 5.6 0 0 473.62 178.96
  L 487.61 76.42
  A 1.07 1.06 -85.9 0 1 488.66 75.50
  L 513.41 75.50
  A 0.81 0.81 -4.1 0 1 514.21 76.19
  L 528.66 179.14
  A 0.98 0.96 83.9 0 0 529.68 179.98
  L 533.60 179.70
  A 1.31 1.29 -2.1 0 1 535.00 180.99
  L 535.00 217.12
  A 0.88 0.88 0.0 0 1 534.12 218.00
  L 500.94 218.00
  A 0.69 0.69 0.0 0 1 500.25 217.31
  L 500.25 181.11
  A 1.68 1.46 0.8 0 1 501.97 179.66
  L 507.20 179.77
  A 0.53 0.44 87.1 0 0 507.64 179.19
  L 505.59 161.19
  A 0.77 0.77 -2.9 0 0 504.82 160.50
  L 490.97 160.56
  A 1.01 1.01 -86.8 0 0 489.97 161.46
  L 487.87 179.20
  A 0.49 0.44 -86.6 0 0 488.31 179.75
  Z
  M 497.62 103.46
  Q 495.06 123.89 491.91 144.86
  A 1.26 1.16 3.9 0 0 493.17 146.19
  L 502.41 146.16
  A 1.09 1.00 -3.9 0 0 503.50 145.01
  Q 500.51 124.42 498.21 103.74
  C 498.19 103.59 497.77 102.28 497.62 103.46
  Z"
/>
<path fill="#000000" d="
  M 599.78 152.42
  L 599.79 217.50
  C 598.54 218.78 547.49 218.00 541.27 218.00
  A 0.52 0.52 -90.0 0 1 540.75 217.48
  L 540.75 180.84
  A 1.01 1.01 -84.0 0 1 541.97 179.85
  Q 544.40 180.38 547.21 179.79
  A 0.63 0.60 84.4 0 0 547.69 179.18
  L 547.75 112.63
  A 0.72 0.67 0.4 0 0 547.04 111.96
  L 541.44 111.87
  A 0.56 0.52 -89.5 0 1 540.93 111.31
  L 540.76 76.26
  A 0.77 0.76 -0.0 0 1 541.53 75.50
  L 574.59 75.50
  A 0.91 0.91 -89.7 0 1 575.50 76.41
  L 575.50 111.01
  A 0.99 0.99 -0.5 0 1 574.51 112.00
  L 568.41 112.00
  A 0.66 0.66 90.0 0 0 567.75 112.66
  L 567.75 179.01
  A 0.99 0.99 0.0 0 0 568.74 180.00
  L 581.09 180.00
  A 0.66 0.66 90.0 0 0 581.75 179.34
  L 581.75 152.90
  A 0.71 0.69 -89.6 0 1 582.45 152.19
  L 599.78 152.42
  Z"
/>
</svg>
