<?xml version="1.0" encoding="UTF-8" standalone="no"?>
<!DOCTYPE svg PUBLIC "-//W3C//DTD SVG 1.1//EN" "http://www.w3.org/Graphics/SVG/1.1/DTD/svg11.dtd">
<svg xmlns="http://www.w3.org/2000/svg" version="1.1" viewBox="0 0 600 300">
<path fill="#000000" d="
  M 399.19 215.19
  C 380.93 242.59 341.19 249.50 310.72 248.63
  C 247.25 246.84 163.98 189.23 148.31 125.69
  Q 147.36 121.84 147.69 118.74
  Q 147.74 118.22 147.81 118.75
  Q 148.76 126.16 151.56 131.19
  C 168.70 161.87 200.57 184.78 236.54 183.77
  Q 238.52 183.71 236.87 182.60
  C 211.29 165.41 190.42 140.70 180.69 111.31
  C 167.22 70.66 185.74 31.24 227.28 18.61
  C 260.78 8.43 294.05 10.20 326.31 23.06
  C 373.69 41.95 431.09 86.50 440.25 140.50
  Q 440.33 140.96 440.10 141.72
  Q 439.95 142.22 439.86 141.69
  Q 438.56 133.77 434.94 127.56
  C 418.03 98.62 385.57 75.49 351.31 76.91
  Q 349.00 77.01 350.92 78.30
  C 392.20 106.09 432.10 165.78 399.19 215.19
  Z
  M 240.26 142.99
  C 258.64 178.63 306.74 209.52 347.43 194.70
  C 348.15 194.44 350.20 192.92 346.99 193.70
  C 323.20 199.47 297.35 179.47 288.14 158.94
  C 275.57 130.90 298.61 112.98 324.81 121.44
  C 347.26 128.68 372.05 152.21 365.31 178.28
  A 0.47 0.30 -67.6 0 0 365.38 178.69
  Q 365.47 178.78 365.60 178.78
  A 0.71 0.39 -67.6 0 0 366.11 178.37
  C 375.86 159.90 371.04 138.10 360.44 121.31
  Q 340.13 89.16 304.00 76.25
  C 288.26 70.63 267.49 69.35 252.56 77.81
  C 228.21 91.61 229.01 121.17 240.26 142.99
  Z"
/>
<path fill="#000000" d="
  M 21.07 282.44
  C 25.25 282.55 28.62 280.02 31.85 276.55
  A 1.89 1.67 75.8 0 0 32.29 275.70
  L 38.70 247.05
  A 1.50 1.40 -15.7 0 1 39.19 246.24
  Q 41.73 244.14 44.46 242.28
  C 47.48 240.23 51.44 240.62 55.06 240.46
  A 0.55 0.54 -84.7 0 1 55.61 241.13
  Q 52.02 257.04 48.44 273.25
  C 47.78 276.26 46.92 278.44 45.29 280.78
  Q 44.28 282.25 46.04 282.24
  L 50.94 282.21
  A 1.55 1.41 24.2 0 0 51.85 281.91
  L 58.30 277.01
  A 1.52 1.16 83.5 0 0 58.79 276.19
  L 65.39 246.99
  A 1.42 1.37 -14.4 0 1 65.89 246.18
  Q 68.45 244.10 71.19 242.27
  C 74.21 240.26 78.14 240.73 81.77 240.66
  A 0.41 0.41 -84.4 0 1 82.18 241.16
  L 74.30 275.95
  A 1.36 1.30 79.1 0 1 73.80 276.73
  L 60.45 286.61
  A 3.41 3.26 25.8 0 1 58.47 287.25
  L 3.97 287.25
  A 0.68 0.68 6.2 0 1 3.31 286.43
  L 12.07 247.19
  A 1.89 1.84 -13.7 0 1 12.74 246.12
  Q 15.03 244.29 17.36 242.59
  C 20.53 240.29 24.56 240.50 28.23 240.33
  A 0.71 0.71 -85.0 0 1 28.95 241.19
  L 20.08 281.16
  A 1.06 1.05 -82.9 0 0 21.07 282.44
  Z"
/>
<path fill="#000000" d="
  M 368.47 267.54
  C 360.98 261.45 368.20 246.54 375.71 243.25
  Q 378.55 242.01 384.48 242.07
  Q 401.28 242.24 418.15 240.99
  Q 419.56 240.88 418.50 241.83
  L 412.06 247.50
  A 2.96 2.95 24.0 0 1 410.09 248.25
  Q 403.72 248.25 397.52 248.25
  C 389.01 248.25 381.43 247.15 382.28 257.98
  Q 382.46 260.25 384.73 260.25
  Q 393.27 260.25 401.80 260.25
  C 408.89 260.25 412.73 263.87 410.94 271.44
  C 409.18 278.87 405.97 285.19 398.28 287.07
  Q 396.53 287.50 387.18 287.50
  Q 361.43 287.50 335.36 287.50
  Q 334.17 287.50 335.08 286.74
  L 340.89 281.88
  A 2.76 2.67 24.3 0 1 342.64 281.25
  Q 362.83 281.25 382.92 281.25
  C 389.47 281.25 394.46 280.29 394.50 272.75
  C 394.52 268.78 391.69 268.96 388.63 269.02
  Q 379.84 269.16 371.72 268.78
  Q 369.89 268.70 368.47 267.54
  Z"
/>
<path fill="#000000" d="
  M 192.39 286.29
  Q 189.47 284.84 190.27 281.86
  L 194.16 267.55
  A 1.43 1.21 -13.1 0 1 194.73 266.78
  Q 200.84 262.74 207.21 259.11
  C 211.05 256.92 221.35 257.97 226.01 258.00
  A 1.52 1.45 25.6 0 0 226.90 257.71
  Q 232.74 253.51 235.87 247.44
  A 2.65 2.65 13.6 0 1 238.23 246.00
  L 251.52 246.00
  Q 252.53 246.00 251.86 246.77
  L 242.11 258.13
  A 1.09 1.06 41.0 0 0 242.23 259.64
  Q 244.49 261.58 243.73 264.31
  Q 240.59 275.55 237.56 286.83
  A 1.16 1.14 -81.5 0 1 236.43 287.68
  Q 217.47 287.39 198.25 287.62
  Q 195.16 287.66 192.39 286.29
  Z
  M 207.42 283.33
  L 221.72 283.48
  A 1.35 1.31 -82.1 0 0 223.01 282.48
  L 227.83 263.94
  Q 228.40 261.75 226.12 261.75
  C 222.76 261.75 218.85 261.09 215.85 262.79
  Q 213.42 264.18 210.83 265.88
  A 2.30 2.05 -11.5 0 0 209.91 267.11
  L 206.05 281.52
  A 1.44 1.43 -82.3 0 0 207.42 283.33
  Z"
/>
<path fill="#000000" d="
  M 171.75 267.50
  C 173.84 259.72 160.88 261.72 156.76 261.75
  A 1.06 1.06 7.2 0 0 155.75 262.53
  Q 153.74 270.04 151.76 277.74
  C 150.82 281.43 146.23 284.65 143.34 286.88
  A 1.53 1.39 -61.8 0 1 142.44 287.20
  L 133.98 287.24
  A 0.40 0.39 -82.6 0 1 133.60 286.74
  L 141.31 258.05
  A 1.00 0.99 -81.1 0 1 142.30 257.32
  Q 159.71 257.98 177.33 258.21
  C 186.01 258.32 188.94 261.37 186.76 269.86
  Q 184.62 278.21 182.25 286.51
  A 1.03 1.02 7.8 0 1 181.26 287.25
  L 166.91 287.25
  A 0.39 0.39 7.4 0 1 166.53 286.76
  Q 169.23 276.85 171.75 267.50
  Z"
/>
<path fill="#000000" d="
  M 454.94 283.62
  C 459.29 284.88 462.69 282.32 467.02 279.46
  A 1.37 1.30 -10.3 0 0 467.57 278.71
  L 471.75 263.31
  A 2.78 2.67 79.5 0 1 472.69 261.88
  Q 478.76 257.14 487.38 257.27
  A 0.98 0.97 7.9 0 1 488.32 258.50
  L 482.83 278.20
  A 1.34 1.25 83.5 0 1 482.27 278.96
  L 469.42 286.79
  A 3.70 2.89 23.0 0 1 467.67 287.26
  L 414.27 287.51
  A 0.72 0.72 7.0 0 1 413.56 286.61
  L 419.93 263.05
  A 1.47 1.43 79.5 0 1 420.46 262.26
  Q 422.59 260.62 424.90 259.27
  C 428.33 257.28 432.13 257.50 435.97 257.32
  A 0.53 0.52 6.4 0 1 436.50 257.98
  L 429.88 282.77
  A 0.53 0.53 -72.8 0 0 430.22 283.42
  C 433.95 284.69 438.03 281.52 441.02 279.47
  A 1.35 1.32 -9.8 0 0 441.57 278.71
  L 445.94 263.03
  A 2.50 2.49 -7.6 0 1 447.07 261.56
  C 449.97 259.85 452.11 258.09 455.62 257.78
  Q 458.78 257.50 461.96 257.31
  A 0.54 0.53 -84.1 0 1 462.50 257.99
  Q 459.91 267.33 457.43 276.68
  Q 456.65 279.62 454.50 282.16
  A 0.91 0.91 28.2 0 0 454.94 283.62
  Z"
/>
<path fill="#000000" d="
  M 525.43 261.79
  C 514.38 261.40 507.33 262.73 505.37 274.85
  C 504.22 281.98 509.88 284.11 515.84 283.36
  Q 518.31 283.05 516.26 284.49
  L 512.84 286.90
  A 1.73 1.55 -60.3 0 1 511.94 287.20
  C 505.38 287.33 487.42 288.49 489.01 276.72
  C 490.77 263.67 500.07 257.81 512.75 257.86
  Q 527.76 257.93 542.36 257.27
  A 0.67 0.66 6.5 0 1 543.04 258.11
  L 535.21 286.33
  A 0.76 0.74 5.0 0 1 534.56 286.86
  Q 527.11 287.58 520.42 287.23
  A 0.96 0.94 -81.0 0 1 519.57 286.03
  L 525.83 262.30
  A 0.42 0.41 8.2 0 0 525.43 261.79
  Z"
/>
<path fill="#000000" d="
  M 579.54 263.03
  C 576.57 260.88 568.82 261.75 565.19 261.75
  A 0.78 0.78 7.1 0 0 564.43 262.34
  L 559.73 279.72
  A 2.54 1.99 -18.9 0 1 558.99 280.86
  L 552.05 286.85
  A 1.43 1.15 -60.9 0 1 551.19 287.20
  L 542.44 287.24
  A 0.45 0.43 -82.9 0 1 542.02 286.68
  L 549.80 257.96
  A 1.04 1.03 -81.0 0 1 550.85 257.19
  Q 566.87 257.99 581.75 257.75
  C 588.69 257.64 599.05 258.05 596.19 268.19
  Q 593.65 277.20 591.25 286.27
  A 1.01 0.94 -82.2 0 1 590.34 287.01
  L 575.77 287.23
  A 0.57 0.55 -82.7 0 1 575.24 286.52
  L 580.75 266.48
  Q 581.35 264.33 579.54 263.03
  Z"
/>
<path fill="#000000" d="
  M 82.43 286.19
  C 78.90 284.30 79.82 282.38 80.74 278.85
  Q 82.22 273.17 83.92 267.54
  A 1.40 1.38 81.2 0 1 84.47 266.78
  C 88.42 264.01 96.44 258.02 101.23 257.98
  Q 112.93 257.91 124.63 257.98
  Q 129.13 258.01 130.76 258.74
  C 134.88 260.60 133.13 264.30 132.05 268.33
  Q 130.80 273.01 129.57 277.70
  A 1.34 1.25 83.5 0 1 129.01 278.46
  L 115.17 287.00
  A 1.85 1.54 24.6 0 1 114.25 287.25
  L 86.64 287.25
  Q 84.40 287.25 82.43 286.19
  Z
  M 97.17 283.31
  C 100.18 283.70 105.27 284.09 107.90 282.44
  C 110.07 281.07 111.74 280.21 113.32 278.78
  A 1.75 1.64 77.8 0 0 113.81 277.96
  Q 116.49 267.72 117.25 265.50
  Q 118.66 261.39 115.03 261.62
  C 111.60 261.83 108.47 261.12 105.34 262.86
  Q 102.63 264.37 100.09 266.15
  A 1.40 1.32 81.2 0 0 99.56 266.92
  L 95.79 281.26
  A 1.64 1.64 11.1 0 0 97.17 283.31
  Z"
/>
<path fill="#000000" d="
  M 276.73 287.53
  C 268.70 287.63 260.64 287.32 252.60 287.22
  C 245.63 287.13 244.90 284.89 246.44 278.66
  Q 247.70 273.55 249.19 268.08
  A 2.76 2.72 82.3 0 1 250.39 266.48
  L 262.98 258.76
  A 5.36 5.17 28.5 0 1 265.72 258.00
  Q 278.75 258.00 290.75 258.00
  C 294.95 258.00 301.55 259.21 298.81 265.49
  C 297.42 268.65 287.39 273.64 283.96 275.67
  A 2.38 2.38 -59.8 0 1 282.75 276.00
  L 263.53 276.00
  A 1.06 1.01 -83.1 0 0 262.54 276.82
  L 261.42 281.54
  A 1.54 1.46 -82.8 0 0 262.81 283.44
  L 284.75 283.58
  Q 285.91 283.59 284.95 284.21
  C 282.17 286.01 280.21 287.49 276.73 287.53
  Z
  M 284.69 261.93
  C 280.79 261.60 274.29 260.92 270.81 263.00
  C 267.14 265.19 263.83 266.33 264.37 271.56
  A 0.61 0.59 -1.0 0 0 264.94 272.09
  Q 269.53 272.35 274.12 272.27
  C 278.47 272.19 281.42 270.15 284.67 267.63
  A 1.70 1.07 -22.2 0 0 285.23 266.85
  L 286.02 263.63
  A 1.47 1.36 9.0 0 0 284.69 261.93
  Z"
/>
<path fill="#000000" d="
  M 333.75 262.02
  C 328.12 260.55 324.98 263.04 320.54 265.90
  A 2.71 2.67 -9.1 0 0 319.41 267.44
  L 314.35 286.37
  A 1.10 1.06 -83.1 0 1 313.34 287.19
  L 298.99 287.50
  A 0.53 0.52 -82.9 0 1 298.48 286.83
  L 303.68 267.79
  A 1.31 1.15 84.1 0 1 304.22 267.03
  L 318.04 258.47
  A 3.73 2.67 21.0 0 1 319.85 258.00
  Q 332.25 258.00 344.00 258.15
  Q 349.94 258.23 352.69 263.32
  Q 353.89 265.53 351.88 267.05
  Q 349.88 268.55 347.21 269.93
  C 343.92 271.63 340.06 271.00 336.42 271.00
  A 0.43 0.43 5.5 0 1 336.00 270.49
  C 336.61 267.29 338.45 263.24 333.75 262.02
  Z"
/>
</svg>
