<?xml version="1.0" encoding="UTF-8" standalone="no"?>
<!DOCTYPE svg PUBLIC "-//W3C//DTD SVG 1.1//EN" "http://www.w3.org/Graphics/SVG/1.1/DTD/svg11.dtd">
<svg xmlns="http://www.w3.org/2000/svg" version="1.1" viewBox="0 0 600 300">
<g stroke-width="2.00" fill="none" stroke-linecap="butt">
<path stroke="#babf14" stroke-opacity="0.984" vector-effect="non-scaling-stroke" d="
  M 339.00 105.71
  L 346.00 109.71"
/>
<path stroke="#fc0e19" vector-effect="non-scaling-stroke" d="
  M 451.46 179.00
  L 451.48 176.34
  Q 451.48 175.76 451.31 176.32
  Q 450.83 177.82 451.04 179.00"
/>
</g>
<path fill="#0a12ff" d="
  M 292.60 76.16
  C 291.02 56.95 278.05 44.54 258.79 43.43
  A 0.82 0.82 3.2 0 1 258.02 42.57
  C 258.86 21.57 279.09 5.67 299.77 11.27
  C 336.11 21.10 331.42 74.35 293.38 76.84
  A 0.74 0.73 85.7 0 1 292.60 76.16
  Z"
/>
<path fill="#fb0f19" d="
  M 325.06 77.21
  C 325.89 53.91 349.47 38.52 371.18 48.45
  C 391.70 57.84 395.83 84.97 380.66 100.80
  Q 372.66 109.15 359.54 110.84
  A 0.84 0.83 84.2 0 1 358.60 110.06
  C 357.41 91.46 344.07 78.11 325.58 77.75
  A 0.53 0.52 1.6 0 1 325.06 77.21
  Z"
/>
<ellipse fill="#2cd324" cx="0.00" cy="0.00" transform="translate(246.59,85.58) rotate(-0.1)" rx="35.32" ry="17.36"/>
<path fill="#f8fa1a" d="
  M 339.00 105.71
  L 346.00 109.71
  C 355.28 117.03 352.81 126.56 342.91 131.62
  Q 325.88 140.33 306.75 138.25
  Q 306.44 138.22 306.05 137.90
  A 1.91 1.23 57.2 0 0 305.19 137.51
  C 296.83 136.58 285.38 133.19 279.99 126.18
  C 272.55 116.50 282.91 108.36 291.07 105.35
  Q 315.12 96.47 339.00 105.71
  Z"
/>
<path fill="#79830d" fill-opacity="0.969" d="
  M 346.00 109.71
  L 339.00 105.71
  Q 343.63 105.71 346.00 109.71
  Z"
/>
<path fill="#fc0c18" d="
  M 36.67 236.50
  C 41.30 236.67 45.74 237.69 46.89 231.79
  C 47.68 227.73 50.66 217.36 48.55 213.47
  Q 36.96 192.00 33.31 184.69
  C 30.40 178.84 33.10 168.19 34.86 159.70
  Q 36.02 154.10 37.90 151.79
  C 42.57 146.05 55.58 148.04 62.24 148.22
  C 70.53 148.45 72.32 153.80 71.14 161.07
  Q 69.45 171.46 67.30 182.53
  A 0.89 0.89 -84.5 0 1 66.43 183.25
  L 56.19 183.25
  A 0.52 0.52 4.7 0 1 55.68 182.65
  Q 57.38 172.90 59.14 163.58
  C 60.20 157.99 54.55 159.18 51.22 159.23
  C 46.45 159.31 46.42 161.02 45.56 164.86
  C 43.07 175.89 42.52 178.80 47.61 187.46
  C 54.47 199.12 62.61 210.05 60.66 219.60
  C 59.43 225.63 58.45 231.72 57.28 237.75
  C 54.81 250.42 40.93 248.10 30.17 247.64
  C 21.91 247.28 20.35 241.41 21.50 234.42
  Q 23.31 223.48 25.21 212.75
  A 1.16 1.08 -84.2 0 1 26.31 211.79
  L 36.25 211.96
  A 0.46 0.44 -85.5 0 1 36.68 212.49
  Q 35.22 222.29 33.20 231.99
  C 32.62 234.74 33.77 236.39 36.67 236.50
  Z"
/>
<path fill="#fc0c18" d="
  M 89.09 235.28
  A 4.36 4.31 -17.2 0 0 90.32 232.98
  L 105.53 148.85
  A 1.04 1.03 5.0 0 1 106.55 148.00
  L 116.66 148.00
  A 0.72 0.72 -85.0 0 1 117.37 148.85
  Q 110.02 189.33 102.72 229.23
  C 100.73 240.08 100.54 247.23 88.56 247.67
  C 80.71 247.97 62.17 250.65 64.75 236.25
  Q 72.59 192.53 80.47 148.81
  A 0.67 0.60 -84.3 0 1 81.07 148.26
  L 91.17 148.07
  A 0.81 0.76 -85.0 0 1 91.92 149.02
  Q 84.47 191.37 77.16 232.73
  C 76.16 238.40 87.17 237.14 89.09 235.28
  Z"
/>
<path fill="#fc0c18" d="
  M 149.25 148.00
  C 157.46 148.03 160.84 152.48 159.41 160.37
  Q 156.44 176.81 153.27 193.21
  C 150.75 206.24 137.24 203.00 127.62 203.00
  A 0.71 0.71 4.8 0 0 126.92 203.59
  L 119.03 246.95
  A 0.66 0.60 -84.7 0 1 118.44 247.49
  L 107.96 247.70
  A 0.92 0.88 -85.1 0 1 107.09 246.62
  L 124.85 148.71
  A 0.80 0.80 -85.1 0 1 125.62 148.06
  Q 137.28 147.95 149.25 148.00
  Z
  M 144.71 159.36
  L 135.90 159.28
  A 1.32 1.26 -84.3 0 0 134.64 160.36
  L 128.93 191.01
  A 0.58 0.58 -83.7 0 0 129.48 191.70
  C 133.76 191.82 141.58 193.67 142.75 187.75
  Q 145.19 175.39 147.50 162.98
  Q 148.17 159.39 144.71 159.36
  Z"
/>
<path fill="#fc0c18" d="
  M 164.32 236.45
  L 177.94 236.50
  A 0.42 0.42 -84.8 0 1 178.35 237.00
  L 176.56 246.89
  A 1.05 1.02 -84.6 0 1 175.55 247.75
  L 150.25 247.75
  A 0.74 0.74 5.2 0 1 149.52 246.88
  L 167.35 148.69
  A 0.63 0.61 -85.4 0 1 167.94 148.17
  L 193.73 148.01
  A 0.56 0.54 -85.6 0 1 194.27 148.66
  L 192.52 158.70
  A 0.60 0.58 4.5 0 1 191.93 159.19
  L 177.98 159.25
  A 0.55 0.55 5.0 0 0 177.44 159.70
  L 171.90 190.20
  A 0.43 0.42 5.8 0 0 172.31 190.70
  L 186.15 190.75
  A 0.45 0.42 5.6 0 1 186.60 191.26
  L 184.46 201.34
  A 0.67 0.59 5.3 0 1 183.82 201.81
  L 170.33 201.75
  A 0.59 0.59 5.3 0 0 169.75 202.23
  L 163.90 235.94
  A 0.44 0.43 5.6 0 0 164.32 236.45
  Z"
/>
<path fill="#fc0c18" d="
  M 224.03 198.78
  Q 228.60 202.25 227.72 207.49
  Q 224.41 227.20 220.65 246.83
  A 0.62 0.58 -84.7 0 1 220.07 247.34
  L 209.14 247.48
  A 0.70 0.68 -85.1 0 1 208.47 246.66
  Q 211.78 228.48 215.17 210.48
  Q 215.63 208.04 215.47 206.02
  Q 215.29 203.75 213.02 203.75
  L 204.13 203.75
  A 1.17 1.17 -85.0 0 0 202.98 204.72
  L 195.45 247.00
  A 0.83 0.81 -84.9 0 1 194.65 247.69
  L 184.15 247.74
  A 0.82 0.80 -85.2 0 1 183.36 246.78
  L 200.90 148.91
  A 1.11 1.10 5.0 0 1 201.99 148.00
  Q 213.87 148.00 226.00 148.00
  C 233.87 148.00 237.49 152.43 236.23 159.80
  Q 233.60 175.17 230.58 190.47
  Q 229.62 195.30 224.10 198.08
  A 0.42 0.41 -39.6 0 0 224.03 198.78
  Z
  M 220.59 159.33
  L 211.68 159.39
  A 0.65 0.59 -85.3 0 0 211.10 159.93
  L 205.43 191.15
  A 0.52 0.51 5.1 0 0 205.94 191.75
  C 211.64 191.75 217.93 194.03 219.30 186.44
  Q 221.36 174.94 223.55 163.24
  Q 224.28 159.30 220.59 159.33
  Z"
/>
<path fill="#fc0c18" d="
  M 280.42 220.20
  Q 281.20 216.60 281.50 211.50
  Q 281.91 204.51 283.87 192.18
  Q 287.32 170.40 291.10 149.17
  A 1.39 1.29 -84.0 0 1 292.41 148.03
  L 302.76 148.21
  A 0.45 0.42 -83.7 0 1 303.16 148.74
  L 285.28 246.95
  A 0.66 0.66 -87.6 0 1 284.70 247.49
  Q 279.21 248.10 273.99 247.59
  A 1.02 1.01 90.0 0 1 273.08 246.67
  C 271.00 223.30 268.56 199.58 268.25 176.75
  Q 268.24 176.03 268.04 175.51
  Q 267.82 174.94 267.76 175.56
  C 266.89 184.78 266.12 193.99 264.68 203.09
  Q 261.28 224.51 257.25 246.90
  A 1.02 1.02 -84.9 0 1 256.25 247.74
  L 245.66 247.69
  A 0.57 0.56 -84.8 0 1 245.11 247.02
  L 262.90 148.89
  A 1.04 1.00 -84.2 0 1 263.90 148.04
  L 274.56 148.16
  A 0.59 0.56 86.6 0 1 275.12 148.68
  Q 279.12 184.33 280.30 220.19
  Q 280.31 220.70 280.42 220.20
  Z"
/>
<path fill="#fc0c18" d="
  M 312.09 148.88
  A 1.05 1.04 -84.8 0 1 313.13 148.01
  L 323.67 148.06
  A 0.46 0.46 5.2 0 1 324.12 148.60
  L 306.34 246.87
  A 1.06 1.03 -84.4 0 1 305.31 247.74
  L 294.96 247.69
  A 0.68 0.66 -84.9 0 1 294.31 246.89
  L 312.09 148.88
  Z"
/>
<path fill="#fc0c18" d="
  M 350.88 221.70
  C 351.69 215.74 351.87 209.15 352.58 203.78
  Q 356.18 176.60 361.38 149.04
  A 1.20 1.11 -83.6 0 1 362.51 148.06
  L 372.94 148.26
  A 0.47 0.43 -83.8 0 1 373.35 148.81
  L 355.53 246.95
  A 0.67 0.66 2.3 0 1 354.94 247.49
  C 351.78 247.82 348.70 247.71 345.54 247.88
  C 342.29 248.05 343.29 244.66 343.11 242.91
  Q 339.72 210.19 338.22 177.93
  Q 338.13 176.12 337.94 177.92
  Q 334.24 212.69 327.29 246.95
  A 0.68 0.67 -87.0 0 1 326.70 247.49
  Q 321.21 248.10 315.82 247.57
  A 0.50 0.50 7.8 0 1 315.37 246.98
  L 333.18 148.89
  A 1.07 1.05 -84.5 0 1 334.23 148.01
  L 344.69 148.05
  A 0.57 0.55 87.1 0 1 345.24 148.56
  Q 349.25 185.03 350.79 221.68
  Q 350.81 222.19 350.88 221.70
  Z"
/>
<path fill="#fc0c18" d="
  M 383.68 159.29
  L 376.73 159.28
  A 0.81 0.79 5.3 0 1 375.93 158.34
  L 377.84 148.69
  A 0.64 0.62 -84.8 0 1 378.44 148.17
  L 405.95 148.01
  A 0.66 0.64 5.7 0 1 406.60 148.78
  L 404.68 158.58
  A 0.65 0.63 -84.9 0 1 404.07 159.11
  L 397.22 159.22
  A 0.95 0.86 4.0 0 0 396.31 159.94
  L 380.63 246.89
  A 0.98 0.96 -85.3 0 1 379.69 247.70
  L 369.27 247.75
  A 0.89 0.88 -84.8 0 1 368.41 246.70
  L 384.10 159.81
  A 0.44 0.43 -84.9 0 0 383.68 159.29
  Z"
/>
<path fill="#fc0c18" d="
  M 408.56 236.45
  L 422.06 236.50
  A 0.64 0.63 -85.0 0 1 422.68 237.25
  L 420.89 246.94
  A 0.92 0.88 -84.5 0 1 420.02 247.69
  L 394.19 247.56
  A 0.44 0.43 -84.9 0 1 393.77 247.04
  L 411.53 148.72
  A 0.88 0.87 -84.9 0 1 412.39 148.00
  L 437.95 148.00
  A 0.75 0.73 -85.0 0 1 438.67 148.88
  L 436.97 158.70
  A 0.66 0.65 -85.3 0 1 436.33 159.25
  L 422.30 159.31
  A 0.60 0.59 -84.7 0 0 421.72 159.80
  L 416.41 190.27
  A 0.36 0.36 -85.2 0 0 416.76 190.69
  L 430.44 190.75
  A 0.49 0.48 4.9 0 1 430.93 191.31
  L 429.16 201.08
  A 0.62 0.62 4.5 0 1 428.56 201.59
  L 415.34 201.73
  A 1.40 1.36 4.7 0 0 413.98 202.85
  L 408.15 235.94
  A 0.43 0.43 -84.3 0 0 408.56 236.45
  Z"
/>
<path fill="#fc0c18" d="
  M 451.46 179.00
  L 451.48 176.34
  Q 451.48 175.76 451.31 176.32
  Q 450.83 177.82 451.04 179.00
  C 449.15 201.67 444.96 224.24 440.84 246.86
  A 1.08 1.08 -84.9 0 1 439.78 247.75
  L 429.52 247.75
  A 0.77 0.77 5.3 0 1 428.76 246.84
  L 446.54 148.50
  A 0.62 0.62 5.7 0 1 447.15 148.00
  L 458.08 148.00
  A 0.63 0.63 -3.0 0 1 458.71 148.56
  C 461.01 171.73 463.78 195.41 463.81 218.55
  Q 463.81 219.14 464.15 218.74
  Q 464.28 218.58 464.31 218.31
  Q 468.10 183.57 474.89 148.51
  A 0.63 0.63 5.5 0 1 475.51 148.00
  L 485.91 148.00
  A 0.81 0.81 5.3 0 1 486.71 148.96
  L 469.03 246.94
  A 0.67 0.59 -84.2 0 1 468.44 247.49
  L 457.36 247.53
  A 0.61 0.56 87.2 0 1 456.80 246.97
  Q 453.44 212.80 451.46 179.00
  Z"
/>
<path fill="#fc0c18" d="
  M 495.64 148.83
  A 1.02 1.01 5.1 0 1 496.64 148.00
  Q 508.02 148.00 519.50 148.00
  Q 524.76 148.00 527.24 149.39
  C 533.07 152.67 531.45 157.98 530.31 164.34
  Q 523.83 200.58 517.31 236.81
  C 516.05 243.81 512.70 247.41 505.55 247.59
  Q 491.84 247.94 478.37 247.69
  A 0.57 0.57 -84.4 0 1 477.82 247.02
  L 495.64 148.83
  Z
  M 505.55 159.82
  L 491.65 235.96
  A 0.42 0.41 5.8 0 0 492.06 236.45
  C 497.41 236.60 505.26 238.78 506.58 231.53
  Q 512.85 197.27 519.03 162.84
  Q 519.66 159.30 516.13 159.29
  L 506.23 159.25
  A 0.70 0.69 -84.4 0 0 505.55 159.82
  Z"
/>
<path fill="#fc0c18" d="
  M 561.78 238.51
  C 559.58 250.54 543.16 247.97 535.16 247.66
  C 526.05 247.30 524.73 241.08 526.08 233.48
  Q 532.48 197.30 538.99 161.14
  C 540.40 153.26 542.51 148.43 551.01 148.20
  C 560.65 147.94 578.54 144.07 575.64 160.74
  Q 568.89 199.66 561.78 238.51
  Z
  M 550.40 163.24
  Q 543.95 197.44 538.01 231.73
  C 537.56 234.37 537.74 236.58 541.00 236.54
  C 546.07 236.46 550.15 238.10 551.36 231.56
  Q 557.57 197.78 563.50 163.95
  C 563.93 161.46 563.84 159.31 560.75 159.28
  C 556.72 159.24 551.43 157.74 550.40 163.24
  Z"
/>
<path fill="#fb0f19" d="
  M 451.46 179.00
  L 451.04 179.00
  Q 450.83 177.82 451.31 176.32
  Q 451.48 175.76 451.48 176.34
  L 451.46 179.00
  Z"
/>
<path fill="#df101e" fill-opacity="0.984" d="
  M 570.2772 247.5385
  A 6.82 6.53 91.2 0 1 563.8914 240.5832
  A 6.82 6.53 91.2 0 1 570.5628 233.9015
  A 6.82 6.53 91.2 0 1 576.9486 240.8568
  A 6.82 6.53 91.2 0 1 570.2772 247.5385
  Z
  M 576.07 240.71
  A 5.64 5.64 0.0 0 0 570.43 235.07
  A 5.64 5.64 0.0 0 0 564.79 240.71
  A 5.64 5.64 0.0 0 0 570.43 246.35
  A 5.64 5.64 0.0 0 0 576.07 240.71
  Z"
/>
<path fill="#df101e" fill-opacity="0.984" d="
  M 568.02 238.17
  Q 568.53 235.93 570.76 236.45
  Q 574.15 237.22 572.75 239.82
  A 0.96 0.93 -45.3 0 0 572.74 240.69
  C 573.98 243.05 572.22 246.08 572.26 243.16
  Q 572.31 240.18 569.59 240.98
  A 1.03 1.03 -23.3 0 0 568.99 242.49
  Q 569.73 243.74 568.78 244.26
  A 0.44 0.40 70.2 0 1 568.19 243.95
  Q 567.44 240.75 568.02 238.17
  Z
  M 569.19 238.19
  Q 567.88 240.42 570.25 240.25
  C 574.46 239.94 570.77 235.48 569.19 238.19
  Z"
/>
<path fill="#fc0c18" d="
  M 576.99 295.43
  A 0.57 0.57 0.0 0 1 576.42 296.00
  L 22.58 296.00
  A 0.57 0.57 0.0 0 1 22.01 295.43
  L 22.01 257.67
  A 0.57 0.57 0.0 0 1 22.58 257.10
  L 576.42 257.10
  A 0.57 0.57 0.0 0 1 576.99 257.67
  L 576.99 295.43
  Z
  M 419.93 283.09
  C 418.90 286.09 413.81 287.04 415.46 281.26
  A 1.05 1.04 18.8 0 0 414.83 279.99
  Q 411.25 278.61 410.85 282.79
  C 409.90 292.84 422.66 289.44 424.31 281.51
  C 425.15 277.46 421.95 275.26 419.43 272.79
  C 416.13 269.56 422.64 263.93 423.01 271.05
  A 0.65 0.64 -86.1 0 0 423.54 271.66
  Q 426.74 272.28 426.99 270.03
  C 427.83 262.33 418.72 262.86 415.75 267.47
  C 409.86 276.60 421.80 277.59 419.93 283.09
  Z
  M 477.81 268.54
  L 477.90 271.20
  A 0.65 0.49 -86.4 0 0 478.30 271.80
  Q 483.26 272.77 481.72 266.83
  Q 481.30 265.21 479.74 264.65
  C 474.08 262.60 467.57 268.09 469.67 274.00
  C 470.71 276.94 474.63 278.36 475.17 281.20
  C 475.79 284.50 470.89 287.43 470.30 284.05
  C 469.99 282.31 472.31 278.67 467.73 280.09
  A 1.28 1.27 -83.8 0 0 466.99 280.69
  C 462.18 289.14 473.43 291.59 477.90 285.16
  Q 481.85 279.46 475.32 273.60
  Q 474.31 272.69 473.78 271.45
  Q 472.10 267.53 477.19 268.01
  A 0.68 0.54 2.0 0 1 477.81 268.54
  Z
  M 47.07 264.70
  L 37.95 264.70
  A 0.70 0.63 7.1 0 0 37.29 265.16
  L 31.26 287.96
  A 0.44 0.43 7.1 0 0 31.69 288.50
  L 40.25 288.50
  Q 41.20 288.50 42.50 286.50
  C 44.21 283.86 38.65 285.02 36.87 284.98
  A 0.88 0.86 -81.1 0 1 36.07 283.86
  L 37.60 278.33
  A 1.13 1.08 -81.9 0 1 38.65 277.50
  L 43.50 277.50
  A 0.99 0.97 17.3 0 0 44.30 277.09
  C 48.72 270.69 36.66 277.56 39.10 271.93
  Q 39.67 270.61 40.02 268.75
  A 0.61 0.61 5.1 0 1 40.62 268.25
  L 46.51 268.25
  A 1.08 0.95 16.4 0 0 47.33 267.87
  Q 48.31 266.61 47.77 265.14
  A 0.77 0.68 -9.3 0 0 47.07 264.70
  Z
  M 67.34 272.56
  L 68.53 287.79
  A 0.62 0.60 7.4 0 0 68.95 288.32
  Q 70.70 288.88 72.34 288.26
  A 0.99 0.95 88.0 0 0 72.95 287.58
  L 78.70 265.42
  A 0.71 0.70 16.5 0 0 78.24 264.58
  Q 76.90 264.13 75.49 264.82
  A 1.27 1.06 89.0 0 0 74.91 265.54
  Q 72.60 272.88 71.57 280.51
  A 1.42 0.87 84.3 0 1 71.16 281.36
  Q 70.51 281.88 70.54 280.25
  Q 70.70 272.93 69.64 265.69
  A 1.11 0.98 -81.7 0 0 69.14 264.92
  C 66.36 263.35 65.28 265.41 64.70 267.82
  Q 62.30 277.63 59.51 287.50
  A 0.60 0.59 -75.5 0 0 59.94 288.24
  Q 61.99 288.74 63.03 288.21
  A 1.26 0.85 -88.4 0 0 63.57 287.45
  Q 65.51 280.40 66.72 273.20
  C 66.79 272.76 66.90 272.83 67.09 272.50
  Q 67.31 272.13 67.34 272.56
  Z
  M 96.08 268.80
  L 91.24 287.53
  A 0.67 0.65 -77.2 0 0 91.74 288.35
  Q 93.65 288.72 94.76 288.19
  A 1.19 0.96 88.6 0 0 95.32 287.46
  L 99.94 269.57
  A 1.84 1.82 -76.6 0 1 102.10 268.22
  Q 105.58 268.98 105.56 265.20
  A 0.65 0.65 -1.7 0 0 104.88 264.56
  Q 100.44 264.82 95.94 264.77
  C 93.43 264.74 92.46 264.31 91.98 267.05
  A 1.06 1.02 5.3 0 0 93.02 268.25
  L 95.69 268.28
  A 0.42 0.41 -82.2 0 1 96.08 268.80
  Z
  M 120.12 279.26
  Q 120.75 276.88 123.25 277.46
  Q 127.43 278.43 127.80 275.37
  A 1.46 1.29 0.7 0 0 126.23 273.95
  L 121.99 274.23
  A 0.45 0.41 -83.7 0 1 121.58 273.66
  L 122.81 268.92
  A 0.75 0.73 -85.8 0 1 123.43 268.37
  C 125.85 268.08 130.41 269.19 130.56 266.81
  Q 130.59 266.39 130.84 265.89
  Q 131.11 265.32 130.83 264.86
  A 1.07 0.59 -7.8 0 0 130.00 264.54
  L 120.67 264.66
  A 0.85 0.78 6.5 0 0 119.86 265.25
  L 113.93 287.90
  A 0.44 0.41 -82.4 0 0 114.32 288.45
  L 124.25 288.29
  A 0.99 0.91 -72.3 0 0 125.04 287.84
  Q 127.26 284.42 121.03 284.87
  Q 118.57 285.05 119.19 282.75
  L 120.12 279.26
  Z
  M 175.42 268.13
  A 0.81 0.68 5.2 0 1 176.26 268.98
  L 171.37 287.52
  A 0.63 0.61 -69.9 0 0 171.69 288.24
  C 174.38 289.60 175.26 287.95 175.85 285.60
  Q 177.87 277.54 179.83 269.87
  Q 180.40 267.61 182.65 268.22
  Q 185.01 268.86 185.48 265.63
  A 1.01 0.97 3.3 0 0 184.45 264.52
  L 173.74 264.76
  A 1.44 0.91 12.7 0 0 172.87 265.07
  Q 172.00 265.97 171.92 267.63
  A 0.53 0.48 -88.9 0 0 172.41 268.19
  L 175.42 268.13
  Z
  M 203.75 283.24
  L 203.22 287.73
  A 0.54 0.50 -85.9 0 0 203.70 288.33
  L 206.97 288.35
  A 0.69 0.48 -88.2 0 0 207.46 287.69
  L 208.72 265.75
  A 1.02 0.85 -72.8 0 0 208.38 264.93
  Q 207.29 264.12 205.95 264.57
  Q 205.51 264.71 205.00 264.67
  Q 203.50 264.56 202.81 266.06
  Q 197.82 276.97 192.44 287.69
  A 0.45 0.44 -67.4 0 0 192.69 288.31
  C 199.90 290.82 195.29 280.51 203.22 282.42
  A 0.76 0.70 -80.5 0 1 203.75 283.24
  Z
  M 233.22 264.74
  Q 231.59 264.17 230.25 264.82
  A 1.18 0.97 88.3 0 0 229.69 265.54
  L 223.98 287.32
  A 0.74 0.73 -74.9 0 0 224.49 288.22
  C 226.66 288.82 227.59 289.06 228.22 286.56
  Q 230.89 276.01 233.71 265.66
  A 0.78 0.77 17.3 0 0 233.22 264.74
  Z
  M 253.50 272.03
  Q 253.61 272.02 253.71 272.07
  A 0.70 0.37 -82.8 0 1 253.93 272.65
  Q 253.88 280.12 254.93 287.51
  A 0.96 0.90 -82.3 0 0 255.45 288.24
  C 257.79 289.39 259.19 288.44 259.80 285.99
  Q 262.37 275.72 265.12 265.49
  A 0.62 0.56 -71.4 0 0 264.81 264.78
  Q 263.28 264.10 261.74 264.83
  A 1.10 1.06 84.3 0 0 261.17 265.55
  L 257.65 280.83
  Q 257.45 281.70 257.12 281.22
  C 256.84 280.82 256.44 268.61 256.01 265.56
  A 0.88 0.84 -83.9 0 0 255.48 264.87
  Q 251.73 263.43 251.06 267.56
  Q 250.59 270.48 246.34 285.90
  C 245.66 288.36 245.21 288.90 248.83 288.33
  A 1.20 1.08 0.6 0 0 249.79 287.48
  L 253.28 272.26
  A 0.29 0.21 -81.9 0 1 253.50 272.03
  Z
  M 287.62 280.69
  L 288.93 265.11
  A 0.62 0.56 0.6 0 0 288.27 264.50
  L 283.59 264.75
  A 1.39 1.24 4.9 0 0 282.34 265.69
  L 276.69 287.74
  A 0.49 0.48 -77.8 0 0 277.07 288.34
  Q 278.89 288.66 279.97 288.36
  A 0.98 0.84 -87.6 0 0 280.58 287.71
  Q 283.19 278.60 285.03 269.31
  Q 285.25 268.20 285.62 268.43
  A 1.02 0.54 -78.3 0 1 285.88 269.31
  Q 284.65 281.27 284.50 287.00
  Q 284.44 289.15 286.24 288.40
  A 1.47 1.18 -83.5 0 0 286.91 287.74
  Q 291.43 278.68 295.36 269.33
  C 295.50 269.01 295.62 267.99 296.05 268.04
  A 0.55 0.42 -76.3 0 1 296.35 268.73
  Q 293.57 277.40 291.38 286.24
  C 290.75 288.78 290.56 288.91 294.04 288.26
  A 1.10 1.08 2.1 0 0 294.88 287.49
  Q 297.86 276.55 300.62 266.28
  Q 301.18 264.18 299.23 264.33
  C 296.55 264.53 294.85 263.82 293.56 266.81
  Q 290.58 273.74 287.75 280.72
  Q 287.58 281.14 287.62 280.69
  Z
  M 316.44 284.20
  L 318.06 278.00
  A 0.67 0.67 7.2 0 1 318.71 277.50
  C 321.39 277.50 325.93 278.88 325.33 274.50
  A 0.56 0.50 -4.6 0 0 324.76 274.07
  L 319.80 274.22
  A 0.44 0.43 5.5 0 1 319.35 273.69
  L 320.46 268.90
  A 0.94 0.82 5.3 0 1 321.36 268.25
  L 327.00 268.25
  A 0.92 0.89 15.0 0 0 327.78 267.82
  Q 328.39 266.78 328.48 265.68
  A 1.09 1.09 -0.9 0 0 327.26 264.50
  Q 322.62 265.06 318.54 264.57
  A 1.02 1.00 10.7 0 0 317.43 265.31
  L 311.62 287.77
  A 0.42 0.41 -82.2 0 0 312.01 288.29
  L 321.51 288.51
  A 0.99 0.95 -69.8 0 0 322.32 288.12
  Q 323.30 286.87 323.23 285.30
  A 0.55 0.44 -0.4 0 0 322.70 284.88
  L 316.81 284.78
  A 0.47 0.41 -81.2 0 1 316.44 284.20
  Z
  M 349.02 279.84
  Q 348.44 282.25 348.25 279.77
  L 347.13 265.43
  A 0.79 0.78 7.5 0 0 346.60 264.75
  Q 344.97 264.21 343.43 265.00
  A 1.23 1.06 86.7 0 0 342.87 265.73
  L 337.07 287.80
  A 0.48 0.48 13.1 0 0 337.44 288.39
  C 341.28 289.14 341.02 287.78 341.75 285.13
  C 342.10 283.86 344.56 272.09 344.64 272.07
  A 0.58 0.29 85.5 0 1 345.01 272.68
  Q 345.13 280.30 346.36 287.83
  A 0.69 0.56 84.7 0 0 346.93 288.42
  L 349.83 288.42
  A 0.79 0.58 -80.1 0 0 350.44 287.83
  L 356.36 265.59
  A 0.82 0.82 10.5 0 0 355.65 264.56
  Q 354.22 264.41 352.94 265.02
  A 1.09 1.01 85.3 0 0 352.37 265.74
  L 349.02 279.84
  Z
  M 374.32 268.80
  L 369.38 287.64
  A 0.51 0.50 -75.8 0 0 369.74 288.26
  Q 371.75 288.74 372.78 288.21
  A 1.28 0.91 -89.4 0 0 373.33 287.45
  L 378.16 269.18
  A 1.34 1.32 -78.0 0 1 379.65 268.19
  Q 384.10 268.93 383.59 265.24
  A 0.62 0.59 -2.7 0 0 383.00 264.73
  Q 378.97 264.59 374.95 264.72
  C 372.47 264.79 370.03 264.08 370.04 267.69
  A 0.53 0.52 0.0 0 0 370.56 268.20
  L 373.94 268.30
  A 0.40 0.40 7.9 0 1 374.32 268.80
  Z
  M 447.14 272.11
  Q 447.26 269.38 446.53 265.31
  A 0.74 0.56 83.5 0 0 445.95 264.70
  L 442.80 264.71
  A 0.52 0.44 85.5 0 0 442.38 265.30
  Q 443.14 270.49 444.02 275.65
  C 444.61 279.09 442.80 284.15 441.77 287.70
  A 0.48 0.48 -75.6 0 0 442.13 288.31
  Q 444.01 288.72 445.11 288.29
  A 1.09 0.89 -89.9 0 0 445.69 287.58
  C 446.83 283.26 447.56 279.44 450.03 275.60
  Q 453.36 270.44 456.94 265.43
  Q 457.67 264.41 456.47 264.51
  L 453.81 264.71
  A 1.30 0.92 -66.5 0 0 453.00 265.20
  Q 450.37 268.59 448.43 272.45
  Q 446.99 275.32 447.14 272.11
  Z
  M 499.33 268.79
  L 494.44 287.21
  A 0.84 0.82 -74.4 0 0 495.00 288.23
  C 497.17 288.82 498.09 289.05 498.72 286.57
  Q 501.01 277.66 503.43 268.79
  A 0.69 0.65 -82.1 0 1 504.05 268.29
  L 507.26 268.24
  A 1.03 0.87 13.8 0 0 508.05 267.85
  Q 508.92 266.58 508.76 265.05
  A 0.58 0.53 -3.3 0 0 508.18 264.58
  L 496.32 264.81
  A 0.71 0.56 3.2 0 0 495.65 265.28
  L 495.20 267.78
  A 0.83 0.67 -0.0 0 0 496.14 268.53
  L 498.94 268.24
  A 0.44 0.39 -83.9 0 1 499.33 268.79
  Z
  M 523.35 284.20
  L 524.68 278.80
  Q 525.20 276.68 527.53 277.43
  Q 532.41 279.00 532.06 274.74
  A 0.59 0.53 -1.0 0 0 531.50 274.25
  L 526.43 274.09
  A 0.46 0.44 6.9 0 1 525.99 273.56
  L 526.80 269.89
  Q 527.35 267.41 530.51 268.05
  Q 535.41 269.04 535.25 265.20
  A 0.78 0.72 -1.9 0 0 534.45 264.51
  L 525.59 264.72
  A 1.82 1.71 6.0 0 0 523.89 266.01
  L 518.32 287.41
  A 0.83 0.80 -82.3 0 0 519.09 288.45
  L 528.43 288.45
  A 0.97 0.82 12.5 0 0 529.23 288.03
  Q 529.71 287.17 529.81 285.44
  A 0.56 0.50 2.0 0 0 529.26 284.91
  L 523.80 284.79
  A 0.48 0.48 7.8 0 1 523.35 284.20
  Z
  M 556.88 280.69
  L 558.17 265.31
  A 0.52 0.46 -88.7 0 0 557.69 264.74
  L 552.96 264.94
  A 1.57 1.35 -82.9 0 0 551.67 266.11
  L 546.14 287.61
  A 0.52 0.52 0.0 0 0 546.51 288.24
  C 548.61 288.79 549.65 289.06 550.30 286.62
  Q 552.72 277.56 554.67 268.38
  C 555.07 266.48 555.43 268.44 555.39 269.01
  Q 554.69 278.23 553.86 287.44
  A 0.97 0.88 -69.9 0 0 554.20 288.27
  Q 555.73 289.44 556.50 287.75
  Q 560.19 279.65 563.81 271.52
  Q 567.05 264.23 564.62 272.16
  C 563.13 277.01 562.12 282.17 560.48 286.93
  Q 559.74 289.06 563.59 288.28
  A 0.92 0.89 0.9 0 0 564.28 287.63
  L 570.11 265.37
  A 0.73 0.68 5.4 0 0 569.35 264.52
  L 564.91 264.74
  A 1.43 1.23 8.6 0 0 563.71 265.49
  L 557.00 280.73
  Q 556.85 281.08 556.88 280.69
  Z
  M 154.64 275.94
  Q 158.91 272.42 158.07 267.21
  Q 157.73 265.04 155.77 265.00
  L 146.88 264.83
  A 1.24 1.12 -81.2 0 0 145.75 265.75
  L 140.09 287.35
  A 0.71 0.70 -76.7 0 0 140.62 288.22
  Q 142.54 288.61 143.49 288.37
  A 0.96 0.70 -86.0 0 0 144.05 287.70
  L 146.13 279.51
  A 1.60 1.57 3.7 0 1 147.48 278.34
  C 153.92 277.58 150.08 284.45 149.74 287.57
  A 0.66 0.65 -76.3 0 0 150.15 288.26
  Q 151.78 288.88 153.47 288.36
  A 0.78 0.70 83.6 0 0 153.96 287.68
  C 154.14 284.08 156.48 279.15 154.57 276.63
  A 0.51 0.50 51.8 0 1 154.64 275.94
  Z"
/>
<path fill="#fc0c18" d="
  M 204.57 269.27
  C 204.66 269.01 204.75 268.10 205.10 268.11
  A 0.50 0.37 -84.2 0 1 205.44 268.67
  Q 204.96 272.03 204.40 275.38
  C 203.99 277.82 205.19 279.04 201.52 278.99
  A 0.64 0.64 12.5 0 1 200.94 278.08
  Q 202.98 273.62 204.57 269.27
  Z"
/>
<path fill="#fc0c18" d="
  M 152.56 268.37
  A 1.81 1.81 12.5 0 1 153.85 270.39
  Q 153.17 274.64 148.84 274.77
  A 1.18 1.16 7.2 0 1 147.67 273.28
  L 148.92 269.03
  A 0.92 0.90 -89.8 0 1 149.53 268.41
  Q 151.12 267.95 152.56 268.37
  Z"
/>
</svg>
