<?xml version="1.0" encoding="UTF-8" standalone="no"?>
<!DOCTYPE svg PUBLIC "-//W3C//DTD SVG 1.1//EN" "http://www.w3.org/Graphics/SVG/1.1/DTD/svg11.dtd">
<svg xmlns="http://www.w3.org/2000/svg" version="1.1" viewBox="0 0 600 219">
<g stroke-width="2.00" fill="none" stroke-linecap="butt">
<path stroke="#ff8080" vector-effect="non-scaling-stroke" d="
  M 6.78 11.59
  L 6.75 28.09
  Q 6.75 29.27 7.28 30.37
  L 23.48 63.53
  A 0.84 0.83 76.9 0 0 24.23 64.00
  L 82.25 63.96"
/>
<path stroke="#be8080" vector-effect="non-scaling-stroke" d="
  M 82.25 63.96
  L 90.26 64.00
  A 0.48 0.48 -13.1 0 0 90.69 63.31
  L 63.29 7.39
  A 1.13 1.13 77.1 0 0 62.27 6.75
  L 7.38 6.75
  A 0.62 0.60 -0.5 0 0 6.76 7.36
  L 6.78 11.59"
/>
<path stroke="#be0000" vector-effect="non-scaling-stroke" d="
  M 82.25 63.96
  L 56.91 12.01
  A 0.80 0.80 76.9 0 0 56.19 11.56
  L 6.78 11.59"
/>
<path stroke="#ff8080" vector-effect="non-scaling-stroke" d="
  M 33.79 84.25
  L 46.65 110.47
  A 1.41 1.39 -12.8 0 0 47.91 111.25
  L 104.98 111.13"
/>
<path stroke="#be8080" vector-effect="non-scaling-stroke" d="
  M 104.98 111.13
  L 113.71 111.25
  A 0.25 0.23 77.4 0 0 113.92 110.90
  L 97.86 78.02
  A 0.94 0.94 76.7 0 0 97.02 77.50
  L 30.96 77.50
  A 0.44 0.43 75.9 0 0 30.58 78.14
  L 33.79 84.25"
/>
<path stroke="#be0000" vector-effect="non-scaling-stroke" d="
  M 104.98 111.13
  Q 99.24 97.57 92.30 84.63
  A 0.85 0.82 75.3 0 0 91.57 84.19
  L 33.79 84.25"
/>
<path stroke="#ff8080" vector-effect="non-scaling-stroke" d="
  M 64.29 146.57
  L 76.23 171.15
  A 1.18 1.17 -12.8 0 0 77.29 171.81
  L 134.75 171.71"
/>
<path stroke="#bf8080" vector-effect="non-scaling-stroke" d="
  M 134.75 171.71
  L 142.99 171.83
  A 0.49 0.49 -12.6 0 0 143.44 171.13
  L 127.58 138.65
  A 0.84 0.83 76.9 0 0 126.83 138.18
  L 60.85 138.07
  A 0.50 0.49 -13.4 0 0 60.40 138.79
  L 64.29 146.57"
/>
<path stroke="#bf0000" vector-effect="non-scaling-stroke" d="
  M 134.75 171.71
  L 134.79 170.50"
/>
<path stroke="#690001" vector-effect="non-scaling-stroke" d="
  M 134.79 170.50
  C 136.77 170.36 135.20 169.47 134.87 168.80
  Q 129.33 157.90 124.18 146.80
  A 1.86 1.85 79.0 0 0 122.60 145.73
  Q 110.51 145.13 98.00 145.40
  Q 93.72 145.50 97.50 146.21"
/>
<path stroke="#bf0000" vector-effect="non-scaling-stroke" d="
  M 97.50 146.21
  L 64.29 146.57"
/>
<path stroke="#a90001" vector-effect="non-scaling-stroke" d="
  M 134.79 170.50
  L 123.07 147.05
  A 1.45 1.44 76.6 0 0 121.78 146.25
  L 97.50 146.21"
/>
<path stroke="#ff8080" vector-effect="non-scaling-stroke" d="
  M 100.67 11.91
  L 125.42 63.53
  A 0.82 0.82 -12.5 0 0 126.16 64.00
  L 145.50 63.96"
/>
<path stroke="#be8080" vector-effect="non-scaling-stroke" d="
  M 145.50 63.96
  L 150.23 63.99
  A 0.53 0.52 90.0 0 0 150.75 63.46
  L 150.75 7.25
  A 0.50 0.50 0.0 0 0 150.25 6.75
  L 98.82 6.81
  A 0.37 0.33 -11.1 0 0 98.46 7.28
  L 100.67 11.91"
/>
<path stroke="#be0000" vector-effect="non-scaling-stroke" d="
  M 145.50 63.96
  L 145.69 12.06
  A 0.52 0.51 0.6 0 0 145.18 11.55
  Q 123.01 11.15 100.67 11.91"
/>
<path stroke="#ff8080" vector-effect="non-scaling-stroke" d="
  M 135.50 84.04
  Q 139.80 94.36 145.40 104.32"
/>
<path stroke="#be8080" vector-effect="non-scaling-stroke" d="
  M 145.40 104.32
  C 145.82 105.83 147.73 111.71 150.00 111.29
  A 0.90 0.89 -5.0 0 0 150.75 110.41
  L 150.69 78.06
  A 0.50 0.50 0.0 0 0 150.19 77.56
  L 132.61 77.50
  A 0.35 0.34 -13.3 0 0 132.29 78.00
  L 135.50 84.04"
/>
<path stroke="#be0000" vector-effect="non-scaling-stroke" d="
  M 145.40 104.32
  L 145.71 85.35
  A 1.14 1.07 1.3 0 0 144.60 84.26
  L 135.50 84.04"
/>
<path stroke="#80ff80" vector-effect="non-scaling-stroke" d="
  M 231.29 11.50
  C 229.69 17.06 228.53 22.77 226.86 28.30
  C 226.08 30.89 226.86 32.36 227.41 34.81
  Q 230.57 48.92 233.86 63.46
  A 0.69 0.67 83.6 0 0 234.52 64.00
  L 274.00 63.96"
/>
<path stroke="#80be80" vector-effect="non-scaling-stroke" d="
  M 274.00 63.96
  L 280.68 63.96
  A 0.42 0.42 83.2 0 0 281.08 63.45
  L 268.18 7.44
  A 0.66 0.62 82.9 0 0 267.57 6.93
  L 233.06 6.81
  A 0.69 0.64 7.5 0 0 232.39 7.28
  L 231.29 11.50"
/>
<path stroke="#00be00" vector-effect="non-scaling-stroke" d="
  M 274.00 63.96
  Q 268.77 37.84 262.37 11.98
  A 0.64 0.63 -6.9 0 0 261.75 11.50
  L 231.29 11.50"
/>
<path stroke="#80ff80" vector-effect="non-scaling-stroke" d="
  M 238.75 84.29
  L 244.62 110.74
  A 0.66 0.65 -6.0 0 0 245.26 111.25
  L 285.00 111.21"
/>
<path stroke="#80be80" vector-effect="non-scaling-stroke" d="
  M 285.00 111.21
  L 291.46 111.25
  A 0.42 0.41 83.3 0 0 291.86 110.74
  L 284.43 78.18
  A 0.65 0.63 83.1 0 0 283.81 77.68
  L 237.81 77.56
  A 0.46 0.41 -5.5 0 0 237.35 78.06
  L 238.75 84.29"
/>
<path stroke="#00be00" vector-effect="non-scaling-stroke" d="
  M 285.00 111.21
  L 279.19 84.75
  A 0.66 0.64 -6.0 0 0 278.55 84.25
  L 238.75 84.29"
/>
<path stroke="#80ff80" vector-effect="non-scaling-stroke" d="
  M 252.75 146.68
  L 258.25 171.25
  A 0.65 0.64 -6.1 0 0 258.88 171.75
  L 299.00 171.71"
/>
<path stroke="#80c080" vector-effect="non-scaling-stroke" d="
  M 299.00 171.71
  L 305.36 171.75
  A 0.45 0.45 83.8 0 0 305.80 171.20
  L 298.33 138.67
  A 0.56 0.55 -6.6 0 0 297.79 138.25
  L 251.26 138.25
  A 0.41 0.41 -6.7 0 0 250.86 138.75
  L 252.75 146.68"
/>
<path stroke="#00c000" vector-effect="non-scaling-stroke" d="
  M 299.00 171.71
  L 293.31 146.76
  A 0.68 0.65 -5.3 0 0 292.66 146.25
  Q 272.65 145.93 252.75 146.68"
/>
<path stroke="#80ff80" vector-effect="non-scaling-stroke" d="
  M 313.54 11.50
  C 312.03 16.85 308.11 27.62 309.27 32.86
  Q 312.66 48.21 316.13 63.31
  A 0.89 0.88 83.4 0 0 316.99 64.00
  L 356.50 63.96"
/>
<path stroke="#80be80" vector-effect="non-scaling-stroke" d="
  M 356.50 63.96
  L 362.99 63.99
  A 0.41 0.40 83.7 0 0 363.38 63.49
  L 350.37 7.38
  A 0.81 0.80 -6.2 0 0 349.58 6.75
  L 315.17 6.75
  A 0.65 0.63 -83.1 0 0 314.55 7.25
  L 313.54 11.50"
/>
<path stroke="#00be00" vector-effect="non-scaling-stroke" d="
  M 356.50 63.96
  L 344.63 12.00
  A 0.66 0.65 -6.7 0 0 343.99 11.50
  L 313.54 11.50"
/>
<path stroke="#80ff80" vector-effect="non-scaling-stroke" d="
  M 320.99 84.34
  L 326.88 110.57
  A 0.90 0.87 -6.0 0 0 327.75 111.25
  L 367.64 111.26"
/>
<path stroke="#80be80" vector-effect="non-scaling-stroke" d="
  M 367.64 111.26
  L 373.86 111.25
  A 0.41 0.40 83.2 0 0 374.25 110.75
  L 366.70 78.01
  A 0.66 0.66 83.3 0 0 366.06 77.50
  L 320.06 77.56
  A 0.45 0.41 -5.6 0 0 319.61 78.06
  L 320.99 84.34"
/>
<path stroke="#00be00" vector-effect="non-scaling-stroke" d="
  M 367.64 111.26
  L 361.58 84.82
  A 0.97 0.97 83.0 0 0 360.62 84.07
  L 320.99 84.34"
/>
<path stroke="#80ff80" vector-effect="non-scaling-stroke" d="
  M 335.04 146.50
  L 340.56 171.25
  A 0.65 0.64 -6.1 0 0 341.19 171.75
  L 381.10 171.70"
/>
<path stroke="#80c080" vector-effect="non-scaling-stroke" d="
  M 381.10 171.70
  L 387.69 171.51
  A 0.45 0.42 82.7 0 0 388.08 170.96
  L 380.72 138.96
  A 0.93 0.91 -6.2 0 0 379.82 138.25
  L 333.94 138.19
  A 0.47 0.45 -2.2 0 0 333.47 138.68
  Q 333.75 142.68 335.04 146.50"
/>
<path stroke="#00c000" vector-effect="non-scaling-stroke" d="
  M 381.10 171.70
  Q 379.00 159.13 375.46 146.92
  A 0.70 0.68 81.7 0 0 374.82 146.43
  Q 354.93 145.93 335.04 146.50"
/>
<path stroke="#fcfeff" stroke-opacity="0.976" vector-effect="non-scaling-stroke" d="
  M 425.75 215.71
  Q 425.75 108.73 425.75 1.75
  Q 425.75 0.82 425.29 0.75"
/>
<path stroke="#8080ff" vector-effect="non-scaling-stroke" d="
  M 432.04 11.50
  L 432.00 63.50
  A 0.50 0.50 0.0 0 0 432.50 64.00
  L 475.00 63.96"
/>
<path stroke="#8080be" vector-effect="non-scaling-stroke" d="
  M 475.00 63.96
  L 479.36 63.99
  A 0.65 0.63 -89.6 0 0 480.00 63.34
  L 479.94 7.31
  A 0.51 0.50 0.0 0 0 479.43 6.81
  L 432.56 6.75
  A 0.56 0.55 -0.0 0 0 432.00 7.30
  L 432.04 11.50"
/>
<path stroke="#0000be" vector-effect="non-scaling-stroke" d="
  M 475.00 63.96
  L 474.94 12.07
  A 0.51 0.50 90.0 0 0 474.44 11.56
  L 432.04 11.50"
/>
<path stroke="#8080ff" vector-effect="non-scaling-stroke" d="
  M 432.04 84.00
  L 432.00 110.58
  A 0.67 0.67 -0.2 0 0 432.67 111.25
  L 474.62 111.23"
/>
<path stroke="#8080be" vector-effect="non-scaling-stroke" d="
  M 474.62 111.23
  L 479.32 111.12
  A 0.56 0.52 89.5 0 0 479.83 110.56
  L 479.83 78.19
  A 0.51 0.51 0.0 0 0 479.32 77.68
  L 432.67 77.51
  A 0.66 0.66 0.4 0 0 432.00 78.17
  L 432.04 84.00"
/>
<path stroke="#0000be" vector-effect="non-scaling-stroke" d="
  M 474.62 111.23
  L 474.71 85.03
  A 0.82 0.79 0.0 0 0 473.89 84.24
  L 432.04 84.00"
/>
<path stroke="#8080ff" vector-effect="non-scaling-stroke" d="
  M 432.04 146.50
  L 432.00 171.20
  A 0.55 0.55 0.0 0 0 432.55 171.75
  L 475.00 171.71"
/>
<path stroke="#8080be" vector-effect="non-scaling-stroke" d="
  M 475.00 171.71
  L 479.49 171.74
  A 0.52 0.50 -89.5 0 0 480.00 171.22
  L 480.00 138.83
  A 0.58 0.58 89.9 0 0 479.42 138.25
  L 432.75 138.25
  A 0.55 0.51 0.5 0 0 432.20 138.75
  L 432.04 146.50"
/>
<path stroke="#0000be" vector-effect="non-scaling-stroke" d="
  M 475.00 171.71
  Q 474.39 159.35 474.98 147.47
  A 1.15 1.14 -88.6 0 0 473.84 146.26
  L 432.04 146.50"
/>
<path stroke="#8080ff" vector-effect="non-scaling-stroke" d="
  M 507.54 11.50
  L 507.50 63.50
  A 0.50 0.50 0.0 0 0 508.00 64.00
  L 527.25 63.96"
/>
<path stroke="#8080be" vector-effect="non-scaling-stroke" d="
  M 527.25 63.96
  L 531.93 63.96
  A 1.21 0.97 -65.1 0 0 532.75 63.55
  L 534.29 61.75"
/>
<path stroke="#8080a7" vector-effect="non-scaling-stroke" d="
  M 534.29 61.75
  L 573.65 12.86"
/>
<path stroke="#8080be" vector-effect="non-scaling-stroke" d="
  M 573.65 12.86
  L 578.71 7.16
  Q 579.07 6.75 578.50 6.75
  L 508.03 6.75
  A 0.52 0.50 -0.5 0 0 507.51 7.26
  L 507.54 11.50"
/>
<path stroke="#010065" vector-effect="non-scaling-stroke" d="
  M 573.65 12.86
  Q 563.44 23.16 554.71 34.73
  Q 550.33 40.53 547.91 43.44
  Q 544.36 47.68 540.76 51.89
  C 539.39 53.50 537.62 56.32 535.57 58.17
  C 534.35 59.26 534.13 60.21 534.29 61.75"
/>
<path stroke="#0000be" vector-effect="non-scaling-stroke" d="
  M 527.25 63.96
  Q 527.66 62.31 528.96 61.25"
/>
<path stroke="#010065" vector-effect="non-scaling-stroke" d="
  M 528.96 61.25
  Q 529.13 61.65 529.44 61.73
  A 0.99 0.57 -57.6 0 0 530.25 61.30
  Q 549.52 37.20 569.19 13.44
  Q 569.86 12.63 568.75 12.46"
/>
<path stroke="#0000be" vector-effect="non-scaling-stroke" d="
  M 568.75 12.46
  Q 569.10 12.04 568.99 11.70
  A 0.90 0.53 -5.4 0 0 568.18 11.32
  L 507.54 11.50"
/>
<path stroke="#0100a7" vector-effect="non-scaling-stroke" d="
  M 568.75 12.46
  L 528.96 61.25"
/>
<path stroke="#8080be" vector-effect="non-scaling-stroke" d="
  M 507.43 93.39
  Q 507.42 94.87 508.37 93.71
  L 520.88 78.38
  Q 521.74 77.32 520.38 77.34
  L 508.07 77.57
  A 0.51 0.49 0.0 0 0 507.56 78.06
  L 507.43 93.39"
/>
<path stroke="#8080ff" vector-effect="non-scaling-stroke" d="
  M 507.81 129.04
  Q 507.13 150.44 507.67 171.32
  A 0.51 0.51 88.3 0 0 508.19 171.81
  L 540.22 171.58"
/>
<path stroke="#8080bf" vector-effect="non-scaling-stroke" d="
  M 540.22 171.58
  L 550.05 171.93
  Q 551.24 171.97 550.51 171.02
  L 508.05 115.40
  Q 507.75 115.00 507.71 115.50
  Q 507.10 122.50 507.81 129.04"
/>
<path stroke="#0000bf" vector-effect="non-scaling-stroke" d="
  M 540.22 171.58
  Q 524.55 149.87 507.81 129.04"
/>
<path stroke="#be8080" vector-effect="non-scaling-stroke" d="
  M 7.42 100.59
  Q 6.80 99.35 6.79 100.73
  L 6.76 110.58
  A 0.67 0.66 0.4 0 0 7.43 111.25
  L 12.11 111.25
  A 0.39 0.38 76.6 0 0 12.45 110.69
  L 7.42 100.59"
/>
<path stroke="#ff8080" vector-effect="non-scaling-stroke" d="
  M 7.04 146.50
  Q 6.40 158.78 6.92 171.07
  A 0.53 0.51 88.8 0 0 7.43 171.58
  L 32.96 171.62"
/>
<path stroke="#bf8080" vector-effect="non-scaling-stroke" d="
  M 32.96 171.62
  L 41.13 171.81
  A 0.40 0.39 77.6 0 0 41.49 171.24
  L 25.90 138.79
  A 1.31 1.26 -12.8 0 0 24.72 138.08
  L 7.71 138.23
  A 0.88 0.78 -1.0 0 0 6.84 139.03
  L 7.04 146.50"
/>
<path stroke="#bf0000" vector-effect="non-scaling-stroke" d="
  M 32.96 171.62
  L 21.28 146.89
  A 0.86 0.85 -10.1 0 0 20.57 146.40
  Q 13.80 145.93 7.04 146.50"
/>
<path stroke="#80be80" vector-effect="non-scaling-stroke" d="
  M 207.08 110.88
  A 0.32 0.32 5.1 0 0 207.40 111.26
  L 210.88 111.24
  A 0.32 0.32 83.2 0 0 211.19 110.85
  L 209.40 102.02
  A 0.32 0.32 22.7 0 0 208.78 102.02
  L 207.08 110.88"
/>
<path stroke="#80ff80" vector-effect="non-scaling-stroke" d="
  M 199.50 146.21
  L 194.16 171.19
  A 0.42 0.41 6.1 0 0 194.57 171.69
  L 217.50 171.71"
/>
<path stroke="#80c080" vector-effect="non-scaling-stroke" d="
  M 217.50 171.71
  L 223.75 171.74
  A 0.48 0.47 84.2 0 0 224.22 171.16
  L 217.29 138.80
  A 0.64 0.62 83.6 0 0 216.68 138.30
  L 201.57 138.30
  A 0.62 0.62 5.0 0 0 200.96 138.81
  L 199.50 146.21"
/>
<path stroke="#00c000" vector-effect="non-scaling-stroke" d="
  M 217.50 171.71
  L 212.18 146.93
  A 0.65 0.62 83.7 0 0 211.57 146.42
  L 199.50 146.21"
/>
</g>
<path fill="#ffffff" d="
  M 0.00 0.00
  L 67.31 0.00
  Q 112.01 91.09 156.66 182.21
  Q 157.69 184.32 157.72 186.65
  Q 157.91 200.86 157.57 215.06
  A 0.52 0.51 -89.4 0 1 157.06 215.57
  L 91.45 215.74
  A 1.76 1.74 76.4 0 1 89.87 214.76
  L 0.00 31.44
  L 0.00 0.00
  Z
  M 6.78 11.59
  L 6.75 28.09
  Q 6.75 29.27 7.28 30.37
  L 23.48 63.53
  A 0.84 0.83 76.9 0 0 24.23 64.00
  L 82.25 63.96
  L 90.26 64.00
  A 0.48 0.48 -13.1 0 0 90.69 63.31
  L 63.29 7.39
  A 1.13 1.13 77.1 0 0 62.27 6.75
  L 7.38 6.75
  A 0.62 0.60 -0.5 0 0 6.76 7.36
  L 6.78 11.59
  Z
  M 33.79 84.25
  L 46.65 110.47
  A 1.41 1.39 -12.8 0 0 47.91 111.25
  L 104.98 111.13
  L 113.71 111.25
  A 0.25 0.23 77.4 0 0 113.92 110.90
  L 97.86 78.02
  A 0.94 0.94 76.7 0 0 97.02 77.50
  L 30.96 77.50
  A 0.44 0.43 75.9 0 0 30.58 78.14
  L 33.79 84.25
  Z
  M 64.29 146.57
  L 76.23 171.15
  A 1.18 1.17 -12.8 0 0 77.29 171.81
  L 134.75 171.71
  L 142.99 171.83
  A 0.49 0.49 -12.6 0 0 143.44 171.13
  L 127.58 138.65
  A 0.84 0.83 76.9 0 0 126.83 138.18
  L 60.85 138.07
  A 0.50 0.49 -13.4 0 0 60.40 138.79
  L 64.29 146.57
  Z"
/>
<path fill="#ffffff" d="
  M 87.30 0.12
  L 157.56 0.00
  L 157.75 130.72
  A 1.00 0.95 -6.4 0 1 156.96 131.66
  L 151.72 132.84
  A 0.66 0.62 -18.4 0 1 151.00 132.51
  L 87.30 0.12
  Z
  M 100.67 11.91
  L 125.42 63.53
  A 0.82 0.82 -12.5 0 0 126.16 64.00
  L 145.50 63.96
  L 150.23 63.99
  A 0.53 0.52 90.0 0 0 150.75 63.46
  L 150.75 7.25
  A 0.50 0.50 0.0 0 0 150.25 6.75
  L 98.82 6.81
  A 0.37 0.33 -11.1 0 0 98.46 7.28
  L 100.67 11.91
  Z
  M 135.50 84.04
  Q 139.80 94.36 145.40 104.32
  C 145.82 105.83 147.73 111.71 150.00 111.29
  A 0.90 0.89 -5.0 0 0 150.75 110.41
  L 150.69 78.06
  A 0.50 0.50 0.0 0 0 150.19 77.56
  L 132.61 77.50
  A 0.35 0.34 -13.3 0 0 132.29 78.00
  L 135.50 84.04
  Z"
/>
<path fill="#ffffff" d="
  M 227.06 0.00
  L 273.56 0.00
  L 323.01 214.88
  A 0.67 0.66 83.7 0 1 322.37 215.69
  L 262.00 215.75
  A 0.99 0.97 83.2 0 1 261.05 214.99
  Q 240.53 124.34 220.06 33.94
  C 219.16 29.94 219.69 29.05 220.81 24.42
  Q 223.79 12.17 227.06 0.00
  Z
  M 231.29 11.50
  C 229.69 17.06 228.53 22.77 226.86 28.30
  C 226.08 30.89 226.86 32.36 227.41 34.81
  Q 230.57 48.92 233.86 63.46
  A 0.69 0.67 83.6 0 0 234.52 64.00
  L 274.00 63.96
  L 280.68 63.96
  A 0.42 0.42 83.2 0 0 281.08 63.45
  L 268.18 7.44
  A 0.66 0.62 82.9 0 0 267.57 6.93
  L 233.06 6.81
  A 0.69 0.64 7.5 0 0 232.39 7.28
  L 231.29 11.50
  Z
  M 238.75 84.29
  L 244.62 110.74
  A 0.66 0.65 -6.0 0 0 245.26 111.25
  L 285.00 111.21
  L 291.46 111.25
  A 0.42 0.41 83.3 0 0 291.86 110.74
  L 284.43 78.18
  A 0.65 0.63 83.1 0 0 283.81 77.68
  L 237.81 77.56
  A 0.46 0.41 -5.5 0 0 237.35 78.06
  L 238.75 84.29
  Z
  M 252.75 146.68
  L 258.25 171.25
  A 0.65 0.64 -6.1 0 0 258.88 171.75
  L 299.00 171.71
  L 305.36 171.75
  A 0.45 0.45 83.8 0 0 305.80 171.20
  L 298.33 138.67
  A 0.56 0.55 -6.6 0 0 297.79 138.25
  L 251.26 138.25
  A 0.41 0.41 -6.7 0 0 250.86 138.75
  L 252.75 146.68
  Z"
/>
<path fill="#ffffff" d="
  M 309.47 -0.02
  L 355.81 0.00
  L 405.42 215.24
  A 0.42 0.41 83.3 0 1 405.02 215.75
  L 344.24 215.69
  A 0.97 0.97 -6.3 0 1 343.29 214.93
  Q 322.61 123.20 302.00 32.47
  Q 301.50 30.25 302.06 28.04
  Q 305.65 13.98 309.47 -0.02
  Z
  M 313.54 11.50
  C 312.03 16.85 308.11 27.62 309.27 32.86
  Q 312.66 48.21 316.13 63.31
  A 0.89 0.88 83.4 0 0 316.99 64.00
  L 356.50 63.96
  L 362.99 63.99
  A 0.41 0.40 83.7 0 0 363.38 63.49
  L 350.37 7.38
  A 0.81 0.80 -6.2 0 0 349.58 6.75
  L 315.17 6.75
  A 0.65 0.63 -83.1 0 0 314.55 7.25
  L 313.54 11.50
  Z
  M 320.99 84.34
  L 326.88 110.57
  A 0.90 0.87 -6.0 0 0 327.75 111.25
  L 367.64 111.26
  L 373.86 111.25
  A 0.41 0.40 83.2 0 0 374.25 110.75
  L 366.70 78.01
  A 0.66 0.66 83.3 0 0 366.06 77.50
  L 320.06 77.56
  A 0.45 0.41 -5.6 0 0 319.61 78.06
  L 320.99 84.34
  Z
  M 335.04 146.50
  L 340.56 171.25
  A 0.65 0.64 -6.1 0 0 341.19 171.75
  L 381.10 171.70
  L 387.69 171.51
  A 0.45 0.42 82.7 0 0 388.08 170.96
  L 380.72 138.96
  A 0.93 0.91 -6.2 0 0 379.82 138.25
  L 333.94 138.19
  A 0.47 0.45 -2.2 0 0 333.47 138.68
  Q 333.75 142.68 335.04 146.50
  Z"
/>
<path fill="#ffffff" d="
  M 425.56 0.00
  L 486.73 0.00
  Q 486.60 61.75 486.94 123.49
  C 487.11 153.86 486.62 184.26 486.75 214.87
  A 0.87 0.87 89.7 0 1 485.88 215.75
  L 425.75 215.71
  Q 425.75 108.73 425.75 1.75
  Q 425.75 0.82 425.29 0.75
  Q 425.20 0.30 425.56 0.00
  Z
  M 432.04 11.50
  L 432.00 63.50
  A 0.50 0.50 0.0 0 0 432.50 64.00
  L 475.00 63.96
  L 479.36 63.99
  A 0.65 0.63 -89.6 0 0 480.00 63.34
  L 479.94 7.31
  A 0.51 0.50 0.0 0 0 479.43 6.81
  L 432.56 6.75
  A 0.56 0.55 -0.0 0 0 432.00 7.30
  L 432.04 11.50
  Z
  M 432.04 84.00
  L 432.00 110.58
  A 0.67 0.67 -0.2 0 0 432.67 111.25
  L 474.62 111.23
  L 479.32 111.12
  A 0.56 0.52 89.5 0 0 479.83 110.56
  L 479.83 78.19
  A 0.51 0.51 0.0 0 0 479.32 77.68
  L 432.67 77.51
  A 0.66 0.66 0.4 0 0 432.00 78.17
  L 432.04 84.00
  Z
  M 432.04 146.50
  L 432.00 171.20
  A 0.55 0.55 0.0 0 0 432.55 171.75
  L 475.00 171.71
  L 479.49 171.74
  A 0.52 0.50 -89.5 0 0 480.00 171.22
  L 480.00 138.83
  A 0.58 0.58 89.9 0 0 479.42 138.25
  L 432.75 138.25
  A 0.55 0.51 0.5 0 0 432.20 138.75
  L 432.04 146.50
  Z"
/>
<path fill="#ffffff" d="
  M 500.61 0.00
  L 593.31 0.00
  L 508.60 104.27
  A 0.32 0.31 -44.2 0 0 508.59 104.65
  L 592.99 215.16
  Q 593.43 215.75 592.70 215.75
  L 501.32 215.75
  A 0.82 0.82 0.0 0 1 500.50 214.93
  L 500.61 0.00
  Z
  M 507.54 11.50
  L 507.50 63.50
  A 0.50 0.50 0.0 0 0 508.00 64.00
  L 527.25 63.96
  L 531.93 63.96
  A 1.21 0.97 -65.1 0 0 532.75 63.55
  L 534.29 61.75
  L 573.65 12.86
  L 578.71 7.16
  Q 579.07 6.75 578.50 6.75
  L 508.03 6.75
  A 0.52 0.50 -0.5 0 0 507.51 7.26
  L 507.54 11.50
  Z
  M 507.43 93.39
  Q 507.42 94.87 508.37 93.71
  L 520.88 78.38
  Q 521.74 77.32 520.38 77.34
  L 508.07 77.57
  A 0.51 0.49 0.0 0 0 507.56 78.06
  L 507.43 93.39
  Z
  M 507.81 129.04
  Q 507.13 150.44 507.67 171.32
  A 0.51 0.51 88.3 0 0 508.19 171.81
  L 540.22 171.58
  L 550.05 171.93
  Q 551.24 171.97 550.51 171.02
  L 508.05 115.40
  Q 507.75 115.00 507.71 115.50
  Q 507.10 122.50 507.81 129.04
  Z"
/>
<path fill="#f9fcfe" fill-opacity="0.953" d="
  M 425.29 0.75
  Q 425.75 0.82 425.75 1.75
  Q 425.75 108.73 425.75 215.71
  Q 425.25 215.57 425.25 214.75
  Q 425.22 107.75 425.29 0.75
  Z"
/>
<path fill="#7d0000" d="
  M 82.25 63.96
  L 56.91 12.01
  A 0.80 0.80 76.9 0 0 56.19 11.56
  L 6.78 11.59
  L 6.76 7.36
  A 0.62 0.60 -0.5 0 1 7.38 6.75
  L 62.27 6.75
  A 1.13 1.13 77.1 0 1 63.29 7.39
  L 90.69 63.31
  A 0.48 0.48 -13.1 0 1 90.26 64.00
  L 82.25 63.96
  Z"
/>
<path fill="#7d0000" d="
  M 145.50 63.96
  L 145.69 12.06
  A 0.52 0.51 0.6 0 0 145.18 11.55
  Q 123.01 11.15 100.67 11.91
  L 98.46 7.28
  A 0.37 0.33 -11.1 0 1 98.82 6.81
  L 150.25 6.75
  A 0.50 0.50 0.0 0 1 150.75 7.25
  L 150.75 63.46
  A 0.53 0.52 90.0 0 1 150.23 63.99
  L 145.50 63.96
  Z"
/>
<path fill="#007d00" d="
  M 274.00 63.96
  Q 268.77 37.84 262.37 11.98
  A 0.64 0.63 -6.9 0 0 261.75 11.50
  L 231.29 11.50
  L 232.39 7.28
  A 0.69 0.64 7.5 0 1 233.06 6.81
  L 267.57 6.93
  A 0.66 0.62 82.9 0 1 268.18 7.44
  L 281.08 63.45
  A 0.42 0.42 83.2 0 1 280.68 63.96
  L 274.00 63.96
  Z"
/>
<path fill="#007d00" d="
  M 356.50 63.96
  L 344.63 12.00
  A 0.66 0.65 -6.7 0 0 343.99 11.50
  L 313.54 11.50
  L 314.55 7.25
  A 0.65 0.63 -83.1 0 1 315.17 6.75
  L 349.58 6.75
  A 0.81 0.80 -6.2 0 1 350.37 7.38
  L 363.38 63.49
  A 0.41 0.40 83.7 0 1 362.99 63.99
  L 356.50 63.96
  Z"
/>
<path fill="#00007c" d="
  M 475.00 63.96
  L 474.94 12.07
  A 0.51 0.50 90.0 0 0 474.44 11.56
  L 432.04 11.50
  L 432.00 7.30
  A 0.56 0.55 -0.0 0 1 432.56 6.75
  L 479.43 6.81
  A 0.51 0.50 0.0 0 1 479.94 7.31
  L 480.00 63.34
  A 0.65 0.63 -89.6 0 1 479.36 63.99
  L 475.00 63.96
  Z"
/>
<path fill="#00007c" d="
  M 573.65 12.86
  Q 563.44 23.16 554.71 34.73
  Q 550.33 40.53 547.91 43.44
  Q 544.36 47.68 540.76 51.89
  C 539.39 53.50 537.62 56.32 535.57 58.17
  C 534.35 59.26 534.13 60.21 534.29 61.75
  L 532.75 63.55
  A 1.21 0.97 -65.1 0 1 531.93 63.96
  L 527.25 63.96
  Q 527.66 62.31 528.96 61.25
  Q 529.13 61.65 529.44 61.73
  A 0.99 0.57 -57.6 0 0 530.25 61.30
  Q 549.52 37.20 569.19 13.44
  Q 569.86 12.63 568.75 12.46
  Q 569.10 12.04 568.99 11.70
  A 0.90 0.53 -5.4 0 0 568.18 11.32
  L 507.54 11.50
  L 507.51 7.26
  A 0.52 0.50 -0.5 0 1 508.03 6.75
  L 578.50 6.75
  Q 579.07 6.75 578.71 7.16
  L 573.65 12.86
  Z"
/>
<path fill="#ff0000" d="
  M 82.25 63.96
  L 24.23 64.00
  A 0.84 0.83 76.9 0 1 23.48 63.53
  L 7.28 30.37
  Q 6.75 29.27 6.75 28.09
  L 6.78 11.59
  L 56.19 11.56
  A 0.80 0.80 76.9 0 1 56.91 12.01
  L 82.25 63.96
  Z"
/>
<path fill="#ff0000" d="
  M 145.50 63.96
  L 126.16 64.00
  A 0.82 0.82 -12.5 0 1 125.42 63.53
  L 100.67 11.91
  Q 123.01 11.15 145.18 11.55
  A 0.52 0.51 0.6 0 1 145.69 12.06
  L 145.50 63.96
  Z"
/>
<path fill="#0000ff" d="
  M 475.00 63.96
  L 432.50 64.00
  A 0.50 0.50 0.0 0 1 432.00 63.50
  L 432.04 11.50
  L 474.44 11.56
  A 0.51 0.50 90.0 0 1 474.94 12.07
  L 475.00 63.96
  Z"
/>
<path fill="#0000ff" d="
  M 568.75 12.46
  L 528.96 61.25
  Q 527.66 62.31 527.25 63.96
  L 508.00 64.00
  A 0.50 0.50 0.0 0 1 507.50 63.50
  L 507.54 11.50
  L 568.18 11.32
  A 0.90 0.53 -5.4 0 1 568.99 11.70
  Q 569.10 12.04 568.75 12.46
  Z"
/>
<path fill="#00ff00" d="
  M 231.29 11.50
  L 261.75 11.50
  A 0.64 0.63 -6.9 0 1 262.37 11.98
  Q 268.77 37.84 274.00 63.96
  L 234.52 64.00
  A 0.69 0.67 83.6 0 1 233.86 63.46
  Q 230.57 48.92 227.41 34.81
  C 226.86 32.36 226.08 30.89 226.86 28.30
  C 228.53 22.77 229.69 17.06 231.29 11.50
  Z"
/>
<path fill="#00ff00" d="
  M 313.54 11.50
  L 343.99 11.50
  A 0.66 0.65 -6.7 0 1 344.63 12.00
  L 356.50 63.96
  L 316.99 64.00
  A 0.89 0.88 83.4 0 1 316.13 63.31
  Q 312.66 48.21 309.27 32.86
  C 308.11 27.62 312.03 16.85 313.54 11.50
  Z"
/>
<path fill="#01004e" d="
  M 568.75 12.46
  Q 569.86 12.63 569.19 13.44
  Q 549.52 37.20 530.25 61.30
  A 0.99 0.57 -57.6 0 1 529.44 61.73
  Q 529.13 61.65 528.96 61.25
  L 568.75 12.46
  Z"
/>
<path fill="#01004e" d="
  M 573.65 12.86
  L 534.29 61.75
  C 534.13 60.21 534.35 59.26 535.57 58.17
  C 537.62 56.32 539.39 53.50 540.76 51.89
  Q 544.36 47.68 547.91 43.44
  Q 550.33 40.53 554.71 34.73
  Q 563.44 23.16 573.65 12.86
  Z"
/>
<path fill="#00007c" d="
  M 507.43 93.39
  L 507.56 78.06
  A 0.51 0.49 -0.0 0 1 508.07 77.57
  L 520.38 77.34
  Q 521.74 77.32 520.88 78.38
  L 508.37 93.71
  Q 507.42 94.87 507.43 93.39
  Z"
/>
<path fill="#7d0000" d="
  M 104.98 111.13
  Q 99.24 97.57 92.30 84.63
  A 0.85 0.82 75.3 0 0 91.57 84.19
  L 33.79 84.25
  L 30.58 78.14
  A 0.44 0.43 75.9 0 1 30.96 77.50
  L 97.02 77.50
  A 0.94 0.94 76.7 0 1 97.86 78.02
  L 113.92 110.90
  A 0.25 0.23 77.4 0 1 113.71 111.25
  L 104.98 111.13
  Z"
/>
<path fill="#7d0000" d="
  M 145.40 104.32
  L 145.71 85.35
  A 1.14 1.07 1.3 0 0 144.60 84.26
  L 135.50 84.04
  L 132.29 78.00
  A 0.35 0.34 -13.3 0 1 132.61 77.50
  L 150.19 77.56
  A 0.50 0.50 0.0 0 1 150.69 78.06
  L 150.75 110.41
  A 0.90 0.89 -5.0 0 1 150.00 111.29
  C 147.73 111.71 145.82 105.83 145.40 104.32
  Z"
/>
<path fill="#007d00" d="
  M 285.00 111.21
  L 279.19 84.75
  A 0.66 0.64 -6.0 0 0 278.55 84.25
  L 238.75 84.29
  L 237.35 78.06
  A 0.46 0.41 -5.5 0 1 237.81 77.56
  L 283.81 77.68
  A 0.65 0.63 83.1 0 1 284.43 78.18
  L 291.86 110.74
  A 0.42 0.41 83.3 0 1 291.46 111.25
  L 285.00 111.21
  Z"
/>
<path fill="#007d00" d="
  M 367.64 111.26
  L 361.58 84.82
  A 0.97 0.97 83.0 0 0 360.62 84.07
  L 320.99 84.34
  L 319.61 78.06
  A 0.45 0.41 -5.6 0 1 320.06 77.56
  L 366.06 77.50
  A 0.66 0.66 83.3 0 1 366.70 78.01
  L 374.25 110.75
  A 0.41 0.40 83.2 0 1 373.86 111.25
  L 367.64 111.26
  Z"
/>
<path fill="#00007c" d="
  M 474.62 111.23
  L 474.71 85.03
  A 0.82 0.79 0.0 0 0 473.89 84.24
  L 432.04 84.00
  L 432.00 78.17
  A 0.66 0.66 0.4 0 1 432.67 77.51
  L 479.32 77.68
  A 0.51 0.51 0.0 0 1 479.83 78.19
  L 479.83 110.56
  A 0.56 0.52 89.5 0 1 479.32 111.12
  L 474.62 111.23
  Z"
/>
<path fill="#ffffff" d="
  M 0.00 215.37
  L 0.00 84.44
  Q 2.92 83.20 6.06 82.97
  A 0.74 0.73 74.8 0 1 6.78 83.39
  L 70.44 215.12
  A 0.44 0.44 77.1 0 1 70.05 215.75
  L 0.00 215.37
  Z
  M 7.42 100.59
  Q 6.80 99.35 6.79 100.73
  L 6.76 110.58
  A 0.67 0.66 0.4 0 0 7.43 111.25
  L 12.11 111.25
  A 0.39 0.38 76.6 0 0 12.45 110.69
  L 7.42 100.59
  Z
  M 7.04 146.50
  Q 6.40 158.78 6.92 171.07
  A 0.53 0.51 88.8 0 0 7.43 171.58
  L 32.96 171.62
  L 41.13 171.81
  A 0.40 0.39 77.6 0 0 41.49 171.24
  L 25.90 138.79
  A 1.31 1.26 -12.8 0 0 24.72 138.08
  L 7.71 138.23
  A 0.88 0.78 -1.0 0 0 6.84 139.03
  L 7.04 146.50
  Z"
/>
<path fill="#ffffff" d="
  M 206.16 83.81
  Q 209.06 83.09 212.01 83.65
  A 0.74 0.74 89.4 0 1 212.60 84.23
  L 240.69 214.95
  A 0.66 0.66 -6.0 0 1 240.04 215.75
  L 178.34 215.75
  A 0.76 0.76 5.9 0 1 177.60 214.84
  L 205.58 84.43
  A 0.83 0.78 89.8 0 1 206.16 83.81
  Z
  M 207.08 110.88
  A 0.32 0.32 5.1 0 0 207.40 111.26
  L 210.88 111.24
  A 0.32 0.32 83.2 0 0 211.19 110.85
  L 209.40 102.02
  A 0.32 0.32 22.7 0 0 208.78 102.02
  L 207.08 110.88
  Z
  M 199.50 146.21
  L 194.16 171.19
  A 0.42 0.41 6.1 0 0 194.57 171.69
  L 217.50 171.71
  L 223.75 171.74
  A 0.48 0.47 84.2 0 0 224.22 171.16
  L 217.29 138.80
  A 0.64 0.62 83.6 0 0 216.68 138.30
  L 201.57 138.30
  A 0.62 0.62 5.0 0 0 200.96 138.81
  L 199.50 146.21
  Z"
/>
<path fill="#ff0000" d="
  M 145.40 104.32
  Q 139.80 94.36 135.50 84.04
  L 144.60 84.26
  A 1.14 1.07 1.3 0 1 145.71 85.35
  L 145.40 104.32
  Z"
/>
<path fill="#ff0000" d="
  M 104.98 111.13
  L 47.91 111.25
  A 1.41 1.39 -12.8 0 1 46.65 110.47
  L 33.79 84.25
  L 91.57 84.19
  A 0.85 0.82 75.3 0 1 92.30 84.63
  Q 99.24 97.57 104.98 111.13
  Z"
/>
<path fill="#00ff00" d="
  M 285.00 111.21
  L 245.26 111.25
  A 0.66 0.65 -6.0 0 1 244.62 110.74
  L 238.75 84.29
  L 278.55 84.25
  A 0.66 0.64 -6.0 0 1 279.19 84.75
  L 285.00 111.21
  Z"
/>
<path fill="#00ff00" d="
  M 367.64 111.26
  L 327.75 111.25
  A 0.90 0.87 -6.0 0 1 326.88 110.57
  L 320.99 84.34
  L 360.62 84.07
  A 0.97 0.97 83.0 0 1 361.58 84.82
  L 367.64 111.26
  Z"
/>
<path fill="#0000ff" d="
  M 432.04 84.00
  L 473.89 84.24
  A 0.82 0.79 -0.0 0 1 474.71 85.03
  L 474.62 111.23
  L 432.67 111.25
  A 0.67 0.67 0.4 0 1 432.00 110.58
  L 432.04 84.00
  Z"
/>
<path fill="#7d0000" d="
  M 7.42 100.59
  L 12.45 110.69
  A 0.39 0.38 76.6 0 1 12.11 111.25
  L 7.43 111.25
  A 0.67 0.66 0.4 0 1 6.76 110.58
  L 6.79 100.73
  Q 6.80 99.35 7.42 100.59
  Z"
/>
<path fill="#007d00" d="
  M 207.08 110.88
  L 208.78 102.02
  A 0.32 0.32 67.6 0 1 209.40 102.02
  L 211.19 110.85
  A 0.32 0.32 88.1 0 1 210.88 111.24
  L 207.40 111.26
  A 0.32 0.32 5.1 0 1 207.08 110.88
  Z"
/>
<path fill="#00007f" d="
  M 540.22 171.58
  Q 524.55 149.87 507.81 129.04
  Q 507.10 122.50 507.71 115.50
  Q 507.75 115.00 508.05 115.40
  L 550.51 171.02
  Q 551.24 171.97 550.05 171.93
  L 540.22 171.58
  Z"
/>
<path fill="#0000ff" d="
  M 507.81 129.04
  Q 524.55 149.87 540.22 171.58
  L 508.19 171.81
  A 0.51 0.51 88.3 0 1 507.67 171.32
  Q 507.13 150.44 507.81 129.04
  Z"
/>
<path fill="#7f0000" d="
  M 32.96 171.62
  L 21.28 146.89
  A 0.86 0.85 -10.1 0 0 20.57 146.40
  Q 13.80 145.93 7.04 146.50
  L 6.84 139.03
  A 0.88 0.78 -1.0 0 1 7.71 138.23
  L 24.72 138.08
  A 1.31 1.26 -12.8 0 1 25.90 138.79
  L 41.49 171.24
  A 0.40 0.39 77.6 0 1 41.13 171.81
  L 32.96 171.62
  Z"
/>
<path fill="#7f0000" d="
  M 134.75 171.71
  L 134.79 170.50
  C 136.77 170.36 135.20 169.47 134.87 168.80
  Q 129.33 157.90 124.18 146.80
  A 1.86 1.85 79.0 0 0 122.60 145.73
  Q 110.51 145.13 98.00 145.40
  Q 93.72 145.50 97.50 146.21
  L 64.29 146.57
  L 60.40 138.79
  A 0.50 0.49 -13.4 0 1 60.85 138.07
  L 126.83 138.18
  A 0.84 0.83 76.9 0 1 127.58 138.65
  L 143.44 171.13
  A 0.49 0.49 -12.6 0 1 142.99 171.83
  L 134.75 171.71
  Z"
/>
<path fill="#008000" d="
  M 381.10 171.70
  Q 379.00 159.13 375.46 146.92
  A 0.70 0.68 81.7 0 0 374.82 146.43
  Q 354.93 145.93 335.04 146.50
  Q 333.75 142.68 333.47 138.68
  A 0.47 0.45 -2.2 0 1 333.94 138.19
  L 379.82 138.25
  A 0.93 0.91 -6.2 0 1 380.72 138.96
  L 388.08 170.96
  A 0.45 0.42 82.7 0 1 387.69 171.51
  L 381.10 171.70
  Z"
/>
<path fill="#00007c" d="
  M 475.00 171.71
  Q 474.39 159.35 474.98 147.47
  A 1.15 1.14 -88.6 0 0 473.84 146.26
  L 432.04 146.50
  L 432.20 138.75
  A 0.55 0.51 0.5 0 1 432.75 138.25
  L 479.42 138.25
  A 0.58 0.58 89.7 0 1 480.00 138.83
  L 480.00 171.22
  A 0.52 0.50 -89.5 0 1 479.49 171.74
  L 475.00 171.71
  Z"
/>
<path fill="#008000" d="
  M 217.50 171.71
  L 212.18 146.93
  A 0.65 0.62 83.7 0 0 211.57 146.42
  L 199.50 146.21
  L 200.96 138.81
  A 0.62 0.62 5.0 0 1 201.57 138.30
  L 216.68 138.30
  A 0.64 0.62 83.6 0 1 217.29 138.80
  L 224.22 171.16
  A 0.48 0.47 84.2 0 1 223.75 171.74
  L 217.50 171.71
  Z"
/>
<path fill="#008000" d="
  M 299.00 171.71
  L 293.31 146.76
  A 0.68 0.65 -5.3 0 0 292.66 146.25
  Q 272.65 145.93 252.75 146.68
  L 250.86 138.75
  A 0.41 0.41 -6.7 0 1 251.26 138.25
  L 297.79 138.25
  A 0.56 0.55 -6.6 0 1 298.33 138.67
  L 305.80 171.20
  A 0.45 0.45 83.8 0 1 305.36 171.75
  L 299.00 171.71
  Z"
/>
<path fill="#530001" d="
  M 134.79 170.50
  L 123.07 147.05
  A 1.45 1.44 76.6 0 0 121.78 146.25
  L 97.50 146.21
  Q 93.72 145.50 98.00 145.40
  Q 110.51 145.13 122.60 145.73
  A 1.86 1.85 79.0 0 1 124.18 146.80
  Q 129.33 157.90 134.87 168.80
  C 135.20 169.47 136.77 170.36 134.79 170.50
  Z"
/>
<path fill="#ff0000" d="
  M 32.96 171.62
  L 7.43 171.58
  A 0.53 0.51 88.8 0 1 6.92 171.07
  Q 6.40 158.78 7.04 146.50
  Q 13.80 145.93 20.57 146.40
  A 0.86 0.85 -10.1 0 1 21.28 146.89
  L 32.96 171.62
  Z"
/>
<path fill="#ff0000" d="
  M 97.50 146.21
  L 121.78 146.25
  A 1.45 1.44 76.6 0 1 123.07 147.05
  L 134.79 170.50
  L 134.75 171.71
  L 77.29 171.81
  A 1.18 1.17 -12.8 0 1 76.23 171.15
  L 64.29 146.57
  L 97.50 146.21
  Z"
/>
<path fill="#00ff00" d="
  M 199.50 146.21
  L 211.57 146.42
  A 0.65 0.62 83.7 0 1 212.18 146.93
  L 217.50 171.71
  L 194.57 171.69
  A 0.42 0.41 6.1 0 1 194.16 171.19
  L 199.50 146.21
  Z"
/>
<path fill="#00ff00" d="
  M 299.00 171.71
  L 258.88 171.75
  A 0.65 0.64 -6.1 0 1 258.25 171.25
  L 252.75 146.68
  Q 272.65 145.93 292.66 146.25
  A 0.68 0.65 -5.3 0 1 293.31 146.76
  L 299.00 171.71
  Z"
/>
<path fill="#00ff00" d="
  M 381.10 171.70
  L 341.19 171.75
  A 0.65 0.64 -6.1 0 1 340.56 171.25
  L 335.04 146.50
  Q 354.93 145.93 374.82 146.43
  A 0.70 0.68 81.7 0 1 375.46 146.92
  Q 379.00 159.13 381.10 171.70
  Z"
/>
<path fill="#0000ff" d="
  M 475.00 171.71
  L 432.55 171.75
  A 0.55 0.55 0.0 0 1 432.00 171.20
  L 432.04 146.50
  L 473.84 146.26
  A 1.15 1.14 -88.6 0 1 474.98 147.47
  Q 474.39 159.35 475.00 171.71
  Z"
/>
</svg>
