<?xml version="1.0" encoding="UTF-8" standalone="no"?>
<!DOCTYPE svg PUBLIC "-//W3C//DTD SVG 1.1//EN" "http://www.w3.org/Graphics/SVG/1.1/DTD/svg11.dtd">
<svg xmlns="http://www.w3.org/2000/svg" version="1.1" viewBox="0 0 600 300">
<path fill="#000000" d="
  M 327.96 43.48
  C 334.19 51.61 331.21 61.92 322.28 66.32
  C 320.56 67.17 315.89 68.23 313.84 67.89
  C 303.87 66.24 295.81 56.75 300.59 46.63
  C 305.86 35.51 320.16 33.30 327.96 43.48
  Z
  M 306.20 46.93
  C 306.37 48.40 307.60 48.40 308.77 47.87
  Q 312.12 46.34 315.75 46.97
  C 321.06 47.89 321.04 43.68 316.79 42.65
  Q 310.69 41.15 306.51 46.05
  A 1.26 0.94 -34.0 0 0 306.20 46.93
  Z"
/>
<path fill="#000000" d="
  M 600.00 150.31
  L 600.00 162.56
  C 597.63 185.14 583.13 204.89 562.79 214.55
  C 558.83 216.43 552.02 218.00 547.50 218.00
  Q 492.47 218.04 437.43 217.94
  C 434.22 217.94 432.88 216.36 432.06 213.54
  A 2.05 1.39 -85.3 0 0 431.59 212.71
  C 427.57 208.89 427.48 214.70 426.16 216.63
  A 0.98 0.98 16.9 0 1 425.35 217.06
  C 372.14 216.95 318.38 217.76 265.94 216.51
  C 262.60 216.43 258.49 216.87 254.95 216.63
  Q 252.55 216.47 252.34 214.07
  Q 252.11 211.34 252.37 209.19
  C 252.63 207.07 253.83 200.05 248.77 204.41
  C 241.01 211.11 232.00 215.50 222.08 217.74
  Q 217.59 218.75 210.84 218.75
  C 205.24 218.75 198.79 219.33 193.36 218.20
  C 177.00 214.77 162.38 205.02 152.81 191.44
  Q 150.47 188.11 147.82 191.35
  C 141.49 199.09 134.47 205.93 125.45 210.45
  C 122.09 212.14 119.09 214.26 115.66 215.43
  C 108.99 217.71 102.95 218.64 95.14 220.31
  C 82.77 222.96 69.08 221.15 57.50 217.75
  Q 17.75 206.08 5.00 166.75
  C 4.05 163.82 4.24 159.70 3.94 156.75
  C 1.12 129.53 18.79 104.96 42.37 93.23
  C 68.29 80.34 95.37 80.31 121.70 92.29
  Q 137.09 99.30 147.54 112.48
  C 148.73 113.99 149.16 116.21 151.84 115.47
  A 1.61 1.26 -74.6 0 0 152.61 114.90
  C 167.09 94.94 189.95 84.47 214.69 87.07
  Q 216.33 87.25 217.58 86.17
  C 220.34 83.80 223.33 80.51 225.09 78.88
  Q 252.51 53.35 290.75 53.06
  Q 295.16 53.03 294.50 57.07
  A 2.31 2.30 78.7 0 1 293.46 58.64
  C 287.39 62.49 280.55 65.86 275.44 69.87
  Q 259.63 82.30 249.01 99.57
  A 0.67 0.63 39.4 0 0 249.11 100.35
  L 262.65 114.84
  Q 263.94 116.23 265.36 115.09
  C 266.99 113.79 267.98 111.63 269.46 110.21
  C 272.85 106.95 276.28 103.27 279.87 100.67
  C 294.52 90.06 313.18 85.28 330.93 88.72
  C 344.32 91.31 356.09 97.07 365.54 106.95
  Q 369.95 111.55 373.42 115.24
  Q 375.63 117.58 377.60 115.05
  Q 395.08 92.65 423.22 89.15
  C 424.70 88.96 426.46 88.01 428.33 88.37
  C 433.09 89.28 438.42 89.29 442.52 90.15
  Q 455.80 92.95 467.12 100.49
  C 468.84 101.64 472.70 106.35 474.85 105.93
  C 478.15 105.28 471.90 93.66 478.88 94.14
  Q 480.55 94.25 480.63 94.25
  Q 512.91 94.40 545.18 95.06
  C 558.52 95.34 567.91 100.49 577.80 108.72
  Q 597.27 124.92 600.00 150.31
  Z
  M 211.92 115.31
  C 217.12 117.46 223.41 117.60 227.94 119.56
  C 231.36 121.05 232.46 119.79 233.55 116.59
  C 239.97 97.69 252.75 78.18 269.52 66.26
  C 271.03 65.18 274.10 62.72 269.99 61.84
  A 1.66 1.33 -45.9 0 0 269.04 61.96
  C 265.42 63.62 261.02 64.60 258.02 65.79
  Q 227.77 77.80 213.48 107.16
  C 212.78 108.60 211.42 110.76 210.75 112.74
  Q 210.14 114.57 211.92 115.31
  Z
  M 39.40 181.69
  C 41.30 183.46 43.70 186.27 45.44 187.31
  C 54.07 192.46 63.99 196.72 74.05 197.75
  C 94.22 199.84 112.08 195.57 126.74 181.49
  Q 133.96 174.54 137.75 165.25
  Q 138.95 162.30 135.75 162.75
  Q 133.38 163.08 131.00 163.11
  Q 105.42 163.37 79.85 163.09
  C 76.64 163.05 74.26 162.43 71.44 161.30
  C 61.76 157.39 62.59 146.13 72.01 142.58
  Q 74.20 141.75 78.60 141.75
  Q 106.24 141.75 133.87 141.75
  C 136.70 141.75 139.97 141.19 137.52 137.31
  C 129.14 124.03 122.57 115.52 107.60 109.24
  C 99.30 105.75 90.40 104.88 81.35 104.85
  C 69.06 104.82 55.67 108.27 45.49 115.64
  C 34.91 123.30 23.80 137.30 25.00 151.25
  Q 26.59 169.73 39.40 181.69
  Z
  M 175.37 184.12
  C 184.20 193.15 195.53 197.79 208.16 197.73
  C 224.94 197.64 239.05 187.93 247.06 173.36
  C 248.92 169.97 250.80 167.04 251.52 163.21
  C 253.76 151.25 252.68 138.18 244.03 128.92
  Q 242.93 127.74 242.01 126.42
  C 238.97 122.04 237.87 129.06 233.50 127.76
  C 228.48 126.27 223.23 125.23 218.30 123.38
  C 213.95 121.74 209.34 121.68 205.12 120.25
  C 202.08 119.23 199.29 118.37 202.15 114.55
  C 204.20 111.80 204.31 108.23 199.50 109.75
  C 197.68 110.32 195.34 109.41 192.92 110.30
  C 180.29 114.89 168.17 125.76 164.29 139.41
  Q 163.44 142.42 162.35 147.51
  C 159.55 160.58 166.47 175.02 175.37 184.12
  Z
  M 336.35 113.01
  C 312.39 102.32 281.82 118.20 275.90 142.95
  C 272.33 157.82 274.13 174.96 273.78 190.30
  C 273.73 192.27 272.55 194.56 274.94 196.01
  C 277.59 197.62 288.71 196.77 292.25 196.75
  Q 295.07 196.73 296.40 195.10
  A 1.60 1.18 71.0 0 0 296.69 194.18
  Q 296.88 177.57 296.99 160.96
  C 297.05 151.73 308.63 151.35 308.50 160.25
  Q 308.33 172.08 308.49 192.10
  Q 308.49 192.18 308.34 193.90
  C 307.98 197.80 315.51 197.14 318.21 196.96
  C 320.95 196.79 324.99 197.45 328.38 196.21
  A 1.63 1.63 -9.9 0 0 329.44 194.70
  Q 329.54 178.26 329.50 161.82
  C 329.50 159.38 329.15 157.80 330.76 155.81
  C 336.85 148.27 342.48 158.40 342.25 163.89
  C 342.11 167.04 339.89 170.20 338.41 173.28
  A 1.31 1.12 -58.9 0 0 338.66 174.78
  L 341.00 176.65
  A 2.03 1.40 26.0 0 1 341.78 178.03
  Q 341.66 184.79 341.92 190.22
  C 342.11 194.25 340.62 197.24 346.57 197.15
  Q 351.85 197.08 357.12 197.20
  C 361.42 197.29 364.00 198.25 364.00 193.00
  C 364.00 176.17 365.77 157.13 361.78 140.74
  C 358.80 128.47 347.47 117.98 336.35 113.01
  Z
  M 397.34 125.10
  Q 390.43 133.15 387.49 143.00
  Q 385.77 148.73 385.51 159.69
  Q 385.19 172.92 385.24 186.16
  C 385.25 188.64 384.23 192.40 385.47 195.69
  Q 386.13 197.44 388.13 197.46
  L 403.97 197.67
  Q 407.44 197.72 406.84 194.48
  C 405.06 184.88 419.17 189.54 423.86 189.41
  Q 437.31 189.03 450.75 189.50
  Q 453.07 189.58 452.25 193.50
  Q 451.73 195.96 453.41 197.38
  A 1.57 1.16 -17.6 0 0 454.32 197.69
  L 473.02 197.75
  Q 475.15 197.76 475.19 195.65
  Q 475.65 174.07 475.28 152.23
  C 475.24 150.22 474.53 148.41 474.13 146.43
  C 470.07 126.40 453.72 110.75 433.03 110.00
  C 428.09 109.81 421.90 109.97 417.26 111.87
  C 409.52 115.03 403.20 118.26 397.34 125.10
  Z
  M 496.04 116.38
  C 495.52 142.41 495.56 168.48 495.50 194.52
  C 495.49 198.28 496.21 197.74 499.57 197.75
  Q 523.63 197.88 547.69 197.60
  Q 550.47 197.56 552.69 196.46
  Q 564.08 190.81 572.31 179.56
  C 576.31 174.09 579.51 165.22 579.00 158.50
  C 578.93 157.55 579.45 156.20 579.42 155.06
  C 578.81 136.74 566.78 122.40 550.05 115.83
  C 547.84 114.97 545.82 114.96 543.50 114.95
  Q 520.78 114.87 497.92 114.56
  Q 496.08 114.54 496.04 116.38
  Z"
/>
<path fill="#000000" d="
  M 411.47 140.97
  Q 421.11 129.66 434.44 132.41
  Q 441.39 133.84 445.97 138.68
  C 453.17 146.26 452.83 154.10 452.35 164.22
  C 452.09 169.68 448.76 168.22 445.07 168.27
  Q 426.78 168.54 408.49 167.75
  A 1.81 1.81 -87.0 0 1 406.76 165.83
  C 407.29 157.19 405.32 148.19 411.47 140.97
  Z"
/>
<path fill="#000000" d="
  M 190.36 154.01
  C 190.00 152.65 189.62 151.43 189.97 150.01
  C 192.71 138.70 204.90 132.76 215.44 137.56
  C 232.33 145.27 226.37 169.13 208.06 170.23
  Q 196.68 170.91 190.75 159.50
  Q 189.60 157.30 190.34 154.96
  A 1.73 1.63 -45.4 0 0 190.36 154.01
  Z"
/>
<path fill="#000000" d="
  M 519.68 138.40
  Q 519.73 136.15 521.98 136.25
  C 536.95 136.91 551.79 133.63 557.28 151.20
  C 558.33 154.56 557.69 157.16 556.71 160.87
  C 554.36 169.75 548.18 176.82 538.24 176.07
  Q 529.38 175.41 520.48 175.25
  A 1.57 1.57 1.8 0 1 518.94 173.65
  L 519.68 138.40
  Z"
/>
<path fill="#000000" d="
  M 416.11 256.26
  Q 406.14 252.43 406.45 241.50
  C 406.59 236.47 409.17 228.41 415.33 226.47
  Q 426.15 223.06 431.95 233.38
  A 1.05 0.94 44.3 0 1 432.01 234.28
  C 431.01 236.54 429.11 235.68 427.71 234.36
  C 424.59 231.40 420.74 228.16 416.47 230.98
  C 403.03 239.82 416.63 260.77 426.73 249.42
  C 428.35 247.60 430.61 244.56 432.10 248.78
  A 1.24 1.18 -42.1 0 1 432.03 249.71
  C 429.27 255.29 422.06 258.54 416.11 256.26
  Z"
/>
<path fill="#000000" d="
  M 453.5744 257.2471
  A 15.92 13.93 91.1 0 1 439.9526 241.0626
  A 15.92 13.93 91.1 0 1 454.1856 225.4129
  A 15.92 13.93 91.1 0 1 467.8074 241.5974
  A 15.92 13.93 91.1 0 1 453.5744 257.2471
  Z
  M 447.24 234.22
  Q 444.33 238.67 445.16 243.66
  C 446.14 249.61 452.67 255.71 458.63 250.84
  C 469.80 241.72 456.14 220.60 447.24 234.22
  Z"
/>
<path fill="#000000" d="
  M 0.00 241.69
  L 0.00 240.69
  C 0.85 232.74 4.76 228.40 12.76 226.17
  C 19.80 224.21 30.08 235.52 24.25 235.75
  Q 21.81 235.85 19.71 233.27
  C 11.38 223.03 -0.22 239.48 7.40 249.09
  Q 9.64 251.91 12.69 252.56
  C 17.16 253.52 19.52 250.49 22.16 247.62
  A 1.71 1.39 -69.9 0 1 22.98 247.13
  C 27.27 246.16 26.41 249.89 24.79 251.88
  C 15.60 263.20 0.15 254.91 0.00 241.69
  Z"
/>
<path fill="#000000" d="
  M 31.42 238.78
  C 33.26 226.65 49.45 219.82 56.31 232.69
  C 61.49 242.40 57.80 258.30 43.76 257.28
  Q 40.92 257.08 38.88 255.88
  Q 29.64 250.46 31.42 238.78
  Z
  M 48.44 252.19
  C 62.12 243.71 47.79 220.63 38.69 234.44
  Q 34.92 240.15 37.06 245.94
  C 38.64 250.20 43.79 255.07 48.44 252.19
  Z"
/>
<path fill="#000000" d="
  M 278.96 256.02
  C 276.86 255.07 272.10 251.56 273.27 248.73
  C 274.73 245.19 278.64 249.43 279.84 250.62
  C 283.52 254.27 288.87 254.98 291.79 250.10
  Q 293.28 247.62 290.80 246.13
  C 285.35 242.85 278.34 244.30 274.26 237.34
  Q 273.43 235.93 274.04 234.40
  C 278.39 223.56 292.61 223.10 297.07 233.79
  A 1.21 1.08 48.8 0 1 297.06 234.72
  Q 295.98 236.91 293.01 235.33
  Q 291.97 234.78 291.31 233.81
  C 284.99 224.55 271.78 236.77 286.11 239.19
  C 288.91 239.67 291.86 240.64 293.92 242.29
  C 300.12 247.25 297.11 253.85 290.93 256.46
  Q 285.23 258.87 278.96 256.02
  Z"
/>
<path fill="#000000" d="
  M 107.81 227.19
  C 110.48 228.79 110.39 231.10 111.20 233.68
  Q 114.27 243.44 118.01 252.96
  Q 119.00 255.49 116.50 256.25
  Q 114.14 256.97 113.31 254.19
  Q 111.62 248.49 105.74 249.88
  Q 105.26 249.99 104.77 249.87
  Q 99.96 248.70 98.61 253.73
  Q 98.18 255.33 96.73 256.14
  Q 94.35 257.46 93.39 254.48
  A 1.30 1.17 -43.3 0 1 93.47 253.55
  Q 95.83 248.83 96.75 245.00
  C 98.01 239.77 100.13 236.52 101.75 230.61
  C 102.62 227.44 104.32 225.09 107.81 227.19
  Z
  M 108.87 240.91
  C 107.97 238.48 105.20 231.40 103.07 239.08
  Q 102.57 240.89 101.92 242.64
  C 100.60 246.20 111.73 248.69 108.87 240.91
  Z"
/>
<path fill="#000000" d="
  M 173.03 226.61
  Q 175.02 226.90 175.04 228.90
  Q 175.23 241.66 175.17 253.25
  Q 175.15 257.17 171.54 256.32
  A 1.40 1.38 78.5 0 1 170.75 255.79
  Q 168.91 253.26 169.92 250.01
  Q 169.96 249.87 169.95 249.73
  C 169.65 244.83 170.31 240.27 170.06 236.26
  C 169.89 233.53 167.82 225.85 173.03 226.61
  Z"
/>
<path fill="#000000" d="
  M 249.19 250.15
  C 252.55 255.06 259.58 253.44 260.64 247.87
  Q 260.71 247.52 260.83 241.61
  Q 260.97 235.46 260.82 229.31
  A 1.40 1.32 65.4 0 1 261.12 228.42
  Q 263.75 225.18 265.65 227.89
  C 267.23 230.16 266.26 233.50 266.00 236.12
  C 265.62 240.02 266.98 246.78 266.25 249.00
  Q 263.11 258.54 252.74 257.30
  C 246.90 256.60 242.70 252.90 242.80 246.86
  Q 242.94 238.80 242.70 229.35
  Q 242.65 227.28 244.69 226.92
  Q 248.43 226.27 248.28 229.93
  C 248.11 233.85 247.26 247.33 249.19 250.15
  Z"
/>
<path fill="#000000" d="
  M 317.10 253.41
  C 317.45 258.69 310.22 256.80 311.56 250.76
  Q 312.37 247.08 311.82 243.42
  C 311.07 238.43 315.66 229.57 305.44 231.39
  Q 303.51 231.74 302.42 230.10
  C 300.52 227.21 304.05 226.46 306.18 226.62
  Q 314.85 227.26 323.52 226.60
  C 325.49 226.45 326.81 227.09 326.74 229.18
  A 1.34 1.27 -22.2 0 1 326.34 230.06
  Q 324.35 232.02 321.32 231.41
  C 316.05 230.36 316.79 233.72 316.72 237.17
  Q 316.55 245.30 317.10 253.41
  Z"
/>
<path fill="#000000" d="
  M 372.49 238.53
  Q 374.28 239.04 374.84 237.26
  Q 376.55 231.82 379.97 227.94
  A 1.46 1.33 -72.1 0 1 380.79 227.47
  C 388.60 226.11 378.68 238.86 376.50 242.25
  C 374.29 245.68 375.00 251.25 375.00 255.25
  A 1.45 1.23 69.0 0 1 374.69 256.14
  Q 372.73 258.44 370.58 256.13
  A 1.38 1.16 -70.1 0 1 370.25 255.24
  C 370.28 251.47 370.97 246.75 369.14 243.33
  Q 365.60 236.72 361.23 229.84
  Q 359.95 227.82 362.22 227.11
  C 368.20 225.21 368.30 237.33 372.49 238.53
  Z"
/>
<path fill="#000000" d="
  M 511.51 256.36
  C 505.20 256.20 507.22 252.97 507.27 248.92
  Q 507.37 241.28 507.42 235.22
  Q 507.44 233.30 506.83 231.47
  Q 505.73 228.21 508.25 227.25
  Q 511.77 225.91 511.81 228.19
  Q 511.98 237.13 512.00 246.08
  C 512.00 248.57 511.43 250.77 514.02 251.98
  C 516.20 252.99 521.50 252.17 524.25 252.25
  Q 527.87 252.35 527.00 254.75
  Q 526.13 257.14 523.85 256.86
  C 519.76 256.36 515.63 256.47 511.51 256.36
  Z"
/>
<path fill="#000000" d="
  M 565.67 256.06
  Q 563.65 255.94 563.49 253.93
  C 562.85 245.71 563.80 237.23 563.12 229.06
  Q 562.93 226.76 565.23 227.00
  C 572.16 227.71 579.40 225.85 584.30 231.89
  C 589.32 238.08 589.04 247.68 582.64 253.15
  C 578.57 256.62 570.70 256.35 565.67 256.06
  Z
  M 569.07 232.43
  Q 568.56 233.44 568.57 234.57
  Q 568.60 239.34 568.71 244.68
  C 568.80 248.41 566.92 252.25 573.06 252.04
  C 586.74 251.58 586.91 232.51 573.16 231.12
  C 571.21 230.92 570.23 230.11 569.07 232.43
  Z"
/>
<path fill="#000000" d="
  M 78.07 256.53
  C 70.20 263.26 70.72 235.83 65.66 239.97
  A 1.08 0.87 72.6 0 0 65.33 240.81
  L 66.15 255.19
  A 1.46 1.19 66.4 0 1 65.90 256.09
  Q 63.64 259.03 61.13 256.15
  A 1.84 1.83 -63.0 0 1 60.68 254.75
  Q 61.90 241.77 61.04 229.49
  A 1.05 0.96 68.2 0 1 61.35 228.66
  Q 63.41 226.78 65.78 227.42
  C 70.54 228.71 71.02 235.76 72.21 239.50
  Q 73.22 242.68 74.28 245.84
  A 1.18 1.00 88.8 0 0 74.88 246.52
  Q 77.43 247.53 78.00 244.00
  Q 78.96 238.11 82.86 229.02
  A 1.79 1.51 89.3 0 1 83.47 228.28
  Q 86.78 226.12 89.58 228.71
  A 1.16 1.14 -69.1 0 1 89.95 229.56
  L 89.83 256.07
  A 0.99 0.97 72.7 0 1 89.42 256.87
  C 82.97 261.51 85.97 244.72 86.20 242.79
  A 3.24 3.22 25.7 0 0 85.27 240.15
  C 82.68 237.55 78.91 254.25 78.55 255.70
  A 1.66 1.36 80.6 0 1 78.07 256.53
  Z"
/>
<path fill="#000000" d="
  M 209.36 228.14
  A 1.76 1.76 -69.8 0 1 210.11 229.76
  Q 209.40 237.54 209.96 244.44
  C 210.27 248.21 209.57 251.85 209.67 255.69
  A 0.99 0.91 71.9 0 1 209.30 256.50
  C 206.82 258.31 204.86 256.78 203.38 254.55
  Q 199.37 248.52 194.31 239.94
  Q 192.91 237.55 191.11 239.15
  A 1.25 1.07 72.7 0 0 190.74 240.01
  Q 190.73 242.12 191.07 244.19
  C 191.68 247.89 190.84 251.00 191.64 254.76
  A 1.27 1.11 58.7 0 1 191.48 255.68
  Q 189.28 259.00 186.62 255.83
  A 1.49 1.23 -69.1 0 1 186.32 254.94
  L 186.32 229.06
  A 1.04 0.92 73.8 0 1 186.70 228.26
  Q 190.21 225.74 192.76 229.48
  Q 197.62 236.58 201.84 244.09
  C 202.56 245.37 204.06 247.11 205.25 245.01
  C 206.25 243.23 204.95 241.58 205.04 239.72
  Q 205.27 235.10 205.07 230.48
  C 204.94 227.43 206.68 226.29 209.36 228.14
  Z"
/>
<path fill="#000000" d="
  M 334.28 256.53
  Q 332.22 254.96 332.94 251.94
  Q 334.03 247.32 333.19 242.17
  C 332.55 238.29 333.99 234.52 333.00 231.00
  C 332.09 227.76 333.58 227.17 336.42 227.34
  C 342.32 227.70 350.14 225.99 353.51 230.00
  Q 358.24 235.62 352.13 241.46
  A 1.50 1.49 49.9 0 0 351.97 243.44
  Q 354.84 247.27 355.54 251.40
  C 356.08 254.56 355.05 260.28 350.62 254.83
  A 1.33 1.16 -65.0 0 1 350.36 253.94
  Q 351.07 244.08 340.32 244.26
  Q 338.54 244.29 338.10 246.02
  Q 337.21 249.57 337.94 252.47
  Q 338.98 256.61 335.18 256.80
  A 1.38 1.30 -26.7 0 1 334.28 256.53
  Z
  M 337.75 232.62
  Q 337.09 235.79 337.86 238.33
  A 2.95 2.93 89.9 0 0 339.78 240.26
  C 343.21 241.35 352.78 240.42 350.54 234.58
  C 349.00 230.53 341.81 230.79 338.59 231.72
  A 1.20 1.20 -2.1 0 0 337.75 232.62
  Z"
/>
<path fill="#000000" d="
  M 543.92 256.31
  A 1.93 1.92 5.3 0 1 542.32 254.39
  Q 542.41 245.56 542.82 236.44
  C 543.27 226.70 532.81 235.31 532.76 229.40
  Q 532.74 227.21 534.97 227.22
  L 555.68 227.32
  A 1.50 1.01 -16.3 0 1 556.58 227.61
  Q 557.36 228.30 557.47 229.29
  C 558.14 235.48 546.53 226.82 547.50 235.75
  C 547.91 239.48 547.36 245.72 547.62 253.59
  Q 547.72 256.96 543.92 256.31
  Z"
/>
<path fill="#000000" d="
  M 145.12 230.88
  C 149.57 235.16 150.87 243.86 148.00 249.00
  C 143.12 257.76 136.99 256.02 128.23 256.25
  Q 124.81 256.34 125.09 252.93
  Q 125.97 242.25 124.97 230.13
  Q 124.76 227.54 127.35 227.49
  C 133.16 227.37 140.47 226.41 145.12 230.88
  Z
  M 138.49 232.01
  C 135.57 230.97 129.63 229.82 130.50 235.25
  Q 131.58 242.00 130.50 248.77
  Q 130.13 251.06 132.39 251.57
  C 146.73 254.83 149.28 235.88 138.49 232.01
  Z"
/>
<path fill="#000000" d="
  M 235.04 231.87
  C 241.44 239.24 239.61 252.48 229.83 255.95
  C 225.92 257.34 221.47 256.35 217.18 256.62
  Q 214.54 256.78 214.51 254.13
  Q 214.41 242.80 214.49 232.72
  C 214.52 229.48 214.00 226.67 218.75 227.50
  C 224.41 228.49 230.13 226.24 235.04 231.87
  Z
  M 231.47 249.49
  C 236.51 244.17 234.38 232.87 226.30 231.73
  C 223.29 231.31 219.06 230.58 219.34 235.18
  Q 219.84 243.31 219.50 246.75
  C 218.67 255.09 228.06 253.10 231.47 249.49
  Z"
/>
<ellipse fill="#000000" cx="0.00" cy="0.00" transform="translate(471.55,253.02) rotate(12.9)" rx="2.91" ry="2.68"/>
<path fill="#000000" d="
  M 482.14 261.75
  Q 480.17 262.01 481.55 260.57
  C 485.34 256.64 479.32 255.48 480.32 252.38
  C 481.14 249.86 483.98 250.09 485.40 251.90
  A 1.67 1.36 -69.8 0 1 485.71 252.80
  C 485.85 256.54 486.26 261.22 482.14 261.75
  Z"
/>
<ellipse fill="#000000" cx="0.00" cy="0.00" transform="translate(591.58,253.21) rotate(10.3)" rx="3.03" ry="2.72"/>
</svg>
