<?xml version="1.0" encoding="UTF-8" standalone="no"?>
<!DOCTYPE svg PUBLIC "-//W3C//DTD SVG 1.1//EN" "http://www.w3.org/Graphics/SVG/1.1/DTD/svg11.dtd">
<svg xmlns="http://www.w3.org/2000/svg" version="1.1" viewBox="0 0 600 300">
<g stroke-width="2.00" fill="none" stroke-linecap="butt">
<path stroke="#0077a9" stroke-opacity="0.667" vector-effect="non-scaling-stroke" d="
  M 345.00 106.46
  L 327.81 138.32"
/>
<path stroke="#0093d6" vector-effect="non-scaling-stroke" d="
  M 327.81 138.32
  Q 326.53 141.25 324.63 139.82
  A 1.62 1.34 59.8 0 0 323.76 139.50
  L 313.71 139.25"
/>
<path stroke="#007fc3" vector-effect="non-scaling-stroke" d="
  M 324.71 144.25
  Q 322.38 147.06 321.03 150.47
  Q 320.37 152.16 319.86 151.04
  A 0.86 0.79 78.8 0 0 319.19 150.55
  L 308.18 149.70"
/>
<path stroke="#00346b" stroke-opacity="0.667" vector-effect="non-scaling-stroke" d="
  M 271.79 186.75
  C 274.34 192.48 279.70 199.03 286.24 199.43
  C 292.38 199.81 298.03 194.60 300.25 189.29"
/>
<path stroke="#004277" stroke-opacity="0.667" vector-effect="non-scaling-stroke" d="
  M 300.25 189.29
  L 316.50 159.29"
/>
<path stroke="#00588c" stroke-opacity="0.667" vector-effect="non-scaling-stroke" d="
  M 316.50 159.29
  L 324.71 144.25"
/>
<path stroke="#006799" stroke-opacity="0.667" vector-effect="non-scaling-stroke" d="
  M 324.71 144.25
  L 327.81 138.32"
/>
<path stroke="#0066ac" vector-effect="non-scaling-stroke" d="
  M 316.50 159.29
  Q 315.57 161.01 314.94 160.24
  A 1.38 0.76 62.6 0 0 314.19 159.74
  C 310.70 159.26 306.07 160.28 303.29 158.75"
/>
<path stroke="#004e95" vector-effect="non-scaling-stroke" d="
  M 300.25 189.29
  L 298.85 187.85
  A 1.36 0.71 -9.9 0 0 297.93 187.56
  C 294.51 187.53 275.42 186.65 273.67 187.84
  A 0.41 0.36 -31.5 0 1 273.10 187.74
  Q 272.37 186.33 271.04 185.50"
/>
<path stroke="#0060a6" vector-effect="non-scaling-stroke" d="
  M 282.12 164.02
  Q 273.56 166.00 264.83 165.37
  C 263.56 165.28 263.00 165.73 261.91 166.13
  A 0.49 0.48 69.5 0 1 261.29 165.84
  Q 260.71 164.29 259.25 163.54"
/>
<path stroke="#0073b8" vector-effect="non-scaling-stroke" d="
  M 276.80 154.11
  Q 265.82 155.06 254.79 155.00"
/>
<path stroke="#0086ca" vector-effect="non-scaling-stroke" d="
  M 272.35 145.79
  L 253.06 146.32
  Q 252.62 146.34 252.16 146.59
  Q 251.02 147.23 250.04 146.00"
/>
<path stroke="#0097d9" vector-effect="non-scaling-stroke" d="
  M 267.57 136.53
  L 248.01 137.24
  A 1.03 0.95 -72.1 0 0 247.25 137.67
  C 246.20 139.19 245.66 136.12 244.54 135.50"
/>
<path stroke="#0093d6" vector-effect="non-scaling-stroke" d="
  M 112.75 139.04
  C 110.29 136.87 108.50 137.51 105.61 137.49
  Q 99.06 137.44 92.42 137.50"
/>
<path stroke="#00709e" stroke-opacity="0.710" vector-effect="non-scaling-stroke" d="
  M 91.21 119.25
  C 89.17 116.37 86.88 115.26 83.17 115.22
  Q 46.48 114.81 9.79 115.01"
/>
<path stroke="#006292" stroke-opacity="0.698" vector-effect="non-scaling-stroke" d="
  M 110.50 144.71
  Q 108.60 147.81 106.34 149.38"
/>
<path stroke="#0082c5" vector-effect="non-scaling-stroke" d="
  M 106.34 149.38
  Q 96.73 147.80 82.25 148.25
  Q 57.85 149.01 20.22 147.54"
/>
<path stroke="#004678" stroke-opacity="0.698" vector-effect="non-scaling-stroke" d="
  M 30.72 165.20
  Q 31.43 160.21 35.25 157.29"
/>
<path stroke="#005889" stroke-opacity="0.698" vector-effect="non-scaling-stroke" d="
  M 35.25 157.29
  Q 37.87 155.75 39.50 155.75
  Q 64.38 155.75 89.25 155.75
  Q 99.13 155.75 106.34 149.38"
/>
<path stroke="#006fb3" vector-effect="non-scaling-stroke" d="
  M 35.25 157.29
  Q 31.77 155.97 27.50 156.25
  Q 21.00 156.68 12.67 156.17"
/>
<path stroke="#00579d" vector-effect="non-scaling-stroke" d="
  M 30.21 168.25
  L 29.53 172.76
  A 0.54 0.52 3.8 0 1 29.01 173.20
  Q 28.37 173.22 27.85 173.65
  A 1.57 1.22 -59.3 0 1 26.99 173.99
  L 10.74 174.23
  A 0.41 0.38 -85.4 0 1 10.37 173.76
  Q 10.50 172.84 9.75 172.71"
/>
<path stroke="#003669" stroke-opacity="0.698" vector-effect="non-scaling-stroke" d="
  M 29.45 200.39
  Q 20.43 198.41 10.20 200.25"
/>
<path stroke="#00709e" stroke-opacity="0.710" vector-effect="non-scaling-stroke" d="
  M 218.50 114.79
  Q 200.37 114.96 182.24 115.20
  C 176.45 115.28 172.91 117.10 171.21 122.56"
/>
<path stroke="#0097d9" vector-effect="non-scaling-stroke" d="
  M 170.21 136.25
  Q 169.66 130.12 169.75 136.65
  A 0.80 0.79 -89.7 0 1 168.94 137.46
  C 166.29 137.39 150.83 137.03 150.21 138.46
  Q 150.11 138.68 150.06 138.45
  L 149.79 137.25"
/>
<path stroke="#0085c9" vector-effect="non-scaling-stroke" d="
  M 170.21 142.75
  Q 169.79 140.04 169.70 142.42
  A 0.28 0.28 -88.9 0 1 169.42 142.69
  Q 160.37 142.75 151.31 142.74
  Q 150.48 142.74 150.19 143.46
  Q 150.10 143.68 150.07 143.45
  L 149.79 141.25"
/>
<path stroke="#006aaf" vector-effect="non-scaling-stroke" d="
  M 170.21 158.25
  Q 169.63 158.89 169.52 159.75
  A 0.56 0.49 -85.7 0 1 169.01 160.25
  L 149.61 159.80"
/>
<path stroke="#004f96" vector-effect="non-scaling-stroke" d="
  M 169.75 178.79
  C 169.32 179.64 167.76 186.08 166.82 185.14
  A 1.42 1.02 62.0 0 0 165.99 184.73
  C 161.51 184.52 152.70 183.56 148.62 184.75
  Q 147.35 185.12 147.33 183.81"
/>
<path stroke="#003265" stroke-opacity="0.698" vector-effect="non-scaling-stroke" d="
  M 168.50 184.90
  Q 163.34 195.22 153.39 198.25
  C 145.05 200.80 130.01 199.38 119.50 199.79"
/>
<path stroke="#002349" stroke-opacity="0.996" vector-effect="non-scaling-stroke" d="
  M 119.50 199.79
  Q 110.72 199.73 102.00 200.71"
/>
<path stroke="#0097d9" vector-effect="non-scaling-stroke" d="
  M 379.46 139.50
  C 379.20 138.72 379.47 133.15 378.79 137.05
  Q 378.75 137.24 378.64 137.07
  Q 377.91 135.94 376.50 136.02
  Q 368.37 136.53 360.44 136.01
  A 0.75 0.73 -88.8 0 1 359.75 135.27
  L 359.45 107.18"
/>
<path stroke="#0082c6" vector-effect="non-scaling-stroke" d="
  M 379.46 149.50
  Q 379.19 146.02 378.75 148.78
  A 0.47 0.46 -83.7 0 1 378.27 149.17
  Q 370.04 148.76 361.80 149.13
  C 359.82 149.22 358.89 148.20 359.04 146.25"
/>
<path stroke="#0067ad" vector-effect="non-scaling-stroke" d="
  M 379.50 158.76
  Q 370.13 159.85 360.70 159.76
  A 0.51 0.49 -85.5 0 0 360.20 160.20
  Q 359.95 162.00 359.70 160.47
  Q 359.22 157.63 359.04 154.75"
/>
<path stroke="#004f96" vector-effect="non-scaling-stroke" d="
  M 379.46 189.50
  Q 379.51 187.00 378.75 188.00
  Q 378.04 187.73 377.51 187.20
  A 1.19 1.03 64.9 0 0 376.68 186.83
  L 360.57 186.95
  A 0.50 0.50 0.0 0 1 360.07 186.45
  Q 360.07 184.13 359.84 185.51
  Q 359.50 187.56 359.47 185.50
  Q 359.41 181.99 359.04 178.50"
/>
<path stroke="#002349" stroke-opacity="0.996" vector-effect="non-scaling-stroke" d="
  M 379.21 200.25
  Q 369.52 199.10 359.37 200.31"
/>
<path stroke="#0071a1" stroke-opacity="0.698" vector-effect="non-scaling-stroke" d="
  M 487.00 114.79
  C 479.68 114.70 451.05 114.12 449.96 115.75"
/>
<path stroke="#0097d9" vector-effect="non-scaling-stroke" d="
  M 449.96 115.75
  C 449.08 116.66 449.50 131.29 449.33 136.55
  A 0.40 0.39 7.9 0 1 448.84 136.91
  C 444.02 135.86 436.00 136.88 430.65 136.94
  A 0.62 0.61 81.4 0 0 430.07 137.73
  Q 430.31 138.56 429.54 138.75"
/>
<path stroke="#0071a1" stroke-opacity="0.698" vector-effect="non-scaling-stroke" d="
  M 429.48 118.19
  Q 430.54 114.88 427.40 114.95
  C 415.76 115.22 403.98 114.62 392.27 114.88"
/>
<path stroke="#006797" stroke-opacity="0.698" vector-effect="non-scaling-stroke" d="
  M 449.99 118.21
  L 449.96 115.75"
/>
<path stroke="#0089cc" vector-effect="non-scaling-stroke" d="
  M 449.88 139.43
  Q 449.20 141.40 449.52 143.50
  Q 449.87 145.89 448.56 144.89
  A 1.46 1.16 58.0 0 0 447.68 144.58
  C 444.64 144.71 431.69 145.60 429.80 144.11
  A 0.15 0.14 -67.1 0 1 429.75 143.98
  Q 429.91 142.84 429.54 141.75"
/>
<path stroke="#0079bd" vector-effect="non-scaling-stroke" d="
  M 449.96 149.50
  Q 449.36 150.11 449.58 151.52
  A 0.45 0.45 84.5 0 1 449.15 152.05
  L 431.06 152.32
  A 1.39 0.89 -57.4 0 0 430.24 152.70
  Q 429.53 153.36 429.54 151.25"
/>
<path stroke="#0067ab" vector-effect="non-scaling-stroke" d="
  M 450.11 159.12
  Q 440.97 160.92 431.62 160.52
  C 431.19 160.50 430.62 160.20 430.14 160.57
  A 0.20 0.20 -23.3 0 1 429.82 160.45
  L 429.54 158.75"
/>
<path stroke="#005399" vector-effect="non-scaling-stroke" d="
  M 449.96 171.50
  Q 449.17 173.80 449.62 177.15
  A 0.57 0.57 85.5 0 1 449.07 177.80
  L 431.06 178.19
  A 1.01 0.80 -83.4 0 0 430.25 179.00
  L 429.54 182.50"
/>
<path stroke="#00254b" stroke-opacity="0.996" vector-effect="non-scaling-stroke" d="
  M 449.91 200.00
  Q 439.68 199.32 430.00 200.29"
/>
<path stroke="#0093d6" vector-effect="non-scaling-stroke" d="
  M 553.79 135.50
  L 553.59 136.26
  A 0.70 0.60 -81.6 0 1 553.00 136.77
  L 534.50 137.00
  A 1.31 0.90 -61.5 0 0 533.70 137.41
  Q 532.97 138.20 532.04 137.00"
/>
<path stroke="#0071a1" stroke-opacity="0.698" vector-effect="non-scaling-stroke" d="
  M 526.00 127.46
  Q 522.05 125.90 520.06 129.06
  Q 518.36 131.77 511.54 144.50"
/>
<path stroke="#008ed1" vector-effect="non-scaling-stroke" d="
  M 511.54 144.50
  Q 510.48 145.43 509.88 146.72
  A 0.33 0.32 33.9 0 1 509.36 146.81
  Q 509.05 146.52 508.75 146.50
  Q 505.76 146.27 497.16 146.07"
/>
<path stroke="#004b7d" stroke-opacity="0.698" vector-effect="non-scaling-stroke" d="
  M 500.29 166.00
  L 508.50 150.04"
/>
<path stroke="#005a8b" stroke-opacity="0.698" vector-effect="non-scaling-stroke" d="
  M 508.50 150.04
  L 511.54 144.50"
/>
<path stroke="#0073b8" vector-effect="non-scaling-stroke" d="
  M 508.50 150.04
  L 505.87 154.48
  A 0.90 0.69 -70.4 0 1 505.18 154.93
  L 492.71 154.41"
/>
<path stroke="#007cc0" vector-effect="non-scaling-stroke" d="
  M 562.37 151.82
  Q 552.26 153.39 542.06 152.81
  A 1.75 0.73 -0.2 0 1 540.56 152.19
  Q 539.88 150.04 538.25 148.54"
/>
<path stroke="#0060a6" vector-effect="non-scaling-stroke" d="
  M 499.98 166.28
  Q 494.37 164.98 488.51 164.94
  A 0.17 0.14 -86.5 0 1 488.37 164.75
  L 488.39 164.55
  Q 488.44 164.12 488.00 164.50
  Q 487.52 164.92 487.46 164.25"
/>
<path stroke="#005097" vector-effect="non-scaling-stroke" d="
  M 575.70 176.53
  Q 576.97 178.85 575.24 179.45
  A 1.19 0.75 -75.7 0 0 574.68 179.98
  C 574.51 180.30 559.39 180.65 557.75 180.73
  A 0.75 0.68 6.3 0 0 557.07 181.22
  L 556.92 181.70
  Q 556.82 182.02 556.58 181.75
  L 555.50 180.54"
/>
<path stroke="#003f71" stroke-opacity="0.698" vector-effect="non-scaling-stroke" d="
  M 555.50 180.54
  Q 554.57 179.50 552.50 179.50
  Q 524.25 179.50 494.89 179.50
  Q 492.95 179.50 492.07 181.14
  L 483.08 198.03
  A 2.20 1.93 -74.2 0 1 481.29 199.19
  L 468.90 199.13"
/>
<path stroke="#0064a9" vector-effect="non-scaling-stroke" d="
  M 566.80 160.04
  L 545.94 161.28
  A 0.80 0.77 79.8 0 1 545.14 160.70
  Q 544.55 158.69 543.04 157.75"
/>
<path stroke="#00254b" stroke-opacity="0.996" vector-effect="non-scaling-stroke" d="
  M 587.90 199.58
  L 583.00 199.79"
/>
<path stroke="#003567" stroke-opacity="0.698" vector-effect="non-scaling-stroke" d="
  M 583.00 199.79
  L 566.33 199.55
  A 1.49 1.47 75.5 0 1 565.06 198.79
  L 562.79 194.75"
/>
<path stroke="#003567" stroke-opacity="0.698" vector-effect="non-scaling-stroke" d="
  M 556.71 183.25
  L 555.50 180.54"
/>
</g>
<path fill="#009ee0" d="
  M 112.75 139.04
  C 110.29 136.87 108.50 137.51 105.61 137.49
  Q 99.06 137.44 92.42 137.50
  Q 95.86 127.97 91.21 119.25
  C 89.17 116.37 86.88 115.26 83.17 115.22
  Q 46.48 114.81 9.79 115.01
  L 9.80 103.87
  A 0.88 0.86 -0.3 0 1 10.67 103.01
  Q 50.12 102.73 87.97 103.18
  Q 95.02 103.26 98.84 104.67
  C 112.67 109.73 116.91 125.74 112.75 139.04
  Z"
/>
<path fill="#009ee0" d="
  M 218.50 114.79
  Q 200.37 114.96 182.24 115.20
  C 176.45 115.28 172.91 117.10 171.21 122.56
  Q 169.80 129.20 170.21 136.25
  Q 169.66 130.12 169.75 136.65
  A 0.80 0.79 -89.7 0 1 168.94 137.46
  C 166.29 137.39 150.83 137.03 150.21 138.46
  Q 150.11 138.68 150.06 138.45
  L 149.79 137.25
  C 149.12 123.91 150.89 110.25 164.69 104.87
  Q 168.77 103.27 176.53 103.06
  Q 196.75 102.51 217.65 103.02
  A 1.08 1.02 1.4 0 1 218.70 104.06
  L 218.50 114.79
  Z"
/>
<path fill="#009ee0" d="
  M 267.57 136.53
  L 248.01 137.24
  A 1.03 0.95 -72.1 0 0 247.25 137.67
  C 246.20 139.19 245.66 136.12 244.54 135.50
  L 227.74 104.24
  A 0.89 0.89 75.9 0 1 228.52 102.93
  L 248.39 102.99
  A 2.56 2.51 75.9 0 1 250.63 104.36
  L 267.57 136.53
  Z"
/>
<path fill="#009ee0" d="
  M 335.00 102.96
  L 346.05 102.84
  Q 346.10 104.92 345.00 106.46
  L 327.81 138.32
  Q 326.53 141.25 324.63 139.82
  A 1.62 1.34 59.8 0 0 323.76 139.50
  L 313.71 139.25
  Q 323.00 121.55 332.48 103.96
  Q 333.31 102.42 335.00 102.96
  Z"
/>
<path fill="#009ee0" d="
  M 379.46 139.50
  C 379.20 138.72 379.47 133.15 378.79 137.05
  Q 378.75 137.24 378.64 137.07
  Q 377.91 135.94 376.50 136.02
  Q 368.37 136.53 360.44 136.01
  A 0.75 0.73 -88.8 0 1 359.75 135.27
  L 359.45 107.18
  Q 358.98 105.50 359.37 103.74
  A 0.67 0.67 -83.9 0 1 360.01 103.22
  L 378.33 103.03
  A 1.13 1.10 89.7 0 1 379.44 104.16
  L 379.46 139.50
  Z"
/>
<path fill="#009ee0" d="
  M 487.00 114.79
  C 479.68 114.70 451.05 114.12 449.96 115.75
  C 449.08 116.66 449.50 131.29 449.33 136.55
  A 0.40 0.39 7.9 0 1 448.84 136.91
  C 444.02 135.86 436.00 136.88 430.65 136.94
  A 0.62 0.61 81.4 0 0 430.07 137.73
  Q 430.31 138.56 429.54 138.75
  L 429.48 118.19
  Q 430.54 114.88 427.40 114.95
  C 415.76 115.22 403.98 114.62 392.27 114.88
  Q 391.53 108.89 392.41 103.77
  A 0.93 0.92 4.7 0 1 393.33 103.00
  L 486.19 103.00
  A 0.97 0.91 0.3 0 1 487.16 103.92
  L 487.00 114.79
  Z"
/>
<path fill="#009ee0" d="
  M 553.79 135.50
  L 553.59 136.26
  A 0.70 0.60 -81.6 0 1 553.00 136.77
  L 534.50 137.00
  A 1.31 0.90 -61.5 0 0 533.70 137.41
  Q 532.97 138.20 532.04 137.00
  Q 529.82 131.70 526.00 127.46
  Q 522.05 125.90 520.06 129.06
  Q 518.36 131.77 511.54 144.50
  Q 510.48 145.43 509.88 146.72
  A 0.33 0.32 33.9 0 1 509.36 146.81
  Q 509.05 146.52 508.75 146.50
  Q 505.76 146.27 497.16 146.07
  C 502.57 135.67 508.31 125.48 513.52 115.07
  C 520.56 101.00 534.02 97.87 542.19 113.65
  C 545.98 120.97 550.04 128.15 553.79 135.50
  Z"
/>
<path fill="#020102" fill-opacity="0.329" d="
  M 345.00 106.46
  Q 345.78 106.60 345.50 107.50
  Q 344.92 109.35 343.75 111.00
  C 340.75 115.23 338.76 120.02 336.41 124.29
  Q 335.38 126.17 334.43 128.08
  Q 333.38 130.19 332.42 131.84
  Q 327.27 140.67 322.69 149.81
  C 322.01 151.16 320.56 153.01 320.15 155.08
  A 1.68 1.46 -18.9 0 1 319.68 155.89
  Q 318.33 157.13 318.25 159.00
  Q 318.23 159.53 317.99 159.92
  Q 315.72 163.57 311.19 173.19
  Q 310.15 175.39 304.50 184.50
  Q 303.87 185.52 303.40 185.96
  Q 302.94 186.39 302.81 186.71
  C 299.32 195.20 292.17 206.84 282.00 201.50
  Q 278.50 199.66 275.73 195.42
  Q 275.44 194.99 274.68 192.92
  C 273.81 190.56 271.80 189.70 271.79 186.75
  C 274.34 192.48 279.70 199.03 286.24 199.43
  C 292.38 199.81 298.03 194.60 300.25 189.29
  L 316.50 159.29
  L 324.71 144.25
  L 327.81 138.32
  L 345.00 106.46
  Z"
/>
<path fill="#008fd2" d="
  M 379.46 139.50
  L 379.46 149.50
  Q 379.19 146.02 378.75 148.78
  A 0.47 0.46 -83.7 0 1 378.27 149.17
  Q 370.04 148.76 361.80 149.13
  C 359.82 149.22 358.89 148.20 359.04 146.25
  L 359.45 107.18
  L 359.75 135.27
  A 0.75 0.73 -88.8 0 0 360.44 136.01
  Q 368.37 136.53 376.50 136.02
  Q 377.91 135.94 378.64 137.07
  Q 378.75 137.24 378.79 137.05
  C 379.47 133.15 379.20 138.72 379.46 139.50
  Z"
/>
<path fill="#000101" fill-opacity="0.420" d="
  M 9.79 115.01
  Q 46.48 114.81 83.17 115.22
  C 86.88 115.26 89.17 116.37 91.21 119.25
  Q 90.16 118.99 89.86 119.76
  A 0.56 0.47 -70.4 0 1 89.26 120.11
  C 87.04 119.44 85.51 118.25 83.12 118.25
  Q 47.31 118.25 11.50 118.25
  A 0.91 0.89 -15.3 0 1 10.73 117.82
  Q 9.86 116.34 9.79 115.01
  Z"
/>
<path fill="#000101" fill-opacity="0.420" d="
  M 218.50 114.79
  C 219.82 118.91 216.94 118.26 214.35 118.24
  Q 196.05 118.08 177.75 118.49
  A 1.80 1.50 -58.3 0 0 176.85 118.79
  L 171.21 122.56
  C 172.91 117.10 176.45 115.28 182.24 115.20
  Q 200.37 114.96 218.50 114.79
  Z"
/>
<path fill="#010101" fill-opacity="0.396" d="
  M 392.27 114.88
  C 403.98 114.62 415.76 115.22 427.40 114.95
  Q 430.54 114.88 429.48 118.19
  Q 411.98 117.85 394.50 117.99
  Q 391.11 118.01 392.27 114.88
  Z"
/>
<path fill="#010101" fill-opacity="0.396" d="
  M 487.00 114.79
  Q 487.26 116.26 486.51 117.31
  A 1.12 0.84 12.6 0 1 485.69 117.68
  L 449.99 118.21
  L 449.96 115.75
  C 451.05 114.12 479.68 114.70 487.00 114.79
  Z"
/>
<path fill="#008fd2" d="
  M 449.96 115.75
  L 449.99 118.21
  L 449.88 139.43
  Q 449.20 141.40 449.52 143.50
  Q 449.87 145.89 448.56 144.89
  A 1.46 1.16 58.0 0 0 447.68 144.58
  C 444.64 144.71 431.69 145.60 429.80 144.11
  A 0.15 0.14 -67.1 0 1 429.75 143.98
  Q 429.91 142.84 429.54 141.75
  L 429.54 138.75
  Q 430.31 138.56 430.07 137.73
  A 0.62 0.61 81.4 0 1 430.65 136.94
  C 436.00 136.88 444.02 135.86 448.84 136.91
  A 0.40 0.39 7.9 0 0 449.33 136.55
  C 449.50 131.29 449.08 116.66 449.96 115.75
  Z"
/>
<path fill="#010101" fill-opacity="0.396" d="
  M 526.00 127.46
  C 520.51 127.18 529.77 130.12 524.52 129.38
  C 520.54 128.82 519.88 130.93 517.96 134.34
  Q 511.64 145.61 505.97 157.22
  C 505.43 158.33 504.47 159.06 504.25 160.75
  Q 503.79 164.40 500.29 166.00
  L 508.50 150.04
  L 511.54 144.50
  Q 518.36 131.77 520.06 129.06
  Q 522.05 125.90 526.00 127.46
  Z"
/>
<path fill="#008fd2" d="
  M 170.21 136.25
  L 170.21 142.75
  Q 169.79 140.04 169.70 142.42
  A 0.28 0.28 -88.9 0 1 169.42 142.69
  Q 160.37 142.75 151.31 142.74
  Q 150.48 142.74 150.19 143.46
  Q 150.10 143.68 150.07 143.45
  L 149.79 141.25
  L 149.79 137.25
  L 150.06 138.45
  Q 150.11 138.68 150.21 138.46
  C 150.83 137.03 166.29 137.39 168.94 137.46
  A 0.80 0.79 -89.7 0 0 169.75 136.65
  Q 169.66 130.12 170.21 136.25
  Z"
/>
<path fill="#008fd2" d="
  M 244.54 135.50
  C 245.66 136.12 246.20 139.19 247.25 137.67
  A 1.03 0.95 -72.1 0 1 248.01 137.24
  L 267.57 136.53
  L 272.35 145.79
  L 253.06 146.32
  Q 252.62 146.34 252.16 146.59
  Q 251.02 147.23 250.04 146.00
  L 244.54 135.50
  Z"
/>
<path fill="#0088cb" d="
  M 553.79 135.50
  L 562.37 151.82
  Q 552.26 153.39 542.06 152.81
  A 1.75 0.73 -0.2 0 1 540.56 152.19
  Q 539.88 150.04 538.25 148.54
  L 532.04 137.00
  Q 532.97 138.20 533.70 137.41
  A 1.31 0.90 -61.5 0 1 534.50 137.00
  L 553.00 136.77
  A 0.70 0.60 -81.6 0 0 553.59 136.26
  L 553.79 135.50
  Z"
/>
<path fill="#0088cb" d="
  M 112.75 139.04
  L 110.50 144.71
  Q 108.60 147.81 106.34 149.38
  Q 96.73 147.80 82.25 148.25
  Q 57.85 149.01 20.22 147.54
  Q 24.13 143.70 29.25 143.75
  Q 52.65 143.97 81.50 143.55
  C 86.85 143.47 90.26 142.32 92.42 137.50
  Q 99.06 137.44 105.61 137.49
  C 108.50 137.51 110.29 136.87 112.75 139.04
  Z"
/>
<path fill="#0088cb" d="
  M 327.81 138.32
  L 324.71 144.25
  Q 322.38 147.06 321.03 150.47
  Q 320.37 152.16 319.86 151.04
  A 0.86 0.79 78.8 0 0 319.19 150.55
  L 308.18 149.70
  L 313.71 139.25
  L 323.76 139.50
  A 1.62 1.34 59.8 0 1 324.63 139.82
  Q 326.53 141.25 327.81 138.32
  Z"
/>
<path fill="#0082c6" d="
  M 449.88 139.43
  L 449.96 149.50
  Q 449.36 150.11 449.58 151.52
  A 0.45 0.45 84.5 0 1 449.15 152.05
  L 431.06 152.32
  A 1.39 0.89 -57.4 0 0 430.24 152.70
  Q 429.53 153.36 429.54 151.25
  L 429.54 141.75
  Q 429.91 142.84 429.75 143.98
  A 0.15 0.14 -67.1 0 0 429.80 144.11
  C 431.69 145.60 444.64 144.71 447.68 144.58
  A 1.46 1.16 58.0 0 1 448.56 144.89
  Q 449.87 145.89 449.52 143.50
  Q 449.20 141.40 449.88 139.43
  Z"
/>
<path fill="#007bbf" d="
  M 149.79 141.25
  L 150.07 143.45
  Q 150.10 143.68 150.19 143.46
  Q 150.48 142.74 151.31 142.74
  Q 160.37 142.75 169.42 142.69
  A 0.28 0.28 -88.9 0 0 169.70 142.42
  Q 169.79 140.04 170.21 142.75
  L 170.21 158.25
  Q 169.63 158.89 169.52 159.75
  A 0.56 0.49 -85.7 0 1 169.01 160.25
  L 149.61 159.80
  L 149.79 141.25
  Z"
/>
<path fill="#0075ba" d="
  M 324.71 144.25
  L 316.50 159.29
  Q 315.57 161.01 314.94 160.24
  A 1.38 0.76 62.6 0 0 314.19 159.74
  C 310.70 159.26 306.07 160.28 303.29 158.75
  L 308.18 149.70
  L 319.19 150.55
  A 0.86 0.79 78.8 0 1 319.86 151.04
  Q 320.37 152.16 321.03 150.47
  Q 322.38 147.06 324.71 144.25
  Z"
/>
<path fill="#007dc2" d="
  M 511.54 144.50
  L 508.50 150.04
  L 505.87 154.48
  A 0.90 0.69 -70.4 0 1 505.18 154.93
  L 492.71 154.41
  L 497.16 146.07
  Q 505.76 146.27 508.75 146.50
  Q 509.05 146.52 509.36 146.81
  A 0.33 0.32 33.9 0 0 509.88 146.72
  Q 510.48 145.43 511.54 144.50
  Z"
/>
<path fill="#010101" fill-opacity="0.396" d="
  M 110.50 144.71
  Q 111.21 147.24 109.55 149.29
  Q 101.90 158.73 89.50 158.82
  Q 65.50 159.00 41.50 159.00
  Q 34.76 159.00 30.72 165.20
  Q 31.43 160.21 35.25 157.29
  Q 37.87 155.75 39.50 155.75
  Q 64.38 155.75 89.25 155.75
  Q 99.13 155.75 106.34 149.38
  Q 108.60 147.81 110.50 144.71
  Z"
/>
<path fill="#007dc2" d="
  M 272.35 145.79
  L 276.80 154.11
  Q 265.82 155.06 254.79 155.00
  L 250.04 146.00
  Q 251.02 147.23 252.16 146.59
  Q 252.62 146.34 253.06 146.32
  L 272.35 145.79
  Z"
/>
<path fill="#0075ba" d="
  M 359.04 146.25
  C 358.89 148.20 359.82 149.22 361.80 149.13
  Q 370.04 148.76 378.27 149.17
  A 0.47 0.46 -83.7 0 0 378.75 148.78
  Q 379.19 146.02 379.46 149.50
  L 379.50 158.76
  Q 370.13 159.85 360.70 159.76
  A 0.51 0.49 -85.5 0 0 360.20 160.20
  Q 359.95 162.00 359.70 160.47
  Q 359.22 157.63 359.04 154.75
  L 359.04 146.25
  Z"
/>
<path fill="#007bbf" d="
  M 20.22 147.54
  Q 57.85 149.01 82.25 148.25
  Q 96.73 147.80 106.34 149.38
  Q 99.13 155.75 89.25 155.75
  Q 64.38 155.75 39.50 155.75
  Q 37.87 155.75 35.25 157.29
  Q 31.77 155.97 27.50 156.25
  Q 21.00 156.68 12.67 156.17
  Q 15.29 150.31 20.22 147.54
  Z"
/>
<path fill="#0070b4" d="
  M 538.25 148.54
  Q 539.88 150.04 540.56 152.19
  A 1.75 0.73 -0.2 0 0 542.06 152.81
  Q 552.26 153.39 562.37 151.82
  L 566.80 160.04
  L 545.94 161.28
  A 0.80 0.77 79.8 0 1 545.14 160.70
  Q 544.55 158.69 543.04 157.75
  L 538.25 148.54
  Z"
/>
<path fill="#0070b4" d="
  M 449.96 149.50
  L 450.11 159.12
  Q 440.97 160.92 431.62 160.52
  C 431.19 160.50 430.62 160.20 430.14 160.57
  A 0.20 0.20 -23.3 0 1 429.82 160.45
  L 429.54 158.75
  L 429.54 151.25
  Q 429.53 153.36 430.24 152.70
  A 1.39 0.89 -57.4 0 1 431.06 152.32
  L 449.15 152.05
  A 0.45 0.45 84.5 0 0 449.58 151.52
  Q 449.36 150.11 449.96 149.50
  Z"
/>
<path fill="#0069ae" d="
  M 508.50 150.04
  L 500.29 166.00
  Q 500.24 166.24 499.98 166.28
  Q 494.37 164.98 488.51 164.94
  A 0.17 0.14 -86.5 0 1 488.37 164.75
  L 488.39 164.55
  Q 488.44 164.12 488.00 164.50
  Q 487.52 164.92 487.46 164.25
  L 492.71 154.41
  L 505.18 154.93
  A 0.90 0.69 -70.4 0 0 505.87 154.48
  L 508.50 150.04
  Z"
/>
<path fill="#0069ae" d="
  M 276.80 154.11
  L 282.12 164.02
  Q 273.56 166.00 264.83 165.37
  C 263.56 165.28 263.00 165.73 261.91 166.13
  A 0.49 0.48 69.5 0 1 261.29 165.84
  Q 260.71 164.29 259.25 163.54
  L 254.79 155.00
  Q 265.82 155.06 276.80 154.11
  Z"
/>
<path fill="#00599f" d="
  M 359.04 154.75
  Q 359.22 157.63 359.70 160.47
  Q 359.95 162.00 360.20 160.20
  A 0.51 0.49 -85.5 0 1 360.70 159.76
  Q 370.13 159.85 379.50 158.76
  L 379.46 189.50
  Q 379.51 187.00 378.75 188.00
  Q 378.04 187.73 377.51 187.20
  A 1.19 1.03 64.9 0 0 376.68 186.83
  L 360.57 186.95
  A 0.50 0.50 0.0 0 1 360.07 186.45
  Q 360.07 184.13 359.84 185.51
  Q 359.50 187.56 359.47 185.50
  Q 359.41 181.99 359.04 178.50
  L 359.04 154.75
  Z"
/>
<path fill="#0062a7" d="
  M 35.25 157.29
  Q 31.43 160.21 30.72 165.20
  Q 30.14 166.47 30.21 168.25
  L 29.53 172.76
  A 0.54 0.52 3.8 0 1 29.01 173.20
  Q 28.37 173.22 27.85 173.65
  A 1.57 1.22 -59.3 0 1 26.99 173.99
  L 10.74 174.23
  A 0.41 0.38 -85.4 0 1 10.37 173.76
  Q 10.50 172.84 9.75 172.71
  Q 9.06 164.10 12.67 156.17
  Q 21.00 156.68 27.50 156.25
  Q 31.77 155.97 35.25 157.29
  Z"
/>
<path fill="#00579d" d="
  M 543.04 157.75
  Q 544.55 158.69 545.14 160.70
  A 0.80 0.77 79.8 0 0 545.94 161.28
  L 566.80 160.04
  L 575.70 176.53
  Q 576.97 178.85 575.24 179.45
  A 1.19 0.75 -75.7 0 0 574.68 179.98
  C 574.51 180.30 559.39 180.65 557.75 180.73
  A 0.75 0.68 6.3 0 0 557.07 181.22
  L 556.92 181.70
  Q 556.82 182.02 556.58 181.75
  L 555.50 180.54
  Q 554.57 179.50 552.50 179.50
  Q 524.25 179.50 494.89 179.50
  Q 492.95 179.50 492.07 181.14
  L 483.08 198.03
  A 2.20 1.93 -74.2 0 1 481.29 199.19
  L 468.90 199.13
  L 487.46 164.25
  Q 487.52 164.92 488.00 164.50
  Q 488.44 164.12 488.39 164.55
  L 488.37 164.75
  A 0.17 0.14 -86.5 0 0 488.51 164.94
  Q 494.37 164.98 499.98 166.28
  Q 499.44 167.50 501.50 167.50
  Q 523.62 167.50 546.25 167.50
  A 0.74 0.74 4.6 0 0 546.98 166.88
  C 547.36 164.50 544.19 160.03 543.04 157.75
  Z"
/>
<path fill="#00599f" d="
  M 170.21 158.25
  Q 170.63 168.54 169.75 178.79
  C 169.32 179.64 167.76 186.08 166.82 185.14
  A 1.42 1.02 62.0 0 0 165.99 184.73
  C 161.51 184.52 152.70 183.56 148.62 184.75
  Q 147.35 185.12 147.33 183.81
  Q 151.17 172.20 149.61 159.80
  L 169.01 160.25
  A 0.56 0.49 -85.7 0 0 169.52 159.75
  Q 169.63 158.89 170.21 158.25
  Z"
/>
<path fill="#005da2" d="
  M 450.11 159.12
  L 449.96 171.50
  Q 449.17 173.80 449.62 177.15
  A 0.57 0.57 85.5 0 1 449.07 177.80
  L 431.06 178.19
  A 1.01 0.80 -83.4 0 0 430.25 179.00
  L 429.54 182.50
  L 429.54 158.75
  L 429.82 160.45
  A 0.20 0.20 -23.3 0 0 430.14 160.57
  C 430.62 160.20 431.19 160.50 431.62 160.52
  Q 440.97 160.92 450.11 159.12
  Z"
/>
<path fill="#00579d" d="
  M 303.29 158.75
  C 306.07 160.28 310.70 159.26 314.19 159.74
  A 1.38 0.76 62.6 0 1 314.94 160.24
  Q 315.57 161.01 316.50 159.29
  L 300.25 189.29
  L 298.85 187.85
  A 1.36 0.71 -9.9 0 0 297.93 187.56
  C 294.51 187.53 275.42 186.65 273.67 187.84
  A 0.41 0.36 -31.5 0 1 273.10 187.74
  Q 272.37 186.33 271.04 185.50
  L 259.25 163.54
  Q 260.71 164.29 261.29 165.84
  A 0.49 0.48 69.5 0 0 261.91 166.13
  C 263.00 165.73 263.56 165.28 264.83 165.37
  Q 273.56 166.00 282.12 164.02
  C 285.56 169.40 290.17 183.37 297.16 170.02
  Q 300.14 164.34 303.29 158.75
  Z"
/>
<path fill="#004b92" d="
  M 30.21 168.25
  Q 29.66 181.12 30.25 191.25
  Q 30.56 196.61 29.45 200.39
  Q 20.43 198.41 10.20 200.25
  Q 8.93 186.52 9.75 172.71
  Q 10.50 172.84 10.37 173.76
  A 0.41 0.38 -85.4 0 0 10.74 174.23
  L 26.99 173.99
  A 1.57 1.22 -59.3 0 0 27.85 173.65
  Q 28.37 173.22 29.01 173.20
  A 0.54 0.52 3.8 0 0 29.53 172.76
  L 30.21 168.25
  Z"
/>
<path fill="#004990" d="
  M 449.96 171.50
  L 449.91 200.00
  Q 439.68 199.32 430.00 200.29
  Q 429.11 191.42 429.54 182.50
  L 430.25 179.00
  A 1.01 0.80 -83.4 0 1 431.06 178.19
  L 449.07 177.80
  A 0.57 0.57 85.5 0 0 449.62 177.15
  Q 449.17 173.80 449.96 171.50
  Z"
/>
<path fill="#004990" d="
  M 575.70 176.53
  L 587.90 199.58
  L 583.00 199.79
  L 566.33 199.55
  A 1.49 1.47 75.5 0 1 565.06 198.79
  L 562.79 194.75
  L 556.71 183.25
  L 555.50 180.54
  L 556.58 181.75
  Q 556.82 182.02 556.92 181.70
  L 557.07 181.22
  A 0.75 0.68 6.3 0 1 557.75 180.73
  C 559.39 180.65 574.51 180.30 574.68 179.98
  A 1.19 0.75 -75.7 0 1 575.24 179.45
  Q 576.97 178.85 575.70 176.53
  Z"
/>
<path fill="#00458d" d="
  M 359.04 178.50
  Q 359.41 181.99 359.47 185.50
  Q 359.50 187.56 359.84 185.51
  Q 360.07 184.13 360.07 186.45
  A 0.50 0.50 0.0 0 0 360.57 186.95
  L 376.68 186.83
  A 1.19 1.03 64.9 0 1 377.51 187.20
  Q 378.04 187.73 378.75 188.00
  Q 379.51 187.00 379.46 189.50
  L 379.21 200.25
  Q 369.52 199.10 359.37 200.31
  L 359.04 178.50
  Z"
/>
<path fill="#00458d" d="
  M 169.75 178.79
  L 168.50 184.90
  Q 163.34 195.22 153.39 198.25
  C 145.05 200.80 130.01 199.38 119.50 199.79
  Q 110.72 199.73 102.00 200.71
  Q 100.00 201.10 100.00 198.75
  Q 100.00 193.75 100.00 188.26
  A 0.96 0.95 -0.3 0 1 100.95 187.31
  Q 119.53 187.20 138.50 187.32
  Q 143.25 187.35 147.33 183.81
  Q 147.35 185.12 148.62 184.75
  C 152.70 183.56 161.51 184.52 165.99 184.73
  A 1.42 1.02 62.0 0 1 166.82 185.14
  C 167.76 186.08 169.32 179.64 169.75 178.79
  Z"
/>
<path fill="#010101" fill-opacity="0.396" d="
  M 555.50 180.54
  L 556.71 183.25
  Q 554.49 182.50 550.00 182.50
  Q 522.62 182.50 495.25 182.58
  C 491.50 182.59 491.72 184.71 490.52 187.28
  Q 487.24 194.29 483.10 201.53
  A 2.32 2.32 -75.8 0 1 481.14 202.70
  Q 476.09 202.80 470.50 202.75
  Q 468.43 202.73 469.01 200.91
  A 1.16 0.68 -11.5 0 1 469.67 200.32
  Q 470.46 199.99 468.90 199.13
  L 481.29 199.19
  A 2.20 1.93 -74.2 0 0 483.08 198.03
  L 492.07 181.14
  Q 492.95 179.50 494.89 179.50
  Q 524.25 179.50 552.50 179.50
  Q 554.57 179.50 555.50 180.54
  Z"
/>
<path fill="#010101" fill-opacity="0.396" d="
  M 168.50 184.90
  Q 163.97 202.78 145.00 202.61
  Q 132.63 202.50 120.25 202.50
  Q 119.09 202.50 118.94 201.80
  A 0.90 0.50 83.7 0 0 118.47 201.14
  L 117.00 200.79
  Q 118.43 200.72 119.50 199.79
  C 130.01 199.38 145.05 200.80 153.39 198.25
  Q 163.34 195.22 168.50 184.90
  Z"
/>
<path fill="#00458d" d="
  M 271.04 185.50
  Q 272.37 186.33 273.10 187.74
  A 0.41 0.36 -31.5 0 0 273.67 187.84
  C 275.42 186.65 294.51 187.53 297.93 187.56
  A 1.36 0.71 -9.9 0 1 298.85 187.85
  L 300.25 189.29
  C 298.03 194.60 292.38 199.81 286.24 199.43
  C 279.70 199.03 274.34 192.48 271.79 186.75
  L 271.04 185.50
  Z"
/>
<path fill="#010101" fill-opacity="0.396" d="
  M 562.79 194.75
  L 565.06 198.79
  A 1.49 1.47 75.5 0 0 566.33 199.55
  L 583.00 199.79
  Q 583.50 200.32 584.25 200.54
  Q 583.70 201.02 583.78 202.23
  A 0.48 0.48 87.8 0 1 583.30 202.75
  C 578.13 202.75 572.95 202.54 568.00 202.83
  Q 564.49 203.03 564.48 199.50
  A 1.81 1.67 -62.6 0 0 564.23 198.59
  Q 563.12 196.82 562.79 194.75
  Z"
/>
<path fill="#010101" fill-opacity="0.396" d="
  M 29.45 200.39
  Q 27.08 200.23 27.57 201.35
  A 0.82 0.82 -11.9 0 1 26.82 202.50
  L 12.29 202.50
  Q 10.91 202.50 11.61 201.31
  Q 12.19 200.33 10.20 200.25
  Q 20.43 198.41 29.45 200.39
  Z"
/>
<path fill="#010005" fill-opacity="0.988" d="
  M 449.91 200.00
  Q 443.12 201.26 436.25 201.03
  Q 433.08 200.93 430.00 200.29
  Q 439.68 199.32 449.91 200.00
  Z"
/>
<path fill="#010005" fill-opacity="0.988" d="
  M 119.50 199.79
  Q 118.43 200.72 117.00 200.79
  L 102.00 200.71
  Q 110.72 199.73 119.50 199.79
  Z"
/>
<path fill="#010005" fill-opacity="0.988" d="
  M 379.21 200.25
  C 374.93 201.08 370.68 200.62 366.13 200.87
  Q 362.76 201.05 359.37 200.31
  Q 369.52 199.10 379.21 200.25
  Z"
/>
<path fill="#010005" fill-opacity="0.988" d="
  M 583.00 199.79
  L 587.90 199.58
  Q 585.70 200.87 584.25 200.54
  Q 583.50 200.32 583.00 199.79
  Z"
/>
</svg>
