<?xml version="1.0" encoding="UTF-8" standalone="no"?>
<!DOCTYPE svg PUBLIC "-//W3C//DTD SVG 1.1//EN" "http://www.w3.org/Graphics/SVG/1.1/DTD/svg11.dtd">
<svg xmlns="http://www.w3.org/2000/svg" version="1.1" viewBox="0 0 600 300">
<g stroke-width="2.00" fill="none" stroke-linecap="butt">
<path stroke="#7f0101" stroke-opacity="0.980" vector-effect="non-scaling-stroke" d="
  M 288.21 55.75
  L 285.71 61.00"
/>
<path stroke="#ee0000" vector-effect="non-scaling-stroke" d="
  M 285.71 61.00
  Q 284.62 61.13 284.50 62.23
  A 0.14 0.14 5.7 0 1 284.34 62.36
  Q 282.91 62.19 282.52 63.93
  A 1.53 1.52 -79.6 0 1 280.82 65.11
  Q 275.67 64.40 271.81 65.06
  Q 269.17 65.52 267.72 65.15
  Q 267.21 65.02 266.77 65.10
  Q 264.47 65.48 264.82 63.55
  A 0.33 0.31 1.1 0 0 264.45 63.19
  Q 263.82 63.26 263.46 62.75"
/>
<path stroke="#d40000" vector-effect="non-scaling-stroke" d="
  M 227.51 118.04
  Q 224.22 118.85 223.06 118.69
  Q 219.94 118.25 216.81 118.62
  A 1.13 0.71 -17.6 0 1 215.92 118.39
  L 215.57 118.00
  A 0.45 0.45 51.4 0 0 214.97 117.93
  Q 214.51 118.27 214.21 117.50"
/>
<path stroke="#650101" stroke-opacity="0.980" vector-effect="non-scaling-stroke" d="
  M 210.18 135.45
  Q 218.08 125.99 227.51 118.04"
/>
<path stroke="#750101" stroke-opacity="0.980" vector-effect="non-scaling-stroke" d="
  M 227.51 118.04
  Q 251.67 94.90 276.90 72.89
  Q 282.60 67.92 285.71 61.00"
/>
<path stroke="#6a0101" stroke-opacity="0.992" vector-effect="non-scaling-stroke" d="
  M 208.96 139.50
  Q 207.13 144.08 206.79 149.00"
/>
<path stroke="#b60000" vector-effect="non-scaling-stroke" d="
  M 206.79 149.00
  Q 206.77 150.66 205.25 150.57
  A 0.99 0.70 -64.0 0 0 204.54 150.96
  L 204.15 151.45
  A 1.13 0.46 8.7 0 1 203.26 151.66
  L 198.82 151.41
  A 0.68 0.54 -2.2 0 1 198.21 150.96
  L 197.73 148.35
  A 0.18 0.17 -24.0 0 0 197.45 148.25
  C 196.56 148.89 197.19 147.69 197.20 147.47
  Q 197.32 144.48 197.21 141.50"
/>
<path stroke="#d38080" vector-effect="non-scaling-stroke" d="
  M 208.00 150.71
  Q 205.38 150.71 205.04 153.25"
/>
<path stroke="#5c0101" stroke-opacity="0.992" vector-effect="non-scaling-stroke" d="
  M 205.04 153.25
  Q 204.52 153.80 204.51 154.44
  A 1.00 0.65 23.2 0 0 205.00 155.17
  Q 206.32 155.98 206.29 157.75"
/>
<path stroke="#a10000" stroke-opacity="0.518" vector-effect="non-scaling-stroke" d="
  M 206.29 157.75
  L 205.96 159.25"
/>
<path stroke="#5c0101" stroke-opacity="0.992" vector-effect="non-scaling-stroke" d="
  M 205.96 159.25
  Q 204.84 161.42 205.00 163.79"
/>
<path stroke="#d38080" vector-effect="non-scaling-stroke" d="
  M 205.00 163.79
  L 189.54 200.00"
/>
<path stroke="#5c0101" stroke-opacity="0.992" vector-effect="non-scaling-stroke" d="
  M 189.40 184.70
  L 196.06 178.36
  Q 196.51 177.94 196.86 177.07
  C 198.90 171.99 201.68 162.37 197.54 158.00"
/>
<path stroke="#d38080" vector-effect="non-scaling-stroke" d="
  M 197.54 158.00
  L 196.71 156.50"
/>
<path stroke="#5c0101" stroke-opacity="0.992" vector-effect="non-scaling-stroke" d="
  M 207.21 149.25
  L 206.79 149.00"
/>
<path stroke="#888282" stroke-opacity="0.992" vector-effect="non-scaling-stroke" d="
  M 257.46 152.50
  L 254.40 159.49
  Q 253.60 161.32 251.72 161.51
  Q 250.52 161.62 250.16 159.16
  A 1.78 1.78 -1.8 0 0 248.53 157.63
  Q 241.48 157.07 233.69 157.65
  A 0.91 0.90 11.3 0 0 232.96 158.13
  Q 227.69 168.20 224.44 177.19
  Q 223.87 178.75 225.75 178.21"
/>
<path stroke="#d38080" vector-effect="non-scaling-stroke" d="
  M 225.75 178.21
  L 237.94 178.20
  A 1.43 1.43 25.6 0 0 238.83 177.89
  L 241.67 175.64
  A 1.54 1.21 -58.3 0 1 242.57 175.31
  Q 246.45 175.42 244.29 179.25"
/>
<path stroke="#818081" stroke-opacity="0.996" vector-effect="non-scaling-stroke" d="
  M 244.29 179.25
  L 242.00 184.75"
/>
<path stroke="#818081" stroke-opacity="0.996" vector-effect="non-scaling-stroke" d="
  M 242.00 184.75
  Q 238.62 192.57 236.31 184.35"
/>
<path stroke="#bfc2bf" vector-effect="non-scaling-stroke" d="
  M 236.31 184.35
  Q 228.98 183.38 221.75 184.29"
/>
<path stroke="#818081" stroke-opacity="0.996" vector-effect="non-scaling-stroke" d="
  M 221.75 184.29
  C 220.84 184.48 213.04 203.24 212.01 205.60
  A 0.57 0.52 -66.1 0 0 212.25 206.32
  Q 212.83 206.57 213.50 206.46"
/>
<path stroke="#f6f6f6" stroke-opacity="0.518" vector-effect="non-scaling-stroke" d="
  M 213.50 206.46
  L 235.81 206.30"
/>
<path stroke="#818081" stroke-opacity="0.996" vector-effect="non-scaling-stroke" d="
  M 235.81 206.30
  L 237.99 204.13"
/>
<path stroke="#c88080" vector-effect="non-scaling-stroke" d="
  M 237.99 204.13
  Q 241.16 201.27 242.54 205.00"
/>
<path stroke="#888282" stroke-opacity="0.992" vector-effect="non-scaling-stroke" d="
  M 242.54 205.00
  L 241.21 208.75"
/>
<path stroke="#908281" vector-effect="non-scaling-stroke" d="
  M 241.21 208.75
  L 240.01 211.47
  A 2.57 2.05 -75.4 0 1 237.97 213.00
  L 194.25 213.04"
/>
<path stroke="#a5a8a1" vector-effect="non-scaling-stroke" d="
  M 194.25 213.04
  L 184.48 213.21"
/>
<path stroke="#818081" stroke-opacity="0.996" vector-effect="non-scaling-stroke" d="
  M 184.48 213.21
  Q 184.12 212.50 184.21 212.00"
/>
<path stroke="#888282" stroke-opacity="0.992" vector-effect="non-scaling-stroke" d="
  M 205.00 163.79
  Q 206.09 162.32 206.50 160.54"
/>
<path stroke="#f6f6f6" stroke-opacity="0.518" vector-effect="non-scaling-stroke" d="
  M 206.50 160.54
  L 207.75 157.54"
/>
<path stroke="#888282" stroke-opacity="0.992" vector-effect="non-scaling-stroke" d="
  M 207.75 157.54
  C 208.52 155.88 205.94 154.70 205.04 153.25"
/>
<path stroke="#510101" stroke-opacity="0.992" vector-effect="non-scaling-stroke" d="
  M 175.75 192.46
  Q 175.73 191.34 175.22 190.48
  A 1.05 0.91 -9.9 0 0 174.44 190.01
  Q 169.59 189.55 164.79 190.50"
/>
<path stroke="#888282" stroke-opacity="0.992" vector-effect="non-scaling-stroke" d="
  M 197.54 158.00
  C 201.73 172.57 191.93 185.66 177.65 188.05
  A 0.16 0.14 -83.1 0 0 177.53 188.16
  L 177.50 188.25
  A 0.26 0.26 9.2 0 1 177.25 188.43
  L 156.19 188.18
  A 0.75 0.74 11.3 0 0 155.48 188.65
  L 148.39 206.06"
/>
<path stroke="#838384" stroke-opacity="0.980" vector-effect="non-scaling-stroke" d="
  M 149.27 212.64
  Q 136.28 213.33 123.29 213.01
  C 122.41 212.99 121.12 213.52 121.21 212.00"
/>
<path stroke="#838384" stroke-opacity="0.980" vector-effect="non-scaling-stroke" d="
  M 144.79 157.75
  C 146.23 155.35 143.46 154.93 142.79 153.25"
/>
<path stroke="#818081" stroke-opacity="0.996" vector-effect="non-scaling-stroke" d="
  M 216.52 150.10
  Q 214.88 151.28 212.43 150.23"
/>
<path stroke="#550001" stroke-opacity="0.996" vector-effect="non-scaling-stroke" d="
  M 249.96 177.25
  Q 247.43 179.02 244.29 179.25"
/>
<path stroke="#4e0001" stroke-opacity="0.996" vector-effect="non-scaling-stroke" d="
  M 242.54 186.25
  L 240.53 189.33
  A 1.33 0.82 2.8 0 1 239.69 189.79
  Q 236.69 190.26 235.96 187.00"
/>
<path stroke="#030002" stroke-opacity="0.514" vector-effect="non-scaling-stroke" d="
  M 235.96 187.00
  Q 236.42 186.47 236.22 185.98
  A 0.95 0.64 -4.9 0 0 235.43 185.54
  C 230.72 185.38 219.74 184.26 220.75 188.29"
/>
<path stroke="#4e0001" stroke-opacity="0.996" vector-effect="non-scaling-stroke" d="
  M 220.75 188.29
  L 218.25 194.83
  A 0.75 0.74 7.5 0 0 219.03 195.83
  L 245.54 193.57"
/>
<path stroke="#090102" stroke-opacity="0.988" vector-effect="non-scaling-stroke" d="
  M 245.46 196.00
  Q 244.92 195.92 244.96 196.50"
/>
<path stroke="#4a0001" stroke-opacity="0.996" vector-effect="non-scaling-stroke" d="
  M 216.29 198.75
  Q 215.31 199.70 214.92 201.87
  A 1.03 1.03 -81.4 0 0 215.81 203.08
  C 221.59 203.76 226.76 203.63 232.32 204.00
  Q 235.16 204.19 237.99 204.13"
/>
<path stroke="#030002" stroke-opacity="0.514" vector-effect="non-scaling-stroke" d="
  M 235.81 206.30
  Q 235.66 205.07 234.94 205.05
  Q 224.95 204.78 214.96 204.52
  C 213.88 204.49 212.11 204.99 213.50 206.46"
/>
<path stroke="#180303" stroke-opacity="0.992" vector-effect="non-scaling-stroke" d="
  M 241.46 209.00
  Q 241.25 208.97 241.21 208.75"
/>
<path stroke="#510101" stroke-opacity="0.992" vector-effect="non-scaling-stroke" d="
  M 242.54 205.00
  L 245.75 204.72
  A 0.77 0.55 2.2 0 0 246.41 204.28
  Q 246.77 202.71 245.32 200.71
  A 1.58 1.54 -59.8 0 1 245.03 199.56
  Q 245.24 197.92 243.50 197.79"
/>
<path stroke="#de8080" vector-effect="non-scaling-stroke" d="
  M 250.46 150.32
  Q 238.52 150.90 226.50 150.46"
/>
<path stroke="#930000" stroke-opacity="0.518" vector-effect="non-scaling-stroke" d="
  M 246.71 185.75
  L 242.54 186.25"
/>
<path stroke="#030002" stroke-opacity="0.514" vector-effect="non-scaling-stroke" d="
  M 242.54 186.25
  Q 242.00 185.59 242.00 184.75"
/>
<path stroke="#414340" stroke-opacity="0.996" vector-effect="non-scaling-stroke" d="
  M 236.31 184.35
  Q 228.95 185.28 221.75 184.29"
/>
<path stroke="#670001" stroke-opacity="0.996" vector-effect="non-scaling-stroke" d="
  M 277.54 106.25
  C 279.02 115.52 272.40 119.48 265.28 123.24
  Q 241.66 135.74 217.81 147.81
  Q 213.59 149.95 212.43 150.23"
/>
<path stroke="#e58080" vector-effect="non-scaling-stroke" d="
  M 212.43 150.23
  Q 211.18 150.73 209.75 150.46"
/>
<path stroke="#272922" stroke-opacity="0.996" vector-effect="non-scaling-stroke" d="
  M 184.48 213.21
  L 194.25 213.21"
/>
<path stroke="#3e0001" stroke-opacity="0.996" vector-effect="non-scaling-stroke" d="
  M 72.00 244.54
  C 70.60 246.76 73.04 246.40 74.19 246.87
  C 104.74 259.42 139.20 260.90 168.29 244.24
  C 179.60 237.76 189.87 226.80 198.61 216.78
  Q 200.24 214.91 197.68 214.94
  L 185.78 215.12"
/>
<path stroke="#818081" stroke-opacity="0.996" vector-effect="non-scaling-stroke" d="
  M 255.00 150.46
  L 250.46 150.32"
/>
<path stroke="#600001" stroke-opacity="0.996" vector-effect="non-scaling-stroke" d="
  M 250.46 150.32
  Q 251.62 150.03 256.81 147.81
  C 275.34 139.91 289.09 134.04 304.95 126.64"
/>
<path stroke="#670001" stroke-opacity="0.996" vector-effect="non-scaling-stroke" d="
  M 304.95 126.64
  Q 313.91 123.43 322.60 118.86"
/>
<path stroke="#6c0001" stroke-opacity="0.996" vector-effect="non-scaling-stroke" d="
  M 322.60 118.86
  Q 334.15 113.00 339.00 100.54"
/>
<path stroke="#030002" stroke-opacity="0.514" vector-effect="non-scaling-stroke" d="
  M 248.54 180.50
  Q 245.58 179.24 243.83 181.65
  Q 243.60 181.97 243.53 182.56
  Q 243.34 184.07 242.00 184.75"
/>
<path stroke="#520201" vector-effect="non-scaling-stroke" d="
  M 239.89 213.72
  L 238.27 214.83
  A 1.47 0.48 -41.0 0 1 237.44 215.18
  L 221.31 215.06
  A 1.24 1.04 17.9 0 0 220.45 215.41
  Q 219.59 216.33 221.00 216.46"
/>
<path stroke="#140402" stroke-opacity="0.847" vector-effect="non-scaling-stroke" d="
  M 221.00 216.46
  Q 220.09 216.65 219.25 216.29"
/>
<path stroke="#140402" stroke-opacity="0.847" vector-effect="non-scaling-stroke" d="
  M 219.25 216.29
  Q 215.72 214.73 211.96 215.51"
/>
<path stroke="#520201" vector-effect="non-scaling-stroke" d="
  M 211.96 215.51
  Q 209.10 214.88 206.25 215.71"
/>
<path stroke="#120203" stroke-opacity="0.996" vector-effect="non-scaling-stroke" d="
  M 205.04 214.00
  Q 199.72 212.85 194.25 213.21"
/>
<path stroke="#362b23" vector-effect="non-scaling-stroke" d="
  M 194.25 213.21
  L 194.25 213.04"
/>
<path stroke="#5e0101" stroke-opacity="0.992" vector-effect="non-scaling-stroke" d="
  M 258.25 154.29
  C 257.18 156.03 252.42 168.35 249.24 160.42
  A 1.40 1.10 87.1 0 0 248.62 159.71
  Q 246.56 158.73 244.25 159.21"
/>
<path stroke="#5e0101" stroke-opacity="0.992" vector-effect="non-scaling-stroke" d="
  M 229.23 168.66
  L 227.77 171.66
  Q 226.97 173.30 228.66 172.78
  L 260.30 162.94"
/>
<path stroke="#5c0101" stroke-opacity="0.992" vector-effect="non-scaling-stroke" d="
  M 226.25 176.54
  Q 225.68 177.29 225.75 178.21"
/>
<path stroke="#8b0000" vector-effect="non-scaling-stroke" d="
  M 176.04 194.00
  Q 175.96 199.45 175.99 204.90
  C 176.00 206.75 175.31 208.31 175.01 210.19
  A 0.60 0.59 -85.9 0 1 174.44 210.69
  L 160.73 210.95"
/>
<path stroke="#de8080" vector-effect="non-scaling-stroke" d="
  M 164.25 150.46
  L 158.75 150.71"
/>
<path stroke="#670101" stroke-opacity="0.992" vector-effect="non-scaling-stroke" d="
  M 158.96 149.25
  Q 158.56 145.51 156.79 142.25"
/>
<path stroke="#868786" stroke-opacity="0.957" vector-effect="non-scaling-stroke" d="
  M 323.16 156.95
  C 321.81 159.32 320.45 165.29 317.25 164.21"
/>
<path stroke="#888282" stroke-opacity="0.992" vector-effect="non-scaling-stroke" d="
  M 317.25 164.21
  Q 316.35 163.64 315.69 161.81
  C 314.46 158.44 308.84 156.34 305.41 156.14
  C 285.87 155.01 271.80 177.86 269.54 195.25"
/>
<path stroke="#c88080" vector-effect="non-scaling-stroke" d="
  M 269.52 196.68
  Q 268.87 202.23 274.00 205.04"
/>
<path stroke="#888282" stroke-opacity="0.992" vector-effect="non-scaling-stroke" d="
  M 274.00 205.04
  Q 277.18 206.73 280.75 205.79"
/>
<path stroke="#888282" stroke-opacity="0.992" vector-effect="non-scaling-stroke" d="
  M 293.04 189.25
  Q 293.65 188.49 293.82 187.15"
/>
<path stroke="#cf8080" vector-effect="non-scaling-stroke" d="
  M 293.82 187.15
  Q 293.28 184.77 290.71 183.50"
/>
<path stroke="#908281" vector-effect="non-scaling-stroke" d="
  M 290.71 183.50
  L 291.25 182.04"
/>
<path stroke="#868786" stroke-opacity="0.957" vector-effect="non-scaling-stroke" d="
  M 322.21 183.75
  Q 321.75 184.78 317.89 186.25
  A 0.16 0.15 -84.3 0 0 317.80 186.33
  L 311.25 201.46"
/>
<path stroke="#838384" stroke-opacity="0.980" vector-effect="non-scaling-stroke" d="
  M 311.25 201.46
  L 306.87 211.46
  A 2.18 2.04 -76.6 0 1 304.88 212.78
  Q 294.72 212.44 285.44 212.69
  Q 284.59 212.71 283.58 211.63
  A 0.78 0.71 57.3 0 0 282.79 211.42
  Q 277.43 213.43 271.77 214.20"
/>
<path stroke="#bfc2bf" vector-effect="non-scaling-stroke" d="
  M 271.77 214.20
  Q 266.88 213.69 261.96 214.21"
/>
<path stroke="#838384" stroke-opacity="0.980" vector-effect="non-scaling-stroke" d="
  M 261.96 214.21
  Q 256.25 212.96 251.79 209.25"
/>
<path stroke="#888282" stroke-opacity="0.992" vector-effect="non-scaling-stroke" d="
  M 251.79 209.25
  Q 246.51 203.64 245.46 196.00"
/>
<path stroke="#818081" stroke-opacity="0.996" vector-effect="non-scaling-stroke" d="
  M 245.46 196.00
  L 245.54 193.57"
/>
<path stroke="#cc8080" vector-effect="non-scaling-stroke" d="
  M 245.54 193.57
  L 246.71 185.75"
/>
<path stroke="#f6f6f6" stroke-opacity="0.518" vector-effect="non-scaling-stroke" d="
  M 246.71 185.75
  L 248.54 180.50"
/>
<path stroke="#818081" stroke-opacity="0.996" vector-effect="non-scaling-stroke" d="
  M 248.54 180.50
  L 249.96 177.25"
/>
<path stroke="#d38080" vector-effect="non-scaling-stroke" d="
  M 249.96 177.25
  L 255.50 168.04"
/>
<path stroke="#888282" stroke-opacity="0.992" vector-effect="non-scaling-stroke" d="
  M 257.49 165.35
  Q 259.09 164.49 260.30 162.94"
/>
<path stroke="#d58080" vector-effect="non-scaling-stroke" d="
  M 260.30 162.94
  Q 265.41 158.26 271.25 154.79"
/>
<path stroke="#930000" stroke-opacity="0.518" vector-effect="non-scaling-stroke" d="
  M 235.96 187.00
  Q 228.30 187.07 220.75 188.29"
/>
<path stroke="#424542" stroke-opacity="0.980" vector-effect="non-scaling-stroke" d="
  M 261.96 214.21
  Q 266.88 215.19 271.77 214.20"
/>
<path stroke="#c40000" vector-effect="non-scaling-stroke" d="
  M 304.95 126.64
  Q 298.27 128.94 291.70 131.54
  C 290.49 132.01 288.90 131.79 287.73 133.28
  A 1.18 0.86 12.0 0 1 286.95 133.63
  Q 286.33 133.66 285.44 134.19
  Q 282.94 135.67 279.75 135.39
  C 272.57 134.77 265.39 135.02 258.18 134.94
  A 1.17 0.90 64.9 0 1 257.39 134.53
  Q 256.66 133.67 255.46 133.50"
/>
<path stroke="#d00000" vector-effect="non-scaling-stroke" d="
  M 322.60 118.86
  L 284.25 117.76"
/>
<path stroke="#720001" stroke-opacity="0.996" vector-effect="non-scaling-stroke" d="
  M 340.50 98.29
  L 339.00 100.54"
/>
<path stroke="#db0000" vector-effect="non-scaling-stroke" d="
  M 339.00 100.54
  Q 337.74 103.01 335.28 102.45
  A 1.58 1.54 39.9 0 0 334.35 102.52
  C 332.37 103.30 330.10 102.82 328.48 102.84
  Q 320.56 102.93 312.68 102.11
  A 0.66 0.54 86.8 0 1 312.18 101.56
  Q 312.05 100.65 310.96 100.25"
/>
<path stroke="#4f0200" stroke-opacity="0.851" vector-effect="non-scaling-stroke" d="
  M 217.25 216.79
  L 221.00 217.21"
/>
<path stroke="#440001" stroke-opacity="0.996" vector-effect="non-scaling-stroke" d="
  M 252.55 224.58
  Q 250.50 229.00 245.80 228.87
  C 243.24 228.79 239.07 229.00 237.50 228.50
  Q 221.25 223.34 204.63 219.37"
/>
<path stroke="#4f0200" stroke-opacity="0.851" vector-effect="non-scaling-stroke" d="
  M 217.25 216.79
  L 211.96 215.51"
/>
<path stroke="#4a0101" stroke-opacity="0.992" vector-effect="non-scaling-stroke" d="
  M 263.61 217.90
  Q 259.58 222.82 253.75 221.75
  C 243.96 219.95 238.02 218.43 230.00 218.04"
/>
<path stroke="#4f0200" stroke-opacity="0.851" vector-effect="non-scaling-stroke" d="
  M 222.50 216.71
  Q 221.80 216.37 221.00 216.46"
/>
<path stroke="#440001" stroke-opacity="0.996" vector-effect="non-scaling-stroke" d="
  M 176.46 211.50
  C 176.50 214.89 176.82 217.58 174.25 220.19
  Q 166.80 227.80 157.29 232.75"
/>
<path stroke="#800000" vector-effect="non-scaling-stroke" d="
  M 157.29 232.75
  Q 155.98 232.25 155.28 233.08
  A 1.34 0.87 -62.9 0 1 154.50 233.53
  Q 147.83 233.85 141.16 233.73
  C 125.08 233.44 108.90 233.60 92.82 233.73
  Q 87.55 233.78 82.29 233.25"
/>
<path stroke="#570101" stroke-opacity="0.992" vector-effect="non-scaling-stroke" d="
  M 273.54 183.66
  L 271.59 191.25
  A 0.64 0.59 4.1 0 0 272.27 191.98
  C 278.86 191.49 287.06 191.90 293.82 187.15"
/>
<path stroke="#5f0201" vector-effect="non-scaling-stroke" d="
  M 290.71 183.50
  Q 290.23 183.09 290.00 182.46"
/>
<path stroke="#818081" stroke-opacity="0.996" vector-effect="non-scaling-stroke" d="
  M 307.79 150.25
  L 302.02 149.52"
/>
<path stroke="#600001" stroke-opacity="0.996" vector-effect="non-scaling-stroke" d="
  M 322.21 136.25
  Q 315.73 148.32 302.02 149.52"
/>
<path stroke="#de8080" vector-effect="non-scaling-stroke" d="
  M 302.02 149.52
  Q 285.82 147.83 271.25 154.79"
/>
<path stroke="#b40000" vector-effect="non-scaling-stroke" d="
  M 271.25 154.79
  C 267.04 155.59 264.31 157.68 259.67 157.26
  A 1.02 1.01 15.4 0 1 258.84 155.81
  Q 259.22 155.03 259.00 154.04"
/>
<path stroke="#510101" stroke-opacity="0.992" vector-effect="non-scaling-stroke" d="
  M 283.96 198.50
  Q 280.80 204.57 274.00 205.04"
/>
<path stroke="#4a0101" stroke-opacity="0.992" vector-effect="non-scaling-stroke" d="
  M 114.46 209.00
  L 114.21 202.50"
/>
<path stroke="#510101" stroke-opacity="0.992" vector-effect="non-scaling-stroke" d="
  M 114.21 202.50
  L 118.05 190.60"
/>
<path stroke="#400001" stroke-opacity="0.996" vector-effect="non-scaling-stroke" d="
  M 79.02 240.81
  Q 82.14 240.76 84.78 241.66
  C 109.20 250.00 135.55 245.88 157.29 232.75"
/>
<path stroke="#8b0000" vector-effect="non-scaling-stroke" d="
  M 114.21 202.50
  L 114.10 211.01
  A 1.79 1.65 89.2 0 1 112.52 212.77
  L 97.00 213.46
  A 1.19 0.64 -61.5 0 0 96.26 213.94
  C 95.73 214.62 94.45 213.17 93.96 212.75"
/>
<path stroke="#5c0101" stroke-opacity="0.992" vector-effect="non-scaling-stroke" d="
  M 132.54 149.00
  C 133.32 158.30 132.07 168.04 126.69 175.83
  Q 121.83 182.86 118.05 190.60"
/>
<path stroke="#9c0000" vector-effect="non-scaling-stroke" d="
  M 118.05 190.60
  Q 113.30 194.77 105.81 193.31
  Q 104.08 192.98 103.71 192.00"
/>
<path stroke="#560101" stroke-opacity="0.980" vector-effect="non-scaling-stroke" d="
  M 104.90 185.61
  Q 101.34 165.38 82.60 174.36"
/>
<path stroke="#a30000" vector-effect="non-scaling-stroke" d="
  M 82.60 174.36
  Q 81.09 175.90 79.45 176.96
  C 76.61 178.79 66.51 177.78 62.84 177.76
  C 53.10 177.72 43.59 178.15 33.82 177.71
  A 0.54 0.51 89.9 0 1 33.33 177.19
  Q 33.26 175.98 32.21 175.50"
/>
<path stroke="#b20000" vector-effect="non-scaling-stroke" d="
  M 65.46 154.75
  L 60.49 159.32
  A 2.48 2.00 25.8 0 1 58.47 159.79
  Q 52.95 158.69 53.69 156.36"
/>
<path stroke="#520101" stroke-opacity="0.980" vector-effect="non-scaling-stroke" d="
  M 59.46 185.50
  Q 59.55 181.36 58.04 184.75"
/>
<path stroke="#510001" stroke-opacity="0.996" vector-effect="non-scaling-stroke" d="
  M 57.00 186.29
  C 54.96 188.49 46.68 197.58 43.31 196.19
  C 39.85 194.76 37.39 190.61 34.25 188.04"
/>
<path stroke="#5c0101" stroke-opacity="0.992" vector-effect="non-scaling-stroke" d="
  M 60.55 164.14
  Q 61.91 159.04 65.46 154.75"
/>
<path stroke="#670101" stroke-opacity="0.992" vector-effect="non-scaling-stroke" d="
  M 65.46 154.75
  Q 71.56 143.42 75.56 133.31
  Q 78.55 125.76 85.17 121.66"
/>
<path stroke="#520101" stroke-opacity="0.980" vector-effect="non-scaling-stroke" d="
  M 55.50 194.04
  C 57.17 194.91 58.40 196.45 60.11 196.84
  C 65.51 198.07 70.72 191.95 72.94 187.69
  Q 74.64 184.42 82.60 174.36"
/>
<path stroke="#700101" stroke-opacity="0.992" vector-effect="non-scaling-stroke" d="
  M 98.71 103.75
  Q 95.53 107.87 95.53 113.28"
/>
<path stroke="#700101" stroke-opacity="0.992" vector-effect="non-scaling-stroke" d="
  M 103.94 118.19
  Q 97.91 119.97 91.81 120.06
  Q 89.56 120.10 85.17 121.66"
/>
<path stroke="#c70000" vector-effect="non-scaling-stroke" d="
  M 85.17 121.66
  Q 79.92 123.64 76.80 128.45
  A 0.67 0.64 16.9 0 1 76.21 128.75
  L 70.57 128.45
  A 0.87 0.81 77.8 0 1 69.88 127.97
  Q 69.44 127.06 68.46 126.75"
/>
<path stroke="#7a0101" stroke-opacity="0.992" vector-effect="non-scaling-stroke" d="
  M 109.96 94.25
  Q 108.76 97.63 105.28 99.23"
/>
<path stroke="#780101" stroke-opacity="0.957" vector-effect="non-scaling-stroke" d="
  M 105.71 92.50
  Q 105.34 88.69 104.04 92.50"
/>
<path stroke="#da0000" vector-effect="non-scaling-stroke" d="
  M 103.21 94.00
  C 100.84 95.03 99.58 99.79 97.45 98.96
  A 0.62 0.56 -61.1 0 0 96.76 99.20
  Q 96.22 100.00 95.21 99.75"
/>
<path stroke="#760001" stroke-opacity="0.996" vector-effect="non-scaling-stroke" d="
  M 174.09 66.72
  Q 163.82 68.15 154.19 74.94
  Q 147.68 79.52 145.87 86.18"
/>
<path stroke="#e20000" vector-effect="non-scaling-stroke" d="
  M 145.96 92.50
  L 145.68 86.82
  Q 145.66 86.44 145.47 86.77
  Q 145.20 87.24 144.75 87.56
  A 1.19 1.05 -15.5 0 0 144.26 88.31
  Q 144.01 89.77 142.90 90.70
  A 1.00 0.86 30.9 0 1 142.03 90.85
  C 136.51 89.27 135.92 93.68 131.95 93.39"
/>
<path stroke="#760001" stroke-opacity="0.996" vector-effect="non-scaling-stroke" d="
  M 131.95 93.39
  Q 126.05 90.23 118.99 89.65"
/>
<path stroke="#d20000" vector-effect="non-scaling-stroke" d="
  M 170.58 112.95
  L 170.13 117.44
  Q 170.11 117.62 170.03 117.46
  Q 169.64 116.62 168.76 117.49
  Q 168.65 117.60 168.47 117.64
  L 161.51 119.47
  A 0.41 0.40 74.6 0 1 161.02 119.19
  L 160.29 116.50"
/>
<path stroke="#6f0001" stroke-opacity="0.996" vector-effect="non-scaling-stroke" d="
  M 160.29 116.50
  L 160.29 113.21
  A 0.82 0.80 85.0 0 0 159.35 112.40
  C 144.06 115.05 138.55 105.48 131.95 93.39"
/>
<path stroke="#670001" stroke-opacity="0.996" vector-effect="non-scaling-stroke" d="
  M 160.29 116.50
  L 160.21 117.00"
/>
<path stroke="#670001" stroke-opacity="0.996" vector-effect="non-scaling-stroke" d="
  M 184.46 123.00
  Q 184.24 131.28 180.69 138.69
  Q 179.17 141.86 178.75 138.00
  Q 178.02 131.28 171.50 129.75
  Q 164.07 128.01 160.79 120.25"
/>
<path stroke="#6c0001" stroke-opacity="0.996" vector-effect="non-scaling-stroke" d="
  M 280.79 88.75
  C 281.08 96.00 277.61 97.46 272.55 100.87
  Q 242.01 121.47 210.77 141.12"
/>
<path stroke="#6a0101" stroke-opacity="0.992" vector-effect="non-scaling-stroke" d="
  M 89.78 131.28
  Q 88.71 139.79 81.74 142.71
  C 80.09 143.40 77.55 145.40 77.71 141.50"
/>
<path stroke="#838384" stroke-opacity="0.980" vector-effect="non-scaling-stroke" d="
  M 444.01 156.06
  C 443.29 158.79 442.08 163.71 439.64 165.10
  A 0.87 0.77 -40.1 0 1 438.73 165.08
  L 437.96 164.50"
/>
<path stroke="#888282" stroke-opacity="0.992" vector-effect="non-scaling-stroke" d="
  M 437.96 164.50
  Q 437.79 163.12 436.75 162.25"
/>
<path stroke="#838384" stroke-opacity="0.980" vector-effect="non-scaling-stroke" d="
  M 436.75 162.25
  Q 431.47 154.11 421.75 156.25
  Q 415.47 157.63 415.27 164.27"
/>
<path stroke="#868786" stroke-opacity="0.957" vector-effect="non-scaling-stroke" d="
  M 434.21 201.25
  L 433.21 205.50"
/>
<path stroke="#818081" stroke-opacity="0.996" vector-effect="non-scaling-stroke" d="
  M 433.21 205.50
  Q 427.77 218.67 414.52 222.05
  C 408.96 223.46 405.57 224.09 400.25 222.75
  C 396.38 221.78 383.61 218.83 385.46 214.11
  A 0.77 0.77 -80.7 0 0 384.71 213.06
  Q 371.97 213.57 359.25 213.00
  Q 357.28 212.91 357.25 210.54"
/>
<path stroke="#838384" stroke-opacity="0.980" vector-effect="non-scaling-stroke" d="
  M 359.54 208.22
  Q 359.36 204.28 358.04 200.50"
/>
<path stroke="#868786" stroke-opacity="0.957" vector-effect="non-scaling-stroke" d="
  M 358.04 200.50
  L 355.43 189.30
  A 0.73 0.71 -6.5 0 0 354.72 188.75
  L 336.53 188.75
  A 1.11 1.10 -72.7 0 0 335.62 189.23
  Q 329.41 198.29 324.58 208.08"
/>
<path stroke="#818081" stroke-opacity="0.996" vector-effect="non-scaling-stroke" d="
  M 326.96 211.25
  Q 325.44 213.25 322.00 213.25
  C 319.48 213.25 312.88 213.89 311.00 212.46"
/>
<path stroke="#868786" stroke-opacity="0.957" vector-effect="non-scaling-stroke" d="
  M 375.46 154.00
  Q 372.61 155.38 373.71 158.25"
/>
<path stroke="#838384" stroke-opacity="0.980" vector-effect="non-scaling-stroke" d="
  M 413.71 209.50
  Q 414.21 206.30 413.19 204.81
  C 403.87 191.20 393.16 186.39 395.21 169.25"
/>
<path stroke="#030102" stroke-opacity="0.953" vector-effect="non-scaling-stroke" d="
  M 433.46 206.00
  Q 433.16 205.85 433.21 205.50"
/>
<path stroke="#838384" stroke-opacity="0.980" vector-effect="non-scaling-stroke" d="
  M 568.91 156.45
  C 567.00 158.15 565.71 166.74 562.24 164.95
  A 1.16 0.90 -86.5 0 1 561.73 164.20
  C 559.90 154.69 542.18 152.07 539.29 162.75"
/>
<path stroke="#818081" stroke-opacity="0.996" vector-effect="non-scaling-stroke" d="
  M 558.15 203.35
  Q 553.87 216.63 541.50 221.15
  C 529.78 225.42 519.38 223.00 509.08 216.69"
/>
<path stroke="#838384" stroke-opacity="0.980" vector-effect="non-scaling-stroke" d="
  M 538.48 207.19
  Q 531.24 196.60 522.79 187.00"
/>
<path stroke="#868786" stroke-opacity="0.957" vector-effect="non-scaling-stroke" d="
  M 522.79 187.00
  L 521.79 185.00"
/>
<path stroke="#868786" stroke-opacity="0.957" vector-effect="non-scaling-stroke" d="
  M 521.50 184.71
  Q 519.34 179.83 518.96 174.50"
/>
<path stroke="#979896" stroke-opacity="0.851" vector-effect="non-scaling-stroke" d="
  M 518.96 174.50
  L 519.00 171.54"
/>
<path stroke="#868786" stroke-opacity="0.957" vector-effect="non-scaling-stroke" d="
  M 482.54 153.75
  Q 482.26 155.69 480.19 156.09
  Q 478.12 156.48 477.30 158.39
  L 460.93 196.64"
/>
<path stroke="#868786" stroke-opacity="0.957" vector-effect="non-scaling-stroke" d="
  M 460.93 196.64
  L 460.29 199.75"
/>
<path stroke="#838384" stroke-opacity="0.980" vector-effect="non-scaling-stroke" d="
  M 524.29 154.00
  C 523.04 156.98 519.74 155.35 518.50 159.46"
/>
<path stroke="#868786" stroke-opacity="0.957" vector-effect="non-scaling-stroke" d="
  M 516.46 164.00
  L 514.96 167.50"
/>
<path stroke="#838384" stroke-opacity="0.980" vector-effect="non-scaling-stroke" d="
  M 514.96 167.50
  Q 510.00 178.68 505.19 189.94
  C 496.64 209.94 472.51 219.96 451.71 213.63
  C 443.32 211.07 437.42 203.58 439.00 194.54"
/>
<path stroke="#838384" stroke-opacity="0.980" vector-effect="non-scaling-stroke" d="
  M 452.29 158.00
  Q 452.54 155.61 450.04 154.75"
/>
<path stroke="#440101" stroke-opacity="0.992" vector-effect="non-scaling-stroke" d="
  M 219.95 231.87
  Q 212.14 242.33 199.08 238.43"
/>
<path stroke="#3e0001" stroke-opacity="0.996" vector-effect="non-scaling-stroke" d="
  M 199.08 238.43
  Q 196.21 237.18 198.46 239.75"
/>
<path stroke="#440101" stroke-opacity="0.992" vector-effect="non-scaling-stroke" d="
  M 203.75 246.21
  Q 200.90 247.97 196.94 246.56
  Q 194.56 245.72 196.21 248.00"
/>
<path stroke="#3e0001" stroke-opacity="0.996" vector-effect="non-scaling-stroke" d="
  M 197.73 250.95
  Q 182.11 257.90 177.00 259.50
  C 164.99 263.26 152.71 264.69 140.25 262.65
  Q 135.52 261.87 130.66 261.35"
/>
<path stroke="#090102" stroke-opacity="0.988" vector-effect="non-scaling-stroke" d="
  M 199.00 239.21
  L 199.08 238.43"
/>
<path stroke="#868786" stroke-opacity="0.957" vector-effect="non-scaling-stroke" d="
  M 351.25 181.21
  Q 354.57 181.73 353.04 178.75"
/>
<path stroke="#868786" stroke-opacity="0.957" vector-effect="non-scaling-stroke" d="
  M 353.04 178.75
  L 352.04 174.50"
/>
<path stroke="#979896" stroke-opacity="0.851" vector-effect="non-scaling-stroke" d="
  M 352.04 174.50
  Q 352.11 173.79 351.71 173.25"
/>
<path stroke="#868786" stroke-opacity="0.957" vector-effect="non-scaling-stroke" d="
  M 351.71 173.25
  L 351.25 171.21"
/>
<path stroke="#838384" stroke-opacity="0.980" vector-effect="non-scaling-stroke" d="
  M 350.71 169.00
  Q 350.76 167.73 350.11 166.72
  A 0.35 0.34 -46.0 0 0 349.53 166.74
  L 341.26 180.06
  A 1.21 0.82 -45.6 0 0 341.09 181.00
  Q 341.31 181.57 341.99 181.10"
/>
<path stroke="#f6f6f6" stroke-opacity="0.518" vector-effect="non-scaling-stroke" d="
  M 159.24 181.04
  Q 162.65 181.56 164.75 180.96"
/>
<path stroke="#d38080" vector-effect="non-scaling-stroke" d="
  M 164.75 180.96
  Q 170.45 179.92 173.26 175.32"
/>
<path stroke="#888282" stroke-opacity="0.992" vector-effect="non-scaling-stroke" d="
  M 177.06 165.60
  Q 177.53 157.59 169.94 157.26
  A 1.20 1.15 12.2 0 0 168.79 157.97
  L 159.24 181.04"
/>
<path stroke="#5c0101" stroke-opacity="0.992" vector-effect="non-scaling-stroke" d="
  M 168.79 161.87
  Q 164.74 166.98 164.21 173.50"
/>
<path stroke="#a10000" stroke-opacity="0.518" vector-effect="non-scaling-stroke" d="
  M 164.75 180.96
  L 164.21 173.50"
/>
<path stroke="#5e0101" stroke-opacity="0.992" vector-effect="non-scaling-stroke" d="
  M 309.24 160.55
  Q 310.75 158.41 308.14 158.24
  C 304.66 158.01 301.07 157.44 297.66 158.23
  C 290.28 159.96 285.10 166.77 280.18 171.70
  Q 278.75 173.12 280.73 172.75
  C 291.89 170.68 301.92 170.97 309.24 160.55"
/>
<path stroke="#990000" stroke-opacity="0.518" vector-effect="non-scaling-stroke" d="
  M 37.54 182.00
  C 36.58 183.43 36.51 188.93 38.24 186.43
  A 1.55 0.44 85.7 0 0 38.43 185.50
  L 38.50 182.04"
/>
<path stroke="#520101" stroke-opacity="0.980" vector-effect="non-scaling-stroke" d="
  M 38.50 182.04
  Q 38.43 179.79 37.54 182.00"
/>
</g>
<path fill="#f80000" d="
  M 288.21 55.75
  L 285.71 61.00
  Q 284.62 61.13 284.50 62.23
  A 0.14 0.14 5.7 0 1 284.34 62.36
  Q 282.91 62.19 282.52 63.93
  A 1.53 1.52 -79.6 0 1 280.82 65.11
  Q 275.67 64.40 271.81 65.06
  Q 269.17 65.52 267.72 65.15
  Q 267.21 65.02 266.77 65.10
  Q 264.47 65.48 264.82 63.55
  A 0.33 0.31 1.1 0 0 264.45 63.19
  Q 263.82 63.26 263.46 62.75
  Q 273.03 49.31 281.39 34.76
  Q 282.68 32.51 284.27 34.56
  Q 291.75 44.24 288.21 55.75
  Z"
/>
<path fill="#020203" fill-opacity="0.961" d="
  M 288.21 55.75
  Q 286.37 62.56 282.42 68.15
  Q 279.96 71.64 272.96 77.75
  C 253.84 94.47 235.77 112.20 216.81 129.05
  Q 213.38 132.10 210.18 135.45
  Q 218.08 125.99 227.51 118.04
  Q 251.67 94.90 276.90 72.89
  Q 282.60 67.92 285.71 61.00
  L 288.21 55.75
  Z"
/>
<path fill="#e40000" d="
  M 285.71 61.00
  Q 282.60 67.92 276.90 72.89
  Q 251.67 94.90 227.51 118.04
  Q 224.22 118.85 223.06 118.69
  Q 219.94 118.25 216.81 118.62
  A 1.13 0.71 -17.6 0 1 215.92 118.39
  L 215.57 118.00
  A 0.45 0.45 51.4 0 0 214.97 117.93
  Q 214.51 118.27 214.21 117.50
  C 229.26 102.17 249.01 82.01 263.46 62.75
  Q 263.82 63.26 264.45 63.19
  A 0.33 0.31 1.1 0 1 264.82 63.55
  Q 264.47 65.48 266.77 65.10
  Q 267.21 65.02 267.72 65.15
  Q 269.17 65.52 271.81 65.06
  Q 275.67 64.40 280.82 65.11
  A 1.53 1.52 -79.6 0 0 282.52 63.93
  Q 282.91 62.19 284.34 62.36
  A 0.14 0.14 5.7 0 0 284.50 62.23
  Q 284.62 61.13 285.71 61.00
  Z"
/>
<path fill="#e90000" d="
  M 174.09 66.72
  Q 163.82 68.15 154.19 74.94
  Q 147.68 79.52 145.87 86.18
  L 145.96 92.50
  L 145.68 86.82
  Q 145.66 86.44 145.47 86.77
  Q 145.20 87.24 144.75 87.56
  A 1.19 1.05 -15.5 0 0 144.26 88.31
  Q 144.01 89.77 142.90 90.70
  A 1.00 0.86 30.9 0 1 142.03 90.85
  C 136.51 89.27 135.92 93.68 131.95 93.39
  Q 126.05 90.23 118.99 89.65
  C 131.40 72.82 153.11 65.54 173.31 65.20
  A 0.93 0.63 -8.4 0 1 174.11 65.58
  Q 174.33 66.05 174.09 66.72
  Z"
/>
<path fill="#030002" fill-opacity="0.992" d="
  M 174.09 66.72
  Q 160.87 70.77 151.81 78.06
  Q 148.54 80.70 145.87 86.18
  Q 147.68 79.52 154.19 74.94
  Q 163.82 68.15 174.09 66.72
  Z"
/>
<path fill="#e00000" d="
  M 340.50 98.29
  L 339.00 100.54
  Q 337.74 103.01 335.28 102.45
  A 1.58 1.54 39.9 0 0 334.35 102.52
  C 332.37 103.30 330.10 102.82 328.48 102.84
  Q 320.56 102.93 312.68 102.11
  A 0.66 0.54 86.8 0 1 312.18 101.56
  Q 312.05 100.65 310.96 100.25
  Q 326.10 89.73 341.21 79.16
  C 348.12 74.32 341.30 95.94 340.50 98.29
  Z"
/>
<path fill="#e40000" d="
  M 109.96 94.25
  Q 108.76 97.63 105.28 99.23
  L 105.71 92.50
  Q 105.34 88.69 104.04 92.50
  L 103.21 94.00
  C 100.84 95.03 99.58 99.79 97.45 98.96
  A 0.62 0.56 -61.1 0 0 96.76 99.20
  Q 96.22 100.00 95.21 99.75
  Q 100.04 90.18 102.17 79.78
  A 0.57 0.56 23.3 0 1 103.05 79.43
  Q 110.75 84.82 109.96 94.25
  Z"
/>
<path fill="#d50000" d="
  M 280.79 88.75
  C 281.08 96.00 277.61 97.46 272.55 100.87
  Q 242.01 121.47 210.77 141.12
  C 212.12 133.96 216.96 130.45 223.19 126.19
  Q 249.78 107.98 278.85 86.30
  A 0.79 0.68 -45.4 0 1 279.69 86.23
  Q 280.93 87.00 280.79 88.75
  Z"
/>
<path fill="#da0000" d="
  M 145.96 92.50
  C 149.12 109.21 169.74 99.40 176.06 91.81
  C 178.68 88.68 178.58 91.67 177.85 93.09
  Q 172.94 102.57 170.58 112.95
  L 170.13 117.44
  Q 170.11 117.62 170.03 117.46
  Q 169.64 116.62 168.76 117.49
  Q 168.65 117.60 168.47 117.64
  L 161.51 119.47
  A 0.41 0.40 74.6 0 1 161.02 119.19
  L 160.29 116.50
  L 160.29 113.21
  A 0.82 0.80 85.0 0 0 159.35 112.40
  C 144.06 115.05 138.55 105.48 131.95 93.39
  C 135.92 93.68 136.51 89.27 142.03 90.85
  A 1.00 0.86 30.9 0 0 142.90 90.70
  Q 144.01 89.77 144.26 88.31
  A 1.19 1.05 -15.5 0 1 144.75 87.56
  Q 145.20 87.24 145.47 86.77
  Q 145.66 86.44 145.68 86.82
  L 145.96 92.50
  Z"
/>
<path fill="#030002" fill-opacity="0.992" d="
  M 280.79 88.75
  C 281.81 97.11 277.37 99.22 270.31 103.82
  Q 241.11 122.84 211.90 141.84
  C 211.07 142.38 210.67 142.15 210.77 141.12
  Q 242.01 121.47 272.55 100.87
  C 277.61 97.46 281.08 96.00 280.79 88.75
  Z"
/>
<path fill="#030002" fill-opacity="0.992" d="
  M 118.99 89.65
  Q 126.05 90.23 131.95 93.39
  C 138.55 105.48 144.06 115.05 159.35 112.40
  A 0.82 0.80 85.0 0 1 160.29 113.21
  L 160.29 116.50
  L 160.21 117.00
  Q 160.80 113.49 157.25 114.00
  C 146.32 115.56 138.50 108.04 134.31 98.69
  C 131.61 92.64 124.79 91.88 118.99 89.65
  Z"
/>
<path fill="#020302" fill-opacity="0.914" d="
  M 105.71 92.50
  Q 105.10 91.70 104.04 92.50
  Q 105.34 88.69 105.71 92.50
  Z"
/>
<path fill="#d00000" d="
  M 103.21 94.00
  L 98.71 103.75
  Q 95.53 107.87 95.53 113.28
  Q 101.24 113.47 103.94 118.19
  Q 97.91 119.97 91.81 120.06
  Q 89.56 120.10 85.17 121.66
  Q 79.92 123.64 76.80 128.45
  A 0.67 0.64 16.9 0 1 76.21 128.75
  L 70.57 128.45
  A 0.87 0.81 77.8 0 1 69.88 127.97
  Q 69.44 127.06 68.46 126.75
  C 72.03 120.30 79.43 116.70 86.17 114.36
  A 3.46 3.06 2.2 0 0 87.97 112.89
  L 95.21 99.75
  Q 96.22 100.00 96.76 99.20
  A 0.62 0.56 -61.1 0 1 97.45 98.96
  C 99.58 99.79 100.84 95.03 103.21 94.00
  Z"
/>
<path fill="#0f0203" fill-opacity="0.984" d="
  M 109.96 94.25
  Q 109.86 99.52 105.28 99.23
  Q 108.76 97.63 109.96 94.25
  Z"
/>
<path fill="#030002" fill-opacity="0.992" d="
  M 340.50 98.29
  Q 336.79 109.34 328.22 116.65
  Q 324.88 119.51 318.64 122.24
  Q 287.72 135.76 256.71 149.05
  Q 256.42 149.18 255.75 149.21
  Q 254.81 149.27 255.00 150.46
  L 250.46 150.32
  Q 251.62 150.03 256.81 147.81
  C 275.34 139.91 289.09 134.04 304.95 126.64
  Q 313.91 123.43 322.60 118.86
  Q 334.15 113.00 339.00 100.54
  L 340.50 98.29
  Z"
/>
<path fill="#d50000" d="
  M 310.96 100.25
  Q 312.05 100.65 312.18 101.56
  A 0.66 0.54 86.8 0 0 312.68 102.11
  Q 320.56 102.93 328.48 102.84
  C 330.10 102.82 332.37 103.30 334.35 102.52
  A 1.58 1.54 39.9 0 1 335.28 102.45
  Q 337.74 103.01 339.00 100.54
  Q 334.15 113.00 322.60 118.86
  L 284.25 117.76
  L 310.96 100.25
  Z"
/>
<path fill="#ca0000" d="
  M 277.54 106.25
  C 279.02 115.52 272.40 119.48 265.28 123.24
  Q 241.66 135.74 217.81 147.81
  Q 213.59 149.95 212.43 150.23
  Q 211.18 150.73 209.75 150.46
  Q 209.36 145.74 213.81 142.81
  Q 243.51 123.32 273.76 104.70
  C 275.78 103.46 277.24 102.57 277.54 106.25
  Z"
/>
<path fill="#0f0203" fill-opacity="0.984" d="
  M 98.71 103.75
  L 95.53 113.28
  Q 95.53 107.87 98.71 103.75
  Z"
/>
<path fill="#030002" fill-opacity="0.992" d="
  M 277.54 106.25
  C 280.60 119.25 267.25 123.52 258.48 128.23
  Q 244.38 135.80 229.94 142.69
  Q 227.33 143.93 216.52 150.10
  Q 214.88 151.28 212.43 150.23
  Q 213.59 149.95 217.81 147.81
  Q 241.66 135.74 265.28 123.24
  C 272.40 119.48 279.02 115.52 277.54 106.25
  Z"
/>
<path fill="#ca0000" d="
  M 170.58 112.95
  Q 169.77 116.91 171.34 120.09
  C 174.79 127.08 181.10 117.94 182.54 114.92
  Q 183.50 112.89 183.94 115.09
  Q 184.79 119.31 184.46 123.00
  Q 184.24 131.28 180.69 138.69
  Q 179.17 141.86 178.75 138.00
  Q 178.02 131.28 171.50 129.75
  Q 164.07 128.01 160.79 120.25
  Q 160.03 118.75 160.21 117.00
  L 160.29 116.50
  L 161.02 119.19
  A 0.41 0.40 74.6 0 0 161.51 119.47
  L 168.47 117.64
  Q 168.65 117.60 168.76 117.49
  Q 169.64 116.62 170.03 117.46
  Q 170.11 117.62 170.13 117.44
  L 170.58 112.95
  Z"
/>
<path fill="#c40000" d="
  M 214.21 117.50
  Q 214.51 118.27 214.97 117.93
  A 0.45 0.45 51.4 0 1 215.57 118.00
  L 215.92 118.39
  A 1.13 0.71 -17.6 0 0 216.81 118.62
  Q 219.94 118.25 223.06 118.69
  Q 224.22 118.85 227.51 118.04
  Q 218.08 125.99 210.18 135.45
  Q 210.08 137.87 208.96 139.50
  Q 207.13 144.08 206.79 149.00
  Q 206.77 150.66 205.25 150.57
  A 0.99 0.70 -64.0 0 0 204.54 150.96
  L 204.15 151.45
  A 1.13 0.46 8.7 0 1 203.26 151.66
  L 198.82 151.41
  A 0.68 0.54 -2.2 0 1 198.21 150.96
  L 197.73 148.35
  A 0.18 0.17 -24.0 0 0 197.45 148.25
  C 196.56 148.89 197.19 147.69 197.20 147.47
  Q 197.32 144.48 197.21 141.50
  C 197.87 131.56 205.33 126.14 214.21 117.50
  Z"
/>
<path fill="#ca0000" d="
  M 284.25 117.76
  L 322.60 118.86
  Q 313.91 123.43 304.95 126.64
  Q 298.27 128.94 291.70 131.54
  C 290.49 132.01 288.90 131.79 287.73 133.28
  A 1.18 0.86 12.0 0 1 286.95 133.63
  Q 286.33 133.66 285.44 134.19
  Q 282.94 135.67 279.75 135.39
  C 272.57 134.77 265.39 135.02 258.18 134.94
  A 1.17 0.90 64.9 0 1 257.39 134.53
  Q 256.66 133.67 255.46 133.50
  L 284.25 117.76
  Z"
/>
<path fill="#0f0203" fill-opacity="0.984" d="
  M 103.94 118.19
  C 104.30 119.70 102.95 120.21 101.67 120.32
  C 94.35 120.97 88.04 121.07 83.00 124.59
  C 78.09 128.03 75.98 133.80 73.75 139.50
  Q 69.13 151.33 60.55 164.14
  Q 61.91 159.04 65.46 154.75
  Q 71.56 143.42 75.56 133.31
  Q 78.55 125.76 85.17 121.66
  Q 89.56 120.10 91.81 120.06
  Q 97.91 119.97 103.94 118.19
  Z"
/>
<path fill="#030002" fill-opacity="0.992" d="
  M 160.79 120.25
  Q 164.07 128.01 171.50 129.75
  Q 178.02 131.28 178.75 138.00
  Q 179.17 141.86 180.69 138.69
  Q 184.24 131.28 184.46 123.00
  C 184.77 127.80 184.03 135.05 181.21 139.11
  C 178.30 143.31 178.11 136.98 177.47 135.56
  Q 175.81 131.89 171.58 130.89
  Q 162.95 128.85 160.79 120.25
  Z"
/>
<path fill="#bd0000" d="
  M 85.17 121.66
  Q 78.55 125.76 75.56 133.31
  Q 71.56 143.42 65.46 154.75
  L 60.49 159.32
  A 2.48 2.00 25.8 0 1 58.47 159.79
  Q 52.95 158.69 53.69 156.36
  Q 60.31 141.17 68.46 126.75
  Q 69.44 127.06 69.88 127.97
  A 0.87 0.81 77.8 0 0 70.57 128.45
  L 76.21 128.75
  A 0.67 0.64 16.9 0 0 76.80 128.45
  Q 79.92 123.64 85.17 121.66
  Z"
/>
<path fill="#bd0000" d="
  M 304.95 126.64
  C 289.09 134.04 275.34 139.91 256.81 147.81
  Q 251.62 150.03 250.46 150.32
  Q 238.52 150.90 226.50 150.46
  Q 240.60 141.33 255.46 133.50
  Q 256.66 133.67 257.39 134.53
  A 1.17 0.90 64.9 0 0 258.18 134.94
  C 265.39 135.02 272.57 134.77 279.75 135.39
  Q 282.94 135.67 285.44 134.19
  Q 286.33 133.66 286.95 133.63
  A 1.18 0.86 12.0 0 0 287.73 133.28
  C 288.90 131.79 290.49 132.01 291.70 131.54
  Q 298.27 128.94 304.95 126.64
  Z"
/>
<path fill="#c40000" d="
  M 89.78 131.28
  Q 88.71 139.79 81.74 142.71
  C 80.09 143.40 77.55 145.40 77.71 141.50
  Q 79.94 131.80 89.78 131.28
  Z"
/>
<path fill="#0f0203" fill-opacity="0.984" d="
  M 89.78 131.28
  C 91.96 136.85 84.53 143.31 80.31 144.81
  Q 75.84 146.40 77.71 141.50
  C 77.55 145.40 80.09 143.40 81.74 142.71
  Q 88.71 139.79 89.78 131.28
  Z"
/>
<path fill="#bd0000" d="
  M 322.21 136.25
  Q 315.73 148.32 302.02 149.52
  Q 285.82 147.83 271.25 154.79
  C 267.04 155.59 264.31 157.68 259.67 157.26
  A 1.02 1.01 15.4 0 1 258.84 155.81
  Q 259.22 155.03 259.00 154.04
  Q 289.62 144.19 320.44 134.94
  Q 322.60 134.29 322.21 136.25
  Z"
/>
<path fill="#030002" fill-opacity="0.992" d="
  M 322.21 136.25
  Q 318.33 146.45 307.79 150.25
  L 302.02 149.52
  Q 315.73 148.32 322.21 136.25
  Z"
/>
<path fill="#a70000" d="
  M 132.54 149.00
  C 133.32 158.30 132.07 168.04 126.69 175.83
  Q 121.83 182.86 118.05 190.60
  Q 113.30 194.77 105.81 193.31
  Q 104.08 192.98 103.71 192.00
  L 104.90 185.61
  Q 101.34 165.38 82.60 174.36
  Q 81.09 175.90 79.45 176.96
  C 76.61 178.79 66.51 177.78 62.84 177.76
  C 53.10 177.72 43.59 178.15 33.82 177.71
  A 0.54 0.51 89.9 0 1 33.33 177.19
  Q 33.26 175.98 32.21 175.50
  Q 34.77 171.53 39.26 172.69
  Q 40.91 173.11 41.93 171.77
  L 53.69 156.36
  Q 52.95 158.69 58.47 159.79
  A 2.48 2.00 25.8 0 0 60.49 159.32
  L 65.46 154.75
  Q 61.91 159.04 60.55 164.14
  Q 63.06 174.46 72.56 173.06
  C 77.62 172.32 83.95 160.28 85.80 156.14
  Q 86.90 153.68 88.18 156.05
  C 92.65 164.35 99.94 170.90 110.16 167.91
  Q 130.03 162.09 125.94 139.62
  C 125.76 138.59 125.39 134.99 127.74 138.24
  Q 131.27 143.10 132.54 149.00
  Z"
/>
<path fill="#0f0203" fill-opacity="0.984" d="
  M 208.96 139.50
  L 207.21 149.25
  L 206.79 149.00
  Q 207.13 144.08 208.96 139.50
  Z"
/>
<path fill="#bd0000" d="
  M 164.25 150.46
  L 158.75 150.71
  L 158.96 149.25
  Q 158.56 145.51 156.79 142.25
  C 155.42 138.24 157.97 140.01 158.80 141.44
  Q 161.46 145.99 164.25 150.46
  Z"
/>
<path fill="#a70000" d="
  M 197.21 141.50
  Q 197.32 144.48 197.20 147.47
  C 197.19 147.69 196.56 148.89 197.45 148.25
  A 0.18 0.17 -24.0 0 1 197.73 148.35
  L 198.21 150.96
  A 0.68 0.54 -2.2 0 0 198.82 151.41
  L 203.26 151.66
  A 1.13 0.46 8.7 0 0 204.15 151.45
  L 204.54 150.96
  A 0.99 0.70 -64.0 0 1 205.25 150.57
  Q 206.77 150.66 206.79 149.00
  L 207.21 149.25
  Q 207.06 150.29 208.00 150.71
  Q 205.38 150.71 205.04 153.25
  Q 204.52 153.80 204.51 154.44
  A 1.00 0.65 23.2 0 0 205.00 155.17
  Q 206.32 155.98 206.29 157.75
  L 205.96 159.25
  Q 204.84 161.42 205.00 163.79
  L 189.54 200.00
  C 190.18 194.45 188.41 189.97 189.40 184.70
  L 196.06 178.36
  Q 196.51 177.94 196.86 177.07
  C 198.90 171.99 201.68 162.37 197.54 158.00
  L 196.71 156.50
  Q 196.14 148.97 197.21 141.50
  Z"
/>
<path fill="#0f0203" fill-opacity="0.984" d="
  M 156.79 142.25
  Q 158.56 145.51 158.96 149.25
  Q 157.37 145.91 156.79 142.25
  Z"
/>
<path fill="#0f0203" fill-opacity="0.984" d="
  M 132.54 149.00
  C 134.39 158.76 132.94 167.90 127.31 176.06
  C 120.36 186.17 114.88 196.59 114.46 209.00
  L 114.21 202.50
  L 118.05 190.60
  Q 121.83 182.86 126.69 175.83
  C 132.07 168.04 133.32 158.30 132.54 149.00
  Z"
/>
<path fill="#ffffff" d="
  M 302.02 149.52
  L 307.79 150.25
  Q 316.28 152.63 323.16 156.95
  C 321.81 159.32 320.45 165.29 317.25 164.21
  Q 316.35 163.64 315.69 161.81
  C 314.46 158.44 308.84 156.34 305.41 156.14
  C 285.87 155.01 271.80 177.86 269.54 195.25
  L 269.52 196.68
  Q 268.87 202.23 274.00 205.04
  Q 277.18 206.73 280.75 205.79
  C 288.44 203.67 290.88 194.57 293.04 189.25
  Q 293.65 188.49 293.82 187.15
  Q 293.28 184.77 290.71 183.50
  L 291.25 182.04
  C 291.89 181.41 292.39 181.00 293.36 181.00
  Q 306.09 180.90 318.82 181.23
  C 320.74 181.28 322.41 180.76 322.21 183.75
  Q 321.75 184.78 317.89 186.25
  A 0.16 0.15 -84.3 0 0 317.80 186.33
  L 311.25 201.46
  L 306.87 211.46
  A 2.18 2.04 -76.6 0 1 304.88 212.78
  Q 294.72 212.44 285.44 212.69
  Q 284.59 212.71 283.58 211.63
  A 0.78 0.71 57.3 0 0 282.79 211.42
  Q 277.43 213.43 271.77 214.20
  Q 266.88 213.69 261.96 214.21
  Q 256.25 212.96 251.79 209.25
  Q 246.51 203.64 245.46 196.00
  L 245.54 193.57
  L 246.71 185.75
  L 248.54 180.50
  L 249.96 177.25
  L 255.50 168.04
  L 257.49 165.35
  Q 259.09 164.49 260.30 162.94
  Q 265.41 158.26 271.25 154.79
  Q 285.82 147.83 302.02 149.52
  Z"
/>
<path fill="#ffffff" d="
  M 444.01 156.06
  C 443.29 158.79 442.08 163.71 439.64 165.10
  A 0.87 0.77 -40.1 0 1 438.73 165.08
  L 437.96 164.50
  Q 437.79 163.12 436.75 162.25
  Q 431.47 154.11 421.75 156.25
  Q 415.47 157.63 415.27 164.27
  Q 415.35 168.92 419.25 173.50
  C 426.63 182.16 435.03 190.24 434.21 201.25
  L 433.21 205.50
  Q 427.77 218.67 414.52 222.05
  C 408.96 223.46 405.57 224.09 400.25 222.75
  C 396.38 221.78 383.61 218.83 385.46 214.11
  A 0.77 0.77 -80.7 0 0 384.71 213.06
  Q 371.97 213.57 359.25 213.00
  Q 357.28 212.91 357.25 210.54
  L 359.54 208.22
  Q 359.36 204.28 358.04 200.50
  L 355.43 189.30
  A 0.73 0.71 -6.5 0 0 354.72 188.75
  L 336.53 188.75
  A 1.11 1.10 -72.7 0 0 335.62 189.23
  Q 329.41 198.29 324.58 208.08
  Q 327.12 209.40 326.96 211.25
  Q 325.44 213.25 322.00 213.25
  C 319.48 213.25 312.88 213.89 311.00 212.46
  Q 309.32 209.47 312.19 208.69
  C 315.25 207.85 315.35 207.05 316.83 204.73
  Q 333.62 178.60 350.29 151.62
  A 1.30 1.28 -74.1 0 1 351.39 151.00
  Q 363.00 151.00 373.50 151.00
  Q 376.26 151.00 375.46 154.00
  Q 372.61 155.38 373.71 158.25
  L 385.57 210.82
  A 0.69 0.43 76.4 0 0 386.16 211.40
  Q 386.72 211.24 387.06 209.68
  Q 387.29 208.66 387.94 207.84
  C 390.61 204.48 391.50 209.01 392.55 210.35
  Q 397.86 217.12 407.00 216.21
  Q 413.22 215.59 413.71 209.50
  Q 414.21 206.30 413.19 204.81
  C 403.87 191.20 393.16 186.39 395.21 169.25
  C 399.53 147.36 428.97 143.96 444.01 156.06
  Z
  M 341.99 181.10
  L 351.25 181.21
  Q 354.57 181.73 353.04 178.75
  L 352.04 174.50
  Q 352.11 173.79 351.71 173.25
  L 351.25 171.21
  Q 351.24 170.04 350.71 169.00
  Q 350.76 167.73 350.11 166.72
  A 0.35 0.34 -46.0 0 0 349.53 166.74
  L 341.26 180.06
  A 1.21 0.82 -45.6 0 0 341.09 181.00
  Q 341.31 181.57 341.99 181.10
  Z"
/>
<path fill="#ffffff" d="
  M 568.91 156.45
  C 567.00 158.15 565.71 166.74 562.24 164.95
  A 1.16 0.90 -86.5 0 1 561.73 164.20
  C 559.90 154.69 542.18 152.07 539.29 162.75
  Q 538.93 168.76 542.56 172.69
  Q 552.45 183.39 557.19 191.81
  Q 559.78 196.44 558.15 203.35
  Q 553.87 216.63 541.50 221.15
  C 529.78 225.42 519.38 223.00 509.08 216.69
  Q 509.87 211.14 512.81 207.06
  Q 514.36 204.92 515.31 207.69
  C 517.68 214.51 528.06 218.77 534.36 215.17
  Q 538.17 212.99 538.48 207.19
  Q 531.24 196.60 522.79 187.00
  L 521.79 185.00
  Q 521.73 184.77 521.50 184.71
  Q 519.34 179.83 518.96 174.50
  L 519.00 171.54
  C 520.50 158.61 531.65 150.06 544.24 149.10
  Q 558.11 148.04 568.91 156.45
  Z"
/>
<path fill="#ffffff" d="
  M 158.75 150.71
  L 164.25 150.46
  Q 171.46 150.51 178.67 150.51
  C 187.28 150.50 192.06 149.93 196.71 156.50
  L 197.54 158.00
  C 201.73 172.57 191.93 185.66 177.65 188.05
  A 0.16 0.14 -83.1 0 0 177.53 188.16
  L 177.50 188.25
  A 0.26 0.26 9.2 0 1 177.25 188.43
  L 156.19 188.18
  A 0.75 0.74 11.3 0 0 155.48 188.65
  L 148.39 206.06
  C 145.82 208.59 150.27 208.83 149.27 212.64
  Q 136.28 213.33 123.29 213.01
  C 122.41 212.99 121.12 213.52 121.21 212.00
  L 144.79 157.75
  C 146.23 155.35 143.46 154.93 142.79 153.25
  C 143.45 149.15 152.54 150.35 158.75 150.71
  Z
  M 159.24 181.04
  Q 162.65 181.56 164.75 180.96
  Q 170.45 179.92 173.26 175.32
  Q 177.15 170.79 177.06 165.60
  Q 177.53 157.59 169.94 157.26
  A 1.20 1.15 12.2 0 0 168.79 157.97
  L 159.24 181.04
  Z"
/>
<path fill="#ffffff" d="
  M 209.75 150.46
  Q 211.18 150.73 212.43 150.23
  Q 214.88 151.28 216.52 150.10
  Q 221.80 150.83 226.50 150.46
  Q 238.52 150.90 250.46 150.32
  L 255.00 150.46
  Q 258.46 149.65 257.46 152.50
  L 254.40 159.49
  Q 253.60 161.32 251.72 161.51
  Q 250.52 161.62 250.16 159.16
  A 1.78 1.78 -1.8 0 0 248.53 157.63
  Q 241.48 157.07 233.69 157.65
  A 0.91 0.90 11.3 0 0 232.96 158.13
  Q 227.69 168.20 224.44 177.19
  Q 223.87 178.75 225.75 178.21
  L 237.94 178.20
  A 1.43 1.43 25.6 0 0 238.83 177.89
  L 241.67 175.64
  A 1.54 1.21 -58.3 0 1 242.57 175.31
  Q 246.45 175.42 244.29 179.25
  L 242.00 184.75
  Q 238.62 192.57 236.31 184.35
  Q 228.98 183.38 221.75 184.29
  C 220.84 184.48 213.04 203.24 212.01 205.60
  A 0.57 0.52 -66.1 0 0 212.25 206.32
  Q 212.83 206.57 213.50 206.46
  L 235.81 206.30
  L 237.99 204.13
  Q 241.16 201.27 242.54 205.00
  L 241.21 208.75
  L 240.01 211.47
  A 2.57 2.05 -75.4 0 1 237.97 213.00
  L 194.25 213.04
  L 184.48 213.21
  Q 184.12 212.50 184.21 212.00
  L 189.54 200.00
  L 205.00 163.79
  Q 206.09 162.32 206.50 160.54
  L 207.75 157.54
  C 208.52 155.88 205.94 154.70 205.04 153.25
  Q 205.38 150.71 208.00 150.71
  Q 208.92 150.86 209.75 150.46
  Z"
/>
<path fill="#ffffff" d="
  M 482.54 153.75
  Q 482.26 155.69 480.19 156.09
  Q 478.12 156.48 477.30 158.39
  L 460.93 196.64
  L 460.29 199.75
  C 458.53 208.49 468.40 209.66 473.19 204.69
  Q 474.80 203.02 476.45 199.12
  Q 486.26 175.97 496.19 152.52
  A 1.26 1.25 11.2 0 1 497.35 151.75
  Q 510.50 151.75 522.50 151.75
  Q 524.02 151.75 524.29 154.00
  C 523.04 156.98 519.74 155.35 518.50 159.46
  L 516.46 164.00
  L 514.96 167.50
  Q 510.00 178.68 505.19 189.94
  C 496.64 209.94 472.51 219.96 451.71 213.63
  C 443.32 211.07 437.42 203.58 439.00 194.54
  Q 439.83 187.26 442.75 180.54
  Q 447.63 169.31 452.29 158.00
  Q 452.54 155.61 450.04 154.75
  Q 450.25 151.75 452.75 151.75
  Q 466.63 151.75 480.50 151.75
  Q 482.23 151.75 482.54 153.75
  Z"
/>
<path fill="#0f0203" fill-opacity="0.984" d="
  M 257.46 152.50
  Q 257.04 153.97 258.25 154.29
  C 257.18 156.03 252.42 168.35 249.24 160.42
  A 1.40 1.10 87.1 0 0 248.62 159.71
  Q 246.56 158.73 244.25 159.21
  Q 246.17 158.12 244.25 158.11
  Q 232.62 158.00 229.23 168.66
  L 227.77 171.66
  Q 226.97 173.30 228.66 172.78
  L 260.30 162.94
  Q 259.09 164.49 257.49 165.35
  Q 256.14 165.54 253.06 166.56
  Q 245.46 169.08 227.06 174.56
  Q 225.29 175.09 226.25 176.54
  Q 225.68 177.29 225.75 178.21
  Q 223.87 178.75 224.44 177.19
  Q 227.69 168.20 232.96 158.13
  A 0.91 0.90 11.3 0 1 233.69 157.65
  Q 241.48 157.07 248.53 157.63
  A 1.78 1.78 -1.8 0 1 250.16 159.16
  Q 250.52 161.62 251.72 161.51
  Q 253.60 161.32 254.40 159.49
  L 257.46 152.50
  Z"
/>
<path fill="#020203" fill-opacity="0.961" d="
  M 142.79 153.25
  C 143.46 154.93 146.23 155.35 144.79 157.75
  L 142.79 153.25
  Z"
/>
<path fill="#0f0203" fill-opacity="0.984" d="
  M 205.04 153.25
  C 205.94 154.70 208.52 155.88 207.75 157.54
  Q 206.93 156.55 206.29 157.75
  Q 206.32 155.98 205.00 155.17
  A 1.00 0.65 23.2 0 1 204.51 154.44
  Q 204.52 153.80 205.04 153.25
  Z"
/>
<path fill="#020302" fill-opacity="0.914" d="
  M 482.54 153.75
  C 483.01 155.09 482.53 155.98 481.22 156.57
  C 477.66 158.16 477.25 160.22 475.82 163.47
  Q 468.49 180.17 461.46 197.00
  Q 461.35 197.01 460.93 196.64
  L 477.30 158.39
  Q 478.12 156.48 480.19 156.09
  Q 482.26 155.69 482.54 153.75
  Z"
/>
<path fill="#ab0000" d="
  M 259.00 154.04
  Q 259.22 155.03 258.84 155.81
  A 1.02 1.01 15.4 0 0 259.67 157.26
  C 264.31 157.68 267.04 155.59 271.25 154.79
  Q 265.41 158.26 260.30 162.94
  L 228.66 172.78
  Q 226.97 173.30 227.77 171.66
  L 229.23 168.66
  Q 235.79 162.11 244.25 159.21
  Q 246.56 158.73 248.62 159.71
  A 1.40 1.10 87.1 0 1 249.24 160.42
  C 252.42 168.35 257.18 156.03 258.25 154.29
  Q 258.56 153.96 259.00 154.04
  Z"
/>
<path fill="#020302" fill-opacity="0.914" d="
  M 375.46 154.00
  Q 373.99 155.92 373.71 158.25
  Q 372.61 155.38 375.46 154.00
  Z"
/>
<path fill="#020203" fill-opacity="0.961" d="
  M 524.29 154.00
  C 525.51 156.25 520.11 158.24 518.50 159.46
  C 519.74 155.35 523.04 156.98 524.29 154.00
  Z"
/>
<path fill="#020203" fill-opacity="0.961" d="
  M 450.04 154.75
  Q 452.54 155.61 452.29 158.00
  C 452.42 156.42 450.15 156.95 450.04 154.75
  Z"
/>
<path fill="#020203" fill-opacity="0.961" d="
  M 436.75 162.25
  Q 436.22 161.67 435.54 161.36
  Q 435.05 161.14 434.75 160.79
  C 431.33 156.73 423.84 156.17 419.44 158.19
  Q 415.96 159.78 415.27 164.27
  Q 415.47 157.63 421.75 156.25
  Q 431.47 154.11 436.75 162.25
  Z"
/>
<path fill="#020203" fill-opacity="0.961" d="
  M 568.91 156.45
  C 568.05 159.21 563.47 171.88 560.81 163.69
  C 559.76 160.43 555.69 157.58 552.51 157.20
  Q 548.39 156.72 544.48 157.90
  C 541.78 158.71 540.67 160.48 539.29 162.75
  C 542.18 152.07 559.90 154.69 561.73 164.20
  A 1.16 0.90 -86.5 0 0 562.24 164.95
  C 565.71 166.74 567.00 158.15 568.91 156.45
  Z"
/>
<path fill="#0f0203" fill-opacity="0.984" d="
  M 317.25 164.21
  L 316.75 164.47
  L 312.83 159.71
  A 1.48 1.38 -49.8 0 0 310.51 159.99
  Q 306.73 166.24 300.54 169.46
  C 295.82 171.93 288.32 172.49 282.51 173.64
  C 278.94 174.35 277.90 174.09 276.25 177.00
  Q 273.93 181.08 273.54 183.66
  L 271.59 191.25
  A 0.64 0.59 4.1 0 0 272.27 191.98
  C 278.86 191.49 287.06 191.90 293.82 187.15
  Q 293.65 188.49 293.04 189.25
  Q 293.11 188.78 292.93 188.60
  A 0.68 0.36 -45.9 0 0 292.19 188.84
  Q 289.22 191.92 285.06 192.23
  C 280.40 192.58 275.87 193.21 271.20 193.42
  A 1.00 0.94 -73.7 0 0 270.43 193.87
  L 269.54 195.25
  C 271.80 177.86 285.87 155.01 305.41 156.14
  C 308.84 156.34 314.46 158.44 315.69 161.81
  Q 316.35 163.64 317.25 164.21
  Z
  M 309.24 160.55
  Q 310.75 158.41 308.14 158.24
  C 304.66 158.01 301.07 157.44 297.66 158.23
  C 290.28 159.96 285.10 166.77 280.18 171.70
  Q 278.75 173.12 280.73 172.75
  C 291.89 170.68 301.92 170.97 309.24 160.55
  Z"
/>
<path fill="#020203" fill-opacity="0.961" d="
  M 444.01 156.06
  C 443.90 158.87 442.57 164.83 439.85 166.05
  Q 438.14 166.81 437.75 164.54
  L 437.96 164.50
  L 438.73 165.08
  A 0.87 0.77 -40.1 0 0 439.64 165.10
  C 442.08 163.71 443.29 158.79 444.01 156.06
  Z"
/>
<path fill="#030100" fill-opacity="0.035" d="
  M 207.75 157.54
  L 206.50 160.54
  Q 205.70 160.20 205.96 159.25
  L 206.29 157.75
  Q 206.93 156.55 207.75 157.54
  Z"
/>
<path fill="#0f0203" fill-opacity="0.984" d="
  M 177.06 165.60
  Q 176.45 158.87 170.06 158.81
  A 0.86 0.82 14.3 0 0 169.30 159.24
  Q 168.57 160.56 168.79 161.87
  Q 164.74 166.98 164.21 173.50
  Q 164.20 172.90 163.90 172.55
  A 0.40 0.36 -54.3 0 0 163.28 172.69
  L 159.24 181.04
  L 168.79 157.97
  A 1.20 1.15 12.2 0 1 169.94 157.26
  Q 177.53 157.59 177.06 165.60
  Z"
/>
<path fill="#020302" fill-opacity="0.914" d="
  M 323.16 156.95
  C 322.64 159.22 320.94 166.99 316.75 164.47
  L 317.25 164.21
  C 320.45 165.29 321.81 159.32 323.16 156.95
  Z"
/>
<path fill="#ab0000" d="
  M 309.24 160.55
  C 301.92 170.97 291.89 170.68 280.73 172.75
  Q 278.75 173.12 280.18 171.70
  C 285.10 166.77 290.28 159.96 297.66 158.23
  C 301.07 157.44 304.66 158.01 308.14 158.24
  Q 310.75 158.41 309.24 160.55
  Z"
/>
<path fill="#0f0203" fill-opacity="0.984" d="
  M 197.54 158.00
  C 201.68 162.37 198.90 171.99 196.86 177.07
  Q 196.51 177.94 196.06 178.36
  L 189.40 184.70
  Q 184.58 187.39 179.35 189.08
  C 177.52 189.66 174.79 188.45 175.75 192.46
  Q 175.73 191.34 175.22 190.48
  A 1.05 0.91 -9.9 0 0 174.44 190.01
  Q 169.59 189.55 164.79 190.50
  C 164.26 188.42 162.48 189.43 161.25 189.41
  Q 158.86 189.35 157.19 189.56
  Q 155.56 189.77 154.84 191.41
  L 148.39 206.06
  L 155.48 188.65
  A 0.75 0.74 11.3 0 1 156.19 188.18
  L 177.25 188.43
  A 0.26 0.26 9.2 0 0 177.50 188.25
  L 177.53 188.16
  A 0.16 0.14 -83.1 0 1 177.65 188.05
  C 191.93 185.66 201.73 172.57 197.54 158.00
  Z"
/>
<path fill="#0f0203" fill-opacity="0.984" d="
  M 205.96 159.25
  Q 205.70 160.20 206.50 160.54
  Q 206.09 162.32 205.00 163.79
  Q 204.84 161.42 205.96 159.25
  Z"
/>
<path fill="#a70000" d="
  M 168.79 161.87
  L 173.26 175.32
  Q 170.45 179.92 164.75 180.96
  L 164.21 173.50
  Q 164.74 166.98 168.79 161.87
  Z"
/>
<path fill="#0f0203" fill-opacity="0.984" d="
  M 436.75 162.25
  Q 437.79 163.12 437.96 164.50
  L 437.75 164.54
  Q 436.75 163.61 436.75 162.25
  Z"
/>
<path fill="#020302" fill-opacity="0.914" d="
  M 516.46 164.00
  Q 516.48 166.29 515.21 168.25
  Q 514.88 167.99 514.96 167.50
  L 516.46 164.00
  Z"
/>
<path fill="#020203" fill-opacity="0.961" d="
  M 350.71 169.00
  Q 349.27 168.38 348.25 170.00
  Q 343.59 177.36 341.99 181.10
  Q 341.31 181.57 341.09 181.00
  A 1.21 0.82 -45.6 0 1 341.26 180.06
  L 349.53 166.74
  A 0.35 0.34 -46.0 0 1 350.11 166.72
  Q 350.76 167.73 350.71 169.00
  Z"
/>
<path fill="#020203" fill-opacity="0.961" d="
  M 514.96 167.50
  Q 514.88 167.99 515.21 168.25
  L 503.09 195.57
  Q 497.97 202.50 491.40 208.11
  Q 487.55 211.25 481.56 213.56
  Q 464.32 220.24 448.34 213.27
  C 441.37 210.23 435.84 202.28 439.00 194.54
  C 437.42 203.58 443.32 211.07 451.71 213.63
  C 472.51 219.96 496.64 209.94 505.19 189.94
  Q 510.00 178.68 514.96 167.50
  Z"
/>
<path fill="#a70000" d="
  M 255.50 168.04
  L 249.96 177.25
  Q 247.43 179.02 244.29 179.25
  Q 246.45 175.42 242.57 175.31
  A 1.54 1.21 -58.3 0 0 241.67 175.64
  L 238.83 177.89
  A 1.43 1.43 25.6 0 1 237.94 178.20
  L 225.75 178.21
  Q 225.68 177.29 226.25 176.54
  Q 240.73 171.81 255.50 168.04
  Z"
/>
<path fill="#020203" fill-opacity="0.961" d="
  M 395.21 169.25
  C 393.16 186.39 403.87 191.20 413.19 204.81
  Q 414.21 206.30 413.71 209.50
  Q 413.60 205.29 411.81 203.69
  C 407.03 199.42 403.59 194.32 399.73 189.27
  C 395.44 183.65 392.73 176.09 395.21 169.25
  Z"
/>
<path fill="#020302" fill-opacity="0.914" d="
  M 351.25 171.21
  L 351.71 173.25
  L 351.25 173.29
  Q 350.62 172.25 351.25 171.21
  Z"
/>
<path fill="#020203" fill-opacity="0.961" d="
  M 104.90 185.61
  C 103.51 179.84 99.84 173.97 93.82 172.73
  C 84.73 170.86 77.14 181.36 73.56 188.31
  C 70.64 194.00 60.82 204.21 55.50 194.04
  C 57.17 194.91 58.40 196.45 60.11 196.84
  C 65.51 198.07 70.72 191.95 72.94 187.69
  Q 74.64 184.42 82.60 174.36
  Q 101.34 165.38 104.90 185.61
  Z"
/>
<path fill="#030400" fill-opacity="0.698" d="
  M 519.00 171.54
  L 518.96 174.50
  L 518.29 175.00
  Q 517.64 172.94 519.00 171.54
  Z"
/>
<path fill="#030100" fill-opacity="0.035" d="
  M 164.21 173.50
  L 164.75 180.96
  Q 162.65 181.56 159.24 181.04
  L 163.28 172.69
  A 0.40 0.36 -54.3 0 1 163.90 172.55
  Q 164.20 172.90 164.21 173.50
  Z"
/>
<path fill="#030400" fill-opacity="0.698" d="
  M 351.25 173.29
  L 351.71 173.25
  Q 352.11 173.79 352.04 174.50
  L 351.96 177.00
  L 351.25 173.29
  Z"
/>
<path fill="#020302" fill-opacity="0.914" d="
  M 352.04 174.50
  L 353.04 178.75
  Q 353.02 179.31 352.54 179.50
  Q 352.62 178.15 351.96 177.00
  L 352.04 174.50
  Z"
/>
<path fill="#020302" fill-opacity="0.914" d="
  M 518.96 174.50
  Q 519.34 179.83 521.50 184.71
  C 519.10 182.97 518.38 177.40 518.29 175.00
  L 518.96 174.50
  Z"
/>
<path fill="#9e0000" d="
  M 82.60 174.36
  Q 74.64 184.42 72.94 187.69
  C 70.72 191.95 65.51 198.07 60.11 196.84
  C 58.40 196.45 57.17 194.91 55.50 194.04
  Q 54.94 193.73 55.31 193.31
  Q 58.55 189.68 59.46 185.50
  Q 59.55 181.36 58.04 184.75
  L 57.00 186.29
  C 54.96 188.49 46.68 197.58 43.31 196.19
  C 39.85 194.76 37.39 190.61 34.25 188.04
  C 32.57 184.76 29.15 178.70 32.21 175.50
  Q 33.26 175.98 33.33 177.19
  A 0.54 0.51 89.9 0 0 33.82 177.71
  C 43.59 178.15 53.10 177.72 62.84 177.76
  C 66.51 177.78 76.61 178.79 79.45 176.96
  Q 81.09 175.90 82.60 174.36
  Z
  M 37.54 182.00
  C 36.58 183.43 36.51 188.93 38.24 186.43
  A 1.55 0.44 85.7 0 0 38.43 185.50
  L 38.50 182.04
  Q 38.43 179.79 37.54 182.00
  Z"
/>
<path fill="#030002" fill-opacity="0.992" d="
  M 249.96 177.25
  L 248.54 180.50
  Q 245.58 179.24 243.83 181.65
  Q 243.60 181.97 243.53 182.56
  Q 243.34 184.07 242.00 184.75
  L 244.29 179.25
  Q 247.43 179.02 249.96 177.25
  Z"
/>
<path fill="#020302" fill-opacity="0.914" d="
  M 353.04 178.75
  Q 354.57 181.73 351.25 181.21
  Q 353.20 181.22 352.54 179.50
  Q 353.02 179.31 353.04 178.75
  Z"
/>
<path fill="#030100" fill-opacity="0.035" d="
  M 248.54 180.50
  L 246.71 185.75
  L 242.54 186.25
  Q 242.00 185.59 242.00 184.75
  Q 243.34 184.07 243.53 182.56
  Q 243.60 181.97 243.83 181.65
  Q 245.58 179.24 248.54 180.50
  Z"
/>
<path fill="#020203" fill-opacity="0.961" d="
  M 38.50 182.04
  L 37.54 182.00
  Q 38.43 179.79 38.50 182.04
  Z"
/>
<path fill="#030100" fill-opacity="0.035" d="
  M 37.54 182.00
  L 38.50 182.04
  L 38.43 185.50
  A 1.55 0.44 85.7 0 1 38.24 186.43
  C 36.51 188.93 36.58 183.43 37.54 182.00
  Z"
/>
<path fill="#200403" fill-opacity="0.996" d="
  M 291.25 182.04
  L 290.71 183.50
  Q 290.23 183.09 290.00 182.46
  Q 290.56 182.06 291.25 182.04
  Z"
/>
<path fill="#9e0000" d="
  M 290.00 182.46
  Q 290.23 183.09 290.71 183.50
  Q 293.28 184.77 293.82 187.15
  C 287.06 191.90 278.86 191.49 272.27 191.98
  A 0.64 0.59 4.1 0 1 271.59 191.25
  L 273.54 183.66
  L 290.00 182.46
  Z"
/>
<path fill="#020203" fill-opacity="0.961" d="
  M 59.46 185.50
  Q 59.27 184.44 58.04 184.75
  Q 59.55 181.36 59.46 185.50
  Z"
/>
<path fill="#7f857e" d="
  M 236.31 184.35
  Q 228.95 185.28 221.75 184.29
  Q 228.98 183.38 236.31 184.35
  Z"
/>
<path fill="#020302" fill-opacity="0.914" d="
  M 322.21 183.75
  Q 322.86 185.66 318.91 187.25
  A 3.09 2.90 -87.9 0 0 317.30 188.85
  L 311.75 201.54
  L 311.25 201.46
  L 317.80 186.33
  A 0.16 0.15 -84.3 0 1 317.89 186.25
  Q 321.75 184.78 322.21 183.75
  Z"
/>
<path fill="#030002" fill-opacity="0.992" d="
  M 221.75 184.29
  Q 228.95 185.28 236.31 184.35
  Q 238.62 192.57 242.00 184.75
  Q 242.00 185.59 242.54 186.25
  L 240.53 189.33
  A 1.33 0.82 2.8 0 1 239.69 189.79
  Q 236.69 190.26 235.96 187.00
  Q 236.42 186.47 236.22 185.98
  A 0.95 0.64 -4.9 0 0 235.43 185.54
  C 230.72 185.38 219.74 184.26 220.75 188.29
  L 218.25 194.83
  A 0.75 0.74 7.5 0 0 219.03 195.83
  L 245.54 193.57
  L 245.46 196.00
  Q 244.92 195.92 244.96 196.50
  Q 244.44 195.29 242.50 195.50
  Q 234.63 196.35 218.00 197.00
  Q 216.08 197.08 216.29 198.75
  Q 215.31 199.70 214.92 201.87
  A 1.03 1.03 -81.4 0 0 215.81 203.08
  C 221.59 203.76 226.76 203.63 232.32 204.00
  Q 235.16 204.19 237.99 204.13
  L 235.81 206.30
  Q 235.66 205.07 234.94 205.05
  Q 224.95 204.78 214.96 204.52
  C 213.88 204.49 212.11 204.99 213.50 206.46
  Q 212.83 206.57 212.25 206.32
  A 0.57 0.52 -66.1 0 1 212.01 205.60
  C 213.04 203.24 220.84 184.48 221.75 184.29
  Z"
/>
<path fill="#020302" fill-opacity="0.914" d="
  M 521.79 185.00
  L 522.79 187.00
  Q 522.88 187.52 522.50 187.79
  Q 521.83 186.47 521.79 185.00
  Z"
/>
<path fill="#030100" fill-opacity="0.035" d="
  M 235.96 187.00
  Q 228.30 187.07 220.75 188.29
  C 219.74 184.26 230.72 185.38 235.43 185.54
  A 0.95 0.64 -4.9 0 1 236.22 185.98
  Q 236.42 186.47 235.96 187.00
  Z"
/>
<path fill="#980000" d="
  M 246.71 185.75
  L 245.54 193.57
  L 219.03 195.83
  A 0.75 0.74 7.5 0 1 218.25 194.83
  L 220.75 188.29
  Q 228.30 187.07 235.96 187.00
  Q 236.69 190.26 239.69 189.79
  A 1.33 0.82 2.8 0 0 240.53 189.33
  L 242.54 186.25
  L 246.71 185.75
  Z"
/>
<path fill="#030002" fill-opacity="0.992" d="
  M 57.00 186.29
  C 55.04 189.42 48.77 196.99 44.49 197.68
  A 1.57 1.41 51.6 0 1 43.55 197.52
  Q 37.43 194.26 34.25 188.04
  C 37.39 190.61 39.85 194.76 43.31 196.19
  C 46.68 197.58 54.96 188.49 57.00 186.29
  Z"
/>
<path fill="#020203" fill-opacity="0.961" d="
  M 522.79 187.00
  Q 531.24 196.60 538.48 207.19
  Q 536.62 207.59 537.00 206.68
  A 1.03 0.77 -54.5 0 0 536.98 205.82
  C 535.37 203.31 533.57 202.13 531.69 199.06
  Q 531.15 198.18 528.00 194.96
  Q 526.09 191.43 523.04 188.75
  L 522.50 187.79
  Q 522.88 187.52 522.79 187.00
  Z"
/>
<path fill="#020302" fill-opacity="0.914" d="
  M 358.04 200.50
  Q 358.02 201.06 357.54 201.25
  L 355.29 190.80
  A 0.66 0.61 83.9 0 0 354.70 190.28
  L 337.09 190.04
  A 2.07 1.88 -71.9 0 0 335.40 191.00
  L 324.58 208.08
  Q 329.41 198.29 335.62 189.23
  A 1.11 1.10 -72.7 0 1 336.53 188.75
  L 354.72 188.75
  A 0.73 0.71 -6.5 0 1 355.43 189.30
  L 358.04 200.50
  Z"
/>
<path fill="#010400" fill-opacity="0.498" d="
  M 523.04 188.75
  Q 526.09 191.43 528.00 194.96
  Q 525.11 192.17 523.04 188.75
  Z"
/>
<path fill="#910000" d="
  M 175.75 192.46
  Q 176.16 193.14 176.04 194.00
  Q 175.96 199.45 175.99 204.90
  C 176.00 206.75 175.31 208.31 175.01 210.19
  A 0.60 0.59 -85.9 0 1 174.44 210.69
  L 160.73 210.95
  Q 163.58 200.89 164.79 190.50
  Q 169.59 189.55 174.44 190.01
  A 1.05 0.91 -9.9 0 1 175.22 190.48
  Q 175.73 191.34 175.75 192.46
  Z"
/>
<path fill="#910000" d="
  M 118.05 190.60
  L 114.21 202.50
  L 114.10 211.01
  A 1.79 1.65 89.2 0 1 112.52 212.77
  L 97.00 213.46
  A 1.19 0.64 -61.5 0 0 96.26 213.94
  C 95.73 214.62 94.45 213.17 93.96 212.75
  C 98.45 204.46 101.69 199.41 103.71 192.00
  Q 104.08 192.98 105.81 193.31
  Q 113.30 194.77 118.05 190.60
  Z"
/>
<path fill="#840000" d="
  M 176.04 194.00
  Q 176.78 202.73 176.46 211.50
  C 176.50 214.89 176.82 217.58 174.25 220.19
  Q 166.80 227.80 157.29 232.75
  Q 155.98 232.25 155.28 233.08
  A 1.34 0.87 -62.9 0 1 154.50 233.53
  Q 147.83 233.85 141.16 233.73
  C 125.08 233.44 108.90 233.60 92.82 233.73
  Q 87.55 233.78 82.29 233.25
  L 93.96 212.75
  C 94.45 213.17 95.73 214.62 96.26 213.94
  A 1.19 0.64 -61.5 0 1 97.00 213.46
  L 112.52 212.77
  A 1.79 1.65 89.2 0 0 114.10 211.01
  L 114.21 202.50
  L 114.46 209.00
  C 115.74 222.89 125.89 231.78 139.58 230.09
  C 146.44 229.24 153.53 225.88 157.33 219.83
  C 158.90 217.33 159.68 213.93 160.73 210.95
  L 174.44 210.69
  A 0.60 0.59 -85.9 0 0 175.01 210.19
  C 175.31 208.31 176.00 206.75 175.99 204.90
  Q 175.96 199.45 176.04 194.00
  Z"
/>
<path fill="#010400" fill-opacity="0.498" d="
  M 503.09 195.57
  Q 498.94 203.36 491.40 208.11
  Q 497.97 202.50 503.09 195.57
  Z"
/>
<path fill="#0f0203" fill-opacity="0.984" d="
  M 245.46 196.00
  Q 246.51 203.64 251.79 209.25
  L 251.71 209.75
  C 248.85 206.61 244.03 202.94 241.46 209.00
  Q 241.25 208.97 241.21 208.75
  L 242.54 205.00
  L 245.75 204.72
  A 0.77 0.55 2.2 0 0 246.41 204.28
  Q 246.77 202.71 245.32 200.71
  A 1.58 1.54 -59.8 0 1 245.03 199.56
  Q 245.24 197.92 243.50 197.79
  Q 245.32 198.25 244.96 196.50
  Q 244.92 195.92 245.46 196.00
  Z"
/>
<path fill="#910000" d="
  M 269.52 196.68
  L 283.01 197.02
  A 1.19 0.60 -7.2 0 1 283.88 197.33
  Q 284.21 197.78 283.96 198.50
  Q 280.80 204.57 274.00 205.04
  Q 268.87 202.23 269.52 196.68
  Z"
/>
<path fill="#020302" fill-opacity="0.914" d="
  M 460.93 196.64
  Q 461.35 197.01 461.46 197.00
  Q 461.48 198.65 460.29 199.75
  L 460.93 196.64
  Z"
/>
<path fill="#910000" d="
  M 243.50 197.79
  Q 245.24 197.92 245.03 199.56
  A 1.58 1.54 -59.8 0 0 245.32 200.71
  Q 246.77 202.71 246.41 204.28
  A 0.77 0.55 2.2 0 1 245.75 204.72
  L 242.54 205.00
  Q 241.16 201.27 237.99 204.13
  Q 235.16 204.19 232.32 204.00
  C 226.76 203.63 221.59 203.76 215.81 203.08
  A 1.03 1.03 -81.4 0 1 214.92 201.87
  Q 215.31 199.70 216.29 198.75
  Q 229.88 197.69 243.50 197.79
  Z"
/>
<path fill="#0f0203" fill-opacity="0.984" d="
  M 283.96 198.50
  Q 282.96 202.94 278.96 205.03
  A 0.33 0.29 -40.4 0 0 278.88 205.56
  Q 279.64 206.05 280.75 205.79
  Q 277.18 206.73 274.00 205.04
  Q 280.80 204.57 283.96 198.50
  Z"
/>
<path fill="#020203" fill-opacity="0.961" d="
  M 358.04 200.50
  Q 359.36 204.28 359.54 208.22
  L 357.54 201.25
  Q 358.02 201.06 358.04 200.50
  Z"
/>
<path fill="#020302" fill-opacity="0.914" d="
  M 434.21 201.25
  Q 434.62 203.78 433.46 206.00
  Q 433.16 205.85 433.21 205.50
  L 434.21 201.25
  Z"
/>
<path fill="#020203" fill-opacity="0.961" d="
  M 311.25 201.46
  L 311.75 201.54
  L 306.94 212.37
  A 2.51 2.37 11.9 0 1 304.64 213.78
  C 297.59 213.62 289.06 215.00 282.72 212.91
  A 1.37 1.35 -47.1 0 0 281.79 212.95
  C 278.79 214.21 275.10 214.53 272.42 215.06
  Q 265.06 216.49 257.00 214.00
  Q 255.46 213.53 254.89 212.52
  A 1.63 1.09 78.0 0 0 254.23 211.88
  Q 252.68 211.17 251.71 209.75
  L 251.79 209.25
  Q 256.25 212.96 261.96 214.21
  Q 266.88 215.19 271.77 214.20
  Q 277.43 213.43 282.79 211.42
  A 0.78 0.71 57.3 0 1 283.58 211.63
  Q 284.59 212.71 285.44 212.69
  Q 294.72 212.44 304.88 212.78
  A 2.18 2.04 -76.6 0 0 306.87 211.46
  L 311.25 201.46
  Z"
/>
<path fill="#030002" fill-opacity="0.992" d="
  M 558.15 203.35
  Q 553.31 220.99 534.44 224.19
  C 528.55 225.18 523.50 224.41 517.97 222.50
  Q 512.90 220.75 509.08 216.69
  C 519.38 223.00 529.78 225.42 541.50 221.15
  Q 553.87 216.63 558.15 203.35
  Z"
/>
<path fill="#030100" fill-opacity="0.035" d="
  M 235.81 206.30
  L 213.50 206.46
  C 212.11 204.99 213.88 204.49 214.96 204.52
  Q 224.95 204.78 234.94 205.05
  Q 235.66 205.07 235.81 206.30
  Z"
/>
<path fill="#030002" fill-opacity="0.992" d="
  M 433.21 205.50
  Q 433.16 205.85 433.46 206.00
  C 431.45 212.13 426.35 218.38 420.23 221.13
  Q 417.06 222.56 412.17 223.85
  C 404.57 225.84 387.17 223.23 384.10 215.03
  A 0.70 0.68 79.3 0 0 383.44 214.57
  C 376.53 214.61 369.54 214.24 362.65 214.43
  C 360.34 214.50 355.81 214.08 357.25 210.54
  Q 357.28 212.91 359.25 213.00
  Q 371.97 213.57 384.71 213.06
  A 0.77 0.77 -81.6 0 1 385.46 214.11
  C 383.61 218.83 396.38 221.78 400.25 222.75
  C 405.57 224.09 408.96 223.46 414.52 222.05
  Q 427.77 218.67 433.21 205.50
  Z"
/>
<path fill="#200403" fill-opacity="0.996" d="
  M 241.21 208.75
  Q 241.25 208.97 241.46 209.00
  L 239.89 213.72
  L 238.27 214.83
  A 1.47 0.48 -41.0 0 1 237.44 215.18
  L 221.31 215.06
  A 1.24 1.04 17.9 0 0 220.45 215.41
  Q 219.59 216.33 221.00 216.46
  Q 220.09 216.65 219.25 216.29
  Q 215.72 214.73 211.96 215.51
  Q 209.10 214.88 206.25 215.71
  Q 207.63 213.65 205.04 214.00
  Q 199.72 212.85 194.25 213.21
  L 194.25 213.04
  L 237.97 213.00
  A 2.57 2.05 -75.4 0 0 240.01 211.47
  L 241.21 208.75
  Z"
/>
<path fill="#030002" fill-opacity="0.992" d="
  M 326.96 211.25
  Q 326.54 214.33 323.69 214.39
  C 319.32 214.47 315.55 214.87 311.29 213.59
  A 0.78 0.53 13.4 0 1 310.71 212.95
  Q 310.74 212.68 311.00 212.46
  C 312.88 213.89 319.48 213.25 322.00 213.25
  Q 325.44 213.25 326.96 211.25
  Z"
/>
<path fill="#030002" fill-opacity="0.992" d="
  M 176.46 211.50
  C 176.60 216.81 177.54 218.60 173.39 222.41
  Q 152.16 241.85 123.50 246.50
  C 118.34 247.34 108.92 247.22 105.16 247.08
  C 96.49 246.77 86.39 244.24 79.02 240.81
  Q 82.14 240.76 84.78 241.66
  C 109.20 250.00 135.55 245.88 157.29 232.75
  Q 166.80 227.80 174.25 220.19
  C 176.82 217.58 176.50 214.89 176.46 211.50
  Z"
/>
<path fill="#020203" fill-opacity="0.961" d="
  M 121.21 212.00
  C 121.12 213.52 122.41 212.99 123.29 213.01
  Q 136.28 213.33 149.27 212.64
  Q 149.60 212.86 148.47 213.44
  Q 146.02 214.70 143.27 214.59
  C 135.35 214.27 128.27 214.50 122.69 214.06
  Q 120.78 213.91 121.21 212.00
  Z"
/>
<path fill="#030002" fill-opacity="0.992" d="
  M 184.21 212.00
  Q 184.12 212.50 184.48 213.21
  L 194.25 213.21
  Q 199.72 212.85 205.04 214.00
  Q 201.87 213.95 200.81 215.31
  Q 195.49 222.21 189.36 228.37
  C 179.16 238.62 169.44 246.47 156.26 251.53
  C 131.47 261.05 105.32 259.07 80.19 250.31
  Q 72.87 247.76 68.73 245.20
  Q 68.28 244.92 68.75 244.69
  Q 70.29 243.91 72.00 244.54
  C 70.60 246.76 73.04 246.40 74.19 246.87
  C 104.74 259.42 139.20 260.90 168.29 244.24
  C 179.60 237.76 189.87 226.80 198.61 216.78
  Q 200.24 214.91 197.68 214.94
  L 185.78 215.12
  C 186.36 212.99 182.41 214.58 184.21 212.00
  Z"
/>
<path fill="#4b5142" d="
  M 184.48 213.21
  L 194.25 213.04
  L 194.25 213.21
  L 184.48 213.21
  Z"
/>
<path fill="#840000" d="
  M 239.89 213.72
  Q 251.89 215.10 263.61 217.90
  Q 259.58 222.82 253.75 221.75
  C 243.96 219.95 238.02 218.43 230.00 218.04
  L 222.50 216.71
  Q 221.80 216.37 221.00 216.46
  Q 219.59 216.33 220.45 215.41
  A 1.24 1.04 17.9 0 1 221.31 215.06
  L 237.44 215.18
  A 1.47 0.48 -41.0 0 0 238.27 214.83
  L 239.89 213.72
  Z"
/>
<path fill="#7f857e" d="
  M 261.96 214.21
  Q 266.88 213.69 271.77 214.20
  Q 266.88 215.19 261.96 214.21
  Z"
/>
<path fill="#790000" d="
  M 72.00 244.54
  Q 110.00 254.85 146.98 243.45
  Q 157.32 240.27 161.42 238.31
  C 171.53 233.47 179.82 224.23 185.78 215.12
  L 197.68 214.94
  Q 200.24 214.91 198.61 216.78
  C 189.87 226.80 179.60 237.76 168.29 244.24
  C 139.20 260.90 104.74 259.42 74.19 246.87
  C 73.04 246.40 70.60 246.76 72.00 244.54
  Z"
/>
<path fill="#030400" fill-opacity="0.698" d="
  M 219.25 216.29
  Q 218.48 217.08 217.25 216.79
  L 211.96 215.51
  Q 215.72 214.73 219.25 216.29
  Z"
/>
<path fill="#840000" d="
  M 211.96 215.51
  L 217.25 216.79
  L 221.00 217.21
  L 252.55 224.58
  Q 250.50 229.00 245.80 228.87
  C 243.24 228.79 239.07 229.00 237.50 228.50
  Q 221.25 223.34 204.63 219.37
  Q 204.67 217.23 206.25 215.71
  Q 209.10 214.88 211.96 215.51
  Z"
/>
<path fill="#030400" fill-opacity="0.698" d="
  M 219.25 216.29
  Q 220.09 216.65 221.00 216.46
  Q 221.80 216.37 222.50 216.71
  Q 221.44 216.44 221.00 217.21
  L 217.25 216.79
  Q 218.48 217.08 219.25 216.29
  Z"
/>
<path fill="#0f0203" fill-opacity="0.984" d="
  M 230.00 218.04
  C 238.02 218.43 243.96 219.95 253.75 221.75
  Q 259.58 222.82 263.61 217.90
  Q 263.61 219.82 262.94 219.94
  C 257.60 224.81 253.64 223.09 247.39 221.95
  Q 238.61 220.35 230.00 218.04
  Z"
/>
<path fill="#030002" fill-opacity="0.992" d="
  M 204.63 219.37
  Q 221.25 223.34 237.50 228.50
  C 239.07 229.00 243.24 228.79 245.80 228.87
  Q 250.50 229.00 252.55 224.58
  Q 252.72 228.40 248.50 229.50
  C 241.80 231.25 237.99 229.96 230.34 227.77
  Q 217.40 224.08 204.63 219.37
  Z"
/>
<path fill="#790000" d="
  M 219.95 231.87
  Q 212.14 242.33 199.08 238.43
  Q 196.21 237.18 198.46 239.75
  L 203.75 246.21
  Q 200.90 247.97 196.94 246.56
  Q 194.56 245.72 196.21 248.00
  Q 197.11 248.77 197.73 250.95
  Q 182.11 257.90 177.00 259.50
  C 164.99 263.26 152.71 264.69 140.25 262.65
  Q 135.52 261.87 130.66 261.35
  Q 130.85 259.75 131.78 259.86
  Q 132.65 259.96 132.75 259.95
  C 159.53 257.19 182.46 247.86 199.25 225.26
  A 1.48 1.48 -61.7 0 1 200.95 224.75
  Q 208.91 227.65 217.44 230.56
  Q 219.21 231.17 219.95 231.87
  Z"
/>
<path fill="#0f0203" fill-opacity="0.984" d="
  M 219.95 231.87
  C 217.23 240.26 206.21 242.65 199.00 239.21
  L 199.08 238.43
  Q 212.14 242.33 219.95 231.87
  Z"
/>
<path fill="#7c0000" d="
  M 157.29 232.75
  C 135.55 245.88 109.20 250.00 84.78 241.66
  Q 82.14 240.76 79.02 240.81
  Q 79.44 236.49 82.29 233.25
  Q 87.55 233.78 92.82 233.73
  C 108.90 233.60 125.08 233.44 141.16 233.73
  Q 147.83 233.85 154.50 233.53
  A 1.34 0.87 -62.9 0 0 155.28 233.08
  Q 155.98 232.25 157.29 232.75
  Z"
/>
<path fill="#030002" fill-opacity="0.992" d="
  M 199.08 238.43
  L 199.00 239.21
  Q 198.42 239.17 198.46 239.75
  Q 196.21 237.18 199.08 238.43
  Z"
/>
<path fill="#0f0203" fill-opacity="0.984" d="
  M 203.75 246.21
  C 204.08 249.89 197.72 248.02 196.21 248.00
  Q 194.56 245.72 196.94 246.56
  Q 200.90 247.97 203.75 246.21
  Z"
/>
<path fill="#030002" fill-opacity="0.992" d="
  M 197.73 250.95
  Q 174.62 265.77 147.00 265.25
  Q 141.69 265.15 130.66 261.35
  Q 135.52 261.87 140.25 262.65
  C 152.71 264.69 164.99 263.26 177.00 259.50
  Q 182.11 257.90 197.73 250.95
  Z"
/>
</svg>
