<?xml version="1.0" encoding="UTF-8" standalone="no"?>
<!DOCTYPE svg PUBLIC "-//W3C//DTD SVG 1.1//EN" "http://www.w3.org/Graphics/SVG/1.1/DTD/svg11.dtd">
<svg xmlns="http://www.w3.org/2000/svg" version="1.1" viewBox="0 0 600 300">
<g stroke-width="2.00" fill="none" stroke-linecap="butt">
<path stroke="#ea7f7d" vector-effect="non-scaling-stroke" d="
  M 76.25 74.29
  L 76.50 87.21"
/>
<path stroke="#7c7e7c" vector-effect="non-scaling-stroke" d="
  M 76.50 87.21
  Q 65.65 87.29 55.29 90.50"
/>
<path stroke="#e9f7e5" vector-effect="non-scaling-stroke" d="
  M 55.29 90.50
  Q 53.16 85.60 49.19 82.81
  Q 47.10 81.35 48.00 79.29"
/>
<path stroke="#e01515" vector-effect="non-scaling-stroke" d="
  M 107.54 81.00
  Q 106.71 83.63 104.02 84.56
  Q 99.03 86.29 96.75 90.96"
/>
<path stroke="#6e0101" vector-effect="non-scaling-stroke" d="
  M 96.75 90.96
  Q 86.94 87.48 76.50 87.21"
/>
<path stroke="#6d796a" vector-effect="non-scaling-stroke" d="
  M 55.29 90.50
  L 45.54 94.75"
/>
<path stroke="#cfedc7" vector-effect="non-scaling-stroke" d="
  M 45.54 94.75
  C 45.43 90.93 38.44 88.42 37.21 84.75"
/>
<path stroke="#e53535" vector-effect="non-scaling-stroke" d="
  M 122.52 89.97
  Q 120.25 91.06 117.93 92.09
  Q 113.52 94.05 110.46 97.75"
/>
<path stroke="#721414" vector-effect="non-scaling-stroke" d="
  M 110.46 97.75
  Q 104.00 93.54 96.75 90.96"
/>
<path stroke="#62745d" vector-effect="non-scaling-stroke" d="
  M 45.54 94.75
  L 37.50 100.29"
/>
<path stroke="#bae5ae" vector-effect="non-scaling-stroke" d="
  M 37.50 100.29
  C 34.92 99.97 33.87 96.73 32.33 95.06
  C 30.82 93.42 28.48 93.19 29.46 90.00"
/>
<path stroke="#732121" vector-effect="non-scaling-stroke" d="
  M 110.46 97.75
  L 114.21 100.50"
/>
<path stroke="#752c2c" vector-effect="non-scaling-stroke" d="
  M 114.21 100.50
  L 122.00 107.79"
/>
<path stroke="#773939" vector-effect="non-scaling-stroke" d="
  M 122.00 107.79
  L 127.75 115.29"
/>
<path stroke="#794646" vector-effect="non-scaling-stroke" d="
  M 127.75 115.29
  L 133.00 125.04"
/>
<path stroke="#7a5454" vector-effect="non-scaling-stroke" d="
  M 133.00 125.04
  L 136.25 134.79"
/>
<path stroke="#7c5f5f" vector-effect="non-scaling-stroke" d="
  M 136.25 134.79
  L 137.46 142.00"
/>
<path stroke="#7d6a6a" vector-effect="non-scaling-stroke" d="
  M 137.46 142.00
  L 137.79 151.25"
/>
<path stroke="#808080" vector-effect="non-scaling-stroke" d="
  M 137.79 151.25
  Q 136.89 166.97 129.25 180.71"
/>
<path stroke="#0d0065" vector-effect="non-scaling-stroke" d="
  M 129.25 180.71
  Q 127.77 181.89 127.25 183.71"
/>
<path stroke="#150968" vector-effect="non-scaling-stroke" d="
  M 127.25 183.71
  Q 122.41 190.19 116.50 195.71"
/>
<path stroke="#1e1369" vector-effect="non-scaling-stroke" d="
  M 116.50 195.71
  Q 111.43 199.82 105.75 203.04"
/>
<path stroke="#2b216d" vector-effect="non-scaling-stroke" d="
  M 105.75 203.04
  L 96.51 207.20"
/>
<path stroke="#3e3671" vector-effect="non-scaling-stroke" d="
  M 96.51 207.20
  Q 88.14 210.07 79.07 210.67"
/>
<path stroke="#504a75" vector-effect="non-scaling-stroke" d="
  M 79.07 210.67
  L 70.46 210.59"
/>
<path stroke="#5d5a77" vector-effect="non-scaling-stroke" d="
  M 70.46 210.59
  L 60.60 209.13"
/>
<path stroke="#6a687b" vector-effect="non-scaling-stroke" d="
  M 60.60 209.13
  L 53.73 206.92"
/>
<path stroke="#808080" vector-effect="non-scaling-stroke" d="
  M 53.73 206.92
  Q 32.92 198.61 21.50 179.46"
/>
<path stroke="#125600" vector-effect="non-scaling-stroke" d="
  M 21.50 179.46
  Q 16.09 169.74 14.21 158.75"
/>
<path stroke="#235d14" vector-effect="non-scaling-stroke" d="
  M 14.21 158.75
  Q 12.34 146.18 15.40 134.07"
/>
<path stroke="#346428" vector-effect="non-scaling-stroke" d="
  M 15.40 134.07
  Q 16.73 128.55 18.92 123.86"
/>
<path stroke="#416836" vector-effect="non-scaling-stroke" d="
  M 18.92 123.86
  L 24.15 114.43"
/>
<path stroke="#4e6d45" vector-effect="non-scaling-stroke" d="
  M 24.15 114.43
  L 31.54 105.50"
/>
<path stroke="#587151" vector-effect="non-scaling-stroke" d="
  M 31.54 105.50
  L 37.50 100.29"
/>
<path stroke="#585474" vector-effect="non-scaling-stroke" d="
  M 72.00 94.79
  Q 66.79 94.91 61.72 96.48"
/>
<path stroke="#625f77" vector-effect="non-scaling-stroke" d="
  M 61.72 96.48
  Q 53.84 98.34 46.96 102.75"
/>
<path stroke="#6e6c7b" vector-effect="non-scaling-stroke" d="
  M 46.96 102.75
  Q 31.08 112.25 24.29 129.50"
/>
<path stroke="#646278" vector-effect="non-scaling-stroke" d="
  M 24.29 129.50
  Q 21.96 135.30 21.04 141.50"
/>
<path stroke="#5b5774" vector-effect="non-scaling-stroke" d="
  M 21.04 141.50
  Q 20.30 146.13 20.75 150.79"
/>
<path stroke="#504b71" vector-effect="non-scaling-stroke" d="
  M 20.75 150.79
  Q 20.75 157.85 23.00 164.54"
/>
<path stroke="#3e386b" vector-effect="non-scaling-stroke" d="
  M 23.00 164.54
  Q 25.38 173.15 30.75 180.29"
/>
<path stroke="#322b61" vector-effect="non-scaling-stroke" d="
  M 30.75 180.29
  L 36.00 186.54"
/>
<path stroke="#2a2455" vector-effect="non-scaling-stroke" d="
  M 36.00 186.54
  L 41.50 191.54"
/>
<path stroke="#231d4c" vector-effect="non-scaling-stroke" d="
  M 41.50 191.54
  Q 46.16 195.39 51.71 197.75"
/>
<path stroke="#1a143f" vector-effect="non-scaling-stroke" d="
  M 51.71 197.75
  Q 58.08 201.30 65.22 202.19"
/>
<path stroke="#242043" vector-effect="non-scaling-stroke" d="
  M 65.22 202.19
  Q 68.84 203.29 72.50 203.21"
/>
<path stroke="#353152" vector-effect="non-scaling-stroke" d="
  M 72.50 203.21
  C 92.42 204.70 111.73 194.98 122.54 178.25"
/>
<path stroke="#242043" vector-effect="non-scaling-stroke" d="
  M 122.54 178.25
  Q 125.57 173.96 127.29 169.00"
/>
<path stroke="#1a143f" vector-effect="non-scaling-stroke" d="
  M 127.29 169.00
  Q 130.85 160.77 131.17 151.82
  A 0.58 0.49 -87.9 0 0 130.70 151.22
  L 125.25 151.04"
/>
<path stroke="#231d4c" vector-effect="non-scaling-stroke" d="
  M 125.25 151.04
  L 118.25 151.04"
/>
<path stroke="#2a2455" vector-effect="non-scaling-stroke" d="
  M 118.25 151.04
  L 114.25 151.04"
/>
<path stroke="#322b61" vector-effect="non-scaling-stroke" d="
  M 114.25 151.04
  L 101.25 151.04"
/>
<path stroke="#48436f" vector-effect="non-scaling-stroke" d="
  M 101.25 151.04
  L 83.94 151.17
  A 0.52 0.50 90.0 0 0 83.44 151.69
  L 83.43 162.81
  A 0.52 0.51 90.0 0 0 83.94 163.33
  L 101.71 163.25"
/>
<path stroke="#322b61" vector-effect="non-scaling-stroke" d="
  M 101.71 163.25
  C 103.84 163.83 102.21 164.85 101.72 165.58
  Q 91.40 180.61 72.75 179.54"
/>
<path stroke="#453f6e" vector-effect="non-scaling-stroke" d="
  M 72.75 179.54
  Q 59.11 178.32 50.54 167.75"
/>
<path stroke="#646278" vector-effect="non-scaling-stroke" d="
  M 50.54 167.75
  Q 46.24 161.83 44.50 154.71"
/>
<path stroke="#76757d" vector-effect="non-scaling-stroke" d="
  M 44.50 154.71
  L 44.21 145.50"
/>
<path stroke="#808080" vector-effect="non-scaling-stroke" d="
  M 44.21 145.50
  Q 45.11 138.20 49.25 132.21"
/>
<path stroke="#434443" vector-effect="non-scaling-stroke" d="
  M 49.25 132.21
  C 57.65 147.01 75.99 129.89 63.63 120.34"
/>
<path stroke="#808080" vector-effect="non-scaling-stroke" d="
  M 63.63 120.34
  Q 68.58 118.08 73.75 117.96"
/>
<path stroke="#76757d" vector-effect="non-scaling-stroke" d="
  M 73.75 117.96
  Q 82.93 117.53 91.00 121.79"
/>
<path stroke="#585474" vector-effect="non-scaling-stroke" d="
  M 91.00 121.79
  Q 98.95 126.52 103.81 135.19
  Q 104.21 135.90 105.71 135.32"
/>
<path stroke="#453f6e" vector-effect="non-scaling-stroke" d="
  M 105.71 135.32
  L 112.75 135.46"
/>
<path stroke="#383168" vector-effect="non-scaling-stroke" d="
  M 112.75 135.46
  L 125.09 135.32"
/>
<path stroke="#2e275b" vector-effect="non-scaling-stroke" d="
  M 125.09 135.32
  L 128.97 135.42
  A 0.42 0.39 81.7 0 0 129.34 134.88
  Q 124.97 120.03 114.54 110.00"
/>
<path stroke="#383168" vector-effect="non-scaling-stroke" d="
  M 114.54 110.00
  Q 107.66 103.45 99.00 99.54"
/>
<path stroke="#453f6e" vector-effect="non-scaling-stroke" d="
  M 99.00 99.54
  Q 90.91 95.72 82.00 95.04"
/>
<path stroke="#504b71" vector-effect="non-scaling-stroke" d="
  M 82.00 95.04
  Q 77.02 94.05 72.00 94.79"
/>
<path stroke="#948adf" vector-effect="non-scaling-stroke" d="
  M 82.00 95.04
  Q 82.30 97.50 84.00 98.75
  Q 98.62 109.51 100.29 127.39"
/>
<path stroke="#a79fe5" vector-effect="non-scaling-stroke" d="
  M 100.29 127.39
  Q 97.35 125.65 95.81 123.69
  Q 93.96 121.32 93.81 120.69
  C 91.73 111.88 85.83 106.01 77.75 100.52
  C 75.06 98.70 73.04 98.26 72.00 94.79"
/>
<path stroke="#9c93e2" vector-effect="non-scaling-stroke" d="
  M 100.29 127.39
  L 105.71 135.32"
/>
<path stroke="#cdc9f1" vector-effect="non-scaling-stroke" d="
  M 91.00 121.79
  Q 91.57 120.55 90.18 120.09"
/>
<path stroke="#b9b3eb" vector-effect="non-scaling-stroke" d="
  M 90.18 120.09
  Q 87.45 116.88 85.72 113.11
  Q 84.44 110.33 82.98 108.91
  Q 76.03 102.12 66.44 99.56
  Q 65.15 99.22 61.72 96.48"
/>
<path stroke="#7c70d5" vector-effect="non-scaling-stroke" d="
  M 99.00 99.54
  C 97.73 104.13 100.80 105.23 102.51 108.15
  Q 109.09 119.43 108.25 132.75
  Q 108.10 135.15 111.50 134.50
  Q 112.85 134.24 112.75 135.46"
/>
<path stroke="#d7d3f4" vector-effect="non-scaling-stroke" d="
  M 90.18 120.09
  L 80.00 116.46"
/>
<path stroke="#cfcaf2" vector-effect="non-scaling-stroke" d="
  M 80.00 116.46
  Q 75.04 108.31 65.73 105.82
  Q 57.33 103.57 50.50 104.25
  Q 47.88 104.51 46.96 102.75"
/>
<path stroke="#f5f4fd" vector-effect="non-scaling-stroke" d="
  M 73.75 117.96
  C 76.07 115.60 70.74 116.14 69.73 116.38
  A 1.66 1.58 -40.5 0 1 68.78 116.33
  C 64.66 114.84 60.17 112.75 55.96 112.73
  Q 48.90 112.69 43.50 116.25
  Q 31.49 124.17 37.92 137.20
  C 38.78 138.94 40.14 140.20 41.63 141.33
  A 2.61 2.59 -68.1 0 1 42.64 143.72
  Q 42.30 146.44 44.21 145.50"
/>
<path stroke="#dad6f5" vector-effect="non-scaling-stroke" d="
  M 44.50 154.71
  Q 44.06 155.04 43.56 155.03
  A 0.67 0.54 86.3 0 1 43.02 154.44
  L 42.46 150.00"
/>
<path stroke="#6557c2" vector-effect="non-scaling-stroke" d="
  M 114.54 110.00
  Q 113.22 112.60 114.08 115.09
  C 115.98 120.56 116.57 126.40 116.31 131.79
  Q 116.16 134.87 119.20 134.38
  Q 122.81 133.80 125.09 135.32"
/>
<path stroke="#e3e0f8" vector-effect="non-scaling-stroke" d="
  M 80.00 116.46
  L 73.99 116.00
  A 3.37 2.49 -7.8 0 1 71.50 114.64
  C 70.59 113.00 67.80 112.39 66.55 111.76
  C 56.82 106.89 44.13 108.51 36.65 116.67
  C 29.74 124.22 29.75 136.42 38.28 143.01
  Q 38.65 143.29 38.85 143.78
  Q 39.46 145.23 40.96 145.69
  A 1.05 0.61 9.6 0 1 41.64 146.26
  L 42.46 150.00"
/>
<path stroke="#d2cdf2" vector-effect="non-scaling-stroke" d="
  M 42.46 150.00
  C 36.52 149.41 29.09 141.04 28.00 134.50
  Q 27.34 130.56 24.29 129.50"
/>
<path stroke="#a9a1e5" vector-effect="non-scaling-stroke" d="
  M 50.54 167.75
  Q 49.73 168.68 48.79 167.50"
/>
<path stroke="#b4ace9" vector-effect="non-scaling-stroke" d="
  M 48.79 167.50
  L 44.93 161.78"
/>
<path stroke="#bfb9ec" vector-effect="non-scaling-stroke" d="
  M 44.93 161.78
  Q 44.71 159.27 44.00 158.25
  A 4.79 2.60 5.2 0 0 41.75 156.75
  Q 33.46 153.87 27.61 147.51
  C 25.44 145.16 24.78 142.79 21.04 141.50"
/>
<path stroke="#c3c4c2" vector-effect="non-scaling-stroke" d="
  M 63.63 120.34
  Q 61.43 120.89 62.99 122.04
  C 74.52 130.48 55.30 144.35 50.84 131.79
  A 1.03 0.69 80.3 0 0 50.22 131.14
  Q 49.43 131.00 49.25 132.21"
/>
<path stroke="#aaa2e5" vector-effect="non-scaling-stroke" d="
  M 44.93 161.78
  Q 37.70 160.91 31.91 156.62
  Q 30.91 155.87 28.85 154.77
  C 25.81 153.13 24.98 149.10 20.75 150.79"
/>
<path stroke="#948adf" vector-effect="non-scaling-stroke" d="
  M 48.79 167.50
  L 49.73 169.31"
/>
<path stroke="#8e82dc" vector-effect="non-scaling-stroke" d="
  M 49.73 169.31
  Q 40.48 169.53 30.75 164.50
  Q 27.78 162.96 26.34 161.70
  C 22.04 157.94 24.99 164.32 23.00 164.54"
/>
<path stroke="#5c4fb6" vector-effect="non-scaling-stroke" d="
  M 114.25 151.04
  L 117.76 151.62
  A 1.29 1.25 -12.2 0 1 118.58 152.13
  C 119.18 152.97 114.77 152.83 113.79 153.15
  A 1.09 0.97 -85.9 0 0 113.14 153.78
  C 111.91 157.06 108.15 162.70 105.10 164.94
  Q 103.08 166.42 102.00 167.74
  C 94.68 176.63 86.16 180.18 74.98 181.95
  Q 73.55 182.17 71.20 183.13
  C 68.82 184.09 66.05 184.14 63.66 184.61
  C 55.90 186.14 44.24 184.53 36.46 182.96
  Q 33.25 182.31 35.14 183.61
  Q 36.11 184.27 36.68 185.29
  Q 37.28 186.38 36.00 186.54"
/>
<path stroke="#7063cc" vector-effect="non-scaling-stroke" d="
  M 30.75 180.29
  C 32.48 180.08 30.12 177.02 29.58 175.80
  Q 29.11 174.76 30.16 175.19
  Q 46.84 182.12 63.31 179.20"
/>
<path stroke="#776acf" vector-effect="non-scaling-stroke" d="
  M 63.31 179.20
  C 65.02 179.37 72.63 182.07 72.75 179.54"
/>
<path stroke="#8377d8" vector-effect="non-scaling-stroke" d="
  M 49.73 169.31
  Q 55.37 174.97 63.31 179.20"
/>
<path stroke="#7a6ed0" vector-effect="non-scaling-stroke" d="
  M 101.25 151.04
  C 104.42 152.48 100.02 152.76 99.53 154.70
  Q 99.38 155.31 99.12 155.58
  L 95.25 159.61
  Q 93.04 161.91 96.14 161.97
  C 96.25 161.97 103.10 161.47 101.71 163.25"
/>
<path stroke="#4d41a1" vector-effect="non-scaling-stroke" d="
  M 118.25 151.04
  L 121.25 151.28
  Q 121.93 151.34 122.19 151.49
  Q 124.86 152.99 120.62 152.73
  A 2.07 2.06 16.0 0 0 118.66 153.81
  C 112.31 165.57 103.55 173.40 92.33 180.01
  C 84.32 184.73 76.11 186.67 66.42 188.19
  C 57.38 189.61 48.70 188.17 41.06 188.77
  A 0.37 0.35 -15.4 0 0 40.75 189.28
  C 40.95 189.64 43.75 191.45 41.50 191.54"
/>
<path stroke="#3d318a" vector-effect="non-scaling-stroke" d="
  M 125.25 151.04
  L 127.50 151.29
  A 1.23 0.49 -0.5 0 1 128.34 151.62
  C 129.11 152.62 127.56 152.79 127.11 153.13
  Q 124.65 154.97 123.44 158.94
  Q 122.33 162.55 118.40 166.94
  Q 118.12 167.25 117.95 167.80
  Q 117.60 168.91 116.53 169.39
  Q 116.00 169.63 115.72 169.94
  Q 108.53 177.68 103.94 180.69
  Q 82.40 194.77 56.56 195.56
  Q 53.66 195.64 51.71 197.75"
/>
<path stroke="#3d3481" vector-effect="non-scaling-stroke" d="
  M 127.29 169.00
  Q 127.43 168.17 127.06 168.03
  A 0.75 0.47 -66.8 0 0 126.36 168.52
  C 124.95 171.69 124.07 173.26 121.05 175.53
  C 117.22 178.40 115.48 182.50 110.83 185.18
  C 102.70 189.86 95.03 194.22 86.20 197.52
  C 82.45 198.92 77.30 199.77 72.95 201.56
  Q 72.51 201.74 72.01 201.69
  Q 68.56 201.34 65.22 202.19"
/>
<path stroke="#595195" vector-effect="non-scaling-stroke" d="
  M 122.54 178.25
  Q 121.58 177.50 120.81 178.56
  Q 104.02 201.70 75.25 201.75
  Q 72.96 201.75 72.50 203.21"
/>
<path stroke="#a5de96" vector-effect="non-scaling-stroke" d="
  M 31.54 105.50
  Q 27.37 100.29 21.94 96.49"
/>
<path stroke="#e84c4d" vector-effect="non-scaling-stroke" d="
  M 126.79 93.50
  L 114.21 100.50"
/>
<path stroke="#ec6464" vector-effect="non-scaling-stroke" d="
  M 134.50 101.71
  Q 133.87 101.66 134.06 102.17
  A 0.52 0.52 64.7 0 1 133.84 102.79
  Q 128.30 106.23 122.00 107.79"
/>
<path stroke="#8ed57b" vector-effect="non-scaling-stroke" d="
  M 24.15 114.43
  Q 19.82 109.18 13.84 106.11"
/>
<path stroke="#ef7e7e" vector-effect="non-scaling-stroke" d="
  M 139.54 108.50
  Q 137.87 109.21 134.69 111.69
  Q 132.71 113.22 127.75 115.29"
/>
<path stroke="#75cb5e" vector-effect="non-scaling-stroke" d="
  M 18.92 123.86
  L 8.22 115.47"
/>
<path stroke="#f39a9a" vector-effect="non-scaling-stroke" d="
  M 145.59 119.45
  L 133.00 125.04"
/>
<path stroke="#57c03c" vector-effect="non-scaling-stroke" d="
  M 15.40 134.07
  Q 10.55 132.03 6.65 128.35
  Q 5.31 127.10 3.54 127.25"
/>
<path stroke="#f6b3b3" vector-effect="non-scaling-stroke" d="
  M 149.28 130.32
  Q 145.42 131.24 141.19 134.44
  Q 139.09 136.02 136.25 134.79"
/>
<path stroke="#34b214" vector-effect="non-scaling-stroke" d="
  M 14.21 158.75
  Q 11.68 159.88 12.92 162.13
  Q 13.22 162.68 12.70 162.66
  Q 12.21 162.65 12.20 162.00
  A 1.16 0.87 -75.4 0 0 11.86 161.17
  C 9.71 159.31 4.01 153.42 1.50 153.05
  A 0.77 0.62 85.6 0 1 0.97 152.49
  L 0.29 149.75"
/>
<path stroke="#f9c9c9" vector-effect="non-scaling-stroke" d="
  M 150.71 136.50
  C 146.12 137.53 142.99 141.37 138.03 141.10
  A 0.50 0.46 3.6 0 0 137.50 141.53
  L 137.46 142.00"
/>
<path stroke="#fce1e1" vector-effect="non-scaling-stroke" d="
  M 151.71 149.25
  C 148.61 149.24 147.21 151.15 145.16 152.48
  C 144.14 153.14 139.42 157.77 139.04 155.00"
/>
<path stroke="#fdeaea" vector-effect="non-scaling-stroke" d="
  M 139.04 155.00
  C 138.92 154.31 139.53 149.92 137.79 151.25"
/>
<path stroke="#fef6f6" vector-effect="non-scaling-stroke" d="
  M 151.25 157.04
  L 146.33 159.88
  A 1.91 1.10 -46.1 0 1 145.44 160.14
  Q 143.70 160.07 144.10 161.77
  A 1.20 0.80 63.2 0 1 143.99 162.67
  Q 143.22 163.69 142.93 161.44
  Q 142.81 160.59 142.50 161.39
  Q 141.61 163.68 140.01 163.96
  A 1.80 1.18 7.9 0 0 139.16 164.36
  C 137.25 166.26 138.00 162.55 138.24 161.80
  Q 139.28 158.51 139.04 155.00"
/>
<path stroke="#91d580" vector-effect="non-scaling-stroke" d="
  M 21.50 179.46
  L 9.96 186.00"
/>
<path stroke="#8c80e5" vector-effect="non-scaling-stroke" d="
  M 141.21 187.50
  L 129.25 180.71"
/>
<path stroke="#eae8fa" vector-effect="non-scaling-stroke" d="
  M 53.73 206.92
  Q 51.76 208.37 48.75 206.13"
/>
<path stroke="#f5f4fd" vector-effect="non-scaling-stroke" d="
  M 48.75 206.13
  L 40.99 202.75
  Q 37.47 201.21 38.10 205.13
  Q 38.77 209.30 37.75 214.04"
/>
<path stroke="#2209cd" vector-effect="non-scaling-stroke" d="
  M 123.29 207.75
  Q 120.72 207.11 122.35 205.79
  A 0.94 0.87 -23.9 0 0 122.69 205.00
  Q 122.32 201.51 122.50 198.00
  Q 122.57 196.63 121.52 194.27
  A 1.11 1.01 47.7 0 1 121.52 193.37
  Q 122.98 190.43 126.06 187.56
  Q 127.57 186.16 127.25 183.71"
/>
<path stroke="#331cd1" vector-effect="non-scaling-stroke" d="
  M 115.50 213.29
  C 113.42 210.31 115.18 203.68 114.00 199.50
  Q 113.68 198.38 116.56 196.81
  Q 117.53 196.28 116.50 195.71"
/>
<path stroke="#4934d6" vector-effect="non-scaling-stroke" d="
  M 107.50 217.46
  L 107.24 205.75
  A 1.03 0.96 19.2 0 0 106.83 204.98
  Q 105.90 204.29 105.75 203.04"
/>
<path stroke="#e0ddf8" vector-effect="non-scaling-stroke" d="
  M 48.75 206.13
  Q 47.09 210.72 47.25 216.75
  Q 47.28 217.90 46.00 218.29"
/>
<path stroke="#6857de" vector-effect="non-scaling-stroke" d="
  M 96.75 221.46
  L 96.51 207.20"
/>
<path stroke="#c7c2f2" vector-effect="non-scaling-stroke" d="
  M 60.60 209.13
  Q 57.97 209.86 57.75 212.50
  C 57.50 215.49 58.68 221.20 55.50 221.54"
/>
<path stroke="#8d80e6" vector-effect="non-scaling-stroke" d="
  M 76.75 224.21
  Q 77.02 217.34 79.07 210.67"
/>
<path stroke="#aca4ec" vector-effect="non-scaling-stroke" d="
  M 70.46 210.59
  Q 68.44 215.98 67.94 222.00
  Q 67.83 223.37 66.50 223.79"
/>
</g>
<path fill="#f8fcf7" d="
  M 76.25 74.29
  L 76.50 87.21
  Q 65.65 87.29 55.29 90.50
  Q 53.16 85.60 49.19 82.81
  Q 47.10 81.35 48.00 79.29
  Q 61.60 73.90 76.25 74.29
  Z"
/>
<path fill="#dc0202" d="
  M 76.25 74.29
  Q 92.74 73.89 107.54 81.00
  Q 106.71 83.63 104.02 84.56
  Q 99.03 86.29 96.75 90.96
  Q 86.94 87.48 76.50 87.21
  L 76.25 74.29
  Z"
/>
<path fill="#daf2d3" d="
  M 48.00 79.29
  Q 47.10 81.35 49.19 82.81
  Q 53.16 85.60 55.29 90.50
  L 45.54 94.75
  C 45.43 90.93 38.44 88.42 37.21 84.75
  Q 42.31 81.45 48.00 79.29
  Z"
/>
<path fill="#e42828" d="
  M 107.54 81.00
  Q 115.69 84.46 122.52 89.97
  Q 120.25 91.06 117.93 92.09
  Q 113.52 94.05 110.46 97.75
  Q 104.00 93.54 96.75 90.96
  Q 99.03 86.29 104.02 84.56
  Q 106.71 83.63 107.54 81.00
  Z"
/>
<path fill="#c4e8ba" d="
  M 37.21 84.75
  C 38.44 88.42 45.43 90.93 45.54 94.75
  L 37.50 100.29
  C 34.92 99.97 33.87 96.73 32.33 95.06
  C 30.82 93.42 28.48 93.19 29.46 90.00
  Q 32.96 86.83 37.21 84.75
  Z"
/>
<path fill="#000000" d="
  M 76.50 87.21
  Q 86.94 87.48 96.75 90.96
  Q 104.00 93.54 110.46 97.75
  L 114.21 100.50
  L 122.00 107.79
  L 127.75 115.29
  L 133.00 125.04
  L 136.25 134.79
  L 137.46 142.00
  L 137.79 151.25
  Q 136.89 166.97 129.25 180.71
  Q 127.77 181.89 127.25 183.71
  Q 122.41 190.19 116.50 195.71
  Q 111.43 199.82 105.75 203.04
  L 96.51 207.20
  Q 88.14 210.07 79.07 210.67
  L 70.46 210.59
  L 60.60 209.13
  L 53.73 206.92
  Q 32.92 198.61 21.50 179.46
  Q 16.09 169.74 14.21 158.75
  Q 12.34 146.18 15.40 134.07
  Q 16.73 128.55 18.92 123.86
  L 24.15 114.43
  L 31.54 105.50
  L 37.50 100.29
  L 45.54 94.75
  L 55.29 90.50
  Q 65.65 87.29 76.50 87.21
  Z
  M 72.00 94.79
  Q 66.79 94.91 61.72 96.48
  Q 53.84 98.34 46.96 102.75
  Q 31.08 112.25 24.29 129.50
  Q 21.96 135.30 21.04 141.50
  Q 20.30 146.13 20.75 150.79
  Q 20.75 157.85 23.00 164.54
  Q 25.38 173.15 30.75 180.29
  L 36.00 186.54
  L 41.50 191.54
  Q 46.16 195.39 51.71 197.75
  Q 58.08 201.30 65.22 202.19
  Q 68.84 203.29 72.50 203.21
  C 92.42 204.70 111.73 194.98 122.54 178.25
  Q 125.57 173.96 127.29 169.00
  Q 130.85 160.77 131.17 151.82
  A 0.58 0.49 -87.9 0 0 130.70 151.22
  L 125.25 151.04
  L 118.25 151.04
  L 114.25 151.04
  L 101.25 151.04
  L 83.94 151.17
  A 0.52 0.50 90.0 0 0 83.44 151.69
  L 83.43 162.81
  A 0.52 0.51 90.0 0 0 83.94 163.33
  L 101.71 163.25
  C 103.84 163.83 102.21 164.85 101.72 165.58
  Q 91.40 180.61 72.75 179.54
  Q 59.11 178.32 50.54 167.75
  Q 46.24 161.83 44.50 154.71
  L 44.21 145.50
  Q 45.11 138.20 49.25 132.21
  C 57.65 147.01 75.99 129.89 63.63 120.34
  Q 68.58 118.08 73.75 117.96
  Q 82.93 117.53 91.00 121.79
  Q 98.95 126.52 103.81 135.19
  Q 104.21 135.90 105.71 135.32
  L 112.75 135.46
  L 125.09 135.32
  L 128.97 135.42
  A 0.42 0.39 81.7 0 0 129.34 134.88
  Q 124.97 120.03 114.54 110.00
  Q 107.66 103.45 99.00 99.54
  Q 90.91 95.72 82.00 95.04
  Q 77.02 94.05 72.00 94.79
  Z"
/>
<path fill="#afe2a2" d="
  M 29.46 90.00
  C 28.48 93.19 30.82 93.42 32.33 95.06
  C 33.87 96.73 34.92 99.97 37.50 100.29
  L 31.54 105.50
  Q 27.37 100.29 21.94 96.49
  Q 25.39 92.75 29.46 90.00
  Z"
/>
<path fill="#e64142" d="
  M 122.52 89.97
  L 126.79 93.50
  L 114.21 100.50
  L 110.46 97.75
  Q 113.52 94.05 117.93 92.09
  Q 120.25 91.06 122.52 89.97
  Z"
/>
<path fill="#ea5757" d="
  M 126.79 93.50
  Q 131.14 97.14 134.50 101.71
  Q 133.87 101.66 134.06 102.17
  A 0.52 0.52 64.7 0 1 133.84 102.79
  Q 128.30 106.23 122.00 107.79
  L 114.21 100.50
  L 126.79 93.50
  Z"
/>
<path fill="#9f95e2" d="
  M 82.00 95.04
  Q 82.30 97.50 84.00 98.75
  Q 98.62 109.51 100.29 127.39
  Q 97.35 125.65 95.81 123.69
  Q 93.96 121.32 93.81 120.69
  C 91.73 111.88 85.83 106.01 77.75 100.52
  C 75.06 98.70 73.04 98.26 72.00 94.79
  Q 77.02 94.05 82.00 95.04
  Z"
/>
<path fill="#afa8e8" d="
  M 72.00 94.79
  C 73.04 98.26 75.06 98.70 77.75 100.52
  C 85.83 106.01 91.73 111.88 93.81 120.69
  Q 93.96 121.32 95.81 123.69
  Q 97.35 125.65 100.29 127.39
  L 105.71 135.32
  Q 104.21 135.90 103.81 135.19
  Q 98.95 126.52 91.00 121.79
  Q 91.57 120.55 90.18 120.09
  Q 87.45 116.88 85.72 113.11
  Q 84.44 110.33 82.98 108.91
  Q 76.03 102.12 66.44 99.56
  Q 65.15 99.22 61.72 96.48
  Q 66.79 94.91 72.00 94.79
  Z"
/>
<path fill="#897edb" d="
  M 82.00 95.04
  Q 90.91 95.72 99.00 99.54
  C 97.73 104.13 100.80 105.23 102.51 108.15
  Q 109.09 119.43 108.25 132.75
  Q 108.10 135.15 111.50 134.50
  Q 112.85 134.24 112.75 135.46
  L 105.71 135.32
  L 100.29 127.39
  Q 98.62 109.51 84.00 98.75
  Q 82.30 97.50 82.00 95.04
  Z"
/>
<path fill="#9bda8a" d="
  M 21.94 96.49
  Q 27.37 100.29 31.54 105.50
  L 24.15 114.43
  Q 19.82 109.18 13.84 106.11
  Q 17.32 100.94 21.94 96.49
  Z"
/>
<path fill="#c3bdee" d="
  M 61.72 96.48
  Q 65.15 99.22 66.44 99.56
  Q 76.03 102.12 82.98 108.91
  Q 84.44 110.33 85.72 113.11
  Q 87.45 116.88 90.18 120.09
  L 80.00 116.46
  Q 75.04 108.31 65.73 105.82
  Q 57.33 103.57 50.50 104.25
  Q 47.88 104.51 46.96 102.75
  Q 53.84 98.34 61.72 96.48
  Z"
/>
<path fill="#6f61cf" d="
  M 99.00 99.54
  Q 107.66 103.45 114.54 110.00
  Q 113.22 112.60 114.08 115.09
  C 115.98 120.56 116.57 126.40 116.31 131.79
  Q 116.16 134.87 119.20 134.38
  Q 122.81 133.80 125.09 135.32
  L 112.75 135.46
  Q 112.85 134.24 111.50 134.50
  Q 108.10 135.15 108.25 132.75
  Q 109.09 119.43 102.51 108.15
  C 100.80 105.23 97.73 104.13 99.00 99.54
  Z"
/>
<path fill="#ed7171" d="
  M 134.50 101.71
  Q 137.56 104.70 139.54 108.50
  Q 137.87 109.21 134.69 111.69
  Q 132.71 113.22 127.75 115.29
  L 122.00 107.79
  Q 128.30 106.23 133.84 102.79
  A 0.52 0.52 64.7 0 0 134.06 102.17
  Q 133.87 101.66 134.50 101.71
  Z"
/>
<path fill="#dbd7f5" d="
  M 46.96 102.75
  Q 47.88 104.51 50.50 104.25
  Q 57.33 103.57 65.73 105.82
  Q 75.04 108.31 80.00 116.46
  L 73.99 116.00
  A 3.37 2.49 -7.8 0 1 71.50 114.64
  C 70.59 113.00 67.80 112.39 66.55 111.76
  C 56.82 106.89 44.13 108.51 36.65 116.67
  C 29.74 124.22 29.75 136.42 38.28 143.01
  Q 38.65 143.29 38.85 143.78
  Q 39.46 145.23 40.96 145.69
  A 1.05 0.61 9.6 0 1 41.64 146.26
  L 42.46 150.00
  C 36.52 149.41 29.09 141.04 28.00 134.50
  Q 27.34 130.56 24.29 129.50
  Q 31.08 112.25 46.96 102.75
  Z"
/>
<path fill="#81cf6c" d="
  M 13.84 106.11
  Q 19.82 109.18 24.15 114.43
  L 18.92 123.86
  L 8.22 115.47
  Q 10.49 110.64 13.84 106.11
  Z"
/>
<path fill="#f18b8b" d="
  M 139.54 108.50
  Q 143.39 113.97 145.59 119.45
  L 133.00 125.04
  L 127.75 115.29
  Q 132.71 113.22 134.69 111.69
  Q 137.87 109.21 139.54 108.50
  Z"
/>
<path fill="#ebe9fa" d="
  M 80.00 116.46
  L 90.18 120.09
  Q 91.57 120.55 91.00 121.79
  Q 82.93 117.53 73.75 117.96
  C 76.07 115.60 70.74 116.14 69.73 116.38
  A 1.66 1.58 -40.5 0 1 68.78 116.33
  C 64.66 114.84 60.17 112.75 55.96 112.73
  Q 48.90 112.69 43.50 116.25
  Q 31.49 124.17 37.92 137.20
  C 38.78 138.94 40.14 140.20 41.63 141.33
  A 2.61 2.59 -68.1 0 1 42.64 143.72
  Q 42.30 146.44 44.21 145.50
  L 44.50 154.71
  Q 44.06 155.04 43.56 155.03
  A 0.67 0.54 86.3 0 1 43.02 154.44
  L 42.46 150.00
  L 41.64 146.26
  A 1.05 0.61 9.6 0 0 40.96 145.69
  Q 39.46 145.23 38.85 143.78
  Q 38.65 143.29 38.28 143.01
  C 29.75 136.42 29.74 124.22 36.65 116.67
  C 44.13 108.51 56.82 106.89 66.55 111.76
  C 67.80 112.39 70.59 113.00 71.50 114.64
  A 3.37 2.49 -7.8 0 0 73.99 116.00
  L 80.00 116.46
  Z"
/>
<path fill="#5b4db5" d="
  M 114.54 110.00
  Q 124.97 120.03 129.34 134.88
  A 0.42 0.39 81.7 0 1 128.97 135.42
  L 125.09 135.32
  Q 122.81 133.80 119.20 134.38
  Q 116.16 134.87 116.31 131.79
  C 116.57 126.40 115.98 120.56 114.08 115.09
  Q 113.22 112.60 114.54 110.00
  Z"
/>
<path fill="#ffffff" d="
  M 73.75 117.96
  Q 68.58 118.08 63.63 120.34
  Q 61.43 120.89 62.99 122.04
  C 74.52 130.48 55.30 144.35 50.84 131.79
  A 1.03 0.69 80.3 0 0 50.22 131.14
  Q 49.43 131.00 49.25 132.21
  Q 45.11 138.20 44.21 145.50
  Q 42.30 146.44 42.64 143.72
  A 2.61 2.59 -68.1 0 0 41.63 141.33
  C 40.14 140.20 38.78 138.94 37.92 137.20
  Q 31.49 124.17 43.50 116.25
  Q 48.90 112.69 55.96 112.73
  C 60.17 112.75 64.66 114.84 68.78 116.33
  A 1.66 1.58 -40.5 0 0 69.73 116.38
  C 70.74 116.14 76.07 115.60 73.75 117.96
  Z"
/>
<path fill="#68c750" d="
  M 8.22 115.47
  L 18.92 123.86
  Q 16.73 128.55 15.40 134.07
  Q 10.55 132.03 6.65 128.35
  Q 5.31 127.10 3.54 127.25
  Q 5.10 121.03 8.22 115.47
  Z"
/>
<path fill="#3d2fa4" d="
  M 205.31 164.19
  L 248.69 164.19
  A 0.75 0.74 -78.8 0 0 249.38 163.72
  L 253.41 153.86
  A 0.59 0.56 10.6 0 0 252.85 153.08
  L 239.68 153.09
  A 0.50 0.48 -88.3 0 1 239.20 152.56
  Q 239.40 148.94 242.35 145.39
  A 1.35 1.25 18.5 0 1 243.36 144.93
  L 279.69 144.82
  A 0.39 0.39 6.9 0 1 280.07 145.30
  C 277.35 156.17 268.53 178.49 255.04 178.50
  Q 222.19 178.54 189.34 178.45
  Q 186.04 178.44 184.08 177.22
  C 175.52 171.92 181.05 160.94 184.44 151.60
  C 189.21 138.47 192.14 126.50 205.76 119.46
  Q 207.13 118.75 208.64 118.75
  L 289.05 118.50
  A 0.81 0.79 -78.4 0 1 289.77 119.62
  L 284.59 131.90
  A 1.37 1.31 -78.3 0 1 283.36 132.75
  L 216.54 132.75
  A 1.33 1.33 -77.3 0 0 215.34 133.51
  C 211.27 142.07 205.79 154.30 204.85 163.69
  A 0.46 0.45 2.8 0 0 205.31 164.19
  Z"
/>
<path fill="#3d2fa4" d="
  M 281.02 177.96
  C 288.02 158.25 295.23 138.56 302.00 118.75
  A 0.27 0.27 8.7 0 1 302.26 118.56
  L 384.54 118.50
  A 3.96 3.94 63.8 0 1 386.96 119.33
  C 401.72 130.79 385.89 149.83 374.62 155.93
  Q 372.64 157.00 370.13 157.00
  Q 350.20 156.96 329.97 157.07
  A 0.53 0.53 -81.5 0 1 329.46 156.38
  L 332.99 144.66
  A 1.31 1.28 -80.8 0 1 334.23 143.74
  Q 347.22 143.88 359.14 143.61
  C 364.74 143.49 366.88 138.12 364.99 133.19
  A 1.09 1.07 79.1 0 0 363.99 132.50
  L 324.32 132.56
  A 0.71 0.69 9.1 0 0 323.65 133.03
  L 308.16 177.52
  A 1.46 1.46 9.5 0 1 306.78 178.50
  L 281.40 178.50
  A 0.40 0.40 10.1 0 1 281.02 177.96
  Z"
/>
<path fill="#3d2fa4" d="
  M 462.20 153.78
  A 0.50 0.49 -1.2 0 0 461.70 153.31
  L 403.30 153.43
  A 0.64 0.63 -77.8 0 1 402.73 152.53
  L 407.37 141.99
  A 1.25 1.22 -77.7 0 1 408.49 141.25
  L 466.15 141.25
  A 2.60 2.58 -70.9 0 0 468.19 140.25
  Q 470.49 137.30 469.31 133.36
  A 0.87 0.85 -8.0 0 0 468.48 132.75
  L 403.16 132.75
  A 0.61 0.60 10.1 0 1 402.59 131.94
  L 407.38 119.03
  A 0.74 0.73 10.3 0 1 408.07 118.56
  Q 446.35 118.46 484.62 118.50
  Q 487.02 118.50 488.70 119.37
  C 501.70 126.09 495.25 138.31 488.07 146.63
  A 1.17 1.10 63.3 0 0 487.81 147.51
  C 489.57 162.05 481.92 171.59 469.41 177.44
  Q 467.14 178.50 464.35 178.50
  Q 426.06 178.46 387.27 178.57
  A 0.36 0.36 11.1 0 1 386.94 178.08
  L 392.07 165.22
  A 1.16 1.15 10.9 0 1 393.14 164.50
  L 458.26 164.50
  A 1.85 1.84 14.0 0 0 459.89 163.52
  Q 462.40 158.85 462.20 153.78
  Z"
/>
<path fill="#3d2fa4" d="
  M 600.00 126.81
  L 600.00 134.81
  C 596.91 143.20 588.50 153.01 578.86 153.00
  Q 552.21 152.96 525.56 153.06
  A 0.94 0.93 -73.0 0 0 524.78 153.48
  Q 522.13 157.53 521.06 162.26
  C 520.21 165.99 522.53 165.25 524.84 165.25
  Q 556.17 165.25 587.70 165.25
  A 0.66 0.64 -82.1 0 1 588.31 166.08
  L 585.02 177.59
  A 1.26 1.19 -81.6 0 1 583.86 178.50
  L 491.31 178.44
  A 0.38 0.38 7.5 0 1 490.94 177.96
  C 494.81 163.45 499.28 148.92 512.68 141.64
  Q 514.66 140.56 517.19 140.56
  Q 544.19 140.50 571.19 140.44
  A 1.19 1.14 20.9 0 0 572.04 140.08
  C 573.72 138.31 575.46 133.69 572.24 133.06
  Q 571.94 133.00 569.25 133.00
  Q 538.91 133.04 508.57 132.94
  A 0.46 0.44 2.8 0 1 508.11 132.45
  Q 508.72 126.45 511.19 121.69
  C 513.03 118.15 515.52 118.50 519.00 118.50
  Q 555.63 118.50 592.74 118.50
  A 1.88 1.86 62.1 0 1 593.80 118.83
  Q 598.43 122.05 600.00 126.81
  Z"
/>
<path fill="#f4a8a8" d="
  M 145.59 119.45
  Q 148.20 125.30 149.28 130.32
  Q 145.42 131.24 141.19 134.44
  Q 139.09 136.02 136.25 134.79
  L 133.00 125.04
  L 145.59 119.45
  Z"
/>
<path fill="#868885" d="
  M 63.63 120.34
  C 75.99 129.89 57.65 147.01 49.25 132.21
  Q 49.43 131.00 50.22 131.14
  A 1.03 0.69 80.3 0 1 50.84 131.79
  C 55.30 144.35 74.52 130.48 62.99 122.04
  Q 61.43 120.89 63.63 120.34
  Z"
/>
<path fill="#45b927" d="
  M 15.40 134.07
  Q 12.34 146.18 14.21 158.75
  Q 11.68 159.88 12.92 162.13
  Q 13.22 162.68 12.70 162.66
  Q 12.21 162.65 12.20 162.00
  A 1.16 0.87 -75.4 0 0 11.86 161.17
  C 9.71 159.31 4.01 153.42 1.50 153.05
  A 0.77 0.62 85.6 0 1 0.97 152.49
  L 0.29 149.75
  L 0.21 145.50
  Q 0.43 136.10 3.54 127.25
  Q 5.31 127.10 6.65 128.35
  Q 10.55 132.03 15.40 134.07
  Z"
/>
<path fill="#c8c3ef" d="
  M 24.29 129.50
  Q 27.34 130.56 28.00 134.50
  C 29.09 141.04 36.52 149.41 42.46 150.00
  L 43.02 154.44
  A 0.67 0.54 86.3 0 0 43.56 155.03
  Q 44.06 155.04 44.50 154.71
  Q 46.24 161.83 50.54 167.75
  Q 49.73 168.68 48.79 167.50
  L 44.93 161.78
  Q 44.71 159.27 44.00 158.25
  A 4.79 2.60 5.2 0 0 41.75 156.75
  Q 33.46 153.87 27.61 147.51
  C 25.44 145.16 24.78 142.79 21.04 141.50
  Q 21.96 135.30 24.29 129.50
  Z"
/>
<path fill="#f7bebe" d="
  M 149.28 130.32
  L 150.71 136.50
  C 146.12 137.53 142.99 141.37 138.03 141.10
  A 0.50 0.46 3.6 0 0 137.50 141.53
  L 137.46 142.00
  L 136.25 134.79
  Q 139.09 136.02 141.19 134.44
  Q 145.42 131.24 149.28 130.32
  Z"
/>
<path fill="#fad4d4" d="
  M 150.71 136.50
  Q 151.84 142.83 151.71 149.25
  C 148.61 149.24 147.21 151.15 145.16 152.48
  C 144.14 153.14 139.42 157.77 139.04 155.00
  C 138.92 154.31 139.53 149.92 137.79 151.25
  L 137.46 142.00
  L 137.50 141.53
  A 0.50 0.46 3.6 0 1 138.03 141.10
  C 142.99 141.37 146.12 137.53 150.71 136.50
  Z"
/>
<path fill="#b5aee8" d="
  M 21.04 141.50
  C 24.78 142.79 25.44 145.16 27.61 147.51
  Q 33.46 153.87 41.75 156.75
  A 4.79 2.60 5.2 0 1 44.00 158.25
  Q 44.71 159.27 44.93 161.78
  Q 37.70 160.91 31.91 156.62
  Q 30.91 155.87 28.85 154.77
  C 25.81 153.13 24.98 149.10 20.75 150.79
  Q 20.30 146.13 21.04 141.50
  Z"
/>
<path fill="#fdeded" d="
  M 151.71 149.25
  Q 152.00 153.18 151.25 157.04
  L 146.33 159.88
  A 1.91 1.10 -46.1 0 1 145.44 160.14
  Q 143.70 160.07 144.10 161.77
  A 1.20 0.80 63.2 0 1 143.99 162.67
  Q 143.22 163.69 142.93 161.44
  Q 142.81 160.59 142.50 161.39
  Q 141.61 163.68 140.01 163.96
  A 1.80 1.18 7.9 0 0 139.16 164.36
  C 137.25 166.26 138.00 162.55 138.24 161.80
  Q 139.28 158.51 139.04 155.00
  C 139.42 157.77 144.14 153.14 145.16 152.48
  C 147.21 151.15 148.61 149.24 151.71 149.25
  Z"
/>
<path fill="#23ab00" d="
  M 0.29 149.75
  L 0.97 152.49
  A 0.77 0.62 85.6 0 0 1.50 153.05
  C 4.01 153.42 9.71 159.31 11.86 161.17
  A 1.16 0.87 -75.4 0 1 12.20 162.00
  Q 12.21 162.65 12.70 162.66
  Q 13.22 162.68 12.92 162.13
  Q 11.68 159.88 14.21 158.75
  Q 16.09 169.74 21.50 179.46
  L 9.96 186.00
  Q 0.68 170.17 0.21 151.75
  L 0.29 149.75
  Z"
/>
<path fill="#9f95e2" d="
  M 44.93 161.78
  L 48.79 167.50
  L 49.73 169.31
  Q 40.48 169.53 30.75 164.50
  Q 27.78 162.96 26.34 161.70
  C 22.04 157.94 24.99 164.32 23.00 164.54
  Q 20.75 157.85 20.75 150.79
  C 24.98 149.10 25.81 153.13 28.85 154.77
  Q 30.91 155.87 31.91 156.62
  Q 37.70 160.91 44.93 161.78
  Z"
/>
<path fill="#9085dd" d="
  M 101.25 151.04
  C 104.42 152.48 100.02 152.76 99.53 154.70
  Q 99.38 155.31 99.12 155.58
  L 95.25 159.61
  Q 93.04 161.91 96.14 161.97
  C 96.25 161.97 103.10 161.47 101.71 163.25
  L 83.94 163.33
  A 0.52 0.51 -90.0 0 1 83.43 162.81
  L 83.44 151.69
  A 0.52 0.50 -90.0 0 1 83.94 151.17
  L 101.25 151.04
  Z"
/>
<path fill="#6456c2" d="
  M 101.25 151.04
  L 114.25 151.04
  L 117.76 151.62
  A 1.29 1.25 -12.2 0 1 118.58 152.13
  C 119.18 152.97 114.77 152.83 113.79 153.15
  A 1.09 0.97 -85.9 0 0 113.14 153.78
  C 111.91 157.06 108.15 162.70 105.10 164.94
  Q 103.08 166.42 102.00 167.74
  C 94.68 176.63 86.16 180.18 74.98 181.95
  Q 73.55 182.17 71.20 183.13
  C 68.82 184.09 66.05 184.14 63.66 184.61
  C 55.90 186.14 44.24 184.53 36.46 182.96
  Q 33.25 182.31 35.14 183.61
  Q 36.11 184.27 36.68 185.29
  Q 37.28 186.38 36.00 186.54
  L 30.75 180.29
  C 32.48 180.08 30.12 177.02 29.58 175.80
  Q 29.11 174.76 30.16 175.19
  Q 46.84 182.12 63.31 179.20
  C 65.02 179.37 72.63 182.07 72.75 179.54
  Q 91.40 180.61 101.72 165.58
  C 102.21 164.85 103.84 163.83 101.71 163.25
  C 103.10 161.47 96.25 161.97 96.14 161.97
  Q 93.04 161.91 95.25 159.61
  L 99.12 155.58
  Q 99.38 155.31 99.53 154.70
  C 100.02 152.76 104.42 152.48 101.25 151.04
  Z"
/>
<path fill="#5347aa" d="
  M 114.25 151.04
  L 118.25 151.04
  L 121.25 151.28
  Q 121.93 151.34 122.19 151.49
  Q 124.86 152.99 120.62 152.73
  A 2.07 2.06 16.0 0 0 118.66 153.81
  C 112.31 165.57 103.55 173.40 92.33 180.01
  C 84.32 184.73 76.11 186.67 66.42 188.19
  C 57.38 189.61 48.70 188.17 41.06 188.77
  A 0.37 0.35 -15.4 0 0 40.75 189.28
  C 40.95 189.64 43.75 191.45 41.50 191.54
  L 36.00 186.54
  Q 37.28 186.38 36.68 185.29
  Q 36.11 184.27 35.14 183.61
  Q 33.25 182.31 36.46 182.96
  C 44.24 184.53 55.90 186.14 63.66 184.61
  C 66.05 184.14 68.82 184.09 71.20 183.13
  Q 73.55 182.17 74.98 181.95
  C 86.16 180.18 94.68 176.63 102.00 167.74
  Q 103.08 166.42 105.10 164.94
  C 108.15 162.70 111.91 157.06 113.14 153.78
  A 1.09 0.97 -85.9 0 1 113.79 153.15
  C 114.77 152.83 119.18 152.97 118.58 152.13
  A 1.29 1.25 -12.2 0 0 117.76 151.62
  L 114.25 151.04
  Z"
/>
<path fill="#463a97" d="
  M 118.25 151.04
  L 125.25 151.04
  L 127.50 151.29
  A 1.23 0.49 -0.5 0 1 128.34 151.62
  C 129.11 152.62 127.56 152.79 127.11 153.13
  Q 124.65 154.97 123.44 158.94
  Q 122.33 162.55 118.40 166.94
  Q 118.12 167.25 117.95 167.80
  Q 117.60 168.91 116.53 169.39
  Q 116.00 169.63 115.72 169.94
  Q 108.53 177.68 103.94 180.69
  Q 82.40 194.77 56.56 195.56
  Q 53.66 195.64 51.71 197.75
  Q 46.16 195.39 41.50 191.54
  C 43.75 191.45 40.95 189.64 40.75 189.28
  A 0.37 0.35 -15.4 0 1 41.06 188.77
  C 48.70 188.17 57.38 189.61 66.42 188.19
  C 76.11 186.67 84.32 184.73 92.33 180.01
  C 103.55 173.40 112.31 165.57 118.66 153.81
  A 2.07 2.06 16.0 0 1 120.62 152.73
  Q 124.86 152.99 122.19 151.49
  Q 121.93 151.34 121.25 151.28
  L 118.25 151.04
  Z"
/>
<path fill="#33287d" d="
  M 125.25 151.04
  L 130.70 151.22
  A 0.58 0.49 -87.9 0 1 131.17 151.82
  Q 130.85 160.77 127.29 169.00
  Q 127.43 168.17 127.06 168.03
  A 0.75 0.47 -66.8 0 0 126.36 168.52
  C 124.95 171.69 124.07 173.26 121.05 175.53
  C 117.22 178.40 115.48 182.50 110.83 185.18
  C 102.70 189.86 95.03 194.22 86.20 197.52
  C 82.45 198.92 77.30 199.77 72.95 201.56
  Q 72.51 201.74 72.01 201.69
  Q 68.56 201.34 65.22 202.19
  Q 58.08 201.30 51.71 197.75
  Q 53.66 195.64 56.56 195.56
  Q 82.40 194.77 103.94 180.69
  Q 108.53 177.68 115.72 169.94
  Q 116.00 169.63 116.53 169.39
  Q 117.60 168.91 117.95 167.80
  Q 118.12 167.25 118.40 166.94
  Q 122.33 162.55 123.44 158.94
  Q 124.65 154.97 127.11 153.13
  C 127.56 152.79 129.11 152.62 128.34 151.62
  A 1.23 0.49 -0.5 0 0 127.50 151.29
  L 125.25 151.04
  Z"
/>
<path fill="#ffffff" d="
  M 139.04 155.00
  Q 139.28 158.51 138.24 161.80
  C 138.00 162.55 137.25 166.26 139.16 164.36
  A 1.80 1.18 7.9 0 1 140.01 163.96
  Q 141.61 163.68 142.50 161.39
  Q 142.81 160.59 142.93 161.44
  Q 143.22 163.69 143.99 162.67
  A 1.20 0.80 63.2 0 0 144.10 161.77
  Q 143.70 160.07 145.44 160.14
  A 1.91 1.10 -46.1 0 0 146.33 159.88
  L 151.25 157.04
  Q 149.69 173.43 141.21 187.50
  L 129.25 180.71
  Q 136.89 166.97 137.79 151.25
  C 139.53 149.92 138.92 154.31 139.04 155.00
  Z"
/>
<path fill="#7c6fd5" d="
  M 49.73 169.31
  Q 55.37 174.97 63.31 179.20
  Q 46.84 182.12 30.16 175.19
  Q 29.11 174.76 29.58 175.80
  C 30.12 177.02 32.48 180.08 30.75 180.29
  Q 25.38 173.15 23.00 164.54
  C 24.99 164.32 22.04 157.94 26.34 161.70
  Q 27.78 162.96 30.75 164.50
  Q 40.48 169.53 49.73 169.31
  Z"
/>
<path fill="#897edb" d="
  M 48.79 167.50
  Q 49.73 168.68 50.54 167.75
  Q 59.11 178.32 72.75 179.54
  C 72.63 182.07 65.02 179.37 63.31 179.20
  Q 55.37 174.97 49.73 169.31
  L 48.79 167.50
  Z"
/>
<path fill="#473f85" d="
  M 127.29 169.00
  Q 125.57 173.96 122.54 178.25
  Q 121.58 177.50 120.81 178.56
  Q 104.02 201.70 75.25 201.75
  Q 72.96 201.75 72.50 203.21
  Q 68.84 203.29 65.22 202.19
  Q 68.56 201.34 72.01 201.69
  Q 72.51 201.74 72.95 201.56
  C 77.30 199.77 82.45 198.92 86.20 197.52
  C 95.03 194.22 102.70 189.86 110.83 185.18
  C 115.48 182.50 117.22 178.40 121.05 175.53
  C 124.07 173.26 124.95 171.69 126.36 168.52
  A 0.75 0.47 -66.8 0 1 127.06 168.03
  Q 127.43 168.17 127.29 169.00
  Z"
/>
<path fill="#6a62a4" d="
  M 122.54 178.25
  C 111.73 194.98 92.42 204.70 72.50 203.21
  Q 72.96 201.75 75.25 201.75
  Q 104.02 201.70 120.81 178.56
  Q 121.58 177.50 122.54 178.25
  Z"
/>
<path fill="#ffffff" d="
  M 21.50 179.46
  Q 32.92 198.61 53.73 206.92
  Q 51.76 208.37 48.75 206.13
  L 40.99 202.75
  Q 37.47 201.21 38.10 205.13
  Q 38.77 209.30 37.75 214.04
  Q 19.99 203.85 9.96 186.00
  L 21.50 179.46
  Z"
/>
<path fill="#1900ca" d="
  M 129.25 180.71
  L 141.21 187.50
  Q 134.21 199.36 123.29 207.75
  Q 120.72 207.11 122.35 205.79
  A 0.94 0.87 -23.9 0 0 122.69 205.00
  Q 122.32 201.51 122.50 198.00
  Q 122.57 196.63 121.52 194.27
  A 1.11 1.01 47.7 0 1 121.52 193.37
  Q 122.98 190.43 126.06 187.56
  Q 127.57 186.16 127.25 183.71
  Q 127.77 181.89 129.25 180.71
  Z"
/>
<path fill="#2a12cf" d="
  M 127.25 183.71
  Q 127.57 186.16 126.06 187.56
  Q 122.98 190.43 121.52 193.37
  A 1.11 1.01 47.7 0 0 121.52 194.27
  Q 122.57 196.63 122.50 198.00
  Q 122.32 201.51 122.69 205.00
  A 0.94 0.87 -23.9 0 1 122.35 205.79
  Q 120.72 207.11 123.29 207.75
  L 115.50 213.29
  C 113.42 210.31 115.18 203.68 114.00 199.50
  Q 113.68 198.38 116.56 196.81
  Q 117.53 196.28 116.50 195.71
  Q 122.41 190.19 127.25 183.71
  Z"
/>
<path fill="#3c26d2" d="
  M 116.50 195.71
  Q 117.53 196.28 116.56 196.81
  Q 113.68 198.38 114.00 199.50
  C 115.18 203.68 113.42 210.31 115.50 213.29
  L 107.50 217.46
  L 107.24 205.75
  A 1.03 0.96 19.2 0 0 106.83 204.98
  Q 105.90 204.29 105.75 203.04
  Q 111.43 199.82 116.50 195.71
  Z"
/>
<path fill="#ebe9fa" d="
  M 48.75 206.13
  Q 47.09 210.72 47.25 216.75
  Q 47.28 217.90 46.00 218.29
  L 37.75 214.04
  Q 38.77 209.30 38.10 205.13
  Q 37.47 201.21 40.99 202.75
  L 48.75 206.13
  Z"
/>
<path fill="#5542d9" d="
  M 105.75 203.04
  Q 105.90 204.29 106.83 204.98
  A 1.03 0.96 19.2 0 1 107.24 205.75
  L 107.50 217.46
  Q 102.31 219.95 96.75 221.46
  L 96.51 207.20
  L 105.75 203.04
  Z"
/>
<path fill="#d4d0f5" d="
  M 48.75 206.13
  Q 51.76 208.37 53.73 206.92
  L 60.60 209.13
  Q 57.97 209.86 57.75 212.50
  C 57.50 215.49 58.68 221.20 55.50 221.54
  L 46.00 218.29
  Q 47.28 217.90 47.25 216.75
  Q 47.09 210.72 48.75 206.13
  Z"
/>
<path fill="#7b6ce2" d="
  M 96.51 207.20
  L 96.75 221.46
  Q 86.97 224.41 76.75 224.21
  Q 77.02 217.34 79.07 210.67
  Q 88.14 210.07 96.51 207.20
  Z"
/>
<path fill="#b9b3ee" d="
  M 60.60 209.13
  L 70.46 210.59
  Q 68.44 215.98 67.94 222.00
  Q 67.83 223.37 66.50 223.79
  Q 60.90 223.16 55.50 221.54
  C 58.68 221.20 57.50 215.49 57.75 212.50
  Q 57.97 209.86 60.60 209.13
  Z"
/>
<path fill="#9f94ea" d="
  M 70.46 210.59
  L 79.07 210.67
  Q 77.02 217.34 76.75 224.21
  Q 71.60 224.55 66.50 223.79
  Q 67.83 223.37 67.94 222.00
  Q 68.44 215.98 70.46 210.59
  Z"
/>
</svg>
