<?xml version="1.0" encoding="UTF-8" standalone="no"?>
<!DOCTYPE svg PUBLIC "-//W3C//DTD SVG 1.1//EN" "http://www.w3.org/Graphics/SVG/1.1/DTD/svg11.dtd">
<svg xmlns="http://www.w3.org/2000/svg" version="1.1" viewBox="0 0 600 300">
<g stroke-width="2.00" fill="none" stroke-linecap="butt">
<path stroke="#000000" vector-effect="non-scaling-stroke" d="
  M 0.00 135.19
  L 0.21 129.25"
/>
<path stroke="#000000" vector-effect="non-scaling-stroke" d="
  M 0.21 79.50
  L 0.00 70.44"
/>
</g>
<path fill="#000000" d="
  M 600.00 85.06
  L 600.00 134.56
  Q 597.03 145.38 586.54 150.19
  Q 585.31 150.75 583.97 150.75
  Q 546.00 150.75 508.25 150.78
  C 497.02 150.79 490.85 141.33 490.66 131.10
  Q 490.27 110.87 490.63 90.63
  Q 490.77 82.90 492.00 79.52
  C 494.47 72.78 500.40 67.46 508.00 67.42
  Q 543.87 67.25 579.75 67.25
  C 590.76 67.25 598.75 74.10 600.00 85.06
  Z
  M 574.00 87.76
  A 0.27 0.27 0.0 0 0 573.73 87.49
  L 516.77 87.49
  A 0.27 0.27 0.0 0 0 516.50 87.76
  L 516.50 131.48
  A 0.27 0.27 0.0 0 0 516.77 131.75
  L 573.73 131.75
  A 0.27 0.27 0.0 0 0 574.00 131.48
  L 574.00 87.76
  Z"
/>
<path fill="#000000" d="
  M -0.01 147.54
  L 0.00 135.19
  L 0.21 129.25
  L 0.21 107.50
  L 0.21 102.50
  L 0.21 96.00
  L 0.21 79.50
  L 0.00 70.44
  L 0.00 68.97
  Q 35.99 68.62 71.98 68.72
  Q 83.14 68.75 87.31 70.38
  C 94.61 73.22 99.45 79.57 99.54 87.71
  Q 99.88 116.80 99.74 147.15
  A 1.04 1.03 90.0 0 1 98.71 148.19
  L 74.54 148.25
  A 1.29 1.29 0.8 0 1 73.25 146.96
  L 73.25 91.73
  A 0.73 0.73 0.0 0 0 72.52 91.00
  L 26.85 91.00
  A 0.85 0.85 0.0 0 0 26.00 91.85
  L 26.00 147.33
  A 0.87 0.87 -1.4 0 1 25.17 148.20
  Q 12.68 148.83 -0.01 147.54
  Z"
/>
<path fill="#000000" d="
  M 285.43 91.56
  L 254.28 91.32
  A 0.77 0.75 -0.4 0 0 253.51 92.08
  L 253.69 147.31
  A 0.44 0.42 -90.0 0 1 253.27 147.75
  L 229.02 147.98
  A 1.04 1.01 89.7 0 1 228.00 146.94
  L 227.94 69.97
  A 0.72 0.72 0.0 0 1 228.66 69.25
  Q 289.88 69.25 351.00 69.22
  C 358.49 69.22 364.25 74.64 366.93 81.10
  Q 368.25 84.28 368.25 90.09
  Q 368.25 117.99 368.25 146.66
  A 1.34 1.34 -90.0 0 1 366.91 148.00
  L 343.35 148.00
  A 1.10 1.10 -0.8 0 1 342.25 146.90
  L 342.25 91.79
  A 0.77 0.75 89.6 0 0 341.49 91.02
  L 312.17 91.24
  A 0.92 0.91 89.7 0 0 311.26 92.17
  L 311.43 146.80
  A 1.44 1.43 89.8 0 1 310.00 148.25
  L 287.09 148.25
  A 1.09 1.09 89.8 0 1 286.00 147.16
  L 285.94 92.05
  A 0.52 0.49 0.6 0 0 285.43 91.56
  Z"
/>
<path fill="#000000" d="
  M 136.84 96.97
  C 153.35 96.89 169.93 97.32 186.38 97.25
  A 0.88 0.87 90.0 0 0 187.25 96.37
  L 187.25 87.86
  A 0.68 0.68 0.2 0 0 186.57 87.18
  L 119.82 87.25
  A 0.82 0.82 0.0 0 1 119.00 86.43
  L 119.00 70.44
  A 0.69 0.69 0.0 0 1 119.69 69.75
  Q 158.25 69.75 196.25 69.75
  C 205.13 69.75 212.55 77.11 214.33 84.99
  Q 214.78 86.99 214.71 101.56
  Q 214.59 124.51 214.44 146.87
  A 1.12 1.12 0.0 0 1 213.32 147.99
  Q 170.24 148.09 129.73 147.78
  Q 124.69 147.74 121.96 146.53
  C 105.58 139.24 105.07 100.01 126.17 97.08
  Q 126.69 97.01 136.84 96.97
  Z
  M 187.6487 115.7847
  A 0.61 0.61 0.0 0 0 187.0366 115.1768
  L 139.3369 115.3433
  A 0.61 0.61 0.0 0 0 138.7290 115.9554
  L 138.7713 128.0553
  A 0.61 0.61 0.0 0 0 139.3834 128.6632
  L 187.0831 128.4967
  A 0.61 0.61 0.0 0 0 187.6910 127.8846
  L 187.6487 115.7847
  Z"
/>
<path fill="#000000" d="
  M 381.25 86.75
  C 381.25 79.53 386.18 73.72 392.38 71.08
  Q 395.51 69.75 401.32 69.75
  Q 439.04 69.75 476.83 69.75
  A 0.67 0.67 0.4 0 1 477.50 70.42
  L 477.50 89.37
  A 0.90 0.89 0.0 0 1 476.60 90.26
  L 407.74 90.00
  A 0.43 0.42 -0.0 0 0 407.31 90.42
  L 407.25 127.88
  A 0.88 0.87 -0.0 0 0 408.13 128.75
  L 476.93 128.81
  A 0.52 0.50 -0.0 0 1 477.45 129.31
  L 477.33 148.06
  A 0.54 0.51 -0.6 0 1 476.80 148.57
  Q 442.27 148.86 407.74 148.77
  C 396.96 148.74 392.64 149.58 386.06 142.19
  C 380.51 135.95 381.25 132.71 381.25 123.33
  Q 381.25 105.04 381.25 86.75
  Z"
/>
<path fill="#000000" d="
  M 0.00 70.44
  L 0.21 79.50
  L 0.00 79.44
  L 0.00 70.44
  Z"
/>
<path fill="#000000" d="
  M 0.00 129.19
  L 0.21 129.25
  L 0.00 135.19
  L 0.00 129.19
  Z"
/>
<path fill="#000000" d="
  M 594.89 191.88
  A 32.10 32.10 0.0 0 1 562.79 223.98
  L 38.21 223.98
  A 32.10 32.10 0.0 0 1 6.11 191.88
  L 6.11 191.12
  A 32.10 32.10 0.0 0 1 38.21 159.02
  L 562.79 159.02
  A 32.10 32.10 0.0 0 1 594.89 191.12
  L 594.89 191.88
  Z
  M 62.80 207.45
  A 2.48 2.47 -75.9 0 1 61.50 205.27
  Q 61.50 193.48 61.50 182.75
  C 61.50 176.59 62.61 174.98 69.07 175.03
  C 74.46 175.08 77.75 176.01 76.89 182.85
  A 0.98 0.97 -86.3 0 0 77.85 183.95
  L 90.59 184.00
  A 0.64 0.63 -86.4 0 0 91.22 183.44
  C 92.99 169.15 78.28 167.89 68.29 167.99
  C 61.48 168.05 46.25 169.28 46.25 179.25
  Q 46.25 187.82 46.25 196.40
  Q 46.25 205.18 46.85 207.04
  C 50.78 219.16 82.52 218.39 88.91 209.89
  Q 91.97 205.81 91.02 198.81
  A 1.19 1.14 85.7 0 0 89.87 197.78
  L 77.69 197.91
  A 0.56 0.53 -88.3 0 0 77.16 198.44
  L 76.77 205.45
  A 2.52 2.46 -11.4 0 1 75.33 207.56
  Q 68.68 210.65 62.80 207.45
  Z
  M 135.80 207.44
  Q 135.13 188.01 135.68 168.81
  A 0.79 0.79 -89.3 0 0 134.89 168.00
  L 121.36 168.00
  A 0.86 0.86 -89.6 0 0 120.50 168.86
  L 120.50 214.41
  A 0.59 0.59 0.0 0 0 121.09 215.00
  L 159.51 215.00
  A 0.99 0.99 0.0 0 0 160.50 214.01
  L 160.50 209.02
  A 1.04 1.03 0.3 0 0 159.47 207.99
  L 136.32 207.94
  A 0.52 0.51 -0.6 0 1 135.80 207.44
  Z
  M 216.56 206.79
  L 219.00 214.34
  A 0.75 0.71 -8.2 0 0 219.69 214.83
  L 233.54 215.06
  A 0.59 0.58 81.7 0 0 234.10 214.29
  L 219.11 168.57
  A 0.83 0.82 80.6 0 0 218.33 168.00
  L 197.64 168.00
  A 1.12 1.11 9.0 0 0 196.58 168.76
  L 181.72 214.10
  A 0.65 0.64 -80.4 0 0 182.32 214.95
  L 194.58 214.99
  A 1.26 1.16 -81.2 0 0 195.73 214.07
  L 197.79 206.83
  A 1.09 1.09 -81.6 0 1 198.85 206.04
  L 215.93 206.28
  A 0.73 0.64 80.1 0 1 216.56 206.79
  Z
  M 258.64 173.91
  C 247.87 188.43 279.20 195.08 283.94 200.56
  C 291.20 208.97 277.52 210.02 273.25 208.25
  Q 269.83 206.84 270.59 202.46
  A 1.21 1.16 -85.3 0 0 269.44 201.04
  L 256.68 201.16
  A 0.59 0.56 -87.7 0 0 256.13 201.69
  Q 255.26 210.93 263.50 213.75
  C 272.17 216.72 290.40 217.89 298.06 211.16
  C 302.83 206.97 301.67 200.79 297.05 196.83
  C 291.02 191.66 282.85 189.25 275.95 185.29
  C 271.82 182.93 269.05 177.26 275.54 175.48
  C 279.96 174.26 287.22 174.70 286.72 181.15
  A 0.79 0.79 2.3 0 0 287.51 182.00
  L 299.89 182.00
  A 1.24 1.24 86.2 0 0 301.12 180.59
  Q 299.89 171.74 292.04 169.61
  C 283.10 167.17 269.26 166.89 261.31 171.52
  Q 259.73 172.44 258.64 173.91
  Z
  M 327.64 173.91
  C 322.26 181.17 328.13 187.67 334.55 190.72
  C 338.62 192.66 353.07 198.50 354.50 202.50
  C 357.52 210.94 337.87 211.97 339.59 202.48
  A 1.22 1.19 -84.6 0 0 338.43 201.04
  L 325.81 201.05
  A 0.59 0.57 -86.0 0 0 325.24 201.56
  C 322.68 220.50 361.58 219.02 368.51 209.23
  C 377.06 197.16 351.71 189.17 344.95 185.29
  C 340.82 182.93 338.02 177.27 344.54 175.47
  C 348.96 174.26 356.22 174.70 355.72 181.15
  A 0.79 0.79 2.3 0 0 356.51 182.00
  L 369.17 182.00
  A 0.83 0.83 -89.9 0 0 370.00 181.17
  C 369.99 164.19 339.16 166.36 330.31 171.52
  Q 328.73 172.44 327.64 173.91
  Z
  M 411.51 168.42
  A 0.41 0.41 0.0 0 0 411.10 168.01
  L 396.90 168.01
  A 0.41 0.41 0.0 0 0 396.49 168.42
  L 396.49 214.58
  A 0.41 0.41 0.0 0 0 396.90 214.99
  L 411.10 214.99
  A 0.41 0.41 0.0 0 0 411.51 214.58
  L 411.51 168.42
  Z
  M 455.73 207.42
  A 2.33 2.33 -77.0 0 1 454.52 205.48
  Q 453.96 193.43 454.42 181.78
  C 454.56 178.38 454.24 176.69 457.69 175.69
  Q 463.68 173.95 468.62 176.68
  A 1.40 1.39 4.4 0 1 469.25 177.41
  Q 470.32 180.21 470.05 183.25
  A 0.50 0.45 -87.6 0 0 470.49 183.79
  L 483.56 183.85
  A 0.61 0.57 -86.0 0 0 484.13 183.32
  Q 485.52 172.13 474.50 169.50
  C 466.86 167.68 439.25 165.70 439.25 178.75
  Q 439.25 189.52 439.25 200.28
  Q 439.25 205.36 439.43 206.21
  C 442.21 219.21 475.05 218.34 481.64 210.21
  Q 484.98 206.09 484.03 198.81
  A 1.18 1.14 86.1 0 0 482.88 197.78
  L 470.69 197.91
  A 0.56 0.53 -88.3 0 0 470.16 198.44
  L 469.77 205.45
  A 2.52 2.46 -11.4 0 1 468.33 207.56
  Q 461.68 210.65 455.73 207.42
  Z
  M 513.65 173.90
  C 502.82 188.42 534.18 195.05 538.94 200.56
  C 546.18 208.96 532.54 210.03 528.25 208.25
  Q 524.83 206.84 525.60 202.45
  A 1.21 1.18 -85.1 0 0 524.44 201.04
  L 511.81 201.05
  A 0.58 0.57 -86.0 0 0 511.24 201.55
  Q 510.02 210.50 517.81 213.44
  Q 532.86 219.11 549.36 213.22
  C 559.14 209.72 557.29 199.20 549.69 194.81
  Q 544.32 191.71 533.30 186.71
  C 530.60 185.49 526.87 182.81 526.64 179.60
  C 526.24 173.83 542.41 172.22 541.72 181.15
  A 0.79 0.79 2.3 0 0 542.51 182.00
  L 555.17 182.00
  A 0.83 0.83 0.2 0 0 556.00 181.17
  C 555.99 164.20 525.17 166.36 516.32 171.52
  Q 514.75 172.44 513.65 173.90
  Z"
/>
<path fill="#000000" d="
  M 200.09 199.52
  L 206.79 177.52
  A 0.37 0.37 -42.6 0 1 207.49 177.52
  L 214.19 199.52
  A 0.37 0.37 80.8 0 1 213.84 200.00
  L 200.44 200.00
  A 0.37 0.37 8.7 0 1 200.09 199.52
  Z"
/>
</svg>
