<?xml version="1.0" encoding="UTF-8" standalone="no"?>
<!DOCTYPE svg PUBLIC "-//W3C//DTD SVG 1.1//EN" "http://www.w3.org/Graphics/SVG/1.1/DTD/svg11.dtd">
<svg xmlns="http://www.w3.org/2000/svg" version="1.1" viewBox="0 0 600 300">
<g stroke-width="2.00" fill="none" stroke-linecap="butt">
<path stroke="#feed03" vector-effect="non-scaling-stroke" d="
  M 136.81 92.58
  L 106.06 92.30
  Q 105.73 92.30 105.16 92.60
  L 104.72 92.83
  A 0.94 0.55 41.9 0 1 103.89 92.66
  Q 103.17 92.17 102.50 93.04"
/>
<path stroke="#fee905" vector-effect="non-scaling-stroke" d="
  M 45.43 105.35
  L 20.29 104.98
  Q 19.11 104.97 17.74 105.42
  Q 15.65 106.11 16.45 104.49
  A 0.30 0.29 -77.5 0 0 16.19 104.06
  Q 14.60 104.12 13.25 105.04"
/>
<path stroke="#fee306" vector-effect="non-scaling-stroke" d="
  M 142.29 110.75
  Q 142.15 113.01 140.00 113.00
  Q 129.15 112.95 118.31 113.06
  A 0.69 0.65 -80.9 0 0 117.68 113.55
  Q 116.87 116.24 115.29 114.25"
/>
<path stroke="#fedc09" vector-effect="non-scaling-stroke" d="
  M 45.71 123.00
  Q 44.48 123.57 44.73 122.02
  A 0.67 0.67 6.1 0 0 44.10 121.24
  Q 33.75 120.73 24.50 121.22
  A 1.80 0.87 -48.4 0 0 23.63 121.58
  C 22.11 122.63 22.22 119.32 21.04 121.00"
/>
<path stroke="#ffb915" vector-effect="non-scaling-stroke" d="
  M 50.72 166.20
  L 26.71 166.50"
/>
<path stroke="#ffa01d" vector-effect="non-scaling-stroke" d="
  M 104.00 200.04
  L 92.37 200.00
  Q 91.51 199.99 90.70 200.40
  Q 89.17 201.16 89.50 199.79"
/>
<path stroke="#ffa01d" vector-effect="non-scaling-stroke" d="
  M 53.79 198.25
  Q 53.63 201.19 52.43 199.24
  A 0.93 0.83 72.6 0 0 51.69 198.80
  L 32.50 198.74
  A 1.12 0.70 -63.2 0 0 31.76 199.19
  L 31.43 199.61
  Q 31.11 200.02 31.13 199.44
  Q 31.16 198.52 30.29 198.50"
/>
<path stroke="#ffad19" vector-effect="non-scaling-stroke" d="
  M 51.96 178.50
  Q 51.21 179.76 51.33 180.39
  A 1.56 1.56 84.3 0 1 49.81 182.25
  L 28.52 182.30"
/>
<path stroke="#ffba14" vector-effect="non-scaling-stroke" d="
  M 134.50 166.54
  L 112.88 166.10"
/>
<path stroke="#fed70b" vector-effect="non-scaling-stroke" d="
  M 144.46 129.50
  Q 144.18 127.77 143.78 129.30
  Q 143.70 129.62 143.58 129.30
  Q 143.19 128.23 142.22 128.78
  A 2.02 1.14 -46.5 0 1 141.31 129.06
  Q 131.28 128.96 121.26 129.00
  C 119.55 129.00 118.60 129.82 118.54 131.50"
/>
<path stroke="#fed20c" vector-effect="non-scaling-stroke" d="
  M 47.29 137.25
  Q 37.50 136.85 27.70 136.98
  C 25.85 137.01 24.81 137.86 23.54 139.00"
/>
<path stroke="#ffc510" vector-effect="non-scaling-stroke" d="
  M 48.96 152.00
  Q 40.07 152.17 31.19 152.01
  Q 28.40 151.96 25.88 153.05
  A 0.23 0.23 -12.4 0 1 25.56 152.85
  Q 25.53 150.30 25.04 152.75"
/>
<path stroke="#ffad19" vector-effect="non-scaling-stroke" d="
  M 124.24 182.18
  Q 114.48 182.58 104.73 181.81"
/>
<path stroke="#ffc90f" vector-effect="non-scaling-stroke" d="
  M 142.25 145.29
  Q 141.76 144.10 141.05 144.85
  A 0.45 0.43 -46.8 0 1 140.42 144.88
  C 138.77 143.27 125.28 144.00 122.27 144.00
  C 121.08 144.00 120.38 144.49 119.47 145.14
  Q 119.03 145.45 118.99 144.95
  L 118.29 136.50"
/>
<path stroke="#fee207" vector-effect="non-scaling-stroke" d="
  M 323.04 113.50
  Q 322.99 113.16 322.80 112.91
  A 1.11 0.72 -12.8 0 0 321.93 112.59
  Q 311.46 113.24 300.91 111.83"
/>
<path stroke="#fee306" vector-effect="non-scaling-stroke" d="
  M 259.21 115.00
  Q 258.28 112.74 255.91 112.91
  C 250.71 113.29 245.23 113.00 240.00 113.00
  A 1.41 1.22 21.1 0 0 239.11 113.32
  Q 237.94 114.33 237.29 115.75"
/>
<path stroke="#fed70b" vector-effect="non-scaling-stroke" d="
  M 258.46 121.50
  Q 258.09 127.49 258.20 133.50
  C 258.29 138.90 257.95 130.08 257.94 129.87
  A 0.97 0.92 -0.6 0 0 256.99 128.99
  L 238.65 128.63"
/>
<path stroke="#ffc810" vector-effect="non-scaling-stroke" d="
  M 258.46 145.00
  Q 257.90 147.48 257.69 145.42
  A 1.30 1.29 -0.5 0 0 256.49 144.25
  Q 248.47 143.66 241.22 144.28
  A 0.54 0.53 -86.4 0 0 240.74 144.71
  C 240.25 147.24 240.64 143.99 239.85 144.27
  A 0.21 0.20 -11.1 0 1 239.56 144.09
  Q 239.52 129.07 239.04 144.00"
/>
<path stroke="#ffb616" vector-effect="non-scaling-stroke" d="
  M 258.71 170.75
  L 258.08 173.56
  A 0.63 0.50 -82.2 0 1 257.57 174.05
  L 242.19 174.06
  A 1.86 1.50 -12.4 0 1 240.69 173.31
  C 240.01 172.19 240.19 177.07 240.04 177.75"
/>
<path stroke="#ffa61b" vector-effect="non-scaling-stroke" d="
  M 258.71 195.25
  L 258.25 193.52
  Q 258.11 193.02 258.18 192.58
  C 258.39 191.32 257.53 190.45 256.26 190.41
  Q 249.12 190.19 241.99 190.49
  A 0.25 0.25 -1.2 0 0 241.75 190.74
  C 241.76 192.91 240.92 188.61 240.04 187.75"
/>
<path stroke="#ffa61b" vector-effect="non-scaling-stroke" d="
  M 225.71 189.25
  Q 225.12 185.04 224.99 189.85
  A 0.62 0.60 1.0 0 1 224.37 190.43
  L 208.10 190.26
  A 0.57 0.56 1.4 0 1 207.53 189.67
  Q 207.63 187.60 207.37 185.07
  Q 207.31 184.54 207.30 185.06
  Q 207.20 188.90 207.21 192.75
  Q 207.21 196.39 206.96 193.25"
/>
<path stroke="#ffb417" vector-effect="non-scaling-stroke" d="
  M 225.46 174.00
  Q 224.78 175.67 224.90 177.51
  C 225.09 180.31 224.29 174.50 224.26 174.31
  A 0.46 0.45 84.4 0 0 223.79 173.92
  Q 216.25 174.19 209.31 173.81
  Q 207.89 173.74 207.81 175.19
  Q 207.76 176.07 207.68 175.20
  L 207.16 169.64
  Q 207.15 169.55 207.13 169.64
  Q 206.92 170.79 206.54 169.50"
/>
<path stroke="#ffc810" vector-effect="non-scaling-stroke" d="
  M 225.21 151.75
  L 224.54 152.34
  A 1.15 0.59 -49.9 0 1 223.76 152.67
  Q 216.78 151.61 209.24 152.30
  Q 207.00 152.50 207.00 150.25
  C 207.00 150.14 206.84 141.67 206.89 147.75
  Q 206.91 150.52 206.54 153.25"
/>
<path stroke="#fede08" vector-effect="non-scaling-stroke" d="
  M 224.71 116.75
  Q 223.83 118.46 223.04 117.13
  A 0.79 0.71 70.3 0 0 222.32 116.74
  Q 216.88 117.23 211.43 116.91
  C 209.55 116.80 206.48 118.28 206.43 114.56
  Q 206.42 114.18 206.32 114.54
  L 206.04 115.50"
/>
<path stroke="#fee207" vector-effect="non-scaling-stroke" d="
  M 176.25 117.04
  Q 175.20 117.11 175.07 116.19
  A 0.59 0.50 85.5 0 0 174.56 115.68
  L 159.06 115.68
  A 0.88 0.80 -13.1 0 1 158.31 115.26
  Q 157.52 113.77 157.46 112.00"
/>
<path stroke="#fed20c" vector-effect="non-scaling-stroke" d="
  M 165.75 133.29
  Q 164.42 133.53 164.96 132.57
  A 0.41 0.40 -74.0 0 0 164.63 131.96
  C 161.53 131.80 150.95 132.43 149.08 131.37
  A 0.47 0.45 30.9 0 0 148.46 131.51
  Q 147.76 132.67 146.29 132.25"
/>
<path stroke="#ffb815" vector-effect="non-scaling-stroke" d="
  M 157.71 164.75
  Q 157.46 169.89 157.22 167.07
  A 0.54 0.54 88.2 0 0 156.69 166.57
  L 143.24 166.22"
/>
<path stroke="#fee007" vector-effect="non-scaling-stroke" d="
  M 354.15 114.32
  Q 353.22 113.95 352.24 113.50
  C 349.57 112.28 342.28 112.98 339.11 112.99
  C 338.02 113.00 336.31 112.12 335.72 113.46
  Q 335.61 113.71 335.60 113.43
  Q 335.58 113.11 335.44 112.94
  A 1.01 0.21 48.2 0 1 335.04 112.25
  Q 335.27 109.11 334.54 111.00"
/>
<path stroke="#fed20c" vector-effect="non-scaling-stroke" d="
  M 411.05 137.58
  Q 408.34 137.03 405.75 137.05
  Q 399.14 137.13 392.55 136.82
  A 0.29 0.23 -84.3 0 0 392.31 137.06
  L 392.28 137.30
  Q 392.11 138.43 392.00 137.25
  L 391.74 134.17"
/>
<path stroke="#ffcd0e" vector-effect="non-scaling-stroke" d="
  M 353.33 143.76
  L 352.79 138.47
  A 1.66 1.63 87.4 0 0 351.19 136.98
  L 336.08 136.83
  A 0.58 0.27 -56.0 0 0 335.70 137.06
  L 335.52 137.26
  Q 335.08 137.76 335.04 136.96
  L 334.71 129.75"
/>
<path stroke="#fedf08" vector-effect="non-scaling-stroke" d="
  M 412.00 121.04
  Q 409.95 119.44 410.35 121.95
  Q 410.37 122.09 410.29 121.96
  C 409.19 120.10 396.48 121.21 393.55 121.58
  A 0.96 0.94 86.5 0 1 392.49 120.63
  L 392.46 112.25"
/>
<path stroke="#ffb715" vector-effect="non-scaling-stroke" d="
  M 352.46 176.00
  C 352.17 173.96 351.10 172.82 348.87 172.79
  Q 342.81 172.71 336.67 172.75
  A 1.29 1.28 15.3 0 0 335.59 173.36
  Q 334.78 174.66 334.71 171.42
  Q 334.69 170.54 334.53 169.68
  Q 334.23 167.98 334.30 170.25
  Q 334.41 173.39 334.04 176.50"
/>
<path stroke="#ffb117" vector-effect="non-scaling-stroke" d="
  M 334.04 176.50
  L 333.96 175.25"
/>
<path stroke="#ffc311" vector-effect="non-scaling-stroke" d="
  M 410.21 150.25
  Q 409.45 149.31 409.54 151.91
  A 0.47 0.47 -88.4 0 1 409.03 152.40
  Q 400.98 151.79 392.67 152.24
  A 1.32 1.09 86.1 0 1 391.50 151.01
  L 391.21 147.25"
/>
<path stroke="#ffa61b" vector-effect="non-scaling-stroke" d="
  M 351.96 194.00
  C 351.82 193.38 351.82 187.99 351.49 189.82
  A 0.81 0.81 -83.1 0 1 350.65 190.48
  C 348.43 190.34 336.10 189.59 334.95 190.91
  Q 334.35 191.60 334.33 190.70
  L 334.04 176.50"
/>
<path stroke="#ffb417" vector-effect="non-scaling-stroke" d="
  M 409.00 171.54
  C 408.10 171.03 408.64 172.96 408.24 173.80
  A 0.61 0.54 20.7 0 1 407.53 174.07
  C 404.00 172.96 396.68 173.75 392.75 173.75
  A 1.77 0.76 -42.6 0 0 391.87 174.06
  Q 391.27 174.44 390.78 173.90
  A 1.28 0.69 -75.0 0 1 390.57 173.01
  Q 390.64 171.91 390.04 171.00"
/>
<path stroke="#ffa61b" vector-effect="non-scaling-stroke" d="
  M 407.96 189.00
  C 407.21 187.01 408.05 190.80 406.56 191.14
  A 0.63 0.45 72.4 0 1 405.97 190.70
  Q 405.78 190.12 405.20 190.29
  Q 404.56 190.48 404.25 190.46
  Q 397.62 189.91 390.90 190.51
  A 0.46 0.46 -89.2 0 0 390.48 190.92
  Q 390.42 191.52 390.03 191.25
  A 0.88 0.34 89.0 0 1 389.78 190.64
  L 389.46 188.00"
/>
<path stroke="#ffa11d" vector-effect="non-scaling-stroke" d="
  M 414.00 212.71
  L 414.25 212.29"
/>
<path stroke="#ffb217" vector-effect="non-scaling-stroke" d="
  M 430.30 174.20
  Q 428.04 173.46 425.75 173.73
  Q 423.73 173.96 423.71 172.00"
/>
<path stroke="#fed80a" vector-effect="non-scaling-stroke" d="
  M 479.49 124.44
  Q 480.66 126.61 478.67 126.52
  C 472.05 126.24 465.00 126.89 458.30 126.82
  A 1.38 0.95 -57.2 0 0 457.47 127.17
  Q 456.64 127.89 455.70 127.37
  A 0.25 0.24 31.1 0 0 455.38 127.44
  L 455.26 127.62
  A 0.42 0.41 35.0 0 1 454.66 127.72
  Q 453.81 127.11 452.75 127.04"
/>
<path stroke="#ffd10c" vector-effect="non-scaling-stroke" d="
  M 432.81 140.70
  L 428.69 140.72
  A 0.91 0.81 12.7 0 0 427.95 141.13
  Q 426.32 143.94 426.46 139.00"
/>
<path stroke="#ffc611" vector-effect="non-scaling-stroke" d="
  M 496.20 153.12
  Q 489.62 152.84 483.00 153.00
  Q 480.69 153.06 480.68 154.71
  A 0.37 0.30 82.7 0 1 480.47 155.05
  L 480.26 155.13
  A 0.56 0.42 70.0 0 1 479.67 154.75
  Q 478.93 152.65 477.15 151.26"
/>
<path stroke="#fed80a" vector-effect="non-scaling-stroke" d="
  M 498.50 128.54
  Q 497.89 128.43 498.05 129.21
  Q 498.17 129.82 497.89 129.28
  L 497.23 128.03
  A 0.66 0.58 69.4 0 0 496.58 127.68
  L 492.74 128.42
  A 0.39 0.37 87.4 0 1 492.30 128.00
  Q 492.83 122.89 491.96 127.00"
/>
<path stroke="#ffaf18" vector-effect="non-scaling-stroke" d="
  M 492.46 182.50
  Q 488.62 181.82 484.74 182.73"
/>
<path stroke="#fed50b" vector-effect="non-scaling-stroke" d="
  M 530.25 133.29
  L 506.80 133.05
  Q 506.32 133.05 506.57 132.64
  C 507.10 131.77 509.18 128.46 507.54 129.00"
/>
<path stroke="#ffc510" vector-effect="non-scaling-stroke" d="
  M 523.46 149.50
  Q 522.75 148.62 522.90 149.78
  A 0.56 0.55 -7.9 0 1 522.43 150.40
  Q 521.11 150.59 520.07 150.85
  C 516.17 151.83 509.90 150.93 505.69 151.06
  Q 502.56 151.16 502.56 148.94
  Q 502.57 145.53 502.04 148.25"
/>
<path stroke="#ffb616" vector-effect="non-scaling-stroke" d="
  M 522.21 163.75
  Q 522.09 164.77 520.97 166.16
  A 0.94 0.91 -69.7 0 1 520.26 166.50
  L 503.82 166.44
  A 0.54 0.46 88.0 0 1 503.36 165.93
  Q 503.32 165.34 502.75 165.29"
/>
<path stroke="#ffa31c" vector-effect="non-scaling-stroke" d="
  M 531.29 197.75
  C 530.27 199.47 529.29 198.50 528.00 198.48
  Q 522.55 198.40 517.29 199.70"
/>
</g>
<path fill="#fef102" d="
  M 95.46 74.75
  C 111.71 75.58 128.11 79.09 141.20 89.32
  Q 142.45 90.30 140.90 90.63
  Q 138.79 91.07 136.81 92.58
  L 106.06 92.30
  Q 105.73 92.30 105.16 92.60
  L 104.72 92.83
  A 0.94 0.55 41.9 0 1 103.89 92.66
  Q 103.17 92.17 102.50 93.04
  C 89.92 82.10 73.29 83.99 59.00 89.25
  Q 47.47 93.49 45.43 105.35
  L 20.29 104.98
  Q 19.11 104.97 17.74 105.42
  Q 15.65 106.11 16.45 104.49
  A 0.30 0.29 -77.5 0 0 16.19 104.06
  Q 14.60 104.12 13.25 105.04
  L 7.69 104.12
  Q 6.92 104.00 7.50 103.52
  C 28.63 86.25 54.70 75.56 82.00 74.96
  L 95.46 74.75
  Z"
/>
<path fill="#fee804" d="
  M 323.04 113.50
  Q 322.99 113.16 322.80 112.91
  A 1.11 0.72 -12.8 0 0 321.93 112.59
  Q 311.46 113.24 300.91 111.83
  Q 302.77 110.10 301.58 108.67
  C 298.36 104.80 295.71 100.60 290.38 99.61
  C 277.09 97.17 263.49 100.59 259.21 115.00
  Q 258.28 112.74 255.91 112.91
  C 250.71 113.29 245.23 113.00 240.00 113.00
  A 1.41 1.22 21.1 0 0 239.11 113.32
  Q 237.94 114.33 237.29 115.75
  Q 235.56 110.50 230.32 109.96
  Q 229.55 109.89 230.18 109.44
  Q 249.81 95.63 273.75 92.96
  L 276.50 92.46
  C 288.21 91.65 298.86 91.26 310.19 94.94
  C 318.46 97.63 321.58 103.82 327.93 108.59
  A 0.53 0.48 43.1 0 1 327.99 109.38
  L 323.04 113.50
  Z"
/>
<path fill="#fee804" d="
  M 136.81 92.58
  L 142.29 110.75
  Q 142.15 113.01 140.00 113.00
  Q 129.15 112.95 118.31 113.06
  A 0.69 0.65 -80.9 0 0 117.68 113.55
  Q 116.87 116.24 115.29 114.25
  Q 111.57 102.01 102.50 93.04
  Q 103.17 92.17 103.89 92.66
  A 0.94 0.55 41.9 0 0 104.72 92.83
  L 105.16 92.60
  Q 105.73 92.30 106.06 92.30
  L 136.81 92.58
  Z"
/>
<path fill="#fee804" d="
  M 354.15 114.32
  Q 353.22 113.95 352.24 113.50
  C 349.57 112.28 342.28 112.98 339.11 112.99
  C 338.02 113.00 336.31 112.12 335.72 113.46
  Q 335.61 113.71 335.60 113.43
  Q 335.58 113.11 335.44 112.94
  A 1.01 0.21 48.2 0 1 335.04 112.25
  Q 335.27 109.11 334.54 111.00
  C 333.77 103.80 334.01 98.45 326.80 94.68
  Q 325.61 94.06 326.95 94.07
  Q 344.90 94.14 363.23 94.74
  C 363.59 94.75 363.94 94.85 363.75 95.29
  A 0.80 0.48 -3.6 0 1 363.24 95.64
  C 355.60 97.52 354.18 108.28 354.15 114.32
  Z"
/>
<path fill="#fee804" d="
  M 224.71 116.75
  Q 223.83 118.46 223.04 117.13
  A 0.79 0.71 70.3 0 0 222.32 116.74
  Q 216.88 117.23 211.43 116.91
  C 209.55 116.80 206.48 118.28 206.43 114.56
  Q 206.42 114.18 206.32 114.54
  L 206.04 115.50
  Q 206.03 109.38 203.88 104.27
  A 1.81 1.80 74.5 0 0 201.96 103.18
  Q 186.29 105.46 176.25 117.04
  Q 175.20 117.11 175.07 116.19
  A 0.59 0.50 85.5 0 0 174.56 115.68
  L 159.06 115.68
  A 0.88 0.80 -13.1 0 1 158.31 115.26
  Q 157.52 113.77 157.46 112.00
  C 159.07 109.10 162.25 105.49 159.00 102.51
  Q 156.66 100.37 153.50 100.26
  A 1.88 1.21 -16.3 0 1 152.58 99.99
  Q 150.95 98.87 153.50 98.72
  Q 160.88 98.30 168.25 97.71
  L 171.75 97.46
  L 182.00 96.96
  L 189.75 96.46
  L 205.00 95.96
  L 211.75 95.46
  L 231.93 94.84
  A 0.44 0.32 7.9 0 1 232.41 95.30
  Q 232.26 95.59 231.75 95.75
  C 223.79 98.29 224.84 110.59 224.71 116.75
  Z"
/>
<path fill="#fee605" d="
  M 409.25 96.46
  L 414.00 96.71
  L 420.94 97.06
  A 1.39 0.78 -9.0 0 1 421.81 97.38
  Q 422.49 98.08 421.00 98.25
  C 412.51 99.23 412.60 115.39 412.00 121.04
  Q 409.95 119.44 410.35 121.95
  Q 410.37 122.09 410.29 121.96
  C 409.19 120.10 396.48 121.21 393.55 121.58
  A 0.96 0.94 86.5 0 1 392.49 120.63
  L 392.46 112.25
  Q 393.61 101.76 385.17 96.05
  Q 384.05 95.29 385.41 95.35
  L 409.25 96.46
  Z"
/>
<path fill="#fee007" d="
  M 479.49 124.44
  Q 480.66 126.61 478.67 126.52
  C 472.05 126.24 465.00 126.89 458.30 126.82
  A 1.38 0.95 -57.2 0 0 457.47 127.17
  Q 456.64 127.89 455.70 127.37
  A 0.25 0.24 31.1 0 0 455.38 127.44
  L 455.26 127.62
  A 0.42 0.41 35.0 0 1 454.66 127.72
  Q 453.81 127.11 452.75 127.04
  L 437.33 119.39
  A 1.19 1.13 -64.2 0 0 435.78 119.98
  C 433.12 125.73 433.31 134.45 432.81 140.70
  L 428.69 140.72
  A 0.91 0.81 12.7 0 0 427.95 141.13
  Q 426.32 143.94 426.46 139.00
  Q 427.05 129.11 428.00 119.25
  C 428.49 114.19 421.79 112.90 418.15 112.99
  Q 416.61 113.02 417.69 111.93
  C 422.96 106.67 428.84 99.39 435.55 96.21
  A 1.13 1.13 43.7 0 1 436.46 96.19
  C 452.56 102.92 467.46 111.77 479.49 124.44
  Z"
/>
<path fill="#fee007" d="
  M 498.50 128.54
  Q 497.89 128.43 498.05 129.21
  Q 498.17 129.82 497.89 129.28
  L 497.23 128.03
  A 0.66 0.58 69.4 0 0 496.58 127.68
  L 492.74 128.42
  A 0.39 0.37 87.4 0 1 492.30 128.00
  Q 492.83 122.89 491.96 127.00
  C 492.40 118.97 496.24 108.71 486.81 104.19
  Q 485.55 103.58 486.18 102.64
  A 0.92 0.78 16.9 0 1 486.99 102.29
  L 507.50 104.20
  A 1.62 1.24 -14.8 0 1 508.39 104.57
  Q 509.53 105.64 507.51 105.83
  C 502.15 106.35 500.47 109.35 499.95 114.56
  Q 499.26 121.56 498.50 128.54
  Z"
/>
<path fill="#fee007" d="
  M 45.43 105.35
  Q 44.22 114.36 45.71 123.00
  Q 44.48 123.57 44.73 122.02
  A 0.67 0.67 6.1 0 0 44.10 121.24
  Q 33.75 120.73 24.50 121.22
  A 1.80 0.87 -48.4 0 0 23.63 121.58
  C 22.11 122.63 22.22 119.32 21.04 121.00
  Q 19.81 115.54 18.46 110.11
  C 17.72 107.09 15.93 106.02 13.25 105.04
  Q 14.60 104.12 16.19 104.06
  A 0.30 0.29 -77.5 0 1 16.45 104.49
  Q 15.65 106.11 17.74 105.42
  Q 19.11 104.97 20.29 104.98
  L 45.43 105.35
  Z"
/>
<path fill="#fede08" d="
  M 585.25 112.46
  Q 587.52 113.11 589.79 112.50
  L 592.61 111.81
  Q 593.62 111.56 593.19 112.43
  Q 587.83 123.25 579.39 131.61
  Q 578.56 132.43 578.50 131.27
  C 577.94 120.86 567.10 114.46 557.76 114.40
  C 545.29 114.33 536.55 123.81 530.25 133.29
  L 506.80 133.05
  Q 506.32 133.05 506.57 132.64
  C 507.10 131.77 509.18 128.46 507.54 129.00
  Q 512.37 120.52 518.31 112.52
  Q 519.99 110.26 517.73 108.59
  Q 515.25 106.76 512.25 106.27
  Q 510.20 105.93 511.26 104.45
  A 0.90 0.79 18.4 0 1 512.07 104.11
  L 585.25 112.46
  Z"
/>
<path fill="#fed80a" d="
  M 354.15 114.32
  L 353.94 123.81
  A 0.53 0.50 2.2 0 0 354.45 124.33
  L 391.19 125.67
  A 0.53 0.51 2.8 0 0 391.74 125.19
  L 392.46 112.25
  L 392.49 120.63
  A 0.96 0.94 86.5 0 0 393.55 121.58
  C 396.48 121.21 409.19 120.10 410.29 121.96
  Q 410.37 122.09 410.35 121.95
  Q 409.95 119.44 412.00 121.04
  L 411.05 137.58
  Q 408.34 137.03 405.75 137.05
  Q 399.14 137.13 392.55 136.82
  A 0.29 0.23 -84.3 0 0 392.31 137.06
  L 392.28 137.30
  Q 392.11 138.43 392.00 137.25
  L 391.74 134.17
  Q 373.20 132.79 354.56 132.57
  A 0.56 0.52 2.2 0 0 353.99 133.06
  L 353.33 143.76
  L 352.79 138.47
  A 1.66 1.63 87.4 0 0 351.19 136.98
  L 336.08 136.83
  A 0.58 0.27 -56.0 0 0 335.70 137.06
  L 335.52 137.26
  Q 335.08 137.76 335.04 136.96
  L 334.71 129.75
  L 334.54 111.00
  Q 335.27 109.11 335.04 112.25
  A 1.01 0.21 48.2 0 0 335.44 112.94
  Q 335.58 113.11 335.60 113.43
  Q 335.61 113.71 335.72 113.46
  C 336.31 112.12 338.02 113.00 339.11 112.99
  C 342.28 112.98 349.57 112.28 352.24 113.50
  Q 353.22 113.95 354.15 114.32
  Z"
/>
<path fill="#fede08" d="
  M 142.29 110.75
  Q 145.15 119.91 144.46 129.50
  Q 144.18 127.77 143.78 129.30
  Q 143.70 129.62 143.58 129.30
  Q 143.19 128.23 142.22 128.78
  A 2.02 1.14 -46.5 0 1 141.31 129.06
  Q 131.28 128.96 121.26 129.00
  C 119.55 129.00 118.60 129.82 118.54 131.50
  Q 117.88 122.69 115.29 114.25
  Q 116.87 116.24 117.68 113.55
  A 0.69 0.65 -80.9 0 1 118.31 113.06
  Q 129.15 112.95 140.00 113.00
  Q 142.15 113.01 142.29 110.75
  Z"
/>
<path fill="#fedb09" d="
  M 300.91 111.83
  Q 311.46 113.24 321.93 112.59
  A 1.11 0.72 -12.8 0 1 322.80 112.91
  Q 322.99 113.16 323.04 113.50
  L 299.18 129.69
  Q 298.61 130.08 297.80 130.34
  C 287.38 133.68 277.46 138.08 267.12 141.62
  C 266.72 141.76 263.73 142.50 266.22 140.74
  Q 273.66 135.47 281.54 130.89
  C 289.40 126.33 295.60 119.00 300.91 111.83
  Z"
/>
<path fill="#fedb09" d="
  M 157.46 112.00
  Q 157.52 113.77 158.31 115.26
  A 0.88 0.80 -13.1 0 0 159.06 115.68
  L 174.56 115.68
  A 0.59 0.50 85.5 0 1 175.07 116.19
  Q 175.20 117.11 176.25 117.04
  Q 170.05 124.55 165.75 133.29
  Q 164.42 133.53 164.96 132.57
  A 0.41 0.40 -74.0 0 0 164.63 131.96
  C 161.53 131.80 150.95 132.43 149.08 131.37
  A 0.47 0.45 30.9 0 0 148.46 131.51
  Q 147.76 132.67 146.29 132.25
  L 157.46 112.00
  Z"
/>
<path fill="#fede08" d="
  M 259.21 115.00
  L 258.46 121.50
  Q 258.09 127.49 258.20 133.50
  C 258.29 138.90 257.95 130.08 257.94 129.87
  A 0.97 0.92 -0.6 0 0 256.99 128.99
  L 238.65 128.63
  Q 238.56 121.96 237.29 115.75
  Q 237.94 114.33 239.11 113.32
  A 1.41 1.22 21.1 0 1 240.00 113.00
  C 245.23 113.00 250.71 113.29 255.91 112.91
  Q 258.28 112.74 259.21 115.00
  Z"
/>
<path fill="#fed40b" d="
  M 224.71 116.75
  L 225.21 151.75
  L 224.54 152.34
  A 1.15 0.59 -49.9 0 1 223.76 152.67
  Q 216.78 151.61 209.24 152.30
  Q 207.00 152.50 207.00 150.25
  C 207.00 150.14 206.84 141.67 206.89 147.75
  Q 206.91 150.52 206.54 153.25
  L 206.25 134.57
  A 0.58 0.58 0.0 0 0 205.68 134.00
  C 195.48 133.95 181.09 133.66 172.01 138.01
  Q 171.41 138.30 171.60 137.66
  Q 173.10 132.50 176.23 127.63
  A 0.87 0.86 17.3 0 1 177.02 127.22
  Q 189.01 127.89 200.50 127.00
  Q 202.46 126.85 203.70 126.19
  C 207.77 124.00 205.11 118.63 206.04 115.50
  L 206.32 114.54
  Q 206.42 114.18 206.43 114.56
  C 206.48 118.28 209.55 116.80 211.43 116.91
  Q 216.88 117.23 222.32 116.74
  A 0.79 0.71 70.3 0 1 223.04 117.13
  Q 223.83 118.46 224.71 116.75
  Z"
/>
<path fill="#fed80a" d="
  M 45.71 123.00
  L 47.29 137.25
  Q 37.50 136.85 27.70 136.98
  C 25.85 137.01 24.81 137.86 23.54 139.00
  L 21.04 121.00
  C 22.22 119.32 22.11 122.63 23.63 121.58
  A 1.80 0.87 -48.4 0 1 24.50 121.22
  Q 33.75 120.73 44.10 121.24
  A 0.67 0.67 6.1 0 1 44.73 122.02
  Q 44.48 123.57 45.71 123.00
  Z"
/>
<path fill="#fed00d" d="
  M 258.46 121.50
  L 258.46 145.00
  Q 257.90 147.48 257.69 145.42
  A 1.30 1.29 -0.5 0 0 256.49 144.25
  Q 248.47 143.66 241.22 144.28
  A 0.54 0.53 -86.4 0 0 240.74 144.71
  C 240.25 147.24 240.64 143.99 239.85 144.27
  A 0.21 0.20 -11.1 0 1 239.56 144.09
  Q 239.52 129.07 239.04 144.00
  L 238.65 128.63
  L 256.99 128.99
  A 0.97 0.92 -0.6 0 1 257.94 129.87
  C 257.95 130.08 258.29 138.90 258.20 133.50
  Q 258.09 127.49 258.46 121.50
  Z"
/>
<path fill="#fed00d" d="
  M 479.49 124.44
  Q 484.73 129.70 489.07 135.70
  Q 490.75 138.01 491.06 135.17
  L 491.96 127.00
  Q 492.83 122.89 492.30 128.00
  A 0.39 0.37 87.4 0 0 492.74 128.42
  L 496.58 127.68
  A 0.66 0.58 69.4 0 1 497.23 128.03
  L 497.89 129.28
  Q 498.17 129.82 498.05 129.21
  Q 497.89 128.43 498.50 128.54
  L 496.20 153.12
  Q 489.62 152.84 483.00 153.00
  Q 480.69 153.06 480.68 154.71
  A 0.37 0.30 82.7 0 1 480.47 155.05
  L 480.26 155.13
  A 0.56 0.42 70.0 0 1 479.67 154.75
  Q 478.93 152.65 477.15 151.26
  Q 467.60 136.53 452.75 127.04
  Q 453.81 127.11 454.66 127.72
  A 0.42 0.41 35.0 0 0 455.26 127.62
  L 455.38 127.44
  A 0.25 0.24 31.1 0 1 455.70 127.37
  Q 456.64 127.89 457.47 127.17
  A 1.38 0.95 -57.2 0 1 458.30 126.82
  C 465.00 126.89 472.05 126.24 478.67 126.52
  Q 480.66 126.61 479.49 124.44
  Z"
/>
<path fill="#fed00d" d="
  M 144.46 129.50
  Q 144.53 137.56 142.25 145.29
  Q 141.76 144.10 141.05 144.85
  A 0.45 0.43 -46.8 0 1 140.42 144.88
  C 138.77 143.27 125.28 144.00 122.27 144.00
  C 121.08 144.00 120.38 144.49 119.47 145.14
  Q 119.03 145.45 118.99 144.95
  L 118.29 136.50
  L 118.54 131.50
  C 118.60 129.82 119.55 129.00 121.26 129.00
  Q 131.28 128.96 141.31 129.06
  A 2.02 1.14 -46.5 0 0 142.22 128.78
  Q 143.19 128.23 143.58 129.30
  Q 143.70 129.62 143.78 129.30
  Q 144.18 127.77 144.46 129.50
  Z"
/>
<path fill="#fecb0e" d="
  M 507.54 129.00
  C 509.18 128.46 507.10 131.77 506.57 132.64
  Q 506.32 133.05 506.80 133.05
  L 530.25 133.29
  Q 528.78 134.80 529.57 136.50
  A 0.97 0.87 -7.9 0 0 530.31 137.00
  L 567.27 141.50
  Q 567.96 141.59 567.45 142.04
  L 557.64 150.69
  A 0.51 0.47 50.2 0 1 556.94 150.60
  Q 554.03 146.99 549.25 146.49
  Q 539.89 145.52 530.51 144.63
  Q 524.88 144.10 523.46 149.50
  Q 522.75 148.62 522.90 149.78
  A 0.56 0.55 -7.9 0 1 522.43 150.40
  Q 521.11 150.59 520.07 150.85
  C 516.17 151.83 509.90 150.93 505.69 151.06
  Q 502.56 151.16 502.56 148.94
  Q 502.57 145.53 502.04 148.25
  Q 501.96 137.79 507.54 129.00
  Z"
/>
<path fill="#ffc211" d="
  M 334.71 129.75
  L 335.04 136.96
  Q 335.08 137.76 335.52 137.26
  L 335.70 137.06
  A 0.58 0.27 -56.0 0 1 336.08 136.83
  L 351.19 136.98
  A 1.66 1.63 87.4 0 1 352.79 138.47
  L 353.33 143.76
  L 352.46 176.00
  C 352.17 173.96 351.10 172.82 348.87 172.79
  Q 342.81 172.71 336.67 172.75
  A 1.29 1.28 15.3 0 0 335.59 173.36
  Q 334.78 174.66 334.71 171.42
  Q 334.69 170.54 334.53 169.68
  Q 334.23 167.98 334.30 170.25
  Q 334.41 173.39 334.04 176.50
  L 333.96 175.25
  L 334.71 129.75
  Z"
/>
<path fill="#fec80f" d="
  M 165.75 133.29
  Q 158.42 148.16 157.71 164.75
  Q 157.46 169.89 157.22 167.07
  A 0.54 0.54 88.2 0 0 156.69 166.57
  L 143.24 166.22
  C 141.79 156.27 141.78 141.96 146.29 132.25
  Q 147.76 132.67 148.46 131.51
  A 0.47 0.45 30.9 0 1 149.08 131.37
  C 150.95 132.43 161.53 131.80 164.63 131.96
  A 0.41 0.40 -74.0 0 1 164.96 132.57
  Q 164.42 133.53 165.75 133.29
  Z"
/>
<path fill="#fecb0e" d="
  M 391.74 134.17
  L 392.00 137.25
  Q 392.11 138.43 392.28 137.30
  L 392.31 137.06
  A 0.29 0.23 -84.3 0 1 392.55 136.82
  Q 399.14 137.13 405.75 137.05
  Q 408.34 137.03 411.05 137.58
  L 410.21 150.25
  Q 409.45 149.31 409.54 151.91
  A 0.47 0.47 -88.4 0 1 409.03 152.40
  Q 400.98 151.79 392.67 152.24
  A 1.32 1.09 86.1 0 1 391.50 151.01
  L 391.21 147.25
  L 391.74 134.17
  Z"
/>
<path fill="#ffc211" d="
  M 118.29 136.50
  L 118.99 144.95
  Q 119.03 145.45 119.47 145.14
  C 120.38 144.49 121.08 144.00 122.27 144.00
  C 125.28 144.00 138.77 143.27 140.42 144.88
  A 0.45 0.43 -46.8 0 0 141.05 144.85
  Q 141.76 144.10 142.25 145.29
  Q 139.24 156.22 134.50 166.54
  L 112.88 166.10
  Q 118.64 151.71 118.29 136.50
  Z"
/>
<path fill="#ffbf12" d="
  M 258.46 145.00
  L 258.71 170.75
  L 258.08 173.56
  A 0.63 0.50 -82.2 0 1 257.57 174.05
  L 242.19 174.06
  A 1.86 1.50 -12.4 0 1 240.69 173.31
  C 240.01 172.19 240.19 177.07 240.04 177.75
  L 239.04 144.00
  Q 239.52 129.07 239.56 144.09
  A 0.21 0.20 -11.1 0 0 239.85 144.27
  C 240.64 143.99 240.25 147.24 240.74 144.71
  A 0.54 0.53 -86.4 0 1 241.22 144.28
  Q 248.47 143.66 256.49 144.25
  A 1.30 1.29 -0.5 0 1 257.69 145.42
  Q 257.90 147.48 258.46 145.00
  Z"
/>
<path fill="#fecb0e" d="
  M 47.29 137.25
  L 48.96 152.00
  Q 40.07 152.17 31.19 152.01
  Q 28.40 151.96 25.88 153.05
  A 0.23 0.23 -12.4 0 1 25.56 152.85
  Q 25.53 150.30 25.04 152.75
  L 23.54 139.00
  C 24.81 137.86 25.85 137.01 27.70 136.98
  Q 37.50 136.85 47.29 137.25
  Z"
/>
<path fill="#ffc211" d="
  M 426.46 139.00
  Q 426.32 143.94 427.95 141.13
  A 0.91 0.81 12.7 0 1 428.69 140.72
  L 432.81 140.70
  L 430.30 174.20
  Q 428.04 173.46 425.75 173.73
  Q 423.73 173.96 423.71 172.00
  L 426.46 139.00
  Z"
/>
<path fill="#ffbb14" d="
  M 225.21 151.75
  L 225.46 174.00
  Q 224.78 175.67 224.90 177.51
  C 225.09 180.31 224.29 174.50 224.26 174.31
  A 0.46 0.45 84.4 0 0 223.79 173.92
  Q 216.25 174.19 209.31 173.81
  Q 207.89 173.74 207.81 175.19
  Q 207.76 176.07 207.68 175.20
  L 207.16 169.64
  Q 207.15 169.55 207.13 169.64
  Q 206.92 170.79 206.54 169.50
  L 206.54 153.25
  Q 206.91 150.52 206.89 147.75
  C 206.84 141.67 207.00 150.14 207.00 150.25
  Q 207.00 152.50 209.24 152.30
  Q 216.78 151.61 223.76 152.67
  A 1.15 0.59 -49.9 0 0 224.54 152.34
  L 225.21 151.75
  Z"
/>
<path fill="#ffbf12" d="
  M 523.46 149.50
  Q 521.99 156.54 522.21 163.75
  Q 522.09 164.77 520.97 166.16
  A 0.94 0.91 -69.7 0 1 520.26 166.50
  L 503.82 166.44
  A 0.54 0.46 88.0 0 1 503.36 165.93
  Q 503.32 165.34 502.75 165.29
  Q 501.31 156.82 502.04 148.25
  Q 502.57 145.53 502.56 148.94
  Q 502.56 151.16 505.69 151.06
  C 509.90 150.93 516.17 151.83 520.07 150.85
  Q 521.11 150.59 522.43 150.40
  A 0.56 0.55 -7.9 0 0 522.90 149.78
  Q 522.75 148.62 523.46 149.50
  Z"
/>
<path fill="#ffbb14" d="
  M 391.21 147.25
  L 391.50 151.01
  A 1.32 1.09 86.1 0 0 392.67 152.24
  Q 400.98 151.79 409.03 152.40
  A 0.47 0.47 -88.4 0 0 409.54 151.91
  Q 409.45 149.31 410.21 150.25
  L 409.00 171.54
  C 408.10 171.03 408.64 172.96 408.24 173.80
  A 0.61 0.54 20.7 0 1 407.53 174.07
  C 404.00 172.96 396.68 173.75 392.75 173.75
  A 1.77 0.76 -42.6 0 0 391.87 174.06
  Q 391.27 174.44 390.78 173.90
  A 1.28 0.69 -75.0 0 1 390.57 173.01
  Q 390.64 171.91 390.04 171.00
  L 391.21 147.25
  Z"
/>
<path fill="#ffbb14" d="
  M 496.20 153.12
  Q 495.62 168.16 492.46 182.50
  Q 488.62 181.82 484.74 182.73
  Q 486.32 165.66 477.15 151.26
  Q 478.93 152.65 479.67 154.75
  A 0.56 0.42 70.0 0 0 480.26 155.13
  L 480.47 155.05
  A 0.37 0.30 82.7 0 0 480.68 154.71
  Q 480.69 153.06 483.00 153.00
  Q 489.62 152.84 496.20 153.12
  Z"
/>
<path fill="#ffbf12" d="
  M 48.96 152.00
  L 50.72 166.20
  L 26.71 166.50
  L 25.04 152.75
  Q 25.53 150.30 25.56 152.85
  A 0.23 0.23 -12.4 0 0 25.88 153.05
  Q 28.40 151.96 31.19 152.01
  Q 40.07 152.17 48.96 152.00
  Z"
/>
<path fill="#ffac19" d="
  M 522.21 163.75
  Q 522.77 181.85 531.29 197.75
  C 530.27 199.47 529.29 198.50 528.00 198.48
  Q 522.55 198.40 517.29 199.70
  Q 512.65 193.95 509.72 187.22
  C 506.08 178.84 503.30 173.18 502.75 165.29
  Q 503.32 165.34 503.36 165.93
  A 0.54 0.46 88.0 0 0 503.82 166.44
  L 520.26 166.50
  A 0.94 0.91 -69.7 0 0 520.97 166.16
  Q 522.09 164.77 522.21 163.75
  Z"
/>
<path fill="#ffa71b" d="
  M 157.71 164.75
  C 157.33 184.34 165.04 202.39 176.78 217.71
  C 176.93 217.90 181.40 224.35 179.31 222.94
  Q 162.41 211.50 151.44 193.31
  C 146.58 185.26 144.86 175.24 143.24 166.22
  L 156.69 166.57
  A 0.54 0.54 88.2 0 1 157.22 167.07
  Q 157.46 169.89 157.71 164.75
  Z"
/>
<path fill="#ffb217" d="
  M 50.72 166.20
  L 51.96 178.50
  Q 51.21 179.76 51.33 180.39
  A 1.56 1.56 84.3 0 1 49.81 182.25
  L 28.52 182.30
  L 26.71 166.50
  L 50.72 166.20
  Z"
/>
<path fill="#ffb217" d="
  M 112.88 166.10
  L 134.50 166.54
  Q 130.93 175.47 124.24 182.18
  Q 114.48 182.58 104.73 181.81
  Q 109.50 174.00 112.88 166.10
  Z"
/>
<path fill="#ffac19" d="
  M 352.46 176.00
  L 351.96 194.00
  C 351.82 193.38 351.82 187.99 351.49 189.82
  A 0.81 0.81 -83.1 0 1 350.65 190.48
  C 348.43 190.34 336.10 189.59 334.95 190.91
  Q 334.35 191.60 334.33 190.70
  L 334.04 176.50
  Q 334.41 173.39 334.30 170.25
  Q 334.23 167.98 334.53 169.68
  Q 334.69 170.54 334.71 171.42
  Q 334.78 174.66 335.59 173.36
  A 1.29 1.28 15.3 0 1 336.67 172.75
  Q 342.81 172.71 348.87 172.79
  C 351.10 172.82 352.17 173.96 352.46 176.00
  Z"
/>
<path fill="#ffac19" d="
  M 225.46 174.00
  L 225.71 189.25
  Q 225.12 185.04 224.99 189.85
  A 0.62 0.60 1.0 0 1 224.37 190.43
  L 208.10 190.26
  A 0.57 0.56 1.4 0 1 207.53 189.67
  Q 207.63 187.60 207.37 185.07
  Q 207.31 184.54 207.30 185.06
  Q 207.20 188.90 207.21 192.75
  Q 207.21 196.39 206.96 193.25
  L 206.54 169.50
  Q 206.92 170.79 207.13 169.64
  Q 207.15 169.55 207.16 169.64
  L 207.68 175.20
  Q 207.76 176.07 207.81 175.19
  Q 207.89 173.74 209.31 173.81
  Q 216.25 174.19 223.79 173.92
  A 0.46 0.45 84.4 0 1 224.26 174.31
  C 224.29 174.50 225.09 180.31 224.90 177.51
  Q 224.78 175.67 225.46 174.00
  Z"
/>
<path fill="#ffac19" d="
  M 258.71 170.75
  Q 259.35 183.00 258.71 195.25
  L 258.25 193.52
  Q 258.11 193.02 258.18 192.58
  C 258.39 191.32 257.53 190.45 256.26 190.41
  Q 249.12 190.19 241.99 190.49
  A 0.25 0.25 -1.2 0 0 241.75 190.74
  C 241.76 192.91 240.92 188.61 240.04 187.75
  L 240.04 177.75
  C 240.19 177.07 240.01 172.19 240.69 173.31
  A 1.86 1.50 -12.4 0 0 242.19 174.06
  L 257.57 174.05
  A 0.63 0.50 -82.2 0 0 258.08 173.56
  L 258.71 170.75
  Z"
/>
<path fill="#ffac19" d="
  M 390.04 171.00
  Q 390.64 171.91 390.57 173.01
  A 1.28 0.69 -75.0 0 0 390.78 173.90
  Q 391.27 174.44 391.87 174.06
  A 1.77 0.76 -42.6 0 1 392.75 173.75
  C 396.68 173.75 404.00 172.96 407.53 174.07
  A 0.61 0.54 20.7 0 0 408.24 173.80
  C 408.64 172.96 408.10 171.03 409.00 171.54
  L 407.96 189.00
  C 407.21 187.01 408.05 190.80 406.56 191.14
  A 0.63 0.45 72.4 0 1 405.97 190.70
  Q 405.78 190.12 405.20 190.29
  Q 404.56 190.48 404.25 190.46
  Q 397.62 189.91 390.90 190.51
  A 0.46 0.46 -89.2 0 0 390.48 190.92
  Q 390.42 191.52 390.03 191.25
  A 0.88 0.34 89.0 0 1 389.78 190.64
  L 389.46 188.00
  L 390.04 171.00
  Z"
/>
<path fill="#ffa21c" d="
  M 423.71 172.00
  Q 423.73 173.96 425.75 173.73
  Q 428.04 173.46 430.30 174.20
  C 429.77 184.18 428.34 194.59 428.80 204.51
  Q 429.08 210.49 434.35 212.91
  C 434.72 213.08 436.60 214.19 434.50 214.14
  Q 424.22 213.86 414.00 212.71
  L 414.25 212.29
  C 418.55 211.24 420.15 208.98 420.92 204.56
  C 422.82 193.65 422.06 182.82 423.71 172.00
  Z"
/>
<path fill="#ff9f1d" d="
  M 333.96 175.25
  L 334.04 176.50
  L 334.33 190.70
  Q 334.35 191.60 334.95 190.91
  C 336.10 189.59 348.43 190.34 350.65 190.48
  A 0.81 0.81 -83.1 0 0 351.49 189.82
  C 351.82 187.99 351.82 193.38 351.96 194.00
  C 352.12 200.54 350.39 204.78 357.30 208.87
  Q 360.41 210.72 356.79 210.64
  L 325.63 210.00
  Q 322.57 209.94 325.48 209.01
  C 332.29 206.82 333.79 200.23 333.74 193.75
  Q 333.68 184.50 333.96 175.25
  Z"
/>
<path fill="#ffa71b" d="
  M 51.96 178.50
  L 53.79 198.25
  Q 53.63 201.19 52.43 199.24
  A 0.93 0.83 72.6 0 0 51.69 198.80
  L 32.50 198.74
  A 1.12 0.70 -63.2 0 0 31.76 199.19
  L 31.43 199.61
  Q 31.11 200.02 31.13 199.44
  Q 31.16 198.52 30.29 198.50
  L 28.52 182.30
  L 49.81 182.25
  A 1.56 1.56 84.3 0 0 51.33 180.39
  Q 51.21 179.76 51.96 178.50
  Z"
/>
<path fill="#ffa71b" d="
  M 104.73 181.81
  Q 114.48 182.58 124.24 182.18
  Q 115.21 192.47 104.00 200.04
  L 92.37 200.00
  Q 91.51 199.99 90.70 200.40
  Q 89.17 201.16 89.50 199.79
  Q 98.25 191.61 104.73 181.81
  Z"
/>
<path fill="#ffa21c" d="
  M 492.46 182.50
  C 488.80 197.50 481.04 212.23 468.49 221.47
  C 468.31 221.60 467.72 222.26 467.43 222.21
  Q 466.90 222.12 467.31 221.63
  Q 481.53 204.68 484.74 182.73
  Q 488.62 181.82 492.46 182.50
  Z"
/>
<path fill="#ff9f1d" d="
  M 225.71 189.25
  C 225.92 194.04 225.51 213.63 235.46 209.01
  Q 241.69 206.11 240.50 198.50
  Q 240.22 196.73 240.04 187.75
  C 240.92 188.61 241.76 192.91 241.75 190.74
  A 0.25 0.25 -1.2 0 1 241.99 190.49
  Q 249.12 190.19 256.26 190.41
  C 257.53 190.45 258.39 191.32 258.18 192.58
  Q 258.11 193.02 258.25 193.52
  L 258.71 195.25
  L 259.24 204.12
  A 1.31 1.30 -76.9 0 0 259.89 205.18
  L 266.51 209.01
  Q 267.70 209.69 266.34 209.78
  Q 252.10 210.68 237.44 210.06
  C 235.19 209.97 233.00 210.98 230.83 211.05
  C 220.98 211.37 199.40 212.59 199.24 211.81
  A 0.70 0.47 -14.7 0 1 199.79 211.19
  C 206.95 209.11 207.04 199.23 206.96 193.25
  Q 207.21 196.39 207.21 192.75
  Q 207.20 188.90 207.30 185.06
  Q 207.31 184.54 207.37 185.07
  Q 207.63 187.60 207.53 189.67
  A 0.57 0.56 1.4 0 0 208.10 190.26
  L 224.37 190.43
  A 0.62 0.60 1.0 0 0 224.99 189.85
  Q 225.12 185.04 225.71 189.25
  Z"
/>
<path fill="#ff9f1d" d="
  M 389.46 188.00
  L 389.78 190.64
  A 0.88 0.34 89.0 0 0 390.03 191.25
  Q 390.42 191.52 390.48 190.92
  A 0.46 0.46 -89.2 0 1 390.90 190.51
  Q 397.62 189.91 404.25 190.46
  Q 404.56 190.48 405.20 190.29
  Q 405.78 190.12 405.97 190.70
  A 0.63 0.45 72.4 0 0 406.56 191.14
  C 408.05 190.80 407.21 187.01 407.96 189.00
  Q 407.90 195.27 407.23 201.50
  Q 406.34 209.91 414.25 212.29
  L 414.00 212.71
  Q 412.72 212.92 409.50 212.75
  Q 395.01 212.00 380.35 211.49
  Q 377.38 211.39 380.20 210.43
  C 390.69 206.85 388.95 196.57 389.46 188.00
  Z"
/>
<path fill="#ff991f" d="
  M 531.29 197.75
  Q 542.87 219.31 565.29 229.15
  Q 566.67 229.75 567.78 230.66
  Q 568.76 231.46 567.51 231.25
  C 547.51 227.97 529.57 215.52 517.29 199.70
  Q 522.55 198.40 528.00 198.48
  C 529.29 198.50 530.27 199.47 531.29 197.75
  Z"
/>
<path fill="#ff991f" d="
  M 53.79 198.25
  Q 54.51 205.43 55.29 212.61
  C 56.82 226.59 85.76 203.09 89.50 199.79
  Q 89.17 201.16 90.70 200.40
  Q 91.51 199.99 92.37 200.00
  L 104.00 200.04
  C 90.80 209.57 76.03 217.87 60.52 221.93
  C 49.79 224.74 36.05 225.80 24.01 227.43
  A 0.91 0.79 -19.6 0 1 23.19 227.11
  Q 22.05 225.49 24.00 224.75
  C 27.86 223.28 30.24 221.68 31.04 217.33
  C 32.16 211.28 31.17 204.55 30.29 198.50
  Q 31.16 198.52 31.13 199.44
  Q 31.11 200.02 31.43 199.61
  L 31.76 199.19
  A 1.12 0.70 -63.2 0 1 32.50 198.74
  L 51.69 198.80
  A 0.93 0.83 72.6 0 1 52.43 199.24
  Q 53.63 201.19 53.79 198.25
  Z"
/>
</svg>
