<?xml version="1.0" encoding="UTF-8" standalone="no"?>
<!DOCTYPE svg PUBLIC "-//W3C//DTD SVG 1.1//EN" "http://www.w3.org/Graphics/SVG/1.1/DTD/svg11.dtd">
<svg xmlns="http://www.w3.org/2000/svg" version="1.1" viewBox="0 0 600 151">
<g stroke-width="2.00" fill="none" stroke-linecap="butt">
<path stroke="#801120" vector-effect="non-scaling-stroke" d="
  M 163.75 137.04
  L 169.29 147.00"
/>
<path stroke="#800901" vector-effect="non-scaling-stroke" d="
  M 169.29 147.00
  Q 169.82 148.66 171.29 148.83
  C 176.03 149.38 176.59 147.75 178.54 143.50"
/>
<path stroke="#801900" vector-effect="non-scaling-stroke" d="
  M 178.54 143.50
  Q 181.58 138.45 184.24 133.20
  C 184.71 132.27 187.66 129.85 183.50 130.75
  Q 179.74 131.57 179.31 132.31
  L 176.69 136.85"
/>
<path stroke="#800901" vector-effect="non-scaling-stroke" d="
  M 176.69 136.85
  C 175.54 138.29 173.59 143.21 171.96 141.25"
/>
<path stroke="#801120" vector-effect="non-scaling-stroke" d="
  M 171.96 141.25
  L 166.69 131.25
  A 1.14 1.05 80.3 0 0 165.95 130.68
  Q 165.00 130.49 164.00 130.79"
/>
<path stroke="#80244e" vector-effect="non-scaling-stroke" d="
  M 164.00 130.79
  L 160.71 130.79
  Q 159.91 130.79 160.34 131.48
  L 163.75 137.04"
/>
<path stroke="#ff346e" vector-effect="non-scaling-stroke" d="
  M 164.00 130.79
  Q 164.39 132.06 163.58 133.13
  A 0.60 0.59 44.6 0 0 163.59 133.87
  Q 164.84 135.39 163.75 137.04"
/>
<path stroke="#ff1a21" vector-effect="non-scaling-stroke" d="
  M 171.96 141.25
  C 168.18 142.83 172.35 146.44 169.29 147.00"
/>
<path stroke="#ff2201" vector-effect="non-scaling-stroke" d="
  M 178.54 143.50
  Q 179.51 139.60 176.69 136.85"
/>
<path stroke="#804201" vector-effect="non-scaling-stroke" d="
  M 189.1913 134.5015
  A 0.69 0.69 0.0 0 0 188.5074 133.8055
  L 185.0275 133.7751
  A 0.69 0.69 0.0 0 0 184.3315 134.4591
  L 184.2087 148.5385
  A 0.69 0.69 0.0 0 0 184.8926 149.2345
  L 188.3725 149.2649
  A 0.69 0.69 0.0 0 0 189.0685 148.5809
  L 189.1913 134.5015"
/>
<path stroke="#806400" vector-effect="non-scaling-stroke" d="
  M 203.31 144.04
  C 203.43 145.59 192.80 145.03 191.30 145.05
  A 0.57 0.49 -87.3 0 0 190.82 145.56
  L 190.50 148.74
  A 0.46 0.43 -87.0 0 0 190.92 149.25
  C 194.57 149.25 206.44 150.92 207.25 145.75
  C 208.47 137.98 199.85 139.85 194.81 139.70
  A 0.88 0.78 -10.8 0 1 194.06 139.25
  C 193.10 137.23 202.56 138.03 206.19 138.17
  A 0.65 0.62 8.4 0 0 206.84 137.71
  Q 207.28 136.10 206.88 134.48
  A 0.72 0.68 -3.1 0 0 206.25 133.95
  C 202.86 133.65 194.80 132.87 192.09 135.15
  C 189.72 137.15 190.01 141.41 192.91 142.85
  C 195.38 144.08 199.02 143.42 202.68 143.54
  A 0.66 0.54 -0.7 0 1 203.31 144.04"
/>
<path stroke="#7f7d03" vector-effect="non-scaling-stroke" d="
  M 213.3516 134.1271
  A 0.31 0.31 0.0 0 0 213.0438 133.8149
  L 208.8239 133.7855
  A 0.31 0.31 0.0 0 0 208.5117 134.0933
  L 208.4084 148.8929
  A 0.31 0.31 0.0 0 0 208.7162 149.2051
  L 212.9361 149.2345
  A 0.31 0.31 0.0 0 0 213.2483 148.9267
  L 213.3516 134.1271"
/>
<path stroke="#4b6e3b" vector-effect="non-scaling-stroke" d="
  M 223.50 148.94
  Q 232.60 151.74 233.15 143.24
  C 233.49 138.05 233.79 133.13 226.75 134.04"
/>
<path stroke="#617725" vector-effect="non-scaling-stroke" d="
  M 226.75 134.04
  L 221.00 134.04"
/>
<path stroke="#737c12" vector-effect="non-scaling-stroke" d="
  M 221.00 134.04
  C 216.37 133.09 214.50 135.48 214.50 139.70
  C 214.50 146.84 214.79 150.94 223.50 148.94"
/>
<path stroke="#d4f336" vector-effect="non-scaling-stroke" d="
  M 221.00 134.04
  Q 221.32 136.33 220.40 138.06"
/>
<path stroke="#737c12" vector-effect="non-scaling-stroke" d="
  M 220.40 138.06
  Q 216.25 144.93 223.50 145.04"
/>
<path stroke="#bee94d" vector-effect="non-scaling-stroke" d="
  M 223.50 145.04
  Q 224.21 147.45 223.50 148.94"
/>
<path stroke="#ace560" vector-effect="non-scaling-stroke" d="
  M 226.75 134.04
  Q 227.19 136.17 226.75 138.21"
/>
<path stroke="#617725" vector-effect="non-scaling-stroke" d="
  M 226.75 138.21
  L 220.40 138.06"
/>
<path stroke="#4b6e3b" vector-effect="non-scaling-stroke" d="
  M 223.50 145.04
  C 230.42 146.30 229.44 138.32 226.75 138.21"
/>
<path stroke="#395f7f" vector-effect="non-scaling-stroke" d="
  M 241.00 138.21
  L 246.22 138.23
  A 1.79 1.75 0.2 0 1 248.00 139.98
  L 248.00 148.22
  A 1.03 1.03 0.0 0 0 249.03 149.25
  L 252.48 149.25
  A 0.52 0.52 0.0 0 0 253.00 148.73
  C 253.00 145.45 253.95 137.38 251.49 135.17
  C 249.38 133.27 244.87 133.99 242.00 134.04"
/>
<path stroke="#456a5c" vector-effect="non-scaling-stroke" d="
  M 242.00 134.04
  L 235.19 134.14
  A 0.55 0.54 -90.0 0 0 234.66 134.68
  L 234.55 148.44
  A 0.66 0.64 7.9 0 0 235.05 149.08
  Q 236.88 149.56 238.70 149.08
  A 0.77 0.76 86.7 0 0 239.26 148.44
  Q 239.88 143.97 239.32 139.49
  Q 239.11 137.78 241.00 138.21"
/>
<path stroke="#7ec9da" vector-effect="non-scaling-stroke" d="
  M 242.00 134.04
  L 241.00 138.21"
/>
<path stroke="#802c5c" vector-effect="non-scaling-stroke" d="
  M 65.50 131.29
  L 58.00 131.46"
/>
<path stroke="#7f407e" vector-effect="non-scaling-stroke" d="
  M 58.00 131.46
  Q 53.75 132.42 53.75 136.25
  C 53.75 140.62 52.34 147.17 57.75 149.04"
/>
<path stroke="#802c5c" vector-effect="non-scaling-stroke" d="
  M 57.75 149.04
  L 62.75 149.21"
/>
<path stroke="#801120" vector-effect="non-scaling-stroke" d="
  M 62.75 149.21
  L 71.22 149.25
  A 1.02 0.90 89.1 0 0 72.12 148.20
  L 72.00 144.93
  A 0.70 0.64 89.1 0 0 71.36 144.25
  L 62.82 144.29"
/>
<path stroke="#802c5c" vector-effect="non-scaling-stroke" d="
  M 62.82 144.29
  C 59.07 144.15 59.36 141.95 59.40 139.18
  C 59.46 135.45 63.06 136.24 65.50 136.21"
/>
<path stroke="#800d18" vector-effect="non-scaling-stroke" d="
  M 65.50 136.21
  L 71.44 136.21
  A 0.52 0.52 90.0 0 0 71.96 135.69
  L 71.99 131.67
  A 0.52 0.49 -0.0 0 0 71.46 131.17
  L 65.50 131.29"
/>
<path stroke="#ff3874" vector-effect="non-scaling-stroke" d="
  M 65.50 136.21
  L 65.50 131.29"
/>
<path stroke="#ff3c7c" vector-effect="non-scaling-stroke" d="
  M 62.82 144.29
  Q 62.19 146.79 62.75 149.21"
/>
<path stroke="#ff6bd9" vector-effect="non-scaling-stroke" d="
  M 57.75 149.04
  Q 58.92 149.14 58.82 148.30
  A 1.15 0.63 19.7 0 0 58.22 147.62
  L 56.98 146.97
  A 1.04 0.83 -81.9 0 1 56.52 146.19
  Q 56.24 143.23 56.23 140.25
  C 56.22 137.32 54.04 134.52 58.12 132.58
  C 58.59 132.36 59.28 131.45 58.00 131.46"
/>
<path stroke="#805e00" vector-effect="non-scaling-stroke" d="
  M 100.13 144.95
  Q 98.24 144.92 98.22 142.93
  L 98.10 134.45
  A 0.66 0.64 6.1 0 0 97.58 133.82
  Q 95.62 133.41 93.78 134.12
  A 0.77 0.76 80.8 0 0 93.29 134.81
  C 93.16 137.36 92.61 146.21 94.84 148.18
  C 96.79 149.91 102.34 149.28 105.06 149.24
  A 0.62 0.61 -9.6 0 0 105.64 148.43
  Q 105.21 147.15 105.37 145.56
  A 0.46 0.44 -86.4 0 0 104.94 145.05
  L 100.13 144.95"
/>
<path stroke="#7f7d03" vector-effect="non-scaling-stroke" d="
  M 111.56 143.06
  L 120.68 142.94
  A 0.96 0.76 10.8 0 0 121.48 142.52
  Q 122.00 141.52 121.57 139.74
  A 0.68 0.66 -6.1 0 0 120.93 139.24
  L 111.80 139.20
  A 0.83 0.78 -11.6 0 1 111.06 138.75
  Q 110.52 137.61 112.00 137.65
  C 114.74 137.72 117.60 137.61 120.31 137.84
  Q 121.96 137.98 121.87 136.30
  Q 121.85 135.95 122.00 135.36
  Q 122.09 135.00 122.00 134.65
  A 0.74 0.64 -5.4 0 0 121.31 134.16
  L 106.75 133.99
  A 0.56 0.54 -86.6 0 0 106.20 134.50
  C 105.70 139.47 104.26 149.08 111.19 149.25
  Q 116.26 149.37 121.31 149.09
  A 0.58 0.49 -3.6 0 0 121.87 148.56
  L 121.64 145.73
  A 0.71 0.56 1.7 0 0 121.01 145.20
  C 118.71 144.97 111.20 145.81 111.05 143.56
  A 0.51 0.47 -1.6 0 1 111.56 143.06"
/>
<path stroke="#804201" vector-effect="non-scaling-stroke" d="
  M 80.25 149.21
  C 85.30 149.30 92.27 151.08 92.25 143.25
  C 92.24 138.01 92.05 132.24 84.50 134.04"
/>
<path stroke="#802c00" vector-effect="non-scaling-stroke" d="
  M 84.50 134.04
  L 79.50 134.04"
/>
<path stroke="#801300" vector-effect="non-scaling-stroke" d="
  M 79.50 134.04
  C 72.33 132.78 72.95 139.55 73.23 144.40
  Q 73.56 150.18 80.25 149.21"
/>
<path stroke="#ff3f00" vector-effect="non-scaling-stroke" d="
  M 79.50 134.04
  Q 80.08 136.18 79.41 138.16"
/>
<path stroke="#801300" vector-effect="non-scaling-stroke" d="
  M 79.41 138.16
  Q 77.78 139.46 78.07 141.66
  C 78.27 143.10 77.76 144.80 80.00 145.04"
/>
<path stroke="#ff5401" vector-effect="non-scaling-stroke" d="
  M 80.00 145.04
  L 80.25 149.21"
/>
<path stroke="#804201" vector-effect="non-scaling-stroke" d="
  M 80.00 145.04
  L 85.06 144.99
  A 2.05 2.00 4.7 0 0 87.06 143.34
  Q 88.06 137.61 83.50 138.21"
/>
<path stroke="#ff6e01" vector-effect="non-scaling-stroke" d="
  M 84.50 134.04
  L 83.50 138.21"
/>
<path stroke="#802c00" vector-effect="non-scaling-stroke" d="
  M 83.50 138.21
  L 79.41 138.16"
/>
<path stroke="#466c4c" vector-effect="non-scaling-stroke" d="
  M 127.50 149.21
  L 137.79 149.25
  A 0.64 0.59 -3.5 0 0 138.43 148.58
  L 138.05 145.55
  A 0.64 0.57 -2.5 0 0 137.43 145.05
  L 129.00 144.96"
/>
<path stroke="#527035" vector-effect="non-scaling-stroke" d="
  M 129.00 144.96
  Q 126.58 142.18 128.26 138.93
  A 0.87 0.86 12.3 0 1 129.00 138.46
  L 137.45 138.18
  A 0.65 0.55 1.9 0 0 138.06 137.70
  L 138.44 134.70
  A 0.70 0.63 2.9 0 0 137.74 134.00
  C 132.47 134.00 123.36 131.68 122.78 139.50
  C 122.52 143.03 122.36 149.21 127.50 149.21"
/>
<path stroke="#98dc81" vector-effect="non-scaling-stroke" d="
  M 129.00 144.96
  L 127.50 149.21"
/>
<path stroke="#285880" vector-effect="non-scaling-stroke" d="
  M 151.25 149.21
  L 155.35 149.26"
/>
<path stroke="#104d7c" vector-effect="non-scaling-stroke" d="
  M 155.35 149.26
  Q 160.43 144.48 158.19 137.06
  Q 157.94 136.24 156.79 135.25"
/>
<path stroke="#285880" vector-effect="non-scaling-stroke" d="
  M 156.79 135.25
  Q 153.54 132.95 149.54 134.39"
/>
<path stroke="#43667a" vector-effect="non-scaling-stroke" d="
  M 149.54 134.39
  Q 140.18 131.27 139.53 139.61
  Q 139.36 141.79 139.47 143.97
  C 139.84 151.12 146.57 149.31 151.25 149.21"
/>
<path stroke="#6abef9" vector-effect="non-scaling-stroke" d="
  M 149.54 134.39
  Q 150.07 135.21 149.15 136.32
  Q 148.87 136.66 149.31 136.72
  Q 150.62 136.89 150.75 138.21"
/>
<path stroke="#43667a" vector-effect="non-scaling-stroke" d="
  M 150.75 138.21
  L 146.43 138.25
  Q 144.20 138.26 144.24 140.35
  L 144.28 143.02
  Q 144.31 144.99 146.42 145.01
  L 151.00 145.04"
/>
<path stroke="#6abef9" vector-effect="non-scaling-stroke" d="
  M 151.00 145.04
  Q 150.23 147.12 151.25 149.21"
/>
<path stroke="#37a5fb" vector-effect="non-scaling-stroke" d="
  M 156.79 135.25
  C 155.14 135.74 154.39 136.52 154.50 138.35
  C 154.72 141.78 153.62 145.82 155.35 149.26"
/>
<path stroke="#285880" vector-effect="non-scaling-stroke" d="
  M 151.00 145.04
  Q 152.89 145.15 153.50 143.50
  Q 154.45 140.95 153.50 139.50
  Q 152.56 138.06 150.75 138.21"
/>
<path stroke="#80244e" vector-effect="non-scaling-stroke" d="
  M 499.25 142.46
  Q 500.73 143.50 499.67 144.71
  A 1.24 1.18 -69.4 0 1 498.81 145.13
  L 495.00 145.29"
/>
<path stroke="#803267" vector-effect="non-scaling-stroke" d="
  M 495.00 145.29
  L 488.32 145.06
  A 0.71 0.62 7.8 0 0 487.63 145.52
  Q 487.36 146.53 487.70 148.31
  A 0.86 0.83 84.1 0 0 488.52 149.00
  L 494.00 148.96"
/>
<path stroke="#80244e" vector-effect="non-scaling-stroke" d="
  M 494.00 148.96
  C 497.69 148.67 503.75 150.69 504.66 145.43
  Q 505.87 138.39 499.00 139.04"
/>
<path stroke="#803267" vector-effect="non-scaling-stroke" d="
  M 499.00 139.04
  C 497.79 139.01 491.48 139.82 492.25 137.40
  A 0.76 0.75 -82.3 0 1 492.94 136.87
  L 496.75 136.71"
/>
<path stroke="#80244e" vector-effect="non-scaling-stroke" d="
  M 496.75 136.71
  C 498.45 136.75 505.18 137.83 504.62 134.98
  Q 504.53 134.51 504.65 134.03
  C 505.10 132.17 503.13 132.75 502.09 132.75
  Q 498.92 132.73 495.75 132.79"
/>
<path stroke="#803267" vector-effect="non-scaling-stroke" d="
  M 495.75 132.79
  Q 486.20 130.91 487.82 139.95
  Q 488.27 142.51 490.84 142.50
  L 499.25 142.46"
/>
<path stroke="#ff56b4" vector-effect="non-scaling-stroke" d="
  M 495.75 132.79
  Q 496.76 133.24 496.44 134.29
  A 0.93 0.93 35.5 0 0 496.58 135.12
  Q 497.10 135.85 496.75 136.71"
/>
<path stroke="#ff56b4" vector-effect="non-scaling-stroke" d="
  M 499.00 139.04
  L 499.25 142.46"
/>
<path stroke="#ff56b4" vector-effect="non-scaling-stroke" d="
  M 494.00 148.96
  C 495.63 148.57 494.80 146.60 495.00 145.29"
/>
<path stroke="#801120" vector-effect="non-scaling-stroke" d="
  M 510.00 143.21
  C 515.27 143.21 507.76 150.29 515.31 148.85
  A 1.60 1.58 81.1 0 0 516.58 147.09
  Q 516.29 144.83 516.79 143.25"
/>
<path stroke="#80100c" vector-effect="non-scaling-stroke" d="
  M 516.79 143.25
  C 523.71 144.78 522.92 137.86 522.70 133.74
  A 0.80 0.79 4.4 0 0 522.08 133.02
  Q 519.20 132.43 518.67 132.79
  A 2.39 2.38 -21.4 0 0 517.66 135.09
  Q 518.24 139.21 517.22 139.34"
/>
<path stroke="#801120" vector-effect="non-scaling-stroke" d="
  M 517.22 139.34
  L 510.54 139.25"
/>
<path stroke="#801832" vector-effect="non-scaling-stroke" d="
  M 510.54 139.25
  C 510.18 135.84 512.64 131.89 506.45 133.04
  A 0.79 0.78 86.4 0 0 505.81 133.78
  C 505.64 137.28 504.58 143.63 510.00 143.21"
/>
<path stroke="#ff2852" vector-effect="non-scaling-stroke" d="
  M 510.54 139.25
  Q 510.96 141.28 510.00 143.21"
/>
<path stroke="#ff202c" vector-effect="non-scaling-stroke" d="
  M 516.79 143.25
  Q 516.58 141.24 517.22 139.34"
/>
<path stroke="#802c00" vector-effect="non-scaling-stroke" d="
  M 535.47 142.42
  Q 537.06 145.62 533.00 145.29"
/>
<path stroke="#801300" vector-effect="non-scaling-stroke" d="
  M 533.00 145.29
  L 524.95 145.01
  A 1.44 1.33 -86.9 0 0 523.57 146.35
  Q 523.35 149.23 525.29 149.07
  C 527.82 148.87 530.45 149.01 533.00 148.96"
/>
<path stroke="#802c00" vector-effect="non-scaling-stroke" d="
  M 533.00 148.96
  C 543.84 150.73 542.38 138.41 536.50 139.04"
/>
<path stroke="#801900" vector-effect="non-scaling-stroke" d="
  M 536.50 139.04
  C 535.53 138.92 526.56 139.58 528.47 137.18
  A 1.19 0.99 15.6 0 1 529.32 136.80
  L 538.75 136.75
  A 2.43 1.60 -78.4 0 0 540.50 135.00
  Q 540.77 134.10 540.58 133.28
  A 0.69 0.60 -4.6 0 0 539.93 132.80
  Q 535.52 132.73 531.11 132.74
  C 526.68 132.75 523.69 132.21 523.50 137.50
  C 523.25 144.40 531.22 142.56 535.47 142.42"
/>
<path stroke="#ff4500" vector-effect="non-scaling-stroke" d="
  M 536.50 139.04
  L 535.47 142.42"
/>
<path stroke="#ff3f00" vector-effect="non-scaling-stroke" d="
  M 533.00 148.96
  Q 532.55 147.10 533.00 145.29"
/>
<path stroke="#805e00" vector-effect="non-scaling-stroke" d="
  M 541.69 135.91
  A 0.86 0.81 90.0 0 0 542.48 136.75
  L 547.07 136.88
  A 0.57 0.52 89.9 0 1 547.58 137.44
  L 547.69 148.06
  A 0.75 0.69 -81.7 0 0 548.15 148.74
  Q 550.03 149.40 551.97 148.84
  A 0.73 0.64 84.2 0 0 552.44 148.18
  L 552.66 137.44
  A 0.57 0.56 -90.0 0 1 553.20 136.89
  L 557.69 136.68
  A 0.76 0.61 4.8 0 0 558.37 136.22
  Q 558.64 135.21 558.28 133.36
  A 0.76 0.74 84.3 0 0 557.55 132.75
  L 542.60 132.75
  A 1.23 0.97 89.2 0 0 541.64 134.01
  L 541.69 135.91"
/>
<path stroke="#778017" vector-effect="non-scaling-stroke" d="
  M 568.83 148.73
  L 574.52 148.97
  A 1.17 1.02 -2.4 0 0 575.75 147.80
  L 575.43 145.66
  A 0.63 0.63 -3.8 0 0 574.82 145.13
  L 569.25 145.04"
/>
<path stroke="#7f7d03" vector-effect="non-scaling-stroke" d="
  M 569.25 145.04
  L 565.24 144.83
  A 0.83 0.74 79.9 0 1 564.55 144.29
  Q 563.85 142.39 566.01 142.53
  Q 568.93 142.71 571.85 142.74
  C 574.63 142.77 575.54 143.24 574.80 139.82
  A 0.93 0.92 79.5 0 0 573.77 139.10
  Q 569.86 139.63 565.30 139.01
  A 0.90 0.86 -6.7 0 1 564.60 138.48
  C 562.69 133.78 576.02 138.97 575.58 135.24
  Q 575.52 134.76 575.65 134.28
  C 576.25 132.07 573.86 132.75 572.70 132.74
  Q 566.45 132.63 560.20 132.91
  A 0.58 0.52 -1.7 0 0 559.65 133.43
  L 559.71 145.73
  Q 559.72 148.07 562.25 148.56
  Q 566.27 149.33 568.83 148.73"
/>
<path stroke="#f6fd19" vector-effect="non-scaling-stroke" d="
  M 569.25 145.04
  L 568.83 148.73"
/>
<path stroke="#2e5e60" vector-effect="non-scaling-stroke" d="
  M 585.28 136.70
  L 585.51 147.99
  A 0.84 0.70 -81.2 0 0 585.95 148.72
  Q 587.64 149.46 589.31 148.72
  A 0.86 0.68 81.3 0 0 589.73 147.99
  L 590.04 136.75"
/>
<path stroke="#104d7c" vector-effect="non-scaling-stroke" d="
  M 590.04 136.75
  L 593.71 136.94
  A 0.59 0.48 -86.2 0 1 594.15 137.56
  C 593.94 140.65 594.14 143.66 593.97 146.84
  Q 593.81 149.95 597.77 148.89
  A 0.71 0.71 84.8 0 0 598.29 148.26
  C 598.58 144.77 598.91 138.31 598.50 136.07
  C 597.72 131.72 591.64 132.34 588.50 132.96"
/>
<path stroke="#2e5e60" vector-effect="non-scaling-stroke" d="
  M 588.50 132.96
  L 585.00 133.04"
/>
<path stroke="#527035" vector-effect="non-scaling-stroke" d="
  M 585.00 133.04
  L 578.09 132.73
  A 0.98 0.95 -85.9 0 0 577.10 133.62
  C 576.66 138.55 577.08 142.93 576.92 147.36
  Q 576.84 149.55 580.70 148.67
  A 0.73 0.71 84.9 0 0 581.25 147.99
  L 581.48 137.50
  A 0.63 0.54 89.1 0 1 581.99 136.89
  L 585.28 136.70"
/>
<path stroke="#80ce95" vector-effect="non-scaling-stroke" d="
  M 585.00 133.04
  L 585.28 136.70"
/>
<path stroke="#3eaadb" vector-effect="non-scaling-stroke" d="
  M 590.04 136.75
  L 589.71 133.75
  A 0.93 0.48 89.1 0 0 589.31 133.01
  Q 588.94 132.88 588.50 132.96"
/>
</g>
<path fill="#264ca1" d="
  M 45.06 0.00
  L 109.31 0.00
  L 160.17 116.31
  Q 161.31 118.93 158.45 118.94
  L 126.09 119.00
  A 0.78 0.78 -11.3 0 1 125.37 118.52
  L 117.62 100.63
  A 1.46 1.44 78.2 0 0 116.29 99.75
  L 56.49 99.75
  A 1.28 1.28 11.4 0 0 55.31 100.53
  L 47.73 118.25
  A 1.14 1.14 11.1 0 1 46.70 118.94
  Q 31.57 119.04 16.23 119.00
  C 11.76 118.99 12.12 117.50 13.64 114.08
  Q 30.06 76.89 46.44 39.69
  Q 48.76 34.42 44.93 31.78
  C 41.67 29.54 36.61 30.13 32.54 30.25
  Q 29.32 30.34 30.65 27.42
  Q 36.19 15.22 41.69 3.44
  Q 43.02 0.59 45.06 0.00
  Z
  M 69.93 71.05
  Q 87.09 71.58 103.11 71.02
  A 1.22 1.22 77.5 0 0 104.19 69.32
  Q 96.50 51.39 88.68 33.53
  C 86.85 29.35 84.73 32.08 83.73 34.42
  Q 76.14 52.19 68.81 69.28
  A 1.27 1.27 -77.5 0 0 69.93 71.05
  Z"
/>
<path fill="#264ca1" d="
  M 156.81 0.00
  L 260.56 0.00
  C 273.85 1.42 281.42 9.98 281.55 22.95
  Q 281.89 56.91 281.78 90.86
  Q 281.75 100.23 280.25 104.45
  C 276.63 114.64 268.38 118.71 257.98 118.79
  Q 210.96 119.18 163.43 119.00
  Q 161.51 118.99 161.49 117.07
  Q 161.06 78.25 161.35 38.75
  C 161.43 27.88 151.43 30.25 144.31 30.25
  Q 141.12 30.25 142.45 27.35
  Q 148.03 15.26 153.50 3.25
  Q 154.70 0.62 156.81 0.00
  Z
  M 197.38 87.32
  Q 217.37 87.62 237.76 87.51
  C 244.11 87.48 248.56 87.49 248.77 79.55
  Q 249.32 58.45 248.80 37.35
  C 248.66 31.82 245.74 30.25 240.41 30.25
  Q 220.16 30.25 199.91 30.25
  C 196.99 30.25 195.50 29.73 195.50 33.25
  Q 195.50 59.25 195.50 85.41
  Q 195.50 87.29 197.38 87.32
  Z"
/>
<path fill="#264ca1" d="
  M 308.06 0.00
  L 372.56 0.00
  Q 384.46 26.94 422.44 114.06
  Q 422.71 114.69 423.11 114.54
  A 0.76 0.51 76.5 0 0 423.40 113.75
  Q 422.99 111.50 423.00 108.50
  Q 423.09 86.76 422.95 39.91
  C 422.91 27.52 414.97 30.25 406.14 30.25
  Q 402.85 30.25 404.24 27.27
  Q 409.83 15.31 415.31 3.31
  Q 416.47 0.78 418.31 0.00
  L 482.31 0.00
  L 504.37 66.14
  Q 504.96 67.89 505.54 66.14
  L 527.69 -0.04
  L 586.81 0.00
  Q 586.71 57.20 586.75 114.41
  C 586.75 117.15 587.65 119.00 583.50 119.00
  Q 570.94 119.00 558.39 119.00
  C 553.68 119.00 552.49 119.53 552.50 114.38
  Q 552.55 73.97 552.44 33.56
  A 1.19 1.00 -72.8 0 0 552.08 32.71
  C 550.54 31.37 549.48 32.78 549.02 34.21
  Q 535.61 75.70 522.27 116.93
  Q 521.60 119.00 519.42 119.00
  L 490.83 119.00
  A 2.31 2.31 -9.3 0 1 488.64 117.43
  Q 474.72 76.26 461.06 34.45
  C 459.95 31.05 457.25 31.48 457.25 35.27
  Q 457.29 76.47 457.19 116.77
  Q 457.19 119.00 454.96 119.00
  L 425.06 118.94
  Q 422.89 118.93 421.69 118.94
  L 389.66 119.00
  A 1.30 1.28 -11.3 0 1 388.47 118.22
  L 380.85 100.48
  A 1.22 1.19 77.9 0 0 379.75 99.75
  L 319.56 99.81
  A 0.78 0.76 11.5 0 0 318.85 100.27
  L 311.28 117.71
  A 2.15 2.05 -77.8 0 1 309.37 119.00
  Q 294.32 119.00 280.06 119.00
  C 274.92 119.00 275.29 117.87 277.10 113.75
  Q 293.37 76.71 309.69 39.69
  Q 312.00 34.44 308.16 31.79
  C 304.92 29.55 299.85 30.13 295.80 30.25
  Q 292.61 30.34 293.92 27.43
  Q 299.37 15.30 304.94 3.44
  Q 306.22 0.71 308.06 0.00
  Z
  M 347.49 33.25
  C 342.37 45.16 337.08 57.28 332.17 68.99
  Q 331.23 71.25 333.68 71.25
  L 366.18 71.25
  Q 368.27 71.25 367.44 69.33
  Q 359.75 51.42 351.98 33.56
  C 350.94 31.17 348.73 30.37 347.49 33.25
  Z"
/>
<path fill="#000000" d="
  M 253.87 151.11
  L 247.41 151.09
  Q 245.69 146.93 246.58 141.78
  A 1.33 1.19 -84.1 0 0 245.46 140.22
  L 241.54 140.17
  A 0.60 0.45 88.2 0 0 241.09 140.81
  C 241.22 143.02 242.27 150.01 239.69 151.00
  L 234.44 151.00
  Q 232.24 149.77 229.94 151.00
  L 217.44 151.00
  Q 215.42 149.71 213.44 151.00
  L 208.69 151.00
  Q 206.31 149.83 203.94 151.00
  L 183.94 151.00
  Q 182.20 150.45 182.37 148.68
  C 182.41 148.32 183.29 136.99 181.06 142.47
  Q 179.41 146.54 176.74 150.04
  A 1.04 0.98 -70.9 0 1 175.93 150.46
  L 170.38 150.48
  A 2.67 2.42 74.2 0 1 168.18 149.11
  L 158.50 131.50
  Q 157.13 129.00 159.75 129.00
  L 165.97 129.00
  A 2.69 2.50 -13.0 0 1 168.29 130.33
  L 172.32 137.83
  A 0.90 0.89 -43.3 0 0 173.87 137.87
  L 178.78 129.97
  A 1.49 1.38 4.7 0 1 179.52 129.39
  C 181.51 128.71 187.33 127.86 187.33 131.19
  A 0.83 0.55 -86.1 0 0 187.76 131.94
  L 189.19 132.31
  Q 189.85 132.48 190.07 132.64
  Q 191.22 133.48 192.43 132.63
  A 1.68 1.17 -55.0 0 1 193.31 132.31
  C 197.56 132.26 211.39 131.17 214.58 132.74
  A 1.51 0.68 36.6 0 0 215.50 132.94
  C 216.03 132.83 216.29 132.52 216.86 132.47
  Q 222.39 131.94 227.90 132.31
  Q 232.16 132.60 235.74 132.38
  Q 239.67 132.14 243.61 132.18
  C 250.49 132.24 254.58 131.75 254.91 139.58
  Q 255.15 145.41 253.87 151.11
  Z
  M 163.75 137.04
  L 169.29 147.00
  Q 169.82 148.66 171.29 148.83
  C 176.03 149.38 176.59 147.75 178.54 143.50
  Q 181.58 138.45 184.24 133.20
  C 184.71 132.27 187.66 129.85 183.50 130.75
  Q 179.74 131.57 179.31 132.31
  L 176.69 136.85
  C 175.54 138.29 173.59 143.21 171.96 141.25
  L 166.69 131.25
  A 1.14 1.05 80.3 0 0 165.95 130.68
  Q 165.00 130.49 164.00 130.79
  L 160.71 130.79
  Q 159.91 130.79 160.34 131.48
  L 163.75 137.04
  Z
  M 189.1913 134.5015
  A 0.69 0.69 0.0 0 0 188.5074 133.8055
  L 185.0275 133.7751
  A 0.69 0.69 0.0 0 0 184.3315 134.4591
  L 184.2087 148.5385
  A 0.69 0.69 0.0 0 0 184.8926 149.2345
  L 188.3725 149.2649
  A 0.69 0.69 0.0 0 0 189.0685 148.5809
  L 189.1913 134.5015
  Z
  M 203.31 144.04
  C 203.43 145.59 192.80 145.03 191.30 145.05
  A 0.57 0.49 -87.3 0 0 190.82 145.56
  L 190.50 148.74
  A 0.46 0.43 -87.0 0 0 190.92 149.25
  C 194.57 149.25 206.44 150.92 207.25 145.75
  C 208.47 137.98 199.85 139.85 194.81 139.70
  A 0.88 0.78 -10.8 0 1 194.06 139.25
  C 193.10 137.23 202.56 138.03 206.19 138.17
  A 0.65 0.62 8.4 0 0 206.84 137.71
  Q 207.28 136.10 206.88 134.48
  A 0.72 0.68 -3.1 0 0 206.25 133.95
  C 202.86 133.65 194.80 132.87 192.09 135.15
  C 189.72 137.15 190.01 141.41 192.91 142.85
  C 195.38 144.08 199.02 143.42 202.68 143.54
  A 0.66 0.54 -0.7 0 1 203.31 144.04
  Z
  M 213.3516 134.1271
  A 0.31 0.31 0.0 0 0 213.0438 133.8149
  L 208.8239 133.7855
  A 0.31 0.31 0.0 0 0 208.5117 134.0933
  L 208.4084 148.8929
  A 0.31 0.31 0.0 0 0 208.7162 149.2051
  L 212.9361 149.2345
  A 0.31 0.31 0.0 0 0 213.2483 148.9267
  L 213.3516 134.1271
  Z
  M 223.50 148.94
  Q 232.60 151.74 233.15 143.24
  C 233.49 138.05 233.79 133.13 226.75 134.04
  L 221.00 134.04
  C 216.37 133.09 214.50 135.48 214.50 139.70
  C 214.50 146.84 214.79 150.94 223.50 148.94
  Z
  M 241.00 138.21
  L 246.22 138.23
  A 1.79 1.75 0.2 0 1 248.00 139.98
  L 248.00 148.22
  A 1.03 1.03 0.0 0 0 249.03 149.25
  L 252.48 149.25
  A 0.52 0.52 0.0 0 0 253.00 148.73
  C 253.00 145.45 253.95 137.38 251.49 135.17
  C 249.38 133.27 244.87 133.99 242.00 134.04
  L 235.19 134.14
  A 0.55 0.54 -90.0 0 0 234.66 134.68
  L 234.55 148.44
  A 0.66 0.64 7.9 0 0 235.05 149.08
  Q 236.88 149.56 238.70 149.08
  A 0.77 0.76 86.7 0 0 239.26 148.44
  Q 239.88 143.97 239.32 139.49
  Q 239.11 137.78 241.00 138.21
  Z"
/>
<path fill="#000000" d="
  M 155.44 151.00
  L 142.19 151.00
  Q 140.28 149.67 138.44 151.00
  L 125.94 151.00
  Q 123.96 149.66 121.94 151.00
  L 108.69 151.00
  Q 107.08 149.98 105.44 151.00
  L 95.94 151.00
  L 93.09 149.11
  A 0.62 0.50 38.7 0 0 92.39 149.11
  Q 91.01 150.42 89.19 151.00
  L 75.94 151.00
  Q 74.04 149.58 72.19 151.00
  L 57.19 151.00
  C 50.72 148.55 52.09 142.26 52.30 136.77
  C 52.48 132.00 54.81 129.15 59.67 129.39
  C 63.60 129.59 67.56 129.50 71.50 129.50
  Q 74.34 129.50 73.75 131.50
  Q 72.99 134.08 75.03 132.73
  A 1.91 1.45 -56.8 0 1 75.93 132.41
  C 80.02 132.18 86.99 131.51 90.79 132.82
  A 1.47 1.30 41.4 0 0 91.71 132.82
  Q 95.31 131.49 98.97 132.65
  A 0.82 0.78 -85.6 0 1 99.51 133.31
  Q 100.18 138.08 99.75 140.25
  Q 99.00 144.03 103.41 143.11
  A 1.05 1.05 84.3 0 0 104.25 142.08
  L 104.25 134.11
  Q 104.25 132.25 106.11 132.25
  C 110.60 132.25 119.62 131.32 123.29 132.78
  A 1.30 1.15 42.2 0 0 124.21 132.79
  C 127.37 131.48 134.81 132.24 138.43 132.30
  Q 138.63 132.31 139.33 132.61
  L 140.02 132.92
  A 1.26 0.49 -30.8 0 0 140.95 132.76
  C 143.62 131.55 150.37 132.25 153.50 132.25
  C 161.11 132.25 160.95 141.14 160.19 145.94
  Q 159.59 149.69 155.44 151.00
  Z
  M 65.50 131.29
  L 58.00 131.46
  Q 53.75 132.42 53.75 136.25
  C 53.75 140.62 52.34 147.17 57.75 149.04
  L 62.75 149.21
  L 71.22 149.25
  A 1.02 0.90 89.1 0 0 72.12 148.20
  L 72.00 144.93
  A 0.70 0.64 89.1 0 0 71.36 144.25
  L 62.82 144.29
  C 59.07 144.15 59.36 141.95 59.40 139.18
  C 59.46 135.45 63.06 136.24 65.50 136.21
  L 71.44 136.21
  A 0.52 0.52 90.0 0 0 71.96 135.69
  L 71.99 131.67
  A 0.52 0.49 -0.0 0 0 71.46 131.17
  L 65.50 131.29
  Z
  M 100.13 144.95
  Q 98.24 144.92 98.22 142.93
  L 98.10 134.45
  A 0.66 0.64 6.1 0 0 97.58 133.82
  Q 95.62 133.41 93.78 134.12
  A 0.77 0.76 80.8 0 0 93.29 134.81
  C 93.16 137.36 92.61 146.21 94.84 148.18
  C 96.79 149.91 102.34 149.28 105.06 149.24
  A 0.62 0.61 -9.6 0 0 105.64 148.43
  Q 105.21 147.15 105.37 145.56
  A 0.46 0.44 -86.4 0 0 104.94 145.05
  L 100.13 144.95
  Z
  M 111.56 143.06
  L 120.68 142.94
  A 0.96 0.76 10.8 0 0 121.48 142.52
  Q 122.00 141.52 121.57 139.74
  A 0.68 0.66 -6.1 0 0 120.93 139.24
  L 111.80 139.20
  A 0.83 0.78 -11.6 0 1 111.06 138.75
  Q 110.52 137.61 112.00 137.65
  C 114.74 137.72 117.60 137.61 120.31 137.84
  Q 121.96 137.98 121.87 136.30
  Q 121.85 135.95 122.00 135.36
  Q 122.09 135.00 122.00 134.65
  A 0.74 0.64 -5.4 0 0 121.31 134.16
  L 106.75 133.99
  A 0.56 0.54 -86.6 0 0 106.20 134.50
  C 105.70 139.47 104.26 149.08 111.19 149.25
  Q 116.26 149.37 121.31 149.09
  A 0.58 0.49 -3.6 0 0 121.87 148.56
  L 121.64 145.73
  A 0.71 0.56 1.7 0 0 121.01 145.20
  C 118.71 144.97 111.20 145.81 111.05 143.56
  A 0.51 0.47 -1.6 0 1 111.56 143.06
  Z
  M 80.25 149.21
  C 85.30 149.30 92.27 151.08 92.25 143.25
  C 92.24 138.01 92.05 132.24 84.50 134.04
  L 79.50 134.04
  C 72.33 132.78 72.95 139.55 73.23 144.40
  Q 73.56 150.18 80.25 149.21
  Z
  M 127.50 149.21
  L 137.79 149.25
  A 0.64 0.59 -3.5 0 0 138.43 148.58
  L 138.05 145.55
  A 0.64 0.57 -2.5 0 0 137.43 145.05
  L 129.00 144.96
  Q 126.58 142.18 128.26 138.93
  A 0.87 0.86 12.3 0 1 129.00 138.46
  L 137.45 138.18
  A 0.65 0.55 1.9 0 0 138.06 137.70
  L 138.44 134.70
  A 0.70 0.63 2.9 0 0 137.74 134.00
  C 132.47 134.00 123.36 131.68 122.78 139.50
  C 122.52 143.03 122.36 149.21 127.50 149.21
  Z
  M 151.25 149.21
  L 155.35 149.26
  Q 160.43 144.48 158.19 137.06
  Q 157.94 136.24 156.79 135.25
  Q 153.54 132.95 149.54 134.39
  Q 140.18 131.27 139.53 139.61
  Q 139.36 141.79 139.47 143.97
  C 139.84 151.12 146.57 149.31 151.25 149.21
  Z"
/>
<path fill="#ff479b" d="
  M 164.00 130.79
  Q 164.39 132.06 163.58 133.13
  A 0.60 0.59 44.6 0 0 163.59 133.87
  Q 164.84 135.39 163.75 137.04
  L 160.34 131.48
  Q 159.91 130.79 160.71 130.79
  L 164.00 130.79
  Z"
/>
<path fill="#ff2140" d="
  M 171.96 141.25
  C 168.18 142.83 172.35 146.44 169.29 147.00
  L 163.75 137.04
  Q 164.84 135.39 163.59 133.87
  A 0.60 0.59 44.6 0 1 163.58 133.13
  Q 164.39 132.06 164.00 130.79
  Q 165.00 130.49 165.95 130.68
  A 1.14 1.05 80.3 0 1 166.69 131.25
  L 171.96 141.25
  Z"
/>
<path fill="#ff3100" d="
  M 178.54 143.50
  Q 179.51 139.60 176.69 136.85
  L 179.31 132.31
  Q 179.74 131.57 183.50 130.75
  C 187.66 129.85 184.71 132.27 184.24 133.20
  Q 181.58 138.45 178.54 143.50
  Z"
/>
<path fill="#ff1930" d="
  M 65.50 136.21
  L 65.50 131.29
  L 71.46 131.17
  A 0.52 0.49 -0.0 0 1 71.99 131.67
  L 71.96 135.69
  A 0.52 0.52 -90.0 0 1 71.44 136.21
  L 65.50 136.21
  Z"
/>
<path fill="#ff57b7" d="
  M 65.50 131.29
  L 65.50 136.21
  C 63.06 136.24 59.46 135.45 59.40 139.18
  C 59.36 141.95 59.07 144.15 62.82 144.29
  Q 62.19 146.79 62.75 149.21
  L 57.75 149.04
  Q 58.92 149.14 58.82 148.30
  A 1.15 0.63 19.7 0 0 58.22 147.62
  L 56.98 146.97
  A 1.04 0.83 -81.9 0 1 56.52 146.19
  Q 56.24 143.23 56.23 140.25
  C 56.22 137.32 54.04 134.52 58.12 132.58
  C 58.59 132.36 59.28 131.45 58.00 131.46
  L 65.50 131.29
  Z"
/>
<path fill="#000000" d="
  M 599.79 135.50
  L 599.79 141.25
  L 600.00 146.31
  L 600.00 149.31
  C 598.64 150.54 592.77 151.41 592.87 148.45
  C 592.96 146.06 592.75 143.75 592.75 141.36
  C 592.74 140.38 593.83 138.15 591.68 138.36
  A 0.64 0.59 89.6 0 0 591.15 138.94
  Q 590.65 145.89 591.00 147.25
  C 591.98 150.99 588.85 150.40 586.58 150.43
  Q 585.29 150.45 584.39 149.56
  A 1.34 0.89 -75.7 0 1 584.08 148.68
  L 583.96 138.81
  A 0.73 0.60 -85.7 0 0 583.48 138.13
  C 582.31 137.89 582.72 148.01 582.70 149.10
  A 1.18 1.18 -89.3 0 1 581.52 150.25
  Q 572.88 150.25 564.25 150.25
  C 556.41 150.25 558.53 144.09 557.99 139.06
  A 0.77 0.74 -85.1 0 0 557.46 138.40
  Q 555.98 137.98 554.48 138.36
  A 0.69 0.66 84.5 0 0 553.98 139.00
  Q 553.68 145.43 554.00 147.00
  C 554.91 151.48 550.44 150.25 547.87 150.25
  A 1.62 1.62 0.0 0 1 546.25 148.63
  L 546.25 139.15
  A 0.97 0.91 1.7 0 0 545.33 138.24
  L 540.82 138.01
  Q 539.57 137.95 540.43 138.80
  C 543.66 142.02 543.08 150.23 537.18 150.26
  Q 530.25 150.28 523.31 150.20
  A 1.08 0.90 -14.1 0 1 522.50 149.81
  Q 521.57 148.54 522.00 146.75
  Q 522.61 144.20 523.50 144.00
  Q 525.83 143.48 523.95 142.47
  A 0.59 0.55 -58.2 0 0 523.22 142.67
  Q 521.63 144.88 519.62 144.67
  Q 517.42 144.45 517.87 146.61
  Q 518.71 150.70 515.33 150.26
  Q 513.92 150.08 512.52 150.25
  C 507.55 150.85 513.68 143.96 508.06 144.39
  A 1.68 0.59 35.6 0 1 507.17 144.13
  Q 506.84 143.97 506.50 144.07
  A 0.75 0.56 81.6 0 0 506.11 144.80
  C 506.37 148.69 504.06 150.25 500.32 150.25
  Q 494.11 150.25 487.59 150.25
  A 1.53 1.34 1.2 0 1 486.05 148.84
  L 486.25 144.50
  A 0.77 0.66 7.9 0 1 487.17 143.91
  Q 488.63 144.21 488.46 143.18
  A 1.47 0.86 24.6 0 0 487.91 142.40
  C 484.67 139.82 485.29 131.60 491.05 131.55
  Q 500.23 131.46 510.21 131.50
  A 1.61 1.55 89.8 0 1 511.75 133.09
  L 511.79 137.20
  A 0.71 0.70 8.0 0 0 512.29 137.86
  C 515.44 138.81 517.54 138.53 516.46 134.04
  Q 515.92 131.77 518.26 131.73
  Q 556.03 131.15 594.78 131.48
  C 597.68 131.51 599.31 132.69 599.79 135.50
  Z
  M 499.25 142.46
  Q 500.73 143.50 499.67 144.71
  A 1.24 1.18 -69.4 0 1 498.81 145.13
  L 495.00 145.29
  L 488.32 145.06
  A 0.71 0.62 7.8 0 0 487.63 145.52
  Q 487.36 146.53 487.70 148.31
  A 0.86 0.83 84.1 0 0 488.52 149.00
  L 494.00 148.96
  C 497.69 148.67 503.75 150.69 504.66 145.43
  Q 505.87 138.39 499.00 139.04
  C 497.79 139.01 491.48 139.82 492.25 137.40
  A 0.76 0.75 -82.3 0 1 492.94 136.87
  L 496.75 136.71
  C 498.45 136.75 505.18 137.83 504.62 134.98
  Q 504.53 134.51 504.65 134.03
  C 505.10 132.17 503.13 132.75 502.09 132.75
  Q 498.92 132.73 495.75 132.79
  Q 486.20 130.91 487.82 139.95
  Q 488.27 142.51 490.84 142.50
  L 499.25 142.46
  Z
  M 510.00 143.21
  C 515.27 143.21 507.76 150.29 515.31 148.85
  A 1.60 1.58 81.1 0 0 516.58 147.09
  Q 516.29 144.83 516.79 143.25
  C 523.71 144.78 522.92 137.86 522.70 133.74
  A 0.80 0.79 4.4 0 0 522.08 133.02
  Q 519.20 132.43 518.67 132.79
  A 2.39 2.38 -21.4 0 0 517.66 135.09
  Q 518.24 139.21 517.22 139.34
  L 510.54 139.25
  C 510.18 135.84 512.64 131.89 506.45 133.04
  A 0.79 0.78 86.4 0 0 505.81 133.78
  C 505.64 137.28 504.58 143.63 510.00 143.21
  Z
  M 535.47 142.42
  Q 537.06 145.62 533.00 145.29
  L 524.95 145.01
  A 1.44 1.33 -86.9 0 0 523.57 146.35
  Q 523.35 149.23 525.29 149.07
  C 527.82 148.87 530.45 149.01 533.00 148.96
  C 543.84 150.73 542.38 138.41 536.50 139.04
  C 535.53 138.92 526.56 139.58 528.47 137.18
  A 1.19 0.99 15.6 0 1 529.32 136.80
  L 538.75 136.75
  A 2.43 1.60 -78.4 0 0 540.50 135.00
  Q 540.77 134.10 540.58 133.28
  A 0.69 0.60 -4.6 0 0 539.93 132.80
  Q 535.52 132.73 531.11 132.74
  C 526.68 132.75 523.69 132.21 523.50 137.50
  C 523.25 144.40 531.22 142.56 535.47 142.42
  Z
  M 541.69 135.91
  A 0.86 0.81 90.0 0 0 542.48 136.75
  L 547.07 136.88
  A 0.57 0.52 89.9 0 1 547.58 137.44
  L 547.69 148.06
  A 0.75 0.69 -81.7 0 0 548.15 148.74
  Q 550.03 149.40 551.97 148.84
  A 0.73 0.64 84.2 0 0 552.44 148.18
  L 552.66 137.44
  A 0.57 0.56 -90.0 0 1 553.20 136.89
  L 557.69 136.68
  A 0.76 0.61 4.8 0 0 558.37 136.22
  Q 558.64 135.21 558.28 133.36
  A 0.76 0.74 84.3 0 0 557.55 132.75
  L 542.60 132.75
  A 1.23 0.97 89.2 0 0 541.64 134.01
  L 541.69 135.91
  Z
  M 568.83 148.73
  L 574.52 148.97
  A 1.17 1.02 -2.4 0 0 575.75 147.80
  L 575.43 145.66
  A 0.63 0.63 -3.8 0 0 574.82 145.13
  L 569.25 145.04
  L 565.24 144.83
  A 0.83 0.74 79.9 0 1 564.55 144.29
  Q 563.85 142.39 566.01 142.53
  Q 568.93 142.71 571.85 142.74
  C 574.63 142.77 575.54 143.24 574.80 139.82
  A 0.93 0.92 79.5 0 0 573.77 139.10
  Q 569.86 139.63 565.30 139.01
  A 0.90 0.86 -6.7 0 1 564.60 138.48
  C 562.69 133.78 576.02 138.97 575.58 135.24
  Q 575.52 134.76 575.65 134.28
  C 576.25 132.07 573.86 132.75 572.70 132.74
  Q 566.45 132.63 560.20 132.91
  A 0.58 0.52 -1.7 0 0 559.65 133.43
  L 559.71 145.73
  Q 559.72 148.07 562.25 148.56
  Q 566.27 149.33 568.83 148.73
  Z
  M 585.28 136.70
  L 585.51 147.99
  A 0.84 0.70 -81.2 0 0 585.95 148.72
  Q 587.64 149.46 589.31 148.72
  A 0.86 0.68 81.3 0 0 589.73 147.99
  L 590.04 136.75
  L 593.71 136.94
  A 0.59 0.48 -86.2 0 1 594.15 137.56
  C 593.94 140.65 594.14 143.66 593.97 146.84
  Q 593.81 149.95 597.77 148.89
  A 0.71 0.71 84.8 0 0 598.29 148.26
  C 598.58 144.77 598.91 138.31 598.50 136.07
  C 597.72 131.72 591.64 132.34 588.50 132.96
  L 585.00 133.04
  L 578.09 132.73
  A 0.98 0.95 -85.9 0 0 577.10 133.62
  C 576.66 138.55 577.08 142.93 576.92 147.36
  Q 576.84 149.55 580.70 148.67
  A 0.73 0.71 84.9 0 0 581.25 147.99
  L 581.48 137.50
  A 0.63 0.54 89.1 0 1 581.99 136.89
  L 585.28 136.70
  Z"
/>
<path fill="#fe7ffb" d="
  M 58.00 131.46
  C 59.28 131.45 58.59 132.36 58.12 132.58
  C 54.04 134.52 56.22 137.32 56.23 140.25
  Q 56.24 143.23 56.52 146.19
  A 1.04 0.83 -81.9 0 0 56.98 146.97
  L 58.22 147.62
  A 1.15 0.63 19.7 0 1 58.82 148.30
  Q 58.92 149.14 57.75 149.04
  C 52.34 147.17 53.75 140.62 53.75 136.25
  Q 53.75 132.42 58.00 131.46
  Z"
/>
<path fill="#000000" d="
  M 44.94 151.00
  L 37.69 151.00
  Q 35.00 151.11 32.75 149.93
  A 1.15 1.12 -84.2 0 1 32.18 149.21
  C 30.90 144.32 31.50 137.87 31.50 132.54
  Q 37.19 132.06 42.91 132.23
  C 45.60 132.31 46.29 131.95 45.55 135.81
  A 1.12 1.09 -84.4 0 1 44.49 136.71
  L 36.64 136.74
  A 0.80 0.77 7.7 0 0 35.88 137.30
  Q 35.08 139.99 37.50 139.50
  Q 39.02 139.19 44.06 139.64
  A 0.87 0.80 -6.9 0 1 44.77 140.15
  Q 45.33 141.55 44.91 143.02
  A 0.75 0.65 -81.4 0 1 44.26 143.57
  L 36.92 143.56
  A 1.39 1.21 2.2 0 0 35.55 144.66
  C 35.34 147.24 37.35 146.22 38.64 146.36
  Q 41.20 146.63 44.48 146.45
  A 0.91 0.91 -8.7 0 1 45.42 147.14
  Q 46.13 150.07 44.94 151.00
  Z"
/>
<path fill="#000000" d="
  M 14.75 132.54
  L 14.52 136.20
  A 0.71 0.63 86.4 0 1 14.04 136.82
  Q 12.28 137.25 10.71 136.81
  A 0.97 0.95 -82.0 0 0 9.50 137.74
  L 9.36 151.01
  L 5.51 151.02
  L 5.28 138.21
  A 1.46 1.40 83.0 0 0 3.55 136.80
  Q 1.14 137.40 0.00 136.44
  L 0.00 132.69
  Q 7.36 131.70 14.75 132.54
  Z"
/>
<path fill="#000000" d="
  M 30.50 132.79
  L 30.31 151.01
  L 26.69 151.00
  L 26.58 145.65
  A 1.43 1.27 89.3 0 0 25.31 144.25
  L 20.22 144.25
  A 0.94 0.94 82.6 0 0 19.31 145.43
  Q 20.07 148.32 18.94 151.00
  L 15.69 151.00
  L 15.50 132.54
  Q 16.58 132.11 18.69 132.36
  A 0.84 0.77 4.1 0 1 19.43 133.14
  L 19.37 138.40
  A 1.28 1.04 -90.0 0 0 20.42 139.69
  L 25.81 139.62
  A 0.57 0.55 0.0 0 0 26.38 139.07
  L 26.38 133.56
  A 1.12 0.71 79.0 0 1 26.70 132.74
  Q 28.45 131.46 30.50 132.79
  Z"
/>
<path fill="#000000" d="
  M 265.07 151.03
  L 261.94 151.00
  C 261.40 146.91 260.17 135.98 263.45 132.66
  A 1.28 1.17 19.7 0 1 264.31 132.30
  Q 269.66 132.20 275.00 132.25
  Q 277.21 132.27 276.67 134.04
  Q 276.53 134.52 276.59 135.00
  Q 276.91 137.40 274.24 137.24
  Q 270.38 137.00 266.28 137.00
  A 1.06 1.06 -85.6 0 0 265.23 137.90
  C 264.86 140.27 266.65 139.51 267.92 139.48
  Q 271.50 139.39 275.06 139.65
  A 0.85 0.78 -7.5 0 1 275.77 140.15
  Q 276.37 141.65 275.86 143.22
  A 0.72 0.71 9.0 0 1 275.18 143.71
  L 266.06 143.60
  A 0.49 0.46 -87.4 0 0 265.59 144.06
  L 265.07 151.03
  Z"
/>
<path fill="#000000" d="
  M 291.98 151.03
  L 288.94 151.00
  L 288.41 145.81
  A 0.67 0.43 85.3 0 0 287.95 145.21
  L 282.31 145.14
  A 1.43 1.31 83.5 0 0 281.05 146.88
  Q 281.66 149.58 280.69 151.00
  L 277.71 151.02
  Q 277.06 141.00 277.56 135.81
  C 278.07 130.55 285.79 132.25 289.49 132.25
  A 1.63 1.33 -21.8 0 1 290.41 132.54
  C 293.52 134.95 292.23 147.19 291.98 151.03
  Z
  M 288.4626 137.3674
  A 0.54 0.54 0.0 0 0 287.9132 136.8369
  L 281.7942 136.9437
  A 0.54 0.54 0.0 0 0 281.2637 137.4931
  L 281.3174 140.5726
  A 0.54 0.54 0.0 0 0 281.8668 141.1031
  L 287.9858 140.9963
  A 0.54 0.54 0.0 0 0 288.5163 140.4469
  L 288.4626 137.3674
  Z"
/>
<path fill="#000000" d="
  M 316.79 132.75
  Q 316.22 141.87 316.76 151.00
  L 308.53 151.02
  L 308.27 137.97
  A 1.13 1.07 -86.7 0 0 307.35 136.88
  Q 304.27 136.42 304.38 138.51
  Q 304.72 144.77 304.20 151.03
  L 301.14 151.04
  Q 300.46 144.92 300.78 138.14
  A 0.86 0.85 -81.1 0 0 300.16 137.28
  Q 297.46 136.52 297.02 137.81
  C 296.23 140.12 296.99 148.02 296.89 151.02
  L 293.56 151.02
  L 293.21 133.11
  A 0.84 0.82 89.3 0 1 294.03 132.25
  L 309.14 132.25
  Q 311.37 132.25 311.50 134.48
  Q 311.92 141.83 311.76 149.18
  C 311.74 149.96 312.71 150.77 312.68 149.41
  Q 312.52 141.24 312.69 133.04
  A 0.66 0.66 -5.6 0 1 313.21 132.41
  Q 315.53 131.94 316.79 132.75
  Z"
/>
<path fill="#000000" d="
  M 327.19 151.00
  L 319.35 151.15
  Q 316.76 142.08 317.75 132.54
  Q 319.58 131.72 321.25 132.56
  A 0.89 0.70 -79.6 0 1 321.65 133.31
  L 321.65 145.57
  A 0.55 0.54 1.1 0 0 322.18 146.11
  L 326.94 146.32
  A 0.75 0.65 -6.3 0 1 327.61 146.78
  Q 328.29 148.96 327.19 151.00
  Z"
/>
<path fill="#000000" d="
  M 337.94 151.00
  L 334.69 151.00
  Q 333.94 149.62 334.57 146.35
  Q 334.95 144.39 332.95 144.50
  C 327.59 144.79 328.75 136.81 328.75 133.12
  A 0.83 0.79 -90.0 0 1 329.54 132.29
  L 332.18 132.27
  A 0.66 0.61 84.4 0 1 332.79 132.81
  Q 333.32 135.45 332.74 138.45
  A 1.23 1.22 -86.1 0 0 334.00 139.91
  L 339.05 139.60
  A 0.61 0.59 1.6 0 0 339.62 139.08
  C 340.04 135.70 337.62 131.40 343.09 132.46
  A 0.79 0.77 -85.8 0 1 343.71 133.19
  C 343.85 136.86 345.25 144.31 339.72 144.24
  A 1.48 1.47 82.1 0 0 338.30 146.13
  Q 339.05 148.70 337.94 151.00
  Z"
/>
<path fill="#000000" d="
  M 363.19 151.00
  L 351.94 151.00
  Q 349.48 149.26 349.66 146.28
  C 349.88 142.67 348.62 135.09 351.43 132.62
  A 1.37 1.34 24.1 0 1 352.32 132.29
  L 363.06 132.41
  A 0.56 0.48 2.3 0 1 363.63 132.93
  L 363.34 136.21
  A 0.76 0.58 -3.6 0 1 362.70 136.76
  Q 358.50 137.38 354.58 136.80
  A 0.94 0.94 4.2 0 0 353.50 137.73
  L 353.50 145.39
  A 0.89 0.87 0.3 0 0 354.38 146.26
  L 362.69 146.30
  A 0.72 0.72 -9.7 0 1 363.37 146.78
  Q 364.15 148.92 363.19 151.00
  Z"
/>
<path fill="#000000" d="
  M 378.67 151.21
  L 366.94 151.00
  C 363.23 149.13 364.41 138.12 364.93 134.91
  Q 365.37 132.25 368.06 132.25
  Q 371.17 132.25 374.04 132.25
  C 377.94 132.25 379.95 131.56 380.75 135.75
  Q 382.41 144.48 378.67 151.21
  Z
  M 376.9925 137.2725
  A 0.35 0.35 0.0 0 0 376.6419 136.9231
  L 368.7619 136.9369
  A 0.35 0.35 0.0 0 0 368.4125 137.2875
  L 368.4275 145.9075
  A 0.35 0.35 0.0 0 0 368.7781 146.2569
  L 376.6581 146.2431
  A 0.35 0.35 0.0 0 0 377.0075 145.8925
  L 376.9925 137.2725
  Z"
/>
<path fill="#000000" d="
  M 400.39 151.05
  L 397.19 151.00
  L 397.02 137.88
  A 0.82 0.79 -86.8 0 0 396.33 137.08
  Q 392.54 136.60 393.25 139.25
  Q 393.83 141.41 392.94 151.00
  L 389.63 151.02
  L 389.44 137.55
  A 0.70 0.68 -81.9 0 0 388.97 136.90
  Q 384.87 135.60 385.75 140.25
  Q 386.26 142.94 385.44 151.00
  L 382.19 151.00
  L 382.01 132.77
  A 0.53 0.52 0.0 0 1 382.54 132.25
  C 387.26 132.25 392.06 132.45 396.69 132.13
  Q 400.31 131.88 400.50 135.75
  Q 400.70 139.93 400.39 151.05
  Z"
/>
<path fill="#000000" d="
  M 405.19 151.00
  L 401.84 151.04
  Q 401.12 142.80 401.79 133.07
  A 0.88 0.87 1.7 0 1 402.67 132.25
  Q 408.25 132.25 413.00 132.30
  C 417.57 132.36 416.73 139.62 416.00 142.51
  Q 415.56 144.25 413.76 144.25
  L 406.24 144.25
  A 0.77 0.77 81.8 0 0 405.50 145.24
  Q 406.36 148.21 405.19 151.00
  Z
  M 412.4633 137.4627
  A 0.65 0.65 0.0 0 0 411.8235 136.8026
  L 406.4242 136.7178
  A 0.65 0.65 0.0 0 0 405.7641 137.3575
  L 405.7367 139.0973
  A 0.65 0.65 0.0 0 0 406.3765 139.7574
  L 411.7758 139.8422
  A 0.65 0.65 0.0 0 0 412.4359 139.2025
  L 412.4633 137.4627
  Z"
/>
<path fill="#000000" d="
  M 432.46 133.25
  L 432.19 151.00
  L 419.94 151.00
  C 416.32 149.20 417.56 139.34 417.68 132.94
  A 0.62 0.46 -88.6 0 1 418.16 132.32
  L 420.67 132.42
  A 1.01 0.89 -88.2 0 1 421.52 133.44
  L 421.25 145.33
  A 0.85 0.80 -90.0 0 0 422.07 146.20
  L 428.06 146.12
  A 0.55 0.54 89.5 0 0 428.59 145.57
  L 428.59 133.31
  A 0.96 0.81 77.0 0 1 428.99 132.53
  Q 431.00 131.33 432.46 133.25
  Z"
/>
<path fill="#000000" d="
  M 448.00 132.54
  Q 449.73 138.63 443.91 136.87
  A 0.93 0.90 -81.7 0 0 442.75 137.76
  L 442.61 151.00
  L 438.77 151.02
  L 438.53 138.24
  A 1.47 1.41 83.6 0 0 436.83 136.82
  Q 433.45 137.54 433.46 135.25
  Q 432.97 133.72 433.74 132.68
  A 1.00 0.94 17.5 0 1 434.55 132.29
  L 448.00 132.54
  Z"
/>
<path fill="#000000" d="
  M 462.65 151.08
  L 454.69 150.88
  Q 449.64 151.78 449.00 147.50
  Q 448.64 145.07 448.75 132.54
  L 462.44 132.29
  A 0.53 0.51 88.9 0 1 462.96 132.81
  L 463.01 135.89
  A 0.88 0.85 -0.3 0 1 462.13 136.75
  L 454.00 136.75
  A 0.97 0.80 12.7 0 0 453.21 137.15
  Q 452.65 138.11 453.22 139.09
  A 0.94 0.79 -12.2 0 0 454.00 139.50
  L 461.34 139.50
  A 0.92 0.91 -5.8 0 1 462.24 140.23
  Q 462.84 143.14 461.58 143.69
  C 460.56 144.14 455.35 143.75 453.81 143.80
  A 0.78 0.72 8.7 0 0 453.11 144.27
  C 450.82 150.20 466.86 141.59 462.65 151.08
  Z"
/>
<path fill="#000000" d="
  M 478.69 151.00
  L 475.19 151.00
  L 473.06 145.06
  A 0.95 0.48 74.2 0 0 472.45 144.40
  L 468.83 144.48
  A 1.01 0.91 80.7 0 0 468.01 145.76
  Q 468.80 148.58 467.69 151.00
  L 464.59 151.04
  L 464.30 133.16
  A 0.95 0.89 -0.6 0 1 465.25 132.25
  L 475.55 132.25
  Q 477.27 132.25 477.95 133.84
  Q 479.96 138.56 477.25 144.08
  A 1.66 1.65 -45.6 0 0 477.26 145.57
  Q 478.47 147.96 478.69 151.00
  Z
  M 474.8908 137.5178
  A 0.72 0.72 0.0 0 0 474.1810 136.7878
  L 468.7815 136.7125
  A 0.72 0.72 0.0 0 0 468.0515 137.4223
  L 468.0292 139.0222
  A 0.72 0.72 0.0 0 0 468.7390 139.7522
  L 474.1385 139.8275
  A 0.72 0.72 0.0 0 0 474.8685 139.1177
  L 474.8908 137.5178
  Z"
/>
<path fill="#ff64cd" d="
  M 495.75 132.79
  Q 496.76 133.24 496.44 134.29
  A 0.93 0.93 35.5 0 0 496.58 135.12
  Q 497.10 135.85 496.75 136.71
  L 492.94 136.87
  A 0.76 0.75 -82.3 0 0 492.25 137.40
  C 491.48 139.82 497.79 139.01 499.00 139.04
  L 499.25 142.46
  L 490.84 142.50
  Q 488.27 142.51 487.82 139.95
  Q 486.20 130.91 495.75 132.79
  Z"
/>
<path fill="#ff479b" d="
  M 495.75 132.79
  Q 498.92 132.73 502.09 132.75
  C 503.13 132.75 505.10 132.17 504.65 134.03
  Q 504.53 134.51 504.62 134.98
  C 505.18 137.83 498.45 136.75 496.75 136.71
  Q 497.10 135.85 496.58 135.12
  A 0.93 0.93 35.5 0 1 496.44 134.29
  Q 496.76 133.24 495.75 132.79
  Z"
/>
<path fill="#ff2f63" d="
  M 510.54 139.25
  Q 510.96 141.28 510.00 143.21
  C 504.58 143.63 505.64 137.28 505.81 133.78
  A 0.79 0.78 86.4 0 1 506.45 133.04
  C 512.64 131.89 510.18 135.84 510.54 139.25
  Z"
/>
<path fill="#ff1f18" d="
  M 516.79 143.25
  Q 516.58 141.24 517.22 139.34
  Q 518.24 139.21 517.66 135.09
  A 2.39 2.38 -21.4 0 1 518.67 132.79
  Q 519.20 132.43 522.08 133.02
  A 0.80 0.79 4.4 0 1 522.70 133.74
  C 522.92 137.86 523.71 144.78 516.79 143.25
  Z"
/>
<path fill="#ff3100" d="
  M 536.50 139.04
  L 535.47 142.42
  C 531.22 142.56 523.25 144.40 523.50 137.50
  C 523.69 132.21 526.68 132.75 531.11 132.74
  Q 535.52 132.73 539.93 132.80
  A 0.69 0.60 -4.6 0 1 540.58 133.28
  Q 540.77 134.10 540.50 135.00
  A 2.43 1.60 -78.4 0 1 538.75 136.75
  L 529.32 136.80
  A 1.19 0.99 15.6 0 0 528.47 137.18
  C 526.56 139.58 535.53 138.92 536.50 139.04
  Z"
/>
<path fill="#ffbc00" d="
  M 541.69 135.91
  L 541.64 134.01
  A 1.23 0.97 89.2 0 1 542.60 132.75
  L 557.55 132.75
  A 0.76 0.74 84.3 0 1 558.28 133.36
  Q 558.64 135.21 558.37 136.22
  A 0.76 0.61 4.8 0 1 557.69 136.68
  L 553.20 136.89
  A 0.57 0.56 -90.0 0 0 552.66 137.44
  L 552.44 148.18
  A 0.73 0.64 84.2 0 1 551.97 148.84
  Q 550.03 149.40 548.15 148.74
  A 0.75 0.69 -81.7 0 1 547.69 148.06
  L 547.58 137.44
  A 0.57 0.52 89.9 0 0 547.07 136.88
  L 542.48 136.75
  A 0.86 0.81 90.0 0 1 541.69 135.91
  Z"
/>
<path fill="#fefa05" d="
  M 569.25 145.04
  L 568.83 148.73
  Q 566.27 149.33 562.25 148.56
  Q 559.72 148.07 559.71 145.73
  L 559.65 133.43
  A 0.58 0.52 -1.7 0 1 560.20 132.91
  Q 566.45 132.63 572.70 132.74
  C 573.86 132.75 576.25 132.07 575.65 134.28
  Q 575.52 134.76 575.58 135.24
  C 576.02 138.97 562.69 133.78 564.60 138.48
  A 0.90 0.86 -6.7 0 0 565.30 139.01
  Q 569.86 139.63 573.77 139.10
  A 0.93 0.92 79.5 0 1 574.80 139.82
  C 575.54 143.24 574.63 142.77 571.85 142.74
  Q 568.93 142.71 566.01 142.53
  Q 563.85 142.39 564.55 144.29
  A 0.83 0.74 79.9 0 0 565.24 144.83
  L 569.25 145.04
  Z"
/>
<path fill="#a4e06a" d="
  M 585.00 133.04
  L 585.28 136.70
  L 581.99 136.89
  A 0.63 0.54 89.1 0 0 581.48 137.50
  L 581.25 147.99
  A 0.73 0.71 84.9 0 1 580.70 148.67
  Q 576.84 149.55 576.92 147.36
  C 577.08 142.93 576.66 138.55 577.10 133.62
  A 0.98 0.95 -85.9 0 1 578.09 132.73
  L 585.00 133.04
  Z"
/>
<path fill="#1f99f7" d="
  M 590.04 136.75
  L 589.71 133.75
  A 0.93 0.48 89.1 0 0 589.31 133.01
  Q 588.94 132.88 588.50 132.96
  C 591.64 132.34 597.72 131.72 598.50 136.07
  C 598.91 138.31 598.58 144.77 598.29 148.26
  A 0.71 0.71 84.8 0 1 597.77 148.89
  Q 593.81 149.95 593.97 146.84
  C 594.14 143.66 593.94 140.65 594.15 137.56
  A 0.59 0.48 -86.2 0 0 593.71 136.94
  L 590.04 136.75
  Z"
/>
<path fill="#5cbbbf" d="
  M 585.00 133.04
  L 588.50 132.96
  Q 588.94 132.88 589.31 133.01
  A 0.93 0.48 89.1 0 1 589.71 133.75
  L 590.04 136.75
  L 589.73 147.99
  A 0.86 0.68 81.3 0 1 589.31 148.72
  Q 587.64 149.46 585.95 148.72
  A 0.84 0.70 -81.2 0 1 585.51 147.99
  L 585.28 136.70
  L 585.00 133.04
  Z"
/>
<path fill="#ffbc00" d="
  M 100.13 144.95
  L 104.94 145.05
  A 0.46 0.44 -86.4 0 1 105.37 145.56
  Q 105.21 147.15 105.64 148.43
  A 0.62 0.61 -9.6 0 1 105.06 149.24
  C 102.34 149.28 96.79 149.91 94.84 148.18
  C 92.61 146.21 93.16 137.36 93.29 134.81
  A 0.77 0.76 80.8 0 1 93.78 134.12
  Q 95.62 133.41 97.58 133.82
  A 0.66 0.64 6.1 0 1 98.10 134.45
  L 98.22 142.93
  Q 98.24 144.92 100.13 144.95
  Z"
/>
<path fill="#fefa05" d="
  M 111.05 143.56
  C 111.20 145.81 118.71 144.97 121.01 145.20
  A 0.71 0.56 1.7 0 1 121.64 145.73
  L 121.87 148.56
  A 0.58 0.49 -3.6 0 1 121.31 149.09
  Q 116.26 149.37 111.19 149.25
  C 104.26 149.08 105.70 139.47 106.20 134.50
  A 0.56 0.54 -86.6 0 1 106.75 133.99
  L 121.31 134.16
  A 0.74 0.64 -5.4 0 1 122.00 134.65
  Q 122.09 135.00 122.00 135.36
  Q 121.85 135.95 121.87 136.30
  Q 121.96 137.98 120.31 137.84
  C 117.60 137.61 114.74 137.72 112.00 137.65
  Q 110.52 137.61 111.06 138.75
  A 0.83 0.78 -11.6 0 0 111.80 139.20
  L 120.93 139.24
  A 0.68 0.66 -6.1 0 1 121.57 139.74
  Q 122.00 141.52 121.48 142.52
  A 0.96 0.76 10.8 0 1 120.68 142.94
  L 111.56 143.06
  A 0.51 0.47 -1.6 0 0 111.05 143.56
  Z"
/>
<rect fill="#ff8301" x="-2.43" y="-7.73" transform="translate(186.70,141.52) rotate(0.5)" width="4.86" height="15.46" rx="0.69"/>
<path fill="#ffc700" d="
  M 202.68 143.54
  C 199.02 143.42 195.38 144.08 192.91 142.85
  C 190.01 141.41 189.72 137.15 192.09 135.15
  C 194.80 132.87 202.86 133.65 206.25 133.95
  A 0.72 0.68 -3.1 0 1 206.88 134.48
  Q 207.28 136.10 206.84 137.71
  A 0.65 0.62 8.4 0 1 206.19 138.17
  C 202.56 138.03 193.10 137.23 194.06 139.25
  A 0.88 0.78 -10.8 0 0 194.81 139.70
  C 199.85 139.85 208.47 137.98 207.25 145.75
  C 206.44 150.92 194.57 149.25 190.92 149.25
  A 0.46 0.43 -87.0 0 1 190.50 148.74
  L 190.82 145.56
  A 0.57 0.49 -87.3 0 1 191.30 145.05
  C 192.80 145.03 203.43 145.59 203.31 144.04
  A 0.66 0.54 -0.7 0 0 202.68 143.54
  Z"
/>
<rect fill="#fefa05" x="-2.42" y="-7.71" transform="translate(210.88,141.51) rotate(0.4)" width="4.84" height="15.42" rx="0.31"/>
<path fill="#ff2500" d="
  M 79.50 134.04
  Q 80.08 136.18 79.41 138.16
  Q 77.78 139.46 78.07 141.66
  C 78.27 143.10 77.76 144.80 80.00 145.04
  L 80.25 149.21
  Q 73.56 150.18 73.23 144.40
  C 72.95 139.55 72.33 132.78 79.50 134.04
  Z"
/>
<path fill="#ff5800" d="
  M 79.50 134.04
  L 84.50 134.04
  L 83.50 138.21
  L 79.41 138.16
  Q 80.08 136.18 79.50 134.04
  Z"
/>
<path fill="#ff8301" d="
  M 84.50 134.04
  C 92.05 132.24 92.24 138.01 92.25 143.25
  C 92.27 151.08 85.30 149.30 80.25 149.21
  L 80.00 145.04
  L 85.06 144.99
  A 2.05 2.00 4.7 0 0 87.06 143.34
  Q 88.06 137.61 83.50 138.21
  L 84.50 134.04
  Z"
/>
<path fill="#a4e06a" d="
  M 129.00 144.96
  L 127.50 149.21
  C 122.36 149.21 122.52 143.03 122.78 139.50
  C 123.36 131.68 132.47 134.00 137.74 134.00
  A 0.70 0.63 2.9 0 1 138.44 134.70
  L 138.06 137.70
  A 0.65 0.55 1.9 0 1 137.45 138.18
  L 129.00 138.46
  A 0.87 0.86 12.3 0 0 128.26 138.93
  Q 126.58 142.18 129.00 144.96
  Z"
/>
<path fill="#85cbf3" d="
  M 149.54 134.39
  Q 150.07 135.21 149.15 136.32
  Q 148.87 136.66 149.31 136.72
  Q 150.62 136.89 150.75 138.21
  L 146.43 138.25
  Q 144.20 138.26 144.24 140.35
  L 144.28 143.02
  Q 144.31 144.99 146.42 145.01
  L 151.00 145.04
  Q 150.23 147.12 151.25 149.21
  C 146.57 149.31 139.84 151.12 139.47 143.97
  Q 139.36 141.79 139.53 139.61
  Q 140.18 131.27 149.54 134.39
  Z"
/>
<path fill="#4fb0ff" d="
  M 149.54 134.39
  Q 153.54 132.95 156.79 135.25
  C 155.14 135.74 154.39 136.52 154.50 138.35
  C 154.72 141.78 153.62 145.82 155.35 149.26
  L 151.25 149.21
  Q 150.23 147.12 151.00 145.04
  Q 152.89 145.15 153.50 143.50
  Q 154.45 140.95 153.50 139.50
  Q 152.56 138.06 150.75 138.21
  Q 150.62 136.89 149.31 136.72
  Q 148.87 136.66 149.15 136.32
  Q 150.07 135.21 149.54 134.39
  Z"
/>
<path fill="#e6f723" d="
  M 221.00 134.04
  Q 221.32 136.33 220.40 138.06
  Q 216.25 144.93 223.50 145.04
  Q 224.21 147.45 223.50 148.94
  C 214.79 150.94 214.50 146.84 214.50 139.70
  C 214.50 135.48 216.37 133.09 221.00 134.04
  Z"
/>
<path fill="#c1ee49" d="
  M 221.00 134.04
  L 226.75 134.04
  Q 227.19 136.17 226.75 138.21
  L 220.40 138.06
  Q 221.32 136.33 221.00 134.04
  Z"
/>
<path fill="#96db76" d="
  M 226.75 134.04
  C 233.79 133.13 233.49 138.05 233.15 143.24
  Q 232.60 151.74 223.50 148.94
  Q 224.21 147.45 223.50 145.04
  C 230.42 146.30 229.44 138.32 226.75 138.21
  Q 227.19 136.17 226.75 134.04
  Z"
/>
<path fill="#8ad4b7" d="
  M 242.00 134.04
  L 241.00 138.21
  Q 239.11 137.78 239.32 139.49
  Q 239.88 143.97 239.26 148.44
  A 0.77 0.76 86.7 0 1 238.70 149.08
  Q 236.88 149.56 235.05 149.08
  A 0.66 0.64 7.9 0 1 234.55 148.44
  L 234.66 134.68
  A 0.55 0.54 -90.0 0 1 235.19 134.14
  L 242.00 134.04
  Z"
/>
<path fill="#71befd" d="
  M 242.00 134.04
  C 244.87 133.99 249.38 133.27 251.49 135.17
  C 253.95 137.38 253.00 145.45 253.00 148.73
  A 0.52 0.52 0.0 0 1 252.48 149.25
  L 249.03 149.25
  A 1.03 1.03 0.0 0 1 248.00 148.22
  L 248.00 139.98
  A 1.79 1.75 0.2 0 0 246.22 138.23
  L 241.00 138.21
  L 242.00 134.04
  Z"
/>
<path fill="#1f99f7" d="
  M 156.79 135.25
  Q 157.94 136.24 158.19 137.06
  Q 160.43 144.48 155.35 149.26
  C 153.62 145.82 154.72 141.78 154.50 138.35
  C 154.39 136.52 155.14 135.74 156.79 135.25
  Z"
/>
<path fill="#ff1202" d="
  M 176.69 136.85
  Q 179.51 139.60 178.54 143.50
  C 176.59 147.75 176.03 149.38 171.29 148.83
  Q 169.82 148.66 169.29 147.00
  C 172.35 146.44 168.18 142.83 171.96 141.25
  C 173.59 143.21 175.54 138.29 176.69 136.85
  Z"
/>
<path fill="#000000" d="
  M 79.41 138.16
  L 83.50 138.21
  Q 88.06 137.61 87.06 143.34
  A 2.05 2.00 4.7 0 1 85.06 144.99
  L 80.00 145.04
  C 77.76 144.80 78.27 143.10 78.07 141.66
  Q 77.78 139.46 79.41 138.16
  Z"
/>
<path fill="#000000" d="
  M 150.75 138.21
  Q 152.56 138.06 153.50 139.50
  Q 154.45 140.95 153.50 143.50
  Q 152.89 145.15 151.00 145.04
  L 146.42 145.01
  Q 144.31 144.99 144.28 143.02
  L 144.24 140.35
  Q 144.20 138.26 146.43 138.25
  L 150.75 138.21
  Z"
/>
<path fill="#000000" d="
  M 220.40 138.06
  L 226.75 138.21
  C 229.44 138.32 230.42 146.30 223.50 145.04
  Q 216.25 144.93 220.40 138.06
  Z"
/>
<path fill="#ff479b" d="
  M 499.00 139.04
  Q 505.87 138.39 504.66 145.43
  C 503.75 150.69 497.69 148.67 494.00 148.96
  C 495.63 148.57 494.80 146.60 495.00 145.29
  L 498.81 145.13
  A 1.24 1.18 -69.4 0 0 499.67 144.71
  Q 500.73 143.50 499.25 142.46
  L 499.00 139.04
  Z"
/>
<path fill="#ff5800" d="
  M 536.50 139.04
  C 542.38 138.41 543.84 150.73 533.00 148.96
  Q 532.55 147.10 533.00 145.29
  Q 537.06 145.62 535.47 142.42
  L 536.50 139.04
  Z"
/>
<path fill="#ff2140" d="
  M 510.54 139.25
  L 517.22 139.34
  Q 516.58 141.24 516.79 143.25
  Q 516.29 144.83 516.58 147.09
  A 1.60 1.58 81.1 0 1 515.31 148.85
  C 507.76 150.29 515.27 143.21 510.00 143.21
  Q 510.96 141.28 510.54 139.25
  Z"
/>
<path fill="#ff2140" d="
  M 62.82 144.29
  L 71.36 144.25
  A 0.70 0.64 89.1 0 1 72.00 144.93
  L 72.12 148.20
  A 1.02 0.90 89.1 0 1 71.22 149.25
  L 62.75 149.21
  Q 62.19 146.79 62.82 144.29
  Z"
/>
<path fill="#8bd798" d="
  M 129.00 144.96
  L 137.43 145.05
  A 0.64 0.57 -2.5 0 1 138.05 145.55
  L 138.43 148.58
  A 0.64 0.59 -3.5 0 1 137.79 149.25
  L 127.50 149.21
  L 129.00 144.96
  Z"
/>
<path fill="#ff64cd" d="
  M 495.00 145.29
  C 494.80 146.60 495.63 148.57 494.00 148.96
  L 488.52 149.00
  A 0.86 0.83 84.1 0 1 487.70 148.31
  Q 487.36 146.53 487.63 145.52
  A 0.71 0.62 7.8 0 1 488.32 145.06
  L 495.00 145.29
  Z"
/>
<path fill="#ff2500" d="
  M 533.00 145.29
  Q 532.55 147.10 533.00 148.96
  C 530.45 149.01 527.82 148.87 525.29 149.07
  Q 523.35 149.23 523.57 146.35
  A 1.44 1.33 -86.9 0 1 524.95 145.01
  L 533.00 145.29
  Z"
/>
<path fill="#edff2d" d="
  M 569.25 145.04
  L 574.82 145.13
  A 0.63 0.63 -3.8 0 1 575.43 145.66
  L 575.75 147.80
  A 1.17 1.02 -2.4 0 1 574.52 148.97
  L 568.83 148.73
  L 569.25 145.04
  Z"
/>
</svg>
