<?xml version="1.0" encoding="UTF-8" standalone="no"?>
<!DOCTYPE svg PUBLIC "-//W3C//DTD SVG 1.1//EN" "http://www.w3.org/Graphics/SVG/1.1/DTD/svg11.dtd">
<svg xmlns="http://www.w3.org/2000/svg" version="1.1" viewBox="0 0 600 300">
<g stroke-width="2.00" fill="none" stroke-linecap="butt">
<path stroke="#f2c10e" vector-effect="non-scaling-stroke" d="
  M 191.75 110.71
  L 189.71 112.75"
/>
<path stroke="#d29b0b" vector-effect="non-scaling-stroke" d="
  M 189.71 112.75
  Q 179.73 87.64 158.27 71.26"
/>
<path stroke="#f5c30b" vector-effect="non-scaling-stroke" d="
  M 158.27 71.26
  Q 150.96 65.42 142.46 61.46
  A 1.18 0.89 39.1 0 0 141.53 61.43
  Q 140.78 61.83 140.57 62.75
  A 0.84 0.69 25.6 0 0 140.93 63.53
  Q 143.33 65.18 144.82 67.75
  Q 144.85 67.79 145.46 68.49
  Q 145.84 68.93 145.00 69.29"
/>
<path stroke="#fae353" vector-effect="non-scaling-stroke" d="
  M 145.00 69.29
  Q 142.42 66.86 139.78 66.15"
/>
<path stroke="#fae363" vector-effect="non-scaling-stroke" d="
  M 139.78 66.15
  Q 134.53 61.58 128.87 60.06"
/>
<path stroke="#fbe475" vector-effect="non-scaling-stroke" d="
  M 128.87 60.06
  Q 100.68 48.98 72.50 59.54"
/>
<path stroke="#fae363" vector-effect="non-scaling-stroke" d="
  M 72.50 59.54
  Q 65.93 61.79 60.21 65.75"
/>
<path stroke="#fae353" vector-effect="non-scaling-stroke" d="
  M 60.21 65.75
  L 56.29 68.50"
/>
<path stroke="#f5c30b" vector-effect="non-scaling-stroke" d="
  M 56.29 68.50
  C 56.04 66.31 62.11 62.78 63.83 61.75
  Q 64.21 61.52 64.50 61.07
  Q 65.43 59.63 67.04 58.93
  Q 67.56 58.70 67.12 58.44
  C 63.69 56.36 47.02 67.48 44.46 69.50"
/>
<path stroke="#efb40e" vector-effect="non-scaling-stroke" d="
  M 44.46 69.50
  L 39.75 72.96"
/>
<path stroke="#d29b0b" vector-effect="non-scaling-stroke" d="
  M 39.75 72.96
  Q 18.84 89.89 9.71 115.25"
/>
<path stroke="#f2c10e" vector-effect="non-scaling-stroke" d="
  M 9.71 115.25
  Q 8.45 115.09 7.27 115.50
  A 0.26 0.24 85.7 0 1 6.96 115.21
  Q 7.05 114.68 6.75 114.21"
/>
<path stroke="#fdfcd1" vector-effect="non-scaling-stroke" d="
  M 128.87 60.06
  Q 119.85 62.08 109.75 61.75
  Q 100.22 61.44 73.00 61.25
  A 0.97 0.69 -9.0 0 1 72.19 60.85
  Q 71.88 60.24 72.50 59.54"
/>
<path stroke="#f7db57" vector-effect="non-scaling-stroke" d="
  M 56.29 68.50
  L 54.46 70.00"
/>
<path stroke="#f7da4e" vector-effect="non-scaling-stroke" d="
  M 54.46 70.00
  L 51.71 72.75"
/>
<path stroke="#f7d93b" vector-effect="non-scaling-stroke" d="
  M 51.71 72.75
  Q 46.94 77.47 43.96 83.50"
/>
<path stroke="#f5c321" vector-effect="non-scaling-stroke" d="
  M 43.96 83.50
  C 35.72 82.11 29.88 86.49 26.54 93.36
  Q 24.49 97.60 25.71 102.49
  C 26.25 104.63 28.05 106.86 29.22 108.90
  Q 30.40 110.93 32.06 111.87
  Q 35.55 113.84 39.50 114.71"
/>
<path stroke="#f7c70a" vector-effect="non-scaling-stroke" d="
  M 39.50 114.71
  L 37.25 114.79"
/>
<path stroke="#f4c00d" vector-effect="non-scaling-stroke" d="
  M 37.25 114.79
  L 33.08 113.70
  A 0.39 0.28 25.5 0 0 32.74 113.76
  C 30.34 116.08 32.17 118.10 32.39 120.32
  Q 34.70 143.71 51.69 160.31
  Q 57.78 166.27 64.43 170.21"
/>
<path stroke="#795e08" vector-effect="non-scaling-stroke" d="
  M 64.43 170.21
  L 64.20 179.03"
/>
<path stroke="#efb511" vector-effect="non-scaling-stroke" d="
  M 64.20 179.03
  Q 49.23 170.57 38.75 156.96
  C 29.01 144.32 24.41 126.06 24.07 110.57
  Q 24.06 110.12 24.30 109.62
  Q 25.03 108.06 24.45 106.47
  A 1.38 1.14 50.5 0 1 24.45 105.54
  L 24.81 104.72
  A 1.81 1.52 55.9 0 0 24.91 103.76
  Q 24.00 98.52 26.50 92.75
  Q 27.38 90.71 26.71 87.50"
/>
<path stroke="#cf930f" vector-effect="non-scaling-stroke" d="
  M 26.71 87.50
  Q 32.73 79.78 40.04 73.25"
/>
<path stroke="#ecac12" vector-effect="non-scaling-stroke" d="
  M 40.04 73.25
  L 44.46 69.50"
/>
<path stroke="#fcfbaf" vector-effect="non-scaling-stroke" d="
  M 139.78 66.15
  Q 97.35 67.49 60.75 66.50
  Q 60.20 66.49 60.21 65.75"
/>
<path stroke="#cf930f" vector-effect="non-scaling-stroke" d="
  M 158.27 71.26
  L 165.54 78.50"
/>
<path stroke="#f0b710" vector-effect="non-scaling-stroke" d="
  M 165.54 78.50
  C 164.54 82.72 168.03 87.04 169.30 91.33
  A 1.82 1.19 -53.9 0 1 169.25 92.28
  Q 168.81 93.64 169.50 95.25
  C 171.20 99.23 170.94 103.39 171.16 107.27
  Q 172.16 124.88 165.44 140.81
  C 161.65 149.79 157.70 157.55 151.08 164.09
  C 149.84 165.31 148.39 167.26 146.54 168.54
  C 142.24 171.51 138.69 175.50 133.43 176.83
  A 0.99 0.98 87.5 0 1 132.22 175.72
  Q 132.41 174.45 132.04 173.50"
/>
<path stroke="#795e08" vector-effect="non-scaling-stroke" d="
  M 132.04 173.50
  L 132.06 168.45"
/>
<path stroke="#f4c00d" vector-effect="non-scaling-stroke" d="
  M 132.06 168.45
  Q 132.70 168.63 133.31 168.67
  C 136.69 168.94 143.85 162.12 146.06 159.36
  C 151.16 152.99 156.31 147.59 159.25 140.00
  C 164.40 126.72 166.61 109.95 162.31 96.39
  C 161.63 94.26 160.06 92.47 159.39 90.07
  Q 158.56 87.07 158.46 90.00"
/>
<path stroke="#f7d70a" vector-effect="non-scaling-stroke" d="
  M 158.46 90.00
  Q 158.25 89.97 158.21 89.75"
/>
<path stroke="#f7d823" vector-effect="non-scaling-stroke" d="
  M 158.21 89.75
  Q 157.14 84.26 154.34 80.72"
/>
<path stroke="#f6d935" vector-effect="non-scaling-stroke" d="
  M 154.34 80.72
  Q 153.73 78.32 152.54 77.50"
/>
<path stroke="#f7da44" vector-effect="non-scaling-stroke" d="
  M 152.54 77.50
  Q 150.85 74.72 148.56 72.92"
/>
<path stroke="#f7da4e" vector-effect="non-scaling-stroke" d="
  M 148.56 72.92
  L 146.29 70.50"
/>
<path stroke="#f7db57" vector-effect="non-scaling-stroke" d="
  M 146.29 70.50
  L 145.00 69.29"
/>
<path stroke="#fcfa96" vector-effect="non-scaling-stroke" d="
  M 146.29 70.50
  C 138.20 71.83 128.33 71.08 122.39 71.16
  C 112.94 71.30 102.43 70.32 93.16 71.66
  Q 89.72 72.16 86.25 72.24
  Q 85.80 72.25 85.32 72.00
  Q 83.73 71.19 81.99 71.61
  Q 81.47 71.73 81.02 71.61
  C 77.22 70.57 73.64 71.77 70.45 71.66
  C 67.83 71.57 55.47 71.91 54.46 70.00"
/>
<path stroke="#c98412" vector-effect="non-scaling-stroke" d="
  M 40.04 73.25
  Q 39.98 73.02 39.75 72.96"
/>
<path stroke="#fcf982" vector-effect="non-scaling-stroke" d="
  M 148.56 72.92
  C 130.98 73.97 112.99 72.69 94.25 74.04"
/>
<path stroke="#7e7d46" vector-effect="non-scaling-stroke" d="
  M 94.25 74.04
  Q 85.84 71.86 77.79 74.60"
/>
<path stroke="#fcf879" vector-effect="non-scaling-stroke" d="
  M 77.79 74.60
  Q 66.23 72.88 56.25 73.75
  Q 53.48 73.99 51.71 72.75"
/>
<path stroke="#cc9012" vector-effect="non-scaling-stroke" d="
  M 189.71 112.75
  Q 200.38 141.40 193.25 171.21"
/>
<path stroke="#c98412" vector-effect="non-scaling-stroke" d="
  M 193.25 171.21
  Q 183.13 208.09 151.25 228.96"
/>
<path stroke="#cf930f" vector-effect="non-scaling-stroke" d="
  M 151.25 228.96
  L 138.96 235.50"
/>
<path stroke="#d3af0b" vector-effect="non-scaling-stroke" d="
  M 138.96 235.50
  Q 129.37 239.45 119.25 241.71"
/>
<path stroke="#d09818" vector-effect="non-scaling-stroke" d="
  M 119.25 241.71
  Q 118.99 241.02 119.15 240.30
  A 0.77 0.68 2.2 0 1 119.80 239.77
  Q 125.39 239.15 123.50 233.21"
/>
<path stroke="#d3af0b" vector-effect="non-scaling-stroke" d="
  M 123.50 233.21
  Q 153.87 224.77 173.28 200.05"
/>
<path stroke="#d0a10d" vector-effect="non-scaling-stroke" d="
  M 173.28 200.05
  Q 180.91 190.82 185.17 179.43"
/>
<path stroke="#cc9012" vector-effect="non-scaling-stroke" d="
  M 185.17 179.43
  Q 187.49 175.42 188.45 170.39"
/>
<path stroke="#cb8a11" vector-effect="non-scaling-stroke" d="
  M 188.45 170.39
  Q 190.16 167.48 190.02 163.18"
/>
<path stroke="#c98114" vector-effect="non-scaling-stroke" d="
  M 190.02 163.18
  Q 193.74 150.02 192.07 135.73"
/>
<path stroke="#c98412" vector-effect="non-scaling-stroke" d="
  M 192.07 135.73
  Q 191.34 123.78 187.04 112.50"
/>
<path stroke="#cb8a11" vector-effect="non-scaling-stroke" d="
  M 187.04 112.50
  Q 181.88 97.80 172.04 85.75"
/>
<path stroke="#cd8f10" vector-effect="non-scaling-stroke" d="
  M 172.04 85.75
  L 165.54 78.50"
/>
<path stroke="#7e7b33" vector-effect="non-scaling-stroke" d="
  M 77.79 74.60
  Q 69.72 78.21 65.21 85.50"
/>
<path stroke="#fbf649" vector-effect="non-scaling-stroke" d="
  M 65.21 85.50
  Q 59.72 85.09 54.44 85.73
  A 1.15 1.13 79.2 0 0 53.48 87.16
  C 56.08 97.02 57.41 108.79 44.89 112.32"
/>
<path stroke="#f9e14c" vector-effect="non-scaling-stroke" d="
  M 44.89 112.32
  C 33.44 114.29 23.71 102.87 29.82 92.51
  C 32.13 88.62 35.17 87.23 39.33 85.48
  Q 40.81 84.86 42.39 85.18
  Q 43.56 85.41 43.96 83.50"
/>
<path stroke="#fdfab0" vector-effect="non-scaling-stroke" d="
  M 45.00 89.58
  A 3.98 3.90 50.7 0 0 42.76 89.33
  Q 32.66 91.20 32.61 100.14
  C 32.56 108.39 45.30 111.23 49.35 105.34
  C 53.12 99.85 51.32 92.32 45.00 89.58"
/>
<path stroke="#fbf86a" vector-effect="non-scaling-stroke" d="
  M 152.54 77.50
  Q 152.26 78.17 151.50 78.18
  Q 129.13 78.47 106.76 78.50
  Q 106.31 78.50 105.82 78.77
  L 104.00 79.79"
/>
<path stroke="#7e7d3c" vector-effect="non-scaling-stroke" d="
  M 104.00 79.79
  Q 99.72 75.93 94.25 74.04"
/>
<path stroke="#cc8d11" vector-effect="non-scaling-stroke" d="
  M 26.71 87.50
  Q 17.84 99.34 12.79 113.25"
/>
<path stroke="#ca8612" vector-effect="non-scaling-stroke" d="
  M 12.79 113.25
  Q 8.08 126.97 7.79 141.50"
/>
<path stroke="#c98114" vector-effect="non-scaling-stroke" d="
  M 7.79 141.50
  Q 7.27 158.44 12.97 174.23"
/>
<path stroke="#cc8d11" vector-effect="non-scaling-stroke" d="
  M 12.97 174.23
  Q 17.18 186.77 25.00 197.29"
/>
<path stroke="#d0a10d" vector-effect="non-scaling-stroke" d="
  M 25.00 197.29
  Q 30.89 205.86 38.73 212.74"
/>
<path stroke="#d3af0b" vector-effect="non-scaling-stroke" d="
  M 38.73 212.74
  Q 53.39 225.57 72.08 231.78"
/>
<path stroke="#d09818" vector-effect="non-scaling-stroke" d="
  M 72.08 231.78
  Q 68.62 236.54 73.22 238.39
  A 0.87 0.62 14.1 0 1 73.78 239.05
  Q 73.78 239.72 72.75 239.54"
/>
<path stroke="#d3af0b" vector-effect="non-scaling-stroke" d="
  M 72.75 239.54
  Q 64.39 237.06 56.51 233.08"
/>
<path stroke="#cc9012" vector-effect="non-scaling-stroke" d="
  M 56.51 233.08
  L 46.50 227.21"
/>
<path stroke="#c98412" vector-effect="non-scaling-stroke" d="
  M 46.50 227.21
  Q 7.05 199.45 4.21 150.75"
/>
<path stroke="#cc9012" vector-effect="non-scaling-stroke" d="
  M 4.21 150.75
  Q 3.66 132.46 9.71 115.25"
/>
<path stroke="#7d7b2e" vector-effect="non-scaling-stroke" d="
  M 104.00 79.79
  L 106.43 82.17"
/>
<path stroke="#7e7b1b" vector-effect="non-scaling-stroke" d="
  M 106.43 82.17
  Q 109.37 86.40 110.99 90.72"
/>
<path stroke="#7e7a02" vector-effect="non-scaling-stroke" d="
  M 110.99 90.72
  C 115.06 108.06 102.95 124.96 84.50 123.00
  C 69.50 121.41 59.84 108.13 62.25 93.04"
/>
<path stroke="#7e7b16" vector-effect="non-scaling-stroke" d="
  M 62.25 93.04
  L 65.21 85.50"
/>
<path stroke="#fbf649" vector-effect="non-scaling-stroke" d="
  M 154.34 80.72
  Q 138.66 81.52 129.81 81.19
  Q 127.66 81.11 126.56 81.31
  Q 126.00 81.42 125.58 81.33
  C 121.97 80.57 118.25 81.06 114.74 80.97
  Q 110.53 80.86 106.43 82.17"
/>
<path stroke="#ecae12" vector-effect="non-scaling-stroke" d="
  M 172.04 85.75
  C 173.10 91.87 174.27 97.34 175.05 104.03
  C 175.47 107.58 177.15 111.92 176.30 115.39
  Q 175.84 117.27 175.97 119.17
  C 176.41 125.45 173.10 137.28 171.50 141.00
  C 164.83 156.56 157.07 168.69 142.65 177.63
  Q 138.03 180.49 133.60 183.65
  A 1.07 0.75 -45.5 0 1 132.69 183.82
  Q 132.11 183.57 132.04 182.75"
/>
<path stroke="#775a08" vector-effect="non-scaling-stroke" d="
  M 132.04 182.75
  L 132.04 173.50"
/>
<path stroke="#fbf41d" vector-effect="non-scaling-stroke" d="
  M 158.21 89.75
  Q 146.05 90.42 133.89 89.86
  C 131.30 89.75 129.12 90.61 126.40 90.28
  Q 118.66 89.32 110.99 90.72"
/>
<path stroke="#f9e02f" vector-effect="non-scaling-stroke" d="
  M 44.89 112.32
  L 46.29 113.75"
/>
<path stroke="#f9df1b" vector-effect="non-scaling-stroke" d="
  M 46.29 113.75
  Q 45.87 114.26 45.21 114.50"
/>
<path stroke="#facf1b" vector-effect="non-scaling-stroke" d="
  M 45.21 114.50
  Q 43.81 114.18 43.03 115.09
  A 0.86 0.69 -60.3 0 1 42.27 115.39
  L 39.50 114.71"
/>
<path stroke="#fbf418" vector-effect="non-scaling-stroke" d="
  M 62.25 93.04
  L 58.87 92.71
  A 1.22 1.02 -86.2 0 0 57.75 93.89
  C 57.56 98.34 58.92 102.93 56.07 107.03
  C 55.11 108.41 54.42 110.59 52.54 111.64
  C 50.16 112.97 48.54 114.11 46.29 113.75"
/>
<path stroke="#e8a314" vector-effect="non-scaling-stroke" d="
  M 187.04 112.50
  L 185.33 119.76
  A 1.62 1.36 -18.6 0 1 184.85 120.55
  Q 183.33 121.91 184.72 125.01
  Q 185.68 127.14 184.21 128.97
  Q 183.20 130.22 183.23 132.75
  Q 183.24 133.27 183.02 133.70
  Q 179.29 140.94 176.08 148.42
  C 175.34 150.16 173.86 152.26 173.24 154.36
  C 171.84 159.12 170.07 162.08 166.98 165.63
  C 166.83 165.79 166.27 166.28 166.35 166.39
  A 0.48 0.21 55.1 0 1 166.44 166.84
  C 163.08 170.61 160.21 174.64 156.25 177.83
  Q 152.03 181.23 151.06 182.31
  Q 148.34 185.34 145.16 184.38"
/>
<path stroke="#75550a" vector-effect="non-scaling-stroke" d="
  M 145.16 184.38
  Q 144.62 182.46 142.73 182.67
  A 0.73 0.65 -86.0 0 0 142.15 183.24
  C 141.09 188.26 138.82 196.94 134.60 200.12
  Q 132.29 201.87 132.25 199.01
  L 132.04 182.75"
/>
<path stroke="#765809" vector-effect="non-scaling-stroke" d="
  M 64.20 179.03
  L 64.21 189.75"
/>
<path stroke="#eaa913" vector-effect="non-scaling-stroke" d="
  M 64.21 189.75
  Q 63.66 189.70 63.33 190.03
  Q 63.12 190.24 63.05 189.94
  C 62.72 188.63 47.05 181.88 44.62 177.66
  C 43.52 175.74 42.47 174.70 40.61 173.93
  C 37.43 172.61 35.43 170.41 33.69 167.49
  A 1.48 0.97 -64.8 0 1 33.56 166.58
  Q 33.72 165.51 32.87 164.66
  C 26.27 157.98 21.10 146.50 18.51 137.64
  C 17.00 132.45 15.12 126.52 14.50 121.25
  Q 13.95 116.59 12.79 113.25"
/>
<path stroke="#7b6205" vector-effect="non-scaling-stroke" d="
  M 132.06 168.45
  L 132.16 155.44
  A 0.55 0.54 -0.6 0 1 132.69 154.91
  L 144.44 154.68
  A 0.55 0.54 1.7 0 0 144.98 154.18
  C 145.13 152.61 145.76 149.65 143.25 150.21"
/>
<path stroke="#f9cc07" vector-effect="non-scaling-stroke" d="
  M 143.25 150.21
  Q 146.07 149.92 147.37 147.76
  C 154.25 136.28 158.35 127.95 159.00 113.75
  Q 159.12 111.17 158.45 109.46
  A 1.74 1.32 -55.1 0 1 158.41 108.53
  Q 158.66 107.43 157.75 106.71"
/>
<path stroke="#f9dc07" vector-effect="non-scaling-stroke" d="
  M 157.75 106.71
  Q 160.07 98.44 158.46 90.00"
/>
<path stroke="#fce304" vector-effect="non-scaling-stroke" d="
  M 157.75 106.71
  Q 150.54 124.39 133.22 131.90
  A 0.72 0.70 78.2 0 1 132.24 131.23
  L 132.21 128.75"
/>
<path stroke="#7e7a02" vector-effect="non-scaling-stroke" d="
  M 132.21 128.75
  L 132.00 100.24
  Q 131.99 99.24 131.69 100.19
  C 126.93 114.96 116.17 127.82 101.41 133.27
  A 0.81 0.69 -11.0 0 0 100.88 133.94
  L 100.75 138.87"
/>
<path stroke="#fce304" vector-effect="non-scaling-stroke" d="
  M 100.75 138.87
  L 95.79 140.00"
/>
<path stroke="#7e7a02" vector-effect="non-scaling-stroke" d="
  M 95.79 140.00
  L 95.75 136.05
  A 0.58 0.57 81.1 0 0 95.01 135.50
  Q 86.65 138.08 78.44 136.78"
/>
<path stroke="#fce304" vector-effect="non-scaling-stroke" d="
  M 78.44 136.78
  Q 59.06 131.05 46.74 115.20
  A 1.41 0.86 -4.8 0 0 45.94 114.80
  Q 45.54 114.74 45.21 114.50"
/>
<path stroke="#7e6a02" vector-effect="non-scaling-stroke" d="
  M 132.21 128.75
  L 132.00 149.52
  A 0.73 0.72 0.4 0 0 132.73 150.25
  L 143.25 150.21"
/>
<path stroke="#734f0b" vector-effect="non-scaling-stroke" d="
  M 145.16 184.38
  L 141.25 197.71"
/>
<path stroke="#734c0d" vector-effect="non-scaling-stroke" d="
  M 141.25 197.71
  Q 138.72 204.61 133.50 209.71"
/>
<path stroke="#765809" vector-effect="non-scaling-stroke" d="
  M 133.50 209.71
  Q 127.99 214.26 122.00 214.25
  Q 90.25 214.22 58.50 214.29"
/>
<path stroke="#7a6c06" vector-effect="non-scaling-stroke" d="
  M 58.50 214.29
  Q 57.05 214.58 55.96 213.75"
/>
<path stroke="#765809" vector-effect="non-scaling-stroke" d="
  M 55.96 213.75
  L 56.10 211.18
  A 0.61 0.59 0.5 0 1 56.69 210.62
  L 60.25 210.46"
/>
<path stroke="#734c0d" vector-effect="non-scaling-stroke" d="
  M 60.25 210.46
  L 63.70 210.47
  A 0.54 0.50 90.0 0 0 64.20 209.93
  L 64.21 200.00"
/>
<path stroke="#74510a" vector-effect="non-scaling-stroke" d="
  M 64.21 200.00
  L 64.21 189.75"
/>
<path stroke="#7b6205" vector-effect="non-scaling-stroke" d="
  M 64.43 170.21
  L 64.19 161.07"
/>
<path stroke="#7e6a02" vector-effect="non-scaling-stroke" d="
  M 64.19 161.07
  L 64.25 135.37
  A 0.63 0.63 -79.3 0 1 65.11 134.78
  Q 71.41 137.27 78.44 136.78"
/>
<path stroke="#7e6a02" vector-effect="non-scaling-stroke" d="
  M 95.79 140.00
  L 95.80 149.69
  A 0.55 0.49 89.0 0 0 96.31 150.24
  L 100.01 150.09
  A 0.59 0.55 89.5 0 0 100.54 149.51
  L 100.75 138.87"
/>
<path stroke="#74510a" vector-effect="non-scaling-stroke" d="
  M 96.04 189.00
  L 95.74 210.03
  A 0.54 0.53 0.0 0 0 96.28 210.56
  L 106.31 210.51
  Q 107.07 210.50 106.48 210.04
  C 99.39 204.49 100.82 198.45 100.71 190.50"
/>
<path stroke="#7c6604" vector-effect="non-scaling-stroke" d="
  M 100.71 190.50
  L 100.69 155.56
  A 0.59 0.52 -89.0 0 0 100.19 154.97
  L 96.31 154.77
  A 0.54 0.47 -89.0 0 0 95.82 155.31
  L 96.04 189.00"
/>
<path stroke="#f0b70e" vector-effect="non-scaling-stroke" d="
  M 100.71 190.50
  L 98.51 190.54
  Q 97.99 190.54 97.55 190.73
  Q 95.96 191.40 96.04 189.00"
/>
<path stroke="#e9aa15" vector-effect="non-scaling-stroke" d="
  M 196.96 174.00
  Q 195.52 173.40 195.99 172.02
  Q 196.11 171.66 195.83 171.90
  Q 194.30 173.22 193.25 171.21"
/>
<path stroke="#e69a17" vector-effect="non-scaling-stroke" d="
  M 192.07 135.73
  Q 191.54 138.52 190.26 140.97
  C 185.87 149.40 182.55 158.13 177.87 166.47
  C 176.82 168.33 175.27 169.85 174.24 171.64
  Q 170.30 178.47 163.67 182.91
  C 160.28 185.17 158.22 189.03 154.89 191.20
  Q 154.65 191.35 151.93 192.29
  C 149.64 193.08 148.46 195.23 145.95 196.31
  Q 145.54 196.49 145.19 196.89
  Q 143.67 198.65 141.25 197.71"
/>
<path stroke="#e79d17" vector-effect="non-scaling-stroke" d="
  M 64.21 200.00
  Q 63.83 199.47 63.86 198.81
  Q 63.88 198.48 63.64 198.72
  Q 63.20 199.17 62.75 198.71
  Q 62.28 198.25 61.97 198.13
  Q 55.36 195.61 49.33 191.95
  C 47.22 190.67 44.61 187.95 41.28 186.84
  Q 40.87 186.70 40.50 186.30
  Q 39.64 185.35 37.56 184.19
  C 33.25 181.77 31.85 177.47 28.30 174.19
  C 25.30 171.42 23.50 167.89 21.15 164.75
  C 16.17 158.08 12.27 148.79 8.75 140.28
  Q 8.49 139.64 8.27 140.22
  L 7.79 141.50"
/>
<path stroke="#f9cc07" vector-effect="non-scaling-stroke" d="
  M 37.25 114.79
  Q 36.05 116.14 37.03 116.60
  A 0.72 0.64 15.8 0 1 37.45 117.25
  C 37.29 119.57 38.49 121.43 38.88 123.18
  Q 42.78 140.82 55.29 153.67
  Q 55.37 153.76 58.27 157.21
  Q 60.60 159.99 64.19 161.07"
/>
<path stroke="#e9aa15" vector-effect="non-scaling-stroke" d="
  M 4.21 150.75
  Q 3.76 151.76 2.71 151.44
  A 1.15 1.06 36.7 0 0 1.84 151.53
  Q 0.49 152.32 0.00 150.69"
/>
<path stroke="#e8a016" vector-effect="non-scaling-stroke" d="
  M 190.02 163.18
  Q 180.16 179.12 163.94 193.94
  C 161.20 196.43 159.56 197.34 157.05 199.03
  Q 151.02 203.11 145.00 207.21"
/>
<path stroke="#734c0d" vector-effect="non-scaling-stroke" d="
  M 145.00 207.21
  Q 139.27 204.90 138.96 211.00"
/>
<path stroke="#e9a316" vector-effect="non-scaling-stroke" d="
  M 138.96 211.00
  Q 138.67 209.08 137.17 209.97
  Q 136.65 210.27 136.25 210.28
  Q 134.83 210.30 133.50 209.71"
/>
<path stroke="#e9a316" vector-effect="non-scaling-stroke" d="
  M 60.25 210.46
  Q 60.37 208.16 58.24 208.41
  Q 57.69 208.48 57.28 208.32
  Q 49.11 205.15 41.73 200.45
  A 0.79 0.09 79.8 0 1 41.53 199.77
  Q 41.48 199.51 41.00 199.25
  Q 31.35 193.96 23.51 184.94
  Q 23.23 184.61 22.72 184.38
  C 20.61 183.42 19.78 180.16 17.26 178.68
  A 1.15 1.13 8.9 0 1 16.72 177.95
  Q 16.02 174.96 12.97 174.23"
/>
<path stroke="#e9aa15" vector-effect="non-scaling-stroke" d="
  M 46.50 227.21
  Q 43.59 228.95 40.31 228.41
  A 0.48 0.43 5.8 0 0 39.75 228.81
  L 39.75 229.71"
/>
<path stroke="#ebb014" vector-effect="non-scaling-stroke" d="
  M 188.45 170.39
  Q 185.79 171.41 184.50 173.84
  Q 183.37 175.99 182.49 176.87
  C 177.07 182.31 172.52 188.42 166.72 193.53
  Q 163.15 196.68 156.41 200.89
  Q 151.02 204.25 145.71 207.75"
/>
<path stroke="#75550a" vector-effect="non-scaling-stroke" d="
  M 145.71 207.75
  L 145.00 207.21"
/>
<path stroke="#f0c710" vector-effect="non-scaling-stroke" d="
  M 185.17 179.43
  Q 177.73 185.74 176.19 188.19
  Q 175.03 190.03 170.94 193.44
  Q 164.66 198.66 158.12 203.55
  A 0.42 0.32 32.3 0 1 157.74 203.58
  C 157.43 203.47 157.42 203.49 157.14 203.68
  Q 151.96 207.24 146.64 210.48"
/>
<path stroke="#765b0a" vector-effect="non-scaling-stroke" d="
  M 146.64 210.48
  Q 146.98 209.20 145.71 207.75"
/>
<path stroke="#ecac12" vector-effect="non-scaling-stroke" d="
  M 157.29 231.75
  Q 158.46 229.86 156.49 230.16
  Q 156.10 230.21 155.53 230.07
  L 151.25 228.96"
/>
<path stroke="#f0c30f" vector-effect="non-scaling-stroke" d="
  M 55.96 213.75
  C 53.12 214.47 48.46 211.54 46.20 210.21
  C 41.17 207.27 37.23 205.34 33.15 202.30
  Q 32.90 202.12 32.26 201.91
  Q 31.60 201.70 31.47 201.05
  A 0.85 0.73 -89.2 0 0 30.95 200.43
  C 28.62 199.70 27.54 197.41 25.00 197.29"
/>
<path stroke="#f7e509" vector-effect="non-scaling-stroke" d="
  M 173.28 200.05
  Q 165.79 204.36 158.69 209.18
  Q 151.52 214.06 147.06 215.81
  Q 145.52 216.42 144.86 216.91
  Q 144.29 217.34 144.04 217.44
  Q 131.74 222.47 118.75 225.25
  Q 114.94 226.07 111.09 225.94
  C 103.05 225.68 95.04 225.79 86.99 225.52
  Q 86.54 225.50 86.07 225.74
  Q 84.33 226.65 82.41 226.05
  A 0.35 0.19 22.8 0 0 82.11 226.08
  Q 82.03 226.17 82.09 226.29
  A 0.21 0.17 69.0 0 1 82.00 226.57
  Q 79.30 227.28 76.76 226.39
  C 72.75 224.99 68.60 224.04 64.47 223.04
  C 62.92 222.67 61.53 221.53 59.84 221.18
  Q 56.94 220.58 56.29 220.32
  Q 47.41 216.78 38.73 212.74"
/>
<path stroke="#f0c30f" vector-effect="non-scaling-stroke" d="
  M 58.50 214.29
  C 63.74 218.56 69.39 219.27 76.75 220.75
  Q 86.28 222.67 90.73 222.99
  Q 116.78 224.84 140.45 214.24"
/>
<path stroke="#7a6c06" vector-effect="non-scaling-stroke" d="
  M 140.45 214.24
  Q 145.42 215.95 146.64 210.48"
/>
<path stroke="#f7dc13" vector-effect="non-scaling-stroke" d="
  M 123.50 233.21
  L 111.94 235.36
  A 1.39 1.38 14.7 0 0 111.13 235.83
  Q 109.58 237.69 107.00 238.50
  Q 96.49 241.82 87.89 236.26
  Q 86.02 235.06 84.13 234.73
  Q 77.94 233.64 72.08 231.78"
/>
<path stroke="#765809" vector-effect="non-scaling-stroke" d="
  M 140.45 214.24
  Q 138.92 212.18 138.96 211.00"
/>
<path stroke="#75550a" vector-effect="non-scaling-stroke" d="
  M 142.00 207.29
  C 137.17 208.69 140.89 215.18 141.25 211.25
  Q 141.52 208.28 141.75 207.71"
/>
<path stroke="#795e08" vector-effect="non-scaling-stroke" d="
  M 141.75 207.71
  Q 143.36 207.88 144.23 209.08
  A 0.94 0.74 -54.0 0 1 144.26 209.94
  Q 143.59 211.36 144.44 212.61
  A 0.41 0.40 -42.7 0 0 145.08 212.63
  C 147.17 210.15 144.79 206.14 142.00 207.29"
/>
<path stroke="#eeb211" vector-effect="non-scaling-stroke" d="
  M 141.75 207.71
  L 142.00 207.29"
/>
<path stroke="#734c0d" vector-effect="non-scaling-stroke" d="
  M 142.03 209.68
  Q 142.34 210.95 143.17 210.13
  A 1.01 0.93 -29.0 0 0 143.46 209.25
  Q 143.30 208.34 142.35 208.90
  A 0.71 0.70 67.4 0 0 142.03 209.68"
/>
<path stroke="#7b6205" vector-effect="non-scaling-stroke" d="
  M 142.43 213.65
  Q 144.80 214.00 143.27 211.43
  A 0.63 0.58 63.0 0 0 142.53 211.15
  Q 141.25 211.67 141.74 213.10
  A 0.86 0.83 -5.5 0 0 142.43 213.65"
/>
<path stroke="#f3d50d" vector-effect="non-scaling-stroke" d="
  M 56.51 233.08
  Q 53.17 234.97 50.50 234.50
  Q 48.66 234.17 48.00 235.29"
/>
<path stroke="#f6d70b" vector-effect="non-scaling-stroke" d="
  M 147.00 238.21
  L 147.34 237.39
  A 0.38 0.36 -74.2 0 0 147.07 236.88
  L 138.96 235.50"
/>
<path stroke="#f7dc13" vector-effect="non-scaling-stroke" d="
  M 119.25 241.71
  Q 95.70 246.32 72.75 239.54"
/>
</g>
<path fill="#f8cb07" d="
  M 191.75 110.71
  L 189.71 112.75
  Q 179.73 87.64 158.27 71.26
  Q 150.96 65.42 142.46 61.46
  A 1.18 0.89 39.1 0 0 141.53 61.43
  Q 140.78 61.83 140.57 62.75
  A 0.84 0.69 25.6 0 0 140.93 63.53
  Q 143.33 65.18 144.82 67.75
  Q 144.85 67.79 145.46 68.49
  Q 145.84 68.93 145.00 69.29
  Q 142.42 66.86 139.78 66.15
  Q 134.53 61.58 128.87 60.06
  Q 100.68 48.98 72.50 59.54
  Q 65.93 61.79 60.21 65.75
  L 56.29 68.50
  C 56.04 66.31 62.11 62.78 63.83 61.75
  Q 64.21 61.52 64.50 61.07
  Q 65.43 59.63 67.04 58.93
  Q 67.56 58.70 67.12 58.44
  C 63.69 56.36 47.02 67.48 44.46 69.50
  L 39.75 72.96
  Q 18.84 89.89 9.71 115.25
  Q 8.45 115.09 7.27 115.50
  A 0.26 0.24 85.7 0 1 6.96 115.21
  Q 7.05 114.68 6.75 114.21
  Q 14.21 94.39 29.24 79.49
  C 79.58 29.58 163.75 45.44 191.75 110.71
  Z"
/>
<path fill="#fefde2" d="
  M 128.87 60.06
  Q 119.85 62.08 109.75 61.75
  Q 100.22 61.44 73.00 61.25
  A 0.97 0.69 -9.0 0 1 72.19 60.85
  Q 71.88 60.24 72.50 59.54
  Q 100.68 48.98 128.87 60.06
  Z"
/>
<path fill="#f2bb0f" d="
  M 56.29 68.50
  L 54.46 70.00
  L 51.71 72.75
  Q 46.94 77.47 43.96 83.50
  C 35.72 82.11 29.88 86.49 26.54 93.36
  Q 24.49 97.60 25.71 102.49
  C 26.25 104.63 28.05 106.86 29.22 108.90
  Q 30.40 110.93 32.06 111.87
  Q 35.55 113.84 39.50 114.71
  L 37.25 114.79
  L 33.08 113.70
  A 0.39 0.28 25.5 0 0 32.74 113.76
  C 30.34 116.08 32.17 118.10 32.39 120.32
  Q 34.70 143.71 51.69 160.31
  Q 57.78 166.27 64.43 170.21
  L 64.20 179.03
  Q 49.23 170.57 38.75 156.96
  C 29.01 144.32 24.41 126.06 24.07 110.57
  Q 24.06 110.12 24.30 109.62
  Q 25.03 108.06 24.45 106.47
  A 1.38 1.14 50.5 0 1 24.45 105.54
  L 24.81 104.72
  A 1.81 1.52 55.9 0 0 24.91 103.76
  Q 24.00 98.52 26.50 92.75
  Q 27.38 90.71 26.71 87.50
  Q 32.73 79.78 40.04 73.25
  L 44.46 69.50
  C 47.02 67.48 63.69 56.36 67.12 58.44
  Q 67.56 58.70 67.04 58.93
  Q 65.43 59.63 64.50 61.07
  Q 64.21 61.52 63.83 61.75
  C 62.11 62.78 56.04 66.31 56.29 68.50
  Z"
/>
<path fill="#fcfbbf" d="
  M 72.50 59.54
  Q 71.88 60.24 72.19 60.85
  A 0.97 0.69 -9.0 0 0 73.00 61.25
  Q 100.22 61.44 109.75 61.75
  Q 119.85 62.08 128.87 60.06
  Q 134.53 61.58 139.78 66.15
  Q 97.35 67.49 60.75 66.50
  Q 60.20 66.49 60.21 65.75
  Q 65.93 61.79 72.50 59.54
  Z"
/>
<path fill="#f2bb0f" d="
  M 158.27 71.26
  L 165.54 78.50
  C 164.54 82.72 168.03 87.04 169.30 91.33
  A 1.82 1.19 -53.9 0 1 169.25 92.28
  Q 168.81 93.64 169.50 95.25
  C 171.20 99.23 170.94 103.39 171.16 107.27
  Q 172.16 124.88 165.44 140.81
  C 161.65 149.79 157.70 157.55 151.08 164.09
  C 149.84 165.31 148.39 167.26 146.54 168.54
  C 142.24 171.51 138.69 175.50 133.43 176.83
  A 0.99 0.98 87.5 0 1 132.22 175.72
  Q 132.41 174.45 132.04 173.50
  L 132.06 168.45
  Q 132.70 168.63 133.31 168.67
  C 136.69 168.94 143.85 162.12 146.06 159.36
  C 151.16 152.99 156.31 147.59 159.25 140.00
  C 164.40 126.72 166.61 109.95 162.31 96.39
  C 161.63 94.26 160.06 92.47 159.39 90.07
  Q 158.56 87.07 158.46 90.00
  Q 158.25 89.97 158.21 89.75
  Q 157.14 84.26 154.34 80.72
  Q 153.73 78.32 152.54 77.50
  Q 150.85 74.72 148.56 72.92
  L 146.29 70.50
  L 145.00 69.29
  Q 145.84 68.93 145.46 68.49
  Q 144.85 67.79 144.82 67.75
  Q 143.33 65.18 140.93 63.53
  A 0.84 0.69 25.6 0 1 140.57 62.75
  Q 140.78 61.83 141.53 61.43
  A 1.18 0.89 39.1 0 1 142.46 61.46
  Q 150.96 65.42 158.27 71.26
  Z"
/>
<path fill="#fcfb9f" d="
  M 139.78 66.15
  Q 142.42 66.86 145.00 69.29
  L 146.29 70.50
  C 138.20 71.83 128.33 71.08 122.39 71.16
  C 112.94 71.30 102.43 70.32 93.16 71.66
  Q 89.72 72.16 86.25 72.24
  Q 85.80 72.25 85.32 72.00
  Q 83.73 71.19 81.99 71.61
  Q 81.47 71.73 81.02 71.61
  C 77.22 70.57 73.64 71.77 70.45 71.66
  C 67.83 71.57 55.47 71.91 54.46 70.00
  L 56.29 68.50
  L 60.21 65.75
  Q 60.20 66.49 60.75 66.50
  Q 97.35 67.49 139.78 66.15
  Z"
/>
<path fill="#e69d15" d="
  M 44.46 69.50
  L 40.04 73.25
  Q 39.98 73.02 39.75 72.96
  L 44.46 69.50
  Z"
/>
<path fill="#fcf98c" d="
  M 54.46 70.00
  C 55.47 71.91 67.83 71.57 70.45 71.66
  C 73.64 71.77 77.22 70.57 81.02 71.61
  Q 81.47 71.73 81.99 71.61
  Q 83.73 71.19 85.32 72.00
  Q 85.80 72.25 86.25 72.24
  Q 89.72 72.16 93.16 71.66
  C 102.43 70.32 112.94 71.30 122.39 71.16
  C 128.33 71.08 138.20 71.83 146.29 70.50
  L 148.56 72.92
  C 130.98 73.97 112.99 72.69 94.25 74.04
  Q 85.84 71.86 77.79 74.60
  Q 66.23 72.88 56.25 73.75
  Q 53.48 73.99 51.71 72.75
  L 54.46 70.00
  Z"
/>
<path fill="#ac6a0f" d="
  M 158.27 71.26
  Q 179.73 87.64 189.71 112.75
  Q 200.38 141.40 193.25 171.21
  Q 183.13 208.09 151.25 228.96
  L 138.96 235.50
  Q 129.37 239.45 119.25 241.71
  Q 118.99 241.02 119.15 240.30
  A 0.77 0.68 2.2 0 1 119.80 239.77
  Q 125.39 239.15 123.50 233.21
  Q 153.87 224.77 173.28 200.05
  Q 180.91 190.82 185.17 179.43
  Q 187.49 175.42 188.45 170.39
  Q 190.16 167.48 190.02 163.18
  Q 193.74 150.02 192.07 135.73
  Q 191.34 123.78 187.04 112.50
  Q 181.88 97.80 172.04 85.75
  L 165.54 78.50
  L 158.27 71.26
  Z"
/>
<path fill="#fbf666" d="
  M 51.71 72.75
  Q 53.48 73.99 56.25 73.75
  Q 66.23 72.88 77.79 74.60
  Q 69.72 78.21 65.21 85.50
  Q 59.72 85.09 54.44 85.73
  A 1.15 1.13 79.2 0 0 53.48 87.16
  C 56.08 97.02 57.41 108.79 44.89 112.32
  C 33.44 114.29 23.71 102.87 29.82 92.51
  C 32.13 88.62 35.17 87.23 39.33 85.48
  Q 40.81 84.86 42.39 85.18
  Q 43.56 85.41 43.96 83.50
  Q 46.94 77.47 51.71 72.75
  Z
  M 45.00 89.58
  A 3.98 3.90 50.7 0 0 42.76 89.33
  Q 32.66 91.20 32.61 100.14
  C 32.56 108.39 45.30 111.23 49.35 105.34
  C 53.12 99.85 51.32 92.32 45.00 89.58
  Z"
/>
<path fill="#fcf978" d="
  M 148.56 72.92
  Q 150.85 74.72 152.54 77.50
  Q 152.26 78.17 151.50 78.18
  Q 129.13 78.47 106.76 78.50
  Q 106.31 78.50 105.82 78.77
  L 104.00 79.79
  Q 99.72 75.93 94.25 74.04
  C 112.99 72.69 130.98 73.97 148.56 72.92
  Z"
/>
<path fill="#ac6a0f" d="
  M 39.75 72.96
  Q 39.98 73.02 40.04 73.25
  Q 32.73 79.78 26.71 87.50
  Q 17.84 99.34 12.79 113.25
  Q 8.08 126.97 7.79 141.50
  Q 7.27 158.44 12.97 174.23
  Q 17.18 186.77 25.00 197.29
  Q 30.89 205.86 38.73 212.74
  Q 53.39 225.57 72.08 231.78
  Q 68.62 236.54 73.22 238.39
  A 0.87 0.62 14.1 0 1 73.78 239.05
  Q 73.78 239.72 72.75 239.54
  Q 64.39 237.06 56.51 233.08
  L 46.50 227.21
  Q 7.05 199.45 4.21 150.75
  Q 3.66 132.46 9.71 115.25
  Q 18.84 89.89 39.75 72.96
  Z"
/>
<path fill="#000000" d="
  M 94.25 74.04
  Q 99.72 75.93 104.00 79.79
  L 106.43 82.17
  Q 109.37 86.40 110.99 90.72
  C 115.06 108.06 102.95 124.96 84.50 123.00
  C 69.50 121.41 59.84 108.13 62.25 93.04
  L 65.21 85.50
  Q 69.72 78.21 77.79 74.60
  Q 85.84 71.86 94.25 74.04
  Z"
/>
<path fill="#faf65b" d="
  M 152.54 77.50
  Q 153.73 78.32 154.34 80.72
  Q 138.66 81.52 129.81 81.19
  Q 127.66 81.11 126.56 81.31
  Q 126.00 81.42 125.58 81.33
  C 121.97 80.57 118.25 81.06 114.74 80.97
  Q 110.53 80.86 106.43 82.17
  L 104.00 79.79
  L 105.82 78.77
  Q 106.31 78.50 106.76 78.50
  Q 129.13 78.47 151.50 78.18
  Q 152.26 78.17 152.54 77.50
  Z"
/>
<path fill="#eeb310" d="
  M 165.54 78.50
  L 172.04 85.75
  C 173.10 91.87 174.27 97.34 175.05 104.03
  C 175.47 107.58 177.15 111.92 176.30 115.39
  Q 175.84 117.27 175.97 119.17
  C 176.41 125.45 173.10 137.28 171.50 141.00
  C 164.83 156.56 157.07 168.69 142.65 177.63
  Q 138.03 180.49 133.60 183.65
  A 1.07 0.75 -45.5 0 1 132.69 183.82
  Q 132.11 183.57 132.04 182.75
  L 132.04 173.50
  Q 132.41 174.45 132.22 175.72
  A 0.99 0.98 87.5 0 0 133.43 176.83
  C 138.69 175.50 142.24 171.51 146.54 168.54
  C 148.39 167.26 149.84 165.31 151.08 164.09
  C 157.70 157.55 161.65 149.79 165.44 140.81
  Q 172.16 124.88 171.16 107.27
  C 170.94 103.39 171.20 99.23 169.50 95.25
  Q 168.81 93.64 169.25 92.28
  A 1.82 1.19 -53.9 0 0 169.30 91.33
  C 168.03 87.04 164.54 82.72 165.54 78.50
  Z"
/>
<path fill="#fbf536" d="
  M 154.34 80.72
  Q 157.14 84.26 158.21 89.75
  Q 146.05 90.42 133.89 89.86
  C 131.30 89.75 129.12 90.61 126.40 90.28
  Q 118.66 89.32 110.99 90.72
  Q 109.37 86.40 106.43 82.17
  Q 110.53 80.86 114.74 80.97
  C 118.25 81.06 121.97 80.57 125.58 81.33
  Q 126.00 81.42 126.56 81.31
  Q 127.66 81.11 129.81 81.19
  Q 138.66 81.52 154.34 80.72
  Z"
/>
<path fill="#f7cb32" d="
  M 43.96 83.50
  Q 43.56 85.41 42.39 85.18
  Q 40.81 84.86 39.33 85.48
  C 35.17 87.23 32.13 88.62 29.82 92.51
  C 23.71 102.87 33.44 114.29 44.89 112.32
  L 46.29 113.75
  Q 45.87 114.26 45.21 114.50
  Q 43.81 114.18 43.03 115.09
  A 0.86 0.69 -60.3 0 1 42.27 115.39
  L 39.50 114.71
  Q 35.55 113.84 32.06 111.87
  Q 30.40 110.93 29.22 108.90
  C 28.05 106.86 26.25 104.63 25.71 102.49
  Q 24.49 97.60 26.54 93.36
  C 29.88 86.49 35.72 82.11 43.96 83.50
  Z"
/>
<path fill="#fbf52c" d="
  M 65.21 85.50
  L 62.25 93.04
  L 58.87 92.71
  A 1.22 1.02 -86.2 0 0 57.75 93.89
  C 57.56 98.34 58.92 102.93 56.07 107.03
  C 55.11 108.41 54.42 110.59 52.54 111.64
  C 50.16 112.97 48.54 114.11 46.29 113.75
  L 44.89 112.32
  C 57.41 108.79 56.08 97.02 53.48 87.16
  A 1.15 1.13 79.2 0 1 54.44 85.73
  Q 59.72 85.09 65.21 85.50
  Z"
/>
<path fill="#eaa913" d="
  M 172.04 85.75
  Q 181.88 97.80 187.04 112.50
  L 185.33 119.76
  A 1.62 1.36 -18.6 0 1 184.85 120.55
  Q 183.33 121.91 184.72 125.01
  Q 185.68 127.14 184.21 128.97
  Q 183.20 130.22 183.23 132.75
  Q 183.24 133.27 183.02 133.70
  Q 179.29 140.94 176.08 148.42
  C 175.34 150.16 173.86 152.26 173.24 154.36
  C 171.84 159.12 170.07 162.08 166.98 165.63
  C 166.83 165.79 166.27 166.28 166.35 166.39
  A 0.48 0.21 55.1 0 1 166.44 166.84
  C 163.08 170.61 160.21 174.64 156.25 177.83
  Q 152.03 181.23 151.06 182.31
  Q 148.34 185.34 145.16 184.38
  Q 144.62 182.46 142.73 182.67
  A 0.73 0.65 -86.0 0 0 142.15 183.24
  C 141.09 188.26 138.82 196.94 134.60 200.12
  Q 132.29 201.87 132.25 199.01
  L 132.04 182.75
  Q 132.11 183.57 132.69 183.82
  A 1.07 0.75 -45.5 0 0 133.60 183.65
  Q 138.03 180.49 142.65 177.63
  C 157.07 168.69 164.83 156.56 171.50 141.00
  C 173.10 137.28 176.41 125.45 175.97 119.17
  Q 175.84 117.27 176.30 115.39
  C 177.15 111.92 175.47 107.58 175.05 104.03
  C 174.27 97.34 173.10 91.87 172.04 85.75
  Z"
/>
<path fill="#ecaf12" d="
  M 26.71 87.50
  Q 27.38 90.71 26.50 92.75
  Q 24.00 98.52 24.91 103.76
  A 1.81 1.52 55.9 0 1 24.81 104.72
  L 24.45 105.54
  A 1.38 1.14 50.5 0 0 24.45 106.47
  Q 25.03 108.06 24.30 109.62
  Q 24.06 110.12 24.07 110.57
  C 24.41 126.06 29.01 144.32 38.75 156.96
  Q 49.23 170.57 64.20 179.03
  L 64.21 189.75
  Q 63.66 189.70 63.33 190.03
  Q 63.12 190.24 63.05 189.94
  C 62.72 188.63 47.05 181.88 44.62 177.66
  C 43.52 175.74 42.47 174.70 40.61 173.93
  C 37.43 172.61 35.43 170.41 33.69 167.49
  A 1.48 0.97 -64.8 0 1 33.56 166.58
  Q 33.72 165.51 32.87 164.66
  C 26.27 157.98 21.10 146.50 18.51 137.64
  C 17.00 132.45 15.12 126.52 14.50 121.25
  Q 13.95 116.59 12.79 113.25
  Q 17.84 99.34 26.71 87.50
  Z"
/>
<path fill="#f6c40a" d="
  M 132.06 168.45
  L 132.16 155.44
  A 0.55 0.54 -0.6 0 1 132.69 154.91
  L 144.44 154.68
  A 0.55 0.54 1.7 0 0 144.98 154.18
  C 145.13 152.61 145.76 149.65 143.25 150.21
  Q 146.07 149.92 147.37 147.76
  C 154.25 136.28 158.35 127.95 159.00 113.75
  Q 159.12 111.17 158.45 109.46
  A 1.74 1.32 -55.1 0 1 158.41 108.53
  Q 158.66 107.43 157.75 106.71
  Q 160.07 98.44 158.46 90.00
  Q 158.56 87.07 159.39 90.07
  C 160.06 92.47 161.63 94.26 162.31 96.39
  C 166.61 109.95 164.40 126.72 159.25 140.00
  C 156.31 147.59 151.16 152.99 146.06 159.36
  C 143.85 162.12 136.69 168.94 133.31 168.67
  Q 132.70 168.63 132.06 168.45
  Z"
/>
<path fill="#fefefa" d="
  M 45.00 89.58
  C 51.32 92.32 53.12 99.85 49.35 105.34
  C 45.30 111.23 32.56 108.39 32.61 100.14
  Q 32.66 91.20 42.76 89.33
  A 3.98 3.90 50.7 0 1 45.00 89.58
  Z"
/>
<path fill="#fbf304" d="
  M 158.21 89.75
  Q 158.25 89.97 158.46 90.00
  Q 160.07 98.44 157.75 106.71
  Q 150.54 124.39 133.22 131.90
  A 0.72 0.70 78.2 0 1 132.24 131.23
  L 132.21 128.75
  L 132.00 100.24
  Q 131.99 99.24 131.69 100.19
  C 126.93 114.96 116.17 127.82 101.41 133.27
  A 0.81 0.69 -11.0 0 0 100.88 133.94
  L 100.75 138.87
  L 95.79 140.00
  L 95.75 136.05
  A 0.58 0.57 81.1 0 0 95.01 135.50
  Q 86.65 138.08 78.44 136.78
  Q 59.06 131.05 46.74 115.20
  A 1.41 0.86 -4.8 0 0 45.94 114.80
  Q 45.54 114.74 45.21 114.50
  Q 45.87 114.26 46.29 113.75
  C 48.54 114.11 50.16 112.97 52.54 111.64
  C 54.42 110.59 55.11 108.41 56.07 107.03
  C 58.92 102.93 57.56 98.34 57.75 93.89
  A 1.22 1.02 -86.2 0 1 58.87 92.71
  L 62.25 93.04
  C 59.84 108.13 69.50 121.41 84.50 123.00
  C 102.95 124.96 115.06 108.06 110.99 90.72
  Q 118.66 89.32 126.40 90.28
  C 129.12 90.61 131.30 89.75 133.89 89.86
  Q 146.05 90.42 158.21 89.75
  Z"
/>
<path fill="#000000" d="
  M 132.21 128.75
  L 132.00 149.52
  A 0.73 0.72 0.4 0 0 132.73 150.25
  L 143.25 150.21
  C 145.76 149.65 145.13 152.61 144.98 154.18
  A 0.55 0.54 1.7 0 1 144.44 154.68
  L 132.69 154.91
  A 0.55 0.54 -0.6 0 0 132.16 155.44
  L 132.06 168.45
  L 132.04 173.50
  L 132.04 182.75
  L 132.25 199.01
  Q 132.29 201.87 134.60 200.12
  C 138.82 196.94 141.09 188.26 142.15 183.24
  A 0.73 0.65 -86.0 0 1 142.73 182.67
  Q 144.62 182.46 145.16 184.38
  L 141.25 197.71
  Q 138.72 204.61 133.50 209.71
  Q 127.99 214.26 122.00 214.25
  Q 90.25 214.22 58.50 214.29
  Q 57.05 214.58 55.96 213.75
  L 56.10 211.18
  A 0.61 0.59 0.5 0 1 56.69 210.62
  L 60.25 210.46
  L 63.70 210.47
  A 0.54 0.50 90.0 0 0 64.20 209.93
  L 64.21 200.00
  L 64.21 189.75
  L 64.20 179.03
  L 64.43 170.21
  L 64.19 161.07
  L 64.25 135.37
  A 0.63 0.63 -79.3 0 1 65.11 134.78
  Q 71.41 137.27 78.44 136.78
  Q 86.65 138.08 95.01 135.50
  A 0.58 0.57 81.1 0 1 95.75 136.05
  L 95.79 140.00
  L 95.80 149.69
  A 0.55 0.49 89.0 0 0 96.31 150.24
  L 100.01 150.09
  A 0.59 0.55 89.5 0 0 100.54 149.51
  L 100.75 138.87
  L 100.88 133.94
  A 0.81 0.69 -11.0 0 1 101.41 133.27
  C 116.17 127.82 126.93 114.96 131.69 100.19
  Q 131.99 99.24 132.00 100.24
  L 132.21 128.75
  Z
  M 96.04 189.00
  L 95.74 210.03
  A 0.54 0.53 0.0 0 0 96.28 210.56
  L 106.31 210.51
  Q 107.07 210.50 106.48 210.04
  C 99.39 204.49 100.82 198.45 100.71 190.50
  L 100.69 155.56
  A 0.59 0.52 -89.0 0 0 100.19 154.97
  L 96.31 154.77
  A 0.54 0.47 -89.0 0 0 95.82 155.31
  L 96.04 189.00
  Z"
/>
<path fill="#000000" d="
  M 434.18 133.39
  Q 436.08 135.70 436.10 132.72
  L 436.25 108.09
  A 1.11 1.09 -6.9 0 0 434.88 107.03
  C 434.26 107.18 428.59 107.66 430.87 105.33
  A 1.30 1.04 18.6 0 1 431.75 105.01
  Q 438.29 105.19 444.83 104.24
  A 0.81 0.80 85.7 0 1 445.75 105.04
  L 445.75 161.56
  A 0.72 0.69 0.4 0 0 446.46 162.25
  L 450.69 162.29
  A 0.69 0.65 -6.0 0 1 451.34 162.79
  C 451.80 164.72 449.91 164.26 448.70 164.24
  Q 442.73 164.10 437.55 164.88
  A 1.20 1.20 -0.6 0 1 436.18 163.54
  Q 436.87 158.07 433.99 161.25
  C 427.89 167.96 417.19 166.19 412.31 159.19
  C 403.90 147.10 410.28 127.26 427.24 129.33
  Q 431.25 129.82 434.18 133.39
  Z
  M 420.65 133.07
  C 417.71 138.11 418.90 151.56 419.23 157.50
  C 419.63 164.49 426.93 164.54 431.44 161.44
  Q 436.39 158.02 436.30 151.00
  C 436.21 144.13 437.45 138.02 431.37 133.15
  Q 427.22 129.82 422.39 131.61
  A 3.38 3.38 -85.0 0 0 420.65 133.07
  Z"
/>
<path fill="#000000" d="
  M 487.00 108.05
  A 0.82 0.81 89.3 0 0 486.17 107.23
  C 485.49 107.24 478.54 107.80 481.12 105.31
  A 1.36 1.03 18.3 0 1 482.00 105.01
  Q 488.65 105.19 495.07 104.28
  A 0.81 0.81 -4.3 0 1 496.00 105.08
  Q 496.00 119.37 496.00 133.25
  C 496.00 134.08 496.72 135.01 497.44 134.19
  C 500.06 131.16 502.21 129.44 506.34 129.15
  C 525.59 127.78 529.78 155.07 514.99 163.44
  C 509.19 166.73 503.05 166.07 498.41 161.34
  C 495.50 158.38 496.15 161.67 496.47 163.49
  A 1.24 1.20 -3.1 0 1 495.17 164.89
  L 481.56 164.18
  A 0.92 0.73 -7.9 0 1 480.82 163.74
  C 479.80 161.48 485.07 162.25 486.13 162.20
  A 0.68 0.66 89.1 0 0 486.76 161.53
  L 487.00 108.05
  Z
  M 513.25 136.50
  C 510.61 125.01 496.44 133.11 496.32 141.75
  C 496.20 150.42 494.47 159.69 504.70 163.03
  C 513.81 166.01 513.43 156.04 513.53 150.74
  Q 513.76 138.73 513.25 136.50
  Z"
/>
<path fill="#000000" d="
  M 545.80 162.02
  L 550.76 162.28
  A 0.93 0.61 -5.1 0 1 551.51 162.68
  Q 551.76 163.24 551.50 163.83
  A 0.86 0.68 8.9 0 1 550.75 164.25
  L 530.01 164.25
  A 1.25 0.84 -13.0 0 1 529.14 163.92
  Q 528.66 163.35 529.02 162.71
  A 1.01 0.76 9.6 0 1 529.81 162.30
  L 535.05 162.19
  A 0.71 0.71 -0.4 0 0 535.75 161.48
  L 535.75 107.79
  A 0.77 0.77 -6.1 0 0 534.82 107.04
  C 534.35 107.14 526.59 107.87 529.17 105.38
  A 1.47 0.89 11.9 0 1 530.06 105.07
  L 544.44 104.39
  A 0.78 0.75 -1.1 0 1 545.25 105.14
  L 545.31 161.45
  A 0.57 0.51 -89.0 0 0 545.80 162.02
  Z"
/>
<path fill="#fcd304" d="
  M 143.25 150.21
  L 132.73 150.25
  A 0.73 0.72 0.4 0 1 132.00 149.52
  L 132.21 128.75
  L 132.24 131.23
  A 0.72 0.70 78.2 0 0 133.22 131.90
  Q 150.54 124.39 157.75 106.71
  Q 158.66 107.43 158.41 108.53
  A 1.74 1.32 -55.1 0 0 158.45 109.46
  Q 159.12 111.17 159.00 113.75
  C 158.35 127.95 154.25 136.28 147.37 147.76
  Q 146.07 149.92 143.25 150.21
  Z"
/>
<circle fill="#000000" cx="225.77" cy="112.09" r="4.98"/>
<circle fill="#000000" cx="465.89" cy="112.08" r="4.97"/>
<path fill="#ecb614" d="
  M 191.75 110.71
  Q 204.97 141.39 196.96 174.00
  Q 195.52 173.40 195.99 172.02
  Q 196.11 171.66 195.83 171.90
  Q 194.30 173.22 193.25 171.21
  Q 200.38 141.40 189.71 112.75
  L 191.75 110.71
  Z"
/>
<path fill="#e69d15" d="
  M 187.04 112.50
  Q 191.34 123.78 192.07 135.73
  Q 191.54 138.52 190.26 140.97
  C 185.87 149.40 182.55 158.13 177.87 166.47
  C 176.82 168.33 175.27 169.85 174.24 171.64
  Q 170.30 178.47 163.67 182.91
  C 160.28 185.17 158.22 189.03 154.89 191.20
  Q 154.65 191.35 151.93 192.29
  C 149.64 193.08 148.46 195.23 145.95 196.31
  Q 145.54 196.49 145.19 196.89
  Q 143.67 198.65 141.25 197.71
  L 145.16 184.38
  Q 148.34 185.34 151.06 182.31
  Q 152.03 181.23 156.25 177.83
  C 160.21 174.64 163.08 170.61 166.44 166.84
  A 0.48 0.21 55.1 0 0 166.35 166.39
  C 166.27 166.28 166.83 165.79 166.98 165.63
  C 170.07 162.08 171.84 159.12 173.24 154.36
  C 173.86 152.26 175.34 150.16 176.08 148.42
  Q 179.29 140.94 183.02 133.70
  Q 183.24 133.27 183.23 132.75
  Q 183.20 130.22 184.21 128.97
  Q 185.68 127.14 184.72 125.01
  Q 183.33 121.91 184.85 120.55
  A 1.62 1.36 -18.6 0 0 185.33 119.76
  L 187.04 112.50
  Z"
/>
<path fill="#e8a214" d="
  M 12.79 113.25
  Q 13.95 116.59 14.50 121.25
  C 15.12 126.52 17.00 132.45 18.51 137.64
  C 21.10 146.50 26.27 157.98 32.87 164.66
  Q 33.72 165.51 33.56 166.58
  A 1.48 0.97 -64.8 0 0 33.69 167.49
  C 35.43 170.41 37.43 172.61 40.61 173.93
  C 42.47 174.70 43.52 175.74 44.62 177.66
  C 47.05 181.88 62.72 188.63 63.05 189.94
  Q 63.12 190.24 63.33 190.03
  Q 63.66 189.70 64.21 189.75
  L 64.21 200.00
  Q 63.83 199.47 63.86 198.81
  Q 63.88 198.48 63.64 198.72
  Q 63.20 199.17 62.75 198.71
  Q 62.28 198.25 61.97 198.13
  Q 55.36 195.61 49.33 191.95
  C 47.22 190.67 44.61 187.95 41.28 186.84
  Q 40.87 186.70 40.50 186.30
  Q 39.64 185.35 37.56 184.19
  C 33.25 181.77 31.85 177.47 28.30 174.19
  C 25.30 171.42 23.50 167.89 21.15 164.75
  C 16.17 158.08 12.27 148.79 8.75 140.28
  Q 8.49 139.64 8.27 140.22
  L 7.79 141.50
  Q 8.08 126.97 12.79 113.25
  Z"
/>
<path fill="#f6c40a" d="
  M 37.25 114.79
  Q 36.05 116.14 37.03 116.60
  A 0.72 0.64 15.8 0 1 37.45 117.25
  C 37.29 119.57 38.49 121.43 38.88 123.18
  Q 42.78 140.82 55.29 153.67
  Q 55.37 153.76 58.27 157.21
  Q 60.60 159.99 64.19 161.07
  L 64.43 170.21
  Q 57.78 166.27 51.69 160.31
  Q 34.70 143.71 32.39 120.32
  C 32.17 118.10 30.34 116.08 32.74 113.76
  A 0.39 0.28 25.5 0 1 33.08 113.70
  L 37.25 114.79
  Z"
/>
<path fill="#ecb614" d="
  M 6.75 114.21
  Q 7.05 114.68 6.96 115.21
  A 0.26 0.24 85.7 0 0 7.27 115.50
  Q 8.45 115.09 9.71 115.25
  Q 3.66 132.46 4.21 150.75
  Q 3.76 151.76 2.71 151.44
  A 1.15 1.06 36.7 0 0 1.84 151.53
  Q 0.49 152.32 0.00 150.69
  L 0.00 146.69
  Q 0.68 129.87 6.75 114.21
  Z"
/>
<path fill="#fcd304" d="
  M 45.21 114.50
  Q 45.54 114.74 45.94 114.80
  A 1.41 0.86 -4.8 0 1 46.74 115.20
  Q 59.06 131.05 78.44 136.78
  Q 71.41 137.27 65.11 134.78
  A 0.63 0.63 -79.3 0 0 64.25 135.37
  L 64.19 161.07
  Q 60.60 159.99 58.27 157.21
  Q 55.37 153.76 55.29 153.67
  Q 42.78 140.82 38.88 123.18
  C 38.49 121.43 37.29 119.57 37.45 117.25
  A 0.72 0.64 15.8 0 0 37.03 116.60
  Q 36.05 116.14 37.25 114.79
  L 39.50 114.71
  L 42.27 115.39
  A 0.86 0.69 -60.3 0 0 43.03 115.09
  Q 43.81 114.18 45.21 114.50
  Z"
/>
<path fill="#000000" d="
  M 231.80 162.02
  L 236.76 162.28
  A 1.05 0.62 -5.8 0 1 237.56 162.65
  Q 237.90 163.24 237.55 163.85
  A 0.98 0.77 11.5 0 1 236.75 164.25
  L 216.01 164.25
  A 1.14 0.81 -12.3 0 1 215.16 163.89
  Q 214.72 163.27 215.17 162.62
  A 1.08 0.83 13.3 0 1 215.99 162.25
  L 220.84 162.25
  A 0.91 0.91 0.0 0 0 221.75 161.34
  L 221.75 132.43
  A 0.68 0.68 0.0 0 0 221.07 131.75
  C 220.10 131.75 215.01 132.52 216.07 130.24
  A 0.93 0.71 7.7 0 1 216.81 129.82
  L 230.74 129.13
  A 0.49 0.46 -1.2 0 1 231.25 129.59
  L 231.31 161.44
  A 0.58 0.51 -89.0 0 0 231.80 162.02
  Z"
/>
<path fill="#000000" d="
  M 303.97 161.63
  C 309.98 166.23 319.29 160.95 321.25 154.50
  Q 321.78 152.74 323.06 153.27
  A 0.64 0.57 -73.0 0 1 323.39 153.99
  Q 321.57 162.06 314.00 164.50
  C 293.37 171.15 283.56 144.32 298.56 132.56
  C 304.39 128.00 316.59 127.24 321.19 134.06
  C 326.33 141.70 315.57 146.82 313.33 139.96
  Q 312.23 136.61 314.31 134.55
  Q 316.62 132.28 313.45 131.57
  Q 302.32 129.05 301.66 140.24
  C 301.31 146.20 300.38 158.89 303.97 161.63
  Z"
/>
<path fill="#000000" d="
  M 256.81 162.03
  L 260.93 162.33
  A 0.89 0.66 -5.3 0 1 261.65 162.77
  Q 262.28 164.38 260.46 164.29
  C 254.22 163.99 247.82 164.26 241.56 164.19
  A 0.80 0.68 -8.9 0 1 240.84 163.75
  Q 240.16 161.93 244.92 162.52
  A 1.59 1.57 3.4 0 0 246.70 160.96
  L 246.58 132.44
  A 0.57 0.52 -89.5 0 0 246.08 131.88
  L 241.75 131.73
  A 1.43 0.56 -5.2 0 1 240.85 131.47
  Q 240.30 130.95 240.76 130.21
  A 1.05 0.77 10.2 0 1 241.55 129.82
  L 254.97 129.18
  A 0.96 0.88 -0.7 0 1 255.97 130.07
  L 255.86 136.20
  A 0.85 0.52 -84.1 0 0 256.22 136.96
  Q 256.73 137.13 257.15 136.41
  Q 261.97 128.18 271.74 129.30
  C 278.55 130.09 279.94 134.36 280.13 140.76
  Q 280.43 150.83 280.17 161.40
  A 0.83 0.83 -89.3 0 0 281.00 162.25
  C 282.47 162.25 286.51 161.49 285.65 163.73
  A 0.76 0.72 10.1 0 1 284.95 164.19
  L 266.07 164.20
  A 0.74 0.70 -8.8 0 1 265.38 163.72
  C 264.22 160.08 271.03 164.65 270.64 160.33
  C 269.94 152.57 270.51 144.09 270.53 136.25
  C 270.54 130.32 263.50 131.97 260.84 134.59
  C 254.23 141.12 256.19 152.96 256.31 161.44
  A 0.60 0.54 -87.9 0 0 256.81 162.03
  Z"
/>
<path fill="#000000" d="
  M 344.73 136.23
  Q 344.69 139.39 346.14 136.52
  Q 350.19 128.52 359.25 129.25
  C 361.90 129.46 363.67 132.27 363.62 134.88
  C 363.49 141.62 353.60 141.04 354.19 134.24
  A 0.97 0.75 -73.1 0 0 353.88 133.43
  C 350.88 131.23 346.57 138.52 345.86 140.50
  C 343.99 145.73 345.00 155.23 345.00 161.45
  A 0.75 0.75 0.8 0 0 345.73 162.20
  C 347.14 162.26 353.55 161.37 352.65 163.73
  A 0.78 0.72 9.9 0 1 351.94 164.19
  L 330.32 164.20
  A 0.84 0.78 -11.4 0 1 329.57 163.74
  C 328.56 161.48 333.51 162.25 334.59 162.25
  A 0.91 0.91 0.1 0 0 335.50 161.34
  L 335.50 132.43
  A 0.68 0.68 0.0 0 0 334.82 131.75
  C 333.87 131.75 328.50 132.54 329.57 130.24
  A 0.95 0.71 7.5 0 1 330.32 129.82
  L 343.42 129.18
  A 1.30 1.28 -1.3 0 1 344.79 130.47
  L 344.73 136.23
  Z"
/>
<path fill="#000000" d="
  M 373.69 134.69
  C 382.73 124.18 401.96 129.38 401.46 144.18
  A 0.52 0.51 -89.4 0 1 400.95 144.69
  L 379.82 144.75
  A 0.82 0.81 -0.0 0 0 379.00 145.56
  C 379.00 152.58 377.07 164.29 387.91 163.16
  C 392.84 162.65 396.51 159.80 398.56 155.38
  C 399.00 154.44 399.19 152.93 400.59 153.03
  A 0.91 0.91 -76.0 0 1 401.35 154.30
  Q 396.33 165.96 385.33 165.44
  C 368.76 164.65 363.84 146.13 373.69 134.69
  Z
  M 385.50 131.25
  C 378.90 131.10 378.73 136.35 379.09 141.28
  A 1.06 1.04 87.6 0 0 380.13 142.25
  L 391.01 142.25
  A 0.61 0.61 -84.2 0 0 391.61 141.76
  C 392.58 136.95 391.71 131.39 385.50 131.25
  Z"
/>
<path fill="#000000" d="
  M 461.99 160.99
  L 461.68 132.56
  A 0.61 0.52 -88.5 0 0 461.19 131.96
  L 457.26 131.71
  A 1.42 0.69 -6.6 0 1 456.38 131.40
  Q 455.11 130.06 457.51 129.97
  Q 464.09 129.73 470.68 129.34
  A 0.48 0.47 -1.7 0 1 471.19 129.81
  L 471.25 161.26
  A 0.99 0.99 0.0 0 0 472.24 162.25
  C 473.61 162.25 478.57 161.43 477.65 163.74
  A 0.80 0.71 9.7 0 1 476.93 164.19
  L 455.81 164.20
  A 0.66 0.63 -6.0 0 1 455.17 163.71
  C 454.51 160.97 459.62 162.95 461.58 161.78
  A 0.97 0.84 76.4 0 0 461.99 160.99
  Z"
/>
<path fill="#000000" d="
  M 573.02 165.50
  C 548.60 165.23 551.31 129.14 572.32 129.08
  C 581.43 129.05 587.71 134.64 588.54 143.90
  A 0.79 0.78 87.6 0 1 587.76 144.75
  L 566.80 144.75
  A 1.04 1.04 -89.1 0 0 565.76 145.76
  C 565.60 152.49 564.28 164.86 575.25 163.25
  Q 583.03 162.11 585.95 154.36
  C 586.63 152.54 589.06 152.38 588.01 154.82
  Q 583.35 165.62 573.02 165.50
  Z
  M 568.99 131.97
  C 565.54 133.92 565.50 138.14 565.99 141.69
  A 0.58 0.57 86.0 0 0 566.56 142.19
  L 577.94 142.32
  A 0.73 0.72 87.5 0 0 578.67 141.52
  C 578.46 139.23 578.83 135.97 577.90 134.14
  C 576.32 131.02 571.62 130.48 568.99 131.97
  Z"
/>
<path fill="#e59719" d="
  M 192.07 135.73
  Q 193.74 150.02 190.02 163.18
  Q 180.16 179.12 163.94 193.94
  C 161.20 196.43 159.56 197.34 157.05 199.03
  Q 151.02 203.11 145.00 207.21
  Q 139.27 204.90 138.96 211.00
  Q 138.67 209.08 137.17 209.97
  Q 136.65 210.27 136.25 210.28
  Q 134.83 210.30 133.50 209.71
  Q 138.72 204.61 141.25 197.71
  Q 143.67 198.65 145.19 196.89
  Q 145.54 196.49 145.95 196.31
  C 148.46 195.23 149.64 193.08 151.93 192.29
  Q 154.65 191.35 154.89 191.20
  C 158.22 189.03 160.28 185.17 163.67 182.91
  Q 170.30 178.47 174.24 171.64
  C 175.27 169.85 176.82 168.33 177.87 166.47
  C 182.55 158.13 185.87 149.40 190.26 140.97
  Q 191.54 138.52 192.07 135.73
  Z"
/>
<path fill="#fcd304" d="
  M 100.75 138.87
  L 100.54 149.51
  A 0.59 0.55 89.5 0 1 100.01 150.09
  L 96.31 150.24
  A 0.55 0.49 89.0 0 1 95.80 149.69
  L 95.79 140.00
  L 100.75 138.87
  Z"
/>
<path fill="#e59719" d="
  M 64.21 200.00
  L 64.20 209.93
  A 0.54 0.50 -90.0 0 1 63.70 210.47
  L 60.25 210.46
  Q 60.37 208.16 58.24 208.41
  Q 57.69 208.48 57.28 208.32
  Q 49.11 205.15 41.73 200.45
  A 0.79 0.09 79.8 0 1 41.53 199.77
  Q 41.48 199.51 41.00 199.25
  Q 31.35 193.96 23.51 184.94
  Q 23.23 184.61 22.72 184.38
  C 20.61 183.42 19.78 180.16 17.26 178.68
  A 1.15 1.13 8.9 0 1 16.72 177.95
  Q 16.02 174.96 12.97 174.23
  Q 7.27 158.44 7.79 141.50
  L 8.27 140.22
  Q 8.49 139.64 8.75 140.28
  C 12.27 148.79 16.17 158.08 21.15 164.75
  C 23.50 167.89 25.30 171.42 28.30 174.19
  C 31.85 177.47 33.25 181.77 37.56 184.19
  Q 39.64 185.35 40.50 186.30
  Q 40.87 186.70 41.28 186.84
  C 44.61 187.95 47.22 190.67 49.33 191.95
  Q 55.36 195.61 61.97 198.13
  Q 62.28 198.25 62.75 198.71
  Q 63.20 199.17 63.64 198.72
  Q 63.88 198.48 63.86 198.81
  Q 63.83 199.47 64.21 200.00
  Z"
/>
<path fill="#e69d15" d="
  M 0.00 150.69
  Q 0.49 152.32 1.84 151.53
  A 1.15 1.06 36.7 0 1 2.71 151.44
  Q 3.76 151.76 4.21 150.75
  Q 7.05 199.45 46.50 227.21
  Q 43.59 228.95 40.31 228.41
  A 0.48 0.43 5.8 0 0 39.75 228.81
  L 39.75 229.71
  Q 2.62 200.77 0.00 153.19
  L 0.00 150.69
  Z"
/>
<path fill="#f8cb07" d="
  M 100.71 190.50
  L 98.51 190.54
  Q 97.99 190.54 97.55 190.73
  Q 95.96 191.40 96.04 189.00
  L 95.82 155.31
  A 0.54 0.47 -89.0 0 1 96.31 154.77
  L 100.19 154.97
  A 0.59 0.52 -89.0 0 1 100.69 155.56
  L 100.71 190.50
  Z"
/>
<path fill="#eaa913" d="
  M 190.02 163.18
  Q 190.16 167.48 188.45 170.39
  Q 185.79 171.41 184.50 173.84
  Q 183.37 175.99 182.49 176.87
  C 177.07 182.31 172.52 188.42 166.72 193.53
  Q 163.15 196.68 156.41 200.89
  Q 151.02 204.25 145.71 207.75
  L 145.00 207.21
  Q 151.02 203.11 157.05 199.03
  C 159.56 197.34 161.20 196.43 163.94 193.94
  Q 180.16 179.12 190.02 163.18
  Z"
/>
<path fill="#ecb614" d="
  M 188.45 170.39
  Q 187.49 175.42 185.17 179.43
  Q 177.73 185.74 176.19 188.19
  Q 175.03 190.03 170.94 193.44
  Q 164.66 198.66 158.12 203.55
  A 0.42 0.32 32.3 0 1 157.74 203.58
  C 157.43 203.47 157.42 203.49 157.14 203.68
  Q 151.96 207.24 146.64 210.48
  Q 146.98 209.20 145.71 207.75
  Q 151.02 204.25 156.41 200.89
  Q 163.15 196.68 166.72 193.53
  C 172.52 188.42 177.07 182.31 182.49 176.87
  Q 183.37 175.99 184.50 173.84
  Q 185.79 171.41 188.45 170.39
  Z"
/>
<path fill="#e69d15" d="
  M 193.25 171.21
  Q 194.30 173.22 195.83 171.90
  Q 196.11 171.66 195.99 172.02
  Q 195.52 173.40 196.96 174.00
  Q 187.74 210.26 157.29 231.75
  Q 158.46 229.86 156.49 230.16
  Q 156.10 230.21 155.53 230.07
  L 151.25 228.96
  Q 183.13 208.09 193.25 171.21
  Z"
/>
<path fill="#ecaf12" d="
  M 60.25 210.46
  L 56.69 210.62
  A 0.61 0.59 0.5 0 0 56.10 211.18
  L 55.96 213.75
  C 53.12 214.47 48.46 211.54 46.20 210.21
  C 41.17 207.27 37.23 205.34 33.15 202.30
  Q 32.90 202.12 32.26 201.91
  Q 31.60 201.70 31.47 201.05
  A 0.85 0.73 -89.2 0 0 30.95 200.43
  C 28.62 199.70 27.54 197.41 25.00 197.29
  Q 17.18 186.77 12.97 174.23
  Q 16.02 174.96 16.72 177.95
  A 1.15 1.13 8.9 0 0 17.26 178.68
  C 19.78 180.16 20.61 183.42 22.72 184.38
  Q 23.23 184.61 23.51 184.94
  Q 31.35 193.96 41.00 199.25
  Q 41.48 199.51 41.53 199.77
  A 0.79 0.09 79.8 0 0 41.73 200.45
  Q 49.11 205.15 57.28 208.32
  Q 57.69 208.48 58.24 208.41
  Q 60.37 208.16 60.25 210.46
  Z"
/>
<path fill="#000000" d="
  M 422.50 190.00
  C 424.62 175.76 443.85 175.22 447.50 188.25
  C 449.48 195.31 446.33 205.88 437.44 206.12
  C 434.61 206.20 429.84 206.33 427.81 204.69
  Q 421.12 199.25 422.50 190.00
  Z
  M 435.0900 203.8400
  A 11.01 9.38 90.0 0 0 444.4700 192.8300
  A 11.01 9.38 90.0 0 0 435.0900 181.8200
  A 11.01 9.38 90.0 0 0 425.7100 192.8300
  A 11.01 9.38 90.0 0 0 435.0900 203.8400
  Z"
/>
<path fill="#000000" d="
  M 475.94 202.56
  C 469.01 193.07 473.30 177.33 487.00 179.02
  C 502.16 180.90 501.89 204.89 488.51 206.10
  C 484.21 206.49 478.69 206.33 475.94 202.56
  Z
  M 485.5275 203.8298
  A 10.99 9.41 89.7 0 0 494.8799 192.7907
  A 10.99 9.41 89.7 0 0 485.4125 181.8502
  A 10.99 9.41 89.7 0 0 476.0601 192.8893
  A 10.99 9.41 89.7 0 0 485.5275 203.8298
  Z"
/>
<path fill="#000000" d="
  M 522.94 195.80
  L 516.51 195.75
  A 0.61 0.59 -5.9 0 1 515.92 195.28
  Q 515.26 192.25 517.30 192.43
  C 520.15 192.68 523.27 192.50 526.38 192.50
  A 0.81 0.79 -0.0 0 1 527.19 193.29
  L 527.24 201.54
  A 1.68 1.61 -19.5 0 1 526.57 202.87
  C 522.12 206.27 514.15 207.45 508.87 205.14
  C 501.02 201.70 500.91 189.85 504.75 184.00
  C 507.64 179.61 514.23 178.09 519.02 179.19
  Q 524.03 180.33 526.45 185.98
  A 0.56 0.56 63.6 0 1 526.21 186.70
  Q 523.57 188.21 522.90 186.52
  C 521.70 183.53 519.31 181.98 516.00 181.96
  C 508.61 181.91 505.46 187.32 505.98 194.11
  C 506.68 203.31 516.30 206.41 523.05 201.01
  A 1.11 0.99 -21.0 0 0 523.47 200.19
  L 523.47 196.31
  A 0.53 0.51 0.0 0 0 522.94 195.80
  Z"
/>
<path fill="#000000" d="
  M 568.19 185.50
  C 569.65 176.17 585.58 176.71 587.53 185.91
  A 0.68 0.67 -20.1 0 1 587.18 186.65
  Q 584.48 188.03 583.89 186.08
  C 582.38 181.14 573.32 180.57 571.63 185.09
  C 569.66 190.33 583.08 190.94 586.01 193.50
  C 591.23 198.05 587.45 205.66 581.20 206.15
  C 574.79 206.65 568.56 206.43 567.08 198.50
  A 0.73 0.69 70.9 0 1 567.42 197.75
  C 570.65 196.00 570.51 199.18 571.63 200.60
  C 574.58 204.36 585.15 205.14 584.93 198.66
  C 584.71 192.13 566.54 195.99 568.19 185.50
  Z"
/>
<path fill="#000000" d="
  M 344.40 203.51
  C 337.39 195.67 339.50 179.59 352.24 178.90
  Q 360.65 178.44 363.63 185.92
  A 0.61 0.60 66.6 0 1 363.33 186.69
  Q 360.52 188.04 359.73 186.26
  C 357.53 181.38 351.44 180.63 347.56 183.82
  C 343.45 187.20 343.41 195.18 345.56 199.44
  C 348.94 206.10 358.11 204.60 360.60 197.73
  A 0.77 0.76 10.9 0 1 361.35 197.23
  Q 365.04 197.33 363.89 199.41
  C 361.67 203.44 360.20 205.99 355.18 206.14
  C 351.29 206.27 347.13 206.57 344.40 203.51
  Z"
/>
<path fill="#000000" d="
  M 299.44 182.55
  L 292.01 182.50
  A 0.61 0.59 -5.9 0 1 291.42 182.03
  C 290.76 179.00 291.46 179.25 293.71 179.25
  Q 302.48 179.25 311.25 179.26
  Q 313.27 179.26 312.23 181.96
  A 0.85 0.85 10.6 0 1 311.44 182.50
  L 304.37 182.50
  A 0.62 0.62 0.0 0 0 303.75 183.12
  Q 303.75 193.63 303.75 203.13
  C 303.75 205.89 303.92 206.45 300.81 205.80
  A 0.80 0.78 -85.1 0 1 300.18 205.03
  L 299.95 183.07
  A 0.52 0.51 90.0 0 0 299.44 182.55
  Z"
/>
<path fill="#000000" d="
  M 336.56 205.33
  A 0.82 0.81 5.0 0 1 335.75 206.00
  L 317.17 206.00
  A 0.67 0.67 0.2 0 1 316.50 205.33
  L 316.50 180.05
  A 0.80 0.80 0.0 0 1 317.30 179.25
  Q 325.77 179.25 333.20 179.25
  C 335.74 179.25 336.53 178.92 335.83 182.00
  A 0.64 0.63 -83.8 0 1 335.21 182.50
  L 320.66 182.50
  A 0.66 0.66 0.1 0 0 320.00 183.16
  L 320.00 190.09
  A 0.66 0.66 -0.1 0 0 320.66 190.75
  C 324.84 190.75 329.06 190.94 333.10 190.63
  Q 335.84 190.42 334.92 193.27
  A 0.73 0.71 -81.4 0 1 334.25 193.78
  L 320.82 194.07
  A 0.63 0.59 3.8 0 0 320.22 194.56
  Q 319.53 198.57 320.33 202.56
  A 0.67 0.61 83.7 0 0 320.94 203.09
  L 335.69 203.09
  A 0.80 0.64 -8.3 0 1 336.40 203.51
  Q 336.73 204.37 336.56 205.33
  Z"
/>
<path fill="#000000" d="
  M 373.05 190.19
  L 385.68 190.31
  A 0.81 0.81 0.3 0 0 386.50 189.50
  C 386.50 186.60 386.67 183.60 386.43 180.82
  Q 386.26 178.76 389.45 179.46
  A 1.01 1.00 -82.5 0 1 390.24 180.49
  Q 389.68 192.50 390.23 204.75
  A 1.04 0.84 74.7 0 1 389.87 205.58
  Q 388.83 206.32 387.03 205.89
  A 0.70 0.70 -83.2 0 1 386.50 205.21
  L 386.50 194.16
  A 0.66 0.66 -0.1 0 0 385.84 193.50
  L 373.05 193.50
  A 0.55 0.55 0.0 0 0 372.50 194.05
  L 372.45 205.19
  A 0.69 0.69 -8.6 0 1 371.96 205.85
  Q 368.41 206.92 368.62 203.51
  C 369.11 195.88 368.74 187.99 368.81 180.32
  A 0.93 0.82 76.9 0 1 369.23 179.54
  Q 370.62 178.76 372.07 179.50
  A 0.91 0.76 -79.6 0 1 372.50 180.26
  L 372.55 189.68
  A 0.52 0.50 89.4 0 0 373.05 190.19
  Z"
/>
<path fill="#000000" d="
  M 413.32 199.70
  Q 413.97 200.67 413.93 199.51
  Q 413.64 190.10 413.70 180.50
  Q 413.72 178.72 416.82 179.53
  A 0.66 0.65 -82.2 0 1 417.31 180.18
  Q 417.21 191.70 417.25 203.10
  C 417.26 206.23 417.67 206.36 414.16 205.78
  A 2.20 2.18 -11.8 0 1 412.71 204.84
  L 400.63 186.78
  Q 399.35 184.87 399.36 187.18
  L 399.45 205.18
  A 0.76 0.71 80.7 0 1 398.98 205.88
  Q 397.67 206.34 396.43 205.74
  A 0.83 0.76 -78.1 0 1 396.00 205.01
  L 395.94 180.19
  A 0.82 0.75 79.0 0 1 396.39 179.46
  Q 399.02 178.27 400.50 180.50
  Q 406.90 190.10 413.32 199.70
  Z"
/>
<path fill="#000000" d="
  M 456.05 201.92
  A 1.32 1.27 -90.0 0 0 457.33 203.25
  L 468.56 203.20
  A 0.85 0.77 -12.8 0 1 469.31 203.62
  Q 470.49 205.92 467.75 205.94
  Q 460.63 206.00 453.16 206.00
  A 0.66 0.66 0.2 0 1 452.50 205.34
  Q 452.50 193.57 452.50 182.10
  C 452.50 179.30 452.26 178.75 455.46 179.47
  A 0.94 0.92 6.2 0 1 456.20 180.37
  L 456.05 201.92
  Z"
/>
<rect fill="#000000" x="533.00" y="179.27" width="3.54" height="26.70" rx="0.74"/>
<path fill="#000000" d="
  M 547.31 190.69
  L 560.94 190.81
  A 0.76 0.70 -9.3 0 1 561.64 191.27
  Q 562.08 192.46 561.51 193.57
  A 0.89 0.78 11.9 0 1 560.75 194.00
  L 547.32 194.00
  A 0.67 0.65 89.6 0 0 546.67 194.68
  L 546.75 202.33
  A 0.91 0.89 -89.7 0 0 547.62 203.23
  Q 554.75 203.38 561.10 203.11
  C 562.74 203.04 564.10 203.09 563.21 205.30
  A 0.84 0.78 8.9 0 1 562.50 205.78
  Q 552.98 206.32 543.66 205.82
  A 0.51 0.50 -88.8 0 1 543.18 205.31
  L 543.17 180.12
  A 0.87 0.85 -90.0 0 1 544.02 179.25
  Q 553.00 179.25 561.25 179.24
  Q 563.29 179.24 562.68 181.79
  A 0.93 0.93 -83.3 0 1 561.78 182.50
  L 547.31 182.50
  A 0.53 0.52 -0.0 0 0 546.78 183.02
  L 546.79 190.19
  A 0.52 0.50 0.0 0 0 547.31 190.69
  Z"
/>
<path fill="#f4d70b" d="
  M 185.17 179.43
  Q 180.91 190.82 173.28 200.05
  Q 165.79 204.36 158.69 209.18
  Q 151.52 214.06 147.06 215.81
  Q 145.52 216.42 144.86 216.91
  Q 144.29 217.34 144.04 217.44
  Q 131.74 222.47 118.75 225.25
  Q 114.94 226.07 111.09 225.94
  C 103.05 225.68 95.04 225.79 86.99 225.52
  Q 86.54 225.50 86.07 225.74
  Q 84.33 226.65 82.41 226.05
  A 0.35 0.19 22.8 0 0 82.11 226.08
  Q 82.03 226.17 82.09 226.29
  A 0.21 0.17 69.0 0 1 82.00 226.57
  Q 79.30 227.28 76.76 226.39
  C 72.75 224.99 68.60 224.04 64.47 223.04
  C 62.92 222.67 61.53 221.53 59.84 221.18
  Q 56.94 220.58 56.29 220.32
  Q 47.41 216.78 38.73 212.74
  Q 30.89 205.86 25.00 197.29
  C 27.54 197.41 28.62 199.70 30.95 200.43
  A 0.85 0.73 -89.2 0 1 31.47 201.05
  Q 31.60 201.70 32.26 201.91
  Q 32.90 202.12 33.15 202.30
  C 37.23 205.34 41.17 207.27 46.20 210.21
  C 48.46 211.54 53.12 214.47 55.96 213.75
  Q 57.05 214.58 58.50 214.29
  C 63.74 218.56 69.39 219.27 76.75 220.75
  Q 86.28 222.67 90.73 222.99
  Q 116.78 224.84 140.45 214.24
  Q 145.42 215.95 146.64 210.48
  Q 151.96 207.24 157.14 203.68
  C 157.42 203.49 157.43 203.47 157.74 203.58
  A 0.42 0.32 32.3 0 0 158.12 203.55
  Q 164.66 198.66 170.94 193.44
  Q 175.03 190.03 176.19 188.19
  Q 177.73 185.74 185.17 179.43
  Z"
/>
<path fill="#000000" d="
  M 599.97 184.38
  A 4.80 4.80 0.0 0 1 595.17 189.18
  A 4.80 4.80 0.0 0 1 590.37 184.38
  A 4.80 4.80 0.0 0 1 595.17 179.58
  A 4.80 4.80 0.0 0 1 599.97 184.38
  Z
  M 592.50 187.04
  Q 594.39 189.32 597.52 187.80
  Q 601.70 181.01 594.32 180.58
  A 1.65 1.49 27.1 0 0 593.39 180.83
  Q 589.66 183.33 592.50 187.04
  Z"
/>
<path fill="#000000" d="
  M 596.75 186.96
  C 595.79 186.70 595.84 185.92 595.34 185.42
  C 593.61 183.68 594.48 187.01 593.00 186.96
  L 593.23 183.03
  A 0.70 0.63 87.0 0 1 593.75 182.39
  Q 597.77 181.65 596.49 184.30
  A 1.05 1.04 -44.7 0 0 596.48 185.18
  Q 596.87 186.04 596.75 186.96
  Z
  M 595.53 183.04
  Q 594.47 181.66 594.28 183.50
  A 0.72 0.65 -78.2 0 0 594.70 184.22
  Q 595.41 184.48 595.68 183.92
  A 0.95 0.74 42.2 0 0 595.53 183.04
  Z"
/>
<path fill="#e8a214" d="
  M 96.04 189.00
  Q 95.96 191.40 97.55 190.73
  Q 97.99 190.54 98.51 190.54
  L 100.71 190.50
  C 100.82 198.45 99.39 204.49 106.48 210.04
  Q 107.07 210.50 106.31 210.51
  L 96.28 210.56
  A 0.54 0.53 -0.0 0 1 95.74 210.03
  L 96.04 189.00
  Z"
/>
<path fill="#faf306" d="
  M 173.28 200.05
  Q 153.87 224.77 123.50 233.21
  L 111.94 235.36
  A 1.39 1.38 14.7 0 0 111.13 235.83
  Q 109.58 237.69 107.00 238.50
  Q 96.49 241.82 87.89 236.26
  Q 86.02 235.06 84.13 234.73
  Q 77.94 233.64 72.08 231.78
  Q 53.39 225.57 38.73 212.74
  Q 47.41 216.78 56.29 220.32
  Q 56.94 220.58 59.84 221.18
  C 61.53 221.53 62.92 222.67 64.47 223.04
  C 68.60 224.04 72.75 224.99 76.76 226.39
  Q 79.30 227.28 82.00 226.57
  A 0.21 0.17 69.0 0 0 82.09 226.29
  Q 82.03 226.17 82.11 226.08
  A 0.35 0.19 22.8 0 1 82.41 226.05
  Q 84.33 226.65 86.07 225.74
  Q 86.54 225.50 86.99 225.52
  C 95.04 225.79 103.05 225.68 111.09 225.94
  Q 114.94 226.07 118.75 225.25
  Q 131.74 222.47 144.04 217.44
  Q 144.29 217.34 144.86 216.91
  Q 145.52 216.42 147.06 215.81
  Q 151.52 214.06 158.69 209.18
  Q 165.79 204.36 173.28 200.05
  Z"
/>
<path fill="#000000" d="
  M 145.00 207.21
  L 145.71 207.75
  Q 146.98 209.20 146.64 210.48
  Q 145.42 215.95 140.45 214.24
  Q 138.92 212.18 138.96 211.00
  Q 139.27 204.90 145.00 207.21
  Z
  M 142.00 207.29
  C 137.17 208.69 140.89 215.18 141.25 211.25
  Q 141.52 208.28 141.75 207.71
  Q 143.36 207.88 144.23 209.08
  A 0.94 0.74 -54.0 0 1 144.26 209.94
  Q 143.59 211.36 144.44 212.61
  A 0.41 0.40 -42.7 0 0 145.08 212.63
  C 147.17 210.15 144.79 206.14 142.00 207.29
  Z
  M 142.03 209.68
  Q 142.34 210.95 143.17 210.13
  A 1.01 0.93 -29.0 0 0 143.46 209.25
  Q 143.30 208.34 142.35 208.90
  A 0.71 0.70 67.4 0 0 142.03 209.68
  Z
  M 142.43 213.65
  Q 144.80 214.00 143.27 211.43
  A 0.63 0.58 63.0 0 0 142.53 211.15
  Q 141.25 211.67 141.74 213.10
  A 0.86 0.83 -5.5 0 0 142.43 213.65
  Z"
/>
<path fill="#f2bb0f" d="
  M 141.75 207.71
  L 142.00 207.29
  C 144.79 206.14 147.17 210.15 145.08 212.63
  A 0.41 0.40 -42.7 0 1 144.44 212.61
  Q 143.59 211.36 144.26 209.94
  A 0.94 0.74 -54.0 0 0 144.23 209.08
  Q 143.36 207.88 141.75 207.71
  Z"
/>
<path fill="#eaa913" d="
  M 142.00 207.29
  L 141.75 207.71
  Q 141.52 208.28 141.25 211.25
  C 140.89 215.18 137.17 208.69 142.00 207.29
  Z"
/>
<path fill="#e59719" d="
  M 142.35 208.90
  Q 143.30 208.34 143.46 209.25
  A 1.01 0.93 -29.0 0 1 143.17 210.13
  Q 142.34 210.95 142.03 209.68
  A 0.71 0.70 67.4 0 1 142.35 208.90
  Z"
/>
<path fill="#ecaf12" d="
  M 133.50 209.71
  Q 134.83 210.30 136.25 210.28
  Q 136.65 210.27 137.17 209.97
  Q 138.67 209.08 138.96 211.00
  Q 138.92 212.18 140.45 214.24
  Q 116.78 224.84 90.73 222.99
  Q 86.28 222.67 76.75 220.75
  C 69.39 219.27 63.74 218.56 58.50 214.29
  Q 90.25 214.22 122.00 214.25
  Q 127.99 214.26 133.50 209.71
  Z"
/>
<path fill="#f6c40a" d="
  M 141.74 213.10
  Q 141.25 211.67 142.53 211.15
  A 0.63 0.58 63.0 0 1 143.27 211.43
  Q 144.80 214.00 142.43 213.65
  A 0.86 0.83 -5.5 0 1 141.74 213.10
  Z"
/>
<path fill="#ecb614" d="
  M 46.50 227.21
  L 56.51 233.08
  Q 53.17 234.97 50.50 234.50
  Q 48.66 234.17 48.00 235.29
  L 39.75 229.71
  L 39.75 228.81
  A 0.48 0.43 5.8 0 1 40.31 228.41
  Q 43.59 228.95 46.50 227.21
  Z"
/>
<path fill="#f2bb0f" d="
  M 157.29 231.75
  Q 152.42 235.41 147.00 238.21
  L 147.34 237.39
  A 0.38 0.36 -74.2 0 0 147.07 236.88
  L 138.96 235.50
  L 151.25 228.96
  L 155.53 230.07
  Q 156.10 230.21 156.49 230.16
  Q 158.46 229.86 157.29 231.75
  Z"
/>
<path fill="#f3c520" d="
  M 72.08 231.78
  Q 77.94 233.64 84.13 234.73
  Q 86.02 235.06 87.89 236.26
  Q 96.49 241.82 107.00 238.50
  Q 109.58 237.69 111.13 235.83
  A 1.39 1.38 14.7 0 1 111.94 235.36
  L 123.50 233.21
  Q 125.39 239.15 119.80 239.77
  A 0.77 0.68 2.2 0 0 119.15 240.30
  Q 118.99 241.02 119.25 241.71
  Q 95.70 246.32 72.75 239.54
  Q 73.78 239.72 73.78 239.05
  A 0.87 0.62 14.1 0 0 73.22 238.39
  Q 68.62 236.54 72.08 231.78
  Z"
/>
<path fill="#faf306" d="
  M 56.51 233.08
  Q 64.39 237.06 72.75 239.54
  Q 95.70 246.32 119.25 241.71
  Q 129.37 239.45 138.96 235.50
  L 147.07 236.88
  A 0.38 0.36 -74.2 0 1 147.34 237.39
  L 147.00 238.21
  C 114.10 254.80 79.48 253.74 48.00 235.29
  Q 48.66 234.17 50.50 234.50
  Q 53.17 234.97 56.51 233.08
  Z"
/>
</svg>
