<?xml version="1.0" encoding="UTF-8" standalone="no"?>
<!DOCTYPE svg PUBLIC "-//W3C//DTD SVG 1.1//EN" "http://www.w3.org/Graphics/SVG/1.1/DTD/svg11.dtd">
<svg xmlns="http://www.w3.org/2000/svg" version="1.1" viewBox="0 0 600 300">
<path fill="#ff0000" d="
  M 95.28 164.56
  Q 94.72 173.63 95.20 181.97
  A 1.73 1.73 -2.0 0 1 93.49 183.80
  L 78.78 184.00
  A 1.27 1.26 -0.2 0 1 77.49 182.73
  C 77.65 165.71 76.69 149.48 78.00 132.17
  Q 78.27 128.61 79.65 126.13
  C 85.57 115.56 97.30 112.59 108.66 115.03
  C 111.51 115.64 118.62 119.64 119.88 122.40
  Q 120.46 123.65 120.77 124.08
  Q 124.76 129.54 124.75 136.50
  Q 124.75 159.25 124.75 182.90
  A 1.17 1.13 0.3 0 1 123.57 184.03
  L 107.08 183.78
  A 0.81 0.80 7.9 0 1 106.31 182.78
  C 107.62 177.87 106.21 170.85 106.68 165.76
  A 1.90 1.90 -83.6 0 0 105.04 163.70
  Q 99.68 162.99 95.79 163.94
  A 0.68 0.67 84.8 0 0 95.28 164.56
  Z
  M 106.53 138.31
  C 106.67 129.12 94.38 131.28 95.74 135.35
  A 1.91 1.14 54.9 0 1 95.81 136.29
  C 94.87 140.12 96.10 144.11 95.00 147.50
  Q 94.35 149.50 97.50 149.50
  L 105.08 149.50
  A 1.61 1.54 -1.2 0 0 106.69 147.89
  Q 106.46 143.13 106.53 138.31
  Z"
/>
<path fill="#ff0000" d="
  M 183.94 132.70
  C 177.91 128.67 176.73 138.64 176.75 142.00
  Q 176.89 161.60 176.54 182.91
  A 0.80 0.80 -89.6 0 1 175.75 183.69
  C 170.80 183.77 165.59 183.50 160.50 183.85
  C 157.67 184.05 158.75 181.45 158.75 179.99
  Q 158.73 162.70 158.75 145.40
  C 158.75 141.05 159.88 130.11 152.30 132.07
  Q 149.32 132.84 149.25 135.90
  Q 148.68 158.40 149.21 182.01
  A 1.79 1.73 -0.6 0 1 147.42 183.78
  L 132.25 183.80
  A 1.00 0.96 0.0 0 1 131.25 182.84
  Q 131.25 157.24 131.25 133.03
  Q 131.25 128.40 131.80 126.53
  C 133.00 122.49 137.99 117.17 142.04 115.79
  C 147.56 113.92 155.98 113.14 161.04 117.12
  C 164.39 119.77 167.16 122.57 166.60 127.11
  C 166.50 127.91 166.41 131.65 167.89 129.12
  Q 168.39 128.26 168.50 127.28
  C 169.01 122.63 169.76 121.67 173.16 118.33
  C 177.85 113.74 187.30 113.82 193.36 115.32
  C 196.88 116.20 199.40 118.84 202.34 120.96
  A 1.27 1.26 12.0 0 1 202.85 121.74
  C 203.54 125.06 204.69 127.83 204.67 131.24
  Q 204.53 157.08 204.69 182.68
  A 1.11 1.11 8.0 0 1 203.27 183.75
  C 200.83 183.04 198.18 183.68 196.33 183.64
  Q 192.37 183.54 187.16 183.58
  A 0.90 0.89 2.1 0 1 186.26 182.62
  C 186.77 175.55 186.25 166.32 186.25 161.46
  C 186.25 156.64 187.61 135.15 183.94 132.70
  Z"
/>
<path fill="#ff0000" d="
  M 423.54 129.04
  Q 423.31 128.37 423.56 127.81
  C 428.61 116.93 438.33 114.59 449.75 114.25
  C 455.01 114.09 453.22 117.12 453.28 120.19
  Q 453.37 125.06 453.43 129.93
  A 1.25 1.00 72.0 0 1 453.10 130.80
  Q 451.74 132.12 449.88 131.29
  A 1.79 0.86 37.1 0 0 448.94 131.10
  L 443.55 131.95
  A 1.27 0.98 -72.8 0 0 442.78 132.49
  C 441.70 134.18 441.22 135.09 439.63 137.23
  C 438.34 138.95 437.63 146.14 437.19 148.51
  C 435.70 156.52 435.74 166.39 431.29 173.17
  C 430.11 174.97 429.41 177.71 426.65 178.93
  C 421.53 181.19 417.49 183.05 411.76 183.29
  C 409.63 183.38 406.33 184.55 403.72 182.96
  A 0.91 0.81 -74.8 0 1 403.33 182.18
  Q 403.67 172.94 403.25 170.25
  Q 402.72 166.86 406.25 167.50
  C 410.90 168.35 414.66 165.15 416.67 161.36
  Q 417.61 159.58 418.13 155.95
  Q 419.36 147.26 421.30 138.69
  C 421.60 137.39 422.50 135.93 422.32 134.00
  Q 422.27 133.56 422.46 133.05
  L 423.61 129.98
  A 1.46 0.70 60.1 0 0 423.54 129.04
  Z"
/>
<path fill="#ff0000" d="
  M 10.99 174.32
  Q 7.46 172.31 6.06 168.44
  Q 5.74 167.54 4.25 165.00
  C -9.85 140.94 13.71 110.96 39.99 114.77
  C 48.22 115.97 55.70 120.66 61.67 126.54
  A 0.92 0.91 42.8 0 1 61.72 127.78
  Q 57.15 133.12 52.09 138.05
  C 48.77 141.29 49.84 140.36 47.06 137.67
  C 41.43 132.25 33.87 130.99 27.08 135.25
  C 6.10 148.38 27.72 176.81 44.63 163.58
  C 46.41 162.19 49.59 161.62 48.37 158.03
  A 0.81 0.74 80.9 0 0 47.70 157.50
  Q 46.53 157.43 45.47 158.04
  A 1.89 1.59 25.3 0 1 44.56 158.28
  L 30.09 158.21
  Q 27.76 158.20 28.00 156.02
  Q 28.63 150.29 28.06 144.55
  A 1.33 1.32 88.3 0 1 29.43 143.09
  C 38.67 143.42 47.92 142.92 57.35 143.12
  Q 62.78 143.24 67.69 143.00
  Q 70.06 142.88 70.23 145.24
  C 70.88 154.00 68.01 165.51 62.44 171.69
  C 48.87 186.73 28.55 189.59 12.50 176.25
  Q 12.27 176.06 11.68 175.01
  A 1.79 1.71 1.4 0 0 10.99 174.32
  Z"
/>
<path fill="#ff0000" d="
  M 242.95 114.92
  C 248.01 114.97 248.63 113.08 248.47 119.55
  Q 248.34 124.26 248.73 128.76
  Q 248.91 130.90 246.77 130.75
  Q 240.69 130.33 234.63 130.60
  C 233.01 130.68 229.08 129.33 229.29 132.47
  C 229.48 135.54 229.30 138.54 229.31 141.51
  A 1.77 1.76 89.4 0 0 231.10 143.27
  L 247.10 142.98
  A 1.77 1.67 89.5 0 1 248.80 144.75
  L 248.78 155.92
  A 1.16 1.09 -88.8 0 1 247.65 157.07
  Q 240.01 156.76 233.77 156.96
  C 231.98 157.02 229.12 156.27 229.26 159.11
  C 229.43 162.70 229.20 165.57 232.35 167.96
  A 1.47 1.38 -25.5 0 0 233.25 168.25
  L 246.94 168.08
  Q 249.05 168.06 249.02 170.28
  L 248.86 182.58
  A 1.38 1.29 -89.5 0 1 247.57 183.94
  Q 237.86 183.94 227.73 183.85
  Q 221.82 183.80 218.88 182.38
  C 210.87 178.50 210.40 170.80 210.50 162.75
  Q 210.78 139.83 209.94 116.92
  Q 209.87 115.02 211.77 114.99
  Q 227.13 114.75 242.95 114.92
  Z"
/>
<path fill="#ff0000" d="
  M 297.59 133.49
  Q 293.84 129.87 291.06 133.52
  Q 289.76 135.22 289.67 138.34
  Q 289.03 160.72 289.18 182.51
  A 1.53 1.48 0.0 0 1 287.64 184.00
  L 273.33 183.92
  Q 270.73 183.90 270.79 181.42
  Q 271.19 163.42 271.02 146.41
  C 270.96 140.15 269.98 129.41 273.72 124.23
  Q 274.46 123.21 274.68 121.99
  A 1.75 1.33 79.4 0 1 275.10 121.15
  Q 283.53 113.00 295.25 115.25
  Q 305.91 117.30 307.36 127.98
  C 308.07 133.20 310.13 123.97 310.31 123.44
  C 311.59 119.69 315.30 117.56 318.56 115.74
  Q 318.98 115.51 319.50 115.51
  C 321.68 115.52 323.49 114.65 325.45 114.64
  C 336.30 114.57 345.87 121.00 345.30 132.81
  C 344.49 149.46 345.37 166.61 345.31 183.33
  A 0.63 0.61 -0.0 0 1 344.68 183.94
  L 328.00 183.74
  A 1.12 0.72 -10.7 0 1 327.16 183.40
  Q 326.78 182.87 327.03 182.20
  Q 327.23 181.64 327.20 181.26
  Q 326.91 178.19 327.25 173.50
  C 327.49 170.12 326.74 166.22 326.83 162.83
  Q 327.15 151.05 327.00 139.25
  C 326.89 130.49 317.28 130.23 317.25 139.25
  Q 317.20 157.25 316.69 175.25
  Q 316.60 178.76 317.05 182.66
  A 1.16 1.14 -3.1 0 1 315.89 183.93
  L 299.32 183.94
  A 0.51 0.49 0.0 0 1 298.81 183.45
  L 298.75 136.23
  Q 298.75 134.61 297.59 133.49
  Z"
/>
<path fill="#ff0000" d="
  M 466.43 130.03
  L 459.18 129.97
  A 1.64 1.59 0.2 0 1 457.56 128.39
  L 457.42 115.59
  A 0.84 0.84 89.7 0 1 458.26 114.75
  Q 470.03 114.76 480.82 114.75
  C 484.51 114.75 489.50 115.04 493.94 114.51
  A 1.56 1.55 -3.4 0 1 495.69 116.05
  L 495.69 129.45
  A 1.08 0.97 0.9 0 1 494.58 130.42
  L 486.67 130.19
  A 1.19 1.06 -89.6 0 0 485.57 131.40
  Q 485.88 155.47 485.76 179.85
  C 485.73 185.73 485.97 183.63 481.14 183.89
  Q 475.42 184.20 468.45 183.62
  A 1.05 1.05 -87.6 0 1 467.49 182.57
  Q 467.64 159.18 467.33 136.80
  C 467.31 135.17 467.89 132.65 467.12 130.52
  A 0.76 0.75 80.2 0 0 466.43 130.03
  Z"
/>
<path fill="#ff0000" d="
  M 520.09 130.54
  A 1.23 1.22 -5.2 0 0 518.91 131.95
  Q 519.71 137.02 518.75 141.50
  Q 518.20 144.08 520.25 143.75
  Q 526.62 142.71 533.06 143.14
  C 534.93 143.26 538.88 141.77 537.72 145.83
  Q 537.57 146.33 537.65 146.80
  C 538.10 149.47 537.91 151.71 538.16 154.80
  C 538.43 158.02 535.28 156.93 533.50 156.95
  Q 526.70 157.00 520.51 156.83
  A 1.49 1.49 87.3 0 0 519.00 158.49
  C 519.41 162.01 518.01 168.26 523.50 168.25
  Q 529.75 168.25 535.99 168.00
  Q 539.05 167.88 538.69 170.10
  C 538.01 174.24 538.38 178.44 538.80 182.74
  A 1.15 1.15 -2.7 0 1 537.65 184.00
  C 530.47 184.00 512.54 185.74 506.92 181.60
  C 499.79 176.36 501.05 170.79 500.90 163.04
  Q 500.36 136.14 500.50 121.75
  C 500.52 119.76 498.94 113.62 502.50 114.50
  C 505.15 115.15 506.10 114.77 508.45 114.74
  Q 522.74 114.56 536.32 114.92
  A 1.23 1.21 -89.8 0 1 537.50 116.13
  L 537.67 127.32
  Q 537.67 127.74 537.95 128.23
  C 539.27 130.57 537.00 130.71 535.47 130.64
  Q 527.44 130.32 520.09 130.54
  Z"
/>
<path fill="#ff0000" d="
  M 562.91 149.44
  A 2.19 2.08 78.1 0 0 561.66 151.46
  L 562.31 183.06
  A 1.23 1.14 -0.4 0 1 561.07 184.23
  L 544.54 184.03
  A 0.87 0.84 1.9 0 1 543.68 183.14
  C 544.33 171.95 543.51 163.60 543.78 149.69
  Q 544.06 135.00 545.87 130.03
  Q 550.52 117.28 566.25 114.50
  C 569.37 113.95 579.46 114.19 583.90 116.16
  C 592.19 119.84 596.52 123.52 598.94 132.55
  Q 601.22 141.05 597.99 149.43
  C 597.54 150.60 596.44 154.90 594.69 155.69
  Q 591.92 156.93 590.02 159.36
  A 2.86 2.85 -72.4 0 1 587.89 160.47
  C 585.74 160.57 584.59 161.40 586.38 163.30
  Q 591.86 169.08 597.29 174.53
  A 1.10 1.10 -47.0 0 1 597.34 176.02
  C 595.50 178.20 592.79 179.38 591.03 180.83
  Q 588.29 183.08 585.07 185.66
  A 1.23 1.22 -41.6 0 1 583.44 185.57
  C 577.72 179.85 572.67 173.29 567.19 167.32
  Q 565.89 165.90 565.50 164.01
  C 565.21 162.59 563.48 149.19 562.91 149.44
  Z
  M 578.40 132.90
  C 564.15 123.31 555.02 146.31 570.12 149.25
  C 572.89 149.79 578.24 148.72 579.45 145.43
  C 580.70 142.05 582.06 139.90 579.94 136.31
  Q 579.51 135.59 578.95 133.68
  A 1.42 1.27 -83.4 0 0 578.40 132.90
  Z"
/>
<path fill="#ff0000" d="
  M 398.29 137.06
  Q 398.41 158.48 398.43 179.91
  C 398.44 185.24 398.23 183.61 393.80 183.81
  Q 387.41 184.10 381.17 183.76
  A 0.71 0.71 1.7 0 1 380.50 183.05
  L 380.50 164.83
  A 1.08 1.06 90.0 0 0 379.44 163.75
  L 369.96 163.80
  A 1.29 1.25 89.5 0 0 368.72 165.10
  L 368.81 183.33
  A 0.43 0.42 -0.7 0 1 368.39 183.75
  C 363.53 183.94 358.67 183.71 353.78 184.00
  C 348.87 184.29 351.20 179.47 351.14 177.05
  Q 350.72 159.04 350.90 141.03
  C 350.94 137.24 351.56 129.08 353.58 125.80
  C 355.89 122.02 363.19 115.45 368.21 115.13
  C 377.87 114.52 384.43 114.20 391.96 120.91
  C 395.57 124.12 398.26 131.75 398.29 137.06
  Z
  M 369.90 134.15
  Q 368.90 135.91 368.89 137.48
  L 368.79 148.53
  A 1.13 1.06 -0.0 0 0 369.93 149.60
  L 379.00 149.52
  A 1.51 1.48 -0.2 0 0 380.50 148.04
  C 380.50 143.99 381.73 133.39 375.86 132.12
  C 372.71 131.43 371.57 131.17 369.90 134.15
  Z"
/>
</svg>
