<?xml version="1.0" encoding="UTF-8" standalone="no"?>
<!DOCTYPE svg PUBLIC "-//W3C//DTD SVG 1.1//EN" "http://www.w3.org/Graphics/SVG/1.1/DTD/svg11.dtd">
<svg xmlns="http://www.w3.org/2000/svg" version="1.1" viewBox="0 0 600 300">
<path fill="#000000" d="
  M 309.71 73.08
  Q 310.17 70.81 310.65 73.07
  L 341.95 223.09
  A 0.55 0.54 84.0 0 1 341.42 223.75
  L 326.21 223.75
  A 0.90 0.89 85.0 0 1 325.33 223.00
  L 322.17 205.68
  A 0.62 0.62 -4.5 0 0 321.57 205.17
  L 299.57 205.02
  A 0.95 0.94 -85.4 0 0 298.63 205.83
  L 296.04 222.65
  A 1.00 0.99 -85.6 0 1 295.06 223.50
  L 280.14 223.50
  A 0.92 0.92 -84.3 0 1 279.24 222.40
  L 309.71 73.08
  Z
  M 309.93 141.74
  L 301.89 189.66
  A 0.45 0.45 -85.1 0 0 302.33 190.19
  L 318.82 190.31
  A 0.73 0.72 85.4 0 0 319.54 189.46
  L 311.00 141.73
  Q 310.45 138.66 309.93 141.74
  Z"
/>
<path fill="#000000" d="
  M 478.66 84.41
  C 491.43 70.54 514.45 73.06 522.44 90.56
  Q 524.09 94.18 524.09 99.50
  Q 524.15 150.13 524.25 200.75
  C 524.27 212.80 516.13 221.53 504.73 224.22
  C 493.55 226.86 479.51 221.03 475.14 209.62
  Q 473.75 206.00 473.75 198.70
  Q 473.75 147.10 473.75 95.50
  Q 473.75 89.74 478.66 84.41
  Z
  M 507.26 91.78
  A 0.32 0.32 0.0 0 0 506.94 91.46
  L 490.32 91.46
  A 0.32 0.32 0.0 0 0 490.00 91.78
  L 490.00 208.22
  A 0.32 0.32 0.0 0 0 490.32 208.54
  L 506.94 208.54
  A 0.32 0.32 0.0 0 0 507.26 208.22
  L 507.26 91.78
  Z"
/>
<rect fill="#000000" x="79.75" y="76.52" width="17.50" height="147.42" rx="0.72"/>
<path fill="#000000" d="
  M 460.50 200.00
  C 460.50 209.96 454.79 217.98 445.95 221.63
  Q 442.02 223.25 434.33 223.43
  Q 422.26 223.71 410.19 223.33
  A 0.53 0.51 1.2 0 1 409.68 222.82
  L 409.50 77.38
  A 0.88 0.88 0.0 0 1 410.38 76.50
  C 421.02 76.50 436.34 75.14 444.82 78.08
  C 452.97 80.92 459.65 88.41 459.81 97.64
  Q 460.18 118.07 460.22 138.50
  Q 460.24 146.24 453.42 149.44
  Q 452.60 149.83 453.41 150.24
  C 459.33 153.22 460.60 159.11 460.58 165.25
  Q 460.50 182.62 460.50 200.00
  Z
  M 443.49 91.88
  A 0.44 0.44 0.0 0 0 443.05 91.44
  L 426.69 91.44
  A 0.44 0.44 0.0 0 0 426.25 91.88
  L 426.25 143.06
  A 0.44 0.44 0.0 0 0 426.69 143.50
  L 443.05 143.50
  A 0.44 0.44 0.0 0 0 443.49 143.06
  L 443.49 91.88
  Z
  M 443.51 157.71
  A 0.53 0.53 0.0 0 0 442.98 157.18
  L 426.78 157.18
  A 0.53 0.53 0.0 0 0 426.25 157.71
  L 426.25 208.71
  A 0.53 0.53 0.0 0 0 426.78 209.24
  L 442.98 209.24
  A 0.53 0.53 0.0 0 0 443.51 208.71
  L 443.51 157.71
  Z"
/>
<path fill="#000000" d="
  M 560.06 141.27
  Q 560.45 141.24 560.50 140.75
  Q 560.86 137.39 560.99 136.75
  Q 567.17 106.91 573.26 77.29
  A 1.00 1.00 6.1 0 1 574.24 76.50
  L 589.14 76.50
  A 0.47 0.47 7.1 0 1 589.60 77.09
  L 568.11 163.14
  Q 567.75 164.56 567.75 166.00
  L 567.75 223.07
  A 0.68 0.68 -89.9 0 1 567.07 223.75
  L 551.88 223.75
  A 0.94 0.94 -89.7 0 1 550.94 222.80
  Q 551.04 195.96 551.01 168.67
  Q 551.00 164.75 549.99 160.98
  Q 538.79 119.21 527.41 77.15
  A 0.47 0.46 81.8 0 1 527.85 76.56
  L 542.75 76.51
  A 1.26 1.26 -6.9 0 1 543.99 77.48
  L 559.45 140.70
  A 0.72 0.52 78.9 0 0 560.06 141.27
  Z"
/>
<path fill="#000000" d="
  M 42.28 159.03
  C 42.94 158.52 42.75 156.99 42.87 156.31
  Q 49.53 117.25 56.62 77.57
  A 0.94 0.89 -84.3 0 1 57.52 76.79
  L 72.44 77.02
  A 0.45 0.42 -83.1 0 1 72.83 77.56
  L 42.30 227.48
  Q 41.92 229.38 41.52 227.49
  L 10.35 77.54
  A 0.61 0.60 84.1 0 1 10.93 76.81
  L 25.54 76.76
  A 1.29 1.28 84.6 0 1 26.80 77.81
  L 41.79 158.84
  A 0.31 0.31 66.1 0 0 42.28 159.03
  Z"
/>
<path fill="#000000" d="
  M 128.45 144.64
  C 127.99 144.94 128.25 215.86 128.25 223.16
  A 0.89 0.87 0.3 0 1 127.35 224.03
  L 112.46 223.94
  A 0.72 0.70 0.4 0 1 111.75 223.24
  L 111.75 77.62
  A 0.87 0.87 0.0 0 1 112.62 76.75
  Q 124.62 76.75 137.00 76.75
  C 147.70 76.75 159.57 81.99 161.77 93.20
  Q 162.00 94.40 162.00 105.83
  Q 162.00 118.54 161.98 131.25
  C 161.98 140.44 159.11 151.37 149.36 154.90
  A 0.72 0.71 -18.2 0 0 148.91 155.77
  L 168.44 223.03
  A 0.76 0.76 -8.0 0 1 167.71 224.00
  L 153.65 224.00
  A 1.04 1.03 -8.3 0 1 152.66 223.27
  L 129.08 145.04
  A 0.54 0.38 67.4 0 0 128.45 144.64
  Z
  M 145.74 92.04
  A 0.61 0.61 0.0 0 0 145.13 91.43
  L 128.87 91.43
  A 0.61 0.61 0.0 0 0 128.26 92.04
  L 128.26 142.22
  A 0.61 0.61 0.0 0 0 128.87 142.83
  L 145.13 142.83
  A 0.61 0.61 0.0 0 0 145.74 142.22
  L 145.74 92.04
  Z"
/>
<path fill="#000000" d="
  M 167.42 76.95
  L 216.36 76.76
  A 1.12 1.12 -88.7 0 1 217.49 77.89
  L 217.45 90.35
  A 1.22 1.17 -0.2 0 1 216.24 91.52
  L 201.06 91.55
  A 0.51 0.51 -0.6 0 0 200.56 92.06
  L 200.31 223.06
  A 0.53 0.51 89.4 0 1 199.81 223.59
  L 184.86 223.73
  A 0.87 0.85 89.7 0 1 184.00 222.86
  L 184.00 92.24
  A 0.94 0.91 -0.3 0 0 183.05 91.33
  L 167.36 91.48
  A 0.87 0.85 89.7 0 1 166.50 90.61
  L 166.50 77.89
  A 0.94 0.93 89.7 0 1 167.42 76.95
  Z"
/>
<path fill="#000000" d="
  M 391.05 208.69
  A 0.46 0.45 -90.0 0 1 391.50 209.15
  L 391.50 222.90
  A 0.85 0.85 -0.0 0 1 390.65 223.75
  L 349.45 223.69
  A 0.71 0.70 -90.0 0 1 348.75 222.98
  L 348.75 77.44
  A 0.69 0.69 0.0 0 1 349.44 76.75
  L 364.69 76.75
  A 0.81 0.81 0.0 0 1 365.50 77.56
  L 365.50 207.85
  A 0.76 0.74 0.4 0 0 366.25 208.59
  L 391.05 208.69
  Z"
/>
<path fill="#000000" d="
  M 242.00 208.67
  L 257.82 208.59
  A 0.94 0.90 -0.3 0 0 258.75 207.69
  L 258.75 77.86
  A 0.85 0.85 -87.8 0 1 259.66 77.01
  Q 267.25 77.59 274.98 77.00
  A 0.48 0.48 -2.2 0 1 275.50 77.48
  Q 275.65 139.00 275.74 200.51
  C 275.79 228.36 236.32 233.38 226.06 209.44
  C 224.90 206.73 225.00 203.54 225.00 200.36
  Q 225.00 139.30 225.00 78.20
  A 1.20 1.20 -87.6 0 1 226.30 77.00
  Q 233.00 77.60 239.83 76.99
  A 1.08 1.08 87.6 0 1 241.00 78.07
  L 241.00 207.71
  A 1.00 0.96 0.0 0 0 242.00 208.67
  Z"
/>
</svg>
