<?xml version="1.0" encoding="UTF-8" standalone="no"?>
<!DOCTYPE svg PUBLIC "-//W3C//DTD SVG 1.1//EN" "http://www.w3.org/Graphics/SVG/1.1/DTD/svg11.dtd">
<svg xmlns="http://www.w3.org/2000/svg" version="1.1" viewBox="0 0 600 300">
<path fill="#000000" d="
  M 133.48 48.75
  Q 133.05 49.00 132.76 49.54
  Q 119.01 75.00 105.18 100.45
  A 1.06 1.04 -75.5 0 1 104.26 101.00
  L 85.58 101.00
  A 0.87 0.86 1.3 0 1 84.71 100.10
  L 87.22 46.41
  A 1.08 0.63 -75.1 0 0 87.02 45.67
  Q 86.64 45.27 86.48 46.25
  C 83.47 64.30 77.58 82.14 72.52 100.18
  A 1.13 1.12 7.8 0 1 71.43 101.00
  L 47.14 101.00
  A 0.68 0.67 8.1 0 1 46.49 100.14
  L 73.11 9.20
  A 1.31 1.27 -81.2 0 1 74.35 8.26
  L 106.57 8.43
  A 0.49 0.48 -88.9 0 1 107.05 8.94
  L 104.72 63.07
  Q 104.64 64.99 105.56 63.31
  L 135.58 8.98
  A 1.48 1.43 14.1 0 1 136.86 8.24
  L 168.85 8.06
  A 0.61 0.61 8.1 0 1 169.44 8.84
  L 142.64 100.27
  A 0.70 0.70 7.0 0 1 142.00 100.77
  Q 129.72 101.31 117.44 100.83
  A 0.40 0.40 8.7 0 1 117.07 100.33
  C 122.83 79.71 126.53 65.98 133.74 49.02
  Q 133.99 48.45 133.48 48.75
  Z"
/>
<path fill="#000000" d="
  M 181.21 8.18
  L 208.13 8.25
  A 0.38 0.38 8.4 0 1 208.50 8.74
  L 181.86 99.97
  A 1.43 1.41 -81.8 0 1 180.50 101.00
  L 154.16 100.94
  A 0.44 0.44 -81.6 0 1 153.74 100.37
  L 180.52 8.69
  A 0.72 0.71 8.1 0 1 181.21 8.18
  Z"
/>
<path fill="#000000" d="
  M 271.31 83.81
  Q 258.36 98.75 238.99 100.78
  C 227.48 101.99 208.56 101.00 193.87 101.00
  A 0.77 0.76 -82.0 0 1 193.14 100.02
  L 219.83 8.76
  A 1.05 1.05 -81.9 0 1 220.84 8.00
  Q 236.50 8.00 252.50 7.95
  C 268.05 7.91 283.55 13.97 287.81 30.11
  C 292.34 47.23 282.47 70.95 271.31 83.81
  Z
  M 255.61 34.12
  Q 249.33 29.90 241.72 30.43
  A 1.01 0.99 -83.5 0 0 240.84 31.14
  L 226.92 77.87
  A 1.04 1.03 8.6 0 0 227.91 79.20
  C 237.29 79.28 245.27 76.69 251.06 69.06
  C 255.96 62.61 265.66 40.88 255.61 34.12
  Z"
/>
<path fill="#000000" d="
  M 362.37 63.01
  L 362.53 62.99
  A 0.33 0.21 -75.4 0 0 362.75 62.79
  L 387.29 8.85
  A 1.05 1.04 12.4 0 1 388.24 8.25
  L 412.87 8.18
  A 0.57 0.56 13.2 0 1 413.38 8.99
  L 367.01 100.41
  A 1.08 1.06 -76.3 0 1 366.06 101.00
  L 339.89 101.00
  A 0.47 0.47 -87.2 0 1 339.42 100.48
  L 344.91 49.04
  A 0.24 0.17 -89.4 0 0 344.72 48.76
  C 344.51 48.81 322.70 95.84 320.53 100.36
  A 0.83 0.79 -77.2 0 1 319.82 100.83
  L 293.98 100.99
  A 0.80 0.79 -88.0 0 1 293.19 100.13
  L 298.73 8.82
  A 0.68 0.68 -88.2 0 1 299.41 8.18
  L 326.05 8.25
  A 0.45 0.45 3.4 0 1 326.50 8.75
  L 319.62 63.01
  Q 319.54 63.63 319.99 63.42
  Q 320.20 63.33 320.32 63.03
  Q 332.06 35.88 343.57 8.96
  A 1.18 1.18 -78.1 0 1 344.65 8.25
  L 368.39 8.25
  A 0.74 0.73 3.8 0 1 369.12 9.08
  L 362.10 62.63
  A 0.33 0.25 -88.3 0 0 362.37 63.01
  Z"
/>
<path fill="#000000" d="
  M 411.10 90.27
  L 406.01 100.40
  A 1.15 1.08 12.5 0 1 405.00 101.00
  L 378.15 101.00
  Q 377.53 101.00 377.85 100.48
  L 434.22 8.98
  A 1.54 1.52 -74.0 0 1 435.52 8.25
  L 462.84 8.25
  A 0.60 0.60 89.5 0 1 463.44 8.84
  L 466.08 100.38
  A 0.61 0.60 89.5 0 1 465.48 101.00
  L 438.62 101.00
  A 0.67 0.65 -88.3 0 1 437.97 100.29
  L 438.56 90.18
  A 0.51 0.48 2.8 0 0 438.07 89.67
  Q 424.94 89.15 411.82 89.79
  A 0.90 0.82 -76.2 0 0 411.10 90.27
  Z
  M 438.74 41.45
  C 433.74 50.65 428.57 59.92 423.39 69.00
  A 0.67 0.67 -75.1 0 0 423.97 70.00
  L 438.20 69.94
  A 1.08 1.05 -89.4 0 0 439.25 68.88
  L 439.75 41.73
  Q 439.79 39.51 438.74 41.45
  Z"
/>
<path fill="#000000" d="
  M 505.21 36.79
  Q 505.43 38.67 506.56 37.15
  L 527.76 8.72
  A 1.00 0.96 -71.1 0 1 528.55 8.31
  L 559.15 8.25
  Q 560.09 8.25 559.49 8.98
  Q 535.54 37.77 512.48 65.79
  Q 510.81 67.82 510.05 70.33
  Q 505.61 85.00 501.33 100.07
  A 1.28 1.27 7.8 0 1 500.10 101.00
  L 474.37 101.00
  A 0.43 0.42 8.5 0 1 473.96 100.45
  Q 478.67 84.83 482.92 69.80
  Q 483.50 67.75 483.04 65.66
  Q 476.75 37.43 470.21 9.06
  A 0.66 0.66 83.4 0 1 470.85 8.25
  L 500.19 8.31
  A 0.60 0.60 -5.2 0 1 500.78 8.80
  Q 503.56 23.15 505.21 36.79
  Z"
/>
<path fill="#000000" d="
  M 74.46 206.47
  C 76.68 206.89 92.48 193.24 95.03 191.01
  C 122.55 166.97 145.54 136.67 165.97 107.65
  A 1.23 1.07 -74.1 0 1 166.74 107.15
  Q 169.44 106.69 168.22 109.99
  C 157.41 139.16 145.88 168.87 137.37 198.78
  Q 137.03 199.96 137.79 199.72
  A 1.39 0.93 -78.4 0 0 138.47 199.05
  C 151.63 172.61 166.27 148.87 189.78 130.31
  Q 191.06 129.30 192.63 129.76
  Q 194.11 130.19 191.82 131.83
  C 165.21 150.88 148.05 184.29 135.31 213.06
  C 128.58 228.25 124.11 211.00 123.38 205.48
  C 120.14 180.94 137.09 153.90 150.97 134.98
  A 1.16 0.80 -36.6 0 0 151.20 134.31
  Q 151.16 133.62 150.48 134.45
  C 138.20 149.46 125.65 165.22 111.98 178.87
  Q 91.86 198.95 68.31 215.00
  C 66.62 216.15 58.13 221.12 58.67 216.24
  A 1.53 1.19 -24.6 0 1 59.11 215.40
  C 77.75 197.14 92.75 172.04 102.86 148.15
  C 107.10 138.13 115.71 113.74 97.50 111.25
  C 78.57 108.67 59.19 126.20 50.37 141.71
  C 45.92 149.54 42.35 158.05 43.81 166.44
  Q 44.90 172.69 50.41 174.39
  C 62.18 178.01 75.14 158.63 78.78 150.02
  C 81.90 142.61 85.30 132.49 83.78 124.61
  Q 83.29 122.05 85.25 123.06
  A 1.30 1.10 -88.3 0 1 85.84 123.80
  C 90.90 140.30 90.23 158.23 76.19 169.94
  C 68.69 176.19 58.31 181.99 48.69 176.96
  C 37.89 171.30 40.22 156.99 44.25 147.75
  C 53.81 125.81 80.15 100.60 105.99 108.79
  Q 120.27 113.32 123.42 125.82
  C 130.47 153.81 94.03 190.20 74.30 205.82
  Q 73.68 206.32 74.46 206.47
  Z"
/>
<path fill="#000000" d="
  M 513.32 212.24
  C 516.91 215.51 520.06 212.68 522.24 209.47
  Q 532.63 194.22 532.84 175.89
  C 532.89 171.38 532.92 168.32 531.56 164.67
  Q 531.08 163.40 530.24 164.47
  Q 515.75 183.14 501.05 202.30
  C 497.35 207.13 492.36 213.05 487.13 216.16
  C 481.81 219.32 475.36 219.97 471.97 214.01
  C 464.88 201.60 479.86 182.00 485.54 171.64
  C 487.59 167.89 485.66 166.05 482.07 168.46
  Q 476.32 172.32 471.56 178.31
  Q 457.25 196.33 445.19 215.94
  Q 444.26 217.45 442.51 217.75
  Q 434.91 219.04 427.75 218.30
  A 0.86 0.86 -74.4 0 1 427.06 217.07
  C 433.07 204.38 440.26 192.39 446.08 179.57
  C 447.03 177.49 451.45 167.39 446.06 169.31
  C 443.87 170.10 439.77 174.29 437.77 176.69
  Q 422.09 195.40 408.76 216.21
  Q 407.90 217.56 406.32 217.82
  Q 399.28 218.98 391.46 218.22
  A 0.90 0.89 -72.0 0 1 390.78 216.87
  Q 401.77 198.28 411.72 179.20
  Q 415.08 172.74 415.00 171.00
  C 414.76 165.98 407.75 174.07 406.74 175.23
  C 396.34 187.09 387.92 200.27 376.60 211.36
  C 372.64 215.24 366.42 219.58 360.89 218.49
  C 351.48 216.64 355.56 204.99 354.23 204.15
  A 0.70 0.52 -52.7 0 0 353.44 204.38
  C 347.13 212.00 332.81 225.87 322.74 213.92
  C 318.72 209.16 318.64 201.96 320.29 196.20
  C 320.74 194.61 320.17 193.40 318.76 195.19
  C 313.27 202.16 300.02 221.09 289.48 218.04
  C 275.06 213.88 288.80 188.40 292.44 181.69
  Q 292.76 181.08 292.62 180.69
  A 0.46 0.35 -34.1 0 0 291.94 180.65
  C 283.82 188.12 265.29 222.35 250.02 217.82
  C 236.11 213.68 248.64 188.02 252.98 180.93
  A 1.41 1.00 -42.5 0 0 253.18 180.00
  Q 252.92 178.81 251.79 180.30
  Q 241.04 194.47 229.49 208.00
  C 225.20 213.02 217.41 220.67 210.33 217.79
  C 197.01 212.35 208.44 188.68 213.75 180.24
  C 214.07 179.72 214.24 177.80 213.13 179.31
  Q 203.12 192.99 192.35 206.09
  C 188.59 210.67 181.64 217.57 175.81 218.41
  C 170.49 219.18 165.52 215.18 165.38 209.50
  C 165.16 200.59 170.63 189.47 175.04 181.86
  C 175.42 181.21 175.81 179.28 174.06 181.06
  Q 171.72 183.45 163.56 194.40
  C 161.42 197.26 159.72 195.31 161.54 192.94
  Q 170.95 180.64 181.44 167.77
  A 3.98 3.95 -76.9 0 1 183.59 166.42
  Q 190.28 164.86 198.15 165.29
  A 1.33 1.33 15.8 0 1 199.25 167.25
  Q 191.33 181.74 182.64 196.86
  C 181.09 199.55 173.32 213.56 177.21 214.59
  A 1.20 1.03 -50.8 0 0 178.10 214.43
  Q 184.15 210.56 190.56 203.06
  Q 211.14 179.01 226.33 157.20
  C 235.54 143.96 243.79 128.79 252.23 114.62
  Q 253.26 112.89 255.23 112.50
  Q 260.94 111.38 267.66 111.81
  A 0.69 0.69 -73.8 0 1 268.22 112.83
  C 252.73 141.61 235.76 169.69 221.08 199.04
  C 219.52 202.17 210.06 219.15 220.19 213.69
  Q 223.52 211.89 228.96 205.18
  Q 245.91 184.29 261.99 162.72
  C 273.22 147.67 282.37 130.79 291.82 114.55
  Q 292.68 113.07 294.35 112.67
  Q 300.82 111.10 307.56 111.91
  A 0.61 0.60 -72.3 0 1 308.01 112.80
  C 293.83 138.75 278.78 164.14 264.88 190.22
  Q 257.87 203.37 255.25 211.50
  C 253.82 215.93 257.45 214.75 259.26 213.41
  Q 265.82 208.53 272.06 201.06
  Q 285.69 184.77 299.00 167.82
  Q 300.47 165.95 302.83 165.64
  Q 309.48 164.76 316.76 165.48
  A 0.69 0.68 -72.5 0 1 317.29 166.50
  Q 309.10 181.18 300.80 195.56
  C 300.44 196.19 288.04 219.07 296.61 213.94
  Q 298.50 212.80 300.13 211.32
  C 311.61 200.90 320.04 189.10 332.19 176.44
  C 341.23 167.02 358.24 156.47 368.57 170.45
  Q 370.25 172.71 371.07 170.02
  C 373.16 163.26 383.26 164.94 388.52 165.78
  A 0.78 0.78 -71.0 0 1 389.08 166.93
  C 382.07 179.65 373.91 192.53 368.01 205.63
  C 358.54 226.70 378.02 206.52 379.42 204.98
  C 384.79 199.05 392.43 189.28 398.14 181.12
  C 402.06 175.51 409.86 165.55 418.01 164.85
  C 431.88 163.68 424.57 184.99 421.57 191.53
  C 420.12 194.68 422.66 192.22 422.95 191.84
  C 428.63 184.16 442.23 162.69 452.93 164.10
  C 464.67 165.64 459.15 184.27 456.73 190.74
  C 456.17 192.25 457.43 191.80 457.91 191.12
  C 462.83 184.19 483.97 154.92 493.70 167.80
  C 502.12 178.95 488.64 197.99 482.27 207.79
  Q 480.50 210.52 480.25 213.75
  Q 480.01 216.95 482.19 215.69
  C 489.06 211.71 493.59 207.05 498.97 200.16
  Q 517.28 176.71 535.88 152.28
  A 3.25 3.20 -80.9 0 1 537.32 151.22
  C 539.11 150.59 539.60 152.06 538.77 153.37
  C 536.31 157.24 532.93 158.64 535.00 164.00
  C 539.82 176.51 547.02 187.03 544.53 201.27
  Q 544.24 202.93 545.33 201.65
  C 546.24 200.58 554.01 189.86 554.69 193.26
  A 1.28 1.00 -37.8 0 1 554.46 194.16
  C 545.74 206.13 531.37 225.42 513.71 215.79
  Q 508.93 213.18 507.14 209.36
  C 505.36 205.56 505.56 196.75 511.75 196.51
  C 520.64 196.16 520.85 206.95 513.88 209.45
  Q 511.28 210.38 513.32 212.24
  Z
  M 351.44 174.19
  C 346.19 181.04 326.55 207.62 331.23 214.75
  Q 332.51 216.70 334.73 216.01
  C 347.44 212.06 359.21 191.67 364.59 180.33
  C 366.47 176.35 367.33 169.81 362.49 168.00
  C 358.18 166.40 353.84 171.05 351.44 174.19
  Z"
/>
<ellipse fill="#000000" cx="0.00" cy="0.00" transform="translate(323.64,137.24) rotate(123.4)" rx="9.24" ry="7.69"/>
<ellipse fill="#000000" cx="0.00" cy="0.00" transform="translate(206.18,137.64) rotate(123.3)" rx="9.24" ry="7.69"/>
<path fill="#000000" d="
  M 594.89 259.88
  A 32.10 32.10 0.0 0 1 562.79 291.98
  L 38.21 291.98
  A 32.10 32.10 0.0 0 1 6.11 259.88
  L 6.11 259.12
  A 32.10 32.10 0.0 0 1 38.21 227.02
  L 562.79 227.02
  A 32.10 32.10 0.0 0 1 594.89 259.12
  L 594.89 259.88
  Z
  M 62.80 275.45
  A 2.48 2.47 -75.9 0 1 61.50 273.27
  Q 61.50 261.31 61.50 250.42
  C 61.50 246.82 61.05 244.76 64.69 243.69
  C 70.47 241.98 77.98 242.19 76.89 250.85
  A 0.98 0.97 -86.3 0 0 77.85 251.95
  L 90.59 252.00
  A 0.64 0.63 -86.4 0 0 91.22 251.44
  C 92.99 237.15 78.28 235.89 68.29 235.99
  C 61.48 236.05 46.25 237.29 46.25 247.25
  Q 46.25 255.82 46.25 264.40
  Q 46.25 273.18 46.85 275.04
  C 50.63 286.70 73.93 284.54 82.24 282.07
  C 90.50 279.62 91.88 274.56 91.23 266.31
  A 0.56 0.54 87.7 0 0 90.69 265.79
  L 77.69 265.91
  A 0.56 0.54 -88.8 0 0 77.16 266.44
  L 76.77 273.45
  A 2.52 2.46 -11.4 0 1 75.33 275.56
  Q 68.68 278.65 62.80 275.45
  Z
  M 135.80 275.44
  Q 135.13 256.01 135.68 236.81
  A 0.79 0.79 -89.3 0 0 134.89 236.00
  L 121.36 236.00
  A 0.86 0.86 -89.6 0 0 120.50 236.86
  L 120.50 282.41
  A 0.59 0.59 0.0 0 0 121.09 283.00
  L 159.51 283.00
  A 0.99 0.99 0.0 0 0 160.50 282.01
  L 160.50 277.02
  A 1.04 1.03 0.3 0 0 159.47 275.99
  L 136.32 275.94
  A 0.52 0.51 -0.6 0 1 135.80 275.44
  Z
  M 216.56 274.79
  L 219.00 282.34
  A 0.75 0.71 -8.2 0 0 219.69 282.83
  L 233.54 283.06
  A 0.59 0.58 81.7 0 0 234.10 282.29
  L 219.11 236.57
  A 0.83 0.82 80.6 0 0 218.33 236.00
  L 197.64 236.00
  A 1.12 1.11 9.0 0 0 196.58 236.76
  L 181.72 282.35
  A 0.45 0.45 8.9 0 0 182.15 282.94
  L 194.58 282.99
  A 1.26 1.16 -81.2 0 0 195.73 282.07
  L 197.79 274.83
  A 1.09 1.09 -81.6 0 1 198.85 274.04
  L 215.93 274.28
  A 0.73 0.64 80.1 0 1 216.56 274.79
  Z
  M 262.10 256.69
  C 269.40 261.46 278.18 264.09 282.94 267.56
  C 285.96 269.77 287.77 274.85 283.01 276.28
  C 278.82 277.53 269.16 278.06 270.59 270.51
  A 1.24 1.20 -84.5 0 0 269.41 269.03
  L 256.68 269.16
  A 0.59 0.56 -87.7 0 0 256.13 269.69
  Q 255.27 278.93 263.50 281.75
  C 272.16 284.72 290.25 285.86 297.96 279.24
  C 303.10 274.83 301.49 268.46 296.67 264.42
  C 291.66 260.22 286.10 258.50 278.69 254.81
  C 258.23 244.62 287.66 236.93 286.72 249.15
  A 0.79 0.79 2.3 0 0 287.51 250.00
  L 299.89 250.00
  A 1.24 1.24 86.2 0 0 301.12 248.59
  Q 299.89 239.74 292.04 237.61
  C 283.11 235.18 268.46 234.78 260.69 239.94
  C 253.94 244.42 256.13 252.79 262.10 256.69
  Z
  M 331.18 256.58
  Q 338.90 261.24 347.20 264.77
  C 350.14 266.02 354.70 268.89 354.95 272.38
  C 355.37 278.22 337.89 279.87 339.59 270.48
  A 1.22 1.19 -84.6 0 0 338.43 269.04
  L 325.81 269.05
  A 0.59 0.57 -86.0 0 0 325.24 269.56
  C 322.68 288.50 361.58 287.02 368.51 277.23
  C 377.10 265.11 351.83 257.39 345.20 253.32
  C 329.95 243.95 356.50 237.47 355.72 249.15
  A 0.80 0.80 -88.3 0 0 356.52 250.00
  L 369.18 250.00
  A 0.82 0.82 0.0 0 0 370.00 249.18
  C 369.99 232.11 338.43 234.23 329.81 239.81
  C 323.04 244.21 324.92 252.80 331.18 256.58
  Z
  M 411.51 236.42
  A 0.41 0.41 0.0 0 0 411.10 236.01
  L 396.90 236.01
  A 0.41 0.41 0.0 0 0 396.49 236.42
  L 396.49 282.58
  A 0.41 0.41 0.0 0 0 396.90 282.99
  L 411.10 282.99
  A 0.41 0.41 0.0 0 0 411.51 282.58
  L 411.51 236.42
  Z
  M 455.43 275.25
  A 1.77 1.77 13.0 0 1 454.50 273.76
  Q 454.04 262.06 454.46 250.36
  C 454.57 247.24 453.91 244.79 457.67 243.62
  Q 463.46 241.83 468.62 244.69
  A 1.36 1.35 -86.4 0 1 469.25 245.41
  Q 470.32 248.21 470.05 251.25
  A 0.50 0.45 -87.6 0 0 470.49 251.79
  L 483.56 251.85
  A 0.61 0.57 -86.0 0 0 484.13 251.32
  Q 485.52 240.12 474.50 237.50
  C 465.81 235.44 451.04 234.67 443.56 239.81
  Q 439.25 242.78 439.25 246.75
  Q 439.25 259.00 439.00 271.25
  C 438.71 285.83 463.44 284.97 472.30 282.91
  C 481.80 280.71 485.32 276.76 484.03 266.81
  A 1.18 1.14 86.1 0 0 482.88 265.78
  L 470.69 265.91
  A 0.56 0.53 -88.3 0 0 470.16 266.44
  L 469.77 273.45
  A 2.49 2.46 -11.1 0 1 468.33 275.56
  Q 461.68 278.64 455.43 275.25
  Z
  M 517.10 256.69
  C 524.87 261.74 539.83 265.46 540.99 272.47
  Q 541.42 275.06 538.95 275.93
  C 534.47 277.52 524.15 278.42 525.59 270.48
  A 1.22 1.19 -84.6 0 0 524.43 269.04
  L 511.81 269.05
  A 0.58 0.57 -86.0 0 0 511.24 269.55
  C 508.86 287.04 537.71 285.03 547.45 282.08
  C 555.30 279.70 559.68 271.51 552.81 265.44
  Q 547.31 260.57 539.07 257.42
  C 535.27 255.97 523.79 250.68 527.15 245.75
  C 530.16 241.31 542.31 241.55 541.72 249.15
  A 0.79 0.79 2.3 0 0 542.51 250.00
  L 555.17 250.00
  A 0.83 0.83 0.2 0 0 556.00 249.17
  C 555.99 232.09 524.44 234.25 515.81 239.81
  C 508.97 244.22 511.06 252.76 517.10 256.69
  Z"
/>
<path fill="#000000" d="
  M 200.07 267.53
  L 206.78 245.52
  A 0.37 0.37 45.3 0 1 207.48 245.52
  L 214.19 267.53
  A 0.37 0.37 0.0 0 1 213.84 268.00
  L 200.42 268.00
  A 0.37 0.37 0.0 0 1 200.07 267.53
  Z"
/>
</svg>
