<?xml version="1.0" encoding="UTF-8" standalone="no"?>
<!DOCTYPE svg PUBLIC "-//W3C//DTD SVG 1.1//EN" "http://www.w3.org/Graphics/SVG/1.1/DTD/svg11.dtd">
<svg xmlns="http://www.w3.org/2000/svg" version="1.1" viewBox="0 0 600 300">
<g stroke-width="2.00" fill="none" stroke-linecap="butt">
<path stroke="#000000" stroke-opacity="0.663" vector-effect="non-scaling-stroke" d="
  M 316.25 47.29
  C 313.15 47.99 308.27 49.00 306.25 51.21"
/>
<path stroke="#000000" stroke-opacity="0.690" vector-effect="non-scaling-stroke" d="
  M 296.25 82.04
  Q 291.27 83.35 286.50 81.54"
/>
<path stroke="#000000" stroke-opacity="0.663" vector-effect="non-scaling-stroke" d="
  M 279.71 74.25
  C 275.86 79.75 270.22 80.99 263.26 83.28
  Q 260.58 84.17 261.54 87.00"
/>
<path stroke="#000000" stroke-opacity="0.690" vector-effect="non-scaling-stroke" d="
  M 292.29 85.75
  Q 293.27 84.70 294.50 85.04"
/>
<path stroke="#000000" stroke-opacity="0.690" vector-effect="non-scaling-stroke" d="
  M 300.71 120.50
  Q 297.00 124.76 292.06 126.31
  Q 289.33 127.17 290.04 129.75"
/>
<path stroke="#000000" stroke-opacity="0.690" vector-effect="non-scaling-stroke" d="
  M 344.96 77.25
  C 345.20 70.51 340.98 72.65 337.05 73.98
  Q 331.96 75.69 326.97 77.65
  C 326.36 77.89 325.60 78.89 325.22 77.41"
/>
<path stroke="#000000" stroke-opacity="0.639" vector-effect="non-scaling-stroke" d="
  M 363.06 60.51
  Q 371.73 55.04 377.29 62.10"
/>
<path stroke="#000000" stroke-opacity="0.690" vector-effect="non-scaling-stroke" d="
  M 377.00 88.29
  Q 366.52 91.78 356.21 95.78
  C 354.43 96.47 352.92 96.21 351.06 96.29
  A 1.31 1.09 -65.8 0 0 350.24 96.69
  C 347.47 99.69 339.29 101.72 335.32 102.87"
/>
<path stroke="#000000" stroke-opacity="0.690" vector-effect="non-scaling-stroke" d="
  M 332.46 104.25
  L 314.03 111.15
  A 0.93 0.63 -12.3 0 0 313.42 111.79
  L 313.25 114.40"
/>
<path stroke="#000000" stroke-opacity="0.690" vector-effect="non-scaling-stroke" d="
  M 310.46 123.75
  C 305.92 130.13 301.03 133.76 293.50 136.41
  Q 289.37 137.86 285.54 140.00"
/>
<path stroke="#000000" stroke-opacity="0.663" vector-effect="non-scaling-stroke" d="
  M 282.00 123.29
  Q 276.51 124.01 272.25 127.46"
/>
<path stroke="#000000" stroke-opacity="0.690" vector-effect="non-scaling-stroke" d="
  M 267.38 127.99
  Q 262.72 129.02 256.94 131.44
  Q 249.06 134.73 225.65 142.76"
/>
<path stroke="#000000" stroke-opacity="0.663" vector-effect="non-scaling-stroke" d="
  M 336.46 54.50
  Q 329.22 62.16 322.24 70.06
  C 321.39 71.03 321.04 72.25 322.09 73.14"
/>
<path stroke="#000000" stroke-opacity="0.690" vector-effect="non-scaling-stroke" d="
  M 324.29 78.00
  L 325.85 81.89"
/>
<path stroke="#000000" stroke-opacity="0.690" vector-effect="non-scaling-stroke" d="
  M 305.20 59.06
  Q 304.07 59.00 305.00 58.29"
/>
<path stroke="#000000" stroke-opacity="0.608" vector-effect="non-scaling-stroke" d="
  M 306.75 58.29
  Q 310.90 63.06 316.90 64.79"
/>
<path stroke="#000000" stroke-opacity="0.608" vector-effect="non-scaling-stroke" d="
  M 327.12 57.85
  L 329.54 56.50"
/>
<path stroke="#000000" stroke-opacity="0.663" vector-effect="non-scaling-stroke" d="
  M 397.46 85.25
  C 379.60 108.06 340.00 118.60 313.55 123.41"
/>
<path stroke="#000000" stroke-opacity="0.639" vector-effect="non-scaling-stroke" d="
  M 396.96 73.00
  C 395.07 58.38 363.63 55.04 352.81 54.82"
/>
<path stroke="#000000" stroke-opacity="0.608" vector-effect="non-scaling-stroke" d="
  M 317.21 60.25
  C 316.50 58.48 315.26 59.60 314.17 59.81
  C 309.39 60.74 315.32 63.56 316.50 63.54"
/>
<path stroke="#000000" stroke-opacity="0.608" vector-effect="non-scaling-stroke" d="
  M 330.25 54.54
  Q 318.55 54.63 307.00 56.46"
/>
<path stroke="#000000" stroke-opacity="0.663" vector-effect="non-scaling-stroke" d="
  M 238.47 72.85
  Q 224.58 78.24 212.37 86.89
  Q 211.03 87.84 205.06 93.81
  Q 202.18 96.70 201.81 100.01"
/>
<path stroke="#000000" stroke-opacity="0.663" vector-effect="non-scaling-stroke" d="
  M 217.25 122.71
  C 209.51 120.45 199.51 114.75 198.21 106.00"
/>
<path stroke="#010101" stroke-opacity="0.855" vector-effect="non-scaling-stroke" d="
  M 198.21 106.00
  L 198.46 103.00"
/>
<path stroke="#000000" stroke-opacity="0.690" vector-effect="non-scaling-stroke" d="
  M 372.75 82.45
  Q 374.31 79.93 372.00 79.35
  A 1.86 0.98 -33.2 0 0 371.04 79.44
  L 355.86 84.54"
/>
<path stroke="#000000" stroke-opacity="0.690" vector-effect="non-scaling-stroke" d="
  M 372.62 66.20
  C 373.44 62.96 370.50 62.14 367.98 63.05
  Q 362.64 64.98 357.27 66.82
  Q 350.35 69.18 350.19 76.45"
/>
<path stroke="#000000" stroke-opacity="0.690" vector-effect="non-scaling-stroke" d="
  M 318.43 84.43
  Q 319.58 81.07 317.00 81.25
  Q 312.89 81.54 313.06 83.56
  L 313.29 86.25"
/>
<path stroke="#000000" stroke-opacity="0.690" vector-effect="non-scaling-stroke" d="
  M 252.86 125.84
  C 254.31 122.34 252.21 122.24 249.90 123.22
  Q 242.85 126.21 235.54 128.50"
/>
<path stroke="#000000" stroke-opacity="0.690" vector-effect="non-scaling-stroke" d="
  M 246.36 110.93
  Q 246.64 108.49 245.77 107.67
  Q 245.07 107.02 243.27 107.85
  Q 239.55 109.59 235.50 110.29"
/>
<path stroke="#000000" stroke-opacity="0.690" vector-effect="non-scaling-stroke" d="
  M 248.93 91.78
  Q 250.53 89.61 248.22 88.67
  A 1.39 1.22 -40.6 0 0 247.29 88.66
  L 230.80 94.57
  A 2.38 1.95 79.2 0 0 229.53 96.90
  L 229.79 100.00"
/>
<path stroke="#000000" stroke-opacity="0.690" vector-effect="non-scaling-stroke" d="
  M 280.25 98.19
  C 279.90 95.96 278.01 95.49 276.04 96.16
  Q 267.20 99.15 258.53 102.62
  A 1.11 1.00 -4.7 0 0 257.91 103.28
  Q 257.38 105.02 257.64 106.49"
/>
<path stroke="#000000" stroke-opacity="0.663" vector-effect="non-scaling-stroke" d="
  M 250.21 115.50
  C 249.56 115.74 236.62 119.80 240.52 121.58
  A 1.49 1.10 -35.2 0 0 241.48 121.60
  L 252.22 118.19"
/>
<path stroke="#000000" stroke-opacity="0.690" vector-effect="non-scaling-stroke" d="
  M 252.96 100.50
  Q 253.83 99.01 253.07 97.88
  A 0.81 0.68 -22.4 0 0 252.26 97.62
  Q 246.44 99.06 241.01 101.60
  A 1.51 1.26 -4.3 0 0 240.33 102.26
  C 238.76 105.82 248.61 101.54 249.81 101.21
  A 0.56 0.56 -3.3 0 1 250.52 101.84
  Q 250.34 103.05 250.71 104.00"
/>
<path stroke="#000000" stroke-opacity="0.663" vector-effect="non-scaling-stroke" d="
  M 366.50 71.79
  L 356.04 75.75"
/>
<path stroke="#000000" stroke-opacity="0.690" vector-effect="non-scaling-stroke" d="
  M 302.75 104.29
  Q 296.93 106.75 290.79 108.25"
/>
</g>
<path fill="#000000" d="
  M 316.25 47.29
  C 313.15 47.99 308.27 49.00 306.25 51.21
  Q 303.65 50.93 303.93 48.25
  A 0.45 0.39 89.9 0 0 303.50 47.76
  Q 302.73 47.86 302.21 48.52
  A 1.64 1.27 4.5 0 1 301.45 49.02
  L 297.45 50.29
  A 0.91 0.71 88.1 0 0 296.93 51.00
  Q 295.84 58.99 296.31 68.23
  A 1.08 1.03 -12.2 0 0 297.76 69.12
  L 303.16 67.13
  A 2.10 1.93 -12.1 0 0 304.53 65.19
  Q 304.44 63.16 305.57 63.13
  A 0.81 0.76 76.5 0 1 306.31 63.62
  L 308.60 68.77
  A 1.03 0.83 -43.5 0 1 308.48 69.67
  Q 303.56 77.04 296.25 82.04
  Q 291.27 83.35 286.50 81.54
  Q 283.43 78.41 283.50 74.25
  Q 283.66 65.18 283.77 56.12
  C 283.95 40.11 295.75 39.51 307.15 34.63
  Q 310.21 33.33 313.25 35.75
  Q 319.16 40.46 316.25 47.29
  Z"
/>
<path fill="#000001" fill-opacity="0.322" d="
  M 316.25 47.29
  Q 316.75 48.96 315.06 49.81
  Q 310.41 52.16 306.25 51.21
  C 308.27 49.00 313.15 47.99 316.25 47.29
  Z"
/>
<path fill="#000000" d="
  M 279.71 74.25
  C 275.86 79.75 270.22 80.99 263.26 83.28
  Q 260.58 84.17 261.54 87.00
  L 261.50 95.55
  A 0.99 0.98 -10.0 0 0 262.83 96.47
  C 267.38 94.82 274.93 90.83 279.67 91.65
  C 280.41 91.78 281.23 92.52 282.20 92.49
  A 1.27 0.90 -64.0 0 0 283.01 92.05
  Q 286.75 87.64 292.29 85.75
  Q 293.27 84.70 294.50 85.04
  L 289.46 91.25
  C 283.75 95.83 285.50 104.76 285.52 111.25
  Q 285.54 116.54 290.46 114.75
  Q 295.62 112.87 301.34 110.88
  A 1.27 1.27 77.9 0 1 303.02 111.97
  Q 303.40 116.56 300.71 120.50
  Q 297.00 124.76 292.06 126.31
  Q 289.33 127.17 290.04 129.75
  Q 288.58 133.55 291.78 132.61
  Q 300.63 130.03 305.62 122.39
  C 308.70 117.68 308.24 114.69 308.28 107.76
  Q 308.34 96.51 308.00 85.33
  A 0.68 0.68 -14.1 0 0 307.01 84.74
  Q 302.92 86.82 298.74 88.66
  Q 296.11 89.81 298.07 88.03
  Q 298.30 87.82 298.58 87.65
  Q 306.50 82.75 315.01 77.59
  A 2.57 2.18 44.7 0 1 317.60 77.79
  L 322.00 80.85
  A 2.31 1.82 21.0 0 1 322.99 82.51
  L 323.19 101.82
  A 0.50 0.46 87.3 0 0 323.69 102.31
  Q 325.13 102.20 327.27 100.74
  A 1.84 1.67 75.2 0 0 328.02 99.30
  L 328.24 84.09
  A 1.98 1.88 -9.9 0 1 329.55 82.32
  L 338.20 79.18
  A 0.94 0.91 -10.6 0 1 339.45 80.01
  L 339.66 95.93
  A 0.63 0.61 88.6 0 0 340.29 96.55
  Q 342.97 96.44 344.87 94.31
  A 1.37 1.09 70.4 0 0 345.17 93.43
  L 344.96 77.25
  C 345.20 70.51 340.98 72.65 337.05 73.98
  Q 331.96 75.69 326.97 77.65
  C 326.36 77.89 325.60 78.89 325.22 77.41
  Q 323.63 75.87 324.36 74.72
  C 325.53 72.86 337.64 69.49 340.26 68.67
  Q 343.52 67.66 346.39 69.28
  A 0.96 0.95 30.4 0 0 347.68 68.95
  C 350.65 64.04 357.73 61.52 363.06 60.51
  Q 371.73 55.04 377.29 62.10
  C 378.12 67.12 376.83 71.37 377.34 75.96
  Q 378.03 82.12 377.00 88.29
  Q 366.52 91.78 356.21 95.78
  C 354.43 96.47 352.92 96.21 351.06 96.29
  A 1.31 1.09 -65.8 0 0 350.24 96.69
  C 347.47 99.69 339.29 101.72 335.32 102.87
  L 335.08 86.18
  A 0.61 0.57 -87.3 0 0 334.58 85.59
  Q 332.72 85.34 332.77 87.75
  Q 332.97 96.01 332.46 104.25
  L 314.03 111.15
  A 0.93 0.63 -12.3 0 0 313.42 111.79
  L 313.25 114.40
  Q 312.82 119.50 310.46 123.75
  C 305.92 130.13 301.03 133.76 293.50 136.41
  Q 289.37 137.86 285.54 140.00
  Q 284.72 134.42 284.94 128.78
  C 285.05 125.75 284.15 122.79 288.50 122.50
  Q 292.62 122.22 295.31 119.58
  C 298.85 116.09 293.85 118.61 293.70 118.65
  Q 287.59 120.33 282.00 123.29
  Q 276.51 124.01 272.25 127.46
  C 268.36 128.70 272.19 108.10 269.21 109.10
  A 1.82 1.75 82.4 0 0 268.00 110.74
  L 267.38 127.99
  Q 262.72 129.02 256.94 131.44
  Q 249.06 134.73 225.65 142.76
  L 225.50 92.96
  A 1.91 1.88 -10.7 0 1 226.72 91.20
  L 248.16 83.04
  A 1.31 1.30 79.6 0 0 249.00 81.82
  Q 249.00 70.60 249.00 60.14
  C 249.00 55.46 248.80 55.73 253.07 54.21
  Q 260.13 51.69 267.17 49.14
  C 272.59 47.17 279.50 45.84 281.39 52.61
  C 282.97 58.29 282.15 68.03 279.71 74.25
  Z
  M 264.28 62.03
  Q 263.72 61.96 262.66 62.70
  A 1.17 0.89 -20.5 0 0 262.16 63.50
  L 261.81 71.56
  A 0.55 0.54 80.7 0 0 262.55 72.10
  L 268.52 69.70
  A 1.25 0.79 -84.7 0 0 269.10 68.95
  Q 269.95 66.18 269.25 63.38
  C 268.84 61.72 269.79 58.76 266.48 61.42
  A 2.89 2.88 -60.4 0 1 264.28 62.03
  Z
  M 350.19 76.45
  C 350.24 79.62 348.30 93.68 354.81 91.31
  Q 368.46 86.35 371.25 85.50
  Q 373.44 84.83 372.75 82.45
  Q 374.31 79.93 372.00 79.35
  A 1.86 0.98 -33.2 0 0 371.04 79.44
  L 355.86 84.54
  Q 354.79 82.33 356.06 81.56
  C 362.10 77.95 375.07 78.82 372.62 66.20
  C 373.44 62.96 370.50 62.14 367.98 63.05
  Q 362.64 64.98 357.27 66.82
  Q 350.35 69.18 350.19 76.45
  Z
  M 313.29 86.25
  L 313.25 105.32
  A 0.82 0.81 -6.5 0 0 314.25 106.11
  Q 316.52 105.60 318.05 104.49
  A 1.00 0.96 72.7 0 0 318.45 103.69
  L 318.43 84.43
  Q 319.58 81.07 317.00 81.25
  Q 312.89 81.54 313.06 83.56
  L 313.29 86.25
  Z
  M 229.79 100.00
  L 229.75 135.55
  A 0.88 0.87 80.0 0 0 230.92 136.38
  L 252.22 128.62
  A 1.24 0.96 -4.9 0 0 252.91 127.98
  Q 253.23 127.09 252.86 125.84
  C 254.31 122.34 252.21 122.24 249.90 123.22
  Q 242.85 126.21 235.54 128.50
  L 235.32 117.49
  A 1.58 1.47 -5.8 0 1 236.64 115.99
  Q 242.66 114.93 246.36 110.93
  Q 246.64 108.49 245.77 107.67
  Q 245.07 107.02 243.27 107.85
  Q 239.55 109.59 235.50 110.29
  Q 234.86 104.79 235.50 99.31
  A 0.83 0.83 83.0 0 1 236.03 98.63
  Q 242.22 96.25 248.46 93.99
  Q 249.51 93.61 248.93 91.78
  Q 250.53 89.61 248.22 88.67
  A 1.39 1.22 -40.6 0 0 247.29 88.66
  L 230.80 94.57
  A 2.38 1.95 79.2 0 0 229.53 96.90
  L 229.79 100.00
  Z
  M 257.64 106.49
  L 257.73 125.32
  A 0.74 0.71 84.4 0 0 258.57 126.04
  Q 261.14 125.57 262.38 124.59
  A 1.15 0.92 74.5 0 0 262.74 123.75
  L 262.93 107.98
  A 2.04 2.02 -9.7 0 1 264.28 106.09
  L 273.32 102.89
  Q 275.25 102.20 275.25 104.29
  Q 275.25 111.50 275.35 118.25
  C 275.40 121.17 277.29 119.56 278.67 119.11
  C 281.28 118.28 280.48 116.38 280.52 114.32
  Q 280.65 106.32 280.25 98.19
  C 279.90 95.96 278.01 95.49 276.04 96.16
  Q 267.20 99.15 258.53 102.62
  A 1.11 1.00 -4.7 0 0 257.91 103.28
  Q 257.38 105.02 257.64 106.49
  Z
  M 250.71 104.00
  Q 251.18 109.79 250.21 115.50
  C 249.56 115.74 236.62 119.80 240.52 121.58
  A 1.49 1.10 -35.2 0 0 241.48 121.60
  L 252.22 118.19
  Q 254.24 109.39 252.96 100.50
  Q 253.83 99.01 253.07 97.88
  A 0.81 0.68 -22.4 0 0 252.26 97.62
  Q 246.44 99.06 241.01 101.60
  A 1.51 1.26 -4.3 0 0 240.33 102.26
  C 238.76 105.82 248.61 101.54 249.81 101.21
  A 0.56 0.56 -3.3 0 1 250.52 101.84
  Q 250.34 103.05 250.71 104.00
  Z"
/>
<path fill="#000000" d="
  M 336.46 54.50
  Q 329.22 62.16 322.24 70.06
  C 321.39 71.03 321.04 72.25 322.09 73.14
  Q 322.54 76.08 324.29 78.00
  L 325.85 81.89
  Q 321.34 79.59 317.62 76.50
  A 2.15 2.15 -40.3 0 0 315.16 76.30
  Q 303.81 82.91 292.66 90.70
  Q 290.41 92.27 291.88 89.91
  L 309.69 70.44
  A 1.47 1.46 57.4 0 0 310.00 69.02
  Q 308.35 63.66 305.20 59.06
  Q 304.07 59.00 305.00 58.29
  L 306.75 58.29
  Q 310.90 63.06 316.90 64.79
  L 327.12 57.85
  L 329.54 56.50
  Q 335.09 53.63 340.02 49.79
  A 0.76 0.47 -46.1 0 1 340.67 49.62
  C 341.13 49.82 336.88 54.04 336.46 54.50
  Z"
/>
<path fill="#000000" d="
  M 330.25 54.54
  Q 318.55 54.63 307.00 56.46
  L 299.81 57.11
  A 1.04 0.73 -15.8 0 1 298.97 56.82
  C 298.01 55.60 299.43 55.05 300.41 54.91
  Q 315.74 52.72 331.22 52.27
  C 331.56 52.26 335.28 50.99 333.86 52.36
  Q 332.31 53.87 330.25 54.54
  Z"
/>
<path fill="#000000" d="
  M 397.46 85.25
  C 379.60 108.06 340.00 118.60 313.55 123.41
  Q 313.79 121.11 315.50 120.75
  C 342.01 115.14 377.11 105.98 394.19 85.19
  Q 398.55 79.87 396.96 73.00
  C 395.07 58.38 363.63 55.04 352.81 54.82
  Q 346.08 54.11 338.87 54.54
  A 0.31 0.31 -78.2 0 1 338.58 54.09
  C 339.97 51.25 342.00 51.99 344.50 52.00
  C 359.45 52.06 394.06 54.37 399.82 72.46
  Q 400.30 73.97 401.58 74.91
  Q 403.13 76.07 401.44 77.44
  Q 401.09 77.72 399.75 80.50
  L 397.46 85.25
  Z"
/>
<path fill="#010100" fill-opacity="0.216" d="
  M 330.25 54.54
  Q 326.39 54.77 329.54 56.50
  L 327.12 57.85
  Q 322.99 57.46 319.03 58.37
  C 317.88 58.64 316.67 58.15 317.21 60.25
  C 316.50 58.48 315.26 59.60 314.17 59.81
  C 309.39 60.74 315.32 63.56 316.50 63.54
  Q 315.46 64.52 316.90 64.79
  Q 310.90 63.06 306.75 58.29
  Q 308.03 57.44 307.00 56.46
  Q 318.55 54.63 330.25 54.54
  Z"
/>
<path fill="#000001" fill-opacity="0.322" d="
  M 336.46 54.50
  Q 336.80 55.15 337.51 55.10
  A 0.58 0.37 -1.3 0 1 338.13 55.48
  L 338.11 55.88
  A 1.05 0.53 -29.8 0 1 337.70 56.50
  Q 333.80 59.67 331.50 62.75
  Q 326.83 69.01 322.09 73.14
  C 321.04 72.25 321.39 71.03 322.24 70.06
  Q 329.22 62.16 336.46 54.50
  Z"
/>
<path fill="#010100" fill-opacity="0.278" d="
  M 352.81 54.82
  C 363.63 55.04 395.07 58.38 396.96 73.00
  L 394.70 71.51
  A 1.65 0.70 78.2 0 1 394.14 70.71
  C 393.26 68.62 391.27 67.92 390.00 66.93
  Q 384.39 62.55 377.29 62.10
  Q 371.73 55.04 363.06 60.51
  Q 363.83 58.93 361.98 58.58
  Q 352.09 56.71 342.00 57.19
  Q 337.27 57.42 340.52 56.18
  Q 340.98 56.00 341.50 56.06
  Q 347.39 56.75 352.81 54.82
  Z"
/>
<path fill="#000000" fill-opacity="0.376" d="
  M 305.00 58.29
  Q 304.07 59.00 305.20 59.06
  C 304.47 59.24 298.22 60.22 299.39 58.84
  A 1.30 0.71 8.0 0 1 300.24 58.52
  L 305.00 58.29
  Z"
/>
<path fill="#000000" d="
  M 317.21 60.25
  Q 317.99 62.26 316.50 63.54
  C 315.32 63.56 309.39 60.74 314.17 59.81
  C 315.26 59.60 316.50 58.48 317.21 60.25
  Z"
/>
<path fill="#000000" fill-opacity="0.376" d="
  M 372.62 66.20
  Q 365.95 66.13 358.25 69.50
  Q 354.64 71.08 352.75 73.30
  A 1.95 1.37 2.6 0 1 351.95 73.81
  Q 350.21 74.37 350.19 76.45
  Q 350.35 69.18 357.27 66.82
  Q 362.64 64.98 367.98 63.05
  C 370.50 62.14 373.44 62.96 372.62 66.20
  Z"
/>
<path fill="#000000" d="
  M 238.47 72.85
  Q 224.58 78.24 212.37 86.89
  Q 211.03 87.84 205.06 93.81
  Q 202.18 96.70 201.81 100.01
  C 196.46 112.65 213.05 119.43 221.88 122.38
  C 224.07 123.11 223.43 124.81 221.31 123.99
  Q 219.32 123.23 217.25 122.71
  C 209.51 120.45 199.51 114.75 198.21 106.00
  L 198.46 103.00
  C 201.62 84.65 229.66 73.43 244.78 67.92
  A 0.66 0.60 -24.5 0 1 245.54 68.16
  C 246.77 70.19 239.90 72.16 238.47 72.85
  Z"
/>
<path fill="#000000" d="
  M 366.50 71.79
  L 356.04 75.75
  C 353.82 72.80 361.81 70.80 365.29 69.43
  A 1.49 1.23 -42.4 0 1 366.24 69.38
  Q 368.20 70.00 366.50 71.79
  Z"
/>
<path fill="#000001" fill-opacity="0.322" d="
  M 201.81 100.01
  Q 202.18 96.70 205.06 93.81
  Q 211.03 87.84 212.37 86.89
  Q 224.58 78.24 238.47 72.85
  Q 241.43 73.11 244.12 71.71
  C 244.58 71.47 245.33 71.28 245.46 71.94
  A 1.12 0.68 -34.5 0 1 245.08 72.79
  C 242.63 75.14 240.09 75.66 237.14 76.90
  C 229.61 80.06 220.14 84.39 213.40 89.68
  Q 213.07 89.94 212.51 90.03
  C 211.29 90.23 211.16 91.10 210.55 91.67
  Q 206.12 95.81 201.81 100.01
  Z"
/>
<path fill="#000001" fill-opacity="0.322" d="
  M 366.50 71.79
  Q 366.99 72.97 366.72 74.08
  A 1.20 1.00 -9.1 0 1 366.11 74.78
  C 363.72 75.93 353.69 81.76 356.04 75.75
  L 366.50 71.79
  Z"
/>
<path fill="#000000" fill-opacity="0.376" d="
  M 344.96 77.25
  L 344.65 75.98
  A 0.69 0.65 -6.0 0 0 344.00 75.48
  C 338.42 75.37 334.10 78.49 327.98 80.35
  A 1.65 0.66 25.4 0 1 327.04 80.29
  Q 326.02 80.01 325.85 81.89
  L 324.29 78.00
  Q 324.87 78.27 325.22 77.41
  C 325.60 78.89 326.36 77.89 326.97 77.65
  Q 331.96 75.69 337.05 73.98
  C 340.98 72.65 345.20 70.51 344.96 77.25
  Z"
/>
<path fill="#000001" fill-opacity="0.322" d="
  M 279.71 74.25
  Q 280.59 75.46 279.50 77.00
  C 274.71 83.78 268.49 84.79 261.54 87.00
  Q 260.58 84.17 263.26 83.28
  C 270.22 80.99 275.86 79.75 279.71 74.25
  Z"
/>
<path fill="#000000" fill-opacity="0.376" d="
  M 372.75 82.45
  Q 362.56 85.11 359.25 86.75
  Q 354.52 89.09 355.86 84.54
  L 371.04 79.44
  A 1.86 0.98 -33.2 0 1 372.00 79.35
  Q 374.31 79.93 372.75 82.45
  Z"
/>
<path fill="#000000" fill-opacity="0.376" d="
  M 318.43 84.43
  L 314.17 84.80
  A 0.91 0.61 -79.3 0 0 313.56 85.42
  L 313.29 86.25
  L 313.06 83.56
  Q 312.89 81.54 317.00 81.25
  Q 319.58 81.07 318.43 84.43
  Z"
/>
<path fill="#000000" fill-opacity="0.376" d="
  M 286.50 81.54
  Q 291.27 83.35 296.25 82.04
  L 294.50 85.04
  Q 293.27 84.70 292.29 85.75
  Q 292.54 85.44 292.50 85.17
  A 0.66 0.43 -9.4 0 0 291.77 84.85
  Q 289.54 85.25 287.40 84.49
  A 1.36 1.18 -0.7 0 1 286.68 83.88
  Q 286.13 82.81 286.50 81.54
  Z"
/>
<path fill="#000001" fill-opacity="0.322" d="
  M 397.46 85.25
  Q 398.81 85.56 397.94 86.94
  Q 391.20 97.62 381.15 103.54
  Q 377.12 105.90 373.60 107.80
  Q 370.40 109.51 365.75 111.50
  Q 351.61 117.55 336.73 121.40
  Q 320.74 125.54 314.25 126.75
  Q 313.03 126.98 313.16 125.74
  A 1.19 0.66 -23.1 0 1 313.71 125.03
  Q 314.61 124.46 313.55 123.41
  C 340.00 118.60 379.60 108.06 397.46 85.25
  Z"
/>
<path fill="#000000" fill-opacity="0.376" d="
  M 377.00 88.29
  C 378.57 92.22 375.09 91.91 372.98 92.78
  Q 365.25 95.95 357.34 98.64
  Q 354.40 99.64 351.27 99.25
  A 1.70 1.69 -68.2 0 0 349.70 99.93
  C 348.13 102.02 345.80 102.26 344.11 103.13
  C 341.51 104.47 333.75 108.90 335.32 102.87
  C 339.29 101.72 347.47 99.69 350.24 96.69
  A 1.31 1.09 -65.8 0 1 351.06 96.29
  C 352.92 96.21 354.43 96.47 356.21 95.78
  Q 366.52 91.78 377.00 88.29
  Z"
/>
<path fill="#000000" fill-opacity="0.376" d="
  M 248.93 91.78
  Q 240.31 94.03 232.08 97.50
  C 230.75 98.06 229.49 97.58 229.79 100.00
  L 229.53 96.90
  A 2.38 1.95 79.2 0 1 230.80 94.57
  L 247.29 88.66
  A 1.39 1.22 -40.6 0 1 248.22 88.67
  Q 250.53 89.61 248.93 91.78
  Z"
/>
<path fill="#000000" d="
  M 302.75 104.29
  Q 296.93 106.75 290.79 108.25
  Q 289.91 104.92 290.24 101.53
  C 290.71 96.76 290.42 96.85 294.46 95.09
  Q 298.16 93.49 302.08 92.55
  A 0.48 0.46 -11.1 0 1 302.65 92.92
  Q 303.59 98.60 302.75 104.29
  Z"
/>
<path fill="#000000" fill-opacity="0.376" d="
  M 280.25 98.19
  Q 268.67 101.47 257.64 106.49
  Q 257.38 105.02 257.91 103.28
  A 1.11 1.00 -4.7 0 1 258.53 102.62
  Q 267.20 99.15 276.04 96.16
  C 278.01 95.49 279.90 95.96 280.25 98.19
  Z"
/>
<path fill="#000000" fill-opacity="0.376" d="
  M 252.96 100.50
  Q 249.76 100.49 250.71 104.00
  Q 250.34 103.05 250.52 101.84
  A 0.56 0.56 -3.3 0 0 249.81 101.21
  C 248.61 101.54 238.76 105.82 240.33 102.26
  A 1.51 1.26 -4.3 0 1 241.01 101.60
  Q 246.44 99.06 252.26 97.62
  A 0.81 0.68 -22.4 0 1 253.07 97.88
  Q 253.83 99.01 252.96 100.50
  Z"
/>
<path fill="#020303" fill-opacity="0.706" d="
  M 198.46 103.00
  L 198.21 106.00
  L 196.50 106.21
  Q 196.15 104.92 196.56 103.72
  A 0.39 0.35 27.8 0 1 197.13 103.58
  Q 197.99 104.18 198.46 103.00
  Z"
/>
<path fill="#000000" fill-opacity="0.376" d="
  M 302.75 104.29
  C 303.85 107.31 302.05 107.52 299.71 108.51
  C 298.32 109.09 289.27 113.43 290.79 108.25
  Q 296.93 106.75 302.75 104.29
  Z"
/>
<path fill="#000000" fill-opacity="0.376" d="
  M 332.46 104.25
  C 333.72 108.18 330.78 108.00 328.40 108.93
  Q 320.90 111.86 313.25 114.40
  L 313.42 111.79
  A 0.93 0.63 -12.3 0 1 314.03 111.15
  L 332.46 104.25
  Z"
/>
<path fill="#000001" fill-opacity="0.322" d="
  M 198.21 106.00
  C 199.51 114.75 209.51 120.45 217.25 122.71
  C 211.94 122.31 220.76 125.15 221.58 125.33
  A 1.56 1.34 -9.4 0 1 222.39 125.82
  Q 223.62 127.39 221.48 126.89
  C 212.11 124.72 201.62 120.10 198.06 111.44
  Q 197.65 110.42 196.99 109.94
  A 1.60 0.75 25.1 0 1 196.39 109.22
  Q 195.92 107.73 196.50 106.21
  L 198.21 106.00
  Z"
/>
<path fill="#000000" fill-opacity="0.376" d="
  M 246.36 110.93
  C 244.18 109.51 239.72 112.36 237.14 113.31
  Q 234.68 114.21 235.50 110.29
  Q 239.55 109.59 243.27 107.85
  Q 245.07 107.02 245.77 107.67
  Q 246.64 108.49 246.36 110.93
  Z"
/>
<path fill="#000001" fill-opacity="0.322" d="
  M 250.21 115.50
  Q 249.61 117.75 252.22 118.19
  L 241.48 121.60
  A 1.49 1.10 -35.2 0 1 240.52 121.58
  C 236.62 119.80 249.56 115.74 250.21 115.50
  Z"
/>
<path fill="#000000" fill-opacity="0.376" d="
  M 300.71 120.50
  C 303.28 125.10 293.04 129.20 290.04 129.75
  Q 289.33 127.17 292.06 126.31
  Q 297.00 124.76 300.71 120.50
  Z"
/>
<path fill="#000000" fill-opacity="0.376" d="
  M 252.86 125.84
  C 247.21 126.97 242.19 129.91 236.49 131.15
  A 0.63 0.58 -16.4 0 1 235.79 130.81
  Q 235.34 129.72 235.54 128.50
  Q 242.85 126.21 249.90 123.22
  C 252.21 122.24 254.31 122.34 252.86 125.84
  Z"
/>
<path fill="#000001" fill-opacity="0.322" d="
  M 282.00 123.29
  C 281.42 126.56 274.55 127.17 272.25 127.46
  Q 276.51 124.01 282.00 123.29
  Z"
/>
<path fill="#000000" fill-opacity="0.376" d="
  M 310.46 123.75
  Q 311.50 124.99 310.56 126.56
  C 304.45 136.84 297.12 138.23 286.97 142.31
  A 1.08 0.82 -35.2 0 1 286.06 142.28
  Q 285.01 141.60 285.54 140.00
  Q 289.37 137.86 293.50 136.41
  C 301.03 133.76 305.92 130.13 310.46 123.75
  Z"
/>
<path fill="#000000" fill-opacity="0.376" d="
  M 267.38 127.99
  Q 268.14 130.42 266.00 131.25
  Q 244.12 139.71 227.22 145.10
  A 1.01 0.83 -30.9 0 1 226.33 144.97
  Q 225.39 144.20 225.65 142.76
  Q 249.06 134.73 256.94 131.44
  Q 262.72 129.02 267.38 127.99
  Z"
/>
<path fill="#000000" d="
  M 272.68 217.64
  C 248.86 222.13 215.92 219.15 200.71 196.87
  C 186.21 175.64 203.70 155.21 223.80 148.39
  C 244.53 141.36 269.01 141.18 289.08 150.65
  C 305.10 158.22 318.35 174.87 309.94 193.19
  C 303.65 206.90 286.71 215.00 272.68 217.64
  Z
  M 291.7799 181.5460
  A 37.82 28.61 0.1 0 0 254.0099 152.8700
  A 37.82 28.61 0.1 0 0 216.1401 181.4140
  A 37.82 28.61 0.1 0 0 253.9101 210.0900
  A 37.82 28.61 0.1 0 0 291.7799 181.5460
  Z"
/>
<path fill="#000000" d="
  M 370.23 184.69
  Q 388.45 201.34 410.90 212.70
  C 415.84 215.20 418.87 213.66 418.97 208.15
  Q 419.40 184.35 419.26 160.53
  C 419.24 157.81 419.63 155.69 417.75 153.50
  C 412.44 147.32 419.90 149.16 422.57 149.37
  Q 450.92 151.55 479.08 155.55
  C 483.22 156.13 486.04 155.18 487.05 160.39
  C 488.44 167.59 490.89 173.67 479.77 169.29
  Q 460.96 161.88 439.82 160.70
  A 0.80 0.75 2.2 0 0 438.97 161.44
  L 438.80 175.21
  A 1.36 1.31 2.5 0 0 440.07 176.54
  Q 454.47 177.62 468.62 180.14
  A 2.51 2.49 88.9 0 1 470.63 182.09
  Q 471.55 186.40 471.21 189.70
  A 1.20 1.20 -75.0 0 1 469.90 190.77
  Q 467.89 190.56 466.09 190.09
  Q 453.50 186.84 439.67 186.21
  A 0.67 0.66 -86.9 0 0 438.98 186.84
  Q 438.43 197.40 438.92 207.89
  A 0.83 0.83 0.0 0 0 439.72 208.69
  Q 467.74 209.92 493.89 204.06
  C 505.77 201.40 489.59 216.58 488.19 217.69
  C 486.22 219.24 483.31 218.79 480.78 218.71
  Q 433.35 217.28 395.25 218.50
  Q 391.54 218.62 389.36 217.36
  Q 367.34 204.64 349.46 186.61
  C 346.83 183.96 343.99 179.73 350.81 179.23
  C 357.52 178.75 371.45 175.67 375.21 169.38
  C 379.73 161.81 366.16 156.43 360.73 155.13
  Q 350.98 152.81 341.45 153.62
  A 1.28 1.28 -2.2 0 0 340.28 154.88
  Q 339.88 181.57 339.99 206.55
  C 340.01 210.93 339.38 212.61 343.14 214.55
  Q 344.39 215.18 345.23 216.30
  C 346.13 217.51 345.02 218.51 343.73 218.48
  Q 329.79 218.12 315.84 218.24
  C 313.62 218.26 312.61 216.66 314.96 215.52
  C 320.13 213.01 319.69 209.72 319.77 204.68
  Q 320.14 181.17 320.01 157.66
  C 319.98 152.46 320.94 148.99 315.33 146.16
  C 313.77 145.37 314.60 144.55 315.80 144.45
  Q 338.89 142.59 361.71 146.02
  C 373.80 147.84 387.87 150.25 395.04 160.24
  C 399.83 166.92 395.01 174.20 389.00 177.72
  Q 381.20 182.28 370.42 184.05
  Q 369.66 184.18 370.23 184.69
  Z"
/>
<path fill="#000000" d="
  M 131.88 169.10
  C 124.40 174.01 118.21 183.53 123.24 192.48
  C 136.26 215.68 175.31 212.67 195.56 204.10
  C 206.42 199.51 194.34 214.80 193.19 216.56
  A 2.70 2.69 -77.6 0 1 191.29 217.78
  Q 177.85 219.69 164.23 219.46
  C 145.61 219.14 126.03 217.89 111.14 205.87
  C 105.31 201.16 99.63 192.08 101.45 184.24
  C 108.63 153.24 161.31 147.45 185.98 149.52
  Q 188.13 149.70 188.81 151.57
  L 192.03 160.52
  Q 193.21 163.79 189.77 162.76
  C 170.23 156.89 149.23 157.71 131.88 169.10
  Z"
/>
<path fill="#000000" d="
  M 215.17 249.74
  Q 215.45 249.03 215.03 248.43
  A 1.17 0.79 -10.2 0 0 214.19 248.06
  L 203.28 247.73
  A 1.50 1.47 85.9 0 1 201.88 246.49
  Q 200.99 241.43 205.25 241.75
  Q 208.77 242.02 221.12 242.00
  C 225.81 242.00 225.10 241.96 225.31 246.32
  Q 225.55 251.24 224.66 256.07
  A 0.64 0.64 4.6 0 1 224.06 256.58
  Q 196.57 257.31 187.75 256.50
  C 177.78 255.58 180.06 247.04 180.40 240.22
  C 180.79 232.33 188.16 232.74 194.00 232.81
  Q 209.16 233.00 224.32 233.42
  A 0.79 0.74 -9.1 0 1 225.01 233.89
  Q 225.89 236.19 224.76 238.31
  A 0.87 0.83 14.0 0 1 223.99 238.75
  L 192.01 238.58
  A 1.74 1.69 0.0 0 0 190.26 240.28
  L 190.30 249.36
  A 1.11 1.10 89.7 0 0 191.41 250.47
  L 214.45 250.21
  A 0.81 0.73 9.1 0 0 215.17 249.74
  Z"
/>
<path fill="#000000" d="
  M 264.83 247.99
  C 266.65 250.82 271.42 253.08 271.99 255.83
  A 0.56 0.52 -13.8 0 1 271.59 256.45
  Q 267.32 257.65 263.16 256.72
  C 259.37 255.88 255.53 251.50 252.46 249.03
  Q 251.18 248.00 249.53 248.00
  L 240.99 248.00
  A 1.07 0.99 -87.5 0 0 240.00 248.98
  L 239.39 256.08
  A 0.59 0.57 1.6 0 1 238.81 256.61
  L 230.83 256.69
  A 1.54 1.50 -89.8 0 1 229.31 255.12
  L 229.72 234.77
  A 1.57 1.54 0.2 0 1 231.27 233.26
  Q 248.35 233.08 264.60 233.44
  C 277.55 233.72 275.64 248.60 265.07 247.62
  Q 264.56 247.57 264.83 247.99
  Z
  M 263.4798 240.3495
  A 1.59 1.59 0.0 0 0 261.8870 238.7623
  L 241.6270 238.7977
  A 1.59 1.59 0.0 0 0 240.0398 240.3905
  L 240.0402 240.6505
  A 1.59 1.59 0.0 0 0 241.6330 242.2377
  L 261.8930 242.2023
  A 1.59 1.59 0.0 0 0 263.4802 240.6095
  L 263.4798 240.3495
  Z"
/>
<path fill="#000000" d="
  M 277.87 256.44
  Q 276.22 254.34 277.81 252.31
  Q 284.54 243.77 291.23 234.84
  Q 292.42 233.25 294.41 233.25
  L 306.90 233.25
  A 3.11 2.99 -17.9 0 1 309.34 234.44
  L 324.56 254.55
  Q 326.62 257.26 323.37 257.15
  L 315.93 256.91
  A 1.21 0.82 65.6 0 1 315.13 256.42
  L 302.29 239.57
  Q 300.82 237.63 299.30 239.49
  Q 292.81 247.46 286.94 255.19
  C 284.94 257.82 281.49 257.24 278.68 256.88
  A 1.31 1.12 -12.0 0 1 277.87 256.44
  Z"
/>
<path fill="#000000" d="
  M 338.50 248.80
  L 337.73 256.19
  A 0.63 0.56 -88.6 0 1 337.20 256.76
  L 330.13 257.25
  Q 327.71 257.42 327.75 254.82
  L 328.06 235.22
  A 1.75 1.72 -89.5 0 1 329.78 233.50
  Q 347.67 233.50 365.11 233.50
  C 367.59 233.50 368.94 232.88 369.00 236.25
  C 369.07 239.81 367.49 239.01 365.00 239.00
  Q 352.28 238.96 339.56 239.06
  A 1.14 0.97 16.6 0 0 338.72 239.43
  Q 337.52 240.87 338.88 242.18
  A 1.38 1.00 -16.4 0 0 339.76 242.49
  L 362.76 242.73
  A 0.81 0.78 77.9 0 1 363.46 243.20
  Q 365.96 248.97 359.00 248.25
  Q 351.16 247.44 339.07 248.28
  A 0.61 0.58 1.0 0 0 338.50 248.80
  Z"
/>
<path fill="#000000" d="
  M 379.31 256.96
  C 379.25 256.96 365.56 258.08 371.06 254.53
  Q 378.56 249.70 385.86 244.74
  A 0.67 0.66 44.1 0 0 385.83 243.63
  L 374.56 236.41
  Q 370.37 233.73 375.44 233.50
  C 379.25 233.33 382.43 232.95 385.89 235.01
  Q 389.90 237.40 393.32 239.69
  Q 394.98 240.80 396.59 239.62
  C 400.25 236.94 404.43 233.61 409.04 233.50
  C 410.06 233.48 420.52 232.53 415.79 235.90
  Q 410.36 239.78 404.60 242.95
  Q 402.45 244.12 404.51 245.45
  C 406.27 246.58 420.32 255.13 418.70 256.75
  A 1.46 1.04 14.9 0 1 417.82 257.08
  C 414.06 257.22 409.20 257.90 405.85 255.86
  Q 400.63 252.68 395.69 249.07
  A 1.60 1.58 45.3 0 0 393.83 249.05
  C 390.35 251.53 383.55 256.93 379.31 256.96
  Z"
/>
</svg>
