<?xml version="1.0" encoding="UTF-8" standalone="no"?>
<!DOCTYPE svg PUBLIC "-//W3C//DTD SVG 1.1//EN" "http://www.w3.org/Graphics/SVG/1.1/DTD/svg11.dtd">
<svg xmlns="http://www.w3.org/2000/svg" version="1.1" viewBox="0 0 600 300">
<g stroke-width="2.00" fill="none" stroke-linecap="butt">
<path stroke="#000000" vector-effect="non-scaling-stroke" d="
  M 399.44 300.00
  Q 394.06 299.37 388.69 300.00"
/>
<path stroke="#000000" vector-effect="non-scaling-stroke" d="
  M 381.44 300.00
  L 375.50 299.79"
/>
<path stroke="#000000" vector-effect="non-scaling-stroke" d="
  M 362.44 300.00
  Q 357.19 299.37 351.94 300.00"
/>
<path stroke="#000000" vector-effect="non-scaling-stroke" d="
  M 148.44 300.00
  Q 143.19 299.37 137.94 300.00"
/>
<path stroke="#808080" vector-effect="non-scaling-stroke" d="
  M 201.07 175.26
  L 201.50 95.55
  A 0.53 0.50 89.5 0 0 200.99 95.02
  L 188.00 95.22
  A 1.11 0.98 -68.5 0 0 187.19 95.63
  L 88.78 217.28
  Q 88.20 218.00 89.13 218.00
  L 113.76 218.00
  A 1.45 1.43 18.9 0 0 114.89 217.46
  L 180.07 136.80
  Q 180.75 135.96 180.75 137.04
  L 180.75 217.45
  A 0.55 0.55 0.0 0 0 181.30 218.00
  L 193.05 218.00
  A 1.63 1.63 -70.5 0 0 194.32 217.39
  L 259.07 137.30
  Q 259.69 136.54 259.69 137.52
  L 259.56 217.37
  A 0.57 0.55 90.0 0 0 260.11 217.94
  L 279.55 217.83
  A 0.53 0.51 -90.0 0 0 280.06 217.30
  L 280.06 95.70
  A 0.55 0.49 90.0 0 0 279.57 95.15
  L 267.50 95.21
  A 1.14 0.94 -67.4 0 0 266.69 95.64
  L 201.99 175.59
  Q 201.06 176.74 201.07 175.26"
/>
<path stroke="#808080" vector-effect="non-scaling-stroke" d="
  M 295.69 100.19
  Q 291.11 106.90 289.38 113.97
  C 285.83 128.44 285.80 156.25 298.31 167.19
  C 301.73 170.17 305.37 170.00 309.82 170.00
  Q 326.29 169.99 342.75 169.85
  C 357.12 169.73 354.90 192.24 346.50 192.25
  Q 317.22 192.30 288.18 192.19
  A 0.53 0.51 -89.4 0 0 287.67 192.71
  L 287.58 217.16
  A 0.83 0.80 90.0 0 0 288.38 217.99
  Q 323.38 218.18 356.62 217.77
  C 363.20 217.69 367.44 210.47 369.34 205.15
  Q 377.34 182.77 370.56 159.94
  C 368.69 153.62 364.32 145.25 357.05 143.86
  Q 356.46 143.75 347.93 143.75
  C 342.07 143.75 315.44 145.14 312.06 142.44
  C 305.88 137.49 305.85 123.51 314.39 120.98
  Q 316.07 120.48 324.67 120.55
  Q 347.44 120.76 371.11 120.49
  A 0.93 0.91 -90.0 0 0 372.01 119.57
  L 372.17 95.83
  A 0.82 0.81 -89.7 0 0 371.36 95.00
  Q 340.82 95.00 311.47 95.00
  C 303.59 95.00 299.81 94.14 295.69 100.19"
/>
<path stroke="#808080" vector-effect="non-scaling-stroke" d="
  M 451.55 216.33
  C 459.72 212.88 465.41 204.76 465.42 195.75
  Q 465.50 146.00 465.50 95.69
  A 0.69 0.69 0.0 0 0 464.81 95.00
  L 445.92 95.00
  A 0.67 0.67 -89.6 0 0 445.25 95.66
  Q 444.93 137.55 444.99 179.12
  C 445.01 190.10 437.69 192.50 427.79 192.50
  C 416.25 192.50 400.13 195.12 399.97 179.67
  Q 399.53 137.68 399.81 95.68
  A 0.51 0.50 -89.4 0 0 399.32 95.17
  L 380.11 95.01
  A 0.62 0.61 -90.0 0 0 379.50 95.63
  Q 379.50 145.63 379.44 195.00
  C 379.42 208.21 389.90 218.10 403.00 218.13
  Q 422.62 218.17 442.23 217.84
  Q 448.24 217.73 451.55 216.33"
/>
<path stroke="#808080" vector-effect="non-scaling-stroke" d="
  M 492.19 144.81
  L 492.19 217.49
  A 0.51 0.51 0.0 0 0 492.70 218.00
  L 512.19 218.00
  A 0.56 0.56 90.0 0 0 512.75 217.44
  L 512.75 95.52
  A 0.52 0.52 90.0 0 0 512.23 95.00
  L 500.39 95.00
  A 1.55 1.53 19.2 0 0 499.19 95.57
  L 472.70 128.17
  A 2.08 2.03 65.0 0 0 472.25 129.46
  L 472.18 143.74
  A 0.51 0.51 0.0 0 0 472.69 144.25
  L 491.68 144.31
  A 0.51 0.50 0.0 0 1 492.19 144.81"
/>
<path stroke="#800000" vector-effect="non-scaling-stroke" d="
  M 512.75 224.55
  A 0.30 0.30 0.0 0 0 512.45 224.25
  L 88.51 224.25
  A 0.30 0.30 0.0 0 0 88.21 224.55
  L 88.21 242.45
  A 0.30 0.30 0.0 0 0 88.51 242.75
  L 512.45 242.75
  A 0.30 0.30 0.0 0 0 512.75 242.45
  L 512.75 224.55"
/>
<path stroke="#808080" vector-effect="non-scaling-stroke" d="
  M 365.73 291.72
  C 374.32 294.30 377.95 285.47 378.63 278.86
  A 0.79 0.78 18.5 0 0 378.24 278.09
  L 373.40 275.34
  A 0.77 0.77 15.4 0 0 372.25 275.99
  Q 372.19 279.32 370.18 281.94
  Q 368.74 283.83 366.73 282.57
  C 362.35 279.84 362.12 259.55 368.02 258.10
  A 1.31 1.24 51.3 0 1 368.95 258.23
  Q 371.85 259.78 372.00 263.22
  A 0.71 0.68 77.1 0 0 372.96 263.85
  L 378.25 261.43
  A 0.68 0.63 72.2 0 0 378.59 260.69
  C 377.67 256.42 375.49 250.48 370.68 249.32
  C 352.56 244.97 352.13 287.65 365.73 291.72"
/>
<path stroke="#808080" vector-effect="non-scaling-stroke" d="
  M 94.50 262.56
  L 98.36 290.21
  A 0.74 0.65 85.5 0 0 99.02 290.85
  L 103.45 290.81
  A 0.72 0.54 -84.7 0 0 104.01 290.19
  L 107.87 263.15
  Q 108.25 260.50 108.25 263.18
  L 108.25 290.24
  A 0.74 0.72 89.6 0 0 108.98 290.98
  L 113.44 290.96
  A 0.52 0.50 90.0 0 0 113.94 290.44
  L 114.00 250.50
  A 0.50 0.50 0.0 0 0 113.50 250.00
  L 105.09 250.00
  A 0.60 0.59 -86.1 0 0 104.50 250.52
  L 101.26 273.70
  Q 101.19 274.21 101.11 273.70
  L 97.76 250.57
  A 0.67 0.66 -4.0 0 0 97.10 250.00
  L 88.81 250.00
  A 0.56 0.56 0.0 0 0 88.25 250.56
  L 88.25 290.48
  A 0.52 0.52 0.0 0 0 88.77 291.00
  L 93.72 291.00
  A 0.55 0.54 -89.5 0 0 94.26 290.46
  L 94.42 262.56
  Q 94.43 262.07 94.50 262.56"
/>
<path stroke="#808080" vector-effect="non-scaling-stroke" d="
  M 127.07 274.05
  L 136.98 274.00
  A 0.52 0.51 0.0 0 0 137.50 273.49
  L 137.50 265.76
  A 0.76 0.76 0.0 0 0 136.74 265.00
  L 127.16 265.00
  A 0.66 0.66 89.8 0 1 126.50 264.34
  L 126.50 259.66
  A 0.66 0.66 -89.8 0 1 127.16 259.00
  L 137.84 259.00
  A 0.66 0.66 89.9 0 0 138.50 258.34
  L 138.50 250.78
  A 0.78 0.78 0.0 0 0 137.72 250.00
  L 119.80 250.00
  A 0.55 0.55 -89.8 0 0 119.25 250.55
  L 119.31 290.45
  A 0.50 0.49 0.0 0 0 119.81 290.94
  L 138.19 291.00
  A 0.53 0.50 -0.5 0 0 138.72 290.49
  L 138.60 282.69
  A 0.54 0.53 0.0 0 0 138.06 282.16
  L 127.40 282.04
  A 0.89 0.84 0.3 0 1 126.52 281.20
  L 126.54 274.56
  A 0.54 0.52 -0.0 0 1 127.07 274.05"
/>
<path stroke="#808080" vector-effect="non-scaling-stroke" d="
  M 159.89 251.50
  Q 157.99 250.00 155.57 250.00
  L 144.91 250.00
  A 0.66 0.66 0.0 0 0 144.25 250.66
  L 144.25 290.22
  A 0.78 0.78 0.1 0 0 145.03 291.00
  C 153.17 291.00 161.94 292.79 164.34 282.27
  C 166.10 274.51 167.05 257.16 159.89 251.50"
/>
<path stroke="#808080" vector-effect="non-scaling-stroke" d="
  M 177.76 250.52
  A 0.52 0.52 0.0 0 0 177.24 250.00
  L 171.02 250.00
  A 0.52 0.52 0.0 0 0 170.50 250.52
  L 170.50 290.48
  A 0.52 0.52 0.0 0 0 171.02 291.00
  L 177.24 291.00
  A 0.52 0.52 0.0 0 0 177.76 290.48
  L 177.76 250.52"
/>
<path stroke="#808080" vector-effect="non-scaling-stroke" d="
  M 191.06 284.05
  L 197.61 284.01
  A 0.85 0.76 83.2 0 1 198.38 284.69
  L 199.54 290.38
  A 0.81 0.78 -5.7 0 0 200.33 291.00
  L 206.22 290.95
  A 0.60 0.59 84.0 0 0 206.79 290.23
  L 198.67 250.67
  A 0.67 0.62 84.1 0 0 198.07 250.14
  L 191.08 250.04
  A 0.82 0.76 -83.2 0 0 190.31 250.69
  L 182.10 290.13
  A 0.69 0.66 -84.4 0 0 182.75 290.96
  L 188.81 290.87
  A 0.68 0.59 -84.6 0 0 189.39 290.31
  L 190.46 284.55
  A 0.61 0.61 5.1 0 1 191.06 284.05"
/>
<path stroke="#808080" vector-effect="non-scaling-stroke" d="
  M 230.07 274.05
  L 239.83 274.00
  A 0.67 0.66 0.0 0 0 240.50 273.34
  L 240.50 265.77
  A 0.77 0.77 0.0 0 0 239.73 265.00
  L 230.16 265.00
  A 0.66 0.66 89.8 0 1 229.50 264.34
  L 229.50 259.66
  A 0.66 0.66 -89.8 0 1 230.16 259.00
  L 240.84 259.00
  A 0.66 0.66 89.9 0 0 241.50 258.34
  L 241.50 250.78
  A 0.78 0.78 0.0 0 0 240.72 250.00
  L 222.80 250.00
  A 0.55 0.55 0.0 0 0 222.25 250.55
  L 222.31 290.45
  A 0.50 0.49 0.0 0 0 222.81 290.94
  L 241.09 291.00
  A 0.67 0.66 90.0 0 0 241.75 290.33
  L 241.75 282.99
  A 0.99 0.99 0.0 0 0 240.76 282.00
  L 230.16 282.00
  A 0.66 0.64 -0.0 0 1 229.50 281.36
  L 229.55 274.57
  A 0.53 0.52 -0.6 0 1 230.07 274.05"
/>
<path stroke="#808080" vector-effect="non-scaling-stroke" d="
  M 262.25 270.96
  L 254.36 250.78
  A 0.90 0.65 76.6 0 0 253.69 250.20
  L 248.27 250.15
  A 1.14 1.02 90.0 0 0 247.25 251.29
  L 247.25 290.23
  A 0.72 0.70 90.0 0 0 247.95 290.95
  L 253.72 291.00
  A 0.56 0.54 90.0 0 0 254.26 290.44
  L 254.48 270.26
  Q 254.48 269.74 254.67 270.23
  L 262.31 290.29
  A 0.86 0.71 77.7 0 0 263.00 290.83
  L 268.63 290.92
  A 0.98 0.88 -89.7 0 0 269.52 289.94
  L 269.42 250.81
  A 0.62 0.58 -84.9 0 0 268.95 250.21
  Q 265.97 249.67 262.99 250.16
  A 0.60 0.58 85.5 0 0 262.50 250.75
  L 262.44 270.93
  Q 262.44 271.46 262.25 270.96"
/>
<path stroke="#808080" vector-effect="non-scaling-stroke" d="
  M 283.05 274.03
  L 289.57 274.14
  A 0.55 0.53 -89.5 0 1 290.09 274.69
  L 289.97 290.17
  A 0.83 0.78 -90.0 0 0 290.75 291.00
  L 296.98 291.00
  A 0.52 0.52 0.0 0 0 297.50 290.48
  L 297.50 251.16
  A 1.04 0.93 89.5 0 0 296.55 250.12
  L 290.55 250.22
  A 0.59 0.47 89.5 0 0 290.09 250.81
  L 290.10 263.31
  A 0.56 0.54 -90.0 0 1 289.56 263.87
  L 283.18 263.87
  A 0.56 0.52 89.4 0 1 282.66 263.32
  L 282.51 250.62
  A 0.62 0.60 90.0 0 0 281.91 250.00
  L 275.92 250.00
  A 0.67 0.67 0.0 0 0 275.25 250.67
  L 275.25 290.23
  A 0.72 0.70 90.0 0 0 275.95 290.95
  L 282.05 290.99
  A 0.66 0.62 90.0 0 0 282.68 290.32
  L 282.55 274.56
  A 0.52 0.49 90.0 0 1 283.05 274.03"
/>
<path stroke="#808080" vector-effect="non-scaling-stroke" d="
  M 317.28 284.55
  L 318.36 290.37
  A 0.76 0.75 85.0 0 0 319.10 291.00
  L 325.29 291.00
  A 0.50 0.49 -5.7 0 0 325.78 290.41
  L 317.67 250.68
  A 0.68 0.61 84.1 0 0 317.07 250.14
  L 310.16 250.05
  A 0.85 0.80 -82.9 0 0 309.36 250.72
  L 301.16 290.21
  A 0.47 0.43 -82.9 0 0 301.56 290.78
  L 307.81 290.88
  A 0.69 0.54 -82.0 0 0 308.38 290.33
  L 309.55 284.67
  A 0.67 0.67 -84.6 0 1 310.19 284.14
  L 316.69 284.03
  A 0.62 0.58 84.3 0 1 317.28 284.55"
/>
<path stroke="#808080" vector-effect="non-scaling-stroke" d="
  M 344.15 271.47
  L 336.26 250.70
  A 1.12 1.07 -9.7 0 0 335.22 250.00
  L 329.91 250.00
  A 0.66 0.66 0.1 0 0 329.25 250.66
  L 329.25 290.22
  A 0.78 0.78 0.0 0 0 330.03 291.00
  L 335.59 291.00
  A 0.68 0.67 90.0 0 0 336.26 290.32
  L 336.44 270.14
  Q 336.45 269.44 336.70 270.10
  L 344.32 290.29
  A 0.82 0.70 79.2 0 0 345.00 290.83
  L 350.71 290.91
  A 0.63 0.58 -89.6 0 0 351.30 290.28
  L 351.32 250.69
  A 0.57 0.51 -89.5 0 0 350.82 250.12
  L 345.51 250.08
  A 1.11 1.02 -89.5 0 0 344.48 251.18
  L 344.33 271.44
  Q 344.33 271.93 344.15 271.47"
/>
<path stroke="#808080" vector-effect="non-scaling-stroke" d="
  M 391.73 281.44
  L 391.62 274.67
  A 0.58 0.51 -1.0 0 1 392.19 274.15
  L 401.46 274.04
  A 1.12 1.03 -1.0 0 0 402.57 272.98
  L 402.35 265.69
  A 0.55 0.54 89.4 0 0 401.82 265.16
  L 392.32 264.94
  A 0.68 0.63 -4.9 0 1 391.69 264.45
  Q 391.15 262.00 391.69 259.55
  A 0.66 0.62 5.6 0 1 392.31 259.07
  L 402.82 258.84
  A 0.55 0.53 -0.0 0 0 403.36 258.32
  L 403.46 250.95
  A 0.98 0.94 0.3 0 0 402.48 250.00
  L 384.81 250.06
  A 0.51 0.50 -90.0 0 0 384.31 250.57
  L 384.25 290.33
  A 0.66 0.65 90.0 0 0 384.90 290.99
  L 403.06 290.83
  A 0.55 0.51 -0.0 0 0 403.61 290.32
  L 403.62 282.69
  A 0.58 0.53 1.1 0 0 403.06 282.16
  L 392.32 281.94
  A 0.61 0.51 0.7 0 1 391.73 281.44"
/>
<path stroke="#7e060c" vector-effect="non-scaling-stroke" d="
  M 414.50 264.29
  L 414.71 264.25"
/>
<path stroke="#808080" vector-effect="non-scaling-stroke" d="
  M 414.71 264.25
  L 418.36 290.32
  A 0.67 0.55 84.9 0 0 418.93 290.90
  L 423.45 290.80
  A 0.72 0.55 -85.1 0 0 424.01 290.19
  L 428.11 261.56
  Q 428.19 261.05 428.19 261.56
  L 428.31 290.44
  A 0.52 0.50 90.0 0 0 428.81 290.96
  L 433.49 290.99
  A 0.52 0.51 90.0 0 0 434.00 290.47
  L 433.94 250.57
  A 0.52 0.51 90.0 0 0 433.43 250.05
  L 425.26 250.00
  A 0.67 0.66 4.0 0 0 424.60 250.57
  L 421.29 273.85
  Q 421.21 274.39 421.13 273.85
  L 417.77 250.66
  A 0.75 0.72 85.5 0 0 417.04 250.01
  L 408.81 250.05
  A 0.51 0.50 -90.0 0 0 408.31 250.56
  L 408.31 290.45
  A 0.51 0.51 0.0 0 0 408.82 290.96
  L 413.51 290.98
  A 0.79 0.75 90.0 0 0 414.26 290.19
  L 414.50 264.29"
/>
<path stroke="#fe868c" vector-effect="non-scaling-stroke" d="
  M 414.71 264.25
  Q 414.29 259.29 414.50 264.29"
/>
<path stroke="#808080" vector-effect="non-scaling-stroke" d="
  M 447.73 281.44
  L 447.62 274.67
  A 0.58 0.51 -1.0 0 1 448.19 274.15
  L 457.58 274.04
  A 0.87 0.80 -0.4 0 0 458.44 273.24
  L 458.36 265.68
  A 0.56 0.53 0.6 0 0 457.82 265.16
  L 448.32 264.94
  A 0.68 0.63 -4.9 0 1 447.69 264.45
  Q 447.15 262.00 447.69 259.55
  A 0.64 0.64 -84.2 0 1 448.30 259.05
  L 458.59 259.00
  A 0.87 0.81 -0.6 0 0 459.46 258.17
  L 459.36 250.69
  A 0.55 0.53 -0.5 0 0 458.81 250.17
  L 440.80 250.01
  A 0.56 0.55 -90.0 0 0 440.25 250.57
  L 440.25 290.50
  A 0.50 0.50 0.0 0 0 440.75 291.00
  L 459.09 291.00
  A 0.66 0.66 0.0 0 0 459.75 290.34
  L 459.75 282.75
  A 0.77 0.76 0.0 0 0 458.98 281.99
  L 448.32 281.95
  A 0.59 0.52 -0.5 0 1 447.73 281.44"
/>
<path stroke="#808080" vector-effect="non-scaling-stroke" d="
  M 471.50 270.04
  L 479.14 290.22
  A 0.91 0.88 84.4 0 0 479.81 290.79
  Q 482.88 291.37 485.95 290.79
  A 0.61 0.59 84.9 0 0 486.43 290.19
  L 486.43 250.82
  A 0.60 0.49 -89.5 0 0 485.95 250.22
  L 480.10 250.10
  A 0.66 0.59 -89.6 0 0 479.50 250.76
  L 479.50 270.78
  Q 479.50 272.06 479.04 270.86
  L 471.37 250.77
  A 0.90 0.89 84.5 0 0 470.70 250.21
  Q 467.75 249.63 464.79 250.21
  A 0.62 0.60 84.2 0 0 464.31 250.81
  L 464.31 290.18
  A 0.62 0.61 -84.3 0 0 464.80 290.79
  Q 467.78 291.33 470.76 290.84
  A 0.60 0.58 85.5 0 0 471.25 290.25
  L 471.31 270.07
  Q 471.31 269.54 471.50 270.04"
/>
<path stroke="#808080" vector-effect="non-scaling-stroke" d="
  M 505.55 259.05
  L 511.60 259.01
  A 0.69 0.69 -89.1 0 0 512.29 258.34
  L 512.56 250.87
  A 0.82 0.78 -89.3 0 0 511.77 250.02
  L 491.19 250.17
  A 0.52 0.49 90.0 0 0 490.70 250.69
  L 490.70 258.31
  A 0.53 0.51 -88.3 0 0 491.18 258.84
  L 497.07 259.16
  A 0.53 0.53 1.7 0 1 497.57 259.69
  L 497.74 290.07
  A 0.89 0.85 -89.7 0 0 498.58 290.96
  L 504.49 290.99
  A 0.52 0.50 -89.5 0 0 505.00 290.47
  L 505.06 259.56
  A 0.51 0.49 -90.0 0 1 505.55 259.05"
/>
<path stroke="#808080" vector-effect="non-scaling-stroke" d="
  M 155.57 259.87
  Q 154.17 258.87 152.31 259.04
  A 0.61 0.61 -2.6 0 0 151.75 259.65
  L 151.75 281.36
  A 0.62 0.62 2.5 0 0 152.32 281.98
  C 160.58 282.74 158.40 267.12 157.53 262.88
  Q 157.14 260.99 155.57 259.87"
/>
<path stroke="#808080" vector-effect="non-scaling-stroke" d="
  M 194.27 262.29
  L 192.50 273.29
  A 0.51 0.46 -84.8 0 0 192.95 273.88
  L 196.20 273.84
  A 0.56 0.42 83.9 0 0 196.59 273.19
  L 194.79 262.31
  Q 194.52 260.72 194.27 262.29"
/>
<path stroke="#808080" vector-effect="non-scaling-stroke" d="
  M 313.31 262.39
  L 311.44 273.49
  A 0.45 0.43 4.8 0 0 311.89 274.00
  L 314.83 274.00
  A 0.79 0.78 84.8 0 0 315.60 273.07
  L 313.73 262.40
  Q 313.51 261.15 313.31 262.39"
/>
</g>
<path fill="#fc0c18" d="
  M 83.87 66.57
  C 82.43 74.68 92.17 74.82 93.61 67.67
  Q 94.81 61.73 95.75 55.77
  A 2.65 2.62 -55.4 0 0 95.45 54.08
  Q 89.64 43.68 83.50 33.50
  C 80.40 28.37 79.96 25.33 81.26 19.11
  C 82.37 13.83 82.95 4.74 88.05 1.83
  C 92.21 -0.53 101.13 0.50 106.21 0.50
  C 112.29 0.50 115.62 2.38 114.50 9.00
  Q 113.01 17.77 111.06 27.43
  A 1.02 1.01 5.5 0 1 110.06 28.25
  L 100.91 28.25
  A 0.50 0.50 -84.7 0 1 100.42 27.66
  C 101.08 24.11 104.23 12.45 101.19 10.27
  C 98.46 8.31 94.50 10.66 93.43 13.57
  Q 91.59 18.59 91.11 25.01
  Q 90.99 26.63 91.93 27.95
  Q 98.24 36.85 103.75 47.00
  C 105.37 49.99 106.49 51.24 105.93 54.82
  Q 103.45 70.81 101.75 75.25
  C 100.17 79.38 95.85 80.68 91.40 80.73
  C 87.36 80.78 78.02 81.69 74.82 79.59
  C 71.90 77.67 72.04 74.74 72.61 71.33
  Q 74.05 62.58 75.76 53.54
  A 0.95 0.93 -84.1 0 1 76.69 52.77
  L 85.38 52.80
  A 0.95 0.93 -84.0 0 1 86.29 53.94
  Q 84.95 60.43 83.87 66.57
  Z"
/>
<path fill="#fc0c18" d="
  M 119.92 72.74
  Q 122.71 73.17 125.81 73.05
  C 128.18 72.96 130.15 73.66 130.72 70.49
  Q 136.91 35.96 143.19 1.45
  A 1.11 1.02 -83.8 0 1 144.23 0.54
  L 152.25 0.70
  A 0.47 0.43 -83.8 0 1 152.66 1.25
  Q 146.43 34.87 140.25 68.50
  C 138.96 75.51 137.02 81.21 128.49 80.96
  C 122.00 80.76 107.28 83.67 109.31 72.06
  Q 115.43 37.04 121.62 1.29
  A 0.97 0.96 5.0 0 1 122.57 0.50
  L 131.34 0.50
  A 0.50 0.50 4.9 0 1 131.83 1.08
  L 119.28 71.86
  A 0.77 0.75 9.6 0 0 119.92 72.74
  Z"
/>
<path fill="#fc0c18" d="
  M 159.72 44.80
  L 152.79 79.94
  A 0.72 0.71 -88.2 0 1 152.19 80.51
  Q 147.75 81.15 143.31 80.51
  A 0.48 0.48 9.2 0 1 142.90 79.95
  L 157.85 1.17
  A 0.63 0.61 4.0 0 1 158.44 0.67
  Q 168.84 0.36 179.25 0.27
  Q 188.32 0.19 186.68 9.24
  Q 182.60 31.64 181.50 36.25
  C 178.97 46.86 169.05 44.12 160.31 44.30
  A 0.63 0.61 -84.7 0 0 159.72 44.80
  Z
  M 173.33 10.44
  Q 170.03 9.36 166.79 10.40
  A 0.89 0.86 -3.8 0 0 166.20 11.05
  L 161.50 35.51
  A 1.07 1.04 5.3 0 0 162.56 36.75
  L 168.13 36.75
  Q 170.52 36.75 171.00 34.52
  L 175.39 13.87
  Q 175.94 11.30 173.33 10.44
  Z"
/>
<path fill="#fc0c18" d="
  M 191.82 70.48
  L 201.69 70.82
  A 0.48 0.43 5.3 0 1 202.16 71.32
  L 200.70 80.08
  A 0.64 0.59 4.2 0 1 200.07 80.58
  L 178.92 80.70
  A 0.63 0.62 -84.6 0 1 178.31 79.95
  L 193.70 1.47
  A 1.18 1.14 -83.9 0 1 194.84 0.52
  L 214.32 0.67
  A 0.47 0.45 4.8 0 1 214.78 1.19
  L 213.55 9.45
  A 0.65 0.63 -86.2 0 1 212.94 10.00
  L 204.13 10.20
  A 2.24 2.03 4.2 0 0 202.01 11.85
  L 197.53 34.57
  A 0.44 0.43 -83.8 0 0 197.94 35.09
  L 207.68 35.31
  A 0.50 0.43 5.1 0 1 208.17 35.81
  L 206.96 42.84
  A 0.68 0.62 4.0 0 1 206.31 43.35
  L 196.40 43.48
  A 0.63 0.59 3.8 0 0 195.80 43.97
  L 191.39 69.95
  A 0.46 0.45 -84.9 0 0 191.82 70.48
  Z"
/>
<path fill="#fc0c18" d="
  M 236.96 43.57
  C 243.03 45.60 241.51 49.83 240.50 55.49
  Q 238.32 67.80 235.91 80.07
  A 0.65 0.59 -84.1 0 1 235.32 80.60
  L 226.60 80.70
  A 0.61 0.59 -84.8 0 1 226.02 79.98
  Q 228.92 64.63 231.50 50.50
  Q 231.80 48.85 230.37 45.03
  A 0.87 0.68 77.6 0 0 229.69 44.47
  L 223.57 44.37
  A 1.17 1.04 -83.9 0 0 222.51 45.33
  L 216.05 79.80
  A 1.10 1.06 -84.4 0 1 215.00 80.69
  L 206.88 80.75
  A 0.92 0.91 -75.5 0 1 206.09 79.39
  Q 206.47 78.72 206.72 77.29
  Q 213.56 39.19 220.85 1.17
  A 0.62 0.61 4.1 0 1 221.43 0.67
  Q 231.77 0.36 242.11 0.51
  C 247.93 0.59 250.95 2.94 249.81 9.06
  Q 247.40 22.02 244.71 34.92
  C 243.81 39.26 241.26 41.28 237.19 42.23
  C 236.68 42.35 236.45 42.49 236.47 43.04
  A 0.75 0.52 12.2 0 0 236.96 43.57
  Z
  M 236.08 10.44
  Q 234.10 9.73 230.64 10.17
  A 2.05 2.04 1.7 0 0 228.89 11.81
  L 224.48 35.01
  A 1.27 1.26 10.6 0 0 225.50 36.49
  C 231.29 37.51 233.35 36.39 234.67 30.57
  Q 236.58 22.14 238.14 14.07
  Q 238.66 11.37 236.08 10.44
  Z"
/>
<path fill="#fc0c18" d="
  M 289.62 39.23
  Q 290.07 42.89 290.75 39.26
  L 297.93 1.10
  A 0.73 0.73 -85.1 0 1 298.65 0.50
  L 308.94 0.55
  A 0.42 0.41 -84.2 0 1 309.34 1.05
  L 294.58 79.45
  A 1.49 1.35 -83.5 0 1 293.21 80.66
  L 284.81 80.51
  A 0.63 0.55 87.6 0 1 284.27 79.94
  Q 283.56 71.82 280.75 35.75
  Q 280.72 35.37 280.39 35.43
  A 0.62 0.45 -86.7 0 0 280.00 35.91
  L 271.33 79.84
  A 1.16 1.13 5.5 0 1 270.20 80.75
  L 260.85 80.75
  A 0.90 0.89 5.3 0 1 259.96 79.69
  L 274.72 1.31
  A 0.70 0.70 -88.8 0 1 275.31 0.74
  Q 280.00 0.11 284.13 0.67
  A 1.01 1.01 -90.0 0 1 285.00 1.54
  L 289.62 39.23
  Z"
/>
<path fill="#fc0c18" d="
  M 299.80 79.81
  C 304.74 53.33 309.30 27.02 314.71 1.06
  A 0.63 0.61 -84.2 0 1 315.31 0.55
  L 324.07 0.51
  A 0.64 0.63 -84.7 0 1 324.69 1.27
  L 309.84 79.64
  A 1.31 1.24 -84.4 0 1 308.61 80.71
  L 300.52 80.70
  A 0.76 0.74 -84.8 0 1 299.80 79.81
  Z"
/>
<path fill="#fc0c18" d="
  M 345.11 39.15
  Q 345.51 42.28 346.08 39.18
  L 353.09 1.39
  A 1.09 1.08 5.1 0 1 354.16 0.50
  L 363.94 0.50
  A 0.83 0.83 -84.5 0 1 364.75 1.49
  L 349.86 80.02
  A 0.90 0.90 -84.5 0 1 348.98 80.75
  L 340.81 80.75
  A 1.28 1.28 -2.2 0 1 339.53 79.57
  Q 337.75 57.94 336.21 36.61
  C 336.17 36.08 335.63 35.00 335.34 36.52
  Q 331.17 58.38 326.74 79.96
  A 1.00 1.00 6.1 0 1 325.76 80.75
  L 315.92 80.75
  A 0.74 0.73 -84.8 0 1 315.20 79.88
  L 330.09 1.18
  A 0.65 0.60 -84.7 0 1 330.68 0.65
  L 339.44 0.53
  A 0.96 0.91 86.2 0 1 340.36 1.38
  L 345.11 39.15
  Z"
/>
<path fill="#fc0c18" d="
  M 372.30 16.91
  Q 372.80 14.06 373.48 11.32
  A 0.86 0.86 7.0 0 0 372.64 10.25
  L 367.99 10.25
  A 0.71 0.71 -84.0 0 1 367.30 9.39
  L 368.93 1.34
  A 1.06 1.03 -83.7 0 1 369.94 0.50
  L 392.39 0.56
  A 0.43 0.42 -86.4 0 1 392.81 1.04
  C 392.50 3.53 392.02 5.86 391.82 8.26
  Q 391.59 11.00 387.92 10.17
  Q 385.37 9.60 384.91 12.17
  L 372.68 80.24
  A 0.62 0.62 5.0 0 1 372.07 80.75
  L 361.85 80.75
  A 0.65 0.65 -84.8 0 1 361.21 79.98
  Q 366.79 48.33 372.30 16.91
  Z"
/>
<path fill="#fc0c18" d="
  M 394.03 69.87
  A 0.73 0.72 -83.8 0 0 394.73 70.75
  L 404.81 70.75
  A 0.44 0.43 4.9 0 1 405.25 71.26
  L 403.74 80.06
  A 0.86 0.83 4.8 0 1 402.90 80.75
  L 381.59 80.75
  A 0.42 0.42 5.7 0 1 381.18 80.25
  L 396.61 1.20
  A 0.78 0.77 -84.6 0 1 397.37 0.56
  L 417.46 0.50
  A 0.45 0.44 4.9 0 1 417.90 1.02
  L 416.51 9.69
  A 0.68 0.67 4.5 0 1 415.84 10.25
  L 406.19 10.25
  A 1.23 1.21 -84.2 0 0 405.00 11.24
  L 400.47 33.97
  A 1.13 1.10 5.9 0 0 401.57 35.29
  L 410.81 35.40
  A 0.48 0.47 -86.6 0 1 411.27 35.93
  Q 411.07 38.10 410.53 40.22
  C 410.23 41.39 410.86 43.76 408.61 43.59
  C 405.64 43.36 402.57 43.50 399.63 43.50
  A 1.14 1.14 3.7 0 0 398.50 44.49
  Q 396.78 57.35 394.03 69.87
  Z"
/>
<path fill="#fc0c18" d="
  M 427.96 35.39
  C 427.59 35.61 419.80 75.70 418.89 80.04
  A 0.82 0.80 -83.8 0 1 418.10 80.69
  L 407.90 80.74
  A 0.55 0.54 -85.2 0 1 407.36 80.09
  L 422.17 1.36
  A 1.06 1.05 5.2 0 1 423.21 0.50
  L 431.50 0.50
  A 1.13 1.13 -3.4 0 1 432.62 1.49
  L 437.25 39.27
  Q 437.75 43.30 438.48 39.29
  L 445.45 1.11
  A 0.76 0.75 -84.4 0 1 446.19 0.50
  L 456.39 0.50
  A 0.59 0.59 -84.4 0 1 456.97 1.21
  L 442.10 79.85
  A 1.11 1.10 -84.6 0 1 441.02 80.75
  L 432.83 80.75
  A 0.97 0.96 87.7 0 1 431.87 79.86
  L 428.47 35.82
  A 0.45 0.33 76.3 0 0 427.96 35.39
  Z"
/>
<path fill="#fc0c18" d="
  M 447.35 79.74
  C 452.36 53.69 456.77 27.15 462.45 1.05
  A 0.63 0.62 -83.6 0 1 463.06 0.56
  Q 479.81 0.39 484.75 0.50
  C 491.51 0.65 491.93 5.46 490.89 10.99
  Q 485.16 41.24 479.50 71.50
  C 478.40 77.40 475.28 80.42 469.18 80.60
  Q 459.08 80.91 448.15 80.73
  A 0.83 0.82 -84.2 0 1 447.35 79.74
  Z
  M 470.83 10.33
  C 466.85 30.88 463.28 51.34 459.56 71.38
  A 1.15 1.15 6.4 0 0 460.65 72.74
  C 468.47 73.01 469.52 71.08 470.94 63.63
  Q 475.61 39.04 480.19 14.42
  Q 480.75 11.41 477.94 10.21
  Q 474.93 8.92 471.47 9.68
  A 0.84 0.82 -1.2 0 0 470.83 10.33
  Z"
/>
<path fill="#fc0c18" d="
  M 494.94 17.19
  C 496.49 8.42 496.71 0.04 507.01 0.29
  Q 513.98 0.46 520.96 0.49
  C 526.03 0.52 530.05 2.35 529.06 8.06
  Q 526.13 25.02 517.18 71.01
  C 515.26 80.87 510.21 80.75 501.64 80.75
  C 495.99 80.75 483.58 82.94 485.25 72.75
  Q 487.02 61.92 494.94 17.19
  Z
  M 505.75 17.98
  Q 501.73 39.71 498.00 61.50
  C 497.40 64.98 495.60 69.19 497.93 71.78
  C 501.56 75.82 506.27 70.27 507.00 66.25
  Q 511.54 41.13 516.00 16.00
  Q 516.80 11.51 513.85 10.11
  C 508.18 7.42 506.45 14.15 505.75 17.98
  Z"
/>
<path fill="#000000" d="
  M 529.72 300.00
  L 399.44 300.00
  Q 394.06 299.37 388.69 300.00
  L 381.44 300.00
  L 375.50 299.79
  L 366.69 300.00
  L 362.44 300.00
  Q 357.19 299.37 351.94 300.00
  L 148.44 300.00
  Q 143.19 299.37 137.94 300.00
  L 70.18 300.00
  L 70.00 87.87
  A 0.87 0.87 0.0 0 1 70.87 87.00
  L 529.50 87.00
  A 0.50 0.50 0.0 0 1 530.00 87.50
  L 529.72 300.00
  Z
  M 201.07 175.26
  L 201.50 95.55
  A 0.53 0.50 89.5 0 0 200.99 95.02
  L 188.00 95.22
  A 1.11 0.98 -68.5 0 0 187.19 95.63
  L 88.78 217.28
  Q 88.20 218.00 89.13 218.00
  L 113.76 218.00
  A 1.45 1.43 18.9 0 0 114.89 217.46
  L 180.07 136.80
  Q 180.75 135.96 180.75 137.04
  L 180.75 217.45
  A 0.55 0.55 0.0 0 0 181.30 218.00
  L 193.05 218.00
  A 1.63 1.63 -70.5 0 0 194.32 217.39
  L 259.07 137.30
  Q 259.69 136.54 259.69 137.52
  L 259.56 217.37
  A 0.57 0.55 90.0 0 0 260.11 217.94
  L 279.55 217.83
  A 0.53 0.51 -90.0 0 0 280.06 217.30
  L 280.06 95.70
  A 0.55 0.49 90.0 0 0 279.57 95.15
  L 267.50 95.21
  A 1.14 0.94 -67.4 0 0 266.69 95.64
  L 201.99 175.59
  Q 201.06 176.74 201.07 175.26
  Z
  M 295.69 100.19
  Q 291.11 106.90 289.38 113.97
  C 285.83 128.44 285.80 156.25 298.31 167.19
  C 301.73 170.17 305.37 170.00 309.82 170.00
  Q 326.29 169.99 342.75 169.85
  C 357.12 169.73 354.90 192.24 346.50 192.25
  Q 317.22 192.30 288.18 192.19
  A 0.53 0.51 -89.4 0 0 287.67 192.71
  L 287.58 217.16
  A 0.83 0.80 90.0 0 0 288.38 217.99
  Q 323.38 218.18 356.62 217.77
  C 363.20 217.69 367.44 210.47 369.34 205.15
  Q 377.34 182.77 370.56 159.94
  C 368.69 153.62 364.32 145.25 357.05 143.86
  Q 356.46 143.75 347.93 143.75
  C 342.07 143.75 315.44 145.14 312.06 142.44
  C 305.88 137.49 305.85 123.51 314.39 120.98
  Q 316.07 120.48 324.67 120.55
  Q 347.44 120.76 371.11 120.49
  A 0.93 0.91 -90.0 0 0 372.01 119.57
  L 372.17 95.83
  A 0.82 0.81 -89.7 0 0 371.36 95.00
  Q 340.82 95.00 311.47 95.00
  C 303.59 95.00 299.81 94.14 295.69 100.19
  Z
  M 451.55 216.33
  C 459.72 212.88 465.41 204.76 465.42 195.75
  Q 465.50 146.00 465.50 95.69
  A 0.69 0.69 0.0 0 0 464.81 95.00
  L 445.92 95.00
  A 0.67 0.67 -89.6 0 0 445.25 95.66
  Q 444.93 137.55 444.99 179.12
  C 445.01 190.10 437.69 192.50 427.79 192.50
  C 416.25 192.50 400.13 195.12 399.97 179.67
  Q 399.53 137.68 399.81 95.68
  A 0.51 0.50 -89.4 0 0 399.32 95.17
  L 380.11 95.01
  A 0.62 0.61 -90.0 0 0 379.50 95.63
  Q 379.50 145.63 379.44 195.00
  C 379.42 208.21 389.90 218.10 403.00 218.13
  Q 422.62 218.17 442.23 217.84
  Q 448.24 217.73 451.55 216.33
  Z
  M 492.19 144.81
  L 492.19 217.49
  A 0.51 0.51 0.0 0 0 492.70 218.00
  L 512.19 218.00
  A 0.56 0.56 90.0 0 0 512.75 217.44
  L 512.75 95.52
  A 0.52 0.52 90.0 0 0 512.23 95.00
  L 500.39 95.00
  A 1.55 1.53 19.2 0 0 499.19 95.57
  L 472.70 128.17
  A 2.08 2.03 65.0 0 0 472.25 129.46
  L 472.18 143.74
  A 0.51 0.51 0.0 0 0 472.69 144.25
  L 491.68 144.31
  A 0.51 0.50 0.0 0 1 492.19 144.81
  Z
  M 512.75 224.55
  A 0.30 0.30 0.0 0 0 512.45 224.25
  L 88.51 224.25
  A 0.30 0.30 0.0 0 0 88.21 224.55
  L 88.21 242.45
  A 0.30 0.30 0.0 0 0 88.51 242.75
  L 512.45 242.75
  A 0.30 0.30 0.0 0 0 512.75 242.45
  L 512.75 224.55
  Z
  M 365.73 291.72
  C 374.32 294.30 377.95 285.47 378.63 278.86
  A 0.79 0.78 18.5 0 0 378.24 278.09
  L 373.40 275.34
  A 0.77 0.77 15.4 0 0 372.25 275.99
  Q 372.19 279.32 370.18 281.94
  Q 368.74 283.83 366.73 282.57
  C 362.35 279.84 362.12 259.55 368.02 258.10
  A 1.31 1.24 51.3 0 1 368.95 258.23
  Q 371.85 259.78 372.00 263.22
  A 0.71 0.68 77.1 0 0 372.96 263.85
  L 378.25 261.43
  A 0.68 0.63 72.2 0 0 378.59 260.69
  C 377.67 256.42 375.49 250.48 370.68 249.32
  C 352.56 244.97 352.13 287.65 365.73 291.72
  Z
  M 94.50 262.56
  L 98.36 290.21
  A 0.74 0.65 85.5 0 0 99.02 290.85
  L 103.45 290.81
  A 0.72 0.54 -84.7 0 0 104.01 290.19
  L 107.87 263.15
  Q 108.25 260.50 108.25 263.18
  L 108.25 290.24
  A 0.74 0.72 89.6 0 0 108.98 290.98
  L 113.44 290.96
  A 0.52 0.50 90.0 0 0 113.94 290.44
  L 114.00 250.50
  A 0.50 0.50 0.0 0 0 113.50 250.00
  L 105.09 250.00
  A 0.60 0.59 -86.1 0 0 104.50 250.52
  L 101.26 273.70
  Q 101.19 274.21 101.11 273.70
  L 97.76 250.57
  A 0.67 0.66 -4.0 0 0 97.10 250.00
  L 88.81 250.00
  A 0.56 0.56 0.0 0 0 88.25 250.56
  L 88.25 290.48
  A 0.52 0.52 0.0 0 0 88.77 291.00
  L 93.72 291.00
  A 0.55 0.54 -89.5 0 0 94.26 290.46
  L 94.42 262.56
  Q 94.43 262.07 94.50 262.56
  Z
  M 127.07 274.05
  L 136.98 274.00
  A 0.52 0.51 0.0 0 0 137.50 273.49
  L 137.50 265.76
  A 0.76 0.76 0.0 0 0 136.74 265.00
  L 127.16 265.00
  A 0.66 0.66 89.8 0 1 126.50 264.34
  L 126.50 259.66
  A 0.66 0.66 -89.8 0 1 127.16 259.00
  L 137.84 259.00
  A 0.66 0.66 89.9 0 0 138.50 258.34
  L 138.50 250.78
  A 0.78 0.78 0.0 0 0 137.72 250.00
  L 119.80 250.00
  A 0.55 0.55 -89.8 0 0 119.25 250.55
  L 119.31 290.45
  A 0.50 0.49 0.0 0 0 119.81 290.94
  L 138.19 291.00
  A 0.53 0.50 -0.5 0 0 138.72 290.49
  L 138.60 282.69
  A 0.54 0.53 0.0 0 0 138.06 282.16
  L 127.40 282.04
  A 0.89 0.84 0.3 0 1 126.52 281.20
  L 126.54 274.56
  A 0.54 0.52 -0.0 0 1 127.07 274.05
  Z
  M 159.89 251.50
  Q 157.99 250.00 155.57 250.00
  L 144.91 250.00
  A 0.66 0.66 0.0 0 0 144.25 250.66
  L 144.25 290.22
  A 0.78 0.78 0.1 0 0 145.03 291.00
  C 153.17 291.00 161.94 292.79 164.34 282.27
  C 166.10 274.51 167.05 257.16 159.89 251.50
  Z
  M 177.76 250.52
  A 0.52 0.52 0.0 0 0 177.24 250.00
  L 171.02 250.00
  A 0.52 0.52 0.0 0 0 170.50 250.52
  L 170.50 290.48
  A 0.52 0.52 0.0 0 0 171.02 291.00
  L 177.24 291.00
  A 0.52 0.52 0.0 0 0 177.76 290.48
  L 177.76 250.52
  Z
  M 191.06 284.05
  L 197.61 284.01
  A 0.85 0.76 83.2 0 1 198.38 284.69
  L 199.54 290.38
  A 0.81 0.78 -5.7 0 0 200.33 291.00
  L 206.22 290.95
  A 0.60 0.59 84.0 0 0 206.79 290.23
  L 198.67 250.67
  A 0.67 0.62 84.1 0 0 198.07 250.14
  L 191.08 250.04
  A 0.82 0.76 -83.2 0 0 190.31 250.69
  L 182.10 290.13
  A 0.69 0.66 -84.4 0 0 182.75 290.96
  L 188.81 290.87
  A 0.68 0.59 -84.6 0 0 189.39 290.31
  L 190.46 284.55
  A 0.61 0.61 5.1 0 1 191.06 284.05
  Z
  M 230.07 274.05
  L 239.83 274.00
  A 0.67 0.66 0.0 0 0 240.50 273.34
  L 240.50 265.77
  A 0.77 0.77 0.0 0 0 239.73 265.00
  L 230.16 265.00
  A 0.66 0.66 89.8 0 1 229.50 264.34
  L 229.50 259.66
  A 0.66 0.66 -89.8 0 1 230.16 259.00
  L 240.84 259.00
  A 0.66 0.66 89.9 0 0 241.50 258.34
  L 241.50 250.78
  A 0.78 0.78 0.0 0 0 240.72 250.00
  L 222.80 250.00
  A 0.55 0.55 0.0 0 0 222.25 250.55
  L 222.31 290.45
  A 0.50 0.49 0.0 0 0 222.81 290.94
  L 241.09 291.00
  A 0.67 0.66 90.0 0 0 241.75 290.33
  L 241.75 282.99
  A 0.99 0.99 0.0 0 0 240.76 282.00
  L 230.16 282.00
  A 0.66 0.64 -0.0 0 1 229.50 281.36
  L 229.55 274.57
  A 0.53 0.52 -0.6 0 1 230.07 274.05
  Z
  M 262.25 270.96
  L 254.36 250.78
  A 0.90 0.65 76.6 0 0 253.69 250.20
  L 248.27 250.15
  A 1.14 1.02 90.0 0 0 247.25 251.29
  L 247.25 290.23
  A 0.72 0.70 90.0 0 0 247.95 290.95
  L 253.72 291.00
  A 0.56 0.54 90.0 0 0 254.26 290.44
  L 254.48 270.26
  Q 254.48 269.74 254.67 270.23
  L 262.31 290.29
  A 0.86 0.71 77.7 0 0 263.00 290.83
  L 268.63 290.92
  A 0.98 0.88 -89.7 0 0 269.52 289.94
  L 269.42 250.81
  A 0.62 0.58 -84.9 0 0 268.95 250.21
  Q 265.97 249.67 262.99 250.16
  A 0.60 0.58 85.5 0 0 262.50 250.75
  L 262.44 270.93
  Q 262.44 271.46 262.25 270.96
  Z
  M 283.05 274.03
  L 289.57 274.14
  A 0.55 0.53 -89.5 0 1 290.09 274.69
  L 289.97 290.17
  A 0.83 0.78 -90.0 0 0 290.75 291.00
  L 296.98 291.00
  A 0.52 0.52 0.0 0 0 297.50 290.48
  L 297.50 251.16
  A 1.04 0.93 89.5 0 0 296.55 250.12
  L 290.55 250.22
  A 0.59 0.47 89.5 0 0 290.09 250.81
  L 290.10 263.31
  A 0.56 0.54 -90.0 0 1 289.56 263.87
  L 283.18 263.87
  A 0.56 0.52 89.4 0 1 282.66 263.32
  L 282.51 250.62
  A 0.62 0.60 90.0 0 0 281.91 250.00
  L 275.92 250.00
  A 0.67 0.67 0.0 0 0 275.25 250.67
  L 275.25 290.23
  A 0.72 0.70 90.0 0 0 275.95 290.95
  L 282.05 290.99
  A 0.66 0.62 90.0 0 0 282.68 290.32
  L 282.55 274.56
  A 0.52 0.49 90.0 0 1 283.05 274.03
  Z
  M 317.28 284.55
  L 318.36 290.37
  A 0.76 0.75 85.0 0 0 319.10 291.00
  L 325.29 291.00
  A 0.50 0.49 -5.7 0 0 325.78 290.41
  L 317.67 250.68
  A 0.68 0.61 84.1 0 0 317.07 250.14
  L 310.16 250.05
  A 0.85 0.80 -82.9 0 0 309.36 250.72
  L 301.16 290.21
  A 0.47 0.43 -82.9 0 0 301.56 290.78
  L 307.81 290.88
  A 0.69 0.54 -82.0 0 0 308.38 290.33
  L 309.55 284.67
  A 0.67 0.67 -84.6 0 1 310.19 284.14
  L 316.69 284.03
  A 0.62 0.58 84.3 0 1 317.28 284.55
  Z
  M 344.15 271.47
  L 336.26 250.70
  A 1.12 1.07 -9.7 0 0 335.22 250.00
  L 329.91 250.00
  A 0.66 0.66 0.1 0 0 329.25 250.66
  L 329.25 290.22
  A 0.78 0.78 0.0 0 0 330.03 291.00
  L 335.59 291.00
  A 0.68 0.67 90.0 0 0 336.26 290.32
  L 336.44 270.14
  Q 336.45 269.44 336.70 270.10
  L 344.32 290.29
  A 0.82 0.70 79.2 0 0 345.00 290.83
  L 350.71 290.91
  A 0.63 0.58 -89.6 0 0 351.30 290.28
  L 351.32 250.69
  A 0.57 0.51 -89.5 0 0 350.82 250.12
  L 345.51 250.08
  A 1.11 1.02 -89.5 0 0 344.48 251.18
  L 344.33 271.44
  Q 344.33 271.93 344.15 271.47
  Z
  M 391.73 281.44
  L 391.62 274.67
  A 0.58 0.51 -1.0 0 1 392.19 274.15
  L 401.46 274.04
  A 1.12 1.03 -1.0 0 0 402.57 272.98
  L 402.35 265.69
  A 0.55 0.54 89.4 0 0 401.82 265.16
  L 392.32 264.94
  A 0.68 0.63 -4.9 0 1 391.69 264.45
  Q 391.15 262.00 391.69 259.55
  A 0.66 0.62 5.6 0 1 392.31 259.07
  L 402.82 258.84
  A 0.55 0.53 -0.0 0 0 403.36 258.32
  L 403.46 250.95
  A 0.98 0.94 0.3 0 0 402.48 250.00
  L 384.81 250.06
  A 0.51 0.50 -90.0 0 0 384.31 250.57
  L 384.25 290.33
  A 0.66 0.65 90.0 0 0 384.90 290.99
  L 403.06 290.83
  A 0.55 0.51 -0.0 0 0 403.61 290.32
  L 403.62 282.69
  A 0.58 0.53 1.1 0 0 403.06 282.16
  L 392.32 281.94
  A 0.61 0.51 0.7 0 1 391.73 281.44
  Z
  M 414.50 264.29
  L 414.71 264.25
  L 418.36 290.32
  A 0.67 0.55 84.9 0 0 418.93 290.90
  L 423.45 290.80
  A 0.72 0.55 -85.1 0 0 424.01 290.19
  L 428.11 261.56
  Q 428.19 261.05 428.19 261.56
  L 428.31 290.44
  A 0.52 0.50 90.0 0 0 428.81 290.96
  L 433.49 290.99
  A 0.52 0.51 90.0 0 0 434.00 290.47
  L 433.94 250.57
  A 0.52 0.51 90.0 0 0 433.43 250.05
  L 425.26 250.00
  A 0.67 0.66 4.0 0 0 424.60 250.57
  L 421.29 273.85
  Q 421.21 274.39 421.13 273.85
  L 417.77 250.66
  A 0.75 0.72 85.5 0 0 417.04 250.01
  L 408.81 250.05
  A 0.51 0.50 -90.0 0 0 408.31 250.56
  L 408.31 290.45
  A 0.51 0.51 0.0 0 0 408.82 290.96
  L 413.51 290.98
  A 0.79 0.75 90.0 0 0 414.26 290.19
  L 414.50 264.29
  Z
  M 447.73 281.44
  L 447.62 274.67
  A 0.58 0.51 -1.0 0 1 448.19 274.15
  L 457.58 274.04
  A 0.87 0.80 -0.4 0 0 458.44 273.24
  L 458.36 265.68
  A 0.56 0.53 0.6 0 0 457.82 265.16
  L 448.32 264.94
  A 0.68 0.63 -4.9 0 1 447.69 264.45
  Q 447.15 262.00 447.69 259.55
  A 0.64 0.64 -84.2 0 1 448.30 259.05
  L 458.59 259.00
  A 0.87 0.81 -0.6 0 0 459.46 258.17
  L 459.36 250.69
  A 0.55 0.53 -0.5 0 0 458.81 250.17
  L 440.80 250.01
  A 0.56 0.55 -90.0 0 0 440.25 250.57
  L 440.25 290.50
  A 0.50 0.50 0.0 0 0 440.75 291.00
  L 459.09 291.00
  A 0.66 0.66 0.0 0 0 459.75 290.34
  L 459.75 282.75
  A 0.77 0.76 0.0 0 0 458.98 281.99
  L 448.32 281.95
  A 0.59 0.52 -0.5 0 1 447.73 281.44
  Z
  M 471.50 270.04
  L 479.14 290.22
  A 0.91 0.88 84.4 0 0 479.81 290.79
  Q 482.88 291.37 485.95 290.79
  A 0.61 0.59 84.9 0 0 486.43 290.19
  L 486.43 250.82
  A 0.60 0.49 -89.5 0 0 485.95 250.22
  L 480.10 250.10
  A 0.66 0.59 -89.6 0 0 479.50 250.76
  L 479.50 270.78
  Q 479.50 272.06 479.04 270.86
  L 471.37 250.77
  A 0.90 0.89 84.5 0 0 470.70 250.21
  Q 467.75 249.63 464.79 250.21
  A 0.62 0.60 84.2 0 0 464.31 250.81
  L 464.31 290.18
  A 0.62 0.61 -84.3 0 0 464.80 290.79
  Q 467.78 291.33 470.76 290.84
  A 0.60 0.58 85.5 0 0 471.25 290.25
  L 471.31 270.07
  Q 471.31 269.54 471.50 270.04
  Z
  M 505.55 259.05
  L 511.60 259.01
  A 0.69 0.69 -89.1 0 0 512.29 258.34
  L 512.56 250.87
  A 0.82 0.78 -89.3 0 0 511.77 250.02
  L 491.19 250.17
  A 0.52 0.49 90.0 0 0 490.70 250.69
  L 490.70 258.31
  A 0.53 0.51 -88.3 0 0 491.18 258.84
  L 497.07 259.16
  A 0.53 0.53 1.7 0 1 497.57 259.69
  L 497.74 290.07
  A 0.89 0.85 -89.7 0 0 498.58 290.96
  L 504.49 290.99
  A 0.52 0.50 -89.5 0 0 505.00 290.47
  L 505.06 259.56
  A 0.51 0.49 -90.0 0 1 505.55 259.05
  Z"
/>
<path fill="#ffffff" d="
  M 201.07 175.26
  Q 201.06 176.74 201.99 175.59
  L 266.69 95.64
  A 1.14 0.94 -67.4 0 1 267.50 95.21
  L 279.57 95.15
  A 0.55 0.49 -90.0 0 1 280.06 95.70
  L 280.06 217.30
  A 0.53 0.51 -90.0 0 1 279.55 217.83
  L 260.11 217.94
  A 0.57 0.55 90.0 0 1 259.56 217.37
  L 259.69 137.52
  Q 259.69 136.54 259.07 137.30
  L 194.32 217.39
  A 1.63 1.63 -70.5 0 1 193.05 218.00
  L 181.30 218.00
  A 0.55 0.55 0.0 0 1 180.75 217.45
  L 180.75 137.04
  Q 180.75 135.96 180.07 136.80
  L 114.89 217.46
  A 1.45 1.43 18.9 0 1 113.76 218.00
  L 89.13 218.00
  Q 88.20 218.00 88.78 217.28
  L 187.19 95.63
  A 1.11 0.98 -68.5 0 1 188.00 95.22
  L 200.99 95.02
  A 0.53 0.50 89.5 0 1 201.50 95.55
  L 201.07 175.26
  Z"
/>
<path fill="#ffffff" d="
  M 295.69 100.19
  C 299.81 94.14 303.59 95.00 311.47 95.00
  Q 340.82 95.00 371.36 95.00
  A 0.82 0.81 -89.7 0 1 372.17 95.83
  L 372.01 119.57
  A 0.93 0.91 -90.0 0 1 371.11 120.49
  Q 347.44 120.76 324.67 120.55
  Q 316.07 120.48 314.39 120.98
  C 305.85 123.51 305.88 137.49 312.06 142.44
  C 315.44 145.14 342.07 143.75 347.93 143.75
  Q 356.46 143.75 357.05 143.86
  C 364.32 145.25 368.69 153.62 370.56 159.94
  Q 377.34 182.77 369.34 205.15
  C 367.44 210.47 363.20 217.69 356.62 217.77
  Q 323.38 218.18 288.38 217.99
  A 0.83 0.80 -90.0 0 1 287.58 217.16
  L 287.67 192.71
  A 0.53 0.51 -89.4 0 1 288.18 192.19
  Q 317.22 192.30 346.50 192.25
  C 354.90 192.24 357.12 169.73 342.75 169.85
  Q 326.29 169.99 309.82 170.00
  C 305.37 170.00 301.73 170.17 298.31 167.19
  C 285.80 156.25 285.83 128.44 289.38 113.97
  Q 291.11 106.90 295.69 100.19
  Z"
/>
<path fill="#ffffff" d="
  M 465.42 195.75
  C 465.41 204.76 459.72 212.88 451.55 216.33
  Q 448.24 217.73 442.23 217.84
  Q 422.62 218.17 403.00 218.13
  C 389.90 218.10 379.42 208.21 379.44 195.00
  Q 379.50 145.63 379.50 95.63
  A 0.62 0.61 -90.0 0 1 380.11 95.01
  L 399.32 95.17
  A 0.51 0.50 -89.4 0 1 399.81 95.68
  Q 399.53 137.68 399.97 179.67
  C 400.13 195.12 416.25 192.50 427.79 192.50
  C 437.69 192.50 445.01 190.10 444.99 179.12
  Q 444.93 137.55 445.25 95.66
  A 0.67 0.67 -89.6 0 1 445.92 95.00
  L 464.81 95.00
  A 0.69 0.69 0.0 0 1 465.50 95.69
  Q 465.50 146.00 465.42 195.75
  Z"
/>
<path fill="#ffffff" d="
  M 491.68 144.31
  L 472.69 144.25
  A 0.51 0.51 0.0 0 1 472.18 143.74
  L 472.25 129.46
  A 2.08 2.03 65.0 0 1 472.70 128.17
  L 499.19 95.57
  A 1.55 1.53 19.2 0 1 500.39 95.00
  L 512.23 95.00
  A 0.52 0.52 -90.0 0 1 512.75 95.52
  L 512.75 217.44
  A 0.56 0.56 89.8 0 1 512.19 218.00
  L 492.70 218.00
  A 0.51 0.51 0.0 0 1 492.19 217.49
  L 492.19 144.81
  A 0.51 0.50 0.0 0 0 491.68 144.31
  Z"
/>
<rect fill="#ff0000" x="88.21" y="224.25" width="424.54" height="18.50" rx="0.30"/>
<path fill="#ffffff" d="
  M 365.73 291.72
  C 352.13 287.65 352.56 244.97 370.68 249.32
  C 375.49 250.48 377.67 256.42 378.59 260.69
  A 0.68 0.63 72.2 0 1 378.25 261.43
  L 372.96 263.85
  A 0.71 0.68 77.1 0 1 372.00 263.22
  Q 371.85 259.78 368.95 258.23
  A 1.31 1.24 51.3 0 0 368.02 258.10
  C 362.12 259.55 362.35 279.84 366.73 282.57
  Q 368.74 283.83 370.18 281.94
  Q 372.19 279.32 372.25 275.99
  A 0.77 0.77 15.4 0 1 373.40 275.34
  L 378.24 278.09
  A 0.79 0.78 18.5 0 1 378.63 278.86
  C 377.95 285.47 374.32 294.30 365.73 291.72
  Z"
/>
<path fill="#ffffff" d="
  M 94.42 262.56
  L 94.26 290.46
  A 0.55 0.54 -89.5 0 1 93.72 291.00
  L 88.77 291.00
  A 0.52 0.52 -0.0 0 1 88.25 290.48
  L 88.25 250.56
  A 0.56 0.56 0.0 0 1 88.81 250.00
  L 97.10 250.00
  A 0.67 0.66 -4.0 0 1 97.76 250.57
  L 101.11 273.70
  Q 101.19 274.21 101.26 273.70
  L 104.50 250.52
  A 0.60 0.59 -86.1 0 1 105.09 250.00
  L 113.50 250.00
  A 0.50 0.50 0.0 0 1 114.00 250.50
  L 113.94 290.44
  A 0.52 0.50 -90.0 0 1 113.44 290.96
  L 108.98 290.98
  A 0.74 0.72 89.6 0 1 108.25 290.24
  L 108.25 263.18
  Q 108.25 260.50 107.87 263.15
  L 104.01 290.19
  A 0.72 0.54 -84.7 0 1 103.45 290.81
  L 99.02 290.85
  A 0.74 0.65 85.5 0 1 98.36 290.21
  L 94.50 262.56
  Q 94.43 262.07 94.42 262.56
  Z"
/>
<path fill="#ffffff" d="
  M 126.54 274.56
  L 126.52 281.20
  A 0.89 0.84 0.3 0 0 127.40 282.04
  L 138.06 282.16
  A 0.54 0.53 0.0 0 1 138.60 282.69
  L 138.72 290.49
  A 0.53 0.50 -0.5 0 1 138.19 291.00
  L 119.81 290.94
  A 0.50 0.49 0.0 0 1 119.31 290.45
  L 119.25 250.55
  A 0.55 0.55 89.2 0 1 119.80 250.00
  L 137.72 250.00
  A 0.78 0.78 0.0 0 1 138.50 250.78
  L 138.50 258.34
  A 0.66 0.66 -89.8 0 1 137.84 259.00
  L 127.16 259.00
  A 0.66 0.66 89.9 0 0 126.50 259.66
  L 126.50 264.34
  A 0.66 0.66 -89.9 0 0 127.16 265.00
  L 136.74 265.00
  A 0.76 0.76 0.0 0 1 137.50 265.76
  L 137.50 273.49
  A 0.52 0.51 -0.0 0 1 136.98 274.00
  L 127.07 274.05
  A 0.54 0.52 -0.0 0 0 126.54 274.56
  Z"
/>
<path fill="#ffffff" d="
  M 159.89 251.50
  C 167.05 257.16 166.10 274.51 164.34 282.27
  C 161.94 292.79 153.17 291.00 145.03 291.00
  A 0.78 0.78 0.1 0 1 144.25 290.22
  L 144.25 250.66
  A 0.66 0.66 0.0 0 1 144.91 250.00
  L 155.57 250.00
  Q 157.99 250.00 159.89 251.50
  Z
  M 155.57 259.87
  Q 154.17 258.87 152.31 259.04
  A 0.61 0.61 -2.6 0 0 151.75 259.65
  L 151.75 281.36
  A 0.62 0.62 2.5 0 0 152.32 281.98
  C 160.58 282.74 158.40 267.12 157.53 262.88
  Q 157.14 260.99 155.57 259.87
  Z"
/>
<rect fill="#ffffff" x="170.50" y="250.00" width="7.26" height="41.00" rx="0.52"/>
<path fill="#ffffff" d="
  M 190.46 284.55
  L 189.39 290.31
  A 0.68 0.59 -84.6 0 1 188.81 290.87
  L 182.75 290.96
  A 0.69 0.66 -84.4 0 1 182.10 290.13
  L 190.31 250.69
  A 0.82 0.76 -83.2 0 1 191.08 250.04
  L 198.07 250.14
  A 0.67 0.62 84.1 0 1 198.67 250.67
  L 206.79 290.23
  A 0.60 0.59 84.0 0 1 206.22 290.95
  L 200.33 291.00
  A 0.81 0.78 -5.7 0 1 199.54 290.38
  L 198.38 284.69
  A 0.85 0.76 83.2 0 0 197.61 284.01
  L 191.06 284.05
  A 0.61 0.61 5.1 0 0 190.46 284.55
  Z
  M 194.27 262.29
  L 192.50 273.29
  A 0.51 0.46 -84.8 0 0 192.95 273.88
  L 196.20 273.84
  A 0.56 0.42 83.9 0 0 196.59 273.19
  L 194.79 262.31
  Q 194.52 260.72 194.27 262.29
  Z"
/>
<path fill="#ffffff" d="
  M 229.55 274.57
  L 229.50 281.36
  A 0.66 0.64 -0.0 0 0 230.16 282.00
  L 240.76 282.00
  A 0.99 0.99 0.0 0 1 241.75 282.99
  L 241.75 290.33
  A 0.67 0.66 90.0 0 1 241.09 291.00
  L 222.81 290.94
  A 0.50 0.49 0.0 0 1 222.31 290.45
  L 222.25 250.55
  A 0.55 0.55 0.0 0 1 222.80 250.00
  L 240.72 250.00
  A 0.78 0.78 0.0 0 1 241.50 250.78
  L 241.50 258.34
  A 0.66 0.66 -89.8 0 1 240.84 259.00
  L 230.16 259.00
  A 0.66 0.66 89.9 0 0 229.50 259.66
  L 229.50 264.34
  A 0.66 0.66 -89.9 0 0 230.16 265.00
  L 239.73 265.00
  A 0.77 0.77 0.1 0 1 240.50 265.77
  L 240.50 273.34
  A 0.67 0.66 -0.0 0 1 239.83 274.00
  L 230.07 274.05
  A 0.53 0.52 -0.6 0 0 229.55 274.57
  Z"
/>
<path fill="#ffffff" d="
  M 262.44 270.93
  L 262.50 250.75
  A 0.60 0.58 85.5 0 1 262.99 250.16
  Q 265.97 249.67 268.95 250.21
  A 0.62 0.58 -84.9 0 1 269.42 250.81
  L 269.52 289.94
  A 0.98 0.88 -89.7 0 1 268.63 290.92
  L 263.00 290.83
  A 0.86 0.71 77.7 0 1 262.31 290.29
  L 254.67 270.23
  Q 254.48 269.74 254.48 270.26
  L 254.26 290.44
  A 0.56 0.54 -90.0 0 1 253.72 291.00
  L 247.95 290.95
  A 0.72 0.70 -90.0 0 1 247.25 290.23
  L 247.25 251.29
  A 1.14 1.02 -90.0 0 1 248.27 250.15
  L 253.69 250.20
  A 0.90 0.65 76.6 0 1 254.36 250.78
  L 262.25 270.96
  Q 262.44 271.46 262.44 270.93
  Z"
/>
<path fill="#ffffff" d="
  M 282.55 274.56
  L 282.68 290.32
  A 0.66 0.62 90.0 0 1 282.05 290.99
  L 275.95 290.95
  A 0.72 0.70 -90.0 0 1 275.25 290.23
  L 275.25 250.67
  A 0.67 0.67 -0.2 0 1 275.92 250.00
  L 281.91 250.00
  A 0.62 0.60 -90.0 0 1 282.51 250.62
  L 282.66 263.32
  A 0.56 0.52 89.4 0 0 283.18 263.87
  L 289.56 263.87
  A 0.56 0.54 -90.0 0 0 290.10 263.31
  L 290.09 250.81
  A 0.59 0.47 89.5 0 1 290.55 250.22
  L 296.55 250.12
  A 1.04 0.93 89.5 0 1 297.50 251.16
  L 297.50 290.48
  A 0.52 0.52 0.0 0 1 296.98 291.00
  L 290.75 291.00
  A 0.83 0.78 -90.0 0 1 289.97 290.17
  L 290.09 274.69
  A 0.55 0.53 -89.5 0 0 289.57 274.14
  L 283.05 274.03
  A 0.52 0.49 90.0 0 0 282.55 274.56
  Z"
/>
<path fill="#ffffff" d="
  M 316.69 284.03
  L 310.19 284.14
  A 0.67 0.67 -84.6 0 0 309.55 284.67
  L 308.38 290.33
  A 0.69 0.54 -82.0 0 1 307.81 290.88
  L 301.56 290.78
  A 0.47 0.43 -82.9 0 1 301.16 290.21
  L 309.36 250.72
  A 0.85 0.80 -82.9 0 1 310.16 250.05
  L 317.07 250.14
  A 0.68 0.61 84.1 0 1 317.67 250.68
  L 325.78 290.41
  A 0.50 0.49 -5.7 0 1 325.29 291.00
  L 319.10 291.00
  A 0.76 0.75 85.0 0 1 318.36 290.37
  L 317.28 284.55
  A 0.62 0.58 84.3 0 0 316.69 284.03
  Z
  M 313.31 262.39
  L 311.44 273.49
  A 0.45 0.43 4.8 0 0 311.89 274.00
  L 314.83 274.00
  A 0.79 0.78 84.8 0 0 315.60 273.07
  L 313.73 262.40
  Q 313.51 261.15 313.31 262.39
  Z"
/>
<path fill="#ffffff" d="
  M 344.33 271.44
  L 344.48 251.18
  A 1.11 1.02 -89.5 0 1 345.51 250.08
  L 350.82 250.12
  A 0.57 0.51 -89.5 0 1 351.32 250.69
  L 351.30 290.28
  A 0.63 0.58 -89.6 0 1 350.71 290.91
  L 345.00 290.83
  A 0.82 0.70 79.2 0 1 344.32 290.29
  L 336.70 270.10
  Q 336.45 269.44 336.44 270.14
  L 336.26 290.32
  A 0.68 0.67 -90.0 0 1 335.59 291.00
  L 330.03 291.00
  A 0.78 0.78 0.0 0 1 329.25 290.22
  L 329.25 250.66
  A 0.66 0.66 -0.2 0 1 329.91 250.00
  L 335.22 250.00
  A 1.12 1.07 -9.7 0 1 336.26 250.70
  L 344.15 271.47
  Q 344.33 271.93 344.33 271.44
  Z"
/>
<path fill="#ffffff" d="
  M 392.32 281.94
  L 403.06 282.16
  A 0.58 0.53 1.1 0 1 403.62 282.69
  L 403.61 290.32
  A 0.55 0.51 0.0 0 1 403.06 290.83
  L 384.90 290.99
  A 0.66 0.65 -90.0 0 1 384.25 290.33
  L 384.31 250.57
  A 0.51 0.50 -90.0 0 1 384.81 250.06
  L 402.48 250.00
  A 0.98 0.94 0.3 0 1 403.46 250.95
  L 403.36 258.32
  A 0.55 0.53 -0.0 0 1 402.82 258.84
  L 392.31 259.07
  A 0.66 0.62 5.6 0 0 391.69 259.55
  Q 391.15 262.00 391.69 264.45
  A 0.68 0.63 -4.9 0 0 392.32 264.94
  L 401.82 265.16
  A 0.55 0.54 89.4 0 1 402.35 265.69
  L 402.57 272.98
  A 1.12 1.03 -1.0 0 1 401.46 274.04
  L 392.19 274.15
  A 0.58 0.51 -1.0 0 0 391.62 274.67
  L 391.73 281.44
  A 0.61 0.51 0.7 0 0 392.32 281.94
  Z"
/>
<path fill="#ffffff" d="
  M 414.71 264.25
  Q 414.29 259.29 414.50 264.29
  L 414.26 290.19
  A 0.79 0.75 -90.0 0 1 413.51 290.98
  L 408.82 290.96
  A 0.51 0.51 0.0 0 1 408.31 290.45
  L 408.31 250.56
  A 0.51 0.50 -90.0 0 1 408.81 250.05
  L 417.04 250.01
  A 0.75 0.72 85.5 0 1 417.77 250.66
  L 421.13 273.85
  Q 421.21 274.39 421.29 273.85
  L 424.60 250.57
  A 0.67 0.66 4.0 0 1 425.26 250.00
  L 433.43 250.05
  A 0.52 0.51 -90.0 0 1 433.94 250.57
  L 434.00 290.47
  A 0.52 0.51 90.0 0 1 433.49 290.99
  L 428.81 290.96
  A 0.52 0.50 -90.0 0 1 428.31 290.44
  L 428.19 261.56
  Q 428.19 261.05 428.11 261.56
  L 424.01 290.19
  A 0.72 0.55 -85.1 0 1 423.45 290.80
  L 418.93 290.90
  A 0.67 0.55 84.9 0 1 418.36 290.32
  L 414.71 264.25
  Z"
/>
<path fill="#ffffff" d="
  M 448.32 281.95
  L 458.98 281.99
  A 0.77 0.76 0.0 0 1 459.75 282.75
  L 459.75 290.34
  A 0.66 0.66 0.0 0 1 459.09 291.00
  L 440.75 291.00
  A 0.50 0.50 0.0 0 1 440.25 290.50
  L 440.25 250.57
  A 0.56 0.55 -90.0 0 1 440.80 250.01
  L 458.81 250.17
  A 0.55 0.53 -0.5 0 1 459.36 250.69
  L 459.46 258.17
  A 0.87 0.81 -0.6 0 1 458.59 259.00
  L 448.30 259.05
  A 0.64 0.64 -84.2 0 0 447.69 259.55
  Q 447.15 262.00 447.69 264.45
  A 0.68 0.63 -4.9 0 0 448.32 264.94
  L 457.82 265.16
  A 0.56 0.53 0.6 0 1 458.36 265.68
  L 458.44 273.24
  A 0.87 0.80 -0.4 0 1 457.58 274.04
  L 448.19 274.15
  A 0.58 0.51 -1.0 0 0 447.62 274.67
  L 447.73 281.44
  A 0.59 0.52 -0.5 0 0 448.32 281.95
  Z"
/>
<path fill="#ffffff" d="
  M 471.31 270.07
  L 471.25 290.25
  A 0.60 0.58 85.5 0 1 470.76 290.84
  Q 467.78 291.33 464.80 290.79
  A 0.62 0.61 -84.3 0 1 464.31 290.18
  L 464.31 250.81
  A 0.62 0.60 84.2 0 1 464.79 250.21
  Q 467.75 249.63 470.70 250.21
  A 0.90 0.89 84.5 0 1 471.37 250.77
  L 479.04 270.86
  Q 479.50 272.06 479.50 270.78
  L 479.50 250.76
  A 0.66 0.59 -89.6 0 1 480.10 250.10
  L 485.95 250.22
  A 0.60 0.49 -89.5 0 1 486.43 250.82
  L 486.43 290.19
  A 0.61 0.59 84.9 0 1 485.95 290.79
  Q 482.88 291.37 479.81 290.79
  A 0.91 0.88 84.4 0 1 479.14 290.22
  L 471.50 270.04
  Q 471.31 269.54 471.31 270.07
  Z"
/>
<path fill="#ffffff" d="
  M 505.06 259.56
  L 505.00 290.47
  A 0.52 0.50 -89.5 0 1 504.49 290.99
  L 498.58 290.96
  A 0.89 0.85 -89.7 0 1 497.74 290.07
  L 497.57 259.69
  A 0.53 0.53 1.7 0 0 497.07 259.16
  L 491.18 258.84
  A 0.53 0.51 -88.3 0 1 490.70 258.31
  L 490.70 250.69
  A 0.52 0.49 -90.0 0 1 491.19 250.17
  L 511.77 250.02
  A 0.82 0.78 -89.3 0 1 512.56 250.87
  L 512.29 258.34
  A 0.69 0.69 -89.1 0 1 511.60 259.01
  L 505.55 259.05
  A 0.51 0.49 90.0 0 0 505.06 259.56
  Z"
/>
<path fill="#000000" d="
  M 155.57 259.87
  Q 157.14 260.99 157.53 262.88
  C 158.40 267.12 160.58 282.74 152.32 281.98
  A 0.62 0.62 2.5 0 1 151.75 281.36
  L 151.75 259.65
  A 0.61 0.61 -2.6 0 1 152.31 259.04
  Q 154.17 258.87 155.57 259.87
  Z"
/>
<path fill="#000000" d="
  M 313.31 262.39
  Q 313.51 261.15 313.73 262.40
  L 315.60 273.07
  A 0.79 0.78 84.8 0 1 314.83 274.00
  L 311.89 274.00
  A 0.45 0.43 4.8 0 1 311.44 273.49
  L 313.31 262.39
  Z"
/>
<path fill="#000000" d="
  M 194.27 262.29
  Q 194.52 260.72 194.79 262.31
  L 196.59 273.19
  A 0.56 0.42 83.9 0 1 196.20 273.84
  L 192.95 273.88
  A 0.51 0.46 -84.8 0 1 192.50 273.29
  L 194.27 262.29
  Z"
/>
<path fill="#fc0c18" d="
  M 414.71 264.25
  L 414.50 264.29
  Q 414.29 259.29 414.71 264.25
  Z"
/>
<path fill="#000000" d="
  M 148.44 300.00
  L 137.94 300.00
  Q 143.19 299.37 148.44 300.00
  Z"
/>
<path fill="#000000" d="
  M 362.44 300.00
  L 351.94 300.00
  Q 357.19 299.37 362.44 300.00
  Z"
/>
<path fill="#000000" d="
  M 375.50 299.79
  L 381.44 300.00
  L 375.44 300.00
  L 375.50 299.79
  Z"
/>
<path fill="#000000" d="
  M 399.44 300.00
  L 388.69 300.00
  Q 394.06 299.37 399.44 300.00
  Z"
/>
</svg>
