<?xml version="1.0" encoding="UTF-8" standalone="no"?>
<!DOCTYPE svg PUBLIC "-//W3C//DTD SVG 1.1//EN" "http://www.w3.org/Graphics/SVG/1.1/DTD/svg11.dtd">
<svg xmlns="http://www.w3.org/2000/svg" version="1.1" viewBox="0 0 600 300">
<path fill="#000000" d="
  M 90.11 72.39
  C 94.42 70.63 94.99 61.00 95.61 56.12
  A 4.44 4.43 34.6 0 0 95.11 53.42
  Q 90.96 45.76 86.23 38.27
  C 82.29 32.04 79.39 27.12 80.79 20.46
  C 82.30 13.25 83.23 3.96 88.78 1.46
  C 92.73 -0.33 101.32 0.43 106.24 0.26
  Q 116.34 -0.09 114.40 9.93
  Q 112.74 18.45 111.20 27.28
  A 1.10 1.07 -84.9 0 1 110.14 28.19
  L 101.39 28.24
  A 0.99 0.97 -83.5 0 1 100.44 27.02
  Q 101.90 20.69 102.56 14.51
  C 103.08 9.65 99.26 8.52 95.81 10.61
  C 92.24 12.77 89.44 25.02 92.49 29.20
  Q 100.15 39.69 105.86 51.15
  A 3.71 3.65 -53.7 0 1 106.19 53.43
  Q 104.59 62.72 102.61 71.92
  Q 100.60 81.19 91.39 80.85
  C 84.48 80.59 70.57 83.94 72.52 72.00
  Q 73.94 63.36 75.69 53.70
  A 1.16 1.15 5.0 0 1 76.83 52.75
  L 85.33 52.75
  A 0.98 0.98 -84.2 0 1 86.29 53.93
  Q 84.91 60.71 83.84 67.02
  C 83.12 71.31 86.15 74.01 90.11 72.39
  Z"
/>
<path fill="#000000" d="
  M 120.30 72.94
  L 128.16 72.97
  Q 130.25 72.98 130.64 70.83
  L 143.24 1.14
  A 0.71 0.69 -84.4 0 1 143.92 0.56
  L 152.16 0.50
  A 0.55 0.54 -85.1 0 1 152.69 1.14
  Q 146.29 35.95 139.92 70.13
  C 137.95 80.72 133.26 80.77 123.79 80.80
  C 116.53 80.82 107.47 82.30 109.43 71.22
  Q 115.57 36.49 121.55 1.45
  A 1.14 1.14 -85.2 0 1 122.67 0.50
  L 131.03 0.50
  A 0.65 0.64 5.2 0 1 131.67 1.26
  L 119.27 71.66
  A 1.09 1.06 -84.5 0 0 120.30 72.94
  Z"
/>
<path fill="#000000" d="
  M 159.72 45.05
  L 153.06 79.31
  A 1.56 1.56 -87.7 0 1 151.71 80.56
  Q 146.69 81.12 143.29 80.31
  A 0.52 0.51 -78.4 0 1 142.90 79.71
  L 157.85 1.17
  A 0.62 0.61 4.1 0 1 158.43 0.67
  Q 166.59 0.42 174.75 0.46
  C 181.79 0.50 188.57 0.02 186.75 9.50
  Q 182.45 31.97 181.50 36.50
  C 179.33 46.90 167.69 43.95 160.30 44.52
  A 0.65 0.64 -87.0 0 0 159.72 45.05
  Z
  M 173.33 10.44
  Q 170.03 9.36 166.79 10.40
  A 0.88 0.87 87.8 0 0 166.20 11.05
  Q 163.38 23.06 161.57 35.26
  A 0.89 0.82 -69.1 0 0 161.89 36.07
  Q 162.98 36.85 164.31 36.90
  C 167.82 37.03 170.29 37.30 171.29 33.27
  Q 173.72 23.49 175.42 13.95
  Q 175.90 11.29 173.33 10.44
  Z"
/>
<path fill="#000000" d="
  M 191.81 70.49
  L 201.10 70.49
  A 1.00 0.84 3.9 0 1 202.11 71.47
  L 200.71 80.08
  A 0.67 0.61 4.6 0 1 200.06 80.58
  L 178.92 80.58
  A 0.61 0.59 -84.4 0 1 178.34 79.85
  L 193.67 1.37
  A 1.08 1.08 5.5 0 1 194.73 0.50
  L 213.97 0.50
  A 0.90 0.90 4.6 0 1 214.86 1.54
  L 213.59 9.42
  A 0.98 0.98 -85.5 0 1 212.62 10.25
  L 203.60 10.25
  A 1.56 1.56 -84.4 0 0 202.07 11.51
  L 197.52 34.24
  A 0.91 0.87 5.9 0 0 198.40 35.28
  L 207.56 35.40
  A 0.54 0.53 90.0 0 1 208.08 35.93
  Q 208.09 38.86 206.85 42.75
  A 1.08 1.08 8.8 0 1 205.82 43.50
  L 196.93 43.50
  A 1.17 1.15 4.6 0 0 195.78 44.46
  L 191.39 69.94
  A 0.47 0.43 -84.9 0 0 191.81 70.49
  Z"
/>
<path fill="#000000" d="
  M 237.30 43.81
  Q 242.33 45.19 241.44 50.19
  Q 238.91 64.36 235.99 79.87
  A 1.06 1.04 -84.4 0 1 234.95 80.74
  L 226.76 80.70
  A 0.83 0.80 -84.6 0 1 225.98 79.72
  L 231.42 50.57
  Q 231.87 48.13 230.69 45.82
  C 229.60 43.69 224.47 43.55 222.91 44.96
  A 1.69 1.19 82.6 0 0 222.47 45.80
  L 215.91 79.82
  A 0.72 0.70 -89.3 0 1 215.33 80.40
  Q 210.80 81.19 206.56 80.61
  A 0.70 0.69 9.1 0 1 205.97 79.80
  L 220.82 1.01
  A 0.62 0.62 5.0 0 1 221.43 0.50
  Q 231.61 0.46 241.73 0.53
  C 248.02 0.58 250.99 2.88 249.75 9.50
  Q 247.36 22.23 244.72 34.90
  C 243.84 39.10 241.66 40.97 237.74 41.98
  Q 236.58 42.28 236.69 43.20
  A 0.84 0.66 6.9 0 0 237.30 43.81
  Z
  M 236.39 10.73
  Q 234.32 9.61 230.47 10.26
  A 1.90 1.90 0.6 0 0 228.92 11.77
  L 224.50 35.01
  A 1.37 1.36 13.0 0 0 225.49 36.58
  C 231.28 38.11 233.76 35.40 234.86 29.93
  Q 236.44 22.03 238.12 14.55
  Q 238.70 11.98 236.39 10.73
  Z"
/>
<path fill="#000000" d="
  M 290.30 40.35
  C 291.25 40.05 290.99 38.56 291.11 37.84
  Q 294.13 19.50 297.96 1.31
  A 0.71 0.68 -87.5 0 1 298.55 0.75
  Q 303.75 0.09 308.95 0.75
  A 0.46 0.46 8.8 0 1 309.35 1.29
  L 294.41 79.83
  A 0.76 0.74 -89.9 0 1 293.83 80.42
  Q 291.28 80.94 288.66 80.83
  C 284.33 80.65 284.32 81.52 283.93 76.92
  Q 282.28 57.47 281.00 37.98
  Q 280.71 33.53 279.82 37.91
  L 271.29 79.95
  A 0.71 0.71 1.7 0 1 270.69 80.51
  Q 265.42 81.24 260.18 80.39
  A 0.50 0.48 -80.9 0 1 259.78 79.81
  L 274.64 1.00
  A 0.61 0.61 5.1 0 1 275.24 0.50
  C 277.95 0.50 280.58 0.60 283.11 0.42
  C 285.97 0.23 285.18 3.00 285.39 4.60
  Q 287.70 22.25 289.75 39.93
  A 0.48 0.41 78.2 0 0 290.30 40.35
  Z"
/>
<path fill="#000000" d="
  M 299.90 79.94
  C 304.55 53.66 309.20 27.16 314.70 1.05
  A 0.70 0.68 -83.7 0 1 315.37 0.50
  L 324.03 0.55
  A 0.60 0.60 -84.0 0 1 324.61 1.27
  L 309.66 79.83
  A 0.74 0.74 -89.4 0 1 309.07 80.41
  Q 304.70 81.22 300.30 80.52
  A 0.50 0.49 -80.3 0 1 299.90 79.94
  Z"
/>
<path fill="#000000" d="
  M 345.19 39.57
  Q 345.69 41.12 346.00 39.51
  L 353.21 1.30
  A 0.71 0.69 2.2 0 1 353.82 0.75
  Q 359.17 0.15 364.34 0.67
  A 0.44 0.43 -82.7 0 1 364.73 1.18
  Q 358.14 36.45 351.56 70.81
  Q 350.31 77.36 349.57 80.21
  A 0.66 0.65 -82.5 0 1 348.94 80.70
  L 340.47 80.74
  A 0.75 0.74 87.5 0 1 339.73 80.06
  Q 337.77 58.51 336.00 36.75
  Q 335.97 36.37 335.64 36.43
  A 0.65 0.46 -85.8 0 0 335.24 36.92
  L 326.70 79.97
  A 0.97 0.96 5.4 0 1 325.75 80.75
  L 315.92 80.75
  A 0.78 0.77 -84.7 0 1 315.16 79.83
  L 329.97 1.31
  A 0.68 0.60 -84.7 0 1 330.56 0.75
  L 339.26 0.57
  A 1.21 1.10 85.8 0 1 340.39 1.64
  Q 342.36 17.62 344.29 32.81
  C 344.48 34.36 344.51 37.45 345.19 39.57
  Z"
/>
<path fill="#000000" d="
  M 372.30 16.91
  Q 372.71 14.57 373.38 11.69
  A 1.21 1.19 6.3 0 0 372.20 10.24
  L 368.53 10.23
  A 1.22 1.14 -84.1 0 1 367.44 8.79
  L 368.82 1.25
  A 0.92 0.88 -84.5 0 1 369.69 0.50
  L 391.91 0.50
  A 0.85 0.85 4.8 0 1 392.75 1.49
  C 392.36 3.75 391.90 6.06 391.76 8.34
  Q 391.60 10.94 387.85 10.10
  Q 385.38 9.55 384.93 12.05
  L 372.59 80.01
  A 0.66 0.60 -84.7 0 1 372.00 80.55
  L 362.79 80.70
  A 1.45 1.38 -85.0 0 1 361.43 78.99
  Q 366.76 48.45 372.30 16.91
  Z"
/>
<path fill="#000000" d="
  M 401.12 35.20
  L 410.73 35.25
  A 0.65 0.63 5.2 0 1 411.37 36.00
  L 410.05 42.85
  A 0.92 0.87 4.9 0 1 409.15 43.57
  L 399.79 43.51
  A 1.14 1.12 -85.2 0 0 398.68 44.46
  L 394.38 69.48
  A 1.05 1.02 4.9 0 0 395.41 70.67
  L 404.50 70.74
  A 0.60 0.58 5.3 0 1 405.09 71.42
  L 403.57 80.20
  A 0.64 0.60 4.9 0 1 402.95 80.69
  L 382.44 80.75
  A 1.11 1.09 -84.4 0 1 381.37 79.43
  L 396.71 0.90
  A 0.50 0.50 5.6 0 1 397.20 0.50
  L 417.33 0.50
  A 0.57 0.57 -85.6 0 1 417.89 1.16
  L 416.50 9.76
  A 0.93 0.86 5.0 0 1 415.57 10.48
  L 406.20 10.29
  A 1.25 1.18 -83.6 0 0 405.01 11.30
  L 400.54 34.47
  A 0.61 0.60 -84.0 0 0 401.12 35.20
  Z"
/>
<path fill="#000000" d="
  M 437.69 40.43
  C 438.51 40.00 444.60 5.16 445.27 1.36
  A 1.05 1.05 -84.7 0 1 446.30 0.50
  L 456.29 0.50
  A 0.68 0.68 5.3 0 1 456.96 1.30
  L 442.18 79.64
  A 1.36 1.36 5.4 0 1 440.84 80.75
  C 438.51 80.75 436.48 80.72 434.33 80.89
  C 431.12 81.14 431.59 78.60 431.44 76.36
  Q 430.12 57.47 428.55 38.59
  C 428.48 37.79 428.95 35.18 427.85 36.14
  A 1.62 1.16 81.8 0 0 427.41 36.99
  Q 423.60 58.57 418.80 79.95
  A 0.69 0.60 -82.8 0 1 418.20 80.49
  L 408.18 80.67
  A 0.90 0.85 -84.8 0 1 407.34 79.60
  L 422.27 1.00
  A 0.62 0.62 5.7 0 1 422.88 0.50
  L 431.42 0.50
  A 1.17 1.15 -3.3 0 1 432.58 1.52
  L 437.27 40.05
  A 0.41 0.28 76.4 0 0 437.69 40.43
  Z"
/>
<path fill="#000000" d="
  M 447.39 79.63
  C 452.33 53.61 456.89 27.25 462.34 1.18
  A 0.64 0.64 4.6 0 1 462.94 0.67
  Q 472.95 0.41 482.97 0.47
  C 488.86 0.51 492.49 2.53 491.25 9.00
  Q 489.06 20.44 479.50 71.75
  C 477.71 81.36 471.03 80.75 462.18 80.75
  Q 455.36 80.75 448.32 80.75
  A 0.95 0.95 5.3 0 1 447.39 79.63
  Z
  M 470.81 10.76
  C 466.53 31.07 463.12 51.80 459.58 72.26
  A 0.51 0.51 7.4 0 0 460.00 72.84
  Q 468.76 74.37 470.50 65.50
  Q 475.43 40.31 480.02 15.06
  C 480.92 10.09 475.78 9.11 472.28 9.45
  A 1.68 1.67 -86.7 0 0 470.81 10.76
  Z"
/>
<path fill="#000000" d="
  M 485.39 71.77
  C 488.93 51.41 492.37 31.03 496.00 10.69
  C 497.82 0.47 502.61 0.50 511.63 0.50
  C 517.76 0.50 530.95 -2.24 528.89 8.94
  Q 523.22 39.70 517.38 70.43
  C 515.47 80.48 510.97 80.75 501.76 80.75
  C 495.09 80.75 483.41 83.15 485.39 71.77
  Z
  M 505.74 18.04
  C 502.77 34.27 500.48 50.98 496.89 67.06
  C 495.03 75.35 505.63 74.23 506.94 66.69
  Q 508.56 57.32 516.06 16.06
  C 516.94 11.24 513.36 7.76 509.09 10.61
  C 506.40 12.39 506.29 15.03 505.74 18.04
  Z"
/>
<path fill="#000000" d="
  M 529.60 300.00
  L 70.32 300.00
  L 70.00 87.87
  A 0.87 0.87 0.0 0 1 70.87 87.00
  L 529.50 87.00
  A 0.50 0.50 0.0 0 1 530.00 87.50
  Q 530.30 193.75 529.60 300.00
  Z
  M 259.69 137.52
  L 259.55 217.05
  A 0.95 0.93 90.0 0 0 260.48 218.00
  L 279.25 217.94
  A 0.77 0.75 90.0 0 0 280.00 217.17
  L 280.20 95.97
  A 0.92 0.90 90.0 0 0 279.30 95.05
  L 268.07 95.01
  A 1.98 1.89 -69.4 0 0 266.55 95.74
  L 202.05 175.58
  Q 201.06 176.81 201.07 175.23
  L 201.51 95.52
  A 0.52 0.52 90.0 0 0 200.99 95.00
  L 189.02 95.00
  A 2.85 2.83 19.3 0 0 186.81 96.05
  L 88.98 217.00
  Q 88.17 218.00 89.45 218.00
  L 113.70 217.94
  A 1.77 1.72 -69.9 0 0 115.05 217.29
  L 179.98 137.07
  Q 180.81 136.05 180.81 137.37
  L 180.75 217.03
  A 0.97 0.97 0.0 0 0 181.72 218.00
  L 193.03 218.00
  A 1.70 1.70 19.2 0 0 194.36 217.36
  L 259.07 137.30
  Q 259.69 136.54 259.69 137.52
  Z
  M 371.93 120.06
  C 371.71 111.95 372.32 103.61 371.95 95.55
  A 0.58 0.57 88.4 0 0 371.38 95.00
  Q 338.20 95.00 305.36 95.00
  Q 301.96 95.00 299.92 96.21
  C 294.36 99.52 291.14 107.56 289.67 113.34
  Q 284.65 132.98 290.05 152.49
  C 291.79 158.80 295.81 167.61 302.96 169.55
  Q 304.64 170.00 312.08 170.00
  Q 325.40 170.00 338.73 170.00
  C 345.23 170.00 349.68 169.70 352.19 175.81
  Q 355.14 183.03 350.69 189.69
  C 348.71 192.64 345.79 192.24 342.57 192.26
  Q 315.69 192.38 288.80 192.06
  A 0.99 0.98 -89.4 0 0 287.81 193.04
  L 287.55 216.97
  A 0.96 0.95 -89.7 0 0 288.50 217.94
  Q 322.28 218.05 356.50 217.96
  C 367.09 217.94 372.04 199.41 373.06 191.29
  Q 374.03 183.51 373.50 175.19
  C 372.89 165.78 368.47 143.67 355.25 143.70
  Q 337.05 143.75 318.86 143.75
  C 311.83 143.75 308.64 141.04 307.75 134.00
  Q 306.77 126.28 312.31 121.77
  Q 313.56 120.75 315.18 120.75
  L 371.26 120.75
  A 0.67 0.67 89.2 0 0 371.93 120.06
  Z
  M 379.44 95.90
  Q 379.54 144.36 379.50 193.00
  C 379.49 206.69 387.23 217.57 401.82 217.83
  Q 420.54 218.15 439.27 218.01
  C 443.86 217.98 447.86 218.06 451.94 216.19
  Q 460.90 212.06 464.02 203.47
  Q 465.50 199.38 465.49 189.84
  Q 465.46 143.03 465.56 95.58
  A 0.58 0.57 90.0 0 0 464.99 95.00
  L 445.81 95.00
  A 0.63 0.62 -89.5 0 0 445.19 95.62
  Q 444.88 136.90 445.00 177.26
  C 445.01 181.22 445.27 184.26 442.69 187.44
  C 436.91 194.53 425.23 192.56 416.99 192.51
  C 406.09 192.45 399.75 189.50 399.75 177.44
  Q 399.75 136.59 399.75 95.75
  A 0.52 0.50 90.0 0 0 399.25 95.23
  L 380.30 95.02
  A 0.88 0.86 -90.0 0 0 379.44 95.90
  Z
  M 499.05 95.74
  Q 486.18 111.55 473.57 126.83
  C 471.23 129.66 472.29 139.52 472.09 143.29
  A 0.90 0.90 -88.2 0 0 472.99 144.25
  L 491.11 144.25
  A 1.14 1.14 0.0 0 1 492.25 145.39
  L 492.25 217.35
  A 0.63 0.61 -90.0 0 0 492.86 217.98
  L 512.26 217.77
  A 0.53 0.49 90.0 0 0 512.75 217.24
  L 512.81 95.54
  A 0.54 0.54 90.0 0 0 512.27 95.00
  L 500.61 95.00
  A 2.02 2.00 19.3 0 0 499.05 95.74
  Z
  M 512.76 224.86
  A 0.61 0.61 0.0 0 0 512.15 224.25
  L 88.61 224.25
  A 0.61 0.61 0.0 0 0 88.00 224.86
  L 88.00 242.14
  A 0.61 0.61 0.0 0 0 88.61 242.75
  L 512.15 242.75
  A 0.61 0.61 0.0 0 0 512.76 242.14
  L 512.76 224.86
  Z
  M 363.17 290.55
  C 372.99 295.81 377.71 286.77 378.63 278.73
  A 0.80 0.78 -74.3 0 0 378.19 277.93
  C 376.61 277.18 371.84 273.59 372.24 276.91
  A 4.73 4.66 56.4 0 1 371.69 279.74
  Q 369.02 284.55 366.28 282.21
  C 361.25 277.89 363.47 250.11 371.21 260.09
  A 3.71 3.71 28.5 0 1 371.97 262.64
  Q 371.81 264.67 373.12 263.69
  C 374.27 262.83 376.49 262.31 377.83 261.73
  A 1.21 1.20 -20.3 0 0 378.51 260.27
  C 377.03 255.60 375.60 250.50 370.26 249.22
  C 360.48 246.89 357.73 258.14 356.79 264.84
  Q 355.12 276.65 360.18 287.40
  Q 361.15 289.47 363.17 290.55
  Z
  M 94.74 262.80
  L 98.50 289.95
  A 1.09 1.01 85.8 0 0 99.51 290.89
  L 103.32 290.90
  A 0.67 0.55 -85.3 0 0 103.88 290.32
  L 107.70 263.15
  A 1.03 0.55 88.2 0 1 108.04 262.46
  C 108.43 262.19 108.25 263.72 108.25 264.12
  Q 108.20 277.16 108.31 290.20
  A 0.63 0.62 6.4 0 0 108.80 290.81
  Q 111.13 291.35 113.46 290.81
  A 0.62 0.61 83.2 0 0 113.94 290.19
  L 113.82 250.70
  A 0.55 0.50 90.0 0 0 113.32 250.15
  L 105.47 250.04
  A 0.83 0.80 -85.6 0 0 104.66 250.76
  L 101.65 272.25
  Q 101.21 275.45 100.75 272.26
  L 97.66 250.65
  A 0.76 0.75 -3.9 0 0 96.91 250.00
  L 88.92 250.00
  A 0.67 0.67 0.0 0 0 88.25 250.67
  L 88.25 290.23
  A 0.73 0.69 -90.0 0 0 88.94 290.96
  L 93.39 290.98
  A 0.88 0.86 -90.0 0 0 94.25 290.10
  C 94.25 282.48 94.52 274.81 94.04 267.33
  Q 93.89 265.03 94.54 262.79
  Q 94.67 262.33 94.74 262.80
  Z
  M 126.81 259.27
  L 137.44 258.93
  A 0.59 0.49 -1.2 0 0 138.01 258.44
  L 138.12 250.69
  A 0.56 0.51 0.5 0 0 137.56 250.17
  L 119.95 250.05
  A 0.72 0.70 -90.0 0 0 119.25 250.77
  L 119.25 290.32
  A 0.68 0.68 0.0 0 0 119.93 291.00
  L 137.93 291.00
  A 0.72 0.67 90.0 0 0 138.60 290.28
  L 138.67 282.72
  A 0.71 0.65 -89.6 0 0 138.02 282.00
  L 127.37 282.00
  A 1.20 1.02 89.7 0 1 126.35 280.81
  L 126.31 274.94
  A 0.97 0.88 89.4 0 1 127.17 273.97
  L 136.82 273.85
  A 0.55 0.53 -0.6 0 0 137.36 273.32
  L 137.37 265.69
  A 0.57 0.54 0.5 0 0 136.81 265.15
  L 127.56 265.04
  A 1.29 1.16 90.0 0 1 126.41 263.76
  L 126.37 259.81
  A 0.54 0.46 88.9 0 1 126.81 259.27
  Z
  M 159.30 251.18
  Q 157.64 249.99 155.69 250.00
  L 145.02 250.06
  A 0.54 0.52 90.0 0 0 144.50 250.60
  L 144.44 290.32
  A 0.54 0.53 2.3 0 0 144.94 290.85
  C 149.88 291.19 158.23 292.13 161.44 287.94
  C 166.86 280.85 167.85 257.33 159.30 251.18
  Z
  M 177.76 250.70
  A 0.69 0.69 0.0 0 0 177.07 250.01
  L 171.19 250.01
  A 0.69 0.69 0.0 0 0 170.50 250.70
  L 170.50 290.32
  A 0.69 0.69 0.0 0 0 171.19 291.01
  L 177.07 291.01
  A 0.69 0.69 0.0 0 0 177.76 290.32
  L 177.76 250.70
  Z
  M 198.31 284.55
  L 199.38 289.93
  A 1.21 1.06 83.2 0 0 200.46 290.90
  L 206.25 290.83
  A 0.48 0.44 83.4 0 0 206.66 290.26
  L 198.67 250.92
  A 0.78 0.77 0.6 0 0 198.08 250.32
  Q 195.47 249.71 191.48 250.18
  A 1.32 1.31 2.8 0 0 190.35 251.20
  Q 186.28 269.99 182.67 288.15
  C 182.42 289.39 180.92 291.69 184.10 291.03
  Q 185.66 290.71 187.23 291.00
  C 190.26 291.55 189.99 286.77 190.35 284.68
  A 0.66 0.60 -84.7 0 1 190.94 284.14
  L 197.69 284.03
  A 0.65 0.61 83.3 0 1 198.31 284.55
  Z
  M 230.25 281.95
  A 1.17 0.98 -89.5 0 1 229.28 280.77
  L 229.29 274.78
  A 0.79 0.68 89.6 0 1 229.96 273.99
  L 239.68 273.94
  A 0.79 0.76 -0.7 0 0 240.47 273.16
  L 240.36 265.69
  A 0.56 0.55 0.0 0 0 239.81 265.15
  L 230.41 265.04
  A 0.82 0.75 -0.7 0 1 229.60 264.32
  L 229.41 259.68
  A 0.55 0.49 -2.2 0 1 229.94 259.17
  L 240.56 258.83
  A 0.57 0.51 -1.2 0 0 241.11 258.32
  L 241.12 250.69
  A 0.55 0.52 0.0 0 0 240.57 250.17
  L 223.24 250.02
  A 1.00 0.98 -89.7 0 0 222.25 251.02
  L 222.25 290.15
  A 0.85 0.85 -89.8 0 0 223.10 291.00
  L 240.84 291.00
  A 0.96 0.84 89.7 0 0 241.68 290.03
  L 241.65 282.86
  A 0.87 0.79 -89.7 0 0 240.87 281.99
  L 230.25 281.95
  Z
  M 254.29 270.98
  Q 254.30 269.42 254.85 270.87
  L 262.15 290.03
  A 1.53 1.44 78.6 0 0 263.53 291.01
  L 268.56 290.95
  A 0.72 0.70 89.6 0 0 269.25 290.23
  L 269.25 250.74
  A 0.74 0.74 0.0 0 0 268.51 250.00
  L 263.27 250.00
  A 0.76 0.75 0.0 0 0 262.51 250.75
  L 262.68 271.17
  A 0.63 0.38 80.2 0 1 262.50 271.64
  Q 262.28 271.79 262.15 271.41
  Q 258.44 260.98 254.13 250.78
  A 0.97 0.90 82.8 0 0 253.45 250.21
  Q 250.73 249.68 247.99 250.16
  A 0.60 0.58 85.5 0 0 247.50 250.75
  L 247.44 290.30
  A 0.57 0.49 90.0 0 0 247.93 290.87
  L 253.45 290.91
  A 0.87 0.80 -89.7 0 0 254.26 290.04
  L 254.29 270.98
  Z
  M 289.98 274.56
  Q 290.61 282.07 290.03 290.05
  A 0.88 0.88 -87.9 0 0 290.91 291.00
  L 296.58 291.00
  A 0.92 0.92 0.0 0 0 297.50 290.08
  L 297.50 251.16
  A 1.04 0.93 89.5 0 0 296.55 250.12
  L 290.55 250.22
  A 0.55 0.47 87.8 0 0 290.09 250.80
  C 290.29 254.56 290.11 258.29 290.36 262.03
  C 290.56 265.08 285.09 264.10 283.17 263.87
  A 0.59 0.56 -88.4 0 1 282.67 263.31
  L 282.33 250.69
  A 0.59 0.50 88.4 0 0 281.82 250.12
  L 275.99 250.17
  A 0.58 0.50 89.5 0 0 275.50 250.75
  L 275.44 290.30
  A 0.58 0.47 89.5 0 0 275.92 290.88
  L 281.95 290.78
  A 0.60 0.50 -89.9 0 0 282.44 290.19
  L 282.67 274.69
  A 0.56 0.53 -90.0 0 1 283.19 274.14
  L 289.44 274.03
  A 0.58 0.53 86.6 0 1 289.98 274.56
  Z
  M 317.31 284.55
  L 318.38 289.93
  A 1.21 1.06 83.2 0 0 319.46 290.90
  L 325.25 290.83
  A 0.47 0.43 82.9 0 0 325.65 290.26
  L 317.71 250.67
  A 0.84 0.84 84.1 0 0 316.89 250.00
  L 310.33 250.00
  A 0.94 0.94 6.1 0 0 309.41 250.74
  L 301.29 290.04
  A 0.67 0.62 -84.3 0 0 301.89 290.84
  L 307.70 290.79
  A 0.72 0.59 -84.0 0 0 308.29 290.21
  L 309.35 284.68
  A 0.68 0.60 -83.9 0 1 309.94 284.14
  L 316.69 284.03
  A 0.65 0.61 83.3 0 1 317.31 284.55
  Z
  M 336.72 269.91
  L 344.11 289.87
  A 1.45 1.27 78.5 0 0 345.35 290.82
  L 350.70 290.80
  A 0.62 0.49 90.0 0 0 351.19 290.18
  L 351.25 251.13
  A 0.99 0.98 4.1 0 0 350.40 250.16
  Q 347.26 249.72 345.17 250.29
  A 0.67 0.66 -7.4 0 0 344.67 250.93
  L 344.68 271.14
  A 0.30 0.22 -82.7 0 1 344.38 271.45
  C 344.03 271.33 336.95 252.77 336.13 250.78
  A 0.97 0.90 82.8 0 0 335.45 250.21
  Q 332.73 249.68 329.99 250.16
  A 0.60 0.58 85.5 0 0 329.50 250.75
  L 329.44 290.30
  A 0.57 0.49 90.0 0 0 329.93 290.87
  L 335.33 290.94
  A 1.00 0.94 88.3 0 0 336.27 289.87
  Q 335.64 279.75 336.25 269.98
  Q 336.32 268.83 336.72 269.91
  Z
  M 392.25 281.95
  A 1.01 1.00 -84.8 0 1 391.28 280.77
  Q 391.78 277.75 391.29 274.78
  A 0.69 0.68 -5.0 0 1 391.96 273.99
  L 401.68 273.94
  A 0.79 0.76 -0.7 0 0 402.47 273.16
  L 402.36 265.69
  A 0.56 0.55 0.0 0 0 401.81 265.15
  L 392.62 265.04
  A 1.45 1.26 -89.4 0 1 391.38 263.58
  L 391.44 259.56
  A 0.57 0.52 -89.4 0 1 391.96 259.00
  L 402.44 259.00
  A 0.81 0.81 0.0 0 0 403.25 258.19
  L 403.25 250.66
  A 0.66 0.66 -0.1 0 0 402.59 250.00
  L 385.06 250.00
  A 0.81 0.81 0.0 0 0 384.25 250.81
  L 384.25 290.35
  A 0.65 0.64 90.0 0 0 384.89 291.00
  L 403.10 290.94
  A 0.53 0.50 90.0 0 0 403.60 290.41
  L 403.60 282.75
  A 0.75 0.72 -90.0 0 0 402.88 282.00
  L 392.25 281.95
  Z
  M 421.63 271.77
  Q 421.13 275.22 420.62 271.77
  L 417.52 250.55
  A 0.59 0.58 -3.9 0 0 416.94 250.05
  L 408.92 250.01
  A 0.67 0.66 -89.6 0 0 408.25 250.68
  L 408.31 290.18
  A 0.64 0.61 -84.5 0 0 408.80 290.80
  Q 411.15 291.31 413.51 290.86
  A 0.65 0.64 85.5 0 0 414.02 290.25
  Q 414.68 273.62 414.25 269.00
  Q 413.91 265.31 414.55 262.80
  Q 414.67 262.33 414.74 262.80
  L 418.50 289.95
  A 1.09 1.01 85.8 0 0 419.51 290.89
  L 423.32 290.90
  A 0.67 0.55 -85.3 0 0 423.88 290.32
  L 427.70 263.15
  A 1.03 0.55 88.2 0 1 428.04 262.46
  C 428.43 262.19 428.25 263.72 428.25 264.12
  Q 428.20 277.16 428.31 290.20
  A 0.63 0.62 6.4 0 0 428.80 290.81
  Q 431.13 291.35 433.46 290.81
  A 0.62 0.61 83.2 0 0 433.94 290.19
  L 433.82 250.70
  A 0.55 0.50 90.0 0 0 433.32 250.15
  L 425.49 250.04
  A 0.87 0.83 -85.3 0 0 424.65 250.79
  L 421.63 271.77
  Z
  M 448.25 281.95
  A 1.17 0.98 -89.5 0 1 447.28 280.77
  L 447.29 274.78
  A 0.79 0.68 89.6 0 1 447.96 273.99
  L 457.68 273.94
  A 0.79 0.76 -0.7 0 0 458.47 273.16
  L 458.36 265.69
  A 0.56 0.55 0.0 0 0 457.81 265.15
  L 448.41 265.04
  A 0.82 0.75 -0.7 0 1 447.60 264.32
  L 447.41 259.68
  A 0.55 0.49 -2.2 0 1 447.94 259.17
  L 458.56 258.83
  A 0.57 0.51 -1.2 0 0 459.11 258.32
  L 459.12 250.69
  A 0.55 0.52 0.0 0 0 458.57 250.17
  L 441.24 250.02
  A 1.00 0.98 -89.7 0 0 440.25 251.02
  L 440.25 290.15
  A 0.85 0.85 0.0 0 0 441.10 291.00
  L 458.84 291.00
  A 0.96 0.84 89.7 0 0 459.68 290.03
  L 459.65 282.86
  A 0.87 0.79 -89.7 0 0 458.87 281.99
  L 448.25 281.95
  Z
  M 478.93 270.69
  L 471.47 251.17
  A 1.78 1.68 78.7 0 0 469.86 250.03
  L 465.28 250.04
  A 0.82 0.78 90.0 0 0 464.50 250.86
  L 464.44 290.32
  A 0.56 0.49 89.5 0 0 464.94 290.88
  L 470.51 290.83
  A 0.60 0.52 -88.3 0 0 471.03 290.26
  Q 471.60 281.13 471.00 271.98
  Q 470.72 267.77 472.24 271.72
  L 479.38 290.22
  A 0.91 0.86 84.2 0 0 480.04 290.79
  Q 482.87 291.36 485.70 290.79
  A 0.62 0.61 84.3 0 0 486.19 290.18
  L 486.25 250.67
  A 0.67 0.67 0.0 0 0 485.58 250.00
  L 480.42 250.00
  A 0.69 0.67 0.4 0 0 479.73 250.66
  L 479.58 270.56
  Q 479.57 272.36 478.93 270.69
  Z
  M 497.58 259.06
  A 0.44 0.43 1.4 0 1 498.00 259.49
  L 497.75 289.84
  A 1.08 1.01 -90.0 0 0 498.77 290.93
  L 504.31 290.87
  A 0.56 0.51 90.0 0 0 504.82 290.31
  L 504.98 259.93
  A 0.90 0.86 -90.0 0 1 505.83 259.04
  L 511.54 259.00
  A 0.71 0.69 0.0 0 0 512.25 258.31
  L 512.25 250.88
  A 0.86 0.84 89.7 0 0 511.40 250.02
  L 491.44 250.17
  A 0.55 0.51 0.0 0 0 490.89 250.68
  L 490.88 258.31
  A 0.58 0.54 1.1 0 0 491.44 258.85
  L 497.58 259.06
  Z"
/>
<path fill="#000000" d="
  M 156.07 260.16
  Q 157.49 261.43 157.76 263.31
  C 158.40 267.77 160.57 283.85 152.04 281.82
  A 0.64 0.63 -83.1 0 1 151.56 281.20
  L 151.55 259.82
  A 0.73 0.67 81.8 0 1 152.02 259.14
  Q 154.15 258.46 156.07 260.16
  Z"
/>
<path fill="#000000" d="
  M 194.19 261.92
  Q 194.56 260.11 194.88 261.94
  L 196.71 272.43
  A 1.12 1.05 79.3 0 1 195.90 273.70
  C 191.64 274.61 192.18 273.88 192.69 270.46
  Q 193.33 266.18 194.19 261.92
  Z"
/>
<path fill="#000000" d="
  M 313.19 261.92
  Q 313.56 260.15 313.88 261.95
  L 315.71 272.43
  A 1.12 1.05 79.3 0 1 314.90 273.70
  Q 310.80 274.58 311.35 272.24
  C 312.13 268.88 312.47 265.33 313.19 261.92
  Z"
/>
</svg>
