<?xml version="1.0" encoding="UTF-8" standalone="no"?>
<!DOCTYPE svg PUBLIC "-//W3C//DTD SVG 1.1//EN" "http://www.w3.org/Graphics/SVG/1.1/DTD/svg11.dtd">
<svg xmlns="http://www.w3.org/2000/svg" version="1.1" viewBox="0 0 600 300">
<path fill="#000000" d="
  M 184.54 151.74
  Q 184.30 150.18 183.28 151.38
  C 180.83 154.25 178.23 158.13 173.97 155.83
  A 1.91 1.91 -50.1 0 0 171.87 156.02
  C 168.32 158.85 152.80 171.33 148.61 166.53
  A 1.23 1.23 -39.3 0 1 148.79 164.74
  C 150.88 163.15 152.63 160.45 150.47 158.12
  C 148.63 156.14 143.89 156.99 141.69 158.19
  Q 136.26 161.15 129.71 163.92
  Q 128.86 164.28 127.93 164.26
  Q 124.49 164.15 121.25 164.50
  C 119.03 164.74 117.88 164.26 116.23 164.20
  Q 111.71 164.03 107.24 164.68
  A 1.34 1.17 -28.3 0 1 106.33 164.47
  Q 104.33 162.98 107.19 162.05
  C 134.65 153.12 161.56 144.03 187.62 131.43
  Q 207.89 121.62 227.26 110.54
  A 1.48 1.28 -19.6 0 0 228.01 109.22
  L 227.00 99.74
  A 1.42 1.31 -18.1 0 0 224.94 98.80
  C 202.57 110.82 183.30 120.12 156.14 131.76
  C 134.46 141.05 111.44 148.21 88.93 155.27
  A 1.11 1.06 62.6 0 0 88.43 156.97
  L 94.39 164.96
  A 1.84 1.69 61.5 0 0 96.36 165.63
  L 100.59 164.17
  A 2.83 2.75 -33.6 0 1 103.33 164.68
  Q 121.29 180.40 142.42 184.48
  C 145.86 185.14 148.57 184.29 146.90 189.85
  A 1.40 1.38 -79.0 0 1 145.45 190.84
  Q 116.62 188.24 96.03 167.92
  A 1.30 1.28 -30.6 0 0 94.75 167.60
  C 80.77 171.71 66.76 175.27 52.37 177.22
  Q 34.65 179.63 16.75 180.35
  C 10.12 180.62 1.04 176.84 0.16 169.26
  Q -0.67 162.10 4.19 156.94
  Q 9.02 151.79 22.12 142.65
  Q 46.43 125.69 73.63 112.72
  A 3.23 3.19 -3.7 0 0 75.31 110.83
  C 76.47 107.31 76.68 102.87 77.28 100.07
  C 84.42 66.68 113.70 39.28 148.46 38.16
  Q 184.51 37.01 210.54 64.19
  A 2.30 2.30 55.0 0 0 213.20 64.66
  Q 215.17 63.69 218.01 62.78
  Q 243.14 54.77 269.26 51.08
  C 277.78 49.88 290.92 48.91 294.51 58.07
  C 296.71 63.69 293.38 68.41 289.06 71.81
  C 269.46 87.28 251.15 98.48 230.40 109.96
  A 2.60 2.59 74.6 0 0 229.06 112.33
  C 229.87 133.51 222.53 154.56 206.62 168.92
  A 1.39 1.33 22.6 0 1 205.74 169.26
  Q 187.50 169.53 169.25 169.89
  Q 166.29 169.95 168.18 168.15
  A 1.77 1.35 12.9 0 1 169.06 167.75
  Q 173.74 167.05 170.44 163.70
  A 0.88 0.88 46.2 0 0 169.20 163.67
  Q 167.45 165.34 166.26 163.67
  A 0.91 0.88 -51.0 0 1 166.18 162.79
  Q 167.01 160.96 168.94 160.42
  A 0.80 0.70 63.0 0 1 169.72 160.73
  Q 171.37 162.97 174.06 161.72
  A 1.50 1.39 -49.0 0 1 174.99 161.62
  Q 181.56 163.06 183.18 157.06
  Q 183.83 154.63 185.94 155.99
  Q 188.95 157.93 190.65 155.84
  A 1.17 1.16 60.1 0 0 190.89 154.93
  C 190.43 152.15 185.27 156.57 184.54 151.74
  Z
  M 273.57 67.55
  A 1.10 1.10 -43.0 0 0 273.63 66.00
  C 271.18 63.35 268.55 63.77 264.71 64.30
  C 249.81 66.38 235.33 70.68 221.28 75.99
  A 1.43 1.43 64.9 0 0 220.54 78.04
  Q 223.96 84.13 225.97 90.54
  C 226.74 93.02 226.38 96.41 230.50 94.25
  C 245.49 86.38 263.09 77.40 273.57 67.55
  Z
  M 115.3730 69.8150
  A 1.95 1.20 131.3 0 0 117.5615 69.1420
  A 1.95 1.20 131.3 0 0 117.9470 66.8850
  A 1.95 1.20 131.3 0 0 115.7585 67.5580
  A 1.95 1.20 131.3 0 0 115.3730 69.8150
  Z
  M 187.35 80.53
  C 190.07 77.98 186.18 76.55 184.18 76.35
  A 0.56 0.53 -87.1 0 1 183.71 75.80
  Q 183.70 73.26 181.36 73.89
  A 1.35 1.34 62.7 0 0 180.68 76.05
  L 184.20 80.33
  Q 185.67 82.11 187.35 80.53
  Z
  M 119.27 74.98
  C 117.56 73.53 114.04 74.17 111.94 74.38
  A 1.22 1.10 13.0 0 0 111.13 74.83
  C 107.95 79.19 114.68 81.81 116.23 79.92
  Q 116.94 79.05 117.94 78.53
  Q 121.37 76.76 119.27 74.98
  Z
  M 165.70 107.73
  L 162.18 106.65
  Q 160.04 105.99 161.39 104.21
  Q 162.83 102.32 161.65 100.33
  A 1.76 1.75 49.4 0 1 161.80 98.32
  Q 162.87 97.02 162.12 95.78
  A 1.56 1.56 54.5 0 0 159.79 95.39
  Q 157.18 97.57 156.00 100.26
  Q 154.90 102.76 152.90 101.17
  L 149.79 98.68
  A 1.05 0.99 33.5 0 0 148.24 98.95
  Q 146.95 101.37 144.46 102.55
  A 0.71 0.69 55.3 0 1 143.67 102.39
  Q 141.15 99.76 137.48 100.62
  A 1.69 1.68 47.2 0 1 136.53 100.58
  L 134.47 99.89
  A 1.51 1.49 -45.3 0 0 133.53 99.90
  C 129.40 101.28 128.73 104.11 125.57 106.21
  C 124.16 107.15 119.45 112.04 119.85 106.93
  C 120.13 103.37 117.43 106.23 116.57 106.77
  Q 113.50 108.70 110.73 111.02
  C 107.98 113.31 105.86 111.48 108.07 108.41
  Q 109.22 106.79 109.50 104.75
  Q 109.99 101.15 107.00 102.75
  C 99.42 106.80 97.99 100.62 92.83 97.78
  Q 91.36 96.97 91.29 95.29
  Q 91.09 90.48 93.19 85.29
  A 1.77 1.77 39.5 0 0 93.03 83.67
  Q 92.74 83.21 92.13 83.45
  A 1.37 0.94 -81.5 0 0 91.49 84.14
  Q 78.65 114.18 90.56 144.89
  Q 91.28 146.77 92.88 145.54
  C 95.00 143.91 100.76 138.65 101.94 143.81
  Q 102.85 147.81 104.44 144.69
  Q 106.23 141.18 110.32 139.34
  Q 111.99 138.58 111.59 136.79
  Q 111.22 135.15 112.90 134.33
  Q 114.71 133.45 116.12 132.01
  C 118.92 129.18 122.02 128.40 124.52 126.28
  C 126.15 124.89 128.85 121.80 131.05 122.77
  A 2.77 2.29 37.3 0 0 133.52 122.67
  L 139.92 118.38
  A 1.61 1.04 -50.1 0 1 140.80 118.11
  Q 146.21 118.52 148.00 114.00
  C 149.28 110.76 150.47 112.00 151.92 113.92
  C 154.84 117.79 157.24 110.94 161.13 114.04
  A 1.27 1.17 -50.1 0 0 162.81 113.82
  L 166.21 109.91
  A 1.38 1.29 -60.2 0 0 165.70 107.73
  Z
  M 153.6699 95.3601
  A 1.40 1.11 -21.8 0 0 151.9578 94.8494
  A 1.40 1.11 -21.8 0 0 151.0701 96.3999
  A 1.40 1.11 -21.8 0 0 152.7822 96.9106
  A 1.40 1.11 -21.8 0 0 153.6699 95.3601
  Z
  M 16.10 164.32
  A 0.82 0.82 -48.0 0 0 16.15 165.30
  C 18.53 168.10 20.73 167.22 23.88 166.88
  C 44.66 164.59 65.21 161.11 85.21 154.93
  A 0.49 0.49 68.1 0 0 85.50 154.24
  Q 79.79 143.16 76.96 130.83
  A 0.88 0.88 71.7 0 0 75.75 130.22
  Q 46.19 142.99 19.06 161.31
  Q 17.34 162.47 16.10 164.32
  Z
  M 198.6384 147.0384
  A 4.75 2.34 -37.5 0 0 193.4455 148.0736
  A 4.75 2.34 -37.5 0 0 191.1016 152.8216
  A 4.75 2.34 -37.5 0 0 196.2945 151.7864
  A 4.75 2.34 -37.5 0 0 198.6384 147.0384
  Z
  M 201.58 155.53
  Q 200.60 156.60 201.41 157.64
  A 0.77 0.73 -28.0 0 0 202.24 157.87
  Q 204.07 157.29 204.04 155.25
  A 1.27 1.21 -69.5 0 0 203.67 154.38
  Q 202.64 153.37 202.10 154.72
  Q 201.91 155.16 201.58 155.53
  Z"
/>
<rect fill="#000000" x="-1.51" y="-3.44" transform="translate(155.66,105.61) rotate(39.9)" width="3.02" height="6.88" rx="1.40"/>
<path fill="#000000" d="
  M 142.52 104.07
  A 1.37 1.37 -51.4 0 1 142.75 106.15
  Q 140.34 108.69 136.71 110.52
  A 1.28 0.94 -42.2 0 1 135.76 110.62
  Q 134.18 109.99 135.07 107.28
  Q 135.64 105.54 136.75 104.09
  Q 138.71 101.54 142.52 104.07
  Z"
/>
<path fill="#000000" d="
  M 465.72 156.43
  A 1.10 1.09 -21.4 0 0 465.06 157.93
  C 466.51 161.08 465.52 163.17 461.89 163.20
  Q 452.60 163.29 442.43 163.24
  A 1.63 1.63 89.5 0 1 440.80 161.64
  Q 440.36 141.19 440.25 119.98
  C 440.24 117.56 439.31 115.04 443.14 115.20
  C 450.45 115.50 457.91 115.25 465.23 115.25
  Q 475.76 115.25 479.57 116.85
  C 491.65 121.91 493.24 140.24 483.39 148.42
  A 1.13 1.06 -37.2 0 0 483.15 149.86
  L 490.60 160.88
  Q 491.99 162.94 489.62 162.97
  L 471.81 163.20
  A 1.15 1.09 68.1 0 1 470.98 162.82
  C 470.17 161.91 466.51 156.19 465.72 156.43
  Z
  M 465.19 123.50
  Q 465.21 132.49 465.25 142.00
  C 465.25 143.55 464.77 145.41 466.53 146.05
  C 473.20 148.46 471.06 131.04 471.01 128.37
  C 470.97 125.28 471.29 123.21 468.05 121.68
  Q 465.18 120.33 465.19 123.50
  Z"
/>
<path fill="#000000" d="
  M 522.86 121.21
  C 524.21 116.76 525.58 114.50 530.62 115.53
  A 1.00 0.99 14.1 0 1 531.38 116.79
  Q 527.95 128.61 523.22 139.45
  C 521.49 143.41 522.66 150.97 522.37 158.53
  C 522.30 160.37 523.63 163.74 520.50 163.75
  Q 509.50 163.80 498.82 163.51
  A 1.10 1.10 1.1 0 1 497.75 162.40
  C 497.78 156.18 498.93 145.75 496.66 140.41
  Q 491.72 128.78 487.13 117.33
  A 0.97 0.96 78.3 0 1 487.99 116.00
  L 511.61 115.55
  A 2.27 2.26 -11.7 0 1 513.75 116.95
  L 518.35 128.08
  Q 519.06 129.80 519.93 128.20
  Q 521.75 124.85 522.86 121.21
  Z"
/>
<path fill="#000000" d="
  M 264.38 165.66
  C 245.03 167.36 228.14 157.14 232.46 135.34
  C 235.72 118.87 249.88 112.91 265.31 116.69
  Q 268.23 117.40 267.63 120.02
  Q 267.52 120.50 267.67 120.97
  Q 268.36 123.26 266.24 123.68
  A 1.54 1.04 45.0 0 1 265.31 123.50
  C 260.19 120.81 255.90 126.05 256.14 130.87
  C 256.48 137.61 255.28 147.97 256.56 153.06
  Q 258.09 159.15 266.00 159.00
  Q 268.74 158.95 268.74 160.90
  C 268.75 165.26 268.62 165.28 264.38 165.66
  Z"
/>
<path fill="#000000" d="
  M 427.93 156.20
  C 429.86 153.93 429.56 152.27 429.47 149.47
  Q 429.00 134.83 429.00 120.17
  C 429.00 118.01 428.30 115.39 431.39 115.36
  C 433.47 115.35 435.24 115.26 436.37 116.16
  A 1.17 0.99 -74.3 0 1 436.76 117.01
  Q 437.11 134.63 436.97 152.26
  Q 436.94 156.62 435.68 158.86
  C 431.38 166.58 410.12 165.76 402.85 161.87
  C 396.59 158.53 396.98 154.21 396.87 146.95
  Q 396.64 132.09 396.50 117.16
  A 0.74 0.73 -2.0 0 1 397.20 116.42
  Q 407.23 115.93 417.52 115.76
  C 421.59 115.69 421.18 115.76 421.27 119.59
  Q 421.60 134.78 421.74 149.98
  C 421.77 153.16 421.56 156.37 425.30 157.11
  A 2.77 2.77 25.9 0 0 427.93 156.20
  Z"
/>
<path fill="#000000" d="
  M 354.81 116.88
  A 0.58 0.57 -79.8 0 1 355.35 116.50
  L 392.47 116.07
  A 1.55 1.54 84.5 0 1 394.01 117.35
  Q 395.16 124.00 389.98 122.75
  Q 386.81 121.98 386.82 125.26
  L 387.00 162.42
  A 1.32 1.27 89.1 0 1 385.76 163.75
  L 364.23 164.23
  Q 361.98 164.29 362.12 161.95
  Q 362.18 161.09 362.12 159.25
  Q 361.60 142.38 361.76 124.61
  A 1.40 1.36 0.2 0 0 360.36 123.24
  L 356.06 123.21
  A 1.38 1.16 -19.9 0 1 355.17 122.88
  C 354.07 121.87 354.28 118.25 354.81 116.88
  Z"
/>
<path fill="#000000" d="
  M 319.07 145.67
  Q 317.75 144.39 317.75 146.24
  C 317.75 151.54 317.54 156.97 317.83 162.24
  Q 317.98 164.98 315.62 164.79
  C 309.02 164.25 310.30 164.49 310.15 158.36
  Q 309.69 139.13 309.75 118.75
  A 1.79 1.79 87.3 0 1 311.36 116.98
  Q 315.35 116.59 319.95 116.70
  C 322.66 116.76 324.87 115.61 327.39 118.10
  Q 335.58 126.20 343.23 134.81
  C 343.83 135.49 344.99 135.57 345.00 134.39
  Q 345.07 126.80 344.72 118.51
  Q 344.62 116.25 346.89 116.25
  L 350.82 116.25
  A 1.83 1.83 89.2 0 1 352.65 118.03
  Q 353.16 136.47 352.53 153.49
  Q 352.34 158.49 352.75 160.75
  C 353.50 164.85 351.02 164.23 348.35 164.26
  Q 343.55 164.30 338.74 164.26
  A 1.32 1.19 65.5 0 1 337.89 163.89
  L 319.07 145.67
  Z"
/>
<path fill="#000000" d="
  M 271.19 118.92
  Q 271.18 117.02 273.05 117.00
  L 304.93 116.57
  A 1.24 0.96 -16.8 0 1 305.80 116.90
  Q 306.80 117.96 306.40 119.53
  Q 306.27 120.02 306.35 120.49
  C 307.08 124.56 300.64 123.61 298.16 123.45
  Q 295.90 123.30 295.98 125.43
  L 296.31 134.38
  Q 296.38 136.23 298.53 136.18
  L 304.19 136.02
  A 1.24 1.16 65.7 0 1 305.06 136.38
  Q 306.10 137.39 305.85 139.01
  Q 305.77 139.51 305.89 139.98
  C 307.02 144.58 299.81 143.25 297.37 143.25
  A 1.23 1.21 89.8 0 0 296.16 144.49
  L 296.24 156.71
  A 1.22 1.15 89.3 0 0 297.42 157.93
  L 305.25 157.75
  Q 306.78 157.71 307.50 160.75
  Q 307.95 162.63 306.99 164.04
  A 1.04 0.87 13.5 0 1 306.19 164.44
  L 273.16 164.74
  Q 271.30 164.76 271.29 162.87
  L 271.19 118.92
  Z"
/>
<path fill="#000000" d="
  M 525.74 197.75
  C 523.32 177.56 542.04 167.30 559.69 171.81
  C 561.68 172.32 561.33 174.88 561.48 176.16
  C 561.95 179.99 558.23 177.94 556.72 177.86
  C 551.38 177.60 550.30 181.73 550.14 186.36
  Q 549.85 195.30 550.04 204.25
  Q 550.24 213.66 559.77 213.00
  Q 562.16 212.83 562.21 215.10
  L 562.27 217.73
  Q 562.30 219.54 560.30 219.67
  C 553.18 220.12 545.54 220.26 539.29 217.42
  Q 527.45 212.02 525.74 197.75
  Z"
/>
<path fill="#000000" d="
  M 397.43 184.78
  C 403.12 173.22 414.85 170.21 426.75 171.21
  C 442.70 172.56 452.20 184.63 449.54 200.22
  C 446.99 215.21 432.75 221.07 418.48 219.96
  C 401.17 218.62 389.50 200.89 397.43 184.78
  Z
  M 420.10 178.95
  A 3.38 3.32 -28.3 0 0 419.50 180.89
  Q 419.52 195.94 419.67 208.94
  C 419.70 212.29 422.71 216.16 425.28 211.19
  A 1.77 1.44 60.5 0 0 425.44 210.24
  Q 425.09 207.26 425.28 204.25
  Q 425.98 193.03 425.63 181.79
  C 425.53 178.76 423.09 174.66 420.10 178.95
  Z"
/>
<path fill="#000000" d="
  M 564.27 215.22
  C 562.14 208.57 576.70 215.95 572.75 205.75
  Q 567.56 192.34 565.75 188.50
  C 564.48 185.81 563.88 182.23 563.91 179.80
  C 564.04 168.07 589.72 171.30 596.45 172.31
  A 1.96 1.83 -83.4 0 1 597.98 174.39
  L 597.69 177.80
  Q 597.50 180.01 595.53 179.27
  Q 592.66 178.19 590.05 179.32
  Q 587.85 180.27 588.82 182.46
  Q 592.33 190.39 596.40 198.08
  C 601.97 208.60 599.24 219.09 586.11 220.02
  Q 575.25 220.78 565.94 219.31
  Q 563.35 218.90 564.26 216.16
  A 1.51 1.49 -44.7 0 0 564.27 215.22
  Z"
/>
<rect fill="#000000" x="-12.39" y="-23.75" transform="translate(510.13,195.49) rotate(0.1)" width="24.78" height="47.50" rx="1.45"/>
<path fill="#000000" d="
  M 268.18 180.68
  C 274.90 171.79 287.56 169.96 297.62 172.96
  A 1.92 1.85 8.8 0 1 298.99 174.76
  L 298.99 178.11
  Q 298.99 180.66 296.62 179.52
  C 284.36 173.63 287.43 201.71 287.78 206.30
  C 288.22 212.27 291.93 214.29 297.67 214.24
  Q 299.72 214.23 299.73 216.19
  L 299.75 219.40
  A 1.47 1.43 -3.3 0 1 298.43 220.84
  C 290.40 221.73 282.34 221.43 275.40 217.67
  C 262.70 210.77 259.43 192.24 268.18 180.68
  Z"
/>
<path fill="#000000" d="
  M 460.08 199.81
  A 0.79 0.73 82.0 0 0 459.56 200.55
  L 459.73 217.67
  Q 459.74 219.50 457.86 219.50
  L 454.17 219.50
  Q 452.28 219.50 452.23 217.61
  Q 451.66 196.75 451.75 175.25
  Q 451.76 171.73 454.47 171.85
  C 458.51 172.02 462.61 171.62 466.69 171.79
  A 1.31 1.25 -20.4 0 1 467.55 172.16
  L 484.79 189.15
  Q 486.95 191.28 487.00 188.27
  L 487.24 172.75
  A 0.71 0.68 82.8 0 1 487.73 172.09
  Q 489.89 171.44 493.19 171.93
  A 1.61 1.57 4.4 0 1 494.57 173.50
  L 494.54 217.62
  Q 494.54 219.50 492.62 219.50
  L 481.48 219.50
  A 3.00 2.99 67.6 0 1 479.35 218.61
  C 477.24 216.45 461.22 199.46 460.08 199.81
  Z"
/>
<path fill="#000000" d="
  M 151.58 172.86
  C 163.43 171.70 172.16 173.04 182.36 172.34
  Q 185.53 172.12 185.36 175.51
  C 185.32 176.30 185.69 178.09 185.00 179.06
  A 1.06 0.84 13.4 0 1 184.18 179.44
  L 176.64 179.56
  A 1.53 1.43 0.8 0 0 175.14 180.93
  L 174.74 189.38
  A 1.42 1.28 7.6 0 0 175.89 190.73
  Q 179.91 191.53 182.58 190.73
  Q 184.75 190.08 184.75 192.34
  L 184.75 196.32
  Q 184.75 198.25 182.82 198.25
  L 175.95 198.25
  A 1.25 1.19 -89.5 0 0 174.76 199.48
  L 174.52 211.24
  A 1.71 1.55 89.9 0 0 176.11 212.99
  L 184.30 212.75
  Q 186.51 212.68 185.94 214.71
  Q 185.50 216.28 185.94 218.08
  Q 186.46 220.21 184.27 220.18
  Q 168.71 219.95 152.54 220.05
  C 148.19 220.08 149.78 218.01 149.73 215.18
  Q 149.34 194.34 150.47 174.02
  A 1.24 1.23 88.9 0 1 151.58 172.86
  Z"
/>
<path fill="#000000" d="
  M 223.03 213.44
  A 0.80 0.73 0.8 0 1 223.81 214.17
  L 223.80 219.00
  A 0.97 0.85 -17.3 0 1 223.33 219.77
  C 220.98 221.15 218.30 220.25 216.36 220.28
  Q 203.27 220.47 189.28 219.76
  A 1.53 1.53 1.6 0 1 187.82 218.22
  Q 187.97 198.27 188.47 177.64
  C 188.53 175.19 187.66 172.08 191.42 172.36
  C 197.93 172.86 204.79 172.57 211.07 172.33
  Q 213.25 172.25 213.24 174.41
  L 213.07 211.51
  A 1.73 1.71 -89.2 0 0 214.74 213.25
  L 223.03 213.44
  Z"
/>
<path fill="#000000" d="
  M 252.47 212.99
  Q 255.87 213.23 259.76 213.06
  C 261.87 212.97 262.98 213.88 262.41 216.02
  Q 262.27 216.53 262.33 216.99
  C 262.86 220.94 260.25 220.28 257.61 220.24
  Q 243.89 220.02 230.16 219.77
  C 226.58 219.70 226.00 220.39 226.07 216.26
  Q 226.43 196.18 226.50 176.11
  C 226.51 172.15 226.78 172.50 230.33 172.42
  Q 245.25 172.08 260.18 172.30
  A 1.06 0.90 -14.2 0 1 260.99 172.70
  Q 261.84 173.91 261.60 175.50
  Q 261.53 175.99 261.64 176.47
  Q 262.02 178.09 260.84 179.13
  A 1.44 1.28 21.9 0 1 259.94 179.45
  L 252.47 179.47
  A 0.94 0.88 0.6 0 0 251.54 180.32
  L 251.25 189.75
  A 1.70 1.69 0.3 0 0 252.99 191.50
  L 258.77 191.36
  A 1.90 1.76 -6.0 0 1 260.66 192.77
  Q 261.82 198.62 257.99 198.35
  C 256.19 198.22 254.47 198.25 252.51 198.25
  A 1.26 1.26 0.0 0 0 251.25 199.51
  L 251.25 211.68
  A 1.32 1.31 2.1 0 0 252.47 212.99
  Z"
/>
<path fill="#000000" d="
  M 305.95 179.45
  C 299.77 180.06 301.63 178.18 301.51 173.61
  A 1.29 1.26 -0.9 0 1 302.80 172.31
  L 339.24 172.50
  A 1.39 1.02 -15.8 0 1 340.12 172.83
  C 341.28 174.00 341.11 176.14 341.20 177.38
  Q 341.46 180.60 336.78 179.65
  Q 333.75 179.04 333.73 182.10
  L 333.50 218.76
  A 1.49 1.45 -89.6 0 1 332.03 220.25
  L 309.99 220.02
  A 1.46 1.44 -89.4 0 1 308.57 218.55
  Q 308.69 201.76 308.75 184.37
  C 308.76 181.97 309.39 179.12 305.95 179.45
  Z"
/>
<path fill="#000000" d="
  M 386.05 205.32
  A 0.91 0.90 -35.8 0 0 385.85 206.50
  L 393.32 218.31
  Q 394.55 220.26 392.27 220.25
  L 374.56 220.19
  A 1.29 1.28 66.1 0 1 373.69 219.85
  C 373.20 219.39 366.61 208.65 368.06 215.94
  Q 369.06 221.00 364.38 220.61
  C 358.24 220.10 351.91 220.21 345.75 220.29
  C 341.99 220.34 343.50 217.42 343.50 215.49
  Q 343.47 194.62 343.50 173.73
  A 1.17 1.17 -0.3 0 1 344.67 172.56
  Q 356.85 172.55 369.13 172.30
  C 371.99 172.24 374.69 172.92 377.52 173.37
  C 393.29 175.88 398.19 195.45 386.05 205.32
  Z
  M 368.00 180.75
  C 368.00 187.22 368.30 193.88 367.89 200.32
  Q 367.77 202.27 369.25 202.77
  C 375.61 204.91 374.25 190.48 374.25 187.89
  C 374.25 183.54 374.75 180.89 370.75 179.25
  Q 368.00 178.12 368.00 180.75
  Z"
/>
<path fill="#000000" d="
  M 497.80 258.55
  C 482.96 267.57 471.70 248.06 478.64 235.72
  C 484.15 225.96 498.87 225.22 503.78 236.16
  A 1.36 1.36 -19.4 0 1 502.88 238.03
  C 499.42 238.94 498.29 232.10 492.75 231.48
  C 476.17 229.62 476.62 258.87 492.64 256.94
  Q 498.22 256.26 500.29 249.89
  Q 501.28 246.84 498.07 246.79
  L 492.56 246.70
  A 1.52 1.19 -18.8 0 1 491.67 246.39
  Q 490.06 245.01 491.66 243.63
  A 1.56 0.92 12.4 0 1 492.55 243.34
  L 502.63 242.99
  Q 504.85 242.91 504.78 244.98
  Q 504.59 250.97 504.92 256.12
  C 505.17 259.93 503.36 262.27 501.23 257.48
  C 500.19 255.14 498.89 257.89 497.80 258.55
  Z"
/>
<path fill="#000000" d="
  M 320.3796 260.7862
  A 16.28 15.32 93.1 0 1 305.9624 243.7015
  A 16.28 15.32 93.1 0 1 322.1404 228.2738
  A 16.28 15.32 93.1 0 1 336.5576 245.3585
  A 16.28 15.32 93.1 0 1 320.3796 260.7862
  Z
  M 319.08 256.91
  C 335.23 259.52 336.23 234.07 323.50 232.00
  C 307.60 229.41 305.68 254.74 319.08 256.91
  Z"
/>
<path fill="#000000" d="
  M 410.53 246.05
  Q 410.30 249.44 410.50 257.00
  Q 410.65 262.65 406.45 259.26
  A 1.10 0.98 -72.9 0 1 406.07 258.43
  L 406.01 230.25
  A 1.28 0.98 73.5 0 1 406.34 229.39
  Q 407.72 228.09 409.49 228.85
  A 0.89 0.80 -83.8 0 1 410.00 229.56
  Q 410.64 234.89 410.03 239.96
  Q 409.81 241.88 411.74 242.00
  Q 418.48 242.40 425.20 241.69
  A 1.45 1.39 86.9 0 0 426.43 240.26
  L 426.42 230.19
  A 1.31 1.28 66.8 0 1 426.76 229.31
  Q 428.59 227.30 430.38 229.42
  A 1.53 1.26 -69.8 0 1 430.69 230.31
  L 430.93 258.44
  A 1.34 1.14 69.0 0 1 430.62 259.32
  Q 428.76 261.33 426.88 259.31
  A 1.42 1.14 -71.7 0 1 426.55 258.43
  Q 426.39 249.87 426.50 247.75
  C 426.69 244.13 424.28 245.27 422.20 245.22
  Q 416.62 245.07 411.06 245.52
  A 0.58 0.57 -0.6 0 0 410.53 246.05
  Z"
/>
<path fill="#000000" d="
  M 440.18 240.50
  A 1.99 1.78 -0.1 0 0 442.11 242.22
  C 446.44 242.33 450.99 242.54 454.82 241.84
  Q 456.38 241.55 457.05 243.38
  A 1.40 1.39 -9.9 0 1 455.73 245.25
  C 451.19 245.25 446.72 245.40 442.47 245.20
  C 438.48 245.02 440.00 251.92 440.00 254.45
  A 1.30 1.25 -89.8 0 0 441.24 255.75
  L 457.43 255.83
  A 1.12 0.94 -16.0 0 1 458.26 256.20
  C 460.98 259.66 457.28 259.75 455.18 259.75
  Q 446.94 259.75 438.42 259.75
  Q 435.83 259.75 435.81 257.15
  L 435.56 229.30
  A 0.77 0.73 -0.8 0 1 436.32 228.56
  L 456.76 228.52
  A 1.63 1.05 -16.8 0 1 457.66 228.78
  Q 459.35 230.06 457.86 231.65
  A 1.22 1.22 21.1 0 1 457.00 232.03
  L 440.94 232.22
  A 1.03 0.90 -1.7 0 0 439.93 233.16
  L 440.18 240.50
  Z"
/>
<path fill="#000000" d="
  M 510.33 259.77
  A 0.89 0.89 -69.4 0 1 509.81 258.61
  Q 514.96 245.27 519.49 231.56
  C 520.26 229.21 520.96 227.71 523.67 228.47
  C 526.01 229.13 526.67 232.35 527.44 234.56
  Q 531.49 246.22 536.58 257.69
  Q 537.71 260.23 534.94 260.03
  C 530.62 259.72 530.90 254.95 529.50 251.97
  A 2.37 2.11 75.6 0 0 527.48 250.61
  L 517.81 250.75
  A 1.08 0.86 -70.4 0 0 517.03 251.23
  C 515.20 254.00 514.95 261.49 510.33 259.77
  Z
  M 521.94 234.44
  L 518.43 245.20
  A 1.52 1.33 -80.7 0 0 519.67 247.19
  L 525.62 246.99
  Q 527.83 246.91 527.03 244.65
  L 523.44 234.56
  Q 522.63 232.30 521.94 234.44
  Z"
/>
<path fill="#000000" d="
  M 545.49 238.09
  Q 545.23 238.03 544.98 238.10
  A 0.73 0.54 82.9 0 0 544.59 238.79
  L 545.43 258.69
  A 1.37 1.22 66.2 0 1 545.14 259.58
  Q 543.54 261.51 541.77 259.69
  A 1.39 1.20 -70.2 0 1 541.43 258.81
  L 540.99 230.64
  A 1.27 1.26 -10.5 0 1 541.82 229.44
  Q 543.89 228.68 545.17 229.00
  C 547.25 229.52 554.05 248.78 555.19 251.82
  Q 556.06 254.15 556.98 251.84
  Q 561.25 241.05 565.35 230.08
  Q 565.86 228.70 567.24 228.71
  Q 567.80 228.71 568.22 228.57
  C 570.66 227.78 571.44 229.41 571.43 231.53
  Q 571.41 244.74 571.68 257.94
  A 1.38 1.20 67.7 0 1 571.38 258.82
  Q 569.47 260.99 567.63 258.83
  A 1.37 1.19 -68.2 0 1 567.32 257.94
  C 567.35 255.77 567.86 237.43 566.44 237.36
  A 0.81 0.60 -75.8 0 0 565.77 237.91
  Q 562.31 247.81 558.67 257.64
  C 557.21 261.60 554.95 260.69 553.64 257.36
  Q 549.97 248.04 546.13 238.78
  A 1.19 0.70 77.6 0 0 545.49 238.09
  Z"
/>
<path fill="#000000" d="
  M 600.00 257.06
  L 600.03 258.86
  Q 589.71 259.97 577.91 259.51
  A 1.16 1.14 0.8 0 1 576.79 258.38
  L 576.50 229.19
  A 0.69 0.68 1.2 0 1 577.23 228.50
  Q 587.37 229.08 597.51 228.64
  Q 599.63 228.54 599.24 230.83
  A 1.72 1.72 -85.0 0 1 597.55 232.25
  L 582.01 232.25
  A 1.26 1.26 0.0 0 0 580.75 233.51
  L 580.75 239.87
  Q 580.75 241.86 582.73 242.00
  Q 589.49 242.48 596.15 241.57
  A 1.64 1.64 86.5 0 1 598.01 243.22
  Q 597.96 245.63 595.75 245.25
  C 593.33 244.83 588.13 245.60 583.09 245.20
  C 579.94 244.94 580.95 252.95 581.20 254.43
  A 1.57 1.57 -4.3 0 0 582.74 255.75
  Q 589.28 255.79 595.82 255.70
  C 597.55 255.67 599.04 254.73 600.00 257.06
  Z"
/>
<path fill="#000000" d="
  M 204.39 229.22
  A 1.50 1.50 -77.7 0 1 205.25 230.56
  Q 205.42 243.05 205.49 255.83
  C 205.50 257.78 206.60 261.34 202.76 260.31
  A 2.05 2.04 7.6 0 1 201.25 258.34
  L 201.25 247.60
  Q 201.25 245.45 199.02 245.50
  L 186.77 245.74
  A 1.80 1.80 88.6 0 0 185.01 247.59
  L 185.26 258.69
  Q 185.31 260.93 183.02 260.58
  C 180.19 260.15 180.74 259.14 180.75 256.92
  Q 180.82 243.81 180.93 230.69
  A 1.49 1.31 68.7 0 1 181.26 229.79
  C 186.23 224.18 185.09 239.57 185.07 240.52
  Q 185.04 242.42 186.94 242.47
  Q 191.84 242.60 195.89 242.52
  C 199.05 242.46 201.51 242.83 201.15 238.51
  C 200.93 235.97 199.30 226.88 204.39 229.22
  Z"
/>
<path fill="#000000" d="
  M 215.04 246.20
  A 1.24 1.12 78.1 0 0 214.43 247.25
  L 214.37 254.12
  Q 214.36 256.25 216.29 256.25
  L 231.69 256.25
  A 1.56 1.56 -1.8 0 1 233.25 257.71
  Q 233.43 260.56 230.49 260.45
  Q 221.03 260.12 211.93 260.43
  A 1.71 1.69 89.0 0 1 210.18 258.72
  L 210.18 230.04
  A 0.84 0.83 89.7 0 1 211.00 229.20
  L 230.69 228.83
  A 1.24 1.06 -20.1 0 1 231.54 229.15
  C 234.77 232.39 230.60 232.50 228.77 232.50
  Q 222.59 232.50 215.93 232.50
  A 1.68 1.68 0.0 0 0 214.25 234.18
  L 214.25 240.63
  A 1.84 1.84 0.6 0 0 216.05 242.47
  Q 222.79 242.62 228.54 242.37
  C 230.45 242.28 232.10 243.29 230.74 245.29
  A 1.03 0.91 14.6 0 1 229.94 245.70
  C 226.81 245.74 217.33 244.99 215.04 246.20
  Z"
/>
<path fill="#000000" d="
  M 266.83 259.53
  A 0.92 0.89 -77.8 0 1 266.32 258.71
  L 266.33 230.82
  Q 266.33 228.85 268.27 228.79
  Q 275.91 228.55 282.25 229.50
  C 294.80 231.38 294.91 260.06 278.25 259.71
  C 273.64 259.62 269.81 260.92 266.83 259.53
  Z
  M 270.44 233.25
  L 270.75 254.75
  A 1.27 1.26 90.0 0 0 271.99 256.00
  C 279.38 256.13 287.16 255.97 286.75 246.07
  Q 286.68 244.26 286.81 242.45
  Q 287.25 236.52 282.51 233.36
  A 4.22 2.52 51.0 0 0 280.58 232.65
  L 271.29 232.31
  A 0.93 0.82 -89.5 0 0 270.44 233.25
  Z"
/>
<path fill="#000000" d="
  M 341.36 260.04
  A 1.15 1.14 -82.8 0 1 340.50 258.93
  Q 340.50 245.25 340.50 232.00
  C 340.50 227.13 342.97 229.24 345.58 229.27
  Q 353.01 229.34 360.43 229.08
  A 1.07 0.97 -19.4 0 1 361.26 229.43
  Q 364.11 232.78 359.00 232.67
  Q 352.47 232.53 345.94 232.44
  A 0.75 0.72 10.3 0 0 345.25 232.90
  Q 343.75 236.80 344.74 240.97
  A 1.91 1.85 83.1 0 0 346.55 242.44
  L 357.55 242.40
  A 1.63 1.55 -9.9 0 1 359.05 243.40
  Q 359.83 245.46 357.74 245.52
  Q 351.78 245.70 345.81 245.80
  A 1.02 0.88 13.6 0 0 345.01 246.21
  C 344.12 247.52 344.45 255.50 344.66 257.26
  Q 345.10 261.01 341.36 260.04
  Z"
/>
<path fill="#000000" d="
  M 386.70 232.47
  C 384.14 232.04 376.57 233.95 377.38 229.98
  A 1.19 1.18 -84.4 0 1 378.54 229.02
  L 400.57 228.94
  A 1.21 1.06 -19.7 0 1 401.43 229.28
  Q 402.70 230.63 401.33 231.87
  A 1.41 1.16 19.8 0 1 400.44 232.19
  L 393.57 232.30
  Q 391.67 232.33 391.71 234.23
  L 392.18 258.69
  A 1.16 1.02 71.0 0 1 391.83 259.54
  Q 389.92 261.30 388.08 259.37
  A 1.31 1.09 -70.2 0 1 387.76 258.49
  Q 388.05 245.76 387.22 233.05
  A 0.64 0.63 3.6 0 0 386.70 232.47
  Z"
/>
<path fill="#000000" d="
  M 167.62 251.35
  L 159.03 251.56
  A 2.35 2.26 8.1 0 0 156.88 253.11
  C 155.87 256.13 155.78 261.27 151.39 260.62
  A 1.26 1.26 15.7 0 1 150.41 258.88
  Q 154.69 248.83 157.98 237.99
  C 158.66 235.74 160.33 229.94 162.86 229.25
  C 164.80 228.72 165.91 229.55 166.58 231.40
  Q 171.52 245.16 176.86 258.77
  Q 177.70 260.91 174.17 260.32
  Q 172.49 260.04 171.97 258.50
  L 170.11 253.07
  Q 169.51 251.30 167.62 251.35
  Z
  M 159.17 247.81
  L 166.59 247.76
  A 1.31 1.26 79.7 0 0 167.75 246.01
  L 163.99 235.48
  Q 162.95 232.55 162.36 235.63
  Q 161.31 241.11 158.66 246.97
  A 0.60 0.57 -77.7 0 0 159.17 247.81
  Z"
/>
<path fill="#000000" d="
  M 250.05 229.35
  A 2.91 2.90 89.5 0 1 251.88 231.16
  Q 256.61 244.83 262.31 257.94
  Q 263.55 260.79 260.06 260.44
  C 256.78 260.11 256.22 254.59 254.87 251.93
  A 1.45 1.38 -13.2 0 0 253.58 251.17
  L 244.62 251.23
  Q 242.59 251.25 242.16 252.84
  L 240.61 258.64
  Q 240.01 260.90 237.92 260.74
  C 233.88 260.44 236.20 258.07 236.81 256.43
  Q 241.68 243.43 246.15 230.29
  A 1.28 1.12 89.2 0 1 246.75 229.58
  Q 248.40 228.81 250.05 229.35
  Z
  M 245.14 247.59
  Q 248.72 248.07 252.52 247.50
  A 0.88 0.86 75.9 0 0 253.19 246.35
  L 249.56 235.69
  Q 248.60 232.85 247.75 235.50
  L 244.33 246.22
  A 1.06 1.01 -77.0 0 0 245.14 247.59
  Z"
/>
</svg>
