<?xml version="1.0" encoding="UTF-8" standalone="no"?>
<!DOCTYPE svg PUBLIC "-//W3C//DTD SVG 1.1//EN" "http://www.w3.org/Graphics/SVG/1.1/DTD/svg11.dtd">
<svg xmlns="http://www.w3.org/2000/svg" version="1.1" viewBox="0 0 600 300">
<path fill="#000000" d="
  M 144.62 226.47
  C 94.83 256.34 19.22 237.96 2.50 177.50
  C -6.86 143.68 11.48 109.85 40.69 92.44
  C 70.31 74.78 107.37 73.57 138.09 88.89
  C 161.85 100.74 179.67 122.33 184.10 148.82
  C 184.24 149.65 183.84 151.55 184.98 152.13
  A 0.88 0.75 15.4 0 1 185.45 152.82
  C 185.51 154.65 186.08 165.22 184.93 166.21
  A 1.70 1.69 72.9 0 0 184.34 167.33
  C 181.76 192.36 165.64 213.86 144.62 226.47
  Z
  M 148.13 122.17
  C 140.05 114.54 132.26 106.34 123.94 98.08
  A 1.34 1.32 45.0 0 0 122.05 98.07
  L 111.35 108.89
  A 0.50 0.50 0.0 0 1 110.64 108.90
  L 100.02 98.39
  A 1.81 1.78 44.8 0 0 97.49 98.38
  L 87.02 108.85
  A 0.64 0.64 44.7 0 1 86.11 108.85
  L 74.18 97.05
  A 0.52 0.52 44.6 0 0 73.45 97.05
  L 61.41 108.97
  A 0.52 0.52 43.8 0 1 60.68 108.96
  L 50.18 98.30
  A 1.32 1.30 -44.8 0 0 48.32 98.31
  L 36.68 109.95
  A 1.86 1.84 -44.9 0 0 36.66 112.56
  L 58.74 134.85
  A 1.10 1.08 -44.6 0 0 60.28 134.85
  L 71.34 123.78
  A 0.95 0.92 45.0 0 1 72.66 123.80
  L 84.55 135.67
  A 1.38 1.34 -44.9 0 0 86.48 135.65
  L 98.20 123.93
  A 0.81 0.76 44.8 0 1 99.32 123.96
  L 110.36 135.01
  A 0.93 0.88 -45.2 0 0 111.65 134.97
  L 122.38 124.24
  A 0.93 0.91 44.8 0 1 123.66 124.25
  L 135.70 136.10
  A 0.52 0.51 45.0 0 0 136.43 136.11
  L 148.20 124.63
  A 1.73 1.67 44.4 0 0 148.13 122.17
  Z
  M 170.74 163.97
  C 163.74 157.82 157.19 150.52 150.56 143.93
  C 148.32 141.70 147.53 139.84 144.69 142.69
  Q 140.19 147.19 135.16 152.22
  A 0.76 0.76 44.7 0 1 134.09 152.22
  L 125.92 144.05
  Q 123.90 142.03 121.83 144.02
  L 112.61 152.91
  A 0.52 0.50 45.4 0 1 111.90 152.89
  L 100.44 141.56
  A 1.51 1.51 45.1 0 0 98.32 141.55
  L 87.24 152.51
  A 0.60 0.59 -44.3 0 1 86.40 152.51
  L 76.42 142.30
  Q 74.76 140.59 73.12 142.23
  L 62.19 153.19
  A 0.61 0.59 -44.7 0 1 61.33 153.20
  L 49.59 141.44
  Q 48.01 139.86 46.40 141.47
  L 36.63 151.25
  A 0.80 0.80 -46.6 0 1 35.50 151.24
  L 25.56 141.18
  Q 23.79 139.40 21.95 141.15
  Q 17.10 145.73 11.81 151.06
  C 8.69 154.21 10.79 155.02 13.32 157.35
  Q 23.52 166.75 33.84 176.02
  C 35.68 177.68 36.92 179.46 39.39 176.89
  Q 43.56 172.56 47.73 168.39
  A 1.13 1.10 44.6 0 1 49.30 168.40
  L 60.05 178.95
  A 1.34 1.34 -45.2 0 0 61.93 178.94
  L 73.32 167.78
  A 1.02 0.99 45.0 0 1 74.72 167.80
  L 85.18 177.87
  A 1.71 1.58 -45.5 0 0 87.49 177.76
  L 97.75 167.50
  A 0.35 0.35 -0.0 0 1 98.25 167.50
  L 109.06 178.43
  Q 110.47 179.86 111.88 178.45
  L 123.04 167.33
  A 0.65 0.64 -45.0 0 1 123.95 167.32
  L 134.38 177.66
  Q 136.56 179.81 138.74 177.63
  L 147.68 168.69
  A 1.15 1.13 -44.8 0 1 149.30 168.68
  L 158.21 177.59
  Q 159.59 178.96 161.02 177.65
  Q 165.13 173.91 169.48 169.42
  C 171.14 167.70 173.34 166.24 170.74 163.97
  Z
  M 36.72 198.81
  C 43.98 206.30 51.11 213.66 58.84 221.19
  A 0.98 0.97 -45.0 0 0 60.21 221.18
  L 71.64 209.85
  A 0.51 0.51 -90.0 0 1 72.36 209.85
  L 84.46 221.97
  A 1.46 1.46 0.0 0 0 86.52 221.97
  L 98.33 210.16
  A 0.51 0.51 -90.0 0 1 99.05 210.16
  L 110.07 220.94
  A 1.34 1.32 44.8 0 0 111.93 220.95
  L 122.61 210.26
  A 0.56 0.56 -0.0 0 1 123.39 210.26
  L 135.33 222.20
  A 0.95 0.93 45.4 0 0 136.66 222.23
  L 148.10 211.04
  Q 149.52 209.65 148.08 208.21
  L 123.93 184.18
  A 1.22 1.22 44.8 0 0 122.20 184.18
  L 111.54 194.95
  A 0.86 0.85 -45.0 0 1 110.33 194.96
  L 99.50 184.13
  A 1.06 1.06 90.0 0 0 98.00 184.13
  L 87.24 194.88
  A 0.91 0.88 44.5 0 1 85.97 194.87
  L 74.42 183.52
  A 0.98 0.95 -45.4 0 0 73.07 183.55
  L 61.61 195.02
  A 0.79 0.77 45.5 0 1 60.51 195.00
  L 50.18 184.56
  A 1.42 1.40 -44.9 0 0 48.18 184.57
  L 36.73 196.14
  Q 35.41 197.46 36.72 198.81
  Z"
/>
<path fill="#000000" d="
  M 304.93 168.54
  L 280.59 168.28
  A 1.17 1.14 -83.5 0 0 279.46 169.21
  L 271.29 206.32
  Q 270.81 208.51 268.59 208.50
  L 256.05 208.44
  Q 253.49 208.43 254.08 205.90
  Q 264.89 160.10 276.00 114.00
  C 276.68 111.16 277.11 109.77 280.49 109.87
  Q 292.10 110.22 303.71 109.87
  C 309.02 109.71 307.71 113.06 309.14 116.44
  Q 309.78 117.97 309.98 118.79
  Q 320.31 162.16 330.83 205.83
  Q 331.46 208.43 328.81 208.44
  L 316.55 208.49
  Q 313.98 208.51 313.44 206.00
  L 305.54 169.06
  A 0.66 0.62 83.7 0 0 304.93 168.54
  Z
  M 283.54 150.03
  A 1.00 1.00 -84.9 0 0 284.51 151.24
  L 300.24 151.27
  A 1.00 1.00 -6.1 0 0 301.22 150.06
  L 293.42 113.89
  A 1.00 1.00 35.5 0 0 291.46 113.88
  L 283.54 150.03
  Z"
/>
<path fill="#000000" d="
  M 473.06 130.56
  C 475.82 123.38 482.76 115.93 489.62 112.55
  Q 501.02 106.95 512.64 112.16
  C 525.76 118.04 531.14 130.23 531.25 144.00
  C 531.29 149.18 527.99 148.49 523.70 148.50
  C 520.56 148.51 515.43 149.68 515.20 144.99
  C 514.81 136.95 514.04 126.28 503.98 124.50
  C 479.93 120.22 483.40 174.37 488.44 186.06
  C 494.40 199.92 511.80 197.14 514.05 182.51
  Q 515.00 176.29 515.00 170.01
  Q 515.00 167.76 517.23 167.50
  Q 522.50 166.89 529.27 167.68
  Q 531.68 167.96 531.69 170.38
  C 531.80 186.39 526.17 202.15 509.94 208.19
  C 496.92 213.03 483.04 206.18 475.61 195.37
  C 464.23 178.82 465.90 149.22 473.06 130.56
  Z"
/>
<path fill="#000000" d="
  M 535.16 159.38
  C 535.01 139.69 539.16 113.36 563.82 110.03
  C 582.92 107.45 595.94 121.98 598.29 140.08
  Q 600.37 156.09 598.50 175.75
  Q 597.46 186.73 593.35 194.33
  C 586.29 207.38 570.58 213.50 556.72 207.56
  C 537.56 199.36 535.31 177.43 535.16 159.38
  Z
  M 569.44 124.59
  C 550.35 122.08 552.10 155.64 552.66 166.15
  C 553.10 174.54 553.05 183.75 558.31 190.19
  C 565.78 199.33 577.86 194.66 580.25 184.25
  Q 584.08 167.56 582.24 148.61
  C 581.40 139.89 580.84 126.09 569.44 124.59
  Z"
/>
<path fill="#000000" d="
  M 212.50 185.50
  C 213.79 192.59 220.35 194.66 227.00 193.74
  C 235.91 192.50 236.42 184.00 236.45 176.47
  Q 236.54 145.23 236.50 113.99
  Q 236.50 111.26 239.21 110.98
  C 242.28 110.66 248.14 110.38 250.15 110.76
  C 253.90 111.47 253.25 114.77 253.25 118.36
  Q 253.25 147.68 253.25 177.00
  C 253.25 188.28 249.56 199.84 239.03 205.76
  C 220.76 216.01 199.84 206.37 195.80 185.78
  C 194.91 181.25 195.25 175.99 195.25 171.37
  Q 195.25 168.25 198.37 168.25
  C 203.03 168.25 212.80 166.01 211.75 173.50
  Q 211.12 177.96 212.50 185.50
  Z"
/>
<path fill="#000000" d="
  M 354.77 194.09
  Q 357.00 193.61 359.75 193.63
  Q 375.75 193.75 391.75 193.71
  Q 394.28 193.71 396.50 194.83
  A 1.11 1.10 -84.6 0 1 397.07 195.53
  Q 398.42 200.57 397.46 205.96
  Q 397.02 208.45 394.49 208.51
  Q 367.59 209.05 340.44 208.56
  C 337.20 208.50 336.50 206.86 336.50 203.83
  Q 336.50 159.17 336.50 114.50
  C 336.50 109.36 345.23 110.73 348.74 110.56
  C 352.33 110.39 353.25 112.66 353.25 115.89
  Q 353.25 154.09 353.25 192.86
  A 1.26 1.25 83.9 0 0 354.77 194.09
  Z"
/>
<path fill="#000000" d="
  M 410.52 208.58
  C 407.22 208.52 404.07 209.27 404.06 204.53
  Q 403.96 160.12 404.00 115.71
  C 404.00 112.87 404.92 110.75 408.00 110.75
  Q 432.50 110.75 457.00 110.72
  C 462.76 110.71 461.00 118.81 461.00 122.52
  Q 461.00 125.50 458.02 125.50
  L 421.92 125.50
  A 1.18 1.18 88.4 0 0 420.74 126.75
  Q 421.31 137.62 420.72 148.83
  A 1.35 1.35 -88.6 0 0 422.07 150.25
  Q 437.63 150.25 452.55 150.25
  C 459.42 150.25 457.78 153.80 457.76 158.87
  C 457.75 163.51 458.23 164.75 453.16 164.75
  Q 437.45 164.75 421.74 164.75
  A 0.92 0.92 89.1 0 0 420.82 165.70
  Q 421.28 178.78 420.73 192.81
  A 1.07 1.07 -89.2 0 0 421.82 193.93
  Q 437.28 193.63 453.25 193.57
  Q 457.28 193.55 461.51 194.30
  Q 463.53 194.65 463.77 196.68
  Q 464.35 201.50 463.75 206.47
  Q 463.52 208.46 461.52 208.50
  Q 436.01 209.06 410.52 208.58
  Z"
/>
</svg>
