<?xml version="1.0" encoding="UTF-8" standalone="no"?>
<!DOCTYPE svg PUBLIC "-//W3C//DTD SVG 1.1//EN" "http://www.w3.org/Graphics/SVG/1.1/DTD/svg11.dtd">
<svg xmlns="http://www.w3.org/2000/svg" version="1.1" viewBox="0 0 600 300">
<path fill="#000000" d="
  M 66.25 62.24
  C 86.36 62.45 92.46 74.73 92.46 92.85
  C 92.47 115.43 89.51 135.71 61.75 136.27
  Q 50.45 136.50 38.90 134.95
  A 1.02 1.01 3.7 0 0 37.75 135.95
  Q 37.75 149.75 37.75 163.75
  C 37.75 169.84 29.97 167.75 26.03 167.75
  Q 23.00 167.75 23.00 164.72
  L 23.00 64.89
  A 0.82 0.82 87.3 0 1 23.74 64.07
  Q 45.33 62.02 66.25 62.24
  Z
  M 77.00 87.50
  C 76.76 80.26 72.66 75.48 65.25 75.44
  Q 51.90 75.35 38.80 75.81
  A 1.09 1.08 89.2 0 0 37.75 76.90
  L 37.75 121.01
  A 0.93 0.92 -86.9 0 0 38.57 121.93
  C 47.18 122.87 68.09 125.87 73.68 118.21
  C 78.40 111.75 77.27 95.74 77.00 87.50
  Z"
/>
<path fill="#000000" d="
  M 264.45 77.09
  L 252.64 78.36
  Q 249.33 78.72 249.00 75.52
  L 248.12 66.78
  A 0.87 0.85 83.6 0 1 248.86 65.83
  L 277.50 62.25
  Q 279.93 61.95 279.94 64.06
  Q 280.05 114.03 280.00 164.00
  C 279.99 169.75 271.60 167.75 267.73 167.75
  Q 265.41 167.75 265.22 165.44
  Q 264.87 161.01 264.89 156.25
  Q 265.05 116.91 264.94 77.56
  A 0.47 0.44 87.2 0 0 264.45 77.09
  Z"
/>
<path fill="#000000" d="
  M 308.59 97.25
  C 309.81 65.01 327.58 60.12 355.94 62.56
  C 376.33 64.32 382.59 76.82 383.24 95.75
  Q 383.85 113.25 383.27 130.75
  C 382.72 147.35 378.66 163.35 360.00 167.50
  Q 348.76 170.00 336.37 168.34
  C 315.73 165.56 309.10 153.20 308.48 133.50
  Q 307.90 115.38 308.59 97.25
  Z
  M 335.00 76.78
  C 327.52 78.08 324.44 85.66 324.07 92.50
  Q 322.97 112.99 323.79 133.50
  C 324.57 152.86 333.68 157.13 351.77 155.12
  C 359.41 154.27 364.49 151.94 366.28 144.26
  C 369.04 132.39 368.40 118.59 368.14 106.45
  C 367.96 98.19 368.75 84.24 361.86 79.08
  C 355.88 74.60 341.97 75.56 335.00 76.78
  Z"
/>
<path fill="#000000" d="
  M 404.59 97.25
  C 405.81 65.01 423.58 60.12 451.94 62.56
  C 472.33 64.32 478.59 76.82 479.24 95.75
  Q 479.85 113.25 479.27 130.75
  C 478.72 147.35 474.66 163.35 456.00 167.50
  Q 444.76 170.00 432.38 168.34
  C 411.72 165.56 405.11 153.20 404.48 133.50
  Q 403.90 115.38 404.59 97.25
  Z
  M 424.44 80.44
  Q 420.37 85.42 419.93 92.75
  Q 419.11 106.47 419.35 120.22
  C 419.56 131.87 417.68 152.14 433.44 154.81
  C 439.41 155.83 451.18 156.02 456.53 152.74
  C 465.06 147.52 463.99 130.17 464.20 121.07
  Q 464.57 105.30 463.13 89.57
  C 462.39 81.41 457.92 77.57 449.89 76.42
  C 443.29 75.48 429.15 74.66 424.44 80.44
  Z"
/>
<path fill="#000000" d="
  M 500.59 97.25
  C 501.04 85.45 503.73 70.97 516.13 65.55
  C 526.71 60.94 541.90 61.54 553.08 63.35
  C 568.88 65.92 574.18 78.29 575.00 92.77
  Q 576.22 114.40 575.00 135.00
  C 574.09 150.39 568.59 163.88 552.00 167.50
  Q 540.68 169.97 528.37 168.33
  C 507.72 165.58 501.11 153.19 500.48 133.50
  Q 499.90 115.38 500.59 97.25
  Z
  M 527.00 76.78
  C 519.52 78.08 516.44 85.66 516.07 92.50
  Q 514.97 112.99 515.79 133.50
  C 516.57 152.86 525.68 157.13 543.77 155.12
  C 551.41 154.27 556.49 151.94 558.28 144.26
  C 561.04 132.39 560.40 118.59 560.14 106.45
  C 559.96 98.19 560.75 84.24 553.86 79.08
  C 547.88 74.60 533.97 75.56 527.00 76.78
  Z"
/>
<path fill="#000000" d="
  M 140.13 146.43
  Q 140.49 148.38 141.10 146.49
  L 167.71 63.85
  A 0.88 0.87 -80.7 0 1 168.54 63.25
  L 180.06 63.25
  Q 183.93 63.25 182.69 66.92
  L 149.00 166.75
  A 1.83 1.82 -80.7 0 1 147.27 168.00
  L 133.95 168.00
  A 1.44 1.43 -9.3 0 1 132.59 167.03
  L 97.98 66.41
  A 1.72 1.34 49.0 0 1 97.93 65.45
  Q 98.68 62.92 101.38 63.12
  C 105.03 63.40 108.69 63.23 112.19 63.30
  A 1.07 1.07 -8.7 0 1 113.17 64.02
  Q 125.90 101.93 137.93 138.15
  Q 139.44 142.71 140.13 146.43
  Z"
/>
<rect fill="#000000" x="-24.08" y="-6.62" transform="translate(213.90,123.86) rotate(-0.1)" width="48.16" height="13.24" rx="3.22"/>
<path fill="#000000" d="
  M 293.19 193.19
  C 299.85 183.50 324.34 184.77 335.85 186.30
  C 347.47 187.84 351.85 191.67 352.66 203.57
  Q 352.80 205.76 350.69 205.74
  L 336.19 205.58
  A 0.52 0.50 89.4 0 1 335.69 205.07
  C 335.59 200.18 332.28 200.35 328.14 200.05
  Q 319.41 199.43 310.70 200.50
  C 307.80 200.85 306.80 202.60 306.67 205.46
  Q 306.29 213.71 306.50 220.25
  C 306.61 223.67 308.72 224.61 311.89 225.00
  Q 323.45 226.43 332.19 224.94
  Q 336.38 224.22 336.33 219.31
  A 0.50 0.48 89.4 0 1 336.81 218.80
  L 352.93 218.80
  A 0.52 0.51 -90.0 0 1 353.44 219.32
  C 353.56 231.37 349.55 236.96 337.55 238.83
  Q 318.74 241.76 302.19 238.06
  C 292.17 235.83 289.74 227.51 289.33 217.76
  C 288.98 209.73 288.40 200.14 293.19 193.19
  Z"
/>
<path fill="#000000" d="
  M 511.92 206.41
  C 512.58 197.02 514.81 189.16 525.39 187.23
  Q 541.72 184.26 558.10 186.55
  C 567.72 187.90 573.06 190.78 575.06 200.44
  Q 577.30 211.23 575.25 224.25
  C 573.14 237.60 563.49 238.92 551.50 240.50
  Q 548.33 240.92 535.23 240.33
  C 533.00 240.23 530.85 239.25 528.44 239.08
  C 510.26 237.80 511.01 219.42 511.92 206.41
  Z
  M 529.54 203.20
  C 528.21 207.78 528.24 216.24 529.13 221.02
  C 529.78 224.43 531.90 225.09 535.00 225.25
  Q 544.67 225.75 552.26 225.19
  C 556.16 224.91 558.71 224.10 558.73 219.75
  Q 558.75 213.00 558.71 206.25
  C 558.67 200.33 554.96 200.58 550.00 200.33
  Q 541.24 199.88 532.48 200.75
  Q 530.18 200.98 529.54 203.20
  Z"
/>
<circle fill="#000000" cx="30.49" cy="193.49" r="7.40"/>
<circle fill="#000000" cx="50.49" cy="193.49" r="7.40"/>
<circle fill="#000000" cx="70.49" cy="193.49" r="7.40"/>
<circle fill="#000000" cx="90.49" cy="193.49" r="7.40"/>
<circle fill="#000000" cx="110.49" cy="193.49" r="7.40"/>
<circle fill="#000000" cx="130.49" cy="193.49" r="7.40"/>
<circle fill="#000000" cx="150.49" cy="193.49" r="7.40"/>
<circle fill="#000000" cx="170.49" cy="193.49" r="7.40"/>
<circle fill="#000000" cx="190.49" cy="193.49" r="7.40"/>
<circle fill="#000000" cx="210.49" cy="193.49" r="7.40"/>
<circle fill="#000000" cx="230.49" cy="193.49" r="7.40"/>
<circle fill="#000000" cx="250.49" cy="193.49" r="7.40"/>
<circle fill="#000000" cx="270.49" cy="193.49" r="7.40"/>
<path fill="#000000" d="
  M 433.50 217.75
  C 417.71 216.78 417.36 189.52 433.01 187.32
  Q 442.59 185.97 457.50 186.50
  C 468.69 186.90 478.27 188.14 478.51 202.11
  A 1.12 1.12 89.5 0 1 477.39 203.25
  Q 470.75 203.25 463.76 203.46
  Q 461.34 203.53 461.75 201.00
  Q 462.14 198.57 458.44 198.56
  L 441.35 198.51
  Q 438.89 198.50 437.79 200.75
  C 435.94 204.57 439.58 206.21 442.84 206.31
  Q 453.05 206.63 463.25 207.25
  C 476.13 208.04 481.65 212.20 480.60 225.79
  Q 479.96 234.06 472.34 237.65
  C 469.45 239.01 465.95 239.06 462.47 239.80
  C 455.20 241.33 447.08 240.55 438.75 239.50
  C 428.44 238.20 420.99 235.60 421.53 223.27
  A 0.54 0.54 -88.9 0 1 422.07 222.75
  C 426.88 222.75 431.96 223.06 436.66 222.64
  Q 438.77 222.45 438.31 224.94
  Q 437.94 226.99 442.00 227.25
  C 445.96 227.50 468.07 230.47 463.61 220.99
  Q 462.84 219.34 461.01 219.25
  Q 447.25 218.59 433.50 217.75
  Z"
/>
<path fill="#000000" d="
  M 399.44 229.55
  L 374.94 229.67
  A 0.78 0.72 -77.7 0 0 374.26 230.15
  L 370.90 238.23
  A 0.78 0.74 10.7 0 1 370.19 238.69
  L 353.85 238.75
  A 0.61 0.61 -78.5 0 1 353.29 237.90
  L 374.93 187.62
  A 1.15 1.14 -78.2 0 1 375.98 186.93
  L 398.59 187.00
  A 0.97 0.97 78.5 0 1 399.48 187.59
  L 421.22 238.18
  A 0.41 0.41 -11.4 0 1 420.84 238.75
  L 404.27 238.75
  A 1.11 1.08 78.7 0 1 403.26 238.05
  L 400.13 230.03
  A 0.76 0.73 78.8 0 0 399.44 229.55
  Z
  M 385.33 200.36
  Q 382.14 208.54 378.81 217.72
  A 0.38 0.37 -79.7 0 0 379.15 218.22
  L 394.97 218.43
  A 0.74 0.73 79.6 0 0 395.66 217.42
  Q 392.17 208.68 388.97 200.07
  C 387.97 197.39 386.20 198.13 385.33 200.36
  Z"
/>
<rect fill="#000000" x="487.23" y="187.27" width="16.78" height="51.22" rx="0.39"/>
<circle fill="#000000" cx="30.49" cy="213.49" r="7.40"/>
<circle fill="#000000" cx="50.49" cy="213.49" r="7.40"/>
<circle fill="#000000" cx="70.49" cy="213.49" r="7.40"/>
<circle fill="#000000" cx="90.49" cy="213.49" r="7.40"/>
<circle fill="#000000" cx="110.49" cy="213.49" r="7.40"/>
<circle fill="#000000" cx="130.49" cy="213.49" r="7.40"/>
<circle fill="#000000" cx="150.49" cy="213.49" r="7.40"/>
<circle fill="#000000" cx="170.49" cy="213.49" r="7.40"/>
<circle fill="#000000" cx="190.49" cy="213.49" r="7.40"/>
<circle fill="#000000" cx="210.49" cy="213.49" r="7.40"/>
<circle fill="#000000" cx="230.49" cy="213.49" r="7.40"/>
<circle fill="#000000" cx="250.49" cy="213.49" r="7.40"/>
<circle fill="#000000" cx="270.48" cy="213.49" r="7.39"/>
<circle fill="#000000" cx="30.49" cy="233.49" r="7.40"/>
<circle fill="#000000" cx="50.49" cy="233.49" r="7.40"/>
<circle fill="#000000" cx="70.49" cy="233.49" r="7.40"/>
<circle fill="#000000" cx="90.49" cy="233.49" r="7.40"/>
<circle fill="#000000" cx="110.49" cy="233.49" r="7.40"/>
<circle fill="#000000" cx="130.49" cy="233.49" r="7.40"/>
<circle fill="#000000" cx="150.49" cy="233.49" r="7.40"/>
<circle fill="#000000" cx="170.49" cy="233.49" r="7.40"/>
<circle fill="#000000" cx="190.49" cy="233.49" r="7.40"/>
<circle fill="#000000" cx="210.49" cy="233.49" r="7.40"/>
<circle fill="#000000" cx="230.49" cy="233.49" r="7.40"/>
<circle fill="#000000" cx="250.49" cy="233.49" r="7.40"/>
<circle fill="#000000" cx="270.48" cy="233.49" r="7.39"/>
</svg>
