<?xml version="1.0" encoding="UTF-8" standalone="no"?>
<!DOCTYPE svg PUBLIC "-//W3C//DTD SVG 1.1//EN" "http://www.w3.org/Graphics/SVG/1.1/DTD/svg11.dtd">
<svg xmlns="http://www.w3.org/2000/svg" version="1.1" viewBox="0 0 600 300">
<path fill="#000000" d="
  M 115.50 162.18
  C 86.95 162.17 62.65 143.75 55.81 115.94
  C 46.77 79.16 74.10 45.19 110.76 42.19
  Q 113.12 42.00 130.75 42.00
  Q 299.00 42.00 467.24 42.00
  Q 484.39 42.00 487.24 42.29
  C 543.02 47.89 562.71 119.10 516.44 151.44
  Q 501.05 162.19 481.00 162.20
  Q 298.25 162.25 115.50 162.18
  Z
  M 68.56 102.96
  C 69.10 125.80 86.26 144.87 109.02 147.33
  Q 115.16 147.99 126.00 148.00
  Q 249.16 148.12 372.31 147.84
  C 407.41 147.76 442.49 148.15 477.58 147.83
  Q 488.77 147.73 494.27 146.23
  C 539.16 133.97 538.64 69.52 493.70 57.96
  Q 488.01 56.50 475.68 56.50
  Q 301.72 56.50 127.76 56.50
  Q 110.95 56.50 107.78 56.94
  C 85.26 60.05 68.03 80.29 68.56 102.96
  Z"
/>
<path fill="#000000" d="
  M 506.57 83.14
  A 8.69 8.69 0.0 0 1 497.88 91.83
  A 8.69 8.69 0.0 0 1 489.19 83.14
  A 8.69 8.69 0.0 0 1 497.88 74.45
  A 8.69 8.69 0.0 0 1 506.57 83.14
  Z
  M 497.9670 90.4796
  A 7.35 7.06 89.4 0 0 504.9496 83.0561
  A 7.35 7.06 89.4 0 0 497.8130 75.7804
  A 7.35 7.06 89.4 0 0 490.8304 83.2039
  A 7.35 7.06 89.4 0 0 497.9670 90.4796
  Z"
/>
<path fill="#000000" d="
  M 119.06 91.25
  L 119.00 129.33
  A 0.67 0.67 -0.0 0 1 118.33 130.00
  L 103.54 130.00
  A 1.29 1.29 0.8 0 1 102.25 128.71
  L 102.25 75.37
  A 0.81 0.80 90.0 0 1 103.05 74.56
  L 119.19 74.51
  A 1.97 1.92 73.2 0 1 120.82 75.41
  L 144.21 112.03
  Q 145.17 113.54 145.08 111.76
  C 144.45 99.84 145.11 87.82 144.99 75.53
  A 0.78 0.75 89.3 0 1 145.73 74.74
  L 160.81 74.55
  A 0.97 0.93 89.7 0 1 161.75 75.52
  L 161.75 128.73
  A 1.27 1.27 0.0 0 1 160.48 130.00
  L 146.17 130.00
  A 2.27 2.25 73.3 0 1 144.28 128.97
  L 119.67 91.07
  Q 119.06 90.14 119.06 91.25
  Z"
/>
<rect fill="#000000" x="-8.37" y="-5.00" transform="translate(180.43,79.53) rotate(-0.5)" width="16.74" height="10.00" rx="0.62"/>
<path fill="#000000" d="
  M 423.17 93.70
  Q 422.88 86.27 422.99 78.40
  C 423.04 74.14 422.65 74.55 426.90 74.48
  Q 432.99 74.38 439.07 74.67
  A 0.53 0.52 -89.4 0 1 439.57 75.19
  L 439.94 129.20
  A 0.63 0.62 88.1 0 1 439.36 129.83
  Q 431.53 130.33 423.50 129.75
  Q 420.76 129.55 418.58 130.18
  C 392.62 137.63 381.26 99.10 406.72 91.97
  Q 414.06 89.92 422.13 94.35
  Q 423.22 94.94 423.17 93.70
  Z
  M 411.19 100.69
  Q 410.25 102.07 410.25 103.74
  L 410.25 119.87
  Q 410.25 122.54 412.68 123.67
  Q 417.40 125.87 421.20 123.41
  Q 423.00 122.25 423.00 120.11
  Q 423.00 112.00 422.99 104.00
  C 422.98 97.11 414.79 95.37 411.19 100.69
  Z"
/>
<path fill="#000000" d="
  M 496.23 85.07
  Q 495.76 87.66 494.95 85.98
  C 494.46 84.94 494.73 81.50 494.75 80.82
  Q 494.86 77.75 497.80 78.62
  C 503.93 80.42 498.78 83.68 500.10 85.44
  A 1.19 0.80 40.2 0 1 500.35 86.31
  C 499.85 88.35 498.26 84.49 496.81 84.52
  A 0.67 0.59 -84.6 0 0 496.23 85.07
  Z
  M 499.4586 81.5314
  A 1.13 1.13 0.0 0 0 498.3893 80.3438
  L 497.1710 80.2799
  A 1.13 1.13 0.0 0 0 495.9834 81.3492
  L 495.9614 81.7686
  A 1.13 1.13 0.0 0 0 497.0307 82.9562
  L 498.2490 83.0201
  A 1.13 1.13 0.0 0 0 499.4366 81.9508
  L 499.4586 81.5314
  Z"
/>
<path fill="#000000" d="
  M 256.69 92.56
  L 249.18 92.34
  A 0.58 0.55 -0.5 0 1 248.61 91.81
  L 248.48 88.52
  A 1.26 1.03 -1.7 0 1 249.72 87.45
  L 256.69 87.26
  A 0.57 0.52 89.5 0 0 257.20 86.69
  L 257.24 80.40
  A 0.85 0.82 -89.6 0 1 258.06 79.56
  L 273.52 79.50
  A 1.09 1.00 89.2 0 1 274.53 80.57
  L 274.64 86.81
  A 0.56 0.53 0.6 0 0 275.19 87.34
  L 282.44 87.56
  A 0.69 0.64 -5.6 0 1 283.07 88.04
  Q 283.55 90.02 283.12 92.01
  A 0.64 0.63 6.2 0 1 282.50 92.50
  L 275.02 92.50
  A 0.52 0.52 90.0 0 0 274.50 93.02
  L 274.50 128.76
  A 1.24 1.24 0.0 0 1 273.26 130.00
  L 258.70 130.00
  A 1.46 1.45 90.0 0 1 257.25 128.54
  L 257.19 93.06
  A 0.52 0.50 1.2 0 0 256.69 92.56
  Z"
/>
<path fill="#000000" d="
  M 215.27 95.74
  C 219.02 94.09 222.27 91.77 226.26 91.36
  Q 238.66 90.09 246.15 100.81
  Q 247.22 102.35 247.24 104.22
  L 247.51 128.58
  A 1.41 1.41 89.8 0 1 246.10 130.00
  L 231.24 130.00
  A 1.24 1.24 0.0 0 1 230.00 128.76
  C 230.00 121.13 229.68 113.29 230.12 105.69
  Q 230.31 102.35 227.94 100.81
  Q 220.48 96.00 215.04 103.34
  A 1.59 1.50 64.2 0 0 214.75 104.25
  L 214.75 128.73
  A 1.27 1.27 0.0 0 1 213.48 130.00
  L 198.93 130.00
  A 1.13 1.12 90.0 0 1 197.81 128.87
  L 197.82 93.31
  A 0.54 0.54 -2.3 0 1 198.32 92.77
  Q 206.19 92.16 214.07 92.66
  A 0.61 0.57 -0.4 0 1 214.64 93.19
  L 214.82 95.44
  A 0.34 0.32 77.1 0 0 215.27 95.74
  Z"
/>
<path fill="#000000" d="
  M 321.18 111.73
  C 314.40 111.61 307.65 111.97 300.90 111.57
  A 0.62 0.61 -0.8 0 0 300.25 112.23
  C 300.73 118.12 297.99 131.06 309.70 126.86
  Q 313.72 125.41 313.06 119.26
  Q 312.84 117.16 315.07 117.14
  L 329.15 117.05
  A 0.99 0.95 12.7 0 1 330.06 118.43
  C 322.35 133.98 301.62 136.81 289.06 126.19
  C 276.59 115.64 281.70 99.31 295.66 93.49
  C 309.95 87.54 329.12 93.79 331.29 110.78
  A 0.67 0.66 85.1 0 1 330.67 111.52
  Q 326.00 111.81 321.18 111.73
  Z
  M 313.20 104.24
  C 313.93 90.75 297.89 92.95 300.57 104.82
  A 0.61 0.61 83.1 0 0 301.18 105.30
  L 312.11 105.26
  A 1.10 1.08 1.4 0 0 313.20 104.24
  Z"
/>
<path fill="#000000" d="
  M 495.7800 111.8830
  A 24.63 20.59 0.1 0 1 471.1141 132.4300
  A 24.63 20.59 0.1 0 1 446.5200 111.7970
  A 24.63 20.59 0.1 0 1 471.1859 91.2500
  A 24.63 20.59 0.1 0 1 495.7800 111.8830
  Z
  M 477.46 100.86
  A 5.71 5.71 0.0 0 0 471.75 95.15
  L 470.23 95.15
  A 5.71 5.71 0.0 0 0 464.52 100.86
  L 464.52 121.82
  A 5.71 5.71 0.0 0 0 470.23 127.53
  L 471.75 127.53
  A 5.71 5.71 0.0 0 0 477.46 121.82
  L 477.46 100.86
  Z"
/>
<rect fill="#000000" x="172.01" y="92.51" width="16.76" height="37.48" rx="0.82"/>
<path fill="#000000" d="
  M 354.57 96.65
  Q 354.61 97.69 355.46 97.13
  Q 372.34 86.04 385.25 101.00
  C 388.86 105.18 387.24 124.52 387.08 130.56
  A 0.55 0.52 -88.9 0 1 386.56 131.09
  L 370.50 131.03
  A 0.54 0.50 90.0 0 1 370.00 130.49
  Q 369.98 119.50 370.00 108.50
  C 370.02 98.54 359.68 98.20 354.79 104.60
  A 1.56 1.36 66.8 0 0 354.50 105.50
  L 354.50 130.47
  A 0.77 0.77 -89.9 0 1 353.73 131.24
  L 338.32 131.20
  A 0.52 0.51 0.6 0 1 337.81 130.69
  L 337.75 94.31
  A 0.56 0.56 0.0 0 1 338.31 93.75
  L 353.94 93.80
  A 0.55 0.53 -0.5 0 1 354.48 94.31
  L 354.57 96.65
  Z"
/>
<path fill="#000000" d="
  M 43.35 177.51
  A 0.71 0.70 84.5 0 1 44.04 178.09
  Q 44.67 181.28 44.03 184.95
  A 0.61 0.60 5.1 0 1 43.43 185.44
  Q 31.92 185.54 20.40 185.51
  C 17.30 185.50 15.22 187.84 18.03 190.42
  A 3.19 3.11 65.6 0 0 20.15 191.25
  L 41.81 191.19
  A 0.60 0.50 -0.5 0 1 42.41 191.68
  L 42.52 197.19
  A 0.57 0.50 -0.0 0 1 41.95 197.69
  L 20.06 197.74
  A 2.96 2.85 23.3 0 0 18.17 198.45
  Q 15.17 201.10 18.40 203.43
  A 3.15 3.05 -26.5 0 0 20.20 204.00
  L 43.69 204.06
  A 0.52 0.50 -0.0 0 1 44.21 204.56
  L 44.21 210.44
  A 0.57 0.55 -2.9 0 1 43.70 210.99
  Q 40.05 211.40 36.39 211.27
  C 29.62 211.02 24.02 211.19 17.79 211.07
  C 13.22 210.98 10.55 210.02 7.93 206.51
  A 4.73 4.59 27.4 0 1 7.00 203.73
  L 7.06 178.72
  A 1.46 1.44 -89.8 0 1 8.51 177.26
  L 43.35 177.51
  Z"
/>
<path fill="#000000" d="
  M 179.53 211.03
  Q 166.93 211.39 155.12 211.12
  C 148.17 210.96 142.81 209.50 143.13 201.66
  C 143.46 193.80 143.23 185.92 143.31 178.20
  A 0.96 0.95 -89.7 0 1 144.26 177.25
  L 178.76 177.25
  A 1.24 1.24 0.0 0 1 180.00 178.49
  L 180.00 184.75
  A 0.75 0.75 0.0 0 1 179.25 185.50
  Q 167.61 185.46 156.19 185.55
  C 153.19 185.57 150.84 187.80 153.88 190.40
  A 3.57 3.56 65.1 0 0 156.19 191.25
  L 177.74 191.25
  A 0.60 0.49 -0.0 0 1 178.34 191.74
  L 178.39 196.80
  A 1.09 0.97 -0.3 0 1 177.31 197.77
  L 155.00 197.98
  A 1.37 1.31 -65.8 0 0 154.12 198.34
  C 150.29 201.91 154.06 204.00 157.44 204.00
  Q 168.25 204.00 179.34 204.00
  A 0.65 0.63 0.4 0 1 179.99 204.64
  L 179.95 210.61
  A 0.43 0.42 -0.7 0 1 179.53 211.03
  Z"
/>
<path fill="#000000" d="
  M 494.40 206.31
  A 4.91 4.80 48.8 0 0 494.25 208.99
  C 494.76 211.31 493.43 211.07 491.86 211.06
  Q 480.50 211.03 469.13 211.01
  C 462.22 210.99 457.07 209.26 457.40 201.50
  C 457.73 193.77 457.50 185.92 457.50 178.14
  A 0.88 0.87 -89.7 0 1 458.38 177.26
  L 493.31 177.43
  A 0.61 0.55 -2.6 0 1 493.91 177.93
  L 494.51 184.11
  A 1.36 1.27 -2.5 0 1 493.15 185.50
  Q 481.89 185.50 470.54 185.50
  C 467.93 185.50 465.52 187.26 467.59 189.90
  Q 468.63 191.24 470.26 191.23
  L 491.68 191.08
  A 0.73 0.67 -9.3 0 1 492.37 191.53
  Q 493.10 193.64 492.55 196.94
  A 0.98 0.97 -85.1 0 1 491.59 197.75
  L 469.82 197.81
  A 1.71 1.57 25.9 0 0 468.89 198.09
  C 464.45 201.09 467.79 204.00 471.48 204.00
  Q 482.49 204.00 493.50 204.00
  A 0.85 0.73 -10.8 0 1 494.24 204.43
  Q 494.71 205.40 494.40 206.31
  Z"
/>
<path fill="#000000" d="
  M 86.25 177.77
  C 91.92 177.77 96.30 182.67 96.20 188.25
  Q 96.00 198.87 96.00 210.15
  A 0.87 0.84 89.7 0 1 95.17 211.02
  L 86.16 211.07
  A 0.62 0.60 89.5 0 1 85.56 210.46
  Q 85.45 200.22 85.50 190.00
  C 85.51 187.02 84.91 185.50 81.58 185.50
  Q 74.04 185.50 66.50 185.50
  C 62.18 185.50 62.75 187.77 62.75 191.32
  Q 62.75 200.58 62.75 210.25
  A 0.93 0.93 0.3 0 1 61.81 211.18
  L 52.44 211.06
  A 0.51 0.49 0.0 0 1 51.93 210.57
  L 51.81 178.55
  A 0.81 0.79 -0.3 0 1 52.62 177.75
  Q 69.75 177.75 86.25 177.77
  Z"
/>
<path fill="#000000" d="
  M 101.63 185.36
  A 1.20 1.12 3.3 0 1 100.55 184.23
  L 100.63 178.44
  A 0.56 0.52 0.5 0 1 101.19 177.93
  L 137.50 177.76
  A 1.11 1.02 0.2 0 1 138.62 178.80
  L 138.53 184.94
  A 0.59 0.52 -0.1 0 1 137.95 185.45
  L 126.26 185.50
  A 1.28 1.23 0.2 0 0 124.98 186.72
  L 124.76 210.22
  A 1.04 0.94 -88.4 0 1 123.77 211.25
  L 115.04 210.90
  A 0.60 0.57 -88.5 0 1 114.50 210.30
  L 114.50 187.88
  Q 114.50 184.92 111.55 185.24
  Q 106.35 185.82 101.63 185.36
  Z"
/>
<path fill="#000000" d="
  M 223.88 179.03
  Q 232.55 186.80 226.33 196.65
  A 1.23 1.21 55.0 0 0 226.18 197.56
  Q 227.64 203.65 227.30 210.13
  A 0.69 0.68 -5.6 0 1 226.77 210.77
  Q 222.56 211.72 220.14 211.29
  Q 217.61 210.84 217.87 208.28
  C 218.57 201.41 216.00 202.00 210.35 202.00
  Q 206.30 202.00 202.25 201.99
  C 197.37 201.98 198.50 207.00 198.50 210.18
  A 0.77 0.73 89.6 0 1 197.78 210.95
  L 188.53 211.00
  A 1.08 1.02 89.7 0 1 187.50 209.92
  L 187.50 178.52
  A 0.77 0.77 0.0 0 1 188.27 177.75
  L 220.73 177.81
  Q 222.53 177.81 223.88 179.03
  Z
  M 217.9419 188.3591
  A 3.02 3.02 0.0 0 0 214.9061 185.3550
  L 201.5063 185.4251
  A 3.02 3.02 0.0 0 0 198.5021 188.4609
  L 198.5181 191.5209
  A 3.02 3.02 0.0 0 0 201.5539 194.5250
  L 214.9537 194.4549
  A 3.02 3.02 0.0 0 0 217.9579 191.4191
  L 217.9419 188.3591
  Z"
/>
<path fill="#000000" d="
  M 258.01 186.31
  Q 256.96 196.69 257.91 209.10
  A 1.77 1.68 87.5 0 1 256.25 211.01
  L 248.23 211.08
  A 1.06 0.99 89.4 0 1 247.23 210.03
  L 247.01 186.56
  A 1.47 1.32 -0.6 0 0 245.52 185.25
  L 234.19 185.35
  A 0.55 0.53 -0.5 0 1 233.63 184.82
  L 233.63 178.43
  A 0.57 0.51 0.0 0 1 234.20 177.92
  L 270.82 177.93
  A 0.57 0.56 86.6 0 1 271.38 178.43
  C 271.67 180.83 272.91 186.43 268.50 185.50
  Q 266.09 184.99 258.55 185.76
  A 0.62 0.60 -89.9 0 0 258.01 186.31
  Z"
/>
<path fill="#000000" d="
  M 305.95 202.06
  L 287.86 202.00
  A 0.89 0.79 -0.6 0 0 286.97 202.81
  L 287.11 208.86
  Q 287.16 211.16 285.29 211.11
  L 276.86 210.90
  A 0.96 0.88 -89.4 0 1 276.00 209.94
  Q 276.00 201.21 276.00 192.28
  C 276.00 184.43 277.77 177.86 286.67 177.79
  Q 296.96 177.71 307.25 177.75
  C 313.74 177.78 317.50 183.07 317.50 189.00
  Q 317.50 199.32 317.50 210.14
  A 0.90 0.85 -0.7 0 1 316.62 210.99
  L 307.47 211.16
  A 0.95 0.93 -0.6 0 1 306.50 210.23
  L 306.45 202.56
  A 0.50 0.50 0.0 0 0 305.95 202.06
  Z
  M 287.25 187.62
  L 287.13 193.58
  A 1.02 0.90 0.5 0 0 288.15 194.50
  L 305.64 194.50
  A 0.81 0.81 -88.5 0 0 306.45 193.73
  C 306.62 190.49 307.65 185.53 302.75 185.52
  Q 296.88 185.50 290.03 185.50
  Q 287.30 185.50 287.25 187.62
  Z"
/>
<rect fill="#000000" x="325.00" y="177.74" width="10.50" height="33.42" rx="0.81"/>
<path fill="#000000" d="
  M 341.66 210.24
  L 341.75 178.63
  A 0.88 0.87 -90.0 0 1 342.62 177.75
  Q 358.37 177.75 374.50 177.75
  C 382.77 177.75 386.00 182.12 385.99 189.87
  Q 385.97 199.91 386.06 209.95
  A 1.31 1.26 0.4 0 1 384.71 211.23
  L 376.46 211.00
  A 0.98 0.95 0.6 0 1 375.50 210.05
  Q 375.50 199.86 375.50 190.54
  C 375.50 187.19 374.87 185.50 371.25 185.50
  Q 363.13 185.50 354.98 185.50
  Q 352.77 185.50 352.74 187.66
  L 352.44 210.43
  A 0.55 0.51 -89.4 0 1 351.93 210.97
  L 342.40 211.02
  A 0.78 0.73 89.6 0 1 341.66 210.24
  Z"
/>
<path fill="#000000" d="
  M 449.31 210.98
  L 440.30 211.21
  A 0.83 0.78 89.3 0 1 439.50 210.38
  L 439.50 189.25
  Q 439.50 185.50 436.75 185.50
  C 434.15 185.50 428.33 184.52 427.59 187.59
  Q 427.50 187.96 427.50 191.43
  Q 427.50 200.29 427.50 209.77
  A 1.49 1.48 -89.4 0 1 425.99 211.26
  L 417.18 211.08
  A 0.54 0.52 89.4 0 1 416.67 210.56
  Q 416.19 194.84 416.50 190.00
  C 416.87 184.21 411.65 185.50 408.00 185.50
  C 403.95 185.51 404.50 188.21 404.51 191.58
  Q 404.54 200.95 404.45 209.70
  A 1.79 1.64 1.0 0 1 402.62 211.32
  L 394.49 211.15
  A 1.01 0.90 0.6 0 1 393.50 210.25
  L 393.56 178.45
  A 0.71 0.70 -0.0 0 1 394.27 177.75
  Q 417.12 177.75 439.00 177.75
  C 446.62 177.75 449.67 181.97 449.87 189.19
  Q 450.15 199.36 449.98 210.25
  A 0.74 0.69 89.6 0 1 449.31 210.98
  Z"
/>
<path fill="#000000" d="
  M 500.43 210.31
  C 500.31 199.76 500.64 189.26 500.33 178.93
  A 1.13 1.13 89.0 0 1 501.45 177.77
  Q 518.06 177.59 533.43 177.92
  C 540.20 178.06 544.94 181.26 544.75 188.50
  Q 544.47 199.00 544.76 209.87
  A 1.34 1.32 90.0 0 1 543.40 211.25
  L 535.11 211.02
  A 0.90 0.89 -89.0 0 1 534.25 210.12
  Q 534.25 200.29 534.25 190.97
  C 534.25 187.80 533.75 185.28 530.09 185.45
  C 524.80 185.69 519.50 185.50 514.47 185.50
  Q 511.26 185.50 511.25 188.73
  L 511.19 209.93
  A 0.79 0.76 78.7 0 1 510.73 210.65
  C 508.50 211.62 503.08 211.18 500.94 210.89
  A 0.60 0.59 -86.6 0 1 500.43 210.31
  Z"
/>
<path fill="#000000" d="
  M 563.11 185.55
  L 551.42 185.50
  A 0.67 0.66 -0.0 0 1 550.75 184.84
  L 550.75 178.41
  A 0.66 0.66 -89.5 0 1 551.41 177.75
  L 588.23 177.75
  A 0.70 0.68 -0.4 0 1 588.93 178.42
  L 589.00 184.51
  A 1.00 0.98 -0.3 0 1 588.00 185.50
  L 576.73 185.50
  A 1.74 1.73 -89.8 0 0 575.00 187.23
  L 574.94 210.28
  A 0.72 0.67 -89.6 0 1 574.26 211.00
  L 565.39 210.91
  A 0.96 0.90 -89.7 0 1 564.50 209.95
  L 564.50 186.97
  A 1.42 1.39 90.0 0 0 563.11 185.55
  Z"
/>
<path fill="#000000" d="
  M 340.95 256.07
  C 334.63 253.48 335.51 249.44 335.47 242.51
  Q 335.41 233.09 335.67 223.68
  A 0.52 0.52 -88.9 0 1 336.19 223.18
  L 371.32 222.94
  A 0.61 0.61 83.1 0 1 371.93 223.42
  Q 372.67 226.82 372.09 230.26
  A 0.61 0.60 3.9 0 1 371.50 230.76
  L 347.00 231.24
  A 1.65 1.38 21.8 0 0 346.09 231.54
  Q 343.24 233.72 346.11 236.02
  A 3.41 3.35 -25.0 0 0 348.20 236.76
  L 369.93 236.81
  A 0.61 0.60 -5.1 0 1 370.53 237.30
  Q 371.00 240.07 370.42 242.82
  A 0.63 0.63 5.5 0 1 369.80 243.33
  L 347.75 243.48
  Q 345.89 243.49 345.17 245.13
  C 343.90 248.02 346.16 249.50 348.86 249.50
  Q 360.18 249.50 371.57 249.50
  A 0.67 0.66 -0.0 0 1 372.24 250.16
  L 372.21 256.20
  A 0.51 0.50 0.6 0 1 371.70 256.69
  L 344.39 256.75
  Q 342.63 256.75 340.95 256.07
  Z"
/>
<path fill="#000000" d="
  M 317.54 231.81
  L 317.28 255.82
  A 0.94 0.91 -89.7 0 1 316.37 256.75
  L 307.37 256.75
  A 0.87 0.87 0.0 0 1 306.50 255.88
  L 306.50 232.09
  A 1.09 1.09 89.8 0 0 305.41 231.00
  L 293.74 231.00
  A 0.99 0.99 0.0 0 1 292.75 230.01
  L 292.75 224.10
  A 0.80 0.79 -0.0 0 1 293.55 223.31
  L 329.77 223.26
  A 1.23 1.21 -0.0 0 1 331.00 224.47
  L 331.00 229.93
  A 1.08 1.02 -0.9 0 1 329.95 230.95
  L 318.05 231.27
  A 0.54 0.53 88.9 0 0 317.54 231.81
  Z"
/>
<path fill="#000000" d="
  M 390.80 234.87
  Q 390.71 245.31 390.75 255.83
  A 0.92 0.92 -0.1 0 1 389.83 256.75
  L 380.43 256.75
  A 0.67 0.66 0.4 0 1 379.76 256.08
  L 379.93 223.93
  A 0.53 0.50 -0.6 0 1 380.45 223.43
  Q 402.77 222.97 425.09 223.42
  C 432.92 223.59 436.25 227.61 436.25 235.15
  Q 436.25 245.66 436.25 255.88
  A 0.87 0.87 0.0 0 1 435.38 256.75
  L 426.26 256.75
  A 0.52 0.51 -90.0 0 1 425.75 256.23
  Q 425.79 245.89 425.71 235.94
  C 425.67 231.75 424.05 230.49 419.98 230.90
  Q 418.54 231.04 417.10 230.97
  Q 413.79 230.81 413.71 234.75
  Q 413.50 245.12 413.50 256.19
  A 0.56 0.56 0.0 0 1 412.94 256.75
  L 403.53 256.75
  A 0.78 0.78 89.9 0 1 402.75 255.97
  Q 402.75 245.63 402.75 236.31
  C 402.75 233.35 402.14 230.61 398.61 230.96
  Q 396.76 231.15 394.91 231.03
  C 392.02 230.84 390.82 231.94 390.80 234.87
  Z"
/>
<path fill="#000000" d="
  M 188.25 237.00
  C 202.95 235.94 204.19 256.85 188.74 256.95
  Q 175.17 257.04 160.78 257.00
  A 0.79 0.79 0.4 0 1 160.00 256.21
  L 160.00 250.22
  A 0.72 0.72 0.0 0 1 160.72 249.50
  L 187.18 249.50
  Q 189.44 249.50 190.42 247.46
  C 191.81 244.57 189.09 243.32 186.62 243.29
  C 179.02 243.22 168.35 245.02 162.43 239.85
  C 159.00 236.85 159.01 230.14 162.34 227.07
  C 164.99 224.62 167.67 223.50 171.51 223.49
  Q 185.22 223.46 198.93 223.56
  A 0.62 0.61 -5.7 0 1 199.54 224.05
  Q 200.20 227.32 199.43 230.57
  A 0.66 0.65 5.1 0 1 198.81 231.08
  Q 178.62 231.61 174.75 231.25
  C 168.48 230.67 166.96 236.54 173.05 236.81
  Q 184.06 237.30 188.25 237.00
  Z"
/>
<path fill="#000000" d="
  M 216.38 238.44
  Q 222.78 238.55 229.50 238.50
  C 235.45 238.46 233.50 228.63 233.50 224.60
  A 1.04 0.96 -89.5 0 1 234.48 223.56
  L 243.19 223.75
  A 0.63 0.55 87.6 0 1 243.73 224.32
  C 244.57 233.93 246.54 247.92 231.07 245.84
  Q 229.18 245.59 228.88 247.48
  Q 228.38 250.67 228.99 255.48
  A 1.35 1.35 86.4 0 1 227.65 257.00
  C 225.13 257.00 222.60 256.90 220.14 257.08
  Q 217.34 257.28 218.00 254.00
  Q 218.44 251.80 217.76 246.81
  A 0.67 0.67 0.0 0 0 217.19 246.24
  C 213.96 245.83 210.52 246.58 207.81 245.06
  C 200.87 241.17 203.00 231.20 203.00 224.26
  A 0.76 0.76 0.0 0 1 203.76 223.50
  L 212.63 223.50
  A 0.87 0.87 0.0 0 1 213.50 224.37
  L 213.50 235.52
  Q 213.50 238.40 216.38 238.44
  Z"
/>
<path fill="#000000" d="
  M 249.12 249.44
  Q 261.78 249.55 274.25 249.50
  Q 278.10 249.49 279.33 246.47
  A 1.17 1.14 -47.1 0 0 279.31 245.55
  Q 278.20 243.25 275.25 243.25
  C 269.88 243.25 259.71 244.37 254.98 242.31
  C 242.42 236.85 248.81 223.50 260.50 223.50
  Q 273.31 223.50 286.65 223.50
  A 1.45 1.26 1.3 0 1 288.11 224.83
  L 287.84 230.46
  A 0.67 0.53 0.8 0 1 287.19 230.96
  L 260.57 231.22
  A 2.70 2.54 17.5 0 0 258.50 232.22
  C 256.18 235.22 259.27 236.72 261.87 236.81
  C 267.98 237.04 282.11 235.18 285.94 240.56
  Q 291.88 248.93 283.81 255.06
  Q 281.43 256.87 278.75 256.89
  Q 264.50 257.00 249.37 257.00
  A 0.97 0.91 89.4 0 1 248.46 256.05
  L 248.34 250.31
  A 0.85 0.77 89.6 0 1 249.12 249.44
  Z"
/>
</svg>
