<?xml version="1.0" encoding="UTF-8" standalone="no"?>
<!DOCTYPE svg PUBLIC "-//W3C//DTD SVG 1.1//EN" "http://www.w3.org/Graphics/SVG/1.1/DTD/svg11.dtd">
<svg xmlns="http://www.w3.org/2000/svg" version="1.1" viewBox="0 0 600 300">
<path fill="#000000" d="
  M 299.31 0.00
  L 300.06 0.00
  L 330.87 12.05
  A 1.40 1.37 -79.6 0 1 331.75 13.35
  L 331.69 61.30
  Q 331.69 62.15 332.24 61.51
  Q 339.33 53.34 346.56 45.31
  C 348.51 43.16 349.17 43.14 351.49 42.22
  Q 364.61 37.03 377.81 32.06
  C 381.42 30.71 382.08 31.43 386.01 32.93
  Q 399.56 38.12 413.27 43.61
  A 0.76 0.75 10.9 0 1 413.75 44.31
  Q 413.75 107.50 413.61 170.50
  Q 413.61 174.39 413.98 178.04
  A 0.90 0.88 -14.7 0 1 413.43 178.95
  L 380.39 192.89
  A 1.31 1.25 -44.8 0 1 379.44 192.91
  Q 363.20 186.71 347.25 180.50
  C 344.07 179.26 342.86 179.11 340.77 176.21
  Q 337.97 172.34 335.41 168.27
  Q 334.25 166.43 334.25 168.60
  L 334.25 211.05
  A 2.00 2.00 -11.2 0 1 333.01 212.90
  Q 317.85 219.06 303.10 225.47
  C 300.62 226.55 299.58 227.58 296.69 226.31
  Q 281.32 219.59 265.71 213.14
  A 1.54 1.53 87.0 0 1 264.94 212.44
  L 248.19 180.16
  A 0.55 0.55 -26.1 0 0 247.48 179.92
  L 218.84 192.70
  A 2.26 2.12 43.1 0 1 217.09 192.70
  L 185.63 179.48
  A 1.04 1.03 11.7 0 1 185.00 178.53
  L 185.00 45.18
  A 1.54 1.53 79.4 0 1 185.97 43.75
  L 217.44 31.53
  Q 219.05 30.91 220.69 31.55
  L 249.19 42.60
  A 1.62 1.60 -64.6 0 0 251.18 41.88
  L 267.31 13.00
  A 1.48 1.44 -85.8 0 1 268.02 12.37
  L 299.31 0.00
  Z
  M 271.83 13.26
  L 298.74 23.81
  A 2.90 2.78 -44.1 0 0 300.81 23.80
  L 326.75 13.91
  Q 328.82 13.11 326.76 12.31
  L 300.50 2.05
  A 2.32 2.14 -42.7 0 0 298.89 2.05
  L 271.85 12.46
  Q 270.80 12.86 271.83 13.26
  Z
  M 268.13 15.22
  L 252.54 42.98
  A 2.08 2.05 46.9 0 0 252.49 44.92
  Q 259.55 59.12 265.75 72.00
  Q 266.79 74.16 268.43 72.89
  Q 268.85 72.57 269.30 72.48
  Q 272.83 71.80 274.69 68.44
  Q 286.06 47.86 297.70 27.42
  A 1.29 1.29 -64.6 0 0 297.05 25.59
  L 269.45 14.75
  A 1.07 1.06 25.2 0 0 268.13 15.22
  Z
  M 408.53 43.63
  L 380.96 32.92
  A 1.30 1.17 -43.2 0 0 380.05 32.94
  L 352.50 43.60
  Q 350.98 44.18 352.51 44.77
  L 380.03 55.31
  A 1.35 1.34 45.3 0 0 380.97 55.32
  L 408.51 44.84
  Q 410.10 44.23 408.53 43.63
  Z
  M 246.81 43.44
  L 219.79 33.12
  A 2.53 2.47 -44.7 0 0 218.02 33.13
  L 191.17 43.44
  Q 189.35 44.14 191.17 44.84
  L 218.38 55.29
  A 2.12 2.09 -44.5 0 0 219.89 55.29
  L 246.81 44.98
  Q 248.82 44.21 246.81 43.44
  Z
  M 348.33 45.99
  C 341.02 54.14 333.89 62.05 327.06 70.37
  A 0.41 0.38 -58.1 0 0 327.18 70.98
  L 331.99 73.09
  Q 334.23 74.08 335.17 75.42
  L 378.70 137.83
  Q 379.93 139.60 379.93 137.44
  L 379.76 58.49
  A 1.53 1.51 -79.8 0 0 378.78 57.06
  L 349.35 45.74
  A 0.92 0.91 31.0 0 0 348.33 45.99
  Z
  M 218.80 120.73
  Q 219.95 120.69 220.75 122.25
  Q 243.44 166.26 265.59 210.00
  Q 266.31 211.41 267.75 212.02
  L 298.17 224.84
  A 0.60 0.60 -78.7 0 0 299.00 224.28
  Q 299.00 158.76 299.00 93.02
  C 299.00 88.30 298.76 88.55 294.25 86.84
  Q 281.32 81.93 267.73 76.70
  A 0.54 0.54 10.5 0 0 267.00 77.20
  Q 266.95 111.09 267.06 143.94
  Q 267.07 146.19 265.28 145.62
  A 1.37 1.07 79.7 0 1 264.58 145.00
  Q 241.87 102.40 219.25 59.75
  C 217.57 56.58 216.53 56.98 213.67 55.82
  Q 200.82 50.63 187.78 45.98
  A 0.35 0.35 -80.1 0 0 187.31 46.31
  L 187.31 177.69
  A 0.75 0.74 11.2 0 0 187.78 178.38
  L 216.92 190.74
  A 0.79 0.78 10.7 0 0 218.01 190.00
  Q 217.30 155.41 218.30 121.32
  A 0.60 0.51 -89.9 0 1 218.80 120.73
  Z
  M 329.70 74.42
  L 300.88 63.50
  A 2.44 2.41 -44.6 0 0 299.15 63.50
  L 270.14 74.38
  Q 268.69 74.93 270.14 75.48
  L 299.06 86.37
  A 2.07 2.02 44.7 0 0 300.51 86.38
  L 329.71 75.32
  Q 330.89 74.87 329.70 74.42
  Z
  M 335.06 134.68
  Q 334.68 134.19 334.68 134.81
  L 334.75 162.21
  Q 334.76 164.20 335.77 165.65
  L 343.51 176.79
  A 1.76 1.42 -2.0 0 0 344.28 177.37
  L 375.98 189.71
  Q 377.93 190.46 376.65 188.80
  L 335.06 134.68
  Z"
/>
<path fill="#000000" d="
  M 595.00 298.43
  A 0.57 0.57 0.0 0 1 594.43 299.00
  L 392.57 299.00
  A 0.57 0.57 0.0 0 1 392.00 298.43
  L 392.00 242.57
  A 0.57 0.57 0.0 0 1 392.57 242.00
  L 594.43 242.00
  A 0.57 0.57 0.0 0 1 595.00 242.57
  L 595.00 298.43
  Z
  M 467.69 284.30
  L 467.90 289.80
  A 0.56 0.53 88.9 0 0 468.43 290.34
  L 478.18 290.47
  A 1.40 1.13 -89.8 0 0 479.33 289.06
  L 479.33 284.71
  A 1.30 1.05 -0.8 0 1 480.60 283.65
  L 484.71 283.56
  A 0.63 0.51 89.5 0 0 485.21 282.93
  L 485.21 275.05
  A 0.57 0.56 2.8 0 0 484.70 274.49
  L 479.93 274.08
  A 0.55 0.51 2.4 0 1 479.42 273.57
  L 479.43 250.31
  A 0.64 0.63 90.0 0 0 478.80 249.67
  L 468.11 249.75
  A 1.21 1.18 21.7 0 0 467.25 250.11
  L 444.40 273.47
  A 2.54 2.22 70.6 0 0 443.74 275.12
  L 443.58 283.01
  A 0.72 0.68 -89.2 0 0 444.26 283.75
  L 467.19 283.81
  A 0.51 0.50 88.8 0 1 467.69 284.30
  Z
  M 414.33 267.45
  Q 414.47 264.39 415.52 261.51
  C 417.37 256.43 424.09 255.31 425.68 261.05
  A 0.75 0.74 -11.0 0 0 426.48 261.59
  L 438.30 260.27
  A 0.56 0.55 -14.0 0 0 438.76 259.52
  C 435.54 251.48 428.98 249.66 420.71 249.64
  C 405.70 249.61 398.87 260.84 401.00 275.00
  Q 403.40 290.95 419.75 291.37
  C 425.09 291.50 431.65 290.83 435.91 286.80
  C 441.06 281.92 441.38 273.41 436.14 268.45
  C 430.22 262.86 421.33 262.90 414.72 267.64
  Q 414.31 267.94 414.33 267.45
  Z
  M 534.30 262.49
  C 531.99 254.63 523.66 250.54 516.00 250.52
  Q 504.25 250.50 492.42 250.50
  A 0.68 0.67 90.0 0 0 491.75 251.18
  L 491.68 289.92
  A 0.58 0.58 0.0 0 0 492.26 290.50
  Q 503.62 290.50 514.74 290.25
  C 531.51 289.87 539.00 278.49 534.30 262.49
  Z
  M 542.94 251.01
  L 542.92 289.81
  A 0.52 0.51 0.6 0 0 543.43 290.32
  Q 554.76 290.62 566.09 290.51
  C 578.09 290.40 586.42 284.09 586.50 271.25
  Q 586.59 256.30 575.09 252.01
  C 567.31 249.11 552.90 250.50 543.47 250.50
  A 0.53 0.51 0.0 0 0 542.94 251.01
  Z"
/>
<path fill="#000000" d="
  M 342.44 290.56
  C 333.13 282.73 332.80 265.12 338.49 255.43
  Q 345.12 244.14 360.51 245.13
  Q 376.70 246.18 380.94 261.31
  C 384.20 272.99 381.41 289.44 368.56 294.31
  C 360.04 297.55 349.72 296.68 342.44 290.56
  Z
  M 354.19 278.56
  C 355.16 284.22 361.28 286.32 362.50 280.00
  C 363.04 277.22 365.77 253.76 356.98 257.37
  C 352.20 259.33 353.49 274.53 354.19 278.56
  Z"
/>
<path fill="#000000" d="
  M 38.93 272.93
  L 38.76 246.97
  A 0.71 0.69 1.9 0 1 39.52 246.27
  Q 45.97 246.81 52.71 246.31
  A 0.69 0.67 88.1 0 1 53.43 247.00
  L 53.43 293.29
  A 1.45 1.41 -89.8 0 1 52.01 294.74
  L 32.32 294.69
  A 0.75 0.74 -11.2 0 1 31.63 294.23
  Q 26.58 281.45 22.58 268.29
  A 1.18 0.94 88.9 0 0 22.00 267.59
  C 20.77 267.06 21.50 268.57 21.50 269.17
  Q 21.50 281.35 21.50 294.11
  A 0.63 0.62 -90.0 0 1 20.88 294.74
  L 7.81 294.70
  A 0.51 0.50 90.0 0 1 7.31 294.19
  L 7.19 247.02
  A 0.52 0.52 -90.0 0 1 7.71 246.50
  L 27.84 246.42
  A 1.32 1.31 -9.7 0 1 29.08 247.29
  C 30.08 250.10 37.90 273.42 38.45 273.48
  A 0.54 0.44 -87.7 0 0 38.93 272.93
  Z"
/>
<path fill="#000000" d="
  M 103.55 269.36
  L 103.50 294.01
  A 0.94 0.91 0.3 0 1 102.55 294.92
  L 90.02 294.77
  A 1.03 0.99 0.3 0 1 89.00 293.78
  L 89.00 247.00
  A 0.50 0.50 0.0 0 1 89.50 246.50
  L 109.79 246.50
  A 1.27 1.27 -10.3 0 1 110.98 247.32
  Q 115.88 260.66 119.75 272.75
  Q 119.97 273.43 120.45 273.50
  A 0.55 0.42 -86.9 0 0 120.93 272.94
  L 120.76 247.26
  A 0.81 0.78 -0.4 0 1 121.56 246.48
  L 134.68 246.31
  A 0.62 0.61 -0.5 0 1 135.31 246.92
  L 135.25 293.97
  A 0.78 0.77 90.0 0 1 134.48 294.75
  L 114.44 294.75
  A 1.17 1.17 -9.4 0 1 113.33 293.96
  L 104.72 269.17
  Q 103.55 265.81 103.55 269.36
  Z"
/>
<path fill="#000000" d="
  M 205.82 281.98
  Q 214.15 282.65 222.51 282.00
  A 1.15 1.15 87.7 0 1 223.75 283.15
  L 223.75 293.73
  A 1.25 1.22 -0.0 0 1 222.50 294.95
  L 188.30 294.93
  A 0.99 0.98 0.0 0 1 187.31 293.95
  L 187.31 247.10
  A 0.60 0.59 90.0 0 1 187.90 246.50
  L 222.39 246.50
  A 0.89 0.87 89.7 0 1 223.26 247.38
  L 223.33 258.47
  A 0.78 0.77 89.6 0 1 222.57 259.25
  C 217.81 259.34 212.74 259.52 207.94 259.14
  Q 204.16 258.83 205.06 263.56
  A 1.16 1.16 -5.4 0 0 206.20 264.50
  L 220.74 264.50
  A 0.98 0.94 0.3 0 1 221.72 265.45
  L 221.59 276.07
  A 0.54 0.51 -0.6 0 1 221.06 276.58
  L 206.30 276.82
  A 0.88 0.80 13.1 0 0 205.55 277.24
  Q 204.44 279.22 205.15 281.47
  A 0.77 0.71 -5.3 0 0 205.82 281.98
  Z"
/>
<path fill="#000000" d="
  M 244.57 268.30
  L 244.75 293.89
  A 0.90 0.86 -0.7 0 1 243.86 294.76
  L 230.80 294.94
  A 0.54 0.52 -0.5 0 1 230.25 294.42
  L 230.06 247.30
  A 0.74 0.74 0.0 0 1 230.80 246.56
  L 251.43 246.55
  A 0.72 0.71 80.1 0 1 252.10 247.03
  Q 256.75 260.08 261.15 273.21
  C 261.28 273.60 261.44 274.02 261.93 273.70
  A 0.79 0.48 78.2 0 0 262.16 273.05
  Q 261.35 260.13 261.92 247.18
  A 0.54 0.53 -89.4 0 1 262.44 246.66
  L 275.70 246.52
  A 0.81 0.79 89.7 0 1 276.50 247.33
  L 276.50 294.09
  A 0.66 0.66 0.0 0 1 275.84 294.75
  L 255.59 294.75
  A 1.16 1.15 -9.6 0 1 254.50 293.98
  C 253.54 291.31 245.71 267.96 245.05 267.81
  A 0.48 0.39 -84.8 0 0 244.57 268.30
  Z"
/>
<rect fill="#000000" x="-9.04" y="-24.13" transform="translate(71.28,270.64) rotate(-0.1)" width="18.08" height="48.26" rx="0.50"/>
<path fill="#000000" d="
  M 140.35 248.31
  C 140.05 245.68 142.90 246.50 144.46 246.50
  Q 162.26 246.50 181.10 246.50
  A 0.82 0.76 89.6 0 1 181.86 247.31
  L 182.04 258.18
  A 1.25 1.15 89.3 0 1 180.90 259.45
  L 170.94 259.49
  A 0.70 0.68 -0.4 0 0 170.25 260.17
  L 170.25 293.89
  A 0.90 0.87 -0.3 0 1 169.36 294.76
  L 153.14 294.93
  A 0.90 0.86 -0.3 0 1 152.23 294.07
  L 152.19 260.55
  A 1.05 1.04 -89.7 0 0 151.16 259.50
  L 141.31 259.45
  A 0.57 0.56 86.6 0 1 140.75 258.95
  C 140.29 255.36 140.75 251.88 140.35 248.31
  Z"
/>
<path fill="#000000" d="
  M 285.30 294.81
  A 0.80 0.80 0.0 0 1 284.50 294.01
  L 284.50 247.06
  A 0.56 0.56 0.0 0 1 285.06 246.50
  Q 297.00 246.50 308.75 246.71
  C 325.76 247.01 331.61 260.44 329.60 275.23
  C 327.72 289.04 318.92 294.36 306.10 294.64
  Q 295.75 294.87 285.30 294.81
  Z
  M 308.82 258.95
  Q 306.12 256.77 302.73 257.40
  A 0.61 0.59 84.9 0 0 302.25 258.00
  L 302.25 283.15
  A 0.60 0.60 1.5 0 0 302.82 283.75
  Q 309.46 284.16 310.48 278.80
  Q 312.09 270.28 310.50 261.75
  Q 310.18 260.04 308.82 258.95
  Z"
/>
<path fill="#000000" d="
  M 507.02 281.06
  A 0.53 0.53 0.6 0 1 506.50 280.53
  L 506.50 260.65
  A 0.58 0.57 -3.4 0 1 507.01 260.08
  C 518.62 258.80 523.01 264.68 520.31 275.56
  C 518.73 281.94 512.02 281.13 507.02 281.06
  Z"
/>
<path fill="#000000" d="
  M 558.45 281.07
  A 0.73 0.73 1.2 0 1 557.75 280.34
  L 557.75 260.69
  A 0.58 0.57 -2.8 0 1 558.27 260.12
  Q 562.90 259.68 566.54 260.67
  C 573.17 262.48 573.56 275.35 569.68 278.96
  C 567.08 281.39 561.93 281.24 558.45 281.07
  Z"
/>
<path fill="#000000" d="
  M 467.76 262.43
  L 467.74 273.93
  A 0.33 0.33 89.7 0 1 467.41 274.26
  L 455.91 274.23
  A 0.33 0.33 14.9 0 1 455.68 273.67
  L 467.20 262.19
  A 0.33 0.33 65.9 0 1 467.76 262.43
  Z"
/>
<ellipse fill="#000000" cx="0.00" cy="0.00" transform="translate(421.10,277.75) rotate(9.3)" rx="6.48" ry="6.01"/>
</svg>
