<?xml version="1.0" encoding="UTF-8" standalone="no"?>
<!DOCTYPE svg PUBLIC "-//W3C//DTD SVG 1.1//EN" "http://www.w3.org/Graphics/SVG/1.1/DTD/svg11.dtd">
<svg xmlns="http://www.w3.org/2000/svg" version="1.1" viewBox="0 0 600 300">
<g stroke-width="2.00" fill="none" stroke-linecap="butt">
<path stroke="#5a0000" vector-effect="non-scaling-stroke" d="
  M 27.25 185.54
  Q 27.00 185.49 26.96 185.75"
/>
<path stroke="#5a0000" vector-effect="non-scaling-stroke" d="
  M 316.04 183.75
  L 317.19 187.78
  A 0.96 0.85 81.0 0 1 316.41 189.00
  L 294.24 189.00
  A 1.38 1.23 80.0 0 1 293.03 188.05
  L 291.71 184.00"
/>
<path stroke="#5a0000" vector-effect="non-scaling-stroke" d="
  M 238.71 183.75
  L 237.53 187.97
  A 1.17 1.11 -81.7 0 1 236.45 188.82
  L 213.77 188.93
  A 0.73 0.71 -82.8 0 1 213.08 188.02
  L 214.21 183.75"
/>
<path stroke="#5a0000" vector-effect="non-scaling-stroke" d="
  M 351.04 184.00
  L 351.01 188.10
  A 0.90 0.87 -89.7 0 1 350.14 188.99
  L 328.44 188.83
  A 0.57 0.54 -0.5 0 1 327.88 188.31
  L 327.71 184.00"
/>
<path stroke="#5a0000" vector-effect="non-scaling-stroke" d="
  M 465.54 184.00
  L 466.45 187.50
  A 1.20 1.05 81.7 0 1 465.48 189.00
  L 443.68 189.00
  A 1.58 1.26 78.3 0 1 442.40 187.93
  L 441.00 183.96"
/>
<path stroke="#5a0000" vector-effect="non-scaling-stroke" d="
  M 388.04 183.75
  L 387.00 188.06
  A 0.90 0.72 -81.5 0 1 386.26 188.74
  L 363.00 188.75
  A 0.44 0.41 5.3 0 1 362.56 188.26
  L 363.46 183.75"
/>
<path stroke="#5a0000" vector-effect="non-scaling-stroke" d="
  M 110.29 183.75
  L 110.13 188.32
  A 0.57 0.52 0.5 0 1 109.56 188.83
  L 89.74 188.98
  A 0.78 0.74 89.2 0 1 88.99 188.21
  L 88.96 184.25"
/>
<path stroke="#5a0000" vector-effect="non-scaling-stroke" d="
  M 580.33 189.14
  L 565.46 189.01
  A 0.97 0.97 0.3 0 1 564.50 188.04
  L 564.46 183.75"
/>
<path stroke="#5a0000" vector-effect="non-scaling-stroke" d="
  M 554.79 184.00
  L 557.23 187.90
  Q 557.87 188.94 556.72 188.94
  L 534.36 189.00
  A 2.67 2.01 69.6 0 1 532.41 187.75
  L 530.00 183.96"
/>
<path stroke="#5a0000" vector-effect="non-scaling-stroke" d="
  M 496.79 183.75
  L 496.74 187.40
  A 0.86 0.83 -89.7 0 1 495.91 188.25
  Q 485.25 188.25 475.25 188.25
  Q 473.16 188.25 473.58 186.72
  Q 473.67 186.40 473.67 185.76
  L 473.69 184.00"
/>
<path stroke="#5a0000" vector-effect="non-scaling-stroke" d="
  M 185.54 184.00
  L 185.49 187.59
  A 1.21 1.17 -83.6 0 1 184.07 188.76
  Q 175.33 186.90 167.04 183.75"
/>
<path stroke="#808080" vector-effect="non-scaling-stroke" d="
  M 77.31 222.68
  A 0.48 0.46 -4.1 0 0 76.83 223.21
  C 77.34 226.57 77.78 232.33 73.25 233.25
  C 69.72 233.96 62.64 234.58 61.62 230.41
  Q 61.50 229.94 61.50 225.59
  Q 61.50 214.94 61.50 204.42
  Q 61.50 201.53 64.30 200.82
  C 68.32 199.79 78.20 199.04 76.73 206.25
  Q 76.01 209.75 79.75 209.25
  Q 82.19 208.92 90.69 208.94
  A 0.58 0.57 -86.0 0 0 91.26 208.44
  Q 92.73 197.69 82.75 194.75
  C 74.53 192.33 48.79 190.47 46.39 202.70
  Q 46.26 203.38 46.25 209.81
  Q 46.23 219.28 46.09 228.75
  C 45.94 240.04 61.40 241.20 69.37 241.02
  C 81.41 240.74 93.34 238.93 91.14 223.19
  A 0.58 0.57 -4.0 0 0 90.57 222.70
  L 77.31 222.68"
/>
<path stroke="#808080" vector-effect="non-scaling-stroke" d="
  M 135.81 232.44
  L 135.68 193.81
  A 0.54 0.49 -89.5 0 0 135.20 193.27
  L 121.06 193.05
  A 0.87 0.82 90.0 0 0 120.23 193.93
  L 120.32 239.44
  A 0.52 0.52 1.1 0 0 120.82 239.96
  C 133.81 240.38 146.79 239.65 159.77 240.25
  A 0.70 0.70 1.2 0 0 160.50 239.55
  L 160.50 233.68
  A 0.69 0.68 0.0 0 0 159.81 233.00
  L 136.32 232.94
  A 0.51 0.50 0.0 0 1 135.81 232.44"
/>
<path stroke="#808080" vector-effect="non-scaling-stroke" d="
  M 215.98 231.44
  Q 217.90 235.25 218.70 239.25
  A 1.01 1.00 84.7 0 0 219.67 240.06
  L 233.98 240.26
  A 0.38 0.37 -9.0 0 0 234.34 239.77
  L 219.23 193.67
  A 0.97 0.94 80.6 0 0 218.33 193.01
  L 197.20 193.17
  A 0.72 0.70 -80.9 0 0 196.53 193.67
  L 181.42 239.61
  A 0.52 0.50 8.5 0 0 181.93 240.26
  L 194.70 240.15
  A 0.74 0.59 6.6 0 0 195.38 239.73
  L 197.60 232.52
  A 2.17 1.88 -80.3 0 1 199.47 230.99
  L 215.24 231.00
  A 0.84 0.79 -12.5 0 1 215.98 231.44"
/>
<path stroke="#808080" vector-effect="non-scaling-stroke" d="
  M 266.28 194.38
  C 258.05 196.27 252.44 204.71 259.69 211.56
  C 265.75 217.29 274.65 219.20 281.87 224.13
  C 289.05 229.02 285.71 234.39 277.77 233.79
  C 273.06 233.44 269.99 233.22 270.56 227.11
  A 1.02 1.02 2.6 0 0 269.54 226.00
  L 256.92 226.00
  A 0.57 0.57 2.8 0 0 256.35 226.51
  Q 255.77 232.27 258.63 235.60
  C 265.60 243.72 304.58 244.15 301.04 227.99
  C 299.70 221.89 292.37 217.87 286.90 215.58
  C 282.93 213.92 273.14 210.24 271.97 205.71
  C 271.03 202.11 273.58 200.78 276.69 200.44
  C 281.44 199.91 287.20 199.89 286.62 206.43
  A 0.47 0.44 -87.6 0 0 287.06 206.94
  L 300.31 207.06
  A 0.57 0.57 3.4 0 0 300.88 206.56
  C 302.80 190.37 275.41 192.28 266.28 194.38"
/>
<path stroke="#808080" vector-effect="non-scaling-stroke" d="
  M 326.94 199.69
  C 317.43 216.64 351.71 217.93 354.64 228.53
  C 356.22 234.21 348.45 233.70 344.44 233.56
  Q 339.07 233.38 339.55 227.38
  A 1.24 1.22 -87.6 0 0 338.34 226.04
  L 325.81 226.05
  A 0.60 0.58 -85.4 0 0 325.23 226.56
  C 323.64 237.39 333.72 240.16 342.25 240.75
  C 349.72 241.27 360.63 241.46 366.33 236.77
  C 371.71 232.35 371.29 225.24 365.56 221.19
  Q 359.70 217.04 352.12 213.91
  C 349.14 212.68 343.80 210.20 341.92 207.58
  C 335.67 198.87 357.01 196.65 355.47 206.20
  A 0.76 0.74 4.9 0 0 356.21 207.06
  L 369.19 207.17
  A 0.60 0.59 5.7 0 0 369.79 206.69
  C 372.98 188.88 332.37 190.00 326.94 199.69"
/>
<path stroke="#808080" vector-effect="non-scaling-stroke" d="
  M 411.73 193.59
  A 0.59 0.59 0.0 0 0 411.14 193.00
  L 396.88 193.00
  A 0.59 0.59 0.0 0 0 396.29 193.59
  L 396.29 239.65
  A 0.59 0.59 0.0 0 0 396.88 240.24
  L 411.14 240.24
  A 0.59 0.59 0.0 0 0 411.73 239.65
  L 411.73 193.59"
/>
<path stroke="#808080" vector-effect="non-scaling-stroke" d="
  M 440.99 199.34
  Q 439.25 201.34 439.25 203.99
  Q 439.25 212.55 439.25 220.95
  Q 439.25 230.47 439.36 231.02
  C 442.01 244.28 471.20 242.14 478.94 237.69
  C 484.81 234.31 484.39 229.19 484.20 223.31
  A 0.53 0.51 89.4 0 0 483.69 222.79
  L 470.43 222.91
  A 0.52 0.49 88.9 0 0 469.95 223.44
  Q 470.07 228.31 469.75 230.00
  C 468.76 235.23 459.26 234.00 456.17 232.60
  Q 454.50 231.84 454.50 230.01
  Q 454.50 217.63 454.29 205.25
  Q 454.23 201.61 457.50 200.75
  C 462.28 199.49 470.99 199.10 469.59 206.90
  Q 469.19 209.08 471.38 209.08
  L 483.57 209.07
  A 0.60 0.60 5.2 0 0 484.16 208.58
  C 487.00 193.37 468.23 192.35 458.40 192.99
  C 451.34 193.45 445.40 194.28 440.99 199.34"
/>
<path stroke="#808080" vector-effect="non-scaling-stroke" d="
  M 521.49 194.22
  C 512.90 196.10 507.29 205.23 515.19 212.06
  C 521.33 217.37 530.39 219.53 537.46 224.51
  C 539.81 226.16 542.19 228.88 540.10 231.56
  C 537.80 234.52 531.80 233.99 528.49 233.25
  Q 525.91 232.67 525.67 230.00
  L 525.36 226.68
  A 0.56 0.55 88.3 0 0 524.82 226.16
  L 511.81 226.05
  A 0.61 0.58 -84.3 0 0 511.22 226.56
  C 509.04 239.77 524.92 240.90 533.71 241.01
  C 541.03 241.11 555.95 240.05 556.09 229.42
  C 556.15 224.52 551.96 220.79 547.79 218.73
  Q 539.68 214.71 531.62 210.58
  C 528.91 209.20 525.20 205.68 527.27 202.61
  C 529.84 198.81 542.72 198.44 541.45 206.31
  A 0.60 0.60 4.5 0 0 542.04 207.00
  L 555.31 207.06
  A 0.58 0.56 3.4 0 0 555.88 206.57
  C 557.94 190.61 530.76 192.20 521.49 194.22"
/>
<path stroke="#808080" vector-effect="non-scaling-stroke" d="
  M 200.16 224.60
  A 0.31 0.31 8.7 0 0 200.45 225.00
  L 213.83 225.00
  A 0.31 0.31 -8.8 0 0 214.12 224.60
  L 207.44 202.86
  A 0.31 0.31 44.4 0 0 206.84 202.86
  L 200.16 224.60"
/>
</g>
<path fill="#b30000" d="
  M 30.25 184.54
  L 27.25 185.54
  Q 27.00 185.49 26.96 185.75
  L 14.92 188.87
  A 0.76 0.73 82.9 0 1 14.00 188.13
  L 14.05 166.23
  A 1.47 1.44 -8.8 0 1 15.08 164.85
  C 42.84 156.15 63.41 135.63 69.13 107.14
  Q 70.49 100.35 70.66 87.25
  Q 70.88 69.39 70.74 50.80
  A 0.79 0.79 89.6 0 1 71.53 50.00
  L 84.96 50.00
  A 0.57 0.57 89.0 0 1 85.53 50.55
  Q 85.87 58.53 85.75 66.18
  C 85.43 86.41 87.76 108.17 82.73 126.35
  C 75.22 153.52 56.52 173.98 30.25 184.54
  Z"
/>
<path fill="#b30000" d="
  M 110.29 183.75
  L 110.13 188.32
  A 0.57 0.52 0.5 0 1 109.56 188.83
  L 89.74 188.98
  A 0.78 0.74 89.2 0 1 88.99 188.21
  L 88.96 184.25
  L 89.00 50.90
  A 0.87 0.85 -89.7 0 1 89.86 50.03
  L 109.75 50.23
  A 0.53 0.50 90.0 0 1 110.25 50.76
  L 110.29 183.75
  Z"
/>
<path fill="#b30000" d="
  M 185.54 184.00
  L 185.49 187.59
  A 1.21 1.17 -83.6 0 1 184.07 188.76
  Q 175.33 186.90 167.04 183.75
  C 132.83 168.50 113.48 138.34 113.68 100.44
  C 113.77 83.85 113.70 67.27 113.93 50.68
  A 0.53 0.52 -90.0 0 1 114.44 50.16
  L 127.99 50.02
  A 0.79 0.76 89.6 0 1 128.76 50.81
  Q 128.61 69.70 128.84 88.00
  Q 129.01 100.88 130.48 107.88
  C 136.39 135.87 157.71 157.33 185.01 164.99
  A 0.69 0.68 -82.2 0 1 185.50 165.65
  L 185.54 184.00
  Z"
/>
<path fill="#b30000" d="
  M 316.04 183.75
  L 317.19 187.78
  A 0.96 0.85 81.0 0 1 316.41 189.00
  L 294.24 189.00
  A 1.38 1.23 80.0 0 1 293.03 188.05
  L 291.71 184.00
  L 283.59 157.29
  A 0.69 0.67 -7.8 0 0 282.93 156.81
  L 246.87 156.55
  A 0.89 0.89 7.7 0 0 246.01 157.20
  L 238.71 183.75
  L 237.53 187.97
  A 1.17 1.11 -81.7 0 1 236.45 188.82
  L 213.77 188.93
  A 0.73 0.71 -82.8 0 1 213.08 188.02
  L 214.21 183.75
  Q 230.05 126.29 245.81 68.81
  C 247.28 63.47 248.65 59.42 253.08 56.07
  C 259.73 51.05 268.81 51.49 275.01 56.92
  C 279.27 60.65 280.08 64.45 282.08 71.12
  Q 299.00 127.45 316.04 183.75
  Z
  M 263.41 93.06
  L 252.28 133.92
  A 0.86 0.85 -82.4 0 0 253.10 135.00
  L 276.09 135.00
  A 0.65 0.64 81.3 0 0 276.70 134.16
  L 264.18 93.05
  Q 263.77 91.71 263.41 93.06
  Z"
/>
<path fill="#b30000" d="
  M 465.54 184.00
  L 466.45 187.50
  A 1.20 1.05 81.7 0 1 465.48 189.00
  L 443.68 189.00
  A 1.58 1.26 78.3 0 1 442.40 187.93
  L 441.00 183.96
  L 433.11 157.57
  A 1.22 1.15 -7.4 0 0 431.97 156.74
  L 396.42 156.50
  A 1.24 1.18 7.4 0 0 395.24 157.37
  L 388.04 183.75
  L 387.00 188.06
  A 0.90 0.72 -81.5 0 1 386.26 188.74
  L 363.00 188.75
  A 0.44 0.41 5.3 0 1 362.56 188.26
  L 363.46 183.75
  Q 379.87 124.79 396.00 65.75
  C 401.02 47.39 425.05 48.66 430.19 66.81
  Q 436.06 87.54 465.54 184.00
  Z
  M 412.81 93.23
  L 401.60 134.07
  A 0.74 0.74 -82.5 0 0 402.31 135.00
  L 425.72 135.00
  A 0.43 0.43 81.5 0 0 426.13 134.44
  L 413.63 93.23
  Q 413.20 91.81 412.81 93.23
  Z"
/>
<path fill="#b30000" d="
  M 351.04 184.00
  L 351.01 188.10
  A 0.90 0.87 -89.7 0 1 350.14 188.99
  L 328.44 188.83
  A 0.57 0.54 -0.5 0 1 327.88 188.31
  L 327.71 184.00
  L 327.75 77.56
  A 0.81 0.81 0.0 0 0 326.94 76.75
  L 299.74 76.75
  A 0.99 0.99 0.5 0 1 298.75 75.76
  L 298.81 54.18
  A 0.69 0.68 0.0 0 1 299.50 53.50
  L 379.13 53.50
  A 0.87 0.87 0.7 0 1 380.00 54.37
  L 380.00 76.08
  A 0.67 0.67 -0.4 0 1 379.33 76.75
  L 351.89 76.75
  A 0.82 0.82 0.0 0 0 351.07 77.57
  L 351.04 184.00
  Z"
/>
<path fill="#b30000" d="
  M 554.79 184.00
  L 557.23 187.90
  Q 557.87 188.94 556.72 188.94
  L 534.36 189.00
  A 2.67 2.01 69.6 0 1 532.41 187.75
  L 530.00 183.96
  Q 509.15 148.61 504.81 141.94
  C 498.15 131.69 502.61 118.39 514.45 115.13
  Q 518.99 113.88 520.31 113.16
  C 534.59 105.40 534.40 84.96 519.51 77.99
  C 513.52 75.19 504.70 75.87 497.57 76.01
  A 0.65 0.65 -0.9 0 0 496.94 76.66
  C 497.04 112.29 497.24 147.77 496.79 183.75
  L 496.74 187.40
  A 0.86 0.83 -89.7 0 1 495.91 188.25
  Q 485.25 188.25 475.25 188.25
  Q 473.16 188.25 473.58 186.72
  Q 473.67 186.40 473.67 185.76
  L 473.69 184.00
  Q 473.79 129.12 473.75 74.25
  Q 473.74 62.44 482.91 56.87
  C 489.87 52.64 498.18 53.41 506.75 53.50
  C 514.41 53.58 520.20 53.53 527.08 56.20
  C 561.88 69.72 562.65 117.89 528.44 132.69
  Q 524.52 134.38 526.62 137.83
  Q 540.75 160.89 554.79 184.00
  Z"
/>
<path fill="#b30000" d="
  M 580.33 189.14
  L 565.46 189.01
  A 0.97 0.97 0.3 0 1 564.50 188.04
  L 564.46 183.75
  L 564.50 54.38
  A 0.88 0.87 90.0 0 1 565.37 53.50
  L 587.18 53.56
  A 0.51 0.49 0.0 0 1 587.69 54.05
  L 587.75 188.38
  A 0.67 0.64 -0.5 0 1 587.09 189.02
  L 580.33 189.14
  Z"
/>
<path fill="#000000" d="
  M 110.29 183.75
  Q 138.67 184.37 167.04 183.75
  Q 175.33 186.90 184.07 188.76
  A 1.21 1.17 -83.6 0 0 185.49 187.59
  L 185.54 184.00
  L 214.21 183.75
  L 213.08 188.02
  A 0.73 0.71 -82.8 0 0 213.77 188.93
  L 236.45 188.82
  A 1.17 1.11 -81.7 0 0 237.53 187.97
  L 238.71 183.75
  L 291.71 184.00
  L 293.03 188.05
  A 1.38 1.23 80.0 0 0 294.24 189.00
  L 316.41 189.00
  A 0.96 0.85 81.0 0 0 317.19 187.78
  L 316.04 183.75
  L 327.71 184.00
  L 327.88 188.31
  A 0.57 0.54 -0.5 0 0 328.44 188.83
  L 350.14 188.99
  A 0.90 0.87 -89.7 0 0 351.01 188.10
  L 351.04 184.00
  L 363.46 183.75
  L 362.56 188.26
  A 0.44 0.41 5.3 0 0 363.00 188.75
  L 386.26 188.74
  A 0.90 0.72 -81.5 0 0 387.00 188.06
  L 388.04 183.75
  L 441.00 183.96
  L 442.40 187.93
  A 1.58 1.26 78.3 0 0 443.68 189.00
  L 465.48 189.00
  A 1.20 1.05 81.7 0 0 466.45 187.50
  L 465.54 184.00
  L 473.69 184.00
  L 473.67 185.76
  Q 473.67 186.40 473.58 186.72
  Q 473.16 188.25 475.25 188.25
  Q 485.25 188.25 495.91 188.25
  A 0.86 0.83 -89.7 0 0 496.74 187.40
  L 496.79 183.75
  L 530.00 183.96
  L 532.41 187.75
  A 2.67 2.01 69.6 0 0 534.36 189.00
  L 556.72 188.94
  Q 557.87 188.94 557.23 187.90
  L 554.79 184.00
  L 564.46 183.75
  L 564.50 188.04
  A 0.97 0.97 0.3 0 0 565.46 189.01
  L 580.33 189.14
  C 604.90 207.44 597.12 243.36 566.75 248.75
  Q 564.07 249.23 552.25 249.22
  Q 295.63 249.00 39.00 248.97
  C 3.40 248.97 -6.87 200.31 26.06 186.81
  Q 26.94 186.45 26.96 185.75
  Q 27.00 185.49 27.25 185.54
  C 27.42 186.67 31.06 185.03 31.75 184.79
  Q 35.71 184.07 44.00 184.00
  Q 66.48 183.81 88.96 184.25
  L 88.99 188.21
  A 0.78 0.74 89.2 0 0 89.74 188.98
  L 109.56 188.83
  A 0.57 0.52 0.5 0 0 110.13 188.32
  L 110.29 183.75
  Z
  M 77.31 222.68
  A 0.48 0.46 -4.1 0 0 76.83 223.21
  C 77.34 226.57 77.78 232.33 73.25 233.25
  C 69.72 233.96 62.64 234.58 61.62 230.41
  Q 61.50 229.94 61.50 225.59
  Q 61.50 214.94 61.50 204.42
  Q 61.50 201.53 64.30 200.82
  C 68.32 199.79 78.20 199.04 76.73 206.25
  Q 76.01 209.75 79.75 209.25
  Q 82.19 208.92 90.69 208.94
  A 0.58 0.57 -86.0 0 0 91.26 208.44
  Q 92.73 197.69 82.75 194.75
  C 74.53 192.33 48.79 190.47 46.39 202.70
  Q 46.26 203.38 46.25 209.81
  Q 46.23 219.28 46.09 228.75
  C 45.94 240.04 61.40 241.20 69.37 241.02
  C 81.41 240.74 93.34 238.93 91.14 223.19
  A 0.58 0.57 -4.0 0 0 90.57 222.70
  L 77.31 222.68
  Z
  M 135.81 232.44
  L 135.68 193.81
  A 0.54 0.49 -89.5 0 0 135.20 193.27
  L 121.06 193.05
  A 0.87 0.82 90.0 0 0 120.23 193.93
  L 120.32 239.44
  A 0.52 0.52 1.1 0 0 120.82 239.96
  C 133.81 240.38 146.79 239.65 159.77 240.25
  A 0.70 0.70 1.2 0 0 160.50 239.55
  L 160.50 233.68
  A 0.69 0.68 0.0 0 0 159.81 233.00
  L 136.32 232.94
  A 0.51 0.50 0.0 0 1 135.81 232.44
  Z
  M 215.98 231.44
  Q 217.90 235.25 218.70 239.25
  A 1.01 1.00 84.7 0 0 219.67 240.06
  L 233.98 240.26
  A 0.38 0.37 -9.0 0 0 234.34 239.77
  L 219.23 193.67
  A 0.97 0.94 80.6 0 0 218.33 193.01
  L 197.20 193.17
  A 0.72 0.70 -80.9 0 0 196.53 193.67
  L 181.42 239.61
  A 0.52 0.50 8.5 0 0 181.93 240.26
  L 194.70 240.15
  A 0.74 0.59 6.6 0 0 195.38 239.73
  L 197.60 232.52
  A 2.17 1.88 -80.3 0 1 199.47 230.99
  L 215.24 231.00
  A 0.84 0.79 -12.5 0 1 215.98 231.44
  Z
  M 266.28 194.38
  C 258.05 196.27 252.44 204.71 259.69 211.56
  C 265.75 217.29 274.65 219.20 281.87 224.13
  C 289.05 229.02 285.71 234.39 277.77 233.79
  C 273.06 233.44 269.99 233.22 270.56 227.11
  A 1.02 1.02 2.6 0 0 269.54 226.00
  L 256.92 226.00
  A 0.57 0.57 2.8 0 0 256.35 226.51
  Q 255.77 232.27 258.63 235.60
  C 265.60 243.72 304.58 244.15 301.04 227.99
  C 299.70 221.89 292.37 217.87 286.90 215.58
  C 282.93 213.92 273.14 210.24 271.97 205.71
  C 271.03 202.11 273.58 200.78 276.69 200.44
  C 281.44 199.91 287.20 199.89 286.62 206.43
  A 0.47 0.44 -87.6 0 0 287.06 206.94
  L 300.31 207.06
  A 0.57 0.57 3.4 0 0 300.88 206.56
  C 302.80 190.37 275.41 192.28 266.28 194.38
  Z
  M 326.94 199.69
  C 317.43 216.64 351.71 217.93 354.64 228.53
  C 356.22 234.21 348.45 233.70 344.44 233.56
  Q 339.07 233.38 339.55 227.38
  A 1.24 1.22 -87.6 0 0 338.34 226.04
  L 325.81 226.05
  A 0.60 0.58 -85.4 0 0 325.23 226.56
  C 323.64 237.39 333.72 240.16 342.25 240.75
  C 349.72 241.27 360.63 241.46 366.33 236.77
  C 371.71 232.35 371.29 225.24 365.56 221.19
  Q 359.70 217.04 352.12 213.91
  C 349.14 212.68 343.80 210.20 341.92 207.58
  C 335.67 198.87 357.01 196.65 355.47 206.20
  A 0.76 0.74 4.9 0 0 356.21 207.06
  L 369.19 207.17
  A 0.60 0.59 5.7 0 0 369.79 206.69
  C 372.98 188.88 332.37 190.00 326.94 199.69
  Z
  M 411.73 193.59
  A 0.59 0.59 0.0 0 0 411.14 193.00
  L 396.88 193.00
  A 0.59 0.59 0.0 0 0 396.29 193.59
  L 396.29 239.65
  A 0.59 0.59 0.0 0 0 396.88 240.24
  L 411.14 240.24
  A 0.59 0.59 0.0 0 0 411.73 239.65
  L 411.73 193.59
  Z
  M 440.99 199.34
  Q 439.25 201.34 439.25 203.99
  Q 439.25 212.55 439.25 220.95
  Q 439.25 230.47 439.36 231.02
  C 442.01 244.28 471.20 242.14 478.94 237.69
  C 484.81 234.31 484.39 229.19 484.20 223.31
  A 0.53 0.51 89.4 0 0 483.69 222.79
  L 470.43 222.91
  A 0.52 0.49 88.9 0 0 469.95 223.44
  Q 470.07 228.31 469.75 230.00
  C 468.76 235.23 459.26 234.00 456.17 232.60
  Q 454.50 231.84 454.50 230.01
  Q 454.50 217.63 454.29 205.25
  Q 454.23 201.61 457.50 200.75
  C 462.28 199.49 470.99 199.10 469.59 206.90
  Q 469.19 209.08 471.38 209.08
  L 483.57 209.07
  A 0.60 0.60 5.2 0 0 484.16 208.58
  C 487.00 193.37 468.23 192.35 458.40 192.99
  C 451.34 193.45 445.40 194.28 440.99 199.34
  Z
  M 521.49 194.22
  C 512.90 196.10 507.29 205.23 515.19 212.06
  C 521.33 217.37 530.39 219.53 537.46 224.51
  C 539.81 226.16 542.19 228.88 540.10 231.56
  C 537.80 234.52 531.80 233.99 528.49 233.25
  Q 525.91 232.67 525.67 230.00
  L 525.36 226.68
  A 0.56 0.55 88.3 0 0 524.82 226.16
  L 511.81 226.05
  A 0.61 0.58 -84.3 0 0 511.22 226.56
  C 509.04 239.77 524.92 240.90 533.71 241.01
  C 541.03 241.11 555.95 240.05 556.09 229.42
  C 556.15 224.52 551.96 220.79 547.79 218.73
  Q 539.68 214.71 531.62 210.58
  C 528.91 209.20 525.20 205.68 527.27 202.61
  C 529.84 198.81 542.72 198.44 541.45 206.31
  A 0.60 0.60 4.5 0 0 542.04 207.00
  L 555.31 207.06
  A 0.58 0.56 3.4 0 0 555.88 206.57
  C 557.94 190.61 530.76 192.20 521.49 194.22
  Z"
/>
<path fill="#ffffff" d="
  M 77.31 222.68
  L 90.57 222.70
  A 0.58 0.57 -4.0 0 1 91.14 223.19
  C 93.34 238.93 81.41 240.74 69.37 241.02
  C 61.40 241.20 45.94 240.04 46.09 228.75
  Q 46.23 219.28 46.25 209.81
  Q 46.26 203.38 46.39 202.70
  C 48.79 190.47 74.53 192.33 82.75 194.75
  Q 92.73 197.69 91.26 208.44
  A 0.58 0.57 -86.0 0 1 90.69 208.94
  Q 82.19 208.92 79.75 209.25
  Q 76.01 209.75 76.73 206.25
  C 78.20 199.04 68.32 199.79 64.30 200.82
  Q 61.50 201.53 61.50 204.42
  Q 61.50 214.94 61.50 225.59
  Q 61.50 229.94 61.62 230.41
  C 62.64 234.58 69.72 233.96 73.25 233.25
  C 77.78 232.33 77.34 226.57 76.83 223.21
  A 0.48 0.46 -4.1 0 1 77.31 222.68
  Z"
/>
<path fill="#ffffff" d="
  M 136.32 232.94
  L 159.81 233.00
  A 0.69 0.68 0.0 0 1 160.50 233.68
  L 160.50 239.55
  A 0.70 0.70 1.2 0 1 159.77 240.25
  C 146.79 239.65 133.81 240.38 120.82 239.96
  A 0.52 0.52 1.1 0 1 120.32 239.44
  L 120.23 193.93
  A 0.87 0.82 90.0 0 1 121.06 193.05
  L 135.20 193.27
  A 0.54 0.49 -89.5 0 1 135.68 193.81
  L 135.81 232.44
  A 0.51 0.50 0.0 0 0 136.32 232.94
  Z"
/>
<path fill="#ffffff" d="
  M 215.24 231.00
  L 199.47 230.99
  A 2.17 1.88 -80.3 0 0 197.60 232.52
  L 195.38 239.73
  A 0.74 0.59 6.6 0 1 194.70 240.15
  L 181.93 240.26
  A 0.52 0.50 8.5 0 1 181.42 239.61
  L 196.53 193.67
  A 0.72 0.70 -80.9 0 1 197.20 193.17
  L 218.33 193.01
  A 0.97 0.94 80.6 0 1 219.23 193.67
  L 234.34 239.77
  A 0.38 0.37 -9.0 0 1 233.98 240.26
  L 219.67 240.06
  A 1.01 1.00 84.7 0 1 218.70 239.25
  Q 217.90 235.25 215.98 231.44
  A 0.84 0.79 -12.5 0 0 215.24 231.00
  Z
  M 200.16 224.60
  A 0.31 0.31 8.7 0 0 200.45 225.00
  L 213.83 225.00
  A 0.31 0.31 -8.8 0 0 214.12 224.60
  L 207.44 202.86
  A 0.31 0.31 44.4 0 0 206.84 202.86
  L 200.16 224.60
  Z"
/>
<path fill="#ffffff" d="
  M 259.69 211.56
  C 252.44 204.71 258.05 196.27 266.28 194.38
  C 275.41 192.28 302.80 190.37 300.88 206.56
  A 0.57 0.57 3.4 0 1 300.31 207.06
  L 287.06 206.94
  A 0.47 0.44 -87.6 0 1 286.62 206.43
  C 287.20 199.89 281.44 199.91 276.69 200.44
  C 273.58 200.78 271.03 202.11 271.97 205.71
  C 273.14 210.24 282.93 213.92 286.90 215.58
  C 292.37 217.87 299.70 221.89 301.04 227.99
  C 304.58 244.15 265.60 243.72 258.63 235.60
  Q 255.77 232.27 256.35 226.51
  A 0.57 0.57 2.8 0 1 256.92 226.00
  L 269.54 226.00
  A 1.02 1.02 2.6 0 1 270.56 227.11
  C 269.99 233.22 273.06 233.44 277.77 233.79
  C 285.71 234.39 289.05 229.02 281.87 224.13
  C 274.65 219.20 265.75 217.29 259.69 211.56
  Z"
/>
<path fill="#ffffff" d="
  M 326.94 199.69
  C 332.37 190.00 372.98 188.88 369.79 206.69
  A 0.60 0.59 5.7 0 1 369.19 207.17
  L 356.21 207.06
  A 0.76 0.74 4.9 0 1 355.47 206.20
  C 357.01 196.65 335.67 198.87 341.92 207.58
  C 343.80 210.20 349.14 212.68 352.12 213.91
  Q 359.70 217.04 365.56 221.19
  C 371.29 225.24 371.71 232.35 366.33 236.77
  C 360.63 241.46 349.72 241.27 342.25 240.75
  C 333.72 240.16 323.64 237.39 325.23 226.56
  A 0.60 0.58 -85.4 0 1 325.81 226.05
  L 338.34 226.04
  A 1.24 1.22 -87.6 0 1 339.55 227.38
  Q 339.07 233.38 344.44 233.56
  C 348.45 233.70 356.22 234.21 354.64 228.53
  C 351.71 217.93 317.43 216.64 326.94 199.69
  Z"
/>
<rect fill="#ffffff" x="396.29" y="193.00" width="15.44" height="47.24" rx="0.59"/>
<path fill="#ffffff" d="
  M 440.99 199.34
  C 445.40 194.28 451.34 193.45 458.40 192.99
  C 468.23 192.35 487.00 193.37 484.16 208.58
  A 0.60 0.60 5.2 0 1 483.57 209.07
  L 471.38 209.08
  Q 469.19 209.08 469.59 206.90
  C 470.99 199.10 462.28 199.49 457.50 200.75
  Q 454.23 201.61 454.29 205.25
  Q 454.50 217.63 454.50 230.01
  Q 454.50 231.84 456.17 232.60
  C 459.26 234.00 468.76 235.23 469.75 230.00
  Q 470.07 228.31 469.95 223.44
  A 0.52 0.49 88.9 0 1 470.43 222.91
  L 483.69 222.79
  A 0.53 0.51 89.4 0 1 484.20 223.31
  C 484.39 229.19 484.81 234.31 478.94 237.69
  C 471.20 242.14 442.01 244.28 439.36 231.02
  Q 439.25 230.47 439.25 220.95
  Q 439.25 212.55 439.25 203.99
  Q 439.25 201.34 440.99 199.34
  Z"
/>
<path fill="#ffffff" d="
  M 515.19 212.06
  C 507.29 205.23 512.90 196.10 521.49 194.22
  C 530.76 192.20 557.94 190.61 555.88 206.57
  A 0.58 0.56 3.4 0 1 555.31 207.06
  L 542.04 207.00
  A 0.60 0.60 4.5 0 1 541.45 206.31
  C 542.72 198.44 529.84 198.81 527.27 202.61
  C 525.20 205.68 528.91 209.20 531.62 210.58
  Q 539.68 214.71 547.79 218.73
  C 551.96 220.79 556.15 224.52 556.09 229.42
  C 555.95 240.05 541.03 241.11 533.71 241.01
  C 524.92 240.90 509.04 239.77 511.22 226.56
  A 0.61 0.58 -84.3 0 1 511.81 226.05
  L 524.82 226.16
  A 0.56 0.55 88.3 0 1 525.36 226.68
  L 525.67 230.00
  Q 525.91 232.67 528.49 233.25
  C 531.80 233.99 537.80 234.52 540.10 231.56
  C 542.19 228.88 539.81 226.16 537.46 224.51
  C 530.39 219.53 521.33 217.37 515.19 212.06
  Z"
/>
<path fill="#000000" d="
  M 200.16 224.60
  L 206.84 202.86
  A 0.31 0.31 43.7 0 1 207.44 202.86
  L 214.12 224.60
  A 0.31 0.31 -8.9 0 1 213.83 225.00
  L 200.45 225.00
  A 0.31 0.31 9.1 0 1 200.16 224.60
  Z"
/>
</svg>
