<?xml version="1.0" encoding="UTF-8" standalone="no"?>
<!DOCTYPE svg PUBLIC "-//W3C//DTD SVG 1.1//EN" "http://www.w3.org/Graphics/SVG/1.1/DTD/svg11.dtd">
<svg xmlns="http://www.w3.org/2000/svg" version="1.1" viewBox="0 0 600 300">
<path fill="#000000" d="
  M -0.01 163.16
  L 0.00 110.19
  Q 21.85 109.63 43.69 110.30
  A 0.52 0.51 -89.4 0 1 44.19 110.82
  L 44.25 162.82
  A 0.68 0.68 -89.6 0 1 43.57 163.50
  L -0.01 163.16
  Z"
/>
<path fill="#000000" d="
  M 159.07 139.33
  A 0.79 0.79 -43.4 0 1 159.03 140.57
  L 134.58 158.45
  A 0.95 0.94 -43.8 0 1 133.44 158.43
  L 72.69 110.85
  Q 71.61 110.00 72.99 110.00
  L 122.67 110.00
  A 3.67 3.57 -24.4 0 1 125.00 110.84
  L 159.07 139.33
  Z"
/>
<path fill="#000000" d="
  M 138.27 162.05
  Q 138.76 161.63 139.50 161.67
  Q 140.09 161.71 140.45 161.53
  Q 143.03 160.27 145.44 158.69
  Q 182.69 134.36 220.14 110.33
  A 1.70 1.70 28.6 0 1 221.06 110.06
  L 257.49 110.00
  Q 259.35 110.00 257.79 111.01
  L 179.73 161.54
  A 0.95 0.93 74.3 0 0 179.31 162.31
  L 179.07 185.56
  A 0.51 0.50 -90.0 0 1 178.57 186.07
  L 138.56 186.19
  A 0.52 0.51 88.3 0 1 138.04 185.69
  Q 137.40 174.32 137.92 162.94
  A 1.36 0.89 78.2 0 1 138.27 162.05
  Z"
/>
<path fill="#000000" d="
  M 385.50 162.92
  Q 386.50 163.58 386.50 162.38
  L 386.50 110.75
  A 0.69 0.68 -90.0 0 1 387.18 110.06
  L 407.31 110.00
  A 0.95 0.94 -90.0 0 1 408.25 110.95
  L 408.25 185.50
  A 0.69 0.68 -90.0 0 1 407.57 186.19
  L 383.30 186.19
  A 1.70 1.49 58.8 0 1 382.41 185.91
  L 271.43 111.05
  Q 269.97 110.08 271.72 110.06
  C 282.06 109.99 292.68 110.43 303.04 109.89
  C 306.44 109.72 307.59 111.05 310.16 112.75
  Q 348.12 137.92 385.50 162.92
  Z"
/>
<path fill="#000000" d="
  M 515.47 144.23
  L 502.31 149.63
  A 3.00 2.73 -41.3 0 1 499.95 149.59
  L 421.57 111.38
  Q 419.77 110.50 421.77 110.50
  Q 453.24 110.50 484.27 110.50
  Q 486.50 110.50 488.50 111.50
  Q 531.46 133.05 574.45 154.57
  Q 575.68 155.18 574.31 155.19
  L 542.70 155.25
  Q 540.69 155.26 538.68 154.35
  L 516.39 144.26
  A 1.20 1.16 45.9 0 0 515.47 144.23
  Z"
/>
<path fill="#000000" d="
  M 523.63 123.14
  Q 521.88 122.47 523.55 121.57
  L 542.35 111.41
  Q 543.57 110.75 544.83 110.75
  L 598.72 110.75
  Q 600.38 110.75 598.82 111.31
  Q 572.88 120.63 546.94 129.94
  C 543.38 131.21 542.88 130.57 539.08 129.08
  Q 531.29 126.04 523.63 123.14
  Z"
/>
<path fill="#000000" d="
  M 264.53 136.15
  C 264.47 133.05 265.40 121.54 264.50 119.50
  Q 263.59 117.42 265.44 118.56
  L 308.00 144.81
  A 1.57 1.57 -74.2 0 1 308.75 146.15
  L 308.75 185.59
  A 0.66 0.66 -0.2 0 1 308.09 186.25
  L 265.41 186.25
  A 0.66 0.66 0.2 0 1 264.75 185.59
  C 264.75 169.04 264.83 152.60 264.53 136.15
  Z"
/>
<path fill="#000000" d="
  M 594.89 188.11
  Q 596.61 188.93 594.70 188.94
  L 531.07 189.00
  Q 529.68 189.00 528.42 188.37
  L 442.43 145.31
  Q 440.82 144.50 442.61 144.50
  L 474.93 144.50
  Q 475.90 144.50 476.77 144.90
  L 499.77 155.35
  A 2.16 1.83 -40.3 0 0 501.34 155.35
  L 515.03 149.90
  A 1.24 0.99 43.0 0 1 515.95 149.97
  L 594.89 188.11
  Z"
/>
<path fill="#000000" d="
  M 492.85 176.36
  Q 494.41 176.96 492.95 177.75
  L 473.56 188.34
  Q 472.81 188.75 471.98 188.75
  L 417.51 188.69
  Q 416.04 188.69 417.42 188.19
  L 471.31 168.89
  A 3.22 3.05 44.5 0 1 473.48 168.93
  L 492.85 176.36
  Z"
/>
<path fill="#000000" d="
  M 0.00 186.08
  L 0.00 169.85
  L 111.99 169.75
  A 1.26 1.26 -0.4 0 1 113.25 171.01
  L 113.25 185.38
  A 0.87 0.87 0.0 0 1 112.38 186.25
  L 0.00 186.08
  Z"
/>
</svg>
