<?xml version="1.0" encoding="UTF-8" standalone="no"?>
<!DOCTYPE svg PUBLIC "-//W3C//DTD SVG 1.1//EN" "http://www.w3.org/Graphics/SVG/1.1/DTD/svg11.dtd">
<svg xmlns="http://www.w3.org/2000/svg" version="1.1" viewBox="0 0 600 300">
<path fill="#000000" d="
  M 0.00 146.73
  L 0.00 88.94
  C 3.01 77.80 17.55 77.95 24.73 83.80
  Q 52.66 106.50 80.99 129.53
  Q 81.93 130.30 81.93 129.07
  L 81.93 81.44
  A 0.52 0.50 -90.0 0 1 82.43 80.92
  L 101.24 80.77
  A 0.78 0.75 89.6 0 1 102.00 81.55
  Q 102.00 108.27 102.00 133.98
  Q 102.00 141.01 100.85 143.35
  C 98.06 149.03 90.69 149.08 85.05 148.28
  Q 82.63 147.93 80.07 146.01
  Q 49.90 123.41 20.94 99.66
  Q 20.25 99.09 20.25 99.98
  L 20.25 146.70
  A 0.54 0.54 -1.1 0 1 19.73 147.24
  Q 9.72 147.64 0.00 146.73
  Z"
/>
<path fill="#000000" d="
  M 341.69 120.56
  L 284.77 120.50
  A 0.71 0.70 0.0 0 1 284.06 119.80
  L 284.00 108.16
  A 0.67 0.66 0.0 0 1 284.67 107.50
  L 341.59 107.50
  A 0.66 0.66 0.1 0 0 342.25 106.84
  L 342.25 96.98
  Q 342.25 94.75 340.02 94.75
  L 171.56 94.75
  A 1.00 0.99 -0.0 0 0 170.56 95.74
  L 170.56 132.60
  A 0.65 0.65 0.0 0 0 171.21 133.25
  L 241.26 133.25
  A 0.99 0.99 0.0 0 0 242.25 132.26
  L 242.25 121.44
  A 0.94 0.94 0.0 0 0 241.31 120.50
  L 193.01 120.50
  A 0.70 0.69 0.0 0 1 192.31 119.81
  L 192.25 108.17
  A 0.68 0.67 -0.0 0 1 192.93 107.50
  L 261.59 107.50
  A 0.66 0.66 0.2 0 1 262.25 108.16
  Q 262.25 122.50 262.25 136.50
  Q 262.25 143.29 256.99 146.10
  Q 254.36 147.50 248.74 147.52
  Q 204.46 147.66 160.18 147.27
  C 154.52 147.22 150.58 143.40 150.55 137.73
  Q 150.47 118.35 150.49 98.97
  Q 150.50 88.51 150.72 87.57
  C 152.47 80.09 159.54 80.75 166.72 80.75
  Q 256.86 80.75 347.00 80.75
  C 355.33 80.75 362.26 82.73 362.24 92.57
  Q 362.21 119.30 362.32 146.67
  A 0.56 0.55 -89.5 0 1 361.76 147.23
  L 342.94 147.08
  A 0.51 0.51 -89.7 0 1 342.43 146.57
  L 342.19 121.07
  A 0.52 0.50 89.4 0 0 341.69 120.56
  Z"
/>
<path fill="#000000" d="
  M 373.54 92.50
  C 373.53 82.43 379.67 80.68 388.25 80.68
  Q 491.96 80.70 595.68 80.81
  A 0.52 0.52 89.4 0 1 596.20 81.32
  L 596.25 94.30
  A 0.52 0.51 -0.0 0 1 595.73 94.81
  L 395.20 94.81
  A 0.70 0.70 -89.7 0 0 394.50 95.51
  L 394.56 132.46
  A 0.78 0.78 -0.4 0 0 395.35 133.24
  L 465.31 133.07
  A 0.53 0.51 0.0 0 0 465.84 132.56
  L 465.98 121.34
  A 0.87 0.83 0.3 0 0 465.11 120.50
  L 416.31 120.50
  A 0.56 0.56 0.0 0 1 415.75 119.94
  L 415.75 108.08
  A 0.58 0.58 -89.7 0 1 416.33 107.50
  L 485.44 107.56
  A 0.51 0.51 89.4 0 1 485.95 108.06
  Q 486.33 118.59 486.25 136.75
  C 486.22 143.59 482.62 147.22 475.94 147.28
  Q 430.72 147.68 385.50 147.50
  C 376.37 147.46 374.07 142.86 373.92 134.44
  Q 373.56 113.47 373.54 92.50
  Z"
/>
<ellipse fill="#000000" cx="0.00" cy="0.00" transform="translate(126.38,114.35) rotate(0.1)" rx="12.18" ry="8.82"/>
<path fill="#000000" d="
  M 518.55 121.69
  L 518.66 132.82
  A 0.52 0.50 0.0 0 0 519.18 133.32
  L 599.07 133.44
  A 0.53 0.50 -0.0 0 1 599.60 133.94
  L 599.59 147.06
  A 0.54 0.51 -0.0 0 1 599.05 147.57
  L 498.61 147.75
  A 0.80 0.80 0.0 0 1 497.81 146.95
  L 497.81 108.07
  A 0.51 0.50 -90.0 0 1 498.31 107.56
  L 576.38 107.50
  A 0.81 0.80 -0.0 0 1 577.19 108.30
  L 577.25 120.36
  A 0.65 0.64 -0.0 0 1 576.60 121.00
  L 519.27 121.00
  A 0.72 0.68 -0.4 0 0 518.55 121.69
  Z"
/>
<path fill="#000000" d="
  M 431.75 187.92
  Q 435.11 183.85 440.25 183.66
  Q 451.62 183.26 467.25 183.75
  C 473.45 183.94 477.06 187.05 477.35 193.27
  C 477.59 198.63 478.77 211.64 475.66 215.98
  Q 473.27 219.32 468.75 219.50
  Q 450.76 220.23 438.75 219.50
  C 432.97 219.15 430.56 215.21 430.34 209.59
  Q 429.99 200.14 430.46 191.21
  Q 430.56 189.35 431.75 187.92
  Z
  M 467.2476 194.5367
  A 2.05 2.05 0.0 0 0 465.1941 192.4902
  L 442.5341 192.5298
  A 2.05 2.05 0.0 0 0 440.4877 194.5834
  L 440.5124 208.7233
  A 2.05 2.05 0.0 0 0 442.5659 210.7698
  L 465.2259 210.7302
  A 2.05 2.05 0.0 0 0 467.2723 208.6766
  L 467.2476 194.5367
  Z"
/>
<path fill="#000000" d="
  M 386.30 194.59
  L 386.25 218.93
  A 0.54 0.51 -89.5 0 1 385.73 219.47
  L 376.26 219.30
  A 0.53 0.52 -88.9 0 1 375.75 218.76
  L 375.93 184.44
  A 0.50 0.50 0.0 0 1 376.43 183.94
  L 393.44 184.06
  A 1.08 1.03 -18.7 0 1 394.26 184.44
  L 414.66 209.52
  Q 415.57 210.65 415.56 209.21
  L 415.44 184.42
  A 0.51 0.49 -0.0 0 1 415.95 183.93
  L 425.63 183.91
  A 0.62 0.60 0.0 0 1 426.25 184.51
  L 426.19 218.94
  A 0.50 0.49 -90.0 0 1 425.70 219.44
  L 408.46 219.50
  A 1.36 1.33 -19.0 0 1 407.41 219.00
  L 387.32 194.23
  Q 386.31 192.98 386.30 194.59
  Z"
/>
<path fill="#000000" d="
  M 492.85 199.70
  Q 492.83 201.18 493.92 200.20
  L 511.62 184.33
  A 1.31 1.30 23.9 0 1 512.49 184.00
  L 526.18 184.00
  Q 527.15 184.00 526.41 184.63
  L 507.15 200.68
  A 0.65 0.64 -45.5 0 0 507.15 201.68
  L 529.02 218.76
  Q 530.22 219.70 528.69 219.68
  L 513.56 219.44
  A 1.39 1.27 -21.2 0 1 512.68 219.10
  L 493.68 202.05
  Q 492.81 201.27 492.82 202.45
  L 492.98 218.64
  A 0.83 0.82 90.0 0 1 492.15 219.48
  L 482.19 219.34
  A 0.52 0.52 -90.0 0 1 481.67 218.82
  L 481.72 184.64
  A 0.68 0.65 -0.0 0 1 482.40 183.99
  L 492.11 183.94
  A 0.87 0.83 0.3 0 1 492.98 184.78
  L 492.85 199.70
  Z"
/>
<rect fill="#000000" x="531.25" y="183.94" width="11.50" height="35.60" rx="0.53"/>
<path fill="#000000" d="
  M 563.82 184.45
  A 0.88 0.87 -75.3 0 1 564.58 184.00
  L 577.90 184.00
  A 1.09 1.09 -14.2 0 1 578.86 184.57
  L 597.63 218.65
  A 0.63 0.62 -14.0 0 1 597.07 219.57
  L 585.99 219.50
  A 1.52 1.20 72.8 0 1 584.82 218.70
  L 582.24 213.97
  A 0.98 0.75 -10.5 0 0 581.43 213.56
  L 561.32 213.50
  A 1.57 1.38 12.8 0 0 560.00 214.22
  L 557.47 218.86
  A 1.23 1.10 -74.1 0 1 556.46 219.50
  L 545.18 219.58
  A 0.53 0.52 14.1 0 1 544.71 218.80
  L 563.82 184.45
  Z
  M 564.80 205.05
  A 0.31 0.31 14.1 0 0 565.07 205.50
  L 577.31 205.50
  A 0.31 0.31 75.9 0 0 577.58 205.05
  L 571.46 193.64
  A 0.31 0.31 45.0 0 0 570.92 193.64
  L 564.80 205.05
  Z"
/>
</svg>
