<?xml version="1.0" encoding="UTF-8" standalone="no"?>
<!DOCTYPE svg PUBLIC "-//W3C//DTD SVG 1.1//EN" "http://www.w3.org/Graphics/SVG/1.1/DTD/svg11.dtd">
<svg xmlns="http://www.w3.org/2000/svg" version="1.1" viewBox="0 0 600 300">
<path fill="#000000" d="
  M 73.85 89.48
  C 76.25 89.64 78.20 83.44 78.77 81.65
  Q 79.75 78.58 81.15 76.32
  Q 87.91 65.41 92.21 53.31
  C 94.23 47.65 94.66 41.30 98.41 35.26
  C 99.12 34.11 99.27 32.68 99.94 31.69
  Q 107.40 20.54 118.14 12.59
  C 120.04 11.18 122.71 10.74 124.75 10.75
  Q 138.88 10.84 153.00 10.27
  C 162.09 9.91 163.19 15.70 162.72 23.00
  C 162.52 26.13 162.59 29.22 162.16 32.31
  Q 161.07 40.26 160.80 48.28
  C 160.68 52.09 160.12 55.45 161.24 59.41
  Q 162.25 62.96 162.37 64.88
  C 163.77 86.26 164.49 105.57 162.66 125.31
  C 162.23 129.92 163.17 134.92 157.01 136.00
  C 144.95 138.11 143.08 127.80 142.99 118.66
  Q 142.82 102.46 141.50 88.25
  Q 138.45 55.43 136.83 35.34
  C 136.56 32.06 135.05 30.70 131.75 31.50
  C 127.80 32.47 127.05 34.71 124.87 38.80
  Q 108.75 69.06 93.56 99.80
  C 92.06 102.83 90.79 105.28 90.00 108.75
  Q 89.56 110.68 88.47 112.45
  C 86.17 116.18 85.79 118.33 82.06 121.56
  C 76.84 126.09 69.77 132.47 62.37 131.43
  C 58.61 130.91 56.33 126.96 54.83 123.86
  C 53.39 120.87 53.62 118.01 53.39 114.63
  C 53.12 110.77 50.83 106.01 49.48 102.34
  C 48.91 100.76 49.20 98.50 48.75 97.50
  Q 43.63 86.05 39.45 74.23
  C 37.44 68.54 36.86 63.78 32.42 59.06
  Q 30.84 57.38 30.08 59.55
  C 26.01 71.21 28.05 85.09 27.21 97.31
  C 26.68 104.97 26.80 112.49 26.40 120.11
  C 26.14 125.09 26.42 129.62 20.61 129.89
  C 4.18 130.67 1.99 119.57 1.40 105.68
  C 0.27 79.33 -0.64 57.54 2.85 33.91
  Q 3.06 32.45 2.98 28.59
  C 2.59 11.72 30.24 9.97 41.21 11.00
  Q 43.67 11.23 44.85 13.41
  C 47.21 17.76 47.53 21.78 49.12 26.31
  C 51.07 31.87 52.09 38.90 53.50 44.75
  Q 54.31 48.12 62.01 65.35
  Q 66.79 76.05 72.03 88.19
  A 2.15 2.14 80.2 0 0 73.85 89.48
  Z"
/>
<path fill="#000000" d="
  M 372.11 59.12
  Q 381.05 49.59 390.81 43.81
  C 399.76 38.51 409.81 38.85 421.50 39.47
  A 2.03 1.69 59.0 0 1 422.42 39.79
  Q 424.91 41.42 427.94 41.56
  C 431.89 41.74 438.99 50.54 441.67 42.47
  C 444.17 34.95 451.59 28.39 460.02 32.09
  C 464.71 34.15 463.59 36.53 463.55 40.65
  C 463.46 49.72 462.98 59.01 463.09 67.79
  Q 463.35 89.81 463.25 111.32
  Q 463.24 113.46 464.30 115.32
  C 467.55 121.04 471.94 133.34 460.18 133.21
  C 453.95 133.14 451.70 129.76 447.62 125.92
  Q 444.14 122.64 442.56 119.69
  C 440.73 116.24 437.45 111.11 433.47 116.71
  C 426.58 126.42 411.36 128.75 400.25 127.25
  C 381.04 124.67 368.72 107.21 366.25 89.25
  C 364.71 78.09 363.98 67.79 372.11 59.12
  Z
  M 438.05 62.64
  C 438.86 60.25 441.65 53.32 436.81 55.11
  Q 430.15 57.58 425.00 56.50
  Q 416.21 54.66 408.08 55.20
  Q 405.91 55.34 404.20 56.68
  Q 396.39 62.79 390.89 70.93
  C 387.84 75.46 388.25 80.13 388.00 85.75
  C 387.55 95.74 390.76 102.02 397.94 108.98
  Q 400.55 111.50 403.12 111.89
  C 408.66 112.71 409.95 109.20 413.18 105.99
  Q 417.32 101.88 420.88 97.26
  C 421.96 95.86 422.38 94.10 423.57 92.62
  C 429.89 84.69 434.79 72.24 438.05 62.64
  Z"
/>
<path fill="#000000" d="
  M 301.75 70.20
  Q 301.00 71.01 299.56 71.56
  C 289.43 75.50 275.14 85.60 281.25 98.50
  C 285.87 108.25 301.73 108.80 310.56 107.10
  C 313.87 106.47 317.92 106.50 321.42 105.22
  C 325.65 103.69 330.80 102.36 332.20 97.99
  Q 334.07 92.13 333.75 86.25
  Q 333.17 75.82 334.08 66.23
  C 334.60 60.71 338.15 55.30 340.93 50.62
  Q 341.17 50.22 341.21 49.69
  C 341.51 46.00 345.39 42.44 348.39 40.86
  C 352.24 38.83 355.66 39.42 359.32 41.48
  A 2.69 2.68 -77.8 0 1 360.70 43.63
  C 361.01 47.51 360.04 51.11 359.76 54.00
  C 358.62 65.76 358.88 77.93 357.91 89.78
  C 356.83 103.06 355.76 116.51 355.95 129.83
  Q 356.10 140.73 348.14 148.16
  C 346.69 149.52 342.58 152.24 340.51 152.87
  C 335.91 154.29 330.92 156.37 326.75 157.49
  C 305.60 163.20 285.98 162.22 264.38 160.51
  C 261.37 160.27 256.85 159.43 255.06 157.69
  C 250.05 152.79 257.10 150.55 260.30 149.20
  C 267.50 146.17 279.66 148.28 287.49 148.99
  Q 304.99 150.59 320.81 142.81
  C 324.03 141.23 325.78 136.34 327.51 133.09
  C 330.18 128.08 328.55 123.39 321.82 124.37
  C 309.65 126.16 299.42 124.99 285.04 123.16
  C 268.79 121.08 251.38 108.76 257.18 89.63
  C 259.22 82.88 262.88 75.82 268.81 71.39
  C 283.94 60.08 300.53 50.59 320.40 51.43
  C 323.94 51.58 326.58 53.94 324.19 57.44
  C 322.56 59.82 319.13 61.18 316.73 62.48
  Q 309.73 66.26 302.51 69.61
  Q 302.15 69.77 301.75 70.20
  Z"
/>
<path fill="#000000" d="
  M 252.75 124.74
  C 257.08 125.24 277.28 126.00 277.09 132.42
  C 276.76 143.76 232.82 137.82 226.95 136.81
  Q 226.81 136.78 223.53 136.47
  C 221.52 136.27 219.86 135.32 218.11 135.01
  Q 209.59 133.47 201.41 130.65
  C 194.31 128.19 186.62 127.11 180.18 122.90
  C 176.57 120.55 172.85 112.00 172.18 107.86
  Q 170.01 94.37 170.35 80.70
  C 170.52 73.81 170.38 64.48 177.49 61.16
  Q 189.05 55.74 200.94 47.86
  Q 201.67 47.37 202.54 47.27
  Q 212.93 46.00 222.75 46.25
  C 229.92 46.44 234.53 49.50 238.81 54.60
  C 243.98 60.77 242.40 68.92 238.25 75.25
  C 232.24 84.43 220.21 87.04 209.50 89.50
  Q 207.56 89.95 198.44 92.94
  Q 195.03 94.05 194.24 96.82
  C 190.72 109.02 197.96 111.06 207.95 115.16
  Q 218.66 119.55 225.00 120.75
  C 236.85 122.99 244.70 123.82 252.75 124.74
  Z
  M 195.77 76.64
  C 201.81 77.09 214.98 74.94 218.19 68.44
  Q 219.84 65.08 217.02 63.42
  C 213.98 61.63 209.40 64.08 206.19 64.33
  C 200.09 64.80 195.46 67.16 193.49 73.27
  Q 192.48 76.40 195.77 76.64
  Z"
/>
<path fill="#000000" d="
  M 163.81 177.44
  C 172.96 185.48 178.22 197.50 175.54 209.55
  Q 174.38 214.75 174.12 217.08
  C 173.56 221.90 173.13 228.46 171.51 234.09
  C 170.61 237.23 170.88 240.07 170.01 243.09
  C 168.82 247.22 168.48 250.90 168.01 254.95
  Q 167.61 258.29 170.98 258.25
  Q 175.79 258.19 180.38 256.80
  C 192.55 253.10 203.96 249.07 215.81 243.15
  C 220.91 240.61 234.54 235.95 237.31 230.73
  C 240.82 224.11 239.40 214.32 239.77 206.86
  Q 239.87 204.88 238.67 203.30
  C 234.44 197.67 229.46 192.75 224.66 187.60
  C 215.75 178.06 197.26 174.97 184.89 173.86
  C 182.08 173.61 179.31 172.79 176.68 172.63
  Q 167.09 172.02 157.59 170.70
  C 147.98 169.37 141.18 166.88 138.95 157.19
  C 137.79 152.14 140.42 149.66 145.50 150.25
  Q 171.51 153.24 180.69 154.81
  Q 203.97 158.79 227.33 162.25
  Q 230.31 162.69 233.09 163.90
  C 240.26 167.02 248.12 170.27 253.66 175.96
  C 267.60 190.30 267.91 213.02 266.75 232.25
  C 266.04 243.96 259.35 250.54 248.69 254.19
  C 244.84 255.50 241.40 257.41 238.58 258.61
  C 224.70 264.48 209.72 266.21 195.58 271.62
  C 192.00 272.99 189.59 273.73 185.24 274.30
  C 182.66 274.64 180.65 276.33 178.52 277.08
  C 170.43 279.94 163.00 283.91 154.38 286.73
  C 151.60 287.65 147.68 289.59 144.00 289.50
  C 135.74 289.29 136.51 282.90 136.72 276.91
  C 136.85 272.90 138.65 269.37 139.25 265.75
  C 143.35 241.05 145.47 226.62 150.68 207.11
  C 151.83 202.82 149.20 198.02 147.05 194.44
  C 144.56 190.29 146.45 178.48 151.06 176.59
  C 155.08 174.94 160.43 174.47 163.81 177.44
  Z"
/>
<path fill="#000000" d="
  M 510.86 216.90
  C 512.91 220.38 515.02 219.26 518.11 218.55
  C 527.08 216.50 536.67 214.68 545.31 211.54
  C 557.16 207.25 580.43 212.29 585.64 225.33
  Q 588.99 233.69 582.45 238.12
  C 579.18 240.34 575.13 242.52 580.53 245.99
  C 583.83 248.10 606.12 259.12 597.41 265.15
  C 593.80 267.66 587.65 267.70 583.53 265.87
  C 579.90 264.26 576.65 264.67 572.89 263.14
  C 568.65 261.42 565.05 260.06 558.99 257.29
  C 548.62 252.56 536.81 249.87 525.80 246.97
  C 522.77 246.17 520.04 244.75 516.39 245.23
  Q 513.96 245.55 513.75 247.99
  Q 513.18 254.54 512.02 261.00
  Q 510.85 267.51 503.75 268.00
  C 496.84 268.47 494.63 263.45 494.47 257.56
  C 494.23 249.05 494.17 240.51 492.37 232.16
  C 490.11 221.64 489.24 211.98 488.64 201.62
  Q 488.54 199.83 487.62 196.52
  C 485.42 188.63 485.53 180.98 492.24 175.16
  C 495.45 172.37 504.75 169.49 504.75 177.17
  C 504.75 190.66 503.93 205.14 510.86 216.90
  Z
  M 534.40 230.19
  C 534.24 233.88 537.67 233.12 539.92 233.53
  C 543.58 234.19 565.40 236.36 562.75 228.26
  A 2.19 2.19 82.3 0 0 560.77 226.75
  C 554.95 226.48 539.06 225.28 534.80 229.33
  A 1.30 1.22 -21.9 0 0 534.40 230.19
  Z"
/>
<path fill="#000000" d="
  M 483.04 254.06
  C 461.91 273.61 409.53 275.87 391.87 248.61
  C 385.37 238.59 379.70 221.93 383.74 210.20
  Q 387.40 199.60 392.06 192.56
  C 409.28 166.57 444.20 169.95 467.60 184.13
  Q 469.85 185.49 471.80 188.42
  A 2.41 2.40 38.9 0 1 472.04 190.62
  C 469.46 197.29 457.69 192.50 453.19 190.99
  Q 445.83 188.53 443.14 188.07
  Q 435.04 186.69 426.90 188.37
  C 423.09 189.16 417.85 193.18 415.18 196.03
  C 411.40 200.06 404.80 206.22 404.46 210.69
  C 403.92 217.82 401.89 224.12 405.02 231.48
  C 407.85 238.16 413.97 245.12 419.84 249.30
  C 430.34 256.76 448.01 253.35 459.86 250.53
  C 466.17 249.02 472.12 248.64 478.33 247.74
  Q 480.85 247.37 482.77 249.03
  Q 485.72 251.58 483.04 254.06
  Z"
/>
<path fill="#000000" d="
  M 289.52 258.44
  C 288.09 256.76 286.09 255.30 284.84 253.17
  C 277.53 240.72 276.15 227.32 275.99 213.00
  Q 275.91 205.96 274.80 199.03
  C 272.88 187.14 284.98 186.57 291.38 192.39
  C 295.72 196.33 295.11 202.50 294.50 208.00
  C 293.09 220.68 295.14 241.36 306.73 249.56
  C 312.82 253.87 324.29 253.82 331.50 253.00
  C 340.77 251.95 347.21 247.20 350.49 238.64
  Q 352.39 233.71 352.75 230.75
  Q 353.54 224.35 354.25 222.25
  C 356.02 217.04 351.66 202.58 360.60 199.91
  Q 365.55 198.44 369.94 201.31
  C 372.96 203.30 372.48 205.98 372.52 209.19
  Q 372.64 216.89 371.75 220.00
  C 370.67 223.78 371.18 224.64 372.31 228.94
  C 374.87 238.65 378.06 246.25 381.90 257.72
  C 384.42 265.22 383.18 272.27 374.19 273.69
  C 364.56 275.21 364.50 261.16 354.75 262.73
  Q 347.10 263.95 343.81 265.56
  C 340.77 267.06 338.59 267.05 336.12 267.70
  Q 322.83 271.21 309.48 267.63
  Q 309.03 267.51 308.51 267.62
  C 304.20 268.52 292.01 261.34 289.52 258.44
  Z"
/>
</svg>
