<?xml version="1.0" encoding="UTF-8" standalone="no"?>
<!DOCTYPE svg PUBLIC "-//W3C//DTD SVG 1.1//EN" "http://www.w3.org/Graphics/SVG/1.1/DTD/svg11.dtd">
<svg xmlns="http://www.w3.org/2000/svg" version="1.1" viewBox="0 0 600 135">
<g stroke-width="2.00" fill="none" stroke-linecap="butt">
<path stroke="#8993cb" vector-effect="non-scaling-stroke" d="
  M 329.56 41.93
  L 329.50 19.92
  A 0.65 0.63 89.6 0 0 328.86 19.27
  L 313.44 19.42
  A 0.59 0.50 -0.5 0 0 312.85 19.93
  L 312.95 24.45
  A 0.64 0.48 0.7 0 0 313.57 24.93
  L 322.94 25.27
  A 0.54 0.51 -89.5 0 1 323.44 25.81
  L 323.50 40.52
  A 0.99 0.97 -0.3 0 1 322.51 41.50
  C 315.17 41.50 303.75 44.62 303.75 33.28
  Q 303.75 25.76 303.75 18.23
  C 303.75 13.05 305.63 10.03 311.00 10.02
  Q 319.00 10.00 327.00 10.00
  C 328.26 10.00 330.09 11.13 329.50 8.24
  Q 329.29 7.22 329.51 6.21
  C 330.05 3.74 328.41 4.25 326.91 4.25
  C 318.36 4.25 303.67 1.58 299.15 10.78
  C 296.69 15.81 297.70 26.25 297.56 32.50
  Q 297.31 43.44 305.21 46.40
  C 311.20 48.65 325.24 47.13 333.59 47.27
  A 1.25 1.24 -80.3 0 0 334.78 46.42
  Q 340.35 29.42 346.24 12.45
  C 348.36 6.35 352.30 8.67 353.86 13.33
  Q 358.51 27.18 363.25 40.99
  A 0.39 0.39 -9.2 0 1 362.88 41.50
  Q 355.75 41.50 348.75 41.42
  Q 346.61 41.39 347.31 43.29
  A 1.64 1.56 43.5 0 1 347.36 44.23
  Q 347.01 45.62 347.40 46.97
  A 0.71 0.66 -7.6 0 0 348.07 47.44
  L 371.02 47.44
  A 0.46 0.46 80.4 0 0 371.45 46.83
  Q 365.96 30.92 360.75 15.25
  Q 358.48 8.45 356.59 6.38
  C 351.75 1.06 343.08 3.55 340.69 10.44
  C 339.73 13.20 329.94 42.29 329.79 42.28
  A 0.36 0.25 -88.4 0 1 329.56 41.93"
/>
<path stroke="#8993cb" vector-effect="non-scaling-stroke" d="
  M 246.72 33.33
  C 246.29 34.40 230.02 34.03 227.81 34.06
  A 0.53 0.49 -88.1 0 0 227.32 34.56
  L 226.99 38.80
  A 0.89 0.83 -87.7 0 0 227.81 39.75
  C 232.64 39.77 246.57 40.98 250.19 38.37
  C 253.90 35.71 253.50 30.08 249.64 27.78
  C 246.27 25.77 242.34 27.39 238.69 26.05
  C 230.15 22.93 232.00 10.92 240.50 10.25
  Q 246.92 9.75 257.74 10.04
  C 259.11 10.08 260.84 11.03 260.25 8.24
  Q 260.04 7.23 260.26 6.23
  Q 260.74 3.99 258.81 4.16
  C 248.90 5.05 235.53 1.05 229.44 10.70
  C 224.57 18.43 227.67 27.99 236.08 31.42
  C 239.13 32.66 242.82 32.54 246.20 32.56
  A 0.57 0.56 11.1 0 1 246.72 33.33"
/>
<path stroke="#8993cb" vector-effect="non-scaling-stroke" d="
  M 275.00 4.36
  C 260.00 4.53 263.25 22.91 263.25 32.14
  C 263.25 38.35 263.87 42.98 269.36 45.84
  C 274.81 48.69 288.05 47.25 294.66 47.25
  A 0.83 0.78 -2.2 0 0 295.49 46.41
  L 295.11 42.07
  A 0.63 0.61 -1.9 0 0 294.48 41.50
  Q 285.25 41.50 277.00 41.69
  Q 268.60 41.87 268.80 33.50
  Q 269.00 25.25 269.08 17.00
  Q 269.15 10.70 275.25 10.25
  Q 283.17 9.67 294.68 10.16
  A 0.61 0.47 1.7 0 0 295.32 9.70
  L 295.30 5.21
  A 1.10 0.97 -0.3 0 0 294.20 4.25
  Q 284.00 4.25 275.00 4.36"
/>
<path stroke="#8a94cc" vector-effect="non-scaling-stroke" d="
  M 347.41 36.32
  L 347.60 39.33
  A 0.63 0.55 0.8 0 0 348.18 39.85
  Q 354.32 40.33 360.44 39.74
  A 0.42 0.41 78.5 0 0 360.79 39.20
  Q 354.18 17.99 351.81 12.19
  C 350.22 8.27 348.27 11.20 347.60 13.21
  Q 341.97 30.00 336.25 46.76
  A 0.43 0.40 -79.1 0 0 336.61 47.33
  L 342.32 47.35
  A 0.82 0.70 -75.7 0 0 343.01 46.86
  C 343.88 44.80 346.43 36.28 346.96 35.96
  A 0.38 0.29 76.3 0 1 347.41 36.32"
/>
<path stroke="#8993cb" vector-effect="non-scaling-stroke" d="
  M 240.40 18.49
  C 239.90 17.11 257.92 17.68 259.43 17.69
  A 0.62 0.50 0.5 0 0 260.05 17.20
  L 260.15 12.31
  A 0.62 0.55 -0.5 0 0 259.51 11.75
  Q 251.07 11.95 242.62 11.99
  Q 238.99 12.01 237.19 13.30
  C 233.60 15.88 234.02 21.11 237.39 23.67
  C 240.85 26.32 245.50 23.99 249.45 25.92
  C 255.13 28.68 256.11 35.64 251.12 39.73
  C 247.43 42.77 233.46 41.52 228.02 41.49
  A 0.60 0.56 2.7 0 0 227.43 42.00
  L 227.00 46.74
  A 0.76 0.68 3.2 0 0 227.74 47.49
  Q 236.70 47.61 244.99 47.38
  C 256.72 47.04 264.75 36.43 257.73 25.70
  Q 253.03 18.51 241.89 19.45
  A 1.46 1.46 77.7 0 1 240.40 18.49"
/>
<path stroke="#8993cb" vector-effect="non-scaling-stroke" d="
  M 276.69 18.71
  C 276.55 16.92 290.44 17.79 292.31 17.97
  Q 296.61 18.40 295.30 12.31
  A 0.71 0.71 83.9 0 0 294.61 11.75
  Q 284.78 11.70 274.81 11.81
  C 269.30 11.87 270.75 20.86 270.75 24.39
  A 0.55 0.54 -90.0 0 0 271.29 24.94
  L 290.43 24.94
  A 0.65 0.48 0.0 0 0 291.08 24.46
  L 291.03 20.21
  A 1.12 0.98 -0.3 0 0 289.91 19.24
  L 277.30 19.20
  A 0.62 0.53 -2.0 0 1 276.69 18.71"
/>
<path stroke="#8993cb" vector-effect="non-scaling-stroke" d="
  M 316.15 32.98
  Q 316.22 33.23 316.16 33.49
  A 0.93 0.68 -1.8 0 1 315.46 34.04
  Q 313.32 34.43 311.65 33.30
  A 1.00 1.00 -73.6 0 1 311.21 32.49
  L 311.05 19.65
  Q 311.02 17.74 312.97 17.71
  L 328.95 17.43
  A 0.54 0.47 -1.1 0 0 329.48 16.95
  L 329.38 12.43
  A 0.58 0.53 0.1 0 0 328.82 11.92
  Q 321.66 11.61 314.50 11.75
  C 310.48 11.83 305.29 11.07 305.28 16.75
  Q 305.25 25.62 305.25 34.50
  C 305.25 42.20 316.31 39.75 321.34 39.75
  A 0.66 0.66 0.1 0 0 322.00 39.09
  L 322.00 27.75
  A 1.21 1.18 0.0 0 0 320.79 26.57
  L 313.80 26.58
  A 1.15 0.83 13.6 0 0 312.97 26.92
  Q 312.24 27.82 312.58 29.03
  Q 312.72 29.54 312.65 30.00
  Q 312.12 33.14 315.47 32.64
  A 0.65 0.50 -11.0 0 1 316.15 32.98"
/>
<path stroke="#8993cb" vector-effect="non-scaling-stroke" d="
  M 295.37 34.68
  Q 295.40 34.51 295.34 34.34
  A 0.87 0.55 -5.2 0 0 294.56 33.94
  Q 286.42 34.04 278.28 34.00
  C 277.33 34.00 274.82 32.55 278.25 32.53
  Q 284.25 32.50 290.33 32.50
  A 0.91 0.89 -0.0 0 0 291.24 31.61
  L 291.24 27.92
  A 1.66 1.52 -0.6 0 0 289.55 26.40
  L 271.30 26.66
  A 0.56 0.53 -0.6 0 0 270.75 27.19
  C 270.75 30.55 269.38 39.75 274.50 39.75
  Q 284.37 39.75 294.25 39.75
  A 1.90 0.60 -73.9 0 0 295.25 38.25
  Q 295.72 36.77 295.35 35.33
  Q 295.29 35.12 295.37 34.68"
/>
<path stroke="#8a94cc" vector-effect="non-scaling-stroke" d="
  M 349.44 28.42
  L 348.00 32.54
  A 0.48 0.46 -74.6 0 0 348.34 33.17
  Q 350.12 33.52 351.27 33.18
  A 0.54 0.53 73.2 0 0 351.62 32.51
  L 350.38 28.39
  Q 349.95 26.96 349.44 28.42"
/>
<path stroke="#714403" vector-effect="non-scaling-stroke" d="
  M 599.50 86.04
  C 594.54 84.25 591.07 86.87 586.27 85.00
  A 0.49 0.46 19.6 0 0 585.63 85.28
  L 584.79 88.00"
/>
<path stroke="#755318" vector-effect="non-scaling-stroke" d="
  M 584.79 88.00
  L 581.49 92.10"
/>
<path stroke="#7e734f" vector-effect="non-scaling-stroke" d="
  M 581.49 92.10
  L 577.25 94.71"
/>
<path stroke="#7d7f7f" vector-effect="non-scaling-stroke" d="
  M 577.25 94.71
  Q 566.00 99.59 553.75 100.79
  C 535.91 102.55 518.34 102.75 500.44 102.75
  Q 297.47 102.72 94.50 102.79"
/>
<path stroke="#808080" vector-effect="non-scaling-stroke" d="
  M 94.50 102.79
  C 77.46 102.83 57.24 102.50 39.75 99.78
  Q 31.20 98.44 23.25 95.04"
/>
<path stroke="#7d6b3d" vector-effect="non-scaling-stroke" d="
  M 23.25 95.04
  L 17.07 90.83"
/>
<path stroke="#714403" vector-effect="non-scaling-stroke" d="
  M 17.07 90.83
  L 15.08 87.64
  A 2.25 1.74 62.4 0 0 12.75 86.57
  Q 6.16 89.09 1.56 87.44
  Q 0.79 87.16 0.71 87.75"
/>
<path stroke="#808080" vector-effect="non-scaling-stroke" d="
  M 61.25 60.04
  C 48.04 61.01 5.07 65.96 0.80 82.76
  C -0.96 89.68 10.76 86.41 13.98 85.12
  A 0.73 0.66 79.3 0 0 14.40 84.43
  C 13.99 73.34 39.19 68.29 47.00 67.21"
/>
<path stroke="#3d5180" vector-effect="non-scaling-stroke" d="
  M 47.00 67.21
  Q 68.51 63.69 86.50 63.50
  C 151.25 62.83 229.08 63.45 300.25 63.31
  C 360.84 63.18 414.60 63.67 502.50 63.25
  Q 525.11 63.14 553.00 66.96"
/>
<path stroke="#808080" vector-effect="non-scaling-stroke" d="
  M 553.00 66.96
  C 562.16 68.61 582.43 72.53 585.55 82.59
  A 1.56 1.26 -85.2 0 0 586.08 83.37
  C 589.53 85.87 594.39 83.59 598.46 84.44
  A 0.91 0.91 87.0 0 0 599.51 83.27
  C 592.87 62.96 539.81 59.51 522.50 58.79"
/>
<path stroke="#626c80" vector-effect="non-scaling-stroke" d="
  M 522.50 58.79
  C 378.92 57.77 236.48 58.47 93.50 58.52
  Q 77.34 58.53 61.25 60.04"
/>
<path stroke="#e2ebff" vector-effect="non-scaling-stroke" d="
  M 522.50 58.79
  C 520.13 59.05 517.66 58.72 515.38 59.05
  Q 512.43 59.47 516.50 59.79"
/>
<path stroke="#87a7ee" vector-effect="non-scaling-stroke" d="
  M 516.50 59.79
  C 478.26 60.13 439.99 60.06 401.75 60.03
  C 334.86 59.99 271.70 60.14 200.96 59.95
  C 195.46 59.93 188.06 59.56 181.50 60.21"
/>
<path stroke="#87a7ee" vector-effect="non-scaling-stroke" d="
  M 181.50 60.21
  C 150.26 59.76 119.01 60.44 87.78 59.85
  Q 76.63 59.63 65.54 61.25"
/>
<path stroke="#93b3f8" vector-effect="non-scaling-stroke" d="
  M 65.54 61.25
  L 61.25 60.96"
/>
<path stroke="#e2ebff" vector-effect="non-scaling-stroke" d="
  M 61.25 60.96
  Q 63.06 60.71 61.25 60.04"
/>
<path stroke="#bcd0ff" vector-effect="non-scaling-stroke" d="
  M 553.00 66.96
  L 554.25 66.29"
/>
<path stroke="#b1c7f8" vector-effect="non-scaling-stroke" d="
  M 554.25 66.29
  Q 563.11 67.30 571.50 70.29"
/>
<path stroke="#e2ebff" vector-effect="non-scaling-stroke" d="
  M 571.50 70.29
  C 577.17 72.62 581.70 75.03 587.99 74.31
  Q 589.56 74.13 588.20 73.32
  Q 582.67 70.04 576.50 68.29"
/>
<path stroke="#b1c7f8" vector-effect="non-scaling-stroke" d="
  M 576.50 68.29
  C 566.26 64.91 556.11 63.47 545.51 61.91
  Q 540.29 61.14 535.00 61.21"
/>
<path stroke="#a4bbee" vector-effect="non-scaling-stroke" d="
  M 535.00 61.21
  C 530.89 61.29 526.49 60.27 522.99 60.09
  Q 519.75 59.93 516.50 59.79"
/>
<path stroke="#6e98f8" vector-effect="non-scaling-stroke" d="
  M 68.00 62.71
  Q 61.35 64.39 54.50 64.73
  Q 50.62 64.93 47.00 66.29"
/>
<path stroke="#80a4f6" vector-effect="non-scaling-stroke" d="
  M 35.00 68.29
  Q 33.29 68.69 32.30 67.63
  A 0.93 0.86 62.3 0 0 31.50 67.35
  Q 28.89 67.83 30.50 66.04"
/>
<path stroke="#b1c7f8" vector-effect="non-scaling-stroke" d="
  M 61.25 60.96
  C 51.08 62.20 40.37 63.22 30.50 66.04"
/>
<path stroke="#ceddfd" vector-effect="non-scaling-stroke" d="
  M 30.50 66.04
  Q 23.97 67.44 17.79 70.00"
/>
<path stroke="#e6eefe" vector-effect="non-scaling-stroke" d="
  M 17.79 70.00
  C 17.46 70.12 7.08 74.95 12.57 74.37
  Q 14.48 74.17 16.29 74.82
  A 1.87 1.44 42.3 0 0 17.24 74.90
  Q 20.49 74.21 23.25 72.29"
/>
<path stroke="#ceddfd" vector-effect="non-scaling-stroke" d="
  M 23.25 72.29
  L 35.00 68.29"
/>
<path stroke="#b1c7f8" vector-effect="non-scaling-stroke" d="
  M 35.00 68.29
  L 47.00 66.29"
/>
<path stroke="#bcd0ff" vector-effect="non-scaling-stroke" d="
  M 47.00 66.29
  Q 47.45 66.75 47.00 67.21"
/>
<path stroke="#4976dd" vector-effect="non-scaling-stroke" d="
  M 181.50 60.21
  Q 183.82 59.70 183.25 61.46"
/>
<path stroke="#618cee" vector-effect="non-scaling-stroke" d="
  M 183.25 61.46
  Q 156.18 61.71 143.75 62.00
  C 139.36 62.10 134.97 61.50 131.08 61.61
  C 119.31 61.94 105.80 60.90 93.15 61.83
  C 88.31 62.18 81.90 61.94 76.30 62.87
  C 73.23 63.38 70.97 62.98 68.00 62.71"
/>
<path stroke="#5682e7" vector-effect="non-scaling-stroke" d="
  M 68.00 62.71
  Q 65.77 63.10 65.54 61.25"
/>
<path stroke="#5682e7" vector-effect="non-scaling-stroke" d="
  M 535.00 61.21
  Q 535.99 63.10 532.97 63.09"
/>
<path stroke="#618cee" vector-effect="non-scaling-stroke" d="
  M 532.97 63.09
  Q 515.19 62.02 507.50 62.00
  Q 485.65 61.93 463.80 61.64
  C 446.34 61.40 428.90 62.02 411.42 61.77
  Q 405.90 61.69 397.25 61.75
  Q 357.00 62.03 252.94 61.60
  C 229.70 61.51 206.50 61.95 183.25 61.46"
/>
<path stroke="#93b3f8" vector-effect="non-scaling-stroke" d="
  M 576.50 68.29
  Q 576.36 70.48 574.67 69.52
  A 1.16 0.95 -36.2 0 0 573.79 69.47
  L 571.50 70.29"
/>
<path stroke="#6e98f8" vector-effect="non-scaling-stroke" d="
  M 554.25 66.29
  Q 551.71 65.37 549.02 65.10
  C 547.11 64.91 545.50 64.09 543.00 64.25
  Q 540.20 64.43 532.97 63.09"
/>
<path stroke="#b5cbfc" vector-effect="non-scaling-stroke" d="
  M 23.25 72.29
  C 21.96 71.83 17.53 71.63 17.79 70.00"
/>
<path stroke="#354b7c" vector-effect="non-scaling-stroke" d="
  M 129.04 70.39
  L 129.29 74.00"
/>
<path stroke="#76787e" vector-effect="non-scaling-stroke" d="
  M 129.29 74.00
  C 128.25 76.73 130.54 76.00 132.01 76.00
  Q 162.85 75.96 193.70 76.06
  A 0.79 0.78 -6.2 0 0 194.47 75.11
  C 193.44 70.48 190.35 69.00 185.65 69.00
  Q 158.46 69.00 131.27 69.00
  C 130.24 69.00 128.50 68.34 129.04 70.39"
/>
<path stroke="#aac3fa" vector-effect="non-scaling-stroke" d="
  M 129.29 74.00
  Q 130.24 73.57 131.25 74.04"
/>
<path stroke="#c4d5fc" vector-effect="non-scaling-stroke" d="
  M 131.25 74.04
  Q 135.13 74.54 139.00 73.79"
/>
<path stroke="#aac3fa" vector-effect="non-scaling-stroke" d="
  M 139.00 73.79
  Q 153.87 73.51 164.50 74.25
  C 168.03 74.49 171.18 73.74 174.17 73.89
  Q 181.12 74.25 188.07 74.03
  C 189.19 74.00 192.63 75.03 191.33 72.52
  C 190.46 70.83 187.73 70.19 186.00 70.19
  Q 157.52 70.20 129.04 70.39"
/>
<path stroke="#83a8f9" vector-effect="non-scaling-stroke" d="
  M 139.00 73.79
  L 131.25 74.04"
/>
<path stroke="#354b7c" vector-effect="non-scaling-stroke" d="
  M 201.29 70.50
  L 201.29 73.70"
/>
<path stroke="#76787e" vector-effect="non-scaling-stroke" d="
  M 201.29 73.70
  Q 200.53 76.07 203.75 76.00
  Q 215.50 75.73 243.69 76.18
  A 0.51 0.49 1.1 0 0 244.21 75.70
  L 244.24 69.66
  A 0.67 0.66 0.0 0 0 243.57 69.00
  L 201.99 69.00
  A 0.78 0.62 6.9 0 0 201.28 69.44
  Q 201.11 69.94 201.29 70.50"
/>
<path stroke="#aac3fa" vector-effect="non-scaling-stroke" d="
  M 201.29 73.70
  L 240.95 74.17
  A 1.23 1.06 19.6 0 0 241.81 73.84
  C 243.82 71.78 242.25 70.33 239.90 70.29
  Q 220.59 70.03 201.29 70.50"
/>
<path stroke="#6f737d" vector-effect="non-scaling-stroke" d="
  M 297.81 76.07
  A 0.44 0.44 0.0 0 0 298.25 75.63
  L 298.25 69.66
  A 0.66 0.66 -0.1 0 0 297.59 69.00
  Q 279.73 69.00 262.16 69.00
  C 255.77 69.00 252.39 68.39 250.34 74.76
  A 0.95 0.94 9.1 0 0 251.24 76.00
  L 297.81 76.07"
/>
<path stroke="#76787e" vector-effect="non-scaling-stroke" d="
  M 307.00 73.65
  Q 305.70 75.94 308.33 75.95
  L 353.90 76.00
  A 0.82 0.82 -5.5 0 0 354.71 75.02
  C 353.85 70.67 350.89 69.07 346.48 69.05
  Q 329.87 68.97 313.25 69.15
  Q 309.52 69.19 307.00 73.65"
/>
<path stroke="#4f5d7e" vector-effect="non-scaling-stroke" d="
  M 390.75 76.21
  L 402.75 76.21"
/>
<path stroke="#676e7f" vector-effect="non-scaling-stroke" d="
  M 402.75 76.21
  L 409.71 76.12"
/>
<path stroke="#7d7f7f" vector-effect="non-scaling-stroke" d="
  M 409.71 76.12
  L 424.01 76.25
  A 1.02 0.99 -87.5 0 0 425.01 75.30
  Q 425.25 72.14 421.61 69.50
  A 2.70 2.43 60.0 0 0 420.08 69.00
  L 404.00 69.29"
/>
<path stroke="#4f5d7e" vector-effect="non-scaling-stroke" d="
  M 404.00 69.29
  L 389.75 69.21"
/>
<path stroke="#354b7c" vector-effect="non-scaling-stroke" d="
  M 389.75 69.21
  C 383.93 68.60 380.23 68.46 377.99 73.51
  Q 376.95 75.87 379.58 75.94
  L 390.75 76.21"
/>
<path stroke="#83a8f9" vector-effect="non-scaling-stroke" d="
  M 389.75 69.21
  Q 388.99 69.60 388.14 69.55
  A 1.11 0.49 12.1 0 0 387.41 69.70
  Q 387.19 69.88 387.23 70.09
  A 0.84 0.45 -0.5 0 0 387.99 70.49
  L 392.68 70.75
  A 0.33 0.31 -73.1 0 1 392.92 71.23
  Q 392.09 72.75 392.98 74.33
  A 0.65 0.58 55.2 0 1 392.89 75.10
  Q 391.99 75.88 390.75 76.21"
/>
<path stroke="#cbdcfd" vector-effect="non-scaling-stroke" d="
  M 404.00 69.29
  Q 403.62 70.53 404.75 70.54"
/>
<path stroke="#b5cbfc" vector-effect="non-scaling-stroke" d="
  M 404.75 70.54
  Q 405.32 72.34 404.46 74.09
  A 1.19 1.15 4.9 0 1 403.72 74.69
  Q 399.92 75.72 402.75 76.21"
/>
<path stroke="#e3edfe" vector-effect="non-scaling-stroke" d="
  M 409.71 76.12
  Q 411.01 73.97 409.35 71.05
  A 0.64 0.46 72.2 0 0 408.92 70.73
  L 404.75 70.54"
/>
<path stroke="#354b7c" vector-effect="non-scaling-stroke" d="
  M 432.28 70.50
  L 432.29 73.75"
/>
<path stroke="#76787e" vector-effect="non-scaling-stroke" d="
  M 432.29 73.75
  L 432.26 75.44
  A 0.55 0.49 0.5 0 0 432.81 75.94
  L 481.61 76.00
  A 0.44 0.43 -5.0 0 0 482.04 75.49
  C 481.25 70.80 478.68 69.07 473.89 69.04
  Q 453.36 68.92 432.82 69.06
  A 0.56 0.49 -0.5 0 0 432.26 69.56
  L 432.28 70.50"
/>
<path stroke="#aac3fa" vector-effect="non-scaling-stroke" d="
  M 432.29 73.75
  L 478.93 73.93
  A 0.41 0.39 -7.1 0 0 479.33 73.44
  Q 478.63 70.63 476.00 70.50
  Q 460.22 69.71 432.28 70.50"
/>
<path stroke="#7d7f7f" vector-effect="non-scaling-stroke" d="
  M 22.78 81.90
  Q 22.11 84.10 22.54 85.55"
/>
<path stroke="#120f0c" vector-effect="non-scaling-stroke" d="
  M 22.54 85.55
  Q 22.33 86.43 22.75 86.54"
/>
<path stroke="#7f7845" vector-effect="non-scaling-stroke" d="
  M 22.75 86.54
  Q 25.16 92.83 31.75 91.29"
/>
<path stroke="#7d7f7f" vector-effect="non-scaling-stroke" d="
  M 31.75 91.29
  C 40.15 87.68 37.98 76.39 29.47 77.08"
/>
<path stroke="#59657e" vector-effect="non-scaling-stroke" d="
  M 29.47 77.08
  Q 24.55 76.90 22.78 81.90"
/>
<path stroke="#d5e3fd" vector-effect="non-scaling-stroke" d="
  M 29.47 77.08
  Q 33.60 78.71 34.80 82.70
  A 0.48 0.48 -15.3 0 1 34.45 83.31
  C 31.48 84.03 25.06 85.05 22.78 81.90"
/>
<path stroke="#fcf7c4" vector-effect="non-scaling-stroke" d="
  M 31.75 91.29
  Q 31.17 90.55 31.75 89.79"
/>
<path stroke="#f1c782" vector-effect="non-scaling-stroke" d="
  M 31.75 89.79
  Q 34.04 89.04 34.71 86.75"
/>
<path stroke="#8f8e8b" vector-effect="non-scaling-stroke" d="
  M 34.71 86.75
  Q 35.39 86.42 35.26 85.94
  A 0.74 0.54 -10.4 0 0 34.50 85.57
  Q 28.55 86.35 22.54 85.55"
/>
<path stroke="#86580f" vector-effect="non-scaling-stroke" d="
  M 34.71 86.75
  Q 29.53 87.67 24.29 87.00"
/>
<path stroke="#918751" vector-effect="non-scaling-stroke" d="
  M 24.29 87.00
  Q 23.67 86.32 22.75 86.54"
/>
<path stroke="#f3c148" vector-effect="non-scaling-stroke" d="
  M 24.29 87.00
  Q 26.77 91.20 31.75 89.79"
/>
<path stroke="#744903" vector-effect="non-scaling-stroke" d="
  M 575.00 87.79
  Q 569.83 87.80 564.75 86.79"
/>
<path stroke="#7f7845" vector-effect="non-scaling-stroke" d="
  M 564.75 86.79
  L 563.55 86.37
  Q 562.99 86.16 563.25 86.78
  Q 565.24 91.46 570.50 91.71"
/>
<path stroke="#7d7f7f" vector-effect="non-scaling-stroke" d="
  M 570.50 91.71
  C 577.49 91.15 580.52 82.35 574.71 78.35
  C 569.34 74.65 563.92 77.80 562.95 84.09
  A 1.20 1.20 86.7 0 0 564.45 85.43
  C 566.22 84.95 567.46 85.98 568.85 86.15
  C 570.73 86.37 576.64 85.26 575.00 87.79"
/>
<path stroke="#fcf7c4" vector-effect="non-scaling-stroke" d="
  M 570.50 91.71
  Q 570.24 90.74 571.00 90.29"
/>
<path stroke="#f1c782" vector-effect="non-scaling-stroke" d="
  M 571.00 90.29
  Q 573.55 89.92 575.00 87.79"
/>
<path stroke="#f3c148" vector-effect="non-scaling-stroke" d="
  M 564.75 86.79
  Q 566.77 90.37 571.00 90.29"
/>
<path stroke="#755318" vector-effect="non-scaling-stroke" d="
  M 387.75 86.79
  Q 387.28 88.03 385.73 87.78"
/>
<path stroke="#6d3d04" vector-effect="non-scaling-stroke" d="
  M 385.73 87.78
  Q 384.06 87.95 382.28 88.97
  A 0.95 0.93 52.8 0 1 381.12 88.80
  Q 379.13 86.68 378.25 87.82
  A 1.33 0.83 68.5 0 0 378.08 88.74
  C 378.70 92.89 376.92 96.80 382.71 98.00"
/>
<path stroke="#755318" vector-effect="non-scaling-stroke" d="
  M 382.71 98.00
  Q 386.51 98.59 390.18 98.05"
/>
<path stroke="#7c6931" vector-effect="non-scaling-stroke" d="
  M 390.18 98.05
  L 395.00 98.21"
/>
<path stroke="#7f7845" vector-effect="non-scaling-stroke" d="
  M 395.00 98.21
  L 409.46 98.15"
/>
<path stroke="#808080" vector-effect="non-scaling-stroke" d="
  M 409.46 98.15
  Q 414.37 98.29 419.21 98.27
  C 422.89 98.25 425.41 96.30 425.49 92.64
  A 0.87 0.85 -89.3 0 0 424.64 91.75
  L 415.75 91.79"
/>
<path stroke="#7f7845" vector-effect="non-scaling-stroke" d="
  M 415.75 91.79
  L 399.66 91.85"
/>
<path stroke="#7c6931" vector-effect="non-scaling-stroke" d="
  M 399.66 91.85
  L 395.50 91.79"
/>
<path stroke="#755318" vector-effect="non-scaling-stroke" d="
  M 395.50 91.79
  Q 392.50 92.17 389.77 91.13
  A 1.13 0.78 10.0 0 1 389.11 90.48
  L 388.25 86.79"
/>
<path stroke="#808080" vector-effect="non-scaling-stroke" d="
  M 388.25 86.79
  Q 389.11 83.46 388.61 78.68
  A 0.82 0.78 -2.3 0 0 387.81 77.98
  L 378.55 77.84
  A 0.51 0.46 -0.5 0 0 378.04 78.31
  L 378.15 86.07
  A 0.51 0.48 -1.1 0 0 378.68 86.55
  C 379.39 86.53 379.52 86.44 380.24 86.69
  C 383.02 87.67 386.14 85.70 387.75 86.79"
/>
<path stroke="#f4d298" vector-effect="non-scaling-stroke" d="
  M 388.25 86.79
  Q 388.00 86.71 387.75 86.79"
/>
<path stroke="#f0bc49" vector-effect="non-scaling-stroke" d="
  M 395.50 91.79
  Q 394.09 94.10 394.79 96.72
  A 0.32 0.31 -4.9 0 1 394.45 97.12
  Q 392.09 96.85 390.18 98.05"
/>
<path stroke="#e28f1c" vector-effect="non-scaling-stroke" d="
  M 382.71 98.00
  Q 384.32 96.99 386.87 97.33
  Q 389.14 97.63 388.18 95.56
  Q 387.59 94.29 388.45 92.62
  A 0.89 0.80 -50.1 0 0 388.42 91.77
  L 385.73 87.78"
/>
<path stroke="#fbe176" vector-effect="non-scaling-stroke" d="
  M 399.66 91.85
  Q 403.60 96.68 397.25 97.25
  Q 395.53 97.41 395.00 98.21"
/>
<path stroke="#fff8c5" vector-effect="non-scaling-stroke" d="
  M 415.75 91.79
  Q 414.59 92.27 415.11 95.02
  A 1.21 1.20 -6.0 0 1 413.95 96.45
  Q 411.76 96.49 409.46 98.15"
/>
<path stroke="#764f06" vector-effect="non-scaling-stroke" d="
  M 138.96 87.50
  Q 135.34 88.57 131.57 88.46
  A 1.32 0.91 -12.3 0 1 130.69 88.10
  L 130.07 87.36
  A 1.47 0.49 57.3 0 0 129.34 86.77
  Q 128.68 86.58 128.80 87.05
  Q 128.99 87.84 129.00 88.00
  L 129.04 94.00"
/>
<path stroke="#7e734f" vector-effect="non-scaling-stroke" d="
  M 129.04 94.00
  L 129.04 95.50"
/>
<path stroke="#808080" vector-effect="non-scaling-stroke" d="
  M 129.04 95.50
  Q 128.15 98.66 130.63 98.41
  C 133.56 98.12 136.57 98.25 139.73 98.25
  A 0.52 0.52 -89.4 0 0 140.25 97.74
  L 140.51 79.40
  A 1.35 1.27 -90.0 0 0 139.22 78.03
  L 129.69 78.15
  A 0.53 0.52 89.4 0 0 129.18 78.68
  L 129.19 84.56
  Q 129.19 87.62 132.00 87.25
  L 138.20 86.43
  A 1.06 0.50 -12.6 0 1 139.08 86.63
  Q 139.36 87.01 138.96 87.50"
/>
<path stroke="#fdf2ce" vector-effect="non-scaling-stroke" d="
  M 129.04 95.50
  L 137.75 95.49
  A 1.00 0.79 12.3 0 0 138.55 95.10
  Q 138.93 94.50 138.96 93.75"
/>
<path stroke="#f6ce85" vector-effect="non-scaling-stroke" d="
  M 138.96 93.75
  L 138.96 87.50"
/>
<path stroke="#f4c154" vector-effect="non-scaling-stroke" d="
  M 138.96 93.75
  L 129.04 94.00"
/>
<path stroke="#764f06" vector-effect="non-scaling-stroke" d="
  M 166.29 85.34
  Q 163.65 87.71 160.73 87.12
  A 1.89 1.71 -45.7 0 0 159.78 87.18
  Q 157.79 87.86 155.98 86.82
  Q 155.55 86.58 155.57 87.07
  L 155.79 92.75"
/>
<path stroke="#7f7845" vector-effect="non-scaling-stroke" d="
  M 155.79 92.75
  L 155.79 95.25"
/>
<path stroke="#808080" vector-effect="non-scaling-stroke" d="
  M 155.79 95.25
  L 155.76 97.74
  A 0.53 0.51 0.0 0 0 156.29 98.25
  L 167.44 98.25
  A 0.56 0.56 0.0 0 0 168.00 97.69
  L 168.00 78.84
  A 0.78 0.77 -89.6 0 0 167.24 78.06
  L 156.27 78.00
  A 0.52 0.52 0.0 0 0 155.75 78.52
  L 155.75 84.75
  A 0.97 0.87 -75.4 0 0 156.16 85.54
  C 158.25 86.91 160.02 85.78 161.78 85.66
  Q 164.02 85.51 166.29 85.34"
/>
<path stroke="#fff8c5" vector-effect="non-scaling-stroke" d="
  M 155.79 95.25
  Q 159.46 95.57 164.50 95.25
  Q 166.38 95.13 165.96 93.25"
/>
<path stroke="#f6ce85" vector-effect="non-scaling-stroke" d="
  M 165.96 93.25
  Q 166.73 89.84 166.29 85.34"
/>
<path stroke="#f5c74b" vector-effect="non-scaling-stroke" d="
  M 165.96 93.25
  Q 160.84 93.62 155.79 92.75"
/>
<path stroke="#775606" vector-effect="non-scaling-stroke" d="
  M 192.83 83.87
  Q 188.01 86.53 183.28 84.52
  A 0.35 0.33 12.0 0 0 182.80 84.81
  L 182.79 92.25"
/>
<path stroke="#7f7845" vector-effect="non-scaling-stroke" d="
  M 182.79 92.25
  L 182.79 95.25"
/>
<path stroke="#808080" vector-effect="non-scaling-stroke" d="
  M 182.79 95.25
  C 181.81 99.01 184.12 98.25 186.36 98.25
  Q 190.09 98.23 193.81 98.30
  A 0.50 0.49 0.6 0 0 194.32 97.81
  L 194.45 79.36
  A 1.28 1.25 89.8 0 0 193.19 78.08
  L 183.43 78.15
  A 0.57 0.52 -0.0 0 0 182.86 78.67
  L 182.85 82.81
  A 0.72 0.55 7.4 0 0 183.43 83.38
  L 187.33 84.22
  A 2.99 2.63 29.3 0 0 189.72 83.71
  Q 191.49 82.29 192.83 83.87"
/>
<path stroke="#fff8c5" vector-effect="non-scaling-stroke" d="
  M 182.79 95.25
  L 190.93 95.43
  A 1.31 1.09 19.8 0 0 191.81 95.11
  Q 193.98 93.02 192.79 89.75"
/>
<path stroke="#f6d586" vector-effect="non-scaling-stroke" d="
  M 192.79 89.75
  L 192.83 83.87"
/>
<path stroke="#f6ce4b" vector-effect="non-scaling-stroke" d="
  M 192.79 89.75
  L 192.73 90.94
  A 0.69 0.66 -4.7 0 1 192.19 91.55
  Q 187.56 92.59 182.79 92.25"
/>
<path stroke="#16211e" stroke-opacity="0.973" vector-effect="non-scaling-stroke" d="
  M 217.25 85.04
  Q 217.62 86.53 216.25 86.29"
/>
<path stroke="#764f06" vector-effect="non-scaling-stroke" d="
  M 216.25 86.29
  C 211.19 84.85 206.23 86.08 201.53 84.60
  A 0.41 0.39 7.7 0 0 201.00 84.99
  L 201.29 90.83"
/>
<path stroke="#7f7845" vector-effect="non-scaling-stroke" d="
  M 201.29 90.83
  Q 201.45 92.77 202.71 94.26"
/>
<path stroke="#808080" vector-effect="non-scaling-stroke" d="
  M 202.71 94.26
  Q 205.09 98.25 209.25 98.25
  Q 226.50 98.25 243.75 98.25
  A 0.50 0.50 0.0 0 0 244.25 97.75
  L 244.21 92.16
  A 0.96 0.94 -0.9 0 0 243.23 91.23
  Q 229.11 91.42 216.53 91.05
  C 213.73 90.96 212.70 89.65 212.81 86.93"
/>
<path stroke="#764f06" vector-effect="non-scaling-stroke" d="
  M 212.81 86.93
  L 216.75 86.96"
/>
<path stroke="#16211e" stroke-opacity="0.973" vector-effect="non-scaling-stroke" d="
  M 216.75 86.96
  L 225.25 87.21"
/>
<path stroke="#764f06" vector-effect="non-scaling-stroke" d="
  M 225.25 87.21
  L 239.00 86.96"
/>
<path stroke="#808080" vector-effect="non-scaling-stroke" d="
  M 239.00 86.96
  Q 240.53 87.35 241.77 86.70
  A 0.82 0.81 -16.3 0 0 242.19 85.94
  L 241.88 81.42
  A 0.59 0.52 -1.0 0 0 241.31 80.93
  Q 221.75 80.42 216.75 80.75
  Q 213.82 80.95 212.96 78.66
  A 0.78 0.65 78.0 0 0 212.31 78.15
  L 201.69 78.15
  A 0.53 0.50 -2.0 0 0 201.16 78.69
  L 201.47 82.95
  A 0.72 0.61 4.4 0 0 202.06 83.53
  C 207.28 84.42 211.56 83.70 217.25 85.04"
/>
<path stroke="#f6ce85" vector-effect="non-scaling-stroke" d="
  M 239.00 86.96
  Q 240.84 85.71 240.33 83.04"
/>
<path stroke="#99a4a1" stroke-opacity="0.973" vector-effect="non-scaling-stroke" d="
  M 240.33 83.04
  Q 237.02 82.30 234.13 83.67
  C 229.41 85.92 222.36 85.55 217.25 85.04"
/>
<path stroke="#907123" stroke-opacity="0.973" vector-effect="non-scaling-stroke" d="
  M 240.33 83.04
  L 232.09 85.61
  Q 230.24 86.20 228.16 85.69
  Q 227.03 85.42 225.25 87.21"
/>
<path stroke="#907123" stroke-opacity="0.973" vector-effect="non-scaling-stroke" d="
  M 216.75 86.96
  Q 216.70 86.49 216.25 86.29"
/>
<path stroke="#f6ce85" vector-effect="non-scaling-stroke" d="
  M 212.81 86.93
  Q 210.17 89.64 213.54 92.20"
/>
<path stroke="#f5c74b" vector-effect="non-scaling-stroke" d="
  M 213.54 92.20
  Q 212.74 93.59 211.32 92.50
  A 2.99 2.97 -34.5 0 0 208.69 92.02
  Q 204.56 93.22 201.29 90.83"
/>
<path stroke="#fff8c5" vector-effect="non-scaling-stroke" d="
  M 202.71 94.26
  Q 207.81 94.94 212.85 95.20
  C 214.38 95.28 215.74 94.46 217.42 94.75
  C 224.36 95.93 232.39 95.25 239.48 95.25
  C 240.38 95.25 242.90 95.63 242.47 94.00
  A 1.74 1.74 -8.5 0 0 240.74 92.72
  Q 226.49 93.10 213.54 92.20"
/>
<path stroke="#714403" vector-effect="non-scaling-stroke" d="
  M 260.71 84.75
  L 251.75 83.54"
/>
<path stroke="#7c6509" vector-effect="non-scaling-stroke" d="
  M 251.75 83.54
  C 249.51 82.33 250.26 84.82 250.19 86.00
  Q 249.99 89.20 250.75 92.29"
/>
<path stroke="#7f7845" vector-effect="non-scaling-stroke" d="
  M 250.75 92.29
  L 251.72 94.65"
/>
<path stroke="#808080" vector-effect="non-scaling-stroke" d="
  M 251.72 94.65
  Q 254.52 98.27 259.75 98.27
  Q 275.14 98.30 290.52 98.21
  C 304.67 98.12 303.58 80.77 291.50 80.73
  Q 281.91 80.70 272.31 80.81
  A 0.53 0.49 0.0 0 0 271.78 81.30
  L 271.79 84.50"
/>
<path stroke="#000000" vector-effect="non-scaling-stroke" d="
  M 271.79 84.50
  Q 271.71 84.75 271.79 85.00"
/>
<path stroke="#795c09" vector-effect="non-scaling-stroke" d="
  M 271.79 85.00
  Q 270.83 87.20 273.25 87.14
  Q 279.18 87.01 285.11 87.00
  C 287.06 87.00 288.73 87.70 287.96 90.00"
/>
<path stroke="#7f7845" vector-effect="non-scaling-stroke" d="
  M 287.96 90.00
  Q 287.48 90.27 287.21 90.75"
/>
<path stroke="#808080" vector-effect="non-scaling-stroke" d="
  M 287.21 90.75
  C 283.83 92.30 271.71 91.25 267.43 91.25
  C 264.49 91.25 262.25 91.48 262.25 87.61
  Q 262.25 83.21 262.25 78.94
  A 0.94 0.93 -90.0 0 0 261.32 78.00
  L 251.05 78.05
  A 0.70 0.67 7.4 0 0 250.40 78.53
  Q 249.94 80.12 250.40 81.71
  A 0.72 0.68 -7.1 0 0 251.07 82.20
  C 252.32 82.24 261.68 82.33 260.71 84.75"
/>
<path stroke="#fff8c5" vector-effect="non-scaling-stroke" d="
  M 287.21 90.75
  Q 287.80 92.36 286.25 92.50
  Q 275.09 93.52 262.08 92.07"
/>
<path stroke="#fbe588" vector-effect="non-scaling-stroke" d="
  M 262.08 92.07
  Q 260.13 88.97 260.71 86.25"
/>
<path stroke="#f0c483" vector-effect="non-scaling-stroke" d="
  M 260.71 86.25
  L 260.71 84.75"
/>
<path stroke="#eca90c" vector-effect="non-scaling-stroke" d="
  M 251.75 83.54
  Q 251.51 84.66 251.98 85.57
  A 1.15 0.97 -4.8 0 0 252.74 86.11
  Q 256.70 86.95 260.71 86.25"
/>
<path stroke="#fbdd4e" vector-effect="non-scaling-stroke" d="
  M 262.08 92.07
  Q 256.64 93.57 250.75 92.29"
/>
<path stroke="#f8d44e" vector-effect="non-scaling-stroke" d="
  M 298.71 91.50
  C 295.57 92.00 292.58 91.91 289.44 92.12
  Q 287.36 92.27 287.96 90.00"
/>
<path stroke="#fff8c5" vector-effect="non-scaling-stroke" d="
  M 251.72 94.65
  Q 273.14 95.65 294.56 95.15
  Q 298.15 95.06 298.71 91.50"
/>
<path stroke="#f9db88" vector-effect="non-scaling-stroke" d="
  M 298.71 91.50
  Q 300.06 86.28 295.26 82.74"
/>
<path stroke="#808080" vector-effect="non-scaling-stroke" d="
  M 295.26 82.74
  L 271.79 84.50"
/>
<path stroke="#795c09" vector-effect="non-scaling-stroke" d="
  M 295.26 82.74
  Q 290.63 84.48 282.50 85.39
  Q 282.12 85.43 281.74 85.50
  Q 276.69 86.42 271.79 85.00"
/>
<path stroke="#744903" vector-effect="non-scaling-stroke" d="
  M 317.61 83.68
  Q 312.24 84.66 307.30 83.67
  A 0.44 0.40 5.8 0 0 306.77 84.06
  L 306.79 86.00"
/>
<path stroke="#7c6509" vector-effect="non-scaling-stroke" d="
  M 306.79 86.00
  L 306.79 92.25"
/>
<path stroke="#7e734f" vector-effect="non-scaling-stroke" d="
  M 306.79 92.25
  L 306.77 94.35"
/>
<path stroke="#808080" vector-effect="non-scaling-stroke" d="
  M 306.77 94.35
  L 306.70 97.57
  A 0.52 0.49 -89.4 0 0 307.19 98.10
  L 318.49 98.05
  A 0.56 0.52 89.5 0 0 319.00 97.49
  L 319.06 79.10
  A 1.09 1.09 -89.7 0 0 317.97 78.00
  L 307.35 78.00
  A 0.83 0.74 88.2 0 0 306.62 78.88
  L 306.78 81.75
  A 0.58 0.54 -88.3 0 0 307.25 82.28
  L 317.61 83.68"
/>
<path stroke="#fdf2ce" vector-effect="non-scaling-stroke" d="
  M 306.77 94.35
  Q 311.53 95.76 315.75 95.50
  Q 317.87 95.37 317.21 93.00"
/>
<path stroke="#fbe588" vector-effect="non-scaling-stroke" d="
  M 317.21 93.00
  L 317.46 88.75"
/>
<path stroke="#f4c883" vector-effect="non-scaling-stroke" d="
  M 317.46 88.75
  L 317.61 83.68"
/>
<path stroke="#f9d857" vector-effect="non-scaling-stroke" d="
  M 317.21 93.00
  Q 311.86 94.28 306.79 92.25"
/>
<path stroke="#f0ae0c" vector-effect="non-scaling-stroke" d="
  M 317.46 88.75
  Q 315.68 89.28 314.31 88.15
  A 1.46 0.83 51.7 0 0 313.45 87.80
  L 309.75 88.00
  Q 307.40 88.13 307.69 86.56
  Q 307.84 85.73 306.79 86.00"
/>
<path stroke="#6e7070" vector-effect="non-scaling-stroke" d="
  M 341.96 83.50
  Q 332.94 83.40 323.93 83.49
  C 322.65 83.51 320.53 82.87 321.03 85.07"
/>
<path stroke="#775606" vector-effect="non-scaling-stroke" d="
  M 321.03 85.07
  L 321.04 89.00"
/>
<path stroke="#806c13" vector-effect="non-scaling-stroke" d="
  M 321.04 89.00
  Q 320.16 92.36 322.86 92.14
  C 329.15 91.65 335.65 92.04 342.00 91.79"
/>
<path stroke="#775606" vector-effect="non-scaling-stroke" d="
  M 342.00 91.79
  Q 342.40 92.30 342.25 93.47"
/>
<path stroke="#7e734f" vector-effect="non-scaling-stroke" d="
  M 342.25 93.47
  L 342.29 94.57"
/>
<path stroke="#808080" vector-effect="non-scaling-stroke" d="
  M 342.29 94.57
  L 342.25 97.71
  A 0.52 0.51 89.5 0 0 342.77 98.23
  L 354.06 98.09
  A 0.52 0.50 89.4 0 0 354.56 97.56
  L 354.33 78.68
  A 0.53 0.52 89.4 0 0 353.81 78.16
  L 343.33 78.03
  A 1.30 1.26 83.1 0 0 342.10 79.65
  Q 342.68 81.98 341.96 83.50"
/>
<path stroke="#fdf2ce" vector-effect="non-scaling-stroke" d="
  M 342.29 94.57
  Q 346.07 95.59 351.50 95.25
  Q 352.81 95.17 352.71 94.00"
/>
<path stroke="#f6d586" vector-effect="non-scaling-stroke" d="
  M 352.71 94.00
  L 353.06 85.74"
/>
<path stroke="#928f8b" vector-effect="non-scaling-stroke" d="
  M 353.06 85.74
  Q 347.72 84.56 342.25 84.46"
/>
<path stroke="#eef0f0" vector-effect="non-scaling-stroke" d="
  M 342.25 84.46
  Q 341.93 84.03 341.96 83.50"
/>
<path stroke="#807f7c" vector-effect="non-scaling-stroke" d="
  M 342.25 84.46
  L 340.50 84.79"
/>
<path stroke="#dbad74" vector-effect="non-scaling-stroke" d="
  M 340.50 84.79
  Q 338.97 84.56 337.50 84.96"
/>
<path stroke="#e5c676" vector-effect="non-scaling-stroke" d="
  M 337.50 84.96
  L 321.03 85.07"
/>
<path stroke="#e4920a" vector-effect="non-scaling-stroke" d="
  M 337.50 84.96
  Q 339.39 86.27 341.75 85.71"
/>
<path stroke="#f4c855" vector-effect="non-scaling-stroke" d="
  M 352.71 94.00
  Q 347.42 94.56 342.25 93.47"
/>
<path stroke="#f6c119" vector-effect="non-scaling-stroke" d="
  M 342.00 91.79
  Q 342.48 90.94 341.67 90.30
  A 3.48 2.83 58.6 0 0 339.58 89.56
  L 323.57 90.14
  A 1.02 0.91 67.7 0 1 322.78 89.76
  Q 322.13 88.95 321.04 89.00"
/>
<path stroke="#896512" vector-effect="non-scaling-stroke" d="
  M 353.06 85.74
  Q 347.27 87.04 341.75 85.71"
/>
<path stroke="#7f4c0f" vector-effect="non-scaling-stroke" d="
  M 341.75 85.71
  Q 340.78 85.60 340.50 84.79"
/>
<path stroke="#775606" vector-effect="non-scaling-stroke" d="
  M 442.46 84.25
  Q 440.71 83.53 439.11 84.42
  Q 438.65 84.68 438.19 84.68
  Q 435.98 84.68 433.96 85.54
  A 2.00 1.33 27.1 0 1 433.00 85.65
  C 431.45 85.45 432.33 90.62 432.29 91.75"
/>
<path stroke="#7f7845" vector-effect="non-scaling-stroke" d="
  M 432.29 91.75
  L 432.29 95.50"
/>
<path stroke="#808080" vector-effect="non-scaling-stroke" d="
  M 432.29 95.50
  Q 431.40 98.66 433.88 98.41
  C 437.05 98.10 440.31 98.25 443.50 98.25
  A 0.50 0.50 0.0 0 0 444.00 97.75
  L 444.00 78.99
  A 0.99 0.99 0.5 0 0 443.01 78.00
  L 432.83 78.00
  A 0.58 0.58 90.0 0 0 432.25 78.58
  C 432.25 80.31 431.42 85.50 433.66 84.56
  C 434.63 84.16 443.13 81.17 442.46 84.25"
/>
<path stroke="#fff8c5" vector-effect="non-scaling-stroke" d="
  M 432.29 95.50
  L 441.05 95.09
  A 0.83 0.80 10.1 0 0 441.77 94.61
  Q 442.50 92.89 442.46 91.00"
/>
<path stroke="#f6d586" vector-effect="non-scaling-stroke" d="
  M 442.46 91.00
  L 442.46 84.25"
/>
<path stroke="#f6ce4b" vector-effect="non-scaling-stroke" d="
  M 442.46 91.00
  Q 437.43 92.02 432.29 91.75"
/>
<path stroke="#000000" vector-effect="non-scaling-stroke" d="
  M 470.04 83.50
  L 469.79 84.25"
/>
<path stroke="#744903" vector-effect="non-scaling-stroke" d="
  M 469.79 84.25
  L 470.04 87.25"
/>
<path stroke="#7c6509" vector-effect="non-scaling-stroke" d="
  M 470.04 87.25
  Q 470.26 88.89 469.46 90.25"
/>
<path stroke="#7f7845" vector-effect="non-scaling-stroke" d="
  M 469.46 90.25
  Q 469.11 90.40 468.96 90.75"
/>
<path stroke="#808080" vector-effect="non-scaling-stroke" d="
  M 468.96 90.75
  C 468.19 90.79 467.65 91.19 466.92 91.19
  Q 456.74 91.25 446.57 91.31
  A 0.54 0.52 1.1 0 0 446.03 91.81
  L 445.75 97.33
  A 0.88 0.87 1.5 0 0 446.63 98.25
  Q 459.38 98.25 471.75 98.25
  C 484.34 98.25 482.25 87.88 482.25 79.17
  A 1.12 1.10 90.0 0 0 481.15 78.05
  L 470.88 78.01
  A 1.03 0.86 89.9 0 0 470.01 79.05
  L 470.04 83.50"
/>
<path stroke="#fff8c5" vector-effect="non-scaling-stroke" d="
  M 468.96 90.75
  Q 468.58 92.52 466.31 92.56
  Q 452.79 92.82 448.51 92.95
  Q 446.29 93.02 447.17 94.64
  A 0.92 0.82 -12.2 0 0 447.93 95.07
  Q 461.72 95.18 475.50 95.25
  Q 479.25 95.27 479.75 92.29"
/>
<path stroke="#fbe588" vector-effect="non-scaling-stroke" d="
  M 479.75 92.29
  Q 480.96 89.14 480.46 85.75"
/>
<path stroke="#f4c883" vector-effect="non-scaling-stroke" d="
  M 480.46 85.75
  Q 480.73 84.56 480.21 83.50"
/>
<path stroke="#808080" vector-effect="non-scaling-stroke" d="
  M 480.21 83.50
  Q 480.62 82.65 480.53 81.81
  A 0.34 0.32 -18.8 0 0 480.02 81.58
  C 478.37 82.56 476.69 82.16 475.02 82.61
  Q 472.58 83.27 470.04 83.50"
/>
<path stroke="#fbdd4e" vector-effect="non-scaling-stroke" d="
  M 479.75 92.29
  Q 475.17 91.96 472.25 92.50
  Q 469.15 93.07 469.46 90.25"
/>
<path stroke="#744903" vector-effect="non-scaling-stroke" d="
  M 480.21 83.50
  C 476.81 83.29 472.64 85.26 469.79 84.25"
/>
<path stroke="#f0ae0c" vector-effect="non-scaling-stroke" d="
  M 480.46 85.75
  C 478.64 87.38 472.12 87.33 470.04 87.25"
/>
<path stroke="#a4bef9" vector-effect="non-scaling-stroke" d="
  M 296.36 73.44
  Q 297.67 70.07 294.29 70.21
  C 282.71 70.68 270.86 70.25 259.25 70.25
  C 257.42 70.25 251.96 70.82 252.04 73.25
  Q 252.08 74.39 254.77 73.99
  Q 256.32 73.75 257.90 73.75
  C 270.16 73.75 282.49 73.68 295.06 74.29
  A 1.34 1.31 -77.7 0 0 296.36 73.44"
/>
<path stroke="#aac3fa" vector-effect="non-scaling-stroke" d="
  M 311.07 71.03
  Q 307.94 72.52 308.69 73.86
  A 0.82 0.65 -17.6 0 0 309.49 74.16
  C 313.78 73.42 318.95 73.99 322.18 73.90
  Q 336.25 73.53 350.65 74.01
  Q 352.62 74.08 351.45 72.49
  Q 349.70 70.11 346.25 70.14
  Q 329.88 70.25 314.52 70.25
  Q 312.71 70.25 311.07 71.03"
/>
<path stroke="#dfeaff" vector-effect="non-scaling-stroke" d="
  M 565.04 81.00
  C 563.85 83.94 565.98 83.38 567.51 83.82
  Q 571.10 84.87 574.82 84.38
  A 0.77 0.76 4.5 0 0 575.47 83.83
  Q 576.00 81.93 574.88 80.78"
/>
<path stroke="#cbdcfd" vector-effect="non-scaling-stroke" d="
  M 574.88 80.78
  Q 569.42 74.44 565.04 81.00"
/>
<path stroke="#b1c9fd" vector-effect="non-scaling-stroke" d="
  M 574.88 80.78
  L 565.80 82.35
  A 0.54 0.40 76.7 0 1 565.31 81.94
  L 565.04 81.00"
/>
<path stroke="#e5971b" vector-effect="non-scaling-stroke" d="
  M 596.94 92.07
  L 586.55 90.31
  A 0.81 0.65 87.0 0 1 586.00 89.69
  Q 585.76 88.54 584.79 88.00"
/>
<path stroke="#edaf40" vector-effect="non-scaling-stroke" d="
  M 17.07 90.83
  L 7.27 93.31
  A 1.71 1.57 -31.8 0 1 5.89 93.05
  Q 4.23 91.77 3.54 92.25"
/>
<path stroke="#714403" vector-effect="non-scaling-stroke" d="
  M 3.54 92.25
  L 1.04 88.25"
/>
<path stroke="#f2c567" vector-effect="non-scaling-stroke" d="
  M 595.25 93.54
  L 591.49 94.63
  A 0.72 0.53 63.6 0 1 590.81 94.28
  Q 590.55 93.84 590.00 93.76
  Q 585.66 93.15 581.49 92.10"
/>
<path stroke="#7d6b3d" vector-effect="non-scaling-stroke" d="
  M 3.54 92.25
  L 3.46 92.50"
/>
<path stroke="#fcebbd" vector-effect="non-scaling-stroke" d="
  M 23.25 95.04
  L 9.46 96.75"
/>
<path stroke="#faf1ce" vector-effect="non-scaling-stroke" d="
  M 587.63 98.28
  Q 584.57 96.33 581.20 95.66
  C 579.96 95.42 578.46 95.94 577.25 94.71"
/>
<path stroke="#7d7f7f" vector-effect="non-scaling-stroke" d="
  M 567.50 103.71
  L 560.75 104.71"
/>
<path stroke="#dcebfe" vector-effect="non-scaling-stroke" d="
  M 556.00 105.04
  C 550.24 105.39 544.40 103.99 539.24 104.04
  Q 496.28 104.43 453.31 104.24
  C 350.99 103.80 248.64 104.29 146.31 104.19
  Q 98.48 104.14 89.00 103.96"
/>
<path stroke="#fcfeff" vector-effect="non-scaling-stroke" d="
  M 89.00 103.96
  L 113.18 103.68
  Q 113.89 103.68 113.45 103.27
  C 112.90 102.75 98.23 102.94 94.50 102.79"
/>
<path stroke="#dfecff" vector-effect="non-scaling-stroke" d="
  M 89.00 103.96
  C 77.30 104.11 64.94 104.81 53.31 103.62
  A 0.28 0.26 82.0 0 0 53.05 104.00
  Q 53.15 104.27 53.14 104.53
  A 0.64 0.54 2.4 0 1 52.50 105.03
  L 40.03 104.66"
/>
<path stroke="#b2c8e8" stroke-opacity="0.988" vector-effect="non-scaling-stroke" d="
  M 553.25 105.29
  Q 550.39 104.92 547.75 105.96"
/>
<path stroke="#b2c8e8" stroke-opacity="0.988" vector-effect="non-scaling-stroke" d="
  M 539.75 106.16
  C 530.16 106.57 517.72 106.25 511.06 106.27
  Q 393.35 106.57 275.64 106.27
  C 203.93 106.08 132.22 106.55 60.50 106.21"
/>
</g>
<path fill="#ffffff" d="
  M 348.56 0.00
  L 351.56 0.00
  C 358.90 1.29 361.31 5.40 363.65 12.52
  Q 369.88 31.41 376.25 50.26
  A 0.56 0.56 80.7 0 1 375.72 51.00
  Q 343.13 51.00 310.25 50.96
  Q 304.64 50.96 300.24 47.71
  C 297.79 45.91 298.83 48.80 299.07 49.70
  A 0.98 0.98 82.0 0 1 298.14 50.94
  Q 287.53 51.17 276.73 50.89
  C 269.55 50.70 265.09 48.86 261.45 42.99
  A 0.33 0.32 46.8 0 0 260.91 42.97
  Q 255.03 51.30 244.50 51.14
  Q 235.00 51.00 224.27 51.00
  A 0.76 0.75 0.4 0 1 223.51 50.24
  L 223.56 31.07
  A 0.53 0.49 -90.0 0 1 224.05 30.54
  L 227.49 30.50
  Q 228.64 30.49 227.93 29.61
  C 220.34 20.26 223.30 6.44 234.75 2.01
  C 241.70 -0.68 255.01 0.73 262.81 0.81
  A 1.16 1.16 -84.9 0 1 263.94 2.17
  Q 263.21 6.37 265.12 4.63
  C 268.62 1.47 271.57 0.75 276.57 0.74
  Q 287.70 0.72 298.42 0.81
  A 0.88 0.87 9.0 0 1 299.25 1.95
  C 298.98 2.79 297.65 6.03 300.33 3.91
  Q 304.33 0.75 307.75 0.75
  Q 319.75 0.75 332.37 0.75
  A 0.62 0.61 -0.0 0 1 332.99 1.36
  L 332.83 19.94
  A 0.62 0.39 87.5 0 0 333.28 20.60
  Q 333.58 20.54 333.76 19.96
  C 336.93 9.97 338.19 1.53 348.56 0.00
  Z
  M 329.56 41.93
  L 329.50 19.92
  A 0.65 0.63 89.6 0 0 328.86 19.27
  L 313.44 19.42
  A 0.59 0.50 -0.5 0 0 312.85 19.93
  L 312.95 24.45
  A 0.64 0.48 0.7 0 0 313.57 24.93
  L 322.94 25.27
  A 0.54 0.51 -89.5 0 1 323.44 25.81
  L 323.50 40.52
  A 0.99 0.97 -0.3 0 1 322.51 41.50
  C 315.17 41.50 303.75 44.62 303.75 33.28
  Q 303.75 25.76 303.75 18.23
  C 303.75 13.05 305.63 10.03 311.00 10.02
  Q 319.00 10.00 327.00 10.00
  C 328.26 10.00 330.09 11.13 329.50 8.24
  Q 329.29 7.22 329.51 6.21
  C 330.05 3.74 328.41 4.25 326.91 4.25
  C 318.36 4.25 303.67 1.58 299.15 10.78
  C 296.69 15.81 297.70 26.25 297.56 32.50
  Q 297.31 43.44 305.21 46.40
  C 311.20 48.65 325.24 47.13 333.59 47.27
  A 1.25 1.24 -80.3 0 0 334.78 46.42
  Q 340.35 29.42 346.24 12.45
  C 348.36 6.35 352.30 8.67 353.86 13.33
  Q 358.51 27.18 363.25 40.99
  A 0.39 0.39 -9.2 0 1 362.88 41.50
  Q 355.75 41.50 348.75 41.42
  Q 346.61 41.39 347.31 43.29
  A 1.64 1.56 43.5 0 1 347.36 44.23
  Q 347.01 45.62 347.40 46.97
  A 0.71 0.66 -7.6 0 0 348.07 47.44
  L 371.02 47.44
  A 0.46 0.46 80.4 0 0 371.45 46.83
  Q 365.96 30.92 360.75 15.25
  Q 358.48 8.45 356.59 6.38
  C 351.75 1.06 343.08 3.55 340.69 10.44
  C 339.73 13.20 329.94 42.29 329.79 42.28
  A 0.36 0.25 -88.4 0 1 329.56 41.93
  Z
  M 246.72 33.33
  C 246.29 34.40 230.02 34.03 227.81 34.06
  A 0.53 0.49 -88.1 0 0 227.32 34.56
  L 226.99 38.80
  A 0.89 0.83 -87.7 0 0 227.81 39.75
  C 232.64 39.77 246.57 40.98 250.19 38.37
  C 253.90 35.71 253.50 30.08 249.64 27.78
  C 246.27 25.77 242.34 27.39 238.69 26.05
  C 230.15 22.93 232.00 10.92 240.50 10.25
  Q 246.92 9.75 257.74 10.04
  C 259.11 10.08 260.84 11.03 260.25 8.24
  Q 260.04 7.23 260.26 6.23
  Q 260.74 3.99 258.81 4.16
  C 248.90 5.05 235.53 1.05 229.44 10.70
  C 224.57 18.43 227.67 27.99 236.08 31.42
  C 239.13 32.66 242.82 32.54 246.20 32.56
  A 0.57 0.56 11.1 0 1 246.72 33.33
  Z
  M 275.00 4.36
  C 260.00 4.53 263.25 22.91 263.25 32.14
  C 263.25 38.35 263.87 42.98 269.36 45.84
  C 274.81 48.69 288.05 47.25 294.66 47.25
  A 0.83 0.78 -2.2 0 0 295.49 46.41
  L 295.11 42.07
  A 0.63 0.61 -1.9 0 0 294.48 41.50
  Q 285.25 41.50 277.00 41.69
  Q 268.60 41.87 268.80 33.50
  Q 269.00 25.25 269.08 17.00
  Q 269.15 10.70 275.25 10.25
  Q 283.17 9.67 294.68 10.16
  A 0.61 0.47 1.7 0 0 295.32 9.70
  L 295.30 5.21
  A 1.10 0.97 -0.3 0 0 294.20 4.25
  Q 284.00 4.25 275.00 4.36
  Z
  M 347.41 36.32
  L 347.60 39.33
  A 0.63 0.55 0.8 0 0 348.18 39.85
  Q 354.32 40.33 360.44 39.74
  A 0.42 0.41 78.5 0 0 360.79 39.20
  Q 354.18 17.99 351.81 12.19
  C 350.22 8.27 348.27 11.20 347.60 13.21
  Q 341.97 30.00 336.25 46.76
  A 0.43 0.40 -79.1 0 0 336.61 47.33
  L 342.32 47.35
  A 0.82 0.70 -75.7 0 0 343.01 46.86
  C 343.88 44.80 346.43 36.28 346.96 35.96
  A 0.38 0.29 76.3 0 1 347.41 36.32
  Z
  M 240.40 18.49
  C 239.90 17.11 257.92 17.68 259.43 17.69
  A 0.62 0.50 0.5 0 0 260.05 17.20
  L 260.15 12.31
  A 0.62 0.55 -0.5 0 0 259.51 11.75
  Q 251.07 11.95 242.62 11.99
  Q 238.99 12.01 237.19 13.30
  C 233.60 15.88 234.02 21.11 237.39 23.67
  C 240.85 26.32 245.50 23.99 249.45 25.92
  C 255.13 28.68 256.11 35.64 251.12 39.73
  C 247.43 42.77 233.46 41.52 228.02 41.49
  A 0.60 0.56 2.7 0 0 227.43 42.00
  L 227.00 46.74
  A 0.76 0.68 3.2 0 0 227.74 47.49
  Q 236.70 47.61 244.99 47.38
  C 256.72 47.04 264.75 36.43 257.73 25.70
  Q 253.03 18.51 241.89 19.45
  A 1.46 1.46 77.7 0 1 240.40 18.49
  Z
  M 276.69 18.71
  C 276.55 16.92 290.44 17.79 292.31 17.97
  Q 296.61 18.40 295.30 12.31
  A 0.71 0.71 83.9 0 0 294.61 11.75
  Q 284.78 11.70 274.81 11.81
  C 269.30 11.87 270.75 20.86 270.75 24.39
  A 0.55 0.54 -90.0 0 0 271.29 24.94
  L 290.43 24.94
  A 0.65 0.48 0.0 0 0 291.08 24.46
  L 291.03 20.21
  A 1.12 0.98 -0.3 0 0 289.91 19.24
  L 277.30 19.20
  A 0.62 0.53 -2.0 0 1 276.69 18.71
  Z
  M 316.15 32.98
  Q 316.22 33.23 316.16 33.49
  A 0.93 0.68 -1.8 0 1 315.46 34.04
  Q 313.32 34.43 311.65 33.30
  A 1.00 1.00 -73.6 0 1 311.21 32.49
  L 311.05 19.65
  Q 311.02 17.74 312.97 17.71
  L 328.95 17.43
  A 0.54 0.47 -1.1 0 0 329.48 16.95
  L 329.38 12.43
  A 0.58 0.53 0.1 0 0 328.82 11.92
  Q 321.66 11.61 314.50 11.75
  C 310.48 11.83 305.29 11.07 305.28 16.75
  Q 305.25 25.62 305.25 34.50
  C 305.25 42.20 316.31 39.75 321.34 39.75
  A 0.66 0.66 0.1 0 0 322.00 39.09
  L 322.00 27.75
  A 1.21 1.18 0.0 0 0 320.79 26.57
  L 313.80 26.58
  A 1.15 0.83 13.6 0 0 312.97 26.92
  Q 312.24 27.82 312.58 29.03
  Q 312.72 29.54 312.65 30.00
  Q 312.12 33.14 315.47 32.64
  A 0.65 0.50 -11.0 0 1 316.15 32.98
  Z
  M 295.37 34.68
  Q 295.40 34.51 295.34 34.34
  A 0.87 0.55 -5.2 0 0 294.56 33.94
  Q 286.42 34.04 278.28 34.00
  C 277.33 34.00 274.82 32.55 278.25 32.53
  Q 284.25 32.50 290.33 32.50
  A 0.91 0.89 -0.0 0 0 291.24 31.61
  L 291.24 27.92
  A 1.66 1.52 -0.6 0 0 289.55 26.40
  L 271.30 26.66
  A 0.56 0.53 -0.6 0 0 270.75 27.19
  C 270.75 30.55 269.38 39.75 274.50 39.75
  Q 284.37 39.75 294.25 39.75
  A 1.90 0.60 -73.9 0 0 295.25 38.25
  Q 295.72 36.77 295.35 35.33
  Q 295.29 35.12 295.37 34.68
  Z"
/>
<path fill="#122797" d="
  M 329.79 42.28
  C 329.94 42.29 339.73 13.20 340.69 10.44
  C 343.08 3.55 351.75 1.06 356.59 6.38
  Q 358.48 8.45 360.75 15.25
  Q 365.96 30.92 371.45 46.83
  A 0.46 0.46 80.4 0 1 371.02 47.44
  L 348.07 47.44
  A 0.71 0.66 -7.6 0 1 347.40 46.97
  Q 347.01 45.62 347.36 44.23
  A 1.64 1.56 43.5 0 0 347.31 43.29
  Q 346.61 41.39 348.75 41.42
  Q 355.75 41.50 362.88 41.50
  A 0.39 0.39 -9.2 0 0 363.25 40.99
  Q 358.51 27.18 353.86 13.33
  C 352.30 8.67 348.36 6.35 346.24 12.45
  Q 340.35 29.42 334.78 46.42
  A 1.25 1.24 -80.3 0 1 333.59 47.27
  C 325.24 47.13 311.20 48.65 305.21 46.40
  Q 297.31 43.44 297.56 32.50
  C 297.70 26.25 296.69 15.81 299.15 10.78
  C 303.67 1.58 318.36 4.25 326.91 4.25
  C 328.41 4.25 330.05 3.74 329.51 6.21
  Q 329.29 7.22 329.50 8.24
  C 330.09 11.13 328.26 10.00 327.00 10.00
  Q 319.00 10.00 311.00 10.02
  C 305.63 10.03 303.75 13.05 303.75 18.23
  Q 303.75 25.76 303.75 33.28
  C 303.75 44.62 315.17 41.50 322.51 41.50
  A 0.99 0.97 -0.3 0 0 323.50 40.52
  L 323.44 25.81
  A 0.54 0.51 -89.5 0 0 322.94 25.27
  L 313.57 24.93
  A 0.64 0.48 0.7 0 1 312.95 24.45
  L 312.85 19.93
  A 0.59 0.50 -0.5 0 1 313.44 19.42
  L 328.86 19.27
  A 0.65 0.63 89.6 0 1 329.50 19.92
  L 329.56 41.93
  A 0.36 0.25 -88.4 0 0 329.79 42.28
  Z"
/>
<path fill="#122797" d="
  M 246.72 33.33
  A 0.57 0.56 11.1 0 0 246.20 32.56
  C 242.82 32.54 239.13 32.66 236.08 31.42
  C 227.67 27.99 224.57 18.43 229.44 10.70
  C 235.53 1.05 248.90 5.05 258.81 4.16
  Q 260.74 3.99 260.26 6.23
  Q 260.04 7.23 260.25 8.24
  C 260.84 11.03 259.11 10.08 257.74 10.04
  Q 246.92 9.75 240.50 10.25
  C 232.00 10.92 230.15 22.93 238.69 26.05
  C 242.34 27.39 246.27 25.77 249.64 27.78
  C 253.50 30.08 253.90 35.71 250.19 38.37
  C 246.57 40.98 232.64 39.77 227.81 39.75
  A 0.89 0.83 -87.7 0 1 226.99 38.80
  L 227.32 34.56
  A 0.53 0.49 -88.1 0 1 227.81 34.06
  C 230.02 34.03 246.29 34.40 246.72 33.33
  Z"
/>
<path fill="#122797" d="
  M 263.25 32.14
  C 263.25 22.91 260.00 4.53 275.00 4.36
  Q 284.00 4.25 294.20 4.25
  A 1.10 0.97 -0.3 0 1 295.30 5.21
  L 295.32 9.70
  A 0.61 0.47 1.7 0 1 294.68 10.16
  Q 283.17 9.67 275.25 10.25
  Q 269.15 10.70 269.08 17.00
  Q 269.00 25.25 268.80 33.50
  Q 268.60 41.87 277.00 41.69
  Q 285.25 41.50 294.48 41.50
  A 0.63 0.61 -1.9 0 1 295.11 42.07
  L 295.49 46.41
  A 0.83 0.78 -2.2 0 1 294.66 47.25
  C 288.05 47.25 274.81 48.69 269.36 45.84
  C 263.87 42.98 263.25 38.35 263.25 32.14
  Z"
/>
<path fill="#142998" d="
  M 346.96 35.96
  C 346.43 36.28 343.88 44.80 343.01 46.86
  A 0.82 0.70 -75.7 0 1 342.32 47.35
  L 336.61 47.33
  A 0.43 0.40 -79.1 0 1 336.25 46.76
  Q 341.97 30.00 347.60 13.21
  C 348.27 11.20 350.22 8.27 351.81 12.19
  Q 354.18 17.99 360.79 39.20
  A 0.42 0.41 78.5 0 1 360.44 39.74
  Q 354.32 40.33 348.18 39.85
  A 0.63 0.55 0.8 0 1 347.60 39.33
  L 347.41 36.32
  A 0.38 0.29 76.3 0 0 346.96 35.96
  Z
  M 349.44 28.42
  L 348.00 32.54
  A 0.48 0.46 -74.6 0 0 348.34 33.17
  Q 350.12 33.52 351.27 33.18
  A 0.54 0.53 73.2 0 0 351.62 32.51
  L 350.38 28.39
  Q 349.95 26.96 349.44 28.42
  Z"
/>
<path fill="#122797" d="
  M 240.40 18.49
  A 1.46 1.46 77.7 0 0 241.89 19.45
  Q 253.03 18.51 257.73 25.70
  C 264.75 36.43 256.72 47.04 244.99 47.38
  Q 236.70 47.61 227.74 47.49
  A 0.76 0.68 3.2 0 1 227.00 46.74
  L 227.43 42.00
  A 0.60 0.56 2.7 0 1 228.02 41.49
  C 233.46 41.52 247.43 42.77 251.12 39.73
  C 256.11 35.64 255.13 28.68 249.45 25.92
  C 245.50 23.99 240.85 26.32 237.39 23.67
  C 234.02 21.11 233.60 15.88 237.19 13.30
  Q 238.99 12.01 242.62 11.99
  Q 251.07 11.95 259.51 11.75
  A 0.62 0.55 -0.5 0 1 260.15 12.31
  L 260.05 17.20
  A 0.62 0.50 0.5 0 1 259.43 17.69
  C 257.92 17.68 239.90 17.11 240.40 18.49
  Z"
/>
<path fill="#122797" d="
  M 277.30 19.20
  L 289.91 19.24
  A 1.12 0.98 -0.3 0 1 291.03 20.21
  L 291.08 24.46
  A 0.65 0.48 0.0 0 1 290.43 24.94
  L 271.29 24.94
  A 0.55 0.54 90.0 0 1 270.75 24.39
  C 270.75 20.86 269.30 11.87 274.81 11.81
  Q 284.78 11.70 294.61 11.75
  A 0.71 0.71 83.9 0 1 295.30 12.31
  Q 296.61 18.40 292.31 17.97
  C 290.44 17.79 276.55 16.92 276.69 18.71
  A 0.62 0.53 -2.0 0 0 277.30 19.20
  Z"
/>
<path fill="#122797" d="
  M 315.47 32.64
  Q 312.12 33.14 312.65 30.00
  Q 312.72 29.54 312.58 29.03
  Q 312.24 27.82 312.97 26.92
  A 1.15 0.83 13.6 0 1 313.80 26.58
  L 320.79 26.57
  A 1.21 1.18 -0.0 0 1 322.00 27.75
  L 322.00 39.09
  A 0.66 0.66 -0.2 0 1 321.34 39.75
  C 316.31 39.75 305.25 42.20 305.25 34.50
  Q 305.25 25.62 305.28 16.75
  C 305.29 11.07 310.48 11.83 314.50 11.75
  Q 321.66 11.61 328.82 11.92
  A 0.58 0.53 0.1 0 1 329.38 12.43
  L 329.48 16.95
  A 0.54 0.47 -1.1 0 1 328.95 17.43
  L 312.97 17.71
  Q 311.02 17.74 311.05 19.65
  L 311.21 32.49
  A 1.00 1.00 -73.6 0 0 311.65 33.30
  Q 313.32 34.43 315.46 34.04
  A 0.93 0.68 -1.8 0 0 316.16 33.49
  Q 316.22 33.23 316.15 32.98
  A 0.65 0.50 -11.0 0 0 315.47 32.64
  Z"
/>
<path fill="#122797" d="
  M 295.35 35.33
  Q 295.72 36.77 295.25 38.25
  A 1.90 0.60 -73.9 0 1 294.25 39.75
  Q 284.37 39.75 274.50 39.75
  C 269.38 39.75 270.75 30.55 270.75 27.19
  A 0.56 0.53 -0.6 0 1 271.30 26.66
  L 289.55 26.40
  A 1.66 1.52 -0.6 0 1 291.24 27.92
  L 291.24 31.61
  A 0.91 0.89 0.0 0 1 290.33 32.50
  Q 284.25 32.50 278.25 32.53
  C 274.82 32.55 277.33 34.00 278.28 34.00
  Q 286.42 34.04 294.56 33.94
  A 0.87 0.55 -5.2 0 1 295.34 34.34
  Q 295.40 34.51 295.37 34.68
  Q 295.29 35.12 295.35 35.33
  Z"
/>
<path fill="#ffffff" d="
  M 349.44 28.42
  Q 349.95 26.96 350.38 28.39
  L 351.62 32.51
  A 0.54 0.53 73.2 0 1 351.27 33.18
  Q 350.12 33.52 348.34 33.17
  A 0.48 0.46 -74.6 0 1 348.00 32.54
  L 349.44 28.42
  Z"
/>
<path fill="#000000" d="
  M 600.22 81.82
  L 600.00 85.06
  L 599.50 86.04
  C 594.54 84.25 591.07 86.87 586.27 85.00
  A 0.49 0.46 19.6 0 0 585.63 85.28
  L 584.79 88.00
  L 581.49 92.10
  L 577.25 94.71
  Q 566.00 99.59 553.75 100.79
  C 535.91 102.55 518.34 102.75 500.44 102.75
  Q 297.47 102.72 94.50 102.79
  C 77.46 102.83 57.24 102.50 39.75 99.78
  Q 31.20 98.44 23.25 95.04
  L 17.07 90.83
  L 15.08 87.64
  A 2.25 1.74 62.4 0 0 12.75 86.57
  Q 6.16 89.09 1.56 87.44
  Q 0.79 87.16 0.71 87.75
  L 0.00 85.69
  L 0.00 82.19
  C 9.84 58.18 76.59 57.53 97.90 57.60
  C 238.80 58.02 379.31 57.10 520.00 57.75
  Q 522.75 57.76 538.01 58.90
  Q 550.66 59.84 563.02 62.44
  Q 577.68 65.52 582.36 67.41
  Q 593.20 71.80 600.22 81.82
  Z
  M 61.25 60.04
  C 48.04 61.01 5.07 65.96 0.80 82.76
  C -0.96 89.68 10.76 86.41 13.98 85.12
  A 0.73 0.66 79.3 0 0 14.40 84.43
  C 13.99 73.34 39.19 68.29 47.00 67.21
  Q 68.51 63.69 86.50 63.50
  C 151.25 62.83 229.08 63.45 300.25 63.31
  C 360.84 63.18 414.60 63.67 502.50 63.25
  Q 525.11 63.14 553.00 66.96
  C 562.16 68.61 582.43 72.53 585.55 82.59
  A 1.56 1.26 -85.2 0 0 586.08 83.37
  C 589.53 85.87 594.39 83.59 598.46 84.44
  A 0.91 0.91 87.0 0 0 599.51 83.27
  C 592.87 62.96 539.81 59.51 522.50 58.79
  C 378.92 57.77 236.48 58.47 93.50 58.52
  Q 77.34 58.53 61.25 60.04
  Z
  M 129.04 70.39
  L 129.29 74.00
  C 128.25 76.73 130.54 76.00 132.01 76.00
  Q 162.85 75.96 193.70 76.06
  A 0.79 0.78 -6.2 0 0 194.47 75.11
  C 193.44 70.48 190.35 69.00 185.65 69.00
  Q 158.46 69.00 131.27 69.00
  C 130.24 69.00 128.50 68.34 129.04 70.39
  Z
  M 201.29 70.50
  L 201.29 73.70
  Q 200.53 76.07 203.75 76.00
  Q 215.50 75.73 243.69 76.18
  A 0.51 0.49 1.1 0 0 244.21 75.70
  L 244.24 69.66
  A 0.67 0.66 0.0 0 0 243.57 69.00
  L 201.99 69.00
  A 0.78 0.62 6.9 0 0 201.28 69.44
  Q 201.11 69.94 201.29 70.50
  Z
  M 297.81 76.07
  A 0.44 0.44 0.0 0 0 298.25 75.63
  L 298.25 69.66
  A 0.66 0.66 -0.1 0 0 297.59 69.00
  Q 279.73 69.00 262.16 69.00
  C 255.77 69.00 252.39 68.39 250.34 74.76
  A 0.95 0.94 9.1 0 0 251.24 76.00
  L 297.81 76.07
  Z
  M 307.00 73.65
  Q 305.70 75.94 308.33 75.95
  L 353.90 76.00
  A 0.82 0.82 -5.5 0 0 354.71 75.02
  C 353.85 70.67 350.89 69.07 346.48 69.05
  Q 329.87 68.97 313.25 69.15
  Q 309.52 69.19 307.00 73.65
  Z
  M 390.75 76.21
  L 402.75 76.21
  L 409.71 76.12
  L 424.01 76.25
  A 1.02 0.99 -87.5 0 0 425.01 75.30
  Q 425.25 72.14 421.61 69.50
  A 2.70 2.43 60.0 0 0 420.08 69.00
  L 404.00 69.29
  L 389.75 69.21
  C 383.93 68.60 380.23 68.46 377.99 73.51
  Q 376.95 75.87 379.58 75.94
  L 390.75 76.21
  Z
  M 432.28 70.50
  L 432.29 73.75
  L 432.26 75.44
  A 0.55 0.49 0.5 0 0 432.81 75.94
  L 481.61 76.00
  A 0.44 0.43 -5.0 0 0 482.04 75.49
  C 481.25 70.80 478.68 69.07 473.89 69.04
  Q 453.36 68.92 432.82 69.06
  A 0.56 0.49 -0.5 0 0 432.26 69.56
  L 432.28 70.50
  Z
  M 22.78 81.90
  Q 22.11 84.10 22.54 85.55
  Q 22.33 86.43 22.75 86.54
  Q 25.16 92.83 31.75 91.29
  C 40.15 87.68 37.98 76.39 29.47 77.08
  Q 24.55 76.90 22.78 81.90
  Z
  M 575.00 87.79
  Q 569.83 87.80 564.75 86.79
  L 563.55 86.37
  Q 562.99 86.16 563.25 86.78
  Q 565.24 91.46 570.50 91.71
  C 577.49 91.15 580.52 82.35 574.71 78.35
  C 569.34 74.65 563.92 77.80 562.95 84.09
  A 1.20 1.20 86.7 0 0 564.45 85.43
  C 566.22 84.95 567.46 85.98 568.85 86.15
  C 570.73 86.37 576.64 85.26 575.00 87.79
  Z
  M 387.75 86.79
  Q 387.28 88.03 385.73 87.78
  Q 384.06 87.95 382.28 88.97
  A 0.95 0.93 52.8 0 1 381.12 88.80
  Q 379.13 86.68 378.25 87.82
  A 1.33 0.83 68.5 0 0 378.08 88.74
  C 378.70 92.89 376.92 96.80 382.71 98.00
  Q 386.51 98.59 390.18 98.05
  L 395.00 98.21
  L 409.46 98.15
  Q 414.37 98.29 419.21 98.27
  C 422.89 98.25 425.41 96.30 425.49 92.64
  A 0.87 0.85 -89.3 0 0 424.64 91.75
  L 415.75 91.79
  L 399.66 91.85
  L 395.50 91.79
  Q 392.50 92.17 389.77 91.13
  A 1.13 0.78 10.0 0 1 389.11 90.48
  L 388.25 86.79
  Q 389.11 83.46 388.61 78.68
  A 0.82 0.78 -2.3 0 0 387.81 77.98
  L 378.55 77.84
  A 0.51 0.46 -0.5 0 0 378.04 78.31
  L 378.15 86.07
  A 0.51 0.48 -1.1 0 0 378.68 86.55
  C 379.39 86.53 379.52 86.44 380.24 86.69
  C 383.02 87.67 386.14 85.70 387.75 86.79
  Z
  M 138.96 87.50
  Q 135.34 88.57 131.57 88.46
  A 1.32 0.91 -12.3 0 1 130.69 88.10
  L 130.07 87.36
  A 1.47 0.49 57.3 0 0 129.34 86.77
  Q 128.68 86.58 128.80 87.05
  Q 128.99 87.84 129.00 88.00
  L 129.04 94.00
  L 129.04 95.50
  Q 128.15 98.66 130.63 98.41
  C 133.56 98.12 136.57 98.25 139.73 98.25
  A 0.52 0.52 -89.4 0 0 140.25 97.74
  L 140.51 79.40
  A 1.35 1.27 -90.0 0 0 139.22 78.03
  L 129.69 78.15
  A 0.53 0.52 89.4 0 0 129.18 78.68
  L 129.19 84.56
  Q 129.19 87.62 132.00 87.25
  L 138.20 86.43
  A 1.06 0.50 -12.6 0 1 139.08 86.63
  Q 139.36 87.01 138.96 87.50
  Z
  M 166.29 85.34
  Q 163.65 87.71 160.73 87.12
  A 1.89 1.71 -45.7 0 0 159.78 87.18
  Q 157.79 87.86 155.98 86.82
  Q 155.55 86.58 155.57 87.07
  L 155.79 92.75
  L 155.79 95.25
  L 155.76 97.74
  A 0.53 0.51 0.0 0 0 156.29 98.25
  L 167.44 98.25
  A 0.56 0.56 0.0 0 0 168.00 97.69
  L 168.00 78.84
  A 0.78 0.77 -89.6 0 0 167.24 78.06
  L 156.27 78.00
  A 0.52 0.52 0.0 0 0 155.75 78.52
  L 155.75 84.75
  A 0.97 0.87 -75.4 0 0 156.16 85.54
  C 158.25 86.91 160.02 85.78 161.78 85.66
  Q 164.02 85.51 166.29 85.34
  Z
  M 192.83 83.87
  Q 188.01 86.53 183.28 84.52
  A 0.35 0.33 12.0 0 0 182.80 84.81
  L 182.79 92.25
  L 182.79 95.25
  C 181.81 99.01 184.12 98.25 186.36 98.25
  Q 190.09 98.23 193.81 98.30
  A 0.50 0.49 0.6 0 0 194.32 97.81
  L 194.45 79.36
  A 1.28 1.25 89.8 0 0 193.19 78.08
  L 183.43 78.15
  A 0.57 0.52 -0.0 0 0 182.86 78.67
  L 182.85 82.81
  A 0.72 0.55 7.4 0 0 183.43 83.38
  L 187.33 84.22
  A 2.99 2.63 29.3 0 0 189.72 83.71
  Q 191.49 82.29 192.83 83.87
  Z
  M 217.25 85.04
  Q 217.62 86.53 216.25 86.29
  C 211.19 84.85 206.23 86.08 201.53 84.60
  A 0.41 0.39 7.7 0 0 201.00 84.99
  L 201.29 90.83
  Q 201.45 92.77 202.71 94.26
  Q 205.09 98.25 209.25 98.25
  Q 226.50 98.25 243.75 98.25
  A 0.50 0.50 0.0 0 0 244.25 97.75
  L 244.21 92.16
  A 0.96 0.94 -0.9 0 0 243.23 91.23
  Q 229.11 91.42 216.53 91.05
  C 213.73 90.96 212.70 89.65 212.81 86.93
  L 216.75 86.96
  L 225.25 87.21
  L 239.00 86.96
  Q 240.53 87.35 241.77 86.70
  A 0.82 0.81 -16.3 0 0 242.19 85.94
  L 241.88 81.42
  A 0.59 0.52 -1.0 0 0 241.31 80.93
  Q 221.75 80.42 216.75 80.75
  Q 213.82 80.95 212.96 78.66
  A 0.78 0.65 78.0 0 0 212.31 78.15
  L 201.69 78.15
  A 0.53 0.50 -2.0 0 0 201.16 78.69
  L 201.47 82.95
  A 0.72 0.61 4.4 0 0 202.06 83.53
  C 207.28 84.42 211.56 83.70 217.25 85.04
  Z
  M 260.71 84.75
  L 251.75 83.54
  C 249.51 82.33 250.26 84.82 250.19 86.00
  Q 249.99 89.20 250.75 92.29
  L 251.72 94.65
  Q 254.52 98.27 259.75 98.27
  Q 275.14 98.30 290.52 98.21
  C 304.67 98.12 303.58 80.77 291.50 80.73
  Q 281.91 80.70 272.31 80.81
  A 0.53 0.49 0.0 0 0 271.78 81.30
  L 271.79 84.50
  Q 271.71 84.75 271.79 85.00
  Q 270.83 87.20 273.25 87.14
  Q 279.18 87.01 285.11 87.00
  C 287.06 87.00 288.73 87.70 287.96 90.00
  Q 287.48 90.27 287.21 90.75
  C 283.83 92.30 271.71 91.25 267.43 91.25
  C 264.49 91.25 262.25 91.48 262.25 87.61
  Q 262.25 83.21 262.25 78.94
  A 0.94 0.93 -90.0 0 0 261.32 78.00
  L 251.05 78.05
  A 0.70 0.67 7.4 0 0 250.40 78.53
  Q 249.94 80.12 250.40 81.71
  A 0.72 0.68 -7.1 0 0 251.07 82.20
  C 252.32 82.24 261.68 82.33 260.71 84.75
  Z
  M 317.61 83.68
  Q 312.24 84.66 307.30 83.67
  A 0.44 0.40 5.8 0 0 306.77 84.06
  L 306.79 86.00
  L 306.79 92.25
  L 306.77 94.35
  L 306.70 97.57
  A 0.52 0.49 -89.4 0 0 307.19 98.10
  L 318.49 98.05
  A 0.56 0.52 89.5 0 0 319.00 97.49
  L 319.06 79.10
  A 1.09 1.09 -89.7 0 0 317.97 78.00
  L 307.35 78.00
  A 0.83 0.74 88.2 0 0 306.62 78.88
  L 306.78 81.75
  A 0.58 0.54 -88.3 0 0 307.25 82.28
  L 317.61 83.68
  Z
  M 341.96 83.50
  Q 332.94 83.40 323.93 83.49
  C 322.65 83.51 320.53 82.87 321.03 85.07
  L 321.04 89.00
  Q 320.16 92.36 322.86 92.14
  C 329.15 91.65 335.65 92.04 342.00 91.79
  Q 342.40 92.30 342.25 93.47
  L 342.29 94.57
  L 342.25 97.71
  A 0.52 0.51 89.5 0 0 342.77 98.23
  L 354.06 98.09
  A 0.52 0.50 89.4 0 0 354.56 97.56
  L 354.33 78.68
  A 0.53 0.52 89.4 0 0 353.81 78.16
  L 343.33 78.03
  A 1.30 1.26 83.1 0 0 342.10 79.65
  Q 342.68 81.98 341.96 83.50
  Z
  M 442.46 84.25
  Q 440.71 83.53 439.11 84.42
  Q 438.65 84.68 438.19 84.68
  Q 435.98 84.68 433.96 85.54
  A 2.00 1.33 27.1 0 1 433.00 85.65
  C 431.45 85.45 432.33 90.62 432.29 91.75
  L 432.29 95.50
  Q 431.40 98.66 433.88 98.41
  C 437.05 98.10 440.31 98.25 443.50 98.25
  A 0.50 0.50 0.0 0 0 444.00 97.75
  L 444.00 78.99
  A 0.99 0.99 0.5 0 0 443.01 78.00
  L 432.83 78.00
  A 0.58 0.58 90.0 0 0 432.25 78.58
  C 432.25 80.31 431.42 85.50 433.66 84.56
  C 434.63 84.16 443.13 81.17 442.46 84.25
  Z
  M 470.04 83.50
  L 469.79 84.25
  L 470.04 87.25
  Q 470.26 88.89 469.46 90.25
  Q 469.11 90.40 468.96 90.75
  C 468.19 90.79 467.65 91.19 466.92 91.19
  Q 456.74 91.25 446.57 91.31
  A 0.54 0.52 1.1 0 0 446.03 91.81
  L 445.75 97.33
  A 0.88 0.87 1.5 0 0 446.63 98.25
  Q 459.38 98.25 471.75 98.25
  C 484.34 98.25 482.25 87.88 482.25 79.17
  A 1.12 1.10 90.0 0 0 481.15 78.05
  L 470.88 78.01
  A 1.03 0.86 89.9 0 0 470.01 79.05
  L 470.04 83.50
  Z"
/>
<path fill="#c4d7ff" d="
  M 522.50 58.79
  C 520.13 59.05 517.66 58.72 515.38 59.05
  Q 512.43 59.47 516.50 59.79
  C 478.26 60.13 439.99 60.06 401.75 60.03
  C 334.86 59.99 271.70 60.14 200.96 59.95
  C 195.46 59.93 188.06 59.56 181.50 60.21
  C 150.26 59.76 119.01 60.44 87.78 59.85
  Q 76.63 59.63 65.54 61.25
  L 61.25 60.96
  Q 63.06 60.71 61.25 60.04
  Q 77.34 58.53 93.50 58.52
  C 236.48 58.47 378.92 57.77 522.50 58.79
  Z"
/>
<path fill="#ffffff" d="
  M 522.50 58.79
  C 539.81 59.51 592.87 62.96 599.51 83.27
  A 0.91 0.91 87.0 0 1 598.46 84.44
  C 594.39 83.59 589.53 85.87 586.08 83.37
  A 1.56 1.26 -85.2 0 1 585.55 82.59
  C 582.43 72.53 562.16 68.61 553.00 66.96
  L 554.25 66.29
  Q 563.11 67.30 571.50 70.29
  C 577.17 72.62 581.70 75.03 587.99 74.31
  Q 589.56 74.13 588.20 73.32
  Q 582.67 70.04 576.50 68.29
  C 566.26 64.91 556.11 63.47 545.51 61.91
  Q 540.29 61.14 535.00 61.21
  C 530.89 61.29 526.49 60.27 522.99 60.09
  Q 519.75 59.93 516.50 59.79
  Q 512.43 59.47 515.38 59.05
  C 517.66 58.72 520.13 59.05 522.50 58.79
  Z"
/>
<path fill="#4976dd" d="
  M 181.50 60.21
  Q 183.82 59.70 183.25 61.46
  Q 156.18 61.71 143.75 62.00
  C 139.36 62.10 134.97 61.50 131.08 61.61
  C 119.31 61.94 105.80 60.90 93.15 61.83
  C 88.31 62.18 81.90 61.94 76.30 62.87
  C 73.23 63.38 70.97 62.98 68.00 62.71
  Q 65.77 63.10 65.54 61.25
  Q 76.63 59.63 87.78 59.85
  C 119.01 60.44 150.26 59.76 181.50 60.21
  Z"
/>
<path fill="#4976dd" d="
  M 516.50 59.79
  Q 519.75 59.93 522.99 60.09
  C 526.49 60.27 530.89 61.29 535.00 61.21
  Q 535.99 63.10 532.97 63.09
  Q 515.19 62.02 507.50 62.00
  Q 485.65 61.93 463.80 61.64
  C 446.34 61.40 428.90 62.02 411.42 61.77
  Q 405.90 61.69 397.25 61.75
  Q 357.00 62.03 252.94 61.60
  C 229.70 61.51 206.50 61.95 183.25 61.46
  Q 183.82 59.70 181.50 60.21
  C 188.06 59.56 195.46 59.93 200.96 59.95
  C 271.70 60.14 334.86 59.99 401.75 60.03
  C 439.99 60.06 478.26 60.13 516.50 59.79
  Z"
/>
<path fill="#ffffff" d="
  M 61.25 60.04
  Q 63.06 60.71 61.25 60.96
  C 51.08 62.20 40.37 63.22 30.50 66.04
  Q 23.97 67.44 17.79 70.00
  C 17.46 70.12 7.08 74.95 12.57 74.37
  Q 14.48 74.17 16.29 74.82
  A 1.87 1.44 42.3 0 0 17.24 74.90
  Q 20.49 74.21 23.25 72.29
  L 35.00 68.29
  L 47.00 66.29
  Q 47.45 66.75 47.00 67.21
  C 39.19 68.29 13.99 73.34 14.40 84.43
  A 0.73 0.66 79.3 0 1 13.98 85.12
  C 10.76 86.41 -0.96 89.68 0.80 82.76
  C 5.07 65.96 48.04 61.01 61.25 60.04
  Z"
/>
<path fill="#628ef0" d="
  M 61.25 60.96
  L 65.54 61.25
  Q 65.77 63.10 68.00 62.71
  Q 61.35 64.39 54.50 64.73
  Q 50.62 64.93 47.00 66.29
  L 35.00 68.29
  Q 33.29 68.69 32.30 67.63
  A 0.93 0.86 62.3 0 0 31.50 67.35
  Q 28.89 67.83 30.50 66.04
  C 40.37 63.22 51.08 62.20 61.25 60.96
  Z"
/>
<path fill="#628ef0" d="
  M 576.50 68.29
  Q 576.36 70.48 574.67 69.52
  A 1.16 0.95 -36.2 0 0 573.79 69.47
  L 571.50 70.29
  Q 563.11 67.30 554.25 66.29
  Q 551.71 65.37 549.02 65.10
  C 547.11 64.91 545.50 64.09 543.00 64.25
  Q 540.20 64.43 532.97 63.09
  Q 535.99 63.10 535.00 61.21
  Q 540.29 61.14 545.51 61.91
  C 556.11 63.47 566.26 64.91 576.50 68.29
  Z"
/>
<path fill="#79a1ff" d="
  M 183.25 61.46
  C 206.50 61.95 229.70 61.51 252.94 61.60
  Q 357.00 62.03 397.25 61.75
  Q 405.90 61.69 411.42 61.77
  C 428.90 62.02 446.34 61.40 463.80 61.64
  Q 485.65 61.93 507.50 62.00
  Q 515.19 62.02 532.97 63.09
  Q 540.20 64.43 543.00 64.25
  C 545.50 64.09 547.11 64.91 549.02 65.10
  Q 551.71 65.37 554.25 66.29
  L 553.00 66.96
  Q 525.11 63.14 502.50 63.25
  C 414.60 63.67 360.84 63.18 300.25 63.31
  C 229.08 63.45 151.25 62.83 86.50 63.50
  Q 68.51 63.69 47.00 67.21
  Q 47.45 66.75 47.00 66.29
  Q 50.62 64.93 54.50 64.73
  Q 61.35 64.39 68.00 62.71
  C 70.97 62.98 73.23 63.38 76.30 62.87
  C 81.90 61.94 88.31 62.18 93.15 61.83
  C 105.80 60.90 119.31 61.94 131.08 61.61
  C 134.97 61.50 139.36 62.10 143.75 62.00
  Q 156.18 61.71 183.25 61.46
  Z"
/>
<path fill="#9dbafb" d="
  M 30.50 66.04
  Q 28.89 67.83 31.50 67.35
  A 0.93 0.86 62.3 0 1 32.30 67.63
  Q 33.29 68.69 35.00 68.29
  L 23.25 72.29
  C 21.96 71.83 17.53 71.63 17.79 70.00
  Q 23.97 67.44 30.50 66.04
  Z"
/>
<path fill="#c4d7ff" d="
  M 576.50 68.29
  Q 582.67 70.04 588.20 73.32
  Q 589.56 74.13 587.99 74.31
  C 581.70 75.03 577.17 72.62 571.50 70.29
  L 573.79 69.47
  A 1.16 0.95 -36.2 0 1 574.67 69.52
  Q 576.36 70.48 576.50 68.29
  Z"
/>
<path fill="#ebf0fc" d="
  M 129.29 74.00
  Q 130.24 73.57 131.25 74.04
  Q 135.13 74.54 139.00 73.79
  Q 153.87 73.51 164.50 74.25
  C 168.03 74.49 171.18 73.74 174.17 73.89
  Q 181.12 74.25 188.07 74.03
  C 189.19 74.00 192.63 75.03 191.33 72.52
  C 190.46 70.83 187.73 70.19 186.00 70.19
  Q 157.52 70.20 129.04 70.39
  C 128.50 68.34 130.24 69.00 131.27 69.00
  Q 158.46 69.00 185.65 69.00
  C 190.35 69.00 193.44 70.48 194.47 75.11
  A 0.79 0.78 -6.2 0 1 193.70 76.06
  Q 162.85 75.96 132.01 76.00
  C 130.54 76.00 128.25 76.73 129.29 74.00
  Z"
/>
<path fill="#ebf0fc" d="
  M 201.29 73.70
  L 240.95 74.17
  A 1.23 1.06 19.6 0 0 241.81 73.84
  C 243.82 71.78 242.25 70.33 239.90 70.29
  Q 220.59 70.03 201.29 70.50
  Q 201.11 69.94 201.28 69.44
  A 0.78 0.62 6.9 0 1 201.99 69.00
  L 243.57 69.00
  A 0.67 0.66 -0.0 0 1 244.24 69.66
  L 244.21 75.70
  A 0.51 0.49 1.1 0 1 243.69 76.18
  Q 215.50 75.73 203.75 76.00
  Q 200.53 76.07 201.29 73.70
  Z"
/>
<path fill="#dee6fa" d="
  M 297.81 76.07
  L 251.24 76.00
  A 0.95 0.94 9.1 0 1 250.34 74.76
  C 252.39 68.39 255.77 69.00 262.16 69.00
  Q 279.73 69.00 297.59 69.00
  A 0.66 0.66 0.2 0 1 298.25 69.66
  L 298.25 75.63
  A 0.44 0.44 0.0 0 1 297.81 76.07
  Z
  M 296.36 73.44
  Q 297.67 70.07 294.29 70.21
  C 282.71 70.68 270.86 70.25 259.25 70.25
  C 257.42 70.25 251.96 70.82 252.04 73.25
  Q 252.08 74.39 254.77 73.99
  Q 256.32 73.75 257.90 73.75
  C 270.16 73.75 282.49 73.68 295.06 74.29
  A 1.34 1.31 -77.7 0 0 296.36 73.44
  Z"
/>
<path fill="#ebf0fc" d="
  M 307.00 73.65
  Q 309.52 69.19 313.25 69.15
  Q 329.87 68.97 346.48 69.05
  C 350.89 69.07 353.85 70.67 354.71 75.02
  A 0.82 0.82 -5.5 0 1 353.90 76.00
  L 308.33 75.95
  Q 305.70 75.94 307.00 73.65
  Z
  M 311.07 71.03
  Q 307.94 72.52 308.69 73.86
  A 0.82 0.65 -17.6 0 0 309.49 74.16
  C 313.78 73.42 318.95 73.99 322.18 73.90
  Q 336.25 73.53 350.65 74.01
  Q 352.62 74.08 351.45 72.49
  Q 349.70 70.11 346.25 70.14
  Q 329.88 70.25 314.52 70.25
  Q 312.71 70.25 311.07 71.03
  Z"
/>
<path fill="#6996f7" d="
  M 389.75 69.21
  Q 388.99 69.60 388.14 69.55
  A 1.11 0.49 12.1 0 0 387.41 69.70
  Q 387.19 69.88 387.23 70.09
  A 0.84 0.45 -0.5 0 0 387.99 70.49
  L 392.68 70.75
  A 0.33 0.31 -73.1 0 1 392.92 71.23
  Q 392.09 72.75 392.98 74.33
  A 0.65 0.58 55.2 0 1 392.89 75.10
  Q 391.99 75.88 390.75 76.21
  L 379.58 75.94
  Q 376.95 75.87 377.99 73.51
  C 380.23 68.46 383.93 68.60 389.75 69.21
  Z"
/>
<path fill="#9dbafb" d="
  M 404.00 69.29
  Q 403.62 70.53 404.75 70.54
  Q 405.32 72.34 404.46 74.09
  A 1.19 1.15 4.9 0 1 403.72 74.69
  Q 399.92 75.72 402.75 76.21
  L 390.75 76.21
  Q 391.99 75.88 392.89 75.10
  A 0.65 0.58 55.2 0 0 392.98 74.33
  Q 392.09 72.75 392.92 71.23
  A 0.33 0.31 -73.1 0 0 392.68 70.75
  L 387.99 70.49
  A 0.84 0.45 -0.5 0 1 387.23 70.09
  Q 387.19 69.88 387.41 69.70
  A 1.11 0.49 12.1 0 1 388.14 69.55
  Q 388.99 69.60 389.75 69.21
  L 404.00 69.29
  Z"
/>
<path fill="#f9fdfe" d="
  M 409.71 76.12
  Q 411.01 73.97 409.35 71.05
  A 0.64 0.46 72.2 0 0 408.92 70.73
  L 404.75 70.54
  Q 403.62 70.53 404.00 69.29
  L 420.08 69.00
  A 2.70 2.43 60.0 0 1 421.61 69.50
  Q 425.25 72.14 425.01 75.30
  A 1.02 0.99 -87.5 0 1 424.01 76.25
  L 409.71 76.12
  Z"
/>
<path fill="#ebf0fc" d="
  M 432.29 73.75
  L 478.93 73.93
  A 0.41 0.39 -7.1 0 0 479.33 73.44
  Q 478.63 70.63 476.00 70.50
  Q 460.22 69.71 432.28 70.50
  L 432.26 69.56
  A 0.56 0.49 -0.5 0 1 432.82 69.06
  Q 453.36 68.92 473.89 69.04
  C 478.68 69.07 481.25 70.80 482.04 75.49
  A 0.44 0.43 -5.0 0 1 481.61 76.00
  L 432.81 75.94
  A 0.55 0.49 0.5 0 1 432.26 75.44
  L 432.29 73.75
  Z"
/>
<path fill="#cddcfd" d="
  M 17.79 70.00
  C 17.53 71.63 21.96 71.83 23.25 72.29
  Q 20.49 74.21 17.24 74.90
  A 1.87 1.44 42.3 0 1 16.29 74.82
  Q 14.48 74.17 12.57 74.37
  C 7.08 74.95 17.46 70.12 17.79 70.00
  Z"
/>
<path fill="#6996f7" d="
  M 139.00 73.79
  L 131.25 74.04
  Q 130.24 73.57 129.29 74.00
  L 129.04 70.39
  Q 157.52 70.20 186.00 70.19
  C 187.73 70.19 190.46 70.83 191.33 72.52
  C 192.63 75.03 189.19 74.00 188.07 74.03
  Q 181.12 74.25 174.17 73.89
  C 171.18 73.74 168.03 74.49 164.50 74.25
  Q 153.87 73.51 139.00 73.79
  Z"
/>
<path fill="#6996f7" d="
  M 201.29 73.70
  L 201.29 70.50
  Q 220.59 70.03 239.90 70.29
  C 242.25 70.33 243.82 71.78 241.81 73.84
  A 1.23 1.06 19.6 0 1 240.95 74.17
  L 201.29 73.70
  Z"
/>
<path fill="#6996f7" d="
  M 296.36 73.44
  A 1.34 1.31 -77.7 0 1 295.06 74.29
  C 282.49 73.68 270.16 73.75 257.90 73.75
  Q 256.32 73.75 254.77 73.99
  Q 252.08 74.39 252.04 73.25
  C 251.96 70.82 257.42 70.25 259.25 70.25
  C 270.86 70.25 282.71 70.68 294.29 70.21
  Q 297.67 70.07 296.36 73.44
  Z"
/>
<path fill="#6996f7" d="
  M 311.07 71.03
  Q 312.71 70.25 314.52 70.25
  Q 329.88 70.25 346.25 70.14
  Q 349.70 70.11 351.45 72.49
  Q 352.62 74.08 350.65 74.01
  Q 336.25 73.53 322.18 73.90
  C 318.95 73.99 313.78 73.42 309.49 74.16
  A 0.82 0.65 -17.6 0 1 308.69 73.86
  Q 307.94 72.52 311.07 71.03
  Z"
/>
<path fill="#6996f7" d="
  M 432.29 73.75
  L 432.28 70.50
  Q 460.22 69.71 476.00 70.50
  Q 478.63 70.63 479.33 73.44
  A 0.41 0.39 -7.1 0 1 478.93 73.93
  L 432.29 73.75
  Z"
/>
<path fill="#cddcfd" d="
  M 404.75 70.54
  L 408.92 70.73
  A 0.64 0.46 72.2 0 1 409.35 71.05
  Q 411.01 73.97 409.71 76.12
  L 402.75 76.21
  Q 399.92 75.72 403.72 74.69
  A 1.19 1.15 4.9 0 0 404.46 74.09
  Q 405.32 72.34 404.75 70.54
  Z"
/>
<path fill="#9dbafb" d="
  M 139.00 73.79
  Q 135.13 74.54 131.25 74.04
  L 139.00 73.79
  Z"
/>
<path fill="#b1c9fc" d="
  M 29.47 77.08
  Q 33.60 78.71 34.80 82.70
  A 0.48 0.48 -15.3 0 1 34.45 83.31
  C 31.48 84.03 25.06 85.05 22.78 81.90
  Q 24.55 76.90 29.47 77.08
  Z"
/>
<path fill="#f9fdfe" d="
  M 29.47 77.08
  C 37.98 76.39 40.15 87.68 31.75 91.29
  Q 31.17 90.55 31.75 89.79
  Q 34.04 89.04 34.71 86.75
  Q 35.39 86.42 35.26 85.94
  A 0.74 0.54 -10.4 0 0 34.50 85.57
  Q 28.55 86.35 22.54 85.55
  Q 22.11 84.10 22.78 81.90
  C 25.06 85.05 31.48 84.03 34.45 83.31
  A 0.48 0.48 -15.3 0 0 34.80 82.70
  Q 33.60 78.71 29.47 77.08
  Z"
/>
<path fill="#f9fdfe" d="
  M 570.50 91.71
  Q 570.24 90.74 571.00 90.29
  Q 573.55 89.92 575.00 87.79
  C 576.64 85.26 570.73 86.37 568.85 86.15
  C 567.46 85.98 566.22 84.95 564.45 85.43
  A 1.20 1.20 86.7 0 1 562.95 84.09
  C 563.92 77.80 569.34 74.65 574.71 78.35
  C 580.52 82.35 577.49 91.15 570.50 91.71
  Z
  M 565.04 81.00
  C 563.85 83.94 565.98 83.38 567.51 83.82
  Q 571.10 84.87 574.82 84.38
  A 0.77 0.76 4.5 0 0 575.47 83.83
  Q 576.00 81.93 574.88 80.78
  Q 569.42 74.44 565.04 81.00
  Z"
/>
<path fill="#ffffff" d="
  M 388.25 86.79
  Q 388.00 86.71 387.75 86.79
  C 386.14 85.70 383.02 87.67 380.24 86.69
  C 379.52 86.44 379.39 86.53 378.68 86.55
  A 0.51 0.48 -1.1 0 1 378.15 86.07
  L 378.04 78.31
  A 0.51 0.46 -0.5 0 1 378.55 77.84
  L 387.81 77.98
  A 0.82 0.78 -2.3 0 1 388.61 78.68
  Q 389.11 83.46 388.25 86.79
  Z"
/>
<path fill="#9dbafb" d="
  M 574.88 80.78
  L 565.80 82.35
  A 0.54 0.40 76.7 0 1 565.31 81.94
  L 565.04 81.00
  Q 569.42 74.44 574.88 80.78
  Z"
/>
<path fill="#ffffff" d="
  M 129.04 95.50
  L 137.75 95.49
  A 1.00 0.79 12.3 0 0 138.55 95.10
  Q 138.93 94.50 138.96 93.75
  L 138.96 87.50
  Q 139.36 87.01 139.08 86.63
  A 1.06 0.50 -12.6 0 0 138.20 86.43
  L 132.00 87.25
  Q 129.19 87.62 129.19 84.56
  L 129.18 78.68
  A 0.53 0.52 89.4 0 1 129.69 78.15
  L 139.22 78.03
  A 1.35 1.27 -90.0 0 1 140.51 79.40
  L 140.25 97.74
  A 0.52 0.52 -89.4 0 1 139.73 98.25
  C 136.57 98.25 133.56 98.12 130.63 98.41
  Q 128.15 98.66 129.04 95.50
  Z"
/>
<path fill="#ffffff" d="
  M 155.79 95.25
  Q 159.46 95.57 164.50 95.25
  Q 166.38 95.13 165.96 93.25
  Q 166.73 89.84 166.29 85.34
  Q 164.02 85.51 161.78 85.66
  C 160.02 85.78 158.25 86.91 156.16 85.54
  A 0.97 0.87 -75.4 0 1 155.75 84.75
  L 155.75 78.52
  A 0.52 0.52 -0.0 0 1 156.27 78.00
  L 167.24 78.06
  A 0.78 0.77 -89.6 0 1 168.00 78.84
  L 168.00 97.69
  A 0.56 0.56 0.0 0 1 167.44 98.25
  L 156.29 98.25
  A 0.53 0.51 0.0 0 1 155.76 97.74
  L 155.79 95.25
  Z"
/>
<path fill="#ffffff" d="
  M 182.79 95.25
  L 190.93 95.43
  A 1.31 1.09 19.8 0 0 191.81 95.11
  Q 193.98 93.02 192.79 89.75
  L 192.83 83.87
  Q 191.49 82.29 189.72 83.71
  A 2.99 2.63 29.3 0 1 187.33 84.22
  L 183.43 83.38
  A 0.72 0.55 7.4 0 1 182.85 82.81
  L 182.86 78.67
  A 0.57 0.52 -0.0 0 1 183.43 78.15
  L 193.19 78.08
  A 1.28 1.25 89.8 0 1 194.45 79.36
  L 194.32 97.81
  A 0.50 0.49 0.6 0 1 193.81 98.30
  Q 190.09 98.23 186.36 98.25
  C 184.12 98.25 181.81 99.01 182.79 95.25
  Z"
/>
<path fill="#ffffff" d="
  M 239.00 86.96
  Q 240.84 85.71 240.33 83.04
  Q 237.02 82.30 234.13 83.67
  C 229.41 85.92 222.36 85.55 217.25 85.04
  C 211.56 83.70 207.28 84.42 202.06 83.53
  A 0.72 0.61 4.4 0 1 201.47 82.95
  L 201.16 78.69
  A 0.53 0.50 -2.0 0 1 201.69 78.15
  L 212.31 78.15
  A 0.78 0.65 78.0 0 1 212.96 78.66
  Q 213.82 80.95 216.75 80.75
  Q 221.75 80.42 241.31 80.93
  A 0.59 0.52 -1.0 0 1 241.88 81.42
  L 242.19 85.94
  A 0.82 0.81 -16.3 0 1 241.77 86.70
  Q 240.53 87.35 239.00 86.96
  Z"
/>
<path fill="#ffffff" d="
  M 287.21 90.75
  Q 287.80 92.36 286.25 92.50
  Q 275.09 93.52 262.08 92.07
  Q 260.13 88.97 260.71 86.25
  L 260.71 84.75
  C 261.68 82.33 252.32 82.24 251.07 82.20
  A 0.72 0.68 -7.1 0 1 250.40 81.71
  Q 249.94 80.12 250.40 78.53
  A 0.70 0.67 7.4 0 1 251.05 78.05
  L 261.32 78.00
  A 0.94 0.93 -90.0 0 1 262.25 78.94
  Q 262.25 83.21 262.25 87.61
  C 262.25 91.48 264.49 91.25 267.43 91.25
  C 271.71 91.25 283.83 92.30 287.21 90.75
  Z"
/>
<path fill="#ffffff" d="
  M 306.77 94.35
  Q 311.53 95.76 315.75 95.50
  Q 317.87 95.37 317.21 93.00
  L 317.46 88.75
  L 317.61 83.68
  L 307.25 82.28
  A 0.58 0.54 -88.3 0 1 306.78 81.75
  L 306.62 78.88
  A 0.83 0.74 88.2 0 1 307.35 78.00
  L 317.97 78.00
  A 1.09 1.09 -89.7 0 1 319.06 79.10
  L 319.00 97.49
  A 0.56 0.52 89.5 0 1 318.49 98.05
  L 307.19 98.10
  A 0.52 0.49 -89.4 0 1 306.70 97.57
  L 306.77 94.35
  Z"
/>
<path fill="#ffffff" d="
  M 342.29 94.57
  Q 346.07 95.59 351.50 95.25
  Q 352.81 95.17 352.71 94.00
  L 353.06 85.74
  Q 347.72 84.56 342.25 84.46
  Q 341.93 84.03 341.96 83.50
  Q 342.68 81.98 342.10 79.65
  A 1.30 1.26 83.1 0 1 343.33 78.03
  L 353.81 78.16
  A 0.53 0.52 89.4 0 1 354.33 78.68
  L 354.56 97.56
  A 0.52 0.50 89.4 0 1 354.06 98.09
  L 342.77 98.23
  A 0.52 0.51 89.5 0 1 342.25 97.71
  L 342.29 94.57
  Z"
/>
<path fill="#ffffff" d="
  M 432.29 95.50
  L 441.05 95.09
  A 0.83 0.80 10.1 0 0 441.77 94.61
  Q 442.50 92.89 442.46 91.00
  L 442.46 84.25
  C 443.13 81.17 434.63 84.16 433.66 84.56
  C 431.42 85.50 432.25 80.31 432.25 78.58
  A 0.58 0.58 -89.7 0 1 432.83 78.00
  L 443.01 78.00
  A 0.99 0.99 0.5 0 1 444.00 78.99
  L 444.00 97.75
  A 0.50 0.50 0.0 0 1 443.50 98.25
  C 440.31 98.25 437.05 98.10 433.88 98.41
  Q 431.40 98.66 432.29 95.50
  Z"
/>
<path fill="#ffffff" d="
  M 468.96 90.75
  Q 468.58 92.52 466.31 92.56
  Q 452.79 92.82 448.51 92.95
  Q 446.29 93.02 447.17 94.64
  A 0.92 0.82 -12.2 0 0 447.93 95.07
  Q 461.72 95.18 475.50 95.25
  Q 479.25 95.27 479.75 92.29
  Q 480.96 89.14 480.46 85.75
  Q 480.73 84.56 480.21 83.50
  Q 480.62 82.65 480.53 81.81
  A 0.34 0.32 -18.8 0 0 480.02 81.58
  C 478.37 82.56 476.69 82.16 475.02 82.61
  Q 472.58 83.27 470.04 83.50
  L 470.01 79.05
  A 1.03 0.86 89.9 0 1 470.88 78.01
  L 481.15 78.05
  A 1.12 1.10 90.0 0 1 482.25 79.17
  C 482.25 87.88 484.34 98.25 471.75 98.25
  Q 459.38 98.25 446.63 98.25
  A 0.88 0.87 1.5 0 1 445.75 97.33
  L 446.03 91.81
  A 0.54 0.52 1.1 0 1 446.57 91.31
  Q 456.74 91.25 466.92 91.19
  C 467.65 91.19 468.19 90.79 468.96 90.75
  Z"
/>
<path fill="#c4d7ff" d="
  M 574.88 80.78
  Q 576.00 81.93 575.47 83.83
  A 0.77 0.76 4.5 0 1 574.82 84.38
  Q 571.10 84.87 567.51 83.82
  C 565.98 83.38 563.85 83.94 565.04 81.00
  L 565.31 81.94
  A 0.54 0.40 76.7 0 0 565.80 82.35
  L 574.88 80.78
  Z"
/>
<path fill="#ffffff" d="
  M 251.72 94.65
  Q 273.14 95.65 294.56 95.15
  Q 298.15 95.06 298.71 91.50
  Q 300.06 86.28 295.26 82.74
  L 271.79 84.50
  L 271.78 81.30
  A 0.53 0.49 -0.0 0 1 272.31 80.81
  Q 281.91 80.70 291.50 80.73
  C 303.58 80.77 304.67 98.12 290.52 98.21
  Q 275.14 98.30 259.75 98.27
  Q 254.52 98.27 251.72 94.65
  Z"
/>
<path fill="#000000" d="
  M 480.21 83.50
  C 476.81 83.29 472.64 85.26 469.79 84.25
  L 470.04 83.50
  Q 472.58 83.27 475.02 82.61
  C 476.69 82.16 478.37 82.56 480.02 81.58
  A 0.34 0.32 -18.8 0 1 480.53 81.81
  Q 480.62 82.65 480.21 83.50
  Z"
/>
<path fill="#2e433d" fill-opacity="0.945" d="
  M 240.33 83.04
  L 232.09 85.61
  Q 230.24 86.20 228.16 85.69
  Q 227.03 85.42 225.25 87.21
  L 216.75 86.96
  Q 216.70 86.49 216.25 86.29
  Q 217.62 86.53 217.25 85.04
  C 222.36 85.55 229.41 85.92 234.13 83.67
  Q 237.02 82.30 240.33 83.04
  Z"
/>
<path fill="#000000" d="
  M 295.26 82.74
  Q 290.63 84.48 282.50 85.39
  Q 282.12 85.43 281.74 85.50
  Q 276.69 86.42 271.79 85.00
  Q 271.71 84.75 271.79 84.50
  L 295.26 82.74
  Z"
/>
<path fill="#f7ca11" d="
  M 251.75 83.54
  Q 251.51 84.66 251.98 85.57
  A 1.15 0.97 -4.8 0 0 252.74 86.11
  Q 256.70 86.95 260.71 86.25
  Q 260.13 88.97 262.08 92.07
  Q 256.64 93.57 250.75 92.29
  Q 249.99 89.20 250.19 86.00
  C 250.26 84.82 249.51 82.33 251.75 83.54
  Z"
/>
<path fill="#ec9d0b" d="
  M 240.33 83.04
  Q 240.84 85.71 239.00 86.96
  L 225.25 87.21
  Q 227.03 85.42 228.16 85.69
  Q 230.24 86.20 232.09 85.61
  L 240.33 83.04
  Z"
/>
<path fill="#f2b711" d="
  M 295.26 82.74
  Q 300.06 86.28 298.71 91.50
  C 295.57 92.00 292.58 91.91 289.44 92.12
  Q 287.36 92.27 287.96 90.00
  C 288.73 87.70 287.06 87.00 285.11 87.00
  Q 279.18 87.01 273.25 87.14
  Q 270.83 87.20 271.79 85.00
  Q 276.69 86.42 281.74 85.50
  Q 282.12 85.43 282.50 85.39
  Q 290.63 84.48 295.26 82.74
  Z"
/>
<path fill="#dce0e0" d="
  M 341.96 83.50
  Q 341.93 84.03 342.25 84.46
  L 340.50 84.79
  Q 338.97 84.56 337.50 84.96
  L 321.03 85.07
  C 320.53 82.87 322.65 83.51 323.93 83.49
  Q 332.94 83.40 341.96 83.50
  Z"
/>
<path fill="#e18806" d="
  M 251.75 83.54
  L 260.71 84.75
  L 260.71 86.25
  Q 256.70 86.95 252.74 86.11
  A 1.15 0.97 -4.8 0 1 251.98 85.57
  Q 251.51 84.66 251.75 83.54
  Z"
/>
<path fill="#e89106" d="
  M 317.61 83.68
  L 317.46 88.75
  Q 315.68 89.28 314.31 88.15
  A 1.46 0.83 51.7 0 0 313.45 87.80
  L 309.75 88.00
  Q 307.40 88.13 307.69 86.56
  Q 307.84 85.73 306.79 86.00
  L 306.77 84.06
  A 0.44 0.40 5.8 0 1 307.30 83.67
  Q 312.24 84.66 317.61 83.68
  Z"
/>
<path fill="#e89106" d="
  M 480.21 83.50
  Q 480.73 84.56 480.46 85.75
  C 478.64 87.38 472.12 87.33 470.04 87.25
  L 469.79 84.25
  C 472.64 85.26 476.81 83.29 480.21 83.50
  Z"
/>
<path fill="#edab0c" d="
  M 442.46 84.25
  L 442.46 91.00
  Q 437.43 92.02 432.29 91.75
  C 432.33 90.62 431.45 85.45 433.00 85.65
  A 2.00 1.33 27.1 0 0 433.96 85.54
  Q 435.98 84.68 438.19 84.68
  Q 438.65 84.68 439.11 84.42
  Q 440.71 83.53 442.46 84.25
  Z"
/>
<path fill="#edab0c" d="
  M 192.83 83.87
  L 192.79 89.75
  L 192.73 90.94
  A 0.69 0.66 -4.7 0 1 192.19 91.55
  Q 187.56 92.59 182.79 92.25
  L 182.80 84.81
  A 0.35 0.33 12.0 0 1 183.28 84.52
  Q 188.01 86.53 192.83 83.87
  Z"
/>
<path fill="#ec9d0b" d="
  M 216.25 86.29
  Q 216.70 86.49 216.75 86.96
  L 212.81 86.93
  Q 210.17 89.64 213.54 92.20
  Q 212.74 93.59 211.32 92.50
  A 2.99 2.97 -34.5 0 0 208.69 92.02
  Q 204.56 93.22 201.29 90.83
  L 201.00 84.99
  A 0.41 0.39 7.7 0 1 201.53 84.60
  C 206.23 86.08 211.19 84.85 216.25 86.29
  Z"
/>
<path fill="#241e17" d="
  M 342.25 84.46
  Q 347.72 84.56 353.06 85.74
  Q 347.27 87.04 341.75 85.71
  Q 340.78 85.60 340.50 84.79
  L 342.25 84.46
  Z"
/>
<path fill="#edab0c" d="
  M 337.50 84.96
  Q 339.39 86.27 341.75 85.71
  Q 347.27 87.04 353.06 85.74
  L 352.71 94.00
  Q 347.42 94.56 342.25 93.47
  Q 342.40 92.30 342.00 91.79
  Q 342.48 90.94 341.67 90.30
  A 3.48 2.83 58.6 0 0 339.58 89.56
  L 323.57 90.14
  A 1.02 0.91 67.7 0 1 322.78 89.76
  Q 322.13 88.95 321.04 89.00
  L 321.03 85.07
  L 337.50 84.96
  Z"
/>
<path fill="#da7907" d="
  M 340.50 84.79
  Q 340.78 85.60 341.75 85.71
  Q 339.39 86.27 337.50 84.96
  Q 338.97 84.56 340.50 84.79
  Z"
/>
<path fill="#e18806" d="
  M 599.50 86.04
  Q 598.88 88.93 596.94 92.07
  L 586.55 90.31
  A 0.81 0.65 87.0 0 1 586.00 89.69
  Q 585.76 88.54 584.79 88.00
  L 585.63 85.28
  A 0.49 0.46 19.6 0 1 586.27 85.00
  C 591.07 86.87 594.54 84.25 599.50 86.04
  Z"
/>
<path fill="#241e17" d="
  M 34.71 86.75
  Q 29.53 87.67 24.29 87.00
  Q 23.67 86.32 22.75 86.54
  Q 22.33 86.43 22.54 85.55
  Q 28.55 86.35 34.50 85.57
  A 0.74 0.54 -10.4 0 1 35.26 85.94
  Q 35.39 86.42 34.71 86.75
  Z"
/>
<path fill="#ec9d0b" d="
  M 166.29 85.34
  Q 166.73 89.84 165.96 93.25
  Q 160.84 93.62 155.79 92.75
  L 155.57 87.07
  Q 155.55 86.58 155.98 86.82
  Q 157.79 87.86 159.78 87.18
  A 1.89 1.71 -45.7 0 1 160.73 87.12
  Q 163.65 87.71 166.29 85.34
  Z"
/>
<path fill="#f7ca11" d="
  M 480.46 85.75
  Q 480.96 89.14 479.75 92.29
  Q 475.17 91.96 472.25 92.50
  Q 469.15 93.07 469.46 90.25
  Q 470.26 88.89 470.04 87.25
  C 472.12 87.33 478.64 87.38 480.46 85.75
  Z"
/>
<path fill="#f7ca11" d="
  M 306.79 86.00
  Q 307.84 85.73 307.69 86.56
  Q 307.40 88.13 309.75 88.00
  L 313.45 87.80
  A 1.46 0.83 51.7 0 1 314.31 88.15
  Q 315.68 89.28 317.46 88.75
  L 317.21 93.00
  Q 311.86 94.28 306.79 92.25
  L 306.79 86.00
  Z"
/>
<path fill="#fef08a" d="
  M 564.75 86.79
  Q 566.77 90.37 571.00 90.29
  Q 570.24 90.74 570.50 91.71
  Q 565.24 91.46 563.25 86.78
  Q 562.99 86.16 563.55 86.37
  L 564.75 86.79
  Z"
/>
<path fill="#e18806" d="
  M 17.07 90.83
  L 7.27 93.31
  A 1.71 1.57 -31.8 0 1 5.89 93.05
  Q 4.23 91.77 3.54 92.25
  L 1.04 88.25
  L 0.71 87.75
  Q 0.79 87.16 1.56 87.44
  Q 6.16 89.09 12.75 86.57
  A 2.25 1.74 62.4 0 1 15.08 87.64
  L 17.07 90.83
  Z"
/>
<path fill="#fef08a" d="
  M 22.75 86.54
  Q 23.67 86.32 24.29 87.00
  Q 26.77 91.20 31.75 89.79
  Q 31.17 90.55 31.75 91.29
  Q 25.16 92.83 22.75 86.54
  Z"
/>
<path fill="#e89106" d="
  M 34.71 86.75
  Q 34.04 89.04 31.75 89.79
  Q 26.77 91.20 24.29 87.00
  Q 29.53 87.67 34.71 86.75
  Z"
/>
<path fill="#ec9d0b" d="
  M 138.96 87.50
  L 138.96 93.75
  L 129.04 94.00
  L 129.00 88.00
  Q 128.99 87.84 128.80 87.05
  Q 128.68 86.58 129.34 86.77
  A 1.47 0.49 57.3 0 1 130.07 87.36
  L 130.69 88.10
  A 1.32 0.91 -12.3 0 0 131.57 88.46
  Q 135.34 88.57 138.96 87.50
  Z"
/>
<path fill="#e9a530" d="
  M 387.75 86.79
  Q 388.00 86.71 388.25 86.79
  L 389.11 90.48
  A 1.13 0.78 10.0 0 0 389.77 91.13
  Q 392.50 92.17 395.50 91.79
  Q 394.09 94.10 394.79 96.72
  A 0.32 0.31 -4.9 0 1 394.45 97.12
  Q 392.09 96.85 390.18 98.05
  Q 386.51 98.59 382.71 98.00
  Q 384.32 96.99 386.87 97.33
  Q 389.14 97.63 388.18 95.56
  Q 387.59 94.29 388.45 92.62
  A 0.89 0.80 -50.1 0 0 388.42 91.77
  L 385.73 87.78
  Q 387.28 88.03 387.75 86.79
  Z"
/>
<path fill="#e89106" d="
  M 564.75 86.79
  Q 569.83 87.80 575.00 87.79
  Q 573.55 89.92 571.00 90.29
  Q 566.77 90.37 564.75 86.79
  Z"
/>
<path fill="#ffffff" d="
  M 212.81 86.93
  C 212.70 89.65 213.73 90.96 216.53 91.05
  Q 229.11 91.42 243.23 91.23
  A 0.96 0.94 -0.9 0 1 244.21 92.16
  L 244.25 97.75
  A 0.50 0.50 0.0 0 1 243.75 98.25
  Q 226.50 98.25 209.25 98.25
  Q 205.09 98.25 202.71 94.26
  Q 207.81 94.94 212.85 95.20
  C 214.38 95.28 215.74 94.46 217.42 94.75
  C 224.36 95.93 232.39 95.25 239.48 95.25
  C 240.38 95.25 242.90 95.63 242.47 94.00
  A 1.74 1.74 -8.5 0 0 240.74 92.72
  Q 226.49 93.10 213.54 92.20
  Q 210.17 89.64 212.81 86.93
  Z"
/>
<path fill="#da7907" d="
  M 385.73 87.78
  L 388.42 91.77
  A 0.89 0.80 -50.1 0 1 388.45 92.62
  Q 387.59 94.29 388.18 95.56
  Q 389.14 97.63 386.87 97.33
  Q 384.32 96.99 382.71 98.00
  C 376.92 96.80 378.70 92.89 378.08 88.74
  A 1.33 0.83 68.5 0 1 378.25 87.82
  Q 379.13 86.68 381.12 88.80
  A 0.95 0.93 52.8 0 0 382.28 88.97
  Q 384.06 87.95 385.73 87.78
  Z"
/>
<path fill="#e9a530" d="
  M 584.79 88.00
  Q 585.76 88.54 586.00 89.69
  A 0.81 0.65 87.0 0 0 586.55 90.31
  L 596.94 92.07
  L 595.25 93.54
  L 591.49 94.63
  A 0.72 0.53 63.6 0 1 590.81 94.28
  Q 590.55 93.84 590.00 93.76
  Q 585.66 93.15 581.49 92.10
  L 584.79 88.00
  Z"
/>
<path fill="#000000" d="
  M 1.04 88.25
  L 3.54 92.25
  L 3.46 92.50
  Q 1.38 90.87 1.04 88.25
  Z"
/>
<path fill="#ffd725" d="
  M 321.04 89.00
  Q 322.13 88.95 322.78 89.76
  A 1.02 0.91 67.7 0 0 323.57 90.14
  L 339.58 89.56
  A 3.48 2.83 58.6 0 1 341.67 90.30
  Q 342.48 90.94 342.00 91.79
  C 335.65 92.04 329.15 91.65 322.86 92.14
  Q 320.16 92.36 321.04 89.00
  Z"
/>
<path fill="#fef08a" d="
  M 192.79 89.75
  Q 193.98 93.02 191.81 95.11
  A 1.31 1.09 19.8 0 1 190.93 95.43
  L 182.79 95.25
  L 182.79 92.25
  Q 187.56 92.59 192.19 91.55
  A 0.69 0.66 -4.7 0 0 192.73 90.94
  L 192.79 89.75
  Z"
/>
<path fill="#fef08a" d="
  M 287.96 90.00
  Q 287.36 92.27 289.44 92.12
  C 292.58 91.91 295.57 92.00 298.71 91.50
  Q 298.15 95.06 294.56 95.15
  Q 273.14 95.65 251.72 94.65
  L 250.75 92.29
  Q 256.64 93.57 262.08 92.07
  Q 275.09 93.52 286.25 92.50
  Q 287.80 92.36 287.21 90.75
  Q 287.48 90.27 287.96 90.00
  Z"
/>
<path fill="#fef08a" d="
  M 469.46 90.25
  Q 469.15 93.07 472.25 92.50
  Q 475.17 91.96 479.75 92.29
  Q 479.25 95.27 475.50 95.25
  Q 461.72 95.18 447.93 95.07
  A 0.92 0.82 -12.2 0 1 447.17 94.64
  Q 446.29 93.02 448.51 92.95
  Q 452.79 92.82 466.31 92.56
  Q 468.58 92.52 468.96 90.75
  Q 469.11 90.40 469.46 90.25
  Z"
/>
<path fill="#f9d67a" d="
  M 17.07 90.83
  L 23.25 95.04
  L 9.46 96.75
  Q 6.12 95.10 3.46 92.50
  L 3.54 92.25
  Q 4.23 91.77 5.89 93.05
  A 1.71 1.57 -31.8 0 0 7.27 93.31
  L 17.07 90.83
  Z"
/>
<path fill="#fef08a" d="
  M 201.29 90.83
  Q 204.56 93.22 208.69 92.02
  A 2.99 2.97 -34.5 0 1 211.32 92.50
  Q 212.74 93.59 213.54 92.20
  Q 226.49 93.10 240.74 92.72
  A 1.74 1.74 -8.5 0 1 242.47 94.00
  C 242.90 95.63 240.38 95.25 239.48 95.25
  C 232.39 95.25 224.36 95.93 217.42 94.75
  C 215.74 94.46 214.38 95.28 212.85 95.20
  Q 207.81 94.94 202.71 94.26
  Q 201.45 92.77 201.29 90.83
  Z"
/>
<path fill="#fef08a" d="
  M 442.46 91.00
  Q 442.50 92.89 441.77 94.61
  A 0.83 0.80 10.1 0 1 441.05 95.09
  L 432.29 95.50
  L 432.29 91.75
  Q 437.43 92.02 442.46 91.00
  Z"
/>
<path fill="#f7d261" d="
  M 395.50 91.79
  L 399.66 91.85
  Q 403.60 96.68 397.25 97.25
  Q 395.53 97.41 395.00 98.21
  L 390.18 98.05
  Q 392.09 96.85 394.45 97.12
  A 0.32 0.31 -4.9 0 0 394.79 96.72
  Q 394.09 94.10 395.50 91.79
  Z"
/>
<path fill="#fef08a" d="
  M 399.66 91.85
  L 415.75 91.79
  Q 414.59 92.27 415.11 95.02
  A 1.21 1.20 -6.0 0 1 413.95 96.45
  Q 411.76 96.49 409.46 98.15
  L 395.00 98.21
  Q 395.53 97.41 397.25 97.25
  Q 403.60 96.68 399.66 91.85
  Z"
/>
<path fill="#ffffff" d="
  M 415.75 91.79
  L 424.64 91.75
  A 0.87 0.85 -89.3 0 1 425.49 92.64
  C 425.41 96.30 422.89 98.25 419.21 98.27
  Q 414.37 98.29 409.46 98.15
  Q 411.76 96.49 413.95 96.45
  A 1.21 1.20 -6.0 0 0 415.11 95.02
  Q 414.59 92.27 415.75 91.79
  Z"
/>
<path fill="#fbe59d" d="
  M 581.49 92.10
  Q 585.66 93.15 590.00 93.76
  Q 590.55 93.84 590.81 94.28
  A 0.72 0.53 63.6 0 0 591.49 94.63
  L 595.25 93.54
  Q 591.89 96.76 587.63 98.28
  Q 584.57 96.33 581.20 95.66
  C 579.96 95.42 578.46 95.94 577.25 94.71
  L 581.49 92.10
  Z"
/>
<path fill="#fbe59d" d="
  M 306.79 92.25
  Q 311.86 94.28 317.21 93.00
  Q 317.87 95.37 315.75 95.50
  Q 311.53 95.76 306.77 94.35
  L 306.79 92.25
  Z"
/>
<path fill="#fef08a" d="
  M 155.79 92.75
  Q 160.84 93.62 165.96 93.25
  Q 166.38 95.13 164.50 95.25
  Q 159.46 95.57 155.79 95.25
  L 155.79 92.75
  Z"
/>
<path fill="#fbe59d" d="
  M 342.25 93.47
  Q 347.42 94.56 352.71 94.00
  Q 352.81 95.17 351.50 95.25
  Q 346.07 95.59 342.29 94.57
  L 342.25 93.47
  Z"
/>
<path fill="#fbe59d" d="
  M 138.96 93.75
  Q 138.93 94.50 138.55 95.10
  A 1.00 0.79 12.3 0 1 137.75 95.49
  L 129.04 95.50
  L 129.04 94.00
  L 138.96 93.75
  Z"
/>
<path fill="#f9fdfe" d="
  M 577.25 94.71
  C 578.46 95.94 579.96 95.42 581.20 95.66
  Q 584.57 96.33 587.63 98.28
  Q 577.80 102.13 567.50 103.71
  L 560.75 104.71
  L 556.00 105.04
  C 550.24 105.39 544.40 103.99 539.24 104.04
  Q 496.28 104.43 453.31 104.24
  C 350.99 103.80 248.64 104.29 146.31 104.19
  Q 98.48 104.14 89.00 103.96
  L 113.18 103.68
  Q 113.89 103.68 113.45 103.27
  C 112.90 102.75 98.23 102.94 94.50 102.79
  Q 297.47 102.72 500.44 102.75
  C 518.34 102.75 535.91 102.55 553.75 100.79
  Q 566.00 99.59 577.25 94.71
  Z"
/>
<path fill="#ffffff" d="
  M 23.25 95.04
  Q 31.20 98.44 39.75 99.78
  C 57.24 102.50 77.46 102.83 94.50 102.79
  C 98.23 102.94 112.90 102.75 113.45 103.27
  Q 113.89 103.68 113.18 103.68
  L 89.00 103.96
  C 77.30 104.11 64.94 104.81 53.31 103.62
  A 0.28 0.26 82.0 0 0 53.05 104.00
  Q 53.15 104.27 53.14 104.53
  A 0.64 0.54 2.4 0 1 52.50 105.03
  L 40.03 104.66
  Q 23.97 103.47 9.46 96.75
  L 23.25 95.04
  Z"
/>
<path fill="#bed8fe" d="
  M 89.00 103.96
  Q 98.48 104.14 146.31 104.19
  C 248.64 104.29 350.99 103.80 453.31 104.24
  Q 496.28 104.43 539.24 104.04
  C 544.40 103.99 550.24 105.39 556.00 105.04
  L 553.25 105.29
  Q 550.39 104.92 547.75 105.96
  L 539.75 106.16
  C 530.16 106.57 517.72 106.25 511.06 106.27
  Q 393.35 106.57 275.64 106.27
  C 203.93 106.08 132.22 106.55 60.50 106.21
  Q 50.20 105.95 40.03 104.66
  L 52.50 105.03
  A 0.64 0.54 2.4 0 0 53.14 104.53
  Q 53.15 104.27 53.05 104.00
  A 0.28 0.26 82.0 0 1 53.31 103.62
  C 64.94 104.81 77.30 104.11 89.00 103.96
  Z"
/>
<path fill="#000000" d="
  M 567.50 103.71
  Q 568.94 103.71 567.98 103.89
  Q 564.40 104.57 560.75 104.71
  L 567.50 103.71
  Z"
/>
<path fill="#a5b7d1" fill-opacity="0.973" d="
  M 553.25 105.29
  L 547.75 105.96
  Q 550.39 104.92 553.25 105.29
  Z"
/>
<path fill="#a5b7d1" fill-opacity="0.973" d="
  M 539.75 106.16
  L 531.00 106.79
  L 523.00 107.04
  L 481.25 107.21
  Q 359.12 106.73 236.99 107.21
  C 185.92 107.41 134.83 106.96 83.75 107.29
  L 60.50 106.21
  C 132.22 106.55 203.93 106.08 275.64 106.27
  Q 393.35 106.57 511.06 106.27
  C 517.72 106.25 530.16 106.57 539.75 106.16
  Z"
/>
<path fill="#2e433d" fill-opacity="0.945" d="
  M 481.25 107.21
  C 348.76 107.45 216.23 108.05 83.75 107.29
  C 134.83 106.96 185.92 107.41 236.99 107.21
  Q 359.12 106.73 481.25 107.21
  Z"
/>
</svg>
