<?xml version="1.0" encoding="UTF-8" standalone="no"?>
<!DOCTYPE svg PUBLIC "-//W3C//DTD SVG 1.1//EN" "http://www.w3.org/Graphics/SVG/1.1/DTD/svg11.dtd">
<svg xmlns="http://www.w3.org/2000/svg" version="1.1" viewBox="0 0 600 300">
<path fill="#000000" d="
  M 414.06 0.00
  L 415.17 0.09
  Q 394.46 27.63 371.44 50.19
  C 370.42 51.19 369.76 52.37 369.02 53.11
  Q 352.97 69.28 336.28 84.85
  A 1.52 1.51 -38.0 0 0 336.04 86.79
  Q 381.86 156.44 439.31 217.44
  Q 440.21 218.39 439.55 218.62
  A 1.29 0.73 40.5 0 1 438.63 218.44
  C 389.15 190.19 343.75 153.33 300.42 116.55
  A 0.87 0.87 -45.3 0 0 299.28 116.56
  C 266.46 145.88 231.77 173.20 194.93 197.43
  C 194.60 197.65 160.11 219.71 159.20 218.77
  A 0.74 0.45 -47.1 0 1 159.37 217.96
  Q 184.80 189.37 208.98 159.72
  Q 237.57 124.64 262.22 86.64
  Q 263.30 84.97 261.76 83.71
  Q 259.51 81.88 256.99 79.50
  Q 227.44 51.53 200.13 21.36
  C 195.10 15.80 190.47 9.90 185.44 4.34
  Q 183.88 2.61 182.79 0.50
  Q 186.09 1.43 189.10 3.13
  Q 200.90 9.78 212.98 15.88
  C 230.98 24.98 248.94 33.96 267.40 42.11
  Q 279.22 47.33 294.94 53.31
  C 298.00 54.48 299.03 55.31 302.29 54.08
  Q 336.27 41.22 368.58 24.64
  C 383.46 17.00 399.26 9.06 414.06 0.00
  Z"
/>
<path fill="#000000" d="
  M 142.32 242.55
  C 151.05 249.50 159.93 256.49 168.43 263.78
  A 1.72 1.68 -43.8 0 0 170.61 263.80
  L 196.91 242.38
  A 1.43 1.41 24.9 0 1 197.81 242.06
  L 211.92 241.93
  Q 213.11 241.92 212.18 242.67
  L 177.89 270.43
  A 0.42 0.42 45.4 0 0 177.89 271.08
  L 212.06 298.90
  Q 213.10 299.75 211.76 299.75
  L 198.55 299.75
  A 3.67 3.66 64.5 0 1 196.24 298.93
  L 169.97 277.38
  A 0.73 0.72 -44.6 0 0 169.06 277.38
  L 142.26 299.21
  A 2.39 2.38 -64.5 0 1 140.75 299.75
  L 127.72 299.75
  Q 126.04 299.75 127.35 298.68
  L 161.12 271.07
  A 0.42 0.41 44.6 0 0 161.11 270.43
  L 127.05 242.68
  Q 126.00 241.82 127.37 241.84
  L 140.66 241.99
  A 2.87 2.46 -22.0 0 1 142.32 242.55
  Z"
/>
<path fill="#000000" d="
  M 437.31 270.32
  A 0.55 0.55 -44.7 0 0 437.30 271.18
  L 471.62 298.94
  Q 472.62 299.75 471.33 299.75
  L 458.56 299.75
  A 4.38 4.34 -25.1 0 1 455.80 298.77
  L 429.85 277.54
  A 1.03 1.02 -44.7 0 0 428.54 277.54
  L 402.10 299.06
  A 3.08 3.03 24.9 0 1 400.16 299.75
  L 387.01 299.75
  Q 385.63 299.75 386.70 298.89
  L 421.20 271.04
  A 0.31 0.30 45.5 0 0 421.20 270.57
  L 386.41 242.54
  Q 385.64 241.92 386.63 241.93
  L 400.17 242.00
  A 3.73 3.49 -23.6 0 1 402.45 242.81
  L 428.71 264.24
  A 0.67 0.66 44.6 0 0 429.56 264.24
  L 456.22 242.61
  A 3.11 2.71 22.3 0 1 458.04 241.99
  L 471.56 241.83
  Q 472.80 241.82 471.85 242.58
  L 437.31 270.32
  Z"
/>
<path fill="#000000" d="
  M 289.75 269.74
  Q 290.14 270.95 289.92 272.20
  A 1.04 0.88 -65.0 0 0 290.15 273.05
  Q 291.53 274.49 293.16 275.12
  A 1.13 1.13 13.3 0 1 293.88 276.28
  Q 292.73 289.10 285.74 298.45
  Q 284.77 299.75 283.15 299.75
  L 228.90 299.75
  A 3.31 3.29 -19.0 0 1 226.30 298.49
  Q 218.84 289.01 218.22 276.74
  A 1.28 1.24 88.1 0 0 216.96 275.52
  L 209.52 275.59
  A 0.89 0.88 89.7 0 1 208.63 274.70
  L 208.63 267.01
  A 0.87 0.85 -89.7 0 1 209.49 266.14
  L 216.43 266.23
  A 1.76 1.71 -87.9 0 0 218.16 264.57
  Q 218.92 252.80 226.21 243.30
  Q 227.20 242.00 228.84 242.00
  L 283.27 242.00
  A 2.87 2.85 71.1 0 1 285.53 243.11
  Q 293.31 253.17 293.92 265.69
  A 0.90 0.79 75.7 0 1 293.52 266.47
  L 290.42 268.19
  A 1.39 1.26 -24.4 0 0 289.75 269.74
  Z
  M 277.38 266.05
  C 278.96 266.06 281.16 266.34 283.36 266.16
  A 1.09 1.09 -8.3 0 0 284.34 264.85
  Q 282.97 258.47 279.62 252.18
  A 1.30 1.30 75.6 0 0 278.48 251.50
  L 233.61 251.50
  A 1.65 1.64 -76.3 0 0 232.15 252.39
  Q 228.93 258.71 227.63 265.25
  A 0.78 0.77 -84.9 0 0 228.40 266.18
  Q 252.73 265.82 277.38 266.05
  Z
  M 278.54 290.31
  A 1.15 1.14 14.7 0 0 279.56 289.72
  Q 282.84 283.85 284.39 276.32
  A 0.63 0.62 -84.0 0 0 283.78 275.56
  L 228.08 275.50
  A 0.53 0.53 84.2 0 0 227.56 276.14
  Q 229.02 283.70 232.33 289.62
  A 1.24 1.22 -14.3 0 0 233.41 290.25
  L 278.54 290.31
  Z"
/>
<path fill="#000000" d="
  M 314.33 299.22
  C 300.65 286.01 301.38 256.91 313.58 243.01
  A 2.97 2.94 20.3 0 1 315.81 242.00
  L 370.64 242.00
  A 1.75 1.74 68.4 0 1 371.92 242.56
  C 384.50 256.32 384.21 284.31 372.72 298.32
  Q 371.55 299.75 369.74 299.74
  L 315.18 299.57
  A 1.24 1.20 66.4 0 1 314.33 299.22
  Z
  M 320.43 290.31
  L 364.94 290.25
  A 1.84 1.83 13.5 0 0 366.57 289.26
  Q 376.08 270.81 366.92 252.79
  A 2.35 2.34 -13.3 0 0 364.82 251.50
  L 320.08 251.50
  A 0.88 0.87 -75.6 0 0 319.31 251.96
  Q 308.80 271.30 319.69 289.89
  A 0.86 0.83 -14.3 0 0 320.43 290.31
  Z"
/>
</svg>
