<?xml version="1.0" encoding="UTF-8" standalone="no"?>
<!DOCTYPE svg PUBLIC "-//W3C//DTD SVG 1.1//EN" "http://www.w3.org/Graphics/SVG/1.1/DTD/svg11.dtd">
<svg xmlns="http://www.w3.org/2000/svg" version="1.1" viewBox="0 0 600 300">
<g stroke-width="2.00" fill="none" stroke-linecap="butt">
<path stroke="#e07e06" vector-effect="non-scaling-stroke" d="
  M 100.79 121.25
  Q 98.00 119.70 96.71 116.75"
/>
<path stroke="#d65704" vector-effect="non-scaling-stroke" d="
  M 92.21 133.25
  Q 89.29 133.47 87.93 131.25
  Q 87.62 130.75 87.27 130.54
  L 85.00 129.21"
/>
<path stroke="#ce3702" vector-effect="non-scaling-stroke" d="
  M 85.71 142.32
  Q 82.32 140.14 79.59 137.13
  A 0.45 0.43 -45.5 0 0 78.94 137.15
  Q 78.18 138.00 77.71 137.00"
/>
<path stroke="#c51301" vector-effect="non-scaling-stroke" d="
  M 76.80 154.56
  Q 75.00 156.57 73.50 155.75
  Q 69.77 153.71 66.65 148.47"
/>
<path stroke="#c51301" vector-effect="non-scaling-stroke" d="
  M 40.00 207.54
  Q 38.39 208.15 41.87 207.90
  A 0.76 0.76 -1.7 0 1 42.69 208.67
  L 42.57 218.19
  A 0.52 0.48 1.8 0 0 43.07 218.68
  L 49.75 218.96"
/>
<path stroke="#ce3702" vector-effect="non-scaling-stroke" d="
  M 61.00 207.54
  Q 62.31 207.53 62.00 208.25
  Q 62.85 213.57 63.00 218.96"
/>
<path stroke="#d65704" vector-effect="non-scaling-stroke" d="
  M 79.00 207.54
  Q 81.42 208.69 80.46 211.05
  A 1.06 1.03 -48.3 0 0 80.50 211.94
  Q 81.93 214.53 81.94 217.49
  A 0.67 0.57 21.5 0 0 82.20 217.98
  Q 82.60 218.29 82.10 218.43
  Q 81.77 218.53 82.09 218.61
  L 83.50 218.96"
/>
<path stroke="#e07e06" vector-effect="non-scaling-stroke" d="
  M 97.50 207.54
  Q 99.37 209.03 98.73 211.21
  A 1.16 1.04 -55.0 0 0 98.84 212.10
  Q 100.52 214.81 99.86 218.01
  A 0.54 0.49 -78.6 0 0 100.23 218.63
  L 101.75 218.96"
/>
<path stroke="#edae08" vector-effect="non-scaling-stroke" d="
  M 128.50 207.54
  Q 133.74 206.82 133.08 211.51
  A 0.92 0.88 25.3 0 0 133.39 212.32
  C 136.00 214.58 133.43 218.93 136.75 218.96"
/>
<path stroke="#f6da0a" vector-effect="non-scaling-stroke" d="
  M 153.50 207.54
  L 155.54 208.29
  A 0.92 0.89 -85.1 0 1 156.11 208.99
  L 157.75 218.19
  A 0.74 0.58 3.2 0 0 158.32 218.69
  L 159.75 218.96"
/>
<path stroke="#e5ef0a" vector-effect="non-scaling-stroke" d="
  M 189.25 207.54
  L 185.23 208.11
  A 0.62 0.54 85.3 0 0 184.77 208.74
  Q 184.86 212.61 183.71 217.50
  A 1.28 1.28 1.0 0 1 182.71 218.46
  Q 181.59 218.68 183.00 218.96"
/>
<path stroke="#c2f009" vector-effect="non-scaling-stroke" d="
  M 206.00 207.54
  L 201.56 208.01
  A 0.66 0.66 1.7 0 0 200.97 208.56
  Q 200.61 210.68 201.12 212.76
  A 1.25 1.21 -36.5 0 1 200.97 213.67
  Q 200.14 215.03 200.25 216.50
  Q 200.42 218.73 197.98 218.88"
/>
<path stroke="#a8ef08" vector-effect="non-scaling-stroke" d="
  M 212.87 207.50
  Q 211.37 212.27 211.55 217.32
  A 0.52 0.49 8.4 0 0 211.92 217.78
  C 212.98 218.10 210.35 218.87 210.00 218.96"
/>
<path stroke="#90ee06" vector-effect="non-scaling-stroke" d="
  M 222.50 207.54
  Q 220.54 213.07 221.00 218.96"
/>
<path stroke="#6fec04" vector-effect="non-scaling-stroke" d="
  M 236.50 207.54
  L 237.69 207.81
  Q 238.04 207.89 237.80 208.12
  Q 236.82 209.04 237.31 210.53
  A 1.65 1.36 48.7 0 1 237.34 211.48
  Q 236.13 215.19 236.89 218.99"
/>
<path stroke="#46e902" vector-effect="non-scaling-stroke" d="
  M 255.50 207.54
  Q 256.20 207.91 257.27 207.70
  A 0.53 0.53 -7.7 0 1 257.90 208.18
  Q 258.23 212.68 258.06 216.69
  Q 257.99 218.49 256.75 218.96"
/>
<path stroke="#21e702" vector-effect="non-scaling-stroke" d="
  M 276.44 207.51
  Q 275.84 210.36 276.00 212.00
  Q 276.25 214.50 276.46 217.01
  A 0.54 0.51 -7.2 0 1 276.01 217.56
  Q 274.20 217.83 272.75 218.96"
/>
<path stroke="#10e60e" vector-effect="non-scaling-stroke" d="
  M 289.50 207.54
  Q 291.12 207.96 290.50 209.75
  Q 288.98 214.15 291.25 218.96"
/>
<path stroke="#10e529" vector-effect="non-scaling-stroke" d="
  M 302.19 207.50
  Q 301.44 209.05 301.27 210.75
  Q 300.93 214.00 301.21 217.26
  Q 301.23 217.58 301.03 218.20
  Q 300.72 219.16 302.50 218.96"
/>
<path stroke="#15e44b" vector-effect="non-scaling-stroke" d="
  M 315.25 207.54
  Q 314.97 208.16 315.75 208.09
  A 1.24 0.74 -16.9 0 1 316.64 208.31
  C 317.72 209.37 317.10 215.26 317.21 217.01
  A 0.93 0.78 14.3 0 0 317.71 217.70
  Q 318.45 218.08 318.00 218.45
  Q 317.77 218.63 318.07 218.69
  L 319.50 218.96"
/>
<path stroke="#1be472" vector-effect="non-scaling-stroke" d="
  M 334.64 207.51
  Q 333.62 212.36 334.13 217.32
  A 1.55 1.16 -77.3 0 0 334.52 218.19
  Q 335.29 218.92 336.50 218.96"
/>
<path stroke="#21e39e" vector-effect="non-scaling-stroke" d="
  M 355.13 207.50
  Q 353.75 213.15 354.50 218.96"
/>
<path stroke="#27e2c9" vector-effect="non-scaling-stroke" d="
  M 373.40 207.50
  L 374.47 217.75
  A 0.47 0.41 -2.7 0 1 374.00 218.20
  Q 373.06 218.20 372.50 218.96"
/>
<path stroke="#2cdeec" vector-effect="non-scaling-stroke" d="
  M 391.18 207.52
  Q 389.55 211.45 391.06 215.53
  A 1.91 1.40 -56.7 0 1 391.11 216.49
  Q 390.71 218.26 392.50 218.96"
/>
<path stroke="#2ac9f6" vector-effect="non-scaling-stroke" d="
  M 422.00 207.54
  L 419.68 208.75
  A 0.57 0.53 65.8 0 0 419.44 209.45
  Q 420.35 211.85 419.52 214.13
  Q 418.92 215.77 418.92 216.49
  Q 418.91 217.75 419.21 218.99"
/>
<path stroke="#21a5ec" vector-effect="non-scaling-stroke" d="
  M 457.00 207.54
  Q 454.94 208.06 454.96 210.00
  A 1.87 1.10 39.2 0 0 455.30 210.91
  Q 457.38 213.86 456.31 217.31
  Q 455.82 218.91 453.74 218.95"
/>
<path stroke="#187ee0" vector-effect="non-scaling-stroke" d="
  M 500.02 207.51
  Q 500.84 210.20 501.51 212.81
  Q 502.04 214.87 502.56 216.95
  A 0.88 0.66 67.7 0 1 502.34 217.80
  L 500.75 218.96"
/>
<path stroke="#105fd6" vector-effect="non-scaling-stroke" d="
  M 527.55 207.50
  Q 528.78 210.49 529.75 213.50
  Q 530.27 213.95 530.08 214.37
  A 1.29 0.47 -58.2 0 0 529.90 215.22
  Q 530.42 217.14 529.78 218.98"
/>
<path stroke="#0940cd" vector-effect="non-scaling-stroke" d="
  M 555.50 207.54
  Q 558.47 212.21 557.82 217.75
  A 1.02 0.65 -16.4 0 1 557.27 218.38
  Q 556.93 218.55 556.75 218.96"
/>
</g>
<path fill="#000000" d="
  M 171.58 80.19
  A 0.36 0.36 -89.5 0 1 171.94 80.55
  L 172.06 198.83
  A 0.91 0.91 89.7 0 1 171.15 199.75
  L 142.14 199.75
  A 0.97 0.96 90.0 0 1 141.18 198.78
  L 141.24 184.44
  A 0.94 0.93 -0.0 0 0 140.29 183.50
  L 108.64 183.75
  A 1.40 1.39 16.1 0 0 107.46 184.40
  L 98.30 198.83
  A 1.97 1.96 -73.8 0 1 96.64 199.75
  L 65.90 199.75
  Q 64.94 199.75 65.46 198.94
  L 140.44 80.87
  A 1.84 1.79 -73.5 0 1 141.97 80.01
  L 171.58 80.19
  Z
  M 140.44 132.01
  L 127.87 151.81
  Q 127.39 152.58 128.29 152.58
  L 140.16 152.50
  A 1.10 1.09 -0.3 0 0 141.25 151.41
  L 141.19 132.22
  Q 141.18 130.85 140.44 132.01
  Z"
/>
<path fill="#000000" d="
  M 214.00 80.59
  A 1.29 1.28 -73.6 0 1 215.08 80.00
  L 246.02 80.00
  Q 247.05 80.00 246.49 80.87
  Q 232.16 103.24 218.21 125.35
  C 215.90 129.00 212.81 133.37 211.06 137.56
  C 208.64 143.37 213.64 149.18 216.61 153.73
  Q 231.45 176.43 246.45 198.93
  Q 247.00 199.75 246.01 199.75
  L 214.79 199.75
  A 1.83 1.82 -16.9 0 1 213.28 198.95
  Q 198.16 176.48 184.22 154.52
  C 179.98 147.84 175.63 141.47 179.98 134.41
  Q 196.65 107.36 214.00 80.59
  Z"
/>
<path fill="#000000" d="
  M 259.29 80.64
  A 1.39 1.39 -73.7 0 1 260.46 80.00
  L 291.25 80.00
  Q 292.49 80.00 291.81 81.04
  Q 275.33 106.33 259.26 132.25
  C 254.04 140.69 255.17 143.27 260.05 150.80
  Q 275.61 174.80 291.80 199.10
  Q 292.22 199.74 291.46 199.74
  L 259.69 199.57
  A 0.97 0.95 72.3 0 1 258.90 199.15
  Q 242.16 175.21 227.17 150.15
  C 223.06 143.27 221.89 139.22 226.19 132.44
  Q 242.47 106.75 259.29 80.64
  Z"
/>
<rect fill="#000000" x="296.75" y="80.00" width="29.74" height="119.74" rx="0.59"/>
<rect fill="#000000" x="-15.00" y="-11.15" transform="translate(445.25,91.15) rotate(-0.1)" width="30.00" height="22.30" rx="0.59"/>
<path fill="#e69507" d="
  M 100.79 121.25
  Q 98.00 119.70 96.71 116.75
  L 126.97 84.68
  Q 127.48 84.13 127.43 84.80
  C 127.41 85.07 126.80 85.58 126.62 85.82
  Q 113.71 103.54 100.79 121.25
  Z"
/>
<path fill="#000000" d="
  M 396.47 196.33
  Q 369.36 206.24 349.09 189.53
  C 307.65 155.37 346.03 90.60 396.27 110.54
  Q 397.61 111.08 397.33 109.66
  C 396.80 106.98 398.00 107.50 399.77 107.50
  Q 411.52 107.50 423.74 107.50
  A 0.83 0.82 90.0 0 1 424.56 108.33
  L 424.56 199.00
  A 0.75 0.75 0.0 0 1 423.81 199.75
  Q 411.55 199.75 400.03 199.75
  C 397.66 199.75 396.78 200.04 397.38 197.12
  Q 397.63 195.90 396.47 196.33
  Z
  M 396.94 153.39
  A 18.85 18.85 0.0 0 0 378.09 134.54
  A 18.85 18.85 0.0 0 0 359.24 153.39
  A 18.85 18.85 0.0 0 0 378.09 172.24
  A 18.85 18.85 0.0 0 0 396.94 153.39
  Z"
/>
<rect fill="#000000" x="430.25" y="108.25" width="30.00" height="91.50" rx="0.94"/>
<path fill="#000000" d="
  M 538.09 119.63
  C 548.14 108.86 562.44 107.71 575.86 111.52
  C 593.51 116.53 599.65 130.48 599.59 147.75
  Q 599.50 173.00 599.50 198.90
  A 0.85 0.85 -0.0 0 1 598.65 199.75
  L 572.74 199.75
  A 0.99 0.99 0.0 0 1 571.75 198.76
  Q 571.75 174.97 571.75 150.98
  Q 571.75 144.86 570.37 142.25
  C 568.26 138.23 564.17 136.19 559.57 136.45
  Q 548.42 137.08 548.37 149.75
  Q 548.25 174.38 548.25 198.76
  A 0.99 0.99 0.0 0 1 547.26 199.75
  L 518.99 199.75
  A 0.67 0.66 0.8 0 1 518.32 199.07
  Q 518.76 174.57 518.33 149.98
  Q 518.23 144.44 516.77 141.81
  C 510.86 131.15 494.75 135.91 494.75 148.50
  Q 494.75 173.75 494.75 198.77
  A 0.98 0.98 -0.1 0 1 493.77 199.75
  L 467.56 199.69
  A 0.51 0.50 90.0 0 1 467.06 199.18
  L 467.18 109.61
  A 1.04 1.04 0.3 0 1 468.23 108.57
  Q 479.91 108.62 492.25 108.75
  Q 495.02 108.78 496.39 109.91
  A 1.17 1.01 57.7 0 0 497.25 110.17
  C 511.30 108.08 526.53 109.49 537.38 119.65
  A 0.50 0.50 43.0 0 0 538.09 119.63
  Z"
/>
<path fill="#da6705" d="
  M 96.71 116.75
  Q 98.00 119.70 100.79 121.25
  L 92.21 133.25
  Q 89.29 133.47 87.93 131.25
  Q 87.62 130.75 87.27 130.54
  L 85.00 129.21
  L 96.71 116.75
  Z"
/>
<path fill="#d24703" d="
  M 85.00 129.21
  L 87.27 130.54
  Q 87.62 130.75 87.93 131.25
  Q 89.29 133.47 92.21 133.25
  L 85.71 142.32
  Q 82.32 140.14 79.59 137.13
  A 0.45 0.43 -45.5 0 0 78.94 137.15
  Q 78.18 138.00 77.71 137.00
  L 85.00 129.21
  Z"
/>
<path fill="#ca2601" d="
  M 85.71 142.32
  L 76.80 154.56
  Q 75.00 156.57 73.50 155.75
  Q 69.77 153.71 66.65 148.47
  L 77.71 137.00
  Q 78.18 138.00 78.94 137.15
  A 0.45 0.43 -45.5 0 1 79.59 137.13
  Q 82.32 140.14 85.71 142.32
  Z"
/>
<path fill="#bf0000" d="
  M 66.65 148.47
  Q 69.77 153.71 73.50 155.75
  Q 75.00 156.57 76.80 154.56
  L 39.05 206.84
  A 0.44 0.38 -61.2 0 0 39.19 207.49
  Q 39.56 207.62 40.00 207.54
  Q 38.39 208.15 41.87 207.90
  A 0.76 0.76 -1.7 0 1 42.69 208.67
  L 42.57 218.19
  A 0.52 0.48 1.8 0 0 43.07 218.68
  L 49.75 218.96
  L 0.83 219.00
  Q -0.07 219.00 0.55 218.34
  L 66.65 148.47
  Z"
/>
<path fill="#ca2601" d="
  M 40.00 207.54
  L 61.00 207.54
  Q 62.31 207.53 62.00 208.25
  Q 62.85 213.57 63.00 218.96
  L 49.75 218.96
  L 43.07 218.68
  A 0.52 0.48 1.8 0 1 42.57 218.19
  L 42.69 208.67
  A 0.76 0.76 -1.7 0 0 41.87 207.90
  Q 38.39 208.15 40.00 207.54
  Z"
/>
<path fill="#d24703" d="
  M 61.00 207.54
  L 79.00 207.54
  Q 81.42 208.69 80.46 211.05
  A 1.06 1.03 -48.3 0 0 80.50 211.94
  Q 81.93 214.53 81.94 217.49
  A 0.67 0.57 21.5 0 0 82.20 217.98
  Q 82.60 218.29 82.10 218.43
  Q 81.77 218.53 82.09 218.61
  L 83.50 218.96
  L 63.00 218.96
  Q 62.85 213.57 62.00 208.25
  Q 62.31 207.53 61.00 207.54
  Z"
/>
<path fill="#da6705" d="
  M 79.00 207.54
  L 97.50 207.54
  Q 99.37 209.03 98.73 211.21
  A 1.16 1.04 -55.0 0 0 98.84 212.10
  Q 100.52 214.81 99.86 218.01
  A 0.54 0.49 -78.6 0 0 100.23 218.63
  L 101.75 218.96
  L 83.50 218.96
  L 82.09 218.61
  Q 81.77 218.53 82.10 218.43
  Q 82.60 218.29 82.20 217.98
  A 0.67 0.57 21.5 0 1 81.94 217.49
  Q 81.93 214.53 80.50 211.94
  A 1.06 1.03 -48.3 0 1 80.46 211.05
  Q 81.42 208.69 79.00 207.54
  Z"
/>
<path fill="#e69507" d="
  M 97.50 207.54
  L 128.50 207.54
  Q 133.74 206.82 133.08 211.51
  A 0.92 0.88 25.3 0 0 133.39 212.32
  C 136.00 214.58 133.43 218.93 136.75 218.96
  L 101.75 218.96
  L 100.23 218.63
  A 0.54 0.49 -78.6 0 1 99.86 218.01
  Q 100.52 214.81 98.84 212.10
  A 1.16 1.04 -55.0 0 1 98.73 211.21
  Q 99.37 209.03 97.50 207.54
  Z"
/>
<path fill="#f4c709" d="
  M 128.50 207.54
  L 153.50 207.54
  L 155.54 208.29
  A 0.92 0.89 -85.1 0 1 156.11 208.99
  L 157.75 218.19
  A 0.74 0.58 3.2 0 0 158.32 218.69
  L 159.75 218.96
  L 136.75 218.96
  C 133.43 218.93 136.00 214.58 133.39 212.32
  A 0.92 0.88 25.3 0 1 133.08 211.51
  Q 133.74 206.82 128.50 207.54
  Z"
/>
<path fill="#f8ed0b" d="
  M 153.50 207.54
  L 189.25 207.54
  L 185.23 208.11
  A 0.62 0.54 85.3 0 0 184.77 208.74
  Q 184.86 212.61 183.71 217.50
  A 1.28 1.28 1.0 0 1 182.71 218.46
  Q 181.59 218.68 183.00 218.96
  L 159.75 218.96
  L 158.32 218.69
  A 0.74 0.58 3.2 0 1 157.75 218.19
  L 156.11 208.99
  A 0.92 0.89 -85.1 0 0 155.54 208.29
  L 153.50 207.54
  Z"
/>
<path fill="#d1f109" d="
  M 189.25 207.54
  L 206.00 207.54
  L 201.56 208.01
  A 0.66 0.66 1.7 0 0 200.97 208.56
  Q 200.61 210.68 201.12 212.76
  A 1.25 1.21 -36.5 0 1 200.97 213.67
  Q 200.14 215.03 200.25 216.50
  Q 200.42 218.73 197.98 218.88
  L 183.00 218.96
  Q 181.59 218.68 182.71 218.46
  A 1.28 1.28 1.0 0 0 183.71 217.50
  Q 184.86 212.61 184.77 208.74
  A 0.62 0.54 85.3 0 1 185.23 208.11
  L 189.25 207.54
  Z"
/>
<path fill="#b3ef08" d="
  M 206.00 207.54
  L 212.87 207.50
  Q 211.37 212.27 211.55 217.32
  A 0.52 0.49 8.4 0 0 211.92 217.78
  C 212.98 218.10 210.35 218.87 210.00 218.96
  L 197.98 218.88
  Q 200.42 218.73 200.25 216.50
  Q 200.14 215.03 200.97 213.67
  A 1.25 1.21 -36.5 0 0 201.12 212.76
  Q 200.61 210.68 200.97 208.56
  A 0.66 0.66 1.7 0 1 201.56 208.01
  L 206.00 207.54
  Z"
/>
<path fill="#9dee07" d="
  M 212.87 207.50
  L 222.50 207.54
  Q 220.54 213.07 221.00 218.96
  L 210.00 218.96
  C 210.35 218.87 212.98 218.10 211.92 217.78
  A 0.52 0.49 8.4 0 1 211.55 217.32
  Q 211.37 212.27 212.87 207.50
  Z"
/>
<path fill="#82ed05" d="
  M 222.50 207.54
  L 236.50 207.54
  L 237.69 207.81
  Q 238.04 207.89 237.80 208.12
  Q 236.82 209.04 237.31 210.53
  A 1.65 1.36 48.7 0 1 237.34 211.48
  Q 236.13 215.19 236.89 218.99
  L 221.00 218.96
  Q 220.54 213.07 222.50 207.54
  Z"
/>
<path fill="#5bea02" d="
  M 236.50 207.54
  L 255.50 207.54
  Q 256.20 207.91 257.27 207.70
  A 0.53 0.53 -7.7 0 1 257.90 208.18
  Q 258.23 212.68 258.06 216.69
  Q 257.99 218.49 256.75 218.96
  L 236.89 218.99
  Q 236.13 215.19 237.34 211.48
  A 1.65 1.36 48.7 0 0 237.31 210.53
  Q 236.82 209.04 237.80 208.12
  Q 238.04 207.89 237.69 207.81
  L 236.50 207.54
  Z"
/>
<path fill="#30e801" d="
  M 255.50 207.54
  L 276.44 207.51
  Q 275.84 210.36 276.00 212.00
  Q 276.25 214.50 276.46 217.01
  A 0.54 0.51 -7.2 0 1 276.01 217.56
  Q 274.20 217.83 272.75 218.96
  L 256.75 218.96
  Q 257.99 218.49 258.06 216.69
  Q 258.23 212.68 257.90 208.18
  A 0.53 0.53 -7.7 0 0 257.27 207.70
  Q 256.20 207.91 255.50 207.54
  Z"
/>
<path fill="#11e602" d="
  M 276.44 207.51
  L 289.50 207.54
  Q 291.12 207.96 290.50 209.75
  Q 288.98 214.15 291.25 218.96
  L 272.75 218.96
  Q 274.20 217.83 276.01 217.56
  A 0.54 0.51 -7.2 0 0 276.46 217.01
  Q 276.25 214.50 276.00 212.00
  Q 275.84 210.36 276.44 207.51
  Z"
/>
<path fill="#0ee519" d="
  M 289.50 207.54
  L 302.19 207.50
  Q 301.44 209.05 301.27 210.75
  Q 300.93 214.00 301.21 217.26
  Q 301.23 217.58 301.03 218.20
  Q 300.72 219.16 302.50 218.96
  L 291.25 218.96
  Q 288.98 214.15 290.50 209.75
  Q 291.12 207.96 289.50 207.54
  Z"
/>
<path fill="#12e438" d="
  M 302.19 207.50
  L 315.25 207.54
  Q 314.97 208.16 315.75 208.09
  A 1.24 0.74 -16.9 0 1 316.64 208.31
  C 317.72 209.37 317.10 215.26 317.21 217.01
  A 0.93 0.78 14.3 0 0 317.71 217.70
  Q 318.45 218.08 318.00 218.45
  Q 317.77 218.63 318.07 218.69
  L 319.50 218.96
  L 302.50 218.96
  Q 300.72 219.16 301.03 218.20
  Q 301.23 217.58 301.21 217.26
  Q 300.93 214.00 301.27 210.75
  Q 301.44 209.05 302.19 207.50
  Z"
/>
<path fill="#18e45d" d="
  M 315.25 207.54
  L 334.64 207.51
  Q 333.62 212.36 334.13 217.32
  A 1.55 1.16 -77.3 0 0 334.52 218.19
  Q 335.29 218.92 336.50 218.96
  L 319.50 218.96
  L 318.07 218.69
  Q 317.77 218.63 318.00 218.45
  Q 318.45 218.08 317.71 217.70
  A 0.93 0.78 14.3 0 1 317.21 217.01
  C 317.10 215.26 317.72 209.37 316.64 208.31
  A 1.24 0.74 -16.9 0 0 315.75 208.09
  Q 314.97 208.16 315.25 207.54
  Z"
/>
<path fill="#1de387" d="
  M 334.64 207.51
  L 355.13 207.50
  Q 353.75 213.15 354.50 218.96
  L 336.50 218.96
  Q 335.29 218.92 334.52 218.19
  A 1.55 1.16 -77.3 0 1 334.13 217.32
  Q 333.62 212.36 334.64 207.51
  Z"
/>
<path fill="#24e2b4" d="
  M 355.13 207.50
  L 373.40 207.50
  L 374.47 217.75
  A 0.47 0.41 -2.7 0 1 374.00 218.20
  Q 373.06 218.20 372.50 218.96
  L 354.50 218.96
  Q 353.75 213.15 355.13 207.50
  Z"
/>
<path fill="#2ae2dd" d="
  M 373.40 207.50
  L 391.18 207.52
  Q 389.55 211.45 391.06 215.53
  A 1.91 1.40 -56.7 0 1 391.11 216.49
  Q 390.71 218.26 392.50 218.96
  L 372.50 218.96
  Q 373.06 218.20 374.00 218.20
  A 0.47 0.41 -2.7 0 0 374.47 217.75
  L 373.40 207.50
  Z"
/>
<path fill="#2ed9fa" d="
  M 391.18 207.52
  L 422.00 207.54
  L 419.68 208.75
  A 0.57 0.53 65.8 0 0 419.44 209.45
  Q 420.35 211.85 419.52 214.13
  Q 418.92 215.77 418.92 216.49
  Q 418.91 217.75 419.21 218.99
  L 392.50 218.96
  Q 390.71 218.26 391.11 216.49
  A 1.91 1.40 -56.7 0 0 391.06 215.53
  Q 389.55 211.45 391.18 207.52
  Z"
/>
<path fill="#26b9f2" d="
  M 422.00 207.54
  L 457.00 207.54
  Q 454.94 208.06 454.96 210.00
  A 1.87 1.10 39.2 0 0 455.30 210.91
  Q 457.38 213.86 456.31 217.31
  Q 455.82 218.91 453.74 218.95
  L 419.21 218.99
  Q 418.91 217.75 418.92 216.49
  Q 418.92 215.77 419.52 214.13
  Q 420.35 211.85 419.44 209.45
  A 0.57 0.53 65.8 0 1 419.68 208.75
  L 422.00 207.54
  Z"
/>
<path fill="#1c90e5" d="
  M 457.00 207.54
  L 500.02 207.51
  Q 500.84 210.20 501.51 212.81
  Q 502.04 214.87 502.56 216.95
  A 0.88 0.66 67.7 0 1 502.34 217.80
  L 500.75 218.96
  L 453.74 218.95
  Q 455.82 218.91 456.31 217.31
  Q 457.38 213.86 455.30 210.91
  A 1.87 1.10 39.2 0 1 454.96 210.00
  Q 454.94 208.06 457.00 207.54
  Z"
/>
<path fill="#136cda" d="
  M 500.02 207.51
  L 527.55 207.50
  Q 528.78 210.49 529.75 213.50
  Q 530.27 213.95 530.08 214.37
  A 1.29 0.47 -58.2 0 0 529.90 215.22
  Q 530.42 217.14 529.78 218.98
  L 500.75 218.96
  L 502.34 217.80
  A 0.88 0.66 67.7 0 0 502.56 216.95
  Q 502.04 214.87 501.51 212.81
  Q 500.84 210.20 500.02 207.51
  Z"
/>
<path fill="#0d51d2" d="
  M 527.55 207.50
  L 555.50 207.54
  Q 558.47 212.21 557.82 217.75
  A 1.02 0.65 -16.4 0 1 557.27 218.38
  Q 556.93 218.55 556.75 218.96
  L 529.78 218.98
  Q 530.42 217.14 529.90 215.22
  A 1.29 0.47 -58.2 0 1 530.08 214.37
  Q 530.27 213.95 529.75 213.50
  Q 528.78 210.49 527.55 207.50
  Z"
/>
<path fill="#042ec7" d="
  M 555.50 207.54
  L 600.00 207.76
  L 600.00 218.81
  L 556.75 218.96
  Q 556.93 218.55 557.27 218.38
  A 1.02 0.65 -16.4 0 0 557.82 217.75
  Q 558.47 212.21 555.50 207.54
  Z"
/>
</svg>
