<?xml version="1.0" encoding="UTF-8" standalone="no"?>
<!DOCTYPE svg PUBLIC "-//W3C//DTD SVG 1.1//EN" "http://www.w3.org/Graphics/SVG/1.1/DTD/svg11.dtd">
<svg xmlns="http://www.w3.org/2000/svg" version="1.1" viewBox="0 0 600 300">
<g stroke-width="2.00" fill="none" stroke-linecap="butt">
<path stroke="#7b6e1f" vector-effect="non-scaling-stroke" d="
  M 575.21 203.25
  C 571.94 201.87 571.94 204.25 570.68 206.14
  Q 568.18 209.87 564.71 212.75"
/>
<path stroke="#796b18" vector-effect="non-scaling-stroke" d="
  M 564.71 212.75
  L 560.50 215.79"
/>
<path stroke="#73620f" vector-effect="non-scaling-stroke" d="
  M 560.50 215.79
  C 553.37 218.37 544.75 217.11 541.29 209.50"
/>
<path stroke="#796b18" vector-effect="non-scaling-stroke" d="
  M 541.29 209.50
  Q 540.48 205.22 542.25 201.29"
/>
<path stroke="#686768" vector-effect="non-scaling-stroke" d="
  M 542.25 201.29
  Q 544.62 197.95 548.01 195.89
  C 551.36 193.87 557.95 195.19 561.75 195.54"
/>
<path stroke="#5a5a5a" vector-effect="non-scaling-stroke" d="
  M 561.75 195.54
  Q 565.89 197.44 567.81 201.84
  A 0.49 0.49 57.7 0 0 568.58 202.02
  L 570.62 200.26"
/>
<path stroke="#686768" vector-effect="non-scaling-stroke" d="
  M 570.62 200.26
  C 571.10 199.75 571.46 199.35 570.89 198.73
  C 565.74 193.17 559.92 192.90 552.79 192.75
  A 0.34 0.34 13.1 0 1 552.49 192.27
  Q 556.75 183.38 557.29 173.74
  Q 557.64 167.34 555.39 161.55
  Q 550.52 149.02 538.77 141.47
  Q 537.62 140.73 537.03 141.33
  A 0.44 0.38 34.4 0 0 537.20 141.97
  C 546.75 146.82 556.48 160.44 555.87 171.24
  C 555.52 177.46 554.63 190.42 548.58 194.09
  Q 544.24 196.71 541.50 200.96"
/>
<path stroke="#796b18" vector-effect="non-scaling-stroke" d="
  M 541.50 200.96
  Q 540.07 200.67 539.18 200.04"
/>
<path stroke="#808080" vector-effect="non-scaling-stroke" d="
  M 539.18 200.04
  C 541.48 190.88 540.87 181.77 540.17 172.29
  Q 539.58 164.36 536.90 156.90
  C 534.20 149.41 528.34 140.59 525.24 131.50
  Q 519.91 115.88 512.48 101.15
  C 512.07 100.34 511.33 99.91 510.96 99.00"
/>
<path stroke="#756519" vector-effect="non-scaling-stroke" d="
  M 510.96 99.00
  L 510.96 98.75"
/>
<path stroke="#7b711f" vector-effect="non-scaling-stroke" d="
  M 510.96 98.75
  Q 516.83 90.60 508.71 85.75"
/>
<path stroke="#808080" vector-effect="non-scaling-stroke" d="
  M 508.71 85.75
  Q 515.96 78.58 512.46 68.75"
/>
<path stroke="#6b6a6b" vector-effect="non-scaling-stroke" d="
  M 512.46 68.75
  C 510.31 62.81 507.83 56.22 501.19 57.17
  Q 492.98 58.35 489.09 65.64"
/>
<path stroke="#808080" vector-effect="non-scaling-stroke" d="
  M 489.09 65.64
  Q 487.59 71.83 489.89 77.69"
/>
<path stroke="#7b711f" vector-effect="non-scaling-stroke" d="
  M 489.89 77.69
  Q 483.84 76.23 478.00 76.96"
/>
<path stroke="#808080" vector-effect="non-scaling-stroke" d="
  M 478.00 76.96
  Q 478.80 70.11 475.46 64.25"
/>
<path stroke="#6b6a6b" vector-effect="non-scaling-stroke" d="
  M 475.46 64.25
  C 471.44 54.10 460.32 58.67 460.54 68.50"
/>
<path stroke="#808080" vector-effect="non-scaling-stroke" d="
  M 460.54 68.50
  Q 459.36 78.15 464.54 86.25"
/>
<path stroke="#756519" vector-effect="non-scaling-stroke" d="
  M 464.54 86.25
  Q 459.44 90.00 459.97 96.26"
/>
<path stroke="#635110" vector-effect="non-scaling-stroke" d="
  M 459.97 96.26
  L 462.00 98.29"
/>
<path stroke="#645420" vector-effect="non-scaling-stroke" d="
  M 462.00 98.29
  L 462.93 100.84"
/>
<path stroke="#707070" vector-effect="non-scaling-stroke" d="
  M 462.93 100.84
  L 461.79 108.00"
/>
<path stroke="#808080" vector-effect="non-scaling-stroke" d="
  M 461.79 108.00
  Q 462.70 114.66 459.94 118.44
  Q 455.32 124.74 451.49 131.67"
/>
<path stroke="#707070" vector-effect="non-scaling-stroke" d="
  M 451.49 131.67
  L 444.75 150.96"
/>
<path stroke="#808080" vector-effect="non-scaling-stroke" d="
  M 444.75 150.96
  C 436.05 167.99 430.48 183.00 432.92 202.81"
/>
<path stroke="#7b6e1f" vector-effect="non-scaling-stroke" d="
  M 432.92 202.81
  Q 429.19 198.72 424.51 195.97
  C 420.36 193.53 416.46 195.28 414.04 199.00"
/>
<path stroke="#eaeaea" vector-effect="non-scaling-stroke" d="
  M 512.46 68.75
  Q 505.46 62.51 495.60 63.54
  Q 494.14 63.69 492.90 64.48
  Q 491.00 65.69 489.09 65.64"
/>
<path stroke="#efd13b" vector-effect="non-scaling-stroke" d="
  M 453.79 236.00
  Q 454.69 240.06 456.65 243.69
  C 458.18 246.52 456.24 249.07 455.78 251.78
  C 454.09 261.68 443.67 265.14 434.90 262.49
  C 430.14 261.05 425.33 259.25 420.36 258.70
  Q 412.81 257.85 405.55 255.49
  Q 402.71 254.57 399.75 254.29
  Q 399.27 254.25 398.84 253.97
  Q 396.02 252.14 392.55 252.44
  Q 390.43 252.62 390.67 250.51
  Q 390.82 249.21 389.23 247.93
  A 0.60 0.43 -73.9 0 1 389.07 247.47
  L 389.08 247.16
  Q 389.11 246.58 388.79 247.11
  Q 387.95 248.51 388.13 246.95
  Q 388.17 246.59 387.85 246.77
  Q 387.01 247.24 387.56 246.06
  C 390.18 240.53 387.64 234.93 387.51 228.99
  A 1.88 1.62 32.0 0 0 387.23 228.09
  Q 385.20 224.80 387.17 221.85
  Q 387.26 221.70 387.98 220.92
  L 392.00 216.54"
/>
<path stroke="#efd13b" vector-effect="non-scaling-stroke" d="
  M 394.19 216.27
  Q 396.97 218.62 400.28 217.65
  Q 400.71 217.53 401.23 217.63
  C 406.28 218.65 411.70 212.67 413.15 208.78
  Q 413.29 208.38 413.71 208.00
  C 415.72 206.13 414.45 201.42 413.79 199.75"
/>
<path stroke="#f9ea98" vector-effect="non-scaling-stroke" d="
  M 539.18 200.04
  Q 537.57 200.60 535.00 200.50
  Q 526.82 200.20 528.04 208.25"
/>
<path stroke="#f0f0f0" vector-effect="non-scaling-stroke" d="
  M 528.04 208.25
  C 528.48 214.06 521.03 210.92 521.17 218.00
  Q 521.25 222.28 522.13 227.23
  Q 522.25 227.93 522.25 228.63
  Q 522.25 232.37 523.57 232.04
  A 2.62 2.56 -80.0 0 0 525.16 230.90
  Q 526.87 228.23 527.04 230.00"
/>
<path stroke="#808080" vector-effect="non-scaling-stroke" d="
  M 527.04 230.00
  C 516.39 241.91 502.19 250.90 485.75 251.15
  C 477.17 251.28 469.39 252.50 461.50 247.04"
/>
<path stroke="#d4c58c" vector-effect="non-scaling-stroke" d="
  M 461.50 247.04
  L 460.50 246.46"
/>
<path stroke="#f4e39c" vector-effect="non-scaling-stroke" d="
  M 460.50 246.46
  L 453.79 236.00"
/>
<path stroke="#fbed9e" vector-effect="non-scaling-stroke" d="
  M 453.79 236.00
  Q 447.44 226.13 441.26 216.16
  C 439.17 212.79 435.39 207.46 432.92 202.81"
/>
<path stroke="#f0f0f0" vector-effect="non-scaling-stroke" d="
  M 444.75 150.96
  L 445.72 151.28
  A 0.74 0.74 -61.0 0 0 446.51 151.05
  Q 452.44 143.93 460.92 140.79
  Q 463.47 139.84 460.83 139.19
  C 457.81 138.45 453.80 136.46 453.25 133.06
  A 0.78 0.65 4.9 0 0 452.70 132.51
  Q 452.08 132.35 451.49 131.67"
/>
<path stroke="#f0f0f0" vector-effect="non-scaling-stroke" d="
  M 461.79 108.00
  Q 463.29 107.18 463.06 109.19
  Q 462.70 112.36 464.93 114.69
  C 468.44 118.35 472.68 123.94 477.81 125.23
  C 483.93 126.76 500.29 114.34 505.37 108.54
  C 508.07 105.46 512.85 109.24 514.64 111.70
  A 0.88 0.52 66.8 0 0 515.09 112.03
  Q 515.25 112.06 515.38 112.03
  A 0.62 0.42 74.4 0 0 515.62 111.30
  Q 513.83 105.14 509.75 100.21"
/>
<path stroke="#f4e499" vector-effect="non-scaling-stroke" d="
  M 510.96 99.00
  L 509.75 100.21"
/>
<path stroke="#e5d589" vector-effect="non-scaling-stroke" d="
  M 509.75 100.21
  L 506.75 102.04"
/>
<path stroke="#d9b839" vector-effect="non-scaling-stroke" d="
  M 506.75 102.04
  Q 499.23 103.29 493.45 108.11
  A 0.63 0.61 43.2 0 1 492.68 108.12
  Q 490.43 106.39 488.83 108.64
  A 1.57 1.21 -75.0 0 1 488.08 109.21
  Q 481.50 111.10 475.25 108.21"
/>
<path stroke="#e8c81d" vector-effect="non-scaling-stroke" d="
  M 478.79 104.55
  L 483.44 105.61
  A 1.69 1.02 -39.4 0 0 484.40 105.47
  Q 488.11 103.85 491.50 105.00
  Q 493.93 105.83 495.01 104.19
  A 0.84 0.84 17.6 0 1 495.75 103.81
  Q 496.96 103.85 498.75 103.00
  Q 502.04 101.43 505.25 99.68
  A 0.44 0.44 57.4 0 0 505.39 99.04
  Q 504.03 97.11 504.00 94.71"
/>
<path stroke="#faf09e" vector-effect="non-scaling-stroke" d="
  M 478.00 76.96
  L 474.75 78.96"
/>
<path stroke="#f4e499" vector-effect="non-scaling-stroke" d="
  M 474.75 78.96
  L 474.04 79.00"
/>
<path stroke="#808080" vector-effect="non-scaling-stroke" d="
  M 474.04 79.00
  C 473.71 73.72 473.93 66.25 466.05 67.82
  Q 464.17 68.19 463.74 70.06
  Q 461.92 77.95 467.75 83.54"
/>
<path stroke="#f4e499" vector-effect="non-scaling-stroke" d="
  M 467.75 83.54
  Q 466.68 85.54 464.54 86.25"
/>
<path stroke="#ecce34" vector-effect="non-scaling-stroke" d="
  M 574.54 256.25
  C 572.64 255.18 570.66 256.96 569.00 257.79"
/>
<path stroke="#eaeaea" vector-effect="non-scaling-stroke" d="
  M 475.46 64.25
  Q 466.89 62.65 460.54 68.50"
/>
<path stroke="#c1c0c1" vector-effect="non-scaling-stroke" d="
  M 570.62 200.26
  Q 567.12 195.99 561.75 195.54"
/>
<path stroke="#e1d180" vector-effect="non-scaling-stroke" d="
  M 542.25 201.29
  Q 541.82 201.25 541.50 200.96"
/>
<path stroke="#efd538" vector-effect="non-scaling-stroke" d="
  M 510.96 98.75
  Q 509.89 98.50 510.25 97.75
  C 510.68 96.85 513.15 89.58 511.11 90.42
  A 1.34 0.38 -68.6 0 0 510.54 91.17
  Q 510.07 92.15 508.55 90.70"
/>
<path stroke="#ddc22f" vector-effect="non-scaling-stroke" d="
  M 508.55 90.70
  Q 496.89 97.75 484.07 102.08
  Q 477.02 104.47 470.21 101.75"
/>
<path stroke="#efd538" vector-effect="non-scaling-stroke" d="
  M 470.21 101.75
  C 471.20 99.00 469.03 99.18 467.78 98.03
  C 464.61 95.12 465.30 91.50 468.14 88.64
  C 470.17 86.61 470.39 84.31 473.07 82.74
  A 1.61 1.10 24.4 0 1 473.98 82.58
  C 474.61 82.64 478.38 81.88 477.32 80.61
  A 1.18 0.50 -7.3 0 0 476.44 80.36
  Q 475.10 80.36 474.75 78.96"
/>
<path stroke="#faf09e" vector-effect="non-scaling-stroke" d="
  M 508.71 85.75
  Q 505.22 85.22 502.50 83.04"
/>
<path stroke="#808080" vector-effect="non-scaling-stroke" d="
  M 502.50 83.04
  C 514.74 76.36 502.63 59.70 495.68 69.90
  Q 493.04 73.78 494.40 79.36"
/>
<path stroke="#faf09e" vector-effect="non-scaling-stroke" d="
  M 494.40 79.36
  Q 491.72 79.19 489.89 77.69"
/>
<path stroke="#d7b629" vector-effect="non-scaling-stroke" d="
  M 470.21 101.75
  Q 465.64 99.30 462.18 95.45
  C 461.95 95.20 462.00 94.49 461.40 94.70
  A 0.89 0.39 85.9 0 0 461.12 95.49
  Q 461.13 96.18 459.97 96.26"
/>
<path stroke="#eccd27" vector-effect="non-scaling-stroke" d="
  M 541.29 209.50
  Q 541.51 210.64 540.43 210.76
  A 0.64 0.61 14.1 0 0 539.99 211.01
  Q 538.53 213.03 538.70 215.51
  A 1.68 1.67 -32.3 0 1 538.49 216.43
  Q 536.70 219.51 538.04 222.78
  A 1.12 1.05 -44.4 0 1 538.00 223.69
  Q 536.89 225.88 539.00 227.72
  A 2.42 1.60 57.7 0 0 540.29 228.30
  L 544.44 228.50
  A 1.27 0.58 -54.0 0 0 545.26 228.04
  Q 546.04 227.23 547.18 227.17
  A 1.01 0.98 16.2 0 0 547.95 226.76
  Q 548.87 225.48 550.51 225.67
  Q 551.06 225.73 551.46 225.56
  C 553.25 224.82 554.92 223.98 556.86 223.23
  C 558.59 222.56 560.08 221.09 561.43 220.22
  Q 564.52 218.25 565.87 214.40
  Q 566.11 213.74 565.47 214.05
  C 564.64 214.45 560.45 217.95 560.50 215.79"
/>
<path stroke="#f4d837" vector-effect="non-scaling-stroke" d="
  M 564.71 212.75
  Q 566.11 214.07 567.27 212.04
  Q 568.15 210.51 568.81 212.14
  C 569.90 214.83 567.62 215.59 566.40 216.98
  Q 561.91 222.11 556.12 225.67
  C 553.23 227.45 549.96 227.95 546.67 229.03
  A 1.03 0.88 -87.5 0 0 546.06 229.68
  C 545.70 230.84 543.31 232.50 544.25 233.09
  A 1.45 0.91 18.3 0 1 544.84 233.80
  C 545.65 236.66 543.52 237.30 542.66 238.95
  Q 540.77 242.62 541.16 246.72
  C 541.32 248.44 542.78 249.39 543.08 251.65
  Q 543.53 255.01 546.50 256.81
  A 1.23 0.97 -85.1 0 1 546.99 257.56
  C 547.72 261.16 555.24 256.71 557.54 257.54
  A 1.63 1.03 36.4 0 0 558.49 257.61
  L 566.04 255.17
  Q 566.32 255.08 566.97 255.17
  L 569.93 255.59
  Q 570.35 255.65 570.11 255.92
  L 569.48 256.61
  A 0.91 0.83 21.9 0 1 568.75 256.88
  Q 567.53 256.78 569.00 257.79"
/>
<path stroke="#eacb2e" vector-effect="non-scaling-stroke" d="
  M 569.00 257.79
  Q 563.31 260.94 556.97 261.80
  Q 556.83 261.82 551.70 262.67
  Q 544.89 263.80 539.10 259.85
  A 1.84 1.30 -19.4 0 0 538.19 259.59
  Q 536.70 259.55 536.66 258.05
  A 1.31 1.13 -70.8 0 0 536.33 257.21
  C 532.46 253.27 532.62 248.87 533.06 243.44
  Q 533.32 240.36 534.35 237.46
  C 536.21 232.18 534.64 226.55 531.98 221.85
  Q 531.85 221.63 531.85 221.90
  Q 531.84 222.11 531.76 222.24
  Q 531.32 222.90 531.32 221.95
  C 531.31 218.42 530.54 222.41 530.28 222.83
  A 1.49 1.34 -35.1 0 0 530.07 223.75
  Q 530.48 227.21 528.25 229.79"
/>
<path stroke="#796b18" vector-effect="non-scaling-stroke" d="
  M 528.25 229.79
  Q 527.91 229.62 527.96 229.25"
/>
<path stroke="#e9db88" vector-effect="non-scaling-stroke" d="
  M 527.96 229.25
  C 528.76 227.53 528.25 225.70 528.30 224.32
  Q 528.64 216.28 528.04 208.25"
/>
<path stroke="#d4c490" vector-effect="non-scaling-stroke" d="
  M 506.75 102.04
  C 497.38 107.28 489.97 114.56 478.30 113.44
  Q 475.53 113.17 473.39 111.38
  Q 468.06 106.88 462.93 100.84"
/>
<path stroke="#d7b629" vector-effect="non-scaling-stroke" d="
  M 508.55 90.70
  Q 506.94 93.83 504.00 94.71"
/>
<path stroke="#d6b514" vector-effect="non-scaling-stroke" d="
  M 504.00 94.71
  Q 492.14 101.59 478.79 104.55"
/>
<path stroke="#d7b629" vector-effect="non-scaling-stroke" d="
  M 478.79 104.55
  L 474.35 104.80
  A 0.64 0.63 -90.0 0 0 473.75 105.41
  Q 473.68 107.36 475.25 108.21"
/>
<path stroke="#c7a530" vector-effect="non-scaling-stroke" d="
  M 475.25 108.21
  C 472.40 111.49 466.26 98.99 462.00 98.29"
/>
<path stroke="#c9a929" vector-effect="non-scaling-stroke" d="
  M 460.50 246.46
  Q 458.94 249.27 461.54 251.50"
/>
<path stroke="#dbba32" vector-effect="non-scaling-stroke" d="
  M 461.54 251.50
  Q 460.32 259.24 454.60 263.35
  Q 450.60 266.23 446.86 267.53
  C 440.75 269.64 435.98 266.50 429.83 265.92
  C 425.58 265.51 421.91 263.55 417.46 263.29
  C 416.35 263.22 414.95 263.82 413.62 263.09
  Q 413.11 262.81 412.69 262.78
  Q 404.19 262.15 399.75 260.50
  Q 396.56 259.31 394.24 259.25
  Q 393.77 259.24 393.33 258.97
  Q 391.00 257.58 389.21 259.75"
/>
<path stroke="#707070" vector-effect="non-scaling-stroke" d="
  M 527.96 229.25
  L 527.04 230.00"
/>
<path stroke="#bc9b23" vector-effect="non-scaling-stroke" d="
  M 412.71 265.75
  Q 414.23 264.42 415.68 264.48
  Q 416.37 264.50 417.02 264.69
  Q 425.09 267.00 431.13 269.15
  C 432.31 269.57 433.40 269.42 434.71 270.59
  A 1.79 1.44 65.2 0 0 435.56 271.01
  Q 439.81 271.58 444.06 272.21
  C 447.45 272.71 449.13 271.15 451.71 269.98
  Q 460.75 265.87 462.69 256.19
  Q 463.14 253.92 461.54 251.50"
/>
<path stroke="#635110" vector-effect="non-scaling-stroke" d="
  M 527.54 237.50
  L 524.77 257.29"
/>
<path stroke="#4c3f0c" vector-effect="non-scaling-stroke" d="
  M 524.77 257.29
  L 524.74 266.30"
/>
<path stroke="#55450d" vector-effect="non-scaling-stroke" d="
  M 462.18 269.11
  Q 470.10 259.07 462.44 249.06
  Q 461.57 247.94 461.50 247.04"
/>
<path stroke="#756519" vector-effect="non-scaling-stroke" d="
  M 474.04 79.00
  L 467.75 83.54"
/>
<path stroke="#bd9f21" vector-effect="non-scaling-stroke" d="
  M 566.25 262.29
  Q 563.97 261.85 562.09 263.26"
/>
<path stroke="#d4b226" vector-effect="non-scaling-stroke" d="
  M 562.09 263.26
  Q 553.49 270.58 542.63 269.78
  C 538.48 269.47 535.57 266.80 532.63 264.12
  C 527.74 259.66 528.36 250.55 528.80 244.16
  Q 529.04 240.74 527.54 237.50"
/>
<path stroke="#716116" vector-effect="non-scaling-stroke" d="
  M 527.54 237.50
  L 528.25 229.79"
/>
<path stroke="#7b711f" vector-effect="non-scaling-stroke" d="
  M 502.50 83.04
  Q 498.02 81.69 494.40 79.36"
/>
<path stroke="#af901c" vector-effect="non-scaling-stroke" d="
  M 562.09 263.26
  Q 558.59 268.34 553.46 271.32
  Q 549.03 273.90 548.79 274.01
  C 543.95 276.26 536.79 273.53 532.56 270.95
  Q 528.25 268.31 527.49 263.25
  Q 527.00 259.98 524.77 257.29"
/>
<path stroke="#ff8900" vector-effect="non-scaling-stroke" d="
  M 365.00 162.29
  C 365.68 162.43 370.94 163.82 369.46 165.02
  A 1.42 1.19 -19.8 0 0 368.99 165.82
  L 366.76 181.95
  A 1.14 0.78 -17.9 0 1 366.24 182.63
  Q 365.89 182.85 365.71 183.21
  A 0.41 0.36 14.4 0 0 366.07 183.73
  Q 368.28 183.96 366.00 184.71"
/>
<path stroke="#ff9500" vector-effect="non-scaling-stroke" d="
  M 335.25 189.71
  Q 335.98 189.13 335.46 188.99
  A 0.43 0.32 16.3 0 1 335.14 188.56
  Q 335.39 187.68 336.32 187.41
  A 0.66 0.59 -9.4 0 0 336.80 186.81
  Q 336.57 178.82 337.09 170.86
  C 337.22 168.93 336.29 167.24 336.90 165.17
  A 0.68 0.62 -66.6 0 0 336.64 164.42
  Q 333.62 162.58 330.00 162.96"
/>
<path stroke="#ff9f00" vector-effect="non-scaling-stroke" d="
  M 299.48 194.60
  Q 300.93 193.69 302.71 193.67
  Q 303.08 193.67 302.79 193.42
  Q 302.35 193.01 303.00 192.75
  Q 303.82 191.04 305.16 191.19
  A 1.64 1.64 -86.3 0 0 306.97 189.60
  C 307.08 184.34 308.67 169.52 304.50 166.94
  A 1.20 0.75 -86.9 0 1 304.08 166.18
  C 303.92 165.23 301.40 165.53 300.25 164.29"
/>
<path stroke="#ffa900" vector-effect="non-scaling-stroke" d="
  M 276.50 197.46
  Q 277.42 196.62 275.89 196.14
  Q 275.12 195.90 275.88 195.62
  C 278.28 194.72 277.27 192.38 277.22 190.63
  Q 276.93 180.50 277.29 169.31
  A 1.12 1.12 -1.6 0 0 276.07 168.16
  Q 273.67 168.36 272.79 167.42
  A 1.01 0.77 60.3 0 0 272.01 167.09
  Q 270.18 167.36 268.75 166.29"
/>
<path stroke="#ffb500" vector-effect="non-scaling-stroke" d="
  M 228.75 203.21
  L 230.03 202.68
  Q 230.43 202.52 230.00 202.44
  C 228.22 202.15 229.37 201.29 229.54 200.42
  C 230.25 196.77 231.45 184.03 228.44 180.56
  Q 226.15 177.93 227.26 174.48
  Q 228.24 171.40 225.19 171.23
  L 220.99 171.00
  A 0.81 0.75 78.6 0 1 220.34 170.53
  C 219.47 168.64 217.36 171.72 216.75 169.79"
/>
<path stroke="#ffc100" vector-effect="non-scaling-stroke" d="
  M 187.75 208.71
  C 189.63 207.43 182.59 207.60 187.06 207.06
  A 1.53 1.21 -11.2 0 0 188.44 205.44
  Q 187.77 203.40 187.81 201.25
  Q 187.96 191.47 187.99 181.69
  C 188.01 175.60 188.55 173.81 181.61 174.07
  A 3.04 0.51 -2.9 0 1 178.84 173.75
  L 178.25 172.79"
/>
<path stroke="#ffcb00" vector-effect="non-scaling-stroke" d="
  M 145.00 217.21
  Q 144.08 215.90 142.71 216.58
  C 142.01 216.93 138.78 217.51 141.83 215.53
  A 1.90 1.89 80.7 0 0 142.66 214.37
  C 144.52 206.88 144.12 198.75 142.72 190.96
  C 142.01 187.02 142.58 184.16 142.79 180.22
  A 1.58 1.06 25.1 0 0 142.09 179.06
  L 138.00 176.21"
/>
<path stroke="#ffd500" vector-effect="non-scaling-stroke" d="
  M 108.04 226.00
  Q 107.10 224.58 109.38 223.43
  A 1.09 1.09 -26.1 0 0 109.88 221.98
  C 109.09 220.35 109.96 218.82 108.46 217.13
  A 1.83 1.82 -46.1 0 1 108.42 214.77
  Q 109.70 213.19 109.60 211.46
  C 109.04 202.27 108.78 192.83 110.05 183.19
  Q 110.37 180.82 108.23 180.96
  L 104.99 181.18
  A 0.56 0.52 80.1 0 1 104.44 180.76
  Q 104.29 180.18 103.75 179.79"
/>
<path stroke="#ffe000" vector-effect="non-scaling-stroke" d="
  M 56.55 241.86
  Q 55.42 239.81 54.48 237.77
  Q 53.57 235.80 53.67 233.40
  Q 54.32 217.87 53.71 202.35
  C 53.55 198.47 54.30 193.64 53.75 189.17
  A 0.91 0.89 -81.2 0 0 53.24 188.46
  C 50.24 187.07 48.60 190.67 45.00 187.96"
/>
<path stroke="#4a4a4a" vector-effect="non-scaling-stroke" d="
  M 502.26 37.65
  Q 501.17 40.63 502.73 43.32
  A 0.67 0.60 64.4 0 0 503.48 43.63
  L 513.81 40.02
  A 0.52 0.48 68.6 0 0 514.08 39.34
  Q 511.29 32.87 504.64 31.83
  A 1.07 1.06 21.4 0 0 503.58 32.29
  Q 502.21 34.32 502.39 36.69
  Q 502.42 37.19 502.26 37.65"
/>
<path stroke="#808080" vector-effect="non-scaling-stroke" d="
  M 512.25 59.22
  C 511.06 56.46 508.24 53.63 505.04 53.75
  Q 503.79 53.79 504.93 54.31
  C 506.71 55.11 511.32 59.56 511.94 59.66
  Q 512.47 59.74 512.25 59.22"
/>
<path stroke="#808080" vector-effect="non-scaling-stroke" d="
  M 477.70 61.23
  C 476.43 57.14 472.38 54.77 468.25 54.81
  A 0.24 0.20 1.2 0 0 468.01 55.00
  C 467.99 55.23 468.15 55.30 468.36 55.35
  Q 473.91 56.49 477.26 61.05
  Q 477.92 61.95 477.70 61.23"
/>
<path stroke="#6b6a6b" vector-effect="non-scaling-stroke" d="
  M 482.48 72.08
  A 0.67 0.67 14.2 0 0 483.01 72.96
  C 483.94 73.11 487.35 75.14 486.75 73.75
  Q 485.48 70.79 483.50 71.25
  Q 482.69 71.44 482.48 72.08"
/>
<path stroke="#5a5a5a" vector-effect="non-scaling-stroke" d="
  M 520.99 98.74
  Q 520.51 100.54 521.78 101.54
  Q 522.21 101.88 522.39 102.27
  Q 523.64 105.01 525.77 107.07
  C 528.24 109.45 530.66 108.38 531.34 105.30
  A 1.01 0.84 32.5 0 0 531.07 104.46
  L 528.26 101.44
  Q 528.12 101.29 527.47 100.89
  L 523.02 98.14
  A 1.41 1.22 24.4 0 0 520.99 98.74"
/>
<path stroke="#767676" vector-effect="non-scaling-stroke" d="
  M 437.46 149.20
  Q 435.56 153.12 433.23 156.76
  Q 431.97 158.74 433.46 158.35
  A 1.24 1.02 -80.1 0 0 434.17 157.74
  C 435.78 154.65 437.23 150.50 439.81 148.15
  Q 440.22 147.78 439.70 147.76
  Q 438.17 147.73 437.46 149.20"
/>
<path stroke="#4a4a4a" vector-effect="non-scaling-stroke" d="
  M 543.28 155.06
  C 539.18 164.92 552.53 158.53 546.20 154.19
  Q 544.21 152.83 543.28 155.06"
/>
<path stroke="#a4a4a4" vector-effect="non-scaling-stroke" d="
  M 505.50 35.68
  Q 504.42 36.38 504.41 37.68
  Q 504.40 38.22 504.18 38.61
  C 501.70 43.04 508.44 39.15 509.32 38.52
  A 1.36 1.35 59.2 0 0 509.75 36.80
  Q 508.79 34.92 507.14 34.42
  A 0.95 0.70 27.6 0 0 506.30 34.55
  Q 506.12 34.72 506.03 34.95
  A 1.66 0.96 -84.1 0 1 505.50 35.68"
/>
<path stroke="#767676" vector-effect="non-scaling-stroke" d="
  M 504.54 72.62
  C 505.96 69.48 501.59 67.58 500.91 69.03
  A 0.95 0.54 45.4 0 0 501.13 69.84
  L 503.30 72.62
  A 0.78 0.67 40.5 0 0 504.54 72.62"
/>
<path stroke="#808080" vector-effect="non-scaling-stroke" d="
  M 471.56 73.81
  C 471.27 68.65 466.34 68.78 468.31 71.44
  C 468.43 71.60 471.97 81.11 471.56 73.81"
/>
<path stroke="#f5e453" vector-effect="non-scaling-stroke" d="
  M 488.04 82.00
  L 484.97 86.30
  A 1.51 0.56 79.8 0 0 484.80 87.25
  Q 484.90 89.17 483.42 90.23
  A 1.44 0.62 -27.0 0 0 482.81 90.96
  L 481.26 97.83
  A 0.92 0.87 -0.3 0 1 480.55 98.51
  L 475.49 99.50
  Q 474.09 99.78 475.35 100.63
  C 476.75 101.59 478.95 101.22 480.54 100.87
  Q 482.90 100.35 483.84 97.74"
/>
<path stroke="#f4e262" vector-effect="non-scaling-stroke" d="
  M 483.84 97.74
  Q 486.50 97.15 487.75 94.96"
/>
<path stroke="#f5e453" vector-effect="non-scaling-stroke" d="
  M 487.75 94.96
  L 495.42 89.63
  A 1.35 1.06 -18.4 0 0 495.95 88.83
  L 496.57 84.70
  A 1.18 1.12 -6.9 0 0 494.97 83.51
  Q 491.84 84.71 489.71 82.25"
/>
<path stroke="#ddc22f" vector-effect="non-scaling-stroke" d="
  M 489.71 82.25
  Q 489.97 81.14 489.31 80.40
  A 1.30 1.00 -15.2 0 0 488.43 80.04
  Q 485.69 79.97 488.04 82.00"
/>
<path stroke="#ddc444" vector-effect="non-scaling-stroke" d="
  M 489.71 82.25
  L 488.04 82.00"
/>
<path stroke="#f4e478" vector-effect="non-scaling-stroke" d="
  M 487.75 94.96
  Q 490.67 91.82 492.80 88.12
  C 493.41 87.07 495.62 84.99 492.25 84.99
  A 1.09 0.76 11.0 0 0 491.41 85.36
  L 490.87 86.22
  A 1.71 0.68 -68.4 0 1 490.23 86.90
  Q 487.96 88.07 487.10 90.45
  A 1.32 1.32 -4.5 0 1 486.49 91.16
  Q 484.96 91.98 484.25 93.59
  A 1.52 1.29 -88.5 0 1 483.62 94.29
  Q 479.72 96.40 483.84 97.74"
/>
<path stroke="#f0f0f0" vector-effect="non-scaling-stroke" d="
  M 528.62 153.46
  Q 530.08 155.14 532.52 155.50
  Q 534.55 155.80 533.52 154.03
  Q 528.78 145.82 523.31 137.69
  C 521.45 134.91 518.41 134.73 515.16 135.69
  Q 509.96 137.22 504.49 137.02
  Q 504.25 137.01 503.58 137.27
  L 500.99 138.25
  A 1.01 0.87 -26.4 0 0 500.42 139.60
  C 501.67 141.46 507.87 142.82 510.06 143.37
  C 518.03 145.37 523.34 147.37 528.62 153.46"
/>
<path stroke="#f6f6f6" vector-effect="non-scaling-stroke" d="
  M 476.88 143.44
  Q 478.64 140.18 482.47 138.93
  Q 484.87 138.14 482.45 137.42
  Q 480.93 136.96 479.23 135.84
  A 0.83 0.82 -44.2 0 0 478.34 135.83
  Q 475.82 137.40 474.26 137.48
  Q 471.91 137.59 473.92 138.80
  Q 476.41 140.31 476.25 143.27
  Q 476.17 144.75 476.88 143.44"
/>
<path stroke="#f6f6f6" vector-effect="non-scaling-stroke" d="
  M 472.45 162.17
  C 470.83 166.64 470.84 170.97 470.26 175.59
  C 469.01 185.60 469.67 196.65 469.98 206.75
  A 1.59 1.37 -69.0 0 0 470.30 207.64
  C 473.77 211.89 472.25 203.85 472.25 203.41
  Q 472.18 185.83 473.39 168.29
  C 473.50 166.74 474.57 164.27 473.65 162.13
  Q 473.00 160.64 472.45 162.17"
/>
</g>
<path fill="#000000" d="
  M 575.21 203.25
  C 571.94 201.87 571.94 204.25 570.68 206.14
  Q 568.18 209.87 564.71 212.75
  L 560.50 215.79
  C 553.37 218.37 544.75 217.11 541.29 209.50
  Q 540.48 205.22 542.25 201.29
  Q 544.62 197.95 548.01 195.89
  C 551.36 193.87 557.95 195.19 561.75 195.54
  Q 565.89 197.44 567.81 201.84
  A 0.49 0.49 57.7 0 0 568.58 202.02
  L 570.62 200.26
  C 571.10 199.75 571.46 199.35 570.89 198.73
  C 565.74 193.17 559.92 192.90 552.79 192.75
  A 0.34 0.34 13.1 0 1 552.49 192.27
  Q 556.75 183.38 557.29 173.74
  Q 557.64 167.34 555.39 161.55
  Q 550.52 149.02 538.77 141.47
  Q 537.62 140.73 537.03 141.33
  A 0.44 0.38 34.4 0 0 537.20 141.97
  C 546.75 146.82 556.48 160.44 555.87 171.24
  C 555.52 177.46 554.63 190.42 548.58 194.09
  Q 544.24 196.71 541.50 200.96
  Q 540.07 200.67 539.18 200.04
  C 541.48 190.88 540.87 181.77 540.17 172.29
  Q 539.58 164.36 536.90 156.90
  C 534.20 149.41 528.34 140.59 525.24 131.50
  Q 519.91 115.88 512.48 101.15
  C 512.07 100.34 511.33 99.91 510.96 99.00
  L 510.96 98.75
  Q 516.83 90.60 508.71 85.75
  Q 515.96 78.58 512.46 68.75
  C 510.31 62.81 507.83 56.22 501.19 57.17
  Q 492.98 58.35 489.09 65.64
  Q 487.59 71.83 489.89 77.69
  Q 483.84 76.23 478.00 76.96
  Q 478.80 70.11 475.46 64.25
  C 471.44 54.10 460.32 58.67 460.54 68.50
  Q 459.36 78.15 464.54 86.25
  Q 459.44 90.00 459.97 96.26
  L 462.00 98.29
  L 462.93 100.84
  L 461.79 108.00
  Q 462.70 114.66 459.94 118.44
  Q 455.32 124.74 451.49 131.67
  L 444.75 150.96
  C 436.05 167.99 430.48 183.00 432.92 202.81
  Q 429.19 198.72 424.51 195.97
  C 420.36 193.53 416.46 195.28 414.04 199.00
  L 412.20 197.72
  A 1.14 0.65 26.0 0 1 411.70 196.99
  L 411.29 184.30
  A 1.41 1.06 -30.8 0 1 411.64 183.44
  C 423.52 169.82 424.93 153.32 434.41 136.61
  Q 436.67 132.62 442.87 124.49
  Q 449.33 116.02 455.16 107.11
  A 1.56 1.54 -29.6 0 0 455.42 106.19
  Q 454.70 89.95 453.65 73.74
  C 453.11 65.43 453.27 57.83 453.49 49.76
  C 454.13 25.29 480.33 18.38 500.08 21.85
  C 511.11 23.79 519.33 30.05 525.28 39.63
  C 531.34 49.37 532.74 60.54 533.00 72.00
  C 533.19 80.31 533.51 91.31 537.49 99.76
  Q 537.83 100.48 543.69 110.98
  C 547.69 118.15 551.07 122.90 557.24 130.38
  Q 566.34 141.42 571.25 155.04
  C 577.32 171.83 583.61 187.90 575.21 203.25
  Z
  M 502.26 37.65
  Q 501.17 40.63 502.73 43.32
  A 0.67 0.60 64.4 0 0 503.48 43.63
  L 513.81 40.02
  A 0.52 0.48 68.6 0 0 514.08 39.34
  Q 511.29 32.87 504.64 31.83
  A 1.07 1.06 21.4 0 0 503.58 32.29
  Q 502.21 34.32 502.39 36.69
  Q 502.42 37.19 502.26 37.65
  Z
  M 512.25 59.22
  C 511.06 56.46 508.24 53.63 505.04 53.75
  Q 503.79 53.79 504.93 54.31
  C 506.71 55.11 511.32 59.56 511.94 59.66
  Q 512.47 59.74 512.25 59.22
  Z
  M 477.70 61.23
  C 476.43 57.14 472.38 54.77 468.25 54.81
  A 0.24 0.20 1.2 0 0 468.01 55.00
  C 467.99 55.23 468.15 55.30 468.36 55.35
  Q 473.91 56.49 477.26 61.05
  Q 477.92 61.95 477.70 61.23
  Z
  M 482.48 72.08
  A 0.67 0.67 14.2 0 0 483.01 72.96
  C 483.94 73.11 487.35 75.14 486.75 73.75
  Q 485.48 70.79 483.50 71.25
  Q 482.69 71.44 482.48 72.08
  Z
  M 520.99 98.74
  Q 520.51 100.54 521.78 101.54
  Q 522.21 101.88 522.39 102.27
  Q 523.64 105.01 525.77 107.07
  C 528.24 109.45 530.66 108.38 531.34 105.30
  A 1.01 0.84 32.5 0 0 531.07 104.46
  L 528.26 101.44
  Q 528.12 101.29 527.47 100.89
  L 523.02 98.14
  A 1.41 1.22 24.4 0 0 520.99 98.74
  Z
  M 437.46 149.20
  Q 435.56 153.12 433.23 156.76
  Q 431.97 158.74 433.46 158.35
  A 1.24 1.02 -80.1 0 0 434.17 157.74
  C 435.78 154.65 437.23 150.50 439.81 148.15
  Q 440.22 147.78 439.70 147.76
  Q 438.17 147.73 437.46 149.20
  Z
  M 543.28 155.06
  C 539.18 164.92 552.53 158.53 546.20 154.19
  Q 544.21 152.83 543.28 155.06
  Z"
/>
<circle fill="#000000" cx="111.25" cy="41.97" r="11.92"/>
<path fill="#949494" d="
  M 502.39 36.69
  Q 502.21 34.32 503.58 32.29
  A 1.07 1.06 21.4 0 1 504.64 31.83
  Q 511.29 32.87 514.08 39.34
  A 0.52 0.48 68.6 0 1 513.81 40.02
  L 503.48 43.63
  A 0.67 0.60 64.4 0 1 502.73 43.32
  Q 501.17 40.63 502.26 37.65
  Q 502.42 37.19 502.39 36.69
  Z
  M 505.50 35.68
  Q 504.42 36.38 504.41 37.68
  Q 504.40 38.22 504.18 38.61
  C 501.70 43.04 508.44 39.15 509.32 38.52
  A 1.36 1.35 59.2 0 0 509.75 36.80
  Q 508.79 34.92 507.14 34.42
  A 0.95 0.70 27.6 0 0 506.30 34.55
  Q 506.12 34.72 506.03 34.95
  A 1.66 0.96 -84.1 0 1 505.50 35.68
  Z"
/>
<path fill="#b3b3b3" d="
  M 506.03 34.95
  Q 506.12 34.72 506.30 34.55
  A 0.95 0.70 27.6 0 1 507.14 34.42
  Q 508.79 34.92 509.75 36.80
  A 1.36 1.35 59.2 0 1 509.32 38.52
  C 508.44 39.15 501.70 43.04 504.18 38.61
  Q 504.40 38.22 504.41 37.68
  Q 504.42 36.38 505.50 35.68
  A 1.66 0.96 -84.1 0 0 506.03 34.95
  Z"
/>
<path fill="#000000" d="
  M 36.06 137.44
  Q 48.98 137.54 61.89 137.50
  C 65.11 137.49 68.20 137.95 68.81 133.81
  Q 70.12 124.96 71.03 116.33
  A 1.21 1.21 -86.8 0 1 72.23 115.25
  L 82.26 115.25
  A 0.93 0.92 -89.7 0 1 83.18 116.19
  L 82.94 146.19
  A 0.51 0.51 -89.4 0 1 82.43 146.69
  L 2.18 146.75
  A 0.68 0.68 89.2 0 1 1.50 146.07
  L 1.50 139.93
  A 1.12 1.12 86.0 0 1 2.62 138.81
  C 10.29 138.87 14.25 139.13 14.25 130.02
  Q 14.25 91.32 14.25 52.61
  C 14.25 45.39 7.05 46.86 2.11 46.47
  A 0.62 0.57 3.6 0 1 1.54 45.88
  L 1.69 39.25
  A 0.57 0.52 -0.1 0 1 2.25 38.74
  Q 24.75 38.14 47.26 38.74
  A 0.59 0.58 -3.4 0 1 47.83 39.24
  Q 48.34 42.48 47.78 45.70
  A 0.74 0.74 -0.6 0 1 47.20 46.29
  C 44.19 46.88 39.52 46.55 37.41 47.82
  C 34.87 49.35 35.50 51.63 35.50 54.27
  Q 35.45 95.61 35.56 136.95
  A 0.50 0.49 0.0 0 0 36.06 137.44
  Z"
/>
<path fill="#ffffff" d="
  M 505.04 53.75
  C 508.24 53.63 511.06 56.46 512.25 59.22
  Q 512.47 59.74 511.94 59.66
  C 511.32 59.56 506.71 55.11 504.93 54.31
  Q 503.79 53.79 505.04 53.75
  Z"
/>
<path fill="#ffffff" d="
  M 468.25 54.81
  C 472.38 54.77 476.43 57.14 477.70 61.23
  Q 477.92 61.95 477.26 61.05
  Q 473.91 56.49 468.36 55.35
  C 468.15 55.30 467.99 55.23 468.01 55.00
  A 0.24 0.20 1.2 0 1 468.25 54.81
  Z"
/>
<path fill="#d5d4d5" d="
  M 512.46 68.75
  Q 505.46 62.51 495.60 63.54
  Q 494.14 63.69 492.90 64.48
  Q 491.00 65.69 489.09 65.64
  Q 492.98 58.35 501.19 57.17
  C 507.83 56.22 510.31 62.81 512.46 68.75
  Z"
/>
<path fill="#000000" d="
  M 414.21 59.43
  C 412.77 59.26 412.26 62.66 411.51 60.03
  A 1.05 0.97 81.5 0 1 412.42 58.69
  L 418.95 58.75
  A 0.97 0.79 72.2 0 1 419.70 59.24
  Q 420.67 60.92 419.29 60.59
  A 1.44 0.78 67.3 0 1 418.57 60.01
  Q 417.97 59.16 417.19 59.73
  A 1.08 0.91 75.2 0 0 416.79 60.57
  L 416.79 66.20
  A 1.38 1.00 29.8 0 0 417.17 67.04
  C 418.82 68.82 412.90 68.53 414.40 67.36
  A 1.18 0.71 -27.6 0 0 414.88 66.57
  L 414.77 60.06
  A 0.65 0.64 -86.9 0 0 414.21 59.43
  Z"
/>
<path fill="#000000" d="
  M 426.06 64.52
  C 426.98 64.47 427.93 60.34 428.26 59.41
  A 0.92 0.73 -79.9 0 1 428.92 58.83
  L 431.44 58.56
  A 0.33 0.31 -80.5 0 1 431.74 59.02
  Q 430.00 63.34 431.44 67.31
  Q 431.85 68.46 430.72 68.16
  Q 430.21 68.02 429.76 68.10
  Q 427.81 68.40 428.89 66.83
  A 1.82 1.53 68.5 0 0 429.19 65.94
  L 429.44 61.75
  A 0.81 0.57 -80.8 0 0 429.07 60.99
  C 428.32 60.72 426.92 66.36 426.61 67.22
  A 1.24 0.83 -83.0 0 1 426.01 67.92
  Q 425.24 68.22 425.00 67.25
  Q 423.83 62.45 423.19 61.31
  C 422.10 59.40 422.23 66.66 422.92 67.38
  A 0.33 0.31 54.9 0 1 422.85 67.90
  Q 420.17 69.05 420.94 66.94
  C 421.58 65.22 421.19 62.89 421.43 60.99
  A 1.77 1.43 40.8 0 0 421.26 60.06
  Q 420.04 57.64 423.35 58.77
  A 1.11 0.87 4.5 0 1 424.02 59.39
  L 425.47 63.95
  A 0.78 0.49 76.2 0 0 426.06 64.52
  Z"
/>
<path fill="#d5d4d5" d="
  M 475.46 64.25
  Q 466.89 62.65 460.54 68.50
  C 460.32 58.67 471.44 54.10 475.46 64.25
  Z"
/>
<path fill="#ffffff" d="
  M 512.46 68.75
  Q 515.96 78.58 508.71 85.75
  Q 505.22 85.22 502.50 83.04
  C 514.74 76.36 502.63 59.70 495.68 69.90
  Q 493.04 73.78 494.40 79.36
  Q 491.72 79.19 489.89 77.69
  Q 487.59 71.83 489.09 65.64
  Q 491.00 65.69 492.90 64.48
  Q 494.14 63.69 495.60 63.54
  Q 505.46 62.51 512.46 68.75
  Z"
/>
<path fill="#ffffff" d="
  M 475.46 64.25
  Q 478.80 70.11 478.00 76.96
  L 474.75 78.96
  L 474.04 79.00
  C 473.71 73.72 473.93 66.25 466.05 67.82
  Q 464.17 68.19 463.74 70.06
  Q 461.92 77.95 467.75 83.54
  Q 466.68 85.54 464.54 86.25
  Q 459.36 78.15 460.54 68.50
  Q 466.89 62.65 475.46 64.25
  Z"
/>
<path fill="#000000" d="
  M 295.46 138.52
  Q 295.47 137.52 294.63 138.12
  C 276.47 151.15 246.97 156.02 246.43 123.60
  Q 246.09 102.83 246.26 81.03
  A 0.77 0.77 -89.6 0 0 245.49 80.25
  L 236.12 80.25
  A 0.51 0.48 -89.4 0 1 235.64 79.73
  L 235.73 74.88
  A 1.02 0.95 82.3 0 1 236.38 73.96
  Q 245.56 70.83 254.67 67.65
  C 258.57 66.29 261.44 66.35 265.46 66.55
  A 0.83 0.83 1.5 0 1 266.25 67.38
  Q 266.25 90.71 266.25 113.57
  Q 266.25 123.79 267.82 127.22
  C 272.42 137.30 286.16 134.95 294.86 132.05
  A 0.95 0.92 -9.7 0 0 295.50 131.17
  L 295.44 81.06
  A 0.56 0.51 -89.5 0 0 294.94 80.50
  L 286.28 80.30
  A 1.15 0.94 1.1 0 1 285.15 79.34
  L 285.20 74.55
  A 0.85 0.61 -12.5 0 1 285.78 73.90
  C 294.23 71.02 305.81 65.43 314.76 66.54
  A 0.56 0.55 3.5 0 1 315.25 67.09
  Q 315.25 100.58 315.25 133.92
  C 315.25 140.38 320.62 139.21 325.06 139.52
  A 0.95 0.88 2.8 0 1 325.94 140.41
  L 325.87 146.06
  A 0.57 0.53 -0.0 0 1 325.31 146.58
  L 296.51 146.73
  A 1.11 1.05 89.7 0 1 295.45 145.62
  L 295.46 138.52
  Z"
/>
<path fill="#000000" d="
  M 170.32 76.07
  C 177.04 72.36 185.17 68.28 192.85 67.04
  C 211.18 64.09 219.29 75.72 219.27 92.50
  Q 219.25 111.32 219.25 130.13
  C 219.25 139.62 220.32 139.07 229.39 139.53
  A 0.65 0.64 -88.6 0 1 230.00 140.18
  L 230.00 145.87
  A 0.88 0.88 0.0 0 1 229.12 146.75
  L 191.43 146.75
  A 0.86 0.80 0.3 0 1 190.57 145.94
  L 190.63 140.19
  A 0.66 0.59 -5.2 0 1 191.18 139.60
  C 194.26 139.12 199.75 139.59 199.75 135.00
  Q 199.75 116.75 199.72 98.50
  C 199.69 78.22 185.20 77.78 170.27 83.14
  A 0.72 0.70 80.1 0 0 169.81 83.81
  Q 169.75 108.56 169.69 133.31
  C 169.68 138.56 171.49 139.44 176.41 139.15
  Q 179.17 138.99 179.06 141.47
  L 178.86 146.07
  A 0.54 0.53 1.1 0 1 178.32 146.58
  L 139.94 146.57
  A 0.56 0.52 -0.5 0 1 139.38 146.06
  L 139.30 140.37
  A 0.92 0.86 -2.0 0 1 140.18 139.49
  C 149.35 139.07 149.75 138.96 149.75 129.89
  Q 149.75 105.70 149.75 81.60
  A 1.05 1.05 -3.2 0 0 148.58 80.56
  Q 143.93 81.10 139.31 80.50
  A 0.61 0.52 5.1 0 1 138.77 79.95
  L 138.87 74.93
  A 0.82 0.67 -11.2 0 1 139.41 74.27
  C 147.71 71.42 159.94 65.93 168.60 66.90
  A 1.25 1.15 4.3 0 1 169.71 68.09
  L 169.50 75.52
  Q 169.47 76.54 170.32 76.07
  Z"
/>
<path fill="#000000" d="
  M 131.71 140.17
  Q 132.28 142.30 131.78 145.81
  A 1.08 1.07 -85.7 0 1 130.71 146.74
  L 90.44 146.57
  A 0.57 0.51 -0.0 0 1 89.87 146.06
  L 89.88 140.18
  A 0.61 0.54 -2.9 0 1 90.44 139.64
  L 97.75 139.00
  Q 100.75 138.74 100.75 135.50
  L 100.75 81.44
  A 0.69 0.69 0.0 0 0 100.06 80.75
  Q 96.00 80.75 92.02 81.00
  Q 89.59 81.15 90.19 78.19
  A 2.91 2.84 -53.0 0 0 89.96 76.40
  C 89.45 75.37 90.44 74.36 91.48 74.00
  Q 100.69 70.89 109.91 67.79
  C 113.40 66.61 116.08 66.61 119.66 66.78
  A 0.89 0.88 -88.7 0 1 120.50 67.67
  Q 120.50 100.99 120.50 134.01
  C 120.50 140.66 126.73 139.03 131.07 139.62
  A 0.78 0.75 -3.2 0 1 131.71 140.17
  Z"
/>
<path fill="#000000" d="
  M 502.50 83.04
  Q 498.02 81.69 494.40 79.36
  Q 493.04 73.78 495.68 69.90
  C 502.63 59.70 514.74 76.36 502.50 83.04
  Z
  M 504.54 72.62
  C 505.96 69.48 501.59 67.58 500.91 69.03
  A 0.95 0.54 45.4 0 0 501.13 69.84
  L 503.30 72.62
  A 0.78 0.67 40.5 0 0 504.54 72.62
  Z"
/>
<path fill="#000000" d="
  M 474.04 79.00
  L 467.75 83.54
  Q 461.92 77.95 463.74 70.06
  Q 464.17 68.19 466.05 67.82
  C 473.93 66.25 473.71 73.72 474.04 79.00
  Z
  M 471.56 73.81
  C 471.27 68.65 466.34 68.78 468.31 71.44
  C 468.43 71.60 471.97 81.11 471.56 73.81
  Z"
/>
<path fill="#000000" d="
  M 369.60 116.32
  A 0.62 0.62 45.7 0 0 368.57 116.30
  L 354.19 137.41
  A 0.63 0.61 23.1 0 0 354.59 138.36
  L 361.33 139.80
  A 0.68 0.66 5.5 0 1 361.87 140.44
  L 361.97 146.20
  A 0.53 0.48 -0.5 0 1 361.44 146.69
  L 331.42 146.75
  A 0.67 0.67 0.2 0 1 330.75 146.08
  L 330.75 140.60
  A 1.23 1.10 -6.0 0 1 331.75 139.50
  L 340.03 137.89
  A 1.52 0.97 -66.7 0 0 340.81 137.36
  L 362.63 109.59
  A 0.94 0.93 46.2 0 0 362.65 108.47
  L 340.98 77.57
  A 2.44 1.86 -7.2 0 0 339.49 76.71
  L 331.93 75.44
  A 0.66 0.65 4.3 0 1 331.38 74.81
  L 331.30 69.03
  A 0.82 0.77 -0.3 0 1 332.12 68.25
  L 369.48 68.25
  A 0.77 0.77 -89.5 0 1 370.25 69.02
  L 370.25 74.26
  A 0.70 0.67 85.0 0 1 369.70 74.94
  L 365.00 75.75
  Q 362.10 76.25 364.06 79.19
  L 375.44 96.16
  A 0.88 0.87 -44.6 0 0 376.89 96.16
  L 389.99 77.60
  A 0.73 0.70 22.4 0 0 389.51 76.50
  L 382.66 75.20
  A 0.67 0.65 -85.2 0 1 382.13 74.56
  L 382.02 69.16
  A 0.96 0.89 -0.6 0 1 382.98 68.25
  L 410.77 68.25
  A 1.13 0.96 90.0 0 1 411.73 69.38
  L 411.71 74.27
  A 1.36 1.11 86.7 0 1 410.76 75.59
  L 403.65 76.66
  A 2.28 2.25 14.4 0 0 402.17 77.52
  L 382.48 102.95
  A 1.04 1.03 -43.7 0 0 382.45 104.17
  L 405.39 137.21
  A 3.40 3.14 -10.3 0 0 407.48 138.54
  L 414.54 139.86
  A 0.64 0.57 -85.2 0 1 415.00 140.48
  L 415.00 145.76
  A 0.99 0.90 90.0 0 1 414.10 146.75
  L 378.04 146.75
  A 0.92 0.82 0.3 0 1 377.12 145.92
  L 377.20 141.04
  A 0.87 0.52 -13.1 0 1 377.81 140.45
  L 382.08 139.06
  Q 383.99 138.43 382.81 136.62
  L 369.60 116.32
  Z"
/>
<path fill="#ececec" d="
  M 504.54 72.62
  A 0.78 0.67 40.5 0 1 503.30 72.62
  L 501.13 69.84
  A 0.95 0.54 45.4 0 1 500.91 69.03
  C 501.59 67.58 505.96 69.48 504.54 72.62
  Z"
/>
<path fill="#ffffff" d="
  M 471.56 73.81
  C 471.97 81.11 468.43 71.60 468.31 71.44
  C 466.34 68.78 471.27 68.65 471.56 73.81
  Z"
/>
<path fill="#d5d4d5" d="
  M 482.48 72.08
  Q 482.69 71.44 483.50 71.25
  Q 485.48 70.79 486.75 73.75
  C 487.35 75.14 483.94 73.11 483.01 72.96
  A 0.67 0.67 14.2 0 1 482.48 72.08
  Z"
/>
<path fill="#f5e13d" d="
  M 489.89 77.69
  Q 491.72 79.19 494.40 79.36
  Q 498.02 81.69 502.50 83.04
  Q 505.22 85.22 508.71 85.75
  Q 516.83 90.60 510.96 98.75
  Q 509.89 98.50 510.25 97.75
  C 510.68 96.85 513.15 89.58 511.11 90.42
  A 1.34 0.38 -68.6 0 0 510.54 91.17
  Q 510.07 92.15 508.55 90.70
  Q 496.89 97.75 484.07 102.08
  Q 477.02 104.47 470.21 101.75
  C 471.20 99.00 469.03 99.18 467.78 98.03
  C 464.61 95.12 465.30 91.50 468.14 88.64
  C 470.17 86.61 470.39 84.31 473.07 82.74
  A 1.61 1.10 24.4 0 1 473.98 82.58
  C 474.61 82.64 478.38 81.88 477.32 80.61
  A 1.18 0.50 -7.3 0 0 476.44 80.36
  Q 475.10 80.36 474.75 78.96
  L 478.00 76.96
  Q 483.84 76.23 489.89 77.69
  Z
  M 488.04 82.00
  L 484.97 86.30
  A 1.51 0.56 79.8 0 0 484.80 87.25
  Q 484.90 89.17 483.42 90.23
  A 1.44 0.62 -27.0 0 0 482.81 90.96
  L 481.26 97.83
  A 0.92 0.87 -0.3 0 1 480.55 98.51
  L 475.49 99.50
  Q 474.09 99.78 475.35 100.63
  C 476.75 101.59 478.95 101.22 480.54 100.87
  Q 482.90 100.35 483.84 97.74
  Q 486.50 97.15 487.75 94.96
  L 495.42 89.63
  A 1.35 1.06 -18.4 0 0 495.95 88.83
  L 496.57 84.70
  A 1.18 1.12 -6.9 0 0 494.97 83.51
  Q 491.84 84.71 489.71 82.25
  Q 489.97 81.14 489.31 80.40
  A 1.30 1.00 -15.2 0 0 488.43 80.04
  Q 485.69 79.97 488.04 82.00
  Z"
/>
<path fill="#e9c932" d="
  M 474.04 79.00
  L 474.75 78.96
  Q 475.10 80.36 476.44 80.36
  A 1.18 0.50 -7.3 0 1 477.32 80.61
  C 478.38 81.88 474.61 82.64 473.98 82.58
  A 1.61 1.10 24.4 0 0 473.07 82.74
  C 470.39 84.31 470.17 86.61 468.14 88.64
  C 465.30 91.50 464.61 95.12 467.78 98.03
  C 469.03 99.18 471.20 99.00 470.21 101.75
  Q 465.64 99.30 462.18 95.45
  C 461.95 95.20 462.00 94.49 461.40 94.70
  A 0.89 0.39 85.9 0 0 461.12 95.49
  Q 461.13 96.18 459.97 96.26
  Q 459.44 90.00 464.54 86.25
  Q 466.68 85.54 467.75 83.54
  L 474.04 79.00
  Z"
/>
<path fill="#c5a220" d="
  M 489.71 82.25
  L 488.04 82.00
  Q 485.69 79.97 488.43 80.04
  A 1.30 1.00 -15.2 0 1 489.31 80.40
  Q 489.97 81.14 489.71 82.25
  Z"
/>
<path fill="#f5e668" d="
  M 488.04 82.00
  L 489.71 82.25
  Q 491.84 84.71 494.97 83.51
  A 1.18 1.12 -6.9 0 1 496.57 84.70
  L 495.95 88.83
  A 1.35 1.06 -18.4 0 1 495.42 89.63
  L 487.75 94.96
  Q 490.67 91.82 492.80 88.12
  C 493.41 87.07 495.62 84.99 492.25 84.99
  A 1.09 0.76 11.0 0 0 491.41 85.36
  L 490.87 86.22
  A 1.71 0.68 -68.4 0 1 490.23 86.90
  Q 487.96 88.07 487.10 90.45
  A 1.32 1.32 -4.5 0 1 486.49 91.16
  Q 484.96 91.98 484.25 93.59
  A 1.52 1.29 -88.5 0 1 483.62 94.29
  Q 479.72 96.40 483.84 97.74
  Q 482.90 100.35 480.54 100.87
  C 478.95 101.22 476.75 101.59 475.35 100.63
  Q 474.09 99.78 475.49 99.50
  L 480.55 98.51
  A 0.92 0.87 -0.3 0 0 481.26 97.83
  L 482.81 90.96
  A 1.44 0.62 -27.0 0 1 483.42 90.23
  Q 484.90 89.17 484.80 87.25
  A 1.51 0.56 79.8 0 1 484.97 86.30
  L 488.04 82.00
  Z"
/>
<path fill="#f3e287" d="
  M 487.75 94.96
  Q 486.50 97.15 483.84 97.74
  Q 479.72 96.40 483.62 94.29
  A 1.52 1.29 -88.5 0 0 484.25 93.59
  Q 484.96 91.98 486.49 91.16
  A 1.32 1.32 -4.5 0 0 487.10 90.45
  Q 487.96 88.07 490.23 86.90
  A 1.71 0.68 -68.4 0 0 490.87 86.22
  L 491.41 85.36
  A 1.09 0.76 11.0 0 1 492.25 84.99
  C 495.62 84.99 493.41 87.07 492.80 88.12
  Q 490.67 91.82 487.75 94.96
  Z"
/>
<path fill="#c5a220" d="
  M 508.55 90.70
  Q 506.94 93.83 504.00 94.71
  Q 492.14 101.59 478.79 104.55
  L 474.35 104.80
  A 0.64 0.63 -90.0 0 0 473.75 105.41
  Q 473.68 107.36 475.25 108.21
  C 472.40 111.49 466.26 98.99 462.00 98.29
  L 459.97 96.26
  Q 461.13 96.18 461.12 95.49
  A 0.89 0.39 85.9 0 1 461.40 94.70
  C 462.00 94.49 461.95 95.20 462.18 95.45
  Q 465.64 99.30 470.21 101.75
  Q 477.02 104.47 484.07 102.08
  Q 496.89 97.75 508.55 90.70
  Z"
/>
<path fill="#e9c932" d="
  M 510.96 98.75
  L 510.96 99.00
  L 509.75 100.21
  L 506.75 102.04
  Q 499.23 103.29 493.45 108.11
  A 0.63 0.61 43.2 0 1 492.68 108.12
  Q 490.43 106.39 488.83 108.64
  A 1.57 1.21 -75.0 0 1 488.08 109.21
  Q 481.50 111.10 475.25 108.21
  Q 473.68 107.36 473.75 105.41
  A 0.64 0.63 -90.0 0 1 474.35 104.80
  L 478.79 104.55
  L 483.44 105.61
  A 1.69 1.02 -39.4 0 0 484.40 105.47
  Q 488.11 103.85 491.50 105.00
  Q 493.93 105.83 495.01 104.19
  A 0.84 0.84 17.6 0 1 495.75 103.81
  Q 496.96 103.85 498.75 103.00
  Q 502.04 101.43 505.25 99.68
  A 0.44 0.44 57.4 0 0 505.39 99.04
  Q 504.03 97.11 504.00 94.71
  Q 506.94 93.83 508.55 90.70
  Q 510.07 92.15 510.54 91.17
  A 1.34 0.38 -68.6 0 1 511.11 90.42
  C 513.15 89.58 510.68 96.85 510.25 97.75
  Q 509.89 98.50 510.96 98.75
  Z"
/>
<path fill="#e7c708" d="
  M 504.00 94.71
  Q 504.03 97.11 505.39 99.04
  A 0.44 0.44 57.4 0 1 505.25 99.68
  Q 502.04 101.43 498.75 103.00
  Q 496.96 103.85 495.75 103.81
  A 0.84 0.84 17.6 0 0 495.01 104.19
  Q 493.93 105.83 491.50 105.00
  Q 488.11 103.85 484.40 105.47
  A 1.69 1.02 -39.4 0 1 483.44 105.61
  L 478.79 104.55
  Q 492.14 101.59 504.00 94.71
  Z"
/>
<path fill="#b3b3b3" d="
  M 520.99 98.74
  A 1.41 1.22 24.4 0 1 523.02 98.14
  L 527.47 100.89
  Q 528.12 101.29 528.26 101.44
  L 531.07 104.46
  A 1.01 0.84 32.5 0 1 531.34 105.30
  C 530.66 108.38 528.24 109.45 525.77 107.07
  Q 523.64 105.01 522.39 102.27
  Q 522.21 101.88 521.78 101.54
  Q 520.51 100.54 520.99 98.74
  Z"
/>
<path fill="#c8a740" d="
  M 462.00 98.29
  C 466.26 98.99 472.40 111.49 475.25 108.21
  Q 481.50 111.10 488.08 109.21
  A 1.57 1.21 -75.0 0 0 488.83 108.64
  Q 490.43 106.39 492.68 108.12
  A 0.63 0.61 43.2 0 0 493.45 108.11
  Q 499.23 103.29 506.75 102.04
  C 497.38 107.28 489.97 114.56 478.30 113.44
  Q 475.53 113.17 473.39 111.38
  Q 468.06 106.88 462.93 100.84
  L 462.00 98.29
  Z"
/>
<path fill="#ffffff" d="
  M 510.96 99.00
  C 511.33 99.91 512.07 100.34 512.48 101.15
  Q 519.91 115.88 525.24 131.50
  C 528.34 140.59 534.20 149.41 536.90 156.90
  Q 539.58 164.36 540.17 172.29
  C 540.87 181.77 541.48 190.88 539.18 200.04
  Q 537.57 200.60 535.00 200.50
  Q 526.82 200.20 528.04 208.25
  C 528.48 214.06 521.03 210.92 521.17 218.00
  Q 521.25 222.28 522.13 227.23
  Q 522.25 227.93 522.25 228.63
  Q 522.25 232.37 523.57 232.04
  A 2.62 2.56 -80.0 0 0 525.16 230.90
  Q 526.87 228.23 527.04 230.00
  C 516.39 241.91 502.19 250.90 485.75 251.15
  C 477.17 251.28 469.39 252.50 461.50 247.04
  L 460.50 246.46
  L 453.79 236.00
  Q 447.44 226.13 441.26 216.16
  C 439.17 212.79 435.39 207.46 432.92 202.81
  C 430.48 183.00 436.05 167.99 444.75 150.96
  L 445.72 151.28
  A 0.74 0.74 -61.0 0 0 446.51 151.05
  Q 452.44 143.93 460.92 140.79
  Q 463.47 139.84 460.83 139.19
  C 457.81 138.45 453.80 136.46 453.25 133.06
  A 0.78 0.65 4.9 0 0 452.70 132.51
  Q 452.08 132.35 451.49 131.67
  Q 455.32 124.74 459.94 118.44
  Q 462.70 114.66 461.79 108.00
  Q 463.29 107.18 463.06 109.19
  Q 462.70 112.36 464.93 114.69
  C 468.44 118.35 472.68 123.94 477.81 125.23
  C 483.93 126.76 500.29 114.34 505.37 108.54
  C 508.07 105.46 512.85 109.24 514.64 111.70
  A 0.88 0.52 66.8 0 0 515.09 112.03
  Q 515.25 112.06 515.38 112.03
  A 0.62 0.42 74.4 0 0 515.62 111.30
  Q 513.83 105.14 509.75 100.21
  L 510.96 99.00
  Z
  M 528.62 153.46
  Q 530.08 155.14 532.52 155.50
  Q 534.55 155.80 533.52 154.03
  Q 528.78 145.82 523.31 137.69
  C 521.45 134.91 518.41 134.73 515.16 135.69
  Q 509.96 137.22 504.49 137.02
  Q 504.25 137.01 503.58 137.27
  L 500.99 138.25
  A 1.01 0.87 -26.4 0 0 500.42 139.60
  C 501.67 141.46 507.87 142.82 510.06 143.37
  C 518.03 145.37 523.34 147.37 528.62 153.46
  Z
  M 476.88 143.44
  Q 478.64 140.18 482.47 138.93
  Q 484.87 138.14 482.45 137.42
  Q 480.93 136.96 479.23 135.84
  A 0.83 0.82 -44.2 0 0 478.34 135.83
  Q 475.82 137.40 474.26 137.48
  Q 471.91 137.59 473.92 138.80
  Q 476.41 140.31 476.25 143.27
  Q 476.17 144.75 476.88 143.44
  Z
  M 472.45 162.17
  C 470.83 166.64 470.84 170.97 470.26 175.59
  C 469.01 185.60 469.67 196.65 469.98 206.75
  A 1.59 1.37 -69.0 0 0 470.30 207.64
  C 473.77 211.89 472.25 203.85 472.25 203.41
  Q 472.18 185.83 473.39 168.29
  C 473.50 166.74 474.57 164.27 473.65 162.13
  Q 473.00 160.64 472.45 162.17
  Z"
/>
<path fill="#e0e0e0" d="
  M 509.75 100.21
  Q 513.83 105.14 515.62 111.30
  A 0.62 0.42 74.4 0 1 515.38 112.03
  Q 515.25 112.06 515.09 112.03
  A 0.88 0.52 66.8 0 1 514.64 111.70
  C 512.85 109.24 508.07 105.46 505.37 108.54
  C 500.29 114.34 483.93 126.76 477.81 125.23
  C 472.68 123.94 468.44 118.35 464.93 114.69
  Q 462.70 112.36 463.06 109.19
  Q 463.29 107.18 461.79 108.00
  L 462.93 100.84
  Q 468.06 106.88 473.39 111.38
  Q 475.53 113.17 478.30 113.44
  C 489.97 114.56 497.38 107.28 506.75 102.04
  L 509.75 100.21
  Z"
/>
<path fill="#e0e0e0" d="
  M 451.49 131.67
  Q 452.08 132.35 452.70 132.51
  A 0.78 0.65 4.9 0 1 453.25 133.06
  C 453.80 136.46 457.81 138.45 460.83 139.19
  Q 463.47 139.84 460.92 140.79
  Q 452.44 143.93 446.51 151.05
  A 0.74 0.74 -61.0 0 1 445.72 151.28
  L 444.75 150.96
  L 451.49 131.67
  Z"
/>
<path fill="#e0e0e0" d="
  M 528.62 153.46
  C 523.34 147.37 518.03 145.37 510.06 143.37
  C 507.87 142.82 501.67 141.46 500.42 139.60
  A 1.01 0.87 -26.4 0 1 500.99 138.25
  L 503.58 137.27
  Q 504.25 137.01 504.49 137.02
  Q 509.96 137.22 515.16 135.69
  C 518.41 134.73 521.45 134.91 523.31 137.69
  Q 528.78 145.82 533.52 154.03
  Q 534.55 155.80 532.52 155.50
  Q 530.08 155.14 528.62 153.46
  Z"
/>
<path fill="#ececec" d="
  M 476.88 143.44
  Q 476.17 144.75 476.25 143.27
  Q 476.41 140.31 473.92 138.80
  Q 471.91 137.59 474.26 137.48
  Q 475.82 137.40 478.34 135.83
  A 0.83 0.82 -44.2 0 1 479.23 135.84
  Q 480.93 136.96 482.45 137.42
  Q 484.87 138.14 482.47 138.93
  Q 478.64 140.18 476.88 143.44
  Z"
/>
<path fill="#cfcdcf" d="
  M 570.62 200.26
  Q 567.12 195.99 561.75 195.54
  C 557.95 195.19 551.36 193.87 548.01 195.89
  Q 544.62 197.95 542.25 201.29
  Q 541.82 201.25 541.50 200.96
  Q 544.24 196.71 548.58 194.09
  C 554.63 190.42 555.52 177.46 555.87 171.24
  C 556.48 160.44 546.75 146.82 537.20 141.97
  A 0.44 0.38 34.4 0 1 537.03 141.33
  Q 537.62 140.73 538.77 141.47
  Q 550.52 149.02 555.39 161.55
  Q 557.64 167.34 557.29 173.74
  Q 556.75 183.38 552.49 192.27
  A 0.34 0.34 13.1 0 0 552.79 192.75
  C 559.92 192.90 565.74 193.17 570.89 198.73
  C 571.46 199.35 571.10 199.75 570.62 200.26
  Z"
/>
<path fill="#ececec" d="
  M 437.46 149.20
  Q 438.17 147.73 439.70 147.76
  Q 440.22 147.78 439.81 148.15
  C 437.23 150.50 435.78 154.65 434.17 157.74
  A 1.24 1.02 -80.1 0 1 433.46 158.35
  Q 431.97 158.74 433.23 156.76
  Q 435.56 153.12 437.46 149.20
  Z"
/>
<path fill="#949494" d="
  M 543.28 155.06
  Q 544.21 152.83 546.20 154.19
  C 552.53 158.53 539.18 164.92 543.28 155.06
  Z"
/>
<path fill="#ececec" d="
  M 472.45 162.17
  Q 473.00 160.64 473.65 162.13
  C 474.57 164.27 473.50 166.74 473.39 168.29
  Q 472.18 185.83 472.25 203.41
  C 472.25 203.85 473.77 211.89 470.30 207.64
  A 1.59 1.37 -69.0 0 1 469.98 206.75
  C 469.67 196.65 469.01 185.60 470.26 175.59
  C 470.84 170.97 470.83 166.64 472.45 162.17
  Z"
/>
<path fill="#ff8f00" d="
  M 365.00 162.29
  C 365.68 162.43 370.94 163.82 369.46 165.02
  A 1.42 1.19 -19.8 0 0 368.99 165.82
  L 366.76 181.95
  A 1.14 0.78 -17.9 0 1 366.24 182.63
  Q 365.89 182.85 365.71 183.21
  A 0.41 0.36 14.4 0 0 366.07 183.73
  Q 368.28 183.96 366.00 184.71
  Q 350.72 187.78 335.25 189.71
  Q 335.98 189.13 335.46 188.99
  A 0.43 0.32 16.3 0 1 335.14 188.56
  Q 335.39 187.68 336.32 187.41
  A 0.66 0.59 -9.4 0 0 336.80 186.81
  Q 336.57 178.82 337.09 170.86
  C 337.22 168.93 336.29 167.24 336.90 165.17
  A 0.68 0.62 -66.6 0 0 336.64 164.42
  Q 333.62 162.58 330.00 162.96
  L 365.00 162.29
  Z"
/>
<path fill="#ff8200" d="
  M 365.00 162.29
  C 377.93 162.64 394.36 161.49 408.88 165.04
  Q 410.54 165.44 411.96 166.41
  C 425.58 175.68 368.47 184.36 366.00 184.71
  Q 368.28 183.96 366.07 183.73
  A 0.41 0.36 14.4 0 1 365.71 183.21
  Q 365.89 182.85 366.24 182.63
  A 1.14 0.78 -17.9 0 0 366.76 181.95
  L 368.99 165.82
  A 1.42 1.19 -19.8 0 1 369.46 165.02
  C 370.94 163.82 365.68 162.43 365.00 162.29
  Z"
/>
<path fill="#ff9a00" d="
  M 330.00 162.96
  Q 333.62 162.58 336.64 164.42
  A 0.68 0.62 -66.6 0 1 336.90 165.17
  C 336.29 167.24 337.22 168.93 337.09 170.86
  Q 336.57 178.82 336.80 186.81
  A 0.66 0.59 -9.4 0 1 336.32 187.41
  Q 335.39 187.68 335.14 188.56
  A 0.43 0.32 16.3 0 0 335.46 188.99
  Q 335.98 189.13 335.25 189.71
  L 299.48 194.60
  Q 300.93 193.69 302.71 193.67
  Q 303.08 193.67 302.79 193.42
  Q 302.35 193.01 303.00 192.75
  Q 303.82 191.04 305.16 191.19
  A 1.64 1.64 -86.3 0 0 306.97 189.60
  C 307.08 184.34 308.67 169.52 304.50 166.94
  A 1.20 0.75 -86.9 0 1 304.08 166.18
  C 303.92 165.23 301.40 165.53 300.25 164.29
  L 330.00 162.96
  Z"
/>
<path fill="#ffa300" d="
  M 300.25 164.29
  C 301.40 165.53 303.92 165.23 304.08 166.18
  A 1.20 0.75 -86.9 0 0 304.50 166.94
  C 308.67 169.52 307.08 184.34 306.97 189.60
  A 1.64 1.64 -86.3 0 1 305.16 191.19
  Q 303.82 191.04 303.00 192.75
  Q 302.35 193.01 302.79 193.42
  Q 303.08 193.67 302.71 193.67
  Q 300.93 193.69 299.48 194.60
  L 276.50 197.46
  Q 277.42 196.62 275.89 196.14
  Q 275.12 195.90 275.88 195.62
  C 278.28 194.72 277.27 192.38 277.22 190.63
  Q 276.93 180.50 277.29 169.31
  A 1.12 1.12 -1.6 0 0 276.07 168.16
  Q 273.67 168.36 272.79 167.42
  A 1.01 0.77 60.3 0 0 272.01 167.09
  Q 270.18 167.36 268.75 166.29
  L 300.25 164.29
  Z"
/>
<path fill="#ffae00" d="
  M 268.75 166.29
  Q 270.18 167.36 272.01 167.09
  A 1.01 0.77 60.3 0 1 272.79 167.42
  Q 273.67 168.36 276.07 168.16
  A 1.12 1.12 -1.6 0 1 277.29 169.31
  Q 276.93 180.50 277.22 190.63
  C 277.27 192.38 278.28 194.72 275.88 195.62
  Q 275.12 195.90 275.89 196.14
  Q 277.42 196.62 276.50 197.46
  L 228.75 203.21
  L 230.03 202.68
  Q 230.43 202.52 230.00 202.44
  C 228.22 202.15 229.37 201.29 229.54 200.42
  C 230.25 196.77 231.45 184.03 228.44 180.56
  Q 226.15 177.93 227.26 174.48
  Q 228.24 171.40 225.19 171.23
  L 220.99 171.00
  A 0.81 0.75 78.6 0 1 220.34 170.53
  C 219.47 168.64 217.36 171.72 216.75 169.79
  L 268.75 166.29
  Z"
/>
<path fill="#ffbb00" d="
  M 216.75 169.79
  C 217.36 171.72 219.47 168.64 220.34 170.53
  A 0.81 0.75 78.6 0 0 220.99 171.00
  L 225.19 171.23
  Q 228.24 171.40 227.26 174.48
  Q 226.15 177.93 228.44 180.56
  C 231.45 184.03 230.25 196.77 229.54 200.42
  C 229.37 201.29 228.22 202.15 230.00 202.44
  Q 230.43 202.52 230.03 202.68
  L 228.75 203.21
  L 187.75 208.71
  C 189.63 207.43 182.59 207.60 187.06 207.06
  A 1.53 1.21 -11.2 0 0 188.44 205.44
  Q 187.77 203.40 187.81 201.25
  Q 187.96 191.47 187.99 181.69
  C 188.01 175.60 188.55 173.81 181.61 174.07
  A 3.04 0.51 -2.9 0 1 178.84 173.75
  L 178.25 172.79
  L 216.75 169.79
  Z"
/>
<path fill="#ffc600" d="
  M 178.25 172.79
  L 178.84 173.75
  A 3.04 0.51 -2.9 0 0 181.61 174.07
  C 188.55 173.81 188.01 175.60 187.99 181.69
  Q 187.96 191.47 187.81 201.25
  Q 187.77 203.40 188.44 205.44
  A 1.53 1.21 -11.2 0 1 187.06 207.06
  C 182.59 207.60 189.63 207.43 187.75 208.71
  L 145.00 217.21
  Q 144.08 215.90 142.71 216.58
  C 142.01 216.93 138.78 217.51 141.83 215.53
  A 1.90 1.89 80.7 0 0 142.66 214.37
  C 144.52 206.88 144.12 198.75 142.72 190.96
  C 142.01 187.02 142.58 184.16 142.79 180.22
  A 1.58 1.06 25.1 0 0 142.09 179.06
  L 138.00 176.21
  L 178.25 172.79
  Z"
/>
<path fill="#ffd000" d="
  M 138.00 176.21
  L 142.09 179.06
  A 1.58 1.06 25.1 0 1 142.79 180.22
  C 142.58 184.16 142.01 187.02 142.72 190.96
  C 144.12 198.75 144.52 206.88 142.66 214.37
  A 1.90 1.89 80.7 0 1 141.83 215.53
  C 138.78 217.51 142.01 216.93 142.71 216.58
  Q 144.08 215.90 145.00 217.21
  L 108.04 226.00
  Q 107.10 224.58 109.38 223.43
  A 1.09 1.09 -26.1 0 0 109.88 221.98
  C 109.09 220.35 109.96 218.82 108.46 217.13
  A 1.83 1.82 -46.1 0 1 108.42 214.77
  Q 109.70 213.19 109.60 211.46
  C 109.04 202.27 108.78 192.83 110.05 183.19
  Q 110.37 180.82 108.23 180.96
  L 104.99 181.18
  A 0.56 0.52 80.1 0 1 104.44 180.76
  Q 104.29 180.18 103.75 179.79
  L 110.75 178.96
  L 114.29 178.50
  L 130.50 176.96
  L 133.25 176.46
  L 138.00 176.21
  Z"
/>
<path fill="#ffda00" d="
  M 103.75 179.79
  Q 104.29 180.18 104.44 180.76
  A 0.56 0.52 80.1 0 0 104.99 181.18
  L 108.23 180.96
  Q 110.37 180.82 110.05 183.19
  C 108.78 192.83 109.04 202.27 109.60 211.46
  Q 109.70 213.19 108.42 214.77
  A 1.83 1.82 -46.1 0 0 108.46 217.13
  C 109.96 218.82 109.09 220.35 109.88 221.98
  A 1.09 1.09 -26.1 0 1 109.38 223.43
  Q 107.10 224.58 108.04 226.00
  Q 81.99 232.83 56.55 241.86
  Q 55.42 239.81 54.48 237.77
  Q 53.57 235.80 53.67 233.40
  Q 54.32 217.87 53.71 202.35
  C 53.55 198.47 54.30 193.64 53.75 189.17
  A 0.91 0.89 -81.2 0 0 53.24 188.46
  C 50.24 187.07 48.60 190.67 45.00 187.96
  L 63.25 184.96
  L 65.79 184.50
  L 103.75 179.79
  Z"
/>
<path fill="#ffe500" d="
  M 45.00 187.96
  C 48.60 190.67 50.24 187.07 53.24 188.46
  A 0.91 0.89 -81.2 0 1 53.75 189.17
  C 54.30 193.64 53.55 198.47 53.71 202.35
  Q 54.32 217.87 53.67 233.40
  Q 53.57 235.80 54.48 237.77
  Q 55.42 239.81 56.55 241.86
  C 46.53 245.41 32.55 250.90 24.84 258.34
  C 20.41 262.61 14.88 268.94 10.31 262.94
  C 1.90 251.88 -0.16 231.93 0.40 217.85
  C 0.79 208.12 0.98 200.17 10.60 196.47
  C 21.36 192.34 34.71 189.68 45.00 187.96
  Z"
/>
<path fill="#f6db3d" d="
  M 432.92 202.81
  C 435.39 207.46 439.17 212.79 441.26 216.16
  Q 447.44 226.13 453.79 236.00
  Q 454.69 240.06 456.65 243.69
  C 458.18 246.52 456.24 249.07 455.78 251.78
  C 454.09 261.68 443.67 265.14 434.90 262.49
  C 430.14 261.05 425.33 259.25 420.36 258.70
  Q 412.81 257.85 405.55 255.49
  Q 402.71 254.57 399.75 254.29
  Q 399.27 254.25 398.84 253.97
  Q 396.02 252.14 392.55 252.44
  Q 390.43 252.62 390.67 250.51
  Q 390.82 249.21 389.23 247.93
  A 0.60 0.43 -73.9 0 1 389.07 247.47
  L 389.08 247.16
  Q 389.11 246.58 388.79 247.11
  Q 387.95 248.51 388.13 246.95
  Q 388.17 246.59 387.85 246.77
  Q 387.01 247.24 387.56 246.06
  C 390.18 240.53 387.64 234.93 387.51 228.99
  A 1.88 1.62 32.0 0 0 387.23 228.09
  Q 385.20 224.80 387.17 221.85
  Q 387.26 221.70 387.98 220.92
  L 392.00 216.54
  L 394.19 216.27
  Q 396.97 218.62 400.28 217.65
  Q 400.71 217.53 401.23 217.63
  C 406.28 218.65 411.70 212.67 413.15 208.78
  Q 413.29 208.38 413.71 208.00
  C 415.72 206.13 414.45 201.42 413.79 199.75
  L 414.04 199.00
  C 416.46 195.28 420.36 193.53 424.51 195.97
  Q 429.19 198.72 432.92 202.81
  Z"
/>
<path fill="#b3b3b3" d="
  M 561.75 195.54
  Q 567.12 195.99 570.62 200.26
  L 568.58 202.02
  A 0.49 0.49 57.7 0 1 567.81 201.84
  Q 565.89 197.44 561.75 195.54
  Z"
/>
<path fill="#e8c738" d="
  M 413.79 199.75
  C 414.45 201.42 415.72 206.13 413.71 208.00
  Q 413.29 208.38 413.15 208.78
  C 411.70 212.67 406.28 218.65 401.23 217.63
  Q 400.71 217.53 400.28 217.65
  Q 396.97 218.62 394.19 216.27
  C 404.82 214.86 408.32 208.72 413.79 199.75
  Z"
/>
<path fill="#f2d530" d="
  M 539.18 200.04
  Q 540.07 200.67 541.50 200.96
  Q 541.82 201.25 542.25 201.29
  Q 540.48 205.22 541.29 209.50
  Q 541.51 210.64 540.43 210.76
  A 0.64 0.61 14.1 0 0 539.99 211.01
  Q 538.53 213.03 538.70 215.51
  A 1.68 1.67 -32.3 0 1 538.49 216.43
  Q 536.70 219.51 538.04 222.78
  A 1.12 1.05 -44.4 0 1 538.00 223.69
  Q 536.89 225.88 539.00 227.72
  A 2.42 1.60 57.7 0 0 540.29 228.30
  L 544.44 228.50
  A 1.27 0.58 -54.0 0 0 545.26 228.04
  Q 546.04 227.23 547.18 227.17
  A 1.01 0.98 16.2 0 0 547.95 226.76
  Q 548.87 225.48 550.51 225.67
  Q 551.06 225.73 551.46 225.56
  C 553.25 224.82 554.92 223.98 556.86 223.23
  C 558.59 222.56 560.08 221.09 561.43 220.22
  Q 564.52 218.25 565.87 214.40
  Q 566.11 213.74 565.47 214.05
  C 564.64 214.45 560.45 217.95 560.50 215.79
  L 564.71 212.75
  Q 566.11 214.07 567.27 212.04
  Q 568.15 210.51 568.81 212.14
  C 569.90 214.83 567.62 215.59 566.40 216.98
  Q 561.91 222.11 556.12 225.67
  C 553.23 227.45 549.96 227.95 546.67 229.03
  A 1.03 0.88 -87.5 0 0 546.06 229.68
  C 545.70 230.84 543.31 232.50 544.25 233.09
  A 1.45 0.91 18.3 0 1 544.84 233.80
  C 545.65 236.66 543.52 237.30 542.66 238.95
  Q 540.77 242.62 541.16 246.72
  C 541.32 248.44 542.78 249.39 543.08 251.65
  Q 543.53 255.01 546.50 256.81
  A 1.23 0.97 -85.1 0 1 546.99 257.56
  C 547.72 261.16 555.24 256.71 557.54 257.54
  A 1.63 1.03 36.4 0 0 558.49 257.61
  L 566.04 255.17
  Q 566.32 255.08 566.97 255.17
  L 569.93 255.59
  Q 570.35 255.65 570.11 255.92
  L 569.48 256.61
  A 0.91 0.83 21.9 0 1 568.75 256.88
  Q 567.53 256.78 569.00 257.79
  Q 563.31 260.94 556.97 261.80
  Q 556.83 261.82 551.70 262.67
  Q 544.89 263.80 539.10 259.85
  A 1.84 1.30 -19.4 0 0 538.19 259.59
  Q 536.70 259.55 536.66 258.05
  A 1.31 1.13 -70.8 0 0 536.33 257.21
  C 532.46 253.27 532.62 248.87 533.06 243.44
  Q 533.32 240.36 534.35 237.46
  C 536.21 232.18 534.64 226.55 531.98 221.85
  Q 531.85 221.63 531.85 221.90
  Q 531.84 222.11 531.76 222.24
  Q 531.32 222.90 531.32 221.95
  C 531.31 218.42 530.54 222.41 530.28 222.83
  A 1.49 1.34 -35.1 0 0 530.07 223.75
  Q 530.48 227.21 528.25 229.79
  Q 527.91 229.62 527.96 229.25
  C 528.76 227.53 528.25 225.70 528.30 224.32
  Q 528.64 216.28 528.04 208.25
  Q 526.82 200.20 535.00 200.50
  Q 537.57 200.60 539.18 200.04
  Z"
/>
<path fill="#f6db3d" d="
  M 575.21 203.25
  Q 579.34 204.77 578.75 209.75
  C 577.51 220.12 588.79 229.26 596.94 234.06
  C 608.91 241.12 577.72 254.44 574.54 256.25
  C 572.64 255.18 570.66 256.96 569.00 257.79
  Q 567.53 256.78 568.75 256.88
  A 0.91 0.83 21.9 0 0 569.48 256.61
  L 570.11 255.92
  Q 570.35 255.65 569.93 255.59
  L 566.97 255.17
  Q 566.32 255.08 566.04 255.17
  L 558.49 257.61
  A 1.63 1.03 36.4 0 1 557.54 257.54
  C 555.24 256.71 547.72 261.16 546.99 257.56
  A 1.23 0.97 -85.1 0 0 546.50 256.81
  Q 543.53 255.01 543.08 251.65
  C 542.78 249.39 541.32 248.44 541.16 246.72
  Q 540.77 242.62 542.66 238.95
  C 543.52 237.30 545.65 236.66 544.84 233.80
  A 1.45 0.91 18.3 0 0 544.25 233.09
  C 543.31 232.50 545.70 230.84 546.06 229.68
  A 1.03 0.88 -87.5 0 1 546.67 229.03
  C 549.96 227.95 553.23 227.45 556.12 225.67
  Q 561.91 222.11 566.40 216.98
  C 567.62 215.59 569.90 214.83 568.81 212.14
  Q 568.15 210.51 567.27 212.04
  Q 566.11 214.07 564.71 212.75
  Q 568.18 209.87 570.68 206.14
  C 571.94 204.25 571.94 201.87 575.21 203.25
  Z"
/>
<path fill="#e0e0e0" d="
  M 528.04 208.25
  Q 528.64 216.28 528.30 224.32
  C 528.25 225.70 528.76 227.53 527.96 229.25
  L 527.04 230.00
  Q 526.87 228.23 525.16 230.90
  A 2.62 2.56 -80.0 0 1 523.57 232.04
  Q 522.25 232.37 522.25 228.63
  Q 522.25 227.93 522.13 227.23
  Q 521.25 222.28 521.17 218.00
  C 521.03 210.92 528.48 214.06 528.04 208.25
  Z"
/>
<path fill="#e5c41d" d="
  M 541.29 209.50
  C 544.75 217.11 553.37 218.37 560.50 215.79
  C 560.45 217.95 564.64 214.45 565.47 214.05
  Q 566.11 213.74 565.87 214.40
  Q 564.52 218.25 561.43 220.22
  C 560.08 221.09 558.59 222.56 556.86 223.23
  C 554.92 223.98 553.25 224.82 551.46 225.56
  Q 551.06 225.73 550.51 225.67
  Q 548.87 225.48 547.95 226.76
  A 1.01 0.98 16.2 0 1 547.18 227.17
  Q 546.04 227.23 545.26 228.04
  A 1.27 0.58 -54.0 0 1 544.44 228.50
  L 540.29 228.30
  A 2.42 1.60 57.7 0 1 539.00 227.72
  Q 536.89 225.88 538.00 223.69
  A 1.12 1.05 -44.4 0 0 538.04 222.78
  Q 536.70 219.51 538.49 216.43
  A 1.68 1.67 -32.3 0 0 538.70 215.51
  Q 538.53 213.03 539.99 211.01
  A 0.64 0.61 14.1 0 1 540.43 210.76
  Q 541.51 210.64 541.29 209.50
  Z"
/>
<path fill="#e8c738" d="
  M 392.00 216.54
  L 387.98 220.92
  Q 387.26 221.70 387.17 221.85
  Q 385.20 224.80 387.23 228.09
  A 1.88 1.62 32.0 0 1 387.51 228.99
  C 387.64 234.93 390.18 240.53 387.56 246.06
  Q 387.01 247.24 387.85 246.77
  Q 388.17 246.59 388.13 246.95
  Q 387.95 248.51 388.79 247.11
  Q 389.11 246.58 389.08 247.16
  L 389.07 247.47
  A 0.60 0.43 -73.9 0 0 389.23 247.93
  Q 390.82 249.21 390.67 250.51
  Q 390.43 252.62 392.55 252.44
  Q 396.02 252.14 398.84 253.97
  Q 399.27 254.25 399.75 254.29
  Q 402.71 254.57 405.55 255.49
  Q 412.81 257.85 420.36 258.70
  C 425.33 259.25 430.14 261.05 434.90 262.49
  C 443.67 265.14 454.09 261.68 455.78 251.78
  C 456.24 249.07 458.18 246.52 456.65 243.69
  Q 454.69 240.06 453.79 236.00
  L 460.50 246.46
  Q 458.94 249.27 461.54 251.50
  Q 460.32 259.24 454.60 263.35
  Q 450.60 266.23 446.86 267.53
  C 440.75 269.64 435.98 266.50 429.83 265.92
  C 425.58 265.51 421.91 263.55 417.46 263.29
  C 416.35 263.22 414.95 263.82 413.62 263.09
  Q 413.11 262.81 412.69 262.78
  Q 404.19 262.15 399.75 260.50
  Q 396.56 259.31 394.24 259.25
  Q 393.77 259.24 393.33 258.97
  Q 391.00 257.58 389.21 259.75
  C 383.53 258.98 382.80 255.50 383.93 250.39
  C 385.98 241.16 384.89 233.83 384.25 225.25
  C 383.85 219.86 387.35 217.28 392.00 216.54
  Z"
/>
<path fill="#e2c12b" d="
  M 569.00 257.79
  C 570.66 256.96 572.64 255.18 574.54 256.25
  L 566.25 262.29
  Q 563.97 261.85 562.09 263.26
  Q 553.49 270.58 542.63 269.78
  C 538.48 269.47 535.57 266.80 532.63 264.12
  C 527.74 259.66 528.36 250.55 528.80 244.16
  Q 529.04 240.74 527.54 237.50
  L 528.25 229.79
  Q 530.48 227.21 530.07 223.75
  A 1.49 1.34 -35.1 0 1 530.28 222.83
  C 530.54 222.41 531.31 218.42 531.32 221.95
  Q 531.32 222.90 531.76 222.24
  Q 531.84 222.11 531.85 221.90
  Q 531.85 221.63 531.98 221.85
  C 534.64 226.55 536.21 232.18 534.35 237.46
  Q 533.32 240.36 533.06 243.44
  C 532.62 248.87 532.46 253.27 536.33 257.21
  A 1.31 1.13 -70.8 0 1 536.66 258.05
  Q 536.70 259.55 538.19 259.59
  A 1.84 1.30 -19.4 0 1 539.10 259.85
  Q 544.89 263.80 551.70 262.67
  Q 556.83 261.82 556.97 261.80
  Q 563.31 260.94 569.00 257.79
  Z"
/>
<path fill="#000000" d="
  M 527.96 229.25
  Q 527.91 229.62 528.25 229.79
  L 527.54 237.50
  L 524.77 257.29
  L 524.74 266.30
  Q 513.21 264.32 501.52 264.50
  Q 501.20 264.50 488.97 264.53
  Q 475.25 264.56 462.18 269.11
  Q 470.10 259.07 462.44 249.06
  Q 461.57 247.94 461.50 247.04
  C 469.39 252.50 477.17 251.28 485.75 251.15
  C 502.19 250.90 516.39 241.91 527.04 230.00
  L 527.96 229.25
  Z"
/>
<path fill="#c5a220" d="
  M 527.54 237.50
  Q 529.04 240.74 528.80 244.16
  C 528.36 250.55 527.74 259.66 532.63 264.12
  C 535.57 266.80 538.48 269.47 542.63 269.78
  Q 553.49 270.58 562.09 263.26
  Q 558.59 268.34 553.46 271.32
  Q 549.03 273.90 548.79 274.01
  C 543.95 276.26 536.79 273.53 532.56 270.95
  Q 528.25 268.31 527.49 263.25
  Q 527.00 259.98 524.77 257.29
  L 527.54 237.50
  Z"
/>
<path fill="#a98a19" d="
  M 460.50 246.46
  L 461.50 247.04
  Q 461.57 247.94 462.44 249.06
  Q 470.10 259.07 462.18 269.11
  Q 455.16 277.14 445.32 276.20
  Q 442.30 275.92 436.40 273.34
  Q 424.97 268.35 412.71 265.75
  Q 414.23 264.42 415.68 264.48
  Q 416.37 264.50 417.02 264.69
  Q 425.09 267.00 431.13 269.15
  C 432.31 269.57 433.40 269.42 434.71 270.59
  A 1.79 1.44 65.2 0 0 435.56 271.01
  Q 439.81 271.58 444.06 272.21
  C 447.45 272.71 449.13 271.15 451.71 269.98
  Q 460.75 265.87 462.69 256.19
  Q 463.14 253.92 461.54 251.50
  Q 458.94 249.27 460.50 246.46
  Z"
/>
<path fill="#ceac2c" d="
  M 461.54 251.50
  Q 463.14 253.92 462.69 256.19
  Q 460.75 265.87 451.71 269.98
  C 449.13 271.15 447.45 272.71 444.06 272.21
  Q 439.81 271.58 435.56 271.01
  A 1.79 1.44 65.2 0 1 434.71 270.59
  C 433.40 269.42 432.31 269.57 431.13 269.15
  Q 425.09 267.00 417.02 264.69
  Q 416.37 264.50 415.68 264.48
  Q 414.23 264.42 412.71 265.75
  L 389.21 259.75
  Q 391.00 257.58 393.33 258.97
  Q 393.77 259.24 394.24 259.25
  Q 396.56 259.31 399.75 260.50
  Q 404.19 262.15 412.69 262.78
  Q 413.11 262.81 413.62 263.09
  C 414.95 263.82 416.35 263.22 417.46 263.29
  C 421.91 263.55 425.58 265.51 429.83 265.92
  C 435.98 266.50 440.75 269.64 446.86 267.53
  Q 450.60 266.23 454.60 263.35
  Q 460.32 259.24 461.54 251.50
  Z"
/>
<path fill="#987d17" d="
  M 524.77 257.29
  Q 527.00 259.98 527.49 263.25
  Q 528.25 268.31 532.56 270.95
  C 536.79 273.53 543.95 276.26 548.79 274.01
  Q 549.03 273.90 553.46 271.32
  Q 558.59 268.34 562.09 263.26
  Q 563.97 261.85 566.25 262.29
  C 558.24 270.05 549.93 278.94 538.29 276.81
  C 531.48 275.57 526.54 274.02 524.74 266.30
  L 524.77 257.29
  Z"
/>
</svg>
