<?xml version="1.0" encoding="UTF-8" standalone="no"?>
<!DOCTYPE svg PUBLIC "-//W3C//DTD SVG 1.1//EN" "http://www.w3.org/Graphics/SVG/1.1/DTD/svg11.dtd">
<svg xmlns="http://www.w3.org/2000/svg" version="1.1" viewBox="0 0 600 300">
<g stroke-width="2.00" fill="none" stroke-linecap="butt">
<path stroke="#1a1b1c" stroke-opacity="0.996" vector-effect="non-scaling-stroke" d="
  M 137.89 112.74
  Q 136.93 120.73 137.79 128.79"
/>
<path stroke="#1a1b1c" stroke-opacity="0.996" vector-effect="non-scaling-stroke" d="
  M 140.75 128.71
  Q 142.23 128.16 142.00 126.71"
/>
<path stroke="#1a1b1c" stroke-opacity="0.996" vector-effect="non-scaling-stroke" d="
  M 145.29 120.50
  Q 148.29 117.28 149.29 113.00"
/>
<path stroke="#1a1b1c" stroke-opacity="0.996" vector-effect="non-scaling-stroke" d="
  M 149.96 111.75
  C 150.83 112.68 154.14 104.70 154.46 103.75"
/>
<path stroke="#292a28" vector-effect="non-scaling-stroke" d="
  M 155.04 102.50
  Q 158.08 99.72 159.00 95.71"
/>
<path stroke="#1a1b1c" stroke-opacity="0.996" vector-effect="non-scaling-stroke" d="
  M 160.00 93.96
  Q 161.90 92.77 161.96 90.50"
/>
<path stroke="#1a1b1c" stroke-opacity="0.996" vector-effect="non-scaling-stroke" d="
  M 172.00 72.96
  Q 174.84 69.83 175.96 65.75"
/>
<path stroke="#1a1b1c" stroke-opacity="0.996" vector-effect="non-scaling-stroke" d="
  M 227.29 57.75
  Q 227.24 59.45 228.75 59.96"
/>
<path stroke="#292a28" vector-effect="non-scaling-stroke" d="
  M 230.25 65.71
  Q 229.65 67.10 230.21 68.50"
/>
<path stroke="#3e433c" stroke-opacity="0.984" vector-effect="non-scaling-stroke" d="
  M 230.21 68.50
  L 230.25 205.79"
/>
<path stroke="#292a28" vector-effect="non-scaling-stroke" d="
  M 189.12 205.97
  Q 188.30 158.36 188.75 134.25
  Q 188.78 132.54 188.04 132.25"
/>
<path stroke="#1a1b1c" stroke-opacity="0.996" vector-effect="non-scaling-stroke" d="
  M 184.96 132.75
  Q 182.49 134.96 182.04 138.25"
/>
<path stroke="#1a1b1c" stroke-opacity="0.996" vector-effect="non-scaling-stroke" d="
  M 179.00 143.79
  Q 176.99 144.96 177.00 147.29"
/>
<path stroke="#1a1b1c" stroke-opacity="0.996" vector-effect="non-scaling-stroke" d="
  M 174.96 151.00
  Q 172.09 153.34 171.54 157.00"
/>
<path stroke="#1a1b1c" stroke-opacity="0.996" vector-effect="non-scaling-stroke" d="
  M 157.96 181.00
  Q 155.89 181.95 156.04 184.25"
/>
<path stroke="#1a1b1c" stroke-opacity="0.996" vector-effect="non-scaling-stroke" d="
  M 154.25 187.54
  Q 151.97 188.87 151.96 191.50"
/>
<path stroke="#545a56" vector-effect="non-scaling-stroke" d="
  M 95.66 182.76
  Q 96.36 158.75 95.74 134.74"
/>
<path stroke="#373936" vector-effect="non-scaling-stroke" d="
  M 95.96 130.00
  C 96.15 128.27 94.03 129.88 94.25 131.04"
/>
<path stroke="#1a1b1c" stroke-opacity="0.996" vector-effect="non-scaling-stroke" d="
  M 91.79 135.25
  Q 89.91 136.16 90.00 138.29"
/>
<path stroke="#1a1b1c" stroke-opacity="0.996" vector-effect="non-scaling-stroke" d="
  M 86.00 145.04
  Q 83.87 145.99 84.00 148.29"
/>
<path stroke="#1a1b1c" stroke-opacity="0.996" vector-effect="non-scaling-stroke" d="
  M 70.96 170.00
  Q 68.90 171.03 69.00 173.29"
/>
<path stroke="#292a28" vector-effect="non-scaling-stroke" d="
  M 48.85 205.72
  Q 25.50 204.79 2.32 205.18
  A 0.32 0.31 -80.2 0 1 2.03 204.75
  L 3.50 200.71"
/>
<path stroke="#1a1b1c" stroke-opacity="0.996" vector-effect="non-scaling-stroke" d="
  M 7.04 195.00
  Q 8.84 193.82 9.00 191.71"
/>
<path stroke="#1a1b1c" stroke-opacity="0.996" vector-effect="non-scaling-stroke" d="
  M 10.04 190.00
  Q 11.84 188.82 12.00 186.71"
/>
<path stroke="#1a1b1c" stroke-opacity="0.996" vector-effect="non-scaling-stroke" d="
  M 17.04 178.00
  Q 19.00 176.97 19.00 174.71"
/>
<path stroke="#1a1b1c" stroke-opacity="0.996" vector-effect="non-scaling-stroke" d="
  M 33.04 151.00
  Q 34.84 149.82 35.00 147.71"
/>
<path stroke="#1a1b1c" stroke-opacity="0.996" vector-effect="non-scaling-stroke" d="
  M 42.00 135.96
  Q 44.43 133.86 45.00 130.71"
/>
<path stroke="#1a1b1c" stroke-opacity="0.996" vector-effect="non-scaling-stroke" d="
  M 59.04 107.00
  Q 60.93 105.88 61.00 103.71"
/>
<path stroke="#1a1b1c" stroke-opacity="0.996" vector-effect="non-scaling-stroke" d="
  M 68.00 91.96
  Q 70.50 89.90 71.00 86.71"
/>
<path stroke="#1a1b1c" stroke-opacity="0.996" vector-effect="non-scaling-stroke" d="
  M 91.21 56.25
  Q 93.02 56.73 93.50 54.96"
/>
<path stroke="#686e65" stroke-opacity="0.984" vector-effect="non-scaling-stroke" d="
  M 230.71 67.75
  Q 230.05 67.79 230.21 68.50"
/>
<path stroke="#292a28" vector-effect="non-scaling-stroke" d="
  M 280.21 58.75
  Q 280.83 64.87 284.21 70.00"
/>
<path stroke="#1a1b1c" stroke-opacity="0.996" vector-effect="non-scaling-stroke" d="
  M 285.46 74.00
  Q 285.08 76.59 287.00 78.21"
/>
<path stroke="#1a1b1c" stroke-opacity="0.996" vector-effect="non-scaling-stroke" d="
  M 300.28 115.94
  Q 301.14 121.56 303.95 126.57"
/>
<path stroke="#1a1b1c" stroke-opacity="0.996" vector-effect="non-scaling-stroke" d="
  M 306.31 133.01
  Q 306.41 136.38 308.70 140.15
  A 1.54 1.54 -30.1 0 0 310.78 140.70
  Q 312.61 139.66 312.29 137.00"
/>
<path stroke="#1a1b1c" stroke-opacity="0.996" vector-effect="non-scaling-stroke" d="
  M 312.75 135.96
  Q 314.31 133.85 314.21 131.25"
/>
<path stroke="#292a28" vector-effect="non-scaling-stroke" d="
  M 321.04 112.00
  Q 323.65 108.11 324.54 103.50"
/>
<path stroke="#1a1b1c" stroke-opacity="0.996" vector-effect="non-scaling-stroke" d="
  M 324.54 103.50
  Q 326.20 100.84 326.46 97.75"
/>
<path stroke="#292a28" vector-effect="non-scaling-stroke" d="
  M 327.04 96.50
  Q 330.13 91.09 331.46 85.00"
/>
<path stroke="#1a1b1c" stroke-opacity="0.996" vector-effect="non-scaling-stroke" d="
  M 333.00 81.21
  Q 335.26 78.54 335.46 75.00"
/>
<path stroke="#1a1b1c" stroke-opacity="0.996" vector-effect="non-scaling-stroke" d="
  M 335.75 74.21
  Q 335.86 74.26 335.97 74.25
  A 0.42 0.32 -77.3 0 0 336.28 73.99
  L 341.21 61.00"
/>
<path stroke="#1a1b1c" stroke-opacity="0.996" vector-effect="non-scaling-stroke" d="
  M 387.97 56.58
  L 378.06 83.17"
/>
<path stroke="#1a1b1c" stroke-opacity="0.996" vector-effect="non-scaling-stroke" d="
  M 376.96 86.75
  Q 374.69 89.48 374.54 93.00"
/>
<path stroke="#1a1b1c" stroke-opacity="0.996" vector-effect="non-scaling-stroke" d="
  M 371.00 102.29
  Q 368.36 105.83 368.04 110.25"
/>
<path stroke="#1a1b1c" stroke-opacity="0.996" vector-effect="non-scaling-stroke" d="
  M 367.96 110.50
  Q 364.77 115.74 363.54 121.75"
/>
<path stroke="#1a1b1c" stroke-opacity="0.996" vector-effect="non-scaling-stroke" d="
  M 355.00 144.29
  Q 353.03 146.26 353.25 149.04"
/>
<path stroke="#1a1b1c" stroke-opacity="0.996" vector-effect="non-scaling-stroke" d="
  M 349.96 157.75
  Q 347.86 159.66 348.21 162.50"
/>
<path stroke="#1a1b1c" stroke-opacity="0.996" vector-effect="non-scaling-stroke" d="
  M 338.96 186.75
  Q 336.89 188.47 337.46 191.00"
/>
<path stroke="#1a1b1c" stroke-opacity="0.996" vector-effect="non-scaling-stroke" d="
  M 272.04 161.25
  Q 272.75 159.42 271.04 158.25"
/>
<path stroke="#1a1b1c" stroke-opacity="0.996" vector-effect="non-scaling-stroke" d="
  M 267.96 149.75
  Q 267.58 145.34 265.04 141.75"
/>
<path stroke="#000000" vector-effect="non-scaling-stroke" d="
  M 262.71 135.00
  Q 262.66 132.12 260.79 130.00"
/>
<path stroke="#000000" vector-effect="non-scaling-stroke" d="
  M 252.04 106.25
  Q 252.25 103.95 251.00 101.96"
/>
<path stroke="#1a1b1c" stroke-opacity="0.996" vector-effect="non-scaling-stroke" d="
  M 251.00 101.96
  Q 250.48 99.52 249.00 97.54"
/>
<path stroke="#000000" vector-effect="non-scaling-stroke" d="
  M 248.21 95.25
  Q 248.50 93.55 247.25 92.46"
/>
<path stroke="#1a1b1c" stroke-opacity="0.996" vector-effect="non-scaling-stroke" d="
  M 247.25 92.46
  Q 247.10 90.20 246.00 88.21"
/>
<path stroke="#000000" vector-effect="non-scaling-stroke" d="
  M 246.00 88.21
  Q 245.94 86.82 244.79 86.25"
/>
<path stroke="#1a1b1c" stroke-opacity="0.996" vector-effect="non-scaling-stroke" d="
  M 242.21 79.00
  Q 241.21 72.98 238.00 67.79"
/>
<path stroke="#292a28" vector-effect="non-scaling-stroke" d="
  M 236.79 63.96
  Q 235.59 59.39 235.91 54.68"
/>
<path stroke="#434644" stroke-opacity="0.992" vector-effect="non-scaling-stroke" d="
  M 324.54 103.50
  L 324.46 103.00"
/>
<path stroke="#1a1b1c" stroke-opacity="0.996" vector-effect="non-scaling-stroke" d="
  M 247.25 92.46
  L 247.04 92.50"
/>
<path stroke="#1a1b1c" stroke-opacity="0.996" vector-effect="non-scaling-stroke" d="
  M 246.00 88.21
  L 245.54 88.25"
/>
<path stroke="#1a1b1c" stroke-opacity="0.996" vector-effect="non-scaling-stroke" d="
  M 251.00 101.96
  Q 250.77 102.02 250.71 102.25"
/>
<path stroke="#1a1b1c" stroke-opacity="0.996" vector-effect="non-scaling-stroke" d="
  M 542.01 95.61
  Q 523.10 94.75 504.20 95.55"
/>
<path stroke="#1a1b1c" stroke-opacity="0.996" vector-effect="non-scaling-stroke" d="
  M 499.00 92.29
  Q 498.90 90.28 496.96 90.50"
/>
<path stroke="#292a28" vector-effect="non-scaling-stroke" d="
  M 431.95 108.00
  Q 432.96 108.75 435.75 108.75
  Q 482.50 108.75 529.25 108.94
  Q 535.12 108.96 541.08 108.72"
/>
<path stroke="#1a1b1c" stroke-opacity="0.996" vector-effect="non-scaling-stroke" d="
  M 563.29 121.00
  L 568.00 127.21"
/>
<path stroke="#1a1b1c" stroke-opacity="0.996" vector-effect="non-scaling-stroke" d="
  M 594.96 191.00
  Q 593.14 192.11 593.04 194.25"
/>
<path stroke="#1a1b1c" stroke-opacity="0.996" vector-effect="non-scaling-stroke" d="
  M 418.07 202.07
  L 413.29 199.58
  Q 413.23 199.55 412.47 199.08
  Q 412.08 198.83 411.75 199.46"
/>
<path stroke="#1a1b1c" stroke-opacity="0.996" vector-effect="non-scaling-stroke" d="
  M 410.96 199.00
  Q 409.52 196.90 407.00 196.71"
/>
<path stroke="#1a1b1c" stroke-opacity="0.996" vector-effect="non-scaling-stroke" d="
  M 401.46 192.50
  Q 399.14 189.25 396.00 186.79"
/>
<path stroke="#1a1b1c" stroke-opacity="0.996" vector-effect="non-scaling-stroke" d="
  M 393.46 183.00
  Q 392.42 179.50 390.00 176.79"
/>
<path stroke="#1a1b1c" stroke-opacity="0.996" vector-effect="non-scaling-stroke" d="
  M 386.21 168.21
  C 385.58 165.42 383.09 160.16 386.25 158.29"
/>
<path stroke="#292a28" vector-effect="non-scaling-stroke" d="
  M 411.25 158.04
  Q 416.96 158.92 422.75 158.79"
/>
<path stroke="#1a1b1c" stroke-opacity="0.996" vector-effect="non-scaling-stroke" d="
  M 422.75 158.79
  C 428.03 158.76 426.29 166.93 435.01 165.65"
/>
<path stroke="#000000" vector-effect="non-scaling-stroke" d="
  M 541.95 161.98
  Q 541.93 158.94 539.79 156.75"
/>
<path stroke="#373936" vector-effect="non-scaling-stroke" d="
  M 537.96 153.25
  C 536.32 147.25 533.45 145.28 527.25 145.26
  Q 478.00 145.09 428.75 145.46"
/>
<path stroke="#1a1b1c" stroke-opacity="0.996" vector-effect="non-scaling-stroke" d="
  M 414.31 145.04
  L 401.77 141.15"
/>
<path stroke="#1a1b1c" stroke-opacity="0.996" vector-effect="non-scaling-stroke" d="
  M 398.10 138.88
  L 391.25 132.29"
/>
<path stroke="#1a1b1c" stroke-opacity="0.996" vector-effect="non-scaling-stroke" d="
  M 386.54 125.00
  Q 387.27 123.67 385.79 122.75"
/>
<path stroke="#292a28" vector-effect="non-scaling-stroke" d="
  M 389.91 69.58
  Q 393.37 64.84 397.59 60.81"
/>
<path stroke="#434644" stroke-opacity="0.992" vector-effect="non-scaling-stroke" d="
  M 424.25 158.54
  Q 423.55 158.88 422.75 158.79"
/>
<path stroke="#1a1b1c" stroke-opacity="0.996" vector-effect="non-scaling-stroke" d="
  M 218.00 242.96
  Q 217.67 241.31 216.04 241.00"
/>
<path stroke="#1a1b1c" stroke-opacity="0.996" vector-effect="non-scaling-stroke" d="
  M 214.07 227.03
  Q 214.53 229.75 216.67 231.57"
/>
<path stroke="#1a1b1c" stroke-opacity="0.996" vector-effect="non-scaling-stroke" d="
  M 219.25 235.96
  Q 219.10 238.76 220.96 237.00"
/>
<path stroke="#292a28" vector-effect="non-scaling-stroke" d="
  M 97.35 217.90
  Q 96.86 226.60 97.71 235.27"
/>
<path stroke="#1a1b1c" stroke-opacity="0.996" vector-effect="non-scaling-stroke" d="
  M 100.22 238.19
  Q 107.24 239.58 114.28 238.17"
/>
<path stroke="#3e433c" stroke-opacity="0.984" vector-effect="non-scaling-stroke" d="
  M 123.64 218.91
  C 122.59 221.91 123.04 227.79 123.37 231.02"
/>
<path stroke="#1a1b1c" stroke-opacity="0.996" vector-effect="non-scaling-stroke" d="
  M 114.27 242.76
  Q 105.69 241.25 96.97 242.40"
/>
<path stroke="#292a28" vector-effect="non-scaling-stroke" d="
  M 92.58 236.80
  Q 93.12 228.00 92.50 219.21"
/>
<path stroke="#3e433c" stroke-opacity="0.984" vector-effect="non-scaling-stroke" d="
  M 279.50 224.21
  L 279.35 236.53"
/>
<path stroke="#373936" vector-effect="non-scaling-stroke" d="
  M 274.02 235.56
  Q 275.97 230.45 274.20 225.19"
/>
<path stroke="#3e433c" stroke-opacity="0.984" vector-effect="non-scaling-stroke" d="
  M 273.03 222.74
  C 270.94 222.50 255.06 221.43 254.50 222.96"
/>
<path stroke="#292a28" vector-effect="non-scaling-stroke" d="
  M 253.96 225.25
  Q 253.53 225.17 253.51 225.50
  Q 252.96 233.74 253.49 242.08"
/>
<path stroke="#373936" vector-effect="non-scaling-stroke" d="
  M 88.46 224.00
  Q 87.91 233.02 88.50 242.04"
/>
<path stroke="#373936" vector-effect="non-scaling-stroke" d="
  M 82.00 222.80
  C 81.47 222.69 70.28 221.26 70.29 223.00"
/>
<path stroke="#1a1b1c" stroke-opacity="0.996" vector-effect="non-scaling-stroke" d="
  M 69.96 223.75
  Q 68.09 224.49 69.46 226.00"
/>
<path stroke="#373936" vector-effect="non-scaling-stroke" d="
  M 63.58 223.28
  Q 57.01 220.76 50.27 223.30"
/>
<path stroke="#1a1b1c" stroke-opacity="0.996" vector-effect="non-scaling-stroke" d="
  M 128.17 218.02
  L 127.65 238.57"
/>
<path stroke="#373936" vector-effect="non-scaling-stroke" d="
  M 132.53 218.43
  Q 131.56 227.64 132.90 236.82"
/>
<path stroke="#373936" vector-effect="non-scaling-stroke" d="
  M 181.04 222.22
  Q 174.96 221.66 169.76 222.18
  A 1.64 1.57 -3.1 0 0 168.27 223.77
  L 168.53 242.05"
/>
<path stroke="#292a28" vector-effect="non-scaling-stroke" d="
  M 164.25 242.71
  Q 163.44 233.88 163.79 223.90
  Q 163.85 222.00 161.96 222.00
  C 158.90 222.00 151.59 223.09 150.16 220.15"
/>
<path stroke="#373936" vector-effect="non-scaling-stroke" d="
  M 313.02 222.47
  Q 301.31 221.18 289.74 222.84"
/>
<path stroke="#292a28" vector-effect="non-scaling-stroke" d="
  M 310.01 232.45
  Q 299.11 231.75 288.26 232.68"
/>
<path stroke="#1a1b1c" stroke-opacity="0.996" vector-effect="non-scaling-stroke" d="
  M 288.79 236.75
  C 288.81 239.31 306.12 238.70 310.06 238.56
  Q 314.16 238.42 312.91 242.58"
/>
<path stroke="#3e433c" stroke-opacity="0.984" vector-effect="non-scaling-stroke" d="
  M 348.51 223.73
  Q 347.85 230.37 348.41 237.02"
/>
<path stroke="#1a1b1c" stroke-opacity="0.996" vector-effect="non-scaling-stroke" d="
  M 336.32 242.64
  Q 328.55 241.31 320.75 242.29"
/>
<path stroke="#373936" vector-effect="non-scaling-stroke" d="
  M 392.30 222.53
  C 390.23 222.37 369.79 221.14 369.29 223.25"
/>
<path stroke="#1a1b1c" stroke-opacity="0.996" vector-effect="non-scaling-stroke" d="
  M 369.00 223.79
  Q 367.29 226.18 369.67 227.69"
/>
<path stroke="#1a1b1c" stroke-opacity="0.996" vector-effect="non-scaling-stroke" d="
  M 364.21 238.43
  Q 375.17 239.05 386.00 238.04"
/>
<path stroke="#292a28" vector-effect="non-scaling-stroke" d="
  M 388.81 233.85
  C 387.19 231.82 385.45 232.27 383.11 232.23
  Q 375.56 232.11 367.99 232.36"
/>
<path stroke="#1a1b1c" stroke-opacity="0.996" vector-effect="non-scaling-stroke" d="
  M 400.75 218.04
  C 400.96 219.46 401.03 229.39 402.75 229.71"
/>
<path stroke="#3e433c" stroke-opacity="0.984" vector-effect="non-scaling-stroke" d="
  M 415.83 235.17
  Q 414.28 238.55 415.46 242.00"
/>
<path stroke="#292a28" vector-effect="non-scaling-stroke" d="
  M 411.25 242.96
  Q 411.25 241.64 410.04 241.25"
/>
<path stroke="#373936" vector-effect="non-scaling-stroke" d="
  M 396.46 227.54
  Q 397.58 223.29 396.75 218.96"
/>
<path stroke="#373936" vector-effect="non-scaling-stroke" d="
  M 461.56 222.37
  Q 453.90 221.78 446.35 221.95
  C 443.18 222.03 440.35 221.71 437.24 222.94"
/>
<path stroke="#373936" vector-effect="non-scaling-stroke" d="
  M 462.54 233.25
  Q 461.70 235.55 462.59 237.80"
/>
<path stroke="#1a1b1c" stroke-opacity="0.996" vector-effect="non-scaling-stroke" d="
  M 451.75 242.72
  Q 450.37 241.70 448.51 241.86
  Q 445.80 242.11 445.32 242.08
  Q 438.72 241.69 431.96 242.27"
/>
<path stroke="#1a1b1c" stroke-opacity="0.996" vector-effect="non-scaling-stroke" d="
  M 432.25 239.54
  Q 434.65 238.49 438.25 238.75
  Q 445.30 239.27 454.50 238.04"
/>
<path stroke="#292a28" vector-effect="non-scaling-stroke" d="
  M 455.29 232.72
  Q 445.62 230.94 435.93 232.41"
/>
<path stroke="#373936" vector-effect="non-scaling-stroke" d="
  M 494.00 222.46
  Q 488.14 221.68 482.11 222.80"
/>
<path stroke="#373936" vector-effect="non-scaling-stroke" d="
  M 476.93 223.02
  Q 473.17 221.30 468.75 222.00
  Q 466.60 222.34 464.29 221.50"
/>
<path stroke="#373936" vector-effect="non-scaling-stroke" d="
  M 497.71 218.02
  L 497.50 236.81"
/>
<path stroke="#373936" vector-effect="non-scaling-stroke" d="
  M 527.06 222.46
  Q 518.37 221.72 506.00 222.25
  Q 503.74 222.35 503.00 223.96"
/>
<path stroke="#1a1b1c" stroke-opacity="0.996" vector-effect="non-scaling-stroke" d="
  M 503.00 223.96
  Q 501.51 225.96 502.88 227.88"
/>
<path stroke="#292a28" vector-effect="non-scaling-stroke" d="
  M 524.32 232.15
  Q 514.90 232.19 505.54 232.08
  C 503.41 232.05 500.87 232.71 502.96 235.50"
/>
<path stroke="#525552" stroke-opacity="0.992" vector-effect="non-scaling-stroke" d="
  M 503.25 224.04
  L 503.00 223.96"
/>
<path stroke="#1a1b1c" stroke-opacity="0.996" vector-effect="non-scaling-stroke" d="
  M 570.79 218.25
  C 572.77 219.53 573.92 220.80 574.17 223.31
  Q 575.16 233.06 573.85 242.73"
/>
<path stroke="#373936" vector-effect="non-scaling-stroke" d="
  M 568.48 222.92
  C 565.90 221.32 561.31 222.05 558.58 222.20
  Q 555.40 222.38 555.26 225.56
  Q 554.91 233.60 555.71 241.56"
/>
<path stroke="#373936" vector-effect="non-scaling-stroke" d="
  M 550.36 242.26
  Q 551.23 233.37 550.52 224.79
  Q 550.37 222.90 548.51 222.50
  Q 543.19 221.36 537.92 222.86"
/>
<path stroke="#292a28" vector-effect="non-scaling-stroke" d="
  M 184.61 218.22
  Q 185.27 224.35 185.19 233.06
  Q 185.13 238.83 184.51 242.58"
/>
<path stroke="#373936" vector-effect="non-scaling-stroke" d="
  M 189.47 219.20
  Q 188.46 230.92 189.24 242.59"
/>
<path stroke="#292a28" vector-effect="non-scaling-stroke" d="
  M 539.75 61.75
  Q 538.55 61.14 538.50 61.68"
/>
<path stroke="#373936" vector-effect="non-scaling-stroke" d="
  M 542.62 67.13
  Q 540.85 67.07 541.10 68.27
  A 1.93 1.43 -47.8 0 1 541.01 69.18
  Q 540.78 69.78 541.71 69.75"
/>
<path stroke="#292a28" vector-effect="non-scaling-stroke" d="
  M 539.75 61.75
  Q 540.30 66.35 539.75 70.96"
/>
<path stroke="#292a28" vector-effect="non-scaling-stroke" d="
  M 543.50 61.29
  Q 542.00 62.50 540.21 61.50"
/>
<path stroke="#1a1b1c" stroke-opacity="0.996" vector-effect="non-scaling-stroke" d="
  M 541.54 65.00
  Q 542.90 66.94 544.50 65.29"
/>
<path stroke="#1a1b1c" stroke-opacity="0.996" vector-effect="non-scaling-stroke" d="
  M 324.71 238.20
  Q 332.51 239.54 340.25 238.04"
/>
<path stroke="#373936" vector-effect="non-scaling-stroke" d="
  M 343.20 235.04
  Q 344.30 229.76 343.30 224.39
  Q 342.98 222.65 341.21 222.47
  C 339.58 222.31 321.64 221.24 322.39 223.51"
/>
</g>
<path fill="#000000" d="
  M 137.89 112.74
  Q 136.93 120.73 137.79 128.79
  Q 138.59 131.56 140.75 128.71
  Q 142.23 128.16 142.00 126.71
  L 145.29 120.50
  Q 148.29 117.28 149.29 113.00
  L 149.96 111.75
  C 150.83 112.68 154.14 104.70 154.46 103.75
  L 155.04 102.50
  Q 158.08 99.72 159.00 95.71
  Q 159.26 94.71 160.00 93.96
  Q 161.90 92.77 161.96 90.50
  L 172.00 72.96
  Q 174.84 69.83 175.96 65.75
  C 180.95 58.57 184.57 54.17 193.98 53.89
  Q 211.40 53.37 222.00 54.25
  Q 224.94 54.49 227.29 57.75
  Q 227.24 59.45 228.75 59.96
  L 230.25 65.71
  Q 229.65 67.10 230.21 68.50
  L 230.25 205.79
  L 189.12 205.97
  Q 188.30 158.36 188.75 134.25
  Q 188.78 132.54 188.04 132.25
  L 187.99 129.99
  A 0.84 0.64 -82.8 0 0 187.57 129.26
  C 186.62 128.88 185.73 131.59 184.96 132.75
  Q 182.49 134.96 182.04 138.25
  L 179.00 143.79
  Q 176.99 144.96 177.00 147.29
  L 174.96 151.00
  Q 172.09 153.34 171.54 157.00
  L 157.96 181.00
  Q 155.89 181.95 156.04 184.25
  L 154.25 187.54
  Q 151.97 188.87 151.96 191.50
  C 145.78 202.09 139.83 206.80 127.00 206.31
  Q 117.94 205.96 108.88 205.98
  C 95.38 206.01 95.30 193.17 95.66 182.76
  Q 96.36 158.75 95.74 134.74
  L 95.96 130.00
  C 96.15 128.27 94.03 129.88 94.25 131.04
  L 91.79 135.25
  Q 89.91 136.16 90.00 138.29
  L 86.00 145.04
  Q 83.87 145.99 84.00 148.29
  L 70.96 170.00
  Q 68.90 171.03 69.00 173.29
  Q 59.43 190.10 48.85 205.72
  Q 25.50 204.79 2.32 205.18
  A 0.32 0.31 -80.2 0 1 2.03 204.75
  L 3.50 200.71
  L 7.04 195.00
  Q 8.84 193.82 9.00 191.71
  L 10.04 190.00
  Q 11.84 188.82 12.00 186.71
  L 17.04 178.00
  Q 19.00 176.97 19.00 174.71
  L 33.04 151.00
  Q 34.84 149.82 35.00 147.71
  L 42.00 135.96
  Q 44.43 133.86 45.00 130.71
  L 59.04 107.00
  Q 60.93 105.88 61.00 103.71
  L 68.00 91.96
  Q 70.50 89.90 71.00 86.71
  C 79.27 72.57 83.97 62.49 91.21 56.25
  Q 93.02 56.73 93.50 54.96
  Q 95.96 54.17 101.50 54.00
  Q 115.61 53.56 125.31 54.19
  C 135.15 54.82 138.15 59.14 138.12 68.75
  Q 138.06 90.76 137.89 112.74
  Z"
/>
<path fill="#000000" d="
  M 280.21 58.75
  Q 280.83 64.87 284.21 70.00
  L 285.46 74.00
  Q 285.08 76.59 287.00 78.21
  L 300.28 115.94
  Q 301.14 121.56 303.95 126.57
  L 306.31 133.01
  Q 306.41 136.38 308.70 140.15
  A 1.54 1.54 -30.1 0 0 310.78 140.70
  Q 312.61 139.66 312.29 137.00
  Q 312.40 136.42 312.75 135.96
  Q 314.31 133.85 314.21 131.25
  L 321.04 112.00
  Q 323.65 108.11 324.54 103.50
  Q 326.20 100.84 326.46 97.75
  L 327.04 96.50
  Q 330.13 91.09 331.46 85.00
  L 333.00 81.21
  Q 335.26 78.54 335.46 75.00
  Q 335.37 74.48 335.75 74.21
  Q 335.86 74.26 335.97 74.25
  A 0.42 0.32 -77.3 0 0 336.28 73.99
  L 341.21 61.00
  C 342.11 57.60 344.00 54.03 348.00 54.03
  Q 364.13 54.00 380.25 53.98
  C 382.87 53.98 386.48 53.87 387.97 56.58
  L 378.06 83.17
  L 376.96 86.75
  Q 374.69 89.48 374.54 93.00
  L 371.00 102.29
  Q 368.36 105.83 368.04 110.25
  L 367.96 110.50
  Q 364.77 115.74 363.54 121.75
  L 355.00 144.29
  Q 353.03 146.26 353.25 149.04
  L 349.96 157.75
  Q 347.86 159.66 348.21 162.50
  L 338.96 186.75
  Q 336.89 188.47 337.46 191.00
  C 334.59 199.51 330.68 206.24 320.69 206.10
  Q 307.47 205.92 294.25 206.00
  C 289.48 206.03 286.33 200.26 284.94 196.39
  Q 278.58 178.79 272.04 161.25
  Q 272.75 159.42 271.04 158.25
  L 267.96 149.75
  Q 267.58 145.34 265.04 141.75
  L 262.71 135.00
  Q 262.66 132.12 260.79 130.00
  L 252.04 106.25
  Q 252.25 103.95 251.00 101.96
  Q 250.48 99.52 249.00 97.54
  L 248.21 95.25
  Q 248.50 93.55 247.25 92.46
  Q 247.10 90.20 246.00 88.21
  Q 245.94 86.82 244.79 86.25
  L 242.21 79.00
  Q 241.21 72.98 238.00 67.79
  L 236.79 63.96
  Q 235.59 59.39 235.91 54.68
  Q 253.66 53.54 271.32 53.97
  C 275.70 54.08 278.68 53.70 280.21 58.75
  Z"
/>
<path fill="#000000" d="
  M 542.01 95.61
  Q 523.10 94.75 504.20 95.55
  Q 500.71 95.25 499.00 92.29
  Q 498.90 90.28 496.96 90.50
  Q 496.20 90.00 494.50 90.00
  Q 464.12 90.00 433.75 90.09
  C 426.03 90.12 426.09 98.47 427.00 103.75
  Q 427.68 107.71 431.95 108.00
  Q 432.96 108.75 435.75 108.75
  Q 482.50 108.75 529.25 108.94
  Q 535.12 108.96 541.08 108.72
  Q 554.23 111.11 563.29 121.00
  L 568.00 127.21
  Q 580.27 148.94 584.69 154.81
  Q 591.24 163.52 595.47 173.55
  Q 599.22 182.42 594.96 191.00
  Q 593.14 192.11 593.04 194.25
  C 585.86 207.34 575.16 206.00 562.28 206.00
  Q 500.71 206.00 439.14 206.00
  C 431.32 206.00 425.06 204.57 418.07 202.07
  L 413.29 199.58
  Q 413.23 199.55 412.47 199.08
  Q 412.08 198.83 411.75 199.46
  Q 411.27 199.37 410.96 199.00
  Q 409.52 196.90 407.00 196.71
  L 401.46 192.50
  Q 399.14 189.25 396.00 186.79
  Q 394.32 185.16 393.46 183.00
  Q 392.42 179.50 390.00 176.79
  L 386.21 168.21
  C 385.58 165.42 383.09 160.16 386.25 158.29
  Q 398.75 157.57 411.25 158.04
  Q 416.96 158.92 422.75 158.79
  C 428.03 158.76 426.29 166.93 435.01 165.65
  C 468.75 166.56 502.66 166.00 536.42 166.00
  C 539.78 166.00 542.78 166.51 541.95 161.98
  Q 541.93 158.94 539.79 156.75
  L 537.96 153.25
  C 536.32 147.25 533.45 145.28 527.25 145.26
  Q 478.00 145.09 428.75 145.46
  L 414.31 145.04
  L 401.77 141.15
  L 398.10 138.88
  L 391.25 132.29
  L 386.54 125.00
  Q 387.27 123.67 385.79 122.75
  C 382.31 113.48 383.75 100.85 383.71 91.00
  Q 383.66 79.30 389.91 69.58
  Q 393.37 64.84 397.59 60.81
  C 402.95 55.92 407.87 54.75 415.59 54.75
  Q 459.48 54.75 503.37 54.75
  Q 511.78 54.75 515.96 56.14
  Q 525.28 59.25 530.31 67.94
  Q 537.28 79.95 544.28 91.95
  C 545.64 94.27 545.38 96.15 542.01 95.61
  Z"
/>
<path fill="#343738" fill-opacity="0.988" d="
  M 93.50 54.96
  Q 93.02 56.73 91.21 56.25
  Q 92.19 55.30 93.50 54.96
  Z"
/>
<path fill="#525450" fill-opacity="0.996" d="
  M 235.91 54.68
  Q 235.59 59.39 236.79 63.96
  Q 233.69 60.01 235.91 54.68
  Z"
/>
<path fill="#343738" fill-opacity="0.988" d="
  M 387.97 56.58
  Q 384.03 70.23 378.06 83.17
  L 387.97 56.58
  Z"
/>
<path fill="#000000" d="
  M 552.74 66.35
  A 9.17 9.17 0.0 0 1 543.57 75.52
  A 9.17 9.17 0.0 0 1 534.40 66.35
  A 9.17 9.17 0.0 0 1 543.57 57.18
  A 9.17 9.17 0.0 0 1 552.74 66.35
  Z
  M 539.75 61.75
  Q 538.55 61.14 538.50 61.68
  Q 534.45 66.40 538.29 70.75
  C 542.82 76.68 553.05 71.23 550.12 63.72
  Q 548.50 59.60 542.81 59.94
  Q 542.18 59.98 539.81 60.81
  Q 538.75 61.19 539.75 61.75
  Z"
/>
<path fill="#343738" fill-opacity="0.988" d="
  M 227.29 57.75
  Q 228.31 58.65 228.75 59.96
  Q 227.24 59.45 227.29 57.75
  Z"
/>
<path fill="#525450" fill-opacity="0.996" d="
  M 280.21 58.75
  L 284.21 70.00
  Q 280.83 64.87 280.21 58.75
  Z"
/>
<path fill="#525450" fill-opacity="0.996" d="
  M 397.59 60.81
  Q 393.37 64.84 389.91 69.58
  Q 392.22 63.80 397.59 60.81
  Z"
/>
<path fill="#343738" fill-opacity="0.988" d="
  M 341.21 61.00
  L 336.28 73.99
  A 0.42 0.32 -77.3 0 1 335.97 74.25
  Q 335.86 74.26 335.75 74.21
  L 341.21 61.00
  Z"
/>
<path fill="#525450" fill-opacity="0.996" d="
  M 543.50 61.29
  Q 542.00 62.50 540.21 61.50
  Q 541.80 60.71 543.50 61.29
  Z"
/>
<path fill="#525450" fill-opacity="0.996" d="
  M 539.75 61.75
  Q 540.30 66.35 539.75 70.96
  Q 539.32 71.05 539.00 70.71
  Q 539.38 66.18 538.50 61.68
  Q 538.55 61.14 539.75 61.75
  Z"
/>
<path fill="#000000" d="
  M 543.50 61.29
  C 548.88 61.64 546.19 64.92 546.32 67.77
  Q 546.38 68.99 546.59 70.19
  A 0.30 0.29 -86.3 0 1 546.21 70.54
  Q 543.82 69.74 542.62 67.13
  Q 540.85 67.07 541.10 68.27
  A 1.93 1.43 -47.8 0 1 541.01 69.18
  Q 540.78 69.78 541.71 69.75
  Q 541.19 70.98 539.75 70.96
  Q 540.30 66.35 539.75 61.75
  L 540.21 61.50
  Q 542.00 62.50 543.50 61.29
  Z
  M 541.54 65.00
  Q 542.90 66.94 544.50 65.29
  C 545.25 61.88 540.47 62.83 541.54 65.00
  Z"
/>
<path fill="#343738" fill-opacity="0.988" d="
  M 541.54 65.00
  L 544.50 65.29
  Q 542.90 66.94 541.54 65.00
  Z"
/>
<path fill="#343738" fill-opacity="0.988" d="
  M 175.96 65.75
  Q 174.84 69.83 172.00 72.96
  L 175.96 65.75
  Z"
/>
<path fill="#525450" fill-opacity="0.996" d="
  M 230.25 65.71
  L 230.71 67.75
  Q 230.05 67.79 230.21 68.50
  Q 229.65 67.10 230.25 65.71
  Z"
/>
<path fill="#6f726c" fill-opacity="0.996" d="
  M 542.62 67.13
  L 541.71 69.75
  Q 540.78 69.78 541.01 69.18
  A 1.93 1.43 -47.8 0 0 541.10 68.27
  Q 540.85 67.07 542.62 67.13
  Z"
/>
<path fill="#7f887a" fill-opacity="0.969" d="
  M 230.71 67.75
  Q 231.00 70.31 231.00 75.75
  Q 231.00 140.12 231.00 204.50
  Q 231.00 205.66 230.25 205.79
  L 230.21 68.50
  Q 230.05 67.79 230.71 67.75
  Z"
/>
<path fill="#343738" fill-opacity="0.988" d="
  M 238.00 67.79
  Q 241.21 72.98 242.21 79.00
  L 238.00 67.79
  Z"
/>
<path fill="#343738" fill-opacity="0.988" d="
  M 285.46 74.00
  L 287.00 78.21
  Q 285.08 76.59 285.46 74.00
  Z"
/>
<path fill="#343738" fill-opacity="0.988" d="
  M 335.46 75.00
  Q 335.26 78.54 333.00 81.21
  L 335.46 75.00
  Z"
/>
<path fill="#525450" fill-opacity="0.996" d="
  M 331.46 85.00
  Q 330.13 91.09 327.04 96.50
  L 331.46 85.00
  Z"
/>
<path fill="#000000" d="
  M 244.79 86.25
  Q 245.94 86.82 246.00 88.21
  L 245.54 88.25
  L 244.79 86.25
  Z"
/>
<path fill="#343738" fill-opacity="0.988" d="
  M 71.00 86.71
  Q 70.50 89.90 68.00 91.96
  L 71.00 86.71
  Z"
/>
<path fill="#343738" fill-opacity="0.988" d="
  M 376.96 86.75
  L 374.54 93.00
  Q 374.69 89.48 376.96 86.75
  Z"
/>
<path fill="#343738" fill-opacity="0.988" d="
  M 245.54 88.25
  L 246.00 88.21
  Q 247.10 90.20 247.25 92.46
  L 247.04 92.50
  L 245.54 88.25
  Z"
/>
<path fill="#343738" fill-opacity="0.988" d="
  M 499.00 92.29
  L 496.96 90.50
  Q 498.90 90.28 499.00 92.29
  Z"
/>
<path fill="#343738" fill-opacity="0.988" d="
  M 161.96 90.50
  Q 161.90 92.77 160.00 93.96
  L 161.96 90.50
  Z"
/>
<path fill="#000000" d="
  M 247.04 92.50
  L 247.25 92.46
  Q 248.50 93.55 248.21 95.25
  L 247.04 92.50
  Z"
/>
<path fill="#343738" fill-opacity="0.988" d="
  M 542.01 95.61
  Q 523.10 96.63 504.20 95.55
  Q 523.10 94.75 542.01 95.61
  Z"
/>
<path fill="#525450" fill-opacity="0.996" d="
  M 159.00 95.71
  Q 158.08 99.72 155.04 102.50
  L 159.00 95.71
  Z"
/>
<path fill="#343738" fill-opacity="0.988" d="
  M 249.00 97.54
  Q 250.48 99.52 251.00 101.96
  Q 250.77 102.02 250.71 102.25
  L 249.00 97.54
  Z"
/>
<path fill="#343738" fill-opacity="0.988" d="
  M 326.46 97.75
  Q 326.20 100.84 324.54 103.50
  L 324.46 103.00
  L 326.46 97.75
  Z"
/>
<path fill="#000000" d="
  M 251.00 101.96
  Q 252.25 103.95 252.04 106.25
  L 250.71 102.25
  Q 250.77 102.02 251.00 101.96
  Z"
/>
<path fill="#343738" fill-opacity="0.988" d="
  M 371.00 102.29
  L 368.04 110.25
  Q 368.36 105.83 371.00 102.29
  Z"
/>
<path fill="#525450" fill-opacity="0.996" d="
  M 324.46 103.00
  L 324.54 103.50
  Q 323.65 108.11 321.04 112.00
  L 324.46 103.00
  Z"
/>
<path fill="#343738" fill-opacity="0.988" d="
  M 61.00 103.71
  Q 60.93 105.88 59.04 107.00
  L 61.00 103.71
  Z"
/>
<path fill="#343738" fill-opacity="0.988" d="
  M 154.46 103.75
  C 154.14 104.70 150.83 112.68 149.96 111.75
  L 154.46 103.75
  Z"
/>
<path fill="#525450" fill-opacity="0.996" d="
  M 431.95 108.00
  Q 484.66 108.00 537.25 108.05
  Q 539.19 108.05 541.08 108.72
  Q 535.12 108.96 529.25 108.94
  Q 482.50 108.75 435.75 108.75
  Q 432.96 108.75 431.95 108.00
  Z"
/>
<path fill="#343738" fill-opacity="0.988" d="
  M 367.96 110.50
  L 363.54 121.75
  Q 364.77 115.74 367.96 110.50
  Z"
/>
<path fill="#343738" fill-opacity="0.988" d="
  M 137.89 112.74
  L 137.79 128.79
  Q 136.93 120.73 137.89 112.74
  Z"
/>
<path fill="#343738" fill-opacity="0.988" d="
  M 149.29 113.00
  Q 148.29 117.28 145.29 120.50
  L 149.29 113.00
  Z"
/>
<path fill="#343738" fill-opacity="0.988" d="
  M 300.28 115.94
  L 303.95 126.57
  Q 301.14 121.56 300.28 115.94
  Z"
/>
<path fill="#343738" fill-opacity="0.988" d="
  M 563.29 121.00
  Q 566.36 123.56 568.00 127.21
  L 563.29 121.00
  Z"
/>
<path fill="#343738" fill-opacity="0.988" d="
  M 385.79 122.75
  Q 387.27 123.67 386.54 125.00
  Q 385.82 123.99 385.79 122.75
  Z"
/>
<path fill="#343738" fill-opacity="0.988" d="
  M 142.00 126.71
  Q 142.23 128.16 140.75 128.71
  Q 140.99 127.46 142.00 126.71
  Z"
/>
<path fill="#6f726c" fill-opacity="0.996" d="
  M 95.96 130.00
  Q 94.93 130.17 94.25 131.04
  C 94.03 129.88 96.15 128.27 95.96 130.00
  Z"
/>
<path fill="#000000" d="
  M 260.79 130.00
  Q 262.66 132.12 262.71 135.00
  L 260.79 130.00
  Z"
/>
<path fill="#343738" fill-opacity="0.988" d="
  M 45.00 130.71
  Q 44.43 133.86 42.00 135.96
  L 45.00 130.71
  Z"
/>
<path fill="#343738" fill-opacity="0.988" d="
  M 314.21 131.25
  Q 314.31 133.85 312.75 135.96
  L 314.21 131.25
  Z"
/>
<path fill="#525450" fill-opacity="0.996" d="
  M 188.04 132.25
  Q 188.78 132.54 188.75 134.25
  Q 188.30 158.36 189.12 205.97
  Q 187.85 206.40 187.86 204.25
  Q 187.97 168.25 188.04 132.25
  Z"
/>
<path fill="#343738" fill-opacity="0.988" d="
  M 391.25 132.29
  L 398.10 138.88
  Q 393.91 136.34 391.25 132.29
  Z"
/>
<path fill="#343738" fill-opacity="0.988" d="
  M 184.96 132.75
  L 182.04 138.25
  Q 182.49 134.96 184.96 132.75
  Z"
/>
<path fill="#343738" fill-opacity="0.988" d="
  M 306.31 133.01
  L 308.81 139.19
  Q 309.74 141.49 311.00 139.75
  Q 311.91 138.49 312.29 137.00
  Q 312.61 139.66 310.78 140.70
  A 1.54 1.54 -30.1 0 1 308.70 140.15
  Q 306.41 136.38 306.31 133.01
  Z"
/>
<path fill="#a8b5ad" fill-opacity="0.996" d="
  M 95.74 134.74
  Q 96.36 158.75 95.66 182.76
  Q 94.07 158.76 95.74 134.74
  Z"
/>
<path fill="#343738" fill-opacity="0.988" d="
  M 91.79 135.25
  L 90.00 138.29
  Q 89.91 136.16 91.79 135.25
  Z"
/>
<path fill="#343738" fill-opacity="0.988" d="
  M 414.31 145.04
  Q 407.55 144.61 401.77 141.15
  L 414.31 145.04
  Z"
/>
<path fill="#343738" fill-opacity="0.988" d="
  M 265.04 141.75
  Q 267.58 145.34 267.96 149.75
  L 265.04 141.75
  Z"
/>
<path fill="#343738" fill-opacity="0.988" d="
  M 179.00 143.79
  Q 178.43 145.80 177.00 147.29
  Q 176.99 144.96 179.00 143.79
  Z"
/>
<path fill="#343738" fill-opacity="0.988" d="
  M 355.00 144.29
  L 353.25 149.04
  Q 353.03 146.26 355.00 144.29
  Z"
/>
<path fill="#343738" fill-opacity="0.988" d="
  M 86.00 145.04
  L 84.00 148.29
  Q 83.87 145.99 86.00 145.04
  Z"
/>
<path fill="#6f726c" fill-opacity="0.996" d="
  M 537.96 153.25
  L 534.60 148.08
  Q 533.25 146.00 530.90 146.00
  Q 481.37 146.00 432.50 145.99
  Q 430.59 145.99 428.75 145.46
  Q 478.00 145.09 527.25 145.26
  C 533.45 145.28 536.32 147.25 537.96 153.25
  Z"
/>
<path fill="#343738" fill-opacity="0.988" d="
  M 35.00 147.71
  Q 34.84 149.82 33.04 151.00
  L 35.00 147.71
  Z"
/>
<path fill="#343738" fill-opacity="0.988" d="
  M 174.96 151.00
  L 171.54 157.00
  Q 172.09 153.34 174.96 151.00
  Z"
/>
<path fill="#000000" d="
  M 539.79 156.75
  Q 541.93 158.94 541.95 161.98
  L 539.79 156.75
  Z"
/>
<path fill="#343738" fill-opacity="0.988" d="
  M 349.96 157.75
  L 348.21 162.50
  Q 347.86 159.66 349.96 157.75
  Z"
/>
<path fill="#525450" fill-opacity="0.996" d="
  M 411.25 158.04
  Q 417.77 157.75 424.25 158.54
  Q 423.55 158.88 422.75 158.79
  Q 416.96 158.92 411.25 158.04
  Z"
/>
<path fill="#343738" fill-opacity="0.988" d="
  M 271.04 158.25
  Q 272.75 159.42 272.04 161.25
  L 271.04 158.25
  Z"
/>
<path fill="#343738" fill-opacity="0.988" d="
  M 386.25 158.29
  C 383.09 160.16 385.58 165.42 386.21 168.21
  C 384.96 166.00 381.49 159.08 386.25 158.29
  Z"
/>
<path fill="#343738" fill-opacity="0.988" d="
  M 424.25 158.54
  C 428.75 159.71 426.93 165.90 435.01 165.65
  C 426.29 166.93 428.03 158.76 422.75 158.79
  Q 423.55 158.88 424.25 158.54
  Z"
/>
<path fill="#343738" fill-opacity="0.988" d="
  M 70.96 170.00
  Q 70.34 171.87 69.00 173.29
  Q 68.90 171.03 70.96 170.00
  Z"
/>
<path fill="#343738" fill-opacity="0.988" d="
  M 19.00 174.71
  Q 19.00 176.97 17.04 178.00
  L 19.00 174.71
  Z"
/>
<path fill="#343738" fill-opacity="0.988" d="
  M 390.00 176.79
  Q 392.42 179.50 393.46 183.00
  Q 391.21 180.20 390.00 176.79
  Z"
/>
<path fill="#343738" fill-opacity="0.988" d="
  M 157.96 181.00
  L 156.04 184.25
  Q 155.89 181.95 157.96 181.00
  Z"
/>
<path fill="#343738" fill-opacity="0.988" d="
  M 12.00 186.71
  Q 11.84 188.82 10.04 190.00
  Q 10.66 188.13 12.00 186.71
  Z"
/>
<path fill="#343738" fill-opacity="0.988" d="
  M 338.96 186.75
  L 337.46 191.00
  Q 336.89 188.47 338.96 186.75
  Z"
/>
<path fill="#343738" fill-opacity="0.988" d="
  M 396.00 186.79
  Q 399.14 189.25 401.46 192.50
  Q 398.16 190.19 396.00 186.79
  Z"
/>
<path fill="#343738" fill-opacity="0.988" d="
  M 154.25 187.54
  L 151.96 191.50
  Q 151.97 188.87 154.25 187.54
  Z"
/>
<path fill="#343738" fill-opacity="0.988" d="
  M 594.96 191.00
  Q 594.40 192.87 593.04 194.25
  Q 593.14 192.11 594.96 191.00
  Z"
/>
<path fill="#343738" fill-opacity="0.988" d="
  M 9.00 191.71
  Q 8.84 193.82 7.04 195.00
  L 9.00 191.71
  Z"
/>
<path fill="#343738" fill-opacity="0.988" d="
  M 410.96 199.00
  L 407.00 196.71
  Q 409.52 196.90 410.96 199.00
  Z"
/>
<path fill="#343738" fill-opacity="0.988" d="
  M 418.07 202.07
  L 411.75 199.46
  Q 412.08 198.83 412.47 199.08
  Q 413.23 199.55 413.29 199.58
  L 418.07 202.07
  Z"
/>
<path fill="#525450" fill-opacity="0.996" d="
  M 3.50 200.71
  L 2.03 204.75
  A 0.32 0.31 -80.2 0 0 2.32 205.18
  Q 25.50 204.79 48.85 205.72
  Q 24.84 206.35 1.69 205.82
  A 0.46 0.45 4.4 0 1 1.24 205.31
  Q 1.57 202.70 3.50 200.71
  Z"
/>
<path fill="#000000" d="
  M 218.00 242.96
  Q 217.67 241.31 216.04 241.00
  Q 210.56 231.24 204.98 221.52
  C 202.71 217.56 204.80 217.46 208.26 218.42
  A 3.05 3.04 -10.5 0 1 209.88 219.53
  Q 212.44 222.99 214.07 227.03
  Q 214.53 229.75 216.67 231.57
  L 219.25 235.96
  Q 219.10 238.76 220.96 237.00
  Q 225.46 228.28 230.19 219.69
  Q 231.17 217.91 232.94 217.71
  Q 233.41 217.66 233.89 217.45
  Q 235.20 216.85 236.19 217.87
  A 0.90 0.78 -60.2 0 1 236.36 218.72
  C 235.28 222.28 232.78 225.79 231.52 228.14
  Q 228.41 234.01 225.10 239.77
  C 223.37 242.78 221.36 243.91 218.00 242.96
  Z"
/>
<path fill="#000000" d="
  M 97.35 217.90
  Q 96.86 226.60 97.71 235.27
  Q 98.19 237.70 100.22 238.19
  Q 107.24 239.58 114.28 238.17
  Q 117.90 238.57 117.94 235.44
  Q 118.05 227.47 118.00 219.38
  A 1.39 1.39 87.6 0 1 119.28 217.98
  Q 121.32 217.81 123.64 218.91
  C 122.59 221.91 123.04 227.79 123.37 231.02
  L 123.00 238.47
  Q 122.92 240.15 121.45 241.18
  Q 118.23 243.43 114.27 242.76
  Q 105.69 241.25 96.97 242.40
  Q 92.71 241.48 92.58 236.80
  Q 93.12 228.00 92.50 219.21
  Q 93.96 217.24 97.35 217.90
  Z"
/>
<path fill="#000000" d="
  M 279.50 224.21
  L 279.35 236.53
  C 279.19 245.00 266.73 243.12 259.28 243.02
  C 256.36 242.98 254.09 243.39 254.73 239.56
  Q 255.70 238.00 257.75 238.00
  Q 264.25 238.00 270.75 238.00
  Q 273.55 238.00 274.02 235.56
  Q 275.97 230.45 274.20 225.19
  Q 274.18 223.76 273.03 222.74
  C 270.94 222.50 255.06 221.43 254.50 222.96
  Q 254.13 223.27 254.04 223.75
  L 253.96 225.25
  Q 253.53 225.17 253.51 225.50
  Q 252.96 233.74 253.49 242.08
  Q 251.41 243.70 249.45 242.25
  A 1.06 0.94 -74.8 0 1 249.05 241.44
  Q 248.87 231.97 249.18 222.50
  C 249.27 219.86 250.29 218.33 253.11 218.11
  C 260.13 217.57 266.81 218.09 273.80 218.15
  Q 279.19 218.20 279.50 224.21
  Z"
/>
<path fill="#000000" d="
  M 88.46 224.00
  Q 87.91 233.02 88.50 242.04
  Q 82.61 244.96 82.89 238.97
  C 83.04 235.83 83.81 224.97 82.00 222.80
  C 81.47 222.69 70.28 221.26 70.29 223.00
  Q 70.00 223.32 69.96 223.75
  Q 68.09 224.49 69.46 226.00
  L 68.96 241.12
  A 1.81 1.66 86.6 0 1 67.58 242.82
  Q 63.33 243.54 64.00 240.25
  Q 64.64 237.12 63.58 223.28
  Q 57.01 220.76 50.27 223.30
  Q 49.81 232.75 50.00 241.75
  Q 50.03 243.22 48.24 242.87
  Q 47.79 242.78 47.25 242.85
  Q 46.26 242.97 45.46 242.48
  A 0.99 0.80 -77.6 0 1 45.06 241.68
  Q 44.96 231.60 45.00 221.52
  C 45.01 217.73 44.75 218.03 48.52 217.99
  C 58.53 217.88 68.56 218.25 78.56 218.03
  Q 82.15 217.95 85.69 218.70
  A 1.44 1.32 -10.7 0 1 86.50 219.20
  Q 88.13 221.31 88.46 224.00
  Z"
/>
<path fill="#525450" fill-opacity="0.996" d="
  M 97.35 217.90
  Q 98.70 226.51 97.71 235.27
  Q 96.86 226.60 97.35 217.90
  Z"
/>
<path fill="#343738" fill-opacity="0.988" d="
  M 128.17 218.02
  L 127.65 238.57
  Q 126.50 228.84 127.03 219.07
  A 1.23 0.94 77.6 0 1 127.42 218.23
  Q 127.89 217.87 128.17 218.02
  Z"
/>
<path fill="#000000" d="
  M 128.17 218.02
  L 132.53 218.43
  Q 131.56 227.64 132.90 236.82
  C 135.62 239.00 151.04 238.07 155.31 238.24
  A 1.50 1.48 -6.0 0 1 156.69 239.34
  Q 157.57 242.64 155.50 242.66
  Q 145.00 242.75 134.50 242.75
  Q 129.56 242.75 127.65 238.57
  L 128.17 218.02
  Z"
/>
<path fill="#000000" d="
  M 181.04 222.22
  Q 174.96 221.66 169.76 222.18
  A 1.64 1.57 -3.1 0 0 168.27 223.77
  L 168.53 242.05
  Q 166.64 243.29 164.25 242.71
  Q 163.44 233.88 163.79 223.90
  Q 163.85 222.00 161.96 222.00
  C 158.90 222.00 151.59 223.09 150.16 220.15
  Q 149.89 218.27 151.69 218.19
  Q 159.77 217.79 178.63 218.22
  C 181.35 218.28 182.84 219.38 181.04 222.22
  Z"
/>
<rect fill="#000000" x="-2.49" y="-12.47" transform="translate(241.51,230.49) rotate(0.1)" width="4.98" height="24.94" rx="1.17"/>
<path fill="#000000" d="
  M 313.02 222.47
  Q 301.31 221.18 289.74 222.84
  L 288.08 226.01
  Q 286.96 228.14 289.65 228.04
  C 292.95 227.92 309.20 227.28 310.49 229.35
  Q 311.21 230.50 310.01 232.45
  Q 299.11 231.75 288.26 232.68
  Q 287.54 235.21 288.79 236.75
  C 288.81 239.31 306.12 238.70 310.06 238.56
  Q 314.16 238.42 312.91 242.58
  C 306.40 243.64 298.48 242.62 291.72 242.87
  Q 284.09 243.15 283.04 236.85
  C 282.48 233.46 282.97 224.70 283.05 219.44
  A 1.46 1.46 -89.4 0 1 284.52 218.00
  Q 297.12 218.03 308.86 218.22
  C 312.00 218.27 315.03 217.84 313.02 222.47
  Z"
/>
<path fill="#000000" d="
  M 348.51 223.73
  Q 347.85 230.37 348.41 237.02
  C 347.61 242.41 344.05 242.67 339.63 243.04
  Q 337.95 243.18 336.32 242.64
  Q 328.55 241.31 320.75 242.29
  C 315.16 241.04 316.89 230.52 317.19 224.19
  Q 317.36 220.55 319.36 218.81
  A 1.58 1.25 17.5 0 1 320.25 218.47
  Q 331.08 217.85 341.93 218.17
  C 345.71 218.28 347.88 220.16 348.51 223.73
  Z
  M 322.39 223.51
  Q 321.80 228.56 321.96 233.11
  C 322.05 235.57 321.54 237.68 324.71 238.20
  Q 332.51 239.54 340.25 238.04
  Q 343.11 237.99 343.20 235.04
  Q 344.30 229.76 343.30 224.39
  Q 342.98 222.65 341.21 222.47
  C 339.58 222.31 321.64 221.24 322.39 223.51
  Z"
/>
<path fill="#000000" d="
  M 392.30 222.53
  C 390.23 222.37 369.79 221.14 369.29 223.25
  Q 369.34 223.62 369.00 223.79
  Q 367.29 226.18 369.67 227.69
  C 375.09 229.05 384.04 227.96 389.78 228.23
  Q 392.90 228.38 393.56 231.42
  C 394.94 237.77 394.76 242.68 386.74 242.79
  Q 376.26 242.93 364.92 242.73
  A 0.86 0.86 -88.7 0 1 364.07 241.84
  L 364.21 238.43
  Q 375.17 239.05 386.00 238.04
  Q 389.88 238.06 388.81 233.85
  C 387.19 231.82 385.45 232.27 383.11 232.23
  Q 375.56 232.11 367.99 232.36
  C 361.04 231.61 361.43 218.77 367.75 218.00
  Q 371.48 217.55 391.93 218.29
  A 1.61 1.28 -18.8 0 1 392.83 218.61
  Q 395.11 220.50 392.30 222.53
  Z"
/>
<path fill="#000000" d="
  M 400.75 218.04
  C 400.96 219.46 401.03 229.39 402.75 229.71
  C 406.68 232.05 416.10 231.07 420.75 230.75
  Q 422.68 230.62 423.25 228.76
  Q 424.36 225.10 423.80 221.28
  Q 423.19 217.14 428.19 218.20
  A 1.01 1.00 5.1 0 1 429.00 219.16
  Q 429.12 223.97 428.81 228.69
  C 428.29 236.73 421.47 235.03 415.83 235.17
  Q 414.28 238.55 415.46 242.00
  Q 413.71 243.74 411.25 242.96
  Q 411.25 241.64 410.04 241.25
  L 410.00 236.09
  A 1.10 1.09 89.7 0 0 408.91 235.00
  C 402.09 235.00 396.90 236.70 396.46 227.54
  Q 397.58 223.29 396.75 218.96
  Q 398.34 217.36 400.75 218.04
  Z"
/>
<path fill="#343738" fill-opacity="0.988" d="
  M 400.75 218.04
  Q 402.22 218.17 402.00 220.00
  Q 401.45 224.56 402.75 229.71
  C 401.03 229.39 400.96 219.46 400.75 218.04
  Z"
/>
<path fill="#000000" d="
  M 461.56 222.37
  Q 453.90 221.78 446.35 221.95
  C 443.18 222.03 440.35 221.71 437.24 222.94
  Q 435.83 227.84 440.00 227.86
  Q 446.32 227.90 457.06 228.19
  Q 462.17 228.33 462.54 233.25
  Q 461.70 235.55 462.59 237.80
  C 461.07 242.78 456.41 243.77 451.75 242.72
  Q 450.37 241.70 448.51 241.86
  Q 445.80 242.11 445.32 242.08
  Q 438.72 241.69 431.96 242.27
  L 432.25 239.54
  Q 434.65 238.49 438.25 238.75
  Q 445.30 239.27 454.50 238.04
  C 457.54 237.95 458.08 233.59 455.29 232.72
  Q 445.62 230.94 435.93 232.41
  C 431.03 230.70 430.65 226.59 431.66 222.05
  C 432.66 217.55 435.24 218.04 438.99 217.98
  Q 449.97 217.81 460.93 218.29
  A 0.96 0.73 -8.4 0 1 461.71 218.72
  Q 462.32 219.93 461.56 222.37
  Z"
/>
<path fill="#000000" d="
  M 494.00 222.46
  Q 488.14 221.68 482.11 222.80
  L 481.94 241.93
  A 0.76 0.70 80.7 0 1 481.48 242.63
  Q 479.51 243.38 477.53 242.63
  A 0.74 0.71 -80.5 0 1 477.06 241.94
  L 476.93 223.02
  Q 473.17 221.30 468.75 222.00
  Q 466.60 222.34 464.29 221.50
  C 462.94 218.57 464.55 217.99 467.02 218.01
  Q 479.11 218.15 491.21 218.02
  C 494.22 217.99 496.99 218.81 494.00 222.46
  Z"
/>
<path fill="#6f726c" fill-opacity="0.996" d="
  M 497.71 218.02
  L 497.50 236.81
  Q 496.09 227.37 497.71 218.02
  Z"
/>
<path fill="#000000" d="
  M 497.71 218.02
  L 527.00 218.23
  A 0.84 0.79 -11.3 0 1 527.73 218.69
  Q 528.68 220.71 527.06 222.46
  Q 518.37 221.72 506.00 222.25
  Q 503.74 222.35 503.00 223.96
  Q 501.51 225.96 502.88 227.88
  Q 510.50 227.99 517.93 228.20
  C 519.52 228.25 522.02 227.71 524.21 228.40
  A 0.91 0.83 4.2 0 1 524.82 229.04
  Q 525.13 230.49 524.32 232.15
  Q 514.90 232.19 505.54 232.08
  C 503.41 232.05 500.87 232.71 502.96 235.50
  Q 503.62 238.33 507.00 238.00
  Q 511.73 237.54 526.94 238.29
  A 0.90 0.82 -11.0 0 1 527.69 238.75
  Q 528.53 240.39 527.78 242.12
  A 0.84 0.75 9.2 0 1 527.06 242.58
  Q 515.74 243.01 504.42 242.60
  C 500.29 242.45 497.86 241.03 497.50 236.81
  L 497.71 218.02
  Z"
/>
<path fill="#000000" d="
  M 570.79 218.25
  C 572.77 219.53 573.92 220.80 574.17 223.31
  Q 575.16 233.06 573.85 242.73
  C 569.27 243.92 569.92 241.53 570.05 238.58
  Q 570.38 230.62 568.48 222.92
  C 565.90 221.32 561.31 222.05 558.58 222.20
  Q 555.40 222.38 555.26 225.56
  Q 554.91 233.60 555.71 241.56
  Q 553.96 244.32 550.36 242.26
  Q 551.23 233.37 550.52 224.79
  Q 550.37 222.90 548.51 222.50
  Q 543.19 221.36 537.92 222.86
  C 535.00 225.09 535.93 237.69 536.01 241.71
  A 1.05 1.04 83.4 0 1 535.19 242.76
  Q 533.43 243.16 531.67 242.70
  A 0.68 0.65 -83.9 0 1 531.18 242.06
  C 531.04 234.92 531.39 227.49 530.88 220.41
  C 530.66 217.27 533.12 218.01 535.14 217.99
  Q 552.97 217.82 570.79 218.25
  Z"
/>
<path fill="#525450" fill-opacity="0.996" d="
  M 184.61 218.22
  Q 185.27 224.35 185.19 233.06
  Q 185.13 238.83 184.51 242.58
  Q 183.15 230.37 184.61 218.22
  Z"
/>
<path fill="#000000" d="
  M 184.61 218.22
  Q 188.56 217.85 189.47 219.20
  Q 188.46 230.92 189.24 242.59
  Q 186.95 243.45 184.51 242.58
  Q 185.13 238.83 185.19 233.06
  Q 185.27 224.35 184.61 218.22
  Z"
/>
<path fill="#343738" fill-opacity="0.988" d="
  M 570.79 218.25
  Q 574.89 219.55 574.94 223.56
  Q 575.05 232.28 574.99 241.00
  Q 574.98 242.84 573.85 242.73
  Q 575.16 233.06 574.17 223.31
  C 573.92 220.80 572.77 219.53 570.79 218.25
  Z"
/>
<path fill="#6f726c" fill-opacity="0.996" d="
  M 132.53 218.43
  Q 133.44 227.53 132.90 236.82
  Q 131.56 227.64 132.53 218.43
  Z"
/>
<path fill="#7f887a" fill-opacity="0.969" d="
  M 123.64 218.91
  Q 124.61 224.99 123.37 231.02
  C 123.04 227.79 122.59 221.91 123.64 218.91
  Z"
/>
<path fill="#6f726c" fill-opacity="0.996" d="
  M 396.75 218.96
  Q 397.58 223.29 396.46 227.54
  Q 395.15 223.08 396.75 218.96
  Z"
/>
<path fill="#525450" fill-opacity="0.996" d="
  M 92.50 219.21
  Q 93.12 228.00 92.58 236.80
  Q 91.20 227.99 92.50 219.21
  Z"
/>
<path fill="#6f726c" fill-opacity="0.996" d="
  M 189.47 219.20
  Q 190.96 230.97 189.24 242.59
  Q 188.46 230.92 189.47 219.20
  Z"
/>
<path fill="#525450" fill-opacity="0.996" d="
  M 150.16 220.15
  C 151.59 223.09 158.90 222.00 161.96 222.00
  Q 163.85 222.00 163.79 223.90
  Q 163.44 233.88 164.25 242.71
  Q 163.10 242.52 163.10 241.19
  Q 163.09 232.43 162.83 223.68
  A 0.53 0.52 -0.6 0 0 162.31 223.18
  C 157.49 223.05 149.21 224.13 150.16 220.15
  Z"
/>
<path fill="#6f726c" fill-opacity="0.996" d="
  M 464.29 221.50
  Q 466.60 222.34 468.75 222.00
  Q 473.17 221.30 476.93 223.02
  C 474.45 223.08 464.07 223.72 464.29 221.50
  Z"
/>
<path fill="#6f726c" fill-opacity="0.996" d="
  M 461.56 222.37
  Q 449.50 223.52 437.24 222.94
  C 440.35 221.71 443.18 222.03 446.35 221.95
  Q 453.90 221.78 461.56 222.37
  Z"
/>
<path fill="#6f726c" fill-opacity="0.996" d="
  M 181.04 222.22
  Q 176.25 223.52 170.70 222.94
  A 1.54 1.54 1.8 0 0 169.00 224.53
  Q 169.35 233.24 168.53 242.05
  L 168.27 223.77
  A 1.64 1.57 -3.1 0 1 169.76 222.18
  Q 174.96 221.66 181.04 222.22
  Z"
/>
<path fill="#6f726c" fill-opacity="0.996" d="
  M 313.02 222.47
  Q 301.38 223.48 289.74 222.84
  Q 301.31 221.18 313.02 222.47
  Z"
/>
<path fill="#6f726c" fill-opacity="0.996" d="
  M 343.20 235.04
  L 342.77 224.39
  A 1.40 1.39 0.5 0 0 341.45 223.06
  Q 331.99 222.58 322.39 223.51
  C 321.64 221.24 339.58 222.31 341.21 222.47
  Q 342.98 222.65 343.30 224.39
  Q 344.30 229.76 343.20 235.04
  Z"
/>
<path fill="#6f726c" fill-opacity="0.996" d="
  M 392.30 222.53
  L 369.29 223.25
  C 369.79 221.14 390.23 222.37 392.30 222.53
  Z"
/>
<path fill="#6f726c" fill-opacity="0.996" d="
  M 527.06 222.46
  Q 516.66 223.39 506.25 222.98
  Q 504.51 222.91 503.25 224.04
  L 503.00 223.96
  Q 503.74 222.35 506.00 222.25
  Q 518.37 221.72 527.06 222.46
  Z"
/>
<path fill="#6f726c" fill-opacity="0.996" d="
  M 550.36 242.26
  L 549.94 225.05
  A 1.89 1.76 -89.9 0 0 548.24 223.22
  L 537.92 222.86
  Q 543.19 221.36 548.51 222.50
  Q 550.37 222.90 550.52 224.79
  Q 551.23 233.37 550.36 242.26
  Z"
/>
<path fill="#6f726c" fill-opacity="0.996" d="
  M 568.48 222.92
  L 557.24 223.25
  A 1.07 1.02 -90.0 0 0 556.25 224.29
  L 555.71 241.56
  Q 554.91 233.60 555.26 225.56
  Q 555.40 222.38 558.58 222.20
  C 561.31 222.05 565.90 221.32 568.48 222.92
  Z"
/>
<path fill="#6f726c" fill-opacity="0.996" d="
  M 63.58 223.28
  Q 57.11 222.63 50.27 223.30
  Q 57.01 220.76 63.58 223.28
  Z"
/>
<path fill="#6f726c" fill-opacity="0.996" d="
  M 82.00 222.80
  L 70.29 223.00
  C 70.28 221.26 81.47 222.69 82.00 222.80
  Z"
/>
<path fill="#7f887a" fill-opacity="0.969" d="
  M 273.03 222.74
  L 254.50 222.96
  C 255.06 221.43 270.94 222.50 273.03 222.74
  Z"
/>
<path fill="#6f726c" fill-opacity="0.996" d="
  M 494.00 222.46
  Q 488.29 223.53 482.11 222.80
  Q 488.14 221.68 494.00 222.46
  Z"
/>
<path fill="#343738" fill-opacity="0.988" d="
  M 69.96 223.75
  Q 70.03 224.94 69.46 226.00
  Q 68.09 224.49 69.96 223.75
  Z"
/>
<path fill="#7f887a" fill-opacity="0.969" d="
  M 348.51 223.73
  Q 349.77 230.42 348.41 237.02
  Q 347.85 230.37 348.51 223.73
  Z"
/>
<path fill="#343738" fill-opacity="0.988" d="
  M 369.00 223.79
  Q 368.78 225.70 369.67 227.69
  Q 367.29 226.18 369.00 223.79
  Z"
/>
<path fill="#6f726c" fill-opacity="0.996" d="
  M 88.46 224.00
  Q 89.76 233.02 88.50 242.04
  Q 87.91 233.02 88.46 224.00
  Z"
/>
<path fill="#343738" fill-opacity="0.988" d="
  M 503.00 223.96
  L 503.25 224.04
  L 502.88 227.88
  Q 501.51 225.96 503.00 223.96
  Z"
/>
<path fill="#7f887a" fill-opacity="0.969" d="
  M 279.50 224.21
  Q 280.78 230.32 279.35 236.53
  L 279.50 224.21
  Z"
/>
<path fill="#525450" fill-opacity="0.996" d="
  M 253.96 225.25
  Q 254.36 233.65 253.49 242.08
  Q 252.96 233.74 253.51 225.50
  Q 253.53 225.17 253.96 225.25
  Z"
/>
<path fill="#6f726c" fill-opacity="0.996" d="
  M 274.20 225.19
  Q 275.97 230.45 274.02 235.56
  L 274.20 225.19
  Z"
/>
<path fill="#343738" fill-opacity="0.988" d="
  M 214.07 227.03
  Q 215.87 229.03 216.67 231.57
  Q 214.53 229.75 214.07 227.03
  Z"
/>
<path fill="#525450" fill-opacity="0.996" d="
  M 455.29 232.72
  Q 445.61 233.65 435.93 232.41
  Q 445.62 230.94 455.29 232.72
  Z"
/>
<path fill="#525450" fill-opacity="0.996" d="
  M 524.32 232.15
  Q 514.33 233.49 504.25 233.02
  A 1.22 0.89 16.4 0 0 503.38 233.33
  Q 502.66 234.13 502.96 235.50
  C 500.87 232.71 503.41 232.05 505.54 232.08
  Q 514.90 232.19 524.32 232.15
  Z"
/>
<path fill="#525450" fill-opacity="0.996" d="
  M 310.01 232.45
  Q 299.15 233.62 288.26 232.68
  Q 299.11 231.75 310.01 232.45
  Z"
/>
<path fill="#525450" fill-opacity="0.996" d="
  M 388.81 233.85
  Q 386.71 232.73 383.50 233.00
  Q 376.61 233.57 367.99 232.36
  Q 375.56 232.11 383.11 232.23
  C 385.45 232.27 387.19 231.82 388.81 233.85
  Z"
/>
<path fill="#6f726c" fill-opacity="0.996" d="
  M 462.54 233.25
  Q 463.57 235.42 462.59 237.80
  Q 461.70 235.55 462.54 233.25
  Z"
/>
<path fill="#7f887a" fill-opacity="0.969" d="
  M 415.83 235.17
  Q 416.49 239.11 415.46 242.00
  Q 414.28 238.55 415.83 235.17
  Z"
/>
<path fill="#343738" fill-opacity="0.988" d="
  M 219.25 235.96
  Q 219.95 236.74 220.96 237.00
  Q 219.10 238.76 219.25 235.96
  Z"
/>
<path fill="#343738" fill-opacity="0.988" d="
  M 288.79 236.75
  C 289.69 237.23 290.41 237.74 291.49 237.76
  Q 301.87 237.94 312.26 238.24
  A 1.30 1.11 -18.3 0 1 313.12 238.59
  Q 314.89 240.43 312.91 242.58
  Q 314.16 238.42 310.06 238.56
  C 306.12 238.70 288.81 239.31 288.79 236.75
  Z"
/>
<path fill="#343738" fill-opacity="0.988" d="
  M 100.22 238.19
  L 114.28 238.17
  Q 107.24 239.58 100.22 238.19
  Z"
/>
<path fill="#343738" fill-opacity="0.988" d="
  M 324.71 238.20
  L 340.25 238.04
  Q 332.51 239.54 324.71 238.20
  Z"
/>
<path fill="#343738" fill-opacity="0.988" d="
  M 386.00 238.04
  Q 375.17 239.05 364.21 238.43
  Q 375.11 237.65 386.00 238.04
  Z"
/>
<path fill="#343738" fill-opacity="0.988" d="
  M 454.50 238.04
  Q 445.30 239.27 438.25 238.75
  Q 434.65 238.49 432.25 239.54
  Q 431.88 238.95 432.22 238.43
  A 1.08 0.79 12.1 0 1 433.05 238.06
  L 454.50 238.04
  Z"
/>
<path fill="#343738" fill-opacity="0.988" d="
  M 216.04 241.00
  Q 217.67 241.31 218.00 242.96
  Q 216.56 242.44 216.04 241.00
  Z"
/>
<path fill="#525450" fill-opacity="0.996" d="
  M 410.04 241.25
  Q 411.25 241.64 411.25 242.96
  Q 409.61 242.96 410.04 241.25
  Z"
/>
<path fill="#343738" fill-opacity="0.988" d="
  M 431.96 242.27
  Q 438.72 241.69 445.32 242.08
  Q 445.80 242.11 448.51 241.86
  Q 450.37 241.70 451.75 242.72
  Q 441.83 243.40 431.96 242.27
  Z"
/>
<path fill="#343738" fill-opacity="0.988" d="
  M 114.27 242.76
  Q 105.63 243.23 96.97 242.40
  Q 105.69 241.25 114.27 242.76
  Z"
/>
<path fill="#343738" fill-opacity="0.988" d="
  M 336.32 242.64
  Q 332.47 243.21 328.74 242.95
  C 326.48 242.79 323.44 243.33 320.75 242.29
  Q 328.55 241.31 336.32 242.64
  Z"
/>
</svg>
