<?xml version="1.0" encoding="UTF-8" standalone="no"?>
<!DOCTYPE svg PUBLIC "-//W3C//DTD SVG 1.1//EN" "http://www.w3.org/Graphics/SVG/1.1/DTD/svg11.dtd">
<svg xmlns="http://www.w3.org/2000/svg" version="1.1" viewBox="0 0 600 300">
<g stroke-width="2.00" fill="none" stroke-linecap="butt">
<path stroke="#000000" vector-effect="non-scaling-stroke" d="
  M 273.21 271.00
  Q 273.65 269.73 273.29 268.50"
/>
<path stroke="#000000" vector-effect="non-scaling-stroke" d="
  M 272.29 269.50
  L 272.54 271.25"
/>
</g>
<path fill="#000000" d="
  M 115.83 44.58
  C 103.54 44.06 92.38 50.31 83.49 58.34
  Q 82.04 59.65 82.59 57.78
  Q 87.51 41.09 92.33 24.86
  Q 94.09 18.91 94.20 18.66
  C 99.44 6.58 107.37 13.85 109.66 21.96
  Q 112.73 32.86 116.19 44.11
  A 0.36 0.36 82.6 0 1 115.83 44.58
  Z"
/>
<path fill="#000000" d="
  M 146.77 112.10
  C 142.04 103.74 132.09 110.51 135.80 117.44
  C 146.75 137.93 150.90 166.79 138.19 187.19
  Q 134.40 193.26 126.48 195.14
  A 1.07 0.95 -30.0 0 1 125.60 194.96
  L 119.55 190.05
  A 0.88 0.81 44.7 0 0 118.49 190.01
  C 114.81 192.89 84.47 214.84 85.54 198.96
  Q 85.67 196.98 87.52 196.25
  Q 113.27 186.20 129.81 164.31
  C 133.32 159.67 127.39 153.05 122.18 155.49
  Q 120.53 156.26 118.03 159.29
  C 103.75 176.63 80.87 190.24 58.00 188.25
  Q 49.28 187.49 44.02 179.66
  A 1.06 0.98 -54.4 0 1 43.91 178.77
  L 48.35 165.23
  A 0.79 0.77 31.4 0 0 48.14 164.41
  Q 38.09 154.98 30.54 143.45
  C 29.15 141.34 27.99 139.14 29.27 136.63
  C 32.20 130.91 36.62 133.96 39.14 137.90
  Q 52.22 158.38 72.69 169.31
  C 77.31 171.78 82.49 165.88 80.56 161.34
  Q 79.78 159.49 76.92 157.66
  C 57.53 145.30 42.72 127.29 39.75 103.75
  Q 39.03 98.02 41.38 92.71
  C 42.59 89.99 43.84 89.68 46.66 90.42
  Q 48.62 90.94 49.36 89.05
  Q 54.40 76.27 63.19 64.69
  C 67.95 58.41 76.32 64.19 70.96 71.28
  Q 56.96 89.78 53.75 111.50
  C 52.78 118.06 61.54 121.74 65.07 115.91
  Q 65.72 114.83 66.36 111.82
  C 71.13 89.35 84.92 67.49 106.56 58.31
  Q 112.65 55.73 119.47 57.91
  A 1.00 0.96 89.1 0 1 120.09 58.53
  L 123.16 67.95
  A 0.74 0.72 83.0 0 0 123.81 68.47
  Q 135.66 69.27 146.99 72.77
  C 150.15 73.74 152.08 76.61 150.63 79.83
  C 148.88 83.75 145.45 82.80 141.80 81.77
  Q 122.38 76.28 102.94 79.94
  C 94.13 81.59 96.53 93.69 105.59 92.17
  C 114.99 90.60 124.73 91.13 134.56 92.94
  C 148.11 95.43 168.60 104.72 174.07 118.78
  A 0.65 0.61 63.3 0 1 173.84 119.55
  L 164.80 125.32
  A 1.61 1.49 -25.9 0 0 164.11 127.09
  C 166.26 133.58 171.41 155.83 167.35 161.45
  C 165.08 164.60 160.66 163.71 159.01 160.42
  C 158.21 158.83 158.51 156.82 158.49 155.25
  Q 158.09 132.08 146.77 112.10
  Z"
/>
<rect fill="#000000" x="498.26" y="74.24" width="31.48" height="9.76" rx="0.52"/>
<path fill="#000000" d="
  M 212.32 88.19
  L 252.38 88.25
  A 0.87 0.87 0.0 0 1 253.25 89.12
  L 253.25 161.31
  A 0.69 0.69 0.0 0 1 252.56 162.00
  L 240.14 162.08
  A 0.89 0.87 0.0 0 1 239.25 161.21
  L 239.31 103.68
  A 0.38 0.37 -0.0 0 0 238.93 103.31
  L 212.37 103.49
  A 0.87 0.86 89.7 0 1 211.50 102.62
  L 211.56 88.93
  A 0.75 0.74 0.4 0 1 212.32 88.19
  Z"
/>
<path fill="#000000" d="
  M 272.55 103.81
  L 272.51 116.85
  A 0.92 0.91 -0.3 0 0 273.44 117.76
  L 300.49 117.56
  A 0.75 0.75 -0.4 0 1 301.25 118.31
  L 301.25 132.08
  A 0.67 0.67 -0.2 0 1 300.58 132.75
  L 273.43 132.75
  A 0.93 0.93 0.0 0 0 272.50 133.68
  L 272.50 142.99
  Q 272.50 146.50 275.92 146.53
  L 302.48 146.74
  A 0.79 0.79 89.6 0 1 303.27 147.52
  L 303.43 161.29
  A 0.70 0.67 89.6 0 1 302.76 162.00
  Q 289.80 162.00 277.21 162.00
  C 269.06 162.00 262.77 159.47 259.81 151.75
  Q 258.50 148.34 258.50 140.09
  Q 258.50 114.84 258.50 88.92
  A 0.61 0.61 0.7 0 1 259.11 88.31
  L 302.57 88.19
  A 0.52 0.51 -0.6 0 1 303.09 88.69
  L 303.22 102.68
  A 0.82 0.80 -0.3 0 1 302.40 103.49
  L 273.06 103.32
  A 0.51 0.49 0.0 0 0 272.55 103.81
  Z"
/>
<path fill="#000000" d="
  M 306.00 113.75
  C 307.01 103.32 316.60 92.97 326.21 89.48
  Q 329.60 88.25 334.98 88.25
  Q 344.62 88.25 354.76 88.25
  A 0.68 0.68 0.0 0 1 355.44 88.93
  L 355.50 102.56
  A 0.95 0.94 0.0 0 1 354.55 103.50
  Q 345.08 103.50 335.47 103.50
  C 328.77 103.50 323.99 106.04 320.97 111.85
  C 318.58 116.45 319.75 126.67 319.75 132.00
  C 319.75 141.77 326.89 146.75 335.73 146.75
  Q 344.79 146.75 354.69 146.75
  A 0.81 0.81 0.0 0 1 355.50 147.56
  L 355.50 161.33
  A 0.67 0.67 -0.2 0 1 354.83 162.00
  Q 343.75 162.00 332.75 161.94
  C 319.46 161.86 306.01 147.24 305.93 134.29
  C 305.88 126.85 305.45 119.40 306.00 113.75
  Z"
/>
<path fill="#000000" d="
  M 375.31 117.69
  L 403.04 117.67
  A 0.96 0.95 -0.3 0 0 404.00 116.71
  L 403.81 88.80
  A 0.55 0.54 -90.0 0 1 404.35 88.25
  L 416.92 88.17
  A 0.77 0.75 0.0 0 1 417.69 88.92
  L 417.75 161.21
  A 0.73 0.73 -0.4 0 1 417.03 161.94
  L 404.79 162.07
  A 0.99 0.96 89.7 0 1 403.82 161.08
  L 403.99 133.62
  A 0.88 0.86 0.3 0 0 403.11 132.75
  L 375.57 132.75
  A 0.85 0.83 -89.7 0 0 374.74 133.59
  L 374.57 161.31
  A 0.54 0.51 -90.0 0 1 374.06 161.85
  L 361.44 161.84
  A 0.53 0.51 90.0 0 1 360.93 161.31
  L 360.76 89.10
  A 0.79 0.78 -0.7 0 1 361.54 88.31
  L 373.92 88.18
  A 0.83 0.82 89.7 0 1 374.75 89.01
  L 374.81 117.19
  A 0.50 0.50 0.0 0 0 375.31 117.69
  Z"
/>
<path fill="#000000" d="
  M 554.87 94.13
  C 559.80 87.49 564.72 88.25 573.78 88.29
  Q 583.78 88.33 593.52 88.07
  A 0.94 0.91 -0.3 0 1 594.48 88.99
  L 594.34 102.81
  A 0.55 0.53 -0.6 0 1 593.81 103.33
  Q 584.45 103.60 575.10 103.53
  C 570.86 103.49 567.17 104.39 567.97 109.44
  A 1.75 1.53 21.6 0 0 568.41 110.30
  Q 578.25 120.73 588.53 130.72
  C 598.51 140.42 595.38 162.53 578.75 162.23
  Q 565.87 162.00 552.20 162.00
  A 0.90 0.89 -0.3 0 1 551.30 161.12
  L 551.25 147.41
  A 0.66 0.66 0.4 0 1 551.92 146.75
  Q 561.66 146.79 570.96 146.71
  C 574.97 146.68 578.51 145.85 577.77 141.05
  A 1.74 1.53 22.9 0 0 577.36 140.20
  Q 568.16 130.00 558.02 120.74
  C 550.85 114.20 548.87 102.21 554.87 94.13
  Z"
/>
<path fill="#000000" d="
  M 436.56 104.07
  L 436.50 161.33
  A 0.67 0.66 -90.0 0 1 435.84 162.00
  L 423.31 162.00
  A 0.56 0.56 0.0 0 1 422.75 161.44
  L 422.75 88.75
  A 0.50 0.50 0.0 0 1 423.25 88.25
  Q 437.25 88.25 451.25 88.25
  C 463.08 88.25 475.73 102.30 477.13 113.46
  Q 477.24 114.38 477.28 123.54
  Q 477.35 142.42 477.07 161.31
  A 0.54 0.51 -89.4 0 1 476.56 161.84
  L 464.07 161.96
  A 0.51 0.51 -89.7 0 1 463.56 161.45
  Q 463.50 139.85 463.45 118.24
  Q 463.44 114.54 462.26 112.12
  C 457.12 101.52 446.32 103.21 437.06 103.54
  A 0.53 0.52 88.9 0 0 436.56 104.07
  Z"
/>
<path fill="#000000" d="
  M 483.81 108.62
  C 488.02 97.27 498.04 88.95 509.98 88.22
  Q 514.93 87.91 519.03 88.09
  C 533.69 88.71 546.31 103.84 546.14 117.81
  C 546.04 125.96 547.23 136.16 543.84 143.65
  C 539.99 152.12 529.72 162.00 520.00 162.00
  C 512.66 162.00 505.56 162.94 498.91 159.12
  C 489.76 153.87 482.09 143.98 482.40 133.15
  C 482.63 125.54 481.30 115.38 483.81 108.62
  Z
  M 532.3148 118.0430
  A 14.52 14.52 0.0 0 0 517.8456 103.4725
  L 510.7856 103.4478
  A 14.52 14.52 0.0 0 0 496.2150 117.9170
  L 496.1652 132.1970
  A 14.52 14.52 0.0 0 0 510.6344 146.7675
  L 517.6944 146.7922
  A 14.52 14.52 0.0 0 0 532.2650 132.3230
  L 532.3148 118.0430
  Z"
/>
<path fill="#000000" d="
  M 192.75 90.48
  C 197.30 90.49 205.43 93.64 201.54 99.85
  C 198.12 105.30 191.16 108.71 185.67 112.23
  A 0.47 0.46 59.6 0 1 185.01 112.05
  Q 177.70 98.87 164.69 91.70
  Q 161.97 90.20 165.08 90.25
  Q 179.00 90.46 192.75 90.48
  Z"
/>
<path fill="#000000" d="
  M 0.23 96.28
  C 1.60 88.14 22.35 90.50 28.27 90.25
  A 0.46 0.45 -82.7 0 1 28.72 90.84
  C 25.89 100.17 27.36 110.81 30.69 119.82
  Q 31.30 121.46 29.84 120.50
  Q 20.26 114.18 10.46 108.01
  C 6.72 105.66 -0.63 101.31 0.23 96.28
  Z"
/>
<rect fill="#000000" x="-6.36" y="-1.93" transform="translate(348.13,172.42) rotate(-0.6)" width="12.72" height="3.86" rx="0.43"/>
<path fill="#000000" d="
  M 137.68 204.70
  A 0.45 0.45 -39.7 0 1 137.75 203.96
  C 148.37 198.09 153.97 186.22 156.25 174.74
  Q 156.75 172.23 157.54 174.66
  Q 162.57 190.08 168.46 206.42
  C 170.52 212.12 173.75 224.21 163.81 223.44
  Q 160.52 223.18 156.00 219.52
  Q 147.22 212.41 137.68 204.70
  Z"
/>
<path fill="#000000" d="
  M 237.49 182.09
  L 227.86 182.24
  A 0.63 0.60 89.6 0 1 227.25 181.61
  L 227.25 177.03
  A 1.01 0.98 -89.7 0 1 228.24 176.02
  L 243.06 176.17
  A 0.54 0.52 88.9 0 1 243.58 176.69
  Q 243.88 189.54 243.76 202.40
  C 243.74 203.97 244.54 206.44 241.72 205.65
  A 1.95 1.65 -40.8 0 0 240.78 205.66
  Q 239.69 205.94 238.74 205.45
  A 0.89 0.78 -78.1 0 1 238.31 204.69
  L 238.26 182.81
  A 0.76 0.73 -0.8 0 0 237.49 182.09
  Z"
/>
<path fill="#000000" d="
  M 252.31 199.04
  Q 257.54 200.07 261.25 199.50
  Q 264.20 199.05 264.12 201.36
  C 264.07 202.73 264.11 203.96 263.84 204.96
  A 0.72 0.70 5.5 0 1 263.19 205.48
  Q 260.98 205.61 253.75 205.50
  C 247.23 205.40 246.00 202.31 246.00 196.23
  Q 246.00 186.66 246.00 176.68
  A 0.67 0.65 -89.6 0 1 246.66 176.01
  L 263.06 176.17
  A 0.72 0.70 80.9 0 1 263.73 176.67
  Q 264.50 179.13 263.72 181.60
  A 0.69 0.68 -81.3 0 1 263.07 182.09
  L 252.25 182.22
  A 0.73 0.68 0.0 0 0 251.52 182.90
  L 251.54 187.12
  A 0.67 0.64 -0.4 0 0 252.21 187.75
  L 262.24 187.75
  A 0.76 0.76 0.0 0 1 263.00 188.51
  L 263.00 193.01
  A 0.98 0.93 -89.2 0 1 262.04 193.99
  L 252.41 193.76
  A 0.81 0.68 -0.2 0 0 251.58 194.46
  L 251.70 198.44
  A 0.76 0.59 6.6 0 0 252.31 199.04
  Z"
/>
<path fill="#000000" d="
  M 265.03 187.00
  C 265.10 182.62 268.78 178.19 272.73 176.71
  C 275.83 175.55 280.44 176.00 284.09 176.00
  A 0.66 0.66 0.2 0 1 284.75 176.66
  L 284.75 181.59
  A 0.66 0.66 0.4 0 1 284.08 182.25
  C 273.98 182.15 269.65 181.18 270.33 193.49
  C 270.75 201.17 279.22 199.33 284.07 199.65
  A 0.62 0.51 2.8 0 1 284.65 200.18
  L 284.54 205.19
  A 0.58 0.49 1.6 0 1 283.94 205.67
  C 276.33 205.39 270.00 206.76 266.11 198.73
  C 264.45 195.32 264.96 190.91 265.03 187.00
  Z"
/>
<path fill="#000000" d="
  M 292.56 194.57
  L 292.44 204.94
  A 0.58 0.48 -89.1 0 1 291.94 205.52
  L 287.42 205.42
  A 0.62 0.49 89.9 0 1 286.94 204.81
  L 286.82 177.07
  A 0.92 0.76 78.4 0 1 287.23 176.30
  C 288.40 175.67 292.71 175.23 292.56 177.54
  C 292.34 180.72 292.50 184.05 292.50 187.25
  A 0.59 0.58 -0.0 0 0 293.09 187.83
  L 303.24 187.76
  A 1.08 1.06 -89.7 0 0 304.29 186.70
  L 304.41 176.68
  A 0.59 0.51 -89.5 0 1 304.93 176.09
  L 309.21 176.20
  A 0.60 0.49 -89.5 0 1 309.69 176.80
  Q 309.80 190.53 309.80 204.25
  Q 309.80 206.35 307.96 205.69
  Q 307.75 205.62 307.02 205.61
  L 304.79 205.57
  A 0.64 0.48 89.8 0 1 304.32 204.94
  L 304.09 194.43
  A 0.51 0.50 -1.1 0 0 303.57 193.94
  L 293.06 194.05
  A 0.52 0.51 89.4 0 0 292.56 194.57
  Z"
/>
<path fill="#000000" d="
  M 317.31 182.82
  L 317.25 204.76
  A 0.95 0.94 -80.3 0 1 315.99 205.66
  Q 314.64 205.18 312.98 205.76
  A 1.08 1.06 80.6 0 1 311.57 204.73
  L 311.73 177.01
  A 0.98 0.96 89.4 0 1 312.66 176.04
  C 317.51 175.91 323.62 175.18 327.60 177.72
  Q 332.74 181.00 333.50 186.98
  C 333.97 190.66 333.58 199.46 333.33 205.07
  A 0.56 0.51 -88.3 0 1 332.81 205.61
  L 330.99 205.57
  Q 330.46 205.56 330.04 205.69
  Q 328.94 206.05 328.15 205.31
  A 1.19 0.92 -71.8 0 1 327.84 204.44
  C 328.06 199.13 327.80 193.93 327.87 188.62
  C 327.94 182.68 322.86 181.26 317.80 182.20
  A 0.64 0.60 85.1 0 0 317.31 182.82
  Z"
/>
<path fill="#000000" d="
  M 360.94 193.97
  A 11.67 11.67 0.0 0 1 349.27 205.64
  L 347.27 205.64
  A 11.67 11.67 0.0 0 1 335.60 193.97
  L 335.60 187.75
  A 11.67 11.67 0.0 0 1 347.27 176.08
  L 349.27 176.08
  A 11.67 11.67 0.0 0 1 360.94 187.75
  L 360.94 193.97
  Z
  M 355.5051 187.9425
  A 5.71 5.71 0.0 0 0 349.8051 182.2225
  L 346.9251 182.2175
  A 5.71 5.71 0.0 0 0 341.2051 187.9175
  L 341.1949 193.7775
  A 5.71 5.71 0.0 0 0 346.8949 199.4975
  L 349.7749 199.5025
  A 5.71 5.71 0.0 0 0 355.4949 193.8025
  L 355.5051 187.9425
  Z"
/>
<path fill="#000000" d="
  M 363.25 184.35
  C 361.45 173.76 374.20 176.00 379.84 176.00
  A 0.66 0.66 0.2 0 1 380.50 176.66
  L 380.50 181.59
  A 0.67 0.66 0.0 0 1 379.83 182.25
  L 371.06 182.31
  Q 367.42 182.34 370.50 185.50
  C 374.41 189.51 385.35 197.56 378.18 204.01
  C 375.27 206.64 367.94 205.68 363.93 205.41
  A 0.84 0.78 2.0 0 1 363.14 204.63
  L 363.11 200.18
  A 0.62 0.51 -2.8 0 1 363.69 199.65
  C 365.36 199.52 377.67 200.79 372.56 195.69
  C 369.29 192.42 363.93 188.30 363.25 184.35
  Z"
/>
<path fill="#000000" d="
  M 402.42 176.53
  Q 404.65 175.89 406.94 176.23
  A 0.60 0.58 -86.1 0 1 407.44 176.82
  Q 407.55 184.91 407.50 193.00
  C 407.45 201.52 400.87 207.01 392.42 205.65
  A 0.67 0.60 4.6 0 1 391.86 205.06
  L 391.79 200.60
  A 1.45 1.26 4.8 0 1 393.47 199.38
  C 398.28 200.13 401.70 198.62 401.79 193.47
  Q 401.93 185.33 401.94 177.19
  A 0.69 0.67 82.2 0 1 402.42 176.53
  Z"
/>
<path fill="#000000" d="
  M 423.99 187.95
  L 423.73 183.11
  A 1.04 0.91 -1.5 0 0 422.70 182.25
  L 411.97 182.25
  A 0.54 0.46 -0.5 0 1 411.43 181.80
  L 411.36 176.68
  A 0.62 0.52 -2.3 0 1 411.94 176.15
  C 418.49 175.69 428.98 173.51 429.36 183.54
  Q 429.76 194.30 429.33 205.06
  A 0.55 0.55 -0.6 0 1 428.81 205.59
  C 423.49 205.90 412.30 207.68 411.50 200.25
  C 410.57 191.59 413.53 187.22 422.55 189.01
  A 1.20 1.06 5.0 0 0 423.99 187.95
  Z
  M 423.9356 195.8930
  A 0.99 0.99 0.0 0 0 422.9353 194.9134
  L 417.8355 194.9668
  A 0.99 0.99 0.0 0 0 416.8560 195.9671
  L 416.8844 198.6870
  A 0.99 0.99 0.0 0 0 417.8847 199.6666
  L 422.9845 199.6132
  A 0.99 0.99 0.0 0 0 423.9640 198.6129
  L 423.9356 195.8930
  Z"
/>
<path fill="#000000" d="
  M 438.54 194.45
  L 438.50 205.00
  A 0.78 0.78 -82.1 0 1 437.51 205.75
  Q 435.88 205.30 434.26 205.75
  A 1.00 1.00 -7.6 0 1 433.00 204.79
  L 433.00 176.89
  A 0.86 0.86 -0.7 0 1 433.84 176.03
  C 442.58 175.78 451.24 173.44 450.84 185.86
  Q 450.58 193.73 440.61 192.62
  Q 438.54 192.40 438.54 194.45
  Z
  M 445.36 183.14
  A 0.89 0.89 0.0 0 0 444.47 182.25
  L 439.35 182.25
  A 0.89 0.89 0.0 0 0 438.46 183.14
  L 438.46 185.84
  A 0.89 0.89 0.0 0 0 439.35 186.73
  L 444.47 186.73
  A 0.89 0.89 0.0 0 0 445.36 185.84
  L 445.36 183.14
  Z"
/>
<path fill="#000000" d="
  M 466.46 188.18
  L 466.45 183.31
  A 1.12 1.06 0.0 0 0 465.33 182.25
  L 454.77 182.25
  A 0.93 0.82 0.6 0 1 453.84 181.41
  L 453.95 176.55
  A 0.65 0.52 -0.2 0 1 454.57 176.05
  C 461.91 175.86 471.50 173.65 471.85 183.24
  Q 472.26 194.15 471.83 205.05
  A 0.56 0.54 -90.0 0 1 471.31 205.59
  C 467.03 205.81 456.31 207.83 454.31 201.17
  C 452.79 196.10 453.75 189.27 460.40 188.90
  Q 463.17 188.74 465.94 188.69
  A 0.52 0.50 -0.5 0 0 466.46 188.18
  Z
  M 466.4872 195.6313
  A 0.73 0.73 0.0 0 0 465.7471 194.9116
  L 460.2076 194.9889
  A 0.73 0.73 0.0 0 0 459.4879 195.7290
  L 459.5328 198.9487
  A 0.73 0.73 0.0 0 0 460.2729 199.6684
  L 465.8124 199.5911
  A 0.73 0.73 0.0 0 0 466.5321 198.8510
  L 466.4872 195.6313
  Z"
/>
<path fill="#000000" d="
  M 481.31 182.81
  L 481.49 204.86
  A 0.78 0.69 -1.7 0 1 480.75 205.55
  L 477.04 205.74
  A 1.21 1.01 -1.6 0 1 475.76 204.74
  L 475.93 176.68
  A 0.55 0.52 -1.8 0 1 476.45 176.16
  C 484.07 175.75 492.60 174.62 496.50 183.02
  C 499.09 188.60 497.37 197.63 497.86 204.00
  Q 498.03 206.25 495.73 205.65
  Q 495.24 205.52 494.78 205.64
  C 491.21 206.60 492.26 203.93 492.23 202.05
  Q 492.12 195.19 492.11 188.31
  C 492.10 181.56 486.86 182.74 482.24 182.00
  A 0.81 0.80 -85.8 0 0 481.31 182.81
  Z"
/>
<path fill="#000000" d="
  M 510.07 192.23
  C 509.91 201.29 518.20 199.35 523.94 199.54
  A 0.57 0.50 2.1 0 1 524.49 200.06
  L 524.29 205.19
  A 0.56 0.47 3.9 0 1 523.69 205.63
  Q 522.21 205.52 519.25 205.75
  Q 509.44 206.51 505.78 198.39
  C 504.38 195.29 504.11 187.64 505.34 184.28
  C 508.61 175.33 515.85 175.88 523.94 176.05
  A 0.53 0.53 0.0 0 1 524.46 176.57
  L 524.49 181.55
  A 0.73 0.71 -0.0 0 1 523.76 182.26
  C 514.26 182.15 510.28 180.66 510.07 192.23
  Z"
/>
<path fill="#000000" d="
  M 551.6809 194.1347
  A 11.66 11.66 0.0 0 1 539.8794 205.6514
  L 537.8395 205.6264
  A 11.66 11.66 0.0 0 1 526.3228 193.8249
  L 526.3991 187.5853
  A 11.66 11.66 0.0 0 1 538.2006 176.0686
  L 540.2405 176.0936
  A 11.66 11.66 0.0 0 1 551.7572 187.8951
  L 551.6809 194.1347
  Z
  M 546.2549 187.9075
  A 5.70 5.70 0.0 0 0 540.5449 182.2175
  L 537.6449 182.2225
  A 5.70 5.70 0.0 0 0 531.9549 187.9325
  L 531.9651 193.8125
  A 5.70 5.70 0.0 0 0 537.6751 199.5025
  L 540.5751 199.4975
  A 5.70 5.70 0.0 0 0 546.2651 193.7875
  L 546.2549 187.9075
  Z"
/>
<path fill="#000000" d="
  M 560.30 194.07
  Q 560.08 201.88 560.31 204.19
  Q 560.52 206.17 558.72 205.66
  Q 558.53 205.61 557.76 205.59
  L 555.30 205.55
  A 0.60 0.50 -89.5 0 1 554.81 204.95
  L 554.75 176.87
  A 0.88 0.87 -0.0 0 1 555.63 176.00
  C 565.24 176.00 576.18 173.96 571.91 189.52
  A 1.59 1.23 -54.0 0 0 571.94 190.45
  C 573.27 193.74 572.49 200.63 572.67 204.44
  A 0.94 0.81 75.4 0 1 572.28 205.24
  C 571.00 206.03 566.86 206.19 567.10 203.60
  C 567.35 201.01 567.27 198.36 567.33 195.75
  C 567.41 192.06 562.53 192.46 560.75 193.32
  A 0.88 0.78 79.2 0 0 560.30 194.07
  Z
  M 567.1611 183.1802
  A 1.02 1.02 0.0 0 0 566.1501 182.1514
  L 561.2703 182.1088
  A 1.02 1.02 0.0 0 0 560.2414 183.1199
  L 560.2189 185.6998
  A 1.02 1.02 0.0 0 0 561.2299 186.7286
  L 566.1097 186.7712
  A 1.02 1.02 0.0 0 0 567.1386 185.7601
  L 567.1611 183.1802
  Z"
/>
<path fill="#000000" d="
  M 581.29 194.47
  L 581.25 204.83
  A 0.90 0.90 -80.9 0 1 580.07 205.69
  Q 578.51 205.17 577.00 205.67
  A 0.96 0.95 81.0 0 1 575.75 204.76
  L 575.75 176.96
  A 0.94 0.94 -0.9 0 1 576.66 176.02
  C 585.18 175.79 593.79 173.46 593.61 185.56
  Q 593.48 193.81 583.38 192.65
  Q 581.30 192.41 581.29 194.47
  Z
  M 588.0654 183.0443
  A 0.94 0.94 0.0 0 0 587.1156 182.1142
  L 582.1558 182.1661
  A 0.94 0.94 0.0 0 0 581.2257 183.1159
  L 581.2546 185.8757
  A 0.94 0.94 0.0 0 0 582.2044 186.8058
  L 587.1642 186.7539
  A 0.94 0.94 0.0 0 0 588.0943 185.8041
  L 588.0654 183.0443
  Z"
/>
<path fill="#000000" d="
  M 39.59 193.31
  C 48.12 200.22 58.03 201.85 68.90 200.41
  Q 70.94 200.15 69.32 201.41
  Q 57.82 210.43 46.90 219.14
  C 35.68 228.10 29.10 222.07 33.44 209.52
  Q 36.22 201.48 38.73 193.56
  A 0.54 0.54 28.6 0 1 39.59 193.31
  Z"
/>
<rect fill="#000000" x="-2.77" y="-2.75" transform="translate(591.52,202.75) rotate(-0.5)" width="5.54" height="5.50" rx="0.35"/>
<path fill="#000000" d="
  M 273.21 271.00
  Q 273.65 269.73 273.29 268.50
  L 273.19 242.06
  A 0.47 0.39 83.5 0 0 272.69 241.59
  Q 272.31 241.69 272.16 242.08
  A 1.43 0.64 -78.5 0 1 271.63 242.82
  Q 266.40 245.79 262.31 240.94
  C 255.93 233.35 245.92 233.38 239.35 240.43
  C 232.15 248.14 232.22 260.95 238.87 268.77
  C 245.30 276.34 255.27 276.52 262.05 269.31
  Q 264.13 267.10 265.31 266.70
  C 267.67 265.91 271.90 266.28 272.29 269.50
  L 272.54 271.25
  L 272.23 272.44
  Q 272.03 273.18 271.91 273.36
  C 263.95 285.24 248.41 288.43 236.54 280.44
  C 217.03 267.30 219.77 234.66 241.96 226.60
  Q 250.55 223.48 258.59 226.29
  Q 266.60 229.09 272.74 236.90
  Q 273.25 237.55 273.25 236.73
  C 273.25 231.72 271.70 223.61 279.75 224.98
  C 282.65 225.47 283.47 227.37 283.54 230.22
  Q 284.06 251.67 283.55 273.71
  A 0.79 0.78 0.7 0 0 284.34 274.51
  L 319.82 274.77
  A 0.78 0.75 11.9 0 0 320.54 274.32
  Q 330.26 252.74 339.75 231.99
  C 341.94 227.20 343.25 223.13 349.14 225.36
  Q 350.65 225.94 351.32 227.40
  Q 362.91 252.77 374.06 277.69
  C 377.45 285.25 367.41 287.76 364.56 281.44
  Q 356.47 263.49 353.40 257.02
  A 0.82 0.75 76.4 0 0 352.70 256.55
  L 340.42 256.51
  A 0.91 0.89 -76.8 0 0 339.59 257.04
  Q 333.84 269.72 328.04 282.12
  C 326.05 286.36 322.59 284.43 319.24 284.76
  C 306.38 286.02 292.03 285.02 279.00 285.05
  C 270.90 285.08 273.28 276.12 273.21 271.00
  Z
  M 346.21 242.54
  Q 342.61 247.80 348.02 246.15
  A 0.46 0.45 70.6 0 0 348.31 245.53
  L 347.11 242.63
  Q 346.75 241.75 346.21 242.54
  Z"
/>
<path fill="#000000" d="
  M 410.29 256.20
  Q 408.09 254.58 405.36 254.42
  Q 399.63 254.10 392.50 254.26
  C 371.81 254.74 371.25 224.94 392.75 224.80
  Q 401.38 224.75 410.00 224.78
  C 416.95 224.80 418.01 234.78 409.78 235.09
  Q 401.02 235.42 392.25 235.30
  C 385.13 235.21 386.02 244.00 391.75 244.00
  C 402.40 244.00 412.79 242.50 420.44 251.56
  C 428.81 261.49 425.63 277.59 413.76 283.02
  C 405.90 286.62 390.35 285.16 381.48 284.82
  C 374.74 284.56 374.77 274.74 382.00 274.65
  Q 392.60 274.52 403.19 274.50
  Q 408.22 274.49 410.53 273.12
  C 416.72 269.43 415.81 260.29 410.29 256.20
  Z"
/>
<path fill="#000000" d="
  M 463.94 257.81
  C 457.52 251.01 445.69 256.32 437.55 253.03
  C 425.53 248.19 425.36 231.33 437.28 226.24
  Q 440.75 224.76 449.41 224.74
  C 452.77 224.74 462.82 223.93 465.24 225.78
  Q 466.49 226.75 466.91 228.75
  Q 468.26 235.11 460.75 235.18
  Q 452.63 235.25 444.50 235.25
  C 439.31 235.25 436.10 240.81 441.29 243.41
  C 443.96 244.75 451.98 244.02 455.25 244.04
  Q 467.46 244.11 473.69 253.56
  C 480.32 263.64 476.27 278.36 465.10 283.19
  Q 461.57 284.72 454.66 284.92
  Q 436.26 285.47 432.31 284.94
  C 426.41 284.14 426.92 274.21 434.25 274.32
  C 440.42 274.41 457.22 276.10 462.10 273.14
  C 467.23 270.04 468.03 262.15 463.94 257.81
  Z"
/>
<rect fill="#000000" x="483.28" y="224.82" width="10.48" height="60.16" rx="4.78"/>
<path fill="#000000" d="
  M 550.94 241.57
  Q 550.36 241.76 549.52 242.75
  A 2.69 2.64 -78.1 0 1 548.29 243.57
  C 542.06 245.58 540.74 240.01 536.39 237.52
  C 523.61 230.21 512.04 241.79 511.93 254.50
  C 511.79 269.94 527.45 282.27 540.46 269.06
  Q 542.62 266.88 543.91 266.49
  C 548.82 265.00 552.70 269.31 549.39 274.05
  C 536.49 292.50 511.23 285.84 503.56 266.69
  C 497.88 252.47 504.00 232.44 519.35 226.71
  C 531.73 222.08 543.18 226.61 550.80 237.17
  Q 551.11 237.59 551.28 237.10
  Q 554.17 228.83 560.59 226.08
  C 566.15 223.71 577.50 224.75 584.75 224.75
  C 591.63 224.75 592.53 235.30 583.50 235.28
  C 579.28 235.26 566.89 234.20 563.63 235.97
  C 559.87 238.01 561.77 243.87 566.50 243.93
  C 577.40 244.06 587.81 242.51 595.44 252.06
  Q 600.55 258.47 599.40 267.24
  C 596.46 289.51 572.83 284.89 557.25 285.14
  C 549.13 285.27 549.18 274.61 556.50 274.57
  Q 567.46 274.51 578.42 274.50
  Q 582.55 274.50 584.82 273.22
  C 590.92 269.76 590.78 259.85 584.80 256.07
  C 578.90 252.34 569.37 255.30 562.59 253.75
  Q 553.71 251.72 551.54 242.05
  A 0.59 0.44 75.5 0 0 550.94 241.57
  Z"
/>
<path fill="#000000" d="
  M 273.29 268.50
  Q 273.65 269.73 273.21 271.00
  Q 272.83 270.99 272.54 271.25
  L 272.29 269.50
  Q 273.61 270.22 273.29 268.50
  Z"
/>
</svg>
