<?xml version="1.0" encoding="UTF-8" standalone="no"?>
<!DOCTYPE svg PUBLIC "-//W3C//DTD SVG 1.1//EN" "http://www.w3.org/Graphics/SVG/1.1/DTD/svg11.dtd">
<svg xmlns="http://www.w3.org/2000/svg" version="1.1" viewBox="0 0 600 300">
<rect fill="#ee0000" x="413.01" y="49.00" width="115.98" height="7.00" rx="2.82"/>
<path fill="#000000" d="
  M 232.52 56.93
  A 0.96 0.95 8.1 0 1 233.44 56.25
  L 251.94 56.25
  A 0.50 0.50 8.2 0 1 252.42 56.89
  L 248.30 70.64
  A 1.24 1.21 8.2 0 1 247.12 71.50
  L 229.48 71.50
  A 0.99 0.98 8.1 0 1 228.53 70.24
  L 232.52 56.93
  Z"
/>
<path fill="#000000" d="
  M 63.81 128.31
  C 58.51 145.41 43.08 157.68 24.75 157.13
  C 7.30 156.61 -1.15 144.68 4.63 127.89
  A 0.95 0.94 -80.4 0 1 5.52 127.25
  L 23.09 127.25
  A 0.95 0.95 -81.8 0 1 24.00 128.47
  Q 20.58 140.13 32.19 140.44
  C 37.69 140.58 42.71 132.05 44.07 127.65
  Q 54.04 95.53 63.42 63.54
  A 1.10 1.09 -81.9 0 1 64.47 62.75
  L 82.81 62.75
  A 0.53 0.53 8.2 0 1 83.32 63.43
  Q 73.71 96.39 63.81 128.31
  Z"
/>
<path fill="#000000" d="
  M 253.14 101.61
  L 246.15 101.72
  A 0.68 0.65 -82.1 0 1 245.52 100.85
  L 249.50 87.24
  A 0.95 0.82 6.1 0 1 250.36 86.65
  L 257.80 86.42
  A 1.47 1.28 -81.5 0 0 259.03 85.37
  L 263.58 70.00
  A 0.69 0.68 7.8 0 1 264.24 69.50
  L 282.94 69.56
  A 0.38 0.38 8.4 0 1 283.31 70.05
  L 278.61 85.92
  A 0.46 0.46 -81.3 0 0 279.04 86.51
  L 287.87 86.68
  A 0.38 0.37 8.7 0 1 288.23 87.16
  L 283.98 101.09
  A 0.71 0.70 -82.0 0 1 283.32 101.59
  L 274.57 101.82
  A 0.72 0.65 7.2 0 0 273.91 102.28
  L 263.75 136.51
  Q 263.01 138.98 265.50 139.84
  Q 268.13 140.75 270.99 139.83
  Q 272.61 139.31 272.24 140.99
  L 269.19 154.69
  A 1.44 1.38 -89.4 0 1 268.13 155.77
  C 258.46 157.92 243.97 158.74 242.71 145.92
  Q 242.33 141.96 245.29 131.43
  Q 249.32 117.07 253.89 102.55
  A 0.76 0.72 7.7 0 0 253.14 101.61
  Z"
/>
<path fill="#ee0000" d="
  M 600.00 75.06
  L 600.00 78.07
  Q 598.14 80.56 594.98 80.27
  Q 592.04 80.00 591.99 80.00
  Q 500.53 80.05 409.81 79.94
  Q 407.36 79.94 407.06 77.50
  C 406.47 72.65 408.87 73.00 412.69 73.00
  Q 503.96 73.00 595.23 73.00
  C 597.45 73.00 599.09 72.48 600.00 75.06
  Z"
/>
<path fill="#000000" d="
  M 284.35 122.13
  C 290.10 101.44 305.39 83.85 328.75 85.75
  C 343.72 86.97 347.15 101.27 343.90 113.59
  Q 342.20 120.02 339.74 127.25
  A 1.10 1.10 -80.8 0 1 338.70 128.00
  L 303.89 128.00
  A 0.82 0.81 5.6 0 0 303.09 128.65
  C 299.61 146.51 323.38 139.84 331.26 136.34
  A 0.39 0.38 -14.2 0 1 331.81 136.66
  L 332.43 148.94
  A 0.85 0.78 -17.5 0 1 332.00 149.69
  C 308.10 163.41 273.71 160.42 284.35 122.13
  Z
  M 307.62 114.42
  L 322.74 114.71
  A 2.13 1.99 -80.7 0 0 324.72 113.18
  Q 325.87 109.28 325.75 105.98
  Q 325.65 103.09 322.81 102.54
  C 314.61 100.93 309.97 107.44 307.35 113.99
  A 0.31 0.30 -78.0 0 0 307.62 114.42
  Z"
/>
<path fill="#000000" d="
  M 377.53 94.57
  Q 376.96 97.02 378.43 94.95
  C 383.70 87.55 388.83 87.34 397.22 86.28
  A 0.31 0.31 7.3 0 1 397.55 86.70
  L 390.45 104.03
  A 0.83 0.80 -81.1 0 1 389.76 104.55
  C 379.87 105.36 375.18 104.11 371.90 115.26
  Q 366.14 134.87 359.95 155.23
  A 1.09 1.08 8.2 0 1 358.91 156.00
  L 340.73 156.00
  A 0.56 0.56 9.3 0 1 340.19 155.28
  L 360.54 87.41
  A 0.70 0.68 -81.7 0 1 361.18 86.92
  L 378.83 86.69
  A 0.45 0.43 -83.7 0 1 379.25 87.24
  L 377.53 94.57
  Z"
/>
<path fill="#000000" d="
  M 109.09 147.67
  Q 109.23 145.60 107.92 147.19
  C 101.50 154.90 89.41 160.28 80.13 155.13
  C 71.09 150.11 73.43 135.38 76.11 126.89
  C 80.26 113.73 84.00 100.42 88.02 87.20
  A 0.73 0.72 7.9 0 1 88.72 86.68
  L 107.30 86.68
  A 0.52 0.51 8.3 0 1 107.80 87.34
  Q 101.25 108.96 95.00 130.50
  C 91.78 141.60 100.19 142.17 107.56 138.31
  C 110.78 136.63 110.69 135.62 111.81 131.88
  Q 118.49 109.74 125.04 87.63
  A 1.31 1.27 7.9 0 1 126.27 86.73
  L 144.49 86.57
  A 0.52 0.51 7.8 0 1 145.00 87.23
  L 124.46 156.34
  A 0.76 0.75 -84.0 0 1 123.82 156.87
  Q 116.80 157.63 108.94 156.99
  A 0.52 0.51 4.4 0 1 108.46 156.44
  L 109.09 147.67
  Z"
/>
<path fill="#000000" d="
  M 173.15 92.66
  Q 172.87 93.97 173.93 93.08
  C 181.35 86.84 192.72 83.62 200.61 90.33
  C 213.12 100.97 203.11 128.37 196.46 139.17
  C 190.22 149.31 182.67 155.60 171.00 157.00
  Q 161.45 158.15 157.00 150.17
  Q 156.67 149.58 156.48 150.23
  L 146.92 182.54
  A 0.66 0.62 -81.6 0 1 146.33 183.01
  L 128.11 183.23
  A 0.98 0.95 -81.9 0 1 127.19 181.97
  L 155.50 87.24
  A 0.69 0.69 -81.4 0 1 156.16 86.75
  L 173.66 86.75
  A 0.64 0.62 -83.6 0 1 174.26 87.53
  L 173.15 92.66
  Z
  M 183.58 102.63
  Q 182.16 101.61 180.41 101.72
  C 174.92 102.08 170.18 104.42 168.54 109.89
  Q 164.80 122.36 161.06 134.83
  Q 160.18 137.73 162.94 139.00
  C 179.21 146.46 185.71 120.11 186.42 109.26
  Q 186.70 104.87 183.58 102.63
  Z"
/>
<path fill="#000000" d="
  M 223.43 87.20
  A 0.65 0.64 8.5 0 1 224.05 86.75
  L 242.81 86.68
  A 0.51 0.51 8.1 0 1 243.30 87.33
  L 223.01 155.19
  A 1.13 1.12 -81.7 0 1 221.93 156.00
  L 203.52 156.00
  A 0.54 0.54 8.1 0 1 203.00 155.31
  L 223.43 87.20
  Z"
/>
<rect fill="#ee0000" x="400.02" y="97.00" width="198.98" height="7.00" rx="3.48"/>
<rect fill="#ee0000" x="394.02" y="122.00" width="113.96" height="7.00" rx="3.47"/>
<rect fill="#ee0000" x="388.03" y="146.00" width="113.94" height="7.00" rx="3.43"/>
<rect fill="#ee0000" x="383.01" y="169.00" width="113.98" height="7.00" rx="2.80"/>
<path fill="#000000" d="
  M 280.01 215.49
  C 284.04 200.21 291.69 182.89 310.31 183.05
  C 319.46 183.14 325.42 187.12 324.75 197.00
  Q 324.54 200.03 323.77 201.86
  A 0.85 0.73 -76.8 0 1 323.06 202.38
  L 318.24 202.43
  A 0.79 0.75 -78.3 0 1 317.56 201.33
  C 319.37 197.04 318.87 192.46 314.78 189.74
  C 304.43 182.87 292.67 197.27 289.75 206.00
  C 287.40 213.00 278.87 233.58 292.06 236.29
  C 300.54 238.03 308.38 230.79 311.14 223.28
  A 0.90 0.61 -76.1 0 1 311.79 222.70
  L 316.78 222.64
  A 0.73 0.67 -79.8 0 1 317.39 223.61
  Q 311.52 240.24 295.41 241.49
  C 277.63 242.87 276.51 228.77 280.01 215.49
  Z"
/>
<path fill="#000000" d="
  M 260.44 225.56
  L 241.51 225.50
  A 1.33 1.25 -72.8 0 0 240.43 226.11
  L 231.41 240.25
  A 1.68 1.65 16.3 0 1 230.01 241.00
  L 225.59 241.00
  Q 223.90 241.00 224.81 239.57
  L 259.92 184.11
  A 1.06 0.70 -67.3 0 1 260.68 183.60
  L 265.69 183.71
  A 0.62 0.53 89.3 0 1 266.21 184.31
  L 268.03 240.14
  A 0.84 0.84 89.3 0 1 267.19 241.00
  L 262.96 241.00
  A 1.57 1.48 89.0 0 1 261.48 239.48
  L 260.99 226.07
  A 0.55 0.53 -1.1 0 0 260.44 225.56
  Z
  M 259.63 195.99
  L 244.57 219.64
  Q 244.02 220.50 245.04 220.50
  L 260.34 220.50
  A 0.69 0.67 89.2 0 0 261.01 219.79
  L 260.43 196.22
  Q 260.40 194.79 259.63 195.99
  Z"
/>
<path fill="#000000" d="
  M 332.31 235.94
  L 357.06 236.18
  A 0.54 0.52 -1.1 0 1 357.60 236.68
  Q 357.70 238.81 356.49 240.53
  A 1.01 0.93 15.9 0 1 355.68 240.94
  L 324.73 241.00
  A 1.00 0.99 -81.7 0 1 323.78 239.72
  L 340.28 184.41
  A 1.27 1.27 8.3 0 1 341.50 183.50
  L 372.38 183.50
  A 0.92 0.86 -82.4 0 1 373.20 184.64
  L 372.45 187.64
  A 1.14 1.07 -82.3 0 1 371.40 188.50
  L 346.31 188.56
  A 0.69 0.68 -81.3 0 0 345.66 189.05
  L 339.96 207.88
  A 0.51 0.49 8.1 0 0 340.45 208.51
  L 361.82 208.67
  A 0.50 0.50 -88.3 0 1 362.31 209.19
  Q 362.25 211.24 361.21 213.01
  A 0.91 0.89 15.3 0 1 360.44 213.44
  L 338.82 213.44
  A 0.66 0.61 7.7 0 0 338.20 213.88
  L 331.94 235.45
  A 0.39 0.38 8.5 0 0 332.31 235.94
  Z"
/>
<rect fill="#ee0000" x="377.01" y="194.00" width="113.98" height="7.00" rx="3.18"/>
<rect fill="#ee0000" x="369.00" y="218.00" width="113.98" height="7.00" rx="2.79"/>
<rect fill="#ee0000" x="362.02" y="244.00" width="113.96" height="7.00" rx="3.47"/>
</svg>
