<?xml version="1.0" encoding="UTF-8" standalone="no"?>
<!DOCTYPE svg PUBLIC "-//W3C//DTD SVG 1.1//EN" "http://www.w3.org/Graphics/SVG/1.1/DTD/svg11.dtd">
<svg xmlns="http://www.w3.org/2000/svg" version="1.1" viewBox="0 0 600 300">
<path fill="#000000" d="
  M 271.13 112.58
  C 260.48 89.58 281.23 71.33 300.55 64.90
  C 315.35 59.98 335.56 58.42 351.19 60.56
  Q 354.70 61.04 353.74 65.06
  Q 351.87 72.89 350.14 80.76
  C 349.40 84.13 347.31 82.74 347.25 79.90
  C 347.03 69.70 340.34 64.26 330.60 64.81
  C 306.62 66.17 286.92 86.27 289.25 110.75
  C 290.56 124.53 305.05 130.84 317.46 127.18
  A 1.26 1.18 -0.6 0 0 318.29 126.39
  L 325.13 103.73
  A 1.46 1.38 43.5 0 0 325.08 102.79
  Q 323.61 99.17 319.68 98.79
  C 318.57 98.69 315.46 99.52 316.52 97.19
  A 0.81 0.75 11.3 0 1 317.24 96.75
  L 352.93 96.81
  A 0.58 0.52 -1.6 0 1 353.51 97.30
  Q 353.59 98.69 352.00 98.74
  Q 346.01 98.94 344.35 104.53
  Q 340.99 115.84 337.10 126.97
  A 1.02 1.00 -0.2 0 1 336.46 127.60
  C 316.67 134.18 282.15 136.36 271.13 112.58
  Z"
/>
<path fill="#000000" d="
  M 65.44 108.56
  L 40.36 108.51
  A 2.45 2.40 -67.4 0 0 38.59 109.26
  Q 34.50 113.50 30.88 116.87
  C 28.70 118.91 22.63 125.01 27.24 127.37
  Q 28.62 128.07 30.15 128.30
  Q 33.45 128.79 32.57 130.12
  A 1.04 0.81 12.8 0 1 31.76 130.50
  Q 20.02 130.50 8.28 130.50
  C 7.50 130.50 7.00 130.23 7.23 129.40
  A 1.06 0.77 -5.4 0 1 7.91 128.80
  Q 14.77 126.81 20.31 121.31
  Q 49.80 92.05 79.33 62.83
  Q 80.62 61.55 82.34 60.71
  A 1.33 1.33 76.3 0 1 84.26 61.88
  Q 84.66 88.92 84.52 116.31
  C 84.49 122.50 83.66 126.91 90.12 128.37
  C 90.87 128.54 93.44 128.26 91.78 130.09
  A 1.19 1.05 18.8 0 1 90.94 130.44
  L 55.19 130.32
  A 0.47 0.42 4.6 0 1 54.72 129.82
  Q 54.97 128.34 57.25 128.50
  C 67.41 129.19 65.93 117.15 65.94 109.07
  A 0.51 0.50 90.0 0 0 65.44 108.56
  Z
  M 66.29 82.90
  A 0.31 0.31 -18.0 0 0 65.76 82.67
  L 44.17 103.74
  A 0.31 0.31 -64.7 0 0 44.38 104.28
  L 65.45 104.26
  A 0.31 0.31 -89.3 0 0 65.76 103.95
  L 66.29 82.90
  Z"
/>
<path fill="#000000" d="
  M 407.52 68.52
  Q 411.59 64.44 416.07 60.80
  Q 418.22 59.07 418.26 61.83
  Q 418.66 88.82 418.52 116.33
  C 418.49 123.09 417.88 127.52 425.50 128.50
  Q 427.64 128.77 426.09 130.12
  A 1.44 1.28 21.9 0 1 425.19 130.44
  L 389.25 130.50
  Q 387.14 130.50 388.94 129.19
  C 390.31 128.18 391.52 128.53 392.96 128.37
  C 401.86 127.38 400.00 115.29 400.18 109.03
  A 0.72 0.70 0.8 0 0 399.46 108.31
  L 374.56 108.33
  A 1.36 1.18 20.9 0 0 373.69 108.65
  C 369.17 112.76 363.07 117.97 359.96 123.25
  Q 358.94 124.97 360.28 126.46
  Q 362.20 128.59 365.68 128.57
  A 1.45 1.03 -16.9 0 1 366.57 128.87
  C 368.03 130.18 366.01 130.50 365.15 130.50
  Q 354.08 130.50 343.00 130.50
  Q 340.84 130.50 341.49 129.18
  A 1.19 0.91 1.5 0 1 342.24 128.64
  Q 347.21 127.53 350.19 124.94
  C 360.60 115.85 373.92 101.96 382.17 93.79
  Q 394.88 81.19 407.52 68.52
  Z
  M 400.28 83.05
  A 0.32 0.32 -21.5 0 0 399.73 82.82
  L 378.43 103.68
  A 0.32 0.32 -66.9 0 0 378.65 104.22
  L 399.73 104.45
  A 0.32 0.32 0.5 0 0 400.06 104.13
  L 400.28 83.05
  Z"
/>
<path fill="#000000" d="
  M 189.43 76.09
  Q 190.23 73.66 188.61 75.63
  Q 165.56 103.57 144.47 129.46
  Q 143.17 131.07 141.27 130.38
  A 0.94 0.82 -87.6 0 1 140.72 129.69
  L 130.52 74.02
  Q 130.26 72.59 129.82 73.97
  Q 122.48 97.33 115.81 119.85
  C 113.99 126.01 118.60 128.57 124.00 128.51
  A 1.33 1.01 -16.7 0 1 124.88 128.84
  C 125.94 129.99 124.26 130.50 123.37 130.50
  Q 110.68 130.50 98.00 130.50
  Q 95.84 130.50 96.49 129.18
  A 0.95 0.78 7.9 0 1 97.24 128.72
  Q 107.88 128.06 111.31 117.31
  Q 119.06 93.04 126.89 68.31
  A 0.78 0.77 -61.4 0 0 126.65 67.49
  Q 122.06 63.66 116.25 64.20
  A 1.24 0.90 -19.1 0 1 115.35 63.93
  C 114.47 63.04 115.79 62.32 116.64 62.31
  Q 130.47 62.20 145.39 62.25
  A 1.20 1.20 -4.9 0 1 146.56 63.23
  L 154.94 108.28
  Q 155.10 109.13 155.64 108.47
  L 193.00 63.05
  A 2.21 2.16 -69.8 0 1 194.68 62.25
  L 222.94 62.31
  A 0.79 0.65 -7.5 0 1 223.66 62.76
  C 223.99 63.73 222.94 64.18 222.11 64.18
  C 211.22 64.10 210.13 70.66 207.00 80.46
  Q 201.10 98.91 195.27 117.38
  Q 194.25 120.62 194.00 124.02
  Q 193.84 126.24 195.81 127.26
  Q 198.16 128.46 201.24 128.29
  Q 204.47 128.10 203.06 130.10
  A 1.04 0.92 15.5 0 1 202.24 130.50
  L 161.06 130.44
  A 0.77 0.69 -9.3 0 1 160.36 129.99
  Q 159.80 128.54 161.56 128.56
  C 173.66 128.75 174.73 122.39 178.05 111.64
  Q 183.75 93.24 189.43 76.09
  Z"
/>
<path fill="#000000" d="
  M 255.39 129.06
  Q 255.67 129.55 255.28 130.08
  A 1.15 0.84 13.2 0 1 254.43 130.44
  L 213.31 130.44
  A 0.67 0.59 -5.3 0 1 212.67 129.97
  Q 212.35 128.43 214.50 128.56
  C 222.14 129.02 224.74 125.04 227.06 118.13
  Q 237.00 88.55 242.00 70.00
  C 243.38 64.89 236.44 64.22 232.57 64.19
  A 0.81 0.72 -9.5 0 1 231.84 63.73
  Q 231.31 62.35 233.25 62.34
  Q 253.35 62.21 273.44 62.31
  A 0.57 0.51 -0.5 0 1 274.01 62.81
  C 274.03 63.79 273.28 64.19 272.36 64.16
  Q 263.48 63.92 260.75 72.25
  Q 254.33 91.85 245.76 120.40
  C 243.54 127.78 248.18 128.62 254.56 128.69
  A 1.05 0.70 -9.7 0 1 255.39 129.06
  Z"
/>
<path fill="#000000" d="
  M 499.80 161.14
  C 511.86 160.19 511.47 169.62 511.06 178.24
  C 510.58 188.48 502.42 191.78 493.50 191.68
  Q 477.00 191.50 460.50 191.27
  Q 453.27 191.16 448.56 187.44
  C 442.42 182.57 443.25 176.73 443.25 169.65
  A 0.87 0.85 -89.7 0 1 444.11 168.78
  L 460.32 168.92
  A 0.52 0.47 -89.4 0 1 460.79 169.45
  C 460.67 175.26 463.99 177.50 469.54 177.50
  C 474.34 177.50 490.19 178.71 493.63 176.37
  C 497.12 174.00 494.87 168.43 491.30 167.01
  C 487.48 165.48 477.22 166.50 472.38 166.50
  A 1.08 1.04 0.3 0 1 471.30 165.45
  L 471.40 155.69
  A 0.56 0.53 -0.6 0 1 471.94 155.17
  C 476.29 154.99 485.86 155.97 489.46 154.34
  C 493.66 152.45 495.63 145.00 489.50 144.25
  Q 485.89 143.81 475.32 143.93
  C 467.37 144.02 461.29 142.87 460.83 152.07
  A 0.54 0.52 -88.2 0 1 460.31 152.58
  L 444.33 152.72
  A 1.05 1.03 88.9 0 1 443.29 151.70
  C 443.15 147.23 442.78 142.91 444.74 139.01
  Q 448.77 131.00 458.00 130.25
  Q 467.59 129.47 490.80 130.07
  Q 500.11 130.31 503.41 132.05
  C 510.67 135.90 509.40 144.03 509.15 151.50
  C 508.98 156.53 506.45 158.83 501.88 159.95
  Q 500.72 160.23 499.72 160.90
  Q 499.29 161.18 499.80 161.14
  Z"
/>
<path fill="#000000" d="
  M 589.19 142.76
  C 590.21 143.90 589.75 150.73 589.75 152.53
  Q 589.75 156.89 588.55 159.77
  C 583.27 172.46 573.77 171.25 560.17 171.25
  Q 552.59 171.25 545.00 171.25
  Q 539.17 171.25 536.51 175.32
  A 1.38 1.28 -35.0 0 0 536.31 176.25
  Q 536.71 178.43 539.06 178.44
  Q 564.16 178.55 589.25 178.50
  A 0.50 0.50 0.0 0 1 589.75 179.00
  L 589.75 190.65
  A 0.85 0.85 -0.0 0 1 588.90 191.50
  L 520.24 191.50
  A 0.99 0.99 0.0 0 1 519.25 190.51
  Q 519.25 180.38 519.25 170.25
  C 519.25 161.00 530.38 156.73 538.50 157.25
  Q 544.72 157.65 565.32 157.07
  C 576.21 156.76 575.29 143.92 565.75 143.96
  Q 554.75 144.00 543.75 144.00
  C 537.92 144.00 537.74 147.97 536.58 152.21
  A 0.67 0.65 7.4 0 1 535.94 152.69
  L 519.91 152.75
  A 0.67 0.66 90.0 0 1 519.25 152.08
  C 519.25 145.84 518.12 140.06 523.25 135.32
  Q 528.96 130.03 537.25 130.02
  Q 553.88 130.00 570.50 130.00
  Q 584.36 130.00 588.65 141.96
  Q 588.77 142.29 589.19 142.76
  Z"
/>
<path fill="#000000" d="
  M 429.75 213.50
  C 429.75 224.90 421.11 235.72 409.91 237.90
  Q 408.11 238.25 394.55 238.26
  Q 364.31 238.29 334.07 238.19
  A 0.51 0.51 0.0 0 1 333.56 237.68
  L 333.50 147.39
  A 1.09 1.09 0.3 0 1 334.60 146.30
  Q 370.22 146.64 405.00 146.50
  C 416.44 146.46 426.06 154.31 428.86 164.91
  Q 429.75 168.29 429.75 182.66
  Q 429.75 198.08 429.75 213.50
  Z
  M 404.78 212.79
  C 408.95 207.36 407.70 192.59 407.63 181.25
  C 407.55 170.35 400.85 166.75 391.10 166.75
  Q 373.67 166.75 356.18 166.75
  A 0.68 0.68 0.0 0 0 355.50 167.43
  L 355.50 216.94
  A 0.99 0.99 -0.6 0 0 356.51 217.93
  Q 372.29 217.65 388.42 217.72
  C 396.29 217.76 400.43 218.46 404.78 212.79
  Z"
/>
<path fill="#000000" d="
  M 258.00 217.70
  Q 272.38 217.78 286.77 217.76
  C 294.60 217.74 298.15 213.51 297.42 205.35
  A 1.70 1.69 -2.6 0 1 299.11 203.50
  L 318.74 203.50
  A 1.26 1.25 89.3 0 1 319.99 204.73
  C 320.23 218.62 319.78 231.37 305.04 236.91
  Q 301.66 238.18 296.15 238.20
  Q 273.34 238.28 250.54 238.26
  C 238.62 238.24 231.07 233.71 226.69 222.06
  Q 225.21 218.14 225.22 216.25
  Q 225.25 192.50 225.25 168.76
  C 225.25 165.77 226.20 163.70 227.32 161.07
  Q 232.03 149.96 242.19 147.29
  Q 245.18 146.50 260.38 146.50
  Q 276.87 146.50 293.36 146.50
  Q 299.46 146.50 302.98 147.80
  C 317.50 153.16 318.70 166.65 317.95 180.21
  A 1.10 1.10 -88.3 0 1 316.85 181.25
  L 296.66 181.25
  A 1.17 1.17 -88.6 0 1 295.49 180.02
  C 295.86 171.84 291.39 169.08 283.84 168.90
  Q 271.17 168.59 258.50 168.73
  C 249.29 168.83 247.75 174.51 247.75 182.73
  Q 247.75 194.10 247.75 205.47
  C 247.75 213.09 249.94 217.66 258.00 217.70
  Z"
/>
</svg>
