<?xml version="1.0" encoding="UTF-8" standalone="no"?>
<!DOCTYPE svg PUBLIC "-//W3C//DTD SVG 1.1//EN" "http://www.w3.org/Graphics/SVG/1.1/DTD/svg11.dtd">
<svg xmlns="http://www.w3.org/2000/svg" version="1.1" viewBox="0 0 600 300">
<ellipse fill="#000000" cx="0.00" cy="0.00" transform="translate(279.88,33.92) rotate(-0.5)" rx="25.12" ry="24.53"/>
<path fill="#000000" d="
  M 199.18 88.30
  A 0.87 0.86 56.5 0 0 197.86 88.02
  C 165.20 115.00 146.12 162.18 140.62 203.46
  A 0.99 0.98 3.6 0 1 139.64 204.31
  L 96.35 204.31
  A 0.43 0.42 14.1 0 1 95.97 203.69
  L 177.80 52.94
  Q 178.29 52.04 178.81 52.93
  L 197.94 85.57
  A 0.79 0.79 54.4 0 0 199.13 85.77
  C 212.01 74.86 225.44 64.01 242.21 58.91
  C 243.15 58.63 245.71 58.74 243.32 60.33
  C 228.82 69.99 216.06 83.83 204.79 97.48
  A 0.55 0.55 51.2 0 1 203.88 97.38
  L 199.18 88.30
  Z"
/>
<path fill="#000000" d="
  M 599.88 138.30
  A 80.83 72.65 0.0 0 1 519.05 210.95
  A 80.83 72.65 0.0 0 1 438.22 138.30
  A 80.83 72.65 0.0 0 1 519.05 65.65
  A 80.83 72.65 0.0 0 1 599.88 138.30
  Z
  M 567.95 138.44
  A 48.89 48.89 0.0 0 0 519.06 89.55
  A 48.89 48.89 0.0 0 0 470.17 138.44
  A 48.89 48.89 0.0 0 0 519.06 187.33
  A 48.89 48.89 0.0 0 0 567.95 138.44
  Z"
/>
<path fill="#000000" d="
  M 84.61 97.57
  A 1.38 1.37 -6.0 0 0 83.25 99.24
  Q 83.66 101.10 83.65 103.00
  Q 83.50 153.00 83.50 203.40
  A 0.85 0.84 -90.0 0 1 82.66 204.25
  L 51.81 204.19
  A 0.51 0.50 90.0 0 1 51.31 203.68
  L 51.25 98.37
  A 1.06 1.05 90.0 0 0 50.20 97.31
  L 0.82 97.25
  A 0.56 0.55 0.5 0 1 0.26 96.69
  L 0.43 70.69
  A 0.51 0.50 -90.0 0 1 0.93 70.18
  L 132.68 70.00
  A 1.09 1.07 90.0 0 1 133.75 71.09
  L 133.82 96.82
  A 0.92 0.90 -89.7 0 1 132.91 97.74
  L 84.61 97.57
  Z"
/>
<path fill="#000000" d="
  M 389.06 98.45
  L 389.00 203.58
  A 0.67 0.67 -0.2 0 1 388.33 204.25
  L 357.26 204.32
  A 0.51 0.51 0.0 0 1 356.75 203.81
  L 356.75 98.12
  A 0.87 0.87 0.0 0 0 355.88 97.25
  L 306.25 97.25
  A 0.50 0.50 0.0 0 1 305.75 96.75
  L 305.75 70.69
  A 0.69 0.69 0.0 0 1 306.44 70.00
  L 439.00 70.00
  A 0.50 0.50 0.0 0 1 439.50 70.50
  L 439.50 96.84
  A 0.91 0.91 0.4 0 1 438.59 97.75
  L 389.77 97.75
  A 0.71 0.70 0.0 0 0 389.06 98.45
  Z"
/>
<rect fill="#000000" x="264.76" y="70.75" width="32.74" height="132.40" rx="0.76"/>
<path fill="#000000" d="
  M 204.55 99.18
  A 0.89 0.88 51.7 0 1 205.98 99.35
  L 262.35 202.97
  A 0.36 0.36 75.5 0 1 262.04 203.50
  L 174.77 203.50
  A 0.75 0.74 -1.2 0 1 174.02 202.79
  C 172.55 167.10 179.91 126.48 204.55 99.18
  Z"
/>
<path fill="#000000" d="
  M 594.89 251.88
  A 32.10 32.10 0.0 0 1 562.79 283.98
  L 38.21 283.98
  A 32.10 32.10 0.0 0 1 6.11 251.88
  L 6.11 251.12
  A 32.10 32.10 0.0 0 1 38.21 219.02
  L 562.79 219.02
  A 32.10 32.10 0.0 0 1 594.89 251.12
  L 594.89 251.88
  Z
  M 62.80 267.45
  A 2.48 2.47 -75.9 0 1 61.50 265.27
  Q 61.50 253.34 61.50 242.48
  C 61.50 238.90 61.10 236.56 64.82 235.59
  C 70.30 234.16 78.36 234.34 76.84 242.62
  A 1.13 1.11 -84.8 0 0 77.93 243.95
  L 90.59 244.00
  A 0.64 0.63 -86.4 0 0 91.22 243.44
  C 93.01 229.03 78.00 227.84 67.97 227.98
  C 61.20 228.07 46.25 229.41 46.25 239.25
  Q 46.25 247.82 46.25 256.40
  Q 46.25 265.18 46.85 267.04
  C 50.63 278.70 73.93 276.54 82.24 274.07
  C 90.50 271.62 91.88 266.56 91.23 258.31
  A 0.56 0.54 87.7 0 0 90.69 257.79
  L 77.69 257.91
  A 0.56 0.54 -88.8 0 0 77.16 258.44
  L 76.77 265.45
  A 2.49 2.46 -11.1 0 1 75.33 267.56
  Q 68.68 270.64 62.80 267.45
  Z
  M 135.80 267.44
  Q 135.13 248.01 135.68 228.81
  A 0.79 0.79 -89.3 0 0 134.89 228.00
  L 121.36 228.00
  A 0.86 0.86 -89.6 0 0 120.50 228.86
  L 120.50 274.41
  A 0.59 0.59 0.0 0 0 121.09 275.00
  L 159.51 275.00
  A 0.99 0.99 0.0 0 0 160.50 274.01
  L 160.50 269.02
  A 1.04 1.03 0.3 0 0 159.47 267.99
  L 136.32 267.94
  A 0.52 0.51 -0.6 0 1 135.80 267.44
  Z
  M 216.56 266.79
  L 219.00 274.34
  A 0.75 0.71 -8.2 0 0 219.69 274.83
  L 233.54 275.06
  A 0.59 0.58 81.7 0 0 234.10 274.29
  L 219.11 228.57
  A 0.83 0.82 80.6 0 0 218.33 228.00
  L 197.64 228.00
  A 1.24 1.23 -80.8 0 0 196.47 228.85
  L 181.72 274.10
  A 0.65 0.64 -80.4 0 0 182.32 274.95
  L 194.58 274.99
  A 1.26 1.16 -81.2 0 0 195.73 274.07
  L 197.79 266.83
  A 1.09 1.09 -81.6 0 1 198.85 266.04
  L 215.93 266.28
  A 0.73 0.64 80.1 0 1 216.56 266.79
  Z
  M 257.81 235.22
  C 249.21 248.87 278.38 254.14 283.94 260.56
  C 291.20 268.97 277.54 270.02 273.25 268.25
  Q 269.83 266.84 270.59 262.46
  A 1.21 1.16 -85.3 0 0 269.44 261.04
  L 256.68 261.16
  A 0.59 0.56 -87.7 0 0 256.13 261.69
  Q 255.26 270.93 263.50 273.75
  C 272.17 276.72 290.25 277.86 297.96 271.24
  C 303.10 266.83 301.49 260.46 296.67 256.42
  C 291.66 252.22 286.10 250.50 278.69 246.81
  C 258.23 236.62 287.66 228.93 286.72 241.15
  A 0.79 0.79 2.3 0 0 287.51 242.00
  L 299.89 242.00
  A 1.24 1.24 86.2 0 0 301.12 240.59
  Q 299.89 231.74 292.04 229.61
  C 283.20 227.20 263.65 225.95 257.81 235.22
  Z
  M 345.69 256.06
  C 348.95 257.34 355.14 260.69 354.93 264.81
  C 354.66 270.21 337.92 271.71 339.59 262.48
  A 1.22 1.19 -84.6 0 0 338.43 261.04
  L 325.81 261.05
  A 0.59 0.57 -86.0 0 0 325.24 261.56
  Q 324.05 270.37 331.81 273.44
  C 340.15 276.73 367.14 279.22 369.98 265.88
  C 372.80 252.65 346.46 250.49 341.36 241.75
  C 336.85 234.02 356.38 231.39 355.72 241.15
  A 0.80 0.80 -88.3 0 0 356.52 242.00
  L 369.18 242.00
  A 0.82 0.82 0.0 0 0 370.00 241.18
  C 369.99 228.85 355.17 227.52 346.07 227.99
  C 339.18 228.35 330.86 228.79 326.81 235.22
  C 320.17 245.77 338.98 253.43 345.69 256.06
  Z
  M 411.51 228.42
  A 0.41 0.41 0.0 0 0 411.10 228.01
  L 396.90 228.01
  A 0.41 0.41 0.0 0 0 396.49 228.42
  L 396.49 274.58
  A 0.41 0.41 0.0 0 0 396.90 274.99
  L 411.10 274.99
  A 0.41 0.41 0.0 0 0 411.51 274.58
  L 411.51 228.42
  Z
  M 455.43 267.25
  A 1.77 1.77 13.0 0 1 454.50 265.76
  Q 454.04 254.06 454.46 242.36
  C 454.57 239.24 453.91 236.79 457.67 235.62
  Q 463.46 233.83 468.62 236.69
  A 1.36 1.35 -86.4 0 1 469.25 237.41
  Q 470.32 240.21 470.05 243.25
  A 0.50 0.45 -87.6 0 0 470.49 243.79
  L 483.56 243.85
  A 0.61 0.57 -86.0 0 0 484.13 243.32
  Q 485.52 232.12 474.50 229.50
  C 465.81 227.43 451.04 226.67 443.56 231.81
  Q 439.25 234.78 439.25 238.75
  Q 439.25 251.00 439.00 263.25
  C 438.71 277.83 463.44 276.97 472.30 274.91
  C 481.80 272.71 485.32 268.76 484.03 258.81
  A 1.18 1.14 86.1 0 0 482.88 257.78
  L 470.69 257.91
  A 0.56 0.53 -88.3 0 0 470.16 258.44
  L 469.77 265.45
  A 2.49 2.46 -11.1 0 1 468.33 267.56
  Q 461.68 270.64 455.43 267.25
  Z
  M 531.66 256.11
  Q 537.01 258.33 538.94 260.56
  C 546.17 268.95 532.54 270.02 528.25 268.25
  Q 524.83 266.84 525.60 262.45
  A 1.21 1.18 -85.1 0 0 524.44 261.04
  L 511.81 261.05
  A 0.58 0.57 -86.0 0 0 511.24 261.55
  C 508.86 279.04 537.71 277.03 547.45 274.08
  C 555.30 271.70 559.68 263.51 552.81 257.44
  Q 547.31 252.57 539.07 249.42
  C 535.27 247.97 523.79 242.68 527.15 237.75
  C 530.16 233.31 542.31 233.55 541.72 241.15
  A 0.79 0.79 2.3 0 0 542.51 242.00
  L 555.17 242.00
  A 0.83 0.83 0.2 0 0 556.00 241.17
  C 555.99 228.85 541.16 227.52 532.07 227.99
  C 525.18 228.35 516.86 228.79 512.81 235.22
  C 506.17 245.78 524.90 253.31 531.66 256.11
  Z"
/>
<path fill="#000000" d="
  M 200.07 259.53
  L 206.78 237.52
  A 0.37 0.37 45.3 0 1 207.48 237.52
  L 214.19 259.53
  A 0.37 0.37 -62.7 0 1 213.84 260.00
  L 200.42 260.00
  A 0.37 0.37 0.0 0 1 200.07 259.53
  Z"
/>
</svg>
