<?xml version="1.0" encoding="UTF-8" standalone="no"?>
<!DOCTYPE svg PUBLIC "-//W3C//DTD SVG 1.1//EN" "http://www.w3.org/Graphics/SVG/1.1/DTD/svg11.dtd">
<svg xmlns="http://www.w3.org/2000/svg" version="1.1" viewBox="0.00 0.00 600.00 300.00">
<path fill="#000000" d="
  M 0.00 157.98
  L 0.00 155.18
  C 3.20 123.99 36.00 112.93 62.69 116.86
  Q 68.51 117.71 72.43 122.01
  A 0.57 0.57 0.0 0 0 73.34 121.92
  L 75.79 117.86
  A 0.73 0.73 0.0 0 1 76.42 117.50
  L 88.65 117.50
  Q 89.30 117.50 89.15 118.13
  L 83.73 141.32
  A 0.56 0.55 -83.4 0 1 83.19 141.75
  L 71.23 141.75
  Q 70.53 141.75 70.52 141.05
  C 70.45 138.35 70.81 135.38 69.98 133.03
  C 67.65 126.44 59.63 124.61 53.23 125.17
  C 40.60 126.29 32.35 135.90 29.25 147.69
  C 26.45 158.33 26.39 167.79 37.51 172.73
  Q 39.99 173.84 43.90 173.69
  C 54.66 173.30 55.70 169.26 57.41 159.54
  A 2.44 2.44 0.0 0 0 55.08 156.68
  L 46.89 156.43
  A 0.46 0.46 0.0 0 1 46.46 155.86
  L 48.30 148.30
  A 0.73 0.73 0.0 0 1 49.01 147.75
  L 94.14 147.75
  Q 94.71 147.75 94.58 148.30
  L 92.73 156.07
  A 0.61 0.60 7.1 0 1 92.13 156.53
  C 85.02 156.27 82.56 156.04 80.79 162.98
  Q 78.56 171.74 76.61 180.61
  A 1.14 1.14 0.0 0 1 75.50 181.50
  L 66.19 181.50
  A 1.31 1.30 -5.7 0 1 64.91 180.46
  L 64.10 176.58
  Q 63.98 176.01 63.50 176.34
  Q 58.13 180.12 51.27 181.47
  C 32.52 185.17 2.15 182.78 0.00 157.98
  Z"
/>
<path fill="#000000" d="
  M 451.19 126.19
  Q 435.25 126.32 431.74 141.64
  Q 431.56 142.40 430.83 142.14
  L 419.69 138.19
  A 0.40 0.40 0.0 0 1 419.46 137.64
  L 429.07 118.04
  Q 429.36 117.45 430.02 117.44
  L 499.93 117.17
  Q 500.45 117.17 500.54 117.68
  L 504.15 138.96
  A 0.73 0.72 79.9 0 1 503.57 139.80
  L 490.99 142.23
  A 0.54 0.54 0.0 0 1 490.38 141.52
  C 494.18 131.12 488.20 124.82 477.57 126.49
  Q 477.15 126.55 477.05 126.97
  Q 469.89 157.20 467.24 169.24
  C 466.22 173.87 477.19 172.81 479.45 172.59
  A 0.52 0.51 4.4 0 1 480.00 173.22
  L 478.16 180.76
  A 0.97 0.97 0.0 0 1 477.22 181.50
  L 426.07 181.50
  A 0.69 0.69 0.0 0 1 425.40 180.65
  L 427.21 173.25
  Q 427.33 172.77 427.81 172.77
  C 432.03 172.77 440.63 173.97 441.96 168.60
  Q 447.14 147.77 451.68 126.79
  Q 451.82 126.18 451.19 126.19
  Z"
/>
<path fill="#000000" d="
  M 122.53 160.95
  L 116.75 169.68
  A 1.75 1.75 0.0 0 0 118.13 172.39
  L 127.04 172.80
  A 0.39 0.39 0.0 0 1 127.40 173.28
  L 125.65 180.44
  A 1.40 1.39 6.8 0 1 124.29 181.50
  L 87.24 181.28
  A 0.34 0.33 6.7 0 1 86.91 180.87
  L 88.77 173.25
  A 0.70 0.69 -84.5 0 1 89.42 172.71
  C 95.69 172.53 99.12 172.82 102.97 167.20
  Q 119.81 142.61 136.61 117.98
  Q 136.93 117.50 137.51 117.50
  L 165.98 117.50
  A 0.59 0.58 -4.6 0 1 166.56 117.99
  Q 170.66 141.31 174.78 164.75
  C 176.19 172.80 178.96 173.14 186.45 172.63
  A 0.51 0.51 0.0 0 1 186.98 173.26
  L 185.24 180.51
  A 1.30 1.28 -83.1 0 1 183.99 181.50
  L 137.35 181.50
  A 0.51 0.51 0.0 0 1 136.86 180.87
  L 138.72 173.15
  Q 138.82 172.75 139.23 172.74
  L 147.36 172.49
  Q 151.08 172.37 150.42 168.71
  L 149.02 160.99
  A 0.60 0.60 0.0 0 0 148.43 160.50
  L 123.35 160.50
  A 0.98 0.97 -73.4 0 0 122.53 160.95
  Z
  M 128.56 151.79
  A 0.31 0.31 0.0 0 0 128.81 152.28
  L 146.98 152.26
  A 0.31 0.31 0.0 0 0 147.29 151.89
  L 143.28 131.40
  A 0.31 0.31 0.0 0 0 142.72 131.29
  L 128.56 151.79
  Z"
/>
<path fill="#000000" d="
  M 286.37 128.86
  A 0.27 0.27 0.0 0 0 285.88 128.66
  L 254.90 180.69
  A 1.65 1.65 0.0 0 1 253.48 181.50
  L 235.27 181.50
  A 0.82 0.82 0.0 0 1 234.46 180.78
  L 227.70 129.88
  Q 227.38 127.48 226.84 129.84
  L 217.72 169.36
  A 2.53 2.52 8.1 0 0 220.04 172.44
  L 227.32 172.83
  Q 227.79 172.86 227.68 173.32
  L 225.91 180.82
  A 0.80 0.79 -82.7 0 1 225.13 181.43
  L 187.44 181.35
  A 0.55 0.55 0.0 0 1 186.91 180.67
  L 188.74 173.26
  Q 188.90 172.64 189.54 172.67
  C 194.01 172.89 202.15 173.96 203.55 168.22
  Q 207.81 150.77 211.65 133.22
  C 212.06 131.33 213.47 128.43 211.34 126.99
  C 209.32 125.62 202.69 126.25 200.14 126.25
  A 0.41 0.41 0.0 0 1 199.74 125.75
  L 201.57 118.03
  Q 201.70 117.50 202.24 117.50
  L 250.71 117.50
  A 0.52 0.51 86.9 0 1 251.22 117.96
  L 255.24 155.15
  A 0.40 0.40 0.0 0 0 255.99 155.31
  L 277.65 117.96
  Q 277.92 117.50 278.46 117.50
  L 326.80 117.50
  Q 327.43 117.50 327.28 118.11
  L 325.44 125.68
  A 0.71 0.70 -83.6 0 1 324.77 126.22
  C 319.09 126.33 312.28 124.14 310.50 131.42
  Q 305.92 150.12 301.75 168.82
  Q 300.93 172.48 304.68 172.56
  L 313.99 172.76
  Q 314.45 172.77 314.34 173.22
  L 312.56 180.81
  A 0.52 0.52 0.0 0 1 312.07 181.20
  L 264.02 181.50
  A 0.84 0.84 0.0 0 1 263.20 180.46
  L 264.93 173.27
  Q 265.04 172.82 265.50 172.80
  C 270.06 172.63 275.49 173.47 276.64 168.73
  Q 281.55 148.63 286.37 128.86
  Z"
/>
<path fill="#000000" d="
  M 344.94 172.06
  Q 349.49 173.16 354.12 172.54
  A 0.59 0.58 -86.9 0 1 354.76 173.26
  L 352.94 180.85
  A 0.87 0.87 0.0 0 1 352.09 181.52
  L 314.68 181.22
  Q 314.20 181.22 314.32 180.76
  L 316.10 173.31
  Q 316.22 172.81 316.73 172.79
  C 321.53 172.56 326.36 172.96 329.46 168.45
  Q 346.78 143.20 364.02 117.89
  Q 364.29 117.50 364.77 117.50
  L 393.00 117.50
  Q 393.85 117.50 394.00 118.34
  Q 398.25 143.12 402.82 167.93
  C 403.88 173.72 409.80 172.59 414.01 172.73
  Q 414.48 172.74 414.37 173.20
  L 412.53 180.83
  A 0.87 0.87 0.0 0 1 411.68 181.50
  L 365.04 181.50
  A 0.78 0.78 0.0 0 1 364.28 180.54
  L 366.03 173.26
  Q 366.13 172.83 366.57 172.81
  Q 370.10 172.68 373.56 172.53
  C 380.29 172.23 377.36 165.21 376.35 161.15
  Q 376.19 160.50 375.52 160.50
  L 350.69 160.50
  A 0.78 0.78 0.0 0 0 350.04 160.85
  L 344.05 169.78
  A 1.49 1.49 0.0 0 0 344.94 172.06
  Z
  M 370.66 131.48
  A 0.33 0.33 0.0 0 0 370.07 131.35
  L 355.90 151.76
  A 0.33 0.33 0.0 0 0 356.17 152.28
  L 374.34 152.26
  A 0.33 0.33 0.0 0 0 374.66 151.87
  L 370.66 131.48
  Z"
/>
<path fill="#000000" d="
  M 513.03 118.26
  A 1.00 0.99 6.6 0 1 514.00 117.50
  L 597.00 117.50
  A 0.55 0.54 87.1 0 1 597.54 117.99
  L 599.77 138.68
  A 0.81 0.80 -7.0 0 1 599.08 139.56
  L 582.96 141.94
  Q 581.73 142.12 581.87 140.89
  C 583.29 128.00 577.45 126.32 566.12 126.26
  Q 558.21 126.21 550.16 126.27
  Q 549.65 126.27 549.54 126.76
  L 545.58 143.55
  Q 545.52 143.83 545.80 143.89
  Q 558.32 146.66 561.80 134.96
  Q 562.01 134.25 562.75 134.25
  L 572.21 134.25
  A 0.59 0.59 0.0 0 1 572.79 134.97
  L 566.45 162.05
  A 1.26 1.25 6.7 0 1 565.23 163.01
  L 556.60 163.01
  Q 555.29 163.01 555.52 161.73
  C 557.14 152.47 550.38 152.24 544.09 152.80
  A 0.88 0.87 -85.4 0 0 543.31 153.47
  L 538.91 172.05
  A 0.60 0.59 -83.8 0 0 539.49 172.78
  Q 548.78 172.73 557.33 172.57
  C 568.21 172.37 575.94 167.93 577.79 156.30
  A 1.15 1.15 0.0 0 1 579.15 155.34
  L 595.26 158.51
  Q 595.82 158.62 595.53 159.11
  L 582.91 180.58
  Q 582.50 181.28 581.70 181.28
  L 499.30 181.55
  Q 498.20 181.55 498.45 180.48
  L 500.15 173.17
  Q 500.25 172.70 500.74 172.72
  C 505.44 172.91 513.48 174.18 515.00 168.00
  Q 519.64 149.25 523.86 130.21
  Q 524.74 126.25 520.68 126.25
  L 511.81 126.25
  A 0.55 0.55 0.0 0 1 511.28 125.57
  L 513.03 118.26
  Z"
/>
</svg>
