<?xml version="1.0" encoding="UTF-8" standalone="no"?>
<!DOCTYPE svg PUBLIC "-//W3C//DTD SVG 1.1//EN" "http://www.w3.org/Graphics/SVG/1.1/DTD/svg11.dtd">
<svg xmlns="http://www.w3.org/2000/svg" version="1.1" viewBox="0 0 600 300">
<g stroke-width="2.00" fill="none" stroke-linecap="butt">
<path stroke="#408b50" stroke-opacity="0.878" vector-effect="non-scaling-stroke" d="
  M 552.54 81.00
  Q 551.54 84.72 553.25 82.71"
/>
<path stroke="#64b178" vector-effect="non-scaling-stroke" d="
  M 550.81 99.22
  C 551.48 70.45 542.11 27.57 516.23 9.85
  Q 515.81 9.56 516.00 10.03
  Q 533.52 52.95 527.75 99.21"
/>
<path stroke="#408b50" stroke-opacity="0.878" vector-effect="non-scaling-stroke" d="
  M 450.47 86.59
  Q 452.26 84.01 451.71 80.75"
/>
<path stroke="#9d8e4d" stroke-opacity="0.961" vector-effect="non-scaling-stroke" d="
  M 92.25 152.30
  L 81.74 152.91"
/>
<path stroke="#bba14a" stroke-opacity="0.996" vector-effect="non-scaling-stroke" d="
  M 43.50 154.54
  C 25.49 155.80 10.56 144.36 11.21 125.50"
/>
<path stroke="#bfb25b" stroke-opacity="0.925" vector-effect="non-scaling-stroke" d="
  M 62.15 107.93
  Q 62.99 104.78 62.81 98.06
  Q 62.51 87.04 52.77 84.19
  Q 46.52 82.36 40.25 83.96"
/>
<path stroke="#b3a750" stroke-opacity="0.945" vector-effect="non-scaling-stroke" d="
  M 40.25 83.96
  Q 38.73 83.92 37.46 84.75"
/>
<path stroke="#ccbf5e" stroke-opacity="0.992" vector-effect="non-scaling-stroke" d="
  M 25.00 92.46
  Q 20.02 89.26 14.00 89.54"
/>
<path stroke="#b3a750" stroke-opacity="0.945" vector-effect="non-scaling-stroke" d="
  M 153.46 75.75
  Q 154.50 77.24 154.10 75.60
  Q 154.01 75.27 154.11 74.90
  Q 154.45 73.55 153.94 71.59"
/>
<path stroke="#c0b356" stroke-opacity="0.965" vector-effect="non-scaling-stroke" d="
  M 167.54 101.66
  L 155.53 101.19
  A 1.27 1.12 -7.1 0 1 154.40 100.42
  Q 146.87 78.44 124.85 84.93"
/>
<path stroke="#c1b358" stroke-opacity="0.933" vector-effect="non-scaling-stroke" d="
  M 148.00 152.54
  C 127.57 157.17 108.25 152.68 97.71 133.25
  Q 88.46 116.21 93.96 96.00"
/>
<path stroke="#9d8e4d" stroke-opacity="0.961" vector-effect="non-scaling-stroke" d="
  M 94.04 95.75
  Q 95.13 94.16 95.46 92.25"
/>
<path stroke="#c0b356" stroke-opacity="0.965" vector-effect="non-scaling-stroke" d="
  M 224.25 154.04
  Q 216.56 154.35 212.25 154.00
  C 191.82 152.32 175.77 137.44 173.75 117.25
  Q 173.01 109.82 173.71 101.50"
/>
<path stroke="#b7a666" stroke-opacity="0.996" vector-effect="non-scaling-stroke" d="
  M 324.21 85.50
  Q 319.44 85.19 314.75 86.00"
/>
<path stroke="#b7a666" stroke-opacity="0.996" vector-effect="non-scaling-stroke" d="
  M 314.75 86.00
  Q 311.71 85.71 308.79 86.50"
/>
<path stroke="#b3a750" stroke-opacity="0.945" vector-effect="non-scaling-stroke" d="
  M 275.14 125.76
  Q 276.12 106.42 275.81 86.69
  A 0.52 0.51 -1.1 0 0 275.28 86.19
  L 260.79 86.25
  A 1.42 1.33 89.6 0 1 259.46 84.85
  L 259.27 71.42"
/>
<path stroke="#b3a750" stroke-opacity="0.945" vector-effect="non-scaling-stroke" d="
  M 391.00 100.79
  C 391.88 97.45 391.46 93.02 390.81 90.01
  C 389.05 81.83 379.71 82.53 374.00 85.21"
/>
<path stroke="#9cad6a" stroke-opacity="0.878" vector-effect="non-scaling-stroke" d="
  M 327.54 82.25
  Q 328.26 81.40 327.96 80.25"
/>
<path stroke="#b7a961" stroke-opacity="0.816" vector-effect="non-scaling-stroke" d="
  M 327.96 80.25
  L 327.96 77.25"
/>
<path stroke="#b7a961" stroke-opacity="0.816" vector-effect="non-scaling-stroke" d="
  M 327.96 77.25
  L 328.15 71.34"
/>
<path stroke="#64b178" vector-effect="non-scaling-stroke" d="
  M 549.75 104.29
  C 546.11 123.61 533.47 137.67 515.31 144.84
  Q 514.07 145.33 514.63 144.11
  Q 523.56 124.76 526.59 104.24"
/>
<path stroke="#b3a750" stroke-opacity="0.945" vector-effect="non-scaling-stroke" d="
  M 138.72 277.50
  L 114.75 277.54"
/>
<path stroke="#b7a666" stroke-opacity="0.996" vector-effect="non-scaling-stroke" d="
  M 114.75 277.54
  Q 105.97 277.01 97.23 277.69"
/>
<path stroke="#c0b356" stroke-opacity="0.965" vector-effect="non-scaling-stroke" d="
  M 109.95 261.69
  Q 110.97 252.06 110.46 242.50"
/>
<path stroke="#ccbf5e" stroke-opacity="0.992" vector-effect="non-scaling-stroke" d="
  M 110.46 242.50
  C 110.89 225.87 109.71 211.72 110.52 198.10
  C 110.74 194.37 110.31 191.21 109.85 187.74"
/>
<path stroke="#bfb25b" stroke-opacity="0.925" vector-effect="non-scaling-stroke" d="
  M 415.25 210.79
  Q 407.60 209.74 400.22 211.86"
/>
<path stroke="#9d8e4d" stroke-opacity="0.961" vector-effect="non-scaling-stroke" d="
  M 401.29 277.55
  L 379.75 277.54"
/>
<path stroke="#b7a666" stroke-opacity="0.996" vector-effect="non-scaling-stroke" d="
  M 379.75 277.54
  Q 362.59 277.11 351.25 277.25
  Q 349.60 277.27 348.50 278.71"
/>
<path stroke="#c2ae4f" stroke-opacity="0.988" vector-effect="non-scaling-stroke" d="
  M 346.50 279.04
  Q 336.37 279.22 334.44 278.81
  C 321.98 276.21 321.50 268.33 320.54 257.50"
/>
<path stroke="#d3c777" vector-effect="non-scaling-stroke" d="
  M 320.54 257.50
  Q 321.37 248.56 319.79 239.75"
/>
<path stroke="#cec07c" stroke-opacity="0.588" vector-effect="non-scaling-stroke" d="
  M 319.79 239.75
  L 319.59 211.92"
/>
<path stroke="#b3a750" stroke-opacity="0.945" vector-effect="non-scaling-stroke" d="
  M 309.50 209.79
  L 309.91 196.52"
/>
<path stroke="#bfb25b" stroke-opacity="0.925" vector-effect="non-scaling-stroke" d="
  M 319.97 195.67
  Q 321.22 190.18 319.96 185.00"
/>
<path stroke="#a0944e" stroke-opacity="0.588" vector-effect="non-scaling-stroke" d="
  M 319.79 239.75
  L 319.71 247.75"
/>
<path stroke="#a79434" stroke-opacity="0.988" vector-effect="non-scaling-stroke" d="
  M 320.54 257.50
  Q 320.76 256.39 319.79 256.25"
/>
<path stroke="#b7a666" stroke-opacity="0.996" vector-effect="non-scaling-stroke" d="
  M 95.11 240.59
  Q 92.19 239.61 89.97 240.32
  Q 89.65 240.43 89.00 240.43
  L 83.00 240.46"
/>
<path stroke="#c0b356" stroke-opacity="0.965" vector-effect="non-scaling-stroke" d="
  M 83.00 240.46
  Q 76.76 239.97 70.50 240.00
  Q 52.62 240.08 34.74 240.49"
/>
<path stroke="#9d8e4d" stroke-opacity="0.961" vector-effect="non-scaling-stroke" d="
  M 34.74 240.49
  L 28.03 240.79"
/>
<path stroke="#c2ae4f" stroke-opacity="0.988" vector-effect="non-scaling-stroke" d="
  M 62.50 279.37
  Q 57.00 279.10 51.51 278.85
  C 30.37 277.86 12.25 263.68 10.20 241.84
  C 9.78 237.37 10.38 231.58 10.46 226.50"
/>
<path stroke="#b7a666" stroke-opacity="0.996" vector-effect="non-scaling-stroke" d="
  M 224.75 240.54
  L 214.25 240.54"
/>
<path stroke="#c0b356" stroke-opacity="0.965" vector-effect="non-scaling-stroke" d="
  M 214.25 240.54
  Q 186.73 239.53 159.17 240.88"
/>
<path stroke="#bfb25b" stroke-opacity="0.925" vector-effect="non-scaling-stroke" d="
  M 194.49 278.92
  C 169.47 282.12 143.42 268.27 141.46 241.24
  Q 141.05 235.62 140.71 230.00"
/>
<path stroke="#b3a750" stroke-opacity="0.945" vector-effect="non-scaling-stroke" d="
  M 291.25 200.79
  Q 292.59 202.26 292.14 200.48
  Q 292.02 200.03 292.12 199.52
  Q 292.34 198.32 291.97 196.60"
/>
<path stroke="#9d8e4d" stroke-opacity="0.961" vector-effect="non-scaling-stroke" d="
  M 301.25 227.04
  Q 300.19 226.47 299.00 226.71"
/>
<path stroke="#c0b356" stroke-opacity="0.965" vector-effect="non-scaling-stroke" d="
  M 299.00 226.71
  L 292.94 226.33
  A 0.64 0.63 -3.4 0 1 292.35 225.82
  C 289.95 212.39 275.76 204.00 263.06 209.97"
/>
<path stroke="#b7a666" stroke-opacity="0.996" vector-effect="non-scaling-stroke" d="
  M 277.50 279.54
  L 270.00 279.29"
/>
<path stroke="#c1b358" stroke-opacity="0.933" vector-effect="non-scaling-stroke" d="
  M 270.00 279.29
  C 237.57 278.70 223.17 245.19 233.46 217.25"
/>
<path stroke="#c0b356" stroke-opacity="0.965" vector-effect="non-scaling-stroke" d="
  M 455.75 279.71
  C 451.34 279.15 446.47 279.27 442.49 278.28
  Q 413.28 271.01 409.29 240.00"
/>
<path stroke="#b7a961" stroke-opacity="0.816" vector-effect="non-scaling-stroke" d="
  M 409.29 240.00
  L 409.21 238.50"
/>
<path stroke="#bfb25b" stroke-opacity="0.925" vector-effect="non-scaling-stroke" d="
  M 409.21 238.50
  L 410.04 227.00"
/>
<path stroke="#9cad6a" stroke-opacity="0.878" vector-effect="non-scaling-stroke" d="
  M 410.04 227.00
  L 411.46 220.50"
/>
<path stroke="#87794d" stroke-opacity="0.953" vector-effect="non-scaling-stroke" d="
  M 577.01 277.83
  Q 569.12 277.33 561.25 277.96"
/>
<path stroke="#bfb25b" stroke-opacity="0.925" vector-effect="non-scaling-stroke" d="
  M 560.04 233.25
  C 561.37 225.28 563.01 204.78 548.25 208.71"
/>
<path stroke="#b3a750" stroke-opacity="0.945" vector-effect="non-scaling-stroke" d="
  M 548.25 208.71
  L 543.50 209.79"
/>
<path stroke="#87794d" stroke-opacity="0.953" vector-effect="non-scaling-stroke" d="
  M 541.24 277.39
  L 527.75 277.54"
/>
<path stroke="#beaf73" stroke-opacity="0.996" vector-effect="non-scaling-stroke" d="
  M 527.75 277.54
  Q 513.10 276.82 498.49 277.76"
/>
<path stroke="#bfb25b" stroke-opacity="0.925" vector-effect="non-scaling-stroke" d="
  M 510.79 254.25
  Q 512.12 248.37 510.79 242.50"
/>
<path stroke="#bfb25b" stroke-opacity="0.925" vector-effect="non-scaling-stroke" d="
  M 510.79 236.00
  L 511.04 229.25"
/>
<path stroke="#bfb25b" stroke-opacity="0.925" vector-effect="non-scaling-stroke" d="
  M 511.04 229.25
  C 511.53 225.56 510.34 221.82 511.51 219.43
  Q 511.74 218.97 511.73 218.50
  L 511.55 211.67
  A 0.43 0.42 89.3 0 0 511.13 211.25
  Q 505.92 211.19 500.59 211.24
  C 498.24 211.27 496.88 211.86 497.25 208.50
  Q 497.46 206.57 497.18 196.39"
/>
<path stroke="#55442c" stroke-opacity="0.949" vector-effect="non-scaling-stroke" d="
  M 527.75 277.54
  Q 527.60 277.84 527.25 277.79"
/>
<path stroke="#c0b356" stroke-opacity="0.965" vector-effect="non-scaling-stroke" d="
  M 62.15 132.50
  Q 63.65 128.56 62.78 122.82
  A 2.18 2.15 -75.8 0 0 61.96 121.42
  Q 50.14 112.20 36.49 115.40"
/>
<path stroke="#b3a750" stroke-opacity="0.945" vector-effect="non-scaling-stroke" d="
  M 210.46 85.00
  Q 208.53 85.07 206.87 86.01"
/>
<path stroke="#c2ae4f" stroke-opacity="0.988" vector-effect="non-scaling-stroke" d="
  M 240.69 113.01
  Q 242.37 91.50 222.44 85.06
  Q 216.94 83.29 210.46 85.00"
/>
<path stroke="#b3a750" stroke-opacity="0.945" vector-effect="non-scaling-stroke" d="
  M 367.32 261.75
  L 367.69 211.80
  A 0.52 0.48 0.6 0 0 367.18 211.32
  L 353.25 211.29"
/>
<path stroke="#d3c777" vector-effect="non-scaling-stroke" d="
  M 353.25 211.29
  Q 345.07 210.28 337.04 212.00"
/>
<path stroke="#968b33" stroke-opacity="0.945" vector-effect="non-scaling-stroke" d="
  M 353.25 211.29
  Q 352.20 211.29 351.71 212.00"
/>
<path stroke="#b3a750" stroke-opacity="0.945" vector-effect="non-scaling-stroke" d="
  M 47.50 209.04
  Q 45.33 208.67 44.00 210.21"
/>
<path stroke="#c1b358" stroke-opacity="0.933" vector-effect="non-scaling-stroke" d="
  M 77.75 227.71
  Q 79.29 227.96 78.65 226.32
  C 73.78 213.78 61.15 205.73 47.50 209.04"
/>
<path stroke="#c1b358" stroke-opacity="0.933" vector-effect="non-scaling-stroke" d="
  M 209.00 227.71
  Q 210.31 227.85 209.75 226.50
  Q 200.46 204.21 176.21 209.58"
/>
<path stroke="#c1b358" stroke-opacity="0.933" vector-effect="non-scaling-stroke" d="
  M 476.71 238.25
  Q 478.53 217.33 459.81 210.44
  Q 451.86 207.51 443.00 211.21"
/>
</g>
<path fill="#4da664" d="
  M 552.54 81.00
  Q 551.54 84.72 553.25 82.71
  Q 554.19 90.46 553.54 98.25
  A 0.76 0.57 -89.7 0 1 553.03 98.93
  L 550.81 99.22
  C 551.48 70.45 542.11 27.57 516.23 9.85
  Q 515.81 9.56 516.00 10.03
  Q 533.52 52.95 527.75 99.21
  L 451.99 99.25
  A 1.64 1.51 0.2 0 1 450.35 97.73
  L 450.47 86.59
  Q 452.26 84.01 451.71 80.75
  C 453.99 56.23 469.76 0.92 502.47 1.70
  C 535.17 2.47 550.01 56.20 552.54 81.00
  Z"
/>
<path fill="#7abc8b" d="
  M 550.81 99.22
  L 527.75 99.21
  Q 533.52 52.95 516.00 10.03
  Q 515.81 9.56 516.23 9.85
  C 542.11 27.57 551.48 70.45 550.81 99.22
  Z"
/>
<path fill="#eee192" d="
  M 92.25 152.30
  L 81.74 152.91
  L 64.68 152.84
  A 0.63 0.59 84.1 0 1 64.09 152.33
  Q 63.42 148.93 64.00 145.48
  Q 64.37 143.31 62.77 144.83
  Q 54.89 152.30 43.50 154.54
  C 25.49 155.80 10.56 144.36 11.21 125.50
  Q 12.03 118.20 16.44 113.19
  C 28.56 99.40 46.88 99.21 62.15 107.93
  Q 62.99 104.78 62.81 98.06
  Q 62.51 87.04 52.77 84.19
  Q 46.52 82.36 40.25 83.96
  Q 38.73 83.92 37.46 84.75
  Q 32.40 86.62 28.44 91.94
  Q 27.33 93.43 25.00 92.46
  Q 20.02 89.26 14.00 89.54
  Q 11.40 89.51 12.56 87.56
  Q 22.57 70.82 42.75 69.25
  C 55.49 68.26 71.67 70.44 76.95 83.47
  Q 78.72 87.83 78.89 99.76
  Q 79.14 117.87 78.99 136.44
  A 0.56 0.56 0.0 0 0 79.55 137.00
  L 91.82 137.00
  A 0.86 0.86 88.6 0 1 92.68 137.82
  Q 93.13 145.72 92.25 152.30
  Z
  M 36.49 115.40
  C 20.42 121.87 26.38 144.04 43.51 141.79
  Q 54.31 140.37 62.15 132.50
  Q 63.65 128.56 62.78 122.82
  A 2.18 2.15 -75.8 0 0 61.96 121.42
  Q 50.14 112.20 36.49 115.40
  Z"
/>
<path fill="#eee192" d="
  M 153.46 75.75
  Q 154.50 77.24 154.10 75.60
  Q 154.01 75.27 154.11 74.90
  Q 154.45 73.55 153.94 71.59
  Q 160.97 70.46 168.08 71.14
  A 0.59 0.56 -88.4 0 1 168.58 71.70
  Q 168.89 85.10 168.75 98.50
  Q 168.73 100.90 167.54 101.66
  L 155.53 101.19
  A 1.27 1.12 -7.1 0 1 154.40 100.42
  Q 146.87 78.44 124.85 84.93
  C 99.26 96.10 106.18 142.55 136.75 139.74
  C 147.89 138.72 151.80 132.96 157.62 124.57
  A 0.86 0.85 -60.4 0 1 158.68 124.27
  L 170.65 129.92
  A 0.63 0.62 -65.3 0 1 170.95 130.74
  Q 164.03 146.71 148.00 152.54
  C 127.57 157.17 108.25 152.68 97.71 133.25
  Q 88.46 116.21 93.96 96.00
  L 94.04 95.75
  Q 95.13 94.16 95.46 92.25
  C 106.44 70.19 132.40 62.06 153.46 75.75
  Z"
/>
<path fill="#eee192" d="
  M 224.25 154.04
  Q 216.56 154.35 212.25 154.00
  C 191.82 152.32 175.77 137.44 173.75 117.25
  Q 173.01 109.82 173.71 101.50
  C 178.34 81.82 195.67 69.03 215.75 69.00
  C 240.81 68.96 259.33 87.76 258.68 113.25
  C 258.17 133.42 244.02 150.22 224.25 154.04
  Z
  M 210.46 85.00
  Q 208.53 85.07 206.87 86.01
  Q 188.76 94.76 190.77 115.25
  C 193.95 147.44 239.66 146.53 240.69 113.01
  Q 242.37 91.50 222.44 85.06
  Q 216.94 83.29 210.46 85.00
  Z"
/>
<path fill="#eee192" d="
  M 324.21 85.50
  Q 319.44 85.19 314.75 86.00
  Q 311.71 85.71 308.79 86.50
  C 296.31 88.82 293.51 96.89 292.56 108.98
  Q 291.53 122.08 292.05 136.04
  A 0.99 0.99 89.1 0 0 293.04 137.00
  L 308.95 137.00
  A 0.58 0.55 -0.0 0 1 309.53 137.55
  L 309.44 152.10
  A 0.67 0.65 0.0 0 1 308.77 152.75
  L 259.53 152.99
  A 0.78 0.78 89.9 0 1 258.75 152.21
  L 258.75 139.49
  Q 258.75 137.08 261.16 137.05
  L 274.46 136.94
  A 0.86 0.78 89.3 0 0 275.23 136.07
  L 275.14 125.76
  Q 276.12 106.42 275.81 86.69
  A 0.52 0.51 -1.1 0 0 275.28 86.19
  L 260.79 86.25
  A 1.42 1.33 89.6 0 1 259.46 84.85
  L 259.27 71.42
  Q 273.68 70.56 288.06 71.17
  A 0.54 0.53 0.6 0 1 288.58 71.69
  L 288.93 87.19
  Q 288.94 87.67 289.14 87.23
  C 296.05 71.45 308.58 68.74 324.28 69.00
  A 0.73 0.73 0.4 0 1 325.00 69.73
  C 325.00 73.45 325.84 82.72 324.21 85.50
  Z"
/>
<path fill="#eee192" d="
  M 391.00 100.79
  C 391.88 97.45 391.46 93.02 390.81 90.01
  C 389.05 81.83 379.71 82.53 374.00 85.21
  Q 366.35 87.92 359.51 93.27
  A 2.00 1.98 -19.3 0 0 358.75 94.83
  L 358.75 136.48
  A 0.52 0.52 90.0 0 0 359.27 137.00
  L 372.09 137.00
  A 0.66 0.66 0.2 0 1 372.75 137.66
  L 372.75 151.01
  A 1.51 1.51 86.8 0 1 371.41 152.51
  C 357.65 154.01 342.65 153.00 328.51 153.00
  A 0.98 0.93 0.6 0 1 327.53 152.05
  L 327.75 138.26
  A 1.03 1.00 -90.0 0 1 328.73 137.25
  L 340.02 137.08
  A 1.76 1.66 -0.7 0 0 341.75 135.41
  L 341.57 87.69
  A 0.52 0.51 1.2 0 0 341.07 87.18
  L 328.31 86.72
  A 0.56 0.55 89.4 0 1 327.78 86.19
  L 327.54 82.25
  Q 328.26 81.40 327.96 80.25
  L 327.96 77.25
  L 328.15 71.34
  L 357.89 71.03
  A 1.01 0.92 89.4 0 1 358.82 72.03
  L 358.94 79.01
  Q 358.94 79.54 359.41 79.21
  C 367.55 73.53 377.98 68.43 388.15 69.07
  C 405.16 70.14 407.83 82.78 408.00 97.00
  Q 408.22 116.34 407.93 136.42
  A 0.57 0.57 -89.5 0 0 408.50 137.00
  L 420.84 137.00
  A 0.66 0.66 0.2 0 1 421.50 137.66
  L 421.50 151.72
  A 1.03 1.03 -1.2 0 1 420.51 152.75
  Q 406.10 153.32 391.69 152.83
  A 0.53 0.53 1.1 0 1 391.18 152.30
  L 391.00 100.79
  Z"
/>
<path fill="#716505" fill-opacity="0.890" d="
  M 259.27 71.42
  L 259.46 84.85
  A 1.42 1.33 89.6 0 0 260.79 86.25
  L 275.28 86.19
  A 0.52 0.51 -1.1 0 1 275.81 86.69
  Q 276.12 106.42 275.14 125.76
  L 274.57 87.94
  A 0.54 0.54 1.1 0 0 274.06 87.41
  Q 264.54 86.91 262.25 87.25
  C 257.08 88.01 258.70 83.88 258.49 81.31
  Q 258.10 76.55 259.27 71.42
  Z"
/>
<path fill="#615113" fill-opacity="0.631" d="
  M 328.15 71.34
  L 327.96 77.25
  Q 327.74 77.97 327.21 78.50
  Q 326.72 75.24 328.15 71.34
  Z"
/>
<path fill="#716505" fill-opacity="0.890" d="
  M 153.94 71.59
  Q 154.45 73.55 154.11 74.90
  Q 154.01 75.27 154.10 75.60
  Q 154.50 77.24 153.46 75.75
  Q 153.02 73.96 153.94 71.59
  Z"
/>
<path fill="#615113" fill-opacity="0.631" d="
  M 327.96 77.25
  L 327.96 80.25
  Q 327.58 80.24 327.29 80.50
  Q 327.58 79.49 327.21 78.50
  Q 327.74 77.97 327.96 77.25
  Z"
/>
<path fill="#2f6835" fill-opacity="0.753" d="
  M 327.96 80.25
  Q 328.26 81.40 327.54 82.25
  L 327.29 80.50
  Q 327.58 80.24 327.96 80.25
  Z"
/>
<path fill="#2f6835" fill-opacity="0.753" d="
  M 451.71 80.75
  Q 452.26 84.01 450.47 86.59
  Q 449.74 83.19 451.71 80.75
  Z"
/>
<path fill="#2f6835" fill-opacity="0.753" d="
  M 552.54 81.00
  Q 553.31 81.69 553.25 82.71
  Q 551.54 84.72 552.54 81.00
  Z"
/>
<path fill="#877a19" fill-opacity="0.847" d="
  M 62.15 107.93
  Q 62.57 98.05 60.75 92.50
  C 58.61 86.00 48.40 83.70 42.25 84.29
  L 40.25 83.96
  Q 46.52 82.36 52.77 84.19
  Q 62.51 87.04 62.81 98.06
  Q 62.99 104.78 62.15 107.93
  Z"
/>
<path fill="#8f8116" fill-opacity="0.925" d="
  M 167.54 101.66
  Q 161.44 102.81 154.18 101.93
  A 1.14 1.13 -1.0 0 1 153.21 101.00
  C 150.91 87.32 137.58 82.20 124.85 84.93
  Q 146.87 78.44 154.40 100.42
  A 1.27 1.12 -7.1 0 0 155.53 101.19
  L 167.54 101.66
  Z"
/>
<path fill="#716505" fill-opacity="0.890" d="
  M 391.00 100.79
  C 390.45 87.78 388.59 81.71 374.00 85.21
  C 379.71 82.53 389.05 81.83 390.81 90.01
  C 391.46 93.02 391.88 97.45 391.00 100.79
  Z"
/>
<path fill="#716505" fill-opacity="0.890" d="
  M 40.25 83.96
  L 42.25 84.29
  L 37.46 84.75
  Q 38.73 83.92 40.25 83.96
  Z"
/>
<path fill="#957a0b" fill-opacity="0.976" d="
  M 240.69 113.01
  C 240.43 96.26 228.85 84.09 212.00 85.29
  L 210.46 85.00
  Q 216.94 83.29 222.44 85.06
  Q 242.37 91.50 240.69 113.01
  Z"
/>
<path fill="#716505" fill-opacity="0.890" d="
  M 210.46 85.00
  L 212.00 85.29
  L 206.87 86.01
  Q 208.53 85.07 210.46 85.00
  Z"
/>
<path fill="#7f6a3a" fill-opacity="0.988" d="
  M 324.21 85.50
  Q 319.53 86.36 314.75 86.00
  Q 319.44 85.19 324.21 85.50
  Z"
/>
<path fill="#7f6a3a" fill-opacity="0.988" d="
  M 314.75 86.00
  Q 311.84 86.86 308.79 86.50
  Q 311.71 85.71 314.75 86.00
  Z"
/>
<path fill="#aa9c29" fill-opacity="0.984" d="
  M 14.00 89.54
  Q 20.02 89.26 25.00 92.46
  L 14.00 89.54
  Z"
/>
<path fill="#443402" fill-opacity="0.918" d="
  M 95.46 92.25
  Q 95.13 94.16 94.04 95.75
  Q 93.98 93.69 95.46 92.25
  Z"
/>
<path fill="#8e7e16" fill-opacity="0.867" d="
  M 93.96 96.00
  Q 88.46 116.21 97.71 133.25
  C 108.25 152.68 127.57 157.17 148.00 152.54
  Q 138.29 156.10 128.00 154.96
  Q 126.02 153.93 123.75 154.29
  C 98.33 150.31 87.13 123.28 92.04 100.31
  Q 92.55 97.94 93.96 96.00
  Z"
/>
<path fill="#8f8116" fill-opacity="0.925" d="
  M 173.71 101.50
  Q 173.01 109.82 173.75 117.25
  C 175.77 137.44 191.82 152.32 212.25 154.00
  Q 216.56 154.35 224.25 154.04
  Q 218.73 155.58 213.00 155.19
  C 184.30 153.25 167.13 129.02 173.71 101.50
  Z"
/>
<path fill="#7abc8b" d="
  M 549.75 104.29
  C 546.11 123.61 533.47 137.67 515.31 144.84
  Q 514.07 145.33 514.63 144.11
  Q 523.56 124.76 526.59 104.24
  L 549.75 104.29
  Z"
/>
<path fill="#4da664" d="
  M 526.59 104.24
  Q 523.56 124.76 514.63 144.11
  Q 514.07 145.33 515.31 144.84
  C 533.47 137.67 546.11 123.61 549.75 104.29
  C 552.49 103.51 552.31 104.58 551.92 106.38
  C 546.98 129.35 528.75 145.63 505.71 149.68
  A 0.87 0.86 -5.2 0 0 505.00 150.53
  L 505.00 154.50
  A 1.08 1.07 4.7 0 0 505.90 155.56
  Q 527.03 158.92 547.29 166.61
  A 1.03 0.90 16.7 0 1 547.95 167.67
  L 546.42 175.29
  A 0.49 0.43 16.5 0 1 545.78 175.58
  Q 500.16 159.19 452.37 150.99
  C 451.94 150.92 451.58 150.70 452.00 150.29
  A 1.00 0.62 15.7 0 1 452.70 150.09
  Q 476.01 151.54 499.19 154.38
  A 0.59 0.44 4.4 0 0 499.85 153.96
  L 499.80 150.50
  A 0.80 0.67 5.2 0 0 499.13 149.83
  C 475.14 145.66 456.63 129.21 452.02 104.92
  A 0.56 0.56 84.5 0 1 452.57 104.25
  L 526.59 104.24
  Z"
/>
<path fill="#8f8116" fill-opacity="0.925" d="
  M 62.15 132.50
  L 62.02 123.88
  A 1.61 1.43 -74.3 0 0 61.42 122.65
  Q 50.02 114.09 36.49 115.40
  Q 50.14 112.20 61.96 121.42
  A 2.18 2.15 -75.8 0 1 62.78 122.82
  Q 63.65 128.56 62.15 132.50
  Z"
/>
<path fill="#886102" fill-opacity="0.988" d="
  M 11.21 125.50
  C 10.56 144.36 25.49 155.80 43.50 154.54
  C 25.60 157.78 8.18 144.71 11.21 125.50
  Z"
/>
<path fill="#443402" fill-opacity="0.918" d="
  M 92.25 152.30
  C 89.99 153.98 84.22 153.35 81.74 152.91
  L 92.25 152.30
  Z"
/>
<path fill="#615113" fill-opacity="0.631" d="
  M 123.75 154.29
  Q 126.02 153.93 128.00 154.96
  Q 125.80 155.06 123.75 154.29
  Z"
/>
<path fill="#eee192" d="
  M 138.72 277.50
  L 114.75 277.54
  Q 105.97 277.01 97.23 277.69
  C 94.56 278.87 95.53 276.92 95.43 275.79
  Q 94.90 269.70 95.52 263.94
  Q 95.73 262.03 97.79 261.98
  L 109.95 261.69
  Q 110.97 252.06 110.46 242.50
  C 110.89 225.87 109.71 211.72 110.52 198.10
  C 110.74 194.37 110.31 191.21 109.85 187.74
  L 109.75 177.47
  A 0.54 0.53 89.5 0 0 109.21 176.93
  L 96.23 176.99
  A 0.94 0.91 0.3 0 1 95.28 176.06
  L 95.46 163.09
  Q 95.49 161.00 97.69 161.00
  L 126.09 161.00
  A 0.67 0.66 90.0 0 1 126.75 161.67
  L 126.81 261.44
  A 0.51 0.50 0.6 0 0 127.31 261.94
  L 138.32 262.17
  A 0.55 0.54 88.2 0 1 138.85 262.68
  Q 139.33 269.87 138.72 277.50
  Z"
/>
<path fill="#eee192" d="
  M 415.25 210.79
  Q 407.60 209.74 400.22 211.86
  C 389.60 213.63 386.11 220.46 384.77 230.70
  C 383.45 240.75 384.00 251.14 384.00 261.44
  A 0.56 0.56 0.0 0 0 384.56 262.00
  L 400.94 262.00
  A 0.75 0.73 0.7 0 1 401.69 262.75
  L 401.29 277.55
  L 379.75 277.54
  Q 362.59 277.11 351.25 277.25
  Q 349.60 277.27 348.50 278.71
  L 346.50 279.04
  Q 336.37 279.22 334.44 278.81
  C 321.98 276.21 321.50 268.33 320.54 257.50
  Q 321.37 248.56 319.79 239.75
  L 319.59 211.92
  C 316.38 212.01 313.54 211.92 310.82 212.09
  Q 308.64 212.23 309.50 209.79
  L 309.91 196.52
  L 319.97 195.67
  Q 321.22 190.18 319.96 185.00
  C 320.39 182.70 332.78 172.19 335.21 170.03
  Q 336.75 168.67 336.75 170.73
  L 336.81 195.43
  A 0.51 0.50 90.0 0 0 337.31 195.94
  L 379.99 196.00
  A 0.80 0.78 -90.0 0 1 380.77 196.80
  L 380.92 212.18
  Q 380.92 212.72 381.14 212.22
  C 387.89 196.75 400.72 193.46 416.51 194.00
  A 0.51 0.51 1.2 0 1 417.00 194.51
  Q 417.00 201.50 417.08 208.50
  Q 417.10 210.44 415.25 210.79
  Z
  M 337.04 212.00
  Q 336.35 236.12 337.12 260.25
  C 337.36 267.62 348.02 264.80 351.83 262.29
  A 1.80 1.57 24.1 0 1 352.75 262.01
  L 367.32 261.75
  L 367.69 211.80
  A 0.52 0.48 0.6 0 0 367.18 211.32
  L 353.25 211.29
  Q 345.07 210.28 337.04 212.00
  Z"
/>
<path fill="#877a19" fill-opacity="0.847" d="
  M 319.96 185.00
  Q 321.22 190.18 319.97 195.67
  Q 318.99 190.10 319.96 185.00
  Z"
/>
<path fill="#aa9c29" fill-opacity="0.984" d="
  M 109.85 187.74
  C 110.31 191.21 110.74 194.37 110.52 198.10
  C 109.71 211.72 110.89 225.87 110.46 242.50
  L 109.79 237.25
  L 109.85 187.74
  Z"
/>
<path fill="#eee192" d="
  M 95.11 240.59
  Q 92.19 239.61 89.97 240.32
  Q 89.65 240.43 89.00 240.43
  L 83.00 240.46
  Q 76.76 239.97 70.50 240.00
  Q 52.62 240.08 34.74 240.49
  L 28.03 240.79
  Q 32.06 261.73 50.59 264.41
  C 62.33 266.12 72.91 262.30 80.34 253.03
  A 2.18 2.13 31.2 0 1 82.90 252.43
  L 94.92 257.79
  A 0.93 0.92 30.1 0 1 95.30 259.18
  Q 82.95 276.19 62.50 279.37
  Q 57.00 279.10 51.51 278.85
  C 30.37 277.86 12.25 263.68 10.20 241.84
  C 9.78 237.37 10.38 231.58 10.46 226.50
  C 15.78 202.40 42.01 189.39 64.58 195.75
  C 84.42 201.35 96.69 219.76 95.11 240.59
  Z
  M 47.50 209.04
  Q 45.33 208.67 44.00 210.21
  Q 32.24 214.21 28.66 227.19
  A 0.63 0.62 -82.2 0 0 29.26 227.99
  L 77.75 227.71
  Q 79.29 227.96 78.65 226.32
  C 73.78 213.78 61.15 205.73 47.50 209.04
  Z"
/>
<path fill="#eee192" d="
  M 224.75 240.54
  L 214.25 240.54
  Q 186.73 239.53 159.17 240.88
  C 161.54 256.48 172.85 265.72 188.44 264.81
  Q 201.59 264.05 211.64 252.91
  A 1.93 1.93 -56.9 0 1 213.86 252.44
  L 225.97 257.85
  A 0.80 0.79 29.1 0 1 226.31 259.02
  Q 214.71 275.92 194.49 278.92
  C 169.47 282.12 143.42 268.27 141.46 241.24
  Q 141.05 235.62 140.71 230.00
  C 145.07 202.81 173.36 187.63 198.69 196.81
  C 217.36 203.58 225.83 219.72 226.73 239.26
  A 1.08 0.86 73.8 0 1 226.39 240.09
  Q 225.70 240.60 224.75 240.54
  Z
  M 176.21 209.58
  Q 163.08 213.92 159.62 227.21
  A 0.62 0.61 -82.8 0 0 160.22 227.99
  L 209.00 227.71
  Q 210.31 227.85 209.75 226.50
  Q 200.46 204.21 176.21 209.58
  Z"
/>
<path fill="#eee192" d="
  M 291.25 200.79
  Q 292.59 202.26 292.14 200.48
  Q 292.02 200.03 292.12 199.52
  Q 292.34 198.32 291.97 196.60
  Q 298.52 195.55 305.96 196.05
  A 0.85 0.84 -88.2 0 1 306.75 196.90
  L 306.75 224.92
  A 1.86 1.52 88.4 0 1 305.33 226.76
  L 301.25 227.04
  Q 300.19 226.47 299.00 226.71
  L 292.94 226.33
  A 0.64 0.63 -3.4 0 1 292.35 225.82
  C 289.95 212.39 275.76 204.00 263.06 209.97
  Q 248.99 216.08 247.50 232.50
  C 246.01 248.96 254.97 266.01 273.63 264.80
  Q 288.29 263.85 295.32 249.80
  A 1.14 1.10 -63.9 0 1 296.80 249.27
  L 308.51 254.92
  A 0.79 0.77 -64.8 0 1 308.87 255.96
  Q 299.24 276.44 277.50 279.54
  L 270.00 279.29
  C 237.57 278.70 223.17 245.19 233.46 217.25
  C 243.86 195.94 271.09 186.35 291.25 200.79
  Z"
/>
<path fill="#eee192" d="
  M 455.75 279.71
  C 451.34 279.15 446.47 279.27 442.49 278.28
  Q 413.28 271.01 409.29 240.00
  L 409.21 238.50
  L 410.04 227.00
  L 411.46 220.50
  Q 419.51 202.49 436.79 196.54
  C 459.85 188.60 486.15 199.72 493.00 224.00
  C 500.64 251.08 483.67 276.29 455.75 279.71
  Z
  M 443.00 211.21
  C 429.69 216.65 424.19 230.15 427.25 243.75
  C 433.86 273.15 475.56 269.38 476.71 238.25
  Q 478.53 217.33 459.81 210.44
  Q 451.86 207.51 443.00 211.21
  Z"
/>
<path fill="#eee192" d="
  M 577.01 277.83
  Q 569.12 277.33 561.25 277.96
  Q 560.01 278.36 560.00 277.25
  Q 559.93 266.09 560.04 233.25
  C 561.37 225.28 563.01 204.78 548.25 208.71
  L 543.50 209.79
  Q 535.07 212.60 528.38 218.42
  A 1.10 1.07 -20.6 0 0 527.99 219.25
  L 527.81 261.43
  A 0.51 0.49 -89.4 0 0 528.30 261.95
  L 540.71 261.99
  A 0.99 0.98 -1.6 0 1 541.69 262.91
  Q 542.13 270.65 541.24 277.39
  L 527.75 277.54
  Q 513.10 276.82 498.49 277.76
  Q 497.68 278.26 497.06 277.89
  A 1.03 0.83 -77.6 0 1 496.65 277.06
  L 496.69 264.01
  Q 496.69 262.04 498.97 261.99
  L 510.20 261.73
  A 0.54 0.51 89.5 0 0 510.70 261.19
  L 510.79 254.25
  Q 512.12 248.37 510.79 242.50
  L 510.79 236.00
  L 511.04 229.25
  C 511.53 225.56 510.34 221.82 511.51 219.43
  Q 511.74 218.97 511.73 218.50
  L 511.55 211.67
  A 0.43 0.42 89.3 0 0 511.13 211.25
  Q 505.92 211.19 500.59 211.24
  C 498.24 211.27 496.88 211.86 497.25 208.50
  Q 497.46 206.57 497.18 196.39
  Q 511.34 195.71 526.88 196.03
  A 1.03 0.96 -89.7 0 1 527.82 197.05
  L 527.94 204.01
  Q 527.94 204.54 528.41 204.22
  C 537.31 198.15 546.36 193.71 557.24 194.21
  C 575.47 195.03 576.69 209.34 576.75 223.75
  Q 576.83 242.53 576.93 261.31
  A 0.53 0.53 0.6 0 0 577.44 261.83
  L 589.82 262.17
  A 0.54 0.54 89.4 0 1 590.34 262.68
  C 590.55 266.91 590.33 271.13 590.63 275.34
  C 590.92 279.42 581.05 277.98 577.01 277.83
  Z"
/>
<path fill="#716505" fill-opacity="0.890" d="
  M 309.91 196.52
  L 309.50 209.79
  Q 308.34 206.21 308.91 202.50
  Q 308.99 202.03 308.83 201.52
  Q 308.03 198.88 309.91 196.52
  Z"
/>
<path fill="#877a19" fill-opacity="0.847" d="
  M 497.18 196.39
  Q 497.46 206.57 497.25 208.50
  C 496.88 211.86 498.24 211.27 500.59 211.24
  Q 505.92 211.19 511.13 211.25
  A 0.43 0.42 89.3 0 1 511.55 211.67
  L 511.73 218.50
  Q 511.74 218.97 511.51 219.43
  C 510.34 221.82 511.53 225.56 511.04 229.25
  L 510.79 223.25
  L 510.57 213.15
  A 0.99 0.97 -0.3 0 0 509.59 212.20
  L 497.50 212.04
  A 1.27 1.21 -20.5 0 1 496.63 211.67
  Q 495.64 210.67 496.39 209.46
  A 1.18 1.05 -38.7 0 0 496.54 208.58
  Q 496.10 207.07 496.15 205.55
  C 496.25 202.28 495.87 199.72 497.18 196.39
  Z"
/>
<path fill="#716505" fill-opacity="0.890" d="
  M 291.97 196.60
  Q 292.34 198.32 292.12 199.52
  Q 292.02 200.03 292.14 200.48
  Q 292.59 202.26 291.25 200.79
  L 291.97 196.60
  Z"
/>
<path fill="#8f8116" fill-opacity="0.925" d="
  M 299.00 226.71
  L 291.96 227.29
  Q 289.94 218.34 284.19 213.81
  Q 275.57 207.03 263.06 209.97
  C 275.76 204.00 289.95 212.39 292.35 225.82
  A 0.64 0.63 -3.4 0 0 292.94 226.33
  L 299.00 226.71
  Z"
/>
<path fill="#8e7e16" fill-opacity="0.867" d="
  M 77.75 227.71
  Q 70.20 208.48 49.00 209.29
  L 47.50 209.04
  C 61.15 205.73 73.78 213.78 78.65 226.32
  Q 79.29 227.96 77.75 227.71
  Z"
/>
<path fill="#8e7e16" fill-opacity="0.867" d="
  M 209.00 227.71
  C 205.35 218.85 198.47 212.01 188.93 209.98
  Q 182.73 208.66 176.21 209.58
  Q 200.46 204.21 209.75 226.50
  Q 210.31 227.85 209.00 227.71
  Z"
/>
<path fill="#877a19" fill-opacity="0.847" d="
  M 560.04 233.25
  Q 559.53 226.69 559.75 221.75
  C 559.83 219.99 559.14 218.79 558.97 217.32
  Q 558.03 209.17 549.25 209.21
  L 548.25 208.71
  C 563.01 204.78 561.37 225.28 560.04 233.25
  Z"
/>
<path fill="#716505" fill-opacity="0.890" d="
  M 548.25 208.71
  L 549.25 209.21
  L 543.50 209.79
  L 548.25 208.71
  Z"
/>
<path fill="#716505" fill-opacity="0.890" d="
  M 47.50 209.04
  L 49.00 209.29
  L 44.00 210.21
  Q 45.33 208.67 47.50 209.04
  Z"
/>
<path fill="#8e7e16" fill-opacity="0.867" d="
  M 476.71 238.25
  C 476.11 219.40 462.50 206.72 443.00 211.21
  Q 451.86 207.51 459.81 210.44
  Q 478.53 217.33 476.71 238.25
  Z"
/>
<path fill="#877a19" fill-opacity="0.847" d="
  M 415.25 210.79
  L 400.22 211.86
  Q 407.60 209.74 415.25 210.79
  Z"
/>
<path fill="#b8ad5c" fill-opacity="0.996" d="
  M 353.25 211.29
  Q 352.20 211.29 351.71 212.00
  Q 344.38 212.53 337.04 212.00
  Q 345.07 210.28 353.25 211.29
  Z"
/>
<path fill="#716505" fill-opacity="0.890" d="
  M 353.25 211.29
  L 367.18 211.32
  A 0.52 0.48 0.6 0 1 367.69 211.80
  L 367.32 261.75
  Q 366.31 245.16 366.85 228.66
  C 367.02 223.39 366.80 218.36 366.74 213.00
  A 0.84 0.80 0.0 0 0 365.91 212.21
  L 351.71 212.00
  Q 352.20 211.29 353.25 211.29
  Z"
/>
<path fill="#170501" fill-opacity="0.176" d="
  M 319.79 239.75
  L 319.71 247.75
  Q 319.22 243.33 319.25 235.50
  Q 319.30 223.74 319.59 211.92
  L 319.79 239.75
  Z"
/>
<path fill="#8e7e16" fill-opacity="0.867" d="
  M 233.46 217.25
  C 223.17 245.19 237.57 278.70 270.00 279.29
  L 271.25 279.96
  C 263.58 280.90 254.17 277.94 247.75 274.21
  L 246.00 272.79
  C 229.10 259.76 224.32 236.15 233.46 217.25
  Z"
/>
<path fill="#2f6835" fill-opacity="0.753" d="
  M 411.46 220.50
  L 410.04 227.00
  L 409.96 226.00
  Q 410.21 223.13 411.46 220.50
  Z"
/>
<path fill="#877a19" fill-opacity="0.847" d="
  M 510.79 223.25
  L 511.04 229.25
  L 510.79 236.00
  Q 510.29 229.63 510.79 223.25
  Z"
/>
<path fill="#877a19" fill-opacity="0.847" d="
  M 409.96 226.00
  L 410.04 227.00
  L 409.21 238.50
  L 408.80 231.47
  Q 408.42 228.52 409.96 226.00
  Z"
/>
<path fill="#957a0b" fill-opacity="0.976" d="
  M 10.46 226.50
  C 10.38 231.58 9.78 237.37 10.20 241.84
  C 12.25 263.68 30.37 277.86 51.51 278.85
  Q 57.00 279.10 62.50 279.37
  C 43.61 282.46 22.94 275.28 13.83 257.95
  C 8.94 248.66 7.58 236.48 10.46 226.50
  Z"
/>
<path fill="#443402" fill-opacity="0.918" d="
  M 301.25 227.04
  L 291.96 227.29
  L 299.00 226.71
  Q 300.19 226.47 301.25 227.04
  Z"
/>
<path fill="#877a19" fill-opacity="0.847" d="
  M 140.71 230.00
  Q 141.05 235.62 141.46 241.24
  C 143.42 268.27 169.47 282.12 194.49 278.92
  Q 171.98 283.81 155.06 270.19
  Q 136.36 255.13 140.71 230.00
  Z"
/>
<path fill="#615113" fill-opacity="0.631" d="
  M 408.80 231.47
  L 409.21 238.50
  L 409.29 240.00
  Q 409.59 241.68 408.75 243.04
  Q 407.38 237.23 408.80 231.47
  Z"
/>
<path fill="#8f8116" fill-opacity="0.925" d="
  M 109.79 237.25
  L 110.46 242.50
  Q 110.97 252.06 109.95 261.69
  Q 109.21 249.24 109.79 237.25
  Z"
/>
<path fill="#b8ad5c" fill-opacity="0.996" d="
  M 319.79 239.75
  Q 321.37 248.56 320.54 257.50
  Q 320.76 256.39 319.79 256.25
  L 319.71 247.75
  L 319.79 239.75
  Z"
/>
<path fill="#8f8116" fill-opacity="0.925" d="
  M 83.00 240.46
  Q 82.65 240.61 82.75 240.96
  L 37.25 241.21
  Q 35.99 241.17 34.74 240.49
  Q 52.62 240.08 70.50 240.00
  Q 76.76 239.97 83.00 240.46
  Z"
/>
<path fill="#7f6a3a" fill-opacity="0.988" d="
  M 95.11 240.59
  Q 88.52 241.82 82.75 240.96
  Q 82.65 240.61 83.00 240.46
  L 89.00 240.43
  Q 89.65 240.43 89.97 240.32
  Q 92.19 239.61 95.11 240.59
  Z"
/>
<path fill="#8f8116" fill-opacity="0.925" d="
  M 214.25 240.54
  L 217.00 240.96
  Q 188.14 241.62 159.17 240.88
  Q 186.73 239.53 214.25 240.54
  Z"
/>
<path fill="#8f8116" fill-opacity="0.925" d="
  M 409.29 240.00
  Q 413.28 271.01 442.49 278.28
  C 446.47 279.27 451.34 279.15 455.75 279.71
  Q 436.95 281.93 422.50 269.96
  L 419.79 267.50
  Q 410.12 257.17 408.75 243.04
  Q 409.59 241.68 409.29 240.00
  Z"
/>
<path fill="#7f6a3a" fill-opacity="0.988" d="
  M 224.75 240.54
  Q 220.91 241.41 217.00 240.96
  L 214.25 240.54
  L 224.75 240.54
  Z"
/>
<path fill="#443402" fill-opacity="0.918" d="
  M 34.74 240.49
  Q 35.99 241.17 37.25 241.21
  Q 32.92 241.66 28.03 240.79
  L 34.74 240.49
  Z"
/>
<path fill="#877a19" fill-opacity="0.847" d="
  M 510.79 242.50
  Q 512.12 248.37 510.79 254.25
  L 510.79 242.50
  Z"
/>
<path fill="#957a0b" fill-opacity="0.976" d="
  M 319.79 256.25
  Q 320.76 256.39 320.54 257.50
  C 321.50 268.33 321.98 276.21 334.44 278.81
  Q 336.37 279.22 346.50 279.04
  C 338.26 281.57 327.90 280.33 322.56 272.94
  C 319.86 269.18 319.55 260.80 319.79 256.25
  Z"
/>
<path fill="#443402" fill-opacity="0.918" d="
  M 401.29 277.55
  Q 386.95 278.74 372.75 278.21
  L 379.75 277.54
  L 401.29 277.55
  Z"
/>
<path fill="#8e7c54" fill-opacity="0.992" d="
  M 527.75 277.54
  Q 527.60 277.84 527.25 277.79
  Q 512.89 278.80 498.49 277.76
  Q 513.10 276.82 527.75 277.54
  Z"
/>
<path fill="#7f6a3a" fill-opacity="0.988" d="
  M 114.75 277.54
  Q 114.32 277.88 113.75 277.79
  Q 105.53 278.96 97.23 277.69
  Q 105.97 277.01 114.75 277.54
  Z"
/>
<path fill="#716505" fill-opacity="0.890" d="
  M 138.72 277.50
  Q 128.62 278.71 117.00 278.25
  Q 114.90 278.17 113.75 277.79
  Q 114.32 277.88 114.75 277.54
  L 138.72 277.50
  Z"
/>
<path fill="#7f6a3a" fill-opacity="0.988" d="
  M 379.75 277.54
  L 372.75 278.21
  Q 362.38 278.28 352.00 278.26
  Q 350.22 278.26 348.50 278.71
  Q 349.60 277.27 351.25 277.25
  Q 362.59 277.11 379.75 277.54
  Z"
/>
<path fill="#160600" fill-opacity="0.906" d="
  M 541.24 277.39
  C 537.84 279.06 529.84 278.29 527.25 277.79
  Q 527.60 277.84 527.75 277.54
  L 541.24 277.39
  Z"
/>
<path fill="#160600" fill-opacity="0.906" d="
  M 577.01 277.83
  Q 569.13 278.68 561.25 277.96
  Q 569.12 277.33 577.01 277.83
  Z"
/>
<path fill="#7f6a3a" fill-opacity="0.988" d="
  M 277.50 279.54
  L 271.25 279.96
  L 270.00 279.29
  L 277.50 279.54
  Z"
/>
</svg>
