<?xml version="1.0" encoding="UTF-8" standalone="no"?>
<!DOCTYPE svg PUBLIC "-//W3C//DTD SVG 1.1//EN" "http://www.w3.org/Graphics/SVG/1.1/DTD/svg11.dtd">
<svg xmlns="http://www.w3.org/2000/svg" version="1.1" viewBox="0 0 600 300">
<path fill="#000000" d="
  M 0.00 168.44
  L 0.00 165.44
  L 4.51 139.43
  A 1.09 1.01 -84.3 0 1 5.53 138.53
  L 16.51 138.71
  A 0.45 0.43 -84.3 0 1 16.92 139.24
  Q 15.24 149.90 13.28 160.51
  C 12.20 166.37 18.38 165.24 21.75 165.28
  C 27.38 165.35 27.61 161.91 28.50 157.01
  Q 29.65 150.76 30.75 144.50
  C 31.07 142.67 29.10 139.41 28.14 137.59
  Q 21.30 124.70 14.36 111.85
  C 9.78 103.38 12.90 94.25 14.44 85.20
  C 15.75 77.58 17.28 71.68 25.18 70.23
  C 29.29 69.48 37.73 69.99 43.50 69.94
  C 53.02 69.86 55.46 76.06 54.09 84.27
  Q 52.28 95.14 50.05 106.95
  A 0.99 0.98 5.3 0 1 49.08 107.75
  L 38.14 107.75
  A 0.71 0.70 -84.9 0 1 37.45 106.91
  L 41.36 85.05
  A 1.45 1.42 -54.7 0 0 41.21 84.11
  Q 39.78 81.42 37.70 81.76
  Q 35.98 82.05 34.23 82.03
  C 29.25 81.97 27.58 82.31 26.54 87.61
  C 24.96 95.56 22.45 102.62 27.81 110.94
  Q 30.78 115.54 39.81 131.94
  C 43.50 138.63 43.60 142.09 42.22 150.08
  Q 39.54 165.55 38.50 169.00
  C 35.28 179.64 20.51 177.00 12.21 177.00
  C 5.43 177.00 1.07 175.51 0.00 168.44
  Z"
/>
<path fill="#000000" d="
  M 62.92 165.04
  C 68.26 165.93 73.85 166.37 75.10 159.62
  Q 83.20 115.84 91.24 71.06
  A 1.29 1.28 -84.9 0 1 92.50 70.00
  L 103.70 70.00
  A 0.43 0.43 -84.9 0 1 104.12 70.51
  Q 95.79 115.79 87.54 160.80
  C 85.74 170.67 83.82 177.31 72.75 177.13
  C 66.12 177.02 52.79 179.04 48.81 172.94
  C 46.38 169.21 47.14 165.77 48.04 160.70
  Q 55.96 115.65 64.35 70.68
  A 0.63 0.58 -84.7 0 1 64.93 70.16
  L 76.12 70.05
  A 0.59 0.57 -85.0 0 1 76.68 70.75
  L 60.31 161.33
  Q 59.73 164.51 62.92 165.04
  Z"
/>
<path fill="#000000" d="
  M 138.75 70.00
  C 147.47 70.00 150.82 75.22 149.37 83.42
  Q 146.41 100.19 143.23 116.91
  C 140.23 132.71 128.25 128.86 115.30 129.06
  A 1.13 1.12 -85.0 0 0 114.21 129.98
  L 105.75 176.52
  A 0.89 0.80 4.6 0 1 104.89 177.18
  L 93.55 177.15
  A 0.73 0.69 4.9 0 1 92.82 176.34
  L 112.06 70.56
  A 0.68 0.68 5.1 0 1 112.73 70.00
  Q 125.75 70.00 138.75 70.00
  Z
  M 136.41 85.98
  C 137.37 80.28 127.53 81.93 124.00 82.04
  A 1.39 1.37 -85.5 0 0 122.70 83.16
  L 116.49 116.32
  A 0.57 0.57 -84.6 0 0 117.05 117.00
  C 122.00 117.00 130.05 119.06 131.39 112.67
  Q 134.16 99.38 136.41 85.98
  Z"
/>
<path fill="#000000" d="
  M 162.75 115.27
  A 0.57 0.56 4.9 0 0 163.32 115.94
  L 177.97 115.75
  A 0.81 0.78 -84.8 0 1 178.74 116.71
  L 176.88 126.66
  A 1.56 1.54 5.5 0 1 175.34 127.91
  L 161.41 127.77
  A 0.99 0.95 -84.3 0 0 160.46 128.58
  L 154.06 164.18
  A 0.91 0.91 -84.9 0 0 154.95 165.25
  L 169.06 165.19
  A 0.46 0.42 4.7 0 1 169.52 165.68
  L 167.57 176.46
  A 0.67 0.59 4.2 0 1 166.94 176.94
  L 139.10 177.19
  A 0.54 0.53 4.9 0 1 138.57 176.57
  L 157.86 70.63
  A 0.78 0.76 -84.5 0 1 158.61 70.00
  L 186.20 70.00
  A 0.79 0.78 -85.0 0 1 186.97 70.92
  L 185.15 81.34
  A 0.79 0.78 -85.2 0 1 184.38 82.00
  L 169.63 82.00
  A 1.07 1.04 -84.7 0 0 168.60 82.88
  L 162.75 115.27
  Z"
/>
<path fill="#000000" d="
  M 219.05 124.30
  C 223.48 128.29 223.76 130.35 222.69 136.50
  Q 219.27 156.22 215.46 176.33
  A 0.74 0.73 -84.8 0 1 214.74 176.94
  L 203.05 177.00
  A 0.80 0.79 -84.9 0 1 202.27 176.05
  Q 206.10 155.44 209.63 135.00
  C 210.94 127.40 201.79 129.75 197.12 129.75
  A 0.61 0.61 5.1 0 0 196.52 130.25
  L 188.26 176.30
  A 0.94 0.90 4.4 0 1 187.35 177.04
  L 176.16 177.17
  A 0.93 0.89 4.6 0 1 175.23 176.12
  L 194.19 70.86
  A 1.03 1.02 -85.2 0 1 195.18 70.01
  Q 209.22 69.84 222.39 70.16
  C 229.47 70.34 233.81 75.02 232.44 82.44
  Q 229.92 96.04 227.48 109.65
  C 226.23 116.62 225.62 121.35 219.18 123.68
  A 0.37 0.37 -33.6 0 0 219.05 124.30
  Z
  M 216.91 82.46
  Q 216.20 82.05 215.43 82.05
  L 206.05 82.00
  A 1.06 1.03 -84.4 0 0 205.02 82.87
  L 199.04 116.19
  A 0.69 0.69 5.2 0 0 199.72 117.00
  C 205.16 117.00 212.55 119.11 213.85 112.15
  Q 216.25 99.26 218.55 86.35
  C 218.92 84.31 218.66 83.46 216.91 82.46
  Z"
/>
<path fill="#000000" d="
  M 280.24 146.77
  Q 280.42 146.60 280.44 146.25
  C 281.89 123.52 286.86 95.52 291.71 70.81
  A 0.68 0.61 -84.1 0 1 292.31 70.27
  L 303.90 70.04
  A 0.67 0.63 -85.2 0 1 304.53 70.83
  L 285.28 176.45
  A 0.61 0.61 4.6 0 1 284.69 176.95
  L 273.16 176.99
  A 0.92 0.91 86.8 0 1 272.25 176.17
  Q 268.30 139.32 266.51 102.91
  C 266.48 102.36 266.03 102.32 265.99 102.90
  C 264.36 127.37 259.41 152.23 254.90 176.33
  A 0.62 0.60 -84.8 0 1 254.31 176.84
  L 242.44 176.97
  A 0.58 0.56 -84.5 0 1 241.89 176.28
  L 261.18 70.75
  A 0.92 0.90 4.9 0 1 262.08 70.00
  L 273.40 70.00
  A 0.89 0.88 87.1 0 1 274.28 70.80
  C 276.73 95.91 279.26 121.17 279.80 146.47
  Q 279.82 147.19 280.24 146.77
  Z"
/>
<path fill="#000000" d="
  M 314.20 70.64
  A 0.78 0.77 4.8 0 1 314.97 70.00
  L 326.41 70.00
  A 0.70 0.69 5.1 0 1 327.10 70.82
  L 307.93 176.23
  A 0.97 0.95 4.7 0 1 306.99 177.01
  L 295.37 177.09
  A 0.48 0.47 5.1 0 1 294.90 176.54
  L 314.20 70.64
  Z"
/>
<path fill="#000000" d="
  M 342.71 108.50
  C 342.69 105.96 342.59 101.69 342.21 101.55
  A 0.55 0.39 -71.0 0 0 341.66 101.95
  Q 341.23 103.20 341.69 104.45
  C 341.06 109.37 340.88 114.61 340.22 119.17
  Q 336.04 147.84 330.65 176.32
  A 0.63 0.62 4.0 0 1 330.06 176.83
  L 318.23 177.18
  A 0.56 0.56 4.5 0 1 317.66 176.52
  L 336.95 70.64
  A 0.71 0.70 -84.5 0 1 337.64 70.06
  L 348.95 70.00
  A 1.14 1.12 86.9 0 1 350.08 71.03
  C 352.58 96.28 355.19 121.03 355.49 146.00
  A 1.11 0.89 -76.6 0 0 355.88 146.83
  C 356.84 147.49 356.50 145.32 356.53 144.69
  C 358.06 120.12 362.84 95.15 367.40 70.68
  A 0.82 0.81 -84.1 0 1 368.21 70.01
  L 379.89 70.06
  A 0.45 0.44 -84.6 0 1 380.32 70.59
  L 361.05 176.36
  A 0.80 0.78 4.4 0 1 360.28 177.01
  L 348.84 177.09
  A 0.95 0.95 -2.6 0 1 347.89 176.23
  C 345.75 153.43 343.16 130.16 342.71 108.50
  Z"
/>
<path fill="#000000" d="
  M 391.45 82.04
  L 383.63 82.18
  A 0.53 0.49 4.4 0 1 383.09 81.60
  L 385.00 70.74
  A 0.92 0.89 4.9 0 1 385.90 70.00
  L 415.79 70.06
  A 0.47 0.47 -84.4 0 1 416.25 70.62
  L 414.06 81.59
  A 0.65 0.61 5.4 0 1 413.43 82.08
  L 405.94 82.04
  A 1.09 1.02 -84.0 0 0 404.91 82.93
  L 387.90 176.32
  A 0.63 0.61 -84.9 0 1 387.30 176.84
  L 375.31 176.96
  A 0.43 0.42 -84.8 0 1 374.90 176.45
  C 380.63 145.20 386.85 113.91 391.86 82.56
  A 0.45 0.41 -85.9 0 0 391.45 82.04
  Z"
/>
<path fill="#000000" d="
  M 427.30 115.92
  L 441.72 115.75
  A 0.79 0.77 -84.9 0 1 442.49 116.69
  L 440.37 127.27
  A 0.69 0.68 6.0 0 1 439.68 127.82
  L 425.21 127.76
  A 1.08 1.06 -84.6 0 0 424.15 128.65
  L 417.74 164.31
  A 0.79 0.77 -85.0 0 0 418.50 165.24
  L 433.14 165.06
  A 0.36 0.35 5.2 0 1 433.50 165.48
  L 431.54 176.05
  A 1.17 1.17 5.1 0 1 430.40 177.00
  L 402.85 177.19
  A 0.54 0.53 4.9 0 1 402.32 176.57
  L 421.57 70.62
  A 0.75 0.75 5.0 0 1 422.31 70.00
  L 449.90 70.00
  A 0.80 0.78 -85.0 0 1 450.67 70.93
  L 448.90 81.10
  A 1.09 1.09 -84.9 0 1 447.83 82.00
  L 433.31 82.00
  A 0.91 0.91 -84.6 0 0 432.42 82.74
  L 426.63 115.15
  A 0.67 0.65 4.6 0 0 427.30 115.92
  Z"
/>
<path fill="#000000" d="
  M 477.79 139.50
  Q 477.67 142.85 477.96 146.18
  C 478.11 147.97 478.71 143.28 478.71 143.00
  C 480.93 118.83 485.28 94.94 489.72 70.80
  A 0.98 0.95 -84.3 0 1 490.67 70.00
  L 501.95 70.05
  A 0.69 0.69 -84.7 0 1 502.62 70.86
  L 483.43 176.46
  A 0.69 0.66 4.0 0 1 482.77 177.01
  L 471.40 177.08
  A 1.02 1.01 -3.4 0 1 470.38 176.18
  Q 466.43 139.77 464.77 104.36
  C 464.75 104.08 464.80 102.98 464.67 102.93
  A 0.51 0.33 -80.0 0 0 464.21 103.43
  C 462.21 127.70 457.54 152.00 453.06 176.27
  A 0.94 0.91 4.4 0 1 452.15 177.02
  L 440.37 177.19
  A 0.37 0.36 5.1 0 1 440.00 176.76
  L 459.35 70.68
  A 0.63 0.59 -84.8 0 1 459.94 70.16
  L 471.32 70.03
  A 1.02 0.98 86.7 0 1 472.30 70.94
  Q 476.14 106.05 477.79 139.50
  Z"
/>
<path fill="#000000" d="
  M 512.21 70.55
  A 0.60 0.60 4.7 0 1 512.79 70.06
  Q 525.40 69.97 538.18 69.99
  Q 543.46 70.00 546.07 71.38
  C 552.65 74.88 550.81 80.73 549.57 87.80
  Q 542.74 126.63 535.48 165.38
  C 533.30 177.01 527.25 176.99 517.15 177.01
  Q 505.23 177.04 493.31 176.94
  A 0.42 0.42 5.2 0 1 492.90 176.45
  L 512.21 70.55
  Z
  M 522.72 82.79
  L 507.85 164.41
  A 0.69 0.69 -83.8 0 0 508.50 165.22
  C 513.67 165.38 522.71 167.19 523.94 160.44
  Q 530.43 124.78 536.87 89.12
  C 537.56 85.30 538.68 81.68 533.00 81.92
  C 529.89 82.05 526.79 82.00 523.66 82.00
  A 0.96 0.95 -85.0 0 0 522.72 82.79
  Z"
/>
<path fill="#000000" d="
  M 562.43 74.43
  C 567.59 68.01 578.47 70.00 585.77 70.00
  C 597.00 70.00 600.28 74.38 598.35 85.12
  Q 591.43 123.57 584.59 162.05
  C 583.23 169.69 581.57 175.54 573.59 176.83
  C 569.68 177.47 561.72 177.00 556.21 177.00
  C 545.04 177.00 543.47 170.77 545.18 161.20
  Q 552.07 122.58 559.03 83.97
  C 559.71 80.21 559.94 77.53 562.43 74.43
  Z
  M 571.75 84.53
  Q 571.36 85.06 571.24 85.71
  Q 564.69 122.10 558.08 158.89
  C 557.49 162.20 556.91 164.74 561.38 165.17
  C 565.38 165.55 571.33 166.08 572.28 160.76
  Q 578.82 124.16 585.42 87.58
  C 586.77 80.11 580.40 81.95 575.75 82.09
  Q 573.51 82.15 571.75 84.53
  Z"
/>
<path fill="#000000" d="
  M 600.03 169.62
  A 7.13 7.13 0.0 0 1 592.90 176.75
  A 7.13 7.13 0.0 0 1 585.77 169.62
  A 7.13 7.13 0.0 0 1 592.90 162.49
  A 7.13 7.13 0.0 0 1 600.03 169.62
  Z
  M 599.04 169.63
  A 6.11 6.11 0.0 0 0 592.93 163.52
  A 6.11 6.11 0.0 0 0 586.82 169.63
  A 6.11 6.11 0.0 0 0 592.93 175.74
  A 6.11 6.11 0.0 0 0 599.04 169.63
  Z"
/>
<path fill="#000000" d="
  M 590.40 173.22
  C 589.99 171.77 590.31 167.76 590.41 166.18
  A 0.78 0.75 82.1 0 1 590.90 165.50
  C 593.19 164.66 597.72 165.48 595.53 168.85
  A 1.28 0.63 69.2 0 0 595.45 169.71
  L 596.02 172.75
  A 0.56 0.46 86.6 0 1 595.54 173.41
  Q 594.98 173.35 595.02 171.61
  A 1.77 1.76 14.6 0 0 594.07 170.00
  C 589.88 167.84 592.04 173.36 591.05 173.63
  A 0.58 0.52 74.2 0 1 590.40 173.22
  Z
  M 591.42 166.76
  C 590.48 170.92 598.18 168.74 593.21 165.96
  A 1.23 1.22 20.9 0 0 591.42 166.76
  Z"
/>
<path fill="#000000" d="
  M 600.00 187.34
  L 600.00 228.81
  Q 576.07 229.00 516.25 229.00
  Q 259.12 229.00 1.66 229.00
  A 0.66 0.66 -3.4 0 1 1.00 228.34
  L 1.00 188.16
  A 0.91 0.91 2.5 0 1 1.91 187.25
  L 600.00 187.34
  Z
  M 428.79 202.20
  C 428.79 198.46 434.48 196.04 433.45 202.28
  A 0.79 0.79 9.2 0 0 434.10 203.18
  C 437.99 203.84 438.06 201.69 437.99 198.77
  C 437.81 191.88 427.44 195.00 425.25 199.47
  C 420.77 208.63 432.86 209.46 430.21 215.32
  Q 429.25 217.45 427.35 217.47
  Q 424.95 217.51 425.48 212.51
  A 0.54 0.53 6.7 0 0 425.02 211.93
  C 421.07 211.37 421.45 212.20 420.78 215.61
  C 420.01 219.57 422.79 221.50 426.46 221.29
  Q 433.50 220.87 435.03 213.21
  C 436.03 208.18 431.93 206.49 429.12 203.07
  A 1.52 1.22 30.3 0 1 428.79 202.20
  Z
  M 488.14 195.81
  C 482.52 199.30 482.25 205.76 487.81 209.94
  C 495.15 215.44 483.70 221.09 484.66 214.52
  C 484.75 213.85 485.30 213.21 485.30 212.50
  A 0.75 0.68 9.1 0 0 484.77 211.83
  Q 482.94 211.25 481.40 212.22
  A 1.51 1.26 87.3 0 0 480.83 212.97
  C 476.67 224.72 493.27 223.93 494.77 212.60
  Q 495.11 210.02 493.38 208.08
  Q 491.86 206.39 489.75 204.51
  C 484.85 200.13 494.37 194.82 492.91 202.22
  A 0.68 0.68 11.6 0 0 493.44 203.03
  C 496.94 203.76 497.13 203.06 497.54 199.87
  C 498.24 194.54 491.42 193.77 488.14 195.81
  Z
  M 19.34 204.95
  L 20.89 199.72
  A 0.79 0.63 6.1 0 1 21.62 199.25
  Q 24.25 199.25 25.97 199.48
  Q 28.62 199.84 29.10 196.18
  A 0.78 0.78 -89.1 0 0 28.25 195.30
  Q 23.03 195.81 18.26 195.28
  A 0.96 0.93 -79.3 0 0 17.25 195.99
  L 10.95 219.91
  A 0.67 0.66 -82.5 0 0 11.58 220.75
  L 21.95 220.70
  A 1.05 0.98 16.7 0 0 22.75 220.30
  Q 23.61 219.13 23.59 217.68
  A 0.56 0.52 89.5 0 0 23.06 217.12
  L 17.39 217.19
  A 1.02 0.91 5.4 0 1 16.35 216.07
  L 17.75 210.30
  A 1.59 1.42 5.5 0 1 19.24 209.21
  L 24.56 209.12
  A 0.87 0.80 -76.9 0 0 25.29 208.62
  Q 25.87 207.40 25.93 206.05
  A 0.50 0.47 1.7 0 0 25.44 205.56
  L 19.82 205.46
  A 0.48 0.40 7.3 0 1 19.34 204.95
  Z
  M 53.80 213.64
  L 52.55 196.24
  A 0.99 0.83 -80.9 0 0 52.09 195.47
  Q 51.46 195.15 50.72 195.34
  A 1.87 1.70 -41.1 0 1 49.77 195.32
  Q 48.19 194.83 47.81 196.31
  Q 44.81 208.02 41.55 220.20
  A 0.51 0.44 -83.8 0 0 42.00 220.84
  L 45.20 220.57
  A 0.87 0.66 -81.4 0 0 45.83 219.96
  C 46.36 218.15 49.67 202.99 49.83 202.86
  Q 50.19 202.58 50.18 203.19
  C 50.17 208.54 51.11 213.71 51.19 218.95
  Q 51.23 221.38 55.25 220.37
  A 1.57 1.50 -88.7 0 0 56.36 219.26
  L 62.41 196.16
  A 0.57 0.49 -81.5 0 0 61.96 195.45
  L 58.80 195.48
  A 0.78 0.61 -80.3 0 0 58.17 196.05
  C 57.58 198.11 54.43 213.48 54.09 213.81
  Q 53.83 214.05 53.80 213.64
  Z
  M 81.08 199.55
  Q 78.05 213.20 76.00 219.25
  Q 75.31 221.30 77.02 220.89
  Q 77.49 220.78 77.99 220.84
  Q 79.93 221.04 80.50 218.75
  Q 82.84 209.43 85.54 199.83
  A 1.12 1.12 -72.9 0 1 86.97 199.07
  Q 90.88 200.37 91.39 195.90
  A 0.54 0.53 2.3 0 0 90.84 195.32
  L 79.25 195.50
  A 3.32 2.19 -67.1 0 0 77.00 197.00
  C 74.82 200.27 79.43 199.13 80.69 199.08
  A 0.39 0.38 -84.8 0 1 81.08 199.55
  Z
  M 105.64 216.45
  L 107.49 209.90
  A 0.76 0.69 6.2 0 1 108.18 209.40
  L 113.68 209.18
  A 1.08 0.84 11.7 0 0 114.48 208.79
  Q 115.31 207.55 115.42 206.06
  A 0.49 0.47 2.8 0 0 114.94 205.55
  L 109.06 205.45
  A 0.43 0.40 7.8 0 1 108.64 204.94
  L 110.12 199.77
  A 0.80 0.72 7.2 0 1 110.87 199.25
  L 116.75 199.25
  A 1.21 1.04 17.9 0 0 117.61 198.89
  Q 118.72 197.66 118.57 196.00
  A 0.57 0.54 -2.2 0 0 118.00 195.50
  L 107.37 195.51
  A 0.82 0.82 -82.6 0 0 106.58 196.12
  L 100.37 219.95
  A 0.69 0.69 7.0 0 0 101.05 220.82
  L 111.25 220.75
  A 1.14 0.96 15.3 0 0 112.08 220.37
  Q 113.05 219.10 112.79 217.54
  A 0.61 0.55 -3.8 0 0 112.19 217.07
  L 106.05 216.96
  A 0.43 0.40 7.9 0 1 105.64 216.45
  Z
  M 144.02 207.12
  Q 146.06 206.15 147.25 203.25
  C 151.28 193.40 141.10 195.50 135.65 195.50
  A 1.01 0.99 -82.4 0 0 134.69 196.25
  L 128.44 219.96
  A 0.53 0.51 -74.6 0 0 128.79 220.60
  Q 130.34 221.06 131.94 220.79
  A 0.88 0.83 -85.5 0 0 132.59 220.20
  Q 133.84 216.17 134.77 212.05
  C 135.20 210.13 135.91 209.01 138.06 209.94
  Q 140.77 211.10 140.50 212.25
  L 138.80 219.60
  A 0.82 0.73 -81.3 0 0 139.45 220.60
  L 142.75 220.80
  A 0.66 0.52 -81.9 0 0 143.32 220.26
  L 145.14 210.48
  A 1.35 1.07 38.6 0 0 144.94 209.60
  L 143.78 207.75
  A 0.48 0.42 -28.1 0 1 144.02 207.12
  Z
  M 171.58 200.24
  A 1.62 1.59 -76.4 0 1 173.46 199.07
  Q 177.16 199.90 177.54 196.17
  A 0.69 0.67 3.0 0 0 176.85 195.43
  L 164.38 195.42
  A 0.92 0.87 12.4 0 0 163.57 195.91
  Q 161.29 200.60 166.26 199.00
  Q 167.89 198.47 167.46 200.15
  L 162.36 220.02
  A 0.48 0.42 -80.8 0 0 162.73 220.62
  L 165.69 220.76
  A 0.72 0.58 -79.8 0 0 166.32 220.21
  L 171.58 200.24
  Z
  M 196.99 214.80
  L 196.54 219.85
  A 0.76 0.59 -87.0 0 0 197.11 220.67
  L 200.57 220.65
  A 0.63 0.53 -87.7 0 0 201.11 220.06
  L 202.43 196.06
  A 0.53 0.49 -88.4 0 0 201.94 195.50
  L 197.32 195.51
  A 0.89 0.74 -75.3 0 0 196.60 196.02
  Q 191.21 207.44 185.71 218.82
  C 185.12 220.04 184.13 221.33 187.00 220.75
  Q 189.46 220.25 190.06 219.06
  L 192.17 214.87
  A 0.94 0.88 -76.7 0 1 192.94 214.36
  L 196.44 214.26
  A 0.54 0.50 1.9 0 1 196.99 214.80
  Z
  M 229.01 195.43
  L 226.05 195.48
  A 0.77 0.62 -81.4 0 0 225.43 196.05
  Q 222.17 207.60 219.25 219.25
  Q 218.79 221.07 220.26 220.86
  Q 220.80 220.78 221.24 220.87
  Q 223.05 221.21 223.44 219.69
  Q 226.41 207.95 229.52 196.18
  A 0.60 0.54 -82.2 0 0 229.01 195.43
  Z
  M 254.81 213.19
  Q 254.82 206.27 253.91 199.41
  C 253.71 197.92 254.53 194.83 251.73 195.38
  Q 251.26 195.47 250.77 195.37
  C 248.71 194.95 248.93 196.57 248.58 197.86
  Q 245.60 208.90 242.69 219.95
  A 0.57 0.53 -73.4 0 0 243.02 220.62
  Q 244.70 221.21 246.36 220.52
  A 1.07 0.96 88.7 0 0 246.95 219.83
  C 247.42 218.21 251.02 202.79 251.03 202.80
  A 0.80 0.48 -85.8 0 1 251.42 203.57
  Q 251.13 211.95 252.72 220.19
  A 0.69 0.53 82.2 0 0 253.30 220.77
  L 256.46 220.58
  A 0.86 0.61 -81.4 0 0 257.07 219.95
  Q 260.06 209.32 262.78 198.62
  C 263.07 197.49 264.75 194.75 261.73 195.38
  Q 261.34 195.46 260.78 195.34
  Q 260.29 195.23 259.86 195.41
  A 1.29 0.80 -84.8 0 0 259.29 196.17
  Q 256.34 205.71 255.50 212.75
  Q 255.44 213.27 255.25 213.50
  Q 254.81 214.03 254.81 213.19
  Z
  M 287.60 212.99
  Q 287.45 212.81 287.50 212.50
  Q 288.73 204.80 289.02 196.27
  A 1.01 1.01 -6.2 0 0 287.76 195.26
  Q 285.75 195.78 283.84 195.29
  A 1.36 1.35 14.7 0 0 282.18 196.25
  L 276.02 219.86
  A 0.52 0.52 13.9 0 0 276.41 220.50
  Q 278.62 221.01 279.76 220.46
  A 1.27 0.92 -89.7 0 0 280.32 219.70
  Q 282.99 209.51 285.21 199.20
  C 285.28 198.85 286.00 197.74 285.87 199.18
  Q 284.94 209.55 284.34 219.94
  A 0.79 0.72 -76.6 0 0 284.75 220.68
  Q 286.56 221.55 287.49 219.49
  Q 292.08 209.32 296.67 199.14
  A 0.94 0.61 -79.6 0 1 297.13 198.65
  Q 297.60 198.49 297.31 199.31
  Q 293.93 209.27 291.45 219.70
  A 0.62 0.61 -75.5 0 0 291.87 220.43
  Q 293.62 220.93 294.65 220.65
  Q 295.57 220.40 296.00 218.69
  Q 298.71 207.66 301.83 196.46
  A 0.70 0.66 -81.6 0 0 301.21 195.58
  L 295.82 195.52
  A 0.90 0.79 -74.8 0 0 295.08 196.01
  Q 290.92 204.14 288.06 212.81
  Q 287.89 213.34 287.60 212.99
  Z
  M 321.89 204.94
  L 323.25 199.80
  A 0.98 0.90 8.8 0 1 324.24 199.14
  C 327.53 199.34 331.44 200.86 331.60 195.93
  A 0.53 0.50 1.0 0 0 331.07 195.41
  L 320.77 195.33
  A 0.86 0.79 7.3 0 0 319.94 195.92
  L 313.57 219.94
  A 0.79 0.76 6.6 0 0 314.36 220.90
  L 323.25 220.75
  Q 324.67 220.73 325.75 219.00
  C 327.73 215.83 321.36 217.00 319.43 217.11
  A 0.66 0.65 -84.1 0 1 318.77 216.28
  L 320.49 209.81
  A 1.04 1.01 8.6 0 1 321.54 209.06
  L 326.36 209.28
  A 2.03 1.65 -74.8 0 0 328.07 208.05
  Q 329.41 204.94 326.75 205.50
  Q 325.85 205.69 322.31 205.47
  A 0.45 0.42 8.9 0 1 321.89 204.94
  Z
  M 353.20 211.01
  L 352.25 197.50
  Q 352.16 196.17 350.00 195.50
  Q 348.99 195.19 348.04 195.41
  A 0.92 0.82 -87.9 0 0 347.43 196.05
  Q 344.38 207.79 341.17 219.48
  Q 340.72 221.12 342.51 220.85
  Q 342.95 220.78 343.49 220.86
  Q 344.18 220.95 344.76 220.69
  A 1.28 0.95 -88.0 0 0 345.34 219.96
  Q 347.76 212.04 348.94 203.83
  C 349.05 203.13 349.45 202.08 349.51 203.52
  Q 349.89 211.79 350.94 220.00
  A 0.71 0.51 84.9 0 0 351.48 220.63
  L 354.73 220.57
  A 1.07 0.90 -81.7 0 0 355.61 219.79
  Q 358.69 208.53 361.34 197.89
  C 361.56 197.00 362.87 194.90 360.48 195.38
  Q 360.05 195.47 359.52 195.35
  Q 358.79 195.18 358.13 195.45
  A 1.05 0.94 86.9 0 0 357.56 196.16
  L 354.31 211.08
  Q 353.48 214.90 353.20 211.01
  Z
  M 381.34 199.80
  Q 378.82 209.51 376.12 219.54
  C 375.93 220.27 375.91 221.35 377.05 220.96
  Q 377.56 220.79 378.00 220.84
  Q 378.92 220.96 379.74 220.65
  A 1.04 0.89 89.0 0 0 380.31 219.96
  L 385.50 199.99
  A 1.15 1.15 11.4 0 1 386.77 199.15
  Q 391.74 199.84 391.32 196.00
  A 0.57 0.56 -2.8 0 0 390.75 195.50
  L 378.19 195.44
  A 0.90 0.86 14.7 0 0 377.43 195.86
  Q 374.60 200.65 380.52 198.99
  Q 381.63 198.68 381.34 199.80
  Z
  M 459.85 204.84
  Q 460.07 200.61 459.16 195.92
  A 0.63 0.59 84.1 0 0 458.57 195.41
  L 455.10 195.43
  A 0.50 0.48 85.4 0 0 454.63 196.01
  Q 455.59 201.98 456.33 207.49
  C 456.91 211.72 455.22 215.79 454.07 219.85
  A 0.83 0.82 -85.2 0 0 454.95 220.90
  L 457.56 220.62
  A 0.79 0.77 -83.5 0 0 458.22 220.08
  C 459.54 216.14 459.98 212.22 462.05 208.69
  Q 465.73 202.43 470.20 196.67
  Q 471.26 195.31 469.64 195.38
  L 466.80 195.49
  A 1.01 0.90 -73.7 0 0 466.03 195.97
  L 460.49 205.02
  Q 459.77 206.19 459.85 204.84
  Z
  M 515.94 200.22
  L 510.95 219.96
  A 0.55 0.50 -74.8 0 0 511.28 220.60
  Q 512.88 221.10 514.52 220.65
  A 0.89 0.85 -89.7 0 0 515.13 220.02
  L 520.65 199.57
  A 0.85 0.83 -72.8 0 1 521.73 198.99
  Q 526.02 200.51 526.53 195.97
  A 0.54 0.51 3.4 0 0 526.00 195.40
  L 513.32 195.34
  A 1.05 0.80 12.7 0 0 512.51 195.71
  C 510.98 198.09 510.81 199.78 514.74 199.01
  A 1.03 0.99 1.2 0 1 515.94 200.22
  Z
  M 544.90 204.95
  L 546.45 199.85
  A 1.10 0.99 10.2 0 1 547.58 199.15
  C 550.64 199.42 555.14 200.48 554.86 195.94
  A 0.54 0.52 -2.2 0 0 554.31 195.45
  L 543.76 195.50
  A 0.83 0.82 7.2 0 0 542.96 196.11
  L 536.71 220.08
  A 0.58 0.56 7.4 0 0 537.27 220.78
  L 547.19 220.90
  A 1.29 0.94 16.6 0 0 548.06 220.59
  Q 549.25 219.33 549.22 217.57
  A 0.54 0.54 2.8 0 0 548.69 217.04
  L 542.40 217.02
  A 0.42 0.41 6.5 0 1 541.99 216.52
  L 543.66 209.79
  A 0.69 0.64 5.9 0 1 544.31 209.30
  L 550.19 209.20
  A 0.89 0.83 12.5 0 0 550.94 208.76
  Q 551.59 207.55 551.59 206.19
  A 0.55 0.55 0.6 0 0 551.06 205.65
  L 545.32 205.44
  A 0.44 0.38 8.9 0 1 544.90 204.95
  Z
  M 578.37 212.69
  L 579.80 196.41
  A 0.98 0.97 -3.4 0 0 578.62 195.38
  Q 576.50 195.83 574.35 195.38
  A 1.23 1.22 13.6 0 0 572.90 196.26
  Q 569.71 208.11 567.09 218.60
  C 566.92 219.26 565.61 221.18 567.59 220.90
  C 568.46 220.78 569.64 220.89 570.37 220.55
  A 1.11 0.99 86.9 0 0 570.95 219.83
  L 575.84 199.19
  A 0.62 0.39 -73.6 0 1 576.43 198.67
  C 576.74 198.81 575.27 216.63 575.13 218.47
  C 574.85 222.06 577.28 221.72 578.33 219.26
  Q 582.74 208.95 587.78 198.94
  Q 588.00 198.50 587.86 198.98
  Q 585.02 208.98 582.25 219.00
  Q 581.64 221.22 583.28 220.89
  Q 583.78 220.78 584.23 220.87
  C 586.56 221.34 586.33 219.69 586.73 218.18
  Q 589.65 207.25 592.56 196.30
  A 0.78 0.78 -88.6 0 0 591.64 195.33
  Q 589.37 195.82 587.02 195.31
  A 1.28 1.26 17.6 0 0 585.57 196.05
  L 578.51 212.72
  Q 578.33 213.12 578.37 212.69
  Z"
/>
<path fill="#000000" d="
  M 198.71 198.69
  C 199.09 197.68 199.29 198.53 199.22 198.92
  Q 198.14 204.30 197.55 209.75
  A 1.00 0.82 83.5 0 1 197.06 210.51
  Q 196.05 210.98 194.45 210.63
  A 0.43 0.43 17.4 0 1 194.14 210.04
  Q 196.56 204.36 198.71 198.69
  Z"
/>
<path fill="#000000" d="
  M 138.86 199.42
  Q 141.62 198.89 143.03 199.76
  A 0.93 0.86 -74.8 0 1 143.44 200.55
  Q 143.36 206.79 137.06 206.24
  A 0.48 0.44 9.4 0 1 136.63 205.69
  L 138.06 200.11
  A 1.06 0.90 -0.6 0 1 138.86 199.42
  Z"
/>
</svg>
