<?xml version="1.0" encoding="UTF-8" standalone="no"?>
<!DOCTYPE svg PUBLIC "-//W3C//DTD SVG 1.1//EN" "http://www.w3.org/Graphics/SVG/1.1/DTD/svg11.dtd">
<svg xmlns="http://www.w3.org/2000/svg" version="1.1" viewBox="0 0 600 300">
<path fill="#000000" d="
  M 332.34 200.19
  Q 336.22 202.01 337.56 197.52
  Q 351.02 152.51 364.50 107.50
  C 367.36 97.95 370.27 88.89 382.57 89.89
  A 0.56 0.55 1.7 0 1 383.09 90.43
  L 383.32 98.46
  Q 383.37 100.47 381.31 100.30
  Q 377.25 99.96 376.23 103.24
  Q 359.75 156.72 347.75 197.75
  C 345.74 204.60 342.08 210.42 334.16 210.58
  C 324.47 210.78 321.79 203.26 319.50 195.57
  Q 307.38 154.98 295.29 114.37
  Q 292.62 105.38 291.00 102.25
  Q 289.64 99.61 285.73 100.41
  A 1.13 1.11 84.9 0 1 284.40 99.28
  L 284.49 91.53
  A 1.80 1.76 -89.5 0 1 286.26 89.75
  Q 296.48 89.85 300.50 99.25
  Q 302.87 104.80 308.46 123.69
  Q 319.50 161.00 330.79 198.40
  A 2.93 2.92 -86.0 0 0 332.34 200.19
  Z"
/>
<path fill="#000000" d="
  M 582.54 174.19
  Q 583.64 174.56 583.65 172.50
  Q 583.74 151.96 583.75 131.43
  C 583.75 120.97 586.44 113.29 598.54 113.74
  A 1.00 1.00 1.2 0 1 599.50 114.74
  L 599.50 123.34
  A 0.62 0.54 88.0 0 1 599.00 123.95
  L 595.05 124.25
  A 0.87 0.74 -2.1 0 0 594.25 124.99
  Q 593.81 147.12 594.00 169.25
  C 594.03 173.20 593.78 177.84 591.60 180.92
  C 588.31 185.58 581.48 185.83 576.73 183.04
  C 572.75 180.71 570.87 175.36 569.31 170.94
  Q 565.70 160.67 552.42 124.68
  C 551.93 123.35 550.43 122.60 550.44 125.00
  Q 550.50 148.00 550.31 171.00
  Q 550.21 184.57 535.49 183.42
  A 1.07 1.04 2.4 0 1 534.51 182.38
  L 534.53 175.05
  A 1.53 1.49 -1.7 0 1 535.96 173.57
  Q 540.27 173.33 540.32 170.44
  Q 540.74 141.58 540.50 126.50
  C 540.36 117.99 547.41 110.04 556.68 114.37
  C 560.38 116.10 562.21 121.75 563.69 125.81
  Q 571.79 148.11 580.41 172.09
  Q 580.97 173.65 582.54 174.19
  Z"
/>
<path fill="#000000" d="
  M 535.7145 145.0690
  A 36.26 35.84 -7.8 0 1 504.6540 185.4984
  A 36.26 35.84 -7.8 0 1 463.8655 154.9110
  A 36.26 35.84 -7.8 0 1 494.9260 114.4816
  A 36.26 35.84 -7.8 0 1 535.7145 145.0690
  Z
  M 525.67 150.00
  A 25.78 25.78 0.0 0 0 499.89 124.22
  A 25.78 25.78 0.0 0 0 474.11 150.00
  A 25.78 25.78 0.0 0 0 499.89 175.78
  A 25.78 25.78 0.0 0 0 525.67 150.00
  Z"
/>
<path fill="#000000" d="
  M 241.53 175.17
  Q 241.75 175.24 242.27 174.95
  A 0.90 0.81 76.0 0 0 242.68 174.18
  Q 242.37 152.97 242.50 131.75
  C 242.56 122.83 244.20 115.24 254.77 114.90
  Q 263.30 114.63 271.94 114.69
  A 0.81 0.81 0.0 0 1 272.75 115.50
  L 272.75 123.90
  A 1.10 1.10 0.8 0 1 271.65 125.00
  L 253.55 125.00
  A 1.12 1.12 -2.4 0 0 252.43 126.21
  C 253.52 139.21 253.00 152.46 253.00 165.50
  C 253.00 172.31 253.60 178.33 248.41 182.62
  C 241.20 188.57 230.61 184.07 230.45 174.39
  Q 230.08 152.17 230.24 129.95
  C 230.27 126.77 230.64 125.00 226.50 125.00
  Q 218.62 125.00 210.80 125.00
  A 0.78 0.74 -89.2 0 1 210.06 124.20
  L 210.24 116.16
  A 1.38 1.30 -89.5 0 1 211.53 114.81
  C 221.10 114.70 240.25 111.05 240.25 126.75
  Q 240.25 149.13 240.25 173.41
  A 1.85 1.84 -81.2 0 0 241.53 175.17
  Z"
/>
<rect fill="#000000" x="277.75" y="114.52" width="10.74" height="69.82" rx="1.14"/>
<rect fill="#000000" x="381.24" y="114.55" width="10.26" height="69.86" rx="0.96"/>
<path fill="#000000" d="
  M 397.81 141.69
  C 393.11 130.41 401.06 117.72 412.73 115.39
  C 419.59 114.01 433.02 115.07 442.21 114.82
  A 0.78 0.77 -5.0 0 1 443.00 115.48
  Q 443.63 119.73 443.01 123.95
  A 0.58 0.57 4.0 0 1 442.44 124.44
  Q 429.84 124.55 417.25 124.70
  C 409.92 124.79 404.10 131.27 407.09 138.31
  C 411.17 147.96 422.48 143.30 430.15 145.75
  C 440.11 148.95 447.09 160.02 443.20 170.45
  Q 437.98 184.43 421.75 184.50
  Q 406.65 184.57 397.51 184.27
  A 0.57 0.51 2.1 0 1 396.96 183.74
  L 397.34 175.85
  A 1.93 1.68 1.2 0 1 399.26 174.25
  Q 411.81 174.25 423.24 174.25
  Q 427.76 174.25 429.98 172.91
  Q 433.52 170.77 434.00 166.50
  C 435.11 156.70 427.08 153.83 418.99 154.28
  Q 403.42 155.14 397.81 141.69
  Z"
/>
<rect fill="#000000" x="449.00" y="114.83" width="10.00" height="69.40" rx="0.75"/>
<path fill="#000000" d="
  M 89.64 115.52
  C 96.91 116.97 102.96 123.21 103.77 130.59
  C 105.00 141.80 95.22 149.57 84.44 149.68
  A 1.43 1.07 16.5 0 0 83.55 150.01
  C 82.25 151.24 83.98 151.50 84.80 151.49
  C 96.18 151.38 102.47 157.78 103.40 168.68
  Q 103.59 170.81 103.96 173.51
  A 1.04 0.85 -0.1 0 0 104.89 174.26
  L 108.75 174.56
  A 0.64 0.54 -88.1 0 1 109.25 175.19
  L 109.25 182.82
  A 1.44 1.42 87.4 0 1 107.96 184.25
  C 96.77 185.37 93.87 179.43 93.86 169.76
  C 93.84 154.29 74.26 167.24 68.56 154.35
  C 64.57 145.32 73.27 139.89 81.59 139.72
  Q 83.26 139.69 84.93 139.89
  C 90.42 140.55 96.21 135.38 93.65 129.64
  C 91.28 124.33 86.66 124.96 80.65 124.96
  C 75.55 124.96 66.70 123.44 66.42 130.72
  Q 66.10 139.15 65.89 147.58
  C 65.72 154.08 66.29 162.68 65.86 170.25
  C 65.35 179.05 61.92 184.58 52.50 184.66
  C 44.11 184.74 34.49 185.57 26.90 183.47
  C 9.53 178.65 -4.55 159.25 2.10 140.49
  Q 9.06 120.83 28.30 116.06
  C 34.81 114.45 42.42 115.14 49.63 115.27
  A 1.40 1.40 -4.8 0 1 50.98 116.41
  C 51.40 118.67 51.13 120.65 51.09 122.88
  Q 51.05 125.00 48.25 125.00
  C 41.74 125.00 34.11 124.36 28.36 126.04
  C 0.68 134.10 6.70 174.65 36.19 174.81
  C 41.89 174.84 47.55 175.05 53.25 174.95
  C 56.71 174.89 56.25 172.59 56.25 169.67
  Q 56.25 153.55 56.25 137.44
  C 56.25 119.92 62.60 115.22 79.84 115.10
  Q 87.32 115.05 89.64 115.52
  Z"
/>
<path fill="#000000" d="
  M 122.63 163.78
  C 120.72 168.84 122.06 174.61 128.42 174.80
  Q 140.83 175.17 153.25 175.00
  C 156.12 174.96 157.38 175.23 158.49 172.15
  Q 172.70 133.00 175.06 125.81
  C 180.04 110.65 196.13 112.08 201.48 125.87
  C 204.65 134.05 213.58 149.27 201.90 155.25
  C 198.10 157.20 192.98 156.81 188.56 156.81
  A 0.66 0.61 5.3 0 0 187.92 157.30
  Q 187.60 158.87 189.74 158.69
  Q 202.15 157.62 210.50 159.75
  C 218.11 161.69 214.95 175.80 223.67 174.96
  A 1.67 1.63 -2.5 0 1 225.50 176.60
  L 225.44 184.30
  A 0.93 0.91 -1.7 0 1 224.58 185.20
  Q 219.58 185.60 215.43 184.08
  C 207.52 181.17 210.08 167.31 201.50 168.75
  Q 199.38 169.10 190.02 168.68
  C 171.14 167.84 175.19 145.29 192.05 146.85
  C 197.28 147.34 198.58 146.35 196.57 141.04
  C 195.78 138.96 188.99 116.74 184.81 128.06
  Q 180.91 138.65 170.21 169.16
  C 166.75 179.00 165.70 185.02 154.75 185.14
  Q 144.87 185.25 135.00 185.25
  C 124.07 185.25 114.38 184.53 112.31 171.44
  C 111.49 166.25 111.47 160.93 114.78 156.82
  C 118.41 152.32 123.05 152.46 129.44 152.35
  Q 136.31 152.23 143.19 152.42
  A 0.93 0.84 15.8 0 0 143.98 152.03
  Q 144.99 150.40 142.50 150.42
  Q 133.75 150.50 125.00 150.50
  C 118.14 150.50 113.37 147.99 112.25 140.75
  C 110.50 129.51 114.80 115.99 128.25 115.86
  Q 140.00 115.75 152.66 115.75
  A 1.52 1.48 -0.2 0 1 154.18 117.22
  L 154.24 124.17
  Q 154.25 126.00 152.38 126.00
  Q 141.02 125.96 129.13 126.05
  C 121.97 126.10 122.08 131.23 121.98 136.92
  Q 121.94 139.71 124.73 139.68
  C 130.78 139.62 143.96 138.96 149.19 142.12
  C 156.69 146.65 155.73 157.81 147.70 161.36
  C 140.65 164.47 130.61 160.52 123.28 163.13
  A 1.11 1.08 -89.0 0 0 122.63 163.78
  Z"
/>
</svg>
