<?xml version="1.0" encoding="UTF-8" standalone="no"?>
<!DOCTYPE svg PUBLIC "-//W3C//DTD SVG 1.1//EN" "http://www.w3.org/Graphics/SVG/1.1/DTD/svg11.dtd">
<svg xmlns="http://www.w3.org/2000/svg" version="1.1" viewBox="0 0 600 107">
<path fill="#c20000" d="
  M 467.93 28.38
  C 470.95 22.78 474.60 16.74 476.81 10.85
  Q 477.08 10.13 477.43 10.81
  L 518.79 90.88
  A 0.60 0.60 76.5 0 1 518.26 91.75
  L 501.81 91.75
  Q 500.15 91.75 499.30 90.16
  L 493.45 79.24
  A 0.90 0.84 -13.4 0 0 492.68 78.80
  L 471.20 78.93
  A 0.62 0.61 13.6 0 1 470.64 78.04
  L 478.41 63.01
  A 0.96 0.96 13.9 0 1 479.26 62.50
  L 484.49 62.50
  A 0.47 0.46 76.3 0 0 484.90 61.82
  L 467.92 29.29
  A 0.97 0.94 -45.3 0 1 467.93 28.38
  Z"
/>
<path fill="#c20000" d="
  M 294.59 47.83
  C 301.98 0.81 367.58 0.89 375.36 47.94
  A 0.43 0.43 85.4 0 1 374.94 48.44
  L 359.67 48.49
  A 1.54 1.52 81.0 0 1 358.20 47.41
  C 350.58 22.96 318.70 23.01 311.61 48.02
  A 0.65 0.65 7.5 0 1 310.98 48.50
  L 295.16 48.50
  A 0.58 0.58 4.7 0 1 294.59 47.83
  Z"
/>
<path fill="#c20000" d="
  M 515.41 58.05
  C 512.49 35.79 528.60 15.61 550.95 12.62
  A 0.44 0.44 86.6 0 1 551.44 13.06
  L 551.50 28.65
  A 0.99 0.99 -7.1 0 1 550.75 29.61
  C 525.84 35.93 525.58 69.23 550.20 76.46
  A 1.81 1.81 -81.9 0 1 551.50 78.20
  L 551.50 93.01
  A 0.73 0.73 5.0 0 1 550.64 93.73
  C 531.66 90.47 517.88 76.95 515.41 58.05
  Z"
/>
<path fill="#c20000" d="
  M 587.86 27.60
  A 0.87 0.86 50.7 0 1 587.74 28.83
  L 575.86 38.19
  A 0.72 0.71 49.8 0 1 574.89 38.10
  Q 568.90 31.41 561.17 29.43
  A 0.67 0.63 7.7 0 1 560.67 28.81
  L 560.52 13.33
  A 0.75 0.74 4.3 0 1 561.39 12.59
  Q 577.46 15.02 587.86 27.60
  Z"
/>
<path fill="#c20000" d="
  M 67.53 77.70
  C 64.72 83.50 61.65 89.12 58.48 94.92
  Q 58.23 95.37 58.00 94.92
  Q 38.34 56.67 19.02 19.02
  Q 18.01 17.06 16.68 15.30
  Q 15.93 14.31 17.19 14.33
  L 34.81 14.50
  A 0.88 0.82 -12.8 0 1 35.57 14.94
  L 67.52 76.81
  A 0.99 0.98 -46.0 0 1 67.53 77.70
  Z"
/>
<path fill="#c20000" d="
  M 63.65 48.50
  L 80.83 15.23
  A 1.36 1.35 -76.2 0 1 82.03 14.50
  L 99.59 14.50
  A 0.32 0.32 -76.6 0 1 99.87 14.96
  L 73.41 66.25
  Q 72.83 67.37 72.26 66.26
  L 63.65 49.63
  A 1.25 1.23 -45.5 0 1 63.65 48.50
  Z"
/>
<rect fill="#c20000" x="111.75" y="14.50" width="16.76" height="77.24" rx="0.58"/>
<rect fill="#c20000" x="143.25" y="14.50" width="16.76" height="77.24" rx="0.61"/>
<path fill="#c20000" d="
  M 169.67 91.56
  A 0.68 0.68 -87.2 0 1 169.01 90.83
  Q 169.59 83.50 169.00 75.99
  A 0.63 0.63 87.4 0 1 169.62 75.31
  C 174.81 75.27 181.05 75.34 185.65 73.64
  C 203.36 67.08 204.53 41.92 187.77 33.45
  C 182.55 30.81 176.47 30.74 170.45 31.06
  A 1.31 1.31 -1.0 0 1 169.07 29.73
  L 169.28 15.42
  A 0.88 0.87 -1.1 0 1 170.12 14.56
  C 182.75 14.01 194.04 15.25 203.76 24.23
  C 226.78 45.48 216.81 86.83 184.29 90.91
  Q 177.02 91.83 169.67 91.56
  Z"
/>
<rect fill="#c20000" x="227.74" y="14.50" width="16.76" height="77.24" rx="0.57"/>
<rect fill="#c20000" x="-15.39" y="-8.00" transform="translate(269.11,22.50) rotate(-0.1)" width="30.78" height="16.00" rx="0.31"/>
<rect fill="#c20000" x="-8.27" y="-38.61" transform="translate(394.25,53.12) rotate(-0.1)" width="16.54" height="77.22" rx="0.27"/>
<path fill="#c20000" d="
  M 411.92 30.09
  L 411.82 15.32
  A 0.82 0.78 90.0 0 1 412.60 14.50
  C 425.43 14.50 435.50 14.47 442.19 27.06
  C 449.15 40.17 441.84 56.18 428.03 60.16
  C 423.32 61.52 417.83 61.38 412.61 61.22
  A 0.63 0.62 1.0 0 1 412.00 60.60
  L 412.00 45.51
  A 0.78 0.77 -88.9 0 1 412.80 44.73
  C 416.74 44.85 421.96 45.10 425.12 43.36
  C 428.84 41.32 429.43 35.94 426.22 32.91
  C 423.49 30.32 416.43 30.89 412.84 31.01
  A 0.93 0.89 88.8 0 1 411.92 30.09
  Z"
/>
<path fill="#c20000" d="
  M 435.93 90.70
  C 444.90 73.71 453.57 56.58 462.38 39.51
  Q 462.87 38.56 463.36 39.51
  L 472.01 56.49
  A 1.11 1.09 45.6 0 1 472.01 57.48
  L 454.85 90.86
  A 1.65 1.61 -76.0 0 1 453.41 91.75
  L 436.56 91.75
  A 0.72 0.71 -76.1 0 1 435.93 90.70
  Z"
/>
<rect fill="#c20000" x="253.74" y="45.00" width="30.76" height="16.24" rx="0.42"/>
<path fill="#c20000" d="
  M 375.44 58.26
  C 370.29 90.53 333.44 105.27 308.31 83.69
  Q 296.76 73.76 294.75 58.42
  A 0.44 0.43 86.0 0 1 295.18 57.92
  L 310.57 57.77
  A 1.19 1.13 79.7 0 1 311.67 58.57
  Q 316.57 72.61 328.44 75.96
  C 342.19 79.84 353.97 72.38 358.12 58.85
  A 1.56 1.56 -81.4 0 1 359.61 57.75
  L 375.01 57.75
  A 0.44 0.44 -85.5 0 1 375.44 58.26
  Z"
/>
<path fill="#c20000" d="
  M 575.03 68.03
  A 0.68 0.65 38.8 0 1 575.94 67.95
  L 588.29 77.46
  A 0.52 0.50 38.0 0 1 588.39 78.18
  Q 578.38 90.81 561.38 93.74
  A 0.75 0.75 -4.9 0 1 560.50 93.00
  L 560.50 77.59
  A 0.94 0.93 83.4 0 1 561.22 76.68
  Q 569.31 74.80 575.03 68.03
  Z"
/>
<rect fill="#c20000" x="253.72" y="75.50" width="30.78" height="16.24" rx="0.45"/>
</svg>
