<?xml version="1.0" encoding="UTF-8" standalone="no"?>
<!DOCTYPE svg PUBLIC "-//W3C//DTD SVG 1.1//EN" "http://www.w3.org/Graphics/SVG/1.1/DTD/svg11.dtd">
<svg xmlns="http://www.w3.org/2000/svg" version="1.1" viewBox="0 0 600 300">
<g stroke-width="2.00" fill="none" stroke-linecap="butt">
<path stroke="#1d234d" vector-effect="non-scaling-stroke" d="
  M 210.75 228.71
  L 184.20 240.35
  A 0.73 0.71 -21.3 0 1 183.23 239.94
  L 179.25 228.63"
/>
<path stroke="#12162f" vector-effect="non-scaling-stroke" d="
  M 303.50 234.96
  Q 313.54 234.89 323.00 231.54"
/>
<path stroke="#1d234d" vector-effect="non-scaling-stroke" d="
  M 331.75 228.69
  L 323.00 231.54"
/>
<path stroke="#2f387c" vector-effect="non-scaling-stroke" d="
  M 323.00 231.54
  L 303.50 234.96"
/>
<path stroke="#1d234d" vector-effect="non-scaling-stroke" d="
  M 303.50 234.96
  C 288.55 236.15 277.92 234.59 264.24 228.76"
/>
<path stroke="#752623" vector-effect="non-scaling-stroke" d="
  M 130.54 229.00
  Q 130.67 230.16 130.35 231.22
  A 0.68 0.64 8.4 0 1 129.69 231.68
  Q 108.43 231.60 87.17 231.51
  C 85.12 231.50 82.29 232.93 83.21 228.75"
/>
<path stroke="#1d234d" vector-effect="non-scaling-stroke" d="
  M 541.01 229.03
  Q 519.06 232.09 496.47 233.26
  A 1.25 1.25 8.2 0 1 495.22 231.59
  Q 495.76 230.07 495.25 228.71"
/>
<path stroke="#1d234d" vector-effect="non-scaling-stroke" d="
  M 476.31 229.03
  Q 454.17 232.27 431.09 233.28
  A 0.58 0.57 89.0 0 1 430.50 232.70
  L 430.46 228.75"
/>
<path stroke="#1d234d" vector-effect="non-scaling-stroke" d="
  M 411.54 229.16
  Q 389.24 231.96 366.17 233.28
  A 0.57 0.50 89.1 0 1 365.64 232.70
  L 365.71 228.75"
/>
<path stroke="#808080" vector-effect="non-scaling-stroke" d="
  M 91.25 252.00
  C 93.35 237.13 72.05 237.65 62.75 238.25
  C 56.68 238.64 46.25 241.36 46.25 248.75
  Q 46.25 257.52 46.25 266.28
  Q 46.25 275.51 46.40 276.20
  C 49.19 289.51 79.72 287.24 87.19 281.94
  C 91.24 279.06 92.16 272.73 91.06 268.04
  A 0.66 0.60 -6.1 0 0 90.43 267.58
  L 77.56 267.57
  A 0.64 0.63 -88.6 0 0 76.93 268.18
  L 76.55 275.60
  Q 76.46 277.41 74.51 278.00
  Q 69.79 279.41 65.08 278.35
  C 61.35 277.50 61.50 275.48 61.50 272.27
  Q 61.49 261.26 61.31 250.25
  C 61.21 244.10 69.93 244.86 73.69 245.94
  Q 77.53 247.05 76.61 251.99
  Q 76.23 254.07 78.50 254.10
  L 89.25 254.25
  Q 90.93 254.27 91.25 252.00"
/>
<path stroke="#808080" vector-effect="non-scaling-stroke" d="
  M 135.81 277.44
  L 135.76 238.92
  A 0.89 0.85 89.7 0 0 134.90 238.03
  L 120.94 238.16
  A 0.52 0.51 89.4 0 0 120.44 238.68
  L 120.24 284.24
  A 0.94 0.94 -0.3 0 0 121.19 285.18
  L 159.75 285.00
  A 0.58 0.50 0.5 0 0 160.33 284.51
  L 160.38 278.68
  A 0.57 0.49 0.5 0 0 159.81 278.18
  L 136.31 277.94
  A 0.51 0.50 0.6 0 1 135.81 277.44"
/>
<path stroke="#808080" vector-effect="non-scaling-stroke" d="
  M 216.00 276.43
  Q 217.74 279.51 218.31 283.44
  Q 218.58 285.25 220.38 285.24
  L 234.02 285.19
  A 0.34 0.33 80.9 0 0 234.33 284.75
  L 219.22 238.66
  A 0.71 0.67 80.5 0 0 218.57 238.17
  L 197.19 238.17
  A 0.73 0.69 -79.9 0 0 196.53 238.66
  L 181.53 284.41
  A 0.50 0.50 9.4 0 0 182.00 285.06
  L 194.46 285.25
  A 1.39 1.31 -80.9 0 0 195.75 284.26
  L 198.02 276.65
  A 0.74 0.62 6.2 0 1 198.69 276.20
  L 215.25 276.03
  A 0.87 0.78 -13.7 0 1 216.00 276.43"
/>
<path stroke="#808080" vector-effect="non-scaling-stroke" d="
  M 261.40 258.10
  C 266.54 262.14 274.02 264.87 279.90 267.88
  Q 283.74 269.85 284.75 271.50
  C 289.53 279.28 278.76 278.81 275.00 278.50
  Q 270.14 278.10 270.56 272.47
  A 1.36 1.32 -88.2 0 0 269.24 271.02
  L 256.68 271.16
  A 0.56 0.54 -88.8 0 0 256.15 271.69
  Q 255.56 282.56 266.75 284.75
  C 275.09 286.39 302.00 288.46 301.10 273.97
  C 300.56 265.13 285.88 260.13 279.19 257.06
  C 267.71 251.79 270.45 242.91 283.08 245.62
  Q 286.75 246.41 286.44 251.12
  A 0.83 0.83 -88.4 0 0 287.27 252.00
  L 300.47 252.00
  A 0.53 0.52 -89.4 0 0 300.99 251.48
  C 301.15 237.20 283.33 237.40 272.75 238.25
  Q 268.16 238.62 264.39 240.02
  C 255.70 243.23 253.26 251.71 261.40 258.10"
/>
<path stroke="#808080" vector-effect="non-scaling-stroke" d="
  M 325.59 248.75
  C 324.92 254.71 330.40 258.84 335.34 261.13
  C 339.72 263.17 353.43 268.63 354.69 273.31
  C 356.41 279.74 345.96 279.24 342.50 278.10
  C 339.31 277.04 339.30 275.09 339.62 272.14
  A 1.01 1.01 -86.7 0 0 338.62 271.01
  L 325.80 271.05
  A 0.62 0.60 -85.3 0 0 325.22 271.56
  C 322.69 286.72 343.87 286.23 353.00 285.75
  C 359.03 285.43 365.57 284.09 368.85 278.80
  C 376.26 266.83 352.31 259.41 345.41 255.60
  Q 342.16 253.81 341.31 251.69
  C 337.90 243.17 356.79 242.26 355.64 251.44
  A 0.45 0.43 -86.4 0 0 356.06 251.94
  L 369.56 252.07
  A 0.44 0.44 -89.3 0 0 370.00 251.64
  Q 370.26 242.46 361.50 239.75
  C 353.55 237.29 327.13 235.07 325.59 248.75"
/>
<path stroke="#808080" vector-effect="non-scaling-stroke" d="
  M 411.8306 238.5470
  A 0.51 0.51 0.0 0 0 411.3224 238.0352
  L 396.9625 237.9851
  A 0.51 0.51 0.0 0 0 396.4507 238.4933
  L 396.2894 284.6930
  A 0.51 0.51 0.0 0 0 396.7976 285.2048
  L 411.1575 285.2549
  A 0.51 0.51 0.0 0 0 411.6693 284.7467
  L 411.8306 238.5470"
/>
<path stroke="#808080" vector-effect="non-scaling-stroke" d="
  M 439.40 276.49
  C 441.92 288.55 468.92 286.95 476.75 283.75
  Q 485.59 280.13 484.02 268.52
  A 1.35 1.27 -4.6 0 0 482.66 267.43
  L 470.50 267.73
  A 0.69 0.64 -2.5 0 0 469.83 268.41
  Q 470.02 271.40 469.71 274.75
  C 469.20 280.39 459.25 278.99 456.17 277.60
  Q 454.50 276.85 454.50 275.01
  Q 454.50 262.62 454.30 250.25
  C 454.23 245.73 459.02 245.05 462.46 245.21
  C 467.28 245.44 470.68 246.11 469.69 252.12
  Q 469.37 254.09 471.30 254.09
  L 483.56 254.08
  A 0.60 0.58 -85.4 0 0 484.14 253.57
  C 486.57 237.40 467.78 237.62 456.75 238.25
  C 448.29 238.73 439.25 240.75 439.25 251.00
  Q 439.25 260.50 439.25 269.99
  Q 439.25 275.75 439.40 276.49"
/>
<path stroke="#808080" vector-effect="non-scaling-stroke" d="
  M 511.59 248.75
  C 509.94 263.41 542.59 264.89 540.71 275.27
  C 539.88 279.86 531.40 278.98 528.51 278.08
  C 525.28 277.07 525.30 275.05 525.63 272.10
  A 1.00 0.99 3.1 0 0 524.64 271.00
  L 512.03 271.00
  A 1.02 1.01 0.6 0 0 511.01 271.99
  Q 510.80 281.26 519.00 284.00
  C 526.97 286.66 556.64 288.91 556.11 274.40
  C 555.60 260.48 524.27 258.23 526.88 248.76
  C 528.30 243.58 542.68 243.07 541.64 251.44
  A 0.45 0.43 -86.4 0 0 542.06 251.94
  L 555.59 252.07
  A 0.41 0.41 -89.3 0 0 556.00 251.67
  Q 556.27 242.46 547.50 239.75
  C 539.57 237.30 513.13 235.07 511.59 248.75"
/>
<path stroke="#808080" vector-effect="non-scaling-stroke" d="
  M 207.00 247.25
  C 204.71 254.59 202.43 261.95 200.32 269.34
  A 0.39 0.39 -81.3 0 0 200.68 269.84
  L 213.42 269.97
  A 0.60 0.58 81.5 0 0 213.97 269.20
  L 207.25 247.25
  Q 207.13 246.85 207.00 247.25"
/>
</g>
<path fill="#3a459a" d="
  M 110.12 91.25
  C 109.05 92.33 107.56 94.21 105.99 95.58
  A 0.59 0.59 -42.8 0 1 105.18 95.55
  L 60.72 50.84
  A 1.00 0.99 44.8 0 1 60.71 49.44
  L 104.65 4.61
  A 0.50 0.50 44.6 0 1 105.36 4.61
  L 150.52 50.02
  A 0.59 0.59 45.3 0 1 150.52 50.85
  Q 129.77 71.65 110.12 91.25
  Z"
/>
<path fill="#3a459a" d="
  M 210.75 228.71
  L 184.20 240.35
  A 0.73 0.71 -21.3 0 1 183.23 239.94
  L 179.25 228.63
  L 142.78 122.60
  A 0.66 0.66 -21.9 0 1 143.13 121.78
  L 181.98 104.40
  A 0.48 0.47 -21.9 0 1 182.63 104.67
  L 189.67 125.71
  A 0.68 0.44 71.9 0 0 190.30 126.22
  Q 190.70 126.10 190.64 125.31
  C 189.13 103.86 204.61 94.76 223.12 90.72
  A 0.69 0.68 81.4 0 1 223.94 91.33
  L 227.91 136.27
  A 1.04 1.03 78.2 0 1 227.22 137.34
  C 223.51 138.60 219.64 139.81 216.53 141.71
  Q 201.98 150.57 207.69 168.31
  Q 211.42 179.94 225.78 221.22
  A 0.57 0.56 68.3 0 1 225.49 221.91
  L 210.75 228.71
  Z"
/>
<path fill="#3a459a" d="
  M 331.75 228.69
  L 323.00 231.54
  L 303.50 234.96
  C 288.55 236.15 277.92 234.59 264.24 228.76
  C 233.42 213.34 222.05 179.84 233.19 147.48
  C 243.94 116.24 275.56 100.40 307.37 107.57
  Q 337.61 114.39 351.89 144.38
  A 1.18 1.17 58.6 0 1 351.54 145.83
  L 289.61 192.67
  Q 288.89 193.21 289.77 193.44
  Q 312.91 199.39 329.99 183.88
  A 0.78 0.78 -36.8 0 1 331.18 184.05
  L 351.09 216.89
  A 0.87 0.86 -33.5 0 1 350.85 218.04
  Q 341.93 224.37 331.75 228.69
  Z
  M 279.69 147.69
  Q 270.08 157.98 274.40 171.43
  A 0.72 0.72 -27.6 0 0 275.52 171.78
  L 305.94 148.80
  A 0.72 0.71 51.8 0 0 306.06 147.77
  C 299.67 140.14 286.36 140.54 279.69 147.69
  Z"
/>
<path fill="#3a459a" d="
  M 541.01 229.03
  Q 519.06 232.09 496.47 233.26
  A 1.25 1.25 8.2 0 1 495.22 231.59
  Q 495.76 230.07 495.25 228.71
  Q 495.25 194.18 495.25 159.65
  Q 495.25 154.07 494.22 152.01
  C 491.26 146.11 481.42 146.35 477.92 151.68
  C 476.01 154.58 476.25 157.43 476.25 161.00
  Q 476.21 194.67 476.31 229.03
  Q 454.17 232.27 431.09 233.28
  A 0.58 0.57 89.0 0 1 430.50 232.70
  L 430.46 228.75
  Q 430.53 194.19 430.50 159.64
  Q 430.50 154.26 429.29 152.06
  C 426.13 146.30 415.65 146.11 412.70 151.93
  Q 411.50 154.28 411.50 160.75
  Q 411.47 194.78 411.54 229.16
  Q 389.24 231.96 366.17 233.28
  A 0.57 0.50 89.1 0 1 365.64 232.70
  L 365.71 228.75
  L 365.75 110.64
  A 1.04 1.04 87.6 0 1 366.70 109.60
  L 407.06 105.98
  A 0.48 0.46 -2.8 0 1 407.59 106.44
  L 407.56 124.96
  Q 407.56 125.98 408.19 125.19
  C 411.77 120.68 415.90 116.11 420.59 113.00
  C 436.70 102.32 459.00 103.01 472.15 117.95
  A 0.68 0.67 47.0 0 0 473.14 117.99
  C 496.22 95.25 532.91 105.93 539.77 137.74
  Q 540.74 142.22 540.81 150.82
  Q 541.16 189.63 541.01 229.03
  Z"
/>
<path fill="#e94b46" d="
  M 130.54 229.00
  Q 130.67 230.16 130.35 231.22
  A 0.68 0.64 8.4 0 1 129.69 231.68
  Q 108.43 231.60 87.17 231.51
  C 85.12 231.50 82.29 232.93 83.21 228.75
  L 83.25 108.63
  A 0.88 0.87 -90.0 0 1 84.12 107.75
  L 129.41 107.75
  A 1.09 1.09 0.0 0 1 130.50 108.84
  L 130.54 229.00
  Z"
/>
<path fill="#000000" d="
  M 179.25 228.63
  L 183.23 239.94
  A 0.73 0.71 -21.3 0 0 184.20 240.35
  L 210.75 228.71
  Q 237.49 229.40 264.24 228.76
  C 277.92 234.59 288.55 236.15 303.50 234.96
  Q 313.54 234.89 323.00 231.54
  L 331.75 228.69
  Q 348.72 229.42 365.71 228.75
  L 365.64 232.70
  A 0.57 0.50 89.1 0 0 366.17 233.28
  Q 389.24 231.96 411.54 229.16
  L 430.46 228.75
  L 430.50 232.70
  A 0.58 0.57 89.0 0 0 431.09 233.28
  Q 454.17 232.27 476.31 229.03
  L 495.25 228.71
  Q 495.76 230.07 495.22 231.59
  A 1.25 1.25 8.2 0 0 496.47 233.26
  Q 519.06 232.09 541.01 229.03
  Q 550.67 228.98 560.25 228.87
  C 601.78 228.40 608.30 285.49 566.75 293.75
  Q 564.33 294.23 553.25 294.22
  Q 301.38 294.00 49.50 294.00
  Q 34.58 294.00 29.62 292.68
  C 16.45 289.17 6.15 276.32 6.01 262.19
  C 5.81 240.72 23.31 227.75 43.75 229.00
  Q 51.25 229.46 83.21 228.75
  C 82.29 232.93 85.12 231.50 87.17 231.51
  Q 108.43 231.60 129.69 231.68
  A 0.68 0.64 8.4 0 0 130.35 231.22
  Q 130.67 230.16 130.54 229.00
  L 179.25 228.63
  Z
  M 91.25 252.00
  C 93.35 237.13 72.05 237.65 62.75 238.25
  C 56.68 238.64 46.25 241.36 46.25 248.75
  Q 46.25 257.52 46.25 266.28
  Q 46.25 275.51 46.40 276.20
  C 49.19 289.51 79.72 287.24 87.19 281.94
  C 91.24 279.06 92.16 272.73 91.06 268.04
  A 0.66 0.60 -6.1 0 0 90.43 267.58
  L 77.56 267.57
  A 0.64 0.63 -88.6 0 0 76.93 268.18
  L 76.55 275.60
  Q 76.46 277.41 74.51 278.00
  Q 69.79 279.41 65.08 278.35
  C 61.35 277.50 61.50 275.48 61.50 272.27
  Q 61.49 261.26 61.31 250.25
  C 61.21 244.10 69.93 244.86 73.69 245.94
  Q 77.53 247.05 76.61 251.99
  Q 76.23 254.07 78.50 254.10
  L 89.25 254.25
  Q 90.93 254.27 91.25 252.00
  Z
  M 135.81 277.44
  L 135.76 238.92
  A 0.89 0.85 89.7 0 0 134.90 238.03
  L 120.94 238.16
  A 0.52 0.51 89.4 0 0 120.44 238.68
  L 120.24 284.24
  A 0.94 0.94 -0.3 0 0 121.19 285.18
  L 159.75 285.00
  A 0.58 0.50 0.5 0 0 160.33 284.51
  L 160.38 278.68
  A 0.57 0.49 0.5 0 0 159.81 278.18
  L 136.31 277.94
  A 0.51 0.50 0.6 0 1 135.81 277.44
  Z
  M 216.00 276.43
  Q 217.74 279.51 218.31 283.44
  Q 218.58 285.25 220.38 285.24
  L 234.02 285.19
  A 0.34 0.33 80.9 0 0 234.33 284.75
  L 219.22 238.66
  A 0.71 0.67 80.5 0 0 218.57 238.17
  L 197.19 238.17
  A 0.73 0.69 -79.9 0 0 196.53 238.66
  L 181.53 284.41
  A 0.50 0.50 9.4 0 0 182.00 285.06
  L 194.46 285.25
  A 1.39 1.31 -80.9 0 0 195.75 284.26
  L 198.02 276.65
  A 0.74 0.62 6.2 0 1 198.69 276.20
  L 215.25 276.03
  A 0.87 0.78 -13.7 0 1 216.00 276.43
  Z
  M 261.40 258.10
  C 266.54 262.14 274.02 264.87 279.90 267.88
  Q 283.74 269.85 284.75 271.50
  C 289.53 279.28 278.76 278.81 275.00 278.50
  Q 270.14 278.10 270.56 272.47
  A 1.36 1.32 -88.2 0 0 269.24 271.02
  L 256.68 271.16
  A 0.56 0.54 -88.8 0 0 256.15 271.69
  Q 255.56 282.56 266.75 284.75
  C 275.09 286.39 302.00 288.46 301.10 273.97
  C 300.56 265.13 285.88 260.13 279.19 257.06
  C 267.71 251.79 270.45 242.91 283.08 245.62
  Q 286.75 246.41 286.44 251.12
  A 0.83 0.83 -88.4 0 0 287.27 252.00
  L 300.47 252.00
  A 0.53 0.52 -89.4 0 0 300.99 251.48
  C 301.15 237.20 283.33 237.40 272.75 238.25
  Q 268.16 238.62 264.39 240.02
  C 255.70 243.23 253.26 251.71 261.40 258.10
  Z
  M 325.59 248.75
  C 324.92 254.71 330.40 258.84 335.34 261.13
  C 339.72 263.17 353.43 268.63 354.69 273.31
  C 356.41 279.74 345.96 279.24 342.50 278.10
  C 339.31 277.04 339.30 275.09 339.62 272.14
  A 1.01 1.01 -86.7 0 0 338.62 271.01
  L 325.80 271.05
  A 0.62 0.60 -85.3 0 0 325.22 271.56
  C 322.69 286.72 343.87 286.23 353.00 285.75
  C 359.03 285.43 365.57 284.09 368.85 278.80
  C 376.26 266.83 352.31 259.41 345.41 255.60
  Q 342.16 253.81 341.31 251.69
  C 337.90 243.17 356.79 242.26 355.64 251.44
  A 0.45 0.43 -86.4 0 0 356.06 251.94
  L 369.56 252.07
  A 0.44 0.44 -89.3 0 0 370.00 251.64
  Q 370.26 242.46 361.50 239.75
  C 353.55 237.29 327.13 235.07 325.59 248.75
  Z
  M 411.8306 238.5470
  A 0.51 0.51 0.0 0 0 411.3224 238.0352
  L 396.9625 237.9851
  A 0.51 0.51 0.0 0 0 396.4507 238.4933
  L 396.2894 284.6930
  A 0.51 0.51 0.0 0 0 396.7976 285.2048
  L 411.1575 285.2549
  A 0.51 0.51 0.0 0 0 411.6693 284.7467
  L 411.8306 238.5470
  Z
  M 439.40 276.49
  C 441.92 288.55 468.92 286.95 476.75 283.75
  Q 485.59 280.13 484.02 268.52
  A 1.35 1.27 -4.6 0 0 482.66 267.43
  L 470.50 267.73
  A 0.69 0.64 -2.5 0 0 469.83 268.41
  Q 470.02 271.40 469.71 274.75
  C 469.20 280.39 459.25 278.99 456.17 277.60
  Q 454.50 276.85 454.50 275.01
  Q 454.50 262.62 454.30 250.25
  C 454.23 245.73 459.02 245.05 462.46 245.21
  C 467.28 245.44 470.68 246.11 469.69 252.12
  Q 469.37 254.09 471.30 254.09
  L 483.56 254.08
  A 0.60 0.58 -85.4 0 0 484.14 253.57
  C 486.57 237.40 467.78 237.62 456.75 238.25
  C 448.29 238.73 439.25 240.75 439.25 251.00
  Q 439.25 260.50 439.25 269.99
  Q 439.25 275.75 439.40 276.49
  Z
  M 511.59 248.75
  C 509.94 263.41 542.59 264.89 540.71 275.27
  C 539.88 279.86 531.40 278.98 528.51 278.08
  C 525.28 277.07 525.30 275.05 525.63 272.10
  A 1.00 0.99 3.1 0 0 524.64 271.00
  L 512.03 271.00
  A 1.02 1.01 0.6 0 0 511.01 271.99
  Q 510.80 281.26 519.00 284.00
  C 526.97 286.66 556.64 288.91 556.11 274.40
  C 555.60 260.48 524.27 258.23 526.88 248.76
  C 528.30 243.58 542.68 243.07 541.64 251.44
  A 0.45 0.43 -86.4 0 0 542.06 251.94
  L 555.59 252.07
  A 0.41 0.41 -89.3 0 0 556.00 251.67
  Q 556.27 242.46 547.50 239.75
  C 539.57 237.30 513.13 235.07 511.59 248.75
  Z"
/>
<path fill="#242b5e" d="
  M 323.00 231.54
  Q 313.54 234.89 303.50 234.96
  L 323.00 231.54
  Z"
/>
<path fill="#ffffff" d="
  M 62.75 238.25
  C 72.05 237.65 93.35 237.13 91.25 252.00
  Q 90.93 254.27 89.25 254.25
  L 78.50 254.10
  Q 76.23 254.07 76.61 251.99
  Q 77.53 247.05 73.69 245.94
  C 69.93 244.86 61.21 244.10 61.31 250.25
  Q 61.49 261.26 61.50 272.27
  C 61.50 275.48 61.35 277.50 65.08 278.35
  Q 69.79 279.41 74.51 278.00
  Q 76.46 277.41 76.55 275.60
  L 76.93 268.18
  A 0.64 0.63 -88.6 0 1 77.56 267.57
  L 90.43 267.58
  A 0.66 0.60 -6.1 0 1 91.06 268.04
  C 92.16 272.73 91.24 279.06 87.19 281.94
  C 79.72 287.24 49.19 289.51 46.40 276.20
  Q 46.25 275.51 46.25 266.28
  Q 46.25 257.52 46.25 248.75
  C 46.25 241.36 56.68 238.64 62.75 238.25
  Z"
/>
<path fill="#ffffff" d="
  M 136.31 277.94
  L 159.81 278.18
  A 0.57 0.49 0.5 0 1 160.38 278.68
  L 160.33 284.51
  A 0.58 0.50 0.5 0 1 159.75 285.00
  L 121.19 285.18
  A 0.94 0.94 -0.3 0 1 120.24 284.24
  L 120.44 238.68
  A 0.52 0.51 89.4 0 1 120.94 238.16
  L 134.90 238.03
  A 0.89 0.85 89.7 0 1 135.76 238.92
  L 135.81 277.44
  A 0.51 0.50 0.6 0 0 136.31 277.94
  Z"
/>
<path fill="#ffffff" d="
  M 215.25 276.03
  L 198.69 276.20
  A 0.74 0.62 6.2 0 0 198.02 276.65
  L 195.75 284.26
  A 1.39 1.31 -80.9 0 1 194.46 285.25
  L 182.00 285.06
  A 0.50 0.50 9.4 0 1 181.53 284.41
  L 196.53 238.66
  A 0.73 0.69 -79.9 0 1 197.19 238.17
  L 218.57 238.17
  A 0.71 0.67 80.5 0 1 219.22 238.66
  L 234.33 284.75
  A 0.34 0.33 80.9 0 1 234.02 285.19
  L 220.38 285.24
  Q 218.58 285.25 218.31 283.44
  Q 217.74 279.51 216.00 276.43
  A 0.87 0.78 -13.7 0 0 215.25 276.03
  Z
  M 207.00 247.25
  C 204.71 254.59 202.43 261.95 200.32 269.34
  A 0.39 0.39 -81.3 0 0 200.68 269.84
  L 213.42 269.97
  A 0.60 0.58 81.5 0 0 213.97 269.20
  L 207.25 247.25
  Q 207.13 246.85 207.00 247.25
  Z"
/>
<path fill="#ffffff" d="
  M 261.40 258.10
  C 253.26 251.71 255.70 243.23 264.39 240.02
  Q 268.16 238.62 272.75 238.25
  C 283.33 237.40 301.15 237.20 300.99 251.48
  A 0.53 0.52 -89.4 0 1 300.47 252.00
  L 287.27 252.00
  A 0.83 0.83 -88.4 0 1 286.44 251.12
  Q 286.75 246.41 283.08 245.62
  C 270.45 242.91 267.71 251.79 279.19 257.06
  C 285.88 260.13 300.56 265.13 301.10 273.97
  C 302.00 288.46 275.09 286.39 266.75 284.75
  Q 255.56 282.56 256.15 271.69
  A 0.56 0.54 -88.8 0 1 256.68 271.16
  L 269.24 271.02
  A 1.36 1.32 -88.2 0 1 270.56 272.47
  Q 270.14 278.10 275.00 278.50
  C 278.76 278.81 289.53 279.28 284.75 271.50
  Q 283.74 269.85 279.90 267.88
  C 274.02 264.87 266.54 262.14 261.40 258.10
  Z"
/>
<path fill="#ffffff" d="
  M 335.34 261.13
  C 330.40 258.84 324.92 254.71 325.59 248.75
  C 327.13 235.07 353.55 237.29 361.50 239.75
  Q 370.26 242.46 370.00 251.64
  A 0.44 0.44 -89.3 0 1 369.56 252.07
  L 356.06 251.94
  A 0.45 0.43 -86.4 0 1 355.64 251.44
  C 356.79 242.26 337.90 243.17 341.31 251.69
  Q 342.16 253.81 345.41 255.60
  C 352.31 259.41 376.26 266.83 368.85 278.80
  C 365.57 284.09 359.03 285.43 353.00 285.75
  C 343.87 286.23 322.69 286.72 325.22 271.56
  A 0.62 0.60 -85.3 0 1 325.80 271.05
  L 338.62 271.01
  A 1.01 1.01 -86.7 0 1 339.62 272.14
  C 339.30 275.09 339.31 277.04 342.50 278.10
  C 345.96 279.24 356.41 279.74 354.69 273.31
  C 353.43 268.63 339.72 263.17 335.34 261.13
  Z"
/>
<rect fill="#ffffff" x="-7.69" y="-23.61" transform="translate(404.06,261.62) rotate(0.2)" width="15.38" height="47.22" rx="0.51"/>
<path fill="#ffffff" d="
  M 476.75 283.75
  C 468.92 286.95 441.92 288.55 439.40 276.49
  Q 439.25 275.75 439.25 269.99
  Q 439.25 260.50 439.25 251.00
  C 439.25 240.75 448.29 238.73 456.75 238.25
  C 467.78 237.62 486.57 237.40 484.14 253.57
  A 0.60 0.58 -85.4 0 1 483.56 254.08
  L 471.30 254.09
  Q 469.37 254.09 469.69 252.12
  C 470.68 246.11 467.28 245.44 462.46 245.21
  C 459.02 245.05 454.23 245.73 454.30 250.25
  Q 454.50 262.62 454.50 275.01
  Q 454.50 276.85 456.17 277.60
  C 459.25 278.99 469.20 280.39 469.71 274.75
  Q 470.02 271.40 469.83 268.41
  A 0.69 0.64 -2.5 0 1 470.50 267.73
  L 482.66 267.43
  A 1.35 1.27 -4.6 0 1 484.02 268.52
  Q 485.59 280.13 476.75 283.75
  Z"
/>
<path fill="#ffffff" d="
  M 540.71 275.27
  C 542.59 264.89 509.94 263.41 511.59 248.75
  C 513.13 235.07 539.57 237.30 547.50 239.75
  Q 556.27 242.46 556.00 251.67
  A 0.41 0.41 -89.3 0 1 555.59 252.07
  L 542.06 251.94
  A 0.45 0.43 -86.4 0 1 541.64 251.44
  C 542.68 243.07 528.30 243.58 526.88 248.76
  C 524.27 258.23 555.60 260.48 556.11 274.40
  C 556.64 288.91 526.97 286.66 519.00 284.00
  Q 510.80 281.26 511.01 271.99
  A 1.02 1.01 0.6 0 1 512.03 271.00
  L 524.64 271.00
  A 1.00 0.99 3.1 0 1 525.63 272.10
  C 525.30 275.05 525.28 277.07 528.51 278.08
  C 531.40 278.98 539.88 279.86 540.71 275.27
  Z"
/>
<path fill="#000000" d="
  M 200.32 269.34
  C 202.43 261.95 204.71 254.59 207.00 247.25
  Q 207.13 246.85 207.25 247.25
  L 213.97 269.20
  A 0.60 0.58 81.5 0 1 213.42 269.97
  L 200.68 269.84
  A 0.39 0.39 -81.3 0 1 200.32 269.34
  Z"
/>
</svg>
