<?xml version="1.0" encoding="UTF-8" standalone="no"?>
<!DOCTYPE svg PUBLIC "-//W3C//DTD SVG 1.1//EN" "http://www.w3.org/Graphics/SVG/1.1/DTD/svg11.dtd">
<svg xmlns="http://www.w3.org/2000/svg" version="1.1" viewBox="0 0 600 300">
<path stroke="#0b0907" stroke-width="2.00" fill="none" stroke-linecap="butt" vector-effect="non-scaling-stroke" d="
  M 342.50 106.07
  Q 343.61 102.22 344.05 98.26
  Q 344.42 95.00 341.54 94.29
  Q 341.07 94.17 340.67 93.87
  C 337.48 91.57 319.35 93.00 315.62 93.00
  Q 245.94 93.00 176.25 92.86
  Q 174.31 92.86 170.76 94.11
  Q 168.77 94.81 168.73 96.92
  C 168.52 107.93 169.38 119.47 168.50 130.25
  C 168.01 136.24 171.43 135.47 175.57 135.43
  Q 203.13 135.14 230.69 135.37
  C 234.73 135.40 242.95 136.29 241.96 133.25"
/>
<path fill="#e10916" d="
  M 0.00 146.94
  L 0.00 89.19
  Q 1.78 81.57 9.49 80.20
  C 18.77 78.55 22.65 82.14 30.35 88.39
  Q 55.81 109.04 81.06 129.60
  Q 81.75 130.16 81.75 129.27
  L 81.75 81.69
  A 0.94 0.94 0.0 0 1 82.69 80.75
  L 101.44 80.75
  A 0.56 0.56 0.0 0 1 102.00 81.31
  Q 102.00 106.65 102.00 131.41
  C 102.00 139.54 103.13 145.51 95.11 147.94
  C 90.40 149.36 83.82 149.06 79.78 145.98
  Q 51.01 124.02 22.81 101.32
  C 19.62 98.74 20.23 99.36 20.26 103.08
  Q 20.38 124.94 20.07 146.81
  A 0.52 0.51 -88.9 0 1 19.55 147.32
  L 0.00 146.94
  Z"
/>
<path fill="#16110e" d="
  M 342.50 106.07
  Q 343.61 102.22 344.05 98.26
  Q 344.42 95.00 341.54 94.29
  Q 341.07 94.17 340.67 93.87
  C 337.48 91.57 319.35 93.00 315.62 93.00
  Q 245.94 93.00 176.25 92.86
  Q 174.31 92.86 170.76 94.11
  Q 168.77 94.81 168.73 96.92
  C 168.52 107.93 169.38 119.47 168.50 130.25
  C 168.01 136.24 171.43 135.47 175.57 135.43
  Q 203.13 135.14 230.69 135.37
  C 234.73 135.40 242.95 136.29 241.96 133.25
  L 242.12 121.56
  A 1.04 0.99 0.3 0 0 241.08 120.56
  L 193.03 120.50
  A 0.78 0.78 0.0 0 1 192.25 119.72
  L 192.25 108.16
  A 0.66 0.66 0.0 0 1 192.91 107.50
  L 261.59 107.50
  A 0.66 0.66 0.2 0 1 262.25 108.16
  Q 262.25 122.50 262.25 136.50
  Q 262.25 143.29 256.96 146.13
  Q 254.43 147.50 249.28 147.51
  Q 204.80 147.66 160.33 147.28
  C 153.87 147.22 150.50 143.09 150.50 136.87
  Q 150.50 113.94 150.42 91.00
  Q 150.39 80.76 160.75 80.76
  Q 252.25 80.75 343.74 80.75
  C 352.89 80.75 362.26 80.78 362.25 92.83
  Q 362.21 118.84 362.32 146.20
  A 1.05 1.04 -90.0 0 1 361.28 147.25
  L 343.09 147.25
  A 0.85 0.84 -90.0 0 1 342.25 146.40
  L 342.19 121.05
  A 0.50 0.49 0.0 0 0 341.69 120.56
  L 284.77 120.50
  A 0.71 0.70 0.0 0 1 284.06 119.80
  L 284.00 108.17
  A 0.67 0.67 -0.4 0 1 284.67 107.50
  Q 313.22 107.45 341.19 107.60
  Q 342.39 107.60 342.50 106.07
  Z"
/>
<path fill="#16110e" d="
  M 395.06 133.19
  L 465.32 133.25
  A 0.66 0.63 -0.4 0 0 465.98 132.61
  L 465.84 121.19
  A 0.54 0.51 0.6 0 0 465.31 120.68
  L 416.31 120.44
  A 0.50 0.50 0.0 0 1 415.81 119.94
  L 415.69 108.19
  A 0.51 0.49 -90.0 0 1 416.18 107.68
  L 485.44 107.56
  A 0.52 0.51 -1.1 0 1 485.96 108.05
  Q 486.32 118.01 486.25 136.00
  C 486.20 147.85 478.87 147.49 469.02 147.52
  Q 426.67 147.66 384.32 147.28
  C 376.84 147.21 374.07 142.87 373.95 135.92
  Q 373.57 113.96 373.69 92.00
  C 373.75 81.32 380.56 80.82 389.61 80.81
  Q 492.67 80.71 595.54 80.75
  A 0.70 0.68 0.4 0 1 596.24 81.44
  L 596.20 94.19
  A 0.51 0.50 -0.0 0 1 595.69 94.69
  L 395.44 94.75
  A 0.94 0.94 0.0 0 0 394.50 95.69
  L 394.56 132.69
  A 0.50 0.50 0.0 0 0 395.06 133.19
  Z"
/>
<path fill="#000000" d="
  M 342.50 106.07
  L 342.04 96.56
  A 1.90 1.90 88.6 0 0 340.14 94.75
  L 172.01 94.81
  A 1.51 1.50 89.3 0 0 170.51 96.36
  Q 171.00 114.78 170.47 132.40
  A 0.82 0.82 -89.0 0 0 171.29 133.25
  L 241.96 133.25
  C 242.95 136.29 234.73 135.40 230.69 135.37
  Q 203.13 135.14 175.57 135.43
  C 171.43 135.47 168.01 136.24 168.50 130.25
  C 169.38 119.47 168.52 107.93 168.73 96.92
  Q 168.77 94.81 170.76 94.11
  Q 174.31 92.86 176.25 92.86
  Q 245.94 93.00 315.62 93.00
  C 319.35 93.00 337.48 91.57 340.67 93.87
  Q 341.07 94.17 341.54 94.29
  Q 344.42 95.00 344.05 98.26
  Q 343.61 102.22 342.50 106.07
  Z"
/>
<ellipse fill="#e40811" cx="0.00" cy="0.00" transform="translate(126.37,114.36) rotate(0.1)" rx="12.14" ry="8.81"/>
<path fill="#130f0b" d="
  M 518.55 121.69
  L 518.66 132.82
  A 0.54 0.50 0.0 0 0 519.20 133.32
  L 598.94 133.32
  A 0.56 0.55 87.1 0 1 599.49 133.82
  Q 600.17 140.51 599.49 147.20
  A 0.56 0.55 2.8 0 1 598.93 147.69
  L 498.56 147.75
  A 0.75 0.74 -0.0 0 1 497.81 147.01
  L 497.81 108.07
  A 0.51 0.50 -90.0 0 1 498.31 107.56
  L 576.38 107.50
  A 0.81 0.80 -0.0 0 1 577.19 108.30
  L 577.25 120.36
  A 0.65 0.64 -0.0 0 1 576.60 121.00
  L 519.27 121.00
  A 0.72 0.68 -0.4 0 0 518.55 121.69
  Z"
/>
<path fill="#000000" d="
  M 477.5095 210.0675
  A 9.57 9.57 0.0 0 1 467.9730 219.6709
  L 439.8931 219.7689
  A 9.57 9.57 0.0 0 1 430.2898 210.2324
  L 430.2305 193.2525
  A 9.57 9.57 0.0 0 1 439.7670 183.6491
  L 467.8469 183.5511
  A 9.57 9.57 0.0 0 1 477.4502 193.0876
  L 477.5095 210.0675
  Z
  M 467.2476 194.4967
  A 2.01 2.01 0.0 0 0 465.2341 192.4902
  L 442.4941 192.5299
  A 2.01 2.01 0.0 0 0 440.4876 194.5434
  L 440.5124 208.7633
  A 2.01 2.01 0.0 0 0 442.5259 210.7698
  L 465.2659 210.7301
  A 2.01 2.01 0.0 0 0 467.2724 208.7166
  L 467.2476 194.4967
  Z"
/>
<path fill="#000000" d="
  M 386.31 193.76
  L 386.25 218.99
  A 0.58 0.55 -0.5 0 1 385.68 219.54
  L 376.51 219.67
  A 0.75 0.70 -0.4 0 1 375.75 218.97
  L 375.75 184.52
  A 0.52 0.52 -90.0 0 1 376.27 184.00
  L 393.33 184.00
  A 1.40 1.36 -18.9 0 1 394.41 184.51
  L 414.77 209.60
  Q 415.57 210.59 415.56 209.32
  L 415.44 184.42
  A 0.66 0.60 0.0 0 1 416.10 183.82
  L 425.51 183.83
  A 0.74 0.67 -0.0 0 1 426.25 184.50
  L 426.25 219.01
  A 0.68 0.67 0.4 0 1 425.56 219.68
  L 408.69 219.52
  A 1.71 1.54 -17.6 0 1 407.41 218.94
  L 386.93 193.55
  Q 386.31 192.79 386.31 193.76
  Z"
/>
<path fill="#000000" d="
  M 492.85 199.62
  Q 492.84 201.13 493.95 200.13
  L 511.61 184.32
  A 1.41 1.21 20.6 0 1 512.51 183.99
  L 525.92 183.85
  Q 527.35 183.83 526.26 184.74
  L 507.14 200.66
  A 0.68 0.67 -45.9 0 0 507.15 201.71
  L 528.58 218.45
  Q 530.17 219.69 528.15 219.66
  L 513.56 219.44
  A 1.40 1.22 -20.2 0 1 512.69 219.11
  L 493.82 202.23
  Q 492.99 201.49 492.98 202.60
  L 492.83 218.82
  A 0.53 0.53 -0.6 0 1 492.31 219.35
  L 482.38 219.47
  A 0.83 0.79 -90.0 0 1 481.58 218.63
  L 481.70 184.68
  A 0.53 0.50 89.5 0 1 482.19 184.15
  L 491.91 184.04
  A 1.07 1.05 89.7 0 1 492.98 185.12
  L 492.85 199.62
  Z"
/>
<rect fill="#050501" x="531.26" y="183.97" width="11.34" height="35.58" rx="0.54"/>
<path fill="#000000" d="
  M 563.79 184.50
  A 0.98 0.97 -75.3 0 1 564.64 184.00
  L 577.98 184.00
  A 0.88 0.87 75.3 0 1 578.74 184.45
  L 597.73 218.84
  A 0.51 0.50 -14.2 0 1 597.28 219.58
  L 585.99 219.50
  A 1.54 1.23 73.0 0 1 584.82 218.70
  L 582.24 213.97
  A 0.98 0.75 -10.5 0 0 581.43 213.56
  L 561.01 213.50
  A 1.15 1.06 -74.0 0 0 560.06 214.08
  L 557.21 219.00
  A 0.92 0.90 -74.9 0 1 556.45 219.45
  L 545.13 219.49
  A 0.48 0.47 -75.2 0 1 544.72 218.78
  L 563.79 184.50
  Z
  M 564.68 205.03
  A 0.31 0.31 14.5 0 0 564.95 205.49
  L 577.43 205.51
  A 0.31 0.31 -14.3 0 0 577.70 205.05
  L 571.48 193.75
  A 0.31 0.31 45.1 0 0 570.94 193.74
  L 564.68 205.03
  Z"
/>
</svg>
