<?xml version="1.0" encoding="UTF-8" standalone="no"?>
<!DOCTYPE svg PUBLIC "-//W3C//DTD SVG 1.1//EN" "http://www.w3.org/Graphics/SVG/1.1/DTD/svg11.dtd">
<svg xmlns="http://www.w3.org/2000/svg" version="1.1" viewBox="0 0 600 107">
<g stroke-width="2.00" fill="none" stroke-linecap="butt">
<path stroke="#c596da" vector-effect="non-scaling-stroke" d="
  M 561.76 43.76
  C 554.91 36.70 547.88 29.46 540.68 22.78
  A 1.18 1.14 21.4 0 1 540.30 21.95
  C 540.22 17.20 541.90 6.80 536.25 5.00
  Q 532.28 3.74 530.07 6.55
  C 527.65 9.64 528.75 21.33 528.75 25.67
  Q 528.75 27.38 529.96 28.58
  L 555.96 54.59
  A 1.23 1.22 22.2 0 1 556.32 55.43
  Q 556.43 74.59 556.28 93.75
  C 556.21 102.32 568.03 103.52 567.99 93.75
  Q 567.91 74.79 567.81 55.82
  A 1.26 1.23 67.6 0 1 568.16 54.95
  Q 580.62 42.02 593.45 29.44
  Q 595.50 27.43 595.50 23.25
  Q 595.50 16.75 595.62 10.25
  C 595.76 2.16 583.76 2.97 583.92 11.25
  Q 584.00 15.25 584.00 21.15
  A 2.32 2.32 -22.5 0 1 583.32 22.79
  L 562.49 43.76
  A 0.52 0.51 -44.6 0 1 561.76 43.76"
/>
<path stroke="#b782cf" vector-effect="non-scaling-stroke" d="
  M 490.99 100.93
  Q 499.15 93.52 506.28 85.29"
/>
<path stroke="#c596da" vector-effect="non-scaling-stroke" d="
  M 506.28 85.29
  Q 508.75 83.55 508.75 79.75
  Q 508.75 53.75 508.75 27.75
  C 508.75 24.72 508.49 22.67 506.32 20.32
  Q 499.16 12.56 492.16 6.20
  Q 490.75 4.92 488.75 4.94
  L 460.61 5.23
  Q 458.22 5.26 456.73 6.74
  L 442.93 20.44
  Q 441.24 22.13 441.24 24.61
  L 441.25 81.77
  Q 441.25 83.39 442.35 84.50
  L 457.62 99.77
  Q 459.12 101.27 461.26 101.25
  L 490.99 100.93"
/>
<path stroke="#7d19a9" vector-effect="non-scaling-stroke" d="
  M 506.28 85.29
  Q 498.18 92.55 490.25 100.00
  Q 490.03 100.22 490.99 100.93"
/>
<path stroke="#c596da" vector-effect="non-scaling-stroke" d="
  M 266.19 19.94
  Q 265.87 25.71 266.02 31.49
  C 266.45 47.30 266.51 63.13 266.73 78.95
  C 266.78 81.97 266.35 83.98 268.63 86.36
  C 271.75 89.63 281.98 101.42 286.00 101.75
  Q 292.33 102.26 310.25 102.00
  C 317.21 101.90 318.32 99.77 323.73 94.46
  Q 331.00 87.33 332.69 85.19
  C 334.50 82.89 333.80 80.19 333.83 77.74
  Q 334.24 45.56 333.79 13.38
  C 333.72 8.17 331.25 3.42 325.31 6.06
  C 321.92 7.57 322.25 10.66 322.25 13.86
  Q 322.25 44.95 322.25 77.26
  Q 322.25 78.88 321.11 80.01
  L 312.93 88.20
  Q 311.63 89.50 309.78 89.50
  L 290.24 89.50
  Q 288.36 89.50 287.09 88.22
  L 278.85 79.87
  A 1.26 1.23 -67.6 0 1 278.50 79.00
  Q 278.64 46.00 278.25 13.00
  C 278.20 8.48 275.70 4.96 270.85 5.87
  C 264.62 7.03 266.42 15.86 266.19 19.94"
/>
<path stroke="#c596da" vector-effect="non-scaling-stroke" d="
  M 353.66 13.26
  C 353.24 30.36 353.40 47.58 353.47 64.69
  C 353.49 70.05 353.99 80.38 353.57 88.25
  C 353.33 92.80 353.13 99.63 358.53 101.04
  Q 359.35 101.25 365.49 101.25
  Q 383.50 101.25 401.50 101.23
  Q 404.07 101.23 406.81 98.56
  Q 412.96 92.59 418.84 86.34
  C 422.87 82.06 421.56 73.47 421.34 67.92
  C 421.14 62.98 414.16 57.28 410.61 53.74
  A 0.81 0.81 -46.6 0 1 410.58 52.63
  C 413.82 48.95 421.60 42.62 421.35 37.89
  C 421.15 34.30 421.25 30.68 421.25 27.09
  C 421.25 22.87 420.07 21.70 417.31 18.94
  Q 411.06 12.69 404.81 6.43
  Q 403.63 5.25 401.95 5.25
  Q 381.63 5.25 361.25 5.25
  C 355.55 5.25 353.80 7.68 353.66 13.26"
/>
<path stroke="#c596da" vector-effect="non-scaling-stroke" d="
  M 94.47 101.33
  C 100.61 104.15 103.42 100.39 103.47 94.67
  Q 103.54 85.31 103.49 75.08
  A 0.83 0.83 0.0 0 1 104.32 74.25
  L 122.34 74.25
  A 3.07 3.04 -21.7 0 1 124.55 75.19
  Q 135.92 87.05 147.92 98.94
  C 155.39 106.34 163.08 97.90 157.28 91.84
  Q 149.66 83.87 141.01 75.40
  A 1.09 1.09 52.0 0 1 141.22 73.68
  C 147.07 70.25 153.42 62.97 157.90 57.73
  Q 159.00 56.45 159.00 54.76
  Q 159.00 41.79 159.00 28.83
  C 159.00 24.85 159.31 23.54 156.81 20.94
  C 151.99 15.90 148.08 11.15 143.48 7.81
  C 139.85 5.17 137.02 5.76 130.97 5.72
  Q 115.78 5.62 100.59 5.93
  C 95.05 6.05 91.78 7.18 91.75 13.25
  Q 91.56 55.38 92.00 97.51
  Q 92.03 100.20 94.47 101.33"
/>
<path stroke="#c596da" vector-effect="non-scaling-stroke" d="
  M 182.17 101.06
  Q 184.92 102.16 187.85 102.06
  C 200.41 101.62 213.17 102.00 225.75 102.01
  Q 229.49 102.01 231.87 99.37
  C 236.07 94.73 240.76 90.36 245.20 85.92
  A 3.55 3.49 -22.7 0 0 246.25 83.42
  L 246.49 25.01
  Q 246.50 23.45 245.44 22.25
  Q 238.43 14.32 229.78 7.00
  Q 228.35 5.79 225.00 5.75
  C 217.42 5.65 209.85 6.02 202.33 5.75
  Q 190.03 5.31 184.50 6.00
  C 178.12 6.80 178.50 13.45 178.79 18.25
  C 180.37 44.35 179.14 71.14 179.49 97.14
  Q 179.53 99.99 182.17 101.06"
/>
<path stroke="#c596da" vector-effect="non-scaling-stroke" d="
  M 59.95 61.05
  L 60.74 98.00
  A 1.65 1.47 -66.6 0 0 61.04 98.91
  C 65.50 105.17 71.46 102.41 72.05 95.89
  Q 72.25 93.75 72.25 90.75
  Q 72.25 66.75 72.41 42.75
  Q 72.44 38.69 70.69 36.81
  Q 65.12 30.84 40.86 7.10
  A 1.60 1.49 69.5 0 0 40.00 6.67
  C 35.32 6.04 34.11 8.07 31.22 10.88
  Q 17.77 23.95 5.61 37.22
  Q 4.47 38.45 4.49 40.13
  Q 4.66 68.25 4.24 94.00
  C 4.06 104.86 16.51 105.48 16.31 95.75
  Q 15.96 78.25 16.00 61.20
  A 0.94 0.93 -89.7 0 1 16.94 60.26
  L 59.44 60.55
  A 0.51 0.51 89.4 0 1 59.95 61.05"
/>
<path stroke="#c596da" vector-effect="non-scaling-stroke" d="
  M 452.75 27.74
  C 452.85 44.39 452.48 61.03 452.80 77.69
  A 1.27 1.22 -69.0 0 0 453.16 78.55
  L 463.45 88.84
  A 1.20 1.20 66.4 0 0 464.31 89.18
  L 486.19 88.70
  A 1.25 1.17 20.2 0 0 487.04 88.34
  L 496.90 78.36
  A 1.27 1.14 69.7 0 0 497.24 77.50
  L 496.44 27.06
  A 1.30 1.11 -71.7 0 0 496.09 26.20
  L 486.56 16.90
  A 1.35 1.12 -19.1 0 0 485.68 16.57
  L 463.77 16.74
  A 1.31 1.26 -67.3 0 0 462.89 17.12
  L 453.12 26.90
  A 1.23 1.12 -24.1 0 0 452.75 27.74"
/>
<path stroke="#c596da" vector-effect="non-scaling-stroke" d="
  M 401.00 45.52
  C 406.40 39.69 411.54 37.29 409.37 27.98
  A 1.65 1.61 -75.2 0 0 408.90 27.15
  L 398.61 17.09
  A 1.27 1.19 -21.6 0 0 397.75 16.75
  Q 385.12 16.75 372.50 16.75
  Q 368.32 16.75 365.79 17.42
  A 0.68 0.66 -8.1 0 0 365.30 18.06
  L 365.54 46.69
  A 0.52 0.51 -0.6 0 0 366.06 47.19
  Q 380.91 47.34 395.75 47.50
  Q 399.12 47.54 401.00 45.52"
/>
<path stroke="#c596da" vector-effect="non-scaling-stroke" d="
  M 409.92 76.60
  C 411.15 68.64 405.14 65.02 400.20 60.08
  A 3.67 3.64 -22.2 0 0 397.60 59.00
  L 366.64 59.00
  A 0.89 0.89 89.7 0 0 365.75 59.90
  L 366.01 88.84
  A 0.68 0.66 0.4 0 0 366.68 89.50
  L 396.66 89.69
  Q 398.83 89.70 400.38 88.22
  C 403.39 85.34 409.29 80.68 409.92 76.60"
/>
<path stroke="#c596da" vector-effect="non-scaling-stroke" d="
  M 136.82 18.43
  L 104.06 18.31
  A 0.50 0.49 -89.4 0 0 103.56 18.81
  L 103.50 62.14
  A 0.37 0.37 -0.8 0 0 103.88 62.51
  L 136.18 61.94
  A 1.41 0.95 14.1 0 0 137.07 61.62
  L 146.19 52.87
  Q 147.25 51.85 147.25 50.15
  L 147.25 29.26
  A 1.47 1.42 -65.1 0 0 146.94 28.36
  Q 142.80 23.10 137.70 18.77
  A 1.40 1.28 63.8 0 0 136.82 18.43"
/>
<path stroke="#c596da" vector-effect="non-scaling-stroke" d="
  M 224.34 89.89
  C 227.84 87.22 231.27 83.53 234.25 80.19
  A 1.97 1.97 -24.2 0 0 234.75 78.88
  L 234.75 29.02
  A 2.39 1.99 -71.3 0 0 234.13 27.42
  L 224.92 18.36
  A 3.43 2.91 -19.5 0 0 222.66 17.50
  L 191.68 17.56
  A 0.69 0.68 90.0 0 0 191.00 18.25
  L 191.00 89.73
  A 0.52 0.51 90.0 0 0 191.51 90.25
  L 223.44 90.19
  A 1.50 1.50 -65.7 0 0 224.34 89.89"
/>
<path stroke="#c596da" vector-effect="non-scaling-stroke" d="
  M 20.14 38.83
  C 16.50 42.77 15.32 42.69 16.25 47.92
  A 1.00 1.00 85.1 0 0 17.22 48.74
  Q 38.10 48.97 58.90 48.02
  A 0.66 0.66 4.0 0 0 59.51 47.49
  Q 60.34 43.24 58.29 41.21
  Q 48.21 31.17 38.61 21.37
  A 0.92 0.92 0.0 0 0 37.31 21.35
  Q 28.08 30.26 20.14 38.83"
/>
</g>
<path fill="#ffffff" d="
  M 561.33 37.20
  A 0.86 0.84 45.5 0 0 562.55 37.22
  L 579.84 19.80
  A 1.11 1.07 66.1 0 0 580.15 18.94
  C 579.93 16.18 579.97 13.40 579.92 10.60
  C 579.71 -2.72 599.91 -4.26 599.70 10.75
  Q 599.57 19.97 599.21 29.19
  A 1.31 1.31 -21.9 0 1 598.84 30.05
  L 572.30 57.08
  A 1.64 1.62 -23.6 0 0 571.82 58.28
  Q 572.15 76.64 571.97 95.19
  Q 571.93 98.95 570.62 100.86
  C 566.93 106.24 557.53 106.20 553.90 100.88
  Q 552.51 98.85 552.44 94.80
  Q 552.09 76.27 552.25 57.75
  A 1.19 1.18 22.2 0 0 551.89 56.90
  Q 539.94 45.08 528.00 33.25
  C 525.85 31.12 524.51 29.80 524.47 26.54
  Q 524.37 17.76 524.66 8.99
  C 524.91 1.37 533.34 -1.72 539.36 1.50
  C 546.08 5.10 544.08 12.45 544.06 18.95
  A 1.24 1.17 23.6 0 0 544.42 19.80
  L 561.33 37.20
  Z
  M 561.76 43.76
  C 554.91 36.70 547.88 29.46 540.68 22.78
  A 1.18 1.14 21.4 0 1 540.30 21.95
  C 540.22 17.20 541.90 6.80 536.25 5.00
  Q 532.28 3.74 530.07 6.55
  C 527.65 9.64 528.75 21.33 528.75 25.67
  Q 528.75 27.38 529.96 28.58
  L 555.96 54.59
  A 1.23 1.22 22.2 0 1 556.32 55.43
  Q 556.43 74.59 556.28 93.75
  C 556.21 102.32 568.03 103.52 567.99 93.75
  Q 567.91 74.79 567.81 55.82
  A 1.26 1.23 67.6 0 1 568.16 54.95
  Q 580.62 42.02 593.45 29.44
  Q 595.50 27.43 595.50 23.25
  Q 595.50 16.75 595.62 10.25
  C 595.76 2.16 583.76 2.97 583.92 11.25
  Q 584.00 15.25 584.00 21.15
  A 2.32 2.32 -22.5 0 1 583.32 22.79
  L 562.49 43.76
  A 0.52 0.51 -44.6 0 1 561.76 43.76
  Z"
/>
<path fill="#ffffff" d="
  M 494.06 1.64
  C 500.34 7.07 506.56 13.48 512.00 19.75
  A 4.49 2.18 -79.3 0 1 512.75 22.50
  Q 512.75 53.13 512.75 83.75
  C 512.75 87.41 497.54 101.08 494.25 104.25
  A 3.38 3.37 -67.0 0 1 491.94 105.19
  L 459.17 105.25
  Q 456.63 105.25 454.81 103.43
  Q 447.31 95.94 439.69 88.31
  Q 437.22 85.85 437.23 83.00
  Q 437.25 52.13 437.25 21.47
  A 3.85 3.84 66.7 0 1 438.30 18.83
  Q 445.41 11.29 452.81 4.06
  C 455.07 1.85 455.56 1.24 458.99 1.26
  C 470.38 1.35 481.82 0.80 493.19 1.29
  A 1.40 1.38 -22.7 0 1 494.06 1.64
  Z
  M 490.99 100.93
  Q 499.15 93.52 506.28 85.29
  Q 508.75 83.55 508.75 79.75
  Q 508.75 53.75 508.75 27.75
  C 508.75 24.72 508.49 22.67 506.32 20.32
  Q 499.16 12.56 492.16 6.20
  Q 490.75 4.92 488.75 4.94
  L 460.61 5.23
  Q 458.22 5.26 456.73 6.74
  L 442.93 20.44
  Q 441.24 22.13 441.24 24.61
  L 441.25 81.77
  Q 441.25 83.39 442.35 84.50
  L 457.62 99.77
  Q 459.12 101.27 461.26 101.25
  L 490.99 100.93
  Z"
/>
<path fill="#ffffff" d="
  M 318.77 6.50
  C 323.47 -1.01 333.15 -0.79 337.31 6.69
  Q 337.75 7.47 337.75 8.37
  L 337.75 84.91
  A 3.42 3.41 -23.7 0 1 336.85 87.22
  Q 329.39 95.38 321.94 102.44
  C 319.90 104.37 319.05 105.47 316.02 105.55
  Q 302.39 105.90 288.75 105.77
  C 285.58 105.73 282.21 106.24 279.81 103.94
  Q 271.64 96.11 263.50 87.34
  A 2.72 2.67 -67.5 0 1 262.78 85.55
  Q 262.24 48.19 262.25 12.91
  C 262.25 6.62 263.56 2.48 270.25 1.75
  Q 278.66 0.83 281.19 6.69
  Q 282.22 9.08 282.31 16.96
  Q 282.63 46.85 282.50 76.75
  A 1.27 1.08 -71.0 0 0 282.84 77.61
  L 290.38 84.92
  A 1.50 1.22 -15.3 0 0 291.24 85.30
  Q 299.96 86.14 308.68 85.24
  A 1.68 1.09 10.9 0 0 309.57 84.88
  L 317.92 76.87
  A 1.30 0.97 74.0 0 0 318.25 76.00
  L 318.25 8.33
  A 3.48 3.47 61.0 0 1 318.77 6.50
  Z
  M 266.19 19.94
  Q 265.87 25.71 266.02 31.49
  C 266.45 47.30 266.51 63.13 266.73 78.95
  C 266.78 81.97 266.35 83.98 268.63 86.36
  C 271.75 89.63 281.98 101.42 286.00 101.75
  Q 292.33 102.26 310.25 102.00
  C 317.21 101.90 318.32 99.77 323.73 94.46
  Q 331.00 87.33 332.69 85.19
  C 334.50 82.89 333.80 80.19 333.83 77.74
  Q 334.24 45.56 333.79 13.38
  C 333.72 8.17 331.25 3.42 325.31 6.06
  C 321.92 7.57 322.25 10.66 322.25 13.86
  Q 322.25 44.95 322.25 77.26
  Q 322.25 78.88 321.11 80.01
  L 312.93 88.20
  Q 311.63 89.50 309.78 89.50
  L 290.24 89.50
  Q 288.36 89.50 287.09 88.22
  L 278.85 79.87
  A 1.26 1.23 -67.6 0 1 278.50 79.00
  Q 278.64 46.00 278.25 13.00
  C 278.20 8.48 275.70 4.96 270.85 5.87
  C 264.62 7.03 266.42 15.86 266.19 19.94
  Z"
/>
<path fill="#ffffff" d="
  M 414.56 9.83
  C 417.36 12.41 425.25 18.99 425.25 22.75
  C 425.25 28.67 424.98 34.79 425.37 40.69
  C 425.64 44.65 419.15 50.09 416.53 52.72
  A 0.70 0.69 -49.0 0 0 416.60 53.77
  Q 421.68 57.69 424.93 62.89
  A 1.77 1.73 -61.4 0 1 425.19 63.81
  L 425.24 83.47
  Q 425.25 85.44 423.98 87.00
  C 419.51 92.52 414.40 97.26 409.26 102.49
  C 407.71 104.07 406.73 104.98 404.32 105.03
  Q 382.16 105.42 360.00 105.25
  C 357.29 105.23 355.70 105.62 353.58 103.79
  C 350.68 101.28 349.76 98.77 349.74 94.73
  Q 349.55 53.61 349.50 12.49
  C 349.50 5.89 351.95 1.25 358.95 1.25
  Q 381.85 1.25 404.75 1.25
  C 407.32 1.25 412.74 8.15 414.56 9.83
  Z
  M 353.66 13.26
  C 353.24 30.36 353.40 47.58 353.47 64.69
  C 353.49 70.05 353.99 80.38 353.57 88.25
  C 353.33 92.80 353.13 99.63 358.53 101.04
  Q 359.35 101.25 365.49 101.25
  Q 383.50 101.25 401.50 101.23
  Q 404.07 101.23 406.81 98.56
  Q 412.96 92.59 418.84 86.34
  C 422.87 82.06 421.56 73.47 421.34 67.92
  C 421.14 62.98 414.16 57.28 410.61 53.74
  A 0.81 0.81 -46.6 0 1 410.58 52.63
  C 413.82 48.95 421.60 42.62 421.35 37.89
  C 421.15 34.30 421.25 30.68 421.25 27.09
  C 421.25 22.87 420.07 21.70 417.31 18.94
  Q 411.06 12.69 404.81 6.43
  Q 403.63 5.25 401.95 5.25
  Q 381.63 5.25 361.25 5.25
  C 355.55 5.25 353.80 7.68 353.66 13.26
  Z"
/>
<path fill="#ffffff" d="
  M 107.56 78.81
  C 107.50 84.44 108.80 97.43 106.39 102.09
  C 103.22 108.22 92.45 107.97 89.27 102.36
  Q 87.75 99.70 87.75 92.87
  Q 87.75 52.95 87.75 13.03
  C 87.75 5.74 90.43 2.09 97.75 1.95
  Q 116.79 1.59 135.83 1.74
  C 138.83 1.76 142.88 1.27 145.19 3.31
  Q 153.88 10.99 161.78 19.67
  A 3.56 3.39 24.6 0 1 162.70 21.98
  L 163.00 57.66
  A 3.04 2.67 69.7 0 1 162.21 59.72
  L 147.37 74.91
  A 0.49 0.46 -46.2 0 0 147.36 75.59
  Q 154.19 82.21 160.87 88.97
  Q 162.59 90.71 163.02 92.70
  C 163.88 96.71 163.31 103.23 159.18 105.14
  C 156.85 106.22 152.87 105.75 150.43 105.75
  Q 148.06 105.75 146.30 103.97
  L 121.29 78.65
  A 1.24 1.17 66.4 0 0 120.44 78.29
  L 108.06 78.29
  A 0.52 0.50 90.0 0 0 107.56 78.81
  Z
  M 94.47 101.33
  C 100.61 104.15 103.42 100.39 103.47 94.67
  Q 103.54 85.31 103.49 75.08
  A 0.83 0.83 0.0 0 1 104.32 74.25
  L 122.34 74.25
  A 3.07 3.04 -21.7 0 1 124.55 75.19
  Q 135.92 87.05 147.92 98.94
  C 155.39 106.34 163.08 97.90 157.28 91.84
  Q 149.66 83.87 141.01 75.40
  A 1.09 1.09 52.0 0 1 141.22 73.68
  C 147.07 70.25 153.42 62.97 157.90 57.73
  Q 159.00 56.45 159.00 54.76
  Q 159.00 41.79 159.00 28.83
  C 159.00 24.85 159.31 23.54 156.81 20.94
  C 151.99 15.90 148.08 11.15 143.48 7.81
  C 139.85 5.17 137.02 5.76 130.97 5.72
  Q 115.78 5.62 100.59 5.93
  C 95.05 6.05 91.78 7.18 91.75 13.25
  Q 91.56 55.38 92.00 97.51
  Q 92.03 100.20 94.47 101.33
  Z"
/>
<path fill="#ffffff" d="
  M 246.85 90.55
  Q 239.94 97.69 232.44 104.92
  A 2.97 2.96 22.9 0 1 230.38 105.75
  Q 206.98 105.75 183.92 105.75
  C 179.12 105.75 175.49 103.04 175.51 98.13
  Q 175.78 33.80 175.00 13.00
  C 174.56 1.23 181.70 1.75 191.24 1.75
  Q 210.55 1.75 229.39 1.75
  Q 231.29 1.75 232.68 3.05
  C 238.00 8.06 245.05 13.99 249.32 19.83
  Q 250.31 21.19 250.30 23.34
  Q 250.06 54.42 250.50 78.75
  C 250.61 84.99 250.94 86.32 246.85 90.55
  Z
  M 182.17 101.06
  Q 184.92 102.16 187.85 102.06
  C 200.41 101.62 213.17 102.00 225.75 102.01
  Q 229.49 102.01 231.87 99.37
  C 236.07 94.73 240.76 90.36 245.20 85.92
  A 3.55 3.49 -22.7 0 0 246.25 83.42
  L 246.49 25.01
  Q 246.50 23.45 245.44 22.25
  Q 238.43 14.32 229.78 7.00
  Q 228.35 5.79 225.00 5.75
  C 217.42 5.65 209.85 6.02 202.33 5.75
  Q 190.03 5.31 184.50 6.00
  C 178.12 6.80 178.50 13.45 178.79 18.25
  C 180.37 44.35 179.14 71.14 179.49 97.14
  Q 179.53 99.99 182.17 101.06
  Z"
/>
<path fill="#ffffff" d="
  M 66.50 106.79
  Q 60.30 106.82 56.90 101.43
  A 2.84 2.54 -64.2 0 1 56.49 100.01
  L 56.24 64.85
  A 0.58 0.55 0.0 0 0 55.66 64.30
  L 20.71 64.24
  A 0.72 0.69 -0.4 0 0 19.99 64.94
  Q 20.18 81.44 20.03 97.26
  C 19.91 110.73 1.16 109.80 0.21 96.75
  L 0.21 91.00
  Q 0.63 85.77 0.53 80.54
  C 0.32 68.60 0.57 56.69 0.46 44.75
  C 0.57 38.64 -0.51 36.90 3.94 32.19
  Q 17.73 17.61 32.07 3.55
  A 3.49 3.28 -66.1 0 1 34.41 2.56
  L 42.20 2.50
  A 1.35 1.29 66.3 0 1 43.12 2.88
  Q 59.20 18.55 74.44 34.31
  Q 76.20 36.14 76.21 40.50
  Q 76.25 65.36 76.25 90.21
  C 76.25 99.16 76.70 105.66 66.50 106.79
  Z
  M 59.95 61.05
  L 60.74 98.00
  A 1.65 1.47 -66.6 0 0 61.04 98.91
  C 65.50 105.17 71.46 102.41 72.05 95.89
  Q 72.25 93.75 72.25 90.75
  Q 72.25 66.75 72.41 42.75
  Q 72.44 38.69 70.69 36.81
  Q 65.12 30.84 40.86 7.10
  A 1.60 1.49 69.5 0 0 40.00 6.67
  C 35.32 6.04 34.11 8.07 31.22 10.88
  Q 17.77 23.95 5.61 37.22
  Q 4.47 38.45 4.49 40.13
  Q 4.66 68.25 4.24 94.00
  C 4.06 104.86 16.51 105.48 16.31 95.75
  Q 15.96 78.25 16.00 61.20
  A 0.94 0.93 -89.7 0 1 16.94 60.26
  L 59.44 60.55
  A 0.51 0.51 89.4 0 1 59.95 61.05
  Z"
/>
<path fill="#8b2db4" d="
  M 540.68 22.78
  C 547.88 29.46 554.91 36.70 561.76 43.76
  A 0.52 0.51 -44.6 0 0 562.49 43.76
  L 583.32 22.79
  A 2.32 2.32 -22.5 0 0 584.00 21.15
  Q 584.00 15.25 583.92 11.25
  C 583.76 2.97 595.76 2.16 595.62 10.25
  Q 595.50 16.75 595.50 23.25
  Q 595.50 27.43 593.45 29.44
  Q 580.62 42.02 568.16 54.95
  A 1.26 1.23 67.6 0 0 567.81 55.82
  Q 567.91 74.79 567.99 93.75
  C 568.03 103.52 556.21 102.32 556.28 93.75
  Q 556.43 74.59 556.32 55.43
  A 1.23 1.22 22.2 0 0 555.96 54.59
  L 529.96 28.58
  Q 528.75 27.38 528.75 25.67
  C 528.75 21.33 527.65 9.64 530.07 6.55
  Q 532.28 3.74 536.25 5.00
  C 541.90 6.80 540.22 17.20 540.30 21.95
  A 1.18 1.14 21.4 0 0 540.68 22.78
  Z"
/>
<path fill="#8b2db4" d="
  M 506.28 85.29
  Q 498.18 92.55 490.25 100.00
  Q 490.03 100.22 490.99 100.93
  L 461.26 101.25
  Q 459.12 101.27 457.62 99.77
  L 442.35 84.50
  Q 441.25 83.39 441.25 81.77
  L 441.24 24.61
  Q 441.24 22.13 442.93 20.44
  L 456.73 6.74
  Q 458.22 5.26 460.61 5.23
  L 488.75 4.94
  Q 490.75 4.92 492.16 6.20
  Q 499.16 12.56 506.32 20.32
  C 508.49 22.67 508.75 24.72 508.75 27.75
  Q 508.75 53.75 508.75 79.75
  Q 508.75 83.55 506.28 85.29
  Z
  M 452.75 27.74
  C 452.85 44.39 452.48 61.03 452.80 77.69
  A 1.27 1.22 -69.0 0 0 453.16 78.55
  L 463.45 88.84
  A 1.20 1.20 66.4 0 0 464.31 89.18
  L 486.19 88.70
  A 1.25 1.17 20.2 0 0 487.04 88.34
  L 496.90 78.36
  A 1.27 1.14 69.7 0 0 497.24 77.50
  L 496.44 27.06
  A 1.30 1.11 -71.7 0 0 496.09 26.20
  L 486.56 16.90
  A 1.35 1.12 -19.1 0 0 485.68 16.57
  L 463.77 16.74
  A 1.31 1.26 -67.3 0 0 462.89 17.12
  L 453.12 26.90
  A 1.23 1.12 -24.1 0 0 452.75 27.74
  Z"
/>
<path fill="#8b2db4" d="
  M 266.19 19.94
  C 266.42 15.86 264.62 7.03 270.85 5.87
  C 275.70 4.96 278.20 8.48 278.25 13.00
  Q 278.64 46.00 278.50 79.00
  A 1.26 1.23 -67.6 0 0 278.85 79.87
  L 287.09 88.22
  Q 288.36 89.50 290.24 89.50
  L 309.78 89.50
  Q 311.63 89.50 312.93 88.20
  L 321.11 80.01
  Q 322.25 78.88 322.25 77.26
  Q 322.25 44.95 322.25 13.86
  C 322.25 10.66 321.92 7.57 325.31 6.06
  C 331.25 3.42 333.72 8.17 333.79 13.38
  Q 334.24 45.56 333.83 77.74
  C 333.80 80.19 334.50 82.89 332.69 85.19
  Q 331.00 87.33 323.73 94.46
  C 318.32 99.77 317.21 101.90 310.25 102.00
  Q 292.33 102.26 286.00 101.75
  C 281.98 101.42 271.75 89.63 268.63 86.36
  C 266.35 83.98 266.78 81.97 266.73 78.95
  C 266.51 63.13 266.45 47.30 266.02 31.49
  Q 265.87 25.71 266.19 19.94
  Z"
/>
<path fill="#8b2db4" d="
  M 353.47 64.69
  C 353.40 47.58 353.24 30.36 353.66 13.26
  C 353.80 7.68 355.55 5.25 361.25 5.25
  Q 381.63 5.25 401.95 5.25
  Q 403.63 5.25 404.81 6.43
  Q 411.06 12.69 417.31 18.94
  C 420.07 21.70 421.25 22.87 421.25 27.09
  C 421.25 30.68 421.15 34.30 421.35 37.89
  C 421.60 42.62 413.82 48.95 410.58 52.63
  A 0.81 0.81 -46.6 0 0 410.61 53.74
  C 414.16 57.28 421.14 62.98 421.34 67.92
  C 421.56 73.47 422.87 82.06 418.84 86.34
  Q 412.96 92.59 406.81 98.56
  Q 404.07 101.23 401.50 101.23
  Q 383.50 101.25 365.49 101.25
  Q 359.35 101.25 358.53 101.04
  C 353.13 99.63 353.33 92.80 353.57 88.25
  C 353.99 80.38 353.49 70.05 353.47 64.69
  Z
  M 401.00 45.52
  C 406.40 39.69 411.54 37.29 409.37 27.98
  A 1.65 1.61 -75.2 0 0 408.90 27.15
  L 398.61 17.09
  A 1.27 1.19 -21.6 0 0 397.75 16.75
  Q 385.12 16.75 372.50 16.75
  Q 368.32 16.75 365.79 17.42
  A 0.68 0.66 -8.1 0 0 365.30 18.06
  L 365.54 46.69
  A 0.52 0.51 -0.6 0 0 366.06 47.19
  Q 380.91 47.34 395.75 47.50
  Q 399.12 47.54 401.00 45.52
  Z
  M 409.92 76.60
  C 411.15 68.64 405.14 65.02 400.20 60.08
  A 3.67 3.64 -22.2 0 0 397.60 59.00
  L 366.64 59.00
  A 0.89 0.89 89.7 0 0 365.75 59.90
  L 366.01 88.84
  A 0.68 0.66 0.4 0 0 366.68 89.50
  L 396.66 89.69
  Q 398.83 89.70 400.38 88.22
  C 403.39 85.34 409.29 80.68 409.92 76.60
  Z"
/>
<path fill="#8b2db4" d="
  M 94.47 101.33
  Q 92.03 100.20 92.00 97.51
  Q 91.56 55.38 91.75 13.25
  C 91.78 7.18 95.05 6.05 100.59 5.93
  Q 115.78 5.62 130.97 5.72
  C 137.02 5.76 139.85 5.17 143.48 7.81
  C 148.08 11.15 151.99 15.90 156.81 20.94
  C 159.31 23.54 159.00 24.85 159.00 28.83
  Q 159.00 41.79 159.00 54.76
  Q 159.00 56.45 157.90 57.73
  C 153.42 62.97 147.07 70.25 141.22 73.68
  A 1.09 1.09 52.0 0 0 141.01 75.40
  Q 149.66 83.87 157.28 91.84
  C 163.08 97.90 155.39 106.34 147.92 98.94
  Q 135.92 87.05 124.55 75.19
  A 3.07 3.04 -21.7 0 0 122.34 74.25
  L 104.32 74.25
  A 0.83 0.83 0.0 0 0 103.49 75.08
  Q 103.54 85.31 103.47 94.67
  C 103.42 100.39 100.61 104.15 94.47 101.33
  Z
  M 136.82 18.43
  L 104.06 18.31
  A 0.50 0.49 -89.4 0 0 103.56 18.81
  L 103.50 62.14
  A 0.37 0.37 -0.8 0 0 103.88 62.51
  L 136.18 61.94
  A 1.41 0.95 14.1 0 0 137.07 61.62
  L 146.19 52.87
  Q 147.25 51.85 147.25 50.15
  L 147.25 29.26
  A 1.47 1.42 -65.1 0 0 146.94 28.36
  Q 142.80 23.10 137.70 18.77
  A 1.40 1.28 63.8 0 0 136.82 18.43
  Z"
/>
<path fill="#8b2db4" d="
  M 182.17 101.06
  Q 179.53 99.99 179.49 97.14
  C 179.14 71.14 180.37 44.35 178.79 18.25
  C 178.50 13.45 178.12 6.80 184.50 6.00
  Q 190.03 5.31 202.33 5.75
  C 209.85 6.02 217.42 5.65 225.00 5.75
  Q 228.35 5.79 229.78 7.00
  Q 238.43 14.32 245.44 22.25
  Q 246.50 23.45 246.49 25.01
  L 246.25 83.42
  A 3.55 3.49 -22.7 0 1 245.20 85.92
  C 240.76 90.36 236.07 94.73 231.87 99.37
  Q 229.49 102.01 225.75 102.01
  C 213.17 102.00 200.41 101.62 187.85 102.06
  Q 184.92 102.16 182.17 101.06
  Z
  M 224.34 89.89
  C 227.84 87.22 231.27 83.53 234.25 80.19
  A 1.97 1.97 -24.2 0 0 234.75 78.88
  L 234.75 29.02
  A 2.39 1.99 -71.3 0 0 234.13 27.42
  L 224.92 18.36
  A 3.43 2.91 -19.5 0 0 222.66 17.50
  L 191.68 17.56
  A 0.69 0.68 90.0 0 0 191.00 18.25
  L 191.00 89.73
  A 0.52 0.51 90.0 0 0 191.51 90.25
  L 223.44 90.19
  A 1.50 1.50 -65.7 0 0 224.34 89.89
  Z"
/>
<path fill="#8b2db4" d="
  M 59.44 60.55
  L 16.94 60.26
  A 0.94 0.93 -89.7 0 0 16.00 61.20
  Q 15.96 78.25 16.31 95.75
  C 16.51 105.48 4.06 104.86 4.24 94.00
  Q 4.66 68.25 4.49 40.13
  Q 4.47 38.45 5.61 37.22
  Q 17.77 23.95 31.22 10.88
  C 34.11 8.07 35.32 6.04 40.00 6.67
  A 1.60 1.49 69.5 0 1 40.86 7.10
  Q 65.12 30.84 70.69 36.81
  Q 72.44 38.69 72.41 42.75
  Q 72.25 66.75 72.25 90.75
  Q 72.25 93.75 72.05 95.89
  C 71.46 102.41 65.50 105.17 61.04 98.91
  A 1.65 1.47 -66.6 0 1 60.74 98.00
  L 59.95 61.05
  A 0.51 0.51 89.4 0 0 59.44 60.55
  Z
  M 20.14 38.83
  C 16.50 42.77 15.32 42.69 16.25 47.92
  A 1.00 1.00 85.1 0 0 17.22 48.74
  Q 38.10 48.97 58.90 48.02
  A 0.66 0.66 4.0 0 0 59.51 47.49
  Q 60.34 43.24 58.29 41.21
  Q 48.21 31.17 38.61 21.37
  A 0.92 0.92 0.0 0 0 37.31 21.35
  Q 28.08 30.26 20.14 38.83
  Z"
/>
<path fill="#ffffff" d="
  M 409.37 27.98
  C 411.54 37.29 406.40 39.69 401.00 45.52
  Q 399.12 47.54 395.75 47.50
  Q 380.91 47.34 366.06 47.19
  A 0.52 0.51 -0.6 0 1 365.54 46.69
  L 365.30 18.06
  A 0.68 0.66 -8.1 0 1 365.79 17.42
  Q 368.32 16.75 372.50 16.75
  Q 385.12 16.75 397.75 16.75
  A 1.27 1.19 -21.6 0 1 398.61 17.09
  L 408.90 27.15
  A 1.65 1.61 -75.2 0 1 409.37 27.98
  Z
  M 396.83 42.98
  Q 401.09 39.11 404.31 35.23
  C 407.29 31.63 405.14 29.75 402.60 27.23
  Q 399.43 24.09 396.29 20.91
  A 1.24 1.14 -20.8 0 0 395.44 20.57
  L 370.21 20.74
  A 0.97 0.96 -0.3 0 0 369.25 21.70
  L 369.25 42.65
  A 0.85 0.85 -0.2 0 0 370.10 43.50
  L 395.48 43.50
  A 2.02 1.99 23.5 0 0 396.83 42.98
  Z"
/>
<path fill="#ffffff" d="
  M 452.80 77.69
  C 452.48 61.03 452.85 44.39 452.75 27.74
  A 1.23 1.12 -24.1 0 1 453.12 26.90
  L 462.89 17.12
  A 1.31 1.26 -67.3 0 1 463.77 16.74
  L 485.68 16.57
  A 1.35 1.12 -19.1 0 1 486.56 16.90
  L 496.09 26.20
  A 1.30 1.11 -71.7 0 1 496.44 27.06
  L 497.24 77.50
  A 1.27 1.14 69.7 0 1 496.90 78.36
  L 487.04 88.34
  A 1.25 1.17 20.2 0 1 486.19 88.70
  L 464.31 89.18
  A 1.20 1.20 66.4 0 1 463.45 88.84
  L 453.16 78.55
  A 1.27 1.22 -69.0 0 1 452.80 77.69
  Z
  M 484.79 84.25
  L 487.00 82.04
  L 492.69 76.14
  A 1.64 1.10 78.8 0 0 493.06 75.25
  Q 493.43 71.81 493.00 66.50
  Q 492.33 58.31 492.50 29.76
  A 1.31 1.02 -72.8 0 0 492.17 28.89
  L 484.03 21.03
  A 2.01 1.82 -21.6 0 0 482.63 20.50
  L 466.05 20.79
  A 1.40 1.20 -64.5 0 0 465.17 21.18
  L 457.48 28.88
  A 2.52 2.30 -24.3 0 0 456.75 30.58
  L 456.75 75.31
  A 1.32 1.16 -70.4 0 0 457.11 76.21
  L 465.69 84.60
  A 1.68 1.47 -15.5 0 0 466.56 85.02
  Q 469.80 85.49 474.50 85.00
  C 477.80 84.66 483.94 85.21 484.79 84.25
  Z"
/>
<path fill="#ffffff" d="
  M 234.25 80.19
  C 231.27 83.53 227.84 87.22 224.34 89.89
  A 1.50 1.50 -50.5 0 1 223.44 90.19
  L 191.51 90.25
  A 0.52 0.51 -90.0 0 1 191.00 89.73
  L 191.00 18.25
  A 0.69 0.68 90.0 0 1 191.68 17.56
  L 222.66 17.50
  A 3.43 2.91 -19.5 0 1 224.92 18.36
  L 234.13 27.42
  A 2.39 1.99 -71.3 0 1 234.75 29.02
  L 234.75 78.88
  A 1.97 1.97 -24.2 0 1 234.25 80.19
  Z
  M 221.29 86.32
  A 1.27 1.18 21.1 0 0 222.16 85.97
  L 230.38 77.74
  A 1.23 1.22 68.1 0 0 230.75 76.86
  L 230.69 30.81
  A 1.21 1.14 -69.1 0 0 230.34 29.96
  L 222.11 21.84
  A 1.27 1.14 -20.3 0 0 221.25 21.50
  L 195.53 21.43
  A 0.72 0.71 -90.0 0 0 194.82 22.15
  L 194.82 85.93
  A 0.49 0.48 89.4 0 0 195.31 86.42
  L 221.29 86.32
  Z"
/>
<path fill="#ffffff" d="
  M 137.70 18.77
  Q 142.80 23.10 146.94 28.36
  A 1.47 1.42 -65.1 0 1 147.25 29.26
  L 147.25 50.15
  Q 147.25 51.85 146.19 52.87
  L 137.07 61.62
  A 1.41 0.95 14.1 0 1 136.18 61.94
  L 103.88 62.51
  A 0.37 0.37 -0.8 0 1 103.50 62.14
  L 103.56 18.81
  A 0.50 0.49 -89.4 0 1 104.06 18.31
  L 136.82 18.43
  A 1.40 1.28 63.8 0 1 137.70 18.77
  Z
  M 107.92 58.31
  L 133.22 57.98
  Q 134.91 57.96 136.09 56.78
  L 142.59 50.29
  A 3.12 3.11 67.6 0 0 143.50 48.09
  L 143.50 32.22
  A 3.28 2.40 -73.8 0 0 142.72 30.08
  L 135.14 22.57
  A 1.37 0.99 -16.1 0 0 134.25 22.25
  L 108.18 22.19
  A 0.50 0.49 -0.0 0 0 107.68 22.68
  L 107.56 57.97
  A 0.35 0.34 -0.8 0 0 107.92 58.31
  Z"
/>
<path fill="#ffffff" d="
  M 20.14 38.83
  Q 28.08 30.26 37.31 21.35
  A 0.92 0.92 48.9 0 1 38.61 21.37
  Q 48.21 31.17 58.29 41.21
  Q 60.34 43.24 59.51 47.49
  A 0.66 0.66 4.0 0 1 58.90 48.02
  Q 38.10 48.97 17.22 48.74
  A 1.00 1.00 85.1 0 1 16.25 47.92
  C 15.32 42.69 16.50 42.77 20.14 38.83
  Z
  M 40.75 30.21
  L 38.79 28.00
  Q 38.25 26.55 37.41 27.41
  Q 28.94 36.07 20.65 44.72
  Q 19.74 45.67 20.99 45.25
  Q 23.31 44.49 25.75 44.52
  Q 40.22 44.74 54.69 44.21
  Q 55.18 44.19 54.83 43.85
  L 40.75 30.21
  Z"
/>
<path fill="#ffffff" d="
  M 409.92 76.60
  C 409.29 80.68 403.39 85.34 400.38 88.22
  Q 398.83 89.70 396.66 89.69
  L 366.68 89.50
  A 0.68 0.66 0.4 0 1 366.01 88.84
  L 365.75 59.90
  A 0.89 0.89 89.7 0 1 366.64 59.00
  L 397.60 59.00
  A 3.67 3.64 -22.2 0 1 400.20 60.08
  C 405.14 65.02 411.15 68.64 409.92 76.60
  Z
  M 369.89 84.99
  A 0.57 0.56 1.0 0 0 370.46 85.57
  L 395.19 85.50
  Q 396.88 85.49 398.05 84.32
  C 400.49 81.89 405.88 77.75 405.81 74.14
  C 405.76 70.77 400.35 66.37 397.73 63.98
  Q 396.39 62.76 394.52 62.77
  L 370.23 63.00
  A 0.83 0.82 -2.9 0 0 369.41 63.89
  Q 370.28 74.33 369.89 84.99
  Z"
/>
<path fill="#6e059e" d="
  M 506.28 85.29
  Q 499.15 93.52 490.99 100.93
  Q 490.03 100.22 490.25 100.00
  Q 498.18 92.55 506.28 85.29
  Z"
/>
</svg>
