<?xml version="1.0" encoding="UTF-8" standalone="no"?>
<!DOCTYPE svg PUBLIC "-//W3C//DTD SVG 1.1//EN" "http://www.w3.org/Graphics/SVG/1.1/DTD/svg11.dtd">
<svg xmlns="http://www.w3.org/2000/svg" version="1.1" viewBox="0 0 600 300">
<path fill="#000000" d="
  M 159.57 255.35
  A 0.66 0.66 -89.6 0 1 158.91 256.00
  L 92.93 255.82
  A 0.80 0.78 76.7 0 1 92.22 255.37
  Q 47.59 164.92 3.36 74.27
  Q 2.24 71.99 2.17 69.48
  Q 1.72 55.09 2.17 40.69
  A 0.53 0.51 -88.8 0 1 2.68 40.18
  L 68.77 40.01
  A 1.23 1.22 76.7 0 1 69.89 40.71
  L 158.98 222.64
  Q 159.75 224.21 159.74 225.85
  L 159.57 255.35
  Z
  M 92.57 103.22
  C 83.34 84.51 74.36 65.93 65.18 47.42
  A 1.21 1.20 -13.1 0 0 64.10 46.75
  L 9.84 46.75
  A 1.09 1.09 88.6 0 0 8.75 47.84
  L 8.75 67.80
  Q 8.75 69.28 9.42 70.64
  L 25.55 103.54
  A 0.83 0.81 -12.5 0 0 26.29 104.00
  L 92.09 104.00
  A 0.54 0.54 76.7 0 0 92.57 103.22
  Z
  M 32.93 117.44
  A 0.36 0.36 -13.1 0 0 32.60 117.96
  L 48.81 150.81
  A 0.69 0.66 76.2 0 0 49.41 151.19
  L 115.18 151.19
  A 0.57 0.56 -12.8 0 0 115.69 150.38
  L 99.86 118.02
  A 0.92 0.92 -12.8 0 0 99.03 117.50
  L 32.93 117.44
  Z
  M 63.00 178.19
  A 0.62 0.62 77.2 0 0 62.44 179.08
  L 78.17 210.91
  A 1.52 1.49 76.4 0 0 79.51 211.75
  L 145.02 211.81
  A 0.49 0.48 77.2 0 0 145.46 211.11
  L 129.71 178.91
  A 1.19 1.18 76.6 0 0 128.65 178.25
  L 63.00 178.19
  Z"
/>
<path fill="#000000" d="
  M 159.09 171.51
  L 153.49 172.95
  A 0.70 0.57 68.8 0 1 152.78 172.55
  L 89.36 41.01
  A 0.66 0.66 77.0 0 1 89.95 40.06
  L 158.94 40.06
  A 0.81 0.81 1.3 0 1 159.75 40.87
  L 159.56 170.81
  A 0.75 0.62 84.1 0 1 159.09 171.51
  Z
  M 104.44 55.81
  Q 115.84 79.42 127.39 103.48
  A 0.92 0.92 -12.8 0 0 128.22 104.00
  L 151.90 104.00
  A 0.85 0.85 0.0 0 0 152.75 103.15
  L 152.75 47.52
  A 0.71 0.70 90.0 0 0 152.05 46.81
  L 101.07 46.81
  A 0.37 0.36 -9.5 0 0 100.72 47.29
  Q 101.68 50.11 104.44 55.81
  Z
  M 134.68 117.43
  A 0.36 0.36 -13.1 0 0 134.35 117.95
  Q 142.08 133.91 149.95 150.05
  Q 150.74 151.68 152.23 151.14
  A 0.76 0.68 81.4 0 0 152.69 150.44
  L 152.75 118.00
  A 0.50 0.50 0.0 0 0 152.25 117.50
  L 134.68 117.43
  Z"
/>
<path fill="#000000" d="
  M 324.60 255.80
  L 263.77 255.94
  A 0.80 0.80 83.7 0 1 262.99 255.31
  L 221.59 72.15
  Q 221.17 70.31 221.62 68.60
  L 228.80 40.67
  A 0.66 0.66 7.4 0 1 229.44 40.18
  L 274.97 40.01
  A 1.04 1.02 83.0 0 1 275.98 40.81
  L 325.20 255.04
  A 0.62 0.62 83.3 0 1 324.60 255.80
  Z
  M 234.28 47.75
  C 232.45 54.28 230.51 61.26 229.02 68.07
  Q 228.49 70.46 229.04 72.92
  Q 232.46 88.23 235.88 103.31
  A 0.89 0.88 83.4 0 0 236.74 104.00
  L 282.22 104.00
  A 0.72 0.71 -6.4 0 0 282.92 103.13
  L 270.05 47.30
  A 0.64 0.63 -6.2 0 0 269.43 46.81
  L 235.59 46.76
  A 1.36 1.34 -81.8 0 0 234.28 47.75
  Z
  M 239.82 117.44
  A 0.61 0.61 83.8 0 0 239.23 118.18
  L 246.48 150.31
  A 1.20 1.20 83.7 0 0 247.65 151.25
  L 293.21 151.25
  A 0.61 0.61 83.2 0 0 293.80 150.50
  L 286.41 118.00
  A 0.65 0.65 83.2 0 0 285.78 117.50
  L 239.82 117.44
  Z
  M 253.49 178.18
  A 0.55 0.54 84.0 0 0 252.96 178.84
  L 260.28 211.12
  A 0.81 0.80 -6.2 0 0 261.07 211.75
  L 307.25 211.81
  A 0.54 0.54 -6.3 0 0 307.78 211.15
  L 300.46 178.91
  A 0.94 0.94 -6.6 0 0 299.54 178.18
  L 253.49 178.18
  Z"
/>
<path fill="#000000" d="
  M 303.69 69.21
  C 306.10 59.46 308.52 50.11 310.89 40.61
  A 0.82 0.82 -82.6 0 1 311.68 40.00
  L 357.29 40.00
  A 0.98 0.98 -6.2 0 1 358.25 40.77
  L 407.58 255.33
  A 0.55 0.54 83.6 0 1 407.05 256.00
  L 346.16 256.00
  A 0.93 0.92 83.8 0 1 345.26 255.27
  L 303.66 71.21
  Q 303.44 70.21 303.69 69.21
  Z
  M 316.67 47.39
  C 314.62 54.78 313.00 62.00 310.95 69.19
  Q 310.67 70.20 310.90 71.22
  L 318.21 103.42
  A 0.75 0.74 -6.3 0 0 318.94 104.00
  L 364.85 104.00
  A 0.45 0.45 -6.6 0 0 365.29 103.45
  L 352.49 47.47
  A 0.92 0.92 -6.2 0 0 351.59 46.75
  L 317.42 46.81
  A 0.79 0.77 -82.1 0 0 316.67 47.39
  Z
  M 322.08 117.44
  A 0.64 0.64 83.2 0 0 321.46 118.23
  L 328.83 150.46
  A 1.02 1.02 83.6 0 0 329.82 151.25
  L 375.66 151.25
  A 0.49 0.49 -6.5 0 0 376.14 150.65
  L 368.56 118.05
  A 0.64 0.64 83.1 0 0 367.94 117.56
  L 322.08 117.44
  Z
  M 381.92 178.19
  L 336.03 178.25
  A 0.76 0.75 -6.4 0 0 335.29 179.17
  L 342.53 211.14
  A 0.79 0.79 -6.4 0 0 343.30 211.75
  L 389.50 211.81
  A 0.54 0.54 -6.3 0 0 390.03 211.15
  L 382.68 178.79
  A 0.78 0.78 -6.5 0 0 381.92 178.19
  Z"
/>
<path fill="#000000" d="
  M 488.75 255.47
  A 0.53 0.53 0.0 0 1 488.22 256.00
  L 427.78 256.00
  A 0.53 0.53 0.0 0 1 427.25 255.47
  L 427.25 40.53
  A 0.53 0.53 0.0 0 1 427.78 40.00
  L 488.22 40.00
  A 0.53 0.53 0.0 0 1 488.75 40.53
  L 488.75 255.47
  Z
  M 482.00 47.45
  A 0.69 0.69 0.0 0 0 481.31 46.76
  L 434.69 46.76
  A 0.69 0.69 0.0 0 0 434.00 47.45
  L 434.00 103.31
  A 0.69 0.69 0.0 0 0 434.69 104.00
  L 481.31 104.00
  A 0.69 0.69 0.0 0 0 482.00 103.31
  L 482.00 47.45
  Z
  M 482.00 118.10
  A 0.60 0.60 0.0 0 0 481.40 117.50
  L 434.60 117.50
  A 0.60 0.60 0.0 0 0 434.00 118.10
  L 434.00 150.66
  A 0.60 0.60 0.0 0 0 434.60 151.26
  L 481.40 151.26
  A 0.60 0.60 0.0 0 0 482.00 150.66
  L 482.00 118.10
  Z
  M 482.00 178.81
  A 0.58 0.58 0.0 0 0 481.42 178.23
  L 434.58 178.23
  A 0.58 0.58 0.0 0 0 434.00 178.81
  L 434.00 211.17
  A 0.58 0.58 0.0 0 0 434.58 211.75
  L 481.42 211.75
  A 0.58 0.58 0.0 0 0 482.00 211.17
  L 482.00 178.81
  Z"
/>
<path fill="#000000" d="
  M 595.08 40.96
  C 566.81 75.16 539.02 109.76 511.04 144.03
  A 0.80 0.80 -44.1 0 0 511.02 145.02
  L 595.14 255.24
  Q 595.73 256.00 594.77 256.00
  L 503.41 256.00
  A 0.91 0.91 -0.4 0 1 502.50 255.09
  L 502.50 40.69
  A 0.69 0.69 0.0 0 1 503.19 40.00
  L 594.63 40.00
  Q 595.88 40.00 595.08 40.96
  Z
  M 534.82 103.37
  C 550.10 84.80 565.17 66.06 580.46 47.50
  Q 581.08 46.75 580.10 46.75
  L 510.28 46.75
  A 0.77 0.76 -0.4 0 0 509.51 47.52
  L 509.68 103.31
  A 0.53 0.52 1.1 0 0 510.19 103.83
  Q 522.09 104.31 533.99 103.77
  A 1.16 1.12 18.2 0 0 534.82 103.37
  Z
  M 509.43 133.33
  Q 509.42 134.93 510.45 133.67
  L 522.70 118.68
  Q 523.79 117.34 522.06 117.36
  L 510.18 117.48
  A 0.69 0.67 -0.4 0 0 509.50 118.15
  L 509.43 133.33
  Z
  M 510.13 155.52
  Q 509.43 154.61 509.43 155.76
  L 509.50 211.21
  A 0.62 0.61 -0.0 0 0 510.12 211.82
  L 552.39 211.94
  Q 553.16 211.94 552.69 211.32
  L 510.13 155.52
  Z"
/>
<path fill="#000000" d="
  M 2.72 124.14
  L 8.07 122.73
  A 0.70 0.57 69.0 0 1 8.78 123.14
  L 72.49 255.08
  A 0.64 0.64 -13.0 0 1 71.91 256.00
  L 3.02 256.00
  A 1.02 1.02 89.4 0 1 2.00 254.98
  L 2.00 125.18
  A 1.10 0.96 83.6 0 1 2.72 124.14
  Z
  M 8.68 141.23
  L 8.74 149.80
  A 1.29 1.13 90.0 0 0 9.86 151.08
  L 13.76 151.12
  A 0.41 0.35 76.0 0 0 14.05 150.55
  L 9.71 140.98
  Q 8.67 138.69 8.68 141.23
  Z
  M 42.98 211.82
  A 0.50 0.50 77.3 0 0 43.43 211.10
  L 27.98 178.95
  A 1.62 1.55 -12.7 0 0 26.53 178.08
  L 9.53 178.23
  A 0.79 0.76 -0.4 0 0 8.75 178.99
  L 8.75 211.02
  A 0.74 0.73 0.0 0 0 9.49 211.75
  L 42.98 211.82
  Z"
/>
<path fill="#000000" d="
  M 179.68 255.81
  A 0.32 0.32 5.9 0 1 179.37 255.43
  L 207.46 124.30
  A 0.76 0.76 -0.9 0 1 208.05 123.71
  Q 211.12 123.13 214.19 123.71
  A 0.76 0.74 89.3 0 1 214.79 124.31
  L 242.85 255.08
  A 0.75 0.74 84.1 0 1 242.12 255.99
  L 179.68 255.81
  Z
  M 209.15 150.88
  A 0.32 0.32 4.9 0 0 209.46 151.26
  L 212.87 151.24
  A 0.32 0.32 -5.7 0 0 213.18 150.86
  L 211.42 142.00
  A 0.32 0.32 -44.6 0 0 210.79 142.00
  L 209.15 150.88
  Z
  M 225.54 211.82
  A 0.59 0.59 -5.9 0 0 226.12 211.11
  L 219.17 178.92
  A 0.65 0.61 83.5 0 0 218.57 178.41
  L 203.68 178.41
  A 0.65 0.61 -83.5 0 0 203.08 178.92
  L 196.06 210.97
  A 0.71 0.70 6.2 0 0 196.75 211.82
  L 225.54 211.82
  Z"
/>
</svg>
