<?xml version="1.0" encoding="UTF-8" standalone="no"?>
<!DOCTYPE svg PUBLIC "-//W3C//DTD SVG 1.1//EN" "http://www.w3.org/Graphics/SVG/1.1/DTD/svg11.dtd">
<svg xmlns="http://www.w3.org/2000/svg" version="1.1" viewBox="0 0 600 300">
<path fill="#000000" d="
  M 57.40 112.91
  C 46.99 102.80 36.81 92.44 26.55 82.18
  A 0.62 0.62 -0.0 0 1 26.55 81.32
  L 57.21 50.67
  A 0.77 0.76 44.7 0 1 58.30 50.67
  L 89.21 81.72
  A 0.35 0.33 -35.5 0 1 89.10 82.26
  Q 88.05 82.78 86.81 84.06
  Q 80.51 90.57 58.10 112.90
  A 0.50 0.50 -45.4 0 1 57.40 112.91
  Z"
/>
<path fill="#000000" d="
  M 459.17 114.60
  C 475.07 87.65 509.00 76.63 538.11 88.18
  C 558.96 96.45 573.53 113.33 576.83 135.74
  C 580.17 158.39 575.80 181.45 558.65 197.65
  C 530.35 224.38 481.65 219.95 460.46 185.59
  C 447.63 164.78 446.59 135.94 459.17 114.60
  Z
  M 514.82 90.21
  C 495.53 89.97 491.89 101.54 490.84 117.88
  C 489.60 137.34 490.15 159.28 490.52 176.50
  C 490.94 195.70 495.55 210.73 518.56 207.81
  C 530.40 206.31 535.73 198.39 536.75 187.25
  C 538.61 166.90 538.28 145.79 537.70 125.36
  C 537.23 108.73 536.68 90.48 514.82 90.21
  Z"
/>
<path fill="#000000" d="
  M 276.44 92.03
  L 259.81 91.68
  A 0.63 0.49 0.1 0 1 259.19 91.20
  L 259.16 86.40
  A 1.01 0.89 -0.3 0 1 260.17 85.50
  Q 297.37 85.50 333.50 85.47
  C 371.45 85.44 401.35 112.29 399.05 151.50
  Q 397.30 181.30 372.31 200.31
  C 357.99 211.20 342.11 213.01 323.75 213.01
  Q 292.50 213.00 260.14 213.00
  A 1.05 0.97 0.3 0 1 259.09 212.02
  L 259.12 207.18
  A 0.58 0.52 -0.6 0 1 259.69 206.66
  L 276.33 206.58
  A 0.67 0.65 -0.0 0 0 277.00 205.93
  L 276.94 92.56
  A 0.53 0.51 -89.4 0 0 276.44 92.03
  Z
  M 312.62 206.66
  C 325.89 205.50 349.39 209.10 354.75 191.50
  Q 358.13 180.42 358.97 167.76
  Q 360.55 143.88 358.06 120.07
  C 356.73 107.39 352.63 94.63 338.05 92.76
  Q 325.29 91.12 312.50 91.93
  A 0.54 0.53 88.3 0 0 312.00 92.47
  L 312.00 206.10
  A 0.57 0.56 -2.8 0 0 312.62 206.66
  Z"
/>
<path fill="#000000" d="
  M 158.07 145.68
  C 179.10 145.57 207.73 154.30 207.25 180.75
  C 206.64 214.63 154.17 221.11 131.56 211.19
  C 121.72 206.87 111.43 197.07 114.25 185.14
  C 118.01 169.25 146.54 170.22 146.39 186.86
  C 146.33 193.72 141.28 197.84 135.48 200.64
  Q 132.58 202.04 134.04 203.94
  C 136.43 207.06 145.54 208.57 149.25 208.74
  Q 167.21 209.59 170.94 192.29
  Q 174.17 177.34 170.25 164.25
  C 165.01 146.76 147.52 148.51 133.11 149.53
  Q 130.78 149.69 129.97 147.50
  C 128.17 142.61 133.38 142.45 136.74 142.69
  C 150.14 143.61 165.38 143.29 168.50 126.75
  Q 169.89 119.38 169.41 112.42
  C 168.65 101.46 165.76 92.83 153.50 92.16
  Q 145.78 91.74 139.34 95.60
  Q 136.89 97.06 139.15 98.81
  Q 141.79 100.85 144.24 102.78
  C 151.16 108.22 150.25 117.68 142.82 121.83
  C 134.30 126.59 120.58 122.97 118.43 112.46
  Q 116.98 105.40 121.94 99.69
  C 130.69 89.59 142.91 86.34 155.90 86.03
  C 170.86 85.68 192.27 89.89 200.61 104.29
  C 205.22 112.26 204.24 122.46 198.47 129.52
  C 190.96 138.72 174.28 143.62 162.75 144.50
  Q 159.93 144.71 158.02 145.49
  Q 157.53 145.69 158.07 145.68
  Z"
/>
<path fill="#000000" d="
  M 81.54 118.95
  Q 83.67 119.61 84.47 121.69
  Q 90.65 137.78 84.25 153.50
  C 83.34 155.73 80.58 156.27 77.67 156.94
  Q 55.48 162.09 34.25 156.00
  C 31.42 155.19 30.77 152.75 29.82 149.72
  Q 25.19 134.93 31.39 120.96
  Q 32.07 119.42 33.68 118.94
  Q 58.05 111.66 81.54 118.95
  Z"
/>
<path fill="#000000" d="
  M 48.82 164.37
  C 65.40 158.47 82.66 169.95 84.44 187.06
  C 85.84 200.60 76.75 212.78 63.66 216.06
  C 61.10 216.69 58.67 218.18 55.38 217.17
  Q 52.14 216.17 52.01 216.14
  C 25.85 210.00 23.37 173.42 48.82 164.37
  Z"
/>
<path fill="#000000" d="
  M 89.42 243.80
  Q 90.65 244.54 89.39 245.21
  Q 83.73 248.22 77.26 248.88
  C 66.52 249.98 54.12 250.23 44.26 249.53
  C 42.48 249.40 19.78 246.92 28.06 242.56
  C 31.30 240.86 36.37 240.41 39.78 239.86
  Q 57.94 236.96 76.07 239.89
  C 82.19 240.88 85.01 241.16 89.42 243.80
  Z"
/>
</svg>
