<?xml version="1.0" encoding="UTF-8" standalone="no"?>
<!DOCTYPE svg PUBLIC "-//W3C//DTD SVG 1.1//EN" "http://www.w3.org/Graphics/SVG/1.1/DTD/svg11.dtd">
<svg xmlns="http://www.w3.org/2000/svg" version="1.1" viewBox="0 0 600 300">
<path fill="#000000" d="
  M 382.58 65.21
  C 383.31 63.39 386.43 63.67 387.36 65.24
  Q 387.65 65.74 387.97 65.98
  C 395.80 71.81 385.83 82.74 379.94 74.62
  Q 376.54 69.93 382.03 65.97
  A 1.92 1.16 -85.3 0 0 382.58 65.21
  Z
  M 389.83 71.30
  A 4.96 4.96 0.0 0 0 384.87 66.34
  A 4.96 4.96 0.0 0 0 379.91 71.30
  A 4.96 4.96 0.0 0 0 384.87 76.26
  A 4.96 4.96 0.0 0 0 389.83 71.30
  Z"
/>
<path fill="#000000" d="
  M 384.46 71.94
  C 382.36 71.57 384.78 75.01 382.76 74.18
  A 0.84 0.66 -81.6 0 1 382.34 73.44
  L 382.33 69.56
  A 1.39 0.94 74.9 0 1 382.63 68.68
  C 384.43 66.78 389.75 68.77 386.88 71.42
  A 1.08 0.76 -31.6 0 0 386.52 72.25
  Q 386.61 72.83 387.04 73.26
  A 0.90 0.51 38.7 0 1 387.36 74.06
  C 386.81 75.31 385.40 72.80 385.20 72.49
  A 1.24 0.90 72.7 0 0 384.46 71.94
  Z
  M 386.4083 70.1502
  A 1.49 1.10 2.7 0 0 384.9718 68.9812
  A 1.49 1.10 2.7 0 0 383.4317 70.0098
  A 1.49 1.10 2.7 0 0 384.8682 71.1788
  A 1.49 1.10 2.7 0 0 386.4083 70.1502
  Z"
/>
<path fill="#000000" d="
  M 377.60 117.68
  A 0.88 0.87 -9.3 0 0 378.43 116.54
  Q 372.39 98.09 365.92 80.33
  C 363.79 74.48 359.12 76.27 357.43 81.13
  Q 349.83 102.88 342.78 124.14
  A 1.60 1.60 9.0 0 1 341.26 125.24
  Q 326.74 125.28 313.69 125.26
  C 292.08 125.22 296.00 106.00 296.00 91.55
  C 296.00 82.68 296.77 75.99 304.84 72.45
  Q 307.98 71.07 314.49 71.04
  Q 324.90 70.98 335.31 70.94
  A 0.67 0.62 -6.7 0 1 335.95 71.41
  Q 336.52 73.68 336.01 77.55
  A 1.10 1.09 3.6 0 1 334.92 78.50
  Q 324.27 78.50 313.92 78.50
  C 306.28 78.50 303.50 80.99 303.50 88.47
  Q 303.50 96.45 303.50 104.43
  C 303.50 110.14 302.80 114.17 307.44 116.69
  C 311.41 118.84 322.26 117.78 327.32 117.82
  A 1.10 1.06 0.5 0 0 328.43 116.77
  L 328.50 97.74
  A 0.71 0.68 -0.4 0 0 327.78 97.06
  L 316.66 97.31
  A 1.86 1.76 -0.5 0 1 314.76 95.54
  L 314.77 91.23
  A 1.54 1.47 -0.0 0 1 316.31 89.76
  L 335.02 89.75
  A 1.20 1.19 -0.5 0 1 336.22 90.92
  Q 336.50 104.93 335.83 117.39
  C 335.76 118.72 336.34 120.30 337.12 117.88
  Q 343.17 99.11 349.68 80.50
  Q 351.43 75.49 353.62 73.31
  C 359.69 67.29 371.13 69.99 373.68 78.70
  C 378.12 93.91 383.93 109.22 389.14 124.64
  A 0.47 0.46 80.9 0 1 388.70 125.25
  L 359.22 125.25
  A 0.54 0.48 1.0 0 1 358.68 124.75
  L 358.93 118.50
  A 0.59 0.54 0.5 0 1 359.51 117.98
  L 377.60 117.68
  Z"
/>
<path fill="#000000" d="
  M 223.56 108.62
  C 223.99 108.62 234.03 109.13 231.40 106.80
  A 1.46 1.10 -18.2 0 0 230.51 106.50
  Q 228.50 106.51 226.50 106.59
  C 200.23 107.59 200.23 69.45 227.25 71.00
  Q 232.22 71.29 247.69 70.83
  A 0.69 0.66 -10.3 0 1 248.36 71.27
  C 248.95 72.97 249.86 78.88 246.81 78.63
  C 241.93 78.22 236.78 78.50 231.87 78.50
  C 225.08 78.50 221.45 77.77 217.51 81.42
  C 213.70 84.94 213.16 90.79 216.39 94.85
  C 219.40 98.62 224.02 99.82 228.74 99.18
  C 236.64 98.10 242.44 106.04 237.31 112.81
  C 235.07 115.78 232.67 115.63 229.27 115.80
  Q 218.39 116.33 207.50 115.78
  A 0.63 0.61 -2.2 0 1 206.92 115.26
  Q 206.41 112.02 206.97 108.80
  A 0.57 0.56 6.9 0 1 207.56 108.34
  Q 215.56 108.67 223.56 108.62
  Z"
/>
<path fill="#000000" d="
  M 293.06 124.53
  A 0.77 0.68 -1.4 0 1 292.29 125.25
  Q 280.99 125.25 270.07 125.25
  C 259.19 125.25 252.69 120.49 252.36 109.11
  Q 252.03 98.00 252.36 86.90
  C 252.67 76.75 258.89 70.63 269.50 71.00
  Q 276.35 71.24 292.44 70.82
  A 0.58 0.50 -1.1 0 1 293.03 71.31
  L 293.14 77.58
  A 1.01 0.91 -0.3 0 1 292.13 78.50
  Q 282.88 78.50 274.05 78.50
  C 267.74 78.50 263.72 77.52 260.91 82.26
  C 258.39 86.53 259.75 102.33 259.75 107.88
  C 259.75 114.14 261.98 117.76 268.45 117.74
  Q 280.33 117.71 292.20 117.81
  A 0.58 0.53 -1.6 0 1 292.78 118.31
  L 293.06 124.53
  Z"
/>
<path fill="#000000" d="
  M 358.45 110.67
  C 357.60 111.12 354.29 122.35 353.72 124.10
  A 1.94 1.72 7.1 0 1 351.98 125.29
  L 345.49 125.50
  A 0.82 0.76 7.4 0 1 344.66 124.51
  Q 351.81 102.91 359.63 81.02
  C 360.70 78.03 363.08 77.37 364.28 80.79
  Q 370.32 97.96 376.03 115.35
  A 0.49 0.49 -9.3 0 1 375.56 116.00
  L 359.95 116.00
  A 1.21 1.18 -88.6 0 1 358.77 114.73
  L 358.93 111.06
  Q 358.96 110.40 358.45 110.67
  Z
  M 359.61 107.03
  A 0.52 0.52 7.0 0 0 360.12 107.69
  L 363.90 107.61
  A 0.52 0.52 -9.2 0 0 364.38 106.93
  L 362.36 100.69
  A 0.52 0.52 -46.2 0 0 361.37 100.71
  L 359.61 107.03
  Z"
/>
<path fill="#000000" d="
  M 231.50 89.86
  C 250.25 90.18 255.15 116.04 238.24 123.68
  C 230.80 127.03 216.06 125.59 207.63 125.49
  A 0.89 0.89 0.3 0 1 206.75 124.60
  L 206.75 118.77
  A 1.02 1.02 -0.4 0 1 207.77 117.75
  Q 216.91 117.75 225.25 117.75
  C 232.36 117.75 236.45 118.17 239.89 112.16
  C 243.99 104.98 237.94 97.36 230.50 97.25
  C 226.33 97.19 222.59 97.65 219.33 95.21
  Q 213.97 91.22 217.56 84.31
  C 219.21 81.15 222.82 80.50 226.50 80.49
  Q 236.90 80.47 247.73 80.43
  A 1.21 1.04 -88.9 0 1 248.76 81.68
  L 248.59 87.21
  A 0.77 0.71 -88.8 0 1 247.87 87.96
  Q 235.95 87.70 224.81 87.99
  C 223.12 88.03 223.03 89.65 224.80 89.70
  Q 228.15 89.80 231.50 89.86
  Z"
/>
<path fill="#000000" d="
  M 269.37 88.74
  C 268.71 90.16 271.15 89.75 271.96 89.74
  Q 278.78 89.68 286.58 89.76
  A 0.98 0.88 -0.6 0 1 287.55 90.61
  L 287.74 96.27
  A 1.05 0.95 -0.8 0 1 286.69 97.25
  L 262.31 97.25
  A 0.56 0.56 0.0 0 1 261.75 96.69
  C 261.75 90.71 259.19 80.18 268.70 80.34
  Q 280.56 80.54 292.43 80.32
  A 0.58 0.49 -1.1 0 1 293.02 80.80
  L 293.16 87.03
  A 0.95 0.88 -0.9 0 1 292.21 87.94
  L 270.98 87.75
  A 1.78 1.67 11.7 0 0 269.37 88.74
  Z"
/>
<path fill="#000000" d="
  M 335.45 87.74
  C 328.59 88.41 321.52 88.00 314.91 88.00
  Q 313.00 88.00 313.00 89.89
  L 313.06 106.68
  A 1.25 0.98 -73.7 0 0 313.41 107.55
  Q 314.93 108.92 318.14 108.27
  A 1.09 1.09 -24.3 0 0 318.79 106.55
  Q 318.42 106.06 316.21 106.57
  A 1.16 1.13 -6.8 0 1 314.79 105.48
  L 314.75 100.24
  A 1.00 0.98 -0.3 0 1 315.75 99.25
  L 325.83 99.25
  A 0.92 0.92 -0.6 0 1 326.75 100.17
  L 326.75 115.02
  A 0.95 0.95 -0.9 0 1 325.83 115.97
  Q 319.36 116.13 313.97 115.83
  C 308.47 115.51 305.50 115.36 305.50 108.72
  Q 305.50 97.98 305.50 87.25
  C 305.50 81.75 308.13 80.50 313.30 80.50
  Q 323.97 80.50 335.15 80.50
  A 1.01 0.91 0.6 0 1 336.16 81.43
  L 336.03 87.20
  A 0.65 0.54 -3.0 0 1 335.45 87.74
  Z"
/>
<path fill="#000000" d="
  M 269.49 107.31
  C 269.52 107.94 270.04 108.24 270.66 108.27
  Q 281.42 108.73 291.97 108.32
  A 0.99 0.99 -1.1 0 1 293.00 109.31
  L 293.00 114.87
  A 1.07 1.07 -0.5 0 1 291.95 115.94
  Q 280.42 116.20 268.71 115.84
  C 259.04 115.55 261.75 106.15 261.75 99.49
  A 0.43 0.42 0.7 0 1 262.19 99.07
  L 286.94 99.31
  A 0.63 0.62 -5.2 0 1 287.54 99.80
  Q 288.12 102.87 287.54 105.94
  A 0.64 0.60 4.4 0 1 286.93 106.43
  L 270.07 106.79
  A 0.59 0.50 -1.5 0 0 269.49 107.31
  Z"
/>
<path fill="#000000" d="
  M 422.81 153.68
  L 435.76 153.97
  A 0.64 0.64 -4.6 0 1 436.36 154.48
  Q 436.76 156.37 436.36 158.27
  A 0.62 0.61 -84.2 0 1 435.76 158.77
  L 423.41 158.77
  A 1.15 1.09 0.3 0 0 422.26 159.85
  Q 422.08 175.54 422.44 190.46
  C 422.65 199.72 428.59 199.31 435.75 198.54
  Q 438.68 198.22 437.69 201.03
  A 1.46 1.33 -6.9 0 1 437.07 201.75
  C 430.81 205.32 418.62 207.91 414.29 200.44
  Q 412.78 197.83 412.64 191.28
  Q 412.36 177.42 412.48 163.56
  C 412.52 158.98 413.09 157.99 407.78 159.11
  A 1.61 1.39 82.9 0 0 406.69 160.74
  L 407.05 167.51
  A 0.92 0.74 -18.7 0 1 406.57 168.27
  C 404.72 169.28 403.82 168.12 403.27 166.44
  C 400.99 159.57 395.30 155.11 387.76 156.56
  C 379.11 158.23 379.74 168.48 387.31 171.19
  C 393.45 173.38 401.04 175.60 405.29 179.32
  C 411.99 185.19 410.90 195.12 404.64 200.79
  C 397.74 207.02 386.32 206.47 378.78 201.62
  A 0.80 0.79 31.7 0 0 377.67 201.88
  Q 375.77 205.05 373.27 204.13
  A 0.78 0.70 -82.5 0 1 372.80 203.44
  L 372.33 188.06
  A 1.51 1.08 70.5 0 1 372.59 187.15
  Q 373.57 185.93 375.23 186.60
  A 1.18 1.00 88.9 0 1 375.84 187.29
  C 378.04 194.06 383.63 201.06 391.12 201.45
  C 396.94 201.76 402.81 198.83 401.90 192.04
  C 400.92 184.66 391.16 183.30 385.63 181.12
  C 376.78 177.63 371.00 171.89 375.06 161.31
  Q 375.21 160.92 375.14 160.66
  Q 374.97 160.05 374.52 160.73
  Q 373.42 162.41 372.06 165.56
  C 364.34 183.51 359.77 195.98 352.93 210.83
  Q 348.87 219.64 342.69 224.69
  C 338.19 228.36 326.67 227.18 328.02 219.29
  Q 328.42 216.95 329.89 215.78
  C 333.92 212.56 338.47 217.20 340.19 220.57
  A 0.86 0.86 52.1 0 0 341.60 220.75
  Q 347.60 213.91 351.37 205.17
  A 3.43 3.43 -44.4 0 0 351.40 202.52
  Q 343.40 182.90 335.50 164.09
  C 333.80 160.05 331.66 157.89 327.47 157.21
  A 0.30 0.30 -89.0 0 1 327.21 156.95
  C 325.84 148.09 322.77 138.85 314.19 135.38
  C 297.27 128.53 289.27 151.39 305.37 158.22
  C 317.32 163.29 335.42 166.77 334.60 184.02
  C 333.55 206.09 308.21 209.90 292.77 200.66
  A 1.04 1.04 -65.7 0 0 291.25 201.24
  Q 290.09 204.94 286.55 204.28
  A 1.27 1.27 -84.8 0 1 285.51 203.03
  Q 285.46 192.34 285.06 182.79
  C 284.92 179.66 284.44 178.61 288.30 179.49
  A 1.56 1.55 -0.6 0 1 289.47 180.63
  C 291.65 189.42 297.51 198.21 306.43 200.62
  C 313.63 202.56 323.32 199.89 324.38 190.99
  C 326.62 172.29 304.22 173.40 293.62 164.63
  C 283.76 156.48 285.20 141.86 294.97 134.52
  C 303.58 128.05 315.34 128.86 324.32 134.70
  A 0.96 0.96 24.2 0 0 325.77 134.15
  Q 326.70 130.74 330.40 131.50
  A 1.30 1.29 6.1 0 1 331.43 132.76
  L 331.50 152.76
  A 0.94 0.91 -0.3 0 0 332.45 153.67
  L 348.77 153.52
  A 1.23 1.19 84.2 0 1 349.96 154.52
  C 351.18 161.09 341.64 153.77 345.39 162.98
  Q 350.84 176.39 356.64 190.72
  A 0.33 0.33 57.5 0 0 357.17 190.84
  C 357.98 190.06 358.28 188.63 358.61 187.86
  Q 363.97 175.39 368.82 162.34
  Q 369.57 160.31 367.81 159.04
  Q 365.99 157.73 363.42 157.16
  A 1.34 1.16 -8.4 0 1 362.64 156.66
  Q 360.56 153.65 364.75 153.51
  C 370.52 153.33 378.62 154.66 383.97 153.21
  Q 392.56 150.89 400.95 154.57
  A 0.75 0.75 -69.5 0 0 401.96 154.11
  C 403.42 149.59 406.81 154.13 409.75 153.82
  Q 410.21 153.77 410.71 153.94
  C 412.43 154.53 412.96 153.29 412.90 151.83
  Q 412.62 145.96 412.78 138.96
  A 1.02 0.99 2.2 0 1 413.86 137.99
  L 420.13 138.32
  Q 422.81 138.46 422.50 140.99
  Q 421.63 148.01 422.25 153.18
  A 0.58 0.57 -2.9 0 0 422.81 153.68
  Z"
/>
<path fill="#000000" d="
  M 53.76 185.10
  Q 54.42 186.27 54.89 185.02
  Q 62.41 165.04 70.18 145.68
  Q 72.58 139.71 74.52 132.48
  A 1.33 1.33 -82.2 0 1 75.80 131.50
  L 97.11 131.50
  A 1.07 1.06 -6.5 0 1 98.15 132.32
  Q 98.86 135.37 96.25 135.48
  C 89.70 135.75 88.60 137.38 88.48 143.42
  Q 87.97 168.41 88.45 193.39
  C 88.63 202.64 98.84 197.60 98.26 203.19
  A 0.79 0.78 -6.3 0 1 97.72 203.86
  C 95.65 204.57 93.55 204.00 91.92 203.99
  Q 79.74 203.88 67.56 204.18
  A 1.13 0.94 -17.2 0 1 66.72 203.83
  Q 65.72 202.62 66.35 201.03
  A 0.93 0.85 5.0 0 1 67.06 200.49
  C 74.74 199.41 77.54 199.84 77.49 190.98
  Q 77.37 166.51 77.68 142.05
  A 0.79 0.61 -82.7 0 0 77.25 141.32
  Q 76.61 141.11 76.26 142.01
  Q 59.37 185.48 52.31 202.06
  Q 51.52 203.93 49.72 202.73
  A 1.70 1.36 -88.8 0 1 49.14 201.97
  L 26.49 141.16
  A 1.55 1.11 86.9 0 0 25.90 140.42
  C 24.57 139.67 25.19 141.59 25.19 142.02
  Q 25.30 163.13 25.24 184.25
  Q 25.23 190.12 26.50 194.25
  C 27.82 198.53 32.97 199.39 36.89 200.33
  A 0.99 0.98 -86.3 0 1 37.64 201.19
  Q 37.96 204.35 35.93 204.30
  Q 22.25 204.01 8.57 203.94
  A 0.93 0.79 -12.2 0 1 7.79 203.52
  Q 7.18 202.37 7.72 201.12
  A 1.07 0.86 1.7 0 1 8.43 200.58
  C 13.80 199.44 18.84 199.51 19.75 192.50
  Q 20.38 187.66 20.36 185.25
  Q 20.26 166.76 20.25 148.27
  C 20.25 141.55 18.93 136.64 11.78 135.63
  C 9.72 135.33 7.41 134.79 9.21 132.15
  A 0.99 0.96 16.1 0 1 10.00 131.73
  L 32.61 131.52
  A 1.48 1.41 78.6 0 1 33.96 132.47
  Q 43.75 158.02 53.31 183.00
  C 53.57 183.69 53.38 184.40 53.76 185.10
  Z"
/>
<path fill="#000000" d="
  M 137.07 198.95
  Q 138.23 200.24 138.18 198.50
  L 137.83 188.06
  A 1.23 1.07 69.0 0 1 138.15 187.19
  C 140.16 185.15 141.40 187.10 142.07 188.94
  C 144.83 196.61 153.00 203.95 161.43 200.94
  C 167.67 198.71 169.60 192.82 165.31 187.44
  C 162.71 184.17 151.92 181.55 148.44 180.06
  C 137.77 175.51 135.97 162.60 144.92 155.64
  C 150.82 151.05 160.08 151.69 166.66 154.57
  A 0.65 0.64 -64.5 0 0 167.49 154.27
  Q 169.46 150.38 172.35 153.43
  A 1.23 1.02 64.2 0 0 173.19 153.81
  L 177.62 153.72
  A 0.84 0.81 -1.1 0 0 178.44 152.90
  L 178.34 139.06
  A 1.14 1.05 0.0 0 1 179.49 138.00
  L 186.60 138.05
  A 1.16 1.01 0.3 0 1 187.75 139.06
  L 187.75 153.27
  A 0.69 0.66 -0.4 0 0 188.45 153.93
  L 201.01 153.77
  A 1.06 1.03 86.0 0 1 202.05 154.70
  Q 202.66 159.45 199.48 159.23
  Q 193.91 158.84 188.32 158.81
  A 0.51 0.51 -89.4 0 0 187.81 159.31
  Q 187.53 175.78 188.00 192.25
  C 188.21 199.72 196.04 199.23 202.19 198.38
  A 0.80 0.72 -17.5 0 1 202.96 198.73
  Q 203.63 199.91 203.14 201.22
  A 1.39 1.16 -7.8 0 1 202.50 201.92
  C 193.20 206.80 177.91 208.07 178.07 193.00
  Q 178.25 177.13 178.25 160.40
  A 1.33 1.32 6.3 0 0 177.21 159.11
  Q 172.09 158.02 172.33 160.87
  C 172.52 163.16 174.14 168.78 170.49 168.45
  A 1.87 1.87 83.9 0 1 168.87 167.14
  Q 165.24 155.39 154.30 156.53
  C 145.45 157.45 144.41 167.78 152.34 170.88
  C 161.91 174.63 180.08 178.85 174.66 193.94
  C 170.33 205.98 155.29 208.32 145.17 202.02
  A 1.37 0.94 47.3 0 0 144.25 201.81
  Q 143.36 202.02 143.05 202.95
  A 1.20 0.89 -86.9 0 1 142.48 203.64
  C 136.71 206.12 128.12 205.93 126.11 198.67
  Q 125.72 197.26 124.74 198.36
  C 115.52 208.74 94.17 208.36 96.50 190.00
  C 97.31 183.65 103.15 179.85 109.32 177.86
  C 115.00 176.02 119.25 174.50 124.19 172.69
  C 126.32 171.90 125.81 168.68 125.76 167.01
  C 125.48 157.88 117.69 152.76 109.59 157.84
  A 1.37 1.36 -22.2 0 0 108.98 159.28
  Q 109.49 161.79 109.66 163.85
  C 110.58 174.77 91.91 168.85 100.99 159.00
  C 109.59 149.68 134.11 148.33 135.19 165.31
  Q 135.46 169.60 135.05 189.59
  C 134.96 194.05 134.54 196.15 137.07 198.95
  Z
  M 109.44 198.06
  C 114.40 201.79 121.54 198.72 125.01 194.21
  A 1.58 1.48 -26.9 0 0 125.34 193.30
  L 125.58 176.93
  A 0.42 0.39 -6.4 0 0 125.07 176.55
  C 118.14 178.17 108.36 181.33 106.69 189.99
  Q 105.68 195.24 109.44 198.06
  Z"
/>
<path fill="#000000" d="
  M 241.77 192.95
  C 235.58 204.32 222.72 208.33 211.18 203.20
  C 190.32 193.92 193.78 154.65 217.96 152.44
  C 233.89 150.99 241.49 161.07 240.95 176.25
  A 1.04 1.04 -88.9 0 1 239.91 177.25
  L 208.66 177.25
  A 0.90 0.90 -89.7 0 0 207.76 178.14
  C 207.68 187.73 210.91 198.05 221.75 199.53
  C 228.95 200.52 233.69 197.79 237.31 191.92
  Q 239.06 189.08 241.68 192.11
  A 0.75 0.75 38.9 0 1 241.77 192.95
  Z
  M 230.75 171.85
  C 230.37 148.83 208.64 152.63 207.71 172.18
  A 0.78 0.78 -88.6 0 0 208.49 173.00
  L 229.62 173.00
  A 1.13 1.13 89.5 0 0 230.75 171.85
  Z"
/>
<path fill="#000000" d="
  M 442.27 177.81
  C 441.36 189.56 447.87 201.40 461.23 199.38
  Q 468.64 198.26 472.25 191.67
  Q 473.50 189.38 475.70 191.90
  A 1.38 1.37 -50.3 0 1 475.85 193.51
  C 465.72 210.39 440.81 209.36 433.94 190.31
  C 427.76 173.18 436.98 149.17 458.75 152.50
  C 471.71 154.48 476.01 164.82 475.50 176.77
  A 0.78 0.76 1.1 0 1 474.72 177.50
  L 442.82 177.31
  A 0.54 0.54 -87.2 0 0 442.27 177.81
  Z
  M 453.41 156.21
  C 445.86 157.19 442.15 165.61 442.06 172.32
  A 0.68 0.68 0.0 0 0 442.74 173.00
  L 464.39 173.00
  A 1.12 1.12 87.0 0 0 465.50 171.76
  C 464.76 164.68 463.25 154.94 453.41 156.21
  Z"
/>
<path fill="#000000" d="
  M 264.31 158.21
  Q 258.60 159.53 254.78 164.71
  A 2.73 2.71 -27.0 0 0 254.25 166.32
  L 254.25 196.26
  Q 254.25 198.05 255.82 198.88
  Q 258.52 200.32 261.75 200.38
  Q 265.26 200.45 263.68 203.50
  A 0.83 0.82 13.7 0 1 262.95 203.94
  L 238.54 204.00
  A 1.38 1.37 83.7 0 1 237.20 202.92
  C 236.57 200.09 239.73 200.66 241.12 200.26
  C 245.21 199.08 244.50 196.37 244.50 192.90
  Q 244.50 179.44 244.50 165.97
  C 244.50 161.31 243.41 158.27 238.48 157.75
  A 1.96 1.93 -13.9 0 1 237.10 156.93
  Q 235.02 153.98 238.74 153.81
  Q 244.99 153.53 252.64 153.19
  A 1.57 1.55 89.7 0 1 254.26 154.81
  L 254.09 159.10
  Q 254.00 161.52 255.56 159.65
  C 259.37 155.05 267.50 149.75 273.17 154.16
  C 277.32 157.39 276.81 168.10 269.25 166.51
  Q 263.30 165.25 265.25 159.23
  Q 265.69 157.89 264.31 158.21
  Z"
/>
<path fill="#000000" d="
  M 488.47 159.82
  Q 488.42 162.11 489.92 160.27
  C 497.50 150.95 512.35 148.31 518.73 160.51
  A 0.68 0.68 53.2 0 0 519.82 160.67
  C 523.38 157.06 527.61 153.49 532.87 152.67
  C 544.34 150.88 550.05 157.27 550.34 168.27
  C 550.55 176.69 550.90 185.51 550.37 193.90
  Q 550.03 199.38 555.32 200.35
  C 557.15 200.68 559.57 201.05 557.74 203.55
  A 1.02 0.92 16.2 0 1 556.94 203.94
  L 534.32 204.07
  A 1.06 1.06 85.6 0 1 533.27 203.17
  C 532.50 197.91 540.30 203.08 540.56 195.97
  Q 541.03 182.64 540.62 169.31
  C 540.18 155.22 526.83 155.85 520.34 164.82
  A 4.45 4.41 63.2 0 0 519.50 167.42
  Q 519.50 178.69 519.50 189.53
  C 519.50 195.52 518.59 199.67 525.24 200.56
  Q 528.15 200.95 526.70 203.51
  A 0.91 0.83 13.4 0 1 525.93 203.94
  L 503.74 204.06
  A 0.90 0.89 -4.8 0 1 502.84 203.31
  C 501.95 197.81 510.18 202.93 509.83 195.33
  C 509.44 187.04 509.77 178.56 509.71 170.25
  C 509.61 155.27 496.17 155.36 489.19 165.24
  A 3.77 3.72 63.0 0 0 488.50 167.41
  Q 488.50 178.02 488.50 188.38
  C 488.50 194.92 487.69 199.69 495.00 200.69
  A 1.36 1.15 -12.3 0 1 495.83 201.13
  Q 497.99 203.76 494.25 203.81
  Q 484.07 203.95 473.88 204.06
  C 472.83 204.07 471.02 204.58 471.60 202.52
  Q 472.06 200.85 473.77 200.58
  C 480.22 199.54 479.28 196.06 479.22 190.19
  Q 479.02 171.00 479.25 166.75
  Q 479.61 160.04 474.16 158.04
  C 472.71 157.51 470.26 157.87 470.75 155.17
  A 1.39 1.38 3.4 0 1 472.04 154.03
  L 486.85 153.12
  A 1.66 1.62 88.9 0 1 488.57 154.82
  L 488.47 159.82
  Z"
/>
<path fill="#000000" d="
  M 566.96 154.44
  C 564.49 153.91 561.38 159.63 562.43 154.05
  A 1.01 1.00 3.6 0 1 563.37 153.23
  Q 568.78 152.97 574.55 153.27
  Q 575.98 153.35 575.61 156.05
  Q 575.40 157.53 574.52 156.33
  C 573.58 155.07 569.83 152.48 570.13 156.18
  C 570.29 158.22 570.25 160.21 570.25 162.25
  Q 570.25 162.80 571.75 165.00
  C 572.73 166.43 569.89 166.05 569.23 165.89
  Q 568.72 165.76 568.25 165.86
  Q 564.09 166.69 566.85 164.55
  A 1.41 1.21 -16.9 0 0 567.35 163.77
  Q 568.22 159.43 567.52 155.06
  A 0.76 0.70 -89.2 0 0 566.96 154.44
  Z"
/>
<path fill="#000000" d="
  M 586.62 160.37
  Q 587.30 162.33 588.18 160.45
  L 591.03 154.37
  A 2.25 2.25 11.4 0 1 592.96 153.09
  Q 598.67 152.81 595.35 154.62
  A 1.80 1.78 69.6 0 0 594.46 156.58
  Q 594.96 158.82 594.45 160.88
  Q 593.80 163.43 596.78 165.66
  Q 597.50 166.20 596.60 166.12
  C 594.64 165.95 587.98 166.87 591.54 164.22
  A 1.02 1.01 -17.0 0 0 591.96 163.44
  C 591.98 163.09 593.36 153.52 590.97 157.90
  Q 589.22 161.11 587.64 164.53
  Q 586.85 166.26 586.02 164.55
  C 585.39 163.26 581.64 151.30 581.18 159.24
  Q 580.97 162.85 583.39 165.39
  Q 583.74 165.76 583.26 165.86
  Q 580.90 166.31 578.55 165.80
  Q 578.08 165.70 578.47 165.38
  C 580.99 163.31 581.16 156.42 578.78 154.25
  C 576.90 152.54 580.33 152.96 581.20 152.92
  C 584.33 152.77 585.80 158.03 586.62 160.37
  Z"
/>
</svg>
