<?xml version="1.0" encoding="UTF-8" standalone="no"?>
<!DOCTYPE svg PUBLIC "-//W3C//DTD SVG 1.1//EN" "http://www.w3.org/Graphics/SVG/1.1/DTD/svg11.dtd">
<svg xmlns="http://www.w3.org/2000/svg" version="1.1" viewBox="0 0 600 300">
<path fill="#000000" d="
  M 70.69 84.69
  Q 70.80 63.97 70.75 42.67
  A 0.67 0.66 -90.0 0 1 71.41 42.00
  L 84.97 42.05
  A 0.78 0.78 0.4 0 1 85.74 42.83
  Q 85.89 67.86 85.63 91.75
  Q 85.49 104.68 84.22 111.66
  C 77.75 147.29 50.10 174.08 14.60 180.87
  A 0.50 0.50 -5.7 0 1 14.00 180.38
  L 14.00 157.74
  A 0.85 0.84 -8.3 0 1 14.61 156.93
  C 47.29 147.56 70.51 118.93 70.69 84.69
  Z"
/>
<rect fill="#000000" x="89.00" y="42.00" width="21.34" height="139.00" rx="0.65"/>
<path fill="#000000" d="
  M 184.94 156.97
  A 0.77 0.77 8.0 0 1 185.50 157.71
  L 185.50 180.20
  A 0.65 0.65 -84.2 0 1 184.72 180.84
  C 149.65 173.96 122.05 147.77 115.35 112.40
  Q 114.01 105.33 113.87 92.50
  Q 113.61 68.24 113.76 42.85
  A 0.79 0.79 -89.5 0 1 114.55 42.06
  L 128.26 42.00
  A 0.55 0.55 -89.5 0 1 128.81 42.56
  C 128.72 58.00 127.93 76.63 128.98 89.49
  C 131.63 121.98 153.60 148.16 184.94 156.97
  Z"
/>
<path fill="#000000" d="
  M 282.94 148.80
  Q 267.77 148.56 252.61 148.67
  C 251.12 148.69 248.64 148.29 246.66 148.80
  A 0.90 0.88 -89.2 0 0 246.04 149.42
  L 237.50 180.26
  A 0.68 0.67 -83.9 0 1 236.89 180.76
  Q 225.10 181.33 213.59 180.83
  A 0.61 0.61 -81.3 0 1 213.03 180.06
  Q 229.53 119.91 245.94 60.53
  Q 247.73 54.05 249.96 51.15
  C 258.41 40.19 276.21 43.55 280.19 56.81
  Q 298.65 118.30 317.42 180.33
  A 0.47 0.47 -9.2 0 1 316.98 180.94
  L 294.34 180.99
  A 1.47 1.43 81.0 0 1 292.95 179.95
  L 283.59 149.29
  A 0.70 0.69 81.8 0 0 282.94 148.80
  Z
  M 252.16 126.81
  A 0.30 0.30 -82.7 0 0 252.45 127.19
  L 276.52 126.81
  A 0.30 0.30 -8.8 0 0 276.80 126.42
  L 264.11 84.91
  A 0.30 0.30 -47.8 0 0 263.54 84.92
  L 252.16 126.81
  Z"
/>
<path fill="#000000" d="
  M 397.21 148.54
  Q 395.46 148.53 395.00 150.19
  Q 391.56 162.82 387.78 176.47
  C 387.12 178.88 387.44 181.36 383.96 181.13
  C 377.07 180.67 369.90 181.02 362.74 180.80
  A 0.41 0.41 8.9 0 1 362.36 180.28
  Q 377.98 122.98 393.73 66.24
  Q 396.69 55.55 396.81 55.28
  C 403.58 40.05 424.95 41.33 429.79 57.49
  Q 448.08 118.62 466.76 180.35
  A 0.49 0.49 81.2 0 1 466.30 180.99
  L 443.31 180.71
  A 0.73 0.70 81.2 0 1 442.65 180.21
  L 433.19 149.53
  A 1.13 1.11 81.0 0 0 432.13 148.74
  L 397.21 148.54
  Z
  M 412.66 85.30
  L 401.55 126.06
  A 0.75 0.74 -82.5 0 0 402.26 127.00
  L 425.38 127.00
  A 0.68 0.68 -8.3 0 0 426.03 126.13
  L 413.61 85.28
  Q 413.11 83.64 412.66 85.30
  Z"
/>
<path fill="#000000" d="
  M 351.31 69.32
  L 351.01 180.09
  A 0.91 0.89 -89.4 0 1 350.11 180.99
  L 328.43 180.94
  A 0.69 0.68 90.0 0 1 327.75 180.25
  L 327.75 69.60
  A 0.85 0.85 -0.2 0 0 326.90 68.75
  L 299.68 68.75
  A 0.93 0.93 0.0 0 1 298.75 67.82
  L 298.75 46.19
  A 0.69 0.69 0.0 0 1 299.44 45.50
  L 378.74 45.50
  A 1.26 1.26 -88.2 0 1 380.00 46.76
  L 380.00 68.08
  A 0.67 0.67 -0.4 0 1 379.33 68.75
  L 351.80 68.81
  A 0.51 0.49 90.0 0 0 351.31 69.32
  Z"
/>
<path fill="#000000" d="
  M 474.35 61.78
  C 479.23 42.35 495.95 45.55 512.00 45.43
  C 557.40 45.09 569.82 107.19 527.83 124.98
  Q 524.64 126.34 526.44 129.31
  L 557.33 180.21
  Q 557.81 181.00 556.88 181.00
  L 533.73 181.00
  A 0.93 0.92 -15.6 0 1 532.94 180.56
  Q 520.34 159.81 508.18 139.49
  C 503.43 131.55 499.60 126.39 502.68 118.06
  Q 505.74 109.78 514.27 107.23
  Q 519.68 105.61 520.54 105.15
  C 533.95 97.95 534.26 79.03 521.45 71.14
  C 514.90 67.10 505.81 67.60 498.13 68.09
  A 1.17 1.16 89.0 0 0 497.03 69.24
  Q 496.61 88.77 496.84 107.51
  C 497.12 131.54 496.64 155.56 496.94 179.57
  A 0.68 0.67 -0.4 0 1 496.26 180.25
  L 474.44 180.25
  A 0.88 0.88 -89.7 0 1 473.56 179.36
  L 473.75 66.66
  Q 473.76 64.15 474.35 61.78
  Z"
/>
<rect fill="#000000" x="564.50" y="45.50" width="23.26" height="135.50" rx="0.48"/>
<path fill="#000000" d="
  M 594.89 224.88
  A 32.10 32.10 0.0 0 1 562.79 256.98
  L 38.21 256.98
  A 32.10 32.10 0.0 0 1 6.11 224.88
  L 6.11 224.12
  A 32.10 32.10 0.0 0 1 38.21 192.02
  L 562.79 192.02
  A 32.10 32.10 0.0 0 1 594.89 224.12
  L 594.89 224.88
  Z
  M 62.80 240.45
  A 2.48 2.47 -75.9 0 1 61.50 238.27
  Q 61.50 226.34 61.50 215.48
  C 61.50 211.88 61.07 209.54 64.82 208.58
  Q 68.89 207.54 72.85 208.44
  C 77.10 209.42 77.01 211.48 76.98 215.27
  A 1.62 1.50 -90.0 0 0 78.49 216.90
  L 90.56 216.85
  A 0.61 0.58 -86.5 0 0 91.13 216.32
  Q 92.52 205.13 81.50 202.50
  C 72.88 200.45 57.98 199.67 50.56 204.81
  Q 46.25 207.80 46.25 211.75
  Q 46.25 224.00 46.03 236.25
  C 45.78 250.99 70.29 249.62 78.70 248.24
  C 88.19 246.68 92.35 241.41 91.04 231.71
  A 1.06 1.03 86.0 0 0 90.00 230.78
  L 77.69 230.91
  A 0.56 0.53 -88.3 0 0 77.16 231.44
  L 76.77 238.45
  A 2.49 2.46 -11.1 0 1 75.33 240.56
  Q 68.68 243.64 62.80 240.45
  Z
  M 160.46 242.31
  Q 160.61 241.80 160.33 241.36
  A 1.10 0.74 -10.9 0 0 159.49 241.00
  L 136.27 241.00
  A 0.77 0.77 0.0 0 1 135.50 240.23
  L 135.56 201.45
  A 0.45 0.45 0.0 0 0 135.11 201.00
  L 121.15 201.00
  A 0.65 0.65 0.0 0 0 120.50 201.65
  L 120.44 247.55
  A 0.45 0.45 -0.2 0 0 120.89 248.00
  L 159.65 248.00
  A 0.71 0.71 -83.9 0 0 160.34 247.44
  Q 160.78 245.38 160.36 243.24
  Q 160.29 242.88 160.46 242.31
  Z
  M 216.59 239.79
  L 218.73 247.33
  A 0.94 0.93 82.2 0 0 219.63 248.02
  L 232.97 248.16
  A 1.01 0.99 -8.2 0 0 233.96 246.87
  L 219.25 201.74
  A 1.09 1.09 80.7 0 0 218.22 201.00
  L 197.57 201.00
  A 1.13 1.13 8.8 0 0 196.49 201.79
  L 181.70 247.14
  A 0.66 0.65 -80.9 0 0 182.32 248.00
  L 194.59 248.00
  A 1.22 1.16 -81.8 0 0 195.72 247.11
  L 197.79 239.83
  A 1.09 1.09 -81.6 0 1 198.85 239.04
  L 215.93 239.28
  A 0.70 0.70 -7.3 0 1 216.59 239.79
  Z
  M 258.44 207.19
  C 250.27 218.20 268.14 225.14 275.08 228.37
  C 278.56 229.99 285.92 232.90 285.99 237.63
  C 286.07 243.12 268.89 244.85 270.59 235.48
  A 1.23 1.18 -84.8 0 0 269.43 234.03
  L 256.68 234.16
  A 0.57 0.55 -88.3 0 0 256.14 234.69
  C 254.56 251.65 281.08 250.06 291.25 247.51
  C 298.78 245.61 304.30 239.08 299.21 232.10
  C 292.82 223.35 277.08 222.79 272.34 214.79
  C 267.54 206.68 288.23 204.96 286.55 213.88
  A 0.95 0.95 5.3 0 0 287.49 215.00
  L 300.30 215.07
  A 0.65 0.64 2.8 0 0 300.96 214.48
  C 302.39 197.14 265.27 197.97 258.44 207.19
  Z
  M 325.91 210.55
  C 321.88 224.44 350.53 226.98 354.56 235.69
  C 358.05 243.23 337.87 245.46 339.59 235.45
  A 1.20 1.16 -85.3 0 0 338.44 234.04
  L 325.68 234.16
  A 0.59 0.56 -87.7 0 0 325.13 234.69
  C 323.54 251.62 350.13 250.07 360.27 247.57
  C 373.83 244.23 372.36 231.48 361.19 226.31
  C 355.16 223.52 344.63 219.64 341.60 215.18
  C 336.89 208.28 348.49 207.25 352.25 208.50
  Q 355.67 209.63 355.77 214.18
  A 0.82 0.79 88.9 0 0 356.57 214.98
  L 369.31 214.84
  A 0.59 0.57 -87.7 0 0 369.87 214.31
  C 370.95 202.82 356.98 201.11 348.86 201.00
  C 341.41 200.90 328.61 201.22 325.91 210.55
  Z
  M 411.51 201.43
  A 0.42 0.42 0.0 0 0 411.09 201.01
  L 396.91 201.01
  A 0.42 0.42 0.0 0 0 396.49 201.43
  L 396.49 247.57
  A 0.42 0.42 0.0 0 0 396.91 247.99
  L 411.09 247.99
  A 0.42 0.42 0.0 0 0 411.51 247.57
  L 411.51 201.43
  Z
  M 456.27 240.76
  Q 454.58 239.75 454.58 237.90
  L 454.47 212.36
  Q 454.46 209.67 457.17 208.85
  C 461.15 207.63 469.84 206.91 469.93 213.00
  Q 469.95 214.72 470.04 216.45
  A 0.52 0.52 88.9 0 0 470.56 216.95
  L 483.44 216.95
  A 0.64 0.62 -83.6 0 0 484.05 216.45
  C 487.17 202.23 469.92 200.83 460.78 200.99
  C 451.36 201.15 439.25 202.23 439.25 214.63
  C 439.25 220.74 437.51 238.76 441.55 243.38
  C 448.05 250.80 469.97 250.02 477.47 246.55
  Q 485.57 242.80 484.13 231.43
  A 0.60 0.57 86.5 0 0 483.57 230.91
  L 470.84 230.78
  A 0.96 0.93 87.7 0 0 469.91 231.82
  C 470.14 234.77 470.68 238.79 468.06 240.65
  C 465.23 242.65 458.58 242.13 456.27 240.76
  Z
  M 522.97 201.82
  C 511.65 203.77 506.36 215.69 518.31 222.44
  Q 524.40 225.88 534.15 230.39
  C 546.58 236.16 539.85 244.26 529.42 241.51
  C 526.00 240.61 524.97 238.96 525.60 235.47
  A 1.22 1.18 -84.9 0 0 524.44 234.03
  L 511.68 234.16
  A 0.59 0.56 -87.7 0 0 511.13 234.69
  Q 510.26 243.94 518.50 246.75
  C 527.16 249.71 545.21 250.84 552.94 244.27
  C 558.16 239.82 556.46 233.40 551.60 229.35
  C 546.62 225.19 540.82 223.41 533.69 219.81
  C 513.70 209.74 541.89 201.73 541.74 214.18
  A 0.79 0.76 -90.0 0 0 542.51 214.98
  L 555.31 214.84
  A 0.59 0.57 -87.7 0 0 555.87 214.31
  C 557.31 198.99 531.76 200.29 522.97 201.82
  Z"
/>
<path fill="#000000" d="
  M 200.09 232.52
  L 206.79 210.52
  A 0.37 0.37 44.3 0 1 207.49 210.52
  L 214.19 232.52
  A 0.37 0.37 -7.8 0 1 213.84 233.00
  L 200.44 233.00
  A 0.37 0.37 8.4 0 1 200.09 232.52
  Z"
/>
</svg>
