<?xml version="1.0" encoding="UTF-8" standalone="no"?>
<!DOCTYPE svg PUBLIC "-//W3C//DTD SVG 1.1//EN" "http://www.w3.org/Graphics/SVG/1.1/DTD/svg11.dtd">
<svg xmlns="http://www.w3.org/2000/svg" version="1.1" viewBox="0 0 600 300">
<g stroke-width="2.00" fill="none" stroke-linecap="butt">
<path stroke="#000000" vector-effect="non-scaling-stroke" d="
  M 209.21 180.50
  L 209.29 180.00"
/>
<path stroke="#000000" vector-effect="non-scaling-stroke" d="
  M 341.29 164.75
  Q 341.25 164.63 341.19 164.57"
/>
<path stroke="#000000" vector-effect="non-scaling-stroke" d="
  M 341.00 98.29
  L 341.25 98.21"
/>
<path stroke="#000000" vector-effect="non-scaling-stroke" d="
  M 341.50 78.21
  L 341.21 77.75"
/>
<path stroke="#000000" vector-effect="non-scaling-stroke" d="
  M 260.00 82.71
  Q 259.78 82.75 259.75 82.96"
/>
<path stroke="#000000" vector-effect="non-scaling-stroke" d="
  M 209.25 79.04
  L 209.00 78.96"
/>
</g>
<path fill="#000000" d="
  M 392.00 85.50
  Q 367.29 103.49 368.79 132.58
  C 369.71 150.44 376.62 163.68 391.57 173.83
  Q 392.00 174.12 392.00 173.61
  L 392.00 85.50
  C 411.46 74.49 435.99 73.70 454.65 86.42
  C 477.55 102.04 482.45 135.62 467.95 158.63
  C 452.44 183.23 417.50 188.07 393.04 174.79
  A 0.91 0.88 -76.5 0 0 391.74 175.62
  L 391.83 191.44
  A 0.56 0.53 -90.0 0 0 392.36 192.00
  Q 456.56 192.00 520.42 192.00
  Q 529.59 192.00 533.91 193.43
  C 556.42 200.88 554.71 234.48 530.88 239.44
  Q 528.16 240.00 515.58 240.00
  Q 454.38 240.00 392.67 240.00
  A 0.66 0.65 1.4 0 0 392.01 240.62
  C 391.40 251.42 399.15 257.56 409.00 259.76
  Q 424.57 263.25 441.59 264.32
  A 0.97 0.97 1.9 0 1 442.50 265.29
  L 442.50 276.01
  A 0.99 0.99 0.0 0 1 441.51 277.00
  L 159.63 277.00
  A 0.88 0.88 0.0 0 1 158.75 276.12
  L 158.75 264.98
  A 0.74 0.74 -1.2 0 1 159.46 264.24
  Q 175.55 263.66 191.75 261.75
  Q 195.18 261.35 199.44 259.18
  C 207.18 255.23 209.87 250.02 209.13 241.06
  A 1.15 1.15 -2.1 0 0 207.98 240.00
  Q 145.68 240.00 84.45 240.00
  Q 70.35 240.00 65.71 238.45
  C 43.42 231.02 45.54 197.34 69.36 192.50
  Q 71.84 192.00 86.68 192.00
  Q 147.69 192.00 208.38 192.00
  A 0.87 0.86 -0.0 0 0 209.25 191.14
  L 209.21 180.50
  L 209.29 180.00
  Q 215.77 179.98 222.25 180.00
  C 227.99 180.01 228.76 177.82 227.84 172.48
  Q 227.78 172.10 227.93 171.53
  C 228.27 170.29 227.26 170.10 226.24 170.10
  C 223.18 170.11 222.55 168.12 222.41 165.37
  Q 222.13 159.83 222.27 153.56
  A 1.56 1.55 83.6 0 1 223.44 152.09
  C 236.00 148.92 249.30 144.43 260.00 137.00
  L 259.93 191.32
  A 0.68 0.68 0.0 0 0 260.61 192.00
  L 340.30 192.00
  A 0.91 0.85 -0.6 0 0 341.21 191.13
  L 341.00 181.75
  Q 351.71 181.37 362.32 179.88
  A 0.59 0.59 -2.9 0 0 362.83 179.32
  Q 363.10 171.15 363.03 162.97
  C 362.99 158.98 363.42 155.66 358.49 155.85
  Q 355.65 155.95 353.19 156.05
  A 0.86 0.85 3.7 0 0 352.38 156.75
  C 351.37 162.50 346.39 164.55 341.29 164.75
  Q 341.25 164.63 341.19 164.57
  L 341.00 98.29
  L 341.25 98.21
  Q 345.84 102.15 342.48 107.71
  A 1.18 1.17 -56.8 0 0 342.80 109.28
  L 349.43 114.03
  A 1.00 0.99 -50.0 0 0 350.72 113.91
  L 368.21 96.18
  Q 370.74 93.61 367.94 91.32
  Q 356.24 81.72 341.50 78.21
  L 341.21 77.75
  Q 341.54 68.73 341.05 59.73
  C 340.65 52.50 338.69 47.60 331.94 45.06
  C 323.04 41.72 313.96 40.07 304.27 38.39
  C 294.87 36.76 282.53 39.13 273.75 41.65
  C 265.54 44.01 260.00 48.50 260.00 57.25
  Q 260.00 69.98 260.00 82.71
  Q 259.78 82.75 259.75 82.96
  Q 251.57 79.15 242.50 79.24
  Q 225.87 79.40 209.25 79.04
  L 209.00 78.96
  Q 209.62 69.44 209.09 59.95
  C 208.39 47.61 202.68 45.47 192.14 42.56
  Q 176.18 38.15 159.77 36.95
  A 1.05 0.98 2.7 0 1 158.79 35.95
  L 159.01 24.56
  A 0.55 0.51 0.5 0 1 159.56 24.06
  L 441.71 24.00
  A 0.74 0.70 0.4 0 1 442.45 24.71
  L 442.38 35.49
  A 1.57 1.48 -0.8 0 1 440.86 36.96
  Q 425.47 37.47 411.13 40.32
  C 399.58 42.60 392.01 46.10 391.99 58.75
  Q 391.96 72.13 392.00 85.50
  Z
  M 429.81 93.70
  C 402.09 87.91 390.57 113.20 393.18 136.39
  C 395.27 154.98 411.42 169.59 430.75 164.00
  Q 444.08 160.14 449.19 146.44
  C 455.66 129.07 452.95 98.54 429.81 93.70
  Z
  M 167.82 217.82
  C 171.35 217.86 175.75 217.67 178.33 215.27
  C 181.01 212.78 180.80 208.59 177.75 206.60
  C 174.36 204.40 167.15 204.85 163.03 205.06
  A 1.08 1.06 -2.0 0 0 162.01 206.13
  L 162.06 225.18
  A 0.77 0.68 -81.6 0 0 162.52 225.89
  C 168.91 228.13 166.61 221.58 167.22 218.30
  A 0.61 0.59 5.1 0 1 167.82 217.82
  Z
  M 194.29 222.68
  L 193.93 205.82
  A 0.70 0.62 -84.1 0 0 193.46 205.17
  Q 191.50 204.67 189.54 205.18
  A 0.65 0.63 83.2 0 0 189.06 205.81
  L 189.00 225.13
  A 0.87 0.87 0.0 0 0 189.87 226.00
  Q 196.20 226.00 201.96 226.00
  C 203.69 226.00 205.04 226.48 204.45 223.77
  A 0.69 0.67 -5.2 0 0 203.79 223.24
  L 194.80 223.20
  A 0.53 0.51 89.4 0 1 194.29 222.68
  Z
  M 225.47 221.22
  L 227.95 225.37
  A 1.05 0.64 66.9 0 0 228.69 225.90
  L 232.76 225.85
  A 0.38 0.34 74.8 0 0 233.03 225.30
  L 222.81 205.64
  A 1.10 1.03 81.0 0 0 222.08 205.07
  Q 220.54 204.77 219.04 205.17
  A 1.14 1.12 -83.6 0 0 218.33 205.75
  L 208.22 225.30
  A 0.39 0.34 -74.4 0 0 208.49 225.86
  L 212.32 225.91
  A 0.98 0.68 -71.7 0 0 213.04 225.37
  L 214.99 221.61
  A 1.58 1.53 -75.9 0 1 216.36 220.76
  L 224.69 220.80
  A 0.94 0.85 -14.0 0 1 225.47 221.22
  Z
  M 249.05 213.76
  C 247.63 211.38 246.09 209.08 244.82 206.63
  C 243.65 204.38 237.36 204.05 239.10 206.41
  Q 243.18 211.95 246.74 217.82
  Q 246.97 218.20 246.98 218.75
  L 247.15 225.31
  A 0.60 0.52 89.4 0 0 247.67 225.90
  L 251.32 225.90
  A 0.59 0.56 -89.5 0 0 251.88 225.32
  L 251.93 220.10
  Q 251.95 218.30 252.73 217.12
  C 255.14 213.52 257.48 209.67 260.10 206.21
  Q 261.45 204.43 258.25 205.00
  Q 255.26 205.53 254.56 206.56
  L 249.64 213.80
  A 0.36 0.34 47.3 0 1 249.05 213.76
  Z
  M 281.69 208.44
  C 276.94 216.98 295.75 215.76 293.32 221.16
  C 290.59 227.23 281.00 218.00 280.46 223.82
  A 0.68 0.63 13.4 0 0 280.91 224.49
  Q 286.00 226.29 291.94 225.69
  C 295.63 225.31 299.94 222.58 298.75 218.34
  C 297.82 215.01 291.77 213.79 288.90 212.63
  C 285.35 211.20 285.71 208.10 289.64 207.84
  Q 292.77 207.63 295.57 208.84
  A 1.09 1.09 -58.7 0 0 296.84 208.53
  C 298.68 206.34 298.26 206.38 295.94 205.78
  C 291.77 204.71 283.92 204.42 281.69 208.44
  Z
  M 316.06 213.76
  C 314.64 211.37 313.09 209.06 311.81 206.61
  C 310.65 204.39 304.35 204.05 306.12 206.40
  Q 310.26 211.90 313.69 217.88
  Q 313.92 218.27 313.93 218.80
  L 314.15 225.31
  A 0.64 0.63 4.0 0 0 314.68 225.91
  Q 316.59 226.26 318.46 225.81
  A 0.63 0.61 83.2 0 0 318.93 225.19
  C 318.86 221.81 318.43 218.82 320.53 215.87
  Q 324.07 210.89 327.24 205.67
  A 0.35 0.35 -68.0 0 0 327.02 205.14
  Q 324.90 204.70 322.80 205.19
  A 1.39 0.89 -70.5 0 0 322.07 205.76
  L 316.63 213.80
  A 0.35 0.33 47.3 0 1 316.06 213.76
  Z
  M 333.69 208.44
  C 330.62 213.66 338.21 216.11 342.50 217.45
  C 345.78 218.47 347.21 221.89 342.95 222.89
  Q 339.67 223.67 336.52 222.33
  C 334.59 221.52 332.72 220.96 332.46 223.82
  A 0.68 0.63 13.4 0 0 332.91 224.49
  Q 338.00 226.29 343.94 225.69
  C 347.63 225.31 351.94 222.58 350.75 218.34
  C 349.82 215.01 343.77 213.79 340.90 212.63
  C 337.35 211.20 337.71 208.10 341.64 207.84
  Q 344.77 207.63 347.57 208.84
  A 1.09 1.09 -58.7 0 0 348.84 208.53
  C 350.68 206.34 350.25 206.36 347.93 205.78
  C 343.82 204.77 336.10 204.31 333.69 208.44
  Z
  M 370.82 207.78
  L 375.69 207.88
  A 1.49 0.71 11.6 0 0 376.59 207.66
  Q 377.53 206.91 377.51 205.86
  A 0.88 0.88 89.3 0 0 376.63 205.00
  Q 368.30 205.00 360.56 205.00
  C 358.99 205.00 357.45 204.50 358.01 207.04
  A 1.04 0.95 -5.2 0 0 359.00 207.79
  L 364.31 207.88
  A 0.57 0.53 89.4 0 1 364.83 208.43
  Q 365.34 220.74 365.00 223.50
  C 364.59 226.78 367.96 226.70 369.59 225.78
  A 0.98 0.75 79.5 0 0 369.99 225.00
  L 370.28 208.32
  A 0.55 0.52 -88.4 0 1 370.82 207.78
  Z
  M 389.22 222.69
  L 389.12 216.68
  A 0.59 0.52 -1.6 0 1 389.69 216.15
  L 397.19 215.93
  A 1.28 0.90 13.6 0 0 398.05 215.59
  Q 398.73 214.82 398.56 213.79
  A 0.64 0.58 -4.2 0 0 397.94 213.30
  L 389.93 213.25
  A 0.81 0.70 0.7 0 1 389.12 212.53
  L 389.19 208.30
  A 0.62 0.50 0.5 0 1 389.81 207.81
  L 399.94 207.69
  A 0.78 0.69 9.1 0 0 400.65 207.24
  Q 400.99 206.37 400.66 205.51
  A 0.80 0.73 -9.3 0 0 399.95 205.05
  L 384.80 205.00
  A 0.80 0.80 0.0 0 0 384.00 205.80
  L 384.00 225.15
  A 0.85 0.84 89.7 0 0 384.85 226.00
  L 400.68 225.94
  A 0.80 0.69 8.9 0 0 401.40 225.49
  Q 401.74 224.62 401.41 223.76
  A 0.80 0.71 -9.7 0 0 400.69 223.31
  L 389.81 223.19
  A 0.59 0.51 -0.5 0 1 389.22 222.69
  Z
  M 423.37 220.33
  L 415.01 205.68
  A 1.08 0.72 70.0 0 0 414.26 205.13
  L 411.44 205.04
  A 0.67 0.58 -86.6 0 0 410.83 205.66
  L 409.34 225.18
  A 0.64 0.62 -80.0 0 0 409.79 225.84
  Q 411.50 226.32 413.21 225.84
  A 0.72 0.71 -6.7 0 0 413.74 225.18
  L 414.24 213.74
  Q 414.28 212.84 414.73 213.61
  Q 418.21 219.62 421.56 224.94
  Q 422.68 226.70 424.67 226.16
  C 427.25 225.46 431.52 216.80 432.82 214.30
  Q 433.60 212.81 433.69 214.51
  L 434.26 225.19
  A 0.73 0.72 6.3 0 0 434.79 225.84
  Q 436.50 226.32 438.21 225.84
  A 0.63 0.62 79.8 0 0 438.66 225.19
  L 437.23 205.82
  A 0.76 0.73 -84.6 0 0 436.70 205.15
  Q 435.23 204.73 433.73 205.11
  A 1.25 1.11 -80.1 0 0 433.00 205.69
  L 424.56 220.35
  Q 423.97 221.38 423.37 220.33
  Z
  M 259.98 240.83
  C 259.30 253.20 268.84 257.82 279.50 260.25
  Q 302.89 265.58 324.24 261.47
  C 335.16 259.37 343.15 252.57 341.03 240.55
  A 0.61 0.60 -5.1 0 0 340.43 240.06
  L 260.85 240.00
  A 0.88 0.87 -88.3 0 0 259.98 240.83
  Z"
/>
<path fill="#000000" d="
  M 96.11 157.21
  A 2.74 2.72 -69.0 0 1 97.00 159.23
  L 97.00 179.26
  A 0.69 0.68 86.2 0 1 96.41 179.94
  C 77.53 182.47 56.00 183.93 38.31 175.78
  C 20.30 167.48 9.83 152.13 8.50 132.00
  C 5.97 93.68 35.63 73.11 71.48 77.87
  Q 89.46 80.26 102.94 92.31
  Q 104.50 93.71 103.00 95.25
  L 84.80 113.83
  A 1.28 1.25 40.5 0 1 83.15 113.94
  L 76.77 109.23
  A 1.08 1.08 35.0 0 1 76.51 107.77
  C 83.23 97.60 66.94 93.87 60.50 94.00
  C 42.52 94.37 33.73 105.88 32.37 122.74
  C 30.21 149.63 50.36 167.98 77.00 164.50
  Q 84.83 163.48 86.57 156.68
  A 0.75 0.69 -85.0 0 1 87.18 156.13
  C 89.77 155.85 94.03 155.31 96.11 157.21
  Z"
/>
<path fill="#000000" d="
  M 341.21 77.75
  L 341.50 78.21
  C 340.45 78.64 341.15 96.00 341.25 98.21
  L 341.00 98.29
  Q 335.69 94.22 327.75 94.00
  C 302.28 93.30 294.76 116.95 299.74 137.72
  C 304.24 156.49 322.35 166.99 341.19 164.57
  Q 341.25 164.63 341.29 164.75
  L 341.00 181.75
  C 307.22 183.46 276.24 168.29 274.50 130.50
  C 272.70 91.61 304.96 71.77 340.31 78.19
  Q 340.78 78.27 341.21 77.75
  Z"
/>
<path fill="#000000" d="
  M 209.00 78.96
  L 209.25 79.04
  Q 209.00 79.52 209.00 80.75
  Q 209.00 129.00 209.00 177.25
  Q 209.00 179.23 209.29 180.00
  L 209.21 180.50
  C 208.57 179.58 172.30 180.00 168.24 180.00
  C 163.11 180.00 164.22 173.73 164.67 170.75
  A 0.58 0.56 4.5 0 1 165.25 170.27
  Q 170.50 170.42 168.71 166.19
  C 165.82 159.39 163.49 152.33 160.69 145.47
  A 0.75 0.73 78.6 0 0 160.01 145.00
  L 131.36 145.00
  A 1.08 1.07 10.1 0 0 130.35 145.70
  Q 127.27 154.01 124.19 162.19
  Q 122.86 165.71 122.61 167.93
  A 1.11 1.01 -66.0 0 0 122.90 168.81
  Q 124.30 170.19 126.89 170.19
  A 0.61 0.60 -0.0 0 1 127.50 170.79
  C 127.50 174.42 128.96 180.16 123.50 180.11
  Q 112.50 180.00 101.48 180.00
  Q 98.25 180.00 98.25 176.77
  L 98.25 171.10
  A 0.68 0.67 -8.0 0 1 98.75 170.45
  Q 102.84 169.35 104.10 166.08
  Q 120.76 123.07 137.41 79.58
  A 0.81 0.79 -79.1 0 1 138.15 79.06
  L 158.96 79.00
  A 1.05 1.04 79.3 0 1 159.93 79.67
  Q 176.27 122.70 192.19 164.74
  C 193.10 167.16 196.01 171.84 198.51 169.18
  Q 199.25 168.40 199.27 166.61
  Q 199.67 131.28 199.51 95.94
  C 199.49 91.97 200.04 88.57 195.07 88.89
  A 0.68 0.63 -11.3 0 1 194.39 88.47
  C 193.17 84.90 192.94 78.91 198.00 78.97
  Q 203.50 79.03 209.00 78.96
  Z
  M 136.70 127.57
  A 0.39 0.39 -79.9 0 0 137.06 128.09
  L 154.14 128.07
  A 0.39 0.39 -10.3 0 0 154.51 127.54
  L 145.93 104.50
  A 0.39 0.39 -48.5 0 0 145.20 104.50
  L 136.70 127.57
  Z"
/>
<path fill="#000000" d="
  M 490.44 89.48
  Q 485.53 88.56 486.25 82.75
  Q 486.68 79.25 489.75 79.20
  Q 502.84 78.95 515.67 79.06
  A 0.98 0.95 -8.3 0 1 516.58 79.72
  L 530.53 123.10
  Q 531.14 125.00 531.86 123.13
  L 548.38 79.79
  A 1.25 1.22 10.2 0 1 549.54 79.00
  Q 562.13 79.00 574.25 79.00
  C 579.96 79.00 578.56 84.29 578.45 87.93
  A 0.83 0.77 79.5 0 1 577.99 88.66
  Q 576.75 89.20 575.31 89.06
  Q 573.19 88.86 573.75 92.75
  Q 578.51 126.03 583.65 159.25
  C 584.34 163.72 583.55 170.07 589.86 170.20
  A 0.66 0.65 -89.6 0 1 590.50 170.86
  L 590.50 177.02
  Q 590.50 180.00 587.52 180.00
  Q 574.50 180.00 561.50 179.87
  C 556.68 179.82 557.90 174.37 558.03 171.25
  A 1.23 1.23 -89.3 0 1 559.24 170.07
  Q 563.93 169.98 563.23 165.46
  Q 559.39 140.56 555.28 115.69
  C 555.28 115.69 555.02 108.58 553.95 111.35
  Q 545.18 134.11 536.18 157.15
  A 1.29 1.20 -77.8 0 1 535.01 157.97
  L 521.07 157.73
  A 0.75 0.71 80.6 0 1 520.40 157.22
  L 505.68 112.35
  Q 504.99 110.24 504.63 112.43
  Q 500.43 138.20 496.56 163.24
  C 496.01 166.82 494.94 170.12 499.69 170.30
  A 0.65 0.64 -4.5 0 1 500.30 170.81
  C 500.80 173.19 501.57 179.20 497.83 179.93
  Q 497.45 180.00 493.66 180.00
  Q 484.95 180.00 476.25 179.97
  C 471.17 179.95 472.50 174.81 472.50 171.39
  A 0.96 0.96 -10.0 0 1 473.13 170.49
  C 478.86 168.37 479.30 163.11 480.17 158.03
  Q 485.37 127.42 490.56 96.81
  Q 491.25 92.75 490.99 90.06
  A 0.69 0.64 3.8 0 0 490.44 89.48
  Z"
/>
<path fill="#000000" d="
  M 260.00 82.71
  Q 260.79 83.62 261.00 83.75
  C 281.14 96.42 277.82 124.15 260.00 137.00
  L 259.75 82.96
  Q 259.78 82.75 260.00 82.71
  Z"
/>
<path fill="#000000" d="
  M 222.92 94.06
  C 235.65 93.35 253.27 92.51 252.38 110.78
  C 251.70 124.69 233.89 131.97 222.85 135.96
  A 0.45 0.45 79.9 0 1 222.25 135.54
  L 222.25 94.77
  A 0.71 0.71 -1.7 0 1 222.92 94.06
  Z"
/>
<path fill="#000000" d="
  M 171.87 207.81
  C 176.16 209.39 176.24 213.96 171.61 214.84
  Q 170.00 215.15 167.97 214.91
  A 0.89 0.89 88.7 0 1 167.20 214.17
  Q 165.74 205.55 171.87 207.81
  Z"
/>
<path fill="#000000" d="
  M 217.05 217.56
  L 220.21 210.02
  A 0.31 0.31 -45.5 0 1 220.79 210.02
  L 223.92 217.58
  A 0.31 0.31 -30.3 0 1 223.63 218.01
  L 217.34 217.99
  A 0.31 0.31 -78.8 0 1 217.05 217.56
  Z"
/>
</svg>
