<?xml version="1.0" encoding="UTF-8" standalone="no"?>
<!DOCTYPE svg PUBLIC "-//W3C//DTD SVG 1.1//EN" "http://www.w3.org/Graphics/SVG/1.1/DTD/svg11.dtd">
<svg xmlns="http://www.w3.org/2000/svg" version="1.1" viewBox="0 0 600 300">
<path fill="#000000" d="
  M 34.51 142.18
  C 39.06 112.93 63.98 93.23 93.50 95.04
  C 119.89 96.65 139.93 116.97 144.27 142.45
  A 0.67 0.67 -5.1 0 0 144.93 143.00
  L 174.30 143.05
  A 1.69 1.68 89.3 0 1 175.97 144.69
  Q 177.42 188.85 145.44 217.19
  C 131.68 229.37 112.83 236.76 94.31 237.75
  C 52.85 239.98 16.03 213.21 5.44 172.79
  A 0.41 0.41 80.0 0 1 5.80 172.27
  Q 12.55 171.64 19.18 172.18
  A 0.84 0.83 83.3 0 1 19.92 172.77
  C 34.87 219.79 90.97 239.29 131.39 210.35
  Q 157.11 191.93 161.73 158.86
  A 0.76 0.76 4.0 0 0 160.98 158.00
  L 145.52 158.00
  A 1.25 1.24 6.0 0 0 144.30 158.98
  C 138.45 185.70 119.81 204.39 92.59 206.05
  C 63.56 207.82 39.14 187.45 34.39 158.68
  A 0.59 0.57 85.3 0 0 33.82 158.18
  L 3.45 158.01
  A 1.10 1.09 -1.9 0 1 2.35 156.99
  C -0.33 117.69 24.12 80.49 61.14 67.75
  C 109.15 51.22 160.14 79.60 173.24 127.71
  A 0.93 0.90 82.2 0 1 172.38 128.89
  L 159.31 128.74
  A 0.78 0.67 80.3 0 1 158.66 128.20
  C 151.36 104.68 132.40 86.52 109.01 79.89
  C 69.23 68.61 29.07 92.58 18.99 132.06
  Q 17.72 137.02 16.40 142.40
  A 0.34 0.34 7.9 0 0 16.71 142.81
  Q 25.32 143.36 33.94 142.72
  A 0.63 0.61 -87.7 0 0 34.51 142.18
  Z
  M 132.67 150.95
  A 42.90 42.90 0.0 0 0 89.77 108.05
  A 42.90 42.90 0.0 0 0 46.87 150.95
  A 42.90 42.90 0.0 0 0 89.77 193.85
  A 42.90 42.90 0.0 0 0 132.67 150.95
  Z"
/>
<path fill="#000000" d="
  M 467.45 145.73
  C 476.32 119.87 518.37 118.82 530.00 142.79
  C 531.72 146.33 532.00 153.99 530.39 157.64
  C 523.32 173.74 504.18 177.72 488.31 173.94
  C 477.01 171.25 462.96 158.81 467.45 145.73
  Z
  M 495.11 136.59
  C 475.98 138.93 473.83 160.20 493.75 164.25
  Q 505.52 166.65 514.91 159.65
  C 521.07 155.07 519.98 144.84 514.11 140.62
  C 508.60 136.65 501.70 135.78 495.11 136.59
  Z"
/>
<path fill="#000000" d="
  M 397.36 150.25
  C 397.79 134.27 416.71 125.93 430.25 126.08
  Q 447.42 126.27 458.24 139.27
  C 460.61 142.12 462.85 147.38 456.75 148.00
  C 448.77 148.82 448.56 145.01 443.51 141.25
  C 434.86 134.82 422.27 135.49 414.19 141.69
  C 409.20 145.51 408.45 153.79 412.36 158.68
  Q 414.63 161.52 419.97 163.66
  Q 435.72 169.95 448.07 156.82
  C 450.73 153.99 457.29 152.91 460.09 155.72
  Q 461.52 157.14 460.58 158.92
  C 456.07 167.47 449.37 172.34 439.87 174.73
  C 423.70 178.80 396.77 171.87 397.36 150.25
  Z"
/>
<path fill="#000000" d="
  M 199.79 146.38
  Q 201.92 147.24 204.75 147.16
  Q 223.96 146.56 243.17 147.17
  C 247.81 147.32 249.17 148.93 248.63 153.53
  Q 248.43 155.23 247.88 156.86
  C 244.76 166.12 237.96 171.78 228.53 174.75
  Q 210.82 180.33 193.59 171.14
  Q 188.44 168.39 185.96 163.20
  A 1.34 1.19 43.0 0 1 185.87 162.27
  C 187.31 157.54 197.41 160.14 200.69 162.06
  C 204.62 164.36 207.93 166.50 212.59 166.50
  C 216.68 166.50 220.92 167.02 224.64 165.52
  Q 230.73 163.08 234.94 157.89
  A 0.80 0.74 -39.8 0 0 235.05 157.04
  Q 234.26 155.49 232.25 155.54
  Q 210.49 156.12 188.73 156.18
  C 184.50 156.20 182.76 153.49 183.47 149.49
  C 186.95 129.95 213.23 123.28 229.89 129.08
  Q 238.12 131.95 244.19 138.56
  Q 246.24 140.80 243.25 141.50
  C 237.39 142.88 234.32 142.00 228.09 139.68
  C 219.80 136.58 205.60 136.44 199.30 144.58
  A 1.17 1.17 29.9 0 0 199.79 146.38
  Z"
/>
<path fill="#000000" d="
  M 581.94 131.19
  C 583.57 127.80 588.78 128.40 592.00 128.32
  C 597.16 128.18 599.79 130.15 599.50 135.50
  Q 598.65 151.50 599.52 167.50
  C 600.01 176.37 584.70 175.96 585.01 168.57
  Q 585.28 161.91 585.02 155.25
  A 1.03 0.76 -80.7 0 0 584.61 154.45
  Q 583.69 153.94 583.06 155.31
  Q 577.52 167.47 575.19 170.94
  C 573.23 173.85 568.51 173.96 565.47 173.59
  C 562.22 173.20 561.08 171.37 559.79 168.35
  C 558.79 166.01 552.90 151.87 551.34 153.14
  A 1.33 0.91 79.4 0 0 550.96 154.00
  Q 550.48 159.87 551.25 167.00
  C 552.00 173.92 546.21 174.34 541.40 173.46
  C 536.64 172.59 537.45 168.29 537.58 163.84
  Q 538.24 141.98 537.50 135.75
  C 536.51 127.39 543.33 128.65 548.84 128.73
  C 553.04 128.79 555.13 129.77 556.69 133.56
  Q 561.55 145.40 567.33 156.26
  Q 568.69 158.80 569.93 156.20
  Q 575.93 143.68 581.94 131.19
  Z"
/>
<path fill="#000000" d="
  M 269.60 145.13
  Q 270.31 146.99 272.30 146.94
  Q 284.20 146.64 296.08 146.74
  C 298.26 146.76 300.24 146.41 301.86 148.06
  C 305.01 151.29 301.94 154.92 298.19 154.95
  C 290.09 155.01 281.75 155.32 273.67 154.93
  C 267.11 154.60 267.62 165.26 273.33 165.25
  Q 286.03 165.21 298.73 165.30
  C 304.91 165.34 304.86 172.67 300.44 173.46
  Q 300.21 173.50 296.56 173.50
  Q 278.43 173.50 260.29 173.50
  C 255.47 173.50 255.40 171.14 255.52 167.26
  Q 256.12 148.15 255.50 133.75
  C 255.30 129.06 257.92 128.49 262.01 128.51
  Q 280.00 128.58 298.00 128.73
  C 301.99 128.76 304.23 130.50 303.44 134.69
  Q 302.86 137.75 300.00 137.75
  L 272.75 137.72
  Q 270.33 137.72 269.49 139.92
  Q 268.55 142.37 269.60 145.13
  Z"
/>
<path fill="#000000" d="
  M 323.67 153.99
  C 321.01 149.13 322.22 165.50 322.25 165.75
  Q 323.15 172.63 317.81 173.46
  C 313.63 174.12 307.97 174.06 308.34 168.11
  C 308.94 158.25 308.50 148.04 308.50 138.14
  Q 308.50 132.57 308.54 132.38
  C 309.94 126.48 324.45 127.57 326.44 131.81
  Q 332.13 144.00 337.81 156.19
  Q 339.11 158.96 340.44 156.69
  C 344.93 149.01 347.85 140.78 352.08 133.03
  C 354.82 128.00 358.89 128.43 363.85 128.65
  Q 369.84 128.92 369.25 136.25
  Q 368.58 144.57 369.15 164.07
  C 369.35 171.01 370.04 173.46 362.08 173.51
  Q 360.19 173.53 358.32 173.27
  C 356.44 173.01 355.99 169.37 356.11 167.39
  Q 356.50 161.19 356.28 154.99
  C 356.24 153.85 355.16 151.99 354.28 153.97
  C 352.13 158.80 349.52 163.40 347.43 168.30
  C 345.55 172.72 343.85 173.53 339.25 173.50
  C 335.56 173.48 334.00 173.47 331.80 170.23
  C 328.51 165.40 326.77 159.62 323.67 153.99
  Z"
/>
<rect fill="#000000" x="377.19" y="128.83" width="13.42" height="44.60" rx="3.78"/>
<path fill="#000000" d="
  M 89.48 150.22
  C 96.39 131.67 120.93 134.77 123.96 154.20
  A 0.70 0.70 -4.3 0 1 123.27 155.00
  L 114.50 155.00
  A 1.14 1.13 -11.2 0 1 113.45 154.30
  Q 112.28 151.49 110.57 149.93
  C 106.06 145.83 101.04 149.50 99.14 154.43
  A 0.89 0.89 -79.4 0 1 98.31 155.00
  L 80.07 155.00
  A 1.06 1.06 -5.6 0 1 79.03 154.15
  C 77.43 146.32 67.70 146.52 65.33 154.20
  A 0.78 0.63 -79.6 0 1 64.69 154.75
  L 56.00 154.91
  A 0.85 0.79 -89.0 0 1 55.20 154.02
  C 56.01 134.30 82.63 132.54 89.14 150.22
  Q 89.31 150.67 89.48 150.22
  Z"
/>
</svg>
