<?xml version="1.0" encoding="UTF-8" standalone="no"?>
<!DOCTYPE svg PUBLIC "-//W3C//DTD SVG 1.1//EN" "http://www.w3.org/Graphics/SVG/1.1/DTD/svg11.dtd">
<svg xmlns="http://www.w3.org/2000/svg" version="1.1" viewBox="0 0 600 300">
<g stroke-width="2.00" fill="none" stroke-linecap="butt">
<path stroke="#bbda42" vector-effect="non-scaling-stroke" d="
  M 79.71 64.93
  Q 76.73 64.67 73.21 65.50"
/>
<path stroke="#d3e88a" vector-effect="non-scaling-stroke" d="
  M 73.21 65.50
  Q 69.66 64.89 67.81 66.31
  Q 66.42 67.39 68.25 67.96"
/>
<path stroke="#bbda42" vector-effect="non-scaling-stroke" d="
  M 68.25 67.96
  Q 69.11 68.37 69.20 69.19
  A 0.66 0.55 -10.7 0 1 68.69 69.81
  C 60.56 71.89 52.88 75.59 47.88 82.59
  Q 42.36 90.32 42.75 99.00
  Q 43.29 110.94 41.21 119.33"
/>
<path stroke="#a9cf3a" vector-effect="non-scaling-stroke" d="
  M 41.21 119.33
  Q 39.38 120.09 38.06 120.00
  A 0.51 0.48 -85.0 0 1 37.62 119.44
  Q 38.11 115.59 38.89 111.78
  C 40.46 104.17 38.54 96.50 41.29 89.26
  Q 43.07 84.57 45.05 79.95
  Q 45.35 79.27 44.80 79.36
  C 44.25 79.44 43.89 80.90 42.75 81.21"
/>
<path stroke="#c1df4f" vector-effect="non-scaling-stroke" d="
  M 42.75 81.21
  Q 45.09 79.26 44.48 76.17
  A 0.39 0.38 71.8 0 0 43.93 75.89
  Q 42.93 76.37 42.29 76.00"
/>
<path stroke="#88b42d" vector-effect="non-scaling-stroke" d="
  M 46.25 72.71
  Q 49.66 71.54 52.25 69.04"
/>
<path stroke="#cbe14d" vector-effect="non-scaling-stroke" d="
  M 84.75 66.21
  L 84.00 66.29"
/>
<path stroke="#c6de49" vector-effect="non-scaling-stroke" d="
  M 84.00 66.29
  Q 82.44 66.40 81.58 67.63
  A 1.27 1.04 -72.8 0 1 80.81 68.14
  C 68.33 70.10 53.52 74.66 46.99 86.67
  C 42.30 95.29 43.50 106.07 43.50 115.66
  A 2.22 2.20 73.8 0 1 42.49 117.52
  Q 41.79 117.98 42.79 118.75"
/>
<path stroke="#b1d13f" vector-effect="non-scaling-stroke" d="
  M 42.79 118.75
  L 41.21 119.33"
/>
<path stroke="#dbe98f" vector-effect="non-scaling-stroke" d="
  M 68.25 67.96
  L 72.74 67.54
  A 1.19 0.78 6.8 0 0 73.58 67.12
  Q 74.06 66.35 73.21 65.50"
/>
<path stroke="#769f27" vector-effect="non-scaling-stroke" d="
  M 74.50 114.54
  L 74.75 114.96"
/>
<path stroke="#c7e063" vector-effect="non-scaling-stroke" d="
  M 74.75 114.96
  L 64.75 116.29"
/>
<path stroke="#b6d543" vector-effect="non-scaling-stroke" d="
  M 64.75 116.29
  Q 52.11 117.35 40.02 121.17
  A 0.48 0.37 -23.7 0 0 39.69 121.78
  Q 39.86 122.03 40.25 122.00
  Q 42.99 121.80 45.04 122.57
  A 1.22 1.12 40.0 0 0 45.95 122.53
  Q 54.62 118.39 64.25 117.71"
/>
<path stroke="#c7e063" vector-effect="non-scaling-stroke" d="
  M 64.25 117.71
  Q 72.14 117.66 79.31 121.43"
/>
<path stroke="#b6d543" vector-effect="non-scaling-stroke" d="
  M 79.31 121.43
  Q 85.65 118.91 94.50 119.25
  C 111.56 119.90 116.77 140.49 102.47 150.16"
/>
<path stroke="#b1d13f" vector-effect="non-scaling-stroke" d="
  M 102.47 150.16
  L 96.46 153.00"
/>
<path stroke="#a3c838" vector-effect="non-scaling-stroke" d="
  M 96.46 153.00
  C 94.54 153.81 89.97 155.18 89.71 157.50"
/>
<path stroke="#92bb31" vector-effect="non-scaling-stroke" d="
  M 89.71 157.50
  C 86.16 158.12 85.01 161.35 81.54 162.25"
/>
<path stroke="#88b72c" vector-effect="non-scaling-stroke" d="
  M 81.54 162.25
  L 82.46 161.00"
/>
<path stroke="#769f27" vector-effect="non-scaling-stroke" d="
  M 82.46 161.00
  L 87.82 157.03
  A 1.01 0.87 -23.3 0 0 88.23 156.19
  Q 88.15 155.51 87.25 155.46"
/>
<path stroke="#accd3d" vector-effect="non-scaling-stroke" d="
  M 87.25 155.46
  L 91.29 153.75"
/>
<path stroke="#b6d543" vector-effect="non-scaling-stroke" d="
  M 91.29 153.75
  C 99.31 150.89 109.05 146.72 109.53 137.02
  Q 109.86 130.16 105.30 125.00
  C 99.03 117.91 89.45 119.60 81.15 122.03
  Q 80.65 122.18 81.07 122.48
  Q 85.34 125.56 87.23 130.54"
/>
<path stroke="#8bad32" vector-effect="non-scaling-stroke" d="
  M 87.23 130.54
  Q 86.27 130.57 86.00 130.21"
/>
<path stroke="#b3d340" vector-effect="non-scaling-stroke" d="
  M 86.00 130.21
  C 80.94 120.06 68.85 117.81 58.73 119.79
  C 57.25 120.08 53.87 119.99 54.95 122.56
  Q 55.42 123.67 56.94 124.52
  C 59.94 126.19 62.33 127.12 64.92 129.75
  Q 67.68 132.54 71.25 134.29"
/>
<path stroke="#8bad32" vector-effect="non-scaling-stroke" d="
  M 71.25 134.29
  Q 68.85 135.81 67.19 133.56
  C 63.20 128.19 58.27 126.50 52.37 123.68
  Q 49.91 122.50 47.18 123.78"
/>
<path stroke="#b6d543" vector-effect="non-scaling-stroke" d="
  M 47.18 123.78
  L 34.75 122.79"
/>
<path stroke="#99c333" vector-effect="non-scaling-stroke" d="
  M 34.75 122.79
  L 34.50 122.71"
/>
<path stroke="#84b22b" vector-effect="non-scaling-stroke" d="
  M 24.29 119.25
  L 25.71 111.00"
/>
<path stroke="#b6d64b" vector-effect="non-scaling-stroke" d="
  M 42.75 81.21
  Q 40.68 83.87 39.09 86.85
  C 37.98 88.91 35.77 90.70 35.00 93.00
  Q 32.55 100.26 30.93 106.72
  Q 30.43 108.71 28.92 110.09
  Q 27.32 111.56 25.71 111.00"
/>
<path stroke="#9cc240" vector-effect="non-scaling-stroke" d="
  M 25.71 111.00
  Q 27.23 98.21 33.31 86.78"
/>
<path stroke="#9cb84e" stroke-opacity="0.980" vector-effect="non-scaling-stroke" d="
  M 85.25 66.29
  Q 86.55 67.62 88.50 67.46"
/>
<path stroke="#e2f072" vector-effect="non-scaling-stroke" d="
  M 92.50 69.46
  Q 91.96 69.45 91.55 69.16
  Q 90.98 68.76 90.70 68.71
  C 88.90 68.39 89.37 69.63 90.22 70.22
  C 102.38 78.75 110.19 90.64 115.48 104.37
  A 3.43 3.40 2.7 0 0 117.16 106.20
  C 119.18 107.18 117.77 102.00 117.79 100.75"
/>
<path stroke="#9ec239" vector-effect="non-scaling-stroke" d="
  M 119.54 108.75
  Q 119.62 109.19 119.49 109.56
  A 0.50 0.41 23.6 0 1 118.82 109.75
  Q 117.56 109.09 115.25 108.75
  Q 96.57 106.00 80.00 112.21"
/>
<path stroke="#91af35" vector-effect="non-scaling-stroke" d="
  M 80.00 112.21
  L 74.50 114.54"
/>
<path stroke="#b9d645" vector-effect="non-scaling-stroke" d="
  M 74.50 114.54
  Q 60.75 114.32 47.58 117.75"
/>
<path stroke="#cee34f" vector-effect="non-scaling-stroke" d="
  M 84.00 66.29
  C 80.92 67.65 90.66 69.74 84.43 70.43
  C 77.63 71.18 72.04 71.27 65.73 74.33
  Q 65.63 74.38 61.11 76.28
  Q 57.70 77.71 55.13 80.78
  Q 53.77 82.41 52.24 83.89
  Q 47.60 88.40 46.08 94.25
  Q 42.99 106.16 47.58 117.75"
/>
<path stroke="#b3d340" vector-effect="non-scaling-stroke" d="
  M 47.58 117.75
  L 42.79 118.75"
/>
<path stroke="#84a62d" vector-effect="non-scaling-stroke" d="
  M 86.50 155.54
  L 87.25 155.46"
/>
<path stroke="#608f1d" vector-effect="non-scaling-stroke" d="
  M 82.46 161.00
  Q 80.43 161.33 78.75 162.54"
/>
<path stroke="#5c8b1b" vector-effect="non-scaling-stroke" d="
  M 78.75 162.54
  Q 68.06 167.49 58.75 168.75
  Q 53.96 169.40 49.19 166.77
  C 45.00 164.46 45.44 162.15 39.53 162.91
  Q 35.77 163.39 32.00 162.50
  Q 30.75 162.21 29.06 160.69
  Q 27.34 159.14 26.79 161.25"
/>
<path stroke="#6e9724" vector-effect="non-scaling-stroke" d="
  M 26.79 161.25
  Q 27.29 174.07 27.00 180.75
  C 26.83 184.64 26.03 190.21 28.30 193.21
  Q 30.52 196.15 33.51 198.49"
/>
<path stroke="#486e15" vector-effect="non-scaling-stroke" d="
  M 33.51 198.49
  Q 32.71 198.46 32.00 198.79"
/>
<path stroke="#4c681e" vector-effect="non-scaling-stroke" d="
  M 16.71 147.00
  Q 16.51 146.17 17.37 145.43"
/>
<path stroke="#b6d240" vector-effect="non-scaling-stroke" d="
  M 119.46 180.25
  L 118.98 188.94
  A 0.66 0.65 86.7 0 1 118.44 189.55
  C 114.96 190.11 115.76 184.94 111.96 186.30
  A 1.65 1.29 -41.0 0 1 111.02 186.35
  Q 104.32 184.22 97.31 184.19
  A 0.61 0.52 84.2 0 1 96.78 183.69
  Q 96.66 183.03 96.08 183.38
  A 1.63 0.79 -43.3 0 1 95.19 183.66
  C 93.45 183.54 89.02 182.52 88.14 180.78
  A 1.38 1.23 84.2 0 0 87.45 180.15
  C 85.17 179.33 84.07 175.37 82.86 173.35
  Q 82.83 173.30 80.80 170.93
  C 78.63 168.40 81.04 166.31 83.14 164.69
  C 84.09 163.95 91.02 158.90 91.19 158.49
  Q 91.86 156.87 93.56 156.43
  Q 96.79 155.59 96.46 153.00"
/>
<path stroke="#688528" vector-effect="non-scaling-stroke" d="
  M 117.04 213.00
  L 116.79 215.25"
/>
<path stroke="#9fc237" vector-effect="non-scaling-stroke" d="
  M 116.79 215.25
  Q 115.85 206.75 115.00 198.25
  Q 114.74 195.63 111.25 194.46"
/>
<path stroke="#8cb82e" vector-effect="non-scaling-stroke" d="
  M 111.25 194.46
  C 107.53 192.99 101.19 195.80 97.33 196.79
  C 94.04 197.63 87.83 200.33 89.15 205.07
  C 90.26 209.09 92.92 212.57 94.47 216.00
  C 96.23 219.90 98.43 222.76 100.07 227.30
  C 101.08 230.06 102.73 232.32 99.25 234.33
  A 0.93 0.83 -15.8 0 0 98.78 235.07
  Q 98.71 237.02 99.75 238.71"
/>
<path stroke="#435916" stroke-opacity="0.996" vector-effect="non-scaling-stroke" d="
  M 99.75 238.71
  Q 98.32 238.99 97.00 238.46"
/>
<path stroke="#85b02b" vector-effect="non-scaling-stroke" d="
  M 97.00 238.46
  Q 91.92 234.75 98.22 232.86
  Q 101.32 231.92 99.75 229.10
  C 95.82 222.05 92.73 214.29 88.63 207.00
  C 83.91 198.61 97.74 195.89 102.50 194.40
  Q 106.67 193.09 101.69 191.39
  A 1.17 1.17 -66.7 0 1 101.03 189.73
  Q 101.23 189.35 100.94 188.74
  A 1.23 0.98 -1.8 0 0 100.19 188.18
  Q 94.15 186.69 88.69 189.51"
/>
<path stroke="#77a725" vector-effect="non-scaling-stroke" d="
  M 88.69 189.51
  Q 82.91 191.97 78.57 188.38
  C 76.89 187.00 76.28 184.62 73.99 183.19
  A 1.64 1.60 -86.4 0 1 73.38 182.48
  C 72.22 179.92 69.80 179.60 68.43 178.17
  C 65.83 175.46 61.58 171.11 67.42 168.60
  Q 68.58 168.10 69.54 167.25"
/>
<path stroke="#7cac27" vector-effect="non-scaling-stroke" d="
  M 69.54 167.25
  C 71.98 166.75 73.69 165.48 76.19 164.90
  Q 79.13 164.21 81.54 162.25"
/>
<path stroke="#97bd32" vector-effect="non-scaling-stroke" d="
  M 89.71 157.50
  Q 83.53 162.64 75.28 167.17
  Q 74.43 167.64 73.77 168.35
  C 70.79 171.56 73.19 172.59 74.73 174.96
  Q 78.19 180.27 81.50 185.67
  C 83.72 189.30 89.19 188.40 92.61 187.53
  C 93.76 187.24 108.86 186.34 104.75 190.00
  Q 103.26 191.33 105.25 191.50
  C 108.97 191.82 111.72 192.97 114.64 195.20
  Q 116.92 196.94 118.00 193.50
  Q 120.24 186.39 119.46 180.25"
/>
<path stroke="#a4c639" vector-effect="non-scaling-stroke" d="
  M 119.46 180.25
  L 119.46 168.50"
/>
<path stroke="#aacb46" vector-effect="non-scaling-stroke" d="
  M 119.46 168.50
  Q 119.64 134.54 119.44 124.56
  Q 119.39 122.22 116.79 121.25"
/>
<path stroke="#8bad32" vector-effect="non-scaling-stroke" d="
  M 81.54 133.33
  Q 75.09 134.53 69.12 136.70
  A 1.43 1.43 -22.3 0 1 67.32 135.95
  C 65.06 131.03 56.92 127.18 52.00 125.79"
/>
<path stroke="#9ab64c" stroke-opacity="0.980" vector-effect="non-scaling-stroke" d="
  M 114.50 119.29
  Q 115.26 120.35 116.50 120.79"
/>
<path stroke="#aaca3d" vector-effect="non-scaling-stroke" d="
  M 116.50 120.79
  L 116.79 121.25"
/>
<path stroke="#cee558" vector-effect="non-scaling-stroke" d="
  M 116.79 121.25
  Q 117.37 122.87 115.25 122.45
  Q 114.60 122.32 115.00 122.85
  C 116.41 124.72 115.69 129.80 115.63 132.21"
/>
<path stroke="#c9df4b" vector-effect="non-scaling-stroke" d="
  M 115.63 132.21
  Q 113.67 130.90 113.68 132.94
  C 113.72 136.83 111.68 140.97 109.56 144.81
  Q 107.01 149.44 102.47 150.16"
/>
<path stroke="#a6ca3a" vector-effect="non-scaling-stroke" d="
  M 56.82 155.50
  C 60.43 156.24 63.05 155.51 67.70 154.63
  C 74.34 153.38 79.41 151.21 87.44 151.25
  C 88.29 151.25 90.87 152.00 88.39 152.88
  C 87.02 153.37 84.96 153.24 86.50 155.54"
/>
<path stroke="#719b24" vector-effect="non-scaling-stroke" d="
  M 86.50 155.54
  Q 76.46 158.92 66.30 161.92
  Q 57.58 164.49 50.19 158.31
  Q 44.85 153.85 43.25 152.04"
/>
<path stroke="#a3cc37" vector-effect="non-scaling-stroke" d="
  M 43.25 152.04
  Q 43.90 151.78 44.29 151.25"
/>
<path stroke="#7eaf28" vector-effect="non-scaling-stroke" d="
  M 44.29 151.25
  C 53.76 159.67 60.62 161.44 72.88 156.97
  A 0.81 0.81 -34.3 0 0 73.14 155.60
  Q 72.72 155.22 71.65 155.95
  Q 71.27 156.22 70.74 156.27
  Q 69.93 156.35 68.50 156.75
  Q 58.53 159.52 49.84 153.41
  Q 44.87 149.91 40.39 145.75"
/>
<path stroke="#a3cc37" vector-effect="non-scaling-stroke" d="
  M 40.39 145.75
  C 39.41 144.68 34.31 136.86 33.46 137.50"
/>
<path stroke="#83b329" vector-effect="non-scaling-stroke" d="
  M 33.46 137.50
  Q 30.12 131.80 28.39 126.28"
/>
<path stroke="#dfee70" vector-effect="non-scaling-stroke" d="
  M 83.25 115.04
  Q 84.71 117.10 82.20 117.32
  Q 80.24 117.49 78.71 119.35
  A 0.39 0.38 -62.5 0 0 78.90 119.96
  Q 80.30 120.39 79.31 121.43"
/>
<path stroke="#dfee70" vector-effect="non-scaling-stroke" d="
  M 64.25 117.71
  Q 64.12 116.85 64.75 116.29"
/>
<path stroke="#a0ba3c" vector-effect="non-scaling-stroke" d="
  M 86.00 130.21
  L 71.25 134.29"
/>
<path stroke="#c4dc49" vector-effect="non-scaling-stroke" d="
  M 91.29 153.75
  C 90.79 151.24 95.21 150.92 97.01 149.93
  A 0.82 0.70 -18.9 0 0 97.44 149.20
  C 97.11 145.91 75.41 150.12 73.05 150.69
  A 1.83 1.19 -66.4 0 0 72.26 151.21
  Q 71.31 152.29 69.75 152.09
  Q 69.21 152.02 68.77 152.16
  Q 66.55 152.85 64.25 152.57
  A 1.56 1.25 -53.0 0 0 63.34 152.80
  Q 62.40 153.40 61.25 153.32
  A 1.27 1.07 23.4 0 0 60.38 153.58
  Q 58.74 154.97 56.82 155.50"
/>
<path stroke="#b1d140" vector-effect="non-scaling-stroke" d="
  M 56.82 155.50
  Q 47.09 140.19 35.57 126.18
  Q 34.83 125.28 33.73 124.89
  A 0.40 0.35 28.1 0 1 33.51 124.32
  L 34.75 122.79"
/>
<path stroke="#a3bc3f" vector-effect="non-scaling-stroke" d="
  M 47.18 123.78
  L 52.00 125.79"
/>
<path stroke="#b6d543" vector-effect="non-scaling-stroke" d="
  M 52.00 125.79
  Q 54.74 127.77 57.58 129.59
  C 60.94 131.74 63.11 134.23 65.69 137.06
  C 67.86 139.44 71.31 137.45 73.40 136.99
  Q 77.83 136.02 81.54 133.33"
/>
<path stroke="#a3bc3f" vector-effect="non-scaling-stroke" d="
  M 81.54 133.33
  L 87.23 130.54"
/>
<path stroke="#8ead33" vector-effect="non-scaling-stroke" d="
  M 99.75 115.79
  L 83.25 115.04"
/>
<path stroke="#9fb854" vector-effect="non-scaling-stroke" d="
  M 83.25 115.04
  L 74.75 114.96"
/>
<path stroke="#7eab29" vector-effect="non-scaling-stroke" d="
  M 51.54 69.00
  Q 49.10 71.12 46.00 71.79"
/>
<path stroke="#abc26d" stroke-opacity="0.980" vector-effect="non-scaling-stroke" d="
  M 100.75 74.79
  L 103.46 77.75"
/>
<path stroke="#9da95b" vector-effect="non-scaling-stroke" d="
  M 103.46 77.75
  L 104.54 78.75"
/>
<path stroke="#abc26d" stroke-opacity="0.980" vector-effect="non-scaling-stroke" d="
  M 104.54 78.75
  L 109.00 83.79"
/>
<path stroke="#abc26d" stroke-opacity="0.980" vector-effect="non-scaling-stroke" d="
  M 109.00 83.79
  L 111.50 87.29"
/>
<path stroke="#abc26d" stroke-opacity="0.980" vector-effect="non-scaling-stroke" d="
  M 111.50 87.29
  L 115.50 94.71"
/>
<path stroke="#9cc137" vector-effect="non-scaling-stroke" d="
  M 111.70 118.20
  L 99.75 115.79"
/>
<path stroke="#5c8b1b" vector-effect="non-scaling-stroke" d="
  M 99.75 115.79
  Q 103.32 115.64 100.34 114.84
  Q 100.02 114.75 99.65 114.71
  Q 89.79 113.72 80.00 112.21"
/>
<path stroke="#6ea321" vector-effect="non-scaling-stroke" d="
  M 78.75 162.54
  L 69.54 167.25"
/>
<path stroke="#77a725" vector-effect="non-scaling-stroke" d="
  M 88.69 189.51
  C 90.54 189.89 93.29 187.57 94.30 189.54
  A 0.52 0.49 -26.0 0 1 94.04 190.22
  C 92.48 190.96 85.07 193.04 85.35 195.68
  A 0.42 0.37 -13.8 0 0 85.90 195.97
  L 96.00 192.21"
/>
<path stroke="#6d9f22" vector-effect="non-scaling-stroke" d="
  M 96.00 192.21
  Q 98.32 191.94 97.64 193.73
  A 1.13 0.93 -2.5 0 1 96.96 194.34
  L 83.90 198.71"
/>
<path stroke="#5e8f1c" vector-effect="non-scaling-stroke" d="
  M 83.90 198.71
  Q 79.23 201.51 77.92 207.09
  A 1.07 1.05 3.7 0 1 76.98 207.90
  L 69.37 208.60"
/>
<path stroke="#558119" vector-effect="non-scaling-stroke" d="
  M 69.37 208.60
  L 57.25 206.79"
/>
<path stroke="#7bab28" vector-effect="non-scaling-stroke" d="
  M 57.25 206.79
  C 59.46 207.27 58.14 204.81 57.00 204.54"
/>
<path stroke="#63971e" vector-effect="non-scaling-stroke" d="
  M 57.00 204.54
  Q 59.13 205.04 69.75 206.50
  Q 74.48 207.15 77.02 204.35
  C 78.41 202.82 79.98 200.91 80.62 198.72
  Q 80.64 198.65 81.13 197.93
  L 82.97 195.22
  Q 83.61 194.27 82.48 194.61
  L 76.11 196.52
  Q 73.89 197.18 72.26 196.01
  C 67.92 192.88 63.31 191.71 58.21 190.42
  Q 50.62 188.51 44.19 184.06
  Q 42.54 182.92 40.56 182.92
  Q 40.10 182.92 39.63 182.68
  L 32.27 178.89
  A 0.87 0.86 -48.5 0 0 31.38 178.95
  Q 30.04 179.86 29.79 181.75"
/>
<path stroke="#7bab28" vector-effect="non-scaling-stroke" d="
  M 29.79 181.75
  L 29.81 166.43
  Q 29.81 165.39 29.29 163.95
  Q 28.05 160.53 26.79 161.25"
/>
<path stroke="#8ebb2e" vector-effect="non-scaling-stroke" d="
  M 40.39 145.75
  L 44.29 151.25"
/>
<path stroke="#81a82a" vector-effect="non-scaling-stroke" d="
  M 43.25 152.04
  Q 37.42 145.87 33.51 138.14"
/>
<path stroke="#7ba028" vector-effect="non-scaling-stroke" d="
  M 26.75 156.54
  Q 19.09 153.58 17.37 145.43"
/>
<path stroke="#79912f" vector-effect="non-scaling-stroke" d="
  M 17.37 145.43
  L 17.21 143.00"
/>
<path stroke="#93c030" vector-effect="non-scaling-stroke" d="
  M 33.46 137.50
  L 33.51 138.14"
/>
<path stroke="#608f1d" vector-effect="non-scaling-stroke" d="
  M 33.51 138.14
  Q 32.52 140.42 34.08 142.20
  A 1.34 1.15 27.9 0 1 34.42 143.06
  C 34.36 147.76 37.38 149.43 38.61 153.27
  A 0.46 0.45 -14.3 0 1 38.26 153.85
  L 33.68 154.83
  A 0.71 0.56 -8.7 0 0 33.12 155.43
  C 33.18 156.31 40.21 155.67 41.25 155.64
  C 42.46 155.61 41.98 156.29 41.43 156.57
  Q 34.14 160.30 26.75 156.54"
/>
<path stroke="#8db82e" vector-effect="non-scaling-stroke" d="
  M 26.75 156.54
  C 31.06 157.08 23.98 150.99 23.82 150.78
  Q 19.31 145.09 21.53 138.14
  C 22.33 135.66 24.41 133.68 25.94 131.44
  Q 27.13 129.69 25.00 130.25
  Q 22.33 130.96 21.56 133.45
  Q 21.41 133.95 21.07 134.28
  Q 17.46 137.85 17.21 143.00"
/>
<path stroke="#5e8024" vector-effect="non-scaling-stroke" d="
  M 17.21 143.00
  Q 16.60 141.58 16.71 140.00"
/>
<path stroke="#75a427" vector-effect="non-scaling-stroke" d="
  M 29.79 181.75
  Q 28.94 190.67 35.19 195.06
  Q 43.68 201.03 57.00 204.54"
/>
<path stroke="#678e22" vector-effect="non-scaling-stroke" d="
  M 57.25 206.79
  Q 44.55 204.82 33.51 198.49"
/>
<path stroke="#c9e154" vector-effect="non-scaling-stroke" d="
  M 119.46 168.50
  Q 118.66 175.35 118.95 182.25
  C 119.08 185.40 117.99 183.66 118.01 182.60
  Q 118.22 172.16 117.53 161.75
  A 1.57 1.04 31.9 0 0 117.14 160.90
  Q 116.37 160.02 116.25 158.50
  Q 115.09 143.89 115.63 132.21"
/>
<path stroke="#262d13" stroke-opacity="0.996" vector-effect="non-scaling-stroke" d="
  M 118.04 225.25
  L 117.71 228.00"
/>
<path stroke="#749c39" stroke-opacity="0.980" vector-effect="non-scaling-stroke" d="
  M 117.25 120.71
  L 116.50 120.79"
/>
<path stroke="#829734" vector-effect="non-scaling-stroke" d="
  M 116.79 215.25
  L 117.71 228.00"
/>
<path stroke="#5e6b22" stroke-opacity="0.996" vector-effect="non-scaling-stroke" d="
  M 117.71 228.00
  L 118.00 233.76
  Q 118.09 235.53 116.48 236.26
  Q 111.97 238.30 107.00 238.46"
/>
<path stroke="#b1cf3e" vector-effect="non-scaling-stroke" d="
  M 107.00 238.46
  Q 104.59 235.54 106.80 233.71
  C 109.80 231.24 116.00 234.62 113.20 226.86
  A 1.11 1.10 -11.8 0 0 112.08 226.13
  Q 106.46 226.55 103.81 223.44
  Q 101.78 221.05 95.48 208.53
  C 93.74 205.05 91.11 202.59 95.50 199.29"
/>
<path stroke="#a6ca3a" vector-effect="non-scaling-stroke" d="
  M 111.25 194.46
  Q 109.34 194.67 109.78 196.46
  A 0.42 0.42 78.2 0 1 109.44 196.98
  L 95.50 199.29"
/>
<path stroke="#9ec435" vector-effect="non-scaling-stroke" d="
  M 95.50 199.29
  C 89.10 200.60 93.16 207.08 95.06 209.94
  Q 98.21 214.65 100.14 219.93
  C 101.45 223.50 103.40 226.22 105.03 229.54
  A 1.77 1.76 -55.3 0 1 105.20 230.49
  C 105.02 232.26 103.72 238.04 106.00 238.54"
/>
<path stroke="#4a6119" stroke-opacity="0.996" vector-effect="non-scaling-stroke" d="
  M 106.00 238.54
  L 99.75 238.71"
/>
<path stroke="#435916" stroke-opacity="0.996" vector-effect="non-scaling-stroke" d="
  M 97.00 238.46
  L 94.50 238.46"
/>
<path stroke="#7ba828" vector-effect="non-scaling-stroke" d="
  M 94.50 238.46
  L 93.95 236.46
  A 1.56 0.59 30.1 0 0 93.34 235.71
  Q 92.26 234.84 92.05 233.50
  A 0.55 0.46 -10.1 0 1 92.50 232.96
  L 98.59 231.72
  A 0.74 0.66 87.2 0 0 99.12 231.06
  Q 99.30 228.27 97.00 226.46"
/>
<path stroke="#7cac27" vector-effect="non-scaling-stroke" d="
  M 97.00 226.46
  Q 95.49 221.94 92.79 218.00"
/>
<path stroke="#7ba828" vector-effect="non-scaling-stroke" d="
  M 92.79 218.00
  Q 92.71 216.04 91.25 214.25
  C 90.12 212.85 89.03 210.63 87.90 208.67
  C 83.85 201.62 89.97 195.77 96.75 195.25
  Q 99.53 195.04 99.94 193.94
  C 100.94 191.24 97.31 191.70 96.00 192.21"
/>
<path stroke="#567036" stroke-opacity="0.980" vector-effect="non-scaling-stroke" d="
  M 103.75 77.21
  Q 103.41 77.38 103.46 77.75"
/>
<path stroke="#567036" stroke-opacity="0.980" vector-effect="non-scaling-stroke" d="
  M 105.21 78.75
  L 104.54 78.75"
/>
<path stroke="#71a424" vector-effect="non-scaling-stroke" d="
  M 92.79 218.00
  Q 94.33 222.53 97.00 226.46"
/>
<path stroke="#395113" stroke-opacity="0.996" vector-effect="non-scaling-stroke" d="
  M 94.50 238.46
  L 90.50 237.46"
/>
<path stroke="#62901f" vector-effect="non-scaling-stroke" d="
  M 90.50 237.46
  Q 89.55 233.99 86.51 232.19
  A 1.50 1.23 9.7 0 1 85.89 231.48
  C 83.16 223.99 81.73 216.03 78.73 207.79
  A 1.20 0.90 56.2 0 1 78.78 206.86
  L 83.90 198.71"
/>
<path stroke="#2a410d" stroke-opacity="0.996" vector-effect="non-scaling-stroke" d="
  M 90.50 237.46
  Q 85.64 236.71 84.54 232.00"
/>
<path stroke="#3d5b17" stroke-opacity="0.765" vector-effect="non-scaling-stroke" d="
  M 84.54 232.00
  L 82.10 223.52"
/>
<path stroke="#3d5b17" stroke-opacity="0.765" vector-effect="non-scaling-stroke" d="
  M 73.29 223.00
  L 73.25 223.49"
/>
<path stroke="#354b18" stroke-opacity="0.969" vector-effect="non-scaling-stroke" d="
  M 73.25 223.49
  Q 74.08 228.12 69.56 229.31
  C 62.50 231.18 44.26 233.07 39.79 226.00"
/>
<path stroke="#3d5b17" stroke-opacity="0.765" vector-effect="non-scaling-stroke" d="
  M 39.79 226.00
  Q 39.87 225.51 39.54 225.25"
/>
<path stroke="#4a7216" vector-effect="non-scaling-stroke" d="
  M 36.29 212.75
  C 37.96 211.38 35.56 205.94 35.17 203.79
  Q 34.98 202.78 35.73 203.48
  C 39.44 206.93 42.00 217.51 43.14 222.48
  Q 43.92 225.89 46.69 225.61
  Q 49.35 225.34 48.44 222.82
  Q 47.24 219.49 48.55 215.45
  A 1.46 1.43 -7.6 0 1 49.15 214.68
  Q 52.19 212.77 54.80 213.26
  Q 61.06 214.43 66.66 214.44
  A 2.14 2.01 -84.7 0 0 68.66 212.67
  L 69.37 208.60"
/>
<path stroke="#55661d" stroke-opacity="0.996" vector-effect="non-scaling-stroke" d="
  M 107.00 238.46
  L 106.00 238.54"
/>
<path stroke="#71802c" vector-effect="non-scaling-stroke" d="
  M 92.70 91.58
  L 89.75 89.29"
/>
<path stroke="#e9f3a9" vector-effect="non-scaling-stroke" d="
  M 89.75 89.29
  Q 88.81 88.89 87.79 89.00"
/>
<path stroke="#71802c" vector-effect="non-scaling-stroke" d="
  M 87.79 89.00
  Q 86.26 88.25 84.75 89.21"
/>
<path stroke="#e2f25c" vector-effect="non-scaling-stroke" d="
  M 84.75 89.21
  C 85.43 87.83 84.87 87.35 83.82 88.23
  C 79.23 92.10 78.43 96.12 83.69 99.97
  Q 87.43 102.70 91.81 99.06
  Q 96.42 95.24 92.70 91.58"
/>
<path stroke="#7f8c34" vector-effect="non-scaling-stroke" d="
  M 84.75 89.21
  C 78.84 92.88 82.65 101.28 88.50 99.75
  Q 93.95 98.32 92.70 91.58"
/>
<path stroke="#878d82" vector-effect="non-scaling-stroke" d="
  M 87.79 89.00
  Q 85.97 89.47 85.50 91.21"
/>
<path stroke="#2c3a15" vector-effect="non-scaling-stroke" d="
  M 85.50 91.21
  Q 80.98 93.37 84.54 97.29
  Q 86.14 99.06 88.34 98.12
  Q 91.42 96.80 90.50 94.29"
/>
<path stroke="#878d82" vector-effect="non-scaling-stroke" d="
  M 90.50 94.29
  Q 92.76 91.47 89.75 89.29"
/>
<path stroke="#a5ac92" vector-effect="non-scaling-stroke" d="
  M 90.50 94.29
  Q 87.38 93.79 85.50 91.21"
/>
<path stroke="#e9f3a9" vector-effect="non-scaling-stroke" d="
  M 57.00 98.04
  L 55.50 97.21"
/>
<path stroke="#71802c" vector-effect="non-scaling-stroke" d="
  M 55.50 97.21
  C 49.64 95.70 46.17 102.75 51.11 106.87
  C 57.55 112.22 63.67 100.32 57.00 98.04"
/>
<path stroke="#878d82" vector-effect="non-scaling-stroke" d="
  M 55.50 97.21
  Q 52.78 97.06 52.14 99.57"
/>
<path stroke="#2c3a15" vector-effect="non-scaling-stroke" d="
  M 52.14 99.57
  Q 47.48 103.58 52.88 106.57
  A 2.43 2.43 47.1 0 0 55.08 106.65
  Q 58.45 105.10 57.25 102.54"
/>
<path stroke="#878d82" vector-effect="non-scaling-stroke" d="
  M 57.25 102.54
  Q 59.55 100.17 57.00 98.04"
/>
<path stroke="#a5ac92" vector-effect="non-scaling-stroke" d="
  M 57.25 102.54
  Q 54.31 102.29 52.14 99.57"
/>
<path stroke="#679821" vector-effect="non-scaling-stroke" d="
  M 86.73 211.31
  Q 85.08 208.76 84.34 205.73
  C 83.58 202.60 81.81 203.86 81.76 205.93
  Q 81.64 210.09 84.50 214.25
  Q 86.90 217.75 89.64 225.08
  Q 90.61 227.68 93.07 228.94
  Q 95.27 230.07 94.49 227.73
  Q 92.57 221.91 89.91 216.37
  Q 89.61 215.75 86.73 211.31"
/>
</g>
<path fill="#b3d83d" d="
  M 79.71 64.93
  Q 76.73 64.67 73.21 65.50
  Q 69.66 64.89 67.81 66.31
  Q 66.42 67.39 68.25 67.96
  Q 69.11 68.37 69.20 69.19
  A 0.66 0.55 -10.7 0 1 68.69 69.81
  C 60.56 71.89 52.88 75.59 47.88 82.59
  Q 42.36 90.32 42.75 99.00
  Q 43.29 110.94 41.21 119.33
  Q 39.38 120.09 38.06 120.00
  A 0.51 0.48 -85.0 0 1 37.62 119.44
  Q 38.11 115.59 38.89 111.78
  C 40.46 104.17 38.54 96.50 41.29 89.26
  Q 43.07 84.57 45.05 79.95
  Q 45.35 79.27 44.80 79.36
  C 44.25 79.44 43.89 80.90 42.75 81.21
  Q 45.09 79.26 44.48 76.17
  A 0.39 0.38 71.8 0 0 43.93 75.89
  Q 42.93 76.37 42.29 76.00
  L 46.25 72.71
  Q 49.66 71.54 52.25 69.04
  Q 61.64 64.28 72.18 64.19
  A 0.85 0.81 12.2 0 0 72.91 63.74
  C 73.99 61.59 78.02 48.90 82.02 56.55
  A 1.20 1.15 -51.0 0 1 82.10 57.48
  L 79.71 64.93
  Z"
/>
<path fill="#9ec636" d="
  M 51.54 69.00
  Q 49.10 71.12 46.00 71.79
  L 40.41 66.34
  Q 38.69 64.67 40.55 62.82
  C 44.11 59.29 49.57 66.37 51.54 69.00
  Z"
/>
<path fill="#c3db47" d="
  M 79.71 64.93
  L 84.75 66.21
  L 84.00 66.29
  Q 82.44 66.40 81.58 67.63
  A 1.27 1.04 -72.8 0 1 80.81 68.14
  C 68.33 70.10 53.52 74.66 46.99 86.67
  C 42.30 95.29 43.50 106.07 43.50 115.66
  A 2.22 2.20 73.8 0 1 42.49 117.52
  Q 41.79 117.98 42.79 118.75
  L 41.21 119.33
  Q 43.29 110.94 42.75 99.00
  Q 42.36 90.32 47.88 82.59
  C 52.88 75.59 60.56 71.89 68.69 69.81
  A 0.66 0.55 -10.7 0 0 69.20 69.19
  Q 69.11 68.37 68.25 67.96
  L 72.74 67.54
  A 1.19 0.78 6.8 0 0 73.58 67.12
  Q 74.06 66.35 73.21 65.50
  Q 76.73 64.67 79.71 64.93
  Z"
/>
<path fill="#f3f7d6" d="
  M 73.21 65.50
  Q 74.06 66.35 73.58 67.12
  A 1.19 0.78 6.8 0 1 72.74 67.54
  L 68.25 67.96
  Q 66.42 67.39 67.81 66.31
  Q 69.66 64.89 73.21 65.50
  Z"
/>
<path fill="#c8e04a" d="
  M 84.00 66.29
  C 80.92 67.65 90.66 69.74 84.43 70.43
  C 77.63 71.18 72.04 71.27 65.73 74.33
  Q 65.63 74.38 61.11 76.28
  Q 57.70 77.71 55.13 80.78
  Q 53.77 82.41 52.24 83.89
  Q 47.60 88.40 46.08 94.25
  Q 42.99 106.16 47.58 117.75
  L 42.79 118.75
  Q 41.79 117.98 42.49 117.52
  A 2.22 2.20 73.8 0 0 43.50 115.66
  C 43.50 106.07 42.30 95.29 46.99 86.67
  C 53.52 74.66 68.33 70.10 80.81 68.14
  A 1.27 1.04 -72.8 0 0 81.58 67.63
  Q 82.44 66.40 84.00 66.29
  Z"
/>
<path fill="#d3e653" d="
  M 84.00 66.29
  L 84.75 66.21
  L 85.25 66.29
  Q 86.55 67.62 88.50 67.46
  Q 90.82 67.86 92.50 69.46
  Q 91.96 69.45 91.55 69.16
  Q 90.98 68.76 90.70 68.71
  C 88.90 68.39 89.37 69.63 90.22 70.22
  C 102.38 78.75 110.19 90.64 115.48 104.37
  A 3.43 3.40 2.7 0 0 117.16 106.20
  C 119.18 107.18 117.77 102.00 117.79 100.75
  L 119.54 108.75
  Q 119.62 109.19 119.49 109.56
  A 0.50 0.41 23.6 0 1 118.82 109.75
  Q 117.56 109.09 115.25 108.75
  Q 96.57 106.00 80.00 112.21
  L 74.50 114.54
  Q 60.75 114.32 47.58 117.75
  Q 42.99 106.16 46.08 94.25
  Q 47.60 88.40 52.24 83.89
  Q 53.77 82.41 55.13 80.78
  Q 57.70 77.71 61.11 76.28
  Q 65.63 74.38 65.73 74.33
  C 72.04 71.27 77.63 71.18 84.43 70.43
  C 90.66 69.74 80.92 67.65 84.00 66.29
  Z
  M 92.70 91.58
  L 89.75 89.29
  Q 88.81 88.89 87.79 89.00
  Q 86.26 88.25 84.75 89.21
  C 85.43 87.83 84.87 87.35 83.82 88.23
  C 79.23 92.10 78.43 96.12 83.69 99.97
  Q 87.43 102.70 91.81 99.06
  Q 96.42 95.24 92.70 91.58
  Z
  M 57.00 98.04
  L 55.50 97.21
  C 49.64 95.70 46.17 102.75 51.11 106.87
  C 57.55 112.22 63.67 100.32 57.00 98.04
  Z"
/>
<path fill="#638848" fill-opacity="0.961" d="
  M 85.25 66.29
  Q 87.05 66.41 88.50 67.46
  Q 86.55 67.62 85.25 66.29
  Z"
/>
<path fill="#f0f990" d="
  M 92.50 69.46
  Q 97.20 71.21 100.75 74.79
  L 103.46 77.75
  L 104.54 78.75
  L 109.00 83.79
  L 111.50 87.29
  L 115.50 94.71
  Q 117.16 97.53 117.79 100.75
  C 117.77 102.00 119.18 107.18 117.16 106.20
  A 3.43 3.40 2.7 0 1 115.48 104.37
  C 110.19 90.64 102.38 78.75 90.22 70.22
  C 89.37 69.63 88.90 68.39 90.70 68.71
  Q 90.98 68.76 91.55 69.16
  Q 91.96 69.45 92.50 69.46
  Z"
/>
<path fill="#5d901c" d="
  M 51.54 69.00
  L 52.25 69.04
  Q 49.66 71.54 46.25 72.71
  Q 46.33 72.20 46.00 71.79
  Q 49.10 71.12 51.54 69.00
  Z"
/>
<path fill="#638848" fill-opacity="0.961" d="
  M 100.75 74.79
  L 103.75 77.21
  Q 103.41 77.38 103.46 77.75
  L 100.75 74.79
  Z"
/>
<path fill="#cee660" d="
  M 42.75 81.21
  Q 40.68 83.87 39.09 86.85
  C 37.98 88.91 35.77 90.70 35.00 93.00
  Q 32.55 100.26 30.93 106.72
  Q 30.43 108.71 28.92 110.09
  Q 27.32 111.56 25.71 111.00
  Q 27.23 98.21 33.31 86.78
  Q 36.89 80.69 42.29 76.00
  Q 42.93 76.37 43.93 75.89
  A 0.39 0.38 71.8 0 1 44.48 76.17
  Q 45.09 79.26 42.75 81.21
  Z"
/>
<path fill="#4a5925" d="
  M 103.75 77.21
  Q 104.64 77.83 105.21 78.75
  L 104.54 78.75
  L 103.46 77.75
  Q 103.41 77.38 103.75 77.21
  Z"
/>
<path fill="#638848" fill-opacity="0.961" d="
  M 104.54 78.75
  L 105.21 78.75
  L 109.46 83.75
  L 109.00 83.79
  L 104.54 78.75
  Z"
/>
<path fill="#9ec636" d="
  M 41.21 119.33
  L 42.79 118.75
  L 47.58 117.75
  Q 60.75 114.32 74.50 114.54
  L 74.75 114.96
  L 64.75 116.29
  Q 52.11 117.35 40.02 121.17
  A 0.48 0.37 -23.7 0 0 39.69 121.78
  Q 39.86 122.03 40.25 122.00
  Q 42.99 121.80 45.04 122.57
  A 1.22 1.12 40.0 0 0 45.95 122.53
  Q 54.62 118.39 64.25 117.71
  Q 72.14 117.66 79.31 121.43
  Q 85.65 118.91 94.50 119.25
  C 111.56 119.90 116.77 140.49 102.47 150.16
  L 96.46 153.00
  C 94.54 153.81 89.97 155.18 89.71 157.50
  C 86.16 158.12 85.01 161.35 81.54 162.25
  L 82.46 161.00
  L 87.82 157.03
  A 1.01 0.87 -23.3 0 0 88.23 156.19
  Q 88.15 155.51 87.25 155.46
  L 91.29 153.75
  C 99.31 150.89 109.05 146.72 109.53 137.02
  Q 109.86 130.16 105.30 125.00
  C 99.03 117.91 89.45 119.60 81.15 122.03
  Q 80.65 122.18 81.07 122.48
  Q 85.34 125.56 87.23 130.54
  Q 86.27 130.57 86.00 130.21
  C 80.94 120.06 68.85 117.81 58.73 119.79
  C 57.25 120.08 53.87 119.99 54.95 122.56
  Q 55.42 123.67 56.94 124.52
  C 59.94 126.19 62.33 127.12 64.92 129.75
  Q 67.68 132.54 71.25 134.29
  Q 68.85 135.81 67.19 133.56
  C 63.20 128.19 58.27 126.50 52.37 123.68
  Q 49.91 122.50 47.18 123.78
  L 34.75 122.79
  L 34.50 122.71
  C 35.43 120.93 33.28 121.52 32.36 121.45
  C 29.59 121.25 23.55 121.35 24.29 119.25
  L 25.71 111.00
  Q 27.32 111.56 28.92 110.09
  Q 30.43 108.71 30.93 106.72
  Q 32.55 100.26 35.00 93.00
  C 35.77 90.70 37.98 88.91 39.09 86.85
  Q 40.68 83.87 42.75 81.21
  C 43.89 80.90 44.25 79.44 44.80 79.36
  Q 45.35 79.27 45.05 79.95
  Q 43.07 84.57 41.29 89.26
  C 38.54 96.50 40.46 104.17 38.89 111.78
  Q 38.11 115.59 37.62 119.44
  A 0.51 0.48 -85.0 0 0 38.06 120.00
  Q 39.38 120.09 41.21 119.33
  Z"
/>
<path fill="#638848" fill-opacity="0.961" d="
  M 109.00 83.79
  L 109.46 83.75
  L 111.75 87.21
  L 111.50 87.29
  L 109.00 83.79
  Z"
/>
<path fill="#699e1f" d="
  M 33.31 86.78
  Q 27.23 98.21 25.71 111.00
  L 24.29 119.25
  Q 23.56 101.48 33.31 86.78
  Z"
/>
<path fill="#638848" fill-opacity="0.961" d="
  M 111.50 87.29
  L 111.75 87.21
  Q 114.19 90.68 115.50 94.71
  L 111.50 87.29
  Z"
/>
<path fill="#f0fe64" d="
  M 84.75 89.21
  C 78.84 92.88 82.65 101.28 88.50 99.75
  Q 93.95 98.32 92.70 91.58
  Q 96.42 95.24 91.81 99.06
  Q 87.43 102.70 83.69 99.97
  C 78.43 96.12 79.23 92.10 83.82 88.23
  C 84.87 87.35 85.43 87.83 84.75 89.21
  Z"
/>
<path fill="#0e1a04" d="
  M 87.79 89.00
  Q 85.97 89.47 85.50 91.21
  Q 80.98 93.37 84.54 97.29
  Q 86.14 99.06 88.34 98.12
  Q 91.42 96.80 90.50 94.29
  Q 92.76 91.47 89.75 89.29
  L 92.70 91.58
  Q 93.95 98.32 88.50 99.75
  C 82.65 101.28 78.84 92.88 84.75 89.21
  Q 86.26 88.25 87.79 89.00
  Z"
/>
<path fill="#ffffff" d="
  M 87.79 89.00
  Q 88.81 88.89 89.75 89.29
  Q 92.76 91.47 90.50 94.29
  Q 87.38 93.79 85.50 91.21
  Q 85.97 89.47 87.79 89.00
  Z"
/>
<path fill="#4a5925" d="
  M 85.50 91.21
  Q 87.38 93.79 90.50 94.29
  Q 91.42 96.80 88.34 98.12
  Q 86.14 99.06 84.54 97.29
  Q 80.98 93.37 85.50 91.21
  Z"
/>
<path fill="#0e1a04" d="
  M 55.50 97.21
  Q 52.78 97.06 52.14 99.57
  Q 47.48 103.58 52.88 106.57
  A 2.43 2.43 47.1 0 0 55.08 106.65
  Q 58.45 105.10 57.25 102.54
  Q 59.55 100.17 57.00 98.04
  C 63.67 100.32 57.55 112.22 51.11 106.87
  C 46.17 102.75 49.64 95.70 55.50 97.21
  Z"
/>
<path fill="#ffffff" d="
  M 55.50 97.21
  L 57.00 98.04
  Q 59.55 100.17 57.25 102.54
  Q 54.31 102.29 52.14 99.57
  Q 52.78 97.06 55.50 97.21
  Z"
/>
<path fill="#4a5925" d="
  M 52.14 99.57
  Q 54.31 102.29 57.25 102.54
  Q 58.45 105.10 55.08 106.65
  A 2.43 2.43 47.1 0 1 52.88 106.57
  Q 47.48 103.58 52.14 99.57
  Z"
/>
<path fill="#699e1f" d="
  M 119.54 108.75
  Q 120.15 110.40 118.94 111.69
  Q 115.64 115.19 111.70 118.20
  L 99.75 115.79
  Q 103.32 115.64 100.34 114.84
  Q 100.02 114.75 99.65 114.71
  Q 89.79 113.72 80.00 112.21
  Q 96.57 106.00 115.25 108.75
  Q 117.56 109.09 118.82 109.75
  A 0.50 0.41 23.6 0 0 119.49 109.56
  Q 119.62 109.19 119.54 108.75
  Z"
/>
<path fill="#4e7717" d="
  M 80.00 112.21
  Q 89.79 113.72 99.65 114.71
  Q 100.02 114.75 100.34 114.84
  Q 103.32 115.64 99.75 115.79
  L 83.25 115.04
  L 74.75 114.96
  L 74.50 114.54
  L 80.00 112.21
  Z"
/>
<path fill="#f0f990" d="
  M 74.75 114.96
  L 83.25 115.04
  Q 84.71 117.10 82.20 117.32
  Q 80.24 117.49 78.71 119.35
  A 0.39 0.38 -62.5 0 0 78.90 119.96
  Q 80.30 120.39 79.31 121.43
  Q 72.14 117.66 64.25 117.71
  Q 64.12 116.85 64.75 116.29
  L 74.75 114.96
  Z"
/>
<path fill="#cee34f" d="
  M 83.25 115.04
  L 99.75 115.79
  L 111.70 118.20
  L 114.50 119.29
  Q 115.26 120.35 116.50 120.79
  L 116.79 121.25
  Q 117.37 122.87 115.25 122.45
  Q 114.60 122.32 115.00 122.85
  C 116.41 124.72 115.69 129.80 115.63 132.21
  Q 113.67 130.90 113.68 132.94
  C 113.72 136.83 111.68 140.97 109.56 144.81
  Q 107.01 149.44 102.47 150.16
  C 116.77 140.49 111.56 119.90 94.50 119.25
  Q 85.65 118.91 79.31 121.43
  Q 80.30 120.39 78.90 119.96
  A 0.39 0.38 -62.5 0 1 78.71 119.35
  Q 80.24 117.49 82.20 117.32
  Q 84.71 117.10 83.25 115.04
  Z"
/>
<path fill="#cee34f" d="
  M 64.75 116.29
  Q 64.12 116.85 64.25 117.71
  Q 54.62 118.39 45.95 122.53
  A 1.22 1.12 40.0 0 1 45.04 122.57
  Q 42.99 121.80 40.25 122.00
  Q 39.86 122.03 39.69 121.78
  A 0.48 0.37 -23.7 0 1 40.02 121.17
  Q 52.11 117.35 64.75 116.29
  Z"
/>
<path fill="#c8e04a" d="
  M 86.00 130.21
  L 71.25 134.29
  Q 67.68 132.54 64.92 129.75
  C 62.33 127.12 59.94 126.19 56.94 124.52
  Q 55.42 123.67 54.95 122.56
  C 53.87 119.99 57.25 120.08 58.73 119.79
  C 68.85 117.81 80.94 120.06 86.00 130.21
  Z"
/>
<path fill="#ffffff" d="
  M 182.93 131.06
  C 173.49 130.96 162.77 130.16 153.50 131.73
  C 139.38 134.13 136.02 147.75 138.22 159.93
  C 141.29 176.96 157.33 176.27 171.27 175.98
  A 0.96 0.96 -0.6 0 1 172.25 176.94
  L 172.25 187.00
  A 0.92 0.91 88.7 0 1 171.38 187.92
  C 149.87 188.99 129.42 186.39 126.50 160.50
  C 123.59 134.68 134.48 118.74 161.50 118.90
  Q 177.50 119.00 194.48 119.00
  A 0.78 0.77 -90.0 0 1 195.25 119.78
  L 195.25 187.28
  A 0.72 0.71 -90.0 0 1 194.54 188.00
  L 184.16 188.00
  A 0.67 0.66 90.0 0 1 183.50 187.33
  L 183.44 131.55
  A 0.51 0.49 -0.0 0 0 182.93 131.06
  Z"
/>
<path fill="#ffffff" d="
  M 245.56 119.94
  C 261.50 122.81 268.85 133.55 270.00 149.00
  Q 270.78 159.52 270.07 187.32
  A 0.54 0.52 -90.0 0 1 269.56 187.85
  L 259.42 187.98
  A 0.95 0.91 89.7 0 1 258.50 187.03
  Q 258.50 169.50 258.43 151.75
  C 258.37 135.26 244.94 129.36 230.50 131.50
  C 214.93 133.80 212.83 143.46 212.60 157.78
  Q 212.36 172.39 212.51 187.44
  A 0.56 0.55 -90.0 0 1 211.96 188.00
  L 201.56 187.95
  A 0.52 0.50 -90.0 0 1 201.06 187.43
  Q 200.95 170.34 200.97 153.25
  C 200.99 125.41 220.36 115.40 245.56 119.94
  Z"
/>
<path fill="#ffffff" d="
  M 333.44 156.94
  C 334.98 139.76 326.52 130.98 309.50 130.99
  Q 293.00 131.00 276.87 131.00
  A 0.87 0.87 0.0 0 1 276.00 130.13
  L 276.00 119.50
  A 0.50 0.50 0.0 0 1 276.50 119.00
  Q 294.50 119.00 312.50 119.00
  C 323.51 119.00 334.10 123.02 339.75 131.85
  C 346.46 142.34 347.04 161.21 341.18 172.59
  Q 333.76 186.99 316.00 187.75
  Q 300.29 188.42 276.68 187.82
  A 0.53 0.52 0.6 0 1 276.16 187.30
  L 276.01 176.49
  A 0.51 0.49 -0.0 0 1 276.52 176.00
  Q 293.13 176.00 309.75 176.00
  C 322.52 176.00 332.16 171.18 333.44 156.94
  Z"
/>
<path fill="#ffffff" d="
  M 412.14 159.30
  C 421.23 166.49 420.55 177.02 420.21 187.43
  A 0.55 0.52 -88.9 0 1 419.69 187.96
  L 409.18 187.84
  A 0.54 0.50 89.4 0 1 408.68 187.31
  Q 408.60 181.78 408.49 176.25
  C 408.26 164.63 388.77 164.81 381.25 164.88
  Q 366.50 165.00 351.53 165.00
  A 0.52 0.51 0.5 0 1 351.01 164.48
  L 351.05 153.57
  A 0.51 0.51 0.0 0 1 351.56 153.06
  Q 378.87 152.88 383.75 153.00
  Q 392.11 153.21 400.20 151.25
  C 406.74 149.67 411.25 143.05 406.75 137.05
  C 403.24 132.36 394.96 131.32 390.00 131.21
  Q 371.38 130.82 351.90 131.01
  A 0.89 0.89 -0.3 0 1 351.00 130.12
  L 351.00 119.56
  A 0.56 0.56 0.0 0 1 351.56 119.00
  Q 369.62 119.00 387.00 119.00
  C 402.22 119.00 420.42 123.19 420.00 142.50
  Q 419.78 152.81 412.15 158.70
  A 0.38 0.38 -44.5 0 0 412.14 159.30
  Z"
/>
<path fill="#ffffff" d="
  M 426.37 160.77
  C 422.90 131.75 438.57 115.76 467.78 119.25
  C 491.66 122.10 497.71 142.39 494.22 163.05
  C 490.47 185.33 470.64 190.43 451.27 187.11
  Q 429.06 183.30 426.37 160.77
  Z
  M 450.51 132.54
  C 438.46 136.16 436.02 150.11 438.23 160.66
  C 440.93 173.57 452.58 176.52 464.00 175.75
  C 475.99 174.94 482.21 168.10 483.42 156.74
  C 485.67 135.52 469.11 126.96 450.51 132.54
  Z"
/>
<rect fill="#ffffff" x="501.00" y="119.00" width="11.50" height="69.00" rx="0.50"/>
<path fill="#ffffff" d="
  M 575.42 156.94
  C 576.44 143.81 571.13 131.59 556.25 131.25
  Q 537.63 130.82 518.52 131.00
  A 0.51 0.51 -0.6 0 1 518.00 130.49
  L 518.00 119.50
  A 0.50 0.50 0.0 0 1 518.50 119.00
  Q 536.37 119.00 554.25 119.00
  C 580.78 119.00 590.86 139.61 586.25 163.10
  C 582.66 181.41 570.16 188.05 552.50 188.02
  Q 535.50 188.00 518.87 188.00
  A 0.87 0.87 0.0 0 1 518.00 187.13
  L 518.00 176.50
  A 0.50 0.50 0.0 0 1 518.50 176.00
  Q 535.37 176.00 552.25 176.00
  C 564.76 176.00 574.36 170.69 575.42 156.94
  Z"
/>
<path fill="#638848" fill-opacity="0.961" d="
  M 114.50 119.29
  Q 116.04 119.66 117.25 120.71
  L 116.50 120.79
  Q 115.26 120.35 114.50 119.29
  Z"
/>
<path fill="#cee34f" d="
  M 91.29 153.75
  C 90.79 151.24 95.21 150.92 97.01 149.93
  A 0.82 0.70 -18.9 0 0 97.44 149.20
  C 97.11 145.91 75.41 150.12 73.05 150.69
  A 1.83 1.19 -66.4 0 0 72.26 151.21
  Q 71.31 152.29 69.75 152.09
  Q 69.21 152.02 68.77 152.16
  Q 66.55 152.85 64.25 152.57
  A 1.56 1.25 -53.0 0 0 63.34 152.80
  Q 62.40 153.40 61.25 153.32
  A 1.27 1.07 23.4 0 0 60.38 153.58
  Q 58.74 154.97 56.82 155.50
  Q 47.09 140.19 35.57 126.18
  Q 34.83 125.28 33.73 124.89
  A 0.40 0.35 28.1 0 1 33.51 124.32
  L 34.75 122.79
  L 47.18 123.78
  L 52.00 125.79
  Q 54.74 127.77 57.58 129.59
  C 60.94 131.74 63.11 134.23 65.69 137.06
  C 67.86 139.44 71.31 137.45 73.40 136.99
  Q 77.83 136.02 81.54 133.33
  L 87.23 130.54
  Q 85.34 125.56 81.07 122.48
  Q 80.65 122.18 81.15 122.03
  C 89.45 119.60 99.03 117.91 105.30 125.00
  Q 109.86 130.16 109.53 137.02
  C 109.05 146.72 99.31 150.89 91.29 153.75
  Z"
/>
<path fill="#85b02b" d="
  M 116.50 120.79
  L 117.25 120.71
  Q 120.18 122.37 120.19 124.31
  Q 120.29 154.09 120.25 183.87
  C 120.25 189.85 120.56 193.02 116.82 196.81
  A 2.24 2.22 -24.6 0 0 116.18 198.51
  L 117.04 213.00
  L 116.79 215.25
  Q 115.85 206.75 115.00 198.25
  Q 114.74 195.63 111.25 194.46
  C 107.53 192.99 101.19 195.80 97.33 196.79
  C 94.04 197.63 87.83 200.33 89.15 205.07
  C 90.26 209.09 92.92 212.57 94.47 216.00
  C 96.23 219.90 98.43 222.76 100.07 227.30
  C 101.08 230.06 102.73 232.32 99.25 234.33
  A 0.93 0.83 -15.8 0 0 98.78 235.07
  Q 98.71 237.02 99.75 238.71
  Q 98.32 238.99 97.00 238.46
  Q 91.92 234.75 98.22 232.86
  Q 101.32 231.92 99.75 229.10
  C 95.82 222.05 92.73 214.29 88.63 207.00
  C 83.91 198.61 97.74 195.89 102.50 194.40
  Q 106.67 193.09 101.69 191.39
  A 1.17 1.17 -66.7 0 1 101.03 189.73
  Q 101.23 189.35 100.94 188.74
  A 1.23 0.98 -1.8 0 0 100.19 188.18
  Q 94.15 186.69 88.69 189.51
  Q 82.91 191.97 78.57 188.38
  C 76.89 187.00 76.28 184.62 73.99 183.19
  A 1.64 1.60 -86.4 0 1 73.38 182.48
  C 72.22 179.92 69.80 179.60 68.43 178.17
  C 65.83 175.46 61.58 171.11 67.42 168.60
  Q 68.58 168.10 69.54 167.25
  C 71.98 166.75 73.69 165.48 76.19 164.90
  Q 79.13 164.21 81.54 162.25
  C 85.01 161.35 86.16 158.12 89.71 157.50
  Q 83.53 162.64 75.28 167.17
  Q 74.43 167.64 73.77 168.35
  C 70.79 171.56 73.19 172.59 74.73 174.96
  Q 78.19 180.27 81.50 185.67
  C 83.72 189.30 89.19 188.40 92.61 187.53
  C 93.76 187.24 108.86 186.34 104.75 190.00
  Q 103.26 191.33 105.25 191.50
  C 108.97 191.82 111.72 192.97 114.64 195.20
  Q 116.92 196.94 118.00 193.50
  Q 120.24 186.39 119.46 180.25
  L 119.46 168.50
  Q 119.64 134.54 119.44 124.56
  Q 119.39 122.22 116.79 121.25
  L 116.50 120.79
  Z"
/>
<path fill="#cee660" d="
  M 116.79 121.25
  Q 119.39 122.22 119.44 124.56
  Q 119.64 134.54 119.46 168.50
  Q 118.66 175.35 118.95 182.25
  C 119.08 185.40 117.99 183.66 118.01 182.60
  Q 118.22 172.16 117.53 161.75
  A 1.57 1.04 31.9 0 0 117.14 160.90
  Q 116.37 160.02 116.25 158.50
  Q 115.09 143.89 115.63 132.21
  C 115.69 129.80 116.41 124.72 115.00 122.85
  Q 114.60 122.32 115.25 122.45
  Q 117.37 122.87 116.79 121.25
  Z"
/>
<path fill="#93bf30" d="
  M 34.50 122.71
  L 34.75 122.79
  L 33.51 124.32
  A 0.40 0.35 28.1 0 0 33.73 124.89
  Q 34.83 125.28 35.57 126.18
  Q 47.09 140.19 56.82 155.50
  C 60.43 156.24 63.05 155.51 67.70 154.63
  C 74.34 153.38 79.41 151.21 87.44 151.25
  C 88.29 151.25 90.87 152.00 88.39 152.88
  C 87.02 153.37 84.96 153.24 86.50 155.54
  Q 76.46 158.92 66.30 161.92
  Q 57.58 164.49 50.19 158.31
  Q 44.85 153.85 43.25 152.04
  Q 43.90 151.78 44.29 151.25
  C 53.76 159.67 60.62 161.44 72.88 156.97
  A 0.81 0.81 -34.3 0 0 73.14 155.60
  Q 72.72 155.22 71.65 155.95
  Q 71.27 156.22 70.74 156.27
  Q 69.93 156.35 68.50 156.75
  Q 58.53 159.52 49.84 153.41
  Q 44.87 149.91 40.39 145.75
  C 39.41 144.68 34.31 136.86 33.46 137.50
  Q 30.12 131.80 28.39 126.28
  Q 30.79 123.35 34.50 122.71
  Z"
/>
<path fill="#78942e" d="
  M 71.25 134.29
  L 86.00 130.21
  Q 86.27 130.57 87.23 130.54
  L 81.54 133.33
  Q 75.09 134.53 69.12 136.70
  A 1.43 1.43 -22.3 0 1 67.32 135.95
  C 65.06 131.03 56.92 127.18 52.00 125.79
  L 47.18 123.78
  Q 49.91 122.50 52.37 123.68
  C 58.27 126.50 63.20 128.19 67.19 133.56
  Q 68.85 135.81 71.25 134.29
  Z"
/>
<path fill="#9ec636" d="
  M 52.00 125.79
  C 56.92 127.18 65.06 131.03 67.32 135.95
  A 1.43 1.43 -22.3 0 0 69.12 136.70
  Q 75.09 134.53 81.54 133.33
  Q 77.83 136.02 73.40 136.99
  C 71.31 137.45 67.86 139.44 65.69 137.06
  C 63.11 134.23 60.94 131.74 57.58 129.59
  Q 54.74 127.77 52.00 125.79
  Z"
/>
<path fill="#72a722" d="
  M 28.39 126.28
  Q 30.12 131.80 33.46 137.50
  L 33.51 138.14
  Q 32.52 140.42 34.08 142.20
  A 1.34 1.15 27.9 0 1 34.42 143.06
  C 34.36 147.76 37.38 149.43 38.61 153.27
  A 0.46 0.45 -14.3 0 1 38.26 153.85
  L 33.68 154.83
  A 0.71 0.56 -8.7 0 0 33.12 155.43
  C 33.18 156.31 40.21 155.67 41.25 155.64
  C 42.46 155.61 41.98 156.29 41.43 156.57
  Q 34.14 160.30 26.75 156.54
  C 31.06 157.08 23.98 150.99 23.82 150.78
  Q 19.31 145.09 21.53 138.14
  C 22.33 135.66 24.41 133.68 25.94 131.44
  Q 27.13 129.69 25.00 130.25
  Q 22.33 130.96 21.56 133.45
  Q 21.41 133.95 21.07 134.28
  Q 17.46 137.85 17.21 143.00
  Q 16.60 141.58 16.71 140.00
  Q 19.93 130.97 28.39 126.28
  Z"
/>
<path fill="#a8c939" d="
  M 26.75 156.54
  Q 19.09 153.58 17.37 145.43
  L 17.21 143.00
  Q 17.46 137.85 21.07 134.28
  Q 21.41 133.95 21.56 133.45
  Q 22.33 130.96 25.00 130.25
  Q 27.13 129.69 25.94 131.44
  C 24.41 133.68 22.33 135.66 21.53 138.14
  Q 19.31 145.09 23.82 150.78
  C 23.98 150.99 31.06 157.08 26.75 156.54
  Z"
/>
<path fill="#c3db47" d="
  M 115.63 132.21
  Q 115.09 143.89 116.25 158.50
  Q 116.37 160.02 117.14 160.90
  A 1.57 1.04 31.9 0 1 117.53 161.75
  Q 118.22 172.16 118.01 182.60
  C 117.99 183.66 119.08 185.40 118.95 182.25
  Q 118.66 175.35 119.46 168.50
  L 119.46 180.25
  L 118.98 188.94
  A 0.66 0.65 86.7 0 1 118.44 189.55
  C 114.96 190.11 115.76 184.94 111.96 186.30
  A 1.65 1.29 -41.0 0 1 111.02 186.35
  Q 104.32 184.22 97.31 184.19
  A 0.61 0.52 84.2 0 1 96.78 183.69
  Q 96.66 183.03 96.08 183.38
  A 1.63 0.79 -43.3 0 1 95.19 183.66
  C 93.45 183.54 89.02 182.52 88.14 180.78
  A 1.38 1.23 84.2 0 0 87.45 180.15
  C 85.17 179.33 84.07 175.37 82.86 173.35
  Q 82.83 173.30 80.80 170.93
  C 78.63 168.40 81.04 166.31 83.14 164.69
  C 84.09 163.95 91.02 158.90 91.19 158.49
  Q 91.86 156.87 93.56 156.43
  Q 96.79 155.59 96.46 153.00
  L 102.47 150.16
  Q 107.01 149.44 109.56 144.81
  C 111.68 140.97 113.72 136.83 113.68 132.94
  Q 113.67 130.90 115.63 132.21
  Z"
/>
<path fill="#b3d83d" d="
  M 40.39 145.75
  L 44.29 151.25
  Q 43.90 151.78 43.25 152.04
  Q 37.42 145.87 33.51 138.14
  L 33.46 137.50
  C 34.31 136.86 39.41 144.68 40.39 145.75
  Z"
/>
<path fill="#4e7717" d="
  M 33.51 138.14
  Q 37.42 145.87 43.25 152.04
  Q 44.85 153.85 50.19 158.31
  Q 57.58 164.49 66.30 161.92
  Q 76.46 158.92 86.50 155.54
  L 87.25 155.46
  Q 88.15 155.51 88.23 156.19
  A 1.01 0.87 -23.3 0 1 87.82 157.03
  L 82.46 161.00
  Q 80.43 161.33 78.75 162.54
  Q 68.06 167.49 58.75 168.75
  Q 53.96 169.40 49.19 166.77
  C 45.00 164.46 45.44 162.15 39.53 162.91
  Q 35.77 163.39 32.00 162.50
  Q 30.75 162.21 29.06 160.69
  Q 27.34 159.14 26.79 161.25
  Q 27.29 174.07 27.00 180.75
  C 26.83 184.64 26.03 190.21 28.30 193.21
  Q 30.52 196.15 33.51 198.49
  Q 32.71 198.46 32.00 198.79
  C 27.80 196.29 26.00 193.27 26.00 188.11
  Q 26.00 173.97 26.00 159.11
  A 1.39 1.38 -78.3 0 0 25.17 157.84
  Q 18.31 154.87 16.71 147.00
  Q 16.51 146.17 17.37 145.43
  Q 19.09 153.58 26.75 156.54
  Q 34.14 160.30 41.43 156.57
  C 41.98 156.29 42.46 155.61 41.25 155.64
  C 40.21 155.67 33.18 156.31 33.12 155.43
  A 0.71 0.56 -8.7 0 1 33.68 154.83
  L 38.26 153.85
  A 0.46 0.45 -14.3 0 0 38.61 153.27
  C 37.38 149.43 34.36 147.76 34.42 143.06
  A 1.34 1.15 27.9 0 0 34.08 142.20
  Q 32.52 140.42 33.51 138.14
  Z"
/>
<path fill="#4a5925" d="
  M 16.71 140.00
  Q 16.60 141.58 17.21 143.00
  L 17.37 145.43
  Q 16.51 146.17 16.71 147.00
  Q 13.89 143.50 16.71 140.00
  Z"
/>
<path fill="#699e1f" d="
  M 44.29 151.25
  L 40.39 145.75
  Q 44.87 149.91 49.84 153.41
  Q 58.53 159.52 68.50 156.75
  Q 69.93 156.35 70.74 156.27
  Q 71.27 156.22 71.65 155.95
  Q 72.72 155.22 73.14 155.60
  A 0.81 0.81 -34.3 0 1 72.88 156.97
  C 60.62 161.44 53.76 159.67 44.29 151.25
  Z"
/>
<path fill="#b9d443" d="
  M 91.29 153.75
  L 87.25 155.46
  L 86.50 155.54
  C 84.96 153.24 87.02 153.37 88.39 152.88
  C 90.87 152.00 88.29 151.25 87.44 151.25
  C 79.41 151.21 74.34 153.38 67.70 154.63
  C 63.05 155.51 60.43 156.24 56.82 155.50
  Q 58.74 154.97 60.38 153.58
  A 1.27 1.07 23.4 0 1 61.25 153.32
  Q 62.40 153.40 63.34 152.80
  A 1.56 1.25 -53.0 0 1 64.25 152.57
  Q 66.55 152.85 68.77 152.16
  Q 69.21 152.02 69.75 152.09
  Q 71.31 152.29 72.26 151.21
  A 1.83 1.19 -66.4 0 1 73.05 150.69
  C 75.41 150.12 97.11 145.91 97.44 149.20
  A 0.82 0.70 -18.9 0 1 97.01 149.93
  C 95.21 150.92 90.79 151.24 91.29 153.75
  Z"
/>
<path fill="#a8c939" d="
  M 96.46 153.00
  Q 96.79 155.59 93.56 156.43
  Q 91.86 156.87 91.19 158.49
  C 91.02 158.90 84.09 163.95 83.14 164.69
  C 81.04 166.31 78.63 168.40 80.80 170.93
  Q 82.83 173.30 82.86 173.35
  C 84.07 175.37 85.17 179.33 87.45 180.15
  A 1.38 1.23 84.2 0 1 88.14 180.78
  C 89.02 182.52 93.45 183.54 95.19 183.66
  A 1.63 0.79 -43.3 0 0 96.08 183.38
  Q 96.66 183.03 96.78 183.69
  A 0.61 0.52 84.2 0 0 97.31 184.19
  Q 104.32 184.22 111.02 186.35
  A 1.65 1.29 -41.0 0 0 111.96 186.30
  C 115.76 184.94 114.96 190.11 118.44 189.55
  A 0.66 0.65 86.7 0 0 118.98 188.94
  L 119.46 180.25
  Q 120.24 186.39 118.00 193.50
  Q 116.92 196.94 114.64 195.20
  C 111.72 192.97 108.97 191.82 105.25 191.50
  Q 103.26 191.33 104.75 190.00
  C 108.86 186.34 93.76 187.24 92.61 187.53
  C 89.19 188.40 83.72 189.30 81.50 185.67
  Q 78.19 180.27 74.73 174.96
  C 73.19 172.59 70.79 171.56 73.77 168.35
  Q 74.43 167.64 75.28 167.17
  Q 83.53 162.64 89.71 157.50
  C 89.97 155.18 94.54 153.81 96.46 153.00
  Z"
/>
<path fill="#699e1f" d="
  M 78.75 162.54
  L 69.54 167.25
  Q 68.58 168.10 67.42 168.60
  C 61.58 171.11 65.83 175.46 68.43 178.17
  C 69.80 179.60 72.22 179.92 73.38 182.48
  A 1.64 1.60 -86.4 0 0 73.99 183.19
  C 76.28 184.62 76.89 187.00 78.57 188.38
  Q 82.91 191.97 88.69 189.51
  C 90.54 189.89 93.29 187.57 94.30 189.54
  A 0.52 0.49 -26.0 0 1 94.04 190.22
  C 92.48 190.96 85.07 193.04 85.35 195.68
  A 0.42 0.37 -13.8 0 0 85.90 195.97
  L 96.00 192.21
  Q 98.32 191.94 97.64 193.73
  A 1.13 0.93 -2.5 0 1 96.96 194.34
  L 83.90 198.71
  Q 79.23 201.51 77.92 207.09
  A 1.07 1.05 3.7 0 1 76.98 207.90
  L 69.37 208.60
  L 57.25 206.79
  C 59.46 207.27 58.14 204.81 57.00 204.54
  Q 59.13 205.04 69.75 206.50
  Q 74.48 207.15 77.02 204.35
  C 78.41 202.82 79.98 200.91 80.62 198.72
  Q 80.64 198.65 81.13 197.93
  L 82.97 195.22
  Q 83.61 194.27 82.48 194.61
  L 76.11 196.52
  Q 73.89 197.18 72.26 196.01
  C 67.92 192.88 63.31 191.71 58.21 190.42
  Q 50.62 188.51 44.19 184.06
  Q 42.54 182.92 40.56 182.92
  Q 40.10 182.92 39.63 182.68
  L 32.27 178.89
  A 0.87 0.86 -48.5 0 0 31.38 178.95
  Q 30.04 179.86 29.79 181.75
  L 29.81 166.43
  Q 29.81 165.39 29.29 163.95
  Q 28.05 160.53 26.79 161.25
  Q 27.34 159.14 29.06 160.69
  Q 30.75 162.21 32.00 162.50
  Q 35.77 163.39 39.53 162.91
  C 45.44 162.15 45.00 164.46 49.19 166.77
  Q 53.96 169.40 58.75 168.75
  Q 68.06 167.49 78.75 162.54
  Z"
/>
<path fill="#8db731" d="
  M 29.79 181.75
  Q 28.94 190.67 35.19 195.06
  Q 43.68 201.03 57.00 204.54
  C 58.14 204.81 59.46 207.27 57.25 206.79
  Q 44.55 204.82 33.51 198.49
  Q 30.52 196.15 28.30 193.21
  C 26.03 190.21 26.83 184.64 27.00 180.75
  Q 27.29 174.07 26.79 161.25
  Q 28.05 160.53 29.29 163.95
  Q 29.81 165.39 29.81 166.43
  L 29.79 181.75
  Z"
/>
<path fill="#72a722" d="
  M 82.46 161.00
  L 81.54 162.25
  Q 79.13 164.21 76.19 164.90
  C 73.69 165.48 71.98 166.75 69.54 167.25
  L 78.75 162.54
  Q 80.43 161.33 82.46 161.00
  Z"
/>
<path fill="#5d901c" d="
  M 57.00 204.54
  Q 43.68 201.03 35.19 195.06
  Q 28.94 190.67 29.79 181.75
  Q 30.04 179.86 31.38 178.95
  A 0.87 0.86 -48.5 0 1 32.27 178.89
  L 39.63 182.68
  Q 40.10 182.92 40.56 182.92
  Q 42.54 182.92 44.19 184.06
  Q 50.62 188.51 58.21 190.42
  C 63.31 191.71 67.92 192.88 72.26 196.01
  Q 73.89 197.18 76.11 196.52
  L 82.48 194.61
  Q 83.61 194.27 82.97 195.22
  L 81.13 197.93
  Q 80.64 198.65 80.62 198.72
  C 79.98 200.91 78.41 202.82 77.02 204.35
  Q 74.48 207.15 69.75 206.50
  Q 59.13 205.04 57.00 204.54
  Z"
/>
<path fill="#85b02b" d="
  M 97.00 238.46
  L 94.50 238.46
  L 93.95 236.46
  A 1.56 0.59 30.1 0 0 93.34 235.71
  Q 92.26 234.84 92.05 233.50
  A 0.55 0.46 -10.1 0 1 92.50 232.96
  L 98.59 231.72
  A 0.74 0.66 87.2 0 0 99.12 231.06
  Q 99.30 228.27 97.00 226.46
  Q 95.49 221.94 92.79 218.00
  Q 92.71 216.04 91.25 214.25
  C 90.12 212.85 89.03 210.63 87.90 208.67
  C 83.85 201.62 89.97 195.77 96.75 195.25
  Q 99.53 195.04 99.94 193.94
  C 100.94 191.24 97.31 191.70 96.00 192.21
  L 85.90 195.97
  A 0.42 0.37 -13.8 0 1 85.35 195.68
  C 85.07 193.04 92.48 190.96 94.04 190.22
  A 0.52 0.49 -26.0 0 0 94.30 189.54
  C 93.29 187.57 90.54 189.89 88.69 189.51
  Q 94.15 186.69 100.19 188.18
  A 1.23 0.98 -1.8 0 1 100.94 188.74
  Q 101.23 189.35 101.03 189.73
  A 1.17 1.17 -66.7 0 0 101.69 191.39
  Q 106.67 193.09 102.50 194.40
  C 97.74 195.89 83.91 198.61 88.63 207.00
  C 92.73 214.29 95.82 222.05 99.75 229.10
  Q 101.32 231.92 98.22 232.86
  Q 91.92 234.75 97.00 238.46
  Z"
/>
<path fill="#70a025" d="
  M 92.79 218.00
  Q 94.33 222.53 97.00 226.46
  Q 99.30 228.27 99.12 231.06
  A 0.74 0.66 87.2 0 1 98.59 231.72
  L 92.50 232.96
  A 0.55 0.46 -10.1 0 0 92.05 233.50
  Q 92.26 234.84 93.34 235.71
  A 1.56 0.59 30.1 0 1 93.95 236.46
  L 94.50 238.46
  L 90.50 237.46
  Q 89.55 233.99 86.51 232.19
  A 1.50 1.23 9.7 0 1 85.89 231.48
  C 83.16 223.99 81.73 216.03 78.73 207.79
  A 1.20 0.90 56.2 0 1 78.78 206.86
  L 83.90 198.71
  L 96.96 194.34
  A 1.13 0.93 -2.5 0 0 97.64 193.73
  Q 98.32 191.94 96.00 192.21
  C 97.31 191.70 100.94 191.24 99.94 193.94
  Q 99.53 195.04 96.75 195.25
  C 89.97 195.77 83.85 201.62 87.90 208.67
  C 89.03 210.63 90.12 212.85 91.25 214.25
  Q 92.71 216.04 92.79 218.00
  Z
  M 86.73 211.31
  Q 85.08 208.76 84.34 205.73
  C 83.58 202.60 81.81 203.86 81.76 205.93
  Q 81.64 210.09 84.50 214.25
  Q 86.90 217.75 89.64 225.08
  Q 90.61 227.68 93.07 228.94
  Q 95.27 230.07 94.49 227.73
  Q 92.57 221.91 89.91 216.37
  Q 89.61 215.75 86.73 211.31
  Z"
/>
<path fill="#93bf30" d="
  M 111.25 194.46
  Q 109.34 194.67 109.78 196.46
  A 0.42 0.42 78.2 0 1 109.44 196.98
  L 95.50 199.29
  C 89.10 200.60 93.16 207.08 95.06 209.94
  Q 98.21 214.65 100.14 219.93
  C 101.45 223.50 103.40 226.22 105.03 229.54
  A 1.77 1.76 -55.3 0 1 105.20 230.49
  C 105.02 232.26 103.72 238.04 106.00 238.54
  L 99.75 238.71
  Q 98.71 237.02 98.78 235.07
  A 0.93 0.83 -15.8 0 1 99.25 234.33
  C 102.73 232.32 101.08 230.06 100.07 227.30
  C 98.43 222.76 96.23 219.90 94.47 216.00
  C 92.92 212.57 90.26 209.09 89.15 205.07
  C 87.83 200.33 94.04 197.63 97.33 196.79
  C 101.19 195.80 107.53 192.99 111.25 194.46
  Z"
/>
<path fill="#b9d443" d="
  M 111.25 194.46
  Q 114.74 195.63 115.00 198.25
  Q 115.85 206.75 116.79 215.25
  L 117.71 228.00
  L 118.00 233.76
  Q 118.09 235.53 116.48 236.26
  Q 111.97 238.30 107.00 238.46
  Q 104.59 235.54 106.80 233.71
  C 109.80 231.24 116.00 234.62 113.20 226.86
  A 1.11 1.10 -11.8 0 0 112.08 226.13
  Q 106.46 226.55 103.81 223.44
  Q 101.78 221.05 95.48 208.53
  C 93.74 205.05 91.11 202.59 95.50 199.29
  L 109.44 196.98
  A 0.42 0.42 78.2 0 0 109.78 196.46
  Q 109.34 194.67 111.25 194.46
  Z"
/>
<path fill="#538019" d="
  M 83.90 198.71
  L 78.78 206.86
  A 1.20 0.90 56.2 0 0 78.73 207.79
  C 81.73 216.03 83.16 223.99 85.89 231.48
  A 1.50 1.23 9.7 0 0 86.51 232.19
  Q 89.55 233.99 90.50 237.46
  Q 85.64 236.71 84.54 232.00
  L 82.10 223.52
  L 78.63 210.37
  A 1.94 1.49 -4.9 0 0 76.85 209.23
  L 73.12 209.18
  A 0.72 0.62 -1.4 0 0 72.39 209.84
  L 73.29 223.00
  L 73.25 223.49
  Q 74.08 228.12 69.56 229.31
  C 62.50 231.18 44.26 233.07 39.79 226.00
  Q 39.87 225.51 39.54 225.25
  L 36.29 212.75
  C 37.96 211.38 35.56 205.94 35.17 203.79
  Q 34.98 202.78 35.73 203.48
  C 39.44 206.93 42.00 217.51 43.14 222.48
  Q 43.92 225.89 46.69 225.61
  Q 49.35 225.34 48.44 222.82
  Q 47.24 219.49 48.55 215.45
  A 1.46 1.43 -7.6 0 1 49.15 214.68
  Q 52.19 212.77 54.80 213.26
  Q 61.06 214.43 66.66 214.44
  A 2.14 2.01 -84.7 0 0 68.66 212.67
  L 69.37 208.60
  L 76.98 207.90
  A 1.07 1.05 3.7 0 0 77.92 207.09
  Q 79.23 201.51 83.90 198.71
  Z"
/>
<path fill="#416413" d="
  M 33.51 198.49
  Q 44.55 204.82 57.25 206.79
  L 69.37 208.60
  L 68.66 212.67
  A 2.14 2.01 -84.7 0 1 66.66 214.44
  Q 61.06 214.43 54.80 213.26
  Q 52.19 212.77 49.15 214.68
  A 1.46 1.43 -7.6 0 0 48.55 215.45
  Q 47.24 219.49 48.44 222.82
  Q 49.35 225.34 46.69 225.61
  Q 43.92 225.89 43.14 222.48
  C 42.00 217.51 39.44 206.93 35.73 203.48
  Q 34.98 202.78 35.17 203.79
  C 35.56 205.94 37.96 211.38 36.29 212.75
  L 32.00 198.79
  Q 32.71 198.46 33.51 198.49
  Z"
/>
<path fill="#a8c939" d="
  M 95.50 199.29
  C 91.11 202.59 93.74 205.05 95.48 208.53
  Q 101.78 221.05 103.81 223.44
  Q 106.46 226.55 112.08 226.13
  A 1.11 1.10 -11.8 0 1 113.20 226.86
  C 116.00 234.62 109.80 231.24 106.80 233.71
  Q 104.59 235.54 107.00 238.46
  L 106.00 238.54
  C 103.72 238.04 105.02 232.26 105.20 230.49
  A 1.77 1.76 -55.3 0 0 105.03 229.54
  C 103.40 226.22 101.45 223.50 100.14 219.93
  Q 98.21 214.65 95.06 209.94
  C 93.16 207.08 89.10 200.60 95.50 199.29
  Z"
/>
<path fill="#5d901c" d="
  M 89.91 216.37
  Q 92.57 221.91 94.49 227.73
  Q 95.27 230.07 93.07 228.94
  Q 90.61 227.68 89.64 225.08
  Q 86.90 217.75 84.50 214.25
  Q 81.64 210.09 81.76 205.93
  C 81.81 203.86 83.58 202.60 84.34 205.73
  Q 85.08 208.76 86.73 211.31
  Q 89.61 215.75 89.91 216.37
  Z"
/>
<path fill="#4a5925" d="
  M 117.04 213.00
  L 118.04 225.25
  L 117.71 228.00
  L 116.79 215.25
  L 117.04 213.00
  Z"
/>
<path fill="#72a722" d="
  M 92.79 218.00
  Q 95.49 221.94 97.00 226.46
  Q 94.33 222.53 92.79 218.00
  Z"
/>
<path fill="#141614" fill-opacity="0.525" d="
  M 73.29 223.00
  Q 77.65 223.76 82.10 223.52
  L 84.54 232.00
  Q 84.27 236.23 87.58 238.48
  A 1.81 1.40 -21.3 0 0 88.49 238.75
  C 91.17 238.78 93.69 240.07 95.96 240.24
  C 102.56 240.70 114.60 241.37 118.75 235.00
  Q 119.38 234.03 120.00 234.00
  C 118.78 236.14 114.18 240.77 111.50 241.50
  C 104.38 243.43 98.94 242.67 91.96 241.47
  Q 89.68 241.08 87.59 240.10
  C 85.04 238.90 83.25 238.53 80.79 237.75
  Q 73.64 235.02 68.25 235.25
  Q 56.82 235.74 48.74 234.24
  C 45.98 233.74 43.88 233.81 41.66 231.86
  C 39.31 229.80 37.37 228.35 39.54 225.25
  Q 39.87 225.51 39.79 226.00
  Q 39.62 227.40 40.64 228.37
  Q 42.87 230.49 45.81 231.27
  C 51.61 232.80 58.95 233.90 64.84 232.33
  C 69.71 231.03 74.57 229.99 73.25 223.49
  L 73.29 223.00
  Z"
/>
<path fill="#151216" fill-opacity="0.937" d="
  M 73.25 223.49
  C 74.57 229.99 69.71 231.03 64.84 232.33
  C 58.95 233.90 51.61 232.80 45.81 231.27
  Q 42.87 230.49 40.64 228.37
  Q 39.62 227.40 39.79 226.00
  C 44.26 233.07 62.50 231.18 69.56 229.31
  Q 74.08 228.12 73.25 223.49
  Z"
/>
<path fill="#010101" fill-opacity="0.988" d="
  M 118.04 225.25
  Q 117.82 229.94 120.00 234.00
  Q 119.38 234.03 118.75 235.00
  C 114.60 241.37 102.56 240.70 95.96 240.24
  C 93.69 240.07 91.17 238.78 88.49 238.75
  A 1.81 1.40 -21.3 0 1 87.58 238.48
  Q 84.27 236.23 84.54 232.00
  Q 85.64 236.71 90.50 237.46
  L 94.50 238.46
  L 97.00 238.46
  Q 98.32 238.99 99.75 238.71
  L 106.00 238.54
  L 107.00 238.46
  Q 111.97 238.30 116.48 236.26
  Q 118.09 235.53 118.00 233.76
  L 117.71 228.00
  L 118.04 225.25
  Z"
/>
<path fill="#000001" fill-opacity="0.357" d="
  M 120.00 234.00
  Q 122.25 234.09 122.50 235.75
  Q 123.32 241.32 118.89 243.93
  C 116.13 245.56 108.66 245.17 105.39 244.68
  C 103.59 244.42 89.48 242.67 89.17 242.30
  Q 87.74 240.60 85.54 240.29
  Q 82.50 239.86 80.79 237.75
  C 83.25 238.53 85.04 238.90 87.59 240.10
  Q 89.68 241.08 91.96 241.47
  C 98.94 242.67 104.38 243.43 111.50 241.50
  C 114.18 240.77 118.78 236.14 120.00 234.00
  Z"
/>
</svg>
