<?xml version="1.0" encoding="UTF-8" standalone="no"?>
<!DOCTYPE svg PUBLIC "-//W3C//DTD SVG 1.1//EN" "http://www.w3.org/Graphics/SVG/1.1/DTD/svg11.dtd">
<svg xmlns="http://www.w3.org/2000/svg" version="1.1" viewBox="0.00 0.00 600.00 96.00">
<g stroke-width="2.00" fill="none" stroke-linecap="butt">
<path stroke="#fff19e" vector-effect="non-scaling-stroke" d="
  M 588.20 8.47
  L 582.34 16.48"
/>
<path stroke="#fed835" vector-effect="non-scaling-stroke" d="
  M 582.34 16.48
  Q 576.04 14.03 569.24 14.72
  C 567.53 14.89 565.98 14.23 564.28 14.04
  Q 563.78 13.99 563.38 14.28
  L 558.34 17.91"
/>
<path stroke="#fdbf24" vector-effect="non-scaling-stroke" d="
  M 575.69 26.20
  Q 564.11 25.91 554.90 22.90"
/>
<path stroke="#eba091" vector-effect="non-scaling-stroke" d="
  M 537.69 66.08
  L 554.76 65.76
  Q 555.29 65.75 555.43 65.24
  L 559.23 51.92"
/>
<path stroke="#f9bc8d" vector-effect="non-scaling-stroke" d="
  M 559.23 51.92
  Q 560.97 47.11 564.62 42.57"
/>
<path stroke="#fccd90" vector-effect="non-scaling-stroke" d="
  M 564.62 42.57
  L 568.94 36.19"
/>
<path stroke="#fdd88d" vector-effect="non-scaling-stroke" d="
  M 568.94 36.19
  L 575.69 26.20"
/>
<path stroke="#ffe696" vector-effect="non-scaling-stroke" d="
  M 575.69 26.20
  L 582.34 16.48"
/>
<path stroke="#faa61e" vector-effect="non-scaling-stroke" d="
  M 568.94 36.19
  Q 563.31 35.84 557.58 35.58
  C 554.45 35.44 550.93 36.54 547.32 35.86
  Q 546.86 35.77 546.44 36.00
  Q 545.92 36.30 545.00 36.27
  Q 541.05 36.17 537.00 35.69"
/>
<path stroke="#e45d1f" vector-effect="non-scaling-stroke" d="
  M 559.23 51.92
  L 558.29 52.45
  A 0.68 0.67 -38.7 0 1 557.53 52.37
  Q 556.93 51.85 556.22 51.99
  C 553.32 52.57 551.39 51.03 548.81 50.93
  Q 542.79 50.69 536.85 49.81
  Q 536.80 49.80 536.77 49.75
  L 536.59 49.45
  Q 536.45 49.22 536.32 49.45
  Q 536.10 49.85 535.78 49.75"
/>
<path stroke="#f58a1e" vector-effect="non-scaling-stroke" d="
  M 564.62 42.57
  Q 563.95 42.46 563.23 42.71
  A 0.18 0.18 0.0 0 1 563.01 42.45
  L 563.21 42.11
  A 0.28 0.27 20.6 0 0 563.02 41.70
  C 557.42 40.73 552.22 41.97 547.07 41.57
  C 544.98 41.41 541.33 40.43 539.46 40.93
  Q 538.44 41.21 538.12 40.92"
/>
<path stroke="#fdd88d" vector-effect="non-scaling-stroke" d="
  M 553.46 24.32
  Q 552.96 26.86 550.92 28.31
  Q 550.40 28.69 550.19 28.07
  L 549.79 26.92"
/>
<path stroke="#ffe696" vector-effect="non-scaling-stroke" d="
  M 549.79 26.92
  L 547.40 16.47"
/>
<path stroke="#fdbf24" vector-effect="non-scaling-stroke" d="
  M 549.79 26.92
  L 534.98 26.66"
/>
<path stroke="#fff19e" vector-effect="non-scaling-stroke" d="
  M 546.05 8.93
  L 547.40 16.47"
/>
<path stroke="#fed835" vector-effect="non-scaling-stroke" d="
  M 547.40 16.47
  Q 544.70 17.41 541.97 15.95
  A 1.31 1.31 0.0 0 0 541.01 15.85
  L 532.94 18.11"
/>
<path stroke="#fff19e" vector-effect="non-scaling-stroke" d="
  M 257.29 8.69
  L 255.56 15.99
  Q 255.44 16.49 254.97 16.67
  Q 252.96 17.46 250.74 17.33
  Q 239.49 16.67 228.46 17.23
  A 1.37 1.36 5.7 0 0 227.20 18.25
  L 225.65 24.38"
/>
<path stroke="#fed138" vector-effect="non-scaling-stroke" d="
  M 225.65 24.38
  Q 223.27 24.82 220.73 24.12
  C 216.02 22.83 211.69 22.08 207.07 21.18
  Q 204.99 20.77 204.96 17.99"
/>
<path stroke="#f6b798" vector-effect="non-scaling-stroke" d="
  M 225.67 52.82
  C 223.52 54.10 219.35 52.01 220.15 49.11"
/>
<path stroke="#f9bc8d" vector-effect="non-scaling-stroke" d="
  M 220.15 49.11
  L 221.08 44.15"
/>
<path stroke="#fccd90" vector-effect="non-scaling-stroke" d="
  M 221.08 44.15
  L 223.06 35.65"
/>
<path stroke="#fedf99" vector-effect="non-scaling-stroke" d="
  M 223.06 35.65
  L 225.65 24.38"
/>
<path stroke="#fbad2a" vector-effect="non-scaling-stroke" d="
  M 223.06 35.65
  L 217.91 35.23
  Q 217.38 35.18 216.94 34.89
  Q 215.97 34.24 214.73 34.85
  Q 214.63 34.89 214.66 34.99
  Q 214.70 35.11 214.75 35.24
  Q 214.84 35.51 214.56 35.48
  Q 208.53 35.00 202.72 33.37
  Q 202.56 33.32 202.28 33.53
  Q 201.94 33.78 201.83 33.37
  L 201.64 32.72"
/>
<path stroke="#f58a1e" vector-effect="non-scaling-stroke" d="
  M 221.08 44.15
  Q 211.05 45.09 203.75 43.29
  Q 201.17 42.66 199.76 40.70"
/>
<path stroke="#f07426" vector-effect="non-scaling-stroke" d="
  M 220.15 49.11
  Q 214.95 48.38 209.70 47.53
  Q 207.38 47.15 204.22 46.36
  Q 201.52 45.69 198.76 45.12"
/>
<path stroke="#e46031" vector-effect="non-scaling-stroke" d="
  M 247.23 53.77
  Q 238.18 54.48 229.16 53.59
  Q 228.64 53.54 228.16 53.77
  Q 225.63 54.99 222.82 55.37
  Q 222.38 55.42 222.16 55.05
  L 221.85 54.52
  A 0.30 0.27 74.5 0 0 221.63 54.38
  C 213.90 53.42 205.17 53.47 197.51 50.64"
/>
<path stroke="#fccd90" vector-effect="non-scaling-stroke" d="
  M 252.12 32.57
  L 248.90 46.13"
/>
<path stroke="#f38529" vector-effect="non-scaling-stroke" d="
  M 248.90 46.13
  Q 247.58 44.51 244.98 45.12
  Q 244.56 45.21 244.96 45.38
  Q 245.28 45.52 245.25 45.86
  A 0.21 0.20 1.4 0 1 245.04 46.05
  Q 240.91 45.92 236.83 45.09
  C 235.26 44.77 234.19 43.49 232.20 43.81
  Q 231.47 43.93 231.24 43.64
  Q 230.98 43.29 230.83 42.55"
/>
<path stroke="#eba091" vector-effect="non-scaling-stroke" d="
  M 252.30 60.39
  L 250.77 64.66"
/>
<path stroke="#eda998" vector-effect="non-scaling-stroke" d="
  M 202.76 66.65
  Q 217.93 66.55 233.13 66.49
  C 242.93 66.45 245.19 62.71 247.23 53.77"
/>
<path stroke="#f6b798" vector-effect="non-scaling-stroke" d="
  M 247.23 53.77
  L 248.90 46.13"
/>
<path stroke="#eba091" vector-effect="non-scaling-stroke" d="
  M 289.27 54.29
  Q 289.60 55.61 289.39 56.79"
/>
<path stroke="#eba091" vector-effect="non-scaling-stroke" d="
  M 257.16 66.63
  L 270.58 66.65
  A 0.56 0.56 0.0 0 0 271.02 65.75
  L 270.12 64.59
  Q 269.78 64.15 269.97 63.62
  L 271.95 58.26"
/>
<path stroke="#f0a98f" vector-effect="non-scaling-stroke" d="
  M 274.40 52.41
  L 271.95 58.26"
/>
<path stroke="#dc4921" vector-effect="non-scaling-stroke" d="
  M 271.95 58.26
  Q 271.23 58.48 270.49 58.28
  Q 270.09 58.17 269.72 58.36
  Q 268.37 59.08 267.14 58.07
  Q 266.81 57.80 266.39 57.70
  C 263.64 57.01 261.04 55.92 258.18 56.06
  Q 256.45 56.14 254.51 56.24"
/>
<path stroke="#e76028" vector-effect="non-scaling-stroke" d="
  M 310.50 50.84
  Q 305.92 50.58 301.38 50.39
  C 296.75 50.19 292.55 51.32 288.02 52.12"
/>
<path stroke="#f6b798" vector-effect="non-scaling-stroke" d="
  M 288.02 52.12
  L 274.40 52.41"
/>
<path stroke="#e76028" vector-effect="non-scaling-stroke" d="
  M 274.40 52.41
  Q 270.22 50.97 265.71 49.98
  Q 264.00 49.61 261.75 49.75
  Q 259.77 49.88 257.75 49.82"
/>
<path stroke="#dc4921" vector-effect="non-scaling-stroke" d="
  M 310.78 53.90
  Q 299.85 53.03 290.56 53.31
  Q 289.52 53.35 289.27 54.29"
/>
<path stroke="#f0a98f" vector-effect="non-scaling-stroke" d="
  M 289.27 54.29
  L 289.24 52.81
  Q 289.23 52.36 288.79 52.27
  L 288.02 52.12"
/>
<path stroke="#eba091" vector-effect="non-scaling-stroke" d="
  M 295.32 66.77
  L 310.93 66.58
  Q 311.89 66.57 311.81 65.61
  L 310.78 53.90"
/>
<path stroke="#f0a98f" vector-effect="non-scaling-stroke" d="
  M 310.78 53.90
  L 310.50 50.84"
/>
<path stroke="#f6b798" vector-effect="non-scaling-stroke" d="
  M 310.50 50.84
  L 309.99 44.14"
/>
<path stroke="#fcc88d" vector-effect="non-scaling-stroke" d="
  M 309.99 44.14
  L 309.72 40.49"
/>
<path stroke="#fccd90" vector-effect="non-scaling-stroke" d="
  M 309.72 40.49
  L 309.30 33.61"
/>
<path stroke="#fedf99" vector-effect="non-scaling-stroke" d="
  M 309.30 33.61
  L 308.72 24.77"
/>
<path stroke="#ffe696" vector-effect="non-scaling-stroke" d="
  M 308.72 24.77
  L 308.51 21.43"
/>
<path stroke="#f8961e" vector-effect="non-scaling-stroke" d="
  M 288.05 41.05
  Q 295.45 41.33 302.58 40.96
  C 304.12 40.88 305.73 39.67 307.50 40.72
  Q 307.88 40.94 308.31 40.84
  L 309.72 40.49"
/>
<path stroke="#f37f26" vector-effect="non-scaling-stroke" d="
  M 309.99 44.14
  C 307.17 44.77 303.20 46.17 300.54 44.88
  Q 300.09 44.66 299.59 44.70
  Q 294.26 45.05 288.96 44.82
  C 279.77 44.42 269.93 47.29 261.38 42.67"
/>
<path stroke="#fff19e" vector-effect="non-scaling-stroke" d="
  M 307.63 8.83
  L 308.51 21.43"
/>
<path stroke="#fed835" vector-effect="non-scaling-stroke" d="
  M 308.51 21.43
  Q 303.45 21.44 301.89 20.84
  C 295.32 18.32 290.22 23.13 283.76 19.70
  Q 283.32 19.47 282.82 19.47
  Q 278.27 19.49 273.98 17.75"
/>
<path stroke="#fec630" vector-effect="non-scaling-stroke" d="
  M 308.72 24.77
  Q 298.42 23.04 288.46 23.65"
/>
<path stroke="#ffe696" vector-effect="non-scaling-stroke" d="
  M 288.46 23.65
  Q 287.43 22.52 285.85 27.33"
/>
<path stroke="#fdbf24" vector-effect="non-scaling-stroke" d="
  M 285.85 27.33
  Q 281.56 27.93 277.77 26.53
  C 275.09 25.54 272.93 25.81 270.26 25.25"
/>
<path stroke="#fbad2a" vector-effect="non-scaling-stroke" d="
  M 309.30 33.61
  Q 301.88 34.67 294.50 34.12
  Q 293.39 34.04 292.70 35.11
  Q 292.47 35.48 292.06 35.62
  Q 290.19 36.28 288.70 35.59"
/>
<path stroke="#faa01b" vector-effect="non-scaling-stroke" d="
  M 281.98 35.45
  C 279.05 34.61 276.12 35.17 273.38 34.59
  Q 269.87 33.85 266.35 32.75"
/>
<path stroke="#fedf99" vector-effect="non-scaling-stroke" d="
  M 288.46 23.65
  L 288.70 35.59"
/>
<path stroke="#fccd90" vector-effect="non-scaling-stroke" d="
  M 288.70 35.59
  Q 288.85 36.53 288.49 37.63"
/>
<path stroke="#fcc88d" vector-effect="non-scaling-stroke" d="
  M 286.74 41.54
  L 280.28 41.21
  Q 279.74 41.19 279.94 40.68
  L 281.98 35.45"
/>
<path stroke="#fdd88d" vector-effect="non-scaling-stroke" d="
  M 281.98 35.45
  L 285.85 27.33"
/>
<path stroke="#fff19e" vector-effect="non-scaling-stroke" d="
  M 461.03 9.51
  Q 461.11 15.09 459.54 20.51"
/>
<path stroke="#fed138" vector-effect="non-scaling-stroke" d="
  M 459.54 20.51
  Q 458.44 20.80 457.98 20.27
  Q 457.68 19.92 457.23 19.79
  C 452.74 18.50 446.40 19.85 441.49 19.50
  Q 440.90 19.46 440.69 18.90
  L 440.46 18.27
  Q 440.38 18.05 440.27 18.26
  Q 440.10 18.57 439.88 18.46"
/>
<path stroke="#fff19e" vector-effect="non-scaling-stroke" d="
  M 440.01 17.98
  Q 440.88 16.23 440.63 14.22
  A 0.72 0.72 0.0 0 0 439.94 13.59
  L 430.60 13.15
  A 1.59 1.58 7.6 0 0 428.98 14.38
  L 427.80 19.53"
/>
<path stroke="#fdca2c" vector-effect="non-scaling-stroke" d="
  M 427.80 19.53
  C 423.83 19.44 420.76 19.32 416.25 18.70
  Q 413.06 18.26 409.07 19.26
  Q 407.96 19.54 407.53 18.48
  L 407.08 17.38"
/>
<path stroke="#eba091" vector-effect="non-scaling-stroke" d="
  M 402.10 66.30
  C 415.00 66.22 428.63 67.02 441.52 66.08
  C 449.14 65.53 451.54 66.01 453.48 57.62"
/>
<path stroke="#f0a98f" vector-effect="non-scaling-stroke" d="
  M 453.48 57.62
  L 455.15 49.82"
/>
<path stroke="#f9bc8d" vector-effect="non-scaling-stroke" d="
  M 455.15 49.82
  Q 457.42 43.31 456.55 37.69"
/>
<path stroke="#fdd88d" vector-effect="non-scaling-stroke" d="
  M 456.55 37.69
  L 453.01 34.67
  A 0.81 0.81 0.0 0 1 453.30 33.28
  Q 456.13 32.41 457.54 29.49"
/>
<path stroke="#fedf99" vector-effect="non-scaling-stroke" d="
  M 457.54 29.49
  L 459.54 20.51"
/>
<path stroke="#fdd88d" vector-effect="non-scaling-stroke" d="
  M 432.31 28.75
  L 426.80 28.64
  Q 426.15 28.63 426.27 27.98
  L 427.80 19.53"
/>
<path stroke="#fcb827" vector-effect="non-scaling-stroke" d="
  M 437.18 28.40
  C 439.53 27.83 441.98 29.22 444.27 29.28
  C 448.70 29.41 453.02 29.71 457.54 29.49"
/>
<path stroke="#f7951b" vector-effect="non-scaling-stroke" d="
  M 456.55 37.69
  C 452.56 40.63 450.92 38.67 447.11 38.74
  Q 441.87 38.83 436.70 39.33"
/>
<path stroke="#fdd88d" vector-effect="non-scaling-stroke" d="
  M 436.70 39.33
  Q 437.03 39.23 435.50 38.30"
/>
<path stroke="#faa01b" vector-effect="non-scaling-stroke" d="
  M 435.50 38.30
  L 428.72 37.39
  Q 428.29 37.33 427.86 37.40
  L 425.57 37.78
  Q 424.98 37.88 424.52 37.51
  C 422.60 35.96 419.33 37.28 416.76 36.96
  Q 409.98 36.11 402.83 36.05"
/>
<path stroke="#ea661d" vector-effect="non-scaling-stroke" d="
  M 455.15 49.82
  C 451.19 48.81 447.91 47.39 443.60 47.40
  Q 439.32 47.41 434.98 45.56"
/>
<path stroke="#f9bc8d" vector-effect="non-scaling-stroke" d="
  M 435.16 43.12
  Q 436.42 42.71 436.70 39.33"
/>
<path stroke="#dc4921" vector-effect="non-scaling-stroke" d="
  M 453.48 57.62
  Q 451.05 58.82 448.76 57.50
  Q 448.33 57.25 447.82 57.26
  C 444.47 57.27 441.51 56.08 438.26 56.37
  Q 434.74 56.69 431.79 56.36"
/>
<path stroke="#eba091" vector-effect="non-scaling-stroke" d="
  M 426.00 56.47
  Q 422.46 56.88 419.58 55.91"
/>
<path stroke="#f0a98f" vector-effect="non-scaling-stroke" d="
  M 419.58 55.91
  L 420.72 51.41"
/>
<path stroke="#f6b798" vector-effect="non-scaling-stroke" d="
  M 420.72 51.41
  L 422.46 43.12"
/>
<path stroke="#fcc88d" vector-effect="non-scaling-stroke" d="
  M 435.50 38.30
  C 430.76 38.78 422.49 35.95 422.46 43.12"
/>
<path stroke="#f37f26" vector-effect="non-scaling-stroke" d="
  M 422.46 43.12
  L 419.61 43.59
  Q 419.25 43.65 419.14 44.00
  Q 418.83 44.95 417.26 45.00
  C 414.75 45.06 412.88 44.03 410.87 43.89
  Q 406.11 43.56 401.17 43.23"
/>
<path stroke="#dc4921" vector-effect="non-scaling-stroke" d="
  M 419.58 55.91
  Q 418.15 56.61 416.59 55.95
  Q 416.53 55.92 416.54 55.91
  L 416.74 55.73
  Q 416.99 55.51 416.68 55.40
  C 414.01 54.48 410.92 54.75 408.47 54.47
  Q 404.61 54.02 400.76 54.73
  Q 400.36 54.80 400.25 54.41
  Q 399.79 52.73 398.77 53.42"
/>
<path stroke="#e76028" vector-effect="non-scaling-stroke" d="
  M 420.72 51.41
  C 417.39 51.17 414.16 50.14 410.94 50.06
  Q 405.23 49.92 399.76 49.16"
/>
<path stroke="#fff19e" vector-effect="non-scaling-stroke" d="
  M 382.57 9.81
  Q 382.68 16.49 380.37 23.59"
/>
<path stroke="#fed138" vector-effect="non-scaling-stroke" d="
  M 380.37 23.59
  Q 372.34 21.38 363.84 21.90
  A 0.97 0.95 -76.6 0 0 363.06 22.39
  Q 362.12 24.01 360.73 24.43"
/>
<path stroke="#fff19e" vector-effect="non-scaling-stroke" d="
  M 362.30 17.77
  Q 363.33 16.06 363.40 13.99
  Q 363.42 13.52 362.95 13.45
  Q 356.83 12.54 351.86 13.67"
/>
<path stroke="#fed835" vector-effect="non-scaling-stroke" d="
  M 351.86 13.67
  Q 348.22 16.04 343.53 15.23
  Q 340.40 14.70 329.19 15.36"
/>
<path stroke="#fdbf24" vector-effect="non-scaling-stroke" d="
  M 349.09 26.64
  L 327.20 24.26"
/>
<path stroke="#eba091" vector-effect="non-scaling-stroke" d="
  M 361.75 66.61
  L 375.24 66.54
  Q 376.71 66.54 376.96 65.09
  L 378.18 57.99"
/>
<path stroke="#f0a98f" vector-effect="non-scaling-stroke" d="
  M 378.18 57.99
  Q 378.78 55.52 378.32 53.23
  A 0.55 0.54 -4.0 0 0 377.81 52.79
  L 376.03 52.68
  A 0.81 0.79 78.0 0 1 375.37 52.24
  L 371.28 44.09"
/>
<path stroke="#fcc88d" vector-effect="non-scaling-stroke" d="
  M 371.28 44.09
  L 368.08 36.75"
/>
<path stroke="#fdd88d" vector-effect="non-scaling-stroke" d="
  M 368.08 36.75
  C 373.49 36.97 377.03 37.33 378.65 31.09"
/>
<path stroke="#fedf99" vector-effect="non-scaling-stroke" d="
  M 378.65 31.09
  L 380.37 23.59"
/>
<path stroke="#fcb827" vector-effect="non-scaling-stroke" d="
  M 378.65 31.09
  Q 371.84 30.24 365.04 30.44
  C 362.75 30.51 361.17 29.80 359.06 29.23"
/>
<path stroke="#fdd88d" vector-effect="non-scaling-stroke" d="
  M 354.92 29.54
  L 349.30 29.36
  Q 348.67 29.34 348.77 28.71
  L 349.09 26.64"
/>
<path stroke="#ffe696" vector-effect="non-scaling-stroke" d="
  M 349.09 26.64
  L 351.86 13.67"
/>
<path stroke="#faa01b" vector-effect="non-scaling-stroke" d="
  M 368.08 36.75
  L 349.16 34.98
  Q 348.68 34.94 348.24 35.12
  C 344.46 36.65 338.18 36.09 334.01 36.17
  C 331.70 36.21 330.00 35.35 327.65 35.19
  Q 327.15 35.16 326.73 34.89
  Q 325.47 34.07 325.15 33.02"
/>
<path stroke="#dc4921" vector-effect="non-scaling-stroke" d="
  M 378.18 57.99
  Q 377.59 57.64 376.70 57.77
  Q 376.16 57.84 375.73 57.50
  Q 374.24 56.33 373.11 57.93
  Q 372.85 58.30 372.40 58.30
  C 368.16 58.23 363.11 57.05 359.05 58.15
  Q 356.74 58.78 354.82 58.51"
/>
<path stroke="#ed711d" vector-effect="non-scaling-stroke" d="
  M 371.28 44.09
  Q 369.27 43.87 367.46 43.62
  Q 365.45 43.35 363.63 43.33
  Q 358.70 43.27 353.78 43.17
  Q 353.29 43.16 352.85 42.94
  Q 352.16 42.60 351.51 43.22
  Q 351.18 43.53 350.76 43.39
  Q 349.65 43.05 348.23 43.62"
/>
<path stroke="#fcc88d" vector-effect="non-scaling-stroke" d="
  M 348.23 43.62
  Q 347.73 41.79 346.81 41.00
  Q 346.28 40.54 346.11 41.22
  L 345.46 44.02"
/>
<path stroke="#f37f26" vector-effect="non-scaling-stroke" d="
  M 345.46 44.02
  Q 341.13 43.47 336.83 43.06
  C 333.69 42.76 329.12 41.40 324.76 42.20
  Q 324.05 42.33 323.79 42.05
  Q 323.48 41.71 323.40 40.96"
/>
<path stroke="#f0a98f" vector-effect="non-scaling-stroke" d="
  M 348.23 43.62
  L 350.81 49.07"
/>
<path stroke="#eba091" vector-effect="non-scaling-stroke" d="
  M 323.81 66.61
  L 341.73 66.59
  A 0.55 0.55 0.0 0 0 342.15 65.70
  L 341.12 64.41
  Q 340.87 64.09 340.95 63.69
  L 342.70 55.70"
/>
<path stroke="#f0a98f" vector-effect="non-scaling-stroke" d="
  M 342.70 55.70
  L 343.98 50.11"
/>
<path stroke="#f6b798" vector-effect="non-scaling-stroke" d="
  M 343.98 50.11
  L 345.46 44.02"
/>
<path stroke="#e76028" vector-effect="non-scaling-stroke" d="
  M 343.98 50.11
  Q 334.68 47.62 325.51 47.84
  Q 325.25 47.84 324.51 47.69
  Q 323.66 47.51 323.34 48.39
  Q 323.18 48.83 322.71 48.78
  Q 322.17 48.72 321.84 47.72"
/>
<path stroke="#dc4921" vector-effect="non-scaling-stroke" d="
  M 342.70 55.70
  Q 341.74 55.70 339.27 54.79
  Q 336.93 53.93 332.68 54.67
  Q 329.07 55.30 320.48 53.29"
/>
<path stroke="#fff19e" vector-effect="non-scaling-stroke" d="
  M 521.91 8.78
  Q 524.99 14.87 523.17 21.70"
/>
<path stroke="#fed138" vector-effect="non-scaling-stroke" d="
  M 523.17 21.70
  L 507.53 20.59
  Q 507.04 20.55 506.66 20.87
  Q 505.84 21.56 504.98 21.28
  Q 502.05 20.34 500.74 20.32"
/>
<path stroke="#fff19e" vector-effect="non-scaling-stroke" d="
  M 500.74 20.32
  C 497.30 11.11 490.80 18.67 490.03 23.98"
/>
<path stroke="#fdca2c" vector-effect="non-scaling-stroke" d="
  M 490.03 23.98
  C 487.12 23.97 484.82 22.92 481.97 23.10
  Q 477.57 23.37 473.24 22.67
  Q 470.25 22.19 469.86 24.94
  A 0.85 0.59 -58.6 0 1 468.56 25.51
  L 468.40 24.98"
/>
<path stroke="#eba091" vector-effect="non-scaling-stroke" d="
  M 468.00 66.17
  Q 495.52 66.40 503.25 66.00
  Q 513.69 65.46 515.55 54.49"
/>
<path stroke="#f6b798" vector-effect="non-scaling-stroke" d="
  M 515.55 54.49
  L 517.68 45.24"
/>
<path stroke="#fcc88d" vector-effect="non-scaling-stroke" d="
  M 517.68 45.24
  L 520.31 33.70"
/>
<path stroke="#fedf99" vector-effect="non-scaling-stroke" d="
  M 520.31 33.70
  L 523.17 21.70"
/>
<path stroke="#faa01b" vector-effect="non-scaling-stroke" d="
  M 486.81 37.78
  Q 485.39 38.10 484.17 37.23
  Q 483.80 36.97 483.34 37.04
  Q 479.49 37.66 478.25 37.52
  Q 472.08 36.79 465.81 36.06"
/>
<path stroke="#fedf99" vector-effect="non-scaling-stroke" d="
  M 500.74 20.32
  L 500.27 21.06"
/>
<path stroke="#eba091" vector-effect="non-scaling-stroke" d="
  M 490.02 53.01
  Q 488.36 53.53 486.91 53.02"
/>
<path stroke="#f6b798" vector-effect="non-scaling-stroke" d="
  M 486.91 53.02
  C 482.42 50.78 485.09 46.30 485.76 42.73"
/>
<path stroke="#fcc88d" vector-effect="non-scaling-stroke" d="
  M 485.76 42.73
  L 486.81 37.78"
/>
<path stroke="#fdd88d" vector-effect="non-scaling-stroke" d="
  M 486.81 37.78
  L 490.03 23.98"
/>
<path stroke="#fba827" vector-effect="non-scaling-stroke" d="
  M 520.31 33.70
  Q 518.34 34.56 517.69 34.00
  Q 517.41 33.75 517.04 33.75
  C 513.99 33.71 510.70 32.62 507.11 32.90
  C 503.79 33.16 500.87 32.39 497.55 32.25"
/>
<path stroke="#f37f26" vector-effect="non-scaling-stroke" d="
  M 517.68 45.24
  Q 517.13 45.24 516.98 45.81
  Q 516.87 46.21 516.45 46.26
  Q 516.02 46.30 515.94 45.94
  Q 515.87 45.59 515.51 45.56
  L 507.13 45.00
  Q 506.79 44.98 506.79 44.64
  L 506.79 44.30
  Q 506.79 44.07 506.58 43.98
  Q 501.37 41.73 495.30 41.63"
/>
<path stroke="#e2572a" vector-effect="non-scaling-stroke" d="
  M 515.55 54.49
  L 491.97 51.17"
/>
<path stroke="#f37f26" vector-effect="non-scaling-stroke" d="
  M 485.76 42.73
  Q 484.36 44.71 481.48 43.97
  Q 479.87 43.55 473.60 43.53
  Q 473.56 43.53 473.55 43.57
  Q 473.53 43.71 473.51 43.81
  Q 473.46 44.09 473.19 44.06
  Q 468.29 43.49 464.80 40.81"
/>
<path stroke="#e2572a" vector-effect="non-scaling-stroke" d="
  M 486.91 53.02
  Q 485.15 55.67 482.58 51.66
  A 1.15 1.15 0.0 0 0 481.67 51.13
  L 475.69 50.91
  A 0.52 0.51 -29.5 0 1 475.43 50.84
  Q 472.14 49.14 468.44 49.54
  A 1.28 1.19 52.9 0 1 467.76 49.42
  Q 466.21 48.63 464.49 48.75
  Q 464.01 48.78 463.81 48.34
  L 463.30 47.21"
/>
<path stroke="#fff19e" vector-effect="non-scaling-stroke" d="
  M 72.09 9.29
  C 70.87 12.58 69.62 21.56 65.26 21.56
  Q 52.68 21.57 47.14 21.82"
/>
<path stroke="#fed835" vector-effect="non-scaling-stroke" d="
  M 47.14 21.82
  Q 40.25 18.99 30.78 19.91
  A 1.71 1.71 0.0 0 1 29.80 19.71
  Q 26.97 18.16 24.10 19.67
  A 0.23 0.22 1.4 0 1 23.80 19.36
  L 23.97 19.08
  A 0.39 0.39 0.0 0 0 23.73 18.51
  Q 19.08 17.37 14.60 19.29
  Q 14.52 19.33 14.51 19.24
  L 14.45 18.81
  A 0.14 0.14 0.0 0 0 14.23 18.72
  L 13.70 19.16
  Q 13.61 19.23 13.54 19.14
  Q 13.47 19.04 13.45 18.79"
/>
<path stroke="#f6b798" vector-effect="non-scaling-stroke" d="
  M 42.72 66.76
  Q 41.98 67.59 40.98 66.90"
/>
<path stroke="#f9bc8d" vector-effect="non-scaling-stroke" d="
  M 40.98 66.90
  Q 36.82 64.67 37.41 60.03"
/>
<path stroke="#fccd90" vector-effect="non-scaling-stroke" d="
  M 37.41 60.03
  L 40.50 47.47"
/>
<path stroke="#fdd88d" vector-effect="non-scaling-stroke" d="
  M 40.50 47.47
  L 41.60 43.55"
/>
<path stroke="#ffe696" vector-effect="non-scaling-stroke" d="
  M 41.60 43.55
  Q 43.56 32.22 47.14 21.82"
/>
<path stroke="#fdbf24" vector-effect="non-scaling-stroke" d="
  M 41.60 43.55
  C 38.32 44.12 38.77 41.13 36.28 41.51
  Q 35.78 41.59 35.33 41.39
  C 31.09 39.55 27.75 40.65 23.59 39.80
  Q 19.27 38.92 14.85 39.39
  A 0.05 0.05 0.0 0 1 14.81 39.31
  Q 14.90 39.22 15.00 39.13
  A 0.05 0.02 -1.7 0 0 14.94 39.11
  L 10.11 39.55
  Q 9.64 39.59 9.50 39.14
  L 9.15 37.98"
/>
<path stroke="#f07426" vector-effect="non-scaling-stroke" d="
  M 40.98 66.90
  Q 40.09 68.78 38.89 67.64
  Q 37.97 66.77 36.98 65.80
  Q 36.62 65.45 36.22 65.76
  C 34.61 67.02 31.59 65.98 29.48 66.43
  Q 27.02 66.95 25.42 66.99
  C 20.30 67.10 16.03 67.98 10.34 66.85
  C 8.06 66.40 5.95 66.77 3.71 66.90
  Q 3.31 66.93 3.15 66.56
  Q 2.97 66.13 3.01 65.73"
/>
<path stroke="#f6b798" vector-effect="non-scaling-stroke" d="
  M 66.54 71.51
  L 64.05 79.07"
/>
<path stroke="#e46031" vector-effect="non-scaling-stroke" d="
  M 64.05 79.07
  Q 61.96 78.88 59.67 76.50
  A 1.03 1.02 66.0 0 0 58.87 76.19
  L 39.41 77.57
  Q 39.04 77.60 39.01 77.22
  Q 39.00 77.02 39.00 76.81
  Q 39.00 76.34 38.54 76.33
  L 27.17 75.98
  Q 26.69 75.97 26.30 76.24
  Q 25.85 76.55 25.48 76.47
  C 17.85 74.75 9.15 80.09 1.89 76.24"
/>
<path stroke="#f58a1e" vector-effect="non-scaling-stroke" d="
  M 37.41 60.03
  Q 36.44 60.23 34.51 59.79
  Q 31.50 59.10 31.42 61.89
  Q 31.40 62.48 30.81 62.45
  L 21.51 61.88
  A 0.21 0.16 53.3 0 1 21.41 61.85
  Q 20.40 61.22 19.46 61.63
  Q 18.99 61.83 18.48 61.82
  Q 16.17 61.78 13.85 61.91
  C 11.10 62.06 8.16 60.94 4.97 62.47
  Q 4.36 62.77 3.91 61.43"
/>
<path stroke="#faa61e" vector-effect="non-scaling-stroke" d="
  M 40.50 47.47
  Q 39.51 46.05 37.72 47.01
  Q 37.20 47.29 36.74 46.92
  Q 35.77 46.13 34.63 46.76
  Q 34.18 47.01 33.66 46.98
  L 7.40 45.65"
/>
<path stroke="#eda998" vector-effect="non-scaling-stroke" d="
  M 9.94 86.20
  C 12.50 86.78 14.77 87.49 17.42 87.49
  Q 36.43 87.53 55.53 87.47
  Q 63.31 87.44 64.05 79.07"
/>
<path stroke="#fff19e" vector-effect="non-scaling-stroke" d="
  M 198.99 8.97
  L 195.31 25.11"
/>
<path stroke="#fed138" vector-effect="non-scaling-stroke" d="
  M 195.31 25.11
  Q 192.21 23.42 187.99 23.13
  Q 185.08 22.93 174.66 21.56"
/>
<path stroke="#fbad2a" vector-effect="non-scaling-stroke" d="
  M 193.82 32.06
  L 179.38 29.85
  Q 179.27 29.83 179.32 29.93
  L 179.46 30.18
  A 0.12 0.02 64.5 0 1 179.50 30.32
  Q 177.73 29.40 175.81 30.10
  A 0.83 0.83 0.0 0 1 174.87 29.83
  Q 173.57 28.14 172.81 29.25"
/>
<path stroke="#eda998" vector-effect="non-scaling-stroke" d="
  M 143.19 66.39
  Q 157.25 66.82 171.28 66.60
  C 180.48 66.46 186.23 64.33 188.39 55.04"
/>
<path stroke="#f6b798" vector-effect="non-scaling-stroke" d="
  M 188.39 55.04
  L 190.24 47.56"
/>
<path stroke="#fcc88d" vector-effect="non-scaling-stroke" d="
  M 190.24 47.56
  L 191.95 40.15"
/>
<path stroke="#fccd90" vector-effect="non-scaling-stroke" d="
  M 191.95 40.15
  L 193.82 32.06"
/>
<path stroke="#fedf99" vector-effect="non-scaling-stroke" d="
  M 193.82 32.06
  L 195.31 25.11"
/>
<path stroke="#f8961e" vector-effect="non-scaling-stroke" d="
  M 191.95 40.15
  Q 185.35 40.40 178.72 40.42
  C 176.56 40.42 171.53 38.79 170.87 36.53"
/>
<path stroke="#f37f26" vector-effect="non-scaling-stroke" d="
  M 190.24 47.56
  Q 178.87 48.43 168.77 45.25"
/>
<path stroke="#e46031" vector-effect="non-scaling-stroke" d="
  M 188.39 55.04
  Q 180.22 53.08 177.50 53.31
  Q 172.27 53.76 167.03 53.72
  Q 166.56 53.72 166.33 53.31
  L 165.65 52.09"
/>
<path stroke="#f6b798" vector-effect="non-scaling-stroke" d="
  M 165.90 51.60
  Q 165.91 51.27 165.65 52.09"
/>
<path stroke="#eda998" vector-effect="non-scaling-stroke" d="
  M 165.65 52.09
  Q 164.53 53.20 161.57 53.06"
/>
<path stroke="#f6b798" vector-effect="non-scaling-stroke" d="
  M 161.57 53.06
  L 159.67 50.81"
/>
<path stroke="#fcc88d" vector-effect="non-scaling-stroke" d="
  M 159.67 50.81
  L 161.28 43.02"
/>
<path stroke="#fccd90" vector-effect="non-scaling-stroke" d="
  M 161.28 43.02
  L 163.78 32.02"
/>
<path stroke="#fedf99" vector-effect="non-scaling-stroke" d="
  M 163.78 32.02
  L 165.55 24.53"
/>
<path stroke="#e46031" vector-effect="non-scaling-stroke" d="
  M 161.57 53.06
  Q 154.71 53.81 147.94 53.35
  Q 147.45 53.31 147.06 53.87
  Q 146.80 54.25 146.34 54.23
  Q 140.31 54.07 136.53 51.34"
/>
<path stroke="#f8961e" vector-effect="non-scaling-stroke" d="
  M 161.28 43.02
  Q 161.24 42.23 160.33 42.85
  Q 159.89 43.15 159.35 43.10
  L 148.90 42.13
  Q 148.54 42.10 148.25 41.88
  Q 145.26 39.66 142.04 41.16
  Q 141.55 41.39 141.16 41.02
  L 139.33 39.23"
/>
<path stroke="#fff19e" vector-effect="non-scaling-stroke" d="
  M 169.05 9.45
  L 165.55 24.53"
/>
<path stroke="#fed138" vector-effect="non-scaling-stroke" d="
  M 165.55 24.53
  L 145.95 22.49
  Q 145.43 22.44 145.07 22.81
  L 144.68 23.20
  Q 144.22 23.66 143.87 23.11
  Q 143.52 22.56 143.40 21.70"
/>
<path stroke="#fbad2a" vector-effect="non-scaling-stroke" d="
  M 163.78 32.02
  C 157.52 31.97 150.09 31.34 144.05 32.40
  Q 142.19 32.72 141.34 30.47"
/>
<path stroke="#f37f26" vector-effect="non-scaling-stroke" d="
  M 159.67 50.81
  Q 158.16 50.39 157.55 48.92
  Q 157.36 48.46 156.89 48.30
  Q 155.62 47.88 154.32 48.35
  A 0.59 0.51 35.3 0 1 154.11 48.37
  L 144.33 47.05
  Q 143.95 47.00 143.61 46.81
  Q 141.89 45.81 139.91 46.02
  A 0.99 0.99 0.0 0 1 138.96 45.56
  Q 138.49 44.80 138.40 43.39"
/>
<path stroke="#fff19e" vector-effect="non-scaling-stroke" d="
  M 133.52 9.43
  Q 135.91 13.76 135.47 17.75
  Q 135.06 21.50 133.76 25.81"
/>
<path stroke="#fed138" vector-effect="non-scaling-stroke" d="
  M 133.76 25.81
  Q 131.46 25.17 129.22 24.62
  C 124.43 23.44 118.76 23.73 113.79 23.28
  Q 113.15 23.22 113.34 22.61
  L 113.51 22.08
  A 0.24 0.24 0.0 0 0 113.27 21.76
  Q 112.78 21.77 112.94 21.63"
/>
<path stroke="#fff19e" vector-effect="non-scaling-stroke" d="
  M 112.94 21.63
  Q 112.89 21.51 113.00 21.20
  Q 113.11 20.85 113.01 20.49
  Q 112.21 17.70 109.47 16.65
  Q 108.95 16.44 108.43 16.63
  Q 103.16 18.50 102.46 25.78"
/>
<path stroke="#fed138" vector-effect="non-scaling-stroke" d="
  M 102.46 25.78
  Q 91.87 23.02 80.81 23.11"
/>
<path stroke="#fba827" vector-effect="non-scaling-stroke" d="
  M 131.03 37.95
  L 109.53 35.94"
/>
<path stroke="#fba827" vector-effect="non-scaling-stroke" d="
  M 99.85 36.70
  Q 98.32 37.62 97.52 36.70
  A 0.11 0.10 34.8 0 0 97.34 36.73
  Q 97.29 36.87 97.25 37.01
  Q 97.16 37.33 96.87 37.16
  Q 95.91 36.56 94.84 36.63
  C 92.55 36.78 90.42 36.57 88.15 36.44
  Q 88.01 36.43 88.08 36.32
  L 88.22 36.05
  Q 88.43 35.65 87.97 35.59
  L 78.09 34.40"
/>
<path stroke="#eda998" vector-effect="non-scaling-stroke" d="
  M 79.96 66.69
  Q 94.04 66.89 108.03 66.66
  C 117.40 66.51 123.09 66.78 126.45 57.75"
/>
<path stroke="#f6b798" vector-effect="non-scaling-stroke" d="
  M 126.45 57.75
  L 128.43 49.78"
/>
<path stroke="#fcc88d" vector-effect="non-scaling-stroke" d="
  M 128.43 49.78
  L 131.03 37.95"
/>
<path stroke="#fedf99" vector-effect="non-scaling-stroke" d="
  M 131.03 37.95
  L 133.76 25.81"
/>
<path stroke="#f6b798" vector-effect="non-scaling-stroke" d="
  M 102.57 53.33
  Q 101.84 54.50 100.06 53.94
  Q 97.87 53.24 96.93 50.46"
/>
<path stroke="#fcc88d" vector-effect="non-scaling-stroke" d="
  M 96.93 50.46
  L 99.85 36.70"
/>
<path stroke="#fedf99" vector-effect="non-scaling-stroke" d="
  M 99.85 36.70
  L 102.46 25.78"
/>
<path stroke="#f37f26" vector-effect="non-scaling-stroke" d="
  M 128.43 49.78
  C 123.56 49.00 118.37 46.84 114.26 47.49
  Q 113.77 47.57 113.34 47.33
  C 111.23 46.14 110.17 44.46 107.24 45.76"
/>
<path stroke="#f37f26" vector-effect="non-scaling-stroke" d="
  M 96.93 50.46
  Q 92.77 48.44 88.25 48.35
  Q 84.55 48.27 82.78 47.82
  Q 79.00 46.84 75.50 45.59"
/>
<path stroke="#e46031" vector-effect="non-scaling-stroke" d="
  M 126.45 57.75
  C 124.07 57.88 122.64 58.55 120.25 57.79
  C 114.62 56.01 107.73 56.76 101.83 56.74
  Q 101.32 56.74 100.90 56.45
  Q 99.98 55.81 99.17 56.29
  Q 98.84 56.48 98.48 56.57
  Q 96.43 57.10 94.48 56.59
  C 91.23 55.73 88.18 56.86 85.49 56.69
  Q 79.36 56.28 73.48 54.52"
/>
</g>
<path fill="#fee33d" d="
  M 588.20 8.47
  L 582.34 16.48
  Q 576.04 14.03 569.24 14.72
  C 567.53 14.89 565.98 14.23 564.28 14.04
  Q 563.78 13.99 563.38 14.28
  L 558.34 17.91
  C 560.86 14.08 565.58 9.21 563.82 4.39
  Q 563.62 3.84 564.21 3.83
  L 591.03 3.53
  A 0.48 0.48 0.0 0 1 591.41 4.30
  L 588.20 8.47
  Z"
/>
<path fill="#fee33d" d="
  M 257.29 8.69
  L 255.56 15.99
  Q 255.44 16.49 254.97 16.67
  Q 252.96 17.46 250.74 17.33
  Q 239.49 16.67 228.46 17.23
  A 1.37 1.36 5.7 0 0 227.20 18.25
  L 225.65 24.38
  Q 223.27 24.82 220.73 24.12
  C 216.02 22.83 211.69 22.08 207.07 21.18
  Q 204.99 20.77 204.96 17.99
  C 205.78 13.47 206.40 7.85 210.35 4.85
  Q 210.78 4.53 211.33 4.52
  L 257.62 4.14
  Q 258.21 4.13 258.23 4.72
  Q 258.31 6.61 257.29 8.69
  Z"
/>
<path fill="#fee33d" d="
  M 461.03 9.51
  Q 461.11 15.09 459.54 20.51
  Q 458.44 20.80 457.98 20.27
  Q 457.68 19.92 457.23 19.79
  C 452.74 18.50 446.40 19.85 441.49 19.50
  Q 440.90 19.46 440.69 18.90
  L 440.46 18.27
  Q 440.38 18.05 440.27 18.26
  Q 440.10 18.57 439.88 18.46
  Q 440.10 18.76 440.01 17.98
  Q 440.88 16.23 440.63 14.22
  A 0.72 0.72 0.0 0 0 439.94 13.59
  L 430.60 13.15
  A 1.59 1.58 7.6 0 0 428.98 14.38
  L 427.80 19.53
  C 423.83 19.44 420.76 19.32 416.25 18.70
  Q 413.06 18.26 409.07 19.26
  Q 407.96 19.54 407.53 18.48
  L 407.08 17.38
  Q 410.03 9.41 403.31 4.52
  Q 402.77 4.13 403.43 4.13
  Q 427.54 4.28 451.49 3.91
  Q 457.29 3.82 461.03 9.51
  Z"
/>
<path fill="#fee33d" d="
  M 546.05 8.93
  L 547.40 16.47
  Q 544.70 17.41 541.97 15.95
  A 1.31 1.31 0.0 0 0 541.01 15.85
  L 532.94 18.11
  C 531.60 12.42 531.54 8.91 527.72 4.27
  Q 527.27 3.72 527.98 3.74
  L 543.88 4.08
  Q 544.49 4.10 544.68 4.68
  L 546.05 8.93
  Z"
/>
<path fill="#fee33d" d="
  M 382.57 9.81
  Q 382.68 16.49 380.37 23.59
  Q 372.34 21.38 363.84 21.90
  A 0.97 0.95 -76.6 0 0 363.06 22.39
  Q 362.12 24.01 360.73 24.43
  L 362.30 17.77
  Q 363.33 16.06 363.40 13.99
  Q 363.42 13.52 362.95 13.45
  Q 356.83 12.54 351.86 13.67
  Q 348.22 16.04 343.53 15.23
  Q 340.40 14.70 329.19 15.36
  Q 330.43 9.92 325.44 4.86
  Q 324.81 4.22 325.71 4.22
  Q 348.12 4.31 371.23 4.23
  C 376.62 4.22 379.71 5.51 382.57 9.81
  Z"
/>
<path fill="#fee33d" d="
  M 521.91 8.78
  Q 524.99 14.87 523.17 21.70
  L 507.53 20.59
  Q 507.04 20.55 506.66 20.87
  Q 505.84 21.56 504.98 21.28
  Q 502.05 20.34 500.74 20.32
  C 497.30 11.11 490.80 18.67 490.03 23.98
  C 487.12 23.97 484.82 22.92 481.97 23.10
  Q 477.57 23.37 473.24 22.67
  Q 470.25 22.19 469.86 24.94
  A 0.85 0.59 -58.6 0 1 468.56 25.51
  L 468.40 24.98
  C 470.19 17.13 471.36 4.61 482.22 4.30
  Q 491.14 4.04 512.76 4.08
  Q 518.97 4.09 521.91 8.78
  Z"
/>
<path fill="#fee33d" d="
  M 72.09 9.29
  C 70.87 12.58 69.62 21.56 65.26 21.56
  Q 52.68 21.57 47.14 21.82
  Q 40.25 18.99 30.78 19.91
  A 1.71 1.71 0.0 0 1 29.80 19.71
  Q 26.97 18.16 24.10 19.67
  A 0.23 0.22 1.4 0 1 23.80 19.36
  L 23.97 19.08
  A 0.39 0.39 0.0 0 0 23.73 18.51
  Q 19.08 17.37 14.60 19.29
  Q 14.52 19.33 14.51 19.24
  L 14.45 18.81
  A 0.14 0.14 0.0 0 0 14.23 18.72
  L 13.70 19.16
  Q 13.61 19.23 13.54 19.14
  Q 13.47 19.04 13.45 18.79
  Q 14.36 9.53 21.46 5.75
  C 25.36 3.68 29.32 4.70 33.02 4.72
  Q 53.21 4.86 73.40 4.58
  Q 74.03 4.57 73.79 5.15
  L 72.09 9.29
  Z"
/>
<path fill="#fee33d" d="
  M 198.99 8.97
  L 195.31 25.11
  Q 192.21 23.42 187.99 23.13
  Q 185.08 22.93 174.66 21.56
  C 176.10 16.37 179.51 8.27 172.66 5.37
  A 0.48 0.47 -33.3 0 1 172.85 4.46
  Q 182.88 4.52 193.01 4.50
  Q 198.54 4.49 198.99 8.97
  Z"
/>
<path fill="#fee33d" d="
  M 307.63 8.83
  L 308.51 21.43
  Q 303.45 21.44 301.89 20.84
  C 295.32 18.32 290.22 23.13 283.76 19.70
  Q 283.32 19.47 282.82 19.47
  Q 278.27 19.49 273.98 17.75
  C 276.23 13.70 278.69 9.63 279.28 4.85
  Q 279.35 4.25 279.95 4.25
  L 306.43 4.25
  A 1.10 1.09 -0.8 0 1 307.53 5.31
  L 307.63 8.83
  Z"
/>
<path fill="#fee33d" d="
  M 133.52 9.43
  Q 135.91 13.76 135.47 17.75
  Q 135.06 21.50 133.76 25.81
  Q 131.46 25.17 129.22 24.62
  C 124.43 23.44 118.76 23.73 113.79 23.28
  Q 113.15 23.22 113.34 22.61
  L 113.51 22.08
  A 0.24 0.24 0.0 0 0 113.27 21.76
  Q 112.78 21.77 112.94 21.63
  Q 112.89 21.51 113.00 21.20
  Q 113.11 20.85 113.01 20.49
  Q 112.21 17.70 109.47 16.65
  Q 108.95 16.44 108.43 16.63
  Q 103.16 18.50 102.46 25.78
  Q 91.87 23.02 80.81 23.11
  C 82.39 13.71 84.86 4.62 96.01 4.54
  Q 109.94 4.44 123.89 4.52
  C 128.21 4.54 131.46 5.83 133.52 9.43
  Z"
/>
<path fill="#fee33d" d="
  M 169.05 9.45
  L 165.55 24.53
  L 145.95 22.49
  Q 145.43 22.44 145.07 22.81
  L 144.68 23.20
  Q 144.22 23.66 143.87 23.11
  Q 143.52 22.56 143.40 21.70
  C 144.57 15.93 147.27 9.70 141.01 5.75
  Q 140.23 5.25 141.15 5.24
  Q 152.87 5.06 164.46 4.91
  Q 166.71 4.88 167.87 5.63
  Q 169.93 6.98 169.05 9.45
  Z"
/>
<path fill="#ffffff" d="
  M 537.69 66.08
  L 554.76 65.76
  Q 555.29 65.75 555.43 65.24
  L 559.23 51.92
  Q 560.97 47.11 564.62 42.57
  L 568.94 36.19
  L 575.69 26.20
  L 582.34 16.48
  L 588.20 8.47
  L 596.92 8.30
  Q 597.59 8.29 597.14 8.79
  Q 594.41 11.79 592.21 14.95
  Q 579.47 33.25 566.98 51.70
  C 563.77 56.44 562.52 64.25 560.85 69.80
  Q 560.69 70.33 560.14 70.33
  L 536.98 70.62
  Q 536.19 70.63 536.44 69.89
  L 537.69 66.08
  Z"
/>
<path fill="#ffffff" d="
  M 225.67 52.82
  C 223.52 54.10 219.35 52.01 220.15 49.11
  L 221.08 44.15
  L 223.06 35.65
  L 225.65 24.38
  L 227.20 18.25
  A 1.37 1.36 5.7 0 1 228.46 17.23
  Q 239.49 16.67 250.74 17.33
  Q 252.96 17.46 254.97 16.67
  Q 255.44 16.49 255.56 15.99
  L 257.29 8.69
  L 262.84 8.57
  A 0.94 0.94 0.0 0 1 263.76 9.76
  L 260.91 20.25
  A 2.00 2.00 0.0 0 1 258.98 21.73
  L 234.33 21.66
  Q 232.83 21.65 232.49 23.12
  L 225.67 52.82
  Z"
/>
<path fill="#ffffff" d="
  M 307.63 8.83
  L 312.06 9.04
  Q 312.71 9.08 312.76 9.73
  L 317.05 70.95
  A 0.32 0.31 89.1 0 1 316.73 71.29
  Q 307.46 71.10 297.98 71.47
  Q 294.56 71.60 295.32 66.77
  L 310.93 66.58
  Q 311.89 66.57 311.81 65.61
  L 310.78 53.90
  L 310.50 50.84
  L 309.99 44.14
  L 309.72 40.49
  L 309.30 33.61
  L 308.72 24.77
  L 308.51 21.43
  L 307.63 8.83
  Z"
/>
<path fill="#ffffff" d="
  M 521.91 8.78
  C 530.47 13.29 530.03 19.79 528.02 28.76
  Q 524.97 42.37 521.78 55.95
  C 519.60 65.23 517.17 70.55 507.07 70.66
  Q 490.65 70.83 474.24 70.73
  Q 470.54 70.71 468.00 66.17
  Q 495.52 66.40 503.25 66.00
  Q 513.69 65.46 515.55 54.49
  L 517.68 45.24
  L 520.31 33.70
  L 523.17 21.70
  Q 524.99 14.87 521.91 8.78
  Z"
/>
<path fill="#ffffff" d="
  M 546.05 8.93
  Q 549.97 7.99 550.48 10.05
  Q 552.21 17.06 553.46 24.32
  Q 552.96 26.86 550.92 28.31
  Q 550.40 28.69 550.19 28.07
  L 549.79 26.92
  L 547.40 16.47
  L 546.05 8.93
  Z"
/>
<path fill="#ffffff" d="
  M 198.99 8.97
  Q 205.23 9.52 203.95 15.48
  Q 198.63 40.38 193.85 59.81
  C 191.27 70.32 184.23 71.25 174.05 71.25
  Q 163.01 71.26 152.00 71.24
  Q 146.40 71.23 143.19 66.39
  Q 157.25 66.82 171.28 66.60
  C 180.48 66.46 186.23 64.33 188.39 55.04
  L 190.24 47.56
  L 191.95 40.15
  L 193.82 32.06
  L 195.31 25.11
  L 198.99 8.97
  Z"
/>
<path fill="#ffffff" d="
  M 72.09 9.29
  L 78.70 9.33
  Q 79.21 9.33 79.04 9.81
  L 74.27 23.56
  A 3.93 3.92 -80.6 0 1 70.59 26.20
  L 54.63 26.35
  A 3.38 3.37 -83.9 0 0 51.38 28.98
  Q 47.44 46.58 42.85 64.42
  C 42.66 65.16 42.79 65.96 42.72 66.76
  Q 41.98 67.59 40.98 66.90
  Q 36.82 64.67 37.41 60.03
  L 40.50 47.47
  L 41.60 43.55
  Q 43.56 32.22 47.14 21.82
  Q 52.68 21.57 65.26 21.56
  C 69.62 21.56 70.87 12.58 72.09 9.29
  Z"
/>
<path fill="#ffffff" d="
  M 133.52 9.43
  Q 142.87 14.39 140.74 23.99
  Q 134.13 53.88 132.17 61.42
  C 129.95 70.03 123.90 71.26 115.42 71.25
  Q 101.37 71.24 87.33 71.26
  C 83.57 71.26 81.84 69.60 79.96 66.69
  Q 94.04 66.89 108.03 66.66
  C 117.40 66.51 123.09 66.78 126.45 57.75
  L 128.43 49.78
  L 131.03 37.95
  L 133.76 25.81
  Q 135.06 21.50 135.47 17.75
  Q 135.91 13.76 133.52 9.43
  Z"
/>
<path fill="#ffffff" d="
  M 169.05 9.45
  Q 174.16 9.20 174.75 12.61
  Q 174.83 13.06 174.73 13.50
  L 165.90 51.60
  Q 165.91 51.27 165.65 52.09
  Q 164.53 53.20 161.57 53.06
  L 159.67 50.81
  L 161.28 43.02
  L 163.78 32.02
  L 165.55 24.53
  L 169.05 9.45
  Z"
/>
<path fill="#ffffff" d="
  M 461.03 9.51
  Q 464.45 10.87 466.45 14.31
  A 1.56 1.53 -57.6 0 1 466.65 15.24
  Q 465.69 24.54 462.99 33.56
  Q 461.93 37.11 458.63 38.03
  A 0.73 0.72 51.0 0 0 458.49 39.37
  C 461.67 41.06 462.74 43.23 462.16 46.93
  Q 461.13 53.56 459.47 60.05
  C 458.09 65.44 457.50 70.33 451.43 70.49
  Q 433.17 70.96 414.98 70.72
  C 411.29 70.67 406.41 71.50 402.01 71.04
  A 0.56 0.55 -83.0 0 1 401.52 70.41
  L 402.10 66.30
  C 415.00 66.22 428.63 67.02 441.52 66.08
  C 449.14 65.53 451.54 66.01 453.48 57.62
  L 455.15 49.82
  Q 457.42 43.31 456.55 37.69
  L 453.01 34.67
  A 0.81 0.81 0.0 0 1 453.30 33.28
  Q 456.13 32.41 457.54 29.49
  L 459.54 20.51
  Q 461.11 15.09 461.03 9.51
  Z"
/>
<path fill="#ffffff" d="
  M 382.57 9.81
  Q 388.91 12.40 387.97 18.66
  C 387.31 23.03 385.36 36.67 381.06 40.84
  Q 380.66 41.23 380.11 41.23
  L 373.94 41.28
  A 0.50 0.50 0.0 0 0 373.50 42.00
  L 380.85 57.08
  A 1.17 1.17 0.0 0 0 382.63 57.48
  Q 383.36 56.91 383.84 57.58
  Q 384.07 57.91 384.03 58.45
  Q 383.51 64.47 382.22 70.36
  Q 382.10 70.90 381.55 70.92
  L 365.69 71.39
  Q 365.25 71.40 364.92 71.12
  Q 362.93 69.41 361.75 66.61
  L 375.24 66.54
  Q 376.71 66.54 376.96 65.09
  L 378.18 57.99
  Q 378.78 55.52 378.32 53.23
  A 0.55 0.54 -4.0 0 0 377.81 52.79
  L 376.03 52.68
  A 0.81 0.79 78.0 0 1 375.37 52.24
  L 371.28 44.09
  L 368.08 36.75
  C 373.49 36.97 377.03 37.33 378.65 31.09
  L 380.37 23.59
  Q 382.68 16.49 382.57 9.81
  Z"
/>
<path fill="#ffffff" d="
  M 362.30 17.77
  L 358.29 17.77
  A 1.03 1.02 -77.2 0 0 357.29 18.57
  L 354.92 29.54
  L 349.30 29.36
  Q 348.67 29.34 348.77 28.71
  L 349.09 26.64
  L 351.86 13.67
  Q 356.83 12.54 362.95 13.45
  Q 363.42 13.52 363.40 13.99
  Q 363.33 16.06 362.30 17.77
  Z"
/>
<path fill="#ffffff" d="
  M 440.01 17.98
  Q 437.43 17.31 435.16 18.12
  A 1.01 1.00 -3.9 0 0 434.53 18.84
  L 432.31 28.75
  L 426.80 28.64
  Q 426.15 28.63 426.27 27.98
  L 427.80 19.53
  L 428.98 14.38
  A 1.59 1.58 7.6 0 1 430.60 13.15
  L 439.94 13.59
  A 0.72 0.72 0.0 0 1 440.63 14.22
  Q 440.88 16.23 440.01 17.98
  Z"
/>
<path fill="#fecd2d" d="
  M 582.34 16.48
  L 575.69 26.20
  Q 564.11 25.91 554.90 22.90
  L 558.34 17.91
  L 563.38 14.28
  Q 563.78 13.99 564.28 14.04
  C 565.98 14.23 567.53 14.89 569.24 14.72
  Q 576.04 14.03 582.34 16.48
  Z"
/>
<path fill="#fecd2d" d="
  M 351.86 13.67
  L 349.09 26.64
  L 327.20 24.26
  L 329.19 15.36
  Q 340.40 14.70 343.53 15.23
  Q 348.22 16.04 351.86 13.67
  Z"
/>
<path fill="#ffffff" d="
  M 500.74 20.32
  L 500.27 21.06
  Q 496.91 23.01 496.08 26.32
  Q 492.74 39.53 490.02 53.01
  Q 488.36 53.53 486.91 53.02
  C 482.42 50.78 485.09 46.30 485.76 42.73
  L 486.81 37.78
  L 490.03 23.98
  C 490.80 18.67 497.30 11.11 500.74 20.32
  Z"
/>
<path fill="#fecd2d" d="
  M 547.40 16.47
  L 549.79 26.92
  L 534.98 26.66
  L 532.94 18.11
  L 541.01 15.85
  A 1.31 1.31 0.0 0 1 541.97 15.95
  Q 544.70 17.41 547.40 16.47
  Z"
/>
<path fill="#ffffff" d="
  M 112.94 21.63
  Q 109.70 23.16 108.79 26.76
  Q 105.53 39.60 102.57 53.33
  Q 101.84 54.50 100.06 53.94
  Q 97.87 53.24 96.93 50.46
  L 99.85 36.70
  L 102.46 25.78
  Q 103.16 18.50 108.43 16.63
  Q 108.95 16.44 109.47 16.65
  Q 112.21 17.70 113.01 20.49
  Q 113.11 20.85 113.00 21.20
  Q 112.89 21.51 112.94 21.63
  Z"
/>
<path fill="#fbb01b" d="
  M 407.08 17.38
  L 407.53 18.48
  Q 407.96 19.54 409.07 19.26
  Q 413.06 18.26 416.25 18.70
  C 420.76 19.32 423.83 19.44 427.80 19.53
  L 426.27 27.98
  Q 426.15 28.63 426.80 28.64
  L 432.31 28.75
  L 437.18 28.40
  C 439.53 27.83 441.98 29.22 444.27 29.28
  C 448.70 29.41 453.02 29.71 457.54 29.49
  Q 456.13 32.41 453.30 33.28
  A 0.81 0.81 0.0 0 0 453.01 34.67
  L 456.55 37.69
  C 452.56 40.63 450.92 38.67 447.11 38.74
  Q 441.87 38.83 436.70 39.33
  Q 437.03 39.23 435.50 38.30
  L 428.72 37.39
  Q 428.29 37.33 427.86 37.40
  L 425.57 37.78
  Q 424.98 37.88 424.52 37.51
  C 422.60 35.96 419.33 37.28 416.76 36.96
  Q 409.98 36.11 402.83 36.05
  L 407.08 17.38
  Z"
/>
<path fill="#fecd2d" d="
  M 308.51 21.43
  L 308.72 24.77
  Q 298.42 23.04 288.46 23.65
  Q 287.43 22.52 285.85 27.33
  Q 281.56 27.93 277.77 26.53
  C 275.09 25.54 272.93 25.81 270.26 25.25
  L 273.98 17.75
  Q 278.27 19.49 282.82 19.47
  Q 283.32 19.47 283.76 19.70
  C 290.22 23.13 295.32 18.32 301.89 20.84
  Q 303.45 21.44 308.51 21.43
  Z"
/>
<path fill="#fecd2d" d="
  M 47.14 21.82
  Q 43.56 32.22 41.60 43.55
  C 38.32 44.12 38.77 41.13 36.28 41.51
  Q 35.78 41.59 35.33 41.39
  C 31.09 39.55 27.75 40.65 23.59 39.80
  Q 19.27 38.92 14.85 39.39
  A 0.05 0.05 0.0 0 1 14.81 39.31
  Q 14.90 39.22 15.00 39.13
  A 0.05 0.02 -1.7 0 0 14.94 39.11
  L 10.11 39.55
  Q 9.64 39.59 9.50 39.14
  L 9.15 37.98
  L 13.45 18.79
  Q 13.47 19.04 13.54 19.14
  Q 13.61 19.23 13.70 19.16
  L 14.23 18.72
  A 0.14 0.14 0.0 0 1 14.45 18.81
  L 14.51 19.24
  Q 14.52 19.33 14.60 19.29
  Q 19.08 17.37 23.73 18.51
  A 0.39 0.39 0.0 0 1 23.97 19.08
  L 23.80 19.36
  A 0.23 0.22 1.4 0 0 24.10 19.67
  Q 26.97 18.16 29.80 19.71
  A 1.71 1.71 0.0 0 0 30.78 19.91
  Q 40.25 18.99 47.14 21.82
  Z"
/>
<path fill="#fdbf33" d="
  M 204.96 17.99
  Q 204.99 20.77 207.07 21.18
  C 211.69 22.08 216.02 22.83 220.73 24.12
  Q 223.27 24.82 225.65 24.38
  L 223.06 35.65
  L 217.91 35.23
  Q 217.38 35.18 216.94 34.89
  Q 215.97 34.24 214.73 34.85
  Q 214.63 34.89 214.66 34.99
  Q 214.70 35.11 214.75 35.24
  Q 214.84 35.51 214.56 35.48
  Q 208.53 35.00 202.72 33.37
  Q 202.56 33.32 202.28 33.53
  Q 201.94 33.78 201.83 33.37
  L 201.64 32.72
  L 204.96 17.99
  Z"
/>
<path fill="#fdbf33" d="
  M 459.54 20.51
  L 457.54 29.49
  C 453.02 29.71 448.70 29.41 444.27 29.28
  C 441.98 29.22 439.53 27.83 437.18 28.40
  L 439.88 18.46
  Q 440.10 18.57 440.27 18.26
  Q 440.38 18.05 440.46 18.27
  L 440.69 18.90
  Q 440.90 19.46 441.49 19.50
  C 446.40 19.85 452.74 18.50 457.23 19.79
  Q 457.68 19.92 457.98 20.27
  Q 458.44 20.80 459.54 20.51
  Z"
/>
<path fill="#fdbf33" d="
  M 500.74 20.32
  Q 502.05 20.34 504.98 21.28
  Q 505.84 21.56 506.66 20.87
  Q 507.04 20.55 507.53 20.59
  L 523.17 21.70
  L 520.31 33.70
  Q 518.34 34.56 517.69 34.00
  Q 517.41 33.75 517.04 33.75
  C 513.99 33.71 510.70 32.62 507.11 32.90
  C 503.79 33.16 500.87 32.39 497.55 32.25
  L 500.27 21.06
  L 500.74 20.32
  Z"
/>
<path fill="#fdbf33" d="
  M 174.66 21.56
  Q 185.08 22.93 187.99 23.13
  Q 192.21 23.42 195.31 25.11
  L 193.82 32.06
  L 179.38 29.85
  Q 179.27 29.83 179.32 29.93
  L 179.46 30.18
  A 0.12 0.02 64.5 0 1 179.50 30.32
  Q 177.73 29.40 175.81 30.10
  A 0.83 0.83 0.0 0 1 174.87 29.83
  Q 173.57 28.14 172.81 29.25
  L 174.66 21.56
  Z"
/>
<path fill="#fdbf33" d="
  M 112.94 21.63
  Q 112.78 21.77 113.27 21.76
  A 0.24 0.24 0.0 0 1 113.51 22.08
  L 113.34 22.61
  Q 113.15 23.22 113.79 23.28
  C 118.76 23.73 124.43 23.44 129.22 24.62
  Q 131.46 25.17 133.76 25.81
  L 131.03 37.95
  L 109.53 35.94
  L 112.94 21.63
  Z"
/>
<path fill="#fdbf33" d="
  M 143.40 21.70
  Q 143.52 22.56 143.87 23.11
  Q 144.22 23.66 144.68 23.20
  L 145.07 22.81
  Q 145.43 22.44 145.95 22.49
  L 165.55 24.53
  L 163.78 32.02
  C 157.52 31.97 150.09 31.34 144.05 32.40
  Q 142.19 32.72 141.34 30.47
  L 143.40 21.70
  Z"
/>
<path fill="#fdbf33" d="
  M 380.37 23.59
  L 378.65 31.09
  Q 371.84 30.24 365.04 30.44
  C 362.75 30.51 361.17 29.80 359.06 29.23
  L 360.73 24.43
  Q 362.12 24.01 363.06 22.39
  A 0.97 0.95 -76.6 0 1 363.84 21.90
  Q 372.34 21.38 380.37 23.59
  Z"
/>
<path fill="#fdbf33" d="
  M 80.81 23.11
  Q 91.87 23.02 102.46 25.78
  L 99.85 36.70
  Q 98.32 37.62 97.52 36.70
  A 0.11 0.10 34.8 0 0 97.34 36.73
  Q 97.29 36.87 97.25 37.01
  Q 97.16 37.33 96.87 37.16
  Q 95.91 36.56 94.84 36.63
  C 92.55 36.78 90.42 36.57 88.15 36.44
  Q 88.01 36.43 88.08 36.32
  L 88.22 36.05
  Q 88.43 35.65 87.97 35.59
  L 78.09 34.40
  L 80.81 23.11
  Z"
/>
<path fill="#fbb01b" d="
  M 490.03 23.98
  L 486.81 37.78
  Q 485.39 38.10 484.17 37.23
  Q 483.80 36.97 483.34 37.04
  Q 479.49 37.66 478.25 37.52
  Q 472.08 36.79 465.81 36.06
  L 468.40 24.98
  L 468.56 25.51
  A 0.85 0.59 -58.6 0 0 469.86 24.94
  Q 470.25 22.19 473.24 22.67
  Q 477.57 23.37 481.97 23.10
  C 484.82 22.92 487.12 23.97 490.03 23.98
  Z"
/>
<path fill="#fbb01b" d="
  M 554.90 22.90
  Q 564.11 25.91 575.69 26.20
  L 568.94 36.19
  Q 563.31 35.84 557.58 35.58
  C 554.45 35.44 550.93 36.54 547.32 35.86
  Q 546.86 35.77 546.44 36.00
  Q 545.92 36.30 545.00 36.27
  Q 541.05 36.17 537.00 35.69
  L 534.98 26.66
  L 549.79 26.92
  L 550.19 28.07
  Q 550.40 28.69 550.92 28.31
  Q 552.96 26.86 553.46 24.32
  L 554.90 22.90
  Z"
/>
<path fill="#ffffff" d="
  M 288.46 23.65
  L 288.70 35.59
  Q 288.85 36.53 288.49 37.63
  L 286.74 41.54
  L 280.28 41.21
  Q 279.74 41.19 279.94 40.68
  L 281.98 35.45
  L 285.85 27.33
  Q 287.43 22.52 288.46 23.65
  Z"
/>
<path fill="#fdbf33" d="
  M 308.72 24.77
  L 309.30 33.61
  Q 301.88 34.67 294.50 34.12
  Q 293.39 34.04 292.70 35.11
  Q 292.47 35.48 292.06 35.62
  Q 290.19 36.28 288.70 35.59
  L 288.46 23.65
  Q 298.42 23.04 308.72 24.77
  Z"
/>
<path fill="#fbb01b" d="
  M 327.20 24.26
  L 349.09 26.64
  L 348.77 28.71
  Q 348.67 29.34 349.30 29.36
  L 354.92 29.54
  L 359.06 29.23
  C 361.17 29.80 362.75 30.51 365.04 30.44
  Q 371.84 30.24 378.65 31.09
  C 377.03 37.33 373.49 36.97 368.08 36.75
  L 349.16 34.98
  Q 348.68 34.94 348.24 35.12
  C 344.46 36.65 338.18 36.09 334.01 36.17
  C 331.70 36.21 330.00 35.35 327.65 35.19
  Q 327.15 35.16 326.73 34.89
  Q 325.47 34.07 325.15 33.02
  L 327.20 24.26
  Z"
/>
<path fill="#fbb01b" d="
  M 270.26 25.25
  C 272.93 25.81 275.09 25.54 277.77 26.53
  Q 281.56 27.93 285.85 27.33
  L 281.98 35.45
  C 279.05 34.61 276.12 35.17 273.38 34.59
  Q 269.87 33.85 266.35 32.75
  L 270.26 25.25
  Z"
/>
<path fill="#f89b21" d="
  M 252.12 32.57
  L 248.90 46.13
  Q 247.58 44.51 244.98 45.12
  Q 244.56 45.21 244.96 45.38
  Q 245.28 45.52 245.25 45.86
  A 0.21 0.20 1.4 0 1 245.04 46.05
  Q 240.91 45.92 236.83 45.09
  C 235.26 44.77 234.19 43.49 232.20 43.81
  Q 231.47 43.93 231.24 43.64
  Q 230.98 43.29 230.83 42.55
  C 231.70 39.51 232.24 37.37 232.38 33.70
  Q 232.48 30.95 233.71 28.28
  Q 233.88 27.90 234.31 27.90
  L 252.79 27.75
  Q 253.38 27.74 253.23 28.31
  L 252.12 32.57
  Z"
/>
<path fill="#f89b21" d="
  M 193.82 32.06
  L 191.95 40.15
  Q 185.35 40.40 178.72 40.42
  C 176.56 40.42 171.53 38.79 170.87 36.53
  L 172.81 29.25
  Q 173.57 28.14 174.87 29.83
  A 0.83 0.83 0.0 0 0 175.81 30.10
  Q 177.73 29.40 179.50 30.32
  A 0.12 0.02 64.5 0 0 179.46 30.18
  L 179.32 29.93
  Q 179.27 29.83 179.38 29.85
  L 193.82 32.06
  Z"
/>
<path fill="#f89b21" d="
  M 141.34 30.47
  Q 142.19 32.72 144.05 32.40
  C 150.09 31.34 157.52 31.97 163.78 32.02
  L 161.28 43.02
  Q 161.24 42.23 160.33 42.85
  Q 159.89 43.15 159.35 43.10
  L 148.90 42.13
  Q 148.54 42.10 148.25 41.88
  Q 145.26 39.66 142.04 41.16
  Q 141.55 41.39 141.16 41.02
  L 139.33 39.23
  L 141.34 30.47
  Z"
/>
<path fill="#f8901a" d="
  M 497.55 32.25
  C 500.87 32.39 503.79 33.16 507.11 32.90
  C 510.70 32.62 513.99 33.71 517.04 33.75
  Q 517.41 33.75 517.69 34.00
  Q 518.34 34.56 520.31 33.70
  L 517.68 45.24
  Q 517.13 45.24 516.98 45.81
  Q 516.87 46.21 516.45 46.26
  Q 516.02 46.30 515.94 45.94
  Q 515.87 45.59 515.51 45.56
  L 507.13 45.00
  Q 506.79 44.98 506.79 44.64
  L 506.79 44.30
  Q 506.79 44.07 506.58 43.98
  Q 501.37 41.73 495.30 41.63
  L 497.55 32.25
  Z"
/>
<path fill="#ffffff" d="
  M 252.12 32.57
  L 258.15 32.60
  Q 258.79 32.60 258.65 33.23
  L 252.30 60.39
  L 250.77 64.66
  Q 248.06 71.08 241.32 71.16
  Q 221.64 71.38 210.50 71.23
  Q 205.38 71.16 202.76 66.65
  Q 217.93 66.55 233.13 66.49
  C 242.93 66.45 245.19 62.71 247.23 53.77
  L 248.90 46.13
  L 252.12 32.57
  Z"
/>
<path fill="#f89b21" d="
  M 201.64 32.72
  L 201.83 33.37
  Q 201.94 33.78 202.28 33.53
  Q 202.56 33.32 202.72 33.37
  Q 208.53 35.00 214.56 35.48
  Q 214.84 35.51 214.75 35.24
  Q 214.70 35.11 214.66 34.99
  Q 214.63 34.89 214.73 34.85
  Q 215.97 34.24 216.94 34.89
  Q 217.38 35.18 217.91 35.23
  L 223.06 35.65
  L 221.08 44.15
  Q 211.05 45.09 203.75 43.29
  Q 201.17 42.66 199.76 40.70
  L 201.64 32.72
  Z"
/>
<path fill="#f8901a" d="
  M 266.35 32.75
  Q 269.87 33.85 273.38 34.59
  C 276.12 35.17 279.05 34.61 281.98 35.45
  L 279.94 40.68
  Q 279.74 41.19 280.28 41.21
  L 286.74 41.54
  Q 287.52 41.42 288.05 41.05
  Q 295.45 41.33 302.58 40.96
  C 304.12 40.88 305.73 39.67 307.50 40.72
  Q 307.88 40.94 308.31 40.84
  L 309.72 40.49
  L 309.99 44.14
  C 307.17 44.77 303.20 46.17 300.54 44.88
  Q 300.09 44.66 299.59 44.70
  Q 294.26 45.05 288.96 44.82
  C 279.77 44.42 269.93 47.29 261.38 42.67
  L 266.35 32.75
  Z"
/>
<path fill="#f8901a" d="
  M 325.15 33.02
  Q 325.47 34.07 326.73 34.89
  Q 327.15 35.16 327.65 35.19
  C 330.00 35.35 331.70 36.21 334.01 36.17
  C 338.18 36.09 344.46 36.65 348.24 35.12
  Q 348.68 34.94 349.16 34.98
  L 368.08 36.75
  L 371.28 44.09
  Q 369.27 43.87 367.46 43.62
  Q 365.45 43.35 363.63 43.33
  Q 358.70 43.27 353.78 43.17
  Q 353.29 43.16 352.85 42.94
  Q 352.16 42.60 351.51 43.22
  Q 351.18 43.53 350.76 43.39
  Q 349.65 43.05 348.23 43.62
  Q 347.73 41.79 346.81 41.00
  Q 346.28 40.54 346.11 41.22
  L 345.46 44.02
  Q 341.13 43.47 336.83 43.06
  C 333.69 42.76 329.12 41.40 324.76 42.20
  Q 324.05 42.33 323.79 42.05
  Q 323.48 41.71 323.40 40.96
  L 325.15 33.02
  Z"
/>
<path fill="#f89b21" d="
  M 309.30 33.61
  L 309.72 40.49
  L 308.31 40.84
  Q 307.88 40.94 307.50 40.72
  C 305.73 39.67 304.12 40.88 302.58 40.96
  Q 295.45 41.33 288.05 41.05
  Q 289.68 38.00 288.49 37.63
  Q 288.85 36.53 288.70 35.59
  Q 290.19 36.28 292.06 35.62
  Q 292.47 35.48 292.70 35.11
  Q 293.39 34.04 294.50 34.12
  Q 301.88 34.67 309.30 33.61
  Z"
/>
<path fill="#f8901a" d="
  M 78.09 34.40
  L 87.97 35.59
  Q 88.43 35.65 88.22 36.05
  L 88.08 36.32
  Q 88.01 36.43 88.15 36.44
  C 90.42 36.57 92.55 36.78 94.84 36.63
  Q 95.91 36.56 96.87 37.16
  Q 97.16 37.33 97.25 37.01
  Q 97.29 36.87 97.34 36.73
  A 0.11 0.10 34.8 0 1 97.52 36.70
  Q 98.32 37.62 99.85 36.70
  L 96.93 50.46
  Q 92.77 48.44 88.25 48.35
  Q 84.55 48.27 82.78 47.82
  Q 79.00 46.84 75.50 45.59
  L 78.09 34.40
  Z"
/>
<path fill="#f8901a" d="
  M 465.81 36.06
  Q 472.08 36.79 478.25 37.52
  Q 479.49 37.66 483.34 37.04
  Q 483.80 36.97 484.17 37.23
  Q 485.39 38.10 486.81 37.78
  L 485.76 42.73
  Q 484.36 44.71 481.48 43.97
  Q 479.87 43.55 473.60 43.53
  Q 473.56 43.53 473.55 43.57
  Q 473.53 43.71 473.51 43.81
  Q 473.46 44.09 473.19 44.06
  Q 468.29 43.49 464.80 40.81
  L 465.81 36.06
  Z"
/>
<path fill="#f89b21" d="
  M 568.94 36.19
  L 564.62 42.57
  Q 563.95 42.46 563.23 42.71
  A 0.18 0.18 0.0 0 1 563.01 42.45
  L 563.21 42.11
  A 0.28 0.27 20.6 0 0 563.02 41.70
  C 557.42 40.73 552.22 41.97 547.07 41.57
  C 544.98 41.41 541.33 40.43 539.46 40.93
  Q 538.44 41.21 538.12 40.92
  L 537.00 35.69
  Q 541.05 36.17 545.00 36.27
  Q 545.92 36.30 546.44 36.00
  Q 546.86 35.77 547.32 35.86
  C 550.93 36.54 554.45 35.44 557.58 35.58
  Q 563.31 35.84 568.94 36.19
  Z"
/>
<path fill="#f8901a" d="
  M 109.53 35.94
  L 131.03 37.95
  L 128.43 49.78
  C 123.56 49.00 118.37 46.84 114.26 47.49
  Q 113.77 47.57 113.34 47.33
  C 111.23 46.14 110.17 44.46 107.24 45.76
  L 109.53 35.94
  Z"
/>
<path fill="#f8901a" d="
  M 402.83 36.05
  Q 409.98 36.11 416.76 36.96
  C 419.33 37.28 422.60 35.96 424.52 37.51
  Q 424.98 37.88 425.57 37.78
  L 427.86 37.40
  Q 428.29 37.33 428.72 37.39
  L 435.50 38.30
  C 430.76 38.78 422.49 35.95 422.46 43.12
  L 419.61 43.59
  Q 419.25 43.65 419.14 44.00
  Q 418.83 44.95 417.26 45.00
  C 414.75 45.06 412.88 44.03 410.87 43.89
  Q 406.11 43.56 401.17 43.23
  L 402.83 36.05
  Z"
/>
<path fill="#f8901a" d="
  M 170.87 36.53
  C 171.53 38.79 176.56 40.42 178.72 40.42
  Q 185.35 40.40 191.95 40.15
  L 190.24 47.56
  Q 178.87 48.43 168.77 45.25
  L 170.87 36.53
  Z"
/>
<path fill="#f2791b" d="
  M 456.55 37.69
  Q 457.42 43.31 455.15 49.82
  C 451.19 48.81 447.91 47.39 443.60 47.40
  Q 439.32 47.41 434.98 45.56
  Q 436.26 43.14 435.16 43.12
  Q 436.42 42.71 436.70 39.33
  Q 441.87 38.83 447.11 38.74
  C 450.92 38.67 452.56 40.63 456.55 37.69
  Z"
/>
<path fill="#fbb01b" d="
  M 9.15 37.98
  L 9.50 39.14
  Q 9.64 39.59 10.11 39.55
  L 14.94 39.11
  A 0.05 0.02 -1.7 0 1 15.00 39.13
  Q 14.90 39.22 14.81 39.31
  A 0.05 0.05 0.0 0 0 14.85 39.39
  Q 19.27 38.92 23.59 39.80
  C 27.75 40.65 31.09 39.55 35.33 41.39
  Q 35.78 41.59 36.28 41.51
  C 38.77 41.13 38.32 44.12 41.60 43.55
  L 40.50 47.47
  Q 39.51 46.05 37.72 47.01
  Q 37.20 47.29 36.74 46.92
  Q 35.77 46.13 34.63 46.76
  Q 34.18 47.01 33.66 46.98
  L 7.40 45.65
  L 9.15 37.98
  Z"
/>
<path fill="#ffffff" d="
  M 435.50 38.30
  Q 437.03 39.23 436.70 39.33
  Q 436.42 42.71 435.16 43.12
  C 432.42 42.89 428.88 42.16 428.35 45.33
  Q 427.89 48.10 426.00 56.47
  Q 422.46 56.88 419.58 55.91
  L 420.72 51.41
  L 422.46 43.12
  C 422.49 35.95 430.76 38.78 435.50 38.30
  Z"
/>
<path fill="#f8901a" d="
  M 139.33 39.23
  L 141.16 41.02
  Q 141.55 41.39 142.04 41.16
  Q 145.26 39.66 148.25 41.88
  Q 148.54 42.10 148.90 42.13
  L 159.35 43.10
  Q 159.89 43.15 160.33 42.85
  Q 161.24 42.23 161.28 43.02
  L 159.67 50.81
  Q 158.16 50.39 157.55 48.92
  Q 157.36 48.46 156.89 48.30
  Q 155.62 47.88 154.32 48.35
  A 0.59 0.51 35.3 0 1 154.11 48.37
  L 144.33 47.05
  Q 143.95 47.00 143.61 46.81
  Q 141.89 45.81 139.91 46.02
  A 0.99 0.99 0.0 0 1 138.96 45.56
  Q 138.49 44.80 138.40 43.39
  L 139.33 39.23
  Z"
/>
<path fill="#f2791b" d="
  M 199.76 40.70
  Q 201.17 42.66 203.75 43.29
  Q 211.05 45.09 221.08 44.15
  L 220.15 49.11
  Q 214.95 48.38 209.70 47.53
  Q 207.38 47.15 204.22 46.36
  Q 201.52 45.69 198.76 45.12
  L 199.76 40.70
  Z"
/>
<path fill="#ed6e31" d="
  M 464.80 40.81
  Q 468.29 43.49 473.19 44.06
  Q 473.46 44.09 473.51 43.81
  Q 473.53 43.71 473.55 43.57
  Q 473.56 43.53 473.60 43.53
  Q 479.87 43.55 481.48 43.97
  Q 484.36 44.71 485.76 42.73
  C 485.09 46.30 482.42 50.78 486.91 53.02
  Q 485.15 55.67 482.58 51.66
  A 1.15 1.15 0.0 0 0 481.67 51.13
  L 475.69 50.91
  A 0.52 0.51 -29.5 0 1 475.43 50.84
  Q 472.14 49.14 468.44 49.54
  A 1.28 1.19 52.9 0 1 467.76 49.42
  Q 466.21 48.63 464.49 48.75
  Q 464.01 48.78 463.81 48.34
  L 463.30 47.21
  L 464.80 40.81
  Z"
/>
<path fill="#ffffff" d="
  M 348.23 43.62
  L 350.81 49.07
  L 346.43 68.21
  Q 346.30 68.76 346.60 69.25
  L 347.38 70.48
  Q 347.71 71.00 347.10 71.01
  L 325.67 71.37
  A 0.61 0.58 -26.6 0 1 325.28 71.25
  Q 323.38 69.78 323.81 66.61
  L 341.73 66.59
  A 0.55 0.55 0.0 0 0 342.15 65.70
  L 341.12 64.41
  Q 340.87 64.09 340.95 63.69
  L 342.70 55.70
  L 343.98 50.11
  L 345.46 44.02
  L 346.11 41.22
  Q 346.28 40.54 346.81 41.00
  Q 347.73 41.79 348.23 43.62
  Z"
/>
<path fill="#f2791b" d="
  M 538.12 40.92
  Q 538.44 41.21 539.46 40.93
  C 541.33 40.43 544.98 41.41 547.07 41.57
  C 552.22 41.97 557.42 40.73 563.02 41.70
  A 0.28 0.27 20.6 0 1 563.21 42.11
  L 563.01 42.45
  A 0.18 0.18 0.0 0 0 563.23 42.71
  Q 563.95 42.46 564.62 42.57
  Q 560.97 47.11 559.23 51.92
  L 558.29 52.45
  A 0.68 0.67 -38.7 0 1 557.53 52.37
  Q 556.93 51.85 556.22 51.99
  C 553.32 52.57 551.39 51.03 548.81 50.93
  Q 542.79 50.69 536.85 49.81
  Q 536.80 49.80 536.77 49.75
  L 536.59 49.45
  Q 536.45 49.22 536.32 49.45
  Q 536.10 49.85 535.78 49.75
  L 538.12 40.92
  Z"
/>
<path fill="#ed6e31" d="
  M 323.40 40.96
  Q 323.48 41.71 323.79 42.05
  Q 324.05 42.33 324.76 42.20
  C 329.12 41.40 333.69 42.76 336.83 43.06
  Q 341.13 43.47 345.46 44.02
  L 343.98 50.11
  Q 334.68 47.62 325.51 47.84
  Q 325.25 47.84 324.51 47.69
  Q 323.66 47.51 323.34 48.39
  Q 323.18 48.83 322.71 48.78
  Q 322.17 48.72 321.84 47.72
  L 323.40 40.96
  Z"
/>
<path fill="#ed6e31" d="
  M 495.30 41.63
  Q 501.37 41.73 506.58 43.98
  Q 506.79 44.07 506.79 44.30
  L 506.79 44.64
  Q 506.79 44.98 507.13 45.00
  L 515.51 45.56
  Q 515.87 45.59 515.94 45.94
  Q 516.02 46.30 516.45 46.26
  Q 516.87 46.21 516.98 45.81
  Q 517.13 45.24 517.68 45.24
  L 515.55 54.49
  L 491.97 51.17
  Q 494.60 46.56 495.30 41.63
  Z"
/>
<path fill="#ed6e31" d="
  M 261.38 42.67
  C 269.93 47.29 279.77 44.42 288.96 44.82
  Q 294.26 45.05 299.59 44.70
  Q 300.09 44.66 300.54 44.88
  C 303.20 46.17 307.17 44.77 309.99 44.14
  L 310.50 50.84
  Q 305.92 50.58 301.38 50.39
  C 296.75 50.19 292.55 51.32 288.02 52.12
  L 274.40 52.41
  Q 270.22 50.97 265.71 49.98
  Q 264.00 49.61 261.75 49.75
  Q 259.77 49.88 257.75 49.82
  L 261.38 42.67
  Z"
/>
<path fill="#ed6e31" d="
  M 230.83 42.55
  Q 230.98 43.29 231.24 43.64
  Q 231.47 43.93 232.20 43.81
  C 234.19 43.49 235.26 44.77 236.83 45.09
  Q 240.91 45.92 245.04 46.05
  A 0.21 0.20 1.4 0 0 245.25 45.86
  Q 245.28 45.52 244.96 45.38
  Q 244.56 45.21 244.98 45.12
  Q 247.58 44.51 248.90 46.13
  L 247.23 53.77
  Q 238.18 54.48 229.16 53.59
  Q 228.64 53.54 228.16 53.77
  Q 225.63 54.99 222.82 55.37
  Q 222.38 55.42 222.16 55.05
  L 221.85 54.52
  A 0.30 0.27 74.5 0 0 221.63 54.38
  C 213.90 53.42 205.17 53.47 197.51 50.64
  L 198.76 45.12
  Q 201.52 45.69 204.22 46.36
  Q 207.38 47.15 209.70 47.53
  Q 214.95 48.38 220.15 49.11
  C 219.35 52.01 223.52 54.10 225.67 52.82
  Q 230.12 49.74 230.83 42.55
  Z"
/>
<path fill="#e1521f" d="
  M 371.28 44.09
  L 375.37 52.24
  A 0.81 0.79 78.0 0 0 376.03 52.68
  L 377.81 52.79
  A 0.55 0.54 -4.0 0 1 378.32 53.23
  Q 378.78 55.52 378.18 57.99
  Q 377.59 57.64 376.70 57.77
  Q 376.16 57.84 375.73 57.50
  Q 374.24 56.33 373.11 57.93
  Q 372.85 58.30 372.40 58.30
  C 368.16 58.23 363.11 57.05 359.05 58.15
  Q 356.74 58.78 354.82 58.51
  L 350.81 49.07
  L 348.23 43.62
  Q 349.65 43.05 350.76 43.39
  Q 351.18 43.53 351.51 43.22
  Q 352.16 42.60 352.85 42.94
  Q 353.29 43.16 353.78 43.17
  Q 358.70 43.27 363.63 43.33
  Q 365.45 43.35 367.46 43.62
  Q 369.27 43.87 371.28 44.09
  Z"
/>
<path fill="#ed6e31" d="
  M 401.17 43.23
  Q 406.11 43.56 410.87 43.89
  C 412.88 44.03 414.75 45.06 417.26 45.00
  Q 418.83 44.95 419.14 44.00
  Q 419.25 43.65 419.61 43.59
  L 422.46 43.12
  L 420.72 51.41
  C 417.39 51.17 414.16 50.14 410.94 50.06
  Q 405.23 49.92 399.76 49.16
  L 401.17 43.23
  Z"
/>
<path fill="#ed6e31" d="
  M 138.40 43.39
  Q 138.49 44.80 138.96 45.56
  A 0.99 0.99 0.0 0 0 139.91 46.02
  Q 141.89 45.81 143.61 46.81
  Q 143.95 47.00 144.33 47.05
  L 154.11 48.37
  A 0.59 0.51 35.3 0 0 154.32 48.35
  Q 155.62 47.88 156.89 48.30
  Q 157.36 48.46 157.55 48.92
  Q 158.16 50.39 159.67 50.81
  L 161.57 53.06
  Q 154.71 53.81 147.94 53.35
  Q 147.45 53.31 147.06 53.87
  Q 146.80 54.25 146.34 54.23
  Q 140.31 54.07 136.53 51.34
  L 138.40 43.39
  Z"
/>
<path fill="#ed6e31" d="
  M 190.24 47.56
  L 188.39 55.04
  Q 180.22 53.08 177.50 53.31
  Q 172.27 53.76 167.03 53.72
  Q 166.56 53.72 166.33 53.31
  L 165.65 52.09
  Q 165.91 51.27 165.90 51.60
  Q 168.19 49.14 168.77 45.25
  Q 178.87 48.43 190.24 47.56
  Z"
/>
<path fill="#ed6e31" d="
  M 75.50 45.59
  Q 79.00 46.84 82.78 47.82
  Q 84.55 48.27 88.25 48.35
  Q 92.77 48.44 96.93 50.46
  Q 97.87 53.24 100.06 53.94
  Q 101.84 54.50 102.57 53.33
  Q 106.25 51.36 107.24 45.76
  C 110.17 44.46 111.23 46.14 113.34 47.33
  Q 113.77 47.57 114.26 47.49
  C 118.37 46.84 123.56 49.00 128.43 49.78
  L 126.45 57.75
  C 124.07 57.88 122.64 58.55 120.25 57.79
  C 114.62 56.01 107.73 56.76 101.83 56.74
  Q 101.32 56.74 100.90 56.45
  Q 99.98 55.81 99.17 56.29
  Q 98.84 56.48 98.48 56.57
  Q 96.43 57.10 94.48 56.59
  C 91.23 55.73 88.18 56.86 85.49 56.69
  Q 79.36 56.28 73.48 54.52
  L 75.50 45.59
  Z"
/>
<path fill="#f89b21" d="
  M 40.50 47.47
  L 37.41 60.03
  Q 36.44 60.23 34.51 59.79
  Q 31.50 59.10 31.42 61.89
  Q 31.40 62.48 30.81 62.45
  L 21.51 61.88
  A 0.21 0.16 53.3 0 1 21.41 61.85
  Q 20.40 61.22 19.46 61.63
  Q 18.99 61.83 18.48 61.82
  Q 16.17 61.78 13.85 61.91
  C 11.10 62.06 8.16 60.94 4.97 62.47
  Q 4.36 62.77 3.91 61.43
  L 7.40 45.65
  L 33.66 46.98
  Q 34.18 47.01 34.63 46.76
  Q 35.77 46.13 36.74 46.92
  Q 37.20 47.29 37.72 47.01
  Q 39.51 46.05 40.50 47.47
  Z"
/>
<path fill="#e1521f" d="
  M 434.98 45.56
  Q 439.32 47.41 443.60 47.40
  C 447.91 47.39 451.19 48.81 455.15 49.82
  L 453.48 57.62
  Q 451.05 58.82 448.76 57.50
  Q 448.33 57.25 447.82 57.26
  C 444.47 57.27 441.51 56.08 438.26 56.37
  Q 434.74 56.69 431.79 56.36
  Q 434.03 51.27 434.98 45.56
  Z"
/>
<path fill="#d64022" d="
  M 463.30 47.21
  L 463.81 48.34
  Q 464.01 48.78 464.49 48.75
  Q 466.21 48.63 467.76 49.42
  A 1.28 1.19 52.9 0 0 468.44 49.54
  Q 472.14 49.14 475.43 50.84
  A 0.52 0.51 -29.5 0 0 475.69 50.91
  L 481.67 51.13
  A 1.15 1.15 0.0 0 1 482.58 51.66
  Q 485.15 55.67 486.91 53.02
  Q 488.36 53.53 490.02 53.01
  Q 491.02 52.57 491.97 51.17
  L 515.55 54.49
  Q 513.69 65.46 503.25 66.00
  Q 495.52 66.40 468.00 66.17
  C 458.80 62.20 461.82 54.77 463.30 47.21
  Z"
/>
<path fill="#e1521f" d="
  M 321.84 47.72
  Q 322.17 48.72 322.71 48.78
  Q 323.18 48.83 323.34 48.39
  Q 323.66 47.51 324.51 47.69
  Q 325.25 47.84 325.51 47.84
  Q 334.68 47.62 343.98 50.11
  L 342.70 55.70
  Q 341.74 55.70 339.27 54.79
  Q 336.93 53.93 332.68 54.67
  Q 329.07 55.30 320.48 53.29
  L 321.84 47.72
  Z"
/>
<path fill="#e1521f" d="
  M 399.76 49.16
  Q 405.23 49.92 410.94 50.06
  C 414.16 50.14 417.39 51.17 420.72 51.41
  L 419.58 55.91
  Q 418.15 56.61 416.59 55.95
  Q 416.53 55.92 416.54 55.91
  L 416.74 55.73
  Q 416.99 55.51 416.68 55.40
  C 414.01 54.48 410.92 54.75 408.47 54.47
  Q 404.61 54.02 400.76 54.73
  Q 400.36 54.80 400.25 54.41
  Q 399.79 52.73 398.77 53.42
  L 399.76 49.16
  Z"
/>
<path fill="#d64022" d="
  M 559.23 51.92
  L 555.43 65.24
  Q 555.29 65.75 554.76 65.76
  L 537.69 66.08
  L 531.55 65.73
  A 0.56 0.55 -79.7 0 1 531.06 65.01
  L 535.78 49.75
  Q 536.10 49.85 536.32 49.45
  Q 536.45 49.22 536.59 49.45
  L 536.77 49.75
  Q 536.80 49.80 536.85 49.81
  Q 542.79 50.69 548.81 50.93
  C 551.39 51.03 553.32 52.57 556.22 51.99
  Q 556.93 51.85 557.53 52.37
  A 0.68 0.67 -38.7 0 0 558.29 52.45
  L 559.23 51.92
  Z"
/>
<path fill="#e1521f" d="
  M 257.75 49.82
  Q 259.77 49.88 261.75 49.75
  Q 264.00 49.61 265.71 49.98
  Q 270.22 50.97 274.40 52.41
  L 271.95 58.26
  Q 271.23 58.48 270.49 58.28
  Q 270.09 58.17 269.72 58.36
  Q 268.37 59.08 267.14 58.07
  Q 266.81 57.80 266.39 57.70
  C 263.64 57.01 261.04 55.92 258.18 56.06
  Q 256.45 56.14 254.51 56.24
  L 257.75 49.82
  Z"
/>
<path fill="#e1521f" d="
  M 310.50 50.84
  L 310.78 53.90
  Q 299.85 53.03 290.56 53.31
  Q 289.52 53.35 289.27 54.29
  L 289.24 52.81
  Q 289.23 52.36 288.79 52.27
  L 288.02 52.12
  C 292.55 51.32 296.75 50.19 301.38 50.39
  Q 305.92 50.58 310.50 50.84
  Z"
/>
<path fill="#db5230" d="
  M 197.51 50.64
  C 205.17 53.47 213.90 53.42 221.63 54.38
  A 0.30 0.27 74.5 0 1 221.85 54.52
  L 222.16 55.05
  Q 222.38 55.42 222.82 55.37
  Q 225.63 54.99 228.16 53.77
  Q 228.64 53.54 229.16 53.59
  Q 238.18 54.48 247.23 53.77
  C 245.19 62.71 242.93 66.45 233.13 66.49
  Q 217.93 66.55 202.76 66.65
  C 194.79 63.10 195.95 57.69 197.51 50.64
  Z"
/>
<path fill="#db5230" d="
  M 136.53 51.34
  Q 140.31 54.07 146.34 54.23
  Q 146.80 54.25 147.06 53.87
  Q 147.45 53.31 147.94 53.35
  Q 154.71 53.81 161.57 53.06
  Q 164.53 53.20 165.65 52.09
  L 166.33 53.31
  Q 166.56 53.72 167.03 53.72
  Q 172.27 53.76 177.50 53.31
  Q 180.22 53.08 188.39 55.04
  C 186.23 64.33 180.48 66.46 171.28 66.60
  Q 157.25 66.82 143.19 66.39
  Q 133.64 60.95 136.53 51.34
  Z"
/>
<path fill="#ffffff" d="
  M 288.02 52.12
  L 288.79 52.27
  Q 289.23 52.36 289.24 52.81
  L 289.27 54.29
  Q 289.60 55.61 289.39 56.79
  L 280.74 56.52
  Q 280.23 56.50 280.01 56.97
  C 278.41 60.42 274.21 67.08 276.35 70.70
  Q 276.69 71.26 276.03 71.26
  C 269.45 71.20 262.92 71.60 256.43 70.95
  Q 255.85 70.89 256.02 70.34
  L 257.16 66.63
  L 270.58 66.65
  A 0.56 0.56 0.0 0 0 271.02 65.75
  L 270.12 64.59
  Q 269.78 64.15 269.97 63.62
  L 271.95 58.26
  L 274.40 52.41
  L 288.02 52.12
  Z"
/>
<path fill="#d64022" d="
  M 320.48 53.29
  Q 329.07 55.30 332.68 54.67
  Q 336.93 53.93 339.27 54.79
  Q 341.74 55.70 342.70 55.70
  L 340.95 63.69
  Q 340.87 64.09 341.12 64.41
  L 342.15 65.70
  A 0.55 0.55 0.0 0 1 341.73 66.59
  L 323.81 66.61
  L 319.98 66.63
  A 0.88 0.86 75.3 0 1 319.22 66.17
  Q 318.16 64.21 318.54 62.00
  Q 319.40 56.88 320.48 53.29
  Z"
/>
<path fill="#d64022" d="
  M 419.58 55.91
  Q 422.46 56.88 426.00 56.47
  L 431.79 56.36
  Q 434.74 56.69 438.26 56.37
  C 441.51 56.08 444.47 57.27 447.82 57.26
  Q 448.33 57.25 448.76 57.50
  Q 451.05 58.82 453.48 57.62
  C 451.54 66.01 449.14 65.53 441.52 66.08
  C 428.63 67.02 415.00 66.22 402.10 66.30
  Q 398.96 66.97 396.50 66.24
  Q 395.91 66.07 396.04 65.47
  L 398.77 53.42
  Q 399.79 52.73 400.25 54.41
  Q 400.36 54.80 400.76 54.73
  Q 404.61 54.02 408.47 54.47
  C 410.92 54.75 414.01 54.48 416.68 55.40
  Q 416.99 55.51 416.74 55.73
  L 416.54 55.91
  Q 416.53 55.92 416.59 55.95
  Q 418.15 56.61 419.58 55.91
  Z"
/>
<path fill="#d64022" d="
  M 310.78 53.90
  L 311.81 65.61
  Q 311.89 66.57 310.93 66.58
  L 295.32 66.77
  Q 292.62 67.12 290.71 66.23
  Q 290.21 66.00 290.16 65.46
  L 289.39 56.79
  Q 289.60 55.61 289.27 54.29
  Q 289.52 53.35 290.56 53.31
  Q 299.85 53.03 310.78 53.90
  Z"
/>
<path fill="#db5230" d="
  M 73.48 54.52
  Q 79.36 56.28 85.49 56.69
  C 88.18 56.86 91.23 55.73 94.48 56.59
  Q 96.43 57.10 98.48 56.57
  Q 98.84 56.48 99.17 56.29
  Q 99.98 55.81 100.90 56.45
  Q 101.32 56.74 101.83 56.74
  C 107.73 56.76 114.62 56.01 120.25 57.79
  C 122.64 58.55 124.07 57.88 126.45 57.75
  C 123.09 66.78 117.40 66.51 108.03 66.66
  Q 94.04 66.89 79.96 66.69
  Q 72.00 62.90 73.48 54.52
  Z"
/>
<path fill="#d64022" d="
  M 254.51 56.24
  Q 256.45 56.14 258.18 56.06
  C 261.04 55.92 263.64 57.01 266.39 57.70
  Q 266.81 57.80 267.14 58.07
  Q 268.37 59.08 269.72 58.36
  Q 270.09 58.17 270.49 58.28
  Q 271.23 58.48 271.95 58.26
  L 269.97 63.62
  Q 269.78 64.15 270.12 64.59
  L 271.02 65.75
  A 0.56 0.56 0.0 0 1 270.58 66.65
  L 257.16 66.63
  Q 250.44 67.37 250.77 64.66
  L 252.30 60.39
  L 254.51 56.24
  Z"
/>
<path fill="#d64022" d="
  M 378.18 57.99
  L 376.96 65.09
  Q 376.71 66.54 375.24 66.54
  L 361.75 66.61
  C 358.19 67.73 355.83 61.10 354.82 58.51
  Q 356.74 58.78 359.05 58.15
  C 363.11 57.05 368.16 58.23 372.40 58.30
  Q 372.85 58.30 373.11 57.93
  Q 374.24 56.33 375.73 57.50
  Q 376.16 57.84 376.70 57.77
  Q 377.59 57.64 378.18 57.99
  Z"
/>
<path fill="#f2791b" d="
  M 37.41 60.03
  Q 36.82 64.67 40.98 66.90
  Q 40.09 68.78 38.89 67.64
  Q 37.97 66.77 36.98 65.80
  Q 36.62 65.45 36.22 65.76
  C 34.61 67.02 31.59 65.98 29.48 66.43
  Q 27.02 66.95 25.42 66.99
  C 20.30 67.10 16.03 67.98 10.34 66.85
  C 8.06 66.40 5.95 66.77 3.71 66.90
  Q 3.31 66.93 3.15 66.56
  Q 2.97 66.13 3.01 65.73
  L 3.91 61.43
  Q 4.36 62.77 4.97 62.47
  C 8.16 60.94 11.10 62.06 13.85 61.91
  Q 16.17 61.78 18.48 61.82
  Q 18.99 61.83 19.46 61.63
  Q 20.40 61.22 21.41 61.85
  A 0.21 0.16 53.3 0 0 21.51 61.88
  L 30.81 62.45
  Q 31.40 62.48 31.42 61.89
  Q 31.50 59.10 34.51 59.79
  Q 36.44 60.23 37.41 60.03
  Z"
/>
<path fill="#ed6e31" d="
  M 66.54 71.51
  L 64.05 79.07
  Q 61.96 78.88 59.67 76.50
  A 1.03 1.02 66.0 0 0 58.87 76.19
  L 39.41 77.57
  Q 39.04 77.60 39.01 77.22
  Q 39.00 77.02 39.00 76.81
  Q 39.00 76.34 38.54 76.33
  L 27.17 75.98
  Q 26.69 75.97 26.30 76.24
  Q 25.85 76.55 25.48 76.47
  C 17.85 74.75 9.15 80.09 1.89 76.24
  Q 0.66 71.28 3.01 65.73
  Q 2.97 66.13 3.15 66.56
  Q 3.31 66.93 3.71 66.90
  C 5.95 66.77 8.06 66.40 10.34 66.85
  C 16.03 67.98 20.30 67.10 25.42 66.99
  Q 27.02 66.95 29.48 66.43
  C 31.59 65.98 34.61 67.02 36.22 65.76
  Q 36.62 65.45 36.98 65.80
  Q 37.97 66.77 38.89 67.64
  Q 40.09 68.78 40.98 66.90
  Q 41.98 67.59 42.72 66.76
  C 49.30 66.78 63.55 68.65 68.22 63.55
  A 0.45 0.45 0.0 0 1 68.98 63.99
  L 66.54 71.51
  Z"
/>
<path fill="#ffffff" d="
  M 9.94 86.20
  C 12.50 86.78 14.77 87.49 17.42 87.49
  Q 36.43 87.53 55.53 87.47
  Q 63.31 87.44 64.05 79.07
  L 66.54 71.51
  Q 71.02 71.15 73.77 68.05
  A 0.41 0.41 0.0 0 1 74.47 68.46
  Q 71.58 76.91 69.01 85.62
  Q 68.07 88.81 66.41 90.29
  Q 64.02 92.42 61.17 92.44
  Q 41.98 92.55 22.76 92.50
  C 18.44 92.49 12.64 90.04 9.94 86.20
  Z"
/>
<path fill="#db5230" d="
  M 64.05 79.07
  Q 63.31 87.44 55.53 87.47
  Q 36.43 87.53 17.42 87.49
  C 14.77 87.49 12.50 86.78 9.94 86.20
  Q 4.04 82.95 1.89 76.24
  C 9.15 80.09 17.85 74.75 25.48 76.47
  Q 25.85 76.55 26.30 76.24
  Q 26.69 75.97 27.17 75.98
  L 38.54 76.33
  Q 39.00 76.34 39.00 76.81
  Q 39.00 77.02 39.01 77.22
  Q 39.04 77.60 39.41 77.57
  L 58.87 76.19
  A 1.03 1.02 66.0 0 1 59.67 76.50
  Q 61.96 78.88 64.05 79.07
  Z"
/>
</svg>
