<?xml version="1.0" encoding="UTF-8" standalone="no"?>
<!DOCTYPE svg PUBLIC "-//W3C//DTD SVG 1.1//EN" "http://www.w3.org/Graphics/SVG/1.1/DTD/svg11.dtd">
<svg xmlns="http://www.w3.org/2000/svg" version="1.1" viewBox="0 0 600 300">
<path fill="#000000" d="
  M 516.19 81.52
  Q 512.26 81.07 513.86 77.27
  A 0.82 0.71 -77.2 0 1 514.55 76.76
  L 522.18 76.76
  A 0.78 0.74 79.1 0 1 522.88 77.26
  Q 523.51 78.96 522.69 80.51
  A 0.97 0.77 9.0 0 1 521.93 80.94
  Q 520.75 80.99 519.73 81.56
  A 0.92 0.89 -13.9 0 0 519.26 82.31
  L 518.98 91.01
  A 1.60 0.81 79.6 0 1 518.72 91.90
  C 515.98 95.28 516.70 82.39 516.69 82.07
  A 0.57 0.55 3.5 0 0 516.19 81.52
  Z"
/>
<path fill="#000000" d="
  M 464.88 78.18
  A 1.79 1.78 -84.2 0 1 466.55 76.81
  C 467.10 76.79 476.13 75.92 473.38 78.67
  A 1.33 1.01 17.0 0 1 472.51 78.99
  Q 468.07 79.02 469.60 82.76
  A 2.30 2.27 -7.2 0 0 471.40 84.14
  Q 473.79 84.46 473.81 85.45
  A 0.63 0.54 -1.0 0 1 473.19 86.00
  L 465.54 86.21
  A 2.13 1.90 4.9 0 0 463.55 87.70
  C 462.38 92.80 469.64 90.60 472.43 90.78
  A 1.55 1.33 -19.1 0 1 473.32 91.13
  C 476.52 93.96 463.43 92.98 462.54 92.94
  A 1.31 1.25 1.5 0 1 461.31 91.70
  L 461.27 85.70
  A 1.00 0.96 -3.2 0 1 462.17 84.73
  C 466.19 84.37 464.26 80.79 464.88 78.18
  Z"
/>
<path fill="#000000" d="
  M 479.77 88.16
  C 481.57 88.90 487.96 87.16 484.83 92.15
  A 1.03 1.03 -77.6 0 1 484.08 92.63
  C 482.36 92.83 480.65 92.78 478.84 92.87
  C 475.95 93.01 476.76 90.34 476.73 88.51
  Q 476.63 83.25 476.74 77.99
  A 1.29 1.06 72.9 0 1 477.09 77.13
  C 479.26 75.15 479.13 86.49 479.25 87.45
  A 0.92 0.85 -83.6 0 0 479.77 88.16
  Z"
/>
<path fill="#000000" d="
  M 496.29 84.07
  L 498.75 84.29
  A 1.19 0.52 -1.7 0 1 499.58 84.62
  C 502.45 88.75 486.23 82.42 489.72 90.11
  A 0.86 0.85 -10.1 0 0 490.43 90.60
  Q 494.12 90.86 497.83 90.77
  C 499.31 90.73 501.31 91.91 498.25 92.75
  Q 496.26 93.30 488.06 92.49
  A 0.70 0.69 -3.4 0 1 487.45 91.96
  Q 486.68 88.61 487.39 85.23
  A 0.79 0.71 -0.6 0 1 488.00 84.67
  C 493.97 83.51 487.72 76.20 493.14 76.62
  C 494.25 76.71 500.51 76.02 499.65 78.24
  A 0.76 0.65 9.1 0 1 498.95 78.67
  Q 494.11 78.63 495.65 83.47
  A 0.88 0.68 80.7 0 0 496.29 84.07
  Z"
/>
<path fill="#000000" d="
  M 505.31 90.51
  L 510.74 90.78
  A 1.57 0.76 -8.6 0 1 511.64 91.06
  C 514.33 93.43 504.07 92.63 503.69 92.57
  A 1.25 1.25 -88.2 0 1 502.64 91.45
  Q 501.91 83.75 502.48 77.76
  A 1.10 1.08 -87.1 0 1 503.57 76.76
  L 511.19 76.80
  A 0.82 0.78 -11.9 0 1 511.92 77.25
  Q 512.76 79.06 511.72 80.77
  A 1.13 0.72 5.4 0 1 510.94 81.17
  L 505.31 81.70
  A 0.74 0.64 -87.3 0 0 504.73 82.31
  Q 504.12 86.13 504.73 89.95
  A 0.67 0.60 85.8 0 0 505.31 90.51
  Z"
/>
<path fill="#000000" d="
  M 529.72 87.06
  L 529.42 91.18
  A 1.34 0.78 81.8 0 1 529.08 92.03
  Q 527.44 93.47 525.47 92.22
  A 1.07 0.94 -79.2 0 1 525.01 91.44
  Q 524.26 84.43 525.12 77.43
  A 0.63 0.63 -88.3 0 1 525.69 76.89
  C 528.25 76.69 530.77 76.78 533.34 76.64
  Q 535.93 76.49 535.50 79.50
  C 535.00 82.95 536.76 83.63 537.45 85.92
  Q 538.32 88.80 537.41 91.77
  A 1.36 1.13 87.9 0 1 536.83 92.52
  Q 536.12 92.93 535.90 92.54
  A 4.33 4.32 -57.2 0 1 535.36 90.03
  C 535.76 85.65 533.79 85.50 530.28 86.42
  A 0.76 0.71 -6.0 0 0 529.72 87.06
  Z
  M 533.48 80.45
  A 1.70 1.70 0.0 0 0 531.78 78.75
  L 528.58 78.75
  A 1.70 1.70 0.0 0 0 526.88 80.45
  L 526.88 82.53
  A 1.70 1.70 0.0 0 0 528.58 84.23
  L 531.78 84.23
  A 1.70 1.70 0.0 0 0 533.48 82.53
  L 533.48 80.45
  Z"
/>
<path fill="#000000" d="
  M 551.4459 91.2800
  A 1.51 1.51 0.0 0 1 549.9281 92.7820
  L 541.4682 92.7377
  A 1.51 1.51 0.0 0 1 539.9661 91.2199
  L 540.0341 78.2400
  A 1.51 1.51 0.0 0 1 541.5519 76.7380
  L 550.0118 76.7823
  A 1.51 1.51 0.0 0 1 551.5139 78.3001
  L 551.4459 91.2800
  Z
  M 549.2249 80.7719
  A 1.82 1.82 0.0 0 0 547.3954 78.9614
  L 544.0954 78.9787
  A 1.82 1.82 0.0 0 0 542.2850 80.8082
  L 542.3151 86.5681
  A 1.82 1.82 0.0 0 0 544.1446 88.3786
  L 547.4446 88.3613
  A 1.82 1.82 0.0 0 0 549.2550 86.5318
  L 549.2249 80.7719
  Z"
/>
<path fill="#000000" d="
  M 556.25 83.45
  C 556.27 83.69 556.85 94.75 554.91 92.38
  C 553.53 90.70 554.30 79.86 554.62 77.44
  A 0.62 0.58 -86.5 0 1 555.19 76.90
  L 563.50 76.75
  Q 565.80 76.71 565.76 79.35
  L 565.59 90.92
  A 2.19 1.90 70.3 0 1 565.04 92.34
  C 562.73 94.70 563.27 83.11 563.26 82.47
  A 1.23 1.19 -2.5 0 0 561.95 81.31
  L 557.97 81.56
  A 1.84 1.74 -4.2 0 0 556.25 83.45
  Z"
/>
<path fill="#000000" d="
  M 569.53 87.00
  C 569.57 86.28 569.07 74.57 571.67 77.13
  A 1.30 1.20 23.2 0 1 572.06 78.00
  L 572.23 84.65
  Q 572.29 86.94 573.09 88.40
  Q 575.41 92.56 571.66 92.78
  C 569.43 92.92 566.34 93.30 567.18 89.79
  A 1.50 0.59 -31.2 0 1 567.74 89.06
  L 569.17 87.88
  A 1.37 0.82 81.4 0 0 569.53 87.00
  Z"
/>
<path fill="#000000" d="
  M 576.66 77.88
  A 1.24 1.17 -85.6 0 1 577.84 76.81
  L 585.32 76.89
  A 0.81 0.74 78.5 0 1 586.01 77.40
  Q 587.91 82.23 581.00 81.38
  Q 578.27 81.04 578.39 83.40
  L 578.72 89.69
  A 0.83 0.72 9.2 0 0 579.28 90.36
  Q 581.31 91.05 583.50 90.82
  Q 584.04 90.76 584.45 90.94
  C 590.02 93.38 578.37 92.67 578.18 92.68
  A 1.79 1.79 88.0 0 1 576.37 90.99
  Q 575.94 83.19 576.66 77.88
  Z"
/>
<path fill="#000000" d="
  M 591.29 83.82
  Q 594.09 84.58 597.30 84.22
  Q 599.50 83.97 599.50 86.18
  L 599.50 91.02
  A 1.75 1.75 -3.3 0 1 597.95 92.76
  Q 593.15 93.31 588.31 92.81
  C 587.54 92.73 585.39 91.93 587.35 91.08
  Q 588.63 90.53 590.02 90.65
  Q 596.22 91.17 594.49 87.25
  Q 593.66 85.37 591.67 85.84
  C 586.64 87.03 588.15 80.50 588.47 77.78
  A 1.15 1.12 -86.3 0 1 589.60 76.76
  L 596.44 76.80
  A 0.95 0.94 -16.6 0 1 597.23 77.22
  C 599.88 81.24 588.54 75.59 590.67 83.21
  A 0.88 0.86 0.2 0 0 591.29 83.82
  Z"
/>
<path fill="#000000" d="
  M 433.30 90.99
  L 441.75 91.27
  A 1.20 0.72 -8.9 0 1 442.59 91.61
  C 444.63 94.34 432.39 93.10 431.80 93.05
  A 1.70 1.70 2.6 0 1 430.25 91.36
  C 430.25 89.20 429.28 84.31 432.19 84.40
  A 1.53 0.83 13.6 0 0 433.10 84.16
  Q 434.23 83.26 433.75 81.50
  Q 432.71 77.70 434.81 77.31
  Q 438.40 76.65 442.00 77.17
  A 0.98 0.74 -1.4 0 1 442.74 77.70
  Q 443.19 78.99 440.22 79.45
  A 2.06 2.06 -86.4 0 0 438.55 80.93
  Q 437.41 84.97 441.75 84.56
  A 1.15 0.88 -19.4 0 1 442.62 84.84
  C 444.92 87.27 434.07 86.50 433.36 86.50
  A 0.78 0.66 -0.3 0 0 432.57 87.18
  L 432.68 90.47
  A 0.64 0.53 0.7 0 0 433.30 90.99
  Z"
/>
<path fill="#000000" d="
  M 445.54 79.68
  Q 445.67 75.88 447.44 77.87
  A 1.44 1.16 -70.4 0 1 447.75 78.76
  C 447.75 81.10 447.78 83.39 447.62 85.72
  C 447.17 92.05 456.15 84.87 454.78 91.60
  A 2.07 2.06 -84.2 0 1 452.76 93.25
  L 447.91 93.25
  Q 445.60 93.25 445.53 90.94
  Q 445.36 84.71 445.54 79.68
  Z"
/>
<path fill="#000000" d="
  M 377.72 78.32
  A 0.73 0.72 -8.0 0 1 378.21 77.68
  Q 381.11 76.64 383.98 77.64
  A 0.95 0.83 6.2 0 1 384.59 78.30
  L 385.72 84.51
  A 1.54 0.42 85.4 0 0 386.04 85.39
  C 387.94 87.56 389.41 73.31 393.71 77.77
  C 395.13 79.24 394.47 86.05 394.49 88.27
  C 394.51 89.54 395.67 89.67 396.07 88.57
  Q 397.89 83.56 399.65 78.98
  A 2.31 2.30 -79.4 0 1 401.80 77.50
  L 408.11 77.50
  A 1.39 1.39 89.7 0 1 409.50 78.89
  L 409.50 91.75
  A 1.00 0.93 73.8 0 1 409.10 92.55
  C 405.56 95.05 404.94 92.26 404.79 89.46
  Q 404.57 85.02 399.65 86.99
  A 1.38 1.20 -85.2 0 0 398.97 87.65
  C 398.06 89.59 397.50 91.89 395.60 92.95
  C 390.19 95.98 393.50 81.86 391.81 81.39
  A 0.73 0.62 -66.3 0 0 391.06 81.75
  C 389.94 83.75 388.53 90.38 385.21 88.63
  Q 383.40 87.67 383.46 85.63
  Q 383.56 82.07 381.85 81.60
  Q 379.75 81.01 379.75 83.20
  C 379.75 85.67 380.35 91.31 379.00 93.00
  Q 377.93 94.34 377.75 92.25
  Q 377.18 85.47 377.72 78.32
  Z
  M 401.86 79.88
  Q 400.33 81.88 400.49 83.69
  A 0.72 0.67 4.2 0 0 401.06 84.30
  Q 403.88 84.86 406.71 84.29
  A 0.85 0.85 -87.0 0 0 407.35 83.71
  Q 409.07 78.18 402.79 79.32
  A 1.52 1.50 -75.7 0 0 401.86 79.88
  Z"
/>
<path fill="#000000" d="
  M 413.03 81.65
  C 410.47 82.17 409.70 76.92 413.88 77.16
  C 419.00 77.44 424.28 77.25 429.52 77.25
  A 1.13 1.12 -9.4 0 1 430.59 78.01
  Q 432.07 82.32 427.79 81.86
  A 1.18 1.17 -87.1 0 0 426.50 83.03
  L 426.45 91.93
  A 0.91 0.81 77.7 0 1 426.01 92.71
  C 423.62 93.95 424.28 83.99 424.25 82.94
  A 1.22 1.21 -0.5 0 0 423.03 81.75
  L 418.99 81.75
  A 1.53 1.53 88.7 0 0 417.46 83.35
  C 417.50 84.33 418.23 94.56 415.87 92.85
  A 1.33 0.90 -82.8 0 1 415.44 92.00
  C 415.15 89.67 416.21 82.74 413.97 81.68
  A 1.60 0.68 -21.1 0 0 413.03 81.65
  Z"
/>
<path fill="#000000" d="
  M 0.21 164.00
  L 0.21 84.75
  C 0.47 83.20 1.81 83.76 2.86 83.74
  Q 13.90 83.54 24.93 84.04
  A 0.53 0.53 1.1 0 1 25.44 84.57
  L 25.32 163.80
  A 0.53 0.52 88.9 0 1 24.82 164.33
  C 21.86 164.41 1.32 165.14 0.21 164.00
  Z"
/>
<path fill="#000000" d="
  M 295.83 101.48
  Q 295.72 101.49 295.61 101.55
  A 0.42 0.34 78.5 0 0 295.43 101.90
  L 295.54 111.71
  A 1.06 1.02 87.7 0 1 294.59 112.78
  Q 286.38 113.36 276.15 112.64
  A 1.22 1.21 2.3 0 1 275.01 111.42
  L 275.06 100.75
  A 0.82 0.81 0.3 0 1 275.89 99.94
  L 316.57 100.18
  A 0.71 0.71 -9.9 0 1 317.24 100.65
  L 332.33 143.02
  Q 333.18 145.40 334.00 143.01
  L 353.85 84.51
  A 1.13 1.12 9.4 0 1 354.92 83.75
  L 364.15 83.75
  A 0.73 0.72 9.4 0 1 364.84 84.71
  Q 352.81 120.12 340.44 155.94
  C 337.22 165.26 324.40 167.15 318.04 160.21
  Q 315.78 157.74 313.27 150.57
  Q 304.74 126.26 296.31 101.92
  A 0.63 0.41 75.5 0 0 295.83 101.48
  Z"
/>
<path fill="#000000" d="
  M 125.32 99.95
  C 128.52 100.02 131.67 100.15 134.85 99.72
  C 137.30 99.39 136.75 101.53 136.75 103.14
  Q 136.75 106.83 136.75 110.59
  A 0.66 0.66 0.0 0 1 136.09 111.25
  L 126.79 111.25
  Q 124.78 111.25 124.73 113.26
  Q 124.32 130.32 124.49 148.11
  C 124.52 151.07 124.11 153.59 128.26 153.41
  Q 131.88 153.25 135.66 153.25
  A 1.09 1.09 0.0 0 1 136.75 154.34
  L 136.75 163.65
  A 0.85 0.85 0.0 0 1 135.90 164.50
  C 129.01 164.50 106.97 167.12 104.71 157.95
  Q 104.50 157.11 104.50 152.03
  Q 104.50 134.61 104.50 117.19
  Q 104.50 113.38 104.49 113.33
  C 103.90 110.23 98.30 111.25 95.49 111.25
  A 1.24 1.24 0.0 0 1 94.25 110.01
  L 94.25 101.02
  A 1.03 1.02 85.0 0 1 95.09 100.01
  Q 96.38 99.78 97.77 98.99
  Q 110.46 91.81 123.33 84.61
  Q 125.00 83.67 124.82 85.58
  Q 124.11 92.83 124.76 99.44
  A 0.57 0.57 -2.2 0 0 125.32 99.95
  Z"
/>
<path fill="#000000" d="
  M 47.50 133.17
  Q 46.94 133.58 47.25 134.31
  Q 47.50 134.88 47.50 135.25
  L 47.50 163.47
  A 1.00 0.97 -89.7 0 1 46.52 164.47
  L 35.20 164.34
  A 0.54 0.52 89.4 0 1 34.68 163.81
  Q 34.36 139.16 34.50 114.50
  C 34.52 110.47 34.21 107.89 36.78 104.69
  C 41.30 99.05 51.00 97.69 56.07 104.21
  Q 66.62 117.75 77.31 131.19
  Q 78.50 132.68 78.50 130.75
  L 78.50 100.73
  A 0.98 0.97 -86.6 0 1 79.59 99.76
  Q 84.62 100.34 89.82 99.74
  A 1.28 1.28 86.6 0 1 91.24 101.00
  Q 91.42 126.90 91.06 151.92
  C 90.97 157.92 88.88 161.87 83.25 163.75
  Q 75.03 166.50 69.72 159.81
  Q 59.16 146.50 48.43 133.30
  A 0.70 0.69 52.7 0 0 47.50 133.17
  Z"
/>
<path fill="#000000" d="
  M 165.16 153.20
  L 189.76 153.25
  A 1.24 1.24 0.0 0 1 191.00 154.49
  L 191.00 163.24
  A 1.26 1.26 0.0 0 1 189.74 164.50
  Q 172.00 164.50 155.00 164.65
  C 149.93 164.69 142.69 162.28 142.42 156.03
  C 142.09 148.43 142.49 140.35 142.34 133.32
  Q 142.07 120.41 142.55 107.50
  C 142.82 100.00 153.56 100.00 158.87 100.00
  Q 173.85 100.00 190.10 100.00
  A 0.90 0.90 0.0 0 1 191.00 100.90
  L 191.00 109.50
  A 1.75 1.75 0.0 0 1 189.25 111.25
  L 164.86 111.25
  Q 162.86 111.25 162.68 113.23
  Q 162.19 118.71 162.77 125.99
  A 0.56 0.55 -2.2 0 0 163.33 126.50
  L 189.76 126.50
  A 1.06 1.06 87.0 0 1 190.81 127.45
  Q 191.33 132.32 190.75 137.19
  A 0.58 0.57 -86.6 0 1 190.18 137.70
  L 163.82 137.72
  A 1.32 1.29 -0.0 0 0 162.50 139.01
  L 162.50 150.51
  Q 162.50 153.19 165.16 153.20
  Z"
/>
<path fill="#000000" d="
  M 220.54 152.70
  Q 224.16 153.99 228.72 153.10
  Q 231.84 152.50 231.65 155.06
  C 231.44 158.00 231.56 160.88 231.35 163.81
  A 0.57 0.55 -88.8 0 1 230.82 164.33
  Q 220.50 164.75 210.19 164.36
  C 204.86 164.15 198.91 161.46 198.93 155.25
  Q 199.00 128.25 199.00 100.89
  A 1.13 1.13 1.7 0 1 200.20 99.76
  Q 209.37 100.34 217.97 99.80
  A 1.44 1.43 -1.7 0 1 219.50 101.24
  L 219.31 150.95
  A 1.86 1.85 -80.2 0 0 220.54 152.70
  Z"
/>
<path fill="#000000" d="
  M 240.97 99.95
  Q 248.30 100.04 256.59 99.99
  A 0.66 0.66 0.6 0 1 257.25 100.65
  L 257.25 150.69
  Q 257.25 153.01 259.38 153.07
  L 268.70 153.33
  A 0.58 0.55 -2.3 0 1 269.25 153.81
  Q 269.90 158.87 269.26 163.94
  A 0.58 0.57 -86.0 0 1 268.69 164.44
  C 261.47 164.52 240.15 167.17 237.31 157.94
  Q 236.81 156.30 236.85 150.75
  Q 237.00 126.50 237.00 102.25
  C 237.00 98.54 238.74 99.92 240.97 99.95
  Z"
/>
<rect fill="#000000" x="-10.09" y="-6.51" transform="translate(370.66,106.46) rotate(0.1)" width="20.18" height="13.02" rx="0.71"/>
<path fill="#000000" d="
  M 415.52 151.77
  Q 417.39 147.93 413.22 145.26
  Q 403.33 138.93 396.56 133.94
  C 385.84 126.03 386.87 105.77 400.09 100.88
  Q 402.47 100.00 408.04 100.01
  Q 422.21 100.03 437.02 99.93
  A 0.67 0.66 -0.0 0 1 437.69 100.59
  L 437.75 110.11
  A 1.09 1.08 -0.0 0 1 436.66 111.19
  L 413.49 111.25
  A 1.69 1.36 22.2 0 0 412.58 111.52
  C 408.02 114.64 413.23 118.58 416.57 120.93
  C 422.82 125.34 433.53 132.18 436.40 139.43
  C 440.60 150.00 433.63 164.42 421.25 164.46
  Q 406.25 164.50 390.52 164.50
  A 1.27 1.27 -90.0 0 1 389.25 163.23
  L 389.25 154.39
  A 1.08 1.07 -90.0 0 1 390.32 153.31
  L 413.12 153.25
  A 2.69 2.65 13.0 0 0 415.52 151.77
  Z"
/>
<rect fill="#000000" x="-10.23" y="-6.52" transform="translate(455.99,106.44) rotate(-0.1)" width="20.46" height="13.04" rx="0.83"/>
<path fill="#000000" d="
  M 555.06 133.85
  L 554.82 163.56
  A 0.59 0.58 86.1 0 1 554.32 164.14
  Q 549.48 164.81 543.00 164.39
  A 1.01 1.00 -88.5 0 1 542.06 163.39
  Q 541.95 137.84 541.98 112.00
  C 542.00 100.41 556.91 95.36 564.00 104.54
  Q 574.06 117.57 584.32 130.45
  Q 586.00 132.56 586.00 129.86
  L 586.00 101.19
  A 1.59 1.51 0.9 0 1 587.64 99.68
  L 597.75 99.97
  A 1.03 0.98 0.9 0 1 598.75 100.95
  Q 598.75 127.25 598.81 152.75
  C 598.84 163.56 584.17 168.92 577.40 160.33
  Q 566.82 146.91 556.30 133.43
  Q 555.08 131.86 555.06 133.85
  Z"
/>
<path fill="#000000" d="
  M 536.44 132.22
  A 32.31 32.31 0.0 0 1 504.13 164.53
  A 32.31 32.31 0.0 0 1 471.82 132.22
  A 32.31 32.31 0.0 0 1 504.13 99.91
  A 32.31 32.31 0.0 0 1 536.44 132.22
  Z
  M 503.01 111.36
  C 493.54 112.26 494.25 127.93 494.23 134.85
  C 494.22 140.85 495.34 152.26 502.76 153.12
  C 515.60 154.61 514.34 133.54 513.76 126.49
  C 513.22 119.95 512.26 110.49 503.01 111.36
  Z"
/>
<rect fill="#000000" x="275.00" y="120.01" width="20.30" height="44.48" rx="0.84"/>
<rect fill="#000000" x="360.50" y="120.01" width="20.28" height="44.48" rx="0.74"/>
<rect fill="#000000" x="445.75" y="120.01" width="20.50" height="44.50" rx="0.99"/>
<rect fill="#000000" x="264.49" y="169.42" width="3.50" height="42.32" rx="0.93"/>
<rect fill="#000000" x="272.02" y="169.36" width="3.48" height="6.14" rx="0.98"/>
<rect fill="#000000" x="444.00" y="169.36" width="3.50" height="42.40" rx="0.93"/>
<rect fill="#000000" x="-1.88" y="-21.07" transform="translate(179.13,190.65) rotate(-0.1)" width="3.76" height="42.14" rx="0.62"/>
<rect fill="#000000" x="-1.85" y="-21.19" transform="translate(258.39,190.68) rotate(-0.1)" width="3.70" height="42.38" rx="1.09"/>
<path fill="#000000" d="
  M 403.44 173.02
  Q 396.78 172.45 391.75 172.75
  Q 388.34 172.95 389.48 170.14
  A 0.77 0.75 10.7 0 1 390.19 169.67
  L 422.07 169.67
  A 0.74 0.70 -8.8 0 1 422.76 170.15
  Q 423.15 171.28 422.53 172.34
  A 0.98 0.82 12.4 0 1 421.75 172.75
  L 408.70 172.81
  A 0.71 0.70 -90.0 0 0 408.00 173.52
  Q 408.00 191.91 408.00 209.37
  C 408.00 212.09 407.18 212.13 404.79 211.49
  A 0.99 0.98 -83.0 0 1 404.06 210.55
  L 403.94 173.56
  A 0.54 0.54 2.3 0 0 403.44 173.02
  Z"
/>
<rect fill="#000000" x="-1.88" y="-3.00" transform="translate(505.37,172.49) rotate(-1.1)" width="3.76" height="6.00" rx="1.14"/>
<rect fill="#000000" x="-1.88" y="-3.00" transform="translate(538.37,172.50) rotate(-1.0)" width="3.76" height="6.00" rx="1.15"/>
<path fill="#000000" d="
  M 216.45 184.45
  L 212.55 184.35
  A 0.77 0.55 -5.9 0 1 211.88 183.97
  Q 210.65 180.61 214.80 181.64
  Q 217.04 182.19 217.01 179.88
  C 216.99 178.71 216.58 171.76 217.79 172.06
  A 1.72 0.87 26.9 0 0 218.70 172.06
  C 222.92 170.51 218.32 182.41 221.83 181.65
  Q 222.94 181.40 224.07 181.35
  Q 227.53 181.18 226.63 183.72
  A 0.79 0.69 7.5 0 1 225.94 184.18
  L 221.18 184.39
  A 0.56 0.53 -89.9 0 0 220.67 184.93
  C 220.45 191.61 220.68 198.30 220.37 204.97
  Q 220.14 210.08 225.76 209.33
  A 0.88 0.73 -18.7 0 1 226.57 209.64
  Q 227.15 210.51 226.56 211.37
  A 1.27 0.97 6.8 0 1 225.76 211.84
  Q 216.43 213.41 216.86 204.55
  C 217.17 198.09 217.02 191.54 216.94 185.07
  A 0.62 0.50 -89.5 0 0 216.45 184.45
  Z"
/>
<path fill="#000000" d="
  M 373.13 209.10
  C 374.22 209.64 379.33 208.14 377.47 211.26
  A 1.15 1.10 9.8 0 1 376.70 211.78
  C 366.57 213.59 367.75 206.33 367.74 198.83
  Q 367.73 192.01 367.81 185.19
  A 0.67 0.52 -87.7 0 0 367.34 184.54
  L 363.50 184.19
  A 1.10 0.54 -2.9 0 1 362.71 183.85
  Q 361.96 182.65 362.90 181.59
  A 1.18 0.74 14.6 0 1 363.75 181.32
  L 367.08 181.50
  A 0.61 0.57 -86.0 0 0 367.68 180.94
  Q 367.97 177.25 367.54 174.53
  Q 367.09 171.71 370.13 172.04
  A 1.64 1.56 -87.1 0 1 371.52 173.66
  L 371.55 179.80
  Q 371.55 181.75 373.65 181.53
  Q 378.38 181.05 377.77 183.68
  A 0.75 0.74 -83.0 0 1 377.05 184.25
  L 372.17 184.25
  A 0.67 0.67 0.0 0 0 371.50 184.92
  L 371.50 206.46
  Q 371.50 208.28 373.13 209.10
  Z"
/>
<path fill="#000000" d="
  M 189.80 186.01
  Q 190.34 185.98 190.68 185.43
  Q 193.60 180.69 199.25 180.50
  Q 210.69 180.12 210.72 191.50
  Q 210.75 201.25 210.75 210.99
  A 0.74 0.66 82.0 0 1 210.29 211.68
  Q 209.04 212.07 207.88 211.55
  A 0.86 0.78 -80.2 0 1 207.42 210.82
  Q 207.21 203.72 207.25 191.25
  C 207.29 180.86 193.67 181.29 190.48 189.20
  C 188.42 194.30 189.50 204.84 189.50 211.01
  A 0.68 0.64 82.8 0 1 189.03 211.66
  Q 187.76 212.01 186.52 211.61
  A 0.73 0.66 -81.8 0 1 186.06 210.93
  L 186.00 182.75
  A 1.01 1.01 76.6 0 1 186.55 181.85
  Q 188.01 181.12 188.98 181.37
  A 0.71 0.66 -82.8 0 1 189.48 182.06
  L 189.38 185.44
  A 0.55 0.41 -89.7 0 0 189.80 186.01
  Z"
/>
<path fill="#000000" d="
  M 253.74 201.90
  A 0.83 0.81 -69.7 0 1 254.19 202.90
  Q 251.11 212.73 241.00 212.52
  C 223.01 212.16 223.30 182.22 239.49 180.56
  C 249.45 179.53 254.39 187.00 254.52 196.36
  A 1.13 1.13 89.7 0 1 253.39 197.50
  Q 243.49 197.50 234.41 197.50
  C 232.09 197.50 230.48 196.79 231.25 200.25
  Q 233.33 209.57 241.65 209.64
  C 246.02 209.68 248.99 207.53 250.33 203.45
  Q 251.20 200.82 253.74 201.90
  Z
  M 251.13 193.48
  C 249.24 179.63 232.68 180.40 231.12 193.46
  A 0.96 0.94 3.5 0 0 232.07 194.51
  L 250.06 194.67
  A 1.07 1.04 -3.7 0 0 251.13 193.48
  Z"
/>
<path fill="#000000" d="
  M 302.00 207.07
  Q 301.89 204.93 300.63 206.66
  Q 297.26 211.33 291.75 211.38
  C 278.90 211.50 275.35 197.19 280.06 187.56
  C 283.88 179.75 294.86 177.81 300.64 184.88
  C 303.09 187.88 300.16 181.08 304.26 181.26
  A 1.30 1.29 1.4 0 1 305.50 182.55
  Q 305.50 193.80 305.50 204.78
  Q 305.50 213.51 303.97 217.00
  C 299.87 226.37 283.72 226.66 279.48 216.07
  A 0.94 0.93 -23.8 0 1 279.95 214.88
  Q 282.07 213.87 283.10 215.95
  C 285.38 220.55 289.34 221.29 294.11 220.82
  C 301.25 220.11 302.30 212.84 302.00 207.07
  Z
  M 291.7031 208.7398
  A 12.77 10.27 90.3 0 0 302.0399 196.0238
  A 12.77 10.27 90.3 0 0 291.8369 183.2002
  A 12.77 10.27 90.3 0 0 281.5001 195.9162
  A 12.77 10.27 90.3 0 0 291.7031 208.7398
  Z"
/>
<path fill="#000000" d="
  M 323.42 212.23
  C 300.30 213.98 304.80 176.00 324.39 180.74
  C 331.78 182.53 334.85 188.75 335.02 196.02
  A 1.49 1.46 -0.8 0 1 333.54 197.51
  L 311.93 197.67
  A 0.52 0.51 89.4 0 0 311.43 198.19
  C 311.48 204.98 316.12 210.53 323.27 209.70
  Q 329.02 209.03 330.82 203.57
  Q 331.71 200.85 334.01 201.81
  A 0.91 0.90 -69.8 0 1 334.52 202.92
  Q 331.71 211.60 323.42 212.23
  Z
  M 331.52 193.17
  C 329.74 179.87 313.79 180.24 311.50 193.51
  A 1.03 0.99 4.7 0 0 312.52 194.67
  L 330.14 194.67
  A 1.38 1.32 -3.6 0 0 331.52 193.17
  Z"
/>
<path fill="#000000" d="
  M 340.38 184.95
  A 0.69 0.69 55.1 0 0 341.54 185.16
  Q 346.68 179.28 353.77 180.67
  C 365.69 183.02 361.05 201.42 361.84 210.25
  Q 362.01 212.07 359.11 211.61
  A 1.02 1.02 4.9 0 1 358.25 210.59
  Q 358.29 202.40 358.23 194.73
  C 358.17 188.21 356.95 182.29 349.00 183.50
  C 337.47 185.26 340.58 200.29 340.44 210.93
  A 0.73 0.67 81.8 0 1 339.97 211.61
  Q 338.63 212.04 337.28 211.61
  A 0.73 0.65 -82.5 0 1 336.82 210.93
  L 336.76 182.50
  A 0.96 0.81 77.0 0 1 337.16 181.72
  Q 338.65 180.82 340.04 181.75
  A 0.81 0.70 -67.8 0 1 340.31 182.55
  Q 340.00 183.95 340.38 184.95
  Z"
/>
<path fill="#000000" d="
  M 426.25 212.25
  C 408.90 209.83 411.92 178.71 429.45 180.48
  C 437.83 181.33 442.46 188.63 441.62 196.82
  A 0.59 0.56 2.2 0 1 441.05 197.32
  L 418.94 197.68
  A 0.53 0.52 -0.0 0 0 418.42 198.19
  C 418.10 210.38 433.60 214.70 438.14 202.79
  A 1.56 1.06 -86.4 0 1 438.73 202.03
  Q 439.88 201.35 441.08 201.99
  A 0.65 0.61 -68.5 0 1 441.37 202.72
  Q 438.27 213.93 426.25 212.25
  Z
  M 438.46 193.63
  C 437.18 179.89 420.45 179.98 418.29 193.77
  A 0.73 0.71 4.4 0 0 419.01 194.59
  L 437.46 194.69
  A 1.00 0.96 -2.8 0 0 438.46 193.63
  Z"
/>
<path fill="#000000" d="
  M 463.50 212.54
  C 444.85 212.21 446.06 179.04 464.74 180.60
  C 473.68 181.34 477.06 188.22 477.49 196.30
  A 1.14 1.14 88.6 0 1 476.35 197.50
  L 454.29 197.50
  A 0.63 0.63 87.9 0 0 453.66 198.18
  C 454.18 204.45 456.98 209.22 463.65 209.73
  Q 468.63 210.11 471.83 205.93
  C 473.03 204.37 473.06 201.13 476.28 201.87
  A 0.81 0.81 -74.4 0 1 476.86 202.91
  Q 473.66 212.73 463.50 212.54
  Z
  M 473.83 193.17
  C 471.31 179.07 453.91 181.12 453.92 194.06
  A 0.51 0.51 89.4 0 0 454.43 194.56
  L 472.77 194.44
  A 1.08 1.08 -5.2 0 0 473.83 193.17
  Z"
/>
<path fill="#000000" d="
  M 513.79 182.89
  C 521.01 177.61 530.48 180.44 533.00 189.00
  A 0.67 0.66 -18.0 0 1 532.58 189.81
  C 528.96 191.05 529.52 188.25 528.35 186.53
  C 522.74 178.31 506.80 187.48 517.06 192.94
  C 520.38 194.70 526.62 194.73 530.00 196.72
  C 536.20 200.36 534.85 208.62 528.49 211.22
  C 520.93 214.31 511.45 212.45 509.65 203.31
  A 1.00 0.92 63.4 0 1 509.90 202.44
  C 511.87 200.45 512.76 202.65 513.29 204.27
  C 515.69 211.62 530.21 211.76 530.60 203.65
  C 530.89 197.57 517.68 197.70 513.44 194.74
  C 509.10 191.71 509.68 185.90 513.79 182.89
  Z"
/>
<path fill="#000000" d="
  M 556.9618 212.6700
  A 16.17 14.54 90.1 0 1 542.4500 196.4746
  A 16.17 14.54 90.1 0 1 557.0182 180.3300
  A 16.17 14.54 90.1 0 1 571.5300 196.5254
  A 16.17 14.54 90.1 0 1 556.9618 212.6700
  Z
  M 556.9933 209.8900
  A 13.33 11.02 89.9 0 0 567.9900 196.5408
  A 13.33 11.02 89.9 0 0 556.9467 183.2300
  A 13.33 11.02 89.9 0 0 545.9500 196.5792
  A 13.33 11.02 89.9 0 0 556.9933 209.8900
  Z"
/>
<path fill="#000000" d="
  M 578.30 185.34
  C 584.74 176.72 599.19 179.54 598.75 191.76
  Q 598.45 199.97 598.59 210.05
  A 2.11 2.11 81.2 0 1 597.09 212.10
  Q 596.10 212.41 595.39 211.28
  C 594.32 209.57 595.00 197.74 595.00 195.00
  C 595.00 191.61 595.35 188.63 593.32 186.00
  C 589.53 181.11 581.01 183.45 578.57 188.59
  C 576.31 193.34 577.50 205.01 577.50 210.76
  A 0.86 0.82 76.9 0 1 577.06 211.51
  Q 575.64 212.23 574.24 211.46
  A 0.89 0.83 -76.3 0 1 573.81 210.70
  L 573.75 182.45
  A 0.97 0.97 -8.5 0 1 574.44 181.52
  C 579.75 179.88 576.33 184.58 577.56 185.51
  A 0.58 0.48 -53.0 0 0 578.30 185.34
  Z"
/>
<rect fill="#000000" x="272.00" y="181.29" width="3.50" height="30.48" rx="1.00"/>
<path fill="#000000" d="
  M 489.06 207.25
  Q 489.62 208.77 490.16 207.24
  Q 494.54 194.79 498.75 182.75
  Q 499.70 180.03 502.11 181.70
  A 0.69 0.63 -62.8 0 1 502.32 182.48
  L 491.74 210.60
  A 1.41 1.24 88.5 0 1 491.14 211.32
  Q 488.05 213.08 486.78 209.70
  Q 481.77 196.32 476.24 182.56
  A 0.72 0.71 -27.0 0 1 476.53 181.68
  Q 479.10 180.10 480.17 183.03
  Q 484.72 195.49 489.06 207.25
  Z"
/>
<rect fill="#000000" x="-1.86" y="-15.22" transform="translate(505.39,196.53) rotate(0.1)" width="3.72" height="30.44" rx="1.04"/>
<rect fill="#000000" x="-1.82" y="-15.22" transform="translate(538.32,196.52) rotate(0.1)" width="3.64" height="30.44" rx="1.04"/>
</svg>
