<?xml version="1.0" encoding="UTF-8" standalone="no"?>
<!DOCTYPE svg PUBLIC "-//W3C//DTD SVG 1.1//EN" "http://www.w3.org/Graphics/SVG/1.1/DTD/svg11.dtd">
<svg xmlns="http://www.w3.org/2000/svg" version="1.1" viewBox="0.00 0.00 600.00 300.00">
<g stroke-width="2.00" fill="none" stroke-linecap="butt">
<path stroke="#8f0c38" vector-effect="non-scaling-stroke" d="
  M 156.67 67.62
  Q 156.84 68.28 157.23 68.28"
/>
<path stroke="#8f0c38" vector-effect="non-scaling-stroke" d="
  M 157.74 68.94
  L 157.39 68.84
  Q 156.97 68.73 157.10 69.15
  C 158.93 74.90 159.07 79.77 154.13 83.86
  Q 146.71 89.99 137.61 92.51"
/>
<path stroke="#8f0c38" vector-effect="non-scaling-stroke" d="
  M 152.11 74.66
  Q 151.79 71.76 146.95 70.53
  Q 138.45 68.38 129.77 68.80
  Q 124.05 69.07 112.87 71.21
  Q 94.75 74.68 78.06 80.99
  Q 71.16 83.60 66.23 87.08
  A 0.81 0.81 0.0 0 0 66.26 88.42
  Q 67.81 89.44 69.10 89.75"
/>
<path stroke="#8f0c38" vector-effect="non-scaling-stroke" d="
  M 121.32 110.47
  Q 121.48 111.83 121.84 113.19
  C 123.80 120.45 121.16 125.99 113.96 128.46
  Q 108.34 130.38 102.48 131.49
  Q 74.38 136.84 48.06 139.38
  Q 30.37 141.09 15.38 142.43
  Q 9.19 142.98 3.03 142.75"
/>
<path stroke="#8f0c38" vector-effect="non-scaling-stroke" d="
  M 116.28 116.02
  Q 117.15 114.92 116.00 113.97
  Q 113.78 112.15 107.50 110.22
  Q 90.22 104.91 72.76 100.17
  Q 70.64 99.60 68.69 98.77
  Q 66.74 97.94 64.73 97.06"
/>
<path stroke="#8f0c38" vector-effect="non-scaling-stroke" d="
  M 404.25 74.22
  Q 404.60 79.33 402.25 83.64
  Q 402.00 84.11 402.32 84.54
  L 404.14 87.00"
/>
<path stroke="#8f0c38" vector-effect="non-scaling-stroke" d="
  M 414.25 99.52
  Q 414.42 101.38 414.42 103.02
  Q 414.43 104.81 413.80 106.43
  Q 410.94 113.82 407.68 121.05
  A 0.26 0.26 0.0 0 0 407.95 121.42
  L 411.31 121.07"
/>
<path stroke="#8f0c38" vector-effect="non-scaling-stroke" d="
  M 509.57 124.01
  L 509.12 130.50
  A 0.89 0.88 -88.6 0 1 508.26 131.32
  L 496.31 131.63"
/>
<path stroke="#8f0c38" vector-effect="non-scaling-stroke" d="
  M 493.77 130.58
  Q 494.33 129.08 493.63 128.01
  Q 493.35 127.58 492.84 127.51
  Q 474.40 124.85 457.75 125.73
  Q 430.91 127.15 400.79 131.80"
/>
<path stroke="#8f0c38" vector-effect="non-scaling-stroke" d="
  M 405.47 99.96
  Q 405.72 98.51 403.00 97.16"
/>
<path stroke="#8f0c38" vector-effect="non-scaling-stroke" d="
  M 399.35 92.65
  Q 398.70 91.17 397.46 89.93
  Q 397.12 89.59 396.77 89.91
  Q 383.35 102.22 362.63 116.85
  Q 346.09 128.53 326.52 135.24
  Q 318.36 138.04 308.90 137.70
  Q 306.97 137.63 304.82 136.76
  Q 302.91 135.99 300.88 135.16"
/>
<path stroke="#8f0c38" vector-effect="non-scaling-stroke" d="
  M 364.53 89.65
  Q 366.15 95.03 362.57 97.80
  Q 352.97 105.25 345.53 109.74
  Q 334.33 116.49 322.32 118.18
  Q 316.97 118.93 312.07 116.68
  Q 311.68 116.50 311.40 116.83
  Q 308.57 120.13 306.42 124.00
  Q 304.51 127.44 307.23 129.50
  Q 307.36 129.60 307.50 129.62
  Q 308.19 129.70 307.69 129.38"
/>
<path stroke="#8f0c38" vector-effect="non-scaling-stroke" d="
  M 175.49 89.80
  Q 161.84 99.79 149.27 110.77
  Q 143.07 116.19 137.56 122.30
  Q 136.59 123.37 135.98 124.37
  A 0.89 0.89 0.0 0 0 136.80 125.73
  Q 139.01 125.58 140.17 124.72"
/>
<path stroke="#8f0c38" vector-effect="non-scaling-stroke" d="
  M 214.32 90.95
  Q 205.28 100.13 196.83 109.58
  Q 192.96 113.91 189.18 119.44
  A 0.97 0.97 0.0 0 0 190.00 120.95
  Q 191.45 120.92 192.73 120.47"
/>
<path stroke="#8f0c38" vector-effect="non-scaling-stroke" d="
  M 261.99 91.13
  L 243.76 111.17
  Q 241.77 113.36 244.27 111.78
  L 253.86 105.72"
/>
<path stroke="#8f0c38" vector-effect="non-scaling-stroke" d="
  M 304.36 94.70
  Q 305.23 101.48 300.55 106.29
  Q 289.55 117.58 276.30 125.79
  C 268.22 130.79 258.45 134.83 248.80 133.25
  Q 243.04 132.31 237.94 127.92
  Q 237.58 127.60 237.20 127.89
  Q 220.13 140.97 205.58 158.00
  A 1.60 1.59 -52.3 0 1 203.46 158.28
  L 200.38 156.15"
/>
<path stroke="#8f0c38" vector-effect="non-scaling-stroke" d="
  M 228.07 115.57
  L 234.48 108.27
  Q 235.69 106.90 234.09 107.78
  Q 221.99 114.47 209.05 121.06
  Q 200.10 125.62 192.39 128.40
  Q 187.05 130.32 182.75 127.47"
/>
<path stroke="#8f0c38" vector-effect="non-scaling-stroke" d="
  M 180.29 118.90
  Q 181.16 115.90 182.40 114.28
  Q 184.09 112.08 181.73 113.54
  Q 165.71 123.38 148.64 131.70
  C 145.28 133.34 141.70 134.40 138.00 135.22
  Q 134.23 136.05 130.42 134.02"
/>
<path stroke="#8f0c38" vector-effect="non-scaling-stroke" d="
  M 357.13 93.25
  L 358.07 92.48
  A 0.94 0.94 0.0 0 0 357.93 90.93
  Q 355.94 89.81 353.98 90.20
  Q 349.22 91.14 344.68 93.17
  Q 330.03 99.71 317.48 110.25
  A 0.43 0.42 26.7 0 0 317.73 111.00
  L 322.33 111.29"
/>
<path stroke="#8f0c38" vector-effect="non-scaling-stroke" d="
  M 291.92 102.70
  L 295.40 99.07
  A 0.50 0.49 -64.4 0 0 295.11 98.23
  Q 294.90 98.21 294.60 98.28
  C 276.66 102.95 260.63 111.30 245.17 121.78
  A 0.38 0.38 0.0 0 0 245.13 122.37
  Q 246.52 123.62 248.42 124.34"
/>
</g>
<path fill="#ff0723" d="
  M 156.67 67.62
  Q 156.84 68.28 157.23 68.28
  L 157.74 68.94
  L 157.39 68.84
  Q 156.97 68.73 157.10 69.15
  C 158.93 74.90 159.07 79.77 154.13 83.86
  Q 146.71 89.99 137.61 92.51
  Q 135.79 91.11 135.19 87.94
  Q 134.30 83.30 136.36 81.47
  Q 137.49 80.47 141.52 79.37
  Q 143.62 78.79 146.91 77.66
  Q 150.10 76.56 152.11 74.66
  Q 151.79 71.76 146.95 70.53
  Q 138.45 68.38 129.77 68.80
  Q 124.05 69.07 112.87 71.21
  Q 94.75 74.68 78.06 80.99
  Q 71.16 83.60 66.23 87.08
  A 0.81 0.81 0.0 0 0 66.26 88.42
  Q 67.81 89.44 69.10 89.75
  Q 84.02 93.62 98.15 97.49
  Q 102.54 98.69 105.98 99.89
  C 112.72 102.24 117.79 104.14 121.32 110.47
  Q 121.48 111.83 121.84 113.19
  C 123.80 120.45 121.16 125.99 113.96 128.46
  Q 108.34 130.38 102.48 131.49
  Q 74.38 136.84 48.06 139.38
  Q 30.37 141.09 15.38 142.43
  Q 9.19 142.98 3.03 142.75
  Q 0.37 140.13 0.24 136.51
  C 0.11 132.84 0.33 129.57 4.63 128.90
  Q 7.05 128.53 10.56 128.76
  Q 13.75 128.97 15.01 131.27
  Q 15.26 131.73 15.78 131.69
  Q 49.60 129.24 79.98 124.72
  Q 94.97 122.48 107.62 119.38
  Q 112.10 118.28 116.28 116.02
  Q 117.15 114.92 116.00 113.97
  Q 113.78 112.15 107.50 110.22
  Q 90.22 104.91 72.76 100.17
  Q 70.64 99.60 68.69 98.77
  Q 66.74 97.94 64.73 97.06
  Q 58.53 90.56 59.66 81.74
  Q 59.93 79.61 61.94 78.20
  Q 67.01 74.65 71.95 72.66
  Q 96.75 62.69 124.04 59.82
  Q 135.05 58.66 147.17 60.89
  Q 154.29 62.20 156.67 67.62
  Z"
/>
<path fill="#ff0723" d="
  M 404.25 74.22
  Q 404.60 79.33 402.25 83.64
  Q 402.00 84.11 402.32 84.54
  L 404.14 87.00
  L 414.25 99.52
  Q 414.42 101.38 414.42 103.02
  Q 414.43 104.81 413.80 106.43
  Q 410.94 113.82 407.68 121.05
  A 0.26 0.26 0.0 0 0 407.95 121.42
  L 411.31 121.07
  Q 442.86 116.29 474.36 116.65
  Q 482.48 116.74 488.65 117.42
  Q 495.78 118.22 502.80 119.65
  Q 508.49 120.82 509.57 124.01
  L 509.12 130.50
  A 0.89 0.88 -88.6 0 1 508.26 131.32
  L 496.31 131.63
  Q 494.02 132.01 493.77 130.58
  Q 494.33 129.08 493.63 128.01
  Q 493.35 127.58 492.84 127.51
  Q 474.40 124.85 457.75 125.73
  Q 430.91 127.15 400.79 131.80
  Q 398.28 128.19 396.70 125.78
  Q 395.83 124.43 396.62 122.44
  Q 399.98 113.92 404.35 105.85
  Q 404.84 104.94 405.69 102.45
  Q 406.19 100.97 405.47 99.96
  Q 405.72 98.51 403.00 97.16
  L 399.35 92.65
  Q 398.70 91.17 397.46 89.93
  Q 397.12 89.59 396.77 89.91
  Q 383.35 102.22 362.63 116.85
  Q 346.09 128.53 326.52 135.24
  Q 318.36 138.04 308.90 137.70
  Q 306.97 137.63 304.82 136.76
  Q 302.91 135.99 300.88 135.16
  Q 299.08 133.26 298.09 130.89
  C 296.03 125.94 299.20 119.01 302.20 114.95
  Q 306.04 109.74 310.29 106.05
  Q 323.19 94.86 338.88 87.40
  Q 344.50 84.73 350.21 83.32
  Q 360.48 80.78 364.53 89.65
  Q 366.15 95.03 362.57 97.80
  Q 352.97 105.25 345.53 109.74
  Q 334.33 116.49 322.32 118.18
  Q 316.97 118.93 312.07 116.68
  Q 311.68 116.50 311.40 116.83
  Q 308.57 120.13 306.42 124.00
  Q 304.51 127.44 307.23 129.50
  Q 307.36 129.60 307.50 129.62
  Q 308.19 129.70 307.69 129.38
  Q 308.31 130.00 308.76 130.07
  Q 312.67 130.66 315.48 130.15
  C 330.83 127.40 345.31 120.76 358.10 112.28
  Q 362.95 109.05 374.26 100.52
  Q 384.57 92.74 393.47 85.17
  A 0.73 0.72 -40.2 0 0 393.56 84.15
  C 390.89 80.92 387.09 75.03 389.38 70.90
  C 391.60 66.92 396.67 66.62 400.20 69.30
  Q 402.76 71.25 404.25 74.22
  Z
  M 322.33 111.29
  Q 328.03 110.78 333.36 108.34
  Q 346.17 102.50 357.13 93.25
  L 358.07 92.48
  A 0.94 0.94 0.0 0 0 357.93 90.93
  Q 355.94 89.81 353.98 90.20
  Q 349.22 91.14 344.68 93.17
  Q 330.03 99.71 317.48 110.25
  A 0.43 0.42 26.7 0 0 317.73 111.00
  L 322.33 111.29
  Z"
/>
<path fill="#1f114c" d="
  M 157.23 68.28
  Q 156.84 68.28 156.67 67.62
  Q 157.09 68.01 157.23 68.28
  Z"
/>
<path fill="#1f114c" d="
  M 152.11 74.66
  Q 140.02 70.61 125.79 72.60
  Q 103.57 75.72 81.49 83.73
  Q 74.89 86.12 69.10 89.75
  Q 67.81 89.44 66.26 88.42
  A 0.81 0.81 0.0 0 1 66.23 87.08
  Q 71.16 83.60 78.06 80.99
  Q 94.75 74.68 112.87 71.21
  Q 124.05 69.07 129.77 68.80
  Q 138.45 68.38 146.95 70.53
  Q 151.79 71.76 152.11 74.66
  Z"
/>
<path fill="#1f114c" d="
  M 157.74 68.94
  C 161.14 74.70 162.08 82.34 156.31 87.04
  Q 149.79 92.35 141.85 95.11
  Q 138.54 96.27 137.61 92.51
  Q 146.71 89.99 154.13 83.86
  C 159.07 79.77 158.93 74.90 157.10 69.15
  Q 156.97 68.73 157.39 68.84
  L 157.74 68.94
  Z"
/>
<path fill="#1f114c" d="
  M 404.14 87.00
  L 402.32 84.54
  Q 402.00 84.11 402.25 83.64
  Q 404.60 79.33 404.25 74.22
  Q 408.76 79.44 404.14 87.00
  Z"
/>
<path fill="#ff0723" d="
  M 175.49 89.80
  Q 161.84 99.79 149.27 110.77
  Q 143.07 116.19 137.56 122.30
  Q 136.59 123.37 135.98 124.37
  A 0.89 0.89 0.0 0 0 136.80 125.73
  Q 139.01 125.58 140.17 124.72
  Q 158.10 117.93 173.85 108.33
  Q 192.04 97.25 208.65 83.91
  Q 209.06 83.58 209.36 84.01
  L 214.32 90.95
  Q 205.28 100.13 196.83 109.58
  Q 192.96 113.91 189.18 119.44
  A 0.97 0.97 0.0 0 0 190.00 120.95
  Q 191.45 120.92 192.73 120.47
  Q 203.74 115.07 216.61 107.10
  Q 244.72 89.67 250.70 86.20
  Q 253.11 84.81 255.66 84.27
  A 1.77 1.75 -24.1 0 1 257.45 84.94
  L 261.99 91.13
  L 243.76 111.17
  Q 241.77 113.36 244.27 111.78
  L 253.86 105.72
  Q 269.95 96.43 289.82 90.91
  Q 294.71 89.55 296.77 89.58
  Q 302.05 89.64 304.36 94.70
  Q 305.23 101.48 300.55 106.29
  Q 289.55 117.58 276.30 125.79
  C 268.22 130.79 258.45 134.83 248.80 133.25
  Q 243.04 132.31 237.94 127.92
  Q 237.58 127.60 237.20 127.89
  Q 220.13 140.97 205.58 158.00
  A 1.60 1.59 -52.3 0 1 203.46 158.28
  L 200.38 156.15
  Q 200.27 155.66 198.91 154.47
  A 1.39 1.39 0.0 0 1 198.66 152.67
  Q 211.45 133.17 228.07 115.57
  L 234.48 108.27
  Q 235.69 106.90 234.09 107.78
  Q 221.99 114.47 209.05 121.06
  Q 200.10 125.62 192.39 128.40
  Q 187.05 130.32 182.75 127.47
  Q 178.92 124.06 180.29 118.90
  Q 181.16 115.90 182.40 114.28
  Q 184.09 112.08 181.73 113.54
  Q 165.71 123.38 148.64 131.70
  C 145.28 133.34 141.70 134.40 138.00 135.22
  Q 134.23 136.05 130.42 134.02
  Q 129.16 132.65 127.91 130.58
  Q 125.16 126.04 128.23 121.50
  Q 132.64 114.97 137.53 110.02
  Q 151.73 95.65 169.56 82.47
  Q 169.97 82.17 170.27 82.58
  L 175.49 89.80
  Z
  M 248.42 124.34
  C 255.44 126.33 262.96 123.46 269.13 120.14
  Q 281.79 113.34 291.92 102.70
  L 295.40 99.07
  A 0.50 0.49 -64.4 0 0 295.11 98.23
  Q 294.90 98.21 294.60 98.28
  C 276.66 102.95 260.63 111.30 245.17 121.78
  A 0.38 0.38 0.0 0 0 245.13 122.37
  Q 246.52 123.62 248.42 124.34
  Z"
/>
<path fill="#1f114c" d="
  M 533.23 211.95
  L 584.21 211.95
  Q 584.70 211.95 584.61 212.44
  L 579.94 236.99
  A 0.44 0.44 0.0 0 1 579.51 237.35
  L 499.04 237.35
  A 0.44 0.43 90.0 0 1 498.61 236.91
  Q 498.64 227.80 501.77 218.27
  C 505.56 206.69 511.48 196.35 519.84 186.77
  C 531.05 173.94 543.58 162.95 556.76 152.21
  Q 565.40 145.16 567.89 141.44
  C 572.77 134.13 576.30 121.91 571.21 113.83
  Q 568.92 110.20 564.84 109.53
  C 551.92 107.42 545.70 120.99 544.30 131.29
  Q 544.23 131.80 543.72 131.80
  L 520.30 131.80
  Q 519.82 131.80 519.78 131.32
  Q 519.61 129.08 519.86 127.71
  Q 523.14 109.41 535.67 96.46
  C 547.54 84.19 563.27 79.97 579.47 86.53
  C 591.78 91.50 598.03 103.64 598.83 116.54
  Q 600.13 137.76 589.30 154.35
  Q 581.48 166.34 570.44 175.71
  Q 561.15 183.60 553.98 188.96
  Q 543.51 196.79 536.06 205.31
  Q 533.86 207.82 532.57 210.96
  A 0.72 0.71 11.4 0 0 533.23 211.95
  Z"
/>
<path fill="#1f114c" d="
  M 399.35 92.65
  Q 378.33 112.09 354.03 126.77
  Q 339.28 135.68 326.78 139.06
  Q 319.47 141.03 312.76 141.09
  Q 304.81 141.16 300.88 135.16
  Q 302.91 135.99 304.82 136.76
  Q 306.97 137.63 308.90 137.70
  Q 318.36 138.04 326.52 135.24
  Q 346.09 128.53 362.63 116.85
  Q 383.35 102.22 396.77 89.91
  Q 397.12 89.59 397.46 89.93
  Q 398.70 91.17 399.35 92.65
  Z"
/>
<path fill="#1f114c" d="
  M 307.69 129.38
  Q 308.19 129.70 307.50 129.62
  Q 307.36 129.60 307.23 129.50
  Q 304.51 127.44 306.42 124.00
  Q 308.57 120.13 311.40 116.83
  Q 311.68 116.50 312.07 116.68
  Q 316.97 118.93 322.32 118.18
  Q 334.33 116.49 345.53 109.74
  Q 352.97 105.25 362.57 97.80
  Q 366.15 95.03 364.53 89.65
  Q 367.96 93.27 367.16 97.75
  Q 366.91 99.11 365.41 100.37
  Q 352.23 111.49 338.24 117.68
  Q 330.88 120.94 322.83 121.44
  Q 318.20 121.73 314.45 119.93
  Q 314.00 119.71 313.66 120.07
  Q 309.73 124.18 307.69 129.38
  Z"
/>
<path fill="#1f114c" d="
  M 175.49 89.80
  L 177.43 92.61
  Q 177.72 93.03 177.30 93.32
  Q 157.56 107.22 140.17 124.72
  Q 139.01 125.58 136.80 125.73
  A 0.89 0.89 0.0 0 1 135.98 124.37
  Q 136.59 123.37 137.56 122.30
  Q 143.07 116.19 149.27 110.77
  Q 161.84 99.79 175.49 89.80
  Z"
/>
<path fill="#1f114c" d="
  M 357.13 93.25
  Q 353.95 93.52 350.61 94.85
  Q 335.11 101.01 322.33 111.29
  L 317.73 111.00
  A 0.43 0.42 26.7 0 1 317.48 110.25
  Q 330.03 99.71 344.68 93.17
  Q 349.22 91.14 353.98 90.20
  Q 355.94 89.81 357.93 90.93
  A 0.94 0.94 0.0 0 1 358.07 92.48
  L 357.13 93.25
  Z"
/>
<path fill="#1f114c" d="
  M 192.73 120.47
  Q 191.45 120.92 190.00 120.95
  A 0.97 0.97 0.0 0 1 189.18 119.44
  Q 192.96 113.91 196.83 109.58
  Q 205.28 100.13 214.32 90.95
  L 216.19 93.72
  Q 216.49 94.17 216.10 94.55
  Q 203.92 106.57 192.73 120.47
  Z"
/>
<path fill="#1f114c" d="
  M 253.86 105.72
  L 244.27 111.78
  Q 241.77 113.36 243.76 111.17
  L 261.99 91.13
  L 263.87 93.83
  Q 264.16 94.25 263.82 94.63
  L 253.86 105.72
  Z"
/>
<path fill="#1f114c" d="
  M 200.38 156.15
  L 203.46 158.28
  A 1.60 1.59 -52.3 0 0 205.58 158.00
  Q 220.13 140.97 237.20 127.89
  Q 237.58 127.60 237.94 127.92
  Q 243.04 132.31 248.80 133.25
  C 258.45 134.83 268.22 130.79 276.30 125.79
  Q 289.55 117.58 300.55 106.29
  Q 305.23 101.48 304.36 94.70
  Q 307.82 99.13 306.09 104.10
  Q 304.99 107.26 300.98 111.25
  Q 292.68 119.50 281.26 127.21
  C 269.22 135.34 252.79 141.99 240.14 131.12
  Q 239.70 130.75 239.25 131.11
  Q 226.63 141.26 217.11 150.74
  Q 216.78 151.07 217.24 151.07
  L 224.81 151.07
  Q 225.24 151.07 225.27 151.49
  L 230.50 236.78
  Q 230.53 237.35 229.96 237.35
  L 211.94 237.35
  Q 211.29 237.35 211.25 236.70
  L 208.32 188.88
  Q 208.28 188.27 208.06 188.83
  L 188.90 237.15
  A 0.32 0.29 -78.3 0 1 188.62 237.35
  L 172.04 237.35
  A 0.36 0.35 85.2 0 1 171.69 237.05
  L 164.54 191.79
  Q 164.39 190.81 164.08 191.75
  L 149.18 236.94
  Q 149.04 237.35 148.61 237.35
  L 117.03 237.35
  Q 116.45 237.35 116.38 236.78
  L 113.32 211.99
  Q 113.29 211.71 113.00 211.71
  L 95.91 211.71
  Q 95.42 211.71 95.24 212.17
  L 85.37 237.06
  A 0.45 0.45 0.0 0 1 84.95 237.35
  L 65.70 237.35
  Q 65.04 237.35 65.28 236.74
  L 66.32 234.11
  Q 66.60 233.41 65.91 233.71
  Q 56.77 237.71 46.91 238.54
  Q 45.36 238.67 46.90 238.88
  L 47.60 238.98
  A 0.09 0.09 0.0 0 1 47.59 239.16
  Q 43.43 239.64 39.48 239.21
  Q 39.18 239.17 39.08 238.89
  Q 39.00 238.66 38.82 238.64
  C 21.97 237.10 6.19 226.60 2.65 209.70
  Q 0.80 200.88 3.55 189.90
  C 8.45 170.33 22.95 158.14 42.01 153.09
  Q 61.04 148.05 80.03 152.73
  A 0.83 0.82 10.9 0 1 80.65 153.64
  L 78.26 170.94
  Q 78.18 171.52 77.61 171.38
  Q 72.10 170.02 72.02 170.00
  C 57.64 166.85 41.85 169.69 30.89 179.83
  Q 19.24 190.61 21.84 205.01
  C 22.84 210.51 26.77 214.98 31.93 217.34
  Q 40.52 221.26 51.40 217.92
  Q 51.99 217.74 52.08 217.13
  L 52.77 212.08
  Q 52.83 211.71 52.45 211.71
  L 38.25 211.71
  Q 37.80 211.71 37.86 211.27
  L 40.10 195.04
  A 0.44 0.43 -86.2 0 1 40.53 194.66
  L 74.25 194.66
  Q 74.83 194.66 74.75 195.24
  L 71.44 219.22
  Q 70.92 222.97 72.32 219.45
  L 99.16 151.74
  A 1.11 1.09 -78.9 0 1 100.18 151.04
  L 124.49 151.04
  A 0.62 0.61 86.3 0 1 125.10 151.58
  L 133.62 220.65
  Q 133.77 221.85 134.15 220.71
  L 156.91 151.67
  A 0.93 0.92 -80.9 0 1 157.79 151.03
  L 176.89 151.03
  A 0.73 0.73 0.0 0 1 177.61 151.64
  L 184.49 195.23
  Q 184.67 196.36 185.09 195.29
  L 200.38 156.15
  Z
  M 110.77 194.66
  A 0.38 0.38 0.0 0 0 111.15 194.23
  L 109.17 178.17
  Q 109.07 177.38 108.78 178.12
  L 102.45 194.09
  A 0.42 0.41 -79.2 0 0 102.83 194.66
  L 110.77 194.66
  Z"
/>
<path fill="#1f114c" d="
  M 116.28 116.02
  Q 113.26 114.53 111.84 114.08
  Q 89.03 106.94 73.60 102.96
  Q 67.55 101.40 64.73 97.06
  Q 66.74 97.94 68.69 98.77
  Q 70.64 99.60 72.76 100.17
  Q 90.22 104.91 107.50 110.22
  Q 113.78 112.15 116.00 113.97
  Q 117.15 114.92 116.28 116.02
  Z"
/>
<path fill="#1f114c" d="
  M 405.47 99.96
  Q 403.92 98.96 403.00 97.16
  Q 405.72 98.51 405.47 99.96
  Z"
/>
<path fill="#1f114c" d="
  M 291.92 102.70
  Q 268.53 110.17 248.42 124.34
  Q 246.52 123.62 245.13 122.37
  A 0.38 0.38 0.0 0 1 245.17 121.78
  C 260.63 111.30 276.66 102.95 294.60 98.28
  Q 294.90 98.21 295.11 98.23
  A 0.50 0.49 -64.4 0 1 295.40 99.07
  L 291.92 102.70
  Z"
/>
<path fill="#1f114c" d="
  M 411.31 121.07
  L 407.95 121.42
  A 0.26 0.26 0.0 0 1 407.68 121.05
  Q 410.94 113.82 413.80 106.43
  Q 414.43 104.81 414.42 103.02
  Q 414.42 101.38 414.25 99.52
  Q 417.96 104.18 415.91 109.46
  Q 413.70 115.14 411.31 121.07
  Z"
/>
<path fill="#1f114c" d="
  M 228.07 115.57
  Q 220.58 119.30 213.72 122.97
  Q 204.56 127.88 195.74 131.25
  C 190.76 133.15 185.25 133.04 182.75 127.47
  Q 187.05 130.32 192.39 128.40
  Q 200.10 125.62 209.05 121.06
  Q 221.99 114.47 234.09 107.78
  Q 235.69 106.90 234.48 108.27
  L 228.07 115.57
  Z"
/>
<path fill="#1f114c" d="
  M 3.03 142.75
  Q 9.19 142.98 15.38 142.43
  Q 30.37 141.09 48.06 139.38
  Q 74.38 136.84 102.48 131.49
  Q 108.34 130.38 113.96 128.46
  C 121.16 125.99 123.80 120.45 121.84 113.19
  Q 121.48 111.83 121.32 110.47
  Q 123.83 113.58 124.38 117.47
  Q 124.91 121.23 124.20 124.04
  C 122.97 128.98 117.87 131.42 113.14 132.65
  Q 105.51 134.63 97.13 136.10
  Q 75.46 139.91 55.25 141.99
  Q 31.22 144.47 9.43 146.15
  Q 4.39 146.54 3.03 142.75
  Z"
/>
<path fill="#1f114c" d="
  M 180.29 118.90
  Q 170.27 124.85 160.25 130.29
  Q 152.86 134.30 144.97 137.19
  C 139.86 139.06 133.50 140.21 130.42 134.02
  Q 134.23 136.05 138.00 135.22
  C 141.70 134.40 145.28 133.34 148.64 131.70
  Q 165.71 123.38 181.73 113.54
  Q 184.09 112.08 182.40 114.28
  Q 181.16 115.90 180.29 118.90
  Z"
/>
<path fill="#1f114c" d="
  M 509.57 124.01
  Q 513.26 127.56 511.14 134.02
  Q 510.95 134.59 510.35 134.59
  L 496.67 134.59
  Q 496.20 134.59 496.15 134.13
  Q 496.01 132.95 496.31 131.63
  L 508.26 131.32
  A 0.89 0.88 -88.6 0 0 509.12 130.50
  L 509.57 124.01
  Z"
/>
<path fill="#1f114c" d="
  M 493.77 130.58
  Q 490.65 130.01 487.49 129.72
  Q 468.48 127.98 446.00 129.84
  Q 425.49 131.53 407.49 134.51
  Q 402.76 135.30 400.79 131.80
  Q 430.91 127.15 457.75 125.73
  Q 474.40 124.85 492.84 127.51
  Q 493.35 127.58 493.63 128.01
  Q 494.33 129.08 493.77 130.58
  Z"
/>
<path fill="#1f114c" d="
  M 403.02 236.94
  C 383.27 232.74 374.93 217.34 376.52 198.45
  C 377.84 182.74 384.25 164.56 398.27 155.67
  Q 411.00 147.60 426.33 151.48
  C 439.21 154.74 447.04 165.78 449.27 179.02
  Q 451.24 190.76 448.16 204.20
  Q 445.41 216.19 437.80 224.82
  C 429.40 234.33 415.59 239.62 403.02 236.94
  Z
  M 413.13 218.92
  C 421.29 217.08 426.61 210.48 428.92 202.73
  C 431.82 192.95 433.41 177.04 423.70 170.95
  Q 418.58 167.74 413.40 168.93
  C 407.82 170.21 403.40 174.93 400.90 179.97
  Q 394.54 192.77 396.37 206.46
  Q 397.35 213.74 402.55 216.98
  Q 407.64 220.16 413.13 218.92
  Z"
/>
<path fill="#1f114c" d="
  M 472.24 174.99
  L 487.35 151.71
  A 1.50 1.49 16.2 0 1 488.61 151.02
  L 509.30 151.02
  A 0.35 0.35 0.0 0 1 509.60 151.56
  Q 481.22 195.76 480.10 197.48
  Q 478.76 199.55 478.47 201.86
  Q 477.94 206.01 473.83 237.02
  A 0.37 0.37 0.0 0 1 473.46 237.34
  L 454.03 237.34
  A 0.27 0.26 3.7 0 1 453.76 237.04
  L 459.60 194.84
  Q 459.67 194.27 459.43 193.74
  L 439.93 151.55
  Q 439.70 151.04 440.26 151.04
  L 460.44 151.04
  Q 461.30 151.04 461.64 151.83
  L 471.62 174.94
  Q 471.88 175.55 472.24 174.99
  Z"
/>
<path fill="#1f114c" d="
  M 258.87 184.09
  L 284.09 184.02
  A 0.37 0.37 0.0 0 1 284.46 184.44
  L 281.89 202.97
  A 0.37 0.37 0.0 0 1 281.53 203.29
  L 255.86 203.29
  A 0.37 0.37 0.0 0 0 255.49 203.61
  L 253.71 217.72
  A 0.37 0.37 0.0 0 0 254.08 218.14
  L 283.56 218.13
  A 0.37 0.37 0.0 0 1 283.93 218.55
  L 281.36 237.03
  A 0.37 0.37 0.0 0 1 281.00 237.35
  L 231.74 237.34
  A 0.37 0.37 0.0 0 1 231.38 236.92
  L 243.21 151.37
  A 0.37 0.37 0.0 0 1 243.57 151.05
  L 293.13 151.05
  A 0.37 0.37 0.0 0 1 293.49 151.48
  L 290.65 169.97
  A 0.37 0.37 0.0 0 1 290.28 170.28
  L 260.63 170.27
  A 0.37 0.37 0.0 0 0 260.27 170.59
  L 258.51 183.67
  A 0.37 0.37 0.0 0 0 258.87 184.09
  Z"
/>
<path fill="#1f114c" d="
  M 367.24 190.90
  A 0.30 0.29 53.9 0 0 367.17 191.38
  Q 374.25 198.01 374.51 207.47
  C 374.87 220.40 367.72 231.52 355.34 235.82
  Q 350.95 237.34 342.04 237.36
  Q 318.29 237.42 307.58 237.29
  Q 307.07 237.28 307.14 236.77
  L 318.91 151.63
  Q 318.99 151.01 319.62 151.01
  Q 343.88 151.14 352.26 150.99
  Q 358.23 150.89 361.43 152.23
  C 369.79 155.73 376.04 163.75 375.77 173.00
  Q 375.64 177.82 373.90 183.14
  Q 372.13 188.57 367.24 190.90
  Z
  M 336.01 170.72
  L 334.26 183.43
  Q 334.17 184.07 334.82 184.08
  Q 343.04 184.13 345.74 184.06
  Q 351.70 183.90 354.30 179.82
  Q 356.93 175.67 353.54 172.28
  Q 351.57 170.31 349.74 170.30
  Q 342.57 170.25 336.52 170.28
  A 0.52 0.51 3.8 0 0 336.01 170.72
  Z
  M 329.51 217.80
  Q 329.46 218.15 329.82 218.15
  Q 338.16 218.17 342.67 218.14
  Q 347.18 218.11 349.25 217.22
  C 352.48 215.83 355.83 211.48 354.63 207.84
  Q 353.82 205.37 351.67 204.09
  Q 350.26 203.25 345.71 203.28
  Q 338.86 203.33 332.02 203.25
  Q 331.52 203.25 331.45 203.74
  L 329.51 217.80
  Z"
/>
</svg>
