<?xml version="1.0" encoding="UTF-8" standalone="no"?>
<!DOCTYPE svg PUBLIC "-//W3C//DTD SVG 1.1//EN" "http://www.w3.org/Graphics/SVG/1.1/DTD/svg11.dtd">
<svg xmlns="http://www.w3.org/2000/svg" version="1.1" viewBox="0 0 600 300">
<g stroke-width="2.00" fill="none" stroke-linecap="butt">
<path stroke="#000000" stroke-opacity="0.569" vector-effect="non-scaling-stroke" d="
  M 122.90 162.24
  Q 119.68 169.98 113.10 174.65
  A 0.98 0.89 -19.7 0 0 112.68 175.43
  L 112.81 180.95
  A 2.07 1.97 19.7 0 0 113.57 182.47
  Q 125.54 192.07 114.65 203.51"
/>
<path stroke="#000000" stroke-opacity="0.569" vector-effect="non-scaling-stroke" d="
  M 70.50 200.71
  C 69.11 196.23 65.60 193.90 60.88 194.26
  Q 52.91 194.86 51.46 203.97
  A 1.17 1.15 4.1 0 1 50.32 204.94
  L 33.25 205.21"
/>
<path stroke="#000000" vector-effect="non-scaling-stroke" d="
  M 192.29 97.75
  L 192.29 98.00"
/>
<path stroke="#000000" vector-effect="non-scaling-stroke" d="
  M 337.51 97.54
  L 337.54 98.25"
/>
</g>
<path fill="#000000" d="
  M 122.90 162.24
  Q 119.68 169.98 113.10 174.65
  A 0.98 0.89 -19.7 0 0 112.68 175.43
  L 112.81 180.95
  A 2.07 1.97 19.7 0 0 113.57 182.47
  Q 125.54 192.07 114.65 203.51
  Q 106.47 205.51 97.88 205.32
  C 87.51 205.10 80.54 205.22 71.81 205.43
  A 0.45 0.44 -88.8 0 1 71.36 204.95
  Q 71.52 202.69 70.50 200.71
  C 69.11 196.23 65.60 193.90 60.88 194.26
  Q 52.91 194.86 51.46 203.97
  A 1.17 1.15 4.1 0 1 50.32 204.94
  L 33.25 205.21
  Q 24.45 205.30 15.65 204.92
  C 2.81 204.35 -1.97 188.75 9.50 182.18
  A 1.15 1.03 -11.6 0 0 10.04 181.45
  Q 10.68 178.30 9.94 175.17
  A 1.34 1.20 12.6 0 0 9.40 174.41
  C -2.79 166.02 -3.05 148.88 9.48 140.66
  A 1.72 1.71 -16.8 0 0 10.25 139.23
  Q 10.25 125.57 10.25 111.90
  C 10.25 100.42 15.69 95.00 27.17 95.00
  Q 56.91 95.00 86.66 95.00
  Q 100.24 95.00 102.76 95.74
  C 112.51 98.61 113.02 107.55 113.04 117.13
  Q 113.06 128.07 112.77 138.66
  A 2.54 2.54 -70.9 0 0 113.80 140.78
  Q 124.88 148.92 122.90 162.24
  Z
  M 20.99 137.85
  C 21.88 156.67 48.72 161.20 55.22 142.84
  C 55.64 141.65 57.45 138.96 53.63 141.21
  A 2.31 2.31 -0.0 0 1 51.27 141.21
  C 44.96 137.46 49.35 130.46 54.53 133.11
  Q 56.47 134.10 55.77 132.04
  C 48.90 111.92 19.99 116.92 20.99 137.85
  Z
  M 68.95 140.85
  Q 68.28 140.32 67.48 140.40
  A 0.46 0.42 78.8 0 0 67.13 140.98
  C 72.68 161.13 101.42 157.75 101.86 137.43
  C 102.32 116.08 73.04 112.34 67.00 132.76
  Q 66.62 134.04 67.75 133.34
  C 74.64 129.13 78.61 141.12 69.82 141.19
  A 1.55 0.97 53.3 0 1 68.95 140.85
  Z"
/>
<path fill="#000000" d="
  M 139.31 106.70
  L 145.93 106.80
  A 0.60 0.48 1.5 0 1 146.52 107.30
  L 146.32 110.96
  A 0.65 0.58 0.4 0 1 145.70 111.51
  L 139.29 111.67
  A 1.06 0.96 -4.2 0 0 138.25 112.76
  C 138.50 114.57 139.77 121.76 136.49 121.12
  Q 136.02 121.03 135.52 121.13
  Q 134.57 121.31 133.74 120.93
  A 0.83 0.74 -79.0 0 1 133.31 120.20
  L 133.25 98.10
  A 0.85 0.84 -89.7 0 1 134.10 97.25
  L 145.94 97.30
  A 0.65 0.60 -4.3 0 1 146.56 97.79
  C 148.26 106.74 137.08 98.34 138.37 104.02
  Q 138.47 104.45 138.35 104.97
  Q 138.19 105.70 138.52 106.28
  A 0.97 0.77 -10.4 0 0 139.31 106.70
  Z"
/>
<path fill="#000000" d="
  M 155.44 117.53
  L 149.01 117.55
  A 2.06 1.92 -76.3 0 0 147.24 118.71
  Q 146.56 120.11 145.19 120.99
  A 1.37 1.10 29.5 0 1 144.27 121.14
  Q 142.89 120.87 141.48 121.25
  Q 139.55 121.79 140.71 120.15
  Q 148.31 109.48 155.90 98.75
  C 157.24 96.86 157.85 96.97 160.00 97.49
  A 0.66 0.65 -83.3 0 1 160.50 98.13
  L 160.50 120.01
  A 0.79 0.78 77.6 0 1 160.05 120.72
  Q 155.62 122.78 155.90 118.07
  A 0.51 0.46 -88.3 0 0 155.44 117.53
  Z
  M 155.18 107.69
  L 152.12 111.78
  A 0.38 0.36 -61.9 0 0 152.28 112.36
  Q 157.15 114.00 155.80 107.83
  Q 155.64 107.09 155.18 107.69
  Z"
/>
<path fill="#000000" d="
  M 166.60 111.81
  L 166.60 120.31
  A 0.70 0.66 -8.0 0 1 166.08 120.96
  Q 164.37 121.43 162.66 120.96
  A 0.66 0.66 -82.6 0 1 162.17 120.32
  L 162.05 97.82
  A 0.55 0.49 -89.5 0 1 162.55 97.27
  L 166.57 97.37
  A 0.89 0.78 76.9 0 1 167.30 97.89
  L 173.29 111.36
  Q 173.98 112.90 174.63 111.40
  Q 177.26 105.36 179.86 99.15
  C 180.95 96.54 182.25 97.29 184.56 97.12
  C 186.75 96.96 186.00 98.61 186.00 99.87
  Q 186.00 109.22 186.00 118.57
  C 186.00 119.73 186.79 121.58 184.48 121.12
  Q 183.99 121.02 183.52 121.12
  Q 180.99 121.67 181.13 119.18
  C 181.27 116.61 181.22 114.12 181.61 111.56
  A 0.78 0.56 -76.8 0 0 181.29 110.78
  C 180.79 110.56 177.01 119.40 176.43 120.49
  A 1.01 0.72 -71.2 0 1 175.69 121.02
  L 172.30 121.02
  A 1.02 0.73 70.0 0 1 171.56 120.51
  C 170.66 118.93 167.74 111.61 167.05 111.38
  A 0.42 0.35 -83.0 0 0 166.60 111.81
  Z"
/>
<path fill="#000000" d="
  M 192.29 97.75
  L 192.29 98.00
  L 192.02 120.17
  A 0.71 0.60 89.2 0 1 191.44 120.88
  L 187.79 120.98
  A 0.65 0.58 89.1 0 1 187.19 120.33
  L 187.25 98.21
  A 0.68 0.67 84.9 0 1 187.80 97.54
  Q 190.91 96.92 192.29 97.75
  Z"
/>
<path fill="#000000" d="
  M 192.29 98.00
  L 192.29 97.75
  Q 197.66 96.91 203.07 97.39
  A 0.97 0.87 -9.1 0 1 203.82 97.87
  L 207.54 105.26
  Q 208.28 106.75 208.99 105.26
  L 212.50 97.94
  A 0.94 0.75 -74.1 0 1 213.24 97.41
  L 217.53 97.32
  A 0.53 0.49 -75.7 0 1 217.95 98.09
  C 215.08 103.44 209.37 111.82 210.75 117.75
  Q 211.68 121.74 208.23 121.10
  Q 207.85 121.04 207.29 121.20
  Q 206.77 121.34 206.26 121.16
  A 0.79 0.67 -81.8 0 1 205.81 120.44
  C 205.75 116.84 206.32 113.32 204.64 109.99
  Q 201.69 104.14 198.69 98.31
  Q 197.82 96.63 197.81 98.56
  L 197.75 114.97
  A 1.49 1.34 0.4 0 0 199.22 116.31
  L 203.07 116.36
  A 0.60 0.55 1.0 0 1 203.66 116.92
  L 203.61 120.51
  A 0.61 0.50 -0.0 0 1 203.00 121.01
  L 194.01 120.98
  A 1.02 1.01 90.0 0 1 193.00 119.96
  Q 193.00 109.12 193.00 99.25
  Q 193.00 98.10 192.29 98.00
  Z"
/>
<path fill="#000000" d="
  M 241.43 114.64
  Q 243.17 114.86 242.02 116.19
  Q 235.71 123.45 228.17 120.69
  C 222.21 118.52 218.54 112.53 220.25 106.25
  C 223.01 96.11 236.44 94.19 242.30 102.95
  A 0.70 0.69 68.3 0 1 241.84 104.02
  Q 237.97 104.68 235.85 103.46
  C 224.69 97.01 220.18 116.66 232.22 116.45
  C 235.23 116.39 237.62 114.15 241.43 114.64
  Z"
/>
<path fill="#000000" d="
  M 266.39 109.38
  A 12.10 12.10 0.0 0 1 254.29 121.48
  A 12.10 12.10 0.0 0 1 242.19 109.38
  A 12.10 12.10 0.0 0 1 254.29 97.28
  A 12.10 12.10 0.0 0 1 266.39 109.38
  Z
  M 261.64 109.38
  A 7.30 7.30 0.0 0 0 254.34 102.08
  A 7.30 7.30 0.0 0 0 247.04 109.38
  A 7.30 7.30 0.0 0 0 254.34 116.68
  A 7.30 7.30 0.0 0 0 261.64 109.38
  Z"
/>
<path fill="#000000" d="
  M 286.45 110.88
  C 284.45 111.67 283.43 121.91 279.98 121.15
  Q 279.48 121.04 279.02 121.13
  Q 278.27 121.27 277.55 121.09
  A 1.16 0.99 80.7 0 1 276.84 120.49
  C 276.73 120.28 272.89 111.13 272.43 111.26
  A 0.74 0.55 82.2 0 0 272.03 111.99
  C 272.14 113.87 273.58 121.80 270.24 121.12
  Q 269.79 121.03 269.29 121.18
  Q 268.32 121.48 267.60 120.87
  A 1.25 0.89 -75.9 0 1 267.26 120.00
  L 267.32 98.06
  A 0.64 0.61 83.8 0 1 267.79 97.44
  Q 270.00 96.91 272.21 97.43
  A 1.05 1.02 84.3 0 1 272.90 98.01
  L 278.79 111.33
  Q 279.47 112.89 280.17 111.31
  L 286.18 97.71
  A 0.83 0.76 10.8 0 1 286.92 97.25
  L 290.65 97.25
  A 0.85 0.85 -0.0 0 1 291.50 98.10
  L 291.44 120.19
  A 0.67 0.65 82.6 0 1 290.96 120.83
  Q 289.15 121.30 287.30 121.03
  A 0.60 0.59 -85.0 0 1 286.80 120.43
  L 286.91 111.31
  A 0.42 0.34 82.2 0 0 286.45 110.88
  Z"
/>
<path fill="#000000" d="
  M 292.92 119.18
  Q 292.49 108.56 292.92 97.94
  A 0.57 0.56 88.9 0 1 293.43 97.40
  C 299.35 96.95 305.23 96.50 307.20 102.06
  C 309.48 108.48 305.32 112.69 298.71 113.06
  A 1.42 1.32 88.9 0 0 297.46 114.45
  L 297.37 120.31
  A 0.78 0.76 -9.4 0 1 296.85 121.02
  Q 296.10 121.29 295.24 121.13
  Q 294.75 121.03 294.28 121.16
  C 292.34 121.70 292.95 120.07 292.92 119.18
  Z
  M 298.03 107.87
  C 302.07 109.32 305.99 104.17 300.25 102.07
  Q 297.41 101.03 297.47 103.90
  L 297.54 107.20
  A 0.74 0.72 9.4 0 0 298.03 107.87
  Z"
/>
<path fill="#000000" d="
  M 337.51 97.54
  L 337.54 98.25
  Q 336.93 99.47 337.50 100.75
  Q 338.44 102.86 335.75 102.25
  C 332.90 101.60 333.50 103.43 333.50 105.16
  Q 333.54 112.92 333.44 120.68
  A 0.66 0.47 -89.6 0 1 332.96 121.34
  L 329.39 121.28
  A 1.00 0.89 -89.1 0 1 328.52 120.27
  L 328.67 103.31
  A 0.87 0.70 -80.3 0 0 328.25 102.56
  Q 327.11 102.04 325.05 102.43
  A 0.68 0.68 -5.7 0 0 324.50 103.10
  C 324.50 107.22 325.32 114.34 323.46 117.63
  C 320.43 122.97 312.55 122.82 309.81 117.50
  Q 308.75 115.44 308.82 110.81
  Q 308.93 104.44 308.82 98.07
  A 0.59 0.48 89.9 0 1 309.31 97.47
  L 311.50 97.50
  Q 313.75 97.53 313.75 99.25
  L 313.75 113.96
  A 2.55 2.54 16.1 0 0 314.95 116.12
  C 317.65 117.82 319.50 116.00 319.50 113.17
  Q 319.50 105.71 319.50 98.24
  A 0.92 0.91 0.6 0 1 320.44 97.33
  L 337.51 97.54
  Z"
/>
<path fill="#000000" d="
  M 350.75 97.79
  Q 350.25 99.49 350.50 100.44
  A 1.42 1.38 82.9 0 1 349.16 102.21
  L 343.90 102.16
  A 0.73 0.68 8.9 0 0 343.22 102.62
  Q 342.41 104.99 342.99 106.60
  A 0.82 0.68 -5.4 0 0 343.68 107.07
  L 350.57 107.59
  L 350.32 111.46
  A 0.64 0.59 0.9 0 1 349.69 112.02
  L 343.81 112.13
  A 0.77 0.58 5.9 0 0 343.13 112.54
  Q 342.58 114.12 342.78 116.07
  A 0.61 0.59 -3.2 0 0 343.38 116.59
  L 349.43 116.54
  A 0.92 0.84 -14.3 0 1 350.22 116.96
  Q 350.82 117.96 350.54 119.25
  C 351.29 122.23 348.77 121.47 347.07 121.55
  Q 342.86 121.74 338.69 121.14
  A 0.58 0.56 5.3 0 1 338.20 120.57
  Q 338.40 112.46 338.12 104.35
  C 338.06 102.52 339.24 100.20 337.54 98.25
  L 337.51 97.54
  C 339.14 97.33 349.21 96.93 350.75 97.79
  Z"
/>
<path fill="#000000" d="
  M 351.50 118.96
  L 351.46 105.50
  L 351.50 97.79
  C 356.38 96.83 364.04 96.25 366.89 101.04
  Q 370.59 107.27 364.24 112.36
  A 0.96 0.94 55.3 0 0 364.03 113.58
  L 368.33 120.73
  Q 368.74 121.43 367.98 121.41
  L 363.80 121.30
  A 1.08 0.70 69.7 0 1 363.06 120.75
  C 362.34 119.53 357.20 110.17 356.54 110.20
  A 0.63 0.47 89.1 0 0 356.09 110.82
  L 356.21 120.69
  A 0.79 0.72 80.3 0 1 355.75 121.41
  C 353.95 122.09 350.68 122.07 351.50 118.96
  Z
  M 363.49 105.09
  Q 363.92 102.14 360.06 102.38
  C 356.24 102.63 355.86 101.55 356.13 106.23
  Q 356.28 108.86 360.81 107.93
  Q 363.15 107.45 363.49 105.09
  Z"
/>
<path fill="#000000" d="
  M 163.50 132.79
  C 170.25 133.01 175.42 138.51 175.44 145.25
  Q 175.49 166.61 175.50 187.96
  C 175.50 197.28 172.59 203.65 162.58 203.71
  Q 148.21 203.79 134.18 203.75
  A 0.94 0.93 -90.0 0 1 133.25 202.81
  L 133.25 133.77
  A 1.26 1.26 -0.2 0 1 134.50 132.51
  Q 149.50 132.36 163.50 132.79
  Z
  M 155.72 152.03
  A 1.43 1.43 0.0 0 0 154.29 150.60
  L 153.43 150.60
  A 1.43 1.43 0.0 0 0 152.00 152.03
  L 152.00 184.31
  A 1.43 1.43 0.0 0 0 153.43 185.74
  L 154.29 185.74
  A 1.43 1.43 0.0 0 0 155.72 184.31
  L 155.72 152.03
  Z"
/>
<rect fill="#000000" x="179.75" y="132.96" width="20.00" height="70.78" rx="0.80"/>
<path fill="#000000" d="
  M 222.06 183.22
  C 221.68 185.16 223.21 189.38 225.42 186.36
  A 1.54 1.10 69.2 0 0 225.66 185.44
  L 225.35 180.68
  A 1.01 0.99 14.4 0 0 224.89 179.92
  Q 221.61 177.84 210.44 171.06
  C 205.38 167.99 203.25 163.76 203.25 157.62
  C 203.25 152.74 202.92 145.73 203.28 142.47
  C 204.33 133.15 211.89 132.75 220.36 132.67
  C 233.33 132.55 245.01 131.26 244.99 147.09
  Q 244.97 157.30 245.07 168.22
  Q 245.08 168.97 244.45 168.56
  Q 235.82 162.92 227.90 157.66
  C 225.59 156.13 225.04 156.05 225.69 153.17
  Q 226.14 151.13 224.12 150.60
  Q 221.90 150.01 221.78 154.57
  Q 221.72 156.74 223.51 157.96
  Q 230.39 162.67 238.82 167.93
  C 247.21 173.17 244.81 182.23 245.11 190.56
  C 245.74 208.20 225.36 204.27 214.76 204.02
  C 204.44 203.78 203.50 195.36 203.50 187.24
  Q 203.50 179.18 203.50 170.40
  Q 203.50 169.65 204.15 170.04
  L 220.66 180.04
  Q 222.46 181.13 222.06 183.22
  Z"
/>
<path fill="#000000" d="
  M 281.95 169.06
  L 287.98 176.37
  A 2.65 2.13 -69.6 0 1 288.50 177.94
  L 288.50 202.84
  A 0.91 0.91 0.4 0 1 287.59 203.75
  L 270.53 203.75
  A 0.80 0.80 -89.6 0 1 269.73 202.94
  C 269.79 199.48 270.45 184.79 269.08 183.08
  Q 268.55 182.41 267.69 182.24
  A 0.46 0.42 -85.3 0 0 267.20 182.70
  L 267.08 203.06
  A 0.52 0.51 -90.0 0 1 266.57 203.58
  L 248.65 203.70
  A 0.60 0.58 90.0 0 1 248.07 203.10
  L 248.00 133.73
  A 0.92 0.91 -90.0 0 1 248.91 132.81
  L 266.34 132.75
  A 0.89 0.88 -0.0 0 1 267.24 133.64
  L 267.08 153.93
  A 0.34 0.33 79.5 0 0 267.54 154.26
  Q 269.72 153.34 269.69 150.75
  Q 269.61 142.09 269.92 133.44
  A 0.54 0.52 -88.9 0 1 270.44 132.92
  L 287.67 132.77
  A 1.06 1.00 89.7 0 1 288.68 133.83
  L 288.67 158.69
  A 1.52 1.08 72.5 0 1 288.38 159.59
  L 281.95 167.07
  A 1.56 1.53 45.5 0 0 281.95 169.06
  Z"
/>
<path fill="#000000" d="
  M 342.25 150.50
  Q 340.17 149.48 340.19 151.94
  L 340.23 156.51
  A 0.98 0.89 18.5 0 0 340.66 157.28
  Q 347.49 161.90 354.43 166.34
  C 360.25 170.06 363.57 172.94 363.40 179.75
  C 363.20 188.07 365.71 199.23 355.83 203.11
  C 354.58 203.60 353.34 204.25 351.98 204.25
  C 345.49 204.25 333.05 205.57 327.77 202.80
  C 322.49 200.02 321.75 195.20 321.76 189.18
  Q 321.78 180.08 321.68 170.26
  Q 321.67 169.46 322.34 169.89
  Q 330.34 175.00 338.12 179.54
  C 340.61 181.00 340.65 182.16 340.07 184.82
  Q 339.58 187.08 341.88 187.21
  C 344.66 187.36 343.88 182.48 343.64 180.67
  A 1.11 1.04 13.0 0 0 343.14 179.92
  C 337.15 176.14 325.87 171.18 322.76 164.81
  C 320.31 159.81 321.60 150.70 321.39 144.98
  C 321.00 134.36 328.27 132.72 337.44 132.76
  C 348.16 132.81 363.25 130.15 363.25 146.26
  Q 363.25 156.88 363.25 168.19
  Q 363.25 169.09 362.50 168.59
  L 344.75 156.73
  Q 343.33 155.77 343.72 154.12
  Q 344.34 151.53 342.25 150.50
  Z"
/>
<path fill="#000000" d="
  M 431.32 182.29
  C 431.12 183.64 431.47 189.57 434.42 186.63
  A 1.19 1.17 -23.0 0 0 434.78 185.76
  L 434.64 180.89
  A 1.71 1.56 15.9 0 0 433.80 179.53
  Q 426.29 175.11 418.94 170.56
  C 410.51 165.35 412.50 155.22 412.50 146.89
  C 412.50 138.27 414.52 133.69 423.44 132.97
  C 430.13 132.43 444.04 131.35 449.68 135.44
  C 455.04 139.31 454.25 144.01 454.24 151.48
  Q 454.23 159.93 454.31 168.08
  Q 454.32 169.07 453.49 168.52
  L 436.02 156.86
  Q 434.28 155.70 434.67 153.67
  Q 435.25 150.67 432.93 150.74
  A 1.64 1.50 -1.4 0 0 431.35 152.25
  L 431.36 156.57
  A 1.12 0.77 23.0 0 0 431.86 157.35
  Q 439.96 162.80 448.20 168.04
  C 456.54 173.33 454.36 183.06 454.08 192.24
  Q 453.85 199.43 448.53 202.47
  C 443.23 205.50 431.16 204.37 424.75 204.33
  C 413.40 204.26 412.75 194.60 412.75 185.99
  Q 412.75 178.78 412.75 170.92
  Q 412.75 169.52 413.95 170.25
  L 430.36 180.26
  A 2.05 2.01 20.3 0 1 431.32 182.29
  Z"
/>
<path fill="#000000" d="
  M 464.95 151.80
  L 458.05 151.76
  A 0.79 0.75 0.7 0 1 457.27 151.00
  L 457.42 133.43
  A 0.53 0.50 0.0 0 1 457.95 132.93
  L 494.50 133.44
  A 0.51 0.50 -87.9 0 1 495.00 133.99
  Q 494.40 142.50 495.00 151.02
  A 0.68 0.68 88.0 0 1 494.32 151.75
  L 486.82 151.75
  A 0.64 0.64 0.0 0 0 486.18 152.39
  L 486.25 203.08
  A 0.67 0.67 -0.2 0 1 485.58 203.75
  L 466.43 203.75
  A 0.93 0.93 0.0 0 1 465.50 202.82
  L 465.44 152.30
  A 0.50 0.49 90.0 0 0 464.95 151.80
  Z"
/>
<path fill="#000000" d="
  M 518.30 185.95
  L 530.36 186.00
  A 0.83 0.79 0.3 0 1 531.19 186.80
  L 531.08 203.57
  A 0.52 0.50 -0.0 0 1 530.56 204.07
  L 498.91 204.19
  A 0.92 0.91 90.0 0 1 498.00 203.27
  L 498.06 133.70
  A 0.95 0.95 0.0 0 1 499.01 132.75
  L 530.73 132.75
  A 0.76 0.75 0.4 0 1 531.49 133.51
  L 531.44 150.93
  A 0.52 0.49 -90.0 0 1 530.95 151.45
  L 519.49 151.49
  A 1.49 1.47 0.0 0 0 518.00 152.96
  L 518.00 158.98
  A 0.77 0.77 90.0 0 0 518.77 159.75
  L 530.24 159.75
  A 0.99 0.97 0.3 0 1 531.23 160.73
  L 531.08 177.57
  A 0.54 0.51 -1.2 0 1 530.56 178.08
  L 518.18 178.42
  A 0.52 0.50 -1.7 0 0 517.68 178.93
  L 517.79 185.45
  A 0.51 0.51 89.4 0 0 518.30 185.95
  Z"
/>
<path fill="#000000" d="
  M 600.00 142.31
  L 600.00 204.10
  Q 590.86 204.85 581.44 204.43
  A 0.99 0.98 1.5 0 1 580.50 203.45
  Q 580.45 178.93 580.56 155.09
  C 580.56 153.67 581.11 151.20 578.62 151.83
  A 1.82 1.80 83.1 0 0 577.25 153.59
  L 577.25 203.58
  A 0.67 0.67 -89.8 0 1 576.58 204.25
  L 559.26 204.20
  A 1.29 1.27 -89.8 0 1 558.00 202.91
  L 557.94 153.31
  A 1.69 1.36 -67.8 0 0 557.67 152.40
  Q 556.29 150.49 554.80 152.35
  A 1.51 1.21 69.7 0 0 554.50 153.25
  L 554.50 203.09
  A 0.66 0.66 -89.5 0 1 553.84 203.75
  L 536.78 203.75
  A 1.03 1.03 89.8 0 1 535.75 202.72
  L 535.75 133.48
  A 0.56 0.55 0.0 0 1 536.31 132.93
  Q 546.42 133.03 556.15 133.01
  C 561.69 133.00 564.61 132.61 568.00 136.12
  A 0.93 0.93 -43.2 0 0 569.30 136.16
  Q 572.62 133.06 576.25 133.13
  C 585.00 133.30 597.64 130.43 600.00 142.31
  Z"
/>
<path fill="#000000" d="
  M 388.43 183.55
  C 378.64 183.27 366.49 186.15 366.49 171.50
  Q 366.50 152.75 366.50 133.99
  A 0.99 0.99 0.0 0 1 367.49 133.00
  L 385.58 133.00
  A 0.67 0.67 0.2 0 1 386.25 133.67
  Q 386.25 148.76 386.25 163.29
  C 386.25 165.29 385.69 165.66 388.63 165.43
  A 0.95 0.94 -2.3 0 0 389.50 164.49
  L 389.50 133.88
  A 0.88 0.88 0.0 0 1 390.38 133.00
  L 408.34 133.00
  A 0.66 0.66 0.2 0 1 409.00 133.66
  Q 409.00 163.00 409.00 192.00
  C 409.00 202.15 403.17 204.00 394.13 203.97
  Q 382.36 203.92 370.68 204.19
  A 0.68 0.67 89.6 0 1 370.00 203.51
  L 369.93 187.24
  A 0.53 0.50 -90.0 0 1 370.43 186.71
  L 387.94 186.66
  A 0.95 0.73 11.4 0 0 388.71 186.28
  Q 389.28 185.27 389.05 184.05
  A 0.65 0.59 -3.7 0 0 388.43 183.55
  Z"
/>
<path fill="#010101" fill-opacity="0.137" d="
  M 122.90 162.24
  Q 122.38 163.23 123.37 163.25
  A 0.48 0.48 -86.7 0 1 123.84 163.78
  Q 123.72 165.12 123.62 166.10
  C 123.33 169.00 119.15 173.49 117.31 174.81
  Q 114.09 177.14 114.66 180.76
  A 1.23 1.10 15.8 0 0 115.15 181.53
  Q 123.03 187.26 121.25 198.00
  Q 120.25 204.00 114.65 203.51
  Q 125.54 192.07 113.57 182.47
  A 2.07 1.97 19.7 0 1 112.81 180.95
  L 112.68 175.43
  A 0.98 0.89 -19.7 0 1 113.10 174.65
  Q 119.68 169.98 122.90 162.24
  Z"
/>
<path fill="#010101" fill-opacity="0.137" d="
  M 70.50 200.71
  Q 68.82 201.19 67.72 200.03
  Q 64.35 196.47 60.19 197.35
  C 55.91 198.26 54.43 201.58 53.25 205.50
  C 52.39 208.35 46.63 208.00 47.31 205.96
  A 0.37 0.35 -79.1 0 0 47.00 205.47
  L 33.25 205.21
  L 50.32 204.94
  A 1.17 1.15 4.1 0 0 51.46 203.97
  Q 52.91 194.86 60.88 194.26
  C 65.60 193.90 69.11 196.23 70.50 200.71
  Z"
/>
</svg>
