<?xml version="1.0" encoding="UTF-8" standalone="no"?>
<!DOCTYPE svg PUBLIC "-//W3C//DTD SVG 1.1//EN" "http://www.w3.org/Graphics/SVG/1.1/DTD/svg11.dtd">
<svg xmlns="http://www.w3.org/2000/svg" version="1.1" viewBox="0 0 600 300">
<g stroke-width="2.00" fill="none" stroke-linecap="butt">
<path stroke="#6f0000" vector-effect="non-scaling-stroke" d="
  M 163.85 116.17
  Q 154.30 125.50 145.54 136.25"
/>
<path stroke="#6f0000" vector-effect="non-scaling-stroke" d="
  M 130.04 136.00
  Q 141.29 104.16 147.06 88.81
  Q 148.17 85.86 148.60 84.01
  C 149.32 80.87 146.52 81.78 145.44 83.27
  Q 141.91 88.15 138.04 92.75"
/>
<path stroke="#6f0000" vector-effect="non-scaling-stroke" d="
  M 241.79 130.75
  L 265.45 88.42
  A 0.98 0.98 17.4 0 0 264.69 86.97
  C 259.34 86.42 249.02 85.94 245.81 91.56
  Q 236.30 108.22 219.13 136.42"
/>
<path stroke="#6f0000" vector-effect="non-scaling-stroke" d="
  M 186.8351 126.1031
  A 10.80 9.01 124.1 0 0 200.3508 122.2114
  A 10.80 9.01 124.1 0 0 198.9449 108.2169
  A 10.80 9.01 124.1 0 0 185.4292 112.1086
  A 10.80 9.01 124.1 0 0 186.8351 126.1031"
/>
<path stroke="#6f0000" vector-effect="non-scaling-stroke" d="
  M 333.75 106.46
  C 322.86 105.72 315.21 118.89 324.50 126.21"
/>
<path stroke="#6f0000" vector-effect="non-scaling-stroke" d="
  M 288.54 129.75
  L 311.44 88.68
  A 1.17 1.17 17.9 0 0 310.55 86.95
  Q 306.88 86.53 302.99 86.88
  C 297.93 87.33 294.24 87.38 292.06 91.56
  Q 291.60 92.46 291.00 92.71"
/>
<path stroke="#6f0000" vector-effect="non-scaling-stroke" d="
  M 68.75 82.21
  Q 57.59 81.25 47.04 85.00"
/>
<path stroke="#6f0000" vector-effect="non-scaling-stroke" d="
  M 44.50 86.04
  Q 12.40 102.49 1.04 136.75"
/>
<path stroke="#6f0000" vector-effect="non-scaling-stroke" d="
  M 117.00 120.73
  Q 111.38 128.91 104.81 136.41"
/>
<path stroke="#6f0000" vector-effect="non-scaling-stroke" d="
  M 91.00 136.21
  C 96.83 123.83 100.01 109.18 93.62 96.35"
/>
<path stroke="#6f0000" vector-effect="non-scaling-stroke" d="
  M 91.46 93.25
  Q 84.38 85.59 74.21 83.00"
/>
<path stroke="#6f0000" vector-effect="non-scaling-stroke" d="
  M 162.00 122.29
  Q 155.09 128.37 149.50 135.80"
/>
<path stroke="#6f0000" vector-effect="non-scaling-stroke" d="
  M 109.56 206.98
  Q 104.07 217.40 99.01 206.96"
/>
<path stroke="#6f0000" vector-effect="non-scaling-stroke" d="
  M 113.96 130.25
  L 109.03 135.77"
/>
<path stroke="#6f0000" vector-effect="non-scaling-stroke" d="
  M 32.02 207.43
  Q 27.14 210.69 21.95 211.35"
/>
<path stroke="#6f0000" vector-effect="non-scaling-stroke" d="
  M 72.71 128.25
  C 77.14 117.80 84.96 94.38 71.04 87.75"
/>
<path stroke="#6f0000" vector-effect="non-scaling-stroke" d="
  M 68.79 87.00
  Q 57.39 84.51 46.75 89.29"
/>
<path stroke="#6f0000" vector-effect="non-scaling-stroke" d="
  M 43.38 90.62
  C 25.95 99.92 10.21 116.68 4.54 136.00"
/>
<path stroke="#6f0000" vector-effect="non-scaling-stroke" d="
  M 45.04 128.50
  Q 51.38 115.69 49.81 101.49
  A 1.20 1.10 63.3 0 1 50.06 100.61
  Q 51.91 98.44 52.57 101.40
  C 55.31 113.80 56.73 123.58 53.79 136.25"
/>
<path stroke="#6f0000" vector-effect="non-scaling-stroke" d="
  M 513.54 207.25
  Q 514.90 208.94 516.25 207.29"
/>
<path stroke="#6f0000" vector-effect="non-scaling-stroke" d="
  M 573.87 208.78
  Q 561.18 214.32 549.29 206.75"
/>
<path stroke="#6f0000" vector-effect="non-scaling-stroke" d="
  M 524.00 206.70
  C 517.18 211.41 509.45 214.40 503.47 206.86"
/>
<path stroke="#6f0000" vector-effect="non-scaling-stroke" d="
  M 473.21 206.63
  Q 471.43 210.43 468.00 210.75
  Q 459.64 211.53 451.64 211.26
  A 0.87 0.86 -79.0 0 1 450.87 210.10
  L 451.96 207.00"
/>
<path stroke="#6f0000" vector-effect="non-scaling-stroke" d="
  M 430.71 206.75
  Q 428.95 210.40 426.44 210.69
  Q 417.61 211.68 408.73 211.00
  A 0.57 0.55 -74.8 0 1 408.28 210.19
  L 409.71 207.25"
/>
<path stroke="#6f0000" vector-effect="non-scaling-stroke" d="
  M 387.75 206.70
  C 381.08 211.40 372.60 215.19 367.04 206.81"
/>
<path stroke="#6f0000" vector-effect="non-scaling-stroke" d="
  M 352.48 206.63
  C 345.52 212.18 336.15 213.84 329.54 206.75"
/>
<path stroke="#6f0000" vector-effect="non-scaling-stroke" d="
  M 304.25 206.68
  C 298.06 211.48 289.97 213.96 284.07 206.87"
/>
<path stroke="#6f0000" vector-effect="non-scaling-stroke" d="
  M 258.78 206.41
  Q 248.48 215.53 238.79 206.75"
/>
<path stroke="#6f0000" vector-effect="non-scaling-stroke" d="
  M 212.68 206.62
  C 206.37 211.58 198.06 213.99 192.50 206.71"
/>
<path stroke="#6f0000" vector-effect="non-scaling-stroke" d="
  M 167.00 206.69
  C 160.79 211.43 152.61 213.98 146.70 206.86"
/>
<path stroke="#6f0000" vector-effect="non-scaling-stroke" d="
  M 339.04 207.00
  Q 342.18 210.09 345.75 207.29"
/>
<path stroke="#808080" vector-effect="non-scaling-stroke" d="
  M 91.16 228.24
  C 91.81 216.84 76.35 216.10 68.83 215.94
  C 62.32 215.80 51.25 216.73 47.55 222.98
  C 45.05 227.21 46.25 238.33 46.25 243.43
  Q 46.25 253.47 46.37 254.04
  C 48.82 266.08 71.42 264.64 80.16 262.81
  C 89.51 260.84 92.31 255.47 91.13 246.19
  A 0.57 0.55 86.0 0 0 90.57 245.69
  L 77.44 245.92
  A 0.53 0.48 -89.4 0 0 76.96 246.44
  L 76.78 252.88
  Q 76.72 255.24 74.26 256.00
  Q 69.42 257.48 64.54 256.11
  C 61.01 255.12 61.50 253.16 61.50 250.16
  Q 61.49 239.20 61.31 228.25
  C 61.21 222.36 69.59 222.78 73.30 223.72
  C 76.74 224.60 77.27 226.86 76.64 230.04
  Q 76.23 232.14 78.46 232.12
  L 90.70 232.06
  A 0.77 0.74 -8.1 0 0 91.45 231.10
  Q 91.07 229.78 91.16 228.24"
/>
<path stroke="#808080" vector-effect="non-scaling-stroke" d="
  M 135.81 255.44
  L 135.75 216.90
  A 0.85 0.80 89.7 0 0 134.94 216.05
  L 120.80 216.27
  A 0.54 0.49 89.5 0 0 120.32 216.81
  L 120.25 262.76
  A 0.43 0.42 90.0 0 0 120.67 263.19
  L 159.93 263.00
  A 0.57 0.56 0.0 0 0 160.50 262.44
  L 160.50 256.65
  A 0.66 0.65 0.0 0 0 159.84 256.00
  L 136.30 255.94
  A 0.50 0.49 90.0 0 1 135.81 255.44"
/>
<path stroke="#808080" vector-effect="non-scaling-stroke" d="
  M 215.52 254.08
  A 0.76 0.64 -7.1 0 1 216.22 254.54
  L 218.57 262.08
  A 1.35 1.22 81.0 0 0 219.74 263.02
  L 233.82 263.25
  A 0.43 0.40 -8.2 0 0 234.24 262.72
  L 219.10 216.54
  A 0.70 0.69 80.7 0 0 218.44 216.06
  L 197.17 216.00
  A 0.59 0.59 -81.2 0 0 196.61 216.41
  L 181.38 262.86
  A 0.26 0.25 8.9 0 0 181.63 263.19
  L 194.65 263.19
  A 0.96 0.90 7.6 0 0 195.56 262.54
  L 197.94 254.60
  A 0.84 0.82 -81.4 0 1 198.73 254.00
  L 215.52 254.08"
/>
<path stroke="#808080" vector-effect="non-scaling-stroke" d="
  M 256.22 249.55
  C 252.82 267.97 290.44 266.48 298.07 259.10
  C 302.83 254.49 301.78 247.72 296.44 244.06
  Q 289.83 239.53 281.50 236.25
  C 278.49 235.06 269.47 230.40 272.25 225.74
  C 274.58 221.83 287.34 221.40 286.47 229.04
  A 0.92 0.91 3.3 0 0 287.39 230.06
  L 300.31 230.05
  A 0.58 0.55 3.4 0 0 300.88 229.57
  C 302.74 213.84 275.96 214.88 266.78 217.31
  C 257.23 219.83 251.87 228.21 261.14 235.85
  Q 264.16 238.34 267.80 239.97
  C 271.61 241.66 289.09 248.17 285.37 254.35
  C 283.42 257.60 276.38 257.02 273.45 256.06
  C 270.39 255.07 270.29 253.17 270.60 250.33
  A 1.16 1.13 -87.1 0 0 269.47 249.05
  L 256.81 249.05
  A 0.61 0.60 -84.8 0 0 256.22 249.55"
/>
<path stroke="#808080" vector-effect="non-scaling-stroke" d="
  M 325.21 249.55
  C 321.67 268.00 357.61 265.50 365.56 260.31
  Q 371.22 256.62 369.98 250.95
  C 367.84 241.27 351.44 237.62 344.10 232.54
  C 331.30 223.68 357.10 217.91 355.64 229.45
  A 0.44 0.42 -86.4 0 0 356.06 229.94
  L 369.31 230.06
  A 0.57 0.57 3.4 0 0 369.88 229.56
  C 372.02 211.63 334.93 213.82 327.81 221.56
  C 320.58 229.44 330.25 237.05 336.80 239.97
  C 340.34 241.55 359.08 248.62 354.19 254.67
  C 352.09 257.27 346.21 257.05 343.30 256.52
  Q 339.37 255.79 339.54 250.51
  A 1.42 1.39 -89.0 0 0 338.15 249.04
  L 325.81 249.05
  A 0.61 0.61 5.1 0 0 325.21 249.55"
/>
<path stroke="#808080" vector-effect="non-scaling-stroke" d="
  M 411.75 216.59
  A 0.59 0.59 0.0 0 0 411.16 216.00
  L 396.86 216.00
  A 0.59 0.59 0.0 0 0 396.27 216.59
  L 396.27 262.65
  A 0.59 0.59 0.0 0 0 396.86 263.24
  L 411.16 263.24
  A 0.59 0.59 0.0 0 0 411.75 262.65
  L 411.75 216.59"
/>
<path stroke="#808080" vector-effect="non-scaling-stroke" d="
  M 439.07 251.75
  C 438.85 265.49 461.71 264.51 470.01 263.57
  C 476.23 262.86 483.91 259.61 484.27 252.32
  C 484.36 250.47 484.75 248.03 484.31 246.04
  A 0.62 0.59 -6.9 0 0 483.70 245.59
  L 470.48 245.74
  A 0.53 0.50 -88.2 0 0 469.98 246.24
  L 469.57 253.05
  Q 469.44 255.23 467.15 256.07
  Q 462.94 257.62 457.50 256.25
  C 454.14 255.41 454.51 252.85 454.50 250.06
  Q 454.46 238.32 454.56 226.87
  Q 454.58 225.01 456.30 224.32
  C 460.90 222.46 471.10 221.51 469.62 230.01
  Q 469.25 232.10 471.32 232.09
  L 483.56 232.08
  A 0.63 0.62 -84.3 0 0 484.17 231.57
  C 486.08 222.34 479.35 217.86 471.32 216.67
  C 463.06 215.44 441.59 214.50 439.40 225.70
  Q 439.26 226.38 439.25 232.81
  Q 439.22 242.28 439.07 251.75"
/>
<path stroke="#808080" vector-effect="non-scaling-stroke" d="
  M 511.19 251.50
  C 509.94 264.68 531.56 264.46 539.25 263.75
  C 545.36 263.18 551.42 262.23 554.78 256.86
  C 558.89 250.29 553.76 245.52 548.27 242.09
  C 543.24 238.94 529.41 234.54 527.19 229.31
  C 523.93 221.65 542.82 220.01 541.64 229.44
  A 0.45 0.43 -86.4 0 0 542.06 229.94
  L 555.31 230.06
  A 0.57 0.57 3.4 0 0 555.88 229.56
  C 557.80 213.36 530.08 215.20 520.92 217.38
  Q 514.19 218.99 512.06 224.31
  C 506.06 239.35 536.35 241.51 540.44 250.56
  C 543.56 257.47 531.11 257.79 527.80 255.90
  Q 525.52 254.60 525.49 250.51
  A 1.48 1.48 0.4 0 0 524.04 249.04
  Q 519.16 248.96 513.21 249.00
  C 512.06 249.00 510.45 248.63 511.07 250.53
  Q 511.23 251.05 511.19 251.50"
/>
<path stroke="#808080" vector-effect="non-scaling-stroke" d="
  M 200.11 247.60
  A 0.31 0.31 -81.4 0 0 200.40 248.00
  L 213.82 248.00
  A 0.31 0.31 81.3 0 0 214.11 247.60
  L 207.41 225.77
  A 0.31 0.31 -44.1 0 0 206.81 225.77
  L 200.11 247.60"
/>
</g>
<path fill="#000000" d="
  M 163.85 116.17
  Q 154.30 125.50 145.54 136.25
  L 130.04 136.00
  Q 141.29 104.16 147.06 88.81
  Q 148.17 85.86 148.60 84.01
  C 149.32 80.87 146.52 81.78 145.44 83.27
  Q 141.91 88.15 138.04 92.75
  L 156.99 27.82
  A 0.77 0.76 -81.9 0 1 157.72 27.26
  L 189.00 27.49
  A 0.38 0.38 -81.9 0 1 189.36 27.98
  L 163.85 116.17
  Z"
/>
<path fill="#000000" d="
  M 241.79 130.75
  L 265.45 88.42
  A 0.98 0.98 17.4 0 0 264.69 86.97
  C 259.34 86.42 249.02 85.94 245.81 91.56
  Q 236.30 108.22 219.13 136.42
  Q 195.71 135.68 172.28 136.00
  A 0.79 0.79 -82.2 0 1 171.51 134.98
  L 203.05 27.66
  A 0.70 0.67 7.4 0 1 203.70 27.18
  Q 221.97 26.86 240.25 27.00
  C 268.52 27.21 288.55 42.70 282.66 73.28
  C 278.01 97.39 265.06 120.67 241.79 130.75
  Z
  M 244.81 57.69
  Q 237.43 52.40 227.81 53.26
  A 0.77 0.74 -83.9 0 0 227.17 53.80
  L 210.87 108.70
  A 0.98 0.98 -80.6 0 0 211.77 109.96
  C 228.49 110.53 238.71 102.98 245.15 87.88
  C 248.50 80.01 253.62 64.00 244.81 57.69
  Z
  M 186.8351 126.1031
  A 10.80 9.01 124.1 0 0 200.3508 122.2114
  A 10.80 9.01 124.1 0 0 198.9449 108.2169
  A 10.80 9.01 124.1 0 0 185.4292 112.1086
  A 10.80 9.01 124.1 0 0 186.8351 126.1031
  Z"
/>
<path fill="#000000" d="
  M 333.75 106.46
  C 322.86 105.72 315.21 118.89 324.50 126.21
  L 320.49 135.02
  A 1.66 1.65 -77.9 0 1 318.98 136.00
  L 289.35 136.00
  A 1.16 1.15 8.2 0 1 288.24 134.52
  Q 288.96 132.14 288.54 129.75
  L 311.44 88.68
  A 1.17 1.17 17.9 0 0 310.55 86.95
  Q 306.88 86.53 302.99 86.88
  C 297.93 87.33 294.24 87.38 292.06 91.56
  Q 291.60 92.46 291.00 92.71
  L 294.94 27.70
  A 0.54 0.54 -87.8 0 1 295.49 27.19
  L 326.95 27.31
  A 0.44 0.43 -86.5 0 1 327.38 27.80
  Q 323.69 58.97 319.56 90.08
  C 319.50 90.51 318.96 91.38 319.44 91.59
  A 0.62 0.49 -66.2 0 0 320.14 91.22
  L 347.53 27.73
  A 0.80 0.79 -78.1 0 1 348.26 27.25
  L 376.78 27.25
  A 0.50 0.50 -86.0 0 1 377.27 27.82
  L 368.94 90.20
  Q 368.46 93.78 369.96 90.49
  L 398.40 27.95
  A 1.20 1.18 11.7 0 1 399.49 27.25
  L 428.52 27.25
  A 0.45 0.45 13.4 0 1 428.92 27.90
  L 374.17 135.49
  A 0.84 0.77 -74.5 0 1 373.45 135.94
  L 342.94 135.82
  A 0.46 0.45 -86.6 0 1 342.49 135.31
  L 348.89 74.96
  Q 348.96 74.35 348.55 74.61
  Q 348.38 74.72 348.25 75.00
  Q 341.00 90.73 333.75 106.46
  Z"
/>
<path fill="#000000" d="
  M 536.22 61.05
  Q 536.45 62.47 537.30 61.33
  L 562.18 27.90
  A 1.63 1.62 -71.4 0 1 563.48 27.25
  L 599.27 27.25
  Q 600.17 27.25 599.59 27.94
  Q 571.77 61.22 544.09 94.92
  Q 542.44 96.94 541.69 99.44
  Q 536.32 117.48 531.11 135.41
  A 0.83 0.82 -81.4 0 1 530.32 136.00
  L 499.99 136.00
  A 0.57 0.57 8.0 0 1 499.44 135.27
  L 510.47 97.66
  Q 510.74 96.73 510.53 95.79
  L 495.07 27.99
  A 0.66 0.65 84.0 0 1 495.71 27.19
  L 530.20 27.25
  A 0.74 0.71 -4.0 0 1 530.93 27.86
  L 536.22 61.05
  Z"
/>
<path fill="#000000" d="
  M 68.75 82.21
  Q 57.59 81.25 47.04 85.00
  Q 47.28 78.79 47.96 72.62
  C 48.08 71.52 47.27 70.85 46.93 72.54
  Q 45.57 79.26 44.50 86.04
  Q 12.40 102.49 1.04 136.75
  L 0.47 135.70
  A 1.26 1.12 -53.4 0 1 0.39 134.78
  L 31.67 27.79
  A 0.67 0.67 11.2 0 1 32.31 27.31
  L 70.57 27.43
  A 0.50 0.48 -88.9 0 1 71.05 27.95
  L 68.75 82.21
  Z"
/>
<path fill="#000000" d="
  M 117.00 120.73
  Q 111.38 128.91 104.81 136.41
  Q 97.91 135.51 91.00 136.21
  C 96.83 123.83 100.01 109.18 93.62 96.35
  L 102.04 75.25
  Q 104.05 70.50 101.79 74.50
  L 91.46 93.25
  Q 84.38 85.59 74.21 83.00
  L 104.69 27.82
  A 1.13 1.12 14.5 0 1 105.67 27.25
  L 143.56 27.25
  A 0.50 0.49 -81.6 0 1 144.03 27.89
  L 117.00 120.73
  Z"
/>
<path fill="#000000" d="
  M 426.34 122.75
  L 419.93 135.34
  A 1.23 1.22 13.5 0 1 418.84 136.00
  L 387.78 136.00
  Q 386.69 136.00 387.26 135.07
  L 453.07 28.14
  A 1.85 1.80 -73.8 0 1 454.62 27.26
  L 486.56 27.43
  A 0.52 0.52 89.4 0 1 487.08 27.94
  L 490.24 135.22
  A 0.76 0.75 -1.1 0 1 489.48 136.00
  L 458.44 136.00
  A 1.04 1.00 -87.9 0 1 457.44 134.89
  L 458.30 122.69
  A 0.51 0.49 2.8 0 0 457.81 122.17
  Q 442.43 121.64 427.06 122.29
  A 0.86 0.85 -77.2 0 0 426.34 122.75
  Z
  M 458.74 65.38
  L 440.42 98.21
  A 0.69 0.67 -75.1 0 0 441.00 99.24
  L 458.30 99.08
  A 0.54 0.52 -89.4 0 0 458.82 98.55
  L 459.52 65.59
  Q 459.55 63.94 458.74 65.38
  Z"
/>
<path fill="#de0000" d="
  M 68.75 82.21
  L 74.21 83.00
  Q 84.38 85.59 91.46 93.25
  L 93.62 96.35
  C 100.01 109.18 96.83 123.83 91.00 136.21
  C 79.40 159.41 59.26 180.41 39.19 196.51
  A 1.31 0.82 -26.5 0 0 38.71 197.29
  C 38.66 198.05 39.39 197.72 39.74 197.49
  C 63.94 181.09 86.05 159.61 104.81 136.41
  Q 111.38 128.91 117.00 120.73
  Q 128.38 107.22 138.04 92.75
  Q 141.91 88.15 145.44 83.27
  C 146.52 81.78 149.32 80.87 148.60 84.01
  Q 148.17 85.86 147.06 88.81
  Q 141.29 104.16 130.04 136.00
  C 128.25 140.77 110.89 188.94 112.76 189.69
  A 0.69 0.52 -65.4 0 0 113.48 189.30
  Q 127.41 161.50 145.54 136.25
  Q 154.30 125.50 163.85 116.17
  L 175.34 108.02
  A 1.18 1.15 -57.4 0 1 176.24 107.81
  C 178.67 108.24 176.66 110.03 175.78 110.63
  Q 168.28 115.75 162.00 122.29
  Q 155.09 128.37 149.50 135.80
  Q 125.40 169.05 109.56 206.98
  Q 104.07 217.40 99.01 206.96
  C 92.85 191.29 95.79 174.67 102.06 159.31
  Q 110.97 137.50 128.34 113.62
  Q 128.97 112.76 128.66 112.64
  A 0.89 0.46 -54.8 0 0 127.89 113.04
  L 113.96 130.25
  L 109.03 135.77
  C 88.31 162.28 60.03 188.77 32.02 207.43
  Q 27.14 210.69 21.95 211.35
  Q 20.54 210.17 20.47 209.01
  A 1.39 0.96 -33.3 0 1 20.83 208.12
  C 22.72 206.00 25.14 204.04 26.84 202.08
  Q 55.04 169.59 72.04 130.00
  Q 72.65 129.24 72.71 128.25
  C 77.14 117.80 84.96 94.38 71.04 87.75
  Q 70.06 86.96 68.79 87.00
  Q 57.39 84.51 46.75 89.29
  L 43.38 90.62
  C 25.95 99.92 10.21 116.68 4.54 136.00
  C 2.46 142.30 1.72 150.74 5.94 156.31
  C 13.90 166.83 26.24 156.31 32.42 149.77
  Q 41.06 140.64 45.04 128.50
  Q 51.38 115.69 49.81 101.49
  A 1.20 1.10 63.3 0 1 50.06 100.61
  Q 51.91 98.44 52.57 101.40
  C 55.31 113.80 56.73 123.58 53.79 136.25
  C 49.51 150.68 30.48 167.75 14.56 164.94
  Q 2.32 162.77 0.00 149.94
  L 0.00 142.19
  L 1.04 136.75
  Q 12.40 102.49 44.50 86.04
  Q 46.01 86.05 47.04 85.00
  Q 57.59 81.25 68.75 82.21
  Z"
/>
<path fill="#000000" d="
  M 68.79 87.00
  L 68.41 91.81
  Q 68.34 92.71 68.94 92.03
  Q 70.48 90.30 71.04 87.75
  C 84.96 94.38 77.14 117.80 72.71 128.25
  Q 71.66 128.57 71.50 129.71
  L 68.21 135.51
  A 0.95 0.83 12.7 0 1 67.44 135.93
  L 53.79 136.25
  C 56.73 123.58 55.31 113.80 52.57 101.40
  Q 51.91 98.44 50.06 100.61
  A 1.20 1.10 63.3 0 0 49.81 101.49
  Q 51.38 115.69 45.04 128.50
  L 46.75 89.29
  Q 57.39 84.51 68.79 87.00
  Z"
/>
<path fill="#de0000" d="
  M 241.79 130.75
  Q 227.45 155.10 214.35 180.14
  Q 206.77 194.64 204.31 202.06
  C 201.66 210.06 208.11 206.65 210.52 204.70
  Q 216.34 200.00 220.90 194.07
  C 233.25 178.03 245.99 162.34 258.19 146.18
  C 270.69 129.62 280.99 110.86 291.00 92.71
  Q 291.60 92.46 292.06 91.56
  C 294.24 87.38 297.93 87.33 302.99 86.88
  Q 306.88 86.53 310.55 86.95
  A 1.17 1.17 17.9 0 1 311.44 88.68
  L 288.54 129.75
  Q 270.39 160.53 254.66 192.61
  Q 250.54 201.02 250.06 203.81
  C 248.21 214.65 267.57 194.14 269.07 192.30
  Q 285.23 172.56 301.55 151.94
  Q 302.69 150.51 304.47 150.16
  Q 313.03 148.45 321.98 149.54
  A 0.78 0.77 17.2 0 1 322.58 150.67
  C 314.15 166.60 304.30 181.46 296.87 197.84
  Q 295.59 200.69 294.79 204.86
  Q 294.33 207.27 296.74 206.81
  C 301.64 205.88 310.72 195.17 314.00 191.28
  Q 326.98 175.91 340.91 161.41
  C 351.52 150.36 371.82 139.35 383.39 156.56
  A 0.62 0.62 43.7 0 0 384.43 156.54
  C 386.16 153.72 386.86 150.11 390.82 149.60
  Q 398.32 148.62 405.76 150.00
  A 0.98 0.97 19.5 0 1 406.44 151.42
  C 397.89 167.44 387.53 183.34 380.50 199.50
  Q 379.48 201.84 378.83 205.50
  A 1.07 0.95 -64.3 0 0 379.08 206.38
  C 384.98 212.50 414.67 171.36 418.15 166.38
  C 422.88 159.61 432.21 148.84 440.75 148.61
  Q 448.26 148.41 449.53 155.93
  Q 449.96 158.49 449.65 161.07
  Q 448.45 171.01 443.92 180.83
  C 443.80 181.09 443.34 182.63 444.34 181.59
  C 452.92 172.67 465.73 149.12 478.73 147.94
  C 494.86 146.47 488.54 171.48 485.69 178.94
  Q 485.17 180.28 486.03 180.14
  A 1.33 0.84 -68.2 0 0 486.79 179.59
  Q 496.80 165.27 508.31 154.81
  C 513.62 149.99 522.17 144.67 528.44 152.06
  C 542.80 168.99 508.28 201.39 513.54 207.25
  Q 514.90 208.94 516.25 207.29
  C 522.80 204.88 530.41 195.62 534.64 190.17
  Q 556.03 162.59 577.36 134.97
  C 578.34 133.70 582.29 130.23 581.35 135.10
  Q 580.95 137.15 579.30 138.41
  C 576.18 140.80 575.45 143.14 576.66 147.04
  C 581.29 161.98 591.33 173.96 587.87 191.04
  Q 587.39 193.42 588.96 191.58
  Q 592.90 186.98 597.34 181.86
  C 598.15 180.93 599.69 180.11 599.79 182.25
  C 593.36 192.15 584.43 203.12 573.87 208.78
  Q 561.18 214.32 549.29 206.75
  Q 540.61 199.98 544.14 190.23
  C 545.40 186.77 548.14 184.97 551.75 185.75
  C 560.92 187.72 559.01 199.14 551.13 201.20
  A 0.70 0.70 -20.5 0 0 550.68 202.18
  C 555.78 212.83 563.81 198.40 566.19 193.69
  C 572.81 180.56 577.24 162.91 572.93 148.80
  Q 572.38 146.98 571.21 148.48
  Q 552.66 172.42 533.94 196.69
  Q 531.70 199.59 524.00 206.70
  C 517.18 211.41 509.45 214.40 503.47 206.86
  C 494.75 189.55 513.14 169.20 520.04 154.70
  A 1.38 1.27 -42.6 0 0 520.12 153.76
  C 517.33 144.45 497.80 170.82 495.19 174.27
  Q 483.45 189.81 473.21 206.63
  Q 471.43 210.43 468.00 210.75
  Q 459.64 211.53 451.64 211.26
  A 0.87 0.86 -79.0 0 1 450.87 210.10
  L 451.96 207.00
  Q 462.34 188.23 471.69 168.94
  Q 474.39 163.37 475.91 157.39
  C 476.60 154.69 475.30 152.34 472.25 154.50
  C 464.79 159.79 458.91 167.46 453.43 174.68
  Q 441.55 190.35 430.71 206.75
  Q 428.95 210.40 426.44 210.69
  Q 417.61 211.68 408.73 211.00
  A 0.57 0.55 -74.8 0 1 408.28 210.19
  L 409.71 207.25
  C 419.11 191.15 428.97 174.94 436.25 157.75
  Q 437.13 155.67 436.09 154.36
  A 0.79 0.72 -27.3 0 0 435.27 154.14
  C 430.16 155.78 422.70 165.58 419.40 169.91
  C 409.50 182.90 400.22 195.86 387.75 206.70
  C 381.08 211.40 372.60 215.19 367.04 206.81
  Q 365.19 202.24 366.00 196.25
  C 366.34 193.73 364.97 194.44 364.09 195.50
  Q 359.00 201.68 352.48 206.63
  C 345.52 212.18 336.15 213.84 329.54 206.75
  C 324.37 200.93 324.08 193.02 326.08 185.84
  C 326.26 185.18 326.98 181.70 324.96 183.95
  C 318.03 191.65 312.12 199.75 304.25 206.68
  C 298.06 211.48 289.97 213.96 284.07 206.87
  C 279.23 195.39 288.08 179.52 293.51 168.10
  Q 295.12 164.71 292.67 167.66
  C 282.93 179.39 272.63 195.10 258.78 206.41
  Q 248.48 215.53 238.79 206.75
  C 233.03 195.25 241.64 177.32 247.22 167.32
  C 249.15 163.86 246.66 166.19 246.31 166.63
  C 232.16 184.82 225.45 194.62 212.68 206.62
  C 206.37 211.58 198.06 213.99 192.50 206.71
  Q 188.69 198.55 191.94 188.94
  Q 196.38 175.79 201.47 167.05
  C 202.33 165.58 202.49 163.50 200.57 166.15
  C 190.48 180.06 179.78 195.11 167.00 206.69
  C 160.79 211.43 152.61 213.98 146.70 206.86
  Q 143.75 195.81 148.94 184.44
  Q 154.72 171.77 156.51 168.28
  C 156.85 167.63 157.56 165.54 155.56 167.56
  Q 153.18 169.98 142.76 183.69
  C 140.48 186.69 138.96 184.10 140.84 181.61
  Q 151.86 167.04 163.77 152.53
  Q 165.17 150.83 167.33 150.38
  Q 175.55 148.68 184.47 149.50
  A 0.86 0.86 -77.0 0 1 185.20 150.67
  Q 184.37 152.80 183.23 154.76
  Q 175.83 167.50 168.48 180.27
  C 164.40 187.37 159.27 196.24 157.72 203.83
  C 157.27 206.03 158.45 207.80 160.81 206.31
  C 169.19 200.99 176.43 191.82 182.69 184.19
  Q 201.67 161.07 219.13 136.42
  Q 236.30 108.22 245.81 91.56
  C 249.02 85.94 259.34 86.42 264.69 86.97
  A 0.98 0.98 17.4 0 1 265.45 88.42
  L 241.79 130.75
  Z
  M 339.04 207.00
  Q 342.18 210.09 345.75 207.29
  C 358.24 203.26 372.85 177.60 378.06 166.22
  Q 379.14 163.85 379.50 161.26
  Q 380.31 155.32 375.92 152.89
  C 370.05 149.65 363.23 158.34 360.30 162.31
  C 355.44 168.88 333.19 199.82 339.04 207.00
  Z"
/>
<path fill="#000000" d="
  M 43.38 90.62
  L 30.60 134.98
  A 1.42 1.40 7.9 0 1 29.24 136.00
  L 4.54 136.00
  C 10.21 116.68 25.95 99.92 43.38 90.62
  Z"
/>
<path fill="#de0000" d="
  M 333.75 106.46
  Q 341.56 109.87 339.25 118.00
  Q 336.17 128.82 324.50 126.21
  C 315.21 118.89 322.86 105.72 333.75 106.46
  Z"
/>
<ellipse fill="#de0000" cx="0.00" cy="0.00" transform="translate(192.89,117.16) rotate(124.1)" rx="10.80" ry="9.01"/>
<path fill="#000000" d="
  M 162.00 122.29
  L 157.96 135.34
  A 0.74 0.64 -80.1 0 1 157.31 135.87
  L 149.50 135.80
  Q 155.09 128.37 162.00 122.29
  Z"
/>
<path fill="#000000" d="
  M 113.96 130.25
  L 112.59 134.95
  A 1.36 1.06 88.0 0 1 112.03 135.72
  Q 110.86 136.38 109.03 135.77
  L 113.96 130.25
  Z"
/>
<path fill="#000000" d="
  M 146.70 206.86
  C 152.61 213.98 160.79 211.43 167.00 206.69
  Q 179.74 207.46 192.50 206.71
  C 198.06 213.99 206.37 211.58 212.68 206.62
  Q 225.76 207.47 238.79 206.75
  Q 248.48 215.53 258.78 206.41
  C 259.59 207.56 281.19 206.92 284.07 206.87
  C 289.97 213.96 298.06 211.48 304.25 206.68
  Q 316.89 207.43 329.54 206.75
  C 336.15 213.84 345.52 212.18 352.48 206.63
  Q 359.76 207.43 367.04 206.81
  C 372.60 215.19 381.08 211.40 387.75 206.70
  L 409.71 207.25
  L 408.28 210.19
  A 0.57 0.55 -74.8 0 0 408.73 211.00
  Q 417.61 211.68 426.44 210.69
  Q 428.95 210.40 430.71 206.75
  L 451.96 207.00
  L 450.87 210.10
  A 0.87 0.86 -79.0 0 0 451.64 211.26
  Q 459.64 211.53 468.00 210.75
  Q 471.43 210.43 473.21 206.63
  Q 488.32 207.38 503.47 206.86
  C 509.45 214.40 517.18 211.41 524.00 206.70
  Q 536.63 207.41 549.29 206.75
  Q 561.18 214.32 573.87 208.78
  Q 592.08 216.72 594.75 235.75
  C 596.88 250.93 586.75 265.98 572.18 270.46
  Q 567.19 272.00 553.18 272.00
  Q 296.59 272.00 40.00 271.97
  C 6.06 271.97 -7.07 229.63 21.95 211.35
  Q 27.14 210.69 32.02 207.43
  L 99.01 206.96
  Q 104.07 217.40 109.56 206.98
  L 146.70 206.86
  Z
  M 91.16 228.24
  C 91.81 216.84 76.35 216.10 68.83 215.94
  C 62.32 215.80 51.25 216.73 47.55 222.98
  C 45.05 227.21 46.25 238.33 46.25 243.43
  Q 46.25 253.47 46.37 254.04
  C 48.82 266.08 71.42 264.64 80.16 262.81
  C 89.51 260.84 92.31 255.47 91.13 246.19
  A 0.57 0.55 86.0 0 0 90.57 245.69
  L 77.44 245.92
  A 0.53 0.48 -89.4 0 0 76.96 246.44
  L 76.78 252.88
  Q 76.72 255.24 74.26 256.00
  Q 69.42 257.48 64.54 256.11
  C 61.01 255.12 61.50 253.16 61.50 250.16
  Q 61.49 239.20 61.31 228.25
  C 61.21 222.36 69.59 222.78 73.30 223.72
  C 76.74 224.60 77.27 226.86 76.64 230.04
  Q 76.23 232.14 78.46 232.12
  L 90.70 232.06
  A 0.77 0.74 -8.1 0 0 91.45 231.10
  Q 91.07 229.78 91.16 228.24
  Z
  M 135.81 255.44
  L 135.75 216.90
  A 0.85 0.80 89.7 0 0 134.94 216.05
  L 120.80 216.27
  A 0.54 0.49 89.5 0 0 120.32 216.81
  L 120.25 262.76
  A 0.43 0.42 90.0 0 0 120.67 263.19
  L 159.93 263.00
  A 0.57 0.56 0.0 0 0 160.50 262.44
  L 160.50 256.65
  A 0.66 0.65 0.0 0 0 159.84 256.00
  L 136.30 255.94
  A 0.50 0.49 90.0 0 1 135.81 255.44
  Z
  M 215.52 254.08
  A 0.76 0.64 -7.1 0 1 216.22 254.54
  L 218.57 262.08
  A 1.35 1.22 81.0 0 0 219.74 263.02
  L 233.82 263.25
  A 0.43 0.40 -8.2 0 0 234.24 262.72
  L 219.10 216.54
  A 0.70 0.69 80.7 0 0 218.44 216.06
  L 197.17 216.00
  A 0.59 0.59 -81.2 0 0 196.61 216.41
  L 181.38 262.86
  A 0.26 0.25 8.9 0 0 181.63 263.19
  L 194.65 263.19
  A 0.96 0.90 7.6 0 0 195.56 262.54
  L 197.94 254.60
  A 0.84 0.82 -81.4 0 1 198.73 254.00
  L 215.52 254.08
  Z
  M 256.22 249.55
  C 252.82 267.97 290.44 266.48 298.07 259.10
  C 302.83 254.49 301.78 247.72 296.44 244.06
  Q 289.83 239.53 281.50 236.25
  C 278.49 235.06 269.47 230.40 272.25 225.74
  C 274.58 221.83 287.34 221.40 286.47 229.04
  A 0.92 0.91 3.3 0 0 287.39 230.06
  L 300.31 230.05
  A 0.58 0.55 3.4 0 0 300.88 229.57
  C 302.74 213.84 275.96 214.88 266.78 217.31
  C 257.23 219.83 251.87 228.21 261.14 235.85
  Q 264.16 238.34 267.80 239.97
  C 271.61 241.66 289.09 248.17 285.37 254.35
  C 283.42 257.60 276.38 257.02 273.45 256.06
  C 270.39 255.07 270.29 253.17 270.60 250.33
  A 1.16 1.13 -87.1 0 0 269.47 249.05
  L 256.81 249.05
  A 0.61 0.60 -84.8 0 0 256.22 249.55
  Z
  M 325.21 249.55
  C 321.67 268.00 357.61 265.50 365.56 260.31
  Q 371.22 256.62 369.98 250.95
  C 367.84 241.27 351.44 237.62 344.10 232.54
  C 331.30 223.68 357.10 217.91 355.64 229.45
  A 0.44 0.42 -86.4 0 0 356.06 229.94
  L 369.31 230.06
  A 0.57 0.57 3.4 0 0 369.88 229.56
  C 372.02 211.63 334.93 213.82 327.81 221.56
  C 320.58 229.44 330.25 237.05 336.80 239.97
  C 340.34 241.55 359.08 248.62 354.19 254.67
  C 352.09 257.27 346.21 257.05 343.30 256.52
  Q 339.37 255.79 339.54 250.51
  A 1.42 1.39 -89.0 0 0 338.15 249.04
  L 325.81 249.05
  A 0.61 0.61 5.1 0 0 325.21 249.55
  Z
  M 411.75 216.59
  A 0.59 0.59 0.0 0 0 411.16 216.00
  L 396.86 216.00
  A 0.59 0.59 0.0 0 0 396.27 216.59
  L 396.27 262.65
  A 0.59 0.59 0.0 0 0 396.86 263.24
  L 411.16 263.24
  A 0.59 0.59 0.0 0 0 411.75 262.65
  L 411.75 216.59
  Z
  M 439.07 251.75
  C 438.85 265.49 461.71 264.51 470.01 263.57
  C 476.23 262.86 483.91 259.61 484.27 252.32
  C 484.36 250.47 484.75 248.03 484.31 246.04
  A 0.62 0.59 -6.9 0 0 483.70 245.59
  L 470.48 245.74
  A 0.53 0.50 -88.2 0 0 469.98 246.24
  L 469.57 253.05
  Q 469.44 255.23 467.15 256.07
  Q 462.94 257.62 457.50 256.25
  C 454.14 255.41 454.51 252.85 454.50 250.06
  Q 454.46 238.32 454.56 226.87
  Q 454.58 225.01 456.30 224.32
  C 460.90 222.46 471.10 221.51 469.62 230.01
  Q 469.25 232.10 471.32 232.09
  L 483.56 232.08
  A 0.63 0.62 -84.3 0 0 484.17 231.57
  C 486.08 222.34 479.35 217.86 471.32 216.67
  C 463.06 215.44 441.59 214.50 439.40 225.70
  Q 439.26 226.38 439.25 232.81
  Q 439.22 242.28 439.07 251.75
  Z
  M 511.19 251.50
  C 509.94 264.68 531.56 264.46 539.25 263.75
  C 545.36 263.18 551.42 262.23 554.78 256.86
  C 558.89 250.29 553.76 245.52 548.27 242.09
  C 543.24 238.94 529.41 234.54 527.19 229.31
  C 523.93 221.65 542.82 220.01 541.64 229.44
  A 0.45 0.43 -86.4 0 0 542.06 229.94
  L 555.31 230.06
  A 0.57 0.57 3.4 0 0 555.88 229.56
  C 557.80 213.36 530.08 215.20 520.92 217.38
  Q 514.19 218.99 512.06 224.31
  C 506.06 239.35 536.35 241.51 540.44 250.56
  C 543.56 257.47 531.11 257.79 527.80 255.90
  Q 525.52 254.60 525.49 250.51
  A 1.48 1.48 0.4 0 0 524.04 249.04
  Q 519.16 248.96 513.21 249.00
  C 512.06 249.00 510.45 248.63 511.07 250.53
  Q 511.23 251.05 511.19 251.50
  Z"
/>
<path fill="#000000" d="
  M 339.04 207.00
  L 345.75 207.29
  Q 342.18 210.09 339.04 207.00
  Z"
/>
<path fill="#000000" d="
  M 516.25 207.29
  Q 514.90 208.94 513.54 207.25
  L 516.25 207.29
  Z"
/>
<path fill="#ffffff" d="
  M 68.83 215.94
  C 76.35 216.10 91.81 216.84 91.16 228.24
  Q 91.07 229.78 91.45 231.10
  A 0.77 0.74 -8.1 0 1 90.70 232.06
  L 78.46 232.12
  Q 76.23 232.14 76.64 230.04
  C 77.27 226.86 76.74 224.60 73.30 223.72
  C 69.59 222.78 61.21 222.36 61.31 228.25
  Q 61.49 239.20 61.50 250.16
  C 61.50 253.16 61.01 255.12 64.54 256.11
  Q 69.42 257.48 74.26 256.00
  Q 76.72 255.24 76.78 252.88
  L 76.96 246.44
  A 0.53 0.48 -89.4 0 1 77.44 245.92
  L 90.57 245.69
  A 0.57 0.55 86.0 0 1 91.13 246.19
  C 92.31 255.47 89.51 260.84 80.16 262.81
  C 71.42 264.64 48.82 266.08 46.37 254.04
  Q 46.25 253.47 46.25 243.43
  C 46.25 238.33 45.05 227.21 47.55 222.98
  C 51.25 216.73 62.32 215.80 68.83 215.94
  Z"
/>
<path fill="#ffffff" d="
  M 136.30 255.94
  L 159.84 256.00
  A 0.66 0.65 0.0 0 1 160.50 256.65
  L 160.50 262.44
  A 0.57 0.56 -0.0 0 1 159.93 263.00
  L 120.67 263.19
  A 0.43 0.42 -90.0 0 1 120.25 262.76
  L 120.32 216.81
  A 0.54 0.49 89.5 0 1 120.80 216.27
  L 134.94 216.05
  A 0.85 0.80 89.7 0 1 135.75 216.90
  L 135.81 255.44
  A 0.50 0.49 90.0 0 0 136.30 255.94
  Z"
/>
<path fill="#ffffff" d="
  M 215.52 254.08
  L 198.73 254.00
  A 0.84 0.82 -81.4 0 0 197.94 254.60
  L 195.56 262.54
  A 0.96 0.90 7.6 0 1 194.65 263.19
  L 181.63 263.19
  A 0.26 0.25 8.9 0 1 181.38 262.86
  L 196.61 216.41
  A 0.59 0.59 -81.2 0 1 197.17 216.00
  L 218.44 216.06
  A 0.70 0.69 80.7 0 1 219.10 216.54
  L 234.24 262.72
  A 0.43 0.40 -8.2 0 1 233.82 263.25
  L 219.74 263.02
  A 1.35 1.22 81.0 0 1 218.57 262.08
  L 216.22 254.54
  A 0.76 0.64 -7.1 0 0 215.52 254.08
  Z
  M 200.11 247.60
  A 0.31 0.31 -81.4 0 0 200.40 248.00
  L 213.82 248.00
  A 0.31 0.31 81.3 0 0 214.11 247.60
  L 207.41 225.77
  A 0.31 0.31 -44.1 0 0 206.81 225.77
  L 200.11 247.60
  Z"
/>
<path fill="#ffffff" d="
  M 298.07 259.10
  C 290.44 266.48 252.82 267.97 256.22 249.55
  A 0.61 0.60 -84.8 0 1 256.81 249.05
  L 269.47 249.05
  A 1.16 1.13 -87.1 0 1 270.60 250.33
  C 270.29 253.17 270.39 255.07 273.45 256.06
  C 276.38 257.02 283.42 257.60 285.37 254.35
  C 289.09 248.17 271.61 241.66 267.80 239.97
  Q 264.16 238.34 261.14 235.85
  C 251.87 228.21 257.23 219.83 266.78 217.31
  C 275.96 214.88 302.74 213.84 300.88 229.57
  A 0.58 0.55 3.4 0 1 300.31 230.05
  L 287.39 230.06
  A 0.92 0.91 3.3 0 1 286.47 229.04
  C 287.34 221.40 274.58 221.83 272.25 225.74
  C 269.47 230.40 278.49 235.06 281.50 236.25
  Q 289.83 239.53 296.44 244.06
  C 301.78 247.72 302.83 254.49 298.07 259.10
  Z"
/>
<path fill="#ffffff" d="
  M 365.56 260.31
  C 357.61 265.50 321.67 268.00 325.21 249.55
  A 0.61 0.61 5.1 0 1 325.81 249.05
  L 338.15 249.04
  A 1.42 1.39 -89.0 0 1 339.54 250.51
  Q 339.37 255.79 343.30 256.52
  C 346.21 257.05 352.09 257.27 354.19 254.67
  C 359.08 248.62 340.34 241.55 336.80 239.97
  C 330.25 237.05 320.58 229.44 327.81 221.56
  C 334.93 213.82 372.02 211.63 369.88 229.56
  A 0.57 0.57 3.4 0 1 369.31 230.06
  L 356.06 229.94
  A 0.44 0.42 -86.4 0 1 355.64 229.45
  C 357.10 217.91 331.30 223.68 344.10 232.54
  C 351.44 237.62 367.84 241.27 369.98 250.95
  Q 371.22 256.62 365.56 260.31
  Z"
/>
<rect fill="#ffffff" x="396.27" y="216.00" width="15.48" height="47.24" rx="0.59"/>
<path fill="#ffffff" d="
  M 470.01 263.57
  C 461.71 264.51 438.85 265.49 439.07 251.75
  Q 439.22 242.28 439.25 232.81
  Q 439.26 226.38 439.40 225.70
  C 441.59 214.50 463.06 215.44 471.32 216.67
  C 479.35 217.86 486.08 222.34 484.17 231.57
  A 0.63 0.62 -84.3 0 1 483.56 232.08
  L 471.32 232.09
  Q 469.25 232.10 469.62 230.01
  C 471.10 221.51 460.90 222.46 456.30 224.32
  Q 454.58 225.01 454.56 226.87
  Q 454.46 238.32 454.50 250.06
  C 454.51 252.85 454.14 255.41 457.50 256.25
  Q 462.94 257.62 467.15 256.07
  Q 469.44 255.23 469.57 253.05
  L 469.98 246.24
  A 0.53 0.50 -88.2 0 1 470.48 245.74
  L 483.70 245.59
  A 0.62 0.59 -6.9 0 1 484.31 246.04
  C 484.75 248.03 484.36 250.47 484.27 252.32
  C 483.91 259.61 476.23 262.86 470.01 263.57
  Z"
/>
<path fill="#ffffff" d="
  M 539.25 263.75
  C 531.56 264.46 509.94 264.68 511.19 251.50
  Q 511.23 251.05 511.07 250.53
  C 510.45 248.63 512.06 249.00 513.21 249.00
  Q 519.16 248.96 524.04 249.04
  A 1.48 1.48 0.4 0 1 525.49 250.51
  Q 525.52 254.60 527.80 255.90
  C 531.11 257.79 543.56 257.47 540.44 250.56
  C 536.35 241.51 506.06 239.35 512.06 224.31
  Q 514.19 218.99 520.92 217.38
  C 530.08 215.20 557.80 213.36 555.88 229.56
  A 0.57 0.57 3.4 0 1 555.31 230.06
  L 542.06 229.94
  A 0.45 0.43 -86.4 0 1 541.64 229.44
  C 542.82 220.01 523.93 221.65 527.19 229.31
  C 529.41 234.54 543.24 238.94 548.27 242.09
  C 553.76 245.52 558.89 250.29 554.78 256.86
  C 551.42 262.23 545.36 263.18 539.25 263.75
  Z"
/>
<path fill="#000000" d="
  M 200.11 247.60
  L 206.81 225.77
  A 0.31 0.31 -44.7 0 1 207.41 225.77
  L 214.11 247.60
  A 0.31 0.31 81.5 0 1 213.82 248.00
  L 200.40 248.00
  A 0.31 0.31 -82.3 0 1 200.11 247.60
  Z"
/>
</svg>
