<?xml version="1.0" encoding="UTF-8" standalone="no"?>
<!DOCTYPE svg PUBLIC "-//W3C//DTD SVG 1.1//EN" "http://www.w3.org/Graphics/SVG/1.1/DTD/svg11.dtd">
<svg xmlns="http://www.w3.org/2000/svg" version="1.1" viewBox="0 0 600 300">
<g stroke-width="2.00" fill="none" stroke-linecap="butt">
<path stroke="#808080" vector-effect="non-scaling-stroke" d="
  M 75.50 244.43
  Q 69.64 247.50 63.18 244.70
  Q 61.56 244.00 61.48 242.23
  Q 60.89 229.12 61.48 216.00
  Q 61.57 213.98 63.42 213.19
  C 69.28 210.69 78.31 210.86 76.88 220.05
  A 0.82 0.82 -85.5 0 0 77.69 221.00
  L 90.74 221.00
  A 0.45 0.45 -87.2 0 0 91.19 220.59
  Q 92.25 209.60 82.50 206.75
  C 73.61 204.15 46.37 202.24 46.28 217.25
  Q 46.21 228.90 46.30 240.56
  C 46.42 256.72 76.97 254.23 85.97 249.44
  C 91.62 246.42 91.49 240.86 91.24 235.27
  A 0.54 0.54 88.9 0 0 90.70 234.75
  L 77.77 234.75
  A 0.95 0.95 85.8 0 0 76.83 235.84
  Q 77.51 240.49 76.14 243.73
  A 1.43 1.38 -3.7 0 1 75.50 244.43"
/>
<path stroke="#808080" vector-effect="non-scaling-stroke" d="
  M 136.21 244.94
  A 0.71 0.71 0.0 0 1 135.50 244.23
  L 135.44 205.57
  A 0.52 0.51 90.0 0 0 134.93 205.05
  L 121.06 205.05
  A 0.52 0.50 90.0 0 0 120.56 205.57
  L 120.56 251.44
  A 0.50 0.49 90.0 0 0 121.05 251.94
  L 159.84 252.00
  A 0.63 0.56 90.0 0 0 160.40 251.37
  L 160.35 245.55
  A 0.55 0.51 90.0 0 0 159.84 245.00
  L 136.21 244.94"
/>
<path stroke="#808080" vector-effect="non-scaling-stroke" d="
  M 216.36 243.53
  L 218.93 251.46
  A 0.72 0.66 80.6 0 0 219.56 251.95
  L 233.73 252.00
  A 0.38 0.37 -9.0 0 0 234.09 251.51
  L 219.08 205.49
  A 0.71 0.70 80.9 0 0 218.41 205.00
  L 197.56 205.00
  A 1.02 1.01 -80.8 0 0 196.60 205.70
  L 181.72 251.47
  A 0.37 0.36 -80.7 0 0 182.06 251.96
  L 194.82 251.84
  A 0.72 0.67 -80.5 0 0 195.47 251.34
  L 197.89 243.50
  A 0.72 0.70 -80.9 0 1 198.56 243.00
  L 215.69 243.06
  A 0.71 0.67 -8.4 0 1 216.36 243.53"
/>
<path stroke="#808080" vector-effect="non-scaling-stroke" d="
  M 285.91 214.25
  Q 286.85 216.23 286.83 218.43
  A 0.52 0.48 -90.0 0 0 287.31 218.95
  L 300.43 218.95
  A 0.53 0.52 -89.4 0 0 300.95 218.43
  C 301.18 202.64 276.69 203.93 266.96 206.41
  C 258.04 208.68 251.88 216.68 260.71 224.34
  C 266.30 229.20 274.81 231.90 281.32 235.63
  C 284.78 237.60 289.18 243.61 282.81 245.32
  C 277.88 246.65 269.32 246.99 270.54 239.02
  A 0.85 0.83 -85.8 0 0 269.72 238.05
  L 256.81 238.05
  A 0.59 0.57 -86.0 0 0 256.24 238.56
  C 253.98 254.96 279.42 253.74 288.87 252.10
  C 296.21 250.83 304.60 245.09 299.72 237.01
  C 295.53 230.07 283.48 226.52 276.56 222.70
  C 272.57 220.49 268.39 214.72 275.31 212.55
  Q 280.41 210.96 285.25 213.57
  A 1.57 1.45 3.0 0 1 285.91 214.25"
/>
<path stroke="#808080" vector-effect="non-scaling-stroke" d="
  M 340.08 243.74
  Q 339.14 241.75 339.54 239.23
  A 1.06 1.05 -85.4 0 0 338.50 238.00
  L 325.87 238.00
  A 0.69 0.68 1.3 0 0 325.18 238.65
  C 324.57 248.95 331.72 251.28 340.59 252.57
  C 348.31 253.70 372.88 253.50 369.72 239.71
  C 367.77 231.23 353.68 226.96 346.81 223.45
  C 328.04 213.83 356.44 205.71 355.71 218.16
  A 0.79 0.79 -88.3 0 0 356.50 219.00
  L 369.40 219.00
  A 0.61 0.61 89.5 0 0 370.01 218.38
  C 369.79 201.56 342.44 203.86 332.44 207.44
  Q 325.70 209.84 325.66 216.94
  C 325.60 226.27 344.82 232.07 351.62 236.51
  C 355.93 239.33 356.58 244.30 350.58 245.66
  Q 345.53 246.80 340.76 244.42
  A 1.50 1.38 2.4 0 1 340.08 243.74"
/>
<path stroke="#808080" vector-effect="non-scaling-stroke" d="
  M 411.50 205.31
  A 0.31 0.31 0.0 0 0 411.19 205.00
  L 396.81 205.00
  A 0.31 0.31 0.0 0 0 396.50 205.31
  L 396.50 251.69
  A 0.31 0.31 0.0 0 0 396.81 252.00
  L 411.19 252.00
  A 0.31 0.31 0.0 0 0 411.50 251.69
  L 411.50 205.31"
/>
<path stroke="#808080" vector-effect="non-scaling-stroke" d="
  M 475.69 206.81
  C 467.74 204.41 439.34 202.12 439.29 216.75
  Q 439.25 228.75 439.35 240.75
  C 439.49 256.92 470.44 253.92 478.81 249.57
  C 484.58 246.57 484.46 240.85 484.25 235.24
  A 0.51 0.51 88.8 0 0 483.74 234.75
  L 470.52 234.75
  A 0.60 0.55 -88.9 0 0 469.97 235.33
  L 469.76 242.44
  Q 469.71 244.16 467.81 244.88
  C 464.09 246.30 454.67 247.38 454.44 241.31
  Q 453.93 228.28 454.49 215.58
  A 2.59 2.57 79.6 0 1 456.04 213.32
  Q 461.83 210.84 467.77 213.01
  A 2.80 2.11 11.0 0 1 469.59 215.03
  L 470.00 220.49
  A 0.55 0.46 87.4 0 0 470.47 221.00
  L 483.62 221.00
  A 0.57 0.57 2.8 0 0 484.19 220.49
  Q 485.14 209.66 475.69 206.81"
/>
<path stroke="#808080" vector-effect="non-scaling-stroke" d="
  M 526.08 243.74
  Q 525.14 241.75 525.54 239.23
  A 1.06 1.05 -85.4 0 0 524.50 238.00
  L 511.87 238.00
  A 0.69 0.68 1.3 0 0 511.18 238.65
  C 510.57 248.95 517.72 251.28 526.59 252.57
  C 534.30 253.70 558.94 253.50 555.71 239.68
  C 553.75 231.27 539.66 226.93 532.81 223.44
  C 514.27 213.98 542.04 205.53 541.73 218.24
  A 0.74 0.74 -89.2 0 0 542.47 219.00
  L 555.40 219.00
  A 0.61 0.61 89.5 0 0 556.01 218.38
  Q 555.94 213.47 553.29 210.48
  C 546.24 202.51 508.62 201.56 511.87 218.14
  C 512.87 223.25 517.54 226.38 522.08 228.40
  Q 530.24 232.03 537.81 236.77
  C 541.46 239.05 542.49 244.28 537.62 245.55
  Q 531.90 247.04 526.75 244.42
  A 1.49 1.41 2.0 0 1 526.08 243.74"
/>
<path stroke="#808080" vector-effect="non-scaling-stroke" d="
  M 200.07 236.57
  A 0.33 0.33 -81.4 0 0 200.39 237.00
  L 213.85 237.00
  A 0.33 0.33 81.4 0 0 214.17 236.57
  L 207.44 214.52
  A 0.33 0.33 -41.2 0 0 206.80 214.52
  L 200.07 236.57"
/>
</g>
<path fill="#55cc32" d="
  M 84.33 52.41
  A 0.60 0.58 44.5 0 1 83.55 52.40
  C 76.76 46.39 54.61 44.69 50.98 55.62
  C 48.35 63.51 62.17 66.24 67.02 66.25
  Q 68.60 66.25 67.41 67.30
  L 43.63 88.16
  A 0.87 0.85 -56.1 0 1 42.78 88.34
  C 26.86 82.76 13.14 64.70 30.31 50.56
  C 47.39 36.51 73.49 35.91 94.10 42.96
  A 0.46 0.44 33.2 0 1 94.27 43.72
  L 84.33 52.41
  Z"
/>
<path fill="#000000" d="
  M 171.92 109.08
  Q 158.70 96.04 161.83 77.22
  Q 165.97 52.39 191.50 51.25
  C 215.37 50.18 228.78 63.14 228.75 87.32
  A 0.93 0.92 -90.0 0 1 227.83 88.25
  L 205.52 88.20
  A 1.33 1.32 -88.7 0 1 204.21 86.82
  C 204.45 80.23 202.53 71.70 194.26 72.01
  C 183.99 72.39 185.44 84.75 190.94 89.81
  C 196.19 94.65 208.79 101.00 217.26 108.50
  Q 227.71 117.74 228.59 131.01
  C 229.09 138.45 228.30 148.61 225.19 155.69
  C 220.81 165.64 212.04 168.48 201.96 169.29
  C 172.84 171.62 159.24 158.95 159.25 129.83
  A 0.58 0.58 0.0 0 1 159.83 129.25
  L 183.77 129.25
  A 0.59 0.59 -88.2 0 1 184.36 129.88
  C 183.73 139.33 185.32 148.71 197.49 147.68
  C 205.29 147.02 204.30 136.16 201.54 131.57
  Q 199.77 128.63 194.51 124.90
  C 187.39 119.87 178.70 115.76 171.92 109.08
  Z"
/>
<path fill="#00a54a" d="
  M 68.06 105.12
  C 98.90 105.22 101.75 68.32 69.02 66.50
  Q 68.06 66.45 68.80 65.82
  L 83.44 53.39
  A 1.24 1.14 -61.1 0 1 84.31 53.10
  Q 86.60 53.30 88.82 53.92
  C 138.18 67.63 157.49 127.52 113.24 160.77
  C 81.70 184.47 35.34 178.94 10.56 147.94
  Q 3.35 138.91 0.43 126.56
  A 0.85 0.80 63.6 0 1 0.68 125.74
  L 42.44 89.39
  A 0.36 0.36 57.5 0 1 43.01 89.52
  C 47.53 100.17 56.70 105.08 68.06 105.12
  Z"
/>
<path fill="#000000" d="
  M 278.52 162.23
  A 0.51 0.50 -30.6 0 0 277.77 162.04
  C 269.90 167.78 265.30 171.32 255.01 169.66
  C 237.49 166.83 233.08 151.85 237.11 136.33
  C 241.72 118.52 256.63 119.05 272.00 111.75
  Q 281.31 107.33 275.50 98.50
  C 273.46 95.40 269.44 95.48 266.51 96.88
  C 262.68 98.72 262.35 104.08 262.00 107.77
  A 1.02 1.00 -87.2 0 1 261.00 108.69
  L 237.72 108.75
  A 1.52 1.51 -88.2 0 1 236.21 107.13
  Q 237.80 82.44 261.50 79.25
  C 272.28 77.80 287.72 77.73 295.96 84.91
  C 303.58 91.55 303.21 102.05 303.07 111.50
  Q 302.73 135.46 303.44 159.40
  C 303.53 162.50 304.12 164.91 305.36 167.53
  A 0.33 0.33 -12.5 0 1 305.06 168.00
  L 282.03 168.00
  A 1.12 1.12 76.7 0 1 281.03 167.38
  L 278.52 162.23
  Z
  M 277.70 126.68
  C 271.34 129.83 261.56 132.57 260.94 141.19
  Q 260.45 147.99 265.60 150.42
  C 268.73 151.90 273.05 151.60 275.19 148.69
  C 279.65 142.62 277.91 134.43 278.43 127.17
  Q 278.49 126.29 277.70 126.68
  Z"
/>
<path fill="#000000" d="
  M 341.20 87.89
  Q 341.14 90.14 342.64 88.32
  C 351.80 77.28 368.30 76.50 376.72 88.83
  A 0.38 0.38 -42.1 0 0 377.32 88.86
  Q 390.80 72.38 409.19 84.56
  C 413.70 87.55 415.23 92.39 415.31 98.05
  Q 415.80 132.06 415.32 166.07
  A 0.53 0.52 -0.0 0 1 414.80 166.58
  L 392.13 166.74
  A 0.89 0.87 89.7 0 1 391.25 165.85
  C 391.25 145.78 392.05 125.35 390.67 105.49
  C 390.16 98.24 379.08 98.31 378.97 106.84
  Q 378.57 135.59 378.76 165.58
  A 1.17 1.16 -0.2 0 1 377.59 166.75
  L 355.54 166.75
  A 1.30 1.29 0.2 0 1 354.24 165.45
  Q 354.43 134.37 354.00 104.50
  C 353.94 100.29 343.38 97.97 342.83 106.55
  C 341.63 125.45 342.63 144.52 342.32 166.06
  A 0.54 0.54 -1.1 0 1 341.81 166.59
  Q 330.05 167.08 318.31 166.46
  A 0.52 0.51 1.2 0 1 317.81 165.95
  L 317.81 82.92
  A 0.75 0.74 -0.0 0 1 318.56 82.18
  L 340.37 82.24
  A 1.01 0.98 -88.9 0 1 341.34 83.28
  L 341.20 87.89
  Z"
/>
<path fill="#000000" d="
  M 452.11 88.09
  Q 452.16 90.07 453.37 88.56
  C 461.90 77.81 479.18 76.97 486.97 89.00
  A 0.46 0.46 47.9 0 0 487.72 89.04
  Q 498.38 75.83 514.67 81.86
  C 523.69 85.19 526.20 91.41 526.31 100.83
  Q 526.67 132.98 526.49 165.95
  A 0.74 0.73 -90.0 0 1 525.76 166.69
  L 502.24 166.75
  A 0.67 0.67 -89.2 0 1 501.57 166.06
  Q 502.19 136.10 501.30 106.03
  C 501.13 100.08 494.14 99.21 491.09 102.78
  Q 489.76 104.34 489.71 108.07
  Q 489.33 136.46 489.51 165.94
  A 0.81 0.81 0.0 0 1 488.70 166.75
  L 466.14 166.75
  A 0.96 0.95 0.0 0 1 465.18 165.80
  C 465.28 145.85 466.25 125.41 464.69 105.83
  C 464.30 101.00 459.92 99.61 455.92 101.58
  Q 453.76 102.63 453.75 104.99
  L 453.51 166.02
  A 1.17 1.14 -89.7 0 1 452.37 167.18
  L 429.74 167.25
  A 1.24 1.23 89.8 0 1 428.50 166.01
  L 428.50 83.41
  A 0.91 0.90 -90.0 0 1 429.40 82.50
  L 451.44 82.56
  A 0.54 0.52 -1.1 0 1 451.98 83.06
  L 452.11 88.09
  Z"
/>
<path fill="#000000" d="
  M 566.39 132.06
  C 566.68 132.10 573.83 87.01 574.58 82.52
  A 0.85 0.85 3.0 0 1 575.37 81.81
  Q 587.82 81.11 599.19 81.78
  A 0.43 0.43 -81.9 0 1 599.58 82.30
  Q 590.44 125.33 580.44 168.17
  C 578.29 177.40 574.51 188.30 565.67 193.06
  C 559.94 196.15 549.76 195.33 543.36 194.54
  A 0.95 0.92 3.8 0 1 542.52 193.61
  L 542.67 176.94
  A 0.52 0.49 -88.4 0 1 543.19 176.42
  L 549.50 176.69
  A 1.88 0.94 15.8 0 0 550.44 176.51
  Q 554.24 174.30 553.25 169.75
  Q 543.84 126.43 533.85 82.24
  A 0.43 0.43 82.7 0 1 534.25 81.72
  Q 546.25 81.22 558.62 81.74
  A 0.88 0.87 -2.3 0 1 559.46 82.50
  L 566.02 131.58
  A 0.57 0.40 87.2 0 0 566.39 132.06
  Z"
/>
<path fill="#000000" d="
  M 594.85 228.88
  A 32.10 32.10 0.0 0 1 562.75 260.98
  L 38.25 260.98
  A 32.10 32.10 0.0 0 1 6.15 228.88
  L 6.15 228.10
  A 32.10 32.10 0.0 0 1 38.25 196.00
  L 562.75 196.00
  A 32.10 32.10 0.0 0 1 594.85 228.10
  L 594.85 228.88
  Z
  M 75.50 244.43
  Q 69.64 247.50 63.18 244.70
  Q 61.56 244.00 61.48 242.23
  Q 60.89 229.12 61.48 216.00
  Q 61.57 213.98 63.42 213.19
  C 69.28 210.69 78.31 210.86 76.88 220.05
  A 0.82 0.82 -85.5 0 0 77.69 221.00
  L 90.74 221.00
  A 0.45 0.45 -87.2 0 0 91.19 220.59
  Q 92.25 209.60 82.50 206.75
  C 73.61 204.15 46.37 202.24 46.28 217.25
  Q 46.21 228.90 46.30 240.56
  C 46.42 256.72 76.97 254.23 85.97 249.44
  C 91.62 246.42 91.49 240.86 91.24 235.27
  A 0.54 0.54 88.9 0 0 90.70 234.75
  L 77.77 234.75
  A 0.95 0.95 85.8 0 0 76.83 235.84
  Q 77.51 240.49 76.14 243.73
  A 1.43 1.38 -3.7 0 1 75.50 244.43
  Z
  M 136.21 244.94
  A 0.71 0.71 0.0 0 1 135.50 244.23
  L 135.44 205.57
  A 0.52 0.51 90.0 0 0 134.93 205.05
  L 121.06 205.05
  A 0.52 0.50 90.0 0 0 120.56 205.57
  L 120.56 251.44
  A 0.50 0.49 90.0 0 0 121.05 251.94
  L 159.84 252.00
  A 0.63 0.56 90.0 0 0 160.40 251.37
  L 160.35 245.55
  A 0.55 0.51 90.0 0 0 159.84 245.00
  L 136.21 244.94
  Z
  M 216.36 243.53
  L 218.93 251.46
  A 0.72 0.66 80.6 0 0 219.56 251.95
  L 233.73 252.00
  A 0.38 0.37 -9.0 0 0 234.09 251.51
  L 219.08 205.49
  A 0.71 0.70 80.9 0 0 218.41 205.00
  L 197.56 205.00
  A 1.02 1.01 -80.8 0 0 196.60 205.70
  L 181.72 251.47
  A 0.37 0.36 -80.7 0 0 182.06 251.96
  L 194.82 251.84
  A 0.72 0.67 -80.5 0 0 195.47 251.34
  L 197.89 243.50
  A 0.72 0.70 -80.9 0 1 198.56 243.00
  L 215.69 243.06
  A 0.71 0.67 -8.4 0 1 216.36 243.53
  Z
  M 285.91 214.25
  Q 286.85 216.23 286.83 218.43
  A 0.52 0.48 -90.0 0 0 287.31 218.95
  L 300.43 218.95
  A 0.53 0.52 -89.4 0 0 300.95 218.43
  C 301.18 202.64 276.69 203.93 266.96 206.41
  C 258.04 208.68 251.88 216.68 260.71 224.34
  C 266.30 229.20 274.81 231.90 281.32 235.63
  C 284.78 237.60 289.18 243.61 282.81 245.32
  C 277.88 246.65 269.32 246.99 270.54 239.02
  A 0.85 0.83 -85.8 0 0 269.72 238.05
  L 256.81 238.05
  A 0.59 0.57 -86.0 0 0 256.24 238.56
  C 253.98 254.96 279.42 253.74 288.87 252.10
  C 296.21 250.83 304.60 245.09 299.72 237.01
  C 295.53 230.07 283.48 226.52 276.56 222.70
  C 272.57 220.49 268.39 214.72 275.31 212.55
  Q 280.41 210.96 285.25 213.57
  A 1.57 1.45 3.0 0 1 285.91 214.25
  Z
  M 340.08 243.74
  Q 339.14 241.75 339.54 239.23
  A 1.06 1.05 -85.4 0 0 338.50 238.00
  L 325.87 238.00
  A 0.69 0.68 1.3 0 0 325.18 238.65
  C 324.57 248.95 331.72 251.28 340.59 252.57
  C 348.31 253.70 372.88 253.50 369.72 239.71
  C 367.77 231.23 353.68 226.96 346.81 223.45
  C 328.04 213.83 356.44 205.71 355.71 218.16
  A 0.79 0.79 -88.3 0 0 356.50 219.00
  L 369.40 219.00
  A 0.61 0.61 89.5 0 0 370.01 218.38
  C 369.79 201.56 342.44 203.86 332.44 207.44
  Q 325.70 209.84 325.66 216.94
  C 325.60 226.27 344.82 232.07 351.62 236.51
  C 355.93 239.33 356.58 244.30 350.58 245.66
  Q 345.53 246.80 340.76 244.42
  A 1.50 1.38 2.4 0 1 340.08 243.74
  Z
  M 411.50 205.31
  A 0.31 0.31 0.0 0 0 411.19 205.00
  L 396.81 205.00
  A 0.31 0.31 0.0 0 0 396.50 205.31
  L 396.50 251.69
  A 0.31 0.31 0.0 0 0 396.81 252.00
  L 411.19 252.00
  A 0.31 0.31 0.0 0 0 411.50 251.69
  L 411.50 205.31
  Z
  M 475.69 206.81
  C 467.74 204.41 439.34 202.12 439.29 216.75
  Q 439.25 228.75 439.35 240.75
  C 439.49 256.92 470.44 253.92 478.81 249.57
  C 484.58 246.57 484.46 240.85 484.25 235.24
  A 0.51 0.51 88.8 0 0 483.74 234.75
  L 470.52 234.75
  A 0.60 0.55 -88.9 0 0 469.97 235.33
  L 469.76 242.44
  Q 469.71 244.16 467.81 244.88
  C 464.09 246.30 454.67 247.38 454.44 241.31
  Q 453.93 228.28 454.49 215.58
  A 2.59 2.57 79.6 0 1 456.04 213.32
  Q 461.83 210.84 467.77 213.01
  A 2.80 2.11 11.0 0 1 469.59 215.03
  L 470.00 220.49
  A 0.55 0.46 87.4 0 0 470.47 221.00
  L 483.62 221.00
  A 0.57 0.57 2.8 0 0 484.19 220.49
  Q 485.14 209.66 475.69 206.81
  Z
  M 526.08 243.74
  Q 525.14 241.75 525.54 239.23
  A 1.06 1.05 -85.4 0 0 524.50 238.00
  L 511.87 238.00
  A 0.69 0.68 1.3 0 0 511.18 238.65
  C 510.57 248.95 517.72 251.28 526.59 252.57
  C 534.30 253.70 558.94 253.50 555.71 239.68
  C 553.75 231.27 539.66 226.93 532.81 223.44
  C 514.27 213.98 542.04 205.53 541.73 218.24
  A 0.74 0.74 -89.2 0 0 542.47 219.00
  L 555.40 219.00
  A 0.61 0.61 89.5 0 0 556.01 218.38
  Q 555.94 213.47 553.29 210.48
  C 546.24 202.51 508.62 201.56 511.87 218.14
  C 512.87 223.25 517.54 226.38 522.08 228.40
  Q 530.24 232.03 537.81 236.77
  C 541.46 239.05 542.49 244.28 537.62 245.55
  Q 531.90 247.04 526.75 244.42
  A 1.49 1.41 2.0 0 1 526.08 243.74
  Z"
/>
<path fill="#ffffff" d="
  M 76.14 243.73
  Q 77.51 240.49 76.83 235.84
  A 0.95 0.95 85.8 0 1 77.77 234.75
  L 90.70 234.75
  A 0.54 0.54 88.9 0 1 91.24 235.27
  C 91.49 240.86 91.62 246.42 85.97 249.44
  C 76.97 254.23 46.42 256.72 46.30 240.56
  Q 46.21 228.90 46.28 217.25
  C 46.37 202.24 73.61 204.15 82.50 206.75
  Q 92.25 209.60 91.19 220.59
  A 0.45 0.45 -87.2 0 1 90.74 221.00
  L 77.69 221.00
  A 0.82 0.82 -85.5 0 1 76.88 220.05
  C 78.31 210.86 69.28 210.69 63.42 213.19
  Q 61.57 213.98 61.48 216.00
  Q 60.89 229.12 61.48 242.23
  Q 61.56 244.00 63.18 244.70
  Q 69.64 247.50 75.50 244.43
  A 1.43 1.38 -3.7 0 0 76.14 243.73
  Z"
/>
<path fill="#ffffff" d="
  M 136.21 244.94
  L 159.84 245.00
  A 0.55 0.51 -90.0 0 1 160.35 245.55
  L 160.40 251.37
  A 0.63 0.56 90.0 0 1 159.84 252.00
  L 121.05 251.94
  A 0.50 0.49 90.0 0 1 120.56 251.44
  L 120.56 205.57
  A 0.52 0.50 -90.0 0 1 121.06 205.05
  L 134.93 205.05
  A 0.52 0.51 -90.0 0 1 135.44 205.57
  L 135.50 244.23
  A 0.71 0.71 0.0 0 0 136.21 244.94
  Z"
/>
<path fill="#ffffff" d="
  M 215.69 243.06
  L 198.56 243.00
  A 0.72 0.70 -80.9 0 0 197.89 243.50
  L 195.47 251.34
  A 0.72 0.67 -80.5 0 1 194.82 251.84
  L 182.06 251.96
  A 0.37 0.36 -80.7 0 1 181.72 251.47
  L 196.60 205.70
  A 1.02 1.01 -80.8 0 1 197.56 205.00
  L 218.41 205.00
  A 0.71 0.70 80.9 0 1 219.08 205.49
  L 234.09 251.51
  A 0.38 0.37 -9.0 0 1 233.73 252.00
  L 219.56 251.95
  A 0.72 0.66 80.6 0 1 218.93 251.46
  L 216.36 243.53
  A 0.71 0.67 -8.4 0 0 215.69 243.06
  Z
  M 200.07 236.57
  A 0.33 0.33 -81.4 0 0 200.39 237.00
  L 213.85 237.00
  A 0.33 0.33 81.4 0 0 214.17 236.57
  L 207.44 214.52
  A 0.33 0.33 -41.2 0 0 206.80 214.52
  L 200.07 236.57
  Z"
/>
<path fill="#ffffff" d="
  M 285.25 213.57
  Q 280.41 210.96 275.31 212.55
  C 268.39 214.72 272.57 220.49 276.56 222.70
  C 283.48 226.52 295.53 230.07 299.72 237.01
  C 304.60 245.09 296.21 250.83 288.87 252.10
  C 279.42 253.74 253.98 254.96 256.24 238.56
  A 0.59 0.57 -86.0 0 1 256.81 238.05
  L 269.72 238.05
  A 0.85 0.83 -85.8 0 1 270.54 239.02
  C 269.32 246.99 277.88 246.65 282.81 245.32
  C 289.18 243.61 284.78 237.60 281.32 235.63
  C 274.81 231.90 266.30 229.20 260.71 224.34
  C 251.88 216.68 258.04 208.68 266.96 206.41
  C 276.69 203.93 301.18 202.64 300.95 218.43
  A 0.53 0.52 -89.4 0 1 300.43 218.95
  L 287.31 218.95
  A 0.52 0.48 -90.0 0 1 286.83 218.43
  Q 286.85 216.23 285.91 214.25
  A 1.57 1.45 3.0 0 0 285.25 213.57
  Z"
/>
<path fill="#ffffff" d="
  M 340.76 244.42
  Q 345.53 246.80 350.58 245.66
  C 356.58 244.30 355.93 239.33 351.62 236.51
  C 344.82 232.07 325.60 226.27 325.66 216.94
  Q 325.70 209.84 332.44 207.44
  C 342.44 203.86 369.79 201.56 370.01 218.38
  A 0.61 0.61 89.5 0 1 369.40 219.00
  L 356.50 219.00
  A 0.79 0.79 -88.3 0 1 355.71 218.16
  C 356.44 205.71 328.04 213.83 346.81 223.45
  C 353.68 226.96 367.77 231.23 369.72 239.71
  C 372.88 253.50 348.31 253.70 340.59 252.57
  C 331.72 251.28 324.57 248.95 325.18 238.65
  A 0.69 0.68 1.3 0 1 325.87 238.00
  L 338.50 238.00
  A 1.06 1.05 -85.4 0 1 339.54 239.23
  Q 339.14 241.75 340.08 243.74
  A 1.50 1.38 2.4 0 0 340.76 244.42
  Z"
/>
<rect fill="#ffffff" x="396.50" y="205.00" width="15.00" height="47.00" rx="0.31"/>
<path fill="#ffffff" d="
  M 439.29 216.75
  C 439.34 202.12 467.74 204.41 475.69 206.81
  Q 485.14 209.66 484.19 220.49
  A 0.57 0.57 2.8 0 1 483.62 221.00
  L 470.47 221.00
  A 0.55 0.46 87.4 0 1 470.00 220.49
  L 469.59 215.03
  A 2.80 2.11 11.0 0 0 467.77 213.01
  Q 461.83 210.84 456.04 213.32
  A 2.59 2.57 79.6 0 0 454.49 215.58
  Q 453.93 228.28 454.44 241.31
  C 454.67 247.38 464.09 246.30 467.81 244.88
  Q 469.71 244.16 469.76 242.44
  L 469.97 235.33
  A 0.60 0.55 -88.9 0 1 470.52 234.75
  L 483.74 234.75
  A 0.51 0.51 88.8 0 1 484.25 235.24
  C 484.46 240.85 484.58 246.57 478.81 249.57
  C 470.44 253.92 439.49 256.92 439.35 240.75
  Q 439.25 228.75 439.29 216.75
  Z"
/>
<path fill="#ffffff" d="
  M 526.75 244.42
  Q 531.90 247.04 537.62 245.55
  C 542.49 244.28 541.46 239.05 537.81 236.77
  Q 530.24 232.03 522.08 228.40
  C 517.54 226.38 512.87 223.25 511.87 218.14
  C 508.62 201.56 546.24 202.51 553.29 210.48
  Q 555.94 213.47 556.01 218.38
  A 0.61 0.61 89.5 0 1 555.40 219.00
  L 542.47 219.00
  A 0.74 0.74 -89.2 0 1 541.73 218.24
  C 542.04 205.53 514.27 213.98 532.81 223.44
  C 539.66 226.93 553.75 231.27 555.71 239.68
  C 558.94 253.50 534.30 253.70 526.59 252.57
  C 517.72 251.28 510.57 248.95 511.18 238.65
  A 0.69 0.68 1.3 0 1 511.87 238.00
  L 524.50 238.00
  A 1.06 1.05 -85.4 0 1 525.54 239.23
  Q 525.14 241.75 526.08 243.74
  A 1.49 1.41 2.0 0 0 526.75 244.42
  Z"
/>
<path fill="#000000" d="
  M 200.07 236.57
  L 206.80 214.52
  A 0.33 0.33 -46.4 0 1 207.44 214.52
  L 214.17 236.57
  A 0.33 0.33 81.4 0 1 213.85 237.00
  L 200.39 237.00
  A 0.33 0.33 -81.6 0 1 200.07 236.57
  Z"
/>
</svg>
