<?xml version="1.0" encoding="UTF-8" standalone="no"?>
<!DOCTYPE svg PUBLIC "-//W3C//DTD SVG 1.1//EN" "http://www.w3.org/Graphics/SVG/1.1/DTD/svg11.dtd">
<svg xmlns="http://www.w3.org/2000/svg" version="1.1" viewBox="0 0 600 300">
<path fill="#000000" d="
  M 382.80 32.56
  C 399.06 14.99 422.08 9.97 445.30 13.70
  C 477.12 18.82 496.05 44.56 498.44 75.75
  C 498.88 81.52 498.01 86.36 496.86 92.72
  C 489.46 133.61 452.63 154.51 412.86 144.49
  C 364.23 132.24 350.18 67.83 382.80 32.56
  Z
  M 427.58 19.64
  C 395.58 25.00 397.05 78.33 399.92 100.76
  C 402.03 117.30 409.17 137.18 428.52 139.35
  C 469.70 143.96 466.37 77.05 462.92 53.56
  C 460.20 35.10 449.33 16.00 427.58 19.64
  Z"
/>
<path fill="#000000" d="
  M 128.06 41.52
  Q 128.36 75.92 128.27 110.49
  C 128.24 125.97 127.84 136.16 146.08 136.79
  A 1.17 0.98 0.9 0 1 147.21 137.77
  L 147.24 140.91
  A 0.90 0.83 -0.3 0 1 146.34 141.75
  L 104.06 141.69
  A 0.65 0.63 -6.8 0 1 103.43 141.21
  Q 102.95 139.23 103.38 137.24
  A 0.69 0.68 3.9 0 1 104.00 136.71
  C 120.50 135.46 121.49 128.01 121.50 113.48
  Q 121.54 73.28 121.44 33.07
  A 1.32 1.17 -69.5 0 0 121.10 32.19
  L 109.87 20.65
  Q 108.41 19.14 106.25 19.44
  Q 104.19 19.72 104.98 15.56
  A 0.99 0.99 -84.7 0 1 105.95 14.75
  L 143.98 14.75
  A 1.08 1.06 -19.0 0 1 144.82 15.15
  L 208.96 93.52
  Q 209.75 94.48 209.75 93.24
  Q 209.75 64.25 209.70 37.00
  Q 209.67 19.92 192.52 20.25
  A 0.79 0.78 -83.0 0 1 191.75 19.26
  Q 192.22 17.50 191.82 16.01
  A 1.00 1.00 82.4 0 1 192.78 14.75
  L 232.70 14.81
  A 0.63 0.49 0.0 0 1 233.33 15.30
  L 233.30 19.37
  A 1.20 1.03 -4.1 0 1 232.25 20.41
  C 218.28 22.12 217.24 28.79 217.25 41.15
  Q 217.29 92.67 217.19 144.19
  A 0.64 0.62 83.8 0 1 216.71 144.81
  Q 214.38 145.34 212.05 144.81
  A 1.48 1.39 75.7 0 1 211.25 144.30
  L 128.68 41.30
  Q 128.05 40.52 128.06 41.52
  Z"
/>
<path fill="#000000" d="
  M 286.06 73.46
  C 306.62 74.39 313.19 63.22 315.26 44.80
  A 0.70 0.50 -85.4 0 1 315.79 44.17
  L 319.67 44.22
  A 0.96 0.84 -89.7 0 1 320.50 45.18
  L 320.50 109.56
  A 0.69 0.67 -90.0 0 1 319.83 110.25
  L 316.18 110.22
  A 1.12 1.07 87.3 0 1 315.12 109.21
  C 314.10 99.35 309.65 85.84 299.00 82.75
  Q 294.76 81.52 286.05 81.32
  A 0.50 0.48 -89.4 0 0 285.56 81.82
  Q 285.30 103.09 285.68 124.35
  C 285.80 131.34 287.80 135.39 295.25 135.50
  Q 305.76 135.66 313.04 134.88
  C 332.90 132.76 342.69 120.74 348.66 102.79
  A 0.85 0.60 -78.4 0 1 349.29 102.20
  L 354.10 102.12
  A 0.58 0.52 -85.7 0 1 354.61 102.78
  L 348.26 141.95
  A 0.96 0.95 4.6 0 1 347.31 142.75
  L 239.28 142.75
  A 1.01 0.98 -0.0 0 1 238.27 141.77
  L 238.29 137.32
  A 0.51 0.50 0.6 0 1 238.81 136.82
  C 247.54 136.84 255.18 135.45 255.27 124.75
  Q 255.66 81.09 255.27 37.44
  Q 255.27 37.39 255.38 33.55
  Q 255.77 19.45 239.84 20.03
  A 1.49 1.44 -1.1 0 1 238.29 18.59
  L 238.28 15.31
  A 0.53 0.50 -0.0 0 1 238.81 14.81
  L 345.75 14.75
  A 0.50 0.50 0.0 0 1 346.25 15.25
  L 346.25 51.74
  A 0.80 0.73 79.5 0 1 345.80 52.46
  Q 344.02 53.19 342.26 52.41
  A 0.99 0.87 -85.3 0 1 341.73 51.69
  C 337.07 24.23 320.18 21.89 296.37 22.19
  C 289.35 22.28 285.51 21.82 285.50 29.83
  Q 285.46 51.39 285.56 72.95
  A 0.52 0.51 1.2 0 0 286.06 73.46
  Z"
/>
<path fill="#000000" d="
  M 218.70 152.53
  Q 219.24 152.36 219.76 152.57
  A 0.84 0.67 -81.5 0 1 220.19 153.31
  L 220.25 197.31
  A 0.74 0.69 -0.9 0 1 219.53 198.00
  L 215.14 198.10
  A 0.91 0.87 -10.8 0 1 214.27 197.54
  C 209.42 184.50 196.06 163.11 180.98 160.87
  C 134.18 153.90 131.86 214.83 137.30 244.24
  C 141.73 268.17 154.06 283.21 181.48 279.59
  Q 187.98 278.73 191.19 274.44
  C 194.31 270.27 192.69 244.72 192.50 242.75
  C 191.72 234.79 182.39 233.76 175.31 233.92
  A 0.64 0.47 -1.1 0 1 174.65 233.46
  L 174.68 230.17
  A 0.78 0.67 -0.0 0 1 175.46 229.50
  L 236.94 229.56
  A 0.66 0.45 0.8 0 1 237.61 230.03
  L 237.46 233.24
  A 1.23 1.05 0.7 0 1 236.25 234.25
  C 229.44 234.30 222.42 235.87 222.20 244.26
  Q 221.83 258.86 222.02 275.11
  A 1.99 1.99 77.3 0 1 220.86 276.95
  C 197.65 287.56 163.01 293.03 139.14 280.55
  Q 105.83 263.14 103.16 227.25
  C 101.17 200.46 112.73 176.23 135.52 162.10
  C 152.76 151.42 175.90 149.62 194.75 157.25
  Q 200.53 159.59 206.42 161.61
  C 214.41 164.35 215.85 152.44 217.77 152.63
  Q 218.27 152.68 218.70 152.53
  Z"
/>
<path fill="#000000" d="
  M 387.69 272.56
  C 356.67 244.77 357.86 192.89 390.31 166.81
  C 404.79 155.18 422.37 153.01 440.42 154.34
  C 472.16 156.69 493.43 180.47 497.69 211.31
  C 502.77 248.18 477.86 284.83 439.49 287.71
  C 420.66 289.13 402.09 285.47 387.69 272.56
  Z
  M 415.18 275.32
  C 424.34 282.65 439.00 282.66 448.03 275.74
  C 462.17 264.90 464.30 241.21 464.78 225.07
  C 465.43 203.01 463.23 156.90 429.02 160.67
  C 393.85 164.54 396.87 224.69 401.07 247.74
  C 402.84 257.46 407.20 268.93 415.18 275.32
  Z"
/>
<path fill="#000000" d="
  M 289.06 214.72
  C 298.89 215.23 307.64 214.03 312.94 204.69
  Q 317.35 196.91 318.27 186.30
  A 0.82 0.75 84.2 0 1 318.77 185.62
  Q 319.71 185.28 320.76 185.41
  Q 321.25 185.48 321.73 185.36
  C 324.22 184.77 323.50 187.12 323.50 188.54
  Q 323.54 219.74 323.44 250.94
  A 0.68 0.66 82.0 0 1 322.97 251.59
  Q 320.82 252.22 318.77 251.39
  A 0.86 0.79 -83.0 0 1 318.27 250.69
  C 317.38 241.59 312.71 227.39 302.96 224.63
  Q 296.20 222.71 289.19 222.92
  A 0.53 0.52 -90.0 0 0 288.68 223.44
  Q 287.90 258.84 288.75 269.00
  C 289.60 279.16 304.46 277.41 312.76 276.96
  C 333.93 275.84 345.58 263.24 351.74 243.99
  A 0.72 0.71 9.0 0 1 352.42 243.50
  L 356.89 243.50
  A 0.88 0.88 4.7 0 1 357.76 244.52
  L 351.38 283.49
  A 0.83 0.82 -85.5 0 1 350.57 284.19
  L 242.02 284.25
  A 0.73 0.69 -0.0 0 1 241.29 283.56
  L 241.28 278.90
  A 0.68 0.66 0.4 0 1 241.98 278.23
  C 259.44 278.56 258.48 269.97 258.50 256.00
  Q 258.56 204.14 258.28 173.60
  C 258.19 163.61 251.39 160.71 242.43 161.55
  A 1.08 1.08 -2.7 0 1 241.25 160.48
  L 241.25 156.70
  A 0.51 0.51 0.0 0 1 241.76 156.19
  Q 293.53 156.30 345.00 156.41
  Q 346.90 156.41 348.41 156.08
  A 0.69 0.69 -6.4 0 1 349.25 156.75
  L 349.25 193.26
  A 0.65 0.63 83.2 0 1 348.77 193.89
  Q 347.12 194.31 345.48 193.89
  A 0.82 0.76 -89.3 0 1 344.91 193.26
  C 339.78 167.43 326.24 163.54 302.42 163.47
  C 289.63 163.44 288.51 163.47 288.49 176.25
  Q 288.46 195.22 288.56 214.20
  A 0.53 0.52 1.8 0 0 289.06 214.72
  Z"
/>
</svg>
