<?xml version="1.0" encoding="UTF-8" standalone="no"?>
<!DOCTYPE svg PUBLIC "-//W3C//DTD SVG 1.1//EN" "http://www.w3.org/Graphics/SVG/1.1/DTD/svg11.dtd">
<svg xmlns="http://www.w3.org/2000/svg" version="1.1" viewBox="0 0 600 143">
<g stroke-width="2.00" fill="none" stroke-linecap="butt">
<path stroke="#808000" vector-effect="non-scaling-stroke" d="
  M 134.29 73.17
  A 63.85 63.85 0.0 0 0 70.44 9.32
  A 63.85 63.85 0.0 0 0 6.59 73.17
  A 63.85 63.85 0.0 0 0 70.44 137.02
  A 63.85 63.85 0.0 0 0 134.29 73.17"
/>
<path stroke="#808000" vector-effect="non-scaling-stroke" d="
  M 35.70 32.59
  L 30.64 27.07
  Q 29.68 26.02 29.68 27.41
  Q 29.79 57.82 29.76 87.70
  Q 29.75 94.92 31.03 99.15
  C 35.10 112.68 46.36 123.93 59.50 128.68
  C 82.51 137.01 104.05 117.74 107.47 96.22
  Q 107.97 93.08 108.08 76.25
  Q 108.25 51.72 108.07 27.20
  Q 108.06 26.61 107.64 26.98
  L 101.60 32.31
  A 2.75 1.80 -56.8 0 1 100.02 33.00
  L 36.56 32.94
  A 1.24 1.04 -17.9 0 1 35.70 32.59"
/>
<path stroke="#808080" vector-effect="non-scaling-stroke" d="
  M 68.05 81.19
  L 67.99 74.00
  A 1.61 1.37 -66.9 0 0 67.71 73.10
  L 63.44 67.45
  A 0.63 0.63 -42.3 0 1 63.48 66.64
  C 65.59 64.36 68.27 61.84 68.45 58.53
  C 68.70 53.93 69.03 49.19 66.88 45.11
  C 61.07 34.06 43.82 32.10 35.78 41.77
  C 31.11 47.40 31.15 57.62 33.81 63.94
  Q 40.80 80.50 58.19 87.05
  C 77.35 94.26 102.53 79.88 105.60 59.73
  C 106.78 52.00 105.77 38.84 96.50 36.25
  Q 79.82 31.59 72.17 45.58
  C 69.96 49.61 70.30 53.77 70.54 58.26
  C 70.72 61.56 73.31 64.08 75.15 66.66
  A 0.73 0.70 44.8 0 1 75.17 67.47
  L 71.54 72.84
  A 1.73 1.51 -31.3 0 0 71.25 73.75
  Q 71.22 76.62 71.24 79.49
  C 71.26 81.52 70.85 82.48 68.54 81.85
  A 0.69 0.68 -82.2 0 1 68.05 81.19"
/>
<path stroke="#808080" vector-effect="non-scaling-stroke" d="
  M 36.66 92.65
  Q 35.20 92.67 36.23 93.69
  L 42.20 99.58
  A 0.79 0.79 -46.0 0 0 43.34 99.56
  L 49.09 93.43
  Q 49.98 92.47 48.65 92.49
  L 36.66 92.65"
/>
<path stroke="#808080" vector-effect="non-scaling-stroke" d="
  M 54.39 93.28
  L 60.66 99.64
  A 0.55 0.49 45.8 0 0 61.39 99.69
  L 67.88 93.19
  Q 68.25 92.82 67.69 92.81
  L 54.70 92.58
  Q 53.68 92.56 54.39 93.28"
/>
<path stroke="#808080" vector-effect="non-scaling-stroke" d="
  M 78.08 99.47
  A 0.86 0.79 -46.0 0 0 79.25 99.40
  L 85.32 93.05
  Q 85.79 92.56 85.13 92.56
  L 72.27 92.50
  Q 70.84 92.49 71.85 93.47
  L 78.08 99.47"
/>
<path stroke="#808080" vector-effect="non-scaling-stroke" d="
  M 103.80 93.33
  A 0.34 0.34 24.6 0 0 103.55 92.75
  L 90.45 92.75
  A 0.34 0.34 68.2 0 0 90.20 93.33
  L 96.76 99.89
  A 0.34 0.34 44.7 0 0 97.24 99.89
  L 103.80 93.33"
/>
<path stroke="#808080" vector-effect="non-scaling-stroke" d="
  M 52.26 109.59
  L 58.49 103.26
  Q 58.99 102.75 58.27 102.75
  L 44.99 102.75
  Q 44.13 102.75 44.74 103.36
  L 50.96 109.58
  A 0.93 0.91 44.8 0 0 52.26 109.59"
/>
<path stroke="#808080" vector-effect="non-scaling-stroke" d="
  M 76.04 103.56
  A 0.34 0.34 -66.4 0 0 75.80 102.98
  L 62.69 103.03
  A 0.34 0.34 -36.2 0 0 62.45 103.61
  L 69.03 110.13
  A 0.34 0.34 44.9 0 0 69.51 110.13
  L 76.04 103.56"
/>
<path stroke="#808080" vector-effect="non-scaling-stroke" d="
  M 80.59 102.91
  Q 79.82 102.92 80.36 103.47
  L 86.74 110.07
  A 0.52 0.50 47.9 0 0 87.44 110.12
  Q 91.09 107.06 93.89 103.22
  Q 94.17 102.84 93.68 102.84
  L 80.59 102.91"
/>
<path stroke="#808080" vector-effect="non-scaling-stroke" d="
  M 60.51 117.81
  L 66.65 111.39
  Q 67.26 110.75 66.35 110.75
  L 54.09 110.75
  Q 52.67 110.75 53.67 111.80
  L 59.38 117.74
  A 0.83 0.73 45.1 0 0 60.51 117.81"
/>
<path stroke="#808080" vector-effect="non-scaling-stroke" d="
  M 73.16 111.16
  Q 71.61 111.15 72.73 112.29
  L 78.41 118.08
  A 0.98 0.95 44.6 0 0 79.78 118.09
  L 85.36 112.26
  Q 86.32 111.26 84.95 111.25
  L 73.16 111.16"
/>
<path stroke="#808080" vector-effect="non-scaling-stroke" d="
  M 76.60 120.01
  A 0.45 0.45 -68.8 0 0 76.28 119.24
  L 63.45 119.26
  A 0.45 0.45 -26.1 0 0 63.14 120.03
  L 69.56 126.43
  A 0.45 0.45 -44.9 0 0 70.20 126.43
  L 76.60 120.01"
/>
<path stroke="#808080" vector-effect="non-scaling-stroke" d="
  M 101.96 54.38
  A 13.59 13.59 0.0 0 0 88.37 40.79
  A 13.59 13.59 0.0 0 0 74.78 54.38
  A 13.59 13.59 0.0 0 0 88.37 67.97
  A 13.59 13.59 0.0 0 0 101.96 54.38"
/>
<path stroke="#808080" vector-effect="non-scaling-stroke" d="
  M 63.37 54.56
  A 13.59 13.59 0.0 0 0 49.78 40.97
  A 13.59 13.59 0.0 0 0 36.19 54.56
  A 13.59 13.59 0.0 0 0 49.78 68.15
  A 13.59 13.59 0.0 0 0 63.37 54.56"
/>
<path stroke="#808080" vector-effect="non-scaling-stroke" d="
  M 99.61 54.37
  A 11.24 11.24 0.0 0 0 88.37 43.13
  A 11.24 11.24 0.0 0 0 77.13 54.37
  A 11.24 11.24 0.0 0 0 88.37 65.61
  A 11.24 11.24 0.0 0 0 99.61 54.37"
/>
<path stroke="#808080" vector-effect="non-scaling-stroke" d="
  M 61.01 54.55
  A 11.24 11.24 0.0 0 0 49.77 43.31
  A 11.24 11.24 0.0 0 0 38.53 54.55
  A 11.24 11.24 0.0 0 0 49.77 65.79
  A 11.24 11.24 0.0 0 0 61.01 54.55"
/>
<path stroke="#808080" vector-effect="non-scaling-stroke" d="
  M 58.12 54.36
  A 8.51 8.51 0.0 0 0 49.61 45.85
  A 8.51 8.51 0.0 0 0 41.10 54.36
  A 8.51 8.51 0.0 0 0 49.61 62.87
  A 8.51 8.51 0.0 0 0 58.12 54.36"
/>
<path stroke="#808080" vector-effect="non-scaling-stroke" d="
  M 96.87 54.01
  A 8.51 8.51 0.0 0 0 88.36 45.50
  A 8.51 8.51 0.0 0 0 79.85 54.01
  A 8.51 8.51 0.0 0 0 88.36 62.52
  A 8.51 8.51 0.0 0 0 96.87 54.01"
/>
</g>
<path fill="#000000" d="
  M 18.94 32.30
  C 54.53 -12.27 127.46 6.14 135.55 63.79
  C 141.10 103.30 112.14 136.07 73.34 139.47
  C 68.13 139.93 63.88 139.03 57.93 137.81
  C 10.23 128.03 -12.37 71.52 18.94 32.30
  Z
  M 134.29 73.17
  A 63.85 63.85 0.0 0 0 70.44 9.32
  A 63.85 63.85 0.0 0 0 6.59 73.17
  A 63.85 63.85 0.0 0 0 70.44 137.02
  A 63.85 63.85 0.0 0 0 134.29 73.17
  Z"
/>
<path fill="#ffff00" d="
  M 134.29 73.17
  A 63.85 63.85 0.0 0 1 70.44 137.02
  A 63.85 63.85 0.0 0 1 6.59 73.17
  A 63.85 63.85 0.0 0 1 70.44 9.32
  A 63.85 63.85 0.0 0 1 134.29 73.17
  Z
  M 35.70 32.59
  L 30.64 27.07
  Q 29.68 26.02 29.68 27.41
  Q 29.79 57.82 29.76 87.70
  Q 29.75 94.92 31.03 99.15
  C 35.10 112.68 46.36 123.93 59.50 128.68
  C 82.51 137.01 104.05 117.74 107.47 96.22
  Q 107.97 93.08 108.08 76.25
  Q 108.25 51.72 108.07 27.20
  Q 108.06 26.61 107.64 26.98
  L 101.60 32.31
  A 2.75 1.80 -56.8 0 1 100.02 33.00
  L 36.56 32.94
  A 1.24 1.04 -17.9 0 1 35.70 32.59
  Z"
/>
<path fill="#000000" d="
  M 36.56 32.94
  L 100.02 33.00
  A 2.75 1.80 -56.8 0 0 101.60 32.31
  L 107.64 26.98
  Q 108.06 26.61 108.07 27.20
  Q 108.25 51.72 108.08 76.25
  Q 107.97 93.08 107.47 96.22
  C 104.05 117.74 82.51 137.01 59.50 128.68
  C 46.36 123.93 35.10 112.68 31.03 99.15
  Q 29.75 94.92 29.76 87.70
  Q 29.79 57.82 29.68 27.41
  Q 29.68 26.02 30.64 27.07
  L 35.70 32.59
  A 1.24 1.04 -17.9 0 0 36.56 32.94
  Z
  M 68.05 81.19
  L 67.99 74.00
  A 1.61 1.37 -66.9 0 0 67.71 73.10
  L 63.44 67.45
  A 0.63 0.63 -42.3 0 1 63.48 66.64
  C 65.59 64.36 68.27 61.84 68.45 58.53
  C 68.70 53.93 69.03 49.19 66.88 45.11
  C 61.07 34.06 43.82 32.10 35.78 41.77
  C 31.11 47.40 31.15 57.62 33.81 63.94
  Q 40.80 80.50 58.19 87.05
  C 77.35 94.26 102.53 79.88 105.60 59.73
  C 106.78 52.00 105.77 38.84 96.50 36.25
  Q 79.82 31.59 72.17 45.58
  C 69.96 49.61 70.30 53.77 70.54 58.26
  C 70.72 61.56 73.31 64.08 75.15 66.66
  A 0.73 0.70 44.8 0 1 75.17 67.47
  L 71.54 72.84
  A 1.73 1.51 -31.3 0 0 71.25 73.75
  Q 71.22 76.62 71.24 79.49
  C 71.26 81.52 70.85 82.48 68.54 81.85
  A 0.69 0.68 -82.2 0 1 68.05 81.19
  Z
  M 36.66 92.65
  Q 35.20 92.67 36.23 93.69
  L 42.20 99.58
  A 0.79 0.79 -46.0 0 0 43.34 99.56
  L 49.09 93.43
  Q 49.98 92.47 48.65 92.49
  L 36.66 92.65
  Z
  M 54.39 93.28
  L 60.66 99.64
  A 0.55 0.49 45.8 0 0 61.39 99.69
  L 67.88 93.19
  Q 68.25 92.82 67.69 92.81
  L 54.70 92.58
  Q 53.68 92.56 54.39 93.28
  Z
  M 78.08 99.47
  A 0.86 0.79 -46.0 0 0 79.25 99.40
  L 85.32 93.05
  Q 85.79 92.56 85.13 92.56
  L 72.27 92.50
  Q 70.84 92.49 71.85 93.47
  L 78.08 99.47
  Z
  M 103.80 93.33
  A 0.34 0.34 24.6 0 0 103.55 92.75
  L 90.45 92.75
  A 0.34 0.34 68.2 0 0 90.20 93.33
  L 96.76 99.89
  A 0.34 0.34 44.7 0 0 97.24 99.89
  L 103.80 93.33
  Z
  M 52.26 109.59
  L 58.49 103.26
  Q 58.99 102.75 58.27 102.75
  L 44.99 102.75
  Q 44.13 102.75 44.74 103.36
  L 50.96 109.58
  A 0.93 0.91 44.8 0 0 52.26 109.59
  Z
  M 76.04 103.56
  A 0.34 0.34 -66.4 0 0 75.80 102.98
  L 62.69 103.03
  A 0.34 0.34 -36.2 0 0 62.45 103.61
  L 69.03 110.13
  A 0.34 0.34 44.9 0 0 69.51 110.13
  L 76.04 103.56
  Z
  M 80.59 102.91
  Q 79.82 102.92 80.36 103.47
  L 86.74 110.07
  A 0.52 0.50 47.9 0 0 87.44 110.12
  Q 91.09 107.06 93.89 103.22
  Q 94.17 102.84 93.68 102.84
  L 80.59 102.91
  Z
  M 60.51 117.81
  L 66.65 111.39
  Q 67.26 110.75 66.35 110.75
  L 54.09 110.75
  Q 52.67 110.75 53.67 111.80
  L 59.38 117.74
  A 0.83 0.73 45.1 0 0 60.51 117.81
  Z
  M 73.16 111.16
  Q 71.61 111.15 72.73 112.29
  L 78.41 118.08
  A 0.98 0.95 44.6 0 0 79.78 118.09
  L 85.36 112.26
  Q 86.32 111.26 84.95 111.25
  L 73.16 111.16
  Z
  M 76.60 120.01
  A 0.45 0.45 -68.8 0 0 76.28 119.24
  L 63.45 119.26
  A 0.45 0.45 -26.1 0 0 63.14 120.03
  L 69.56 126.43
  A 0.45 0.45 -44.9 0 0 70.20 126.43
  L 76.60 120.01
  Z"
/>
<path fill="#000000" d="
  M 167.62 44.80
  Q 167.71 45.91 167.75 48.75
  Q 168.01 66.25 168.00 84.55
  A 0.95 0.95 -89.5 0 1 167.05 85.50
  L 154.76 85.50
  A 0.70 0.69 90.0 0 1 154.07 84.80
  L 154.06 29.47
  A 0.91 0.89 89.7 0 1 154.94 28.56
  L 175.85 28.50
  A 1.05 1.05 77.8 0 1 176.81 29.12
  L 193.44 66.83
  Q 194.68 69.63 194.66 66.57
  L 194.50 29.23
  A 0.73 0.73 -89.2 0 1 195.23 28.50
  L 207.26 28.50
  A 0.99 0.99 0.6 0 1 208.25 29.49
  L 208.25 84.68
  A 0.82 0.82 0.0 0 1 207.43 85.50
  L 187.37 85.50
  A 1.47 1.47 77.9 0 1 186.03 84.63
  Q 177.29 65.04 169.00 46.00
  Q 168.55 44.97 168.00 44.55
  Q 167.57 44.22 167.62 44.80
  Z"
/>
<rect fill="#000000" x="-7.52" y="-5.37" transform="translate(225.73,33.88) rotate(-0.2)" width="15.04" height="10.74" rx="0.62"/>
<path fill="#000000" d="
  M 305.31 50.60
  Q 305.31 51.22 305.74 50.76
  C 314.24 41.63 332.50 43.74 332.50 58.50
  Q 332.50 71.50 332.50 84.98
  A 0.52 0.52 -90.0 0 1 331.98 85.50
  L 318.73 85.50
  A 0.92 0.92 -89.7 0 1 317.81 84.57
  C 317.84 79.30 318.91 58.72 315.90 56.00
  C 313.06 53.43 308.44 54.36 306.64 57.47
  Q 305.57 59.30 305.55 63.36
  Q 305.49 74.12 305.44 84.70
  A 0.80 0.80 1.3 0 1 304.64 85.50
  L 291.39 85.50
  A 0.64 0.63 -0.0 0 1 290.75 84.87
  L 290.93 29.19
  A 0.53 0.52 89.4 0 1 291.44 28.66
  L 304.39 28.53
  A 0.90 0.86 89.3 0 1 305.26 29.42
  L 305.31 50.60
  Z"
/>
<rect fill="#000000" x="-7.50" y="-5.37" transform="translate(350.00,33.88) rotate(0.1)" width="15.00" height="10.74" rx="0.64"/>
<path fill="#000000" d="
  M 381.19 81.13
  Q 380.68 81.96 381.25 83.00
  Q 382.61 85.50 378.75 85.50
  L 367.03 85.50
  A 0.58 0.57 -87.3 0 1 366.46 84.87
  C 368.28 66.77 367.30 47.93 367.18 29.46
  A 0.96 0.95 -0.3 0 1 368.14 28.50
  L 381.18 28.50
  A 0.57 0.57 -90.0 0 1 381.75 29.07
  L 381.75 49.41
  Q 381.75 50.57 382.51 49.70
  C 389.28 42.05 403.09 43.67 408.20 52.60
  C 412.69 60.43 412.22 73.90 406.69 81.19
  C 400.82 88.91 388.26 87.71 381.84 81.11
  A 0.44 0.39 39.6 0 0 381.19 81.13
  Z
  M 386.22 54.15
  C 380.48 57.62 380.67 67.44 382.69 72.81
  C 384.66 78.07 390.94 79.68 393.89 74.48
  C 396.44 69.98 396.09 63.43 394.82 58.83
  C 393.73 54.91 390.18 51.76 386.22 54.15
  Z"
/>
<path fill="#000000" d="
  M 489.81 45.70
  L 497.33 45.75
  A 1.14 1.06 0.8 0 1 498.46 46.83
  L 498.35 54.57
  A 0.56 0.51 -1.2 0 1 497.81 55.08
  L 489.69 55.42
  A 0.54 0.54 -4.5 0 0 489.17 55.94
  C 488.95 61.28 489.13 66.60 488.91 71.94
  C 488.69 77.52 494.19 76.50 497.84 76.50
  A 0.66 0.66 0.2 0 1 498.50 77.16
  L 498.50 84.31
  A 1.27 1.26 85.8 0 1 497.43 85.56
  C 487.13 87.18 474.07 87.75 474.51 72.99
  Q 474.75 65.12 474.75 55.88
  A 0.80 0.74 0.4 0 0 473.96 55.14
  L 468.00 55.08
  A 0.58 0.51 -89.5 0 1 467.50 54.50
  L 467.50 46.29
  A 0.56 0.54 0.0 0 1 468.06 45.75
  L 473.18 45.74
  Q 475.61 45.73 475.01 43.32
  C 474.07 39.51 474.95 39.69 478.12 38.31
  Q 483.37 36.02 488.72 33.99
  A 0.35 0.34 78.9 0 1 489.19 34.31
  L 489.31 45.19
  A 0.51 0.50 90.0 0 0 489.81 45.70
  Z"
/>
<path fill="#ffffff" d="
  M 68.54 81.85
  C 70.85 82.48 71.26 81.52 71.24 79.49
  Q 71.22 76.62 71.25 73.75
  A 1.73 1.51 -31.3 0 1 71.54 72.84
  L 75.17 67.47
  A 0.73 0.70 44.8 0 0 75.15 66.66
  C 73.31 64.08 70.72 61.56 70.54 58.26
  C 70.30 53.77 69.96 49.61 72.17 45.58
  Q 79.82 31.59 96.50 36.25
  C 105.77 38.84 106.78 52.00 105.60 59.73
  C 102.53 79.88 77.35 94.26 58.19 87.05
  Q 40.80 80.50 33.81 63.94
  C 31.15 57.62 31.11 47.40 35.78 41.77
  C 43.82 32.10 61.07 34.06 66.88 45.11
  C 69.03 49.19 68.70 53.93 68.45 58.53
  C 68.27 61.84 65.59 64.36 63.48 66.64
  A 0.63 0.63 -42.3 0 0 63.44 67.45
  L 67.71 73.10
  A 1.61 1.37 -66.9 0 1 67.99 74.00
  L 68.05 81.19
  A 0.69 0.68 -82.2 0 0 68.54 81.85
  Z
  M 101.96 54.38
  A 13.59 13.59 0.0 0 0 88.37 40.79
  A 13.59 13.59 0.0 0 0 74.78 54.38
  A 13.59 13.59 0.0 0 0 88.37 67.97
  A 13.59 13.59 0.0 0 0 101.96 54.38
  Z
  M 63.37 54.56
  A 13.59 13.59 0.0 0 0 49.78 40.97
  A 13.59 13.59 0.0 0 0 36.19 54.56
  A 13.59 13.59 0.0 0 0 49.78 68.15
  A 13.59 13.59 0.0 0 0 63.37 54.56
  Z"
/>
<path fill="#000000" d="
  M 101.96 54.38
  A 13.59 13.59 0.0 0 1 88.37 67.97
  A 13.59 13.59 0.0 0 1 74.78 54.38
  A 13.59 13.59 0.0 0 1 88.37 40.79
  A 13.59 13.59 0.0 0 1 101.96 54.38
  Z
  M 99.61 54.37
  A 11.24 11.24 0.0 0 0 88.37 43.13
  A 11.24 11.24 0.0 0 0 77.13 54.37
  A 11.24 11.24 0.0 0 0 88.37 65.61
  A 11.24 11.24 0.0 0 0 99.61 54.37
  Z"
/>
<path fill="#000000" d="
  M 63.37 54.56
  A 13.59 13.59 0.0 0 1 49.78 68.15
  A 13.59 13.59 0.0 0 1 36.19 54.56
  A 13.59 13.59 0.0 0 1 49.78 40.97
  A 13.59 13.59 0.0 0 1 63.37 54.56
  Z
  M 61.01 54.55
  A 11.24 11.24 0.0 0 0 49.77 43.31
  A 11.24 11.24 0.0 0 0 38.53 54.55
  A 11.24 11.24 0.0 0 0 49.77 65.79
  A 11.24 11.24 0.0 0 0 61.01 54.55
  Z"
/>
<path fill="#ffffff" d="
  M 61.01 54.55
  A 11.24 11.24 0.0 0 1 49.77 65.79
  A 11.24 11.24 0.0 0 1 38.53 54.55
  A 11.24 11.24 0.0 0 1 49.77 43.31
  A 11.24 11.24 0.0 0 1 61.01 54.55
  Z
  M 58.12 54.36
  A 8.51 8.51 0.0 0 0 49.61 45.85
  A 8.51 8.51 0.0 0 0 41.10 54.36
  A 8.51 8.51 0.0 0 0 49.61 62.87
  A 8.51 8.51 0.0 0 0 58.12 54.36
  Z"
/>
<path fill="#ffffff" d="
  M 99.61 54.37
  A 11.24 11.24 0.0 0 1 88.37 65.61
  A 11.24 11.24 0.0 0 1 77.13 54.37
  A 11.24 11.24 0.0 0 1 88.37 43.13
  A 11.24 11.24 0.0 0 1 99.61 54.37
  Z
  M 96.87 54.01
  A 8.51 8.51 0.0 0 0 88.36 45.50
  A 8.51 8.51 0.0 0 0 79.85 54.01
  A 8.51 8.51 0.0 0 0 88.36 62.52
  A 8.51 8.51 0.0 0 0 96.87 54.01
  Z"
/>
<path fill="#000000" d="
  M 260.79 53.54
  C 254.86 55.54 256.06 67.76 256.94 72.56
  C 258.44 80.81 268.20 79.18 267.84 71.06
  A 0.52 0.48 88.3 0 1 268.31 70.52
  L 281.71 70.29
  A 1.18 1.12 -83.9 0 1 282.81 71.72
  Q 280.08 84.08 267.75 86.00
  C 248.81 88.94 237.72 76.71 242.06 58.31
  C 246.31 40.32 281.28 39.91 282.29 59.06
  A 0.50 0.49 87.8 0 1 281.81 59.59
  L 268.70 59.73
  A 0.66 0.64 82.1 0 1 268.06 59.23
  Q 266.16 51.73 260.79 53.54
  Z"
/>
<path fill="#000000" d="
  M 527.04 75.60
  Q 527.59 73.41 525.60 72.34
  C 518.10 68.31 500.08 67.46 504.31 54.06
  C 507.82 42.98 529.79 42.40 536.76 49.37
  Q 539.68 52.30 540.11 57.27
  A 0.62 0.60 87.4 0 1 539.51 57.94
  L 527.35 57.99
  A 0.78 0.77 -89.3 0 1 526.57 57.18
  C 526.72 52.65 521.03 50.58 518.22 53.62
  Q 515.90 56.14 518.88 57.83
  C 526.48 62.16 541.07 61.43 541.11 72.83
  Q 541.14 83.08 530.51 85.54
  C 520.32 87.90 504.80 87.77 503.16 74.29
  A 1.38 1.38 86.7 0 1 504.53 72.75
  L 516.74 72.75
  A 0.69 0.68 -3.3 0 1 517.42 73.35
  C 518.18 79.69 525.89 80.15 527.04 75.60
  Z"
/>
<circle fill="#000000" cx="88.36" cy="54.01" r="8.51"/>
<circle fill="#000000" cx="49.61" cy="54.36" r="8.51"/>
<rect fill="#000000" x="218.48" y="45.76" width="14.52" height="39.74" rx="0.34"/>
<rect fill="#000000" x="342.75" y="45.76" width="14.50" height="39.74" rx="0.43"/>
<path fill="#000000" d="
  M 446.61 80.68
  C 439.96 87.94 425.35 89.25 420.84 79.22
  Q 419.50 76.24 419.51 68.09
  Q 419.52 57.45 419.43 46.39
  A 0.64 0.63 90.0 0 1 420.06 45.75
  L 433.02 45.75
  A 1.02 1.02 -89.2 0 1 434.04 46.80
  Q 433.68 60.52 434.50 72.77
  Q 434.70 75.79 437.62 76.60
  C 444.79 78.60 446.42 73.34 446.47 67.45
  Q 446.54 57.20 446.50 46.81
  A 1.04 1.00 -89.7 0 1 447.51 45.77
  L 460.57 45.91
  A 0.53 0.51 90.0 0 1 461.07 46.43
  L 461.52 84.75
  A 0.74 0.74 89.6 0 1 460.78 85.50
  L 447.68 85.50
  A 0.71 0.69 90.0 0 1 446.99 84.79
  L 446.96 80.81
  Q 446.96 80.30 446.61 80.68
  Z"
/>
<path fill="#000000" d="
  M 576.61 80.78
  A 0.43 0.43 -34.7 0 0 575.89 80.65
  Q 570.16 87.12 562.42 86.55
  C 550.80 85.70 549.25 78.10 549.25 67.63
  C 549.25 61.11 549.79 53.86 549.08 47.43
  C 548.81 44.99 551.66 45.75 553.01 45.72
  Q 558.11 45.57 563.19 46.02
  A 0.54 0.53 2.3 0 1 563.69 46.55
  Q 563.80 57.28 563.75 68.00
  C 563.69 80.78 576.12 79.99 576.21 67.81
  Q 576.29 57.34 576.25 46.44
  A 0.69 0.68 -90.0 0 1 576.93 45.75
  L 589.74 45.75
  A 1.24 1.24 -88.9 0 1 590.98 47.04
  Q 590.22 65.11 591.28 83.69
  A 0.88 0.79 12.2 0 0 591.78 84.38
  C 593.11 85.00 592.04 85.23 591.46 85.27
  Q 585.09 85.68 577.58 85.47
  A 0.99 0.99 -85.1 0 1 576.63 84.34
  Q 576.99 81.85 576.61 80.78
  Z"
/>
<path fill="#ffffff" d="
  M 36.66 92.65
  L 48.65 92.49
  Q 49.98 92.47 49.09 93.43
  L 43.34 99.56
  A 0.79 0.79 -46.0 0 1 42.20 99.58
  L 36.23 93.69
  Q 35.20 92.67 36.66 92.65
  Z"
/>
<path fill="#ffffff" d="
  M 54.39 93.28
  Q 53.68 92.56 54.70 92.58
  L 67.69 92.81
  Q 68.25 92.82 67.88 93.19
  L 61.39 99.69
  A 0.55 0.49 45.8 0 1 60.66 99.64
  L 54.39 93.28
  Z"
/>
<path fill="#ffffff" d="
  M 78.08 99.47
  L 71.85 93.47
  Q 70.84 92.49 72.27 92.50
  L 85.13 92.56
  Q 85.79 92.56 85.32 93.05
  L 79.25 99.40
  A 0.86 0.79 -46.0 0 1 78.08 99.47
  Z"
/>
<path fill="#ffffff" d="
  M 103.80 93.33
  L 97.24 99.89
  A 0.34 0.34 44.6 0 1 96.76 99.89
  L 90.20 93.33
  A 0.34 0.34 67.8 0 1 90.45 92.75
  L 103.55 92.75
  A 0.34 0.34 23.3 0 1 103.80 93.33
  Z"
/>
<path fill="#000000" d="
  M 443.39 121.29
  C 424.68 120.26 427.43 89.41 448.81 94.19
  Q 455.35 95.65 456.37 101.69
  A 0.51 0.45 84.5 0 1 455.95 102.28
  L 450.00 102.41
  A 1.16 0.88 64.7 0 1 449.16 101.97
  Q 446.43 98.57 443.48 99.07
  C 437.26 100.12 436.79 115.00 443.76 115.93
  Q 447.18 116.38 449.05 112.74
  A 0.90 0.88 -76.2 0 1 449.84 112.25
  L 455.58 112.25
  A 0.95 0.95 -85.8 0 1 456.52 113.34
  C 455.58 119.84 448.83 121.58 443.39 121.29
  Z"
/>
<path fill="#000000" d="
  M 159.85 102.82
  Q 160.56 111.43 160.09 120.06
  A 0.69 0.67 85.6 0 1 159.57 120.69
  Q 158.39 120.96 157.17 120.89
  C 153.56 120.68 153.50 121.83 153.50 117.43
  Q 153.50 106.22 153.50 94.99
  A 0.99 0.99 -0.5 0 1 154.49 94.00
  L 163.27 94.00
  A 1.18 1.14 -11.5 0 1 164.34 94.68
  L 171.44 110.83
  Q 172.66 113.61 172.67 110.58
  L 172.68 94.94
  A 0.69 0.68 82.2 0 1 173.17 94.28
  Q 175.75 93.50 178.34 94.28
  A 0.72 0.70 -82.2 0 1 178.83 94.95
  L 178.99 119.88
  A 1.18 1.07 0.3 0 1 177.79 120.96
  L 169.57 120.78
  A 1.38 1.23 -10.0 0 1 168.38 120.04
  C 167.49 118.05 160.92 102.43 160.31 102.31
  A 0.47 0.39 -87.7 0 0 159.85 102.82
  Z"
/>
<rect fill="#000000" x="-3.50" y="-2.63" transform="translate(187.25,96.61) rotate(-0.4)" width="7.00" height="5.26" rx="0.75"/>
<path fill="#000000" d="
  M 202.80 104.09
  C 203.75 103.82 204.05 103.08 205.06 102.66
  Q 209.90 100.67 213.02 103.66
  C 216.32 106.82 215.43 115.34 215.18 119.71
  A 1.35 1.34 8.5 0 1 213.51 120.94
  Q 211.50 120.44 209.95 120.83
  A 1.45 1.39 82.8 0 1 208.22 119.43
  L 208.00 108.00
  Q 207.96 105.93 205.75 106.25
  C 200.91 106.96 202.50 113.62 202.50 117.10
  C 202.50 122.11 202.28 120.71 198.20 120.87
  Q 197.12 120.91 196.06 120.77
  A 0.60 0.59 -86.1 0 1 195.55 120.18
  L 195.67 94.68
  A 0.57 0.52 -89.9 0 1 196.18 94.12
  L 201.25 94.06
  A 1.29 1.25 -89.8 0 1 202.51 95.37
  L 202.34 103.69
  A 0.40 0.36 83.5 0 0 202.80 104.09
  Z"
/>
<path fill="#000000" d="
  M 298.02 107.05
  Q 298.10 107.45 298.68 107.58
  C 303.83 108.75 305.22 113.64 302.47 117.70
  C 299.45 122.18 286.97 120.71 281.99 120.93
  A 0.71 0.71 -1.2 0 1 281.25 120.22
  L 281.25 94.78
  A 0.57 0.57 -0.5 0 1 281.81 94.21
  C 286.65 94.05 296.25 93.40 300.33 95.81
  C 304.40 98.22 303.87 105.35 298.56 106.47
  A 0.65 0.45 -12.5 0 0 298.02 107.05
  Z
  M 288.79 104.83
  C 296.97 107.06 298.99 97.37 288.92 99.09
  A 0.65 0.59 -4.7 0 0 288.38 99.67
  L 288.27 104.19
  A 0.70 0.63 8.6 0 0 288.79 104.83
  Z
  M 288.79 115.83
  C 296.56 118.00 300.65 109.37 288.94 109.51
  A 0.68 0.67 0.0 0 0 288.26 110.18
  L 288.29 115.18
  A 0.69 0.67 -83.3 0 0 288.79 115.83
  Z"
/>
<path fill="#000000" d="
  M 521.69 94.82
  A 0.82 0.80 -90.0 0 1 522.49 94.00
  L 527.68 94.03
  A 1.71 1.62 -89.5 0 1 529.30 95.77
  L 529.00 115.05
  A 0.72 0.69 0.4 0 0 529.72 115.75
  L 540.20 115.80
  A 0.64 0.48 0.4 0 1 540.84 116.29
  L 540.75 119.99
  A 0.91 0.78 -0.1 0 1 539.85 120.76
  L 522.51 120.83
  A 0.76 0.76 89.7 0 1 521.75 120.07
  L 521.69 94.82
  Z"
/>
<path fill="#000000" d="
  M 572.51 103.84
  Q 573.25 104.39 573.25 103.47
  L 573.25 94.99
  A 0.99 0.99 -0.5 0 1 574.24 94.00
  L 579.24 94.00
  A 1.02 1.01 -90.0 0 1 580.25 95.02
  L 580.32 120.26
  A 0.74 0.73 -85.1 0 1 579.46 120.99
  C 577.69 120.68 573.52 121.72 573.43 119.57
  A 0.49 0.42 84.8 0 0 572.94 119.09
  Q 572.23 119.21 571.73 119.78
  Q 571.32 120.25 571.00 120.40
  C 558.88 125.94 555.48 106.60 564.15 102.38
  Q 568.03 100.50 572.51 103.84
  Z
  M 569.9601 117.2500
  A 5.78 3.42 89.9 0 0 573.3700 111.4640
  A 5.78 3.42 89.9 0 0 569.9399 105.6900
  A 5.78 3.42 89.9 0 0 566.5300 111.4760
  A 5.78 3.42 89.9 0 0 569.9601 117.2500
  Z"
/>
<path fill="#000000" d="
  M 552.30 107.32
  C 552.22 109.94 550.79 117.78 555.34 116.62
  A 0.94 0.93 76.1 0 1 556.48 117.32
  Q 556.94 119.33 556.54 120.38
  A 1.07 0.81 -0.5 0 1 555.82 120.94
  Q 551.57 121.99 547.55 120.18
  Q 545.76 119.38 545.74 117.67
  L 545.62 107.75
  A 1.07 1.00 88.0 0 0 544.55 106.69
  Q 541.61 106.90 542.10 104.97
  Q 542.22 104.48 542.11 104.02
  C 541.19 100.28 547.06 104.08 545.49 100.48
  A 1.09 1.07 -22.8 0 1 546.09 99.05
  L 551.88 96.70
  A 0.37 0.35 79.7 0 1 552.37 97.06
  L 552.28 101.19
  A 0.88 0.85 -75.4 0 0 552.72 101.97
  Q 553.77 102.53 555.42 102.15
  A 1.04 0.92 -6.1 0 1 556.69 103.05
  L 556.58 106.20
  A 0.67 0.52 -0.3 0 1 555.94 106.70
  L 552.81 106.80
  A 0.53 0.52 -90.0 0 0 552.30 107.32
  Z"
/>
<path fill="#000000" d="
  M 240.41 112.33
  A 8.86 8.86 0.0 0 1 231.55 121.19
  L 227.95 121.19
  A 8.86 8.86 0.0 0 1 219.09 112.33
  L 219.09 110.71
  A 8.86 8.86 0.0 0 1 227.95 101.85
  L 231.55 101.85
  A 8.86 8.86 0.0 0 1 240.41 110.71
  L 240.41 112.33
  Z
  M 229.7400 117.6100
  A 6.12 3.63 90.0 0 0 233.3700 111.4900
  A 6.12 3.63 90.0 0 0 229.7400 105.3700
  A 6.12 3.63 90.0 0 0 226.1100 111.4900
  A 6.12 3.63 90.0 0 0 229.7400 117.6100
  Z"
/>
<path fill="#000000" d="
  M 251.32 104.20
  A 0.28 0.27 -38.6 0 0 251.76 104.24
  C 255.85 99.73 263.50 101.21 263.86 108.09
  Q 264.15 113.67 263.97 119.99
  A 0.95 0.86 -0.4 0 1 263.05 120.83
  L 258.71 120.96
  A 1.44 1.20 -0.1 0 1 257.23 119.73
  Q 257.38 114.63 257.12 110.05
  C 256.93 106.76 254.70 104.28 251.87 107.67
  A 1.72 1.49 71.0 0 0 251.51 108.56
  Q 250.72 116.71 251.25 118.75
  Q 251.92 121.31 248.60 120.79
  Q 247.16 120.55 245.75 120.97
  C 243.71 121.58 244.50 118.85 244.51 117.90
  Q 244.58 110.45 244.27 103.01
  A 0.56 0.49 87.8 0 1 244.74 102.43
  L 250.44 102.27
  A 0.56 0.47 88.3 0 1 250.92 102.81
  Q 250.95 103.55 251.32 104.20
  Z"
/>
<path fill="#000000" d="
  M 338.26 107.91
  C 341.90 109.72 348.12 109.65 348.55 114.71
  C 349.30 123.61 330.68 123.41 330.75 115.75
  Q 330.76 114.21 332.24 114.74
  Q 332.72 114.92 333.18 114.83
  Q 335.12 114.49 336.97 115.13
  A 1.05 0.85 88.1 0 1 337.55 115.80
  C 338.82 120.18 345.18 115.42 340.00 114.00
  C 336.81 113.13 332.16 112.21 331.26 108.71
  C 329.21 100.72 345.98 98.79 348.19 106.82
  A 0.78 0.77 82.7 0 1 347.44 107.81
  L 342.31 107.71
  A 0.64 0.58 84.4 0 1 341.74 107.20
  C 341.12 104.19 336.71 104.97 337.60 107.24
  A 1.42 1.11 7.4 0 0 338.26 107.91
  Z"
/>
<path fill="#000000" d="
  M 358.73 117.20
  Q 360.69 118.36 361.74 117.01
  Q 363.22 115.11 360.94 114.32
  Q 357.61 113.17 354.66 112.12
  C 350.23 110.55 350.46 104.71 354.61 102.93
  C 358.83 101.11 367.49 100.83 368.38 106.94
  A 0.52 0.46 84.7 0 1 367.94 107.54
  L 362.82 107.66
  A 0.95 0.79 77.1 0 1 362.02 107.05
  Q 360.77 103.87 358.29 105.88
  A 1.22 1.21 -52.3 0 0 358.55 107.93
  Q 361.33 109.19 364.29 109.83
  C 370.15 111.10 370.56 118.66 364.79 120.51
  C 360.84 121.77 351.14 122.17 351.00 115.75
  Q 350.97 114.48 352.04 114.81
  A 1.90 1.34 38.3 0 0 352.98 114.86
  C 354.44 114.51 357.88 114.47 358.26 116.44
  A 1.18 0.83 -86.6 0 0 358.73 117.20
  Z"
/>
<path fill="#000000" d="
  M 383.56 119.14
  C 373.54 127.69 362.50 109.26 383.00 108.75
  A 1.00 0.73 8.9 0 0 383.78 108.35
  C 384.90 106.37 381.83 103.13 379.07 107.01
  A 1.74 1.65 -71.2 0 1 377.70 107.73
  L 373.80 107.73
  A 1.17 1.12 -77.0 0 1 372.81 106.07
  C 375.04 101.26 381.59 101.10 386.01 102.22
  C 392.66 103.89 390.14 114.52 390.63 119.64
  Q 390.80 121.42 388.19 120.94
  Q 387.40 120.80 386.60 120.91
  Q 383.95 121.29 383.91 119.31
  Q 383.90 118.85 383.56 119.14
  Z
  M 378.44 113.94
  Q 376.43 116.80 379.56 117.19
  Q 383.94 117.73 384.00 112.96
  A 0.68 0.67 -85.7 0 0 383.42 112.28
  Q 379.93 111.82 378.44 113.94
  Z"
/>
<path fill="#000000" d="
  M 402.15 104.26
  L 402.32 104.26
  A 0.44 0.33 -60.5 0 0 402.62 104.13
  Q 406.38 100.27 411.31 102.44
  C 416.41 104.67 414.75 115.00 414.75 119.92
  A 1.15 1.14 7.7 0 1 413.30 121.02
  Q 411.37 120.47 409.54 120.99
  A 1.23 1.23 -7.0 0 1 407.98 119.77
  C 408.06 116.92 409.27 105.36 404.70 106.20
  Q 401.98 106.69 402.02 109.34
  L 402.16 119.69
  A 1.29 0.84 76.0 0 1 401.86 120.57
  Q 401.10 121.27 399.96 120.92
  Q 399.62 120.82 399.01 120.81
  L 395.80 120.77
  A 0.59 0.49 89.9 0 1 395.32 120.19
  L 395.02 103.00
  A 0.59 0.56 84.9 0 1 395.49 102.41
  C 397.05 102.15 402.35 101.25 401.88 103.86
  A 0.35 0.30 -83.4 0 0 402.15 104.26
  Z"
/>
<path fill="#000000" d="
  M 480.92 112.32
  A 8.87 8.87 0.0 0 1 472.05 121.19
  L 468.45 121.19
  A 8.87 8.87 0.0 0 1 459.58 112.32
  L 459.58 110.72
  A 8.87 8.87 0.0 0 1 468.45 101.85
  L 472.05 101.85
  A 8.87 8.87 0.0 0 1 480.92 110.72
  L 480.92 112.32
  Z
  M 470.2293 117.6500
  A 6.14 3.62 90.1 0 0 473.8600 111.5163
  A 6.14 3.62 90.1 0 0 470.2507 105.3700
  A 6.14 3.62 90.1 0 0 466.6200 111.5037
  A 6.14 3.62 90.1 0 0 470.2293 117.6500
  Z"
/>
<rect fill="#000000" x="183.75" y="102.25" width="7.00" height="18.62" rx="0.62"/>
<path fill="#000000" d="
  M 315.92 116.51
  C 321.96 119.78 320.55 105.43 320.51 102.99
  A 0.56 0.48 89.4 0 1 320.99 102.42
  L 326.56 102.37
  A 0.58 0.50 88.9 0 1 327.07 102.94
  L 327.43 120.19
  A 0.54 0.51 88.9 0 1 326.93 120.74
  L 321.25 120.79
  A 0.48 0.45 -87.1 0 1 320.81 120.26
  C 321.11 117.02 319.12 119.70 318.46 120.08
  C 313.61 122.86 308.72 121.13 307.88 115.47
  Q 306.93 109.18 307.75 102.81
  A 0.59 0.56 -87.0 0 1 308.30 102.29
  L 313.58 102.27
  A 0.94 0.91 89.7 0 1 314.50 103.21
  L 314.50 114.14
  A 2.69 2.69 14.1 0 0 315.92 116.51
  Z"
/>
<path fill="#ffffff" d="
  M 52.26 109.59
  A 0.93 0.91 44.8 0 1 50.96 109.58
  L 44.74 103.36
  Q 44.13 102.75 44.99 102.75
  L 58.27 102.75
  Q 58.99 102.75 58.49 103.26
  L 52.26 109.59
  Z"
/>
<path fill="#ffffff" d="
  M 76.04 103.56
  L 69.51 110.13
  A 0.34 0.34 44.7 0 1 69.03 110.13
  L 62.45 103.61
  A 0.34 0.34 -16.8 0 1 62.69 103.03
  L 75.80 102.98
  A 0.34 0.34 -59.1 0 1 76.04 103.56
  Z"
/>
<path fill="#ffffff" d="
  M 80.59 102.91
  L 93.68 102.84
  Q 94.17 102.84 93.89 103.22
  Q 91.09 107.06 87.44 110.12
  A 0.52 0.50 47.9 0 1 86.74 110.07
  L 80.36 103.47
  Q 79.82 102.92 80.59 102.91
  Z"
/>
<path fill="#ffffff" d="
  M 60.51 117.81
  A 0.83 0.73 45.1 0 1 59.38 117.74
  L 53.67 111.80
  Q 52.67 110.75 54.09 110.75
  L 66.35 110.75
  Q 67.26 110.75 66.65 111.39
  L 60.51 117.81
  Z"
/>
<path fill="#ffffff" d="
  M 73.16 111.16
  L 84.95 111.25
  Q 86.32 111.26 85.36 112.26
  L 79.78 118.09
  A 0.98 0.95 44.6 0 1 78.41 118.08
  L 72.73 112.29
  Q 71.61 111.15 73.16 111.16
  Z"
/>
<rect fill="#000000" x="-3.26" y="-2.80" transform="translate(488.58,118.06) rotate(0.6)" width="6.52" height="5.60" rx="0.73"/>
<path fill="#000000" d="
  M 498.39 116.39
  A 1.05 1.01 -83.4 0 1 499.37 115.58
  L 504.95 115.53
  A 0.35 0.33 -77.7 0 1 505.25 116.02
  L 501.29 124.87
  A 0.98 0.96 6.9 0 1 500.58 125.41
  Q 498.67 125.75 496.79 125.31
  A 0.52 0.50 -77.0 0 1 496.42 124.69
  L 498.39 116.39
  Z"
/>
<path fill="#000000" d="
  M 592.34 116.32
  L 592.39 119.94
  A 0.58 0.45 88.9 0 1 591.95 120.53
  L 585.82 120.75
  A 0.56 0.51 89.0 0 1 585.29 120.19
  L 585.28 116.25
  A 0.91 0.81 -88.5 0 1 586.14 115.34
  L 591.85 115.69
  A 0.65 0.52 -89.2 0 1 592.34 116.32
  Z"
/>
<path fill="#ffffff" d="
  M 76.60 120.01
  L 70.20 126.43
  A 0.45 0.45 -45.2 0 1 69.56 126.43
  L 63.14 120.03
  A 0.45 0.45 -21.7 0 1 63.45 119.26
  L 76.28 119.24
  A 0.45 0.45 -66.9 0 1 76.60 120.01
  Z"
/>
</svg>
