<?xml version="1.0" encoding="UTF-8" standalone="no"?>
<!DOCTYPE svg PUBLIC "-//W3C//DTD SVG 1.1//EN" "http://www.w3.org/Graphics/SVG/1.1/DTD/svg11.dtd">
<svg xmlns="http://www.w3.org/2000/svg" version="1.1" viewBox="0 0 600 92">
<g stroke-width="2.00" fill="none" stroke-linecap="butt">
<path stroke="#000000" vector-effect="non-scaling-stroke" d="
  M 0.21 69.50
  L 0.21 19.50"
/>
<path stroke="#65656a" vector-effect="non-scaling-stroke" d="
  M 7.58 23.54
  L 7.71 60.00"
/>
<path stroke="#747273" vector-effect="non-scaling-stroke" d="
  M 7.71 60.00
  L 7.54 64.25"
/>
<path stroke="#2d2b2a" vector-effect="non-scaling-stroke" d="
  M 7.54 64.25
  Q 7.32 65.81 8.94 66.81
  Q 22.58 75.27 37.34 84.54
  A 3.10 3.04 -28.6 0 0 38.96 85.00
  Q 43.16 84.97 47.81 84.97
  Q 280.40 85.15 512.99 85.01
  C 526.64 85.00 544.18 85.38 559.79 84.99
  Q 561.94 84.94 563.80 83.89
  Q 578.13 75.82 591.79 67.43
  A 2.15 2.03 74.5 0 0 592.76 65.60
  L 592.46 51.00"
/>
<path stroke="#202023" vector-effect="non-scaling-stroke" d="
  M 592.46 51.00
  Q 592.53 39.83 592.50 28.65
  C 592.50 26.84 592.98 25.46 590.79 24.75"
/>
<path stroke="#434858" vector-effect="non-scaling-stroke" d="
  M 590.79 24.75
  L 563.50 7.79"
/>
<path stroke="#7d7d7f" vector-effect="non-scaling-stroke" d="
  M 563.50 7.79
  L 36.25 7.75
  Q 35.39 7.75 34.71 8.14
  L 7.58 23.54"
/>
<path stroke="#c0c5d7" vector-effect="non-scaling-stroke" d="
  M 563.50 7.79
  Q 563.52 8.52 563.25 9.21"
/>
<path stroke="#dbdce6" vector-effect="non-scaling-stroke" d="
  M 563.25 9.21
  Q 562.08 9.80 562.25 10.77"
/>
<path stroke="#cacddc" vector-effect="non-scaling-stroke" d="
  M 562.25 10.77
  L 37.84 10.75
  Q 36.87 10.75 36.08 11.19
  L 23.50 18.21"
/>
<path stroke="#ced1de" vector-effect="non-scaling-stroke" d="
  M 23.50 18.21
  L 12.21 24.50"
/>
<path stroke="#d5d6e2" vector-effect="non-scaling-stroke" d="
  M 12.21 24.50
  Q 11.22 24.65 10.71 25.50"
/>
<path stroke="#e1e1e9" vector-effect="non-scaling-stroke" d="
  M 10.71 25.50
  Q 9.08 25.13 7.58 23.54"
/>
<path stroke="#515460" vector-effect="non-scaling-stroke" d="
  M 572.50 27.71
  L 574.36 26.19
  Q 574.83 25.80 574.18 25.80
  L 535.50 25.99
  A 1.70 1.41 -58.0 0 0 534.60 26.29
  L 521.79 35.35"
/>
<path stroke="#b6b9ca" vector-effect="non-scaling-stroke" d="
  M 521.79 35.35
  Q 518.20 36.61 514.56 36.25
  A 0.66 0.63 0.2 0 1 513.98 35.70
  L 513.54 32.00"
/>
<path stroke="#c5c6d2" vector-effect="non-scaling-stroke" d="
  M 513.54 32.00
  L 512.54 29.75"
/>
<path stroke="#515460" vector-effect="non-scaling-stroke" d="
  M 512.54 29.75
  L 512.45 26.27
  A 0.53 0.51 -88.9 0 0 511.97 25.75
  L 511.50 25.71"
/>
<path stroke="#a5abc1" vector-effect="non-scaling-stroke" d="
  M 511.50 25.71
  Q 511.68 25.47 511.64 25.22
  A 0.87 0.56 6.7 0 0 511.01 24.70
  C 507.71 23.83 500.96 24.65 498.86 22.84
  A 1.45 1.18 60.8 0 0 498.00 22.50
  Q 485.91 22.48 473.81 22.71
  C 470.64 22.77 467.10 22.31 463.48 23.35
  A 1.55 1.48 -42.6 0 1 462.52 23.33
  C 455.58 20.77 446.53 23.41 438.99 22.41
  C 433.29 21.66 427.91 22.91 422.60 22.60
  C 419.06 22.39 414.58 23.13 411.94 22.56
  C 409.06 21.94 408.09 22.31 405.55 22.32
  Q 381.90 22.44 358.25 22.26
  Q 353.02 22.22 347.87 23.18
  A 0.59 0.44 64.8 0 1 347.35 22.90
  L 347.12 22.57
  A 1.14 0.63 -8.4 0 0 346.26 22.25
  Q 331.47 22.11 316.67 22.30
  C 314.88 22.32 313.13 23.26 311.30 23.00
  C 304.39 22.03 297.01 22.74 290.00 22.46
  C 284.70 22.24 278.53 22.99 273.00 22.50
  C 269.59 22.20 266.30 22.75 263.34 22.60
  Q 254.44 22.15 245.56 23.13
  A 1.77 1.60 51.9 0 1 244.62 22.97
  C 241.82 21.68 239.79 22.16 236.90 22.20
  Q 230.08 22.30 223.26 22.69
  C 216.80 23.07 211.72 22.36 206.11 22.46
  C 200.12 22.57 195.70 22.35 190.51 22.71
  Q 190.05 22.75 189.56 22.51
  Q 187.62 21.58 185.88 22.93
  A 1.03 0.93 -54.6 0 1 185.03 23.12
  Q 182.13 22.32 179.17 22.35
  C 174.01 22.39 168.86 22.46 163.66 22.21
  C 161.33 22.10 155.82 22.01 153.91 23.45
  A 0.59 0.55 49.0 0 1 153.17 23.37
  Q 152.34 22.54 151.19 22.56
  Q 138.73 22.80 128.75 22.25
  Q 123.55 21.96 119.72 23.10
  A 1.56 1.47 44.7 0 1 118.79 23.08
  Q 116.36 22.24 112.50 22.25
  Q 97.35 22.30 91.56 22.48
  Q 79.71 22.86 70.81 30.56
  Q 69.02 32.11 62.46 35.28
  A 0.97 0.93 46.3 0 1 61.58 35.24
  L 45.64 26.34"
/>
<path stroke="#515460" vector-effect="non-scaling-stroke" d="
  M 45.64 26.34
  Q 43.57 25.78 40.00 25.75
  Q 33.30 25.69 29.56 26.02
  A 0.55 0.52 87.8 0 0 29.08 26.57
  L 29.04 36.00"
/>
<path stroke="#a9aec3" vector-effect="non-scaling-stroke" d="
  M 29.04 36.00
  L 28.71 27.20
  Q 28.62 24.94 26.50 25.80
  C 22.71 27.33 17.58 25.64 13.31 26.19
  Q 11.73 26.39 12.21 24.50"
/>
<path stroke="#9fa5bd" vector-effect="non-scaling-stroke" d="
  M 571.83 17.42
  Q 551.80 19.17 546.25 18.75
  C 534.07 17.82 518.23 18.76 509.92 18.74
  C 493.88 18.71 477.85 18.50 461.81 18.60
  C 452.56 18.65 443.55 18.27 434.07 18.45
  Q 427.38 18.59 420.69 18.44
  C 390.11 17.74 359.44 18.73 328.84 18.33
  C 317.04 18.18 303.37 18.74 293.50 18.70
  C 268.18 18.59 242.63 19.31 217.34 18.32
  C 209.57 18.02 201.96 18.48 194.00 18.25
  Q 190.51 18.15 185.50 18.25
  Q 163.71 18.66 123.50 18.25
  C 114.91 18.16 106.23 18.50 99.16 18.37
  Q 81.83 18.05 64.50 18.25
  Q 63.62 18.26 63.15 18.46
  Q 62.52 18.73 62.25 18.72
  C 51.44 18.01 39.94 18.52 29.37 18.68
  Q 28.49 18.69 27.62 18.83
  Q 24.12 19.40 23.50 18.21"
/>
<path stroke="#63687b" vector-effect="non-scaling-stroke" d="
  M 590.79 24.75
  Q 590.56 26.03 589.62 26.34"
/>
<path stroke="#a2a7bf" vector-effect="non-scaling-stroke" d="
  M 589.62 26.34
  Q 577.81 19.09 566.00 11.75
  Q 563.94 10.47 563.25 9.21"
/>
<path stroke="#585a63" vector-effect="non-scaling-stroke" d="
  M 29.04 36.00
  L 29.04 58.00"
/>
<path stroke="#c5c5d2" vector-effect="non-scaling-stroke" d="
  M 29.04 58.00
  L 28.86 53.28"
/>
<path stroke="#b8bacb" vector-effect="non-scaling-stroke" d="
  M 28.71 46.75
  L 28.74 37.66
  A 0.78 0.77 -10.6 0 0 27.68 36.94
  C 23.71 38.50 15.23 38.69 11.25 36.29"
/>
<path stroke="#7e7f8a" vector-effect="non-scaling-stroke" d="
  M 589.62 26.34
  L 589.38 46.37"
/>
<path stroke="#c8c8d4" vector-effect="non-scaling-stroke" d="
  M 589.38 46.37
  Q 586.82 49.14 583.50 49.25
  Q 579.25 49.39 557.50 49.00
  Q 556.05 48.97 556.21 47.56
  A 1.11 0.83 -15.3 0 1 556.76 46.85
  Q 558.47 45.94 558.00 43.96"
/>
<path stroke="#5f5f67" vector-effect="non-scaling-stroke" d="
  M 558.00 43.96
  C 561.74 41.52 556.96 42.25 556.04 42.26
  Q 545.87 42.38 535.70 42.08
  A 0.58 0.52 1.1 0 1 535.14 41.56
  L 535.14 33.44
  A 0.57 0.52 -0.6 0 1 535.70 32.92
  L 563.31 32.76
  A 5.44 4.86 -59.0 0 0 566.09 31.90
  L 572.50 27.71"
/>
<path stroke="#b0b3c7" vector-effect="non-scaling-stroke" d="
  M 572.50 27.71
  Q 573.33 27.57 573.47 27.94
  A 0.96 0.28 -41.5 0 1 573.00 28.68
  L 570.99 30.60
  Q 569.55 31.97 571.68 32.01
  Q 576.80 32.09 582.29 32.02
  C 584.96 31.98 587.10 32.50 588.38 29.58
  Q 589.17 27.77 587.56 26.81
  L 571.83 17.42"
/>
<path stroke="#acb0c5" vector-effect="non-scaling-stroke" d="
  M 571.83 17.42
  L 562.25 10.77"
/>
<path stroke="#bdbecd" vector-effect="non-scaling-stroke" d="
  M 10.71 25.50
  L 11.25 36.29"
/>
<path stroke="#c4c5d2" vector-effect="non-scaling-stroke" d="
  M 11.25 36.29
  L 11.00 40.75
  Q 10.95 41.66 13.94 43.06
  Q 17.90 44.91 24.51 43.90
  A 4.76 4.74 19.8 0 0 26.95 42.76
  Q 27.47 42.31 28.22 43.33
  A 1.52 0.37 89.1 0 1 28.46 44.25
  L 28.71 46.75"
/>
<path stroke="#bdbecd" vector-effect="non-scaling-stroke" d="
  M 28.71 46.75
  L 28.86 53.28"
/>
<path stroke="#d2d0d9" vector-effect="non-scaling-stroke" d="
  M 28.86 53.28
  Q 22.62 55.39 16.08 54.74
  C 13.44 54.47 11.65 53.02 9.68 51.37
  A 0.37 0.37 31.2 0 0 9.10 51.51
  Q 7.73 54.85 8.00 58.21"
/>
<path stroke="#d9d6dd" vector-effect="non-scaling-stroke" d="
  M 8.00 58.21
  Q 7.59 59.04 7.71 60.00"
/>
<path stroke="#d9d6dd" vector-effect="non-scaling-stroke" d="
  M 513.54 32.00
  L 513.93 55.18
  A 1.97 1.50 -37.4 0 1 513.68 56.10
  Q 513.13 57.07 513.07 58.18
  A 0.53 0.49 -88.3 0 0 513.56 58.75
  L 518.07 58.65
  Q 518.56 58.64 519.01 58.80
  Q 520.00 59.15 520.21 57.50"
/>
<path stroke="#f1eef1" vector-effect="non-scaling-stroke" d="
  M 520.21 57.50
  C 520.25 59.08 519.37 65.07 521.46 65.26"
/>
<path stroke="#dddadf" vector-effect="non-scaling-stroke" d="
  M 535.04 57.25
  Q 535.17 54.79 535.93 56.20
  A 1.93 1.92 75.4 0 0 537.61 57.19
  L 573.19 57.06
  A 1.44 0.97 -15.3 0 1 574.09 57.36
  L 574.86 58.06
  A 1.43 0.75 54.2 0 0 575.70 58.48
  L 585.99 58.54
  A 1.04 0.80 -69.2 0 0 586.75 58.07
  Q 587.72 56.59 589.46 56.50"
/>
<path stroke="#a19c9d" vector-effect="non-scaling-stroke" d="
  M 589.73 64.55
  L 579.34 70.38"
/>
<path stroke="#ece7e7" vector-effect="non-scaling-stroke" d="
  M 579.34 70.38
  Q 576.06 69.92 573.39 71.94
  A 0.89 0.89 -53.6 0 1 572.54 72.07
  C 569.89 71.10 566.74 71.90 564.58 71.78
  C 559.75 71.49 555.40 72.57 550.88 72.19
  C 542.53 71.49 533.36 71.55 524.97 71.99
  C 519.67 72.27 512.18 71.74 509.11 71.73
  Q 477.46 71.63 445.81 71.75
  C 435.09 71.79 424.38 71.65 413.66 72.06
  C 409.86 72.21 405.46 71.34 401.31 71.48
  Q 389.38 71.89 377.44 71.65
  Q 351.96 71.11 326.49 71.93
  C 324.13 72.01 321.29 71.38 318.54 71.67
  Q 314.40 72.10 312.80 72.03
  C 304.85 71.66 296.74 72.25 289.07 71.96
  C 276.50 71.50 264.33 72.40 252.25 71.50
  Q 246.86 71.10 236.98 71.66
  C 231.54 71.97 225.77 71.65 219.75 71.75
  C 191.40 72.24 158.10 71.13 127.24 72.23
  A 1.62 1.23 54.6 0 1 126.35 71.95
  C 124.68 70.82 105.51 71.77 102.01 71.86
  C 93.35 72.09 85.52 71.82 77.23 71.62
  C 71.19 71.47 63.56 72.60 56.42 71.63
  C 53.13 71.19 50.03 71.97 46.64 71.59
  C 44.08 71.30 42.01 72.05 39.25 71.75
  C 35.44 71.33 29.07 72.49 24.95 70.75
  C 24.42 70.52 17.71 66.73 17.96 68.50"
/>
<path stroke="#a19c9d" vector-effect="non-scaling-stroke" d="
  M 17.96 68.50
  L 10.87 64.30
  A 1.73 1.04 -20.1 0 0 9.94 64.12
  L 7.54 64.25"
/>
<path stroke="#e1dde1" vector-effect="non-scaling-stroke" d="
  M 8.00 58.21
  Q 10.52 58.12 11.56 60.69
  C 12.62 63.29 14.88 62.46 16.88 62.57
  Q 20.83 62.78 24.76 62.53
  A 1.39 1.04 -64.2 0 0 25.57 62.11
  Q 26.85 60.76 28.96 61.25"
/>
<path stroke="#d9d6dd" vector-effect="non-scaling-stroke" d="
  M 42.74 40.20
  Q 44.47 45.93 43.79 52.00"
/>
<path stroke="#e1dde1" vector-effect="non-scaling-stroke" d="
  M 43.79 52.00
  Q 43.39 57.78 44.20 63.16
  A 0.95 0.94 83.8 0 0 45.20 63.97
  C 52.28 63.49 59.68 64.24 66.86 64.11
  C 70.01 64.06 74.89 64.34 79.01 63.75
  A 1.37 1.37 83.9 0 0 80.18 62.30
  Q 80.07 60.77 81.31 61.28
  A 0.87 0.63 -84.0 0 1 81.72 61.99
  L 81.91 65.21"
/>
<path stroke="#dcd9de" vector-effect="non-scaling-stroke" d="
  M 157.50 58.79
  L 161.75 58.75
  Q 162.75 58.74 164.56 56.31
  L 166.13 54.21
  Q 166.44 53.80 166.46 54.32
  L 166.79 63.75"
/>
<path stroke="#dcd9de" vector-effect="non-scaling-stroke" d="
  M 222.79 44.00
  C 222.72 47.57 223.67 54.25 222.19 57.30
  A 0.88 0.87 37.0 0 0 222.33 58.27
  Q 223.89 59.98 224.80 59.49
  C 226.59 58.52 231.12 48.76 232.14 46.56"
/>
<path stroke="#e1dde1" vector-effect="non-scaling-stroke" d="
  M 247.50 49.77
  Q 246.74 54.53 243.81 58.81
  Q 243.04 59.94 242.95 61.44
  Q 242.92 61.86 242.68 62.37
  C 242.13 63.50 242.85 64.00 243.95 64.00
  Q 255.32 64.05 266.69 64.18
  A 1.63 1.24 21.4 0 0 267.60 63.92
  Q 269.87 62.29 267.94 59.56
  Q 265.12 55.59 263.99 50.00"
/>
<path stroke="#dfdbe0" vector-effect="non-scaling-stroke" d="
  M 283.30 56.93
  Q 286.00 58.22 286.64 60.80
  Q 287.19 63.04 289.61 63.03
  L 308.18 62.92
  A 0.55 0.49 0.5 0 0 308.73 62.44
  L 308.96 48.75"
/>
<path stroke="#d7d4dc" vector-effect="non-scaling-stroke" d="
  M 365.54 39.50
  L 366.46 39.96
  A 0.77 0.54 18.7 0 1 366.90 40.56
  Q 366.70 44.17 367.00 53.25
  Q 367.08 55.74 369.02 55.37
  Q 369.51 55.28 369.98 55.39
  Q 371.52 55.76 372.60 54.79
  A 1.19 1.09 70.4 0 0 372.96 53.94
  L 373.02 42.25
  A 0.53 0.43 -88.1 0 1 373.49 41.71
  Q 374.16 41.76 374.46 42.50"
/>
<path stroke="#dfdbe0" vector-effect="non-scaling-stroke" d="
  M 388.04 60.00
  C 389.20 59.14 388.42 57.52 388.96 57.19
  A 0.66 0.44 57.2 0 1 389.67 57.50
  L 390.43 58.62
  A 0.99 0.77 -15.6 0 0 391.26 58.96
  C 393.37 58.77 403.52 59.75 398.97 56.12
  C 397.52 54.96 392.23 52.31 393.75 50.96"
/>
<path stroke="#dfdbe0" vector-effect="non-scaling-stroke" d="
  M 416.31 55.62
  Q 421.15 57.43 425.14 60.70
  C 429.55 64.30 435.65 63.15 440.21 61.25"
/>
<path stroke="#dddadf" vector-effect="non-scaling-stroke" d="
  M 453.71 50.69
  Q 455.65 54.97 455.04 59.47
  A 1.00 1.00 2.4 0 0 456.08 60.60
  C 463.13 60.24 469.99 60.76 476.70 60.53
  Q 481.11 60.38 478.32 56.95
  Q 474.90 52.74 473.78 47.55"
/>
<path stroke="#69696d" vector-effect="non-scaling-stroke" d="
  M 558.00 43.96
  L 553.59 47.14
  A 1.64 1.45 -59.9 0 1 552.69 47.44
  L 535.82 47.50
  A 0.53 0.51 1.1 0 0 535.29 47.99
  L 535.04 57.25"
/>
<path stroke="#747273" vector-effect="non-scaling-stroke" d="
  M 535.04 57.25
  Q 534.88 57.71 535.00 58.08
  A 0.84 0.60 -6.3 0 0 535.75 58.50
  L 574.27 58.56
  Q 575.40 58.56 574.45 59.18
  L 565.17 65.23
  A 1.68 1.61 -59.9 0 1 564.24 65.50
  L 521.46 65.26"
/>
<path stroke="#7d7d7f" vector-effect="non-scaling-stroke" d="
  M 521.46 65.26
  L 521.46 36.00"
/>
<path stroke="#65656a" vector-effect="non-scaling-stroke" d="
  M 521.46 36.00
  Q 521.63 35.84 521.79 35.35"
/>
<path stroke="#545762" vector-effect="non-scaling-stroke" d="
  M 511.50 25.71
  L 499.93 25.91
  A 0.55 0.54 0.5 0 0 499.39 26.43
  L 499.21 32.00"
/>
<path stroke="#b3b6c9" vector-effect="non-scaling-stroke" d="
  M 499.21 32.00
  Q 498.91 30.40 498.54 31.56
  A 0.40 0.37 14.9 0 1 498.07 31.81
  Q 497.45 31.65 497.08 32.02
  A 1.04 0.55 68.2 0 0 496.99 32.89
  Q 497.15 33.46 496.93 33.99
  A 0.78 0.69 10.8 0 1 496.18 34.43
  L 489.99 34.05
  Q 489.50 34.02 489.05 34.23
  Q 487.29 35.04 485.64 34.56
  C 482.82 33.74 481.73 26.81 479.25 28.04"
/>
<path stroke="#545762" vector-effect="non-scaling-stroke" d="
  M 479.25 28.04
  L 477.76 26.19
  A 1.23 1.13 -15.7 0 0 476.93 25.77
  Q 469.13 25.23 461.39 26.42"
/>
<path stroke="#b3b6c9" vector-effect="non-scaling-stroke" d="
  M 461.39 26.42
  Q 460.11 27.54 460.32 28.54
  A 0.81 0.58 69.9 0 1 460.11 29.31
  Q 458.95 30.13 457.50 30.05
  Q 457.00 30.03 456.55 30.21
  C 453.56 31.42 456.36 27.24 453.59 26.21"
/>
<path stroke="#545762" vector-effect="non-scaling-stroke" d="
  M 453.59 26.21
  L 441.17 25.79
  A 1.12 0.97 -88.4 0 0 440.17 26.88
  L 440.01 33.46"
/>
<path stroke="#b3b6c9" vector-effect="non-scaling-stroke" d="
  M 440.01 33.46
  Q 429.11 38.50 421.44 29.31
  Q 419.76 27.31 414.99 26.14"
/>
<path stroke="#545762" vector-effect="non-scaling-stroke" d="
  M 414.99 26.14
  Q 414.35 25.70 413.50 25.70
  Q 394.50 25.75 375.28 25.75
  A 0.80 0.80 85.7 0 0 374.49 26.67
  Q 374.78 28.63 374.12 30.07"
/>
<path stroke="#b7b9cb" vector-effect="non-scaling-stroke" d="
  M 374.12 30.07
  Q 372.34 33.14 372.42 36.93
  A 0.52 0.49 88.3 0 1 371.95 37.46
  C 370.97 37.52 367.43 37.95 367.26 36.75
  A 1.19 0.56 89.7 0 0 366.87 35.94
  Q 366.28 35.57 365.50 35.79"
/>
<path stroke="#545762" vector-effect="non-scaling-stroke" d="
  M 365.50 35.79
  L 351.79 26.70
  Q 350.37 25.75 348.78 25.77
  L 310.50 26.04"
/>
<path stroke="#acb0c5" vector-effect="non-scaling-stroke" d="
  M 310.50 26.04
  Q 308.01 25.76 308.14 28.18
  A 0.49 0.45 88.8 0 1 307.69 28.69
  L 273.57 28.81
  A 1.54 1.15 -58.2 0 0 272.70 29.15
  C 270.89 30.61 270.62 26.84 268.00 27.04"
/>
<path stroke="#545762" vector-effect="non-scaling-stroke" d="
  M 268.00 27.04
  L 267.46 26.24
  A 0.98 0.86 71.2 0 0 266.70 25.80
  L 244.81 25.81
  A 0.98 0.84 13.3 0 0 244.01 26.22
  L 242.54 28.75"
/>
<path stroke="#b1b5c8" vector-effect="non-scaling-stroke" d="
  M 242.54 28.75
  Q 242.31 27.45 241.10 28.65
  A 3.77 3.74 -16.7 0 0 240.06 30.56
  Q 239.58 32.93 237.78 32.29
  C 233.00 30.59 227.17 31.64 221.75 31.28
  A 0.84 0.69 -5.7 0 1 221.03 30.80
  C 220.47 29.17 223.51 28.05 221.00 27.71"
/>
<path stroke="#545762" vector-effect="non-scaling-stroke" d="
  M 221.00 27.71
  L 222.85 26.18
  Q 223.29 25.81 222.69 25.81
  L 181.77 25.74
  A 5.26 2.96 -49.0 0 0 179.11 26.69
  L 174.02 30.08"
/>
<path stroke="#b1b5c8" vector-effect="non-scaling-stroke" d="
  M 174.02 30.08
  Q 171.14 30.48 168.88 32.41
  A 1.08 1.03 -59.5 0 1 168.00 32.66
  Q 161.16 31.46 155.75 32.00
  Q 153.80 32.19 152.95 31.11
  A 0.46 0.43 -32.1 0 1 153.12 30.45
  L 155.49 29.16
  A 0.82 0.61 -21.2 0 0 155.95 28.43
  Q 155.88 28.01 155.50 27.71"
/>
<path stroke="#545762" vector-effect="non-scaling-stroke" d="
  M 155.50 27.71
  C 159.98 25.03 155.04 25.75 154.05 25.74
  Q 135.50 25.49 117.00 26.12"
/>
<path stroke="#b7b9cb" vector-effect="non-scaling-stroke" d="
  M 117.00 26.12
  C 116.93 25.35 115.54 26.08 115.19 26.35
  C 112.09 28.67 108.09 32.62 104.53 33.90
  A 1.45 1.39 -83.7 0 0 103.81 34.50
  Q 101.86 37.67 99.01 36.80
  Q 96.56 36.06 96.74 33.51
  Q 96.97 30.17 95.54 28.50"
/>
<path stroke="#545762" vector-effect="non-scaling-stroke" d="
  M 95.54 28.50
  Q 96.22 25.38 93.67 25.64
  C 89.65 26.04 85.24 25.92 80.99 26.01
  A 2.78 2.71 27.3 0 0 79.58 26.44
  L 62.66 37.24
  A 0.82 0.80 43.5 0 1 61.82 37.25
  Q 53.47 32.34 45.64 26.34"
/>
<path stroke="#636369" vector-effect="non-scaling-stroke" d="
  M 95.54 28.50
  L 95.54 45.50"
/>
<path stroke="#747273" vector-effect="non-scaling-stroke" d="
  M 95.54 45.50
  L 95.50 64.47
  A 0.99 0.93 -89.4 0 1 94.55 65.46
  L 81.91 65.21"
/>
<path stroke="#6d6c6f" vector-effect="non-scaling-stroke" d="
  M 81.91 65.21
  L 81.96 60.00"
/>
<path stroke="#65656a" vector-effect="non-scaling-stroke" d="
  M 81.96 60.00
  L 82.00 35.43
  Q 82.00 34.40 81.12 34.93
  L 70.09 41.49
  Q 68.86 42.23 70.24 42.67
  Q 71.31 43.01 71.59 43.69
  A 0.41 0.36 -9.7 0 1 71.19 44.19
  C 67.42 44.26 60.48 45.13 57.25 43.22
  Q 50.11 39.01 42.98 34.64
  Q 42.48 34.33 42.51 34.88
  L 42.74 40.20"
/>
<path stroke="#747273" vector-effect="non-scaling-stroke" d="
  M 42.74 40.20
  L 42.51 64.93
  A 0.58 0.57 -89.5 0 1 41.94 65.50
  L 29.66 65.50
  A 0.69 0.67 90.0 0 1 28.99 64.81
  L 28.96 61.25"
/>
<path stroke="#6d6c6f" vector-effect="non-scaling-stroke" d="
  M 28.96 61.25
  L 29.04 58.00"
/>
<path stroke="#5f5f67" vector-effect="non-scaling-stroke" d="
  M 479.25 28.04
  L 487.46 41.00"
/>
<path stroke="#68676c" vector-effect="non-scaling-stroke" d="
  M 487.46 41.00
  L 498.73 59.08
  Q 499.03 59.56 499.03 59.00
  L 499.21 46.00"
/>
<path stroke="#5f5f67" vector-effect="non-scaling-stroke" d="
  M 499.21 46.00
  L 499.21 32.00"
/>
<path stroke="#747273" vector-effect="non-scaling-stroke" d="
  M 512.54 29.75
  L 512.50 54.76
  A 2.02 1.83 70.0 0 1 511.93 56.16
  L 502.80 65.10
  A 1.27 1.18 21.1 0 1 501.93 65.45
  L 485.07 65.45
  A 0.96 0.82 72.0 0 1 484.32 64.99
  L 473.78 47.55"
/>
<path stroke="#69696d" vector-effect="non-scaling-stroke" d="
  M 473.78 47.55
  L 466.25 34.96"
/>
<path stroke="#5f5f67" vector-effect="non-scaling-stroke" d="
  M 466.25 34.96
  L 461.39 26.42"
/>
<path stroke="#e1e1e9" vector-effect="non-scaling-stroke" d="
  M 521.46 36.00
  Q 520.23 36.20 520.25 37.75
  Q 520.31 43.21 520.21 57.50"
/>
<path stroke="#4c4a4d" vector-effect="non-scaling-stroke" d="
  M 592.46 51.00
  Q 591.91 57.92 589.73 64.55"
/>
<path stroke="#949196" vector-effect="non-scaling-stroke" d="
  M 589.73 64.55
  L 589.46 56.50"
/>
<path stroke="#898890" vector-effect="non-scaling-stroke" d="
  M 589.46 56.50
  L 589.38 46.37"
/>
<path stroke="#f5f1f0" vector-effect="non-scaling-stroke" d="
  M 559.87 81.93
  C 560.33 80.27 558.78 81.08 558.10 80.61
  A 1.52 0.54 42.6 0 0 557.25 80.25
  Q 545.10 80.25 532.96 80.25
  C 531.70 80.25 530.46 80.74 529.12 80.58
  Q 526.48 80.25 526.33 80.25
  C 364.23 80.25 202.12 80.49 40.01 80.25
  A 3.85 3.84 64.8 0 1 37.55 79.36
  Q 35.70 77.83 33.96 78.50"
/>
<path stroke="#636369" vector-effect="non-scaling-stroke" d="
  M 365.50 35.79
  L 365.54 39.50"
/>
<path stroke="#747273" vector-effect="non-scaling-stroke" d="
  M 365.54 39.50
  L 365.44 54.94
  A 0.98 0.90 74.4 0 1 365.04 55.73
  L 350.64 65.22
  A 2.03 1.57 22.5 0 1 349.62 65.50
  L 311.16 65.50
  A 0.67 0.66 90.0 0 1 310.50 64.83
  L 310.46 47.50"
/>
<path stroke="#5f5f67" vector-effect="non-scaling-stroke" d="
  M 310.46 47.50
  L 310.46 30.50"
/>
<path stroke="#585a63" vector-effect="non-scaling-stroke" d="
  M 310.46 30.50
  L 310.50 26.04"
/>
<path stroke="#d3d1da" vector-effect="non-scaling-stroke" d="
  M 310.46 47.50
  Q 308.68 43.95 308.96 48.75"
/>
<path stroke="#c9c9d4" vector-effect="non-scaling-stroke" d="
  M 308.96 48.75
  Q 305.60 48.01 302.19 48.13
  C 297.43 48.29 293.03 48.24 288.43 48.19
  A 0.46 0.38 -2.0 0 1 287.98 47.84
  C 287.91 47.04 290.52 48.61 288.15 46.61
  Q 287.56 46.11 288.29 45.86
  Q 289.87 45.31 288.75 43.96"
/>
<path stroke="#636369" vector-effect="non-scaling-stroke" d="
  M 117.00 26.12
  L 104.97 35.52
  A 1.10 0.99 -20.2 0 0 104.55 36.32
  L 104.46 44.50"
/>
<path stroke="#d7d4dc" vector-effect="non-scaling-stroke" d="
  M 104.46 44.50
  Q 104.37 42.82 103.39 43.44
  A 1.06 0.83 77.8 0 0 103.00 44.25
  L 102.95 53.19
  A 0.53 0.46 -0.6 0 1 102.43 53.65
  L 97.85 53.72
  A 0.84 0.78 -0.4 0 1 97.00 52.94
  L 97.00 49.50
  A 1.64 1.27 32.4 0 0 96.68 48.61
  Q 95.66 47.27 95.54 45.50"
/>
<path stroke="#5f5f67" vector-effect="non-scaling-stroke" d="
  M 453.59 26.21
  L 453.54 34.75"
/>
<path stroke="#69696d" vector-effect="non-scaling-stroke" d="
  M 453.54 34.75
  L 453.71 50.69"
/>
<path stroke="#747273" vector-effect="non-scaling-stroke" d="
  M 453.71 50.69
  L 453.50 64.94
  A 0.55 0.53 -89.5 0 1 452.96 65.49
  L 440.83 65.44
  A 0.63 0.60 89.5 0 1 440.23 64.82
  L 440.21 61.25"
/>
<path stroke="#6b6a6d" vector-effect="non-scaling-stroke" d="
  M 440.21 61.25
  L 440.21 45.00"
/>
<path stroke="#5f5f67" vector-effect="non-scaling-stroke" d="
  M 440.21 45.00
  L 440.01 33.46"
/>
<path stroke="#d2d0d9" vector-effect="non-scaling-stroke" d="
  M 81.96 60.00
  L 81.06 50.67
  Q 80.98 49.87 80.56 50.56
  C 78.41 54.11 75.90 52.80 72.65 52.83
  C 63.59 52.91 53.95 51.87 45.00 52.94
  A 0.63 0.47 75.0 0 1 44.46 52.51
  Q 44.31 52.11 43.79 52.00"
/>
<path stroke="#a5a09f" vector-effect="non-scaling-stroke" d="
  M 17.96 68.50
  L 33.96 78.50"
/>
<path stroke="#a9a6a5" vector-effect="non-scaling-stroke" d="
  M 33.96 78.50
  L 39.07 81.75
  A 1.89 1.52 -23.7 0 0 40.00 82.00
  C 172.40 82.00 304.86 82.73 437.25 81.83
  C 478.11 81.56 519.00 82.15 559.87 81.93"
/>
<path stroke="#a5a09f" vector-effect="non-scaling-stroke" d="
  M 559.87 81.93
  Q 569.89 76.63 579.34 70.38"
/>
<path stroke="#5f5f67" vector-effect="non-scaling-stroke" d="
  M 414.99 26.14
  L 429.46 37.50"
/>
<path stroke="#6b6a6d" vector-effect="non-scaling-stroke" d="
  M 429.46 37.50
  L 429.34 48.57
  A 0.52 0.49 0.0 0 1 428.82 49.06
  L 407.23 49.00
  Q 406.40 49.00 407.08 49.45
  L 416.31 55.62"
/>
<path stroke="#747273" vector-effect="non-scaling-stroke" d="
  M 416.31 55.62
  L 428.95 64.82
  Q 429.79 65.43 428.77 65.44
  L 414.96 65.50
  A 1.78 1.69 61.7 0 1 413.95 65.17
  L 393.75 50.96"
/>
<path stroke="#6b6a6d" vector-effect="non-scaling-stroke" d="
  M 393.75 50.96
  Q 391.67 48.63 388.67 49.09
  A 0.61 0.60 85.6 0 0 388.16 49.69
  L 388.04 60.00"
/>
<path stroke="#747273" vector-effect="non-scaling-stroke" d="
  M 388.04 60.00
  L 387.86 64.82
  A 0.56 0.53 -0.0 0 1 387.31 65.34
  L 375.33 65.48
  A 0.86 0.82 89.7 0 1 374.50 64.62
  L 374.46 42.50"
/>
<path stroke="#636369" vector-effect="non-scaling-stroke" d="
  M 374.46 42.50
  Q 374.81 36.51 374.12 30.07"
/>
<path stroke="#e0dde5" vector-effect="non-scaling-stroke" d="
  M 156.75 58.46
  C 156.35 57.74 155.81 57.25 154.91 57.25
  Q 136.48 57.11 118.04 57.00"
/>
<path stroke="#d1d0d9" vector-effect="non-scaling-stroke" d="
  M 237.79 38.00
  C 238.40 35.91 237.27 36.27 236.74 37.34
  Q 234.49 41.87 232.14 46.56"
/>
<path stroke="#c5c5d2" vector-effect="non-scaling-stroke" d="
  M 232.14 46.56
  Q 228.48 47.46 224.50 47.06
  A 1.29 1.13 -13.2 0 1 223.67 46.62
  Q 222.81 45.50 222.79 44.00"
/>
<path stroke="#d1d0d9" vector-effect="non-scaling-stroke" d="
  M 222.79 44.00
  Q 222.82 42.93 221.79 43.25"
/>
<path stroke="#c5c5d2" vector-effect="non-scaling-stroke" d="
  M 202.00 42.21
  C 201.85 41.23 201.21 41.05 200.39 41.60
  Q 197.36 43.60 193.96 44.77
  C 190.53 45.95 187.01 45.03 183.18 45.94
  A 0.66 0.62 -19.5 0 1 182.45 45.62
  C 182.35 45.42 180.87 39.50 180.46 41.75"
/>
<path stroke="#5d5e66" vector-effect="non-scaling-stroke" d="
  M 155.50 27.71
  L 148.11 32.40
  A 1.86 1.52 -56.6 0 1 147.18 32.69
  L 118.52 32.75
  A 0.52 0.52 90.0 0 0 118.00 33.27
  L 118.00 41.59
  A 0.68 0.67 0.0 0 0 118.68 42.26
  L 142.54 42.50"
/>
<path stroke="#68676c" vector-effect="non-scaling-stroke" d="
  M 142.54 42.50
  L 136.41 47.22
  A 1.62 1.20 19.4 0 1 135.50 47.50
  L 118.50 47.50
  A 0.50 0.50 0.0 0 0 118.00 48.00
  L 118.04 57.00"
/>
<path stroke="#787679" vector-effect="non-scaling-stroke" d="
  M 118.04 57.00
  L 118.00 57.95
  A 0.55 0.46 1.5 0 0 118.55 58.44
  L 156.75 58.46"
/>
<path stroke="#68676c" vector-effect="non-scaling-stroke" d="
  M 156.75 58.46
  Q 157.18 58.50 157.50 58.79"
/>
<path stroke="#747273" vector-effect="non-scaling-stroke" d="
  M 157.50 58.79
  L 147.93 65.25
  A 1.85 1.32 20.4 0 1 147.00 65.50
  L 105.17 65.50
  A 0.67 0.67 0.0 0 1 104.50 64.83
  L 104.46 44.50"
/>
<path stroke="#585a63" vector-effect="non-scaling-stroke" d="
  M 268.00 27.04
  Q 268.35 28.28 269.21 29.25"
/>
<path stroke="#5f5f67" vector-effect="non-scaling-stroke" d="
  M 269.21 29.25
  L 275.42 41.76
  A 0.92 0.87 -12.4 0 0 276.23 42.25
  C 280.15 42.25 284.32 42.50 288.21 42.18
  Q 291.95 41.87 288.75 43.96"
/>
<path stroke="#6b6a6d" vector-effect="non-scaling-stroke" d="
  M 288.75 43.96
  C 285.06 46.49 284.26 47.89 279.33 47.44
  Q 278.16 47.33 278.70 48.35
  L 283.30 56.93"
/>
<path stroke="#747273" vector-effect="non-scaling-stroke" d="
  M 283.30 56.93
  L 287.17 64.86
  A 0.45 0.43 76.7 0 1 286.79 65.50
  L 272.74 65.50
  A 0.86 0.80 75.4 0 1 272.01 65.04
  L 263.99 50.00"
/>
<path stroke="#6d6c6f" vector-effect="non-scaling-stroke" d="
  M 263.99 50.00
  Q 264.03 48.82 263.33 47.88
  A 1.12 0.94 -15.6 0 0 262.49 47.50
  L 248.99 47.50
  A 1.26 0.99 17.0 0 0 248.14 47.83
  Q 247.41 48.63 247.50 49.77"
/>
<path stroke="#747273" vector-effect="non-scaling-stroke" d="
  M 247.50 49.77
  L 239.41 64.99
  A 0.88 0.79 -74.0 0 1 238.69 65.44
  L 225.02 65.50
  A 0.65 0.65 -76.5 0 1 224.44 64.55
  L 237.79 38.00"
/>
<path stroke="#5d5e66" vector-effect="non-scaling-stroke" d="
  M 237.79 38.00
  L 242.54 28.75"
/>
<path stroke="#5d5e66" vector-effect="non-scaling-stroke" d="
  M 221.00 27.71
  L 214.16 32.20
  A 1.82 1.26 -53.5 0 1 213.25 32.51
  L 181.06 32.82
  A 0.58 0.56 4.0 0 0 180.49 33.30
  Q 179.89 37.52 180.46 41.75"
/>
<path stroke="#68676c" vector-effect="non-scaling-stroke" d="
  M 180.46 41.75
  Q 180.37 42.67 180.72 43.44"
/>
<path stroke="#787679" vector-effect="non-scaling-stroke" d="
  M 180.72 43.44
  L 180.44 57.97
  A 0.54 0.52 1.7 0 0 180.96 58.50
  Q 194.66 59.04 208.27 57.78"
/>
<path stroke="#68676c" vector-effect="non-scaling-stroke" d="
  M 208.27 57.78
  L 208.25 48.06
  A 0.56 0.55 90.0 0 0 207.70 47.50
  L 194.20 47.50
  Q 192.94 47.50 194.01 46.87
  L 202.00 42.21"
/>
<path stroke="#5d5e66" vector-effect="non-scaling-stroke" d="
  M 202.00 42.21
  Q 210.75 42.28 219.49 42.25
  C 220.49 42.25 221.70 41.79 221.79 43.25"
/>
<path stroke="#747273" vector-effect="non-scaling-stroke" d="
  M 221.79 43.25
  L 221.69 54.94
  A 1.04 0.96 73.1 0 1 221.30 55.75
  L 208.87 64.97
  A 3.04 2.60 23.3 0 1 207.17 65.50
  Q 187.00 65.50 168.00 65.50
  Q 166.26 65.50 166.79 63.75"
/>
<path stroke="#68676c" vector-effect="non-scaling-stroke" d="
  M 166.79 63.75
  L 166.79 49.00"
/>
<path stroke="#5d5e66" vector-effect="non-scaling-stroke" d="
  M 166.79 49.00
  L 166.69 37.65
  Q 166.67 35.96 168.03 34.88
  L 174.02 30.08"
/>
<path stroke="#b7b9ca" vector-effect="non-scaling-stroke" d="
  M 310.46 30.50
  C 308.69 27.16 308.77 34.23 308.74 34.45
  A 0.53 0.52 4.0 0 1 308.19 34.92
  Q 294.71 34.49 281.24 34.90
  C 278.84 34.97 277.06 34.56 274.63 35.71
  A 0.50 0.48 -25.8 0 1 273.97 35.49
  C 273.48 34.52 270.63 27.34 269.21 29.25"
/>
<path stroke="#c7c6d3" vector-effect="non-scaling-stroke" d="
  M 499.21 46.00
  Q 499.02 44.53 498.63 45.40
  A 0.66 0.63 7.0 0 1 498.12 45.78
  C 496.33 46.05 496.28 48.14 494.48 48.84
  A 0.67 0.63 61.5 0 1 493.72 48.59
  C 491.87 45.81 488.79 39.92 487.46 41.00"
/>
<path stroke="#c9c9d4" vector-effect="non-scaling-stroke" d="
  M 440.21 45.00
  Q 436.21 46.33 432.01 46.49
  A 0.70 0.68 -9.7 0 1 431.34 46.03
  Q 430.10 42.12 430.75 39.25
  Q 431.43 36.24 429.46 37.50"
/>
<path stroke="#c8c8d4" vector-effect="non-scaling-stroke" d="
  M 466.25 34.96
  C 464.60 35.79 467.20 35.89 466.78 37.23
  A 1.14 1.01 -53.1 0 0 466.85 38.11
  L 471.04 45.55
  A 0.33 0.32 -14.4 0 1 470.75 46.03
  L 455.69 46.09
  A 0.53 0.50 90.0 0 1 455.19 45.56
  Q 455.21 40.01 453.54 34.75"
/>
<path stroke="#c5c5d2" vector-effect="non-scaling-stroke" d="
  M 166.79 49.00
  C 166.71 47.30 167.18 37.97 165.04 42.11
  A 1.43 1.23 -83.1 0 1 164.34 42.75
  Q 161.77 43.74 159.03 43.66
  C 154.32 43.52 149.69 43.70 144.99 43.52
  A 1.19 0.83 65.2 0 1 144.24 43.08
  Q 143.63 42.33 142.54 42.50"
/>
<path stroke="#e0dde5" vector-effect="non-scaling-stroke" d="
  M 208.27 57.78
  Q 195.22 56.67 184.30 57.11
  Q 180.76 57.25 181.31 53.75
  Q 182.22 47.86 180.72 43.44"
/>
<path stroke="#636369" vector-effect="non-scaling-stroke" d="
  M 251.25 41.75
  A 0.35 0.35 13.8 0 0 251.56 42.26
  L 259.91 42.24
  A 0.35 0.35 -13.3 0 0 260.22 41.73
  L 256.03 33.45
  A 0.35 0.35 0.0 0 0 255.41 33.45
  L 251.25 41.75"
/>
<path stroke="#68676c" vector-effect="non-scaling-stroke" d="
  M 324.04 47.75
  L 324.21 57.25"
/>
<path stroke="#787679" vector-effect="non-scaling-stroke" d="
  M 324.21 57.25
  Q 323.91 57.69 324.00 58.07
  A 0.82 0.54 -4.0 0 0 324.76 58.50
  Q 337.22 58.50 349.68 58.50
  C 350.98 58.50 352.82 59.02 351.96 56.75"
/>
<path stroke="#68676c" vector-effect="non-scaling-stroke" d="
  M 351.96 56.75
  L 351.96 47.75"
/>
<path stroke="#606068" vector-effect="non-scaling-stroke" d="
  M 351.96 47.75
  L 351.95 33.31
  A 0.52 0.50 0.0 0 0 351.43 32.81
  L 324.50 32.75
  A 0.50 0.50 0.0 0 0 324.00 33.25
  L 324.04 47.75"
/>
<path stroke="#c8c7d3" vector-effect="non-scaling-stroke" d="
  M 351.96 47.75
  Q 351.95 46.92 351.44 46.50
  A 0.48 0.40 -57.7 0 0 350.79 46.71
  Q 349.97 48.27 348.25 48.25
  Q 338.28 48.15 328.31 48.19
  A 1.29 1.03 -17.7 0 1 327.45 47.86
  L 325.63 45.94
  A 0.77 0.58 52.0 0 0 324.84 45.73
  Q 323.90 46.23 324.04 47.75"
/>
<path stroke="#e0dde5" vector-effect="non-scaling-stroke" d="
  M 351.96 56.75
  L 324.21 57.25"
/>
<path stroke="#5d5e66" vector-effect="non-scaling-stroke" d="
  M 416.00 33.02
  A 0.27 0.27 0.0 0 0 415.73 32.75
  L 388.25 32.75
  A 0.27 0.27 0.0 0 0 387.98 33.02
  L 387.98 43.72
  A 0.27 0.27 0.0 0 0 388.25 43.99
  L 415.73 43.99
  A 0.27 0.27 0.0 0 0 416.00 43.72
  L 416.00 33.02"
/>
</g>
<path fill="#000000" d="
  M 33.06 0.00
  L 565.81 0.00
  L 600.08 21.94
  L 600.00 70.81
  L 564.69 92.00
  L 35.44 92.00
  C 32.11 89.94 0.17 70.35 0.21 69.50
  L 0.21 19.50
  C 0.74 18.10 21.34 6.87 33.06 0.00
  Z
  M 7.58 23.54
  L 7.71 60.00
  L 7.54 64.25
  Q 7.32 65.81 8.94 66.81
  Q 22.58 75.27 37.34 84.54
  A 3.10 3.04 -28.6 0 0 38.96 85.00
  Q 43.16 84.97 47.81 84.97
  Q 280.40 85.15 512.99 85.01
  C 526.64 85.00 544.18 85.38 559.79 84.99
  Q 561.94 84.94 563.80 83.89
  Q 578.13 75.82 591.79 67.43
  A 2.15 2.03 74.5 0 0 592.76 65.60
  L 592.46 51.00
  Q 592.53 39.83 592.50 28.65
  C 592.50 26.84 592.98 25.46 590.79 24.75
  L 563.50 7.79
  L 36.25 7.75
  Q 35.39 7.75 34.71 8.14
  L 7.58 23.54
  Z"
/>
<path fill="#f9f9fd" d="
  M 563.50 7.79
  Q 563.52 8.52 563.25 9.21
  Q 562.08 9.80 562.25 10.77
  L 37.84 10.75
  Q 36.87 10.75 36.08 11.19
  L 23.50 18.21
  L 12.21 24.50
  Q 11.22 24.65 10.71 25.50
  Q 9.08 25.13 7.58 23.54
  L 34.71 8.14
  Q 35.39 7.75 36.25 7.75
  L 563.50 7.79
  Z"
/>
<path fill="#8690b0" d="
  M 563.50 7.79
  L 590.79 24.75
  Q 590.56 26.03 589.62 26.34
  Q 577.81 19.09 566.00 11.75
  Q 563.94 10.47 563.25 9.21
  Q 563.52 8.52 563.50 7.79
  Z"
/>
<path fill="#bdbece" d="
  M 563.25 9.21
  Q 563.94 10.47 566.00 11.75
  Q 577.81 19.09 589.62 26.34
  L 589.38 46.37
  Q 586.82 49.14 583.50 49.25
  Q 579.25 49.39 557.50 49.00
  Q 556.05 48.97 556.21 47.56
  A 1.11 0.83 -15.3 0 1 556.76 46.85
  Q 558.47 45.94 558.00 43.96
  C 561.74 41.52 556.96 42.25 556.04 42.26
  Q 545.87 42.38 535.70 42.08
  A 0.58 0.52 1.1 0 1 535.14 41.56
  L 535.14 33.44
  A 0.57 0.52 -0.6 0 1 535.70 32.92
  L 563.31 32.76
  A 5.44 4.86 -59.0 0 0 566.09 31.90
  L 572.50 27.71
  Q 573.33 27.57 573.47 27.94
  A 0.96 0.28 -41.5 0 1 573.00 28.68
  L 570.99 30.60
  Q 569.55 31.97 571.68 32.01
  Q 576.80 32.09 582.29 32.02
  C 584.96 31.98 587.10 32.50 588.38 29.58
  Q 589.17 27.77 587.56 26.81
  L 571.83 17.42
  L 562.25 10.77
  Q 562.08 9.80 563.25 9.21
  Z"
/>
<path fill="#9ba1bb" d="
  M 562.25 10.77
  L 571.83 17.42
  Q 551.80 19.17 546.25 18.75
  C 534.07 17.82 518.23 18.76 509.92 18.74
  C 493.88 18.71 477.85 18.50 461.81 18.60
  C 452.56 18.65 443.55 18.27 434.07 18.45
  Q 427.38 18.59 420.69 18.44
  C 390.11 17.74 359.44 18.73 328.84 18.33
  C 317.04 18.18 303.37 18.74 293.50 18.70
  C 268.18 18.59 242.63 19.31 217.34 18.32
  C 209.57 18.02 201.96 18.48 194.00 18.25
  Q 190.51 18.15 185.50 18.25
  Q 163.71 18.66 123.50 18.25
  C 114.91 18.16 106.23 18.50 99.16 18.37
  Q 81.83 18.05 64.50 18.25
  Q 63.62 18.26 63.15 18.46
  Q 62.52 18.73 62.25 18.72
  C 51.44 18.01 39.94 18.52 29.37 18.68
  Q 28.49 18.69 27.62 18.83
  Q 24.12 19.40 23.50 18.21
  L 36.08 11.19
  Q 36.87 10.75 37.84 10.75
  L 562.25 10.77
  Z"
/>
<path fill="#a2a8bf" d="
  M 571.83 17.42
  L 587.56 26.81
  Q 589.17 27.77 588.38 29.58
  C 587.10 32.50 584.96 31.98 582.29 32.02
  Q 576.80 32.09 571.68 32.01
  Q 569.55 31.97 570.99 30.60
  L 573.00 28.68
  A 0.96 0.28 -41.5 0 0 573.47 27.94
  Q 573.33 27.57 572.50 27.71
  L 574.36 26.19
  Q 574.83 25.80 574.18 25.80
  L 535.50 25.99
  A 1.70 1.41 -58.0 0 0 534.60 26.29
  L 521.79 35.35
  Q 518.20 36.61 514.56 36.25
  A 0.66 0.63 0.2 0 1 513.98 35.70
  L 513.54 32.00
  L 512.54 29.75
  L 512.45 26.27
  A 0.53 0.51 -88.9 0 0 511.97 25.75
  L 511.50 25.71
  Q 511.68 25.47 511.64 25.22
  A 0.87 0.56 6.7 0 0 511.01 24.70
  C 507.71 23.83 500.96 24.65 498.86 22.84
  A 1.45 1.18 60.8 0 0 498.00 22.50
  Q 485.91 22.48 473.81 22.71
  C 470.64 22.77 467.10 22.31 463.48 23.35
  A 1.55 1.48 -42.6 0 1 462.52 23.33
  C 455.58 20.77 446.53 23.41 438.99 22.41
  C 433.29 21.66 427.91 22.91 422.60 22.60
  C 419.06 22.39 414.58 23.13 411.94 22.56
  C 409.06 21.94 408.09 22.31 405.55 22.32
  Q 381.90 22.44 358.25 22.26
  Q 353.02 22.22 347.87 23.18
  A 0.59 0.44 64.8 0 1 347.35 22.90
  L 347.12 22.57
  A 1.14 0.63 -8.4 0 0 346.26 22.25
  Q 331.47 22.11 316.67 22.30
  C 314.88 22.32 313.13 23.26 311.30 23.00
  C 304.39 22.03 297.01 22.74 290.00 22.46
  C 284.70 22.24 278.53 22.99 273.00 22.50
  C 269.59 22.20 266.30 22.75 263.34 22.60
  Q 254.44 22.15 245.56 23.13
  A 1.77 1.60 51.9 0 1 244.62 22.97
  C 241.82 21.68 239.79 22.16 236.90 22.20
  Q 230.08 22.30 223.26 22.69
  C 216.80 23.07 211.72 22.36 206.11 22.46
  C 200.12 22.57 195.70 22.35 190.51 22.71
  Q 190.05 22.75 189.56 22.51
  Q 187.62 21.58 185.88 22.93
  A 1.03 0.93 -54.6 0 1 185.03 23.12
  Q 182.13 22.32 179.17 22.35
  C 174.01 22.39 168.86 22.46 163.66 22.21
  C 161.33 22.10 155.82 22.01 153.91 23.45
  A 0.59 0.55 49.0 0 1 153.17 23.37
  Q 152.34 22.54 151.19 22.56
  Q 138.73 22.80 128.75 22.25
  Q 123.55 21.96 119.72 23.10
  A 1.56 1.47 44.7 0 1 118.79 23.08
  Q 116.36 22.24 112.50 22.25
  Q 97.35 22.30 91.56 22.48
  Q 79.71 22.86 70.81 30.56
  Q 69.02 32.11 62.46 35.28
  A 0.97 0.93 46.3 0 1 61.58 35.24
  L 45.64 26.34
  Q 43.57 25.78 40.00 25.75
  Q 33.30 25.69 29.56 26.02
  A 0.55 0.52 87.8 0 0 29.08 26.57
  L 29.04 36.00
  L 28.71 27.20
  Q 28.62 24.94 26.50 25.80
  C 22.71 27.33 17.58 25.64 13.31 26.19
  Q 11.73 26.39 12.21 24.50
  L 23.50 18.21
  Q 24.12 19.40 27.62 18.83
  Q 28.49 18.69 29.37 18.68
  C 39.94 18.52 51.44 18.01 62.25 18.72
  Q 62.52 18.73 63.15 18.46
  Q 63.62 18.26 64.50 18.25
  Q 81.83 18.05 99.16 18.37
  C 106.23 18.50 114.91 18.16 123.50 18.25
  Q 163.71 18.66 185.50 18.25
  Q 190.51 18.15 194.00 18.25
  C 201.96 18.48 209.57 18.02 217.34 18.32
  C 242.63 19.31 268.18 18.59 293.50 18.70
  C 303.37 18.74 317.04 18.18 328.84 18.33
  C 359.44 18.73 390.11 17.74 420.69 18.44
  Q 427.38 18.59 434.07 18.45
  C 443.55 18.27 452.56 18.65 461.81 18.60
  C 477.85 18.50 493.88 18.71 509.92 18.74
  C 518.23 18.76 534.07 17.82 546.25 18.75
  Q 551.80 19.17 571.83 17.42
  Z"
/>
<path fill="#000000" d="
  M 0.00 19.44
  L 0.21 19.50
  L 0.21 69.50
  L 0.00 69.44
  L 0.00 19.44
  Z"
/>
<path fill="#a8adc3" d="
  M 511.50 25.71
  L 499.93 25.91
  A 0.55 0.54 0.5 0 0 499.39 26.43
  L 499.21 32.00
  Q 498.91 30.40 498.54 31.56
  A 0.40 0.37 14.9 0 1 498.07 31.81
  Q 497.45 31.65 497.08 32.02
  A 1.04 0.55 68.2 0 0 496.99 32.89
  Q 497.15 33.46 496.93 33.99
  A 0.78 0.69 10.8 0 1 496.18 34.43
  L 489.99 34.05
  Q 489.50 34.02 489.05 34.23
  Q 487.29 35.04 485.64 34.56
  C 482.82 33.74 481.73 26.81 479.25 28.04
  L 477.76 26.19
  A 1.23 1.13 -15.7 0 0 476.93 25.77
  Q 469.13 25.23 461.39 26.42
  Q 460.11 27.54 460.32 28.54
  A 0.81 0.58 69.9 0 1 460.11 29.31
  Q 458.95 30.13 457.50 30.05
  Q 457.00 30.03 456.55 30.21
  C 453.56 31.42 456.36 27.24 453.59 26.21
  L 441.17 25.79
  A 1.12 0.97 -88.4 0 0 440.17 26.88
  L 440.01 33.46
  Q 429.11 38.50 421.44 29.31
  Q 419.76 27.31 414.99 26.14
  Q 414.35 25.70 413.50 25.70
  Q 394.50 25.75 375.28 25.75
  A 0.80 0.80 85.7 0 0 374.49 26.67
  Q 374.78 28.63 374.12 30.07
  Q 372.34 33.14 372.42 36.93
  A 0.52 0.49 88.3 0 1 371.95 37.46
  C 370.97 37.52 367.43 37.95 367.26 36.75
  A 1.19 0.56 89.7 0 0 366.87 35.94
  Q 366.28 35.57 365.50 35.79
  L 351.79 26.70
  Q 350.37 25.75 348.78 25.77
  L 310.50 26.04
  Q 308.01 25.76 308.14 28.18
  A 0.49 0.45 88.8 0 1 307.69 28.69
  L 273.57 28.81
  A 1.54 1.15 -58.2 0 0 272.70 29.15
  C 270.89 30.61 270.62 26.84 268.00 27.04
  L 267.46 26.24
  A 0.98 0.86 71.2 0 0 266.70 25.80
  L 244.81 25.81
  A 0.98 0.84 13.3 0 0 244.01 26.22
  L 242.54 28.75
  Q 242.31 27.45 241.10 28.65
  A 3.77 3.74 -16.7 0 0 240.06 30.56
  Q 239.58 32.93 237.78 32.29
  C 233.00 30.59 227.17 31.64 221.75 31.28
  A 0.84 0.69 -5.7 0 1 221.03 30.80
  C 220.47 29.17 223.51 28.05 221.00 27.71
  L 222.85 26.18
  Q 223.29 25.81 222.69 25.81
  L 181.77 25.74
  A 5.26 2.96 -49.0 0 0 179.11 26.69
  L 174.02 30.08
  Q 171.14 30.48 168.88 32.41
  A 1.08 1.03 -59.5 0 1 168.00 32.66
  Q 161.16 31.46 155.75 32.00
  Q 153.80 32.19 152.95 31.11
  A 0.46 0.43 -32.1 0 1 153.12 30.45
  L 155.49 29.16
  A 0.82 0.61 -21.2 0 0 155.95 28.43
  Q 155.88 28.01 155.50 27.71
  C 159.98 25.03 155.04 25.75 154.05 25.74
  Q 135.50 25.49 117.00 26.12
  C 116.93 25.35 115.54 26.08 115.19 26.35
  C 112.09 28.67 108.09 32.62 104.53 33.90
  A 1.45 1.39 -83.7 0 0 103.81 34.50
  Q 101.86 37.67 99.01 36.80
  Q 96.56 36.06 96.74 33.51
  Q 96.97 30.17 95.54 28.50
  Q 96.22 25.38 93.67 25.64
  C 89.65 26.04 85.24 25.92 80.99 26.01
  A 2.78 2.71 27.3 0 0 79.58 26.44
  L 62.66 37.24
  A 0.82 0.80 43.5 0 1 61.82 37.25
  Q 53.47 32.34 45.64 26.34
  L 61.58 35.24
  A 0.97 0.93 46.3 0 0 62.46 35.28
  Q 69.02 32.11 70.81 30.56
  Q 79.71 22.86 91.56 22.48
  Q 97.35 22.30 112.50 22.25
  Q 116.36 22.24 118.79 23.08
  A 1.56 1.47 44.7 0 0 119.72 23.10
  Q 123.55 21.96 128.75 22.25
  Q 138.73 22.80 151.19 22.56
  Q 152.34 22.54 153.17 23.37
  A 0.59 0.55 49.0 0 0 153.91 23.45
  C 155.82 22.01 161.33 22.10 163.66 22.21
  C 168.86 22.46 174.01 22.39 179.17 22.35
  Q 182.13 22.32 185.03 23.12
  A 1.03 0.93 -54.6 0 0 185.88 22.93
  Q 187.62 21.58 189.56 22.51
  Q 190.05 22.75 190.51 22.71
  C 195.70 22.35 200.12 22.57 206.11 22.46
  C 211.72 22.36 216.80 23.07 223.26 22.69
  Q 230.08 22.30 236.90 22.20
  C 239.79 22.16 241.82 21.68 244.62 22.97
  A 1.77 1.60 51.9 0 0 245.56 23.13
  Q 254.44 22.15 263.34 22.60
  C 266.30 22.75 269.59 22.20 273.00 22.50
  C 278.53 22.99 284.70 22.24 290.00 22.46
  C 297.01 22.74 304.39 22.03 311.30 23.00
  C 313.13 23.26 314.88 22.32 316.67 22.30
  Q 331.47 22.11 346.26 22.25
  A 1.14 0.63 -8.4 0 1 347.12 22.57
  L 347.35 22.90
  A 0.59 0.44 64.8 0 0 347.87 23.18
  Q 353.02 22.22 358.25 22.26
  Q 381.90 22.44 405.55 22.32
  C 408.09 22.31 409.06 21.94 411.94 22.56
  C 414.58 23.13 419.06 22.39 422.60 22.60
  C 427.91 22.91 433.29 21.66 438.99 22.41
  C 446.53 23.41 455.58 20.77 462.52 23.33
  A 1.55 1.48 -42.6 0 0 463.48 23.35
  C 467.10 22.31 470.64 22.77 473.81 22.71
  Q 485.91 22.48 498.00 22.50
  A 1.45 1.18 60.8 0 1 498.86 22.84
  C 500.96 24.65 507.71 23.83 511.01 24.70
  A 0.87 0.56 6.7 0 1 511.64 25.22
  Q 511.68 25.47 511.50 25.71
  Z"
/>
<path fill="#c9c9d4" d="
  M 7.58 23.54
  Q 9.08 25.13 10.71 25.50
  L 11.25 36.29
  L 11.00 40.75
  Q 10.95 41.66 13.94 43.06
  Q 17.90 44.91 24.51 43.90
  A 4.76 4.74 19.8 0 0 26.95 42.76
  Q 27.47 42.31 28.22 43.33
  A 1.52 0.37 89.1 0 1 28.46 44.25
  L 28.71 46.75
  L 28.86 53.28
  Q 22.62 55.39 16.08 54.74
  C 13.44 54.47 11.65 53.02 9.68 51.37
  A 0.37 0.37 31.2 0 0 9.10 51.51
  Q 7.73 54.85 8.00 58.21
  Q 7.59 59.04 7.71 60.00
  L 7.58 23.54
  Z"
/>
<path fill="#b0b3c6" d="
  M 12.21 24.50
  Q 11.73 26.39 13.31 26.19
  C 17.58 25.64 22.71 27.33 26.50 25.80
  Q 28.62 24.94 28.71 27.20
  L 29.04 36.00
  L 29.04 58.00
  L 28.86 53.28
  L 28.71 46.75
  L 28.74 37.66
  A 0.78 0.77 -10.6 0 0 27.68 36.94
  C 23.71 38.50 15.23 38.69 11.25 36.29
  L 10.71 25.50
  Q 11.22 24.65 12.21 24.50
  Z"
/>
<path fill="#3f3f46" d="
  M 590.79 24.75
  C 592.98 25.46 592.50 26.84 592.50 28.65
  Q 592.53 39.83 592.46 51.00
  Q 591.91 57.92 589.73 64.55
  L 589.46 56.50
  L 589.38 46.37
  L 589.62 26.34
  Q 590.56 26.03 590.79 24.75
  Z"
/>
<path fill="#000000" d="
  M 45.64 26.34
  Q 53.47 32.34 61.82 37.25
  A 0.82 0.80 43.5 0 0 62.66 37.24
  L 79.58 26.44
  A 2.78 2.71 27.3 0 1 80.99 26.01
  C 85.24 25.92 89.65 26.04 93.67 25.64
  Q 96.22 25.38 95.54 28.50
  L 95.54 45.50
  L 95.50 64.47
  A 0.99 0.93 -89.4 0 1 94.55 65.46
  L 81.91 65.21
  L 81.96 60.00
  L 82.00 35.43
  Q 82.00 34.40 81.12 34.93
  L 70.09 41.49
  Q 68.86 42.23 70.24 42.67
  Q 71.31 43.01 71.59 43.69
  A 0.41 0.36 -9.7 0 1 71.19 44.19
  C 67.42 44.26 60.48 45.13 57.25 43.22
  Q 50.11 39.01 42.98 34.64
  Q 42.48 34.33 42.51 34.88
  L 42.74 40.20
  L 42.51 64.93
  A 0.58 0.57 -89.5 0 1 41.94 65.50
  L 29.66 65.50
  A 0.69 0.67 90.0 0 1 28.99 64.81
  L 28.96 61.25
  L 29.04 58.00
  L 29.04 36.00
  L 29.08 26.57
  A 0.55 0.52 87.8 0 1 29.56 26.02
  Q 33.30 25.69 40.00 25.75
  Q 43.57 25.78 45.64 26.34
  Z"
/>
<path fill="#c5c5d2" d="
  M 117.00 26.12
  L 104.97 35.52
  A 1.10 0.99 -20.2 0 0 104.55 36.32
  L 104.46 44.50
  Q 104.37 42.82 103.39 43.44
  A 1.06 0.83 77.8 0 0 103.00 44.25
  L 102.95 53.19
  A 0.53 0.46 -0.6 0 1 102.43 53.65
  L 97.85 53.72
  A 0.84 0.78 -0.4 0 1 97.00 52.94
  L 97.00 49.50
  A 1.64 1.27 32.4 0 0 96.68 48.61
  Q 95.66 47.27 95.54 45.50
  L 95.54 28.50
  Q 96.97 30.17 96.74 33.51
  Q 96.56 36.06 99.01 36.80
  Q 101.86 37.67 103.81 34.50
  A 1.45 1.39 -83.7 0 1 104.53 33.90
  C 108.09 32.62 112.09 28.67 115.19 26.35
  C 115.54 26.08 116.93 25.35 117.00 26.12
  Z"
/>
<path fill="#000000" d="
  M 155.50 27.71
  L 148.11 32.40
  A 1.86 1.52 -56.6 0 1 147.18 32.69
  L 118.52 32.75
  A 0.52 0.52 90.0 0 0 118.00 33.27
  L 118.00 41.59
  A 0.68 0.67 0.0 0 0 118.68 42.26
  L 142.54 42.50
  L 136.41 47.22
  A 1.62 1.20 19.4 0 1 135.50 47.50
  L 118.50 47.50
  A 0.50 0.50 0.0 0 0 118.00 48.00
  L 118.04 57.00
  L 118.00 57.95
  A 0.55 0.46 1.5 0 0 118.55 58.44
  L 156.75 58.46
  Q 157.18 58.50 157.50 58.79
  L 147.93 65.25
  A 1.85 1.32 20.4 0 1 147.00 65.50
  L 105.17 65.50
  A 0.67 0.67 0.0 0 1 104.50 64.83
  L 104.46 44.50
  L 104.55 36.32
  A 1.10 0.99 -20.2 0 1 104.97 35.52
  L 117.00 26.12
  Q 135.50 25.49 154.05 25.74
  C 155.04 25.75 159.98 25.03 155.50 27.71
  Z"
/>
<path fill="#000000" d="
  M 221.00 27.71
  L 214.16 32.20
  A 1.82 1.26 -53.5 0 1 213.25 32.51
  L 181.06 32.82
  A 0.58 0.56 4.0 0 0 180.49 33.30
  Q 179.89 37.52 180.46 41.75
  Q 180.37 42.67 180.72 43.44
  L 180.44 57.97
  A 0.54 0.52 1.7 0 0 180.96 58.50
  Q 194.66 59.04 208.27 57.78
  L 208.25 48.06
  A 0.56 0.55 90.0 0 0 207.70 47.50
  L 194.20 47.50
  Q 192.94 47.50 194.01 46.87
  L 202.00 42.21
  Q 210.75 42.28 219.49 42.25
  C 220.49 42.25 221.70 41.79 221.79 43.25
  L 221.69 54.94
  A 1.04 0.96 73.1 0 1 221.30 55.75
  L 208.87 64.97
  A 3.04 2.60 23.3 0 1 207.17 65.50
  Q 187.00 65.50 168.00 65.50
  Q 166.26 65.50 166.79 63.75
  L 166.79 49.00
  L 166.69 37.65
  Q 166.67 35.96 168.03 34.88
  L 174.02 30.08
  L 179.11 26.69
  A 5.26 2.96 -49.0 0 1 181.77 25.74
  L 222.69 25.81
  Q 223.29 25.81 222.85 26.18
  L 221.00 27.71
  Z"
/>
<path fill="#000000" d="
  M 268.00 27.04
  Q 268.35 28.28 269.21 29.25
  L 275.42 41.76
  A 0.92 0.87 -12.4 0 0 276.23 42.25
  C 280.15 42.25 284.32 42.50 288.21 42.18
  Q 291.95 41.87 288.75 43.96
  C 285.06 46.49 284.26 47.89 279.33 47.44
  Q 278.16 47.33 278.70 48.35
  L 283.30 56.93
  L 287.17 64.86
  A 0.45 0.43 76.7 0 1 286.79 65.50
  L 272.74 65.50
  A 0.86 0.80 75.4 0 1 272.01 65.04
  L 263.99 50.00
  Q 264.03 48.82 263.33 47.88
  A 1.12 0.94 -15.6 0 0 262.49 47.50
  L 248.99 47.50
  A 1.26 0.99 17.0 0 0 248.14 47.83
  Q 247.41 48.63 247.50 49.77
  L 239.41 64.99
  A 0.88 0.79 -74.0 0 1 238.69 65.44
  L 225.02 65.50
  A 0.65 0.65 -76.5 0 1 224.44 64.55
  L 237.79 38.00
  L 242.54 28.75
  L 244.01 26.22
  A 0.98 0.84 13.3 0 1 244.81 25.81
  L 266.70 25.80
  A 0.98 0.86 71.2 0 1 267.46 26.24
  L 268.00 27.04
  Z
  M 251.25 41.75
  A 0.35 0.35 13.8 0 0 251.56 42.26
  L 259.91 42.24
  A 0.35 0.35 -13.3 0 0 260.22 41.73
  L 256.03 33.45
  A 0.35 0.35 0.0 0 0 255.41 33.45
  L 251.25 41.75
  Z"
/>
<path fill="#000000" d="
  M 365.50 35.79
  L 365.54 39.50
  L 365.44 54.94
  A 0.98 0.90 74.4 0 1 365.04 55.73
  L 350.64 65.22
  A 2.03 1.57 22.5 0 1 349.62 65.50
  L 311.16 65.50
  A 0.67 0.66 90.0 0 1 310.50 64.83
  L 310.46 47.50
  L 310.46 30.50
  L 310.50 26.04
  L 348.78 25.77
  Q 350.37 25.75 351.79 26.70
  L 365.50 35.79
  Z
  M 324.04 47.75
  L 324.21 57.25
  Q 323.91 57.69 324.00 58.07
  A 0.82 0.54 -4.0 0 0 324.76 58.50
  Q 337.22 58.50 349.68 58.50
  C 350.98 58.50 352.82 59.02 351.96 56.75
  L 351.96 47.75
  L 351.95 33.31
  A 0.52 0.50 0.0 0 0 351.43 32.81
  L 324.50 32.75
  A 0.50 0.50 0.0 0 0 324.00 33.25
  L 324.04 47.75
  Z"
/>
<path fill="#000000" d="
  M 414.99 26.14
  L 429.46 37.50
  L 429.34 48.57
  A 0.52 0.49 0.0 0 1 428.82 49.06
  L 407.23 49.00
  Q 406.40 49.00 407.08 49.45
  L 416.31 55.62
  L 428.95 64.82
  Q 429.79 65.43 428.77 65.44
  L 414.96 65.50
  A 1.78 1.69 61.7 0 1 413.95 65.17
  L 393.75 50.96
  Q 391.67 48.63 388.67 49.09
  A 0.61 0.60 85.6 0 0 388.16 49.69
  L 388.04 60.00
  L 387.86 64.82
  A 0.56 0.53 -0.0 0 1 387.31 65.34
  L 375.33 65.48
  A 0.86 0.82 89.7 0 1 374.50 64.62
  L 374.46 42.50
  Q 374.81 36.51 374.12 30.07
  Q 374.78 28.63 374.49 26.67
  A 0.80 0.80 85.7 0 1 375.28 25.75
  Q 394.50 25.75 413.50 25.70
  Q 414.35 25.70 414.99 26.14
  Z
  M 416.00 33.02
  A 0.27 0.27 0.0 0 0 415.73 32.75
  L 388.25 32.75
  A 0.27 0.27 0.0 0 0 387.98 33.02
  L 387.98 43.72
  A 0.27 0.27 0.0 0 0 388.25 43.99
  L 415.73 43.99
  A 0.27 0.27 0.0 0 0 416.00 43.72
  L 416.00 33.02
  Z"
/>
<path fill="#000000" d="
  M 453.59 26.21
  L 453.54 34.75
  L 453.71 50.69
  L 453.50 64.94
  A 0.55 0.53 -89.5 0 1 452.96 65.49
  L 440.83 65.44
  A 0.63 0.60 89.5 0 1 440.23 64.82
  L 440.21 61.25
  L 440.21 45.00
  L 440.01 33.46
  L 440.17 26.88
  A 1.12 0.97 -88.4 0 1 441.17 25.79
  L 453.59 26.21
  Z"
/>
<path fill="#000000" d="
  M 479.25 28.04
  L 487.46 41.00
  L 498.73 59.08
  Q 499.03 59.56 499.03 59.00
  L 499.21 46.00
  L 499.21 32.00
  L 499.39 26.43
  A 0.55 0.54 0.5 0 1 499.93 25.91
  L 511.50 25.71
  L 511.97 25.75
  A 0.53 0.51 -88.9 0 1 512.45 26.27
  L 512.54 29.75
  L 512.50 54.76
  A 2.02 1.83 70.0 0 1 511.93 56.16
  L 502.80 65.10
  A 1.27 1.18 21.1 0 1 501.93 65.45
  L 485.07 65.45
  A 0.96 0.82 72.0 0 1 484.32 64.99
  L 473.78 47.55
  L 466.25 34.96
  L 461.39 26.42
  Q 469.13 25.23 476.93 25.77
  A 1.23 1.13 -15.7 0 1 477.76 26.19
  L 479.25 28.04
  Z"
/>
<path fill="#000000" d="
  M 572.50 27.71
  L 566.09 31.90
  A 5.44 4.86 -59.0 0 1 563.31 32.76
  L 535.70 32.92
  A 0.57 0.52 -0.6 0 0 535.14 33.44
  L 535.14 41.56
  A 0.58 0.52 1.1 0 0 535.70 42.08
  Q 545.87 42.38 556.04 42.26
  C 556.96 42.25 561.74 41.52 558.00 43.96
  L 553.59 47.14
  A 1.64 1.45 -59.9 0 1 552.69 47.44
  L 535.82 47.50
  A 0.53 0.51 1.1 0 0 535.29 47.99
  L 535.04 57.25
  Q 534.88 57.71 535.00 58.08
  A 0.84 0.60 -6.3 0 0 535.75 58.50
  L 574.27 58.56
  Q 575.40 58.56 574.45 59.18
  L 565.17 65.23
  A 1.68 1.61 -59.9 0 1 564.24 65.50
  L 521.46 65.26
  L 521.46 36.00
  Q 521.63 35.84 521.79 35.35
  L 534.60 26.29
  A 1.70 1.41 -58.0 0 1 535.50 25.99
  L 574.18 25.80
  Q 574.83 25.80 574.36 26.19
  L 572.50 27.71
  Z"
/>
<path fill="#b0b3c6" d="
  M 310.50 26.04
  L 310.46 30.50
  C 308.69 27.16 308.77 34.23 308.74 34.45
  A 0.53 0.52 4.0 0 1 308.19 34.92
  Q 294.71 34.49 281.24 34.90
  C 278.84 34.97 277.06 34.56 274.63 35.71
  A 0.50 0.48 -25.8 0 1 273.97 35.49
  C 273.48 34.52 270.63 27.34 269.21 29.25
  Q 268.35 28.28 268.00 27.04
  C 270.62 26.84 270.89 30.61 272.70 29.15
  A 1.54 1.15 -58.2 0 1 273.57 28.81
  L 307.69 28.69
  A 0.49 0.45 88.8 0 0 308.14 28.18
  Q 308.01 25.76 310.50 26.04
  Z"
/>
<path fill="#bdbece" d="
  M 440.01 33.46
  L 440.21 45.00
  Q 436.21 46.33 432.01 46.49
  A 0.70 0.68 -9.7 0 1 431.34 46.03
  Q 430.10 42.12 430.75 39.25
  Q 431.43 36.24 429.46 37.50
  L 414.99 26.14
  Q 419.76 27.31 421.44 29.31
  Q 429.11 38.50 440.01 33.46
  Z"
/>
<path fill="#bdbece" d="
  M 453.59 26.21
  C 456.36 27.24 453.56 31.42 456.55 30.21
  Q 457.00 30.03 457.50 30.05
  Q 458.95 30.13 460.11 29.31
  A 0.81 0.58 69.9 0 0 460.32 28.54
  Q 460.11 27.54 461.39 26.42
  L 466.25 34.96
  C 464.60 35.79 467.20 35.89 466.78 37.23
  A 1.14 1.01 -53.1 0 0 466.85 38.11
  L 471.04 45.55
  A 0.33 0.32 -14.4 0 1 470.75 46.03
  L 455.69 46.09
  A 0.53 0.50 90.0 0 1 455.19 45.56
  Q 455.21 40.01 453.54 34.75
  L 453.59 26.21
  Z"
/>
<path fill="#babccc" d="
  M 155.50 27.71
  Q 155.88 28.01 155.95 28.43
  A 0.82 0.61 -21.2 0 1 155.49 29.16
  L 153.12 30.45
  A 0.46 0.43 -32.1 0 0 152.95 31.11
  Q 153.80 32.19 155.75 32.00
  Q 161.16 31.46 168.00 32.66
  A 1.08 1.03 -59.5 0 0 168.88 32.41
  Q 171.14 30.48 174.02 30.08
  L 168.03 34.88
  Q 166.67 35.96 166.69 37.65
  L 166.79 49.00
  C 166.71 47.30 167.18 37.97 165.04 42.11
  A 1.43 1.23 -83.1 0 1 164.34 42.75
  Q 161.77 43.74 159.03 43.66
  C 154.32 43.52 149.69 43.70 144.99 43.52
  A 1.19 0.83 65.2 0 1 144.24 43.08
  Q 143.63 42.33 142.54 42.50
  L 118.68 42.26
  A 0.68 0.67 -0.0 0 1 118.00 41.59
  L 118.00 33.27
  A 0.52 0.52 -89.2 0 1 118.52 32.75
  L 147.18 32.69
  A 1.86 1.52 -56.6 0 0 148.11 32.40
  L 155.50 27.71
  Z"
/>
<path fill="#babccc" d="
  M 221.00 27.71
  C 223.51 28.05 220.47 29.17 221.03 30.80
  A 0.84 0.69 -5.7 0 0 221.75 31.28
  C 227.17 31.64 233.00 30.59 237.78 32.29
  Q 239.58 32.93 240.06 30.56
  A 3.77 3.74 -16.7 0 1 241.10 28.65
  Q 242.31 27.45 242.54 28.75
  L 237.79 38.00
  C 238.40 35.91 237.27 36.27 236.74 37.34
  Q 234.49 41.87 232.14 46.56
  Q 228.48 47.46 224.50 47.06
  A 1.29 1.13 -13.2 0 1 223.67 46.62
  Q 222.81 45.50 222.79 44.00
  Q 222.82 42.93 221.79 43.25
  C 221.70 41.79 220.49 42.25 219.49 42.25
  Q 210.75 42.28 202.00 42.21
  C 201.85 41.23 201.21 41.05 200.39 41.60
  Q 197.36 43.60 193.96 44.77
  C 190.53 45.95 187.01 45.03 183.18 45.94
  A 0.66 0.62 -19.5 0 1 182.45 45.62
  C 182.35 45.42 180.87 39.50 180.46 41.75
  Q 179.89 37.52 180.49 33.30
  A 0.58 0.56 4.0 0 1 181.06 32.82
  L 213.25 32.51
  A 1.82 1.26 -53.5 0 0 214.16 32.20
  L 221.00 27.71
  Z"
/>
<path fill="#bdbece" d="
  M 499.21 32.00
  L 499.21 46.00
  Q 499.02 44.53 498.63 45.40
  A 0.66 0.63 7.0 0 1 498.12 45.78
  C 496.33 46.05 496.28 48.14 494.48 48.84
  A 0.67 0.63 61.5 0 1 493.72 48.59
  C 491.87 45.81 488.79 39.92 487.46 41.00
  L 479.25 28.04
  C 481.73 26.81 482.82 33.74 485.64 34.56
  Q 487.29 35.04 489.05 34.23
  Q 489.50 34.02 489.99 34.05
  L 496.18 34.43
  A 0.78 0.69 10.8 0 0 496.93 33.99
  Q 497.15 33.46 496.99 32.89
  A 1.04 0.55 68.2 0 1 497.08 32.02
  Q 497.45 31.65 498.07 31.81
  A 0.40 0.37 14.9 0 0 498.54 31.56
  Q 498.91 30.40 499.21 32.00
  Z"
/>
<path fill="#bdbece" d="
  M 310.46 30.50
  L 310.46 47.50
  Q 308.68 43.95 308.96 48.75
  Q 305.60 48.01 302.19 48.13
  C 297.43 48.29 293.03 48.24 288.43 48.19
  A 0.46 0.38 -2.0 0 1 287.98 47.84
  C 287.91 47.04 290.52 48.61 288.15 46.61
  Q 287.56 46.11 288.29 45.86
  Q 289.87 45.31 288.75 43.96
  Q 291.95 41.87 288.21 42.18
  C 284.32 42.50 280.15 42.25 276.23 42.25
  A 0.92 0.87 -12.4 0 1 275.42 41.76
  L 269.21 29.25
  C 270.63 27.34 273.48 34.52 273.97 35.49
  A 0.50 0.48 -25.8 0 0 274.63 35.71
  C 277.06 34.56 278.84 34.97 281.24 34.90
  Q 294.71 34.49 308.19 34.92
  A 0.53 0.52 4.0 0 0 308.74 34.45
  C 308.77 34.23 308.69 27.16 310.46 30.50
  Z"
/>
<path fill="#e8e3e5" d="
  M 512.54 29.75
  L 513.54 32.00
  L 513.93 55.18
  A 1.97 1.50 -37.4 0 1 513.68 56.10
  Q 513.13 57.07 513.07 58.18
  A 0.53 0.49 -88.3 0 0 513.56 58.75
  L 518.07 58.65
  Q 518.56 58.64 519.01 58.80
  Q 520.00 59.15 520.21 57.50
  C 520.25 59.08 519.37 65.07 521.46 65.26
  L 564.24 65.50
  A 1.68 1.61 -59.9 0 0 565.17 65.23
  L 574.45 59.18
  Q 575.40 58.56 574.27 58.56
  L 535.75 58.50
  A 0.84 0.60 -6.3 0 1 535.00 58.08
  Q 534.88 57.71 535.04 57.25
  Q 535.17 54.79 535.93 56.20
  A 1.93 1.92 75.4 0 0 537.61 57.19
  L 573.19 57.06
  A 1.44 0.97 -15.3 0 1 574.09 57.36
  L 574.86 58.06
  A 1.43 0.75 54.2 0 0 575.70 58.48
  L 585.99 58.54
  A 1.04 0.80 -69.2 0 0 586.75 58.07
  Q 587.72 56.59 589.46 56.50
  L 589.73 64.55
  L 579.34 70.38
  Q 576.06 69.92 573.39 71.94
  A 0.89 0.89 -53.6 0 1 572.54 72.07
  C 569.89 71.10 566.74 71.90 564.58 71.78
  C 559.75 71.49 555.40 72.57 550.88 72.19
  C 542.53 71.49 533.36 71.55 524.97 71.99
  C 519.67 72.27 512.18 71.74 509.11 71.73
  Q 477.46 71.63 445.81 71.75
  C 435.09 71.79 424.38 71.65 413.66 72.06
  C 409.86 72.21 405.46 71.34 401.31 71.48
  Q 389.38 71.89 377.44 71.65
  Q 351.96 71.11 326.49 71.93
  C 324.13 72.01 321.29 71.38 318.54 71.67
  Q 314.40 72.10 312.80 72.03
  C 304.85 71.66 296.74 72.25 289.07 71.96
  C 276.50 71.50 264.33 72.40 252.25 71.50
  Q 246.86 71.10 236.98 71.66
  C 231.54 71.97 225.77 71.65 219.75 71.75
  C 191.40 72.24 158.10 71.13 127.24 72.23
  A 1.62 1.23 54.6 0 1 126.35 71.95
  C 124.68 70.82 105.51 71.77 102.01 71.86
  C 93.35 72.09 85.52 71.82 77.23 71.62
  C 71.19 71.47 63.56 72.60 56.42 71.63
  C 53.13 71.19 50.03 71.97 46.64 71.59
  C 44.08 71.30 42.01 72.05 39.25 71.75
  C 35.44 71.33 29.07 72.49 24.95 70.75
  C 24.42 70.52 17.71 66.73 17.96 68.50
  L 10.87 64.30
  A 1.73 1.04 -20.1 0 0 9.94 64.12
  L 7.54 64.25
  L 7.71 60.00
  Q 7.59 59.04 8.00 58.21
  Q 10.52 58.12 11.56 60.69
  C 12.62 63.29 14.88 62.46 16.88 62.57
  Q 20.83 62.78 24.76 62.53
  A 1.39 1.04 -64.2 0 0 25.57 62.11
  Q 26.85 60.76 28.96 61.25
  L 28.99 64.81
  A 0.69 0.67 90.0 0 0 29.66 65.50
  L 41.94 65.50
  A 0.58 0.57 -89.5 0 0 42.51 64.93
  L 42.74 40.20
  Q 44.47 45.93 43.79 52.00
  Q 43.39 57.78 44.20 63.16
  A 0.95 0.94 83.8 0 0 45.20 63.97
  C 52.28 63.49 59.68 64.24 66.86 64.11
  C 70.01 64.06 74.89 64.34 79.01 63.75
  A 1.37 1.37 83.9 0 0 80.18 62.30
  Q 80.07 60.77 81.31 61.28
  A 0.87 0.63 -84.0 0 1 81.72 61.99
  L 81.91 65.21
  L 94.55 65.46
  A 0.99 0.93 -89.4 0 0 95.50 64.47
  L 95.54 45.50
  Q 95.66 47.27 96.68 48.61
  A 1.64 1.27 32.4 0 1 97.00 49.50
  L 97.00 52.94
  A 0.84 0.78 -0.4 0 0 97.85 53.72
  L 102.43 53.65
  A 0.53 0.46 -0.6 0 0 102.95 53.19
  L 103.00 44.25
  A 1.06 0.83 77.8 0 1 103.39 43.44
  Q 104.37 42.82 104.46 44.50
  L 104.50 64.83
  A 0.67 0.67 0.0 0 0 105.17 65.50
  L 147.00 65.50
  A 1.85 1.32 20.4 0 0 147.93 65.25
  L 157.50 58.79
  L 161.75 58.75
  Q 162.75 58.74 164.56 56.31
  L 166.13 54.21
  Q 166.44 53.80 166.46 54.32
  L 166.79 63.75
  Q 166.26 65.50 168.00 65.50
  Q 187.00 65.50 207.17 65.50
  A 3.04 2.60 23.3 0 0 208.87 64.97
  L 221.30 55.75
  A 1.04 0.96 73.1 0 0 221.69 54.94
  L 221.79 43.25
  Q 222.82 42.93 222.79 44.00
  C 222.72 47.57 223.67 54.25 222.19 57.30
  A 0.88 0.87 37.0 0 0 222.33 58.27
  Q 223.89 59.98 224.80 59.49
  C 226.59 58.52 231.12 48.76 232.14 46.56
  Q 234.49 41.87 236.74 37.34
  C 237.27 36.27 238.40 35.91 237.79 38.00
  L 224.44 64.55
  A 0.65 0.65 -76.5 0 0 225.02 65.50
  L 238.69 65.44
  A 0.88 0.79 -74.0 0 0 239.41 64.99
  L 247.50 49.77
  Q 246.74 54.53 243.81 58.81
  Q 243.04 59.94 242.95 61.44
  Q 242.92 61.86 242.68 62.37
  C 242.13 63.50 242.85 64.00 243.95 64.00
  Q 255.32 64.05 266.69 64.18
  A 1.63 1.24 21.4 0 0 267.60 63.92
  Q 269.87 62.29 267.94 59.56
  Q 265.12 55.59 263.99 50.00
  L 272.01 65.04
  A 0.86 0.80 75.4 0 0 272.74 65.50
  L 286.79 65.50
  A 0.45 0.43 76.7 0 0 287.17 64.86
  L 283.30 56.93
  Q 286.00 58.22 286.64 60.80
  Q 287.19 63.04 289.61 63.03
  L 308.18 62.92
  A 0.55 0.49 0.5 0 0 308.73 62.44
  L 308.96 48.75
  Q 308.68 43.95 310.46 47.50
  L 310.50 64.83
  A 0.67 0.66 -90.0 0 0 311.16 65.50
  L 349.62 65.50
  A 2.03 1.57 22.5 0 0 350.64 65.22
  L 365.04 55.73
  A 0.98 0.90 74.4 0 0 365.44 54.94
  L 365.54 39.50
  L 366.46 39.96
  A 0.77 0.54 18.7 0 1 366.90 40.56
  Q 366.70 44.17 367.00 53.25
  Q 367.08 55.74 369.02 55.37
  Q 369.51 55.28 369.98 55.39
  Q 371.52 55.76 372.60 54.79
  A 1.19 1.09 70.4 0 0 372.96 53.94
  L 373.02 42.25
  A 0.53 0.43 -88.1 0 1 373.49 41.71
  Q 374.16 41.76 374.46 42.50
  L 374.50 64.62
  A 0.86 0.82 89.7 0 0 375.33 65.48
  L 387.31 65.34
  A 0.56 0.53 -0.0 0 0 387.86 64.82
  L 388.04 60.00
  C 389.20 59.14 388.42 57.52 388.96 57.19
  A 0.66 0.44 57.2 0 1 389.67 57.50
  L 390.43 58.62
  A 0.99 0.77 -15.6 0 0 391.26 58.96
  C 393.37 58.77 403.52 59.75 398.97 56.12
  C 397.52 54.96 392.23 52.31 393.75 50.96
  L 413.95 65.17
  A 1.78 1.69 61.7 0 0 414.96 65.50
  L 428.77 65.44
  Q 429.79 65.43 428.95 64.82
  L 416.31 55.62
  Q 421.15 57.43 425.14 60.70
  C 429.55 64.30 435.65 63.15 440.21 61.25
  L 440.23 64.82
  A 0.63 0.60 89.5 0 0 440.83 65.44
  L 452.96 65.49
  A 0.55 0.53 -89.5 0 0 453.50 64.94
  L 453.71 50.69
  Q 455.65 54.97 455.04 59.47
  A 1.00 1.00 2.4 0 0 456.08 60.60
  C 463.13 60.24 469.99 60.76 476.70 60.53
  Q 481.11 60.38 478.32 56.95
  Q 474.90 52.74 473.78 47.55
  L 484.32 64.99
  A 0.96 0.82 72.0 0 0 485.07 65.45
  L 501.93 65.45
  A 1.27 1.18 21.1 0 0 502.80 65.10
  L 511.93 56.16
  A 2.02 1.83 70.0 0 0 512.50 54.76
  L 512.54 29.75
  Z"
/>
<path fill="#c5c5d2" d="
  M 374.12 30.07
  Q 374.81 36.51 374.46 42.50
  Q 374.16 41.76 373.49 41.71
  A 0.53 0.43 -88.1 0 0 373.02 42.25
  L 372.96 53.94
  A 1.19 1.09 70.4 0 1 372.60 54.79
  Q 371.52 55.76 369.98 55.39
  Q 369.51 55.28 369.02 55.37
  Q 367.08 55.74 367.00 53.25
  Q 366.70 44.17 366.90 40.56
  A 0.77 0.54 18.7 0 0 366.46 39.96
  L 365.54 39.50
  L 365.50 35.79
  Q 366.28 35.57 366.87 35.94
  A 1.19 0.56 89.7 0 1 367.26 36.75
  C 367.43 37.95 370.97 37.52 371.95 37.46
  A 0.52 0.49 88.3 0 0 372.42 36.93
  Q 372.34 33.14 374.12 30.07
  Z"
/>
<path fill="#c9c9d4" d="
  M 513.54 32.00
  L 513.98 35.70
  A 0.66 0.63 0.2 0 0 514.56 36.25
  Q 518.20 36.61 521.79 35.35
  Q 521.63 35.84 521.46 36.00
  Q 520.23 36.20 520.25 37.75
  Q 520.31 43.21 520.21 57.50
  Q 520.00 59.15 519.01 58.80
  Q 518.56 58.64 518.07 58.65
  L 513.56 58.75
  A 0.53 0.49 -88.3 0 1 513.07 58.18
  Q 513.13 57.07 513.68 56.10
  A 1.97 1.50 -37.4 0 0 513.93 55.18
  L 513.54 32.00
  Z"
/>
<path fill="#bfc0cf" d="
  M 351.96 47.75
  Q 351.95 46.92 351.44 46.50
  A 0.48 0.40 -57.7 0 0 350.79 46.71
  Q 349.97 48.27 348.25 48.25
  Q 338.28 48.15 328.31 48.19
  A 1.29 1.03 -17.7 0 1 327.45 47.86
  L 325.63 45.94
  A 0.77 0.58 52.0 0 0 324.84 45.73
  Q 323.90 46.23 324.04 47.75
  L 324.00 33.25
  A 0.50 0.50 0.0 0 1 324.50 32.75
  L 351.43 32.81
  A 0.52 0.50 -0.0 0 1 351.95 33.31
  L 351.96 47.75
  Z"
/>
<rect fill="#babccc" x="387.98" y="32.75" width="28.02" height="11.24" rx="0.27"/>
<path fill="#c5c5d2" d="
  M 251.25 41.75
  L 255.41 33.45
  A 0.35 0.35 0.0 0 1 256.03 33.45
  L 260.22 41.73
  A 0.35 0.35 -13.6 0 1 259.91 42.24
  L 251.56 42.26
  A 0.35 0.35 13.8 0 1 251.25 41.75
  Z"
/>
<path fill="#c9c9d4" d="
  M 81.96 60.00
  L 81.06 50.67
  Q 80.98 49.87 80.56 50.56
  C 78.41 54.11 75.90 52.80 72.65 52.83
  C 63.59 52.91 53.95 51.87 45.00 52.94
  A 0.63 0.47 75.0 0 1 44.46 52.51
  Q 44.31 52.11 43.79 52.00
  Q 44.47 45.93 42.74 40.20
  L 42.51 34.88
  Q 42.48 34.33 42.98 34.64
  Q 50.11 39.01 57.25 43.22
  C 60.48 45.13 67.42 44.26 71.19 44.19
  A 0.41 0.36 -9.7 0 0 71.59 43.69
  Q 71.31 43.01 70.24 42.67
  Q 68.86 42.23 70.09 41.49
  L 81.12 34.93
  Q 82.00 34.40 82.00 35.43
  L 81.96 60.00
  Z"
/>
<path fill="#d2d1d9" d="
  M 453.54 34.75
  Q 455.21 40.01 455.19 45.56
  A 0.53 0.50 90.0 0 0 455.69 46.09
  L 470.75 46.03
  A 0.33 0.32 -14.4 0 0 471.04 45.55
  L 466.85 38.11
  A 1.14 1.01 -53.1 0 1 466.78 37.23
  C 467.20 35.89 464.60 35.79 466.25 34.96
  L 473.78 47.55
  Q 474.90 52.74 478.32 56.95
  Q 481.11 60.38 476.70 60.53
  C 469.99 60.76 463.13 60.24 456.08 60.60
  A 1.00 1.00 2.4 0 1 455.04 59.47
  Q 455.65 54.97 453.71 50.69
  L 453.54 34.75
  Z"
/>
<path fill="#f9f9fd" d="
  M 521.46 36.00
  L 521.46 65.26
  C 519.37 65.07 520.25 59.08 520.21 57.50
  Q 520.31 43.21 520.25 37.75
  Q 520.23 36.20 521.46 36.00
  Z"
/>
<path fill="#bfc0cf" d="
  M 11.25 36.29
  C 15.23 38.69 23.71 38.50 27.68 36.94
  A 0.78 0.77 -10.6 0 1 28.74 37.66
  L 28.71 46.75
  L 28.46 44.25
  A 1.52 0.37 89.1 0 0 28.22 43.33
  Q 27.47 42.31 26.95 42.76
  A 4.76 4.74 19.8 0 1 24.51 43.90
  Q 17.90 44.91 13.94 43.06
  Q 10.95 41.66 11.00 40.75
  L 11.25 36.29
  Z"
/>
<path fill="#d5d3da" d="
  M 440.21 45.00
  L 440.21 61.25
  C 435.65 63.15 429.55 64.30 425.14 60.70
  Q 421.15 57.43 416.31 55.62
  L 407.08 49.45
  Q 406.40 49.00 407.23 49.00
  L 428.82 49.06
  A 0.52 0.49 0.0 0 0 429.34 48.57
  L 429.46 37.50
  Q 431.43 36.24 430.75 39.25
  Q 430.10 42.12 431.34 46.03
  A 0.70 0.68 -9.7 0 0 432.01 46.49
  Q 436.21 46.33 440.21 45.00
  Z"
/>
<path fill="#d0ced7" d="
  M 166.79 49.00
  L 166.79 63.75
  L 166.46 54.32
  Q 166.44 53.80 166.13 54.21
  L 164.56 56.31
  Q 162.75 58.74 161.75 58.75
  L 157.50 58.79
  Q 157.18 58.50 156.75 58.46
  C 156.35 57.74 155.81 57.25 154.91 57.25
  Q 136.48 57.11 118.04 57.00
  L 118.00 48.00
  A 0.50 0.50 0.0 0 1 118.50 47.50
  L 135.50 47.50
  A 1.62 1.20 19.4 0 0 136.41 47.22
  L 142.54 42.50
  Q 143.63 42.33 144.24 43.08
  A 1.19 0.83 65.2 0 0 144.99 43.52
  C 149.69 43.70 154.32 43.52 159.03 43.66
  Q 161.77 43.74 164.34 42.75
  A 1.43 1.23 -83.1 0 0 165.04 42.11
  C 167.18 37.97 166.71 47.30 166.79 49.00
  Z"
/>
<path fill="#d0ced7" d="
  M 499.21 46.00
  L 499.03 59.00
  Q 499.03 59.56 498.73 59.08
  L 487.46 41.00
  C 488.79 39.92 491.87 45.81 493.72 48.59
  A 0.67 0.63 61.5 0 0 494.48 48.84
  C 496.28 48.14 496.33 46.05 498.12 45.78
  A 0.66 0.63 7.0 0 0 498.63 45.40
  Q 499.02 44.53 499.21 46.00
  Z"
/>
<path fill="#d0ced7" d="
  M 202.00 42.21
  L 194.01 46.87
  Q 192.94 47.50 194.20 47.50
  L 207.70 47.50
  A 0.56 0.55 90.0 0 1 208.25 48.06
  L 208.27 57.78
  Q 195.22 56.67 184.30 57.11
  Q 180.76 57.25 181.31 53.75
  Q 182.22 47.86 180.72 43.44
  Q 180.37 42.67 180.46 41.75
  C 180.87 39.50 182.35 45.42 182.45 45.62
  A 0.66 0.62 -19.5 0 0 183.18 45.94
  C 187.01 45.03 190.53 45.95 193.96 44.77
  Q 197.36 43.60 200.39 41.60
  C 201.21 41.05 201.85 41.23 202.00 42.21
  Z"
/>
<path fill="#efebf2" d="
  M 180.72 43.44
  Q 182.22 47.86 181.31 53.75
  Q 180.76 57.25 184.30 57.11
  Q 195.22 56.67 208.27 57.78
  Q 194.66 59.04 180.96 58.50
  A 0.54 0.52 1.7 0 1 180.44 57.97
  L 180.72 43.44
  Z"
/>
<path fill="#d0ced7" d="
  M 222.79 44.00
  Q 222.81 45.50 223.67 46.62
  A 1.29 1.13 -13.2 0 0 224.50 47.06
  Q 228.48 47.46 232.14 46.56
  C 231.12 48.76 226.59 58.52 224.80 59.49
  Q 223.89 59.98 222.33 58.27
  A 0.88 0.87 37.0 0 1 222.19 57.30
  C 223.67 54.25 222.72 47.57 222.79 44.00
  Z"
/>
<path fill="#d5d3da" d="
  M 288.75 43.96
  Q 289.87 45.31 288.29 45.86
  Q 287.56 46.11 288.15 46.61
  C 290.52 48.61 287.91 47.04 287.98 47.84
  A 0.46 0.38 -2.0 0 0 288.43 48.19
  C 293.03 48.24 297.43 48.29 302.19 48.13
  Q 305.60 48.01 308.96 48.75
  L 308.73 62.44
  A 0.55 0.49 0.5 0 1 308.18 62.92
  L 289.61 63.03
  Q 287.19 63.04 286.64 60.80
  Q 286.00 58.22 283.30 56.93
  L 278.70 48.35
  Q 278.16 47.33 279.33 47.44
  C 284.26 47.89 285.06 46.49 288.75 43.96
  Z"
/>
<path fill="#d2d1d9" d="
  M 558.00 43.96
  Q 558.47 45.94 556.76 46.85
  A 1.11 0.83 -15.3 0 0 556.21 47.56
  Q 556.05 48.97 557.50 49.00
  Q 579.25 49.39 583.50 49.25
  Q 586.82 49.14 589.38 46.37
  L 589.46 56.50
  Q 587.72 56.59 586.75 58.07
  A 1.04 0.80 -69.2 0 1 585.99 58.54
  L 575.70 58.48
  A 1.43 0.75 54.2 0 1 574.86 58.06
  L 574.09 57.36
  A 1.44 0.97 -15.3 0 0 573.19 57.06
  L 537.61 57.19
  A 1.93 1.92 75.4 0 1 535.93 56.20
  Q 535.17 54.79 535.04 57.25
  L 535.29 47.99
  A 0.53 0.51 1.1 0 1 535.82 47.50
  L 552.69 47.44
  A 1.64 1.45 -59.9 0 0 553.59 47.14
  L 558.00 43.96
  Z"
/>
<path fill="#d0ced7" d="
  M 351.96 47.75
  L 351.96 56.75
  L 324.21 57.25
  L 324.04 47.75
  Q 323.90 46.23 324.84 45.73
  A 0.77 0.58 52.0 0 1 325.63 45.94
  L 327.45 47.86
  A 1.29 1.03 -17.7 0 0 328.31 48.19
  Q 338.28 48.15 348.25 48.25
  Q 349.97 48.27 350.79 46.71
  A 0.48 0.40 -57.7 0 1 351.44 46.50
  Q 351.95 46.92 351.96 47.75
  Z"
/>
<path fill="#dad7dd" d="
  M 263.99 50.00
  Q 265.12 55.59 267.94 59.56
  Q 269.87 62.29 267.60 63.92
  A 1.63 1.24 21.4 0 1 266.69 64.18
  Q 255.32 64.05 243.95 64.00
  C 242.85 64.00 242.13 63.50 242.68 62.37
  Q 242.92 61.86 242.95 61.44
  Q 243.04 59.94 243.81 58.81
  Q 246.74 54.53 247.50 49.77
  Q 247.41 48.63 248.14 47.83
  A 1.26 0.99 17.0 0 1 248.99 47.50
  L 262.49 47.50
  A 1.12 0.94 -15.6 0 1 263.33 47.88
  Q 264.03 48.82 263.99 50.00
  Z"
/>
<path fill="#d5d3da" d="
  M 393.75 50.96
  C 392.23 52.31 397.52 54.96 398.97 56.12
  C 403.52 59.75 393.37 58.77 391.26 58.96
  A 0.99 0.77 -15.6 0 1 390.43 58.62
  L 389.67 57.50
  A 0.66 0.44 57.2 0 0 388.96 57.19
  C 388.42 57.52 389.20 59.14 388.04 60.00
  L 388.16 49.69
  A 0.61 0.60 85.6 0 1 388.67 49.09
  Q 391.67 48.63 393.75 50.96
  Z"
/>
<path fill="#dad7dd" d="
  M 81.96 60.00
  L 81.91 65.21
  L 81.72 61.99
  A 0.87 0.63 -84.0 0 0 81.31 61.28
  Q 80.07 60.77 80.18 62.30
  A 1.37 1.37 83.9 0 1 79.01 63.75
  C 74.89 64.34 70.01 64.06 66.86 64.11
  C 59.68 64.24 52.28 63.49 45.20 63.97
  A 0.95 0.94 83.8 0 1 44.20 63.16
  Q 43.39 57.78 43.79 52.00
  Q 44.31 52.11 44.46 52.51
  A 0.63 0.47 75.0 0 0 45.00 52.94
  C 53.95 51.87 63.59 52.91 72.65 52.83
  C 75.90 52.80 78.41 54.11 80.56 50.56
  Q 80.98 49.87 81.06 50.67
  L 81.96 60.00
  Z"
/>
<path fill="#dad7dd" d="
  M 28.86 53.28
  L 29.04 58.00
  L 28.96 61.25
  Q 26.85 60.76 25.57 62.11
  A 1.39 1.04 -64.2 0 1 24.76 62.53
  Q 20.83 62.78 16.88 62.57
  C 14.88 62.46 12.62 63.29 11.56 60.69
  Q 10.52 58.12 8.00 58.21
  Q 7.73 54.85 9.10 51.51
  A 0.37 0.37 31.2 0 1 9.68 51.37
  C 11.65 53.02 13.44 54.47 16.08 54.74
  Q 22.62 55.39 28.86 53.28
  Z"
/>
<path fill="#595554" d="
  M 592.46 51.00
  L 592.76 65.60
  A 2.15 2.03 74.5 0 1 591.79 67.43
  Q 578.13 75.82 563.80 83.89
  Q 561.94 84.94 559.79 84.99
  C 544.18 85.38 526.64 85.00 512.99 85.01
  Q 280.40 85.15 47.81 84.97
  Q 43.16 84.97 38.96 85.00
  A 3.10 3.04 -28.6 0 1 37.34 84.54
  Q 22.58 75.27 8.94 66.81
  Q 7.32 65.81 7.54 64.25
  L 9.94 64.12
  A 1.73 1.04 -20.1 0 1 10.87 64.30
  L 17.96 68.50
  L 33.96 78.50
  L 39.07 81.75
  A 1.89 1.52 -23.7 0 0 40.00 82.00
  C 172.40 82.00 304.86 82.73 437.25 81.83
  C 478.11 81.56 519.00 82.15 559.87 81.93
  Q 569.89 76.63 579.34 70.38
  L 589.73 64.55
  Q 591.91 57.92 592.46 51.00
  Z"
/>
<path fill="#efebf2" d="
  M 351.96 56.75
  C 352.82 59.02 350.98 58.50 349.68 58.50
  Q 337.22 58.50 324.76 58.50
  A 0.82 0.54 -4.0 0 1 324.00 58.07
  Q 323.91 57.69 324.21 57.25
  L 351.96 56.75
  Z"
/>
<path fill="#efebf2" d="
  M 118.04 57.00
  Q 136.48 57.11 154.91 57.25
  C 155.81 57.25 156.35 57.74 156.75 58.46
  L 118.55 58.44
  A 0.55 0.46 1.5 0 1 118.00 57.95
  L 118.04 57.00
  Z"
/>
<path fill="#f0eae9" d="
  M 579.34 70.38
  Q 569.89 76.63 559.87 81.93
  C 560.33 80.27 558.78 81.08 558.10 80.61
  A 1.52 0.54 42.6 0 0 557.25 80.25
  Q 545.10 80.25 532.96 80.25
  C 531.70 80.25 530.46 80.74 529.12 80.58
  Q 526.48 80.25 526.33 80.25
  C 364.23 80.25 202.12 80.49 40.01 80.25
  A 3.85 3.84 64.8 0 1 37.55 79.36
  Q 35.70 77.83 33.96 78.50
  L 17.96 68.50
  C 17.71 66.73 24.42 70.52 24.95 70.75
  C 29.07 72.49 35.44 71.33 39.25 71.75
  C 42.01 72.05 44.08 71.30 46.64 71.59
  C 50.03 71.97 53.13 71.19 56.42 71.63
  C 63.56 72.60 71.19 71.47 77.23 71.62
  C 85.52 71.82 93.35 72.09 102.01 71.86
  C 105.51 71.77 124.68 70.82 126.35 71.95
  A 1.62 1.23 54.6 0 0 127.24 72.23
  C 158.10 71.13 191.40 72.24 219.75 71.75
  C 225.77 71.65 231.54 71.97 236.98 71.66
  Q 246.86 71.10 252.25 71.50
  C 264.33 72.40 276.50 71.50 289.07 71.96
  C 296.74 72.25 304.85 71.66 312.80 72.03
  Q 314.40 72.10 318.54 71.67
  C 321.29 71.38 324.13 72.01 326.49 71.93
  Q 351.96 71.11 377.44 71.65
  Q 389.38 71.89 401.31 71.48
  C 405.46 71.34 409.86 72.21 413.66 72.06
  C 424.38 71.65 435.09 71.79 445.81 71.75
  Q 477.46 71.63 509.11 71.73
  C 512.18 71.74 519.67 72.27 524.97 71.99
  C 533.36 71.55 542.53 71.49 550.88 72.19
  C 555.40 72.57 559.75 71.49 564.58 71.78
  C 566.74 71.90 569.89 71.10 572.54 72.07
  A 0.89 0.89 -53.6 0 0 573.39 71.94
  Q 576.06 69.92 579.34 70.38
  Z"
/>
<path fill="#f9f7f6" d="
  M 559.87 81.93
  C 519.00 82.15 478.11 81.56 437.25 81.83
  C 304.86 82.73 172.40 82.00 40.00 82.00
  A 1.89 1.52 -23.7 0 1 39.07 81.75
  L 33.96 78.50
  Q 35.70 77.83 37.55 79.36
  A 3.85 3.84 64.8 0 0 40.01 80.25
  C 202.12 80.49 364.23 80.25 526.33 80.25
  Q 526.48 80.25 529.12 80.58
  C 530.46 80.74 531.70 80.25 532.96 80.25
  Q 545.10 80.25 557.25 80.25
  A 1.52 0.54 42.6 0 1 558.10 80.61
  C 558.78 81.08 560.33 80.27 559.87 81.93
  Z"
/>
</svg>
