<?xml version="1.0" encoding="UTF-8" standalone="no"?>
<!DOCTYPE svg PUBLIC "-//W3C//DTD SVG 1.1//EN" "http://www.w3.org/Graphics/SVG/1.1/DTD/svg11.dtd">
<svg xmlns="http://www.w3.org/2000/svg" version="1.1" viewBox="0 0 600 300">
<path fill="#000000" d="
  M 120.76 128.67
  C 113.70 173.59 77.87 207.29 32.86 212.01
  C 25.18 212.81 15.88 212.50 7.35 212.50
  A 0.85 0.85 3.9 0 1 6.50 211.65
  L 6.50 186.49
  A 1.24 1.24 89.2 0 1 7.74 185.25
  Q 13.38 185.25 19.00 185.20
  C 59.99 184.84 92.89 150.50 90.34 109.35
  C 87.96 70.85 56.28 41.46 17.75 41.72
  Q 13.25 41.75 7.48 41.75
  A 0.98 0.98 2.0 0 1 6.50 40.77
  L 6.50 15.37
  A 0.87 0.87 -11.4 0 1 7.37 14.50
  Q 14.13 14.50 21.25 14.41
  C 70.83 13.81 111.39 48.16 120.52 96.61
  Q 121.28 100.63 121.84 96.58
  C 126.15 65.76 147.56 38.76 175.12 24.93
  C 194.17 15.36 212.49 13.74 234.57 14.67
  A 0.53 0.52 1.1 0 1 235.08 15.19
  L 235.08 41.06
  A 0.54 0.52 -1.1 0 1 234.56 41.58
  C 227.88 41.85 220.59 41.46 214.52 42.34
  Q 182.39 47.01 164.52 72.79
  C 137.19 112.23 155.63 165.99 200.55 181.39
  C 211.37 185.10 222.71 185.73 234.35 185.20
  A 0.86 0.86 -1.3 0 1 235.25 186.06
  L 235.25 211.94
  A 0.56 0.56 0.0 0 1 234.69 212.50
  Q 228.25 212.50 222.00 212.61
  C 172.04 213.51 128.87 178.09 121.50 128.50
  Q 121.45 128.14 121.14 128.19
  A 0.58 0.43 -88.0 0 0 120.76 128.67
  Z"
/>
<path fill="#000000" d="
  M 353.06 57.65
  C 353.75 84.72 340.12 98.26 312.75 98.10
  Q 295.25 98.00 278.12 98.00
  A 0.87 0.87 0.0 0 1 277.25 97.13
  L 277.25 21.88
  A 0.88 0.88 87.4 0 1 278.13 21.00
  Q 296.63 21.00 315.50 21.00
  C 339.14 21.00 352.46 33.73 353.06 57.65
  Z
  M 302.68 80.15
  A 0.18 0.18 3.6 0 0 302.84 80.33
  C 321.94 82.13 327.73 77.20 327.36 58.07
  C 327.03 41.23 319.44 37.63 303.68 38.56
  A 0.99 0.99 -1.8 0 0 302.75 39.55
  L 302.68 80.15
  Z"
/>
<path fill="#000000" d="
  M 383.91 22.01
  A 1.58 1.52 -78.4 0 1 385.35 21.02
  L 411.75 21.23
  A 0.79 0.76 78.5 0 1 412.44 21.71
  L 443.20 97.53
  A 0.34 0.34 -10.9 0 1 442.88 98.00
  L 417.37 98.00
  A 1.27 1.24 81.0 0 1 416.18 97.11
  L 412.70 86.09
  A 1.24 1.21 -8.7 0 0 411.53 85.25
  L 384.53 85.25
  A 1.45 1.43 -80.7 0 0 383.17 86.24
  L 379.59 97.23
  A 1.11 1.11 9.0 0 1 378.53 98.00
  L 353.89 98.00
  A 0.40 0.39 10.9 0 1 353.52 97.46
  L 383.91 22.01
  Z
  M 389.16 68.05
  A 0.35 0.35 -80.9 0 0 389.50 68.50
  L 406.46 68.50
  A 0.35 0.35 80.2 0 0 406.80 68.05
  L 398.31 41.83
  A 0.35 0.35 46.1 0 0 397.65 41.83
  L 389.16 68.05
  Z"
/>
<path fill="#000000" d="
  M 462.76 40.06
  L 438.39 40.00
  A 0.64 0.64 -89.8 0 1 437.75 39.36
  L 437.75 21.56
  A 0.56 0.56 1.9 0 1 438.31 21.00
  L 514.58 21.00
  A 0.66 0.65 0.0 0 1 515.24 21.65
  L 515.08 39.31
  A 0.53 0.51 -0.6 0 1 514.56 39.82
  L 489.93 40.18
  A 0.51 0.51 -0.6 0 0 489.43 40.69
  L 489.26 97.10
  A 0.84 0.83 -90.0 0 1 488.43 97.94
  L 464.36 98.00
  A 0.80 0.79 -89.6 0 1 463.57 97.19
  L 463.74 41.03
  A 0.98 0.97 -0.0 0 0 462.76 40.06
  Z"
/>
<path fill="#000000" d="
  M 600.00 96.31
  L 600.00 98.06
  L 574.57 97.94
  A 0.75 0.68 -8.7 0 1 573.88 97.48
  L 570.02 86.07
  A 1.21 1.13 79.9 0 0 568.93 85.25
  L 541.48 85.25
  A 0.96 0.93 -80.4 0 0 540.59 85.90
  L 536.81 97.34
  A 1.00 0.96 8.9 0 1 535.87 98.00
  L 511.14 98.00
  A 0.40 0.40 -79.1 0 1 510.77 97.45
  L 541.14 21.90
  A 1.43 1.38 -78.6 0 1 542.43 21.01
  L 569.06 21.18
  A 0.75 0.74 78.8 0 1 569.75 21.65
  L 600.00 96.31
  Z
  M 554.49 42.63
  L 546.40 67.76
  A 0.71 0.70 8.9 0 0 547.08 68.68
  L 563.44 68.58
  A 0.67 0.66 -8.9 0 0 564.08 67.72
  L 555.96 42.61
  Q 555.23 40.35 554.49 42.63
  Z"
/>
<path fill="#000000" d="
  M 16.50 51.78
  C 58.99 52.09 89.30 93.00 75.18 133.90
  C 67.40 156.42 47.07 172.10 23.49 174.65
  Q 16.02 175.45 7.65 175.23
  A 1.15 1.15 4.3 0 1 6.54 173.94
  Q 6.83 171.38 6.83 168.50
  Q 6.75 112.50 6.87 56.50
  Q 6.87 54.61 6.53 52.91
  A 0.97 0.97 84.4 0 1 7.48 51.75
  Q 12.00 51.75 16.50 51.78
  Z"
/>
<path fill="#000000" d="
  M 163.84 108.60
  C 166.29 78.01 190.41 54.42 221.00 52.06
  Q 227.96 51.53 234.66 51.80
  A 0.61 0.61 1.0 0 1 235.25 52.41
  L 235.25 107.99
  A 1.26 1.26 89.6 0 1 233.99 109.25
  L 164.44 109.25
  A 0.60 0.60 -87.8 0 1 163.84 108.60
  Z"
/>
<path fill="#000000" d="
  M 213.97 173.90
  C 186.32 168.99 166.30 146.09 163.85 118.31
  A 0.47 0.46 -2.2 0 1 164.32 117.81
  L 234.66 117.81
  A 0.60 0.59 -90.0 0 1 235.25 118.41
  L 235.25 174.10
  A 1.10 1.09 89.2 0 1 234.19 175.20
  Q 223.28 175.56 213.97 173.90
  Z"
/>
<path fill="#000000" d="
  M 461.25 163.25
  C 445.45 155.85 443.72 136.39 459.53 127.26
  C 469.57 121.47 485.41 121.62 496.75 123.75
  Q 514.75 127.13 517.61 144.70
  A 0.46 0.45 83.7 0 1 517.19 145.23
  L 494.53 146.53
  A 1.01 0.97 80.3 0 1 493.54 145.80
  C 492.19 140.94 489.97 138.22 484.90 137.13
  C 480.88 136.26 475.35 136.38 472.89 140.36
  C 469.91 145.19 475.77 147.37 479.52 148.16
  C 488.87 150.15 498.84 152.13 507.51 156.23
  C 518.05 161.22 522.77 171.72 519.22 182.80
  C 515.46 194.55 504.11 200.32 492.25 201.50
  C 472.72 203.44 448.17 201.08 445.35 176.15
  A 0.79 0.78 85.1 0 1 446.08 175.28
  L 468.79 173.94
  A 0.95 0.94 82.9 0 1 469.76 174.70
  C 473.96 195.05 502.31 186.23 494.31 175.19
  C 491.67 171.54 483.80 169.96 479.43 169.09
  Q 469.51 167.12 461.25 163.25
  Z"
/>
<path fill="#000000" d="
  M 302.30 168.81
  L 302.26 182.37
  A 0.90 0.89 0.0 0 0 303.16 183.26
  L 345.82 183.43
  A 0.52 0.51 -0.0 0 1 346.34 183.94
  L 346.34 200.06
  A 0.52 0.51 0.0 0 1 345.82 200.57
  L 277.58 200.74
  A 0.77 0.76 89.6 0 1 276.81 199.97
  L 276.75 124.20
  A 0.52 0.51 -0.0 0 1 277.27 123.69
  L 344.75 123.75
  A 0.50 0.50 0.0 0 1 345.25 124.25
  L 345.25 139.59
  A 0.67 0.66 0.0 0 1 344.58 140.25
  L 302.80 140.31
  A 0.51 0.50 -90.0 0 0 302.30 140.82
  L 302.30 151.68
  A 0.86 0.83 -0.0 0 0 303.16 152.51
  L 341.57 152.68
  A 0.52 0.52 89.4 0 1 342.09 153.19
  L 342.22 167.19
  A 1.09 1.05 -0.3 0 1 341.13 168.25
  L 302.81 168.31
  A 0.51 0.50 -0.0 0 0 302.30 168.81
  Z"
/>
<path fill="#000000" d="
  M 382.67 124.23
  A 0.74 0.72 -78.3 0 1 383.36 123.76
  L 410.32 123.93
  A 0.75 0.73 78.6 0 1 411.00 124.40
  L 441.61 200.06
  A 0.50 0.50 78.9 0 1 441.15 200.75
  L 415.82 200.69
  A 0.74 0.66 -8.0 0 1 415.13 200.23
  L 411.28 188.86
  A 1.26 1.17 79.9 0 0 410.15 188.00
  L 382.85 188.00
  A 1.27 1.21 -80.8 0 0 381.68 188.89
  L 377.99 200.27
  A 0.74 0.70 8.8 0 1 377.30 200.75
  L 352.72 200.75
  A 0.65 0.65 -79.0 0 1 352.12 199.86
  L 382.67 124.23
  Z
  M 387.69 170.82
  A 0.34 0.34 9.3 0 0 388.01 171.26
  L 405.12 171.24
  A 0.34 0.34 -9.2 0 0 405.44 170.79
  L 396.84 144.72
  A 0.34 0.34 47.6 0 0 396.20 144.73
  L 387.69 170.82
  Z"
/>
<path fill="#000000" d="
  M 600.00 123.88
  L 600.00 142.56
  L 580.09 142.75
  A 1.11 1.09 -0.5 0 0 579.00 143.84
  L 578.82 200.07
  A 0.52 0.51 -0.6 0 1 578.31 200.58
  L 554.40 200.74
  A 0.94 0.91 89.7 0 1 553.49 199.81
  L 553.32 143.43
  A 0.52 0.50 0.0 0 0 552.80 142.93
  L 528.25 142.75
  A 0.75 0.74 -0.0 0 1 527.50 142.01
  L 527.43 124.27
  A 0.52 0.51 90.0 0 1 527.94 123.75
  L 600.00 123.88
  Z"
/>
<path fill="#000000" d="
  M 600.00 248.06
  L 600.00 263.31
  Q 594.32 283.20 574.00 287.50
  C 570.19 288.31 564.12 288.00 560.13 288.00
  Q 302.94 288.00 45.75 288.02
  C 32.55 288.02 20.68 281.28 15.15 269.25
  C 5.12 247.45 20.75 223.01 45.00 223.01
  Q 303.64 223.00 562.28 223.00
  Q 572.58 223.00 577.57 224.42
  Q 594.71 229.30 600.00 248.06
  Z
  M 68.10 270.74
  C 65.80 265.46 67.37 250.85 67.47 244.56
  C 67.57 237.87 75.47 238.47 79.65 239.74
  C 83.17 240.80 83.61 243.97 82.81 247.07
  A 0.74 0.74 -82.8 0 0 83.53 248.00
  L 96.11 248.00
  A 1.00 0.99 3.2 0 0 97.10 247.12
  C 97.76 241.22 96.43 237.34 91.01 234.78
  C 82.74 230.88 57.54 229.59 53.03 239.98
  Q 52.25 241.78 52.25 245.63
  C 52.25 251.74 50.51 269.76 54.55 274.38
  C 61.06 281.81 79.31 280.59 88.00 278.25
  C 96.87 275.87 97.25 270.58 97.25 262.62
  A 0.87 0.87 0.0 0 0 96.38 261.75
  L 83.90 261.75
  A 0.97 0.96 87.8 0 0 82.94 262.79
  C 83.17 265.59 83.69 269.93 81.01 271.58
  C 77.42 273.79 72.02 273.17 68.74 271.43
  A 1.51 1.42 -89.6 0 1 68.10 270.74
  Z
  M 141.80 271.44
  Q 141.13 252.01 141.68 232.81
  A 0.79 0.79 -89.3 0 0 140.89 232.00
  L 127.36 232.00
  A 0.86 0.86 -89.6 0 0 126.50 232.86
  L 126.50 278.41
  A 0.59 0.59 0.0 0 0 127.09 279.00
  L 165.51 279.00
  A 0.99 0.99 0.0 0 0 166.50 278.01
  L 166.50 273.02
  A 1.04 1.03 0.3 0 0 165.47 271.99
  L 142.32 271.94
  A 0.52 0.51 -0.6 0 1 141.80 271.44
  Z
  M 222.56 270.79
  L 225.01 278.34
  A 0.74 0.70 -7.6 0 0 225.69 278.83
  L 239.54 279.06
  A 0.59 0.58 81.7 0 0 240.10 278.29
  L 225.11 232.57
  A 0.83 0.82 80.6 0 0 224.33 232.00
  L 203.64 232.00
  A 1.12 1.11 9.0 0 0 202.58 232.76
  L 187.72 278.35
  A 0.45 0.45 8.9 0 0 188.15 278.94
  L 200.58 278.99
  A 1.26 1.16 -81.2 0 0 201.73 278.07
  L 203.79 270.83
  A 1.09 1.09 -81.6 0 1 204.85 270.04
  L 221.93 270.28
  A 0.73 0.64 80.1 0 1 222.56 270.79
  Z
  M 262.62 242.52
  C 260.67 257.21 290.59 257.66 291.98 268.17
  C 292.77 274.18 278.72 274.36 276.84 270.04
  C 276.25 268.70 276.61 267.23 276.39 265.69
  A 0.61 0.58 86.5 0 0 275.82 265.16
  L 262.81 265.05
  A 0.59 0.56 -85.4 0 0 262.24 265.56
  C 259.92 282.12 286.46 281.13 296.28 278.87
  C 303.62 277.18 310.58 270.95 305.45 263.45
  C 300.93 256.84 289.50 253.46 282.11 249.35
  C 266.98 240.93 293.18 232.68 292.72 245.29
  A 0.69 0.69 -89.2 0 0 293.41 246.00
  L 306.30 246.07
  A 0.65 0.64 2.8 0 0 306.96 245.48
  C 308.25 229.85 282.85 231.30 274.00 233.00
  C 268.68 234.02 263.38 236.78 262.62 242.52
  Z
  M 331.63 242.52
  C 329.69 257.29 365.21 259.90 360.54 269.81
  C 358.53 274.08 347.89 274.15 345.87 270.04
  C 345.22 268.74 345.61 267.22 345.39 265.69
  A 0.61 0.58 86.5 0 0 344.82 265.16
  L 331.81 265.05
  A 0.58 0.56 -85.4 0 0 331.24 265.55
  C 328.81 283.35 358.24 280.90 368.15 277.82
  C 375.55 275.53 379.11 267.81 373.06 261.69
  C 367.51 256.06 358.43 254.05 351.32 249.44
  C 340.28 242.29 351.01 237.05 358.30 239.64
  C 361.27 240.70 361.83 242.31 361.72 245.29
  A 0.69 0.69 -89.2 0 0 362.41 246.00
  L 375.30 246.07
  A 0.65 0.64 2.8 0 0 375.96 245.48
  C 377.25 229.85 351.85 231.30 343.00 233.00
  C 337.68 234.02 332.38 236.77 331.63 242.52
  Z
  M 417.51 232.42
  A 0.41 0.41 0.0 0 0 417.10 232.01
  L 402.90 232.01
  A 0.41 0.41 0.0 0 0 402.49 232.42
  L 402.49 278.58
  A 0.41 0.41 0.0 0 0 402.90 278.99
  L 417.10 278.99
  A 0.41 0.41 0.0 0 0 417.51 278.58
  L 417.51 232.42
  Z
  M 461.99 271.56
  A 2.69 2.68 -76.8 0 1 460.60 269.31
  Q 459.99 254.75 460.46 243.42
  Q 460.57 240.70 463.17 239.86
  Q 469.45 237.82 474.62 240.68
  A 1.40 1.39 4.4 0 1 475.25 241.41
  Q 476.32 244.21 476.05 247.25
  A 0.50 0.45 -87.6 0 0 476.49 247.79
  L 489.56 247.85
  A 0.61 0.57 -86.0 0 0 490.13 247.32
  Q 491.51 236.13 480.50 233.50
  C 471.89 231.44 456.98 230.67 449.56 235.81
  Q 445.25 238.80 445.25 242.75
  Q 445.25 255.00 445.01 267.25
  C 444.70 282.73 471.53 280.74 480.66 278.34
  Q 491.51 275.49 490.10 262.67
  A 1.00 0.96 86.4 0 0 489.13 261.78
  L 476.70 261.91
  A 0.56 0.54 -88.3 0 0 476.16 262.44
  L 475.79 269.08
  Q 475.69 271.02 473.87 271.79
  Q 467.38 274.53 461.99 271.56
  Z
  M 517.64 242.52
  C 515.65 257.26 551.47 260.00 546.53 269.91
  C 544.49 274.01 533.88 274.16 531.86 270.03
  C 531.23 268.73 531.61 267.22 531.39 265.69
  A 0.61 0.58 86.5 0 0 530.82 265.16
  L 517.81 265.05
  A 0.59 0.56 -85.4 0 0 517.24 265.56
  C 515.51 278.37 530.81 280.41 540.01 280.10
  C 546.80 279.87 561.35 278.86 562.03 269.36
  C 562.43 263.82 558.16 259.81 553.44 257.56
  Q 550.38 256.11 537.15 249.26
  C 533.31 247.27 529.81 241.69 535.97 239.66
  C 540.73 238.08 547.97 238.48 547.72 245.29
  A 0.69 0.69 -89.2 0 0 548.41 246.00
  L 561.30 246.07
  A 0.65 0.64 2.8 0 0 561.96 245.48
  C 563.25 229.85 537.85 231.30 529.00 233.00
  C 523.66 234.02 518.42 236.75 517.64 242.52
  Z"
/>
<path fill="#000000" d="
  M 206.09 263.52
  L 212.77 241.48
  A 0.37 0.37 -46.9 0 1 213.47 241.48
  L 220.15 263.52
  A 0.37 0.37 -8.8 0 1 219.79 264.00
  L 206.45 264.00
  A 0.37 0.37 8.9 0 1 206.09 263.52
  Z"
/>
</svg>
