<?xml version="1.0" encoding="UTF-8" standalone="no"?>
<!DOCTYPE svg PUBLIC "-//W3C//DTD SVG 1.1//EN" "http://www.w3.org/Graphics/SVG/1.1/DTD/svg11.dtd">
<svg xmlns="http://www.w3.org/2000/svg" version="1.1" viewBox="0 0 600 300">
<path fill="#000000" d="
  M 419.49 117.80
  C 422.47 144.03 433.80 166.97 462.16 171.48
  C 486.96 175.43 508.37 161.76 518.34 139.31
  C 519.02 137.79 520.17 137.42 519.62 140.08
  Q 513.35 170.05 507.05 199.76
  A 0.57 0.56 2.5 0 0 507.68 200.44
  C 535.39 196.74 559.95 180.24 569.05 152.98
  C 581.92 114.49 567.59 76.65 533.85 55.08
  A 1.83 1.48 9.8 0 1 533.22 54.36
  Q 532.34 52.36 534.65 53.93
  Q 535.27 54.35 535.77 54.61
  C 581.26 77.87 604.00 121.24 594.36 171.92
  C 585.64 217.77 549.87 248.89 504.65 256.11
  C 501.81 256.56 497.23 257.94 493.27 257.59
  A 0.56 0.56 -80.6 0 1 492.78 256.90
  L 505.98 202.31
  Q 506.10 201.80 505.60 201.97
  Q 494.75 205.58 484.47 203.96
  Q 459.09 199.98 439.67 183.33
  C 421.66 167.89 415.64 142.41 418.17 119.68
  C 418.25 118.97 417.91 117.17 418.95 117.22
  A 0.65 0.56 87.5 0 1 419.49 117.80
  Z"
/>
<path fill="#000000" d="
  M 239.17 120.18
  C 245.38 120.23 267.65 118.84 271.37 121.57
  C 275.09 124.30 275.28 130.30 274.17 134.43
  Q 265.64 166.23 257.28 198.07
  C 255.58 204.56 255.62 209.25 261.08 213.20
  Q 262.86 214.49 260.66 214.50
  Q 247.52 214.54 234.91 214.46
  C 225.29 214.39 226.58 205.12 228.06 198.90
  Q 235.56 167.53 242.95 136.13
  Q 244.90 127.85 238.77 121.08
  Q 237.94 120.17 239.17 120.18
  Z"
/>
<path fill="#000000" d="
  M 48.36 204.95
  C 44.25 212.37 39.14 211.53 30.36 211.49
  C 21.34 211.45 5.65 214.36 8.73 198.67
  C 12.41 179.96 14.66 164.01 17.50 152.00
  C 18.70 146.92 24.56 141.04 30.50 141.03
  Q 58.50 141.00 86.77 141.00
  A 0.70 0.70 5.7 0 1 87.46 141.84
  Q 80.06 178.44 72.69 214.94
  C 70.72 224.67 67.93 233.64 57.46 236.24
  Q 55.44 236.74 41.98 236.75
  Q 27.24 236.76 12.50 236.81
  C 6.99 236.83 2.44 231.60 4.00 226.00
  C 5.24 221.53 5.70 216.83 6.42 212.24
  A 1.15 0.61 -88.3 0 1 6.88 211.43
  Q 7.41 211.20 7.68 212.41
  Q 8.96 218.17 14.60 217.87
  C 22.86 217.43 31.35 217.75 39.64 217.75
  C 45.63 217.75 47.04 215.09 48.02 209.67
  C 48.12 209.12 49.60 204.57 48.99 204.49
  A 0.82 0.50 -67.8 0 0 48.36 204.95
  Z
  M 42.35 188.69
  C 46.73 189.28 50.57 190.24 51.50 184.50
  Q 53.76 170.61 56.23 156.83
  A 0.49 0.49 -84.6 0 0 55.75 156.25
  C 50.02 156.25 46.82 154.71 45.28 161.61
  Q 42.63 173.43 40.17 185.63
  Q 39.63 188.32 42.35 188.69
  Z"
/>
<path fill="#000000" d="
  M 119.30 202.25
  C 116.69 206.54 113.03 211.58 107.79 213.25
  Q 97.35 216.59 88.81 211.94
  C 83.10 208.83 82.92 202.93 83.43 196.60
  C 84.30 186.02 89.73 168.85 101.88 166.65
  C 106.87 165.75 118.77 166.50 126.40 166.50
  A 0.94 0.93 7.8 0 0 127.30 165.82
  C 128.60 161.19 131.35 154.75 123.55 154.75
  Q 112.49 154.75 100.98 154.75
  A 0.82 0.81 6.0 0 1 100.18 153.77
  L 102.78 141.84
  A 1.10 1.06 5.8 0 1 103.85 141.00
  Q 126.75 141.00 148.50 141.06
  C 161.71 141.09 158.49 153.80 156.54 162.02
  Q 152.52 178.98 148.56 195.95
  C 146.77 203.61 146.33 208.79 152.82 213.45
  Q 154.29 214.50 152.49 214.50
  Q 140.19 214.50 127.87 214.50
  Q 123.71 214.50 122.23 213.79
  C 116.76 211.18 120.51 202.38 120.02 201.99
  A 0.58 0.43 -56.3 0 0 119.30 202.25
  Z
  M 117.21 179.63
  C 109.94 188.60 119.96 198.18 122.72 188.71
  Q 124.15 183.82 124.75 178.73
  A 0.92 0.84 0.5 0 0 123.75 177.80
  L 120.84 178.04
  Q 118.33 178.24 117.21 179.63
  Z"
/>
<path fill="#000000" d="
  M 189.63 193.45
  Q 199.91 193.53 210.19 193.51
  C 216.06 193.50 219.32 192.15 222.69 187.69
  Q 223.12 187.11 223.46 187.35
  A 1.06 0.57 -75.5 0 1 223.68 188.24
  Q 222.38 197.70 220.26 207.00
  C 218.99 212.57 215.70 214.50 209.98 214.50
  Q 193.21 214.50 176.45 214.50
  Q 167.38 214.50 165.61 213.94
  C 157.28 211.29 157.25 202.08 158.72 194.96
  Q 162.72 175.55 167.30 156.26
  C 169.71 146.12 173.66 141.00 184.75 141.00
  Q 201.38 141.00 218.00 140.79
  C 231.92 140.61 232.52 147.17 229.76 158.63
  Q 227.47 168.14 225.32 177.43
  A 1.06 1.06 -83.5 0 1 224.29 178.25
  L 188.30 178.31
  A 0.63 0.63 -82.9 0 0 187.69 178.79
  Q 186.39 184.10 185.50 189.50
  C 184.97 192.68 186.86 193.43 189.63 193.45
  Z
  M 203.07 156.59
  C 200.83 155.64 197.40 155.88 195.32 156.52
  C 191.68 157.65 191.26 162.74 190.16 165.79
  A 0.72 0.71 -80.0 0 0 190.83 166.75
  L 201.98 166.75
  A 1.23 1.09 6.7 0 0 203.14 165.94
  L 204.83 159.73
  Q 205.42 157.57 203.07 156.59
  Z"
/>
<path fill="#000000" d="
  M 276.06 151.56
  C 277.74 144.79 283.95 141.00 290.69 141.00
  Q 309.13 141.00 327.88 141.00
  A 0.43 0.41 6.4 0 1 328.30 141.51
  L 325.20 154.09
  A 0.65 0.64 6.8 0 1 324.57 154.58
  L 304.81 154.74
  A 1.28 1.25 6.6 0 0 303.57 155.70
  L 294.55 194.32
  A 0.40 0.40 6.8 0 0 294.94 194.81
  C 301.18 194.74 312.12 196.01 317.56 193.53
  Q 321.45 191.75 323.72 188.10
  Q 326.34 183.90 325.25 188.73
  Q 323.81 195.14 321.89 201.40
  C 320.00 207.58 318.84 214.16 312.08 214.30
  Q 295.82 214.63 279.55 214.53
  Q 274.02 214.50 271.19 213.10
  C 264.02 209.54 263.86 202.75 265.60 195.30
  Q 272.03 167.84 276.06 151.56
  Z"
/>
<path fill="#000000" d="
  M 334.69 157.19
  C 336.71 147.69 343.60 140.80 353.50 140.81
  Q 370.18 140.81 386.86 141.16
  C 400.94 141.46 400.37 151.22 398.41 161.86
  Q 394.85 181.21 391.31 200.56
  C 390.08 207.30 382.87 213.36 376.26 214.39
  Q 375.57 214.50 365.23 214.50
  Q 354.53 214.50 343.82 214.50
  Q 336.54 214.50 333.41 213.03
  C 327.74 210.37 325.13 205.02 326.32 198.74
  Q 330.28 177.92 334.69 157.19
  Z
  M 361.94 160.18
  L 354.91 192.95
  A 1.38 1.23 -56.2 0 0 355.04 193.88
  C 356.28 196.05 358.48 195.31 360.21 195.37
  C 364.82 195.53 364.92 192.36 365.81 188.28
  Q 368.51 175.87 371.13 163.44
  C 371.54 161.49 372.41 160.01 371.02 158.20
  A 1.46 1.30 -10.2 0 0 370.20 157.70
  Q 366.96 157.04 363.92 158.03
  Q 362.29 158.56 361.94 160.18
  Z"
/>
</svg>
