<?xml version="1.0" encoding="UTF-8" standalone="no"?>
<!DOCTYPE svg PUBLIC "-//W3C//DTD SVG 1.1//EN" "http://www.w3.org/Graphics/SVG/1.1/DTD/svg11.dtd">
<svg xmlns="http://www.w3.org/2000/svg" version="1.1" viewBox="0 0 600 320">
<g stroke-width="2.00" fill="none" stroke-linecap="butt">
<path stroke="#d18080" vector-effect="non-scaling-stroke" d="
  M 313.17 44.30
  A 1.03 1.03 20.4 0 1 313.69 45.43
  Q 313.07 48.28 314.10 51.31
  A 1.37 1.37 71.0 0 0 315.84 52.15
  Q 331.12 46.75 346.00 41.50
  C 349.78 40.17 349.59 36.52 349.54 32.54
  C 349.35 16.58 336.23 2.23 319.50 8.00
  C 293.30 17.03 263.28 22.46 255.26 53.39
  Q 253.73 59.27 253.68 69.76
  Q 253.60 85.15 253.75 117.75
  C 253.89 148.16 278.80 146.13 298.67 137.13
  Q 299.51 136.75 300.09 136.11
  L 325.70 108.09
  Q 326.88 106.81 326.23 105.19
  L 319.25 87.97
  A 0.82 0.79 -17.1 0 0 318.31 87.49
  C 309.25 89.55 315.89 96.10 310.69 98.94
  Q 307.19 100.85 294.89 104.56
  C 291.65 105.54 289.80 106.19 289.72 101.71
  Q 289.35 79.40 289.49 57.09
  C 289.52 53.46 289.08 51.63 293.10 50.15
  C 296.29 48.98 310.76 43.02 313.17 44.30"
/>
<path stroke="#d18080" vector-effect="non-scaling-stroke" d="
  M 289.85 244.31
  C 288.04 253.78 271.75 256.78 264.66 259.11
  C 259.90 260.68 257.75 260.68 257.75 266.74
  Q 257.75 283.26 257.75 299.79
  C 257.75 302.72 258.34 305.45 262.06 304.31
  C 272.37 301.18 290.35 295.38 300.84 289.21
  C 321.72 276.93 335.80 258.93 337.86 234.26
  Q 338.19 230.35 338.41 226.44
  A 0.77 0.75 81.8 0 1 338.90 225.77
  Q 365.09 216.22 391.21 206.50
  C 394.16 205.41 393.75 203.55 393.75 200.96
  Q 393.75 180.83 393.75 160.71
  C 393.75 155.96 393.12 151.26 399.48 152.21
  A 0.91 0.90 -86.3 0 1 400.25 153.10
  Q 400.39 176.12 400.23 198.50
  C 400.20 203.29 402.86 201.66 405.46 200.75
  Q 421.67 195.03 437.77 189.03
  C 440.81 187.90 442.39 188.34 443.02 184.16
  A 1.73 1.72 5.8 0 1 444.83 182.69
  C 450.90 183.06 455.23 182.96 461.17 180.89
  Q 490.04 170.84 518.58 159.81
  Q 520.75 158.97 520.75 156.65
  Q 520.80 140.07 520.69 122.68
  C 520.68 120.94 519.99 119.97 519.05 118.65
  A 0.90 0.85 39.9 0 1 518.95 117.80
  C 522.41 109.96 521.26 100.93 521.11 92.75
  C 520.80 76.22 504.48 70.95 491.00 76.00
  C 483.34 78.87 467.45 83.71 455.94 88.69
  C 448.52 91.89 441.30 95.75 437.67 102.43
  Q 436.35 104.85 433.73 105.63
  A 1.46 1.17 44.9 0 1 432.79 105.53
  C 424.70 101.73 417.82 101.94 409.10 105.14
  Q 388.51 112.69 367.68 120.37
  A 0.69 0.69 -22.6 0 0 367.29 121.31
  L 372.03 131.13
  A 0.70 0.69 -22.8 0 0 372.89 131.47
  Q 392.74 124.20 412.32 117.30
  C 422.82 113.59 428.50 116.32 428.50 127.96
  Q 428.50 152.60 428.50 177.27
  A 1.61 1.61 -10.7 0 1 427.47 178.77
  Q 421.98 180.91 416.16 182.86
  C 412.97 183.93 413.49 181.60 413.51 179.54
  Q 413.67 158.89 413.29 138.24
  C 413.21 134.28 411.57 132.82 407.69 134.19
  Q 388.01 141.11 383.06 143.06
  C 380.08 144.25 380.49 146.75 380.51 149.47
  Q 380.63 172.27 380.07 195.07
  A 0.75 0.70 81.7 0 1 379.60 195.75
  L 367.42 199.92
  A 0.91 0.88 80.6 0 1 366.25 199.05
  L 365.94 141.06
  A 0.99 0.97 -72.7 0 0 365.53 140.26
  L 348.17 128.05
  A 0.97 0.95 -38.3 0 0 347.27 127.95
  C 344.31 129.14 341.51 129.88 338.86 131.52
  Q 311.89 148.20 285.10 165.15
  Q 284.42 165.58 285.12 165.28
  Q 301.04 158.58 316.95 151.85
  C 320.15 150.50 324.14 148.10 324.12 154.00
  Q 324.00 193.75 324.12 233.50
  C 324.16 248.53 312.75 264.66 301.07 273.99
  C 294.31 279.38 283.83 282.64 275.47 286.02
  Q 271.38 287.67 271.43 283.25
  Q 271.50 277.50 271.50 272.42
  A 1.55 1.54 -11.5 0 1 272.44 271.00
  Q 279.50 268.00 284.90 265.61
  Q 310.45 254.29 308.96 225.82
  A 1.46 1.22 -71.5 0 0 308.61 224.93
  C 306.64 222.81 304.89 223.95 302.59 224.72
  Q 288.62 229.45 274.65 234.18
  C 266.83 236.82 259.62 237.32 259.25 226.75
  Q 258.63 208.83 259.18 185.07
  C 259.37 176.96 263.10 177.10 267.55 172.14
  Q 277.20 161.39 286.77 150.87
  Q 288.07 149.45 286.30 150.21
  Q 283.21 151.55 280.19 152.27
  Q 263.85 156.18 253.56 169.31
  Q 251.91 171.42 249.98 172.10
  A 1.20 1.03 46.7 0 1 249.06 172.00
  Q 240.31 167.03 231.56 169.56
  Q 225.93 171.19 196.58 182.20
  C 193.75 183.26 191.40 184.10 191.15 179.90
  Q 190.29 165.53 191.05 150.21
  Q 191.17 147.93 193.31 147.13
  Q 199.62 144.78 206.19 142.23
  C 212.56 139.77 220.12 137.43 226.44 133.44
  Q 248.33 119.61 249.00 93.00
  Q 249.56 70.95 249.00 63.75
  Q 247.74 47.54 232.01 43.97
  Q 224.01 42.15 217.50 44.50
  Q 186.77 55.58 156.03 66.64
  A 0.71 0.70 -10.1 0 0 155.56 67.30
  L 155.44 143.68
  A 0.73 0.70 80.3 0 1 154.98 144.36
  Q 125.57 155.46 96.10 166.38
  C 87.90 169.42 88.25 169.75 88.25 179.13
  Q 88.28 244.10 88.25 310.46
  Q 88.25 313.05 90.75 313.74
  C 92.63 314.26 95.54 313.51 97.72 312.70
  Q 152.96 292.21 208.10 271.49
  A 0.72 0.72 -10.8 0 0 208.56 270.82
  Q 208.46 248.17 208.50 225.52
  C 208.50 221.03 210.36 219.25 214.38 218.06
  Q 216.50 217.44 216.51 219.66
  L 216.75 267.00
  Q 216.76 269.68 219.25 268.75
  Q 237.93 261.77 256.50 254.50
  Q 258.89 253.56 259.79 250.92
  A 0.78 0.70 -81.1 0 1 260.43 250.40
  C 264.31 250.14 268.20 250.50 271.80 249.72
  Q 279.12 248.12 285.75 244.50
  Q 286.50 244.09 289.44 243.85
  A 0.39 0.39 3.4 0 1 289.85 244.31"
/>
<path stroke="#d18080" vector-effect="non-scaling-stroke" d="
  M 346.41 125.13
  C 348.57 125.81 350.08 127.12 351.90 128.37
  Q 363.86 136.59 375.58 145.20
  Q 376.75 146.06 376.13 144.74
  Q 369.48 130.71 363.09 116.27
  C 360.78 111.06 361.43 111.22 364.97 107.32
  Q 391.38 78.32 418.14 49.64
  C 419.69 47.98 418.17 48.14 417.32 48.67
  Q 383.82 69.77 350.14 90.59
  C 347.37 92.30 345.71 93.62 343.01 91.76
  Q 329.96 82.76 317.14 74.26
  Q 315.40 73.11 316.18 75.05
  Q 321.70 88.84 327.23 102.61
  C 328.12 104.83 329.30 106.83 327.44 108.94
  Q 312.78 125.47 271.39 170.47
  C 271.18 170.69 269.81 172.53 271.32 171.58
  Q 308.12 148.34 345.08 125.30
  A 1.62 1.60 -51.9 0 1 346.41 125.13"
/>
<path stroke="#d18080" vector-effect="non-scaling-stroke" d="
  M 414.13 56.79
  L 408.52 62.62
  Q 407.39 63.80 409.08 63.77
  Q 451.97 62.88 493.45 69.22
  C 520.82 73.39 577.47 87.48 578.22 123.69
  C 578.98 160.51 519.82 193.76 490.94 206.94
  C 444.23 228.25 393.65 242.53 342.64 252.70
  A 2.41 2.22 -79.8 0 0 341.05 253.90
  L 337.74 260.01
  Q 337.27 260.88 338.22 260.71
  Q 402.65 249.11 464.20 226.22
  Q 499.18 213.22 530.95 193.66
  C 554.66 179.06 592.83 148.40 584.92 115.92
  C 576.02 79.34 519.72 65.78 488.75 61.24
  Q 451.95 55.84 415.46 56.24
  A 1.96 1.70 18.6 0 0 414.13 56.79"
/>
<path stroke="#d18080" vector-effect="non-scaling-stroke" d="
  M 380.56 57.41
  Q 339.05 59.59 297.01 65.64
  A 0.60 0.60 -4.5 0 0 296.50 66.23
  L 296.50 71.00
  A 0.55 0.54 -3.3 0 0 297.11 71.54
  Q 342.23 66.45 387.18 63.88
  C 391.50 63.63 396.79 59.46 400.33 57.05
  Q 401.02 56.58 400.18 56.55
  C 393.60 56.36 385.36 57.16 380.56 57.41"
/>
<path stroke="#d18080" vector-effect="non-scaling-stroke" d="
  M 333.12 82.59
  Q 337.22 85.54 341.22 88.18
  C 344.86 90.59 345.49 91.94 349.11 88.89
  A 2.67 2.38 -26.0 0 0 350.04 86.62
  L 348.81 78.43
  Q 348.44 75.92 345.98 76.90
  L 333.20 81.99
  Q 332.61 82.22 333.12 82.59"
/>
<path stroke="#d18080" vector-effect="non-scaling-stroke" d="
  M 81.48 257.82
  C 58.18 250.51 19.66 236.82 18.14 206.76
  C 15.82 160.76 110.86 121.45 145.23 108.12
  A 0.89 0.84 -7.6 0 0 145.77 107.45
  Q 146.16 104.72 145.56 102.05
  A 0.47 0.46 -16.1 0 0 144.96 101.72
  C 111.72 112.68 78.24 127.62 49.87 148.34
  C 29.36 163.32 4.44 190.12 12.47 216.69
  C 20.89 244.54 56.24 257.39 81.45 263.08
  A 0.42 0.40 6.3 0 0 81.96 262.69
  L 81.99 258.50
  A 0.73 0.71 9.0 0 0 81.48 257.82"
/>
<path stroke="#d18080" vector-effect="non-scaling-stroke" d="
  M 273.47 184.75
  Q 272.50 186.15 272.50 187.85
  Q 272.50 198.37 272.50 209.37
  C 272.50 213.94 272.95 218.36 279.04 216.37
  Q 293.77 211.58 308.18 205.94
  A 1.29 1.28 80.1 0 0 309.00 204.77
  Q 309.28 189.28 309.15 173.81
  C 309.13 170.68 307.16 170.32 304.63 171.26
  Q 290.84 176.39 277.13 181.73
  Q 274.98 182.57 273.47 184.75"
/>
<path stroke="#d18080" vector-effect="non-scaling-stroke" d="
  M 212.88 80.05
  Q 210.80 79.09 209.97 79.41
  Q 202.63 82.27 195.25 85.00
  C 192.49 86.02 191.28 86.60 191.36 89.88
  Q 191.63 101.10 191.49 112.79
  A 1.29 1.29 -8.6 0 0 193.18 114.03
  Q 198.26 112.39 203.68 110.45
  C 209.68 108.31 213.97 107.67 213.66 101.04
  C 213.34 94.18 213.54 87.37 213.27 80.63
  A 0.68 0.67 -79.2 0 0 212.88 80.05"
/>
<path stroke="#d18080" vector-effect="non-scaling-stroke" d="
  M 464.15 98.95
  C 454.51 102.48 445.49 109.53 443.24 120.06
  Q 442.75 122.34 442.71 131.97
  Q 442.66 143.79 442.91 155.60
  C 443.15 167.17 448.66 170.48 459.52 166.82
  Q 482.73 158.99 506.21 150.50
  Q 508.25 149.76 508.25 147.59
  C 508.25 145.08 509.33 135.95 506.47 134.68
  A 1.41 1.15 -38.1 0 0 505.53 134.66
  Q 485.90 141.56 466.36 148.72
  Q 462.63 150.09 462.10 150.16
  C 456.89 150.78 455.43 141.86 461.73 139.50
  Q 472.43 135.49 483.13 131.52
  C 494.12 127.44 499.91 126.09 505.11 117.79
  C 507.85 113.43 507.85 110.39 508.00 105.25
  C 508.25 96.53 508.90 87.72 498.75 87.64
  Q 496.21 87.62 492.25 89.00
  Q 473.24 95.62 464.15 98.95"
/>
<path stroke="#d18080" vector-effect="non-scaling-stroke" d="
  M 338.19 145.69
  L 338.00 208.76
  Q 337.99 211.34 340.31 210.54
  L 351.35 206.69
  Q 353.00 206.12 353.00 204.18
  Q 353.00 173.13 353.15 143.00
  Q 353.17 139.08 349.66 140.35
  Q 344.28 142.30 338.98 144.51
  A 1.29 1.28 -11.4 0 0 338.19 145.69"
/>
<path stroke="#d18080" vector-effect="non-scaling-stroke" d="
  M 116.78 189.87
  L 154.19 175.50
  A 1.64 1.59 -10.7 0 0 155.25 174.00
  Q 155.25 169.23 155.25 165.00
  C 155.25 159.74 153.42 160.66 149.45 162.03
  Q 126.37 170.02 103.30 178.07
  Q 101.02 178.86 101.00 181.27
  Q 100.38 238.12 101.00 295.26
  A 1.48 1.48 -6.4 0 0 102.79 296.69
  Q 105.54 296.09 108.47 295.03
  Q 137.19 284.57 165.93 274.19
  A 1.25 1.24 -10.1 0 0 166.75 273.02
  Q 166.75 267.00 166.61 261.00
  C 166.53 257.24 164.60 258.09 162.18 258.96
  Q 140.69 266.67 119.21 274.39
  C 115.83 275.61 116.00 273.59 116.00 271.18
  Q 116.00 256.82 116.00 241.72
  A 2.33 2.32 79.6 0 1 117.49 239.55
  Q 128.46 235.39 140.21 231.26
  Q 143.17 230.22 145.45 228.79
  A 2.78 2.76 74.1 0 0 146.75 226.44
  C 146.75 222.75 148.91 212.65 142.20 215.12
  Q 130.46 219.45 118.68 223.69
  Q 116.26 224.56 116.17 221.99
  Q 115.63 206.55 116.29 190.57
  A 0.79 0.76 81.0 0 1 116.78 189.87"
/>
<path stroke="#d18080" vector-effect="non-scaling-stroke" d="
  M 245.29 192.43
  C 245.16 184.71 240.07 180.10 232.25 182.86
  Q 207.26 191.67 182.38 200.96
  Q 180.56 201.64 180.56 203.59
  Q 180.61 231.78 180.38 260.50
  Q 180.35 263.89 180.73 267.08
  A 0.73 0.72 77.5 0 0 181.67 267.69
  L 194.10 263.63
  A 0.96 0.94 81.3 0 0 194.75 262.72
  Q 194.75 239.00 194.75 215.50
  C 194.75 212.86 195.81 211.45 198.33 210.48
  Q 209.18 206.27 220.09 202.23
  C 224.82 200.48 230.07 197.48 230.12 205.50
  Q 230.25 227.00 230.25 248.52
  A 1.19 1.16 80.5 0 0 231.80 249.66
  L 244.47 245.12
  A 0.92 0.92 86.5 0 0 245.06 244.45
  Q 245.47 242.60 245.50 238.75
  Q 245.67 215.59 245.29 192.43"
/>
<path stroke="#d18080" vector-effect="non-scaling-stroke" d="
  M 131.13 204.06
  A 2.31 2.29 55.2 0 0 133.35 204.47
  L 157.44 196.20
  Q 160.25 195.23 160.25 198.18
  L 160.25 235.08
  A 1.33 1.32 66.5 0 1 159.90 235.98
  C 158.14 237.90 156.43 238.34 154.10 239.27
  Q 143.71 243.41 133.29 247.48
  C 130.58 248.55 127.15 252.28 130.65 254.78
  C 132.42 256.06 134.02 254.84 135.70 254.25
  Q 150.68 249.02 165.89 243.44
  A 1.36 1.35 -11.1 0 0 166.78 242.13
  C 166.53 233.58 167.27 223.61 167.30 216.95
  Q 167.36 201.99 167.00 187.10
  Q 166.95 185.04 165.02 185.74
  Q 149.20 191.51 133.44 197.37
  C 130.35 198.51 127.73 201.23 131.13 204.06"
/>
<path stroke="#d18080" vector-effect="non-scaling-stroke" d="
  M 459.01 117.62
  Q 457.98 119.08 458.16 120.86
  Q 458.65 125.70 462.31 124.32
  Q 476.66 118.94 490.73 112.88
  A 1.18 1.14 -2.2 0 0 491.37 112.21
  C 493.68 105.86 489.13 104.94 484.47 106.69
  C 479.90 108.41 461.22 114.49 459.01 117.62"
/>
<path stroke="#d18080" vector-effect="non-scaling-stroke" d="
  M 293.20 190.34
  C 289.76 191.52 283.94 194.10 286.78 198.77
  A 0.69 0.65 -23.3 0 0 287.55 199.05
  Q 291.46 197.92 294.61 195.33
  A 1.07 1.06 -19.9 0 0 295.00 194.51
  L 295.00 191.62
  A 1.36 1.36 -9.5 0 0 293.20 190.34"
/>
</g>
<path fill="#ffffff" d="
  M 307.97 50.76
  L 295.54 55.17
  A 1.23 0.89 -5.1 0 0 294.85 55.77
  Q 294.21 57.39 294.69 60.02
  A 0.54 0.53 81.1 0 0 295.29 60.46
  Q 343.86 53.55 392.74 51.56
  C 394.64 51.48 397.71 51.98 399.69 50.69
  Q 406.47 46.24 413.47 42.14
  C 416.37 40.43 419.31 40.96 422.50 40.99
  A 1.57 1.40 -22.6 0 1 423.40 41.30
  C 426.99 44.13 426.44 46.55 426.11 50.69
  A 0.46 0.46 -87.7 0 0 426.57 51.19
  Q 457.67 51.46 490.00 56.00
  C 513.34 59.28 536.28 65.10 556.93 76.08
  C 570.83 83.46 586.72 97.21 590.13 113.40
  C 591.08 117.95 590.75 123.94 590.75 129.21
  C 590.75 158.83 552.35 187.87 529.63 201.33
  Q 498.82 219.59 465.20 231.97
  Q 407.69 253.16 347.45 264.51
  C 343.09 265.33 339.76 266.22 335.19 265.56
  A 1.42 0.91 15.7 0 0 333.94 265.94
  Q 321.35 284.75 301.88 295.34
  C 292.56 300.40 280.03 304.22 269.00 308.00
  C 264.03 309.70 252.75 312.49 252.75 303.51
  Q 252.75 283.36 252.75 262.63
  A 0.34 0.33 -10.4 0 0 252.29 262.32
  Q 237.67 267.91 223.06 273.56
  C 222.73 273.69 215.49 274.37 214.37 273.10
  A 0.91 0.35 50.0 0 0 213.57 272.66
  Q 213.37 272.78 213.55 273.29
  A 1.10 0.85 56.2 0 1 213.49 274.17
  Q 212.18 276.22 210.94 276.69
  Q 157.17 296.65 103.44 316.69
  Q 95.88 319.50 88.93 318.72
  C 84.46 318.21 83.25 315.34 83.25 311.25
  Q 83.25 290.00 83.25 268.68
  A 0.68 0.67 87.7 0 0 82.52 268.00
  C 78.50 268.30 75.71 267.22 71.99 266.34
  C 46.13 260.22 6.25 241.68 6.25 210.45
  C 6.25 204.57 5.76 198.51 7.27 192.98
  C 12.98 172.08 32.12 153.68 49.64 141.36
  C 77.45 121.81 108.27 108.30 140.81 97.06
  C 143.51 96.13 148.45 95.61 150.24 98.32
  Q 150.50 98.71 150.50 98.24
  L 150.50 64.25
  Q 150.50 62.58 153.31 61.56
  Q 178.91 52.30 204.54 43.13
  C 210.74 40.92 215.63 38.68 222.35 38.22
  C 233.59 37.45 243.10 39.59 250.07 48.95
  Q 250.57 49.62 250.79 48.82
  C 255.29 32.71 267.73 20.96 283.12 14.95
  Q 302.00 7.58 318.19 2.69
  C 337.45 -3.14 354.83 10.94 354.79 30.60
  C 354.77 38.79 355.48 44.47 347.19 47.19
  Q 342.85 48.61 323.23 55.61
  C 319.52 56.94 316.69 57.22 312.90 57.25
  A 1.97 1.94 62.7 0 1 311.69 56.85
  Q 308.32 54.30 308.40 51.06
  A 0.32 0.31 -9.0 0 0 307.97 50.76
  Z
  M 313.17 44.30
  A 1.03 1.03 20.4 0 1 313.69 45.43
  Q 313.07 48.28 314.10 51.31
  A 1.37 1.37 71.0 0 0 315.84 52.15
  Q 331.12 46.75 346.00 41.50
  C 349.78 40.17 349.59 36.52 349.54 32.54
  C 349.35 16.58 336.23 2.23 319.50 8.00
  C 293.30 17.03 263.28 22.46 255.26 53.39
  Q 253.73 59.27 253.68 69.76
  Q 253.60 85.15 253.75 117.75
  C 253.89 148.16 278.80 146.13 298.67 137.13
  Q 299.51 136.75 300.09 136.11
  L 325.70 108.09
  Q 326.88 106.81 326.23 105.19
  L 319.25 87.97
  A 0.82 0.79 -17.1 0 0 318.31 87.49
  C 309.25 89.55 315.89 96.10 310.69 98.94
  Q 307.19 100.85 294.89 104.56
  C 291.65 105.54 289.80 106.19 289.72 101.71
  Q 289.35 79.40 289.49 57.09
  C 289.52 53.46 289.08 51.63 293.10 50.15
  C 296.29 48.98 310.76 43.02 313.17 44.30
  Z
  M 289.85 244.31
  C 288.04 253.78 271.75 256.78 264.66 259.11
  C 259.90 260.68 257.75 260.68 257.75 266.74
  Q 257.75 283.26 257.75 299.79
  C 257.75 302.72 258.34 305.45 262.06 304.31
  C 272.37 301.18 290.35 295.38 300.84 289.21
  C 321.72 276.93 335.80 258.93 337.86 234.26
  Q 338.19 230.35 338.41 226.44
  A 0.77 0.75 81.8 0 1 338.90 225.77
  Q 365.09 216.22 391.21 206.50
  C 394.16 205.41 393.75 203.55 393.75 200.96
  Q 393.75 180.83 393.75 160.71
  C 393.75 155.96 393.12 151.26 399.48 152.21
  A 0.91 0.90 -86.3 0 1 400.25 153.10
  Q 400.39 176.12 400.23 198.50
  C 400.20 203.29 402.86 201.66 405.46 200.75
  Q 421.67 195.03 437.77 189.03
  C 440.81 187.90 442.39 188.34 443.02 184.16
  A 1.73 1.72 5.8 0 1 444.83 182.69
  C 450.90 183.06 455.23 182.96 461.17 180.89
  Q 490.04 170.84 518.58 159.81
  Q 520.75 158.97 520.75 156.65
  Q 520.80 140.07 520.69 122.68
  C 520.68 120.94 519.99 119.97 519.05 118.65
  A 0.90 0.85 39.9 0 1 518.95 117.80
  C 522.41 109.96 521.26 100.93 521.11 92.75
  C 520.80 76.22 504.48 70.95 491.00 76.00
  C 483.34 78.87 467.45 83.71 455.94 88.69
  C 448.52 91.89 441.30 95.75 437.67 102.43
  Q 436.35 104.85 433.73 105.63
  A 1.46 1.17 44.9 0 1 432.79 105.53
  C 424.70 101.73 417.82 101.94 409.10 105.14
  Q 388.51 112.69 367.68 120.37
  A 0.69 0.69 -22.6 0 0 367.29 121.31
  L 372.03 131.13
  A 0.70 0.69 -22.8 0 0 372.89 131.47
  Q 392.74 124.20 412.32 117.30
  C 422.82 113.59 428.50 116.32 428.50 127.96
  Q 428.50 152.60 428.50 177.27
  A 1.61 1.61 -10.7 0 1 427.47 178.77
  Q 421.98 180.91 416.16 182.86
  C 412.97 183.93 413.49 181.60 413.51 179.54
  Q 413.67 158.89 413.29 138.24
  C 413.21 134.28 411.57 132.82 407.69 134.19
  Q 388.01 141.11 383.06 143.06
  C 380.08 144.25 380.49 146.75 380.51 149.47
  Q 380.63 172.27 380.07 195.07
  A 0.75 0.70 81.7 0 1 379.60 195.75
  L 367.42 199.92
  A 0.91 0.88 80.6 0 1 366.25 199.05
  L 365.94 141.06
  A 0.99 0.97 -72.7 0 0 365.53 140.26
  L 348.17 128.05
  A 0.97 0.95 -38.3 0 0 347.27 127.95
  C 344.31 129.14 341.51 129.88 338.86 131.52
  Q 311.89 148.20 285.10 165.15
  Q 284.42 165.58 285.12 165.28
  Q 301.04 158.58 316.95 151.85
  C 320.15 150.50 324.14 148.10 324.12 154.00
  Q 324.00 193.75 324.12 233.50
  C 324.16 248.53 312.75 264.66 301.07 273.99
  C 294.31 279.38 283.83 282.64 275.47 286.02
  Q 271.38 287.67 271.43 283.25
  Q 271.50 277.50 271.50 272.42
  A 1.55 1.54 -11.5 0 1 272.44 271.00
  Q 279.50 268.00 284.90 265.61
  Q 310.45 254.29 308.96 225.82
  A 1.46 1.22 -71.5 0 0 308.61 224.93
  C 306.64 222.81 304.89 223.95 302.59 224.72
  Q 288.62 229.45 274.65 234.18
  C 266.83 236.82 259.62 237.32 259.25 226.75
  Q 258.63 208.83 259.18 185.07
  C 259.37 176.96 263.10 177.10 267.55 172.14
  Q 277.20 161.39 286.77 150.87
  Q 288.07 149.45 286.30 150.21
  Q 283.21 151.55 280.19 152.27
  Q 263.85 156.18 253.56 169.31
  Q 251.91 171.42 249.98 172.10
  A 1.20 1.03 46.7 0 1 249.06 172.00
  Q 240.31 167.03 231.56 169.56
  Q 225.93 171.19 196.58 182.20
  C 193.75 183.26 191.40 184.10 191.15 179.90
  Q 190.29 165.53 191.05 150.21
  Q 191.17 147.93 193.31 147.13
  Q 199.62 144.78 206.19 142.23
  C 212.56 139.77 220.12 137.43 226.44 133.44
  Q 248.33 119.61 249.00 93.00
  Q 249.56 70.95 249.00 63.75
  Q 247.74 47.54 232.01 43.97
  Q 224.01 42.15 217.50 44.50
  Q 186.77 55.58 156.03 66.64
  A 0.71 0.70 -10.1 0 0 155.56 67.30
  L 155.44 143.68
  A 0.73 0.70 80.3 0 1 154.98 144.36
  Q 125.57 155.46 96.10 166.38
  C 87.90 169.42 88.25 169.75 88.25 179.13
  Q 88.28 244.10 88.25 310.46
  Q 88.25 313.05 90.75 313.74
  C 92.63 314.26 95.54 313.51 97.72 312.70
  Q 152.96 292.21 208.10 271.49
  A 0.72 0.72 -10.8 0 0 208.56 270.82
  Q 208.46 248.17 208.50 225.52
  C 208.50 221.03 210.36 219.25 214.38 218.06
  Q 216.50 217.44 216.51 219.66
  L 216.75 267.00
  Q 216.76 269.68 219.25 268.75
  Q 237.93 261.77 256.50 254.50
  Q 258.89 253.56 259.79 250.92
  A 0.78 0.70 -81.1 0 1 260.43 250.40
  C 264.31 250.14 268.20 250.50 271.80 249.72
  Q 279.12 248.12 285.75 244.50
  Q 286.50 244.09 289.44 243.85
  A 0.39 0.39 3.4 0 1 289.85 244.31
  Z
  M 346.41 125.13
  C 348.57 125.81 350.08 127.12 351.90 128.37
  Q 363.86 136.59 375.58 145.20
  Q 376.75 146.06 376.13 144.74
  Q 369.48 130.71 363.09 116.27
  C 360.78 111.06 361.43 111.22 364.97 107.32
  Q 391.38 78.32 418.14 49.64
  C 419.69 47.98 418.17 48.14 417.32 48.67
  Q 383.82 69.77 350.14 90.59
  C 347.37 92.30 345.71 93.62 343.01 91.76
  Q 329.96 82.76 317.14 74.26
  Q 315.40 73.11 316.18 75.05
  Q 321.70 88.84 327.23 102.61
  C 328.12 104.83 329.30 106.83 327.44 108.94
  Q 312.78 125.47 271.39 170.47
  C 271.18 170.69 269.81 172.53 271.32 171.58
  Q 308.12 148.34 345.08 125.30
  A 1.62 1.60 -51.9 0 1 346.41 125.13
  Z
  M 414.13 56.79
  L 408.52 62.62
  Q 407.39 63.80 409.08 63.77
  Q 451.97 62.88 493.45 69.22
  C 520.82 73.39 577.47 87.48 578.22 123.69
  C 578.98 160.51 519.82 193.76 490.94 206.94
  C 444.23 228.25 393.65 242.53 342.64 252.70
  A 2.41 2.22 -79.8 0 0 341.05 253.90
  L 337.74 260.01
  Q 337.27 260.88 338.22 260.71
  Q 402.65 249.11 464.20 226.22
  Q 499.18 213.22 530.95 193.66
  C 554.66 179.06 592.83 148.40 584.92 115.92
  C 576.02 79.34 519.72 65.78 488.75 61.24
  Q 451.95 55.84 415.46 56.24
  A 1.96 1.70 18.6 0 0 414.13 56.79
  Z
  M 380.56 57.41
  Q 339.05 59.59 297.01 65.64
  A 0.60 0.60 -4.5 0 0 296.50 66.23
  L 296.50 71.00
  A 0.55 0.54 -3.3 0 0 297.11 71.54
  Q 342.23 66.45 387.18 63.88
  C 391.50 63.63 396.79 59.46 400.33 57.05
  Q 401.02 56.58 400.18 56.55
  C 393.60 56.36 385.36 57.16 380.56 57.41
  Z
  M 410.15 69.46
  L 371.17 111.97
  Q 369.51 113.78 371.80 112.89
  C 382.64 108.70 393.66 104.90 404.47 100.56
  C 412.83 97.20 423.31 96.56 432.21 99.05
  A 0.71 0.69 24.9 0 0 432.97 98.78
  C 443.83 83.32 464.74 79.50 481.03 73.18
  Q 481.50 73.00 481.00 72.93
  Q 447.03 68.30 411.71 68.76
  A 2.20 2.18 20.7 0 0 410.15 69.46
  Z
  M 351.00 72.11
  Q 354.16 74.37 354.47 78.26
  A 0.30 0.30 -17.7 0 0 354.92 78.49
  L 367.73 70.66
  Q 368.58 70.14 367.60 70.22
  L 351.15 71.59
  Q 350.37 71.66 351.00 72.11
  Z
  M 330.37 73.74
  C 333.35 77.01 338.48 73.74 341.80 72.53
  Q 342.97 72.10 342.08 72.23
  Q 336.94 72.93 330.54 73.33
  Q 330.02 73.36 330.37 73.74
  Z
  M 307.90 93.31
  C 309.08 89.71 306.78 87.71 310.85 84.75
  A 1.12 1.12 -31.7 0 0 311.19 83.32
  Q 309.40 79.86 309.04 76.00
  A 0.47 0.46 82.5 0 0 308.51 75.58
  Q 301.80 76.67 295.02 76.50
  A 0.51 0.50 0.6 0 0 294.50 77.00
  L 294.56 98.43
  A 0.36 0.34 80.3 0 0 295.02 98.77
  L 306.90 94.34
  A 1.64 1.63 89.3 0 0 307.90 93.31
  Z
  M 333.12 82.59
  Q 337.22 85.54 341.22 88.18
  C 344.86 90.59 345.49 91.94 349.11 88.89
  A 2.67 2.38 -26.0 0 0 350.04 86.62
  L 348.81 78.43
  Q 348.44 75.92 345.98 76.90
  L 333.20 81.99
  Q 332.61 82.22 333.12 82.59
  Z
  M 523.34 163.56
  Q 522.37 164.46 521.14 164.94
  Q 492.95 175.77 466.18 185.27
  C 459.65 187.59 455.12 188.47 448.74 187.50
  A 0.76 0.76 14.9 0 0 447.92 187.97
  C 446.05 192.89 443.20 193.15 438.88 194.76
  C 429.06 198.41 418.96 201.62 409.27 205.54
  Q 405.63 207.01 400.41 206.64
  A 2.15 2.13 -74.2 0 0 398.34 207.81
  C 397.40 209.66 395.27 210.96 393.14 211.78
  Q 368.61 221.12 343.90 230.02
  A 0.84 0.75 84.7 0 0 343.40 230.69
  L 341.58 246.75
  A 0.36 0.34 87.9 0 0 341.99 247.15
  C 388.46 238.00 434.45 224.91 478.10 206.41
  Q 510.61 192.64 539.13 171.86
  C 554.30 160.81 568.58 145.79 572.66 127.08
  C 575.09 115.91 564.07 102.34 555.34 96.65
  Q 541.29 87.50 525.29 82.46
  Q 524.82 82.31 524.98 82.78
  C 527.36 89.57 526.30 99.60 526.20 111.18
  C 526.19 113.35 525.26 115.75 525.50 118.13
  Q 525.97 122.67 525.97 122.91
  Q 525.75 140.52 525.92 158.12
  C 525.95 160.67 525.05 161.98 523.34 163.56
  Z
  M 81.48 257.82
  C 58.18 250.51 19.66 236.82 18.14 206.76
  C 15.82 160.76 110.86 121.45 145.23 108.12
  A 0.89 0.84 -7.6 0 0 145.77 107.45
  Q 146.16 104.72 145.56 102.05
  A 0.47 0.46 -16.1 0 0 144.96 101.72
  C 111.72 112.68 78.24 127.62 49.87 148.34
  C 29.36 163.32 4.44 190.12 12.47 216.69
  C 20.89 244.54 56.24 257.39 81.45 263.08
  A 0.42 0.40 6.3 0 0 81.96 262.69
  L 81.99 258.50
  A 0.73 0.71 9.0 0 0 81.48 257.82
  Z
  M 54.88 241.68
  Q 68.42 248.30 82.95 252.30
  A 0.38 0.38 -82.6 0 0 83.43 251.93
  Q 83.11 212.60 83.25 173.26
  C 83.27 166.99 84.85 164.44 90.75 162.25
  Q 120.00 151.37 149.90 140.26
  A 0.93 0.91 80.1 0 0 150.50 139.39
  L 150.50 111.56
  Q 150.50 110.62 149.93 111.37
  Q 148.79 112.87 147.42 113.40
  C 112.91 126.77 77.37 143.03 48.44 166.47
  C 37.57 175.27 28.31 185.90 24.19 199.35
  C 18.36 218.38 40.64 234.72 54.88 241.68
  Z
  M 219.62 167.62
  C 229.66 163.84 238.67 162.02 248.71 165.28
  A 0.78 0.77 29.4 0 0 249.52 165.06
  C 257.58 156.05 263.29 151.87 273.71 148.61
  Q 275.14 148.16 273.64 148.24
  C 257.38 149.14 248.82 135.69 248.74 120.44
  Q 248.73 118.10 247.56 120.13
  C 235.99 140.09 215.25 144.72 196.52 152.13
  A 0.76 0.72 -11.4 0 0 196.04 152.81
  L 195.80 175.93
  A 0.37 0.36 -9.6 0 0 196.29 176.27
  Q 207.97 172.00 219.62 167.62
  Z
  M 273.47 184.75
  Q 272.50 186.15 272.50 187.85
  Q 272.50 198.37 272.50 209.37
  C 272.50 213.94 272.95 218.36 279.04 216.37
  Q 293.77 211.58 308.18 205.94
  A 1.29 1.28 80.1 0 0 309.00 204.77
  Q 309.28 189.28 309.15 173.81
  C 309.13 170.68 307.16 170.32 304.63 171.26
  Q 290.84 176.39 277.13 181.73
  Q 274.98 182.57 273.47 184.75
  Z"
/>
<path fill="#a20000" d="
  M 313.17 44.30
  C 310.76 43.02 296.29 48.98 293.10 50.15
  C 289.08 51.63 289.52 53.46 289.49 57.09
  Q 289.35 79.40 289.72 101.71
  C 289.80 106.19 291.65 105.54 294.89 104.56
  Q 307.19 100.85 310.69 98.94
  C 315.89 96.10 309.25 89.55 318.31 87.49
  A 0.82 0.79 -17.1 0 1 319.25 87.97
  L 326.23 105.19
  Q 326.88 106.81 325.70 108.09
  L 300.09 136.11
  Q 299.51 136.75 298.67 137.13
  C 278.80 146.13 253.89 148.16 253.75 117.75
  Q 253.60 85.15 253.68 69.76
  Q 253.73 59.27 255.26 53.39
  C 263.28 22.46 293.30 17.03 319.50 8.00
  C 336.23 2.23 349.35 16.58 349.54 32.54
  C 349.59 36.52 349.78 40.17 346.00 41.50
  Q 331.12 46.75 315.84 52.15
  A 1.37 1.37 72.0 0 1 314.10 51.31
  Q 313.07 48.28 313.69 45.43
  A 1.03 1.03 20.4 0 0 313.17 44.30
  Z"
/>
<path fill="#a20000" d="
  M 289.44 243.85
  Q 286.50 244.09 285.75 244.50
  Q 279.12 248.12 271.80 249.72
  C 268.20 250.50 264.31 250.14 260.43 250.40
  A 0.78 0.70 -81.1 0 0 259.79 250.92
  Q 258.89 253.56 256.50 254.50
  Q 237.93 261.77 219.25 268.75
  Q 216.76 269.68 216.75 267.00
  L 216.51 219.66
  Q 216.50 217.44 214.38 218.06
  C 210.36 219.25 208.50 221.03 208.50 225.52
  Q 208.46 248.17 208.56 270.82
  A 0.72 0.72 -10.8 0 1 208.10 271.49
  Q 152.96 292.21 97.72 312.70
  C 95.54 313.51 92.63 314.26 90.75 313.74
  Q 88.25 313.05 88.25 310.46
  Q 88.28 244.10 88.25 179.13
  C 88.25 169.75 87.90 169.42 96.10 166.38
  Q 125.57 155.46 154.98 144.36
  A 0.73 0.70 80.3 0 0 155.44 143.68
  L 155.56 67.30
  A 0.71 0.70 -10.1 0 1 156.03 66.64
  Q 186.77 55.58 217.50 44.50
  Q 224.01 42.15 232.01 43.97
  Q 247.74 47.54 249.00 63.75
  Q 249.56 70.95 249.00 93.00
  Q 248.33 119.61 226.44 133.44
  C 220.12 137.43 212.56 139.77 206.19 142.23
  Q 199.62 144.78 193.31 147.13
  Q 191.17 147.93 191.05 150.21
  Q 190.29 165.53 191.15 179.90
  C 191.40 184.10 193.75 183.26 196.58 182.20
  Q 225.93 171.19 231.56 169.56
  Q 240.31 167.03 249.06 172.00
  A 1.20 1.03 46.7 0 0 249.98 172.10
  Q 251.91 171.42 253.56 169.31
  Q 263.85 156.18 280.19 152.27
  Q 283.21 151.55 286.30 150.21
  Q 288.07 149.45 286.77 150.87
  Q 277.20 161.39 267.55 172.14
  C 263.10 177.10 259.37 176.96 259.18 185.07
  Q 258.63 208.83 259.25 226.75
  C 259.62 237.32 266.83 236.82 274.65 234.18
  Q 288.62 229.45 302.59 224.72
  C 304.89 223.95 306.64 222.81 308.61 224.93
  A 1.46 1.22 -71.5 0 1 308.96 225.82
  Q 310.45 254.29 284.90 265.61
  Q 279.50 268.00 272.44 271.00
  A 1.55 1.54 -11.5 0 0 271.50 272.42
  Q 271.50 277.50 271.43 283.25
  Q 271.38 287.67 275.47 286.02
  C 283.83 282.64 294.31 279.38 301.07 273.99
  C 312.75 264.66 324.16 248.53 324.12 233.50
  Q 324.00 193.75 324.12 154.00
  C 324.14 148.10 320.15 150.50 316.95 151.85
  Q 301.04 158.58 285.12 165.28
  Q 284.42 165.58 285.10 165.15
  Q 311.89 148.20 338.86 131.52
  C 341.51 129.88 344.31 129.14 347.27 127.95
  A 0.97 0.95 -38.3 0 1 348.17 128.05
  L 365.53 140.26
  A 0.99 0.97 -72.7 0 1 365.94 141.06
  L 366.25 199.05
  A 0.91 0.88 80.6 0 0 367.42 199.92
  L 379.60 195.75
  A 0.75 0.70 81.7 0 0 380.07 195.07
  Q 380.63 172.27 380.51 149.47
  C 380.49 146.75 380.08 144.25 383.06 143.06
  Q 388.01 141.11 407.69 134.19
  C 411.57 132.82 413.21 134.28 413.29 138.24
  Q 413.67 158.89 413.51 179.54
  C 413.49 181.60 412.97 183.93 416.16 182.86
  Q 421.98 180.91 427.47 178.77
  A 1.61 1.61 -10.7 0 0 428.50 177.27
  Q 428.50 152.60 428.50 127.96
  C 428.50 116.32 422.82 113.59 412.32 117.30
  Q 392.74 124.20 372.89 131.47
  A 0.70 0.69 -22.8 0 1 372.03 131.13
  L 367.29 121.31
  A 0.69 0.69 -22.6 0 1 367.68 120.37
  Q 388.51 112.69 409.10 105.14
  C 417.82 101.94 424.70 101.73 432.79 105.53
  A 1.46 1.17 44.9 0 0 433.73 105.63
  Q 436.35 104.85 437.67 102.43
  C 441.30 95.75 448.52 91.89 455.94 88.69
  C 467.45 83.71 483.34 78.87 491.00 76.00
  C 504.48 70.95 520.80 76.22 521.11 92.75
  C 521.26 100.93 522.41 109.96 518.95 117.80
  A 0.90 0.85 39.9 0 0 519.05 118.65
  C 519.99 119.97 520.68 120.94 520.69 122.68
  Q 520.80 140.07 520.75 156.65
  Q 520.75 158.97 518.58 159.81
  Q 490.04 170.84 461.17 180.89
  C 455.23 182.96 450.90 183.06 444.83 182.69
  A 1.73 1.72 5.8 0 0 443.02 184.16
  C 442.39 188.34 440.81 187.90 437.77 189.03
  Q 421.67 195.03 405.46 200.75
  C 402.86 201.66 400.20 203.29 400.23 198.50
  Q 400.39 176.12 400.25 153.10
  A 0.91 0.90 -86.3 0 0 399.48 152.21
  C 393.12 151.26 393.75 155.96 393.75 160.71
  Q 393.75 180.83 393.75 200.96
  C 393.75 203.55 394.16 205.41 391.21 206.50
  Q 365.09 216.22 338.90 225.77
  A 0.77 0.75 81.8 0 0 338.41 226.44
  Q 338.19 230.35 337.86 234.26
  C 335.80 258.93 321.72 276.93 300.84 289.21
  C 290.35 295.38 272.37 301.18 262.06 304.31
  C 258.34 305.45 257.75 302.72 257.75 299.79
  Q 257.75 283.26 257.75 266.74
  C 257.75 260.68 259.90 260.68 264.66 259.11
  C 271.75 256.78 288.04 253.78 289.85 244.31
  A 0.39 0.39 3.4 0 0 289.44 243.85
  Z
  M 212.88 80.05
  Q 210.80 79.09 209.97 79.41
  Q 202.63 82.27 195.25 85.00
  C 192.49 86.02 191.28 86.60 191.36 89.88
  Q 191.63 101.10 191.49 112.79
  A 1.29 1.29 -8.6 0 0 193.18 114.03
  Q 198.26 112.39 203.68 110.45
  C 209.68 108.31 213.97 107.67 213.66 101.04
  C 213.34 94.18 213.54 87.37 213.27 80.63
  A 0.68 0.67 -79.2 0 0 212.88 80.05
  Z
  M 464.15 98.95
  C 454.51 102.48 445.49 109.53 443.24 120.06
  Q 442.75 122.34 442.71 131.97
  Q 442.66 143.79 442.91 155.60
  C 443.15 167.17 448.66 170.48 459.52 166.82
  Q 482.73 158.99 506.21 150.50
  Q 508.25 149.76 508.25 147.59
  C 508.25 145.08 509.33 135.95 506.47 134.68
  A 1.41 1.15 -38.1 0 0 505.53 134.66
  Q 485.90 141.56 466.36 148.72
  Q 462.63 150.09 462.10 150.16
  C 456.89 150.78 455.43 141.86 461.73 139.50
  Q 472.43 135.49 483.13 131.52
  C 494.12 127.44 499.91 126.09 505.11 117.79
  C 507.85 113.43 507.85 110.39 508.00 105.25
  C 508.25 96.53 508.90 87.72 498.75 87.64
  Q 496.21 87.62 492.25 89.00
  Q 473.24 95.62 464.15 98.95
  Z
  M 338.19 145.69
  L 338.00 208.76
  Q 337.99 211.34 340.31 210.54
  L 351.35 206.69
  Q 353.00 206.12 353.00 204.18
  Q 353.00 173.13 353.15 143.00
  Q 353.17 139.08 349.66 140.35
  Q 344.28 142.30 338.98 144.51
  A 1.29 1.28 -11.4 0 0 338.19 145.69
  Z
  M 116.78 189.87
  L 154.19 175.50
  A 1.64 1.59 -10.7 0 0 155.25 174.00
  Q 155.25 169.23 155.25 165.00
  C 155.25 159.74 153.42 160.66 149.45 162.03
  Q 126.37 170.02 103.30 178.07
  Q 101.02 178.86 101.00 181.27
  Q 100.38 238.12 101.00 295.26
  A 1.48 1.48 -6.4 0 0 102.79 296.69
  Q 105.54 296.09 108.47 295.03
  Q 137.19 284.57 165.93 274.19
  A 1.25 1.24 -10.1 0 0 166.75 273.02
  Q 166.75 267.00 166.61 261.00
  C 166.53 257.24 164.60 258.09 162.18 258.96
  Q 140.69 266.67 119.21 274.39
  C 115.83 275.61 116.00 273.59 116.00 271.18
  Q 116.00 256.82 116.00 241.72
  A 2.33 2.32 79.6 0 1 117.49 239.55
  Q 128.46 235.39 140.21 231.26
  Q 143.17 230.22 145.45 228.79
  A 2.78 2.76 74.1 0 0 146.75 226.44
  C 146.75 222.75 148.91 212.65 142.20 215.12
  Q 130.46 219.45 118.68 223.69
  Q 116.26 224.56 116.17 221.99
  Q 115.63 206.55 116.29 190.57
  A 0.79 0.76 81.0 0 1 116.78 189.87
  Z
  M 245.29 192.43
  C 245.16 184.71 240.07 180.10 232.25 182.86
  Q 207.26 191.67 182.38 200.96
  Q 180.56 201.64 180.56 203.59
  Q 180.61 231.78 180.38 260.50
  Q 180.35 263.89 180.73 267.08
  A 0.73 0.72 77.5 0 0 181.67 267.69
  L 194.10 263.63
  A 0.96 0.94 81.3 0 0 194.75 262.72
  Q 194.75 239.00 194.75 215.50
  C 194.75 212.86 195.81 211.45 198.33 210.48
  Q 209.18 206.27 220.09 202.23
  C 224.82 200.48 230.07 197.48 230.12 205.50
  Q 230.25 227.00 230.25 248.52
  A 1.19 1.16 80.5 0 0 231.80 249.66
  L 244.47 245.12
  A 0.92 0.92 86.5 0 0 245.06 244.45
  Q 245.47 242.60 245.50 238.75
  Q 245.67 215.59 245.29 192.43
  Z
  M 131.13 204.06
  A 2.31 2.29 55.2 0 0 133.35 204.47
  L 157.44 196.20
  Q 160.25 195.23 160.25 198.18
  L 160.25 235.08
  A 1.33 1.32 66.5 0 1 159.90 235.98
  C 158.14 237.90 156.43 238.34 154.10 239.27
  Q 143.71 243.41 133.29 247.48
  C 130.58 248.55 127.15 252.28 130.65 254.78
  C 132.42 256.06 134.02 254.84 135.70 254.25
  Q 150.68 249.02 165.89 243.44
  A 1.36 1.35 -11.1 0 0 166.78 242.13
  C 166.53 233.58 167.27 223.61 167.30 216.95
  Q 167.36 201.99 167.00 187.10
  Q 166.95 185.04 165.02 185.74
  Q 149.20 191.51 133.44 197.37
  C 130.35 198.51 127.73 201.23 131.13 204.06
  Z"
/>
<path fill="#a20000" d="
  M 346.41 125.13
  A 1.62 1.60 -51.9 0 0 345.08 125.30
  Q 308.12 148.34 271.32 171.58
  C 269.81 172.53 271.18 170.69 271.39 170.47
  Q 312.78 125.47 327.44 108.94
  C 329.30 106.83 328.12 104.83 327.23 102.61
  Q 321.70 88.84 316.18 75.05
  Q 315.40 73.11 317.14 74.26
  Q 329.96 82.76 343.01 91.76
  C 345.71 93.62 347.37 92.30 350.14 90.59
  Q 383.82 69.77 417.32 48.67
  C 418.17 48.14 419.69 47.98 418.14 49.64
  Q 391.38 78.32 364.97 107.32
  C 361.43 111.22 360.78 111.06 363.09 116.27
  Q 369.48 130.71 376.13 144.74
  Q 376.75 146.06 375.58 145.20
  Q 363.86 136.59 351.90 128.37
  C 350.08 127.12 348.57 125.81 346.41 125.13
  Z"
/>
<path fill="#a20000" d="
  M 414.13 56.79
  A 1.96 1.70 18.6 0 1 415.46 56.24
  Q 451.95 55.84 488.75 61.24
  C 519.72 65.78 576.02 79.34 584.92 115.92
  C 592.83 148.40 554.66 179.06 530.95 193.66
  Q 499.18 213.22 464.20 226.22
  Q 402.65 249.11 338.22 260.71
  Q 337.27 260.88 337.74 260.01
  L 341.05 253.90
  A 2.41 2.22 -79.8 0 1 342.64 252.70
  C 393.65 242.53 444.23 228.25 490.94 206.94
  C 519.82 193.76 578.98 160.51 578.22 123.69
  C 577.47 87.48 520.82 73.39 493.45 69.22
  Q 451.97 62.88 409.08 63.77
  Q 407.39 63.80 408.52 62.62
  L 414.13 56.79
  Z"
/>
<path fill="#a20000" d="
  M 380.56 57.41
  C 385.36 57.16 393.60 56.36 400.18 56.55
  Q 401.02 56.58 400.33 57.05
  C 396.79 59.46 391.50 63.63 387.18 63.88
  Q 342.23 66.45 297.11 71.54
  A 0.55 0.54 -3.3 0 1 296.50 71.00
  L 296.50 66.23
  A 0.60 0.60 -4.5 0 1 297.01 65.64
  Q 339.05 59.59 380.56 57.41
  Z"
/>
<path fill="#a20000" d="
  M 333.12 82.59
  Q 332.61 82.22 333.20 81.99
  L 345.98 76.90
  Q 348.44 75.92 348.81 78.43
  L 350.04 86.62
  A 2.67 2.38 -26.0 0 1 349.11 88.89
  C 345.49 91.94 344.86 90.59 341.22 88.18
  Q 337.22 85.54 333.12 82.59
  Z"
/>
<path fill="#ffffff" d="
  M 212.88 80.05
  A 0.68 0.67 -79.2 0 1 213.27 80.63
  C 213.54 87.37 213.34 94.18 213.66 101.04
  C 213.97 107.67 209.68 108.31 203.68 110.45
  Q 198.26 112.39 193.18 114.03
  A 1.29 1.29 -8.6 0 1 191.49 112.79
  Q 191.63 101.10 191.36 89.88
  C 191.28 86.60 192.49 86.02 195.25 85.00
  Q 202.63 82.27 209.97 79.41
  Q 210.80 79.09 212.88 80.05
  Z
  M 196.44 106.29
  A 0.39 0.37 81.2 0 0 196.93 106.67
  L 207.07 102.98
  A 2.41 2.15 81.0 0 0 208.49 100.76
  L 208.44 86.80
  A 0.35 0.35 80.1 0 0 207.97 86.47
  L 197.02 90.39
  A 0.73 0.70 80.3 0 0 196.56 91.07
  L 196.44 106.29
  Z"
/>
<path fill="#ffffff" d="
  M 443.24 120.06
  C 445.49 109.53 454.51 102.48 464.15 98.95
  Q 473.24 95.62 492.25 89.00
  Q 496.21 87.62 498.75 87.64
  C 508.90 87.72 508.25 96.53 508.00 105.25
  C 507.85 110.39 507.85 113.43 505.11 117.79
  C 499.91 126.09 494.12 127.44 483.13 131.52
  Q 472.43 135.49 461.73 139.50
  C 455.43 141.86 456.89 150.78 462.10 150.16
  Q 462.63 150.09 466.36 148.72
  Q 485.90 141.56 505.53 134.66
  A 1.41 1.15 -38.1 0 1 506.47 134.68
  C 509.33 135.95 508.25 145.08 508.25 147.59
  Q 508.25 149.76 506.21 150.50
  Q 482.73 158.99 459.52 166.82
  C 448.66 170.48 443.15 167.17 442.91 155.60
  Q 442.66 143.79 442.71 131.97
  Q 442.75 122.34 443.24 120.06
  Z
  M 459.01 117.62
  Q 457.98 119.08 458.16 120.86
  Q 458.65 125.70 462.31 124.32
  Q 476.66 118.94 490.73 112.88
  A 1.18 1.14 -2.2 0 0 491.37 112.21
  C 493.68 105.86 489.13 104.94 484.47 106.69
  C 479.90 108.41 461.22 114.49 459.01 117.62
  Z"
/>
<path fill="#a20000" d="
  M 18.14 206.76
  C 19.66 236.82 58.18 250.51 81.48 257.82
  A 0.73 0.71 9.0 0 1 81.99 258.50
  L 81.96 262.69
  A 0.42 0.40 6.3 0 1 81.45 263.08
  C 56.24 257.39 20.89 244.54 12.47 216.69
  C 4.44 190.12 29.36 163.32 49.87 148.34
  C 78.24 127.62 111.72 112.68 144.96 101.72
  A 0.47 0.46 -16.1 0 1 145.56 102.05
  Q 146.16 104.72 145.77 107.45
  A 0.89 0.84 -7.6 0 1 145.23 108.12
  C 110.86 121.45 15.82 160.76 18.14 206.76
  Z"
/>
<path fill="#a20000" d="
  M 459.01 117.62
  C 461.22 114.49 479.90 108.41 484.47 106.69
  C 489.13 104.94 493.68 105.86 491.37 112.21
  A 1.18 1.14 -2.2 0 1 490.73 112.88
  Q 476.66 118.94 462.31 124.32
  Q 458.65 125.70 458.16 120.86
  Q 457.98 119.08 459.01 117.62
  Z"
/>
<path fill="#ffffff" d="
  M 338.19 145.69
  A 1.29 1.28 -11.4 0 1 338.98 144.51
  Q 344.28 142.30 349.66 140.35
  Q 353.17 139.08 353.15 143.00
  Q 353.00 173.13 353.00 204.18
  Q 353.00 206.12 351.35 206.69
  L 340.31 210.54
  Q 337.99 211.34 338.00 208.76
  L 338.19 145.69
  Z"
/>
<path fill="#ffffff" d="
  M 116.29 190.57
  Q 115.63 206.55 116.17 221.99
  Q 116.26 224.56 118.68 223.69
  Q 130.46 219.45 142.20 215.12
  C 148.91 212.65 146.75 222.75 146.75 226.44
  A 2.78 2.76 74.1 0 1 145.45 228.79
  Q 143.17 230.22 140.21 231.26
  Q 128.46 235.39 117.49 239.55
  A 2.33 2.32 79.6 0 0 116.00 241.72
  Q 116.00 256.82 116.00 271.18
  C 116.00 273.59 115.83 275.61 119.21 274.39
  Q 140.69 266.67 162.18 258.96
  C 164.60 258.09 166.53 257.24 166.61 261.00
  Q 166.75 267.00 166.75 273.02
  A 1.25 1.24 -10.1 0 1 165.93 274.19
  Q 137.19 284.57 108.47 295.03
  Q 105.54 296.09 102.79 296.69
  A 1.48 1.48 -6.4 0 1 101.00 295.26
  Q 100.38 238.12 101.00 181.27
  Q 101.02 178.86 103.30 178.07
  Q 126.37 170.02 149.45 162.03
  C 153.42 160.66 155.25 159.74 155.25 165.00
  Q 155.25 169.23 155.25 174.00
  A 1.64 1.59 -10.7 0 1 154.19 175.50
  L 116.78 189.87
  A 0.79 0.76 81.0 0 0 116.29 190.57
  Z"
/>
<path fill="#a20000" d="
  M 273.47 184.75
  Q 274.98 182.57 277.13 181.73
  Q 290.84 176.39 304.63 171.26
  C 307.16 170.32 309.13 170.68 309.15 173.81
  Q 309.28 189.28 309.00 204.77
  A 1.29 1.28 80.1 0 1 308.18 205.94
  Q 293.77 211.58 279.04 216.37
  C 272.95 218.36 272.50 213.94 272.50 209.37
  Q 272.50 198.37 272.50 187.85
  Q 272.50 186.15 273.47 184.75
  Z
  M 293.20 190.34
  C 289.76 191.52 283.94 194.10 286.78 198.77
  A 0.69 0.65 -23.3 0 0 287.55 199.05
  Q 291.46 197.92 294.61 195.33
  A 1.07 1.06 -19.9 0 0 295.00 194.51
  L 295.00 191.62
  A 1.36 1.36 -9.5 0 0 293.20 190.34
  Z"
/>
<path fill="#ffffff" d="
  M 232.25 182.86
  C 240.07 180.10 245.16 184.71 245.29 192.43
  Q 245.67 215.59 245.50 238.75
  Q 245.47 242.60 245.06 244.45
  A 0.92 0.92 86.5 0 1 244.47 245.12
  L 231.80 249.66
  A 1.19 1.16 80.5 0 1 230.25 248.52
  Q 230.25 227.00 230.12 205.50
  C 230.07 197.48 224.82 200.48 220.09 202.23
  Q 209.18 206.27 198.33 210.48
  C 195.81 211.45 194.75 212.86 194.75 215.50
  Q 194.75 239.00 194.75 262.72
  A 0.96 0.94 81.3 0 1 194.10 263.63
  L 181.67 267.69
  A 0.73 0.72 77.5 0 1 180.73 267.08
  Q 180.35 263.89 180.38 260.50
  Q 180.61 231.78 180.56 203.59
  Q 180.56 201.64 182.38 200.96
  Q 207.26 191.67 232.25 182.86
  Z"
/>
<path fill="#ffffff" d="
  M 131.13 204.06
  C 127.73 201.23 130.35 198.51 133.44 197.37
  Q 149.20 191.51 165.02 185.74
  Q 166.95 185.04 167.00 187.10
  Q 167.36 201.99 167.30 216.95
  C 167.27 223.61 166.53 233.58 166.78 242.13
  A 1.36 1.35 -11.1 0 1 165.89 243.44
  Q 150.68 249.02 135.70 254.25
  C 134.02 254.84 132.42 256.06 130.65 254.78
  C 127.15 252.28 130.58 248.55 133.29 247.48
  Q 143.71 243.41 154.10 239.27
  C 156.43 238.34 158.14 237.90 159.90 235.98
  A 1.33 1.32 66.5 0 0 160.25 235.08
  L 160.25 198.18
  Q 160.25 195.23 157.44 196.20
  L 133.35 204.47
  A 2.31 2.29 55.2 0 1 131.13 204.06
  Z"
/>
<path fill="#ffffff" d="
  M 286.78 198.77
  C 283.94 194.10 289.76 191.52 293.20 190.34
  A 1.36 1.36 -9.5 0 1 295.00 191.62
  L 295.00 194.51
  A 1.07 1.06 -19.9 0 1 294.61 195.33
  Q 291.46 197.92 287.55 199.05
  A 0.69 0.65 -23.3 0 1 286.78 198.77
  Z"
/>
</svg>
