<?xml version="1.0" encoding="UTF-8" standalone="no"?>
<!DOCTYPE svg PUBLIC "-//W3C//DTD SVG 1.1//EN" "http://www.w3.org/Graphics/SVG/1.1/DTD/svg11.dtd">
<svg xmlns="http://www.w3.org/2000/svg" version="1.1" viewBox="0 0 600 300">
<g stroke-width="2.00" fill="none" stroke-linecap="butt">
<path stroke="#141916" vector-effect="non-scaling-stroke" d="
  M 149.66 121.40
  C 151.93 117.59 147.54 123.56 147.12 124.48
  A 0.35 0.25 -69.5 0 0 147.24 124.93
  C 147.35 124.96 148.79 122.43 149.44 121.69
  Q 149.56 121.56 149.66 121.40"
/>
<path stroke="#141916" vector-effect="non-scaling-stroke" d="
  M 155.21 183.75
  L 158.96 187.25"
/>
<path stroke="#141916" vector-effect="non-scaling-stroke" d="
  M 158.96 187.25
  Q 161.56 189.70 164.40 191.86
  Q 166.21 193.23 164.93 191.59
  C 163.79 190.13 160.79 188.26 159.25 186.96"
/>
<path stroke="#141916" vector-effect="non-scaling-stroke" d="
  M 159.25 186.96
  L 155.29 183.25"
/>
<path stroke="#141916" vector-effect="non-scaling-stroke" d="
  M 155.29 183.25
  Q 149.58 177.13 155.21 183.75"
/>
<path stroke="#27312c" vector-effect="non-scaling-stroke" d="
  M 155.29 183.25
  L 155.21 183.75"
/>
<path stroke="#27312c" vector-effect="non-scaling-stroke" d="
  M 159.25 186.96
  Q 159.02 187.02 158.96 187.25"
/>
</g>
<path fill="#000000" d="
  M 92.50 106.66
  C 99.67 111.64 105.44 109.12 111.79 104.65
  C 115.63 101.96 117.95 96.95 119.14 92.57
  Q 120.07 89.18 119.64 83.86
  Q 118.43 68.69 117.50 53.50
  Q 117.30 50.17 114.13 47.33
  A 0.47 0.46 44.2 0 1 114.11 46.65
  Q 115.77 45.13 118.01 44.60
  Q 118.48 44.49 118.85 44.15
  C 121.13 42.05 122.55 43.66 124.54 44.76
  Q 133.61 49.74 134.18 60.50
  Q 134.82 72.80 136.10 85.04
  Q 138.80 110.77 115.31 120.81
  C 102.97 126.09 95.79 117.53 91.91 107.12
  Q 91.48 105.95 92.50 106.66
  Z"
/>
<path fill="#000000" d="
  M 101.17 177.19
  C 106.40 171.00 117.27 170.54 119.35 180.28
  C 121.96 192.51 118.32 201.60 105.00 203.25
  Q 102.60 203.55 100.46 205.46
  C 92.22 212.85 92.89 220.91 91.43 230.96
  C 90.41 238.03 81.91 240.06 75.74 239.74
  Q 61.85 239.01 37.50 237.25
  C 24.92 236.34 38.98 212.83 22.97 208.62
  C 19.82 207.79 18.66 207.46 17.25 203.91
  Q 16.75 202.64 16.03 201.48
  C 15.10 199.99 15.70 198.04 15.84 196.54
  C 17.99 172.73 18.52 148.63 19.74 124.75
  Q 20.04 118.77 24.76 115.81
  C 29.88 112.60 32.95 108.88 34.01 102.79
  C 35.33 95.19 35.09 89.73 42.77 85.43
  Q 72.30 68.91 102.04 52.78
  Q 104.62 51.38 107.45 50.68
  A 1.35 1.27 -37.2 0 1 108.39 50.78
  C 111.90 52.58 111.57 54.84 111.82 58.25
  Q 112.97 73.71 113.94 89.19
  Q 114.01 90.39 112.13 94.95
  Q 109.23 101.99 102.20 103.19
  C 93.92 104.61 93.69 96.47 92.59 90.98
  C 91.11 83.69 83.36 83.09 77.54 85.00
  Q 76.72 85.27 71.38 88.00
  Q 61.74 92.93 52.13 97.95
  C 48.00 100.12 45.79 105.75 45.72 110.01
  Q 44.99 153.36 44.82 196.72
  C 44.80 201.95 46.32 207.70 50.71 210.24
  Q 52.98 211.54 57.55 211.45
  C 64.32 211.31 71.04 210.74 77.80 210.57
  C 85.65 210.37 95.80 204.61 96.48 195.83
  C 97.03 188.65 96.88 182.25 101.17 177.19
  Z"
/>
<path fill="#000000" d="
  M 146.02 128.83
  Q 142.23 131.23 138.01 132.58
  C 129.77 135.21 123.27 130.76 116.26 127.77
  Q 114.93 127.21 116.30 126.74
  C 125.81 123.49 132.85 117.29 137.82 108.93
  C 140.72 104.04 142.71 95.69 142.25 89.25
  Q 141.18 74.24 139.98 58.95
  Q 139.89 57.82 140.73 58.57
  C 145.88 63.15 155.44 70.44 155.82 77.95
  Q 156.33 88.10 157.25 98.23
  Q 158.00 106.63 157.50 110.00
  C 157.40 110.65 156.22 114.38 156.42 114.58
  A 0.53 0.37 -43.2 0 0 157.04 114.49
  C 165.32 107.03 174.94 96.94 185.45 95.48
  C 199.71 93.50 211.23 94.18 228.91 94.29
  C 232.54 94.32 235.92 95.41 239.75 96.25
  C 245.38 97.48 246.38 102.70 245.19 107.50
  C 243.95 112.53 240.35 112.35 236.02 113.22
  C 234.57 113.51 232.67 113.94 231.22 113.94
  Q 212.86 114.05 194.49 114.00
  Q 191.83 113.99 189.51 115.29
  Q 178.55 121.42 168.56 131.31
  C 165.79 134.06 165.25 136.36 165.25 140.48
  Q 165.25 150.49 165.25 160.50
  C 165.25 163.46 166.41 165.89 168.77 167.96
  Q 172.97 171.66 182.19 179.56
  C 189.45 185.79 194.74 185.25 205.57 185.25
  Q 217.66 185.25 229.75 185.25
  Q 232.20 185.25 235.19 185.95
  C 241.28 187.38 245.82 186.96 245.50 195.50
  C 245.24 202.48 240.97 203.02 234.90 204.21
  Q 231.09 204.95 226.00 205.00
  C 211.54 205.13 199.18 205.45 187.24 204.18
  C 179.70 203.37 173.50 199.36 168.05 194.43
  Q 166.08 192.64 165.54 195.25
  C 163.56 204.83 157.86 216.05 148.31 220.49
  C 144.38 222.32 140.16 221.79 135.86 221.75
  Q 133.41 221.72 135.41 220.32
  C 145.06 213.54 155.07 189.89 150.16 178.25
  Q 150.01 177.89 147.75 174.69
  C 146.13 172.40 146.14 169.00 145.78 166.76
  Q 142.68 147.88 146.34 129.05
  Q 146.43 128.57 146.02 128.83
  Z
  M 149.66 121.40
  C 151.93 117.59 147.54 123.56 147.12 124.48
  A 0.35 0.25 -69.5 0 0 147.24 124.93
  C 147.35 124.96 148.79 122.43 149.44 121.69
  Q 149.56 121.56 149.66 121.40
  Z
  M 155.21 183.75
  L 158.96 187.25
  Q 161.56 189.70 164.40 191.86
  Q 166.21 193.23 164.93 191.59
  C 163.79 190.13 160.79 188.26 159.25 186.96
  L 155.29 183.25
  Q 149.58 177.13 155.21 183.75
  Z"
/>
<path fill="#000000" d="
  M 67.07 198.16
  L 89.62 196.05
  Q 90.84 195.93 90.26 196.99
  C 87.00 202.91 82.73 204.08 75.83 204.53
  Q 67.64 205.07 59.45 205.46
  C 55.87 205.62 53.20 205.94 51.58 202.19
  Q 50.72 200.19 50.75 198.02
  Q 51.29 155.75 51.32 113.50
  C 51.33 108.49 52.33 104.13 56.97 101.88
  Q 67.23 96.90 77.39 91.70
  C 80.59 90.07 82.16 89.80 85.50 90.70
  A 1.53 1.45 1.7 0 1 86.57 91.78
  L 88.65 100.85
  A 0.64 0.60 -18.2 0 1 88.27 101.55
  L 65.48 111.09
  A 2.51 2.42 78.7 0 0 64.00 113.39
  Q 64.23 152.62 64.25 192.48
  C 64.25 194.84 63.86 196.54 66.14 197.95
  A 1.55 1.37 -28.9 0 0 67.07 198.16
  Z"
/>
<path fill="#000000" d="
  M 277.69 99.19
  C 281.77 91.83 315.77 94.37 325.25 94.75
  Q 334.76 95.13 341.77 100.18
  C 345.60 102.94 352.02 111.25 352.98 116.24
  Q 354.28 122.90 354.50 128.00
  Q 355.12 142.21 356.75 192.50
  Q 356.85 195.55 354.40 200.74
  A 1.61 1.21 -84.9 0 1 353.76 201.45
  L 347.47 204.79
  A 1.10 0.97 40.9 0 1 346.55 204.80
  C 342.95 203.19 338.58 202.23 336.93 198.22
  Q 336.76 197.81 336.83 197.26
  Q 337.14 194.72 334.81 196.06
  C 329.62 199.07 320.16 204.33 313.36 204.73
  Q 299.03 205.57 285.75 204.50
  Q 276.73 203.77 268.84 199.17
  C 264.70 196.75 262.34 193.04 259.46 189.23
  C 257.38 186.47 257.63 183.91 256.97 180.75
  Q 254.20 167.43 258.03 154.50
  Q 258.72 152.19 260.52 150.17
  C 265.36 144.77 268.62 139.94 276.25 137.50
  Q 280.10 136.27 291.50 136.12
  Q 312.72 135.83 333.51 135.93
  A 0.95 0.95 -88.8 0 0 334.47 135.01
  C 334.82 119.69 332.50 114.02 316.00 114.09
  Q 303.61 114.14 291.23 113.87
  C 287.40 113.79 279.16 113.16 277.37 109.06
  Q 275.10 103.86 277.69 99.19
  Z
  M 277.46 160.06
  Q 276.50 161.62 276.50 163.45
  Q 276.50 169.50 276.54 176.50
  C 276.58 183.34 281.49 183.74 286.83 184.75
  C 294.10 186.11 303.20 185.25 311.04 185.25
  Q 312.00 185.25 312.79 184.85
  L 334.31 173.98
  A 0.91 0.89 80.0 0 0 334.80 173.26
  C 335.69 163.99 334.98 155.39 323.00 155.25
  Q 300.46 154.99 289.28 155.43
  Q 287.93 155.49 286.26 155.89
  C 282.44 156.83 279.77 156.30 277.46 160.06
  Z"
/>
<path fill="#000000" d="
  M 417.30 183.34
  C 417.81 183.07 418.02 181.96 418.21 181.54
  Q 432.03 151.44 445.72 121.28
  C 448.58 114.96 444.06 101.47 450.74 96.46
  C 454.06 93.98 459.49 93.28 463.11 95.65
  C 467.73 98.67 467.63 110.50 467.50 116.00
  C 467.37 121.61 467.21 124.04 464.72 129.28
  Q 450.38 159.54 435.90 189.73
  C 432.27 197.30 430.51 200.38 424.16 204.72
  A 1.62 1.60 27.5 0 1 423.25 205.00
  C 419.37 205.00 412.50 205.90 409.18 203.90
  Q 404.88 201.29 402.81 197.19
  Q 390.14 172.02 369.02 127.20
  C 365.21 119.12 367.10 104.78 369.65 97.28
  A 1.59 1.52 82.2 0 1 370.21 96.51
  Q 375.89 92.37 382.44 95.55
  C 387.22 97.86 387.49 113.08 387.25 117.70
  Q 387.18 119.02 387.74 120.23
  L 416.40 183.03
  A 0.66 0.65 63.8 0 0 417.30 183.34
  Z"
/>
<path fill="#000000" d="
  M 477.73 129.75
  C 477.72 121.45 480.37 114.67 486.55 109.67
  C 493.21 104.27 500.63 96.18 509.60 95.16
  Q 530.45 92.78 548.50 95.50
  C 552.75 96.14 556.09 99.55 559.21 101.83
  C 565.45 106.40 572.85 110.35 576.00 118.00
  C 577.06 120.57 577.42 128.21 578.15 133.50
  C 578.48 135.91 578.00 138.56 578.14 140.82
  Q 578.57 147.96 577.15 154.93
  C 576.15 159.85 575.85 163.76 570.25 163.75
  Q 534.78 163.70 499.32 163.81
  A 0.61 0.60 5.1 0 0 498.72 164.30
  C 497.20 172.83 502.57 179.77 509.84 183.25
  C 513.09 184.80 518.04 185.25 521.74 185.25
  Q 540.25 185.25 558.75 185.25
  C 564.05 185.25 567.80 185.95 572.33 186.56
  C 580.09 187.61 580.35 201.46 572.66 203.07
  C 569.58 203.72 566.39 204.93 563.24 204.94
  Q 526.90 205.10 515.25 205.00
  Q 510.63 204.96 505.58 203.74
  C 496.91 201.66 486.06 190.18 480.94 183.56
  C 479.13 181.23 477.75 171.01 477.75 169.00
  Q 477.75 149.37 477.73 129.75
  Z
  M 501.20 122.98
  Q 498.70 125.87 498.69 129.12
  L 498.66 143.57
  A 0.53 0.50 0.0 0 0 499.19 144.07
  L 556.99 144.24
  A 1.21 1.21 87.6 0 0 558.20 142.92
  C 557.88 139.37 559.15 128.81 557.44 126.31
  C 554.65 122.24 546.89 115.07 541.75 114.50
  Q 532.42 113.47 517.39 114.10
  C 511.32 114.36 504.84 118.75 501.20 122.98
  Z"
/>
<path fill="#000000" d="
  M 75.94 114.31
  Q 74.25 113.74 75.81 113.06
  L 85.38 108.94
  A 0.80 0.74 -22.4 0 1 86.42 109.33
  Q 88.37 114.28 91.21 118.34
  A 1.08 0.80 42.5 0 1 91.38 119.23
  C 90.92 120.48 77.73 114.93 75.94 114.31
  Z"
/>
<path fill="#000000" d="
  M 86.11 124.81
  A 1.08 1.03 11.2 0 1 86.76 125.74
  L 88.92 188.84
  A 1.53 1.50 -3.8 0 1 87.54 190.39
  L 70.72 192.06
  A 0.37 0.37 -3.6 0 1 70.31 191.70
  L 69.73 118.72
  A 0.58 0.58 -79.0 0 1 70.53 118.18
  L 86.11 124.81
  Z"
/>
<path fill="#27312c" d="
  M 147.12 124.48
  C 147.54 123.56 151.93 117.59 149.66 121.40
  Q 149.56 121.56 149.44 121.69
  C 148.79 122.43 147.35 124.96 147.24 124.93
  A 0.35 0.25 -69.5 0 1 147.12 124.48
  Z"
/>
<path fill="#000000" d="
  M 71.56 245.51
  C 77.24 245.86 84.40 245.70 89.17 243.10
  C 102.00 236.11 95.04 222.40 101.81 212.31
  Q 103.57 209.70 107.20 208.97
  Q 125.02 205.41 126.05 188.75
  C 126.86 175.56 119.75 162.09 104.05 168.07
  Q 101.25 169.13 103.36 167.01
  C 116.00 154.29 138.10 160.37 143.81 176.94
  C 147.78 188.44 142.45 205.74 133.20 214.29
  C 129.53 217.68 124.84 221.58 119.59 221.51
  Q 117.06 221.47 116.66 223.97
  C 114.78 235.75 111.11 248.67 100.49 255.15
  C 96.92 257.32 93.50 256.84 89.50 256.25
  Q 73.61 253.90 52.20 252.01
  C 44.18 251.30 44.01 248.85 38.89 244.02
  Q 38.20 243.36 39.15 243.43
  Q 55.90 244.55 71.56 245.51
  Z"
/>
<path fill="#27312c" d="
  M 155.29 183.25
  L 155.21 183.75
  Q 149.58 177.13 155.29 183.25
  Z"
/>
<path fill="#27312c" d="
  M 155.29 183.25
  L 159.25 186.96
  Q 159.02 187.02 158.96 187.25
  L 155.21 183.75
  L 155.29 183.25
  Z"
/>
<path fill="#27312c" d="
  M 159.25 186.96
  C 160.79 188.26 163.79 190.13 164.93 191.59
  Q 166.21 193.23 164.40 191.86
  Q 161.56 189.70 158.96 187.25
  Q 159.02 187.02 159.25 186.96
  Z"
/>
<path fill="#000000" d="
  M 137.16 227.98
  Q 137.75 228.00 138.16 227.86
  C 141.70 226.70 137.11 237.61 136.31 239.56
  C 131.46 251.41 123.42 252.66 112.04 254.12
  Q 111.02 254.26 111.61 253.41
  C 117.29 245.30 119.45 239.87 122.08 228.17
  A 0.65 0.62 -82.5 0 1 122.70 227.67
  L 137.16 227.98
  Z"
/>
</svg>
