<?xml version="1.0" encoding="UTF-8" standalone="no"?>
<!DOCTYPE svg PUBLIC "-//W3C//DTD SVG 1.1//EN" "http://www.w3.org/Graphics/SVG/1.1/DTD/svg11.dtd">
<svg xmlns="http://www.w3.org/2000/svg" version="1.1" viewBox="0 0 600 300">
<path fill="#000000" d="
  M 299.31 0.00
  L 300.06 0.00
  L 330.87 12.05
  A 1.40 1.37 -79.6 0 1 331.75 13.35
  L 331.69 61.30
  Q 331.69 62.15 332.24 61.51
  Q 339.33 53.34 346.56 45.31
  C 348.51 43.16 349.17 43.14 351.49 42.22
  Q 364.61 37.03 377.81 32.06
  C 381.42 30.71 382.08 31.43 386.01 32.93
  Q 399.56 38.12 413.27 43.61
  A 0.76 0.75 10.9 0 1 413.75 44.31
  Q 413.75 107.50 413.61 170.50
  Q 413.61 174.39 413.98 178.04
  A 0.90 0.88 -14.7 0 1 413.43 178.95
  L 380.39 192.89
  A 1.31 1.25 -44.8 0 1 379.44 192.91
  Q 363.20 186.71 347.25 180.50
  C 344.07 179.26 342.86 179.11 340.77 176.21
  Q 337.97 172.34 335.41 168.27
  Q 334.25 166.43 334.25 168.60
  L 334.25 211.46
  A 1.12 1.12 78.5 0 1 333.57 212.49
  L 300.26 226.64
  A 3.75 3.58 44.0 0 1 297.39 226.62
  L 265.71 213.14
  A 1.54 1.53 87.0 0 1 264.94 212.44
  L 248.19 180.16
  A 0.55 0.55 -26.1 0 0 247.48 179.92
  L 218.84 192.70
  A 2.26 2.12 43.1 0 1 217.09 192.70
  L 185.63 179.48
  A 1.04 1.03 11.7 0 1 185.00 178.53
  L 185.00 45.18
  A 1.54 1.53 79.4 0 1 185.97 43.75
  L 217.44 31.53
  Q 219.05 30.91 220.69 31.55
  L 249.19 42.60
  A 1.62 1.60 -64.6 0 0 251.18 41.88
  L 267.31 13.00
  A 1.48 1.44 -85.8 0 1 268.02 12.37
  L 299.31 0.00
  Z
  M 271.83 13.26
  L 298.74 23.81
  A 2.90 2.78 -44.1 0 0 300.81 23.80
  L 326.75 13.91
  Q 328.82 13.11 326.76 12.31
  L 300.50 2.05
  A 2.32 2.14 -42.7 0 0 298.89 2.05
  L 271.85 12.46
  Q 270.80 12.86 271.83 13.26
  Z
  M 268.13 15.22
  L 252.54 42.98
  A 2.08 2.05 46.9 0 0 252.49 44.92
  Q 259.55 59.12 265.75 72.00
  Q 266.79 74.16 268.43 72.89
  Q 268.85 72.57 269.30 72.48
  Q 272.83 71.80 274.69 68.44
  Q 286.06 47.86 297.70 27.42
  A 1.29 1.29 -64.6 0 0 297.05 25.59
  L 269.45 14.75
  A 1.07 1.06 25.2 0 0 268.13 15.22
  Z
  M 408.53 43.63
  L 380.96 32.92
  A 1.30 1.17 -43.2 0 0 380.05 32.94
  L 352.50 43.60
  Q 350.98 44.18 352.51 44.77
  L 380.03 55.31
  A 1.35 1.34 45.3 0 0 380.97 55.32
  L 408.51 44.84
  Q 410.10 44.23 408.53 43.63
  Z
  M 246.81 43.44
  L 219.79 33.12
  A 2.53 2.47 -44.7 0 0 218.02 33.13
  L 191.17 43.44
  Q 189.35 44.14 191.17 44.84
  L 218.38 55.29
  A 2.12 2.09 -44.5 0 0 219.89 55.29
  L 246.81 44.98
  Q 248.82 44.21 246.81 43.44
  Z
  M 348.33 45.99
  C 341.02 54.14 333.89 62.05 327.06 70.37
  A 0.41 0.38 -58.1 0 0 327.18 70.98
  L 331.99 73.09
  Q 334.23 74.08 335.17 75.42
  L 378.70 137.83
  Q 379.93 139.60 379.93 137.44
  L 379.76 58.49
  A 1.53 1.51 -79.8 0 0 378.78 57.06
  L 349.35 45.74
  A 0.92 0.91 31.0 0 0 348.33 45.99
  Z
  M 218.80 120.73
  Q 219.95 120.69 220.75 122.25
  Q 243.44 166.26 265.65 210.12
  A 4.16 4.09 -1.7 0 0 267.73 212.05
  L 297.76 224.76
  A 0.89 0.89 11.4 0 0 299.00 223.94
  Q 299.00 158.33 299.00 92.66
  C 299.00 88.21 298.53 88.46 294.31 86.86
  Q 281.44 81.98 267.85 76.74
  A 0.62 0.62 10.6 0 0 267.00 77.32
  Q 266.95 111.22 267.06 143.94
  Q 267.07 146.19 265.28 145.62
  A 1.36 1.08 80.0 0 1 264.57 144.99
  L 218.72 58.59
  A 3.60 3.49 -2.7 0 0 216.89 56.98
  L 187.99 45.75
  A 0.54 0.53 10.9 0 0 187.25 46.24
  L 187.31 177.69
  A 0.75 0.74 11.2 0 0 187.78 178.38
  L 216.92 190.74
  A 0.79 0.78 10.7 0 0 218.01 190.00
  Q 217.30 155.41 218.30 121.32
  A 0.60 0.51 -89.9 0 1 218.80 120.73
  Z
  M 329.70 74.42
  L 300.88 63.50
  A 2.44 2.41 -44.6 0 0 299.15 63.50
  L 270.14 74.38
  Q 268.69 74.93 270.14 75.48
  L 299.06 86.37
  A 2.07 2.02 44.7 0 0 300.51 86.38
  L 329.71 75.32
  Q 330.89 74.87 329.70 74.42
  Z
  M 335.06 134.68
  Q 334.68 134.19 334.68 134.81
  L 334.75 162.21
  Q 334.76 164.20 335.77 165.65
  L 343.51 176.79
  A 1.76 1.42 -2.0 0 0 344.28 177.37
  L 375.98 189.71
  Q 377.93 190.46 376.65 188.80
  L 335.06 134.68
  Z"
/>
<path fill="#000000" d="
  M 502.74 240.44
  C 517.52 232.10 529.93 247.22 522.93 260.86
  Q 517.92 270.65 505.75 269.75
  C 487.77 268.42 486.14 245.38 494.20 233.52
  Q 502.19 221.76 519.04 222.28
  A 0.98 0.97 5.7 0 1 519.97 223.41
  Q 519.43 226.87 519.99 230.45
  A 1.58 1.58 87.1 0 1 518.34 232.28
  C 512.28 231.95 504.45 233.73 502.45 240.20
  Q 502.30 240.69 502.74 240.44
  Z
  M 508.3436 260.6011
  A 6.91 5.35 81.9 0 0 512.6666 253.0062
  A 6.91 5.35 81.9 0 0 506.3964 246.9189
  A 6.91 5.35 81.9 0 0 502.0734 254.5138
  A 6.91 5.35 81.9 0 0 508.3436 260.6011
  Z"
/>
<path fill="#000000" d="
  M 559.29 249.54
  L 561.86 249.43
  A 1.57 1.29 -1.1 0 1 563.51 250.73
  L 563.35 258.56
  A 0.60 0.54 -2.4 0 1 562.81 259.09
  L 559.44 259.38
  A 0.58 0.55 -2.2 0 0 558.90 259.93
  L 558.85 268.78
  A 0.67 0.61 -89.5 0 1 558.24 269.44
  L 548.28 269.49
  A 0.80 0.77 89.3 0 1 547.50 268.70
  L 547.45 259.32
  A 0.52 0.52 89.4 0 0 546.93 258.81
  L 529.68 258.76
  A 1.23 1.20 -3.5 0 1 528.48 257.72
  C 527.84 252.94 528.03 250.89 530.49 246.55
  Q 536.74 235.55 543.08 224.08
  A 2.10 2.09 -75.4 0 1 544.91 223.00
  L 557.90 223.00
  A 0.85 0.85 -0.0 0 1 558.75 223.85
  L 558.81 248.93
  A 0.61 0.46 89.1 0 0 559.29 249.54
  Z
  M 547.54 232.57
  C 547.33 232.58 540.68 246.77 539.84 248.38
  A 0.81 0.75 12.2 0 0 540.61 249.49
  L 546.77 249.29
  A 0.77 0.75 -0.4 0 0 547.51 248.56
  L 547.96 233.25
  A 0.65 0.40 -89.9 0 0 547.54 232.57
  Z"
/>
<path fill="#000000" d="
  M 431.06 289.13
  C 424.22 280.45 423.44 265.90 427.01 255.79
  Q 433.72 236.78 456.49 238.64
  Q 475.15 240.17 479.94 257.81
  C 484.42 274.33 479.36 294.33 460.00 298.25
  C 449.16 300.44 437.98 297.91 431.06 289.13
  Z
  M 450.43 283.31
  C 461.11 288.55 458.76 266.87 458.50 261.50
  C 458.31 257.70 457.74 252.85 453.12 252.47
  C 447.87 252.03 447.34 261.79 447.34 265.63
  C 447.34 272.03 447.24 276.85 449.25 282.02
  A 2.44 2.42 2.8 0 0 450.43 283.31
  Z"
/>
<path fill="#000000" d="
  M 72.93 271.68
  L 72.76 240.67
  A 0.92 0.91 -0.3 0 1 73.68 239.75
  L 89.51 239.75
  A 0.55 0.55 -89.2 0 1 90.06 240.30
  L 90.07 296.81
  A 0.52 0.51 89.4 0 1 89.57 297.33
  L 65.45 297.48
  A 1.71 1.67 80.0 0 1 63.85 296.33
  L 53.65 266.72
  Q 52.22 262.56 52.26 266.97
  L 52.49 296.25
  A 1.27 1.24 -0.2 0 1 51.22 297.50
  L 36.03 297.50
  A 1.03 1.03 0.2 0 1 35.00 296.47
  L 35.00 240.82
  A 1.07 1.07 -0.7 0 1 36.07 239.75
  L 59.99 239.75
  A 1.18 1.18 -9.9 0 1 61.10 240.53
  C 62.11 243.34 72.01 272.21 72.45 272.26
  A 0.57 0.44 -87.8 0 0 72.93 271.68
  Z"
/>
<rect fill="#000000" x="100.52" y="239.76" width="21.74" height="57.74" rx="0.70"/>
<path fill="#000000" d="
  M 149.73 267.28
  Q 150.46 280.57 149.77 296.75
  A 0.55 0.52 -88.9 0 1 149.25 297.28
  L 133.19 297.34
  A 0.54 0.51 90.0 0 1 132.68 296.80
  L 132.51 240.81
  A 1.06 1.06 0.0 0 1 133.57 239.75
  L 157.49 239.75
  A 1.07 1.06 79.7 0 1 158.49 240.45
  C 159.54 243.28 169.66 272.23 169.94 272.26
  A 0.56 0.45 -87.7 0 0 170.43 271.69
  L 170.26 240.61
  A 0.82 0.80 -89.7 0 1 171.07 239.79
  L 187.00 239.97
  A 0.53 0.51 -89.4 0 1 187.50 240.50
  L 187.50 296.37
  A 1.13 1.13 0.0 0 1 186.37 297.50
  L 162.61 297.44
  A 1.11 1.10 80.3 0 1 161.57 296.70
  L 151.23 266.98
  Q 149.42 261.76 149.73 267.28
  Z"
/>
<path fill="#000000" d="
  M 205.88 255.36
  L 194.80 255.48
  A 0.90 0.87 89.7 0 1 193.92 254.58
  L 194.00 240.53
  A 0.79 0.77 -89.6 0 1 194.77 239.75
  L 242.32 239.75
  A 0.68 0.68 0.0 0 1 243.00 240.43
  L 243.00 254.31
  A 1.17 1.13 -89.8 0 1 241.86 255.48
  L 230.21 255.34
  A 0.94 0.90 0.6 0 0 229.25 256.24
  L 229.25 296.68
  A 0.76 0.75 -90.0 0 1 228.50 297.44
  L 208.30 297.49
  A 0.74 0.73 -90.0 0 1 207.56 296.74
  L 207.75 257.12
  A 1.84 1.75 -0.3 0 0 205.88 255.36
  Z"
/>
<path fill="#000000" d="
  M 271.60 282.42
  L 292.02 282.27
  A 0.74 0.72 89.6 0 1 292.75 283.01
  L 292.75 296.83
  A 0.67 0.67 0.0 0 1 292.08 297.50
  L 250.35 297.50
  A 0.85 0.85 -90.0 0 1 249.50 296.65
  L 249.50 240.77
  A 1.02 1.02 0.0 0 1 250.52 239.75
  L 291.65 239.75
  A 0.57 0.55 -0.5 0 1 292.22 240.29
  L 292.50 253.92
  A 1.38 1.31 -0.8 0 1 291.13 255.26
  L 271.19 255.42
  A 0.52 0.52 90.0 0 0 270.67 255.94
  L 270.67 260.56
  A 0.53 0.51 0.6 0 0 271.19 261.07
  L 289.82 261.43
  A 0.54 0.51 0.6 0 1 290.35 261.94
  L 290.34 275.31
  A 0.53 0.52 0.0 0 1 289.81 275.83
  L 272.01 275.99
  A 1.46 1.43 -9.1 0 0 270.62 277.86
  Q 271.07 279.27 270.56 281.08
  A 1.07 1.05 7.7 0 0 271.60 282.42
  Z"
/>
<path fill="#000000" d="
  M 317.57 265.07
  L 317.94 296.93
  A 0.51 0.51 -0.6 0 1 317.44 297.44
  L 301.14 297.50
  A 0.65 0.64 -90.0 0 1 300.50 296.85
  L 300.50 240.42
  A 0.67 0.67 -0.2 0 1 301.17 239.75
  L 325.31 239.75
  A 1.41 1.39 -9.2 0 1 326.64 240.69
  L 337.55 272.16
  A 0.98 0.56 79.7 0 0 338.06 272.77
  Q 338.45 272.88 338.44 272.19
  Q 338.12 256.97 338.26 240.51
  A 0.77 0.77 -89.6 0 1 339.03 239.75
  L 354.94 239.75
  A 0.56 0.56 0.0 0 1 355.50 240.31
  L 355.50 296.84
  A 0.66 0.66 0.0 0 1 354.84 297.50
  L 330.55 297.50
  A 1.12 1.11 -9.6 0 1 329.50 296.76
  C 328.42 293.67 318.66 264.69 318.06 264.56
  A 0.49 0.40 -85.2 0 0 317.57 265.07
  Z"
/>
<path fill="#000000" d="
  M 389.75 239.82
  C 410.19 240.01 420.97 250.63 419.23 271.74
  C 416.70 302.31 387.68 297.74 366.13 297.49
  A 0.96 0.96 0.0 0 1 365.18 296.54
  L 365.00 240.49
  A 0.68 0.68 -0.4 0 1 365.67 239.81
  Q 377.66 239.70 389.75 239.82
  Z
  M 396.42 259.76
  C 395.97 254.68 391.53 251.89 386.73 252.89
  A 0.63 0.60 84.4 0 0 386.25 253.50
  L 386.18 283.67
  A 0.70 0.69 -85.7 0 0 386.77 284.36
  C 399.94 286.45 397.08 267.15 396.42 259.76
  Z"
/>
<path fill="#000000" d="
  M 498.18 292.10
  A 6.83 6.83 0.0 0 1 491.35 298.93
  A 6.83 6.83 0.0 0 1 484.52 292.10
  A 6.83 6.83 0.0 0 1 491.35 285.27
  A 6.83 6.83 0.0 0 1 498.18 292.10
  Z
  M 496.81 292.14
  A 5.43 5.43 0.0 0 0 491.38 286.71
  A 5.43 5.43 0.0 0 0 485.95 292.14
  A 5.43 5.43 0.0 0 0 491.38 297.57
  A 5.43 5.43 0.0 0 0 496.81 292.14
  Z"
/>
<path fill="#000000" d="
  M 493.84 292.48
  Q 494.52 293.65 494.30 294.96
  A 0.85 0.80 87.5 0 1 493.73 295.62
  Q 492.47 295.98 492.67 294.25
  A 1.16 0.93 -67.8 0 0 492.41 293.38
  Q 490.11 291.01 490.45 294.76
  A 0.77 0.69 75.4 0 1 490.07 295.50
  C 488.02 296.50 488.75 290.68 488.75 289.49
  A 0.80 0.80 81.0 0 1 489.30 288.73
  Q 492.57 287.65 494.21 289.61
  A 0.97 0.71 41.1 0 1 494.41 290.50
  L 493.87 291.67
  A 1.00 0.64 -55.2 0 0 493.84 292.48
  Z
  M 492.7377 290.8922
  A 1.33 1.01 17.6 0 0 491.7754 289.5273
  A 1.33 1.01 17.6 0 0 490.2023 290.0878
  A 1.33 1.01 17.6 0 0 491.1646 291.4527
  A 1.33 1.01 17.6 0 0 492.7377 290.8922
  Z"
/>
</svg>
