<?xml version="1.0" encoding="UTF-8" standalone="no"?>
<!DOCTYPE svg PUBLIC "-//W3C//DTD SVG 1.1//EN" "http://www.w3.org/Graphics/SVG/1.1/DTD/svg11.dtd">
<svg xmlns="http://www.w3.org/2000/svg" version="1.1" viewBox="0.00 0.00 600.00 108.00">
<g stroke-width="2.00" fill="none" stroke-linecap="butt">
<path stroke="#527e67" vector-effect="non-scaling-stroke" d="
  M 90.32 80.97
  C 92.27 74.40 92.78 66.91 95.69 60.23
  Q 95.87 59.80 96.31 59.64
  Q 100.31 58.13 104.56 58.70
  A 0.84 0.84 0.0 0 0 105.49 58.06
  L 107.19 51.02
  A 0.42 0.42 0.0 0 0 106.78 50.50
  L 64.22 50.50
  Q 63.66 50.50 63.54 51.04
  L 62.02 57.77
  Q 61.86 58.47 62.57 58.50
  L 69.85 58.83
  A 2.46 2.46 0.0 0 1 72.16 61.73
  C 71.01 68.02 70.31 73.94 62.51 74.43
  C 48.45 75.33 41.65 66.75 45.28 53.50
  C 46.68 48.42 47.61 44.06 50.93 39.42
  Q 59.16 27.91 73.57 29.40
  Q 80.91 30.16 83.77 36.04
  C 84.93 38.43 84.46 41.53 84.51 44.26
  Q 84.52 44.75 85.01 44.75
  L 96.19 44.75
  Q 96.85 44.75 97.00 44.11
  L 102.03 22.52
  Q 102.19 21.85 101.50 21.83
  L 91.77 21.52
  A 2.93 2.92 16.7 0 0 89.17 22.92
  L 87.18 26.21
  A 0.52 0.52 0.0 0 1 86.35 26.28
  Q 82.75 22.23 78.43 21.60
  C 56.44 18.35 31.09 24.14 21.06 46.14
  Q 13.69 62.34 24.20 73.67
  C 31.97 82.04 43.77 83.03 54.41 82.96
  C 63.66 82.89 70.43 82.43 77.48 77.48
  A 0.71 0.71 0.0 0 1 78.58 77.90
  L 79.37 81.30
  Q 79.52 81.98 80.21 81.98
  L 88.93 82.01
  A 1.46 1.45 -81.7 0 0 90.32 80.97"
/>
<path stroke="#527e67" vector-effect="non-scaling-stroke" d="
  M 460.74 54.21
  Q 461.70 52.11 461.42 49.70
  Q 461.41 49.61 461.50 49.59
  Q 461.63 49.54 461.75 49.50
  Q 461.89 49.45 461.92 49.31
  L 466.15 31.03
  Q 466.30 30.41 466.93 30.33
  C 477.23 29.01 482.07 35.11 478.59 44.81
  A 0.35 0.35 0.0 0 0 478.99 45.27
  L 490.99 42.90
  A 0.82 0.82 0.0 0 0 491.64 41.97
  L 488.47 22.34
  A 0.89 0.88 -4.5 0 0 487.59 21.60
  L 422.09 21.83
  Q 421.56 21.83 421.33 22.31
  L 412.23 40.63
  Q 411.97 41.16 412.52 41.36
  L 423.03 45.14
  Q 423.53 45.32 423.65 44.80
  Q 427.01 30.19 442.05 30.13
  A 0.49 0.48 -83.4 0 1 442.52 30.73
  L 433.14 70.32
  A 4.31 4.29 6.0 0 1 429.04 73.63
  L 419.98 73.81
  Q 419.57 73.81 419.46 74.21
  L 417.60 81.43
  Q 417.50 81.82 417.90 81.82
  L 466.65 81.78
  Q 467.19 81.77 467.31 81.26
  L 468.94 74.30
  Q 469.06 73.83 468.56 73.81
  L 459.24 73.61
  A 2.22 2.22 0.0 0 1 457.11 70.96
  Q 458.59 63.42 460.75 55.39
  Q 460.78 55.26 460.76 55.14
  Q 460.74 55.00 460.70 54.87
  A 0.91 0.89 48.9 0 1 460.74 54.21"
/>
<path stroke="#527e67" vector-effect="non-scaling-stroke" d="
  M 286.98 33.45
  L 277.94 70.69
  A 3.65 3.64 5.3 0 1 274.60 73.46
  L 267.64 73.84
  Q 267.13 73.87 267.00 74.37
  L 265.30 81.32
  A 0.46 0.46 0.0 0 0 265.75 81.89
  L 311.07 81.69
  Q 311.60 81.69 311.72 81.17
  L 313.41 74.30
  A 0.38 0.37 8.2 0 0 313.06 73.84
  L 303.58 73.50
  A 2.16 2.16 0.0 0 1 301.55 70.85
  L 310.52 32.56
  A 1.22 1.20 -15.7 0 1 310.88 31.93
  C 313.58 29.47 318.83 30.06 322.62 30.07
  A 1.52 1.52 0.0 0 0 324.12 28.88
  L 325.49 22.71
  A 0.79 0.78 6.4 0 0 324.72 21.75
  L 280.13 21.69
  A 1.17 1.17 0.0 0 0 279.12 22.27
  L 258.72 57.33
  A 0.36 0.36 0.0 0 1 258.05 57.19
  L 254.23 22.36
  A 0.70 0.69 86.8 0 0 253.54 21.74
  Q 233.96 21.78 214.19 21.72
  C 212.50 21.71 210.46 21.35 208.20 21.90
  Q 207.75 22.01 207.63 22.46
  L 205.79 29.72
  A 0.43 0.43 0.0 0 0 206.21 30.25
  L 215.02 30.25
  Q 218.47 30.25 217.70 33.62
  L 209.27 70.48
  A 3.86 3.86 0.0 0 1 205.65 73.48
  L 196.13 73.86
  Q 195.62 73.88 195.51 74.38
  L 193.93 81.30
  A 0.44 0.44 0.0 0 0 194.36 81.84
  L 229.87 81.74
  A 0.75 0.75 0.0 0 0 230.60 81.15
  L 232.11 74.26
  A 0.35 0.34 7.7 0 0 231.79 73.84
  L 224.88 73.52
  A 2.26 2.26 0.0 0 1 222.79 70.75
  L 231.54 33.04
  A 0.21 0.21 0.0 0 1 231.96 33.06
  L 238.41 81.35
  A 0.66 0.65 86.1 0 0 239.07 81.93
  L 256.95 81.75
  Q 257.39 81.74 257.61 81.36
  L 286.35 33.19
  Q 287.51 31.25 286.98 33.45"
/>
<path stroke="#527e67" vector-effect="non-scaling-stroke" d="
  M 185.07 72.99
  Q 183.44 70.56 183.23 69.48
  Q 180.80 57.34 174.75 22.38
  A 0.75 0.75 0.0 0 0 174.01 21.75
  L 147.51 21.75
  Q 147.07 21.75 146.81 22.12
  Q 131.11 45.13 115.35 68.10
  C 111.83 73.23 108.77 74.01 102.32 73.70
  A 0.62 0.62 0.0 0 0 101.69 74.17
  L 99.97 81.35
  A 0.43 0.43 0.0 0 0 100.39 81.88
  L 135.85 81.69
  Q 136.33 81.69 136.43 81.23
  L 137.93 74.32
  Q 138.03 73.89 137.58 73.87
  L 129.11 73.45
  A 1.54 1.53 18.1 0 1 127.90 71.07
  L 133.29 62.92
  Q 133.57 62.50 134.07 62.50
  L 157.53 62.50
  Q 158.08 62.50 158.19 63.04
  L 159.50 70.06
  Q 160.12 73.43 156.70 73.55
  L 149.20 73.83
  Q 148.70 73.85 148.58 74.33
  L 146.78 81.32
  A 0.38 0.37 -82.8 0 0 147.14 81.79
  L 191.47 81.75
  Q 191.94 81.75 192.06 81.30
  L 193.88 74.31
  Q 193.98 73.92 193.58 73.89
  L 185.65 73.32
  A 0.79 0.78 -14.9 0 1 185.07 72.99"
/>
<path stroke="#527e67" vector-effect="non-scaling-stroke" d="
  M 360.11 22.42
  Q 344.20 45.47 328.35 68.63
  C 325.01 73.52 321.75 73.98 315.83 73.70
  Q 315.27 73.67 315.15 74.22
  L 313.51 81.37
  A 0.39 0.39 0.0 0 0 313.90 81.85
  L 349.08 81.72
  Q 349.65 81.72 349.78 81.17
  L 351.41 74.31
  Q 351.51 73.88 351.07 73.86
  L 342.62 73.49
  A 1.56 1.56 0.0 0 1 341.39 71.07
  L 346.76 62.92
  A 0.94 0.93 -73.0 0 1 347.54 62.50
  L 371.08 62.50
  Q 371.67 62.50 371.76 63.08
  L 373.05 70.89
  A 2.24 2.24 0.0 0 1 370.93 73.49
  L 362.62 73.85
  Q 362.09 73.87 361.97 74.38
  L 360.29 81.37
  A 0.37 0.37 0.0 0 0 360.65 81.83
  L 405.01 81.76
  Q 405.56 81.75 405.69 81.22
  L 407.35 74.29
  A 0.33 0.33 0.0 0 0 407.06 73.88
  L 399.56 73.38
  Q 399.03 73.34 398.66 72.98
  Q 396.97 71.36 396.56 69.19
  Q 392.19 45.69 388.12 22.28
  A 0.66 0.66 0.0 0 0 387.47 21.73
  L 361.30 21.79
  Q 360.54 21.80 360.11 22.42"
/>
<path stroke="#527e67" vector-effect="non-scaling-stroke" d="
  M 530.61 46.52
  L 534.36 30.74
  Q 534.48 30.24 534.99 30.22
  Q 547.38 29.63 556.30 30.42
  C 564.52 31.15 565.41 37.83 564.29 44.54
  Q 564.19 45.11 564.77 45.02
  L 581.21 42.55
  A 0.69 0.67 -8.1 0 0 581.79 41.79
  L 579.31 22.28
  A 0.62 0.61 -3.7 0 0 578.70 21.75
  L 500.96 21.75
  Q 500.25 21.75 500.08 22.45
  L 498.38 29.53
  Q 498.20 30.25 498.95 30.25
  L 507.25 30.25
  Q 510.85 30.25 510.10 33.77
  Q 506.13 52.50 501.33 70.71
  C 500.30 74.59 492.49 73.95 488.52 73.64
  Q 488.07 73.60 487.97 74.05
  L 486.31 81.40
  Q 486.22 81.81 486.64 81.81
  L 564.83 81.72
  Q 565.33 81.72 565.59 81.29
  L 577.46 60.98
  Q 577.69 60.58 577.23 60.49
  L 561.80 57.40
  A 0.57 0.56 -77.2 0 0 561.14 57.82
  C 558.84 67.26 554.17 72.97 544.04 73.51
  Q 534.35 74.02 524.76 73.66
  A 0.52 0.51 7.9 0 1 524.28 73.03
  L 528.38 55.99
  Q 528.50 55.49 529.01 55.43
  C 534.80 54.76 543.30 55.70 539.45 63.50
  A 0.87 0.86 -76.8 0 0 540.22 64.75
  L 549.27 64.75
  A 0.86 0.86 0.0 0 0 550.10 64.11
  Q 553.21 52.36 555.53 40.42
  A 1.67 1.63 69.2 0 1 555.82 39.75
  Q 556.24 39.20 556.24 38.43
  Q 556.25 37.78 555.61 37.78
  L 546.08 37.69
  Q 545.68 37.69 545.61 38.08
  C 544.18 46.64 538.42 47.14 530.97 46.99
  Q 530.51 46.98 530.61 46.52"
/>
<path stroke="#527e67" vector-effect="non-scaling-stroke" d="
  M 152.41 34.87
  L 139.08 54.09
  Q 138.79 54.50 139.29 54.50
  L 156.00 54.50
  A 0.61 0.61 0.0 0 0 156.59 53.73
  Q 154.08 44.55 153.16 35.07
  A 0.41 0.41 0.0 0 0 152.41 34.87"
/>
<path stroke="#527e67" vector-effect="non-scaling-stroke" d="
  M 369.96 54.13
  L 366.39 35.12
  A 0.33 0.33 0.0 0 0 365.80 34.99
  L 352.50 54.03
  A 0.35 0.35 0.0 0 0 352.79 54.58
  L 369.68 54.46
  Q 370.02 54.46 369.96 54.13"
/>
</g>
<path fill="#223874" d="
  M 86.51 19.74
  Q 87.56 18.01 89.95 17.90
  C 95.86 17.62 108.18 15.44 105.73 24.25
  C 103.78 31.25 103.38 37.81 101.01 45.40
  Q 100.84 45.95 101.42 45.97
  C 103.83 46.06 107.54 45.55 109.38 46.63
  C 112.92 48.72 109.98 57.18 108.57 60.85
  C 107.43 63.83 102.09 63.05 99.69 62.98
  A 1.12 1.11 -82.0 0 0 98.57 63.83
  L 93.70 83.75
  A 2.61 2.60 -88.9 0 1 91.69 85.69
  C 87.34 86.59 78.37 87.44 76.08 83.61
  Q 75.83 83.18 75.37 83.39
  Q 68.82 86.34 60.26 86.73
  C 43.46 87.50 27.16 86.62 17.49 71.46
  C 13.16 64.65 13.64 55.53 15.54 48.01
  Q 15.73 47.27 16.30 46.81
  Q 16.70 46.50 16.89 46.04
  C 27.49 20.61 53.30 14.78 78.43 17.61
  Q 82.19 18.03 85.02 20.04
  A 1.03 1.03 0.0 0 0 86.51 19.74
  Z
  M 90.32 80.97
  C 92.27 74.40 92.78 66.91 95.69 60.23
  Q 95.87 59.80 96.31 59.64
  Q 100.31 58.13 104.56 58.70
  A 0.84 0.84 0.0 0 0 105.49 58.06
  L 107.19 51.02
  A 0.42 0.42 0.0 0 0 106.78 50.50
  L 64.22 50.50
  Q 63.66 50.50 63.54 51.04
  L 62.02 57.77
  Q 61.86 58.47 62.57 58.50
  L 69.85 58.83
  A 2.46 2.46 0.0 0 1 72.16 61.73
  C 71.01 68.02 70.31 73.94 62.51 74.43
  C 48.45 75.33 41.65 66.75 45.28 53.50
  C 46.68 48.42 47.61 44.06 50.93 39.42
  Q 59.16 27.91 73.57 29.40
  Q 80.91 30.16 83.77 36.04
  C 84.93 38.43 84.46 41.53 84.51 44.26
  Q 84.52 44.75 85.01 44.75
  L 96.19 44.75
  Q 96.85 44.75 97.00 44.11
  L 102.03 22.52
  Q 102.19 21.85 101.50 21.83
  L 91.77 21.52
  A 2.93 2.92 16.7 0 0 89.17 22.92
  L 87.18 26.21
  A 0.52 0.52 0.0 0 1 86.35 26.28
  Q 82.75 22.23 78.43 21.60
  C 56.44 18.35 31.09 24.14 21.06 46.14
  Q 13.69 62.34 24.20 73.67
  C 31.97 82.04 43.77 83.03 54.41 82.96
  C 63.66 82.89 70.43 82.43 77.48 77.48
  A 0.71 0.71 0.0 0 1 78.58 77.90
  L 79.37 81.30
  Q 79.52 81.98 80.21 81.98
  L 88.93 82.01
  A 1.46 1.45 -81.7 0 0 90.32 80.97
  Z
  M 50.40 49.57
  C 46.56 62.38 47.74 72.53 64.12 70.18
  C 66.27 69.87 67.03 65.25 67.20 63.52
  Q 67.25 63.01 66.73 63.00
  C 64.51 62.99 61.27 63.39 59.53 62.30
  C 56.63 60.48 58.37 55.35 59.30 51.75
  C 60.37 47.62 61.93 45.97 66.48 46.01
  Q 73.35 46.05 80.29 45.97
  Q 80.79 45.97 80.74 45.47
  C 80.15 39.94 81.92 34.73 74.25 33.47
  Q 63.20 31.67 55.90 39.27
  C 54.02 41.24 51.11 47.19 50.40 49.57
  Z"
/>
<path fill="#223874" d="
  M 429.31 69.12
  C 431.69 60.10 433.88 51.03 435.46 41.84
  Q 436.01 38.67 436.86 35.61
  Q 437.15 34.56 436.12 34.90
  Q 430.89 36.63 428.81 41.99
  C 427.44 45.53 426.74 50.11 421.51 48.74
  C 415.40 47.15 405.04 45.83 408.92 37.96
  Q 414.57 26.50 418.01 20.26
  C 419.08 18.31 421.05 17.72 423.34 17.73
  Q 455.40 17.88 487.89 17.53
  A 4.28 4.27 -5.3 0 1 492.15 21.06
  L 495.99 42.97
  A 0.95 0.93 54.7 0 1 495.89 43.59
  C 492.98 48.74 486.61 47.56 481.80 48.67
  C 478.73 49.38 475.83 49.58 474.95 46.09
  C 474.42 43.98 475.66 41.28 475.67 38.79
  C 475.69 35.48 473.38 33.88 470.32 34.29
  Q 469.81 34.36 469.69 34.86
  L 461.33 69.25
  Q 461.22 69.68 461.66 69.69
  C 466.08 69.85 474.18 68.10 472.93 75.75
  C 472.21 80.17 471.79 86.20 465.75 86.15
  Q 454.03 86.04 419.00 86.30
  Q 414.20 86.34 413.82 82.26
  C 413.62 80.05 415.31 72.61 416.98 71.01
  C 419.16 68.94 426.15 69.81 428.57 69.71
  A 0.79 0.79 0.0 0 0 429.31 69.12
  Z
  M 460.74 54.21
  Q 461.70 52.11 461.42 49.70
  Q 461.41 49.61 461.50 49.59
  Q 461.63 49.54 461.75 49.50
  Q 461.89 49.45 461.92 49.31
  L 466.15 31.03
  Q 466.30 30.41 466.93 30.33
  C 477.23 29.01 482.07 35.11 478.59 44.81
  A 0.35 0.35 0.0 0 0 478.99 45.27
  L 490.99 42.90
  A 0.82 0.82 0.0 0 0 491.64 41.97
  L 488.47 22.34
  A 0.89 0.88 -4.5 0 0 487.59 21.60
  L 422.09 21.83
  Q 421.56 21.83 421.33 22.31
  L 412.23 40.63
  Q 411.97 41.16 412.52 41.36
  L 423.03 45.14
  Q 423.53 45.32 423.65 44.80
  Q 427.01 30.19 442.05 30.13
  A 0.49 0.48 -83.4 0 1 442.52 30.73
  L 433.14 70.32
  A 4.31 4.29 6.0 0 1 429.04 73.63
  L 419.98 73.81
  Q 419.57 73.81 419.46 74.21
  L 417.60 81.43
  Q 417.50 81.82 417.90 81.82
  L 466.65 81.78
  Q 467.19 81.77 467.31 81.26
  L 468.94 74.30
  Q 469.06 73.83 468.56 73.81
  L 459.24 73.61
  A 2.22 2.22 0.0 0 1 457.11 70.96
  Q 458.59 63.42 460.75 55.39
  Q 460.78 55.26 460.76 55.14
  Q 460.74 55.00 460.70 54.87
  A 0.91 0.89 48.9 0 1 460.74 54.21
  Z"
/>
<path fill="#223874" d="
  M 347.64 70.05
  C 352.62 68.67 356.22 71.09 355.01 76.23
  C 353.94 80.79 353.91 86.45 347.00 86.37
  Q 306.66 85.90 266.32 86.19
  Q 262.64 86.21 261.91 82.77
  A 0.44 0.44 0.0 0 0 261.20 82.53
  Q 260.71 82.93 260.76 83.65
  A 1.02 1.01 -26.7 0 1 260.51 84.39
  C 257.98 87.29 243.83 86.36 239.76 86.33
  Q 235.51 86.30 234.90 82.26
  A 0.38 0.38 0.0 0 0 234.15 82.26
  C 233.40 86.58 230.17 86.16 226.19 86.13
  Q 186.97 85.91 147.75 86.05
  C 140.56 86.08 143.07 77.88 144.20 73.93
  C 145.68 68.79 151.08 69.66 155.10 69.77
  A 0.38 0.38 0.0 0 0 155.48 69.29
  L 154.84 66.88
  Q 154.72 66.45 154.28 66.46
  L 136.22 66.52
  Q 135.76 66.52 135.48 66.89
  L 133.79 69.13
  A 0.40 0.40 0.0 0 0 134.14 69.77
  C 146.12 68.83 141.37 77.59 139.67 83.67
  A 3.17 3.17 0.0 0 1 136.63 85.99
  Q 118.95 86.02 101.21 86.00
  C 93.21 85.98 96.81 80.14 96.96 75.65
  C 97.28 66.36 106.74 72.46 110.78 67.47
  C 113.76 63.77 116.37 59.20 118.78 55.86
  Q 124.94 47.34 129.49 39.97
  C 130.18 38.85 131.09 38.12 131.68 37.21
  Q 138.41 26.82 143.45 20.19
  C 144.62 18.65 146.43 17.79 148.51 17.78
  Q 168.71 17.62 174.44 17.81
  Q 179.38 17.98 178.97 22.89
  Q 178.93 23.42 179.15 23.91
  Q 180.25 26.27 179.99 28.87
  Q 179.94 29.38 180.14 29.85
  C 181.19 32.32 181.03 35.29 181.37 37.26
  Q 184.02 52.38 187.01 68.71
  Q 187.20 69.78 188.29 69.78
  L 204.12 69.76
  Q 204.78 69.76 204.94 69.12
  L 213.48 34.76
  Q 213.69 33.93 212.83 34.06
  C 199.29 36.16 201.23 29.15 204.25 20.41
  A 3.93 3.93 0.0 0 1 207.95 17.76
  Q 230.67 17.71 253.25 17.82
  Q 257.80 17.84 258.32 22.29
  Q 259.64 33.73 260.51 43.99
  Q 260.71 46.40 261.85 44.26
  Q 268.27 32.18 275.59 20.34
  C 276.73 18.49 279.09 17.76 281.39 17.76
  Q 302.35 17.72 323.31 17.78
  C 334.13 17.81 328.94 25.65 327.74 31.43
  A 3.37 3.36 -84.6 0 1 324.51 34.11
  L 314.67 34.31
  Q 314.22 34.32 314.12 34.75
  L 305.88 69.06
  Q 305.76 69.58 306.29 69.61
  C 311.99 69.93 321.98 71.04 324.54 67.27
  C 335.18 51.58 345.25 36.34 356.82 20.31
  C 358.94 17.37 360.67 17.77 364.57 17.76
  Q 376.04 17.73 387.50 17.76
  C 392.34 17.78 392.40 22.68 393.13 26.42
  Q 395.63 39.35 396.17 43.48
  Q 396.97 49.61 399.88 65.68
  Q 400.27 67.85 400.71 69.24
  A 0.76 0.75 81.0 0 0 401.43 69.77
  C 405.14 69.71 410.84 68.55 411.06 74.00
  C 411.25 78.84 410.48 85.92 404.44 85.99
  Q 371.16 86.32 361.75 86.24
  C 353.54 86.16 357.45 77.00 358.20 72.68
  A 3.41 3.41 0.0 0 1 361.49 69.85
  L 368.55 69.70
  Q 369.03 69.69 368.92 69.22
  L 368.42 67.03
  Q 368.30 66.50 367.76 66.50
  L 349.88 66.50
  Q 349.19 66.50 348.80 67.06
  L 347.17 69.38
  A 0.43 0.43 0.0 0 0 347.64 70.05
  Z
  M 286.98 33.45
  L 277.94 70.69
  A 3.65 3.64 5.3 0 1 274.60 73.46
  L 267.64 73.84
  Q 267.13 73.87 267.00 74.37
  L 265.30 81.32
  A 0.46 0.46 0.0 0 0 265.75 81.89
  L 311.07 81.69
  Q 311.60 81.69 311.72 81.17
  L 313.41 74.30
  A 0.38 0.37 8.2 0 0 313.06 73.84
  L 303.58 73.50
  A 2.16 2.16 0.0 0 1 301.55 70.85
  L 310.52 32.56
  A 1.22 1.20 -15.7 0 1 310.88 31.93
  C 313.58 29.47 318.83 30.06 322.62 30.07
  A 1.52 1.52 0.0 0 0 324.12 28.88
  L 325.49 22.71
  A 0.79 0.78 6.4 0 0 324.72 21.75
  L 280.13 21.69
  A 1.17 1.17 0.0 0 0 279.12 22.27
  L 258.72 57.33
  A 0.36 0.36 0.0 0 1 258.05 57.19
  L 254.23 22.36
  A 0.70 0.69 86.8 0 0 253.54 21.74
  Q 233.96 21.78 214.19 21.72
  C 212.50 21.71 210.46 21.35 208.20 21.90
  Q 207.75 22.01 207.63 22.46
  L 205.79 29.72
  A 0.43 0.43 0.0 0 0 206.21 30.25
  L 215.02 30.25
  Q 218.47 30.25 217.70 33.62
  L 209.27 70.48
  A 3.86 3.86 0.0 0 1 205.65 73.48
  L 196.13 73.86
  Q 195.62 73.88 195.51 74.38
  L 193.93 81.30
  A 0.44 0.44 0.0 0 0 194.36 81.84
  L 229.87 81.74
  A 0.75 0.75 0.0 0 0 230.60 81.15
  L 232.11 74.26
  A 0.35 0.34 7.7 0 0 231.79 73.84
  L 224.88 73.52
  A 2.26 2.26 0.0 0 1 222.79 70.75
  L 231.54 33.04
  A 0.21 0.21 0.0 0 1 231.96 33.06
  L 238.41 81.35
  A 0.66 0.65 86.1 0 0 239.07 81.93
  L 256.95 81.75
  Q 257.39 81.74 257.61 81.36
  L 286.35 33.19
  Q 287.51 31.25 286.98 33.45
  Z
  M 185.07 72.99
  Q 183.44 70.56 183.23 69.48
  Q 180.80 57.34 174.75 22.38
  A 0.75 0.75 0.0 0 0 174.01 21.75
  L 147.51 21.75
  Q 147.07 21.75 146.81 22.12
  Q 131.11 45.13 115.35 68.10
  C 111.83 73.23 108.77 74.01 102.32 73.70
  A 0.62 0.62 0.0 0 0 101.69 74.17
  L 99.97 81.35
  A 0.43 0.43 0.0 0 0 100.39 81.88
  L 135.85 81.69
  Q 136.33 81.69 136.43 81.23
  L 137.93 74.32
  Q 138.03 73.89 137.58 73.87
  L 129.11 73.45
  A 1.54 1.53 18.1 0 1 127.90 71.07
  L 133.29 62.92
  Q 133.57 62.50 134.07 62.50
  L 157.53 62.50
  Q 158.08 62.50 158.19 63.04
  L 159.50 70.06
  Q 160.12 73.43 156.70 73.55
  L 149.20 73.83
  Q 148.70 73.85 148.58 74.33
  L 146.78 81.32
  A 0.38 0.37 -82.8 0 0 147.14 81.79
  L 191.47 81.75
  Q 191.94 81.75 192.06 81.30
  L 193.88 74.31
  Q 193.98 73.92 193.58 73.89
  L 185.65 73.32
  A 0.79 0.78 -14.9 0 1 185.07 72.99
  Z
  M 360.11 22.42
  Q 344.20 45.47 328.35 68.63
  C 325.01 73.52 321.75 73.98 315.83 73.70
  Q 315.27 73.67 315.15 74.22
  L 313.51 81.37
  A 0.39 0.39 0.0 0 0 313.90 81.85
  L 349.08 81.72
  Q 349.65 81.72 349.78 81.17
  L 351.41 74.31
  Q 351.51 73.88 351.07 73.86
  L 342.62 73.49
  A 1.56 1.56 0.0 0 1 341.39 71.07
  L 346.76 62.92
  A 0.94 0.93 -73.0 0 1 347.54 62.50
  L 371.08 62.50
  Q 371.67 62.50 371.76 63.08
  L 373.05 70.89
  A 2.24 2.24 0.0 0 1 370.93 73.49
  L 362.62 73.85
  Q 362.09 73.87 361.97 74.38
  L 360.29 81.37
  A 0.37 0.37 0.0 0 0 360.65 81.83
  L 405.01 81.76
  Q 405.56 81.75 405.69 81.22
  L 407.35 74.29
  A 0.33 0.33 0.0 0 0 407.06 73.88
  L 399.56 73.38
  Q 399.03 73.34 398.66 72.98
  Q 396.97 71.36 396.56 69.19
  Q 392.19 45.69 388.12 22.28
  A 0.66 0.66 0.0 0 0 387.47 21.73
  L 361.30 21.79
  Q 360.54 21.80 360.11 22.42
  Z
  M 232.42 69.84
  A 0.45 0.44 -3.8 0 0 232.87 69.33
  L 230.75 54.26
  A 0.27 0.27 0.0 0 0 230.23 54.21
  Q 229.83 55.35 230.03 56.57
  A 0.93 0.90 -44.0 0 1 230.02 56.87
  L 227.14 68.95
  A 0.62 0.61 7.5 0 0 227.73 69.71
  L 232.42 69.84
  Z
  M 269.73 68.87
  Q 269.47 69.05 269.34 69.37
  Q 269.12 69.94 269.73 69.90
  L 273.52 69.66
  A 0.92 0.91 4.8 0 0 274.34 68.97
  L 277.63 55.96
  A 0.15 0.15 0.0 0 0 277.35 55.85
  L 270.26 68.29
  Q 270.06 68.64 269.73 68.87
  Z"
/>
<path fill="#223874" d="
  M 560.89 38.95
  A 0.32 0.32 0.0 0 0 560.27 38.94
  L 554.12 64.04
  Q 553.95 64.76 554.50 64.26
  Q 555.26 63.55 555.57 62.52
  C 557.24 56.93 557.89 52.45 564.41 53.87
  Q 568.55 54.78 577.03 55.98
  C 582.73 56.79 581.54 61.73 579.54 65.47
  Q 573.07 77.57 568.13 84.67
  C 567.15 86.07 565.13 86.02 563.38 86.03
  Q 530.34 86.11 497.30 85.97
  C 493.92 85.96 488.69 86.61 484.11 85.70
  A 1.47 1.46 75.5 0 1 483.28 85.21
  C 480.25 81.57 483.32 75.20 484.72 71.22
  A 1.04 1.04 0.0 0 1 485.37 70.58
  C 489.35 69.28 493.62 70.68 496.95 69.54
  Q 497.39 69.39 497.50 68.94
  L 505.92 34.98
  Q 506.20 33.82 505.03 34.02
  Q 500.87 34.72 496.80 33.71
  A 1.39 1.36 -7.9 0 1 495.95 33.08
  C 494.86 31.31 494.30 29.75 494.81 27.57
  C 495.94 22.72 495.71 17.77 502.34 17.76
  Q 540.64 17.73 578.93 17.76
  Q 579.65 17.76 581.51 18.63
  Q 581.98 18.85 582.23 19.30
  Q 583.69 21.98 583.48 25.04
  A 1.11 1.10 -65.5 0 0 583.79 25.88
  C 585.70 27.89 585.09 35.82 585.39 38.91
  C 585.85 43.70 585.04 47.72 579.24 46.98
  Q 578.73 46.91 578.27 47.10
  C 575.37 48.28 571.98 47.95 569.67 48.30
  C 566.02 48.85 559.77 50.63 559.89 44.61
  C 559.93 42.82 561.29 40.92 560.89 38.95
  Z
  M 530.61 46.52
  L 534.36 30.74
  Q 534.48 30.24 534.99 30.22
  Q 547.38 29.63 556.30 30.42
  C 564.52 31.15 565.41 37.83 564.29 44.54
  Q 564.19 45.11 564.77 45.02
  L 581.21 42.55
  A 0.69 0.67 -8.1 0 0 581.79 41.79
  L 579.31 22.28
  A 0.62 0.61 -3.7 0 0 578.70 21.75
  L 500.96 21.75
  Q 500.25 21.75 500.08 22.45
  L 498.38 29.53
  Q 498.20 30.25 498.95 30.25
  L 507.25 30.25
  Q 510.85 30.25 510.10 33.77
  Q 506.13 52.50 501.33 70.71
  C 500.30 74.59 492.49 73.95 488.52 73.64
  Q 488.07 73.60 487.97 74.05
  L 486.31 81.40
  Q 486.22 81.81 486.64 81.81
  L 564.83 81.72
  Q 565.33 81.72 565.59 81.29
  L 577.46 60.98
  Q 577.69 60.58 577.23 60.49
  L 561.80 57.40
  A 0.57 0.56 -77.2 0 0 561.14 57.82
  C 558.84 67.26 554.17 72.97 544.04 73.51
  Q 534.35 74.02 524.76 73.66
  A 0.52 0.51 7.9 0 1 524.28 73.03
  L 528.38 55.99
  Q 528.50 55.49 529.01 55.43
  C 534.80 54.76 543.30 55.70 539.45 63.50
  A 0.87 0.86 -76.8 0 0 540.22 64.75
  L 549.27 64.75
  A 0.86 0.86 0.0 0 0 550.10 64.11
  Q 553.21 52.36 555.53 40.42
  A 1.67 1.63 69.2 0 1 555.82 39.75
  Q 556.24 39.20 556.24 38.43
  Q 556.25 37.78 555.61 37.78
  L 546.08 37.69
  Q 545.68 37.69 545.61 38.08
  C 544.18 46.64 538.42 47.14 530.97 46.99
  Q 530.51 46.98 530.61 46.52
  Z
  M 537.45 34.56
  L 535.59 42.22
  Q 535.48 42.68 535.95 42.64
  Q 541.54 42.25 541.91 36.68
  A 1.48 1.47 -17.8 0 1 542.46 35.62
  L 543.36 34.91
  A 0.47 0.46 24.3 0 0 543.04 34.08
  L 537.74 34.32
  Q 537.51 34.33 537.45 34.56
  Z
  M 537.76 68.43
  C 534.85 66.85 536.03 62.95 536.01 60.40
  Q 536.00 59.77 535.39 59.64
  L 532.78 59.09
  Q 532.07 58.94 531.90 59.65
  L 529.67 69.14
  Q 529.53 69.73 530.14 69.73
  C 535.31 69.77 544.84 70.79 549.38 68.75
  Q 550.19 68.39 549.31 68.41
  Q 546.36 68.51 543.38 68.50
  C 541.70 68.50 539.74 69.51 537.76 68.43
  Z"
/>
<path fill="#82c45a" d="
  M 95.69 60.23
  C 92.78 66.91 92.27 74.40 90.32 80.97
  A 1.46 1.45 -81.7 0 1 88.93 82.01
  L 80.21 81.98
  Q 79.52 81.98 79.37 81.30
  L 78.58 77.90
  A 0.71 0.71 0.0 0 0 77.48 77.48
  C 70.43 82.43 63.66 82.89 54.41 82.96
  C 43.77 83.03 31.97 82.04 24.20 73.67
  Q 13.69 62.34 21.06 46.14
  C 31.09 24.14 56.44 18.35 78.43 21.60
  Q 82.75 22.23 86.35 26.28
  A 0.52 0.52 0.0 0 0 87.18 26.21
  L 89.17 22.92
  A 2.93 2.92 16.7 0 1 91.77 21.52
  L 101.50 21.83
  Q 102.19 21.85 102.03 22.52
  L 97.00 44.11
  Q 96.85 44.75 96.19 44.75
  L 85.01 44.75
  Q 84.52 44.75 84.51 44.26
  C 84.46 41.53 84.93 38.43 83.77 36.04
  Q 80.91 30.16 73.57 29.40
  Q 59.16 27.91 50.93 39.42
  C 47.61 44.06 46.68 48.42 45.28 53.50
  C 41.65 66.75 48.45 75.33 62.51 74.43
  C 70.31 73.94 71.01 68.02 72.16 61.73
  A 2.46 2.46 0.0 0 0 69.85 58.83
  L 62.57 58.50
  Q 61.86 58.47 62.02 57.77
  L 63.54 51.04
  Q 63.66 50.50 64.22 50.50
  L 106.78 50.50
  A 0.42 0.42 0.0 0 1 107.19 51.02
  L 105.49 58.06
  A 0.84 0.84 0.0 0 1 104.56 58.70
  Q 100.31 58.13 96.31 59.64
  Q 95.87 59.80 95.69 60.23
  Z"
/>
<path fill="#82c45a" d="
  M 286.98 33.45
  Q 287.51 31.25 286.35 33.19
  L 257.61 81.36
  Q 257.39 81.74 256.95 81.75
  L 239.07 81.93
  A 0.66 0.65 86.1 0 1 238.41 81.35
  L 231.96 33.06
  A 0.21 0.21 0.0 0 0 231.54 33.04
  L 222.79 70.75
  A 2.26 2.26 0.0 0 0 224.88 73.52
  L 231.79 73.84
  A 0.35 0.34 7.7 0 1 232.11 74.26
  L 230.60 81.15
  A 0.75 0.75 0.0 0 1 229.87 81.74
  L 194.36 81.84
  A 0.44 0.44 0.0 0 1 193.93 81.30
  L 195.51 74.38
  Q 195.62 73.88 196.13 73.86
  L 205.65 73.48
  A 3.86 3.86 0.0 0 0 209.27 70.48
  L 217.70 33.62
  Q 218.47 30.25 215.02 30.25
  L 206.21 30.25
  A 0.43 0.43 0.0 0 1 205.79 29.72
  L 207.63 22.46
  Q 207.75 22.01 208.20 21.90
  C 210.46 21.35 212.50 21.71 214.19 21.72
  Q 233.96 21.78 253.54 21.74
  A 0.70 0.69 86.8 0 1 254.23 22.36
  L 258.05 57.19
  A 0.36 0.36 0.0 0 0 258.72 57.33
  L 279.12 22.27
  A 1.17 1.17 0.0 0 1 280.13 21.69
  L 324.72 21.75
  A 0.79 0.78 6.4 0 1 325.49 22.71
  L 324.12 28.88
  A 1.52 1.52 0.0 0 1 322.62 30.07
  C 318.83 30.06 313.58 29.47 310.88 31.93
  A 1.22 1.20 -15.7 0 0 310.52 32.56
  L 301.55 70.85
  A 2.16 2.16 0.0 0 0 303.58 73.50
  L 313.06 73.84
  A 0.38 0.37 8.2 0 1 313.41 74.30
  L 311.72 81.17
  Q 311.60 81.69 311.07 81.69
  L 265.75 81.89
  A 0.46 0.46 0.0 0 1 265.30 81.32
  L 267.00 74.37
  Q 267.13 73.87 267.64 73.84
  L 274.60 73.46
  A 3.65 3.64 5.3 0 0 277.94 70.69
  L 286.98 33.45
  Z"
/>
<path fill="#82c45a" d="
  M 460.70 54.87
  Q 460.74 55.00 460.76 55.14
  Q 460.78 55.26 460.75 55.39
  Q 458.59 63.42 457.11 70.96
  A 2.22 2.22 0.0 0 0 459.24 73.61
  L 468.56 73.81
  Q 469.06 73.83 468.94 74.30
  L 467.31 81.26
  Q 467.19 81.77 466.65 81.78
  L 417.90 81.82
  Q 417.50 81.82 417.60 81.43
  L 419.46 74.21
  Q 419.57 73.81 419.98 73.81
  L 429.04 73.63
  A 4.31 4.29 6.0 0 0 433.14 70.32
  L 442.52 30.73
  A 0.49 0.48 -83.4 0 0 442.05 30.13
  Q 427.01 30.19 423.65 44.80
  Q 423.53 45.32 423.03 45.14
  L 412.52 41.36
  Q 411.97 41.16 412.23 40.63
  L 421.33 22.31
  Q 421.56 21.83 422.09 21.83
  L 487.59 21.60
  A 0.89 0.88 -4.5 0 1 488.47 22.34
  L 491.64 41.97
  A 0.82 0.82 0.0 0 1 490.99 42.90
  L 478.99 45.27
  A 0.35 0.35 0.0 0 1 478.59 44.81
  C 482.07 35.11 477.23 29.01 466.93 30.33
  Q 466.30 30.41 466.15 31.03
  L 461.92 49.31
  Q 461.89 49.45 461.75 49.50
  Q 461.63 49.54 461.50 49.59
  Q 461.41 49.61 461.42 49.70
  Q 461.70 52.11 460.74 54.21
  A 0.91 0.89 48.9 0 0 460.70 54.87
  Z"
/>
<path fill="#82c45a" d="
  M 185.65 73.32
  L 193.58 73.89
  Q 193.98 73.92 193.88 74.31
  L 192.06 81.30
  Q 191.94 81.75 191.47 81.75
  L 147.14 81.79
  A 0.38 0.37 -82.8 0 1 146.78 81.32
  L 148.58 74.33
  Q 148.70 73.85 149.20 73.83
  L 156.70 73.55
  Q 160.12 73.43 159.50 70.06
  L 158.19 63.04
  Q 158.08 62.50 157.53 62.50
  L 134.07 62.50
  Q 133.57 62.50 133.29 62.92
  L 127.90 71.07
  A 1.54 1.53 18.1 0 0 129.11 73.45
  L 137.58 73.87
  Q 138.03 73.89 137.93 74.32
  L 136.43 81.23
  Q 136.33 81.69 135.85 81.69
  L 100.39 81.88
  A 0.43 0.43 0.0 0 1 99.97 81.35
  L 101.69 74.17
  A 0.62 0.62 0.0 0 1 102.32 73.70
  C 108.77 74.01 111.83 73.23 115.35 68.10
  Q 131.11 45.13 146.81 22.12
  Q 147.07 21.75 147.51 21.75
  L 174.01 21.75
  A 0.75 0.75 0.0 0 1 174.75 22.38
  Q 180.80 57.34 183.23 69.48
  Q 183.44 70.56 185.07 72.99
  A 0.79 0.78 -14.9 0 0 185.65 73.32
  Z
  M 152.41 34.87
  L 139.08 54.09
  Q 138.79 54.50 139.29 54.50
  L 156.00 54.50
  A 0.61 0.61 0.0 0 0 156.59 53.73
  Q 154.08 44.55 153.16 35.07
  A 0.41 0.41 0.0 0 0 152.41 34.87
  Z"
/>
<path fill="#82c45a" d="
  M 360.11 22.42
  Q 360.54 21.80 361.30 21.79
  L 387.47 21.73
  A 0.66 0.66 0.0 0 1 388.12 22.28
  Q 392.19 45.69 396.56 69.19
  Q 396.97 71.36 398.66 72.98
  Q 399.03 73.34 399.56 73.38
  L 407.06 73.88
  A 0.33 0.33 0.0 0 1 407.35 74.29
  L 405.69 81.22
  Q 405.56 81.75 405.01 81.76
  L 360.65 81.83
  A 0.37 0.37 0.0 0 1 360.29 81.37
  L 361.97 74.38
  Q 362.09 73.87 362.62 73.85
  L 370.93 73.49
  A 2.24 2.24 0.0 0 0 373.05 70.89
  L 371.76 63.08
  Q 371.67 62.50 371.08 62.50
  L 347.54 62.50
  A 0.94 0.93 -73.0 0 0 346.76 62.92
  L 341.39 71.07
  A 1.56 1.56 0.0 0 0 342.62 73.49
  L 351.07 73.86
  Q 351.51 73.88 351.41 74.31
  L 349.78 81.17
  Q 349.65 81.72 349.08 81.72
  L 313.90 81.85
  A 0.39 0.39 0.0 0 1 313.51 81.37
  L 315.15 74.22
  Q 315.27 73.67 315.83 73.70
  C 321.75 73.98 325.01 73.52 328.35 68.63
  Q 344.20 45.47 360.11 22.42
  Z
  M 369.96 54.13
  L 366.39 35.12
  A 0.33 0.33 0.0 0 0 365.80 34.99
  L 352.50 54.03
  A 0.35 0.35 0.0 0 0 352.79 54.58
  L 369.68 54.46
  Q 370.02 54.46 369.96 54.13
  Z"
/>
<path fill="#82c45a" d="
  M 530.97 46.99
  C 538.42 47.14 544.18 46.64 545.61 38.08
  Q 545.68 37.69 546.08 37.69
  L 555.61 37.78
  Q 556.25 37.78 556.24 38.43
  Q 556.24 39.20 555.82 39.75
  A 1.67 1.63 69.2 0 0 555.53 40.42
  Q 553.21 52.36 550.10 64.11
  A 0.86 0.86 0.0 0 1 549.27 64.75
  L 540.22 64.75
  A 0.87 0.86 -76.8 0 1 539.45 63.50
  C 543.30 55.70 534.80 54.76 529.01 55.43
  Q 528.50 55.49 528.38 55.99
  L 524.28 73.03
  A 0.52 0.51 7.9 0 0 524.76 73.66
  Q 534.35 74.02 544.04 73.51
  C 554.17 72.97 558.84 67.26 561.14 57.82
  A 0.57 0.56 -77.2 0 1 561.80 57.40
  L 577.23 60.49
  Q 577.69 60.58 577.46 60.98
  L 565.59 81.29
  Q 565.33 81.72 564.83 81.72
  L 486.64 81.81
  Q 486.22 81.81 486.31 81.40
  L 487.97 74.05
  Q 488.07 73.60 488.52 73.64
  C 492.49 73.95 500.30 74.59 501.33 70.71
  Q 506.13 52.50 510.10 33.77
  Q 510.85 30.25 507.25 30.25
  L 498.95 30.25
  Q 498.20 30.25 498.38 29.53
  L 500.08 22.45
  Q 500.25 21.75 500.96 21.75
  L 578.70 21.75
  A 0.62 0.61 -3.7 0 1 579.31 22.28
  L 581.79 41.79
  A 0.69 0.67 -8.1 0 1 581.21 42.55
  L 564.77 45.02
  Q 564.19 45.11 564.29 44.54
  C 565.41 37.83 564.52 31.15 556.30 30.42
  Q 547.38 29.63 534.99 30.22
  Q 534.48 30.24 534.36 30.74
  L 530.61 46.52
  Q 530.51 46.98 530.97 46.99
  Z"
/>
<path fill="#223874" d="
  M 139.08 54.09
  L 152.41 34.87
  A 0.41 0.41 0.0 0 1 153.16 35.07
  Q 154.08 44.55 156.59 53.73
  A 0.61 0.61 0.0 0 1 156.00 54.50
  L 139.29 54.50
  Q 138.79 54.50 139.08 54.09
  Z
  M 151.07 50.77
  A 0.67 0.67 0.0 0 0 151.84 49.82
  Q 150.71 47.67 151.02 45.26
  A 0.63 0.63 0.0 0 0 149.78 45.06
  Q 149.14 48.27 146.53 50.07
  A 0.39 0.39 0.0 0 0 146.85 50.76
  Q 148.98 50.18 151.07 50.77
  Z"
/>
<path fill="#223874" d="
  M 366.39 35.12
  L 369.96 54.13
  Q 370.02 54.46 369.68 54.46
  L 352.79 54.58
  A 0.35 0.35 0.0 0 1 352.50 54.03
  L 365.80 34.99
  A 0.33 0.33 0.0 0 1 366.39 35.12
  Z
  M 363.14 45.48
  Q 362.24 48.07 360.14 49.91
  A 0.41 0.41 0.0 0 0 360.42 50.62
  L 364.51 50.57
  A 0.59 0.58 -7.7 0 0 365.07 49.84
  L 363.96 45.51
  A 0.43 0.43 0.0 0 0 363.14 45.48
  Z"
/>
</svg>
