<?xml version="1.0" encoding="UTF-8" standalone="no"?>
<!DOCTYPE svg PUBLIC "-//W3C//DTD SVG 1.1//EN" "http://www.w3.org/Graphics/SVG/1.1/DTD/svg11.dtd">
<svg xmlns="http://www.w3.org/2000/svg" version="1.1" viewBox="0 0 600 300">
<path fill="#000000" d="
  M 498.80 64.33
  Q 505.72 55.65 517.00 55.79
  Q 533.00 56.00 549.00 56.05
  Q 555.16 56.07 560.23 59.53
  C 578.42 71.97 569.24 98.74 547.75 98.60
  Q 535.63 98.52 523.52 98.50
  Q 513.72 98.49 512.51 98.30
  C 496.76 95.76 488.58 77.16 498.80 64.33
  Z
  M 556.93 76.97
  A 7.92 7.92 0.0 0 0 549.01 69.05
  L 515.49 69.05
  A 7.92 7.92 0.0 0 0 507.57 76.97
  L 507.57 77.53
  A 7.92 7.92 0.0 0 0 515.49 85.45
  L 549.01 85.45
  A 7.92 7.92 0.0 0 0 556.93 77.53
  L 556.93 76.97
  Z"
/>
<path fill="#000000" d="
  M 102.80 65.00
  C 113.30 67.89 116.13 79.17 118.65 88.04
  Q 139.97 163.26 160.94 238.14
  A 0.68 0.68 82.2 0 1 160.29 239.00
  L 129.73 239.00
  A 1.12 1.12 82.2 0 1 128.65 238.18
  L 118.59 201.96
  A 1.32 1.31 82.1 0 0 117.33 201.00
  L 75.69 201.00
  A 0.89 0.87 -81.5 0 0 74.85 201.63
  L 64.32 238.38
  A 0.87 0.86 8.0 0 1 63.49 239.00
  L 33.11 239.00
  A 0.76 0.76 -82.2 0 1 32.38 238.03
  Q 53.92 161.14 75.50 83.75
  C 79.20 70.47 87.51 60.80 102.80 65.00
  Z
  M 83.56 169.64
  A 0.30 0.30 -81.8 0 0 83.85 170.02
  L 109.34 169.97
  A 0.30 0.30 82.2 0 0 109.63 169.59
  L 96.81 124.85
  A 0.30 0.30 -21.7 0 0 96.23 124.85
  L 83.56 169.64
  Z"
/>
<path fill="#000000" d="
  M 197.48 95.06
  A 0.73 0.73 90.0 0 0 196.75 95.79
  L 196.75 238.33
  A 0.67 0.67 0.0 0 1 196.08 239.00
  L 166.66 239.00
  A 0.66 0.66 0.0 0 1 166.00 238.34
  L 166.00 95.99
  A 0.99 0.99 0.5 0 0 165.01 95.00
  L 132.66 95.00
  A 0.66 0.66 0.0 0 1 132.00 94.34
  L 132.00 64.82
  A 0.82 0.82 0.0 0 1 132.82 64.00
  L 230.34 64.00
  A 0.66 0.66 0.0 0 1 231.00 64.66
  L 231.00 94.19
  A 0.82 0.81 -0.0 0 1 230.18 95.00
  L 197.48 95.06
  Z"
/>
<path fill="#000000" d="
  M 363.31 171.05
  L 363.44 238.20
  A 0.80 0.80 0.0 0 1 362.64 239.00
  L 300.80 239.00
  A 1.26 1.26 82.1 0 1 299.59 238.08
  L 289.49 201.74
  A 1.02 1.02 -7.9 0 0 288.51 201.00
  L 246.87 201.00
  A 1.02 1.01 7.9 0 0 245.89 201.73
  L 235.37 238.20
  A 1.11 1.10 -82.0 0 1 234.31 239.00
  L 203.96 238.94
  A 0.58 0.57 -82.0 0 1 203.41 238.20
  Q 225.22 159.97 246.80 82.77
  C 248.27 77.51 250.54 72.58 254.63 68.95
  C 263.42 61.17 276.11 62.55 283.13 71.91
  C 286.29 76.13 287.51 80.51 288.94 85.55
  Q 310.40 161.09 331.27 235.94
  Q 332.50 240.34 332.50 235.77
  Q 332.50 162.75 332.50 90.50
  C 332.50 85.77 332.17 81.48 333.82 77.33
  Q 337.82 67.29 347.36 64.78
  Q 350.31 64.00 365.71 64.00
  C 375.49 64.00 387.29 63.27 395.71 64.93
  C 415.15 68.77 432.68 85.25 435.24 105.51
  C 438.57 131.87 420.31 155.32 396.34 164.22
  A 0.81 0.81 64.1 0 0 395.93 165.41
  L 441.58 238.11
  Q 442.14 239.00 441.08 239.00
  L 406.81 238.94
  A 0.92 0.91 -16.3 0 1 406.04 238.52
  Q 387.68 210.28 369.51 181.92
  Q 366.17 176.69 363.77 170.96
  Q 363.69 170.78 363.55 170.76
  A 0.28 0.21 -87.4 0 0 363.31 171.05
  Z
  M 363.44 154.43
  Q 363.44 155.69 363.96 154.54
  C 367.92 145.87 373.52 143.19 381.27 138.54
  C 388.29 134.32 398.05 130.07 402.19 122.94
  C 409.73 109.95 399.85 94.97 385.25 94.99
  Q 375.37 95.00 364.29 95.00
  A 0.80 0.79 -90.0 0 0 363.50 95.80
  L 363.44 154.43
  Z
  M 267.22 124.69
  L 254.68 169.24
  A 0.60 0.59 -82.2 0 0 255.25 170.00
  L 280.08 170.00
  A 0.45 0.45 82.1 0 0 280.51 169.43
  L 267.70 124.69
  Q 267.45 123.84 267.22 124.69
  Z"
/>
<rect fill="#000000" x="454.50" y="64.00" width="31.00" height="175.00" rx="0.67"/>
<path fill="#000000" d="
  M 511.24 142.94
  C 490.13 138.40 488.24 108.84 509.23 102.05
  Q 512.46 101.00 521.37 101.00
  Q 532.42 101.00 543.47 101.00
  C 552.90 101.00 558.81 101.68 564.58 108.29
  C 577.38 122.93 565.97 143.84 547.50 143.64
  Q 538.15 143.55 528.81 143.51
  Q 513.65 143.46 511.24 142.94
  Z
  M 556.92 121.97
  A 7.91 7.91 0.0 0 0 549.01 114.06
  L 515.49 114.06
  A 7.91 7.91 0.0 0 0 507.58 121.97
  L 507.58 122.55
  A 7.91 7.91 0.0 0 0 515.49 130.46
  L 549.01 130.46
  A 7.91 7.91 0.0 0 0 556.92 122.55
  L 556.92 121.97
  Z"
/>
<path fill="#000000" d="
  M 513.80 191.18
  C 487.21 188.14 488.22 150.28 515.70 148.83
  A 0.53 0.52 85.9 0 1 516.24 149.31
  Q 516.87 155.15 516.30 161.00
  A 0.66 0.66 -2.4 0 1 515.76 161.58
  C 510.52 162.51 505.97 166.65 507.79 172.36
  C 509.98 179.26 517.08 178.25 522.85 178.25
  A 0.59 0.59 -9.5 0 0 523.41 177.47
  C 519.26 165.47 525.67 153.11 537.40 149.69
  C 551.82 145.49 569.88 152.43 570.02 170.02
  C 570.10 179.50 562.75 188.44 553.86 190.61
  Q 551.23 191.25 537.60 191.25
  C 529.93 191.25 518.99 191.77 513.80 191.18
  Z
  M 537.44 164.69
  C 533.86 168.76 534.65 173.73 538.93 176.68
  C 542.21 178.95 549.92 178.99 553.24 176.76
  C 557.47 173.91 558.63 168.07 554.70 164.36
  C 550.74 160.62 541.12 160.50 537.44 164.69
  Z"
/>
<path fill="#000000" d="
  M 524.94 216.31
  C 515.12 202.64 496.07 222.65 515.84 228.55
  A 0.73 0.71 6.0 0 1 516.36 229.18
  Q 516.83 234.94 516.24 240.69
  A 0.54 0.53 4.0 0 1 515.68 241.17
  C 493.67 240.16 485.80 212.13 505.68 201.41
  C 514.34 196.74 525.47 198.01 532.70 204.64
  C 540.50 211.78 544.01 229.22 556.65 228.24
  A 0.65 0.65 -2.4 0 0 557.25 227.59
  L 557.25 199.62
  A 0.87 0.87 0.0 0 1 558.12 198.75
  L 569.33 198.75
  A 0.67 0.67 89.8 0 1 570.00 199.42
  L 570.00 240.48
  A 0.71 0.71 -0.4 0 1 569.30 241.19
  C 555.34 241.41 542.02 243.65 533.56 229.69
  Q 528.21 220.87 524.94 216.31
  Z"
/>
</svg>
