<?xml version="1.0" encoding="UTF-8" standalone="no"?>
<!DOCTYPE svg PUBLIC "-//W3C//DTD SVG 1.1//EN" "http://www.w3.org/Graphics/SVG/1.1/DTD/svg11.dtd">
<svg xmlns="http://www.w3.org/2000/svg" version="1.1" viewBox="0 0 600 300">
<path fill="#000000" d="
  M 263.69 31.69
  C 276.35 16.95 301.28 13.22 316.81 6.56
  C 321.42 4.59 323.76 6.07 328.61 8.31
  C 339.47 13.30 342.38 22.88 341.83 34.50
  Q 341.67 37.68 338.71 38.75
  Q 315.79 47.06 311.44 48.44
  C 305.26 50.39 312.67 38.46 304.72 41.37
  C 299.60 43.24 294.38 44.87 289.25 46.75
  C 285.37 48.17 285.75 50.13 285.75 54.10
  Q 285.75 74.18 285.75 94.25
  Q 285.75 100.48 290.77 98.53
  C 297.13 96.06 303.12 94.49 305.94 92.94
  C 310.53 90.40 305.24 84.22 312.23 82.27
  A 1.04 1.02 -18.6 0 1 313.47 82.87
  L 319.84 98.66
  A 2.24 2.20 -35.2 0 1 319.42 100.98
  Q 308.88 112.75 297.94 124.69
  C 293.99 128.99 291.37 129.80 285.37 131.79
  C 266.64 138.00 252.96 131.68 252.69 110.56
  Q 252.18 72.25 252.50 61.00
  Q 252.98 44.16 263.69 31.69
  Z"
/>
<path fill="#000000" d="
  M 501.19 111.76
  Q 502.75 113.19 502.75 115.25
  Q 502.75 130.37 502.75 145.50
  C 502.75 149.28 501.02 149.59 497.65 150.86
  Q 472.71 160.28 447.57 169.15
  C 441.83 171.18 437.50 171.28 431.63 170.95
  A 1.78 1.77 4.6 0 0 429.77 172.53
  C 429.51 175.04 428.53 175.88 426.14 176.73
  Q 408.95 182.84 392.12 188.87
  A 1.25 1.25 -10.3 0 1 390.45 187.72
  C 390.20 173.62 389.33 158.54 390.41 144.86
  C 390.75 140.61 383.58 141.22 383.55 147.58
  Q 383.46 168.69 383.50 190.44
  Q 383.51 192.46 381.64 193.15
  L 332.08 211.47
  A 0.97 0.97 -9.9 0 0 331.44 212.38
  C 331.44 238.69 318.43 258.42 295.96 271.27
  C 286.28 276.80 272.46 280.83 260.75 285.00
  C 257.56 286.14 256.50 284.79 256.50 281.71
  Q 256.46 264.39 256.56 247.07
  A 1.55 1.27 68.9 0 1 256.86 246.16
  Q 258.35 244.28 261.06 243.56
  C 266.78 242.05 287.17 236.95 286.50 228.76
  A 0.90 0.90 76.5 0 0 285.26 228.00
  C 276.33 231.64 269.51 235.23 259.42 234.27
  A 1.83 1.82 14.1 0 0 257.56 235.38
  C 256.87 237.06 256.13 237.92 254.34 238.61
  Q 237.64 245.03 220.71 251.52
  Q 217.79 252.64 217.73 249.51
  Q 217.35 229.13 217.50 207.78
  C 217.51 205.15 217.63 203.31 214.00 204.75
  Q 209.41 206.57 209.46 211.31
  Q 209.70 231.25 209.55 252.72
  Q 209.54 254.46 207.92 255.06
  Q 164.61 271.09 120.44 287.33
  Q 111.63 290.57 102.98 294.21
  C 97.99 296.31 97.50 292.60 97.50 288.89
  Q 97.50 225.82 97.50 162.75
  Q 97.50 159.05 100.37 157.96
  Q 129.43 146.92 159.31 135.78
  A 1.82 1.81 -10.2 0 0 160.50 134.08
  L 160.50 63.42
  A 0.81 0.80 -10.7 0 1 161.02 62.67
  Q 189.57 52.21 217.77 42.31
  C 228.47 38.55 241.40 41.93 246.08 52.60
  Q 247.49 55.82 247.63 61.14
  C 247.86 70.25 248.12 81.82 247.61 88.95
  Q 245.43 119.48 215.31 130.40
  Q 205.02 134.13 194.79 138.07
  A 2.32 2.31 -10.5 0 0 193.31 140.21
  Q 193.20 154.03 193.15 168.00
  C 193.13 173.76 196.81 171.77 200.14 170.56
  Q 211.29 166.50 222.44 162.44
  C 231.11 159.28 239.17 156.35 246.70 160.74
  Q 249.67 162.48 251.71 159.71
  Q 260.49 147.75 274.74 143.97
  Q 278.13 143.07 281.32 141.66
  Q 283.38 140.76 281.76 142.52
  C 275.53 149.28 268.60 158.07 261.07 164.25
  Q 257.00 167.58 257.00 174.00
  Q 257.00 191.88 257.00 209.75
  C 257.00 216.86 259.31 224.25 268.50 221.25
  Q 275.09 219.10 297.17 211.47
  C 300.70 210.25 304.14 208.33 304.00 214.25
  C 303.44 238.56 289.57 245.54 269.62 253.55
  A 1.55 1.45 80.3 0 0 268.71 254.93
  L 268.56 266.33
  Q 268.51 270.13 271.94 268.83
  C 280.03 265.79 290.30 262.63 297.00 257.28
  C 305.72 250.32 313.90 239.81 317.40 228.83
  Q 318.50 225.38 318.50 220.03
  Q 318.51 182.49 318.50 144.94
  C 318.50 142.31 318.91 139.18 314.81 140.56
  Q 309.83 142.25 287.34 152.35
  Q 286.66 152.65 286.92 152.17
  Q 287.01 152.00 287.31 151.81
  C 299.89 143.94 312.55 136.18 325.04 128.18
  Q 331.05 124.32 338.03 120.72
  Q 339.64 119.89 341.04 120.86
  L 356.27 131.47
  A 3.09 2.85 -73.8 0 1 357.50 133.93
  L 357.50 187.11
  A 1.01 1.00 81.0 0 0 358.81 188.07
  L 370.21 184.35
  A 1.89 1.89 80.8 0 0 371.50 182.56
  Q 371.50 160.25 371.53 138.75
  C 371.54 134.91 373.68 134.66 377.19 133.37
  Q 386.39 129.99 395.63 126.72
  C 398.65 125.66 401.44 124.71 401.53 129.29
  Q 402.17 160.35 401.75 169.50
  Q 401.57 173.34 405.02 172.06
  Q 410.49 170.01 415.71 168.02
  A 1.60 1.60 -10.3 0 0 416.75 166.52
  Q 416.75 145.78 416.75 125.05
  C 416.75 116.96 417.96 108.87 408.88 108.07
  Q 405.77 107.80 400.37 109.71
  Q 382.88 115.93 364.43 122.65
  A 0.96 0.91 67.4 0 1 363.28 122.14
  L 359.56 114.14
  A 1.05 1.00 67.6 0 1 360.11 112.73
  Q 379.95 105.54 399.21 98.41
  C 405.80 95.97 413.07 95.33 419.13 98.91
  Q 422.15 100.69 424.31 97.31
  Q 429.42 89.33 436.61 85.78
  C 449.37 79.47 463.40 75.54 476.80 70.79
  C 487.51 67.00 500.27 71.89 502.79 83.35
  C 504.37 90.58 503.50 102.85 500.97 110.95
  A 0.79 0.77 30.4 0 0 501.19 111.76
  Z
  M 213.33 74.20
  A 1.33 1.32 -40.4 0 0 212.40 74.13
  Q 203.15 76.86 194.92 80.76
  A 2.50 2.49 -12.8 0 0 193.50 83.01
  L 193.50 104.89
  Q 193.50 107.91 196.36 106.96
  Q 203.67 104.55 210.75 101.75
  C 213.53 100.65 214.70 99.35 214.84 96.17
  Q 215.28 86.84 214.78 77.51
  C 214.70 76.01 214.95 74.94 213.33 74.20
  Z
  M 458.68 89.02
  C 444.06 94.25 429.52 99.13 429.50 117.69
  Q 429.48 132.34 429.34 147.00
  C 429.23 158.13 437.06 159.86 445.66 156.92
  Q 467.52 149.45 489.78 141.47
  Q 491.50 140.86 491.50 139.03
  Q 491.50 134.57 491.50 129.57
  C 491.50 124.68 489.08 125.48 485.61 126.73
  Q 466.80 133.52 448.23 140.09
  Q 446.05 140.85 444.95 138.83
  C 442.58 134.49 444.80 132.20 448.89 130.71
  Q 459.71 126.78 470.58 122.97
  C 479.72 119.77 487.63 116.01 490.54 106.58
  C 491.87 102.31 491.19 96.66 491.35 92.03
  C 491.70 81.28 483.55 80.35 475.59 83.09
  Q 467.12 86.01 458.68 89.02
  Z
  M 331.19 136.16
  L 331.00 195.64
  Q 330.99 198.85 333.86 197.84
  L 344.54 194.09
  A 2.01 1.79 81.5 0 0 345.75 192.24
  L 345.75 133.04
  Q 345.75 129.96 343.01 131.00
  L 331.80 135.23
  A 1.01 0.94 80.4 0 0 331.19 136.16
  Z
  M 123.79 208.94
  L 123.52 179.47
  A 1.39 1.39 -10.4 0 1 124.42 178.17
  L 158.47 165.35
  Q 160.56 164.56 160.52 162.39
  C 160.47 159.19 160.30 156.41 160.39 153.43
  Q 160.51 149.38 155.75 151.00
  Q 133.71 158.49 111.67 166.02
  Q 108.51 167.09 108.51 170.50
  Q 108.50 222.87 108.34 275.25
  Q 108.32 279.63 112.81 278.06
  Q 141.63 268.03 170.22 257.36
  A 0.87 0.84 85.0 0 0 170.77 256.68
  Q 171.57 251.58 171.30 246.40
  C 171.05 241.48 170.43 240.66 165.63 242.44
  Q 145.51 249.91 124.85 257.23
  A 0.84 0.83 -10.1 0 1 123.73 256.46
  L 123.52 227.24
  Q 123.50 225.27 125.42 224.60
  Q 136.24 220.87 147.48 216.55
  C 150.64 215.33 152.37 215.26 152.49 211.16
  C 152.61 206.68 154.61 198.83 146.79 201.61
  C 137.16 205.02 130.63 208.34 124.30 209.37
  A 0.44 0.44 84.9 0 1 123.79 208.94
  Z
  M 228.98 188.95
  C 230.85 191.42 229.94 226.35 229.69 231.72
  Q 229.50 235.76 233.58 234.20
  Q 238.36 232.37 242.53 230.92
  Q 245.00 230.05 245.00 227.43
  Q 245.00 205.54 245.00 184.42
  C 245.00 177.94 244.74 171.16 237.33 170.35
  Q 234.08 169.99 226.96 172.58
  Q 206.02 180.19 184.86 188.15
  Q 183.25 188.75 183.25 190.47
  L 183.25 250.06
  A 1.40 1.40 -8.9 0 0 185.08 251.39
  L 196.21 247.76
  A 1.87 1.86 -9.1 0 0 197.50 245.99
  L 197.50 201.23
  Q 197.50 199.04 199.47 198.29
  L 226.31 188.14
  Q 227.91 187.54 228.98 188.95
  Z
  M 137.75 192.01
  A 1.79 1.78 -38.7 0 0 139.25 192.17
  L 162.51 184.00
  A 1.33 1.32 79.4 0 1 164.27 185.21
  Q 164.82 202.42 164.33 220.32
  A 1.29 1.15 71.7 0 1 163.96 221.17
  Q 162.22 222.79 158.50 224.25
  Q 148.42 228.20 138.41 232.29
  C 135.02 233.68 133.81 238.49 137.77 239.63
  A 1.71 1.39 -41.5 0 0 138.72 239.59
  Q 153.60 234.56 168.31 229.06
  C 171.76 227.77 171.25 226.65 171.25 223.56
  Q 171.25 201.18 171.25 178.80
  C 171.25 175.87 171.82 172.94 167.50 174.50
  Q 154.03 179.37 140.61 184.34
  C 137.24 185.59 132.42 188.71 137.75 192.01
  Z"
/>
<path fill="#000000" d="
  M 271.00 158.57
  C 270.74 158.12 316.98 108.66 321.01 103.46
  C 323.27 100.55 323.06 99.40 321.81 96.19
  Q 316.80 83.23 311.66 71.44
  Q 310.69 69.21 312.68 70.60
  Q 324.49 78.79 336.31 86.69
  C 338.62 88.23 340.77 86.82 342.88 85.51
  Q 374.00 66.24 404.29 47.19
  Q 406.29 45.94 404.70 47.68
  L 353.76 103.20
  A 2.63 2.60 55.5 0 0 353.27 105.95
  Q 359.05 120.24 365.65 133.32
  Q 367.09 136.16 364.58 134.20
  Q 352.93 125.10 340.42 117.26
  A 1.49 1.42 57.0 0 0 339.50 117.04
  C 336.45 117.37 334.69 118.95 332.19 120.51
  Q 301.79 139.44 271.52 158.58
  A 0.44 0.28 -31.9 0 1 271.00 158.57
  Z"
/>
<path fill="#000000" d="
  M 388.55 53.80
  Q 380.96 58.85 379.06 59.56
  C 376.31 60.60 370.38 60.27 367.98 60.39
  Q 331.56 62.29 295.36 66.68
  C 293.63 66.89 292.03 67.63 292.75 64.50
  Q 293.39 61.69 294.75 61.50
  Q 336.44 55.65 378.48 53.60
  C 381.08 53.47 384.73 53.69 387.95 52.93
  A 0.95 0.60 -20.0 0 1 388.83 53.12
  Q 389.08 53.46 388.55 53.80
  Z"
/>
<path fill="#000000" d="
  M 403.58 53.39
  A 1.17 1.16 -66.8 0 1 404.39 53.06
  C 445.70 52.82 553.70 57.57 563.94 112.31
  C 565.07 118.40 563.42 124.17 561.21 130.47
  C 552.16 156.23 521.12 177.62 498.08 189.84
  C 446.70 217.11 389.44 233.27 332.32 244.18
  Q 331.17 244.40 331.71 243.45
  L 335.01 237.71
  A 1.26 0.84 1.4 0 1 335.80 237.21
  C 388.66 226.33 441.05 211.77 488.82 187.32
  C 512.89 175.00 554.41 149.18 556.79 118.78
  C 559.56 83.37 505.96 69.54 480.72 65.42
  Q 440.26 58.83 398.76 59.51
  Q 397.20 59.53 398.32 58.45
  L 403.58 53.39
  Z"
/>
<path fill="#000000" d="
  M 342.02 82.48
  Q 340.70 84.21 338.49 84.46
  A 1.49 1.21 54.1 0 1 337.59 84.22
  L 328.17 77.89
  Q 326.51 76.77 328.43 76.10
  L 338.93 72.43
  Q 341.03 71.69 341.29 73.65
  L 342.30 81.56
  A 1.39 1.09 -35.1 0 1 342.02 82.48
  Z"
/>
<path fill="#000000" d="
  M 88.52 241.27
  C 91.25 242.03 92.19 243.15 91.13 245.97
  A 0.60 0.57 15.9 0 1 90.45 246.33
  C 71.51 242.09 52.40 235.05 38.13 221.87
  C 29.52 213.90 21.95 199.71 24.91 187.48
  C 36.48 139.75 107.26 110.16 148.73 96.09
  C 150.68 95.43 151.31 94.89 150.90 98.02
  Q 150.79 98.85 151.02 99.66
  Q 151.32 100.69 149.65 101.34
  C 117.23 114.04 29.57 150.36 30.99 193.80
  C 31.86 220.28 67.50 235.46 88.52 241.27
  Z"
/>
<path fill="#000000" d="
  M 445.47 116.01
  C 441.77 110.11 448.50 108.52 452.27 106.98
  Q 461.95 103.04 471.79 99.57
  Q 473.49 98.97 474.56 100.43
  C 476.82 103.52 475.10 105.29 472.13 106.50
  Q 460.06 111.41 446.95 116.50
  A 1.24 1.22 -26.3 0 1 445.47 116.01
  Z"
/>
<path fill="#000000" d="
  M 271.34 173.26
  C 273.35 170.88 275.64 170.21 278.47 169.13
  Q 289.74 164.82 301.77 160.56
  A 1.32 1.31 70.2 0 1 303.44 161.35
  Q 304.19 163.41 304.17 165.25
  Q 304.00 177.87 304.00 190.52
  Q 304.00 192.52 302.12 193.21
  Q 289.53 197.85 276.71 202.02
  C 272.65 203.34 270.56 203.06 270.46 198.18
  Q 270.22 186.94 270.51 175.44
  A 3.51 3.48 66.1 0 1 271.34 173.26
  Z
  M 283.92 180.98
  Q 282.62 182.25 282.54 184.08
  Q 282.40 187.46 284.74 186.71
  C 287.65 185.79 293.56 183.21 291.18 179.00
  A 1.56 1.55 65.7 0 0 289.31 178.29
  Q 285.19 179.74 283.92 180.98
  Z"
/>
</svg>
