<?xml version="1.0" encoding="UTF-8" standalone="no"?>
<!DOCTYPE svg PUBLIC "-//W3C//DTD SVG 1.1//EN" "http://www.w3.org/Graphics/SVG/1.1/DTD/svg11.dtd">
<svg xmlns="http://www.w3.org/2000/svg" version="1.1" viewBox="0 0 600 300">
<path fill="#000000" d="
  M 476.95 106.91
  Q 477.18 106.46 477.41 106.91
  L 518.76 187.07
  A 0.34 0.34 75.7 0 1 518.47 187.57
  L 501.40 187.76
  A 2.08 1.96 75.1 0 1 499.61 186.65
  L 493.70 175.44
  A 1.29 1.27 75.3 0 0 492.56 174.76
  L 471.16 174.82
  A 0.58 0.58 -76.7 0 1 470.64 173.97
  L 478.16 159.51
  A 1.78 1.60 -74.3 0 1 479.67 158.55
  L 483.99 158.62
  A 0.80 0.73 -12.3 0 0 484.75 157.54
  L 468.03 125.53
  A 1.43 1.36 -46.1 0 1 468.04 124.24
  L 476.95 106.91
  Z"
/>
<path fill="#000000" d="
  M 294.63 143.74
  C 298.94 116.11 327.44 100.49 352.90 112.63
  Q 371.52 121.51 375.36 143.95
  A 0.43 0.42 -4.6 0 1 374.94 144.44
  L 359.31 144.50
  A 1.13 1.12 82.7 0 1 358.22 143.65
  C 351.91 118.78 317.99 119.43 311.68 143.84
  A 0.66 0.62 -82.2 0 1 311.07 144.33
  L 295.22 144.45
  A 0.62 0.59 -85.9 0 1 294.63 143.74
  Z"
/>
<path fill="#000000" d="
  M 550.70 189.71
  C 503.73 182.84 503.30 116.33 550.67 108.60
  A 0.72 0.71 85.3 0 1 551.50 109.31
  L 551.50 124.54
  A 1.10 1.10 82.4 0 1 550.69 125.60
  C 525.95 132.25 525.41 164.77 550.30 172.59
  A 1.72 1.71 8.8 0 1 551.50 174.22
  L 551.50 189.02
  A 0.70 0.70 4.0 0 1 550.70 189.71
  Z"
/>
<path fill="#000000" d="
  M 561.01 108.50
  C 572.47 109.95 579.91 115.01 587.71 123.10
  A 1.32 1.32 49.1 0 1 587.57 125.06
  L 575.89 134.14
  A 0.77 0.76 -39.6 0 1 574.85 134.05
  Q 568.89 127.41 561.17 125.43
  A 0.67 0.62 7.8 0 1 560.67 124.82
  L 560.51 108.94
  A 0.45 0.44 3.4 0 1 561.01 108.50
  Z"
/>
<path fill="#000000" d="
  M 67.53 173.70
  C 64.60 179.52 61.46 185.12 58.59 191.08
  Q 57.94 192.43 57.70 190.95
  Q 57.49 189.69 56.76 188.27
  Q 37.66 151.36 18.77 114.33
  Q 18.06 112.93 16.87 111.75
  Q 15.62 110.50 17.39 110.50
  L 34.59 110.50
  A 1.23 1.22 -13.5 0 1 35.68 111.16
  L 67.52 172.81
  A 0.99 0.98 -46.0 0 1 67.53 173.70
  Z"
/>
<path fill="#000000" d="
  M 99.59 110.44
  A 0.33 0.33 13.5 0 1 99.89 110.92
  L 73.43 162.20
  Q 72.78 163.46 72.13 162.19
  L 63.68 145.84
  A 1.56 1.49 46.0 0 1 63.67 144.45
  L 80.85 111.15
  A 1.24 1.20 12.6 0 1 81.93 110.49
  L 99.59 110.44
  Z"
/>
<rect fill="#000000" x="111.75" y="110.50" width="16.76" height="77.22" rx="0.63"/>
<rect fill="#000000" x="143.25" y="110.50" width="16.76" height="77.22" rx="0.65"/>
<path fill="#000000" d="
  M 179.50 110.60
  C 210.84 111.20 226.23 146.72 209.37 171.60
  Q 199.04 186.83 178.25 187.26
  Q 174.11 187.35 170.25 187.73
  A 1.05 1.01 87.2 0 1 169.15 186.69
  L 169.01 172.21
  A 0.96 0.91 -89.4 0 1 169.95 171.24
  Q 174.01 171.37 177.76 171.16
  C 207.55 169.51 206.36 127.28 177.25 127.07
  Q 173.41 127.05 169.74 126.94
  A 0.73 0.70 -89.2 0 1 169.06 126.21
  L 169.06 111.05
  A 0.55 0.52 -90.0 0 1 169.58 110.50
  Q 174.50 110.50 179.50 110.60
  Z"
/>
<rect fill="#000000" x="227.73" y="110.50" width="16.76" height="77.22" rx="0.56"/>
<rect fill="#000000" x="253.71" y="110.51" width="30.78" height="16.00" rx="0.40"/>
<rect fill="#000000" x="385.75" y="110.50" width="16.78" height="77.22" rx="0.58"/>
<path fill="#000000" d="
  M 411.93 125.98
  L 411.95 111.18
  A 0.53 0.51 88.3 0 1 412.43 110.65
  C 418.05 110.30 424.97 110.05 430.65 112.33
  C 450.86 120.44 448.79 150.11 428.02 156.14
  C 423.27 157.52 417.86 157.38 412.63 157.22
  A 0.66 0.65 -89.1 0 1 412.00 156.56
  L 411.92 141.51
  A 0.79 0.77 -89.0 0 1 412.72 140.72
  C 416.65 140.82 422.41 141.24 425.48 139.19
  C 428.63 137.08 429.28 132.36 426.83 129.66
  C 423.74 126.26 417.55 126.76 413.05 127.04
  A 1.06 1.05 88.2 0 1 411.93 125.98
  Z"
/>
<path fill="#000000" d="
  M 462.23 135.61
  Q 462.85 134.39 463.46 135.62
  L 471.89 152.45
  A 1.37 1.36 -44.8 0 1 471.88 153.69
  L 454.77 186.95
  A 1.50 1.49 -76.1 0 1 453.45 187.75
  L 436.53 187.75
  A 0.65 0.65 -76.5 0 1 435.95 186.80
  L 462.23 135.61
  Z"
/>
<rect fill="#000000" x="253.71" y="141.01" width="30.78" height="16.24" rx="0.46"/>
<path fill="#000000" d="
  M 375.44 154.26
  C 367.92 201.52 302.42 201.32 294.64 154.31
  A 0.43 0.43 -4.5 0 1 295.07 153.81
  L 310.97 153.75
  A 0.68 0.67 82.0 0 1 311.62 154.25
  C 318.52 178.93 351.15 179.67 358.43 154.29
  A 0.67 0.65 -81.7 0 1 359.06 153.81
  L 375.01 153.75
  A 0.44 0.44 -85.5 0 1 375.44 154.26
  Z"
/>
<path fill="#000000" d="
  M 587.54 175.17
  Q 576.31 187.33 561.34 189.73
  A 0.73 0.73 -4.0 0 1 560.50 189.01
  L 560.50 173.62
  A 0.94 0.93 83.9 0 1 561.23 172.70
  Q 569.23 170.86 574.98 164.09
  A 0.55 0.54 -50.8 0 1 575.73 164.01
  L 587.35 172.85
  A 1.58 1.56 -50.0 0 1 587.54 175.17
  Z"
/>
<rect fill="#000000" x="253.70" y="171.50" width="30.80" height="16.24" rx="0.62"/>
</svg>
