<?xml version="1.0" encoding="UTF-8" standalone="no"?>
<!DOCTYPE svg PUBLIC "-//W3C//DTD SVG 1.1//EN" "http://www.w3.org/Graphics/SVG/1.1/DTD/svg11.dtd">
<svg xmlns="http://www.w3.org/2000/svg" version="1.1" viewBox="0 0 600 300">
<g stroke-width="2.00" fill="none" stroke-linecap="butt">
<path stroke="#000100" stroke-opacity="0.808" vector-effect="non-scaling-stroke" d="
  M 67.71 80.00
  Q 66.76 84.63 68.21 81.25"
/>
<path stroke="#000100" stroke-opacity="0.808" vector-effect="non-scaling-stroke" d="
  M 474.29 202.25
  C 474.32 202.83 474.80 207.80 475.15 207.69
  A 0.66 0.44 80.0 0 0 475.43 207.05
  L 474.96 202.75"
/>
</g>
<path fill="#000000" d="
  M 67.71 80.00
  Q 66.76 84.63 68.21 81.25
  L 90.52 30.70
  A 1.60 1.56 -77.8 0 1 91.96 29.75
  L 106.18 29.80
  A 0.62 0.62 -4.5 0 1 106.78 30.31
  Q 111.15 54.21 114.68 78.26
  Q 114.77 78.87 115.15 78.78
  A 1.01 0.57 -79.5 0 0 115.70 78.12
  L 131.24 30.51
  A 1.04 0.97 -79.8 0 1 132.19 29.80
  L 143.56 29.91
  A 0.64 0.60 84.2 0 1 144.16 30.43
  Q 146.60 42.81 148.75 55.25
  Q 149.65 60.45 149.79 62.19
  A 0.57 0.45 83.9 0 0 150.31 62.73
  C 150.96 62.63 163.20 33.45 164.53 30.39
  A 1.07 1.07 11.8 0 1 165.51 29.75
  C 169.76 29.75 174.03 29.94 178.09 29.62
  C 181.08 29.39 180.21 31.91 180.30 33.73
  Q 181.61 62.33 182.67 90.93
  A 0.50 0.49 -2.3 0 1 182.19 91.44
  L 171.01 91.68
  A 0.99 0.96 -1.8 0 1 170.00 90.76
  L 168.52 56.51
  Q 168.37 53.07 167.00 56.24
  L 152.14 90.73
  A 0.95 0.92 -83.0 0 1 151.46 91.28
  C 149.44 91.64 147.67 91.57 145.13 91.82
  C 142.41 92.08 142.85 89.58 142.49 87.88
  Q 139.52 73.94 136.84 60.08
  Q 136.23 56.93 135.26 59.98
  L 125.34 91.01
  A 0.71 0.70 -80.9 0 1 124.67 91.50
  L 104.11 91.50
  A 0.93 0.92 84.8 0 1 103.20 90.74
  L 100.27 73.84
  A 1.02 1.02 84.9 0 0 99.27 73.00
  L 86.91 73.00
  A 2.59 2.42 -76.9 0 0 84.66 74.51
  L 77.16 91.00
  A 0.83 0.80 11.3 0 1 76.43 91.47
  L 64.57 91.71
  A 0.44 0.44 4.3 0 1 64.13 91.20
  Q 64.38 89.84 65.19 88.69
  Q 66.24 87.19 64.56 88.06
  C 45.03 98.28 18.54 88.73 19.84 63.75
  C 21.30 35.85 50.13 22.78 74.78 30.33
  A 1.25 1.19 13.4 0 1 75.66 31.68
  L 73.93 42.50
  A 0.60 0.58 13.2 0 1 73.17 42.95
  Q 55.11 37.57 40.81 48.31
  C 27.16 58.57 30.30 82.12 51.25 79.50
  Q 54.87 79.05 54.62 75.56
  A 1.79 1.67 58.0 0 1 54.80 74.63
  Q 55.97 72.32 53.66 72.58
  C 51.11 72.87 48.52 72.77 46.01 72.69
  A 0.74 0.73 -84.5 0 1 45.31 71.83
  L 46.94 62.02
  A 1.22 1.19 -85.2 0 1 48.12 61.00
  L 69.79 61.00
  A 0.87 0.85 4.5 0 1 70.65 61.99
  L 67.71 80.00
  Z
  M 97.60 61.04
  A 0.60 0.56 85.0 0 0 98.16 60.32
  L 96.23 50.65
  Q 95.91 49.04 95.25 50.53
  L 90.95 60.29
  A 0.37 0.35 -76.5 0 0 91.25 60.81
  L 97.60 61.04
  Z"
/>
<path fill="#000000" d="
  M 200.17 78.43
  L 220.55 78.26
  A 0.87 0.84 -85.9 0 1 221.38 79.25
  L 219.69 90.70
  A 1.24 1.23 -85.7 0 1 218.47 91.75
  L 184.51 91.58
  A 0.62 0.61 4.8 0 1 183.90 90.87
  L 193.69 30.20
  A 0.54 0.53 4.4 0 1 194.22 29.75
  L 228.57 29.75
  A 0.44 0.44 -85.5 0 1 229.00 30.26
  L 227.23 41.63
  A 1.61 1.57 -85.5 0 1 225.67 43.00
  L 205.65 43.00
  A 1.09 1.04 3.6 0 0 204.58 43.90
  L 203.33 53.05
  A 0.87 0.84 3.7 0 0 204.20 54.00
  L 221.64 54.00
  A 0.76 0.75 4.5 0 1 222.39 54.87
  L 220.52 66.41
  A 1.02 1.01 4.7 0 1 219.52 67.25
  L 202.13 67.31
  A 1.35 1.31 -85.4 0 0 200.83 68.45
  L 199.38 77.52
  A 0.80 0.78 4.6 0 0 200.17 78.43
  Z"
/>
<path fill="#000000" d="
  M 308.3659 92.1084
  A 31.75 26.27 103.3 0 1 290.1046 55.1666
  A 31.75 26.27 103.3 0 1 322.9741 30.3116
  A 31.75 26.27 103.3 0 1 341.2354 67.2534
  A 31.75 26.27 103.3 0 1 308.3659 92.1084
  Z
  M 310.9200 80.2237
  A 19.62 13.15 103.8 0 0 328.3704 64.3067
  A 19.62 13.15 103.8 0 0 320.2800 42.1163
  A 19.62 13.15 103.8 0 0 302.8296 58.0333
  A 19.62 13.15 103.8 0 0 310.9200 80.2237
  Z"
/>
<path fill="#000000" d="
  M 357.03 48.43
  Q 357.56 49.79 358.33 48.57
  L 369.25 31.15
  A 2.98 2.82 -72.9 0 1 371.71 29.76
  L 384.56 29.81
  Q 385.13 29.81 384.82 30.30
  L 362.91 64.63
  Q 362.15 65.82 361.93 67.25
  L 358.44 90.36
  A 1.87 1.71 4.2 0 1 356.59 91.82
  L 346.05 91.69
  A 0.49 0.45 4.6 0 1 345.57 91.17
  L 349.93 62.82
  A 1.99 1.91 38.2 0 0 349.78 61.75
  L 335.52 30.64
  A 0.63 0.63 -12.4 0 1 336.09 29.75
  L 349.19 29.75
  A 0.82 0.81 -10.5 0 1 349.95 30.27
  L 357.03 48.43
  Z"
/>
<path fill="#000000" d="
  M 281.53 58.87
  A 1.19 1.19 -42.6 0 0 281.46 60.56
  Q 289.24 68.93 285.76 77.96
  C 283.15 84.71 276.61 89.86 269.45 91.21
  C 263.07 92.41 248.80 91.50 239.55 91.50
  A 0.82 0.82 -85.5 0 1 238.74 90.55
  L 248.33 30.73
  A 0.80 0.80 4.3 0 1 249.11 30.06
  Q 256.07 29.98 263.18 29.99
  C 271.86 29.99 277.18 29.46 282.64 34.84
  C 289.82 41.92 288.78 52.20 281.53 58.87
  Z
  M 258.98 44.97
  C 258.61 48.01 258.01 50.95 257.78 54.01
  A 0.47 0.46 1.7 0 0 258.25 54.50
  C 262.35 54.54 268.63 55.54 271.94 52.19
  C 276.51 47.56 271.86 42.51 266.27 43.32
  Q 263.98 43.65 261.75 43.05
  Q 259.30 42.39 258.98 44.97
  Z
  M 266.80 79.14
  C 275.38 78.41 275.71 67.39 266.75 67.30
  Q 262.13 67.25 257.05 67.25
  A 1.90 1.87 -85.5 0 0 255.20 68.86
  L 253.64 78.75
  A 0.63 0.62 -85.2 0 0 254.24 79.48
  Q 260.91 79.64 266.80 79.14
  Z"
/>
<path fill="#010201" fill-opacity="0.616" d="
  M 67.71 80.00
  Q 67.45 80.92 68.21 81.25
  Q 66.76 84.63 67.71 80.00
  Z"
/>
<path fill="#000000" d="
  M 368.88 89.40
  C 368.14 88.80 364.57 88.99 366.07 87.29
  A 1.17 1.13 19.9 0 1 366.94 86.90
  L 374.94 86.79
  A 0.52 0.52 -0.5 0 1 375.47 87.31
  Q 375.45 89.35 372.82 88.63
  A 0.74 0.73 15.7 0 0 371.92 89.13
  C 371.16 91.61 370.72 97.49 368.12 97.24
  A 0.79 0.77 10.3 0 1 367.43 96.27
  L 369.10 90.24
  A 0.85 0.72 -64.7 0 0 368.88 89.40
  Z"
/>
<path fill="#000000" d="
  M 380.98 93.75
  C 383.66 93.12 382.02 85.60 387.61 86.96
  A 0.51 0.49 13.5 0 1 387.99 87.55
  L 385.83 96.46
  A 0.98 0.94 -3.9 0 1 385.22 97.13
  C 382.18 98.29 384.81 92.52 384.77 90.99
  Q 384.76 90.48 384.49 90.92
  C 383.58 92.43 381.74 98.58 379.44 97.00
  A 0.97 0.95 -72.5 0 1 379.03 96.19
  L 379.13 91.57
  A 1.46 0.58 -81.1 0 0 378.92 90.64
  C 378.20 89.75 377.14 95.92 377.04 96.44
  A 0.96 0.87 87.2 0 1 376.48 97.12
  C 373.43 98.19 374.94 95.51 375.17 94.48
  C 375.69 92.11 376.10 85.76 379.65 86.72
  A 1.11 1.07 7.4 0 1 380.46 87.73
  L 380.57 93.26
  A 0.48 0.34 85.1 0 0 380.98 93.75
  Z"
/>
<path fill="#000000" d="
  M 600.00 248.06
  L 600.00 250.81
  C 597.82 262.85 587.84 273.37 575.09 271.89
  C 568.43 271.11 558.70 261.60 551.69 255.81
  Q 532.24 239.75 512.35 223.54
  Q 511.67 222.98 511.72 223.86
  Q 512.44 237.39 511.46 250.27
  C 509.45 276.46 475.98 272.87 471.14 252.16
  C 469.85 246.64 470.04 237.79 472.50 232.50
  C 475.25 226.59 474.88 219.88 475.17 213.51
  C 475.21 212.79 474.67 212.36 474.23 213.28
  C 459.90 243.19 428.88 260.83 396.51 263.39
  Q 370.62 265.44 351.89 247.52
  A 0.71 0.70 39.9 0 0 350.84 247.61
  C 343.87 256.84 321.78 255.39 311.25 258.82
  C 299.44 262.68 290.60 268.99 278.44 269.29
  C 265.63 269.60 260.95 263.84 259.46 252.04
  Q 257.03 232.78 255.23 213.26
  Q 255.03 211.09 254.37 213.17
  C 245.64 240.88 219.86 259.03 191.76 263.34
  Q 158.38 268.45 132.13 248.24
  Q 131.17 247.50 131.25 248.71
  C 131.73 256.65 125.36 264.53 118.48 267.43
  Q 114.87 268.95 107.29 269.17
  C 67.74 270.33 22.26 275.85 4.33 230.68
  Q -0.19 219.27 0.00 206.94
  L 0.00 196.69
  C 1.93 174.84 10.81 159.73 22.96 142.35
  C 41.99 115.15 66.94 90.88 103.81 99.44
  C 112.13 101.37 119.84 103.98 125.50 110.13
  C 138.31 124.05 132.57 152.95 108.97 149.90
  Q 97.54 148.42 93.40 135.44
  A 2.13 2.13 -1.8 0 0 91.89 134.02
  C 82.22 131.61 69.62 141.73 63.28 147.94
  C 50.16 160.79 40.20 178.59 36.75 196.75
  C 34.02 211.13 40.47 227.84 56.06 231.44
  C 70.03 234.66 87.39 233.47 101.85 232.14
  C 107.80 231.59 112.27 231.56 117.43 232.81
  Q 119.08 233.21 118.32 231.70
  Q 110.80 216.81 113.70 200.24
  C 119.34 167.91 139.84 141.37 170.25 129.75
  C 203.06 117.22 237.61 135.99 252.10 166.68
  Q 252.74 168.03 252.65 166.54
  Q 252.38 161.54 251.61 156.32
  C 250.40 148.19 247.05 140.07 244.32 132.20
  Q 242.09 125.79 242.09 121.90
  C 242.09 108.49 255.65 95.89 268.94 103.31
  C 286.99 113.39 288.31 136.40 289.27 154.56
  Q 290.11 170.39 289.99 186.25
  Q 289.86 203.44 292.10 221.29
  A 1.11 1.11 -11.1 0 0 293.49 222.22
  C 298.63 220.83 302.29 219.63 308.37 217.46
  Q 320.82 213.02 334.13 213.93
  A 0.36 0.35 86.8 0 0 334.50 213.51
  C 329.26 184.37 344.36 154.11 369.79 139.47
  C 403.34 120.16 447.22 128.88 469.54 160.59
  Q 470.73 162.29 470.25 160.27
  C 467.92 150.39 463.54 141.12 467.16 131.06
  C 472.56 116.03 492.38 106.50 507.25 104.47
  C 533.20 100.94 556.07 108.37 576.81 123.44
  C 587.07 130.89 589.51 140.36 586.59 152.64
  C 581.65 173.38 561.71 187.04 544.08 196.18
  A 0.58 0.57 -39.3 0 0 543.98 197.14
  Q 569.03 217.34 593.81 237.44
  Q 599.19 241.80 600.00 248.06
  Z
  M 511.76 168.42
  A 0.33 0.33 -5.6 0 0 512.14 168.73
  C 522.36 167.10 541.86 161.79 547.95 152.67
  Q 549.66 150.11 547.05 148.48
  C 538.22 142.92 521.40 143.31 510.74 143.82
  A 0.67 0.66 87.0 0 0 510.11 144.53
  L 511.76 168.42
  Z
  M 205.31 165.69
  C 200.03 161.37 195.04 161.82 188.15 163.13
  C 171.33 166.33 156.43 178.65 154.09 196.18
  Q 153.16 203.16 155.63 209.55
  C 164.87 233.45 196.87 235.31 212.07 216.45
  C 216.24 211.27 218.25 206.02 218.23 199.50
  C 218.19 188.02 214.68 173.35 205.31 165.69
  Z
  M 474.29 202.25
  C 474.32 202.83 474.80 207.80 475.15 207.69
  A 0.66 0.44 80.0 0 0 475.43 207.05
  L 474.96 202.75
  Q 474.87 184.09 471.55 165.74
  Q 471.21 163.90 470.66 165.29
  A 1.75 1.28 56.9 0 0 470.61 166.24
  Q 471.60 170.77 471.75 173.00
  Q 472.72 187.65 474.29 202.25
  Z
  M 377.62 178.13
  C 365.02 191.89 370.36 213.05 385.94 221.81
  C 400.55 230.03 420.83 224.65 431.94 212.69
  C 438.84 205.25 443.91 191.27 439.36 181.39
  C 435.33 172.66 425.84 167.10 416.50 166.28
  C 411.76 165.86 406.59 165.27 402.17 165.71
  Q 387.65 167.18 377.62 178.13
  Z"
/>
<path fill="#010201" fill-opacity="0.616" d="
  M 474.29 202.25
  Q 474.49 202.71 474.96 202.75
  L 475.43 207.05
  A 0.66 0.44 80.0 0 1 475.15 207.69
  C 474.80 207.80 474.32 202.83 474.29 202.25
  Z"
/>
</svg>
