<?xml version="1.0" encoding="UTF-8" standalone="no"?>
<!DOCTYPE svg PUBLIC "-//W3C//DTD SVG 1.1//EN" "http://www.w3.org/Graphics/SVG/1.1/DTD/svg11.dtd">
<svg xmlns="http://www.w3.org/2000/svg" version="1.1" viewBox="0 0 600 300">
<path fill="#000000" d="
  M 374.80 73.35
  C 375.40 90.98 372.34 114.74 350.55 118.73
  C 342.87 120.13 334.51 117.74 327.13 114.51
  A 1.48 1.46 -78.5 0 1 326.25 113.16
  Q 326.25 82.25 326.26 51.25
  C 326.26 43.35 324.58 35.90 316.17 33.61
  Q 313.52 32.89 311.79 35.04
  Q 308.95 38.55 308.94 42.81
  Q 308.91 123.44 309.06 204.04
  A 0.34 0.33 -81.8 0 1 308.63 204.37
  L 268.06 192.01
  A 1.13 1.12 8.3 0 1 267.25 190.93
  L 267.25 0.64
  A 0.41 0.40 6.8 0 1 267.75 0.25
  Q 298.63 7.53 328.75 17.50
  C 355.74 26.43 373.80 43.92 374.80 73.35
  Z"
/>
<path fill="#000000" d="
  M 224.39 165.74
  Q 233.49 164.55 235.94 163.69
  Q 244.91 160.51 253.45 157.12
  A 0.77 0.77 -10.9 0 1 254.50 157.83
  L 254.44 177.85
  A 0.84 0.84 -3.9 0 1 253.71 178.68
  Q 216.14 184.05 180.81 171.94
  C 174.83 169.89 166.24 164.95 165.33 158.16
  C 164.16 149.33 182.91 141.06 189.73 138.60
  Q 221.78 127.04 253.66 116.12
  A 0.63 0.63 80.5 0 1 254.50 116.72
  L 254.50 140.23
  A 1.30 1.30 80.6 0 1 253.62 141.46
  Q 231.37 148.96 210.31 157.06
  Q 207.28 158.23 205.55 160.36
  A 1.06 1.02 -31.9 0 0 205.33 161.23
  C 206.23 165.69 213.70 165.12 217.25 165.64
  Q 221.01 166.18 224.39 165.74
  Z"
/>
<path fill="#000000" d="
  M 319.93 134.39
  A 0.69 0.67 -8.5 0 1 320.41 133.76
  C 354.00 123.24 391.22 122.92 423.19 138.31
  C 428.94 141.08 433.74 146.88 431.65 153.33
  C 428.45 163.22 406.67 169.98 397.67 173.14
  Q 358.97 186.73 320.89 200.23
  A 0.84 0.83 -9.7 0 1 319.77 199.45
  L 319.92 176.19
  A 0.73 0.73 80.6 0 1 320.40 175.52
  Q 353.94 163.40 387.48 151.30
  Q 390.32 150.27 392.86 148.31
  Q 394.62 146.94 393.36 145.09
  C 391.86 142.89 389.34 142.76 387.04 142.16
  C 378.16 139.85 370.90 142.11 361.82 145.20
  Q 341.01 152.26 320.47 159.42
  A 0.53 0.53 -9.4 0 1 319.76 158.92
  L 319.93 134.39
  Z"
/>
<path fill="#000000" d="
  M 109.31 223.28
  A 1.00 1.00 1.6 0 0 108.25 224.28
  L 108.25 276.52
  A 0.98 0.98 -89.5 0 1 107.27 277.50
  L 99.37 277.50
  A 0.81 0.80 -89.6 0 1 98.57 276.68
  L 98.75 218.30
  A 0.55 0.55 89.2 0 1 99.30 217.75
  C 106.98 217.75 116.91 217.06 126.00 218.25
  C 134.12 219.32 137.38 226.21 137.50 233.75
  C 137.65 243.36 135.95 254.20 123.75 254.34
  Q 119.40 254.39 115.00 254.69
  A 1.08 0.99 -2.2 0 1 113.85 253.71
  L 113.86 249.67
  A 0.62 0.51 -2.3 0 1 114.44 249.15
  C 118.57 248.86 124.90 249.93 126.31 244.06
  Q 128.15 236.40 126.50 229.50
  C 124.66 221.85 115.07 223.61 109.31 223.28
  Z"
/>
<rect fill="#000000" x="144.75" y="217.50" width="9.26" height="60.00" rx="0.59"/>
<path fill="#000000" d="
  M 283.94 271.44
  C 280.12 279.41 262.10 277.58 255.12 276.74
  A 0.70 0.69 3.2 0 1 254.50 276.05
  L 254.50 272.33
  A 1.06 1.04 2.0 0 1 255.63 271.29
  C 260.12 271.62 270.64 272.76 273.99 269.64
  C 277.28 266.56 277.16 259.51 276.19 255.56
  C 275.04 250.93 269.17 250.83 264.26 250.58
  C 251.42 249.91 250.56 236.68 253.07 227.02
  C 256.31 214.57 272.02 217.18 281.84 217.86
  A 0.94 0.89 1.8 0 1 282.71 218.74
  L 282.74 222.70
  A 0.93 0.89 1.2 0 1 281.76 223.60
  Q 276.93 223.35 272.55 223.28
  C 262.29 223.11 259.91 229.70 262.90 238.69
  A 3.62 3.62 -84.5 0 0 264.58 240.73
  C 271.55 244.63 280.05 239.37 284.60 248.94
  C 287.49 255.04 287.03 264.97 283.94 271.44
  Z"
/>
<rect fill="#000000" x="-4.87" y="-4.15" transform="translate(400.62,221.65) rotate(-0.4)" width="9.74" height="8.30" rx="0.60"/>
<path fill="#000000" d="
  M 299.49 275.92
  C 297.17 274.43 296.52 273.26 296.47 270.35
  Q 296.09 248.01 296.26 224.54
  A 1.33 1.24 0.9 0 1 297.62 223.31
  L 305.02 223.49
  A 0.75 0.70 0.8 0 1 305.75 224.19
  L 305.75 230.26
  A 0.99 0.99 0.0 0 0 306.74 231.25
  L 315.38 231.25
  A 0.87 0.87 0.0 0 1 316.25 232.12
  L 316.25 236.07
  A 1.12 1.07 -90.0 0 1 315.18 237.19
  L 306.61 237.13
  A 0.85 0.82 0.7 0 0 305.75 237.94
  Q 305.70 253.34 306.03 267.68
  Q 306.14 272.42 311.63 271.38
  Q 313.67 271.00 314.31 272.98
  Q 314.68 274.12 314.09 276.20
  A 0.80 0.80 -86.5 0 1 313.45 276.77
  Q 307.57 277.74 302.67 277.09
  Q 300.95 276.86 299.49 275.92
  Z"
/>
<path fill="#000000" d="
  M 378.31 231.00
  L 387.13 231.19
  A 0.90 0.81 -5.2 0 1 387.98 231.83
  Q 388.55 234.30 388.06 236.45
  A 0.76 0.74 1.6 0 1 387.44 237.02
  Q 383.66 237.58 379.24 236.97
  A 1.31 1.31 -86.0 0 0 377.75 238.27
  L 377.75 268.10
  Q 377.75 271.24 381.11 271.42
  L 385.06 271.64
  A 0.77 0.77 -8.0 0 1 385.74 272.15
  Q 386.47 274.24 385.75 276.34
  A 0.89 0.84 4.8 0 1 385.06 276.89
  C 378.94 277.80 368.62 278.88 368.46 270.12
  Q 368.04 246.98 368.31 224.07
  A 0.89 0.83 1.3 0 1 369.23 223.25
  L 376.92 223.50
  A 0.87 0.82 1.1 0 1 377.76 224.32
  L 377.80 230.45
  A 0.55 0.52 -89.5 0 0 378.31 231.00
  Z"
/>
<path fill="#000000" d="
  M 421.85 274.63
  C 413.55 268.21 414.03 251.15 416.69 241.48
  C 419.95 229.70 436.06 229.89 445.44 232.31
  C 459.09 235.84 456.85 260.48 453.44 269.44
  C 449.73 279.18 433.01 278.70 424.81 276.17
  Q 423.19 275.67 421.85 274.63
  Z
  M 428.41 267.79
  C 431.58 272.67 439.12 272.85 442.35 268.26
  C 445.51 263.76 444.77 256.24 444.75 250.25
  C 444.73 245.03 443.70 238.31 437.50 237.53
  Q 428.04 236.32 426.69 245.44
  C 425.96 250.33 425.13 262.75 428.41 267.79
  Z"
/>
<path fill="#000000" d="
  M 218.49 300.02
  L 211.63 299.98
  Q 215.43 288.25 220.30 277.44
  A 2.63 2.60 -43.3 0 0 220.37 275.46
  L 204.38 232.50
  A 0.75 0.74 -10.1 0 1 205.08 231.50
  L 214.02 231.50
  A 1.26 1.24 80.5 0 1 215.20 232.35
  L 225.81 263.41
  Q 226.27 264.76 226.77 263.43
  L 238.40 232.22
  A 1.19 1.09 -79.7 0 1 239.40 231.46
  L 246.56 231.24
  A 0.69 0.66 -79.7 0 1 247.18 232.18
  Q 233.31 266.93 218.49 300.02
  Z"
/>
<path fill="#000000" d="
  M 189.50 248.50
  C 189.50 234.32 179.08 237.96 169.82 238.18
  A 0.82 0.76 -12.2 0 1 169.08 237.74
  C 168.60 236.68 168.63 234.96 168.61 233.42
  C 168.58 230.98 170.97 231.77 172.43 231.71
  C 184.73 231.13 198.87 229.36 199.00 245.00
  Q 199.08 254.90 198.94 275.94
  A 0.57 0.56 -3.4 0 1 198.44 276.50
  Q 184.08 278.35 170.75 276.25
  C 162.68 274.98 161.22 264.44 163.19 258.19
  C 165.82 249.82 172.81 249.07 180.40 249.23
  C 181.70 249.25 183.93 248.55 183.89 250.72
  C 183.86 252.77 184.31 255.08 181.24 254.86
  Q 172.71 254.23 172.50 263.25
  C 172.31 271.50 179.22 272.01 185.38 271.39
  C 187.06 271.22 189.84 271.97 189.61 269.04
  C 189.11 262.34 189.50 255.24 189.50 248.50
  Z"
/>
<path fill="#000000" d="
  M 330.25 276.53
  C 322.86 275.64 320.33 269.55 320.69 262.69
  C 321.35 249.79 330.67 248.78 341.18 249.29
  A 0.70 0.69 -6.1 0 1 341.83 249.80
  Q 342.38 251.95 341.84 253.70
  A 1.23 1.23 -80.2 0 1 340.61 254.57
  Q 329.27 254.18 330.61 265.32
  C 331.49 272.63 341.63 272.08 346.82 270.93
  A 0.65 0.64 84.3 0 0 347.32 270.31
  Q 347.64 258.41 347.52 246.50
  C 347.37 231.04 327.31 241.75 326.90 236.72
  C 326.86 236.13 326.91 233.46 327.18 232.31
  A 0.69 0.68 5.6 0 1 327.82 231.79
  C 337.37 231.31 352.45 228.65 356.22 239.56
  Q 357.25 242.53 357.25 251.04
  Q 357.25 262.84 357.25 275.33
  A 1.26 1.25 87.2 0 1 356.12 276.58
  Q 342.36 278.00 330.25 276.53
  Z"
/>
<rect fill="#000000" x="396.24" y="231.57" width="9.52" height="45.72" rx="0.43"/>
<path fill="#000000" d="
  M 474.81 239.06
  L 474.75 276.60
  A 0.85 0.82 90.0 0 1 473.93 277.45
  L 465.89 277.50
  A 0.66 0.64 90.0 0 1 465.25 276.84
  L 465.25 232.16
  A 0.66 0.66 -0.2 0 1 465.91 231.50
  Q 477.00 231.50 487.75 231.59
  Q 502.03 231.72 501.89 246.00
  Q 501.75 261.00 501.75 276.62
  A 0.88 0.88 0.0 0 1 500.87 277.50
  L 493.15 277.50
  A 0.65 0.65 89.6 0 1 492.50 276.86
  Q 492.44 260.75 492.25 245.50
  C 492.13 236.13 481.37 237.19 475.30 238.46
  A 0.61 0.61 -5.8 0 0 474.81 239.06
  Z"
/>
</svg>
