<?xml version="1.0" encoding="UTF-8" standalone="no"?>
<!DOCTYPE svg PUBLIC "-//W3C//DTD SVG 1.1//EN" "http://www.w3.org/Graphics/SVG/1.1/DTD/svg11.dtd">
<svg xmlns="http://www.w3.org/2000/svg" version="1.1" viewBox="0 0 600 300">
<path fill="#000000" d="
  M 252.31 0.00
  L 254.81 0.00
  L 278.79 13.80
  A 0.91 0.87 15.3 0 1 279.25 14.57
  L 279.07 72.06
  A 0.68 0.66 -8.1 0 1 278.58 72.70
  Q 228.79 86.33 178.88 99.51
  C 166.77 102.71 160.17 103.70 155.23 114.14
  Q 153.75 117.28 153.75 118.98
  Q 153.75 122.88 157.51 121.87
  L 295.02 85.00
  Q 296.46 84.61 295.17 83.85
  C 281.69 75.99 280.38 58.48 289.96 46.95
  C 297.65 37.70 309.82 34.73 320.43 40.82
  Q 328.96 45.72 337.53 50.57
  C 347.50 56.21 352.32 58.25 355.18 68.40
  A 0.54 0.53 74.0 0 0 355.83 68.77
  L 365.25 66.17
  A 2.65 2.45 -36.1 0 1 367.21 66.40
  L 390.56 79.76
  A 1.15 0.69 38.3 0 0 391.49 79.88
  C 392.14 79.56 391.65 78.99 391.21 78.73
  Q 380.05 72.31 368.71 65.68
  A 1.94 1.93 15.1 0 1 367.75 64.01
  L 367.75 23.29
  Q 367.75 22.32 368.58 22.81
  Q 379.82 29.30 390.78 35.74
  Q 392.29 36.63 392.24 35.31
  A 0.97 0.80 16.7 0 0 391.75 34.57
  L 369.51 21.81
  Q 368.26 21.10 369.66 20.72
  L 414.77 8.63
  A 1.28 1.13 50.1 0 1 415.68 8.77
  L 440.31 22.77
  A 0.87 0.80 16.0 0 1 440.75 23.49
  L 440.75 45.36
  A 0.55 0.55 -7.3 0 0 441.44 45.89
  L 499.59 30.33
  A 2.30 2.19 51.4 0 1 501.27 30.56
  L 524.31 43.75
  A 1.47 0.63 -16.9 0 0 525.22 43.85
  Q 526.00 43.75 526.00 45.00
  Q 526.05 92.59 525.94 140.04
  A 1.26 1.25 -7.5 0 1 525.01 141.25
  L 481.16 153.06
  A 1.22 1.14 51.5 0 1 480.27 152.93
  L 456.06 138.91
  A 1.57 1.43 16.8 0 1 455.28 137.61
  L 455.44 122.33
  A 0.34 0.33 82.3 0 0 455.02 122.00
  Q 313.27 160.05 171.51 197.99
  Q 165.11 199.70 162.15 201.90
  C 155.86 206.56 152.57 214.79 154.42 222.34
  C 156.65 231.48 165.21 236.79 174.75 234.25
  Q 226.74 220.40 278.70 206.44
  A 0.39 0.38 -7.5 0 1 279.19 206.81
  L 279.25 264.97
  A 0.83 0.83 -7.8 0 1 278.64 265.77
  Q 221.75 281.01 164.56 296.31
  Q 154.42 299.03 149.69 300.00
  L 136.69 300.00
  C 132.36 299.22 128.35 297.43 124.06 296.97
  Q 109.21 295.38 96.81 288.44
  Q 75.29 276.38 75.27 251.25
  Q 75.25 230.38 75.36 209.50
  Q 75.47 187.56 94.34 175.31
  A 1.19 1.18 -46.7 0 1 95.58 175.27
  L 108.57 182.75
  A 1.20 0.81 42.2 0 0 109.48 182.88
  Q 110.20 182.61 109.10 181.96
  Q 98.98 175.98 88.77 170.18
  C 81.57 166.09 77.48 160.82 75.22 153.13
  Q 74.00 148.97 74.00 140.25
  Q 74.00 115.18 74.00 90.12
  Q 74.00 82.47 75.16 77.49
  C 79.89 57.19 94.92 42.27 115.08 36.88
  Q 183.72 18.54 252.31 0.00
  Z
  M 440.08 68.05
  A 0.66 0.65 82.3 0 1 439.25 67.41
  L 439.19 25.13
  A 0.90 0.89 -7.5 0 0 438.06 24.27
  L 393.79 36.19
  A 0.64 0.63 83.1 0 0 393.31 36.81
  L 393.25 79.63
  A 1.51 1.51 82.5 0 1 392.13 81.09
  L 349.01 92.58
  Q 346.24 93.32 348.16 91.19
  C 354.39 84.30 356.31 74.39 352.84 65.83
  C 349.07 56.50 338.51 50.85 328.56 53.56
  C 308.55 59.02 301.10 88.95 322.48 98.37
  C 325.71 99.79 319.95 100.33 319.25 100.52
  Q 246.41 120.12 173.50 139.50
  C 159.71 143.17 149.25 128.63 152.98 116.14
  C 155.51 107.70 161.10 102.83 169.56 100.56
  Q 223.19 86.21 277.26 71.69
  A 1.06 1.05 -7.5 0 0 278.05 70.67
  L 278.19 16.05
  A 0.81 0.81 -7.5 0 0 277.17 15.27
  Q 214.37 32.19 151.47 48.99
  Q 135.88 53.15 132.32 54.69
  C 116.33 61.61 104.49 76.30 100.93 93.34
  Q 99.76 98.89 99.74 113.25
  Q 99.71 132.62 99.56 152.00
  C 99.47 164.04 101.93 174.32 111.51 182.35
  A 0.58 0.57 -46.9 0 1 111.53 183.21
  Q 99.79 194.30 99.70 211.00
  Q 99.59 230.56 99.86 250.11
  Q 100.02 261.56 101.61 267.22
  C 107.06 286.59 125.38 299.93 145.31 298.88
  Q 150.95 298.58 164.84 294.82
  Q 220.64 279.71 277.08 264.77
  A 1.32 1.32 -7.2 0 0 278.06 263.51
  L 278.25 209.22
  A 0.91 0.90 -7.4 0 0 277.11 208.35
  Q 229.04 221.26 180.59 234.20
  C 173.06 236.20 167.56 237.71 161.56 234.19
  C 147.64 226.01 150.85 205.92 164.08 199.12
  Q 166.43 197.91 177.61 194.91
  Q 328.54 154.38 479.81 113.92
  A 0.75 0.75 -7.5 0 1 480.75 114.64
  L 480.75 151.02
  A 0.50 0.49 82.4 0 0 481.37 151.50
  L 523.91 139.96
  A 0.81 0.80 82.5 0 0 524.50 139.18
  L 524.50 46.35
  A 0.72 0.71 -7.6 0 0 523.60 45.67
  L 440.08 68.05
  Z"
/>
<path fill="#000000" d="
  M 124.69 148.42
  C 128.29 162.52 140.51 172.32 155.64 170.79
  A 0.79 0.62 -19.2 0 1 156.27 171.01
  Q 156.50 171.28 156.31 171.42
  Q 155.60 171.93 154.76 172.17
  Q 134.85 177.91 127.11 194.83
  C 121.54 206.99 123.47 222.89 123.65 236.25
  C 123.91 255.27 139.18 270.49 158.50 268.91
  Q 161.59 268.66 176.52 264.67
  Q 224.90 251.75 273.36 238.72
  A 0.45 0.45 82.6 0 1 273.93 239.16
  L 273.77 260.43
  A 0.95 0.93 83.2 0 1 273.08 261.33
  Q 214.68 276.90 156.67 292.37
  C 134.43 298.31 112.08 286.86 104.92 264.82
  C 101.34 253.78 102.31 238.09 102.50 225.74
  Q 102.77 207.72 103.05 205.78
  Q 104.96 192.62 115.14 182.84
  A 0.44 0.44 43.4 0 0 115.12 182.18
  Q 102.50 171.33 102.50 153.50
  Q 102.50 131.97 102.50 110.45
  Q 102.50 99.59 103.85 93.67
  Q 109.62 68.39 134.31 56.81
  Q 137.32 55.40 152.71 51.34
  Q 212.60 35.51 273.03 19.28
  A 0.62 0.61 -7.5 0 1 273.81 19.87
  L 273.57 41.07
  A 0.66 0.64 -7.7 0 1 273.08 41.69
  Q 215.11 57.31 157.10 72.80
  C 140.95 77.11 129.46 84.31 124.78 101.31
  C 122.41 109.93 123.50 121.55 123.50 130.99
  Q 123.50 143.77 124.69 148.42
  Z"
/>
<path fill="#000000" d="
  M 395.92 126.92
  Q 396.01 126.18 395.51 126.74
  C 381.99 141.91 353.62 139.02 354.09 114.57
  C 354.48 94.14 377.20 78.26 395.53 89.84
  Q 396.00 90.14 396.00 89.58
  L 396.00 40.26
  Q 396.00 38.47 397.74 38.00
  L 432.25 28.75
  Q 434.74 28.08 434.75 30.50
  L 434.99 119.02
  Q 435.00 121.27 432.81 121.87
  Q 417.05 126.21 400.85 130.50
  C 397.85 131.29 395.52 130.50 395.92 126.92
  Z
  M 401.70 43.62
  L 401.50 98.75
  A 1.49 1.23 69.1 0 1 401.20 99.64
  C 399.07 102.21 397.21 100.80 395.69 98.53
  C 385.72 83.68 366.47 94.10 361.15 107.42
  C 355.94 120.47 365.57 134.16 380.00 130.00
  Q 390.64 126.93 395.89 116.48
  C 397.14 113.99 399.39 112.91 401.23 115.58
  A 1.83 1.02 -76.6 0 1 401.49 116.50
  L 401.77 123.94
  A 0.42 0.40 -9.2 0 0 402.30 124.30
  L 428.79 117.16
  A 0.96 0.95 -7.5 0 0 429.50 116.24
  L 429.44 36.07
  A 0.40 0.39 82.8 0 0 428.95 35.68
  L 402.38 42.75
  A 0.91 0.90 83.4 0 0 401.70 43.62
  Z"
/>
<path fill="#000000" d="
  M 150.72 131.63
  C 154.87 139.38 162.15 143.74 170.87 142.79
  Q 172.43 142.62 180.59 140.49
  Q 197.80 136.00 214.76 131.32
  A 0.78 0.78 82.1 0 1 215.75 132.07
  L 215.75 152.87
  A 0.90 0.90 82.4 0 1 215.09 153.74
  Q 195.37 159.02 175.86 164.24
  C 163.14 167.65 154.27 170.88 143.53 166.15
  C 130.80 160.54 127.08 148.80 127.09 135.50
  Q 127.11 123.12 127.43 110.75
  C 127.77 97.45 136.38 85.47 147.54 80.17
  Q 150.61 78.72 166.66 74.41
  Q 219.63 60.19 273.12 45.83
  A 0.56 0.56 83.0 0 1 273.82 46.38
  L 273.75 67.53
  A 0.83 0.82 82.8 0 1 273.14 68.33
  Q 225.10 81.16 177.63 93.93
  Q 164.52 97.46 162.85 98.24
  C 150.69 103.90 144.38 119.80 150.72 131.63
  Z"
/>
<path fill="#000000" d="
  M 483.03 107.36
  Q 475.24 113.01 467.15 114.71
  Q 464.75 115.21 462.30 114.98
  C 436.26 112.57 439.30 92.89 439.56 73.43
  Q 439.59 71.15 441.79 70.57
  Q 456.52 66.70 471.19 62.69
  C 474.06 61.90 475.26 63.96 475.24 66.55
  Q 475.16 75.81 475.45 85.07
  C 475.55 88.57 476.65 90.08 480.31 88.31
  C 484.03 86.53 483.50 85.05 483.50 80.94
  Q 483.50 73.24 483.50 65.54
  C 483.50 61.45 482.82 59.63 487.00 58.50
  Q 501.34 54.61 515.68 50.75
  C 518.81 49.91 520.75 50.27 520.75 54.00
  Q 520.75 94.63 520.75 135.52
  Q 520.75 137.83 518.52 138.45
  Q 504.00 142.48 488.70 146.40
  C 484.92 147.37 483.57 146.90 483.56 142.63
  Q 483.50 125.10 483.44 107.57
  Q 483.44 107.06 483.03 107.36
  Z
  M 488.60 87.87
  C 483.81 97.21 469.05 97.64 469.57 84.49
  Q 469.83 77.75 469.43 69.63
  A 0.41 0.41 81.1 0 0 468.91 69.25
  L 445.98 75.32
  A 0.99 0.98 -7.7 0 0 445.25 76.27
  Q 445.25 83.87 445.11 91.50
  C 444.91 102.63 452.51 109.44 463.12 109.27
  C 471.02 109.14 477.62 104.14 483.35 99.74
  C 486.23 97.52 489.25 97.31 489.25 102.00
  Q 489.25 120.62 489.25 139.89
  A 0.40 0.40 82.8 0 0 489.75 140.28
  L 514.30 133.71
  A 1.27 1.27 -7.4 0 0 515.25 132.48
  L 515.19 57.32
  A 0.39 0.39 82.6 0 0 514.70 56.94
  L 489.72 63.72
  A 0.64 0.64 82.3 0 0 489.25 64.34
  L 489.25 85.16
  Q 489.25 86.59 488.60 87.87
  Z"
/>
<path fill="#000000" d="
  M 320.9095 93.2737
  A 20.29 18.82 121.1 0 1 315.2751 66.1788
  A 20.29 18.82 121.1 0 1 341.8705 58.5263
  A 20.29 18.82 121.1 0 1 347.5049 85.6212
  A 20.29 18.82 121.1 0 1 320.9095 93.2737
  Z
  M 323.7885 88.3633
  A 14.59 13.13 121.4 0 0 342.5971 82.7509
  A 14.59 13.13 121.4 0 0 338.9915 63.4567
  A 14.59 13.13 121.4 0 0 320.1829 69.0691
  A 14.59 13.13 121.4 0 0 323.7885 88.3633
  Z"
/>
<path fill="#000000" d="
  M 313.43 106.68
  A 2.20 2.16 -7.7 0 1 315.05 104.59
  Q 330.73 100.31 345.44 96.44
  C 348.76 95.56 349.94 96.55 350.06 99.89
  Q 350.59 115.44 350.25 121.50
  Q 349.54 134.05 350.25 139.75
  C 350.71 143.44 349.32 144.33 345.95 145.23
  Q 334.22 148.35 322.55 151.66
  Q 319.20 152.61 316.33 152.94
  Q 313.24 153.28 313.25 150.20
  L 313.43 106.68
  Z
  M 318.68 146.41
  A 0.25 0.24 -7.5 0 0 318.99 146.64
  L 343.71 139.93
  A 1.06 1.05 -7.5 0 0 344.50 138.91
  L 344.50 103.17
  A 0.50 0.50 -7.9 0 0 343.86 102.69
  L 319.66 109.22
  A 1.24 1.23 -7.7 0 0 318.75 110.41
  L 318.68 146.41
  Z"
/>
<path fill="#000000" d="
  M 303.15 113.56
  C 296.20 121.14 289.13 128.46 281.78 135.99
  A 0.81 0.80 -51.6 0 0 281.92 137.23
  Q 291.99 143.68 301.70 149.73
  C 304.62 151.55 308.78 154.97 302.16 156.83
  Q 289.58 160.36 275.99 163.94
  A 3.21 3.07 52.7 0 1 273.53 163.55
  L 262.93 156.95
  A 0.92 0.92 -52.3 0 0 261.77 157.10
  C 258.39 160.65 250.36 170.66 246.10 171.88
  Q 238.43 174.08 230.70 176.07
  C 226.90 177.04 223.09 175.24 226.78 171.27
  Q 237.61 159.62 248.58 148.43
  A 0.47 0.46 -51.9 0 0 248.50 147.72
  Q 238.56 141.33 228.89 135.32
  C 223.48 131.96 222.69 129.22 229.86 127.35
  Q 242.15 124.13 253.84 120.93
  Q 255.58 120.45 257.21 121.49
  L 266.84 127.61
  A 1.46 1.40 -52.5 0 0 268.67 127.33
  C 272.40 123.16 279.60 114.05 284.38 112.75
  Q 291.98 110.70 299.58 108.69
  C 303.37 107.69 306.16 110.28 303.15 113.56
  Z
  M 254.80 126.87
  A 1.10 0.95 -33.2 0 0 253.98 126.76
  L 235.29 131.61
  Q 234.13 131.91 235.14 132.53
  Q 244.91 138.55 254.18 144.58
  Q 257.76 146.91 254.56 150.31
  Q 246.29 159.11 237.80 167.69
  A 0.67 0.41 -43.7 0 0 237.61 168.41
  C 237.77 168.61 243.30 166.73 243.80 166.61
  A 3.61 3.56 -74.2 0 0 245.54 165.62
  L 259.87 150.89
  Q 261.48 149.23 263.40 150.44
  L 274.90 157.66
  A 2.20 2.19 -36.3 0 0 276.64 157.92
  L 294.69 153.15
  Q 295.85 152.85 294.85 152.22
  Q 285.38 146.25 276.25 140.40
  C 272.63 138.08 273.36 136.64 275.93 133.91
  Q 283.75 125.60 291.65 117.36
  A 0.84 0.46 -43.8 0 0 291.92 116.52
  Q 291.64 116.12 290.45 117.04
  A 3.37 3.34 -65.5 0 1 288.65 117.72
  Q 284.99 117.98 282.85 120.35
  Q 276.80 127.05 270.58 133.54
  Q 268.62 135.60 266.20 134.07
  L 254.80 126.87
  Z"
/>
<path fill="#000000" d="
  M 149.25 212.25
  C 145.22 227.79 158.76 242.70 174.75 238.47
  Q 223.79 225.50 272.76 212.25
  A 0.94 0.92 82.8 0 1 273.92 213.17
  L 273.77 233.52
  A 1.32 1.29 83.1 0 1 272.81 234.78
  Q 223.59 247.91 175.08 260.94
  Q 162.57 264.31 157.71 264.29
  C 139.39 264.23 127.25 249.05 127.21 231.50
  C 127.19 224.32 127.44 217.16 127.42 209.99
  C 127.39 196.70 136.70 183.87 147.61 177.56
  Q 152.46 174.75 163.40 171.79
  Q 189.26 164.78 214.74 157.89
  A 0.79 0.77 -7.4 0 1 215.73 158.64
  L 215.58 179.57
  A 0.69 0.66 -7.7 0 1 215.08 180.20
  Q 180.40 189.88 169.50 192.50
  Q 153.37 196.37 149.25 212.25
  Z"
/>
</svg>
