<?xml version="1.0" encoding="UTF-8" standalone="no"?>
<!DOCTYPE svg PUBLIC "-//W3C//DTD SVG 1.1//EN" "http://www.w3.org/Graphics/SVG/1.1/DTD/svg11.dtd">
<svg xmlns="http://www.w3.org/2000/svg" version="1.1" viewBox="0 0 600 300">
<path fill="#000000" d="
  M 108.56 114.94
  C 111.49 115.54 118.20 119.47 119.67 122.15
  C 122.51 127.30 124.70 130.15 124.71 136.50
  Q 124.75 159.12 124.75 182.59
  A 1.53 1.46 0.4 0 1 123.20 184.05
  L 107.57 183.91
  A 1.31 0.80 -12.5 0 1 106.70 183.61
  Q 105.89 182.75 106.48 181.67
  Q 106.72 181.21 106.72 180.75
  L 106.67 165.14
  A 1.63 1.54 -87.3 0 0 105.28 163.53
  Q 100.36 163.02 95.74 163.75
  A 0.81 0.81 85.4 0 0 95.06 164.55
  L 95.19 182.99
  A 0.95 0.94 0.9 0 1 94.20 183.94
  Q 87.63 183.64 81.06 183.97
  C 76.70 184.19 77.50 183.51 77.50 180.08
  C 77.47 164.25 76.53 147.59 77.96 131.86
  Q 78.27 128.39 79.67 125.96
  C 85.66 115.57 97.24 112.62 108.56 114.94
  Z
  M 104.35 133.13
  Q 101.18 131.02 98.30 132.06
  Q 96.70 132.63 96.31 134.28
  Q 94.79 140.55 95.43 145.51
  Q 95.49 145.98 95.33 146.46
  Q 94.02 150.31 98.19 149.44
  Q 100.52 148.95 104.94 149.61
  A 1.09 0.93 24.6 0 0 105.81 149.36
  C 107.39 147.83 106.58 137.97 106.26 136.08
  Q 105.95 134.19 104.35 133.13
  Z"
/>
<path fill="#000000" d="
  M 197.52 117.31
  C 198.26 117.88 202.63 121.01 202.73 121.55
  Q 203.15 123.95 203.99 126.21
  Q 204.44 127.43 204.46 128.73
  Q 204.85 151.88 204.47 172.75
  Q 204.35 179.25 204.75 181.25
  Q 205.31 184.05 201.02 183.59
  Q 200.10 183.49 199.19 183.54
  Q 195.26 183.74 190.70 183.56
  C 188.68 183.47 186.25 185.06 186.25 181.25
  Q 186.26 161.00 186.25 140.75
  Q 186.25 136.81 185.00 133.65
  A 1.41 1.40 4.5 0 0 184.38 132.93
  Q 179.37 130.16 177.33 136.53
  Q 176.76 138.32 176.75 140.36
  L 176.54 182.80
  A 0.97 0.96 0.3 0 1 175.57 183.75
  L 159.34 183.75
  A 0.78 0.78 -89.3 0 1 158.56 182.95
  C 158.91 170.01 158.37 157.05 158.87 144.14
  C 159.04 139.74 159.17 130.36 152.50 132.00
  C 150.08 132.60 149.27 134.96 149.21 137.40
  Q 148.69 160.05 149.23 182.10
  A 1.67 1.63 -0.7 0 1 147.56 183.77
  L 132.63 183.78
  A 1.56 1.51 0.4 0 1 131.07 182.25
  Q 131.34 157.43 131.26 132.00
  C 131.23 122.60 138.17 115.33 147.40 114.52
  C 154.75 113.87 160.54 114.83 165.07 121.09
  Q 167.34 124.23 166.59 128.76
  A 0.76 0.65 -72.8 0 0 166.92 129.52
  Q 168.37 130.28 168.44 127.94
  C 168.58 122.99 170.42 120.41 174.25 117.47
  C 179.53 113.42 192.26 113.22 197.52 117.31
  Z"
/>
<path fill="#000000" d="
  M 423.50 128.25
  C 426.58 117.11 442.18 113.07 452.51 114.68
  A 1.10 1.10 5.3 0 1 453.44 115.80
  Q 453.21 122.31 453.63 128.80
  C 453.92 133.28 449.61 130.57 447.22 131.33
  Q 446.74 131.48 446.26 131.44
  C 441.95 131.02 441.89 134.84 439.59 137.38
  A 1.96 1.74 -21.0 0 0 439.15 138.23
  Q 435.87 153.89 435.75 157.25
  Q 435.42 166.27 430.84 173.89
  C 429.64 175.88 429.03 178.05 426.50 179.00
  C 423.99 179.95 421.82 181.36 419.64 181.95
  Q 412.20 183.97 405.49 183.63
  Q 403.65 183.53 403.57 181.70
  C 403.39 177.33 403.57 173.34 403.05 169.45
  C 402.64 166.34 408.04 167.83 410.22 167.29
  C 413.84 166.40 417.22 161.53 417.79 157.98
  C 418.86 151.25 419.83 144.37 421.61 137.79
  Q 422.30 135.22 422.56 132.56
  Q 422.70 131.15 423.50 128.25
  Z"
/>
<path fill="#000000" d="
  M 457.44 115.96
  A 0.96 0.96 -0.9 0 1 458.37 115.00
  Q 474.63 114.48 488.94 114.76
  Q 491.59 114.82 493.58 114.43
  A 1.53 1.52 -8.2 0 1 495.39 115.78
  C 495.65 118.47 496.36 128.76 495.06 130.10
  A 1.01 0.86 25.0 0 1 494.20 130.34
  C 492.12 129.95 490.44 130.10 487.74 129.98
  C 484.73 129.84 485.75 132.78 485.75 134.52
  Q 485.71 157.84 485.81 181.16
  C 485.82 182.82 486.26 184.87 483.63 184.23
  C 479.82 183.30 474.60 184.12 470.50 183.79
  Q 470.10 183.76 469.53 183.96
  C 468.09 184.46 467.43 183.70 467.44 182.29
  Q 467.54 157.26 467.50 131.68
  Q 467.50 129.23 465.12 129.85
  Q 463.59 130.24 461.74 129.86
  Q 461.25 129.76 460.77 129.87
  C 456.12 130.94 457.71 126.80 457.61 124.67
  Q 457.40 120.22 457.44 115.96
  Z"
/>
<path fill="#000000" d="
  M 46.81 157.49
  L 46.10 157.91
  A 1.74 1.72 -60.5 0 1 45.19 158.17
  L 30.35 158.20
  Q 27.67 158.21 28.02 155.63
  Q 28.73 150.38 27.93 144.47
  A 1.04 1.04 85.6 0 1 28.94 143.29
  Q 48.36 142.99 65.38 143.17
  C 67.91 143.20 69.84 141.73 70.19 145.94
  Q 71.01 155.90 67.06 163.56
  Q 66.26 165.13 66.06 166.00
  Q 65.92 166.65 65.75 166.93
  Q 61.93 173.39 55.97 177.75
  C 42.75 187.39 26.71 186.99 13.67 177.34
  C 12.27 176.30 11.77 175.09 10.35 174.01
  Q 7.27 171.68 5.69 168.06
  Q 5.12 166.76 4.25 165.25
  C -2.64 153.24 -0.25 137.49 8.44 127.19
  C 15.54 118.76 28.51 112.85 40.07 114.71
  C 47.98 115.98 55.87 120.66 61.53 126.40
  A 1.15 1.11 44.6 0 1 61.57 127.98
  L 50.40 139.70
  A 1.27 1.23 48.6 0 1 48.49 139.55
  Q 43.35 132.66 35.28 132.72
  C 26.98 132.78 18.66 140.69 18.35 148.96
  C 17.85 162.46 34.71 172.93 45.39 162.85
  Q 45.73 162.53 46.24 162.39
  C 48.19 161.87 50.05 158.62 47.71 157.44
  A 0.96 0.87 -45.5 0 0 46.81 157.49
  Z"
/>
<path fill="#000000" d="
  M 229.78 142.75
  A 0.91 0.89 -6.6 0 0 230.74 143.50
  Q 235.45 143.15 240.16 143.03
  C 241.72 142.99 244.30 143.44 246.51 142.88
  A 1.79 1.16 -31.2 0 1 247.47 142.91
  C 249.90 143.92 248.49 146.05 248.57 147.75
  C 248.66 149.78 250.00 157.91 246.44 157.19
  C 241.92 156.29 236.23 156.93 231.56 156.99
  C 229.85 157.01 228.81 157.77 229.33 159.54
  Q 229.48 160.06 229.43 160.50
  Q 228.97 164.47 231.43 167.28
  A 3.09 2.88 -19.3 0 0 233.73 168.29
  L 247.37 168.28
  Q 249.30 168.28 249.08 170.24
  Q 248.38 176.62 249.04 182.65
  A 1.15 1.15 -2.8 0 1 247.88 183.93
  Q 238.86 183.81 229.64 183.92
  Q 222.67 184.00 219.55 182.68
  Q 214.51 180.55 212.16 175.53
  Q 210.77 172.55 210.69 166.73
  Q 210.42 144.12 210.20 121.50
  Q 210.17 119.35 209.75 117.25
  Q 209.30 115.02 211.25 115.00
  C 223.04 114.86 235.34 115.46 246.97 114.61
  A 1.59 1.49 87.8 0 1 248.56 116.18
  L 248.74 128.77
  Q 248.77 130.73 246.85 130.72
  L 230.19 130.67
  A 0.60 0.57 -86.0 0 0 229.62 131.19
  Q 228.87 137.08 229.78 142.75
  Z"
/>
<path fill="#000000" d="
  M 297.65 133.54
  C 293.15 129.19 289.81 133.91 289.65 138.33
  C 289.07 154.50 289.51 167.72 288.93 183.11
  A 0.95 0.91 1.2 0 1 287.97 183.99
  L 273.29 183.92
  Q 270.44 183.90 270.73 181.20
  C 271.24 176.31 270.82 171.40 271.00 166.61
  C 271.30 158.21 271.16 149.51 270.97 137.70
  C 270.87 131.24 272.10 127.58 274.69 121.90
  C 275.44 120.28 277.29 119.50 278.34 118.71
  Q 283.65 114.71 291.25 114.75
  C 297.79 114.78 307.18 119.05 306.79 126.90
  A 2.74 2.70 -66.5 0 0 307.59 128.97
  C 308.39 129.76 308.92 129.10 309.11 128.29
  C 310.49 122.28 310.73 120.52 316.22 117.19
  C 327.65 110.26 345.20 117.18 345.18 131.47
  Q 345.16 157.43 345.43 182.98
  A 0.95 0.94 -89.1 0 1 344.45 183.94
  Q 337.20 183.64 329.96 183.74
  C 326.15 183.79 327.42 183.91 327.16 180.93
  C 326.82 176.98 327.56 172.65 327.10 168.23
  C 326.23 159.77 327.11 150.44 327.01 141.86
  C 326.98 138.90 327.42 137.01 325.56 134.44
  C 322.20 129.80 317.35 134.06 317.29 138.59
  Q 317.05 157.05 316.63 175.50
  Q 316.54 179.25 317.03 182.02
  Q 317.37 183.99 315.33 183.99
  L 299.32 183.94
  A 0.51 0.49 0.0 0 1 298.81 183.45
  L 298.75 136.16
  A 3.68 3.63 -68.2 0 0 297.65 133.54
  Z"
/>
<path fill="#000000" d="
  M 521.38 167.81
  C 523.36 168.98 534.36 168.25 537.33 168.25
  A 1.26 1.26 -87.1 0 1 538.58 169.64
  Q 537.96 176.01 538.84 182.15
  A 1.63 1.63 -4.0 0 1 537.22 184.01
  Q 527.70 183.93 518.82 183.97
  C 512.40 184.01 507.58 183.39 503.80 178.63
  C 500.43 174.39 500.83 169.65 500.81 164.19
  Q 500.75 140.72 500.23 116.49
  Q 500.18 113.80 502.73 114.66
  C 504.81 115.36 507.57 114.75 509.08 114.74
  Q 521.15 114.67 533.22 114.74
  C 535.08 114.75 538.28 113.81 537.66 117.11
  C 537.04 120.44 537.77 123.82 537.54 127.24
  A 1.69 1.53 34.6 0 0 537.76 128.18
  C 539.42 131.23 536.35 130.57 534.73 130.55
  Q 528.06 130.46 520.33 130.51
  A 1.43 1.43 -4.1 0 0 518.92 132.13
  Q 519.59 137.07 518.87 141.37
  Q 518.46 143.78 520.90 143.56
  Q 529.12 142.79 536.82 143.16
  A 1.13 0.93 -12.8 0 1 537.63 143.57
  Q 538.36 144.62 537.75 145.83
  A 1.48 1.29 -41.0 0 0 537.62 146.75
  C 538.20 149.44 537.83 151.73 538.14 154.73
  Q 538.43 157.51 535.49 157.10
  C 530.68 156.42 525.30 157.10 520.62 156.86
  A 1.74 1.56 89.8 0 0 518.99 158.69
  L 519.22 163.76
  Q 519.35 166.62 521.38 167.81
  Z"
/>
<path fill="#000000" d="
  M 592.67 179.71
  C 589.79 181.38 587.75 183.96 584.92 185.74
  A 0.80 0.79 44.5 0 1 584.07 185.74
  C 580.70 183.63 578.28 179.68 576.39 177.67
  C 573.17 174.25 566.23 167.74 565.37 163.19
  Q 564.20 157.01 563.55 150.74
  A 1.61 1.23 -76.3 0 0 563.17 149.87
  C 561.54 148.17 561.76 154.22 561.80 155.01
  Q 562.43 168.17 562.23 182.62
  A 1.59 1.59 2.1 0 1 560.54 184.19
  Q 554.22 183.82 547.02 183.98
  C 542.25 184.09 543.97 183.62 543.92 180.08
  Q 543.64 161.42 543.71 142.75
  C 543.74 133.86 546.52 124.69 553.87 119.37
  C 560.80 114.36 567.44 114.13 576.71 114.60
  C 584.85 115.02 594.42 120.45 597.60 128.17
  Q 602.10 139.13 597.74 149.89
  C 596.71 152.46 596.67 154.74 593.72 156.25
  Q 591.25 157.51 589.71 159.77
  A 1.30 0.74 -66.5 0 1 588.96 160.33
  L 587.06 160.58
  A 1.44 0.36 -2.8 0 0 586.16 160.85
  C 584.54 162.15 586.27 163.13 587.15 164.05
  Q 591.55 168.65 596.76 174.19
  A 1.78 1.78 -44.2 0 1 596.72 176.66
  Q 595.05 178.33 592.67 179.71
  Z
  M 566.28 132.33
  C 553.97 145.11 573.79 155.35 579.24 145.66
  Q 580.45 143.52 580.95 141.49
  C 581.71 138.39 579.71 136.64 579.04 133.80
  A 1.38 1.19 -82.4 0 0 578.53 133.02
  Q 573.10 129.22 567.36 131.59
  Q 566.74 131.84 566.28 132.33
  Z"
/>
<path fill="#000000" d="
  M 354.50 124.36
  C 356.33 121.68 359.17 119.32 362.31 117.81
  C 363.70 117.15 364.17 116.23 365.78 115.78
  Q 379.85 111.91 391.29 120.07
  C 394.89 122.63 398.02 131.21 398.08 135.48
  Q 398.46 159.33 398.44 183.20
  A 0.78 0.74 -0.4 0 1 397.67 183.94
  L 381.68 183.99
  A 1.01 0.95 -0.3 0 1 380.67 183.05
  L 380.43 164.75
  A 1.01 0.98 89.7 0 0 379.45 163.75
  L 369.84 163.75
  A 1.12 1.09 90.0 0 0 368.75 164.87
  L 368.79 182.87
  A 1.12 1.06 -0.3 0 1 367.67 183.94
  L 352.05 183.94
  A 1.24 1.20 1.1 0 1 350.81 182.69
  C 351.31 170.39 350.96 157.95 350.85 145.63
  Q 350.80 139.60 352.19 130.69
  Q 352.78 126.88 354.50 124.36
  Z
  M 369.76 134.51
  Q 368.88 136.19 368.87 137.60
  L 368.80 147.96
  A 1.88 1.66 -0.0 0 0 370.70 149.64
  L 379.33 149.55
  A 0.94 0.88 1.6 0 0 380.25 148.73
  C 380.59 144.52 381.91 132.91 375.40 131.96
  C 371.91 131.46 371.36 131.39 369.76 134.51
  Z"
/>
</svg>
