<?xml version="1.0" encoding="UTF-8" standalone="no"?>
<!DOCTYPE svg PUBLIC "-//W3C//DTD SVG 1.1//EN" "http://www.w3.org/Graphics/SVG/1.1/DTD/svg11.dtd">
<svg xmlns="http://www.w3.org/2000/svg" version="1.1" viewBox="0 0 600 300">
<g stroke-width="2.00" fill="none" stroke-linecap="butt">
<path stroke="#5c5031" vector-effect="non-scaling-stroke" d="
  M 600.00 51.06
  Q 599.75 50.98 599.71 51.25"
/>
<path stroke="#5d5938" vector-effect="non-scaling-stroke" d="
  M 599.71 51.25
  L 3.00 51.29"
/>
<path stroke="#5c5031" vector-effect="non-scaling-stroke" d="
  M 3.00 51.29
  Q 1.38 50.91 0.00 51.69"
/>
<path stroke="#03849a" vector-effect="non-scaling-stroke" d="
  M 600.00 58.52
  L 0.00 58.53"
/>
<path stroke="#01a963" vector-effect="non-scaling-stroke" d="
  M 3.00 51.29
  Q 1.17 51.59 2.10 52.44
  A 1.43 1.10 -18.3 0 0 2.99 52.75
  C 149.60 53.22 296.21 52.47 442.81 52.91
  C 485.10 53.03 527.38 52.62 569.67 52.94
  C 579.22 53.02 588.54 52.78 597.97 52.57
  C 598.92 52.55 600.10 53.17 599.71 51.25"
/>
<path stroke="#027a3d" stroke-opacity="0.925" vector-effect="non-scaling-stroke" d="
  M 513.75 171.46
  Q 509.49 171.87 503.99 171.05"
/>
<path stroke="#055b7f" stroke-opacity="0.925" vector-effect="non-scaling-stroke" d="
  M 369.25 171.46
  L 362.75 171.46"
/>
<path stroke="#5c5031" vector-effect="non-scaling-stroke" d="
  M 600.00 240.06
  Q 599.60 240.09 599.46 240.50"
/>
<path stroke="#5e5a39" vector-effect="non-scaling-stroke" d="
  M 599.46 240.50
  L 2.00 240.54"
/>
<path stroke="#5c5031" vector-effect="non-scaling-stroke" d="
  M 2.00 240.54
  Q 0.74 240.82 0.00 239.94"
/>
<path stroke="#02aa64" vector-effect="non-scaling-stroke" d="
  M 2.00 240.54
  Q 1.35 241.94 2.81 241.94
  Q 300.87 241.96 598.93 241.94
  A 0.57 0.47 -1.4 0 0 599.50 241.44
  L 599.46 240.50"
/>
<path stroke="#03849a" vector-effect="non-scaling-stroke" d="
  M 600.00 247.81
  C 590.21 247.33 577.55 247.75 570.66 247.72
  C 385.03 246.95 199.38 247.50 13.75 247.50
  Q 4.51 247.50 0.00 247.94"
/>
</g>
<path fill="#b70006" d="
  M 600.00 44.06
  L 600.00 51.06
  Q 599.75 50.98 599.71 51.25
  L 3.00 51.29
  Q 1.38 50.91 0.00 51.69
  L 0.00 44.19
  Q 22.78 44.01 84.25 44.00
  Q 342.13 43.96 600.00 44.06
  Z"
/>
<path fill="#00a05c" d="
  M 600.00 51.06
  L 600.00 58.52
  L 0.00 58.53
  L 0.00 51.69
  Q 1.38 50.91 3.00 51.29
  Q 1.17 51.59 2.10 52.44
  A 1.43 1.10 -18.3 0 0 2.99 52.75
  C 149.60 53.22 296.21 52.47 442.81 52.91
  C 485.10 53.03 527.38 52.62 569.67 52.94
  C 579.22 53.02 588.54 52.78 597.97 52.57
  C 598.92 52.55 600.10 53.17 599.71 51.25
  Q 599.75 50.98 600.00 51.06
  Z"
/>
<path fill="#02b169" d="
  M 3.00 51.29
  L 599.71 51.25
  C 600.10 53.17 598.92 52.55 597.97 52.57
  C 588.54 52.78 579.22 53.02 569.67 52.94
  C 527.38 52.62 485.10 53.03 442.81 52.91
  C 296.21 52.47 149.60 53.22 2.99 52.75
  A 1.43 1.10 -18.3 0 1 2.10 52.44
  Q 1.17 51.59 3.00 51.29
  Z"
/>
<path fill="#0567d7" d="
  M 600.00 58.52
  L 600.00 65.81
  L 0.00 65.82
  L 0.00 58.53
  L 600.00 58.52
  Z"
/>
<path fill="#000000" d="
  M 163.06 69.38
  C 168.96 67.20 167.50 77.07 167.50 79.67
  A 1.76 1.76 0.6 0 1 165.70 81.43
  Q 152.35 81.13 138.50 81.25
  C 135.45 81.28 135.54 82.42 134.35 84.54
  Q 118.78 112.26 103.97 140.39
  Q 100.59 146.80 96.56 152.81
  Q 94.76 155.50 98.00 155.25
  Q 106.61 154.59 115.25 154.66
  Q 140.72 154.89 166.20 154.56
  A 1.24 1.24 88.8 0 1 167.45 155.76
  C 167.52 158.22 167.45 160.79 167.56 163.39
  C 167.70 166.58 165.36 165.76 163.40 165.74
  Q 130.20 165.32 97.00 165.47
  Q 90.85 165.49 89.00 166.00
  C 86.81 166.60 86.93 165.89 85.27 165.38
  C 83.57 164.86 85.22 164.20 85.57 163.71
  Q 88.07 160.16 91.81 153.06
  Q 107.92 122.56 135.60 73.20
  C 138.65 67.78 138.76 70.19 143.39 70.40
  C 149.23 70.67 157.56 71.41 163.06 69.38
  Z"
/>
<path fill="#000000" d="
  M 120.30 133.43
  A 0.61 0.60 -17.1 0 0 120.80 133.69
  L 165.96 133.32
  A 1.53 1.52 89.6 0 1 167.50 134.85
  L 167.50 142.80
  Q 167.50 144.82 165.48 144.77
  Q 138.00 144.14 109.73 144.52
  Q 106.79 144.56 108.21 141.98
  L 135.36 92.64
  A 2.84 2.74 13.8 0 1 137.80 91.22
  L 165.68 90.93
  A 1.77 1.68 -0.3 0 1 167.46 92.60
  L 167.50 100.68
  A 1.52 1.50 0.4 0 1 165.96 102.18
  L 138.66 101.82
  Q 136.82 101.80 135.82 103.55
  L 132.43 109.45
  Q 130.66 112.53 134.15 112.47
  L 165.97 111.93
  A 1.52 1.50 89.6 0 1 167.49 113.45
  L 167.47 120.98
  Q 167.46 123.66 164.76 123.25
  Q 161.89 122.82 159.00 122.81
  Q 143.00 122.75 127.13 122.75
  Q 125.43 122.75 124.60 124.24
  C 123.77 125.74 119.44 132.11 120.30 133.43
  Z"
/>
<path fill="#000000" d="
  M 289.66 126.91
  A 0.45 0.45 -75.7 0 0 289.27 126.25
  L 280.79 126.25
  A 1.29 1.29 1.2 0 1 279.50 124.96
  L 279.50 115.99
  A 0.99 0.96 -89.7 0 1 280.47 115.00
  L 300.81 115.03
  A 1.77 1.72 87.7 0 1 302.53 116.66
  C 305.60 154.94 251.63 160.98 245.00 125.50
  C 239.27 94.88 280.02 79.38 297.57 105.45
  Q 299.06 107.67 296.92 109.26
  C 294.81 110.82 290.01 114.86 287.69 112.06
  C 282.62 105.96 276.18 102.12 268.20 104.86
  C 258.79 108.09 252.88 119.20 258.45 128.55
  C 266.42 141.93 282.71 139.68 289.66 126.91
  Z"
/>
<path fill="#000000" d="
  M 209.82 115.18
  L 229.94 115.54
  A 0.65 0.63 84.2 0 1 230.55 116.05
  Q 231.56 120.60 230.76 125.21
  A 1.27 1.26 -84.8 0 1 229.52 126.25
  L 209.91 126.25
  A 0.66 0.66 0.0 0 0 209.25 126.91
  L 209.25 135.88
  A 0.87 0.87 0.0 0 0 210.12 136.75
  L 236.66 136.75
  A 1.59 1.56 0.2 0 1 238.25 138.32
  L 238.21 145.89
  A 1.83 1.80 0.2 0 1 236.38 147.68
  L 198.76 147.75
  Q 196.58 147.75 196.56 145.54
  L 196.33 96.84
  Q 196.31 94.50 198.64 94.50
  L 236.58 94.50
  A 1.67 1.67 -88.5 0 1 238.25 96.17
  L 238.25 103.75
  A 1.75 1.75 0.0 0 1 236.50 105.50
  L 209.78 105.43
  A 0.53 0.52 0.0 0 0 209.25 105.95
  L 209.30 114.68
  A 0.53 0.50 0.6 0 0 209.82 115.18
  Z"
/>
<path fill="#000000" d="
  M 326.14 136.90
  L 347.11 136.77
  A 1.66 1.62 89.7 0 1 348.75 138.43
  L 348.75 145.98
  A 1.71 1.71 -0.2 0 1 347.05 147.69
  L 313.04 147.75
  A 1.79 1.79 -0.3 0 1 311.25 145.96
  C 311.25 133.72 310.97 129.74 322.06 122.76
  Q 327.11 119.57 332.10 116.30
  C 343.24 108.99 328.28 99.73 324.03 110.40
  Q 323.36 112.08 321.57 111.80
  C 318.99 111.39 316.56 110.81 314.06 110.42
  C 310.49 109.85 311.63 106.50 312.81 104.31
  Q 318.94 93.00 333.06 94.69
  C 351.76 96.92 354.58 117.42 338.67 126.15
  Q 331.67 129.98 325.42 134.95
  Q 322.94 136.93 326.14 136.90
  Z"
/>
<path fill="#000000" d="
  M 358.48 110.25
  C 358.47 102.39 366.17 96.45 373.24 94.95
  Q 384.97 92.47 393.94 99.56
  C 399.84 104.24 399.50 109.07 399.50 117.19
  Q 399.50 124.64 399.50 132.55
  Q 399.50 134.46 398.71 136.20
  C 394.28 145.85 383.79 149.09 373.65 147.27
  C 366.71 146.02 358.46 140.17 358.47 132.25
  Q 358.50 121.25 358.48 110.25
  Z
  M 387.2433 113.4544
  A 7.83 7.83 0.0 0 0 379.4269 105.6108
  L 378.5869 105.6093
  A 7.83 7.83 0.0 0 0 370.7433 113.4256
  L 370.7167 128.6456
  A 7.83 7.83 0.0 0 0 378.5331 136.4892
  L 379.3731 136.4907
  A 7.83 7.83 0.0 0 0 387.2167 128.6744
  L 387.2433 113.4544
  Z"
/>
<path fill="#000000" d="
  M 410.22 110.25
  C 410.20 102.67 417.53 96.68 424.25 95.09
  C 435.23 92.50 451.77 97.66 451.47 111.75
  Q 451.25 121.75 451.24 131.75
  C 451.22 144.63 435.36 149.14 425.29 147.24
  C 418.41 145.95 410.20 140.16 410.22 132.25
  Q 410.25 121.25 410.22 110.25
  Z
  M 423.72 109.18
  Q 422.50 110.54 422.50 112.37
  Q 422.50 118.19 422.50 124.59
  C 422.50 130.06 421.82 132.84 426.44 135.31
  Q 430.81 137.65 434.66 135.51
  C 436.71 134.37 438.75 132.68 438.75 130.25
  C 438.75 124.65 438.55 118.93 438.84 113.34
  Q 439.05 109.44 435.67 107.33
  Q 429.07 103.21 423.72 109.18
  Z"
/>
<path fill="#000000" d="
  M 462.40 111.30
  C 462.07 103.46 468.99 97.17 475.90 95.29
  C 487.02 92.27 504.06 97.50 503.73 111.76
  Q 503.50 121.62 503.52 131.50
  C 503.57 152.79 463.13 152.65 462.71 132.75
  C 462.56 125.61 462.71 118.41 462.40 111.30
  Z
  M 491.2533 113.4544
  A 7.83 7.83 0.0 0 0 483.4369 105.6108
  L 482.5969 105.6093
  A 7.83 7.83 0.0 0 0 474.7533 113.4256
  L 474.7267 128.6456
  A 7.83 7.83 0.0 0 0 482.5431 136.4892
  L 483.3831 136.4907
  A 7.83 7.83 0.0 0 0 491.2267 128.6744
  L 491.2533 113.4544
  Z"
/>
<path fill="#044d18" fill-opacity="0.851" d="
  M 513.75 171.46
  Q 509.49 171.87 503.99 171.05
  L 512.68 170.57
  A 1.06 0.73 -13.6 0 1 513.55 170.90
  Q 513.72 171.14 513.75 171.46
  Z"
/>
<path fill="#044d18" fill-opacity="0.851" d="
  M 369.25 171.46
  L 362.75 171.46
  Q 366.01 169.79 369.25 171.46
  Z"
/>
<path fill="#00a05c" d="
  M 503.99 171.05
  Q 509.49 171.87 513.75 171.46
  C 514.99 172.27 514.50 179.51 514.50 181.49
  A 1.26 1.26 0.0 0 1 513.24 182.75
  L 504.35 182.75
  A 1.06 1.05 -3.4 0 1 503.30 181.82
  Q 502.67 176.37 503.99 171.05
  Z"
/>
<path fill="#0567d7" d="
  M 362.75 171.46
  L 369.25 171.46
  Q 381.67 172.99 389.69 183.56
  C 393.12 188.09 387.04 190.07 384.15 191.88
  Q 382.32 193.01 380.87 191.43
  C 377.15 187.37 373.76 184.14 368.13 183.30
  C 356.87 181.62 346.26 193.14 349.76 204.27
  C 354.74 220.10 374.57 220.50 382.17 206.47
  A 0.90 0.87 13.5 0 0 381.35 205.19
  L 373.41 205.27
  A 1.22 1.15 89.8 0 1 372.25 204.05
  L 372.25 195.55
  A 1.55 1.55 0.0 0 1 373.80 194.00
  L 393.78 194.00
  A 1.28 1.27 86.4 0 1 395.04 195.12
  C 400.30 236.79 337.03 239.47 337.48 198.62
  C 337.64 184.56 348.82 172.87 362.75 171.46
  Z"
/>
<rect fill="#d1c544" x="149.01" y="171.78" width="11.24" height="55.48" rx="1.46"/>
<path fill="#0567d7" d="
  M 86.40 212.11
  Q 88.75 214.00 86.95 216.42
  C 69.59 239.76 31.88 227.33 34.45 197.25
  Q 35.28 187.51 42.01 180.51
  C 54.00 168.06 73.24 169.43 84.79 181.71
  Q 86.72 183.76 87.59 186.29
  Q 88.26 188.22 86.45 189.18
  C 84.47 190.23 81.73 192.55 79.90 192.73
  C 77.75 192.93 77.02 191.22 75.76 189.78
  C 66.49 179.18 50.51 183.18 46.61 196.33
  C 44.05 204.95 49.71 213.44 57.74 216.27
  C 65.28 218.94 72.39 215.68 77.03 209.61
  C 79.56 206.29 84.13 210.27 86.40 212.11
  Z"
/>
<path fill="#00a05c" d="
  M 174.04 194.01
  C 187.77 174.05 220.30 186.50 214.37 211.74
  C 210.95 226.32 194.46 231.39 182.06 225.48
  C 170.89 220.15 166.71 204.67 174.04 194.01
  Z
  M 199.4703 198.6385
  A 9.41 9.41 0.0 0 0 186.1642 198.4294
  L 185.0296 199.5290
  A 9.41 9.41 0.0 0 0 184.8205 212.8351
  L 185.9897 214.0415
  A 9.41 9.41 0.0 0 0 199.2958 214.2506
  L 200.4304 213.1510
  A 9.41 9.41 0.0 0 0 200.6395 199.8449
  L 199.4703 198.6385
  Z"
/>
<path fill="#0567d7" d="
  M 235.93 212.70
  C 239.21 218.17 246.23 217.82 249.01 212.30
  C 251.60 207.15 250.33 191.86 250.24 185.47
  A 0.98 0.98 -4.0 0 1 251.10 184.49
  Q 255.87 183.89 260.17 184.43
  A 1.45 1.44 3.4 0 1 261.44 185.85
  L 261.50 225.38
  Q 261.50 227.26 259.65 227.25
  L 251.81 227.20
  Q 251.52 227.20 250.90 226.91
  Q 250.10 226.54 248.75 227.00
  C 237.72 230.76 225.29 223.85 223.47 212.09
  C 222.34 204.79 223.25 194.08 223.25 185.96
  A 1.70 1.67 -89.8 0 1 224.93 184.26
  L 233.27 184.31
  A 1.27 1.24 -89.5 0 1 234.51 185.60
  C 234.42 191.74 233.13 208.04 235.93 212.70
  Z"
/>
<path fill="#b70006" d="
  M 284.03 185.49
  Q 288.08 183.81 292.40 184.48
  A 1.01 1.01 4.7 0 1 293.25 185.48
  L 293.25 193.45
  A 1.87 1.86 85.3 0 1 291.70 195.29
  C 285.61 196.34 283.33 198.67 283.14 205.01
  Q 282.85 214.63 283.02 224.99
  A 1.72 1.70 89.7 0 1 281.31 226.74
  L 272.82 226.69
  A 1.10 1.08 -89.7 0 1 271.75 225.59
  L 271.75 185.50
  A 1.00 0.98 -89.7 0 1 272.74 184.50
  L 281.94 184.55
  A 1.25 0.51 52.4 0 1 282.70 184.99
  L 283.14 185.43
  A 0.94 0.60 -29.0 0 0 284.03 185.49
  Z"
/>
<path fill="#b70006" d="
  M 420.00 216.41
  C 425.18 218.10 430.70 213.50 432.84 209.26
  A 1.81 1.30 -83.3 0 1 433.49 208.55
  Q 435.76 207.30 437.22 209.54
  C 439.57 213.15 443.62 216.38 439.66 220.63
  Q 431.77 229.09 420.00 227.75
  C 393.67 224.76 394.25 186.98 419.75 184.45
  Q 435.46 182.89 442.75 196.00
  C 444.66 199.44 442.50 200.63 440.07 202.19
  Q 430.11 208.55 419.84 215.16
  Q 418.60 215.96 420.00 216.41
  Z
  M 426.45 196.73
  C 419.16 194.16 413.82 199.03 411.86 205.75
  Q 411.53 206.90 412.54 206.25
  L 426.50 197.30
  Q 427.06 196.94 426.45 196.73
  Z"
/>
<rect fill="#00a05c" x="503.26" y="184.30" width="11.24" height="42.44" rx="1.40"/>
<path fill="#b70006" d="
  M 542.48 216.32
  Q 550.90 217.94 555.01 209.74
  Q 557.07 205.60 559.47 209.23
  L 563.79 215.79
  Q 564.89 217.45 563.45 219.17
  C 550.79 234.32 524.71 229.22 523.20 207.99
  C 522.17 193.42 532.65 183.61 546.92 184.41
  Q 559.04 185.08 566.05 197.22
  Q 567.22 199.24 565.26 200.49
  L 542.27 215.20
  Q 540.98 216.03 542.48 216.32
  Z
  M 548.74 196.43
  C 541.70 194.36 535.87 199.26 534.57 206.07
  Q 534.43 206.79 535.05 206.38
  L 548.86 197.38
  Q 549.83 196.75 548.74 196.43
  Z"
/>
<path fill="#b70006" d="
  M 113.16 184.51
  C 146.98 180.73 147.77 229.75 114.99 227.97
  C 88.71 226.55 87.70 187.36 113.16 184.51
  Z
  M 124.6993 213.0243
  A 9.42 9.42 0.0 0 0 124.6760 199.7025
  L 123.5002 198.5307
  A 9.42 9.42 0.0 0 0 110.1783 198.5540
  L 109.0207 199.7157
  A 9.42 9.42 0.0 0 0 109.0440 213.0375
  L 110.2198 214.2093
  A 9.42 9.42 0.0 0 0 123.5417 214.1860
  L 124.6993 213.0243
  Z"
/>
<path fill="#d1c544" d="
  M 453.43 186.64
  A 1.13 1.11 -1.4 0 1 454.51 185.53
  C 459.02 185.33 463.52 186.24 467.81 185.33
  C 477.71 183.21 490.56 189.17 491.10 200.76
  Q 491.64 212.37 491.48 225.56
  A 1.67 1.64 -89.8 0 1 489.85 227.21
  L 482.08 227.25
  Q 479.89 227.26 480.03 225.04
  Q 480.49 217.42 480.16 209.49
  Q 479.91 203.26 479.86 203.03
  C 477.79 193.22 465.01 195.03 464.66 205.75
  Q 464.35 215.18 464.53 225.89
  A 1.30 1.26 89.6 0 1 463.27 227.21
  L 454.88 227.21
  A 1.64 1.60 -90.0 0 1 453.27 225.56
  L 453.43 186.64
  Z"
/>
<path fill="#b70006" d="
  M 600.00 233.28
  L 600.00 240.06
  Q 599.60 240.09 599.46 240.50
  L 2.00 240.54
  Q 0.74 240.82 0.00 239.94
  L 0.00 233.19
  C 14.62 232.79 30.10 233.20 43.81 233.05
  C 88.51 232.58 132.92 233.40 177.44 233.12
  C 234.78 232.76 291.17 233.49 349.51 233.16
  C 446.53 232.62 540.33 232.97 600.00 233.28
  Z"
/>
<path fill="#00a05c" d="
  M 0.00 239.94
  Q 0.74 240.82 2.00 240.54
  Q 1.35 241.94 2.81 241.94
  Q 300.87 241.96 598.93 241.94
  A 0.57 0.47 -1.4 0 0 599.50 241.44
  L 599.46 240.50
  Q 599.60 240.09 600.00 240.06
  L 600.00 247.81
  C 590.21 247.33 577.55 247.75 570.66 247.72
  C 385.03 246.95 199.38 247.50 13.75 247.50
  Q 4.51 247.50 0.00 247.94
  L 0.00 239.94
  Z"
/>
<path fill="#04b46b" d="
  M 2.00 240.54
  L 599.46 240.50
  L 599.50 241.44
  A 0.57 0.47 -1.4 0 1 598.93 241.94
  Q 300.87 241.96 2.81 241.94
  Q 1.35 241.94 2.00 240.54
  Z"
/>
<path fill="#0567d7" d="
  M 600.00 247.81
  L 600.00 254.81
  L 0.00 254.89
  L 0.00 247.94
  Q 4.51 247.50 13.75 247.50
  C 199.38 247.50 385.03 246.95 570.66 247.72
  C 577.55 247.75 590.21 247.33 600.00 247.81
  Z"
/>
</svg>
