<?xml version="1.0" encoding="UTF-8" standalone="no"?>
<!DOCTYPE svg PUBLIC "-//W3C//DTD SVG 1.1//EN" "http://www.w3.org/Graphics/SVG/1.1/DTD/svg11.dtd">
<svg xmlns="http://www.w3.org/2000/svg" version="1.1" viewBox="0 0 600 300">
<g stroke-width="2.00" fill="none" stroke-linecap="butt">
<path stroke="#7d0e10" vector-effect="non-scaling-stroke" d="
  M 229.29 215.00
  L 229.07 217.95
  A 0.64 0.52 1.4 0 1 228.44 218.44
  C 212.41 218.64 200.11 218.46 185.81 214.86"
/>
<path stroke="#7d0e10" vector-effect="non-scaling-stroke" d="
  M 44.50 214.80
  Q 33.47 217.54 22.00 218.46"
/>
<path stroke="#808080" vector-effect="non-scaling-stroke" d="
  M 87.06 227.94
  C 79.73 222.79 53.32 221.24 47.55 230.99
  C 44.92 235.42 46.25 248.90 46.25 254.40
  C 46.25 261.56 45.71 266.40 52.31 269.19
  C 61.15 272.92 75.86 273.21 84.02 269.60
  C 91.46 266.31 91.66 261.55 91.11 254.19
  A 0.53 0.53 87.8 0 0 90.57 253.69
  L 77.44 253.92
  A 0.55 0.47 -88.1 0 0 76.97 254.44
  L 76.58 261.54
  Q 76.49 263.31 74.45 263.94
  C 70.89 265.03 60.98 266.14 61.39 259.92
  C 61.85 252.86 61.50 245.51 61.50 238.42
  C 61.50 234.96 61.15 232.64 64.76 231.77
  C 69.36 230.66 78.09 230.00 76.61 237.99
  Q 76.22 240.14 78.49 240.12
  L 90.55 240.05
  A 0.66 0.60 4.9 0 0 91.17 239.57
  Q 92.79 231.96 87.06 227.94"
/>
<path stroke="#808080" vector-effect="non-scaling-stroke" d="
  M 135.81 263.44
  L 135.75 224.77
  A 0.77 0.76 90.0 0 0 134.99 224.00
  L 121.07 224.00
  A 0.82 0.82 0.0 0 0 120.25 224.82
  L 120.43 270.56
  A 0.50 0.50 0.0 0 0 120.93 271.06
  L 159.96 271.00
  A 0.54 0.54 90.0 0 0 160.50 270.46
  L 160.50 264.65
  A 0.66 0.65 0.0 0 0 159.84 264.00
  L 136.30 263.94
  A 0.50 0.49 90.0 0 1 135.81 263.44"
/>
<path stroke="#808080" vector-effect="non-scaling-stroke" d="
  M 215.26 262.00
  A 1.53 1.43 81.0 0 1 216.65 263.08
  L 218.89 270.47
  A 0.74 0.66 -6.9 0 0 219.57 270.94
  L 233.82 271.17
  A 0.46 0.46 -8.5 0 0 234.27 270.57
  L 219.22 224.66
  A 0.71 0.70 80.9 0 0 218.55 224.17
  L 197.31 224.05
  A 0.71 0.69 -80.7 0 0 196.65 224.54
  L 181.59 270.58
  A 0.40 0.39 -78.4 0 0 181.93 271.10
  Q 188.00 271.52 194.88 270.92
  A 0.87 0.84 5.2 0 0 195.64 270.31
  L 197.79 262.98
  A 1.37 1.35 -81.7 0 1 199.09 262.00
  L 215.26 262.00"
/>
<path stroke="#808080" vector-effect="non-scaling-stroke" d="
  M 271.17 249.60
  C 275.19 251.25 286.52 255.59 285.75 261.20
  Q 285.44 263.47 283.23 264.06
  C 278.39 265.34 269.73 266.14 270.61 258.54
  A 1.37 1.35 -86.8 0 0 269.26 257.01
  L 256.82 257.05
  A 0.61 0.61 3.9 0 0 256.23 257.56
  C 254.20 271.74 273.10 272.91 282.78 271.98
  C 288.88 271.39 299.93 270.02 301.00 262.00
  C 302.30 252.31 288.64 247.08 281.50 244.25
  C 278.76 243.17 267.14 236.95 273.28 232.56
  C 275.77 230.79 279.88 231.03 282.92 231.63
  Q 286.71 232.38 286.46 237.00
  A 0.96 0.95 1.4 0 0 287.42 238.00
  L 300.58 238.07
  A 0.41 0.41 -4.2 0 0 301.00 237.67
  C 301.39 225.07 287.24 223.55 277.80 223.99
  C 270.58 224.33 261.05 224.54 257.29 231.88
  C 252.80 240.66 265.09 247.10 271.17 249.60"
/>
<path stroke="#808080" vector-effect="non-scaling-stroke" d="
  M 344.42 251.60
  C 348.03 253.14 355.42 256.33 354.75 261.20
  Q 354.45 263.44 352.27 264.04
  C 347.02 265.48 338.74 266.17 339.62 258.14
  A 1.01 1.01 -86.7 0 0 338.62 257.01
  L 325.80 257.05
  A 0.61 0.59 -85.9 0 0 325.23 257.56
  C 323.43 269.01 334.69 271.17 343.00 271.75
  C 351.01 272.31 369.04 272.47 369.92 261.39
  C 370.62 252.69 360.01 248.24 353.44 245.56
  C 349.83 244.10 338.21 239.16 341.24 233.83
  C 343.64 229.59 356.64 229.52 355.64 237.45
  A 0.44 0.42 -86.4 0 0 356.06 237.94
  L 369.59 238.07
  A 0.41 0.41 -89.3 0 0 370.00 237.67
  Q 370.27 228.46 361.50 225.75
  C 353.94 223.41 336.42 222.30 329.19 228.29
  C 323.89 232.69 324.36 239.85 329.94 243.81
  Q 335.67 247.89 344.42 251.60"
/>
<path stroke="#808080" vector-effect="non-scaling-stroke" d="
  M 411.75 224.58
  A 0.58 0.58 0.0 0 0 411.17 224.00
  L 396.85 224.00
  A 0.58 0.58 0.0 0 0 396.27 224.58
  L 396.27 270.66
  A 0.58 0.58 0.0 0 0 396.85 271.24
  L 411.17 271.24
  A 0.58 0.58 0.0 0 0 411.75 270.66
  L 411.75 224.58"
/>
<path stroke="#808080" vector-effect="non-scaling-stroke" d="
  M 439.05 259.75
  C 438.80 274.89 467.92 273.04 476.25 270.00
  C 483.63 267.30 485.15 261.61 484.37 254.19
  A 0.54 0.54 86.6 0 0 483.82 253.70
  L 470.53 253.75
  A 0.54 0.52 -88.2 0 0 470.01 254.26
  L 469.57 261.42
  Q 469.45 263.32 467.48 263.93
  Q 462.42 265.48 457.54 264.11
  C 453.94 263.10 454.51 261.14 454.50 258.12
  Q 454.46 246.35 454.56 234.87
  Q 454.58 233.01 456.30 232.32
  C 460.92 230.46 471.10 229.50 469.61 238.03
  Q 469.26 240.05 471.33 240.04
  L 483.98 240.00
  A 0.46 0.45 -4.7 0 0 484.44 239.47
  C 484.14 237.54 484.38 235.50 484.04 233.86
  C 482.45 226.26 473.70 224.65 466.75 224.25
  C 457.88 223.74 438.77 223.40 439.03 236.50
  Q 439.25 248.12 439.05 259.75"
/>
<path stroke="#808080" vector-effect="non-scaling-stroke" d="
  M 537.02 255.26
  C 541.49 258.02 543.03 263.38 536.23 264.54
  C 532.75 265.14 525.08 265.53 525.76 259.64
  Q 526.06 257.11 523.62 257.10
  L 511.80 257.05
  A 0.60 0.57 -84.2 0 0 511.22 257.55
  C 508.68 272.83 530.13 272.29 539.25 271.75
  C 545.11 271.40 551.66 270.00 554.84 264.91
  C 562.69 252.37 536.52 245.16 529.77 240.28
  C 517.76 231.60 543.07 225.99 541.64 237.44
  A 0.45 0.43 -86.4 0 0 542.06 237.94
  L 555.31 238.06
  A 0.57 0.57 3.4 0 0 555.88 237.56
  C 557.56 223.31 537.27 223.80 528.50 224.25
  C 522.56 224.55 516.03 225.94 512.78 230.95
  C 507.89 238.50 516.43 245.15 522.31 247.69
  Q 530.39 251.17 537.02 255.26"
/>
<path stroke="#808080" vector-effect="non-scaling-stroke" d="
  M 206.98 233.31
  L 200.26 255.28
  A 0.54 0.52 -81.5 0 0 200.76 255.98
  L 213.56 255.84
  A 0.40 0.39 80.9 0 0 213.92 255.33
  L 207.26 233.30
  Q 207.12 232.84 206.98 233.31"
/>
</g>
<path fill="#f91b20" d="
  M 229.29 215.00
  L 229.07 217.95
  A 0.64 0.52 1.4 0 1 228.44 218.44
  C 212.41 218.64 200.11 218.46 185.81 214.86
  C 149.68 203.85 121.28 173.28 115.68 135.93
  Q 115.15 132.43 114.56 135.92
  C 108.04 173.90 81.17 203.59 44.50 214.80
  Q 33.47 217.54 22.00 218.46
  L 1.29 218.50
  A 0.80 0.79 -90.0 0 1 0.50 217.70
  L 0.46 192.50
  Q 0.26 191.06 2.00 191.25
  Q 4.77 191.56 13.50 191.24
  C 39.07 190.32 60.54 178.40 73.74 157.03
  C 103.02 109.66 69.32 48.71 13.75 47.84
  Q 7.75 47.75 1.25 47.75
  A 0.82 0.81 90.0 0 1 0.44 46.93
  L 0.50 20.79
  Q 9.12 20.28 17.75 20.43
  C 66.70 21.28 107.20 56.02 114.74 104.46
  Q 114.86 105.20 115.27 104.81
  Q 115.45 104.64 115.50 104.25
  C 121.29 61.66 155.38 29.60 196.28 21.97
  C 206.36 20.09 217.66 20.38 228.48 20.51
  A 0.77 0.77 0.4 0 1 229.24 21.28
  L 229.07 47.07
  A 0.54 0.52 -1.8 0 1 228.56 47.59
  C 222.63 47.85 215.96 47.56 210.82 48.06
  C 152.82 53.64 124.85 122.79 163.63 166.72
  C 177.54 182.49 196.77 191.24 218.00 191.25
  Q 225.35 191.25 228.57 191.41
  A 0.54 0.54 1.1 0 1 229.08 191.94
  L 229.29 215.00
  Z"
/>
<path fill="#f91b20" d="
  M 483.31 46.56
  L 483.25 103.22
  A 0.78 0.78 -89.9 0 1 482.47 104.00
  L 458.27 104.00
  A 0.52 0.52 -90.0 0 1 457.75 103.48
  L 457.75 46.66
  A 0.66 0.66 -0.1 0 0 457.09 46.00
  L 432.25 46.00
  A 0.71 0.68 -90.0 0 1 431.57 45.29
  L 431.68 27.45
  A 0.51 0.50 -90.0 0 1 432.18 26.94
  L 508.57 27.00
  A 0.68 0.68 0.4 0 1 509.25 27.68
  L 509.25 45.20
  A 0.81 0.80 0.0 0 1 508.44 46.00
  L 483.80 46.06
  A 0.50 0.49 -90.0 0 0 483.31 46.56
  Z"
/>
<path fill="#f91b20" d="
  M 347.04 62.80
  C 348.16 90.76 334.38 104.00 306.50 104.00
  Q 289.13 104.00 272.12 104.00
  A 0.87 0.87 0.0 0 1 271.25 103.13
  L 271.25 27.78
  A 0.77 0.77 -0.4 0 1 272.01 27.01
  Q 294.13 26.82 315.00 27.25
  C 335.46 27.67 346.28 43.71 347.04 62.80
  Z
  M 311.72 85.57
  C 323.69 83.35 321.92 63.33 320.16 55.07
  C 317.94 44.67 305.98 43.53 297.25 44.68
  A 0.58 0.56 -4.1 0 0 296.75 45.24
  L 296.75 85.84
  A 0.62 0.62 1.5 0 0 297.34 86.46
  Q 305.05 86.81 311.72 85.57
  Z"
/>
<path fill="#f91b20" d="
  M 378.17 27.48
  A 0.74 0.72 -78.3 0 1 378.86 27.01
  L 405.82 27.18
  A 0.75 0.73 78.6 0 1 406.50 27.65
  L 437.10 103.27
  A 0.53 0.53 79.1 0 1 436.61 104.00
  L 411.33 104.00
  A 1.04 1.00 -8.4 0 1 410.35 103.30
  L 406.78 92.12
  A 1.26 1.21 80.7 0 0 405.62 91.25
  L 378.41 91.25
  A 1.27 1.26 -80.7 0 0 377.21 92.12
  L 373.65 103.05
  A 1.38 1.38 9.0 0 1 372.34 104.00
  L 347.93 104.00
  A 0.45 0.45 11.0 0 1 347.51 103.38
  L 378.17 27.48
  Z
  M 383.07 74.03
  A 0.35 0.35 -80.7 0 0 383.41 74.49
  L 400.46 74.51
  A 0.35 0.35 81.1 0 0 400.80 74.06
  L 392.31 47.92
  A 0.35 0.35 0.0 0 0 391.65 47.92
  L 383.07 74.03
  Z"
/>
<path fill="#f91b20" d="
  M 535.21 27.88
  A 1.39 1.36 -78.8 0 1 536.48 27.01
  L 563.06 27.18
  A 0.75 0.74 78.8 0 1 563.75 27.65
  L 594.45 103.52
  A 0.35 0.35 -10.7 0 1 594.12 104.00
  L 568.56 103.94
  A 0.73 0.68 -8.9 0 1 567.88 103.48
  L 564.02 92.06
  A 1.20 1.10 79.7 0 0 562.95 91.25
  L 535.57 91.25
  A 1.02 1.02 9.1 0 0 534.60 91.95
  L 530.93 103.20
  A 1.16 1.14 -80.9 0 1 529.84 104.00
  L 505.14 104.00
  A 0.40 0.40 -79.1 0 1 504.77 103.45
  L 535.21 27.88
  Z
  M 548.69 48.17
  L 540.45 73.69
  A 0.62 0.62 -80.4 0 0 541.03 74.51
  L 557.77 74.68
  A 0.51 0.50 -8.6 0 0 558.26 74.02
  L 549.80 48.17
  Q 549.24 46.48 548.69 48.17
  Z"
/>
<path fill="#f91b20" d="
  M 17.49 58.33
  C 67.15 63.40 90.10 122.70 57.23 159.99
  C 42.49 176.71 23.06 182.69 1.06 180.98
  A 0.55 0.54 -87.8 0 1 0.56 180.43
  L 0.50 58.51
  A 0.73 0.73 -0.4 0 1 1.22 57.78
  Q 9.89 57.56 17.49 58.33
  Z"
/>
<path fill="#f91b20" d="
  M 173.86 77.87
  C 188.62 61.80 206.98 57.08 228.24 57.77
  A 1.05 1.04 1.1 0 1 229.25 58.81
  L 229.25 114.59
  A 0.66 0.66 0.0 0 1 228.59 115.25
  L 158.55 115.25
  A 0.63 0.63 2.5 0 1 157.92 114.57
  Q 159.91 93.07 173.86 77.87
  Z"
/>
<path fill="#f91b20" d="
  M 445.06 152.47
  C 437.99 140.08 446.27 126.81 458.80 123.19
  C 477.29 117.83 507.89 117.65 511.62 142.70
  A 0.47 0.47 -5.6 0 1 511.18 143.23
  L 488.34 144.52
  A 0.96 0.92 82.6 0 1 487.37 143.74
  Q 486.39 138.54 482.06 136.19
  C 477.89 133.91 470.09 133.86 466.92 138.22
  C 463.77 142.55 469.01 144.93 472.53 145.84
  C 488.76 150.06 519.30 153.29 513.84 178.59
  C 511.09 191.32 499.65 197.69 487.49 199.35
  Q 472.99 201.33 461.25 198.50
  Q 442.46 193.97 439.39 174.06
  A 0.66 0.66 -5.9 0 1 440.01 173.30
  L 463.12 171.94
  A 0.65 0.64 -6.6 0 1 463.79 172.47
  C 467.26 193.40 497.12 183.93 488.06 172.94
  C 485.07 169.31 477.73 167.99 473.22 167.13
  C 463.64 165.32 449.80 160.79 445.06 152.47
  Z"
/>
<path fill="#f91b20" d="
  M 296.81 181.19
  L 339.73 181.25
  A 0.71 0.70 -0.0 0 1 340.44 181.95
  L 340.50 198.09
  A 0.67 0.66 0.0 0 1 339.83 198.75
  L 271.43 198.75
  A 0.68 0.67 -0.0 0 1 270.75 198.08
  L 270.81 122.31
  A 0.50 0.50 0.0 0 1 271.31 121.81
  L 338.75 121.75
  A 0.50 0.50 0.0 0 1 339.25 122.25
  L 339.25 137.44
  A 0.81 0.81 0.0 0 1 338.44 138.25
  L 296.77 138.25
  A 0.52 0.52 90.0 0 0 296.25 138.77
  L 296.25 149.84
  A 0.66 0.66 -0.1 0 0 296.91 150.50
  L 335.58 150.50
  A 0.67 0.67 0.2 0 1 336.25 151.17
  L 336.25 165.33
  A 0.92 0.92 -0.1 0 1 335.33 166.25
  L 296.77 166.25
  A 0.52 0.51 0.0 0 0 296.25 166.76
  L 296.31 180.70
  A 0.50 0.49 0.0 0 0 296.81 181.19
  Z"
/>
<path fill="#f91b20" d="
  M 376.47 122.62
  A 1.36 1.34 -79.0 0 1 377.72 121.76
  L 404.31 121.93
  A 0.75 0.74 78.8 0 1 405.00 122.40
  L 435.60 198.03
  A 0.53 0.52 -10.9 0 1 435.11 198.75
  L 410.04 198.75
  A 1.20 1.18 -9.1 0 1 408.91 197.95
  L 405.25 186.76
  A 1.11 1.06 80.5 0 0 404.23 186.00
  L 376.82 186.00
  A 1.05 1.02 -80.4 0 0 375.85 186.71
  L 372.04 198.11
  A 0.94 0.93 9.0 0 1 371.15 198.75
  L 346.38 198.75
  A 0.39 0.39 -78.9 0 1 346.02 198.21
  L 376.47 122.62
  Z
  M 381.70 168.84
  A 0.32 0.32 -81.0 0 0 382.01 169.26
  L 399.11 169.23
  A 0.32 0.32 -9.0 0 0 399.41 168.81
  L 390.81 142.53
  A 0.32 0.32 -45.9 0 0 390.21 142.53
  L 381.70 168.84
  Z"
/>
<path fill="#f91b20" d="
  M 521.44 122.28
  A 0.53 0.52 -90.0 0 1 521.96 121.75
  L 598.98 121.75
  A 0.52 0.52 -90.0 0 1 599.50 122.27
  L 599.50 139.95
  A 0.80 0.80 89.8 0 1 598.70 140.75
  L 573.85 140.75
  A 0.85 0.85 0.2 0 0 573.00 141.60
  L 573.00 197.88
  A 0.87 0.87 0.0 0 1 572.13 198.75
  L 548.33 198.75
  A 0.83 0.83 0.1 0 1 547.50 197.92
  L 547.50 141.60
  A 0.85 0.85 -0.2 0 0 546.65 140.75
  L 522.07 140.75
  A 0.58 0.57 90.0 0 1 521.50 140.17
  L 521.44 122.28
  Z"
/>
<path fill="#f91b20" d="
  M 216.99 181.15
  C 185.61 179.73 160.49 155.61 157.84 124.36
  A 0.56 0.56 -2.8 0 1 158.40 123.75
  L 228.43 123.75
  A 0.82 0.82 0.0 0 1 229.25 124.57
  L 229.25 180.49
  A 0.75 0.75 -0.8 0 1 228.52 181.24
  Q 222.49 181.40 216.99 181.15
  Z"
/>
<path fill="#000000" d="
  M 44.50 214.80
  L 185.81 214.86
  C 200.11 218.46 212.41 218.64 228.44 218.44
  A 0.64 0.52 1.4 0 0 229.07 217.95
  L 229.29 215.00
  Q 393.19 215.00 557.09 215.00
  Q 566.40 215.00 571.27 216.37
  C 607.78 226.66 599.87 279.96 561.50 279.97
  Q 300.25 280.00 39.00 279.99
  C 5.22 279.99 -6.37 236.05 22.57 219.24
  A 0.71 0.35 -31.5 0 0 23.02 218.53
  Q 22.83 218.29 22.00 218.46
  Q 33.47 217.54 44.50 214.80
  Z
  M 87.06 227.94
  C 79.73 222.79 53.32 221.24 47.55 230.99
  C 44.92 235.42 46.25 248.90 46.25 254.40
  C 46.25 261.56 45.71 266.40 52.31 269.19
  C 61.15 272.92 75.86 273.21 84.02 269.60
  C 91.46 266.31 91.66 261.55 91.11 254.19
  A 0.53 0.53 87.8 0 0 90.57 253.69
  L 77.44 253.92
  A 0.55 0.47 -88.1 0 0 76.97 254.44
  L 76.58 261.54
  Q 76.49 263.31 74.45 263.94
  C 70.89 265.03 60.98 266.14 61.39 259.92
  C 61.85 252.86 61.50 245.51 61.50 238.42
  C 61.50 234.96 61.15 232.64 64.76 231.77
  C 69.36 230.66 78.09 230.00 76.61 237.99
  Q 76.22 240.14 78.49 240.12
  L 90.55 240.05
  A 0.66 0.60 4.9 0 0 91.17 239.57
  Q 92.79 231.96 87.06 227.94
  Z
  M 135.81 263.44
  L 135.75 224.77
  A 0.77 0.76 90.0 0 0 134.99 224.00
  L 121.07 224.00
  A 0.82 0.82 0.0 0 0 120.25 224.82
  L 120.43 270.56
  A 0.50 0.50 0.0 0 0 120.93 271.06
  L 159.96 271.00
  A 0.54 0.54 90.0 0 0 160.50 270.46
  L 160.50 264.65
  A 0.66 0.65 0.0 0 0 159.84 264.00
  L 136.30 263.94
  A 0.50 0.49 90.0 0 1 135.81 263.44
  Z
  M 215.26 262.00
  A 1.53 1.43 81.0 0 1 216.65 263.08
  L 218.89 270.47
  A 0.74 0.66 -6.9 0 0 219.57 270.94
  L 233.82 271.17
  A 0.46 0.46 -8.5 0 0 234.27 270.57
  L 219.22 224.66
  A 0.71 0.70 80.9 0 0 218.55 224.17
  L 197.31 224.05
  A 0.71 0.69 -80.7 0 0 196.65 224.54
  L 181.59 270.58
  A 0.40 0.39 -78.4 0 0 181.93 271.10
  Q 188.00 271.52 194.88 270.92
  A 0.87 0.84 5.2 0 0 195.64 270.31
  L 197.79 262.98
  A 1.37 1.35 -81.7 0 1 199.09 262.00
  L 215.26 262.00
  Z
  M 271.17 249.60
  C 275.19 251.25 286.52 255.59 285.75 261.20
  Q 285.44 263.47 283.23 264.06
  C 278.39 265.34 269.73 266.14 270.61 258.54
  A 1.37 1.35 -86.8 0 0 269.26 257.01
  L 256.82 257.05
  A 0.61 0.61 3.9 0 0 256.23 257.56
  C 254.20 271.74 273.10 272.91 282.78 271.98
  C 288.88 271.39 299.93 270.02 301.00 262.00
  C 302.30 252.31 288.64 247.08 281.50 244.25
  C 278.76 243.17 267.14 236.95 273.28 232.56
  C 275.77 230.79 279.88 231.03 282.92 231.63
  Q 286.71 232.38 286.46 237.00
  A 0.96 0.95 1.4 0 0 287.42 238.00
  L 300.58 238.07
  A 0.41 0.41 -4.2 0 0 301.00 237.67
  C 301.39 225.07 287.24 223.55 277.80 223.99
  C 270.58 224.33 261.05 224.54 257.29 231.88
  C 252.80 240.66 265.09 247.10 271.17 249.60
  Z
  M 344.42 251.60
  C 348.03 253.14 355.42 256.33 354.75 261.20
  Q 354.45 263.44 352.27 264.04
  C 347.02 265.48 338.74 266.17 339.62 258.14
  A 1.01 1.01 -86.7 0 0 338.62 257.01
  L 325.80 257.05
  A 0.61 0.59 -85.9 0 0 325.23 257.56
  C 323.43 269.01 334.69 271.17 343.00 271.75
  C 351.01 272.31 369.04 272.47 369.92 261.39
  C 370.62 252.69 360.01 248.24 353.44 245.56
  C 349.83 244.10 338.21 239.16 341.24 233.83
  C 343.64 229.59 356.64 229.52 355.64 237.45
  A 0.44 0.42 -86.4 0 0 356.06 237.94
  L 369.59 238.07
  A 0.41 0.41 -89.3 0 0 370.00 237.67
  Q 370.27 228.46 361.50 225.75
  C 353.94 223.41 336.42 222.30 329.19 228.29
  C 323.89 232.69 324.36 239.85 329.94 243.81
  Q 335.67 247.89 344.42 251.60
  Z
  M 411.75 224.58
  A 0.58 0.58 0.0 0 0 411.17 224.00
  L 396.85 224.00
  A 0.58 0.58 0.0 0 0 396.27 224.58
  L 396.27 270.66
  A 0.58 0.58 0.0 0 0 396.85 271.24
  L 411.17 271.24
  A 0.58 0.58 0.0 0 0 411.75 270.66
  L 411.75 224.58
  Z
  M 439.05 259.75
  C 438.80 274.89 467.92 273.04 476.25 270.00
  C 483.63 267.30 485.15 261.61 484.37 254.19
  A 0.54 0.54 86.6 0 0 483.82 253.70
  L 470.53 253.75
  A 0.54 0.52 -88.2 0 0 470.01 254.26
  L 469.57 261.42
  Q 469.45 263.32 467.48 263.93
  Q 462.42 265.48 457.54 264.11
  C 453.94 263.10 454.51 261.14 454.50 258.12
  Q 454.46 246.35 454.56 234.87
  Q 454.58 233.01 456.30 232.32
  C 460.92 230.46 471.10 229.50 469.61 238.03
  Q 469.26 240.05 471.33 240.04
  L 483.98 240.00
  A 0.46 0.45 -4.7 0 0 484.44 239.47
  C 484.14 237.54 484.38 235.50 484.04 233.86
  C 482.45 226.26 473.70 224.65 466.75 224.25
  C 457.88 223.74 438.77 223.40 439.03 236.50
  Q 439.25 248.12 439.05 259.75
  Z
  M 537.02 255.26
  C 541.49 258.02 543.03 263.38 536.23 264.54
  C 532.75 265.14 525.08 265.53 525.76 259.64
  Q 526.06 257.11 523.62 257.10
  L 511.80 257.05
  A 0.60 0.57 -84.2 0 0 511.22 257.55
  C 508.68 272.83 530.13 272.29 539.25 271.75
  C 545.11 271.40 551.66 270.00 554.84 264.91
  C 562.69 252.37 536.52 245.16 529.77 240.28
  C 517.76 231.60 543.07 225.99 541.64 237.44
  A 0.45 0.43 -86.4 0 0 542.06 237.94
  L 555.31 238.06
  A 0.57 0.57 3.4 0 0 555.88 237.56
  C 557.56 223.31 537.27 223.80 528.50 224.25
  C 522.56 224.55 516.03 225.94 512.78 230.95
  C 507.89 238.50 516.43 245.15 522.31 247.69
  Q 530.39 251.17 537.02 255.26
  Z"
/>
<path fill="#ffffff" d="
  M 87.06 227.94
  Q 92.79 231.96 91.17 239.57
  A 0.66 0.60 4.9 0 1 90.55 240.05
  L 78.49 240.12
  Q 76.22 240.14 76.61 237.99
  C 78.09 230.00 69.36 230.66 64.76 231.77
  C 61.15 232.64 61.50 234.96 61.50 238.42
  C 61.50 245.51 61.85 252.86 61.39 259.92
  C 60.98 266.14 70.89 265.03 74.45 263.94
  Q 76.49 263.31 76.58 261.54
  L 76.97 254.44
  A 0.55 0.47 -88.1 0 1 77.44 253.92
  L 90.57 253.69
  A 0.53 0.53 87.8 0 1 91.11 254.19
  C 91.66 261.55 91.46 266.31 84.02 269.60
  C 75.86 273.21 61.15 272.92 52.31 269.19
  C 45.71 266.40 46.25 261.56 46.25 254.40
  C 46.25 248.90 44.92 235.42 47.55 230.99
  C 53.32 221.24 79.73 222.79 87.06 227.94
  Z"
/>
<path fill="#ffffff" d="
  M 136.30 263.94
  L 159.84 264.00
  A 0.66 0.65 0.0 0 1 160.50 264.65
  L 160.50 270.46
  A 0.54 0.54 -89.8 0 1 159.96 271.00
  L 120.93 271.06
  A 0.50 0.50 0.0 0 1 120.43 270.56
  L 120.25 224.82
  A 0.82 0.82 0.0 0 1 121.07 224.00
  L 134.99 224.00
  A 0.77 0.76 -90.0 0 1 135.75 224.77
  L 135.81 263.44
  A 0.50 0.49 90.0 0 0 136.30 263.94
  Z"
/>
<path fill="#ffffff" d="
  M 215.26 262.00
  L 199.09 262.00
  A 1.37 1.35 -81.7 0 0 197.79 262.98
  L 195.64 270.31
  A 0.87 0.84 5.2 0 1 194.88 270.92
  Q 188.00 271.52 181.93 271.10
  A 0.40 0.39 -78.4 0 1 181.59 270.58
  L 196.65 224.54
  A 0.71 0.69 -80.7 0 1 197.31 224.05
  L 218.55 224.17
  A 0.71 0.70 80.9 0 1 219.22 224.66
  L 234.27 270.57
  A 0.46 0.46 -8.5 0 1 233.82 271.17
  L 219.57 270.94
  A 0.74 0.66 -6.9 0 1 218.89 270.47
  L 216.65 263.08
  A 1.53 1.43 81.0 0 0 215.26 262.00
  Z
  M 206.98 233.31
  L 200.26 255.28
  A 0.54 0.52 -81.5 0 0 200.76 255.98
  L 213.56 255.84
  A 0.40 0.39 80.9 0 0 213.92 255.33
  L 207.26 233.30
  Q 207.12 232.84 206.98 233.31
  Z"
/>
<path fill="#ffffff" d="
  M 285.75 261.20
  C 286.52 255.59 275.19 251.25 271.17 249.60
  C 265.09 247.10 252.80 240.66 257.29 231.88
  C 261.05 224.54 270.58 224.33 277.80 223.99
  C 287.24 223.55 301.39 225.07 301.00 237.67
  A 0.41 0.41 11.2 0 1 300.58 238.07
  L 287.42 238.00
  A 0.96 0.95 1.4 0 1 286.46 237.00
  Q 286.71 232.38 282.92 231.63
  C 279.88 231.03 275.77 230.79 273.28 232.56
  C 267.14 236.95 278.76 243.17 281.50 244.25
  C 288.64 247.08 302.30 252.31 301.00 262.00
  C 299.93 270.02 288.88 271.39 282.78 271.98
  C 273.10 272.91 254.20 271.74 256.23 257.56
  A 0.61 0.61 3.9 0 1 256.82 257.05
  L 269.26 257.01
  A 1.37 1.35 -86.8 0 1 270.61 258.54
  C 269.73 266.14 278.39 265.34 283.23 264.06
  Q 285.44 263.47 285.75 261.20
  Z"
/>
<path fill="#ffffff" d="
  M 354.75 261.20
  C 355.42 256.33 348.03 253.14 344.42 251.60
  Q 335.67 247.89 329.94 243.81
  C 324.36 239.85 323.89 232.69 329.19 228.29
  C 336.42 222.30 353.94 223.41 361.50 225.75
  Q 370.27 228.46 370.00 237.67
  A 0.41 0.41 -89.3 0 1 369.59 238.07
  L 356.06 237.94
  A 0.44 0.42 -86.4 0 1 355.64 237.45
  C 356.64 229.52 343.64 229.59 341.24 233.83
  C 338.21 239.16 349.83 244.10 353.44 245.56
  C 360.01 248.24 370.62 252.69 369.92 261.39
  C 369.04 272.47 351.01 272.31 343.00 271.75
  C 334.69 271.17 323.43 269.01 325.23 257.56
  A 0.61 0.59 -85.9 0 1 325.80 257.05
  L 338.62 257.01
  A 1.01 1.01 -86.7 0 1 339.62 258.14
  C 338.74 266.17 347.02 265.48 352.27 264.04
  Q 354.45 263.44 354.75 261.20
  Z"
/>
<rect fill="#ffffff" x="396.27" y="224.00" width="15.48" height="47.24" rx="0.58"/>
<path fill="#ffffff" d="
  M 476.25 270.00
  C 467.92 273.04 438.80 274.89 439.05 259.75
  Q 439.25 248.12 439.03 236.50
  C 438.77 223.40 457.88 223.74 466.75 224.25
  C 473.70 224.65 482.45 226.26 484.04 233.86
  C 484.38 235.50 484.14 237.54 484.44 239.47
  A 0.46 0.45 -4.7 0 1 483.98 240.00
  L 471.33 240.04
  Q 469.26 240.05 469.61 238.03
  C 471.10 229.50 460.92 230.46 456.30 232.32
  Q 454.58 233.01 454.56 234.87
  Q 454.46 246.35 454.50 258.12
  C 454.51 261.14 453.94 263.10 457.54 264.11
  Q 462.42 265.48 467.48 263.93
  Q 469.45 263.32 469.57 261.42
  L 470.01 254.26
  A 0.54 0.52 -88.2 0 1 470.53 253.75
  L 483.82 253.70
  A 0.54 0.54 86.6 0 1 484.37 254.19
  C 485.15 261.61 483.63 267.30 476.25 270.00
  Z"
/>
<path fill="#ffffff" d="
  M 537.02 255.26
  Q 530.39 251.17 522.31 247.69
  C 516.43 245.15 507.89 238.50 512.78 230.95
  C 516.03 225.94 522.56 224.55 528.50 224.25
  C 537.27 223.80 557.56 223.31 555.88 237.56
  A 0.57 0.57 3.4 0 1 555.31 238.06
  L 542.06 237.94
  A 0.45 0.43 -86.4 0 1 541.64 237.44
  C 543.07 225.99 517.76 231.60 529.77 240.28
  C 536.52 245.16 562.69 252.37 554.84 264.91
  C 551.66 270.00 545.11 271.40 539.25 271.75
  C 530.13 272.29 508.68 272.83 511.22 257.55
  A 0.60 0.57 -84.2 0 1 511.80 257.05
  L 523.62 257.10
  Q 526.06 257.11 525.76 259.64
  C 525.08 265.53 532.75 265.14 536.23 264.54
  C 543.03 263.38 541.49 258.02 537.02 255.26
  Z"
/>
<path fill="#000000" d="
  M 206.98 233.31
  Q 207.12 232.84 207.26 233.30
  L 213.92 255.33
  A 0.40 0.39 80.9 0 1 213.56 255.84
  L 200.76 255.98
  A 0.54 0.52 -81.5 0 1 200.26 255.28
  L 206.98 233.31
  Z"
/>
</svg>
