<?xml version="1.0" encoding="UTF-8" standalone="no"?>
<!DOCTYPE svg PUBLIC "-//W3C//DTD SVG 1.1//EN" "http://www.w3.org/Graphics/SVG/1.1/DTD/svg11.dtd">
<svg xmlns="http://www.w3.org/2000/svg" version="1.1" viewBox="0 0 600 300">
<path fill="#000000" d="
  M 34.94 95.69
  C 71.28 72.01 121.39 90.34 133.66 132.72
  C 145.77 174.56 116.00 213.45 73.92 217.47
  C 68.73 217.96 64.40 217.21 58.75 216.10
  C 0.11 204.61 -15.40 128.49 34.94 95.69
  Z
  M 134.43 151.17
  A 63.99 63.99 0.0 0 0 70.44 87.18
  A 63.99 63.99 0.0 0 0 6.45 151.17
  A 63.99 63.99 0.0 0 0 70.44 215.16
  A 63.99 63.99 0.0 0 0 134.43 151.17
  Z"
/>
<path fill="#000000" d="
  M 85.54 204.78
  C 63.76 217.23 37.10 197.93 31.06 176.73
  Q 29.75 172.12 29.74 164.12
  Q 29.71 134.71 29.81 105.31
  Q 29.81 104.73 30.19 105.13
  L 34.64 109.86
  Q 35.95 111.25 37.47 111.25
  L 99.14 111.25
  Q 100.81 111.25 102.10 110.02
  L 107.58 104.82
  Q 108.07 104.36 108.06 105.04
  Q 107.95 136.66 108.00 167.75
  C 108.02 183.53 98.88 197.16 85.54 204.78
  Z
  M 68.43 159.22
  Q 67.55 155.90 68.16 152.49
  A 1.37 1.07 -62.5 0 0 67.99 151.57
  L 63.81 145.64
  A 0.72 0.64 46.8 0 1 63.79 144.85
  L 68.13 139.08
  A 1.59 1.31 -30.7 0 0 68.45 138.19
  L 68.49 127.69
  Q 68.49 126.48 67.97 125.30
  C 60.74 108.87 36.36 108.92 32.47 127.55
  C 29.50 141.80 39.57 155.09 51.21 161.90
  Q 72.09 174.12 93.22 157.95
  Q 108.91 145.95 105.71 125.97
  C 102.96 108.74 80.49 109.95 72.78 121.98
  C 69.92 126.43 70.19 131.24 70.51 136.41
  C 70.71 139.72 73.07 142.06 74.96 144.60
  A 0.76 0.68 45.5 0 1 75.00 145.44
  L 71.84 150.03
  A 4.82 3.38 -35.8 0 0 70.99 152.48
  L 70.95 158.94
  A 0.76 0.71 80.7 0 1 70.48 159.64
  Q 69.79 159.88 69.05 159.78
  A 0.78 0.72 84.9 0 1 68.43 159.22
  Z
  M 49.74 171.08
  A 0.34 0.34 23.1 0 0 49.50 170.50
  L 35.74 170.50
  A 0.34 0.34 -21.6 0 0 35.50 171.08
  L 42.38 178.05
  A 0.34 0.34 44.2 0 0 42.86 178.05
  L 49.74 171.08
  Z
  M 54.60 171.73
  L 60.71 177.83
  A 1.03 0.95 -45.6 0 0 62.13 177.76
  L 67.59 171.98
  Q 68.98 170.52 67.00 170.49
  L 55.23 170.33
  Q 53.17 170.30 54.60 171.73
  Z
  M 72.02 170.42
  Q 70.68 170.43 71.59 171.36
  L 77.80 177.68
  A 1.02 0.99 -45.4 0 0 79.25 177.65
  L 85.25 171.25
  Q 86.14 170.30 84.94 170.31
  L 72.02 170.42
  Z
  M 91.05 170.44
  Q 88.91 170.43 90.51 172.00
  L 96.56 177.94
  A 0.81 0.77 44.2 0 0 97.68 177.95
  L 103.90 171.47
  Q 104.83 170.51 103.52 170.50
  L 91.05 170.44
  Z
  M 52.10 188.06
  L 58.59 181.41
  A 0.30 0.26 -41.0 0 0 58.64 181.05
  L 58.51 180.87
  A 1.05 0.59 -9.3 0 0 57.74 180.59
  L 45.45 180.62
  Q 43.75 180.63 44.92 181.79
  L 51.19 188.07
  A 0.64 0.64 45.7 0 0 52.10 188.06
  Z
  M 69.90 187.98
  L 75.82 182.06
  Q 77.07 180.81 75.31 180.80
  L 62.98 180.75
  Q 61.37 180.74 62.51 181.89
  L 68.60 187.98
  A 0.92 0.92 90.0 0 0 69.90 187.98
  Z
  M 86.75 188.13
  A 0.94 0.87 -45.5 0 0 88.05 188.07
  L 93.95 181.93
  Q 95.08 180.75 93.48 180.75
  L 81.31 180.75
  Q 79.49 180.75 80.75 182.03
  L 86.75 188.13
  Z
  M 66.15 190.08
  Q 67.33 188.80 65.57 188.79
  L 54.42 188.75
  Q 52.10 188.74 53.81 190.40
  L 59.62 196.03
  A 0.78 0.72 43.5 0 0 60.70 196.05
  L 66.15 190.08
  Z
  M 73.04 188.94
  Q 71.06 188.93 72.51 190.34
  L 78.37 196.04
  A 1.00 0.92 44.2 0 0 79.73 196.08
  L 85.47 190.23
  Q 86.68 189.01 84.90 189.00
  L 73.04 188.94
  Z
  M 64.23 197.19
  Q 62.12 197.18 63.66 198.73
  L 69.44 204.57
  A 0.79 0.76 44.5 0 0 70.55 204.58
  L 76.29 198.57
  Q 77.54 197.26 75.77 197.25
  L 64.23 197.19
  Z"
/>
<path fill="#000000" d="
  M 167.63 124.27
  Q 168.29 142.58 167.82 162.81
  A 0.54 0.52 -90.0 0 1 167.31 163.34
  L 154.86 163.49
  A 0.82 0.79 -90.0 0 1 154.07 162.67
  L 154.06 107.47
  A 0.91 0.89 89.7 0 1 154.94 106.56
  L 175.85 106.50
  A 1.05 1.05 77.8 0 1 176.81 107.12
  L 193.44 144.83
  Q 194.68 147.62 194.66 144.57
  L 194.50 107.23
  A 0.73 0.73 89.4 0 1 195.23 106.50
  L 207.26 106.50
  A 0.99 0.99 0.5 0 1 208.25 107.49
  L 208.25 162.68
  A 0.82 0.82 0.0 0 1 207.43 163.50
  L 187.37 163.50
  A 1.47 1.47 77.9 0 1 186.03 162.63
  L 168.91 123.98
  Q 167.51 120.81 167.63 124.27
  Z"
/>
<rect fill="#000000" x="-7.52" y="-5.37" transform="translate(225.73,111.88) rotate(-0.2)" width="15.04" height="10.74" rx="0.71"/>
<path fill="#000000" d="
  M 305.31 128.60
  Q 305.31 129.23 305.74 128.76
  C 314.55 119.25 332.30 121.79 332.41 137.00
  Q 332.50 149.75 332.50 162.98
  A 0.52 0.52 -90.0 0 1 331.98 163.50
  L 318.87 163.50
  A 0.89 0.89 89.0 0 1 317.98 162.64
  Q 317.61 150.35 317.77 139.50
  C 317.87 132.60 309.94 129.62 306.59 135.56
  Q 305.57 137.37 305.55 141.27
  Q 305.49 152.08 305.44 162.70
  A 0.80 0.80 0.0 0 1 304.64 163.50
  L 291.39 163.50
  A 0.64 0.63 -0.0 0 1 290.75 162.87
  L 290.93 107.19
  A 0.54 0.54 -2.3 0 1 291.43 106.65
  Q 298.20 106.17 304.94 106.77
  A 0.53 0.52 -87.7 0 1 305.42 107.30
  L 305.31 128.60
  Z"
/>
<rect fill="#000000" x="-7.50" y="-5.37" transform="translate(350.00,111.88) rotate(0.1)" width="15.00" height="10.74" rx="0.64"/>
<path fill="#000000" d="
  M 381.19 159.13
  Q 380.68 159.96 381.25 161.00
  Q 382.62 163.52 378.75 163.50
  L 367.06 163.45
  A 0.48 0.48 -87.7 0 1 366.59 162.94
  Q 367.79 135.02 367.07 107.48
  A 0.95 0.93 89.7 0 1 368.01 106.51
  L 381.14 106.56
  A 0.59 0.59 -89.5 0 1 381.73 107.16
  L 381.57 127.37
  Q 381.56 128.72 382.49 127.76
  C 391.34 118.56 406.66 122.56 409.98 135.00
  C 412.82 145.63 411.31 161.33 398.05 164.12
  Q 388.94 166.04 381.86 159.11
  A 0.46 0.40 39.0 0 0 381.19 159.13
  Z
  M 385.79 132.33
  C 380.51 135.78 380.78 145.74 382.69 150.81
  C 384.67 156.09 390.91 157.66 393.90 152.49
  C 396.31 148.34 396.03 141.55 395.13 137.42
  C 394.12 132.74 389.80 129.71 385.79 132.33
  Z"
/>
<path fill="#000000" d="
  M 489.81 123.70
  L 497.39 123.75
  A 1.12 1.08 0.5 0 1 498.50 124.84
  L 498.45 132.62
  A 0.71 0.67 -0.0 0 1 497.75 133.28
  L 489.68 133.40
  A 0.56 0.51 -88.8 0 0 489.17 133.94
  C 488.95 139.28 489.13 144.60 488.91 149.94
  C 488.69 155.52 494.19 154.50 497.84 154.50
  A 0.66 0.66 0.2 0 1 498.50 155.16
  L 498.50 162.31
  A 1.27 1.26 85.5 0 1 497.44 163.56
  C 487.14 165.23 474.07 165.72 474.51 150.99
  Q 474.75 143.13 474.75 133.88
  A 0.80 0.74 0.4 0 0 473.96 133.14
  L 468.00 133.08
  A 0.58 0.51 -89.5 0 1 467.50 132.50
  L 467.50 124.67
  A 0.94 0.92 -0.3 0 1 468.43 123.75
  L 473.25 123.74
  Q 475.54 123.73 475.02 121.44
  Q 474.18 117.74 476.30 117.07
  C 480.45 115.74 484.57 113.50 488.72 111.98
  A 0.36 0.35 79.5 0 1 489.19 112.31
  L 489.31 123.19
  A 0.51 0.50 90.0 0 0 489.81 123.70
  Z"
/>
<path fill="#000000" d="
  M 101.86 132.35
  A 13.49 13.49 0.0 0 1 88.37 145.84
  A 13.49 13.49 0.0 0 1 74.88 132.35
  A 13.49 13.49 0.0 0 1 88.37 118.86
  A 13.49 13.49 0.0 0 1 101.86 132.35
  Z
  M 99.76 132.38
  A 11.37 11.37 0.0 0 0 88.39 121.01
  A 11.37 11.37 0.0 0 0 77.02 132.38
  A 11.37 11.37 0.0 0 0 88.39 143.75
  A 11.37 11.37 0.0 0 0 99.76 132.38
  Z"
/>
<path fill="#000000" d="
  M 63.27 132.56
  A 13.49 13.49 0.0 0 1 49.78 146.05
  A 13.49 13.49 0.0 0 1 36.29 132.56
  A 13.49 13.49 0.0 0 1 49.78 119.07
  A 13.49 13.49 0.0 0 1 63.27 132.56
  Z
  M 61.13 132.55
  A 11.36 11.36 0.0 0 0 49.77 121.19
  A 11.36 11.36 0.0 0 0 38.41 132.55
  A 11.36 11.36 0.0 0 0 49.77 143.91
  A 11.36 11.36 0.0 0 0 61.13 132.55
  Z"
/>
<path fill="#000000" d="
  M 260.64 131.59
  C 255.25 133.56 256.15 143.97 256.50 148.75
  C 257.19 158.22 268.25 158.39 267.84 149.07
  A 0.53 0.48 88.3 0 1 268.31 148.52
  L 281.74 148.30
  A 1.15 1.09 -84.2 0 1 282.82 149.69
  Q 280.07 162.08 267.75 164.00
  C 248.81 166.95 237.72 154.71 242.06 136.31
  C 246.26 118.51 280.79 117.64 282.28 137.07
  A 0.48 0.47 87.1 0 1 281.82 137.59
  L 268.91 137.73
  A 1.08 1.04 82.7 0 1 267.88 136.90
  Q 266.18 129.57 260.64 131.59
  Z"
/>
<path fill="#000000" d="
  M 526.95 153.62
  Q 527.70 151.47 525.70 150.39
  C 518.92 146.75 505.34 146.33 504.16 137.07
  Q 502.96 127.71 512.25 124.50
  C 521.95 121.15 538.93 121.81 540.11 135.27
  A 0.62 0.60 87.4 0 1 539.51 135.94
  L 527.36 135.99
  A 0.81 0.80 87.3 0 1 526.55 135.24
  C 525.65 123.99 507.29 134.68 526.25 138.75
  C 533.22 140.25 541.08 142.63 541.11 150.83
  C 541.16 165.65 522.36 165.98 512.19 163.29
  Q 504.25 161.19 503.16 152.30
  A 1.39 1.39 86.7 0 1 504.54 150.75
  L 516.72 150.75
  A 0.78 0.78 89.6 0 1 517.50 151.52
  C 517.56 157.34 525.30 158.33 526.95 153.62
  Z"
/>
<circle fill="#000000" cx="88.36" cy="132.00" r="8.41"/>
<circle fill="#000000" cx="49.59" cy="132.36" r="8.41"/>
<rect fill="#000000" x="218.48" y="123.76" width="14.52" height="39.74" rx="0.31"/>
<rect fill="#000000" x="342.75" y="123.76" width="14.50" height="39.74" rx="0.43"/>
<path fill="#000000" d="
  M 446.94 158.42
  Q 446.94 157.84 446.57 158.30
  C 440.24 166.24 425.36 167.18 420.85 157.15
  Q 419.51 154.19 419.54 145.66
  Q 419.57 135.01 419.31 124.45
  A 0.69 0.68 89.6 0 1 419.99 123.75
  L 433.12 123.75
  A 0.88 0.88 0.0 0 1 434.00 124.63
  Q 434.00 132.38 433.86 140.50
  C 433.78 145.25 433.53 154.49 438.80 155.10
  C 443.15 155.61 446.50 152.44 446.50 148.00
  Q 446.50 136.50 446.50 124.79
  A 1.02 0.98 -89.7 0 1 447.49 123.77
  L 460.57 123.91
  A 0.53 0.51 90.0 0 1 461.07 124.43
  L 461.52 162.66
  A 0.83 0.83 89.7 0 1 460.69 163.50
  L 447.68 163.50
  A 0.71 0.69 -90.0 0 1 446.99 162.79
  L 446.94 158.42
  Z"
/>
<path fill="#000000" d="
  M 576.61 158.78
  A 0.43 0.43 -34.7 0 0 575.89 158.65
  Q 570.16 165.12 562.42 164.55
  C 550.80 163.70 549.25 156.10 549.25 145.63
  C 549.25 139.11 549.79 131.86 549.08 125.43
  C 548.81 122.99 551.66 123.75 553.01 123.72
  Q 558.11 123.57 563.19 124.02
  A 0.54 0.53 2.3 0 1 563.69 124.55
  C 563.74 129.69 562.16 152.24 566.82 154.47
  C 573.31 157.58 576.17 151.34 576.21 146.12
  Q 576.29 135.50 576.25 124.44
  A 0.69 0.68 -90.0 0 1 576.93 123.75
  L 589.74 123.75
  A 1.24 1.24 -88.9 0 1 590.98 125.04
  Q 590.23 143.11 591.28 161.69
  A 0.88 0.79 12.2 0 0 591.78 162.38
  C 593.11 163.00 592.04 163.23 591.46 163.27
  Q 585.09 163.68 577.58 163.47
  A 0.99 0.99 -85.1 0 1 576.63 162.34
  Q 576.99 159.85 576.61 158.78
  Z"
/>
<path fill="#000000" d="
  M 432.11 180.02
  C 434.60 172.66 441.49 170.55 448.81 172.19
  Q 455.35 173.65 456.37 179.69
  A 0.50 0.44 84.5 0 1 455.95 180.27
  L 449.44 180.38
  A 0.83 0.64 76.5 0 1 448.77 179.84
  C 446.97 175.15 440.59 176.44 439.34 180.96
  C 438.23 184.97 438.06 193.17 443.76 193.93
  Q 447.18 194.38 449.05 190.74
  A 0.90 0.88 -76.2 0 1 449.84 190.25
  L 455.60 190.25
  A 0.94 0.94 -85.8 0 1 456.53 191.33
  C 454.43 205.03 424.84 201.57 432.11 180.02
  Z"
/>
<path fill="#000000" d="
  M 159.85 180.56
  L 160.24 197.91
  A 1.11 0.97 -0.5 0 1 159.13 198.90
  L 154.71 198.91
  A 1.21 1.00 -0.0 0 1 153.50 197.91
  L 153.50 173.25
  A 1.24 1.22 -90.0 0 1 154.72 172.01
  L 163.33 172.05
  A 1.13 1.11 -11.5 0 1 164.34 172.71
  L 171.81 189.69
  Q 172.80 191.93 172.75 189.50
  Q 172.60 182.32 172.51 175.14
  C 172.48 173.23 171.92 171.60 174.86 172.01
  Q 175.99 172.18 177.10 171.92
  Q 179.17 171.44 179.14 173.75
  Q 179.00 185.75 179.00 197.82
  A 1.24 1.16 0.7 0 1 177.73 198.98
  L 169.54 198.78
  A 1.30 1.19 -10.4 0 1 168.42 198.08
  C 167.44 195.91 160.94 180.37 160.30 180.13
  A 0.41 0.33 -82.8 0 0 159.85 180.56
  Z"
/>
<rect fill="#000000" x="-3.50" y="-2.62" transform="translate(187.25,174.62) rotate(-0.4)" width="7.00" height="5.24" rx="0.70"/>
<path fill="#000000" d="
  M 202.79 182.02
  Q 203.57 181.71 204.28 181.21
  C 207.14 179.18 211.41 179.69 213.38 181.97
  C 216.25 185.30 215.35 193.25 215.22 197.74
  A 1.25 1.25 -82.8 0 1 213.69 198.93
  Q 211.63 198.46 209.93 198.85
  A 1.46 1.40 83.4 0 1 208.22 197.43
  L 208.00 186.00
  Q 207.96 183.93 205.75 184.25
  C 200.91 184.96 202.50 191.62 202.50 195.10
  C 202.50 200.11 202.28 198.71 198.20 198.87
  Q 197.12 198.91 196.06 198.77
  A 0.60 0.59 -86.1 0 1 195.55 198.18
  L 195.67 172.68
  A 0.57 0.52 -89.9 0 1 196.18 172.12
  L 201.25 172.06
  A 1.29 1.25 -89.8 0 1 202.51 173.37
  L 202.34 181.69
  A 0.34 0.33 80.3 0 0 202.79 182.02
  Z"
/>
<path fill="#000000" d="
  M 297.88 185.02
  Q 297.90 185.35 298.50 185.50
  C 307.74 187.80 304.21 198.72 295.50 198.67
  Q 288.65 198.63 281.99 198.93
  A 0.71 0.71 -1.2 0 1 281.25 198.22
  L 281.25 172.78
  A 0.57 0.57 -0.5 0 1 281.81 172.21
  C 286.65 172.05 296.25 171.39 300.32 173.82
  C 304.40 176.24 303.88 183.35 298.56 184.47
  A 0.81 0.45 -10.1 0 0 297.88 185.02
  Z
  M 288.79 182.83
  C 297.03 185.08 298.92 175.29 288.92 177.09
  A 0.65 0.59 -4.7 0 0 288.38 177.67
  L 288.27 182.19
  A 0.70 0.63 8.6 0 0 288.79 182.83
  Z
  M 288.79 193.83
  C 296.56 196.00 300.65 187.37 288.94 187.51
  A 0.68 0.67 0.0 0 0 288.26 188.18
  L 288.29 193.18
  A 0.69 0.67 -83.3 0 0 288.79 193.83
  Z"
/>
<path fill="#000000" d="
  M 521.69 172.76
  A 0.76 0.76 0.0 0 1 522.45 172.00
  L 528.04 172.00
  A 1.06 1.04 90.0 0 1 529.08 173.06
  L 529.17 193.06
  A 0.53 0.53 1.1 0 0 529.68 193.59
  L 540.19 193.81
  A 0.67 0.47 1.6 0 1 540.84 194.30
  L 540.77 197.92
  A 1.03 0.87 0.2 0 1 539.75 198.77
  L 522.50 198.94
  A 0.74 0.73 -0.4 0 1 521.75 198.21
  L 521.69 172.76
  Z"
/>
<path fill="#000000" d="
  M 572.32 181.70
  Q 573.25 182.66 573.25 181.32
  L 573.25 172.66
  A 0.66 0.66 -89.5 0 1 573.91 172.00
  L 579.24 172.00
  A 1.02 1.01 90.0 0 1 580.25 173.02
  L 580.32 198.26
  A 0.74 0.73 -85.1 0 1 579.46 198.99
  C 577.49 198.65 573.56 199.85 573.50 197.42
  Q 573.48 196.67 572.86 197.10
  C 562.84 204.03 557.83 194.14 560.15 185.49
  C 561.59 180.13 568.19 177.39 572.32 181.70
  Z
  M 569.9299 195.2400
  A 5.77 3.42 90.1 0 0 573.3600 189.4760
  A 5.77 3.42 90.1 0 0 569.9501 183.7000
  A 5.77 3.42 90.1 0 0 566.5200 189.4640
  A 5.77 3.42 90.1 0 0 569.9299 195.2400
  Z"
/>
<path fill="#000000" d="
  M 552.30 185.32
  C 552.22 187.94 550.79 195.78 555.34 194.62
  A 0.94 0.93 76.1 0 1 556.48 195.32
  Q 556.94 197.33 556.54 198.38
  A 1.07 0.81 -0.5 0 1 555.82 198.94
  Q 551.57 199.99 547.55 198.18
  Q 545.76 197.38 545.74 195.67
  L 545.62 185.75
  A 1.07 1.00 88.0 0 0 544.55 184.69
  Q 541.61 184.90 542.10 182.97
  Q 542.22 182.48 542.11 182.02
  C 541.19 178.28 547.06 182.08 545.49 178.48
  A 1.09 1.07 -22.8 0 1 546.09 177.05
  L 551.88 174.70
  A 0.37 0.35 79.7 0 1 552.37 175.06
  L 552.28 179.19
  A 0.88 0.85 -75.4 0 0 552.72 179.97
  Q 553.77 180.53 555.42 180.15
  A 1.04 0.92 -6.1 0 1 556.69 181.05
  L 556.58 184.20
  A 0.67 0.52 -0.3 0 1 555.94 184.70
  L 552.81 184.80
  A 0.53 0.52 -90.0 0 0 552.30 185.32
  Z"
/>
<path fill="#000000" d="
  M 240.41 190.33
  A 8.86 8.86 0.0 0 1 231.55 199.19
  L 227.95 199.19
  A 8.86 8.86 0.0 0 1 219.09 190.33
  L 219.09 188.71
  A 8.86 8.86 0.0 0 1 227.95 179.85
  L 231.55 179.85
  A 8.86 8.86 0.0 0 1 240.41 188.71
  L 240.41 190.33
  Z
  M 229.7286 195.6200
  A 6.12 3.62 90.2 0 0 233.3700 189.5126
  A 6.12 3.62 90.2 0 0 229.7714 183.3800
  A 6.12 3.62 90.2 0 0 226.1300 189.4874
  A 6.12 3.62 90.2 0 0 229.7286 195.6200
  Z"
/>
<path fill="#000000" d="
  M 251.32 182.20
  A 0.27 0.27 -39.6 0 0 251.76 182.24
  C 255.86 177.55 264.06 179.50 263.96 186.50
  Q 263.88 192.47 264.15 197.66
  A 1.32 1.31 5.7 0 1 262.51 199.00
  Q 260.50 198.50 258.49 199.00
  A 0.99 0.99 -7.2 0 1 257.25 198.04
  C 257.25 194.59 258.01 188.09 256.33 185.10
  A 1.39 1.35 -4.5 0 0 255.60 184.50
  C 249.51 182.27 251.17 194.76 251.27 197.70
  A 1.27 1.27 -82.5 0 1 249.63 198.96
  Q 247.86 198.43 245.90 198.95
  A 1.15 1.12 82.4 0 1 244.49 197.84
  L 244.27 181.00
  A 0.56 0.49 88.4 0 1 244.74 180.43
  L 250.44 180.27
  A 0.56 0.47 88.3 0 1 250.92 180.81
  Q 250.95 181.55 251.32 182.20
  Z"
/>
<path fill="#000000" d="
  M 338.27 185.91
  Q 341.51 187.43 344.95 188.44
  C 350.46 190.04 349.34 197.16 344.54 198.62
  C 340.17 199.94 331.34 200.21 330.74 193.66
  A 0.79 0.70 88.1 0 1 331.46 192.80
  L 336.57 193.00
  A 1.21 0.93 74.6 0 1 337.47 193.68
  C 339.71 198.29 344.67 193.27 340.00 192.00
  C 336.81 191.13 332.16 190.21 331.26 186.71
  C 329.21 178.72 345.98 176.80 348.19 184.82
  A 0.95 0.86 -6.3 0 1 347.23 185.91
  L 342.95 185.78
  A 1.36 1.19 -11.2 0 1 341.82 185.13
  C 340.41 182.37 336.75 182.95 337.61 185.24
  A 1.38 1.05 8.1 0 0 338.27 185.91
  Z"
/>
<path fill="#000000" d="
  M 351.57 193.28
  Q 354.50 192.41 357.19 193.21
  A 1.17 1.16 84.4 0 1 357.91 193.81
  Q 359.30 196.67 361.94 194.94
  Q 363.95 193.61 361.06 192.44
  C 357.49 190.99 348.86 189.52 351.90 183.59
  C 354.39 178.73 363.27 178.57 366.82 182.06
  Q 371.69 186.83 362.80 185.75
  A 0.82 0.74 83.5 0 1 362.17 185.20
  Q 361.11 181.96 358.36 183.86
  Q 356.62 185.06 358.55 185.93
  C 362.47 187.70 369.05 187.88 368.94 193.44
  C 368.79 200.96 352.59 201.71 351.03 194.17
  A 0.77 0.77 -13.9 0 1 351.57 193.28
  Z"
/>
<path fill="#000000" d="
  M 383.89 197.20
  Q 383.97 196.52 383.46 196.97
  C 379.74 200.26 372.97 200.32 371.68 194.97
  C 369.92 187.68 378.25 186.87 383.00 186.75
  A 1.00 0.73 8.9 0 0 383.78 186.35
  C 384.90 184.37 381.83 181.13 379.07 185.01
  A 1.74 1.65 -71.2 0 1 377.70 185.73
  L 373.80 185.73
  A 1.17 1.12 -77.0 0 1 372.81 184.07
  C 375.04 179.26 381.59 179.10 386.01 180.21
  C 392.64 181.88 390.13 192.52 390.63 197.62
  Q 390.80 199.42 388.11 198.93
  Q 387.40 198.80 386.68 198.90
  Q 383.63 199.34 383.89 197.20
  Z
  M 378.44 191.94
  Q 376.68 194.83 379.56 195.19
  Q 383.94 195.73 384.00 191.30
  A 0.93 0.92 3.0 0 0 383.16 190.37
  Q 379.61 190.01 378.44 191.94
  Z"
/>
<path fill="#000000" d="
  M 401.79 181.84
  Q 401.83 182.44 402.31 182.08
  Q 406.10 179.19 409.56 179.93
  C 417.12 181.56 414.58 192.06 414.91 197.70
  A 1.29 1.28 6.6 0 1 413.26 199.00
  Q 411.60 198.51 409.39 199.08
  A 1.13 1.12 83.1 0 1 407.99 197.98
  C 408.01 196.13 409.35 178.78 402.84 185.39
  A 1.61 1.43 74.7 0 0 402.42 186.24
  Q 401.50 191.85 402.25 197.51
  A 1.17 1.09 86.4 0 1 401.16 198.84
  L 395.81 198.74
  A 0.54 0.51 -89.5 0 1 395.31 198.20
  C 395.24 193.87 396.17 185.18 394.81 181.42
  A 0.88 0.86 80.2 0 1 395.62 180.25
  L 401.19 180.29
  A 0.55 0.54 88.8 0 1 401.72 180.81
  L 401.79 181.84
  Z"
/>
<path fill="#000000" d="
  M 480.92 190.32
  A 8.87 8.87 0.0 0 1 472.05 199.19
  L 468.45 199.19
  A 8.87 8.87 0.0 0 1 459.58 190.32
  L 459.58 188.72
  A 8.87 8.87 0.0 0 1 468.45 179.85
  L 472.05 179.85
  A 8.87 8.87 0.0 0 1 480.92 188.72
  L 480.92 190.32
  Z
  M 470.2507 195.6500
  A 6.14 3.62 89.9 0 0 473.8600 189.5037
  A 6.14 3.62 89.9 0 0 470.2293 183.3700
  A 6.14 3.62 89.9 0 0 466.6200 189.5163
  A 6.14 3.62 89.9 0 0 470.2507 195.6500
  Z"
/>
<rect fill="#000000" x="-3.50" y="-9.31" transform="translate(187.25,189.56) rotate(0.1)" width="7.00" height="18.62" rx="0.62"/>
<path fill="#000000" d="
  M 320.68 196.91
  A 0.08 0.08 75.0 0 0 320.56 196.84
  C 305.43 205.69 307.11 188.56 307.65 180.93
  A 0.61 0.54 -88.2 0 1 308.18 180.37
  L 313.49 180.33
  A 1.16 1.03 89.2 0 1 314.53 181.47
  L 314.75 193.27
  A 1.62 1.51 1.7 0 0 316.25 194.75
  C 320.44 195.05 320.22 192.70 320.35 189.63
  Q 320.52 185.32 320.50 181.01
  A 0.60 0.49 90.0 0 1 320.99 180.41
  L 326.21 180.38
  A 1.19 1.05 89.5 0 1 327.27 181.56
  L 327.42 198.19
  A 0.55 0.50 89.5 0 1 326.93 198.74
  L 321.25 198.79
  A 0.55 0.54 88.9 0 1 320.71 198.26
  L 320.68 196.91
  Z"
/>
<rect fill="#000000" x="-3.28" y="-2.80" transform="translate(488.60,196.07) rotate(0.3)" width="6.56" height="5.60" rx="0.77"/>
<path fill="#000000" d="
  M 498.39 194.39
  A 1.05 1.01 -83.4 0 1 499.37 193.58
  L 504.95 193.53
  A 0.35 0.33 -77.7 0 1 505.25 194.02
  L 501.29 202.87
  A 0.98 0.96 6.9 0 1 500.58 203.41
  Q 498.67 203.75 496.79 203.31
  A 0.52 0.50 -77.0 0 1 496.42 202.69
  L 498.39 194.39
  Z"
/>
<path fill="#000000" d="
  M 591.76 193.60
  A 0.82 0.74 -88.9 0 1 592.47 194.42
  L 592.47 197.94
  A 0.61 0.52 -90.0 0 1 591.95 198.55
  L 586.02 198.55
  A 0.67 0.64 90.0 0 1 585.38 197.88
  L 585.35 193.93
  A 0.57 0.56 -89.0 0 1 585.93 193.36
  L 591.76 193.60
  Z"
/>
</svg>
