<?xml version="1.0" encoding="UTF-8" standalone="no"?>
<!DOCTYPE svg PUBLIC "-//W3C//DTD SVG 1.1//EN" "http://www.w3.org/Graphics/SVG/1.1/DTD/svg11.dtd">
<svg xmlns="http://www.w3.org/2000/svg" version="1.1" viewBox="0 0 600 300">
<path fill="#000000" d="
  M 355.44 67.94
  C 366.48 55.21 389.71 61.21 391.24 78.75
  C 392.41 92.28 384.17 101.97 370.92 102.29
  C 352.65 102.72 343.70 81.45 355.44 67.94
  Z"
/>
<path fill="#000000" d="
  M 424.50 79.75
  C 425.36 67.17 437.73 58.75 449.38 61.56
  C 474.89 67.71 469.16 105.01 441.50 102.00
  C 430.35 100.79 423.76 90.54 424.50 79.75
  Z"
/>
<path fill="#000000" d="
  M 263.78 193.83
  Q 264.05 194.82 264.31 193.83
  L 296.06 72.66
  A 0.65 0.65 7.5 0 1 296.69 72.18
  L 332.44 72.01
  A 0.57 0.56 -88.1 0 1 333.01 72.63
  Q 332.84 74.66 332.31 76.52
  Q 312.27 146.22 292.50 216.00
  C 285.75 239.83 257.14 249.12 243.69 224.56
  Q 240.29 218.36 238.95 213.51
  Q 226.48 168.36 213.68 121.80
  Q 213.22 120.12 212.76 121.80
  Q 200.33 167.15 188.00 211.50
  C 184.18 225.24 176.45 238.85 160.21 238.97
  C 141.99 239.10 135.68 221.76 131.51 207.15
  Q 112.34 140.07 93.11 72.50
  A 0.39 0.39 82.0 0 1 93.48 72.00
  L 129.64 72.00
  A 0.80 0.80 82.4 0 1 130.41 72.59
  C 133.19 83.20 162.00 194.05 162.56 193.97
  A 0.81 0.49 -88.8 0 0 163.02 193.24
  Q 163.10 192.23 163.50 190.75
  Q 178.38 135.06 188.25 95.50
  C 190.78 85.36 195.53 76.73 205.31 72.30
  C 219.94 65.67 233.86 78.76 237.35 92.43
  Q 250.31 143.25 263.78 193.83
  Z"
/>
<rect fill="#000000" x="353.74" y="123.00" width="34.26" height="114.00" rx="0.52"/>
<rect fill="#000000" x="427.75" y="123.00" width="34.50" height="114.00" rx="0.57"/>
<path fill="#000000" d="
  M 480.95 222.93
  C 479.49 222.58 475.51 223.52 476.13 221.53
  A 0.72 0.68 8.2 0 1 476.81 221.05
  L 488.44 221.05
  A 0.69 0.62 -5.7 0 1 489.10 221.53
  C 489.61 223.63 485.36 222.52 484.01 223.10
  A 0.74 0.69 77.6 0 0 483.59 223.81
  Q 483.85 229.13 483.76 234.45
  C 483.74 235.76 484.09 237.58 482.05 237.08
  A 0.66 0.63 -84.0 0 1 481.56 236.44
  L 481.44 223.56
  A 0.65 0.63 -83.9 0 0 480.95 222.93
  Z"
/>
<path fill="#000000" d="
  M 498.25 232.83
  Q 498.91 234.62 499.55 232.82
  Q 501.42 227.56 503.33 222.92
  C 504.07 221.11 503.72 220.53 506.50 221.17
  A 0.66 0.65 -83.3 0 1 507.00 221.81
  L 507.00 236.25
  A 1.07 0.80 77.8 0 1 506.62 237.08
  Q 506.00 237.49 505.42 237.04
  A 1.19 0.85 -77.9 0 1 505.05 236.18
  L 505.00 226.23
  Q 504.99 223.39 503.98 226.06
  L 500.30 235.83
  Q 498.90 239.55 497.58 235.89
  L 493.82 225.54
  A 0.46 0.30 61.6 0 0 493.24 225.22
  C 492.42 226.17 494.40 239.14 491.20 236.99
  A 1.01 0.85 -75.8 0 1 490.81 236.19
  L 490.75 221.83
  A 0.68 0.67 -7.2 0 1 491.26 221.18
  Q 493.60 220.60 494.16 222.04
  Q 496.41 227.84 498.25 232.83
  Z"
/>
</svg>
