<?xml version="1.0" encoding="UTF-8" standalone="no"?>
<!DOCTYPE svg PUBLIC "-//W3C//DTD SVG 1.1//EN" "http://www.w3.org/Graphics/SVG/1.1/DTD/svg11.dtd">
<svg xmlns="http://www.w3.org/2000/svg" version="1.1" viewBox="0 0 600 300">
<path fill="#000000" d="
  M 135.51 94.81
  L 135.24 97.19
  A 0.88 0.78 84.4 0 1 134.73 97.89
  L 125.71 101.16
  Q 123.66 101.91 123.29 103.85
  C 116.53 139.08 86.69 260.71 24.69 224.56
  C 20.79 222.29 2.98 210.72 5.33 206.72
  Q 6.74 204.31 8.93 206.05
  C 17.22 212.67 24.29 222.18 36.18 219.88
  C 78.15 211.77 93.62 140.05 98.46 106.06
  A 0.79 0.79 88.7 0 0 97.53 105.17
  Q 77.60 108.79 57.50 110.50
  C 52.54 110.92 52.06 107.60 48.32 107.66
  A 0.67 0.55 -5.1 0 1 47.67 107.22
  Q 47.41 105.90 48.81 105.06
  Q 51.77 103.30 49.06 101.19
  Q 46.99 99.57 45.94 97.21
  A 0.95 0.89 51.3 0 1 46.01 96.32
  C 46.94 94.95 55.38 94.47 49.48 92.69
  Q 47.69 92.15 48.89 89.00
  A 2.16 2.16 -83.3 0 1 50.62 87.63
  C 55.46 86.99 60.43 88.36 65.35 87.77
  C 72.02 86.97 80.58 84.60 88.20 83.50
  Q 121.90 78.63 130.75 77.25
  Q 131.73 77.10 134.38 76.41
  C 137.15 75.70 139.19 73.81 142.24 73.19
  C 148.86 71.86 155.41 69.98 163.01 69.34
  C 170.94 68.68 178.58 67.59 186.62 66.09
  A 1.58 1.57 83.4 0 1 188.48 67.57
  C 188.55 69.13 183.45 71.21 181.70 71.31
  C 174.30 71.74 167.16 71.55 162.94 74.69
  Q 159.80 77.02 163.00 77.25
  L 166.75 77.52
  A 1.13 0.49 -1.7 0 1 167.60 77.86
  Q 167.93 78.40 166.93 78.84
  Q 163.91 80.18 162.01 83.61
  Q 161.19 85.08 159.53 85.38
  Q 157.86 85.67 155.87 86.13
  C 152.24 86.97 150.66 89.93 147.19 90.94
  Q 141.61 92.54 136.04 94.17
  A 0.74 0.74 84.8 0 0 135.51 94.81
  Z"
/>
<path fill="#000000" d="
  M 312.56 174.14
  C 309.50 176.91 307.30 181.21 305.37 183.50
  Q 298.58 191.53 288.50 195.25
  Q 286.92 195.83 281.75 195.17
  C 279.76 194.92 277.59 196.04 276.47 193.16
  A 1.76 1.52 -85.7 0 0 275.91 192.40
  C 271.82 189.34 272.29 186.33 272.07 180.62
  Q 271.57 168.02 275.02 155.94
  C 276.35 151.28 279.30 145.17 280.44 141.19
  Q 282.62 133.52 286.40 126.56
  Q 288.20 123.23 289.17 119.98
  Q 294.06 103.53 303.08 88.87
  Q 306.54 83.25 313.31 81.68
  Q 315.69 81.13 316.81 83.29
  C 318.14 85.84 318.76 88.83 320.83 91.05
  Q 322.03 92.34 323.37 93.76
  A 1.22 1.21 -53.8 0 1 323.58 95.13
  Q 318.85 105.04 312.83 113.83
  Q 310.82 116.76 311.63 120.27
  A 1.59 1.24 56.9 0 1 311.55 121.22
  Q 310.73 123.02 309.00 124.07
  A 1.91 1.48 -8.5 0 0 308.33 124.77
  C 306.82 127.79 306.52 130.69 304.60 133.38
  Q 302.63 136.14 300.39 138.70
  A 1.40 1.28 68.3 0 0 300.06 139.57
  C 299.87 146.91 293.89 149.49 292.58 156.24
  Q 292.03 159.09 291.30 160.67
  Q 287.58 168.62 285.53 177.16
  C 281.91 192.19 297.20 179.14 300.06 177.03
  C 305.50 173.00 309.42 166.95 314.56 162.81
  C 319.07 159.17 319.49 156.34 321.47 151.42
  Q 323.83 145.56 326.32 139.75
  C 328.90 133.71 327.28 127.14 331.42 121.75
  C 333.47 119.09 333.32 115.53 334.71 113.01
  Q 341.49 100.77 342.94 97.69
  C 344.96 93.41 347.75 89.15 353.10 92.95
  A 1.58 1.40 59.4 0 0 354.00 93.24
  C 368.03 93.13 358.04 100.28 363.77 104.05
  A 1.70 1.14 15.9 0 1 364.38 104.77
  C 365.42 107.66 360.98 111.90 359.97 114.61
  C 353.69 131.49 344.27 149.92 337.67 168.17
  C 336.58 171.16 334.22 178.85 334.46 182.03
  C 334.74 185.83 334.39 188.18 338.96 188.26
  Q 340.74 188.29 341.77 186.82
  Q 347.35 178.85 352.76 170.61
  C 353.15 170.02 353.26 168.80 352.06 169.31
  Q 349.21 170.54 346.99 170.52
  A 0.96 0.69 -9.2 0 1 346.19 170.12
  C 345.81 169.35 350.79 167.58 348.06 162.93
  Q 346.64 160.52 349.43 160.48
  C 354.04 160.42 363.07 151.86 366.11 148.98
  C 371.39 143.96 372.87 136.88 377.66 131.31
  C 379.51 129.16 380.73 126.87 382.91 125.00
  Q 388.27 120.39 391.83 114.31
  C 395.59 107.90 400.62 103.17 406.34 98.60
  Q 408.44 96.93 410.18 94.89
  A 1.45 1.29 67.5 0 0 410.49 94.00
  L 410.54 88.82
  A 1.29 0.79 79.2 0 1 410.88 87.93
  L 415.25 84.40
  A 0.56 0.47 53.9 0 1 415.99 84.58
  Q 418.51 88.34 422.50 89.93
  C 424.75 90.82 428.72 90.14 430.58 92.14
  C 433.50 95.27 430.97 97.79 430.31 100.51
  Q 426.77 115.00 426.50 127.50
  Q 426.14 144.07 424.20 157.75
  C 422.37 170.70 423.44 183.58 421.87 196.67
  Q 420.94 204.37 419.75 216.75
  C 419.59 218.39 420.14 218.84 420.28 220.02
  C 420.79 224.52 418.64 220.96 418.46 220.08
  Q 417.94 217.52 416.32 215.66
  C 413.99 212.96 413.22 212.47 414.94 209.19
  C 416.52 206.18 412.60 203.38 414.27 201.61
  A 0.79 0.79 51.1 0 0 414.37 200.65
  C 411.17 195.53 411.36 191.95 410.62 186.12
  C 410.40 184.45 410.64 183.57 408.44 183.49
  A 0.91 0.91 89.7 0 1 407.56 182.62
  Q 407.31 177.89 406.95 173.87
  C 406.72 171.30 406.99 167.44 405.69 164.31
  C 403.78 159.74 405.87 154.08 406.50 148.25
  C 406.95 144.10 404.95 145.70 402.99 146.45
  Q 392.78 150.40 383.85 156.67
  C 381.70 158.19 380.25 158.07 377.81 158.48
  A 1.43 1.38 15.6 0 0 376.98 158.93
  Q 372.72 163.64 370.56 168.06
  C 364.26 180.96 359.19 191.35 352.13 201.77
  Q 350.78 203.77 348.45 205.85
  Q 345.54 208.46 344.81 210.06
  Q 341.41 217.55 335.75 223.38
  A 0.74 0.73 -36.2 0 1 334.57 223.20
  Q 333.61 221.33 332.84 222.55
  Q 332.18 223.60 331.26 224.43
  Q 329.03 226.47 327.74 224.99
  A 0.93 0.93 34.5 0 0 326.16 225.28
  Q 325.04 228.33 321.98 229.36
  A 1.06 1.02 52.2 0 1 321.07 229.23
  C 314.16 224.58 322.28 218.24 324.41 213.56
  Q 327.78 206.18 331.01 198.73
  Q 331.85 196.79 329.97 197.77
  C 326.14 199.76 321.40 203.44 317.06 200.19
  C 311.27 195.84 311.82 181.33 312.86 174.31
  Q 312.94 173.81 312.56 174.14
  Z
  M 404.55 114.32
  C 397.73 118.43 391.80 128.52 388.66 135.67
  C 387.26 138.85 389.97 137.12 390.68 136.51
  Q 394.43 133.31 398.82 131.15
  C 402.04 129.57 404.14 130.74 404.27 125.59
  Q 404.33 123.00 405.33 120.61
  Q 406.15 118.67 405.94 115.04
  A 0.92 0.91 -17.3 0 0 404.55 114.32
  Z"
/>
<path fill="#000000" d="
  M 491.80 136.20
  C 496.20 139.88 496.47 141.24 503.26 141.25
  Q 505.06 141.25 506.06 139.73
  L 517.41 122.36
  A 1.86 1.52 -33.4 0 0 517.70 121.43
  Q 517.69 117.68 514.22 116.07
  Q 509.87 114.05 505.73 111.17
  A 2.40 2.39 57.1 0 0 503.93 110.78
  Q 499.16 111.67 495.51 111.91
  C 488.81 112.36 486.76 117.55 484.38 122.81
  Q 483.66 124.41 482.89 122.84
  C 481.91 120.84 480.57 121.32 480.09 123.16
  C 478.69 128.51 478.35 131.72 474.06 136.31
  C 469.56 141.14 467.37 157.25 465.93 163.99
  C 465.24 167.26 463.67 169.75 463.48 173.14
  C 463.17 178.68 460.84 182.60 460.25 189.50
  Q 459.64 196.72 456.93 201.75
  A 1.19 1.01 -78.7 0 1 456.20 202.33
  Q 454.65 202.64 455.28 200.37
  C 456.15 197.22 453.88 198.64 453.27 199.91
  C 450.85 204.97 449.17 210.13 446.54 215.13
  Q 444.71 218.61 443.14 222.22
  A 1.37 0.86 -79.7 0 1 442.50 222.92
  C 441.54 223.29 437.76 214.70 437.28 223.30
  C 437.11 226.19 434.92 227.90 434.92 230.69
  A 0.36 0.35 -81.1 0 1 434.46 231.03
  L 433.23 230.65
  A 0.90 0.79 -55.4 0 0 432.39 230.86
  C 430.14 232.93 428.87 230.17 429.14 228.29
  Q 429.41 226.34 430.07 224.48
  A 1.35 1.34 44.7 0 0 430.06 223.54
  C 428.03 218.19 433.09 210.62 435.76 206.06
  Q 436.62 204.60 436.44 202.92
  Q 436.24 201.02 437.27 198.93
  A 1.17 1.08 50.0 0 0 437.31 198.04
  Q 436.26 195.29 438.53 193.48
  A 1.84 1.43 -15.7 0 0 439.10 192.71
  C 439.92 190.31 441.07 185.27 442.85 183.16
  C 445.39 180.16 445.75 180.34 445.00 176.47
  Q 444.58 174.27 445.28 172.15
  C 447.35 165.91 449.33 156.88 453.16 151.10
  A 1.57 1.52 61.3 0 0 453.41 150.19
  Q 453.14 144.40 455.98 139.53
  Q 457.18 137.47 457.60 135.52
  C 458.54 131.24 460.34 127.79 460.75 123.27
  Q 460.81 122.60 460.32 123.06
  Q 454.66 128.32 447.00 127.32
  A 1.42 1.20 69.4 0 1 446.18 126.86
  Q 443.78 124.13 439.99 124.23
  A 0.99 0.97 -19.5 0 1 439.20 123.86
  Q 436.72 120.74 433.15 119.02
  A 1.03 0.91 8.9 0 1 432.58 118.33
  C 431.70 113.52 437.27 111.07 439.79 108.02
  C 441.61 105.82 440.82 104.00 444.56 102.56
  Q 450.70 100.21 474.82 90.14
  Q 479.15 88.33 482.96 87.93
  C 486.55 87.54 492.45 88.12 495.56 86.66
  C 498.19 85.43 499.07 82.52 503.27 83.07
  C 511.17 84.09 518.50 84.44 523.69 86.06
  C 528.99 87.72 531.56 91.46 536.07 94.48
  C 538.02 95.78 538.88 97.56 540.78 99.01
  Q 541.07 99.24 541.38 99.77
  L 543.49 103.48
  Q 545.39 106.82 545.26 108.89
  C 544.90 114.35 545.34 120.22 543.25 125.13
  Q 540.75 130.99 536.39 135.70
  C 534.98 137.21 533.00 138.17 531.31 139.61
  Q 530.98 139.89 530.77 140.41
  C 529.08 144.47 523.35 145.17 520.69 147.94
  Q 518.55 150.15 516.83 150.53
  Q 514.58 151.03 516.40 152.43
  Q 522.07 156.79 525.68 162.25
  Q 530.30 169.26 530.37 169.35
  Q 533.23 172.93 536.51 176.14
  Q 538.50 178.08 543.38 181.31
  C 550.73 186.17 556.05 193.14 563.69 198.06
  C 565.82 199.43 568.67 202.02 570.79 204.30
  Q 580.68 214.91 592.44 225.71
  A 4.01 3.91 15.1 0 1 593.61 227.69
  C 594.49 231.39 591.97 228.54 591.28 228.07
  C 587.01 225.11 582.96 223.02 579.23 219.15
  Q 572.92 212.62 565.17 207.85
  C 559.35 204.26 556.22 198.68 549.60 196.08
  C 542.36 193.24 541.69 187.67 536.12 183.58
  C 528.80 178.19 521.96 169.80 518.64 166.06
  A 1.44 0.97 63.5 0 0 517.83 165.60
  L 516.06 165.44
  A 1.71 0.57 -2.7 0 1 515.14 165.18
  L 507.32 159.62
  Q 506.90 159.32 506.44 159.25
  Q 504.45 158.95 503.19 157.56
  Q 500.58 154.70 497.50 153.04
  Q 497.03 152.79 497.09 153.32
  C 497.68 158.25 517.72 173.46 520.30 175.52
  C 522.60 177.35 524.04 179.50 525.76 181.79
  A 1.42 1.27 -10.2 0 0 526.55 182.28
  C 530.88 183.24 537.00 189.90 539.69 193.31
  C 542.09 196.38 546.71 199.91 550.97 202.55
  Q 562.11 209.46 570.35 219.71
  Q 571.86 221.58 573.71 222.64
  C 576.53 224.24 579.50 224.98 580.45 228.70
  Q 580.58 229.21 580.90 229.54
  Q 584.20 233.01 592.81 241.44
  Q 594.05 242.65 595.22 243.14
  A 1.06 0.83 10.0 0 1 595.81 243.80
  C 596.14 245.46 594.95 245.57 594.00 244.63
  Q 587.89 238.57 584.94 236.56
  C 575.47 230.13 567.50 222.06 557.71 216.03
  C 549.98 211.27 541.92 202.17 537.19 196.56
  C 535.12 194.12 532.92 193.55 531.08 192.21
  C 526.54 188.88 522.05 185.48 517.14 182.72
  C 512.92 180.35 508.08 173.00 501.74 166.09
  C 497.01 160.93 489.79 157.36 483.94 153.39
  A 0.76 0.75 23.3 0 1 483.62 152.60
  Q 484.31 149.42 486.40 147.85
  A 1.16 1.03 30.9 0 1 487.31 147.68
  C 489.54 148.21 491.82 149.45 493.49 146.94
  A 0.73 0.73 43.0 0 0 493.46 146.10
  C 490.96 142.75 484.61 141.60 489.82 136.30
  A 1.46 1.45 -47.7 0 1 491.80 136.20
  Z"
/>
<path fill="#000000" d="
  M 112.24 209.47
  C 110.59 213.24 108.38 216.54 106.78 220.41
  C 105.18 224.25 106.23 216.87 106.25 216.74
  Q 106.44 215.40 105.36 216.21
  C 101.52 219.11 104.18 224.54 98.42 226.19
  A 0.31 0.31 87.7 0 1 98.03 225.83
  C 99.65 217.87 101.41 210.46 105.61 203.22
  Q 115.57 186.02 124.13 167.92
  Q 124.70 166.72 124.74 165.39
  Q 124.84 162.74 122.42 164.20
  A 1.60 1.60 -27.9 0 1 120.14 163.50
  C 118.36 159.64 123.29 159.33 125.76 158.16
  C 129.80 156.24 134.53 146.02 136.48 141.91
  C 141.29 131.79 146.03 124.39 152.22 116.06
  Q 153.31 114.59 153.79 112.45
  Q 154.94 107.29 158.44 103.19
  C 161.37 99.75 161.82 94.42 166.06 91.81
  Q 168.03 90.61 167.75 92.75
  Q 167.50 94.70 168.97 94.34
  A 1.16 0.84 -78.6 0 0 169.64 93.72
  C 171.93 88.83 175.24 90.42 179.16 89.06
  C 182.78 87.80 188.95 84.30 188.43 92.00
  Q 188.26 94.57 189.90 95.24
  Q 191.92 96.06 191.82 98.23
  C 191.07 114.78 189.30 131.27 189.11 147.24
  Q 188.79 174.84 189.18 202.44
  A 0.99 0.75 78.2 0 1 188.80 203.25
  C 187.91 203.79 185.81 199.68 185.31 198.93
  Q 184.25 197.36 183.78 199.18
  L 181.55 207.80
  Q 181.30 208.76 180.66 208.00
  Q 179.80 207.00 179.93 205.50
  Q 179.97 205.03 179.82 204.53
  L 177.19 195.56
  Q 176.60 193.57 176.19 195.44
  C 176.13 195.69 174.25 204.09 173.20 199.19
  C 171.85 192.83 174.02 186.27 170.75 181.25
  C 168.49 177.78 169.70 158.14 169.50 152.74
  A 1.09 1.09 73.5 0 0 167.85 151.84
  C 159.95 156.56 150.77 158.57 142.33 162.35
  C 137.67 164.44 135.31 172.38 133.66 176.81
  Q 129.76 187.32 125.27 197.58
  C 122.81 203.18 118.64 208.54 116.05 214.63
  Q 115.62 215.62 115.23 215.90
  Q 113.98 216.81 114.24 215.28
  Q 114.79 212.19 113.31 209.43
  Q 112.73 208.35 112.24 209.47
  Z
  M 166.05 117.81
  C 158.01 126.99 153.43 138.46 147.95 149.27
  Q 147.07 151.02 148.97 150.57
  Q 150.74 150.15 151.94 148.93
  Q 152.55 148.31 153.32 147.92
  Q 159.79 144.56 164.49 142.06
  C 167.48 140.47 168.85 140.29 168.50 136.75
  Q 168.01 131.80 169.12 120.01
  Q 169.72 113.61 166.05 117.81
  Z"
/>
<path fill="#000000" d="
  M 230.96 158.24
  C 233.93 155.72 234.55 151.85 236.94 150.19
  Q 245.56 144.18 254.25 141.50
  Q 259.26 139.96 262.67 137.54
  C 264.46 136.27 264.58 134.65 267.09 136.93
  Q 268.31 138.04 269.91 137.65
  C 275.73 136.25 273.14 141.98 272.79 144.45
  C 271.36 154.37 267.82 164.47 266.69 171.94
  C 266.14 175.57 266.28 181.99 266.14 187.53
  Q 265.97 194.34 268.41 200.15
  Q 269.18 201.99 267.46 200.97
  Q 261.09 197.20 257.31 191.19
  Q 255.68 188.58 254.56 191.06
  C 252.93 194.69 248.45 197.38 245.61 200.15
  A 1.92 1.73 -70.7 0 1 244.77 200.61
  Q 237.81 202.24 230.76 201.45
  Q 228.45 201.19 225.02 199.64
  C 222.07 198.31 219.68 198.19 217.13 196.04
  Q 212.64 192.27 205.69 185.81
  C 202.34 182.70 200.15 175.55 199.28 171.14
  C 194.18 145.41 201.19 123.03 219.64 104.89
  Q 223.68 100.93 227.69 96.94
  C 231.39 93.25 241.62 91.83 246.29 90.16
  C 250.89 88.52 251.31 93.17 255.45 92.86
  A 0.83 0.82 -17.8 0 1 256.20 93.24
  L 259.56 98.69
  Q 260.55 100.29 262.44 100.56
  Q 266.53 101.15 263.39 103.54
  A 1.17 1.16 45.4 0 0 263.38 105.38
  Q 264.53 106.29 263.79 107.62
  C 262.75 109.49 259.35 109.76 257.50 109.52
  C 252.61 108.89 248.06 112.65 243.73 114.45
  Q 238.26 116.73 235.76 118.42
  C 216.79 131.21 201.21 160.42 220.56 180.78
  C 226.39 186.92 234.03 189.53 242.32 189.89
  C 245.96 190.04 249.21 188.54 252.04 186.60
  Q 254.00 185.25 252.96 183.10
  C 250.00 177.04 251.46 168.97 252.88 162.61
  C 253.15 161.41 257.06 151.51 251.99 153.50
  Q 250.33 154.16 248.57 153.95
  C 242.47 153.24 235.20 158.66 229.80 161.35
  C 225.49 163.51 230.74 158.43 230.96 158.24
  Z"
/>
<path fill="#000000" d="
  M 473.74 155.41
  A 0.82 0.81 5.3 0 1 474.56 154.74
  Q 480.30 154.83 484.96 156.98
  C 488.69 158.71 492.78 162.91 496.97 165.71
  Q 497.56 166.11 497.99 166.66
  C 501.86 171.66 505.94 176.72 510.81 180.56
  C 512.54 181.93 512.57 183.78 513.88 185.03
  C 516.40 187.41 519.42 187.58 521.23 191.36
  Q 521.45 191.82 521.85 192.11
  Q 529.75 197.76 536.05 205.12
  Q 537.62 206.95 539.69 207.99
  C 545.75 211.02 553.72 214.75 557.05 220.01
  A 1.68 1.59 84.6 0 0 557.77 220.64
  Q 562.77 222.89 565.44 226.31
  Q 574.14 237.45 583.49 244.72
  C 584.62 245.60 585.61 248.10 582.43 245.87
  Q 575.54 241.05 568.90 235.90
  C 567.37 234.71 564.73 234.32 563.69 233.31
  Q 558.22 228.03 552.69 222.81
  C 545.97 216.48 537.44 212.81 530.49 206.88
  C 524.07 201.41 517.27 196.17 511.29 190.23
  Q 509.50 188.45 506.91 187.45
  A 4.45 4.41 84.3 0 1 504.73 185.65
  Q 498.86 176.21 489.20 169.55
  Q 487.01 168.04 485.93 165.54
  A 2.12 2.12 82.9 0 0 484.34 164.30
  C 478.74 163.32 472.22 163.72 473.74 155.41
  Z"
/>
<path fill="#000000" d="
  M 497.78 182.74
  C 499.07 189.75 513.42 200.84 518.74 206.00
  Q 521.08 208.27 522.47 211.01
  A 2.82 2.79 81.2 0 0 524.48 212.50
  C 527.97 213.11 533.56 215.91 534.42 219.75
  A 1.89 1.23 -83.6 0 0 534.85 220.60
  Q 540.29 225.96 544.06 227.69
  Q 546.73 228.91 548.04 230.63
  C 551.25 234.86 555.50 237.99 560.31 240.11
  Q 562.87 241.24 564.57 242.78
  Q 572.12 249.60 580.21 255.77
  Q 584.60 259.12 587.37 262.36
  Q 588.27 263.41 589.47 264.07
  Q 593.26 266.14 593.70 268.75
  A 1.00 0.77 70.0 0 1 593.42 269.62
  Q 592.82 270.10 592.38 268.91
  A 2.91 2.86 7.8 0 0 591.33 267.55
  C 587.81 265.08 585.04 263.01 580.92 260.57
  C 577.55 258.57 574.23 255.53 571.55 253.64
  Q 554.38 241.58 538.12 228.32
  C 535.10 225.86 531.88 224.36 530.14 220.28
  Q 529.51 218.82 528.02 218.28
  Q 521.33 215.82 516.62 211.27
  C 508.49 203.42 500.54 196.13 493.49 187.20
  A 1.94 1.39 -0.8 0 0 492.70 186.65
  C 487.69 184.84 491.37 179.93 484.25 179.00
  C 479.82 178.42 480.77 172.94 475.65 171.47
  Q 474.01 171.00 473.24 169.48
  C 471.85 166.74 478.14 167.34 479.73 168.77
  Q 482.94 171.67 486.96 172.99
  C 493.11 175.02 496.58 176.20 497.78 182.74
  Z"
/>
</svg>
