<?xml version="1.0" encoding="UTF-8" standalone="no"?>
<!DOCTYPE svg PUBLIC "-//W3C//DTD SVG 1.1//EN" "http://www.w3.org/Graphics/SVG/1.1/DTD/svg11.dtd">
<svg xmlns="http://www.w3.org/2000/svg" version="1.1" viewBox="0.00 0.00 600.00 146.00">
<path fill="#e2dacb" d="
  M 5.14 0.00
  C 7.71 0.76 8.63 2.41 8.63 5.13
  Q 8.62 139.06 8.63 140.98
  C 8.66 146.62 2.18 147.26 0.00 142.50
  L 0.00 3.33
  Q 0.95 0.80 3.42 0.00
  L 5.14 0.00
  Z"
/>
<path fill="#e2dacb" d="
  M 16.22 0.00
  C 18.82 0.73 19.78 2.41 19.78 5.16
  Q 19.78 133.17 19.78 141.18
  A 5.09 4.83 -8.2 0 1 16.06 145.89
  Q 15.97 145.92 15.89 145.91
  Q 11.17 145.32 11.17 141.20
  Q 11.17 78.31 11.17 3.75
  Q 11.17 1.05 14.69 0.00
  L 16.22 0.00
  Z"
/>
<path fill="#e2dacb" d="
  M 27.39 0.00
  C 30.07 0.79 30.90 2.48 30.90 5.28
  Q 30.90 117.25 30.91 141.19
  Q 30.91 144.63 27.18 145.87
  Q 27.09 145.90 27.00 145.89
  Q 22.32 145.25 22.32 141.20
  Q 22.31 64.43 22.32 4.99
  C 22.32 2.36 23.33 0.77 25.77 0.00
  L 27.39 0.00
  Z"
/>
<path fill="#e2dacb" d="
  M 38.48 0.00
  Q 42.11 0.95 42.12 4.23
  Q 42.16 15.30 42.04 26.77
  A 4.17 4.17 0.0 0 1 39.14 30.70
  Q 38.07 31.05 37.93 31.03
  Q 33.53 30.46 33.49 26.64
  Q 33.37 14.06 33.43 3.75
  Q 33.45 1.02 36.96 0.00
  L 38.48 0.00
  Z"
/>
<path fill="#e2dacb" d="
  M 49.69 0.00
  Q 53.30 1.06 53.29 4.75
  Q 53.28 19.93 53.20 26.67
  Q 53.16 30.16 49.25 31.04
  Q 49.14 31.06 49.08 31.05
  Q 44.69 30.46 44.63 26.66
  Q 44.52 19.23 44.58 5.25
  Q 44.60 1.16 48.05 0.00
  L 49.69 0.00
  Z"
/>
<path fill="#e2dacb" d="
  M 60.88 0.00
  C 63.47 0.76 64.38 2.41 64.38 5.14
  Q 64.39 50.61 64.37 85.64
  Q 64.37 89.21 60.48 90.23
  Q 60.39 90.25 60.30 90.24
  Q 55.73 89.62 55.72 85.69
  Q 55.70 77.90 55.71 4.00
  Q 55.71 1.05 59.21 0.00
  L 60.88 0.00
  Z"
/>
<path fill="#e2dacb" d="
  M 127.74 0.00
  Q 131.30 1.00 131.30 4.25
  Q 131.31 37.16 131.27 53.34
  Q 131.26 56.75 127.36 57.83
  Q 127.28 57.86 127.18 57.84
  Q 122.65 57.20 122.63 53.29
  Q 122.60 46.53 122.61 4.11
  Q 122.61 1.12 126.03 0.00
  L 127.74 0.00
  Z"
/>
<path fill="#e2dacb" d="
  M 138.88 0.00
  Q 142.43 1.04 142.43 4.25
  Q 142.45 20.10 142.38 26.64
  Q 142.34 30.05 138.46 31.05
  Q 138.38 31.07 138.28 31.06
  Q 133.86 30.44 133.80 26.65
  Q 133.69 18.49 133.74 3.74
  Q 133.76 1.05 137.23 0.00
  L 138.88 0.00
  Z"
/>
<path fill="#e2dacb" d="
  M 150.08 0.00
  Q 153.54 1.05 153.56 3.75
  Q 153.65 16.88 153.52 26.66
  Q 153.47 30.05 149.60 31.05
  Q 149.50 31.08 149.42 31.06
  Q 144.96 30.40 144.94 26.64
  Q 144.84 11.47 144.88 3.74
  Q 144.90 1.00 148.41 0.00
  L 150.08 0.00
  Z"
/>
<path fill="#e2dacb" d="
  M 161.17 0.00
  C 163.67 0.70 164.68 2.32 164.68 4.97
  Q 164.69 65.20 164.67 94.63
  Q 164.67 98.24 160.79 99.13
  Q 160.69 99.15 160.61 99.14
  Q 156.11 98.60 156.10 94.63
  Q 156.08 72.70 156.10 5.08
  C 156.10 2.39 157.00 0.79 159.53 0.00
  L 161.17 0.00
  Z"
/>
<path fill="#e2dacb" d="
  M 228.12 0.00
  Q 231.59 1.11 231.59 3.75
  Q 231.58 73.00 231.59 142.25
  Q 231.59 144.85 228.16 146.00
  L 226.49 146.00
  C 223.69 145.21 222.91 143.43 222.91 140.53
  Q 222.91 72.89 222.90 5.25
  Q 222.90 1.20 226.40 0.00
  L 228.12 0.00
  Z"
/>
<path fill="#e2dacb" d="
  M 239.22 0.00
  C 241.81 0.77 242.71 2.40 242.72 5.13
  Q 242.76 19.28 242.68 26.68
  Q 242.64 30.10 238.78 31.04
  Q 238.70 31.06 238.60 31.05
  Q 234.23 30.42 234.17 26.68
  Q 234.08 20.64 234.12 5.14
  C 234.13 2.42 235.02 0.84 237.53 0.00
  L 239.22 0.00
  Z"
/>
<path fill="#e2dacb" d="
  M 250.39 0.00
  C 252.91 0.81 253.86 2.41 253.86 5.13
  Q 253.91 20.99 253.81 26.66
  Q 253.77 29.63 250.99 30.68
  Q 249.89 31.09 249.73 31.07
  Q 245.33 30.43 245.28 26.66
  Q 245.23 22.49 245.24 3.74
  Q 245.24 1.11 248.73 0.00
  L 250.39 0.00
  Z"
/>
<path fill="#e2dacb" d="
  M 261.53 0.00
  Q 265.06 1.07 265.06 3.75
  Q 265.05 72.88 265.06 142.00
  Q 265.06 144.86 261.58 146.00
  L 259.85 146.00
  Q 256.39 144.88 256.39 142.25
  Q 256.40 73.12 256.39 3.99
  Q 256.39 1.15 259.84 0.00
  L 261.53 0.00
  Z"
/>
<path fill="#e2dacb" d="
  M 328.40 0.00
  Q 331.89 1.10 331.89 3.76
  Q 331.88 72.23 331.88 140.70
  C 331.88 143.51 331.08 145.14 328.43 146.00
  L 326.78 146.00
  Q 323.29 144.88 323.29 142.25
  Q 323.30 73.00 323.29 3.75
  Q 323.29 1.16 326.74 0.00
  L 328.40 0.00
  Z"
/>
<path fill="#e2dacb" d="
  M 339.52 0.00
  Q 343.06 1.01 343.08 3.74
  Q 343.13 17.60 343.03 26.65
  Q 342.98 30.07 339.10 31.05
  Q 339.02 31.07 338.92 31.06
  Q 334.51 30.45 334.46 26.66
  Q 334.33 18.27 334.40 3.75
  Q 334.41 1.04 337.90 0.00
  L 339.52 0.00
  Z"
/>
<path fill="#e2dacb" d="
  M 350.68 0.00
  Q 354.20 1.01 354.21 3.75
  Q 354.26 17.87 354.16 26.68
  Q 354.12 30.12 350.23 31.06
  Q 350.16 31.07 350.05 31.06
  Q 345.65 30.45 345.60 26.65
  Q 345.49 18.39 345.55 3.75
  Q 345.56 1.10 349.03 0.00
  L 350.68 0.00
  Z"
/>
<path fill="#e2dacb" d="
  M 361.89 0.00
  Q 365.36 1.14 365.36 3.99
  Q 365.35 72.89 365.36 141.79
  Q 365.36 144.83 361.92 146.00
  L 360.22 146.00
  Q 356.70 144.95 356.70 142.25
  Q 356.70 73.00 356.70 3.75
  Q 356.70 1.09 360.19 0.00
  L 361.89 0.00
  Z"
/>
<path fill="#e2dacb" d="
  M 428.72 0.00
  Q 432.25 1.08 432.25 4.25
  Q 432.23 73.13 432.25 142.00
  Q 432.25 144.91 428.75 146.00
  L 427.06 146.00
  Q 423.59 144.87 423.59 142.00
  Q 423.61 73.25 423.62 4.50
  Q 423.62 1.17 427.04 0.00
  L 428.72 0.00
  Z"
/>
<path fill="#e2dacb" d="
  M 439.90 0.00
  Q 443.41 1.09 443.42 4.01
  Q 443.46 18.07 443.36 26.64
  Q 443.33 30.07 439.44 31.06
  Q 439.36 31.08 439.26 31.07
  Q 434.84 30.49 434.80 26.68
  Q 434.61 9.30 434.70 4.50
  Q 434.77 1.07 438.24 0.00
  L 439.90 0.00
  Z"
/>
<path fill="#e2dacb" d="
  M 451.00 0.00
  Q 454.55 1.04 454.57 3.99
  Q 454.63 17.43 454.50 26.69
  Q 454.45 30.13 450.55 31.05
  Q 450.48 31.07 450.37 31.05
  Q 445.97 30.46 445.93 26.63
  Q 445.82 17.37 445.86 3.89
  Q 445.87 1.14 449.32 0.00
  L 451.00 0.00
  Z"
/>
<path fill="#e2dacb" d="
  M 462.16 0.00
  Q 465.67 1.09 465.67 3.75
  Q 465.66 73.00 465.67 142.25
  Q 465.67 144.86 462.24 146.00
  L 460.56 146.00
  Q 457.06 144.94 457.06 142.25
  Q 457.06 73.75 457.06 5.25
  Q 457.06 1.19 460.52 0.00
  L 462.16 0.00
  Z"
/>
<path fill="#e2dacb" d="
  M 507.34 0.00
  C 509.87 0.80 510.81 2.43 510.82 5.14
  Q 510.88 18.67 510.77 26.68
  Q 510.72 30.02 506.89 31.08
  Q 506.81 31.10 506.71 31.08
  Q 502.31 30.43 502.24 26.69
  Q 502.13 19.51 502.19 5.14
  C 502.20 2.40 503.12 0.81 505.67 0.00
  L 507.34 0.00
  Z"
/>
<path fill="#e2dacb" d="
  M 518.40 0.00
  Q 521.95 1.03 521.96 3.74
  Q 522.01 17.90 521.90 26.69
  Q 521.86 30.10 517.99 31.05
  Q 517.92 31.06 517.81 31.05
  Q 513.44 30.45 513.39 26.66
  Q 513.28 18.18 513.33 5.09
  C 513.34 2.41 514.29 0.80 516.79 0.00
  L 518.40 0.00
  Z"
/>
<path fill="#e2dacb" d="
  M 529.60 0.00
  Q 533.09 1.04 533.16 4.25
  Q 533.20 6.27 533.06 26.67
  Q 533.03 30.05 529.19 31.09
  Q 529.12 31.11 529.02 31.09
  Q 524.54 30.43 524.51 26.65
  Q 524.42 11.71 524.47 3.75
  Q 524.48 1.06 527.96 0.00
  L 529.60 0.00
  Z"
/>
<path fill="#e2dacb" d="
  M 540.76 0.00
  C 543.38 0.71 544.29 2.42 544.29 5.16
  Q 544.30 112.07 544.28 141.13
  Q 544.28 144.73 540.42 145.72
  Q 540.32 145.75 540.25 145.74
  Q 535.62 145.22 535.62 141.07
  Q 535.62 35.84 535.62 3.74
  Q 535.62 1.08 539.05 0.00
  L 540.76 0.00
  Z"
/>
<path fill="#e2dacb" d="
  M 551.92 0.00
  Q 555.42 1.03 555.42 4.00
  Q 555.41 67.47 555.41 141.10
  Q 555.41 144.57 551.64 145.79
  Q 551.55 145.82 551.46 145.81
  Q 546.77 145.18 546.77 141.12
  Q 546.77 53.03 546.77 5.14
  C 546.76 2.43 547.65 0.78 550.20 0.00
  L 551.92 0.00
  Z"
/>
<path fill="#e2dacb" d="
  M 563.10 0.00
  C 565.64 0.76 566.56 2.46 566.56 5.15
  Q 566.58 80.37 566.56 141.16
  Q 566.56 144.65 562.73 145.77
  Q 562.65 145.80 562.56 145.79
  Q 557.89 145.23 557.89 141.07
  Q 557.89 75.60 557.89 5.14
  C 557.89 2.45 558.83 0.73 561.39 0.00
  L 563.10 0.00
  Z"
/>
<path fill="#e2dacb" d="
  M 574.15 0.00
  C 576.75 0.74 577.69 2.41 577.70 5.15
  Q 577.75 18.52 577.64 26.68
  Q 577.60 30.15 573.74 31.04
  Q 573.63 31.06 573.57 31.05
  Q 569.19 30.45 569.14 26.68
  Q 569.04 19.38 569.09 3.74
  Q 569.10 1.12 572.55 0.00
  L 574.15 0.00
  Z"
/>
<path fill="#e2dacb" d="
  M 585.35 0.00
  Q 588.84 1.09 588.85 3.74
  Q 588.89 18.48 588.79 26.68
  Q 588.75 30.03 584.91 31.07
  Q 584.82 31.09 584.73 31.08
  Q 580.32 30.42 580.26 26.67
  Q 580.16 19.80 580.22 5.14
  C 580.23 2.41 581.14 0.80 583.69 0.00
  L 585.35 0.00
  Z"
/>
<path fill="#e2dacb" d="
  M 596.48 0.00
  Q 598.91 0.71 600.00 3.22
  L 600.00 27.71
  C 598.53 31.28 593.75 32.38 591.91 28.82
  Q 591.36 27.75 591.36 25.38
  Q 591.37 9.63 591.38 4.80
  C 591.38 2.27 592.51 0.76 594.79 0.00
  L 596.48 0.00
  Z"
/>
<rect fill="#e2dacb" x="66.86" y="1.41" width="8.68" height="87.34" rx="4.28"/>
<rect fill="#e2dacb" x="111.46" y="1.43" width="8.68" height="56.32" rx="4.25"/>
<rect fill="#e2dacb" x="167.22" y="1.41" width="8.62" height="83.72" rx="4.24"/>
<rect fill="#e2dacb" x="211.81" y="1.41" width="8.62" height="143.18" rx="4.26"/>
<rect fill="#e2dacb" x="267.54" y="1.41" width="8.62" height="143.18" rx="4.26"/>
<rect fill="#e2dacb" x="312.14" y="1.41" width="8.60" height="143.18" rx="4.24"/>
<rect fill="#e2dacb" x="367.83" y="1.42" width="8.66" height="143.16" rx="4.28"/>
<rect fill="#e2dacb" x="412.44" y="1.41" width="8.68" height="143.18" rx="4.29"/>
<rect fill="#e2dacb" x="468.19" y="1.41" width="8.62" height="143.18" rx="4.26"/>
<rect fill="#e2dacb" x="77.46" y="2.53" width="8.68" height="85.10" rx="4.27"/>
<rect fill="#e2dacb" x="100.86" y="2.54" width="8.68" height="55.22" rx="4.25"/>
<rect fill="#e2dacb" x="-4.30" y="-31.52" transform="translate(182.12,34.06) rotate(-0.1)" width="8.60" height="63.04" rx="4.23"/>
<rect fill="#e2dacb" x="201.21" y="2.52" width="8.62" height="140.96" rx="4.26"/>
<rect fill="#e2dacb" x="278.14" y="2.53" width="8.60" height="140.94" rx="4.25"/>
<rect fill="#e2dacb" x="301.55" y="2.52" width="8.60" height="140.96" rx="4.26"/>
<rect fill="#e2dacb" x="378.44" y="2.52" width="8.68" height="140.96" rx="4.30"/>
<rect fill="#e2dacb" x="401.84" y="2.53" width="8.64" height="140.94" rx="4.28"/>
<rect fill="#e2dacb" x="478.80" y="2.52" width="8.60" height="140.96" rx="4.26"/>
<rect fill="#e2dacb" x="-4.33" y="-15.45" transform="translate(37.77,74.69) rotate(-0.2)" width="8.66" height="30.90" rx="4.20"/>
<rect fill="#e2dacb" x="-4.32" y="-15.47" transform="translate(48.91,74.68) rotate(0.1)" width="8.64" height="30.94" rx="4.18"/>
<rect fill="#e2dacb" x="144.88" y="67.59" width="8.68" height="42.08" rx="4.23"/>
<rect fill="#e2dacb" x="133.76" y="81.53" width="8.64" height="64.16" rx="4.25"/>
<rect fill="#e2dacb" x="122.62" y="94.39" width="8.66" height="51.28" rx="4.24"/>
<rect fill="#e2dacb" x="111.46" y="104.44" width="8.68" height="41.24" rx="4.23"/>
<path fill="#e2dacb" d="
  M 239.26 146.00
  L 237.59 146.00
  C 235.07 145.19 234.12 143.59 234.11 140.88
  Q 234.08 128.57 234.18 119.32
  Q 234.22 115.23 238.35 115.21
  Q 238.37 115.21 238.52 115.21
  A 4.15 4.14 89.8 0 1 242.66 119.33
  Q 242.74 130.99 242.73 142.25
  Q 242.72 144.89 239.26 146.00
  Z"
/>
<path fill="#e2dacb" d="
  M 250.45 146.00
  L 248.76 146.00
  Q 245.24 144.95 245.24 142.26
  Q 245.23 129.28 245.31 119.34
  Q 245.34 115.37 249.47 115.22
  Q 249.51 115.22 249.64 115.22
  Q 253.75 115.37 253.79 119.32
  Q 253.90 129.81 253.87 140.88
  C 253.86 143.58 252.92 145.15 250.45 146.00
  Z"
/>
<path fill="#e2dacb" d="
  M 339.66 146.00
  L 337.89 146.00
  Q 334.41 144.92 334.40 142.26
  Q 334.34 131.21 334.48 119.51
  Q 334.52 115.45 338.57 115.22
  Q 338.73 115.21 338.83 115.22
  Q 342.96 115.39 343.00 119.35
  Q 343.13 130.88 343.07 142.26
  Q 343.06 144.83 339.66 146.00
  Z"
/>
<path fill="#e2dacb" d="
  M 350.74 146.00
  L 349.06 146.00
  Q 345.54 144.91 345.53 142.01
  Q 345.51 130.16 345.61 119.35
  Q 345.65 115.35 349.80 115.21
  Q 349.86 115.21 350.05 115.22
  Q 354.10 115.39 354.14 119.45
  Q 354.24 131.36 354.21 142.25
  Q 354.20 144.90 350.74 146.00
  Z"
/>
<path fill="#e2dacb" d="
  M 439.95 146.00
  L 438.28 146.00
  Q 434.72 144.97 434.71 142.01
  Q 434.67 129.61 434.80 119.32
  Q 434.84 115.47 439.00 115.20
  Q 439.01 115.20 439.17 115.18
  A 4.19 3.75 86.9 0 1 443.34 119.36
  Q 443.45 131.24 443.41 142.10
  Q 443.40 144.87 439.95 146.00
  Z"
/>
<path fill="#e2dacb" d="
  M 451.04 146.00
  L 449.38 146.00
  Q 445.87 144.89 445.86 141.98
  Q 445.83 130.42 445.93 119.37
  Q 445.97 115.21 450.13 115.19
  L 450.38 115.19
  Q 454.43 115.18 454.48 119.45
  Q 454.68 137.16 454.57 141.76
  Q 454.50 144.92 451.04 146.00
  Z"
/>
<rect fill="#e2dacb" x="100.35" y="116.72" width="8.58" height="28.96" rx="4.15"/>
<rect fill="#e2dacb" x="144.89" y="117.57" width="8.66" height="28.10" rx="4.18"/>
<rect fill="#e2dacb" x="156.10" y="117.57" width="8.58" height="28.10" rx="4.14"/>
<rect fill="#e2dacb" x="167.22" y="117.57" width="8.62" height="28.10" rx="4.16"/>
<rect fill="#e2dacb" x="-4.30" y="-14.05" transform="translate(182.12,131.62) rotate(-0.1)" width="8.60" height="28.10" rx="4.16"/>
</svg>
