<?xml version="1.0" encoding="UTF-8" standalone="no"?>
<!DOCTYPE svg PUBLIC "-//W3C//DTD SVG 1.1//EN" "http://www.w3.org/Graphics/SVG/1.1/DTD/svg11.dtd">
<svg xmlns="http://www.w3.org/2000/svg" version="1.1" viewBox="0 0 600 300">
<path fill="#000000" d="
  M 547.75 59.00
  C 575.22 59.00 577.64 97.59 551.46 101.30
  Q 550.01 101.50 540.54 101.50
  Q 527.77 101.50 515.00 101.50
  C 506.48 101.50 497.92 94.78 495.29 86.68
  C 491.05 73.56 501.14 59.22 515.00 59.12
  Q 531.38 59.00 547.75 59.00
  Z
  M 556.93 79.96
  A 7.91 7.91 0.0 0 0 549.02 72.05
  L 515.50 72.05
  A 7.91 7.91 0.0 0 0 507.59 79.96
  L 507.59 80.54
  A 7.91 7.91 0.0 0 0 515.50 88.45
  L 549.02 88.45
  A 7.91 7.91 0.0 0 0 556.93 80.54
  L 556.93 79.96
  Z"
/>
<path fill="#000000" d="
  M 102.80 65.00
  C 113.30 67.89 116.13 79.17 118.65 88.04
  Q 139.97 163.26 160.94 238.14
  A 0.68 0.68 82.2 0 1 160.29 239.00
  L 129.73 239.00
  A 1.12 1.12 82.2 0 1 128.65 238.18
  L 118.59 201.96
  A 1.32 1.31 82.1 0 0 117.33 201.00
  L 75.69 201.00
  A 0.89 0.87 -81.5 0 0 74.85 201.63
  L 64.32 238.38
  A 0.87 0.86 8.0 0 1 63.49 239.00
  L 33.11 239.00
  A 0.76 0.76 -82.2 0 1 32.38 238.03
  Q 53.92 161.14 75.50 83.75
  C 79.20 70.47 87.51 60.80 102.80 65.00
  Z
  M 83.56 169.64
  A 0.30 0.30 -81.8 0 0 83.85 170.02
  L 109.34 169.97
  A 0.30 0.30 82.2 0 0 109.63 169.59
  L 96.81 124.85
  A 0.30 0.30 -21.7 0 0 96.23 124.85
  L 83.56 169.64
  Z"
/>
<path fill="#000000" d="
  M 197.48 95.06
  A 0.73 0.73 90.0 0 0 196.75 95.79
  L 196.75 238.33
  A 0.67 0.67 0.0 0 1 196.08 239.00
  L 166.66 239.00
  A 0.66 0.66 0.0 0 1 166.00 238.34
  L 166.00 95.99
  A 0.99 0.99 0.5 0 0 165.01 95.00
  L 132.66 95.00
  A 0.66 0.66 0.0 0 1 132.00 94.34
  L 132.00 64.82
  A 0.82 0.82 0.0 0 1 132.82 64.00
  L 230.34 64.00
  A 0.66 0.66 0.0 0 1 231.00 64.66
  L 231.00 94.19
  A 0.82 0.81 -0.0 0 1 230.18 95.00
  L 197.48 95.06
  Z"
/>
<path fill="#000000" d="
  M 363.31 171.05
  L 363.44 238.20
  A 0.80 0.80 0.0 0 1 362.64 239.00
  L 300.80 239.00
  A 1.26 1.26 82.1 0 1 299.59 238.08
  L 289.49 201.74
  A 1.02 1.02 -7.9 0 0 288.51 201.00
  L 246.87 201.00
  A 1.02 1.01 7.9 0 0 245.89 201.73
  L 235.37 238.20
  A 1.11 1.10 -82.0 0 1 234.31 239.00
  L 203.96 238.94
  A 0.58 0.57 -82.0 0 1 203.41 238.20
  Q 225.22 159.97 246.80 82.77
  C 248.27 77.51 250.54 72.58 254.63 68.95
  C 263.42 61.17 276.11 62.55 283.13 71.91
  C 286.29 76.13 287.51 80.51 288.94 85.55
  Q 310.40 161.09 331.27 235.94
  Q 332.50 240.34 332.50 235.77
  Q 332.50 162.75 332.50 90.50
  C 332.50 85.77 332.17 81.48 333.82 77.33
  Q 337.82 67.29 347.36 64.78
  Q 350.31 64.00 365.71 64.00
  C 375.49 64.00 387.29 63.27 395.71 64.93
  C 415.15 68.77 432.68 85.25 435.24 105.51
  C 438.57 131.87 420.31 155.32 396.34 164.22
  A 0.81 0.81 64.1 0 0 395.93 165.41
  L 441.58 238.11
  Q 442.14 239.00 441.08 239.00
  L 406.81 238.94
  A 0.92 0.91 -16.3 0 1 406.04 238.52
  Q 387.68 210.28 369.51 181.92
  Q 366.17 176.69 363.77 170.96
  Q 363.69 170.78 363.55 170.76
  A 0.28 0.21 -87.4 0 0 363.31 171.05
  Z
  M 363.44 154.43
  Q 363.44 155.69 363.96 154.54
  C 367.92 145.87 373.52 143.19 381.27 138.54
  C 388.29 134.32 398.05 130.07 402.19 122.94
  C 409.73 109.95 399.85 94.97 385.25 94.99
  Q 375.37 95.00 364.29 95.00
  A 0.80 0.79 -90.0 0 0 363.50 95.80
  L 363.44 154.43
  Z
  M 267.22 124.69
  L 254.68 169.24
  A 0.60 0.59 -82.2 0 0 255.25 170.00
  L 280.08 170.00
  A 0.45 0.45 82.1 0 0 280.51 169.43
  L 267.70 124.69
  Q 267.45 123.84 267.22 124.69
  Z"
/>
<rect fill="#000000" x="454.50" y="64.00" width="31.00" height="175.00" rx="0.67"/>
<path fill="#000000" d="
  M 516.75 146.50
  C 487.24 146.50 487.37 104.36 515.75 104.13
  Q 532.25 104.00 548.75 104.03
  Q 556.25 104.05 561.97 108.78
  C 578.30 122.27 567.83 146.88 547.50 146.67
  Q 532.13 146.50 516.75 146.50
  Z
  M 556.93 124.96
  A 7.91 7.91 0.0 0 0 549.02 117.05
  L 515.48 117.05
  A 7.91 7.91 0.0 0 0 507.57 124.96
  L 507.57 125.54
  A 7.91 7.91 0.0 0 0 515.48 133.45
  L 549.02 133.45
  A 7.91 7.91 0.0 0 0 556.93 125.54
  L 556.93 124.96
  Z"
/>
<path fill="#000000" d="
  M 532.63 157.67
  C 556.37 137.27 585.55 172.60 560.78 190.36
  C 552.66 196.18 540.42 195.71 532.87 188.50
  A 0.90 0.89 46.8 0 0 531.68 188.46
  C 508.15 208.06 478.99 174.39 503.06 156.06
  C 511.79 149.42 523.94 150.46 531.88 157.65
  A 0.57 0.56 46.2 0 0 532.63 157.67
  Z
  M 525.7400 173.0160
  A 9.14 8.12 0.1 0 0 516.6142 164.8800
  A 9.14 8.12 0.1 0 0 507.4600 172.9840
  A 9.14 8.12 0.1 0 0 516.5858 181.1200
  A 9.14 8.12 0.1 0 0 525.7400 173.0160
  Z
  M 557.0700 172.9740
  A 9.14 8.13 -0.1 0 0 547.9158 164.8600
  A 9.14 8.13 -0.1 0 0 538.7900 173.0060
  A 9.14 8.13 -0.1 0 0 547.9442 181.1200
  A 9.14 8.13 -0.1 0 0 557.0700 172.9740
  Z"
/>
<path fill="#000000" d="
  M 507.31 214.94
  L 507.25 238.63
  A 0.58 0.57 -3.4 0 1 506.74 239.20
  Q 500.54 239.88 494.80 239.25
  A 0.56 0.56 -86.6 0 1 494.31 238.69
  Q 494.22 225.45 494.24 212.22
  C 494.26 202.19 498.55 198.13 508.35 201.72
  Q 538.95 212.94 569.23 224.48
  A 1.21 1.18 10.9 0 1 570.00 225.59
  L 569.95 237.19
  A 0.36 0.35 9.9 0 1 569.47 237.52
  L 507.92 214.52
  A 0.45 0.45 10.4 0 0 507.31 214.94
  Z"
/>
</svg>
