<?xml version="1.0" encoding="UTF-8" standalone="no"?>
<!DOCTYPE svg PUBLIC "-//W3C//DTD SVG 1.1//EN" "http://www.w3.org/Graphics/SVG/1.1/DTD/svg11.dtd">
<svg xmlns="http://www.w3.org/2000/svg" version="1.1" viewBox="0 0 600 300">
<g stroke-width="2.00" fill="none" stroke-linecap="butt">
<path stroke="#926f04" vector-effect="non-scaling-stroke" d="
  M 92.75 58.79
  L 93.44 59.05
  A 0.55 0.38 17.9 0 1 93.83 59.55
  L 85.11 98.42"
/>
<path stroke="#fe9d00" vector-effect="non-scaling-stroke" d="
  M 85.11 98.42
  Q 63.64 97.41 42.30 98.17
  C 41.61 98.20 40.85 98.90 41.21 97.25"
/>
<path stroke="#fdc300" vector-effect="non-scaling-stroke" d="
  M 82.50 110.29
  Q 48.29 109.45 41.75 110.00
  Q 38.70 110.25 38.75 107.71"
/>
<path stroke="#388005" vector-effect="non-scaling-stroke" d="
  M 95.96 60.75
  Q 94.05 61.08 94.38 63.00
  Q 94.48 63.57 94.37 63.97
  C 89.35 82.87 85.79 102.21 81.29 121.25"
/>
<path stroke="#498b05" vector-effect="non-scaling-stroke" d="
  M 81.29 121.25
  L 78.54 134.50"
/>
<path stroke="#599605" vector-effect="non-scaling-stroke" d="
  M 78.54 134.50
  Q 76.39 144.48 74.02 154.40
  C 73.56 156.31 72.53 157.55 73.21 160.00"
/>
<path stroke="#153107" stroke-opacity="0.969" vector-effect="non-scaling-stroke" d="
  M 73.21 160.00
  Q 72.87 160.96 72.96 162.00"
/>
<path stroke="#153107" stroke-opacity="0.969" vector-effect="non-scaling-stroke" d="
  M 71.29 164.25
  L 71.21 162.75"
/>
<path stroke="#91a204" vector-effect="non-scaling-stroke" d="
  M 71.21 162.75
  L 79.33 125.45"
/>
<path stroke="#919504" vector-effect="non-scaling-stroke" d="
  M 79.33 125.45
  L 82.50 110.29"
/>
<path stroke="#918804" vector-effect="non-scaling-stroke" d="
  M 82.50 110.29
  L 85.11 98.42"
/>
<path stroke="#fddd00" vector-effect="non-scaling-stroke" d="
  M 79.33 125.45
  Q 57.87 124.13 35.96 124.96
  A 0.52 0.51 78.6 0 1 35.45 124.61
  L 35.04 123.50"
/>
<path stroke="#7dc701" vector-effect="non-scaling-stroke" d="
  M 100.79 134.75
  C 101.27 131.35 99.17 132.34 97.32 132.14
  C 92.71 131.65 88.30 131.93 83.71 131.88
  Q 80.55 131.85 78.54 134.50"
/>
<path stroke="#a0df01" vector-effect="non-scaling-stroke" d="
  M 92.79 168.75
  C 93.38 161.95 81.52 163.57 77.55 164.40
  C 76.02 164.72 74.52 163.91 74.79 166.75"
/>
<path stroke="#4d7303" stroke-opacity="0.922" vector-effect="non-scaling-stroke" d="
  M 74.79 166.75
  L 74.04 164.00"
/>
<path stroke="#4a7003" stroke-opacity="0.969" vector-effect="non-scaling-stroke" d="
  M 73.71 163.00
  Q 73.96 161.40 73.21 160.00"
/>
<path stroke="#4f9402" vector-effect="non-scaling-stroke" d="
  M 106.84 108.02
  L 104.21 118.90"
/>
<path stroke="#5cb001" vector-effect="non-scaling-stroke" d="
  M 104.21 118.90
  Q 94.61 113.61 83.37 117.20
  A 0.76 0.76 -13.6 0 0 82.85 118.05
  Q 83.23 120.23 81.29 121.25"
/>
<path stroke="#847b03" stroke-opacity="0.969" vector-effect="non-scaling-stroke" d="
  M 71.21 162.75
  L 70.29 166.75"
/>
<path stroke="#847b03" stroke-opacity="0.969" vector-effect="non-scaling-stroke" d="
  M 70.21 167.50
  Q 69.50 169.16 69.50 170.96"
/>
<path stroke="#847b03" stroke-opacity="0.969" vector-effect="non-scaling-stroke" d="
  M 69.21 172.00
  L 68.29 176.25"
/>
<path stroke="#847b03" stroke-opacity="0.969" vector-effect="non-scaling-stroke" d="
  M 68.21 176.75
  L 67.29 180.75"
/>
<path stroke="#a39700" stroke-opacity="0.776" vector-effect="non-scaling-stroke" d="
  M 67.29 180.75
  L 66.46 184.50"
/>
<path stroke="#fdd800" vector-effect="non-scaling-stroke" d="
  M 66.46 184.50
  Q 64.83 184.32 65.64 182.94
  A 0.49 0.49 16.0 0 0 65.23 182.20
  Q 43.22 181.31 21.37 182.74"
/>
<path stroke="#a8af02" vector-effect="non-scaling-stroke" d="
  M 106.21 115.75
  L 102.50 131.21"
/>
<path stroke="#a7ba02" vector-effect="non-scaling-stroke" d="
  M 102.50 131.21
  L 96.80 155.26"
/>
<path stroke="#a8af02" vector-effect="non-scaling-stroke" d="
  M 96.80 155.26
  L 93.81 168.29"
/>
<path stroke="#a8a002" vector-effect="non-scaling-stroke" d="
  M 93.81 168.29
  L 91.26 179.45"
/>
<path stroke="#a89402" vector-effect="non-scaling-stroke" d="
  M 91.26 179.45
  L 89.25 187.96"
/>
<path stroke="#a98002" vector-effect="non-scaling-stroke" d="
  M 89.25 187.96
  L 87.54 194.00"
/>
<path stroke="#5f9f02" vector-effect="non-scaling-stroke" d="
  M 87.54 194.00
  L 87.46 193.25"
/>
<path stroke="#83b702" vector-effect="non-scaling-stroke" d="
  M 87.46 193.25
  L 92.79 168.75"
/>
<path stroke="#70ab02" vector-effect="non-scaling-stroke" d="
  M 92.79 168.75
  L 100.79 134.75"
/>
<path stroke="#5f9f02" vector-effect="non-scaling-stroke" d="
  M 100.79 134.75
  L 104.21 118.90"
/>
<path stroke="#90d301" vector-effect="non-scaling-stroke" d="
  M 87.46 193.25
  Q 86.42 195.04 87.04 197.00"
/>
<path stroke="#d9b400" vector-effect="non-scaling-stroke" d="
  M 87.04 197.00
  Q 85.44 202.79 84.96 208.75"
/>
<path stroke="#5b7701" stroke-opacity="0.992" vector-effect="non-scaling-stroke" d="
  M 84.96 208.75
  Q 83.29 208.05 83.29 206.00"
/>
<path stroke="#628002" stroke-opacity="0.922" vector-effect="non-scaling-stroke" d="
  M 83.29 206.00
  L 79.96 191.25"
/>
<path stroke="#628002" stroke-opacity="0.922" vector-effect="non-scaling-stroke" d="
  M 79.96 191.25
  L 78.79 185.50"
/>
<path stroke="#628002" stroke-opacity="0.922" vector-effect="non-scaling-stroke" d="
  M 78.79 185.50
  L 78.00 182.25"
/>
<path stroke="#5e7c03" stroke-opacity="0.969" vector-effect="non-scaling-stroke" d="
  M 78.00 182.25
  L 76.71 175.50"
/>
<path stroke="#628002" stroke-opacity="0.922" vector-effect="non-scaling-stroke" d="
  M 76.71 175.50
  L 74.79 166.75"
/>
<path stroke="#a48100" stroke-opacity="0.776" vector-effect="non-scaling-stroke" d="
  M 65.96 186.75
  L 66.46 184.50"
/>
<path stroke="#846a03" stroke-opacity="0.969" vector-effect="non-scaling-stroke" d="
  M 65.96 186.75
  L 65.21 190.25"
/>
<path stroke="#8a6d02" stroke-opacity="0.922" vector-effect="non-scaling-stroke" d="
  M 65.21 190.25
  L 64.25 193.79"
/>
<path stroke="#feb600" vector-effect="non-scaling-stroke" d="
  M 64.25 193.79
  Q 63.63 194.18 63.20 193.73
  A 1.17 0.68 58.4 0 0 62.45 193.33
  Q 40.81 194.03 19.21 192.75"
/>
<path stroke="#855803" stroke-opacity="0.969" vector-effect="non-scaling-stroke" d="
  M 136.04 186.75
  Q 135.48 188.05 135.50 189.46"
/>
<path stroke="#ff9100" vector-effect="non-scaling-stroke" d="
  M 135.29 189.50
  C 131.14 186.27 125.99 188.38 121.20 188.29
  C 110.54 188.09 99.92 188.39 89.25 187.96"
/>
<path stroke="#fdcc00" vector-effect="non-scaling-stroke" d="
  M 151.33 115.93
  L 106.21 115.75"
/>
<path stroke="#a8a002" vector-effect="non-scaling-stroke" d="
  M 106.21 115.75
  L 107.71 108.25"
/>
<path stroke="#fde600" vector-effect="non-scaling-stroke" d="
  M 142.72 155.08
  Q 119.74 153.50 96.80 155.26"
/>
<path stroke="#fdcc00" vector-effect="non-scaling-stroke" d="
  M 139.72 168.52
  Q 116.79 167.37 93.81 168.29"
/>
<path stroke="#814001" stroke-opacity="0.992" vector-effect="non-scaling-stroke" d="
  M 135.21 190.50
  L 131.25 208.01
  A 1.18 1.16 -83.2 0 1 130.10 208.93
  L 84.96 208.75"
/>
<path stroke="#b69c01" vector-effect="non-scaling-stroke" d="
  M 87.04 197.00
  L 87.54 194.00"
/>
<path stroke="#fde600" vector-effect="non-scaling-stroke" d="
  M 148.00 131.04
  C 147.35 129.40 146.49 129.98 145.25 130.02
  Q 125.86 130.62 105.03 130.22
  A 1.60 1.58 -75.4 0 0 103.59 131.08
  Q 103.08 132.05 102.50 131.21"
/>
<path stroke="#feb000" vector-effect="non-scaling-stroke" d="
  M 137.23 180.03
  L 91.26 179.45"
/>
<path stroke="#a46a00" stroke-opacity="0.776" vector-effect="non-scaling-stroke" d="
  M 64.21 194.75
  L 62.96 200.50"
/>
<path stroke="#8a5a02" stroke-opacity="0.922" vector-effect="non-scaling-stroke" d="
  M 62.21 204.00
  L 61.29 208.25"
/>
<path stroke="#a46a00" stroke-opacity="0.776" vector-effect="non-scaling-stroke" d="
  M 61.21 208.50
  L 60.21 213.00"
/>
<path stroke="#a46a00" stroke-opacity="0.776" vector-effect="non-scaling-stroke" d="
  M 60.21 213.00
  L 59.00 217.79"
/>
<path stroke="#ff8f00" vector-effect="non-scaling-stroke" d="
  M 59.00 217.79
  Q 57.64 215.85 54.50 216.00
  Q 38.52 216.75 13.91 215.66"
/>
<path stroke="#8a5a02" stroke-opacity="0.922" vector-effect="non-scaling-stroke" d="
  M 64.29 194.25
  L 64.25 193.79"
/>
<path stroke="#255a08" vector-effect="non-scaling-stroke" d="
  M 154.46 107.25
  L 154.00 109.46"
/>
<path stroke="#417706" vector-effect="non-scaling-stroke" d="
  M 154.00 109.46
  L 148.75 133.46"
/>
<path stroke="#6ca304" vector-effect="non-scaling-stroke" d="
  M 148.75 133.46
  C 146.33 143.59 144.62 151.68 141.72 163.94
  Q 140.06 170.91 138.96 178.00"
/>
<path stroke="#927f04" vector-effect="non-scaling-stroke" d="
  M 136.79 182.50
  L 137.23 180.03"
/>
<path stroke="#918b04" vector-effect="non-scaling-stroke" d="
  M 137.23 180.03
  L 139.72 168.52"
/>
<path stroke="#919b04" vector-effect="non-scaling-stroke" d="
  M 139.72 168.52
  L 142.72 155.08"
/>
<path stroke="#91a504" vector-effect="non-scaling-stroke" d="
  M 142.72 155.08
  L 148.00 131.04"
/>
<path stroke="#919b04" vector-effect="non-scaling-stroke" d="
  M 148.00 131.04
  L 151.33 115.93"
/>
<path stroke="#918b04" vector-effect="non-scaling-stroke" d="
  M 151.33 115.93
  L 153.27 107.67"
/>
<path stroke="#927904" vector-effect="non-scaling-stroke" d="
  M 153.27 107.67
  L 157.09 89.98"
/>
<path stroke="#feaa00" vector-effect="non-scaling-stroke" d="
  M 153.27 107.67
  Q 146.75 106.01 139.50 106.50
  C 130.10 107.14 120.19 106.42 110.49 106.50
  A 1.71 1.01 50.7 0 1 109.62 106.18
  Q 108.51 105.41 108.07 107.28"
/>
<path stroke="#8b4302" stroke-opacity="0.922" vector-effect="non-scaling-stroke" d="
  M 58.21 222.50
  L 57.04 227.50"
/>
<path stroke="#a54f00" stroke-opacity="0.776" vector-effect="non-scaling-stroke" d="
  M 57.04 227.50
  L 56.21 231.25"
/>
<path stroke="#854203" stroke-opacity="0.969" vector-effect="non-scaling-stroke" d="
  M 56.21 231.25
  L 55.50 234.96"
/>
<path stroke="#8b4302" stroke-opacity="0.922" vector-effect="non-scaling-stroke" d="
  M 55.21 236.00
  L 54.03 240.34
  A 0.64 0.59 -81.6 0 1 53.45 240.81
  L 7.98 240.70"
/>
<path stroke="#a54f00" stroke-opacity="0.776" vector-effect="non-scaling-stroke" d="
  M 58.96 218.75
  L 59.00 217.79"
/>
<path stroke="#417706" vector-effect="non-scaling-stroke" d="
  M 154.71 114.25
  C 154.03 112.84 154.94 109.96 154.00 109.46"
/>
<path stroke="#9d8601" vector-effect="non-scaling-stroke" d="
  M 136.50 75.79
  L 158.67 75.99
  A 1.11 0.98 -87.8 0 1 159.63 77.16
  L 159.31 82.30"
/>
<path stroke="#926704" vector-effect="non-scaling-stroke" d="
  M 159.31 82.30
  Q 157.58 86.36 157.09 89.98"
/>
<path stroke="#ff8500" vector-effect="non-scaling-stroke" d="
  M 157.09 89.98
  Q 135.77 89.61 114.56 89.94
  Q 112.09 89.98 112.58 87.27"
/>
<path stroke="#307a05" vector-effect="non-scaling-stroke" d="
  M 165.79 96.00
  Q 165.50 100.54 163.25 105.95
  A 1.62 1.38 8.7 0 1 161.86 106.81
  L 156.50 106.96"
/>
<path stroke="#9dcc80" vector-effect="non-scaling-stroke" d="
  M 156.50 106.96
  Q 155.31 107.23 155.46 108.50"
/>
<path stroke="#307a05" vector-effect="non-scaling-stroke" d="
  M 155.46 108.50
  Q 154.10 108.67 154.46 107.25"
/>
<path stroke="#307a05" vector-effect="non-scaling-stroke" d="
  M 154.46 107.25
  L 159.31 82.30"
/>
<path stroke="#5e7c03" stroke-opacity="0.969" vector-effect="non-scaling-stroke" d="
  M 139.71 182.25
  Q 139.73 180.43 139.04 178.75"
/>
<path stroke="#88c002" vector-effect="non-scaling-stroke" d="
  M 140.04 183.75
  L 141.87 191.02
  A 1.23 1.00 -86.8 0 0 142.41 191.77
  Q 143.27 192.22 144.24 191.88
  A 0.93 0.78 88.3 0 0 144.78 191.20
  C 147.74 174.91 148.46 158.56 150.75 142.00
  Q 151.46 136.88 151.00 133.06
  A 0.41 0.38 75.6 0 0 150.46 132.72
  L 148.75 133.46"
/>
<path stroke="#b7af81" vector-effect="non-scaling-stroke" d="
  M 184.75 108.79
  C 186.44 113.30 186.36 117.09 186.58 121.79
  Q 187.82 148.27 189.04 174.75"
/>
<path stroke="#b49180" vector-effect="non-scaling-stroke" d="
  M 189.04 174.75
  L 189.79 192.00"
/>
<path stroke="#818182" stroke-opacity="0.992" vector-effect="non-scaling-stroke" d="
  M 189.79 192.00
  Q 189.61 199.15 190.54 206.25"
/>
<path stroke="#818182" stroke-opacity="0.992" vector-effect="non-scaling-stroke" d="
  M 190.54 206.25
  Q 191.21 208.74 189.25 208.75
  Q 180.38 208.80 177.07 209.02
  Q 175.27 209.14 175.46 207.50"
/>
<path stroke="#818182" stroke-opacity="0.992" vector-effect="non-scaling-stroke" d="
  M 175.46 207.50
  L 174.72 182.46
  A 0.81 0.77 -1.1 0 0 173.91 181.72
  L 162.12 181.73
  A 0.63 0.61 3.1 0 0 161.50 182.27
  L 160.14 194.39"
/>
<path stroke="#858787" stroke-opacity="0.969" vector-effect="non-scaling-stroke" d="
  M 159.96 197.00
  L 159.04 205.75"
/>
<path stroke="#818182" stroke-opacity="0.992" vector-effect="non-scaling-stroke" d="
  M 159.04 205.75
  L 158.83 208.21
  A 0.66 0.52 1.3 0 1 158.19 208.69
  L 145.07 208.92
  A 0.54 0.49 -0.6 0 1 144.52 208.43
  L 144.54 206.00"
/>
<path stroke="#818182" stroke-opacity="0.992" vector-effect="non-scaling-stroke" d="
  M 144.54 206.00
  L 145.21 201.25"
/>
<path stroke="#aeca82" vector-effect="non-scaling-stroke" d="
  M 145.29 200.75
  Q 146.98 186.29 153.75 125.50
  Q 154.56 118.27 154.71 114.25"
/>
<path stroke="#92ad84" vector-effect="non-scaling-stroke" d="
  M 154.71 114.25
  L 155.46 108.50"
/>
<path stroke="#92ad84" vector-effect="non-scaling-stroke" d="
  M 183.96 107.50
  L 156.50 106.96"
/>
<path stroke="#b6a001" vector-effect="non-scaling-stroke" d="
  M 186.29 111.00
  Q 187.73 117.88 187.83 124.86
  C 188.02 137.85 188.73 150.77 189.29 163.75"
/>
<path stroke="#b77b01" vector-effect="non-scaling-stroke" d="
  M 189.29 163.75
  Q 189.91 169.29 189.21 174.75"
/>
<path stroke="#6c4102" vector-effect="non-scaling-stroke" d="
  M 189.21 174.75
  L 189.04 174.75"
/>
<path stroke="#351201" stroke-opacity="0.992" vector-effect="non-scaling-stroke" d="
  M 191.71 190.25
  Q 191.02 191.41 189.79 192.00"
/>
<path stroke="#854203" stroke-opacity="0.969" vector-effect="non-scaling-stroke" d="
  M 212.21 97.00
  Q 211.51 98.16 211.54 99.50"
/>
<path stroke="#ffbd80" vector-effect="non-scaling-stroke" d="
  M 209.75 106.96
  L 189.75 107.29"
/>
<path stroke="#926a04" vector-effect="non-scaling-stroke" d="
  M 189.75 107.29
  C 188.26 107.66 189.55 109.94 189.04 111.25"
/>
<path stroke="#feae00" vector-effect="non-scaling-stroke" d="
  M 189.04 111.25
  Q 188.62 110.52 188.10 110.90
  A 0.97 0.83 -50.6 0 1 187.29 111.04
  Q 186.76 110.86 186.29 111.00"
/>
<path stroke="#b76c01" vector-effect="non-scaling-stroke" d="
  M 186.29 111.00
  Q 185.84 109.64 184.75 108.79"
/>
<path stroke="#ffbd80" vector-effect="non-scaling-stroke" d="
  M 184.75 108.79
  L 183.96 107.50"
/>
<path stroke="#926a04" vector-effect="non-scaling-stroke" d="
  M 183.96 107.50
  Q 183.93 106.74 182.75 106.75
  Q 173.78 106.80 165.22 106.69
  A 0.75 0.75 -82.9 0 1 164.50 105.76
  L 166.71 96.25"
/>
<path stroke="#807201" stroke-opacity="0.992" vector-effect="non-scaling-stroke" d="
  M 191.75 122.46
  L 203.40 122.72
  A 1.13 1.09 -86.6 0 1 204.46 123.96
  L 203.54 133.50"
/>
<path stroke="#847703" stroke-opacity="0.969" vector-effect="non-scaling-stroke" d="
  M 203.54 133.50
  L 201.21 146.00"
/>
<path stroke="#a39200" stroke-opacity="0.776" vector-effect="non-scaling-stroke" d="
  M 200.04 151.75
  L 198.04 160.75"
/>
<path stroke="#897b02" stroke-opacity="0.922" vector-effect="non-scaling-stroke" d="
  M 196.21 169.00
  L 195.46 171.75"
/>
<path stroke="#fdbc00" vector-effect="non-scaling-stroke" d="
  M 195.46 171.75
  Q 191.01 169.87 190.32 173.75
  Q 190.26 174.09 190.23 173.76
  L 189.29 163.75"
/>
<path stroke="#8a5302" stroke-opacity="0.922" vector-effect="non-scaling-stroke" d="
  M 195.46 171.75
  L 195.50 172.46"
/>
<path stroke="#814d01" stroke-opacity="0.992" vector-effect="non-scaling-stroke" d="
  M 194.21 178.25
  L 192.04 188.25"
/>
<path stroke="#b35d01" vector-effect="non-scaling-stroke" d="
  M 191.96 189.25
  C 190.55 191.66 190.14 190.11 190.22 188.72
  Q 190.64 181.67 189.21 174.75"
/>
<path stroke="#132e05" stroke-opacity="0.992" vector-effect="non-scaling-stroke" d="
  M 191.50 121.54
  Q 191.42 122.07 191.75 122.46"
/>
<path stroke="#919e04" vector-effect="non-scaling-stroke" d="
  M 191.75 122.46
  Q 189.78 122.71 189.81 120.56
  Q 189.87 116.74 189.04 111.25"
/>
<path stroke="#818182" stroke-opacity="0.992" vector-effect="non-scaling-stroke" d="
  M 233.31 120.81
  Q 226.63 121.93 219.81 121.59
  A 0.60 0.54 4.8 0 0 219.19 122.06
  L 218.54 128.00"
/>
<path stroke="#a5a5a5" stroke-opacity="0.776" vector-effect="non-scaling-stroke" d="
  M 214.75 164.21
  Q 214.28 165.44 214.54 166.75"
/>
<path stroke="#8b8b8d" stroke-opacity="0.922" vector-effect="non-scaling-stroke" d="
  M 214.00 171.21
  L 213.54 175.00"
/>
<path stroke="#8b8b8d" stroke-opacity="0.922" vector-effect="non-scaling-stroke" d="
  M 213.21 178.25
  L 212.54 184.00"
/>
<path stroke="#858787" stroke-opacity="0.969" vector-effect="non-scaling-stroke" d="
  M 211.96 190.00
  L 211.54 193.75"
/>
<path stroke="#a5a5a5" stroke-opacity="0.776" vector-effect="non-scaling-stroke" d="
  M 211.21 198.25
  L 210.54 203.00"
/>
<path stroke="#818182" stroke-opacity="0.992" vector-effect="non-scaling-stroke" d="
  M 210.29 207.00
  C 209.77 209.80 204.10 208.75 201.85 208.75
  Q 200.14 208.75 199.19 207.32
  C 196.44 203.16 196.83 196.51 197.21 191.75"
/>
<path stroke="#858787" stroke-opacity="0.969" vector-effect="non-scaling-stroke" d="
  M 202.50 144.29
  L 203.75 133.54"
/>
<path stroke="#818182" stroke-opacity="0.992" vector-effect="non-scaling-stroke" d="
  M 203.75 133.54
  L 205.07 122.15
  A 0.78 0.74 2.6 0 0 204.28 121.33
  L 191.50 121.54"
/>
<path stroke="#92ad84" vector-effect="non-scaling-stroke" d="
  M 191.50 121.54
  C 190.76 121.04 189.91 109.09 189.75 107.29"
/>
<path stroke="#858787" stroke-opacity="0.969" vector-effect="non-scaling-stroke" d="
  M 271.57 148.50
  L 270.54 159.50"
/>
<path stroke="#858787" stroke-opacity="0.969" vector-effect="non-scaling-stroke" d="
  M 269.96 163.25
  L 268.54 178.00"
/>
<path stroke="#858787" stroke-opacity="0.969" vector-effect="non-scaling-stroke" d="
  M 267.72 186.73
  Q 266.44 192.10 266.54 197.50"
/>
<path stroke="#818182" stroke-opacity="0.992" vector-effect="non-scaling-stroke" d="
  M 265.96 201.50
  L 265.26 207.88
  A 0.97 0.89 -86.8 0 1 264.37 208.75
  L 232.31 208.69
  A 1.73 1.52 -24.8 0 1 231.39 208.42
  C 227.49 205.73 228.00 197.50 228.25 192.75"
/>
<path stroke="#818182" stroke-opacity="0.992" vector-effect="non-scaling-stroke" d="
  M 228.25 192.75
  L 229.46 182.00"
/>
<path stroke="#858787" stroke-opacity="0.969" vector-effect="non-scaling-stroke" d="
  M 231.04 168.00
  L 231.96 158.00"
/>
<path stroke="#818182" stroke-opacity="0.992" vector-effect="non-scaling-stroke" d="
  M 234.54 135.00
  Q 235.64 129.94 235.71 124.75"
/>
<path stroke="#858787" stroke-opacity="0.969" vector-effect="non-scaling-stroke" d="
  M 335.29 116.75
  L 334.54 127.75"
/>
<path stroke="#858787" stroke-opacity="0.969" vector-effect="non-scaling-stroke" d="
  M 333.21 139.75
  L 332.54 145.50"
/>
<path stroke="#8b8b8d" stroke-opacity="0.922" vector-effect="non-scaling-stroke" d="
  M 332.00 150.21
  L 331.54 153.75"
/>
<path stroke="#8b8b8d" stroke-opacity="0.922" vector-effect="non-scaling-stroke" d="
  M 331.21 157.50
  L 330.54 162.50"
/>
<path stroke="#8b8b8d" stroke-opacity="0.922" vector-effect="non-scaling-stroke" d="
  M 330.04 167.75
  L 329.75 171.46"
/>
<path stroke="#8b8b8d" stroke-opacity="0.922" vector-effect="non-scaling-stroke" d="
  M 329.21 176.75
  L 328.54 182.00"
/>
<path stroke="#8b8b8d" stroke-opacity="0.922" vector-effect="non-scaling-stroke" d="
  M 328.04 186.75
  L 327.54 191.00"
/>
<path stroke="#8b8b8d" stroke-opacity="0.922" vector-effect="non-scaling-stroke" d="
  M 327.21 195.00
  L 326.54 200.75"
/>
<path stroke="#818182" stroke-opacity="0.992" vector-effect="non-scaling-stroke" d="
  M 326.21 203.75
  L 325.75 208.05
  A 0.78 0.68 -86.8 0 1 325.06 208.75
  Q 318.37 208.75 311.75 208.75
  Q 310.77 208.75 310.96 207.75"
/>
<path stroke="#818182" stroke-opacity="0.992" vector-effect="non-scaling-stroke" d="
  M 314.29 177.75
  L 315.09 170.72"
/>
<path stroke="#8b8b8d" stroke-opacity="0.922" vector-effect="non-scaling-stroke" d="
  M 316.54 158.50
  L 317.46 150.75"
/>
<path stroke="#818182" stroke-opacity="0.992" vector-effect="non-scaling-stroke" d="
  M 320.04 125.50
  Q 320.58 122.88 320.05 120.30
  A 0.66 0.65 -3.9 0 0 319.44 119.78
  C 317.56 119.69 313.29 118.36 314.29 122.25"
/>
<path stroke="#8b8b8d" stroke-opacity="0.922" vector-effect="non-scaling-stroke" d="
  M 312.21 141.25
  L 311.75 145.46"
/>
<path stroke="#858787" stroke-opacity="0.969" vector-effect="non-scaling-stroke" d="
  M 311.21 150.50
  L 310.54 156.00"
/>
<path stroke="#858787" stroke-opacity="0.969" vector-effect="non-scaling-stroke" d="
  M 310.21 160.50
  Q 309.36 163.95 309.54 167.50"
/>
<path stroke="#858787" stroke-opacity="0.969" vector-effect="non-scaling-stroke" d="
  M 309.21 169.75
  L 308.29 178.50"
/>
<path stroke="#818182" stroke-opacity="0.992" vector-effect="non-scaling-stroke" d="
  M 305.71 203.25
  L 305.04 207.89
  A 1.07 1.05 3.5 0 1 304.01 208.79
  L 291.00 209.04"
/>
<path stroke="#818182" stroke-opacity="0.992" vector-effect="non-scaling-stroke" d="
  M 291.00 209.04
  C 290.19 208.35 291.67 197.92 291.71 196.00"
/>
<path stroke="#818182" stroke-opacity="0.992" vector-effect="non-scaling-stroke" d="
  M 294.29 173.50
  L 295.25 165.29"
/>
<path stroke="#818182" stroke-opacity="0.992" vector-effect="non-scaling-stroke" d="
  M 299.71 121.75
  Q 300.11 119.38 297.35 119.81
  Q 296.33 119.97 295.37 119.61
  Q 293.06 118.74 293.79 121.75"
/>
<path stroke="#858787" stroke-opacity="0.969" vector-effect="non-scaling-stroke" d="
  M 293.79 121.75
  L 292.50 135.71"
/>
<path stroke="#858787" stroke-opacity="0.969" vector-effect="non-scaling-stroke" d="
  M 291.21 147.50
  L 290.04 158.50"
/>
<path stroke="#858787" stroke-opacity="0.969" vector-effect="non-scaling-stroke" d="
  M 287.96 178.75
  L 286.29 195.25"
/>
<path stroke="#818182" stroke-opacity="0.992" vector-effect="non-scaling-stroke" d="
  M 285.96 198.25
  L 284.63 208.06
  A 0.60 0.58 -86.5 0 1 284.06 208.58
  L 270.81 208.93
  A 0.52 0.50 -1.7 0 1 270.27 208.44
  L 270.25 206.79"
/>
<path stroke="#a5a5a5" stroke-opacity="0.776" vector-effect="non-scaling-stroke" d="
  M 355.54 118.75
  Q 354.56 122.30 354.66 126.03"
/>
<path stroke="#858787" stroke-opacity="0.969" vector-effect="non-scaling-stroke" d="
  M 353.21 138.50
  L 352.29 146.50"
/>
<path stroke="#a5a5a5" stroke-opacity="0.776" vector-effect="non-scaling-stroke" d="
  M 352.21 147.75
  L 351.54 153.00"
/>
<path stroke="#8b8b8d" stroke-opacity="0.922" vector-effect="non-scaling-stroke" d="
  M 351.21 156.75
  L 350.61 162.03"
/>
<path stroke="#8b8b8d" stroke-opacity="0.922" vector-effect="non-scaling-stroke" d="
  M 348.54 180.50
  L 348.04 186.00"
/>
<path stroke="#858787" stroke-opacity="0.969" vector-effect="non-scaling-stroke" d="
  M 347.71 189.50
  L 346.75 199.21"
/>
<path stroke="#818182" stroke-opacity="0.992" vector-effect="non-scaling-stroke" d="
  M 346.21 203.50
  L 345.50 208.02
  A 0.87 0.80 -84.9 0 1 344.70 208.75
  L 336.49 208.75
  Q 334.72 208.75 334.03 207.12
  Q 332.62 203.74 332.46 200.00"
/>
<path stroke="#818182" stroke-opacity="0.992" vector-effect="non-scaling-stroke" d="
  M 332.54 196.50
  L 333.21 189.00"
/>
<path stroke="#858787" stroke-opacity="0.969" vector-effect="non-scaling-stroke" d="
  M 336.46 158.25
  L 337.21 151.75"
/>
<path stroke="#818182" stroke-opacity="0.992" vector-effect="non-scaling-stroke" d="
  M 338.54 139.25
  L 339.21 133.25"
/>
<path stroke="#a5a5a5" stroke-opacity="0.776" vector-effect="non-scaling-stroke" d="
  M 339.21 133.25
  L 339.54 129.75"
/>
<path stroke="#818182" stroke-opacity="0.992" vector-effect="non-scaling-stroke" d="
  M 398.21 118.75
  Q 398.28 121.90 395.60 121.65
  C 389.36 121.06 382.96 121.91 376.70 121.37
  Q 374.05 121.14 374.79 124.25"
/>
<path stroke="#8b8b8d" stroke-opacity="0.922" vector-effect="non-scaling-stroke" d="
  M 373.21 138.25
  Q 372.31 141.02 373.21 143.75"
/>
<path stroke="#858787" stroke-opacity="0.969" vector-effect="non-scaling-stroke" d="
  M 391.21 196.50
  L 390.29 204.75"
/>
<path stroke="#818182" stroke-opacity="0.992" vector-effect="non-scaling-stroke" d="
  M 390.21 205.75
  Q 390.18 207.10 389.66 208.24
  A 0.80 0.76 11.3 0 1 388.94 208.69
  L 352.20 208.81
  A 0.60 0.48 0.9 0 1 351.60 208.31
  L 351.71 205.25"
/>
<path stroke="#818182" stroke-opacity="0.992" vector-effect="non-scaling-stroke" d="
  M 380.63 162.28
  Q 381.22 159.92 379.80 158.41
  A 1.25 0.98 -16.6 0 0 378.94 158.07
  L 362.10 157.79
  Q 359.95 157.75 359.35 155.61
  Q 358.05 150.96 358.29 146.50"
/>
<path stroke="#818182" stroke-opacity="0.992" vector-effect="non-scaling-stroke" d="
  M 358.29 146.50
  L 359.25 135.79"
/>
<path stroke="#858787" stroke-opacity="0.969" vector-effect="non-scaling-stroke" d="
  M 413.96 165.25
  L 412.29 181.25"
/>
<path stroke="#818182" stroke-opacity="0.992" vector-effect="non-scaling-stroke" d="
  M 420.54 161.00
  L 421.21 155.25"
/>
<path stroke="#818182" stroke-opacity="0.992" vector-effect="non-scaling-stroke" d="
  M 422.54 142.50
  L 423.96 129.50"
/>
<path stroke="#858787" stroke-opacity="0.969" vector-effect="non-scaling-stroke" d="
  M 440.21 113.50
  L 439.54 119.00"
/>
<path stroke="#8b8b8d" stroke-opacity="0.922" vector-effect="non-scaling-stroke" d="
  M 439.21 122.50
  L 438.54 128.75"
/>
<path stroke="#8b8b8d" stroke-opacity="0.922" vector-effect="non-scaling-stroke" d="
  M 435.21 158.25
  Q 434.42 160.92 434.64 163.79"
/>
<path stroke="#858787" stroke-opacity="0.969" vector-effect="non-scaling-stroke" d="
  M 433.21 175.75
  L 432.54 181.00"
/>
<path stroke="#858787" stroke-opacity="0.969" vector-effect="non-scaling-stroke" d="
  M 432.00 186.21
  L 431.54 190.00"
/>
<path stroke="#818182" stroke-opacity="0.992" vector-effect="non-scaling-stroke" d="
  M 440.54 165.25
  L 441.25 158.79"
/>
<path stroke="#8b8b8d" stroke-opacity="0.922" vector-effect="non-scaling-stroke" d="
  M 444.54 127.00
  L 445.21 122.25"
/>
<path stroke="#a5a5a5" stroke-opacity="0.776" vector-effect="non-scaling-stroke" d="
  M 445.54 117.25
  L 446.21 111.75"
/>
<path stroke="#8b8b8d" stroke-opacity="0.922" vector-effect="non-scaling-stroke" d="
  M 460.21 116.50
  L 459.54 122.00"
/>
<path stroke="#8b8b8d" stroke-opacity="0.922" vector-effect="non-scaling-stroke" d="
  M 459.21 125.25
  L 458.29 132.75"
/>
<path stroke="#8b8b8d" stroke-opacity="0.922" vector-effect="non-scaling-stroke" d="
  M 458.00 136.21
  L 457.54 139.75"
/>
<path stroke="#8b8b8d" stroke-opacity="0.922" vector-effect="non-scaling-stroke" d="
  M 456.21 152.25
  L 455.54 158.00"
/>
<path stroke="#8b8b8d" stroke-opacity="0.922" vector-effect="non-scaling-stroke" d="
  M 455.21 161.75
  L 454.29 168.25"
/>
<path stroke="#858787" stroke-opacity="0.969" vector-effect="non-scaling-stroke" d="
  M 454.21 170.75
  L 453.54 176.00"
/>
<path stroke="#858787" stroke-opacity="0.969" vector-effect="non-scaling-stroke" d="
  M 452.21 189.25
  L 451.54 195.50"
/>
<path stroke="#858787" stroke-opacity="0.969" vector-effect="non-scaling-stroke" d="
  M 451.21 198.75
  L 450.21 207.25"
/>
<path stroke="#818182" stroke-opacity="0.992" vector-effect="non-scaling-stroke" d="
  M 450.21 207.25
  L 449.90 208.24
  A 0.79 0.63 6.8 0 1 449.18 208.69
  Q 425.42 208.84 401.67 208.70
  C 396.25 208.67 396.18 200.14 396.21 196.75"
/>
<path stroke="#818182" stroke-opacity="0.992" vector-effect="non-scaling-stroke" d="
  M 398.54 172.50
  L 399.21 167.25"
/>
<path stroke="#8b8b8d" stroke-opacity="0.922" vector-effect="non-scaling-stroke" d="
  M 404.71 116.00
  L 405.21 111.50"
/>
<path stroke="#ffffff" vector-effect="non-scaling-stroke" d="
  M 498.79 124.25
  Q 498.11 126.15 498.96 128.00"
/>
<path stroke="#818182" stroke-opacity="0.992" vector-effect="non-scaling-stroke" d="
  M 502.29 207.50
  Q 502.37 208.07 502.21 208.55
  A 0.73 0.62 9.4 0 1 501.50 208.97
  Q 495.00 208.59 488.50 209.00
  Q 486.62 209.12 487.04 206.50"
/>
<path stroke="#818182" stroke-opacity="0.992" vector-effect="non-scaling-stroke" d="
  M 486.96 205.75
  L 486.44 182.83
  A 0.42 0.40 -1.4 0 0 486.01 182.44
  L 474.07 182.49
  A 0.94 0.88 2.7 0 0 473.14 183.28
  L 472.54 189.50"
/>
<path stroke="#8b8b8d" stroke-opacity="0.922" vector-effect="non-scaling-stroke" d="
  M 472.21 193.25
  L 471.54 199.00"
/>
<path stroke="#818182" stroke-opacity="0.992" vector-effect="non-scaling-stroke" d="
  M 471.46 201.00
  L 470.74 207.50
  A 1.38 1.25 -86.2 0 1 469.47 208.73
  L 456.16 208.62"
/>
<path stroke="#858787" stroke-opacity="0.969" vector-effect="non-scaling-stroke" d="
  M 458.54 186.50
  L 459.21 181.75"
/>
<path stroke="#858787" stroke-opacity="0.969" vector-effect="non-scaling-stroke" d="
  M 460.54 169.00
  L 461.21 163.75"
/>
<path stroke="#818182" stroke-opacity="0.992" vector-effect="non-scaling-stroke" d="
  M 528.54 164.50
  L 529.71 152.75"
/>
<path stroke="#858787" stroke-opacity="0.969" vector-effect="non-scaling-stroke" d="
  M 548.96 108.75
  L 548.29 114.50"
/>
<path stroke="#858787" stroke-opacity="0.969" vector-effect="non-scaling-stroke" d="
  M 547.21 124.75
  L 546.29 133.25"
/>
<path stroke="#858787" stroke-opacity="0.969" vector-effect="non-scaling-stroke" d="
  M 545.71 139.25
  L 544.54 150.00"
/>
<path stroke="#858787" stroke-opacity="0.969" vector-effect="non-scaling-stroke" d="
  M 543.21 161.25
  L 542.54 167.50"
/>
<path stroke="#858787" stroke-opacity="0.969" vector-effect="non-scaling-stroke" d="
  M 541.21 179.75
  L 540.54 184.50"
/>
<path stroke="#a5a5a5" stroke-opacity="0.776" vector-effect="non-scaling-stroke" d="
  M 540.21 188.75
  L 539.29 197.25"
/>
<path stroke="#818182" stroke-opacity="0.992" vector-effect="non-scaling-stroke" d="
  M 539.21 198.00
  L 538.24 207.08
  A 1.87 1.71 -86.7 0 1 536.52 208.75
  L 511.17 208.75
  A 2.40 2.39 75.1 0 1 509.09 207.54
  Q 507.61 204.94 507.21 201.50"
/>
<path stroke="#818182" stroke-opacity="0.992" vector-effect="non-scaling-stroke" d="
  M 507.21 201.50
  L 506.29 189.00"
/>
<path stroke="#858787" stroke-opacity="0.969" vector-effect="non-scaling-stroke" d="
  M 590.52 122.18
  Q 579.61 123.29 568.69 122.59
  A 1.27 0.99 19.8 0 0 567.81 122.88
  Q 567.05 123.62 567.27 124.46"
/>
<path stroke="#858787" stroke-opacity="0.969" vector-effect="non-scaling-stroke" d="
  M 584.96 154.00
  L 584.21 161.19
  A 0.56 0.53 -87.0 0 1 583.68 161.69
  L 564.05 161.81
  A 0.56 0.56 2.8 0 0 563.49 162.31
  L 563.29 164.25"
/>
<path stroke="#8b8b8d" stroke-opacity="0.922" vector-effect="non-scaling-stroke" d="
  M 563.21 165.75
  L 562.50 172.71"
/>
<path stroke="#8b8b8d" stroke-opacity="0.922" vector-effect="non-scaling-stroke" d="
  M 562.21 176.25
  L 561.54 182.75"
/>
<path stroke="#818182" stroke-opacity="0.992" vector-effect="non-scaling-stroke" d="
  M 583.46 199.00
  L 582.26 207.60
  A 1.33 1.23 -85.7 0 1 581.03 208.75
  Q 566.48 208.75 552.67 208.75
  C 549.93 208.75 547.55 209.16 546.50 206.00
  Q 544.85 201.01 545.46 194.00"
/>
<path stroke="#858787" stroke-opacity="0.969" vector-effect="non-scaling-stroke" d="
  M 546.29 187.25
  L 547.07 179.72"
/>
<path stroke="#818182" stroke-opacity="0.992" vector-effect="non-scaling-stroke" d="
  M 548.54 166.50
  L 549.00 162.54"
/>
<path stroke="#818182" stroke-opacity="0.992" vector-effect="non-scaling-stroke" d="
  M 549.00 162.54
  Q 549.47 161.19 549.21 159.75"
/>
<path stroke="#858787" stroke-opacity="0.969" vector-effect="non-scaling-stroke" d="
  M 554.04 116.00
  L 554.96 108.00"
/>
<path stroke="#c7be83" vector-effect="non-scaling-stroke" d="
  M 166.04 139.00
  L 162.67 168.43
  A 0.71 0.67 -87.4 0 0 163.35 169.22
  L 173.81 169.00
  A 0.53 0.50 88.3 0 0 174.30 168.45
  L 173.29 142.00"
/>
<path stroke="#d0c887" vector-effect="non-scaling-stroke" d="
  M 173.29 142.00
  L 172.76 120.72
  A 0.92 0.84 88.9 0 0 171.92 119.83
  L 168.43 119.85
  A 0.69 0.56 -84.7 0 0 167.86 120.44
  Q 166.43 129.67 166.04 139.00"
/>
<path stroke="#97870b" vector-effect="non-scaling-stroke" d="
  M 173.29 142.00
  L 172.52 146.76"
/>
<path stroke="#cfb608" vector-effect="non-scaling-stroke" d="
  M 172.52 146.76
  L 171.21 123.06
  A 0.54 0.52 87.7 0 0 170.68 122.55
  Q 168.17 122.59 168.85 125.03
  Q 168.98 125.52 168.91 125.99
  L 166.29 143.00"
/>
<path stroke="#97870b" vector-effect="non-scaling-stroke" d="
  M 166.29 143.00
  L 166.04 139.00"
/>
<path stroke="#c6ac04" vector-effect="non-scaling-stroke" d="
  M 172.52 146.76
  L 172.56 167.30
  A 1.16 1.12 -89.5 0 1 171.42 168.46
  L 165.25 168.31
  A 0.73 0.69 82.0 0 1 164.59 167.78
  C 164.14 166.17 165.00 164.49 165.03 163.24
  Q 165.30 153.10 166.29 143.00"
/>
<path stroke="#858787" stroke-opacity="0.969" vector-effect="non-scaling-stroke" d="
  M 249.96 124.50
  L 248.29 140.75"
/>
<path stroke="#858787" stroke-opacity="0.969" vector-effect="non-scaling-stroke" d="
  M 247.96 144.25
  L 246.79 155.25"
/>
<path stroke="#858787" stroke-opacity="0.969" vector-effect="non-scaling-stroke" d="
  M 246.21 161.00
  L 245.06 171.82"
/>
<path stroke="#858787" stroke-opacity="0.969" vector-effect="non-scaling-stroke" d="
  M 254.29 174.75
  Q 255.73 168.07 255.71 161.25"
/>
<path stroke="#858787" stroke-opacity="0.969" vector-effect="non-scaling-stroke" d="
  M 256.04 157.75
  L 257.96 140.00"
/>
<path stroke="#818182" stroke-opacity="0.992" vector-effect="non-scaling-stroke" d="
  M 258.04 139.50
  Q 259.37 131.80 259.86 121.79
  Q 259.95 119.87 257.97 119.81
  L 251.31 119.59
  A 0.91 0.75 13.4 0 0 250.53 119.97
  Q 249.91 121.04 250.22 122.62"
/>
<path stroke="#858787" stroke-opacity="0.969" vector-effect="non-scaling-stroke" d="
  M 478.21 136.75
  L 475.79 159.50"
/>
<path stroke="#858787" stroke-opacity="0.969" vector-effect="non-scaling-stroke" d="
  M 475.21 164.50
  C 474.78 165.84 473.40 170.72 476.53 169.69"
/>
<path stroke="#858787" stroke-opacity="0.969" vector-effect="non-scaling-stroke" d="
  M 485.56 169.73
  Q 486.19 164.79 485.71 159.75"
/>
<path stroke="#818182" stroke-opacity="0.992" vector-effect="non-scaling-stroke" d="
  M 485.71 159.75
  L 484.58 135.25"
/>
<path stroke="#818182" stroke-opacity="0.992" vector-effect="non-scaling-stroke" d="
  M 484.46 125.00
  L 484.29 120.80
  A 0.50 0.43 -7.2 0 0 483.70 120.41
  C 481.92 120.76 479.03 119.28 479.54 122.50"
/>
<path stroke="#813b01" stroke-opacity="0.992" vector-effect="non-scaling-stroke" d="
  M 162.66 183.64
  L 161.26 191.06
  A 0.45 0.44 -84.6 0 0 161.69 191.59
  L 173.52 191.72
  A 1.03 1.00 84.4 0 0 174.50 190.49
  C 174.17 188.87 174.52 183.82 172.75 183.46"
/>
<path stroke="#502505" stroke-opacity="0.992" vector-effect="non-scaling-stroke" d="
  M 172.75 183.46
  Q 167.58 181.84 162.66 183.64"
/>
<path stroke="#ce5e04" vector-effect="non-scaling-stroke" d="
  M 172.75 183.46
  Q 167.89 184.93 162.66 183.64"
/>
</g>
<path fill="#fe8400" d="
  M 92.75 58.79
  L 93.44 59.05
  A 0.55 0.38 17.9 0 1 93.83 59.55
  L 85.11 98.42
  Q 63.64 97.41 42.30 98.17
  C 41.61 98.20 40.85 98.90 41.21 97.25
  L 49.57 60.36
  A 2.07 2.06 6.3 0 1 51.59 58.75
  L 92.75 58.79
  Z"
/>
<path fill="#255a08" d="
  M 92.75 58.79
  Q 95.57 58.12 95.96 60.75
  Q 94.05 61.08 94.38 63.00
  Q 94.48 63.57 94.37 63.97
  C 89.35 82.87 85.79 102.21 81.29 121.25
  L 78.54 134.50
  Q 76.39 144.48 74.02 154.40
  C 73.56 156.31 72.53 157.55 73.21 160.00
  Q 72.87 160.96 72.96 162.00
  C 72.58 159.12 71.39 164.04 71.29 164.25
  L 71.21 162.75
  L 79.33 125.45
  L 82.50 110.29
  L 85.11 98.42
  L 93.83 59.55
  A 0.55 0.38 17.9 0 0 93.44 59.05
  L 92.75 58.79
  Z"
/>
<path fill="#4ba501" d="
  M 95.96 60.75
  L 106.84 108.02
  L 104.21 118.90
  Q 94.61 113.61 83.37 117.20
  A 0.76 0.76 -13.6 0 0 82.85 118.05
  Q 83.23 120.23 81.29 121.25
  C 85.79 102.21 89.35 82.87 94.37 63.97
  Q 94.48 63.57 94.38 63.00
  Q 94.05 61.08 95.96 60.75
  Z"
/>
<path fill="#ff7300" d="
  M 136.50 75.79
  L 158.67 75.99
  A 1.11 0.98 -87.8 0 1 159.63 77.16
  L 159.31 82.30
  Q 157.58 86.36 157.09 89.98
  Q 135.77 89.61 114.56 89.94
  Q 112.09 89.98 112.58 87.27
  L 114.98 76.86
  A 1.13 1.11 -83.5 0 1 116.07 75.98
  L 136.50 75.79
  Z"
/>
<path fill="#3a9901" d="
  M 136.50 75.79
  Q 146.27 75.73 156.05 75.75
  C 159.13 75.75 161.74 75.18 162.20 78.35
  C 163.06 84.28 164.83 90.04 165.79 96.00
  Q 165.50 100.54 163.25 105.95
  A 1.62 1.38 8.7 0 1 161.86 106.81
  L 156.50 106.96
  Q 155.31 107.23 155.46 108.50
  Q 154.10 108.67 154.46 107.25
  L 159.31 82.30
  L 159.63 77.16
  A 1.11 0.98 -87.8 0 0 158.67 75.99
  L 136.50 75.79
  Z"
/>
<path fill="#255a08" d="
  M 159.31 82.30
  L 154.46 107.25
  L 154.00 109.46
  L 148.75 133.46
  C 146.33 143.59 144.62 151.68 141.72 163.94
  Q 140.06 170.91 138.96 178.00
  Q 137.59 180.45 137.26 183.25
  Q 137.08 184.78 136.79 182.50
  L 137.23 180.03
  L 139.72 168.52
  L 142.72 155.08
  L 148.00 131.04
  L 151.33 115.93
  L 153.27 107.67
  L 157.09 89.98
  Q 157.58 86.36 159.31 82.30
  Z"
/>
<path fill="#fe9700" d="
  M 112.58 87.27
  Q 112.09 89.98 114.56 89.94
  Q 135.77 89.61 157.09 89.98
  L 153.27 107.67
  Q 146.75 106.01 139.50 106.50
  C 130.10 107.14 120.19 106.42 110.49 106.50
  A 1.71 1.01 50.7 0 1 109.62 106.18
  Q 108.51 105.41 108.07 107.28
  L 112.58 87.27
  Z"
/>
<path fill="#ff7a00" d="
  M 212.21 97.00
  Q 211.51 98.16 211.54 99.50
  L 209.75 106.96
  L 189.75 107.29
  C 188.26 107.66 189.55 109.94 189.04 111.25
  Q 188.62 110.52 188.10 110.90
  A 0.97 0.83 -50.6 0 1 187.29 111.04
  Q 186.76 110.86 186.29 111.00
  Q 185.84 109.64 184.75 108.79
  L 183.96 107.50
  Q 183.93 106.74 182.75 106.75
  Q 173.78 106.80 165.22 106.69
  A 0.75 0.75 -82.9 0 1 164.50 105.76
  L 166.71 96.25
  Q 166.32 93.00 169.00 93.00
  Q 189.88 93.00 211.74 93.00
  A 0.76 0.71 2.1 0 1 212.50 93.77
  L 212.21 97.00
  Z"
/>
<path fill="#255a08" d="
  M 165.79 96.00
  Q 166.18 96.33 166.71 96.25
  L 164.50 105.76
  A 0.75 0.75 -82.9 0 0 165.22 106.69
  Q 173.78 106.80 182.75 106.75
  Q 183.93 106.74 183.96 107.50
  L 156.50 106.96
  L 161.86 106.81
  A 1.62 1.38 8.7 0 0 163.25 105.95
  Q 165.50 100.54 165.79 96.00
  Z"
/>
<path fill="#030606" fill-opacity="0.933" d="
  M 212.21 97.00
  Q 212.65 98.53 211.54 99.50
  Q 211.51 98.16 212.21 97.00
  Z"
/>
<path fill="#fdb600" d="
  M 41.21 97.25
  C 40.85 98.90 41.61 98.20 42.30 98.17
  Q 63.64 97.41 85.11 98.42
  L 82.50 110.29
  Q 48.29 109.45 41.75 110.00
  Q 38.70 110.25 38.75 107.71
  L 41.21 97.25
  Z"
/>
<path fill="#fdbc00" d="
  M 153.27 107.67
  L 151.33 115.93
  L 106.21 115.75
  L 107.71 108.25
  L 108.07 107.28
  Q 108.51 105.41 109.62 106.18
  A 1.71 1.01 50.7 0 0 110.49 106.50
  C 120.19 106.42 130.10 107.14 139.50 106.50
  Q 146.75 106.01 153.27 107.67
  Z"
/>
<path fill="#ffffff" d="
  M 156.50 106.96
  L 183.96 107.50
  L 184.75 108.79
  C 186.44 113.30 186.36 117.09 186.58 121.79
  Q 187.82 148.27 189.04 174.75
  L 189.79 192.00
  Q 189.61 199.15 190.54 206.25
  Q 191.21 208.74 189.25 208.75
  Q 180.38 208.80 177.07 209.02
  Q 175.27 209.14 175.46 207.50
  L 174.72 182.46
  A 0.81 0.77 -1.1 0 0 173.91 181.72
  L 162.12 181.73
  A 0.63 0.61 3.1 0 0 161.50 182.27
  L 160.14 194.39
  L 159.96 197.00
  L 159.04 205.75
  L 158.83 208.21
  A 0.66 0.52 1.3 0 1 158.19 208.69
  L 145.07 208.92
  A 0.54 0.49 -0.6 0 1 144.52 208.43
  L 144.54 206.00
  L 145.21 201.25
  L 145.29 200.75
  Q 146.98 186.29 153.75 125.50
  Q 154.56 118.27 154.71 114.25
  L 155.46 108.50
  Q 155.31 107.23 156.50 106.96
  Z
  M 166.04 139.00
  L 162.67 168.43
  A 0.71 0.67 -87.4 0 0 163.35 169.22
  L 173.81 169.00
  A 0.53 0.50 88.3 0 0 174.30 168.45
  L 173.29 142.00
  L 172.76 120.72
  A 0.92 0.84 88.9 0 0 171.92 119.83
  L 168.43 119.85
  A 0.69 0.56 -84.7 0 0 167.86 120.44
  Q 166.43 129.67 166.04 139.00
  Z"
/>
<path fill="#ffffff" d="
  M 209.75 106.96
  L 234.18 107.24
  A 0.60 0.58 6.0 0 1 234.76 107.94
  Q 233.54 113.92 233.31 120.81
  Q 226.63 121.93 219.81 121.59
  A 0.60 0.54 4.8 0 0 219.19 122.06
  L 218.54 128.00
  L 214.75 164.21
  Q 214.28 165.44 214.54 166.75
  L 214.00 171.21
  L 213.54 175.00
  L 213.21 178.25
  L 212.54 184.00
  L 211.96 190.00
  L 211.54 193.75
  L 211.21 198.25
  L 210.54 203.00
  L 210.29 207.00
  C 209.77 209.80 204.10 208.75 201.85 208.75
  Q 200.14 208.75 199.19 207.32
  C 196.44 203.16 196.83 196.51 197.21 191.75
  L 202.50 144.29
  L 203.75 133.54
  L 205.07 122.15
  A 0.78 0.74 2.6 0 0 204.28 121.33
  L 191.50 121.54
  C 190.76 121.04 189.91 109.09 189.75 107.29
  L 209.75 106.96
  Z"
/>
<path fill="#ffffff" d="
  M 271.57 148.50
  L 270.54 159.50
  L 269.96 163.25
  L 268.54 178.00
  Q 267.54 182.35 267.72 186.73
  Q 266.44 192.10 266.54 197.50
  L 265.96 201.50
  L 265.26 207.88
  A 0.97 0.89 -86.8 0 1 264.37 208.75
  L 232.31 208.69
  A 1.73 1.52 -24.8 0 1 231.39 208.42
  C 227.49 205.73 228.00 197.50 228.25 192.75
  L 229.46 182.00
  L 231.04 168.00
  L 231.96 158.00
  L 234.54 135.00
  Q 235.64 129.94 235.71 124.75
  L 237.73 107.71
  A 0.81 0.78 -86.3 0 1 238.51 107.00
  Q 254.25 107.00 269.00 107.00
  C 276.28 107.00 274.83 115.86 274.35 120.79
  Q 273.00 134.66 271.57 148.50
  Z
  M 250.22 122.62
  Q 249.87 123.41 249.96 124.50
  L 248.29 140.75
  L 247.96 144.25
  L 246.79 155.25
  L 246.21 161.00
  L 245.06 171.82
  L 243.23 192.78
  Q 243.05 194.95 245.23 194.96
  L 251.35 194.99
  A 0.93 0.91 -86.8 0 0 252.26 194.16
  L 254.29 174.75
  Q 255.73 168.07 255.71 161.25
  L 256.04 157.75
  L 257.96 140.00
  L 258.04 139.50
  Q 259.37 131.80 259.86 121.79
  Q 259.95 119.87 257.97 119.81
  L 251.31 119.59
  A 0.91 0.75 13.4 0 0 250.53 119.97
  Q 249.91 121.04 250.22 122.62
  Z"
/>
<path fill="#ffffff" d="
  M 335.29 116.75
  L 334.54 127.75
  L 333.21 139.75
  L 332.54 145.50
  L 332.00 150.21
  L 331.54 153.75
  L 331.21 157.50
  L 330.54 162.50
  L 330.04 167.75
  L 329.75 171.46
  L 329.21 176.75
  L 328.54 182.00
  L 328.04 186.75
  L 327.54 191.00
  L 327.21 195.00
  L 326.54 200.75
  L 326.21 203.75
  L 325.75 208.05
  A 0.78 0.68 -86.8 0 1 325.06 208.75
  Q 318.37 208.75 311.75 208.75
  Q 310.77 208.75 310.96 207.75
  L 314.29 177.75
  L 315.09 170.72
  L 316.54 158.50
  L 317.46 150.75
  L 320.04 125.50
  Q 320.58 122.88 320.05 120.30
  A 0.66 0.65 -3.9 0 0 319.44 119.78
  C 317.56 119.69 313.29 118.36 314.29 122.25
  L 312.21 141.25
  L 311.75 145.46
  L 311.21 150.50
  L 310.54 156.00
  L 310.21 160.50
  Q 309.36 163.95 309.54 167.50
  Q 309.08 168.56 309.21 169.75
  L 308.29 178.50
  L 305.71 203.25
  L 305.04 207.89
  A 1.07 1.05 3.5 0 1 304.01 208.79
  L 291.00 209.04
  C 290.19 208.35 291.67 197.92 291.71 196.00
  L 294.29 173.50
  L 295.25 165.29
  C 296.64 153.91 297.70 142.50 299.24 131.14
  Q 299.87 126.47 299.71 121.75
  Q 300.11 119.38 297.35 119.81
  Q 296.33 119.97 295.37 119.61
  Q 293.06 118.74 293.79 121.75
  L 292.50 135.71
  L 291.21 147.50
  L 290.04 158.50
  L 287.96 178.75
  L 286.29 195.25
  L 285.96 198.25
  L 284.63 208.06
  A 0.60 0.58 -86.5 0 1 284.06 208.58
  L 270.81 208.93
  A 0.52 0.50 -1.7 0 1 270.27 208.44
  L 270.25 206.79
  L 281.23 107.71
  A 0.80 0.79 -86.8 0 1 282.02 107.00
  L 330.84 107.00
  Q 332.57 107.00 333.41 108.52
  Q 335.54 112.37 335.29 116.75
  Z"
/>
<path fill="#ffffff" d="
  M 355.54 118.75
  Q 354.56 122.30 354.66 126.03
  L 353.21 138.50
  L 352.29 146.50
  L 352.21 147.75
  L 351.54 153.00
  L 351.21 156.75
  L 350.61 162.03
  L 348.54 180.50
  L 348.04 186.00
  L 347.71 189.50
  L 346.75 199.21
  L 346.21 203.50
  L 345.50 208.02
  A 0.87 0.80 -84.9 0 1 344.70 208.75
  L 336.49 208.75
  Q 334.72 208.75 334.03 207.12
  Q 332.62 203.74 332.46 200.00
  L 332.54 196.50
  L 333.21 189.00
  Q 333.24 185.63 334.50 178.75
  Q 335.36 174.07 336.46 158.25
  L 337.21 151.75
  L 338.54 139.25
  L 339.21 133.25
  L 339.54 129.75
  L 341.71 108.47
  A 1.64 1.61 -87.0 0 1 343.31 107.00
  L 355.53 107.00
  A 1.11 1.08 -86.9 0 1 356.60 108.23
  L 355.54 118.75
  Z"
/>
<path fill="#ffffff" d="
  M 398.21 118.75
  Q 398.28 121.90 395.60 121.65
  C 389.36 121.06 382.96 121.91 376.70 121.37
  Q 374.05 121.14 374.79 124.25
  L 373.21 138.25
  Q 372.31 141.02 373.21 143.75
  C 373.00 144.96 373.49 145.68 374.78 145.70
  Q 386.84 145.87 389.25 145.75
  C 395.22 145.46 395.72 152.37 395.31 156.51
  Q 393.29 176.51 391.21 196.50
  L 390.29 204.75
  L 390.21 205.75
  Q 390.18 207.10 389.66 208.24
  A 0.80 0.76 11.3 0 1 388.94 208.69
  L 352.20 208.81
  A 0.60 0.48 0.9 0 1 351.60 208.31
  L 351.71 205.25
  L 352.74 194.86
  A 1.52 1.44 -86.9 0 1 354.18 193.50
  L 376.63 193.50
  A 0.54 0.53 -86.3 0 0 377.16 193.03
  L 380.63 162.28
  Q 381.22 159.92 379.80 158.41
  A 1.25 0.98 -16.6 0 0 378.94 158.07
  L 362.10 157.79
  Q 359.95 157.75 359.35 155.61
  Q 358.05 150.96 358.29 146.50
  L 359.25 135.79
  L 362.30 108.28
  A 1.36 1.35 -86.9 0 1 363.64 107.06
  L 398.56 107.00
  A 0.93 0.87 -86.5 0 1 399.42 108.04
  L 398.21 118.75
  Z"
/>
<path fill="#ffffff" d="
  M 413.96 165.25
  L 412.29 181.25
  Q 411.08 187.32 411.00 193.52
  A 1.98 1.97 8.5 0 0 412.43 195.44
  Q 414.09 195.91 416.46 195.32
  A 0.75 0.74 86.0 0 0 417.00 194.69
  L 420.54 161.00
  L 421.21 155.25
  L 422.54 142.50
  L 423.96 129.50
  Q 425.50 118.93 426.00 108.27
  A 1.31 1.25 -88.1 0 1 427.27 107.02
  L 440.19 107.28
  A 0.50 0.49 -87.3 0 1 440.67 107.82
  L 440.21 113.50
  L 439.54 119.00
  L 439.21 122.50
  L 438.54 128.75
  L 435.21 158.25
  Q 434.42 160.92 434.64 163.79
  L 433.21 175.75
  L 432.54 181.00
  L 432.00 186.21
  L 431.54 190.00
  C 431.41 192.29 430.65 196.19 434.26 195.60
  Q 434.75 195.52 435.23 195.66
  C 438.46 196.58 437.67 193.68 437.88 191.97
  Q 439.49 178.64 440.54 165.25
  L 441.25 158.79
  L 444.54 127.00
  L 445.21 122.25
  L 445.54 117.25
  L 446.21 111.75
  L 446.49 108.39
  A 1.15 0.98 -89.6 0 1 447.39 107.35
  Q 453.97 106.73 460.51 107.28
  A 0.51 0.49 -85.4 0 1 460.96 107.83
  L 460.21 116.50
  L 459.54 122.00
  L 459.21 125.25
  L 458.29 132.75
  L 458.00 136.21
  L 457.54 139.75
  L 456.21 152.25
  L 455.54 158.00
  L 455.21 161.75
  L 454.29 168.25
  L 454.21 170.75
  L 453.54 176.00
  L 452.21 189.25
  L 451.54 195.50
  L 451.21 198.75
  L 450.21 207.25
  L 449.90 208.24
  A 0.79 0.63 6.8 0 1 449.18 208.69
  Q 425.42 208.84 401.67 208.70
  C 396.25 208.67 396.18 200.14 396.21 196.75
  L 398.54 172.50
  L 399.21 167.25
  L 404.71 116.00
  L 405.21 111.50
  L 405.62 107.51
  A 0.61 0.56 2.6 0 1 406.22 107.00
  L 419.82 107.00
  A 0.69 0.69 -86.6 0 1 420.50 107.77
  L 413.96 165.25
  Z"
/>
<path fill="#ffffff" d="
  M 498.79 124.25
  Q 498.11 126.15 498.96 128.00
  L 502.29 207.50
  Q 502.37 208.07 502.21 208.55
  A 0.73 0.62 9.4 0 1 501.50 208.97
  Q 495.00 208.59 488.50 209.00
  Q 486.62 209.12 487.04 206.50
  L 486.96 205.75
  L 486.44 182.83
  A 0.42 0.40 -1.4 0 0 486.01 182.44
  L 474.07 182.49
  A 0.94 0.88 2.7 0 0 473.14 183.28
  L 472.54 189.50
  L 472.21 193.25
  L 471.54 199.00
  L 471.46 201.00
  L 470.74 207.50
  A 1.38 1.25 -86.2 0 1 469.47 208.73
  L 456.16 208.62
  L 458.54 186.50
  L 459.21 181.75
  L 460.54 169.00
  L 461.21 163.75
  L 467.50 107.81
  A 0.60 0.59 2.2 0 1 468.07 107.29
  Q 479.04 106.83 490.02 106.98
  C 493.46 107.03 496.32 106.31 497.44 110.56
  Q 498.98 116.43 498.79 124.25
  Z
  M 479.54 122.50
  L 478.21 136.75
  L 475.79 159.50
  L 475.21 164.50
  C 474.78 165.84 473.40 170.72 476.53 169.69
  Q 480.93 169.21 485.56 169.73
  Q 486.19 164.79 485.71 159.75
  L 484.58 135.25
  L 484.46 125.00
  L 484.29 120.80
  A 0.50 0.43 -7.2 0 0 483.70 120.41
  C 481.92 120.76 479.03 119.28 479.54 122.50
  Z"
/>
<path fill="#ffffff" d="
  M 528.54 164.50
  L 529.71 152.75
  L 534.28 107.91
  A 1.01 1.00 -87.2 0 1 535.28 107.00
  Q 541.75 107.00 547.75 106.95
  Q 549.50 106.94 548.96 108.75
  L 548.29 114.50
  L 547.21 124.75
  L 546.29 133.25
  L 545.71 139.25
  L 544.54 150.00
  L 543.21 161.25
  L 542.54 167.50
  L 541.21 179.75
  L 540.54 184.50
  L 540.21 188.75
  L 539.29 197.25
  L 539.21 198.00
  L 538.24 207.08
  A 1.87 1.71 -86.7 0 1 536.52 208.75
  L 511.17 208.75
  A 2.40 2.39 75.1 0 1 509.09 207.54
  Q 507.61 204.94 507.21 201.50
  L 506.29 189.00
  L 503.58 107.56
  A 0.48 0.48 88.9 0 1 504.06 107.06
  L 517.08 107.00
  A 0.95 0.94 88.4 0 1 518.02 107.90
  C 519.48 136.00 519.70 164.21 521.20 192.36
  C 521.28 193.90 521.73 195.08 523.53 194.65
  Q 523.62 194.63 524.48 194.64
  L 525.02 194.64
  A 0.71 0.52 -85.6 0 0 525.57 194.00
  L 528.54 164.50
  Z"
/>
<path fill="#ffffff" d="
  M 590.52 122.18
  Q 579.61 123.29 568.69 122.59
  A 1.27 0.99 19.8 0 0 567.81 122.88
  Q 567.05 123.62 567.27 124.46
  L 565.35 145.19
  A 0.47 0.45 2.8 0 0 565.82 145.69
  L 585.07 145.75
  A 0.48 0.47 2.2 0 1 585.55 146.26
  L 584.96 154.00
  L 584.21 161.19
  A 0.56 0.53 -87.0 0 1 583.68 161.69
  L 564.05 161.81
  A 0.56 0.56 2.8 0 0 563.49 162.31
  L 563.29 164.25
  L 563.21 165.75
  L 562.50 172.71
  L 562.21 176.25
  L 561.54 182.75
  Q 560.58 188.08 560.78 194.41
  A 0.86 0.86 89.3 0 0 561.64 195.25
  L 582.87 195.25
  A 0.59 0.56 0.5 0 1 583.46 195.82
  L 583.46 199.00
  L 582.26 207.60
  A 1.33 1.23 -85.7 0 1 581.03 208.75
  Q 566.48 208.75 552.67 208.75
  C 549.93 208.75 547.55 209.16 546.50 206.00
  Q 544.85 201.01 545.46 194.00
  L 546.29 187.25
  L 547.07 179.72
  L 548.54 166.50
  L 549.00 162.54
  Q 549.47 161.19 549.21 159.75
  L 554.04 116.00
  L 554.96 108.00
  Q 554.95 107.26 555.50 107.25
  Q 572.62 106.98 590.72 107.00
  A 1.16 1.09 -87.1 0 1 591.80 108.27
  L 590.52 122.18
  Z"
/>
<path fill="#255a08" d="
  M 154.46 107.25
  Q 154.10 108.67 155.46 108.50
  L 154.71 114.25
  C 154.03 112.84 154.94 109.96 154.00 109.46
  L 154.46 107.25
  Z"
/>
<path fill="#255a08" d="
  M 189.75 107.29
  C 189.91 109.09 190.76 121.04 191.50 121.54
  Q 191.42 122.07 191.75 122.46
  Q 189.78 122.71 189.81 120.56
  Q 189.87 116.74 189.04 111.25
  C 189.55 109.94 188.26 107.66 189.75 107.29
  Z"
/>
<path fill="#fdd000" d="
  M 38.75 107.71
  Q 38.70 110.25 41.75 110.00
  Q 48.29 109.45 82.50 110.29
  L 79.33 125.45
  Q 57.87 124.13 35.96 124.96
  A 0.52 0.51 78.6 0 1 35.45 124.61
  L 35.04 123.50
  L 38.75 107.71
  Z"
/>
<path fill="#528303" d="
  M 106.84 108.02
  L 107.71 108.25
  L 106.21 115.75
  L 102.50 131.21
  L 96.80 155.26
  L 93.81 168.29
  L 91.26 179.45
  L 89.25 187.96
  L 87.54 194.00
  L 87.46 193.25
  L 92.79 168.75
  L 100.79 134.75
  L 104.21 118.90
  L 106.84 108.02
  Z"
/>
<path fill="#030606" fill-opacity="0.933" d="
  M 554.96 108.00
  L 554.04 116.00
  Q 553.71 111.91 554.96 108.00
  Z"
/>
<path fill="#6f5e02" d="
  M 184.75 108.79
  Q 185.84 109.64 186.29 111.00
  Q 187.73 117.88 187.83 124.86
  C 188.02 137.85 188.73 150.77 189.29 163.75
  Q 189.91 169.29 189.21 174.75
  L 189.04 174.75
  Q 187.82 148.27 186.58 121.79
  C 186.36 117.09 186.44 113.30 184.75 108.79
  Z"
/>
<path fill="#030606" fill-opacity="0.933" d="
  M 548.96 108.75
  Q 549.36 111.74 548.29 114.50
  L 548.96 108.75
  Z"
/>
<path fill="#5d9404" d="
  M 154.00 109.46
  C 154.94 109.96 154.03 112.84 154.71 114.25
  Q 154.56 118.27 153.75 125.50
  Q 146.98 186.29 145.29 200.75
  C 145.19 198.14 147.01 192.90 142.31 192.70
  A 0.81 0.76 -8.5 0 1 141.62 192.22
  Q 139.98 188.15 140.04 183.75
  L 141.87 191.02
  A 1.23 1.00 -86.8 0 0 142.41 191.77
  Q 143.27 192.22 144.24 191.88
  A 0.93 0.78 88.3 0 0 144.78 191.20
  C 147.74 174.91 148.46 158.56 150.75 142.00
  Q 151.46 136.88 151.00 133.06
  A 0.41 0.38 75.6 0 0 150.46 132.72
  L 148.75 133.46
  L 154.00 109.46
  Z"
/>
<path fill="#fce100" d="
  M 189.04 111.25
  Q 189.87 116.74 189.81 120.56
  Q 189.78 122.71 191.75 122.46
  L 203.40 122.72
  A 1.13 1.09 -86.6 0 1 204.46 123.96
  L 203.54 133.50
  L 201.21 146.00
  L 200.04 151.75
  L 198.04 160.75
  L 196.21 169.00
  L 195.46 171.75
  Q 191.01 169.87 190.32 173.75
  Q 190.26 174.09 190.23 173.76
  L 189.29 163.75
  C 188.73 150.77 188.02 137.85 187.83 124.86
  Q 187.73 117.88 186.29 111.00
  Q 186.76 110.86 187.29 111.04
  A 0.97 0.83 -50.6 0 0 188.10 110.90
  Q 188.62 110.52 189.04 111.25
  Z"
/>
<path fill="#010205" fill-opacity="0.843" d="
  M 405.21 111.50
  L 404.71 116.00
  Q 404.04 113.69 405.21 111.50
  Z"
/>
<path fill="#010101" fill-opacity="0.549" d="
  M 446.21 111.75
  L 445.54 117.25
  Q 444.79 114.34 446.21 111.75
  Z"
/>
<path fill="#030606" fill-opacity="0.933" d="
  M 440.21 113.50
  Q 440.75 116.40 439.54 119.00
  L 440.21 113.50
  Z"
/>
<path fill="#fddb00" d="
  M 151.33 115.93
  L 148.00 131.04
  C 147.35 129.40 146.49 129.98 145.25 130.02
  Q 125.86 130.62 105.03 130.22
  A 1.60 1.58 -75.4 0 0 103.59 131.08
  Q 103.08 132.05 102.50 131.21
  L 106.21 115.75
  L 151.33 115.93
  Z"
/>
<path fill="#6cbb01" d="
  M 104.21 118.90
  L 100.79 134.75
  C 101.27 131.35 99.17 132.34 97.32 132.14
  C 92.71 131.65 88.30 131.93 83.71 131.88
  Q 80.55 131.85 78.54 134.50
  L 81.29 121.25
  Q 83.23 120.23 82.85 118.05
  A 0.76 0.76 -13.6 0 1 83.37 117.20
  Q 94.61 113.61 104.21 118.90
  Z"
/>
<path fill="#010205" fill-opacity="0.843" d="
  M 460.21 116.50
  Q 460.89 119.42 459.54 122.00
  L 460.21 116.50
  Z"
/>
<path fill="#030606" fill-opacity="0.933" d="
  M 335.29 116.75
  Q 335.81 122.30 334.54 127.75
  L 335.29 116.75
  Z"
/>
<path fill="#010101" fill-opacity="0.549" d="
  M 355.54 118.75
  Q 355.68 122.47 354.66 126.03
  Q 354.56 122.30 355.54 118.75
  Z"
/>
<path fill="#010102" fill-opacity="0.980" d="
  M 398.21 118.75
  Q 399.22 122.82 395.79 122.60
  C 390.11 122.23 384.21 122.50 378.50 122.50
  Q 375.78 122.50 374.79 124.25
  Q 374.05 121.14 376.70 121.37
  C 382.96 121.91 389.36 121.06 395.60 121.65
  Q 398.28 121.90 398.21 118.75
  Z"
/>
<path fill="#010102" fill-opacity="0.980" d="
  M 258.04 139.50
  L 259.57 123.00
  A 1.81 1.69 -78.3 0 0 258.43 121.14
  C 256.63 120.55 251.13 119.96 250.22 122.62
  Q 249.91 121.04 250.53 119.97
  A 0.91 0.75 13.4 0 1 251.31 119.59
  L 257.97 119.81
  Q 259.95 119.87 259.86 121.79
  Q 259.37 131.80 258.04 139.50
  Z"
/>
<path fill="#010102" fill-opacity="0.980" d="
  M 299.71 121.75
  Q 296.86 119.51 293.96 121.75
  L 293.79 121.75
  Q 293.06 118.74 295.37 119.61
  Q 296.33 119.97 297.35 119.81
  Q 300.11 119.38 299.71 121.75
  Z"
/>
<path fill="#010102" fill-opacity="0.980" d="
  M 320.04 125.50
  L 320.01 122.84
  A 1.89 1.80 -82.4 0 0 318.72 121.06
  Q 315.82 120.20 314.29 122.25
  C 313.29 118.36 317.56 119.69 319.44 119.78
  A 0.66 0.65 -3.9 0 1 320.05 120.30
  Q 320.58 122.88 320.04 125.50
  Z"
/>
<path fill="#a0910f" d="
  M 173.29 142.00
  L 172.52 146.76
  L 171.21 123.06
  A 0.54 0.52 87.7 0 0 170.68 122.55
  Q 168.17 122.59 168.85 125.03
  Q 168.98 125.52 168.91 125.99
  L 166.29 143.00
  L 166.04 139.00
  Q 166.43 129.67 167.86 120.44
  A 0.69 0.56 -84.7 0 1 168.43 119.85
  L 171.92 119.83
  A 0.92 0.84 88.9 0 1 172.76 120.72
  L 173.29 142.00
  Z"
/>
<path fill="#010102" fill-opacity="0.980" d="
  M 484.46 125.00
  Q 484.10 119.71 479.54 122.50
  C 479.03 119.28 481.92 120.76 483.70 120.41
  A 0.50 0.43 -7.2 0 1 484.29 120.80
  L 484.46 125.00
  Z"
/>
<path fill="#010102" fill-opacity="0.980" d="
  M 233.31 120.81
  C 235.58 123.28 222.27 122.50 221.51 122.48
  Q 219.24 122.42 219.25 124.68
  Q 219.26 126.32 218.54 128.00
  L 219.19 122.06
  A 0.60 0.54 4.8 0 1 219.81 121.59
  Q 226.63 121.93 233.31 120.81
  Z"
/>
<path fill="#010102" fill-opacity="0.980" d="
  M 203.75 133.54
  L 203.54 133.50
  L 204.46 123.96
  A 1.13 1.09 -86.6 0 0 203.40 122.72
  L 191.75 122.46
  Q 191.42 122.07 191.50 121.54
  L 204.28 121.33
  A 0.78 0.74 2.6 0 1 205.07 122.15
  L 203.75 133.54
  Z"
/>
<path fill="#030606" fill-opacity="0.933" d="
  M 293.79 121.75
  L 293.96 121.75
  Q 293.92 128.80 292.50 135.71
  L 293.79 121.75
  Z"
/>
<path fill="#030606" fill-opacity="0.933" d="
  M 590.52 122.18
  Q 590.76 123.25 589.07 123.31
  A 0.50 0.19 -79.4 0 0 588.82 123.72
  Q 588.75 124.00 587.49 123.92
  Q 577.32 123.24 567.27 124.46
  Q 567.05 123.62 567.81 122.88
  A 1.27 0.99 19.8 0 1 568.69 122.59
  Q 579.61 123.29 590.52 122.18
  Z"
/>
<path fill="#010205" fill-opacity="0.843" d="
  M 445.21 122.25
  L 444.54 127.00
  Q 443.95 124.42 445.21 122.25
  Z"
/>
<path fill="#fddb00" d="
  M 172.52 146.76
  L 172.56 167.30
  A 1.16 1.12 -89.5 0 1 171.42 168.46
  L 165.25 168.31
  A 0.73 0.69 82.0 0 1 164.59 167.78
  C 164.14 166.17 165.00 164.49 165.03 163.24
  Q 165.30 153.10 166.29 143.00
  L 168.91 125.99
  Q 168.98 125.52 168.85 125.03
  Q 168.17 122.59 170.68 122.55
  A 0.54 0.52 87.7 0 1 171.21 123.06
  L 172.52 146.76
  Z"
/>
<path fill="#010205" fill-opacity="0.843" d="
  M 439.21 122.50
  Q 439.80 125.78 438.54 128.75
  L 439.21 122.50
  Z"
/>
<path fill="#fce900" d="
  M 35.04 123.50
  L 35.45 124.61
  A 0.52 0.51 78.6 0 0 35.96 124.96
  Q 57.87 124.13 79.33 125.45
  L 71.21 162.75
  L 70.29 166.75
  L 70.21 167.50
  Q 69.50 169.16 69.50 170.96
  Q 69.11 171.33 69.21 172.00
  L 68.29 176.25
  L 68.21 176.75
  L 67.29 180.75
  L 66.46 184.50
  Q 64.83 184.32 65.64 182.94
  A 0.49 0.49 16.0 0 0 65.23 182.20
  Q 43.22 181.31 21.37 182.74
  L 35.04 123.50
  Z"
/>
<path fill="#ffffff" d="
  M 498.79 124.25
  L 498.96 128.00
  Q 498.11 126.15 498.79 124.25
  Z"
/>
<path fill="#030606" fill-opacity="0.933" d="
  M 249.96 124.50
  Q 250.08 132.72 248.29 140.75
  L 249.96 124.50
  Z"
/>
<path fill="#010102" fill-opacity="0.980" d="
  M 235.71 124.75
  Q 235.64 129.94 234.54 135.00
  Q 234.52 129.81 235.71 124.75
  Z"
/>
<path fill="#030606" fill-opacity="0.933" d="
  M 547.21 124.75
  Q 547.43 129.08 546.29 133.25
  L 547.21 124.75
  Z"
/>
<path fill="#010205" fill-opacity="0.843" d="
  M 459.21 125.25
  Q 459.77 129.14 458.29 132.75
  L 459.21 125.25
  Z"
/>
<path fill="#010101" fill-opacity="0.549" d="
  M 339.54 129.75
  L 339.21 133.25
  L 339.04 133.25
  L 339.23 128.81
  Q 339.26 127.93 339.48 128.78
  Q 339.59 129.23 339.54 129.75
  Z"
/>
<path fill="#010102" fill-opacity="0.980" d="
  M 423.96 129.50
  L 422.54 142.50
  Q 422.51 135.93 423.96 129.50
  Z"
/>
<path fill="#fcf000" d="
  M 148.00 131.04
  L 142.72 155.08
  Q 119.74 153.50 96.80 155.26
  L 102.50 131.21
  Q 103.08 132.05 103.59 131.08
  A 1.60 1.58 -75.4 0 1 105.03 130.22
  Q 125.86 130.62 145.25 130.02
  C 146.49 129.98 147.35 129.40 148.00 131.04
  Z"
/>
<path fill="#8dd201" d="
  M 100.79 134.75
  L 92.79 168.75
  C 93.38 161.95 81.52 163.57 77.55 164.40
  C 76.02 164.72 74.52 163.91 74.79 166.75
  L 74.04 164.00
  Q 74.07 163.44 73.71 163.00
  Q 73.96 161.40 73.21 160.00
  C 72.53 157.55 73.56 156.31 74.02 154.40
  Q 76.39 144.48 78.54 134.50
  Q 80.55 131.85 83.71 131.88
  C 88.30 131.93 92.71 131.65 97.32 132.14
  C 99.17 132.34 101.27 131.35 100.79 134.75
  Z"
/>
<path fill="#b3eb00" d="
  M 140.04 183.75
  L 139.71 182.25
  Q 139.73 180.43 139.04 178.75
  L 138.96 178.00
  Q 140.06 170.91 141.72 163.94
  C 144.62 151.68 146.33 143.59 148.75 133.46
  L 150.46 132.72
  A 0.41 0.38 75.6 0 1 151.00 133.06
  Q 151.46 136.88 150.75 142.00
  C 148.46 158.56 147.74 174.91 144.78 191.20
  A 0.93 0.78 88.3 0 1 144.24 191.88
  Q 143.27 192.22 142.41 191.77
  A 1.23 1.00 -86.8 0 1 141.87 191.02
  L 140.04 183.75
  Z"
/>
<path fill="#010102" fill-opacity="0.980" d="
  M 339.04 133.25
  L 339.21 133.25
  L 338.54 139.25
  Q 338.18 136.19 339.04 133.25
  Z"
/>
<path fill="#030606" fill-opacity="0.933" d="
  M 203.54 133.50
  L 203.75 133.54
  L 202.50 144.29
  C 201.34 144.97 201.38 148.19 201.21 146.00
  L 203.54 133.50
  Z"
/>
<path fill="#010102" fill-opacity="0.980" d="
  M 484.58 135.25
  L 485.71 159.75
  L 485.29 160.50
  Q 484.42 147.89 484.58 135.25
  Z"
/>
<path fill="#010102" fill-opacity="0.980" d="
  M 359.25 135.79
  L 358.29 146.50
  Q 358.37 146.01 358.04 145.75
  Q 358.07 140.69 359.25 135.79
  Z"
/>
<path fill="#010205" fill-opacity="0.843" d="
  M 458.00 136.21
  Q 458.71 138.12 457.54 139.75
  L 458.00 136.21
  Z"
/>
<path fill="#030606" fill-opacity="0.933" d="
  M 478.21 136.75
  C 478.34 142.62 477.43 148.22 476.85 154.03
  Q 476.58 156.81 475.79 159.50
  L 478.21 136.75
  Z"
/>
<path fill="#010205" fill-opacity="0.843" d="
  M 373.21 138.25
  L 373.21 143.75
  Q 372.31 141.02 373.21 138.25
  Z"
/>
<path fill="#030606" fill-opacity="0.933" d="
  M 353.21 138.50
  Q 353.69 142.64 352.29 146.50
  L 353.21 138.50
  Z"
/>
<path fill="#8e7d07" d="
  M 166.04 139.00
  L 166.29 143.00
  Q 165.30 153.10 165.03 163.24
  C 165.00 164.49 164.14 166.17 164.59 167.78
  A 0.73 0.69 82.0 0 0 165.25 168.31
  L 171.42 168.46
  A 1.16 1.12 -89.5 0 0 172.56 167.30
  L 172.52 146.76
  L 173.29 142.00
  L 174.30 168.45
  A 0.53 0.50 88.3 0 1 173.81 169.00
  L 163.35 169.22
  A 0.71 0.67 -87.4 0 1 162.67 168.43
  L 166.04 139.00
  Z"
/>
<path fill="#030606" fill-opacity="0.933" d="
  M 545.71 139.25
  Q 545.72 144.69 544.54 150.00
  L 545.71 139.25
  Z"
/>
<path fill="#030606" fill-opacity="0.933" d="
  M 333.21 139.75
  Q 333.82 142.75 332.54 145.50
  L 333.21 139.75
  Z"
/>
<path fill="#030606" fill-opacity="0.933" d="
  M 257.96 140.00
  L 256.04 157.75
  Q 256.45 148.81 257.96 140.00
  Z"
/>
<path fill="#010205" fill-opacity="0.843" d="
  M 312.21 141.25
  Q 312.67 143.47 311.75 145.46
  L 312.21 141.25
  Z"
/>
<path fill="#030606" fill-opacity="0.933" d="
  M 247.96 144.25
  Q 248.19 149.85 246.79 155.25
  L 247.96 144.25
  Z"
/>
<path fill="#010102" fill-opacity="0.980" d="
  M 358.04 145.75
  Q 358.37 146.01 358.29 146.50
  Q 358.05 150.96 359.35 155.61
  Q 359.95 157.75 362.10 157.79
  L 378.94 158.07
  A 1.25 0.98 -16.6 0 1 379.80 158.41
  Q 381.22 159.92 380.63 162.28
  Q 380.22 159.21 378.00 159.25
  Q 369.99 159.40 361.95 159.00
  Q 359.91 158.89 359.21 156.98
  Q 357.41 152.05 358.04 145.75
  Z"
/>
<path fill="#030606" fill-opacity="0.933" d="
  M 291.21 147.50
  Q 291.26 153.07 290.04 158.50
  L 291.21 147.50
  Z"
/>
<path fill="#010101" fill-opacity="0.549" d="
  M 352.21 147.75
  Q 352.79 150.55 351.54 153.00
  L 352.21 147.75
  Z"
/>
<path fill="#030606" fill-opacity="0.933" d="
  M 271.57 148.50
  Q 271.74 154.04 270.54 159.50
  L 271.57 148.50
  Z"
/>
<path fill="#010205" fill-opacity="0.843" d="
  M 332.00 150.21
  Q 333.11 152.17 331.54 153.75
  L 332.00 150.21
  Z"
/>
<path fill="#030606" fill-opacity="0.933" d="
  M 311.21 150.50
  Q 311.75 153.35 310.54 156.00
  L 311.21 150.50
  Z"
/>
<path fill="#010205" fill-opacity="0.843" d="
  M 317.46 150.75
  L 316.54 158.50
  Q 316.07 154.50 317.46 150.75
  Z"
/>
<path fill="#010101" fill-opacity="0.549" d="
  M 200.04 151.75
  Q 200.19 156.05 198.58 160.04
  Q 198.50 160.25 198.51 160.47
  Q 198.59 163.78 198.04 160.75
  L 200.04 151.75
  Z"
/>
<path fill="#030606" fill-opacity="0.933" d="
  M 337.21 151.75
  L 336.46 158.25
  Q 336.04 154.91 337.21 151.75
  Z"
/>
<path fill="#010205" fill-opacity="0.843" d="
  M 456.21 152.25
  Q 456.97 155.35 455.54 158.00
  L 456.21 152.25
  Z"
/>
<path fill="#010102" fill-opacity="0.980" d="
  M 529.71 152.75
  L 528.54 164.50
  Q 528.37 158.56 529.71 152.75
  Z"
/>
<path fill="#030606" fill-opacity="0.933" d="
  M 584.96 154.00
  C 585.02 156.08 584.86 157.85 584.90 160.15
  C 585.01 166.28 567.02 160.05 563.29 164.25
  L 563.49 162.31
  A 0.56 0.56 2.8 0 1 564.05 161.81
  L 583.68 161.69
  A 0.56 0.53 -87.0 0 0 584.21 161.19
  L 584.96 154.00
  Z"
/>
<path fill="#fddb00" d="
  M 142.72 155.08
  L 139.72 168.52
  Q 116.79 167.37 93.81 168.29
  L 96.80 155.26
  Q 119.74 153.50 142.72 155.08
  Z"
/>
<path fill="#010102" fill-opacity="0.980" d="
  M 421.21 155.25
  L 420.54 161.00
  Q 420.12 158.01 421.21 155.25
  Z"
/>
<path fill="#010205" fill-opacity="0.843" d="
  M 351.21 156.75
  Q 351.77 159.55 350.61 162.03
  L 351.21 156.75
  Z"
/>
<path fill="#010205" fill-opacity="0.843" d="
  M 331.21 157.50
  Q 331.82 160.19 330.54 162.50
  L 331.21 157.50
  Z"
/>
<path fill="#030606" fill-opacity="0.933" d="
  M 231.96 158.00
  L 231.04 168.00
  Q 230.75 162.93 231.96 158.00
  Z"
/>
<path fill="#010205" fill-opacity="0.843" d="
  M 435.21 158.25
  Q 435.75 161.15 434.64 163.79
  Q 434.42 160.92 435.21 158.25
  Z"
/>
<path fill="#010102" fill-opacity="0.980" d="
  M 441.25 158.79
  L 440.54 165.25
  Q 440.22 161.94 441.25 158.79
  Z"
/>
<path fill="#030606" fill-opacity="0.933" d="
  M 485.71 159.75
  Q 486.19 164.79 485.56 169.73
  L 485.29 160.50
  L 485.71 159.75
  Z"
/>
<path fill="#010102" fill-opacity="0.980" d="
  M 549.21 159.75
  Q 549.47 161.19 549.00 162.54
  L 548.54 162.50
  L 549.21 159.75
  Z"
/>
<path fill="#030606" fill-opacity="0.933" d="
  M 73.21 160.00
  Q 73.96 161.40 73.71 163.00
  Q 73.08 162.70 72.96 162.00
  Q 72.87 160.96 73.21 160.00
  Z"
/>
<path fill="#030606" fill-opacity="0.933" d="
  M 310.21 160.50
  Q 310.43 164.05 309.54 167.50
  Q 309.36 163.95 310.21 160.50
  Z"
/>
<path fill="#030606" fill-opacity="0.933" d="
  M 246.21 161.00
  Q 246.48 166.46 245.06 171.82
  L 246.21 161.00
  Z"
/>
<path fill="#030606" fill-opacity="0.933" d="
  M 255.71 161.25
  Q 255.73 168.07 254.29 174.75
  L 255.71 161.25
  Z"
/>
<path fill="#030606" fill-opacity="0.933" d="
  M 543.21 161.25
  Q 543.80 164.50 542.54 167.50
  L 543.21 161.25
  Z"
/>
<path fill="#010205" fill-opacity="0.843" d="
  M 455.21 161.75
  Q 455.86 165.23 454.29 168.25
  L 455.21 161.75
  Z"
/>
<path fill="#010102" fill-opacity="0.980" d="
  M 548.54 162.50
  L 549.00 162.54
  L 548.54 166.50
  L 548.54 162.50
  Z"
/>
<path fill="#030606" fill-opacity="0.933" d="
  M 71.21 162.75
  L 71.29 164.25
  Q 71.44 165.80 70.29 166.75
  L 71.21 162.75
  Z"
/>
<path fill="#010101" fill-opacity="0.549" d="
  M 214.54 166.75
  Q 214.28 165.44 214.75 164.21
  C 215.31 161.99 215.05 165.88 214.54 166.75
  Z"
/>
<path fill="#030606" fill-opacity="0.933" d="
  M 269.96 163.25
  Q 270.08 170.70 268.54 178.00
  L 269.96 163.25
  Z"
/>
<path fill="#b3eb00" d="
  M 92.79 168.75
  L 87.46 193.25
  Q 86.42 195.04 87.04 197.00
  Q 85.44 202.79 84.96 208.75
  Q 83.29 208.05 83.29 206.00
  L 79.96 191.25
  L 78.79 185.50
  L 78.00 182.25
  L 76.71 175.50
  L 74.79 166.75
  C 74.52 163.91 76.02 164.72 77.55 164.40
  C 81.52 163.57 93.38 161.95 92.79 168.75
  Z"
/>
<path fill="#fe9700" d="
  M 189.29 163.75
  L 190.23 173.76
  Q 190.26 174.09 190.32 173.75
  Q 191.01 169.87 195.46 171.75
  L 195.50 172.46
  L 194.21 178.25
  L 192.04 188.25
  L 191.96 189.25
  C 190.55 191.66 190.14 190.11 190.22 188.72
  Q 190.64 181.67 189.21 174.75
  Q 189.91 169.29 189.29 163.75
  Z"
/>
<path fill="#030606" fill-opacity="0.933" d="
  M 461.21 163.75
  L 460.54 169.00
  Q 459.96 166.19 461.21 163.75
  Z"
/>
<path fill="#010205" fill-opacity="0.843" d="
  M 74.04 164.00
  L 74.79 166.75
  L 76.71 175.50
  Q 76.37 176.46 76.46 177.50
  C 75.80 175.29 75.85 173.24 75.04 171.03
  Q 73.82 167.67 74.04 164.00
  Z"
/>
<path fill="#030606" fill-opacity="0.933" d="
  M 475.21 164.50
  Q 474.41 167.89 476.53 169.69
  C 473.40 170.72 474.78 165.84 475.21 164.50
  Z"
/>
<path fill="#010102" fill-opacity="0.980" d="
  M 295.25 165.29
  L 294.29 173.50
  Q 293.75 169.25 295.25 165.29
  Z"
/>
<path fill="#030606" fill-opacity="0.933" d="
  M 413.96 165.25
  Q 414.01 173.34 412.29 181.25
  L 413.96 165.25
  Z"
/>
<path fill="#010205" fill-opacity="0.843" d="
  M 563.21 165.75
  Q 563.83 169.37 562.50 172.71
  L 563.21 165.75
  Z"
/>
<path fill="#010102" fill-opacity="0.980" d="
  M 399.21 167.25
  L 398.54 172.50
  Q 398.09 169.74 399.21 167.25
  Z"
/>
<path fill="#030606" fill-opacity="0.933" d="
  M 70.21 167.50
  Q 70.66 169.46 69.50 170.96
  Q 69.50 169.16 70.21 167.50
  Z"
/>
<path fill="#fdbc00" d="
  M 139.72 168.52
  L 137.23 180.03
  L 91.26 179.45
  L 93.81 168.29
  Q 116.79 167.37 139.72 168.52
  Z"
/>
<path fill="#010205" fill-opacity="0.843" d="
  M 330.04 167.75
  C 330.36 168.41 331.24 171.62 329.75 171.46
  L 330.04 167.75
  Z"
/>
<path fill="#010205" fill-opacity="0.843" d="
  M 196.21 169.00
  Q 196.73 170.98 195.50 172.46
  L 195.46 171.75
  L 196.21 169.00
  Z"
/>
<path fill="#030606" fill-opacity="0.933" d="
  M 309.21 169.75
  Q 309.56 174.21 308.29 178.50
  L 309.21 169.75
  Z"
/>
<path fill="#010102" fill-opacity="0.980" d="
  M 315.09 170.72
  L 314.29 177.75
  Q 314.05 174.15 315.09 170.72
  Z"
/>
<path fill="#030606" fill-opacity="0.933" d="
  M 454.21 170.75
  Q 454.81 173.56 453.54 176.00
  L 454.21 170.75
  Z"
/>
<path fill="#010205" fill-opacity="0.843" d="
  M 214.00 171.21
  Q 214.73 173.23 213.54 175.00
  L 214.00 171.21
  Z"
/>
<path fill="#030606" fill-opacity="0.933" d="
  M 69.21 172.00
  Q 69.80 174.44 68.29 176.25
  L 69.21 172.00
  Z"
/>
<path fill="#682301" d="
  M 189.04 174.75
  L 189.21 174.75
  Q 190.64 181.67 190.22 188.72
  C 190.14 190.11 190.55 191.66 191.96 189.25
  Q 192.13 189.81 191.71 190.25
  Q 191.02 191.41 189.79 192.00
  L 189.04 174.75
  Z"
/>
<path fill="#030606" fill-opacity="0.933" d="
  M 76.71 175.50
  L 78.00 182.25
  L 76.46 177.50
  Q 76.37 176.46 76.71 175.50
  Z"
/>
<path fill="#030606" fill-opacity="0.933" d="
  M 433.21 175.75
  Q 433.61 178.50 432.54 181.00
  L 433.21 175.75
  Z"
/>
<path fill="#010205" fill-opacity="0.843" d="
  M 562.21 176.25
  Q 562.72 179.62 561.54 182.75
  L 562.21 176.25
  Z"
/>
<path fill="#030606" fill-opacity="0.933" d="
  M 68.21 176.75
  Q 68.54 178.73 67.75 180.54
  Q 67.49 180.59 67.29 180.75
  L 68.21 176.75
  Z"
/>
<path fill="#010205" fill-opacity="0.843" d="
  M 329.21 176.75
  Q 329.75 179.50 328.54 182.00
  L 329.21 176.75
  Z"
/>
<path fill="#010102" fill-opacity="0.980" d="
  M 194.21 178.25
  Q 194.09 183.46 192.04 188.25
  L 194.21 178.25
  Z"
/>
<path fill="#010205" fill-opacity="0.843" d="
  M 213.21 178.25
  Q 213.80 181.29 212.54 184.00
  L 213.21 178.25
  Z"
/>
<path fill="#030606" fill-opacity="0.933" d="
  M 139.04 178.75
  Q 139.73 180.43 139.71 182.25
  Q 138.65 180.70 139.04 178.75
  Z"
/>
<path fill="#030606" fill-opacity="0.933" d="
  M 287.96 178.75
  Q 288.11 187.10 286.29 195.25
  L 287.96 178.75
  Z"
/>
<path fill="#fea400" d="
  M 91.26 179.45
  L 137.23 180.03
  L 136.79 182.50
  L 136.04 186.75
  Q 135.48 188.05 135.50 189.46
  L 135.29 189.50
  C 131.14 186.27 125.99 188.38 121.20 188.29
  C 110.54 188.09 99.92 188.39 89.25 187.96
  L 91.26 179.45
  Z"
/>
<path fill="#010205" fill-opacity="0.843" d="
  M 348.04 186.00
  L 348.54 180.50
  Q 349.15 178.26 349.08 181.25
  Q 349.02 183.73 348.04 186.00
  Z"
/>
<path fill="#030606" fill-opacity="0.933" d="
  M 541.21 179.75
  Q 541.86 182.29 540.54 184.50
  L 541.21 179.75
  Z"
/>
<path fill="#030606" fill-opacity="0.933" d="
  M 547.07 179.72
  L 546.29 187.25
  Q 545.99 183.40 547.07 179.72
  Z"
/>
<path fill="#010101" fill-opacity="0.549" d="
  M 67.75 180.54
  L 66.21 187.25
  Q 65.91 187.10 65.96 186.75
  L 66.46 184.50
  L 67.29 180.75
  Q 67.49 180.59 67.75 180.54
  Z"
/>
<path fill="#fdc700" d="
  M 66.46 184.50
  L 65.96 186.75
  L 65.21 190.25
  L 64.25 193.79
  Q 63.63 194.18 63.20 193.73
  A 1.17 0.68 58.4 0 0 62.45 193.33
  Q 40.81 194.03 19.21 192.75
  L 21.37 182.74
  Q 43.22 181.31 65.23 182.20
  A 0.49 0.49 16.0 0 1 65.64 182.94
  Q 64.83 184.32 66.46 184.50
  Z"
/>
<path fill="#010102" fill-opacity="0.980" d="
  M 175.46 207.50
  L 175.04 207.50
  L 174.54 195.37
  A 1.85 1.83 -89.8 0 0 172.80 193.60
  Q 166.08 193.28 160.14 194.39
  L 161.50 182.27
  A 0.63 0.61 3.1 0 1 162.12 181.73
  L 173.91 181.72
  A 0.81 0.77 -1.1 0 1 174.72 182.46
  L 175.46 207.50
  Z
  M 162.66 183.64
  L 161.26 191.06
  A 0.45 0.44 -84.6 0 0 161.69 191.59
  L 173.52 191.72
  A 1.03 1.00 84.4 0 0 174.50 190.49
  C 174.17 188.87 174.52 183.82 172.75 183.46
  Q 167.58 181.84 162.66 183.64
  Z"
/>
<path fill="#030606" fill-opacity="0.933" d="
  M 459.21 181.75
  L 458.54 186.50
  Q 458.00 183.94 459.21 181.75
  Z"
/>
<path fill="#010102" fill-opacity="0.980" d="
  M 229.46 182.00
  L 228.25 192.75
  Q 227.88 187.27 229.46 182.00
  Z"
/>
<path fill="#010102" fill-opacity="0.980" d="
  M 486.96 205.75
  L 486.01 185.92
  Q 485.87 183.06 483.14 183.48
  Q 479.38 184.06 475.66 183.49
  A 1.68 1.66 11.4 0 0 473.78 184.72
  L 472.54 189.50
  L 473.14 183.28
  A 0.94 0.88 2.7 0 1 474.07 182.49
  L 486.01 182.44
  A 0.42 0.40 -1.4 0 1 486.44 182.83
  L 486.96 205.75
  Z"
/>
<path fill="#010205" fill-opacity="0.843" d="
  M 78.00 182.25
  L 78.79 185.50
  Q 78.88 186.20 78.54 186.75
  Q 77.77 184.53 78.00 182.25
  Z"
/>
<path fill="#9d4908" d="
  M 172.75 183.46
  Q 167.89 184.93 162.66 183.64
  Q 167.58 181.84 172.75 183.46
  Z"
/>
<path fill="#ff7300" d="
  M 172.75 183.46
  C 174.52 183.82 174.17 188.87 174.50 190.49
  A 1.03 1.00 84.4 0 1 173.52 191.72
  L 161.69 191.59
  A 0.45 0.44 -84.6 0 1 161.26 191.06
  L 162.66 183.64
  Q 167.89 184.93 172.75 183.46
  Z"
/>
<path fill="#010205" fill-opacity="0.843" d="
  M 78.79 185.50
  L 79.96 191.25
  Q 79.67 190.27 79.04 189.50
  L 78.54 186.75
  Q 78.88 186.20 78.79 185.50
  Z"
/>
<path fill="#030606" fill-opacity="0.933" d="
  M 432.00 186.21
  Q 432.67 188.20 431.54 190.00
  L 432.00 186.21
  Z"
/>
<path fill="#030606" fill-opacity="0.933" d="
  M 266.54 197.50
  Q 266.44 192.10 267.72 186.73
  L 266.54 197.50
  Z"
/>
<path fill="#030606" fill-opacity="0.933" d="
  M 65.96 186.75
  Q 65.91 187.10 66.21 187.25
  L 65.46 190.75
  Q 65.16 190.60 65.21 190.25
  L 65.96 186.75
  Z"
/>
<path fill="#030606" fill-opacity="0.933" d="
  M 136.04 186.75
  Q 136.66 188.29 135.50 189.46
  Q 135.48 188.05 136.04 186.75
  Z"
/>
<path fill="#010205" fill-opacity="0.843" d="
  M 328.04 186.75
  Q 329.25 189.03 327.54 191.00
  L 328.04 186.75
  Z"
/>
<path fill="#ff7d00" d="
  M 135.29 189.50
  L 135.21 190.50
  L 131.25 208.01
  A 1.18 1.16 -83.2 0 1 130.10 208.93
  L 84.96 208.75
  Q 85.44 202.79 87.04 197.00
  L 87.54 194.00
  L 89.25 187.96
  C 99.92 188.39 110.54 188.09 121.20 188.29
  C 125.99 188.38 131.14 186.27 135.29 189.50
  Z"
/>
<path fill="#010101" fill-opacity="0.549" d="
  M 540.21 188.75
  C 540.26 190.26 540.80 196.64 539.29 197.25
  L 540.21 188.75
  Z"
/>
<path fill="#010102" fill-opacity="0.980" d="
  M 333.21 189.00
  L 332.54 196.50
  Q 331.86 192.67 333.21 189.00
  Z"
/>
<path fill="#010102" fill-opacity="0.980" d="
  M 506.29 189.00
  L 507.21 201.50
  L 506.84 201.53
  Q 505.81 195.32 506.29 189.00
  Z"
/>
<path fill="#030606" fill-opacity="0.933" d="
  M 452.21 189.25
  Q 452.74 192.51 451.54 195.50
  L 452.21 189.25
  Z"
/>
<path fill="#010205" fill-opacity="0.843" d="
  M 79.04 189.50
  Q 79.67 190.27 79.96 191.25
  L 83.29 206.00
  Q 83.25 206.12 83.07 206.29
  Q 80.92 199.69 79.96 192.99
  Q 79.85 192.21 79.51 191.51
  Q 79.03 190.54 79.04 189.50
  Z"
/>
<path fill="#030606" fill-opacity="0.933" d="
  M 347.71 189.50
  Q 348.01 194.44 346.75 199.21
  L 347.71 189.50
  Z"
/>
<path fill="#030606" fill-opacity="0.933" d="
  M 211.96 190.00
  Q 212.57 191.96 211.54 193.75
  L 211.96 190.00
  Z"
/>
<path fill="#010205" fill-opacity="0.843" d="
  M 65.21 190.25
  Q 65.16 190.60 65.46 190.75
  Q 65.79 192.86 64.29 194.25
  L 64.25 193.79
  L 65.21 190.25
  Z"
/>
<path fill="#010102" fill-opacity="0.980" d="
  M 191.71 190.25
  Q 191.89 191.88 191.23 192.60
  Q 190.06 193.89 190.16 195.80
  L 190.71 206.25
  L 190.54 206.25
  Q 189.61 199.15 189.79 192.00
  Q 191.02 191.41 191.71 190.25
  Z"
/>
<path fill="#010102" fill-opacity="0.980" d="
  M 135.21 190.50
  Q 133.85 200.07 131.71 208.38
  Q 131.10 210.76 128.68 210.75
  L 85.75 210.51
  A 1.38 1.22 -21.2 0 1 84.86 210.18
  Q 83.20 208.70 83.07 206.29
  Q 83.25 206.12 83.29 206.00
  Q 83.29 208.05 84.96 208.75
  L 130.10 208.93
  A 1.18 1.16 -83.2 0 0 131.25 208.01
  L 135.21 190.50
  Z"
/>
<path fill="#010102" fill-opacity="0.980" d="
  M 197.21 191.75
  C 196.83 196.51 196.44 203.16 199.19 207.32
  Q 200.14 208.75 201.85 208.75
  C 204.10 208.75 209.77 209.80 210.29 207.00
  C 212.60 211.51 201.70 209.83 200.29 209.54
  A 1.44 1.43 -14.0 0 1 199.48 209.06
  C 195.78 204.60 195.81 196.86 197.21 191.75
  Z"
/>
<path fill="#fea400" d="
  M 64.25 193.79
  L 64.29 194.25
  L 64.21 194.75
  L 62.96 200.50
  L 62.21 204.00
  L 61.29 208.25
  L 61.21 208.50
  L 60.21 213.00
  L 59.00 217.79
  Q 57.64 215.85 54.50 216.00
  Q 38.52 216.75 13.91 215.66
  L 19.21 192.75
  Q 40.81 194.03 62.45 193.33
  A 1.17 0.68 58.4 0 1 63.20 193.73
  Q 63.63 194.18 64.25 193.79
  Z"
/>
<path fill="#010102" fill-opacity="0.980" d="
  M 228.25 192.75
  C 228.00 197.50 227.49 205.73 231.39 208.42
  A 1.73 1.52 -24.8 0 0 232.31 208.69
  L 264.37 208.75
  A 0.97 0.89 -86.8 0 0 265.26 207.88
  L 265.96 201.50
  L 265.50 208.85
  A 1.04 0.94 1.5 0 1 264.47 209.74
  Q 248.69 209.80 234.21 209.76
  Q 231.65 209.75 230.47 208.94
  C 226.73 206.39 227.39 196.55 228.25 192.75
  Z"
/>
<path fill="#6cbb01" d="
  M 87.46 193.25
  L 87.54 194.00
  L 87.04 197.00
  Q 86.42 195.04 87.46 193.25
  Z"
/>
<path fill="#010205" fill-opacity="0.843" d="
  M 472.21 193.25
  Q 472.80 196.29 471.54 199.00
  L 472.21 193.25
  Z"
/>
<path fill="#010102" fill-opacity="0.980" d="
  M 545.46 194.00
  Q 544.85 201.01 546.50 206.00
  C 547.55 209.16 549.93 208.75 552.67 208.75
  Q 566.48 208.75 581.03 208.75
  A 1.33 1.23 -85.7 0 0 582.26 207.60
  L 583.46 199.00
  L 582.50 208.69
  A 0.81 0.80 83.1 0 1 581.97 209.37
  C 579.86 210.14 578.02 209.75 576.12 209.75
  Q 562.60 209.76 549.95 209.75
  Q 546.72 209.75 546.02 206.60
  Q 544.63 200.31 545.46 194.00
  Z"
/>
<path fill="#010101" fill-opacity="0.549" d="
  M 64.21 194.75
  C 64.27 195.58 63.14 207.44 62.96 200.50
  L 64.21 194.75
  Z"
/>
<path fill="#010205" fill-opacity="0.843" d="
  M 327.21 195.00
  C 327.30 196.07 327.72 200.28 326.54 200.75
  L 327.21 195.00
  Z"
/>
<path fill="#010102" fill-opacity="0.980" d="
  M 291.71 196.00
  C 291.67 197.92 290.19 208.35 291.00 209.04
  Q 290.74 209.37 290.25 209.29
  Q 290.28 202.57 291.71 196.00
  Z"
/>
<path fill="#030606" fill-opacity="0.933" d="
  M 391.21 196.50
  Q 391.63 200.73 390.29 204.75
  L 391.21 196.50
  Z"
/>
<path fill="#010102" fill-opacity="0.980" d="
  M 396.21 196.75
  C 396.18 200.14 396.25 208.67 401.67 208.70
  Q 425.42 208.84 449.18 208.69
  A 0.79 0.63 6.8 0 0 449.90 208.24
  L 450.21 207.25
  L 450.29 208.00
  C 450.75 210.25 443.56 209.88 441.75 209.75
  Q 435.71 209.32 413.21 210.00
  L 405.00 209.96
  L 400.83 209.84
  Q 398.60 209.77 397.79 208.15
  Q 395.12 202.77 396.21 196.75
  Z"
/>
<path fill="#030606" fill-opacity="0.933" d="
  M 159.96 197.00
  L 159.46 207.75
  L 159.04 205.75
  L 159.96 197.00
  Z"
/>
<path fill="#010102" fill-opacity="0.980" d="
  M 539.21 198.00
  L 538.51 208.69
  A 0.89 0.80 -11.7 0 1 537.99 209.40
  C 535.90 210.33 533.98 209.81 532.23 209.83
  Q 521.36 209.95 510.48 209.75
  A 1.88 1.87 77.7 0 1 508.82 208.68
  Q 507.33 205.56 506.84 201.53
  L 507.21 201.50
  Q 507.61 204.94 509.09 207.54
  A 2.40 2.39 75.1 0 0 511.17 208.75
  L 536.52 208.75
  A 1.87 1.71 -86.7 0 0 538.24 207.08
  L 539.21 198.00
  Z"
/>
<path fill="#010101" fill-opacity="0.549" d="
  M 211.21 198.25
  Q 211.81 200.84 210.54 203.00
  L 211.21 198.25
  Z"
/>
<path fill="#010102" fill-opacity="0.980" d="
  M 285.96 198.25
  Q 286.23 202.78 285.24 208.81
  A 1.16 1.16 1.6 0 1 284.21 209.78
  C 280.04 210.19 275.90 209.83 271.66 209.92
  Q 268.95 209.98 270.25 206.79
  L 270.27 208.44
  A 0.52 0.50 -1.7 0 0 270.81 208.93
  L 284.06 208.58
  A 0.60 0.58 -86.5 0 0 284.63 208.06
  L 285.96 198.25
  Z"
/>
<path fill="#030606" fill-opacity="0.933" d="
  M 451.21 198.75
  Q 451.68 203.48 450.29 208.00
  L 450.21 207.25
  L 451.21 198.75
  Z"
/>
<path fill="#010102" fill-opacity="0.980" d="
  M 332.46 200.00
  Q 332.62 203.74 334.03 207.12
  Q 334.72 208.75 336.49 208.75
  L 344.70 208.75
  A 0.87 0.80 -84.9 0 0 345.50 208.02
  L 346.21 203.50
  L 346.02 208.38
  A 1.58 1.36 -0.8 0 1 344.54 209.70
  Q 340.62 209.93 337.50 209.90
  C 332.32 209.86 331.63 203.45 332.46 200.00
  Z"
/>
<path fill="#010102" fill-opacity="0.980" d="
  M 471.46 201.00
  L 471.20 208.82
  A 1.02 0.96 -1.7 0 1 470.27 209.75
  Q 463.52 210.34 456.80 209.72
  C 456.33 209.68 454.88 209.19 456.16 208.62
  L 469.47 208.73
  A 1.38 1.25 -86.2 0 0 470.74 207.50
  L 471.46 201.00
  Z"
/>
<path fill="#010102" fill-opacity="0.980" d="
  M 145.21 201.25
  L 144.54 206.00
  L 144.46 205.75
  Q 143.74 203.25 145.21 201.25
  Z"
/>
<path fill="#010102" fill-opacity="0.980" d="
  M 305.71 203.25
  Q 306.09 206.17 305.33 208.96
  A 0.82 0.80 1.6 0 1 304.70 209.54
  Q 301.66 210.18 298.58 209.98
  C 296.18 209.82 293.01 210.48 290.25 209.29
  Q 290.74 209.37 291.00 209.04
  L 304.01 208.79
  A 1.07 1.05 3.5 0 0 305.04 207.89
  L 305.71 203.25
  Z"
/>
<path fill="#010102" fill-opacity="0.980" d="
  M 326.21 203.75
  L 326.25 207.92
  A 1.86 1.81 -2.2 0 1 324.51 209.75
  Q 318.64 210.12 312.78 209.78
  C 311.42 209.70 309.72 210.07 310.96 207.75
  Q 310.77 208.75 311.75 208.75
  Q 318.37 208.75 325.06 208.75
  A 0.78 0.68 -86.8 0 0 325.75 208.05
  L 326.21 203.75
  Z"
/>
<path fill="#010205" fill-opacity="0.843" d="
  M 62.21 204.00
  Q 62.66 206.36 61.29 208.25
  L 62.21 204.00
  Z"
/>
<path fill="#010102" fill-opacity="0.980" d="
  M 351.71 205.25
  L 351.60 208.31
  A 0.60 0.48 0.9 0 0 352.20 208.81
  L 388.94 208.69
  A 0.80 0.76 11.3 0 0 389.66 208.24
  Q 390.18 207.10 390.21 205.75
  Q 390.60 207.42 390.11 208.97
  A 0.85 0.79 3.6 0 1 389.44 209.52
  Q 386.53 210.01 383.56 209.92
  C 372.92 209.61 361.85 210.55 351.31 209.49
  A 0.49 0.45 9.1 0 1 350.87 208.94
  L 351.71 205.25
  Z"
/>
<path fill="#010102" fill-opacity="0.980" d="
  M 144.46 205.75
  L 144.54 206.00
  L 144.52 208.43
  A 0.54 0.49 -0.6 0 0 145.07 208.92
  L 158.19 208.69
  A 0.66 0.52 1.3 0 0 158.83 208.21
  L 159.04 205.75
  L 159.46 207.75
  C 159.61 210.54 157.32 209.73 155.58 209.78
  Q 150.44 209.93 145.31 209.48
  A 0.95 0.85 -9.7 0 1 144.56 209.01
  Q 143.76 207.49 144.46 205.75
  Z"
/>
<path fill="#010102" fill-opacity="0.980" d="
  M 190.54 206.25
  L 190.71 206.25
  Q 190.61 207.42 190.89 208.18
  A 1.13 1.13 -13.0 0 1 189.95 209.68
  Q 182.95 210.50 175.99 209.57
  A 1.28 0.86 -5.6 0 1 175.17 209.13
  Q 174.72 208.46 175.04 207.50
  L 175.46 207.50
  Q 175.27 209.14 177.07 209.02
  Q 180.38 208.80 189.25 208.75
  Q 191.21 208.74 190.54 206.25
  Z"
/>
<path fill="#010102" fill-opacity="0.980" d="
  M 487.04 206.50
  Q 486.62 209.12 488.50 209.00
  Q 495.00 208.59 501.50 208.97
  A 0.73 0.62 9.4 0 0 502.21 208.55
  Q 502.37 208.07 502.29 207.50
  Q 503.04 208.63 502.37 209.42
  A 1.20 0.97 17.0 0 1 501.50 209.77
  L 487.32 209.72
  A 0.50 0.48 -88.3 0 1 486.84 209.19
  L 487.04 206.50
  Z"
/>
<path fill="#010101" fill-opacity="0.549" d="
  M 61.21 208.50
  Q 61.49 211.86 60.29 215.00
  L 60.21 213.00
  L 61.21 208.50
  Z"
/>
<path fill="#010101" fill-opacity="0.549" d="
  M 413.21 210.00
  Q 409.10 210.66 405.00 209.96
  L 413.21 210.00
  Z"
/>
<path fill="#010101" fill-opacity="0.549" d="
  M 60.21 213.00
  L 60.29 215.00
  Q 59.54 217.58 59.27 220.25
  Q 59.00 222.77 58.96 218.75
  L 59.00 217.79
  L 60.21 213.00
  Z"
/>
<path fill="#ff7a00" d="
  M 13.91 215.66
  Q 38.52 216.75 54.50 216.00
  Q 57.64 215.85 59.00 217.79
  L 58.96 218.75
  L 58.21 222.50
  L 57.04 227.50
  L 56.21 231.25
  L 55.50 234.96
  Q 55.11 235.33 55.21 236.00
  L 54.03 240.34
  A 0.64 0.59 -81.6 0 1 53.45 240.81
  L 7.98 240.70
  L 13.91 215.66
  Z"
/>
<path fill="#010205" fill-opacity="0.843" d="
  M 58.21 222.50
  Q 58.30 225.13 57.25 227.54
  L 57.04 227.50
  L 58.21 222.50
  Z"
/>
<path fill="#010101" fill-opacity="0.549" d="
  M 57.04 227.50
  L 57.25 227.54
  L 56.25 233.46
  L 56.21 231.25
  L 57.04 227.50
  Z"
/>
<path fill="#030606" fill-opacity="0.933" d="
  M 56.21 231.25
  L 56.25 233.46
  Q 56.20 234.44 55.50 234.96
  L 56.21 231.25
  Z"
/>
<path fill="#010205" fill-opacity="0.843" d="
  M 55.21 236.00
  Q 55.90 239.54 53.34 241.63
  A 1.44 1.25 22.5 0 1 52.44 241.93
  Q 32.21 241.58 11.98 241.81
  C 11.21 241.81 7.56 241.49 7.98 240.70
  L 53.45 240.81
  A 0.64 0.59 -81.6 0 0 54.03 240.34
  L 55.21 236.00
  Z"
/>
</svg>
