<?xml version="1.0" encoding="UTF-8" standalone="no"?>
<!DOCTYPE svg PUBLIC "-//W3C//DTD SVG 1.1//EN" "http://www.w3.org/Graphics/SVG/1.1/DTD/svg11.dtd">
<svg xmlns="http://www.w3.org/2000/svg" version="1.1" viewBox="0 0 600 300">
<g stroke-width="2.00" fill="none" stroke-linecap="butt">
<path stroke="#000000" stroke-opacity="0.757" vector-effect="non-scaling-stroke" d="
  M 121.25 238.54
  Q 120.24 237.44 120.36 236.05
  A 0.86 0.67 -75.4 0 0 120.03 235.28
  Q 118.69 234.47 118.09 235.96
  A 1.63 1.13 -87.1 0 1 117.51 236.71
  C 109.84 241.39 94.83 241.90 87.45 237.00
  C 84.30 234.91 83.31 228.97 82.36 225.48"
/>
<path stroke="#000000" stroke-opacity="0.757" vector-effect="non-scaling-stroke" d="
  M 74.06 224.34
  C 74.70 230.50 64.47 232.01 59.81 232.56
  Q 57.04 232.89 56.00 234.29"
/>
</g>
<path fill="#000000" d="
  M 121.25 238.54
  Q 120.24 237.44 120.36 236.05
  A 0.86 0.67 -75.4 0 0 120.03 235.28
  Q 118.69 234.47 118.09 235.96
  A 1.63 1.13 -87.1 0 1 117.51 236.71
  C 109.84 241.39 94.83 241.90 87.45 237.00
  C 84.30 234.91 83.31 228.97 82.36 225.48
  Q 81.00 218.20 78.40 210.18
  A 1.46 1.45 73.3 0 0 76.63 209.22
  Q 74.75 209.72 73.00 209.25
  A 0.56 0.55 -83.0 0 0 72.31 209.80
  Q 72.47 217.17 74.06 224.34
  C 74.70 230.50 64.47 232.01 59.81 232.56
  Q 57.04 232.89 56.00 234.29
  Q 48.46 233.65 41.52 230.70
  Q 37.87 229.15 39.08 225.47
  A 1.96 1.34 -52.1 0 0 39.14 224.50
  L 32.58 199.78
  A 1.46 1.13 14.7 0 0 32.01 199.04
  C 27.76 196.23 26.00 193.15 26.00 187.77
  Q 26.00 173.69 26.00 159.03
  A 1.25 1.23 -77.8 0 0 25.28 157.90
  C 19.06 154.99 14.29 146.98 16.25 140.50
  Q 18.55 132.87 25.06 128.81
  C 27.03 127.58 28.16 125.81 29.66 124.75
  C 29.67 124.75 36.84 121.42 33.96 121.51
  Q 29.15 121.66 24.83 120.65
  A 0.80 0.80 6.3 0 1 24.20 119.87
  Q 23.94 90.33 45.86 72.81
  A 0.48 0.48 -39.3 0 0 45.93 72.12
  C 43.32 69.05 37.32 66.02 41.20 62.18
  Q 42.73 60.66 44.23 61.97
  L 51.89 68.64
  A 0.77 0.70 51.1 0 0 52.70 68.77
  Q 60.67 64.75 71.83 64.12
  A 1.47 1.43 -78.8 0 0 73.05 63.28
  L 76.69 55.42
  Q 77.50 53.70 79.39 54.08
  C 84.81 55.17 80.90 61.34 79.82 64.06
  A 0.51 0.50 18.0 0 0 80.17 64.74
  C 102.33 70.08 116.52 87.05 119.87 109.19
  A 1.77 1.66 55.2 0 1 119.73 110.15
  Q 117.39 115.25 112.39 117.11
  Q 110.03 117.98 112.49 118.50
  C 115.29 119.09 119.63 121.40 120.20 124.42
  Q 120.25 124.71 120.25 128.60
  Q 120.25 158.32 120.25 188.03
  C 120.25 192.19 119.29 194.04 116.73 197.00
  A 2.34 2.29 -27.4 0 0 116.18 198.67
  L 118.43 229.88
  Q 118.60 232.21 120.19 233.98
  Q 122.53 236.59 121.25 238.54
  Z
  M 92.88 94.00
  A 5.90 5.90 0.0 0 0 86.98 88.10
  A 5.90 5.90 0.0 0 0 81.08 94.00
  A 5.90 5.90 0.0 0 0 86.98 99.90
  A 5.90 5.90 0.0 0 0 92.88 94.00
  Z
  M 59.89 102.00
  A 5.90 5.90 0.0 0 0 53.99 96.10
  A 5.90 5.90 0.0 0 0 48.09 102.00
  A 5.90 5.90 0.0 0 0 53.99 107.90
  A 5.90 5.90 0.0 0 0 59.89 102.00
  Z"
/>
<path fill="#000000" d="
  M 182.93 131.05
  Q 161.66 130.61 156.25 131.25
  Q 138.93 133.29 137.75 150.75
  Q 136.05 175.80 161.00 175.97
  Q 166.25 176.00 171.25 176.00
  A 0.99 0.95 0.6 0 1 172.24 176.97
  L 172.05 187.14
  A 0.84 0.81 -1.1 0 1 171.25 187.94
  C 156.36 188.79 136.92 188.23 129.56 172.19
  C 125.06 162.37 124.91 147.94 128.25 138.07
  C 133.45 122.71 147.91 118.75 163.00 118.80
  Q 178.78 118.86 194.56 119.18
  A 0.52 0.51 0.6 0 1 195.07 119.69
  L 195.25 187.34
  A 0.66 0.66 0.0 0 1 194.59 188.00
  L 184.26 188.00
  A 0.77 0.76 -90.0 0 1 183.50 187.23
  L 183.44 131.56
  A 0.52 0.51 0.6 0 0 182.93 131.05
  Z"
/>
<path fill="#000000" d="
  M 226.75 119.75
  C 249.67 116.20 268.95 124.34 269.93 150.01
  Q 270.64 168.66 270.08 187.32
  A 0.55 0.51 -88.8 0 1 269.57 187.85
  L 259.18 187.85
  A 0.55 0.50 89.4 0 1 258.68 187.31
  Q 258.44 173.72 258.46 160.13
  Q 258.48 147.38 257.11 143.51
  C 253.41 133.10 241.50 129.85 231.21 131.28
  C 215.46 133.47 212.30 143.62 212.47 158.00
  Q 212.64 172.66 212.32 187.32
  A 0.54 0.51 -89.4 0 1 211.81 187.85
  L 201.68 187.85
  A 0.54 0.50 89.4 0 1 201.18 187.32
  C 200.88 172.90 199.81 153.39 202.20 142.19
  C 204.94 129.27 213.30 121.83 226.75 119.75
  Z"
/>
<path fill="#000000" d="
  M 322.03 174.00
  C 333.69 169.19 335.86 154.09 331.78 143.14
  C 328.16 133.42 319.28 131.02 309.75 131.01
  Q 293.13 131.00 276.87 131.00
  A 0.87 0.87 0.0 0 1 276.00 130.13
  L 276.00 119.88
  A 0.88 0.88 0.0 0 1 276.88 119.00
  Q 294.50 119.00 311.50 119.00
  C 328.72 119.00 341.33 126.52 344.31 144.19
  C 348.60 169.60 338.14 187.99 310.75 188.00
  Q 294.12 188.00 276.88 188.00
  A 0.88 0.88 0.0 0 1 276.00 187.12
  L 276.00 176.79
  A 0.80 0.80 0.4 0 1 276.81 175.99
  Q 292.66 176.14 307.73 175.89
  Q 317.85 175.73 322.03 174.00
  Z"
/>
<path fill="#000000" d="
  M 408.36 140.20
  C 406.46 130.77 388.67 130.82 381.75 130.92
  Q 366.72 131.14 351.69 130.82
  A 0.55 0.51 0.6 0 1 351.15 130.31
  L 351.15 119.69
  A 0.54 0.51 -0.6 0 1 351.68 119.18
  Q 370.09 118.86 388.50 118.93
  Q 397.81 118.96 406.28 122.24
  C 417.65 126.63 422.64 136.84 419.21 148.55
  Q 417.52 154.32 412.21 158.57
  A 0.62 0.62 43.5 0 0 412.24 159.56
  C 420.96 165.87 420.80 176.97 420.10 187.31
  A 0.59 0.54 -87.7 0 1 419.56 187.86
  L 409.26 187.80
  A 0.58 0.54 88.3 0 1 408.72 187.25
  C 408.31 180.64 410.59 171.36 402.94 168.06
  Q 395.75 164.96 387.25 164.97
  Q 369.75 165.00 351.56 165.00
  A 0.56 0.56 0.0 0 1 351.00 164.44
  L 351.00 153.66
  A 0.66 0.66 -0.2 0 1 351.66 153.00
  Q 368.13 153.00 384.50 153.10
  C 391.64 153.14 410.78 152.30 408.36 140.20
  Z"
/>
<path fill="#000000" d="
  M 427.27 164.79
  C 420.65 134.99 437.00 114.76 468.36 119.52
  C 486.88 122.34 495.00 134.19 495.18 152.39
  C 495.45 180.64 477.59 191.41 451.25 187.25
  Q 431.57 184.14 427.27 164.79
  Z
  M 483.3546 150.3802
  A 19.22 19.22 0.0 0 0 464.1011 131.1938
  L 456.9011 131.2063
  A 19.22 19.22 0.0 0 0 437.7147 150.4598
  L 437.7254 156.6198
  A 19.22 19.22 0.0 0 0 456.9789 175.8062
  L 464.1789 175.7937
  A 19.22 19.22 0.0 0 0 483.3653 156.5402
  L 483.3546 150.3802
  Z"
/>
<rect fill="#000000" x="501.00" y="119.00" width="11.50" height="69.00" rx="0.58"/>
<path fill="#000000" d="
  M 564.10 173.99
  C 579.92 167.46 579.83 138.37 562.89 132.48
  Q 559.45 131.28 550.47 131.12
  Q 535.05 130.85 518.78 131.01
  A 0.77 0.77 -0.4 0 1 518.00 130.24
  L 518.00 119.88
  A 0.88 0.88 0.0 0 1 518.88 119.00
  Q 536.50 119.00 553.50 119.00
  C 570.74 119.00 583.48 126.70 586.44 144.31
  C 587.71 151.89 587.42 162.27 584.50 169.76
  C 578.77 184.42 565.57 188.19 551.00 188.10
  Q 535.25 188.00 518.88 188.00
  A 0.88 0.88 0.0 0 1 518.00 187.12
  L 518.00 176.79
  A 0.80 0.80 0.4 0 1 518.81 175.99
  Q 534.62 176.14 549.66 175.90
  Q 559.90 175.73 564.10 173.99
  Z"
/>
<path fill="#000000" fill-opacity="0.510" d="
  M 82.36 225.48
  C 83.31 228.97 84.30 234.91 87.45 237.00
  C 94.83 241.90 109.84 241.39 117.51 236.71
  A 1.63 1.13 -87.1 0 0 118.09 235.96
  Q 118.69 234.47 120.03 235.28
  A 0.86 0.67 -75.4 0 1 120.36 236.05
  Q 120.24 237.44 121.25 238.54
  C 119.66 241.55 117.10 244.81 113.34 244.82
  C 106.69 244.84 99.00 243.62 93.07 242.74
  Q 90.17 242.31 87.25 240.78
  C 81.44 237.73 76.96 235.73 70.71 235.17
  C 65.70 234.73 61.55 236.41 56.00 234.29
  Q 57.04 232.89 59.81 232.56
  C 64.47 232.01 74.70 230.50 74.06 224.34
  Q 78.41 222.45 82.36 225.48
  Z"
/>
</svg>
