<?xml version="1.0" encoding="UTF-8" standalone="no"?>
<!DOCTYPE svg PUBLIC "-//W3C//DTD SVG 1.1//EN" "http://www.w3.org/Graphics/SVG/1.1/DTD/svg11.dtd">
<svg xmlns="http://www.w3.org/2000/svg" version="1.1" viewBox="0 0 600 127">
<g stroke-width="2.00" fill="none" stroke-linecap="butt">
<path stroke="#fc8080" vector-effect="non-scaling-stroke" d="
  M 578.37 63.59
  A 47.42 47.42 0.0 0 0 530.95 16.17
  A 47.42 47.42 0.0 0 0 483.53 63.59
  A 47.42 47.42 0.0 0 0 530.95 111.01
  A 47.42 47.42 0.0 0 0 578.37 63.59"
/>
<path stroke="#fc8080" vector-effect="non-scaling-stroke" d="
  M 82.10 61.13
  L 121.51 19.24
  Q 122.15 18.56 121.21 18.57
  L 97.34 18.74
  A 2.37 2.23 20.9 0 0 95.73 19.40
  L 62.04 53.09
  A 1.62 1.59 68.1 0 0 61.56 54.24
  L 61.56 71.45
  A 1.19 1.18 22.2 0 0 61.92 72.30
  L 97.06 107.67
  A 1.99 1.93 -21.7 0 0 98.46 108.25
  L 125.19 108.25
  Q 125.82 108.25 125.39 107.79
  L 82.09 61.86
  A 0.54 0.52 -45.0 0 1 82.10 61.13"
/>
<path stroke="#fc8080" vector-effect="non-scaling-stroke" d="
  M 157.01 87.74
  L 172.42 52.87
  A 0.50 0.50 -78.5 0 0 171.96 52.17
  L 156.23 52.25
  A 1.52 1.49 13.6 0 0 154.89 53.05
  Q 142.75 76.66 130.96 99.40
  C 129.45 102.32 129.61 104.31 129.82 107.49
  A 0.81 0.81 88.1 0 0 130.63 108.25
  L 225.69 108.19
  A 0.32 0.31 76.3 0 0 225.96 107.73
  L 182.54 19.58
  A 1.57 1.51 -12.2 0 0 181.16 18.73
  L 159.88 18.57
  A 0.34 0.34 -13.3 0 0 159.57 19.06
  L 193.92 87.59
  A 0.46 0.46 -13.2 0 1 193.51 88.25
  L 157.31 88.19
  A 0.33 0.32 11.8 0 1 157.01 87.74"
/>
<path stroke="#fc8080" vector-effect="non-scaling-stroke" d="
  M 423.81 75.71
  C 434.43 86.49 444.94 97.23 456.20 107.84
  A 1.29 1.27 66.9 0 0 457.05 108.19
  L 484.32 108.43
  Q 484.92 108.44 484.51 108.01
  L 441.12 62.19
  A 1.01 0.99 45.0 0 1 441.11 60.82
  L 480.26 19.24
  Q 480.90 18.56 479.96 18.57
  L 456.26 18.73
  A 2.47 2.24 20.2 0 0 454.60 19.40
  L 420.85 53.15
  A 1.21 1.14 69.1 0 0 420.50 54.00
  Q 420.50 61.75 420.50 69.50
  C 420.50 73.14 421.12 72.97 423.81 75.71"
/>
<path stroke="#fc8080" vector-effect="non-scaling-stroke" d="
  M 57.51 19.01
  A 0.26 0.26 0.0 0 0 57.25 18.75
  L 36.51 18.75
  A 0.26 0.26 0.0 0 0 36.25 19.01
  L 36.25 107.99
  A 0.26 0.26 0.0 0 0 36.51 108.25
  L 57.25 108.25
  A 0.26 0.26 0.0 0 0 57.51 107.99
  L 57.51 19.01"
/>
<path stroke="#fc8080" vector-effect="non-scaling-stroke" d="
  M 256.31 37.56
  C 268.55 37.40 291.65 34.14 291.75 53.44
  Q 291.89 80.22 291.75 107.54
  A 0.70 0.70 -89.6 0 0 292.45 108.25
  L 312.70 108.19
  A 0.51 0.49 90.0 0 0 313.19 107.68
  Q 313.28 82.20 313.26 56.73
  C 313.25 46.44 313.48 39.54 308.94 32.31
  Q 300.67 19.17 284.00 19.00
  Q 259.00 18.75 233.52 18.75
  A 0.52 0.52 0.0 0 0 233.00 19.27
  L 233.00 107.75
  A 0.50 0.50 0.0 0 0 233.50 108.25
  L 255.05 108.19
  A 0.71 0.70 -90.0 0 0 255.75 107.48
  L 255.81 38.07
  A 0.51 0.50 -90.0 0 1 256.31 37.56"
/>
<path stroke="#fc8080" vector-effect="non-scaling-stroke" d="
  M 409.74 19.37
  A 0.62 0.62 0.0 0 0 409.12 18.75
  L 328.62 18.75
  A 0.62 0.62 0.0 0 0 328.00 19.37
  L 328.00 36.87
  A 0.62 0.62 0.0 0 0 328.62 37.49
  L 409.12 37.49
  A 0.62 0.62 0.0 0 0 409.74 36.87
  L 409.74 19.37"
/>
<path stroke="#fc8080" vector-effect="non-scaling-stroke" d="
  M 350.81 88.94
  L 350.75 72.92
  A 0.68 0.67 -0.0 0 1 351.43 72.25
  L 409.06 72.07
  A 0.52 0.50 0.0 0 0 409.58 71.57
  L 409.74 54.37
  A 0.89 0.87 0.0 0 0 408.85 53.50
  L 328.69 53.50
  A 0.69 0.69 0.0 0 0 328.00 54.19
  L 328.00 107.40
  A 0.85 0.85 -0.2 0 0 328.85 108.25
  L 408.84 108.25
  A 0.91 0.91 0.1 0 0 409.75 107.34
  L 409.75 90.29
  A 0.80 0.79 0.0 0 0 408.95 89.50
  L 351.31 89.44
  A 0.50 0.50 0.0 0 1 350.81 88.94"
/>
<path stroke="#fc8080" vector-effect="non-scaling-stroke" d="
  M 530.9254 89.4900
  A 26.00 24.67 89.9 0 0 555.5500 63.4469
  A 26.00 24.67 89.9 0 0 530.8346 37.4900
  A 26.00 24.67 89.9 0 0 506.2100 63.5331
  A 26.00 24.67 89.9 0 0 530.9254 89.4900"
/>
</g>
<path fill="#f80000" d="
  M 0.00 0.00
  L 599.56 0.00
  L 599.85 122.81
  L 600.00 127.00
  L 0.00 127.00
  L 0.00 80.44
  Q 13.06 78.22 14.50 65.50
  Q 16.39 48.87 0.04 45.13
  L 0.00 0.00
  Z
  M 578.37 63.59
  A 47.42 47.42 0.0 0 0 530.95 16.17
  A 47.42 47.42 0.0 0 0 483.53 63.59
  A 47.42 47.42 0.0 0 0 530.95 111.01
  A 47.42 47.42 0.0 0 0 578.37 63.59
  Z
  M 82.10 61.13
  L 121.51 19.24
  Q 122.15 18.56 121.21 18.57
  L 97.34 18.74
  A 2.37 2.23 20.9 0 0 95.73 19.40
  L 62.04 53.09
  A 1.62 1.59 68.1 0 0 61.56 54.24
  L 61.56 71.45
  A 1.19 1.18 22.2 0 0 61.92 72.30
  L 97.06 107.67
  A 1.99 1.93 -21.7 0 0 98.46 108.25
  L 125.19 108.25
  Q 125.82 108.25 125.39 107.79
  L 82.09 61.86
  A 0.54 0.52 -45.0 0 1 82.10 61.13
  Z
  M 157.01 87.74
  L 172.42 52.87
  A 0.50 0.50 -78.5 0 0 171.96 52.17
  L 156.23 52.25
  A 1.52 1.49 13.6 0 0 154.89 53.05
  Q 142.75 76.66 130.96 99.40
  C 129.45 102.32 129.61 104.31 129.82 107.49
  A 0.81 0.81 88.1 0 0 130.63 108.25
  L 225.69 108.19
  A 0.32 0.31 76.3 0 0 225.96 107.73
  L 182.54 19.58
  A 1.57 1.51 -12.2 0 0 181.16 18.73
  L 159.88 18.57
  A 0.34 0.34 -13.3 0 0 159.57 19.06
  L 193.92 87.59
  A 0.46 0.46 -13.2 0 1 193.51 88.25
  L 157.31 88.19
  A 0.33 0.32 11.8 0 1 157.01 87.74
  Z
  M 423.81 75.71
  C 434.43 86.49 444.94 97.23 456.20 107.84
  A 1.29 1.27 66.9 0 0 457.05 108.19
  L 484.32 108.43
  Q 484.92 108.44 484.51 108.01
  L 441.12 62.19
  A 1.01 0.99 45.0 0 1 441.11 60.82
  L 480.26 19.24
  Q 480.90 18.56 479.96 18.57
  L 456.26 18.73
  A 2.47 2.24 20.2 0 0 454.60 19.40
  L 420.85 53.15
  A 1.21 1.14 69.1 0 0 420.50 54.00
  Q 420.50 61.75 420.50 69.50
  C 420.50 73.14 421.12 72.97 423.81 75.71
  Z
  M 57.51 19.01
  A 0.26 0.26 0.0 0 0 57.25 18.75
  L 36.51 18.75
  A 0.26 0.26 0.0 0 0 36.25 19.01
  L 36.25 107.99
  A 0.26 0.26 0.0 0 0 36.51 108.25
  L 57.25 108.25
  A 0.26 0.26 0.0 0 0 57.51 107.99
  L 57.51 19.01
  Z
  M 256.31 37.56
  C 268.55 37.40 291.65 34.14 291.75 53.44
  Q 291.89 80.22 291.75 107.54
  A 0.70 0.70 -89.6 0 0 292.45 108.25
  L 312.70 108.19
  A 0.51 0.49 90.0 0 0 313.19 107.68
  Q 313.28 82.20 313.26 56.73
  C 313.25 46.44 313.48 39.54 308.94 32.31
  Q 300.67 19.17 284.00 19.00
  Q 259.00 18.75 233.52 18.75
  A 0.52 0.52 0.0 0 0 233.00 19.27
  L 233.00 107.75
  A 0.50 0.50 0.0 0 0 233.50 108.25
  L 255.05 108.19
  A 0.71 0.70 -90.0 0 0 255.75 107.48
  L 255.81 38.07
  A 0.51 0.50 -90.0 0 1 256.31 37.56
  Z
  M 409.74 19.37
  A 0.62 0.62 0.0 0 0 409.12 18.75
  L 328.62 18.75
  A 0.62 0.62 0.0 0 0 328.00 19.37
  L 328.00 36.87
  A 0.62 0.62 0.0 0 0 328.62 37.49
  L 409.12 37.49
  A 0.62 0.62 0.0 0 0 409.74 36.87
  L 409.74 19.37
  Z
  M 350.81 88.94
  L 350.75 72.92
  A 0.68 0.67 -0.0 0 1 351.43 72.25
  L 409.06 72.07
  A 0.52 0.50 0.0 0 0 409.58 71.57
  L 409.74 54.37
  A 0.89 0.87 0.0 0 0 408.85 53.50
  L 328.69 53.50
  A 0.69 0.69 0.0 0 0 328.00 54.19
  L 328.00 107.40
  A 0.85 0.85 -0.2 0 0 328.85 108.25
  L 408.84 108.25
  A 0.91 0.91 0.1 0 0 409.75 107.34
  L 409.75 90.29
  A 0.80 0.79 0.0 0 0 408.95 89.50
  L 351.31 89.44
  A 0.50 0.50 0.0 0 1 350.81 88.94
  Z"
/>
<path fill="#ffffff" d="
  M 578.37 63.59
  A 47.42 47.42 0.0 0 1 530.95 111.01
  A 47.42 47.42 0.0 0 1 483.53 63.59
  A 47.42 47.42 0.0 0 1 530.95 16.17
  A 47.42 47.42 0.0 0 1 578.37 63.59
  Z
  M 530.9254 89.4900
  A 26.00 24.67 89.9 0 0 555.5500 63.4469
  A 26.00 24.67 89.9 0 0 530.8346 37.4900
  A 26.00 24.67 89.9 0 0 506.2100 63.5331
  A 26.00 24.67 89.9 0 0 530.9254 89.4900
  Z"
/>
<path fill="#ffffff" d="
  M 82.09 61.86
  L 125.39 107.79
  Q 125.82 108.25 125.19 108.25
  L 98.46 108.25
  A 1.99 1.93 -21.7 0 1 97.06 107.67
  L 61.92 72.30
  A 1.19 1.18 22.2 0 1 61.56 71.45
  L 61.56 54.24
  A 1.62 1.59 68.1 0 1 62.04 53.09
  L 95.73 19.40
  A 2.37 2.23 20.9 0 1 97.34 18.74
  L 121.21 18.57
  Q 122.15 18.56 121.51 19.24
  L 82.10 61.13
  A 0.54 0.52 -45.0 0 0 82.09 61.86
  Z"
/>
<path fill="#ffffff" d="
  M 157.31 88.19
  L 193.51 88.25
  A 0.46 0.46 -13.2 0 0 193.92 87.59
  L 159.57 19.06
  A 0.34 0.34 -13.3 0 1 159.88 18.57
  L 181.16 18.73
  A 1.57 1.51 -12.2 0 1 182.54 19.58
  L 225.96 107.73
  A 0.32 0.31 76.3 0 1 225.69 108.19
  L 130.63 108.25
  A 0.81 0.81 88.1 0 1 129.82 107.49
  C 129.61 104.31 129.45 102.32 130.96 99.40
  Q 142.75 76.66 154.89 53.05
  A 1.52 1.49 13.6 0 1 156.23 52.25
  L 171.96 52.17
  A 0.50 0.50 -78.5 0 1 172.42 52.87
  L 157.01 87.74
  A 0.33 0.32 11.8 0 0 157.31 88.19
  Z"
/>
<path fill="#ffffff" d="
  M 456.20 107.84
  C 444.94 97.23 434.43 86.49 423.81 75.71
  C 421.12 72.97 420.50 73.14 420.50 69.50
  Q 420.50 61.75 420.50 54.00
  A 1.21 1.14 69.1 0 1 420.85 53.15
  L 454.60 19.40
  A 2.47 2.24 20.2 0 1 456.26 18.73
  L 479.96 18.57
  Q 480.90 18.56 480.26 19.24
  L 441.11 60.82
  A 1.01 0.99 45.0 0 0 441.12 62.19
  L 484.51 108.01
  Q 484.92 108.44 484.32 108.43
  L 457.05 108.19
  A 1.29 1.27 66.9 0 1 456.20 107.84
  Z"
/>
<rect fill="#ffffff" x="36.25" y="18.75" width="21.26" height="89.50" rx="0.26"/>
<path fill="#ffffff" d="
  M 255.81 38.07
  L 255.75 107.48
  A 0.71 0.70 -90.0 0 1 255.05 108.19
  L 233.50 108.25
  A 0.50 0.50 0.0 0 1 233.00 107.75
  L 233.00 19.27
  A 0.52 0.52 -0.0 0 1 233.52 18.75
  Q 259.00 18.75 284.00 19.00
  Q 300.67 19.17 308.94 32.31
  C 313.48 39.54 313.25 46.44 313.26 56.73
  Q 313.28 82.20 313.19 107.68
  A 0.51 0.49 -90.0 0 1 312.70 108.19
  L 292.45 108.25
  A 0.70 0.70 -89.6 0 1 291.75 107.54
  Q 291.89 80.22 291.75 53.44
  C 291.65 34.14 268.55 37.40 256.31 37.56
  A 0.51 0.50 -90.0 0 0 255.81 38.07
  Z"
/>
<rect fill="#ffffff" x="328.00" y="18.75" width="81.74" height="18.74" rx="0.62"/>
<ellipse fill="#f80000" cx="0.00" cy="0.00" transform="translate(530.88,63.49) rotate(89.9)" rx="26.00" ry="24.67"/>
<path fill="#ffffff" d="
  M 351.31 89.44
  L 408.95 89.50
  A 0.80 0.79 0.0 0 1 409.75 90.29
  L 409.75 107.34
  A 0.91 0.91 0.4 0 1 408.84 108.25
  L 328.85 108.25
  A 0.85 0.85 -0.0 0 1 328.00 107.40
  L 328.00 54.19
  A 0.69 0.69 0.0 0 1 328.69 53.50
  L 408.85 53.50
  A 0.89 0.87 -0.0 0 1 409.74 54.37
  L 409.58 71.57
  A 0.52 0.50 -0.0 0 1 409.06 72.07
  L 351.43 72.25
  A 0.68 0.67 0.0 0 0 350.75 72.92
  L 350.81 88.94
  A 0.50 0.50 0.0 0 0 351.31 89.44
  Z"
/>
</svg>
