<?xml version="1.0" encoding="UTF-8" standalone="no"?>
<!DOCTYPE svg PUBLIC "-//W3C//DTD SVG 1.1//EN" "http://www.w3.org/Graphics/SVG/1.1/DTD/svg11.dtd">
<svg xmlns="http://www.w3.org/2000/svg" version="1.1" viewBox="0 0 600 300">
<g stroke-width="2.00" fill="none" stroke-linecap="butt">
<path stroke="#fe2d00" vector-effect="non-scaling-stroke" d="
  M 274.00 212.54
  Q 275.50 213.44 276.24 214.98
  A 0.37 0.30 -17.0 0 1 275.94 215.43
  L 274.50 215.71"
/>
<path stroke="#ff6b00" vector-effect="non-scaling-stroke" d="
  M 284.00 212.54
  Q 285.89 213.09 285.95 214.94
  A 0.61 0.44 -8.0 0 1 285.44 215.43
  L 284.00 215.71"
/>
<path stroke="#ffa100" vector-effect="non-scaling-stroke" d="
  M 431.50 212.79
  Q 428.74 212.76 428.75 215.21"
/>
<path stroke="#c65c00" stroke-opacity="0.706" vector-effect="non-scaling-stroke" d="
  M 428.75 215.21
  L 406.00 215.54"
/>
<path stroke="#ffe102" vector-effect="non-scaling-stroke" d="
  M 476.00 213.04
  Q 474.79 213.38 474.60 214.44
  A 0.49 0.42 5.9 0 0 475.07 214.93
  L 479.50 215.21"
/>
<path stroke="#c69000" stroke-opacity="0.706" vector-effect="non-scaling-stroke" d="
  M 430.51 215.37
  L 428.75 215.21"
/>
<path stroke="#ff1800" vector-effect="non-scaling-stroke" d="
  M 263.79 218.25
  Q 265.18 219.00 265.02 220.30
  A 0.68 0.57 -7.1 0 1 264.56 220.79
  Q 263.51 221.12 264.75 221.46"
/>
<path stroke="#e30000" stroke-opacity="0.561" vector-effect="non-scaling-stroke" d="
  M 264.75 221.46
  L 231.75 221.54"
/>
<path stroke="#e42b00" stroke-opacity="0.561" vector-effect="non-scaling-stroke" d="
  M 281.50 221.29
  L 264.75 221.46"
/>
<path stroke="#ff6b00" vector-effect="non-scaling-stroke" d="
  M 294.00 218.29
  L 293.31 218.54
  A 0.42 0.28 -24.5 0 0 293.02 219.01
  L 294.48 221.27"
/>
<path stroke="#e35000" stroke-opacity="0.561" vector-effect="non-scaling-stroke" d="
  M 294.48 221.27
  L 281.50 221.29"
/>
<path stroke="#ff4500" vector-effect="non-scaling-stroke" d="
  M 281.50 221.29
  L 274.06 221.20
  A 0.54 0.41 88.4 0 1 273.65 220.69
  L 273.50 218.29"
/>
<path stroke="#fe9800" vector-effect="non-scaling-stroke" d="
  M 430.50 218.54
  L 431.25 220.96"
/>
<path stroke="#e46f00" stroke-opacity="0.561" vector-effect="non-scaling-stroke" d="
  M 329.25 221.45
  L 294.48 221.27"
/>
<path stroke="#fdd700" vector-effect="non-scaling-stroke" d="
  M 450.50 218.54
  Q 454.27 218.85 452.25 218.97
  A 1.14 0.83 8.9 0 0 451.43 219.39
  Q 450.81 220.34 452.25 220.96"
/>
<path stroke="#ff1d00" vector-effect="non-scaling-stroke" d="
  M 263.00 224.04
  Q 260.87 225.39 262.75 226.96"
/>
<path stroke="#ff5b00" vector-effect="non-scaling-stroke" d="
  M 283.50 224.04
  Q 283.19 224.42 283.10 224.82
  A 1.82 1.09 85.6 0 1 282.69 225.64
  Q 281.65 226.71 284.00 226.91"
/>
<path stroke="#fe9c00" vector-effect="non-scaling-stroke" d="
  M 427.25 224.29
  Q 428.74 225.13 427.56 225.31
  C 426.94 227.23 422.43 226.39 420.25 226.71"
/>
<path stroke="#fcdb00" vector-effect="non-scaling-stroke" d="
  M 476.00 224.29
  C 474.55 224.32 471.94 224.33 470.82 225.37
  Q 469.18 226.91 472.00 226.50
  Q 473.81 226.24 477.00 226.71"
/>
<path stroke="#e1df01" stroke-opacity="0.561" vector-effect="non-scaling-stroke" d="
  M 587.77 224.48
  L 559.25 224.40"
/>
<path stroke="#e30000" stroke-opacity="0.561" vector-effect="non-scaling-stroke" d="
  M 248.50 229.58
  L 175.25 229.46"
/>
<path stroke="#ff1800" vector-effect="non-scaling-stroke" d="
  M 263.00 229.79
  Q 263.05 230.79 262.56 231.67
  C 261.55 233.51 264.03 232.42 265.00 232.96"
/>
<path stroke="#ff4500" vector-effect="non-scaling-stroke" d="
  M 276.50 229.79
  Q 277.96 230.83 277.19 232.44
  Q 276.43 232.77 277.75 232.96"
/>
<path stroke="#ff6b00" vector-effect="non-scaling-stroke" d="
  M 290.50 229.79
  L 288.80 230.07
  Q 288.25 230.16 288.56 230.50
  L 290.75 232.96"
/>
<path stroke="#ffa100" vector-effect="non-scaling-stroke" d="
  M 436.50 230.04
  L 437.25 232.46"
/>
<path stroke="#fedf00" vector-effect="non-scaling-stroke" d="
  M 490.50 230.21
  L 468.18 230.42
  A 0.65 0.56 -83.4 0 0 467.63 230.93
  Q 467.37 232.11 466.00 232.46"
/>
<path stroke="#ff1d00" vector-effect="non-scaling-stroke" d="
  M 261.25 235.29
  L 269.25 235.52
  A 1.01 0.73 -10.1 0 1 270.04 235.90
  Q 270.57 236.78 270.20 237.80
  A 0.82 0.73 6.3 0 1 269.51 238.29
  L 263.00 238.71"
/>
<path stroke="#ff5b00" vector-effect="non-scaling-stroke" d="
  M 280.50 235.54
  C 278.08 235.62 280.26 237.04 280.11 238.02
  A 0.40 0.40 5.2 0 0 280.49 238.47
  L 285.00 238.71"
/>
<path stroke="#fe9800" vector-effect="non-scaling-stroke" d="
  M 427.75 235.79
  Q 428.04 236.63 427.10 236.59
  Q 426.91 236.58 427.07 236.69
  Q 427.25 236.83 427.21 236.98
  A 0.76 0.31 -9.2 0 1 426.65 237.32
  Q 425.71 237.54 425.00 238.21"
/>
<path stroke="#fed902" vector-effect="non-scaling-stroke" d="
  M 459.50 235.79
  Q 461.60 235.50 461.54 236.58
  A 1.27 0.37 -41.5 0 1 461.05 237.36
  Q 460.55 237.88 461.50 238.21"
/>
</g>
<path fill="#000000" d="
  M 72.60 210.81
  Q 71.21 210.81 72.30 211.68
  L 99.36 233.19
  A 0.58 0.57 34.0 0 1 99.51 233.93
  L 66.94 290.50
  A 0.87 0.84 -74.7 0 1 66.20 290.94
  L 13.93 290.94
  Q 13.28 290.94 13.64 290.39
  L 195.84 13.96
  Q 196.50 12.96 196.50 14.16
  L 196.50 210.23
  A 0.70 0.69 -89.6 0 1 195.80 210.93
  L 134.11 210.69
  A 0.55 0.54 0.0 0 1 133.56 210.15
  L 133.76 172.53
  Q 133.77 170.83 132.95 172.32
  L 112.09 210.11
  A 1.25 1.23 14.1 0 1 111.00 210.75
  L 72.60 210.81
  Z"
/>
<path fill="#000000" d="
  M 430.52 144.89
  Q 430.16 139.66 430.22 135.35
  C 430.28 131.72 430.71 127.70 425.38 129.16
  A 1.92 1.92 -7.1 0 0 423.97 130.97
  Q 423.42 161.22 423.99 189.25
  Q 424.05 191.99 426.77 191.63
  C 430.93 191.08 430.27 189.80 430.23 186.02
  Q 430.15 177.11 430.46 167.71
  A 0.55 0.55 -1.1 0 1 430.98 167.17
  Q 440.32 166.64 449.94 167.28
  A 0.54 0.54 1.1 0 1 450.45 167.81
  C 450.74 181.66 451.18 191.58 448.94 199.48
  C 445.48 211.70 419.99 208.39 411.81 205.44
  C 405.54 203.18 404.75 195.28 404.75 189.50
  Q 404.75 160.37 404.75 131.25
  C 404.75 127.64 405.16 120.48 408.25 117.45
  C 414.58 111.24 436.21 111.43 443.26 114.86
  Q 450.22 118.24 450.42 128.00
  Q 450.60 136.50 450.50 145.01
  A 0.69 0.68 -89.6 0 1 449.82 145.69
  L 431.44 145.75
  A 0.92 0.92 88.0 0 1 430.52 144.89
  Z"
/>
<path fill="#000000" d="
  M 228.31 155.66
  L 228.07 205.57
  A 0.53 0.51 -89.4 0 1 227.56 206.09
  L 210.94 206.09
  A 0.53 0.51 90.0 0 1 210.43 205.56
  L 210.43 114.93
  A 0.52 0.51 -0.6 0 1 210.94 114.42
  L 233.73 114.26
  A 0.97 0.95 84.5 0 1 234.67 115.05
  L 241.72 154.16
  Q 242.21 156.86 242.72 154.16
  L 250.21 114.80
  A 0.61 0.60 5.1 0 1 250.81 114.31
  L 272.20 114.31
  A 0.36 0.36 0.2 0 1 272.56 114.67
  L 272.69 205.48
  A 0.77 0.77 -89.9 0 1 271.92 206.25
  L 255.02 206.25
  A 0.52 0.52 0.0 0 1 254.50 205.73
  Q 254.50 183.25 254.56 161.25
  Q 254.57 158.63 254.88 156.03
  A 0.66 0.39 -84.9 0 0 254.54 155.31
  C 253.99 155.29 246.46 201.24 245.72 205.70
  A 0.66 0.66 4.6 0 1 245.07 206.25
  L 238.08 206.25
  A 0.62 0.62 -5.0 0 1 237.47 205.74
  L 228.72 155.74
  A 0.28 0.17 80.1 0 0 228.51 155.50
  L 228.41 155.51
  A 0.16 0.12 85.7 0 0 228.31 155.66
  Z"
/>
<path fill="#000000" d="
  M 281.19 114.70
  A 0.45 0.45 89.7 0 1 281.64 114.25
  L 312.08 114.25
  A 0.65 0.63 0.4 0 1 312.73 114.89
  L 312.59 127.05
  A 0.55 0.54 -0.6 0 1 312.06 127.58
  L 301.70 127.92
  A 0.55 0.51 -1.2 0 0 301.17 128.43
  L 301.17 149.05
  A 0.53 0.49 0.6 0 0 301.69 149.54
  L 311.39 149.74
  A 0.60 0.60 0.8 0 1 311.98 150.35
  L 311.84 162.55
  A 0.56 0.54 -90.0 0 1 311.31 163.10
  L 301.99 163.21
  A 1.01 0.98 -0.3 0 0 300.99 164.19
  L 300.82 192.06
  A 0.94 0.92 90.0 0 0 301.74 193.00
  L 312.19 193.00
  A 0.64 0.63 -89.6 0 1 312.82 193.65
  L 312.75 205.73
  A 0.52 0.51 -90.0 0 1 312.24 206.25
  L 281.99 206.19
  A 0.98 0.98 0.1 0 1 281.01 205.21
  L 281.19 114.70
  Z"
/>
<path fill="#000000" d="
  M 354.97 161.67
  C 359.06 163.18 363.88 163.67 365.50 168.50
  Q 366.75 172.22 366.71 179.75
  Q 366.64 192.66 366.32 205.56
  A 0.54 0.51 -89.4 0 1 365.81 206.09
  L 347.94 206.09
  A 0.54 0.51 89.4 0 1 347.43 205.56
  Q 347.11 189.78 347.19 174.00
  Q 347.21 169.63 341.59 170.02
  A 0.90 0.90 -2.0 0 0 340.75 170.92
  L 340.75 205.73
  A 0.52 0.52 -90.0 0 1 340.23 206.25
  L 321.41 206.25
  A 0.66 0.66 0.2 0 1 320.75 205.59
  L 320.75 114.91
  A 0.66 0.66 -0.2 0 1 321.41 114.25
  Q 333.50 114.25 345.25 114.24
  C 353.05 114.24 364.27 114.36 365.65 123.93
  Q 368.05 140.58 365.25 154.50
  C 364.49 158.26 358.04 159.75 354.95 161.28
  Q 354.50 161.50 354.97 161.67
  Z
  M 340.94 152.19
  A 0.51 0.50 5.2 0 0 341.37 152.70
  C 347.84 153.73 347.20 149.86 347.28 145.40
  Q 347.43 137.60 346.97 129.81
  A 1.55 1.27 -71.9 0 0 346.63 128.93
  Q 344.67 126.64 341.55 127.43
  A 0.65 0.64 83.2 0 0 341.06 128.06
  L 340.94 152.19
  Z"
/>
<rect fill="#000000" x="376.50" y="114.25" width="19.74" height="92.00" rx="0.43"/>
<path fill="#000000" d="
  M 468.45 114.85
  A 0.65 0.64 -85.2 0 1 469.08 114.31
  L 491.69 114.25
  A 1.02 1.01 86.5 0 1 492.69 115.15
  L 503.31 205.54
  A 0.63 0.63 -3.6 0 1 502.68 206.25
  L 486.77 206.25
  A 0.57 0.55 -3.4 0 1 486.21 205.77
  L 484.40 191.13
  A 1.21 1.14 85.9 0 0 483.24 190.06
  L 474.70 190.15
  A 0.61 0.57 -86.6 0 0 474.13 190.69
  L 472.49 205.69
  A 0.56 0.55 -87.1 0 1 471.94 206.19
  L 453.89 206.25
  A 0.44 0.44 -85.5 0 1 453.46 205.74
  L 468.45 114.85
  Z
  M 480.36 140.78
  C 479.62 141.06 477.47 169.55 477.28 172.50
  A 0.56 0.46 -88.2 0 0 477.74 173.10
  L 482.70 173.05
  A 0.58 0.46 86.7 0 0 483.14 172.43
  L 480.71 141.14
  A 0.37 0.26 80.4 0 0 480.36 140.78
  Z"
/>
<path fill="#000000" d="
  M 535.80 150.36
  C 536.19 150.11 536.00 118.62 536.00 115.13
  A 0.88 0.88 0.0 0 1 536.88 114.25
  L 552.56 114.25
  A 0.69 0.69 -0.3 0 1 553.25 114.94
  L 553.25 205.69
  A 0.56 0.56 89.8 0 1 552.69 206.25
  L 538.07 206.25
  A 0.95 0.94 -7.7 0 1 537.16 205.56
  L 525.32 163.04
  A 0.61 0.47 73.8 0 0 524.69 162.58
  Q 524.33 162.68 524.48 163.13
  Q 524.69 163.78 524.69 164.05
  L 524.75 205.70
  A 0.55 0.55 89.9 0 1 524.20 206.25
  L 508.23 206.25
  A 0.54 0.54 0.2 0 1 507.69 205.71
  C 507.42 182.95 507.58 163.09 507.47 137.33
  Q 507.42 126.24 507.70 114.76
  A 0.52 0.52 -89.4 0 1 508.22 114.25
  L 525.29 114.25
  A 1.04 1.04 81.8 0 1 526.29 115.00
  Q 531.34 132.71 535.20 149.94
  A 0.52 0.37 70.3 0 0 535.80 150.36
  Z"
/>
<path fill="#000000" d="
  M 563.55 117.80
  L 563.45 123.94
  A 0.86 0.72 80.7 0 1 563.01 124.68
  Q 562.18 125.06 561.55 124.40
  A 1.44 1.03 -73.4 0 1 561.24 123.50
  L 561.29 118.31
  A 1.30 1.28 -90.0 0 0 559.99 116.99
  Q 557.75 117.03 558.24 115.92
  A 1.04 0.80 4.2 0 1 559.00 115.42
  C 559.97 115.29 567.15 114.79 566.62 116.48
  A 0.87 0.55 0.0 0 1 565.93 116.92
  L 564.03 117.17
  A 0.66 0.55 87.6 0 0 563.55 117.80
  Z"
/>
<path fill="#000000" d="
  M 573.15 121.33
  Q 573.58 122.67 573.94 121.20
  L 575.12 116.28
  A 1.20 0.99 -8.9 0 1 575.75 115.57
  Q 577.01 114.96 578.25 115.57
  A 0.86 0.76 -79.8 0 1 578.70 116.31
  C 578.77 118.65 578.68 120.99 578.82 123.33
  Q 578.94 125.32 576.87 124.62
  A 0.58 0.57 -79.0 0 1 576.48 124.03
  Q 576.80 120.19 576.50 119.38
  Q 576.10 118.25 575.40 121.24
  Q 575.10 122.55 574.71 123.84
  A 1.29 1.12 88.0 0 1 574.12 124.57
  Q 572.42 125.44 571.87 123.47
  C 568.57 111.53 571.71 127.01 568.37 124.58
  A 1.07 0.89 -74.4 0 1 568.00 123.75
  L 568.05 116.07
  A 0.75 0.70 81.4 0 1 568.53 115.37
  Q 569.82 114.92 571.01 115.55
  A 1.39 0.73 82.8 0 1 571.54 116.31
  L 573.15 121.33
  Z"
/>
<path fill="#fe0000" d="
  M 274.00 212.54
  Q 275.50 213.44 276.24 214.98
  A 0.37 0.30 -17.0 0 1 275.94 215.43
  L 274.50 215.71
  L 181.36 216.00
  Q 179.48 216.00 181.18 215.19
  C 184.86 213.43 187.81 212.24 192.11 212.27
  Q 233.05 212.57 274.00 212.54
  Z"
/>
<path fill="#fe5900" d="
  M 274.00 212.54
  L 284.00 212.54
  Q 285.89 213.09 285.95 214.94
  A 0.61 0.44 -8.0 0 1 285.44 215.43
  L 284.00 215.71
  L 274.50 215.71
  L 275.94 215.43
  A 0.37 0.30 -17.0 0 0 276.24 214.98
  Q 275.50 213.44 274.00 212.54
  Z"
/>
<path fill="#ff7c00" d="
  M 284.00 212.54
  L 431.50 212.79
  Q 428.74 212.76 428.75 215.21
  L 406.00 215.54
  L 284.00 215.71
  L 285.44 215.43
  A 0.61 0.44 -8.0 0 0 285.95 214.94
  Q 285.89 213.09 284.00 212.54
  Z"
/>
<path fill="#ffc500" d="
  M 431.50 212.79
  L 476.00 213.04
  Q 474.79 213.38 474.60 214.44
  A 0.49 0.42 5.9 0 0 475.07 214.93
  L 479.50 215.21
  L 430.51 215.37
  L 428.75 215.21
  Q 428.74 212.76 431.50 212.79
  Z"
/>
<path fill="#fefd03" d="
  M 476.00 213.04
  Q 531.60 212.80 587.19 213.25
  C 588.90 213.26 588.97 214.94 587.19 214.94
  Q 533.34 214.97 479.50 215.21
  L 475.07 214.93
  A 0.49 0.42 5.9 0 1 474.60 214.44
  Q 474.79 213.38 476.00 213.04
  Z"
/>
<path fill="#3b0f00" fill-opacity="0.412" d="
  M 428.75 215.21
  L 430.51 215.37
  Q 418.26 216.19 406.00 215.54
  L 428.75 215.21
  Z"
/>
<path fill="#fe0000" d="
  M 263.79 218.25
  Q 265.18 219.00 265.02 220.30
  A 0.68 0.57 -7.1 0 1 264.56 220.79
  Q 263.51 221.12 264.75 221.46
  L 231.75 221.54
  L 168.08 221.50
  Q 166.66 221.50 167.95 220.90
  C 170.72 219.63 173.26 218.26 176.52 218.22
  Q 220.16 217.64 263.79 218.25
  Z"
/>
<path fill="#fe5900" d="
  M 294.00 218.29
  L 293.31 218.54
  A 0.42 0.28 -24.5 0 0 293.02 219.01
  L 294.48 221.27
  L 281.50 221.29
  L 274.06 221.20
  A 0.54 0.41 88.4 0 1 273.65 220.69
  L 273.50 218.29
  L 294.00 218.29
  Z"
/>
<path fill="#ff3000" d="
  M 263.79 218.25
  L 273.50 218.29
  L 273.65 220.69
  A 0.54 0.41 88.4 0 0 274.06 221.20
  L 281.50 221.29
  L 264.75 221.46
  Q 263.51 221.12 264.56 220.79
  A 0.68 0.57 -7.1 0 0 265.02 220.30
  Q 265.18 219.00 263.79 218.25
  Z"
/>
<path fill="#ff7c00" d="
  M 294.00 218.29
  L 430.50 218.54
  L 431.25 220.96
  L 329.25 221.45
  L 294.48 221.27
  L 293.02 219.01
  A 0.42 0.28 -24.5 0 1 293.31 218.54
  L 294.00 218.29
  Z"
/>
<path fill="#fdb400" d="
  M 430.50 218.54
  L 450.50 218.54
  Q 454.27 218.85 452.25 218.97
  A 1.14 0.83 8.9 0 0 451.43 219.39
  Q 450.81 220.34 452.25 220.96
  L 431.25 220.96
  L 430.50 218.54
  Z"
/>
<path fill="#fcfa01" fill-opacity="0.996" d="
  M 450.50 218.54
  L 587.25 219.00
  A 1.48 1.08 -17.7 0 1 588.15 219.30
  C 589.23 220.26 587.71 220.75 586.97 220.75
  Q 519.61 220.93 452.25 220.96
  Q 450.81 220.34 451.43 219.39
  A 1.14 0.83 8.9 0 1 452.25 218.97
  Q 454.27 218.85 450.50 218.54
  Z"
/>
<path fill="#070202" fill-opacity="0.122" d="
  M 281.50 221.29
  L 294.48 221.27
  L 329.25 221.45
  Q 280.50 222.13 231.75 221.54
  L 264.75 221.46
  L 281.50 221.29
  Z"
/>
<path fill="#fe0000" d="
  M 263.00 224.04
  Q 260.87 225.39 262.75 226.96
  L 154.26 227.25
  Q 153.74 227.25 154.17 226.99
  C 157.92 224.71 161.15 223.74 165.81 223.77
  Q 214.40 224.13 263.00 224.04
  Z"
/>
<path fill="#ff3900" d="
  M 263.00 224.04
  L 283.50 224.04
  Q 283.19 224.42 283.10 224.82
  A 1.82 1.09 85.6 0 1 282.69 225.64
  Q 281.65 226.71 284.00 226.91
  L 262.75 226.96
  Q 260.87 225.39 263.00 224.04
  Z"
/>
<path fill="#ff7c00" d="
  M 283.50 224.04
  L 427.25 224.29
  Q 428.74 225.13 427.56 225.31
  C 426.94 227.23 422.43 226.39 420.25 226.71
  L 284.00 226.91
  Q 281.65 226.71 282.69 225.64
  A 1.82 1.09 85.6 0 0 283.10 224.82
  Q 283.19 224.42 283.50 224.04
  Z"
/>
<path fill="#070202" fill-opacity="0.122" d="
  M 587.77 224.48
  L 559.25 224.40
  Q 573.51 223.36 587.77 224.48
  Z"
/>
<path fill="#fcbc00" d="
  M 427.25 224.29
  L 476.00 224.29
  C 474.55 224.32 471.94 224.33 470.82 225.37
  Q 469.18 226.91 472.00 226.50
  Q 473.81 226.24 477.00 226.71
  L 420.25 226.71
  C 422.43 226.39 426.94 227.23 427.56 225.31
  Q 428.74 225.13 427.25 224.29
  Z"
/>
<path fill="#fcfa01" fill-opacity="0.996" d="
  M 476.00 224.29
  L 559.25 224.40
  L 587.77 224.48
  Q 589.13 226.50 587.00 226.50
  Q 562.65 226.46 477.00 226.71
  Q 473.81 226.24 472.00 226.50
  Q 469.18 226.91 470.82 225.37
  C 471.94 224.33 474.55 224.32 476.00 224.29
  Z"
/>
<path fill="#070202" fill-opacity="0.122" d="
  M 248.50 229.58
  L 175.25 229.46
  Q 211.88 228.85 248.50 229.58
  Z"
/>
<path fill="#fe0000" d="
  M 175.25 229.46
  L 248.50 229.58
  L 263.00 229.79
  Q 263.05 230.79 262.56 231.67
  C 261.55 233.51 264.03 232.42 265.00 232.96
  L 141.18 233.25
  Q 139.48 233.25 140.98 232.46
  C 144.32 230.68 147.48 229.50 151.52 229.51
  Q 163.38 229.52 175.25 229.46
  Z"
/>
<path fill="#ff3000" d="
  M 263.00 229.79
  L 276.50 229.79
  Q 277.96 230.83 277.19 232.44
  Q 276.43 232.77 277.75 232.96
  L 265.00 232.96
  C 264.03 232.42 261.55 233.51 262.56 231.67
  Q 263.05 230.79 263.00 229.79
  Z"
/>
<path fill="#fe5900" d="
  M 276.50 229.79
  L 290.50 229.79
  L 288.80 230.07
  Q 288.25 230.16 288.56 230.50
  L 290.75 232.96
  L 277.75 232.96
  Q 276.43 232.77 277.19 232.44
  Q 277.96 230.83 276.50 229.79
  Z"
/>
<path fill="#ff7c00" d="
  M 290.50 229.79
  L 436.50 230.04
  L 437.25 232.46
  L 290.75 232.96
  L 288.56 230.50
  Q 288.25 230.16 288.80 230.07
  L 290.50 229.79
  Z"
/>
<path fill="#ffc500" d="
  M 436.50 230.04
  L 490.50 230.21
  L 468.18 230.42
  A 0.65 0.56 -83.4 0 0 467.63 230.93
  Q 467.37 232.11 466.00 232.46
  L 437.25 232.46
  L 436.50 230.04
  Z"
/>
<path fill="#fcfa01" fill-opacity="0.996" d="
  M 490.50 230.21
  L 587.19 230.31
  A 1.30 0.91 -14.8 0 1 588.06 230.63
  Q 588.62 231.25 588.07 231.86
  A 1.32 0.91 14.2 0 1 587.18 232.19
  L 466.00 232.46
  Q 467.37 232.11 467.63 230.93
  A 0.65 0.56 -83.4 0 1 468.18 230.42
  L 490.50 230.21
  Z"
/>
<path fill="#fe0000" d="
  M 261.25 235.29
  L 269.25 235.52
  A 1.01 0.73 -10.1 0 1 270.04 235.90
  Q 270.57 236.78 270.20 237.80
  A 0.82 0.73 6.3 0 1 269.51 238.29
  L 263.00 238.71
  L 135.56 238.94
  A 0.97 0.94 -16.6 0 1 134.77 238.53
  Q 132.37 234.99 137.25 235.00
  Q 199.25 235.10 261.25 235.29
  Z"
/>
<path fill="#ff3900" d="
  M 261.25 235.29
  L 280.50 235.54
  C 278.08 235.62 280.26 237.04 280.11 238.02
  A 0.40 0.40 5.2 0 0 280.49 238.47
  L 285.00 238.71
  L 263.00 238.71
  L 269.51 238.29
  A 0.82 0.73 6.3 0 0 270.20 237.80
  Q 270.57 236.78 270.04 235.90
  A 1.01 0.73 -10.1 0 0 269.25 235.52
  L 261.25 235.29
  Z"
/>
<path fill="#ff7c00" d="
  M 280.50 235.54
  L 427.75 235.79
  Q 428.04 236.63 427.10 236.59
  Q 426.91 236.58 427.07 236.69
  Q 427.25 236.83 427.21 236.98
  A 0.76 0.31 -9.2 0 1 426.65 237.32
  Q 425.71 237.54 425.00 238.21
  L 285.00 238.71
  L 280.49 238.47
  A 0.40 0.40 5.2 0 1 280.11 238.02
  C 280.26 237.04 278.08 235.62 280.50 235.54
  Z"
/>
<path fill="#fdb400" d="
  M 427.75 235.79
  L 459.50 235.79
  Q 461.60 235.50 461.54 236.58
  A 1.27 0.37 -41.5 0 1 461.05 237.36
  Q 460.55 237.88 461.50 238.21
  L 425.00 238.21
  Q 425.71 237.54 426.65 237.32
  A 0.76 0.31 -9.2 0 0 427.21 236.98
  Q 427.25 236.83 427.07 236.69
  Q 426.91 236.58 427.10 236.59
  Q 428.04 236.63 427.75 235.79
  Z"
/>
<path fill="#fefd03" d="
  M 459.50 235.79
  L 587.00 236.00
  A 1.57 1.05 -16.7 0 1 587.91 236.28
  C 589.12 237.26 587.84 237.94 586.87 237.94
  Q 524.18 237.96 461.50 238.21
  Q 460.55 237.88 461.05 237.36
  A 1.27 0.37 -41.5 0 0 461.54 236.58
  Q 461.60 235.50 459.50 235.79
  Z"
/>
<path fill="#000000" d="
  M 195.83 240.94
  A 0.61 0.61 89.5 0 1 196.44 241.55
  L 196.50 276.47
  A 0.78 0.78 -0.1 0 1 195.72 277.25
  L 148.32 277.25
  A 1.14 1.13 -9.2 0 1 147.24 276.48
  L 135.59 241.78
  A 0.78 0.78 80.8 0 1 136.33 240.75
  L 195.83 240.94
  Z"
/>
<path fill="#000000" d="
  M 215.30 277.43
  L 232.75 277.73
  A 0.59 0.57 -2.2 0 1 233.32 278.24
  Q 233.42 279.25 233.11 280.22
  A 0.73 0.67 8.2 0 1 232.43 280.69
  L 212.35 280.75
  A 0.85 0.85 -90.0 0 1 211.50 279.90
  Q 211.50 266.77 211.50 253.32
  C 211.50 250.78 211.15 249.97 214.25 250.67
  A 0.65 0.64 -83.9 0 1 214.75 251.30
  L 214.81 276.93
  A 0.50 0.49 90.0 0 0 215.30 277.43
  Z"
/>
<path fill="#000000" d="
  M 242.44 274.68
  Q 240.06 274.70 239.18 277.12
  Q 237.60 281.50 234.72 280.67
  A 0.46 0.43 -69.2 0 1 234.46 280.04
  L 247.97 251.38
  A 1.34 1.29 -87.7 0 1 248.65 250.73
  C 252.25 249.28 252.82 251.74 254.18 254.68
  Q 259.88 267.02 265.78 279.26
  Q 266.77 281.32 263.14 280.50
  A 1.15 1.15 -5.6 0 1 262.34 279.86
  L 260.22 275.35
  A 1.40 1.33 76.6 0 0 258.98 274.54
  L 242.44 274.68
  Z
  M 242.37 270.72
  A 0.36 0.36 -77.3 0 0 242.70 271.24
  L 257.70 271.26
  A 0.36 0.36 77.5 0 0 258.03 270.75
  L 250.55 254.75
  A 0.36 0.36 44.2 0 0 249.90 254.75
  L 242.37 270.72
  Z"
/>
<path fill="#000000" d="
  M 278.75 267.50
  C 270.69 267.50 269.53 264.77 269.60 257.51
  Q 269.68 250.20 278.00 250.37
  C 284.16 250.50 298.11 247.77 297.00 258.45
  A 0.81 0.76 85.2 0 1 296.47 259.12
  Q 295.36 259.50 294.22 259.17
  A 0.64 0.58 -78.9 0 1 293.82 258.50
  Q 294.34 253.78 289.50 253.77
  Q 283.13 253.75 276.75 253.92
  C 272.35 254.04 272.64 257.50 272.90 260.78
  C 273.70 270.73 301.15 254.72 296.88 275.74
  C 295.46 282.73 283.76 280.75 278.26 280.92
  Q 268.74 281.22 269.69 271.99
  A 0.76 0.76 -5.8 0 1 270.22 271.34
  Q 273.83 270.17 273.00 274.25
  Q 272.43 277.06 275.25 277.25
  Q 281.05 277.65 286.87 277.53
  C 290.31 277.46 293.70 278.04 293.85 273.48
  C 293.97 269.84 293.65 267.50 289.46 267.50
  Q 284.11 267.50 278.75 267.50
  Z"
/>
<path fill="#000000" d="
  M 306.57 277.44
  L 325.25 277.50
  A 0.76 0.70 -9.3 0 1 325.95 277.96
  Q 326.38 279.08 326.09 280.21
  A 0.67 0.63 6.7 0 1 325.45 280.69
  L 303.24 280.75
  A 0.52 0.50 -0.0 0 1 302.72 280.25
  L 302.70 251.01
  A 0.53 0.51 -0.0 0 1 303.23 250.50
  L 325.25 250.50
  A 0.90 0.81 -12.5 0 1 326.02 250.93
  Q 326.66 252.12 326.01 253.33
  A 0.88 0.77 12.2 0 1 325.26 253.75
  L 306.70 253.81
  A 0.94 0.93 -0.3 0 0 305.76 254.75
  L 305.81 263.22
  A 0.63 0.61 -0.5 0 0 306.44 263.82
  L 324.69 263.80
  A 0.60 0.50 0.0 0 1 325.29 264.30
  L 325.30 266.44
  A 0.61 0.50 -0.0 0 1 324.69 266.94
  L 306.62 267.00
  A 0.60 0.59 3.9 0 0 306.03 267.51
  Q 305.39 272.34 305.99 276.95
  A 0.59 0.57 -3.9 0 0 306.57 277.44
  Z"
/>
<path fill="#000000" d="
  M 334.54 269.57
  Q 334.41 273.76 334.49 277.95
  C 334.53 280.02 334.99 281.37 331.87 280.66
  A 1.15 1.13 -83.7 0 1 330.99 279.54
  L 331.06 251.55
  A 0.99 0.98 89.7 0 1 332.03 250.56
  Q 341.66 250.45 351.75 250.50
  C 355.89 250.52 357.99 253.48 358.01 257.49
  C 358.02 261.02 358.93 265.15 354.92 266.94
  Q 353.50 267.58 354.94 268.17
  C 359.45 269.99 358.29 276.08 358.20 279.94
  A 0.76 0.70 81.8 0 1 357.73 280.63
  Q 356.63 281.02 355.52 280.63
  A 0.75 0.68 -81.3 0 1 355.06 279.94
  C 355.00 276.46 356.20 269.20 350.75 269.00
  Q 347.65 268.89 335.07 269.06
  A 0.53 0.53 -88.9 0 0 334.54 269.57
  Z
  M 334.44 254.17
  L 334.44 264.99
  A 0.76 0.75 -89.6 0 0 335.18 265.75
  Q 342.87 265.79 349.93 265.71
  C 356.00 265.64 354.91 260.43 354.71 256.26
  Q 354.57 253.44 351.74 253.49
  L 334.85 253.75
  A 0.42 0.42 -0.7 0 0 334.44 254.17
  Z"
/>
<path fill="#000000" d="
  M 405.85 270.28
  A 1.00 1.00 -81.9 0 0 404.89 269.00
  Q 400.33 269.00 395.88 269.00
  C 393.83 269.00 392.57 268.61 393.55 266.20
  A 0.75 0.71 10.3 0 1 394.24 265.75
  L 408.22 265.75
  A 0.78 0.78 0.0 0 1 409.00 266.53
  C 409.00 270.09 409.77 275.66 407.81 278.32
  C 404.99 282.16 391.58 280.72 387.00 280.69
  C 378.72 280.62 379.53 275.35 379.49 268.49
  C 379.44 259.19 376.30 250.56 389.34 250.49
  C 395.85 250.46 408.59 247.81 409.16 257.27
  C 409.31 259.70 408.00 259.51 406.16 259.03
  A 0.63 0.62 -78.7 0 1 405.70 258.33
  C 406.12 255.49 405.11 254.06 402.17 253.92
  Q 394.72 253.58 387.25 253.75
  C 383.73 253.83 382.75 255.03 382.75 258.56
  C 382.75 263.40 382.95 268.38 382.67 273.21
  C 382.49 276.44 384.50 277.50 387.50 277.50
  Q 394.62 277.50 401.75 277.46
  C 407.43 277.44 404.91 273.46 405.85 270.28
  Z"
/>
<path fill="#000000" d="
  M 437.68 274.55
  L 419.81 274.56
  A 0.90 0.87 -74.3 0 0 419.05 275.00
  C 417.41 277.73 417.34 281.60 413.15 280.61
  A 0.42 0.42 -70.7 0 1 412.87 280.02
  L 426.35 251.27
  A 1.19 1.03 -82.4 0 1 427.04 250.66
  Q 428.62 250.21 430.20 250.65
  A 1.20 1.10 83.7 0 1 430.91 251.27
  L 444.47 279.94
  A 0.43 0.43 -19.3 0 1 444.18 280.54
  C 439.98 281.50 439.99 277.57 438.45 274.99
  A 0.90 0.89 74.7 0 0 437.68 274.55
  Z
  M 420.86 270.75
  A 0.34 0.34 -77.3 0 0 421.17 271.24
  L 436.25 271.26
  A 0.34 0.34 -12.3 0 0 436.56 270.78
  L 429.05 254.74
  A 0.34 0.34 0.0 0 0 428.43 254.74
  L 420.86 270.75
  Z"
/>
<path fill="#000000" d="
  M 483.41 256.17
  Q 483.47 253.83 482.35 255.89
  Q 476.27 267.06 470.20 277.87
  C 469.20 279.66 468.96 281.61 466.14 280.51
  A 1.50 1.23 81.7 0 1 465.44 279.87
  L 452.13 255.66
  Q 451.25 254.06 451.25 255.88
  Q 451.25 267.13 451.25 278.26
  C 451.25 280.44 451.56 281.26 448.55 280.60
  A 0.70 0.70 6.2 0 1 448.00 279.92
  L 448.00 251.75
  A 1.36 0.89 76.1 0 1 448.31 250.86
  Q 448.95 250.23 450.01 250.39
  Q 450.50 250.47 451.00 250.39
  Q 452.82 250.14 453.81 251.94
  Q 460.21 263.55 466.76 275.55
  Q 467.31 276.55 467.86 275.55
  Q 474.21 263.85 480.31 252.81
  Q 482.22 249.37 485.96 250.64
  A 0.71 0.70 -80.9 0 1 486.44 251.31
  L 486.44 279.94
  A 0.73 0.70 80.3 0 1 485.98 280.62
  Q 483.06 281.66 483.19 278.68
  C 483.52 270.99 483.20 263.43 483.41 256.17
  Z"
/>
<path fill="#000000" d="
  M 498.81 277.44
  L 517.17 277.50
  A 0.95 0.94 -5.5 0 1 518.10 278.26
  C 518.69 281.20 517.82 280.73 515.75 280.76
  Q 505.59 280.88 495.44 280.58
  A 0.53 0.52 1.1 0 1 494.93 280.06
  L 494.75 251.01
  A 0.52 0.51 0.0 0 1 495.27 250.50
  L 517.46 250.50
  A 0.65 0.64 83.9 0 1 518.09 251.01
  C 518.74 254.01 518.01 253.75 515.80 253.75
  Q 507.16 253.75 498.87 253.75
  A 0.87 0.87 0.0 0 0 498.00 254.62
  L 498.00 263.28
  A 0.55 0.54 -0.0 0 0 498.55 263.82
  L 516.43 263.80
  A 1.00 0.87 -13.9 0 1 517.24 264.21
  Q 518.00 265.36 517.28 266.60
  A 0.96 0.81 13.0 0 1 516.50 267.00
  L 499.29 267.00
  A 1.21 1.12 -0.5 0 0 498.08 268.14
  L 498.25 276.94
  A 0.56 0.51 -0.5 0 0 498.81 277.44
  Z"
/>
<path fill="#000000" d="
  M 529.25 267.50
  C 521.51 267.50 520.52 264.31 520.61 257.51
  Q 520.71 250.07 529.26 250.32
  C 535.48 250.51 549.00 247.80 547.99 258.44
  A 0.83 0.75 84.3 0 1 547.48 259.13
  Q 546.38 259.52 545.27 259.13
  A 0.67 0.60 -77.7 0 1 544.88 258.44
  Q 545.37 253.75 541.00 253.75
  Q 534.25 253.75 527.50 253.75
  C 523.84 253.75 523.84 256.96 523.84 259.83
  C 523.86 270.47 546.17 257.67 547.97 269.75
  C 549.02 276.82 547.18 280.75 539.56 280.75
  C 532.63 280.74 519.36 283.68 520.75 272.02
  A 0.72 0.72 87.2 0 1 521.31 271.40
  C 526.19 270.34 522.61 274.50 524.93 276.52
  C 526.81 278.15 535.23 277.58 537.87 277.53
  C 541.31 277.46 544.70 278.04 544.85 273.48
  C 544.97 269.81 544.67 267.50 540.46 267.50
  Q 534.85 267.50 529.25 267.50
  Z"
/>
<rect fill="#000000" x="-0.75" y="-6.63" transform="translate(563.25,275.61) rotate(0.1)" width="1.50" height="13.26" rx="0.72"/>
<path fill="#000000" d="
  M 568.44 270.77
  C 567.12 271.14 569.08 282.87 567.18 282.26
  A 0.86 0.59 -85.1 0 1 566.75 281.50
  L 566.67 269.67
  A 0.64 0.63 86.4 0 1 567.22 269.04
  Q 569.08 268.79 569.88 270.10
  Q 572.76 274.75 575.67 279.39
  A 0.79 0.60 63.4 0 0 576.43 279.76
  C 576.91 279.62 576.67 271.15 576.60 270.05
  A 0.93 0.82 72.4 0 1 576.95 269.25
  Q 578.18 268.40 578.13 270.50
  Q 578.00 275.62 578.00 281.38
  A 0.92 0.92 86.0 0 1 577.21 282.29
  C 575.02 282.61 570.18 273.24 569.17 271.26
  A 0.83 0.53 66.3 0 0 568.44 270.77
  Z"
/>
<path fill="#000000" d="
  M 582.71 282.06
  Q 580.43 281.70 580.41 279.20
  L 580.34 272.03
  Q 580.32 269.61 582.54 269.17
  C 584.81 268.71 590.39 268.15 590.73 271.75
  A 1.16 1.08 65.3 0 1 590.44 272.63
  Q 589.46 273.63 589.18 271.55
  A 1.21 1.16 85.8 0 0 588.01 270.50
  L 583.41 270.53
  A 1.73 1.67 89.8 0 0 581.75 272.26
  L 581.75 278.92
  A 1.83 1.83 -0.1 0 0 583.58 280.75
  L 587.84 280.75
  A 1.39 1.38 -87.8 0 0 589.22 279.47
  Q 589.46 276.19 590.75 278.50
  Q 592.40 281.45 588.56 282.06
  Q 585.62 282.53 582.71 282.06
  Z"
/>
<path fill="#000000" d="
  M 552.40 283.99
  Q 553.30 281.82 551.18 281.39
  A 0.75 0.59 6.1 0 1 550.60 280.82
  L 550.47 278.26
  A 0.76 0.68 -13.2 0 1 550.96 277.56
  Q 554.23 276.28 554.17 279.48
  C 554.11 282.61 554.79 286.35 550.19 286.10
  A 0.33 0.31 17.2 0 1 549.92 285.62
  Q 550.50 284.70 551.70 284.49
  A 0.97 0.78 3.0 0 0 552.40 283.99
  Z"
/>
</svg>
