<?xml version="1.0" encoding="UTF-8" standalone="no"?>
<!DOCTYPE svg PUBLIC "-//W3C//DTD SVG 1.1//EN" "http://www.w3.org/Graphics/SVG/1.1/DTD/svg11.dtd">
<svg xmlns="http://www.w3.org/2000/svg" version="1.1" viewBox="0 0 600 147">
<g stroke-width="2.00" fill="none" stroke-linecap="butt">
<path stroke="#808080" vector-effect="non-scaling-stroke" d="
  M 165.79 18.57
  A 14.96 14.96 0.0 0 0 150.83 3.61
  A 14.96 14.96 0.0 0 0 135.87 18.57
  A 14.96 14.96 0.0 0 0 150.83 33.53
  A 14.96 14.96 0.0 0 0 165.79 18.57"
/>
<path stroke="#f79998" vector-effect="non-scaling-stroke" d="
  M 162.14 18.52
  A 11.27 11.27 0.0 0 0 150.87 7.25
  A 11.27 11.27 0.0 0 0 139.60 18.52
  A 11.27 11.27 0.0 0 0 150.87 29.79
  A 11.27 11.27 0.0 0 0 162.14 18.52"
/>
<path stroke="#808080" vector-effect="non-scaling-stroke" d="
  M 47.30 106.06
  C 72.45 105.86 102.26 111.03 113.49 81.00
  C 116.66 72.52 116.07 62.30 108.22 57.17
  C 102.14 53.19 93.53 53.23 85.75 53.25
  Q 62.28 53.30 38.14 53.19
  A 0.72 0.71 10.1 0 0 37.45 53.66
  L 35.22 59.96
  A 0.69 0.67 -63.1 0 0 35.46 60.74
  Q 36.30 61.34 37.08 61.44
  A 0.95 0.95 13.7 0 1 37.85 62.70
  Q 26.97 93.64 16.10 124.26
  C 15.13 126.98 15.27 128.62 11.63 128.97
  A 1.11 1.01 6.3 0 0 10.70 129.65
  L 8.19 136.96
  A 0.39 0.36 8.6 0 0 8.57 137.44
  L 38.84 137.50
  A 0.80 0.78 -79.9 0 0 39.58 136.97
  L 41.83 130.72
  A 0.87 0.75 -59.2 0 0 41.68 129.87
  Q 40.98 129.16 40.09 129.18
  A 0.94 0.93 8.9 0 1 39.18 127.95
  L 46.65 106.53
  A 0.69 0.68 -80.5 0 1 47.30 106.06"
/>
<path stroke="#808080" vector-effect="non-scaling-stroke" d="
  M 130.63 129.70
  Q 129.22 129.54 128.15 128.80
  A 0.70 0.65 -63.9 0 1 127.91 128.02
  Q 138.18 97.89 148.55 67.79
  C 150.05 63.44 149.70 62.68 153.91 61.28
  A 0.79 0.72 -0.9 0 0 154.41 60.81
  L 156.96 53.86
  A 0.46 0.45 10.0 0 0 156.52 53.25
  L 126.31 53.31
  A 0.71 0.67 8.4 0 0 125.64 53.78
  L 123.57 60.02
  A 0.96 0.93 9.0 0 0 124.49 61.25
  C 126.69 61.25 126.33 62.31 125.83 63.75
  Q 115.42 93.78 105.08 123.83
  C 104.00 126.96 103.89 128.87 100.49 129.00
  A 0.81 0.68 7.2 0 0 99.79 129.45
  L 96.95 136.96
  A 0.38 0.35 9.5 0 0 97.32 137.44
  L 127.78 137.50
  A 0.81 0.76 -79.7 0 0 128.51 136.96
  L 130.93 130.20
  A 0.38 0.37 -76.9 0 0 130.63 129.70"
/>
<path stroke="#808080" vector-effect="non-scaling-stroke" d="
  M 228.97 128.47
  Q 239.10 97.16 249.73 66.02
  C 250.55 63.63 250.81 61.95 253.28 61.77
  A 2.48 2.28 -81.7 0 0 255.32 60.11
  L 257.44 53.90
  A 0.55 0.53 -80.4 0 0 256.95 53.18
  L 228.25 53.18
  A 0.77 0.75 8.8 0 0 227.52 53.70
  C 226.96 55.37 223.63 61.39 227.02 61.25
  A 1.09 1.09 -81.9 0 1 228.10 62.69
  L 215.82 99.29
  Q 215.49 100.26 214.96 99.39
  Q 203.51 81.01 192.50 63.50
  Q 191.25 61.51 193.45 61.64
  A 0.70 0.63 10.7 0 0 194.13 61.23
  L 196.90 53.83
  A 0.45 0.43 9.6 0 0 196.47 53.25
  L 164.42 53.25
  A 0.93 0.80 8.3 0 0 163.57 53.79
  L 161.35 60.27
  A 0.61 0.46 22.5 0 0 161.72 60.90
  L 163.76 61.81
  A 0.59 0.53 -68.2 0 1 164.02 62.53
  Q 153.06 94.49 142.18 126.48
  Q 141.32 128.98 138.69 128.82
  A 0.98 0.92 10.8 0 0 137.73 129.43
  L 135.03 136.91
  A 0.45 0.44 9.6 0 0 135.46 137.50
  L 164.38 137.50
  A 0.86 0.84 8.2 0 0 165.20 136.90
  C 165.82 134.87 166.41 132.68 167.30 130.74
  Q 167.96 129.32 165.52 129.46
  A 1.05 1.05 -82.1 0 1 164.47 128.07
  Q 170.66 110.05 176.48 92.79
  C 177.74 89.06 177.49 88.70 179.70 92.22
  Q 190.57 109.56 201.57 126.81
  C 202.14 127.70 203.43 128.86 201.25 129.20
  A 0.92 0.76 3.3 0 0 200.55 129.71
  L 197.85 136.98
  A 0.40 0.39 9.7 0 0 198.23 137.50
  L 228.72 137.50
  A 1.09 1.07 8.8 0 0 229.75 136.76
  L 231.79 130.29
  A 0.50 0.48 -73.5 0 0 231.47 129.66
  L 229.31 129.05
  A 0.48 0.45 16.5 0 1 228.97 128.47"
/>
<path stroke="#454545" vector-effect="non-scaling-stroke" d="
  M 503.54 136.25
  L 504.25 136.29"
/>
<path stroke="#808080" vector-effect="non-scaling-stroke" d="
  M 504.25 136.29
  Q 504.07 137.50 505.00 137.50
  Q 540.00 137.50 575.35 137.50
  A 1.08 1.08 -84.7 0 1 576.41 138.78
  C 575.84 141.82 577.32 140.96 579.22 141.03
  Q 581.46 141.11 583.68 140.97
  A 0.74 0.71 6.1 0 0 584.34 140.46
  L 592.16 114.83
  A 0.68 0.67 2.5 0 0 591.37 113.98
  C 588.70 114.50 583.76 112.89 582.97 115.92
  Q 582.49 117.75 580.60 117.75
  L 538.64 117.75
  A 0.50 0.50 8.2 0 1 538.16 117.11
  Q 545.84 91.67 553.78 65.96
  C 554.55 63.47 554.34 62.07 557.61 61.71
  A 1.62 1.53 4.5 0 0 558.96 60.62
  L 561.02 53.75
  A 0.39 0.39 8.2 0 0 560.64 53.25
  L 530.60 53.25
  A 0.72 0.71 9.0 0 0 529.92 53.74
  Q 528.81 57.08 527.91 59.93
  Q 527.42 61.51 529.73 61.18
  A 0.91 0.90 4.7 0 1 530.72 62.34
  L 510.92 126.69
  Q 510.43 128.30 508.78 128.64
  Q 506.98 129.01 506.21 130.00"
/>
<path stroke="#454545" vector-effect="non-scaling-stroke" d="
  M 506.21 130.00
  L 505.79 130.00"
/>
<path stroke="#808080" vector-effect="non-scaling-stroke" d="
  M 505.79 130.00
  L 510.22 115.11
  A 0.89 0.85 7.1 0 0 509.33 114.02
  L 503.12 114.20
  A 2.58 1.98 8.0 0 0 500.95 115.43
  Q 499.84 117.95 498.00 117.93
  Q 478.00 117.75 456.81 117.75
  A 0.69 0.69 -81.3 0 1 456.15 116.85
  Q 464.21 91.10 472.04 66.22
  C 472.90 63.47 473.00 61.81 476.01 61.75
  A 1.44 1.40 -81.1 0 0 477.32 60.77
  L 479.51 54.27
  A 0.78 0.77 -80.7 0 0 478.78 53.25
  L 449.19 53.19
  A 0.77 0.63 7.0 0 0 448.48 53.64
  L 446.37 60.10
  A 0.87 0.77 14.2 0 0 447.06 61.12
  C 449.79 61.65 449.19 62.11 448.62 63.93
  Q 438.88 94.99 428.72 126.87
  A 2.18 2.13 -6.0 0 1 427.68 128.12
  Q 423.67 130.25 420.40 128.04
  A 1.25 1.11 -80.3 0 1 419.91 127.25
  Q 414.03 96.25 408.77 65.15
  C 408.40 62.97 409.12 61.64 411.44 61.66
  A 0.92 0.81 13.6 0 0 412.20 61.26
  Q 414.24 57.73 414.76 53.69
  A 0.44 0.44 3.4 0 0 414.32 53.20
  L 381.30 53.07
  A 0.71 0.69 9.1 0 0 380.63 53.54
  L 378.44 59.67
  A 0.98 0.96 10.2 0 0 379.35 60.95
  Q 381.92 60.99 380.07 63.32
  Q 354.93 94.91 329.56 126.31
  Q 327.74 128.57 324.06 129.23
  A 0.93 0.75 0.8 0 0 323.37 129.77
  L 321.05 136.83
  A 0.39 0.37 8.6 0 0 321.43 137.32
  L 352.64 137.49
  A 1.37 1.29 -79.2 0 0 353.89 136.58
  L 356.07 130.47
  A 0.61 0.47 -70.8 0 0 355.83 129.73
  L 353.74 129.00
  A 0.58 0.54 28.0 0 1 353.44 128.14
  L 361.25 118.20
  A 1.02 1.01 19.3 0 1 362.07 117.81
  L 391.57 117.93
  A 0.61 0.60 84.1 0 1 392.16 118.42
  Q 392.95 122.19 393.62 125.98
  Q 394.06 128.41 390.58 128.92
  A 2.20 1.91 -83.0 0 0 388.97 130.37
  L 386.78 136.92
  A 0.44 0.42 -80.5 0 0 387.17 137.50
  L 493.36 137.50
  A 0.99 0.99 7.6 0 1 494.32 138.75
  Q 493.96 140.06 494.48 140.82
  A 1.08 0.60 -9.0 0 0 495.32 141.13
  L 501.40 141.10
  A 0.92 0.83 7.3 0 0 502.25 140.51
  L 503.54 136.25"
/>
<path stroke="#c4c5c4" vector-effect="non-scaling-stroke" d="
  M 505.79 130.00
  L 503.54 136.25"
/>
<path stroke="#c4c5c4" vector-effect="non-scaling-stroke" d="
  M 504.25 136.29
  L 506.21 130.00"
/>
<path stroke="#808080" vector-effect="non-scaling-stroke" d="
  M 263.97 61.54
  A 0.70 0.70 -79.6 0 1 264.60 62.46
  Q 253.92 94.47 243.50 126.25
  Q 242.62 128.94 239.50 129.22
  A 0.82 0.71 5.0 0 0 238.82 129.71
  L 236.36 136.70
  A 0.61 0.59 9.5 0 0 236.94 137.49
  Q 267.14 137.67 296.41 137.30
  C 314.96 137.07 330.14 127.62 334.30 108.71
  Q 335.93 101.27 330.70 94.33
  A 0.86 0.85 53.3 0 1 330.87 93.13
  C 347.78 80.81 350.22 53.20 322.50 53.22
  Q 293.62 53.25 264.70 53.25
  A 0.81 0.74 8.5 0 0 263.95 53.76
  L 261.86 60.27
  A 0.63 0.60 22.4 0 0 262.18 60.99
  Q 263.16 61.50 263.97 61.54"
/>
<path stroke="#f79998" vector-effect="non-scaling-stroke" d="
  M 17.00 133.96
  L 36.25 133.77
  A 1.26 1.07 18.2 0 0 37.13 133.41
  C 38.69 131.73 34.01 131.64 35.46 128.25"
/>
<path stroke="#f78d8b" vector-effect="non-scaling-stroke" d="
  M 35.46 128.25
  L 44.12 103.35
  A 1.36 1.34 10.2 0 1 45.44 102.45
  Q 62.49 102.98 78.09 101.85"
/>
<path stroke="#f79998" vector-effect="non-scaling-stroke" d="
  M 78.09 101.85
  Q 81.46 102.94 84.35 101.13"
/>
<path stroke="#f78d8b" vector-effect="non-scaling-stroke" d="
  M 84.35 101.13
  Q 94.41 100.29 102.06 92.56
  Q 109.02 85.54 111.02 76.79
  C 115.81 55.83 95.32 56.56 81.75 56.64
  Q 61.62 56.75 41.50 56.89
  Q 37.85 56.92 40.87 59.44
  Q 42.24 60.59 41.65 62.29
  Q 30.26 94.65 18.77 127.29
  C 17.88 129.83 16.33 131.08 14.03 132.12
  C 9.34 134.22 16.86 133.93 17.00 133.96"
/>
<path stroke="#ee2723" vector-effect="non-scaling-stroke" d="
  M 84.35 101.13
  Q 93.72 98.28 99.69 93.19
  Q 106.48 87.39 109.42 78.02
  C 110.27 75.31 110.03 72.55 109.99 69.70
  C 109.89 62.62 104.09 59.16 97.44 58.81
  C 78.43 57.82 62.67 58.29 45.18 58.25
  C 44.33 58.25 40.80 57.29 42.84 59.44
  A 2.47 2.46 -57.0 0 1 43.37 61.95
  Q 31.46 95.82 19.94 128.44
  Q 19.59 129.42 17.86 131.15
  A 1.02 0.85 65.7 0 0 17.63 131.99
  Q 17.81 133.08 17.00 133.96"
/>
<path stroke="#ee2723" vector-effect="non-scaling-stroke" d="
  M 78.09 101.85
  Q 61.35 100.12 44.56 101.31
  Q 43.23 101.41 42.50 103.50
  Q 38.35 115.42 34.22 127.35
  C 33.90 128.28 33.82 130.09 35.46 128.25"
/>
<path stroke="#f79998" vector-effect="non-scaling-stroke" d="
  M 105.12 133.79
  L 123.50 133.96"
/>
<path stroke="#f78d8b" vector-effect="non-scaling-stroke" d="
  M 123.50 133.96
  Q 125.81 134.48 126.19 132.75
  A 0.75 0.63 22.2 0 0 125.81 132.03
  Q 123.33 130.63 124.50 127.25
  Q 135.14 96.41 145.65 65.52
  C 146.76 62.25 146.96 60.70 149.79 59.41
  Q 151.16 58.79 151.90 58.00
  Q 153.07 56.75 151.36 56.75
  Q 140.12 56.75 129.00 56.75
  Q 127.17 56.75 127.83 58.25
  A 1.57 0.90 12.5 0 0 128.52 58.88
  C 129.95 59.57 130.49 60.56 129.93 62.17
  Q 119.31 92.98 108.75 123.81
  C 107.25 128.19 106.94 130.58 103.04 131.91
  A 1.55 1.17 -0.0 0 0 102.28 132.48
  Q 100.86 134.77 105.12 133.79"
/>
<path stroke="#ee2723" vector-effect="non-scaling-stroke" d="
  M 123.50 133.96
  Q 122.35 133.33 122.72 132.27
  A 1.26 1.05 -52.1 0 0 122.69 131.37
  Q 122.10 130.20 122.44 129.19
  Q 129.87 106.52 144.31 65.06
  Q 145.62 61.29 147.34 59.31
  A 0.93 0.60 -42.2 0 0 147.57 58.45
  Q 147.34 58.01 146.74 58.30
  A 1.78 1.01 -41.0 0 1 145.81 58.49
  Q 142.07 58.00 138.32 58.31
  C 135.79 58.51 133.53 58.11 131.05 58.06
  Q 129.61 58.04 130.66 59.01
  C 132.40 60.63 131.38 62.36 130.74 64.27
  Q 120.73 94.41 110.06 124.31
  Q 107.95 130.25 105.12 133.79"
/>
<path stroke="#f79998" vector-effect="non-scaling-stroke" d="
  M 167.79 60.25
  L 167.75 62.46"
/>
<path stroke="#f78d8b" vector-effect="non-scaling-stroke" d="
  M 167.75 62.46
  Q 156.51 95.17 145.44 127.94
  Q 144.58 130.48 142.01 131.49
  C 140.71 132.01 137.39 134.79 142.50 133.79"
/>
<path stroke="#f79998" vector-effect="non-scaling-stroke" d="
  M 142.50 133.79
  Q 151.50 134.37 160.50 133.71"
/>
<path stroke="#f78d8b" vector-effect="non-scaling-stroke" d="
  M 160.50 133.71
  Q 164.08 134.27 160.99 130.37
  A 2.17 2.15 -55.0 0 1 160.64 128.33
  L 176.50 81.54"
/>
<path stroke="#f79998" vector-effect="non-scaling-stroke" d="
  M 176.50 81.54
  Q 176.88 81.45 177.25 81.54"
/>
<path stroke="#f78d8b" vector-effect="non-scaling-stroke" d="
  M 177.25 81.54
  L 206.96 128.79"
/>
<path stroke="#f79998" vector-effect="non-scaling-stroke" d="
  M 206.96 128.79
  C 206.31 130.17 200.49 134.30 204.25 134.07
  C 211.26 133.65 218.59 134.00 225.63 134.00
  C 226.53 134.00 227.70 133.61 227.38 132.52
  A 1.27 0.76 14.1 0 0 226.73 131.87
  Q 224.56 130.80 225.25 128.29"
/>
<path stroke="#f78c88" vector-effect="non-scaling-stroke" d="
  M 225.25 128.29
  Q 236.05 95.93 246.81 63.56
  Q 247.68 60.96 249.50 59.63
  C 250.29 59.05 251.72 58.85 252.38 58.06
  Q 253.47 56.75 251.76 56.75
  Q 241.50 56.75 231.25 56.78
  Q 229.28 56.79 229.85 58.24
  A 1.34 0.86 9.8 0 0 230.53 58.86
  Q 232.66 59.79 231.88 62.17
  Q 224.57 84.56 217.04 106.89"
/>
<path stroke="#f79998" vector-effect="non-scaling-stroke" d="
  M 217.04 106.89
  Q 216.35 108.66 215.29 106.75"
/>
<path stroke="#f78c88" vector-effect="non-scaling-stroke" d="
  M 215.29 106.75
  Q 202.35 85.61 189.09 64.67
  C 185.59 59.14 191.88 59.83 191.98 57.31
  A 0.54 0.49 0.5 0 0 191.44 56.81
  Q 173.48 56.65 167.00 56.75
  Q 165.12 56.78 165.61 58.23
  A 1.43 0.86 13.7 0 0 166.28 58.89
  Q 167.20 59.36 167.79 60.25"
/>
<path stroke="#ee2621" vector-effect="non-scaling-stroke" d="
  M 215.29 106.75
  Q 215.08 107.02 214.80 107.13
  A 0.74 0.55 62.4 0 1 214.05 106.77
  L 188.67 66.37
  Q 187.68 64.80 187.23 62.94
  Q 186.64 60.52 188.02 59.40
  Q 189.39 58.28 187.62 58.33
  C 186.26 58.36 184.83 57.98 183.46 58.08
  Q 176.38 58.60 169.31 57.87
  A 0.93 0.81 19.0 0 0 168.49 58.20
  Q 167.85 59.08 167.79 60.25"
/>
<path stroke="#ee2723" vector-effect="non-scaling-stroke" d="
  M 206.96 128.79
  Q 208.02 128.11 206.44 125.56
  Q 192.67 103.50 178.76 81.51
  Q 178.03 80.35 177.25 81.54"
/>
<path stroke="#ee2723" vector-effect="non-scaling-stroke" d="
  M 176.50 81.54
  Q 175.88 81.42 175.36 81.66
  A 1.43 0.90 -84.4 0 0 174.77 82.42
  Q 167.18 104.45 159.81 126.56
  Q 158.57 130.27 160.50 133.71"
/>
<path stroke="#ee2723" vector-effect="non-scaling-stroke" d="
  M 142.50 133.79
  Q 145.90 130.86 148.00 124.75
  Q 158.49 94.26 168.84 63.72
  C 169.12 62.89 169.24 61.63 167.75 62.46"
/>
<path stroke="#ee2621" vector-effect="non-scaling-stroke" d="
  M 225.25 128.29
  Q 224.78 128.77 224.28 128.72
  A 0.50 0.40 -77.1 0 1 223.97 128.08
  Q 234.08 97.51 244.15 66.92
  Q 245.49 62.87 248.18 58.74
  Q 248.50 58.26 247.92 58.23
  C 243.12 57.98 238.31 58.11 233.39 57.96
  Q 231.44 57.89 232.42 59.13
  A 1.19 1.14 30.1 0 1 232.67 60.00
  Q 232.54 61.06 233.10 60.75
  Q 234.08 60.21 233.73 61.26
  Q 225.83 85.28 218.92 105.74
  C 218.57 106.77 218.67 107.38 217.04 106.89"
/>
<path stroke="#f79998" vector-effect="non-scaling-stroke" d="
  M 328.77 133.84
  Q 338.74 134.25 348.77 133.84
  C 349.63 133.80 351.64 134.42 351.31 132.55
  A 1.09 0.82 12.1 0 0 350.72 131.87
  Q 348.50 130.81 349.25 128.29"
/>
<path stroke="#f78c88" vector-effect="non-scaling-stroke" d="
  M 349.25 128.29
  Q 354.06 121.06 359.91 114.62
  A 1.17 1.10 20.1 0 1 360.75 114.26
  L 394.35 113.96"
/>
<path stroke="#f79998" vector-effect="non-scaling-stroke" d="
  M 394.35 113.96
  Q 396.20 119.43 396.82 125.00
  C 397.59 131.96 391.59 131.16 391.62 133.32
  A 0.58 0.51 1.2 0 0 392.18 133.83
  Q 405.73 134.30 419.28 133.77
  C 420.80 133.71 420.78 132.38 419.45 131.78
  Q 416.89 130.65 416.29 127.74
  Q 414.38 118.39 412.71 109.00"
/>
<path stroke="#f78c88" vector-effect="non-scaling-stroke" d="
  M 412.71 109.00
  Q 408.98 87.81 405.39 66.59
  C 404.07 58.75 410.12 59.66 410.22 57.31
  A 0.53 0.48 1.0 0 0 409.69 56.81
  L 384.00 56.75
  A 1.38 0.93 14.9 0 0 383.11 57.06
  Q 382.14 58.05 383.81 59.48
  A 2.50 2.48 -61.8 0 1 384.58 62.07
  Q 384.02 64.04 382.37 66.11
  Q 357.26 97.61 331.94 128.94
  C 331.19 129.86 320.67 134.77 328.77 133.84"
/>
<path stroke="#ee2621" vector-effect="non-scaling-stroke" d="
  M 412.71 109.00
  C 410.41 109.08 411.09 107.23 410.85 105.92
  Q 407.76 89.24 405.00 72.50
  C 404.26 68.00 402.70 61.80 405.80 59.11
  Q 407.28 57.82 405.29 57.85
  L 385.68 58.19
  A 0.36 0.36 80.3 0 0 385.35 58.66
  C 386.94 63.51 384.82 64.77 381.94 68.44
  C 369.11 84.75 356.00 100.85 343.17 117.16
  Q 336.37 125.82 328.77 133.84"
/>
<path stroke="#ee2621" vector-effect="non-scaling-stroke" d="
  M 394.35 113.96
  Q 377.19 112.75 360.91 113.23
  A 3.38 3.37 19.9 0 0 358.47 114.37
  Q 352.67 120.92 348.09 127.89
  A 0.88 0.62 -50.1 0 0 348.02 128.77
  Q 348.43 129.32 349.25 128.29"
/>
<path stroke="#f79998" vector-effect="non-scaling-stroke" d="
  M 452.54 60.00
  Q 453.10 61.81 452.29 63.50"
/>
<path stroke="#f78d8b" vector-effect="non-scaling-stroke" d="
  M 452.29 63.50
  Q 442.36 95.40 432.25 127.25
  C 431.23 130.47 430.34 130.39 427.98 131.93
  Q 424.19 134.39 429.75 133.79"
/>
<path stroke="#f79998" vector-effect="non-scaling-stroke" d="
  M 429.75 133.79
  L 493.75 134.00
  Q 497.47 134.01 497.44 136.06
  Q 497.40 138.59 499.04 137.48
  A 1.49 1.20 87.2 0 0 499.59 136.72
  L 505.35 118.48
  A 0.70 0.63 -66.2 0 0 505.09 117.69
  Q 504.08 117.09 503.29 118.30
  C 501.82 120.55 500.08 121.24 497.27 121.26
  Q 474.23 121.43 451.18 120.99"
/>
<path stroke="#f78c88" vector-effect="non-scaling-stroke" d="
  M 451.18 120.99
  Q 459.23 94.65 467.50 69.00
  C 468.62 65.53 469.12 61.34 471.76 59.75
  C 472.34 59.40 475.58 57.97 474.64 57.06
  A 1.38 0.93 -14.9 0 0 473.75 56.75
  Q 462.88 56.75 452.00 56.69
  Q 450.28 56.69 450.46 58.19
  A 0.96 0.75 10.6 0 0 451.04 58.85
  Q 451.93 59.23 452.54 60.00"
/>
<path stroke="#ee2621" vector-effect="non-scaling-stroke" d="
  M 451.18 120.99
  C 448.76 120.74 450.61 118.19 450.99 116.96
  Q 458.85 91.74 466.81 66.56
  Q 468.32 61.79 470.40 58.73
  A 0.30 0.29 -70.4 0 0 470.19 58.27
  Q 462.00 57.61 453.81 58.27
  A 0.49 0.45 85.0 0 0 453.41 58.79
  Q 453.48 59.66 452.54 60.00"
/>
<path stroke="#ee2723" vector-effect="non-scaling-stroke" d="
  M 429.75 133.79
  Q 432.75 130.66 434.05 126.52
  Q 443.87 95.37 453.58 64.20
  Q 454.21 62.15 452.29 63.50"
/>
<path stroke="#f79998" vector-effect="non-scaling-stroke" d="
  M 514.21 127.75
  C 513.37 129.98 508.65 132.67 508.72 133.45
  A 0.60 0.54 -2.6 0 0 509.31 133.94
  Q 543.16 134.05 577.00 134.00
  Q 579.44 134.00 579.72 136.51
  A 1.51 0.94 -81.1 0 0 580.09 137.38
  Q 581.16 138.39 581.75 136.55
  Q 584.61 127.64 587.29 118.67
  A 1.21 0.93 -57.3 0 0 587.21 117.74
  Q 586.56 116.74 585.69 117.94
  C 582.99 121.64 581.09 121.23 577.02 121.26
  Q 555.11 121.43 533.21 121.00"
/>
<path stroke="#f78d8b" vector-effect="non-scaling-stroke" d="
  M 533.21 121.00
  Q 542.06 91.88 551.08 62.82
  C 551.96 59.99 556.48 58.34 556.49 57.31
  A 0.56 0.50 0.0 0 0 555.93 56.81
  Q 544.97 56.70 534.00 56.75
  Q 532.06 56.76 532.11 58.07
  A 0.95 0.71 15.6 0 0 532.64 58.76
  C 535.32 60.09 534.50 61.86 533.80 64.14
  Q 524.02 95.95 514.21 127.75"
/>
<path stroke="#ee2723" vector-effect="non-scaling-stroke" d="
  M 533.21 121.00
  C 532.19 121.90 531.97 120.34 532.13 119.80
  Q 543.48 82.08 550.00 62.00
  Q 550.45 60.62 551.89 59.11
  Q 552.23 58.75 551.75 58.68
  C 546.29 57.85 541.43 58.02 535.94 58.17
  A 0.94 0.65 6.3 0 0 535.16 58.59
  Q 534.89 59.21 535.53 59.93
  A 2.22 2.21 -57.2 0 1 535.98 62.05
  Q 526.05 94.41 516.06 126.81
  Q 515.55 128.48 514.21 127.75"
/>
<path stroke="#f79998" vector-effect="non-scaling-stroke" d="
  M 243.84 133.94
  L 300.04 133.69"
/>
<path stroke="#f78c88" vector-effect="non-scaling-stroke" d="
  M 300.04 133.69
  C 314.85 132.56 327.95 123.30 330.91 108.18
  Q 332.65 99.32 325.25 94.71"
/>
<path stroke="#f79998" vector-effect="non-scaling-stroke" d="
  M 325.25 94.71
  Q 323.26 94.34 323.72 92.39"
/>
<path stroke="#f78d8b" vector-effect="non-scaling-stroke" d="
  M 323.72 92.39
  Q 335.26 88.52 338.75 76.75
  C 344.82 56.30 326.01 56.75 312.75 56.75
  Q 290.25 56.75 267.75 56.68
  Q 265.80 56.68 266.16 58.22
  A 1.13 0.80 11.0 0 0 266.78 58.87
  Q 269.10 59.90 268.24 62.50
  Q 257.41 95.26 246.50 128.00
  C 245.36 131.43 243.07 130.58 241.38 132.64
  Q 239.92 134.41 243.84 133.94"
/>
<path stroke="#ee2723" vector-effect="non-scaling-stroke" d="
  M 323.72 92.39
  Q 337.24 85.40 338.19 70.90
  C 338.92 59.72 329.62 58.52 320.75 58.41
  Q 295.87 58.09 270.33 58.25
  Q 268.07 58.27 269.62 59.91
  C 270.54 60.89 269.74 62.78 269.35 63.97
  Q 259.94 92.56 250.39 121.10
  Q 250.37 121.15 249.30 124.96
  Q 247.85 130.14 243.84 133.94"
/>
<path stroke="#ee2621" vector-effect="non-scaling-stroke" d="
  M 325.25 94.71
  C 323.93 94.71 324.56 95.60 325.06 95.97
  Q 331.52 100.63 329.50 108.50
  Q 324.49 127.99 304.69 131.59
  C 302.63 131.96 301.23 131.19 300.04 133.69"
/>
<path stroke="#f79998" vector-effect="non-scaling-stroke" d="
  M 369.21 102.50
  Q 368.77 102.89 368.81 103.29
  A 0.70 0.50 -1.7 0 0 369.49 103.75
  L 392.86 103.75
  A 0.56 0.55 -4.0 0 0 393.41 103.12
  Q 391.59 90.10 389.98 77.75
  Q 389.90 77.13 388.42 77.15"
/>
<path stroke="#ee2621" vector-effect="non-scaling-stroke" d="
  M 388.42 77.15
  Q 377.95 88.91 368.60 101.57
  Q 367.71 102.78 369.21 102.50"
/>
<path stroke="#f78c88" vector-effect="non-scaling-stroke" d="
  M 388.42 77.15
  Q 379.44 90.39 369.21 102.50"
/>
<path stroke="#f79998" vector-effect="non-scaling-stroke" d="
  M 49.00 89.04
  Q 48.94 89.34 49.03 89.57
  A 0.85 0.51 -5.3 0 0 49.78 89.93
  L 79.25 89.79"
/>
<path stroke="#ee2621" vector-effect="non-scaling-stroke" d="
  M 79.25 89.79
  Q 79.15 91.46 81.25 91.00
  Q 91.21 88.84 94.40 80.18
  C 98.08 70.21 89.56 67.70 81.75 67.91
  C 74.02 68.12 66.27 68.00 58.53 68.00
  C 55.48 68.00 54.29 69.61 53.50 72.25
  Q 52.40 75.93 47.92 88.04
  A 1.19 0.77 -57.8 0 0 47.93 88.96
  Q 48.28 89.51 49.00 89.04"
/>
<path stroke="#f78c88" vector-effect="non-scaling-stroke" d="
  M 79.25 89.79
  Q 90.97 88.79 93.57 77.46
  C 95.54 68.87 86.20 69.55 80.71 69.48
  Q 68.83 69.32 56.62 69.25
  A 0.86 0.84 -79.3 0 0 55.81 69.82
  L 49.00 89.04"
/>
<path stroke="#f79998" vector-effect="non-scaling-stroke" d="
  M 276.96 86.75
  Q 276.84 87.56 277.50 87.54"
/>
<path stroke="#ee2621" vector-effect="non-scaling-stroke" d="
  M 277.50 87.54
  C 277.57 89.61 278.99 89.01 280.37 88.99
  Q 291.67 88.85 302.96 88.94
  C 312.46 89.01 319.54 87.99 322.80 78.76
  C 326.75 67.60 315.47 68.09 308.70 67.97
  Q 296.02 67.74 284.06 67.98
  Q 281.83 68.03 281.12 70.14
  Q 278.55 77.79 276.14 85.31
  C 275.94 85.94 274.68 88.09 276.96 86.75"
/>
<path stroke="#f78c88" vector-effect="non-scaling-stroke" d="
  M 277.50 87.54
  Q 292.75 87.47 308.00 87.50
  Q 319.04 87.52 321.79 77.54
  C 324.29 68.50 314.77 69.53 309.39 69.49
  Q 296.35 69.38 283.30 69.32
  A 0.69 0.65 -79.7 0 0 282.66 69.79
  L 276.96 86.75"
/>
<path stroke="#f79998" vector-effect="non-scaling-stroke" d="
  M 302.38 100.17
  L 272.75 100.21"
/>
<path stroke="#ee2621" vector-effect="non-scaling-stroke" d="
  M 272.75 100.21
  Q 272.28 99.32 271.61 100.02
  Q 270.88 100.77 270.57 101.76
  Q 267.69 110.82 264.90 119.07
  C 264.58 120.01 264.87 120.79 266.00 120.04"
/>
<path stroke="#f79998" vector-effect="non-scaling-stroke" d="
  M 266.00 120.04
  Q 265.26 121.29 266.50 121.29"
/>
<path stroke="#f02b26" vector-effect="non-scaling-stroke" d="
  M 266.50 121.29
  Q 265.76 121.68 265.83 122.28
  A 0.72 0.57 -2.1 0 0 266.50 122.77
  C 278.39 123.13 297.46 124.75 306.44 120.44
  C 312.03 117.75 317.97 109.19 314.10 103.02
  C 312.00 99.66 308.93 99.31 305.06 98.81
  Q 302.89 98.52 302.38 100.17"
/>
<path stroke="#f8918e" vector-effect="non-scaling-stroke" d="
  M 266.50 121.29
  Q 281.12 121.22 295.75 121.22
  C 304.66 121.22 312.15 117.69 313.76 108.25
  C 314.92 101.43 307.55 99.92 302.38 100.17"
/>
<path stroke="#f78c88" vector-effect="non-scaling-stroke" d="
  M 272.75 100.21
  L 266.00 120.04"
/>
<path stroke="#808080" vector-effect="non-scaling-stroke" d="
  M 89.52 73.79
  C 80.54 71.76 68.79 73.09 59.57 72.83
  A 1.44 1.41 10.3 0 0 58.18 73.77
  L 53.97 85.72
  A 0.37 0.36 9.9 0 0 54.31 86.20
  Q 65.08 86.42 75.83 86.15
  C 84.16 85.94 90.21 83.96 90.25 74.71
  A 0.94 0.94 -83.4 0 0 89.52 73.79"
/>
<path stroke="#808080" vector-effect="non-scaling-stroke" d="
  M 285.39 73.18
  L 282.14 83.01
  A 0.58 0.55 9.2 0 0 282.69 83.74
  Q 295.89 83.91 308.26 83.60
  C 313.41 83.47 318.71 81.18 318.69 75.66
  Q 318.68 73.00 315.98 72.98
  L 285.93 72.82
  A 0.56 0.52 9.0 0 0 285.39 73.18"
/>
<path stroke="#808080" vector-effect="non-scaling-stroke" d="
  M 386.77 85.75
  L 375.96 99.69
  Q 375.53 100.25 376.23 100.24
  L 388.94 100.20
  A 0.46 0.45 -4.4 0 0 389.39 99.69
  L 387.61 85.95
  Q 387.47 84.85 386.77 85.75"
/>
<path stroke="#808080" vector-effect="non-scaling-stroke" d="
  M 274.94 104.17
  L 270.79 116.62
  A 0.86 0.85 -80.6 0 0 271.59 117.75
  Q 282.50 117.75 292.75 117.79
  C 301.23 117.82 308.80 116.95 310.35 107.37
  Q 310.70 105.24 308.65 104.55
  Q 306.06 103.67 302.50 103.69
  Q 289.00 103.75 275.52 103.75
  A 0.61 0.61 -80.7 0 0 274.94 104.17"
/>
</g>
<path fill="#000000" d="
  M 147.06 0.00
  L 154.81 0.00
  Q 167.00 3.74 169.13 14.65
  C 173.31 36.18 144.19 46.48 134.22 27.28
  C 128.23 15.75 134.61 3.57 147.06 0.00
  Z
  M 165.79 18.57
  A 14.96 14.96 0.0 0 0 150.83 3.61
  A 14.96 14.96 0.0 0 0 135.87 18.57
  A 14.96 14.96 0.0 0 0 150.83 33.53
  A 14.96 14.96 0.0 0 0 165.79 18.57
  Z"
/>
<path fill="#ffffff" d="
  M 165.79 18.57
  A 14.96 14.96 0.0 0 1 150.83 33.53
  A 14.96 14.96 0.0 0 1 135.87 18.57
  A 14.96 14.96 0.0 0 1 150.83 3.61
  A 14.96 14.96 0.0 0 1 165.79 18.57
  Z
  M 162.14 18.52
  A 11.27 11.27 0.0 0 0 150.87 7.25
  A 11.27 11.27 0.0 0 0 139.60 18.52
  A 11.27 11.27 0.0 0 0 150.87 29.79
  A 11.27 11.27 0.0 0 0 162.14 18.52
  Z"
/>
<circle fill="#ee3330" cx="150.87" cy="18.52" r="11.27"/>
<path fill="#000000" d="
  M 600.00 108.56
  L 600.00 109.56
  L 588.41 147.07
  L 570.69 147.00
  Q 569.98 146.16 570.43 144.24
  A 1.02 1.01 -83.6 0 0 569.45 143.00
  L 508.19 143.18
  A 0.84 0.62 -73.8 0 0 507.55 143.67
  L 505.94 147.00
  L 488.44 147.00
  L 488.03 143.55
  A 0.61 0.56 -3.2 0 0 487.43 143.06
  L 379.57 142.94
  A 0.39 0.37 8.2 0 1 379.19 142.46
  L 384.77 124.90
  A 1.45 0.60 -25.2 0 1 385.39 124.22
  Q 385.66 124.04 385.73 123.80
  A 0.52 0.37 5.0 0 0 385.18 123.33
  L 365.34 123.48
  A 1.75 1.72 -2.2 0 0 363.61 125.31
  C 363.69 126.52 362.75 128.27 362.45 129.23
  Q 360.39 135.88 358.11 142.46
  A 0.72 0.72 9.7 0 1 357.43 142.94
  Q 336.47 143.00 315.50 143.06
  C 314.56 143.06 311.91 144.02 313.50 141.50
  Q 314.44 140.01 313.00 140.50
  Q 305.82 142.93 298.25 142.93
  Q 244.91 142.95 190.38 143.07
  A 0.49 0.48 -80.7 0 1 189.93 142.43
  L 194.63 128.34
  A 2.23 2.13 39.0 0 0 194.39 126.49
  L 179.74 103.15
  Q 179.34 102.51 179.09 103.23
  L 171.95 124.14
  A 0.98 0.97 -81.8 0 0 172.91 125.43
  C 174.44 125.38 174.98 126.35 174.48 127.76
  Q 171.99 134.91 169.32 142.52
  A 0.72 0.72 9.7 0 1 168.64 143.00
  L 89.38 143.07
  A 0.53 0.53 -80.3 0 1 88.88 142.36
  L 94.90 125.04
  A 1.03 1.00 -89.8 0 1 95.54 124.39
  L 98.47 123.35
  A 1.11 1.01 -2.2 0 0 99.11 122.72
  L 106.37 102.15
  Q 106.77 101.02 105.82 101.77
  Q 95.13 110.21 82.75 111.25
  C 72.27 112.13 62.02 111.75 51.77 111.75
  A 1.06 1.06 -80.3 0 0 50.77 112.46
  L 46.69 124.20
  A 0.80 0.80 12.1 0 0 47.38 125.26
  Q 49.97 125.49 49.31 127.27
  Q 46.58 134.63 44.06 142.07
  A 1.38 1.36 -80.4 0 1 42.77 143.00
  L -0.01 142.97
  L 0.00 142.19
  Q 4.40 130.15 5.25 127.25
  Q 6.28 123.76 9.69 123.25
  A 0.85 0.77 3.5 0 0 10.35 122.72
  L 30.32 66.57
  A 1.18 1.18 10.1 0 0 29.22 65.00
  C 26.50 64.96 27.76 63.42 28.21 62.16
  Q 30.77 55.08 33.14 48.08
  A 0.86 0.86 -80.4 0 1 33.95 47.50
  Q 63.83 47.50 93.67 47.50
  C 102.74 47.50 111.77 50.62 117.25 57.92
  Q 117.78 58.63 118.07 57.79
  L 121.37 48.14
  A 0.97 0.95 9.3 0 1 122.28 47.50
  L 204.17 47.50
  A 0.80 0.79 -80.5 0 1 204.91 48.56
  L 199.90 63.28
  A 1.05 1.05 -51.6 0 0 200.00 64.17
  L 213.38 85.68
  Q 213.83 86.40 214.10 85.59
  L 220.57 66.79
  A 1.34 1.34 13.5 0 0 219.49 65.03
  Q 217.32 64.72 218.08 62.69
  Q 220.82 55.30 223.12 48.39
  A 1.31 1.29 -80.6 0 1 224.35 47.50
  Q 274.88 47.50 323.25 47.51
  C 352.72 47.51 356.20 76.88 338.85 94.40
  A 0.86 0.85 60.0 0 0 338.63 95.23
  Q 339.28 97.54 340.02 99.81
  C 340.38 100.92 339.61 104.88 341.93 101.91
  Q 355.71 84.33 369.63 66.86
  Q 371.02 65.11 371.58 62.83
  Q 373.28 55.95 376.24 48.24
  A 1.06 1.06 10.4 0 1 377.23 47.56
  L 422.50 47.50
  A 0.41 0.41 8.8 0 1 422.89 48.03
  L 417.35 65.22
  A 1.30 0.99 -9.4 0 1 416.73 65.88
  Q 414.93 66.74 415.29 68.74
  Q 419.90 94.47 424.25 120.26
  Q 424.45 121.45 424.82 120.30
  L 441.75 66.50
  A 1.43 1.13 4.4 0 0 440.19 65.06
  Q 438.42 65.19 438.92 63.68
  Q 441.35 56.32 443.92 48.21
  A 1.02 1.01 8.5 0 1 444.89 47.50
  L 486.97 47.50
  A 0.49 0.49 -81.3 0 1 487.44 48.14
  Q 484.68 56.93 482.41 65.00
  Q 481.80 67.17 479.75 66.80
  A 1.87 1.87 -75.9 0 0 477.63 68.07
  L 463.95 111.45
  A 0.57 0.57 9.1 0 0 464.49 112.19
  Q 479.41 112.30 494.50 112.06
  Q 497.05 112.02 497.68 109.75
  A 2.05 2.04 -82.1 0 1 499.65 108.25
  L 509.49 108.25
  A 1.30 1.28 8.5 0 0 510.73 107.35
  L 523.36 66.23
  A 0.58 0.53 21.0 0 0 523.03 65.57
  L 521.02 64.67
  A 0.61 0.59 -69.9 0 1 520.70 63.95
  L 525.36 48.39
  A 1.28 1.25 8.3 0 1 526.58 47.50
  L 568.11 47.50
  A 0.74 0.73 -81.9 0 1 568.81 48.44
  Q 566.18 57.37 563.64 64.96
  Q 562.99 66.90 560.99 66.82
  A 1.67 1.67 9.7 0 0 559.33 67.99
  L 545.96 111.45
  A 0.57 0.57 -81.3 0 0 546.50 112.19
  L 576.54 112.25
  Q 578.47 112.25 579.28 110.48
  C 580.60 107.59 581.68 108.29 584.27 108.23
  Q 592.15 108.04 600.00 108.56
  Z
  M 47.30 106.06
  C 72.45 105.86 102.26 111.03 113.49 81.00
  C 116.66 72.52 116.07 62.30 108.22 57.17
  C 102.14 53.19 93.53 53.23 85.75 53.25
  Q 62.28 53.30 38.14 53.19
  A 0.72 0.71 10.1 0 0 37.45 53.66
  L 35.22 59.96
  A 0.69 0.67 -63.1 0 0 35.46 60.74
  Q 36.30 61.34 37.08 61.44
  A 0.95 0.95 13.7 0 1 37.85 62.70
  Q 26.97 93.64 16.10 124.26
  C 15.13 126.98 15.27 128.62 11.63 128.97
  A 1.11 1.01 6.3 0 0 10.70 129.65
  L 8.19 136.96
  A 0.39 0.36 8.6 0 0 8.57 137.44
  L 38.84 137.50
  A 0.80 0.78 -79.9 0 0 39.58 136.97
  L 41.83 130.72
  A 0.87 0.75 -59.2 0 0 41.68 129.87
  Q 40.98 129.16 40.09 129.18
  A 0.94 0.93 8.9 0 1 39.18 127.95
  L 46.65 106.53
  A 0.69 0.68 -80.5 0 1 47.30 106.06
  Z
  M 130.63 129.70
  Q 129.22 129.54 128.15 128.80
  A 0.70 0.65 -63.9 0 1 127.91 128.02
  Q 138.18 97.89 148.55 67.79
  C 150.05 63.44 149.70 62.68 153.91 61.28
  A 0.79 0.72 -0.9 0 0 154.41 60.81
  L 156.96 53.86
  A 0.46 0.45 10.0 0 0 156.52 53.25
  L 126.31 53.31
  A 0.71 0.67 8.4 0 0 125.64 53.78
  L 123.57 60.02
  A 0.96 0.93 9.0 0 0 124.49 61.25
  C 126.69 61.25 126.33 62.31 125.83 63.75
  Q 115.42 93.78 105.08 123.83
  C 104.00 126.96 103.89 128.87 100.49 129.00
  A 0.81 0.68 7.2 0 0 99.79 129.45
  L 96.95 136.96
  A 0.38 0.35 9.5 0 0 97.32 137.44
  L 127.78 137.50
  A 0.81 0.76 -79.7 0 0 128.51 136.96
  L 130.93 130.20
  A 0.38 0.37 -76.9 0 0 130.63 129.70
  Z
  M 228.97 128.47
  Q 239.10 97.16 249.73 66.02
  C 250.55 63.63 250.81 61.95 253.28 61.77
  A 2.48 2.28 -81.7 0 0 255.32 60.11
  L 257.44 53.90
  A 0.55 0.53 -80.4 0 0 256.95 53.18
  L 228.25 53.18
  A 0.77 0.75 8.8 0 0 227.52 53.70
  C 226.96 55.37 223.63 61.39 227.02 61.25
  A 1.09 1.09 -81.9 0 1 228.10 62.69
  L 215.82 99.29
  Q 215.49 100.26 214.96 99.39
  Q 203.51 81.01 192.50 63.50
  Q 191.25 61.51 193.45 61.64
  A 0.70 0.63 10.7 0 0 194.13 61.23
  L 196.90 53.83
  A 0.45 0.43 9.6 0 0 196.47 53.25
  L 164.42 53.25
  A 0.93 0.80 8.3 0 0 163.57 53.79
  L 161.35 60.27
  A 0.61 0.46 22.5 0 0 161.72 60.90
  L 163.76 61.81
  A 0.59 0.53 -68.2 0 1 164.02 62.53
  Q 153.06 94.49 142.18 126.48
  Q 141.32 128.98 138.69 128.82
  A 0.98 0.92 10.8 0 0 137.73 129.43
  L 135.03 136.91
  A 0.45 0.44 9.6 0 0 135.46 137.50
  L 164.38 137.50
  A 0.86 0.84 8.2 0 0 165.20 136.90
  C 165.82 134.87 166.41 132.68 167.30 130.74
  Q 167.96 129.32 165.52 129.46
  A 1.05 1.05 -82.1 0 1 164.47 128.07
  Q 170.66 110.05 176.48 92.79
  C 177.74 89.06 177.49 88.70 179.70 92.22
  Q 190.57 109.56 201.57 126.81
  C 202.14 127.70 203.43 128.86 201.25 129.20
  A 0.92 0.76 3.3 0 0 200.55 129.71
  L 197.85 136.98
  A 0.40 0.39 9.7 0 0 198.23 137.50
  L 228.72 137.50
  A 1.09 1.07 8.8 0 0 229.75 136.76
  L 231.79 130.29
  A 0.50 0.48 -73.5 0 0 231.47 129.66
  L 229.31 129.05
  A 0.48 0.45 16.5 0 1 228.97 128.47
  Z
  M 503.54 136.25
  L 504.25 136.29
  Q 504.07 137.50 505.00 137.50
  Q 540.00 137.50 575.35 137.50
  A 1.08 1.08 -84.7 0 1 576.41 138.78
  C 575.84 141.82 577.32 140.96 579.22 141.03
  Q 581.46 141.11 583.68 140.97
  A 0.74 0.71 6.1 0 0 584.34 140.46
  L 592.16 114.83
  A 0.68 0.67 2.5 0 0 591.37 113.98
  C 588.70 114.50 583.76 112.89 582.97 115.92
  Q 582.49 117.75 580.60 117.75
  L 538.64 117.75
  A 0.50 0.50 8.2 0 1 538.16 117.11
  Q 545.84 91.67 553.78 65.96
  C 554.55 63.47 554.34 62.07 557.61 61.71
  A 1.62 1.53 4.5 0 0 558.96 60.62
  L 561.02 53.75
  A 0.39 0.39 8.2 0 0 560.64 53.25
  L 530.60 53.25
  A 0.72 0.71 9.0 0 0 529.92 53.74
  Q 528.81 57.08 527.91 59.93
  Q 527.42 61.51 529.73 61.18
  A 0.91 0.90 4.7 0 1 530.72 62.34
  L 510.92 126.69
  Q 510.43 128.30 508.78 128.64
  Q 506.98 129.01 506.21 130.00
  L 505.79 130.00
  L 510.22 115.11
  A 0.89 0.85 7.1 0 0 509.33 114.02
  L 503.12 114.20
  A 2.58 1.98 8.0 0 0 500.95 115.43
  Q 499.84 117.95 498.00 117.93
  Q 478.00 117.75 456.81 117.75
  A 0.69 0.69 -81.3 0 1 456.15 116.85
  Q 464.21 91.10 472.04 66.22
  C 472.90 63.47 473.00 61.81 476.01 61.75
  A 1.44 1.40 -81.1 0 0 477.32 60.77
  L 479.51 54.27
  A 0.78 0.77 -80.7 0 0 478.78 53.25
  L 449.19 53.19
  A 0.77 0.63 7.0 0 0 448.48 53.64
  L 446.37 60.10
  A 0.87 0.77 14.2 0 0 447.06 61.12
  C 449.79 61.65 449.19 62.11 448.62 63.93
  Q 438.88 94.99 428.72 126.87
  A 2.18 2.13 -6.0 0 1 427.68 128.12
  Q 423.67 130.25 420.40 128.04
  A 1.25 1.11 -80.3 0 1 419.91 127.25
  Q 414.03 96.25 408.77 65.15
  C 408.40 62.97 409.12 61.64 411.44 61.66
  A 0.92 0.81 13.6 0 0 412.20 61.26
  Q 414.24 57.73 414.76 53.69
  A 0.44 0.44 3.4 0 0 414.32 53.20
  L 381.30 53.07
  A 0.71 0.69 9.1 0 0 380.63 53.54
  L 378.44 59.67
  A 0.98 0.96 10.2 0 0 379.35 60.95
  Q 381.92 60.99 380.07 63.32
  Q 354.93 94.91 329.56 126.31
  Q 327.74 128.57 324.06 129.23
  A 0.93 0.75 0.8 0 0 323.37 129.77
  L 321.05 136.83
  A 0.39 0.37 8.6 0 0 321.43 137.32
  L 352.64 137.49
  A 1.37 1.29 -79.2 0 0 353.89 136.58
  L 356.07 130.47
  A 0.61 0.47 -70.8 0 0 355.83 129.73
  L 353.74 129.00
  A 0.58 0.54 28.0 0 1 353.44 128.14
  L 361.25 118.20
  A 1.02 1.01 19.3 0 1 362.07 117.81
  L 391.57 117.93
  A 0.61 0.60 84.1 0 1 392.16 118.42
  Q 392.95 122.19 393.62 125.98
  Q 394.06 128.41 390.58 128.92
  A 2.20 1.91 -83.0 0 0 388.97 130.37
  L 386.78 136.92
  A 0.44 0.42 -80.5 0 0 387.17 137.50
  L 493.36 137.50
  A 0.99 0.99 7.6 0 1 494.32 138.75
  Q 493.96 140.06 494.48 140.82
  A 1.08 0.60 -9.0 0 0 495.32 141.13
  L 501.40 141.10
  A 0.92 0.83 7.3 0 0 502.25 140.51
  L 503.54 136.25
  Z
  M 263.97 61.54
  A 0.70 0.70 -79.6 0 1 264.60 62.46
  Q 253.92 94.47 243.50 126.25
  Q 242.62 128.94 239.50 129.22
  A 0.82 0.71 5.0 0 0 238.82 129.71
  L 236.36 136.70
  A 0.61 0.59 9.5 0 0 236.94 137.49
  Q 267.14 137.67 296.41 137.30
  C 314.96 137.07 330.14 127.62 334.30 108.71
  Q 335.93 101.27 330.70 94.33
  A 0.86 0.85 53.3 0 1 330.87 93.13
  C 347.78 80.81 350.22 53.20 322.50 53.22
  Q 293.62 53.25 264.70 53.25
  A 0.81 0.74 8.5 0 0 263.95 53.76
  L 261.86 60.27
  A 0.63 0.60 22.4 0 0 262.18 60.99
  Q 263.16 61.50 263.97 61.54
  Z
  M 156.1070 67.8921
  A 0.64 0.64 0.0 0 0 155.7088 67.0793
  L 155.5575 67.0275
  A 0.64 0.64 0.0 0 0 154.7447 67.4256
  L 135.6530 123.1879
  A 0.64 0.64 0.0 0 0 136.0512 124.0007
  L 136.2025 124.0525
  A 0.64 0.64 0.0 0 0 137.0153 123.6544
  L 156.1070 67.8921
  Z
  M 256.8309 67.4197
  A 0.26 0.26 0.0 0 0 256.6656 67.0912
  L 255.7162 66.7772
  A 0.26 0.26 0.0 0 0 255.3877 66.9424
  L 236.7491 123.3003
  A 0.26 0.26 0.0 0 0 236.9144 123.6288
  L 237.8638 123.9428
  A 0.26 0.26 0.0 0 0 238.1923 123.7776
  L 256.8309 67.4197
  Z"
/>
<path fill="#ffffff" d="
  M 46.65 106.53
  L 39.18 127.95
  A 0.94 0.93 8.9 0 0 40.09 129.18
  Q 40.98 129.16 41.68 129.87
  A 0.87 0.75 -59.2 0 1 41.83 130.72
  L 39.58 136.97
  A 0.80 0.78 -79.9 0 1 38.84 137.50
  L 8.57 137.44
  A 0.39 0.36 8.6 0 1 8.19 136.96
  L 10.70 129.65
  A 1.11 1.01 6.3 0 1 11.63 128.97
  C 15.27 128.62 15.13 126.98 16.10 124.26
  Q 26.97 93.64 37.85 62.70
  A 0.95 0.95 13.7 0 0 37.08 61.44
  Q 36.30 61.34 35.46 60.74
  A 0.69 0.67 -63.1 0 1 35.22 59.96
  L 37.45 53.66
  A 0.72 0.71 10.1 0 1 38.14 53.19
  Q 62.28 53.30 85.75 53.25
  C 93.53 53.23 102.14 53.19 108.22 57.17
  C 116.07 62.30 116.66 72.52 113.49 81.00
  C 102.26 111.03 72.45 105.86 47.30 106.06
  A 0.69 0.68 -80.5 0 0 46.65 106.53
  Z
  M 17.00 133.96
  L 36.25 133.77
  A 1.26 1.07 18.2 0 0 37.13 133.41
  C 38.69 131.73 34.01 131.64 35.46 128.25
  L 44.12 103.35
  A 1.36 1.34 10.2 0 1 45.44 102.45
  Q 62.49 102.98 78.09 101.85
  Q 81.46 102.94 84.35 101.13
  Q 94.41 100.29 102.06 92.56
  Q 109.02 85.54 111.02 76.79
  C 115.81 55.83 95.32 56.56 81.75 56.64
  Q 61.62 56.75 41.50 56.89
  Q 37.85 56.92 40.87 59.44
  Q 42.24 60.59 41.65 62.29
  Q 30.26 94.65 18.77 127.29
  C 17.88 129.83 16.33 131.08 14.03 132.12
  C 9.34 134.22 16.86 133.93 17.00 133.96
  Z"
/>
<path fill="#ffffff" d="
  M 130.63 129.70
  A 0.38 0.37 -76.9 0 1 130.93 130.20
  L 128.51 136.96
  A 0.81 0.76 -79.7 0 1 127.78 137.50
  L 97.32 137.44
  A 0.38 0.35 9.5 0 1 96.95 136.96
  L 99.79 129.45
  A 0.81 0.68 7.2 0 1 100.49 129.00
  C 103.89 128.87 104.00 126.96 105.08 123.83
  Q 115.42 93.78 125.83 63.75
  C 126.33 62.31 126.69 61.25 124.49 61.25
  A 0.96 0.93 9.0 0 1 123.57 60.02
  L 125.64 53.78
  A 0.71 0.67 8.4 0 1 126.31 53.31
  L 156.52 53.25
  A 0.46 0.45 10.0 0 1 156.96 53.86
  L 154.41 60.81
  A 0.79 0.72 -0.9 0 1 153.91 61.28
  C 149.70 62.68 150.05 63.44 148.55 67.79
  Q 138.18 97.89 127.91 128.02
  A 0.70 0.65 -63.9 0 0 128.15 128.80
  Q 129.22 129.54 130.63 129.70
  Z
  M 105.12 133.79
  L 123.50 133.96
  Q 125.81 134.48 126.19 132.75
  A 0.75 0.63 22.2 0 0 125.81 132.03
  Q 123.33 130.63 124.50 127.25
  Q 135.14 96.41 145.65 65.52
  C 146.76 62.25 146.96 60.70 149.79 59.41
  Q 151.16 58.79 151.90 58.00
  Q 153.07 56.75 151.36 56.75
  Q 140.12 56.75 129.00 56.75
  Q 127.17 56.75 127.83 58.25
  A 1.57 0.90 12.5 0 0 128.52 58.88
  C 129.95 59.57 130.49 60.56 129.93 62.17
  Q 119.31 92.98 108.75 123.81
  C 107.25 128.19 106.94 130.58 103.04 131.91
  A 1.55 1.17 -0.0 0 0 102.28 132.48
  Q 100.86 134.77 105.12 133.79
  Z"
/>
<path fill="#ffffff" d="
  M 229.31 129.05
  L 231.47 129.66
  A 0.50 0.48 -73.5 0 1 231.79 130.29
  L 229.75 136.76
  A 1.09 1.07 8.8 0 1 228.72 137.50
  L 198.23 137.50
  A 0.40 0.39 9.7 0 1 197.85 136.98
  L 200.55 129.71
  A 0.92 0.76 3.3 0 1 201.25 129.20
  C 203.43 128.86 202.14 127.70 201.57 126.81
  Q 190.57 109.56 179.70 92.22
  C 177.49 88.70 177.74 89.06 176.48 92.79
  Q 170.66 110.05 164.47 128.07
  A 1.05 1.05 -82.1 0 0 165.52 129.46
  Q 167.96 129.32 167.30 130.74
  C 166.41 132.68 165.82 134.87 165.20 136.90
  A 0.86 0.84 8.2 0 1 164.38 137.50
  L 135.46 137.50
  A 0.45 0.44 9.6 0 1 135.03 136.91
  L 137.73 129.43
  A 0.98 0.92 10.8 0 1 138.69 128.82
  Q 141.32 128.98 142.18 126.48
  Q 153.06 94.49 164.02 62.53
  A 0.59 0.53 -68.2 0 0 163.76 61.81
  L 161.72 60.90
  A 0.61 0.46 22.5 0 1 161.35 60.27
  L 163.57 53.79
  A 0.93 0.80 8.3 0 1 164.42 53.25
  L 196.47 53.25
  A 0.45 0.43 9.6 0 1 196.90 53.83
  L 194.13 61.23
  A 0.70 0.63 10.7 0 1 193.45 61.64
  Q 191.25 61.51 192.50 63.50
  Q 203.51 81.01 214.96 99.39
  Q 215.49 100.26 215.82 99.29
  L 228.10 62.69
  A 1.09 1.09 -81.9 0 0 227.02 61.25
  C 223.63 61.39 226.96 55.37 227.52 53.70
  A 0.77 0.75 8.8 0 1 228.25 53.18
  L 256.95 53.18
  A 0.55 0.53 -80.4 0 1 257.44 53.90
  L 255.32 60.11
  A 2.48 2.28 -81.7 0 1 253.28 61.77
  C 250.81 61.95 250.55 63.63 249.73 66.02
  Q 239.10 97.16 228.97 128.47
  A 0.48 0.45 16.5 0 0 229.31 129.05
  Z
  M 167.79 60.25
  L 167.75 62.46
  Q 156.51 95.17 145.44 127.94
  Q 144.58 130.48 142.01 131.49
  C 140.71 132.01 137.39 134.79 142.50 133.79
  Q 151.50 134.37 160.50 133.71
  Q 164.08 134.27 160.99 130.37
  A 2.17 2.15 -55.0 0 1 160.64 128.33
  L 176.50 81.54
  Q 176.88 81.45 177.25 81.54
  L 206.96 128.79
  C 206.31 130.17 200.49 134.30 204.25 134.07
  C 211.26 133.65 218.59 134.00 225.63 134.00
  C 226.53 134.00 227.70 133.61 227.38 132.52
  A 1.27 0.76 14.1 0 0 226.73 131.87
  Q 224.56 130.80 225.25 128.29
  Q 236.05 95.93 246.81 63.56
  Q 247.68 60.96 249.50 59.63
  C 250.29 59.05 251.72 58.85 252.38 58.06
  Q 253.47 56.75 251.76 56.75
  Q 241.50 56.75 231.25 56.78
  Q 229.28 56.79 229.85 58.24
  A 1.34 0.86 9.8 0 0 230.53 58.86
  Q 232.66 59.79 231.88 62.17
  Q 224.57 84.56 217.04 106.89
  Q 216.35 108.66 215.29 106.75
  Q 202.35 85.61 189.09 64.67
  C 185.59 59.14 191.88 59.83 191.98 57.31
  A 0.54 0.49 0.5 0 0 191.44 56.81
  Q 173.48 56.65 167.00 56.75
  Q 165.12 56.78 165.61 58.23
  A 1.43 0.86 13.7 0 0 166.28 58.89
  Q 167.20 59.36 167.79 60.25
  Z"
/>
<path fill="#ffffff" d="
  M 505.79 130.00
  L 503.54 136.25
  L 502.25 140.51
  A 0.92 0.83 7.3 0 1 501.40 141.10
  L 495.32 141.13
  A 1.08 0.60 -9.0 0 1 494.48 140.82
  Q 493.96 140.06 494.32 138.75
  A 0.99 0.99 7.6 0 0 493.36 137.50
  L 387.17 137.50
  A 0.44 0.42 -80.5 0 1 386.78 136.92
  L 388.97 130.37
  A 2.20 1.91 -83.0 0 1 390.58 128.92
  Q 394.06 128.41 393.62 125.98
  Q 392.95 122.19 392.16 118.42
  A 0.61 0.60 84.1 0 0 391.57 117.93
  L 362.07 117.81
  A 1.02 1.01 19.3 0 0 361.25 118.20
  L 353.44 128.14
  A 0.58 0.54 28.0 0 0 353.74 129.00
  L 355.83 129.73
  A 0.61 0.47 -70.8 0 1 356.07 130.47
  L 353.89 136.58
  A 1.37 1.29 -79.2 0 1 352.64 137.49
  L 321.43 137.32
  A 0.39 0.37 8.6 0 1 321.05 136.83
  L 323.37 129.77
  A 0.93 0.75 0.8 0 1 324.06 129.23
  Q 327.74 128.57 329.56 126.31
  Q 354.93 94.91 380.07 63.32
  Q 381.92 60.99 379.35 60.95
  A 0.98 0.96 10.2 0 1 378.44 59.67
  L 380.63 53.54
  A 0.71 0.69 9.1 0 1 381.30 53.07
  L 414.32 53.20
  A 0.44 0.44 3.4 0 1 414.76 53.69
  Q 414.24 57.73 412.20 61.26
  A 0.92 0.81 13.6 0 1 411.44 61.66
  C 409.12 61.64 408.40 62.97 408.77 65.15
  Q 414.03 96.25 419.91 127.25
  A 1.25 1.11 -80.3 0 0 420.40 128.04
  Q 423.67 130.25 427.68 128.12
  A 2.18 2.13 -6.0 0 0 428.72 126.87
  Q 438.88 94.99 448.62 63.93
  C 449.19 62.11 449.79 61.65 447.06 61.12
  A 0.87 0.77 14.2 0 1 446.37 60.10
  L 448.48 53.64
  A 0.77 0.63 7.0 0 1 449.19 53.19
  L 478.78 53.25
  A 0.78 0.77 -80.7 0 1 479.51 54.27
  L 477.32 60.77
  A 1.44 1.40 -81.1 0 1 476.01 61.75
  C 473.00 61.81 472.90 63.47 472.04 66.22
  Q 464.21 91.10 456.15 116.85
  A 0.69 0.69 -81.3 0 0 456.81 117.75
  Q 478.00 117.75 498.00 117.93
  Q 499.84 117.95 500.95 115.43
  A 2.58 1.98 8.0 0 1 503.12 114.20
  L 509.33 114.02
  A 0.89 0.85 7.1 0 1 510.22 115.11
  L 505.79 130.00
  Z
  M 328.77 133.84
  Q 338.74 134.25 348.77 133.84
  C 349.63 133.80 351.64 134.42 351.31 132.55
  A 1.09 0.82 12.1 0 0 350.72 131.87
  Q 348.50 130.81 349.25 128.29
  Q 354.06 121.06 359.91 114.62
  A 1.17 1.10 20.1 0 1 360.75 114.26
  L 394.35 113.96
  Q 396.20 119.43 396.82 125.00
  C 397.59 131.96 391.59 131.16 391.62 133.32
  A 0.58 0.51 1.2 0 0 392.18 133.83
  Q 405.73 134.30 419.28 133.77
  C 420.80 133.71 420.78 132.38 419.45 131.78
  Q 416.89 130.65 416.29 127.74
  Q 414.38 118.39 412.71 109.00
  Q 408.98 87.81 405.39 66.59
  C 404.07 58.75 410.12 59.66 410.22 57.31
  A 0.53 0.48 1.0 0 0 409.69 56.81
  L 384.00 56.75
  A 1.38 0.93 14.9 0 0 383.11 57.06
  Q 382.14 58.05 383.81 59.48
  A 2.50 2.48 -61.8 0 1 384.58 62.07
  Q 384.02 64.04 382.37 66.11
  Q 357.26 97.61 331.94 128.94
  C 331.19 129.86 320.67 134.77 328.77 133.84
  Z
  M 452.54 60.00
  Q 453.10 61.81 452.29 63.50
  Q 442.36 95.40 432.25 127.25
  C 431.23 130.47 430.34 130.39 427.98 131.93
  Q 424.19 134.39 429.75 133.79
  L 493.75 134.00
  Q 497.47 134.01 497.44 136.06
  Q 497.40 138.59 499.04 137.48
  A 1.49 1.20 87.2 0 0 499.59 136.72
  L 505.35 118.48
  A 0.70 0.63 -66.2 0 0 505.09 117.69
  Q 504.08 117.09 503.29 118.30
  C 501.82 120.55 500.08 121.24 497.27 121.26
  Q 474.23 121.43 451.18 120.99
  Q 459.23 94.65 467.50 69.00
  C 468.62 65.53 469.12 61.34 471.76 59.75
  C 472.34 59.40 475.58 57.97 474.64 57.06
  A 1.38 0.93 -14.9 0 0 473.75 56.75
  Q 462.88 56.75 452.00 56.69
  Q 450.28 56.69 450.46 58.19
  A 0.96 0.75 10.6 0 0 451.04 58.85
  Q 451.93 59.23 452.54 60.00
  Z"
/>
<path fill="#ffffff" d="
  M 504.25 136.29
  L 506.21 130.00
  Q 506.98 129.01 508.78 128.64
  Q 510.43 128.30 510.92 126.69
  L 530.72 62.34
  A 0.91 0.90 4.7 0 0 529.73 61.18
  Q 527.42 61.51 527.91 59.93
  Q 528.81 57.08 529.92 53.74
  A 0.72 0.71 9.0 0 1 530.60 53.25
  L 560.64 53.25
  A 0.39 0.39 8.2 0 1 561.02 53.75
  L 558.96 60.62
  A 1.62 1.53 4.5 0 1 557.61 61.71
  C 554.34 62.07 554.55 63.47 553.78 65.96
  Q 545.84 91.67 538.16 117.11
  A 0.50 0.50 8.2 0 0 538.64 117.75
  L 580.60 117.75
  Q 582.49 117.75 582.97 115.92
  C 583.76 112.89 588.70 114.50 591.37 113.98
  A 0.68 0.67 2.5 0 1 592.16 114.83
  L 584.34 140.46
  A 0.74 0.71 6.1 0 1 583.68 140.97
  Q 581.46 141.11 579.22 141.03
  C 577.32 140.96 575.84 141.82 576.41 138.78
  A 1.08 1.08 -84.7 0 0 575.35 137.50
  Q 540.00 137.50 505.00 137.50
  Q 504.07 137.50 504.25 136.29
  Z
  M 514.21 127.75
  C 513.37 129.98 508.65 132.67 508.72 133.45
  A 0.60 0.54 -2.6 0 0 509.31 133.94
  Q 543.16 134.05 577.00 134.00
  Q 579.44 134.00 579.72 136.51
  A 1.51 0.94 -81.1 0 0 580.09 137.38
  Q 581.16 138.39 581.75 136.55
  Q 584.61 127.64 587.29 118.67
  A 1.21 0.93 -57.3 0 0 587.21 117.74
  Q 586.56 116.74 585.69 117.94
  C 582.99 121.64 581.09 121.23 577.02 121.26
  Q 555.11 121.43 533.21 121.00
  Q 542.06 91.88 551.08 62.82
  C 551.96 59.99 556.48 58.34 556.49 57.31
  A 0.56 0.50 0.0 0 0 555.93 56.81
  Q 544.97 56.70 534.00 56.75
  Q 532.06 56.76 532.11 58.07
  A 0.95 0.71 15.6 0 0 532.64 58.76
  C 535.32 60.09 534.50 61.86 533.80 64.14
  Q 524.02 95.95 514.21 127.75
  Z"
/>
<path fill="#ffffff" d="
  M 263.97 61.54
  Q 263.16 61.50 262.18 60.99
  A 0.63 0.60 22.4 0 1 261.86 60.27
  L 263.95 53.76
  A 0.81 0.74 8.5 0 1 264.70 53.25
  Q 293.62 53.25 322.50 53.22
  C 350.22 53.20 347.78 80.81 330.87 93.13
  A 0.86 0.85 53.3 0 0 330.70 94.33
  Q 335.93 101.27 334.30 108.71
  C 330.14 127.62 314.96 137.07 296.41 137.30
  Q 267.14 137.67 236.94 137.49
  A 0.61 0.59 9.5 0 1 236.36 136.70
  L 238.82 129.71
  A 0.82 0.71 5.0 0 1 239.50 129.22
  Q 242.62 128.94 243.50 126.25
  Q 253.92 94.47 264.60 62.46
  A 0.70 0.70 -79.6 0 0 263.97 61.54
  Z
  M 243.84 133.94
  L 300.04 133.69
  C 314.85 132.56 327.95 123.30 330.91 108.18
  Q 332.65 99.32 325.25 94.71
  Q 323.26 94.34 323.72 92.39
  Q 335.26 88.52 338.75 76.75
  C 344.82 56.30 326.01 56.75 312.75 56.75
  Q 290.25 56.75 267.75 56.68
  Q 265.80 56.68 266.16 58.22
  A 1.13 0.80 11.0 0 0 266.78 58.87
  Q 269.10 59.90 268.24 62.50
  Q 257.41 95.26 246.50 128.00
  C 245.36 131.43 243.07 130.58 241.38 132.64
  Q 239.92 134.41 243.84 133.94
  Z"
/>
<path fill="#ee1a16" d="
  M 84.35 101.13
  Q 93.72 98.28 99.69 93.19
  Q 106.48 87.39 109.42 78.02
  C 110.27 75.31 110.03 72.55 109.99 69.70
  C 109.89 62.62 104.09 59.16 97.44 58.81
  C 78.43 57.82 62.67 58.29 45.18 58.25
  C 44.33 58.25 40.80 57.29 42.84 59.44
  A 2.47 2.46 -57.0 0 1 43.37 61.95
  Q 31.46 95.82 19.94 128.44
  Q 19.59 129.42 17.86 131.15
  A 1.02 0.85 65.7 0 0 17.63 131.99
  Q 17.81 133.08 17.00 133.96
  C 16.86 133.93 9.34 134.22 14.03 132.12
  C 16.33 131.08 17.88 129.83 18.77 127.29
  Q 30.26 94.65 41.65 62.29
  Q 42.24 60.59 40.87 59.44
  Q 37.85 56.92 41.50 56.89
  Q 61.62 56.75 81.75 56.64
  C 95.32 56.56 115.81 55.83 111.02 76.79
  Q 109.02 85.54 102.06 92.56
  Q 94.41 100.29 84.35 101.13
  Z"
/>
<path fill="#ee1a16" d="
  M 123.50 133.96
  Q 122.35 133.33 122.72 132.27
  A 1.26 1.05 -52.1 0 0 122.69 131.37
  Q 122.10 130.20 122.44 129.19
  Q 129.87 106.52 144.31 65.06
  Q 145.62 61.29 147.34 59.31
  A 0.93 0.60 -42.2 0 0 147.57 58.45
  Q 147.34 58.01 146.74 58.30
  A 1.78 1.01 -41.0 0 1 145.81 58.49
  Q 142.07 58.00 138.32 58.31
  C 135.79 58.51 133.53 58.11 131.05 58.06
  Q 129.61 58.04 130.66 59.01
  C 132.40 60.63 131.38 62.36 130.74 64.27
  Q 120.73 94.41 110.06 124.31
  Q 107.95 130.25 105.12 133.79
  Q 100.86 134.77 102.28 132.48
  A 1.55 1.17 -0.0 0 1 103.04 131.91
  C 106.94 130.58 107.25 128.19 108.75 123.81
  Q 119.31 92.98 129.93 62.17
  C 130.49 60.56 129.95 59.57 128.52 58.88
  A 1.57 0.90 12.5 0 1 127.83 58.25
  Q 127.17 56.75 129.00 56.75
  Q 140.12 56.75 151.36 56.75
  Q 153.07 56.75 151.90 58.00
  Q 151.16 58.79 149.79 59.41
  C 146.96 60.70 146.76 62.25 145.65 65.52
  Q 135.14 96.41 124.50 127.25
  Q 123.33 130.63 125.81 132.03
  A 0.75 0.63 22.2 0 1 126.19 132.75
  Q 125.81 134.48 123.50 133.96
  Z"
/>
<path fill="#ee1811" d="
  M 215.29 106.75
  Q 215.08 107.02 214.80 107.13
  A 0.74 0.55 62.4 0 1 214.05 106.77
  L 188.67 66.37
  Q 187.68 64.80 187.23 62.94
  Q 186.64 60.52 188.02 59.40
  Q 189.39 58.28 187.62 58.33
  C 186.26 58.36 184.83 57.98 183.46 58.08
  Q 176.38 58.60 169.31 57.87
  A 0.93 0.81 19.0 0 0 168.49 58.20
  Q 167.85 59.08 167.79 60.25
  Q 167.20 59.36 166.28 58.89
  A 1.43 0.86 13.7 0 1 165.61 58.23
  Q 165.12 56.78 167.00 56.75
  Q 173.48 56.65 191.44 56.81
  A 0.54 0.49 0.5 0 1 191.98 57.31
  C 191.88 59.83 185.59 59.14 189.09 64.67
  Q 202.35 85.61 215.29 106.75
  Z"
/>
<path fill="#ee1811" d="
  M 225.25 128.29
  Q 224.78 128.77 224.28 128.72
  A 0.50 0.40 -77.1 0 1 223.97 128.08
  Q 234.08 97.51 244.15 66.92
  Q 245.49 62.87 248.18 58.74
  Q 248.50 58.26 247.92 58.23
  C 243.12 57.98 238.31 58.11 233.39 57.96
  Q 231.44 57.89 232.42 59.13
  A 1.19 1.14 30.1 0 1 232.67 60.00
  Q 232.54 61.06 233.10 60.75
  Q 234.08 60.21 233.73 61.26
  Q 225.83 85.28 218.92 105.74
  C 218.57 106.77 218.67 107.38 217.04 106.89
  Q 224.57 84.56 231.88 62.17
  Q 232.66 59.79 230.53 58.86
  A 1.34 0.86 9.8 0 1 229.85 58.24
  Q 229.28 56.79 231.25 56.78
  Q 241.50 56.75 251.76 56.75
  Q 253.47 56.75 252.38 58.06
  C 251.72 58.85 250.29 59.05 249.50 59.63
  Q 247.68 60.96 246.81 63.56
  Q 236.05 95.93 225.25 128.29
  Z"
/>
<path fill="#ee1a16" d="
  M 323.72 92.39
  Q 337.24 85.40 338.19 70.90
  C 338.92 59.72 329.62 58.52 320.75 58.41
  Q 295.87 58.09 270.33 58.25
  Q 268.07 58.27 269.62 59.91
  C 270.54 60.89 269.74 62.78 269.35 63.97
  Q 259.94 92.56 250.39 121.10
  Q 250.37 121.15 249.30 124.96
  Q 247.85 130.14 243.84 133.94
  Q 239.92 134.41 241.38 132.64
  C 243.07 130.58 245.36 131.43 246.50 128.00
  Q 257.41 95.26 268.24 62.50
  Q 269.10 59.90 266.78 58.87
  A 1.13 0.80 11.0 0 1 266.16 58.22
  Q 265.80 56.68 267.75 56.68
  Q 290.25 56.75 312.75 56.75
  C 326.01 56.75 344.82 56.30 338.75 76.75
  Q 335.26 88.52 323.72 92.39
  Z"
/>
<path fill="#ee1811" d="
  M 412.71 109.00
  C 410.41 109.08 411.09 107.23 410.85 105.92
  Q 407.76 89.24 405.00 72.50
  C 404.26 68.00 402.70 61.80 405.80 59.11
  Q 407.28 57.82 405.29 57.85
  L 385.68 58.19
  A 0.36 0.36 80.3 0 0 385.35 58.66
  C 386.94 63.51 384.82 64.77 381.94 68.44
  C 369.11 84.75 356.00 100.85 343.17 117.16
  Q 336.37 125.82 328.77 133.84
  C 320.67 134.77 331.19 129.86 331.94 128.94
  Q 357.26 97.61 382.37 66.11
  Q 384.02 64.04 384.58 62.07
  A 2.50 2.48 -61.8 0 0 383.81 59.48
  Q 382.14 58.05 383.11 57.06
  A 1.38 0.93 14.9 0 1 384.00 56.75
  L 409.69 56.81
  A 0.53 0.48 1.0 0 1 410.22 57.31
  C 410.12 59.66 404.07 58.75 405.39 66.59
  Q 408.98 87.81 412.71 109.00
  Z"
/>
<path fill="#ee1811" d="
  M 451.18 120.99
  C 448.76 120.74 450.61 118.19 450.99 116.96
  Q 458.85 91.74 466.81 66.56
  Q 468.32 61.79 470.40 58.73
  A 0.30 0.29 -70.4 0 0 470.19 58.27
  Q 462.00 57.61 453.81 58.27
  A 0.49 0.45 85.0 0 0 453.41 58.79
  Q 453.48 59.66 452.54 60.00
  Q 451.93 59.23 451.04 58.85
  A 0.96 0.75 10.6 0 1 450.46 58.19
  Q 450.28 56.69 452.00 56.69
  Q 462.88 56.75 473.75 56.75
  A 1.38 0.93 -14.9 0 1 474.64 57.06
  C 475.58 57.97 472.34 59.40 471.76 59.75
  C 469.12 61.34 468.62 65.53 467.50 69.00
  Q 459.23 94.65 451.18 120.99
  Z"
/>
<path fill="#ee1a16" d="
  M 533.21 121.00
  C 532.19 121.90 531.97 120.34 532.13 119.80
  Q 543.48 82.08 550.00 62.00
  Q 550.45 60.62 551.89 59.11
  Q 552.23 58.75 551.75 58.68
  C 546.29 57.85 541.43 58.02 535.94 58.17
  A 0.94 0.65 6.3 0 0 535.16 58.59
  Q 534.89 59.21 535.53 59.93
  A 2.22 2.21 -57.2 0 1 535.98 62.05
  Q 526.05 94.41 516.06 126.81
  Q 515.55 128.48 514.21 127.75
  Q 524.02 95.95 533.80 64.14
  C 534.50 61.86 535.32 60.09 532.64 58.76
  A 0.95 0.71 15.6 0 1 532.11 58.07
  Q 532.06 56.76 534.00 56.75
  Q 544.97 56.70 555.93 56.81
  A 0.56 0.50 0.0 0 1 556.49 57.31
  C 556.48 58.34 551.96 59.99 551.08 62.82
  Q 542.06 91.88 533.21 121.00
  Z"
/>
<path fill="#ee3330" d="
  M 215.29 106.75
  Q 216.35 108.66 217.04 106.89
  C 218.67 107.38 218.57 106.77 218.92 105.74
  Q 225.83 85.28 233.73 61.26
  Q 234.08 60.21 233.10 60.75
  Q 232.54 61.06 232.67 60.00
  A 1.19 1.14 30.1 0 0 232.42 59.13
  Q 231.44 57.89 233.39 57.96
  C 238.31 58.11 243.12 57.98 247.92 58.23
  Q 248.50 58.26 248.18 58.74
  Q 245.49 62.87 244.15 66.92
  Q 234.08 97.51 223.97 128.08
  A 0.50 0.40 -77.1 0 0 224.28 128.72
  Q 224.78 128.77 225.25 128.29
  Q 224.56 130.80 226.73 131.87
  A 1.27 0.76 14.1 0 1 227.38 132.52
  C 227.70 133.61 226.53 134.00 225.63 134.00
  C 218.59 134.00 211.26 133.65 204.25 134.07
  C 200.49 134.30 206.31 130.17 206.96 128.79
  Q 208.02 128.11 206.44 125.56
  Q 192.67 103.50 178.76 81.51
  Q 178.03 80.35 177.25 81.54
  Q 176.88 81.45 176.50 81.54
  Q 175.88 81.42 175.36 81.66
  A 1.43 0.90 -84.4 0 0 174.77 82.42
  Q 167.18 104.45 159.81 126.56
  Q 158.57 130.27 160.50 133.71
  Q 151.50 134.37 142.50 133.79
  Q 145.90 130.86 148.00 124.75
  Q 158.49 94.26 168.84 63.72
  C 169.12 62.89 169.24 61.63 167.75 62.46
  L 167.79 60.25
  Q 167.85 59.08 168.49 58.20
  A 0.93 0.81 19.0 0 1 169.31 57.87
  Q 176.38 58.60 183.46 58.08
  C 184.83 57.98 186.26 58.36 187.62 58.33
  Q 189.39 58.28 188.02 59.40
  Q 186.64 60.52 187.23 62.94
  Q 187.68 64.80 188.67 66.37
  L 214.05 106.77
  A 0.74 0.55 62.4 0 0 214.80 107.13
  Q 215.08 107.02 215.29 106.75
  Z"
/>
<path fill="#ee3330" d="
  M 412.71 109.00
  Q 414.38 118.39 416.29 127.74
  Q 416.89 130.65 419.45 131.78
  C 420.78 132.38 420.80 133.71 419.28 133.77
  Q 405.73 134.30 392.18 133.83
  A 0.58 0.51 1.2 0 1 391.62 133.32
  C 391.59 131.16 397.59 131.96 396.82 125.00
  Q 396.20 119.43 394.35 113.96
  Q 377.19 112.75 360.91 113.23
  A 3.38 3.37 19.9 0 0 358.47 114.37
  Q 352.67 120.92 348.09 127.89
  A 0.88 0.62 -50.1 0 0 348.02 128.77
  Q 348.43 129.32 349.25 128.29
  Q 348.50 130.81 350.72 131.87
  A 1.09 0.82 12.1 0 1 351.31 132.55
  C 351.64 134.42 349.63 133.80 348.77 133.84
  Q 338.74 134.25 328.77 133.84
  Q 336.37 125.82 343.17 117.16
  C 356.00 100.85 369.11 84.75 381.94 68.44
  C 384.82 64.77 386.94 63.51 385.35 58.66
  A 0.36 0.36 80.3 0 1 385.68 58.19
  L 405.29 57.85
  Q 407.28 57.82 405.80 59.11
  C 402.70 61.80 404.26 68.00 405.00 72.50
  Q 407.76 89.24 410.85 105.92
  C 411.09 107.23 410.41 109.08 412.71 109.00
  Z
  M 369.21 102.50
  Q 368.77 102.89 368.81 103.29
  A 0.70 0.50 -1.7 0 0 369.49 103.75
  L 392.86 103.75
  A 0.56 0.55 -4.0 0 0 393.41 103.12
  Q 391.59 90.10 389.98 77.75
  Q 389.90 77.13 388.42 77.15
  Q 377.95 88.91 368.60 101.57
  Q 367.71 102.78 369.21 102.50
  Z"
/>
<path fill="#ee3330" d="
  M 84.35 101.13
  Q 81.46 102.94 78.09 101.85
  Q 61.35 100.12 44.56 101.31
  Q 43.23 101.41 42.50 103.50
  Q 38.35 115.42 34.22 127.35
  C 33.90 128.28 33.82 130.09 35.46 128.25
  C 34.01 131.64 38.69 131.73 37.13 133.41
  A 1.26 1.07 18.2 0 1 36.25 133.77
  L 17.00 133.96
  Q 17.81 133.08 17.63 131.99
  A 1.02 0.85 65.7 0 1 17.86 131.15
  Q 19.59 129.42 19.94 128.44
  Q 31.46 95.82 43.37 61.95
  A 2.47 2.46 -57.0 0 0 42.84 59.44
  C 40.80 57.29 44.33 58.25 45.18 58.25
  C 62.67 58.29 78.43 57.82 97.44 58.81
  C 104.09 59.16 109.89 62.62 109.99 69.70
  C 110.03 72.55 110.27 75.31 109.42 78.02
  Q 106.48 87.39 99.69 93.19
  Q 93.72 98.28 84.35 101.13
  Z
  M 49.00 89.04
  Q 48.94 89.34 49.03 89.57
  A 0.85 0.51 -5.3 0 0 49.78 89.93
  L 79.25 89.79
  Q 79.15 91.46 81.25 91.00
  Q 91.21 88.84 94.40 80.18
  C 98.08 70.21 89.56 67.70 81.75 67.91
  C 74.02 68.12 66.27 68.00 58.53 68.00
  C 55.48 68.00 54.29 69.61 53.50 72.25
  Q 52.40 75.93 47.92 88.04
  A 1.19 0.77 -57.8 0 0 47.93 88.96
  Q 48.28 89.51 49.00 89.04
  Z"
/>
<path fill="#ee3330" d="
  M 123.50 133.96
  L 105.12 133.79
  Q 107.95 130.25 110.06 124.31
  Q 120.73 94.41 130.74 64.27
  C 131.38 62.36 132.40 60.63 130.66 59.01
  Q 129.61 58.04 131.05 58.06
  C 133.53 58.11 135.79 58.51 138.32 58.31
  Q 142.07 58.00 145.81 58.49
  A 1.78 1.01 -41.0 0 0 146.74 58.30
  Q 147.34 58.01 147.57 58.45
  A 0.93 0.60 -42.2 0 1 147.34 59.31
  Q 145.62 61.29 144.31 65.06
  Q 129.87 106.52 122.44 129.19
  Q 122.10 130.20 122.69 131.37
  A 1.26 1.05 -52.1 0 1 122.72 132.27
  Q 122.35 133.33 123.50 133.96
  Z"
/>
<path fill="#ee3330" d="
  M 323.72 92.39
  Q 323.26 94.34 325.25 94.71
  C 323.93 94.71 324.56 95.60 325.06 95.97
  Q 331.52 100.63 329.50 108.50
  Q 324.49 127.99 304.69 131.59
  C 302.63 131.96 301.23 131.19 300.04 133.69
  L 243.84 133.94
  Q 247.85 130.14 249.30 124.96
  Q 250.37 121.15 250.39 121.10
  Q 259.94 92.56 269.35 63.97
  C 269.74 62.78 270.54 60.89 269.62 59.91
  Q 268.07 58.27 270.33 58.25
  Q 295.87 58.09 320.75 58.41
  C 329.62 58.52 338.92 59.72 338.19 70.90
  Q 337.24 85.40 323.72 92.39
  Z
  M 276.96 86.75
  Q 276.84 87.56 277.50 87.54
  C 277.57 89.61 278.99 89.01 280.37 88.99
  Q 291.67 88.85 302.96 88.94
  C 312.46 89.01 319.54 87.99 322.80 78.76
  C 326.75 67.60 315.47 68.09 308.70 67.97
  Q 296.02 67.74 284.06 67.98
  Q 281.83 68.03 281.12 70.14
  Q 278.55 77.79 276.14 85.31
  C 275.94 85.94 274.68 88.09 276.96 86.75
  Z
  M 302.38 100.17
  L 272.75 100.21
  Q 272.28 99.32 271.61 100.02
  Q 270.88 100.77 270.57 101.76
  Q 267.69 110.82 264.90 119.07
  C 264.58 120.01 264.87 120.79 266.00 120.04
  Q 265.26 121.29 266.50 121.29
  Q 265.76 121.68 265.83 122.28
  A 0.72 0.57 -2.1 0 0 266.50 122.77
  C 278.39 123.13 297.46 124.75 306.44 120.44
  C 312.03 117.75 317.97 109.19 314.10 103.02
  C 312.00 99.66 308.93 99.31 305.06 98.81
  Q 302.89 98.52 302.38 100.17
  Z"
/>
<path fill="#ee3330" d="
  M 451.18 120.99
  Q 474.23 121.43 497.27 121.26
  C 500.08 121.24 501.82 120.55 503.29 118.30
  Q 504.08 117.09 505.09 117.69
  A 0.70 0.63 -66.2 0 1 505.35 118.48
  L 499.59 136.72
  A 1.49 1.20 87.2 0 1 499.04 137.48
  Q 497.40 138.59 497.44 136.06
  Q 497.47 134.01 493.75 134.00
  L 429.75 133.79
  Q 432.75 130.66 434.05 126.52
  Q 443.87 95.37 453.58 64.20
  Q 454.21 62.15 452.29 63.50
  Q 453.10 61.81 452.54 60.00
  Q 453.48 59.66 453.41 58.79
  A 0.49 0.45 85.0 0 1 453.81 58.27
  Q 462.00 57.61 470.19 58.27
  A 0.30 0.29 -70.4 0 1 470.40 58.73
  Q 468.32 61.79 466.81 66.56
  Q 458.85 91.74 450.99 116.96
  C 450.61 118.19 448.76 120.74 451.18 120.99
  Z"
/>
<path fill="#ee3330" d="
  M 533.21 121.00
  Q 555.11 121.43 577.02 121.26
  C 581.09 121.23 582.99 121.64 585.69 117.94
  Q 586.56 116.74 587.21 117.74
  A 1.21 0.93 -57.3 0 1 587.29 118.67
  Q 584.61 127.64 581.75 136.55
  Q 581.16 138.39 580.09 137.38
  A 1.51 0.94 -81.1 0 1 579.72 136.51
  Q 579.44 134.00 577.00 134.00
  Q 543.16 134.05 509.31 133.94
  A 0.60 0.54 -2.6 0 1 508.72 133.45
  C 508.65 132.67 513.37 129.98 514.21 127.75
  Q 515.55 128.48 516.06 126.81
  Q 526.05 94.41 535.98 62.05
  A 2.22 2.21 -57.2 0 0 535.53 59.93
  Q 534.89 59.21 535.16 58.59
  A 0.94 0.65 6.3 0 1 535.94 58.17
  C 541.43 58.02 546.29 57.85 551.75 58.68
  Q 552.23 58.75 551.89 59.11
  Q 550.45 60.62 550.00 62.00
  Q 543.48 82.08 532.13 119.80
  C 531.97 120.34 532.19 121.90 533.21 121.00
  Z"
/>
<path fill="#ee1a16" d="
  M 142.50 133.79
  C 137.39 134.79 140.71 132.01 142.01 131.49
  Q 144.58 130.48 145.44 127.94
  Q 156.51 95.17 167.75 62.46
  C 169.24 61.63 169.12 62.89 168.84 63.72
  Q 158.49 94.26 148.00 124.75
  Q 145.90 130.86 142.50 133.79
  Z"
/>
<path fill="#ee1a16" d="
  M 429.75 133.79
  Q 424.19 134.39 427.98 131.93
  C 430.34 130.39 431.23 130.47 432.25 127.25
  Q 442.36 95.40 452.29 63.50
  Q 454.21 62.15 453.58 64.20
  Q 443.87 95.37 434.05 126.52
  Q 432.75 130.66 429.75 133.79
  Z"
/>
<path fill="#ee1811" d="
  M 277.50 87.54
  Q 292.75 87.47 308.00 87.50
  Q 319.04 87.52 321.79 77.54
  C 324.29 68.50 314.77 69.53 309.39 69.49
  Q 296.35 69.38 283.30 69.32
  A 0.69 0.65 -79.7 0 0 282.66 69.79
  L 276.96 86.75
  C 274.68 88.09 275.94 85.94 276.14 85.31
  Q 278.55 77.79 281.12 70.14
  Q 281.83 68.03 284.06 67.98
  Q 296.02 67.74 308.70 67.97
  C 315.47 68.09 326.75 67.60 322.80 78.76
  C 319.54 87.99 312.46 89.01 302.96 88.94
  Q 291.67 88.85 280.37 88.99
  C 278.99 89.01 277.57 89.61 277.50 87.54
  Z"
/>
<path fill="#ee1811" d="
  M 79.25 89.79
  Q 90.97 88.79 93.57 77.46
  C 95.54 68.87 86.20 69.55 80.71 69.48
  Q 68.83 69.32 56.62 69.25
  A 0.86 0.84 -79.3 0 0 55.81 69.82
  L 49.00 89.04
  Q 48.28 89.51 47.93 88.96
  A 1.19 0.77 -57.8 0 1 47.92 88.04
  Q 52.40 75.93 53.50 72.25
  C 54.29 69.61 55.48 68.00 58.53 68.00
  C 66.27 68.00 74.02 68.12 81.75 67.91
  C 89.56 67.70 98.08 70.21 94.40 80.18
  Q 91.21 88.84 81.25 91.00
  Q 79.15 91.46 79.25 89.79
  Z"
/>
<path fill="#ffffff" d="
  M 79.25 89.79
  L 49.78 89.93
  A 0.85 0.51 -5.3 0 1 49.03 89.57
  Q 48.94 89.34 49.00 89.04
  L 55.81 69.82
  A 0.86 0.84 -79.3 0 1 56.62 69.25
  Q 68.83 69.32 80.71 69.48
  C 86.20 69.55 95.54 68.87 93.57 77.46
  Q 90.97 88.79 79.25 89.79
  Z
  M 89.52 73.79
  C 80.54 71.76 68.79 73.09 59.57 72.83
  A 1.44 1.41 10.3 0 0 58.18 73.77
  L 53.97 85.72
  A 0.37 0.36 9.9 0 0 54.31 86.20
  Q 65.08 86.42 75.83 86.15
  C 84.16 85.94 90.21 83.96 90.25 74.71
  A 0.94 0.94 -83.4 0 0 89.52 73.79
  Z"
/>
<path fill="#ffffff" d="
  M 277.50 87.54
  Q 276.84 87.56 276.96 86.75
  L 282.66 69.79
  A 0.69 0.65 -79.7 0 1 283.30 69.32
  Q 296.35 69.38 309.39 69.49
  C 314.77 69.53 324.29 68.50 321.79 77.54
  Q 319.04 87.52 308.00 87.50
  Q 292.75 87.47 277.50 87.54
  Z
  M 285.39 73.18
  L 282.14 83.01
  A 0.58 0.55 9.2 0 0 282.69 83.74
  Q 295.89 83.91 308.26 83.60
  C 313.41 83.47 318.71 81.18 318.69 75.66
  Q 318.68 73.00 315.98 72.98
  L 285.93 72.82
  A 0.56 0.52 9.0 0 0 285.39 73.18
  Z"
/>
<path fill="#000000" d="
  M 89.52 73.79
  A 0.94 0.94 -83.4 0 1 90.25 74.71
  C 90.21 83.96 84.16 85.94 75.83 86.15
  Q 65.08 86.42 54.31 86.20
  A 0.37 0.36 9.9 0 1 53.97 85.72
  L 58.18 73.77
  A 1.44 1.41 10.3 0 1 59.57 72.83
  C 68.79 73.09 80.54 71.76 89.52 73.79
  Z
  M 62.28 79.50
  A 0.72 0.72 -74.0 0 0 62.86 80.55
  C 64.32 80.68 83.93 81.57 82.68 78.75
  A 0.79 0.69 -11.4 0 0 81.95 78.33
  Q 73.44 78.62 64.93 78.51
  C 63.55 78.49 63.03 78.04 62.28 79.50
  Z"
/>
<path fill="#000000" d="
  M 285.39 73.18
  A 0.56 0.52 9.0 0 1 285.93 72.82
  L 315.98 72.98
  Q 318.68 73.00 318.69 75.66
  C 318.71 81.18 313.41 83.47 308.26 83.60
  Q 295.89 83.91 282.69 83.74
  A 0.58 0.55 9.2 0 1 282.14 83.01
  L 285.39 73.18
  Z"
/>
<path fill="#ee1811" d="
  M 388.42 77.15
  Q 379.44 90.39 369.21 102.50
  Q 367.71 102.78 368.60 101.57
  Q 377.95 88.91 388.42 77.15
  Z"
/>
<path fill="#ffffff" d="
  M 369.21 102.50
  Q 379.44 90.39 388.42 77.15
  Q 389.90 77.13 389.98 77.75
  Q 391.59 90.10 393.41 103.12
  A 0.56 0.55 -4.0 0 1 392.86 103.75
  L 369.49 103.75
  A 0.70 0.50 -1.7 0 1 368.81 103.29
  Q 368.77 102.89 369.21 102.50
  Z
  M 386.77 85.75
  L 375.96 99.69
  Q 375.53 100.25 376.23 100.24
  L 388.94 100.20
  A 0.46 0.45 -4.4 0 0 389.39 99.69
  L 387.61 85.95
  Q 387.47 84.85 386.77 85.75
  Z"
/>
<path fill="#ee1a16" d="
  M 206.96 128.79
  L 177.25 81.54
  Q 178.03 80.35 178.76 81.51
  Q 192.67 103.50 206.44 125.56
  Q 208.02 128.11 206.96 128.79
  Z"
/>
<path fill="#ee1a16" d="
  M 176.50 81.54
  L 160.64 128.33
  A 2.17 2.15 -55.0 0 0 160.99 130.37
  Q 164.08 134.27 160.50 133.71
  Q 158.57 130.27 159.81 126.56
  Q 167.18 104.45 174.77 82.42
  A 1.43 0.90 -84.4 0 1 175.36 81.66
  Q 175.88 81.42 176.50 81.54
  Z"
/>
<path fill="#000000" d="
  M 386.77 85.75
  Q 387.47 84.85 387.61 85.95
  L 389.39 99.69
  A 0.46 0.45 -4.4 0 1 388.94 100.20
  L 376.23 100.24
  Q 375.53 100.25 375.96 99.69
  L 386.77 85.75
  Z"
/>
<path fill="#ee1811" d="
  M 325.25 94.71
  Q 332.65 99.32 330.91 108.18
  C 327.95 123.30 314.85 132.56 300.04 133.69
  C 301.23 131.19 302.63 131.96 304.69 131.59
  Q 324.49 127.99 329.50 108.50
  Q 331.52 100.63 325.06 95.97
  C 324.56 95.60 323.93 94.71 325.25 94.71
  Z"
/>
<path fill="#f1221c" d="
  M 266.50 121.29
  Q 281.12 121.22 295.75 121.22
  C 304.66 121.22 312.15 117.69 313.76 108.25
  C 314.92 101.43 307.55 99.92 302.38 100.17
  Q 302.89 98.52 305.06 98.81
  C 308.93 99.31 312.00 99.66 314.10 103.02
  C 317.97 109.19 312.03 117.75 306.44 120.44
  C 297.46 124.75 278.39 123.13 266.50 122.77
  A 0.72 0.57 -2.1 0 1 265.83 122.28
  Q 265.76 121.68 266.50 121.29
  Z"
/>
<path fill="#ee1811" d="
  M 272.75 100.21
  L 266.00 120.04
  C 264.87 120.79 264.58 120.01 264.90 119.07
  Q 267.69 110.82 270.57 101.76
  Q 270.88 100.77 271.61 100.02
  Q 272.28 99.32 272.75 100.21
  Z"
/>
<path fill="#ffffff" d="
  M 302.38 100.17
  C 307.55 99.92 314.92 101.43 313.76 108.25
  C 312.15 117.69 304.66 121.22 295.75 121.22
  Q 281.12 121.22 266.50 121.29
  Q 265.26 121.29 266.00 120.04
  L 272.75 100.21
  L 302.38 100.17
  Z
  M 274.94 104.17
  L 270.79 116.62
  A 0.86 0.85 -80.6 0 0 271.59 117.75
  Q 282.50 117.75 292.75 117.79
  C 301.23 117.82 308.80 116.95 310.35 107.37
  Q 310.70 105.24 308.65 104.55
  Q 306.06 103.67 302.50 103.69
  Q 289.00 103.75 275.52 103.75
  A 0.61 0.61 -80.7 0 0 274.94 104.17
  Z"
/>
<path fill="#ee1a16" d="
  M 78.09 101.85
  Q 62.49 102.98 45.44 102.45
  A 1.36 1.34 10.2 0 0 44.12 103.35
  L 35.46 128.25
  C 33.82 130.09 33.90 128.28 34.22 127.35
  Q 38.35 115.42 42.50 103.50
  Q 43.23 101.41 44.56 101.31
  Q 61.35 100.12 78.09 101.85
  Z"
/>
<path fill="#000000" d="
  M 274.94 104.17
  A 0.61 0.61 -80.7 0 1 275.52 103.75
  Q 289.00 103.75 302.50 103.69
  Q 306.06 103.67 308.65 104.55
  Q 310.70 105.24 310.35 107.37
  C 308.80 116.95 301.23 117.82 292.75 117.79
  Q 282.50 117.75 271.59 117.75
  A 0.86 0.85 -80.6 0 1 270.79 116.62
  L 274.94 104.17
  Z
  M 279.35 110.04
  C 278.02 113.33 280.89 112.22 282.53 112.31
  Q 292.05 112.80 301.38 111.04
  C 302.28 110.87 304.92 109.16 301.68 109.24
  Q 290.72 109.55 280.15 109.50
  A 0.87 0.86 -78.9 0 0 279.35 110.04
  Z"
/>
<path fill="#ee1811" d="
  M 394.35 113.96
  L 360.75 114.26
  A 1.17 1.10 20.1 0 0 359.91 114.62
  Q 354.06 121.06 349.25 128.29
  Q 348.43 129.32 348.02 128.77
  A 0.88 0.62 -50.1 0 1 348.09 127.89
  Q 352.67 120.92 358.47 114.37
  A 3.38 3.37 19.9 0 1 360.91 113.23
  Q 377.19 112.75 394.35 113.96
  Z"
/>
<path fill="#898a89" d="
  M 505.79 130.00
  L 506.21 130.00
  L 504.25 136.29
  L 503.54 136.25
  L 505.79 130.00
  Z"
/>
</svg>
