<?xml version="1.0" encoding="UTF-8" standalone="no"?>
<!DOCTYPE svg PUBLIC "-//W3C//DTD SVG 1.1//EN" "http://www.w3.org/Graphics/SVG/1.1/DTD/svg11.dtd">
<svg xmlns="http://www.w3.org/2000/svg" version="1.1" viewBox="0 0 600 300">
<path fill="#000000" d="
  M 517.61 133.73
  C 512.37 123.81 519.86 114.22 529.17 110.38
  C 547.17 102.97 571.31 103.79 589.92 107.51
  A 1.03 1.02 -84.6 0 1 590.75 108.52
  L 590.75 119.40
  A 0.78 0.77 -84.2 0 1 589.82 120.16
  C 579.05 117.95 569.14 115.32 558.00 115.60
  C 552.92 115.73 541.99 117.77 541.04 124.06
  C 539.98 131.05 553.43 135.52 558.28 137.15
  Q 574.48 142.58 586.94 148.81
  C 596.48 153.58 603.13 163.36 598.19 173.94
  C 588.46 194.76 535.18 190.33 517.24 187.40
  A 1.77 1.77 -85.4 0 1 515.75 185.65
  L 515.75 174.62
  A 0.87 0.86 -81.4 0 1 516.87 173.79
  Q 538.29 180.35 560.75 178.25
  C 568.42 177.53 578.03 167.86 568.31 161.44
  Q 562.66 157.70 555.00 155.01
  C 543.82 151.08 523.49 144.84 517.61 133.73
  Z"
/>
<path fill="#000000" d="
  M 7.31 106.19
  C 16.68 115.29 26.25 124.23 35.40 133.52
  Q 36.81 134.96 36.82 132.93
  L 36.92 105.94
  A 0.58 0.50 -88.9 0 1 37.43 105.37
  L 43.00 105.42
  A 0.59 0.51 -90.0 0 1 43.51 106.01
  L 43.74 143.79
  A 1.10 1.07 -3.2 0 1 42.75 144.87
  C 40.19 145.13 38.85 145.57 36.86 143.65
  Q 22.80 130.15 8.23 115.87
  Q 7.17 114.83 7.17 116.32
  L 7.07 144.32
  A 0.56 0.50 -90.0 0 1 6.57 144.88
  L 0.94 144.88
  A 0.57 0.51 89.4 0 1 0.43 144.32
  Q 0.12 126.54 0.24 108.75
  C 0.26 107.17 -0.40 105.13 1.96 105.13
  C 3.80 105.13 6.07 104.98 7.31 106.19
  Z"
/>
<rect fill="#000000" x="55.75" y="105.27" width="7.04" height="39.72" rx="0.60"/>
<path fill="#000000" d="
  M 83.64 116.53
  Q 83.45 116.33 83.31 116.09
  Q 82.81 115.19 82.11 115.67
  A 1.08 0.79 77.7 0 0 81.75 116.49
  L 81.75 144.14
  A 0.82 0.78 -90.0 0 1 80.97 144.96
  L 76.20 144.98
  A 1.23 1.20 90.0 0 1 75.00 143.75
  L 75.00 106.54
  A 0.98 0.97 84.7 0 1 75.79 105.58
  C 80.83 104.61 81.20 105.38 84.84 108.91
  Q 97.55 121.23 110.24 133.87
  Q 111.50 135.12 111.50 133.35
  L 111.50 106.10
  A 0.86 0.84 -90.0 0 1 112.34 105.24
  L 117.75 105.30
  A 0.58 0.57 -89.0 0 1 118.31 105.89
  L 118.19 144.19
  A 0.65 0.64 83.2 0 1 117.70 144.82
  C 113.44 145.90 112.06 144.08 109.37 141.53
  Q 97.44 130.27 83.64 116.53
  Z"
/>
<path fill="#000000" d="
  M 144.45 111.81
  L 128.19 111.58
  A 0.68 0.67 -6.8 0 1 127.55 111.08
  Q 126.89 108.50 127.55 105.92
  A 0.66 0.65 -82.5 0 1 128.18 105.43
  L 169.43 105.31
  A 1.11 1.11 -82.2 0 1 170.50 106.73
  Q 169.97 108.63 170.50 110.51
  A 0.98 0.98 -7.9 0 1 169.56 111.75
  L 153.37 111.75
  A 0.87 0.87 0.0 0 0 152.50 112.62
  L 152.50 144.31
  A 0.68 0.67 90.0 0 1 151.83 144.99
  L 146.82 144.99
  Q 144.82 144.98 144.91 142.91
  Q 145.65 126.69 144.96 112.31
  A 0.52 0.52 89.4 0 0 144.45 111.81
  Z"
/>
<path fill="#000000" d="
  M 218.02 139.14
  Q 218.45 140.28 218.14 141.52
  A 1.64 1.58 -49.9 0 0 218.20 142.45
  C 218.96 144.43 217.80 145.00 216.06 145.00
  Q 198.75 145.00 180.28 145.00
  A 1.03 1.03 0.0 0 1 179.25 143.97
  L 179.25 106.65
  A 1.39 1.37 -89.8 0 1 180.63 105.26
  L 217.32 105.43
  A 0.68 0.66 81.9 0 1 217.96 105.92
  Q 218.64 108.44 218.11 111.01
  A 0.62 0.61 -84.2 0 1 217.51 111.51
  L 187.28 111.73
  A 1.07 1.06 -90.0 0 0 186.23 112.79
  L 186.15 120.37
  A 0.87 0.84 -89.7 0 0 186.99 121.25
  L 210.06 121.25
  A 0.98 0.98 7.9 0 1 211.00 122.49
  Q 210.47 124.38 211.00 126.26
  A 0.98 0.97 81.6 0 1 210.08 127.51
  L 186.68 127.75
  A 0.69 0.68 -0.4 0 0 186.00 128.43
  L 186.00 137.05
  A 1.49 1.46 0.2 0 0 187.48 138.51
  L 217.31 138.68
  A 0.78 0.72 -9.9 0 1 218.02 139.14
  Z"
/>
<path fill="#000000" d="
  M 237.28 106.84
  C 240.19 109.61 264.79 134.10 265.81 134.01
  A 0.46 0.41 87.2 0 0 266.18 133.56
  L 266.00 106.47
  A 1.23 1.21 -0.2 0 1 267.23 105.25
  L 272.10 105.25
  A 1.09 1.08 -89.7 0 1 273.18 106.35
  L 273.01 144.24
  A 0.73 0.68 -89.6 0 1 272.33 144.96
  L 268.46 144.98
  A 2.08 1.96 65.8 0 1 267.06 144.40
  L 237.80 115.92
  Q 236.50 114.66 236.50 116.46
  L 236.57 144.03
  A 0.97 0.96 -90.0 0 1 235.61 145.00
  L 230.16 145.00
  A 0.66 0.66 0.0 0 1 229.50 144.34
  L 229.50 106.31
  A 0.96 0.95 -3.0 0 1 230.36 105.36
  C 233.28 105.07 235.00 104.67 237.28 106.84
  Z"
/>
<path fill="#000000" d="
  M 326.81 138.81
  C 323.76 143.38 319.23 144.71 313.50 144.84
  Q 299.92 145.15 285.79 144.99
  A 1.05 1.05 0.3 0 1 284.75 143.94
  L 284.75 106.29
  A 1.02 1.02 -0.3 0 1 285.76 105.27
  Q 299.72 105.12 312.60 105.39
  Q 318.61 105.51 321.64 107.01
  C 332.60 112.43 332.86 129.76 326.81 138.81
  Z
  M 315.25 138.30
  C 324.68 138.12 325.75 124.90 323.29 118.45
  C 320.45 110.95 315.52 111.74 307.62 111.71
  Q 299.90 111.68 292.19 111.92
  A 0.54 0.53 -0.6 0 0 291.67 112.44
  L 291.56 137.83
  A 0.68 0.66 0.4 0 0 292.24 138.50
  Q 304.12 138.50 315.25 138.30
  Z"
/>
<path fill="#000000" d="
  M 388.00 136.54
  A 8.43 8.43 0.0 0 1 379.57 144.97
  L 347.45 144.97
  A 8.43 8.43 0.0 0 1 339.02 136.54
  L 339.02 113.70
  A 8.43 8.43 0.0 0 1 347.45 105.27
  L 379.57 105.27
  A 8.43 8.43 0.0 0 1 388.00 113.70
  L 388.00 136.54
  Z
  M 381.2797 113.8211
  A 2.04 2.04 0.0 0 0 379.2433 111.7775
  L 347.7234 111.7225
  A 2.04 2.04 0.0 0 0 345.6798 113.7590
  L 345.6403 136.4189
  A 2.04 2.04 0.0 0 0 347.6767 138.4625
  L 379.1966 138.5175
  A 2.04 2.04 0.0 0 0 381.2402 136.4810
  L 381.2797 113.8211
  Z"
/>
<path fill="#000000" d="
  M 477.24 108.31
  C 523.03 118.51 524.31 175.21 478.19 186.44
  Q 464.49 189.77 448.25 189.76
  Q 423.63 189.75 399.47 189.75
  A 0.97 0.97 0.2 0 1 398.50 188.78
  L 398.50 106.10
  A 0.85 0.85 -0.0 0 1 399.35 105.25
  Q 422.75 105.25 445.50 105.25
  Q 463.50 105.25 477.24 108.31
  Z
  M 478.31 164.56
  C 488.55 150.06 483.87 129.56 467.70 121.61
  C 454.51 115.14 441.31 116.07 426.99 116.28
  A 1.20 1.20 -0.5 0 0 425.81 117.48
  L 425.75 177.63
  A 0.82 0.81 0.7 0 0 426.55 178.44
  C 442.69 178.87 467.54 179.82 478.31 164.56
  Z"
/>
<path fill="#000000" d="
  M 388.00 182.01
  A 8.48 8.48 0.0 0 1 379.52 190.49
  L 347.48 190.49
  A 8.48 8.48 0.0 0 1 339.00 182.01
  L 339.00 159.25
  A 8.48 8.48 0.0 0 1 347.48 150.77
  L 379.52 150.77
  A 8.48 8.48 0.0 0 1 388.00 159.25
  L 388.00 182.01
  Z
  M 381.2699 159.2811
  A 1.98 1.98 0.0 0 0 379.2933 157.2976
  L 347.6734 157.2424
  A 1.98 1.98 0.0 0 0 345.6899 159.2190
  L 345.6501 182.0189
  A 1.98 1.98 0.0 0 0 347.6267 184.0024
  L 379.2466 184.0576
  A 1.98 1.98 0.0 0 0 381.2301 182.0810
  L 381.2699 159.2811
  Z"
/>
</svg>
