<?xml version="1.0" encoding="utf-8"?>
<!-- Generator: Adobe Illustrator 21.0.2, SVG Export Plug-In . SVG Version: 6.00 Build 0)  -->
<svg version="1.1" id="Layer_1" xmlns="http://www.w3.org/2000/svg" xmlns:xlink="http://www.w3.org/1999/xlink" x="0px" y="0px"
	 viewBox="0 0 1000 312.4" style="enable-background:new 0 0 1000 312.4;" xml:space="preserve">
<style type="text/css">
	.st0{fill:#0C4DA2;}
	.st1{fill:#FFCB08;}
	.st2{fill:#FFFFFF;}
</style>
<path class="st0" d="M716.8,0c-31.9,0-60.3,13.8-78.8,35.3c-5.5-7-12.1-14.4-19.4-19.6C603.3,4.3,583.5,0.8,562.3,0.3
	c-35.9-1-64.6,18.4-77.8,40.2c-11.2-22.3-21.2-33.9-60-35.8h-94.1l0,39.2c0,0,4.5,1.4,6,3.1c1.3,1.4,2.1,5.2,2.1,5.2l-0.2,87.3
	c0,0-2.5-1.8-3.4-2.9c-1.8-2.1-4.4-7.2-4.4-7.2L282.2,4.6l-61.1,0l-53.1,138.9v-29.7h-38.2c-3,8.3-11.5,13.9-21.7,13.9
	c-5.4,0-11.1-1.3-15.8-4.1c-6.1-3.6-10.6-8-14.3-15.7c-2.9-7.1-5.2-15.8-5.4-23.5c0.9-15.2,5.5-20.7,14-27c1.9-1.4,7.1-2.5,8.6-2.5
	c3.3,0,6.1,2,7.6,5c2.2,4.3-1,9.6-4.2,13.3l30.9,21.3l47.7-50C160.6,18,130.1,0.3,95.4,0.3C42.7,0.3,0,41,0,91.2
	c0,50.2,41.3,88.2,95.4,92.3l6.8,0.3h72.7v0h169.2v0l63.6-0.1v-0.1h10v-37.4c0,0-5.3-1.1-7.5-2.6c-2.3-1.6-2.5-4-2.5-4
	c0-1,0.2-1.7,0.7-2.3c0.5-0.6,1.6-1,2.1-1.1c6.6-1.4,13.3-3.3,20-5.7c17.9-6.4,32.9-15.6,43.6-25.7c7.2,42.3,44.3,73.1,89.2,78.2
	c2.9,0.3,5.5,0.6,8.2,0.7c0.7,0,2.2,0,2.2,0H637l-0.2-31.2c16.5,18.3,48.7,35.9,81.2,35.9c26.5,0,50.3-11.6,67.1-26l-0.1,21.6h80.2
	l0.4-33.1l20.9,0.3v-0.4l28,0.2v32.8h85.5v-43.4c0,0-3.7-0.2-5.1-1.2c-1.9-1.3-3.9-5.9-3.9-5.9l-12-79.8c0,0,0.4-5.3,1.9-7.3
	c1.3-1.6,5.5-3,5.5-3V4.6h-85.2v1.1l-6,20.2l-8.6-20.4v-1H886l-0.2-0.5l0,0.5h-82.3v40.4l-5.6-7.7C782.5,14.9,755.4,0,724.5,0
	c-1.3,0-2.5,0-3.8,0.1C719.5,0,718.1,0,716.8,0z M166.9,151.4l0,0.4h-0.4C166.6,151.7,166.8,151.6,166.9,151.4z"/>
<path class="st1" d="M95.3,17.4c-43.4,0.3-78.9,31.9-78.9,73.3c0,41.4,39.1,76.9,86.5,75.8l46,0.1v-36.2h-8.7
	c-2.7,6.8-15.5,13.5-24.7,13.5c-4.9,0-17.1-0.7-21.7-2.3c-8-2.8-19.5-6.8-29.4-23.6c-2.7-5.9-10.2-20.1-8.5-41
	c0.8-12.6,8.8-28.2,23.1-35.3c6.2-3.1,12.5-3.6,23.5-2.6c7.9,0.7,15.8,6.3,18.5,13c2.1,5.2,1.5,11.5-1,15.1
	c-0.2,0.3-0.2,0.5-0.1,0.7c0,0.2,0.3,0.5,0.3,0.5l4.4,3.4c0,0,1.2,0.9,2.7,0.8c0.8,0,2.3-0.9,2.3-0.9l24.9-26.1
	C139.2,24.8,111.8,17.4,95.3,17.4L95.3,17.4z M717.2,16.7c-46,0-83.3,34.6-83.3,77.3s37.3,77.3,83.3,77.3c46,0,83.3-34.6,83.3-77.3
	C800.5,51.3,763.2,16.7,717.2,16.7L717.2,16.7z M717.8,40.7c23.7,0,36.4,17,41.5,37.2c1.5,5.8,0.9,25,0,31.4
	c-2.7,19.5-18.6,38.6-41.8,38c-22.6-0.6-37.7-11.1-42.3-39.3c-1.4-8.3-1.4-18.2-0.3-26.5C678.1,57.3,694.1,40.7,717.8,40.7
	L717.8,40.7z M232.5,21.5c0,0-36.6,99-43.2,117.1c-6.6,18-13.9,17.5-13.9,17.5l0.5,10.9l44.2,0l0-10.5c0,0-2.8-0.1-4.9-2.1
	c-4-3.7-1.5-11.2-1.5-11.2L224,117l45.4,0.1c0,0,8.9,22.1,11,29.4c2.8,9.5-6,9.7-6,9.7v10.7l55.9,0l0-10.5c0,0-3.3-0.5-6.9-3.6
	c-4-3.5-6.8-10.7-6.8-10.7L270.9,21.6L232.5,21.5z M245.6,51.9l15.2,42.2l-29.4,0.1L245.6,51.9L245.6,51.9z M348.3,21.3l-0.2,12.1
	c0,0,3.6,1,7,4.8c1.8,2,0.7,27.4,0.7,27.4l-0.1,81.3c0,0,1.2,3.2-2.7,6.4c-1.5,1.2-2.8,2.5-5,2.7l-0.3,10.8l51.8,0.1l0.1-11
	c0,0-1.8-0.7-4.7-3.3c-1.6-1.5-2.6-3.6-2.6-5.7c0-7.3,0.2-14.4,0.2-21.6c18.2-4.4,33.8-11.8,39.9-14c23-9.2,40.8-23.7,39.7-49.7
	c-0.2-18.4-9.5-33.5-29.5-36.9c-9.1-2.6-13.3-3.1-16.9-3.3L348.3,21.3L348.3,21.3z M407.6,41.9c5.6-0.1,12.2,1.2,17.2,3.7
	c6.3,4.2,10.2,8.5,10.2,17.7c0.3,4.3-1,8-3.1,11.8c-2.2,3.6-8.7,10.5-12.8,14.5c-12.1,8.6-16.4,11.2-26,15.6l-0.2-61.6
	C398,42.7,402.6,42,407.6,41.9L407.6,41.9z M567.4,17.5c-43.4,0.3-78.9,31.9-78.9,73.3c0,41.4,39.1,76.9,86.5,75.8l46,0.1v-36.2
	h-8.7c-2.7,6.8-15.5,13.5-24.7,13.5c-4.9,0-17.1-0.7-21.7-2.3c-8-2.8-19.5-6.8-29.4-23.6c-2.7-5.9-10.2-20.1-8.5-41
	c0.8-12.6,8.8-28.2,23.1-35.3c6.2-3.1,12.5-3.6,23.5-2.6c7.9,0.7,15.8,6.3,18.5,13c2.1,5.2,1.5,11.5-1,15.1
	c-0.2,0.3-0.2,0.5-0.1,0.7c0,0.2,0.3,0.5,0.3,0.5l4.4,3.4c0,0,1.2,0.9,2.7,0.8c0.8,0,2.3-0.9,2.3-0.9l24.9-26.1
	C611.3,24.9,583.9,17.5,567.4,17.5L567.4,17.5z M821.4,21.6l0,10.4c0,0,4.6,1.2,6.4,2.7c2.1,1.6,1.5,4.5,1.5,4.5
	S812.8,142,812.4,143.9c-0.4,2.1-0.9,6.8-3.8,9.5c-2.9,2.7-6.2,3.2-6.2,3.2l0,10.3h46.3v-9.6c0,0-3.8-0.3-6.3-2.8
	c-2.5-2.5-1.8-9.4-1.8-9.4L852,67.4l23.2,66.8l28.2,0.4l22.9-72l12.8,82.8c0,0,1.5,6.2-1.8,9.4c-2.6,2.5-6.3,2.8-6.3,2.8v9.6h53.7
	l0-10.3c0,0-1.2,0.4-4.2-2c-1.8-1.4-2.7-7.8-3-9.9c-0.4-1.9-14.8-105.4-14.8-105.4s-0.3-4.3,2.1-6.5c1.7-1.6,5.1-3.1,5.1-3.1
	l-0.1-8.5l-55.7-0.1l-20.4,58.7l-19.4-58.7L821.4,21.6L821.4,21.6z"/>
<path d="M938,188.4H62c-34.2,0-62,27.8-62,62c0,34.2,27.8,62,62,62h876c34.2,0,62-27.8,62-62C1000,216.1,972.2,188.4,938,188.4z"/>
<g>
	<path class="st2" d="M143.4,258.3l24.2,1c-0.9,9-5,16.4-12.3,22s-17.1,8.5-29.1,8.5c-14.7,0-25.9-3.8-33.6-11.4
		c-7.7-7.6-11.5-18-11.5-31.4c0-13.4,3.8-24,11.5-31.5c7.6-7.6,19-11.4,34-11.4c24.9,0,38.5,10.7,40.7,32.2l-24,1.2
		c-0.6-12.3-6.2-18.5-16.6-18.5c-5.5,0-9.8,2-13.1,6c-3.2,4-4.9,11.7-4.9,23.1c0,10.2,1.5,17.3,4.5,21.1c3,3.8,7.4,5.8,13.4,5.8
		C136.1,275,141.7,269.4,143.4,258.3z"/>
	<path class="st2" d="M208.6,205.4h26.2V273h38.5v15.6h-64.7V205.4z"/>
	<path class="st2" d="M331.6,205.4h26.4l34.1,83.1h-26.8l-6-17.2h-33.6l-5.9,17.2h-24.1L331.6,205.4z M354.5,257.1l-12.1-34.1
		l-11.6,34.1H354.5z"/>
	<path class="st2" d="M500.9,223.5l-21.7,5.8c-3.1-6.9-8.7-10.3-17-10.3c-3.9,0-6.9,0.8-9.1,2.3c-2.2,1.5-3.4,3.3-3.4,5.3
		c0,2.4,1.3,4.2,4,5.6c2.7,1.4,8.2,3.2,16.7,5.5c7.7,2,13.8,4,18.2,5.9c4.4,1.9,8,4.6,10.7,7.9s4.1,7.2,4.1,11.7
		c0,7.8-3.8,14.1-11.5,19.1c-7.7,5-18,7.5-30.8,7.5c-21.6,0-35.5-7.6-41.5-22.8l22.9-4.6c2.8,8.4,9.2,12.5,19.2,12.5
		c4.5,0,8.2-0.8,11.1-2.5c2.8-1.6,4.2-3.8,4.2-6.5c0-2-1-3.8-3-5.5c-2-1.6-6.5-3.3-13.6-5.1c-9.2-2.3-16-4.3-20.5-6.2
		c-4.5-1.8-8.2-4.5-11.1-7.9c-2.9-3.4-4.4-7.3-4.4-11.7c0-7.5,3.5-13.6,10.4-18.4c6.9-4.8,16.1-7.2,27.4-7.2
		C482.8,204.2,495.7,210.6,500.9,223.5z"/>
	<path class="st2" d="M618.1,223.5l-21.7,5.8c-3.1-6.9-8.8-10.3-17-10.3c-3.8,0-6.9,0.8-9.1,2.3c-2.2,1.5-3.4,3.3-3.4,5.3
		c0,2.4,1.3,4.2,4,5.6c2.7,1.4,8.2,3.2,16.7,5.5c7.7,2,13.8,4,18.2,5.9c4.4,1.9,8,4.6,10.7,7.9c2.7,3.3,4.1,7.2,4.1,11.7
		c0,7.8-3.8,14.1-11.5,19.1c-7.7,5-18,7.5-30.8,7.5c-21.6,0-35.5-7.6-41.5-22.8l22.9-4.6c2.8,8.4,9.2,12.5,19.2,12.5
		c4.5,0,8.2-0.8,11.1-2.5c2.8-1.6,4.2-3.8,4.2-6.5c0-2-1-3.8-3-5.5c-2-1.6-6.5-3.3-13.6-5.1c-9.2-2.3-16-4.3-20.5-6.2
		c-4.5-1.8-8.2-4.5-11.1-7.9c-2.9-3.4-4.4-7.3-4.4-11.7c0-7.5,3.5-13.6,10.4-18.4c6.9-4.8,16.1-7.2,27.4-7.2
		C600,204.2,612.9,210.6,618.1,223.5z"/>
	<path class="st2" d="M662.3,205.4h26.2v83.1h-26.2V205.4z"/>
	<path class="st2" d="M794.8,258.3l24.2,1c-0.9,9-5,16.4-12.3,22s-17.1,8.5-29.1,8.5c-14.7,0-25.9-3.8-33.6-11.4
		c-7.7-7.6-11.5-18-11.5-31.4c0-13.4,3.8-24,11.5-31.5c7.6-7.6,19-11.4,34-11.4c24.9,0,38.5,10.7,40.7,32.2l-24,1.2
		C794,225.2,788.4,219,778,219c-5.5,0-9.8,2-13.1,6c-3.2,4-4.9,11.7-4.9,23.1c0,10.2,1.5,17.3,4.5,21.1c3,3.8,7.4,5.8,13.4,5.8
		C787.5,275,793.1,269.4,794.8,258.3z"/>
	<path class="st2" d="M933.1,223.5l-21.7,5.8c-3.1-6.9-8.8-10.3-17-10.3c-3.8,0-6.9,0.8-9.1,2.3c-2.2,1.5-3.4,3.3-3.4,5.3
		c0,2.4,1.3,4.2,4,5.6c2.7,1.4,8.2,3.2,16.7,5.5c7.7,2,13.8,4,18.2,5.9c4.4,1.9,8,4.6,10.7,7.9c2.7,3.3,4.1,7.2,4.1,11.7
		c0,7.8-3.8,14.1-11.5,19.1c-7.7,5-18,7.5-30.8,7.5c-21.6,0-35.5-7.6-41.5-22.8l22.9-4.6c2.8,8.4,9.2,12.5,19.2,12.5
		c4.5,0,8.2-0.8,11.1-2.5c2.8-1.6,4.2-3.8,4.2-6.5c0-2-1-3.8-3-5.5c-2-1.6-6.5-3.3-13.6-5.1c-9.2-2.3-16-4.3-20.5-6.2
		c-4.5-1.8-8.2-4.5-11.1-7.9c-2.9-3.4-4.4-7.3-4.4-11.7c0-7.5,3.5-13.6,10.4-18.4c6.9-4.8,16.1-7.2,27.4-7.2
		C915,204.2,928,210.6,933.1,223.5z"/>
</g>
</svg>
