<?xml version="1.0" encoding="UTF-8" standalone="no"?>
<!DOCTYPE svg PUBLIC "-//W3C//DTD SVG 1.1//EN" "http://www.w3.org/Graphics/SVG/1.1/DTD/svg11.dtd">
<svg xmlns="http://www.w3.org/2000/svg" version="1.1" viewBox="0 0 600 300">
<g stroke-width="2.00" fill="none" stroke-linecap="butt">
<path stroke="#0094d7" vector-effect="non-scaling-stroke" d="
  M 527.00 87.21
  C 520.68 88.73 516.08 87.84 510.28 87.98
  C 508.80 88.01 507.18 87.45 506.47 89.22
  Q 506.33 89.57 506.25 89.20
  Q 506.05 88.17 505.25 87.54"
/>
<path stroke="#0094d7" vector-effect="non-scaling-stroke" d="
  M 463.50 84.04
  L 461.80 87.87
  A 0.25 0.21 -54.9 0 1 461.43 87.97
  L 461.21 87.70
  A 1.02 0.57 59.4 0 0 460.50 87.29
  Q 450.61 88.04 440.75 86.96"
/>
<path stroke="#007ec3" vector-effect="non-scaling-stroke" d="
  M 460.01 94.42
  Q 458.14 98.31 456.91 102.49
  C 456.74 103.05 455.99 103.74 455.79 102.72
  A 0.57 0.56 84.4 0 0 455.24 102.26
  L 437.28 102.42
  A 0.85 0.83 11.3 0 1 436.49 101.26
  Q 436.97 100.18 436.71 99.00"
/>
<path stroke="#007ec3" vector-effect="non-scaling-stroke" d="
  M 531.59 100.81
  Q 528.04 103.26 523.75 102.68
  C 519.33 102.08 513.87 103.14 509.79 101.50"
/>
<path stroke="#006ab0" vector-effect="non-scaling-stroke" d="
  M 454.76 110.29
  L 451.75 117.41
  A 2.51 2.18 -76.9 0 1 449.64 118.94
  L 431.81 118.93
  A 0.63 0.52 82.5 0 1 431.28 118.44
  Q 431.14 117.85 430.50 117.46"
/>
<path stroke="#0068ae" vector-effect="non-scaling-stroke" d="
  M 537.50 118.44
  Q 528.43 120.76 519.06 119.56
  Q 516.23 119.20 516.00 118.25
  Q 515.01 114.19 513.00 110.54"
/>
<path stroke="#00589e" vector-effect="non-scaling-stroke" d="
  M 546.46 145.25
  Q 539.51 146.29 532.50 145.78
  Q 529.18 145.54 526.04 146.53
  A 0.57 0.39 66.1 0 1 525.50 146.20
  Q 525.33 145.88 524.79 146.00"
/>
<path stroke="#01254a" stroke-opacity="0.961" vector-effect="non-scaling-stroke" d="
  M 428.50 182.04
  Q 427.64 181.52 426.71 181.75"
/>
<path stroke="#80a1c5" vector-effect="non-scaling-stroke" d="
  M 426.71 181.75
  L 422.31 170.64
  A 0.98 0.94 79.2 0 0 421.44 170.02
  Q 398.17 169.56 375.74 170.59"
/>
<path stroke="#01356c" vector-effect="non-scaling-stroke" d="
  M 375.74 170.59
  Q 376.13 177.30 379.77 181.38
  A 0.29 0.20 52.3 0 1 379.79 181.76
  Q 379.68 181.83 379.50 181.79"
/>
<path stroke="#01254a" stroke-opacity="0.961" vector-effect="non-scaling-stroke" d="
  M 379.50 181.79
  L 376.25 181.96"
/>
<path stroke="#00356d" stroke-opacity="0.635" vector-effect="non-scaling-stroke" d="
  M 376.25 181.96
  Q 369.47 182.01 362.68 182.01
  C 357.17 182.01 349.00 182.79 341.97 182.30"
/>
<path stroke="#01356c" vector-effect="non-scaling-stroke" d="
  M 341.97 182.30
  Q 341.00 177.42 341.45 172.50
  Q 341.56 171.36 340.29 171.75"
/>
<path stroke="#004c93" vector-effect="non-scaling-stroke" d="
  M 551.09 158.86
  Q 542.94 160.02 534.80 159.71
  C 533.38 159.65 532.47 159.35 531.26 160.49
  A 0.43 0.42 51.8 0 1 530.61 160.41
  C 530.01 159.52 529.22 156.47 528.29 156.50"
/>
<path stroke="#005ba2" vector-effect="non-scaling-stroke" d="
  M 445.96 136.50
  Q 445.14 137.23 444.68 138.28
  Q 444.50 138.70 444.28 138.31
  Q 443.03 136.07 439.75 136.50
  Q 435.31 137.09 424.17 136.16"
/>
<path stroke="#868787" stroke-opacity="0.961" vector-effect="non-scaling-stroke" d="
  M 515.64 170.54
  L 468.64 264.79
  A 2.24 2.24 13.8 0 1 466.61 266.02
  C 461.70 265.93 423.79 266.22 423.00 265.50"
/>
<path stroke="#868787" stroke-opacity="0.961" vector-effect="non-scaling-stroke" d="
  M 423.00 265.50
  Q 422.80 264.29 421.94 262.56
  Q 404.83 228.40 387.71 194.25"
/>
<path stroke="#868787" stroke-opacity="0.961" vector-effect="non-scaling-stroke" d="
  M 387.25 193.46
  L 382.75 184.50"
/>
<path stroke="#868787" stroke-opacity="0.961" vector-effect="non-scaling-stroke" d="
  M 382.75 184.50
  L 381.46 181.75"
/>
<path stroke="#8193a7" vector-effect="non-scaling-stroke" d="
  M 381.46 181.75
  L 375.74 170.59"
/>
<path stroke="#868787" stroke-opacity="0.961" vector-effect="non-scaling-stroke" d="
  M 426.71 181.75
  L 427.71 184.25"
/>
<path stroke="#005097" vector-effect="non-scaling-stroke" d="
  M 444.21 141.25
  L 440.57 150.96
  A 0.29 0.29 -58.4 0 1 440.11 151.07
  C 439.36 150.36 424.06 150.71 421.69 150.59
  A 1.32 1.00 64.6 0 1 420.87 150.16
  L 419.75 148.96"
/>
<path stroke="#002348" stroke-opacity="0.992" vector-effect="non-scaling-stroke" d="
  M 526.75 182.46
  L 513.75 182.04"
/>
<path stroke="#01264c" stroke-opacity="0.961" vector-effect="non-scaling-stroke" d="
  M 513.00 181.96
  Q 510.19 181.90 512.01 179.77
  Q 515.33 175.91 515.64 170.54"
/>
<path stroke="#80a3c6" vector-effect="non-scaling-stroke" d="
  M 515.64 170.54
  Q 495.18 169.62 474.50 169.96"
/>
<path stroke="#00478e" vector-effect="non-scaling-stroke" d="
  M 434.97 168.93
  Q 427.70 167.24 420.25 168.03
  C 411.43 168.97 401.91 168.04 393.99 168.20
  C 390.15 168.27 378.55 167.14 375.75 168.68
  A 0.73 0.70 49.4 0 1 374.94 168.60
  C 373.40 167.32 372.14 168.01 370.58 167.99
  C 356.07 167.86 341.55 168.21 327.03 167.94
  Q 320.78 167.83 314.54 168.50"
/>
<path stroke="#02162b" stroke-opacity="0.961" vector-effect="non-scaling-stroke" d="
  M 381.46 181.75
  Q 380.45 182.04 379.50 181.79"
/>
<path stroke="#021e3e" stroke-opacity="0.635" vector-effect="non-scaling-stroke" d="
  M 341.97 182.30
  Q 340.19 181.91 340.50 184.21"
/>
<path stroke="#80a1c5" vector-effect="non-scaling-stroke" d="
  M 314.50 169.96
  Q 326.27 170.03 338.03 170.00
  C 339.39 170.00 340.67 169.61 340.29 171.75"
/>
<path stroke="#8193a7" vector-effect="non-scaling-stroke" d="
  M 340.29 171.75
  L 340.29 184.25"
/>
<path stroke="#8a8a8a" stroke-opacity="0.976" vector-effect="non-scaling-stroke" d="
  M 340.21 194.25
  L 301.81 194.06
  A 0.58 0.56 -85.4 0 0 301.24 194.56
  Q 300.64 199.02 301.21 203.50"
/>
<path stroke="#868787" stroke-opacity="0.961" vector-effect="non-scaling-stroke" d="
  M 301.23 266.25
  Q 280.71 265.32 259.36 266.03
  A 0.84 0.83 89.0 0 1 258.50 265.19
  L 258.46 251.25"
/>
<path stroke="#818181" stroke-opacity="0.992" vector-effect="non-scaling-stroke" d="
  M 258.46 222.00
  L 258.50 194.76
  A 0.52 0.51 0.0 0 0 257.98 194.25
  L 227.79 193.91
  A 1.22 1.05 87.5 0 0 226.75 195.23
  L 227.00 198.50"
/>
<path stroke="#868787" stroke-opacity="0.961" vector-effect="non-scaling-stroke" d="
  M 227.00 198.50
  L 178.04 198.55"
/>
<path stroke="#868787" stroke-opacity="0.961" vector-effect="non-scaling-stroke" d="
  M 177.71 197.00
  C 176.07 188.34 157.88 188.13 151.72 189.09
  C 147.04 189.83 139.64 190.50 141.26 197.55"
/>
<path stroke="#818181" stroke-opacity="0.992" vector-effect="non-scaling-stroke" d="
  M 231.89 239.06
  C 227.70 262.08 202.71 266.06 183.45 267.97
  C 172.34 269.07 160.81 269.09 148.75 268.50
  C 130.23 267.60 103.57 265.12 95.79 245.25"
/>
<path stroke="#868787" stroke-opacity="0.961" vector-effect="non-scaling-stroke" d="
  M 95.79 245.25
  L 94.28 236.83"
/>
<path stroke="#818181" stroke-opacity="0.992" vector-effect="non-scaling-stroke" d="
  M 181.29 239.00
  Q 181.59 232.50 175.19 231.56
  Q 156.25 228.77 126.66 225.03
  C 109.55 222.86 94.74 215.40 95.96 195.23"
/>
<path stroke="#e1e1e1" stroke-opacity="0.569" vector-effect="non-scaling-stroke" d="
  M 98.00 187.54
  L 101.28 182.41"
/>
<path stroke="#005097" vector-effect="non-scaling-stroke" d="
  M 413.29 141.00
  Q 413.22 147.00 413.13 153.00
  Q 413.07 156.98 413.11 152.25
  Q 413.11 151.85 412.90 151.78
  A 0.36 0.24 -83.5 0 0 412.58 152.15
  Q 412.58 153.07 411.69 152.56
  Q 402.56 152.95 393.55 152.69
  A 0.90 0.83 89.9 0 1 392.74 151.81
  L 392.54 144.75"
/>
<path stroke="#00569d" vector-effect="non-scaling-stroke" d="
  M 413.46 141.00
  L 413.29 141.00"
/>
<path stroke="#005ca2" vector-effect="non-scaling-stroke" d="
  M 413.29 141.00
  Q 413.22 137.50 413.12 134.00
  Q 413.09 133.08 413.12 134.00
  Q 413.18 135.88 412.80 137.70
  A 0.49 0.46 13.1 0 1 412.21 138.04
  L 411.05 137.77
  A 0.79 0.61 87.0 0 1 410.56 137.20
  Q 410.41 136.51 409.25 136.50
  Q 401.99 136.45 394.73 136.56
  A 1.08 0.54 -55.1 0 0 394.08 136.91
  Q 393.82 137.17 393.54 136.90
  Q 393.32 136.69 393.38 136.98
  Q 393.68 138.44 392.54 138.75"
/>
<path stroke="#005ba2" vector-effect="non-scaling-stroke" d="
  M 303.55 120.14
  L 303.78 135.69
  Q 303.79 136.25 304.26 135.96
  Q 304.99 135.51 305.34 134.72
  A 0.91 0.75 -78.7 0 1 305.99 134.19
  Q 314.15 133.28 322.99 133.99
  A 0.74 0.70 -85.7 0 0 323.75 133.30
  L 324.21 127.00"
/>
<path stroke="#005097" vector-effect="non-scaling-stroke" d="
  M 325.37 147.23
  Q 323.86 149.92 320.00 149.50
  Q 316.57 149.12 304.24 150.09"
/>
<path stroke="#80a1c5" vector-effect="non-scaling-stroke" d="
  M 161.00 166.96
  C 142.02 167.02 115.42 167.33 101.28 182.41"
/>
<path stroke="#003b7a" stroke-opacity="0.569" vector-effect="non-scaling-stroke" d="
  M 101.28 182.41
  L 59.65 182.86"
/>
<path stroke="#80a4c7" vector-effect="non-scaling-stroke" d="
  M 295.96 170.00
  L 220.27 170.00
  A 0.85 0.78 89.6 0 0 219.49 170.86
  L 219.54 180.75
  Q 219.55 181.28 219.10 180.94
  Q 208.97 173.24 196.46 170.50"
/>
<path stroke="#0071b6" vector-effect="non-scaling-stroke" d="
  M 413.46 103.00
  L 413.25 103.04"
/>
<path stroke="#0079be" vector-effect="non-scaling-stroke" d="
  M 413.25 103.04
  Q 412.81 103.96 413.08 105.44
  A 0.86 0.84 -4.9 0 1 412.22 106.44
  L 395.75 106.24
  Q 395.36 106.24 394.82 106.52
  Q 393.45 107.22 392.71 105.75"
/>
<path stroke="#006195" stroke-opacity="0.659" vector-effect="non-scaling-stroke" d="
  M 392.71 105.75
  Q 392.80 105.24 392.56 104.90
  A 1.15 0.70 -10.6 0 0 391.69 104.57
  Q 373.24 105.07 354.79 104.50"
/>
<path stroke="#006bb0" vector-effect="non-scaling-stroke" d="
  M 413.25 103.04
  L 413.03 115.49
  A 0.53 0.51 0.6 0 1 412.50 115.99
  L 393.32 115.81
  A 0.63 0.62 4.0 0 1 392.70 115.10
  Q 392.91 113.59 392.54 112.50"
/>
<path stroke="#00588c" stroke-opacity="0.659" vector-effect="non-scaling-stroke" d="
  M 392.46 106.75
  Q 392.38 106.12 392.71 105.75"
/>
<path stroke="#006ab0" vector-effect="non-scaling-stroke" d="
  M 324.21 117.50
  C 324.54 119.56 323.99 120.43 321.88 120.45
  Q 312.69 120.51 303.55 120.14"
/>
<path stroke="#0064aa" vector-effect="non-scaling-stroke" d="
  M 303.55 120.14
  L 303.29 116.25"
/>
<path stroke="#00478e" vector-effect="non-scaling-stroke" d="
  M 161.00 166.04
  Q 158.64 165.87 156.31 166.13
  C 152.09 166.61 148.49 165.50 144.19 166.22
  A 1.95 1.76 48.0 0 1 143.23 166.12
  C 140.86 165.17 136.26 166.44 133.66 166.80
  C 131.38 167.13 128.75 166.93 126.21 167.37
  C 117.85 168.82 62.76 166.54 60.82 168.61
  Q 60.49 168.96 60.39 168.51
  Q 59.37 163.96 59.04 169.50"
/>
<path stroke="#004e95" vector-effect="non-scaling-stroke" d="
  M 211.47 156.19
  Q 200.98 157.51 190.24 157.02
  A 1.39 0.69 -50.3 0 0 189.43 157.38
  L 188.68 158.01
  A 0.47 0.36 58.5 0 1 188.07 157.78
  Q 187.74 157.09 187.04 156.75"
/>
<path stroke="#0086ca" vector-effect="non-scaling-stroke" d="
  M 413.46 95.50
  L 412.78 99.50
  A 0.62 0.54 -84.7 0 1 412.25 100.01
  Q 384.21 100.57 355.45 100.05
  A 0.93 0.79 89.5 0 1 354.68 99.16
  L 354.54 95.75"
/>
<path stroke="#0080c4" vector-effect="non-scaling-stroke" d="
  M 324.21 96.00
  L 323.50 101.68
  A 0.60 0.57 -86.6 0 1 322.93 102.21
  L 305.56 102.31
  A 1.37 0.60 1.8 0 0 304.31 102.81
  C 303.85 104.67 303.56 102.94 303.56 102.68
  Q 303.48 91.71 303.46 80.75"
/>
<path stroke="#005097" vector-effect="non-scaling-stroke" d="
  M 173.71 138.00
  L 171.05 148.74
  A 1.63 1.62 9.9 0 1 169.31 149.96
  C 162.88 149.32 156.05 150.23 149.92 149.03
  A 0.66 0.63 -71.3 0 0 149.24 149.39
  Q 148.58 150.69 148.21 148.75"
/>
<path stroke="#005ba1" vector-effect="non-scaling-stroke" d="
  M 204.46 136.25
  Q 204.53 131.60 203.58 134.71
  A 0.68 0.68 8.7 0 1 202.93 135.18
  L 185.17 135.43
  A 0.42 0.37 85.5 0 1 184.80 135.07
  C 184.53 133.35 183.54 138.73 183.54 138.75"
/>
<path stroke="#016e9b" stroke-opacity="0.729" vector-effect="non-scaling-stroke" d="
  M 341.25 53.79
  Q 332.55 55.56 327.75 62.96"
/>
<path stroke="#0095d8" vector-effect="non-scaling-stroke" d="
  M 324.46 75.00
  Q 323.33 75.37 323.78 76.84
  Q 324.13 78.00 323.93 79.19
  Q 323.46 82.11 322.55 81.15
  A 1.21 0.90 62.0 0 0 321.75 80.77
  L 307.56 81.06
  A 1.78 1.72 -61.1 0 0 306.65 81.34
  Q 303.74 83.14 303.54 79.50"
/>
<path stroke="#005ba2" vector-effect="non-scaling-stroke" d="
  M 173.79 129.00
  L 173.49 133.07
  Q 173.33 135.19 171.39 135.23
  C 168.97 135.27 154.46 135.59 153.97 134.71
  Q 153.82 134.45 153.82 134.75
  Q 153.79 136.01 153.21 134.93
  A 2.22 2.21 -50.6 0 1 153.05 133.24
  Q 153.89 130.48 152.79 130.50"
/>
<path stroke="#006ab0" vector-effect="non-scaling-stroke" d="
  M 204.46 114.00
  L 204.33 118.75
  Q 204.27 121.08 202.18 120.92
  Q 197.21 120.53 191.42 120.88
  C 189.16 121.02 186.98 122.95 184.44 120.89
  Q 184.12 120.64 184.08 121.06
  Q 184.02 121.65 183.54 122.00"
/>
<path stroke="#0067ad" vector-effect="non-scaling-stroke" d="
  M 171.29 117.00
  Q 170.69 118.19 171.50 119.00
  Q 172.80 120.31 171.25 120.25
  Q 160.75 119.86 150.26 120.99"
/>
<path stroke="#007ec3" vector-effect="non-scaling-stroke" d="
  M 204.46 100.00
  Q 204.81 103.24 202.69 102.24
  Q 202.25 102.03 201.76 102.04
  L 186.01 102.27
  A 1.35 0.85 57.7 0 1 185.17 101.87
  Q 184.16 100.91 183.54 102.75"
/>
<path stroke="#0074b9" vector-effect="non-scaling-stroke" d="
  M 168.03 109.96
  L 145.75 110.73
  A 1.93 1.03 -48.9 0 0 144.86 111.07
  C 143.25 112.15 142.81 109.73 141.00 110.04"
/>
<path stroke="#015584" stroke-opacity="0.729" vector-effect="non-scaling-stroke" d="
  M 128.75 105.21
  Q 118.39 104.49 108.00 104.79"
/>
<path stroke="#016e9b" stroke-opacity="0.729" vector-effect="non-scaling-stroke" d="
  M 221.50 53.79
  Q 210.99 55.85 206.50 65.46"
/>
<path stroke="#0094d7" vector-effect="non-scaling-stroke" d="
  M 204.57 69.48
  L 204.01 86.00
  A 1.63 1.02 76.1 0 1 203.71 86.91
  Q 203.20 87.52 202.95 86.92
  A 0.83 0.61 74.6 0 0 202.32 86.42
  L 184.75 86.46
  A 0.70 0.59 -58.8 0 0 184.37 86.59
  C 183.41 87.26 183.85 92.40 183.87 87.75
  Q 183.91 81.74 183.54 75.75"
/>
<path stroke="#007fc3" vector-effect="non-scaling-stroke" d="
  M 163.55 103.06
  Q 152.47 103.40 141.36 103.49
  C 139.58 103.50 135.21 102.71 132.94 103.94
  Q 130.58 105.21 129.10 103.87
  A 0.76 0.69 53.1 0 0 128.31 103.72
  C 126.30 104.63 124.23 104.00 122.64 104.05
  Q 111.95 104.38 101.22 103.74"
/>
<path stroke="#0089cd" vector-effect="non-scaling-stroke" d="
  M 155.81 95.07
  Q 149.49 96.67 143.08 96.40
  C 126.72 95.70 110.20 96.20 93.81 96.31
  A 0.78 0.67 -77.0 0 0 93.16 96.79
  Q 92.69 97.92 91.50 97.54"
/>
<path stroke="#006a9d" stroke-opacity="0.671" vector-effect="non-scaling-stroke" d="
  M 105.53 81.11
  L 105.50 80.54"
/>
<path stroke="#0076a8" stroke-opacity="0.671" vector-effect="non-scaling-stroke" d="
  M 173.71 79.00
  Q 141.73 79.00 109.75 79.00
  Q 106.73 79.00 105.50 80.54"
/>
<path stroke="#0096d9" vector-effect="non-scaling-stroke" d="
  M 105.50 80.54
  C 104.01 80.84 104.53 84.36 103.24 82.19
  A 1.09 0.93 75.5 0 0 102.51 81.68
  C 100.32 81.43 98.58 82.04 96.50 81.87
  Q 91.54 81.46 86.56 81.44
  A 0.59 0.50 85.5 0 1 86.05 80.93
  Q 85.93 79.99 85.04 79.50"
/>
<path stroke="#0078aa" stroke-opacity="0.659" vector-effect="non-scaling-stroke" d="
  M 107.25 53.54
  Q 87.99 54.82 81.54 72.75"
/>
<path stroke="#0095d8" vector-effect="non-scaling-stroke" d="
  M 80.29 86.00
  Q 80.49 87.65 79.26 87.16
  Q 78.77 86.96 78.32 86.97
  L 62.99 87.26
  A 1.70 1.54 -60.4 0 0 62.11 87.55
  Q 60.58 88.58 59.29 87.25"
/>
<path stroke="#0086ca" vector-effect="non-scaling-stroke" d="
  M 83.71 95.50
  L 62.46 95.69
  Q 62.16 95.70 61.88 95.79
  Q 61.50 95.92 61.00 95.54"
/>
<path stroke="#0076bc" vector-effect="non-scaling-stroke" d="
  M 97.00 107.29
  Q 96.49 107.76 96.43 108.44
  A 0.46 0.45 -85.5 0 1 95.95 108.86
  Q 95.08 108.81 94.55 109.36
  A 1.24 0.87 -60.6 0 1 93.75 109.74
  Q 80.14 109.54 70.50 110.00
  Q 68.38 110.10 67.10 108.45"
/>
<path stroke="#0068ae" vector-effect="non-scaling-stroke" d="
  M 142.57 118.08
  Q 124.25 119.69 105.86 118.93
  C 102.27 118.79 98.97 119.96 95.25 120.00
  A 0.68 0.61 80.3 0 1 94.65 119.52
  C 94.25 118.22 93.25 119.06 92.46 119.10
  Q 87.46 119.42 82.24 118.72
  A 4.36 4.32 -56.5 0 0 79.40 119.31
  Q 78.17 120.05 77.00 119.29"
/>
<path stroke="#005ea4" vector-effect="non-scaling-stroke" d="
  M 147.96 129.75
  C 144.85 129.60 129.77 128.61 128.12 130.43
  A 0.81 0.65 56.0 0 0 128.05 131.26
  Q 128.95 133.13 126.50 131.54"
/>
<path stroke="#004b80" stroke-opacity="0.659" vector-effect="non-scaling-stroke" d="
  M 120.50 131.16
  C 113.40 129.82 106.43 130.96 98.00 129.54"
/>
<path stroke="#00569c" vector-effect="non-scaling-stroke" d="
  M 145.00 145.04
  L 143.44 146.13
  Q 143.04 146.41 143.02 145.95
  L 142.94 144.31
  A 0.53 0.50 88.2 0 0 142.44 143.81
  C 115.20 143.83 88.53 144.57 60.75 143.75
  Q 60.15 143.73 60.15 144.34
  Q 60.15 144.49 60.12 144.35
  Q 59.74 142.59 59.69 144.71
  Q 59.68 145.30 59.36 144.85
  Q 59.11 144.50 59.04 144.00"
/>
<path stroke="#004179" stroke-opacity="0.635" vector-effect="non-scaling-stroke" d="
  M 136.50 153.48
  Q 127.24 156.84 117.39 156.52
  C 98.04 155.89 78.62 156.35 59.25 156.29"
/>
<path stroke="#0076a8" stroke-opacity="0.671" vector-effect="non-scaling-stroke" d="
  M 413.21 79.25
  Q 383.48 78.59 353.75 79.29"
/>
<path stroke="#008cc6" stroke-opacity="0.569" vector-effect="non-scaling-stroke" d="
  M 353.75 79.29
  Q 351.51 79.85 350.51 81.07"
/>
<path stroke="#0098da" vector-effect="non-scaling-stroke" d="
  M 350.51 81.07
  L 332.06 80.79
  A 1.78 1.02 -49.9 0 0 331.16 81.12
  Q 329.40 82.32 329.38 79.83"
/>
<path stroke="#0086ca" vector-effect="non-scaling-stroke" d="
  M 349.96 92.50
  Q 349.37 91.51 349.49 92.66
  A 0.54 0.53 -20.4 0 1 349.26 93.15
  C 345.18 95.95 336.36 95.11 331.56 94.84
  A 1.14 0.91 -63.6 0 0 330.75 95.22
  C 328.89 97.29 330.46 89.75 329.29 93.50"
/>
<path stroke="#0080bb" stroke-opacity="0.569" vector-effect="non-scaling-stroke" d="
  M 350.29 83.00
  Q 350.08 82.55 350.51 81.07"
/>
<path stroke="#006eb3" vector-effect="non-scaling-stroke" d="
  M 349.96 115.75
  Q 337.60 116.24 332.00 116.00
  Q 331.14 115.96 330.65 116.32
  A 0.39 0.33 -31.4 0 1 330.10 116.23
  L 329.29 114.50"
/>
<path stroke="#005ba1" vector-effect="non-scaling-stroke" d="
  M 387.71 133.25
  L 387.42 135.59
  A 2.06 1.99 -89.5 0 1 385.67 137.37
  C 377.06 138.34 367.99 137.49 360.67 137.71
  Q 346.59 138.15 332.50 137.76
  Q 332.07 137.75 331.56 137.98
  Q 329.71 138.80 329.29 136.50"
/>
<path stroke="#0067ad" vector-effect="non-scaling-stroke" d="
  M 387.71 118.00
  C 387.04 119.90 386.50 116.79 385.11 117.90
  A 1.55 0.95 -53.7 0 1 384.26 118.25
  Q 370.75 118.25 357.23 118.25
  C 356.58 118.25 355.84 118.79 355.34 117.93
  A 0.26 0.24 -34.1 0 0 354.96 117.87
  Q 354.79 118.01 354.54 118.00"
/>
<path stroke="#003f74" stroke-opacity="0.671" vector-effect="non-scaling-stroke" d="
  M 387.60 156.27
  Q 365.55 156.23 343.75 156.25
  Q 341.11 156.25 336.75 153.79"
/>
<path stroke="#005071" stroke-opacity="0.992" vector-effect="non-scaling-stroke" d="
  M 295.50 79.54
  Q 291.04 78.48 286.50 79.21"
/>
<path stroke="#005071" stroke-opacity="0.992" vector-effect="non-scaling-stroke" d="
  M 285.00 79.21
  Q 284.04 78.87 283.00 78.96"
/>
<path stroke="#0099dc" vector-effect="non-scaling-stroke" d="
  M 283.00 78.96
  C 278.51 77.91 273.74 79.59 269.87 77.44
  Q 269.40 77.18 268.95 77.17
  L 259.00 77.00
  A 0.56 0.45 -84.5 0 0 258.53 77.49
  Q 258.42 78.46 256.50 78.00
  Q 253.25 77.22 252.00 77.25
  Q 245.80 77.39 239.62 77.21
  C 229.97 76.91 220.74 77.44 211.25 77.25
  A 1.27 0.97 1.3 0 1 210.00 76.25
  Q 210.08 72.13 209.46 75.75"
/>
<path stroke="#004b6d" stroke-opacity="0.992" vector-effect="non-scaling-stroke" d="
  M 283.00 78.96
  L 263.75 79.04"
/>
<path stroke="#0071a4" stroke-opacity="0.659" vector-effect="non-scaling-stroke" d="
  M 263.75 79.04
  Q 239.24 78.84 233.81 79.06
  Q 231.47 79.16 230.54 82.00"
/>
<path stroke="#008ed2" vector-effect="non-scaling-stroke" d="
  M 279.75 83.79
  L 279.98 88.69
  Q 280.01 89.14 279.58 88.83
  C 279.01 88.40 277.97 88.75 277.43 88.75
  Q 243.35 88.57 209.29 88.31"
/>
<path stroke="#006598" stroke-opacity="0.671" vector-effect="non-scaling-stroke" d="
  M 280.37 105.34
  Q 274.45 104.75 266.75 104.75
  Q 238.15 104.75 209.54 104.75"
/>
<path stroke="#0068ae" vector-effect="non-scaling-stroke" d="
  M 280.71 119.50
  L 279.96 122.41
  Q 279.89 122.68 279.77 122.47
  L 279.64 122.23
  A 0.95 0.62 71.3 0 0 279.00 121.73
  C 272.86 121.53 211.74 120.47 211.20 121.01
  A 0.93 0.37 -48.9 0 1 210.45 121.40
  C 209.86 121.18 209.55 113.35 209.46 112.25"
/>
<path stroke="#004b80" stroke-opacity="0.659" vector-effect="non-scaling-stroke" d="
  M 279.00 131.29
  C 269.03 130.23 256.56 130.63 249.28 130.55
  Q 239.64 130.45 230.00 130.79"
/>
<path stroke="#005ea4" vector-effect="non-scaling-stroke" d="
  M 230.00 130.79
  C 228.95 131.97 230.15 132.62 230.45 133.62
  C 231.43 136.91 229.06 133.92 228.09 134.64
  A 1.57 0.55 -44.6 0 1 227.26 135.03
  C 221.32 135.38 212.03 134.65 210.59 135.83
  Q 210.04 136.29 210.01 135.57
  L 209.29 115.25"
/>
<path stroke="#004479" stroke-opacity="0.659" vector-effect="non-scaling-stroke" d="
  M 230.00 130.79
  Q 229.91 132.30 230.69 132.61"
/>
<path stroke="#00569c" vector-effect="non-scaling-stroke" d="
  M 295.46 147.50
  Q 295.41 143.23 294.66 145.28
  Q 294.51 145.68 294.35 145.28
  Q 293.85 144.04 292.69 143.94
  Q 282.37 143.05 268.25 143.12
  Q 240.03 143.28 211.81 143.07
  Q 211.50 143.06 210.92 143.37
  Q 210.27 143.72 209.56 143.01"
/>
<path stroke="#003f75" stroke-opacity="0.659" vector-effect="non-scaling-stroke" d="
  M 284.75 156.46
  L 259.50 156.29"
/>
<path stroke="#083156" stroke-opacity="0.976" vector-effect="non-scaling-stroke" d="
  M 259.50 156.29
  L 254.75 156.04"
/>
<path stroke="#003f75" stroke-opacity="0.659" vector-effect="non-scaling-stroke" d="
  M 254.75 156.04
  Q 244.22 155.98 233.68 155.99
  C 223.93 156.00 218.93 156.68 213.00 150.29"
/>
<path stroke="#868787" stroke-opacity="0.961" vector-effect="non-scaling-stroke" d="
  M 387.21 237.93
  Q 359.96 237.37 332.99 238.08"
/>
<path stroke="#0094d7" vector-effect="non-scaling-stroke" d="
  M 500.00 87.21
  C 491.47 87.83 482.52 86.82 474.20 88.07
  Q 470.84 88.57 467.70 87.08"
/>
<path stroke="#0088cc" vector-effect="non-scaling-stroke" d="
  M 502.50 94.71
  Q 501.92 95.57 501.18 95.26
  A 1.58 0.94 37.1 0 0 500.27 95.16
  Q 499.10 95.48 497.25 95.50
  Q 481.12 95.64 464.94 95.47"
/>
<path stroke="#007fc3" vector-effect="non-scaling-stroke" d="
  M 505.04 102.00
  Q 504.57 103.57 502.69 103.51
  Q 483.24 102.84 463.81 103.67
  A 0.89 0.76 -13.4 0 1 463.03 103.27
  Q 462.66 102.60 462.71 101.75"
/>
<path stroke="#0074b9" vector-effect="non-scaling-stroke" d="
  M 507.56 109.80
  Q 493.08 111.09 485.50 110.50
  Q 469.81 109.28 464.25 110.00
  Q 461.02 110.42 460.71 107.75"
/>
<path stroke="#0067ad" vector-effect="non-scaling-stroke" d="
  M 511.02 119.85
  L 487.63 120.50
  A 0.59 0.57 85.1 0 1 487.04 119.99
  Q 486.79 118.33 486.04 117.75"
/>
<path stroke="#0067ad" vector-effect="non-scaling-stroke" d="
  M 481.96 117.25
  C 480.36 118.17 481.28 121.68 478.94 120.50
  Q 478.44 120.26 478.00 120.25
  L 458.57 120.20
  A 1.41 0.95 -13.9 0 1 457.67 119.87
  Q 457.07 119.26 457.21 118.25"
/>
<path stroke="#005ba2" vector-effect="non-scaling-stroke" d="
  M 515.50 133.21
  Q 514.26 134.95 513.25 135.00
  Q 504.01 135.43 494.75 135.25
  Q 493.19 135.22 491.00 134.75
  Q 490.43 134.63 490.07 134.88
  A 1.36 0.34 -39.8 0 1 489.25 135.28
  Q 482.12 135.74 473.25 135.25
  Q 463.22 134.69 451.17 135.88"
/>
<path stroke="#004177" stroke-opacity="0.659" vector-effect="non-scaling-stroke" d="
  M 522.98 156.39
  L 475.11 156.41"
/>
<path stroke="#004f96" vector-effect="non-scaling-stroke" d="
  M 472.96 143.50
  L 470.61 149.02
  A 0.83 0.64 -77.3 0 1 469.99 149.53
  Q 458.41 150.22 446.93 148.76"
/>
<path stroke="#003971" stroke-opacity="0.635" vector-effect="non-scaling-stroke" d="
  M 459.75 182.04
  L 435.77 182.10"
/>
</g>
<path fill="#009ee0" d="
  M 527.00 87.21
  C 520.68 88.73 516.08 87.84 510.28 87.98
  C 508.80 88.01 507.18 87.45 506.47 89.22
  Q 506.33 89.57 506.25 89.20
  Q 506.05 88.17 505.25 87.54
  Q 500.43 73.11 495.35 58.78
  Q 493.52 53.62 491.30 51.53
  C 485.26 45.85 475.57 48.94 472.97 56.70
  Q 468.38 70.42 463.50 84.04
  L 461.80 87.87
  A 0.25 0.21 -54.9 0 1 461.43 87.97
  L 461.21 87.70
  A 1.02 0.57 59.4 0 0 460.50 87.29
  Q 450.61 88.04 440.75 86.96
  C 444.54 75.40 448.70 63.96 452.38 52.38
  C 460.80 25.93 498.32 22.55 512.16 45.52
  Q 514.02 48.62 519.28 64.16
  Q 523.18 75.67 527.00 87.21
  Z"
/>
<path fill="#009ee0" d="
  M 107.25 53.54
  Q 87.99 54.82 81.54 72.75
  Q 79.33 79.20 80.29 86.00
  Q 80.49 87.65 79.26 87.16
  Q 78.77 86.96 78.32 86.97
  L 62.99 87.26
  A 1.70 1.54 -60.4 0 0 62.11 87.55
  Q 60.58 88.58 59.29 87.25
  C 56.72 62.02 72.78 39.48 96.96 33.96
  Q 103.36 32.50 116.66 32.49
  Q 144.93 32.47 173.20 32.56
  A 0.53 0.52 88.2 0 1 173.72 33.06
  Q 174.35 43.43 173.82 53.61
  A 0.67 0.67 -88.7 0 1 173.15 54.25
  Q 159.36 54.25 145.92 54.25
  C 134.80 54.25 120.20 53.15 107.25 53.54
  Z"
/>
<path fill="#009ee0" d="
  M 221.50 53.79
  Q 210.99 55.85 206.50 65.46
  L 204.57 69.48
  L 204.01 86.00
  A 1.63 1.02 76.1 0 1 203.71 86.91
  Q 203.20 87.52 202.95 86.92
  A 0.83 0.61 74.6 0 0 202.32 86.42
  L 184.75 86.46
  A 0.70 0.59 -58.8 0 0 184.37 86.59
  C 183.41 87.26 183.85 92.40 183.87 87.75
  Q 183.91 81.74 183.54 75.75
  C 184.27 50.01 202.14 32.06 228.25 32.25
  Q 261.25 32.50 294.90 32.50
  A 0.85 0.85 -0.2 0 1 295.75 33.35
  L 295.75 53.34
  A 0.66 0.66 -0.2 0 1 295.09 54.00
  Q 275.60 54.00 256.43 54.00
  C 254.22 54.00 251.52 53.51 248.75 53.50
  Q 230.74 53.45 221.50 53.79
  Z"
/>
<path fill="#009ee0" d="
  M 341.25 53.79
  Q 332.55 55.56 327.75 62.96
  Q 324.17 68.41 324.46 75.00
  Q 323.33 75.37 323.78 76.84
  Q 324.13 78.00 323.93 79.19
  Q 323.46 82.11 322.55 81.15
  A 1.21 0.90 62.0 0 0 321.75 80.77
  L 307.56 81.06
  A 1.78 1.72 -61.1 0 0 306.65 81.34
  Q 303.74 83.14 303.54 79.50
  Q 303.17 70.68 303.81 67.56
  C 308.24 46.01 324.86 32.47 346.75 32.46
  Q 379.84 32.45 412.54 32.56
  A 0.95 0.93 0.3 0 1 413.49 33.50
  L 413.33 53.32
  A 0.53 0.51 -0.0 0 1 412.81 53.82
  C 384.20 54.35 365.05 52.76 341.25 53.79
  Z"
/>
<path fill="#009bdd" d="
  M 500.00 87.21
  C 491.47 87.83 482.52 86.82 474.20 88.07
  Q 470.84 88.57 467.70 87.08
  Q 472.27 72.74 477.40 58.77
  Q 478.47 55.86 480.27 54.58
  C 485.51 50.85 489.17 55.10 490.90 59.99
  Q 495.69 73.52 500.00 87.21
  Z"
/>
<path fill="#020202" fill-opacity="0.318" d="
  M 107.25 53.54
  Q 105.97 54.07 104.74 54.65
  C 102.45 55.73 100.43 55.32 98.15 56.95
  A 1.47 1.18 24.8 0 1 97.26 57.17
  Q 96.07 57.09 94.69 57.94
  Q 85.47 63.60 81.54 72.75
  Q 87.99 54.82 107.25 53.54
  Z"
/>
<path fill="#020402" fill-opacity="0.455" d="
  M 221.50 53.79
  C 221.42 55.26 218.00 55.69 216.61 56.91
  A 1.82 1.74 16.8 0 1 215.76 57.34
  C 210.95 58.28 209.24 62.00 206.50 65.46
  Q 210.99 55.85 221.50 53.79
  Z"
/>
<path fill="#020402" fill-opacity="0.455" d="
  M 341.25 53.79
  Q 338.91 56.02 335.78 57.08
  C 331.28 58.59 330.76 60.78 327.75 62.96
  Q 332.55 55.56 341.25 53.79
  Z"
/>
<path fill="#009ee0" d="
  M 413.21 79.25
  Q 383.48 78.59 353.75 79.29
  Q 351.51 79.85 350.51 81.07
  L 332.06 80.79
  A 1.78 1.02 -49.9 0 0 331.16 81.12
  Q 329.40 82.32 329.38 79.83
  Q 327.64 64.17 338.75 59.85
  Q 342.89 58.25 355.93 58.25
  Q 384.08 58.25 412.94 58.25
  A 0.53 0.51 0.5 0 1 413.47 58.77
  L 413.21 79.25
  Z"
/>
<path fill="#009ee0" d="
  M 173.71 79.00
  Q 141.73 79.00 109.75 79.00
  Q 106.73 79.00 105.50 80.54
  C 104.01 80.84 104.53 84.36 103.24 82.19
  A 1.09 0.93 75.5 0 0 102.51 81.68
  C 100.32 81.43 98.58 82.04 96.50 81.87
  Q 91.54 81.46 86.56 81.44
  A 0.59 0.50 85.5 0 1 86.05 80.93
  Q 85.93 79.99 85.04 79.50
  C 86.02 68.72 94.16 59.90 104.99 58.57
  Q 105.41 58.52 115.01 58.47
  Q 143.49 58.31 173.12 58.51
  A 0.86 0.84 0.7 0 1 173.97 59.36
  L 173.71 79.00
  Z"
/>
<path fill="#009ee0" d="
  M 295.50 79.54
  Q 291.04 78.48 286.50 79.21
  L 285.00 79.21
  Q 284.04 78.87 283.00 78.96
  C 278.51 77.91 273.74 79.59 269.87 77.44
  Q 269.40 77.18 268.95 77.17
  L 259.00 77.00
  A 0.56 0.45 -84.5 0 0 258.53 77.49
  Q 258.42 78.46 256.50 78.00
  Q 253.25 77.22 252.00 77.25
  Q 245.80 77.39 239.62 77.21
  C 229.97 76.91 220.74 77.44 211.25 77.25
  A 1.27 0.97 1.3 0 1 210.00 76.25
  Q 210.08 72.13 209.46 75.75
  C 209.50 62.56 217.58 58.27 229.14 58.23
  Q 262.10 58.13 295.06 58.43
  A 0.54 0.53 -1.1 0 1 295.59 58.93
  Q 296.06 69.24 295.50 79.54
  Z"
/>
<path fill="#0089cd" d="
  M 204.57 69.48
  L 204.46 100.00
  Q 204.81 103.24 202.69 102.24
  Q 202.25 102.03 201.76 102.04
  L 186.01 102.27
  A 1.35 0.85 57.7 0 1 185.17 101.87
  Q 184.16 100.91 183.54 102.75
  L 183.54 75.75
  Q 183.91 81.74 183.87 87.75
  C 183.85 92.40 183.41 87.26 184.37 86.59
  A 0.70 0.59 -58.8 0 1 184.75 86.46
  L 202.32 86.42
  A 0.83 0.61 74.6 0 1 202.95 86.92
  Q 203.20 87.52 203.71 86.91
  A 1.63 1.02 76.1 0 0 204.01 86.00
  L 204.57 69.48
  Z"
/>
<path fill="#0094d8" d="
  M 283.00 78.96
  L 263.75 79.04
  Q 239.24 78.84 233.81 79.06
  Q 231.47 79.16 230.54 82.00
  Q 229.81 82.84 230.25 83.56
  A 1.04 0.71 -10.0 0 0 231.07 83.93
  L 279.75 83.79
  L 279.98 88.69
  Q 280.01 89.14 279.58 88.83
  C 279.01 88.40 277.97 88.75 277.43 88.75
  Q 243.35 88.57 209.29 88.31
  L 209.46 75.75
  Q 210.08 72.13 210.00 76.25
  A 1.27 0.97 1.3 0 0 211.25 77.25
  C 220.74 77.44 229.97 76.91 239.62 77.21
  Q 245.80 77.39 252.00 77.25
  Q 253.25 77.22 256.50 78.00
  Q 258.42 78.46 258.53 77.49
  A 0.56 0.45 -84.5 0 1 259.00 77.00
  L 268.95 77.17
  Q 269.40 77.18 269.87 77.44
  C 273.74 79.59 278.51 77.91 283.00 78.96
  Z"
/>
<path fill="#008cd0" d="
  M 324.46 75.00
  L 324.21 96.00
  L 323.50 101.68
  A 0.60 0.57 -86.6 0 1 322.93 102.21
  L 305.56 102.31
  A 1.37 0.60 1.8 0 0 304.31 102.81
  C 303.85 104.67 303.56 102.94 303.56 102.68
  Q 303.48 91.71 303.46 80.75
  L 303.54 79.50
  Q 303.74 83.14 306.65 81.34
  A 1.78 1.72 -61.1 0 1 307.56 81.06
  L 321.75 80.77
  A 1.21 0.90 62.0 0 1 322.55 81.15
  Q 323.46 82.11 323.93 79.19
  Q 324.13 78.00 323.78 76.84
  Q 323.33 75.37 324.46 75.00
  Z"
/>
<path fill="#000001" fill-opacity="0.984" d="
  M 283.00 78.96
  Q 284.04 78.87 285.00 79.21
  Q 278.91 80.05 272.75 79.71
  L 263.75 79.04
  L 283.00 78.96
  Z"
/>
<path fill="#010102" fill-opacity="0.341" d="
  M 173.71 79.00
  Q 173.75 80.02 173.28 80.83
  A 0.95 0.84 12.5 0 1 172.50 81.26
  C 153.82 81.69 135.19 81.26 116.52 81.35
  Q 111.02 81.38 105.53 81.11
  L 105.50 80.54
  Q 106.73 79.00 109.75 79.00
  Q 141.73 79.00 173.71 79.00
  Z"
/>
<path fill="#020202" fill-opacity="0.318" d="
  M 263.75 79.04
  L 272.75 79.71
  Q 270.46 79.56 271.21 81.24
  A 0.45 0.40 70.2 0 1 270.97 81.84
  Q 269.17 82.36 267.60 81.36
  A 1.86 1.30 53.2 0 0 266.69 81.06
  Q 251.43 80.96 236.18 81.00
  C 234.07 81.00 232.55 79.86 230.54 82.00
  Q 231.47 79.16 233.81 79.06
  Q 239.24 78.84 263.75 79.04
  Z"
/>
<path fill="#000001" fill-opacity="0.984" d="
  M 295.50 79.54
  Q 290.99 79.97 286.50 79.21
  Q 291.04 78.48 295.50 79.54
  Z"
/>
<path fill="#010102" fill-opacity="0.341" d="
  M 413.21 79.25
  Q 413.17 79.51 412.96 79.75
  Q 412.23 80.72 410.00 80.75
  Q 383.13 81.13 355.48 81.00
  A 0.65 0.64 2.5 0 1 354.84 80.31
  Q 354.89 79.52 353.75 79.29
  Q 383.48 78.59 413.21 79.25
  Z"
/>
<path fill="#020101" fill-opacity="0.133" d="
  M 353.75 79.29
  Q 354.89 79.52 354.84 80.31
  A 0.65 0.64 2.5 0 0 355.48 81.00
  Q 383.13 81.13 410.00 80.75
  Q 412.23 80.72 412.96 79.75
  Q 413.48 81.22 412.25 81.25
  Q 388.95 81.89 352.25 81.25
  Q 350.87 81.23 350.29 83.00
  Q 350.08 82.55 350.51 81.07
  Q 351.51 79.85 353.75 79.29
  Z"
/>
<path fill="#008ed2" d="
  M 85.04 79.50
  Q 85.93 79.99 86.05 80.93
  A 0.59 0.50 85.5 0 0 86.56 81.44
  Q 91.54 81.46 96.50 81.87
  C 98.58 82.04 100.32 81.43 102.51 81.68
  A 1.09 0.93 75.5 0 1 103.24 82.19
  C 104.53 84.36 104.01 80.84 105.50 80.54
  L 105.53 81.11
  Q 105.34 82.52 106.45 83.61
  A 1.32 1.07 -18.4 0 0 107.32 83.94
  C 125.52 84.13 140.36 82.28 155.81 95.07
  Q 149.49 96.67 143.08 96.40
  C 126.72 95.70 110.20 96.20 93.81 96.31
  A 0.78 0.67 -77.0 0 0 93.16 96.79
  Q 92.69 97.92 91.50 97.54
  Q 83.90 90.18 85.04 79.50
  Z"
/>
<path fill="#0091d4" d="
  M 329.38 79.83
  Q 329.40 82.32 331.16 81.12
  A 1.78 1.02 -49.9 0 1 332.06 80.79
  L 350.51 81.07
  Q 350.08 82.55 350.29 83.00
  L 349.96 92.50
  Q 349.37 91.51 349.49 92.66
  A 0.54 0.53 -20.4 0 1 349.26 93.15
  C 345.18 95.95 336.36 95.11 331.56 94.84
  A 1.14 0.91 -63.6 0 0 330.75 95.22
  C 328.89 97.29 330.46 89.75 329.29 93.50
  L 329.38 79.83
  Z"
/>
<path fill="#0073b8" d="
  M 303.46 80.75
  Q 303.48 91.71 303.56 102.68
  C 303.56 102.94 303.85 104.67 304.31 102.81
  A 1.37 0.60 1.8 0 1 305.56 102.31
  L 322.93 102.21
  A 0.60 0.57 -86.6 0 0 323.50 101.68
  L 324.21 96.00
  L 324.21 117.50
  C 324.54 119.56 323.99 120.43 321.88 120.45
  Q 312.69 120.51 303.55 120.14
  L 303.29 116.25
  L 303.46 80.75
  Z"
/>
<path fill="#0087cb" d="
  M 279.75 83.79
  C 281.24 84.21 280.74 85.52 280.77 86.62
  Q 281.04 95.98 280.37 105.34
  Q 274.45 104.75 266.75 104.75
  Q 238.15 104.75 209.54 104.75
  L 209.29 88.31
  Q 243.35 88.57 277.43 88.75
  C 277.97 88.75 279.01 88.40 279.58 88.83
  Q 280.01 89.14 279.98 88.69
  L 279.75 83.79
  Z"
/>
<path fill="#008cd0" d="
  M 413.46 95.50
  L 412.78 99.50
  A 0.62 0.54 -84.7 0 1 412.25 100.01
  Q 384.21 100.57 355.45 100.05
  A 0.93 0.79 89.5 0 1 354.68 99.16
  L 354.54 95.75
  L 354.73 84.37
  A 0.66 0.63 0.4 0 1 355.39 83.75
  L 412.68 83.81
  A 0.55 0.51 -0.5 0 1 413.23 84.31
  L 413.46 95.50
  Z"
/>
<path fill="#0089cd" d="
  M 463.50 84.04
  L 460.01 94.42
  Q 458.14 98.31 456.91 102.49
  C 456.74 103.05 455.99 103.74 455.79 102.72
  A 0.57 0.56 84.4 0 0 455.24 102.26
  L 437.28 102.42
  A 0.85 0.83 11.3 0 1 436.49 101.26
  Q 436.97 100.18 436.71 99.00
  L 440.75 86.96
  Q 450.61 88.04 460.50 87.29
  A 1.02 0.57 59.4 0 1 461.21 87.70
  L 461.43 87.97
  A 0.25 0.21 -54.9 0 0 461.80 87.87
  L 463.50 84.04
  Z"
/>
<path fill="#008cd0" d="
  M 80.29 86.00
  Q 81.30 91.00 83.71 95.50
  L 62.46 95.69
  Q 62.16 95.70 61.88 95.79
  Q 61.50 95.92 61.00 95.54
  L 59.29 87.25
  Q 60.58 88.58 62.11 87.55
  A 1.70 1.54 -60.4 0 1 62.99 87.26
  L 78.32 86.97
  Q 78.77 86.96 79.26 87.16
  Q 80.49 87.65 80.29 86.00
  Z"
/>
<path fill="#008cd0" d="
  M 467.70 87.08
  Q 470.84 88.57 474.20 88.07
  C 482.52 86.82 491.47 87.83 500.00 87.21
  L 502.50 94.71
  Q 501.92 95.57 501.18 95.26
  A 1.58 0.94 37.1 0 0 500.27 95.16
  Q 499.10 95.48 497.25 95.50
  Q 481.12 95.64 464.94 95.47
  L 467.70 87.08
  Z"
/>
<path fill="#0089cd" d="
  M 527.00 87.21
  L 531.59 100.81
  Q 528.04 103.26 523.75 102.68
  C 519.33 102.08 513.87 103.14 509.79 101.50
  L 505.25 87.54
  Q 506.05 88.17 506.25 89.20
  Q 506.33 89.57 506.47 89.22
  C 507.18 87.45 508.80 88.01 510.28 87.98
  C 516.08 87.84 520.68 88.73 527.00 87.21
  Z"
/>
<path fill="#007abf" d="
  M 349.96 92.50
  L 349.96 115.75
  Q 337.60 116.24 332.00 116.00
  Q 331.14 115.96 330.65 116.32
  A 0.39 0.33 -31.4 0 1 330.10 116.23
  L 329.29 114.50
  L 329.29 93.50
  C 330.46 89.75 328.89 97.29 330.75 95.22
  A 1.14 0.91 -63.6 0 1 331.56 94.84
  C 336.36 95.11 345.18 95.95 349.26 93.15
  A 0.54 0.53 -20.4 0 0 349.49 92.66
  Q 349.37 91.51 349.96 92.50
  Z"
/>
<path fill="#0073b8" d="
  M 460.01 94.42
  L 454.76 110.29
  L 451.75 117.41
  A 2.51 2.18 -76.9 0 1 449.64 118.94
  L 431.81 118.93
  A 0.63 0.52 82.5 0 1 431.28 118.44
  Q 431.14 117.85 430.50 117.46
  L 436.71 99.00
  Q 436.97 100.18 436.49 101.26
  A 0.85 0.83 11.3 0 0 437.28 102.42
  L 455.24 102.26
  A 0.57 0.56 84.4 0 1 455.79 102.72
  C 455.99 103.74 456.74 103.05 456.91 102.49
  Q 458.14 98.31 460.01 94.42
  Z"
/>
<path fill="#0083c7" d="
  M 502.50 94.71
  L 505.04 102.00
  Q 504.57 103.57 502.69 103.51
  Q 483.24 102.84 463.81 103.67
  A 0.89 0.76 -13.4 0 1 463.03 103.27
  Q 462.66 102.60 462.71 101.75
  L 464.94 95.47
  Q 481.12 95.64 497.25 95.50
  Q 499.10 95.48 500.27 95.16
  A 1.58 0.94 37.1 0 1 501.18 95.26
  Q 501.92 95.57 502.50 94.71
  Z"
/>
<path fill="#007fc4" d="
  M 83.71 95.50
  Q 88.38 103.62 97.00 107.29
  Q 96.49 107.76 96.43 108.44
  A 0.46 0.45 -85.5 0 1 95.95 108.86
  Q 95.08 108.81 94.55 109.36
  A 1.24 0.87 -60.6 0 1 93.75 109.74
  Q 80.14 109.54 70.50 110.00
  Q 68.38 110.10 67.10 108.45
  Q 62.95 102.54 61.00 95.54
  Q 61.50 95.92 61.88 95.79
  Q 62.16 95.70 62.46 95.69
  L 83.71 95.50
  Z"
/>
<path fill="#0083c7" d="
  M 155.81 95.07
  Q 159.98 98.17 163.55 103.06
  Q 152.47 103.40 141.36 103.49
  C 139.58 103.50 135.21 102.71 132.94 103.94
  Q 130.58 105.21 129.10 103.87
  A 0.76 0.69 53.1 0 0 128.31 103.72
  C 126.30 104.63 124.23 104.00 122.64 104.05
  Q 111.95 104.38 101.22 103.74
  Q 95.37 102.07 91.50 97.54
  Q 92.69 97.92 93.16 96.79
  A 0.78 0.67 -77.0 0 1 93.81 96.31
  C 110.20 96.20 126.72 95.70 143.08 96.40
  Q 149.49 96.67 155.81 95.07
  Z"
/>
<path fill="#007fc4" d="
  M 413.46 95.50
  L 413.46 103.00
  L 413.25 103.04
  Q 412.81 103.96 413.08 105.44
  A 0.86 0.84 -4.9 0 1 412.22 106.44
  L 395.75 106.24
  Q 395.36 106.24 394.82 106.52
  Q 393.45 107.22 392.71 105.75
  Q 392.80 105.24 392.56 104.90
  A 1.15 0.70 -10.6 0 0 391.69 104.57
  Q 373.24 105.07 354.79 104.50
  L 354.54 95.75
  L 354.68 99.16
  A 0.93 0.79 89.5 0 0 355.45 100.05
  Q 384.21 100.57 412.25 100.01
  A 0.62 0.54 -84.7 0 0 412.78 99.50
  L 413.46 95.50
  Z"
/>
<path fill="#0073b8" d="
  M 204.46 100.00
  L 204.46 114.00
  L 204.33 118.75
  Q 204.27 121.08 202.18 120.92
  Q 197.21 120.53 191.42 120.88
  C 189.16 121.02 186.98 122.95 184.44 120.89
  Q 184.12 120.64 184.08 121.06
  Q 184.02 121.65 183.54 122.00
  L 183.54 102.75
  Q 184.16 100.91 185.17 101.87
  A 1.35 0.85 57.7 0 0 186.01 102.27
  L 201.76 102.04
  Q 202.25 102.03 202.69 102.24
  Q 204.81 103.24 204.46 100.00
  Z"
/>
<path fill="#0073b8" d="
  M 531.59 100.81
  L 537.50 118.44
  Q 528.43 120.76 519.06 119.56
  Q 516.23 119.20 516.00 118.25
  Q 515.01 114.19 513.00 110.54
  L 509.79 101.50
  C 513.87 103.14 519.33 102.08 523.75 102.68
  Q 528.04 103.26 531.59 100.81
  Z"
/>
<path fill="#007abf" d="
  M 462.71 101.75
  Q 462.66 102.60 463.03 103.27
  A 0.89 0.76 -13.4 0 0 463.81 103.67
  Q 483.24 102.84 502.69 103.51
  Q 504.57 103.57 505.04 102.00
  L 507.56 109.80
  Q 493.08 111.09 485.50 110.50
  Q 469.81 109.28 464.25 110.00
  Q 461.02 110.42 460.71 107.75
  L 462.71 101.75
  Z"
/>
<path fill="#007abf" d="
  M 163.55 103.06
  Q 166.12 105.56 168.03 109.96
  L 145.75 110.73
  A 1.93 1.03 -48.9 0 0 144.86 111.07
  C 143.25 112.15 142.81 109.73 141.00 110.04
  Q 135.51 106.06 128.75 105.21
  Q 118.39 104.49 108.00 104.79
  L 101.22 103.74
  Q 111.95 104.38 122.64 104.05
  C 124.23 104.00 126.30 104.63 128.31 103.72
  A 0.76 0.69 53.1 0 1 129.10 103.87
  Q 130.58 105.21 132.94 103.94
  C 135.21 102.71 139.58 103.50 141.36 103.49
  Q 152.47 103.40 163.55 103.06
  Z"
/>
<path fill="#0073b8" d="
  M 413.25 103.04
  L 413.03 115.49
  A 0.53 0.51 0.6 0 1 412.50 115.99
  L 393.32 115.81
  A 0.63 0.62 4.0 0 1 392.70 115.10
  Q 392.91 113.59 392.54 112.50
  L 392.46 106.75
  Q 392.38 106.12 392.71 105.75
  Q 393.45 107.22 394.82 106.52
  Q 395.36 106.24 395.75 106.24
  L 412.22 106.44
  A 0.86 0.84 -4.9 0 0 413.08 105.44
  Q 412.81 103.96 413.25 103.04
  Z"
/>
<path fill="#0062a8" d="
  M 413.25 103.04
  L 413.46 103.00
  L 413.46 141.00
  L 413.29 141.00
  Q 413.22 137.50 413.12 134.00
  Q 413.09 133.08 413.12 134.00
  Q 413.18 135.88 412.80 137.70
  A 0.49 0.46 13.1 0 1 412.21 138.04
  L 411.05 137.77
  A 0.79 0.61 87.0 0 1 410.56 137.20
  Q 410.41 136.51 409.25 136.50
  Q 401.99 136.45 394.73 136.56
  A 1.08 0.54 -55.1 0 0 394.08 136.91
  Q 393.82 137.17 393.54 136.90
  Q 393.32 136.69 393.38 136.98
  Q 393.68 138.44 392.54 138.75
  L 392.54 112.50
  Q 392.91 113.59 392.70 115.10
  A 0.63 0.62 4.0 0 0 393.32 115.81
  L 412.50 115.99
  A 0.53 0.51 0.6 0 0 413.03 115.49
  L 413.25 103.04
  Z"
/>
<path fill="#020202" fill-opacity="0.318" d="
  M 354.79 104.50
  Q 373.24 105.07 391.69 104.57
  A 1.15 0.70 -10.6 0 1 392.56 104.90
  Q 392.80 105.24 392.71 105.75
  Q 392.38 106.12 392.46 106.75
  Q 375.18 106.75 357.90 106.75
  C 356.11 106.75 354.42 107.28 354.79 104.50
  Z"
/>
<path fill="#020402" fill-opacity="0.455" d="
  M 108.00 104.79
  Q 118.39 104.49 128.75 105.21
  Q 118.34 106.08 108.00 104.79
  Z"
/>
<path fill="#010102" fill-opacity="0.341" d="
  M 209.54 104.75
  Q 238.15 104.75 266.75 104.75
  Q 274.45 104.75 280.37 105.34
  L 274.74 105.80
  A 1.25 1.19 -68.3 0 0 273.96 106.16
  C 272.36 107.74 217.27 106.71 210.56 106.69
  A 0.70 0.57 80.0 0 1 209.98 106.19
  L 209.54 104.75
  Z"
/>
<path fill="#006db3" d="
  M 97.00 107.29
  C 111.51 113.37 130.10 103.45 142.57 118.08
  Q 124.25 119.69 105.86 118.93
  C 102.27 118.79 98.97 119.96 95.25 120.00
  A 0.68 0.61 80.3 0 1 94.65 119.52
  C 94.25 118.22 93.25 119.06 92.46 119.10
  Q 87.46 119.42 82.24 118.72
  A 4.36 4.32 -56.5 0 0 79.40 119.31
  Q 78.17 120.05 77.00 119.29
  Q 70.98 114.89 67.10 108.45
  Q 68.38 110.10 70.50 110.00
  Q 80.14 109.54 93.75 109.74
  A 1.24 0.87 -60.6 0 0 94.55 109.36
  Q 95.08 108.81 95.95 108.86
  A 0.46 0.45 -85.5 0 0 96.43 108.44
  Q 96.49 107.76 97.00 107.29
  Z"
/>
<path fill="#006db3" d="
  M 460.71 107.75
  Q 461.02 110.42 464.25 110.00
  Q 469.81 109.28 485.50 110.50
  Q 493.08 111.09 507.56 109.80
  L 511.02 119.85
  L 487.63 120.50
  A 0.59 0.57 85.1 0 1 487.04 119.99
  Q 486.79 118.33 486.04 117.75
  L 484.21 112.69
  Q 483.74 111.40 483.33 112.74
  L 481.96 117.25
  C 480.36 118.17 481.28 121.68 478.94 120.50
  Q 478.44 120.26 478.00 120.25
  L 458.57 120.20
  A 1.41 0.95 -13.9 0 1 457.67 119.87
  Q 457.07 119.26 457.21 118.25
  L 460.71 107.75
  Z"
/>
<path fill="#006db3" d="
  M 387.71 118.00
  C 387.04 119.90 386.50 116.79 385.11 117.90
  A 1.55 0.95 -53.7 0 1 384.26 118.25
  Q 370.75 118.25 357.23 118.25
  C 356.58 118.25 355.84 118.79 355.34 117.93
  A 0.26 0.24 -34.1 0 0 354.96 117.87
  Q 354.79 118.01 354.54 118.00
  L 354.92 110.24
  A 0.84 0.77 1.1 0 1 355.76 109.50
  L 386.90 109.50
  A 0.85 0.84 0.3 0 1 387.75 110.35
  L 387.71 118.00
  Z"
/>
<path fill="#006db3" d="
  M 168.03 109.96
  Q 170.03 112.97 171.29 117.00
  Q 170.69 118.19 171.50 119.00
  Q 172.80 120.31 171.25 120.25
  Q 160.75 119.86 150.26 120.99
  Q 147.20 114.21 141.00 110.04
  C 142.81 109.73 143.25 112.15 144.86 111.07
  A 1.93 1.03 -48.9 0 1 145.75 110.73
  L 168.03 109.96
  Z"
/>
<path fill="#006db3" d="
  M 280.71 119.50
  L 279.96 122.41
  Q 279.89 122.68 279.77 122.47
  L 279.64 122.23
  A 0.95 0.62 71.3 0 0 279.00 121.73
  C 272.86 121.53 211.74 120.47 211.20 121.01
  A 0.93 0.37 -48.9 0 1 210.45 121.40
  C 209.86 121.18 209.55 113.35 209.46 112.25
  L 209.53 110.31
  A 0.53 0.52 1.1 0 1 210.06 109.81
  L 280.19 109.75
  A 0.56 0.55 0.0 0 1 280.75 110.30
  L 280.71 119.50
  Z"
/>
<path fill="#0061a7" d="
  M 454.76 110.29
  L 445.96 136.50
  Q 445.14 137.23 444.68 138.28
  Q 444.50 138.70 444.28 138.31
  Q 443.03 136.07 439.75 136.50
  Q 435.31 137.09 424.17 136.16
  L 430.50 117.46
  Q 431.14 117.85 431.28 118.44
  A 0.63 0.52 82.5 0 0 431.81 118.93
  L 449.64 118.94
  A 2.51 2.18 -76.9 0 0 451.75 117.41
  L 454.76 110.29
  Z"
/>
<path fill="#005da3" d="
  M 513.00 110.54
  Q 515.01 114.19 516.00 118.25
  Q 516.23 119.20 519.06 119.56
  Q 528.43 120.76 537.50 118.44
  L 546.46 145.25
  Q 539.51 146.29 532.50 145.78
  Q 529.18 145.54 526.04 146.53
  A 0.57 0.39 66.1 0 1 525.50 146.20
  Q 525.33 145.88 524.79 146.00
  L 513.00 110.54
  Z"
/>
<path fill="#0062a8" d="
  M 209.46 112.25
  C 209.55 113.35 209.86 121.18 210.45 121.40
  A 0.93 0.37 -48.9 0 0 211.20 121.01
  C 211.74 120.47 272.86 121.53 279.00 121.73
  A 0.95 0.62 71.3 0 1 279.64 122.23
  L 279.77 122.47
  Q 279.89 122.68 279.96 122.41
  L 280.71 119.50
  Q 280.78 124.75 280.80 130.00
  Q 280.80 131.68 279.00 131.29
  C 269.03 130.23 256.56 130.63 249.28 130.55
  Q 239.64 130.45 230.00 130.79
  C 228.95 131.97 230.15 132.62 230.45 133.62
  C 231.43 136.91 229.06 133.92 228.09 134.64
  A 1.57 0.55 -44.6 0 1 227.26 135.03
  C 221.32 135.38 212.03 134.65 210.59 135.83
  Q 210.04 136.29 210.01 135.57
  L 209.29 115.25
  Q 209.06 113.73 209.46 112.25
  Z"
/>
<path fill="#0061a7" d="
  M 204.46 114.00
  L 204.46 136.25
  Q 204.53 131.60 203.58 134.71
  A 0.68 0.68 8.7 0 1 202.93 135.18
  L 185.17 135.43
  A 0.42 0.37 85.5 0 1 184.80 135.07
  C 184.53 133.35 183.54 138.73 183.54 138.75
  L 183.54 122.00
  Q 184.02 121.65 184.08 121.06
  Q 184.12 120.64 184.44 120.89
  C 186.98 122.95 189.16 121.02 191.42 120.88
  Q 197.21 120.53 202.18 120.92
  Q 204.27 121.08 204.33 118.75
  L 204.46 114.00
  Z"
/>
<path fill="#0061a7" d="
  M 329.29 114.50
  L 330.10 116.23
  A 0.39 0.33 -31.4 0 0 330.65 116.32
  Q 331.14 115.96 332.00 116.00
  Q 337.60 116.24 349.96 115.75
  Q 349.98 122.65 350.05 129.55
  C 350.07 132.33 351.31 135.20 354.25 135.25
  Q 360.22 135.36 366.19 135.43
  A 0.64 0.46 -0.2 0 0 366.85 134.96
  L 366.74 131.51
  A 0.63 0.53 0.2 0 0 366.14 131.00
  L 355.15 130.73
  A 0.60 0.60 0.5 0 1 354.56 130.13
  L 354.54 118.00
  Q 354.79 118.01 354.96 117.87
  A 0.26 0.24 -34.1 0 1 355.34 117.93
  C 355.84 118.79 356.58 118.25 357.23 118.25
  Q 370.75 118.25 384.26 118.25
  A 1.55 0.95 -53.7 0 0 385.11 117.90
  C 386.50 116.79 387.04 119.90 387.71 118.00
  L 387.71 133.25
  L 387.42 135.59
  A 2.06 1.99 -89.5 0 1 385.67 137.37
  C 377.06 138.34 367.99 137.49 360.67 137.71
  Q 346.59 138.15 332.50 137.76
  Q 332.07 137.75 331.56 137.98
  Q 329.71 138.80 329.29 136.50
  L 329.29 114.50
  Z"
/>
<path fill="#00599f" d="
  M 209.29 115.25
  L 210.01 135.57
  Q 210.04 136.29 210.59 135.83
  C 212.03 134.65 221.32 135.38 227.26 135.03
  A 1.57 0.55 -44.6 0 0 228.09 134.64
  C 229.06 133.92 231.43 136.91 230.45 133.62
  C 230.15 132.62 228.95 131.97 230.00 130.79
  Q 229.91 132.30 230.69 132.61
  Q 232.16 135.50 235.50 135.50
  Q 265.13 135.50 294.75 135.50
  A 0.54 0.50 -0.5 0 1 295.29 135.99
  L 295.46 147.50
  Q 295.41 143.23 294.66 145.28
  Q 294.51 145.68 294.35 145.28
  Q 293.85 144.04 292.69 143.94
  Q 282.37 143.05 268.25 143.12
  Q 240.03 143.28 211.81 143.07
  Q 211.50 143.06 210.92 143.37
  Q 210.27 143.72 209.56 143.01
  L 209.29 115.25
  Z"
/>
<path fill="#00559c" d="
  M 303.29 116.25
  L 303.55 120.14
  L 303.78 135.69
  Q 303.79 136.25 304.26 135.96
  Q 304.99 135.51 305.34 134.72
  A 0.91 0.75 -78.7 0 1 305.99 134.19
  Q 314.15 133.28 322.99 133.99
  A 0.74 0.70 -85.7 0 0 323.75 133.30
  L 324.21 127.00
  Q 323.73 137.23 325.37 147.23
  Q 323.86 149.92 320.00 149.50
  Q 316.57 149.12 304.24 150.09
  Q 302.65 133.14 303.29 116.25
  Z"
/>
<path fill="#0061a7" d="
  M 171.29 117.00
  Q 173.47 122.81 173.79 129.00
  L 173.49 133.07
  Q 173.33 135.19 171.39 135.23
  C 168.97 135.27 154.46 135.59 153.97 134.71
  Q 153.82 134.45 153.82 134.75
  Q 153.79 136.01 153.21 134.93
  A 2.22 2.21 -50.6 0 1 153.05 133.24
  Q 153.89 130.48 152.79 130.50
  Q 152.40 125.55 150.26 120.99
  Q 160.75 119.86 171.25 120.25
  Q 172.80 120.31 171.50 119.00
  Q 170.69 118.19 171.29 117.00
  Z"
/>
<path fill="#0061a7" d="
  M 481.96 117.25
  L 476.73 132.73
  A 0.36 0.35 -80.1 0 0 477.05 133.20
  L 490.61 133.25
  A 0.41 0.40 80.5 0 0 490.98 132.71
  L 486.04 117.75
  Q 486.79 118.33 487.04 119.99
  A 0.59 0.57 85.1 0 0 487.63 120.50
  L 511.02 119.85
  L 515.50 133.21
  Q 514.26 134.95 513.25 135.00
  Q 504.01 135.43 494.75 135.25
  Q 493.19 135.22 491.00 134.75
  Q 490.43 134.63 490.07 134.88
  A 1.36 0.34 -39.8 0 1 489.25 135.28
  Q 482.12 135.74 473.25 135.25
  Q 463.22 134.69 451.17 135.88
  L 457.21 118.25
  Q 457.07 119.26 457.67 119.87
  A 1.41 0.95 -13.9 0 0 458.57 120.20
  L 478.00 120.25
  Q 478.44 120.26 478.94 120.50
  C 481.28 121.68 480.36 118.17 481.96 117.25
  Z"
/>
<path fill="#0061a7" d="
  M 324.21 117.50
  L 324.21 127.00
  L 323.75 133.30
  A 0.74 0.70 -85.7 0 1 322.99 133.99
  Q 314.15 133.28 305.99 134.19
  A 0.91 0.75 -78.7 0 0 305.34 134.72
  Q 304.99 135.51 304.26 135.96
  Q 303.79 136.25 303.78 135.69
  L 303.55 120.14
  Q 312.69 120.51 321.88 120.45
  C 323.99 120.43 324.54 119.56 324.21 117.50
  Z"
/>
<path fill="#0062a8" d="
  M 142.57 118.08
  Q 146.98 122.71 147.96 129.75
  C 144.85 129.60 129.77 128.61 128.12 130.43
  A 0.81 0.65 56.0 0 0 128.05 131.26
  Q 128.95 133.13 126.50 131.54
  L 120.50 131.16
  C 113.40 129.82 106.43 130.96 98.00 129.54
  Q 86.07 127.28 77.00 119.29
  Q 78.17 120.05 79.40 119.31
  A 4.36 4.32 -56.5 0 1 82.24 118.72
  Q 87.46 119.42 92.46 119.10
  C 93.25 119.06 94.25 118.22 94.65 119.52
  A 0.68 0.61 80.3 0 0 95.25 120.00
  C 98.97 119.96 102.27 118.79 105.86 118.93
  Q 124.25 119.69 142.57 118.08
  Z"
/>
<path fill="#00559c" d="
  M 173.79 129.00
  Q 174.38 133.51 173.71 138.00
  L 171.05 148.74
  A 1.63 1.62 9.9 0 1 169.31 149.96
  C 162.88 149.32 156.05 150.23 149.92 149.03
  A 0.66 0.63 -71.3 0 0 149.24 149.39
  Q 148.58 150.69 148.21 148.75
  Q 153.81 140.52 152.79 130.50
  Q 153.89 130.48 153.05 133.24
  A 2.22 2.21 -50.6 0 0 153.21 134.93
  Q 153.79 136.01 153.82 134.75
  Q 153.82 134.45 153.97 134.71
  C 154.46 135.59 168.97 135.27 171.39 135.23
  Q 173.33 135.19 173.49 133.07
  L 173.79 129.00
  Z"
/>
<path fill="#020202" fill-opacity="0.318" d="
  M 98.00 129.54
  C 106.43 130.96 113.40 129.82 120.50 131.16
  Q 109.96 133.14 99.25 131.75
  Q 98.70 131.68 97.17 130.76
  Q 96.83 130.55 97.24 130.43
  Q 97.88 130.24 98.00 129.54
  Z"
/>
<path fill="#00599f" d="
  M 147.96 129.75
  Q 149.21 137.95 145.00 145.04
  L 143.44 146.13
  Q 143.04 146.41 143.02 145.95
  L 142.94 144.31
  A 0.53 0.50 88.2 0 0 142.44 143.81
  C 115.20 143.83 88.53 144.57 60.75 143.75
  Q 60.15 143.73 60.15 144.34
  Q 60.15 144.49 60.12 144.35
  Q 59.74 142.59 59.69 144.71
  Q 59.68 145.30 59.36 144.85
  Q 59.11 144.50 59.04 144.00
  L 59.00 136.14
  A 0.65 0.64 0.0 0 1 59.65 135.50
  Q 92.04 135.55 124.10 135.44
  C 126.54 135.43 128.29 133.99 126.50 131.54
  Q 128.95 133.13 128.05 131.26
  A 0.81 0.65 56.0 0 1 128.12 130.43
  C 129.77 128.61 144.85 129.60 147.96 129.75
  Z"
/>
<path fill="#020202" fill-opacity="0.318" d="
  M 279.00 131.29
  L 271.56 131.36
  A 0.50 0.48 -86.7 0 0 271.08 131.80
  Q 271.01 132.50 270.25 132.50
  Q 239.43 132.52 230.69 132.61
  Q 229.91 132.30 230.00 130.79
  Q 239.64 130.45 249.28 130.55
  C 256.56 130.63 269.03 130.23 279.00 131.29
  Z"
/>
<path fill="#00549b" d="
  M 204.46 136.25
  Q 203.27 147.84 211.47 156.19
  Q 200.98 157.51 190.24 157.02
  A 1.39 0.69 -50.3 0 0 189.43 157.38
  L 188.68 158.01
  A 0.47 0.36 58.5 0 1 188.07 157.78
  Q 187.74 157.09 187.04 156.75
  Q 183.21 148.20 183.54 138.75
  C 183.54 138.73 184.53 133.35 184.80 135.07
  A 0.42 0.37 85.5 0 0 185.17 135.43
  L 202.93 135.18
  A 0.68 0.68 8.7 0 0 203.58 134.71
  Q 204.53 131.60 204.46 136.25
  Z"
/>
<path fill="#00549b" d="
  M 387.71 133.25
  L 387.60 156.27
  Q 365.55 156.23 343.75 156.25
  Q 341.11 156.25 336.75 153.79
  Q 327.65 147.73 329.29 136.50
  Q 329.71 138.80 331.56 137.98
  Q 332.07 137.75 332.50 137.76
  Q 346.59 138.15 360.67 137.71
  C 367.99 137.49 377.06 138.34 385.67 137.37
  A 2.06 1.99 -89.5 0 0 387.42 135.59
  L 387.71 133.25
  Z"
/>
<path fill="#00559c" d="
  M 515.50 133.21
  Q 519.85 144.72 522.98 156.39
  L 475.11 156.41
  L 474.92 139.30
  Q 474.91 138.67 474.68 139.24
  L 472.96 143.50
  L 470.61 149.02
  A 0.83 0.64 -77.3 0 1 469.99 149.53
  Q 458.41 150.22 446.93 148.76
  L 451.17 135.88
  Q 463.22 134.69 473.25 135.25
  Q 482.12 135.74 489.25 135.28
  A 1.36 0.34 -39.8 0 0 490.07 134.88
  Q 490.43 134.63 491.00 134.75
  Q 493.19 135.22 494.75 135.25
  Q 504.01 135.43 513.25 135.00
  Q 514.26 134.95 515.50 133.21
  Z"
/>
<path fill="#00559c" d="
  M 413.29 141.00
  Q 413.22 147.00 413.13 153.00
  Q 413.07 156.98 413.11 152.25
  Q 413.11 151.85 412.90 151.78
  A 0.36 0.24 -83.5 0 0 412.58 152.15
  Q 412.58 153.07 411.69 152.56
  Q 402.56 152.95 393.55 152.69
  A 0.90 0.83 89.9 0 1 392.74 151.81
  L 392.54 144.75
  L 392.54 138.75
  Q 393.68 138.44 393.38 136.98
  Q 393.32 136.69 393.54 136.90
  Q 393.82 137.17 394.08 136.91
  A 1.08 0.54 -55.1 0 1 394.73 136.56
  Q 401.99 136.45 409.25 136.50
  Q 410.41 136.51 410.56 137.20
  A 0.79 0.61 87.0 0 0 411.05 137.77
  L 412.21 138.04
  A 0.49 0.46 13.1 0 0 412.80 137.70
  Q 413.18 135.88 413.12 134.00
  Q 413.09 133.08 413.12 134.00
  Q 413.22 137.50 413.29 141.00
  Z"
/>
<path fill="#00559c" d="
  M 424.17 136.16
  Q 435.31 137.09 439.75 136.50
  Q 443.03 136.07 444.28 138.31
  Q 444.50 138.70 444.68 138.28
  Q 445.14 137.23 445.96 136.50
  L 444.21 141.25
  L 440.57 150.96
  A 0.29 0.29 -58.4 0 1 440.11 151.07
  C 439.36 150.36 424.06 150.71 421.69 150.59
  A 1.32 1.00 64.6 0 1 420.87 150.16
  L 419.75 148.96
  L 424.17 136.16
  Z"
/>
<path fill="#004a91" d="
  M 173.71 138.00
  Q 172.24 154.30 161.00 166.04
  Q 158.64 165.87 156.31 166.13
  C 152.09 166.61 148.49 165.50 144.19 166.22
  A 1.95 1.76 48.0 0 1 143.23 166.12
  C 140.86 165.17 136.26 166.44 133.66 166.80
  C 131.38 167.13 128.75 166.93 126.21 167.37
  C 117.85 168.82 62.76 166.54 60.82 168.61
  Q 60.49 168.96 60.39 168.51
  Q 59.37 163.96 59.04 169.50
  Q 58.66 165.43 59.35 161.43
  A 0.59 0.58 4.6 0 1 59.93 160.94
  C 81.22 161.09 102.61 160.45 123.87 160.87
  Q 139.10 161.17 148.21 148.75
  Q 148.58 150.69 149.24 149.39
  A 0.66 0.63 -71.3 0 1 149.92 149.03
  C 156.05 150.23 162.88 149.32 169.31 149.96
  A 1.63 1.62 9.9 0 0 171.05 148.74
  L 173.71 138.00
  Z"
/>
<path fill="#004a91" d="
  M 413.29 141.00
  L 413.46 141.00
  L 413.33 165.94
  A 0.50 0.37 84.5 0 0 413.80 166.47
  Q 414.09 166.38 414.21 165.94
  Q 416.58 157.32 419.75 148.96
  L 420.87 150.16
  A 1.32 1.00 64.6 0 0 421.69 150.59
  C 424.06 150.71 439.36 150.36 440.11 151.07
  A 0.29 0.29 -58.4 0 0 440.57 150.96
  L 444.21 141.25
  L 434.97 168.93
  Q 427.70 167.24 420.25 168.03
  C 411.43 168.97 401.91 168.04 393.99 168.20
  C 390.15 168.27 378.55 167.14 375.75 168.68
  A 0.73 0.70 49.4 0 1 374.94 168.60
  C 373.40 167.32 372.14 168.01 370.58 167.99
  C 356.07 167.86 341.55 168.21 327.03 167.94
  Q 320.78 167.83 314.54 168.50
  Q 307.19 160.58 304.24 150.09
  Q 316.57 149.12 320.00 149.50
  Q 323.86 149.92 325.37 147.23
  C 329.89 157.95 337.52 160.94 348.84 161.08
  Q 370.40 161.34 391.85 161.25
  A 0.73 0.72 90.0 0 0 392.57 160.52
  L 392.54 144.75
  L 392.74 151.81
  A 0.90 0.83 89.9 0 0 393.55 152.69
  Q 402.56 152.95 411.69 152.56
  Q 412.58 153.07 412.58 152.15
  A 0.36 0.24 -83.5 0 1 412.90 151.78
  Q 413.11 151.85 413.11 152.25
  Q 413.07 156.98 413.13 153.00
  Q 413.22 147.00 413.29 141.00
  Z"
/>
<path fill="#005299" d="
  M 295.46 147.50
  L 295.45 155.61
  A 0.58 0.57 89.5 0 1 294.89 156.19
  L 284.75 156.46
  L 259.50 156.29
  L 254.75 156.04
  Q 244.22 155.98 233.68 155.99
  C 223.93 156.00 218.93 156.68 213.00 150.29
  Q 210.31 147.20 209.56 143.01
  Q 210.27 143.72 210.92 143.37
  Q 211.50 143.06 211.81 143.07
  Q 240.03 143.28 268.25 143.12
  Q 282.37 143.05 292.69 143.94
  Q 293.85 144.04 294.35 145.28
  Q 294.51 145.68 294.66 145.28
  Q 295.41 143.23 295.46 147.50
  Z"
/>
<path fill="#005299" d="
  M 145.00 145.04
  Q 141.69 150.00 136.50 153.48
  Q 127.24 156.84 117.39 156.52
  C 98.04 155.89 78.62 156.35 59.25 156.29
  L 59.04 144.00
  Q 59.11 144.50 59.36 144.85
  Q 59.68 145.30 59.69 144.71
  Q 59.74 142.59 60.12 144.35
  Q 60.15 144.49 60.15 144.34
  Q 60.15 143.73 60.75 143.75
  C 88.53 144.57 115.20 143.83 142.44 143.81
  A 0.53 0.50 88.2 0 1 142.94 144.31
  L 143.02 145.95
  Q 143.04 146.41 143.44 146.13
  L 145.00 145.04
  Z"
/>
<path fill="#00488f" d="
  M 472.96 143.50
  Q 466.99 162.99 459.75 182.04
  L 435.77 182.10
  L 446.93 148.76
  Q 458.41 150.22 469.99 149.53
  A 0.83 0.64 -77.3 0 0 470.61 149.02
  L 472.96 143.50
  Z"
/>
<path fill="#005299" d="
  M 546.46 145.25
  L 551.09 158.86
  Q 542.94 160.02 534.80 159.71
  C 533.38 159.65 532.47 159.35 531.26 160.49
  A 0.43 0.42 51.8 0 1 530.61 160.41
  C 530.01 159.52 529.22 156.47 528.29 156.50
  L 524.79 146.00
  Q 525.33 145.88 525.50 146.20
  A 0.57 0.39 66.1 0 0 526.04 146.53
  Q 529.18 145.54 532.50 145.78
  Q 539.51 146.29 546.46 145.25
  Z"
/>
<path fill="#020202" fill-opacity="0.318" d="
  M 213.00 150.29
  C 218.93 156.68 223.93 156.00 233.68 155.99
  Q 244.22 155.98 254.75 156.04
  Q 257.06 157.01 259.50 156.29
  L 284.75 156.46
  Q 283.44 156.35 282.75 157.33
  A 1.01 0.83 -69.0 0 1 282.01 157.75
  C 262.56 157.88 243.74 159.06 223.61 157.70
  C 219.26 157.40 216.51 155.50 213.38 152.83
  A 1.10 1.06 -70.6 0 1 213.00 152.00
  L 213.00 150.29
  Z"
/>
<path fill="#020102" fill-opacity="0.271" d="
  M 136.50 153.48
  C 137.45 156.68 130.74 157.66 128.75 157.54
  A 1.29 0.97 66.2 0 1 127.96 157.10
  Q 127.20 156.17 126.68 157.28
  A 0.88 0.75 -77.2 0 1 126.01 157.78
  Q 108.26 158.75 90.50 158.12
  C 79.26 157.72 72.07 158.79 62.88 158.30
  C 61.17 158.21 59.25 159.04 59.25 156.29
  C 78.62 156.35 98.04 155.89 117.39 156.52
  Q 127.24 156.84 136.50 153.48
  Z"
/>
<path fill="#010102" fill-opacity="0.341" d="
  M 336.75 153.79
  Q 341.11 156.25 343.75 156.25
  Q 365.55 156.23 387.60 156.27
  Q 387.79 158.41 385.69 158.43
  Q 365.31 158.63 344.93 158.29
  Q 341.91 158.24 340.28 157.30
  Q 338.11 156.06 336.75 153.79
  Z"
/>
<path fill="#00488f" d="
  M 211.47 156.19
  C 216.34 159.83 220.67 160.98 227.17 161.03
  C 246.79 161.17 266.21 160.42 286.25 161.19
  Q 290.60 161.36 294.69 161.08
  A 0.77 0.77 0.9 0 1 295.51 161.92
  Q 295.10 166.02 295.96 170.00
  L 220.27 170.00
  A 0.85 0.78 89.6 0 0 219.49 170.86
  L 219.54 180.75
  Q 219.55 181.28 219.10 180.94
  Q 208.97 173.24 196.46 170.50
  Q 190.41 164.54 187.04 156.75
  Q 187.74 157.09 188.07 157.78
  A 0.47 0.36 58.5 0 0 188.68 158.01
  L 189.43 157.38
  A 1.39 0.69 -50.3 0 1 190.24 157.02
  Q 200.98 157.51 211.47 156.19
  Z"
/>
<path fill="#100f0f" fill-opacity="0.953" d="
  M 254.75 156.04
  L 259.50 156.29
  Q 257.06 157.01 254.75 156.04
  Z"
/>
<path fill="#020202" fill-opacity="0.318" d="
  M 522.98 156.39
  Q 522.63 158.50 521.25 158.50
  Q 499.25 158.50 477.25 158.50
  Q 475.02 158.50 475.11 156.41
  L 522.98 156.39
  Z"
/>
<path fill="#00468d" d="
  M 528.29 156.50
  C 529.22 156.47 530.01 159.52 530.61 160.41
  A 0.43 0.42 51.8 0 0 531.26 160.49
  C 532.47 159.35 533.38 159.65 534.80 159.71
  Q 542.94 160.02 551.09 158.86
  L 558.69 181.63
  A 0.67 0.66 -9.1 0 1 558.05 182.50
  L 526.75 182.46
  L 513.75 182.04
  L 513.00 181.96
  Q 510.19 181.90 512.01 179.77
  Q 515.33 175.91 515.64 170.54
  Q 495.18 169.62 474.50 169.96
  L 474.62 163.04
  Q 474.65 161.05 476.44 161.09
  Q 502.38 161.61 529.43 160.95
  A 0.38 0.36 -10.5 0 0 529.78 160.46
  L 528.29 156.50
  Z"
/>
<path fill="#00438a" d="
  M 161.00 166.04
  L 161.00 166.96
  C 142.02 167.02 115.42 167.33 101.28 182.41
  L 59.65 182.86
  Q 58.48 176.17 59.04 169.50
  Q 59.37 163.96 60.39 168.51
  Q 60.49 168.96 60.82 168.61
  C 62.76 166.54 117.85 168.82 126.21 167.37
  C 128.75 166.93 131.38 167.13 133.66 166.80
  C 136.26 166.44 140.86 165.17 143.23 166.12
  A 1.95 1.76 48.0 0 0 144.19 166.22
  C 148.49 165.50 152.09 166.61 156.31 166.13
  Q 158.64 165.87 161.00 166.04
  Z"
/>
<path fill="#ffffff" d="
  M 161.00 166.96
  Q 178.90 167.08 196.46 170.50
  Q 208.97 173.24 219.10 180.94
  Q 219.55 181.28 219.54 180.75
  L 219.49 170.86
  A 0.85 0.78 89.6 0 1 220.27 170.00
  L 295.96 170.00
  L 314.50 169.96
  Q 326.27 170.03 338.03 170.00
  C 339.39 170.00 340.67 169.61 340.29 171.75
  L 340.29 184.25
  L 340.21 194.25
  L 301.81 194.06
  A 0.58 0.56 -85.4 0 0 301.24 194.56
  Q 300.64 199.02 301.21 203.50
  L 301.23 266.25
  Q 280.71 265.32 259.36 266.03
  A 0.84 0.83 89.0 0 1 258.50 265.19
  L 258.46 251.25
  L 258.46 222.00
  L 258.50 194.76
  A 0.52 0.51 0.0 0 0 257.98 194.25
  L 227.79 193.91
  A 1.22 1.05 87.5 0 0 226.75 195.23
  L 227.00 198.50
  L 178.04 198.55
  Q 177.96 197.42 177.71 197.00
  C 176.07 188.34 157.88 188.13 151.72 189.09
  C 147.04 189.83 139.64 190.50 141.26 197.55
  Q 145.63 200.87 151.11 201.22
  C 167.98 202.32 185.31 205.26 202.07 207.67
  C 218.57 210.06 234.74 219.61 231.89 239.06
  C 227.70 262.08 202.71 266.06 183.45 267.97
  C 172.34 269.07 160.81 269.09 148.75 268.50
  C 130.23 267.60 103.57 265.12 95.79 245.25
  L 94.28 236.83
  L 144.91 236.51
  A 0.79 0.76 82.4 0 1 145.67 237.11
  Q 147.12 242.96 152.43 244.10
  C 158.82 245.48 178.56 247.81 181.29 239.00
  Q 181.59 232.50 175.19 231.56
  Q 156.25 228.77 126.66 225.03
  C 109.55 222.86 94.74 215.40 95.96 195.23
  L 98.00 187.54
  L 101.28 182.41
  C 115.42 167.33 142.02 167.02 161.00 166.96
  Z"
/>
<path fill="#00438a" d="
  M 434.97 168.93
  Q 432.98 174.71 431.25 180.41
  C 430.80 181.91 430.00 182.34 428.50 182.04
  Q 427.64 181.52 426.71 181.75
  L 422.31 170.64
  A 0.98 0.94 79.2 0 0 421.44 170.02
  Q 398.17 169.56 375.74 170.59
  Q 376.13 177.30 379.77 181.38
  A 0.29 0.20 52.3 0 1 379.79 181.76
  Q 379.68 181.83 379.50 181.79
  L 376.25 181.96
  Q 369.47 182.01 362.68 182.01
  C 357.17 182.01 349.00 182.79 341.97 182.30
  Q 341.00 177.42 341.45 172.50
  Q 341.56 171.36 340.29 171.75
  C 340.67 169.61 339.39 170.00 338.03 170.00
  Q 326.27 170.03 314.50 169.96
  Q 315.16 169.18 314.54 168.50
  Q 320.78 167.83 327.03 167.94
  C 341.55 168.21 356.07 167.86 370.58 167.99
  C 372.14 168.01 373.40 167.32 374.94 168.60
  A 0.73 0.70 49.4 0 0 375.75 168.68
  C 378.55 167.14 390.15 168.27 393.99 168.20
  C 401.91 168.04 411.43 168.97 420.25 168.03
  Q 427.70 167.24 434.97 168.93
  Z"
/>
<path fill="#ffffff" d="
  M 515.64 170.54
  L 468.64 264.79
  A 2.24 2.24 13.8 0 1 466.61 266.02
  C 461.70 265.93 423.79 266.22 423.00 265.50
  Q 422.80 264.29 421.94 262.56
  Q 404.83 228.40 387.71 194.25
  Q 387.62 193.77 387.25 193.46
  L 382.75 184.50
  L 381.46 181.75
  L 375.74 170.59
  Q 398.17 169.56 421.44 170.02
  A 0.98 0.94 79.2 0 1 422.31 170.64
  L 426.71 181.75
  L 427.71 184.25
  L 445.63 230.98
  Q 445.81 231.44 445.99 230.96
  L 469.13 170.78
  A 0.88 0.70 -78.0 0 1 469.81 170.22
  L 474.50 169.96
  Q 495.18 169.62 515.64 170.54
  Z"
/>
<path fill="#030405" fill-opacity="0.922" d="
  M 515.64 170.54
  Q 515.33 175.91 512.01 179.77
  Q 510.19 181.90 513.00 181.96
  C 509.09 183.27 507.54 188.15 506.00 191.25
  Q 487.67 228.04 469.31 264.81
  Q 468.84 265.76 467.51 267.06
  Q 446.16 266.42 424.70 267.14
  L 423.00 265.50
  C 423.79 266.22 461.70 265.93 466.61 266.02
  A 2.24 2.24 13.8 0 0 468.64 264.79
  L 515.64 170.54
  Z"
/>
<path fill="#02264e" d="
  M 375.74 170.59
  L 381.46 181.75
  Q 380.45 182.04 379.50 181.79
  Q 379.68 181.83 379.79 181.76
  A 0.29 0.20 52.3 0 0 379.77 181.38
  Q 376.13 177.30 375.74 170.59
  Z"
/>
<path fill="#02264e" d="
  M 340.29 171.75
  Q 341.56 171.36 341.45 172.50
  Q 341.00 177.42 341.97 182.30
  Q 340.19 181.91 340.50 184.21
  L 340.29 184.25
  L 340.29 171.75
  Z"
/>
<path fill="#030405" fill-opacity="0.922" d="
  M 428.50 182.04
  Q 427.31 182.69 427.71 184.25
  L 426.71 181.75
  Q 427.64 181.52 428.50 182.04
  Z"
/>
<path fill="#030405" fill-opacity="0.922" d="
  M 379.50 181.79
  Q 380.45 182.04 381.46 181.75
  L 382.75 184.50
  Q 381.74 184.08 380.43 182.62
  A 1.31 1.06 67.3 0 0 379.65 182.20
  L 376.25 181.96
  L 379.50 181.79
  Z"
/>
<path fill="#000001" fill-opacity="0.984" d="
  M 526.75 182.46
  Q 520.22 182.87 513.75 182.04
  L 526.75 182.46
  Z"
/>
<path fill="#020101" fill-opacity="0.133" d="
  M 101.28 182.41
  L 98.00 187.54
  L 97.85 183.49
  A 0.60 0.50 -0.5 0 0 97.25 183.00
  L 59.65 182.86
  L 101.28 182.41
  Z"
/>
<path fill="#020102" fill-opacity="0.271" d="
  M 376.25 181.96
  L 379.65 182.20
  A 1.31 1.06 67.3 0 1 380.43 182.62
  Q 381.74 184.08 382.75 184.50
  L 382.79 185.50
  L 380.58 183.12
  Q 380.31 182.82 380.19 183.24
  Q 379.97 184.00 379.00 184.00
  Q 368.97 184.02 358.94 183.82
  A 0.58 0.50 87.3 0 1 358.45 183.30
  C 358.24 180.99 355.97 184.89 355.17 183.21
  A 0.80 0.68 75.0 0 0 354.50 182.75
  L 342.81 182.81
  A 0.52 0.44 -88.7 0 0 342.37 183.31
  Q 342.33 184.40 340.50 184.21
  Q 340.19 181.91 341.97 182.30
  C 349.00 182.79 357.17 182.01 362.68 182.01
  Q 369.47 182.01 376.25 181.96
  Z"
/>
<path fill="#020102" fill-opacity="0.271" d="
  M 459.75 182.04
  Q 458.72 184.35 456.20 184.15
  C 449.83 183.66 443.21 184.01 436.78 183.83
  C 435.51 183.79 435.53 183.16 435.77 182.10
  L 459.75 182.04
  Z"
/>
<path fill="#030405" fill-opacity="0.922" d="
  M 382.75 184.50
  L 387.25 193.46
  Q 384.39 189.85 382.79 185.50
  L 382.75 184.50
  Z"
/>
<path fill="#030405" fill-opacity="0.922" d="
  M 177.71 197.00
  C 174.97 192.21 171.24 191.49 165.59 190.58
  Q 155.52 188.94 145.50 191.51
  Q 141.41 192.56 141.26 197.55
  C 139.64 190.50 147.04 189.83 151.72 189.09
  C 157.88 188.13 176.07 188.34 177.71 197.00
  Z"
/>
<path fill="#000001" fill-opacity="0.984" d="
  M 258.46 222.00
  L 258.26 196.53
  A 1.04 1.03 90.0 0 0 257.24 195.50
  L 229.01 195.26
  A 1.47 1.05 17.9 0 0 228.10 195.55
  Q 226.89 196.59 227.00 198.50
  L 226.75 195.23
  A 1.22 1.05 87.5 0 1 227.79 193.91
  L 257.98 194.25
  A 0.52 0.51 -0.0 0 1 258.50 194.76
  L 258.46 222.00
  Z"
/>
<path fill="#100f0f" fill-opacity="0.953" d="
  M 340.21 194.25
  Q 340.42 194.66 340.01 195.21
  Q 332.10 194.90 324.20 194.97
  C 318.99 195.02 309.54 194.70 302.16 195.40
  Q 300.60 199.28 301.21 203.50
  Q 300.64 199.02 301.24 194.56
  A 0.58 0.56 -85.4 0 1 301.81 194.06
  L 340.21 194.25
  Z"
/>
<path fill="#030405" fill-opacity="0.922" d="
  M 387.71 194.25
  Q 404.83 228.40 421.94 262.56
  Q 422.80 264.29 423.00 265.50
  Q 421.87 265.23 421.75 264.24
  Q 421.67 263.59 421.53 263.30
  Q 400.52 220.82 392.19 204.56
  Q 389.03 198.39 387.71 194.25
  Z"
/>
<path fill="#020402" fill-opacity="0.455" d="
  M 340.01 195.21
  L 302.16 195.40
  C 309.54 194.70 318.99 195.02 324.20 194.97
  Q 332.10 194.90 340.01 195.21
  Z"
/>
<path fill="#000001" fill-opacity="0.984" d="
  M 95.96 195.23
  C 94.74 215.40 109.55 222.86 126.66 225.03
  Q 156.25 228.77 175.19 231.56
  Q 181.59 232.50 181.29 239.00
  C 180.13 233.06 175.28 232.34 170.00 231.75
  Q 146.57 229.15 123.25 225.75
  Q 115.83 224.67 109.39 221.29
  Q 102.21 217.53 98.80 211.85
  Q 94.43 204.54 95.96 195.23
  Z"
/>
<path fill="#030405" fill-opacity="0.922" d="
  M 178.04 198.55
  L 227.00 198.50
  Q 225.05 199.53 221.25 199.50
  Q 201.02 199.37 196.75 199.50
  Q 187.71 199.79 178.71 199.02
  C 178.51 199.00 177.85 198.72 178.04 198.55
  Z"
/>
<path fill="#ffffff" d="
  M 387.21 237.93
  Q 359.96 237.37 332.99 238.08
  Q 332.37 226.18 333.03 215.06
  A 0.53 0.53 -88.3 0 1 333.56 214.56
  L 387.00 214.50
  A 0.50 0.49 0.6 0 1 387.50 215.00
  L 387.21 237.93
  Z"
/>
<path fill="#030405" fill-opacity="0.922" d="
  M 94.28 236.83
  L 95.79 245.25
  L 95.71 246.75
  Q 93.80 242.80 94.28 236.83
  Z"
/>
<path fill="#030405" fill-opacity="0.922" d="
  M 332.99 238.08
  Q 359.96 237.37 387.21 237.93
  Q 386.51 238.97 384.75 239.00
  C 379.73 239.10 374.62 238.73 369.76 238.92
  Q 351.38 239.62 332.99 238.08
  Z"
/>
<path fill="#000001" fill-opacity="0.984" d="
  M 231.89 239.06
  Q 230.24 253.00 217.99 259.98
  Q 206.01 266.80 192.27 268.41
  C 166.79 271.41 136.90 271.69 113.25 263.25
  Q 100.62 258.75 95.71 246.75
  L 95.79 245.25
  C 103.57 265.12 130.23 267.60 148.75 268.50
  C 160.81 269.09 172.34 269.07 183.45 267.97
  C 202.71 266.06 227.70 262.08 231.89 239.06
  Z"
/>
<path fill="#030405" fill-opacity="0.922" d="
  M 258.46 251.25
  L 258.50 265.19
  A 0.84 0.83 89.0 0 0 259.36 266.03
  Q 280.71 265.32 301.23 266.25
  Q 280.12 267.73 259.00 266.77
  A 0.57 0.56 88.9 0 1 258.46 266.25
  Q 257.92 258.75 258.46 251.25
  Z"
/>
<path fill="#020402" fill-opacity="0.455" d="
  M 467.51 267.06
  L 424.70 267.14
  Q 446.16 266.42 467.51 267.06
  Z"
/>
</svg>
