<?xml version="1.0" encoding="UTF-8" standalone="no"?>
<!DOCTYPE svg PUBLIC "-//W3C//DTD SVG 1.1//EN" "http://www.w3.org/Graphics/SVG/1.1/DTD/svg11.dtd">
<svg xmlns="http://www.w3.org/2000/svg" version="1.1" viewBox="0 0 600 573">
<g stroke-width="2.00" fill="none" stroke-linecap="butt">
<path stroke="#a089c6" vector-effect="non-scaling-stroke" d="
  M 284.28 90.87
  Q 298.37 93.01 311.75 97.96"
/>
<path stroke="#a089c6" vector-effect="non-scaling-stroke" d="
  M 266.71 297.64
  Q 250.19 273.96 257.75 245.50
  Q 257.80 245.33 258.29 244.75"
/>
<path stroke="#a089c6" vector-effect="non-scaling-stroke" d="
  M 301.04 127.25
  Q 288.92 119.06 274.25 118.04"
/>
<path stroke="#a089c6" vector-effect="non-scaling-stroke" d="
  M 228.12 255.40
  Q 226.04 282.10 237.69 306.43
  C 237.90 306.87 238.42 307.04 238.00 307.71"
/>
</g>
<path fill="#fb66b7" d="
  M 100.50 8.96
  L 103.25 8.96
  C 147.21 10.28 182.41 37.30 196.50 78.50
  Q 198.16 83.36 206.83 107.52
  A 0.52 0.50 70.8 0 0 207.47 107.84
  Q 221.78 102.82 236.10 97.84
  C 253.06 91.95 267.06 89.43 284.28 90.87
  Q 298.37 93.01 311.75 97.96
  C 383.83 129.40 394.70 225.93 330.28 271.30
  Q 319.86 278.63 309.19 282.44
  Q 288.30 289.88 266.71 297.64
  Q 250.19 273.96 257.75 245.50
  Q 257.80 245.33 258.29 244.75
  Q 273.06 239.61 287.82 234.44
  C 334.61 218.06 344.36 154.30 301.04 127.25
  Q 288.92 119.06 274.25 118.04
  Q 262.03 116.70 251.19 120.44
  Q 220.91 130.87 190.40 141.96
  A 0.46 0.46 -19.4 0 1 189.81 141.68
  Q 180.19 113.87 170.04 86.24
  Q 166.08 75.43 162.57 69.99
  C 145.70 43.79 111.04 34.74 83.56 50.06
  C 62.71 61.69 49.95 85.34 53.03 109.41
  Q 53.83 115.68 58.37 128.62
  Q 87.34 211.08 117.00 294.20
  A 0.69 0.68 -19.6 0 0 117.88 294.61
  L 228.12 255.40
  Q 226.04 282.10 237.69 306.43
  C 237.90 306.87 238.42 307.04 238.00 307.71
  L 86.89 361.37
  A 0.69 0.69 -19.6 0 1 86.00 360.95
  Q 47.32 251.60 8.75 143.00
  C -14.43 77.74 31.18 11.01 100.50 8.96
  Z"
/>
<path fill="#44abd4" d="
  M 238.00 307.71
  C 238.42 307.04 237.90 306.87 237.69 306.43
  Q 226.04 282.10 228.12 255.40
  Q 229.27 242.07 232.81 232.31
  Q 253.56 175.19 274.25 118.04
  Q 288.92 119.06 301.04 127.25
  C 297.29 137.43 257.76 244.15 258.29 244.75
  Q 257.80 245.33 257.75 245.50
  Q 250.19 273.96 266.71 297.64
  C 293.84 333.63 349.37 329.95 369.09 288.48
  Q 369.78 287.04 375.80 270.97
  Q 389.04 235.61 401.54 200.36
  A 0.85 0.84 19.7 0 1 402.63 199.85
  C 428.57 209.53 454.75 218.36 480.38 228.21
  C 500.68 236.00 522.56 233.36 539.81 220.24
  C 575.00 193.46 569.53 138.46 529.71 119.01
  Q 527.00 117.69 511.03 111.91
  Q 421.33 79.47 331.25 46.48
  A 0.81 0.80 19.8 0 0 330.21 46.96
  L 311.75 97.96
  Q 298.37 93.01 284.28 90.87
  L 313.77 9.91
  A 0.50 0.50 19.7 0 1 314.41 9.61
  C 386.37 35.93 458.52 61.80 530.32 88.57
  Q 542.36 93.05 548.59 96.62
  C 576.71 112.71 595.24 141.78 598.08 174.01
  C 604.00 241.32 542.31 294.66 476.37 279.21
  C 463.09 276.09 447.21 269.43 433.16 264.22
  A 0.73 0.72 20.3 0 0 432.22 264.65
  Q 426.09 281.36 420.25 297.50
  C 397.55 360.17 320.18 382.28 267.31 342.69
  Q 249.35 329.24 238.00 307.71
  Z"
/>
<path fill="#000000" d="
  M 540.80 426.98
  Q 541.06 426.90 541.06 426.50
  A 1.62 0.84 78.1 0 1 541.31 425.60
  Q 551.65 412.28 561.61 398.67
  C 563.56 395.99 570.20 387.90 561.50 388.00
  C 552.67 388.10 554.70 376.78 562.25 376.50
  Q 579.26 375.86 591.50 376.50
  C 600.76 376.98 598.82 388.27 591.19 388.94
  C 585.63 389.42 582.09 392.62 578.90 396.67
  Q 563.50 416.24 548.34 436.00
  Q 547.00 437.75 546.62 439.93
  Q 543.29 458.96 540.37 478.06
  C 539.07 486.55 543.89 483.25 548.74 485.43
  C 553.25 487.46 552.05 492.71 548.31 494.81
  C 545.97 496.14 543.55 496.00 540.81 496.00
  Q 525.28 496.00 509.75 496.00
  C 506.51 496.00 502.97 496.22 500.80 493.71
  C 496.98 489.30 502.04 483.95 507.00 484.50
  Q 515.15 485.40 516.31 477.70
  Q 518.75 461.55 521.64 444.22
  A 4.68 4.61 -51.7 0 0 521.36 441.69
  Q 511.66 417.93 501.44 393.81
  Q 500.41 391.39 498.21 389.27
  C 496.57 387.68 495.50 388.57 493.63 388.02
  C 486.12 385.81 490.98 376.83 497.75 376.76
  Q 506.55 376.68 531.06 376.94
  C 535.01 376.98 537.93 379.25 537.09 383.45
  C 535.30 392.37 520.32 382.79 527.97 399.23
  Q 533.07 410.19 538.06 421.19
  Q 539.64 424.66 540.18 426.46
  A 0.68 0.44 72.9 0 0 540.80 426.98
  Z"
/>
<path fill="#000000" d="
  M 207.18 482.79
  C 184.22 501.35 133.43 502.94 120.81 469.94
  C 116.03 457.42 116.91 445.57 119.69 430.94
  Q 122.03 418.60 125.01 411.47
  C 133.86 390.24 152.87 379.29 175.14 376.93
  Q 182.58 376.14 190.29 377.59
  C 211.08 381.51 226.95 393.61 230.00 415.25
  C 233.30 438.65 226.42 467.24 207.18 482.79
  Z
  M 150.69 415.69
  C 142.04 433.88 129.41 476.22 161.06 481.76
  C 180.07 485.08 193.71 468.12 199.69 452.69
  C 205.53 437.60 214.53 395.47 190.22 390.67
  C 185.56 389.74 181.02 388.57 176.30 390.04
  C 163.62 394.01 156.27 403.94 150.69 415.69
  Z"
/>
<path fill="#000000" d="
  M 270.06 490.44
  C 254.36 483.55 247.72 467.51 247.35 451.44
  Q 247.18 444.07 249.35 431.63
  C 251.66 418.44 255.72 405.88 264.68 395.89
  C 277.40 381.69 300.53 374.21 319.15 377.38
  C 350.14 382.66 363.19 403.47 360.37 433.78
  C 358.32 455.75 349.37 477.53 329.06 488.31
  C 311.58 497.59 288.27 498.43 270.06 490.44
  Z
  M 318.17 471.66
  C 331.64 457.43 336.95 433.44 336.11 414.50
  C 335.56 402.18 330.54 390.98 316.67 389.84
  C 313.95 389.62 310.83 388.92 307.51 389.80
  C 295.31 393.01 287.91 401.67 282.19 412.69
  C 272.23 431.85 257.38 481.88 296.06 482.12
  C 304.12 482.17 313.04 477.08 318.17 471.66
  Z"
/>
<path fill="#000000" d="
  M 387.94 387.81
  Q 384.91 386.53 386.00 383.50
  Q 387.68 378.85 392.76 378.72
  Q 414.62 378.13 436.50 378.08
  C 462.77 378.02 472.68 399.03 462.48 421.61
  C 452.61 443.45 432.31 440.65 409.69 440.20
  A 0.58 0.57 -84.8 0 0 409.11 440.69
  Q 405.95 460.22 402.75 479.75
  C 401.75 485.89 406.77 483.86 409.88 485.04
  C 416.97 487.74 412.48 496.02 406.50 496.25
  Q 385.51 497.05 374.25 496.25
  C 368.25 495.82 368.27 487.26 373.61 485.20
  C 377.46 483.71 381.50 484.88 382.44 479.19
  Q 389.72 435.24 396.75 391.24
  Q 397.20 388.45 394.39 388.76
  Q 391.06 389.13 387.94 387.81
  Z
  M 440.97 414.01
  C 446.34 397.83 437.80 385.29 420.41 387.92
  C 415.92 388.61 417.04 391.68 416.52 394.95
  Q 413.58 413.20 410.64 431.45
  A 0.48 0.47 -81.9 0 0 411.05 432.00
  C 426.05 433.73 436.13 428.60 440.97 414.01
  Z"
/>
<path fill="#000000" d="
  M 28.83 394.89
  A 2.52 2.51 85.2 0 0 26.73 393.11
  C 15.57 391.76 18.70 381.25 27.00 381.25
  Q 42.87 381.25 58.75 381.36
  Q 62.04 381.38 64.31 383.23
  Q 66.59 385.08 65.20 387.67
  Q 62.39 392.90 56.41 393.00
  Q 53.82 393.04 52.57 395.30
  C 50.38 399.24 49.98 402.64 49.25 406.97
  Q 43.74 439.69 38.44 472.44
  C 37.57 477.80 37.56 485.00 45.00 485.00
  C 56.43 485.00 66.68 485.83 75.69 478.19
  C 79.35 475.08 86.32 469.35 90.95 470.44
  C 97.00 471.86 92.26 481.17 91.03 484.52
  C 87.91 493.04 86.25 496.50 76.86 496.50
  Q 45.43 496.50 14.00 496.74
  Q 10.81 496.76 6.69 495.81
  C 0.23 494.33 1.46 487.04 6.41 484.91
  C 8.44 484.04 12.06 484.67 13.94 481.94
  Q 16.05 478.88 16.98 473.25
  Q 22.97 437.02 28.88 400.77
  Q 29.47 397.11 28.83 394.89
  Z"
/>
<path fill="#000000" d="
  M 218.23 564.32
  A 1.08 1.07 4.6 0 1 217.20 563.11
  C 218.16 555.80 218.53 548.58 219.67 541.35
  Q 221.51 529.62 222.75 514.25
  Q 222.96 511.65 225.35 509.79
  A 1.58 1.42 23.2 0 1 226.24 509.49
  C 232.27 509.43 235.37 508.17 234.38 515.94
  Q 232.40 531.48 230.39 547.02
  C 229.52 553.74 234.03 551.30 236.24 548.88
  C 239.47 545.33 241.29 539.90 242.10 535.22
  Q 242.77 531.35 247.24 531.80
  Q 248.87 531.96 250.48 531.66
  C 255.00 530.81 250.38 541.59 249.99 542.78
  Q 242.73 565.15 218.23 564.32
  Z"
/>
<path fill="#000000" d="
  M 321.59 524.37
  Q 322.09 526.19 323.99 526.25
  Q 333.76 526.53 343.46 525.58
  C 345.87 525.34 347.55 525.51 349.16 523.35
  A 1.59 1.28 66.4 0 0 349.41 522.44
  Q 349.04 514.01 357.70 510.25
  A 3.71 3.69 41.5 0 1 360.24 510.10
  C 369.43 512.86 369.61 524.10 361.25 527.18
  C 358.50 528.19 355.74 528.22 355.70 532.09
  Q 355.67 534.51 353.26 534.75
  Q 338.66 536.20 324.00 536.00
  C 318.04 535.92 318.70 543.75 318.55 547.71
  C 318.40 551.77 317.82 553.63 322.06 554.72
  Q 324.11 555.25 326.23 555.25
  Q 338.75 555.25 353.00 555.27
  Q 357.37 555.28 355.99 560.14
  Q 355.78 560.86 355.74 561.60
  Q 355.51 565.91 351.00 565.94
  Q 335.16 566.06 319.31 565.94
  C 318.36 565.93 315.53 564.65 313.86 564.14
  Q 306.12 561.79 306.25 553.50
  Q 306.37 546.29 307.93 534.86
  C 308.78 528.68 309.48 519.73 311.04 512.37
  Q 311.47 510.34 313.40 510.34
  L 320.03 510.36
  Q 323.24 510.37 322.81 513.98
  C 322.46 516.96 320.89 521.89 321.59 524.37
  Z
  M 354.9420 523.3066
  A 5.24 4.34 125.3 0 0 361.5120 521.5379
  A 5.24 4.34 125.3 0 0 360.9980 514.7534
  A 5.24 4.34 125.3 0 0 354.4280 516.5221
  A 5.24 4.34 125.3 0 0 354.9420 523.3066
  Z"
/>
<path fill="#000000" d="
  M 190.77 562.28
  A 1.36 1.35 -89.2 0 1 189.64 561.11
  C 188.84 554.79 190.21 553.52 194.74 549.37
  C 199.85 544.67 202.00 536.51 203.07 530.71
  Q 204.42 523.48 205.59 516.22
  C 206.05 513.44 205.63 511.07 209.76 511.35
  C 213.48 511.61 217.23 510.07 216.42 515.53
  C 214.77 526.70 212.63 539.98 207.56 549.31
  C 204.96 554.10 196.91 563.32 190.77 562.28
  Z"
/>
<path fill="#000000" d="
  M 260.14 542.08
  Q 257.32 542.00 257.76 539.09
  L 258.63 533.26
  A 1.02 0.94 88.7 0 1 259.37 532.42
  Q 263.43 531.52 266.50 531.53
  C 276.32 531.56 286.24 532.06 296.05 531.95
  Q 302.33 531.88 299.47 538.05
  Q 299.27 538.47 299.28 538.99
  C 299.33 541.17 298.14 541.98 296.03 542.04
  Q 277.76 542.56 260.14 542.08
  Z"
/>
<path fill="#000000" d="
  M 362.77 542.09
  A 2.23 1.98 -77.1 0 1 361.50 539.76
  L 362.00 536.00
  Q 362.46 532.57 364.56 532.56
  Q 382.53 532.51 400.50 532.16
  C 406.47 532.05 404.06 537.04 403.75 540.46
  Q 403.52 543.05 400.92 543.02
  Q 384.84 542.81 369.84 542.75
  C 367.29 542.74 365.22 542.96 362.77 542.09
  Z"
/>
</svg>
