<?xml version="1.0" encoding="UTF-8" standalone="no"?>
<!DOCTYPE svg PUBLIC "-//W3C//DTD SVG 1.1//EN" "http://www.w3.org/Graphics/SVG/1.1/DTD/svg11.dtd">
<svg xmlns="http://www.w3.org/2000/svg" version="1.1" viewBox="0 0 600 300">
<path fill="#000000" d="
  M 131.05 125.20
  Q 131.54 127.50 133.89 127.50
  L 148.89 127.50
  A 2.32 2.26 -13.2 0 1 150.94 128.74
  L 155.07 136.82
  A 0.82 0.81 -13.4 0 1 154.34 138.00
  Q 140.00 138.00 125.75 138.00
  C 116.42 138.00 116.63 130.97 117.76 124.15
  Q 119.28 114.93 120.92 105.74
  C 122.80 95.18 129.75 96.00 139.43 96.00
  Q 161.28 96.00 182.65 96.00
  Q 184.33 96.00 183.41 97.41
  Q 180.08 102.51 175.81 106.59
  A 1.28 1.28 23.3 0 1 174.93 106.94
  L 136.09 107.00
  Q 134.08 107.00 133.75 108.98
  Q 132.99 113.62 132.27 118.26
  C 132.01 119.95 130.70 123.49 131.05 125.20
  Z"
/>
<path fill="#000000" d="
  M 600.00 96.06
  L 600.00 96.81
  C 594.84 99.56 588.85 104.09 585.46 106.33
  Q 579.07 110.55 572.62 114.94
  A 4.61 4.58 27.8 0 1 569.98 115.75
  Q 556.05 115.71 542.73 115.80
  C 537.45 115.83 528.37 121.52 523.51 124.02
  Q 520.66 125.49 517.51 126.06
  C 498.58 129.46 484.81 137.74 478.26 156.36
  A 0.30 0.29 9.7 0 0 478.54 156.75
  L 492.70 156.80
  A 0.33 0.32 -76.4 0 1 492.98 157.27
  C 491.01 161.51 488.46 163.47 483.85 165.42
  C 477.11 168.28 462.27 175.62 462.00 184.25
  C 461.89 187.80 459.86 187.00 457.37 187.00
  Q 439.42 187.00 420.89 187.00
  A 2.65 2.64 73.7 0 1 418.66 185.77
  Q 414.82 179.68 410.98 173.54
  C 408.72 169.93 411.27 161.42 412.13 157.56
  A 1.29 1.28 -83.8 0 0 410.88 156.00
  Q 398.17 156.00 385.58 156.00
  C 384.03 156.00 382.45 155.49 383.00 158.01
  Q 383.22 159.00 383.00 159.99
  C 382.45 162.51 384.03 162.00 385.57 162.00
  Q 392.29 162.00 399.02 162.00
  A 1.10 0.98 -80.1 0 1 399.91 163.43
  L 398.81 166.83
  Q 398.11 169.00 396.30 169.00
  L 383.07 169.00
  A 1.16 1.16 -3.5 0 0 381.92 170.30
  Q 382.33 173.75 381.40 175.91
  A 0.48 0.47 11.7 0 0 381.84 176.57
  L 405.28 176.50
  A 1.56 1.47 -14.6 0 1 406.59 177.22
  L 411.78 185.83
  Q 412.48 187.00 411.08 187.00
  Q 390.00 187.00 370.00 187.00
  C 367.16 187.00 368.72 185.59 368.79 184.21
  C 368.97 181.08 369.14 179.24 369.76 175.20
  C 370.16 172.56 369.71 169.86 370.47 167.12
  C 371.46 163.53 370.82 160.23 372.00 156.50
  A 0.38 0.38 -81.0 0 0 371.64 156.00
  Q 357.56 156.00 343.62 156.00
  C 337.67 156.00 338.56 156.63 337.79 161.80
  Q 336.91 167.75 336.95 175.22
  A 1.02 1.02 -87.6 0 0 337.88 176.24
  C 341.41 176.55 350.22 177.51 353.29 175.25
  A 1.44 1.43 -10.7 0 0 353.83 174.46
  L 354.95 170.19
  A 0.97 0.94 7.4 0 0 354.01 169.00
  L 345.90 169.00
  Q 345.00 169.00 345.53 168.31
  L 351.44 160.65
  A 1.98 1.60 15.1 0 1 352.91 160.00
  C 357.75 160.00 362.46 160.20 366.87 159.93
  Q 369.27 159.79 368.23 162.05
  Q 368.00 162.53 368.03 162.99
  Q 368.31 167.47 367.76 171.88
  Q 366.91 178.61 366.26 180.60
  C 363.86 188.02 357.67 187.00 350.05 187.00
  C 344.87 187.00 328.14 188.31 324.40 185.76
  Q 321.35 183.68 322.00 179.25
  Q 323.96 165.80 325.88 152.34
  C 326.59 147.36 331.26 145.27 335.76 145.23
  Q 373.56 144.82 413.23 145.01
  A 1.66 1.66 7.0 0 0 414.86 143.74
  L 426.32 96.68
  A 0.67 0.65 -83.6 0 1 426.94 96.17
  L 454.89 96.01
  A 0.58 0.57 -78.4 0 1 455.42 96.82
  Q 441.07 129.18 427.02 161.40
  Q 425.76 164.30 426.29 166.28
  C 428.10 172.97 436.31 171.56 441.46 170.98
  Q 442.65 170.84 443.62 170.14
  Q 456.56 160.72 468.81 151.31
  Q 472.82 148.23 476.89 142.58
  Q 490.11 124.18 503.40 105.83
  A 1.91 1.79 5.0 0 1 504.15 105.24
  Q 514.37 100.91 524.76 97.02
  Q 527.48 96.00 530.40 96.00
  Q 565.20 95.94 600.00 96.06
  Z"
/>
<path fill="#000000" d="
  M 0.00 125.69
  L 0.00 125.19
  C 3.93 122.28 9.25 115.43 13.00 115.46
  Q 18.87 115.50 25.22 115.50
  A 0.74 0.72 9.5 0 0 25.91 115.02
  Q 27.31 111.03 27.43 107.06
  A 1.79 1.26 37.1 0 0 27.14 106.15
  L 21.25 97.01
  Q 20.60 96.00 21.84 96.00
  L 65.20 96.00
  Q 67.38 96.00 69.40 96.85
  Q 73.91 98.76 73.06 103.51
  C 72.02 109.31 70.67 115.18 69.93 121.02
  C 69.40 125.16 66.22 126.00 62.35 126.00
  Q 51.00 126.00 39.14 126.00
  A 1.23 1.19 -85.5 0 0 37.96 127.04
  L 36.56 136.16
  Q 36.28 137.98 34.49 138.83
  L 21.93 144.82
  Q 20.13 145.67 20.46 143.67
  L 23.20 127.22
  A 1.15 1.07 4.8 0 0 22.07 125.98
  L 0.00 125.69
  Z
  M 61.08 113.01
  L 61.90 108.78
  A 1.59 1.45 5.1 0 0 60.32 107.05
  L 42.06 107.00
  A 2.10 1.80 -84.1 0 0 40.24 108.73
  L 39.16 114.56
  A 0.80 0.75 -84.6 0 0 39.89 115.50
  L 57.44 115.50
  Q 60.60 115.50 61.08 113.01
  Z"
/>
<path fill="#000000" d="
  M 75.62 96.65
  A 0.56 0.56 -4.8 0 1 76.17 96.00
  Q 93.25 96.00 110.50 95.97
  Q 118.92 95.96 118.13 104.51
  C 118.01 105.81 118.12 106.84 117.66 108.10
  C 116.62 110.93 117.11 113.85 116.50 116.58
  Q 115.68 120.27 115.24 124.02
  C 114.65 129.12 112.81 131.79 115.48 137.43
  A 0.40 0.40 77.3 0 1 115.12 138.00
  Q 98.75 138.00 83.75 138.00
  C 80.15 138.00 76.72 138.41 74.03 136.00
  C 70.73 133.04 71.41 128.33 72.38 123.83
  C 73.50 118.71 74.39 113.53 75.44 108.39
  Q 76.60 102.74 75.62 96.65
  Z
  M 84.22 127.07
  Q 93.85 128.19 102.91 127.07
  A 2.37 2.36 -85.8 0 0 104.91 125.34
  Q 107.31 116.49 106.84 107.68
  A 0.54 0.53 88.3 0 0 106.31 107.17
  L 87.63 107.04
  A 1.81 1.76 -81.8 0 0 85.91 108.37
  Q 83.82 116.03 82.91 125.44
  A 1.50 1.49 -83.9 0 0 84.22 127.07
  Z"
/>
<path fill="#000000" d="
  M 178.00 115.39
  C 183.86 109.61 188.66 102.84 194.17 96.98
  A 3.12 3.10 21.5 0 1 196.44 96.00
  L 210.85 96.00
  Q 212.22 96.00 211.32 97.04
  L 194.33 116.62
  A 0.66 0.65 -41.4 0 0 194.27 117.41
  L 206.96 136.72
  Q 207.80 138.00 206.27 138.00
  L 191.92 138.00
  Q 190.18 138.00 189.22 136.55
  Q 184.06 128.74 179.06 120.65
  C 178.00 118.94 175.89 117.48 178.00 115.39
  Z"
/>
<path fill="#000000" d="
  M 224.82 127.44
  L 250.32 127.68
  A 0.87 0.86 -15.0 0 1 251.07 128.11
  L 256.21 137.17
  A 0.52 0.52 -14.4 0 1 255.75 137.94
  L 211.23 138.00
  A 0.65 0.65 -88.7 0 1 210.58 137.32
  C 210.84 131.46 211.62 125.55 212.02 119.64
  C 212.18 117.29 212.96 115.02 213.07 112.77
  Q 213.46 104.64 215.09 96.67
  A 0.61 0.60 -84.1 0 1 215.68 96.18
  L 255.14 96.01
  Q 256.03 96.00 255.56 96.75
  L 249.88 105.78
  A 2.75 2.60 15.3 0 1 247.60 107.00
  L 227.80 107.06
  A 1.00 0.89 15.5 0 0 227.01 107.45
  Q 225.93 108.94 226.02 111.26
  A 0.77 0.77 88.8 0 0 226.79 112.00
  L 245.76 112.00
  A 0.89 0.82 -75.5 0 1 246.45 113.29
  L 242.85 120.47
  A 0.84 0.67 -74.3 0 1 242.19 120.94
  L 225.20 121.00
  A 1.00 0.99 5.6 0 0 224.22 121.79
  Q 223.68 124.45 224.20 126.95
  A 0.65 0.61 -4.9 0 0 224.82 127.44
  Z"
/>
<path fill="#000000" d="
  M 283.21 107.80
  Q 280.71 119.44 279.50 127.50
  C 278.99 130.89 277.52 131.10 274.26 132.81
  Q 269.72 135.20 264.90 137.79
  Q 263.86 138.34 264.11 137.19
  Q 267.33 122.78 269.44 108.17
  A 1.02 1.02 -85.9 0 0 268.43 107.00
  L 252.92 107.00
  Q 251.67 107.00 252.33 105.94
  L 258.18 96.46
  A 0.96 0.94 -74.1 0 1 258.99 96.00
  L 307.01 96.00
  Q 308.07 96.00 307.37 96.76
  L 298.61 106.39
  A 1.29 1.03 15.3 0 1 297.75 106.76
  L 283.82 107.28
  A 0.65 0.65 4.5 0 0 283.21 107.80
  Z"
/>
<path fill="#000000" d="
  M 162.19 111.17
  A 1.02 0.97 -85.3 0 1 163.17 110.30
  L 174.32 110.41
  A 0.60 0.57 86.0 0 1 174.89 110.93
  Q 175.28 113.85 174.76 116.75
  Q 173.10 125.96 171.87 136.34
  A 1.89 1.88 -86.6 0 1 170.00 138.00
  L 158.74 138.00
  A 0.53 0.52 4.2 0 1 158.22 137.40
  L 162.19 111.17
  Z"
/>
<path fill="#000000" d="
  M 308.02 167.13
  L 312.24 135.05
  A 1.11 1.03 -14.4 0 1 312.73 134.29
  Q 319.00 130.25 325.40 128.30
  A 0.77 0.77 -4.6 0 1 326.39 129.14
  Q 324.12 146.79 321.49 163.44
  C 320.91 167.11 320.98 171.70 320.18 175.78
  Q 319.28 180.37 318.68 185.60
  A 1.58 1.58 3.3 0 1 317.11 187.00
  L 304.25 187.00
  Q 302.61 187.00 301.57 185.66
  L 289.24 169.74
  Q 288.48 168.76 288.25 170.00
  L 283.74 193.78
  A 2.16 2.13 82.5 0 1 282.58 195.31
  L 267.79 202.52
  Q 266.91 202.95 267.10 201.99
  L 278.41 146.69
  A 2.13 2.10 5.6 0 1 280.49 145.00
  L 289.44 145.00
  A 1.88 1.83 -17.7 0 1 290.94 145.75
  L 306.82 167.45
  Q 307.81 168.79 308.02 167.13
  Z"
/>
<path fill="#000000" d="
  M 503.81 174.94
  Q 517.31 175.04 530.80 175.01
  C 535.16 175.00 537.80 174.14 540.55 171.05
  Q 541.71 169.75 543.26 170.10
  A 0.45 0.44 -71.2 0 1 543.56 170.72
  L 536.71 185.62
  A 2.57 2.35 11.2 0 1 534.43 187.00
  L 467.24 187.00
  A 1.15 1.14 -87.7 0 1 466.10 185.76
  C 467.50 168.04 529.08 158.54 527.67 145.76
  C 527.05 140.10 504.91 140.25 509.56 150.84
  A 0.83 0.83 -11.8 0 1 508.80 152.00
  L 485.74 152.00
  A 0.59 0.59 14.5 0 1 485.22 151.12
  C 493.09 137.07 508.13 130.42 523.72 129.93
  C 530.92 129.71 537.82 129.63 543.56 132.69
  C 551.19 136.75 550.52 145.17 545.01 150.76
  Q 540.97 154.85 535.85 157.52
  C 528.47 161.35 503.52 173.79 503.33 174.45
  A 0.47 0.38 6.7 0 0 503.81 174.94
  Z"
/>
<path fill="#000000" d="
  M 47.80 176.69
  A 1.22 1.15 79.1 0 1 48.81 177.42
  L 52.71 186.53
  A 0.34 0.33 78.2 0 1 52.41 187.00
  Q 40.28 187.00 28.97 187.00
  C 18.62 187.00 14.14 187.15 15.76 175.31
  Q 16.48 169.99 17.20 164.67
  C 18.46 155.39 17.76 149.39 25.33 146.22
  Q 28.08 145.07 33.97 145.05
  Q 57.79 144.96 82.19 145.00
  Q 83.26 145.00 82.68 145.87
  L 76.71 154.87
  A 2.83 2.49 14.8 0 1 74.45 156.00
  L 33.49 156.00
  A 1.96 1.91 4.1 0 0 31.56 157.63
  L 29.23 173.91
  A 1.87 1.81 15.0 0 0 30.41 175.88
  C 34.55 177.48 43.02 176.44 47.80 176.69
  Z"
/>
<path fill="#000000" d="
  M 91.94 177.05
  L 73.01 176.74
  Q 71.20 176.71 70.90 178.58
  L 69.75 185.77
  A 1.42 1.40 4.3 0 1 68.36 186.94
  L 57.20 187.01
  A 1.28 1.26 -83.1 0 1 55.97 185.42
  Q 59.16 172.80 61.23 160.31
  A 0.70 0.70 -3.1 0 1 61.81 159.73
  Q 67.11 158.87 72.51 159.03
  Q 76.80 159.15 74.18 162.89
  Q 72.70 165.00 75.27 165.00
  L 93.26 164.95
  Q 95.14 164.94 95.50 163.02
  L 98.66 146.07
  A 1.35 1.31 5.1 0 1 99.98 145.00
  L 112.02 145.00
  A 0.73 0.72 -84.7 0 1 112.73 145.86
  L 105.52 185.13
  Q 105.18 187.00 103.28 187.00
  L 92.92 187.00
  Q 90.37 187.00 91.29 184.62
  Q 92.63 181.15 92.47 177.56
  A 0.54 0.54 88.9 0 0 91.94 177.05
  Z"
/>
<path fill="#000000" d="
  M 150.72 145.18
  A 0.88 0.85 82.7 0 1 151.53 145.83
  L 162.56 186.36
  A 0.51 0.50 -7.8 0 1 162.07 187.00
  L 148.08 187.00
  A 2.02 1.94 81.6 0 1 146.20 185.54
  L 143.99 177.97
  A 1.89 1.75 -8.4 0 0 142.15 176.71
  L 130.73 177.06
  A 1.83 1.74 -76.0 0 0 129.22 178.02
  L 124.95 186.01
  A 1.26 1.10 3.9 0 1 124.20 186.58
  C 119.96 187.69 114.13 186.88 109.71 187.16
  Q 108.07 187.27 108.90 185.85
  L 132.09 146.44
  A 2.88 2.77 -74.0 0 1 134.53 145.02
  L 150.72 145.18
  Z
  M 139.18 158.11
  L 134.60 167.24
  A 0.70 0.66 -76.1 0 0 135.17 168.25
  L 141.28 168.25
  A 0.82 0.77 -6.4 0 0 142.09 167.30
  L 139.88 158.14
  Q 139.65 157.17 139.18 158.11
  Z"
/>
<path fill="#000000" d="
  M 179.41 176.03
  A 0.43 0.42 9.6 0 0 179.82 176.59
  L 189.93 176.55
  A 0.76 0.74 -11.1 0 1 190.65 177.02
  L 194.52 186.46
  A 0.35 0.35 -10.5 0 1 194.19 186.94
  L 165.94 186.82
  A 0.43 0.43 -84.9 0 1 165.52 186.31
  L 172.01 145.71
  A 0.84 0.84 4.4 0 1 172.84 145.00
  L 182.95 145.00
  A 1.06 1.06 4.8 0 1 184.00 146.24
  Q 182.41 155.86 181.07 165.51
  Q 180.87 166.96 180.46 168.36
  C 179.66 171.12 180.37 173.33 179.41 176.03
  Z"
/>
<path fill="#000000" d="
  M 211.82 176.66
  L 222.85 176.55
  A 0.68 0.63 77.1 0 1 223.46 176.97
  L 226.93 185.57
  A 1.06 1.04 -10.8 0 1 225.94 187.00
  L 197.82 187.00
  A 0.50 0.50 -86.0 0 1 197.33 186.43
  Q 198.01 181.74 198.80 177.58
  C 200.80 166.99 201.95 156.31 204.01 145.69
  A 0.86 0.86 -84.2 0 1 204.85 145.00
  L 214.79 145.00
  A 1.19 1.19 4.5 0 1 215.97 146.38
  L 211.22 176.00
  A 0.60 0.57 4.1 0 0 211.82 176.66
  Z"
/>
<path fill="#000000" d="
  M 243.81 176.67
  L 261.51 176.51
  A 1.71 1.63 76.9 0 1 263.03 177.51
  L 266.80 185.77
  A 0.87 0.87 77.7 0 1 266.01 187.00
  L 231.05 186.94
  A 0.99 0.99 -84.9 0 1 230.08 185.77
  C 231.40 178.57 231.93 170.52 232.81 164.77
  Q 234.22 155.46 235.45 146.34
  A 1.56 1.55 -86.0 0 1 236.99 145.00
  L 273.81 145.00
  A 1.04 1.04 -79.8 0 1 274.78 146.40
  Q 273.02 151.16 270.05 155.34
  A 1.03 0.99 -72.1 0 1 269.25 155.77
  L 246.30 156.07
  A 0.85 0.78 12.7 0 0 245.57 156.49
  Q 244.34 158.80 245.30 161.28
  A 0.77 0.73 78.8 0 0 245.99 161.77
  L 263.67 162.00
  A 1.09 1.06 7.9 0 1 264.72 163.35
  Q 263.70 166.98 261.70 170.26
  A 0.96 0.95 -76.1 0 1 260.94 170.72
  Q 249.02 171.55 246.25 171.00
  C 242.20 170.19 242.78 173.65 243.20 176.21
  A 0.62 0.55 -4.9 0 0 243.81 176.67
  Z"
/>
</svg>
