<?xml version="1.0" encoding="UTF-8" standalone="no"?>
<!DOCTYPE svg PUBLIC "-//W3C//DTD SVG 1.1//EN" "http://www.w3.org/Graphics/SVG/1.1/DTD/svg11.dtd">
<svg xmlns="http://www.w3.org/2000/svg" version="1.1" viewBox="0 0 600 300">
<g stroke-width="2.00" fill="none" stroke-linecap="butt">
<path stroke="#454945" vector-effect="non-scaling-stroke" d="
  M 78.57 46.90
  Q 75.59 44.41 71.50 45.04"
/>
<path stroke="#808080" vector-effect="non-scaling-stroke" d="
  M 71.50 45.04
  L 42.81 45.30
  A 0.51 0.51 -0.6 0 0 42.31 45.81
  L 42.25 113.94
  A 0.56 0.56 0.0 0 0 42.81 114.50
  L 61.71 114.50
  A 0.56 0.55 -89.5 0 0 62.26 113.95
  L 62.30 101.06
  A 1.62 1.40 67.5 0 1 62.60 100.16
  C 65.87 95.96 70.25 108.56 72.61 113.97
  A 0.80 0.75 77.3 0 0 73.31 114.44
  L 94.89 114.50
  A 0.43 0.43 76.9 0 0 95.27 113.88
  L 82.06 86.05
  A 0.57 0.56 -26.1 0 1 82.32 85.31
  C 99.32 76.81 98.59 51.34 78.57 46.90"
/>
<path stroke="#c5c9c4" vector-effect="non-scaling-stroke" d="
  M 71.50 45.04
  C 71.49 47.55 77.73 46.93 78.57 46.90"
/>
<path stroke="#808080" vector-effect="non-scaling-stroke" d="
  M 155.44 108.31
  Q 163.41 113.91 171.31 114.19
  Q 186.03 114.71 201.77 114.49
  A 0.75 0.74 -0.8 0 0 202.50 113.75
  L 202.50 45.75
  A 0.50 0.50 0.0 0 0 202.00 45.25
  L 181.00 45.25
  A 0.50 0.50 0.0 0 0 180.50 45.75
  L 180.50 60.10
  A 0.65 0.65 -0.4 0 1 179.86 60.75
  C 169.58 60.87 157.85 64.70 151.57 73.07
  C 144.11 83.03 144.65 100.74 155.44 108.31"
/>
<path stroke="#808080" vector-effect="non-scaling-stroke" d="
  M 319.16 63.25
  Q 316.18 73.87 316.50 83.75
  Q 316.93 97.00 303.99 95.80
  A 0.46 0.44 2.9 0 0 303.48 96.24
  L 303.24 115.24
  A 0.55 0.53 2.2 0 0 303.76 115.78
  C 316.31 116.54 331.49 115.21 336.39 102.40
  C 339.34 94.71 337.77 81.64 339.50 74.25
  Q 341.32 66.49 350.45 67.62
  A 1.58 1.54 3.5 0 0 352.22 66.09
  L 352.08 47.94
  A 0.55 0.54 2.3 0 0 351.57 47.40
  C 337.48 46.45 323.70 47.08 319.16 63.25"
/>
<path stroke="#808080" vector-effect="non-scaling-stroke" d="
  M 384.33 115.86
  C 387.35 117.03 399.01 115.94 403.11 115.79
  A 0.66 0.66 -1.4 0 0 403.74 115.13
  Q 403.90 97.03 403.54 79.51
  C 403.15 60.83 391.48 61.10 376.60 61.53
  A 0.58 0.58 -1.0 0 1 376.00 60.95
  L 376.00 47.92
  A 0.67 0.67 -0.2 0 0 375.33 47.25
  L 354.75 47.25
  A 0.50 0.50 0.0 0 0 354.25 47.75
  L 354.31 115.69
  A 0.26 0.25 0.0 0 0 354.57 115.94
  L 374.68 115.77
  A 0.83 0.82 -0.4 0 0 375.50 114.95
  L 375.50 82.53
  A 3.43 3.43 -22.8 0 1 376.48 80.13
  C 379.32 77.26 380.97 80.46 381.04 83.07
  Q 381.67 106.81 381.25 113.50
  Q 381.04 116.79 383.48 115.78
  A 1.24 0.56 29.5 0 1 384.33 115.86"
/>
<path stroke="#808080" vector-effect="non-scaling-stroke" d="
  M 536.81 78.45
  L 536.57 47.94
  A 0.52 0.50 90.0 0 0 536.07 47.42
  L 520.05 47.26
  A 0.56 0.55 -90.0 0 0 519.50 47.82
  L 519.56 115.44
  A 0.51 0.51 0.0 0 0 520.07 115.95
  L 535.82 115.94
  A 0.95 0.93 89.7 0 0 536.75 114.98
  Q 536.71 106.95 536.80 99.34
  C 536.82 97.79 537.44 95.88 539.34 96.53
  A 3.04 2.98 -2.1 0 1 541.16 98.19
  L 548.85 115.73
  A 0.46 0.45 77.8 0 0 549.26 116.00
  C 556.30 116.00 563.70 115.60 570.70 116.11
  C 574.37 116.38 571.60 113.77 571.12 112.81
  Q 564.03 98.82 556.99 84.92
  A 0.92 0.89 50.1 0 1 557.06 83.98
  L 568.20 68.37
  Q 569.00 67.26 567.60 67.27
  L 546.33 67.43
  A 1.30 1.25 -70.5 0 0 545.32 67.94
  L 537.14 78.56
  Q 536.82 78.97 536.81 78.45"
/>
<path stroke="#808080" vector-effect="non-scaling-stroke" d="
  M 290.59 86.67
  A 28.81 28.34 0.0 0 0 261.78 58.33
  A 28.81 28.34 0.0 0 0 232.97 86.67
  A 28.81 28.34 0.0 0 0 261.78 115.01
  A 28.81 28.34 0.0 0 0 290.59 86.67"
/>
<path stroke="#808080" vector-effect="non-scaling-stroke" d="
  M 492.25 60.00
  C 472.03 57.56 454.59 75.96 460.56 95.94
  C 465.01 110.83 481.90 120.75 497.25 115.00
  Q 508.78 110.68 514.41 99.92
  A 0.46 0.45 -76.1 0 0 514.01 99.25
  L 497.42 99.25
  A 1.60 1.59 -70.1 0 0 496.19 99.83
  Q 492.80 103.93 488.50 104.19
  C 477.00 104.92 476.34 87.99 487.56 87.39
  C 491.44 87.19 494.01 88.90 495.42 92.46
  A 1.65 1.59 78.3 0 0 496.94 93.50
  L 516.32 93.22
  A 0.53 0.52 88.9 0 0 516.83 92.68
  C 516.61 77.40 508.53 61.96 492.25 60.00"
/>
<path stroke="#808080" vector-effect="non-scaling-stroke" d="
  M 230.25 61.52
  A 0.26 0.26 0.0 0 0 229.99 61.26
  L 208.49 61.26
  A 0.26 0.26 0.0 0 0 208.23 61.52
  L 208.23 114.24
  A 0.26 0.26 0.0 0 0 208.49 114.50
  L 229.99 114.50
  A 0.26 0.26 0.0 0 0 230.25 114.24
  L 230.25 61.52"
/>
<path stroke="#808080" vector-effect="non-scaling-stroke" d="
  M 144.25 76.00
  C 144.27 69.01 139.16 62.38 131.75 62.25
  Q 115.91 61.97 100.06 61.82
  A 0.53 0.53 -87.1 0 0 99.52 62.31
  Q 98.91 70.06 99.40 77.81
  A 0.57 0.56 88.9 0 0 99.94 78.33
  Q 107.83 78.62 115.72 78.51
  C 117.21 78.49 119.58 78.08 119.52 80.21
  Q 119.46 82.04 117.63 82.21
  C 113.79 82.57 109.40 82.16 106.18 83.07
  C 97.45 85.53 92.77 95.13 95.17 103.63
  C 97.57 112.14 106.31 114.56 114.25 114.59
  Q 129.03 114.64 143.81 114.32
  A 0.51 0.51 -0.6 0 0 144.31 113.81
  Q 144.21 94.90 144.25 76.00"
/>
<path stroke="#808080" vector-effect="non-scaling-stroke" d="
  M 436.33 115.86
  C 439.33 117.02 450.89 115.94 455.12 115.77
  A 0.93 0.92 89.0 0 0 456.01 114.84
  C 455.90 101.42 456.90 87.99 455.50 75.00
  C 454.51 65.83 447.43 63.32 439.25 63.30
  Q 425.50 63.25 411.75 63.25
  A 0.50 0.50 0.0 0 0 411.25 63.75
  L 411.25 78.75
  A 0.51 0.51 -0.6 0 0 411.77 79.26
  Q 420.42 79.10 428.63 79.51
  C 432.54 79.70 431.65 83.20 428.31 83.39
  C 424.70 83.60 420.81 83.11 417.64 84.12
  C 409.06 86.85 404.96 96.04 406.92 104.56
  C 409.63 116.35 425.66 116.71 435.43 115.62
  Q 435.64 115.60 436.33 115.86"
/>
<path stroke="#808080" vector-effect="non-scaling-stroke" d="
  M 73.08 81.63
  A 8.47 8.47 0.0 0 0 64.61 73.16
  A 8.47 8.47 0.0 0 0 56.14 81.63
  A 8.47 8.47 0.0 0 0 64.61 90.10
  A 8.47 8.47 0.0 0 0 73.08 81.63"
/>
<path stroke="#808080" vector-effect="non-scaling-stroke" d="
  M 183.78 96.37
  A 8.52 8.52 0.0 0 0 175.26 87.85
  A 8.52 8.52 0.0 0 0 166.74 96.37
  A 8.52 8.52 0.0 0 0 175.26 104.89
  A 8.52 8.52 0.0 0 0 183.78 96.37"
/>
<path stroke="#808080" vector-effect="non-scaling-stroke" d="
  M 270.35 94.62
  A 8.53 8.53 0.0 0 0 261.82 86.09
  A 8.53 8.53 0.0 0 0 253.29 94.62
  A 8.53 8.53 0.0 0 0 261.82 103.15
  A 8.53 8.53 0.0 0 0 270.35 94.62"
/>
<path stroke="#808080" vector-effect="non-scaling-stroke" d="
  M 125.06 96.35
  A 8.57 8.57 0.0 0 0 116.49 87.78
  A 8.57 8.57 0.0 0 0 107.92 96.35
  A 8.57 8.57 0.0 0 0 116.49 104.92
  A 8.57 8.57 0.0 0 0 125.06 96.35"
/>
<path stroke="#808080" vector-effect="non-scaling-stroke" d="
  M 436.71 97.51
  A 8.51 8.51 0.0 0 0 428.20 89.00
  A 8.51 8.51 0.0 0 0 419.69 97.51
  A 8.51 8.51 0.0 0 0 428.20 106.02
  A 8.51 8.51 0.0 0 0 436.71 97.51"
/>
</g>
<path fill="#000000" d="
  M 15.63 3.09
  C 15.41 2.65 15.88 2.50 16.23 2.50
  Q 30.63 2.26 67.50 2.25
  Q 324.97 2.20 582.43 2.31
  A 1.22 0.67 -9.1 0 1 583.32 2.63
  L 583.61 3.01
  A 1.48 0.41 58.3 0 0 584.26 3.61
  C 596.77 8.53 595.75 17.01 595.75 30.20
  Q 595.75 91.94 595.75 153.67
  C 595.75 162.09 592.87 168.13 585.09 171.48
  Q 582.15 172.75 577.21 172.75
  Q 299.11 172.75 21.00 172.75
  C 10.14 172.75 2.53 163.66 3.03 152.97
  Q 3.25 148.15 3.25 148.01
  Q 3.25 83.85 3.25 18.03
  Q 3.25 16.84 3.59 15.71
  Q 6.30 6.56 15.49 3.58
  A 0.37 0.30 66.7 0 0 15.63 3.09
  Z
  M 78.57 46.90
  Q 75.59 44.41 71.50 45.04
  L 42.81 45.30
  A 0.51 0.51 -0.6 0 0 42.31 45.81
  L 42.25 113.94
  A 0.56 0.56 0.0 0 0 42.81 114.50
  L 61.71 114.50
  A 0.56 0.55 -89.5 0 0 62.26 113.95
  L 62.30 101.06
  A 1.62 1.40 67.5 0 1 62.60 100.16
  C 65.87 95.96 70.25 108.56 72.61 113.97
  A 0.80 0.75 77.3 0 0 73.31 114.44
  L 94.89 114.50
  A 0.43 0.43 76.9 0 0 95.27 113.88
  L 82.06 86.05
  A 0.57 0.56 -26.1 0 1 82.32 85.31
  C 99.32 76.81 98.59 51.34 78.57 46.90
  Z
  M 155.44 108.31
  Q 163.41 113.91 171.31 114.19
  Q 186.03 114.71 201.77 114.49
  A 0.75 0.74 -0.8 0 0 202.50 113.75
  L 202.50 45.75
  A 0.50 0.50 0.0 0 0 202.00 45.25
  L 181.00 45.25
  A 0.50 0.50 0.0 0 0 180.50 45.75
  L 180.50 60.10
  A 0.65 0.65 -0.4 0 1 179.86 60.75
  C 169.58 60.87 157.85 64.70 151.57 73.07
  C 144.11 83.03 144.65 100.74 155.44 108.31
  Z
  M 319.16 63.25
  Q 316.18 73.87 316.50 83.75
  Q 316.93 97.00 303.99 95.80
  A 0.46 0.44 2.9 0 0 303.48 96.24
  L 303.24 115.24
  A 0.55 0.53 2.2 0 0 303.76 115.78
  C 316.31 116.54 331.49 115.21 336.39 102.40
  C 339.34 94.71 337.77 81.64 339.50 74.25
  Q 341.32 66.49 350.45 67.62
  A 1.58 1.54 3.5 0 0 352.22 66.09
  L 352.08 47.94
  A 0.55 0.54 2.3 0 0 351.57 47.40
  C 337.48 46.45 323.70 47.08 319.16 63.25
  Z
  M 384.33 115.86
  C 387.35 117.03 399.01 115.94 403.11 115.79
  A 0.66 0.66 -1.4 0 0 403.74 115.13
  Q 403.90 97.03 403.54 79.51
  C 403.15 60.83 391.48 61.10 376.60 61.53
  A 0.58 0.58 -1.0 0 1 376.00 60.95
  L 376.00 47.92
  A 0.67 0.67 -0.2 0 0 375.33 47.25
  L 354.75 47.25
  A 0.50 0.50 0.0 0 0 354.25 47.75
  L 354.31 115.69
  A 0.26 0.25 0.0 0 0 354.57 115.94
  L 374.68 115.77
  A 0.83 0.82 -0.4 0 0 375.50 114.95
  L 375.50 82.53
  A 3.43 3.43 -22.8 0 1 376.48 80.13
  C 379.32 77.26 380.97 80.46 381.04 83.07
  Q 381.67 106.81 381.25 113.50
  Q 381.04 116.79 383.48 115.78
  A 1.24 0.56 29.5 0 1 384.33 115.86
  Z
  M 536.81 78.45
  L 536.57 47.94
  A 0.52 0.50 90.0 0 0 536.07 47.42
  L 520.05 47.26
  A 0.56 0.55 -90.0 0 0 519.50 47.82
  L 519.56 115.44
  A 0.51 0.51 0.0 0 0 520.07 115.95
  L 535.82 115.94
  A 0.95 0.93 89.7 0 0 536.75 114.98
  Q 536.71 106.95 536.80 99.34
  C 536.82 97.79 537.44 95.88 539.34 96.53
  A 3.04 2.98 -2.1 0 1 541.16 98.19
  L 548.85 115.73
  A 0.46 0.45 77.8 0 0 549.26 116.00
  C 556.30 116.00 563.70 115.60 570.70 116.11
  C 574.37 116.38 571.60 113.77 571.12 112.81
  Q 564.03 98.82 556.99 84.92
  A 0.92 0.89 50.1 0 1 557.06 83.98
  L 568.20 68.37
  Q 569.00 67.26 567.60 67.27
  L 546.33 67.43
  A 1.30 1.25 -70.5 0 0 545.32 67.94
  L 537.14 78.56
  Q 536.82 78.97 536.81 78.45
  Z
  M 290.59 86.67
  A 28.81 28.34 0.0 0 0 261.78 58.33
  A 28.81 28.34 0.0 0 0 232.97 86.67
  A 28.81 28.34 0.0 0 0 261.78 115.01
  A 28.81 28.34 0.0 0 0 290.59 86.67
  Z
  M 492.25 60.00
  C 472.03 57.56 454.59 75.96 460.56 95.94
  C 465.01 110.83 481.90 120.75 497.25 115.00
  Q 508.78 110.68 514.41 99.92
  A 0.46 0.45 -76.1 0 0 514.01 99.25
  L 497.42 99.25
  A 1.60 1.59 -70.1 0 0 496.19 99.83
  Q 492.80 103.93 488.50 104.19
  C 477.00 104.92 476.34 87.99 487.56 87.39
  C 491.44 87.19 494.01 88.90 495.42 92.46
  A 1.65 1.59 78.3 0 0 496.94 93.50
  L 516.32 93.22
  A 0.53 0.52 88.9 0 0 516.83 92.68
  C 516.61 77.40 508.53 61.96 492.25 60.00
  Z
  M 230.25 61.52
  A 0.26 0.26 0.0 0 0 229.99 61.26
  L 208.49 61.26
  A 0.26 0.26 0.0 0 0 208.23 61.52
  L 208.23 114.24
  A 0.26 0.26 0.0 0 0 208.49 114.50
  L 229.99 114.50
  A 0.26 0.26 0.0 0 0 230.25 114.24
  L 230.25 61.52
  Z
  M 144.25 76.00
  C 144.27 69.01 139.16 62.38 131.75 62.25
  Q 115.91 61.97 100.06 61.82
  A 0.53 0.53 -87.1 0 0 99.52 62.31
  Q 98.91 70.06 99.40 77.81
  A 0.57 0.56 88.9 0 0 99.94 78.33
  Q 107.83 78.62 115.72 78.51
  C 117.21 78.49 119.58 78.08 119.52 80.21
  Q 119.46 82.04 117.63 82.21
  C 113.79 82.57 109.40 82.16 106.18 83.07
  C 97.45 85.53 92.77 95.13 95.17 103.63
  C 97.57 112.14 106.31 114.56 114.25 114.59
  Q 129.03 114.64 143.81 114.32
  A 0.51 0.51 -0.6 0 0 144.31 113.81
  Q 144.21 94.90 144.25 76.00
  Z
  M 436.33 115.86
  C 439.33 117.02 450.89 115.94 455.12 115.77
  A 0.93 0.92 89.0 0 0 456.01 114.84
  C 455.90 101.42 456.90 87.99 455.50 75.00
  C 454.51 65.83 447.43 63.32 439.25 63.30
  Q 425.50 63.25 411.75 63.25
  A 0.50 0.50 0.0 0 0 411.25 63.75
  L 411.25 78.75
  A 0.51 0.51 -0.6 0 0 411.77 79.26
  Q 420.42 79.10 428.63 79.51
  C 432.54 79.70 431.65 83.20 428.31 83.39
  C 424.70 83.60 420.81 83.11 417.64 84.12
  C 409.06 86.85 404.96 96.04 406.92 104.56
  C 409.63 116.35 425.66 116.71 435.43 115.62
  Q 435.64 115.60 436.33 115.86
  Z"
/>
<path fill="#ffffff" d="
  M 71.50 45.04
  C 71.49 47.55 77.73 46.93 78.57 46.90
  C 98.59 51.34 99.32 76.81 82.32 85.31
  A 0.57 0.56 -26.1 0 0 82.06 86.05
  L 95.27 113.88
  A 0.43 0.43 76.9 0 1 94.89 114.50
  L 73.31 114.44
  A 0.80 0.75 77.3 0 1 72.61 113.97
  C 70.25 108.56 65.87 95.96 62.60 100.16
  A 1.62 1.40 67.5 0 0 62.30 101.06
  L 62.26 113.95
  A 0.56 0.55 -89.5 0 1 61.71 114.50
  L 42.81 114.50
  A 0.56 0.56 0.0 0 1 42.25 113.94
  L 42.31 45.81
  A 0.51 0.51 -0.6 0 1 42.81 45.30
  L 71.50 45.04
  Z
  M 73.08 81.63
  A 8.47 8.47 0.0 0 0 64.61 73.16
  A 8.47 8.47 0.0 0 0 56.14 81.63
  A 8.47 8.47 0.0 0 0 64.61 90.10
  A 8.47 8.47 0.0 0 0 73.08 81.63
  Z"
/>
<path fill="#8a9289" d="
  M 71.50 45.04
  Q 75.59 44.41 78.57 46.90
  C 77.73 46.93 71.49 47.55 71.50 45.04
  Z"
/>
<path fill="#ffffff" d="
  M 155.44 108.31
  C 144.65 100.74 144.11 83.03 151.57 73.07
  C 157.85 64.70 169.58 60.87 179.86 60.75
  A 0.65 0.65 -0.4 0 0 180.50 60.10
  L 180.50 45.75
  A 0.50 0.50 0.0 0 1 181.00 45.25
  L 202.00 45.25
  A 0.50 0.50 0.0 0 1 202.50 45.75
  L 202.50 113.75
  A 0.75 0.74 -0.8 0 1 201.77 114.49
  Q 186.03 114.71 171.31 114.19
  Q 163.41 113.91 155.44 108.31
  Z
  M 183.78 96.37
  A 8.52 8.52 0.0 0 0 175.26 87.85
  A 8.52 8.52 0.0 0 0 166.74 96.37
  A 8.52 8.52 0.0 0 0 175.26 104.89
  A 8.52 8.52 0.0 0 0 183.78 96.37
  Z"
/>
<path fill="#ffffff" d="
  M 319.16 63.25
  C 323.70 47.08 337.48 46.45 351.57 47.40
  A 0.55 0.54 2.3 0 1 352.08 47.94
  L 352.22 66.09
  A 1.58 1.54 3.5 0 1 350.45 67.62
  Q 341.32 66.49 339.50 74.25
  C 337.77 81.64 339.34 94.71 336.39 102.40
  C 331.49 115.21 316.31 116.54 303.76 115.78
  A 0.55 0.53 2.2 0 1 303.24 115.24
  L 303.48 96.24
  A 0.46 0.44 2.9 0 1 303.99 95.80
  Q 316.93 97.00 316.50 83.75
  Q 316.18 73.87 319.16 63.25
  Z"
/>
<path fill="#ffffff" d="
  M 383.48 115.78
  Q 381.04 116.79 381.25 113.50
  Q 381.67 106.81 381.04 83.07
  C 380.97 80.46 379.32 77.26 376.48 80.13
  A 3.43 3.43 -22.8 0 0 375.50 82.53
  L 375.50 114.95
  A 0.83 0.82 -0.4 0 1 374.68 115.77
  L 354.57 115.94
  A 0.26 0.25 -0.0 0 1 354.31 115.69
  L 354.25 47.75
  A 0.50 0.50 0.0 0 1 354.75 47.25
  L 375.33 47.25
  A 0.67 0.67 0.4 0 1 376.00 47.92
  L 376.00 60.95
  A 0.58 0.58 -1.0 0 0 376.60 61.53
  C 391.48 61.10 403.15 60.83 403.54 79.51
  Q 403.90 97.03 403.74 115.13
  A 0.66 0.66 -1.4 0 1 403.11 115.79
  C 399.01 115.94 387.35 117.03 384.33 115.86
  A 1.24 0.56 29.5 0 0 383.48 115.78
  Z"
/>
<path fill="#ffffff" d="
  M 537.14 78.56
  L 545.32 67.94
  A 1.30 1.25 -70.5 0 1 546.33 67.43
  L 567.60 67.27
  Q 569.00 67.26 568.20 68.37
  L 557.06 83.98
  A 0.92 0.89 50.1 0 0 556.99 84.92
  Q 564.03 98.82 571.12 112.81
  C 571.60 113.77 574.37 116.38 570.70 116.11
  C 563.70 115.60 556.30 116.00 549.26 116.00
  A 0.46 0.45 77.8 0 1 548.85 115.73
  L 541.16 98.19
  A 3.04 2.98 -2.1 0 0 539.34 96.53
  C 537.44 95.88 536.82 97.79 536.80 99.34
  Q 536.71 106.95 536.75 114.98
  A 0.95 0.93 89.7 0 1 535.82 115.94
  L 520.07 115.95
  A 0.51 0.51 -0.1 0 1 519.56 115.44
  L 519.50 47.82
  A 0.56 0.55 -90.0 0 1 520.05 47.26
  L 536.07 47.42
  A 0.52 0.50 90.0 0 1 536.57 47.94
  L 536.81 78.45
  Q 536.82 78.97 537.14 78.56
  Z"
/>
<path fill="#ffffff" d="
  M 290.59 86.67
  A 28.81 28.34 0.0 0 1 261.78 115.01
  A 28.81 28.34 0.0 0 1 232.97 86.67
  A 28.81 28.34 0.0 0 1 261.78 58.33
  A 28.81 28.34 0.0 0 1 290.59 86.67
  Z
  M 270.35 94.62
  A 8.53 8.53 0.0 0 0 261.82 86.09
  A 8.53 8.53 0.0 0 0 253.29 94.62
  A 8.53 8.53 0.0 0 0 261.82 103.15
  A 8.53 8.53 0.0 0 0 270.35 94.62
  Z"
/>
<path fill="#ffffff" d="
  M 460.56 95.94
  C 454.59 75.96 472.03 57.56 492.25 60.00
  C 508.53 61.96 516.61 77.40 516.83 92.68
  A 0.53 0.52 88.9 0 1 516.32 93.22
  L 496.94 93.50
  A 1.65 1.59 78.3 0 1 495.42 92.46
  C 494.01 88.90 491.44 87.19 487.56 87.39
  C 476.34 87.99 477.00 104.92 488.50 104.19
  Q 492.80 103.93 496.19 99.83
  A 1.60 1.59 -70.1 0 1 497.42 99.25
  L 514.01 99.25
  A 0.46 0.45 -76.1 0 1 514.41 99.92
  Q 508.78 110.68 497.25 115.00
  C 481.90 120.75 465.01 110.83 460.56 95.94
  Z"
/>
<rect fill="#ffffff" x="208.23" y="61.26" width="22.02" height="53.24" rx="0.26"/>
<path fill="#ffffff" d="
  M 131.75 62.25
  C 139.16 62.38 144.27 69.01 144.25 76.00
  Q 144.21 94.90 144.31 113.81
  A 0.51 0.51 -0.6 0 1 143.81 114.32
  Q 129.03 114.64 114.25 114.59
  C 106.31 114.56 97.57 112.14 95.17 103.63
  C 92.77 95.13 97.45 85.53 106.18 83.07
  C 109.40 82.16 113.79 82.57 117.63 82.21
  Q 119.46 82.04 119.52 80.21
  C 119.58 78.08 117.21 78.49 115.72 78.51
  Q 107.83 78.62 99.94 78.33
  A 0.57 0.56 88.9 0 1 99.40 77.81
  Q 98.91 70.06 99.52 62.31
  A 0.53 0.53 -87.1 0 1 100.06 61.82
  Q 115.91 61.97 131.75 62.25
  Z
  M 125.06 96.35
  A 8.57 8.57 0.0 0 0 116.49 87.78
  A 8.57 8.57 0.0 0 0 107.92 96.35
  A 8.57 8.57 0.0 0 0 116.49 104.92
  A 8.57 8.57 0.0 0 0 125.06 96.35
  Z"
/>
<path fill="#ffffff" d="
  M 435.43 115.62
  C 425.66 116.71 409.63 116.35 406.92 104.56
  C 404.96 96.04 409.06 86.85 417.64 84.12
  C 420.81 83.11 424.70 83.60 428.31 83.39
  C 431.65 83.20 432.54 79.70 428.63 79.51
  Q 420.42 79.10 411.77 79.26
  A 0.51 0.51 -0.6 0 1 411.25 78.75
  L 411.25 63.75
  A 0.50 0.50 0.0 0 1 411.75 63.25
  Q 425.50 63.25 439.25 63.30
  C 447.43 63.32 454.51 65.83 455.50 75.00
  C 456.90 87.99 455.90 101.42 456.01 114.84
  A 0.93 0.92 89.0 0 1 455.12 115.77
  C 450.89 115.94 439.33 117.02 436.33 115.86
  Q 435.64 115.60 435.43 115.62
  Z
  M 436.71 97.51
  A 8.51 8.51 0.0 0 0 428.20 89.00
  A 8.51 8.51 0.0 0 0 419.69 97.51
  A 8.51 8.51 0.0 0 0 428.20 106.02
  A 8.51 8.51 0.0 0 0 436.71 97.51
  Z"
/>
<circle fill="#000000" cx="64.61" cy="81.63" r="8.47"/>
<circle fill="#000000" cx="261.82" cy="94.62" r="8.53"/>
<circle fill="#000000" cx="116.49" cy="96.35" r="8.57"/>
<circle fill="#000000" cx="175.26" cy="96.37" r="8.52"/>
<circle fill="#000000" cx="428.20" cy="97.51" r="8.51"/>
<path fill="#000000" d="
  M 86.31 201.81
  L 86.49 251.36
  A 0.90 0.89 -2.0 0 1 85.64 252.26
  Q 75.87 252.78 66.01 252.25
  A 0.80 0.80 1.5 0 1 65.25 251.45
  L 65.25 201.87
  A 0.55 0.55 -1.0 0 0 64.68 201.32
  Q 50.34 201.81 35.85 201.25
  A 0.56 0.56 0.5 0 1 35.31 200.70
  L 35.25 184.65
  A 0.90 0.90 89.4 0 1 36.15 183.75
  L 115.32 183.56
  A 0.93 0.93 0.0 0 1 116.25 184.49
  L 116.25 200.65
  A 0.64 0.62 90.0 0 1 115.63 201.29
  L 86.81 201.31
  A 0.50 0.50 0.0 0 0 86.31 201.81
  Z"
/>
<path fill="#000000" d="
  M 201.06 226.74
  C 206.95 227.39 212.21 228.77 213.25 235.50
  Q 214.20 241.66 213.71 251.68
  A 0.55 0.53 -88.9 0 1 213.18 252.21
  L 193.68 252.47
  A 1.21 1.17 89.0 0 1 192.49 251.28
  C 192.38 245.44 194.26 234.56 185.25 234.50
  Q 168.03 234.38 150.92 234.31
  A 0.42 0.42 0.0 0 0 150.50 234.73
  L 150.50 251.31
  A 1.13 1.12 -90.0 0 1 149.38 252.44
  L 130.73 252.50
  A 1.49 1.47 89.8 0 1 129.25 251.01
  L 129.25 184.52
  A 0.77 0.77 0.0 0 1 130.02 183.75
  Q 158.24 183.53 186.68 183.71
  C 196.49 183.78 209.90 183.02 213.25 195.21
  C 215.99 205.21 216.68 224.11 202.50 225.75
  Q 201.49 225.87 200.91 226.33
  Q 200.47 226.68 201.06 226.74
  Z
  M 192.50 204.02
  C 190.59 200.15 187.11 200.53 183.25 200.50
  Q 167.87 200.37 151.39 200.24
  A 0.92 0.90 -89.4 0 0 150.48 201.15
  L 150.32 216.93
  A 0.56 0.54 -89.5 0 0 150.85 217.49
  Q 168.70 217.67 185.55 217.31
  Q 189.15 217.23 190.74 216.25
  C 194.03 214.22 193.96 206.98 192.50 204.02
  Z"
/>
<path fill="#000000" d="
  M 253.96 229.81
  C 254.24 235.04 255.53 237.01 261.00 237.25
  Q 273.10 237.77 289.44 237.19
  C 298.51 236.86 299.58 225.89 289.66 225.39
  C 276.01 224.69 262.36 225.55 248.75 224.50
  C 238.94 223.75 234.47 219.01 233.16 209.30
  C 231.70 198.52 234.56 187.82 246.75 185.50
  C 263.19 182.38 284.20 183.33 298.75 184.25
  C 311.16 185.03 315.31 192.88 314.72 204.14
  A 0.65 0.65 -88.1 0 1 314.07 204.75
  L 296.00 204.75
  Q 294.82 204.75 293.94 202.56
  C 292.78 199.70 290.68 198.80 287.55 198.64
  Q 271.67 197.81 257.75 199.75
  Q 254.25 200.24 254.00 204.00
  C 253.58 210.16 261.02 209.45 264.89 209.52
  C 277.22 209.77 289.72 209.31 302.01 210.07
  Q 313.78 210.80 316.48 222.11
  C 318.84 231.96 318.45 247.01 305.99 249.95
  C 294.50 252.65 281.77 252.34 267.25 252.25
  Q 257.47 252.19 250.06 251.45
  C 235.67 250.02 232.59 243.57 233.28 229.81
  A 0.53 0.52 -88.2 0 1 233.80 229.31
  L 253.43 229.30
  A 0.54 0.53 88.3 0 1 253.96 229.81
  Z"
/>
<path fill="#000000" d="
  M 439.32 217.72
  Q 449.31 218.42 451.23 228.25
  C 454.40 244.43 447.34 251.71 431.74 252.03
  Q 415.52 252.36 399.30 252.28
  C 390.45 252.24 385.37 252.57 379.31 249.69
  C 371.52 245.98 370.88 235.06 372.72 227.76
  C 374.09 222.31 377.46 219.25 382.87 218.31
  C 383.37 218.23 386.04 217.53 382.98 217.12
  C 371.82 215.63 371.03 201.48 373.94 193.19
  C 377.14 184.04 389.23 183.74 397.25 183.74
  Q 412.38 183.75 427.50 183.77
  C 443.05 183.78 453.99 188.24 450.87 206.39
  C 449.80 212.55 446.62 216.37 440.26 216.82
  Q 439.57 216.87 439.13 217.30
  Q 438.73 217.68 439.32 217.72
  Z
  M 392.65 201.05
  C 390.01 208.14 394.59 210.19 400.67 210.36
  Q 410.33 210.63 420.00 210.50
  C 424.56 210.44 431.32 210.80 431.69 204.69
  C 432.26 195.15 417.65 197.34 409.34 197.47
  C 404.76 197.53 400.53 197.43 395.99 198.25
  Q 393.52 198.70 392.65 201.05
  Z
  M 397.75 223.60
  C 391.70 223.79 389.63 231.43 392.92 235.00
  C 396.92 239.35 407.10 238.98 412.56 238.37
  A 1.32 0.49 -53.5 0 0 413.30 237.89
  C 413.60 237.59 424.46 237.16 427.41 236.76
  C 433.28 235.95 433.29 227.66 429.69 225.10
  C 425.36 222.02 403.83 223.41 397.75 223.60
  Z"
/>
<path fill="#000000" d="
  M 468.72 217.12
  C 469.23 202.23 468.98 186.70 488.33 184.80
  Q 508.61 182.81 528.86 184.31
  C 542.12 185.29 550.33 187.90 552.00 202.00
  Q 554.05 219.29 551.90 234.62
  C 550.25 246.33 544.88 250.44 533.66 251.42
  C 519.79 252.63 502.78 252.69 488.30 251.58
  C 478.99 250.87 472.15 247.98 470.25 238.50
  Q 468.32 228.91 468.72 217.12
  Z
  M 490.15 206.39
  C 488.18 212.06 488.84 220.66 489.34 225.93
  C 489.91 231.99 491.82 234.56 498.00 235.00
  Q 511.45 235.96 522.11 234.92
  C 528.41 234.31 532.40 232.87 532.75 226.00
  Q 533.14 218.23 532.77 211.42
  C 532.40 204.89 530.51 201.51 523.75 201.00
  Q 509.40 199.92 498.25 201.25
  C 494.59 201.69 491.45 202.63 490.15 206.39
  Z"
/>
<rect fill="#000000" x="-17.80" y="-8.96" transform="translate(344.45,226.53) rotate(-0.1)" width="35.60" height="17.92" rx="0.92"/>
<rect fill="#057b2a" x="212.24" y="262.25" width="162.78" height="34.50" rx="0.29"/>
<rect fill="#cf1b14" x="35.22" y="262.25" width="163.56" height="34.50" rx="0.26"/>
<rect fill="#052ea5" x="389.23" y="262.25" width="163.54" height="34.50" rx="0.26"/>
</svg>
