<?xml version="1.0" encoding="UTF-8" standalone="no"?>
<!DOCTYPE svg PUBLIC "-//W3C//DTD SVG 1.1//EN" "http://www.w3.org/Graphics/SVG/1.1/DTD/svg11.dtd">
<svg xmlns="http://www.w3.org/2000/svg" version="1.1" viewBox="0 0 600 300">
<path fill="#000000" d="
  M 342.93 171.55
  A 0.77 0.77 90.0 0 0 341.83 171.55
  L 291.61 223.02
  Q 290.17 224.49 288.11 224.50
  L 194.45 225.00
  A 1.96 1.91 -22.2 0 1 193.09 224.45
  L 125.42 157.30
  A 1.24 1.17 23.6 0 1 125.06 156.45
  L 125.00 61.46
  A 2.70 2.65 -22.7 0 1 125.80 59.56
  L 183.40 2.73
  A 1.39 1.39 45.1 0 1 185.36 2.74
  L 249.46 67.33
  A 0.95 0.94 -44.1 0 0 250.79 67.34
  L 300.77 18.36
  A 1.28 1.27 22.7 0 1 301.66 18.00
  L 384.76 18.00
  A 3.62 3.60 66.8 0 1 387.26 19.01
  L 445.31 75.30
  A 2.28 2.27 22.1 0 1 446.00 76.93
  L 446.00 159.89
  A 2.33 2.32 -21.8 0 1 445.27 161.58
  L 387.61 216.41
  A 0.51 0.51 -44.2 0 1 386.90 216.40
  L 342.93 171.55
  Z
  M 139.44 58.19
  Q 137.51 60.11 132.63 64.41
  A 1.14 1.11 -21.4 0 0 132.25 65.25
  L 132.25 152.51
  A 1.11 1.02 21.6 0 0 132.64 153.32
  Q 135.33 155.52 140.81 160.94
  Q 169.31 189.09 197.65 217.40
  A 1.21 1.19 -22.2 0 0 198.50 217.75
  L 284.05 216.99
  Q 285.66 216.97 286.80 215.82
  Q 309.54 192.78 332.01 169.26
  Q 333.42 167.78 335.55 166.20
  A 0.63 0.62 -41.1 0 0 335.62 165.25
  L 294.60 124.23
  A 2.46 2.45 -22.2 0 0 292.85 123.50
  L 243.26 123.25
  A 0.77 0.77 25.4 0 1 242.50 122.49
  L 241.82 77.15
  A 2.65 2.64 -21.1 0 1 242.73 75.11
  C 244.45 73.59 243.69 73.32 242.54 72.17
  Q 213.68 43.31 185.14 14.77
  A 1.25 1.24 45.2 0 0 183.38 14.76
  Q 161.06 36.69 139.44 58.19
  Z
  M 351.39 50.31
  L 347.74 59.40
  A 2.99 2.54 48.3 0 0 347.79 61.50
  L 349.91 66.71
  A 1.08 0.89 83.3 0 0 350.55 67.32
  L 356.98 68.92
  A 2.31 2.18 -61.8 0 0 359.22 68.17
  L 364.92 61.59
  A 1.30 1.27 -39.3 0 0 365.08 60.14
  L 361.41 53.49
  Q 360.58 51.97 358.79 51.36
  L 353.24 49.49
  A 1.50 1.45 20.2 0 0 351.39 50.31
  Z
  M 311.20 77.31
  Q 310.29 84.95 308.38 92.26
  A 0.85 0.82 29.5 0 0 308.63 93.09
  L 319.89 103.41
  A 0.91 0.86 57.1 0 0 320.74 103.62
  L 333.67 99.86
  A 0.90 0.88 86.1 0 0 334.30 99.12
  L 336.68 82.06
  A 2.12 2.08 17.9 0 0 335.56 79.92
  L 323.81 73.77
  A 2.69 2.52 51.2 0 0 322.04 73.52
  L 312.71 75.63
  A 1.97 1.95 87.3 0 0 311.20 77.31
  Z
  M 385.05 106.24
  C 384.42 107.33 387.27 116.72 387.72 118.58
  C 388.67 122.44 386.59 127.36 385.46 131.24
  A 2.55 2.54 86.8 0 1 384.01 132.87
  L 365.31 140.71
  A 1.24 1.24 -19.1 0 0 364.59 142.19
  Q 366.65 149.48 368.33 156.41
  C 369.32 160.52 373.97 163.25 377.49 165.48
  A 3.64 3.09 53.6 0 0 379.79 166.02
  L 398.53 163.37
  A 1.20 1.12 -88.2 0 0 399.47 162.42
  L 402.73 145.66
  A 1.47 1.42 -0.5 0 1 403.89 144.52
  L 415.59 142.28
  A 1.11 1.09 0.3 0 0 416.46 141.43
  Q 417.59 136.22 418.48 131.15
  Q 418.82 129.22 417.69 124.81
  Q 414.56 112.66 411.36 99.96
  A 0.80 0.80 75.4 0 0 410.38 99.38
  L 385.46 105.93
  A 0.67 0.67 7.8 0 0 385.05 106.24
  Z"
/>
<path fill="#000000" d="
  M 216.60 79.09
  L 224.24 91.11
  A 1.46 1.41 -45.0 0 1 224.21 92.67
  L 218.38 101.52
  A 1.69 1.61 15.9 0 1 216.99 102.25
  L 207.28 102.25
  A 1.46 1.46 75.2 0 1 206.01 101.51
  L 199.31 89.77
  A 1.76 1.76 -42.9 0 1 199.38 87.93
  L 205.23 79.13
  A 1.33 1.21 -71.4 0 1 206.30 78.53
  L 215.82 78.65
  A 0.94 0.94 -15.4 0 1 216.60 79.09
  Z"
/>
<path fill="#000000" d="
  M 175.81 109.90
  C 179.35 111.15 180.51 114.13 181.66 117.47
  A 0.92 0.87 59.5 0 1 181.44 118.43
  L 175.32 124.11
  A 1.31 1.14 21.1 0 1 174.44 124.43
  C 172.67 124.39 171.03 124.53 169.51 123.43
  Q 166.22 121.05 162.77 118.22
  A 0.98 0.98 32.7 0 1 162.51 117.04
  C 163.81 114.42 164.70 111.83 167.35 110.48
  Q 171.49 108.37 175.81 109.90
  Z"
/>
<path fill="#000000" d="
  M 214.17 181.18
  C 226.53 180.98 238.75 178.42 247.54 169.31
  Q 249.40 167.39 250.56 164.31
  Q 255.10 152.29 258.68 139.93
  Q 259.44 137.31 261.16 135.48
  Q 261.84 134.74 262.00 135.74
  C 263.90 148.04 263.02 160.48 257.03 171.57
  C 254.91 175.48 251.28 179.31 248.31 183.06
  C 241.95 191.12 221.74 189.79 213.00 187.75
  C 207.73 186.52 204.07 182.84 199.61 177.39
  C 199.48 177.23 199.41 176.99 199.56 176.85
  A 0.29 0.23 43.6 0 1 199.90 176.88
  C 202.80 179.52 210.32 181.24 214.17 181.18
  Z"
/>
<path fill="#000000" d="
  M 161.12 239.28
  C 181.37 229.37 206.41 241.59 207.25 265.00
  C 208.12 289.03 185.17 303.13 163.38 294.87
  C 139.33 285.76 137.75 250.71 161.12 239.28
  Z
  M 179.97 240.05
  C 170.62 236.92 163.96 244.47 161.94 252.69
  Q 157.89 269.16 163.31 284.69
  C 167.17 295.73 183.10 297.01 187.94 286.19
  C 192.73 275.44 195.39 245.21 179.97 240.05
  Z"
/>
<path fill="#000000" d="
  M 293.41 292.54
  C 276.42 299.30 251.20 300.29 240.53 281.84
  Q 235.71 273.51 237.02 262.97
  C 240.00 238.98 265.82 231.06 285.84 239.20
  Q 288.33 240.21 289.43 240.08
  C 291.90 239.80 292.61 235.24 294.28 236.26
  A 1.00 0.84 -77.0 0 1 294.69 237.07
  Q 294.84 246.40 294.58 255.73
  C 294.53 257.51 293.16 257.39 292.65 255.98
  C 288.13 243.55 274.76 234.65 262.26 242.08
  C 250.92 248.82 251.26 269.11 254.25 280.50
  C 257.38 292.44 268.75 295.99 279.57 292.15
  A 1.34 1.34 -8.5 0 0 280.46 290.95
  Q 280.76 283.91 280.21 277.61
  C 279.87 273.72 277.85 272.69 274.25 272.75
  Q 271.65 272.79 273.13 271.33
  A 1.30 1.14 20.2 0 1 273.99 271.00
  C 283.27 270.97 301.97 270.52 301.72 271.84
  A 0.94 0.81 -5.6 0 1 301.10 272.49
  C 298.06 273.47 295.01 273.02 294.90 277.50
  Q 294.75 283.50 294.75 290.56
  A 2.14 2.13 -11.0 0 1 293.41 292.54
  Z"
/>
<path fill="#000000" d="
  M 428.24 267.75
  C 426.43 307.30 366.71 306.56 365.47 267.50
  C 364.12 225.57 430.16 225.63 428.24 267.75
  Z
  M 386.51 288.30
  C 391.23 294.53 399.89 295.80 405.66 290.31
  C 414.74 281.66 414.53 254.36 407.94 245.06
  C 403.80 239.23 395.65 237.62 389.73 241.63
  C 378.64 249.13 379.07 278.47 386.51 288.30
  Z"
/>
<path fill="#000000" d="
  M 505.79 239.75
  C 509.04 241.23 510.67 239.62 511.87 236.78
  A 1.23 0.94 -82.5 0 1 512.53 236.12
  C 514.17 235.61 513.56 237.55 513.59 238.14
  Q 514.12 251.23 513.69 255.44
  C 513.44 257.82 511.94 256.69 511.59 255.35
  C 508.81 244.80 498.96 237.77 488.19 240.69
  C 472.19 245.01 471.10 267.18 475.50 279.91
  C 481.48 297.22 500.82 296.06 510.78 283.79
  Q 513.37 280.59 512.64 286.05
  A 4.11 4.07 -19.1 0 1 511.49 288.39
  C 501.24 298.64 484.03 299.57 471.69 292.52
  C 455.93 283.53 453.26 262.59 464.09 248.60
  C 474.16 235.59 490.84 232.94 505.79 239.75
  Z"
/>
<path fill="#000000" d="
  M 68.41 271.47
  Q 68.12 259.47 68.28 246.50
  Q 68.38 238.77 60.81 238.69
  A 1.42 0.82 -11.4 0 1 59.91 238.39
  Q 59.42 237.91 59.93 237.38
  A 1.34 0.95 15.5 0 1 60.81 237.06
  L 78.43 237.05
  A 1.17 1.01 -17.3 0 1 79.28 237.42
  Q 80.36 238.72 78.19 238.94
  C 73.41 239.41 72.03 241.24 71.96 246.06
  Q 71.57 270.41 71.75 294.77
  Q 71.78 299.09 69.04 295.74
  L 31.13 249.47
  Q 30.18 248.30 30.18 249.81
  Q 30.30 268.16 30.33 286.25
  Q 30.34 294.02 38.44 294.31
  Q 40.18 294.37 39.31 295.61
  A 1.02 0.89 15.2 0 1 38.51 296.00
  L 18.82 295.94
  A 0.66 0.56 -3.5 0 1 18.18 295.46
  Q 18.00 294.21 20.00 294.25
  C 25.39 294.36 26.72 290.36 26.81 285.55
  Q 27.16 267.04 27.01 248.53
  C 26.98 245.32 27.41 244.40 24.94 241.81
  Q 22.34 239.10 19.40 238.74
  C 18.08 238.58 17.02 237.26 19.25 237.00
  Q 23.11 236.55 38.99 237.23
  A 1.14 1.08 -17.5 0 1 39.81 237.63
  L 67.38 271.84
  Q 68.46 273.17 68.41 271.47
  Z"
/>
<path fill="#000000" d="
  M 105.56 267.81
  Q 105.44 277.78 105.50 287.75
  C 105.52 291.12 106.76 292.31 110.11 292.67
  C 121.44 293.91 131.44 289.67 134.68 278.04
  A 1.30 1.05 88.1 0 1 135.24 277.30
  Q 136.73 276.48 136.45 278.58
  Q 135.30 286.97 133.89 295.33
  A 0.60 0.59 4.0 0 1 133.31 295.82
  Q 109.18 296.13 85.05 296.00
  C 84.20 296.00 82.75 296.46 82.76 295.07
  A 0.67 0.62 -6.2 0 1 83.30 294.45
  C 87.50 293.55 91.00 294.53 91.00 288.50
  Q 91.00 266.89 91.00 245.27
  C 91.00 240.84 89.20 238.29 84.59 238.68
  C 82.09 238.89 81.78 237.00 84.29 237.00
  Q 108.02 237.00 131.56 237.00
  A 0.66 0.65 88.6 0 1 132.21 237.63
  Q 132.57 245.62 132.45 252.82
  C 132.41 255.36 130.51 255.06 130.16 252.85
  C 128.05 239.65 116.56 240.26 106.00 240.52
  A 0.52 0.51 89.4 0 0 105.50 241.04
  L 105.43 263.41
  A 0.59 0.58 89.5 0 0 106.02 264.00
  C 114.88 263.96 116.53 258.19 117.91 250.74
  A 0.92 0.79 88.2 0 1 118.46 250.06
  C 120.10 249.49 119.56 251.09 119.57 251.78
  Q 119.80 265.68 119.75 279.59
  C 119.75 280.56 119.39 281.49 118.24 280.95
  A 0.98 0.79 -83.0 0 1 117.77 280.19
  C 117.08 273.40 113.80 266.88 106.06 267.28
  A 0.53 0.53 -1.7 0 0 105.56 267.81
  Z"
/>
<path fill="#000000" d="
  M 338.77 280.19
  C 338.18 273.49 334.62 266.60 326.99 267.44
  A 0.59 0.56 87.8 0 0 326.49 268.01
  C 326.43 271.85 325.56 289.24 327.74 291.46
  C 330.31 294.07 340.97 292.51 344.12 291.29
  Q 352.83 287.91 355.54 278.26
  Q 355.97 276.75 357.07 277.25
  A 0.74 0.64 -74.8 0 1 357.43 278.00
  L 354.92 295.49
  A 0.60 0.59 3.9 0 1 354.33 296.00
  L 304.56 295.94
  A 0.88 0.77 -12.2 0 1 303.81 295.52
  Q 303.11 294.14 305.00 294.25
  C 312.55 294.69 312.00 290.28 312.00 284.26
  Q 312.00 264.77 312.00 245.28
  C 312.00 240.84 310.21 238.29 305.59 238.68
  C 303.08 238.90 302.79 237.00 305.30 237.00
  Q 328.90 237.00 352.74 237.00
  A 0.54 0.54 88.9 0 1 353.28 237.52
  Q 353.61 245.49 353.51 252.76
  C 353.48 255.38 351.53 255.17 351.15 252.82
  C 349.04 239.63 337.54 240.26 327.00 240.52
  A 0.53 0.52 89.4 0 0 326.49 241.05
  L 326.33 263.18
  A 0.59 0.55 -85.6 0 0 326.80 263.77
  C 334.68 265.04 338.03 257.97 338.70 251.35
  C 338.78 250.53 339.23 249.56 340.17 250.13
  A 1.03 0.81 -78.5 0 1 340.58 250.94
  L 340.70 279.94
  A 1.30 0.86 76.8 0 1 340.37 280.83
  Q 339.89 281.26 339.23 280.95
  A 0.98 0.75 -83.9 0 1 338.77 280.19
  Z"
/>
<path fill="#000000" d="
  M 527.09 240.24
  Q 524.69 238.44 521.58 238.69
  C 520.84 238.75 519.49 238.45 520.23 237.44
  A 1.09 0.87 14.0 0 1 521.06 237.06
  Q 534.28 236.95 547.50 236.98
  C 562.56 237.02 575.17 243.04 578.83 258.68
  C 584.26 281.85 568.48 296.39 546.25 296.17
  Q 533.57 296.05 520.89 295.94
  C 520.46 295.94 519.87 295.24 519.87 295.24
  A 1.30 1.27 -77.6 0 1 520.84 294.60
  C 525.60 294.03 528.18 293.93 528.31 288.38
  Q 528.83 265.44 528.25 242.48
  A 2.90 2.90 -72.4 0 0 527.09 240.24
  Z
  M 544.42 292.06
  C 556.94 295.29 562.40 284.57 563.50 274.25
  C 565.05 259.79 563.64 239.62 543.80 240.57
  A 1.09 1.08 -1.4 0 0 542.76 241.65
  L 543.00 290.25
  A 1.90 1.86 7.4 0 0 544.42 292.06
  Z"
/>
<ellipse fill="#000000" cx="0.00" cy="0.00" transform="translate(222.18,266.50) rotate(88.8)" rx="7.46" ry="7.24"/>
</svg>
