<?xml version="1.0" encoding="UTF-8" standalone="no"?>
<!DOCTYPE svg PUBLIC "-//W3C//DTD SVG 1.1//EN" "http://www.w3.org/Graphics/SVG/1.1/DTD/svg11.dtd">
<svg xmlns="http://www.w3.org/2000/svg" version="1.1" viewBox="0 0 600 300">
<g stroke-width="2.00" fill="none" stroke-linecap="butt">
<path stroke="#feda80" vector-effect="non-scaling-stroke" d="
  M 111.52 220.87
  L 111.50 158.76
  A 2.49 2.47 -73.8 0 0 110.36 156.67
  Q 90.08 143.69 66.89 153.27
  Q 64.80 154.13 63.47 155.84
  L 12.75 220.96"
/>
<path stroke="#ff9f9f" vector-effect="non-scaling-stroke" d="
  M 77.28 139.59
  C 88.74 137.95 99.48 139.47 110.86 144.85
  A 0.33 0.31 12.7 0 0 111.32 144.57
  L 111.44 95.06
  Q 111.44 94.54 111.12 94.95
  L 76.80 138.77
  Q 76.03 139.76 77.28 139.59"
/>
</g>
<path fill="#ffffff" d="
  M 111.52 220.87
  L 111.50 158.76
  A 2.49 2.47 -73.8 0 0 110.36 156.67
  Q 90.08 143.69 66.89 153.27
  Q 64.80 154.13 63.47 155.84
  L 12.75 220.96
  L 0.00 220.69
  L 0.00 219.94
  L 109.44 79.65
  A 1.17 0.93 -67.4 0 1 110.24 79.21
  L 121.12 79.03
  A 0.91 0.87 89.7 0 1 122.00 79.94
  L 122.00 219.96
  A 1.02 0.99 -89.7 0 1 121.00 220.98
  L 111.52 220.87
  Z
  M 77.28 139.59
  C 88.74 137.95 99.48 139.47 110.86 144.85
  A 0.33 0.31 12.7 0 0 111.32 144.57
  L 111.44 95.06
  Q 111.44 94.54 111.12 94.95
  L 76.80 138.77
  Q 76.03 139.76 77.28 139.59
  Z"
/>
<path fill="#ff3f3f" d="
  M 110.86 144.85
  C 99.48 139.47 88.74 137.95 77.28 139.59
  Q 76.03 139.76 76.80 138.77
  L 111.12 94.95
  Q 111.44 94.54 111.44 95.06
  L 111.32 144.57
  A 0.33 0.31 12.7 0 1 110.86 144.85
  Z"
/>
<path fill="#ffffff" d="
  M 240.74 153.72
  Q 240.36 156.31 242.18 154.45
  C 250.76 145.64 267.30 139.14 272.43 156.02
  Q 273.44 159.34 273.01 162.75
  Q 270.47 182.89 267.27 202.94
  A 0.61 0.54 -83.6 0 1 266.70 203.45
  L 256.82 203.00
  A 0.48 0.47 -83.9 0 1 256.39 202.45
  Q 258.23 190.60 261.50 164.00
  C 262.23 158.11 259.13 154.09 253.01 155.87
  C 248.98 157.04 239.16 164.56 238.59 169.23
  Q 236.52 185.94 233.89 202.57
  A 0.70 0.69 -89.9 0 1 233.32 203.15
  Q 229.47 203.80 223.98 203.36
  A 1.19 1.18 6.4 0 1 222.90 202.01
  L 234.86 116.76
  A 0.61 0.59 3.3 0 1 235.45 116.25
  L 245.69 116.08
  A 0.42 0.41 3.4 0 1 246.12 116.55
  L 240.74 153.72
  Z"
/>
<path fill="#ffffff" d="
  M 474.63 146.13
  A 0.54 0.54 13.4 0 0 475.34 145.70
  L 479.44 116.43
  A 0.42 0.42 4.5 0 1 479.87 116.07
  L 490.43 116.23
  A 0.50 0.49 4.5 0 1 490.92 116.79
  L 478.77 202.64
  A 1.05 1.04 4.9 0 1 477.70 203.53
  C 470.69 203.26 464.84 204.09 457.90 203.33
  C 437.85 201.16 429.39 181.09 437.88 163.97
  Q 445.99 147.63 464.01 146.13
  C 467.12 145.87 470.87 144.85 474.63 146.13
  Z
  M 460.93 157.67
  C 449.57 160.69 444.72 172.10 447.51 183.00
  C 449.89 192.31 459.42 193.73 467.49 193.75
  A 1.28 1.27 3.8 0 0 468.76 192.65
  L 473.89 156.23
  A 0.43 0.43 -87.8 0 0 473.44 155.74
  Q 466.99 156.06 460.93 157.67
  Z"
/>
<circle fill="#ffffff" cx="291.69" cy="133.33" r="7.11"/>
<path fill="#ffffff" d="
  M 155.28 154.85
  C 160.06 148.09 167.28 143.26 175.73 146.86
  A 1.43 1.17 3.2 0 1 176.42 147.49
  C 177.26 149.24 176.32 151.06 176.31 152.59
  Q 176.29 156.29 176.00 159.95
  Q 175.90 161.32 174.83 160.45
  C 166.39 153.55 160.96 158.32 155.25 165.00
  Q 152.46 168.27 152.09 171.03
  Q 150.06 186.52 147.96 202.33
  A 1.35 1.35 -86.1 0 1 146.62 203.50
  L 136.99 203.50
  A 0.70 0.70 4.3 0 1 136.30 202.70
  L 144.24 147.31
  A 0.59 0.59 -86.5 0 1 144.81 146.80
  L 155.18 146.76
  A 0.60 0.60 -77.1 0 1 155.72 147.63
  Q 155.04 148.99 155.15 150.93
  Q 155.17 151.41 154.95 151.87
  Q 154.22 153.34 154.79 154.80
  Q 154.98 155.27 155.28 154.85
  Z"
/>
<path fill="#ffffff" d="
  M 199.56 193.69
  C 205.19 194.94 212.58 190.55 217.14 187.37
  Q 217.79 186.92 217.67 187.70
  Q 216.93 192.36 216.50 196.00
  C 216.15 199.02 216.14 200.04 213.19 201.44
  C 193.62 210.78 174.38 197.26 176.50 175.75
  C 178.84 152.02 198.37 142.47 219.82 146.10
  A 0.59 0.55 7.3 0 1 220.31 146.69
  L 219.48 156.19
  A 0.78 0.74 10.2 0 1 218.51 156.82
  C 201.87 152.51 187.06 163.35 188.50 181.25
  Q 189.32 191.41 199.56 193.69
  Z"
/>
<path fill="#ffffff" d="
  M 313.67 153.65
  Q 313.51 155.12 314.54 154.08
  C 322.36 146.26 338.43 139.03 343.25 155.02
  Q 343.83 156.91 345.16 155.44
  C 349.96 150.14 357.25 145.16 364.45 145.49
  C 380.70 146.23 375.82 167.48 374.59 176.95
  Q 372.99 189.31 370.84 202.71
  A 0.88 0.87 -85.7 0 1 369.99 203.45
  L 361.30 203.49
  A 1.42 1.40 -86.2 0 1 359.91 201.88
  Q 361.88 187.38 363.87 173.52
  C 364.41 169.74 367.48 153.06 357.19 155.67
  C 352.19 156.94 350.00 160.78 345.08 165.15
  C 343.33 166.70 343.89 168.04 343.61 169.94
  Q 341.24 186.43 339.01 202.93
  A 0.58 0.56 -85.4 0 1 338.44 203.43
  L 328.43 203.24
  A 0.70 0.69 -85.9 0 1 327.76 202.45
  Q 329.93 185.52 332.22 168.55
  Q 333.11 161.91 332.19 159.31
  C 329.90 152.90 322.83 155.55 319.34 159.04
  Q 315.81 162.56 312.29 166.09
  A 1.51 1.39 73.8 0 0 311.87 166.94
  L 306.77 202.84
  A 0.79 0.78 -85.1 0 1 305.97 203.52
  L 296.15 203.26
  A 0.74 0.74 -85.5 0 1 295.44 202.42
  L 303.24 147.56
  A 0.65 0.57 -85.8 0 1 303.80 147.01
  L 313.46 146.81
  A 0.92 0.87 -87.1 0 1 314.34 147.84
  L 313.67 153.65
  Z"
/>
<path fill="#ffffff" d="
  M 395.70 175.31
  A 1.48 1.44 5.2 0 0 394.25 176.49
  C 393.84 178.69 394.25 180.53 394.77 183.15
  C 397.82 198.46 414.22 193.11 423.57 187.51
  C 424.79 186.79 427.24 183.31 426.32 188.72
  Q 425.59 193.05 425.23 197.43
  A 1.03 1.00 76.4 0 1 424.77 198.21
  Q 417.03 203.25 407.81 204.31
  Q 407.17 204.39 404.75 204.25
  C 370.21 202.29 377.91 143.11 410.75 145.48
  C 426.17 146.59 430.58 162.00 429.00 174.94
  A 0.57 0.55 -86.0 0 1 428.44 175.44
  L 395.70 175.31
  Z
  M 407.75 156.00
  C 403.06 156.46 398.85 161.29 397.28 165.66
  A 0.43 0.43 -80.6 0 0 397.69 166.24
  L 416.81 166.08
  A 0.47 0.47 87.8 0 0 417.28 165.57
  C 416.83 160.53 413.46 155.44 407.75 156.00
  Z"
/>
<path fill="#ffffff" d="
  M 501.51 176.06
  C 499.34 199.35 522.41 194.76 533.34 185.52
  Q 534.32 184.69 534.13 185.97
  L 532.60 196.44
  Q 532.35 198.11 530.95 198.93
  Q 522.66 203.79 513.06 204.69
  Q 511.20 204.86 508.25 204.00
  C 496.21 200.47 489.85 191.01 489.37 178.60
  C 488.85 165.30 497.13 148.17 511.71 145.71
  C 522.41 143.91 531.56 148.61 534.77 159.36
  Q 535.99 163.49 536.75 172.25
  C 537.07 175.93 535.61 175.51 532.89 175.50
  Q 517.47 175.44 502.06 175.56
  A 0.56 0.55 -87.1 0 0 501.51 176.06
  Z
  M 524.84 165.69
  C 521.80 150.95 508.17 154.82 504.45 165.97
  A 0.38 0.35 8.4 0 0 504.82 166.43
  L 524.45 166.19
  A 0.42 0.41 83.5 0 0 524.84 165.69
  Z"
/>
<path fill="#ffffff" d="
  M 546.58 156.54
  C 548.79 147.48 557.70 144.50 566.40 145.67
  Q 573.95 146.69 580.35 151.45
  A 0.84 0.83 -67.2 0 1 580.67 152.25
  L 579.13 162.21
  Q 578.88 163.79 577.65 162.76
  Q 572.08 158.09 565.27 156.37
  C 561.59 155.45 557.34 156.41 558.18 161.09
  C 558.97 165.48 565.28 170.49 568.94 173.31
  C 573.34 176.70 577.27 182.22 577.38 187.97
  C 577.55 197.39 571.36 203.96 561.97 204.57
  C 555.11 205.01 546.88 201.13 541.19 197.40
  A 1.08 0.97 21.6 0 1 540.70 196.42
  L 542.33 184.89
  Q 542.45 184.00 543.09 184.68
  C 547.31 189.12 556.10 195.40 562.29 193.25
  C 566.84 191.67 565.94 187.19 563.61 184.06
  C 556.96 175.11 543.06 170.97 546.58 156.54
  Z"
/>
<path fill="#ffffff" d="
  M 283.51 150.16
  Q 283.71 148.75 283.79 147.31
  A 0.54 0.53 -88.3 0 1 284.32 146.80
  L 294.77 146.76
  A 0.70 0.70 -86.0 0 1 295.46 147.56
  L 287.51 202.94
  A 0.60 0.55 -84.3 0 1 286.94 203.45
  L 277.19 203.11
  A 0.55 0.53 90.0 0 1 276.67 202.57
  Q 276.66 200.10 277.50 193.75
  Q 280.38 171.94 283.51 150.16
  Z"
/>
<path fill="#fcb500" d="
  M 111.52 220.87
  L 12.75 220.96
  L 63.47 155.84
  Q 64.80 154.13 66.89 153.27
  Q 90.08 143.69 110.36 156.67
  A 2.49 2.47 -73.8 0 1 111.50 158.76
  L 111.52 220.87
  Z"
/>
</svg>
