<?xml version="1.0" encoding="UTF-8" standalone="no"?>
<!DOCTYPE svg PUBLIC "-//W3C//DTD SVG 1.1//EN" "http://www.w3.org/Graphics/SVG/1.1/DTD/svg11.dtd">
<svg xmlns="http://www.w3.org/2000/svg" version="1.1" viewBox="0 0 600 300">
<g stroke-width="2.00" fill="none" stroke-linecap="butt">
<path stroke="#808080" vector-effect="non-scaling-stroke" d="
  M 439.31 67.70
  L 439.00 24.71
  A 0.43 0.43 -7.8 0 0 438.46 24.30
  L 394.05 36.17
  A 1.08 1.07 82.7 0 0 393.25 37.21
  L 393.25 79.96
  A 1.09 1.08 -7.8 0 1 392.45 81.00
  L 348.55 92.82
  Q 345.99 93.51 347.78 91.56
  C 354.40 84.39 356.37 73.52 352.27 64.78
  C 347.79 55.24 336.58 50.53 326.43 54.41
  C 307.82 61.53 302.07 89.98 323.08 98.44
  Q 324.73 99.11 323.01 99.58
  Q 250.73 119.09 178.31 138.31
  Q 173.91 139.48 170.47 139.76
  C 155.11 140.99 148.38 123.96 154.56 111.88
  C 158.73 103.70 164.76 101.82 174.45 99.21
  Q 225.46 85.47 277.19 71.74
  A 1.10 1.09 -7.7 0 0 278.00 70.69
  Q 278.02 45.37 278.01 21.25
  Q 278.01 18.50 277.79 15.74
  A 0.41 0.41 -10.0 0 0 277.27 15.38
  Q 212.75 32.68 148.21 49.98
  Q 134.50 53.65 129.28 56.26
  C 112.74 64.51 101.86 81.34 99.98 99.77
  Q 99.73 102.23 99.71 119.23
  Q 99.68 138.62 100.09 158.00
  Q 100.41 172.90 111.70 182.32
  A 0.48 0.48 -46.9 0 1 111.72 183.03
  C 102.12 192.22 100.08 201.42 99.82 215.39
  Q 99.34 241.43 100.00 256.25
  C 101.27 284.82 127.28 304.73 155.25 297.25
  Q 216.10 280.98 276.62 264.77
  A 1.86 1.86 82.5 0 0 278.00 262.97
  L 278.00 208.64
  A 0.40 0.39 -7.4 0 0 277.50 208.26
  Q 226.77 221.94 176.19 235.44
  C 153.11 241.59 144.41 212.68 161.39 200.66
  Q 164.75 198.29 172.64 196.17
  Q 326.43 154.88 480.26 113.75
  A 0.44 0.44 -7.6 0 1 480.81 114.17
  L 480.94 151.01
  A 0.40 0.40 82.1 0 0 481.44 151.39
  L 523.61 140.08
  A 0.95 0.95 82.5 0 0 524.31 139.16
  L 524.25 46.43
  A 0.64 0.64 82.4 0 0 523.44 45.81
  L 439.80 68.06
  A 0.39 0.38 -7.7 0 1 439.31 67.70"
/>
<path stroke="#808080" vector-effect="non-scaling-stroke" d="
  M 115.14 182.60
  C 104.61 192.79 102.49 202.89 102.51 218.06
  Q 102.53 234.03 102.62 250.00
  C 102.77 274.64 120.88 294.75 146.11 294.06
  Q 151.67 293.91 165.66 290.16
  Q 219.23 275.80 273.09 261.41
  A 1.22 1.22 -7.4 0 0 274.00 260.23
  L 274.00 239.43
  A 0.77 0.76 82.2 0 0 273.03 238.69
  Q 223.33 252.14 174.01 265.22
  C 170.40 266.17 163.46 268.42 159.25 268.75
  C 138.51 270.39 123.89 255.22 123.75 235.00
  C 123.66 222.19 122.09 210.88 125.17 200.44
  Q 131.76 178.12 155.69 171.95
  Q 156.46 171.75 156.52 171.29
  A 0.54 0.40 1.2 0 0 155.94 170.84
  C 137.41 171.94 124.49 158.98 123.75 140.75
  Q 123.26 128.72 123.54 114.86
  Q 123.74 104.79 125.49 99.34
  C 130.84 82.65 143.04 76.45 159.24 72.20
  Q 216.34 57.21 273.28 41.63
  A 0.66 0.65 -7.5 0 0 273.77 41.00
  L 273.97 20.17
  A 0.97 0.95 -7.4 0 0 272.75 19.25
  Q 215.10 34.69 156.90 50.39
  Q 137.64 55.59 137.60 55.61
  C 116.93 62.93 102.65 82.10 102.54 104.50
  Q 102.42 127.16 102.47 149.82
  C 102.51 164.00 104.41 173.34 115.11 181.94
  A 0.44 0.44 -47.8 0 1 115.14 182.60"
/>
<path stroke="#808080" vector-effect="non-scaling-stroke" d="
  M 395.89 127.52
  C 395.56 130.85 398.19 131.28 400.81 130.59
  Q 414.54 126.95 428.25 123.25
  Q 432.22 122.18 434.11 121.29
  A 1.10 1.10 -5.5 0 0 434.70 120.58
  Q 435.25 118.53 435.25 115.00
  Q 435.25 74.12 435.26 33.25
  C 435.26 27.20 431.19 28.97 427.20 30.03
  Q 413.33 33.73 399.49 37.53
  C 397.33 38.13 396.00 38.13 396.00 41.00
  Q 396.00 64.75 396.00 89.02
  Q 396.00 90.18 395.06 89.51
  C 384.23 81.81 369.26 86.82 361.24 96.00
  C 351.27 107.43 350.34 128.40 366.90 134.89
  C 376.95 138.83 388.04 134.73 395.26 127.23
  Q 395.99 126.47 395.89 127.52"
/>
<path stroke="#808080" vector-effect="non-scaling-stroke" d="
  M 176.80 141.69
  C 153.21 148.23 140.28 123.15 153.77 105.78
  Q 158.97 99.07 165.75 97.25
  Q 219.15 82.89 273.30 68.36
  A 0.93 0.93 -7.2 0 0 274.00 67.46
  L 273.94 46.37
  A 0.60 0.60 82.3 0 0 273.18 45.79
  Q 214.50 61.41 158.26 76.61
  C 143.29 80.65 132.61 87.63 128.49 103.40
  C 126.42 111.32 127.25 122.12 127.25 131.17
  Q 127.25 145.36 128.79 150.17
  C 132.25 161.01 143.11 168.67 154.62 168.73
  Q 158.79 168.75 167.08 166.60
  Q 191.02 160.39 215.04 153.75
  A 0.98 0.97 82.2 0 0 215.75 152.81
  L 215.75 131.83
  A 0.64 0.64 82.4 0 0 214.94 131.21
  Q 195.67 136.46 176.80 141.69"
/>
<path stroke="#808080" vector-effect="non-scaling-stroke" d="
  M 483.44 107.56
  Q 483.60 133.96 483.50 143.25
  C 483.45 147.49 485.96 147.33 489.18 146.47
  Q 504.07 142.50 518.95 138.43
  Q 520.75 137.94 520.75 136.08
  Q 520.75 95.14 520.75 54.03
  C 520.75 49.67 518.55 50.00 515.22 50.87
  Q 500.96 54.60 486.75 58.50
  C 482.84 59.57 483.50 61.04 483.50 64.85
  Q 483.50 71.49 483.50 78.13
  C 483.50 83.92 484.33 87.68 478.24 89.00
  Q 475.83 89.52 475.74 87.06
  Q 475.37 76.50 475.06 65.76
  Q 474.94 61.58 471.31 62.56
  Q 456.75 66.50 442.19 70.44
  C 439.01 71.29 439.50 72.99 439.50 76.12
  C 439.50 91.56 436.66 107.48 454.32 113.67
  C 464.62 117.28 474.16 113.68 483.02 107.36
  Q 483.44 107.06 483.44 107.56"
/>
<path stroke="#808080" vector-effect="non-scaling-stroke" d="
  M 320.8075 93.2898
  A 20.35 18.89 121.4 0 0 347.5336 85.7619
  A 20.35 18.89 121.4 0 0 342.0125 58.5502
  A 20.35 18.89 121.4 0 0 315.2864 66.0781
  A 20.35 18.89 121.4 0 0 320.8075 93.2898"
/>
<path stroke="#808080" vector-effect="non-scaling-stroke" d="
  M 313.17 109.12
  C 312.75 122.10 313.33 135.01 312.76 147.99
  C 312.45 154.89 317.08 153.00 321.49 151.86
  Q 333.75 148.68 345.94 145.23
  C 348.19 144.59 350.25 144.55 350.25 141.50
  Q 350.25 120.88 350.18 100.25
  C 350.16 94.43 346.48 96.04 342.63 97.07
  Q 329.31 100.63 316.00 104.25
  C 312.73 105.14 313.25 106.38 313.17 109.12"
/>
<path stroke="#808080" vector-effect="non-scaling-stroke" d="
  M 248.35 148.18
  Q 237.89 159.59 227.12 170.72
  C 225.36 172.54 224.19 174.49 226.68 176.34
  A 2.18 2.16 -33.5 0 0 228.50 176.70
  Q 238.08 174.33 246.04 172.13
  C 250.21 170.98 258.48 160.65 262.10 157.02
  A 0.80 0.79 -49.2 0 1 263.12 156.94
  Q 268.48 160.90 274.62 163.97
  A 1.38 1.33 -37.7 0 0 275.55 164.07
  Q 289.10 160.70 302.55 156.90
  C 305.36 156.11 307.36 153.35 304.19 151.31
  Q 292.98 144.12 281.92 137.21
  A 0.71 0.71 37.7 0 1 281.78 136.12
  Q 292.18 125.15 302.29 114.63
  C 304.11 112.74 305.84 110.26 302.78 108.51
  A 2.01 1.89 51.4 0 0 301.31 108.30
  L 282.97 113.09
  A 5.59 4.36 -69.3 0 0 280.59 114.54
  L 267.98 127.64
  A 0.75 0.74 38.0 0 1 267.04 127.75
  L 256.87 121.22
  A 3.40 3.38 -35.8 0 0 254.22 120.80
  Q 240.79 124.24 227.91 127.86
  C 225.20 128.62 222.71 130.85 225.94 133.31
  Q 229.92 136.34 248.27 147.56
  A 0.41 0.40 -53.2 0 1 248.35 148.18"
/>
<path stroke="#808080" vector-effect="non-scaling-stroke" d="
  M 166.06 238.94
  C 142.98 234.83 144.33 203.86 163.21 194.77
  Q 164.93 193.94 177.39 190.56
  Q 195.96 185.52 215.07 180.36
  A 0.89 0.86 -8.2 0 0 215.73 179.51
  L 215.52 158.26
  A 0.40 0.39 -7.4 0 0 215.02 157.88
  Q 193.43 163.53 171.90 169.37
  Q 154.66 174.05 152.69 174.88
  C 141.59 179.59 132.08 189.47 128.64 201.23
  C 126.09 209.95 127.27 222.58 127.34 232.50
  C 127.49 253.76 145.80 268.85 166.75 263.25
  Q 219.50 249.14 273.18 234.75
  A 1.11 1.11 82.5 0 0 274.00 233.68
  L 274.00 212.80
  A 0.69 0.69 82.6 0 0 273.13 212.13
  Q 226.25 224.65 179.57 237.16
  C 174.96 238.40 170.34 239.70 166.06 238.94"
/>
<path stroke="#808080" vector-effect="non-scaling-stroke" d="
  M 396.56 100.01
  C 389.93 89.15 378.09 89.51 369.07 96.71
  Q 362.73 101.76 360.47 110.36
  C 358.27 118.72 362.20 127.82 370.61 129.98
  C 380.49 132.52 390.57 126.04 395.29 117.33
  C 396.65 114.81 398.38 112.08 401.18 115.36
  A 1.55 1.18 29.5 0 1 401.56 116.25
  L 401.72 123.62
  A 0.61 0.57 82.1 0 0 402.44 124.20
  L 428.71 117.06
  A 0.65 0.64 -7.7 0 0 429.19 116.44
  L 429.25 36.01
  A 0.37 0.37 -7.9 0 0 428.78 35.66
  L 402.43 42.72
  A 0.91 0.91 -7.5 0 0 401.75 43.60
  Q 401.75 71.00 401.75 97.50
  Q 401.75 102.26 397.28 100.62
  A 1.49 1.28 81.0 0 1 396.56 100.01"
/>
<path stroke="#808080" vector-effect="non-scaling-stroke" d="
  M 488.07 88.83
  C 484.58 94.75 473.85 98.16 470.60 90.08
  C 468.67 85.26 469.43 75.68 469.51 70.06
  A 0.78 0.77 -7.1 0 0 468.53 69.31
  L 446.10 75.40
  A 1.13 1.11 -7.0 0 0 445.27 76.45
  C 445.14 84.58 443.65 98.85 449.81 104.44
  C 460.48 114.11 474.10 107.48 483.30 99.69
  C 486.26 97.18 489.26 97.34 489.25 101.97
  Q 489.21 120.83 489.31 139.68
  A 0.40 0.40 82.8 0 0 489.81 140.07
  L 514.46 133.57
  A 0.67 0.65 82.6 0 0 514.94 132.93
  L 514.94 57.56
  A 0.39 0.39 82.6 0 0 514.45 57.18
  L 489.91 63.80
  A 0.68 0.65 83.2 0 0 489.43 64.44
  C 489.29 69.91 490.54 84.63 488.07 88.83"
/>
<path stroke="#808080" vector-effect="non-scaling-stroke" d="
  M 323.9539 88.3348
  A 14.48 12.99 120.9 0 0 342.5363 82.5809
  A 14.48 12.99 120.9 0 0 338.8261 63.4852
  A 14.48 12.99 120.9 0 0 320.2437 69.2391
  A 14.48 12.99 120.9 0 0 323.9539 88.3348"
/>
<path stroke="#808080" vector-effect="non-scaling-stroke" d="
  M 318.94 145.97
  A 0.39 0.39 82.6 0 0 319.43 146.35
  L 343.75 139.87
  A 0.67 0.66 -7.4 0 0 344.25 139.23
  L 344.25 103.11
  A 0.38 0.38 -8.1 0 0 343.76 102.75
  L 319.50 109.38
  A 0.68 0.67 -8.0 0 0 319.00 110.03
  L 318.94 145.97"
/>
<path stroke="#808080" vector-effect="non-scaling-stroke" d="
  M 254.99 127.18
  A 2.01 1.97 -36.4 0 0 253.42 126.96
  L 235.24 131.88
  Q 234.48 132.08 235.15 132.49
  Q 244.89 138.44 254.55 144.71
  Q 257.83 146.84 255.31 149.56
  Q 246.72 158.85 237.91 167.72
  Q 236.97 168.66 238.24 168.25
  L 243.90 166.44
  Q 245.14 166.04 246.06 165.10
  L 260.26 150.37
  A 2.17 2.11 37.6 0 1 262.93 150.06
  L 275.32 157.74
  A 1.17 1.12 51.8 0 0 276.24 157.87
  L 295.05 152.77
  Q 295.55 152.64 295.10 152.37
  Q 285.54 146.54 276.42 140.58
  C 273.83 138.88 272.56 137.56 275.06 134.81
  Q 283.21 125.85 291.47 117.65
  Q 292.67 116.46 291.04 116.91
  C 288.03 117.74 285.60 118.01 283.29 120.37
  Q 276.63 127.18 270.05 134.07
  Q 268.67 135.52 266.99 134.50
  L 254.99 127.18"
/>
</g>
<path fill="#000000" d="
  M 252.06 0.00
  L 254.81 0.00
  L 278.82 13.76
  A 0.87 0.84 15.3 0 1 279.26 14.50
  L 279.50 71.35
  A 1.63 1.62 -7.4 0 1 278.29 72.92
  Q 228.31 86.35 178.58 99.71
  C 165.31 103.28 157.22 104.84 153.94 117.98
  Q 152.82 122.43 157.50 121.53
  Q 162.81 120.50 168.03 119.09
  Q 231.07 102.02 295.29 84.89
  Q 296.10 84.68 295.39 84.22
  C 282.89 76.20 280.14 61.49 288.12 49.35
  C 295.05 38.80 308.24 33.99 319.66 40.37
  C 327.68 44.85 335.54 49.65 343.70 53.87
  Q 351.63 57.98 354.79 66.66
  C 355.73 69.22 354.15 69.06 357.14 68.35
  Q 360.93 67.45 365.16 66.12
  A 2.61 2.61 -38.6 0 1 367.22 66.35
  Q 378.92 73.07 390.11 79.30
  C 392.90 80.85 391.09 78.59 390.50 78.26
  Q 379.38 72.04 368.44 65.51
  A 0.90 0.86 15.6 0 1 367.99 64.75
  L 367.76 23.30
  A 0.56 0.55 14.9 0 1 368.60 22.82
  Q 379.86 29.23 390.90 35.54
  Q 392.67 36.56 392.15 35.26
  A 1.57 1.22 9.7 0 0 391.51 34.56
  L 369.71 21.98
  Q 368.12 21.07 369.89 20.60
  L 414.83 8.57
  A 1.18 1.16 52.7 0 1 415.74 8.70
  Q 426.67 15.42 437.84 21.73
  Q 439.10 22.44 439.49 22.51
  A 1.80 1.78 4.9 0 1 441.00 24.28
  L 440.80 45.38
  A 0.45 0.44 83.1 0 0 441.35 45.82
  L 499.71 30.19
  A 1.22 1.21 -37.7 0 1 500.62 30.30
  L 524.56 43.94
  A 2.48 1.00 25.2 0 1 526.00 45.50
  L 526.00 139.79
  A 1.63 1.62 82.6 0 1 524.80 141.36
  L 481.60 152.90
  A 2.29 2.21 51.5 0 1 479.87 152.67
  L 456.14 138.95
  A 1.90 1.81 -75.9 0 1 455.23 137.35
  L 455.08 122.64
  A 0.48 0.46 -7.7 0 0 454.48 122.20
  Q 312.43 160.30 173.21 197.55
  Q 165.50 199.62 162.39 201.77
  C 147.27 212.28 154.07 239.66 174.50 234.25
  Q 226.31 220.53 278.53 206.44
  A 0.57 0.57 -7.9 0 1 279.25 206.98
  Q 279.83 235.78 279.31 264.96
  A 0.83 0.83 -6.9 0 1 278.69 265.75
  C 243.75 275.23 208.63 284.37 173.64 293.98
  Q 161.73 297.26 149.69 300.00
  L 136.44 300.00
  Q 129.12 297.78 117.75 296.00
  C 94.56 292.37 75.08 276.66 74.96 251.50
  Q 74.88 234.34 75.06 217.18
  Q 75.21 203.04 76.94 197.36
  Q 81.06 183.84 94.28 175.35
  A 1.41 1.41 43.8 0 1 95.76 175.32
  Q 102.75 179.38 109.00 183.00
  Q 109.82 183.48 109.82 182.75
  A 1.02 0.81 18.5 0 0 109.33 182.00
  Q 98.68 175.77 87.93 169.72
  C 81.24 165.95 77.39 160.54 75.25 153.43
  Q 74.00 149.29 74.00 140.93
  Q 74.00 115.60 74.00 90.27
  Q 74.00 82.00 75.26 76.84
  C 80.26 56.47 96.11 41.20 116.55 36.27
  Q 122.91 34.73 123.04 34.70
  Q 187.56 17.38 252.06 0.00
  Z
  M 439.31 67.70
  L 439.00 24.71
  A 0.43 0.43 -7.8 0 0 438.46 24.30
  L 394.05 36.17
  A 1.08 1.07 82.7 0 0 393.25 37.21
  L 393.25 79.96
  A 1.09 1.08 -7.8 0 1 392.45 81.00
  L 348.55 92.82
  Q 345.99 93.51 347.78 91.56
  C 354.40 84.39 356.37 73.52 352.27 64.78
  C 347.79 55.24 336.58 50.53 326.43 54.41
  C 307.82 61.53 302.07 89.98 323.08 98.44
  Q 324.73 99.11 323.01 99.58
  Q 250.73 119.09 178.31 138.31
  Q 173.91 139.48 170.47 139.76
  C 155.11 140.99 148.38 123.96 154.56 111.88
  C 158.73 103.70 164.76 101.82 174.45 99.21
  Q 225.46 85.47 277.19 71.74
  A 1.10 1.09 -7.7 0 0 278.00 70.69
  Q 278.02 45.37 278.01 21.25
  Q 278.01 18.50 277.79 15.74
  A 0.41 0.41 -10.0 0 0 277.27 15.38
  Q 212.75 32.68 148.21 49.98
  Q 134.50 53.65 129.28 56.26
  C 112.74 64.51 101.86 81.34 99.98 99.77
  Q 99.73 102.23 99.71 119.23
  Q 99.68 138.62 100.09 158.00
  Q 100.41 172.90 111.70 182.32
  A 0.48 0.48 -46.9 0 1 111.72 183.03
  C 102.12 192.22 100.08 201.42 99.82 215.39
  Q 99.34 241.43 100.00 256.25
  C 101.27 284.82 127.28 304.73 155.25 297.25
  Q 216.10 280.98 276.62 264.77
  A 1.86 1.86 82.5 0 0 278.00 262.97
  L 278.00 208.64
  A 0.40 0.39 -7.4 0 0 277.50 208.26
  Q 226.77 221.94 176.19 235.44
  C 153.11 241.59 144.41 212.68 161.39 200.66
  Q 164.75 198.29 172.64 196.17
  Q 326.43 154.88 480.26 113.75
  A 0.44 0.44 -7.6 0 1 480.81 114.17
  L 480.94 151.01
  A 0.40 0.40 82.1 0 0 481.44 151.39
  L 523.61 140.08
  A 0.95 0.95 82.5 0 0 524.31 139.16
  L 524.25 46.43
  A 0.64 0.64 82.4 0 0 523.44 45.81
  L 439.80 68.06
  A 0.39 0.38 -7.7 0 1 439.31 67.70
  Z"
/>
<path fill="#ffffff" d="
  M 439.80 68.06
  L 523.44 45.81
  A 0.64 0.64 82.4 0 1 524.25 46.43
  L 524.31 139.16
  A 0.95 0.95 82.5 0 1 523.61 140.08
  L 481.44 151.39
  A 0.40 0.40 82.1 0 1 480.94 151.01
  L 480.81 114.17
  A 0.44 0.44 -7.6 0 0 480.26 113.75
  Q 326.43 154.88 172.64 196.17
  Q 164.75 198.29 161.39 200.66
  C 144.41 212.68 153.11 241.59 176.19 235.44
  Q 226.77 221.94 277.50 208.26
  A 0.40 0.39 -7.4 0 1 278.00 208.64
  L 278.00 262.97
  A 1.86 1.86 82.5 0 1 276.62 264.77
  Q 216.10 280.98 155.25 297.25
  C 127.28 304.73 101.27 284.82 100.00 256.25
  Q 99.34 241.43 99.82 215.39
  C 100.08 201.42 102.12 192.22 111.72 183.03
  A 0.48 0.48 -46.9 0 0 111.70 182.32
  Q 100.41 172.90 100.09 158.00
  Q 99.68 138.62 99.71 119.23
  Q 99.73 102.23 99.98 99.77
  C 101.86 81.34 112.74 64.51 129.28 56.26
  Q 134.50 53.65 148.21 49.98
  Q 212.75 32.68 277.27 15.38
  A 0.41 0.41 -10.0 0 1 277.79 15.74
  Q 278.01 18.50 278.01 21.25
  Q 278.02 45.37 278.00 70.69
  A 1.10 1.09 -7.7 0 1 277.19 71.74
  Q 225.46 85.47 174.45 99.21
  C 164.76 101.82 158.73 103.70 154.56 111.88
  C 148.38 123.96 155.11 140.99 170.47 139.76
  Q 173.91 139.48 178.31 138.31
  Q 250.73 119.09 323.01 99.58
  Q 324.73 99.11 323.08 98.44
  C 302.07 89.98 307.82 61.53 326.43 54.41
  C 336.58 50.53 347.79 55.24 352.27 64.78
  C 356.37 73.52 354.40 84.39 347.78 91.56
  Q 345.99 93.51 348.55 92.82
  L 392.45 81.00
  A 1.09 1.08 -7.8 0 0 393.25 79.96
  L 393.25 37.21
  A 1.08 1.07 82.7 0 1 394.05 36.17
  L 438.46 24.30
  A 0.43 0.43 -7.8 0 1 439.00 24.71
  L 439.31 67.70
  A 0.39 0.38 -7.7 0 0 439.80 68.06
  Z
  M 115.14 182.60
  C 104.61 192.79 102.49 202.89 102.51 218.06
  Q 102.53 234.03 102.62 250.00
  C 102.77 274.64 120.88 294.75 146.11 294.06
  Q 151.67 293.91 165.66 290.16
  Q 219.23 275.80 273.09 261.41
  A 1.22 1.22 -7.4 0 0 274.00 260.23
  L 274.00 239.43
  A 0.77 0.76 82.2 0 0 273.03 238.69
  Q 223.33 252.14 174.01 265.22
  C 170.40 266.17 163.46 268.42 159.25 268.75
  C 138.51 270.39 123.89 255.22 123.75 235.00
  C 123.66 222.19 122.09 210.88 125.17 200.44
  Q 131.76 178.12 155.69 171.95
  Q 156.46 171.75 156.52 171.29
  A 0.54 0.40 1.2 0 0 155.94 170.84
  C 137.41 171.94 124.49 158.98 123.75 140.75
  Q 123.26 128.72 123.54 114.86
  Q 123.74 104.79 125.49 99.34
  C 130.84 82.65 143.04 76.45 159.24 72.20
  Q 216.34 57.21 273.28 41.63
  A 0.66 0.65 -7.5 0 0 273.77 41.00
  L 273.97 20.17
  A 0.97 0.95 -7.4 0 0 272.75 19.25
  Q 215.10 34.69 156.90 50.39
  Q 137.64 55.59 137.60 55.61
  C 116.93 62.93 102.65 82.10 102.54 104.50
  Q 102.42 127.16 102.47 149.82
  C 102.51 164.00 104.41 173.34 115.11 181.94
  A 0.44 0.44 -47.8 0 1 115.14 182.60
  Z
  M 395.89 127.52
  C 395.56 130.85 398.19 131.28 400.81 130.59
  Q 414.54 126.95 428.25 123.25
  Q 432.22 122.18 434.11 121.29
  A 1.10 1.10 -5.5 0 0 434.70 120.58
  Q 435.25 118.53 435.25 115.00
  Q 435.25 74.12 435.26 33.25
  C 435.26 27.20 431.19 28.97 427.20 30.03
  Q 413.33 33.73 399.49 37.53
  C 397.33 38.13 396.00 38.13 396.00 41.00
  Q 396.00 64.75 396.00 89.02
  Q 396.00 90.18 395.06 89.51
  C 384.23 81.81 369.26 86.82 361.24 96.00
  C 351.27 107.43 350.34 128.40 366.90 134.89
  C 376.95 138.83 388.04 134.73 395.26 127.23
  Q 395.99 126.47 395.89 127.52
  Z
  M 176.80 141.69
  C 153.21 148.23 140.28 123.15 153.77 105.78
  Q 158.97 99.07 165.75 97.25
  Q 219.15 82.89 273.30 68.36
  A 0.93 0.93 -7.2 0 0 274.00 67.46
  L 273.94 46.37
  A 0.60 0.60 82.3 0 0 273.18 45.79
  Q 214.50 61.41 158.26 76.61
  C 143.29 80.65 132.61 87.63 128.49 103.40
  C 126.42 111.32 127.25 122.12 127.25 131.17
  Q 127.25 145.36 128.79 150.17
  C 132.25 161.01 143.11 168.67 154.62 168.73
  Q 158.79 168.75 167.08 166.60
  Q 191.02 160.39 215.04 153.75
  A 0.98 0.97 82.2 0 0 215.75 152.81
  L 215.75 131.83
  A 0.64 0.64 82.4 0 0 214.94 131.21
  Q 195.67 136.46 176.80 141.69
  Z
  M 483.44 107.56
  Q 483.60 133.96 483.50 143.25
  C 483.45 147.49 485.96 147.33 489.18 146.47
  Q 504.07 142.50 518.95 138.43
  Q 520.75 137.94 520.75 136.08
  Q 520.75 95.14 520.75 54.03
  C 520.75 49.67 518.55 50.00 515.22 50.87
  Q 500.96 54.60 486.75 58.50
  C 482.84 59.57 483.50 61.04 483.50 64.85
  Q 483.50 71.49 483.50 78.13
  C 483.50 83.92 484.33 87.68 478.24 89.00
  Q 475.83 89.52 475.74 87.06
  Q 475.37 76.50 475.06 65.76
  Q 474.94 61.58 471.31 62.56
  Q 456.75 66.50 442.19 70.44
  C 439.01 71.29 439.50 72.99 439.50 76.12
  C 439.50 91.56 436.66 107.48 454.32 113.67
  C 464.62 117.28 474.16 113.68 483.02 107.36
  Q 483.44 107.06 483.44 107.56
  Z
  M 320.8075 93.2898
  A 20.35 18.89 121.4 0 0 347.5336 85.7619
  A 20.35 18.89 121.4 0 0 342.0125 58.5502
  A 20.35 18.89 121.4 0 0 315.2864 66.0781
  A 20.35 18.89 121.4 0 0 320.8075 93.2898
  Z
  M 313.17 109.12
  C 312.75 122.10 313.33 135.01 312.76 147.99
  C 312.45 154.89 317.08 153.00 321.49 151.86
  Q 333.75 148.68 345.94 145.23
  C 348.19 144.59 350.25 144.55 350.25 141.50
  Q 350.25 120.88 350.18 100.25
  C 350.16 94.43 346.48 96.04 342.63 97.07
  Q 329.31 100.63 316.00 104.25
  C 312.73 105.14 313.25 106.38 313.17 109.12
  Z
  M 248.35 148.18
  Q 237.89 159.59 227.12 170.72
  C 225.36 172.54 224.19 174.49 226.68 176.34
  A 2.18 2.16 -33.5 0 0 228.50 176.70
  Q 238.08 174.33 246.04 172.13
  C 250.21 170.98 258.48 160.65 262.10 157.02
  A 0.80 0.79 -49.2 0 1 263.12 156.94
  Q 268.48 160.90 274.62 163.97
  A 1.38 1.33 -37.7 0 0 275.55 164.07
  Q 289.10 160.70 302.55 156.90
  C 305.36 156.11 307.36 153.35 304.19 151.31
  Q 292.98 144.12 281.92 137.21
  A 0.71 0.71 37.7 0 1 281.78 136.12
  Q 292.18 125.15 302.29 114.63
  C 304.11 112.74 305.84 110.26 302.78 108.51
  A 2.01 1.89 51.4 0 0 301.31 108.30
  L 282.97 113.09
  A 5.59 4.36 -69.3 0 0 280.59 114.54
  L 267.98 127.64
  A 0.75 0.74 38.0 0 1 267.04 127.75
  L 256.87 121.22
  A 3.40 3.38 -35.8 0 0 254.22 120.80
  Q 240.79 124.24 227.91 127.86
  C 225.20 128.62 222.71 130.85 225.94 133.31
  Q 229.92 136.34 248.27 147.56
  A 0.41 0.40 -53.2 0 1 248.35 148.18
  Z
  M 166.06 238.94
  C 142.98 234.83 144.33 203.86 163.21 194.77
  Q 164.93 193.94 177.39 190.56
  Q 195.96 185.52 215.07 180.36
  A 0.89 0.86 -8.2 0 0 215.73 179.51
  L 215.52 158.26
  A 0.40 0.39 -7.4 0 0 215.02 157.88
  Q 193.43 163.53 171.90 169.37
  Q 154.66 174.05 152.69 174.88
  C 141.59 179.59 132.08 189.47 128.64 201.23
  C 126.09 209.95 127.27 222.58 127.34 232.50
  C 127.49 253.76 145.80 268.85 166.75 263.25
  Q 219.50 249.14 273.18 234.75
  A 1.11 1.11 82.5 0 0 274.00 233.68
  L 274.00 212.80
  A 0.69 0.69 82.6 0 0 273.13 212.13
  Q 226.25 224.65 179.57 237.16
  C 174.96 238.40 170.34 239.70 166.06 238.94
  Z"
/>
<path fill="#000000" d="
  M 115.11 181.94
  C 104.41 173.34 102.51 164.00 102.47 149.82
  Q 102.42 127.16 102.54 104.50
  C 102.65 82.10 116.93 62.93 137.60 55.61
  Q 137.64 55.59 156.90 50.39
  Q 215.10 34.69 272.75 19.25
  A 0.97 0.95 -7.4 0 1 273.97 20.17
  L 273.77 41.00
  A 0.66 0.65 -7.5 0 1 273.28 41.63
  Q 216.34 57.21 159.24 72.20
  C 143.04 76.45 130.84 82.65 125.49 99.34
  Q 123.74 104.79 123.54 114.86
  Q 123.26 128.72 123.75 140.75
  C 124.49 158.98 137.41 171.94 155.94 170.84
  A 0.54 0.40 1.2 0 1 156.52 171.29
  Q 156.46 171.75 155.69 171.95
  Q 131.76 178.12 125.17 200.44
  C 122.09 210.88 123.66 222.19 123.75 235.00
  C 123.89 255.22 138.51 270.39 159.25 268.75
  C 163.46 268.42 170.40 266.17 174.01 265.22
  Q 223.33 252.14 273.03 238.69
  A 0.77 0.76 82.2 0 1 274.00 239.43
  L 274.00 260.23
  A 1.22 1.22 -7.4 0 1 273.09 261.41
  Q 219.23 275.80 165.66 290.16
  Q 151.67 293.91 146.11 294.06
  C 120.88 294.75 102.77 274.64 102.62 250.00
  Q 102.53 234.03 102.51 218.06
  C 102.49 202.89 104.61 192.79 115.14 182.60
  A 0.44 0.44 -47.8 0 0 115.11 181.94
  Z"
/>
<path fill="#000000" d="
  M 395.89 127.52
  Q 395.99 126.47 395.26 127.23
  C 388.04 134.73 376.95 138.83 366.90 134.89
  C 350.34 128.40 351.27 107.43 361.24 96.00
  C 369.26 86.82 384.23 81.81 395.06 89.51
  Q 396.00 90.18 396.00 89.02
  Q 396.00 64.75 396.00 41.00
  C 396.00 38.13 397.33 38.13 399.49 37.53
  Q 413.33 33.73 427.20 30.03
  C 431.19 28.97 435.26 27.20 435.26 33.25
  Q 435.25 74.12 435.25 115.00
  Q 435.25 118.53 434.70 120.58
  A 1.10 1.10 -5.5 0 1 434.11 121.29
  Q 432.22 122.18 428.25 123.25
  Q 414.54 126.95 400.81 130.59
  C 398.19 131.28 395.56 130.85 395.89 127.52
  Z
  M 396.56 100.01
  C 389.93 89.15 378.09 89.51 369.07 96.71
  Q 362.73 101.76 360.47 110.36
  C 358.27 118.72 362.20 127.82 370.61 129.98
  C 380.49 132.52 390.57 126.04 395.29 117.33
  C 396.65 114.81 398.38 112.08 401.18 115.36
  A 1.55 1.18 29.5 0 1 401.56 116.25
  L 401.72 123.62
  A 0.61 0.57 82.1 0 0 402.44 124.20
  L 428.71 117.06
  A 0.65 0.64 -7.7 0 0 429.19 116.44
  L 429.25 36.01
  A 0.37 0.37 -7.9 0 0 428.78 35.66
  L 402.43 42.72
  A 0.91 0.91 -7.5 0 0 401.75 43.60
  Q 401.75 71.00 401.75 97.50
  Q 401.75 102.26 397.28 100.62
  A 1.49 1.28 81.0 0 1 396.56 100.01
  Z"
/>
<path fill="#ffffff" d="
  M 397.28 100.62
  Q 401.75 102.26 401.75 97.50
  Q 401.75 71.00 401.75 43.60
  A 0.91 0.91 -7.5 0 1 402.43 42.72
  L 428.78 35.66
  A 0.37 0.37 -7.9 0 1 429.25 36.01
  L 429.19 116.44
  A 0.65 0.64 -7.7 0 1 428.71 117.06
  L 402.44 124.20
  A 0.61 0.57 82.1 0 1 401.72 123.62
  L 401.56 116.25
  A 1.55 1.18 29.5 0 0 401.18 115.36
  C 398.38 112.08 396.65 114.81 395.29 117.33
  C 390.57 126.04 380.49 132.52 370.61 129.98
  C 362.20 127.82 358.27 118.72 360.47 110.36
  Q 362.73 101.76 369.07 96.71
  C 378.09 89.51 389.93 89.15 396.56 100.01
  A 1.49 1.28 81.0 0 0 397.28 100.62
  Z"
/>
<path fill="#000000" d="
  M 153.77 105.78
  C 140.28 123.15 153.21 148.23 176.80 141.69
  Q 195.67 136.46 214.94 131.21
  A 0.64 0.64 82.4 0 1 215.75 131.83
  L 215.75 152.81
  A 0.98 0.97 82.2 0 1 215.04 153.75
  Q 191.02 160.39 167.08 166.60
  Q 158.79 168.75 154.62 168.73
  C 143.11 168.67 132.25 161.01 128.79 150.17
  Q 127.25 145.36 127.25 131.17
  C 127.25 122.12 126.42 111.32 128.49 103.40
  C 132.61 87.63 143.29 80.65 158.26 76.61
  Q 214.50 61.41 273.18 45.79
  A 0.60 0.60 82.3 0 1 273.94 46.37
  L 274.00 67.46
  A 0.93 0.93 -7.2 0 1 273.30 68.36
  Q 219.15 82.89 165.75 97.25
  Q 158.97 99.07 153.77 105.78
  Z"
/>
<path fill="#000000" d="
  M 483.02 107.36
  C 474.16 113.68 464.62 117.28 454.32 113.67
  C 436.66 107.48 439.50 91.56 439.50 76.12
  C 439.50 72.99 439.01 71.29 442.19 70.44
  Q 456.75 66.50 471.31 62.56
  Q 474.94 61.58 475.06 65.76
  Q 475.37 76.50 475.74 87.06
  Q 475.83 89.52 478.24 89.00
  C 484.33 87.68 483.50 83.92 483.50 78.13
  Q 483.50 71.49 483.50 64.85
  C 483.50 61.04 482.84 59.57 486.75 58.50
  Q 500.96 54.60 515.22 50.87
  C 518.55 50.00 520.75 49.67 520.75 54.03
  Q 520.75 95.14 520.75 136.08
  Q 520.75 137.94 518.95 138.43
  Q 504.07 142.50 489.18 146.47
  C 485.96 147.33 483.45 147.49 483.50 143.25
  Q 483.60 133.96 483.44 107.56
  Q 483.44 107.06 483.02 107.36
  Z
  M 488.07 88.83
  C 484.58 94.75 473.85 98.16 470.60 90.08
  C 468.67 85.26 469.43 75.68 469.51 70.06
  A 0.78 0.77 -7.1 0 0 468.53 69.31
  L 446.10 75.40
  A 1.13 1.11 -7.0 0 0 445.27 76.45
  C 445.14 84.58 443.65 98.85 449.81 104.44
  C 460.48 114.11 474.10 107.48 483.30 99.69
  C 486.26 97.18 489.26 97.34 489.25 101.97
  Q 489.21 120.83 489.31 139.68
  A 0.40 0.40 82.8 0 0 489.81 140.07
  L 514.46 133.57
  A 0.67 0.65 82.6 0 0 514.94 132.93
  L 514.94 57.56
  A 0.39 0.39 82.6 0 0 514.45 57.18
  L 489.91 63.80
  A 0.68 0.65 83.2 0 0 489.43 64.44
  C 489.29 69.91 490.54 84.63 488.07 88.83
  Z"
/>
<path fill="#000000" d="
  M 320.8075 93.2898
  A 20.35 18.89 121.4 0 1 315.2864 66.0781
  A 20.35 18.89 121.4 0 1 342.0125 58.5502
  A 20.35 18.89 121.4 0 1 347.5336 85.7619
  A 20.35 18.89 121.4 0 1 320.8075 93.2898
  Z
  M 323.9539 88.3348
  A 14.48 12.99 120.9 0 0 342.5363 82.5809
  A 14.48 12.99 120.9 0 0 338.8261 63.4852
  A 14.48 12.99 120.9 0 0 320.2437 69.2391
  A 14.48 12.99 120.9 0 0 323.9539 88.3348
  Z"
/>
<path fill="#ffffff" d="
  M 488.07 88.83
  C 490.54 84.63 489.29 69.91 489.43 64.44
  A 0.68 0.65 83.2 0 1 489.91 63.80
  L 514.45 57.18
  A 0.39 0.39 82.6 0 1 514.94 57.56
  L 514.94 132.93
  A 0.67 0.65 82.6 0 1 514.46 133.57
  L 489.81 140.07
  A 0.40 0.40 82.8 0 1 489.31 139.68
  Q 489.21 120.83 489.25 101.97
  C 489.26 97.34 486.26 97.18 483.30 99.69
  C 474.10 107.48 460.48 114.11 449.81 104.44
  C 443.65 98.85 445.14 84.58 445.27 76.45
  A 1.13 1.11 -7.0 0 1 446.10 75.40
  L 468.53 69.31
  A 0.78 0.77 -7.1 0 1 469.51 70.06
  C 469.43 75.68 468.67 85.26 470.60 90.08
  C 473.85 98.16 484.58 94.75 488.07 88.83
  Z"
/>
<ellipse fill="#ffffff" cx="0.00" cy="0.00" transform="translate(331.39,75.91) rotate(120.9)" rx="14.48" ry="12.99"/>
<path fill="#000000" d="
  M 313.17 109.12
  C 313.25 106.38 312.73 105.14 316.00 104.25
  Q 329.31 100.63 342.63 97.07
  C 346.48 96.04 350.16 94.43 350.18 100.25
  Q 350.25 120.88 350.25 141.50
  C 350.25 144.55 348.19 144.59 345.94 145.23
  Q 333.75 148.68 321.49 151.86
  C 317.08 153.00 312.45 154.89 312.76 147.99
  C 313.33 135.01 312.75 122.10 313.17 109.12
  Z
  M 318.94 145.97
  A 0.39 0.39 82.6 0 0 319.43 146.35
  L 343.75 139.87
  A 0.67 0.66 -7.4 0 0 344.25 139.23
  L 344.25 103.11
  A 0.38 0.38 -8.1 0 0 343.76 102.75
  L 319.50 109.38
  A 0.68 0.67 -8.0 0 0 319.00 110.03
  L 318.94 145.97
  Z"
/>
<path fill="#ffffff" d="
  M 318.94 145.97
  L 319.00 110.03
  A 0.68 0.67 -8.0 0 1 319.50 109.38
  L 343.76 102.75
  A 0.38 0.38 -8.1 0 1 344.25 103.11
  L 344.25 139.23
  A 0.67 0.66 -7.4 0 1 343.75 139.87
  L 319.43 146.35
  A 0.39 0.39 82.6 0 1 318.94 145.97
  Z"
/>
<path fill="#000000" d="
  M 248.27 147.56
  Q 229.92 136.34 225.94 133.31
  C 222.71 130.85 225.20 128.62 227.91 127.86
  Q 240.79 124.24 254.22 120.80
  A 3.40 3.38 -35.8 0 1 256.87 121.22
  L 267.04 127.75
  A 0.75 0.74 38.0 0 0 267.98 127.64
  L 280.59 114.54
  A 5.59 4.36 -69.3 0 1 282.97 113.09
  L 301.31 108.30
  A 2.01 1.89 51.4 0 1 302.78 108.51
  C 305.84 110.26 304.11 112.74 302.29 114.63
  Q 292.18 125.15 281.78 136.12
  A 0.71 0.71 37.7 0 0 281.92 137.21
  Q 292.98 144.12 304.19 151.31
  C 307.36 153.35 305.36 156.11 302.55 156.90
  Q 289.10 160.70 275.55 164.07
  A 1.38 1.33 -37.7 0 1 274.62 163.97
  Q 268.48 160.90 263.12 156.94
  A 0.80 0.79 -49.2 0 0 262.10 157.02
  C 258.48 160.65 250.21 170.98 246.04 172.13
  Q 238.08 174.33 228.50 176.70
  A 2.18 2.16 -33.5 0 1 226.68 176.34
  C 224.19 174.49 225.36 172.54 227.12 170.72
  Q 237.89 159.59 248.35 148.18
  A 0.41 0.40 -53.2 0 0 248.27 147.56
  Z
  M 254.99 127.18
  A 2.01 1.97 -36.4 0 0 253.42 126.96
  L 235.24 131.88
  Q 234.48 132.08 235.15 132.49
  Q 244.89 138.44 254.55 144.71
  Q 257.83 146.84 255.31 149.56
  Q 246.72 158.85 237.91 167.72
  Q 236.97 168.66 238.24 168.25
  L 243.90 166.44
  Q 245.14 166.04 246.06 165.10
  L 260.26 150.37
  A 2.17 2.11 37.6 0 1 262.93 150.06
  L 275.32 157.74
  A 1.17 1.12 51.8 0 0 276.24 157.87
  L 295.05 152.77
  Q 295.55 152.64 295.10 152.37
  Q 285.54 146.54 276.42 140.58
  C 273.83 138.88 272.56 137.56 275.06 134.81
  Q 283.21 125.85 291.47 117.65
  Q 292.67 116.46 291.04 116.91
  C 288.03 117.74 285.60 118.01 283.29 120.37
  Q 276.63 127.18 270.05 134.07
  Q 268.67 135.52 266.99 134.50
  L 254.99 127.18
  Z"
/>
<path fill="#ffffff" d="
  M 254.99 127.18
  L 266.99 134.50
  Q 268.67 135.52 270.05 134.07
  Q 276.63 127.18 283.29 120.37
  C 285.60 118.01 288.03 117.74 291.04 116.91
  Q 292.67 116.46 291.47 117.65
  Q 283.21 125.85 275.06 134.81
  C 272.56 137.56 273.83 138.88 276.42 140.58
  Q 285.54 146.54 295.10 152.37
  Q 295.55 152.64 295.05 152.77
  L 276.24 157.87
  A 1.17 1.12 51.8 0 1 275.32 157.74
  L 262.93 150.06
  A 2.17 2.11 37.6 0 0 260.26 150.37
  L 246.06 165.10
  Q 245.14 166.04 243.90 166.44
  L 238.24 168.25
  Q 236.97 168.66 237.91 167.72
  Q 246.72 158.85 255.31 149.56
  Q 257.83 146.84 254.55 144.71
  Q 244.89 138.44 235.15 132.49
  Q 234.48 132.08 235.24 131.88
  L 253.42 126.96
  A 2.01 1.97 -36.4 0 1 254.99 127.18
  Z"
/>
<path fill="#000000" d="
  M 166.06 238.94
  C 170.34 239.70 174.96 238.40 179.57 237.16
  Q 226.25 224.65 273.13 212.13
  A 0.69 0.69 82.6 0 1 274.00 212.80
  L 274.00 233.68
  A 1.11 1.11 82.5 0 1 273.18 234.75
  Q 219.50 249.14 166.75 263.25
  C 145.80 268.85 127.49 253.76 127.34 232.50
  C 127.27 222.58 126.09 209.95 128.64 201.23
  C 132.08 189.47 141.59 179.59 152.69 174.88
  Q 154.66 174.05 171.90 169.37
  Q 193.43 163.53 215.02 157.88
  A 0.40 0.39 -7.4 0 1 215.52 158.26
  L 215.73 179.51
  A 0.89 0.86 -8.2 0 1 215.07 180.36
  Q 195.96 185.52 177.39 190.56
  Q 164.93 193.94 163.21 194.77
  C 144.33 203.86 142.98 234.83 166.06 238.94
  Z"
/>
</svg>
