<?xml version="1.0" encoding="UTF-8" standalone="no"?>
<!DOCTYPE svg PUBLIC "-//W3C//DTD SVG 1.1//EN" "http://www.w3.org/Graphics/SVG/1.1/DTD/svg11.dtd">
<svg xmlns="http://www.w3.org/2000/svg" version="1.1" viewBox="0 0 600 300">
<circle fill="#000000" cx="287.00" cy="54.01" r="36.94"/>
<path fill="#000000" d="
  M 134.00 213.55
  Q 139.20 216.81 142.71 213.27
  C 145.59 210.36 145.20 206.32 145.25 202.25
  Q 145.54 176.99 144.25 166.25
  C 143.33 158.60 137.32 158.19 130.54 158.52
  Q 121.15 158.98 111.75 159.33
  C 99.73 159.78 95.19 155.18 95.28 143.37
  C 95.46 121.64 96.10 99.77 94.44 78.07
  C 92.91 57.97 117.23 63.42 129.43 62.92
  C 141.19 62.44 150.80 62.49 161.50 62.25
  Q 172.56 62.01 176.22 63.40
  Q 185.28 66.84 185.51 79.00
  Q 185.86 97.50 185.50 116.00
  Q 185.44 119.21 182.25 119.25
  Q 169.09 119.43 155.92 119.28
  C 154.19 119.26 148.36 119.59 146.56 118.69
  C 143.27 117.04 143.88 114.71 144.15 110.92
  C 144.74 102.66 147.46 90.21 144.35 85.54
  C 139.34 78.04 131.49 83.20 131.50 91.02
  Q 131.52 111.77 132.57 132.50
  C 132.96 140.23 141.37 139.27 147.75 138.75
  Q 156.03 138.08 170.30 138.20
  C 184.77 138.34 184.11 150.49 183.30 161.27
  C 182.08 177.38 182.47 193.85 183.02 209.98
  Q 183.40 221.14 183.24 221.99
  C 181.51 230.91 172.78 231.70 164.50 231.40
  Q 137.64 230.41 110.75 230.51
  C 94.62 230.57 96.10 217.51 95.81 206.08
  C 95.59 197.84 94.42 189.70 94.32 181.41
  C 94.29 178.42 95.67 176.25 98.75 176.25
  Q 113.13 176.25 127.50 176.23
  C 133.12 176.22 132.58 180.03 132.46 184.55
  C 132.24 193.02 130.68 200.95 131.50 209.51
  Q 131.75 212.15 134.00 213.55
  Z"
/>
<path fill="#000000" d="
  M 382.41 65.56
  Q 382.89 63.77 384.74 63.75
  Q 400.03 63.58 415.31 63.35
  C 420.04 63.28 421.76 64.59 421.25 69.50
  C 420.51 76.59 420.24 87.93 420.27 97.17
  C 420.40 133.74 420.45 170.30 420.67 206.87
  Q 420.69 209.96 421.46 211.62
  C 423.62 216.27 430.50 217.43 433.44 213.19
  C 435.41 210.34 435.26 206.63 435.24 202.98
  C 435.09 177.79 434.96 153.80 434.71 127.38
  C 434.51 105.24 435.51 91.20 433.99 76.73
  Q 433.78 74.77 433.95 72.76
  C 434.27 68.77 432.52 63.25 438.75 63.25
  Q 453.01 63.25 467.27 63.25
  C 470.68 63.25 472.84 64.38 472.84 68.00
  C 472.82 79.74 471.00 91.86 472.00 103.50
  C 472.74 112.16 472.63 127.41 473.11 140.23
  Q 473.44 149.09 472.75 153.75
  C 470.89 166.32 484.41 161.56 491.53 162.21
  Q 494.53 162.48 494.50 165.48
  C 494.35 183.83 493.61 202.21 493.96 220.55
  C 494.00 222.69 494.47 226.56 493.90 229.27
  Q 493.33 232.03 490.52 232.21
  Q 482.55 232.75 477.39 231.92
  Q 475.13 231.55 473.21 230.30
  Q 468.70 227.37 465.45 228.96
  C 457.85 232.70 450.82 233.17 442.25 233.00
  C 431.68 232.79 419.22 233.48 407.51 232.89
  C 402.84 232.65 397.75 233.31 393.63 231.79
  C 383.05 227.90 383.14 219.83 383.53 209.07
  Q 384.17 191.33 383.25 176.50
  Q 382.56 165.33 383.25 157.25
  Q 383.35 156.07 382.84 151.08
  C 382.02 143.15 382.61 134.95 382.26 126.95
  C 381.53 110.13 381.84 94.45 381.05 78.22
  Q 380.74 71.76 382.41 65.56
  Z"
/>
<path fill="#000000" d="
  M 260.93 100.70
  Q 262.23 98.64 264.74 98.84
  Q 282.09 100.20 305.50 99.25
  Q 310.92 99.03 310.21 105.03
  C 307.41 128.92 309.25 152.56 308.58 176.50
  Q 307.96 198.36 309.25 212.25
  Q 310.21 222.61 310.26 229.41
  C 310.28 233.00 308.95 234.07 305.50 234.00
  Q 285.66 233.62 265.81 233.91
  C 260.06 233.99 260.46 228.18 260.82 224.26
  C 262.25 208.77 261.72 195.97 262.77 177.50
  C 263.52 164.39 262.13 151.52 262.56 138.53
  C 262.99 125.45 260.45 114.26 260.56 101.96
  A 2.47 2.45 -28.8 0 1 260.93 100.70
  Z"
/>
<path fill="#000000" d="
  M 248.81 221.94
  C 251.53 223.66 252.19 227.76 250.08 230.17
  Q 248.13 232.38 244.25 232.50
  Q 216.55 233.37 207.50 232.50
  C 196.79 231.47 196.35 222.10 196.89 213.01
  C 197.52 202.25 197.42 191.02 197.00 180.25
  Q 195.97 154.04 195.88 127.81
  C 195.85 120.18 196.68 108.82 202.57 103.50
  C 208.04 98.57 215.11 99.08 222.04 98.96
  C 235.09 98.75 247.71 98.46 249.75 113.50
  C 252.35 132.67 250.38 154.61 250.70 174.74
  C 250.76 178.26 250.03 182.57 250.25 185.75
  Q 250.93 195.37 251.25 205.00
  C 251.40 209.39 249.87 210.28 245.70 210.37
  Q 233.71 210.63 221.75 209.75
  C 218.33 209.49 211.95 210.30 212.16 214.72
  C 212.32 218.32 215.98 220.28 219.25 220.25
  C 228.58 220.16 235.69 220.24 241.54 220.13
  Q 245.81 220.04 248.81 221.94
  Z
  M 227.18 123.51
  Q 223.68 121.38 220.92 122.95
  C 216.70 125.34 217.56 132.11 217.44 136.21
  C 217.22 144.23 217.74 152.34 217.30 160.17
  Q 216.54 173.82 217.25 180.75
  C 218.16 189.56 230.44 188.38 230.00 180.00
  Q 228.99 160.87 230.20 145.02
  Q 230.91 135.71 229.60 127.13
  Q 229.23 124.76 227.18 123.51
  Z"
/>
<path fill="#000000" d="
  M 318.66 101.76
  Q 319.49 99.34 322.05 99.31
  Q 332.42 99.21 342.78 99.44
  C 348.51 99.57 348.88 101.94 348.72 106.87
  Q 348.32 119.35 347.75 124.25
  C 345.84 140.84 371.93 122.38 371.27 144.74
  Q 370.28 178.65 372.43 212.50
  C 372.94 220.55 370.70 231.39 360.34 231.91
  C 347.64 232.55 335.21 232.01 322.49 231.51
  Q 319.85 231.41 319.75 228.76
  C 319.41 219.92 320.43 211.07 320.06 202.12
  Q 319.52 188.92 319.53 186.35
  Q 319.64 168.67 320.01 151.00
  C 320.35 135.32 319.53 121.02 318.18 106.01
  Q 317.97 103.78 318.66 101.76
  Z
  M 349.64 149.56
  C 344.14 145.30 339.66 152.14 339.71 157.25
  Q 339.96 182.79 340.28 208.33
  C 340.38 215.81 348.55 218.20 351.69 212.19
  C 353.14 209.41 352.79 206.14 352.72 202.88
  Q 352.32 183.72 352.70 164.57
  C 352.81 159.05 354.96 153.69 349.64 149.56
  Z"
/>
<path fill="#000000" d="
  M 310.46 267.27
  C 302.99 262.04 305.81 249.93 314.58 248.23
  C 322.18 246.76 328.43 251.18 328.92 259.19
  A 0.65 0.63 80.5 0 1 328.47 259.85
  Q 327.11 260.27 325.73 259.90
  A 0.83 0.73 -89.1 0 1 325.18 259.25
  C 323.64 249.20 307.05 252.18 310.60 260.73
  C 312.14 264.46 320.41 265.71 324.50 267.50
  C 332.02 270.78 331.29 282.64 325.20 286.84
  C 316.08 293.11 306.42 286.74 304.95 276.17
  A 0.82 0.82 -10.4 0 1 305.58 275.26
  Q 309.00 274.49 309.26 276.46
  C 310.49 285.66 324.99 286.97 326.03 277.96
  C 326.87 270.68 314.67 270.22 310.46 267.27
  Z"
/>
<path fill="#000000" d="
  M 448.93 279.43
  C 451.46 284.04 457.27 285.40 461.58 282.29
  C 464.03 280.53 464.94 278.02 465.65 275.14
  A 0.85 0.84 8.9 0 1 466.53 274.50
  Q 468.08 274.63 469.34 275.46
  A 0.83 0.78 -70.5 0 1 469.69 276.25
  C 468.78 283.24 463.89 289.29 456.25 288.92
  C 441.99 288.23 440.65 269.47 443.39 259.42
  C 446.80 246.88 463.66 242.69 468.52 256.80
  C 469.40 259.33 470.57 259.74 466.63 260.56
  A 1.51 1.51 -7.2 0 1 464.85 259.38
  C 463.76 253.94 457.82 251.71 452.93 253.80
  C 444.96 257.21 445.34 272.91 448.93 279.43
  Z"
/>
<path fill="#000000" d="
  M 130.36 266.09
  Q 130.35 268.07 131.60 266.55
  L 145.61 249.57
  A 1.24 0.74 -61.3 0 1 146.43 249.09
  L 150.71 249.20
  Q 151.29 249.21 150.87 249.70
  L 138.64 264.23
  A 0.82 0.82 -40.5 0 0 138.56 265.18
  L 151.81 287.14
  A 0.39 0.39 -24.3 0 1 151.59 287.72
  Q 149.44 288.37 147.23 287.87
  A 1.20 1.14 80.2 0 1 146.49 287.32
  L 135.71 268.56
  A 0.37 0.36 50.3 0 0 135.12 268.50
  L 130.89 273.43
  A 1.41 1.38 66.5 0 0 130.55 274.32
  C 130.52 276.15 130.91 286.39 130.30 287.27
  Q 129.61 288.26 126.93 287.75
  A 0.84 0.83 5.4 0 1 126.25 286.93
  L 126.25 249.68
  A 0.62 0.53 -89.1 0 1 126.80 249.06
  L 129.95 249.17
  A 0.66 0.52 -89.1 0 1 130.45 249.82
  L 130.36 266.09
  Z"
/>
<path fill="#000000" d="
  M 171.50 249.01
  A 1.72 1.70 89.2 0 1 172.60 250.09
  L 185.24 287.22
  A 0.43 0.39 79.1 0 1 184.90 287.79
  L 181.04 287.83
  A 0.86 0.52 76.8 0 1 180.43 287.21
  L 176.99 276.65
  A 0.72 0.72 -8.6 0 0 176.32 276.16
  L 164.77 276.02
  A 1.25 1.18 -80.9 0 0 163.61 276.91
  L 160.58 286.96
  A 1.28 0.85 -86.5 0 1 160.02 287.70
  Q 158.85 288.25 156.41 287.69
  A 0.48 0.48 15.3 0 1 156.06 287.08
  L 168.04 249.91
  A 1.09 1.05 88.0 0 1 168.65 249.23
  Q 170.23 248.59 171.50 249.01
  Z
  M 169.89 255.89
  L 165.67 269.95
  A 0.81 0.77 -81.6 0 0 166.40 270.99
  L 174.77 270.94
  A 0.47 0.46 81.1 0 0 175.20 270.33
  L 170.67 255.88
  Q 170.27 254.62 169.89 255.89
  Z"
/>
<rect fill="#000000" x="194.23" y="249.01" width="4.02" height="38.98" rx="0.43"/>
<path fill="#000000" d="
  M 229.19 270.05
  L 214.60 270.00
  A 0.86 0.84 -89.7 0 0 213.75 270.86
  L 213.70 287.18
  A 0.74 0.65 83.8 0 1 213.22 287.86
  Q 212.11 288.15 210.16 287.81
  A 0.80 0.80 5.2 0 1 209.50 287.02
  L 209.50 250.11
  A 0.82 0.81 83.9 0 1 210.14 249.31
  C 214.22 248.39 213.75 249.09 213.75 252.62
  Q 213.75 257.83 213.75 264.11
  A 0.86 0.83 89.7 0 0 214.59 264.97
  L 229.31 264.84
  A 0.53 0.53 -0.6 0 0 229.83 264.31
  L 230.02 250.42
  A 1.18 1.13 84.5 0 1 230.91 249.29
  C 234.58 248.49 234.25 248.96 234.25 252.26
  Q 234.25 269.27 234.25 286.81
  A 0.85 0.84 82.4 0 1 233.63 287.63
  Q 231.44 288.22 230.41 287.77
  A 0.93 0.65 -82.3 0 1 230.01 287.00
  L 229.72 270.55
  A 0.54 0.51 0.0 0 0 229.19 270.05
  Z"
/>
<path fill="#000000" d="
  M 262.19 276.05
  L 250.59 276.00
  A 1.15 1.07 -80.8 0 0 249.55 276.81
  L 246.36 287.21
  A 0.94 0.94 -89.4 0 1 245.72 287.84
  Q 244.11 288.28 242.48 287.89
  A 0.49 0.47 -74.2 0 1 242.15 287.27
  L 254.15 249.78
  A 1.02 0.89 -86.4 0 1 254.78 249.14
  Q 255.88 248.85 257.75 249.18
  A 0.99 0.99 85.4 0 1 258.52 249.84
  Q 264.83 268.25 270.85 286.04
  C 271.15 286.96 272.29 288.31 270.02 288.11
  C 269.18 288.04 267.76 288.15 266.94 287.75
  A 1.34 0.92 86.5 0 1 266.37 287.02
  L 262.87 276.52
  A 0.75 0.68 -7.6 0 0 262.19 276.05
  Z
  M 255.84 256.09
  L 251.67 269.96
  A 0.80 0.77 -81.6 0 0 252.40 270.99
  L 260.58 270.95
  A 0.64 0.61 80.7 0 0 261.14 270.12
  L 256.95 256.11
  Q 256.39 254.26 255.84 256.09
  Z"
/>
<path fill="#000000" d="
  M 287.56 254.82
  L 287.50 287.46
  A 0.53 0.50 -89.5 0 1 286.99 287.99
  L 284.12 287.96
  A 0.75 0.70 -89.6 0 1 283.43 287.21
  L 283.50 254.70
  A 0.70 0.70 0.0 0 0 282.80 254.00
  L 274.04 254.00
  A 0.85 0.74 -0.3 0 1 273.19 253.27
  L 273.17 249.54
  A 0.64 0.47 -0.4 0 1 273.81 249.06
  C 281.26 248.99 289.18 249.49 296.56 248.92
  Q 298.35 248.78 298.19 250.54
  C 298.02 252.45 298.69 254.74 295.50 254.00
  Q 293.46 253.53 288.05 254.25
  A 0.58 0.56 86.6 0 0 287.56 254.82
  Z"
/>
<path fill="#000000" d="
  M 343.75 276.00
  C 344.04 281.53 348.32 285.03 353.81 283.79
  C 358.86 282.65 359.97 278.22 359.97 273.50
  Q 359.95 261.65 360.06 249.81
  A 0.71 0.64 83.1 0 1 360.53 249.14
  Q 361.64 248.85 363.59 249.19
  A 0.80 0.80 5.2 0 1 364.25 249.98
  Q 364.25 261.25 364.27 272.25
  C 364.28 281.02 361.88 289.21 351.25 288.93
  C 341.58 288.68 339.26 280.60 339.41 272.50
  Q 339.64 261.15 339.33 249.81
  A 0.66 0.63 80.9 0 1 339.78 249.16
  Q 341.39 248.72 343.02 249.11
  A 0.65 0.62 -82.8 0 1 343.49 249.75
  Q 343.29 267.02 343.75 276.00
  Z"
/>
<rect fill="#000000" x="-2.03" y="-19.48" transform="translate(394.22,268.50) rotate(0.1)" width="4.06" height="38.96" rx="0.47"/>
<path fill="#000000" d="
  M 411.63 257.99
  L 411.47 258.01
  A 0.21 0.18 87.0 0 0 411.31 258.22
  Q 411.61 271.49 411.51 284.77
  C 411.49 287.92 411.90 288.52 408.28 287.73
  A 1.24 1.19 -84.2 0 1 407.34 286.53
  L 407.32 249.82
  A 0.68 0.62 83.5 0 1 407.79 249.17
  Q 409.42 248.75 411.09 249.08
  A 1.11 1.01 79.1 0 1 411.81 249.62
  L 427.31 278.37
  Q 428.32 280.24 428.32 278.12
  L 428.31 249.81
  A 0.73 0.62 84.0 0 1 428.78 249.12
  Q 429.70 248.89 431.49 249.25
  A 0.96 0.95 6.0 0 1 432.25 250.18
  L 432.25 287.06
  A 0.83 0.83 -7.8 0 1 431.64 287.86
  Q 430.01 288.31 428.29 287.84
  A 1.24 1.13 81.5 0 1 427.57 287.25
  L 412.08 258.34
  A 0.60 0.34 67.4 0 0 411.63 257.99
  Z"
/>
<rect fill="#000000" x="-2.25" y="-2.50" transform="translate(482.24,285.50) rotate(0.9)" width="4.50" height="5.00" rx="0.76"/>
</svg>
