<?xml version="1.0" encoding="utf-8"?>
<!-- Generator: Adobe Illustrator 21.0.2, SVG Export Plug-In . SVG Version: 6.00 Build 0)  -->
<svg version="1.1" id="Layer_1" xmlns="http://www.w3.org/2000/svg" xmlns:xlink="http://www.w3.org/1999/xlink" x="0px" y="0px"
	 viewBox="0 0 1000 492.5" style="enable-background:new 0 0 1000 492.5;" xml:space="preserve">
<style type="text/css">
	.st0{fill:url(#SVGID_1_);}
	.st1{fill:#0C4DA2;}
	.st2{fill:#FFCB08;}
	.st3{fill:#F7F7F7;}
</style>
<g>
	<linearGradient id="SVGID_1_" gradientUnits="userSpaceOnUse" x1="500.446" y1="492.0366" x2="500.446" y2="0.5">
		<stop  offset="0" style="stop-color:#003FAA"/>
		<stop  offset="1" style="stop-color:#00A8D4"/>
	</linearGradient>
	<path class="st0" d="M331.4,492v-21.2c104.6-4.5,114.8-9.1,114.8-73.4V95c0-64.3-10.2-68.8-114.8-73.4V0.5h338.2v21.2
		C564.9,26.2,554.7,30.7,554.7,95v302.5c0,65,10.2,68.8,114.8,73.4V492H331.4z"/>
</g>
<path class="st1" d="M716.8,87.4c-31.9,0-60.3,13.8-78.8,35.3c-5.5-7-12.1-14.4-19.4-19.6c-15.3-11.4-35.1-14.9-56.3-15.5
	c-35.9-1-64.6,18.4-77.8,40.2c-11.2-22.3-21.2-33.9-60-35.8h-94.1l0,39.2c0,0,4.5,1.4,6,3.1c1.3,1.4,2.1,5.2,2.1,5.2l-0.2,87.3
	c0,0-2.5-1.8-3.4-2.9c-1.8-2.1-4.4-7.2-4.4-7.2L282.2,92l-61.1,0l-53.1,138.9v-29.7h-38.2c-3,8.3-11.5,13.9-21.7,13.9
	c-5.4,0-11.1-1.3-15.8-4.1c-6.1-3.6-10.6-8-14.3-15.7c-2.9-7.1-5.2-15.8-5.4-23.5c0.9-15.2,5.5-20.7,14-27c1.9-1.4,7.1-2.5,8.6-2.5
	c3.3,0,6.1,2,7.6,5c2.2,4.3-1,9.6-4.2,13.3l30.9,21.3l47.7-50c-16.7-26.5-47.1-44.3-81.9-44.3c-52.7,0-95.4,40.7-95.4,91
	c0,50.2,41.3,88.2,95.4,92.3l6.8,0.3h72.7v0h169.2v0l63.6-0.1V271h10v-37.4c0,0-5.3-1.1-7.5-2.6c-2.3-1.6-2.5-4-2.5-4
	c0-1,0.2-1.7,0.7-2.3c0.5-0.6,1.6-1,2.1-1.1c6.6-1.4,13.3-3.3,20-5.7c17.9-6.4,32.9-15.6,43.6-25.7c7.2,42.3,44.3,73.1,89.2,78.2
	c2.9,0.3,5.5,0.6,8.2,0.7c0.7,0,2.2,0,2.2,0H637l-0.2-31.2c16.5,18.3,48.7,35.9,81.2,35.9c26.5,0,50.3-11.6,67.1-26l-0.1,21.6h80.2
	l0.4-33.1l20.9,0.3v-0.4l28,0.2v32.8h85.5v-43.4c0,0-3.7-0.2-5.1-1.2c-1.9-1.3-3.9-5.9-3.9-5.9l-12-79.8c0,0,0.4-5.3,1.9-7.3
	c1.3-1.6,5.5-3,5.5-3V92h-85.2v1.1l-6,20.2L886.4,93v-1H886l-0.2-0.5l0,0.5h-82.3v40.4l-5.6-7.7c-15.4-22.5-42.5-37.4-73.4-37.4
	c-1.3,0-2.5,0-3.8,0.1C719.5,87.4,718.1,87.4,716.8,87.4z M166.9,238.8l0,0.4h-0.4C166.6,239.1,166.8,238.9,166.9,238.8z"/>
<path class="st2" d="M95.3,104.7C51.9,105,16.4,136.6,16.4,178c0,41.4,39.1,76.9,86.5,75.8l46,0.1v-36.2h-8.7
	c-2.7,6.8-15.5,13.5-24.7,13.5c-4.9,0-17.1-0.7-21.7-2.3c-8-2.8-19.5-6.8-29.4-23.6c-2.7-5.9-10.2-20.1-8.5-41
	c0.8-12.6,8.8-28.2,23.1-35.3c6.2-3.1,12.5-3.6,23.5-2.6c7.9,0.7,15.8,6.3,18.5,13c2.1,5.2,1.5,11.5-1,15.1
	c-0.2,0.3-0.2,0.5-0.1,0.7c0,0.2,0.3,0.5,0.3,0.5l4.4,3.4c0,0,1.2,0.9,2.7,0.8c0.8,0,2.3-0.9,2.3-0.9l24.9-26.1
	C139.2,112.2,111.8,104.7,95.3,104.7L95.3,104.7z M717.2,104c-46,0-83.3,34.6-83.3,77.3s37.3,77.3,83.3,77.3
	c46,0,83.3-34.6,83.3-77.3C800.5,138.7,763.2,104,717.2,104L717.2,104z M717.8,128.1c23.7,0,36.4,17,41.5,37.2
	c1.5,5.8,0.9,25,0,31.4c-2.7,19.5-18.6,38.6-41.8,38c-22.6-0.6-37.7-11.1-42.3-39.3c-1.4-8.3-1.4-18.2-0.3-26.5
	C678.1,144.7,694.1,128.1,717.8,128.1L717.8,128.1z M232.5,108.8c0,0-36.6,99-43.2,117.1c-6.6,18-13.9,17.5-13.9,17.5l0.5,10.9
	l44.2,0l0-10.5c0,0-2.8-0.1-4.9-2.1c-4-3.7-1.5-11.2-1.5-11.2l10.2-26.2l45.4,0.1c0,0,8.9,22.1,11,29.4c2.8,9.5-6,9.7-6,9.7v10.7
	l55.9,0l0-10.5c0,0-3.3-0.5-6.9-3.6c-4-3.5-6.8-10.7-6.8-10.7l-45.8-120.4L232.5,108.8z M245.6,139.3l15.2,42.2l-29.4,0.1
	L245.6,139.3L245.6,139.3z M348.3,108.7l-0.2,12.1c0,0,3.6,1,7,4.8c1.8,2,0.7,27.4,0.7,27.4l-0.1,81.3c0,0,1.2,3.2-2.7,6.4
	c-1.5,1.2-2.8,2.5-5,2.7l-0.3,10.8l51.8,0.1l0.1-11c0,0-1.8-0.7-4.7-3.3c-1.6-1.5-2.6-3.6-2.6-5.7c0-7.3,0.2-14.4,0.2-21.6
	c18.2-4.4,33.8-11.8,39.9-14c23-9.2,40.8-23.7,39.7-49.7c-0.2-18.4-9.5-33.5-29.5-36.9c-9.1-2.6-13.3-3.1-16.9-3.3L348.3,108.7
	L348.3,108.7z M407.6,129.3c5.6-0.1,12.2,1.2,17.2,3.7c6.3,4.2,10.2,8.5,10.2,17.7c0.3,4.3-1,8-3.1,11.8
	c-2.2,3.6-8.7,10.5-12.8,14.5c-12.1,8.6-16.4,11.2-26,15.6l-0.2-61.6C398,130.1,402.6,129.3,407.6,129.3L407.6,129.3z M567.4,104.8
	c-43.4,0.3-78.9,31.9-78.9,73.3c0,41.4,39.1,76.9,86.5,75.8l46,0.1v-36.2h-8.7c-2.7,6.8-15.5,13.5-24.7,13.5
	c-4.9,0-17.1-0.7-21.7-2.3c-8-2.8-19.5-6.8-29.4-23.6c-2.7-5.9-10.2-20.1-8.5-41c0.8-12.6,8.8-28.2,23.1-35.3
	c6.2-3.1,12.5-3.6,23.5-2.6c7.9,0.7,15.8,6.3,18.5,13c2.1,5.2,1.5,11.5-1,15.1c-0.2,0.3-0.2,0.5-0.1,0.7c0,0.2,0.3,0.5,0.3,0.5
	l4.4,3.4c0,0,1.2,0.9,2.7,0.8c0.8,0,2.3-0.9,2.3-0.9l24.9-26.1C611.3,112.3,583.9,104.8,567.4,104.8L567.4,104.8z M821.4,109l0,10.4
	c0,0,4.6,1.2,6.4,2.7c2.1,1.6,1.5,4.5,1.5,4.5s-16.5,102.8-16.9,104.7c-0.4,2.1-0.9,6.8-3.8,9.5c-2.9,2.7-6.2,3.2-6.2,3.2l0,10.3
	h46.3v-9.6c0,0-3.8-0.3-6.3-2.8c-2.5-2.5-1.8-9.4-1.8-9.4l11.4-77.7l23.2,66.8l28.2,0.4l22.9-72l12.8,82.8c0,0,1.5,6.2-1.8,9.4
	c-2.6,2.5-6.3,2.8-6.3,2.8v9.6h53.7l0-10.3c0,0-1.2,0.4-4.2-2c-1.8-1.4-2.7-7.8-3-9.9c-0.4-1.9-14.8-105.4-14.8-105.4
	s-0.3-4.3,2.1-6.5c1.7-1.6,5.1-3.1,5.1-3.1l-0.1-8.5l-55.7-0.1l-20.4,58.7L874.3,109L821.4,109L821.4,109z"/>
<path class="st1" d="M938,290.8H62c-34.2,0-62,27.8-62,62c0,34.2,27.8,62,62,62h876c34.2,0,62-27.8,62-62
	C1000,318.5,972.2,290.8,938,290.8z"/>
<g>
	<path class="st3" d="M133.8,321.8c4.8-0.8,11.5-1.3,20.6-1.3c9.9,0,17.1,1.8,21.9,5.3c4.4,3.2,7.2,8.3,7.2,14.3
		c0,6.2-2.2,11.3-6.4,14.7c-5.4,4.7-13.8,6.9-23.4,6.9c-2.5,0-4.8-0.1-6.6-0.4v24.4h-13.4V321.8z M147.2,352
		c1.6,0.4,3.8,0.5,6.6,0.5c10.1,0,16.3-4.3,16.3-11.9c0-7.2-5.7-11.1-15-11.1c-3.7,0-6.4,0.3-7.8,0.6V352z"/>
	<path class="st3" d="M205.9,321h13.5v54.9h30.4v9.9h-43.9V321z"/>
	<path class="st3" d="M286.1,367.4l-6.4,18.4h-13.9l23.7-64.8h17.2l24,64.8h-14.5l-6.7-18.4H286.1z M307.3,358.5l-5.8-16
		c-1.4-3.9-2.6-8.4-3.7-12.1h-0.2c-1.1,3.8-2.2,8.3-3.5,12.1l-5.7,16H307.3z"/>
	<path class="st3" d="M359,385.8v-27L335.6,321H351l8.9,16.6c2.5,4.8,4.4,8.5,6.4,12.9h0.2c1.9-4.1,4-8.2,6.5-12.9l8.9-16.6h15.3
		l-24.6,37.5v27.3H359z"/>
	<path class="st3" d="M449.2,372.9c4.4,2.2,11,4.1,17.9,4.1c8.7,0,13.5-3.6,13.5-8.9c0-4.9-3.7-7.8-13.2-10.8
		c-12.2-3.8-20-9.5-20-18.9c0-10.6,10.1-18.7,26.1-18.7c8,0,13.9,1.5,17.8,3.3l-3.3,9.5c-2.6-1.3-7.8-3.1-14.7-3.1
		c-8.6,0-12.3,4-12.3,7.8c0,5,4.3,7.3,14.2,10.7c12.8,4.2,19.1,9.9,19.1,19.2c0,10.4-9,19.4-28.1,19.4c-7.8,0-15.9-1.9-20-4
		L449.2,372.9z"/>
	<path class="st3" d="M534.1,385.8v-27L510.7,321h15.4l8.9,16.6c2.5,4.8,4.4,8.5,6.4,12.9h0.2c1.9-4.1,4-8.2,6.5-12.9l8.9-16.6h15.3
		l-24.6,37.5v27.3H534.1z"/>
	<path class="st3" d="M588.5,372.9c4.4,2.2,11,4.1,17.9,4.1c8.7,0,13.5-3.6,13.5-8.9c0-4.9-3.7-7.8-13.2-10.8
		c-12.2-3.8-20-9.5-20-18.9c0-10.6,10.1-18.7,26.1-18.7c8,0,13.9,1.5,17.8,3.3l-3.3,9.5c-2.6-1.3-7.8-3.1-14.7-3.1
		c-8.6,0-12.3,4-12.3,7.8c0,5,4.3,7.3,14.2,10.7c12.8,4.2,19.1,9.9,19.1,19.2c0,10.4-9,19.4-28.1,19.4c-7.8,0-15.9-1.9-20-4
		L588.5,372.9z"/>
	<path class="st3" d="M670.7,330.9h-21.1V321h55.9v9.9h-21.3v54.9h-13.5V330.9z"/>
	<path class="st3" d="M766.3,357h-27.9v19h31.2v9.7h-44.7V321h43v9.7h-29.5v16.7h27.9V357z"/>
	<path class="st3" d="M854.7,359.3c-0.4-8.4-1-18.5-0.9-27.2h-0.3c-2.4,7.9-5.5,16.6-8.8,24.8L834,385h-10.4l-9.9-27.7
		c-2.9-8.3-5.5-17.1-7.5-25.2H806c-0.3,8.5-0.8,18.8-1.3,27.6l-1.6,26.1h-12.6l4.9-64.8h17.8l9.7,26.1c2.6,7.6,4.9,15.3,6.8,22.5
		h0.3c2-7,4.5-15,7.4-22.6l10.2-26H865l4.3,64.8h-13.2L854.7,359.3z"/>
</g>
</svg>
