<?xml version="1.0" encoding="UTF-8" standalone="no"?>
<!DOCTYPE svg PUBLIC "-//W3C//DTD SVG 1.1//EN" "http://www.w3.org/Graphics/SVG/1.1/DTD/svg11.dtd">
<svg xmlns="http://www.w3.org/2000/svg" version="1.1" viewBox="0 0 600 300">
<path fill="#000000" d="
  M 368.17 22.55
  A 1.14 1.13 8.6 0 1 369.47 21.60
  L 391.93 24.88
  A 0.52 0.52 -75.8 0 1 392.34 25.57
  L 374.19 74.75
  A 1.90 1.86 -74.2 0 1 372.07 75.97
  L 361.34 73.79
  A 1.10 1.09 -79.7 0 1 360.49 72.55
  L 368.17 22.55
  Z"
/>
<path fill="#000000" d="
  M 393.74 80.94
  C 402.42 66.22 410.68 51.75 419.43 37.28
  A 0.85 0.85 -57.0 0 1 420.64 37.02
  L 437.73 48.84
  A 0.95 0.94 -52.5 0 1 437.91 50.22
  L 405.98 88.41
  A 1.71 1.65 35.6 0 1 403.82 88.73
  L 394.25 82.87
  A 1.44 1.40 31.0 0 1 393.74 80.94
  Z"
/>
<path fill="#000000" d="
  M 454.37 68.00
  A 0.60 0.60 53.1 0 1 455.28 68.13
  L 467.36 87.52
  A 1.07 1.07 -33.6 0 1 467.01 88.99
  L 426.04 114.39
  A 0.78 0.77 56.9 0 1 425.00 114.16
  L 416.80 102.17
  A 0.83 0.82 52.0 0 1 416.93 101.09
  L 454.37 68.00
  Z"
/>
<path fill="#000000" d="
  M 294.56 138.37
  L 360.68 270.04
  A 0.65 0.64 64.9 0 1 360.37 270.92
  L 343.28 278.60
  A 1.13 1.13 -25.1 0 1 341.81 278.07
  L 268.01 127.54
  A 1.22 1.21 -25.3 0 1 268.60 125.91
  Q 297.11 112.82 325.05 98.96
  Q 337.58 92.75 343.41 91.15
  C 375.81 82.28 408.06 103.91 412.50 137.25
  C 416.89 170.17 395.16 194.28 366.23 205.48
  A 1.79 1.75 -35.5 0 1 364.44 205.20
  L 318.23 167.02
  A 1.89 1.88 -60.4 0 1 317.66 164.94
  L 331.84 125.43
  A 2.22 2.14 9.1 0 1 333.90 124.00
  L 372.29 123.73
  A 0.90 0.86 -0.7 0 1 373.20 124.58
  L 373.49 143.00
  A 0.94 0.92 -0.6 0 1 372.55 143.94
  L 348.54 144.00
  Q 346.76 144.00 346.27 145.73
  L 341.57 162.26
  A 1.37 1.33 -64.9 0 0 342.08 163.73
  L 368.48 182.41
  A 1.34 1.32 -45.8 0 0 370.05 182.38
  C 381.23 174.00 392.32 160.36 392.57 146.00
  C 392.73 136.73 388.38 126.28 382.31 119.44
  C 373.43 109.43 358.74 108.08 346.23 111.70
  Q 341.51 113.07 331.23 118.25
  Q 313.59 127.13 295.14 136.60
  A 1.32 1.32 -27.0 0 0 294.56 138.37
  Z"
/>
<path fill="#000000" d="
  M 116.82 209.95
  C 154.25 202.57 158.33 264.51 121.25 263.86
  C 91.20 263.33 89.22 215.39 116.82 209.95
  Z
  M 118.71 260.04
  C 147.05 265.39 150.59 214.06 123.06 213.19
  C 96.88 212.36 95.59 255.68 118.71 260.04
  Z"
/>
<path fill="#000000" d="
  M 179.24 213.19
  C 152.86 215.43 153.88 261.10 182.25 260.34
  C 186.87 260.21 195.35 258.21 198.88 254.08
  A 1.44 1.34 66.6 0 0 199.20 253.18
  L 199.21 242.56
  A 1.60 1.56 0.0 0 0 197.61 241.00
  Q 190.00 241.00 184.00 241.07
  Q 181.59 241.10 182.50 238.75
  A 2.86 1.23 -72.1 0 1 184.25 236.75
  L 202.98 236.75
  A 1.02 1.02 0.0 0 1 204.00 237.77
  L 204.00 255.13
  A 2.25 2.25 72.7 0 1 203.03 256.98
  C 180.77 272.50 150.23 261.33 156.00 230.54
  C 157.94 220.22 164.31 212.22 174.83 210.07
  C 186.64 207.66 197.77 210.63 202.77 222.54
  A 1.24 1.23 -28.5 0 1 202.32 224.04
  C 200.05 225.60 198.82 225.95 197.49 223.13
  Q 192.27 212.08 179.24 213.19
  Z"
/>
<path fill="#000000" d="
  M 283.12 264.17
  C 250.08 264.43 249.34 207.57 285.25 209.44
  C 316.00 211.03 315.81 263.92 283.12 264.17
  Z
  M 271.21 256.04
  C 277.57 261.60 287.93 261.71 294.42 256.73
  C 304.50 249.00 305.19 230.77 298.38 220.90
  C 292.88 212.94 282.14 210.65 273.76 215.51
  C 260.65 223.11 260.20 246.41 271.21 256.04
  Z"
/>
<path fill="#000000" d="
  M 406.69 241.15
  C 403.26 272.43 359.84 271.64 357.75 240.00
  C 354.97 197.94 411.24 199.54 406.69 241.15
  Z
  M 371.19 256.81
  C 384.75 266.08 400.01 256.57 401.69 241.27
  C 402.76 231.56 400.37 218.70 389.88 214.54
  C 383.88 212.16 376.61 212.75 371.51 216.26
  C 359.82 224.32 359.24 248.64 371.19 256.81
  Z"
/>
<path fill="#000000" d="
  M 424.94 259.56
  C 414.03 251.83 413.15 232.98 418.45 222.23
  C 426.87 205.15 453.36 204.37 460.09 223.78
  A 0.71 0.70 61.2 0 1 459.87 224.57
  Q 456.52 227.30 455.03 223.77
  C 451.79 216.15 445.66 212.26 437.25 213.25
  C 413.29 216.07 414.36 263.07 441.04 260.12
  Q 452.37 258.86 456.32 247.03
  Q 456.89 245.33 458.66 245.68
  C 462.24 246.40 460.72 248.01 459.97 250.04
  C 454.52 264.70 436.82 267.99 424.94 259.56
  Z"
/>
<path fill="#000000" d="
  M 36.06 254.53
  Q 36.25 254.52 36.42 254.42
  A 0.72 0.51 78.9 0 0 36.68 253.83
  L 36.32 211.32
  A 0.90 0.71 79.6 0 1 36.73 210.54
  Q 37.82 210.03 40.12 210.58
  A 1.15 1.15 -83.3 0 1 41.00 211.70
  L 41.00 262.31
  A 0.73 0.73 80.5 0 1 40.51 263.00
  C 37.28 264.10 35.86 263.11 34.03 260.41
  Q 20.59 240.52 7.06 220.68
  Q 5.04 217.72 5.07 221.30
  L 5.44 261.99
  A 1.05 1.05 84.3 0 1 4.60 263.02
  C -0.18 264.00 0.47 262.38 0.52 258.60
  Q 0.86 235.28 0.75 211.25
  A 0.76 0.75 -6.5 0 1 1.35 210.50
  Q 4.95 209.73 6.27 211.67
  Q 20.69 232.91 35.28 254.02
  A 1.09 0.64 63.6 0 0 36.06 254.53
  Z"
/>
<path fill="#000000" d="
  M 60.45 233.69
  L 85.19 233.75
  A 0.86 0.85 -4.3 0 1 86.04 234.47
  Q 86.63 238.11 84.25 238.10
  Q 72.25 238.00 61.01 238.00
  A 1.56 1.52 -89.8 0 0 59.49 239.55
  L 59.33 257.43
  A 1.56 1.52 -89.6 0 0 60.84 259.00
  Q 73.72 259.05 86.21 258.94
  C 88.58 258.92 89.80 257.98 89.43 261.73
  A 1.70 1.69 -87.0 0 1 87.75 263.25
  L 56.21 263.25
  A 1.71 1.71 1.9 0 1 54.50 261.54
  L 54.50 211.24
  A 0.99 0.99 -88.6 0 1 55.49 210.25
  L 87.43 210.31
  A 0.89 0.81 -12.8 0 1 88.19 210.74
  Q 89.13 212.48 88.05 214.10
  A 1.02 0.89 14.8 0 1 87.24 214.50
  L 60.83 214.50
  A 1.33 1.33 90.0 0 0 59.50 215.83
  L 59.50 232.74
  A 0.95 0.95 -0.3 0 0 60.45 233.69
  Z"
/>
<path fill="#000000" d="
  M 221.30 233.69
  L 246.25 233.75
  A 0.86 0.82 -13.1 0 1 247.00 234.19
  C 248.51 237.11 246.73 238.00 244.14 238.00
  Q 233.04 238.00 221.51 238.00
  A 0.95 0.94 0.0 0 0 220.56 238.94
  L 220.56 258.00
  A 0.99 0.99 0.0 0 0 221.55 258.99
  L 249.19 258.82
  A 0.88 0.83 -14.0 0 1 249.94 259.24
  Q 252.32 263.46 247.25 263.41
  Q 232.50 263.25 217.04 263.25
  A 1.49 1.48 -90.0 0 1 215.56 261.76
  L 215.56 211.30
  A 1.05 1.05 0.0 0 1 216.61 210.25
  Q 231.64 210.25 246.08 210.25
  C 248.78 210.25 249.75 209.75 249.43 213.00
  A 1.68 1.67 2.8 0 1 247.76 214.50
  L 221.74 214.56
  A 1.47 1.43 89.6 0 0 220.31 216.05
  L 220.50 232.87
  A 0.83 0.80 89.6 0 0 221.30 233.69
  Z"
/>
<path fill="#000000" d="
  M 476.28 236.52
  Q 476.35 238.06 477.49 237.01
  Q 490.99 224.49 504.44 211.94
  Q 507.39 209.18 511.72 210.53
  Q 512.21 210.68 511.82 211.03
  L 490.18 230.65
  A 1.83 1.80 -40.4 0 0 489.96 233.12
  L 513.24 262.31
  A 0.42 0.42 -24.6 0 1 512.99 262.98
  Q 507.80 263.93 505.66 261.05
  Q 496.30 248.45 486.76 235.87
  A 1.24 1.16 50.1 0 0 484.99 235.65
  L 476.64 243.44
  A 1.55 1.08 78.7 0 0 476.26 244.31
  Q 475.61 250.90 476.26 257.50
  Q 476.50 260.04 475.83 262.46
  A 0.90 0.88 89.5 0 1 475.22 263.09
  C 470.15 264.67 471.25 260.64 471.25 257.69
  Q 471.25 234.48 471.25 211.65
  A 1.36 1.36 -4.5 0 1 472.40 210.31
  C 477.51 209.49 476.09 212.30 476.04 215.26
  Q 475.83 226.20 476.28 236.52
  Z"
/>
<path fill="#000000" d="
  M 527.71 233.70
  L 551.53 233.75
  A 1.15 1.14 -1.9 0 1 552.68 234.82
  Q 552.92 238.17 550.50 238.14
  Q 538.50 238.00 526.85 238.00
  A 0.85 0.85 0.2 0 0 526.00 238.85
  L 526.00 257.99
  A 0.96 0.94 90.0 0 0 526.94 258.95
  L 554.13 258.83
  A 1.79 1.72 -4.1 0 1 555.89 260.30
  C 556.39 263.51 555.18 263.03 552.66 263.09
  Q 537.26 263.43 522.60 263.20
  A 1.63 1.62 -89.6 0 1 521.00 261.57
  L 521.00 211.53
  A 1.28 1.28 89.8 0 1 522.28 210.25
  C 532.25 210.25 542.50 210.74 552.24 210.09
  Q 556.25 209.82 554.52 213.85
  A 0.79 0.79 -79.0 0 1 553.81 214.33
  L 527.48 214.49
  A 1.65 1.63 -2.0 0 0 525.84 216.22
  Q 526.24 222.66 525.61 231.43
  Q 525.45 233.70 527.71 233.70
  Z"
/>
<path fill="#000000" d="
  M 582.56 215.45
  L 582.50 261.68
  A 1.33 1.32 -6.6 0 1 581.47 262.97
  C 577.49 263.88 577.75 263.04 577.75 259.59
  Q 577.79 237.46 577.69 215.57
  A 1.08 1.07 89.7 0 0 576.62 214.50
  L 562.64 214.50
  A 0.92 0.91 84.7 0 1 561.74 213.75
  Q 561.37 211.82 561.63 210.78
  A 0.72 0.64 6.8 0 1 562.31 210.31
  L 597.94 210.31
  A 0.89 0.81 -12.8 0 1 598.70 210.74
  Q 599.55 212.36 598.70 214.00
  A 0.89 0.81 12.5 0 1 597.93 214.44
  L 583.52 214.50
  A 0.96 0.95 0.0 0 0 582.56 215.45
  Z"
/>
</svg>
