<?xml version="1.0" encoding="UTF-8" standalone="no"?>
<!DOCTYPE svg PUBLIC "-//W3C//DTD SVG 1.1//EN" "http://www.w3.org/Graphics/SVG/1.1/DTD/svg11.dtd">
<svg xmlns="http://www.w3.org/2000/svg" version="1.1" viewBox="0 0 600 300">
<g stroke-width="2.00" fill="none" stroke-linecap="butt">
<path stroke="#4d000a" vector-effect="non-scaling-stroke" d="
  M 180.97 164.64
  C 163.94 173.32 141.12 173.06 124.04 164.75"
/>
<path stroke="#4d000a" vector-effect="non-scaling-stroke" d="
  M 103.18 165.15
  C 103.47 165.30 112.75 167.97 107.93 168.66
  C 95.29 170.46 81.88 169.63 70.02 164.71"
/>
<path stroke="#4d000a" vector-effect="non-scaling-stroke" d="
  M 29.04 166.25
  Q 29.33 168.00 27.94 167.94
  Q 25.02 167.81 24.05 168.16"
/>
<path stroke="#4d000a" vector-effect="non-scaling-stroke" d="
  M 313.19 164.64
  C 309.75 168.81 304.32 167.75 299.28 167.75
  A 1.59 1.02 62.2 0 1 298.25 167.17
  L 296.27 164.81"
/>
<path stroke="#4d000a" vector-effect="non-scaling-stroke" d="
  M 240.54 165.00
  Q 240.80 166.39 240.20 167.51
  A 0.92 0.73 10.7 0 1 239.43 167.91
  L 226.06 167.91
  A 0.91 0.73 -10.9 0 1 225.30 167.51
  Q 224.70 166.39 224.96 165.00"
/>
<path stroke="#4d000a" vector-effect="non-scaling-stroke" d="
  M 426.08 164.98
  Q 428.38 167.61 425.69 167.60
  Q 414.00 167.57 402.31 167.92
  A 0.96 0.67 -10.9 0 1 401.50 167.56
  L 400.00 164.96"
/>
<path stroke="#4d000a" vector-effect="non-scaling-stroke" d="
  M 340.71 164.75
  L 339.20 167.51
  A 0.92 0.73 10.7 0 1 338.43 167.91
  L 322.48 167.99
  Q 321.15 167.99 321.99 167.01
  Q 322.75 166.12 322.96 165.00"
/>
<path stroke="#4d000a" vector-effect="non-scaling-stroke" d="
  M 557.54 165.00
  L 557.55 167.45
  A 0.58 0.47 1.1 0 1 556.95 167.92
  C 550.38 167.72 542.74 167.14 536.27 167.98
  Q 533.70 168.31 534.00 164.96"
/>
<path stroke="#4d000a" vector-effect="non-scaling-stroke" d="
  M 496.14 164.61
  Q 495.76 166.26 494.54 167.58
  A 1.26 0.83 13.7 0 1 493.70 167.88
  L 488.07 167.88
  A 0.94 0.70 -10.7 0 1 487.31 167.51
  L 485.79 164.75"
/>
<path stroke="#4d000a" vector-effect="non-scaling-stroke" d="
  M 448.50 164.96
  Q 448.55 166.48 447.76 167.55
  A 1.15 0.82 12.1 0 1 446.93 167.91
  L 434.31 167.91
  A 0.66 0.58 -5.4 0 1 433.68 167.45
  Q 433.42 166.27 433.71 165.00"
/>
<path stroke="#4d000a" vector-effect="non-scaling-stroke" d="
  M 576.75 167.96
  Q 576.62 167.63 576.29 167.50"
/>
<path stroke="#808080" vector-effect="non-scaling-stroke" d="
  M 90.42 203.68
  L 77.30 203.56
  A 0.49 0.47 -1.7 0 0 76.81 204.06
  C 77.01 207.44 77.93 213.43 73.31 214.31
  C 69.87 214.97 62.56 215.61 61.58 211.33
  Q 61.50 210.99 61.50 206.66
  Q 61.50 195.97 61.50 185.42
  Q 61.50 182.53 64.30 181.82
  C 69.01 180.61 78.30 180.02 76.65 187.99
  Q 76.17 190.32 78.53 190.11
  Q 83.22 189.72 89.92 190.36
  A 1.19 1.19 -85.3 0 0 91.22 189.25
  Q 91.92 179.02 83.69 176.06
  C 75.56 173.14 52.10 171.68 47.18 181.55
  C 45.00 185.92 46.25 199.05 46.25 204.39
  Q 46.25 211.70 46.32 212.10
  C 48.73 225.12 78.01 223.44 86.63 218.09
  C 92.03 214.74 91.25 209.99 91.25 204.50
  A 0.84 0.82 0.4 0 0 90.42 203.68"
/>
<path stroke="#808080" vector-effect="non-scaling-stroke" d="
  M 135.81 213.45
  L 135.75 174.91
  A 0.89 0.85 89.7 0 0 134.89 174.02
  L 120.94 174.16
  A 0.54 0.52 -90.0 0 0 120.43 174.69
  L 120.25 220.31
  A 0.93 0.93 -0.3 0 0 121.19 221.24
  L 159.81 221.06
  A 0.56 0.49 0.0 0 0 160.37 220.57
  L 160.38 214.69
  A 0.57 0.51 0.0 0 0 159.81 214.18
  L 136.31 213.94
  A 0.51 0.49 0.6 0 1 135.81 213.45"
/>
<path stroke="#808080" vector-effect="non-scaling-stroke" d="
  M 216.00 212.43
  Q 217.74 215.51 218.31 219.43
  Q 218.58 221.25 220.42 221.25
  L 233.76 221.25
  A 0.54 0.54 81.2 0 0 234.27 220.55
  L 219.31 174.68
  A 0.96 0.92 80.2 0 0 218.41 174.02
  L 197.19 174.17
  A 0.72 0.68 -80.7 0 0 196.53 174.67
  L 181.47 220.46
  A 0.39 0.37 -80.7 0 0 181.81 220.97
  L 194.76 221.02
  A 0.70 0.68 8.8 0 0 195.44 220.54
  L 197.77 212.76
  A 1.02 0.91 -79.4 0 1 198.72 212.03
  Q 207.21 212.56 215.25 212.03
  A 0.82 0.78 -15.8 0 1 216.00 212.43"
/>
<path stroke="#808080" vector-effect="non-scaling-stroke" d="
  M 257.94 180.69
  C 248.41 195.74 280.72 200.06 285.29 208.52
  C 288.80 215.01 278.85 214.82 275.00 214.50
  Q 270.14 214.10 270.56 208.47
  A 1.34 1.31 -88.0 0 0 269.25 207.04
  L 256.81 207.05
  A 0.60 0.58 -85.4 0 0 256.23 207.56
  C 254.47 218.60 265.22 221.25 273.50 221.75
  C 281.79 222.25 300.82 222.73 301.05 210.48
  C 301.31 196.99 266.57 193.17 272.24 183.73
  C 274.58 179.83 287.34 179.39 286.47 187.04
  A 0.92 0.91 3.3 0 0 287.39 188.06
  L 300.31 188.05
  A 0.57 0.54 2.8 0 0 300.87 187.57
  C 302.24 175.11 287.03 174.09 278.58 173.95
  C 272.36 173.85 261.75 174.66 257.94 180.69"
/>
<path stroke="#808080" vector-effect="non-scaling-stroke" d="
  M 332.56 176.43
  C 325.01 179.10 322.86 187.60 329.19 193.06
  C 335.39 198.42 344.53 200.52 351.60 205.61
  C 356.42 209.07 355.99 213.96 349.53 214.67
  Q 346.01 215.05 342.49 214.25
  Q 339.91 213.66 339.67 210.99
  L 339.36 207.68
  A 0.56 0.56 88.3 0 0 338.81 207.16
  L 325.95 207.02
  A 0.61 0.58 -86.1 0 0 325.37 207.55
  Q 324.49 214.42 329.06 217.94
  C 336.43 223.61 370.86 225.51 370.11 210.11
  C 369.60 199.79 350.80 195.49 343.76 190.30
  C 331.76 181.45 357.07 176.08 355.64 187.45
  A 0.44 0.42 -86.4 0 0 356.06 187.94
  L 369.31 188.06
  A 0.57 0.57 3.4 0 0 369.88 187.56
  C 371.32 175.19 355.96 174.06 347.63 173.94
  Q 339.93 173.83 332.56 176.43"
/>
<path stroke="#808080" vector-effect="non-scaling-stroke" d="
  M 411.8306 174.5470
  A 0.51 0.51 0.0 0 0 411.3224 174.0352
  L 396.9625 173.9851
  A 0.51 0.51 0.0 0 0 396.4507 174.4933
  L 396.2894 220.6930
  A 0.51 0.51 0.0 0 0 396.7976 221.2048
  L 411.1575 221.2549
  A 0.51 0.51 0.0 0 0 411.6693 220.7467
  L 411.8306 174.5470"
/>
<path stroke="#808080" vector-effect="non-scaling-stroke" d="
  M 441.07 180.13
  C 437.86 184.79 439.25 196.23 439.25 201.96
  Q 439.25 211.56 439.34 212.03
  C 441.90 225.06 470.08 223.04 477.89 219.14
  C 484.69 215.75 484.46 211.12 484.21 204.37
  A 1.04 0.98 -1.7 0 0 483.15 203.43
  L 470.34 203.67
  A 0.53 0.50 -2.1 0 0 469.82 204.20
  Q 470.02 207.40 469.71 210.75
  C 469.21 216.13 459.68 215.22 456.15 213.59
  Q 454.50 212.83 454.50 211.01
  Q 454.50 198.63 454.30 186.25
  C 454.23 181.74 459.02 181.04 462.46 181.20
  C 467.27 181.44 470.68 182.11 469.69 188.12
  Q 469.37 190.09 471.30 190.09
  L 483.56 190.08
  A 0.62 0.60 -84.8 0 0 484.15 189.57
  Q 485.96 179.20 476.50 176.00
  C 467.50 172.96 451.64 172.79 443.59 177.74
  Q 442.08 178.67 441.07 180.13"
/>
<path stroke="#808080" vector-effect="non-scaling-stroke" d="
  M 521.28 175.38
  C 513.82 177.09 508.18 184.07 513.44 191.31
  Q 516.12 195.00 522.80 197.96
  C 526.63 199.65 544.08 206.15 540.37 212.36
  C 538.42 215.60 531.37 215.01 528.45 214.06
  C 525.40 213.07 525.29 211.18 525.60 208.34
  A 1.17 1.12 -87.0 0 0 524.48 207.04
  L 511.68 207.16
  A 0.59 0.57 -87.1 0 0 511.12 207.68
  Q 510.07 216.01 517.06 219.19
  C 525.60 223.07 549.21 224.67 555.03 214.44
  C 561.03 203.87 542.23 196.36 535.33 193.64
  C 532.19 192.40 527.30 189.54 526.73 185.84
  C 525.83 180.03 542.79 178.23 541.64 187.44
  A 0.45 0.43 -86.4 0 0 542.06 187.94
  L 555.31 188.06
  A 0.57 0.57 3.4 0 0 555.88 187.56
  C 557.80 171.35 530.42 173.28 521.28 175.38"
/>
<path stroke="#808080" vector-effect="non-scaling-stroke" d="
  M 200.17 205.60
  A 0.31 0.31 -81.7 0 0 200.46 206.00
  L 213.82 206.00
  A 0.31 0.31 81.4 0 0 214.11 205.60
  L 207.44 183.84
  A 0.31 0.31 44.0 0 0 206.84 183.84
  L 200.17 205.60"
/>
</g>
<path fill="#990014" d="
  M 180.97 164.64
  C 163.94 173.32 141.12 173.06 124.04 164.75
  C 94.92 149.09 88.23 110.22 111.44 86.44
  C 132.48 64.88 173.33 64.32 194.53 86.31
  C 217.77 110.41 209.79 149.05 180.97 164.64
  Z
  M 179.80 101.87
  C 169.21 70.66 132.83 73.20 125.11 104.83
  C 121.32 120.39 122.19 139.57 132.81 152.19
  C 145.71 167.51 169.08 163.27 177.19 145.44
  C 183.19 132.24 184.30 115.15 179.80 101.87
  Z"
/>
<path fill="#990014" d="
  M 103.18 165.15
  C 103.47 165.30 112.75 167.97 107.93 168.66
  C 95.29 170.46 81.88 169.63 70.02 164.71
  Q 63.36 161.01 58.48 155.53
  Q 43.50 138.70 29.18 121.30
  Q 28.81 120.85 28.81 121.43
  L 29.04 166.25
  Q 29.33 168.00 27.94 167.94
  Q 25.02 167.81 24.05 168.16
  L 6.53 167.81
  A 0.54 0.52 0.6 0 1 6.00 167.29
  Q 6.00 125.85 6.00 84.91
  C 6.00 79.59 4.87 76.47 0.00 74.44
  L 0.00 73.69
  Q 9.62 73.37 19.25 73.50
  C 25.15 73.58 28.92 75.47 28.94 81.75
  Q 28.99 98.62 29.00 115.50
  Q 29.00 115.99 29.35 115.65
  L 71.59 74.06
  A 2.05 1.88 20.8 0 1 72.99 73.50
  L 94.66 73.43
  Q 95.79 73.42 94.97 74.20
  L 52.87 114.15
  A 0.55 0.54 -41.4 0 0 52.82 114.89
  Q 68.15 133.51 87.06 154.19
  Q 94.00 161.77 103.18 165.15
  Z"
/>
<path fill="#990014" d="
  M 313.19 164.64
  C 309.75 168.81 304.32 167.75 299.28 167.75
  A 1.59 1.02 62.2 0 1 298.25 167.17
  L 296.27 164.81
  Q 273.78 138.50 251.34 112.41
  Q 245.88 106.07 240.93 99.30
  Q 240.31 98.46 240.32 99.50
  L 240.54 165.00
  Q 240.80 166.39 240.20 167.51
  A 0.92 0.73 10.7 0 1 239.43 167.91
  L 226.06 167.91
  A 0.91 0.73 -10.9 0 1 225.30 167.51
  Q 224.70 166.39 224.96 165.00
  Q 225.21 123.88 224.78 82.75
  C 224.73 78.67 223.05 76.44 219.53 74.88
  A 1.10 0.56 16.9 0 1 218.86 74.24
  Q 218.82 74.00 218.96 73.79
  A 0.91 0.58 9.8 0 1 219.66 73.50
  Q 230.45 73.50 241.25 73.47
  Q 247.14 73.45 250.97 77.77
  Q 274.25 104.03 298.91 133.14
  Q 299.43 133.76 299.43 132.94
  L 299.26 74.28
  A 0.78 0.77 -0.4 0 1 300.04 73.50
  L 313.89 73.50
  A 0.80 0.79 -89.6 0 1 314.68 74.31
  Q 314.20 107.78 314.74 141.50
  C 314.82 146.80 315.86 160.40 313.19 164.64
  Z"
/>
<path fill="#990014" d="
  M 426.08 164.98
  Q 428.38 167.61 425.69 167.60
  Q 414.00 167.57 402.31 167.92
  A 0.96 0.67 -10.9 0 1 401.50 167.56
  L 400.00 164.96
  L 391.90 146.48
  A 0.96 0.91 -11.2 0 0 391.03 145.93
  L 349.78 146.00
  A 0.90 0.86 11.7 0 0 348.97 146.51
  L 340.71 164.75
  L 339.20 167.51
  A 0.92 0.73 10.7 0 1 338.43 167.91
  L 322.48 167.99
  Q 321.15 167.99 321.99 167.01
  Q 322.75 166.12 322.96 165.00
  Q 341.70 125.01 360.35 84.98
  C 362.22 80.97 362.85 77.47 359.09 74.68
  Q 357.51 73.50 359.48 73.50
  Q 367.37 73.50 375.25 73.50
  C 381.26 73.50 384.35 74.89 386.81 80.19
  Q 406.53 122.55 426.08 164.98
  Z
  M 385.90 134.56
  A 0.48 0.48 78.3 0 0 386.34 133.89
  L 371.09 98.90
  Q 370.78 98.19 370.46 98.90
  L 354.57 133.99
  A 0.49 0.49 11.9 0 0 355.02 134.68
  L 385.90 134.56
  Z"
/>
<path fill="#990014" d="
  M 557.54 165.00
  L 557.55 167.45
  A 0.58 0.47 1.1 0 1 556.95 167.92
  C 550.38 167.72 542.74 167.14 536.27 167.98
  Q 533.70 168.31 534.00 164.96
  L 523.81 100.01
  Q 523.65 99.01 523.26 99.94
  L 496.14 164.61
  Q 495.76 166.26 494.54 167.58
  A 1.26 0.83 13.7 0 1 493.70 167.88
  L 488.07 167.88
  A 0.94 0.70 -10.7 0 1 487.31 167.51
  L 485.79 164.75
  L 459.02 101.34
  Q 458.44 99.96 458.22 101.44
  L 448.50 164.96
  Q 448.55 166.48 447.76 167.55
  A 1.15 0.82 12.1 0 1 446.93 167.91
  L 434.31 167.91
  A 0.66 0.58 -5.4 0 1 433.68 167.45
  Q 433.42 166.27 433.71 165.00
  Q 440.67 123.91 447.26 82.75
  Q 448.11 77.46 443.68 75.06
  C 442.65 74.50 442.12 73.39 444.00 73.41
  Q 452.81 73.48 461.62 73.50
  C 469.62 73.51 471.65 76.23 474.47 82.90
  Q 484.90 107.52 495.55 132.04
  Q 495.75 132.49 495.94 132.03
  L 520.78 74.17
  A 1.13 1.09 11.0 0 1 521.81 73.50
  C 531.91 73.50 541.99 70.72 544.19 84.21
  Q 550.80 124.62 557.54 165.00
  Z"
/>
<path fill="#990014" d="
  M 600.00 80.06
  L 600.00 167.60
  L 576.75 167.96
  Q 576.62 167.63 576.29 167.50
  Q 576.22 125.63 576.25 83.75
  Q 576.25 77.64 571.42 75.28
  C 570.65 74.91 568.42 73.60 571.50 73.58
  Q 581.11 73.51 590.73 73.50
  C 595.78 73.50 598.97 75.05 600.00 80.06
  Z"
/>
<path fill="#000000" d="
  M 70.02 164.71
  C 81.88 169.63 95.29 170.46 107.93 168.66
  C 112.75 167.97 103.47 165.30 103.18 165.15
  L 124.04 164.75
  C 141.12 173.06 163.94 173.32 180.97 164.64
  L 224.96 165.00
  Q 224.70 166.39 225.30 167.51
  A 0.91 0.73 -10.9 0 0 226.06 167.91
  L 239.43 167.91
  A 0.92 0.73 10.7 0 0 240.20 167.51
  Q 240.80 166.39 240.54 165.00
  L 296.27 164.81
  L 298.25 167.17
  A 1.59 1.02 62.2 0 0 299.28 167.75
  C 304.32 167.75 309.75 168.81 313.19 164.64
  L 322.96 165.00
  Q 322.75 166.12 321.99 167.01
  Q 321.15 167.99 322.48 167.99
  L 338.43 167.91
  A 0.92 0.73 10.7 0 0 339.20 167.51
  L 340.71 164.75
  L 400.00 164.96
  L 401.50 167.56
  A 0.96 0.67 -10.9 0 0 402.31 167.92
  Q 414.00 167.57 425.69 167.60
  Q 428.38 167.61 426.08 164.98
  L 433.71 165.00
  Q 433.42 166.27 433.68 167.45
  A 0.66 0.58 -5.4 0 0 434.31 167.91
  L 446.93 167.91
  A 1.15 0.82 12.1 0 0 447.76 167.55
  Q 448.55 166.48 448.50 164.96
  L 485.79 164.75
  L 487.31 167.51
  A 0.94 0.70 -10.7 0 0 488.07 167.88
  L 493.70 167.88
  A 1.26 0.83 13.7 0 0 494.54 167.58
  Q 495.76 166.26 496.14 164.61
  Q 515.14 165.33 534.00 164.96
  Q 533.70 168.31 536.27 167.98
  C 542.74 167.14 550.38 167.72 556.95 167.92
  A 0.58 0.47 1.1 0 0 557.55 167.45
  L 557.54 165.00
  Q 567.01 164.26 574.94 167.56
  Q 575.80 167.92 576.29 167.50
  Q 576.62 167.63 576.75 167.96
  Q 576.36 168.67 577.01 168.76
  Q 577.68 168.85 577.94 168.99
  C 605.93 184.40 597.63 224.78 566.50 229.75
  Q 563.45 230.24 552.75 230.23
  Q 299.07 230.00 45.40 230.00
  Q 34.34 230.00 29.23 228.54
  C 11.66 223.52 1.36 203.88 8.13 186.16
  Q 12.59 174.46 24.05 168.16
  Q 25.02 167.81 27.94 167.94
  Q 29.33 168.00 29.04 166.25
  C 41.92 163.64 56.77 165.12 70.02 164.71
  Z
  M 90.42 203.68
  L 77.30 203.56
  A 0.49 0.47 -1.7 0 0 76.81 204.06
  C 77.01 207.44 77.93 213.43 73.31 214.31
  C 69.87 214.97 62.56 215.61 61.58 211.33
  Q 61.50 210.99 61.50 206.66
  Q 61.50 195.97 61.50 185.42
  Q 61.50 182.53 64.30 181.82
  C 69.01 180.61 78.30 180.02 76.65 187.99
  Q 76.17 190.32 78.53 190.11
  Q 83.22 189.72 89.92 190.36
  A 1.19 1.19 -85.3 0 0 91.22 189.25
  Q 91.92 179.02 83.69 176.06
  C 75.56 173.14 52.10 171.68 47.18 181.55
  C 45.00 185.92 46.25 199.05 46.25 204.39
  Q 46.25 211.70 46.32 212.10
  C 48.73 225.12 78.01 223.44 86.63 218.09
  C 92.03 214.74 91.25 209.99 91.25 204.50
  A 0.84 0.82 0.4 0 0 90.42 203.68
  Z
  M 135.81 213.45
  L 135.75 174.91
  A 0.89 0.85 89.7 0 0 134.89 174.02
  L 120.94 174.16
  A 0.54 0.52 -90.0 0 0 120.43 174.69
  L 120.25 220.31
  A 0.93 0.93 -0.3 0 0 121.19 221.24
  L 159.81 221.06
  A 0.56 0.49 0.0 0 0 160.37 220.57
  L 160.38 214.69
  A 0.57 0.51 0.0 0 0 159.81 214.18
  L 136.31 213.94
  A 0.51 0.49 0.6 0 1 135.81 213.45
  Z
  M 216.00 212.43
  Q 217.74 215.51 218.31 219.43
  Q 218.58 221.25 220.42 221.25
  L 233.76 221.25
  A 0.54 0.54 81.2 0 0 234.27 220.55
  L 219.31 174.68
  A 0.96 0.92 80.2 0 0 218.41 174.02
  L 197.19 174.17
  A 0.72 0.68 -80.7 0 0 196.53 174.67
  L 181.47 220.46
  A 0.39 0.37 -80.7 0 0 181.81 220.97
  L 194.76 221.02
  A 0.70 0.68 8.8 0 0 195.44 220.54
  L 197.77 212.76
  A 1.02 0.91 -79.4 0 1 198.72 212.03
  Q 207.21 212.56 215.25 212.03
  A 0.82 0.78 -15.8 0 1 216.00 212.43
  Z
  M 257.94 180.69
  C 248.41 195.74 280.72 200.06 285.29 208.52
  C 288.80 215.01 278.85 214.82 275.00 214.50
  Q 270.14 214.10 270.56 208.47
  A 1.34 1.31 -88.0 0 0 269.25 207.04
  L 256.81 207.05
  A 0.60 0.58 -85.4 0 0 256.23 207.56
  C 254.47 218.60 265.22 221.25 273.50 221.75
  C 281.79 222.25 300.82 222.73 301.05 210.48
  C 301.31 196.99 266.57 193.17 272.24 183.73
  C 274.58 179.83 287.34 179.39 286.47 187.04
  A 0.92 0.91 3.3 0 0 287.39 188.06
  L 300.31 188.05
  A 0.57 0.54 2.8 0 0 300.87 187.57
  C 302.24 175.11 287.03 174.09 278.58 173.95
  C 272.36 173.85 261.75 174.66 257.94 180.69
  Z
  M 332.56 176.43
  C 325.01 179.10 322.86 187.60 329.19 193.06
  C 335.39 198.42 344.53 200.52 351.60 205.61
  C 356.42 209.07 355.99 213.96 349.53 214.67
  Q 346.01 215.05 342.49 214.25
  Q 339.91 213.66 339.67 210.99
  L 339.36 207.68
  A 0.56 0.56 88.3 0 0 338.81 207.16
  L 325.95 207.02
  A 0.61 0.58 -86.1 0 0 325.37 207.55
  Q 324.49 214.42 329.06 217.94
  C 336.43 223.61 370.86 225.51 370.11 210.11
  C 369.60 199.79 350.80 195.49 343.76 190.30
  C 331.76 181.45 357.07 176.08 355.64 187.45
  A 0.44 0.42 -86.4 0 0 356.06 187.94
  L 369.31 188.06
  A 0.57 0.57 3.4 0 0 369.88 187.56
  C 371.32 175.19 355.96 174.06 347.63 173.94
  Q 339.93 173.83 332.56 176.43
  Z
  M 411.8306 174.5470
  A 0.51 0.51 0.0 0 0 411.3224 174.0352
  L 396.9625 173.9851
  A 0.51 0.51 0.0 0 0 396.4507 174.4933
  L 396.2894 220.6930
  A 0.51 0.51 0.0 0 0 396.7976 221.2048
  L 411.1575 221.2549
  A 0.51 0.51 0.0 0 0 411.6693 220.7467
  L 411.8306 174.5470
  Z
  M 441.07 180.13
  C 437.86 184.79 439.25 196.23 439.25 201.96
  Q 439.25 211.56 439.34 212.03
  C 441.90 225.06 470.08 223.04 477.89 219.14
  C 484.69 215.75 484.46 211.12 484.21 204.37
  A 1.04 0.98 -1.7 0 0 483.15 203.43
  L 470.34 203.67
  A 0.53 0.50 -2.1 0 0 469.82 204.20
  Q 470.02 207.40 469.71 210.75
  C 469.21 216.13 459.68 215.22 456.15 213.59
  Q 454.50 212.83 454.50 211.01
  Q 454.50 198.63 454.30 186.25
  C 454.23 181.74 459.02 181.04 462.46 181.20
  C 467.27 181.44 470.68 182.11 469.69 188.12
  Q 469.37 190.09 471.30 190.09
  L 483.56 190.08
  A 0.62 0.60 -84.8 0 0 484.15 189.57
  Q 485.96 179.20 476.50 176.00
  C 467.50 172.96 451.64 172.79 443.59 177.74
  Q 442.08 178.67 441.07 180.13
  Z
  M 521.28 175.38
  C 513.82 177.09 508.18 184.07 513.44 191.31
  Q 516.12 195.00 522.80 197.96
  C 526.63 199.65 544.08 206.15 540.37 212.36
  C 538.42 215.60 531.37 215.01 528.45 214.06
  C 525.40 213.07 525.29 211.18 525.60 208.34
  A 1.17 1.12 -87.0 0 0 524.48 207.04
  L 511.68 207.16
  A 0.59 0.57 -87.1 0 0 511.12 207.68
  Q 510.07 216.01 517.06 219.19
  C 525.60 223.07 549.21 224.67 555.03 214.44
  C 561.03 203.87 542.23 196.36 535.33 193.64
  C 532.19 192.40 527.30 189.54 526.73 185.84
  C 525.83 180.03 542.79 178.23 541.64 187.44
  A 0.45 0.43 -86.4 0 0 542.06 187.94
  L 555.31 188.06
  A 0.57 0.57 3.4 0 0 555.88 187.56
  C 557.80 171.35 530.42 173.28 521.28 175.38
  Z"
/>
<path fill="#ffffff" d="
  M 90.42 203.68
  A 0.84 0.82 0.4 0 1 91.25 204.50
  C 91.25 209.99 92.03 214.74 86.63 218.09
  C 78.01 223.44 48.73 225.12 46.32 212.10
  Q 46.25 211.70 46.25 204.39
  C 46.25 199.05 45.00 185.92 47.18 181.55
  C 52.10 171.68 75.56 173.14 83.69 176.06
  Q 91.92 179.02 91.22 189.25
  A 1.19 1.19 -85.3 0 1 89.92 190.36
  Q 83.22 189.72 78.53 190.11
  Q 76.17 190.32 76.65 187.99
  C 78.30 180.02 69.01 180.61 64.30 181.82
  Q 61.50 182.53 61.50 185.42
  Q 61.50 195.97 61.50 206.66
  Q 61.50 210.99 61.58 211.33
  C 62.56 215.61 69.87 214.97 73.31 214.31
  C 77.93 213.43 77.01 207.44 76.81 204.06
  A 0.49 0.47 -1.7 0 1 77.30 203.56
  L 90.42 203.68
  Z"
/>
<path fill="#ffffff" d="
  M 136.31 213.94
  L 159.81 214.18
  A 0.57 0.51 -0.0 0 1 160.38 214.69
  L 160.37 220.57
  A 0.56 0.49 -0.0 0 1 159.81 221.06
  L 121.19 221.24
  A 0.93 0.93 -0.3 0 1 120.25 220.31
  L 120.43 174.69
  A 0.54 0.52 -90.0 0 1 120.94 174.16
  L 134.89 174.02
  A 0.89 0.85 89.7 0 1 135.75 174.91
  L 135.81 213.45
  A 0.51 0.49 0.6 0 0 136.31 213.94
  Z"
/>
<path fill="#ffffff" d="
  M 215.25 212.03
  Q 207.21 212.56 198.72 212.03
  A 1.02 0.91 -79.4 0 0 197.77 212.76
  L 195.44 220.54
  A 0.70 0.68 8.8 0 1 194.76 221.02
  L 181.81 220.97
  A 0.39 0.37 -80.7 0 1 181.47 220.46
  L 196.53 174.67
  A 0.72 0.68 -80.7 0 1 197.19 174.17
  L 218.41 174.02
  A 0.96 0.92 80.2 0 1 219.31 174.68
  L 234.27 220.55
  A 0.54 0.54 81.2 0 1 233.76 221.25
  L 220.42 221.25
  Q 218.58 221.25 218.31 219.43
  Q 217.74 215.51 216.00 212.43
  A 0.82 0.78 -15.8 0 0 215.25 212.03
  Z
  M 200.17 205.60
  A 0.31 0.31 -81.7 0 0 200.46 206.00
  L 213.82 206.00
  A 0.31 0.31 81.4 0 0 214.11 205.60
  L 207.44 183.84
  A 0.31 0.31 44.0 0 0 206.84 183.84
  L 200.17 205.60
  Z"
/>
<path fill="#ffffff" d="
  M 257.94 180.69
  C 261.75 174.66 272.36 173.85 278.58 173.95
  C 287.03 174.09 302.24 175.11 300.87 187.57
  A 0.57 0.54 2.8 0 1 300.31 188.05
  L 287.39 188.06
  A 0.92 0.91 3.3 0 1 286.47 187.04
  C 287.34 179.39 274.58 179.83 272.24 183.73
  C 266.57 193.17 301.31 196.99 301.05 210.48
  C 300.82 222.73 281.79 222.25 273.50 221.75
  C 265.22 221.25 254.47 218.60 256.23 207.56
  A 0.60 0.58 -85.4 0 1 256.81 207.05
  L 269.25 207.04
  A 1.34 1.31 -88.0 0 1 270.56 208.47
  Q 270.14 214.10 275.00 214.50
  C 278.85 214.82 288.80 215.01 285.29 208.52
  C 280.72 200.06 248.41 195.74 257.94 180.69
  Z"
/>
<path fill="#ffffff" d="
  M 329.19 193.06
  C 322.86 187.60 325.01 179.10 332.56 176.43
  Q 339.93 173.83 347.63 173.94
  C 355.96 174.06 371.32 175.19 369.88 187.56
  A 0.57 0.57 3.4 0 1 369.31 188.06
  L 356.06 187.94
  A 0.44 0.42 -86.4 0 1 355.64 187.45
  C 357.07 176.08 331.76 181.45 343.76 190.30
  C 350.80 195.49 369.60 199.79 370.11 210.11
  C 370.86 225.51 336.43 223.61 329.06 217.94
  Q 324.49 214.42 325.37 207.55
  A 0.61 0.58 -86.1 0 1 325.95 207.02
  L 338.81 207.16
  A 0.56 0.56 88.3 0 1 339.36 207.68
  L 339.67 210.99
  Q 339.91 213.66 342.49 214.25
  Q 346.01 215.05 349.53 214.67
  C 355.99 213.96 356.42 209.07 351.60 205.61
  C 344.53 200.52 335.39 198.42 329.19 193.06
  Z"
/>
<rect fill="#ffffff" x="-7.69" y="-23.61" transform="translate(404.06,197.62) rotate(0.2)" width="15.38" height="47.22" rx="0.51"/>
<path fill="#ffffff" d="
  M 441.07 180.13
  Q 442.08 178.67 443.59 177.74
  C 451.64 172.79 467.50 172.96 476.50 176.00
  Q 485.96 179.20 484.15 189.57
  A 0.62 0.60 -84.8 0 1 483.56 190.08
  L 471.30 190.09
  Q 469.37 190.09 469.69 188.12
  C 470.68 182.11 467.27 181.44 462.46 181.20
  C 459.02 181.04 454.23 181.74 454.30 186.25
  Q 454.50 198.63 454.50 211.01
  Q 454.50 212.83 456.15 213.59
  C 459.68 215.22 469.21 216.13 469.71 210.75
  Q 470.02 207.40 469.82 204.20
  A 0.53 0.50 -2.1 0 1 470.34 203.67
  L 483.15 203.43
  A 1.04 0.98 -1.7 0 1 484.21 204.37
  C 484.46 211.12 484.69 215.75 477.89 219.14
  C 470.08 223.04 441.90 225.06 439.34 212.03
  Q 439.25 211.56 439.25 201.96
  C 439.25 196.23 437.86 184.79 441.07 180.13
  Z"
/>
<path fill="#ffffff" d="
  M 513.44 191.31
  C 508.18 184.07 513.82 177.09 521.28 175.38
  C 530.42 173.28 557.80 171.35 555.88 187.56
  A 0.57 0.57 3.4 0 1 555.31 188.06
  L 542.06 187.94
  A 0.45 0.43 -86.4 0 1 541.64 187.44
  C 542.79 178.23 525.83 180.03 526.73 185.84
  C 527.30 189.54 532.19 192.40 535.33 193.64
  C 542.23 196.36 561.03 203.87 555.03 214.44
  C 549.21 224.67 525.60 223.07 517.06 219.19
  Q 510.07 216.01 511.12 207.68
  A 0.59 0.57 -87.1 0 1 511.68 207.16
  L 524.48 207.04
  A 1.17 1.12 -87.0 0 1 525.60 208.34
  C 525.29 211.18 525.40 213.07 528.45 214.06
  C 531.37 215.01 538.42 215.60 540.37 212.36
  C 544.08 206.15 526.63 199.65 522.80 197.96
  Q 516.12 195.00 513.44 191.31
  Z"
/>
<path fill="#000000" d="
  M 200.17 205.60
  L 206.84 183.84
  A 0.31 0.31 49.1 0 1 207.44 183.84
  L 214.11 205.60
  A 0.31 0.31 80.7 0 1 213.82 206.00
  L 200.46 206.00
  A 0.31 0.31 -81.2 0 1 200.17 205.60
  Z"
/>
</svg>
