<?xml version="1.0" encoding="UTF-8" standalone="no"?>
<!DOCTYPE svg PUBLIC "-//W3C//DTD SVG 1.1//EN" "http://www.w3.org/Graphics/SVG/1.1/DTD/svg11.dtd">
<svg xmlns="http://www.w3.org/2000/svg" version="1.1" viewBox="0 0 600 300">
<g stroke-width="2.00" fill="none" stroke-linecap="butt">
<path stroke="#2d5b9a" vector-effect="non-scaling-stroke" d="
  M 255.71 113.00
  L 255.25 113.54"
/>
<path stroke="#2d5b9a" vector-effect="non-scaling-stroke" d="
  M 252.25 113.54
  Q 252.02 113.48 251.96 113.25"
/>
<path stroke="#2d5b9a" vector-effect="non-scaling-stroke" d="
  M 240.46 183.50
  Q 240.15 183.75 239.75 183.79"
/>
<path stroke="#2d5b9a" vector-effect="non-scaling-stroke" d="
  M 244.25 184.21
  Q 244.10 183.91 243.75 183.96"
/>
</g>
<path fill="#2d5b9a" d="
  M 255.71 113.00
  L 255.25 113.54
  Q 253.72 112.99 252.25 113.54
  Q 252.02 113.48 251.96 113.25
  Q 253.98 104.19 254.06 101.56
  Q 254.13 99.57 257.22 100.20
  A 0.67 0.65 -79.7 0 1 257.73 100.97
  L 255.71 113.00
  Z"
/>
<path fill="#2d5b9a" d="
  M 522.73 172.67
  Q 522.90 173.65 523.53 172.88
  L 544.51 147.30
  A 1.26 1.24 50.9 0 0 544.64 145.94
  L 529.67 117.39
  A 0.32 0.32 -14.3 0 1 529.95 116.92
  L 554.93 116.76
  A 1.27 1.27 -14.1 0 1 556.07 117.44
  L 560.55 126.14
  A 0.74 0.73 -39.0 0 0 561.78 126.26
  L 569.23 117.18
  A 1.12 1.02 18.2 0 1 570.06 116.81
  L 599.13 116.75
  Q 600.11 116.75 599.48 117.51
  L 573.42 148.87
  A 1.18 1.15 51.4 0 0 573.29 150.18
  L 589.96 181.74
  A 0.31 0.30 75.7 0 1 589.70 182.19
  L 564.35 182.25
  A 0.92 0.91 75.9 0 1 563.54 181.76
  L 557.09 169.44
  A 0.37 0.37 51.1 0 0 556.48 169.37
  L 546.01 181.80
  A 1.11 1.05 -68.9 0 1 545.19 182.19
  L 502.06 182.19
  A 0.62 0.55 -3.1 0 1 501.45 181.71
  L 500.50 173.67
  A 1.03 0.91 86.5 0 0 499.58 172.75
  L 484.76 172.75
  A 1.26 1.17 -78.1 0 0 483.65 173.53
  L 480.34 181.62
  A 1.09 1.01 10.4 0 1 479.35 182.25
  L 434.22 182.25
  A 0.76 0.75 1.1 0 1 433.46 181.47
  L 434.75 147.98
  Q 434.84 145.74 433.85 147.76
  L 417.28 181.63
  A 0.82 0.82 -77.5 0 1 416.56 182.09
  L 402.13 182.23
  A 0.95 0.93 85.4 0 1 401.20 181.42
  L 396.19 149.04
  Q 395.84 146.81 395.25 148.99
  L 386.45 181.58
  A 0.68 0.67 6.8 0 1 385.81 182.08
  L 359.90 182.24
  A 0.70 0.69 -82.4 0 1 359.23 181.35
  L 381.06 104.16
  A 0.68 0.66 6.8 0 1 381.70 103.67
  L 409.38 103.51
  A 0.80 0.78 84.9 0 1 410.16 104.18
  L 415.28 137.18
  Q 415.61 139.34 416.57 137.38
  L 432.84 104.13
  A 1.16 1.13 12.7 0 1 433.87 103.50
  L 461.71 103.50
  A 0.56 0.55 1.5 0 1 462.27 104.08
  L 459.75 170.02
  Q 459.68 171.96 460.54 170.22
  L 486.73 117.60
  A 1.55 1.52 13.0 0 1 488.11 116.75
  L 512.66 116.81
  A 0.87 0.87 -4.7 0 1 513.52 117.54
  L 522.73 172.67
  Z
  M 496.47 142.29
  L 490.50 156.73
  A 0.74 0.72 -78.5 0 0 491.15 157.75
  L 498.45 157.75
  A 0.58 0.56 87.2 0 0 499.01 157.12
  L 497.75 142.48
  Q 497.51 139.77 496.47 142.29
  Z"
/>
<path fill="#2d5b9a" d="
  M 18.25 147.25
  Q 18.26 146.70 18.75 145.75
  Q 28.94 125.91 38.99 106.02
  A 1.41 1.38 -76.3 0 1 40.23 105.25
  L 69.94 105.31
  A 0.59 0.57 -3.9 0 1 70.52 105.80
  L 76.50 146.56
  A 0.45 0.44 86.1 0 1 76.06 147.07
  L 18.25 147.25
  Z"
/>
<path fill="#2d5b9a" d="
  M 255.71 113.00
  Q 255.70 113.18 255.77 113.32
  A 0.65 0.42 -0.5 0 0 256.23 113.61
  C 272.94 116.19 284.21 129.62 283.73 146.65
  A 0.61 0.60 -88.6 0 1 283.12 147.24
  L 250.44 147.07
  A 0.44 0.43 -85.4 0 1 250.02 146.56
  C 251.76 135.81 256.02 115.40 255.25 113.54
  L 255.71 113.00
  Z"
/>
<path fill="#2d5b9a" d="
  M 251.96 113.25
  Q 252.02 113.48 252.25 113.54
  L 246.70 146.33
  A 1.11 1.08 -84.9 0 1 245.63 147.25
  L 213.61 147.25
  A 0.71 0.70 -84.6 0 1 212.92 146.41
  C 216.65 127.19 232.17 113.21 251.96 113.25
  Z"
/>
<path fill="#2d5b9a" d="
  M 132.20 117.98
  A 1.08 1.07 17.6 0 1 132.81 119.15
  L 129.30 139.36
  Q 129.19 140.01 128.70 139.57
  C 120.20 131.75 107.24 136.27 103.76 146.73
  A 0.77 0.77 -80.4 0 1 103.03 147.25
  L 80.16 147.25
  A 0.62 0.61 6.7 0 1 79.56 146.50
  C 85.15 122.47 108.95 107.33 132.20 117.98
  Z"
/>
<path fill="#2d5b9a" d="
  M 145.94 136.05
  L 134.19 136.01
  A 0.85 0.82 5.4 0 1 133.36 135.04
  L 136.59 117.42
  A 0.62 0.60 5.0 0 1 137.20 116.93
  L 188.49 116.81
  A 0.43 0.43 -84.9 0 1 188.91 117.32
  L 185.76 135.17
  A 1.06 1.02 4.2 0 1 184.73 136.02
  L 172.19 136.16
  A 0.64 0.61 -84.7 0 0 171.60 136.68
  L 169.67 146.58
  A 0.64 0.62 5.1 0 1 169.06 147.08
  L 145.41 147.24
  A 0.76 0.70 -85.2 0 1 144.72 146.35
  L 146.39 136.57
  A 0.45 0.44 4.8 0 0 145.94 136.05
  Z"
/>
<path fill="#2d5b9a" d="
  M 191.42 117.73
  A 1.22 1.20 5.1 0 1 192.62 116.75
  L 215.90 116.75
  A 0.44 0.43 5.4 0 1 216.33 117.26
  L 211.03 146.70
  A 0.60 0.59 -84.7 0 1 210.45 147.19
  L 186.74 147.25
  A 0.44 0.43 5.0 0 1 186.31 146.74
  L 191.42 117.73
  Z"
/>
<path fill="#2d5b9a" d="
  M 296.95 147.30
  L 286.56 147.25
  A 0.47 0.46 4.7 0 1 286.10 146.71
  L 291.23 117.35
  A 0.74 0.73 5.1 0 1 291.96 116.75
  L 314.72 116.75
  A 1.07 1.06 -12.8 0 1 315.68 117.35
  L 328.44 144.25
  Q 328.84 145.09 329.00 144.18
  L 333.70 117.40
  A 0.78 0.77 -85.1 0 1 334.46 116.75
  L 357.45 116.75
  A 0.44 0.43 5.0 0 1 357.88 117.26
  L 346.63 181.46
  A 0.94 0.91 -84.4 0 1 345.72 182.23
  L 322.93 182.08
  A 0.80 0.79 78.2 0 1 322.22 181.61
  L 310.05 153.85
  Q 309.20 151.90 308.83 153.98
  L 303.98 181.75
  A 0.61 0.61 5.1 0 1 303.38 182.25
  L 280.30 182.25
  A 0.44 0.43 5.0 0 1 279.87 181.74
  L 285.22 151.31
  A 0.66 0.59 -84.6 0 1 285.80 150.77
  L 296.26 150.48
  A 0.83 0.69 9.1 0 0 296.97 150.06
  Q 297.44 148.99 297.45 147.81
  A 0.50 0.50 -89.4 0 0 296.95 147.30
  Z"
/>
<path fill="#2d5b9a" d="
  M 18.25 147.25
  L 16.30 150.10
  A 1.01 0.85 14.2 0 1 15.50 150.49
  L 1.06 150.67
  A 0.74 0.65 -8.2 0 1 0.38 150.22
  Q -0.08 148.75 0.76 147.47
  A 1.01 0.85 14.2 0 1 1.56 147.08
  L 18.25 147.25
  Z"
/>
<path fill="#2d5b9a" d="
  M 16.76 150.76
  L 76.21 150.51
  A 1.04 1.02 85.5 0 1 77.23 151.40
  L 81.69 181.33
  A 0.80 0.80 85.7 0 1 80.90 182.25
  L 54.06 182.19
  A 0.51 0.49 89.4 0 1 53.57 181.69
  L 53.34 172.43
  A 0.53 0.52 -0.6 0 0 52.81 171.92
  L 35.18 171.76
  A 1.02 0.95 -80.3 0 0 34.26 172.46
  L 31.35 181.42
  A 1.24 1.20 8.7 0 1 30.18 182.25
  L 0.89 182.25
  A 0.48 0.47 -76.5 0 1 0.47 181.56
  L 16.02 151.22
  A 0.83 0.82 -76.6 0 1 16.76 150.76
  Z"
/>
<path fill="#2d5b9a" d="
  M 103.31 151.08
  C 106.21 161.04 116.23 164.66 124.66 159.32
  Q 125.99 158.47 125.72 160.05
  L 121.82 182.26
  A 0.81 0.77 87.9 0 1 121.26 182.89
  C 99.48 188.83 78.78 174.47 79.30 151.32
  A 0.54 0.52 -90.0 0 1 79.81 150.79
  L 102.59 150.52
  A 0.77 0.74 81.7 0 1 103.31 151.08
  Z"
/>
<path fill="#2d5b9a" d="
  M 143.90 151.42
  A 1.11 1.10 4.6 0 1 144.99 150.50
  L 168.44 150.50
  A 0.58 0.58 -85.0 0 1 169.01 151.18
  L 163.67 181.47
  A 0.93 0.89 -84.3 0 1 162.78 182.23
  L 139.18 182.08
  A 0.44 0.43 -84.3 0 1 138.77 181.56
  L 143.90 151.42
  Z"
/>
<path fill="#2d5b9a" d="
  M 185.48 151.45
  A 1.09 1.09 -84.9 0 1 186.55 150.55
  L 209.74 150.56
  A 0.65 0.64 -85.1 0 1 210.37 151.32
  L 205.07 181.51
  A 0.89 0.89 -85.0 0 1 204.19 182.25
  L 180.56 182.19
  A 0.42 0.41 5.1 0 1 180.14 181.70
  L 185.48 151.45
  Z"
/>
<path fill="#2d5b9a" d="
  M 240.46 183.50
  Q 240.15 183.75 239.75 183.79
  Q 215.80 178.83 212.66 154.91
  C 212.38 152.73 211.64 150.09 214.51 150.33
  C 224.51 151.18 235.14 150.45 245.25 150.74
  A 0.44 0.44 -84.8 0 1 245.67 151.25
  L 240.46 183.50
  Z"
/>
<path fill="#2d5b9a" d="
  M 244.25 184.21
  Q 244.10 183.91 243.75 183.96
  L 249.19 151.15
  A 0.78 0.78 4.8 0 1 249.96 150.50
  L 282.92 150.50
  A 0.53 0.52 5.8 0 1 283.44 151.13
  C 279.70 170.35 263.98 184.40 244.25 184.21
  Z"
/>
<path fill="#2d5b9a" d="
  M 240.46 183.50
  Q 241.94 184.40 243.75 183.96
  Q 244.10 183.91 244.25 184.21
  C 243.38 184.28 241.69 196.00 241.33 197.93
  A 1.19 1.19 1.4 0 1 240.33 198.88
  C 236.86 199.38 237.79 198.29 238.18 196.20
  C 238.49 194.54 240.64 184.41 239.75 183.79
  Q 240.15 183.75 240.46 183.50
  Z"
/>
</svg>
