<?xml version="1.0" encoding="UTF-8" standalone="no"?>
<!DOCTYPE svg PUBLIC "-//W3C//DTD SVG 1.1//EN" "http://www.w3.org/Graphics/SVG/1.1/DTD/svg11.dtd">
<svg xmlns="http://www.w3.org/2000/svg" version="1.1" viewBox="0 0 600 168">
<g stroke-width="2.00" fill="none" stroke-linecap="butt">
<path stroke="#b6b6b7" vector-effect="non-scaling-stroke" d="
  M 586.39 5.75
  Q 583.65 6.87 581.02 6.67
  C 574.50 6.18 568.21 6.35 561.25 5.50
  Q 559.60 5.30 557.77 6.10
  A 0.91 0.69 84.6 0 0 557.33 6.81
  C 557.26 7.65 556.38 7.78 555.92 8.12
  C 552.72 10.48 551.45 8.03 548.55 7.92
  A 0.97 0.78 -10.4 0 1 547.79 7.51
  L 547.47 6.94
  A 1.03 0.90 77.0 0 0 546.76 6.43
  Q 537.56 5.03 528.25 4.77
  C 526.37 4.72 525.18 4.05 523.10 5.18
  Q 522.62 5.44 522.08 5.60
  Q 513.12 8.29 507.86 14.42
  Q 506.14 16.43 504.61 16.80
  Q 500.82 17.71 501.36 12.49"
/>
<path stroke="#959595" vector-effect="non-scaling-stroke" d="
  M 559.25 61.54
  Q 554.63 61.87 552.08 65.65
  A 1.43 1.31 7.4 0 1 551.33 66.18
  Q 549.79 66.63 548.80 67.85
  A 1.48 0.96 -66.2 0 1 548.02 68.36
  L 541.24 69.45
  A 1.26 1.21 -75.1 0 0 540.47 69.92
  C 538.47 72.50 525.18 70.20 522.57 70.04
  Q 518.91 69.82 515.19 69.55"
/>
<path stroke="#959595" vector-effect="non-scaling-stroke" d="
  M 504.96 60.54
  Q 503.84 59.49 502.43 60.24
  A 0.99 0.50 88.0 0 0 502.08 60.99
  Q 502.00 61.87 500.32 62.81
  A 2.61 2.57 -89.3 0 0 499.33 63.79
  C 497.94 66.20 495.45 66.11 493.80 68.11
  A 1.42 1.27 -73.3 0 1 493.02 68.59
  C 488.99 69.30 463.67 73.99 462.64 69.18
  A 0.72 0.66 86.6 0 0 462.07 68.63
  Q 459.50 68.27 457.35 66.85
  A 1.40 1.26 56.2 0 0 456.44 66.62
  L 455.67 66.70
  A 1.46 1.15 49.6 0 1 454.88 66.54
  Q 453.64 65.90 454.99 67.55"
/>
<path stroke="#959595" vector-effect="non-scaling-stroke" d="
  M 438.50 72.46
  Q 436.60 72.64 436.67 71.25
  A 0.49 0.43 -88.1 0 0 436.24 70.73
  L 417.99 70.73
  A 1.96 1.19 -48.9 0 0 417.08 71.02
  C 413.41 73.27 410.86 71.20 407.71 71.13
  Q 403.82 71.05 399.99 72.03"
/>
<path stroke="#999999" vector-effect="non-scaling-stroke" d="
  M 392.71 56.25
  Q 394.01 54.77 393.39 53.03
  A 0.70 0.69 78.0 0 0 392.70 52.57
  L 381.18 53.38
  A 1.79 1.18 -56.7 0 0 380.30 53.76
  Q 375.78 57.43 369.57 53.50
  A 4.04 2.48 -20.2 0 0 367.38 53.06
  L 360.06 53.57
  A 1.32 1.22 -68.6 0 0 359.26 53.96
  L 357.33 55.97"
/>
<path stroke="#999999" vector-effect="non-scaling-stroke" d="
  M 357.33 55.97
  Q 357.55 57.80 356.34 59.15
  A 0.80 0.72 55.8 0 0 356.23 59.95
  Q 356.99 61.69 355.20 63.41
  A 0.28 0.28 38.8 0 0 355.25 63.85
  Q 356.90 64.84 356.21 66.55
  A 1.83 1.53 55.0 0 0 356.13 67.48
  C 356.78 71.06 341.75 71.09 339.50 71.02
  A 1.61 1.27 60.7 0 1 338.63 70.66
  C 336.22 68.65 329.74 69.98 327.00 70.79"
/>
<path stroke="#939393" vector-effect="non-scaling-stroke" d="
  M 323.25 64.85
  Q 321.95 64.85 321.17 65.24
  A 1.38 0.87 -83.7 0 0 320.59 65.97
  C 318.87 70.57 315.39 70.86 310.67 70.42
  C 303.34 69.74 296.37 71.24 289.36 71.14
  Q 280.15 71.00 270.99 71.77"
/>
<path stroke="#959595" vector-effect="non-scaling-stroke" d="
  M 267.50 64.71
  Q 264.81 63.68 261.21 67.30
  Q 261.02 67.49 260.77 67.60
  Q 252.08 71.37 242.70 70.61
  Q 233.97 69.90 233.74 69.90
  C 221.12 69.91 209.19 71.82 195.31 71.09
  A 0.69 0.65 -77.3 0 0 194.65 71.53
  L 194.41 72.15"
/>
<path stroke="#959595" vector-effect="non-scaling-stroke" d="
  M 190.51 65.06
  Q 190.29 62.54 188.95 63.15
  C 188.07 63.55 187.78 64.91 186.56 65.06
  Q 184.28 65.35 181.21 64.50"
/>
<path stroke="#515151" vector-effect="non-scaling-stroke" d="
  M 181.21 64.50
  L 182.36 59.86
  A 2.10 2.09 -83.5 0 1 184.35 58.27
  Q 188.47 58.19 191.70 58.09
  C 195.58 57.97 197.40 57.47 197.81 62.50
  Q 198.08 65.74 201.21 65.74
  L 216.08 65.72
  Q 218.32 65.72 217.60 63.56
  Q 211.41 45.01 204.99 26.31
  C 202.34 18.61 200.21 14.14 192.00 13.25
  C 185.22 12.51 179.59 15.14 177.32 21.63
  Q 170.22 41.96 162.94 63.67
  Q 162.29 65.60 164.32 65.77
  Q 171.92 66.40 180.50 65.46"
/>
<path stroke="#959595" vector-effect="non-scaling-stroke" d="
  M 180.50 65.46
  Q 182.56 66.96 185.03 66.17
  A 1.14 0.90 -33.2 0 1 185.93 66.25
  C 189.10 68.36 182.35 68.57 183.64 69.92
  A 0.98 0.67 36.7 0 1 183.92 70.74
  C 183.62 71.85 182.64 71.25 181.98 71.26
  C 173.34 71.46 164.72 69.89 156.55 70.05
  A 0.80 0.65 7.0 0 0 155.84 70.50
  C 155.41 71.72 157.81 70.31 157.81 71.45
  A 0.66 0.51 -2.3 0 1 157.19 71.97
  C 154.83 72.13 144.61 72.73 143.41 70.76
  A 0.90 0.79 71.7 0 0 142.68 70.33
  Q 138.13 70.47 132.22 68.84
  A 3.78 3.77 -9.3 0 1 130.10 67.32
  Q 129.43 66.33 128.04 67.50"
/>
<path stroke="#939393" vector-effect="non-scaling-stroke" d="
  M 128.04 67.50
  Q 126.02 66.89 125.13 68.72
  A 1.70 1.07 -80.6 0 1 124.50 69.43
  Q 122.47 70.48 119.25 70.75
  Q 105.56 71.89 94.25 70.21"
/>
<path stroke="#959595" vector-effect="non-scaling-stroke" d="
  M 94.25 70.21
  Q 88.50 70.51 82.75 70.75
  Q 81.20 70.81 80.39 70.54
  A 1.65 0.87 33.4 0 0 79.46 70.45
  Q 75.79 71.52 71.98 71.75
  C 70.12 71.87 67.18 73.25 65.33 72.18
  Q 63.13 70.91 60.59 71.00
  C 57.99 71.09 47.07 71.71 45.55 70.41
  Q 45.47 70.34 44.71 69.95
  Q 44.20 69.68 44.88 68.83
  Q 45.34 68.27 44.62 68.23
  Q 43.56 68.16 42.25 68.79"
/>
<path stroke="#939393" vector-effect="non-scaling-stroke" d="
  M 39.46 68.00
  C 35.39 67.63 35.48 70.27 32.77 71.50
  Q 31.23 72.19 29.51 72.25
  A 1.41 1.06 59.2 0 1 28.65 71.90
  C 27.21 70.67 25.48 71.50 24.19 71.50
  Q 15.69 71.52 7.26 70.98"
/>
<path stroke="#b6b6b7" vector-effect="non-scaling-stroke" d="
  M 5.46 66.75
  Q 6.40 67.23 8.22 64.69
  A 0.54 0.53 36.4 0 0 8.10 63.95
  Q 6.91 63.04 7.70 60.98
  Q 11.41 51.24 15.05 41.47
  C 15.57 40.06 15.47 38.10 16.90 36.59
  A 1.80 1.58 75.6 0 0 17.32 35.76
  C 18.54 29.61 21.67 23.81 23.35 17.72
  C 24.23 14.50 29.92 10.44 32.65 8.59
  A 1.50 1.47 -60.5 0 1 33.55 8.33
  Q 40.22 8.58 46.89 8.52
  C 49.55 8.50 51.59 9.43 54.06 10.19
  Q 54.70 11.33 55.96 9.40"
/>
<path stroke="#b6b6b7" vector-effect="non-scaling-stroke" d="
  M 65.46 19.00
  C 66.32 20.32 67.16 19.12 67.35 18.16
  Q 68.27 13.58 72.59 11.75
  Q 73.01 11.57 73.33 11.15
  C 74.93 9.05 101.81 9.38 106.34 9.74
  Q 110.69 10.10 115.04 9.52"
/>
<path stroke="#bbbaba" vector-effect="non-scaling-stroke" d="
  M 123.07 15.90
  Q 122.48 17.31 123.94 17.24
  A 1.62 1.20 -60.0 0 0 124.82 16.86
  C 129.91 12.56 134.76 9.19 141.49 8.77
  Q 149.70 8.26 157.94 8.54
  A 1.52 1.19 61.9 0 1 158.80 8.92
  Q 161.20 11.09 163.94 8.18"
/>
<path stroke="#b6b6b7" vector-effect="non-scaling-stroke" d="
  M 168.00 24.46
  Q 168.41 25.33 168.00 26.25
  Q 167.05 28.37 169.00 27.00
  Q 170.19 26.16 170.08 24.74
  Q 170.04 24.31 170.23 23.80
  L 172.57 17.67
  A 1.64 1.29 88.7 0 1 173.12 16.94
  Q 173.91 16.41 174.19 15.56
  A 0.74 0.70 -81.8 0 1 174.82 15.06
  Q 176.86 14.97 177.14 13.19
  A 1.21 0.73 88.5 0 1 177.59 12.40
  L 182.79 9.46
  Q 183.08 9.29 183.53 8.83
  Q 184.16 8.19 185.75 8.25
  Q 194.24 8.59 202.82 8.89"
/>
<path stroke="#bbbaba" vector-effect="non-scaling-stroke" d="
  M 213.04 19.00
  C 216.29 21.74 213.85 15.19 217.70 14.50
  A 1.41 0.53 -3.2 0 0 218.57 14.12
  L 221.59 10.26
  Q 222.02 9.71 222.27 9.60
  C 225.44 8.22 227.58 8.71 230.83 8.78
  Q 242.30 9.01 253.76 9.64
  C 257.17 9.82 261.82 13.30 265.22 14.63
  Q 265.65 14.80 265.99 15.21
  C 268.24 17.96 269.14 13.65 270.42 12.37
  A 1.74 0.80 -33.0 0 0 270.92 11.58
  L 271.08 10.92
  A 0.93 0.81 -5.4 0 1 271.67 10.30
  Q 272.53 10.02 273.20 9.42
  A 1.51 1.12 -59.9 0 1 274.06 9.05
  C 281.99 8.81 288.86 10.27 297.56 9.29"
/>
<path stroke="#b6b6b7" vector-effect="non-scaling-stroke" d="
  M 301.04 25.75
  Q 302.22 26.59 303.22 25.68
  A 1.59 1.11 -60.1 0 1 304.07 25.28
  Q 308.30 24.96 304.30 24.05
  A 0.41 0.40 -71.1 0 1 304.03 23.48
  C 305.94 19.23 306.58 14.56 311.09 11.52
  A 1.28 0.64 -89.2 0 0 311.49 10.75
  C 311.67 9.88 315.63 8.59 316.73 8.22
  Q 319.14 7.39 321.78 7.43
  Q 329.86 7.54 337.74 9.47"
/>
<path stroke="#bbbaba" vector-effect="non-scaling-stroke" d="
  M 348.04 26.86
  C 346.50 28.10 348.55 28.49 349.35 28.53
  C 364.02 29.19 379.41 30.24 394.00 28.32
  A 0.95 0.86 6.9 0 0 394.72 27.81
  C 395.44 26.15 394.96 24.54 395.37 23.19
  C 396.22 20.37 398.61 18.23 399.92 16.51
  C 407.99 5.91 421.03 6.73 432.76 7.35
  Q 438.03 7.63 439.44 8.81
  Q 442.25 11.16 444.86 8.61"
/>
<path stroke="#878787" vector-effect="non-scaling-stroke" d="
  M 128.25 67.96
  Q 128.08 67.74 128.04 67.50"
/>
<path stroke="#878787" vector-effect="non-scaling-stroke" d="
  M 94.04 70.75
  Q 93.89 70.31 94.25 70.21"
/>
<path stroke="#b4b4b4" vector-effect="non-scaling-stroke" d="
  M 495.00 7.29
  Q 494.95 9.03 493.56 8.44
  Q 486.25 5.32 478.92 7.11
  Q 476.25 7.76 475.50 5.29"
/>
<path stroke="#454545" vector-effect="non-scaling-stroke" d="
  M 181.21 64.50
  Q 181.00 65.14 180.50 65.46"
/>
<path stroke="#909090" vector-effect="non-scaling-stroke" d="
  M 357.75 56.04
  L 357.33 55.97"
/>
<path stroke="#d2d1d2" vector-effect="non-scaling-stroke" d="
  M 484.07 4.11
  Q 480.07 5.55 475.50 5.29"
/>
<path stroke="#bfbfbf" vector-effect="non-scaling-stroke" d="
  M 475.50 5.29
  C 467.55 5.32 459.19 7.83 453.90 14.22
  A 5.14 5.07 9.3 0 1 451.71 15.77
  Q 449.67 16.52 450.70 14.37"
/>
<path stroke="#b6b6b7" vector-effect="non-scaling-stroke" d="
  M 79.49 77.34
  Q 71.53 78.54 67.69 78.44
  Q 57.34 78.16 46.98 78.18
  C 42.65 78.19 35.54 76.09 33.62 82.11
  C 32.72 84.92 31.62 87.37 30.66 90.04
  A 1.13 0.88 43.5 0 0 30.79 90.90
  Q 31.37 91.85 30.31 92.02
  A 0.89 0.76 2.6 0 0 29.65 92.54
  Q 28.16 96.97 26.26 101.25
  C 25.07 103.91 24.36 106.99 23.05 109.77
  Q 22.27 111.44 21.84 113.21
  C 21.01 116.64 18.92 118.98 18.23 122.68
  C 17.79 125.03 16.59 126.31 15.56 128.31
  Q 14.83 129.73 14.56 131.56
  Q 14.50 132.00 14.68 132.36
  A 0.51 0.45 58.6 0 1 14.57 133.00
  Q 13.12 133.99 13.21 136.00"
/>
<path stroke="#b7b7b7" vector-effect="non-scaling-stroke" d="
  M 13.21 136.00
  C 11.53 138.25 11.81 140.98 10.25 143.46"
/>
<path stroke="#b6b6b7" vector-effect="non-scaling-stroke" d="
  M 10.25 143.46
  C 8.68 143.90 10.17 145.85 9.73 146.06
  A 3.07 3.07 83.7 0 0 8.06 148.15
  Q 7.52 150.55 5.41 149.70"
/>
<path stroke="#959595" vector-effect="non-scaling-stroke" d="
  M 184.46 83.00
  Q 183.41 82.65 182.44 83.03
  A 0.44 0.41 -30.4 0 0 182.24 83.69
  Q 182.51 84.01 182.94 84.07
  A 0.57 0.47 5.3 0 1 183.43 84.56
  Q 183.30 87.70 181.49 90.28
  A 1.34 1.11 8.5 0 1 180.70 90.76
  Q 178.64 91.15 180.32 92.24
  A 0.55 0.45 -60.9 0 1 180.44 92.89
  L 179.38 95.01
  A 1.38 0.84 -76.7 0 1 178.77 95.63
  Q 177.94 95.94 178.31 96.64
  A 1.32 1.30 -49.2 0 1 178.38 97.72
  Q 176.56 102.56 175.09 106.77
  C 174.60 108.19 175.05 110.35 172.52 110.26
  A 0.23 0.22 79.6 0 0 172.31 110.57
  Q 173.15 112.62 172.18 113.73
  Q 171.79 114.16 171.71 114.56
  Q 170.94 118.37 169.36 121.86
  Q 167.73 125.49 166.79 128.39
  Q 165.62 132.02 163.88 135.44
  C 163.33 136.53 162.31 136.83 162.76 138.53
  A 1.38 1.37 51.1 0 1 162.66 139.49
  Q 160.91 143.00 159.96 146.22
  C 158.86 149.92 156.80 152.96 155.81 156.06
  Q 154.75 159.40 151.50 159.00
  Q 132.49 156.69 112.79 159.35
  A 2.16 2.16 -19.3 0 1 110.65 158.32
  Q 109.67 156.72 108.29 155.75"
/>
<path stroke="#999999" vector-effect="non-scaling-stroke" d="
  M 107.91 152.89
  Q 108.77 151.91 108.61 150.74
  Q 108.55 150.30 108.29 150.71
  Q 107.89 151.35 107.06 151.36
  A 1.49 0.81 12.4 0 0 106.16 151.62
  Q 104.72 152.88 104.41 155.50
  Q 104.12 157.98 101.62 158.01
  Q 95.86 158.10 89.70 158.18
  C 81.99 158.28 71.20 159.38 62.75 158.25
  Q 58.74 157.72 56.96 157.65"
/>
<path stroke="#959595" vector-effect="non-scaling-stroke" d="
  M 56.60 153.31
  Q 55.68 154.30 54.44 154.34
  A 0.81 0.75 11.1 0 0 53.74 154.77
  C 52.45 157.60 50.55 158.53 47.31 158.31
  Q 41.61 157.91 33.75 159.25
  Q 29.14 160.04 22.73 158.38
  A 1.74 1.57 -43.9 0 0 21.77 158.41
  Q 16.44 160.08 9.37 159.00
  A 2.95 2.94 81.2 0 1 7.17 157.39
  Q 6.91 156.85 5.50 156.46"
/>
<path stroke="#a2a2a2" vector-effect="non-scaling-stroke" d="
  M 10.25 143.46
  Q 10.71 143.88 10.93 144.46
  A 0.66 0.62 77.8 0 0 11.55 144.89
  Q 13.97 144.75 14.96 147.00"
/>
<path stroke="#d05951" vector-effect="non-scaling-stroke" d="
  M 14.96 147.00
  Q 14.21 149.98 12.63 152.31
  Q 11.60 153.82 13.43 153.82
  L 47.46 153.75
  A 0.81 0.78 9.9 0 0 48.21 153.24
  L 74.84 84.11
  A 0.82 0.82 -79.4 0 0 74.08 83.00
  L 40.15 83.00
  A 0.69 0.68 10.6 0 0 39.51 83.43
  L 17.54 140.25"
/>
<path stroke="#a2a2a2" vector-effect="non-scaling-stroke" d="
  M 17.54 140.25
  Q 16.40 138.06 13.99 138.61
  A 0.51 0.41 -9.6 0 1 13.37 138.27
  L 13.21 136.00"
/>
<path stroke="#b6b6b7" vector-effect="non-scaling-stroke" d="
  M 129.80 76.70
  Q 130.07 79.78 127.49 79.65
  Q 125.53 79.56 123.57 79.46
  A 0.82 0.65 77.2 0 1 122.95 78.96
  Q 122.64 78.20 121.52 78.49
  Q 120.20 78.84 118.87 78.57
  C 112.03 77.20 106.05 78.95 97.32 78.70
  A 1.95 1.15 50.0 0 1 96.41 78.38
  C 94.43 77.08 89.75 77.89 87.99 78.16
  A 1.76 1.49 -67.6 0 0 87.14 78.60
  C 86.34 79.37 84.21 82.25 83.21 80.00"
/>
<path stroke="#d15952" vector-effect="non-scaling-stroke" d="
  M 14.96 147.00
  L 17.54 140.25"
/>
<path stroke="#b4b4b4" vector-effect="non-scaling-stroke" d="
  M 181.79 76.75
  C 180.94 77.37 179.06 79.18 178.05 78.16
  A 1.22 0.75 57.2 0 0 177.26 77.78
  Q 159.54 78.78 141.82 77.98
  Q 139.92 77.90 139.28 80.33
  A 0.66 0.65 5.9 0 1 138.67 80.82
  Q 135.97 80.89 135.98 83.50
  A 1.70 1.01 74.5 0 1 135.73 84.42
  Q 134.92 85.55 133.57 85.67
  A 0.59 0.56 -7.3 0 1 132.93 85.20
  Q 132.82 84.46 133.21 83.75"
/>
<path stroke="#bbbbbb" vector-effect="non-scaling-stroke" d="
  M 593.50 99.04
  Q 594.00 100.65 592.25 100.75
  A 1.42 0.64 -51.7 0 0 591.48 101.15
  Q 591.12 101.47 590.50 101.25
  C 587.82 100.29 584.35 100.99 582.14 101.05
  Q 563.07 101.51 544.00 100.93
  Q 533.74 100.61 523.50 101.25
  C 521.07 101.40 517.89 100.75 515.16 100.78
  C 490.19 101.11 461.17 100.93 425.57 101.43
  C 420.08 101.51 413.43 100.94 407.33 101.11
  C 394.74 101.47 381.96 100.82 371.75 100.75
  C 365.18 100.70 357.51 101.29 350.43 101.05
  C 333.77 100.51 317.19 101.05 300.51 100.71
  Q 279.79 100.29 259.08 101.28
  C 253.82 101.53 247.50 101.36 241.71 101.75"
/>
<path stroke="#c7c6c6" vector-effect="non-scaling-stroke" d="
  M 241.71 101.75
  Q 240.69 102.23 240.04 101.75"
/>
<path stroke="#9c9c9c" vector-effect="non-scaling-stroke" d="
  M 594.98 101.55
  Q 591.94 101.46 592.06 103.81
  Q 592.63 115.06 592.50 118.50
  Q 591.79 137.46 592.99 156.51"
/>
<path stroke="#999999" vector-effect="non-scaling-stroke" d="
  M 592.99 156.51
  Q 587.46 157.00 578.50 156.75
  Q 568.17 156.46 536.52 157.19
  C 530.53 157.33 525.09 156.18 518.91 156.66
  C 506.03 157.67 493.24 156.03 480.34 156.72
  C 474.47 157.03 468.83 156.55 462.97 156.62
  C 450.35 156.75 437.36 156.26 425.00 157.00
  Q 422.37 157.16 420.54 156.60
  A 1.24 0.83 78.4 0 1 419.90 155.97
  Q 419.25 154.64 417.35 156.05
  Q 415.98 157.05 414.32 156.71
  C 411.08 156.05 408.14 155.76 404.64 155.95
  Q 391.98 156.66 379.32 156.81
  A 0.86 0.74 -74.5 0 0 378.62 157.28
  C 377.38 159.67 369.27 158.98 368.68 157.82
  A 0.68 0.24 67.8 0 0 368.30 157.39
  Q 357.96 156.20 347.67 157.58
  C 346.12 157.79 344.69 157.28 343.00 157.25
  Q 333.38 157.06 319.68 156.31
  C 317.70 156.21 316.74 155.35 316.25 153.54"
/>
<path stroke="#515151" vector-effect="non-scaling-stroke" d="
  M 316.25 153.54
  L 346.06 153.44
  A 1.41 1.40 -89.6 0 0 347.46 152.05
  Q 347.76 129.11 346.77 109.41
  A 0.95 0.93 88.1 0 0 345.83 108.51
  L 300.07 108.74
  A 1.55 1.52 89.6 0 0 298.56 110.30
  Q 298.72 128.98 299.21 147.64
  C 299.31 151.46 298.39 155.21 304.50 153.71"
/>
<path stroke="#999999" vector-effect="non-scaling-stroke" d="
  M 304.50 153.71
  Q 307.19 153.81 305.92 154.28
  A 1.85 1.81 8.3 0 0 305.14 154.85
  C 303.52 156.89 301.95 156.16 299.96 156.36
  C 284.92 157.84 270.24 155.16 255.31 156.81
  Q 252.26 157.15 245.14 156.00"
/>
<path stroke="#aeadae" vector-effect="non-scaling-stroke" d="
  M 245.14 156.00
  Q 241.56 155.09 241.76 151.81
  A 1.22 0.82 -24.1 0 1 242.23 151.06
  Q 242.85 150.58 242.50 149.96
  Q 242.18 149.40 242.14 149.07
  L 241.89 147.05
  A 0.75 0.67 -19.9 0 1 242.27 146.35
  Q 243.20 145.83 242.39 145.06
  A 1.12 0.91 27.0 0 1 242.03 144.25
  L 242.53 135.68
  A 1.88 1.27 41.9 0 0 242.30 134.76
  Q 241.77 133.78 241.86 132.69
  A 1.15 0.48 -28.5 0 1 242.40 132.02
  Q 242.99 131.60 241.96 130.34
  Q 241.47 129.73 242.25 129.66
  Q 243.77 129.51 242.67 128.29
  A 1.28 0.90 32.3 0 1 242.32 127.45
  L 242.37 126.81
  A 1.22 1.19 28.3 0 0 242.10 125.95
  Q 241.16 124.81 242.17 123.87
  A 0.81 0.74 -31.0 0 0 242.40 123.09
  Q 241.87 121.36 242.31 119.57
  Q 242.33 119.49 242.32 119.40
  Q 241.79 112.49 242.61 109.23
  A 1.55 1.44 -50.2 0 0 242.56 108.29
  Q 241.33 105.12 241.71 101.75"
/>
<path stroke="#a5a4a5" vector-effect="non-scaling-stroke" d="
  M 245.14 156.00
  Q 242.30 155.81 240.04 156.75"
/>
<path stroke="#939393" vector-effect="non-scaling-stroke" d="
  M 594.96 156.50
  L 592.99 156.51"
/>
<path stroke="#484848" vector-effect="non-scaling-stroke" d="
  M 316.25 153.54
  L 304.50 153.71"
/>
<path stroke="#515151" vector-effect="non-scaling-stroke" d="
  M 508.69 25.19
  C 504.41 39.68 506.43 59.74 523.75 64.50
  C 536.66 68.05 553.51 63.04 557.21 48.44
  Q 560.18 36.74 556.50 25.25
  C 550.05 5.13 515.06 3.62 508.69 25.19"
/>
<path stroke="#515151" vector-effect="non-scaling-stroke" d="
  M 453.28 26.96
  C 449.26 40.66 451.39 60.37 467.50 65.00
  C 481.13 68.91 497.37 64.17 501.25 49.00
  C 503.84 38.87 503.52 24.92 495.45 17.29
  C 488.85 11.05 477.84 9.53 469.23 11.69
  Q 456.85 14.80 453.28 26.96"
/>
<path stroke="#515151" vector-effect="non-scaling-stroke" d="
  M 559.56 23.52
  Q 559.48 25.25 561.63 25.60
  L 565.84 26.28
  A 0.91 0.69 83.2 0 1 566.45 26.92
  Q 567.37 30.39 567.32 34.00
  Q 567.11 49.41 567.43 64.81
  A 0.53 0.51 89.4 0 0 567.94 65.33
  L 585.20 65.44
  A 1.09 1.06 -89.4 0 0 586.26 64.37
  Q 586.61 43.50 586.30 22.29
  C 586.08 7.72 570.93 11.00 561.58 11.00
  A 1.67 1.57 -88.7 0 0 560.01 12.60
  L 559.56 23.52"
/>
<path stroke="#515151" vector-effect="non-scaling-stroke" d="
  M 427.99 50.74
  A 0.97 0.97 -22.2 0 1 428.56 49.39
  C 435.75 47.05 443.83 42.86 446.82 35.53
  C 450.13 27.39 446.98 18.01 438.56 14.69
  C 428.56 10.74 414.95 10.50 406.58 17.86
  C 403.02 21.00 399.48 26.70 400.34 31.81
  A 0.66 0.64 -2.1 0 0 400.94 32.35
  Q 409.25 32.90 418.15 31.93
  A 1.26 1.26 -0.6 0 0 419.27 30.79
  C 420.12 21.20 433.29 27.50 426.19 33.69
  Q 421.31 37.93 404.06 50.56
  C 396.70 55.96 399.18 65.44 408.25 65.50
  Q 427.53 65.64 446.82 65.32
  A 0.54 0.51 -0.0 0 0 447.35 64.82
  L 447.53 52.68
  A 1.17 1.10 1.0 0 0 446.38 51.56
  C 443.97 51.53 428.58 51.96 427.99 50.74"
/>
<path stroke="#515151" vector-effect="non-scaling-stroke" d="
  M 307.68 30.25
  Q 301.64 46.84 296.01 63.71
  A 1.20 1.20 -79.0 0 0 297.07 65.29
  Q 305.41 65.82 312.87 65.19
  Q 315.36 64.97 315.67 62.49
  Q 316.24 57.82 319.75 57.95
  Q 324.66 58.14 329.56 58.41
  A 0.76 0.63 -3.6 0 1 330.24 58.90
  L 331.50 64.26
  A 1.39 1.19 83.6 0 0 332.63 65.32
  Q 341.97 65.83 350.32 65.32
  A 1.47 1.47 79.2 0 0 351.63 63.39
  Q 344.34 41.41 337.63 21.96
  C 334.72 13.52 323.82 9.83 316.50 14.61
  C 311.11 18.13 309.75 24.57 307.68 30.25"
/>
<path stroke="#515151" vector-effect="non-scaling-stroke" d="
  M 46.82 58.87
  C 49.53 61.25 47.10 66.31 51.94 66.22
  C 56.66 66.14 63.91 66.89 68.68 65.43
  A 0.73 0.72 -17.7 0 0 69.16 64.51
  Q 62.19 42.96 55.06 22.23
  C 51.68 12.41 38.85 9.60 31.82 16.86
  Q 29.37 19.38 26.60 26.95
  Q 19.88 45.27 12.49 64.35
  A 1.03 1.02 13.2 0 0 13.36 65.74
  Q 19.62 66.26 25.78 65.90
  C 27.35 65.81 29.68 66.22 31.74 65.39
  A 1.26 0.74 -81.6 0 0 32.30 64.69
  L 34.19 59.30
  A 1.43 1.20 8.3 0 1 35.48 58.50
  L 45.95 58.55
  A 1.36 1.24 -22.3 0 1 46.82 58.87"
/>
<path stroke="#515151" vector-effect="non-scaling-stroke" d="
  M 158.08 50.94
  C 135.57 53.83 134.76 27.64 153.75 28.50
  Q 156.61 28.63 158.71 28.28
  A 0.61 0.60 -5.2 0 0 159.21 27.69
  L 159.21 15.31
  A 0.73 0.70 9.9 0 0 158.72 14.64
  C 154.67 13.22 149.95 13.22 145.58 13.46
  C 134.79 14.03 125.05 22.14 122.14 32.19
  C 118.66 44.15 123.94 56.63 134.91 62.65
  C 141.47 66.26 149.36 67.11 156.94 66.44
  Q 159.73 66.19 159.58 63.67
  C 159.35 59.73 159.51 55.81 159.26 51.91
  A 1.04 1.04 84.4 0 0 158.08 50.94"
/>
<path stroke="#515151" vector-effect="non-scaling-stroke" d="
  M 227.38 64.82
  C 238.31 66.60 252.27 67.07 261.58 59.59
  C 274.41 49.28 274.23 30.23 261.28 19.84
  C 252.02 12.41 240.78 14.05 228.81 13.82
  C 218.89 13.63 220.23 24.22 220.15 30.70
  Q 220.02 41.79 220.22 52.89
  C 220.33 58.70 220.33 63.67 227.38 64.82"
/>
<path stroke="#515151" vector-effect="non-scaling-stroke" d="
  M 73.20 65.60
  Q 81.10 66.63 89.08 65.52
  A 0.77 0.77 -3.9 0 0 89.75 64.76
  L 90.00 29.27
  A 1.94 1.92 76.8 0 1 91.04 27.57
  C 98.41 23.82 104.55 32.85 97.27 36.55
  C 90.65 39.91 90.62 47.64 93.85 53.37
  C 96.03 57.24 98.00 61.23 100.24 65.06
  A 0.98 0.98 -13.0 0 0 101.01 65.54
  Q 110.71 66.28 119.84 65.49
  A 0.87 0.87 -19.2 0 0 120.49 64.15
  L 109.54 47.52
  Q 108.16 45.44 110.24 44.07
  C 118.28 38.75 122.53 27.59 115.62 19.70
  C 113.73 17.53 108.95 14.70 106.31 14.44
  Q 98.53 13.67 80.87 14.18
  C 74.80 14.36 72.55 17.83 72.44 23.76
  Q 72.08 43.70 72.26 64.53
  A 1.09 1.09 -86.3 0 0 73.20 65.60"
/>
<path stroke="#515151" vector-effect="non-scaling-stroke" d="
  M 274.75 15.76
  C 274.82 31.64 274.17 47.59 274.75 63.50
  C 274.88 67.09 276.98 65.72 279.08 65.79
  Q 285.92 66.02 292.42 65.29
  A 0.95 0.94 86.6 0 0 293.25 64.35
  Q 293.25 41.25 293.29 18.25
  Q 293.29 16.51 292.46 14.72
  A 0.80 0.79 -11.9 0 0 291.73 14.25
  L 276.26 14.25
  A 1.51 1.50 -0.2 0 0 274.75 15.76"
/>
<path stroke="#b4b4b4" vector-effect="non-scaling-stroke" d="
  M 149.25 41.71
  Q 148.39 42.75 148.85 43.98
  A 1.18 0.99 2.4 0 0 149.54 44.61
  C 153.83 46.08 162.29 47.34 164.28 41.90
  A 0.92 0.84 2.4 0 1 164.92 41.36
  Q 166.16 41.10 165.55 40.14
  A 0.82 0.77 44.2 0 1 165.51 39.33
  L 166.96 36.76
  A 0.41 0.38 -69.2 0 0 166.72 36.16
  L 164.25 35.71"
/>
<path stroke="#959595" vector-effect="non-scaling-stroke" d="
  M 165.20 32.83
  Q 162.72 31.06 160.14 32.94
  A 1.89 1.56 -61.0 0 1 159.25 33.29
  C 154.87 33.65 149.31 33.74 146.70 37.95
  Q 145.25 40.30 147.96 40.25"
/>
<path stroke="#515151" vector-effect="non-scaling-stroke" d="
  M 386.7977 35.4162
  A 1.39 1.39 0.0 0 0 385.3932 34.0408
  L 362.5545 34.2800
  A 1.39 1.39 0.0 0 0 361.1791 35.6845
  L 361.3023 47.4438
  A 1.39 1.39 0.0 0 0 362.7068 48.8192
  L 385.5455 48.5800
  A 1.39 1.39 0.0 0 0 386.9209 47.1755
  L 386.7977 35.4162"
/>
<path stroke="#515151" vector-effect="non-scaling-stroke" d="
  M 534.25 24.25
  C 520.60 20.20 522.61 56.50 534.42 50.80
  C 542.03 47.13 542.31 26.64 534.25 24.25"
/>
<path stroke="#515151" vector-effect="non-scaling-stroke" d="
  M 476.9214 52.5383
  A 13.92 8.17 90.9 0 0 485.3090 38.7483
  A 13.92 8.17 90.9 0 0 477.3586 24.7017
  A 13.92 8.17 90.9 0 0 468.9710 38.4917
  A 13.92 8.17 90.9 0 0 476.9214 52.5383"
/>
<path stroke="#515151" vector-effect="non-scaling-stroke" d="
  M 320.04 45.08
  A 1.11 1.11 -82.9 0 0 321.09 46.43
  L 326.30 46.58
  A 1.11 1.11 86.4 0 0 327.43 45.30
  L 325.23 31.40
  A 1.11 1.11 -89.8 0 0 323.05 31.34
  L 320.04 45.08"
/>
<path stroke="#515151" vector-effect="non-scaling-stroke" d="
  M 41.52 30.42
  C 40.00 29.90 37.63 42.36 37.25 44.00
  Q 36.49 47.26 39.73 46.50
  Q 41.11 46.18 42.48 46.50
  Q 44.86 47.03 44.54 44.78
  Q 43.58 38.01 42.15 31.14
  A 0.97 0.96 -86.2 0 0 41.52 30.42"
/>
<path stroke="#515151" vector-effect="non-scaling-stroke" d="
  M 186.78 46.51
  L 192.59 46.41
  A 1.55 1.33 82.2 0 0 193.81 44.53
  L 190.75 31.00
  Q 190.02 27.76 189.25 30.75
  L 185.62 44.88
  A 1.30 1.21 -82.7 0 0 186.78 46.51"
/>
<path stroke="#515151" vector-effect="non-scaling-stroke" d="
  M 239.42 50.06
  C 256.06 50.98 256.88 27.55 239.88 27.50
  A 1.37 1.37 0.2 0 0 238.50 28.87
  L 238.56 49.16
  A 0.91 0.90 1.7 0 0 239.42 50.06"
/>
<path stroke="#51d051" vector-effect="non-scaling-stroke" d="
  M 98.41 153.82
  A 0.70 0.69 -79.6 0 0 99.06 153.37
  L 125.78 83.78
  A 0.58 0.57 10.5 0 0 125.24 83.00
  L 91.03 83.00
  A 0.87 0.86 10.2 0 0 90.22 83.56
  L 63.40 153.04
  A 0.52 0.52 10.7 0 0 63.89 153.75
  L 98.41 153.82"
/>
<path stroke="#5172d0" vector-effect="non-scaling-stroke" d="
  M 115.47 153.81
  L 149.80 153.75
  A 0.81 0.80 10.7 0 0 150.55 153.24
  Q 163.24 120.46 175.38 88.25
  Q 176.12 86.27 177.46 84.17
  Q 178.20 83.00 176.82 83.00
  L 143.08 83.00
  A 1.70 1.69 10.6 0 0 141.50 84.08
  L 114.95 153.06
  A 0.56 0.55 10.5 0 0 115.47 153.81"
/>
<path stroke="#515151" vector-effect="non-scaling-stroke" d="
  M 391.72 129.94
  C 394.05 130.69 394.58 133.02 394.58 135.19
  A 0.75 0.61 -83.4 0 0 395.02 135.88
  C 396.67 136.39 399.28 127.42 400.86 123.41
  Q 401.43 121.96 400.86 122.00
  A 2.16 2.13 -71.1 0 0 399.45 122.70
  Q 394.84 127.89 390.92 127.54
  Q 387.82 127.26 388.94 124.41
  L 394.82 109.55
  A 1.84 1.73 3.6 0 1 396.11 108.48
  C 400.96 107.39 408.72 107.36 409.69 113.83
  Q 410.01 115.93 411.17 114.15
  Q 413.04 111.29 413.77 107.67
  A 0.97 0.97 -83.7 0 0 412.84 106.51
  C 401.98 106.28 390.94 106.76 380.00 106.35
  Q 372.42 106.07 367.56 107.56
  C 364.50 108.50 363.81 111.71 363.82 114.49
  C 363.84 119.01 373.53 117.93 369.79 111.57
  Q 368.81 109.89 370.61 109.17
  C 373.43 108.03 385.11 105.74 382.06 113.06
  Q 375.54 128.74 368.48 144.17
  C 366.50 148.50 365.18 149.27 360.53 149.24
  A 2.40 2.39 -72.7 0 0 358.53 150.29
  Q 357.57 151.70 359.75 151.70
  Q 377.62 151.75 396.05 151.75
  A 1.92 1.86 11.5 0 0 397.79 150.64
  L 401.50 142.25
  Q 402.57 139.83 400.31 141.06
  C 399.18 141.68 398.89 142.69 398.28 143.49
  Q 391.65 152.08 380.85 148.61
  A 1.47 1.47 19.7 0 1 379.93 146.67
  Q 382.32 140.71 384.66 134.86
  C 386.07 131.32 387.41 128.53 391.72 129.94"
/>
<path stroke="#515151" vector-effect="non-scaling-stroke" d="
  M 503.82 140.49
  Q 504.83 139.55 504.71 137.49
  C 504.26 129.79 492.06 135.77 498.49 141.33
  Q 504.72 146.73 513.31 142.31
  C 519.74 139.01 520.85 133.97 515.96 128.87
  C 513.10 125.89 508.91 119.53 514.77 117.49
  Q 517.69 116.48 516.96 119.49
  C 516.15 122.81 520.01 124.83 522.57 122.51
  C 528.79 116.86 506.58 111.15 505.31 124.88
  C 504.84 129.95 509.91 131.54 511.45 135.74
  C 513.20 140.50 508.87 143.14 504.59 142.73
  Q 501.73 142.46 503.82 140.49"
/>
<path stroke="#515151" vector-effect="non-scaling-stroke" d="
  M 545.62 116.77
  C 531.92 112.10 515.52 132.93 528.10 143.40
  Q 531.12 145.91 535.19 144.94
  Q 547.36 142.03 551.18 131.24
  C 553.38 124.99 552.44 119.09 545.62 116.77"
/>
<path stroke="#515151" vector-effect="non-scaling-stroke" d="
  M 462.51 132.05
  A 1.42 1.42 -63.2 0 1 461.89 130.15
  Q 465.36 123.21 469.69 118.69
  Q 470.33 118.01 469.91 117.54
  A 0.96 0.67 -25.4 0 0 469.02 117.39
  Q 456.51 121.18 453.25 133.25
  C 450.45 143.62 462.09 148.76 469.10 141.31
  A 0.66 0.47 -46.8 0 0 469.21 140.51
  C 468.87 140.19 465.39 142.13 464.75 142.37
  C 459.70 144.24 457.67 140.73 459.87 136.06
  Q 460.60 134.50 462.30 134.24
  C 467.29 133.48 474.89 130.73 477.19 125.69
  Q 479.64 120.30 474.50 117.75
  Q 471.33 116.18 472.94 119.06
  C 475.41 123.51 466.90 134.28 462.51 132.05"
/>
<path stroke="#515151" vector-effect="non-scaling-stroke" d="
  M 485.09 123.72
  Q 481.06 132.88 476.87 142.30
  A 0.94 0.94 17.7 0 0 477.55 143.61
  Q 480.27 144.13 483.45 143.53
  A 1.00 0.97 -81.9 0 0 484.16 142.98
  Q 488.54 133.80 492.96 124.63
  Q 494.95 120.49 497.51 123.78
  A 1.44 1.03 68.3 0 0 498.30 124.29
  C 501.80 124.83 505.64 119.66 501.19 117.56
  Q 498.82 116.45 496.94 118.69
  Q 495.58 120.30 493.90 121.09
  A 0.96 0.95 -19.5 0 1 492.57 120.46
  C 491.35 115.58 486.32 117.83 483.69 119.69
  Q 482.02 120.86 483.75 121.00
  C 485.60 121.15 485.75 122.23 485.09 123.72"
/>
<path stroke="#515151" vector-effect="non-scaling-stroke" d="
  M 576.48 120.13
  C 578.97 121.04 573.88 131.34 571.31 137.32
  C 567.84 145.41 576.16 144.82 580.29 141.70
  Q 581.82 140.55 579.90 140.57
  Q 577.30 140.60 578.38 138.22
  C 581.05 132.29 582.52 126.56 583.94 123.19
  C 586.73 116.53 579.14 117.14 575.37 118.37
  C 574.07 118.80 572.12 121.27 575.53 120.16
  A 1.70 1.09 -34.5 0 1 576.48 120.13"
/>
<path stroke="#515151" vector-effect="non-scaling-stroke" d="
  M 443.33 122.46
  L 436.26 140.35
  A 1.94 1.32 -48.4 0 0 436.14 141.30
  C 437.17 146.89 443.38 144.56 446.31 142.02
  A 1.06 0.68 -31.6 0 0 446.71 141.19
  Q 446.60 140.64 445.75 140.75
  Q 442.92 141.13 444.06 138.81
  Q 448.15 130.54 450.85 121.73
  A 1.57 1.33 -50.5 0 0 450.84 120.77
  C 449.08 115.87 442.95 117.79 439.96 120.00
  A 0.66 0.55 -33.7 0 0 439.73 120.78
  C 440.31 121.77 442.31 119.68 443.31 121.55
  A 1.16 0.96 -51.7 0 1 443.33 122.46"
/>
<path stroke="#515151" vector-effect="non-scaling-stroke" d="
  M 561.94 122.19
  L 553.62 141.92
  A 1.13 0.94 -77.0 0 0 554.40 143.48
  L 560.01 143.30
  A 2.29 1.88 -78.5 0 0 561.83 141.82
  Q 565.27 132.59 570.77 124.01
  C 571.35 123.11 572.82 122.03 570.30 121.69
  A 0.92 0.91 5.5 0 1 569.51 120.74
  C 569.77 116.15 562.48 117.86 560.14 118.76
  C 559.31 119.07 558.40 120.37 560.25 120.25
  Q 562.83 120.08 561.94 122.19"
/>
<path stroke="#515151" vector-effect="non-scaling-stroke" d="
  M 427.44 123.69
  C 425.18 129.44 422.95 135.49 420.06 140.95
  Q 417.95 144.95 425.11 143.72
  A 2.51 2.21 -78.4 0 0 426.79 142.45
  L 436.50 124.18
  A 0.69 0.63 -55.2 0 0 436.39 123.39
  L 435.19 122.27
  Q 434.83 121.93 434.66 121.47
  C 433.10 117.17 425.37 117.23 423.82 120.75
  Q 423.38 121.75 424.69 121.69
  Q 428.29 121.52 427.44 123.69"
/>
<path stroke="#515151" vector-effect="non-scaling-stroke" d="
  M 420.08 121.25
  C 417.13 115.97 410.66 119.13 407.29 122.34
  A 1.38 1.26 -21.4 0 0 406.87 123.19
  C 406.51 126.75 410.66 119.90 411.60 123.68
  C 412.13 125.78 405.80 138.87 404.53 141.81
  Q 403.38 144.47 406.06 144.30
  L 410.57 144.00
  A 1.21 1.03 -80.8 0 0 411.52 143.19
  Q 415.09 132.71 421.51 124.37
  C 422.39 123.23 423.33 121.87 420.82 121.70
  A 0.93 0.86 -11.5 0 1 420.08 121.25"
/>
<path stroke="#515151" vector-effect="non-scaling-stroke" d="
  M 266.31 144.59
  C 271.25 137.69 259.45 138.21 256.55 138.94
  A 0.72 0.70 -4.2 0 0 256.01 139.55
  Q 255.36 145.90 256.00 152.26
  A 1.27 1.25 -86.1 0 0 256.95 153.36
  C 261.19 154.43 271.88 152.59 266.32 145.39
  A 0.68 0.67 -46.3 0 1 266.31 144.59"
/>
<path stroke="#515151" vector-effect="non-scaling-stroke" d="
  M 273.76 150.85
  C 273.68 151.70 273.59 153.36 275.08 152.53
  A 0.80 0.72 72.5 0 0 275.43 151.76
  C 274.85 147.03 277.28 144.53 279.62 141.14
  C 281.28 138.74 279.28 138.23 278.15 140.21
  Q 277.10 142.03 275.74 143.96
  A 1.32 1.31 43.8 0 1 273.61 144.00
  Q 271.98 141.86 270.46 139.71
  C 269.67 138.58 268.01 138.72 269.01 140.46
  C 271.10 144.08 274.15 146.48 273.76 150.85"
/>
<path stroke="#515151" vector-effect="non-scaling-stroke" d="
  M 344.6622 132.3608
  A 21.74 20.67 3.8 0 0 324.3399 110.2954
  A 21.74 20.67 3.8 0 0 301.2778 129.4792
  A 21.74 20.67 3.8 0 0 321.6001 151.5446
  A 21.74 20.67 3.8 0 0 344.6622 132.3608"
/>
<path stroke="#515151" vector-effect="non-scaling-stroke" d="
  M 324.16 114.61
  A 0.94 0.94 11.3 0 0 325.17 113.94
  C 326.18 110.39 319.33 114.07 324.16 114.61"
/>
<path stroke="#515151" vector-effect="non-scaling-stroke" d="
  M 320.53 122.48
  Q 315.78 125.92 314.81 126.81
  C 309.80 131.48 311.41 137.09 316.90 140.01
  C 320.01 141.66 325.56 139.85 324.50 144.76
  A 1.64 1.64 -75.3 0 1 322.42 145.98
  C 320.72 145.45 317.01 146.24 319.25 148.91
  Q 320.38 150.26 322.02 149.65
  Q 326.40 148.03 326.51 142.34
  A 2.15 2.14 76.6 0 1 327.64 140.50
  C 331.83 138.26 335.80 134.49 332.92 129.20
  Q 330.97 125.61 326.39 125.26
  Q 323.81 125.07 324.43 122.56
  C 324.65 121.64 327.49 115.34 323.74 117.96
  A 0.50 0.50 55.2 0 1 323.03 117.83
  C 320.58 114.16 321.22 120.85 321.05 121.70
  A 1.33 1.24 -13.5 0 1 320.53 122.48"
/>
<path stroke="#515151" vector-effect="non-scaling-stroke" d="
  M 538.90 119.40
  C 534.70 124.68 529.21 134.05 529.55 140.94
  Q 529.70 144.00 532.69 143.35
  C 538.46 142.11 546.64 124.44 545.44 119.17
  A 1.31 1.28 11.5 0 0 544.91 118.39
  Q 541.54 116.08 538.90 119.40"
/>
<path stroke="#515151" vector-effect="non-scaling-stroke" d="
  M 321.25 124.50
  C 315.42 126.12 312.39 134.07 317.93 138.40
  C 318.27 138.67 321.34 140.42 319.63 138.10
  Q 314.02 130.50 321.46 125.34
  C 321.87 125.06 322.50 124.15 321.25 124.50"
/>
<path stroke="#515151" vector-effect="non-scaling-stroke" d="
  M 330.9405 133.3656
  A 5.49 5.18 7.7 0 0 326.1940 127.4967
  A 5.49 5.18 7.7 0 0 320.0595 131.8944
  A 5.49 5.18 7.7 0 0 324.8060 137.7633
  A 5.49 5.18 7.7 0 0 330.9405 133.3656"
/>
<path stroke="#515151" vector-effect="non-scaling-stroke" d="
  M 329.2700 132.6338
  A 3.56 2.95 -0.1 0 0 325.7049 129.6900
  A 3.56 2.95 -0.1 0 0 322.1500 132.6462
  A 3.56 2.95 -0.1 0 0 325.7151 135.5900
  A 3.56 2.95 -0.1 0 0 329.2700 132.6338"
/>
<path stroke="#515151" vector-effect="non-scaling-stroke" d="
  M 264.56 143.06
  Q 266.59 141.00 263.94 140.31
  Q 261.54 139.69 259.18 140.30
  A 1.45 1.26 7.4 0 0 258.38 140.83
  C 255.76 144.68 262.21 145.47 264.56 143.06"
/>
<path stroke="#515151" vector-effect="non-scaling-stroke" d="
  M 265.4401 148.7173
  A 2.06 2.06 0.0 0 0 263.4682 146.5729
  L 260.0911 146.4313
  A 2.06 2.06 0.0 0 0 257.9467 148.4032
  L 257.9199 149.0427
  A 2.06 2.06 0.0 0 0 259.8918 151.1871
  L 263.2689 151.3287
  A 2.06 2.06 0.0 0 0 265.4133 149.3568
  L 265.4401 148.7173"
/>
</g>
<path fill="#cbcbcc" d="
  M 586.39 5.75
  Q 583.65 6.87 581.02 6.67
  C 574.50 6.18 568.21 6.35 561.25 5.50
  Q 559.60 5.30 557.77 6.10
  A 0.91 0.69 84.6 0 0 557.33 6.81
  C 557.26 7.65 556.38 7.78 555.92 8.12
  C 552.72 10.48 551.45 8.03 548.55 7.92
  A 0.97 0.78 -10.4 0 1 547.79 7.51
  L 547.47 6.94
  A 1.03 0.90 77.0 0 0 546.76 6.43
  Q 537.56 5.03 528.25 4.77
  C 526.37 4.72 525.18 4.05 523.10 5.18
  Q 522.62 5.44 522.08 5.60
  Q 513.12 8.29 507.86 14.42
  Q 506.14 16.43 504.61 16.80
  Q 500.82 17.71 501.36 12.49
  L 504.04 14.91
  A 0.54 0.48 39.1 0 0 504.80 14.88
  Q 508.24 10.11 512.88 6.96
  C 522.91 0.16 542.46 1.04 552.58 7.48
  A 0.68 0.62 38.3 0 0 553.38 7.42
  L 556.37 4.47
  A 2.16 1.85 -66.5 0 1 557.62 3.86
  Q 572.84 2.43 586.39 5.75
  Z"
/>
<path fill="#dddcdd" d="
  M 484.07 4.11
  Q 480.07 5.55 475.50 5.29
  C 467.55 5.32 459.19 7.83 453.90 14.22
  A 5.14 5.07 9.3 0 1 451.71 15.77
  Q 449.67 16.52 450.70 14.37
  C 459.56 3.55 470.65 2.75 484.07 4.11
  Z"
/>
<path fill="#c6c6c6" d="
  M 484.07 4.11
  Q 489.85 4.21 495.00 7.29
  Q 494.95 9.03 493.56 8.44
  Q 486.25 5.32 478.92 7.11
  Q 476.25 7.76 475.50 5.29
  Q 480.07 5.55 484.07 4.11
  Z"
/>
<path fill="#a1a1a1" d="
  M 586.39 5.75
  Q 590.29 9.01 592.29 13.00
  Q 593.50 15.41 593.50 19.24
  Q 593.50 39.79 593.50 60.35
  C 593.50 67.39 594.08 72.51 585.75 72.49
  C 579.36 72.47 572.71 72.19 566.36 72.65
  C 563.97 72.83 562.29 71.06 560.97 69.55
  C 559.44 67.79 560.02 63.29 560.15 61.07
  Q 560.18 60.71 559.90 60.96
  L 559.25 61.54
  Q 554.63 61.87 552.08 65.65
  A 1.43 1.31 7.4 0 1 551.33 66.18
  Q 549.79 66.63 548.80 67.85
  A 1.48 0.96 -66.2 0 1 548.02 68.36
  L 541.24 69.45
  A 1.26 1.21 -75.1 0 0 540.47 69.92
  C 538.47 72.50 525.18 70.20 522.57 70.04
  Q 518.91 69.82 515.19 69.55
  Q 509.38 66.30 504.96 60.54
  Q 503.84 59.49 502.43 60.24
  A 0.99 0.50 88.0 0 0 502.08 60.99
  Q 502.00 61.87 500.32 62.81
  A 2.61 2.57 -89.3 0 0 499.33 63.79
  C 497.94 66.20 495.45 66.11 493.80 68.11
  A 1.42 1.27 -73.3 0 1 493.02 68.59
  C 488.99 69.30 463.67 73.99 462.64 69.18
  A 0.72 0.66 86.6 0 0 462.07 68.63
  Q 459.50 68.27 457.35 66.85
  A 1.40 1.26 56.2 0 0 456.44 66.62
  L 455.67 66.70
  A 1.46 1.15 49.6 0 1 454.88 66.54
  Q 453.64 65.90 454.99 67.55
  Q 453.01 70.45 450.65 72.21
  A 1.56 1.44 24.8 0 1 449.75 72.50
  L 438.50 72.46
  Q 436.60 72.64 436.67 71.25
  A 0.49 0.43 -88.1 0 0 436.24 70.73
  L 417.99 70.73
  A 1.96 1.19 -48.9 0 0 417.08 71.02
  C 413.41 73.27 410.86 71.20 407.71 71.13
  Q 403.82 71.05 399.99 72.03
  Q 391.32 66.41 392.71 56.25
  Q 394.01 54.77 393.39 53.03
  A 0.70 0.69 78.0 0 0 392.70 52.57
  L 381.18 53.38
  A 1.79 1.18 -56.7 0 0 380.30 53.76
  Q 375.78 57.43 369.57 53.50
  A 4.04 2.48 -20.2 0 0 367.38 53.06
  L 360.06 53.57
  A 1.32 1.22 -68.6 0 0 359.26 53.96
  L 357.33 55.97
  Q 357.55 57.80 356.34 59.15
  A 0.80 0.72 55.8 0 0 356.23 59.95
  Q 356.99 61.69 355.20 63.41
  A 0.28 0.28 38.8 0 0 355.25 63.85
  Q 356.90 64.84 356.21 66.55
  A 1.83 1.53 55.0 0 0 356.13 67.48
  C 356.78 71.06 341.75 71.09 339.50 71.02
  A 1.61 1.27 60.7 0 1 338.63 70.66
  C 336.22 68.65 329.74 69.98 327.00 70.79
  Q 324.43 68.33 323.25 64.85
  Q 321.95 64.85 321.17 65.24
  A 1.38 0.87 -83.7 0 0 320.59 65.97
  C 318.87 70.57 315.39 70.86 310.67 70.42
  C 303.34 69.74 296.37 71.24 289.36 71.14
  Q 280.15 71.00 270.99 71.77
  Q 267.16 69.72 267.50 64.71
  Q 264.81 63.68 261.21 67.30
  Q 261.02 67.49 260.77 67.60
  Q 252.08 71.37 242.70 70.61
  Q 233.97 69.90 233.74 69.90
  C 221.12 69.91 209.19 71.82 195.31 71.09
  A 0.69 0.65 -77.3 0 0 194.65 71.53
  L 194.41 72.15
  Q 191.34 68.64 190.51 65.06
  Q 190.29 62.54 188.95 63.15
  C 188.07 63.55 187.78 64.91 186.56 65.06
  Q 184.28 65.35 181.21 64.50
  L 182.36 59.86
  A 2.10 2.09 -83.5 0 1 184.35 58.27
  Q 188.47 58.19 191.70 58.09
  C 195.58 57.97 197.40 57.47 197.81 62.50
  Q 198.08 65.74 201.21 65.74
  L 216.08 65.72
  Q 218.32 65.72 217.60 63.56
  Q 211.41 45.01 204.99 26.31
  C 202.34 18.61 200.21 14.14 192.00 13.25
  C 185.22 12.51 179.59 15.14 177.32 21.63
  Q 170.22 41.96 162.94 63.67
  Q 162.29 65.60 164.32 65.77
  Q 171.92 66.40 180.50 65.46
  Q 182.56 66.96 185.03 66.17
  A 1.14 0.90 -33.2 0 1 185.93 66.25
  C 189.10 68.36 182.35 68.57 183.64 69.92
  A 0.98 0.67 36.7 0 1 183.92 70.74
  C 183.62 71.85 182.64 71.25 181.98 71.26
  C 173.34 71.46 164.72 69.89 156.55 70.05
  A 0.80 0.65 7.0 0 0 155.84 70.50
  C 155.41 71.72 157.81 70.31 157.81 71.45
  A 0.66 0.51 -2.3 0 1 157.19 71.97
  C 154.83 72.13 144.61 72.73 143.41 70.76
  A 0.90 0.79 71.7 0 0 142.68 70.33
  Q 138.13 70.47 132.22 68.84
  A 3.78 3.77 -9.3 0 1 130.10 67.32
  Q 129.43 66.33 128.04 67.50
  Q 126.02 66.89 125.13 68.72
  A 1.70 1.07 -80.6 0 1 124.50 69.43
  Q 122.47 70.48 119.25 70.75
  Q 105.56 71.89 94.25 70.21
  Q 88.50 70.51 82.75 70.75
  Q 81.20 70.81 80.39 70.54
  A 1.65 0.87 33.4 0 0 79.46 70.45
  Q 75.79 71.52 71.98 71.75
  C 70.12 71.87 67.18 73.25 65.33 72.18
  Q 63.13 70.91 60.59 71.00
  C 57.99 71.09 47.07 71.71 45.55 70.41
  Q 45.47 70.34 44.71 69.95
  Q 44.20 69.68 44.88 68.83
  Q 45.34 68.27 44.62 68.23
  Q 43.56 68.16 42.25 68.79
  C 41.50 67.87 41.85 65.06 40.77 65.37
  A 1.13 0.81 -82.5 0 0 40.14 66.04
  L 39.46 68.00
  C 35.39 67.63 35.48 70.27 32.77 71.50
  Q 31.23 72.19 29.51 72.25
  A 1.41 1.06 59.2 0 1 28.65 71.90
  C 27.21 70.67 25.48 71.50 24.19 71.50
  Q 15.69 71.52 7.26 70.98
  Q 4.78 69.24 5.46 66.75
  Q 6.40 67.23 8.22 64.69
  A 0.54 0.53 36.4 0 0 8.10 63.95
  Q 6.91 63.04 7.70 60.98
  Q 11.41 51.24 15.05 41.47
  C 15.57 40.06 15.47 38.10 16.90 36.59
  A 1.80 1.58 75.6 0 0 17.32 35.76
  C 18.54 29.61 21.67 23.81 23.35 17.72
  C 24.23 14.50 29.92 10.44 32.65 8.59
  A 1.50 1.47 -60.5 0 1 33.55 8.33
  Q 40.22 8.58 46.89 8.52
  C 49.55 8.50 51.59 9.43 54.06 10.19
  Q 54.70 11.33 55.96 9.40
  Q 57.35 11.48 58.81 13.13
  C 61.93 16.65 63.49 21.52 64.54 25.86
  Q 65.17 28.48 65.25 25.76
  L 65.46 19.00
  C 66.32 20.32 67.16 19.12 67.35 18.16
  Q 68.27 13.58 72.59 11.75
  Q 73.01 11.57 73.33 11.15
  C 74.93 9.05 101.81 9.38 106.34 9.74
  Q 110.69 10.10 115.04 9.52
  Q 119.36 11.57 123.07 15.90
  Q 122.48 17.31 123.94 17.24
  A 1.62 1.20 -60.0 0 0 124.82 16.86
  C 129.91 12.56 134.76 9.19 141.49 8.77
  Q 149.70 8.26 157.94 8.54
  A 1.52 1.19 61.9 0 1 158.80 8.92
  Q 161.20 11.09 163.94 8.18
  Q 166.38 10.72 166.32 13.45
  C 166.20 18.55 166.52 23.57 166.33 28.69
  Q 166.31 29.36 166.52 28.74
  L 168.00 24.46
  Q 168.41 25.33 168.00 26.25
  Q 167.05 28.37 169.00 27.00
  Q 170.19 26.16 170.08 24.74
  Q 170.04 24.31 170.23 23.80
  L 172.57 17.67
  A 1.64 1.29 88.7 0 1 173.12 16.94
  Q 173.91 16.41 174.19 15.56
  A 0.74 0.70 -81.8 0 1 174.82 15.06
  Q 176.86 14.97 177.14 13.19
  A 1.21 0.73 88.5 0 1 177.59 12.40
  L 182.79 9.46
  Q 183.08 9.29 183.53 8.83
  Q 184.16 8.19 185.75 8.25
  Q 194.24 8.59 202.82 8.89
  Q 210.32 14.50 212.69 23.94
  Q 212.84 24.54 212.86 23.94
  L 213.04 19.00
  C 216.29 21.74 213.85 15.19 217.70 14.50
  A 1.41 0.53 -3.2 0 0 218.57 14.12
  L 221.59 10.26
  Q 222.02 9.71 222.27 9.60
  C 225.44 8.22 227.58 8.71 230.83 8.78
  Q 242.30 9.01 253.76 9.64
  C 257.17 9.82 261.82 13.30 265.22 14.63
  Q 265.65 14.80 265.99 15.21
  C 268.24 17.96 269.14 13.65 270.42 12.37
  A 1.74 0.80 -33.0 0 0 270.92 11.58
  L 271.08 10.92
  A 0.93 0.81 -5.4 0 1 271.67 10.30
  Q 272.53 10.02 273.20 9.42
  A 1.51 1.12 -59.9 0 1 274.06 9.05
  C 281.99 8.81 288.86 10.27 297.56 9.29
  C 301.72 11.39 300.20 21.06 300.30 26.94
  Q 300.32 27.78 300.59 27.01
  L 301.04 25.75
  Q 302.22 26.59 303.22 25.68
  A 1.59 1.11 -60.1 0 1 304.07 25.28
  Q 308.30 24.96 304.30 24.05
  A 0.41 0.40 -71.1 0 1 304.03 23.48
  C 305.94 19.23 306.58 14.56 311.09 11.52
  A 1.28 0.64 -89.2 0 0 311.49 10.75
  C 311.67 9.88 315.63 8.59 316.73 8.22
  Q 319.14 7.39 321.78 7.43
  Q 329.86 7.54 337.74 9.47
  C 344.40 14.06 344.74 20.24 348.04 26.86
  C 346.50 28.10 348.55 28.49 349.35 28.53
  C 364.02 29.19 379.41 30.24 394.00 28.32
  A 0.95 0.86 6.9 0 0 394.72 27.81
  C 395.44 26.15 394.96 24.54 395.37 23.19
  C 396.22 20.37 398.61 18.23 399.92 16.51
  C 407.99 5.91 421.03 6.73 432.76 7.35
  Q 438.03 7.63 439.44 8.81
  Q 442.25 11.16 444.86 8.61
  L 450.70 14.37
  Q 449.67 16.52 451.71 15.77
  A 5.14 5.07 9.3 0 0 453.90 14.22
  C 459.19 7.83 467.55 5.32 475.50 5.29
  Q 476.25 7.76 478.92 7.11
  Q 486.25 5.32 493.56 8.44
  Q 494.95 9.03 495.00 7.29
  Q 499.04 9.06 501.36 12.49
  Q 500.82 17.71 504.61 16.80
  Q 506.14 16.43 507.86 14.42
  Q 513.12 8.29 522.08 5.60
  Q 522.62 5.44 523.10 5.18
  C 525.18 4.05 526.37 4.72 528.25 4.77
  Q 537.56 5.03 546.76 6.43
  A 1.03 0.90 77.0 0 1 547.47 6.94
  L 547.79 7.51
  A 0.97 0.78 -10.4 0 0 548.55 7.92
  C 551.45 8.03 552.72 10.48 555.92 8.12
  C 556.38 7.78 557.26 7.65 557.33 6.81
  A 0.91 0.69 84.6 0 1 557.77 6.10
  Q 559.60 5.30 561.25 5.50
  C 568.21 6.35 574.50 6.18 581.02 6.67
  Q 583.65 6.87 586.39 5.75
  Z
  M 508.69 25.19
  C 504.41 39.68 506.43 59.74 523.75 64.50
  C 536.66 68.05 553.51 63.04 557.21 48.44
  Q 560.18 36.74 556.50 25.25
  C 550.05 5.13 515.06 3.62 508.69 25.19
  Z
  M 453.28 26.96
  C 449.26 40.66 451.39 60.37 467.50 65.00
  C 481.13 68.91 497.37 64.17 501.25 49.00
  C 503.84 38.87 503.52 24.92 495.45 17.29
  C 488.85 11.05 477.84 9.53 469.23 11.69
  Q 456.85 14.80 453.28 26.96
  Z
  M 559.56 23.52
  Q 559.48 25.25 561.63 25.60
  L 565.84 26.28
  A 0.91 0.69 83.2 0 1 566.45 26.92
  Q 567.37 30.39 567.32 34.00
  Q 567.11 49.41 567.43 64.81
  A 0.53 0.51 89.4 0 0 567.94 65.33
  L 585.20 65.44
  A 1.09 1.06 -89.4 0 0 586.26 64.37
  Q 586.61 43.50 586.30 22.29
  C 586.08 7.72 570.93 11.00 561.58 11.00
  A 1.67 1.57 -88.7 0 0 560.01 12.60
  L 559.56 23.52
  Z
  M 427.99 50.74
  A 0.97 0.97 -22.2 0 1 428.56 49.39
  C 435.75 47.05 443.83 42.86 446.82 35.53
  C 450.13 27.39 446.98 18.01 438.56 14.69
  C 428.56 10.74 414.95 10.50 406.58 17.86
  C 403.02 21.00 399.48 26.70 400.34 31.81
  A 0.66 0.64 -2.1 0 0 400.94 32.35
  Q 409.25 32.90 418.15 31.93
  A 1.26 1.26 -0.6 0 0 419.27 30.79
  C 420.12 21.20 433.29 27.50 426.19 33.69
  Q 421.31 37.93 404.06 50.56
  C 396.70 55.96 399.18 65.44 408.25 65.50
  Q 427.53 65.64 446.82 65.32
  A 0.54 0.51 -0.0 0 0 447.35 64.82
  L 447.53 52.68
  A 1.17 1.10 1.0 0 0 446.38 51.56
  C 443.97 51.53 428.58 51.96 427.99 50.74
  Z
  M 307.68 30.25
  Q 301.64 46.84 296.01 63.71
  A 1.20 1.20 -79.0 0 0 297.07 65.29
  Q 305.41 65.82 312.87 65.19
  Q 315.36 64.97 315.67 62.49
  Q 316.24 57.82 319.75 57.95
  Q 324.66 58.14 329.56 58.41
  A 0.76 0.63 -3.6 0 1 330.24 58.90
  L 331.50 64.26
  A 1.39 1.19 83.6 0 0 332.63 65.32
  Q 341.97 65.83 350.32 65.32
  A 1.47 1.47 79.2 0 0 351.63 63.39
  Q 344.34 41.41 337.63 21.96
  C 334.72 13.52 323.82 9.83 316.50 14.61
  C 311.11 18.13 309.75 24.57 307.68 30.25
  Z
  M 46.82 58.87
  C 49.53 61.25 47.10 66.31 51.94 66.22
  C 56.66 66.14 63.91 66.89 68.68 65.43
  A 0.73 0.72 -17.7 0 0 69.16 64.51
  Q 62.19 42.96 55.06 22.23
  C 51.68 12.41 38.85 9.60 31.82 16.86
  Q 29.37 19.38 26.60 26.95
  Q 19.88 45.27 12.49 64.35
  A 1.03 1.02 13.2 0 0 13.36 65.74
  Q 19.62 66.26 25.78 65.90
  C 27.35 65.81 29.68 66.22 31.74 65.39
  A 1.26 0.74 -81.6 0 0 32.30 64.69
  L 34.19 59.30
  A 1.43 1.20 8.3 0 1 35.48 58.50
  L 45.95 58.55
  A 1.36 1.24 -22.3 0 1 46.82 58.87
  Z
  M 158.08 50.94
  C 135.57 53.83 134.76 27.64 153.75 28.50
  Q 156.61 28.63 158.71 28.28
  A 0.61 0.60 -5.2 0 0 159.21 27.69
  L 159.21 15.31
  A 0.73 0.70 9.9 0 0 158.72 14.64
  C 154.67 13.22 149.95 13.22 145.58 13.46
  C 134.79 14.03 125.05 22.14 122.14 32.19
  C 118.66 44.15 123.94 56.63 134.91 62.65
  C 141.47 66.26 149.36 67.11 156.94 66.44
  Q 159.73 66.19 159.58 63.67
  C 159.35 59.73 159.51 55.81 159.26 51.91
  A 1.04 1.04 84.4 0 0 158.08 50.94
  Z
  M 227.38 64.82
  C 238.31 66.60 252.27 67.07 261.58 59.59
  C 274.41 49.28 274.23 30.23 261.28 19.84
  C 252.02 12.41 240.78 14.05 228.81 13.82
  C 218.89 13.63 220.23 24.22 220.15 30.70
  Q 220.02 41.79 220.22 52.89
  C 220.33 58.70 220.33 63.67 227.38 64.82
  Z
  M 73.20 65.60
  Q 81.10 66.63 89.08 65.52
  A 0.77 0.77 -3.9 0 0 89.75 64.76
  L 90.00 29.27
  A 1.94 1.92 76.8 0 1 91.04 27.57
  C 98.41 23.82 104.55 32.85 97.27 36.55
  C 90.65 39.91 90.62 47.64 93.85 53.37
  C 96.03 57.24 98.00 61.23 100.24 65.06
  A 0.98 0.98 -13.0 0 0 101.01 65.54
  Q 110.71 66.28 119.84 65.49
  A 0.87 0.87 -19.2 0 0 120.49 64.15
  L 109.54 47.52
  Q 108.16 45.44 110.24 44.07
  C 118.28 38.75 122.53 27.59 115.62 19.70
  C 113.73 17.53 108.95 14.70 106.31 14.44
  Q 98.53 13.67 80.87 14.18
  C 74.80 14.36 72.55 17.83 72.44 23.76
  Q 72.08 43.70 72.26 64.53
  A 1.09 1.09 -86.3 0 0 73.20 65.60
  Z
  M 274.75 15.76
  C 274.82 31.64 274.17 47.59 274.75 63.50
  C 274.88 67.09 276.98 65.72 279.08 65.79
  Q 285.92 66.02 292.42 65.29
  A 0.95 0.94 86.6 0 0 293.25 64.35
  Q 293.25 41.25 293.29 18.25
  Q 293.29 16.51 292.46 14.72
  A 0.80 0.79 -11.9 0 0 291.73 14.25
  L 276.26 14.25
  A 1.51 1.50 -0.2 0 0 274.75 15.76
  Z
  M 147.96 40.25
  Q 148.06 41.46 149.25 41.71
  Q 148.39 42.75 148.85 43.98
  A 1.18 0.99 2.4 0 0 149.54 44.61
  C 153.83 46.08 162.29 47.34 164.28 41.90
  A 0.92 0.84 2.4 0 1 164.92 41.36
  Q 166.16 41.10 165.55 40.14
  A 0.82 0.77 44.2 0 1 165.51 39.33
  L 166.96 36.76
  A 0.41 0.38 -69.2 0 0 166.72 36.16
  L 164.25 35.71
  L 165.20 32.83
  Q 162.72 31.06 160.14 32.94
  A 1.89 1.56 -61.0 0 1 159.25 33.29
  C 154.87 33.65 149.31 33.74 146.70 37.95
  Q 145.25 40.30 147.96 40.25
  Z
  M 386.7977 35.4162
  A 1.39 1.39 0.0 0 0 385.3932 34.0408
  L 362.5545 34.2800
  A 1.39 1.39 0.0 0 0 361.1791 35.6845
  L 361.3023 47.4438
  A 1.39 1.39 0.0 0 0 362.7068 48.8192
  L 385.5455 48.5800
  A 1.39 1.39 0.0 0 0 386.9209 47.1755
  L 386.7977 35.4162
  Z"
/>
<path fill="#d4d3d3" d="
  M 444.86 8.61
  Q 442.25 11.16 439.44 8.81
  Q 438.03 7.63 432.76 7.35
  C 421.03 6.73 407.99 5.91 399.92 16.51
  C 398.61 18.23 396.22 20.37 395.37 23.19
  C 394.96 24.54 395.44 26.15 394.72 27.81
  A 0.95 0.86 6.9 0 1 394.00 28.32
  C 379.41 30.24 364.02 29.19 349.35 28.53
  C 348.55 28.49 346.50 28.10 348.04 26.86
  C 352.53 26.42 357.97 26.81 361.22 26.81
  C 371.40 26.81 381.69 27.61 392.31 26.61
  A 0.68 0.68 -86.0 0 0 392.92 26.08
  Q 395.03 17.38 401.23 11.91
  C 412.34 2.12 431.91 3.33 444.86 8.61
  Z"
/>
<path fill="#cbcbcc" d="
  M 337.74 9.47
  Q 329.86 7.54 321.78 7.43
  Q 319.14 7.39 316.73 8.22
  C 315.63 8.59 311.67 9.88 311.49 10.75
  A 1.28 0.64 -89.2 0 1 311.09 11.52
  C 306.58 14.56 305.94 19.23 304.03 23.48
  A 0.41 0.40 -71.1 0 0 304.30 24.05
  Q 308.30 24.96 304.07 25.28
  A 1.59 1.11 -60.1 0 0 303.22 25.68
  Q 302.22 26.59 301.04 25.75
  C 302.95 16.50 309.75 5.76 319.69 5.41
  C 325.75 5.19 333.07 4.78 337.74 9.47
  Z"
/>
<path fill="#cbcbcc" d="
  M 55.96 9.40
  Q 54.70 11.33 54.06 10.19
  C 51.59 9.43 49.55 8.50 46.89 8.52
  Q 40.22 8.58 33.55 8.33
  A 1.50 1.47 -60.5 0 0 32.65 8.59
  C 29.92 10.44 24.23 14.50 23.35 17.72
  C 21.67 23.81 18.54 29.61 17.32 35.76
  A 1.80 1.58 75.6 0 1 16.90 36.59
  C 15.47 38.10 15.57 40.06 15.05 41.47
  Q 11.41 51.24 7.70 60.98
  Q 6.91 63.04 8.10 63.95
  A 0.54 0.53 36.4 0 1 8.22 64.69
  Q 6.40 67.23 5.46 66.75
  L 5.32 61.49
  Q 5.31 60.85 5.43 60.53
  Q 17.79 28.82 20.00 22.00
  C 22.68 13.73 27.95 6.96 36.91 5.84
  Q 46.93 4.60 55.96 9.40
  Z"
/>
<path fill="#cbcbcc" d="
  M 202.82 8.89
  Q 194.24 8.59 185.75 8.25
  Q 184.16 8.19 183.53 8.83
  Q 183.08 9.29 182.79 9.46
  L 177.59 12.40
  A 1.21 0.73 88.5 0 0 177.14 13.19
  Q 176.86 14.97 174.82 15.06
  A 0.74 0.70 -81.8 0 0 174.19 15.56
  Q 173.91 16.41 173.12 16.94
  A 1.64 1.29 88.7 0 0 172.57 17.67
  L 170.23 23.80
  Q 170.04 24.31 170.08 24.74
  Q 170.19 26.16 169.00 27.00
  Q 167.05 28.37 168.00 26.25
  Q 168.41 25.33 168.00 24.46
  C 169.90 17.94 171.08 14.63 176.08 9.86
  C 181.50 4.70 196.90 4.48 202.82 8.89
  Z"
/>
<path fill="#d4d3d3" d="
  M 163.94 8.18
  Q 161.20 11.09 158.80 8.92
  A 1.52 1.19 61.9 0 0 157.94 8.54
  Q 149.70 8.26 141.49 8.77
  C 134.76 9.19 129.91 12.56 124.82 16.86
  A 1.62 1.20 -60.0 0 1 123.94 17.24
  Q 122.48 17.31 123.07 15.90
  Q 130.39 7.75 139.75 6.50
  Q 150.69 5.04 163.94 8.18
  Z"
/>
<path fill="#d4d3d3" d="
  M 297.56 9.29
  C 288.86 10.27 281.99 8.81 274.06 9.05
  A 1.51 1.12 -59.9 0 0 273.20 9.42
  Q 272.53 10.02 271.67 10.30
  A 0.93 0.81 -5.4 0 0 271.08 10.92
  L 270.92 11.58
  A 1.74 0.80 -33.0 0 1 270.42 12.37
  C 269.14 13.65 268.24 17.96 265.99 15.21
  Q 265.65 14.80 265.22 14.63
  C 261.82 13.30 257.17 9.82 253.76 9.64
  Q 242.30 9.01 230.83 8.78
  C 227.58 8.71 225.44 8.22 222.27 9.60
  Q 222.02 9.71 221.59 10.26
  L 218.57 14.12
  A 1.41 0.53 -3.2 0 1 217.70 14.50
  C 213.85 15.19 216.29 21.74 213.04 19.00
  C 213.41 13.82 216.64 10.78 220.92 7.60
  A 1.72 1.69 23.8 0 1 221.80 7.27
  Q 231.56 6.41 241.34 6.78
  Q 251.68 7.17 255.00 8.01
  Q 261.54 9.66 267.42 14.64
  Q 268.18 15.29 267.87 14.34
  Q 267.13 12.11 268.47 10.48
  C 270.99 7.42 271.71 7.25 275.61 7.25
  Q 285.23 7.25 294.85 7.25
  C 296.34 7.25 296.92 8.09 297.56 9.29
  Z"
/>
<path fill="#cbcbcc" d="
  M 115.04 9.52
  Q 110.69 10.10 106.34 9.74
  C 101.81 9.38 74.93 9.05 73.33 11.15
  Q 73.01 11.57 72.59 11.75
  Q 68.27 13.58 67.35 18.16
  C 67.16 19.12 66.32 20.32 65.46 19.00
  C 65.35 13.22 71.02 7.32 76.80 7.21
  Q 91.65 6.93 106.50 7.25
  Q 111.81 7.36 115.04 9.52
  Z"
/>
<path fill="#000000" d="
  M 508.69 25.19
  C 515.06 3.62 550.05 5.13 556.50 25.25
  Q 560.18 36.74 557.21 48.44
  C 553.51 63.04 536.66 68.05 523.75 64.50
  C 506.43 59.74 504.41 39.68 508.69 25.19
  Z
  M 534.25 24.25
  C 520.60 20.20 522.61 56.50 534.42 50.80
  C 542.03 47.13 542.31 26.64 534.25 24.25
  Z"
/>
<path fill="#000000" d="
  M 453.28 26.96
  Q 456.85 14.80 469.23 11.69
  C 477.84 9.53 488.85 11.05 495.45 17.29
  C 503.52 24.92 503.84 38.87 501.25 49.00
  C 497.37 64.17 481.13 68.91 467.50 65.00
  C 451.39 60.37 449.26 40.66 453.28 26.96
  Z
  M 476.9214 52.5383
  A 13.92 8.17 90.9 0 0 485.3090 38.7483
  A 13.92 8.17 90.9 0 0 477.3586 24.7017
  A 13.92 8.17 90.9 0 0 468.9710 38.4917
  A 13.92 8.17 90.9 0 0 476.9214 52.5383
  Z"
/>
<path fill="#000000" d="
  M 559.56 23.52
  L 560.01 12.60
  A 1.67 1.57 -88.7 0 1 561.58 11.00
  C 570.93 11.00 586.08 7.72 586.30 22.29
  Q 586.61 43.50 586.26 64.37
  A 1.09 1.06 -89.4 0 1 585.20 65.44
  L 567.94 65.33
  A 0.53 0.51 89.4 0 1 567.43 64.81
  Q 567.11 49.41 567.32 34.00
  Q 567.37 30.39 566.45 26.92
  A 0.91 0.69 83.2 0 0 565.84 26.28
  L 561.63 25.60
  Q 559.48 25.25 559.56 23.52
  Z"
/>
<path fill="#000000" d="
  M 427.99 50.74
  C 428.58 51.96 443.97 51.53 446.38 51.56
  A 1.17 1.10 1.0 0 1 447.53 52.68
  L 447.35 64.82
  A 0.54 0.51 -0.0 0 1 446.82 65.32
  Q 427.53 65.64 408.25 65.50
  C 399.18 65.44 396.70 55.96 404.06 50.56
  Q 421.31 37.93 426.19 33.69
  C 433.29 27.50 420.12 21.20 419.27 30.79
  A 1.26 1.26 -0.6 0 1 418.15 31.93
  Q 409.25 32.90 400.94 32.35
  A 0.66 0.64 -2.1 0 1 400.34 31.81
  C 399.48 26.70 403.02 21.00 406.58 17.86
  C 414.95 10.50 428.56 10.74 438.56 14.69
  C 446.98 18.01 450.13 27.39 446.82 35.53
  C 443.83 42.86 435.75 47.05 428.56 49.39
  A 0.97 0.97 -22.2 0 0 427.99 50.74
  Z"
/>
<path fill="#000000" d="
  M 307.68 30.25
  C 309.75 24.57 311.11 18.13 316.50 14.61
  C 323.82 9.83 334.72 13.52 337.63 21.96
  Q 344.34 41.41 351.63 63.39
  A 1.47 1.47 79.2 0 1 350.32 65.32
  Q 341.97 65.83 332.63 65.32
  A 1.39 1.19 83.6 0 1 331.50 64.26
  L 330.24 58.90
  A 0.76 0.63 -3.6 0 0 329.56 58.41
  Q 324.66 58.14 319.75 57.95
  Q 316.24 57.82 315.67 62.49
  Q 315.36 64.97 312.87 65.19
  Q 305.41 65.82 297.07 65.29
  A 1.20 1.20 -79.0 0 1 296.01 63.71
  Q 301.64 46.84 307.68 30.25
  Z
  M 320.04 45.08
  A 1.11 1.11 -82.9 0 0 321.09 46.43
  L 326.30 46.58
  A 1.11 1.11 86.4 0 0 327.43 45.30
  L 325.23 31.40
  A 1.11 1.11 -89.8 0 0 323.05 31.34
  L 320.04 45.08
  Z"
/>
<path fill="#000000" d="
  M 45.95 58.55
  L 35.48 58.50
  A 1.43 1.20 8.3 0 0 34.19 59.30
  L 32.30 64.69
  A 1.26 0.74 -81.6 0 1 31.74 65.39
  C 29.68 66.22 27.35 65.81 25.78 65.90
  Q 19.62 66.26 13.36 65.74
  A 1.03 1.02 13.2 0 1 12.49 64.35
  Q 19.88 45.27 26.60 26.95
  Q 29.37 19.38 31.82 16.86
  C 38.85 9.60 51.68 12.41 55.06 22.23
  Q 62.19 42.96 69.16 64.51
  A 0.73 0.72 -17.7 0 1 68.68 65.43
  C 63.91 66.89 56.66 66.14 51.94 66.22
  C 47.10 66.31 49.53 61.25 46.82 58.87
  A 1.36 1.24 -22.3 0 0 45.95 58.55
  Z
  M 41.52 30.42
  C 40.00 29.90 37.63 42.36 37.25 44.00
  Q 36.49 47.26 39.73 46.50
  Q 41.11 46.18 42.48 46.50
  Q 44.86 47.03 44.54 44.78
  Q 43.58 38.01 42.15 31.14
  A 0.97 0.96 -86.2 0 0 41.52 30.42
  Z"
/>
<path fill="#000000" d="
  M 181.21 64.50
  Q 181.00 65.14 180.50 65.46
  Q 171.92 66.40 164.32 65.77
  Q 162.29 65.60 162.94 63.67
  Q 170.22 41.96 177.32 21.63
  C 179.59 15.14 185.22 12.51 192.00 13.25
  C 200.21 14.14 202.34 18.61 204.99 26.31
  Q 211.41 45.01 217.60 63.56
  Q 218.32 65.72 216.08 65.72
  L 201.21 65.74
  Q 198.08 65.74 197.81 62.50
  C 197.40 57.47 195.58 57.97 191.70 58.09
  Q 188.47 58.19 184.35 58.27
  A 2.10 2.09 -83.5 0 0 182.36 59.86
  L 181.21 64.50
  Z
  M 186.78 46.51
  L 192.59 46.41
  A 1.55 1.33 82.2 0 0 193.81 44.53
  L 190.75 31.00
  Q 190.02 27.76 189.25 30.75
  L 185.62 44.88
  A 1.30 1.21 -82.7 0 0 186.78 46.51
  Z"
/>
<path fill="#000000" d="
  M 158.08 50.94
  A 1.04 1.04 84.4 0 1 159.26 51.91
  C 159.51 55.81 159.35 59.73 159.58 63.67
  Q 159.73 66.19 156.94 66.44
  C 149.36 67.11 141.47 66.26 134.91 62.65
  C 123.94 56.63 118.66 44.15 122.14 32.19
  C 125.05 22.14 134.79 14.03 145.58 13.46
  C 149.95 13.22 154.67 13.22 158.72 14.64
  A 0.73 0.70 9.9 0 1 159.21 15.31
  L 159.21 27.69
  A 0.61 0.60 -5.2 0 1 158.71 28.28
  Q 156.61 28.63 153.75 28.50
  C 134.76 27.64 135.57 53.83 158.08 50.94
  Z"
/>
<path fill="#000000" d="
  M 227.38 64.82
  C 220.33 63.67 220.33 58.70 220.22 52.89
  Q 220.02 41.79 220.15 30.70
  C 220.23 24.22 218.89 13.63 228.81 13.82
  C 240.78 14.05 252.02 12.41 261.28 19.84
  C 274.23 30.23 274.41 49.28 261.58 59.59
  C 252.27 67.07 238.31 66.60 227.38 64.82
  Z
  M 239.42 50.06
  C 256.06 50.98 256.88 27.55 239.88 27.50
  A 1.37 1.37 0.2 0 0 238.50 28.87
  L 238.56 49.16
  A 0.91 0.90 1.7 0 0 239.42 50.06
  Z"
/>
<path fill="#000000" d="
  M 73.20 65.60
  A 1.09 1.09 -86.3 0 1 72.26 64.53
  Q 72.08 43.70 72.44 23.76
  C 72.55 17.83 74.80 14.36 80.87 14.18
  Q 98.53 13.67 106.31 14.44
  C 108.95 14.70 113.73 17.53 115.62 19.70
  C 122.53 27.59 118.28 38.75 110.24 44.07
  Q 108.16 45.44 109.54 47.52
  L 120.49 64.15
  A 0.87 0.87 -19.2 0 1 119.84 65.49
  Q 110.71 66.28 101.01 65.54
  A 0.98 0.98 -13.0 0 1 100.24 65.06
  C 98.00 61.23 96.03 57.24 93.85 53.37
  C 90.62 47.64 90.65 39.91 97.27 36.55
  C 104.55 32.85 98.41 23.82 91.04 27.57
  A 1.94 1.92 76.8 0 0 90.00 29.27
  L 89.75 64.76
  A 0.77 0.77 -3.9 0 1 89.08 65.52
  Q 81.10 66.63 73.20 65.60
  Z"
/>
<path fill="#000000" d="
  M 274.75 63.50
  C 274.17 47.59 274.82 31.64 274.75 15.76
  A 1.51 1.50 -0.2 0 1 276.26 14.25
  L 291.73 14.25
  A 0.80 0.79 -11.9 0 1 292.46 14.72
  Q 293.29 16.51 293.29 18.25
  Q 293.25 41.25 293.25 64.35
  A 0.95 0.94 86.6 0 1 292.42 65.29
  Q 285.92 66.02 279.08 65.79
  C 276.98 65.72 274.88 67.09 274.75 63.50
  Z"
/>
<path fill="#a1a1a1" d="
  M 534.42 50.80
  C 522.61 56.50 520.60 20.20 534.25 24.25
  C 542.31 26.64 542.03 47.13 534.42 50.80
  Z"
/>
<ellipse fill="#a2a2a2" cx="0.00" cy="0.00" transform="translate(477.14,38.62) rotate(90.9)" rx="13.92" ry="8.17"/>
<path fill="#a1a1a1" d="
  M 239.42 50.06
  A 0.91 0.90 1.7 0 1 238.56 49.16
  L 238.50 28.87
  A 1.37 1.37 0.2 0 1 239.88 27.50
  C 256.88 27.55 256.06 50.98 239.42 50.06
  Z"
/>
<path fill="#a1a1a1" d="
  M 186.78 46.51
  A 1.30 1.21 -82.7 0 1 185.62 44.88
  L 189.25 30.75
  Q 190.02 27.76 190.75 31.00
  L 193.81 44.53
  A 1.55 1.33 82.2 0 1 192.59 46.41
  L 186.78 46.51
  Z"
/>
<path fill="#a1a1a1" d="
  M 41.52 30.42
  A 0.97 0.96 -86.2 0 1 42.15 31.14
  Q 43.58 38.01 44.54 44.78
  Q 44.86 47.03 42.48 46.50
  Q 41.11 46.18 39.73 46.50
  Q 36.49 47.26 37.25 44.00
  C 37.63 42.36 40.00 29.90 41.52 30.42
  Z"
/>
<path fill="#a1a1a1" d="
  M 320.04 45.08
  L 323.05 31.34
  A 1.11 1.11 84.2 0 1 325.23 31.40
  L 327.43 45.30
  A 1.11 1.11 86.9 0 1 326.30 46.58
  L 321.09 46.43
  A 1.11 1.11 -82.3 0 1 320.04 45.08
  Z"
/>
<path fill="#898989" d="
  M 165.20 32.83
  L 162.84 35.13
  A 1.14 1.01 -62.4 0 1 162.00 35.45
  C 158.15 35.10 148.39 35.47 147.96 40.25
  Q 145.25 40.30 146.70 37.95
  C 149.31 33.74 154.87 33.65 159.25 33.29
  A 1.89 1.56 -61.0 0 0 160.14 32.94
  Q 162.72 31.06 165.20 32.83
  Z"
/>
<rect fill="#000000" x="-12.81" y="-7.27" transform="translate(374.05,41.43) rotate(-0.6)" width="25.62" height="14.54" rx="1.39"/>
<path fill="#c6c6c6" d="
  M 164.25 35.71
  L 166.72 36.16
  A 0.41 0.38 -69.2 0 1 166.96 36.76
  L 165.51 39.33
  A 0.82 0.77 44.2 0 0 165.55 40.14
  Q 166.16 41.10 164.92 41.36
  A 0.92 0.84 2.4 0 0 164.28 41.90
  C 162.29 47.34 153.83 46.08 149.54 44.61
  A 1.18 0.99 2.4 0 1 148.85 43.98
  Q 148.39 42.75 149.25 41.71
  Q 154.71 44.85 160.96 43.54
  A 0.94 0.80 -83.3 0 0 161.59 42.96
  L 164.25 35.71
  Z"
/>
<path fill="#909090" d="
  M 392.71 56.25
  L 357.75 56.04
  L 357.33 55.97
  L 359.26 53.96
  A 1.32 1.22 -68.6 0 1 360.06 53.57
  L 367.38 53.06
  A 4.04 2.48 -20.2 0 1 369.57 53.50
  Q 375.78 57.43 380.30 53.76
  A 1.79 1.18 -56.7 0 1 381.18 53.38
  L 392.70 52.57
  A 0.70 0.69 78.0 0 1 393.39 53.03
  Q 394.01 54.77 392.71 56.25
  Z"
/>
<path fill="#909090" d="
  M 357.33 55.97
  L 357.75 56.04
  Q 359.33 62.22 358.62 68.57
  A 1.40 1.36 72.3 0 1 358.20 69.41
  L 355.31 72.10
  A 1.29 1.21 -64.8 0 1 354.43 72.45
  L 328.93 72.33
  A 1.19 1.09 -19.6 0 1 328.08 71.97
  L 327.00 70.79
  C 329.74 69.98 336.22 68.65 338.63 70.66
  A 1.61 1.27 60.7 0 0 339.50 71.02
  C 341.75 71.09 356.78 71.06 356.13 67.48
  A 1.83 1.53 55.0 0 1 356.21 66.55
  Q 356.90 64.84 355.25 63.85
  A 0.28 0.28 38.8 0 1 355.20 63.41
  Q 356.99 61.69 356.23 59.95
  A 0.80 0.72 55.8 0 1 356.34 59.15
  Q 357.55 57.80 357.33 55.97
  Z"
/>
<path fill="#898989" d="
  M 504.96 60.54
  C 499.08 68.88 491.96 72.51 481.44 73.23
  C 471.98 73.87 462.76 73.53 454.99 67.55
  Q 453.64 65.90 454.88 66.54
  A 1.46 1.15 49.6 0 0 455.67 66.70
  L 456.44 66.62
  A 1.40 1.26 56.2 0 1 457.35 66.85
  Q 459.50 68.27 462.07 68.63
  A 0.72 0.66 86.6 0 1 462.64 69.18
  C 463.67 73.99 488.99 69.30 493.02 68.59
  A 1.42 1.27 -73.3 0 0 493.80 68.11
  C 495.45 66.11 497.94 66.20 499.33 63.79
  A 2.61 2.57 -89.3 0 1 500.32 62.81
  Q 502.00 61.87 502.08 60.99
  A 0.99 0.50 88.0 0 1 502.43 60.24
  Q 503.84 59.49 504.96 60.54
  Z"
/>
<path fill="#898989" d="
  M 559.25 61.54
  Q 550.63 72.44 536.50 72.49
  C 528.91 72.51 522.19 73.26 515.19 69.55
  Q 518.91 69.82 522.57 70.04
  C 525.18 70.20 538.47 72.50 540.47 69.92
  A 1.26 1.21 -75.1 0 1 541.24 69.45
  L 548.02 68.36
  A 1.48 0.96 -66.2 0 0 548.80 67.85
  Q 549.79 66.63 551.33 66.18
  A 1.43 1.31 7.4 0 0 552.08 65.65
  Q 554.63 61.87 559.25 61.54
  Z"
/>
<path fill="#898989" d="
  M 190.51 65.06
  Q 189.09 64.77 188.75 66.25
  C 187.90 69.95 185.25 72.71 181.19 72.81
  Q 173.76 72.99 166.33 73.15
  C 154.09 73.40 138.94 76.18 128.25 67.96
  Q 128.08 67.74 128.04 67.50
  Q 129.43 66.33 130.10 67.32
  A 3.78 3.77 -9.3 0 0 132.22 68.84
  Q 138.13 70.47 142.68 70.33
  A 0.90 0.79 71.7 0 1 143.41 70.76
  C 144.61 72.73 154.83 72.13 157.19 71.97
  A 0.66 0.51 -2.3 0 0 157.81 71.45
  C 157.81 70.31 155.41 71.72 155.84 70.50
  A 0.80 0.65 7.0 0 1 156.55 70.05
  C 164.72 69.89 173.34 71.46 181.98 71.26
  C 182.64 71.25 183.62 71.85 183.92 70.74
  A 0.98 0.67 36.7 0 0 183.64 69.92
  C 182.35 68.57 189.10 68.36 185.93 66.25
  A 1.14 0.90 -33.2 0 0 185.03 66.17
  Q 182.56 66.96 180.50 65.46
  Q 181.00 65.14 181.21 64.50
  Q 184.28 65.35 186.56 65.06
  C 187.78 64.91 188.07 63.55 188.95 63.15
  Q 190.29 62.54 190.51 65.06
  Z"
/>
<path fill="#898989" d="
  M 267.50 64.71
  C 257.42 75.24 240.84 73.02 227.00 72.50
  Q 224.84 72.42 223.46 71.93
  A 1.71 1.21 38.4 0 0 222.51 71.88
  C 221.55 72.16 221.29 72.53 220.20 72.61
  Q 207.28 73.67 194.41 72.15
  L 194.65 71.53
  A 0.69 0.65 -77.3 0 1 195.31 71.09
  C 209.19 71.82 221.12 69.91 233.74 69.90
  Q 233.97 69.90 242.70 70.61
  Q 252.08 71.37 260.77 67.60
  Q 261.02 67.49 261.21 67.30
  Q 264.81 63.68 267.50 64.71
  Z"
/>
<path fill="#848485" d="
  M 323.25 64.85
  C 322.25 68.61 319.90 72.20 315.66 72.30
  Q 294.87 72.74 274.08 72.99
  C 272.58 73.01 271.83 73.67 270.99 71.77
  Q 280.15 71.00 289.36 71.14
  C 296.37 71.24 303.34 69.74 310.67 70.42
  C 315.39 70.86 318.87 70.57 320.59 65.97
  A 1.38 0.87 -83.7 0 1 321.17 65.24
  Q 321.95 64.85 323.25 64.85
  Z"
/>
<path fill="#848485" d="
  M 128.04 67.50
  Q 128.08 67.74 128.25 67.96
  Q 125.68 72.99 120.32 72.88
  C 112.66 72.73 105.25 73.14 97.57 72.72
  A 1.40 1.23 66.6 0 1 96.72 72.32
  Q 95.57 71.16 94.04 70.75
  Q 93.89 70.31 94.25 70.21
  Q 105.56 71.89 119.25 70.75
  Q 122.47 70.48 124.50 69.43
  A 1.70 1.07 -80.6 0 0 125.13 68.72
  Q 126.02 66.89 128.04 67.50
  Z"
/>
<path fill="#848485" d="
  M 39.46 68.00
  Q 36.64 73.47 30.60 73.14
  C 24.76 72.82 18.85 73.00 13.00 73.00
  Q 8.90 73.00 7.26 70.98
  Q 15.69 71.52 24.19 71.50
  C 25.48 71.50 27.21 70.67 28.65 71.90
  A 1.41 1.06 59.2 0 0 29.51 72.25
  Q 31.23 72.19 32.77 71.50
  C 35.48 70.27 35.39 67.63 39.46 68.00
  Z"
/>
<path fill="#898989" d="
  M 94.25 70.21
  Q 93.89 70.31 94.04 70.75
  Q 93.67 72.69 91.75 72.75
  Q 72.57 73.31 48.55 72.97
  C 45.39 72.92 43.81 71.20 42.25 68.79
  Q 43.56 68.16 44.62 68.23
  Q 45.34 68.27 44.88 68.83
  Q 44.20 69.68 44.71 69.95
  Q 45.47 70.34 45.55 70.41
  C 47.07 71.71 57.99 71.09 60.59 71.00
  Q 63.13 70.91 65.33 72.18
  C 67.18 73.25 70.12 71.87 71.98 71.75
  Q 75.79 71.52 79.46 70.45
  A 1.65 0.87 33.4 0 1 80.39 70.54
  Q 81.20 70.81 82.75 70.75
  Q 88.50 70.51 94.25 70.21
  Z"
/>
<path fill="#898989" d="
  M 438.50 72.46
  Q 419.23 72.88 399.99 72.03
  Q 403.82 71.05 407.71 71.13
  C 410.86 71.20 413.41 73.27 417.08 71.02
  A 1.96 1.19 -48.9 0 1 417.99 70.73
  L 436.24 70.73
  A 0.49 0.43 -88.1 0 1 436.67 71.25
  Q 436.60 72.64 438.50 72.46
  Z"
/>
<path fill="#cbcbcc" d="
  M 79.49 77.34
  Q 71.53 78.54 67.69 78.44
  Q 57.34 78.16 46.98 78.18
  C 42.65 78.19 35.54 76.09 33.62 82.11
  C 32.72 84.92 31.62 87.37 30.66 90.04
  A 1.13 0.88 43.5 0 0 30.79 90.90
  Q 31.37 91.85 30.31 92.02
  A 0.89 0.76 2.6 0 0 29.65 92.54
  Q 28.16 96.97 26.26 101.25
  C 25.07 103.91 24.36 106.99 23.05 109.77
  Q 22.27 111.44 21.84 113.21
  C 21.01 116.64 18.92 118.98 18.23 122.68
  C 17.79 125.03 16.59 126.31 15.56 128.31
  Q 14.83 129.73 14.56 131.56
  Q 14.50 132.00 14.68 132.36
  A 0.51 0.45 58.6 0 1 14.57 133.00
  Q 13.12 133.99 13.21 136.00
  C 11.53 138.25 11.81 140.98 10.25 143.46
  C 8.68 143.90 10.17 145.85 9.73 146.06
  A 3.07 3.07 83.7 0 0 8.06 148.15
  Q 7.52 150.55 5.41 149.70
  Q 18.88 115.07 32.06 80.31
  Q 32.73 78.56 36.09 76.28
  A 1.64 1.52 25.7 0 1 37.00 76.00
  Q 56.59 76.00 76.18 76.00
  C 77.71 76.00 78.78 75.56 79.49 77.34
  Z"
/>
<path fill="#cbcbcc" d="
  M 129.80 76.70
  Q 130.07 79.78 127.49 79.65
  Q 125.53 79.56 123.57 79.46
  A 0.82 0.65 77.2 0 1 122.95 78.96
  Q 122.64 78.20 121.52 78.49
  Q 120.20 78.84 118.87 78.57
  C 112.03 77.20 106.05 78.95 97.32 78.70
  A 1.95 1.15 50.0 0 1 96.41 78.38
  C 94.43 77.08 89.75 77.89 87.99 78.16
  A 1.76 1.49 -67.6 0 0 87.14 78.60
  C 86.34 79.37 84.21 82.25 83.21 80.00
  Q 84.66 77.77 86.84 76.28
  A 1.68 1.42 23.3 0 1 87.76 76.00
  Q 108.25 76.00 128.75 75.96
  Q 129.83 75.96 129.80 76.70
  Z"
/>
<path fill="#c6c6c6" d="
  M 181.79 76.75
  C 180.94 77.37 179.06 79.18 178.05 78.16
  A 1.22 0.75 57.2 0 0 177.26 77.78
  Q 159.54 78.78 141.82 77.98
  Q 139.92 77.90 139.28 80.33
  A 0.66 0.65 5.9 0 1 138.67 80.82
  Q 135.97 80.89 135.98 83.50
  A 1.70 1.01 74.5 0 1 135.73 84.42
  Q 134.92 85.55 133.57 85.67
  A 0.59 0.56 -7.3 0 1 132.93 85.20
  Q 132.82 84.46 133.21 83.75
  Q 133.98 79.91 137.81 76.71
  A 3.06 3.05 25.0 0 1 139.77 76.00
  Q 160.50 76.00 180.50 76.05
  Q 181.34 76.06 181.79 76.75
  Z"
/>
<path fill="#a1a1a1" d="
  M 129.80 76.70
  Q 131.74 77.99 132.75 79.57
  A 1.21 0.95 -57.7 0 1 132.84 80.47
  Q 132.33 82.18 133.21 83.75
  Q 132.82 84.46 132.93 85.20
  A 0.59 0.56 -7.3 0 0 133.57 85.67
  Q 134.92 85.55 135.73 84.42
  A 1.70 1.01 74.5 0 0 135.98 83.50
  Q 135.97 80.89 138.67 80.82
  A 0.66 0.65 5.9 0 0 139.28 80.33
  Q 139.92 77.90 141.82 77.98
  Q 159.54 78.78 177.26 77.78
  A 1.22 0.75 57.2 0 1 178.05 78.16
  C 179.06 79.18 180.94 77.37 181.79 76.75
  Q 185.39 78.86 184.46 83.00
  Q 183.41 82.65 182.44 83.03
  A 0.44 0.41 -30.4 0 0 182.24 83.69
  Q 182.51 84.01 182.94 84.07
  A 0.57 0.47 5.3 0 1 183.43 84.56
  Q 183.30 87.70 181.49 90.28
  A 1.34 1.11 8.5 0 1 180.70 90.76
  Q 178.64 91.15 180.32 92.24
  A 0.55 0.45 -60.9 0 1 180.44 92.89
  L 179.38 95.01
  A 1.38 0.84 -76.7 0 1 178.77 95.63
  Q 177.94 95.94 178.31 96.64
  A 1.32 1.30 -49.2 0 1 178.38 97.72
  Q 176.56 102.56 175.09 106.77
  C 174.60 108.19 175.05 110.35 172.52 110.26
  A 0.23 0.22 79.6 0 0 172.31 110.57
  Q 173.15 112.62 172.18 113.73
  Q 171.79 114.16 171.71 114.56
  Q 170.94 118.37 169.36 121.86
  Q 167.73 125.49 166.79 128.39
  Q 165.62 132.02 163.88 135.44
  C 163.33 136.53 162.31 136.83 162.76 138.53
  A 1.38 1.37 51.1 0 1 162.66 139.49
  Q 160.91 143.00 159.96 146.22
  C 158.86 149.92 156.80 152.96 155.81 156.06
  Q 154.75 159.40 151.50 159.00
  Q 132.49 156.69 112.79 159.35
  A 2.16 2.16 -19.3 0 1 110.65 158.32
  Q 109.67 156.72 108.29 155.75
  Q 108.47 154.45 107.91 152.89
  Q 108.77 151.91 108.61 150.74
  Q 108.55 150.30 108.29 150.71
  Q 107.89 151.35 107.06 151.36
  A 1.49 0.81 12.4 0 0 106.16 151.62
  Q 104.72 152.88 104.41 155.50
  Q 104.12 157.98 101.62 158.01
  Q 95.86 158.10 89.70 158.18
  C 81.99 158.28 71.20 159.38 62.75 158.25
  Q 58.74 157.72 56.96 157.65
  L 56.60 153.31
  Q 55.68 154.30 54.44 154.34
  A 0.81 0.75 11.1 0 0 53.74 154.77
  C 52.45 157.60 50.55 158.53 47.31 158.31
  Q 41.61 157.91 33.75 159.25
  Q 29.14 160.04 22.73 158.38
  A 1.74 1.57 -43.9 0 0 21.77 158.41
  Q 16.44 160.08 9.37 159.00
  A 2.95 2.94 81.2 0 1 7.17 157.39
  Q 6.91 156.85 5.50 156.46
  L 5.41 149.70
  Q 7.52 150.55 8.06 148.15
  A 3.07 3.07 83.7 0 1 9.73 146.06
  C 10.17 145.85 8.68 143.90 10.25 143.46
  Q 10.71 143.88 10.93 144.46
  A 0.66 0.62 77.8 0 0 11.55 144.89
  Q 13.97 144.75 14.96 147.00
  Q 14.21 149.98 12.63 152.31
  Q 11.60 153.82 13.43 153.82
  L 47.46 153.75
  A 0.81 0.78 9.9 0 0 48.21 153.24
  L 74.84 84.11
  A 0.82 0.82 -79.4 0 0 74.08 83.00
  L 40.15 83.00
  A 0.69 0.68 10.6 0 0 39.51 83.43
  L 17.54 140.25
  Q 16.40 138.06 13.99 138.61
  A 0.51 0.41 -9.6 0 1 13.37 138.27
  L 13.21 136.00
  Q 13.12 133.99 14.57 133.00
  A 0.51 0.45 58.6 0 0 14.68 132.36
  Q 14.50 132.00 14.56 131.56
  Q 14.83 129.73 15.56 128.31
  C 16.59 126.31 17.79 125.03 18.23 122.68
  C 18.92 118.98 21.01 116.64 21.84 113.21
  Q 22.27 111.44 23.05 109.77
  C 24.36 106.99 25.07 103.91 26.26 101.25
  Q 28.16 96.97 29.65 92.54
  A 0.89 0.76 2.6 0 1 30.31 92.02
  Q 31.37 91.85 30.79 90.90
  A 1.13 0.88 43.5 0 1 30.66 90.04
  C 31.62 87.37 32.72 84.92 33.62 82.11
  C 35.54 76.09 42.65 78.19 46.98 78.18
  Q 57.34 78.16 67.69 78.44
  Q 71.53 78.54 79.49 77.34
  Q 82.01 78.52 82.18 81.31
  Q 82.21 81.86 82.55 81.49
  Q 83.09 80.90 83.21 80.00
  C 84.21 82.25 86.34 79.37 87.14 78.60
  A 1.76 1.49 -67.6 0 1 87.99 78.16
  C 89.75 77.89 94.43 77.08 96.41 78.38
  A 1.95 1.15 50.0 0 0 97.32 78.70
  C 106.05 78.95 112.03 77.20 118.87 78.57
  Q 120.20 78.84 121.52 78.49
  Q 122.64 78.20 122.95 78.96
  A 0.82 0.65 77.2 0 0 123.57 79.46
  Q 125.53 79.56 127.49 79.65
  Q 130.07 79.78 129.80 76.70
  Z
  M 98.41 153.82
  A 0.70 0.69 -79.6 0 0 99.06 153.37
  L 125.78 83.78
  A 0.58 0.57 10.5 0 0 125.24 83.00
  L 91.03 83.00
  A 0.87 0.86 10.2 0 0 90.22 83.56
  L 63.40 153.04
  A 0.52 0.52 10.7 0 0 63.89 153.75
  L 98.41 153.82
  Z
  M 115.47 153.81
  L 149.80 153.75
  A 0.81 0.80 10.7 0 0 150.55 153.24
  Q 163.24 120.46 175.38 88.25
  Q 176.12 86.27 177.46 84.17
  Q 178.20 83.00 176.82 83.00
  L 143.08 83.00
  A 1.70 1.69 10.6 0 0 141.50 84.08
  L 114.95 153.06
  A 0.56 0.55 10.5 0 0 115.47 153.81
  Z"
/>
<path fill="#898989" d="
  M 184.46 83.00
  C 184.53 85.13 184.76 86.83 183.96 88.89
  Q 171.37 121.28 158.91 153.72
  C 156.82 159.17 155.04 161.56 149.00 161.00
  Q 140.33 160.20 113.15 160.92
  C 110.90 160.98 107.61 158.01 108.29 155.75
  Q 109.67 156.72 110.65 158.32
  A 2.16 2.16 -19.3 0 0 112.79 159.35
  Q 132.49 156.69 151.50 159.00
  Q 154.75 159.40 155.81 156.06
  C 156.80 152.96 158.86 149.92 159.96 146.22
  Q 160.91 143.00 162.66 139.49
  A 1.38 1.37 51.1 0 0 162.76 138.53
  C 162.31 136.83 163.33 136.53 163.88 135.44
  Q 165.62 132.02 166.79 128.39
  Q 167.73 125.49 169.36 121.86
  Q 170.94 118.37 171.71 114.56
  Q 171.79 114.16 172.18 113.73
  Q 173.15 112.62 172.31 110.57
  A 0.23 0.22 79.6 0 1 172.52 110.26
  C 175.05 110.35 174.60 108.19 175.09 106.77
  Q 176.56 102.56 178.38 97.72
  A 1.32 1.30 -49.2 0 0 178.31 96.64
  Q 177.94 95.94 178.77 95.63
  A 1.38 0.84 -76.7 0 0 179.38 95.01
  L 180.44 92.89
  A 0.55 0.45 -60.9 0 0 180.32 92.24
  Q 178.64 91.15 180.70 90.76
  A 1.34 1.11 8.5 0 0 181.49 90.28
  Q 183.30 87.70 183.43 84.56
  A 0.57 0.47 5.3 0 0 182.94 84.07
  Q 182.51 84.01 182.24 83.69
  A 0.44 0.41 -30.4 0 1 182.44 83.03
  Q 183.41 82.65 184.46 83.00
  Z"
/>
<path fill="#ff1001" d="
  M 14.96 147.00
  L 17.54 140.25
  L 39.51 83.43
  A 0.69 0.68 10.6 0 1 40.15 83.00
  L 74.08 83.00
  A 0.82 0.82 -79.4 0 1 74.84 84.11
  L 48.21 153.24
  A 0.81 0.78 9.9 0 1 47.46 153.75
  L 13.43 153.82
  Q 11.60 153.82 12.63 152.31
  Q 14.21 149.98 14.96 147.00
  Z"
/>
<path fill="#00ff01" d="
  M 98.41 153.82
  L 63.89 153.75
  A 0.52 0.52 10.7 0 1 63.40 153.04
  L 90.22 83.56
  A 0.87 0.86 10.2 0 1 91.03 83.00
  L 125.24 83.00
  A 0.58 0.57 10.5 0 1 125.78 83.78
  L 99.06 153.37
  A 0.70 0.69 -79.6 0 1 98.41 153.82
  Z"
/>
<path fill="#0142ff" d="
  M 115.47 153.81
  A 0.56 0.55 10.5 0 1 114.95 153.06
  L 141.50 84.08
  A 1.70 1.69 10.6 0 1 143.08 83.00
  L 176.82 83.00
  Q 178.20 83.00 177.46 84.17
  Q 176.12 86.27 175.38 88.25
  Q 163.24 120.46 150.55 153.24
  A 0.81 0.80 10.7 0 1 149.80 153.75
  L 115.47 153.81
  Z"
/>
<path fill="#d4d3d3" d="
  M 593.50 99.04
  Q 594.00 100.65 592.25 100.75
  A 1.42 0.64 -51.7 0 0 591.48 101.15
  Q 591.12 101.47 590.50 101.25
  C 587.82 100.29 584.35 100.99 582.14 101.05
  Q 563.07 101.51 544.00 100.93
  Q 533.74 100.61 523.50 101.25
  C 521.07 101.40 517.89 100.75 515.16 100.78
  C 490.19 101.11 461.17 100.93 425.57 101.43
  C 420.08 101.51 413.43 100.94 407.33 101.11
  C 394.74 101.47 381.96 100.82 371.75 100.75
  C 365.18 100.70 357.51 101.29 350.43 101.05
  C 333.77 100.51 317.19 101.05 300.51 100.71
  Q 279.79 100.29 259.08 101.28
  C 253.82 101.53 247.50 101.36 241.71 101.75
  Q 240.69 102.23 240.04 101.75
  Q 239.79 100.59 240.13 99.53
  A 0.73 0.67 8.2 0 1 240.81 99.06
  L 593.50 99.04
  Z"
/>
<path fill="#a2a2a2" d="
  M 593.50 99.04
  Q 595.71 98.74 594.98 101.55
  Q 591.94 101.46 592.06 103.81
  Q 592.63 115.06 592.50 118.50
  Q 591.79 137.46 592.99 156.51
  Q 587.46 157.00 578.50 156.75
  Q 568.17 156.46 536.52 157.19
  C 530.53 157.33 525.09 156.18 518.91 156.66
  C 506.03 157.67 493.24 156.03 480.34 156.72
  C 474.47 157.03 468.83 156.55 462.97 156.62
  C 450.35 156.75 437.36 156.26 425.00 157.00
  Q 422.37 157.16 420.54 156.60
  A 1.24 0.83 78.4 0 1 419.90 155.97
  Q 419.25 154.64 417.35 156.05
  Q 415.98 157.05 414.32 156.71
  C 411.08 156.05 408.14 155.76 404.64 155.95
  Q 391.98 156.66 379.32 156.81
  A 0.86 0.74 -74.5 0 0 378.62 157.28
  C 377.38 159.67 369.27 158.98 368.68 157.82
  A 0.68 0.24 67.8 0 0 368.30 157.39
  Q 357.96 156.20 347.67 157.58
  C 346.12 157.79 344.69 157.28 343.00 157.25
  Q 333.38 157.06 319.68 156.31
  C 317.70 156.21 316.74 155.35 316.25 153.54
  L 346.06 153.44
  A 1.41 1.40 -89.6 0 0 347.46 152.05
  Q 347.76 129.11 346.77 109.41
  A 0.95 0.93 88.1 0 0 345.83 108.51
  L 300.07 108.74
  A 1.55 1.52 89.6 0 0 298.56 110.30
  Q 298.72 128.98 299.21 147.64
  C 299.31 151.46 298.39 155.21 304.50 153.71
  Q 307.19 153.81 305.92 154.28
  A 1.85 1.81 8.3 0 0 305.14 154.85
  C 303.52 156.89 301.95 156.16 299.96 156.36
  C 284.92 157.84 270.24 155.16 255.31 156.81
  Q 252.26 157.15 245.14 156.00
  Q 241.56 155.09 241.76 151.81
  A 1.22 0.82 -24.1 0 1 242.23 151.06
  Q 242.85 150.58 242.50 149.96
  Q 242.18 149.40 242.14 149.07
  L 241.89 147.05
  A 0.75 0.67 -19.9 0 1 242.27 146.35
  Q 243.20 145.83 242.39 145.06
  A 1.12 0.91 27.0 0 1 242.03 144.25
  L 242.53 135.68
  A 1.88 1.27 41.9 0 0 242.30 134.76
  Q 241.77 133.78 241.86 132.69
  A 1.15 0.48 -28.5 0 1 242.40 132.02
  Q 242.99 131.60 241.96 130.34
  Q 241.47 129.73 242.25 129.66
  Q 243.77 129.51 242.67 128.29
  A 1.28 0.90 32.3 0 1 242.32 127.45
  L 242.37 126.81
  A 1.22 1.19 28.3 0 0 242.10 125.95
  Q 241.16 124.81 242.17 123.87
  A 0.81 0.74 -31.0 0 0 242.40 123.09
  Q 241.87 121.36 242.31 119.57
  Q 242.33 119.49 242.32 119.40
  Q 241.79 112.49 242.61 109.23
  A 1.55 1.44 -50.2 0 0 242.56 108.29
  Q 241.33 105.12 241.71 101.75
  C 247.50 101.36 253.82 101.53 259.08 101.28
  Q 279.79 100.29 300.51 100.71
  C 317.19 101.05 333.77 100.51 350.43 101.05
  C 357.51 101.29 365.18 100.70 371.75 100.75
  C 381.96 100.82 394.74 101.47 407.33 101.11
  C 413.43 100.94 420.08 101.51 425.57 101.43
  C 461.17 100.93 490.19 101.11 515.16 100.78
  C 517.89 100.75 521.07 101.40 523.50 101.25
  Q 533.74 100.61 544.00 100.93
  Q 563.07 101.51 582.14 101.05
  C 584.35 100.99 587.82 100.29 590.50 101.25
  Q 591.12 101.47 591.48 101.15
  A 1.42 0.64 -51.7 0 1 592.25 100.75
  Q 594.00 100.65 593.50 99.04
  Z
  M 391.72 129.94
  C 394.05 130.69 394.58 133.02 394.58 135.19
  A 0.75 0.61 -83.4 0 0 395.02 135.88
  C 396.67 136.39 399.28 127.42 400.86 123.41
  Q 401.43 121.96 400.86 122.00
  A 2.16 2.13 -71.1 0 0 399.45 122.70
  Q 394.84 127.89 390.92 127.54
  Q 387.82 127.26 388.94 124.41
  L 394.82 109.55
  A 1.84 1.73 3.6 0 1 396.11 108.48
  C 400.96 107.39 408.72 107.36 409.69 113.83
  Q 410.01 115.93 411.17 114.15
  Q 413.04 111.29 413.77 107.67
  A 0.97 0.97 -83.7 0 0 412.84 106.51
  C 401.98 106.28 390.94 106.76 380.00 106.35
  Q 372.42 106.07 367.56 107.56
  C 364.50 108.50 363.81 111.71 363.82 114.49
  C 363.84 119.01 373.53 117.93 369.79 111.57
  Q 368.81 109.89 370.61 109.17
  C 373.43 108.03 385.11 105.74 382.06 113.06
  Q 375.54 128.74 368.48 144.17
  C 366.50 148.50 365.18 149.27 360.53 149.24
  A 2.40 2.39 -72.7 0 0 358.53 150.29
  Q 357.57 151.70 359.75 151.70
  Q 377.62 151.75 396.05 151.75
  A 1.92 1.86 11.5 0 0 397.79 150.64
  L 401.50 142.25
  Q 402.57 139.83 400.31 141.06
  C 399.18 141.68 398.89 142.69 398.28 143.49
  Q 391.65 152.08 380.85 148.61
  A 1.47 1.47 19.7 0 1 379.93 146.67
  Q 382.32 140.71 384.66 134.86
  C 386.07 131.32 387.41 128.53 391.72 129.94
  Z
  M 503.82 140.49
  Q 504.83 139.55 504.71 137.49
  C 504.26 129.79 492.06 135.77 498.49 141.33
  Q 504.72 146.73 513.31 142.31
  C 519.74 139.01 520.85 133.97 515.96 128.87
  C 513.10 125.89 508.91 119.53 514.77 117.49
  Q 517.69 116.48 516.96 119.49
  C 516.15 122.81 520.01 124.83 522.57 122.51
  C 528.79 116.86 506.58 111.15 505.31 124.88
  C 504.84 129.95 509.91 131.54 511.45 135.74
  C 513.20 140.50 508.87 143.14 504.59 142.73
  Q 501.73 142.46 503.82 140.49
  Z
  M 545.62 116.77
  C 531.92 112.10 515.52 132.93 528.10 143.40
  Q 531.12 145.91 535.19 144.94
  Q 547.36 142.03 551.18 131.24
  C 553.38 124.99 552.44 119.09 545.62 116.77
  Z
  M 462.51 132.05
  A 1.42 1.42 -63.2 0 1 461.89 130.15
  Q 465.36 123.21 469.69 118.69
  Q 470.33 118.01 469.91 117.54
  A 0.96 0.67 -25.4 0 0 469.02 117.39
  Q 456.51 121.18 453.25 133.25
  C 450.45 143.62 462.09 148.76 469.10 141.31
  A 0.66 0.47 -46.8 0 0 469.21 140.51
  C 468.87 140.19 465.39 142.13 464.75 142.37
  C 459.70 144.24 457.67 140.73 459.87 136.06
  Q 460.60 134.50 462.30 134.24
  C 467.29 133.48 474.89 130.73 477.19 125.69
  Q 479.64 120.30 474.50 117.75
  Q 471.33 116.18 472.94 119.06
  C 475.41 123.51 466.90 134.28 462.51 132.05
  Z
  M 485.09 123.72
  Q 481.06 132.88 476.87 142.30
  A 0.94 0.94 17.7 0 0 477.55 143.61
  Q 480.27 144.13 483.45 143.53
  A 1.00 0.97 -81.9 0 0 484.16 142.98
  Q 488.54 133.80 492.96 124.63
  Q 494.95 120.49 497.51 123.78
  A 1.44 1.03 68.3 0 0 498.30 124.29
  C 501.80 124.83 505.64 119.66 501.19 117.56
  Q 498.82 116.45 496.94 118.69
  Q 495.58 120.30 493.90 121.09
  A 0.96 0.95 -19.5 0 1 492.57 120.46
  C 491.35 115.58 486.32 117.83 483.69 119.69
  Q 482.02 120.86 483.75 121.00
  C 485.60 121.15 485.75 122.23 485.09 123.72
  Z
  M 576.48 120.13
  C 578.97 121.04 573.88 131.34 571.31 137.32
  C 567.84 145.41 576.16 144.82 580.29 141.70
  Q 581.82 140.55 579.90 140.57
  Q 577.30 140.60 578.38 138.22
  C 581.05 132.29 582.52 126.56 583.94 123.19
  C 586.73 116.53 579.14 117.14 575.37 118.37
  C 574.07 118.80 572.12 121.27 575.53 120.16
  A 1.70 1.09 -34.5 0 1 576.48 120.13
  Z
  M 443.33 122.46
  L 436.26 140.35
  A 1.94 1.32 -48.4 0 0 436.14 141.30
  C 437.17 146.89 443.38 144.56 446.31 142.02
  A 1.06 0.68 -31.6 0 0 446.71 141.19
  Q 446.60 140.64 445.75 140.75
  Q 442.92 141.13 444.06 138.81
  Q 448.15 130.54 450.85 121.73
  A 1.57 1.33 -50.5 0 0 450.84 120.77
  C 449.08 115.87 442.95 117.79 439.96 120.00
  A 0.66 0.55 -33.7 0 0 439.73 120.78
  C 440.31 121.77 442.31 119.68 443.31 121.55
  A 1.16 0.96 -51.7 0 1 443.33 122.46
  Z
  M 561.94 122.19
  L 553.62 141.92
  A 1.13 0.94 -77.0 0 0 554.40 143.48
  L 560.01 143.30
  A 2.29 1.88 -78.5 0 0 561.83 141.82
  Q 565.27 132.59 570.77 124.01
  C 571.35 123.11 572.82 122.03 570.30 121.69
  A 0.92 0.91 5.5 0 1 569.51 120.74
  C 569.77 116.15 562.48 117.86 560.14 118.76
  C 559.31 119.07 558.40 120.37 560.25 120.25
  Q 562.83 120.08 561.94 122.19
  Z
  M 427.44 123.69
  C 425.18 129.44 422.95 135.49 420.06 140.95
  Q 417.95 144.95 425.11 143.72
  A 2.51 2.21 -78.4 0 0 426.79 142.45
  L 436.50 124.18
  A 0.69 0.63 -55.2 0 0 436.39 123.39
  L 435.19 122.27
  Q 434.83 121.93 434.66 121.47
  C 433.10 117.17 425.37 117.23 423.82 120.75
  Q 423.38 121.75 424.69 121.69
  Q 428.29 121.52 427.44 123.69
  Z
  M 420.08 121.25
  C 417.13 115.97 410.66 119.13 407.29 122.34
  A 1.38 1.26 -21.4 0 0 406.87 123.19
  C 406.51 126.75 410.66 119.90 411.60 123.68
  C 412.13 125.78 405.80 138.87 404.53 141.81
  Q 403.38 144.47 406.06 144.30
  L 410.57 144.00
  A 1.21 1.03 -80.8 0 0 411.52 143.19
  Q 415.09 132.71 421.51 124.37
  C 422.39 123.23 423.33 121.87 420.82 121.70
  A 0.93 0.86 -11.5 0 1 420.08 121.25
  Z
  M 266.31 144.59
  C 271.25 137.69 259.45 138.21 256.55 138.94
  A 0.72 0.70 -4.2 0 0 256.01 139.55
  Q 255.36 145.90 256.00 152.26
  A 1.27 1.25 -86.1 0 0 256.95 153.36
  C 261.19 154.43 271.88 152.59 266.32 145.39
  A 0.68 0.67 -46.3 0 1 266.31 144.59
  Z
  M 273.76 150.85
  C 273.68 151.70 273.59 153.36 275.08 152.53
  A 0.80 0.72 72.5 0 0 275.43 151.76
  C 274.85 147.03 277.28 144.53 279.62 141.14
  C 281.28 138.74 279.28 138.23 278.15 140.21
  Q 277.10 142.03 275.74 143.96
  A 1.32 1.31 43.8 0 1 273.61 144.00
  Q 271.98 141.86 270.46 139.71
  C 269.67 138.58 268.01 138.72 269.01 140.46
  C 271.10 144.08 274.15 146.48 273.76 150.85
  Z"
/>
<path fill="#969695" d="
  M 594.98 101.55
  L 594.96 156.50
  L 592.99 156.51
  Q 591.79 137.46 592.50 118.50
  Q 592.63 115.06 592.06 103.81
  Q 591.94 101.46 594.98 101.55
  Z"
/>
<path fill="#bab8b9" d="
  M 240.04 101.75
  Q 240.69 102.23 241.71 101.75
  Q 241.33 105.12 242.56 108.29
  A 1.55 1.44 -50.2 0 1 242.61 109.23
  Q 241.79 112.49 242.32 119.40
  Q 242.33 119.49 242.31 119.57
  Q 241.87 121.36 242.40 123.09
  A 0.81 0.74 -31.0 0 1 242.17 123.87
  Q 241.16 124.81 242.10 125.95
  A 1.22 1.19 28.3 0 1 242.37 126.81
  L 242.32 127.45
  A 1.28 0.90 32.3 0 0 242.67 128.29
  Q 243.77 129.51 242.25 129.66
  Q 241.47 129.73 241.96 130.34
  Q 242.99 131.60 242.40 132.02
  A 1.15 0.48 -28.5 0 0 241.86 132.69
  Q 241.77 133.78 242.30 134.76
  A 1.88 1.27 41.9 0 1 242.53 135.68
  L 242.03 144.25
  A 1.12 0.91 27.0 0 0 242.39 145.06
  Q 243.20 145.83 242.27 146.35
  A 0.75 0.67 -19.9 0 0 241.89 147.05
  L 242.14 149.07
  Q 242.18 149.40 242.50 149.96
  Q 242.85 150.58 242.23 151.06
  A 1.22 0.82 -24.1 0 0 241.76 151.81
  Q 241.56 155.09 245.14 156.00
  Q 242.30 155.81 240.04 156.75
  L 240.04 101.75
  Z"
/>
<path fill="#000000" d="
  M 391.72 129.94
  C 387.41 128.53 386.07 131.32 384.66 134.86
  Q 382.32 140.71 379.93 146.67
  A 1.47 1.47 19.7 0 0 380.85 148.61
  Q 391.65 152.08 398.28 143.49
  C 398.89 142.69 399.18 141.68 400.31 141.06
  Q 402.57 139.83 401.50 142.25
  L 397.79 150.64
  A 1.92 1.86 11.5 0 1 396.05 151.75
  Q 377.62 151.75 359.75 151.70
  Q 357.57 151.70 358.53 150.29
  A 2.40 2.39 -72.7 0 1 360.53 149.24
  C 365.18 149.27 366.50 148.50 368.48 144.17
  Q 375.54 128.74 382.06 113.06
  C 385.11 105.74 373.43 108.03 370.61 109.17
  Q 368.81 109.89 369.79 111.57
  C 373.53 117.93 363.84 119.01 363.82 114.49
  C 363.81 111.71 364.50 108.50 367.56 107.56
  Q 372.42 106.07 380.00 106.35
  C 390.94 106.76 401.98 106.28 412.84 106.51
  A 0.97 0.97 -83.7 0 1 413.77 107.67
  Q 413.04 111.29 411.17 114.15
  Q 410.01 115.93 409.69 113.83
  C 408.72 107.36 400.96 107.39 396.11 108.48
  A 1.84 1.73 3.6 0 0 394.82 109.55
  L 388.94 124.41
  Q 387.82 127.26 390.92 127.54
  Q 394.84 127.89 399.45 122.70
  A 2.16 2.13 -71.1 0 1 400.86 122.00
  Q 401.43 121.96 400.86 123.41
  C 399.28 127.42 396.67 136.39 395.02 135.88
  A 0.75 0.61 -83.4 0 1 394.58 135.19
  C 394.58 133.02 394.05 130.69 391.72 129.94
  Z"
/>
<path fill="#000000" d="
  M 316.25 153.54
  L 304.50 153.71
  C 298.39 155.21 299.31 151.46 299.21 147.64
  Q 298.72 128.98 298.56 110.30
  A 1.55 1.52 89.6 0 1 300.07 108.74
  L 345.83 108.51
  A 0.95 0.93 88.1 0 1 346.77 109.41
  Q 347.76 129.11 347.46 152.05
  A 1.41 1.40 -89.6 0 1 346.06 153.44
  L 316.25 153.54
  Z
  M 344.6622 132.3608
  A 21.74 20.67 3.8 0 0 324.3399 110.2954
  A 21.74 20.67 3.8 0 0 301.2778 129.4792
  A 21.74 20.67 3.8 0 0 321.6001 151.5446
  A 21.74 20.67 3.8 0 0 344.6622 132.3608
  Z"
/>
<path fill="#a1a1a1" d="
  M 344.6622 132.3608
  A 21.74 20.67 3.8 0 1 321.6001 151.5446
  A 21.74 20.67 3.8 0 1 301.2778 129.4792
  A 21.74 20.67 3.8 0 1 324.3399 110.2954
  A 21.74 20.67 3.8 0 1 344.6622 132.3608
  Z
  M 324.16 114.61
  A 0.94 0.94 11.3 0 0 325.17 113.94
  C 326.18 110.39 319.33 114.07 324.16 114.61
  Z
  M 320.53 122.48
  Q 315.78 125.92 314.81 126.81
  C 309.80 131.48 311.41 137.09 316.90 140.01
  C 320.01 141.66 325.56 139.85 324.50 144.76
  A 1.64 1.64 -75.3 0 1 322.42 145.98
  C 320.72 145.45 317.01 146.24 319.25 148.91
  Q 320.38 150.26 322.02 149.65
  Q 326.40 148.03 326.51 142.34
  A 2.15 2.14 76.6 0 1 327.64 140.50
  C 331.83 138.26 335.80 134.49 332.92 129.20
  Q 330.97 125.61 326.39 125.26
  Q 323.81 125.07 324.43 122.56
  C 324.65 121.64 327.49 115.34 323.74 117.96
  A 0.50 0.50 55.2 0 1 323.03 117.83
  C 320.58 114.16 321.22 120.85 321.05 121.70
  A 1.33 1.24 -13.5 0 1 320.53 122.48
  Z"
/>
<path fill="#000000" d="
  M 324.16 114.61
  C 319.33 114.07 326.18 110.39 325.17 113.94
  A 0.94 0.94 11.3 0 1 324.16 114.61
  Z"
/>
<path fill="#000000" d="
  M 503.82 140.49
  Q 501.73 142.46 504.59 142.73
  C 508.87 143.14 513.20 140.50 511.45 135.74
  C 509.91 131.54 504.84 129.95 505.31 124.88
  C 506.58 111.15 528.79 116.86 522.57 122.51
  C 520.01 124.83 516.15 122.81 516.96 119.49
  Q 517.69 116.48 514.77 117.49
  C 508.91 119.53 513.10 125.89 515.96 128.87
  C 520.85 133.97 519.74 139.01 513.31 142.31
  Q 504.72 146.73 498.49 141.33
  C 492.06 135.77 504.26 129.79 504.71 137.49
  Q 504.83 139.55 503.82 140.49
  Z"
/>
<path fill="#000000" d="
  M 528.10 143.40
  C 515.52 132.93 531.92 112.10 545.62 116.77
  C 552.44 119.09 553.38 124.99 551.18 131.24
  Q 547.36 142.03 535.19 144.94
  Q 531.12 145.91 528.10 143.40
  Z
  M 538.90 119.40
  C 534.70 124.68 529.21 134.05 529.55 140.94
  Q 529.70 144.00 532.69 143.35
  C 538.46 142.11 546.64 124.44 545.44 119.17
  A 1.31 1.28 11.5 0 0 544.91 118.39
  Q 541.54 116.08 538.90 119.40
  Z"
/>
<path fill="#000000" d="
  M 321.05 121.70
  C 321.22 120.85 320.58 114.16 323.03 117.83
  A 0.50 0.50 55.2 0 0 323.74 117.96
  C 327.49 115.34 324.65 121.64 324.43 122.56
  Q 323.81 125.07 326.39 125.26
  Q 330.97 125.61 332.92 129.20
  C 335.80 134.49 331.83 138.26 327.64 140.50
  A 2.15 2.14 76.6 0 0 326.51 142.34
  Q 326.40 148.03 322.02 149.65
  Q 320.38 150.26 319.25 148.91
  C 317.01 146.24 320.72 145.45 322.42 145.98
  A 1.64 1.64 -75.3 0 0 324.50 144.76
  C 325.56 139.85 320.01 141.66 316.90 140.01
  C 311.41 137.09 309.80 131.48 314.81 126.81
  Q 315.78 125.92 320.53 122.48
  A 1.33 1.24 -13.5 0 0 321.05 121.70
  Z
  M 321.25 124.50
  C 315.42 126.12 312.39 134.07 317.93 138.40
  C 318.27 138.67 321.34 140.42 319.63 138.10
  Q 314.02 130.50 321.46 125.34
  C 321.87 125.06 322.50 124.15 321.25 124.50
  Z
  M 330.9405 133.3656
  A 5.49 5.18 7.7 0 0 326.1940 127.4967
  A 5.49 5.18 7.7 0 0 320.0595 131.8944
  A 5.49 5.18 7.7 0 0 324.8060 137.7633
  A 5.49 5.18 7.7 0 0 330.9405 133.3656
  Z"
/>
<path fill="#000000" d="
  M 462.51 132.05
  C 466.90 134.28 475.41 123.51 472.94 119.06
  Q 471.33 116.18 474.50 117.75
  Q 479.64 120.30 477.19 125.69
  C 474.89 130.73 467.29 133.48 462.30 134.24
  Q 460.60 134.50 459.87 136.06
  C 457.67 140.73 459.70 144.24 464.75 142.37
  C 465.39 142.13 468.87 140.19 469.21 140.51
  A 0.66 0.47 -46.8 0 1 469.10 141.31
  C 462.09 148.76 450.45 143.62 453.25 133.25
  Q 456.51 121.18 469.02 117.39
  A 0.96 0.67 -25.4 0 1 469.91 117.54
  Q 470.33 118.01 469.69 118.69
  Q 465.36 123.21 461.89 130.15
  A 1.42 1.42 -63.2 0 0 462.51 132.05
  Z"
/>
<path fill="#000000" d="
  M 485.09 123.72
  C 485.75 122.23 485.60 121.15 483.75 121.00
  Q 482.02 120.86 483.69 119.69
  C 486.32 117.83 491.35 115.58 492.57 120.46
  A 0.96 0.95 -19.5 0 0 493.90 121.09
  Q 495.58 120.30 496.94 118.69
  Q 498.82 116.45 501.19 117.56
  C 505.64 119.66 501.80 124.83 498.30 124.29
  A 1.44 1.03 68.3 0 1 497.51 123.78
  Q 494.95 120.49 492.96 124.63
  Q 488.54 133.80 484.16 142.98
  A 1.00 0.97 -81.9 0 1 483.45 143.53
  Q 480.27 144.13 477.55 143.61
  A 0.94 0.94 17.7 0 1 476.87 142.30
  Q 481.06 132.88 485.09 123.72
  Z"
/>
<path fill="#a1a1a1" d="
  M 538.90 119.40
  Q 541.54 116.08 544.91 118.39
  A 1.31 1.28 11.5 0 1 545.44 119.17
  C 546.64 124.44 538.46 142.11 532.69 143.35
  Q 529.70 144.00 529.55 140.94
  C 529.21 134.05 534.70 124.68 538.90 119.40
  Z"
/>
<path fill="#000000" d="
  M 575.53 120.16
  C 572.12 121.27 574.07 118.80 575.37 118.37
  C 579.14 117.14 586.73 116.53 583.94 123.19
  C 582.52 126.56 581.05 132.29 578.38 138.22
  Q 577.30 140.60 579.90 140.57
  Q 581.82 140.55 580.29 141.70
  C 576.16 144.82 567.84 145.41 571.31 137.32
  C 573.88 131.34 578.97 121.04 576.48 120.13
  A 1.70 1.09 -34.5 0 0 575.53 120.16
  Z"
/>
<path fill="#000000" d="
  M 443.31 121.55
  C 442.31 119.68 440.31 121.77 439.73 120.78
  A 0.66 0.55 -33.7 0 1 439.96 120.00
  C 442.95 117.79 449.08 115.87 450.84 120.77
  A 1.57 1.33 -50.5 0 1 450.85 121.73
  Q 448.15 130.54 444.06 138.81
  Q 442.92 141.13 445.75 140.75
  Q 446.60 140.64 446.71 141.19
  A 1.06 0.68 -31.6 0 1 446.31 142.02
  C 443.38 144.56 437.17 146.89 436.14 141.30
  A 1.94 1.32 -48.4 0 1 436.26 140.35
  L 443.33 122.46
  A 1.16 0.96 -51.7 0 0 443.31 121.55
  Z"
/>
<path fill="#000000" d="
  M 561.94 122.19
  Q 562.83 120.08 560.25 120.25
  C 558.40 120.37 559.31 119.07 560.14 118.76
  C 562.48 117.86 569.77 116.15 569.51 120.74
  A 0.92 0.91 5.5 0 0 570.30 121.69
  C 572.82 122.03 571.35 123.11 570.77 124.01
  Q 565.27 132.59 561.83 141.82
  A 2.29 1.88 -78.5 0 1 560.01 143.30
  L 554.40 143.48
  A 1.13 0.94 -77.0 0 1 553.62 141.92
  L 561.94 122.19
  Z"
/>
<path fill="#000000" d="
  M 427.44 123.69
  Q 428.29 121.52 424.69 121.69
  Q 423.38 121.75 423.82 120.75
  C 425.37 117.23 433.10 117.17 434.66 121.47
  Q 434.83 121.93 435.19 122.27
  L 436.39 123.39
  A 0.69 0.63 -55.2 0 1 436.50 124.18
  L 426.79 142.45
  A 2.51 2.21 -78.4 0 1 425.11 143.72
  Q 417.95 144.95 420.06 140.95
  C 422.95 135.49 425.18 129.44 427.44 123.69
  Z"
/>
<path fill="#000000" d="
  M 420.82 121.70
  C 423.33 121.87 422.39 123.23 421.51 124.37
  Q 415.09 132.71 411.52 143.19
  A 1.21 1.03 -80.8 0 1 410.57 144.00
  L 406.06 144.30
  Q 403.38 144.47 404.53 141.81
  C 405.80 138.87 412.13 125.78 411.60 123.68
  C 410.66 119.90 406.51 126.75 406.87 123.19
  A 1.38 1.26 -21.4 0 1 407.29 122.34
  C 410.66 119.13 417.13 115.97 420.08 121.25
  A 0.93 0.86 -11.5 0 0 420.82 121.70
  Z"
/>
<path fill="#a2a2a2" d="
  M 317.93 138.40
  C 312.39 134.07 315.42 126.12 321.25 124.50
  C 322.50 124.15 321.87 125.06 321.46 125.34
  Q 314.02 130.50 319.63 138.10
  C 321.34 140.42 318.27 138.67 317.93 138.40
  Z"
/>
<path fill="#a1a1a1" d="
  M 330.9405 133.3656
  A 5.49 5.18 7.7 0 1 324.8060 137.7633
  A 5.49 5.18 7.7 0 1 320.0595 131.8944
  A 5.49 5.18 7.7 0 1 326.1940 127.4967
  A 5.49 5.18 7.7 0 1 330.9405 133.3656
  Z
  M 329.2700 132.6338
  A 3.56 2.95 -0.1 0 0 325.7049 129.6900
  A 3.56 2.95 -0.1 0 0 322.1500 132.6462
  A 3.56 2.95 -0.1 0 0 325.7151 135.5900
  A 3.56 2.95 -0.1 0 0 329.2700 132.6338
  Z"
/>
<ellipse fill="#000000" cx="0.00" cy="0.00" transform="translate(325.71,132.64) rotate(-0.1)" rx="3.56" ry="2.95"/>
<path fill="#a2a2a2" d="
  M 13.21 136.00
  L 13.37 138.27
  A 0.51 0.41 -9.6 0 0 13.99 138.61
  Q 16.40 138.06 17.54 140.25
  L 14.96 147.00
  Q 13.97 144.75 11.55 144.89
  A 0.66 0.62 77.8 0 1 10.93 144.46
  Q 10.71 143.88 10.25 143.46
  C 11.81 140.98 11.53 138.25 13.21 136.00
  Z"
/>
<path fill="#000000" d="
  M 266.32 145.39
  C 271.88 152.59 261.19 154.43 256.95 153.36
  A 1.27 1.25 -86.1 0 1 256.00 152.26
  Q 255.36 145.90 256.01 139.55
  A 0.72 0.70 -4.2 0 1 256.55 138.94
  C 259.45 138.21 271.25 137.69 266.31 144.59
  A 0.68 0.67 -46.3 0 0 266.32 145.39
  Z
  M 264.56 143.06
  Q 266.59 141.00 263.94 140.31
  Q 261.54 139.69 259.18 140.30
  A 1.45 1.26 7.4 0 0 258.38 140.83
  C 255.76 144.68 262.21 145.47 264.56 143.06
  Z
  M 265.4401 148.7173
  A 2.06 2.06 0.0 0 0 263.4682 146.5729
  L 260.0911 146.4313
  A 2.06 2.06 0.0 0 0 257.9467 148.4032
  L 257.9199 149.0427
  A 2.06 2.06 0.0 0 0 259.8918 151.1871
  L 263.2689 151.3287
  A 2.06 2.06 0.0 0 0 265.4133 149.3568
  L 265.4401 148.7173
  Z"
/>
<path fill="#000000" d="
  M 273.76 150.85
  C 274.15 146.48 271.10 144.08 269.01 140.46
  C 268.01 138.72 269.67 138.58 270.46 139.71
  Q 271.98 141.86 273.61 144.00
  A 1.32 1.31 43.8 0 0 275.74 143.96
  Q 277.10 142.03 278.15 140.21
  C 279.28 138.23 281.28 138.74 279.62 141.14
  C 277.28 144.53 274.85 147.03 275.43 151.76
  A 0.80 0.72 72.5 0 1 275.08 152.53
  C 273.59 153.36 273.68 151.70 273.76 150.85
  Z"
/>
<path fill="#a1a1a1" d="
  M 264.56 143.06
  C 262.21 145.47 255.76 144.68 258.38 140.83
  A 1.45 1.26 7.4 0 1 259.18 140.30
  Q 261.54 139.69 263.94 140.31
  Q 266.59 141.00 264.56 143.06
  Z"
/>
<rect fill="#a2a2a2" x="-3.75" y="-2.38" transform="translate(261.68,148.88) rotate(2.4)" width="7.50" height="4.76" rx="2.06"/>
<path fill="#909090" d="
  M 107.91 152.89
  Q 106.53 157.42 102.90 160.43
  A 1.43 1.41 24.9 0 1 102.00 160.75
  Q 83.40 160.75 64.79 160.75
  C 61.18 160.75 59.15 161.29 56.96 157.65
  Q 58.74 157.72 62.75 158.25
  C 71.20 159.38 81.99 158.28 89.70 158.18
  Q 95.86 158.10 101.62 158.01
  Q 104.12 157.98 104.41 155.50
  Q 104.72 152.88 106.16 151.62
  A 1.49 0.81 12.4 0 1 107.06 151.36
  Q 107.89 151.35 108.29 150.71
  Q 108.55 150.30 108.61 150.74
  Q 108.77 151.91 107.91 152.89
  Z"
/>
<path fill="#898989" d="
  M 56.60 153.31
  Q 55.57 158.27 51.62 160.69
  A 1.82 1.57 26.3 0 1 50.69 160.93
  Q 31.41 160.51 12.13 160.95
  C 8.61 161.03 6.31 159.89 5.50 156.46
  Q 6.91 156.85 7.17 157.39
  A 2.95 2.94 81.2 0 0 9.37 159.00
  Q 16.44 160.08 21.77 158.41
  A 1.74 1.57 -43.9 0 1 22.73 158.38
  Q 29.14 160.04 33.75 159.25
  Q 41.61 157.91 47.31 158.31
  C 50.55 158.53 52.45 157.60 53.74 154.77
  A 0.81 0.75 11.1 0 1 54.44 154.34
  Q 55.68 154.30 56.60 153.31
  Z"
/>
<path fill="#909090" d="
  M 316.25 153.54
  C 316.74 155.35 317.70 156.21 319.68 156.31
  Q 333.38 157.06 343.00 157.25
  C 344.69 157.28 346.12 157.79 347.67 157.58
  Q 357.96 156.20 368.30 157.39
  A 0.68 0.24 67.8 0 1 368.68 157.82
  C 369.27 158.98 377.38 159.67 378.62 157.28
  A 0.86 0.74 -74.5 0 1 379.32 156.81
  Q 391.98 156.66 404.64 155.95
  C 408.14 155.76 411.08 156.05 414.32 156.71
  Q 415.98 157.05 417.35 156.05
  Q 419.25 154.64 419.90 155.97
  A 1.24 0.83 78.4 0 0 420.54 156.60
  Q 422.37 157.16 425.00 157.00
  C 437.36 156.26 450.35 156.75 462.97 156.62
  C 468.83 156.55 474.47 157.03 480.34 156.72
  C 493.24 156.03 506.03 157.67 518.91 156.66
  C 525.09 156.18 530.53 157.33 536.52 157.19
  Q 568.17 156.46 578.50 156.75
  Q 587.46 157.00 592.99 156.51
  L 594.96 156.50
  C 595.78 159.73 593.61 159.00 591.71 159.00
  Q 417.13 159.00 242.56 159.00
  C 240.88 159.00 239.35 159.43 240.04 156.75
  Q 242.30 155.81 245.14 156.00
  Q 252.26 157.15 255.31 156.81
  C 270.24 155.16 284.92 157.84 299.96 156.36
  C 301.95 156.16 303.52 156.89 305.14 154.85
  A 1.85 1.81 8.3 0 1 305.92 154.28
  Q 307.19 153.81 304.50 153.71
  L 316.25 153.54
  Z"
/>
</svg>
