<?xml version="1.0" encoding="UTF-8" standalone="no"?>
<!DOCTYPE svg PUBLIC "-//W3C//DTD SVG 1.1//EN" "http://www.w3.org/Graphics/SVG/1.1/DTD/svg11.dtd">
<svg xmlns="http://www.w3.org/2000/svg" version="1.1" viewBox="0 0 600 300">
<path fill="#000000" d="
  M 414.06 79.59
  Q 414.06 80.86 414.84 79.86
  Q 423.21 68.97 431.43 58.43
  Q 432.37 57.23 433.74 57.83
  A 0.78 0.72 -78.9 0 1 434.18 58.55
  Q 433.87 104.13 434.00 149.71
  C 434.01 155.74 433.68 155.71 430.00 160.02
  Q 424.59 166.35 419.05 172.57
  Q 416.29 175.67 416.23 171.52
  Q 415.68 137.77 416.18 102.56
  Q 416.19 101.72 415.75 101.99
  Q 415.21 102.33 414.33 104.33
  Q 414.07 104.91 413.72 105.45
  Q 407.62 115.00 401.44 124.69
  Q 400.79 125.70 399.41 125.25
  A 0.93 0.91 -87.8 0 1 398.81 124.59
  C 398.19 122.14 398.69 119.23 398.67 117.46
  Q 398.19 70.55 398.73 23.65
  C 398.78 18.43 407.21 7.47 410.37 2.99
  C 411.03 2.05 411.49 -0.17 413.33 0.51
  A 1.13 1.13 -80.0 0 1 414.07 1.57
  L 414.06 79.59
  Z"
/>
<path fill="#000000" d="
  M 312.86 103.31
  Q 313.00 101.91 312.24 103.10
  L 297.84 125.66
  Q 296.38 127.93 295.44 125.40
  C 294.94 124.05 295.19 121.88 295.19 120.68
  Q 295.30 72.20 295.25 22.59
  A 3.19 2.67 66.0 0 1 295.72 20.94
  L 307.68 2.89
  Q 310.55 -1.45 310.56 3.80
  L 310.56 80.86
  Q 310.56 81.55 310.99 81.01
  L 328.25 59.20
  A 1.62 1.30 -72.3 0 1 329.05 58.67
  Q 330.54 58.35 330.56 59.69
  Q 331.23 94.45 330.51 155.24
  A 1.57 1.47 65.7 0 1 330.20 156.14
  Q 323.05 165.52 314.92 174.06
  C 314.41 174.60 313.68 174.74 313.11 174.34
  A 1.12 0.76 -79.8 0 1 312.74 173.50
  Q 312.32 142.63 312.45 111.75
  Q 312.47 107.14 312.86 103.31
  Z"
/>
<path fill="#000000" d="
  M 526.31 42.56
  L 526.25 134.40
  A 0.68 0.67 0.0 0 0 526.93 135.07
  L 551.72 135.00
  A 0.77 0.76 0.0 0 0 552.49 134.24
  L 552.32 103.19
  A 0.52 0.50 90.0 0 0 551.82 102.67
  L 535.09 102.52
  A 1.65 1.54 0.0 0 1 533.46 101.00
  L 533.28 84.03
  A 1.86 1.80 -1.5 0 1 535.07 82.21
  Q 549.91 81.67 565.71 82.19
  A 0.81 0.80 0.7 0 1 566.50 82.99
  L 566.74 149.99
  Q 566.75 151.97 564.75 152.05
  Q 548.93 152.67 532.19 152.00
  C 523.76 151.66 517.64 150.27 512.06 144.69
  A 3.62 3.62 -67.5 0 1 511.00 142.13
  Q 510.95 89.33 511.06 37.38
  Q 511.06 35.18 512.14 33.54
  C 520.77 20.34 539.81 19.60 553.25 23.25
  C 559.24 24.88 566.38 30.19 566.58 37.02
  Q 566.92 48.99 566.73 61.94
  A 1.58 1.58 -89.6 0 1 565.15 63.50
  L 553.95 63.50
  A 1.14 1.13 0.0 0 1 552.81 62.37
  L 552.76 42.77
  A 0.99 0.96 89.7 0 0 551.79 41.78
  L 526.80 42.04
  A 0.52 0.50 89.4 0 0 526.31 42.56
  Z"
/>
<path fill="#000000" d="
  M 251.31 42.81
  L 251.25 80.38
  A 0.89 0.87 0.3 0 0 252.13 81.25
  L 263.19 81.30
  A 1.27 1.26 89.8 0 1 264.44 82.55
  C 264.51 88.18 264.25 93.95 264.60 99.54
  C 264.80 102.80 262.47 102.25 260.21 102.25
  Q 256.66 102.25 252.50 102.25
  A 0.50 0.50 0.0 0 0 252.00 102.75
  L 252.00 154.02
  A 1.73 1.73 0.0 0 1 250.27 155.75
  L 237.20 155.75
  A 1.39 1.38 0.0 0 1 235.81 154.37
  Q 235.71 97.93 235.75 40.72
  C 235.76 29.20 246.92 22.23 257.34 22.14
  C 268.05 22.04 283.81 21.80 288.47 33.83
  Q 289.75 37.14 289.74 45.33
  Q 289.71 96.66 290.11 148.00
  Q 290.14 151.64 289.78 154.94
  A 1.11 1.10 -87.4 0 1 288.70 155.94
  L 275.87 155.96
  A 1.67 1.62 90.0 0 1 274.25 154.29
  L 274.07 42.94
  A 0.52 0.51 90.0 0 0 273.56 42.42
  L 251.81 42.30
  A 0.51 0.50 90.0 0 0 251.31 42.81
  Z"
/>
<path fill="#000000" d="
  M 487.21 101.68
  Q 487.57 102.58 487.57 101.61
  L 487.50 24.16
  Q 487.50 22.25 489.41 22.25
  L 501.67 22.25
  Q 503.75 22.25 503.75 24.33
  L 503.75 154.18
  A 1.82 1.82 0.0 0 1 501.93 156.00
  L 489.22 156.00
  A 1.83 1.80 78.9 0 1 487.54 154.85
  L 457.76 79.92
  Q 457.31 78.78 457.31 80.00
  L 457.25 154.03
  A 1.72 1.72 -0.4 0 1 455.53 155.75
  L 443.53 155.75
  A 1.53 1.53 89.8 0 1 442.00 154.22
  L 442.00 24.99
  A 1.74 1.74 -1.8 0 1 443.74 23.25
  L 455.25 23.25
  A 1.68 1.66 -10.4 0 1 456.81 24.31
  L 487.21 101.68
  Z"
/>
<path fill="#000000" d="
  M 209.67 155.56
  A 0.47 0.46 -4.9 0 1 209.24 155.21
  Q 203.64 132.23 198.06 109.21
  Q 196.25 101.70 196.00 96.12
  Q 195.72 89.47 196.27 82.81
  A 0.62 0.62 -1.8 0 1 196.80 82.25
  C 212.33 80.08 211.77 64.22 209.75 52.75
  C 207.82 41.81 198.58 41.38 189.47 41.78
  A 1.02 1.01 -1.5 0 0 188.50 42.79
  L 188.50 154.48
  A 1.77 1.77 0.0 0 1 186.73 156.25
  L 174.98 156.25
  A 1.73 1.73 0.0 0 1 173.25 154.52
  L 173.31 24.49
  A 1.72 1.72 -0.2 0 1 175.02 22.77
  Q 194.82 22.58 213.09 22.95
  C 218.30 23.05 222.26 27.42 224.27 31.75
  Q 225.73 34.90 225.85 40.99
  Q 226.12 55.59 226.03 70.19
  C 225.98 78.00 226.33 80.15 223.06 86.06
  Q 218.76 93.86 210.38 96.79
  A 0.89 0.88 -17.8 0 0 209.82 97.87
  Q 217.77 125.68 225.69 152.81
  C 226.64 156.07 224.62 155.72 222.38 155.76
  Q 216.03 155.88 209.67 155.56
  Z"
/>
<path fill="#000000" d="
  M 358.40 135.69
  L 390.24 135.75
  A 1.51 1.51 0.0 0 1 391.75 137.26
  L 391.75 154.60
  A 1.40 1.40 -89.7 0 1 390.35 156.00
  L 338.91 156.00
  A 1.41 1.41 89.8 0 1 337.50 154.60
  C 337.47 148.22 336.44 139.30 338.62 133.49
  Q 355.53 88.29 372.78 42.94
  A 0.65 0.64 10.1 0 0 372.16 42.07
  L 339.25 42.24
  A 1.71 1.69 89.7 0 1 337.55 40.54
  L 337.51 24.69
  A 1.62 1.61 -0.2 0 1 339.13 23.07
  L 389.08 23.00
  A 1.85 1.84 -0.0 0 1 390.93 24.84
  L 391.00 41.72
  Q 391.00 42.66 390.67 43.59
  L 357.83 134.87
  A 0.61 0.61 -79.9 0 0 358.40 135.69
  Z"
/>
<path fill="#000000" d="
  M 119.93 151.76
  C 136.37 161.98 144.86 178.60 144.13 197.73
  C 143.06 225.46 121.60 245.36 94.48 246.80
  A 0.73 0.72 -1.9 0 1 93.70 246.08
  L 93.77 197.97
  A 0.83 0.82 85.3 0 0 92.81 197.15
  C 59.79 202.89 53.25 155.47 86.00 151.50
  C 97.26 150.14 105.94 142.70 107.93 131.64
  C 110.54 117.07 101.33 109.23 88.06 106.56
  A 1.00 0.99 5.7 0 1 87.26 105.59
  L 87.43 79.19
  A 0.51 0.51 0.0 0 1 87.94 78.68
  C 126.82 78.70 146.33 121.90 119.80 150.83
  A 0.61 0.61 37.2 0 0 119.93 151.76
  Z"
/>
<path fill="#000000" d="
  M 78.56 114.23
  Q 88.66 115.24 93.06 122.56
  C 98.43 131.47 95.43 142.60 85.69 146.86
  Q 85.18 147.09 77.17 149.09
  C 55.39 154.53 46.40 181.26 61.63 198.63
  Q 69.96 208.12 84.56 209.07
  A 1.00 1.00 1.8 0 1 85.50 210.07
  L 85.50 249.09
  A 1.73 1.72 1.7 0 1 83.67 250.81
  Q 45.20 248.41 31.31 213.94
  Q 28.86 207.85 28.34 200.06
  C 27.01 180.18 35.12 163.16 51.14 150.90
  A 0.72 0.71 49.0 0 0 51.21 149.83
  C 26.05 124.67 41.58 83.36 77.00 81.25
  A 0.95 0.94 88.3 0 1 78.00 82.20
  L 78.06 113.69
  A 0.56 0.54 2.9 0 0 78.56 114.23
  Z"
/>
<rect fill="#000000" x="153.24" y="164.76" width="48.76" height="82.74" rx="0.54"/>
<path fill="#000000" d="
  M 255.09 202.77
  A 0.85 0.84 -87.8 0 0 254.19 203.61
  L 253.95 246.94
  A 0.52 0.51 0.6 0 1 253.43 247.44
  L 212.72 247.44
  A 0.72 0.72 0.0 0 1 212.00 246.72
  L 212.00 165.99
  A 1.24 1.24 0.0 0 1 213.24 164.75
  Q 240.13 164.75 267.50 164.91
  C 286.74 165.03 303.57 176.51 308.78 195.13
  Q 310.24 200.32 310.39 210.53
  Q 310.67 228.81 310.44 246.91
  A 0.60 0.60 -89.5 0 1 309.84 247.50
  L 269.00 247.50
  A 0.50 0.50 0.0 0 1 268.50 247.00
  Q 268.50 230.50 268.44 214.00
  C 268.42 205.95 261.88 203.24 255.09 202.77
  Z"
/>
<path fill="#000000" d="
  M 366.18 247.55
  C 361.24 247.47 355.78 247.76 351.31 247.06
  C 317.47 241.83 303.94 200.64 328.44 176.69
  Q 340.38 165.01 357.75 164.90
  Q 381.88 164.75 405.93 164.75
  A 0.57 0.57 89.5 0 1 406.50 165.31
  Q 406.67 207.97 406.32 250.04
  Q 406.24 259.84 404.84 265.32
  Q 398.91 288.51 375.62 293.94
  Q 370.07 295.24 359.27 295.22
  Q 339.41 295.19 319.09 295.51
  A 1.26 1.26 -0.4 0 1 317.81 294.25
  L 317.75 258.17
  A 0.67 0.67 0.0 0 1 318.42 257.50
  Q 337.97 257.50 357.24 257.50
  C 363.12 257.50 366.50 253.91 366.68 248.06
  A 0.51 0.50 1.1 0 0 366.18 247.55
  Z"
/>
<path fill="#000000" d="
  M 170.59 287.95
  L 170.25 283.78
  A 0.51 0.48 -2.6 0 1 170.76 283.25
  L 175.19 283.29
  A 0.52 0.51 -90.0 0 1 175.70 283.81
  L 175.74 292.63
  A 0.91 0.90 1.5 0 1 174.78 293.53
  C 169.04 293.22 162.05 293.54 161.00 286.31
  C 159.81 278.10 167.94 274.40 175.03 276.60
  A 0.84 0.61 10.8 0 1 175.62 277.23
  L 175.63 280.76
  A 0.68 0.62 10.0 0 1 174.73 281.33
  C 165.28 278.08 164.17 289.76 170.20 288.55
  A 0.58 0.50 82.4 0 0 170.59 287.95
  Z"
/>
<path fill="#000000" d="
  M 202.70 293.05
  C 192.34 295.39 184.48 282.93 194.88 277.08
  Q 198.75 274.90 203.59 276.52
  A 0.83 0.64 11.5 0 1 204.16 277.18
  L 204.11 281.01
  A 0.36 0.31 17.7 0 1 203.57 281.24
  C 192.56 274.73 192.94 294.58 203.57 288.03
  A 0.42 0.38 -25.6 0 1 204.17 288.21
  Q 204.96 290.65 203.51 292.55
  A 1.42 1.24 9.5 0 1 202.70 293.05
  Z"
/>
<path fill="#000000" d="
  M 227.2498 284.6912
  A 10.20 8.89 0.4 0 1 216.9879 293.5098
  A 10.20 8.89 0.4 0 1 206.8502 284.5488
  A 10.20 8.89 0.4 0 1 217.1121 275.7302
  A 10.20 8.89 0.4 0 1 227.2498 284.6912
  Z
  M 221.92 284.81
  A 4.72 4.72 0.0 0 0 217.20 280.09
  A 4.72 4.72 0.0 0 0 212.48 284.81
  A 4.72 4.72 0.0 0 0 217.20 289.53
  A 4.72 4.72 0.0 0 0 221.92 284.81
  Z"
/>
<path fill="#000000" d="
  M 83.58 287.67
  Q 80.66 282.19 87.91 283.36
  A 0.64 0.64 4.2 0 1 88.46 283.99
  L 88.51 292.77
  A 0.77 0.74 1.1 0 1 87.71 293.51
  C 84.84 293.40 81.35 293.59 78.88 292.54
  C 67.30 287.65 75.69 273.01 87.84 276.54
  A 0.83 0.78 4.5 0 1 88.41 277.17
  Q 88.76 279.08 88.32 280.96
  A 0.44 0.42 18.9 0 1 87.73 281.23
  C 79.88 277.89 75.72 288.61 82.96 288.69
  A 0.70 0.69 76.4 0 0 83.58 287.67
  Z"
/>
<path fill="#000000" d="
  M 52.06 288.07
  C 52.28 291.33 60.80 286.88 60.11 291.02
  Q 60.05 291.38 60.19 291.97
  Q 60.32 292.46 60.05 292.84
  A 1.16 0.77 10.6 0 1 59.20 293.20
  L 47.41 293.24
  A 0.67 0.65 89.6 0 1 46.75 292.57
  L 46.75 277.12
  A 0.83 0.79 -89.7 0 1 47.55 276.29
  L 58.81 276.41
  A 0.79 0.77 -11.3 0 1 59.53 276.88
  Q 60.21 278.47 59.44 280.00
  A 0.85 0.82 -75.7 0 1 58.68 280.47
  L 53.31 280.37
  A 1.52 0.84 14.0 0 0 52.41 280.61
  Q 51.15 281.65 52.55 282.23
  Q 53.99 282.82 55.50 282.48
  Q 59.38 281.60 59.00 284.02
  Q 58.92 284.59 58.92 285.16
  C 58.97 289.02 55.13 286.86 52.55 287.44
  A 0.63 0.59 -8.9 0 0 52.06 288.07
  Z"
/>
<rect fill="#000000" x="-3.26" y="-8.49" transform="translate(67.76,284.76) rotate(-0.1)" width="6.52" height="16.98" rx="0.68"/>
<path fill="#000000" d="
  M 98.27 286.81
  L 98.32 291.67
  A 1.36 1.12 89.1 0 1 97.23 293.03
  L 93.73 293.13
  A 0.67 0.48 86.9 0 1 93.22 292.49
  Q 92.87 286.55 92.97 280.59
  C 93.03 276.68 92.39 275.57 97.09 276.52
  A 1.58 1.37 -86.7 0 1 98.20 277.96
  L 98.37 281.56
  A 0.61 0.56 88.9 0 0 98.92 282.14
  L 103.16 282.18
  A 0.90 0.83 -89.7 0 0 104.00 281.28
  L 104.00 277.23
  A 0.98 0.95 -89.7 0 1 104.96 276.25
  L 108.05 276.28
  A 1.22 1.17 89.5 0 1 109.21 277.47
  C 109.32 282.72 108.84 287.86 109.16 292.25
  C 109.27 293.75 105.42 293.56 104.47 292.99
  A 1.06 0.81 -79.1 0 1 104.07 292.19
  L 103.86 286.94
  A 0.59 0.54 88.8 0 0 103.33 286.38
  L 98.81 286.27
  A 0.53 0.53 90.0 0 0 98.27 286.81
  Z"
/>
<path fill="#000000" d="
  M 115.56 282.10
  Q 111.13 283.44 112.26 277.32
  A 1.28 1.22 -84.1 0 1 113.48 276.28
  L 125.56 276.41
  A 0.59 0.54 0.0 0 1 126.14 276.94
  L 126.21 281.18
  A 1.43 1.24 6.8 0 1 124.47 282.35
  C 121.61 281.73 122.00 282.77 122.00 284.74
  Q 122.00 288.28 122.00 292.38
  A 0.88 0.85 -89.7 0 1 121.14 293.26
  L 117.32 293.21
  A 0.53 0.53 81.9 0 1 116.80 292.69
  L 116.75 282.99
  A 0.93 0.92 81.4 0 0 115.56 282.10
  Z"
/>
<rect fill="#000000" x="130.50" y="276.26" width="6.30" height="16.98" rx="0.55"/>
<path fill="#000000" d="
  M 146.65 286.37
  L 146.71 292.43
  A 0.68 0.66 -8.5 0 1 146.21 293.08
  Q 144.04 293.66 141.92 292.98
  A 0.71 0.68 -81.6 0 1 141.44 292.31
  L 141.45 277.19
  A 0.72 0.66 81.7 0 1 141.90 276.52
  Q 144.04 275.84 146.21 276.42
  A 1.54 1.34 75.5 0 1 147.00 276.96
  C 147.64 277.80 151.69 284.47 152.17 284.20
  A 0.79 0.41 82.5 0 0 152.40 283.56
  L 152.30 277.14
  A 0.70 0.66 89.2 0 1 152.96 276.42
  L 156.71 276.42
  A 0.64 0.48 90.0 0 1 157.19 277.06
  L 157.25 292.57
  A 0.68 0.67 90.0 0 1 156.58 293.25
  L 152.80 293.21
  A 0.94 0.91 -16.0 0 1 152.02 292.79
  L 147.68 286.05
  Q 146.63 284.42 146.65 286.37
  Z"
/>
<path fill="#000000" d="
  M 259.28 287.68
  Q 259.29 290.20 261.79 289.70
  Q 266.82 288.67 265.71 292.59
  A 0.68 0.66 -81.9 0 1 265.07 293.09
  L 254.48 293.22
  A 1.01 0.97 89.7 0 1 253.50 292.21
  L 253.50 277.24
  A 0.99 0.99 0.0 0 1 254.49 276.25
  L 258.34 276.25
  A 0.92 0.91 -90.0 0 1 259.25 277.17
  L 259.28 287.68
  Z"
/>
<path fill="#000000" d="
  M 270.21 280.92
  L 267.25 280.78
  A 0.89 0.70 -3.4 0 1 266.45 280.22
  Q 265.55 275.91 268.55 276.15
  C 270.30 276.28 278.86 275.85 279.71 276.48
  Q 280.80 277.28 280.17 280.39
  A 0.76 0.76 -71.7 0 1 279.10 280.93
  Q 277.87 280.35 276.67 280.99
  A 0.92 0.78 78.8 0 0 276.25 281.75
  L 276.20 292.43
  A 0.66 0.48 -89.0 0 1 275.71 293.08
  L 271.72 293.02
  A 1.23 1.04 -89.5 0 1 270.70 291.79
  L 270.71 281.56
  A 0.65 0.53 -88.6 0 0 270.21 280.92
  Z"
/>
<path fill="#000000" d="
  M 295.39 277.31
  C 301.02 281.40 299.58 290.56 293.19 293.19
  Q 291.72 293.79 284.75 293.05
  A 0.59 0.56 2.3 0 1 284.22 292.50
  L 284.03 277.37
  A 0.90 0.87 88.7 0 1 284.87 276.46
  L 292.33 276.25
  Q 293.87 276.21 295.39 277.31
  Z
  M 291.85 281.07
  C 287.33 278.62 288.50 285.62 288.50 287.70
  A 1.03 1.03 0.9 0 0 289.50 288.73
  Q 294.29 288.89 293.65 283.72
  Q 293.44 281.93 291.85 281.07
  Z"
/>
<rect fill="#000000" x="-1.88" y="-1.75" transform="translate(236.61,291.52) rotate(1.0)" width="3.76" height="3.50" rx="0.64"/>
<path fill="#000000" d="
  M 244.18 293.28
  Q 241.86 292.99 242.97 290.39
  A 1.11 1.10 4.1 0 1 243.67 289.79
  C 246.98 288.91 247.44 291.57 246.68 294.19
  C 246.25 295.69 244.55 296.33 244.65 293.80
  A 0.53 0.50 4.9 0 0 244.18 293.28
  Z"
/>
<rect fill="#000000" x="-1.88" y="-1.75" transform="translate(305.36,291.52) rotate(1.0)" width="3.76" height="3.50" rx="0.64"/>
</svg>
