<?xml version="1.0" encoding="UTF-8" standalone="no"?>
<!DOCTYPE svg PUBLIC "-//W3C//DTD SVG 1.1//EN" "http://www.w3.org/Graphics/SVG/1.1/DTD/svg11.dtd">
<svg xmlns="http://www.w3.org/2000/svg" version="1.1" viewBox="0 0 600 300">
<path stroke="#e80c10" stroke-width="2.00" fill="none" stroke-linecap="butt" vector-effect="non-scaling-stroke" d="
  M 482.29 254.50
  Q 480.65 254.37 480.29 256.00"
/>
<path fill="#e80c10" d="
  M 123.47 49.05
  Q 117.41 79.73 106.93 109.18
  C 99.05 131.31 83.34 165.44 59.49 174.73
  C 40.60 182.09 20.44 170.68 7.65 157.56
  C 6.22 156.09 4.21 155.50 5.35 152.77
  A 1.33 1.28 89.9 0 1 6.01 152.08
  Q 8.23 151.06 10.04 152.96
  C 13.40 156.49 18.01 160.43 21.58 162.70
  C 28.32 166.99 34.72 166.99 42.34 164.18
  C 79.50 150.49 93.61 85.70 98.46 52.01
  A 0.73 0.72 -0.9 0 0 97.61 51.19
  Q 78.32 54.61 59.14 56.33
  C 55.79 56.64 53.82 57.07 51.86 54.75
  A 2.81 2.78 67.9 0 0 49.52 53.75
  C 45.62 54.01 48.20 51.72 49.11 50.91
  C 52.22 48.13 46.86 45.96 45.89 43.15
  A 1.45 1.43 75.4 0 1 46.99 41.25
  L 51.19 40.52
  A 0.48 0.41 -15.6 0 0 51.58 39.95
  Q 51.19 39.01 49.46 38.54
  A 1.45 1.44 -81.7 0 1 48.41 37.12
  C 48.52 33.05 49.83 33.46 53.39 33.52
  C 58.34 33.61 61.95 34.44 65.81 33.72
  C 74.86 32.02 84.47 29.81 93.17 28.71
  Q 113.10 26.20 132.89 22.71
  Q 135.04 22.34 137.82 20.96
  C 141.93 18.93 147.25 18.35 150.62 17.56
  Q 158.10 15.79 161.50 15.50
  Q 174.36 14.40 187.07 12.15
  A 1.01 0.82 -22.7 0 1 187.92 12.40
  C 190.48 15.32 181.76 17.49 181.00 17.50
  C 176.10 17.54 165.70 17.44 162.20 21.41
  A 0.96 0.96 32.2 0 0 162.55 22.93
  C 163.62 23.38 170.66 23.28 166.33 25.27
  Q 163.26 26.68 162.13 29.47
  Q 161.53 30.96 159.77 31.34
  L 153.79 32.67
  A 1.64 1.03 -66.0 0 0 153.00 33.20
  C 149.51 37.38 140.45 38.86 135.30 40.57
  A 0.43 0.42 -23.6 0 0 135.06 41.18
  Q 136.47 43.78 133.73 44.43
  Q 128.57 45.66 123.99 48.31
  A 1.08 1.08 80.2 0 0 123.47 49.05
  Z"
/>
<path fill="#e80c10" d="
  M 353.07 39.21
  C 357.85 39.46 364.08 38.74 361.70 46.43
  A 2.07 2.06 -65.6 0 0 362.59 48.81
  Q 366.71 51.33 362.52 56.20
  Q 361.47 57.41 360.89 58.91
  C 354.34 75.86 346.44 91.89 339.60 108.59
  C 337.39 113.99 336.23 119.77 334.50 125.50
  Q 333.87 127.60 334.95 132.21
  A 1.69 1.46 -79.2 0 0 335.43 133.04
  Q 337.49 134.86 340.33 134.19
  A 1.26 1.25 -79.3 0 0 341.10 133.66
  L 352.92 116.28
  Q 354.24 114.34 352.08 115.31
  C 351.31 115.65 342.67 117.94 347.22 114.87
  Q 349.93 113.06 348.03 108.67
  Q 347.15 106.61 349.38 106.49
  C 354.09 106.24 360.50 99.87 364.06 96.81
  C 367.52 93.85 368.71 92.54 370.86 88.18
  Q 374.71 80.37 380.36 73.76
  Q 380.38 73.74 384.73 69.33
  Q 388.29 65.71 391.81 60.06
  C 396.49 52.55 401.79 48.14 408.20 43.25
  C 412.86 39.70 407.96 33.95 412.84 32.21
  A 1.59 1.28 -77.7 0 0 413.56 31.63
  Q 414.25 30.59 415.56 30.23
  A 0.72 0.71 -14.8 0 1 416.44 30.74
  C 417.80 35.88 425.73 36.36 429.76 37.37
  A 1.47 1.27 -7.6 0 1 430.55 37.89
  Q 431.93 39.82 432.15 42.19
  A 1.21 0.99 -30.9 0 1 431.84 43.05
  Q 430.88 44.12 430.54 45.51
  Q 428.31 54.56 427.26 63.77
  C 426.08 74.12 426.49 90.19 424.25 103.00
  C 422.43 113.44 423.34 124.46 422.67 135.06
  C 422.28 141.11 420.98 149.65 420.25 157.75
  Q 419.68 164.12 420.12 167.69
  Q 420.18 168.21 419.77 167.91
  Q 417.98 166.61 417.74 164.11
  Q 417.54 162.12 415.79 161.15
  C 411.54 158.81 417.21 154.24 413.93 149.71
  A 1.18 1.16 49.2 0 1 414.03 148.21
  Q 415.30 146.89 413.56 145.44
  Q 412.02 144.15 411.75 141.75
  L 410.50 130.73
  A 1.38 1.38 81.2 0 0 408.86 129.53
  C 406.79 129.92 407.52 128.39 407.46 127.37
  Q 407.16 122.19 406.83 117.02
  C 406.67 114.47 407.24 112.60 405.50 110.25
  C 403.34 107.34 406.78 96.58 406.69 93.94
  C 406.54 89.59 403.56 92.18 401.78 92.89
  Q 392.20 96.77 383.76 102.73
  C 381.83 104.10 380.29 104.19 378.06 104.29
  A 1.24 1.20 18.8 0 0 377.23 104.68
  C 366.14 117.21 362.60 134.76 351.94 147.69
  Q 351.03 148.79 350.65 149.78
  A 1.87 1.36 89.5 0 1 350.10 150.55
  C 343.86 155.22 341.51 163.33 335.79 169.09
  A 0.80 0.65 -52.8 0 1 334.97 169.29
  Q 334.46 169.06 334.14 168.51
  A 0.45 0.40 57.3 0 0 333.53 168.34
  C 331.95 169.45 329.72 173.27 327.92 171.01
  A 0.99 0.98 -53.0 0 0 326.24 171.25
  C 325.50 173.03 322.15 177.02 320.20 174.71
  C 316.54 170.38 318.52 168.53 321.58 164.19
  C 325.47 158.69 328.14 151.46 330.71 145.31
  Q 331.73 142.87 329.32 144.06
  L 322.97 147.20
  Q 320.38 148.48 317.83 146.70
  C 313.44 143.63 313.12 140.00 312.57 134.39
  Q 311.90 127.64 312.79 120.67
  Q 312.98 119.21 312.04 120.34
  Q 309.31 123.63 306.99 127.27
  C 303.36 132.96 293.31 141.36 286.24 141.32
  Q 282.85 141.30 278.69 140.82
  A 2.25 2.25 85.7 0 1 276.79 139.18
  Q 276.50 138.11 274.78 137.37
  A 1.87 1.39 1.3 0 1 274.02 136.78
  C 272.07 133.91 272.37 131.75 272.16 128.48
  Q 271.11 111.80 276.90 96.40
  C 280.65 86.41 283.51 77.03 288.94 67.94
  C 289.35 67.24 289.14 65.30 289.56 64.06
  C 291.61 57.95 294.71 48.18 298.86 43.32
  A 1.92 1.84 71.3 0 0 299.27 42.44
  C 299.77 39.55 304.21 31.93 306.86 30.60
  C 310.27 28.88 310.42 27.47 315.13 27.84
  A 1.62 1.60 -12.5 0 1 316.39 28.63
  C 317.93 31.28 318.59 34.23 320.30 36.37
  Q 321.48 37.85 323.09 39.47
  A 1.91 1.91 -54.3 0 1 323.45 41.67
  Q 318.53 51.51 312.51 60.70
  Q 310.84 63.24 311.72 66.16
  A 2.10 2.09 65.5 0 1 310.83 68.55
  C 305.67 71.79 307.36 78.00 302.58 81.89
  Q 301.91 82.43 301.43 83.15
  Q 300.12 85.06 299.97 86.41
  C 299.53 90.46 297.70 93.40 294.81 96.56
  C 292.32 99.30 293.21 102.99 291.61 106.07
  C 289.68 109.80 283.82 124.07 285.00 127.75
  C 287.06 134.19 296.57 125.93 299.97 123.24
  C 305.80 118.64 310.37 112.04 316.36 107.16
  Q 318.61 105.32 319.56 102.58
  Q 322.51 94.01 326.38 85.83
  C 328.29 81.79 328.30 76.12 329.36 71.39
  Q 329.79 69.46 331.18 68.06
  C 333.51 65.72 332.85 62.53 334.37 59.74
  Q 338.11 52.91 344.81 40.06
  C 345.90 37.97 351.27 36.23 352.40 38.73
  A 0.83 0.75 77.6 0 0 353.07 39.21
  Z
  M 402.98 61.25
  C 396.75 66.52 391.78 74.61 388.49 82.01
  Q 387.32 84.67 389.78 83.13
  C 393.56 80.77 396.20 77.58 400.75 76.47
  C 405.29 75.36 403.93 71.88 404.71 68.69
  C 405.01 67.46 408.28 56.76 402.98 61.25
  Z"
/>
<path fill="#e80c10" d="
  M 538.24 137.45
  C 541.99 141.76 545.16 145.12 549.48 147.67
  C 558.30 152.88 565.90 159.78 572.19 167.85
  A 1.85 1.77 80.6 0 0 572.96 168.43
  C 576.34 169.79 579.44 171.05 580.45 174.71
  Q 580.58 175.21 580.90 175.55
  Q 586.92 181.93 593.35 187.90
  Q 594.18 188.68 595.22 189.13
  A 0.86 0.75 11.8 0 1 595.73 189.80
  Q 595.86 192.49 593.61 190.15
  C 588.06 184.36 581.29 180.44 576.08 175.92
  Q 564.81 166.15 561.44 164.31
  C 552.32 159.35 544.57 150.62 537.97 143.36
  Q 535.92 141.10 533.30 139.50
  Q 527.30 135.84 521.82 131.43
  Q 519.64 129.68 517.42 128.90
  Q 516.14 128.45 515.24 127.42
  Q 508.79 120.08 502.88 113.13
  C 498.15 107.58 490.84 104.26 485.20 100.22
  Q 483.33 98.87 484.31 96.78
  C 487.43 90.13 489.79 97.26 493.45 93.18
  A 1.02 1.02 -46.7 0 0 493.41 91.78
  C 491.65 90.03 486.28 87.24 488.14 84.38
  C 489.28 82.62 490.38 80.24 492.66 83.09
  Q 496.03 87.30 503.26 87.23
  Q 505.13 87.22 506.16 85.64
  L 517.70 67.80
  A 1.69 1.62 -44.3 0 0 517.76 66.07
  L 516.07 63.13
  A 1.94 1.10 12.7 0 0 515.35 62.48
  L 505.43 57.03
  A 1.68 1.15 47.1 0 0 504.50 56.82
  C 501.49 57.22 498.59 57.59 495.56 57.77
  C 488.68 58.17 487.07 63.73 484.11 68.84
  A 0.59 0.59 -48.5 0 1 483.12 68.90
  C 479.86 64.51 478.61 74.71 477.89 76.50
  Q 477.08 78.48 474.73 81.40
  C 469.50 87.87 468.45 98.45 465.50 112.00
  Q 465.18 113.48 463.53 116.87
  Q 463.32 117.30 463.35 117.81
  C 463.69 123.33 460.73 127.51 460.64 133.00
  Q 460.51 141.06 456.68 148.00
  A 0.67 0.60 -66.8 0 1 455.95 148.34
  C 453.83 147.71 456.68 143.20 454.23 144.77
  C 452.74 145.72 450.44 152.20 449.73 154.04
  C 447.83 159.02 445.26 163.27 443.19 168.03
  Q 442.20 170.28 441.25 168.01
  C 439.03 162.68 437.41 166.86 437.32 169.32
  C 437.21 172.28 435.17 173.55 434.80 176.76
  A 0.31 0.29 19.6 0 1 434.34 176.96
  Q 432.78 175.99 431.56 177.36
  A 0.62 0.56 -52.5 0 1 430.81 177.50
  C 426.27 174.74 431.57 171.65 429.86 168.84
  Q 429.55 168.33 429.52 167.94
  C 429.12 162.55 433.37 156.09 436.03 151.54
  Q 436.98 149.90 436.51 148.06
  Q 436.04 146.18 437.39 145.32
  A 0.53 0.52 59.7 0 0 437.57 144.63
  Q 435.84 141.44 438.52 139.47
  A 1.77 1.33 -15.4 0 0 439.10 138.72
  C 440.03 136.03 441.13 131.09 442.94 129.05
  C 445.59 126.05 445.73 125.73 444.97 121.82
  Q 444.60 119.92 445.24 118.10
  C 447.63 111.35 449.42 103.19 453.24 96.68
  A 1.54 1.51 -33.2 0 0 453.44 95.76
  C 452.79 89.91 456.24 86.09 457.71 81.28
  C 459.10 76.77 460.18 73.84 460.75 69.98
  Q 461.06 67.92 459.60 69.41
  Q 454.55 74.58 446.80 73.28
  A 1.28 1.08 73.7 0 1 446.05 72.78
  Q 444.55 70.66 440.88 70.43
  Q 439.24 70.32 438.32 68.96
  Q 436.68 66.53 433.27 65.12
  A 1.10 1.02 4.5 0 1 432.66 64.46
  C 431.12 59.10 439.70 56.31 441.47 50.81
  A 2.39 2.38 87.1 0 1 442.77 49.37
  Q 453.37 44.69 463.93 40.91
  C 467.99 39.45 472.16 37.23 476.19 35.43
  C 482.96 32.41 493.54 35.85 498.39 30.45
  Q 499.73 28.95 501.73 29.04
  Q 512.43 29.52 523.81 32.19
  C 529.81 33.59 531.45 38.76 536.71 40.65
  Q 537.00 40.75 537.44 41.24
  L 540.92 45.14
  Q 541.37 45.65 541.46 45.93
  Q 542.31 48.73 543.31 49.44
  C 545.72 51.16 545.69 55.03 545.27 57.50
  C 544.55 61.70 545.24 65.83 543.85 69.58
  C 541.61 75.63 537.56 81.90 531.98 85.01
  A 3.55 3.54 -7.4 0 0 530.27 87.22
  C 529.80 89.04 520.82 93.53 518.66 95.39
  Q 517.48 96.41 515.92 96.69
  Q 514.53 96.94 515.68 97.77
  Q 523.24 103.23 527.63 111.59
  C 530.20 116.48 534.43 119.41 538.03 123.63
  Q 538.34 123.99 538.74 124.24
  Q 548.22 130.22 554.70 136.80
  C 559.49 141.67 565.99 145.01 570.94 150.32
  Q 580.19 160.20 592.69 172.06
  Q 594.08 173.38 593.59 175.21
  A 0.34 0.33 26.7 0 1 593.05 175.38
  Q 588.50 171.87 583.54 168.94
  C 581.04 167.46 579.55 165.39 577.84 163.72
  C 572.66 158.70 566.75 155.58 561.40 151.02
  C 557.92 148.04 555.40 144.50 550.93 142.83
  Q 543.70 140.13 539.94 133.06
  C 538.76 130.84 536.24 129.86 534.80 128.53
  Q 526.19 120.57 518.34 111.87
  A 1.16 1.03 -19.5 0 0 517.50 111.53
  C 514.43 111.59 511.03 108.46 508.65 106.65
  Q 507.66 105.89 504.90 104.57
  C 504.77 104.51 491.05 93.46 499.18 102.96
  Q 499.77 103.64 500.50 104.36
  Q 511.54 115.11 516.56 118.44
  Q 522.09 122.10 524.94 126.81
  Q 526.07 128.69 527.93 128.81
  A 1.78 1.24 -15.3 0 1 528.83 129.13
  C 532.14 131.81 535.39 134.18 538.24 137.45
  Z"
/>
<path fill="#e80c10" d="
  M 183.70 145.29
  L 181.76 152.80
  Q 181.02 155.65 180.27 152.79
  Q 178.64 146.56 176.89 141.50
  C 176.30 139.79 174.96 145.65 174.71 146.15
  Q 173.92 147.72 173.50 146.01
  Q 172.01 139.85 172.53 133.50
  Q 172.78 130.43 171.09 127.87
  C 168.35 123.72 169.73 105.63 169.54 99.51
  Q 169.46 96.70 167.11 98.25
  C 161.11 102.23 153.57 103.92 145.06 107.06
  C 141.65 108.33 139.71 109.49 137.97 112.90
  C 132.75 123.13 129.25 134.37 124.74 144.96
  C 123.29 148.35 120.57 151.68 119.23 154.14
  C 118.25 155.95 116.72 160.78 115.25 161.88
  Q 113.99 162.82 114.25 161.27
  Q 114.76 158.18 113.28 155.38
  Q 112.83 154.53 112.37 155.37
  Q 109.71 160.15 107.72 164.84
  Q 105.48 170.14 105.95 164.31
  C 106.01 163.56 106.98 160.98 104.69 162.69
  C 101.46 165.09 104.23 170.71 98.29 172.28
  A 0.35 0.35 88.5 0 1 97.86 171.87
  C 99.31 165.40 101.22 156.58 105.06 150.06
  Q 115.67 132.11 124.28 113.12
  Q 124.90 111.76 124.77 110.49
  A 0.99 0.98 71.4 0 0 123.27 109.74
  Q 120.73 111.31 119.67 108.29
  Q 118.92 106.13 121.17 105.70
  Q 124.46 105.08 126.74 103.59
  Q 128.49 102.45 130.30 99.11
  C 132.64 94.81 135.47 91.08 137.20 86.35
  C 140.19 78.17 146.77 69.32 151.46 63.29
  C 154.15 59.83 153.48 56.44 155.73 53.28
  Q 160.92 45.99 162.19 42.44
  Q 163.16 39.70 165.56 38.06
  Q 167.75 36.57 167.75 39.00
  Q 167.75 40.75 168.97 40.38
  A 1.20 0.89 -81.7 0 0 169.62 39.73
  Q 171.29 35.85 175.69 35.94
  C 179.36 36.01 189.02 28.16 188.45 38.42
  A 2.26 2.26 -72.5 0 0 189.52 40.48
  Q 192.31 42.20 191.88 45.95
  C 190.99 53.55 190.96 61.43 190.37 69.09
  C 188.33 95.45 188.74 122.26 189.18 148.69
  A 0.41 0.39 -83.6 0 1 188.69 149.10
  C 186.32 148.48 186.85 144.96 184.31 144.81
  A 0.64 0.58 -80.6 0 0 183.70 145.29
  Z
  M 153.01 93.86
  L 167.74 86.17
  A 1.52 1.30 79.1 0 0 168.44 84.94
  L 169.01 63.27
  Q 169.07 61.05 167.52 62.61
  Q 159.74 70.43 155.02 80.90
  C 152.70 86.02 150.03 90.59 147.90 95.70
  A 0.58 0.57 -79.3 0 0 148.44 96.50
  Q 150.99 96.46 152.30 94.49
  Q 152.57 94.09 153.01 93.86
  Z"
/>
<path fill="#e80c10" d="
  M 211.72 105.89
  C 212.21 118.14 218.74 127.30 229.40 133.18
  C 233.74 135.58 239.39 135.72 244.25 136.20
  Q 244.75 136.25 245.20 136.05
  C 248.90 134.39 255.24 133.18 252.32 127.46
  Q 251.47 125.79 251.34 123.92
  Q 250.86 116.77 252.80 108.75
  C 253.25 106.88 254.55 104.07 254.70 101.78
  Q 254.87 99.17 251.95 99.43
  L 245.39 100.02
  Q 243.45 100.20 242.67 100.61
  C 241.10 101.44 227.94 109.05 227.99 107.05
  A 1.07 0.77 -20.6 0 1 228.49 106.30
  Q 232.16 103.96 233.81 100.31
  C 238.14 90.78 254.25 89.29 262.11 83.99
  C 263.74 82.89 264.92 80.24 267.16 83.03
  A 2.42 1.85 -15.8 0 0 268.98 83.75
  L 272.81 83.64
  A 0.64 0.58 84.3 0 1 273.40 84.18
  C 273.91 87.41 272.61 89.37 272.45 92.31
  Q 272.27 95.46 271.77 97.09
  Q 267.30 111.59 266.50 119.00
  Q 266.31 120.80 266.26 128.25
  C 266.22 136.28 265.98 139.96 268.48 146.07
  Q 269.23 147.90 267.52 146.90
  Q 260.62 142.89 256.94 136.56
  Q 255.62 134.31 254.56 137.06
  C 253.08 140.91 249.77 141.81 247.44 144.44
  C 243.62 148.74 236.54 147.59 230.75 147.50
  C 227.60 147.45 225.60 145.71 223.30 145.01
  Q 218.98 143.71 218.06 142.94
  Q 206.71 133.40 204.00 130.00
  Q 202.29 127.84 200.00 120.00
  Q 197.65 111.95 197.48 102.02
  C 197.16 83.27 205.25 65.64 218.19 52.19
  C 220.38 49.91 223.62 47.00 226.67 43.83
  C 230.96 39.35 240.50 38.30 246.28 36.10
  C 250.85 34.36 251.37 39.32 255.11 38.73
  A 1.31 1.31 -15.0 0 1 256.53 39.55
  Q 258.00 43.34 261.19 46.12
  A 1.53 1.36 -20.2 0 0 262.06 46.46
  Q 267.81 46.75 263.01 49.59
  A 0.81 0.81 -37.3 0 0 262.84 50.84
  C 266.96 55.23 259.47 55.65 256.64 55.59
  C 251.60 55.47 246.78 59.25 242.09 61.08
  C 226.06 67.30 211.04 88.74 211.72 105.89
  Z"
/>
<path fill="#e80c10" d="
  M 498.70 113.51
  C 503.05 119.10 506.61 123.34 511.68 127.61
  Q 512.05 127.92 512.24 128.40
  Q 513.84 132.34 517.93 133.73
  Q 519.55 134.27 520.26 135.82
  Q 521.28 138.03 523.19 139.37
  Q 530.42 144.44 536.10 151.15
  Q 537.62 152.94 539.64 153.96
  Q 547.07 157.70 554.12 162.43
  Q 555.70 163.50 556.45 165.26
  Q 557.05 166.68 558.84 167.37
  Q 563.47 169.18 566.39 173.17
  Q 573.65 183.12 583.42 190.64
  C 584.89 191.76 585.09 193.73 582.71 191.92
  C 578.50 188.71 574.64 186.16 569.82 182.62
  Q 566.92 180.49 563.52 179.12
  A 1.80 1.65 80.7 0 1 562.77 178.53
  C 560.89 175.98 557.76 173.62 556.17 172.08
  Q 550.02 166.08 548.44 165.06
  C 542.65 161.34 536.57 158.00 530.87 153.13
  C 524.39 147.61 517.35 142.17 511.48 136.39
  C 509.31 134.25 506.26 133.83 504.64 131.41
  Q 498.00 121.45 488.12 114.73
  A 3.70 3.69 -81.9 0 1 486.69 112.82
  C 485.45 109.02 479.49 109.88 476.81 108.94
  C 474.03 107.96 471.32 100.51 475.75 100.68
  C 485.06 101.02 488.55 105.86 495.08 110.27
  Q 497.38 111.83 498.70 113.51
  Z"
/>
<path fill="#e80c10" d="
  M 529.00 164.83
  C 525.17 162.86 520.58 161.27 517.04 157.75
  C 508.99 149.75 500.94 142.51 493.62 133.32
  A 2.53 2.52 -12.0 0 0 492.26 132.44
  C 488.14 131.39 491.00 125.87 485.44 125.31
  C 479.84 124.75 480.76 119.19 475.30 117.03
  C 473.60 116.36 471.83 114.91 474.56 113.56
  Q 477.11 112.31 478.81 113.94
  Q 480.90 115.93 483.34 117.39
  C 487.91 120.12 493.85 119.56 496.75 125.27
  C 497.72 127.16 497.69 131.21 499.31 132.94
  Q 508.28 142.47 517.94 151.30
  Q 520.80 153.92 522.79 157.50
  A 1.47 1.45 82.8 0 0 523.68 158.20
  C 527.61 159.25 533.59 161.55 534.28 165.44
  A 1.75 0.94 -85.6 0 0 534.66 166.30
  Q 539.14 170.98 544.79 174.08
  Q 546.63 175.09 548.00 176.75
  Q 553.30 183.15 560.95 186.44
  Q 563.31 187.45 564.91 188.98
  C 572.90 196.61 581.77 201.99 588.42 209.62
  A 1.71 1.64 -11.3 0 0 589.22 210.13
  C 591.02 210.66 596.30 215.78 593.19 215.64
  A 1.02 0.72 71.9 0 1 592.48 215.11
  C 591.01 212.45 585.67 209.58 583.50 208.20
  C 576.85 203.95 570.88 199.21 564.57 194.61
  C 553.79 186.73 544.88 179.75 535.19 172.06
  Q 531.21 168.91 529.64 165.52
  A 1.57 1.35 87.9 0 0 529.00 164.83
  Z"
/>
<path fill="#e80c10" d="
  M 482.29 254.50
  Q 480.65 254.37 480.29 256.00
  Q 466.67 264.78 450.95 272.35
  Q 450.09 272.76 449.14 272.75
  C 445.12 272.69 449.49 268.59 450.12 267.82
  A 1.17 1.10 62.7 0 0 450.37 266.95
  C 449.22 257.33 456.19 254.70 463.02 250.82
  Q 477.67 242.50 489.62 230.62
  C 494.24 226.03 501.71 214.09 496.58 207.76
  C 490.40 200.14 478.19 201.66 470.25 203.75
  Q 465.69 204.95 464.69 209.24
  C 462.75 217.53 461.33 225.33 458.06 233.81
  Q 452.81 247.43 449.69 253.44
  C 446.58 259.43 443.29 268.04 444.56 275.30
  C 445.11 278.43 442.89 279.63 441.01 276.89
  Q 440.29 275.83 439.78 274.76
  Q 439.17 273.46 438.51 274.74
  C 437.45 276.77 438.22 278.65 437.08 280.27
  C 434.90 283.39 431.49 280.85 430.19 278.12
  C 428.23 273.99 430.58 264.49 431.93 260.19
  Q 437.03 244.04 442.80 228.13
  C 444.35 223.85 445.78 219.18 448.06 214.78
  Q 449.18 212.63 446.99 212.09
  A 1.52 1.18 -45.7 0 0 446.05 212.22
  Q 439.94 215.20 433.77 218.05
  C 431.25 219.21 428.80 219.17 427.88 216.22
  A 1.31 1.12 -43.4 0 1 427.98 215.30
  L 429.64 212.02
  A 1.32 1.32 -63.4 0 0 429.05 210.24
  C 414.75 203.21 445.48 194.14 447.75 193.50
  Q 450.87 192.62 452.75 191.67
  A 1.02 0.98 82.5 0 0 453.28 190.95
  Q 453.94 187.39 454.60 183.82
  C 455.37 179.65 456.09 177.76 460.66 180.14
  C 463.85 181.80 469.40 182.06 469.72 186.03
  Q 469.90 188.27 472.12 187.88
  C 487.30 185.18 504.66 186.99 513.06 201.19
  Q 514.29 203.26 514.50 205.50
  C 516.74 229.15 500.28 243.29 482.29 254.50
  Z"
/>
<path fill="#e80c10" d="
  M 366.96 246.15
  C 364.33 245.00 365.54 226.44 365.75 224.50
  Q 365.86 223.48 367.01 222.70
  A 0.81 0.79 -21.1 0 0 367.36 221.94
  Q 367.16 220.05 368.06 218.06
  C 375.70 201.27 389.97 194.14 407.19 190.56
  C 409.49 190.09 411.64 190.11 413.27 191.66
  Q 414.69 193.02 416.62 192.63
  C 422.63 191.40 423.53 198.06 419.31 200.56
  Q 417.27 201.77 418.24 203.58
  A 1.05 0.87 47.2 0 1 418.29 204.46
  Q 417.00 207.06 413.98 207.44
  C 399.72 209.24 388.52 213.40 381.81 226.72
  C 380.39 229.53 380.02 233.05 378.74 236.27
  Q 377.95 238.27 379.23 240.00
  C 380.55 241.79 380.39 244.41 381.14 246.22
  C 385.86 257.67 399.30 260.46 410.05 256.98
  C 417.23 254.66 421.69 250.01 426.69 244.19
  C 429.00 241.49 428.96 244.60 429.32 245.74
  Q 429.96 247.83 427.87 250.03
  A 0.63 0.62 49.7 0 0 427.81 250.83
  C 428.96 252.46 429.20 253.70 428.03 255.49
  C 420.29 267.27 404.92 269.85 391.99 267.89
  C 381.01 266.23 373.32 260.93 368.31 251.19
  Q 367.18 248.98 367.38 246.80
  A 0.70 0.62 15.3 0 0 366.96 246.15
  Z"
/>
<path fill="#e80c10" d="
  M 482.29 254.50
  Q 481.46 255.47 480.29 256.00
  Q 480.65 254.37 482.29 254.50
  Z"
/>
</svg>
