<?xml version="1.0" encoding="UTF-8" standalone="no"?>
<!DOCTYPE svg PUBLIC "-//W3C//DTD SVG 1.1//EN" "http://www.w3.org/Graphics/SVG/1.1/DTD/svg11.dtd">
<svg xmlns="http://www.w3.org/2000/svg" version="1.1" viewBox="0 0 600 300">
<path stroke="#000000" stroke-width="2.00" fill="none" stroke-linecap="butt" vector-effect="non-scaling-stroke" d="
  M 288.54 208.25
  Q 288.45 208.63 288.54 209.00"
/>
<path fill="#ff2100" d="
  M 242.68 40.44
  C 244.02 41.58 251.89 48.08 252.25 49.37
  Q 252.92 51.72 250.56 51.08
  Q 243.81 49.25 238.32 52.83
  Q 228.68 59.12 218.89 65.16
  C 217.95 65.74 216.45 65.55 217.75 64.01
  Q 227.62 52.40 238.38 40.71
  Q 240.40 38.51 242.68 40.44
  Z"
/>
<path fill="#ff2100" d="
  M 342.93 44.45
  C 345.34 41.92 351.70 41.09 354.94 41.57
  C 359.44 42.23 362.19 46.05 365.31 49.44
  C 369.59 54.07 362.65 57.80 359.25 58.99
  Q 356.79 59.85 355.27 57.73
  C 352.29 53.57 348.61 47.81 343.51 46.49
  A 1.23 1.23 29.2 0 1 342.93 44.45
  Z"
/>
<path fill="#ff2100" d="
  M 276.55 104.35
  A 0.72 0.71 79.6 0 0 277.49 105.00
  C 295.02 99.19 302.55 110.45 294.80 126.04
  Q 294.68 126.28 289.41 135.14
  C 281.04 149.19 271.87 163.13 256.61 169.65
  C 254.05 170.75 253.18 169.59 255.30 167.61
  C 271.33 152.70 281.30 134.57 288.74 114.61
  Q 289.75 111.93 289.58 110.39
  Q 289.23 107.10 285.98 107.73
  Q 277.64 109.36 272.41 114.66
  Q 271.26 115.82 269.60 116.67
  Q 267.75 117.63 267.51 115.56
  C 266.19 104.30 272.91 92.96 279.95 84.71
  C 282.46 81.76 293.22 68.14 281.56 70.31
  Q 275.30 71.48 271.04 76.53
  Q 269.39 78.48 268.42 78.87
  C 265.85 79.91 264.60 77.28 264.93 75.05
  C 266.40 65.34 273.53 53.01 278.57 44.55
  Q 280.01 42.13 282.48 43.50
  Q 285.57 45.23 287.59 48.36
  A 2.32 2.32 48.2 0 1 287.44 51.07
  C 282.57 57.07 277.00 62.88 273.48 69.56
  A 0.88 0.47 -59.1 0 0 273.44 70.45
  C 273.61 70.61 274.22 70.52 274.45 70.33
  C 279.35 66.15 290.09 63.79 293.94 71.06
  C 295.39 73.80 294.12 76.05 292.21 78.47
  C 288.51 83.14 276.35 98.82 276.55 104.35
  Z"
/>
<path fill="#ff2100" d="
  M 375.69 69.64
  A 1.17 1.08 -55.0 0 0 375.45 67.82
  C 364.69 62.93 341.48 76.06 332.94 82.94
  C 326.75 87.92 318.79 86.11 311.78 84.14
  Q 310.53 83.78 309.78 83.13
  A 1.08 1.08 53.5 0 1 310.05 81.32
  Q 334.68 70.41 360.25 62.00
  C 372.55 57.95 385.10 55.18 395.59 65.20
  C 398.14 67.63 400.58 69.32 396.81 72.31
  C 391.08 76.86 389.76 71.36 384.60 71.43
  Q 381.72 71.47 378.19 72.94
  C 376.15 73.78 371.61 75.82 371.18 75.04
  A 0.82 0.66 -39.6 0 1 371.36 74.17
  L 375.69 69.64
  Z"
/>
<path fill="#ff2100" d="
  M 248.49 62.32
  C 252.40 62.88 257.61 64.46 260.21 67.55
  A 1.48 1.46 -40.9 0 1 260.05 69.60
  L 246.87 81.32
  Q 244.72 83.22 245.81 80.58
  Q 248.01 75.19 251.75 68.81
  A 1.74 1.73 38.3 0 0 251.50 66.73
  C 251.15 66.36 247.20 63.25 247.61 62.55
  A 0.98 0.53 13.6 0 1 248.49 62.32
  Z"
/>
<path fill="#ff2100" d="
  M 235.42 70.75
  C 235.90 69.88 239.90 62.45 240.90 63.41
  A 1.22 0.47 -81.5 0 1 241.10 64.31
  L 240.99 66.84
  A 0.71 0.63 -13.1 0 0 242.00 67.39
  C 244.84 66.04 243.92 67.57 243.09 68.60
  C 240.27 72.09 240.79 76.39 239.98 80.58
  Q 239.47 83.25 237.34 81.56
  C 235.11 79.79 230.42 71.60 228.11 77.83
  Q 225.46 84.99 223.00 90.00
  Q 221.22 93.63 218.28 90.72
  C 213.70 86.18 214.25 78.01 217.56 73.31
  C 221.28 68.03 218.63 76.16 221.03 77.31
  A 0.98 0.84 -45.9 0 0 221.92 77.23
  C 227.30 73.75 230.24 73.51 234.73 71.41
  A 1.57 1.57 -88.7 0 0 235.42 70.75
  Z"
/>
<path fill="#ff2100" d="
  M 344.79 108.06
  C 349.79 106.75 356.51 106.63 360.20 102.70
  Q 365.48 97.09 369.73 90.67
  A 0.79 0.77 -45.2 0 0 369.74 89.82
  C 363.62 80.44 352.48 96.04 343.67 91.30
  Q 341.83 90.31 343.87 89.86
  C 350.61 88.37 355.11 83.76 360.63 82.05
  C 367.42 79.93 376.23 82.22 380.15 88.59
  C 382.22 91.95 380.60 94.96 378.00 97.25
  Q 373.85 100.91 370.31 107.81
  C 368.05 112.22 361.06 111.63 356.87 111.48
  A 0.84 0.83 2.4 0 0 356.00 112.27
  Q 355.69 118.30 356.87 124.23
  Q 359.07 135.36 359.26 146.67
  C 359.39 154.81 359.79 159.54 352.31 163.06
  Q 349.27 164.50 349.73 160.75
  Q 350.76 152.38 345.75 145.95
  Q 345.48 145.61 344.98 145.38
  Q 344.00 144.93 343.31 144.14
  A 0.45 0.43 -36.6 0 1 343.42 143.48
  Q 346.49 141.58 349.96 140.51
  Q 352.83 139.62 352.02 136.56
  Q 348.77 124.34 352.35 112.23
  A 0.55 0.53 -70.9 0 0 352.04 111.56
  C 345.67 109.01 346.90 114.01 345.13 117.26
  Q 343.53 120.19 340.89 116.42
  C 335.28 108.42 332.20 99.85 334.00 90.75
  Q 334.62 87.60 336.69 90.56
  Q 342.14 98.39 344.21 107.70
  A 0.48 0.46 76.0 0 0 344.79 108.06
  Z"
/>
<path fill="#ff2100" d="
  M 237.05 145.57
  C 238.02 144.94 236.81 132.12 236.62 129.49
  Q 236.54 128.27 235.63 129.11
  L 219.18 144.44
  Q 217.30 146.19 216.60 143.68
  C 215.01 137.97 216.36 133.65 219.74 128.50
  Q 227.30 117.02 234.80 105.51
  Q 235.63 104.23 236.00 102.75
  Q 236.53 100.61 234.69 102.19
  Q 225.11 110.35 215.69 118.69
  Q 210.89 122.93 204.53 121.73
  C 202.95 121.43 198.69 121.66 202.30 118.55
  Q 217.71 105.32 234.67 93.09
  A 2.54 2.49 -14.2 0 0 235.69 91.41
  Q 236.16 88.10 238.06 86.56
  Q 239.91 85.07 240.56 87.69
  C 240.99 89.38 246.70 90.39 248.39 91.51
  A 1.32 1.31 -55.9 0 1 248.74 93.36
  C 246.28 96.89 240.97 102.24 241.09 106.50
  Q 241.25 112.50 241.25 118.51
  Q 241.25 119.75 242.24 119.01
  Q 245.78 116.36 249.55 114.09
  C 252.24 112.46 250.59 114.79 250.15 115.22
  Q 246.24 119.12 242.66 122.50
  Q 241.17 123.89 241.22 125.93
  Q 241.51 139.82 241.27 152.28
  C 241.24 153.98 240.70 155.72 239.47 156.72
  Q 237.88 158.04 236.81 156.27
  Q 234.10 151.76 233.38 146.76
  C 233.04 144.45 234.24 142.45 236.29 145.28
  A 0.69 0.47 55.4 0 0 237.05 145.57
  Z
  M 235.20 113.42
  L 228.50 126.00
  Q 227.20 128.43 229.69 126.94
  L 235.66 123.34
  A 2.06 1.78 75.4 0 0 236.53 121.57
  L 236.24 113.74
  Q 236.16 111.61 235.20 113.42
  Z"
/>
<path fill="#ff2100" d="
  M 382.46 138.32
  A 1.11 1.11 49.7 0 0 382.61 136.45
  Q 378.28 133.17 374.80 129.27
  C 374.12 128.50 367.79 126.88 371.43 126.16
  Q 383.67 123.75 393.26 130.67
  C 398.44 134.40 401.64 137.61 396.99 143.73
  Q 395.56 145.62 393.20 145.40
  C 391.16 145.21 388.46 143.74 386.85 143.30
  C 379.68 141.36 375.77 146.03 369.99 145.21
  Q 368.24 144.97 369.68 143.94
  Q 373.58 141.16 377.93 139.22
  C 379.37 138.57 381.25 138.95 382.46 138.32
  Z"
/>
<path fill="#ff2100" d="
  M 317.69 127.69
  Q 318.17 123.41 320.06 127.19
  C 323.82 134.65 329.16 130.78 333.87 127.51
  C 334.43 127.13 336.09 126.83 335.26 128.24
  C 331.36 134.85 326.96 140.80 324.05 148.32
  C 321.48 154.93 317.47 148.47 315.90 145.98
  C 313.56 142.30 311.32 139.26 314.37 135.16
  C 316.21 132.69 317.33 130.86 317.69 127.69
  Z"
/>
<path fill="#ff2100" d="
  M 0.00 237.69
  L 0.00 179.32
  L 102.19 179.06
  A 1.29 1.28 66.1 0 1 103.06 179.40
  C 116.55 191.70 116.02 210.62 103.31 223.31
  A 3.21 3.18 -67.3 0 1 101.05 224.25
  L 28.34 224.25
  A 0.68 0.67 89.6 0 0 27.67 224.94
  L 27.74 236.99
  A 0.98 0.96 -89.7 0 1 26.77 237.97
  L 0.00 237.69
  Z
  M 86.57 196.93
  L 28.31 196.75
  A 0.57 0.56 90.0 0 0 27.75 197.32
  L 27.75 206.00
  A 0.50 0.50 0.0 0 0 28.25 206.50
  L 85.85 206.50
  A 2.49 2.48 23.0 0 0 87.57 205.81
  Q 92.21 201.39 87.44 197.26
  A 1.31 1.30 -23.9 0 0 86.57 196.93
  Z"
/>
<path fill="#000000" d="
  M 143.26 195.74
  L 143.27 198.64
  A 0.63 0.61 -0.0 0 0 143.90 199.25
  L 214.27 199.25
  A 3.01 2.96 -25.0 0 1 216.16 199.92
  C 229.57 210.71 229.86 226.35 216.35 237.21
  A 3.57 3.57 25.5 0 1 214.11 238.00
  L 117.53 238.00
  A 1.01 0.98 0.3 0 1 116.52 237.01
  L 116.67 222.69
  A 0.52 0.50 -0.0 0 1 117.19 222.19
  L 198.68 222.19
  A 0.84 0.77 11.6 0 0 199.42 221.75
  Q 200.21 220.08 199.61 218.27
  A 0.73 0.66 -8.2 0 0 198.93 217.81
  L 128.24 217.75
  A 1.57 1.47 -25.5 0 1 127.35 217.47
  C 113.25 207.33 113.12 190.37 126.67 179.70
  A 3.27 3.26 -64.0 0 1 128.69 179.00
  L 218.90 179.00
  A 0.85 0.85 0.0 0 1 219.75 179.85
  L 219.75 193.92
  A 1.04 1.03 0.0 0 1 218.71 194.95
  L 144.31 194.76
  A 1.05 0.98 0.0 0 0 143.26 195.74
  Z"
/>
<path fill="#ff2100" d="
  M 256.44 182.39
  L 250.27 196.66
  A 0.58 0.57 11.6 0 1 249.74 197.00
  L 223.30 197.00
  A 0.59 0.59 -78.2 0 1 222.76 196.17
  L 229.93 179.75
  A 1.26 1.22 -77.8 0 1 231.06 179.00
  Q 243.37 179.00 255.03 179.00
  C 255.94 179.00 258.51 178.48 257.46 180.30
  Q 256.98 181.14 256.44 182.39
  Z"
/>
<path fill="#000000" d="
  M 288.54 208.25
  Q 288.45 208.63 288.54 209.00
  L 288.50 237.33
  A 0.67 0.67 -0.2 0 1 287.83 238.00
  L 261.67 238.00
  A 0.92 0.92 0.1 0 1 260.75 237.08
  L 260.75 179.66
  A 0.66 0.66 -0.2 0 1 261.41 179.00
  L 287.82 179.00
  A 0.69 0.68 90.0 0 1 288.50 179.69
  L 288.54 208.25
  Z"
/>
<path fill="#000000" d="
  M 288.54 209.00
  Q 288.45 208.63 288.54 208.25
  C 289.75 208.53 332.94 182.53 338.22 179.49
  A 3.60 3.58 -60.0 0 1 340.03 179.00
  L 372.37 179.00
  Q 375.07 179.00 372.76 180.42
  L 327.40 208.21
  A 0.55 0.55 44.7 0 0 327.41 209.15
  L 373.08 236.95
  Q 374.70 237.94 372.80 237.94
  L 340.38 238.00
  A 5.80 5.57 59.1 0 1 337.52 237.22
  Q 314.16 223.61 290.30 209.77
  C 289.71 209.43 289.49 208.82 288.54 209.00
  Z"
/>
<path fill="#000000" d="
  M 457.44 213.56
  Q 423.68 213.46 389.92 213.49
  C 378.30 213.51 374.75 212.99 374.75 200.72
  Q 374.75 190.60 374.75 179.76
  A 0.76 0.76 0.0 0 1 375.51 179.00
  L 400.08 179.00
  A 0.67 0.67 0.2 0 1 400.75 179.67
  L 400.75 196.40
  A 0.85 0.85 -0.2 0 0 401.60 197.25
  L 457.34 197.25
  A 0.66 0.66 0.1 0 0 458.00 196.59
  L 458.00 179.94
  A 0.94 0.94 0.0 0 1 458.94 179.00
  L 482.65 179.00
  A 0.85 0.85 -0.0 0 1 483.50 179.85
  Q 483.50 201.67 483.50 223.77
  C 483.50 231.98 482.49 238.09 473.00 238.08
  Q 425.50 238.00 375.93 238.00
  A 1.38 1.33 -89.8 0 1 374.60 236.61
  L 374.73 222.31
  A 0.57 0.56 -89.5 0 1 375.29 221.75
  Q 412.37 221.75 448.50 221.91
  Q 452.24 221.93 455.86 221.45
  Q 457.93 221.17 457.94 219.20
  L 457.96 214.07
  A 0.52 0.51 0.0 0 0 457.44 213.56
  Z"
/>
<path fill="#000000" d="
  M 600.00 190.31
  L 600.00 228.56
  C 599.60 235.94 595.14 237.72 588.25 237.79
  Q 545.25 238.18 502.25 238.05
  C 496.44 238.04 488.95 237.61 488.25 230.25
  Q 487.74 224.94 487.97 201.18
  C 488.07 190.85 485.83 179.35 499.92 179.22
  Q 543.71 178.82 587.50 179.00
  Q 599.30 179.05 600.00 190.31
  Z
  M 574.25 199.54
  A 2.29 2.29 0.0 0 0 571.96 197.25
  L 517.54 197.25
  A 2.29 2.29 0.0 0 0 515.25 199.54
  L 515.25 217.46
  A 2.29 2.29 0.0 0 0 517.54 219.75
  L 571.96 219.75
  A 2.29 2.29 0.0 0 0 574.25 217.46
  L 574.25 199.54
  Z"
/>
<rect fill="#000000" x="229.76" y="199.22" width="27.74" height="38.78" rx="0.57"/>
</svg>
