<?xml version="1.0" encoding="UTF-8" standalone="no"?>
<!DOCTYPE svg PUBLIC "-//W3C//DTD SVG 1.1//EN" "http://www.w3.org/Graphics/SVG/1.1/DTD/svg11.dtd">
<svg xmlns="http://www.w3.org/2000/svg" version="1.1" viewBox="0 0 600 300">
<path fill="#000000" d="
  M 276.22 115.20
  C 288.14 89.01 316.01 71.55 344.51 83.80
  Q 349.91 86.12 355.31 88.44
  C 361.34 91.02 362.80 84.98 363.32 80.70
  A 0.80 0.80 88.0 0 1 363.96 80.01
  Q 368.77 79.05 368.74 82.50
  Q 368.55 104.47 368.44 126.44
  A 1.32 1.13 70.4 0 1 368.11 127.31
  Q 366.37 129.09 363.89 128.02
  A 0.98 0.91 -85.3 0 1 363.34 127.32
  C 361.41 117.48 357.94 107.54 351.03 100.34
  C 334.40 83.02 312.90 91.73 304.25 111.50
  C 296.60 128.98 296.61 151.80 299.50 171.50
  C 302.22 190.00 309.44 210.76 332.38 209.46
  C 346.14 208.68 356.50 197.84 363.79 186.49
  A 1.55 1.02 -73.7 0 1 364.52 185.87
  Q 365.52 185.55 366.38 186.18
  A 1.08 0.87 -75.7 0 1 366.75 187.00
  L 366.75 197.08
  A 3.43 3.41 63.5 0 1 366.07 199.13
  C 355.51 213.32 341.43 222.36 323.25 221.25
  C 295.66 219.56 278.98 203.16 271.48 178.02
  Q 262.04 146.36 276.22 115.20
  Z"
/>
<path fill="#000000" d="
  M 145.33 106.97
  Q 145.64 146.03 145.43 187.00
  C 145.37 197.28 143.76 212.03 158.43 212.30
  A 1.91 1.90 -4.8 0 1 160.27 213.84
  Q 161.13 218.20 158.00 218.20
  Q 117.13 218.25 76.25 218.25
  C 71.71 218.25 72.76 211.68 76.31 212.19
  Q 78.39 212.48 80.44 212.04
  C 86.32 210.78 86.16 207.26 84.72 202.21
  Q 81.64 191.44 77.67 180.96
  A 0.71 0.71 -9.9 0 0 77.00 180.49
  L 44.32 180.26
  A 1.11 1.08 -78.7 0 0 43.31 180.96
  C 40.63 187.93 35.58 199.80 37.75 206.75
  C 39.17 211.31 45.19 211.81 50.07 212.38
  A 0.65 0.55 3.6 0 1 50.64 212.93
  L 50.71 216.45
  Q 50.75 218.25 48.78 218.25
  L 15.56 218.19
  A 1.06 0.92 -15.4 0 1 14.74 217.80
  Q 13.52 216.15 14.22 213.00
  A 0.88 0.87 88.9 0 1 14.83 212.36
  C 23.74 209.83 26.65 201.64 29.37 193.91
  Q 49.07 138.01 68.41 81.97
  C 69.07 80.06 70.13 79.18 72.07 80.23
  A 1.39 1.17 -88.4 0 1 72.66 80.97
  Q 92.03 137.69 111.53 194.36
  C 113.34 199.61 116.00 208.81 120.97 211.01
  C 130.96 215.42 137.60 207.01 137.34 197.65
  C 136.49 167.17 137.25 136.35 137.25 105.84
  C 137.25 95.91 137.52 87.81 125.09 88.74
  A 2.00 2.00 -7.7 0 1 122.97 87.13
  Q 122.12 82.80 125.25 82.79
  Q 145.12 82.75 166.23 82.75
  A 0.83 0.83 80.8 0 1 167.02 83.32
  Q 180.92 124.58 194.79 166.13
  C 195.16 167.22 195.84 167.58 196.05 165.82
  Q 196.18 164.80 196.50 163.80
  L 222.24 83.54
  A 1.13 1.12 -81.1 0 1 223.31 82.75
  L 264.95 82.81
  A 1.04 0.99 -18.4 0 1 265.75 83.19
  Q 267.33 85.20 266.63 86.88
  Q 265.79 88.90 263.60 88.80
  C 251.43 88.25 251.92 96.95 251.90 105.75
  Q 251.82 152.94 252.21 200.13
  C 252.28 208.20 254.50 212.80 263.31 212.15
  Q 267.28 211.85 266.46 216.47
  Q 266.15 218.25 264.33 218.25
  L 212.25 218.25
  A 1.97 1.96 -4.9 0 1 210.31 216.62
  C 209.44 211.54 211.94 212.29 215.39 212.27
  C 225.66 212.23 224.97 201.14 224.92 194.00
  Q 224.61 149.44 224.93 104.89
  A 0.35 0.28 86.4 0 0 224.60 104.52
  C 224.24 104.60 190.77 207.77 187.59 217.47
  A 1.06 0.96 -89.1 0 1 186.97 218.13
  Q 185.31 218.72 183.85 217.84
  A 1.47 1.19 -88.4 0 1 183.28 217.09
  L 146.43 106.78
  Q 145.30 103.40 145.33 106.97
  Z
  M 47.07 170.02
  A 0.33 0.33 -81.8 0 0 47.38 170.45
  L 73.87 170.55
  A 0.33 0.33 -9.6 0 0 74.18 170.11
  L 61.07 131.36
  A 0.33 0.33 43.7 0 0 60.45 131.36
  L 47.07 170.02
  Z"
/>
<path fill="#000000" d="
  M 376.75 136.25
  C 380.01 111.53 396.06 84.93 422.53 81.37
  C 508.45 69.83 507.83 222.34 431.25 221.21
  C 386.62 220.55 371.94 172.71 376.75 136.25
  Z
  M 437.25 90.50
  C 416.73 84.81 409.29 110.77 407.38 125.32
  C 404.96 143.71 402.53 199.27 423.31 209.44
  Q 432.67 214.02 440.61 209.30
  C 451.78 202.66 455.60 184.35 456.75 172.75
  C 458.51 155.03 461.37 97.18 437.25 90.50
  Z"
/>
<path fill="#000000" d="
  M 531.05 155.06
  Q 530.39 176.80 530.92 198.54
  C 531.16 208.27 534.68 208.54 543.41 208.56
  C 565.71 208.62 575.95 194.83 579.97 174.55
  A 1.08 0.98 83.6 0 1 580.50 173.82
  Q 583.37 172.37 585.00 174.83
  A 1.49 1.16 -63.8 0 1 585.19 175.74
  L 580.66 217.26
  A 1.05 1.02 -86.5 0 1 579.64 218.19
  Q 535.97 218.30 491.75 218.41
  Q 488.42 218.41 489.16 214.05
  A 2.15 2.14 -86.6 0 1 491.16 212.27
  Q 492.40 212.20 494.50 212.18
  C 504.91 212.05 503.48 200.55 503.51 192.86
  Q 503.67 146.50 503.28 100.14
  C 503.20 90.60 499.98 89.22 491.28 88.74
  Q 489.34 88.64 489.11 86.71
  C 488.59 82.33 490.01 82.75 493.63 82.75
  Q 535.05 82.75 575.57 82.75
  Q 577.75 82.75 577.75 84.92
  L 577.69 122.43
  A 1.38 1.16 70.1 0 1 577.36 123.32
  Q 575.70 125.03 573.22 124.18
  A 0.87 0.81 -85.8 0 1 572.67 123.50
  C 571.05 113.01 568.16 101.07 558.66 96.03
  C 551.57 92.27 540.17 92.74 531.59 93.03
  A 0.87 0.87 -1.0 0 0 530.75 93.90
  L 530.75 143.66
  A 1.13 1.13 -1.7 0 0 531.95 144.79
  C 547.05 143.81 549.60 126.81 550.29 114.31
  A 0.70 0.67 83.8 0 1 550.78 113.67
  C 556.29 112.08 555.49 115.92 555.51 119.43
  Q 555.68 151.84 555.26 184.25
  A 0.88 0.83 77.5 0 1 554.81 185.00
  Q 552.90 186.00 550.79 185.36
  A 0.77 0.71 -83.6 0 1 550.29 184.68
  Q 549.71 174.09 545.75 164.28
  Q 541.90 154.74 531.56 154.57
  A 0.50 0.50 -31.7 0 0 531.05 155.06
  Z"
/>
</svg>
