<?xml version="1.0" encoding="UTF-8" standalone="no"?>
<!DOCTYPE svg PUBLIC "-//W3C//DTD SVG 1.1//EN" "http://www.w3.org/Graphics/SVG/1.1/DTD/svg11.dtd">
<svg xmlns="http://www.w3.org/2000/svg" version="1.1" viewBox="0 0 600 90">
<g stroke-width="2.00" fill="none" stroke-linecap="butt">
<path stroke="#513517" vector-effect="non-scaling-stroke" d="
  M 319.50 5.54
  Q 302.72 10.87 292.05 24.83
  C 288.63 29.31 285.10 37.98 289.06 43.19
  C 296.19 52.56 308.46 51.03 316.79 44.25"
/>
<path stroke="#583c1a" vector-effect="non-scaling-stroke" d="
  M 316.79 44.25
  Q 319.76 41.92 321.79 38.75"
/>
<path stroke="#4f3212" vector-effect="non-scaling-stroke" d="
  M 321.79 38.75
  Q 322.92 37.39 323.25 36.09"
/>
<path stroke="#583c1a" vector-effect="non-scaling-stroke" d="
  M 323.25 36.09
  Q 331.08 23.78 321.30 15.91
  Q 319.44 14.42 317.14 14.45
  Q 310.88 14.54 306.21 19.00"
/>
<path stroke="#4f3519" vector-effect="non-scaling-stroke" d="
  M 306.21 19.00
  Q 297.46 26.23 298.02 38.26
  A 1.04 0.98 74.4 0 0 299.50 39.15
  L 304.00 36.54"
/>
<path stroke="#583c1a" vector-effect="non-scaling-stroke" d="
  M 304.00 36.54
  L 310.45 33.02
  A 2.42 2.10 82.4 0 0 311.56 31.34
  Q 312.45 25.61 317.06 21.56
  Q 318.74 20.09 318.75 22.25
  Q 318.80 34.68 308.71 41.75"
/>
<path stroke="#513517" vector-effect="non-scaling-stroke" d="
  M 308.71 41.75
  C 298.78 48.10 286.02 41.97 294.27 29.29
  Q 303.47 15.18 320.04 10.00"
/>
<path stroke="#5b3f1e" vector-effect="non-scaling-stroke" d="
  M 320.04 10.00
  Q 332.46 6.98 345.25 7.79"
/>
<path stroke="#4a2d13" vector-effect="non-scaling-stroke" d="
  M 345.25 7.79
  L 358.95 9.56
  Q 361.83 9.94 359.14 11.17
  C 343.76 18.21 332.33 32.09 324.73 46.94
  A 2.11 2.10 -81.8 0 1 323.24 48.06
  C 318.20 49.02 310.34 49.83 306.69 53.19
  Q 305.07 54.67 307.44 55.81
  C 309.83 56.97 317.63 54.15 320.23 53.68
  Q 321.99 53.37 321.24 54.99
  Q 316.42 65.33 309.25 73.46"
/>
<path stroke="#52381f" vector-effect="non-scaling-stroke" d="
  M 309.25 73.46
  Q 300.96 81.74 289.25 82.71"
/>
<path stroke="#4d3219" vector-effect="non-scaling-stroke" d="
  M 289.25 82.71
  C 287.31 82.49 272.91 79.30 279.56 75.31
  C 283.78 72.79 290.33 74.70 290.86 67.44
  C 291.87 53.67 265.24 57.27 268.46 73.71
  C 270.18 82.51 280.37 87.26 288.50 87.46"
/>
<path stroke="#52381f" vector-effect="non-scaling-stroke" d="
  M 288.50 87.46
  Q 296.81 88.20 304.75 85.71"
/>
<path stroke="#472a14" vector-effect="non-scaling-stroke" d="
  M 304.75 85.71
  Q 312.90 83.57 320.12 79.21"
/>
<path stroke="#4a2d13" vector-effect="non-scaling-stroke" d="
  M 320.12 79.21
  Q 334.75 69.00 341.67 52.08
  A 1.43 1.43 7.8 0 1 342.82 51.21
  Q 357.47 49.49 370.43 41.94
  A 0.92 0.92 58.1 0 0 370.73 40.63
  Q 368.82 37.76 369.27 34.45
  Q 370.43 26.05 379.96 24.56
  A 0.73 0.73 -8.1 0 0 380.57 23.75
  Q 379.51 15.70 373.05 11.68
  Q 370.55 10.12 373.49 9.99
  C 375.52 9.90 379.45 9.60 380.75 7.71
  C 384.86 1.68 368.91 6.42 367.69 6.87
  A 2.95 2.93 47.0 0 1 365.40 6.78
  Q 357.76 3.20 350.12 2.91"
/>
<path stroke="#5b3f1e" vector-effect="non-scaling-stroke" d="
  M 350.12 2.91
  C 344.58 2.37 340.21 1.14 335.52 1.97
  C 330.05 2.92 324.76 3.66 319.50 5.54"
/>
<path stroke="#a56c31" vector-effect="non-scaling-stroke" d="
  M 350.12 2.91
  Q 349.13 4.78 347.23 6.05
  A 1.03 0.84 78.6 0 0 346.83 6.81
  Q 346.75 8.03 345.25 7.79"
/>
<path stroke="#ac7435" vector-effect="non-scaling-stroke" d="
  M 320.04 10.00
  Q 319.65 8.77 320.23 7.67
  A 0.58 0.57 35.3 0 0 320.10 6.96
  Q 319.50 6.41 319.50 5.54"
/>
<path stroke="#a97131" vector-effect="non-scaling-stroke" d="
  M 308.71 41.75
  C 309.34 49.02 313.38 37.66 316.79 44.25"
/>
<path stroke="#905727" vector-effect="non-scaling-stroke" d="
  M 320.12 79.21
  Q 317.07 76.32 319.39 73.85
  A 1.20 0.80 -34.7 0 0 319.73 73.00
  Q 319.59 72.14 318.69 73.19
  Q 316.63 75.57 314.56 74.69
  Q 311.67 73.45 311.44 76.56
  C 311.39 77.21 308.61 79.94 307.71 77.00"
/>
<path stroke="#9c6532" vector-effect="non-scaling-stroke" d="
  M 307.71 77.00
  C 308.51 76.24 311.56 73.54 309.25 73.46"
/>
<path stroke="#a76e2c" vector-effect="non-scaling-stroke" d="
  M 323.25 36.09
  Q 317.94 32.55 315.22 37.81
  A 0.88 0.79 -50.5 0 0 315.26 38.69
  C 316.63 40.58 319.35 38.10 321.79 38.75"
/>
<path stroke="#a77032" vector-effect="non-scaling-stroke" d="
  M 304.00 36.54
  Q 302.48 35.04 302.08 32.99
  A 1.63 1.32 -42.6 0 1 302.22 32.05
  C 303.76 28.83 304.33 25.07 306.86 22.07
  A 1.35 1.00 -33.6 0 0 307.18 21.19
  Q 307.09 19.96 306.21 19.00"
/>
<path stroke="#996233" vector-effect="non-scaling-stroke" d="
  M 304.75 85.71
  Q 303.21 80.17 307.71 77.00"
/>
<path stroke="#9f6a37" vector-effect="non-scaling-stroke" d="
  M 289.25 82.71
  L 288.50 87.46"
/>
<path stroke="#4f3212" vector-effect="non-scaling-stroke" d="
  M 533.21 27.50
  Q 525.15 36.86 519.25 47.71"
/>
<path stroke="#4a2d13" vector-effect="non-scaling-stroke" d="
  M 519.25 47.71
  C 514.35 56.10 507.65 69.14 508.79 79.50"
/>
<path stroke="#472a14" vector-effect="non-scaling-stroke" d="
  M 508.79 79.50
  C 512.68 91.08 521.73 83.09 526.51 78.26
  C 528.45 76.30 533.71 71.88 534.94 68.69
  Q 536.45 64.76 532.31 66.56
  Q 530.59 67.31 524.02 74.02
  C 519.18 78.97 521.77 67.37 522.04 66.50"
/>
<path stroke="#4a2d13" vector-effect="non-scaling-stroke" d="
  M 522.04 66.50
  Q 524.87 60.58 530.10 56.61
  Q 540.51 48.72 550.26 39.87
  Q 552.06 38.24 550.72 40.26
  Q 546.87 46.09 543.69 53.17"
/>
<path stroke="#3d2414" vector-effect="non-scaling-stroke" d="
  M 543.69 53.17
  Q 539.91 60.03 537.58 68.08"
/>
<path stroke="#462b18" vector-effect="non-scaling-stroke" d="
  M 537.58 68.08
  C 534.69 74.20 534.81 89.19 546.29 84.00"
/>
<path stroke="#4f361c" vector-effect="non-scaling-stroke" d="
  M 546.29 84.00
  Q 556.93 77.81 562.56 67.81
  Q 563.45 66.23 562.05 65.70
  A 1.29 1.05 -43.9 0 0 561.12 65.78
  C 556.53 68.10 553.74 71.98 549.94 75.26"
/>
<path stroke="#462b18" vector-effect="non-scaling-stroke" d="
  M 549.94 75.26
  C 546.88 75.55 549.39 66.68 550.16 64.94"
/>
<path stroke="#3d2414" vector-effect="non-scaling-stroke" d="
  M 550.16 64.94
  Q 551.79 60.51 556.00 57.79"
/>
<path stroke="#4c3019" vector-effect="non-scaling-stroke" d="
  M 556.00 57.79
  C 571.67 47.13 589.41 30.73 597.68 13.43
  C 600.64 7.24 593.88 5.31 589.25 6.29"
/>
<path stroke="#4a2d13" vector-effect="non-scaling-stroke" d="
  M 589.25 6.29
  C 579.95 7.70 576.11 12.32 569.00 17.46
  Q 567.16 18.79 568.30 16.83
  C 571.67 11.03 571.17 5.03 562.77 6.26
  C 549.51 8.19 540.94 17.41 533.21 27.50"
/>
<path stroke="#955d2c" vector-effect="non-scaling-stroke" d="
  M 589.25 6.29
  L 589.04 11.50"
/>
<path stroke="#4a2d13" vector-effect="non-scaling-stroke" d="
  M 589.04 11.50
  Q 583.79 14.37 578.81 19.81
  Q 564.00 36.01 554.71 54.00"
/>
<path stroke="#875127" vector-effect="non-scaling-stroke" d="
  M 554.71 54.00
  Q 549.30 52.80 543.69 53.17"
/>
<path stroke="#905727" vector-effect="non-scaling-stroke" d="
  M 522.04 66.50
  Q 521.01 66.04 520.19 67.44
  Q 519.05 69.38 514.74 68.22
  A 0.84 0.82 14.4 0 0 513.71 68.81
  L 512.91 71.95
  A 0.56 0.55 -74.7 0 0 513.28 72.62
  Q 514.79 73.09 515.12 71.43
  A 0.98 0.80 88.6 0 1 515.65 70.75
  C 518.36 69.73 515.72 74.72 514.75 74.19
  A 1.26 1.26 -63.4 0 0 513.01 74.77
  Q 511.04 79.10 508.79 79.50"
/>
<path stroke="#995f25" vector-effect="non-scaling-stroke" d="
  M 519.25 47.71
  Q 521.12 47.84 522.36 46.57
  A 1.48 1.37 -70.7 0 1 523.19 46.13
  C 527.73 45.49 530.36 39.13 531.17 35.01
  Q 531.32 34.23 531.84 33.62
  C 533.19 32.07 535.19 28.90 533.21 27.50"
/>
<path stroke="#3d2414" vector-effect="non-scaling-stroke" d="
  M 555.50 54.54
  Q 554.69 54.66 554.71 54.00"
/>
<path stroke="#89542c" vector-effect="non-scaling-stroke" d="
  M 556.00 57.79
  Q 554.82 56.31 555.50 54.54"
/>
<path stroke="#4c3019" vector-effect="non-scaling-stroke" d="
  M 555.50 54.54
  Q 571.98 41.26 585.51 25.00
  C 586.89 23.35 598.20 7.17 589.04 11.50"
/>
<path stroke="#834f2b" vector-effect="non-scaling-stroke" d="
  M 550.16 64.94
  L 546.81 63.56
  A 1.92 1.06 5.7 0 1 546.03 63.02
  C 544.61 61.17 543.70 62.77 543.27 64.17
  Q 542.02 68.28 537.58 68.08"
/>
<path stroke="#956134" vector-effect="non-scaling-stroke" d="
  M 549.94 75.26
  Q 549.10 76.50 548.48 77.87
  C 547.67 79.65 546.29 81.48 546.29 84.00"
/>
<path stroke="#4f3519" vector-effect="non-scaling-stroke" d="
  M 430.00 63.71
  C 426.57 68.61 421.18 76.70 427.46 82.25"
/>
<path stroke="#553815" vector-effect="non-scaling-stroke" d="
  M 427.46 82.25
  C 439.67 90.37 455.58 81.48 463.57 71.38"
/>
<path stroke="#4f3519" vector-effect="non-scaling-stroke" d="
  M 463.57 71.38
  C 460.63 84.06 474.60 88.98 481.07 78.80
  Q 482.29 76.87 482.52 79.14
  Q 482.96 83.58 487.06 83.89
  C 493.14 84.35 499.78 78.45 504.06 74.06
  Q 508.73 69.29 508.85 65.48
  Q 509.01 60.06 505.66 64.31
  Q 501.53 69.53 497.05 73.01
  Q 495.83 73.95 496.31 72.56
  Q 497.39 69.46 503.72 60.50
  Q 509.06 52.94 512.71 44.38
  A 0.45 0.45 -78.3 0 0 512.30 43.75
  L 503.41 43.75
  A 3.11 3.10 -66.1 0 0 501.32 44.56
  Q 499.96 45.82 498.98 44.71
  Q 498.59 44.27 498.22 44.14
  C 487.37 40.39 476.00 53.60 470.00 61.23
  Q 469.30 62.12 468.25 62.46"
/>
<path stroke="#4f3212" vector-effect="non-scaling-stroke" d="
  M 468.25 62.46
  C 470.42 57.51 471.91 42.91 463.00 43.29"
/>
<path stroke="#4f3519" vector-effect="non-scaling-stroke" d="
  M 463.00 43.29
  L 457.13 43.90
  Q 456.08 44.01 456.53 43.12
  L 470.08 16.27
  A 0.37 0.34 -74.7 0 0 469.80 15.74
  L 465.00 15.54"
/>
<path stroke="#472a14" vector-effect="non-scaling-stroke" d="
  M 465.00 15.54
  C 459.80 14.74 457.13 16.78 454.44 21.26
  Q 441.86 42.27 430.00 63.71"
/>
<path stroke="#965f2d" vector-effect="non-scaling-stroke" d="
  M 465.00 15.54
  Q 464.13 15.85 464.58 16.45
  A 0.82 0.64 44.3 0 1 464.69 17.25
  Q 454.76 34.88 444.69 52.44
  C 442.96 55.44 442.15 57.07 438.85 58.68
  Q 435.52 60.31 433.69 63.44
  Q 432.01 66.30 430.00 63.71"
/>
<path stroke="#9e672b" vector-effect="non-scaling-stroke" d="
  M 463.00 43.29
  Q 463.91 45.99 462.22 46.30
  Q 460.25 46.65 461.12 48.64
  L 463.13 53.27
  Q 463.35 53.78 462.84 53.47
  Q 461.27 52.48 459.94 53.48
  A 1.03 0.65 75.5 0 0 459.68 54.30
  Q 459.76 55.23 458.81 56.31
  Q 456.58 58.86 456.50 62.06
  A 0.40 0.40 -3.1 0 0 456.95 62.46
  Q 462.82 61.76 466.75 63.00
  Q 467.42 63.21 468.25 62.46"
/>
<path stroke="#a46c2d" vector-effect="non-scaling-stroke" d="
  M 463.57 71.38
  L 466.45 66.54
  A 0.73 0.68 25.5 0 0 466.05 65.53
  Q 459.11 62.92 452.81 66.06
  Q 451.63 66.65 450.96 66.00"
/>
<path stroke="#4f3519" vector-effect="non-scaling-stroke" d="
  M 450.96 66.00
  C 454.62 60.88 457.96 54.71 456.84 48.95
  A 1.13 1.12 -19.7 0 0 455.20 48.18
  C 449.57 51.23 444.49 65.26 441.43 71.04
  Q 440.33 73.11 441.93 74.85"
/>
<path stroke="#a46c2d" vector-effect="non-scaling-stroke" d="
  M 441.93 74.85
  C 442.27 77.61 441.33 79.43 438.73 80.69
  C 436.42 81.80 434.17 83.98 431.52 82.52
  C 430.09 81.73 429.02 79.38 427.46 82.25"
/>
<path stroke="#553815" vector-effect="non-scaling-stroke" d="
  M 450.96 66.00
  Q 447.50 71.36 441.93 74.85"
/>
<path stroke="#111112" vector-effect="non-scaling-stroke" d="
  M 386.71 34.50
  Q 386.66 32.64 385.79 31.00"
/>
<path stroke="#2b2d2e" vector-effect="non-scaling-stroke" d="
  M 385.79 31.00
  C 381.09 24.73 372.74 26.68 370.19 33.69
  C 369.41 35.83 371.46 37.37 372.37 38.65
  C 376.94 45.05 386.29 42.44 386.71 34.50"
/>
<path stroke="#3c3e3f" vector-effect="non-scaling-stroke" d="
  M 385.79 31.00
  L 383.56 33.36
  Q 383.12 33.83 383.72 33.94
  L 386.71 34.50"
/>
<path stroke="#452812" vector-effect="non-scaling-stroke" d="
  M 387.29 81.00
  Q 391.91 68.58 398.85 57.41"
/>
<path stroke="#4a2e17" vector-effect="non-scaling-stroke" d="
  M 398.85 57.41
  C 399.84 56.43 409.74 44.65 408.48 53.61
  Q 408.16 55.95 407.19 58.11
  Q 404.68 63.68 401.22 70.20
  C 397.19 77.78 397.78 83.59 407.80 83.98
  Q 416.17 84.31 421.93 77.63
  A 1.75 0.80 85.8 0 0 422.26 76.74
  L 422.80 73.03
  Q 423.05 71.29 421.71 72.33
  Q 417.55 75.58 412.12 75.45
  A 0.47 0.47 -76.2 0 1 411.71 74.77
  C 415.26 67.47 421.32 58.23 420.46 50.00"
/>
<path stroke="#3d2414" vector-effect="non-scaling-stroke" d="
  M 420.46 50.00
  C 418.76 43.92 412.33 44.30 407.71 46.75"
/>
<path stroke="#4a2e17" vector-effect="non-scaling-stroke" d="
  M 407.71 46.75
  Q 403.16 48.52 399.75 51.42
  Q 398.30 52.65 398.50 50.76
  C 399.13 44.73 394.11 40.03 388.81 44.56
  Q 384.99 47.84 379.31 54.43
  C 378.36 55.54 375.60 60.43 380.20 58.37
  C 381.14 57.95 385.14 54.03 385.61 54.26
  A 0.44 0.24 -63.9 0 1 385.63 54.75
  L 371.42 83.49
  A 0.52 0.51 -77.4 0 0 371.89 84.24
  Q 377.65 84.15 383.74 84.03
  C 385.91 83.98 387.18 83.24 387.29 81.00"
/>
<path stroke="#87522b" vector-effect="non-scaling-stroke" d="
  M 407.71 46.75
  L 410.44 51.78
  A 0.85 0.72 -29.0 0 0 411.54 52.00
  Q 415.09 50.00 417.39 51.80
  A 0.90 0.89 26.6 0 0 418.81 51.33
  Q 419.16 50.02 420.46 50.00"
/>
<path stroke="#8e5629" vector-effect="non-scaling-stroke" d="
  M 398.85 57.41
  L 396.88 55.43
  A 0.56 0.54 -50.2 0 0 396.05 55.52
  Q 393.50 59.12 393.10 63.31
  A 1.55 1.43 70.9 0 1 392.72 64.18
  C 390.77 66.25 380.42 79.89 387.29 81.00"
/>
<path stroke="#4f361c" vector-effect="non-scaling-stroke" d="
  M 367.75 73.48
  Q 372.87 60.67 380.48 48.80
  Q 381.18 47.71 379.91 47.74
  L 368.11 48.06
  A 2.41 2.24 -75.6 0 0 366.13 49.33
  Q 360.42 59.96 355.06 70.31
  C 352.05 76.13 351.39 87.75 362.31 84.31
  C 371.49 81.43 373.10 73.67 377.09 66.36
  C 377.53 65.57 376.74 65.59 376.41 66.00
  C 374.07 68.89 371.58 72.80 368.04 73.82
  Q 367.55 73.96 367.75 73.48"
/>
<path stroke="#4a2d13" vector-effect="non-scaling-stroke" d="
  M 363.90 12.93
  C 354.09 19.95 348.45 34.19 344.53 44.28
  Q 343.59 46.71 346.06 45.89
  C 359.46 41.47 371.39 28.15 365.93 13.55
  A 1.34 1.33 62.0 0 0 363.90 12.93"
/>
<path stroke="#8e5525" vector-effect="non-scaling-stroke" d="
  M 317.76 65.75
  C 318.02 70.86 326.72 53.11 326.96 52.63
  A 0.89 0.72 -52.4 0 0 326.94 51.76
  Q 326.12 50.70 324.52 52.38
  A 4.62 4.60 -18.3 0 0 323.32 54.76
  Q 322.37 60.17 318.09 64.89
  A 1.21 1.08 -27.3 0 0 317.76 65.75"
/>
<path stroke="#4f361c" vector-effect="non-scaling-stroke" d="
  M 76.75 14.21
  C 88.07 18.68 103.50 24.53 111.67 10.85
  C 113.48 7.82 110.92 6.58 108.16 7.92
  Q 104.10 9.89 99.50 9.79"
/>
<path stroke="#472a14" vector-effect="non-scaling-stroke" d="
  M 99.50 9.79
  C 94.10 8.74 88.72 7.75 83.32 6.61
  C 59.86 1.65 34.20 12.02 22.56 33.31
  C 16.00 45.32 27.79 54.35 38.94 52.44
  Q 55.00 49.68 58.80 33.45
  C 65.10 6.59 28.27 17.70 31.94 41.74
  A 0.89 0.84 -19.7 0 0 33.25 42.31
  L 43.55 36.48
  A 2.05 1.63 -12.7 0 0 44.49 35.31
  Q 45.84 29.36 49.94 24.94
  C 51.31 23.46 52.51 24.92 52.36 26.42
  C 51.19 38.23 43.02 47.50 30.61 47.01
  Q 28.40 46.93 27.20 45.08
  C 22.49 37.85 27.76 31.06 32.81 25.81
  Q 51.27 6.65 76.75 14.21"
/>
<path stroke="#966030" vector-effect="non-scaling-stroke" d="
  M 99.50 9.79
  L 98.26 14.10
  A 0.92 0.77 -0.1 0 1 97.58 14.67
  C 94.35 15.33 89.71 13.64 85.47 13.46
  A 2.30 2.28 62.7 0 1 84.26 13.07
  Q 81.78 11.42 79.05 11.32
  A 1.09 1.08 -67.5 0 0 78.21 11.67
  Q 77.21 12.76 76.75 14.21"
/>
<path stroke="#452812" vector-effect="non-scaling-stroke" d="
  M 124.75 85.04
  C 128.91 86.67 137.87 78.78 140.49 75.69
  A 1.75 1.50 73.3 0 0 140.88 74.81
  Q 141.53 70.37 143.19 68.19
  C 144.47 66.50 143.31 66.59 142.52 67.34
  C 140.59 69.16 134.48 76.36 131.79 74.25"
/>
<path stroke="#4c3016" vector-effect="non-scaling-stroke" d="
  M 131.79 74.25
  Q 131.65 70.70 133.35 67.58
  Q 142.01 51.61 151.40 35.58
  A 1.17 1.17 -74.8 0 1 152.41 35.00
  L 160.64 35.00
  A 1.26 1.14 -83.1 0 0 161.78 34.01
  L 162.41 31.28
  A 0.82 0.72 -83.5 0 0 161.71 30.27
  L 155.49 30.50
  Q 154.25 30.55 154.84 29.52
  L 162.26 16.44
  A 0.31 0.30 -74.7 0 0 162.01 15.98
  L 149.94 15.94
  A 0.74 0.69 -73.2 0 0 149.31 16.31
  Q 137.65 36.37 125.93 56.39
  C 121.44 64.06 117.49 72.12 120.56 81.23
  Q 121.60 84.31 124.75 85.04"
/>
<path stroke="#905727" vector-effect="non-scaling-stroke" d="
  M 131.79 74.25
  Q 130.87 75.86 128.26 75.71
  A 0.67 0.66 -74.6 0 0 127.62 76.08
  Q 126.58 78.15 124.88 76.83
  A 1.20 0.88 52.4 0 0 124.01 76.58
  Q 121.68 77.07 121.92 79.26
  A 0.38 0.35 -16.5 0 0 122.45 79.52
  C 126.93 77.46 125.51 82.30 125.73 84.25
  Q 125.84 85.31 124.75 85.04"
/>
<path stroke="#4e3013" vector-effect="non-scaling-stroke" d="
  M 74.17 26.95
  Q 65.83 36.59 59.95 47.58
  C 58.87 49.60 58.69 51.17 56.08 51.69
  C 53.47 52.22 32.55 58.79 34.21 63.54
  C 34.75 65.06 36.14 64.61 37.26 63.94
  Q 45.84 58.80 55.50 55.41
  Q 57.00 54.89 56.33 56.32
  C 50.41 68.99 40.57 80.44 26.00 81.50
  C 23.65 81.67 12.84 80.23 11.50 76.86
  C 9.27 71.30 23.98 75.28 23.69 66.06
  C 23.38 56.38 2.86 58.18 2.79 70.00"
/>
<path stroke="#452812" vector-effect="non-scaling-stroke" d="
  M 2.79 70.00
  Q 2.36 72.64 3.46 75.00"
/>
<path stroke="#4e3013" vector-effect="non-scaling-stroke" d="
  M 3.46 75.00
  C 8.77 86.02 25.60 87.33 36.00 84.79"
/>
<path stroke="#583c1a" vector-effect="non-scaling-stroke" d="
  M 36.00 84.79
  Q 47.87 83.75 57.54 77.00"
/>
<path stroke="#4e3013" vector-effect="non-scaling-stroke" d="
  M 57.54 77.00
  Q 68.77 69.48 74.00 57.04"
/>
<path stroke="#4f361c" vector-effect="non-scaling-stroke" d="
  M 74.00 57.04
  C 74.93 55.40 74.85 52.46 77.77 53.25
  A 1.84 1.83 22.8 0 0 79.85 52.41
  L 81.75 49.18
  A 0.54 0.49 -60.5 0 0 81.59 48.46
  C 80.13 47.65 78.66 49.28 77.12 48.08
  A 0.89 0.78 -68.3 0 1 76.83 47.26
  Q 78.91 35.20 85.19 23.49
  Q 86.58 20.92 83.74 20.19
  C 81.18 19.54 75.73 24.93 74.17 26.95"
/>
<path stroke="#9d662f" vector-effect="non-scaling-stroke" d="
  M 74.00 57.04
  Q 70.65 56.89 68.81 54.19
  A 2.76 1.54 -12.6 0 0 66.50 53.50
  C 63.64 53.77 61.92 49.75 64.64 51.22
  Q 70.05 54.14 69.84 47.93
  A 0.71 0.70 7.8 0 0 69.34 47.29
  Q 67.13 46.55 66.37 46.00
  Q 64.19 44.41 65.78 41.93
  L 70.46 34.63
  A 1.72 1.22 -77.2 0 1 71.16 34.00
  Q 75.83 32.05 74.17 26.95"
/>
<path stroke="#a66c2d" vector-effect="non-scaling-stroke" d="
  M 57.54 77.00
  Q 55.13 73.50 50.79 73.50"
/>
<path stroke="#8b5427" vector-effect="non-scaling-stroke" d="
  M 50.79 73.50
  C 50.77 71.29 48.07 72.81 48.80 75.09"
/>
<path stroke="#a66c2d" vector-effect="non-scaling-stroke" d="
  M 48.80 75.09
  Q 47.00 77.45 46.40 80.32
  A 0.91 0.87 86.2 0 1 45.84 80.99
  Q 42.21 82.35 38.25 82.19
  Q 35.04 82.05 36.00 84.79"
/>
<path stroke="#925825" vector-effect="non-scaling-stroke" d="
  M 3.46 75.00
  Q 3.57 74.13 4.87 74.21
  A 1.59 1.57 -76.0 0 0 6.43 73.26
  C 6.78 72.47 11.39 65.32 8.75 66.25
  Q 6.59 67.01 4.78 69.59
  A 0.97 0.97 -72.3 0 1 3.99 70.00
  L 2.79 70.00"
/>
<path stroke="#955f2d" vector-effect="non-scaling-stroke" d="
  M 50.79 73.50
  Q 50.02 74.63 48.80 75.09"
/>
<path stroke="#4a2e17" vector-effect="non-scaling-stroke" d="
  M 198.46 47.00
  Q 192.79 51.27 189.55 57.58
  A 0.64 0.63 13.4 0 0 190.12 58.50
  C 193.02 58.50 195.55 55.44 198.23 54.15"
/>
<path stroke="#472a14" vector-effect="non-scaling-stroke" d="
  M 198.23 54.15
  L 183.65 83.76
  A 0.70 0.69 13.9 0 0 184.26 84.76
  L 194.15 85.02
  A 2.13 2.12 12.9 0 0 196.15 83.77
  Q 201.09 72.87 207.07 62.62
  C 210.15 57.34 217.05 52.90 221.88 50.07
  A 1.17 0.99 -48.4 0 1 222.79 49.94
  Q 224.39 50.48 222.60 51.63
  Q 219.49 53.63 218.17 57.04
  A 1.06 0.99 -50.8 0 0 218.23 57.94
  Q 219.20 59.59 221.38 60.74
  A 1.61 1.48 -56.8 0 0 223.31 60.25
  L 229.94 51.71
  Q 231.32 49.93 229.98 48.36
  C 224.59 42.08 217.61 46.84 212.42 50.45
  Q 211.11 51.36 210.98 49.77
  Q 210.70 46.38 207.86 43.71"
/>
<path stroke="#52381f" vector-effect="non-scaling-stroke" d="
  M 207.86 43.71
  Q 202.13 42.23 198.46 47.00"
/>
<path stroke="#996233" vector-effect="non-scaling-stroke" d="
  M 207.86 43.71
  Q 206.58 44.95 203.94 48.19
  Q 202.86 49.50 204.11 50.22
  A 1.47 0.92 15.5 0 1 204.74 50.91
  Q 205.56 53.38 202.96 52.75"
/>
<path stroke="#9c6636" vector-effect="non-scaling-stroke" d="
  M 202.96 52.75
  C 201.40 50.44 199.08 48.89 198.46 47.00"
/>
<path stroke="#90582b" vector-effect="non-scaling-stroke" d="
  M 198.23 54.15
  Q 200.08 51.44 202.96 52.75"
/>
<path stroke="#442916" vector-effect="non-scaling-stroke" d="
  M 158.46 73.50
  C 157.11 65.52 166.22 51.19 170.95 44.92
  Q 171.79 43.80 170.39 43.82
  Q 164.42 43.87 158.05 44.98
  A 1.00 0.98 -80.7 0 0 157.33 45.51
  C 153.53 52.86 149.97 60.34 146.11 67.65
  C 142.88 73.75 141.69 83.23 151.54 83.50"
/>
<path stroke="#4f361c" vector-effect="non-scaling-stroke" d="
  M 151.54 83.50
  Q 157.11 83.90 160.69 79.11
  Q 162.05 77.28 162.35 79.54
  Q 162.44 80.26 163.71 81.75"
/>
<path stroke="#543b24" vector-effect="non-scaling-stroke" d="
  M 163.71 81.75
  Q 165.84 85.14 169.75 83.96"
/>
<path stroke="#4c3019" vector-effect="non-scaling-stroke" d="
  M 169.75 83.96
  C 176.42 82.59 188.42 71.80 188.88 64.98
  C 189.27 59.23 185.40 64.25 184.63 65.45
  Q 181.48 70.35 176.26 73.43"
/>
<path stroke="#543b24" vector-effect="non-scaling-stroke" d="
  M 176.26 73.43
  Q 178.91 67.44 182.54 62.00"
/>
<path stroke="#4f361c" vector-effect="non-scaling-stroke" d="
  M 182.54 62.00
  L 193.09 44.51
  Q 193.65 43.59 192.53 43.67
  L 181.55 44.52
  A 2.25 2.04 10.8 0 0 179.80 45.59
  C 178.17 48.53 161.76 77.82 158.46 73.50"
/>
<path stroke="#a37040" vector-effect="non-scaling-stroke" d="
  M 182.54 62.00
  C 179.65 58.67 175.66 66.70 174.94 68.69
  Q 173.75 71.96 170.16 73.27
  A 1.23 1.17 -86.9 0 0 169.50 73.89
  Q 168.78 75.44 167.37 76.41
  A 1.63 0.62 -26.5 0 0 166.71 77.13
  L 165.78 79.94
  A 0.65 0.56 -77.8 0 1 165.20 80.38
  Q 163.81 80.32 163.71 81.75"
/>
<path stroke="#935f32" vector-effect="non-scaling-stroke" d="
  M 151.54 83.50
  Q 154.48 79.28 156.61 74.58
  Q 157.13 73.44 158.46 73.50"
/>
<path stroke="#9f6b3c" vector-effect="non-scaling-stroke" d="
  M 176.26 73.43
  C 176.65 78.02 173.11 78.59 169.81 79.81
  Q 167.31 80.74 168.94 81.81
  Q 170.16 82.62 169.75 83.96"
/>
<path stroke="#4f3315" vector-effect="non-scaling-stroke" d="
  M 239.25 47.29
  C 231.46 52.69 217.20 69.26 221.29 79.87
  C 224.36 87.84 236.42 85.39 242.44 82.20"
/>
<path stroke="#553815" vector-effect="non-scaling-stroke" d="
  M 242.44 82.20
  C 244.33 80.67 260.78 65.29 257.35 63.52
  C 254.68 62.14 246.77 71.74 245.96 72.75"
/>
<path stroke="#4f3315" vector-effect="non-scaling-stroke" d="
  M 245.96 72.75
  Q 241.79 75.84 236.15 77.14
  A 1.54 1.53 -7.1 0 1 234.27 75.68
  C 234.19 71.71 234.83 70.89 238.66 69.71
  C 246.12 67.42 261.63 59.44 259.16 49.14
  Q 257.89 43.85 251.37 43.36"
/>
<path stroke="#472a11" vector-effect="non-scaling-stroke" d="
  M 251.37 43.36
  Q 244.62 43.76 239.25 47.29"
/>
<path stroke="#965d25" vector-effect="non-scaling-stroke" d="
  M 251.37 43.36
  L 250.39 49.03"
/>
<path stroke="#472a11" vector-effect="non-scaling-stroke" d="
  M 250.39 49.03
  Q 242.27 56.46 237.25 66.46"
/>
<path stroke="#965d25" vector-effect="non-scaling-stroke" d="
  M 237.25 66.46
  Q 235.43 65.12 234.83 68.08
  A 1.66 1.64 77.0 0 1 234.21 69.08
  C 232.73 70.21 232.93 73.80 230.93 73.65
  A 1.16 1.03 72.6 0 1 230.13 73.17
  C 229.09 71.70 229.34 70.65 230.51 69.29
  Q 234.67 64.47 234.98 58.00
  A 1.27 1.19 71.8 0 1 235.37 57.16
  C 235.70 56.88 240.21 54.39 237.05 54.70
  Q 230.98 55.31 235.78 51.48
  A 0.97 0.96 -44.0 0 1 237.02 51.50
  Q 239.01 53.23 240.70 53.03
  A 0.42 0.38 76.6 0 0 241.01 52.48
  L 239.25 47.29"
/>
<path stroke="#a46b29" vector-effect="non-scaling-stroke" d="
  M 245.96 72.75
  Q 247.43 74.21 245.56 74.81
  Q 244.08 75.30 244.75 77.50
  C 245.68 80.54 240.93 78.96 242.44 82.20"
/>
<path stroke="#4f3315" vector-effect="non-scaling-stroke" d="
  M 237.25 66.46
  C 244.49 64.10 252.26 58.51 252.66 50.00
  Q 252.78 47.45 250.39 49.03"
/>
<path stroke="#4f361c" vector-effect="non-scaling-stroke" d="
  M 114.67 44.69
  C 111.62 43.85 109.77 43.98 108.20 46.99
  Q 100.70 61.28 90.46 73.75"
/>
<path stroke="#472a14" vector-effect="non-scaling-stroke" d="
  M 90.46 73.75
  Q 89.68 75.11 87.30 74.16"
/>
<path stroke="#4d3219" vector-effect="non-scaling-stroke" d="
  M 87.30 74.16
  Q 89.93 58.09 100.20 45.43
  Q 101.33 44.02 99.53 44.09
  L 87.93 44.56
  A 1.72 1.71 11.9 0 0 86.46 45.51
  Q 80.28 58.01 74.11 70.15
  C 70.34 77.57 73.51 86.13 83.22 83.46"
/>
<path stroke="#472a14" vector-effect="non-scaling-stroke" d="
  M 83.22 83.46
  Q 87.80 82.32 91.00 78.71"
/>
<path stroke="#4f361c" vector-effect="non-scaling-stroke" d="
  M 91.00 78.71
  C 92.75 84.47 97.25 84.67 102.18 82.55
  Q 114.40 77.32 118.69 64.94
  Q 119.35 63.03 117.56 62.64
  A 1.31 1.13 -52.3 0 0 116.64 62.83
  C 113.15 65.10 110.23 72.02 107.06 72.81
  Q 104.62 73.42 105.98 71.30
  Q 111.08 63.32 116.04 55.25"
/>
<path stroke="#4e3013" vector-effect="non-scaling-stroke" d="
  M 116.04 55.25
  L 122.79 44.57
  A 0.34 0.34 17.6 0 0 122.52 44.05
  Q 117.72 43.85 114.67 44.69"
/>
<path stroke="#9d662f" vector-effect="non-scaling-stroke" d="
  M 116.04 55.25
  C 116.29 51.62 111.66 59.20 111.55 59.35
  A 0.59 0.52 -54.4 0 1 110.80 59.53
  L 106.12 56.33
  A 0.96 0.85 -72.5 0 1 105.75 55.50
  Q 105.84 54.24 106.87 53.56
  A 1.29 0.92 29.2 0 1 107.79 53.46
  C 110.52 54.15 111.40 52.46 111.87 49.99
  Q 112.44 46.95 114.67 44.69"
/>
<path stroke="#966030" vector-effect="non-scaling-stroke" d="
  M 91.00 78.71
  C 88.31 75.53 93.54 76.34 94.95 76.06
  A 0.96 0.93 -84.5 0 0 95.64 75.47
  Q 96.35 73.59 94.31 74.56
  Q 92.93 75.22 90.46 73.75"
/>
<path stroke="#945c2d" vector-effect="non-scaling-stroke" d="
  M 87.30 74.16
  Q 83.76 77.97 83.22 83.46"
/>
<path stroke="#4a2d13" vector-effect="non-scaling-stroke" d="
  M 548.40 23.11
  C 540.45 32.85 532.93 42.87 527.25 53.75
  Q 526.94 54.34 527.21 54.56
  A 0.83 0.48 -43.1 0 0 528.07 54.36
  Q 544.32 40.73 558.03 24.53
  C 559.58 22.70 566.02 13.99 564.99 11.78
  C 563.85 9.34 556.99 14.24 555.50 15.50
  Q 552.65 17.91 548.40 23.11"
/>
<path stroke="#4a2d13" vector-effect="non-scaling-stroke" d="
  M 565.95 20.23
  C 561.21 23.97 555.89 31.89 552.58 37.02
  Q 552.31 37.45 552.69 37.11
  Q 560.75 29.88 566.32 20.55
  Q 567.00 19.41 565.95 20.23"
/>
<path stroke="#8e5525" vector-effect="non-scaling-stroke" d="
  M 551.94 49.77
  C 550.23 52.65 553.28 50.76 553.84 49.76
  A 1.38 1.37 3.8 0 1 554.54 49.15
  Q 556.74 48.29 556.97 46.09
  A 2.33 2.31 -22.7 0 1 557.48 44.86
  C 558.67 43.41 566.22 32.05 563.24 31.94
  A 1.28 0.85 -60.4 0 0 562.41 32.36
  C 557.98 37.05 555.24 44.17 551.94 49.77"
/>
<path stroke="#955f2d" vector-effect="non-scaling-stroke" d="
  M 322.13 31.32
  C 324.06 32.63 326.06 25.47 322.06 30.60
  A 0.52 0.48 -53.1 0 0 322.13 31.32"
/>
<path stroke="#4f3519" vector-effect="non-scaling-stroke" d="
  M 489.22 54.08
  Q 482.25 61.38 479.43 69.01
  C 477.50 74.23 479.63 76.05 483.28 71.36
  Q 491.10 61.31 497.57 50.30
  A 0.71 0.70 -74.0 0 0 496.99 49.24
  Q 493.11 49.15 491.30 51.61
  Q 490.34 52.91 489.22 54.08"
/>
<path stroke="#2b2d2e" vector-effect="non-scaling-stroke" d="
  M 374.75 30.70
  Q 369.92 35.07 374.24 37.46
  A 1.04 1.01 -42.1 0 0 375.15 37.49
  Q 380.75 35.01 376.36 30.73
  A 1.18 1.18 -43.9 0 0 374.75 30.70"
/>
<path stroke="#777777" vector-effect="non-scaling-stroke" d="
  M 375.6323 35.5800
  A 1.31 1.15 89.9 0 0 376.7800 34.2680
  A 1.31 1.15 89.9 0 0 375.6277 32.9600
  A 1.31 1.15 89.9 0 0 374.4800 34.2720
  A 1.31 1.15 89.9 0 0 375.6323 35.5800"
/>
<path stroke="#925a2a" vector-effect="non-scaling-stroke" d="
  M 284.34 66.26
  A 0.85 0.83 -50.8 0 0 285.23 66.16
  C 290.47 61.95 285.45 63.37 283.49 64.55
  A 0.63 0.51 -30.0 0 0 283.21 65.29
  Q 283.50 65.85 284.34 66.26"
/>
</g>
<path fill="#000000" d="
  M 334.31 0.00
  L 342.81 0.00
  C 353.74 0.78 358.20 1.55 366.54 4.24
  A 2.72 2.67 42.8 0 0 368.33 4.19
  C 372.18 2.75 385.05 -0.49 383.20 7.73
  C 382.58 10.50 380.48 11.75 377.75 11.50
  Q 376.31 11.37 377.56 12.44
  Q 383.07 17.13 382.51 24.31
  A 0.79 0.77 -74.9 0 0 382.92 25.05
  C 391.71 29.71 390.88 43.54 379.81 44.19
  Q 376.26 44.40 373.46 43.21
  A 1.42 0.98 38.9 0 0 372.53 43.14
  C 372.22 43.26 366.30 46.28 371.75 45.75
  Q 373.60 45.57 381.00 45.97
  Q 381.40 45.99 381.91 46.29
  Q 383.35 47.11 384.56 45.31
  C 388.26 39.85 400.34 37.94 400.31 47.05
  Q 400.31 48.21 401.23 47.51
  C 409.87 40.95 425.11 39.59 422.54 56.04
  C 421.74 61.16 418.07 67.21 415.59 72.07
  Q 414.95 73.32 416.24 72.76
  C 417.97 71.99 421.09 69.39 422.71 69.70
  A 1.16 1.15 -69.6 0 0 423.92 69.14
  Q 438.29 44.16 452.62 19.35
  C 456.44 12.75 462.26 12.70 469.45 13.40
  C 472.36 13.69 473.20 15.34 471.92 17.93
  Q 466.44 29.01 460.76 39.97
  Q 459.96 41.53 461.68 41.19
  C 469.12 39.73 472.81 47.14 472.22 53.45
  C 472.10 54.71 472.65 54.81 473.31 54.00
  C 478.95 47.09 487.65 39.45 497.12 41.36
  C 501.07 42.16 504.99 41.35 508.96 41.45
  C 511.31 41.52 514.94 40.59 514.86 44.17
  C 514.78 48.24 509.87 55.76 507.48 59.24
  A 0.64 0.64 -68.0 0 0 507.90 60.24
  C 509.88 60.54 510.46 59.83 511.24 58.11
  Q 523.01 31.94 543.44 12.69
  C 548.35 8.06 568.41 -2.30 572.34 8.27
  A 1.65 1.33 -51.7 0 1 572.35 9.22
  Q 571.47 12.18 573.67 10.39
  C 578.46 6.47 597.18 -1.61 600.00 8.31
  L 600.00 13.81
  C 592.52 30.98 573.44 48.83 557.26 60.04
  Q 552.29 63.48 551.00 69.50
  Q 550.31 72.73 552.19 70.19
  C 554.26 67.39 558.15 63.38 561.81 63.39
  Q 565.42 63.41 564.94 68.19
  C 564.73 70.28 561.32 73.68 560.32 74.94
  C 556.62 79.63 549.06 87.62 542.71 87.23
  Q 533.29 86.64 533.76 75.95
  Q 533.84 74.30 532.66 75.46
  C 528.70 79.36 522.77 86.97 516.86 87.56
  C 509.98 88.25 505.81 83.08 506.75 76.25
  Q 507.04 74.11 505.56 75.81
  C 500.25 81.90 492.59 87.82 483.99 85.49
  A 2.95 2.95 -6.7 0 1 482.19 84.07
  C 480.92 81.76 479.89 83.91 478.84 84.54
  C 472.16 88.55 463.86 86.70 461.23 78.40
  A 0.54 0.54 -30.9 0 0 460.34 78.18
  C 451.96 86.31 438.88 90.49 427.81 85.44
  Q 424.97 84.14 423.18 81.00
  A 0.62 0.55 63.2 0 0 422.47 80.72
  Q 421.68 81.05 421.08 81.67
  C 416.08 86.84 407.23 87.30 400.94 84.81
  C 395.28 82.58 395.65 74.87 398.24 70.27
  Q 402.47 62.78 406.04 54.96
  A 1.23 0.75 -54.8 0 0 406.10 54.03
  C 405.53 52.95 400.37 59.88 399.82 60.57
  C 394.81 66.90 391.86 76.70 388.62 84.26
  A 2.58 2.57 8.8 0 1 386.51 85.80
  C 381.69 86.26 376.82 86.03 371.86 86.39
  Q 369.58 86.55 369.03 84.30
  A 0.33 0.32 66.3 0 0 368.53 84.10
  C 362.98 87.87 351.67 89.71 350.98 79.62
  Q 350.54 73.29 353.25 68.25
  Q 358.49 58.49 363.60 49.02
  Q 364.16 47.98 363.05 48.39
  Q 354.33 51.62 344.53 53.11
  A 1.30 1.29 -83.0 0 0 343.53 53.90
  C 337.41 68.68 325.93 80.95 310.86 86.36
  C 297.16 91.28 273.62 93.27 266.75 76.50
  C 261.94 64.76 273.87 54.60 285.00 56.75
  C 294.91 58.66 296.76 73.76 285.21 75.99
  Q 283.23 76.37 281.34 77.05
  Q 280.27 77.44 281.30 77.93
  C 285.54 79.97 289.79 81.05 294.47 79.56
  C 305.55 76.02 311.97 67.38 317.30 57.62
  Q 318.21 55.94 316.45 56.68
  C 312.65 58.27 301.81 60.63 304.44 52.67
  A 0.70 0.70 5.6 0 0 303.69 51.76
  Q 295.30 52.83 289.19 47.06
  C 282.02 40.30 285.08 30.61 290.02 23.84
  C 300.73 9.19 316.33 1.71 334.31 0.00
  Z
  M 319.50 5.54
  Q 302.72 10.87 292.05 24.83
  C 288.63 29.31 285.10 37.98 289.06 43.19
  C 296.19 52.56 308.46 51.03 316.79 44.25
  Q 319.76 41.92 321.79 38.75
  Q 322.92 37.39 323.25 36.09
  Q 331.08 23.78 321.30 15.91
  Q 319.44 14.42 317.14 14.45
  Q 310.88 14.54 306.21 19.00
  Q 297.46 26.23 298.02 38.26
  A 1.04 0.98 74.4 0 0 299.50 39.15
  L 304.00 36.54
  L 310.45 33.02
  A 2.42 2.10 82.4 0 0 311.56 31.34
  Q 312.45 25.61 317.06 21.56
  Q 318.74 20.09 318.75 22.25
  Q 318.80 34.68 308.71 41.75
  C 298.78 48.10 286.02 41.97 294.27 29.29
  Q 303.47 15.18 320.04 10.00
  Q 332.46 6.98 345.25 7.79
  L 358.95 9.56
  Q 361.83 9.94 359.14 11.17
  C 343.76 18.21 332.33 32.09 324.73 46.94
  A 2.11 2.10 -81.8 0 1 323.24 48.06
  C 318.20 49.02 310.34 49.83 306.69 53.19
  Q 305.07 54.67 307.44 55.81
  C 309.83 56.97 317.63 54.15 320.23 53.68
  Q 321.99 53.37 321.24 54.99
  Q 316.42 65.33 309.25 73.46
  Q 300.96 81.74 289.25 82.71
  C 287.31 82.49 272.91 79.30 279.56 75.31
  C 283.78 72.79 290.33 74.70 290.86 67.44
  C 291.87 53.67 265.24 57.27 268.46 73.71
  C 270.18 82.51 280.37 87.26 288.50 87.46
  Q 296.81 88.20 304.75 85.71
  Q 312.90 83.57 320.12 79.21
  Q 334.75 69.00 341.67 52.08
  A 1.43 1.43 7.8 0 1 342.82 51.21
  Q 357.47 49.49 370.43 41.94
  A 0.92 0.92 58.1 0 0 370.73 40.63
  Q 368.82 37.76 369.27 34.45
  Q 370.43 26.05 379.96 24.56
  A 0.73 0.73 -8.1 0 0 380.57 23.75
  Q 379.51 15.70 373.05 11.68
  Q 370.55 10.12 373.49 9.99
  C 375.52 9.90 379.45 9.60 380.75 7.71
  C 384.86 1.68 368.91 6.42 367.69 6.87
  A 2.95 2.93 47.0 0 1 365.40 6.78
  Q 357.76 3.20 350.12 2.91
  C 344.58 2.37 340.21 1.14 335.52 1.97
  C 330.05 2.92 324.76 3.66 319.50 5.54
  Z
  M 533.21 27.50
  Q 525.15 36.86 519.25 47.71
  C 514.35 56.10 507.65 69.14 508.79 79.50
  C 512.68 91.08 521.73 83.09 526.51 78.26
  C 528.45 76.30 533.71 71.88 534.94 68.69
  Q 536.45 64.76 532.31 66.56
  Q 530.59 67.31 524.02 74.02
  C 519.18 78.97 521.77 67.37 522.04 66.50
  Q 524.87 60.58 530.10 56.61
  Q 540.51 48.72 550.26 39.87
  Q 552.06 38.24 550.72 40.26
  Q 546.87 46.09 543.69 53.17
  Q 539.91 60.03 537.58 68.08
  C 534.69 74.20 534.81 89.19 546.29 84.00
  Q 556.93 77.81 562.56 67.81
  Q 563.45 66.23 562.05 65.70
  A 1.29 1.05 -43.9 0 0 561.12 65.78
  C 556.53 68.10 553.74 71.98 549.94 75.26
  C 546.88 75.55 549.39 66.68 550.16 64.94
  Q 551.79 60.51 556.00 57.79
  C 571.67 47.13 589.41 30.73 597.68 13.43
  C 600.64 7.24 593.88 5.31 589.25 6.29
  C 579.95 7.70 576.11 12.32 569.00 17.46
  Q 567.16 18.79 568.30 16.83
  C 571.67 11.03 571.17 5.03 562.77 6.26
  C 549.51 8.19 540.94 17.41 533.21 27.50
  Z
  M 321.89 12.96
  C 334.97 19.98 327.12 38.69 318.64 45.88
  Q 318.01 46.41 318.84 46.46
  Q 321.97 46.64 323.07 44.62
  C 330.00 31.98 339.27 20.09 351.68 12.42
  C 355.80 9.87 350.53 10.53 349.46 10.40
  Q 335.63 8.66 322.04 11.82
  Q 320.45 12.19 321.89 12.96
  Z
  M 430.00 63.71
  C 426.57 68.61 421.18 76.70 427.46 82.25
  C 439.67 90.37 455.58 81.48 463.57 71.38
  C 460.63 84.06 474.60 88.98 481.07 78.80
  Q 482.29 76.87 482.52 79.14
  Q 482.96 83.58 487.06 83.89
  C 493.14 84.35 499.78 78.45 504.06 74.06
  Q 508.73 69.29 508.85 65.48
  Q 509.01 60.06 505.66 64.31
  Q 501.53 69.53 497.05 73.01
  Q 495.83 73.95 496.31 72.56
  Q 497.39 69.46 503.72 60.50
  Q 509.06 52.94 512.71 44.38
  A 0.45 0.45 -78.3 0 0 512.30 43.75
  L 503.41 43.75
  A 3.11 3.10 -66.1 0 0 501.32 44.56
  Q 499.96 45.82 498.98 44.71
  Q 498.59 44.27 498.22 44.14
  C 487.37 40.39 476.00 53.60 470.00 61.23
  Q 469.30 62.12 468.25 62.46
  C 470.42 57.51 471.91 42.91 463.00 43.29
  L 457.13 43.90
  Q 456.08 44.01 456.53 43.12
  L 470.08 16.27
  A 0.37 0.34 -74.7 0 0 469.80 15.74
  L 465.00 15.54
  C 459.80 14.74 457.13 16.78 454.44 21.26
  Q 441.86 42.27 430.00 63.71
  Z
  M 314.94 28.13
  Q 314.04 29.76 313.72 30.94
  Q 313.14 33.06 314.40 31.26
  Q 315.82 29.22 316.32 27.30
  A 0.59 0.53 -74.0 0 0 315.98 26.60
  Q 315.29 26.39 315.20 27.19
  Q 315.12 27.79 314.94 28.13
  Z
  M 386.71 34.50
  Q 386.66 32.64 385.79 31.00
  C 381.09 24.73 372.74 26.68 370.19 33.69
  C 369.41 35.83 371.46 37.37 372.37 38.65
  C 376.94 45.05 386.29 42.44 386.71 34.50
  Z
  M 295.00 32.22
  Q 292.25 36.40 295.41 40.38
  Q 296.53 41.80 296.25 40.01
  Q 295.68 36.35 296.19 32.67
  Q 296.59 29.81 295.00 32.22
  Z
  M 311.32 36.30
  Q 313.51 33.79 310.72 35.61
  Q 306.82 38.15 301.29 40.78
  C 298.53 42.09 301.32 42.04 301.91 41.91
  Q 307.53 40.67 311.32 36.30
  Z
  M 387.29 81.00
  Q 391.91 68.58 398.85 57.41
  C 399.84 56.43 409.74 44.65 408.48 53.61
  Q 408.16 55.95 407.19 58.11
  Q 404.68 63.68 401.22 70.20
  C 397.19 77.78 397.78 83.59 407.80 83.98
  Q 416.17 84.31 421.93 77.63
  A 1.75 0.80 85.8 0 0 422.26 76.74
  L 422.80 73.03
  Q 423.05 71.29 421.71 72.33
  Q 417.55 75.58 412.12 75.45
  A 0.47 0.47 -76.2 0 1 411.71 74.77
  C 415.26 67.47 421.32 58.23 420.46 50.00
  C 418.76 43.92 412.33 44.30 407.71 46.75
  Q 403.16 48.52 399.75 51.42
  Q 398.30 52.65 398.50 50.76
  C 399.13 44.73 394.11 40.03 388.81 44.56
  Q 384.99 47.84 379.31 54.43
  C 378.36 55.54 375.60 60.43 380.20 58.37
  C 381.14 57.95 385.14 54.03 385.61 54.26
  A 0.44 0.24 -63.9 0 1 385.63 54.75
  L 371.42 83.49
  A 0.52 0.51 -77.4 0 0 371.89 84.24
  Q 377.65 84.15 383.74 84.03
  C 385.91 83.98 387.18 83.24 387.29 81.00
  Z
  M 367.75 73.48
  Q 372.87 60.67 380.48 48.80
  Q 381.18 47.71 379.91 47.74
  L 368.11 48.06
  A 2.41 2.24 -75.6 0 0 366.13 49.33
  Q 360.42 59.96 355.06 70.31
  C 352.05 76.13 351.39 87.75 362.31 84.31
  C 371.49 81.43 373.10 73.67 377.09 66.36
  C 377.53 65.57 376.74 65.59 376.41 66.00
  C 374.07 68.89 371.58 72.80 368.04 73.82
  Q 367.55 73.96 367.75 73.48
  Z
  M 540.90 50.94
  C 534.33 56.69 525.96 60.80 523.53 69.95
  Q 522.89 72.34 524.59 70.54
  C 527.68 67.26 530.74 63.07 535.71 63.74
  A 0.80 0.80 -76.1 0 0 536.57 63.22
  Q 538.90 56.98 541.88 51.60
  C 542.74 50.05 541.50 50.41 540.90 50.94
  Z
  M 375.11 62.61
  Q 373.69 64.26 375.78 63.66
  Q 376.38 63.49 377.69 63.63
  A 1.34 0.99 22.4 0 0 378.60 63.40
  Q 379.41 62.75 379.50 61.75
  A 0.66 0.64 11.6 0 0 379.04 61.07
  Q 376.99 60.42 375.11 62.61
  Z"
/>
<path fill="#b67e3c" d="
  M 350.12 2.91
  Q 349.13 4.78 347.23 6.05
  A 1.03 0.84 78.6 0 0 346.83 6.81
  Q 346.75 8.03 345.25 7.79
  Q 332.46 6.98 320.04 10.00
  Q 319.65 8.77 320.23 7.67
  A 0.58 0.57 35.3 0 0 320.10 6.96
  Q 319.50 6.41 319.50 5.54
  C 324.76 3.66 330.05 2.92 335.52 1.97
  C 340.21 1.14 344.58 2.37 350.12 2.91
  Z"
/>
<path fill="#935a26" d="
  M 350.12 2.91
  Q 357.76 3.20 365.40 6.78
  A 2.95 2.93 47.0 0 0 367.69 6.87
  C 368.91 6.42 384.86 1.68 380.75 7.71
  C 379.45 9.60 375.52 9.90 373.49 9.99
  Q 370.55 10.12 373.05 11.68
  Q 379.51 15.70 380.57 23.75
  A 0.73 0.73 -8.1 0 1 379.96 24.56
  Q 370.43 26.05 369.27 34.45
  Q 368.82 37.76 370.73 40.63
  A 0.92 0.92 58.1 0 1 370.43 41.94
  Q 357.47 49.49 342.82 51.21
  A 1.43 1.43 7.8 0 0 341.67 52.08
  Q 334.75 69.00 320.12 79.21
  Q 317.07 76.32 319.39 73.85
  A 1.20 0.80 -34.7 0 0 319.73 73.00
  Q 319.59 72.14 318.69 73.19
  Q 316.63 75.57 314.56 74.69
  Q 311.67 73.45 311.44 76.56
  C 311.39 77.21 308.61 79.94 307.71 77.00
  C 308.51 76.24 311.56 73.54 309.25 73.46
  Q 316.42 65.33 321.24 54.99
  Q 321.99 53.37 320.23 53.68
  C 317.63 54.15 309.83 56.97 307.44 55.81
  Q 305.07 54.67 306.69 53.19
  C 310.34 49.83 318.20 49.02 323.24 48.06
  A 2.11 2.10 -81.8 0 0 324.73 46.94
  C 332.33 32.09 343.76 18.21 359.14 11.17
  Q 361.83 9.94 358.95 9.56
  L 345.25 7.79
  Q 346.75 8.03 346.83 6.81
  A 1.03 0.84 78.6 0 1 347.23 6.05
  Q 349.13 4.78 350.12 2.91
  Z
  M 363.90 12.93
  C 354.09 19.95 348.45 34.19 344.53 44.28
  Q 343.59 46.71 346.06 45.89
  C 359.46 41.47 371.39 28.15 365.93 13.55
  A 1.34 1.33 62.0 0 0 363.90 12.93
  Z
  M 317.76 65.75
  C 318.02 70.86 326.72 53.11 326.96 52.63
  A 0.89 0.72 -52.4 0 0 326.94 51.76
  Q 326.12 50.70 324.52 52.38
  A 4.62 4.60 -18.3 0 0 323.32 54.76
  Q 322.37 60.17 318.09 64.89
  A 1.21 1.08 -27.3 0 0 317.76 65.75
  Z"
/>
<path fill="#000000" d="
  M 87.60 20.86
  Q 88.04 23.89 86.43 26.85
  Q 81.70 35.58 79.54 45.08
  A 0.70 0.70 -75.7 0 0 80.03 45.91
  C 85.85 47.53 82.79 42.45 87.34 42.37
  C 92.01 42.28 96.44 41.64 100.96 41.96
  A 1.48 1.47 -1.9 0 1 102.31 43.21
  Q 102.75 46.17 101.79 47.51
  C 100.48 49.34 88.59 68.07 90.25 69.70
  A 0.57 0.43 -50.2 0 0 90.99 69.53
  Q 99.49 58.15 106.69 44.44
  C 108.07 41.81 110.39 42.60 112.55 42.31
  C 115.05 41.98 128.13 39.41 124.53 45.89
  Q 120.70 52.77 116.30 59.33
  A 0.86 0.74 18.2 0 0 117.01 60.50
  L 120.19 60.85
  A 0.81 0.64 15.0 0 0 120.94 60.53
  Q 133.99 36.86 147.30 15.30
  Q 148.25 13.76 150.03 13.76
  L 163.19 13.80
  A 1.01 0.93 -15.9 0 1 164.00 14.21
  C 166.11 17.22 160.70 24.26 159.12 26.89
  Q 157.86 28.97 160.22 28.38
  Q 162.69 27.77 164.14 28.91
  A 1.29 1.05 -76.2 0 1 164.54 29.75
  Q 164.75 33.04 163.74 35.46
  Q 163.08 37.05 161.22 37.06
  L 153.94 37.14
  A 0.97 0.82 -72.4 0 0 153.18 37.62
  Q 143.56 53.77 134.59 70.30
  C 133.75 71.86 135.13 71.25 135.56 70.80
  C 137.03 69.26 141.73 63.96 143.89 64.38
  A 1.45 1.44 18.8 0 0 145.46 63.61
  Q 150.53 53.62 154.75 45.00
  C 156.26 41.92 159.41 42.60 161.84 42.23
  C 164.41 41.83 177.79 39.54 172.25 47.12
  Q 164.65 57.51 161.30 67.69
  Q 159.86 72.09 162.55 68.33
  Q 171.02 56.51 178.07 43.80
  A 2.54 2.53 13.9 0 1 180.26 42.49
  Q 185.41 42.41 191.27 41.66
  Q 197.10 40.91 194.72 46.05
  A 0.36 0.32 -77.0 0 0 195.00 46.56
  Q 195.88 46.51 196.69 45.44
  C 200.35 40.60 210.41 37.84 212.49 45.97
  A 1.10 1.10 -23.7 0 0 214.16 46.62
  C 220.59 42.44 228.20 40.54 232.70 48.28
  A 0.63 0.63 -36.1 0 0 233.67 48.43
  C 240.06 42.66 257.75 35.13 261.25 48.25
  Q 263.03 54.93 258.33 60.38
  A 0.50 0.48 41.7 0 0 258.38 61.07
  C 262.93 65.19 256.70 70.99 253.74 74.48
  C 247.74 81.54 242.90 86.66 233.02 87.35
  Q 226.60 87.80 222.81 85.45
  C 215.92 81.20 218.17 69.89 221.95 63.92
  A 0.65 0.65 -71.4 0 0 221.46 62.93
  Q 218.65 62.68 216.62 59.88
  A 1.81 1.78 -64.8 0 1 216.29 58.94
  Q 216.15 56.45 215.21 57.34
  C 212.84 59.58 211.25 60.73 209.25 64.00
  Q 203.12 74.04 197.80 85.73
  A 1.82 1.80 -80.1 0 1 196.31 86.79
  Q 189.51 87.39 182.31 86.74
  A 0.75 0.75 -5.1 0 1 181.66 86.20
  Q 180.56 82.32 183.36 79.12
  Q 184.21 78.15 183.52 78.25
  A 1.50 1.49 -71.7 0 0 182.65 78.69
  Q 175.17 86.30 167.16 86.33
  C 164.62 86.33 162.79 85.25 161.68 83.05
  A 0.80 0.80 -35.5 0 0 160.41 82.84
  C 155.24 87.88 143.97 87.11 141.87 78.99
  A 0.34 0.33 64.7 0 0 141.35 78.79
  C 136.96 81.96 132.37 87.20 126.58 87.40
  C 119.31 87.64 116.48 80.99 117.44 74.85
  C 117.54 74.19 117.01 73.63 116.50 74.25
  C 111.56 80.26 98.28 91.83 90.66 83.26
  A 0.83 0.83 50.4 0 0 89.55 83.15
  C 84.76 86.78 72.49 88.27 70.87 80.13
  C 69.10 71.22 75.45 62.60 78.54 56.20
  A 0.58 0.50 -64.0 0 0 78.35 55.47
  Q 77.42 55.01 76.81 56.56
  Q 70.51 72.81 55.67 81.14
  C 46.72 86.16 36.24 87.62 25.75 88.00
  C 16.39 88.34 0.55 83.52 0.31 71.75
  C -0.07 53.30 29.40 52.65 25.55 69.34
  C 24.57 73.58 19.65 75.11 15.58 75.24
  C 14.76 75.26 12.50 76.05 14.81 76.95
  C 30.34 83.06 44.81 73.89 51.51 59.99
  Q 51.97 59.03 51.01 59.49
  Q 45.34 62.25 39.80 65.23
  C 36.95 66.77 31.48 68.09 31.97 62.90
  C 32.36 58.72 36.37 56.63 39.94 55.19
  Q 40.49 54.96 40.31 54.60
  A 0.76 0.51 -16.7 0 0 39.54 54.36
  Q 29.50 56.57 22.06 49.44
  C 12.58 40.35 23.50 25.48 30.58 18.82
  C 44.12 6.09 64.70 0.63 82.99 4.32
  C 87.67 5.27 100.67 8.91 104.94 6.69
  C 107.73 5.23 111.43 3.43 113.65 6.71
  C 117.65 12.61 107.72 19.24 103.24 20.66
  C 98.42 22.19 93.14 21.55 88.03 20.47
  A 0.36 0.35 1.9 0 0 87.60 20.86
  Z
  M 76.75 14.21
  C 88.07 18.68 103.50 24.53 111.67 10.85
  C 113.48 7.82 110.92 6.58 108.16 7.92
  Q 104.10 9.89 99.50 9.79
  C 94.10 8.74 88.72 7.75 83.32 6.61
  C 59.86 1.65 34.20 12.02 22.56 33.31
  C 16.00 45.32 27.79 54.35 38.94 52.44
  Q 55.00 49.68 58.80 33.45
  C 65.10 6.59 28.27 17.70 31.94 41.74
  A 0.89 0.84 -19.7 0 0 33.25 42.31
  L 43.55 36.48
  A 2.05 1.63 -12.7 0 0 44.49 35.31
  Q 45.84 29.36 49.94 24.94
  C 51.31 23.46 52.51 24.92 52.36 26.42
  C 51.19 38.23 43.02 47.50 30.61 47.01
  Q 28.40 46.93 27.20 45.08
  C 22.49 37.85 27.76 31.06 32.81 25.81
  Q 51.27 6.65 76.75 14.21
  Z
  M 54.25 15.89
  C 59.16 17.60 61.21 21.49 61.60 26.68
  Q 62.68 41.19 50.96 50.26
  Q 50.56 50.57 51.05 50.52
  Q 53.80 50.22 56.25 48.93
  A 1.64 1.50 -88.6 0 0 56.91 48.24
  C 61.94 38.02 70.39 24.65 80.26 18.57
  Q 81.03 18.10 80.19 17.79
  Q 69.63 13.81 56.61 14.29
  Q 55.59 14.33 54.68 14.78
  Q 53.20 15.52 54.25 15.89
  Z
  M 124.75 85.04
  C 128.91 86.67 137.87 78.78 140.49 75.69
  A 1.75 1.50 73.3 0 0 140.88 74.81
  Q 141.53 70.37 143.19 68.19
  C 144.47 66.50 143.31 66.59 142.52 67.34
  C 140.59 69.16 134.48 76.36 131.79 74.25
  Q 131.65 70.70 133.35 67.58
  Q 142.01 51.61 151.40 35.58
  A 1.17 1.17 -74.8 0 1 152.41 35.00
  L 160.64 35.00
  A 1.26 1.14 -83.1 0 0 161.78 34.01
  L 162.41 31.28
  A 0.82 0.72 -83.5 0 0 161.71 30.27
  L 155.49 30.50
  Q 154.25 30.55 154.84 29.52
  L 162.26 16.44
  A 0.31 0.30 -74.7 0 0 162.01 15.98
  L 149.94 15.94
  A 0.74 0.69 -73.2 0 0 149.31 16.31
  Q 137.65 36.37 125.93 56.39
  C 121.44 64.06 117.49 72.12 120.56 81.23
  Q 121.60 84.31 124.75 85.04
  Z
  M 74.17 26.95
  Q 65.83 36.59 59.95 47.58
  C 58.87 49.60 58.69 51.17 56.08 51.69
  C 53.47 52.22 32.55 58.79 34.21 63.54
  C 34.75 65.06 36.14 64.61 37.26 63.94
  Q 45.84 58.80 55.50 55.41
  Q 57.00 54.89 56.33 56.32
  C 50.41 68.99 40.57 80.44 26.00 81.50
  C 23.65 81.67 12.84 80.23 11.50 76.86
  C 9.27 71.30 23.98 75.28 23.69 66.06
  C 23.38 56.38 2.86 58.18 2.79 70.00
  Q 2.36 72.64 3.46 75.00
  C 8.77 86.02 25.60 87.33 36.00 84.79
  Q 47.87 83.75 57.54 77.00
  Q 68.77 69.48 74.00 57.04
  C 74.93 55.40 74.85 52.46 77.77 53.25
  A 1.84 1.83 22.8 0 0 79.85 52.41
  L 81.75 49.18
  A 0.54 0.49 -60.5 0 0 81.59 48.46
  C 80.13 47.65 78.66 49.28 77.12 48.08
  A 0.89 0.78 -68.3 0 1 76.83 47.26
  Q 78.91 35.20 85.19 23.49
  Q 86.58 20.92 83.74 20.19
  C 81.18 19.54 75.73 24.93 74.17 26.95
  Z
  M 48.78 30.50
  Q 47.55 32.32 46.92 34.49
  Q 46.20 37.00 47.61 34.79
  C 47.75 34.57 50.94 27.30 48.78 30.50
  Z
  M 30.21 43.61
  Q 29.01 39.62 29.82 35.12
  Q 30.23 32.85 28.91 34.74
  Q 25.91 39.04 29.03 43.78
  A 1.75 1.71 -4.9 0 0 29.77 44.39
  C 32.23 45.43 30.24 43.71 30.21 43.61
  Z
  M 44.18 39.48
  Q 44.53 38.32 43.48 38.91
  Q 39.15 41.33 34.88 43.97
  Q 32.26 45.59 35.24 44.79
  C 36.90 44.34 43.59 41.41 44.18 39.48
  Z
  M 198.46 47.00
  Q 192.79 51.27 189.55 57.58
  A 0.64 0.63 13.4 0 0 190.12 58.50
  C 193.02 58.50 195.55 55.44 198.23 54.15
  L 183.65 83.76
  A 0.70 0.69 13.9 0 0 184.26 84.76
  L 194.15 85.02
  A 2.13 2.12 12.9 0 0 196.15 83.77
  Q 201.09 72.87 207.07 62.62
  C 210.15 57.34 217.05 52.90 221.88 50.07
  A 1.17 0.99 -48.4 0 1 222.79 49.94
  Q 224.39 50.48 222.60 51.63
  Q 219.49 53.63 218.17 57.04
  A 1.06 0.99 -50.8 0 0 218.23 57.94
  Q 219.20 59.59 221.38 60.74
  A 1.61 1.48 -56.8 0 0 223.31 60.25
  L 229.94 51.71
  Q 231.32 49.93 229.98 48.36
  C 224.59 42.08 217.61 46.84 212.42 50.45
  Q 211.11 51.36 210.98 49.77
  Q 210.70 46.38 207.86 43.71
  Q 202.13 42.23 198.46 47.00
  Z
  M 158.46 73.50
  C 157.11 65.52 166.22 51.19 170.95 44.92
  Q 171.79 43.80 170.39 43.82
  Q 164.42 43.87 158.05 44.98
  A 1.00 0.98 -80.7 0 0 157.33 45.51
  C 153.53 52.86 149.97 60.34 146.11 67.65
  C 142.88 73.75 141.69 83.23 151.54 83.50
  Q 157.11 83.90 160.69 79.11
  Q 162.05 77.28 162.35 79.54
  Q 162.44 80.26 163.71 81.75
  Q 165.84 85.14 169.75 83.96
  C 176.42 82.59 188.42 71.80 188.88 64.98
  C 189.27 59.23 185.40 64.25 184.63 65.45
  Q 181.48 70.35 176.26 73.43
  Q 178.91 67.44 182.54 62.00
  L 193.09 44.51
  Q 193.65 43.59 192.53 43.67
  L 181.55 44.52
  A 2.25 2.04 10.8 0 0 179.80 45.59
  C 178.17 48.53 161.76 77.82 158.46 73.50
  Z
  M 239.25 47.29
  C 231.46 52.69 217.20 69.26 221.29 79.87
  C 224.36 87.84 236.42 85.39 242.44 82.20
  C 244.33 80.67 260.78 65.29 257.35 63.52
  C 254.68 62.14 246.77 71.74 245.96 72.75
  Q 241.79 75.84 236.15 77.14
  A 1.54 1.53 -7.1 0 1 234.27 75.68
  C 234.19 71.71 234.83 70.89 238.66 69.71
  C 246.12 67.42 261.63 59.44 259.16 49.14
  Q 257.89 43.85 251.37 43.36
  Q 244.62 43.76 239.25 47.29
  Z
  M 114.67 44.69
  C 111.62 43.85 109.77 43.98 108.20 46.99
  Q 100.70 61.28 90.46 73.75
  Q 89.68 75.11 87.30 74.16
  Q 89.93 58.09 100.20 45.43
  Q 101.33 44.02 99.53 44.09
  L 87.93 44.56
  A 1.72 1.71 11.9 0 0 86.46 45.51
  Q 80.28 58.01 74.11 70.15
  C 70.34 77.57 73.51 86.13 83.22 83.46
  Q 87.80 82.32 91.00 78.71
  C 92.75 84.47 97.25 84.67 102.18 82.55
  Q 114.40 77.32 118.69 64.94
  Q 119.35 63.03 117.56 62.64
  A 1.31 1.13 -52.3 0 0 116.64 62.83
  C 113.15 65.10 110.23 72.02 107.06 72.81
  Q 104.62 73.42 105.98 71.30
  Q 111.08 63.32 116.04 55.25
  L 122.79 44.57
  A 0.34 0.34 17.6 0 0 122.52 44.05
  Q 117.72 43.85 114.67 44.69
  Z
  M 186.97 60.69
  Q 187.23 60.90 187.55 60.74
  A 0.70 0.56 69.7 0 0 187.81 59.96
  Q 187.32 58.30 186.82 59.84
  A 0.86 0.60 -65.2 0 0 186.97 60.69
  Z
  M 191.96 61.32
  Q 191.53 59.58 190.72 61.05
  A 1.02 0.97 -44.7 0 0 190.69 61.96
  Q 191.18 62.93 191.78 62.24
  A 1.13 0.96 60.5 0 0 191.96 61.32
  Z
  M 243.00 70.81
  C 242.18 70.94 234.68 72.98 236.78 74.56
  A 1.08 0.65 -30.8 0 0 237.71 74.56
  Q 240.67 73.33 243.34 71.75
  Q 245.61 70.39 243.00 70.81
  Z"
/>
<path fill="#8d5428" d="
  M 99.50 9.79
  L 98.26 14.10
  A 0.92 0.77 -0.1 0 1 97.58 14.67
  C 94.35 15.33 89.71 13.64 85.47 13.46
  A 2.30 2.28 62.7 0 1 84.26 13.07
  Q 81.78 11.42 79.05 11.32
  A 1.09 1.08 -67.5 0 0 78.21 11.67
  Q 77.21 12.76 76.75 14.21
  Q 51.27 6.65 32.81 25.81
  C 27.76 31.06 22.49 37.85 27.20 45.08
  Q 28.40 46.93 30.61 47.01
  C 43.02 47.50 51.19 38.23 52.36 26.42
  C 52.51 24.92 51.31 23.46 49.94 24.94
  Q 45.84 29.36 44.49 35.31
  A 2.05 1.63 -12.7 0 1 43.55 36.48
  L 33.25 42.31
  A 0.89 0.84 -19.7 0 1 31.94 41.74
  C 28.27 17.70 65.10 6.59 58.80 33.45
  Q 55.00 49.68 38.94 52.44
  C 27.79 54.35 16.00 45.32 22.56 33.31
  C 34.20 12.02 59.86 1.65 83.32 6.61
  C 88.72 7.75 94.10 8.74 99.50 9.79
  Z"
/>
<path fill="#a26a2e" d="
  M 319.50 5.54
  Q 319.50 6.41 320.10 6.96
  A 0.58 0.57 35.3 0 1 320.23 7.67
  Q 319.65 8.77 320.04 10.00
  Q 303.47 15.18 294.27 29.29
  C 286.02 41.97 298.78 48.10 308.71 41.75
  C 309.34 49.02 313.38 37.66 316.79 44.25
  C 308.46 51.03 296.19 52.56 289.06 43.19
  C 285.10 37.98 288.63 29.31 292.05 24.83
  Q 302.72 10.87 319.50 5.54
  Z"
/>
<path fill="#935a26" d="
  M 589.25 6.29
  L 589.04 11.50
  Q 583.79 14.37 578.81 19.81
  Q 564.00 36.01 554.71 54.00
  Q 549.30 52.80 543.69 53.17
  Q 546.87 46.09 550.72 40.26
  Q 552.06 38.24 550.26 39.87
  Q 540.51 48.72 530.10 56.61
  Q 524.87 60.58 522.04 66.50
  Q 521.01 66.04 520.19 67.44
  Q 519.05 69.38 514.74 68.22
  A 0.84 0.82 14.4 0 0 513.71 68.81
  L 512.91 71.95
  A 0.56 0.55 -74.7 0 0 513.28 72.62
  Q 514.79 73.09 515.12 71.43
  A 0.98 0.80 88.6 0 1 515.65 70.75
  C 518.36 69.73 515.72 74.72 514.75 74.19
  A 1.26 1.26 -63.4 0 0 513.01 74.77
  Q 511.04 79.10 508.79 79.50
  C 507.65 69.14 514.35 56.10 519.25 47.71
  Q 521.12 47.84 522.36 46.57
  A 1.48 1.37 -70.7 0 1 523.19 46.13
  C 527.73 45.49 530.36 39.13 531.17 35.01
  Q 531.32 34.23 531.84 33.62
  C 533.19 32.07 535.19 28.90 533.21 27.50
  C 540.94 17.41 549.51 8.19 562.77 6.26
  C 571.17 5.03 571.67 11.03 568.30 16.83
  Q 567.16 18.79 569.00 17.46
  C 576.11 12.32 579.95 7.70 589.25 6.29
  Z
  M 548.40 23.11
  C 540.45 32.85 532.93 42.87 527.25 53.75
  Q 526.94 54.34 527.21 54.56
  A 0.83 0.48 -43.1 0 0 528.07 54.36
  Q 544.32 40.73 558.03 24.53
  C 559.58 22.70 566.02 13.99 564.99 11.78
  C 563.85 9.34 556.99 14.24 555.50 15.50
  Q 552.65 17.91 548.40 23.11
  Z
  M 565.95 20.23
  C 561.21 23.97 555.89 31.89 552.58 37.02
  Q 552.31 37.45 552.69 37.11
  Q 560.75 29.88 566.32 20.55
  Q 567.00 19.41 565.95 20.23
  Z
  M 551.94 49.77
  C 550.23 52.65 553.28 50.76 553.84 49.76
  A 1.38 1.37 3.8 0 1 554.54 49.15
  Q 556.74 48.29 556.97 46.09
  A 2.33 2.31 -22.7 0 1 557.48 44.86
  C 558.67 43.41 566.22 32.05 563.24 31.94
  A 1.28 0.85 -60.4 0 0 562.41 32.36
  C 557.98 37.05 555.24 44.17 551.94 49.77
  Z"
/>
<path fill="#976031" d="
  M 556.00 57.79
  Q 554.82 56.31 555.50 54.54
  Q 571.98 41.26 585.51 25.00
  C 586.89 23.35 598.20 7.17 589.04 11.50
  L 589.25 6.29
  C 593.88 5.31 600.64 7.24 597.68 13.43
  C 589.41 30.73 571.67 47.13 556.00 57.79
  Z"
/>
<path fill="#9e6b38" d="
  M 76.75 14.21
  Q 77.21 12.76 78.21 11.67
  A 1.09 1.08 -67.5 0 1 79.05 11.32
  Q 81.78 11.42 84.26 13.07
  A 2.30 2.28 62.7 0 0 85.47 13.46
  C 89.71 13.64 94.35 15.33 97.58 14.67
  A 0.92 0.77 -0.1 0 0 98.26 14.10
  L 99.50 9.79
  Q 104.10 9.89 108.16 7.92
  C 110.92 6.58 113.48 7.82 111.67 10.85
  C 103.50 24.53 88.07 18.68 76.75 14.21
  Z"
/>
<path fill="#000000" d="
  M 555.50 54.54
  Q 554.69 54.66 554.71 54.00
  Q 564.00 36.01 578.81 19.81
  Q 583.79 14.37 589.04 11.50
  C 598.20 7.17 586.89 23.35 585.51 25.00
  Q 571.98 41.26 555.50 54.54
  Z
  M 576.66 25.38
  C 573.49 29.15 565.89 38.85 563.06 43.81
  C 561.65 46.29 563.92 44.45 564.20 44.18
  C 575.00 33.50 582.36 26.40 589.39 14.94
  C 589.49 14.77 589.79 13.80 589.16 14.21
  Q 582.08 18.93 576.66 25.38
  Z"
/>
<path fill="#000000" d="
  M 548.40 23.11
  Q 552.65 17.91 555.50 15.50
  C 556.99 14.24 563.85 9.34 564.99 11.78
  C 566.02 13.99 559.58 22.70 558.03 24.53
  Q 544.32 40.73 528.07 54.36
  A 0.83 0.48 -43.1 0 1 527.21 54.56
  Q 526.94 54.34 527.25 53.75
  C 532.93 42.87 540.45 32.85 548.40 23.11
  Z
  M 541.17 39.07
  Q 552.90 28.39 561.70 15.18
  Q 563.14 13.00 560.96 14.44
  Q 556.93 17.10 553.51 21.00
  Q 544.34 31.46 536.22 42.74
  C 535.57 43.65 536.55 43.65 536.99 43.32
  C 538.61 42.08 539.88 40.24 541.17 39.07
  Z"
/>
<path fill="#000000" d="
  M 344.53 44.28
  C 348.45 34.19 354.09 19.95 363.90 12.93
  A 1.34 1.33 62.0 0 1 365.93 13.55
  C 371.39 28.15 359.46 41.47 346.06 45.89
  Q 343.59 46.71 344.53 44.28
  Z
  M 363.56 16.06
  C 355.82 22.66 352.45 32.78 348.11 41.60
  Q 347.17 43.50 349.07 42.56
  C 358.67 37.80 366.71 27.62 364.75 16.49
  Q 364.53 15.24 363.56 16.06
  Z"
/>
<path fill="#b07733" d="
  M 323.25 36.09
  Q 317.94 32.55 315.22 37.81
  A 0.88 0.79 -50.5 0 0 315.26 38.69
  C 316.63 40.58 319.35 38.10 321.79 38.75
  Q 319.76 41.92 316.79 44.25
  C 313.38 37.66 309.34 49.02 308.71 41.75
  Q 318.80 34.68 318.75 22.25
  Q 318.74 20.09 317.06 21.56
  Q 312.45 25.61 311.56 31.34
  A 2.42 2.10 82.4 0 1 310.45 33.02
  L 304.00 36.54
  Q 302.48 35.04 302.08 32.99
  A 1.63 1.32 -42.6 0 1 302.22 32.05
  C 303.76 28.83 304.33 25.07 306.86 22.07
  A 1.35 1.00 -33.6 0 0 307.18 21.19
  Q 307.09 19.96 306.21 19.00
  Q 310.88 14.54 317.14 14.45
  Q 319.44 14.42 321.30 15.91
  Q 331.08 23.78 323.25 36.09
  Z
  M 322.13 31.32
  C 324.06 32.63 326.06 25.47 322.06 30.60
  A 0.52 0.48 -53.1 0 0 322.13 31.32
  Z"
/>
<path fill="#8d5428" d="
  M 465.00 15.54
  Q 464.13 15.85 464.58 16.45
  A 0.82 0.64 44.3 0 1 464.69 17.25
  Q 454.76 34.88 444.69 52.44
  C 442.96 55.44 442.15 57.07 438.85 58.68
  Q 435.52 60.31 433.69 63.44
  Q 432.01 66.30 430.00 63.71
  Q 441.86 42.27 454.44 21.26
  C 457.13 16.78 459.80 14.74 465.00 15.54
  Z"
/>
<path fill="#9e6931" d="
  M 465.00 15.54
  L 469.80 15.74
  A 0.37 0.34 -74.7 0 1 470.08 16.27
  L 456.53 43.12
  Q 456.08 44.01 457.13 43.90
  L 463.00 43.29
  Q 463.91 45.99 462.22 46.30
  Q 460.25 46.65 461.12 48.64
  L 463.13 53.27
  Q 463.35 53.78 462.84 53.47
  Q 461.27 52.48 459.94 53.48
  A 1.03 0.65 75.5 0 0 459.68 54.30
  Q 459.76 55.23 458.81 56.31
  Q 456.58 58.86 456.50 62.06
  A 0.40 0.40 -3.1 0 0 456.95 62.46
  Q 462.82 61.76 466.75 63.00
  Q 467.42 63.21 468.25 62.46
  Q 469.30 62.12 470.00 61.23
  C 476.00 53.60 487.37 40.39 498.22 44.14
  Q 498.59 44.27 498.98 44.71
  Q 499.96 45.82 501.32 44.56
  A 3.11 3.10 -66.1 0 1 503.41 43.75
  L 512.30 43.75
  A 0.45 0.45 -78.3 0 1 512.71 44.38
  Q 509.06 52.94 503.72 60.50
  Q 497.39 69.46 496.31 72.56
  Q 495.83 73.95 497.05 73.01
  Q 501.53 69.53 505.66 64.31
  Q 509.01 60.06 508.85 65.48
  Q 508.73 69.29 504.06 74.06
  C 499.78 78.45 493.14 84.35 487.06 83.89
  Q 482.96 83.58 482.52 79.14
  Q 482.29 76.87 481.07 78.80
  C 474.60 88.98 460.63 84.06 463.57 71.38
  L 466.45 66.54
  A 0.73 0.68 25.5 0 0 466.05 65.53
  Q 459.11 62.92 452.81 66.06
  Q 451.63 66.65 450.96 66.00
  C 454.62 60.88 457.96 54.71 456.84 48.95
  A 1.13 1.12 -19.7 0 0 455.20 48.18
  C 449.57 51.23 444.49 65.26 441.43 71.04
  Q 440.33 73.11 441.93 74.85
  C 442.27 77.61 441.33 79.43 438.73 80.69
  C 436.42 81.80 434.17 83.98 431.52 82.52
  C 430.09 81.73 429.02 79.38 427.46 82.25
  C 421.18 76.70 426.57 68.61 430.00 63.71
  Q 432.01 66.30 433.69 63.44
  Q 435.52 60.31 438.85 58.68
  C 442.15 57.07 442.96 55.44 444.69 52.44
  Q 454.76 34.88 464.69 17.25
  A 0.82 0.64 44.3 0 0 464.58 16.45
  Q 464.13 15.85 465.00 15.54
  Z
  M 489.22 54.08
  Q 482.25 61.38 479.43 69.01
  C 477.50 74.23 479.63 76.05 483.28 71.36
  Q 491.10 61.31 497.57 50.30
  A 0.71 0.70 -74.0 0 0 496.99 49.24
  Q 493.11 49.15 491.30 51.61
  Q 490.34 52.91 489.22 54.08
  Z"
/>
<path fill="#975f2b" d="
  M 131.79 74.25
  Q 130.87 75.86 128.26 75.71
  A 0.67 0.66 -74.6 0 0 127.62 76.08
  Q 126.58 78.15 124.88 76.83
  A 1.20 0.88 52.4 0 0 124.01 76.58
  Q 121.68 77.07 121.92 79.26
  A 0.38 0.35 -16.5 0 0 122.45 79.52
  C 126.93 77.46 125.51 82.30 125.73 84.25
  Q 125.84 85.31 124.75 85.04
  Q 121.60 84.31 120.56 81.23
  C 117.49 72.12 121.44 64.06 125.93 56.39
  Q 137.65 36.37 149.31 16.31
  A 0.74 0.69 -73.2 0 1 149.94 15.94
  L 162.01 15.98
  A 0.31 0.30 -74.7 0 1 162.26 16.44
  L 154.84 29.52
  Q 154.25 30.55 155.49 30.50
  L 161.71 30.27
  A 0.82 0.72 -83.5 0 1 162.41 31.28
  L 161.78 34.01
  A 1.26 1.14 -83.1 0 1 160.64 35.00
  L 152.41 35.00
  A 1.17 1.17 -74.8 0 0 151.40 35.58
  Q 142.01 51.61 133.35 67.58
  Q 131.65 70.70 131.79 74.25
  Z"
/>
<path fill="#9e6931" d="
  M 306.21 19.00
  Q 307.09 19.96 307.18 21.19
  A 1.35 1.00 -33.6 0 1 306.86 22.07
  C 304.33 25.07 303.76 28.83 302.22 32.05
  A 1.63 1.32 -42.6 0 0 302.08 32.99
  Q 302.48 35.04 304.00 36.54
  L 299.50 39.15
  A 1.04 0.98 74.4 0 1 298.02 38.26
  Q 297.46 26.23 306.21 19.00
  Z"
/>
<path fill="#000000" d="
  M 552.58 37.02
  C 555.89 31.89 561.21 23.97 565.95 20.23
  Q 567.00 19.41 566.32 20.55
  Q 560.75 29.88 552.69 37.11
  Q 552.31 37.45 552.58 37.02
  Z"
/>
<path fill="#9e6b38" d="
  M 74.00 57.04
  Q 70.65 56.89 68.81 54.19
  A 2.76 1.54 -12.6 0 0 66.50 53.50
  C 63.64 53.77 61.92 49.75 64.64 51.22
  Q 70.05 54.14 69.84 47.93
  A 0.71 0.70 7.8 0 0 69.34 47.29
  Q 67.13 46.55 66.37 46.00
  Q 64.19 44.41 65.78 41.93
  L 70.46 34.63
  A 1.72 1.22 -77.2 0 1 71.16 34.00
  Q 75.83 32.05 74.17 26.95
  C 75.73 24.93 81.18 19.54 83.74 20.19
  Q 86.58 20.92 85.19 23.49
  Q 78.91 35.20 76.83 47.26
  A 0.89 0.78 -68.3 0 0 77.12 48.08
  C 78.66 49.28 80.13 47.65 81.59 48.46
  A 0.54 0.49 -60.5 0 1 81.75 49.18
  L 79.85 52.41
  A 1.84 1.83 22.8 0 1 77.77 53.25
  C 74.85 52.46 74.93 55.40 74.00 57.04
  Z"
/>
<path fill="#9b6026" d="
  M 74.17 26.95
  Q 75.83 32.05 71.16 34.00
  A 1.72 1.22 -77.2 0 0 70.46 34.63
  L 65.78 41.93
  Q 64.19 44.41 66.37 46.00
  Q 67.13 46.55 69.34 47.29
  A 0.71 0.70 7.8 0 1 69.84 47.93
  Q 70.05 54.14 64.64 51.22
  C 61.92 49.75 63.64 53.77 66.50 53.50
  A 2.76 1.54 -12.6 0 1 68.81 54.19
  Q 70.65 56.89 74.00 57.04
  Q 68.77 69.48 57.54 77.00
  Q 55.13 73.50 50.79 73.50
  C 50.77 71.29 48.07 72.81 48.80 75.09
  Q 47.00 77.45 46.40 80.32
  A 0.91 0.87 86.2 0 1 45.84 80.99
  Q 42.21 82.35 38.25 82.19
  Q 35.04 82.05 36.00 84.79
  C 25.60 87.33 8.77 86.02 3.46 75.00
  Q 3.57 74.13 4.87 74.21
  A 1.59 1.57 -76.0 0 0 6.43 73.26
  C 6.78 72.47 11.39 65.32 8.75 66.25
  Q 6.59 67.01 4.78 69.59
  A 0.97 0.97 -72.3 0 1 3.99 70.00
  L 2.79 70.00
  C 2.86 58.18 23.38 56.38 23.69 66.06
  C 23.98 75.28 9.27 71.30 11.50 76.86
  C 12.84 80.23 23.65 81.67 26.00 81.50
  C 40.57 80.44 50.41 68.99 56.33 56.32
  Q 57.00 54.89 55.50 55.41
  Q 45.84 58.80 37.26 63.94
  C 36.14 64.61 34.75 65.06 34.21 63.54
  C 32.55 58.79 53.47 52.22 56.08 51.69
  C 58.69 51.17 58.87 49.60 59.95 47.58
  Q 65.83 36.59 74.17 26.95
  Z"
/>
<path fill="#565a5b" d="
  M 385.79 31.00
  L 383.56 33.36
  Q 383.12 33.83 383.72 33.94
  L 386.71 34.50
  C 386.29 42.44 376.94 45.05 372.37 38.65
  C 371.46 37.37 369.41 35.83 370.19 33.69
  C 372.74 26.68 381.09 24.73 385.79 31.00
  Z
  M 374.75 30.70
  Q 369.92 35.07 374.24 37.46
  A 1.04 1.01 -42.1 0 0 375.15 37.49
  Q 380.75 35.01 376.36 30.73
  A 1.18 1.18 -43.9 0 0 374.75 30.70
  Z"
/>
<path fill="#9e6424" d="
  M 533.21 27.50
  C 535.19 28.90 533.19 32.07 531.84 33.62
  Q 531.32 34.23 531.17 35.01
  C 530.36 39.13 527.73 45.49 523.19 46.13
  A 1.48 1.37 -70.7 0 0 522.36 46.57
  Q 521.12 47.84 519.25 47.71
  Q 525.15 36.86 533.21 27.50
  Z"
/>
<path fill="#7a4727" d="
  M 322.06 30.60
  C 326.06 25.47 324.06 32.63 322.13 31.32
  A 0.52 0.48 -53.1 0 1 322.06 30.60
  Z"
/>
<path fill="#000000" d="
  M 374.75 30.70
  A 1.18 1.18 -43.9 0 1 376.36 30.73
  Q 380.75 35.01 375.15 37.49
  A 1.04 1.01 -42.1 0 1 374.24 37.46
  Q 369.92 35.07 374.75 30.70
  Z
  M 375.6323 35.5800
  A 1.31 1.15 89.9 0 0 376.7800 34.2680
  A 1.31 1.15 89.9 0 0 375.6277 32.9600
  A 1.31 1.15 89.9 0 0 374.4800 34.2720
  A 1.31 1.15 89.9 0 0 375.6323 35.5800
  Z"
/>
<path fill="#222223" d="
  M 385.79 31.00
  Q 386.66 32.64 386.71 34.50
  L 383.72 33.94
  Q 383.12 33.83 383.56 33.36
  L 385.79 31.00
  Z"
/>
<path fill="#894f23" d="
  M 553.84 49.76
  C 553.28 50.76 550.23 52.65 551.94 49.77
  C 555.24 44.17 557.98 37.05 562.41 32.36
  A 1.28 0.85 -60.4 0 1 563.24 31.94
  C 566.22 32.05 558.67 43.41 557.48 44.86
  A 2.33 2.31 -22.7 0 0 556.97 46.09
  Q 556.74 48.29 554.54 49.15
  A 1.38 1.37 3.8 0 0 553.84 49.76
  Z"
/>
<ellipse fill="#eeeeed" cx="0.00" cy="0.00" transform="translate(375.63,34.27) rotate(89.9)" rx="1.31" ry="1.15"/>
<path fill="#9e6424" d="
  M 323.25 36.09
  Q 322.92 37.39 321.79 38.75
  C 319.35 38.10 316.63 40.58 315.26 38.69
  A 0.88 0.79 -50.5 0 1 315.22 37.81
  Q 317.94 32.55 323.25 36.09
  Z"
/>
<path fill="#a46f3d" d="
  M 207.86 43.71
  Q 206.58 44.95 203.94 48.19
  Q 202.86 49.50 204.11 50.22
  A 1.47 0.92 15.5 0 1 204.74 50.91
  Q 205.56 53.38 202.96 52.75
  C 201.40 50.44 199.08 48.89 198.46 47.00
  Q 202.13 42.23 207.86 43.71
  Z"
/>
<path fill="#935c2e" d="
  M 407.71 46.75
  L 410.44 51.78
  A 0.85 0.72 -29.0 0 0 411.54 52.00
  Q 415.09 50.00 417.39 51.80
  A 0.90 0.89 26.6 0 0 418.81 51.33
  Q 419.16 50.02 420.46 50.00
  C 421.32 58.23 415.26 67.47 411.71 74.77
  A 0.47 0.47 -76.2 0 0 412.12 75.45
  Q 417.55 75.58 421.71 72.33
  Q 423.05 71.29 422.80 73.03
  L 422.26 76.74
  A 1.75 0.80 85.8 0 1 421.93 77.63
  Q 416.17 84.31 407.80 83.98
  C 397.78 83.59 397.19 77.78 401.22 70.20
  Q 404.68 63.68 407.19 58.11
  Q 408.16 55.95 408.48 53.61
  C 409.74 44.65 399.84 56.43 398.85 57.41
  L 396.88 55.43
  A 0.56 0.54 -50.2 0 0 396.05 55.52
  Q 393.50 59.12 393.10 63.31
  A 1.55 1.43 70.9 0 1 392.72 64.18
  C 390.77 66.25 380.42 79.89 387.29 81.00
  C 387.18 83.24 385.91 83.98 383.74 84.03
  Q 377.65 84.15 371.89 84.24
  A 0.52 0.51 -77.4 0 1 371.42 83.49
  L 385.63 54.75
  A 0.44 0.24 -63.9 0 0 385.61 54.26
  C 385.14 54.03 381.14 57.95 380.20 58.37
  C 375.60 60.43 378.36 55.54 379.31 54.43
  Q 384.99 47.84 388.81 44.56
  C 394.11 40.03 399.13 44.73 398.50 50.76
  Q 398.30 52.65 399.75 51.42
  Q 403.16 48.52 407.71 46.75
  Z"
/>
<path fill="#9e6424" d="
  M 463.00 43.29
  C 471.91 42.91 470.42 57.51 468.25 62.46
  Q 467.42 63.21 466.75 63.00
  Q 462.82 61.76 456.95 62.46
  A 0.40 0.40 -3.1 0 1 456.50 62.06
  Q 456.58 58.86 458.81 56.31
  Q 459.76 55.23 459.68 54.30
  A 1.03 0.65 75.5 0 1 459.94 53.48
  Q 461.27 52.48 462.84 53.47
  Q 463.35 53.78 463.13 53.27
  L 461.12 48.64
  Q 460.25 46.65 462.22 46.30
  Q 463.91 45.99 463.00 43.29
  Z"
/>
<path fill="#9e6b38" d="
  M 182.54 62.00
  C 179.65 58.67 175.66 66.70 174.94 68.69
  Q 173.75 71.96 170.16 73.27
  A 1.23 1.17 -86.9 0 0 169.50 73.89
  Q 168.78 75.44 167.37 76.41
  A 1.63 0.62 -26.5 0 0 166.71 77.13
  L 165.78 79.94
  A 0.65 0.56 -77.8 0 1 165.20 80.38
  Q 163.81 80.32 163.71 81.75
  Q 162.44 80.26 162.35 79.54
  Q 162.05 77.28 160.69 79.11
  Q 157.11 83.90 151.54 83.50
  Q 154.48 79.28 156.61 74.58
  Q 157.13 73.44 158.46 73.50
  C 161.76 77.82 178.17 48.53 179.80 45.59
  A 2.25 2.04 10.8 0 1 181.55 44.52
  L 192.53 43.67
  Q 193.65 43.59 193.09 44.51
  L 182.54 62.00
  Z"
/>
<path fill="#8e5421" d="
  M 251.37 43.36
  L 250.39 49.03
  Q 242.27 56.46 237.25 66.46
  Q 235.43 65.12 234.83 68.08
  A 1.66 1.64 77.0 0 1 234.21 69.08
  C 232.73 70.21 232.93 73.80 230.93 73.65
  A 1.16 1.03 72.6 0 1 230.13 73.17
  C 229.09 71.70 229.34 70.65 230.51 69.29
  Q 234.67 64.47 234.98 58.00
  A 1.27 1.19 71.8 0 1 235.37 57.16
  C 235.70 56.88 240.21 54.39 237.05 54.70
  Q 230.98 55.31 235.78 51.48
  A 0.97 0.96 -44.0 0 1 237.02 51.50
  Q 239.01 53.23 240.70 53.03
  A 0.42 0.38 76.6 0 0 241.01 52.48
  L 239.25 47.29
  Q 244.62 43.76 251.37 43.36
  Z"
/>
<path fill="#9e6629" d="
  M 251.37 43.36
  Q 257.89 43.85 259.16 49.14
  C 261.63 59.44 246.12 67.42 238.66 69.71
  C 234.83 70.89 234.19 71.71 234.27 75.68
  A 1.54 1.53 -7.1 0 0 236.15 77.14
  Q 241.79 75.84 245.96 72.75
  Q 247.43 74.21 245.56 74.81
  Q 244.08 75.30 244.75 77.50
  C 245.68 80.54 240.93 78.96 242.44 82.20
  C 236.42 85.39 224.36 87.84 221.29 79.87
  C 217.20 69.26 231.46 52.69 239.25 47.29
  L 241.01 52.48
  A 0.42 0.38 76.6 0 1 240.70 53.03
  Q 239.01 53.23 237.02 51.50
  A 0.97 0.96 -44.0 0 0 235.78 51.48
  Q 230.98 55.31 237.05 54.70
  C 240.21 54.39 235.70 56.88 235.37 57.16
  A 1.27 1.19 71.8 0 0 234.98 58.00
  Q 234.67 64.47 230.51 69.29
  C 229.34 70.65 229.09 71.70 230.13 73.17
  A 1.16 1.03 72.6 0 0 230.93 73.65
  C 232.93 73.80 232.73 70.21 234.21 69.08
  A 1.66 1.64 77.0 0 0 234.83 68.08
  Q 235.43 65.12 237.25 66.46
  C 244.49 64.10 252.26 58.51 252.66 50.00
  Q 252.78 47.45 250.39 49.03
  L 251.37 43.36
  Z"
/>
<path fill="#9b6026" d="
  M 116.04 55.25
  C 116.29 51.62 111.66 59.20 111.55 59.35
  A 0.59 0.52 -54.4 0 1 110.80 59.53
  L 106.12 56.33
  A 0.96 0.85 -72.5 0 1 105.75 55.50
  Q 105.84 54.24 106.87 53.56
  A 1.29 0.92 29.2 0 1 107.79 53.46
  C 110.52 54.15 111.40 52.46 111.87 49.99
  Q 112.44 46.95 114.67 44.69
  Q 117.72 43.85 122.52 44.05
  A 0.34 0.34 17.6 0 1 122.79 44.57
  L 116.04 55.25
  Z"
/>
<path fill="#88522b" d="
  M 158.46 73.50
  Q 157.13 73.44 156.61 74.58
  Q 154.48 79.28 151.54 83.50
  C 141.69 83.23 142.88 73.75 146.11 67.65
  C 149.97 60.34 153.53 52.86 157.33 45.51
  A 1.00 0.98 -80.7 0 1 158.05 44.98
  Q 164.42 43.87 170.39 43.82
  Q 171.79 43.80 170.95 44.92
  C 166.22 51.19 157.11 65.52 158.46 73.50
  Z"
/>
<path fill="#9a6431" d="
  M 87.30 74.16
  Q 83.76 77.97 83.22 83.46
  C 73.51 86.13 70.34 77.57 74.11 70.15
  Q 80.28 58.01 86.46 45.51
  A 1.72 1.71 11.9 0 1 87.93 44.56
  L 99.53 44.09
  Q 101.33 44.02 100.20 45.43
  Q 89.93 58.09 87.30 74.16
  Z"
/>
<path fill="#8d5428" d="
  M 207.86 43.71
  Q 210.70 46.38 210.98 49.77
  Q 211.11 51.36 212.42 50.45
  C 217.61 46.84 224.59 42.08 229.98 48.36
  Q 231.32 49.93 229.94 51.71
  L 223.31 60.25
  A 1.61 1.48 -56.8 0 1 221.38 60.74
  Q 219.20 59.59 218.23 57.94
  A 1.06 0.99 -50.8 0 1 218.17 57.04
  Q 219.49 53.63 222.60 51.63
  Q 224.39 50.48 222.79 49.94
  A 1.17 0.99 -48.4 0 0 221.88 50.07
  C 217.05 52.90 210.15 57.34 207.07 62.62
  Q 201.09 72.87 196.15 83.77
  A 2.13 2.12 12.9 0 1 194.15 85.02
  L 184.26 84.76
  A 0.70 0.69 13.9 0 1 183.65 83.76
  L 198.23 54.15
  Q 200.08 51.44 202.96 52.75
  Q 205.56 53.38 204.74 50.91
  A 1.47 0.92 15.5 0 0 204.11 50.22
  Q 202.86 49.50 203.94 48.19
  Q 206.58 44.95 207.86 43.71
  Z"
/>
<path fill="#9e6b38" d="
  M 114.67 44.69
  Q 112.44 46.95 111.87 49.99
  C 111.40 52.46 110.52 54.15 107.79 53.46
  A 1.29 0.92 29.2 0 0 106.87 53.56
  Q 105.84 54.24 105.75 55.50
  A 0.96 0.85 -72.5 0 0 106.12 56.33
  L 110.80 59.53
  A 0.59 0.52 -54.4 0 0 111.55 59.35
  C 111.66 59.20 116.29 51.62 116.04 55.25
  Q 111.08 63.32 105.98 71.30
  Q 104.62 73.42 107.06 72.81
  C 110.23 72.02 113.15 65.10 116.64 62.83
  A 1.31 1.13 -52.3 0 1 117.56 62.64
  Q 119.35 63.03 118.69 64.94
  Q 114.40 77.32 102.18 82.55
  C 97.25 84.67 92.75 84.47 91.00 78.71
  C 88.31 75.53 93.54 76.34 94.95 76.06
  A 0.96 0.93 -84.5 0 0 95.64 75.47
  Q 96.35 73.59 94.31 74.56
  Q 92.93 75.22 90.46 73.75
  Q 100.70 61.28 108.20 46.99
  C 109.77 43.98 111.62 43.85 114.67 44.69
  Z"
/>
<path fill="#7a4727" d="
  M 420.46 50.00
  Q 419.16 50.02 418.81 51.33
  A 0.90 0.89 26.6 0 1 417.39 51.80
  Q 415.09 50.00 411.54 52.00
  A 0.85 0.72 -29.0 0 1 410.44 51.78
  L 407.71 46.75
  C 412.33 44.30 418.76 43.92 420.46 50.00
  Z"
/>
<path fill="#935c2e" d="
  M 198.46 47.00
  C 199.08 48.89 201.40 50.44 202.96 52.75
  Q 200.08 51.44 198.23 54.15
  C 195.55 55.44 193.02 58.50 190.12 58.50
  A 0.64 0.63 13.4 0 1 189.55 57.58
  Q 192.79 51.27 198.46 47.00
  Z"
/>
<path fill="#9e6b38" d="
  M 368.04 73.82
  C 371.58 72.80 374.07 68.89 376.41 66.00
  C 376.74 65.59 377.53 65.57 377.09 66.36
  C 373.10 73.67 371.49 81.43 362.31 84.31
  C 351.39 87.75 352.05 76.13 355.06 70.31
  Q 360.42 59.96 366.13 49.33
  A 2.41 2.24 -75.6 0 1 368.11 48.06
  L 379.91 47.74
  Q 381.18 47.71 380.48 48.80
  Q 372.87 60.67 367.75 73.48
  Q 367.55 73.96 368.04 73.82
  Z"
/>
<path fill="#000000" d="
  M 450.96 66.00
  Q 447.50 71.36 441.93 74.85
  Q 440.33 73.11 441.43 71.04
  C 444.49 65.26 449.57 51.23 455.20 48.18
  A 1.13 1.12 -19.7 0 1 456.84 48.95
  C 457.96 54.71 454.62 60.88 450.96 66.00
  Z
  M 454.83 51.74
  C 453.70 51.58 446.07 66.60 445.15 68.42
  Q 444.75 69.20 445.23 69.25
  A 1.03 0.61 -60.5 0 0 445.98 68.82
  Q 451.96 61.44 455.09 52.47
  A 0.58 0.41 -74.5 0 0 454.83 51.74
  Z"
/>
<path fill="#000000" d="
  M 237.25 66.46
  Q 242.27 56.46 250.39 49.03
  Q 252.78 47.45 252.66 50.00
  C 252.26 58.51 244.49 64.10 237.25 66.46
  Z
  M 244.4531 59.7327
  A 4.10 0.71 129.3 0 0 247.5994 57.0097
  A 4.10 0.71 129.3 0 0 249.6469 53.3873
  A 4.10 0.71 129.3 0 0 246.5006 56.1103
  A 4.10 0.71 129.3 0 0 244.4531 59.7327
  Z"
/>
<path fill="#000000" d="
  M 489.22 54.08
  Q 490.34 52.91 491.30 51.61
  Q 493.11 49.15 496.99 49.24
  A 0.71 0.70 -74.0 0 1 497.57 50.30
  Q 491.10 61.31 483.28 71.36
  C 479.63 76.05 477.50 74.23 479.43 69.01
  Q 482.25 61.38 489.22 54.08
  Z
  M 491.32 55.80
  Q 492.80 53.42 490.84 55.42
  Q 485.80 60.56 482.22 67.80
  A 0.45 0.34 -73.5 0 0 482.46 68.43
  C 483.38 68.44 490.39 57.29 491.32 55.80
  Z"
/>
<path fill="#894f23" d="
  M 326.96 52.63
  C 326.72 53.11 318.02 70.86 317.76 65.75
  A 1.21 1.08 -27.3 0 1 318.09 64.89
  Q 322.37 60.17 323.32 54.76
  A 4.62 4.60 -18.3 0 1 324.52 52.38
  Q 326.12 50.70 326.94 51.76
  A 0.89 0.72 -52.4 0 1 326.96 52.63
  Z"
/>
<path fill="#7a4727" d="
  M 543.69 53.17
  Q 549.30 52.80 554.71 54.00
  Q 554.69 54.66 555.50 54.54
  Q 554.82 56.31 556.00 57.79
  Q 551.79 60.51 550.16 64.94
  L 546.81 63.56
  A 1.92 1.06 5.7 0 1 546.03 63.02
  C 544.61 61.17 543.70 62.77 543.27 64.17
  Q 542.02 68.28 537.58 68.08
  Q 539.91 60.03 543.69 53.17
  Z"
/>
<path fill="#894f23" d="
  M 398.85 57.41
  Q 391.91 68.58 387.29 81.00
  C 380.42 79.89 390.77 66.25 392.72 64.18
  A 1.55 1.43 70.9 0 0 393.10 63.31
  Q 393.50 59.12 396.05 55.52
  A 0.56 0.54 -50.2 0 1 396.88 55.43
  L 398.85 57.41
  Z"
/>
<path fill="#9a6431" d="
  M 289.25 82.71
  L 288.50 87.46
  C 280.37 87.26 270.18 82.51 268.46 73.71
  C 265.24 57.27 291.87 53.67 290.86 67.44
  C 290.33 74.70 283.78 72.79 279.56 75.31
  C 272.91 79.30 287.31 82.49 289.25 82.71
  Z
  M 284.34 66.26
  A 0.85 0.83 -50.8 0 0 285.23 66.16
  C 290.47 61.95 285.45 63.37 283.49 64.55
  A 0.63 0.51 -30.0 0 0 283.21 65.29
  Q 283.50 65.85 284.34 66.26
  Z"
/>
<path fill="#a77547" d="
  M 182.54 62.00
  Q 178.91 67.44 176.26 73.43
  C 176.65 78.02 173.11 78.59 169.81 79.81
  Q 167.31 80.74 168.94 81.81
  Q 170.16 82.62 169.75 83.96
  Q 165.84 85.14 163.71 81.75
  Q 163.81 80.32 165.20 80.38
  A 0.65 0.56 -77.8 0 0 165.78 79.94
  L 166.71 77.13
  A 1.63 0.62 -26.5 0 1 167.37 76.41
  Q 168.78 75.44 169.50 73.89
  A 1.23 1.17 -86.9 0 1 170.16 73.27
  Q 173.75 71.96 174.94 68.69
  C 175.66 66.70 179.65 58.67 182.54 62.00
  Z"
/>
<path fill="#976031" d="
  M 169.75 83.96
  Q 170.16 82.62 168.94 81.81
  Q 167.31 80.74 169.81 79.81
  C 173.11 78.59 176.65 78.02 176.26 73.43
  Q 181.48 70.35 184.63 65.45
  C 185.40 64.25 189.27 59.23 188.88 64.98
  C 188.42 71.80 176.42 82.59 169.75 83.96
  Z"
/>
<path fill="#8c562f" d="
  M 550.16 64.94
  C 549.39 66.68 546.88 75.55 549.94 75.26
  Q 549.10 76.50 548.48 77.87
  C 547.67 79.65 546.29 81.48 546.29 84.00
  C 534.81 89.19 534.69 74.20 537.58 68.08
  Q 542.02 68.28 543.27 64.17
  C 543.70 62.77 544.61 61.17 546.03 63.02
  A 1.92 1.06 5.7 0 0 546.81 63.56
  L 550.16 64.94
  Z"
/>
<path fill="#894f23" d="
  M 284.34 66.26
  Q 283.50 65.85 283.21 65.29
  A 0.63 0.51 -30.0 0 1 283.49 64.55
  C 285.45 63.37 290.47 61.95 285.23 66.16
  A 0.85 0.83 -50.8 0 1 284.34 66.26
  Z"
/>
<path fill="#a96f29" d="
  M 242.44 82.20
  C 240.93 78.96 245.68 80.54 244.75 77.50
  Q 244.08 75.30 245.56 74.81
  Q 247.43 74.21 245.96 72.75
  C 246.77 71.74 254.68 62.14 257.35 63.52
  C 260.78 65.29 244.33 80.67 242.44 82.20
  Z"
/>
<path fill="#a96f29" d="
  M 463.57 71.38
  C 455.58 81.48 439.67 90.37 427.46 82.25
  C 429.02 79.38 430.09 81.73 431.52 82.52
  C 434.17 83.98 436.42 81.80 438.73 80.69
  C 441.33 79.43 442.27 77.61 441.93 74.85
  Q 447.50 71.36 450.96 66.00
  Q 451.63 66.65 452.81 66.06
  Q 459.11 62.92 466.05 65.53
  A 0.73 0.68 25.5 0 1 466.45 66.54
  L 463.57 71.38
  Z"
/>
<path fill="#9e6b38" d="
  M 546.29 84.00
  C 546.29 81.48 547.67 79.65 548.48 77.87
  Q 549.10 76.50 549.94 75.26
  C 553.74 71.98 556.53 68.10 561.12 65.78
  A 1.29 1.05 -43.9 0 1 562.05 65.70
  Q 563.45 66.23 562.56 67.81
  Q 556.93 77.81 546.29 84.00
  Z"
/>
<path fill="#8d5428" d="
  M 508.79 79.50
  Q 511.04 79.10 513.01 74.77
  A 1.26 1.26 -63.7 0 1 514.75 74.19
  C 515.72 74.72 518.36 69.73 515.65 70.75
  A 0.98 0.80 88.6 0 0 515.12 71.43
  Q 514.79 73.09 513.28 72.62
  A 0.56 0.55 -74.7 0 1 512.91 71.95
  L 513.71 68.81
  A 0.84 0.82 14.4 0 1 514.74 68.22
  Q 519.05 69.38 520.19 67.44
  Q 521.01 66.04 522.04 66.50
  C 521.77 67.37 519.18 78.97 524.02 74.02
  Q 530.59 67.31 532.31 66.56
  Q 536.45 64.76 534.94 68.69
  C 533.71 71.88 528.45 76.30 526.51 78.26
  C 521.73 83.09 512.68 91.08 508.79 79.50
  Z"
/>
<path fill="#894f23" d="
  M 3.46 75.00
  Q 2.36 72.64 2.79 70.00
  L 3.99 70.00
  A 0.97 0.97 -72.3 0 0 4.78 69.59
  Q 6.59 67.01 8.75 66.25
  C 11.39 65.32 6.78 72.47 6.43 73.26
  A 1.59 1.57 -76.0 0 1 4.87 74.21
  Q 3.57 74.13 3.46 75.00
  Z"
/>
<path fill="#894f23" d="
  M 124.75 85.04
  Q 125.84 85.31 125.73 84.25
  C 125.51 82.30 126.93 77.46 122.45 79.52
  A 0.38 0.35 -16.5 0 1 121.92 79.26
  Q 121.68 77.07 124.01 76.58
  A 1.20 0.88 52.4 0 1 124.88 76.83
  Q 126.58 78.15 127.62 76.08
  A 0.67 0.66 -74.6 0 1 128.26 75.71
  Q 130.87 75.86 131.79 74.25
  C 134.48 76.36 140.59 69.16 142.52 67.34
  C 143.31 66.59 144.47 66.50 143.19 68.19
  Q 141.53 70.37 140.88 74.81
  A 1.75 1.50 73.3 0 1 140.49 75.69
  C 137.87 78.78 128.91 86.67 124.75 85.04
  Z"
/>
<path fill="#7a4727" d="
  M 50.79 73.50
  Q 50.02 74.63 48.80 75.09
  C 48.07 72.81 50.77 71.29 50.79 73.50
  Z"
/>
<path fill="#8d5428" d="
  M 320.12 79.21
  Q 312.90 83.57 304.75 85.71
  Q 303.21 80.17 307.71 77.00
  C 308.61 79.94 311.39 77.21 311.44 76.56
  Q 311.67 73.45 314.56 74.69
  Q 316.63 75.57 318.69 73.19
  Q 319.59 72.14 319.73 73.00
  A 1.20 0.80 -34.7 0 1 319.39 73.85
  Q 317.07 76.32 320.12 79.21
  Z"
/>
<path fill="#b07733" d="
  M 50.79 73.50
  Q 55.13 73.50 57.54 77.00
  Q 47.87 83.75 36.00 84.79
  Q 35.04 82.05 38.25 82.19
  Q 42.21 82.35 45.84 80.99
  A 0.91 0.87 86.2 0 0 46.40 80.32
  Q 47.00 77.45 48.80 75.09
  Q 50.02 74.63 50.79 73.50
  Z"
/>
<path fill="#a46f3d" d="
  M 309.25 73.46
  C 311.56 73.54 308.51 76.24 307.71 77.00
  Q 303.21 80.17 304.75 85.71
  Q 296.81 88.20 288.50 87.46
  L 289.25 82.71
  Q 300.96 81.74 309.25 73.46
  Z"
/>
<path fill="#8d5428" d="
  M 90.46 73.75
  Q 92.93 75.22 94.31 74.56
  Q 96.35 73.59 95.64 75.47
  A 0.96 0.93 -84.5 0 1 94.95 76.06
  C 93.54 76.34 88.31 75.53 91.00 78.71
  Q 87.80 82.32 83.22 83.46
  Q 83.76 77.97 87.30 74.16
  Q 89.68 75.11 90.46 73.75
  Z"
/>
</svg>
