<?xml version="1.0" encoding="UTF-8" standalone="no"?>
<!DOCTYPE svg PUBLIC "-//W3C//DTD SVG 1.1//EN" "http://www.w3.org/Graphics/SVG/1.1/DTD/svg11.dtd">
<svg xmlns="http://www.w3.org/2000/svg" version="1.1" viewBox="0 0 600 300">
<path fill="#000000" d="
  M 76.75 187.67
  C 38.99 187.63 6.43 162.58 1.07 124.46
  C -5.59 77.02 31.93 40.25 78.00 40.25
  Q 295.37 40.25 512.75 40.25
  Q 527.34 40.25 532.72 40.88
  Q 558.01 43.84 576.44 60.56
  C 608.22 89.40 607.14 141.97 574.15 169.52
  Q 552.39 187.69 522.50 187.70
  C 373.91 187.75 225.34 187.82 76.75 187.67
  Z
  M 19.00 118.25
  C 21.20 149.72 46.67 169.75 77.50 169.75
  Q 300.00 169.75 522.50 169.69
  C 557.41 169.69 584.08 144.40 580.85 108.51
  C 578.12 78.06 552.39 58.50 522.75 58.50
  Q 300.00 58.50 77.25 58.50
  C 43.51 58.50 16.57 83.47 19.00 118.25
  Z"
/>
<path fill="#000000" d="
  M 559.74 87.85
  A 13.78 13.78 0.0 0 1 545.96 101.63
  A 13.78 13.78 0.0 0 1 532.18 87.85
  A 13.78 13.78 0.0 0 1 545.96 74.07
  A 13.78 13.78 0.0 0 1 559.74 87.85
  Z
  M 546.3400 99.3237
  A 11.46 11.15 88.1 0 0 557.1039 87.5003
  A 11.46 11.15 88.1 0 0 545.5800 76.4163
  A 11.46 11.15 88.1 0 0 534.8161 88.2397
  A 11.46 11.15 88.1 0 0 546.3400 99.3237
  Z"
/>
<rect fill="#000000" x="-10.49" y="-7.13" transform="translate(155.25,86.36) rotate(-0.1)" width="20.98" height="14.26" rx="0.66"/>
<path fill="#000000" d="
  M 452.57 104.64
  Q 453.25 105.06 453.25 104.26
  L 453.25 79.77
  A 0.52 0.52 -90.0 0 1 453.77 79.25
  L 472.90 79.25
  A 0.79 0.79 0.2 0 1 473.69 80.04
  L 473.75 147.80
  A 0.95 0.95 0.0 0 1 472.80 148.75
  Q 464.56 148.75 455.90 148.75
  C 454.63 148.75 452.70 149.24 453.18 147.08
  Q 453.44 145.87 452.35 146.46
  C 443.10 151.48 432.56 151.27 424.25 144.84
  C 400.10 126.14 426.07 87.99 452.57 104.64
  Z
  M 453.2238 116.0557
  A 7.79 7.79 0.0 0 0 445.4202 108.2793
  L 444.6002 108.2807
  A 7.79 7.79 0.0 0 0 436.8238 116.0843
  L 436.8562 134.6843
  A 7.79 7.79 0.0 0 0 444.6598 142.4607
  L 445.4798 142.4593
  A 7.79 7.79 0.0 0 0 453.2562 134.6557
  L 453.2238 116.0557
  Z"
/>
<path fill="#000000" d="
  M 81.31 102.19
  L 81.25 148.08
  A 0.67 0.66 -90.0 0 1 80.59 148.75
  L 60.53 148.69
  A 0.78 0.77 90.0 0 1 59.76 147.91
  L 59.93 79.94
  A 0.52 0.51 90.0 0 1 60.44 79.42
  L 80.94 79.30
  A 0.92 0.88 73.3 0 1 81.70 79.73
  L 110.45 126.33
  Q 111.56 128.13 111.56 126.01
  L 111.50 80.01
  A 0.76 0.76 0.0 0 1 112.26 79.25
  L 132.19 79.25
  A 0.56 0.56 0.0 0 1 132.75 79.81
  L 132.75 148.08
  A 0.67 0.67 0.0 0 1 132.08 148.75
  L 112.32 148.75
  A 1.30 1.26 -15.2 0 1 111.22 148.14
  L 82.51 101.86
  Q 81.31 99.91 81.31 102.19
  Z"
/>
<path fill="#000000" d="
  M 548.90 88.52
  A 0.63 0.61 69.1 0 0 548.49 89.49
  L 551.81 94.44
  Q 553.45 96.88 551.00 96.00
  C 548.41 95.07 546.59 86.72 543.37 89.16
  A 1.11 0.72 77.0 0 0 543.07 89.99
  L 543.23 94.70
  A 1.19 1.15 -23.0 0 1 542.86 95.57
  Q 542.14 96.23 541.22 95.72
  A 0.94 0.79 -77.8 0 1 540.81 94.94
  L 540.75 80.52
  A 0.53 0.52 -0.6 0 1 541.27 80.00
  C 543.82 79.97 548.36 79.56 550.31 80.71
  C 553.43 82.53 552.78 88.07 548.90 88.52
  Z
  M 543.14 83.60
  C 543.10 84.69 542.58 87.91 545.05 86.96
  Q 545.53 86.78 546.00 86.85
  C 550.70 87.56 551.99 81.15 544.38 82.23
  A 1.45 1.44 -2.9 0 0 543.14 83.60
  Z"
/>
<path fill="#000000" d="
  M 250.66 86.43
  L 269.95 86.32
  A 0.70 0.67 89.6 0 1 270.63 87.02
  L 270.64 95.06
  A 0.56 0.52 1.1 0 0 271.18 95.58
  L 281.31 95.92
  A 0.59 0.51 1.6 0 1 281.88 96.44
  L 281.84 101.89
  A 0.71 0.62 0.4 0 1 281.13 102.50
  L 271.38 102.50
  A 0.88 0.87 -0.3 0 0 270.50 103.38
  L 270.76 147.78
  A 0.97 0.96 -90.0 0 1 269.80 148.75
  L 250.51 148.75
  A 0.79 0.77 89.6 0 1 249.74 147.97
  L 249.57 103.18
  A 0.53 0.51 90.0 0 0 249.06 102.65
  L 239.32 102.65
  A 0.72 0.63 -7.6 0 1 238.65 102.21
  Q 237.74 99.30 238.44 96.30
  A 0.64 0.62 -83.6 0 1 239.05 95.80
  L 248.83 95.76
  A 0.92 0.90 0.0 0 0 249.75 94.86
  L 249.75 87.33
  A 0.91 0.90 -0.0 0 1 250.66 86.43
  Z"
/>
<path fill="#000000" d="
  M 541.58 125.30
  A 30.48 25.88 0.0 0 1 511.10 151.18
  A 30.48 25.88 0.0 0 1 480.62 125.30
  A 30.48 25.88 0.0 0 1 511.10 99.42
  A 30.48 25.88 0.0 0 1 541.58 125.30
  Z
  M 519.3809 113.2846
  A 8.03 8.03 0.0 0 0 511.3650 105.2406
  L 510.6650 105.2394
  A 8.03 8.03 0.0 0 0 502.6210 113.2554
  L 502.5791 137.2754
  A 8.03 8.03 0.0 0 0 510.5950 145.3194
  L 511.2950 145.3206
  A 8.03 8.03 0.0 0 0 519.3390 137.3046
  L 519.3809 113.2846
  Z"
/>
<path fill="#000000" d="
  M 301.55 126.32
  C 301.48 130.80 300.80 137.48 302.60 141.04
  C 304.71 145.24 309.77 146.94 313.98 144.59
  Q 319.17 141.68 318.70 134.00
  A 1.42 1.41 88.3 0 1 320.11 132.50
  L 338.84 132.50
  A 0.64 0.64 13.3 0 1 339.41 133.42
  C 331.11 150.26 311.57 155.83 294.94 148.06
  C 284.44 143.16 277.32 132.76 279.73 121.17
  C 285.90 91.47 337.06 92.75 340.79 124.58
  A 1.06 1.05 -3.4 0 1 339.74 125.75
  L 302.06 125.81
  A 0.52 0.51 -89.4 0 0 301.55 126.32
  Z
  M 318.54 118.20
  C 321.97 101.55 298.65 101.09 301.59 118.07
  A 0.60 0.59 -5.2 0 0 302.18 118.55
  L 317.93 118.67
  A 0.63 0.58 5.0 0 0 318.54 118.20
  Z"
/>
<path fill="#000000" d="
  M 197.87 106.51
  A 0.60 0.59 -31.1 0 0 198.79 106.73
  Q 208.69 98.90 219.51 100.93
  C 230.83 103.05 237.98 111.30 238.11 123.00
  Q 238.25 135.38 238.25 147.85
  A 0.89 0.87 90.0 0 1 237.38 148.74
  L 218.18 148.58
  A 0.53 0.52 89.4 0 1 217.67 148.07
  Q 217.16 126.58 217.50 121.50
  C 218.54 105.84 197.87 106.90 197.93 119.50
  Q 198.00 133.50 198.00 148.08
  A 0.67 0.67 0.0 0 1 197.33 148.75
  L 178.44 148.75
  A 1.18 1.16 0.2 0 1 177.26 147.58
  L 177.43 103.19
  A 0.52 0.50 -90.0 0 1 177.93 102.67
  L 195.50 102.50
  Q 198.84 102.47 198.00 105.00
  Q 197.66 106.04 197.87 106.51
  Z"
/>
<path fill="#000000" d="
  M 367.76 106.21
  Q 367.76 107.23 368.61 106.62
  Q 378.41 99.53 388.31 100.82
  C 400.48 102.42 408.03 111.28 408.00 123.75
  Q 407.95 142.51 407.82 148.07
  A 0.52 0.52 -89.4 0 1 407.30 148.58
  L 388.19 148.70
  A 0.97 0.94 -90.0 0 1 387.25 147.73
  Q 387.25 133.97 387.25 120.60
  Q 387.25 116.38 385.95 114.18
  C 382.37 108.13 372.31 108.73 369.10 114.62
  Q 367.75 117.11 367.75 122.13
  Q 367.75 134.59 367.75 147.97
  A 0.78 0.78 -89.9 0 1 366.97 148.75
  L 348.10 148.75
  A 0.85 0.85 -0.0 0 1 347.25 147.90
  L 347.25 103.17
  A 0.67 0.67 -0.4 0 1 347.92 102.50
  L 367.08 102.50
  A 0.69 0.67 90.0 0 1 367.75 103.19
  L 367.76 106.21
  Z"
/>
<rect fill="#000000" x="144.75" y="102.49" width="21.00" height="46.26" rx="0.74"/>
<path fill="#000000" d="
  M 594.89 227.88
  A 32.10 32.10 0.0 0 1 562.79 259.98
  L 38.21 259.98
  A 32.10 32.10 0.0 0 1 6.11 227.88
  L 6.11 227.12
  A 32.10 32.10 0.0 0 1 38.21 195.02
  L 562.79 195.02
  A 32.10 32.10 0.0 0 1 594.89 227.12
  L 594.89 227.88
  Z
  M 62.80 243.45
  A 2.48 2.47 -75.9 0 1 61.50 241.27
  Q 61.50 229.34 61.50 218.48
  C 61.50 214.90 61.10 212.56 64.82 211.59
  C 70.30 210.16 78.36 210.34 76.84 218.62
  A 1.13 1.11 -84.8 0 0 77.93 219.95
  L 90.59 220.00
  A 0.64 0.63 -86.4 0 0 91.22 219.44
  C 93.01 205.03 78.00 203.84 67.97 203.98
  C 61.20 204.07 46.25 205.41 46.25 215.25
  Q 46.25 223.82 46.25 232.40
  Q 46.25 241.18 46.85 243.04
  C 50.63 254.70 73.93 252.54 82.24 250.07
  C 90.50 247.62 91.88 242.56 91.23 234.31
  A 0.56 0.54 87.7 0 0 90.69 233.79
  L 77.69 233.91
  A 0.56 0.54 -88.8 0 0 77.16 234.44
  L 76.77 241.45
  A 2.49 2.46 -11.1 0 1 75.33 243.56
  Q 68.68 246.64 62.80 243.45
  Z
  M 135.80 243.44
  Q 135.13 224.01 135.68 204.81
  A 0.79 0.79 -89.3 0 0 134.89 204.00
  L 121.36 204.00
  A 0.86 0.86 -89.6 0 0 120.50 204.86
  L 120.50 250.41
  A 0.59 0.59 0.0 0 0 121.09 251.00
  L 159.51 251.00
  A 0.99 0.99 0.0 0 0 160.50 250.01
  L 160.50 245.02
  A 1.04 1.03 0.3 0 0 159.47 243.99
  L 136.32 243.94
  A 0.52 0.51 -0.6 0 1 135.80 243.44
  Z
  M 216.56 242.79
  L 219.00 250.34
  A 0.75 0.71 -8.2 0 0 219.69 250.83
  L 233.54 251.06
  A 0.59 0.58 81.7 0 0 234.10 250.29
  L 219.11 204.57
  A 0.83 0.82 80.6 0 0 218.33 204.00
  L 197.64 204.00
  A 1.24 1.23 -80.8 0 0 196.47 204.85
  L 181.72 250.10
  A 0.65 0.64 -80.4 0 0 182.32 250.95
  L 194.58 250.99
  A 1.26 1.16 -81.2 0 0 195.73 250.07
  L 197.79 242.83
  A 1.09 1.09 -81.6 0 1 198.85 242.04
  L 215.93 242.28
  A 0.73 0.64 80.1 0 1 216.56 242.79
  Z
  M 258.65 209.90
  C 247.83 224.41 279.21 231.09 283.94 236.56
  C 291.20 244.97 277.54 246.02 273.25 244.25
  Q 269.83 242.84 270.59 238.46
  A 1.21 1.16 -85.3 0 0 269.44 237.04
  L 256.68 237.16
  A 0.59 0.56 -87.7 0 0 256.13 237.69
  Q 255.26 246.93 263.50 249.75
  C 272.17 252.72 290.25 253.86 297.96 247.24
  C 303.10 242.83 301.49 236.46 296.67 232.42
  C 291.66 228.22 286.10 226.50 278.69 222.81
  C 258.23 212.62 287.66 204.93 286.72 217.15
  A 0.79 0.79 2.3 0 0 287.51 218.00
  L 299.89 218.00
  A 1.24 1.24 86.2 0 0 301.12 216.59
  Q 299.89 207.74 292.04 205.61
  C 283.11 203.17 269.26 202.89 261.32 207.52
  Q 259.74 208.44 258.65 209.90
  Z
  M 327.44 210.18
  C 316.85 227.52 351.10 229.01 354.50 238.50
  C 357.52 246.94 337.87 247.97 339.59 238.48
  A 1.22 1.19 -84.6 0 0 338.43 237.04
  L 325.81 237.05
  A 0.59 0.57 -86.0 0 0 325.24 237.56
  Q 324.05 246.37 331.81 249.44
  C 340.15 252.73 367.14 255.22 369.98 241.88
  C 372.80 228.65 346.46 226.49 341.36 217.75
  C 336.85 210.02 356.38 207.39 355.72 217.15
  A 0.80 0.80 -88.3 0 0 356.52 218.00
  L 369.18 218.00
  A 0.82 0.82 0.0 0 0 370.00 217.18
  C 369.99 199.88 338.82 202.56 329.92 207.75
  Q 328.38 208.65 327.44 210.18
  Z
  M 411.51 204.42
  A 0.41 0.41 0.0 0 0 411.10 204.01
  L 396.90 204.01
  A 0.41 0.41 0.0 0 0 396.49 204.42
  L 396.49 250.58
  A 0.41 0.41 0.0 0 0 396.90 250.99
  L 411.10 250.99
  A 0.41 0.41 0.0 0 0 411.51 250.58
  L 411.51 204.42
  Z
  M 455.74 243.42
  A 2.34 2.30 13.2 0 1 454.52 241.49
  Q 453.96 229.43 454.42 217.78
  C 454.56 214.46 454.30 212.63 457.69 211.69
  C 462.83 210.25 472.04 210.47 469.88 218.80
  A 0.94 0.92 -82.7 0 0 470.77 219.98
  L 483.56 219.84
  A 0.60 0.58 -86.5 0 0 484.13 219.32
  Q 485.52 208.13 474.50 205.50
  C 465.84 203.44 451.04 202.68 443.56 207.81
  Q 439.25 210.78 439.25 214.75
  Q 439.25 227.00 439.00 239.25
  C 438.71 253.83 463.44 252.97 472.30 250.91
  C 481.80 248.71 485.32 244.76 484.03 234.81
  A 1.18 1.14 86.1 0 0 482.88 233.78
  L 470.69 233.91
  A 0.56 0.53 -88.3 0 0 470.16 234.44
  L 469.77 241.45
  A 2.49 2.46 -11.1 0 1 468.33 243.56
  Q 461.68 246.64 455.74 243.42
  Z
  M 513.64 209.91
  C 502.67 224.71 533.32 230.06 538.94 236.56
  C 546.17 244.95 532.54 246.02 528.25 244.25
  Q 524.83 242.84 525.60 238.45
  A 1.21 1.18 -85.1 0 0 524.44 237.04
  L 511.81 237.05
  A 0.58 0.57 -86.0 0 0 511.24 237.55
  C 508.86 255.04 537.71 253.03 547.45 250.08
  C 555.30 247.70 559.68 239.51 552.81 233.44
  Q 547.31 228.57 539.07 225.42
  C 535.27 223.97 523.79 218.68 527.15 213.75
  C 530.16 209.31 542.31 209.55 541.72 217.15
  A 0.79 0.79 2.3 0 0 542.51 218.00
  L 555.17 218.00
  A 0.83 0.83 0.2 0 0 556.00 217.17
  C 555.99 200.19 525.16 202.36 516.31 207.52
  Q 514.73 208.44 513.64 209.91
  Z"
/>
<path fill="#000000" d="
  M 200.07 235.53
  L 206.78 213.52
  A 0.37 0.37 46.6 0 1 207.48 213.52
  L 214.19 235.53
  A 0.37 0.37 -62.7 0 1 213.84 236.00
  L 200.42 236.00
  A 0.37 0.37 -81.3 0 1 200.07 235.53
  Z"
/>
</svg>
