<?xml version="1.0" encoding="UTF-8" standalone="no"?>
<!DOCTYPE svg PUBLIC "-//W3C//DTD SVG 1.1//EN" "http://www.w3.org/Graphics/SVG/1.1/DTD/svg11.dtd">
<svg xmlns="http://www.w3.org/2000/svg" version="1.1" viewBox="0 0 600 117">
<path fill="#fe0000" d="
  M 375.84 73.04
  C 378.57 81.53 385.16 88.06 394.50 86.72
  C 403.42 85.44 404.41 74.15 396.25 70.75
  C 385.81 66.40 368.22 63.48 374.83 46.67
  Q 375.10 45.97 374.59 46.08
  C 373.73 46.26 356.67 87.17 354.88 91.41
  C 352.09 98.01 346.71 109.65 338.66 111.78
  C 333.71 113.09 325.07 109.76 328.53 102.94
  C 331.65 96.79 337.79 101.77 339.98 105.72
  A 1.03 1.03 51.1 0 0 341.65 105.90
  Q 347.52 99.25 351.22 90.62
  A 3.63 3.60 45.7 0 0 351.24 87.86
  Q 343.33 68.48 334.94 48.56
  Q 333.01 43.98 327.67 42.90
  A 0.67 0.67 -87.1 0 1 327.14 42.31
  C 326.22 33.16 321.09 21.80 310.97 20.48
  C 298.82 18.89 291.25 31.58 300.66 40.72
  C 309.34 49.16 332.15 48.26 334.36 65.77
  Q 336.03 78.92 325.40 86.38
  C 315.67 93.21 302.68 91.86 292.71 86.23
  A 0.83 0.82 23.9 0 0 291.52 86.68
  Q 290.20 90.72 286.22 89.42
  A 0.76 0.72 -82.2 0 1 285.73 88.74
  L 285.07 65.56
  A 0.56 0.47 -89.6 0 1 285.56 64.99
  L 288.76 65.14
  A 0.80 0.63 81.1 0 1 289.38 65.72
  C 292.73 77.89 300.75 88.61 315.00 86.25
  C 326.06 84.42 327.31 70.48 320.37 63.76
  Q 318.10 61.56 310.37 58.57
  C 302.73 55.61 293.41 52.62 289.47 45.40
  C 285.44 38.03 286.62 28.37 292.65 22.40
  C 301.20 13.93 314.36 14.28 324.34 20.61
  A 0.85 0.85 -65.5 0 0 325.61 20.13
  Q 326.67 16.41 330.77 17.60
  A 0.68 0.68 -82.4 0 1 331.26 18.24
  L 331.67 38.81
  A 0.53 0.52 90.0 0 0 332.18 39.33
  L 349.19 39.56
  A 0.65 0.61 -4.9 0 1 349.81 40.05
  Q 350.06 41.31 349.68 42.52
  A 0.98 0.73 -2.3 0 1 349.01 43.06
  L 345.44 43.98
  Q 343.55 44.46 344.42 46.59
  L 356.63 76.55
  Q 356.89 77.19 357.15 76.55
  L 368.61 48.49
  Q 369.40 46.55 367.91 45.00
  C 365.81 42.82 360.96 44.37 362.65 39.94
  A 0.70 0.69 10.4 0 1 363.30 39.50
  L 380.25 39.50
  Q 382.22 39.50 382.81 39.31
  Q 392.15 36.35 401.02 40.51
  A 0.40 0.40 -70.3 0 0 401.58 40.24
  Q 402.37 36.98 405.78 38.08
  A 0.80 0.65 -85.1 0 1 406.24 38.75
  C 406.37 40.38 410.75 39.76 411.94 39.71
  A 0.54 0.53 89.4 0 0 412.45 39.18
  L 412.50 24.68
  A 0.68 0.67 -90.0 0 1 413.17 24.00
  L 421.31 24.00
  A 0.51 0.51 -90.0 0 1 421.82 24.51
  L 421.75 39.10
  A 0.66 0.65 0.0 0 0 422.41 39.75
  L 435.69 39.75
  A 0.56 0.56 0.0 0 1 436.25 40.31
  L 436.25 43.98
  A 0.52 0.52 -89.9 0 1 435.73 44.50
  L 423.04 44.50
  A 1.03 1.03 -89.7 0 0 422.01 45.52
  Q 421.84 61.13 422.18 75.90
  C 422.41 85.35 428.83 85.23 436.45 83.90
  A 0.64 0.60 -15.5 0 1 437.14 84.26
  Q 438.19 86.85 435.74 87.97
  C 425.20 92.80 412.09 92.77 412.29 77.25
  Q 412.50 61.25 412.50 45.22
  A 0.53 0.45 -90.0 0 0 412.05 44.69
  L 407.18 44.61
  A 0.59 0.49 -88.9 0 0 406.68 45.19
  Q 406.57 50.01 407.00 52.00
  Q 407.56 54.56 403.92 53.76
  A 0.95 0.94 -1.5 0 1 403.20 53.08
  Q 400.41 42.31 390.44 42.18
  C 379.66 42.04 377.74 53.58 387.84 57.13
  C 395.58 59.84 407.29 62.57 409.32 72.11
  C 411.18 80.83 405.05 88.39 396.50 90.23
  Q 386.64 92.36 378.10 86.80
  A 0.52 0.52 -71.8 0 0 377.29 87.21
  Q 377.08 90.88 373.28 89.61
  A 0.73 0.72 8.6 0 1 372.78 88.94
  L 372.31 73.06
  A 0.69 0.67 79.9 0 1 372.77 72.38
  Q 374.00 71.97 375.23 72.38
  A 1.09 0.91 87.1 0 1 375.84 73.04
  Z"
/>
<path fill="#fe0000" d="
  M 54.60 70.38
  Q 55.10 71.67 55.60 70.39
  Q 63.61 49.87 71.62 29.80
  Q 73.92 24.02 75.15 18.14
  A 0.80 0.78 -84.1 0 1 75.92 17.50
  L 98.19 17.56
  A 0.56 0.49 0.5 0 1 98.75 18.06
  L 98.66 20.57
  A 0.69 0.56 -3.2 0 1 98.06 21.12
  C 93.66 21.65 89.06 21.97 89.05 27.00
  Q 89.00 50.88 89.00 74.75
  C 89.00 84.15 89.43 83.85 98.09 86.06
  A 1.10 0.99 -3.1 0 1 98.80 86.63
  Q 99.33 87.78 98.89 88.98
  A 0.76 0.70 9.3 0 1 98.19 89.44
  Q 84.57 89.54 70.95 89.50
  C 68.74 89.50 65.84 90.34 67.09 86.46
  A 0.79 0.76 5.1 0 1 67.74 85.94
  C 77.19 84.85 78.25 84.51 78.25 74.68
  Q 78.25 51.71 78.25 28.74
  Q 78.25 24.87 76.83 28.47
  Q 65.25 57.70 53.28 87.09
  C 52.71 88.51 52.08 88.91 50.64 88.30
  A 1.29 1.08 88.0 0 1 50.01 87.60
  L 27.57 27.83
  Q 25.99 23.64 26.00 28.12
  Q 26.03 51.00 26.25 73.75
  C 26.34 82.81 30.40 83.99 37.95 85.94
  A 0.74 0.56 10.1 0 1 38.51 86.55
  L 38.37 89.02
  A 0.62 0.50 0.9 0 1 37.75 89.50
  Q 24.82 89.50 11.88 89.50
  C 10.69 89.50 8.75 90.07 9.34 87.97
  A 1.30 1.22 -51.3 0 0 9.27 87.06
  Q 8.96 86.42 9.12 86.30
  Q 9.91 85.74 10.87 85.62
  Q 20.16 84.45 20.79 77.50
  C 22.14 62.68 21.24 46.92 21.17 32.00
  C 21.13 25.34 17.66 21.89 11.25 21.32
  Q 8.85 21.11 9.77 18.16
  A 0.71 0.70 -80.9 0 1 10.44 17.67
  L 33.94 17.55
  A 0.74 0.72 79.5 0 1 34.62 18.03
  L 54.60 70.38
  Z"
/>
<path fill="#fe0000" d="
  M 110.25 43.58
  A 1.58 1.57 67.0 0 0 109.49 45.47
  C 114.24 59.91 95.61 57.44 100.02 47.08
  C 103.73 38.34 119.30 36.67 126.58 39.07
  C 134.86 41.81 136.12 49.51 135.93 58.00
  C 135.82 62.91 134.04 81.04 137.25 84.13
  Q 138.85 85.68 138.78 83.41
  L 138.49 72.99
  A 0.66 0.65 -9.1 0 1 138.97 72.34
  Q 140.24 71.99 141.48 72.39
  A 1.02 0.84 87.8 0 1 142.07 73.05
  C 144.64 81.96 152.71 89.14 162.30 86.27
  C 169.22 84.21 170.10 75.02 163.94 71.56
  C 157.08 67.71 148.52 67.58 143.06 61.23
  Q 137.01 54.19 141.40 46.38
  C 146.28 37.68 156.76 36.28 165.50 39.71
  C 166.54 40.12 167.92 41.34 168.26 39.30
  A 1.29 0.89 84.6 0 1 168.70 38.51
  Q 170.17 37.46 171.97 38.12
  A 0.75 0.61 -81.5 0 1 172.38 38.81
  C 172.34 40.37 177.19 39.75 178.18 39.71
  A 0.54 0.54 -0.6 0 0 178.70 39.18
  L 178.75 24.68
  A 0.68 0.67 90.0 0 1 179.42 24.00
  L 187.41 24.00
  A 0.62 0.60 90.0 0 1 188.01 24.62
  L 188.16 39.06
  A 0.53 0.53 0.3 0 0 188.68 39.58
  L 201.94 39.81
  A 0.54 0.51 0.6 0 1 202.47 40.32
  L 202.47 43.94
  A 0.53 0.50 -0.0 0 1 201.94 44.44
  L 188.82 44.56
  A 0.52 0.51 0.6 0 0 188.30 45.06
  Q 187.83 72.97 188.50 78.75
  C 188.95 82.62 192.10 84.20 195.83 84.43
  C 198.92 84.62 204.63 81.99 203.44 86.84
  A 1.13 1.05 -7.6 0 1 202.86 87.54
  C 196.69 90.64 184.14 93.31 180.06 85.70
  Q 178.78 83.31 178.67 77.08
  Q 178.39 61.20 178.43 45.31
  A 0.62 0.61 -83.2 0 0 177.95 44.69
  Q 175.63 44.15 173.29 44.69
  A 0.60 0.60 -8.6 0 0 172.83 45.31
  L 173.23 52.75
  A 0.86 0.82 79.4 0 1 172.67 53.61
  C 169.53 54.66 169.88 54.19 168.88 51.36
  Q 165.03 40.46 153.50 42.25
  C 145.20 43.54 145.96 54.39 153.54 57.00
  Q 160.23 59.29 166.71 62.08
  C 179.44 67.56 178.56 83.71 166.18 89.01
  Q 155.98 93.37 145.25 87.31
  A 0.55 0.55 31.1 0 0 144.52 87.49
  C 142.65 90.25 142.01 89.40 139.32 90.12
  C 134.39 91.44 127.85 89.91 126.75 84.12
  Q 126.49 82.76 125.57 83.80
  C 118.51 91.85 101.10 95.00 97.60 82.09
  C 95.43 74.06 99.65 67.05 107.49 64.47
  Q 116.59 61.47 125.48 57.87
  A 0.90 0.86 84.5 0 0 126.02 57.18
  C 127.70 46.59 121.53 37.65 110.25 43.58
  Z
  M 110.70 84.07
  Q 112.76 85.46 115.24 85.25
  Q 121.77 84.69 125.70 79.65
  A 1.57 1.47 65.7 0 0 126.01 78.75
  L 126.43 62.60
  A 0.50 0.49 -5.9 0 0 125.82 62.11
  C 118.01 63.99 108.00 67.39 107.26 76.75
  Q 106.88 81.49 110.70 84.07
  Z"
/>
<path fill="#fe0000" d="
  M 208.03 63.57
  C 207.57 73.48 211.81 84.27 223.02 85.01
  Q 233.65 85.72 238.17 76.61
  A 0.84 0.84 -68.9 0 1 239.16 76.17
  C 243.26 77.40 242.37 78.43 240.35 81.09
  C 227.33 98.24 202.19 92.09 198.50 70.75
  C 196.43 58.77 200.16 45.18 211.81 40.02
  C 218.50 37.06 227.25 37.32 233.34 41.68
  C 239.86 46.34 241.50 54.13 241.19 62.01
  A 1.04 1.03 1.1 0 1 240.15 63.00
  L 208.57 63.06
  A 0.54 0.54 -88.3 0 0 208.03 63.57
  Z
  M 230.99 58.18
  C 231.31 34.30 208.37 38.62 207.99 58.12
  A 0.62 0.62 -89.5 0 0 208.61 58.75
  L 230.41 58.75
  A 0.58 0.58 -89.5 0 0 230.99 58.18
  Z"
/>
<path fill="#fe0000" d="
  M 448.36 89.74
  C 421.74 83.50 428.29 33.59 458.00 38.25
  C 471.35 40.34 475.37 49.87 474.99 62.43
  A 0.59 0.59 -89.0 0 1 474.40 63.00
  L 442.40 63.00
  A 0.65 0.65 -89.6 0 0 441.75 63.64
  C 441.71 70.38 443.50 77.89 448.73 82.17
  C 456.35 88.40 467.79 85.18 472.22 76.38
  A 0.67 0.64 -70.5 0 1 472.93 76.02
  Q 474.57 76.35 475.68 77.61
  A 0.74 0.69 -51.7 0 1 475.75 78.44
  Q 466.73 94.05 448.36 89.74
  Z
  M 464.82 58.11
  C 465.03 53.37 463.96 46.32 459.73 43.48
  C 454.93 40.26 448.76 42.11 445.43 46.68
  Q 441.73 51.78 441.92 58.06
  A 0.53 0.53 89.6 0 0 442.44 58.58
  L 464.17 58.74
  A 0.66 0.64 -88.2 0 0 464.82 58.11
  Z"
/>
<path fill="#fe0000" d="
  M 264.70 44.14
  C 260.22 44.97 254.59 48.27 254.43 53.38
  Q 253.99 66.70 254.42 80.01
  C 254.71 89.09 265.02 83.00 264.04 88.70
  A 0.63 0.60 3.8 0 1 263.43 89.21
  L 238.46 89.48
  A 0.76 0.74 84.0 0 1 237.72 88.86
  Q 237.10 85.74 239.10 85.93
  C 243.04 86.32 244.70 84.34 244.82 80.50
  Q 245.29 65.72 244.82 50.94
  C 244.67 46.11 243.11 44.20 238.43 43.52
  Q 236.17 43.19 237.13 40.53
  A 0.78 0.76 -81.9 0 1 237.81 40.01
  L 253.69 39.07
  A 0.49 0.48 88.3 0 1 254.20 39.56
  L 254.26 45.62
  Q 254.27 47.08 255.18 45.95
  C 258.78 41.46 265.04 37.39 270.79 38.59
  C 278.95 40.31 276.77 56.51 267.60 51.68
  Q 263.92 49.74 265.07 44.56
  A 0.35 0.33 -87.9 0 0 264.70 44.14
  Z"
/>
<path fill="#fe0000" d="
  M 517.94 45.87
  A 0.98 0.98 54.5 0 0 519.54 46.14
  C 530.40 34.60 549.85 34.23 549.79 54.50
  Q 549.75 66.68 549.75 78.86
  C 549.75 83.52 551.36 86.18 556.25 86.03
  A 0.92 0.77 -14.2 0 1 557.03 86.41
  Q 557.76 87.66 557.21 89.04
  A 0.78 0.72 9.9 0 1 556.50 89.50
  L 533.55 89.44
  A 0.70 0.69 -9.3 0 1 532.89 88.97
  C 531.34 84.48 536.87 86.85 538.83 84.67
  C 541.53 81.66 540.02 58.64 540.00 53.50
  C 539.94 40.56 525.16 42.93 519.70 50.56
  A 3.82 3.80 -27.5 0 0 519.00 52.76
  Q 519.00 64.58 519.00 75.83
  C 519.00 81.33 518.35 85.73 524.96 85.98
  Q 526.83 86.05 526.03 89.08
  A 0.56 0.56 -82.6 0 1 525.49 89.50
  L 503.15 89.50
  A 0.78 0.76 84.5 0 1 502.40 88.87
  Q 501.87 85.87 503.84 85.92
  C 509.64 86.04 509.25 82.69 509.25 77.92
  Q 509.25 66.83 509.25 55.75
  C 509.25 40.45 494.53 41.67 488.51 51.32
  A 1.77 1.73 61.4 0 0 488.25 52.24
  Q 488.25 64.03 488.25 75.82
  C 488.25 81.07 487.59 85.13 493.44 85.81
  Q 496.82 86.21 495.48 89.06
  A 0.83 0.77 11.9 0 1 494.75 89.50
  C 487.63 89.50 480.21 89.13 473.12 89.62
  Q 470.07 89.83 471.54 86.45
  A 0.70 0.64 14.2 0 1 472.25 86.07
  C 476.45 86.59 478.46 84.61 478.57 80.40
  Q 478.86 69.04 478.79 57.67
  C 478.74 50.02 479.86 44.56 471.50 43.32
  A 1.19 0.91 -5.8 0 1 470.72 42.84
  Q 470.04 41.64 470.72 40.43
  A 0.99 0.89 11.1 0 1 471.51 39.96
  L 487.04 38.96
  A 0.92 0.90 88.2 0 1 488.00 39.88
  L 488.00 46.02
  Q 488.00 47.64 489.00 46.36
  C 495.80 37.67 512.34 33.52 517.94 45.87
  Z"
/>
<path fill="#fe0000" d="
  M 566.46 40.15
  C 563.06 39.20 563.66 42.24 562.28 42.58
  A 0.68 0.35 81.0 0 1 561.81 41.94
  L 561.56 40.00
  A 0.89 0.79 86.2 0 1 562.33 39.00
  L 574.20 39.05
  A 0.61 0.61 -4.6 0 1 574.79 39.55
  Q 575.06 41.07 574.66 42.12
  Q 574.17 43.38 573.70 42.11
  Q 572.72 39.43 570.01 40.17
  A 0.66 0.62 -7.8 0 0 569.52 40.78
  L 569.65 49.56
  A 0.75 0.65 10.2 0 0 570.16 50.19
  Q 570.87 50.42 571.40 50.89
  Q 571.80 51.25 571.26 51.36
  C 570.74 51.48 563.77 52.43 564.80 50.82
  A 0.82 0.43 7.3 0 1 565.44 50.58
  Q 567.20 50.59 567.08 48.81
  C 566.90 46.16 567.02 43.47 566.95 40.81
  A 0.71 0.68 -82.8 0 0 566.46 40.15
  Z"
/>
<path fill="#fe0000" d="
  M 581.50 50.17
  L 582.44 50.48
  A 1.19 0.24 15.9 0 1 583.28 50.91
  C 584.04 52.16 578.64 51.76 577.73 51.60
  A 0.79 0.48 8.7 0 1 577.07 51.05
  Q 577.10 50.55 578.39 50.48
  A 1.18 1.17 -1.8 0 0 579.50 49.31
  L 579.50 41.04
  A 0.98 0.97 -88.1 0 0 578.59 40.06
  Q 577.48 39.98 577.32 39.64
  A 0.57 0.37 -7.9 0 1 577.93 39.11
  L 582.32 39.11
  A 0.92 0.66 73.7 0 1 583.01 39.65
  L 586.44 46.87
  Q 586.80 47.63 587.17 46.87
  L 590.53 39.89
  A 1.49 1.48 11.3 0 1 591.78 39.06
  Q 597.97 38.75 594.53 40.36
  A 0.94 0.89 -9.9 0 0 594.00 41.07
  Q 593.66 43.89 593.90 46.74
  C 594.01 48.13 593.02 50.02 595.08 50.59
  A 0.65 0.29 18.5 0 1 595.67 51.13
  Q 595.19 51.75 590.53 51.77
  Q 589.99 51.77 589.51 51.55
  Q 588.16 50.95 590.26 50.64
  A 1.00 0.98 89.7 0 0 591.09 49.79
  C 591.17 49.13 591.88 38.99 590.35 42.62
  Q 588.70 46.53 586.70 50.53
  Q 585.99 51.97 585.33 50.51
  L 581.81 42.68
  Q 580.88 40.61 580.75 42.87
  Q 580.59 45.70 581.01 49.44
  A 0.91 0.69 -86.6 0 0 581.50 50.17
  Z"
/>
</svg>
