<?xml version="1.0" encoding="UTF-8" standalone="no"?>
<!DOCTYPE svg PUBLIC "-//W3C//DTD SVG 1.1//EN" "http://www.w3.org/Graphics/SVG/1.1/DTD/svg11.dtd">
<svg xmlns="http://www.w3.org/2000/svg" version="1.1" viewBox="0 0 600 300">
<g stroke-width="2.00" fill="none" stroke-linecap="butt">
<path stroke="#b80709" stroke-opacity="0.992" vector-effect="non-scaling-stroke" d="
  M 347.51 61.86
  L 325.25 61.71"
/>
<path stroke="#b80709" stroke-opacity="0.992" vector-effect="non-scaling-stroke" d="
  M 588.29 142.25
  Q 588.04 143.96 589.46 144.50"
/>
<path stroke="#b80709" stroke-opacity="0.992" vector-effect="non-scaling-stroke" d="
  M 589.46 159.00
  Q 588.06 159.20 588.29 160.75"
/>
</g>
<path fill="#890e13" fill-opacity="0.980" d="
  M 347.51 61.86
  L 325.25 61.71
  Q 332.09 60.00 341.50 60.25
  Q 345.28 60.35 347.51 61.86
  Z"
/>
<path fill="#e60000" d="
  M 79.59 63.59
  Q 84.78 58.43 84.57 65.26
  C 84.00 83.79 84.50 102.55 84.50 121.11
  C 84.50 126.06 86.03 129.25 91.26 129.49
  A 1.12 0.78 -10.1 0 1 92.08 129.87
  Q 92.53 130.53 91.84 131.14
  A 1.48 1.01 16.0 0 1 90.93 131.44
  Q 73.93 131.54 56.92 131.50
  C 56.15 131.50 52.59 131.51 55.56 129.75
  A 1.70 1.44 28.2 0 1 56.49 129.55
  C 67.80 130.43 65.96 117.52 66.01 110.27
  A 0.77 0.77 0.0 0 0 65.24 109.50
  L 40.25 109.50
  A 1.37 1.36 24.7 0 0 39.37 109.82
  Q 32.67 115.46 27.23 122.31
  C 24.86 125.29 24.60 127.29 28.49 128.98
  Q 29.95 129.62 31.53 129.44
  Q 33.36 129.24 32.65 130.98
  A 0.78 0.74 10.7 0 1 31.94 131.44
  Q 12.81 131.62 8.50 131.50
  Q 6.30 131.44 7.41 130.11
  A 1.77 1.21 4.3 0 1 8.24 129.63
  C 16.47 127.63 22.43 120.15 28.63 114.03
  Q 54.13 88.84 79.59 63.59
  Z
  M 65.20 105.32
  A 0.53 0.52 0.6 0 0 65.73 104.81
  L 66.43 83.68
  Q 66.45 83.06 66.01 83.49
  L 44.23 104.76
  Q 43.65 105.33 44.47 105.33
  L 65.20 105.32
  Z"
/>
<path fill="#e60000" d="
  M 347.51 61.86
  C 355.34 59.97 353.67 64.92 352.76 69.53
  Q 351.46 76.15 349.81 82.70
  A 0.96 0.82 -89.4 0 1 349.23 83.36
  Q 347.20 83.96 347.25 81.25
  Q 347.42 71.88 340.44 67.81
  C 330.88 62.23 316.35 68.07 307.75 73.75
  Q 290.38 85.22 289.00 106.00
  C 287.90 122.62 301.37 132.53 317.44 128.20
  A 1.23 1.22 -88.1 0 0 318.28 127.41
  Q 321.84 116.89 324.77 106.28
  C 326.23 100.97 321.27 99.68 317.25 99.74
  A 1.41 0.92 -14.7 0 1 316.36 99.44
  Q 315.67 98.74 316.58 98.03
  A 1.62 1.20 19.4 0 1 317.49 97.75
  Q 334.13 97.75 350.76 97.75
  C 351.64 97.75 355.11 97.00 352.85 99.40
  A 1.37 1.11 15.7 0 1 351.99 99.77
  Q 345.48 100.10 343.81 106.81
  Q 342.09 113.73 337.10 127.97
  A 1.02 1.00 -0.2 0 1 336.46 128.60
  C 321.28 133.64 301.18 135.13 286.57 128.67
  C 274.83 123.47 267.34 111.58 268.50 98.75
  C 270.80 73.25 303.71 62.19 325.25 61.71
  L 347.51 61.86
  Z"
/>
<path fill="#e60000" d="
  M 360.60 127.90
  C 361.84 128.80 368.12 129.57 366.61 131.17
  A 1.28 0.98 16.5 0 1 365.75 131.50
  Q 354.33 131.50 342.91 131.50
  C 340.38 131.50 340.74 129.83 342.66 129.46
  C 348.94 128.24 354.05 122.75 358.41 118.41
  Q 386.36 90.60 414.27 62.77
  Q 415.68 61.36 417.99 61.80
  A 0.62 0.62 -85.0 0 1 418.50 62.41
  Q 418.50 90.11 418.50 117.29
  C 418.50 123.87 417.98 129.00 425.68 129.53
  A 0.82 0.66 -4.0 0 1 426.38 130.02
  C 426.70 131.12 425.52 131.50 424.62 131.50
  Q 407.09 131.54 389.56 131.44
  A 0.65 0.61 -5.4 0 1 388.93 130.95
  C 388.54 128.98 390.90 129.54 392.00 129.48
  C 401.89 128.92 400.21 117.21 399.96 110.13
  A 0.65 0.65 89.1 0 0 399.31 109.50
  L 374.14 109.50
  A 1.27 1.22 -66.8 0 0 373.26 109.87
  C 369.23 113.90 361.90 119.76 359.74 124.77
  Q 358.92 126.67 360.60 127.90
  Z
  M 397.15 86.27
  C 391.24 92.47 384.82 98.30 378.66 104.46
  Q 377.70 105.42 379.08 105.41
  L 399.33 105.26
  A 0.62 0.61 1.0 0 0 399.95 104.67
  L 400.43 84.06
  Q 400.44 83.55 400.02 83.84
  Q 398.45 84.91 397.15 86.27
  Z"
/>
<path fill="#e60000" d="
  M 154.76 109.36
  Q 154.93 110.33 155.55 109.57
  L 193.00 64.03
  A 2.14 2.09 -69.9 0 1 194.63 63.25
  L 222.94 63.31
  A 0.84 0.74 -10.8 0 1 223.68 63.75
  Q 224.26 65.04 222.56 65.06
  C 211.18 65.25 210.24 71.33 206.96 81.58
  Q 201.24 99.43 195.77 117.36
  C 194.95 120.03 194.14 122.22 193.99 125.11
  Q 193.89 127.20 195.75 128.16
  Q 198.80 129.74 202.68 129.59
  A 0.74 0.62 -9.0 0 1 203.38 130.01
  Q 203.90 131.48 202.00 131.50
  Q 191.57 131.60 161.06 131.44
  A 0.71 0.66 -7.6 0 1 160.39 130.97
  Q 159.93 129.45 161.75 129.50
  C 173.26 129.79 174.55 123.86 177.75 113.68
  Q 183.67 94.85 189.62 76.02
  A 0.21 0.18 -79.0 0 0 189.47 75.75
  L 189.36 75.74
  A 0.23 0.18 -63.4 0 0 189.18 75.83
  Q 166.81 103.13 144.48 130.47
  Q 143.17 132.07 141.27 131.38
  A 0.94 0.82 -87.6 0 1 140.72 130.69
  L 130.60 75.47
  Q 130.25 73.56 129.68 75.41
  Q 122.52 98.63 115.50 121.25
  C 113.64 127.25 119.58 129.51 124.19 129.56
  A 1.13 0.74 -10.1 0 1 125.03 129.92
  Q 125.44 130.51 124.82 131.12
  A 1.37 0.99 16.1 0 1 123.93 131.44
  L 97.05 131.44
  A 0.73 0.66 -8.2 0 1 96.37 130.98
  Q 95.93 129.60 97.75 129.50
  C 107.20 128.98 109.51 123.87 112.31 115.13
  Q 119.48 92.75 126.78 69.61
  A 1.30 1.29 -62.4 0 0 126.34 68.20
  Q 122.02 64.89 117.25 65.28
  Q 114.20 65.54 115.50 63.71
  A 1.04 0.92 15.5 0 1 116.32 63.31
  L 145.55 63.25
  A 0.98 0.97 -5.3 0 1 146.51 64.04
  L 154.76 109.36
  Z"
/>
<path fill="#e60000" d="
  M 245.08 124.12
  Q 244.17 127.32 247.30 128.43
  Q 250.68 129.64 254.66 129.48
  A 0.78 0.78 -82.5 0 1 255.43 130.49
  C 255.00 131.86 253.55 131.50 252.42 131.50
  Q 232.86 131.54 213.30 131.44
  A 0.78 0.65 -7.6 0 1 212.59 130.99
  C 212.26 130.02 213.30 129.57 214.13 129.58
  C 224.83 129.78 225.89 123.28 228.97 113.65
  Q 235.46 93.37 241.43 72.94
  C 243.60 65.53 237.58 65.28 232.32 65.19
  A 0.73 0.60 -4.9 0 1 231.65 64.73
  C 231.38 63.56 232.39 63.25 233.37 63.25
  Q 253.40 63.21 273.43 63.31
  A 0.55 0.50 0.0 0 1 273.98 63.81
  Q 274.00 65.30 272.25 65.25
  Q 263.88 65.02 261.27 72.63
  Q 252.35 98.63 245.08 124.12
  Z"
/>
<path fill="#e60000" d="
  M 499.78 161.98
  C 501.13 162.41 502.51 162.17 503.72 162.44
  C 512.73 164.54 511.56 172.41 511.02 179.73
  C 510.33 189.38 502.51 192.77 493.97 192.57
  C 482.75 192.30 471.47 192.50 460.25 192.50
  Q 455.65 192.50 450.57 189.68
  C 442.72 185.31 443.03 178.67 443.27 170.75
  A 1.03 1.03 -89.1 0 1 444.30 169.75
  L 460.07 169.75
  A 0.92 0.92 -88.5 0 1 460.99 170.72
  C 460.63 177.00 464.68 178.50 470.29 178.51
  Q 479.57 178.53 488.85 178.46
  C 500.11 178.37 495.41 166.41 486.50 167.50
  Q 483.12 167.92 471.99 167.28
  A 0.56 0.52 1.7 0 1 471.46 166.76
  L 471.30 156.76
  A 0.80 0.75 -0.4 0 1 472.10 156.00
  C 476.74 156.00 486.00 156.98 489.84 155.26
  C 492.81 153.93 495.10 148.09 491.59 145.98
  C 488.48 144.11 477.63 144.93 473.70 144.95
  C 466.81 144.99 460.95 144.54 460.94 152.91
  A 0.84 0.84 89.7 0 1 460.10 153.75
  L 444.07 153.70
  A 0.60 0.58 -3.4 0 1 443.49 153.20
  Q 441.09 137.36 452.74 132.75
  Q 457.15 131.01 469.48 130.93
  Q 491.08 130.79 496.75 131.25
  Q 509.66 132.29 509.33 145.25
  C 509.10 154.49 510.38 159.04 499.79 161.70
  Q 499.28 161.82 499.78 161.98
  Z"
/>
<path fill="#e60000" d="
  M 588.29 142.25
  Q 588.04 143.96 589.46 144.50
  Q 590.18 151.75 589.46 159.00
  Q 588.06 159.20 588.29 160.75
  Q 583.99 172.15 571.50 172.20
  Q 560.31 172.24 549.12 172.25
  C 542.96 172.25 539.61 171.59 536.52 176.33
  A 1.28 1.16 -36.2 0 0 536.33 177.25
  Q 536.82 179.43 539.06 179.44
  Q 563.78 179.55 589.19 179.50
  A 0.56 0.55 -0.0 0 1 589.75 180.05
  L 589.70 191.82
  A 0.70 0.69 0.4 0 1 589.00 192.50
  L 520.16 192.50
  A 0.91 0.91 -89.7 0 1 519.25 191.59
  Q 519.25 182.25 519.25 173.25
  C 519.25 158.87 532.39 158.25 542.96 158.25
  Q 554.23 158.24 565.50 158.21
  C 575.66 158.19 576.19 145.00 564.71 145.00
  Q 557.95 145.00 551.18 145.00
  C 543.25 145.00 537.22 143.89 536.59 153.07
  A 0.55 0.53 -87.7 0 1 536.06 153.58
  L 520.11 153.73
  A 0.88 0.85 89.7 0 1 519.25 152.85
  C 519.25 145.85 518.24 139.85 524.56 135.06
  Q 530.07 130.90 538.25 130.87
  Q 554.70 130.83 571.15 131.15
  C 579.70 131.32 585.39 134.08 588.29 142.25
  Z"
/>
<path fill="#890e13" fill-opacity="0.980" d="
  M 588.29 142.25
  Q 589.53 143.01 589.46 144.50
  Q 588.04 143.96 588.29 142.25
  Z"
/>
<path fill="#000000" d="
  M 429.75 214.50
  C 429.75 224.88 422.87 234.31 413.24 237.88
  Q 409.55 239.25 401.09 239.23
  Q 367.59 239.14 334.22 239.44
  A 0.72 0.71 -0.0 0 1 333.50 238.73
  L 333.68 147.94
  A 0.51 0.51 -89.4 0 1 334.19 147.44
  Q 370.97 147.55 407.75 147.50
  C 417.28 147.49 426.61 157.38 428.86 165.92
  Q 429.75 169.30 429.75 183.66
  Q 429.75 199.08 429.75 214.50
  Z
  M 404.82 213.82
  C 409.08 208.13 407.62 193.40 407.41 181.75
  C 407.22 170.64 400.42 167.75 390.52 167.75
  Q 373.38 167.75 356.19 167.75
  A 0.69 0.69 0.0 0 0 355.50 168.44
  L 355.50 218.21
  A 0.72 0.72 -0.4 0 0 356.23 218.93
  Q 372.81 218.65 389.72 218.73
  C 396.81 218.76 400.83 219.12 404.82 213.82
  Z"
/>
<path fill="#000000" d="
  M 258.00 218.71
  Q 269.89 218.78 281.77 218.76
  C 289.19 218.75 294.42 219.53 296.99 212.45
  C 297.77 210.33 297.46 207.75 297.55 205.44
  A 0.97 0.97 -89.1 0 1 298.52 204.50
  L 319.04 204.50
  A 0.95 0.95 89.4 0 1 319.99 205.43
  C 320.23 219.39 319.90 232.32 305.05 237.91
  Q 301.66 239.18 296.13 239.20
  Q 273.32 239.28 250.51 239.26
  C 238.57 239.24 231.13 234.69 226.69 223.06
  Q 224.99 218.63 225.02 216.00
  Q 225.24 193.26 225.25 170.53
  Q 225.25 167.64 226.11 165.11
  C 229.96 153.72 237.79 147.02 250.07 147.39
  C 264.44 147.82 278.94 147.50 293.33 147.50
  C 314.56 147.50 319.35 163.27 317.83 181.56
  A 0.75 0.74 2.0 0 1 317.08 182.25
  L 296.27 182.25
  A 0.70 0.70 -88.8 0 1 295.57 181.52
  C 296.11 170.34 288.68 169.74 279.42 169.75
  Q 268.96 169.76 258.50 169.82
  C 249.27 169.87 247.75 175.49 247.75 183.72
  Q 247.75 195.09 247.75 206.47
  C 247.75 214.09 249.94 218.66 258.00 218.71
  Z"
/>
<path fill="#890e13" fill-opacity="0.980" d="
  M 589.46 159.00
  Q 589.27 160.11 588.29 160.75
  Q 588.06 159.20 589.46 159.00
  Z"
/>
</svg>
