<?xml version="1.0" encoding="UTF-8" standalone="no"?>
<!DOCTYPE svg PUBLIC "-//W3C//DTD SVG 1.1//EN" "http://www.w3.org/Graphics/SVG/1.1/DTD/svg11.dtd">
<svg xmlns="http://www.w3.org/2000/svg" version="1.1" viewBox="0 0 600 300">
<g stroke-width="2.00" fill="none" stroke-linecap="butt">
<path stroke="#48464e" vector-effect="non-scaling-stroke" d="
  M 570.00 222.79
  Q 569.01 222.54 568.50 221.71"
/>
<path stroke="#9c9da1" vector-effect="non-scaling-stroke" d="
  M 568.50 221.71
  Q 571.94 215.07 572.25 211.25
  Q 573.03 201.72 573.29 172.25"
/>
<path stroke="#31343f" vector-effect="non-scaling-stroke" d="
  M 573.29 172.25
  C 574.19 171.95 574.72 171.37 574.80 170.37
  C 575.83 157.91 575.38 144.93 575.66 132.38
  C 575.87 123.19 576.09 115.10 575.24 102.50
  Q 574.60 92.97 568.50 85.61
  A 0.64 0.63 44.6 0 1 568.49 84.81
  Q 572.71 79.68 576.42 74.67
  Q 577.65 73.01 575.50 74.21"
/>
<path stroke="#9b9897" vector-effect="non-scaling-stroke" d="
  M 575.50 74.21
  C 565.22 63.05 546.96 65.65 531.86 66.06
  C 521.44 66.35 514.92 68.23 508.00 75.29"
/>
<path stroke="#48464e" vector-effect="non-scaling-stroke" d="
  M 508.00 75.29
  L 506.71 74.25"
/>
<path stroke="#bec6ae" vector-effect="non-scaling-stroke" d="
  M 572.54 95.25
  L 573.54 102.00"
/>
<path stroke="#949699" vector-effect="non-scaling-stroke" d="
  M 573.29 172.25
  Q 573.49 140.46 573.74 108.68
  C 573.75 106.70 574.25 104.40 573.54 102.00"
/>
<path stroke="#535c4c" vector-effect="non-scaling-stroke" d="
  M 573.54 102.00
  Q 574.35 98.40 572.54 95.25"
/>
<path stroke="#949699" vector-effect="non-scaling-stroke" d="
  M 572.54 95.25
  Q 567.62 82.29 554.50 77.71"
/>
<path stroke="#403e45" vector-effect="non-scaling-stroke" d="
  M 554.50 77.71
  Q 554.29 76.82 555.00 76.46"
/>
<path stroke="#92908e" vector-effect="non-scaling-stroke" d="
  M 575.50 74.21
  L 568.30 83.37
  A 0.84 0.83 -49.5 0 1 567.08 83.47
  Q 561.93 78.71 555.00 76.46"
/>
<path stroke="#aaa39e" vector-effect="non-scaling-stroke" d="
  M 555.00 76.46
  Q 547.68 74.63 537.25 74.75
  Q 525.25 74.89 512.11 75.28
  Q 510.94 75.32 509.88 75.83
  Q 506.15 77.62 508.00 75.29"
/>
<path stroke="#aca8a8" vector-effect="non-scaling-stroke" d="
  M 554.50 77.71
  C 542.74 75.79 526.61 76.45 515.06 77.33
  C 497.52 78.66 491.83 93.82 491.69 109.07
  C 491.46 136.13 491.53 163.19 490.99 190.25
  C 490.71 204.71 489.59 217.85 499.69 226.81
  C 509.89 235.87 522.37 234.55 535.17 234.51
  C 549.81 234.46 559.58 234.33 568.50 221.71"
/>
<path stroke="#333541" vector-effect="non-scaling-stroke" d="
  M 467.51 233.11
  L 467.00 213.75
  A 0.40 0.37 80.1 0 0 466.51 213.38
  C 464.20 214.18 465.17 217.57 464.79 219.50"
/>
<path stroke="#9c9da1" vector-effect="non-scaling-stroke" d="
  M 464.79 219.50
  L 464.54 209.75
  A 0.55 0.52 -0.5 0 0 463.99 209.24
  L 418.28 208.75
  A 0.73 0.71 -1.3 0 1 417.56 208.08
  C 417.28 203.26 416.81 194.83 419.08 190.83
  C 421.38 186.77 430.23 182.51 434.44 180.44
  Q 437.82 178.77 447.06 173.48
  C 456.99 167.80 462.48 165.67 464.54 155.50"
/>
<path stroke="#5b6454" vector-effect="non-scaling-stroke" d="
  M 464.54 155.50
  Q 466.03 150.94 465.04 146.25"
/>
<path stroke="#9c9da1" vector-effect="non-scaling-stroke" d="
  M 465.04 146.25
  L 465.21 98.50"
/>
<path stroke="#5b6454" vector-effect="non-scaling-stroke" d="
  M 465.21 98.50
  Q 465.62 96.22 464.54 94.25"
/>
<path stroke="#9c9da1" vector-effect="non-scaling-stroke" d="
  M 464.54 94.25
  L 462.79 90.25"
/>
<path stroke="#25272c" vector-effect="non-scaling-stroke" d="
  M 462.79 90.25
  C 467.55 93.38 461.37 85.62 461.03 85.17"
/>
<path stroke="#25272c" vector-effect="non-scaling-stroke" d="
  M 461.03 85.17
  L 466.87 78.31
  A 0.45 0.37 37.0 0 0 466.73 77.72
  L 466.00 77.21"
/>
<path stroke="#9b9898" vector-effect="non-scaling-stroke" d="
  M 466.00 77.21
  L 467.25 75.27
  A 0.76 0.59 40.5 0 0 467.08 74.44
  Q 459.99 67.20 450.00 66.75
  Q 439.67 66.29 423.00 66.45
  Q 410.80 66.58 403.13 75.68
  A 1.23 0.71 -39.4 0 0 402.80 76.56
  C 402.88 76.96 406.26 76.01 406.75 76.04"
/>
<path stroke="#48464e" vector-effect="non-scaling-stroke" d="
  M 406.75 76.04
  Q 407.05 76.75 406.79 77.50"
/>
<path stroke="#9c9da1" vector-effect="non-scaling-stroke" d="
  M 406.79 77.50
  C 392.71 80.93 388.56 93.28 388.42 106.20
  Q 388.29 118.64 388.52 131.77
  A 1.00 1.00 89.4 0 0 389.52 132.75
  C 393.69 132.75 415.75 133.59 417.54 132.00"
/>
<path stroke="#333541" vector-effect="non-scaling-stroke" d="
  M 417.54 132.00
  L 418.27 131.87
  A 0.64 0.58 86.3 0 0 418.76 131.26
  C 418.85 123.33 420.94 115.31 419.37 107.48
  C 418.13 101.29 425.28 101.21 428.87 102.90"
/>
<path stroke="#86847d" vector-effect="non-scaling-stroke" d="
  M 466.00 77.21
  L 460.75 83.54"
/>
<path stroke="#86847d" vector-effect="non-scaling-stroke" d="
  M 460.75 83.54
  Q 451.16 75.47 438.50 75.46"
/>
<path stroke="#aaa39f" vector-effect="non-scaling-stroke" d="
  M 438.50 75.46
  C 431.17 75.17 416.54 74.48 406.75 76.04"
/>
<path stroke="#bec6ae" vector-effect="non-scaling-stroke" d="
  M 464.54 94.25
  L 465.21 98.50"
/>
<path stroke="#bec6ae" vector-effect="non-scaling-stroke" d="
  M 465.04 146.25
  L 464.54 155.50"
/>
<path stroke="#96979b" vector-effect="non-scaling-stroke" d="
  M 464.79 219.50
  L 464.31 233.87
  A 0.40 0.39 0.7 0 1 463.91 234.25
  Q 427.94 234.72 391.87 234.26
  C 387.86 234.21 387.94 234.69 388.01 230.47
  C 388.22 219.19 388.45 207.85 388.13 196.57
  Q 387.74 182.66 396.40 173.22
  Q 399.91 169.39 409.37 163.89
  Q 422.87 156.04 427.56 153.56
  C 431.51 151.48 433.67 149.74 433.86 144.94
  C 434.34 132.18 433.89 120.41 434.00 106.50
  Q 434.04 100.87 429.39 100.47
  C 425.23 100.11 417.48 99.40 417.59 105.91
  Q 417.83 118.95 417.54 132.00"
/>
<path stroke="#101211" vector-effect="non-scaling-stroke" d="
  M 460.75 83.54
  Q 460.71 84.63 461.03 85.17"
/>
<path stroke="#888986" vector-effect="non-scaling-stroke" d="
  M 462.79 90.25
  Q 454.75 75.98 437.97 76.68"
/>
<path stroke="#343133" vector-effect="non-scaling-stroke" d="
  M 438.50 75.46
  Q 437.89 75.60 437.97 76.68"
/>
<path stroke="#aca8a8" vector-effect="non-scaling-stroke" d="
  M 437.97 76.68
  Q 422.40 76.20 406.79 77.50"
/>
<path stroke="#9b9898" vector-effect="non-scaling-stroke" d="
  M 426.57 199.23
  C 425.00 201.54 423.04 203.70 421.15 206.13
  Q 420.66 206.76 421.46 206.76
  C 435.86 206.66 449.92 207.11 464.20 206.94
  A 1.10 1.02 18.7 0 0 465.02 206.57
  L 471.39 199.21
  Q 472.17 198.31 470.97 198.31
  Q 451.47 198.31 431.50 197.96
  Q 430.85 197.95 430.23 198.10
  Q 429.75 198.22 429.27 198.14
  Q 427.51 197.84 426.57 199.23"
/>
<path stroke="#5a4b49" vector-effect="non-scaling-stroke" d="
  M 220.98 94.06
  Q 218.94 95.27 218.75 97.46"
/>
<path stroke="#986047" vector-effect="non-scaling-stroke" d="
  M 218.75 97.46
  C 205.14 111.72 195.07 128.58 192.54 148.50"
/>
<path stroke="#9c8945" vector-effect="non-scaling-stroke" d="
  M 192.54 148.50
  Q 188.17 183.20 210.04 209.98"
/>
<path stroke="#647a4c" vector-effect="non-scaling-stroke" d="
  M 210.04 209.98
  Q 228.32 231.93 256.33 237.62"
/>
<path stroke="#5b6454" vector-effect="non-scaling-stroke" d="
  M 256.33 237.62
  Q 274.72 241.04 292.51 237.00
  A 1.28 1.27 -6.6 0 0 293.50 235.76
  Q 293.52 224.86 293.65 213.79
  C 293.67 212.48 294.90 197.54 292.50 197.96"
/>
<path stroke="#474547" vector-effect="non-scaling-stroke" d="
  M 292.50 197.96
  L 292.21 196.50"
/>
<path stroke="#9b9897" vector-effect="non-scaling-stroke" d="
  M 292.21 196.50
  Q 294.30 195.10 293.85 192.49
  Q 293.77 192.02 293.90 191.52
  Q 294.29 190.05 292.98 190.41
  Q 276.07 195.05 260.19 187.81
  C 258.94 187.24 258.01 186.15 256.37 185.41
  C 249.77 182.48 241.58 170.98 239.07 164.35
  Q 233.34 149.14 238.56 133.53"
/>
<path stroke="#474547" vector-effect="non-scaling-stroke" d="
  M 238.56 133.53
  Q 238.69 132.60 238.46 131.75"
/>
<path stroke="#9c8945" vector-effect="non-scaling-stroke" d="
  M 238.46 131.75
  Q 242.66 125.22 245.69 123.19
  Q 268.67 107.76 293.74 119.72
  A 0.32 0.31 -77.6 0 0 294.18 119.43
  L 293.96 89.25"
/>
<path stroke="#647a4c" vector-effect="non-scaling-stroke" d="
  M 293.96 89.25
  C 293.96 87.18 294.73 82.37 293.71 80.75"
/>
<path stroke="#5a4b49" vector-effect="non-scaling-stroke" d="
  M 293.71 80.75
  L 294.08 78.90"
/>
<path stroke="#9b9897" vector-effect="non-scaling-stroke" d="
  M 294.08 78.90
  Q 297.29 76.15 300.03 70.61
  A 0.60 0.59 20.3 0 0 299.64 69.77
  C 271.14 62.82 240.66 72.01 220.98 94.06"
/>
<path stroke="#bca899" vector-effect="non-scaling-stroke" d="
  M 294.08 78.90
  Q 253.74 69.49 220.98 94.06"
/>
<path stroke="#858a4e" vector-effect="non-scaling-stroke" d="
  M 293.71 80.75
  L 293.54 80.75"
/>
<path stroke="#bd9947" vector-effect="non-scaling-stroke" d="
  M 293.54 80.75
  Q 275.54 75.55 257.19 79.32"
/>
<path stroke="#b97049" vector-effect="non-scaling-stroke" d="
  M 257.19 79.32
  Q 235.85 83.94 218.75 97.46"
/>
<path stroke="#c7c849" vector-effect="non-scaling-stroke" d="
  M 293.54 80.75
  L 293.96 89.25"
/>
<path stroke="#aa9344" vector-effect="non-scaling-stroke" d="
  M 238.46 131.75
  C 225.90 146.31 225.34 166.97 235.62 182.89"
/>
<path stroke="#c7c849" vector-effect="non-scaling-stroke" d="
  M 235.62 182.89
  Q 223.56 195.93 211.69 208.69
  Q 210.78 209.66 210.04 209.98"
/>
<path stroke="#fbae44" vector-effect="non-scaling-stroke" d="
  M 192.54 148.50
  L 193.02 148.50
  A 1.11 1.09 -68.3 0 0 193.83 148.14
  Q 222.42 117.19 251.36 86.58
  C 253.64 84.18 255.86 83.06 257.19 79.32"
/>
<path stroke="#86a259" vector-effect="non-scaling-stroke" d="
  M 289.65 199.39
  Q 287.17 202.98 282.44 207.94
  Q 270.69 220.27 256.33 237.62"
/>
<path stroke="#a8a296" vector-effect="non-scaling-stroke" d="
  M 238.56 133.53
  C 237.77 133.18 233.08 143.22 232.77 144.14
  C 220.16 180.74 257.39 214.14 292.21 196.50"
/>
<path stroke="#696e54" vector-effect="non-scaling-stroke" d="
  M 292.50 197.96
  Q 290.72 198.30 289.65 199.39"
/>
<path stroke="#72844b" vector-effect="non-scaling-stroke" d="
  M 289.65 199.39
  C 268.98 206.87 248.43 201.14 235.62 182.89"
/>
<path stroke="#484859" vector-effect="non-scaling-stroke" d="
  M 296.76 122.22
  L 296.75 123.46"
/>
<path stroke="#4b5080" vector-effect="non-scaling-stroke" d="
  M 296.75 123.46
  C 295.61 123.94 296.01 151.54 296.06 154.69
  A 0.98 0.95 -2.3 0 0 297.10 155.62
  L 302.75 155.29"
/>
<path stroke="#484859" vector-effect="non-scaling-stroke" d="
  M 302.75 155.29
  Q 304.20 155.13 304.75 156.21"
/>
<path stroke="#9c9a9a" vector-effect="non-scaling-stroke" d="
  M 304.75 156.21
  Q 299.46 155.21 297.36 160.81
  A 0.52 0.52 10.7 0 0 297.84 161.51
  L 333.68 161.93
  A 1.20 1.15 22.2 0 0 334.54 161.59
  Q 337.59 158.54 340.10 153.79
  A 0.65 0.64 31.8 0 0 339.90 152.96
  Q 338.13 151.73 337.19 153.44
  Q 335.68 156.18 333.94 156.19
  L 316.50 156.21"
/>
<path stroke="#484859" vector-effect="non-scaling-stroke" d="
  M 316.50 156.21
  Q 316.38 155.54 317.00 155.29"
/>
<path stroke="#4b5080" vector-effect="non-scaling-stroke" d="
  M 317.00 155.29
  Q 324.35 155.40 331.69 154.94
  C 336.71 154.62 337.53 150.22 340.35 147.43
  Q 351.75 136.15 361.92 123.73"
/>
<path stroke="#484859" vector-effect="non-scaling-stroke" d="
  M 361.92 123.73
  Q 362.68 124.20 362.80 122.50"
/>
<path stroke="#9b9897" vector-effect="non-scaling-stroke" d="
  M 362.80 122.50
  Q 367.63 119.51 369.59 113.98
  A 0.37 0.37 10.3 0 0 369.25 113.49
  Q 358.13 113.17 347.00 113.30
  C 331.31 113.48 317.52 113.11 302.76 113.00
  A 1.04 1.03 18.7 0 0 301.94 113.40
  Q 298.95 117.30 296.76 122.22"
/>
<path stroke="#aaa4a8" vector-effect="non-scaling-stroke" d="
  M 362.80 122.50
  L 296.76 122.22"
/>
<path stroke="#5a5d91" vector-effect="non-scaling-stroke" d="
  M 361.92 123.73
  L 296.75 123.46"
/>
<path stroke="#5a5d91" vector-effect="non-scaling-stroke" d="
  M 317.00 155.29
  L 302.75 155.29"
/>
<path stroke="#aba7ac" vector-effect="non-scaling-stroke" d="
  M 304.75 156.21
  L 316.50 156.21"
/>
<path stroke="#9b4e4a" vector-effect="non-scaling-stroke" d="
  M 361.53 191.53
  L 361.50 191.37
  A 1.11 1.03 19.3 0 0 361.22 190.84
  L 335.18 163.56
  A 0.99 0.91 66.9 0 0 334.49 163.25
  L 296.81 162.82
  A 0.52 0.51 -88.3 0 0 296.29 163.32
  Q 295.86 174.81 295.92 186.31
  C 295.94 190.16 292.48 195.66 300.50 194.25
  Q 304.87 193.48 313.00 193.56
  Q 337.72 193.80 362.44 193.69
  A 0.43 0.41 -6.3 0 0 362.87 193.19
  Q 362.64 192.23 361.70 191.75
  A 0.32 0.31 8.1 0 1 361.53 191.53"
/>
<path stroke="#484859" vector-effect="non-scaling-stroke" d="
  M 19.49 79.04
  Q 19.06 79.76 19.29 80.25"
/>
<path stroke="#4d4b7a" vector-effect="non-scaling-stroke" d="
  M 19.29 80.25
  Q 18.79 81.45 18.98 82.75
  Q 25.28 126.09 32.46 169.30"
/>
<path stroke="#92486a" vector-effect="non-scaling-stroke" d="
  M 32.46 169.30
  C 35.07 187.84 38.23 206.42 40.18 225.04
  C 40.26 225.82 41.03 227.29 41.00 227.75
  Q 40.71 231.53 42.06 235.03
  A 1.29 0.94 83.6 0 0 42.69 235.72
  Q 43.40 235.98 43.81 235.45"
/>
<path stroke="#986047" vector-effect="non-scaling-stroke" d="
  M 43.81 235.45
  L 96.37 235.74
  A 1.37 1.35 -86.4 0 0 97.71 234.54
  L 105.96 169.50"
/>
<path stroke="#92486a" vector-effect="non-scaling-stroke" d="
  M 105.96 169.50
  Q 110.06 139.61 116.44 85.94
  Q 116.78 83.03 116.46 81.50"
/>
<path stroke="#484859" vector-effect="non-scaling-stroke" d="
  M 116.46 81.50
  Q 116.55 80.15 117.25 79.04"
/>
<path stroke="#9b9898" vector-effect="non-scaling-stroke" d="
  M 117.25 79.04
  Q 121.20 76.03 123.69 71.75
  Q 123.94 71.32 123.44 71.32
  L 90.92 71.48
  A 2.39 1.94 14.9 0 0 89.16 72.27
  L 84.21 78.75"
/>
<path stroke="#484859" vector-effect="non-scaling-stroke" d="
  M 84.21 78.75
  Q 83.28 79.67 83.27 80.54"
/>
<path stroke="#4d4b7a" vector-effect="non-scaling-stroke" d="
  M 83.27 80.54
  Q 80.51 98.70 80.12 117.39"
/>
<path stroke="#92486a" vector-effect="non-scaling-stroke" d="
  M 80.12 117.39
  Q 77.96 131.70 76.82 146.51
  C 76.64 148.89 75.60 150.82 75.34 153.22
  Q 72.54 178.88 70.05 204.81"
/>
<path stroke="#986047" vector-effect="non-scaling-stroke" d="
  M 70.05 204.81
  Q 69.37 205.04 69.04 205.75"
/>
<path stroke="#92486a" vector-effect="non-scaling-stroke" d="
  M 69.04 205.75
  Q 69.16 204.16 68.50 198.50
  Q 65.37 171.50 62.25 144.50
  Q 61.81 140.69 60.73 138.61"
/>
<path stroke="#4d4b7a" vector-effect="non-scaling-stroke" d="
  M 60.73 138.61
  Q 57.67 111.45 54.12 84.67
  C 53.93 83.20 54.20 81.79 53.21 80.25"
/>
<path stroke="#484859" vector-effect="non-scaling-stroke" d="
  M 53.21 80.25
  Q 53.15 79.58 53.50 79.04"
/>
<path stroke="#9b9898" vector-effect="non-scaling-stroke" d="
  M 53.50 79.04
  L 53.96 79.00"
/>
<path stroke="#25272c" vector-effect="non-scaling-stroke" d="
  M 53.96 79.00
  Q 54.14 80.30 55.22 79.47
  Q 58.93 76.63 60.14 71.95"
/>
<path stroke="#9b9898" vector-effect="non-scaling-stroke" d="
  M 60.14 71.95
  Q 58.03 70.60 55.76 70.89
  C 46.41 72.06 35.78 71.25 26.31 71.07
  A 1.31 1.25 23.8 0 0 25.43 71.39
  Q 21.64 74.73 19.49 79.04"
/>
<path stroke="#86847d" vector-effect="non-scaling-stroke" d="
  M 60.14 71.95
  L 53.96 79.00"
/>
<path stroke="#aaa5a9" vector-effect="non-scaling-stroke" d="
  M 53.50 79.04
  L 19.49 79.04"
/>
<path stroke="#5c588c" vector-effect="non-scaling-stroke" d="
  M 53.21 80.25
  Q 51.67 78.59 50.18 79.74
  A 1.74 1.26 -57.7 0 1 49.30 80.09
  Q 34.30 80.72 19.29 80.25"
/>
<path stroke="#a5589d" vector-effect="non-scaling-stroke" d="
  M 60.73 138.61
  Q 48.38 152.97 35.42 166.67
  Q 34.09 168.08 32.46 169.30"
/>
<path stroke="#f16d69" vector-effect="non-scaling-stroke" d="
  M 69.04 205.75
  Q 62.86 213.92 56.94 219.69
  Q 49.14 227.28 43.81 235.45"
/>
<path stroke="#f16d69" vector-effect="non-scaling-stroke" d="
  M 105.96 169.50
  Q 103.92 168.86 102.46 170.45
  Q 86.54 187.84 70.05 204.81"
/>
<path stroke="#a5589d" vector-effect="non-scaling-stroke" d="
  M 114.00 81.00
  Q 97.85 99.95 80.12 117.39"
/>
<path stroke="#a1557b" vector-effect="non-scaling-stroke" d="
  M 116.46 81.50
  Q 115.32 80.16 114.00 81.00"
/>
<path stroke="#5c588c" vector-effect="non-scaling-stroke" d="
  M 114.00 81.00
  Q 98.34 79.77 83.27 80.54"
/>
<path stroke="#aaa5a9" vector-effect="non-scaling-stroke" d="
  M 117.25 79.04
  L 84.21 78.75"
/>
<path stroke="#5f4754" vector-effect="non-scaling-stroke" d="
  M 136.71 79.00
  Q 136.47 79.23 136.23 80.26"
/>
<path stroke="#92486a" vector-effect="non-scaling-stroke" d="
  M 136.23 80.26
  C 134.93 81.58 135.62 128.42 135.64 134.00"
/>
<path stroke="#986047" vector-effect="non-scaling-stroke" d="
  M 135.64 134.00
  L 135.79 209.75"
/>
<path stroke="#9c8945" vector-effect="non-scaling-stroke" d="
  M 135.79 209.75
  Q 135.14 221.97 135.74 235.36
  A 0.69 0.69 88.3 0 0 136.44 236.02
  Q 151.75 235.75 166.09 235.92
  C 168.60 235.95 169.54 234.63 169.04 232.25"
/>
<path stroke="#2f3646" vector-effect="non-scaling-stroke" d="
  M 169.04 232.25
  L 169.97 232.08
  A 0.72 0.62 87.7 0 0 170.48 231.44
  Q 170.69 228.82 170.75 221.25
  Q 170.92 199.01 170.94 176.78
  C 170.94 176.35 170.56 175.84 170.57 175.38
  Q 171.05 146.86 170.82 118.33
  Q 170.81 117.92 170.86 117.29
  C 171.05 114.44 170.01 116.31 169.99 117.20
  Q 169.56 146.72 169.54 176.25"
/>
<path stroke="#5f4754" vector-effect="non-scaling-stroke" d="
  M 169.54 176.25
  L 169.04 172.75"
/>
<path stroke="#986047" vector-effect="non-scaling-stroke" d="
  M 169.04 172.75
  L 168.96 102.25"
/>
<path stroke="#92486a" vector-effect="non-scaling-stroke" d="
  M 168.96 102.25
  Q 169.04 91.74 168.76 81.24
  C 168.74 80.40 168.36 79.93 167.50 79.96"
/>
<path stroke="#5f4754" vector-effect="non-scaling-stroke" d="
  M 167.50 79.96
  Q 167.92 79.58 168.00 79.04"
/>
<path stroke="#9b9898" vector-effect="non-scaling-stroke" d="
  M 168.00 79.04
  C 170.57 79.11 173.64 73.76 175.09 71.72
  Q 175.62 70.99 174.72 71.00
  L 143.56 71.28
  A 1.90 1.61 15.7 0 0 142.16 71.92
  L 136.71 79.00"
/>
<path stroke="#c0a4a5" vector-effect="non-scaling-stroke" d="
  M 168.00 79.04
  L 136.71 79.00"
/>
<path stroke="#b75477" vector-effect="non-scaling-stroke" d="
  M 167.50 79.96
  L 136.23 80.26"
/>
<path stroke="#f16d69" vector-effect="non-scaling-stroke" d="
  M 168.96 102.25
  C 166.81 100.01 161.76 106.76 160.56 108.31
  Q 156.00 114.24 137.40 133.40
  Q 136.78 134.04 135.64 134.00"
/>
<path stroke="#be6c54" vector-effect="non-scaling-stroke" d="
  M 169.04 172.75
  L 168.46 177.25"
/>
<path stroke="#fbae44" vector-effect="non-scaling-stroke" d="
  M 168.46 177.25
  Q 168.54 176.27 167.96 175.92
  A 0.71 0.54 -52.0 0 0 167.17 176.13
  Q 152.70 192.65 137.81 208.81
  Q 136.82 209.89 135.79 209.75"
/>
<path stroke="#c29552" vector-effect="non-scaling-stroke" d="
  M 169.04 180.00
  L 168.46 177.25"
/>
<path stroke="#928443" vector-effect="non-scaling-stroke" d="
  M 169.04 232.25
  L 169.04 180.00"
/>
<path stroke="#544153" vector-effect="non-scaling-stroke" d="
  M 169.04 180.00
  L 169.54 176.25"
/>
<path stroke="#949699" vector-effect="non-scaling-stroke" d="
  M 522.54 153.00
  Q 522.59 175.85 522.29 198.70
  Q 522.22 204.02 522.40 204.78
  C 524.22 212.40 540.96 211.89 542.00 204.00
  Q 542.61 199.40 542.21 178.00"
/>
<path stroke="#aaa7a1" vector-effect="non-scaling-stroke" d="
  M 542.21 178.00
  L 543.06 105.24"
/>
<path stroke="#9c9da1" vector-effect="non-scaling-stroke" d="
  M 543.06 105.24
  Q 541.08 100.56 536.25 100.52
  C 529.48 100.46 523.15 99.45 522.98 108.50
  Q 522.57 130.75 522.54 153.00"
/>
<path stroke="#474547" vector-effect="non-scaling-stroke" d="
  M 543.06 105.24
  Q 541.73 106.02 541.29 107.00"
/>
<path stroke="#31343f" vector-effect="non-scaling-stroke" d="
  M 539.67 198.27
  C 541.34 209.48 537.03 207.74 528.84 208.15
  C 522.86 208.45 523.97 200.69 524.03 197.05
  C 524.30 181.25 523.55 168.53 524.75 155.75
  Q 525.16 151.34 524.66 148.55
  A 0.36 0.33 67.8 0 0 524.13 148.30
  C 523.49 148.78 523.12 151.89 522.54 153.00"
/>
<path stroke="#3e3e3e" vector-effect="non-scaling-stroke" d="
  M 542.21 178.00
  Q 541.25 178.26 540.29 178.00"
/>
</g>
<path fill="#393b47" d="
  M 570.00 222.79
  Q 569.01 222.54 568.50 221.71
  Q 571.94 215.07 572.25 211.25
  Q 573.03 201.72 573.29 172.25
  C 574.19 171.95 574.72 171.37 574.80 170.37
  C 575.83 157.91 575.38 144.93 575.66 132.38
  C 575.87 123.19 576.09 115.10 575.24 102.50
  Q 574.60 92.97 568.50 85.61
  A 0.64 0.63 44.6 0 1 568.49 84.81
  Q 572.71 79.68 576.42 74.67
  Q 577.65 73.01 575.50 74.21
  C 565.22 63.05 546.96 65.65 531.86 66.06
  C 521.44 66.35 514.92 68.23 508.00 75.29
  L 506.71 74.25
  C 515.37 64.45 527.23 63.59 539.75 64.05
  C 546.30 64.29 556.01 63.28 563.30 65.05
  Q 575.46 68.00 581.69 78.63
  Q 581.90 78.99 581.94 79.56
  Q 582.03 80.82 583.00 80.98
  A 0.79 0.61 1.4 0 1 583.62 81.48
  Q 584.00 83.24 584.00 86.25
  Q 584.00 142.38 584.00 198.50
  Q 584.00 202.82 583.54 205.20
  A 0.56 0.48 7.2 0 1 582.96 205.58
  Q 582.18 205.51 582.16 206.43
  Q 582.14 207.05 581.98 207.39
  Q 577.74 216.44 570.00 222.79
  Z"
/>
<path fill="#393b47" d="
  M 467.51 233.11
  L 467.00 213.75
  A 0.40 0.37 80.1 0 0 466.51 213.38
  C 464.20 214.18 465.17 217.57 464.79 219.50
  L 464.54 209.75
  A 0.55 0.52 -0.5 0 0 463.99 209.24
  L 418.28 208.75
  A 0.73 0.71 -1.3 0 1 417.56 208.08
  C 417.28 203.26 416.81 194.83 419.08 190.83
  C 421.38 186.77 430.23 182.51 434.44 180.44
  Q 437.82 178.77 447.06 173.48
  C 456.99 167.80 462.48 165.67 464.54 155.50
  Q 466.03 150.94 465.04 146.25
  L 465.21 98.50
  Q 465.62 96.22 464.54 94.25
  L 462.79 90.25
  C 467.55 93.38 461.37 85.62 461.03 85.17
  L 466.87 78.31
  A 0.45 0.37 37.0 0 0 466.73 77.72
  L 466.00 77.21
  L 467.25 75.27
  A 0.76 0.59 40.5 0 0 467.08 74.44
  Q 459.99 67.20 450.00 66.75
  Q 439.67 66.29 423.00 66.45
  Q 410.80 66.58 403.13 75.68
  A 1.23 0.71 -39.4 0 0 402.80 76.56
  C 402.88 76.96 406.26 76.01 406.75 76.04
  Q 407.05 76.75 406.79 77.50
  C 392.71 80.93 388.56 93.28 388.42 106.20
  Q 388.29 118.64 388.52 131.77
  A 1.00 1.00 89.4 0 0 389.52 132.75
  C 393.69 132.75 415.75 133.59 417.54 132.00
  L 418.27 131.87
  A 0.64 0.58 86.3 0 0 418.76 131.26
  C 418.85 123.33 420.94 115.31 419.37 107.48
  C 418.13 101.29 425.28 101.21 428.87 102.90
  Q 428.60 116.19 428.75 118.75
  C 428.97 122.48 428.22 122.56 425.76 125.68
  Q 422.71 129.56 419.68 133.45
  Q 418.33 135.18 416.22 134.61
  C 413.15 133.78 409.45 134.56 406.68 134.42
  Q 397.46 133.93 387.33 134.57
  A 0.85 0.84 88.1 0 1 386.43 133.72
  Q 386.55 114.59 386.50 96.75
  Q 386.50 95.23 389.14 89.69
  C 391.90 83.92 397.17 79.32 401.51 74.67
  Q 404.52 71.45 407.71 69.73
  Q 411.58 67.64 415.72 66.14
  Q 419.07 64.93 423.35 64.86
  C 440.86 64.53 465.37 60.72 473.58 81.29
  Q 474.75 84.20 474.75 88.41
  Q 474.75 116.53 474.75 144.66
  C 474.75 152.46 467.55 157.59 464.56 162.06
  Q 461.27 166.99 456.56 169.56
  Q 440.62 178.28 431.19 184.44
  C 428.17 186.40 428.63 192.03 428.35 195.22
  A 0.96 0.95 4.4 0 0 429.24 196.25
  C 434.04 196.58 442.28 197.36 446.78 195.93
  A 1.80 1.07 -34.3 0 1 447.74 195.87
  C 448.49 196.09 448.94 196.50 449.80 196.50
  Q 461.78 196.50 473.87 196.50
  A 1.08 1.08 -89.2 0 1 474.95 197.61
  Q 474.62 210.28 474.75 222.50
  C 474.79 225.79 474.00 225.46 472.45 227.66
  Q 470.52 230.37 467.51 233.11
  Z
  M 426.57 199.23
  C 425.00 201.54 423.04 203.70 421.15 206.13
  Q 420.66 206.76 421.46 206.76
  C 435.86 206.66 449.92 207.11 464.20 206.94
  A 1.10 1.02 18.7 0 0 465.02 206.57
  L 471.39 199.21
  Q 472.17 198.31 470.97 198.31
  Q 451.47 198.31 431.50 197.96
  Q 430.85 197.95 430.23 198.10
  Q 429.75 198.22 429.27 198.14
  Q 427.51 197.84 426.57 199.23
  Z"
/>
<path fill="#393b47" d="
  M 341.43 150.63
  C 344.09 150.46 345.44 152.79 347.06 154.46
  Q 360.57 168.35 373.85 182.45
  A 0.68 0.67 -52.1 0 1 373.94 183.25
  Q 370.42 189.57 365.99 195.29
  A 1.05 1.05 17.3 0 1 365.19 195.71
  Q 351.22 196.34 343.00 196.00
  C 330.20 195.47 317.44 196.44 304.68 195.76
  A 1.30 1.30 1.7 0 0 303.31 197.05
  Q 303.21 210.06 303.24 223.06
  C 303.25 227.65 297.80 234.49 295.00 238.04
  A 1.45 1.44 -77.9 0 1 294.20 238.56
  Q 276.68 243.06 260.25 240.50
  C 224.99 235.00 195.59 207.72 190.62 171.47
  C 190.20 168.44 189.44 164.46 189.44 161.31
  C 189.44 141.79 194.84 125.41 205.75 110.01
  Q 212.77 100.12 217.94 94.16
  C 238.77 70.19 271.32 60.17 302.29 68.27
  A 1.24 1.22 7.2 0 1 303.22 69.44
  L 303.33 109.40
  A 1.60 1.56 90.0 0 0 304.89 111.00
  C 310.76 111.00 316.21 110.95 322.36 111.23
  C 339.03 111.99 356.25 111.34 372.64 111.49
  Q 373.96 111.51 373.16 112.56
  C 371.21 115.14 370.06 118.00 368.27 120.22
  Q 363.18 126.54 357.54 132.36
  C 351.78 138.29 346.68 143.94 340.91 149.45
  Q 339.55 150.75 341.43 150.63
  Z
  M 220.98 94.06
  Q 218.94 95.27 218.75 97.46
  C 205.14 111.72 195.07 128.58 192.54 148.50
  Q 188.17 183.20 210.04 209.98
  Q 228.32 231.93 256.33 237.62
  Q 274.72 241.04 292.51 237.00
  A 1.28 1.27 -6.6 0 0 293.50 235.76
  Q 293.52 224.86 293.65 213.79
  C 293.67 212.48 294.90 197.54 292.50 197.96
  L 292.21 196.50
  Q 294.30 195.10 293.85 192.49
  Q 293.77 192.02 293.90 191.52
  Q 294.29 190.05 292.98 190.41
  Q 276.07 195.05 260.19 187.81
  C 258.94 187.24 258.01 186.15 256.37 185.41
  C 249.77 182.48 241.58 170.98 239.07 164.35
  Q 233.34 149.14 238.56 133.53
  Q 238.69 132.60 238.46 131.75
  Q 242.66 125.22 245.69 123.19
  Q 268.67 107.76 293.74 119.72
  A 0.32 0.31 -77.6 0 0 294.18 119.43
  L 293.96 89.25
  C 293.96 87.18 294.73 82.37 293.71 80.75
  L 294.08 78.90
  Q 297.29 76.15 300.03 70.61
  A 0.60 0.59 20.3 0 0 299.64 69.77
  C 271.14 62.82 240.66 72.01 220.98 94.06
  Z
  M 296.76 122.22
  L 296.75 123.46
  C 295.61 123.94 296.01 151.54 296.06 154.69
  A 0.98 0.95 -2.3 0 0 297.10 155.62
  L 302.75 155.29
  Q 304.20 155.13 304.75 156.21
  Q 299.46 155.21 297.36 160.81
  A 0.52 0.52 10.7 0 0 297.84 161.51
  L 333.68 161.93
  A 1.20 1.15 22.2 0 0 334.54 161.59
  Q 337.59 158.54 340.10 153.79
  A 0.65 0.64 31.8 0 0 339.90 152.96
  Q 338.13 151.73 337.19 153.44
  Q 335.68 156.18 333.94 156.19
  L 316.50 156.21
  Q 316.38 155.54 317.00 155.29
  Q 324.35 155.40 331.69 154.94
  C 336.71 154.62 337.53 150.22 340.35 147.43
  Q 351.75 136.15 361.92 123.73
  Q 362.68 124.20 362.80 122.50
  Q 367.63 119.51 369.59 113.98
  A 0.37 0.37 10.3 0 0 369.25 113.49
  Q 358.13 113.17 347.00 113.30
  C 331.31 113.48 317.52 113.11 302.76 113.00
  A 1.04 1.03 18.7 0 0 301.94 113.40
  Q 298.95 117.30 296.76 122.22
  Z
  M 238.30 144.22
  C 235.89 174.77 263.77 196.78 293.09 188.45
  A 0.70 0.67 83.8 0 0 293.58 187.81
  C 293.85 177.67 293.72 167.88 294.10 157.40
  Q 294.59 143.41 294.06 129.41
  C 293.92 125.78 295.42 123.16 291.23 121.01
  C 277.73 114.08 263.33 115.39 250.26 122.62
  C 242.10 127.12 239.02 135.09 238.30 144.22
  Z
  M 361.53 191.53
  L 361.50 191.37
  A 1.11 1.03 19.3 0 0 361.22 190.84
  L 335.18 163.56
  A 0.99 0.91 66.9 0 0 334.49 163.25
  L 296.81 162.82
  A 0.52 0.51 -88.3 0 0 296.29 163.32
  Q 295.86 174.81 295.92 186.31
  C 295.94 190.16 292.48 195.66 300.50 194.25
  Q 304.87 193.48 313.00 193.56
  Q 337.72 193.80 362.44 193.69
  A 0.43 0.41 -6.3 0 0 362.87 193.19
  Q 362.64 192.23 361.70 191.75
  A 0.32 0.31 8.1 0 1 361.53 191.53
  Z"
/>
<path fill="#fcf4e6" d="
  M 575.50 74.21
  L 568.30 83.37
  A 0.84 0.83 -49.5 0 1 567.08 83.47
  Q 561.93 78.71 555.00 76.46
  Q 547.68 74.63 537.25 74.75
  Q 525.25 74.89 512.11 75.28
  Q 510.94 75.32 509.88 75.83
  Q 506.15 77.62 508.00 75.29
  C 514.92 68.23 521.44 66.35 531.86 66.06
  C 546.96 65.65 565.22 63.05 575.50 74.21
  Z"
/>
<path fill="#fcf5e8" d="
  M 466.00 77.21
  L 460.75 83.54
  Q 451.16 75.47 438.50 75.46
  C 431.17 75.17 416.54 74.48 406.75 76.04
  C 406.26 76.01 402.88 76.96 402.80 76.56
  A 1.23 0.71 -39.4 0 1 403.13 75.68
  Q 410.80 66.58 423.00 66.45
  Q 439.67 66.29 450.00 66.75
  Q 459.99 67.20 467.08 74.44
  A 0.76 0.59 40.5 0 1 467.25 75.27
  L 466.00 77.21
  Z"
/>
<path fill="#fcf4e6" d="
  M 294.08 78.90
  Q 253.74 69.49 220.98 94.06
  C 240.66 72.01 271.14 62.82 299.64 69.77
  A 0.60 0.59 20.3 0 1 300.03 70.61
  Q 297.29 76.15 294.08 78.90
  Z"
/>
<path fill="#393b47" d="
  M 51.59 237.77
  Q 46.58 237.88 40.89 237.70
  A 1.27 1.27 -3.0 0 1 39.68 236.61
  Q 34.80 200.64 29.72 166.04
  C 29.58 165.06 29.71 163.29 29.17 161.89
  Q 28.74 160.78 28.69 160.01
  C 28.15 151.79 26.13 142.47 25.23 135.65
  Q 23.97 126.17 22.33 116.74
  Q 19.40 99.80 17.32 82.74
  Q 17.12 81.07 15.90 80.05
  A 0.46 0.44 42.0 0 1 15.85 79.39
  Q 19.03 76.08 22.81 70.81
  C 24.55 68.39 26.61 69.27 28.92 69.23
  Q 46.20 68.93 63.06 69.49
  A 1.06 1.05 -2.5 0 1 64.08 70.41
  L 73.20 147.75
  A 1.37 1.04 -78.9 0 0 73.61 148.59
  C 75.03 149.73 74.75 147.00 74.81 146.35
  Q 76.12 132.81 77.50 119.28
  C 78.44 110.00 79.31 93.25 81.39 80.13
  Q 81.62 78.68 82.51 77.55
  L 87.97 70.68
  A 3.14 3.09 18.9 0 1 90.42 69.50
  Q 99.27 69.50 107.59 69.50
  C 108.71 69.50 110.39 70.43 111.14 68.78
  Q 111.40 68.20 111.66 68.69
  L 111.93 69.20
  A 0.83 0.59 71.9 0 0 112.56 69.67
  L 125.56 69.32
  Q 127.63 69.27 127.38 71.35
  C 121.56 121.42 114.50 170.78 108.37 220.54
  C 107.94 223.99 108.21 225.23 105.81 228.31
  Q 100.89 234.63 97.80 237.59
  A 1.24 1.23 -67.0 0 1 96.94 237.94
  C 81.83 237.96 66.69 237.44 51.59 237.77
  Z
  M 19.49 79.04
  Q 19.06 79.76 19.29 80.25
  Q 18.79 81.45 18.98 82.75
  Q 25.28 126.09 32.46 169.30
  C 35.07 187.84 38.23 206.42 40.18 225.04
  C 40.26 225.82 41.03 227.29 41.00 227.75
  Q 40.71 231.53 42.06 235.03
  A 1.29 0.94 83.6 0 0 42.69 235.72
  Q 43.40 235.98 43.81 235.45
  L 96.37 235.74
  A 1.37 1.35 -86.4 0 0 97.71 234.54
  L 105.96 169.50
  Q 110.06 139.61 116.44 85.94
  Q 116.78 83.03 116.46 81.50
  Q 116.55 80.15 117.25 79.04
  Q 121.20 76.03 123.69 71.75
  Q 123.94 71.32 123.44 71.32
  L 90.92 71.48
  A 2.39 1.94 14.9 0 0 89.16 72.27
  L 84.21 78.75
  Q 83.28 79.67 83.27 80.54
  Q 80.51 98.70 80.12 117.39
  Q 77.96 131.70 76.82 146.51
  C 76.64 148.89 75.60 150.82 75.34 153.22
  Q 72.54 178.88 70.05 204.81
  Q 69.37 205.04 69.04 205.75
  Q 69.16 204.16 68.50 198.50
  Q 65.37 171.50 62.25 144.50
  Q 61.81 140.69 60.73 138.61
  Q 57.67 111.45 54.12 84.67
  C 53.93 83.20 54.20 81.79 53.21 80.25
  Q 53.15 79.58 53.50 79.04
  L 53.96 79.00
  Q 54.14 80.30 55.22 79.47
  Q 58.93 76.63 60.14 71.95
  Q 58.03 70.60 55.76 70.89
  C 46.41 72.06 35.78 71.25 26.31 71.07
  A 1.31 1.25 23.8 0 0 25.43 71.39
  Q 21.64 74.73 19.49 79.04
  Z"
/>
<path fill="#393b47" d="
  M 133.24 236.66
  C 133.40 184.53 133.70 132.45 133.56 80.32
  A 1.75 1.68 62.3 0 1 133.83 79.39
  Q 137.35 73.95 141.96 69.41
  A 1.14 1.10 23.9 0 1 142.81 69.10
  Q 146.02 69.35 149.25 69.23
  Q 163.50 68.71 177.39 69.24
  A 0.89 0.89 1.0 0 1 178.25 70.13
  L 178.25 226.09
  A 2.48 2.46 -27.6 0 1 177.80 227.51
  Q 173.63 233.44 169.46 237.30
  A 2.61 2.55 -66.0 0 1 167.70 238.00
  L 134.51 237.94
  A 1.28 1.27 -90.0 0 1 133.24 236.66
  Z
  M 136.71 79.00
  Q 136.47 79.23 136.23 80.26
  C 134.93 81.58 135.62 128.42 135.64 134.00
  L 135.79 209.75
  Q 135.14 221.97 135.74 235.36
  A 0.69 0.69 88.3 0 0 136.44 236.02
  Q 151.75 235.75 166.09 235.92
  C 168.60 235.95 169.54 234.63 169.04 232.25
  L 169.97 232.08
  A 0.72 0.62 87.7 0 0 170.48 231.44
  Q 170.69 228.82 170.75 221.25
  Q 170.92 199.01 170.94 176.78
  C 170.94 176.35 170.56 175.84 170.57 175.38
  Q 171.05 146.86 170.82 118.33
  Q 170.81 117.92 170.86 117.29
  C 171.05 114.44 170.01 116.31 169.99 117.20
  Q 169.56 146.72 169.54 176.25
  L 169.04 172.75
  L 168.96 102.25
  Q 169.04 91.74 168.76 81.24
  C 168.74 80.40 168.36 79.93 167.50 79.96
  Q 167.92 79.58 168.00 79.04
  C 170.57 79.11 173.64 73.76 175.09 71.72
  Q 175.62 70.99 174.72 71.00
  L 143.56 71.28
  A 1.90 1.61 15.7 0 0 142.16 71.92
  L 136.71 79.00
  Z"
/>
<path fill="#fcf5e8" d="
  M 60.14 71.95
  L 53.96 79.00
  L 53.50 79.04
  L 19.49 79.04
  Q 21.64 74.73 25.43 71.39
  A 1.31 1.25 23.8 0 1 26.31 71.07
  C 35.78 71.25 46.41 72.06 55.76 70.89
  Q 58.03 70.60 60.14 71.95
  Z"
/>
<path fill="#fcf5e8" d="
  M 168.00 79.04
  L 136.71 79.00
  L 142.16 71.92
  A 1.90 1.61 15.7 0 1 143.56 71.28
  L 174.72 71.00
  Q 175.62 70.99 175.09 71.72
  C 173.64 73.76 170.57 79.11 168.00 79.04
  Z"
/>
<path fill="#fcf5e8" d="
  M 117.25 79.04
  L 84.21 78.75
  L 89.16 72.27
  A 2.39 1.94 14.9 0 1 90.92 71.48
  L 123.44 71.32
  Q 123.94 71.32 123.69 71.75
  Q 121.20 76.03 117.25 79.04
  Z"
/>
<path fill="#101211" d="
  M 60.14 71.95
  Q 58.93 76.63 55.22 79.47
  Q 54.14 80.30 53.96 79.00
  L 60.14 71.95
  Z"
/>
<path fill="#282c36" d="
  M 573.29 172.25
  Q 573.49 140.46 573.74 108.68
  C 573.75 106.70 574.25 104.40 573.54 102.00
  Q 574.35 98.40 572.54 95.25
  Q 567.62 82.29 554.50 77.71
  Q 554.29 76.82 555.00 76.46
  Q 561.93 78.71 567.08 83.47
  A 0.84 0.83 -49.5 0 0 568.30 83.37
  L 575.50 74.21
  Q 577.65 73.01 576.42 74.67
  Q 572.71 79.68 568.49 84.81
  A 0.64 0.63 44.6 0 0 568.50 85.61
  Q 574.60 92.97 575.24 102.50
  C 576.09 115.10 575.87 123.19 575.66 132.38
  C 575.38 144.93 575.83 157.91 574.80 170.37
  C 574.72 171.37 574.19 171.95 573.29 172.25
  Z"
/>
<path fill="#585155" fill-opacity="0.996" d="
  M 506.71 74.25
  L 508.00 75.29
  Q 506.15 77.62 509.88 75.83
  Q 510.94 75.32 512.11 75.28
  Q 525.25 74.89 537.25 74.75
  Q 547.68 74.63 555.00 76.46
  Q 554.29 76.82 554.50 77.71
  C 542.74 75.79 526.61 76.45 515.06 77.33
  C 497.52 78.66 491.83 93.82 491.69 109.07
  C 491.46 136.13 491.53 163.19 490.99 190.25
  C 490.71 204.71 489.59 217.85 499.69 226.81
  C 509.89 235.87 522.37 234.55 535.17 234.51
  C 549.81 234.46 559.58 234.33 568.50 221.71
  Q 569.01 222.54 570.00 222.79
  C 562.74 232.48 553.60 236.07 542.12 236.13
  C 522.50 236.23 496.06 239.08 490.07 213.84
  Q 488.98 209.24 489.25 195.09
  C 489.44 184.83 489.24 173.38 489.33 164.30
  Q 489.63 136.02 489.71 107.75
  C 489.76 93.26 496.87 83.95 506.71 74.25
  Z"
/>
<path fill="#585155" fill-opacity="0.996" d="
  M 438.50 75.46
  Q 437.89 75.60 437.97 76.68
  Q 422.40 76.20 406.79 77.50
  Q 407.05 76.75 406.75 76.04
  C 416.54 74.48 431.17 75.17 438.50 75.46
  Z"
/>
<path fill="#101211" d="
  M 438.50 75.46
  Q 451.16 75.47 460.75 83.54
  Q 460.71 84.63 461.03 85.17
  C 461.37 85.62 467.55 93.38 462.79 90.25
  Q 454.75 75.98 437.97 76.68
  Q 437.89 75.60 438.50 75.46
  Z"
/>
<path fill="#7b5b4b" d="
  M 294.08 78.90
  L 293.71 80.75
  L 293.54 80.75
  Q 275.54 75.55 257.19 79.32
  Q 235.85 83.94 218.75 97.46
  Q 218.94 95.27 220.98 94.06
  Q 253.74 69.49 294.08 78.90
  Z"
/>
<path fill="#fffffb" d="
  M 437.97 76.68
  Q 454.75 75.98 462.79 90.25
  L 464.54 94.25
  L 465.21 98.50
  L 465.04 146.25
  L 464.54 155.50
  C 462.48 165.67 456.99 167.80 447.06 173.48
  Q 437.82 178.77 434.44 180.44
  C 430.23 182.51 421.38 186.77 419.08 190.83
  C 416.81 194.83 417.28 203.26 417.56 208.08
  A 0.73 0.71 -1.3 0 0 418.28 208.75
  L 463.99 209.24
  A 0.55 0.52 -0.5 0 1 464.54 209.75
  L 464.79 219.50
  L 464.31 233.87
  A 0.40 0.39 0.7 0 1 463.91 234.25
  Q 427.94 234.72 391.87 234.26
  C 387.86 234.21 387.94 234.69 388.01 230.47
  C 388.22 219.19 388.45 207.85 388.13 196.57
  Q 387.74 182.66 396.40 173.22
  Q 399.91 169.39 409.37 163.89
  Q 422.87 156.04 427.56 153.56
  C 431.51 151.48 433.67 149.74 433.86 144.94
  C 434.34 132.18 433.89 120.41 434.00 106.50
  Q 434.04 100.87 429.39 100.47
  C 425.23 100.11 417.48 99.40 417.59 105.91
  Q 417.83 118.95 417.54 132.00
  C 415.75 133.59 393.69 132.75 389.52 132.75
  A 1.00 1.00 89.4 0 1 388.52 131.77
  Q 388.29 118.64 388.42 106.20
  C 388.56 93.28 392.71 80.93 406.79 77.50
  Q 422.40 76.20 437.97 76.68
  Z"
/>
<path fill="#fffffb" d="
  M 554.50 77.71
  Q 567.62 82.29 572.54 95.25
  L 573.54 102.00
  C 574.25 104.40 573.75 106.70 573.74 108.68
  Q 573.49 140.46 573.29 172.25
  Q 573.03 201.72 572.25 211.25
  Q 571.94 215.07 568.50 221.71
  C 559.58 234.33 549.81 234.46 535.17 234.51
  C 522.37 234.55 509.89 235.87 499.69 226.81
  C 489.59 217.85 490.71 204.71 490.99 190.25
  C 491.53 163.19 491.46 136.13 491.69 109.07
  C 491.83 93.82 497.52 78.66 515.06 77.33
  C 526.61 76.45 542.74 75.79 554.50 77.71
  Z
  M 522.54 153.00
  Q 522.59 175.85 522.29 198.70
  Q 522.22 204.02 522.40 204.78
  C 524.22 212.40 540.96 211.89 542.00 204.00
  Q 542.61 199.40 542.21 178.00
  L 543.06 105.24
  Q 541.08 100.56 536.25 100.52
  C 529.48 100.46 523.15 99.45 522.98 108.50
  Q 522.57 130.75 522.54 153.00
  Z"
/>
<path fill="#101211" d="
  M 466.00 77.21
  L 466.73 77.72
  A 0.45 0.37 37.0 0 1 466.87 78.31
  L 461.03 85.17
  Q 460.71 84.63 460.75 83.54
  L 466.00 77.21
  Z"
/>
<path fill="#ffd742" d="
  M 293.54 80.75
  L 293.96 89.25
  L 294.18 119.43
  A 0.32 0.31 -77.6 0 1 293.74 119.72
  Q 268.67 107.76 245.69 123.19
  Q 242.66 125.22 238.46 131.75
  C 225.90 146.31 225.34 166.97 235.62 182.89
  Q 223.56 195.93 211.69 208.69
  Q 210.78 209.66 210.04 209.98
  Q 188.17 183.20 192.54 148.50
  L 193.02 148.50
  A 1.11 1.09 -68.3 0 0 193.83 148.14
  Q 222.42 117.19 251.36 86.58
  C 253.64 84.18 255.86 83.06 257.19 79.32
  Q 275.54 75.55 293.54 80.75
  Z"
/>
<path fill="#57546a" d="
  M 53.50 79.04
  Q 53.15 79.58 53.21 80.25
  Q 51.67 78.59 50.18 79.74
  A 1.74 1.26 -57.7 0 1 49.30 80.09
  Q 34.30 80.72 19.29 80.25
  Q 19.06 79.76 19.49 79.04
  L 53.50 79.04
  Z"
/>
<path fill="#57546a" d="
  M 84.21 78.75
  L 117.25 79.04
  Q 116.55 80.15 116.46 81.50
  Q 115.32 80.16 114.00 81.00
  Q 98.34 79.77 83.27 80.54
  Q 83.28 79.67 84.21 78.75
  Z"
/>
<path fill="#845261" d="
  M 168.00 79.04
  Q 167.92 79.58 167.50 79.96
  L 136.23 80.26
  Q 136.47 79.23 136.71 79.00
  L 168.00 79.04
  Z"
/>
<path fill="#605bad" d="
  M 53.21 80.25
  C 54.20 81.79 53.93 83.20 54.12 84.67
  Q 57.67 111.45 60.73 138.61
  Q 48.38 152.97 35.42 166.67
  Q 34.09 168.08 32.46 169.30
  Q 25.28 126.09 18.98 82.75
  Q 18.79 81.45 19.29 80.25
  Q 34.30 80.72 49.30 80.09
  A 1.74 1.26 -57.7 0 0 50.18 79.74
  Q 51.67 78.59 53.21 80.25
  Z"
/>
<path fill="#f78546" d="
  M 257.19 79.32
  C 255.86 83.06 253.64 84.18 251.36 86.58
  Q 222.42 117.19 193.83 148.14
  A 1.11 1.09 -68.3 0 1 193.02 148.50
  L 192.54 148.50
  C 195.07 128.58 205.14 111.72 218.75 97.46
  Q 235.85 83.94 257.19 79.32
  Z"
/>
<path fill="#ea558c" d="
  M 167.50 79.96
  C 168.36 79.93 168.74 80.40 168.76 81.24
  Q 169.04 91.74 168.96 102.25
  C 166.81 100.01 161.76 106.76 160.56 108.31
  Q 156.00 114.24 137.40 133.40
  Q 136.78 134.04 135.64 134.00
  C 135.62 128.42 134.93 81.58 136.23 80.26
  L 167.50 79.96
  Z"
/>
<path fill="#605bad" d="
  M 114.00 81.00
  Q 97.85 99.95 80.12 117.39
  Q 80.51 98.70 83.27 80.54
  Q 98.34 79.77 114.00 81.00
  Z"
/>
<path fill="#ea558c" d="
  M 116.46 81.50
  Q 116.78 83.03 116.44 85.94
  Q 110.06 139.61 105.96 169.50
  Q 103.92 168.86 102.46 170.45
  Q 86.54 187.84 70.05 204.81
  Q 72.54 178.88 75.34 153.22
  C 75.60 150.82 76.64 148.89 76.82 146.51
  Q 77.96 131.70 80.12 117.39
  Q 97.85 99.95 114.00 81.00
  Q 115.32 80.16 116.46 81.50
  Z"
/>
<path fill="#8fb850" d="
  M 293.54 80.75
  L 293.71 80.75
  C 294.73 82.37 293.96 87.18 293.96 89.25
  L 293.54 80.75
  Z"
/>
<path fill="#7d8c61" d="
  M 464.54 94.25
  Q 465.62 96.22 465.21 98.50
  L 464.54 94.25
  Z"
/>
<path fill="#7d8c61" d="
  M 572.54 95.25
  Q 574.35 98.40 573.54 102.00
  L 572.54 95.25
  Z"
/>
<path fill="#2d2f3b" d="
  M 464.79 219.50
  C 465.17 217.57 464.20 214.18 466.51 213.38
  A 0.40 0.37 80.1 0 1 467.00 213.75
  L 467.51 233.11
  Q 467.31 234.67 465.81 235.62
  Q 464.82 236.25 463.04 236.25
  Q 426.45 236.25 389.86 236.25
  C 387.03 236.25 385.79 236.70 385.75 233.00
  Q 385.59 216.17 385.97 199.35
  Q 385.98 198.72 386.38 196.72
  C 386.93 193.88 386.29 190.71 386.72 187.66
  C 387.61 181.47 391.27 175.71 395.35 171.14
  Q 398.02 168.17 402.90 165.33
  Q 414.91 158.35 427.06 151.61
  C 430.96 149.45 431.49 147.73 431.50 143.50
  Q 431.55 124.25 431.44 105.01
  C 431.43 103.56 430.49 102.01 428.87 102.90
  C 425.28 101.21 418.13 101.29 419.37 107.48
  C 420.94 115.31 418.85 123.33 418.76 131.26
  A 0.64 0.58 86.3 0 1 418.27 131.87
  L 417.54 132.00
  Q 417.83 118.95 417.59 105.91
  C 417.48 99.40 425.23 100.11 429.39 100.47
  Q 434.04 100.87 434.00 106.50
  C 433.89 120.41 434.34 132.18 433.86 144.94
  C 433.67 149.74 431.51 151.48 427.56 153.56
  Q 422.87 156.04 409.37 163.89
  Q 399.91 169.39 396.40 173.22
  Q 387.74 182.66 388.13 196.57
  C 388.45 207.85 388.22 219.19 388.01 230.47
  C 387.94 234.69 387.86 234.21 391.87 234.26
  Q 427.94 234.72 463.91 234.25
  A 0.40 0.39 0.7 0 0 464.31 233.87
  L 464.79 219.50
  Z"
/>
<path fill="#393b47" d="
  M 543.06 105.24
  Q 541.73 106.02 541.29 107.00
  Q 540.73 101.60 535.35 102.31
  A 0.69 0.69 -3.8 0 0 534.75 102.99
  C 534.60 131.93 534.04 160.87 534.00 189.80
  C 534.00 194.36 535.05 197.33 539.67 198.27
  C 541.34 209.48 537.03 207.74 528.84 208.15
  C 522.86 208.45 523.97 200.69 524.03 197.05
  C 524.30 181.25 523.55 168.53 524.75 155.75
  Q 525.16 151.34 524.66 148.55
  A 0.36 0.33 67.8 0 0 524.13 148.30
  C 523.49 148.78 523.12 151.89 522.54 153.00
  Q 522.57 130.75 522.98 108.50
  C 523.15 99.45 529.48 100.46 536.25 100.52
  Q 541.08 100.56 543.06 105.24
  Z"
/>
<path fill="#f78546" d="
  M 168.96 102.25
  L 169.04 172.75
  L 168.46 177.25
  Q 168.54 176.27 167.96 175.92
  A 0.71 0.54 -52.0 0 0 167.17 176.13
  Q 152.70 192.65 137.81 208.81
  Q 136.82 209.89 135.79 209.75
  L 135.64 134.00
  Q 136.78 134.04 137.40 133.40
  Q 156.00 114.24 160.56 108.31
  C 161.76 106.76 166.81 100.01 168.96 102.25
  Z"
/>
<path fill="#544f46" d="
  M 543.06 105.24
  L 542.21 178.00
  Q 541.25 178.26 540.29 178.00
  Q 540.85 171.76 540.81 165.50
  Q 540.61 136.25 541.29 107.00
  Q 541.73 106.02 543.06 105.24
  Z"
/>
<path fill="#fcf4e6" d="
  M 362.80 122.50
  L 296.76 122.22
  Q 298.95 117.30 301.94 113.40
  A 1.04 1.03 18.7 0 1 302.76 113.00
  C 317.52 113.11 331.31 113.48 347.00 113.30
  Q 358.13 113.17 369.25 113.49
  A 0.37 0.37 10.3 0 1 369.59 113.98
  Q 367.63 119.51 362.80 122.50
  Z"
/>
<path fill="#243044" d="
  M 169.04 232.25
  L 169.04 180.00
  L 169.54 176.25
  Q 169.56 146.72 169.99 117.20
  C 170.01 116.31 171.05 114.44 170.86 117.29
  Q 170.81 117.92 170.82 118.33
  Q 171.05 146.86 170.57 175.38
  C 170.56 175.84 170.94 176.35 170.94 176.78
  Q 170.92 199.01 170.75 221.25
  Q 170.69 228.82 170.48 231.44
  A 0.72 0.62 87.7 0 1 169.97 232.08
  L 169.04 232.25
  Z"
/>
<path fill="#57546a" d="
  M 296.76 122.22
  L 362.80 122.50
  Q 362.68 124.20 361.92 123.73
  L 296.75 123.46
  L 296.76 122.22
  Z"
/>
<path fill="#5d65b8" d="
  M 296.75 123.46
  L 361.92 123.73
  Q 351.75 136.15 340.35 147.43
  C 337.53 150.22 336.71 154.62 331.69 154.94
  Q 324.35 155.40 317.00 155.29
  L 302.75 155.29
  L 297.10 155.62
  A 0.98 0.95 -2.3 0 1 296.06 154.69
  C 296.01 151.54 295.61 123.94 296.75 123.46
  Z"
/>
<path fill="#544f46" d="
  M 238.46 131.75
  Q 238.69 132.60 238.56 133.53
  C 237.77 133.18 233.08 143.22 232.77 144.14
  C 220.16 180.74 257.39 214.14 292.21 196.50
  L 292.50 197.96
  Q 290.72 198.30 289.65 199.39
  C 268.98 206.87 248.43 201.14 235.62 182.89
  C 225.34 166.97 225.90 146.31 238.46 131.75
  Z"
/>
<path fill="#fcf4e6" d="
  M 238.56 133.53
  Q 233.34 149.14 239.07 164.35
  C 241.58 170.98 249.77 182.48 256.37 185.41
  C 258.01 186.15 258.94 187.24 260.19 187.81
  Q 276.07 195.05 292.98 190.41
  Q 294.29 190.05 293.90 191.52
  Q 293.77 192.02 293.85 192.49
  Q 294.30 195.10 292.21 196.50
  C 257.39 214.14 220.16 180.74 232.77 144.14
  C 233.08 143.22 237.77 133.18 238.56 133.53
  Z"
/>
<path fill="#ea558c" d="
  M 60.73 138.61
  Q 61.81 140.69 62.25 144.50
  Q 65.37 171.50 68.50 198.50
  Q 69.16 204.16 69.04 205.75
  Q 62.86 213.92 56.94 219.69
  Q 49.14 227.28 43.81 235.45
  Q 43.40 235.98 42.69 235.72
  A 1.29 0.94 83.6 0 1 42.06 235.03
  Q 40.71 231.53 41.00 227.75
  C 41.03 227.29 40.26 225.82 40.18 225.04
  C 38.23 206.42 35.07 187.84 32.46 169.30
  Q 34.09 168.08 35.42 166.67
  Q 48.38 152.97 60.73 138.61
  Z"
/>
<path fill="#7d8c61" d="
  M 465.04 146.25
  Q 466.03 150.94 464.54 155.50
  L 465.04 146.25
  Z"
/>
<path fill="#282c36" d="
  M 539.67 198.27
  Q 540.56 188.10 540.29 178.00
  Q 541.25 178.26 542.21 178.00
  Q 542.61 199.40 542.00 204.00
  C 540.96 211.89 524.22 212.40 522.40 204.78
  Q 522.22 204.02 522.29 198.70
  Q 522.59 175.85 522.54 153.00
  C 523.12 151.89 523.49 148.78 524.13 148.30
  A 0.36 0.33 67.8 0 1 524.66 148.55
  Q 525.16 151.34 524.75 155.75
  C 523.55 168.53 524.30 181.25 524.03 197.05
  C 523.97 200.69 522.86 208.45 528.84 208.15
  C 537.03 207.74 541.34 209.48 539.67 198.27
  Z"
/>
<path fill="#fef9ed" d="
  M 304.75 156.21
  L 316.50 156.21
  L 333.94 156.19
  Q 335.68 156.18 337.19 153.44
  Q 338.13 151.73 339.90 152.96
  A 0.65 0.64 31.8 0 1 340.10 153.79
  Q 337.59 158.54 334.54 161.59
  A 1.20 1.15 22.2 0 1 333.68 161.93
  L 297.84 161.51
  A 0.52 0.52 10.7 0 1 297.36 160.81
  Q 299.46 155.21 304.75 156.21
  Z"
/>
<path fill="#57546a" d="
  M 302.75 155.29
  L 317.00 155.29
  Q 316.38 155.54 316.50 156.21
  L 304.75 156.21
  Q 304.20 155.13 302.75 155.29
  Z"
/>
<path fill="#fc604c" d="
  M 361.70 191.75
  Q 362.64 192.23 362.87 193.19
  A 0.43 0.41 -6.3 0 1 362.44 193.69
  Q 337.72 193.80 313.00 193.56
  Q 304.87 193.48 300.50 194.25
  C 292.48 195.66 295.94 190.16 295.92 186.31
  Q 295.86 174.81 296.29 163.32
  A 0.52 0.51 -88.3 0 1 296.81 162.82
  L 334.49 163.25
  A 0.99 0.91 66.9 0 1 335.18 163.56
  L 361.22 190.84
  A 1.11 1.03 19.3 0 1 361.50 191.37
  L 361.53 191.53
  A 0.32 0.31 8.1 0 0 361.70 191.75
  Z"
/>
<path fill="#f78546" d="
  M 105.96 169.50
  L 97.71 234.54
  A 1.37 1.35 -86.4 0 1 96.37 235.74
  L 43.81 235.45
  Q 49.14 227.28 56.94 219.69
  Q 62.86 213.92 69.04 205.75
  Q 69.37 205.04 70.05 204.81
  Q 86.54 187.84 102.46 170.45
  Q 103.92 168.86 105.96 169.50
  Z"
/>
<path fill="#845261" d="
  M 169.04 172.75
  L 169.54 176.25
  L 169.04 180.00
  L 168.46 177.25
  L 169.04 172.75
  Z"
/>
<path fill="#ffd742" d="
  M 168.46 177.25
  L 169.04 180.00
  L 169.04 232.25
  C 169.54 234.63 168.60 235.95 166.09 235.92
  Q 151.75 235.75 136.44 236.02
  A 0.69 0.69 88.3 0 1 135.74 235.36
  Q 135.14 221.97 135.79 209.75
  Q 136.82 209.89 137.81 208.81
  Q 152.70 192.65 167.17 176.13
  A 0.71 0.54 -52.0 0 1 167.96 175.92
  Q 168.54 176.27 168.46 177.25
  Z"
/>
<path fill="#8fb850" d="
  M 235.62 182.89
  C 248.43 201.14 268.98 206.87 289.65 199.39
  Q 287.17 202.98 282.44 207.94
  Q 270.69 220.27 256.33 237.62
  Q 228.32 231.93 210.04 209.98
  Q 210.78 209.66 211.69 208.69
  Q 223.56 195.93 235.62 182.89
  Z"
/>
<path fill="#7d8c61" d="
  M 292.50 197.96
  C 294.90 197.54 293.67 212.48 293.65 213.79
  Q 293.52 224.86 293.50 235.76
  A 1.28 1.27 -6.6 0 1 292.51 237.00
  Q 274.72 241.04 256.33 237.62
  Q 270.69 220.27 282.44 207.94
  Q 287.17 202.98 289.65 199.39
  Q 290.72 198.30 292.50 197.96
  Z"
/>
<path fill="#fcf5e8" d="
  M 426.57 199.23
  Q 427.51 197.84 429.27 198.14
  Q 429.75 198.22 430.23 198.10
  Q 430.85 197.95 431.50 197.96
  Q 451.47 198.31 470.97 198.31
  Q 472.17 198.31 471.39 199.21
  L 465.02 206.57
  A 1.10 1.02 18.7 0 1 464.20 206.94
  C 449.92 207.11 435.86 206.66 421.46 206.76
  Q 420.66 206.76 421.15 206.13
  C 423.04 203.70 425.00 201.54 426.57 199.23
  Z"
/>
</svg>
