<?xml version="1.0" encoding="UTF-8" standalone="no"?>
<!DOCTYPE svg PUBLIC "-//W3C//DTD SVG 1.1//EN" "http://www.w3.org/Graphics/SVG/1.1/DTD/svg11.dtd">
<svg xmlns="http://www.w3.org/2000/svg" version="1.1" viewBox="0 0 600 167">
<path fill="#e80000" d="
  M 555.06 64.71
  L 581.96 64.96
  A 1.15 1.13 -3.4 0 1 583.09 65.94
  Q 583.60 69.89 583.00 74.45
  A 0.56 0.56 3.4 0 1 582.44 74.94
  L 545.62 75.00
  A 0.88 0.88 89.3 0 1 544.74 74.14
  Q 544.69 71.70 544.83 69.10
  C 545.24 61.63 544.29 53.48 554.68 52.95
  Q 557.06 52.83 559.43 53.11
  C 576.02 55.04 579.89 27.03 558.99 26.99
  Q 546.56 26.97 533.57 27.07
  A 0.53 0.50 0.5 0 1 533.04 26.56
  L 533.15 17.68
  A 0.56 0.52 -0.6 0 1 533.69 17.17
  Q 545.97 16.86 558.25 17.00
  Q 564.16 17.07 566.86 18.02
  C 586.88 25.07 588.78 51.03 570.10 60.82
  C 565.74 63.10 561.65 63.24 556.75 63.00
  Q 555.19 62.92 554.70 64.20
  A 0.39 0.38 10.6 0 0 555.06 64.71
  Z"
/>
<path fill="#e80000" d="
  M 542.54 76.18
  A 0.87 0.86 -1.4 0 0 543.41 77.00
  L 582.43 77.06
  A 0.59 0.58 -3.9 0 1 583.01 77.56
  Q 583.60 82.04 583.08 86.37
  A 0.72 0.71 3.1 0 1 582.37 87.00
  L 533.56 87.00
  A 0.56 0.56 -89.8 0 1 533.00 86.44
  C 533.00 63.97 527.72 39.37 560.26 40.97
  A 1.01 0.89 18.3 0 0 561.08 40.62
  Q 562.10 39.26 559.75 39.25
  Q 546.71 39.14 533.68 38.82
  A 0.55 0.50 0.6 0 1 533.14 38.32
  L 533.14 29.69
  A 0.57 0.52 -1.1 0 1 533.69 29.17
  Q 546.50 28.86 559.32 29.01
  Q 563.55 29.06 565.79 30.38
  C 572.22 34.14 572.63 42.93 567.56 48.06
  C 561.90 53.80 555.51 48.90 548.84 52.17
  C 540.80 56.11 542.26 68.80 542.54 76.18
  Z"
/>
<path fill="#000000" d="
  M 83.37 38.35
  Q 86.34 39.64 86.35 42.75
  Q 86.54 91.37 86.44 140.00
  C 86.43 144.64 84.83 145.00 80.77 145.00
  Q 51.13 145.00 20.80 145.00
  A 2.80 2.80 -14.5 0 1 18.35 143.56
  Q 17.29 141.64 17.30 139.00
  Q 17.50 91.37 17.45 43.75
  Q 17.45 37.98 23.25 37.94
  Q 51.75 37.75 80.46 37.75
  Q 81.97 37.75 83.37 38.35
  Z
  M 75.81 54.66
  C 75.64 48.87 72.09 46.25 66.50 46.43
  C 51.90 46.89 40.82 46.12 34.50 46.75
  C 29.63 47.23 28.27 51.05 28.21 55.63
  Q 27.67 92.27 28.22 128.90
  C 28.31 135.21 31.63 137.00 37.71 136.99
  C 43.78 136.98 49.93 136.84 56.00 137.14
  C 61.80 137.43 63.51 133.94 63.48 128.55
  Q 63.36 111.16 63.69 93.78
  C 63.82 86.76 67.98 83.34 74.85 82.30
  A 1.33 1.33 -4.1 0 0 75.98 81.00
  Q 76.16 67.18 75.81 54.66
  Z"
/>
<path fill="#000000" d="
  M 146.50 37.75
  C 158.83 37.75 168.16 49.52 168.19 61.50
  Q 168.24 87.45 168.25 113.40
  Q 168.25 126.53 166.69 130.93
  C 163.99 138.55 156.90 144.89 148.21 144.97
  Q 123.98 145.20 99.76 144.76
  A 1.33 1.15 -18.6 0 1 98.88 144.40
  Q 97.18 142.66 97.19 140.00
  Q 97.25 94.61 97.25 49.21
  C 97.25 38.53 97.67 37.75 108.17 37.75
  Q 127.34 37.75 146.50 37.75
  Z
  M 157.32 59.00
  C 157.24 43.15 137.09 46.50 127.50 46.51
  C 122.50 46.51 120.53 49.15 120.46 54.07
  Q 119.91 92.17 120.47 130.28
  C 120.57 137.49 125.49 137.00 131.55 137.00
  C 145.13 137.00 157.51 139.49 157.50 121.09
  Q 157.49 90.04 157.32 59.00
  Z"
/>
<path fill="#000000" d="
  M 187.80 73.77
  C 187.84 80.52 202.87 90.41 208.33 94.03
  A 1.12 1.12 -44.4 0 0 209.56 94.04
  Q 220.56 86.99 228.95 78.18
  Q 230.25 76.81 230.25 74.92
  Q 230.25 59.88 230.25 44.50
  Q 230.25 41.25 231.31 39.25
  A 1.51 1.38 0.1 0 1 232.02 38.60
  C 238.51 35.76 239.25 41.04 239.25 45.82
  Q 239.25 61.04 239.25 76.25
  C 239.25 80.45 239.59 82.54 236.47 85.69
  C 230.80 91.41 224.31 95.70 220.65 101.82
  Q 219.50 103.75 219.50 106.00
  Q 219.50 124.62 219.50 142.00
  Q 219.50 145.34 216.49 145.25
  Q 208.50 145.00 200.53 145.00
  Q 198.48 145.00 198.50 142.95
  Q 198.68 124.34 198.30 105.92
  C 198.06 94.27 178.58 89.93 178.63 78.75
  Q 178.70 61.61 178.80 44.47
  C 178.85 35.47 187.77 35.51 187.75 43.75
  Q 187.71 58.76 187.80 73.77
  Z"
/>
<path fill="#000000" d="
  M 261.00 96.25
  C 255.32 96.66 249.86 95.03 249.83 88.25
  Q 249.75 66.00 249.75 43.75
  Q 249.75 37.79 256.00 37.78
  Q 279.87 37.75 303.75 37.66
  Q 309.69 37.64 309.79 43.50
  Q 309.98 54.13 310.00 64.75
  C 310.01 74.03 299.09 73.21 299.35 64.75
  C 299.55 57.95 302.15 46.34 291.50 46.39
  Q 280.80 46.44 270.09 46.53
  C 264.43 46.58 260.07 47.55 260.38 54.03
  C 260.78 62.14 260.50 70.41 260.50 78.54
  C 260.50 83.98 263.76 85.93 269.00 85.50
  Q 274.46 85.06 300.93 85.68
  C 307.66 85.83 309.99 88.53 310.00 94.95
  Q 310.04 117.15 309.95 139.34
  C 309.93 144.65 308.72 145.00 303.87 145.00
  Q 280.09 145.00 256.31 145.00
  C 253.17 145.00 250.26 145.52 249.94 141.31
  Q 249.57 136.51 249.72 120.67
  C 249.82 110.49 255.29 112.17 262.99 112.24
  Q 267.16 112.27 268.78 113.35
  C 274.78 117.34 266.96 132.96 274.30 136.34
  C 276.94 137.55 292.49 137.57 294.89 135.96
  Q 297.42 134.25 297.50 130.25
  Q 297.85 112.42 297.57 103.07
  C 297.47 99.43 295.64 96.56 291.83 96.46
  Q 266.90 95.83 261.00 96.25
  Z"
/>
<path fill="#000000" d="
  M 321.75 40.11
  Q 323.40 37.77 326.50 37.77
  Q 350.37 37.75 374.25 37.75
  C 379.67 37.75 381.00 40.05 381.00 45.25
  C 381.00 50.24 382.23 65.40 380.03 69.16
  C 378.23 72.24 372.37 71.99 370.94 68.29
  C 368.74 62.59 373.56 50.78 367.19 47.48
  Q 365.31 46.50 360.15 46.50
  Q 349.20 46.50 338.25 46.50
  C 333.13 46.50 331.50 49.81 331.50 54.60
  Q 331.50 66.56 331.50 78.51
  C 331.50 82.68 333.55 85.50 337.80 85.50
  Q 353.40 85.50 369.00 85.50
  C 375.09 85.50 380.91 86.00 380.94 93.75
  Q 381.05 117.25 381.00 140.75
  C 380.99 143.54 379.70 144.93 376.80 144.94
  Q 351.34 145.05 324.05 145.00
  A 2.69 2.65 -18.2 0 1 321.94 143.95
  C 319.59 140.84 320.75 123.85 320.75 119.17
  C 320.75 114.98 322.11 112.46 326.50 112.36
  C 329.87 112.29 337.96 111.25 340.40 113.75
  C 346.46 119.93 335.02 137.74 350.31 137.11
  C 357.76 136.81 368.50 140.25 368.50 128.96
  Q 368.50 116.23 368.50 103.50
  C 368.50 98.39 366.33 96.55 361.23 96.43
  Q 342.02 95.99 330.00 96.25
  Q 320.89 96.45 320.85 87.50
  Q 320.75 65.38 320.75 43.24
  Q 320.75 41.51 321.75 40.11
  Z"
/>
<path fill="#000000" d="
  M 402.31 56.56
  Q 402.11 69.79 402.50 79.25
  C 402.75 85.34 405.41 87.26 411.42 87.23
  Q 429.19 87.13 445.70 87.53
  Q 447.92 87.58 448.25 89.78
  Q 448.82 93.65 447.55 95.60
  A 1.06 0.89 12.6 0 1 446.74 96.02
  Q 438.24 96.31 423.00 96.25
  C 415.41 96.22 414.75 101.29 414.75 107.78
  Q 414.75 118.14 414.75 128.50
  C 414.75 147.18 449.58 127.84 448.46 143.75
  A 1.34 1.33 -88.2 0 1 447.13 145.00
  L 395.42 144.94
  Q 391.75 144.94 391.75 141.26
  Q 391.75 92.63 391.68 44.00
  C 391.67 38.24 395.39 37.75 400.34 37.75
  Q 422.98 37.75 446.57 37.75
  A 1.76 1.75 -5.1 0 1 448.30 39.19
  Q 448.99 42.95 448.25 46.45
  Q 447.85 48.29 445.98 48.27
  Q 428.07 48.09 411.59 48.43
  C 405.79 48.54 402.40 50.50 402.31 56.56
  Z"
/>
<path fill="#000000" d="
  M 468.76 77.10
  C 473.11 83.74 482.27 89.81 488.83 94.22
  A 0.77 0.76 45.3 0 0 489.67 94.23
  C 495.35 90.48 504.75 84.16 509.33 77.48
  Q 510.44 75.86 510.45 73.58
  Q 510.54 58.57 510.50 42.33
  A 4.82 4.79 61.8 0 1 511.30 39.64
  Q 513.58 36.19 517.66 38.70
  A 2.80 2.80 15.7 0 1 519.00 41.09
  Q 519.00 58.87 519.00 76.52
  C 519.00 81.87 519.58 83.65 515.81 86.81
  Q 508.68 92.79 502.30 99.58
  Q 500.04 101.98 499.97 105.28
  Q 499.58 122.33 499.74 140.86
  C 499.77 143.48 500.24 145.00 496.75 145.00
  Q 488.75 145.00 480.73 145.00
  Q 478.78 145.00 478.73 143.04
  Q 478.34 124.48 478.48 105.27
  C 478.53 98.90 465.62 89.54 461.00 84.99
  Q 459.25 83.27 459.19 80.82
  Q 458.70 62.01 459.19 43.22
  C 459.29 39.48 461.19 36.55 465.26 38.15
  Q 468.00 39.22 468.00 42.16
  L 468.00 74.57
  A 4.59 4.58 -61.8 0 0 468.76 77.10
  Z"
/>
</svg>
