<?xml version="1.0" encoding="UTF-8" standalone="no"?>
<!DOCTYPE svg PUBLIC "-//W3C//DTD SVG 1.1//EN" "http://www.w3.org/Graphics/SVG/1.1/DTD/svg11.dtd">
<svg xmlns="http://www.w3.org/2000/svg" version="1.1" viewBox="0 0 600 300">
<path fill="#000000" d="
  M 263.06 0.00
  L 339.81 0.00
  L 376.09 37.20
  A 1.28 1.24 23.1 0 1 376.45 38.05
  L 376.50 50.03
  A 0.54 0.53 -0.0 0 1 375.96 50.56
  L 336.24 50.50
  A 0.79 0.75 -11.5 0 1 335.53 50.06
  L 327.33 32.75
  A 1.78 1.75 77.2 0 0 325.76 31.74
  L 274.15 31.56
  A 0.95 0.94 12.1 0 0 273.29 32.11
  L 239.39 107.24
  A 0.68 0.67 12.1 0 0 240.01 108.19
  L 362.07 108.00
  A 0.68 0.68 0.0 0 0 362.75 107.32
  L 362.81 91.07
  A 0.51 0.50 -90.0 0 1 363.31 90.56
  L 430.09 90.50
  A 1.65 1.61 66.7 0 1 431.23 90.97
  L 491.82 151.70
  A 0.86 0.86 41.5 0 1 491.89 152.84
  C 486.83 159.20 481.66 166.54 474.98 171.00
  Q 459.83 181.12 444.54 191.04
  C 442.48 192.38 440.97 192.02 438.64 191.99
  Q 396.07 191.49 353.51 191.89
  C 290.63 192.49 223.14 191.21 165.00 192.00
  C 162.15 192.04 161.14 192.16 158.69 190.52
  Q 142.48 179.61 126.18 168.83
  C 124.09 167.45 123.09 165.80 121.58 163.90
  Q 116.51 157.53 111.05 150.54
  A 0.48 0.48 49.9 0 1 111.10 149.91
  L 263.06 0.00
  Z
  M 485.41 152.40
  C 467.15 133.26 448.31 114.55 429.60 95.85
  A 1.20 1.18 67.2 0 0 428.76 95.50
  L 366.88 95.32
  A 0.62 0.62 -14.2 0 0 366.33 96.24
  L 375.60 113.39
  A 0.42 0.41 -14.1 0 1 375.23 114.00
  L 228.58 114.00
  A 0.59 0.59 13.1 0 1 228.05 113.15
  L 273.29 21.10
  A 1.53 1.51 -76.7 0 1 274.65 20.25
  L 326.40 20.25
  A 1.05 1.04 75.3 0 1 327.31 20.79
  L 336.19 36.63
  A 0.84 0.84 75.7 0 0 336.93 37.07
  L 368.81 37.24
  Q 369.72 37.25 369.09 36.58
  L 337.85 3.46
  A 2.27 2.25 68.2 0 0 336.21 2.75
  L 265.50 2.75
  A 2.13 2.12 22.4 0 0 264.00 3.37
  L 118.28 149.60
  A 1.19 1.17 48.7 0 0 118.19 151.16
  L 128.32 164.54
  A 1.81 1.73 70.6 0 0 129.72 165.25
  L 473.19 165.19
  A 1.21 1.14 20.9 0 0 474.04 164.84
  L 485.40 153.12
  A 0.52 0.51 -44.6 0 0 485.41 152.40
  Z"
/>
<path fill="#000000" d="
  M 431.80 107.92
  Q 453.71 129.83 476.45 152.58
  A 0.76 0.72 46.5 0 1 476.45 153.66
  L 473.39 156.45
  A 1.43 0.98 15.8 0 1 472.50 156.75
  L 131.61 156.75
  A 1.31 1.05 65.8 0 1 130.71 156.29
  L 127.49 152.58
  A 1.08 1.02 46.6 0 1 127.49 151.17
  Q 196.22 79.88 264.16 9.73
  C 266.81 6.99 266.35 7.25 270.36 7.25
  Q 303.18 7.25 336.01 7.25
  A 1.19 1.15 -21.4 0 1 336.85 7.60
  L 360.37 32.22
  Q 361.07 32.95 360.06 33.00
  Q 350.37 33.52 340.67 33.00
  A 1.97 1.93 -13.6 0 1 339.08 32.05
  L 329.71 16.33
  A 1.20 1.17 74.0 0 0 328.70 15.75
  L 271.74 15.75
  A 0.92 0.91 -75.9 0 0 270.93 16.24
  L 214.90 120.25
  Q 214.02 121.89 215.79 121.33
  Q 216.59 121.07 218.00 121.08
  Q 300.00 121.25 382.00 121.10
  Q 384.77 121.09 386.86 121.40
  Q 388.59 121.66 387.66 120.17
  L 376.29 101.81
  Q 375.78 101.00 376.74 101.00
  L 423.61 101.00
  A 3.47 3.47 65.9 0 1 425.93 101.89
  C 428.12 103.87 430.41 106.54 431.80 107.92
  Z"
/>
<path fill="#000000" d="
  M 520.60 256.40
  C 512.99 256.54 505.75 256.51 500.79 249.72
  Q 490.64 235.84 480.67 221.82
  C 475.35 214.35 472.28 204.88 485.70 204.55
  C 498.58 204.23 502.36 212.48 509.90 220.52
  Q 510.58 221.24 509.59 221.24
  L 502.07 221.20
  A 1.10 1.05 69.4 0 1 501.24 220.80
  C 498.66 217.75 494.98 211.39 490.53 211.96
  Q 486.22 212.52 489.06 216.46
  Q 499.88 231.53 511.72 245.81
  Q 513.99 248.54 517.51 247.75
  Q 519.86 247.22 518.68 245.11
  Q 516.48 241.16 512.89 237.51
  Q 512.02 236.62 513.21 236.63
  L 522.00 236.69
  A 1.31 0.96 63.5 0 1 522.83 237.12
  C 526.23 240.91 535.30 249.29 528.38 254.44
  Q 525.88 256.31 520.60 256.40
  Z"
/>
<path fill="#000000" d="
  M 91.50 205.25
  C 106.42 207.53 95.80 217.17 91.10 221.90
  A 1.31 1.12 18.7 0 1 90.25 222.24
  L 81.28 222.41
  Q 79.62 222.44 80.80 221.32
  C 82.37 219.83 91.58 211.46 83.28 211.72
  C 77.78 211.90 76.21 214.61 72.79 218.10
  Q 61.89 229.24 51.38 240.74
  C 49.44 242.86 46.49 247.52 51.57 248.16
  C 58.10 248.99 62.94 241.52 66.90 237.60
  A 1.31 1.12 18.7 0 1 67.75 237.26
  L 76.74 237.10
  Q 78.11 237.08 77.23 238.10
  Q 71.84 244.35 66.85 250.35
  C 62.81 255.21 58.45 255.43 51.70 255.92
  C 47.24 256.23 36.15 256.76 32.70 253.45
  C 24.58 245.66 61.20 214.50 65.81 211.06
  Q 76.65 202.98 91.50 205.25
  Z"
/>
<path fill="#000000" d="
  M 548.06 218.43
  C 548.64 219.02 549.64 219.59 550.21 220.29
  Q 551.00 221.25 549.76 221.25
  L 542.72 221.25
  Q 541.13 221.25 540.00 220.12
  Q 536.56 216.69 533.88 214.12
  C 531.70 212.03 525.35 209.54 523.60 213.48
  C 521.94 217.24 534.41 221.47 536.82 222.16
  C 548.87 225.62 569.86 232.07 573.97 245.77
  Q 574.67 248.12 573.65 250.13
  C 569.05 259.19 552.89 257.08 545.19 254.56
  C 538.49 252.37 532.09 242.59 527.43 237.30
  Q 526.77 236.56 527.78 236.58
  L 538.51 236.76
  A 1.20 1.09 -18.7 0 1 539.34 237.12
  C 542.88 240.89 546.53 246.62 552.19 246.60
  C 553.95 246.60 561.98 246.99 559.18 242.80
  Q 558.18 241.30 556.63 240.38
  Q 546.76 234.48 535.25 231.50
  C 527.93 229.60 509.55 222.37 510.28 212.16
  C 510.95 202.78 529.19 204.52 535.16 207.00
  C 539.62 208.86 544.42 214.73 548.06 218.43
  Z"
/>
<path fill="#000000" d="
  M 97.43 246.46
  Q 98.15 247.95 100.23 247.73
  Q 101.81 247.56 100.82 248.83
  L 95.59 255.58
  A 1.78 1.61 -69.1 0 1 94.27 256.25
  L 67.24 256.25
  Q 66.10 256.25 66.83 255.39
  L 72.35 248.82
  A 2.75 2.44 13.0 0 1 73.94 247.95
  C 78.76 247.21 80.53 246.09 83.84 242.23
  Q 95.34 228.81 106.14 214.83
  A 1.52 1.10 -34.3 0 0 106.46 213.94
  Q 106.42 212.32 104.39 212.51
  Q 102.66 212.68 103.81 211.33
  L 108.43 205.90
  A 1.91 1.83 -69.4 0 1 109.83 205.23
  L 131.70 205.08
  Q 133.16 205.07 132.26 206.24
  L 128.49 211.11
  A 3.13 2.66 -72.6 0 1 126.68 212.25
  Q 121.90 213.08 119.78 215.76
  Q 109.92 228.20 100.44 240.94
  Q 98.24 243.88 97.45 245.55
  A 1.11 0.97 -47.6 0 0 97.43 246.46
  Z"
/>
<path fill="#000000" d="
  M 122.92 247.01
  Q 124.33 247.96 126.19 247.86
  Q 126.71 247.83 126.43 248.24
  L 121.54 255.60
  A 0.96 0.91 15.6 0 1 120.75 256.02
  L 100.76 256.23
  Q 99.91 256.24 100.42 255.54
  L 105.77 248.22
  A 0.98 0.94 17.9 0 1 106.57 247.83
  Q 111.89 247.86 114.94 243.94
  Q 117.90 240.12 132.56 218.81
  C 133.43 217.55 138.14 211.76 133.05 212.53
  Q 131.30 212.80 132.33 211.46
  L 136.97 205.42
  A 1.15 0.69 10.5 0 1 137.80 205.11
  L 147.76 205.00
  A 0.71 0.64 2.8 0 1 148.48 205.72
  L 145.49 229.82
  Q 145.19 232.23 146.43 230.17
  L 155.44 215.12
  A 1.22 1.09 -39.0 0 0 155.59 214.20
  Q 155.01 212.11 152.32 212.53
  Q 150.33 212.84 151.43 211.13
  L 154.73 206.02
  A 1.74 1.71 15.8 0 1 156.17 205.23
  L 172.19 205.08
  A 0.36 0.35 9.3 0 1 172.53 205.54
  Q 171.43 208.84 169.36 211.66
  A 1.35 1.23 9.6 0 1 168.58 212.16
  C 163.74 213.19 162.83 215.81 160.58 219.64
  Q 150.17 237.37 139.88 255.29
  A 1.89 1.80 -74.1 0 1 138.27 256.24
  L 131.71 256.19
  A 0.40 0.40 -83.6 0 1 131.32 255.70
  L 138.07 223.02
  Q 138.59 220.53 137.21 222.65
  L 122.55 245.33
  A 1.25 1.22 33.3 0 0 122.92 247.01
  Z"
/>
<path fill="#000000" d="
  M 184.67 225.50
  L 189.31 225.68
  A 0.43 0.41 6.8 0 1 189.72 226.18
  Q 189.23 228.72 188.24 229.73
  Q 186.65 231.37 184.42 230.89
  C 181.86 230.35 180.87 230.68 179.69 233.07
  Q 176.75 239.07 173.53 245.78
  A 0.51 0.51 -73.1 0 0 173.92 246.51
  C 181.14 247.60 181.85 243.89 184.11 238.14
  A 1.40 1.39 -79.2 0 1 185.41 237.25
  L 191.72 237.25
  A 0.71 0.69 -78.4 0 1 192.35 238.23
  L 185.12 255.33
  A 1.51 1.45 -78.0 0 1 183.77 256.25
  L 151.10 256.25
  A 0.78 0.78 14.1 0 1 150.41 255.10
  L 153.81 248.78
  A 1.75 1.74 -79.2 0 1 155.13 247.88
  Q 160.91 247.19 163.10 243.09
  Q 170.09 230.02 176.81 216.81
  Q 179.05 212.42 174.43 212.31
  A 0.34 0.30 13.4 0 1 174.12 211.86
  L 177.52 205.67
  A 1.05 0.81 11.0 0 1 178.38 205.24
  L 204.44 205.07
  A 0.36 0.35 8.9 0 1 204.78 205.53
  Q 202.11 213.25 198.25 221.21
  A 1.59 1.35 -74.8 0 1 196.94 222.11
  L 191.98 222.09
  A 0.39 0.34 -77.0 0 1 191.69 221.55
  Q 193.94 216.05 194.56 215.06
  Q 196.80 211.49 192.74 211.93
  Q 192.29 211.98 191.79 211.81
  Q 190.06 211.21 189.31 212.81
  Q 187.06 217.65 183.87 224.09
  A 0.98 0.95 -75.5 0 0 184.67 225.50
  Z"
/>
<path fill="#000000" d="
  M 240.32 224.25
  L 222.01 255.56
  A 1.03 0.74 -70.4 0 1 221.26 256.08
  L 215.25 256.08
  A 0.61 0.53 88.3 0 1 214.72 255.50
  Q 214.07 243.24 214.00 230.97
  C 214.00 230.39 213.50 230.32 213.31 230.81
  Q 211.98 234.34 208.44 245.16
  C 207.60 247.72 208.48 248.81 211.24 248.13
  Q 213.51 247.57 212.77 249.68
  L 210.65 255.72
  A 0.76 0.71 9.3 0 1 209.95 256.19
  L 191.10 256.25
  A 0.44 0.44 10.8 0 1 190.69 255.65
  L 193.18 249.54
  Q 194.01 247.49 196.25 247.80
  Q 200.66 248.39 201.70 245.69
  Q 207.04 231.80 212.11 217.82
  C 213.23 214.72 215.80 211.00 209.08 212.03
  Q 207.73 212.23 208.24 211.02
  L 210.43 205.85
  A 1.28 1.12 9.9 0 1 211.57 205.16
  L 220.72 205.17
  A 0.54 0.52 -1.7 0 1 221.26 205.66
  L 222.73 238.76
  A 1.14 0.86 -78.3 0 0 223.12 239.59
  Q 224.11 240.32 224.99 238.77
  Q 234.10 222.84 243.60 205.85
  A 1.58 1.57 16.7 0 1 245.10 205.05
  Q 251.47 205.56 257.80 205.00
  A 0.96 0.92 2.6 0 1 258.84 206.09
  L 257.89 211.01
  A 1.33 1.19 3.4 0 1 256.67 211.98
  Q 253.52 212.13 252.98 214.80
  Q 250.12 228.89 247.13 242.95
  C 246.40 246.40 246.76 248.75 251.05 248.21
  A 1.26 1.23 -87.9 0 1 252.40 249.70
  L 251.27 255.61
  A 0.78 0.76 -84.5 0 1 250.52 256.25
  L 227.24 256.25
  A 0.41 0.39 7.5 0 1 226.84 255.75
  L 228.64 249.29
  A 0.68 0.60 8.5 0 1 229.32 248.85
  Q 234.85 249.09 236.31 243.31
  C 236.79 241.40 241.38 224.33 241.02 223.93
  A 0.59 0.35 -55.0 0 0 240.32 224.25
  Z"
/>
<path fill="#000000" d="
  M 271.32 247.66
  L 273.46 247.92
  A 0.59 0.52 -83.7 0 1 273.91 248.56
  L 273.14 255.57
  A 0.60 0.59 2.8 0 1 272.56 256.09
  L 257.79 256.24
  A 0.55 0.51 4.0 0 1 257.24 255.65
  L 258.19 249.25
  A 1.34 1.21 7.8 0 1 259.67 248.24
  Q 263.94 248.78 265.21 244.86
  Q 270.23 229.43 275.22 213.99
  Q 276.03 211.48 273.17 212.02
  A 0.56 0.54 -1.8 0 1 272.51 211.43
  L 273.14 206.12
  A 1.22 1.10 3.2 0 1 274.34 205.15
  L 286.40 205.10
  A 1.21 1.13 -4.4 0 1 287.60 206.06
  Q 290.79 225.68 293.85 244.83
  C 294.32 247.77 295.22 247.92 297.93 247.62
  A 1.58 1.44 -3.4 0 1 299.68 249.03
  L 299.69 255.24
  A 1.01 0.99 0.3 0 1 298.67 256.23
  L 280.19 256.08
  A 0.55 0.53 88.9 0 1 279.66 255.55
  Q 279.54 251.99 280.43 248.55
  A 1.07 0.91 -6.4 0 1 281.04 247.90
  C 283.81 246.72 282.52 242.07 281.95 239.93
  A 0.71 0.67 82.4 0 0 281.31 239.41
  L 274.00 239.24
  A 0.95 0.91 -71.8 0 0 273.21 239.66
  Q 270.85 243.05 270.81 247.18
  A 0.58 0.47 4.0 0 0 271.32 247.66
  Z
  M 279.28 221.41
  Q 277.36 227.06 275.47 232.71
  A 0.46 0.39 -79.0 0 0 275.80 233.31
  L 280.50 233.35
  A 1.31 1.08 87.8 0 0 281.58 231.94
  L 280.69 220.56
  A 0.91 0.65 -85.0 0 0 280.26 219.83
  C 279.25 219.39 279.49 220.79 279.28 221.41
  Z"
/>
<path fill="#000000" d="
  M 296.97 206.17
  A 0.95 0.94 0.6 0 1 297.92 205.25
  L 331.91 205.18
  A 1.01 0.99 -3.5 0 1 332.91 206.05
  L 334.79 220.81
  A 0.84 0.83 -3.6 0 1 333.96 221.75
  L 328.54 221.75
  A 1.41 1.28 87.3 0 1 327.25 220.46
  L 326.85 215.76
  Q 326.69 213.94 324.40 213.69
  Q 319.86 213.18 320.10 216.01
  Q 321.23 229.88 322.24 243.75
  Q 322.57 248.34 327.93 247.66
  A 1.09 1.01 -6.1 0 1 329.14 248.57
  L 329.77 255.69
  A 0.55 0.52 -1.9 0 1 329.22 256.25
  L 305.95 256.25
  A 0.80 0.74 -1.5 0 1 305.15 255.55
  L 304.77 249.27
  A 1.62 1.48 0.8 0 1 306.52 247.71
  Q 311.89 248.16 311.62 243.24
  Q 310.86 229.63 310.64 216.00
  Q 310.59 212.79 305.63 213.84
  A 1.88 1.83 -4.6 0 0 304.15 215.53
  L 303.83 221.05
  A 0.60 0.53 -88.8 0 1 303.31 221.62
  L 297.32 221.72
  A 0.79 0.74 -89.6 0 1 296.57 220.91
  L 296.97 206.17
  Z"
/>
<path fill="#000000" d="
  M 349.94 247.19
  A 1.15 1.14 -19.9 0 0 350.50 246.01
  Q 348.08 230.99 345.25 216.04
  C 344.79 213.66 344.07 212.74 341.59 212.75
  A 0.87 0.83 84.8 0 1 340.75 212.02
  L 339.78 205.95
  A 0.67 0.66 85.2 0 1 340.43 205.17
  Q 350.53 205.30 359.50 205.25
  C 368.77 205.20 376.98 222.10 369.60 228.19
  Q 369.07 228.64 369.72 228.87
  Q 375.49 230.98 376.50 236.00
  C 377.40 240.42 379.20 248.51 383.94 249.02
  A 0.84 0.67 -2.8 0 1 384.63 249.52
  L 386.44 255.45
  A 0.47 0.42 -7.8 0 1 385.98 256.00
  L 373.96 256.00
  A 2.54 2.53 73.4 0 1 371.84 254.85
  C 368.87 250.27 367.66 242.86 366.06 237.56
  Q 364.45 232.21 357.84 233.13
  A 0.57 0.56 -9.5 0 0 357.36 233.80
  C 358.22 238.04 358.63 249.38 364.80 248.29
  A 0.81 0.80 77.4 0 1 365.73 248.89
  L 367.47 255.65
  A 0.48 0.47 82.4 0 1 367.02 256.25
  L 346.39 256.25
  A 0.86 0.81 -3.8 0 1 345.54 255.55
  L 344.48 248.59
  A 0.56 0.54 0.5 0 1 345.12 247.98
  Q 347.79 248.41 349.94 247.19
  Z
  M 356.27 226.86
  C 366.61 230.41 365.08 210.17 353.54 212.94
  A 0.54 0.51 78.0 0 0 353.16 213.56
  L 355.72 226.20
  A 0.90 0.84 -87.0 0 0 356.27 226.86
  Z"
/>
<path fill="#000000" d="
  M 405.94 256.06
  C 394.75 254.61 390.73 249.77 387.24 239.27
  Q 384.41 230.74 381.78 222.15
  C 380.02 216.41 378.12 213.50 381.15 209.51
  C 386.78 202.09 404.86 203.89 408.90 212.83
  Q 416.28 229.15 423.45 245.56
  C 427.92 255.81 411.94 256.84 405.94 256.06
  Z
  M 393.17 211.97
  C 389.42 213.39 391.04 216.47 391.96 219.09
  Q 398.96 238.92 400.75 243.00
  C 403.67 249.65 414.66 250.77 411.12 241.39
  Q 406.45 229.00 401.18 216.84
  C 399.61 213.22 397.30 210.40 393.17 211.97
  Z"
/>
<path fill="#000000" d="
  M 434.63 231.12
  C 434.50 230.98 430.68 226.64 432.38 230.01
  C 436.41 237.99 439.66 247.97 447.19 247.83
  A 0.84 0.79 -14.0 0 1 447.93 248.24
  L 451.94 255.63
  A 0.42 0.42 75.9 0 1 451.57 256.25
  L 433.06 256.19
  A 0.84 0.77 -11.6 0 1 432.32 255.75
  L 428.75 248.29
  Q 428.53 247.83 429.06 247.88
  Q 431.25 248.09 432.63 246.57
  A 1.24 1.11 65.8 0 0 432.91 245.69
  C 432.71 242.80 431.42 240.98 430.25 238.50
  Q 425.23 227.82 420.00 217.25
  Q 418.28 213.78 415.47 212.67
  Q 415.10 212.52 414.51 212.58
  C 411.15 212.95 409.99 207.38 409.44 205.56
  A 0.39 0.37 -8.2 0 1 409.82 205.08
  L 421.75 205.26
  A 1.27 1.19 -21.6 0 1 422.61 205.60
  C 424.87 207.81 448.11 230.99 448.14 230.98
  A 0.44 0.36 63.5 0 0 448.28 230.38
  C 443.83 222.70 440.41 215.01 436.43 212.74
  A 1.75 1.05 -20.4 0 0 435.51 212.57
  C 433.04 212.77 431.28 207.88 430.18 206.05
  Q 429.56 205.02 430.81 205.02
  L 444.19 205.09
  A 1.29 1.01 -16.2 0 1 445.04 205.43
  Q 447.63 208.22 449.06 211.78
  A 0.40 0.38 -15.7 0 1 448.75 212.31
  Q 445.53 212.78 447.56 215.94
  Q 451.76 222.48 471.19 255.76
  Q 471.45 256.20 470.94 256.20
  L 459.81 256.20
  A 1.28 1.16 65.0 0 1 458.96 255.84
  Q 446.58 243.69 434.63 231.12
  Z"
/>
<path fill="#000000" d="
  M 477.19 247.22
  Q 478.47 245.86 477.48 244.28
  Q 468.28 229.54 458.94 215.56
  Q 456.76 212.31 452.50 212.47
  A 1.09 0.97 -19.4 0 1 451.67 212.13
  Q 449.11 209.22 447.63 205.65
  A 0.33 0.33 78.2 0 1 447.93 205.19
  L 465.27 205.25
  A 1.65 1.63 -18.1 0 1 466.59 205.91
  L 470.76 211.57
  Q 471.50 212.57 470.25 212.51
  C 466.27 212.32 467.40 214.60 468.70 216.54
  Q 483.13 238.08 487.31 243.69
  Q 490.35 247.75 495.68 247.81
  A 1.06 0.90 -14.5 0 1 496.48 248.20
  L 501.90 255.81
  Q 502.21 256.25 501.66 256.25
  L 479.50 256.25
  A 0.95 0.94 73.4 0 1 478.71 255.82
  L 473.82 248.20
  Q 473.44 247.60 474.15 247.68
  Q 476.50 247.94 477.19 247.22
  Z"
/>
<path fill="#000000" d="
  M 227.44 300.00
  L 225.19 300.00
  Q 216.93 297.34 219.42 288.73
  C 221.03 283.15 222.71 273.95 226.07 269.80
  C 229.18 265.98 235.98 263.44 239.97 267.43
  C 242.80 270.25 241.69 273.53 240.76 277.91
  C 238.78 287.23 238.59 297.49 227.44 300.00
  Z
  M 235.3124 273.2672
  A 2.27 2.27 0.0 0 0 233.6830 270.5011
  L 233.5862 270.4761
  A 2.27 2.27 0.0 0 0 230.8202 272.1054
  L 225.8476 291.3328
  A 2.27 2.27 0.0 0 0 227.4770 294.0989
  L 227.5738 294.1239
  A 2.27 2.27 0.0 0 0 230.3398 292.4946
  L 235.3124 273.2672
  Z"
/>
<path fill="#000000" d="
  M 306.19 300.00
  L 303.94 300.00
  C 292.33 297.18 295.54 284.87 295.70 276.39
  C 295.96 262.56 312.82 261.76 313.64 274.00
  Q 314.50 286.98 314.25 291.00
  Q 313.81 298.16 306.19 300.00
  Z
  M 307.2792 272.9630
  A 2.38 2.38 0.0 0 0 304.9117 270.5705
  L 304.7717 270.5698
  A 2.38 2.38 0.0 0 0 302.3793 272.9373
  L 302.2808 291.7370
  A 2.38 2.38 0.0 0 0 304.6483 294.1295
  L 304.7883 294.1302
  A 2.38 2.38 0.0 0 0 307.1807 291.7627
  L 307.2792 272.9630
  Z"
/>
<path fill="#000000" d="
  M 159.19 272.44
  Q 159.97 270.84 158.19 271.06
  C 154.82 271.49 158.04 267.50 158.61 266.26
  A 0.79 0.76 -77.3 0 1 159.31 265.80
  L 171.53 265.79
  Q 173.41 265.78 172.42 267.41
  Q 169.98 271.43 168.25 271.00
  Q 166.83 270.65 165.19 273.94
  Q 160.96 282.39 156.94 290.94
  Q 156.17 292.56 156.76 293.55
  A 0.89 0.67 -14.1 0 0 157.55 293.88
  C 160.89 293.58 157.80 297.94 156.99 299.04
  A 0.98 0.97 17.7 0 1 156.20 299.44
  L 142.39 299.50
  Q 141.00 299.50 141.77 298.34
  C 142.66 297.00 143.31 294.03 145.25 294.17
  Q 145.86 294.22 146.21 294.07
  C 150.86 292.08 156.79 277.33 159.19 272.44
  Z"
/>
<path fill="#000000" d="
  M 198.07 271.80
  C 196.50 274.24 195.72 277.18 194.88 279.34
  Q 191.17 288.84 187.69 298.44
  Q 187.12 300.01 184.98 299.61
  Q 184.50 299.52 184.02 299.62
  Q 181.92 300.06 181.75 298.25
  Q 180.81 288.49 179.74 278.70
  Q 179.48 276.25 178.55 278.54
  L 173.19 291.79
  A 1.43 1.04 -51.0 0 0 173.14 292.73
  Q 173.69 294.22 175.43 294.31
  A 0.43 0.34 10.8 0 1 175.84 294.79
  L 173.97 299.04
  A 0.91 0.66 8.3 0 1 173.19 299.45
  L 161.02 299.45
  A 0.75 0.73 13.8 0 1 160.35 298.37
  L 162.30 294.74
  A 0.96 0.78 9.1 0 1 163.06 294.30
  C 165.36 294.17 166.80 293.26 167.84 291.08
  Q 171.99 282.32 176.21 272.66
  A 1.15 1.14 11.3 0 0 175.14 271.06
  C 171.90 271.13 174.77 267.28 175.47 266.17
  A 0.94 0.91 16.0 0 1 176.25 265.75
  L 182.88 265.75
  A 1.20 1.18 -5.6 0 1 184.05 266.70
  L 187.25 283.00
  Q 187.51 284.33 187.94 283.19
  L 191.75 273.00
  Q 192.54 270.88 189.75 271.00
  C 186.86 271.12 189.27 267.32 190.02 266.22
  A 0.97 0.96 16.4 0 1 190.80 265.80
  L 202.15 265.76
  A 0.48 0.48 8.5 0 1 202.61 266.38
  C 202.18 267.89 201.49 271.23 199.53 271.08
  A 1.61 1.58 18.3 0 0 198.07 271.80
  Z"
/>
<path fill="#000000" d="
  M 243.15 294.03
  A 2.70 2.68 79.0 0 0 244.35 292.24
  Q 246.36 281.45 248.25 272.50
  Q 248.65 270.63 246.57 270.46
  A 0.67 0.56 0.5 0 1 245.97 269.95
  Q 245.91 269.27 246.20 268.62
  Q 246.41 268.15 246.39 267.70
  Q 246.30 265.51 248.42 265.67
  C 252.45 265.97 256.70 265.75 260.75 265.74
  C 269.07 265.73 266.95 279.15 261.86 281.43
  Q 261.17 281.74 261.82 282.11
  C 267.70 285.48 260.35 293.58 265.32 294.84
  A 0.76 0.66 5.4 0 1 265.88 295.43
  Q 266.04 297.15 265.44 298.79
  A 0.74 0.74 -79.7 0 1 264.75 299.27
  L 257.59 299.15
  Q 255.27 299.11 255.62 296.69
  C 256.15 292.95 259.35 283.67 252.69 284.76
  A 1.24 1.22 0.3 0 0 251.67 285.76
  C 251.35 287.66 248.76 295.11 252.60 294.48
  A 0.98 0.84 -89.1 0 1 253.54 295.61
  L 253.17 298.29
  A 1.40 1.13 -85.2 0 1 252.01 299.50
  L 239.63 299.50
  A 0.78 0.78 12.5 0 1 238.92 298.39
  Q 239.47 297.20 239.50 295.48
  A 1.24 1.24 5.8 0 1 240.96 294.29
  Q 242.37 294.54 243.15 294.03
  Z
  M 257.79 271.34
  L 254.81 271.26
  A 0.68 0.58 -83.1 0 0 254.21 271.81
  L 252.68 279.90
  A 0.57 0.56 11.2 0 0 253.13 280.56
  Q 256.12 281.20 257.41 279.66
  Q 259.54 277.12 259.50 273.37
  Q 259.47 271.38 257.79 271.34
  Z"
/>
<path fill="#000000" d="
  M 272.39 270.16
  Q 272.00 269.48 272.29 268.70
  Q 272.47 268.19 272.42 267.75
  Q 272.13 265.46 274.30 265.64
  C 278.22 265.97 282.31 265.73 286.25 265.69
  C 294.12 265.60 293.88 274.93 292.03 280.00
  C 289.97 285.64 285.67 284.75 280.80 284.75
  A 1.27 1.27 -88.8 0 0 279.53 285.97
  L 279.27 292.99
  A 1.39 1.00 -71.1 0 0 279.55 293.91
  Q 280.25 294.69 281.44 294.62
  A 1.04 0.70 -13.1 0 1 282.27 294.94
  Q 282.79 295.66 282.50 296.60
  Q 282.35 297.09 282.36 297.57
  Q 282.40 299.50 280.00 299.50
  Q 274.87 299.50 269.75 299.50
  Q 267.98 299.49 268.55 297.95
  Q 268.72 297.49 268.66 297.01
  Q 268.50 295.59 269.44 294.64
  A 1.21 0.82 18.2 0 1 270.31 294.39
  C 271.88 294.52 272.66 293.97 272.86 292.35
  Q 274.05 282.35 274.89 272.31
  A 1.37 1.01 -68.2 0 0 274.65 271.40
  Q 274.08 270.75 273.19 270.60
  A 1.20 0.72 -2.1 0 1 272.39 270.16
  Z
  M 280.78 272.06
  C 280.63 274.61 280.36 277.13 280.22 279.91
  A 0.60 0.59 -82.8 0 0 280.69 280.53
  Q 283.53 281.12 284.57 279.84
  Q 287.15 276.67 286.08 272.80
  A 1.60 1.42 -81.6 0 0 285.55 271.99
  Q 283.65 270.58 281.28 271.38
  A 0.80 0.74 83.5 0 0 280.78 272.06
  Z"
/>
<path fill="#000000" d="
  M 319.76 271.02
  Q 317.66 270.87 318.14 268.24
  Q 318.22 267.81 318.07 267.28
  Q 317.64 265.75 319.75 265.75
  C 329.02 265.75 340.26 262.82 339.51 277.25
  Q 339.35 280.19 336.91 281.51
  Q 336.10 281.95 336.98 282.24
  C 343.93 284.58 338.48 293.14 344.09 295.05
  A 1.01 0.62 10.6 0 1 344.75 295.65
  L 345.22 298.69
  A 0.52 0.44 -4.3 0 1 344.70 299.20
  L 337.03 299.25
  A 1.83 1.80 84.2 0 1 335.25 297.77
  Q 334.33 292.94 333.52 288.11
  C 332.98 284.91 331.67 284.40 328.63 284.89
  A 0.73 0.72 -7.5 0 0 328.02 285.68
  C 328.25 288.26 327.38 294.97 331.30 294.46
  A 0.64 0.55 -7.9 0 1 332.00 294.91
  L 332.60 298.82
  A 0.56 0.45 -4.9 0 1 332.06 299.34
  C 328.10 299.55 324.14 299.33 320.21 299.63
  C 317.95 299.79 317.94 296.05 318.72 294.66
  A 0.81 0.66 15.9 0 1 319.49 294.33
  C 322.62 294.69 322.37 292.81 322.21 290.48
  Q 321.69 282.89 321.06 272.32
  A 1.39 1.38 0.2 0 0 319.76 271.02
  Z
  M 330.58 271.35
  L 327.48 271.30
  A 0.61 0.56 88.1 0 0 326.92 271.96
  L 327.53 279.94
  A 0.78 0.73 -84.0 0 0 328.04 280.61
  Q 329.82 281.17 331.49 280.41
  A 1.44 1.38 -87.5 0 0 332.17 279.76
  Q 334.41 275.42 331.39 271.81
  A 1.24 0.81 62.9 0 0 330.58 271.35
  Z"
/>
<path fill="#000000" d="
  M 353.44 270.85
  Q 352.52 271.01 351.72 270.49
  A 1.24 1.13 12.8 0 1 351.17 269.70
  L 350.59 266.31
  A 0.48 0.43 -5.2 0 1 351.06 265.80
  L 362.07 265.76
  A 1.35 1.33 76.8 0 1 363.27 266.52
  Q 369.13 278.68 374.84 290.36
  C 376.01 292.74 376.43 294.63 379.76 294.10
  A 0.89 0.75 -21.2 0 1 380.57 294.38
  Q 381.72 295.91 381.76 298.74
  A 0.50 0.50 89.4 0 1 381.26 299.25
  L 367.50 299.25
  A 1.00 0.93 -16.2 0 1 366.70 298.85
  Q 364.71 296.02 366.69 293.39
  A 0.99 0.92 -36.7 0 0 366.85 292.52
  C 366.19 290.48 364.89 285.15 361.97 286.08
  A 1.76 1.49 -41.5 0 1 361.03 286.10
  Q 357.49 285.08 358.09 288.38
  Q 358.28 289.44 358.04 290.50
  Q 357.19 294.17 359.51 294.00
  A 1.41 1.36 -6.7 0 1 361.00 295.14
  L 361.55 298.64
  A 0.53 0.53 -4.6 0 1 361.03 299.25
  L 350.07 299.20
  A 0.73 0.61 -5.4 0 1 349.38 298.72
  L 348.60 295.31
  A 0.74 0.67 -20.7 0 1 348.99 294.55
  Q 349.67 294.19 350.45 294.25
  A 1.55 1.54 -85.2 0 0 352.09 292.86
  L 354.19 271.55
  A 0.65 0.65 88.0 0 0 353.44 270.85
  Z
  M 359.46 276.80
  C 359.66 277.81 359.17 278.51 359.20 279.50
  Q 359.22 279.94 359.10 280.47
  Q 358.70 282.22 361.79 281.59
  A 0.54 0.53 -19.7 0 0 362.16 280.82
  C 361.76 280.06 360.43 275.70 359.72 276.05
  A 0.73 0.54 72.8 0 0 359.46 276.80
  Z"
/>
<path fill="#000000" d="
  M 378.99 272.30
  C 378.63 275.11 382.78 278.29 375.71 276.96
  A 1.66 1.60 87.8 0 1 374.44 275.74
  L 372.20 266.82
  A 0.86 0.85 82.8 0 1 373.02 265.75
  L 396.94 265.75
  A 0.99 0.98 -9.6 0 1 397.87 266.41
  Q 399.60 271.36 400.89 275.39
  C 401.13 276.14 402.41 277.62 400.16 277.36
  C 397.48 277.05 396.10 278.11 395.50 274.50
  Q 394.80 270.29 390.70 272.04
  A 0.60 0.57 70.4 0 0 390.39 272.74
  Q 392.99 282.05 395.85 291.30
  Q 396.68 293.98 400.93 294.38
  A 0.62 0.58 82.5 0 1 401.42 294.78
  L 402.63 298.32
  A 0.69 0.68 80.7 0 1 401.98 299.24
  L 387.07 299.20
  A 0.79 0.79 79.0 0 1 386.36 298.72
  C 385.74 297.27 383.89 293.30 387.25 294.00
  Q 389.63 294.49 388.94 292.06
  Q 386.68 284.14 384.47 276.20
  C 383.57 272.97 383.53 270.69 379.54 271.68
  A 0.73 0.73 -3.5 0 0 378.99 272.30
  Z"
/>
<path fill="#000000" d="
  M 424.30 293.32
  Q 426.03 293.71 427.72 293.12
  A 0.52 0.49 -20.5 0 0 428.05 292.46
  L 425.45 285.97
  A 0.68 0.62 77.8 0 1 425.99 285.04
  L 429.94 285.01
  A 1.20 1.10 77.5 0 1 430.98 285.74
  L 436.46 298.52
  A 0.52 0.52 78.1 0 1 435.99 299.25
  L 414.57 299.25
  A 0.80 0.78 78.9 0 1 413.84 298.74
  L 412.37 294.98
  A 0.72 0.71 78.5 0 1 413.01 294.00
  Q 415.89 293.97 415.08 291.52
  Q 412.11 282.51 408.63 273.68
  C 407.85 271.71 406.99 271.19 404.99 270.94
  A 1.98 1.97 84.5 0 1 403.37 269.60
  L 402.26 266.28
  A 0.40 0.40 -9.4 0 1 402.64 265.75
  L 421.53 265.75
  A 1.34 1.30 -11.4 0 1 422.75 266.54
  L 427.25 276.97
  A 0.40 0.37 75.5 0 1 426.95 277.52
  L 423.93 277.71
  Q 421.47 277.87 420.77 274.71
  Q 419.72 269.99 415.64 270.49
  A 0.52 0.52 76.5 0 0 415.22 271.18
  L 417.48 277.21
  Q 418.22 279.19 420.34 279.01
  Q 422.81 278.80 423.24 280.95
  Q 423.35 281.46 423.61 281.83
  Q 425.50 284.48 421.62 283.98
  A 0.88 0.88 -7.0 0 0 420.69 285.17
  L 423.63 292.72
  A 1.00 0.92 84.6 0 0 424.30 293.32
  Z"
/>
<path fill="#000000" d="
  M 442.55 292.04
  L 433.34 271.70
  A 2.58 2.54 -8.9 0 0 431.29 270.23
  Q 427.84 269.82 427.36 266.31
  A 0.46 0.45 -3.3 0 1 427.82 265.81
  Q 435.91 265.72 444.01 265.74
  C 447.78 265.75 449.43 267.37 451.06 270.44
  Q 459.37 286.02 462.00 291.75
  C 463.88 295.85 462.13 299.16 457.53 299.21
  Q 450.19 299.29 442.38 299.25
  A 1.19 1.16 -12.0 0 1 441.33 298.59
  L 439.49 294.74
  Q 438.89 293.46 440.26 293.82
  Q 441.82 294.22 442.54 292.96
  A 1.08 0.92 50.1 0 0 442.55 292.04
  Z
  M 442.57 271.33
  A 0.78 0.78 10.2 0 0 441.50 272.07
  C 441.54 273.52 442.24 274.43 442.79 275.63
  Q 446.75 284.25 451.20 292.63
  A 1.70 1.33 82.6 0 0 451.88 293.30
  Q 453.63 294.14 454.34 292.46
  A 1.21 0.97 48.3 0 0 454.29 291.55
  Q 449.96 282.10 445.11 272.91
  Q 444.75 272.22 442.57 271.33
  Z"
/>
<path fill="#000000" d="
  M 204.18 292.21
  Q 204.93 293.87 206.70 293.56
  A 0.93 0.92 4.5 0 0 207.39 292.98
  L 209.92 286.04
  A 0.88 0.59 -76.6 0 1 210.55 285.46
  L 215.86 285.33
  A 0.47 0.44 -81.2 0 1 216.27 285.94
  C 213.69 294.35 213.06 302.08 201.14 298.84
  Q 195.34 297.26 197.99 289.63
  Q 201.04 280.83 203.98 271.99
  Q 205.45 267.57 209.99 266.47
  C 212.98 265.75 219.22 265.32 220.26 269.02
  C 220.84 271.10 219.38 274.51 218.60 276.71
  A 1.03 0.94 -87.4 0 1 217.96 277.35
  C 216.79 277.69 212.21 278.50 213.81 275.65
  Q 214.65 274.14 214.70 272.42
  Q 214.79 269.66 211.98 271.04
  A 3.49 3.47 86.2 0 0 210.23 273.05
  L 204.16 291.28
  A 1.39 1.11 -52.6 0 0 204.18 292.21
  Z"
/>
</svg>
