<?xml version="1.0" encoding="UTF-8" standalone="no"?>
<!DOCTYPE svg PUBLIC "-//W3C//DTD SVG 1.1//EN" "http://www.w3.org/Graphics/SVG/1.1/DTD/svg11.dtd">
<svg xmlns="http://www.w3.org/2000/svg" version="1.1" viewBox="0 0 600 180">
<g stroke-width="2.00" fill="none" stroke-linecap="butt">
<path stroke="#000099" vector-effect="non-scaling-stroke" d="
  M 446.92 92.40
  L 427.00 92.29"
/>
<path stroke="#000099" vector-effect="non-scaling-stroke" d="
  M 379.74 92.16
  L 358.21 92.48"
/>
<path stroke="#000099" vector-effect="non-scaling-stroke" d="
  M 305.04 92.50
  L 268.51 92.35"
/>
<path stroke="#000099" vector-effect="non-scaling-stroke" d="
  M 383.29 92.25
  L 382.96 91.75"
/>
<path stroke="#000099" vector-effect="non-scaling-stroke" d="
  M 191.79 92.41
  Q 193.03 92.60 194.94 92.40
  Q 196.13 92.28 194.93 92.25
  Q 193.40 92.21 191.81 92.29
  Q 191.19 92.32 191.79 92.41"
/>
<path stroke="#000099" vector-effect="non-scaling-stroke" d="
  M 199.81 92.34
  Q 206.28 92.63 212.75 92.50
  Q 216.90 92.42 213.25 92.25
  Q 210.76 92.13 199.82 92.31
  Q 199.30 92.31 199.81 92.34"
/>
<path stroke="#8080cc" vector-effect="non-scaling-stroke" d="
  M 163.00 105.46
  L 153.58 115.14
  A 1.62 1.37 74.8 0 0 153.18 116.00
  L 145.13 173.20
  A 0.45 0.44 -86.1 0 0 145.57 173.71
  L 153.69 173.71
  A 0.60 0.56 -85.9 0 0 154.25 173.19
  L 163.24 107.05
  A 1.05 0.65 89.8 0 1 163.72 106.27
  Q 163.96 106.17 164.25 106.21"
/>
<path stroke="#8080cc" vector-effect="non-scaling-stroke" d="
  M 164.25 106.21
  L 189.19 106.31
  A 0.43 0.43 4.0 0 1 189.62 106.80
  L 180.68 173.25
  A 0.45 0.44 3.9 0 0 181.13 173.75
  L 189.21 173.82
  A 0.70 0.68 3.8 0 0 189.90 173.23
  L 198.99 106.81
  A 0.58 0.57 -86.0 0 1 199.56 106.31
  L 223.55 106.25
  A 0.45 0.45 3.9 0 1 224.00 106.76
  L 214.97 173.20
  A 0.54 0.54 3.7 0 0 215.51 173.81
  L 223.56 173.80
  A 0.58 0.56 4.0 0 0 224.13 173.32
  L 234.26 99.14
  A 0.57 0.56 4.0 0 0 233.70 98.50
  L 170.55 98.50
  A 2.52 2.34 -66.8 0 0 168.79 99.28
  L 163.00 105.46"
/>
<path stroke="#ffffff" vector-effect="non-scaling-stroke" d="
  M 164.25 106.21
  Q 163.71 105.68 163.00 105.46"
/>
<path stroke="#8080cc" vector-effect="non-scaling-stroke" d="
  M 355.56 106.31
  L 386.10 106.25
  Q 386.75 106.25 386.37 105.72
  L 381.48 98.98
  A 1.01 0.95 71.2 0 0 380.69 98.56
  L 359.28 98.50
  A 1.66 1.57 -67.8 0 0 358.09 99.04
  L 345.28 113.32
  A 1.64 1.46 -22.7 0 0 344.87 114.18
  L 336.67 173.31
  A 0.39 0.39 3.8 0 0 337.06 173.75
  L 382.08 173.75
  A 0.83 0.83 -86.0 0 0 382.90 173.03
  L 388.32 132.97
  A 0.63 0.63 -86.0 0 0 387.70 132.25
  L 380.19 132.25
  A 2.49 2.40 -64.2 0 0 378.62 132.83
  L 371.16 139.14
  Q 370.09 140.05 371.52 140.07
  L 377.57 140.13
  A 0.50 0.45 -85.5 0 1 378.00 140.69
  L 374.61 165.45
  A 0.64 0.63 3.6 0 1 373.98 166.00
  L 347.44 166.06
  A 0.44 0.44 3.9 0 1 347.00 165.56
  L 354.99 106.80
  A 0.58 0.57 4.0 0 1 355.56 106.31"
/>
<path stroke="#8080cc" vector-effect="non-scaling-stroke" d="
  M 17.88 165.44
  L 25.87 106.93
  A 0.58 0.56 -85.9 0 1 26.43 106.43
  L 56.48 106.26
  Q 57.67 106.25 56.98 105.32
  L 52.25 98.95
  A 1.04 0.96 -16.5 0 0 51.43 98.55
  L 30.05 98.56
  A 1.19 1.08 -66.7 0 0 29.22 98.94
  L 16.15 113.44
  A 1.70 1.61 -21.3 0 0 15.74 114.31
  L 7.63 173.20
  A 0.43 0.42 -85.9 0 0 8.05 173.69
  L 53.19 173.69
  A 0.58 0.57 -86.0 0 0 53.76 173.19
  L 59.19 133.09
  A 0.72 0.72 -86.1 0 0 58.48 132.27
  L 50.56 132.30
  A 1.50 1.23 -60.6 0 0 49.68 132.64
  L 42.29 138.97
  Q 41.09 139.99 42.73 140.04
  L 48.45 140.22
  A 0.52 0.45 -84.5 0 1 48.87 140.81
  L 45.49 165.56
  A 0.58 0.58 4.4 0 1 44.90 166.06
  L 18.31 165.94
  A 0.44 0.43 -86.0 0 1 17.88 165.44"
/>
<path stroke="#8080cc" vector-effect="non-scaling-stroke" d="
  M 122.13 106.81
  L 118.77 131.70
  A 0.59 0.57 3.9 0 1 118.19 132.19
  L 97.34 132.25
  A 2.35 2.30 21.7 0 0 95.67 132.95
  L 80.35 148.88
  A 1.67 1.52 -21.5 0 0 79.92 149.75
  L 76.38 173.20
  A 0.43 0.42 4.5 0 0 76.81 173.69
  L 104.73 173.75
  A 0.52 0.50 3.8 0 0 105.24 173.32
  L 106.14 166.80
  A 0.46 0.44 4.0 0 0 105.69 166.31
  L 87.19 166.08
  A 0.47 0.46 3.9 0 1 86.73 165.57
  L 90.10 140.68
  A 0.61 0.59 3.8 0 1 90.70 140.17
  L 117.06 140.17
  A 0.45 0.45 3.9 0 1 117.51 140.68
  L 113.23 173.07
  A 0.77 0.74 3.2 0 0 114.01 173.90
  L 121.80 173.78
  A 0.65 0.61 3.0 0 0 122.43 173.25
  L 132.53 99.01
  A 0.45 0.45 3.9 0 0 132.08 98.50
  L 103.13 98.50
  A 1.85 1.80 -67.0 0 0 101.84 99.04
  L 94.99 105.89
  Q 94.62 106.25 95.14 106.25
  L 121.70 106.31
  A 0.44 0.43 -86.0 0 1 122.13 106.81"
/>
<path stroke="#8080cc" vector-effect="non-scaling-stroke" d="
  M 261.63 131.69
  L 265.10 106.84
  A 0.69 0.68 3.8 0 1 265.78 106.25
  L 296.15 106.25
  A 0.70 0.67 3.8 0 0 296.84 105.67
  L 297.65 99.06
  A 0.46 0.45 3.3 0 0 297.19 98.56
  L 272.00 98.50
  A 1.19 1.18 -67.8 0 0 271.15 98.86
  L 255.65 114.73
  A 2.81 2.78 -19.0 0 0 254.89 116.27
  L 246.75 173.24
  A 0.45 0.44 -86.1 0 0 247.19 173.75
  L 286.93 173.69
  A 0.63 0.55 3.0 0 0 287.55 173.21
  L 288.42 166.81
  A 0.49 0.44 3.6 0 0 287.93 166.31
  L 257.68 166.07
  A 0.45 0.45 4.5 0 1 257.24 165.56
  L 260.57 140.80
  A 0.87 0.85 3.8 0 1 261.43 140.06
  L 291.49 140.00
  A 0.66 0.58 3.5 0 0 292.13 139.50
  L 293.05 132.93
  A 0.48 0.44 3.6 0 0 292.57 132.43
  L 262.06 132.19
  A 0.44 0.44 4.6 0 1 261.63 131.69"
/>
<path stroke="#8080cc" vector-effect="non-scaling-stroke" d="
  M 429.65 98.86
  C 427.77 100.77 413.71 114.53 413.56 115.56
  Q 409.44 144.24 405.40 173.21
  A 0.49 0.48 4.6 0 0 405.88 173.76
  L 445.44 173.93
  A 0.66 0.56 3.5 0 0 446.08 173.45
  L 447.02 166.54
  A 0.48 0.43 3.2 0 0 446.54 166.06
  L 416.42 166.24
  A 0.77 0.76 -86.0 0 1 415.67 165.37
  L 419.07 140.54
  A 0.63 0.62 3.7 0 1 419.69 140.00
  L 450.37 140.00
  A 0.63 0.61 -86.9 0 0 450.98 139.44
  L 451.65 132.96
  A 0.64 0.64 3.2 0 0 451.01 132.25
  L 420.66 132.25
  A 0.45 0.44 -86.1 0 1 420.22 131.74
  L 423.52 107.14
  A 1.03 1.03 3.8 0 1 424.54 106.25
  L 454.93 106.19
  A 0.59 0.56 2.7 0 0 455.51 105.69
  L 456.16 99.07
  A 0.47 0.46 2.8 0 0 455.69 98.56
  L 430.50 98.50
  A 1.19 1.18 -67.8 0 0 429.65 98.86"
/>
<path stroke="#8080cc" vector-effect="non-scaling-stroke" d="
  M 513.38 106.81
  L 510.00 131.74
  A 0.61 0.59 3.8 0 1 509.40 132.25
  L 488.25 132.25
  A 1.22 1.09 19.6 0 0 487.40 132.60
  L 471.40 149.19
  A 1.59 1.45 73.1 0 0 470.99 150.05
  L 467.50 173.24
  A 0.44 0.44 4.4 0 0 467.94 173.75
  L 495.94 173.69
  A 0.58 0.56 -85.9 0 0 496.50 173.19
  L 497.36 166.80
  A 0.43 0.42 -85.8 0 0 496.95 166.31
  L 478.64 166.25
  A 0.90 0.90 3.9 0 1 477.75 165.23
  L 481.06 140.79
  A 0.92 0.91 -86.0 0 1 481.96 140.00
  L 508.35 140.00
  A 0.50 0.50 3.5 0 1 508.85 140.56
  L 504.50 173.24
  A 0.45 0.44 -86.1 0 0 504.94 173.75
  L 512.72 173.75
  A 0.90 0.89 3.6 0 0 513.61 172.97
  L 523.62 99.06
  A 0.45 0.44 -86.0 0 0 523.19 98.55
  L 493.57 98.79
  A 1.27 1.24 -67.5 0 0 492.71 99.16
  L 486.55 105.43
  Q 485.75 106.25 486.90 106.25
  L 512.95 106.31
  A 0.44 0.43 -86.0 0 1 513.38 106.81"
/>
<path stroke="#8080cc" vector-effect="non-scaling-stroke" d="
  M 579.70 131.41
  L 588.63 123.35
  A 1.43 1.31 74.9 0 0 589.07 122.50
  L 592.39 98.96
  A 0.40 0.40 4.3 0 0 591.99 98.50
  L 561.38 98.50
  A 1.23 1.22 21.9 0 0 560.50 98.87
  L 544.96 114.90
  A 2.17 2.14 -19.2 0 0 544.38 116.08
  L 536.18 173.22
  A 0.46 0.45 -86.1 0 0 536.63 173.74
  L 544.69 173.70
  A 0.58 0.57 -86.0 0 0 545.26 173.20
  L 549.87 140.69
  A 0.60 0.58 -86.5 0 1 550.44 140.17
  L 577.04 140.01
  A 0.62 0.58 3.7 0 0 577.65 139.51
  L 578.48 133.80
  A 4.18 3.61 76.3 0 1 579.70 131.41"
/>
<path stroke="#8080cc" vector-effect="non-scaling-stroke" d="
  M 577.56 141.32
  L 573.22 173.27
  A 0.49 0.46 4.8 0 0 573.69 173.79
  L 581.24 173.97
  A 1.21 1.11 4.9 0 0 582.46 173.03
  L 585.75 151.81
  A 2.02 1.92 -59.9 0 0 585.40 150.33
  L 578.48 141.08
  Q 577.73 140.08 577.56 141.32"
/>
<path stroke="#8080cc" vector-effect="non-scaling-stroke" d="
  M 554.02 110.31
  Q 552.45 120.98 551.12 131.70
  A 0.45 0.44 -86.6 0 0 551.56 132.20
  L 578.06 132.08
  A 0.60 0.59 3.4 0 0 578.64 131.57
  L 582.13 106.82
  A 0.45 0.44 -86.1 0 0 581.69 106.31
  Q 569.90 106.21 558.10 106.25
  C 553.40 106.26 554.62 106.27 554.02 110.31"
/>
</g>
<path fill="#000099" d="
  M 406.56 0.00
  L 409.31 0.00
  C 418.67 1.68 422.11 6.93 424.83 16.02
  Q 436.20 54.12 446.92 92.40
  L 427.00 92.29
  L 403.94 92.07
  A 0.54 0.51 0.0 0 1 403.40 91.56
  L 403.40 80.43
  A 0.54 0.51 0.0 0 1 403.94 79.92
  L 431.38 79.82
  A 0.59 0.58 -8.1 0 0 431.95 79.08
  Q 423.12 48.77 414.23 18.30
  C 413.59 16.09 413.14 14.03 411.32 12.56
  C 407.91 9.79 403.38 11.62 402.19 15.69
  Q 390.99 53.87 379.74 92.16
  L 358.21 92.48
  C 342.71 91.95 322.14 96.70 315.06 77.05
  Q 313.53 72.80 313.37 63.76
  Q 313.06 45.88 313.01 28.00
  C 312.98 13.72 321.53 2.01 336.43 1.65
  Q 353.25 1.24 370.06 1.68
  A 0.54 0.50 0.6 0 1 370.59 2.18
  L 370.71 13.12
  A 0.94 0.89 0.0 0 1 369.76 14.02
  Q 352.48 13.84 336.64 14.17
  C 327.45 14.37 324.35 19.96 324.17 28.37
  Q 323.50 60.37 324.25 69.00
  C 324.83 75.66 329.85 79.43 336.37 79.60
  Q 347.43 79.91 359.26 79.74
  A 0.75 0.74 -0.8 0 0 359.99 79.00
  L 359.82 45.94
  A 0.52 0.51 90.0 0 0 359.31 45.42
  L 341.17 45.27
  A 0.89 0.83 0.7 0 1 340.29 44.43
  L 340.41 33.43
  A 0.53 0.49 -0.0 0 1 340.94 32.94
  L 370.19 33.06
  A 0.50 0.50 0.0 0 1 370.69 33.56
  L 370.81 81.99
  Q 370.82 84.14 371.41 82.07
  Q 380.93 49.16 390.55 16.73
  C 393.41 7.09 396.56 1.50 406.56 0.00
  Z"
/>
<path fill="#000099" d="
  M 201.56 44.69
  C 204.93 48.59 211.86 48.66 218.25 48.50
  C 235.82 48.07 236.78 76.12 218.37 76.60
  Q 202.15 77.02 185.93 76.58
  A 0.54 0.52 1.1 0 1 185.41 76.06
  L 185.27 64.83
  A 0.77 0.75 0.4 0 1 186.06 64.07
  Q 202.15 64.37 218.50 64.05
  Q 222.34 63.97 220.26 61.43
  A 1.13 1.01 -16.9 0 0 219.44 61.05
  Q 215.60 60.96 211.75 60.99
  C 181.01 61.26 176.08 12.99 202.69 3.17
  Q 206.49 1.77 215.48 1.61
  Q 229.57 1.37 244.49 1.51
  A 0.77 0.77 0.4 0 1 245.25 2.28
  L 245.25 13.16
  A 1.09 1.09 -1.4 0 1 244.16 14.25
  Q 228.47 14.25 212.90 14.25
  C 195.54 14.25 191.58 33.10 201.56 44.69
  Z"
/>
<path fill="#000099" d="
  M 305.04 92.50
  L 268.51 92.35
  C 256.65 88.40 250.50 78.28 250.50 66.00
  Q 250.50 51.26 250.50 36.52
  Q 250.50 24.62 250.83 22.50
  C 252.09 14.50 257.20 6.05 265.03 3.04
  Q 268.34 1.77 275.14 1.65
  Q 291.12 1.36 308.13 1.51
  A 0.86 0.84 0.7 0 1 308.98 2.36
  L 308.95 13.44
  A 0.52 0.50 -0.0 0 1 308.43 13.94
  Q 280.91 14.12 275.00 14.00
  C 265.35 13.81 261.58 19.26 261.42 28.07
  Q 261.14 44.15 261.21 60.24
  Q 261.25 70.12 262.89 73.52
  C 266.49 80.97 273.22 79.75 282.15 79.75
  Q 295.04 79.75 308.33 79.75
  A 0.67 0.67 0.4 0 1 309.00 80.42
  L 309.00 91.47
  A 0.83 0.82 -86.3 0 1 308.07 92.29
  Q 306.35 92.07 305.04 92.50
  Z"
/>
<path fill="#000099" d="
  M 383.29 92.25
  L 382.96 91.75
  Q 393.12 55.40 403.96 19.23
  C 404.61 17.06 404.94 14.36 407.76 14.27
  Q 410.29 14.20 411.00 16.63
  L 428.22 76.15
  A 0.47 0.47 82.0 0 1 427.77 76.75
  L 403.75 76.75
  A 0.50 0.50 0.0 0 1 403.25 76.25
  L 403.21 67.52
  Q 403.20 64.78 402.44 67.42
  L 395.64 91.14
  A 1.54 1.54 8.0 0 1 394.16 92.25
  L 383.29 92.25
  Z
  M 404.03 62.32
  A 0.34 0.34 -82.4 0 0 404.36 62.75
  L 411.25 62.74
  A 0.34 0.34 81.7 0 0 411.58 62.31
  L 408.11 50.47
  A 0.34 0.34 0.0 0 0 407.46 50.47
  L 404.03 62.32
  Z"
/>
<path fill="#000099" d="
  M 229.86 180.02
  L 207.69 180.00
  L 216.58 113.44
  A 1.05 1.04 -86.1 0 0 215.55 112.25
  L 205.57 112.25
  A 1.01 1.00 -86.0 0 0 204.58 113.12
  L 195.44 180.00
  L 173.22 179.97
  L 182.12 113.06
  A 0.49 0.48 -83.2 0 0 181.69 112.51
  Q 175.62 111.84 169.55 112.51
  A 0.65 0.62 -88.7 0 0 169.00 113.06
  L 159.69 180.00
  L 137.52 179.98
  L 146.99 114.56
  A 1.59 1.45 73.1 0 1 147.40 113.70
  L 167.40 92.85
  A 1.27 1.15 -66.4 0 1 168.24 92.47
  L 184.55 92.30
  A 0.55 0.51 -0.0 0 0 185.09 91.80
  L 185.23 80.32
  A 0.58 0.56 -89.5 0 1 185.79 79.75
  Q 201.75 79.75 217.50 79.81
  C 236.39 79.88 240.03 56.48 225.69 46.81
  C 220.85 43.55 212.19 46.57 206.99 44.48
  C 195.66 39.94 196.20 20.96 208.16 17.71
  Q 209.86 17.25 219.39 17.25
  Q 231.81 17.25 244.69 17.25
  A 0.56 0.56 -1.9 0 1 245.25 17.81
  L 245.25 28.73
  A 1.03 1.02 -0.0 0 1 244.22 29.75
  L 210.81 29.81
  A 1.10 0.98 17.1 0 0 209.98 30.19
  C 208.36 32.19 210.40 32.97 212.04 32.89
  Q 218.81 32.58 222.50 33.00
  C 235.97 34.55 244.64 47.97 245.29 60.75
  C 245.96 73.99 238.47 88.81 224.49 91.66
  A 1.23 0.64 -2.9 0 0 223.67 92.14
  Q 223.42 92.67 225.00 92.55
  Q 233.03 91.97 241.06 92.41
  A 0.53 0.52 2.8 0 1 241.56 92.95
  Q 241.50 94.24 241.06 97.56
  Q 235.63 138.82 229.86 180.02
  Z
  M 191.79 92.41
  Q 193.03 92.60 194.94 92.40
  Q 196.13 92.28 194.93 92.25
  Q 193.40 92.21 191.81 92.29
  Q 191.19 92.32 191.79 92.41
  Z
  M 199.81 92.34
  Q 206.28 92.63 212.75 92.50
  Q 216.90 92.42 213.25 92.25
  Q 210.76 92.13 199.82 92.31
  Q 199.30 92.31 199.81 92.34
  Z
  M 163.00 105.46
  L 153.58 115.14
  A 1.62 1.37 74.8 0 0 153.18 116.00
  L 145.13 173.20
  A 0.45 0.44 -86.1 0 0 145.57 173.71
  L 153.69 173.71
  A 0.60 0.56 -85.9 0 0 154.25 173.19
  L 163.24 107.05
  A 1.05 0.65 89.8 0 1 163.72 106.27
  Q 163.96 106.17 164.25 106.21
  L 189.19 106.31
  A 0.43 0.43 4.0 0 1 189.62 106.80
  L 180.68 173.25
  A 0.45 0.44 3.9 0 0 181.13 173.75
  L 189.21 173.82
  A 0.70 0.68 3.8 0 0 189.90 173.23
  L 198.99 106.81
  A 0.58 0.57 -86.0 0 1 199.56 106.31
  L 223.55 106.25
  A 0.45 0.45 3.9 0 1 224.00 106.76
  L 214.97 173.20
  A 0.54 0.54 3.7 0 0 215.51 173.81
  L 223.56 173.80
  A 0.58 0.56 4.0 0 0 224.13 173.32
  L 234.26 99.14
  A 0.57 0.56 4.0 0 0 233.70 98.50
  L 170.55 98.50
  A 2.52 2.34 -66.8 0 0 168.79 99.28
  L 163.00 105.46
  Z"
/>
<path fill="#000099" d="
  M 266.61 19.87
  C 269.25 16.96 271.78 17.25 276.29 17.24
  Q 292.36 17.21 308.44 17.31
  A 0.56 0.55 87.1 0 1 308.99 17.81
  Q 309.57 23.31 309.04 29.07
  A 0.75 0.75 2.5 0 1 308.29 29.75
  Q 292.95 29.70 277.42 29.81
  C 276.09 29.82 275.22 30.54 274.84 31.71
  A 0.80 0.80 -81.2 0 0 275.60 32.75
  L 300.26 32.75
  A 0.91 0.85 0.6 0 1 301.17 33.62
  L 300.99 44.68
  A 0.55 0.52 0.5 0 1 300.44 45.19
  L 265.18 45.25
  A 1.16 1.15 89.5 0 1 264.03 44.11
  C 263.92 37.68 262.62 24.29 266.61 19.87
  Z"
/>
<path fill="#000099" d="
  M 345.94 61.04
  L 340.93 61.00
  A 0.68 0.67 0.0 0 1 340.25 60.33
  L 340.25 49.06
  A 0.56 0.56 0.0 0 1 340.81 48.50
  L 356.61 48.50
  A 0.66 0.66 89.1 0 1 357.27 49.14
  Q 357.83 63.22 357.27 75.85
  A 0.92 0.92 -89.0 0 1 356.36 76.73
  Q 346.35 76.90 337.14 76.62
  C 330.75 76.43 326.75 73.40 326.75 66.75
  Q 326.75 49.49 326.75 32.22
  C 326.75 23.76 327.47 16.73 337.47 17.13
  C 348.28 17.56 359.20 17.25 369.88 17.25
  A 0.87 0.87 1.3 0 1 370.75 18.12
  L 370.75 29.09
  A 0.66 0.66 0.4 0 1 370.09 29.75
  L 339.80 29.75
  Q 337.81 29.75 337.75 31.73
  Q 337.35 44.68 337.48 57.62
  C 337.55 64.79 337.87 63.33 344.15 64.03
  C 346.10 64.24 347.47 63.95 346.62 61.52
  A 0.74 0.73 -9.2 0 0 345.94 61.04
  Z"
/>
<path fill="#000099" d="
  M 274.99 61.56
  C 274.74 64.47 279.68 64.40 282.00 64.38
  Q 294.75 64.25 308.33 64.25
  A 0.67 0.67 0.4 0 1 309.00 64.92
  L 309.00 75.89
  A 0.68 0.68 0.9 0 1 308.32 76.57
  Q 291.16 76.46 274.53 76.49
  C 267.81 76.50 264.39 73.46 264.15 66.88
  Q 263.86 58.77 264.03 49.59
  A 1.11 1.11 -89.5 0 1 265.14 48.50
  L 300.58 48.50
  A 0.67 0.67 0.4 0 1 301.25 49.17
  L 301.25 59.98
  A 1.03 1.02 0.0 0 1 300.22 61.00
  L 275.55 61.06
  A 0.56 0.54 2.2 0 0 274.99 61.56
  Z"
/>
<path fill="#000099" d="
  M 382.96 91.75
  L 383.29 92.25
  L 397.30 111.87
  Q 397.62 112.32 397.06 112.32
  L 359.91 112.25
  A 0.66 0.64 -85.9 0 0 359.27 112.82
  L 353.00 159.49
  A 0.45 0.44 -86.1 0 0 353.44 160.00
  L 368.02 160.00
  A 0.83 0.82 4.0 0 0 368.84 159.30
  L 370.51 146.93
  A 0.46 0.46 4.4 0 0 370.06 146.41
  L 357.60 146.24
  Q 356.13 146.22 357.21 145.25
  L 377.84 126.85
  A 2.35 2.35 24.1 0 1 379.41 126.25
  L 394.99 126.25
  A 0.75 0.75 4.0 0 1 395.73 127.10
  L 388.34 180.02
  L 329.19 180.00
  L 338.49 113.31
  A 1.62 1.37 74.8 0 1 338.89 112.45
  L 358.21 92.48
  L 379.74 92.16
  Q 381.06 92.80 382.96 91.75
  Z
  M 355.56 106.31
  L 386.10 106.25
  Q 386.75 106.25 386.37 105.72
  L 381.48 98.98
  A 1.01 0.95 71.2 0 0 380.69 98.56
  L 359.28 98.50
  A 1.66 1.57 -67.8 0 0 358.09 99.04
  L 345.28 113.32
  A 1.64 1.46 -22.7 0 0 344.87 114.18
  L 336.67 173.31
  A 0.39 0.39 3.8 0 0 337.06 173.75
  L 382.08 173.75
  A 0.83 0.83 -86.0 0 0 382.90 173.03
  L 388.32 132.97
  A 0.63 0.63 -86.0 0 0 387.70 132.25
  L 380.19 132.25
  A 2.49 2.40 -64.2 0 0 378.62 132.83
  L 371.16 139.14
  Q 370.09 140.05 371.52 140.07
  L 377.57 140.13
  A 0.50 0.45 -85.5 0 1 378.00 140.69
  L 374.61 165.45
  A 0.64 0.63 3.6 0 1 373.98 166.00
  L 347.44 166.06
  A 0.44 0.44 3.9 0 1 347.00 165.56
  L 354.99 106.80
  A 0.58 0.57 4.0 0 1 355.56 106.31
  Z"
/>
<path fill="#000099" d="
  M 59.31 180.02
  L 0.00 180.00
  L 0.00 178.69
  L 9.49 113.06
  A 1.64 1.41 75.4 0 1 9.91 112.20
  L 28.96 92.66
  A 1.19 1.15 21.4 0 1 29.80 92.31
  L 53.20 92.25
  A 1.88 1.83 71.7 0 1 54.70 93.03
  L 68.19 111.66
  Q 68.62 112.25 67.90 112.25
  L 30.97 112.25
  A 0.71 0.70 3.7 0 0 30.27 112.86
  L 23.98 159.37
  A 0.56 0.56 -86.4 0 0 24.53 160.00
  L 38.86 160.00
  A 0.98 0.95 3.3 0 0 39.83 159.16
  L 41.39 146.82
  A 0.47 0.45 -86.6 0 0 40.94 146.30
  L 28.19 146.26
  Q 26.97 146.26 27.88 145.44
  L 49.13 126.58
  A 1.31 1.30 23.9 0 1 50.00 126.25
  L 65.81 126.25
  A 0.78 0.78 3.9 0 1 66.58 127.13
  L 59.31 180.02
  Z
  M 17.88 165.44
  L 25.87 106.93
  A 0.58 0.56 -85.9 0 1 26.43 106.43
  L 56.48 106.26
  Q 57.67 106.25 56.98 105.32
  L 52.25 98.95
  A 1.04 0.96 -16.5 0 0 51.43 98.55
  L 30.05 98.56
  A 1.19 1.08 -66.7 0 0 29.22 98.94
  L 16.15 113.44
  A 1.70 1.61 -21.3 0 0 15.74 114.31
  L 7.63 173.20
  A 0.43 0.42 -85.9 0 0 8.05 173.69
  L 53.19 173.69
  A 0.58 0.57 -86.0 0 0 53.76 173.19
  L 59.19 133.09
  A 0.72 0.72 -86.1 0 0 58.48 132.27
  L 50.56 132.30
  A 1.50 1.23 -60.6 0 0 49.68 132.64
  L 42.29 138.97
  Q 41.09 139.99 42.73 140.04
  L 48.45 140.22
  A 0.52 0.45 -84.5 0 1 48.87 140.81
  L 45.49 165.56
  A 0.58 0.58 4.4 0 1 44.90 166.06
  L 18.31 165.94
  A 0.44 0.43 -86.0 0 1 17.88 165.44
  Z"
/>
<path fill="#000099" d="
  M 128.08 180.02
  L 68.94 180.00
  L 73.36 146.68
  A 1.47 1.41 -18.7 0 1 73.80 145.84
  L 94.13 126.60
  A 1.29 1.18 21.0 0 1 95.00 126.26
  L 112.31 126.08
  A 0.62 0.59 3.7 0 0 112.92 125.57
  L 114.60 113.17
  A 0.85 0.81 3.8 0 0 113.75 112.25
  L 80.10 112.25
  Q 79.47 112.25 79.92 111.83
  L 100.43 92.65
  A 1.32 1.23 21.8 0 1 101.31 92.31
  L 140.48 92.25
  A 0.80 0.79 -85.6 0 1 141.26 93.17
  L 128.08 180.02
  Z
  M 122.13 106.81
  L 118.77 131.70
  A 0.59 0.57 3.9 0 1 118.19 132.19
  L 97.34 132.25
  A 2.35 2.30 21.7 0 0 95.67 132.95
  L 80.35 148.88
  A 1.67 1.52 -21.5 0 0 79.92 149.75
  L 76.38 173.20
  A 0.43 0.42 4.5 0 0 76.81 173.69
  L 104.73 173.75
  A 0.52 0.50 3.8 0 0 105.24 173.32
  L 106.14 166.80
  A 0.46 0.44 4.0 0 0 105.69 166.31
  L 87.19 166.08
  A 0.47 0.46 3.9 0 1 86.73 165.57
  L 90.10 140.68
  A 0.61 0.59 3.8 0 1 90.70 140.17
  L 117.06 140.17
  A 0.45 0.45 3.9 0 1 117.51 140.68
  L 113.23 173.07
  A 0.77 0.74 3.2 0 0 114.01 173.90
  L 121.80 173.78
  A 0.65 0.61 3.0 0 0 122.43 173.25
  L 132.53 99.01
  A 0.45 0.45 3.9 0 0 132.08 98.50
  L 103.13 98.50
  A 1.85 1.80 -67.0 0 0 101.84 99.04
  L 94.99 105.89
  Q 94.62 106.25 95.14 106.25
  L 121.70 106.31
  A 0.44 0.43 -86.0 0 1 122.13 106.81
  Z
  M 108.33 159.34
  L 110.08 147.00
  A 0.69 0.65 3.9 0 0 109.39 146.25
  L 96.80 146.25
  A 1.09 1.04 3.6 0 0 95.73 147.15
  L 94.11 159.44
  A 0.45 0.45 3.9 0 0 94.56 159.95
  L 107.60 159.94
  A 0.74 0.70 4.0 0 0 108.33 159.34
  Z"
/>
<path fill="#000099" d="
  M 191.81 92.29
  Q 193.40 92.21 194.93 92.25
  Q 196.13 92.28 194.94 92.40
  Q 193.03 92.60 191.79 92.41
  Q 191.19 92.32 191.81 92.29
  Z"
/>
<path fill="#000099" d="
  M 199.82 92.31
  Q 210.76 92.13 213.25 92.25
  Q 216.90 92.42 212.75 92.50
  Q 206.28 92.63 199.81 92.34
  Q 199.30 92.31 199.82 92.31
  Z"
/>
<path fill="#000099" d="
  M 305.04 92.50
  L 302.55 111.42
  A 0.99 0.96 3.6 0 1 301.57 112.25
  L 270.48 112.25
  A 1.09 1.09 3.9 0 0 269.40 113.19
  L 267.70 125.65
  A 0.53 0.52 4.2 0 0 268.22 126.25
  L 300.06 126.25
  A 0.50 0.50 3.5 0 1 300.56 126.81
  L 298.01 145.65
  A 0.70 0.69 3.8 0 1 297.32 146.25
  L 265.49 146.25
  A 0.69 0.69 -86.2 0 0 264.81 146.85
  L 263.19 159.18
  A 0.74 0.73 4.2 0 0 263.91 160.01
  L 295.31 160.18
  A 0.48 0.46 -87.7 0 1 295.77 160.70
  Q 295.01 170.42 293.19 180.00
  L 239.32 179.98
  L 248.74 113.06
  A 1.59 1.45 73.1 0 1 249.15 112.20
  L 268.51 92.35
  L 305.04 92.50
  Z
  M 261.63 131.69
  L 265.10 106.84
  A 0.69 0.68 3.8 0 1 265.78 106.25
  L 296.15 106.25
  A 0.70 0.67 3.8 0 0 296.84 105.67
  L 297.65 99.06
  A 0.46 0.45 3.3 0 0 297.19 98.56
  L 272.00 98.50
  A 1.19 1.18 -67.8 0 0 271.15 98.86
  L 255.65 114.73
  A 2.81 2.78 -19.0 0 0 254.89 116.27
  L 246.75 173.24
  A 0.45 0.44 -86.1 0 0 247.19 173.75
  L 286.93 173.69
  A 0.63 0.55 3.0 0 0 287.55 173.21
  L 288.42 166.81
  A 0.49 0.44 3.6 0 0 287.93 166.31
  L 257.68 166.07
  A 0.45 0.45 4.5 0 1 257.24 165.56
  L 260.57 140.80
  A 0.87 0.85 3.8 0 1 261.43 140.06
  L 291.49 140.00
  A 0.66 0.58 3.5 0 0 292.13 139.50
  L 293.05 132.93
  A 0.48 0.44 3.6 0 0 292.57 132.43
  L 262.06 132.19
  A 0.44 0.44 4.6 0 1 261.63 131.69
  Z"
/>
<path fill="#000099" d="
  M 427.00 92.29
  L 446.92 92.40
  L 463.11 92.30
  A 0.58 0.58 -85.7 0 1 463.68 92.97
  L 461.14 111.57
  A 0.59 0.58 3.9 0 1 460.56 112.07
  L 428.81 112.31
  A 0.62 0.58 3.2 0 0 428.21 112.81
  L 426.47 125.57
  A 0.47 0.44 3.7 0 0 426.94 126.07
  L 458.34 126.24
  A 0.86 0.86 2.7 0 1 459.18 127.22
  L 456.69 145.45
  A 0.93 0.91 -86.0 0 1 455.79 146.25
  L 424.63 146.25
  A 1.11 1.05 3.5 0 0 423.54 147.16
  L 421.85 159.44
  A 0.46 0.45 3.3 0 0 422.31 159.94
  L 454.09 160.00
  A 0.46 0.45 3.8 0 1 454.55 160.51
  L 451.69 180.00
  L 397.94 180.00
  L 407.37 112.93
  A 1.56 1.47 72.4 0 1 407.78 112.08
  L 427.00 92.29
  Z
  M 429.65 98.86
  C 427.77 100.77 413.71 114.53 413.56 115.56
  Q 409.44 144.24 405.40 173.21
  A 0.49 0.48 4.6 0 0 405.88 173.76
  L 445.44 173.93
  A 0.66 0.56 3.5 0 0 446.08 173.45
  L 447.02 166.54
  A 0.48 0.43 3.2 0 0 446.54 166.06
  L 416.42 166.24
  A 0.77 0.76 -86.0 0 1 415.67 165.37
  L 419.07 140.54
  A 0.63 0.62 3.7 0 1 419.69 140.00
  L 450.37 140.00
  A 0.63 0.61 -86.9 0 0 450.98 139.44
  L 451.65 132.96
  A 0.64 0.64 3.2 0 0 451.01 132.25
  L 420.66 132.25
  A 0.45 0.44 -86.1 0 1 420.22 131.74
  L 423.52 107.14
  A 1.03 1.03 3.8 0 1 424.54 106.25
  L 454.93 106.19
  A 0.59 0.56 2.7 0 0 455.51 105.69
  L 456.16 99.07
  A 0.47 0.46 2.8 0 0 455.69 98.56
  L 430.50 98.50
  A 1.19 1.18 -67.8 0 0 429.65 98.86
  Z"
/>
<path fill="#000099" d="
  M 519.19 180.00
  L 460.10 179.99
  L 464.39 147.30
  A 2.95 2.86 -18.7 0 1 465.28 145.56
  L 485.28 126.60
  A 1.31 1.27 22.7 0 1 486.17 126.25
  L 503.29 126.25
  A 1.03 1.01 3.8 0 0 504.31 125.38
  L 505.90 113.05
  A 0.72 0.71 3.5 0 0 505.18 112.25
  L 471.28 112.32
  Q 470.40 112.32 471.04 111.71
  L 491.12 92.78
  A 1.94 1.93 -66.7 0 1 492.45 92.25
  L 531.87 92.25
  A 0.53 0.53 4.6 0 1 532.39 92.86
  L 519.19 180.00
  Z
  M 513.38 106.81
  L 510.00 131.74
  A 0.61 0.59 3.8 0 1 509.40 132.25
  L 488.25 132.25
  A 1.22 1.09 19.6 0 0 487.40 132.60
  L 471.40 149.19
  A 1.59 1.45 73.1 0 0 470.99 150.05
  L 467.50 173.24
  A 0.44 0.44 4.4 0 0 467.94 173.75
  L 495.94 173.69
  A 0.58 0.56 -85.9 0 0 496.50 173.19
  L 497.36 166.80
  A 0.43 0.42 -85.8 0 0 496.95 166.31
  L 478.64 166.25
  A 0.90 0.90 3.9 0 1 477.75 165.23
  L 481.06 140.79
  A 0.92 0.91 -86.0 0 1 481.96 140.00
  L 508.35 140.00
  A 0.50 0.50 3.5 0 1 508.85 140.56
  L 504.50 173.24
  A 0.45 0.44 -86.1 0 0 504.94 173.75
  L 512.72 173.75
  A 0.90 0.89 3.6 0 0 513.61 172.97
  L 523.62 99.06
  A 0.45 0.44 -86.0 0 0 523.19 98.55
  L 493.57 98.79
  A 1.27 1.24 -67.5 0 0 492.71 99.16
  L 486.55 105.43
  Q 485.75 106.25 486.90 106.25
  L 512.95 106.31
  A 0.44 0.43 -86.0 0 1 513.38 106.81
  Z
  M 486.94 146.70
  L 485.25 159.49
  A 0.46 0.45 3.8 0 0 485.71 160.00
  L 499.12 160.00
  A 0.66 0.64 -85.9 0 0 499.76 159.43
  L 501.43 147.18
  A 0.82 0.80 -85.9 0 0 500.64 146.25
  L 487.46 146.25
  A 0.53 0.52 3.7 0 0 486.94 146.70
  Z"
/>
<path fill="#000099" d="
  M 600.01 92.66
  L 600.00 93.31
  L 595.75 123.69
  A 1.75 1.31 76.6 0 1 595.37 124.57
  L 583.80 137.33
  A 0.53 0.52 -42.3 0 0 583.76 138.01
  L 592.13 148.91
  A 1.24 1.18 31.6 0 1 592.37 149.81
  L 587.94 180.00
  L 567.19 180.00
  L 571.43 146.99
  A 0.46 0.44 -86.0 0 0 571.00 146.47
  L 554.94 146.41
  A 0.60 0.57 -86.0 0 0 554.37 146.93
  L 549.69 180.00
  L 528.69 180.00
  L 538.18 112.99
  A 1.48 1.46 72.1 0 1 538.61 112.14
  L 558.64 92.78
  A 1.91 1.85 22.1 0 1 559.92 92.26
  Q 580.26 91.94 600.01 92.66
  Z
  M 579.70 131.41
  L 588.63 123.35
  A 1.43 1.31 74.9 0 0 589.07 122.50
  L 592.39 98.96
  A 0.40 0.40 4.3 0 0 591.99 98.50
  L 561.38 98.50
  A 1.23 1.22 21.9 0 0 560.50 98.87
  L 544.96 114.90
  A 2.17 2.14 -19.2 0 0 544.38 116.08
  L 536.18 173.22
  A 0.46 0.45 -86.1 0 0 536.63 173.74
  L 544.69 173.70
  A 0.58 0.57 -86.0 0 0 545.26 173.20
  L 549.87 140.69
  A 0.60 0.58 -86.5 0 1 550.44 140.17
  L 577.04 140.01
  A 0.62 0.58 3.7 0 0 577.65 139.51
  L 578.48 133.80
  A 4.18 3.61 76.3 0 1 579.70 131.41
  Z
  M 577.56 141.32
  L 573.22 173.27
  A 0.49 0.46 4.8 0 0 573.69 173.79
  L 581.24 173.97
  A 1.21 1.11 4.9 0 0 582.46 173.03
  L 585.75 151.81
  A 2.02 1.92 -59.9 0 0 585.40 150.33
  L 578.48 141.08
  Q 577.73 140.08 577.56 141.32
  Z"
/>
<path fill="#ffffff" d="
  M 18.31 165.94
  L 44.90 166.06
  A 0.58 0.58 4.4 0 0 45.49 165.56
  L 48.87 140.81
  A 0.52 0.45 -84.5 0 0 48.45 140.22
  L 42.73 140.04
  Q 41.09 139.99 42.29 138.97
  L 49.68 132.64
  A 1.50 1.23 -60.6 0 1 50.56 132.30
  L 58.48 132.27
  A 0.72 0.72 -86.1 0 1 59.19 133.09
  L 53.76 173.19
  A 0.58 0.57 -86.0 0 1 53.19 173.69
  L 8.05 173.69
  A 0.43 0.42 -85.9 0 1 7.63 173.20
  L 15.74 114.31
  A 1.70 1.61 -21.3 0 1 16.15 113.44
  L 29.22 98.94
  A 1.19 1.08 -66.7 0 1 30.05 98.56
  L 51.43 98.55
  A 1.04 0.96 -16.5 0 1 52.25 98.95
  L 56.98 105.32
  Q 57.67 106.25 56.48 106.26
  L 26.43 106.43
  A 0.58 0.56 -85.9 0 0 25.87 106.93
  L 17.88 165.44
  A 0.44 0.43 -86.0 0 0 18.31 165.94
  Z"
/>
<path fill="#ffffff" d="
  M 121.70 106.31
  L 95.14 106.25
  Q 94.62 106.25 94.99 105.89
  L 101.84 99.04
  A 1.85 1.80 -67.0 0 1 103.13 98.50
  L 132.08 98.50
  A 0.45 0.45 3.9 0 1 132.53 99.01
  L 122.43 173.25
  A 0.65 0.61 3.0 0 1 121.80 173.78
  L 114.01 173.90
  A 0.77 0.74 3.2 0 1 113.23 173.07
  L 117.51 140.68
  A 0.45 0.45 3.9 0 0 117.06 140.17
  L 90.70 140.17
  A 0.61 0.59 3.8 0 0 90.10 140.68
  L 86.73 165.57
  A 0.47 0.46 3.9 0 0 87.19 166.08
  L 105.69 166.31
  A 0.46 0.44 4.0 0 1 106.14 166.80
  L 105.24 173.32
  A 0.52 0.50 3.8 0 1 104.73 173.75
  L 76.81 173.69
  A 0.43 0.42 4.5 0 1 76.38 173.20
  L 79.92 149.75
  A 1.67 1.52 -21.5 0 1 80.35 148.88
  L 95.67 132.95
  A 2.35 2.30 21.7 0 1 97.34 132.25
  L 118.19 132.19
  A 0.59 0.57 3.9 0 0 118.77 131.70
  L 122.13 106.81
  A 0.44 0.43 -86.0 0 0 121.70 106.31
  Z"
/>
<path fill="#ffffff" d="
  M 164.25 106.21
  Q 163.71 105.68 163.00 105.46
  L 168.79 99.28
  A 2.52 2.34 -66.8 0 1 170.55 98.50
  L 233.70 98.50
  A 0.57 0.56 4.0 0 1 234.26 99.14
  L 224.13 173.32
  A 0.58 0.56 4.0 0 1 223.56 173.80
  L 215.51 173.81
  A 0.54 0.54 3.7 0 1 214.97 173.20
  L 224.00 106.76
  A 0.45 0.45 3.9 0 0 223.55 106.25
  L 199.56 106.31
  A 0.58 0.57 -86.0 0 0 198.99 106.81
  L 189.90 173.23
  A 0.70 0.68 3.8 0 1 189.21 173.82
  L 181.13 173.75
  A 0.45 0.44 3.9 0 1 180.68 173.25
  L 189.62 106.80
  A 0.43 0.43 4.0 0 0 189.19 106.31
  L 164.25 106.21
  Z"
/>
<path fill="#ffffff" d="
  M 262.06 132.19
  L 292.57 132.43
  A 0.48 0.44 3.6 0 1 293.05 132.93
  L 292.13 139.50
  A 0.66 0.58 3.5 0 1 291.49 140.00
  L 261.43 140.06
  A 0.87 0.85 3.8 0 0 260.57 140.80
  L 257.24 165.56
  A 0.45 0.45 4.5 0 0 257.68 166.07
  L 287.93 166.31
  A 0.49 0.44 3.6 0 1 288.42 166.81
  L 287.55 173.21
  A 0.63 0.55 3.0 0 1 286.93 173.69
  L 247.19 173.75
  A 0.45 0.44 -86.1 0 1 246.75 173.24
  L 254.89 116.27
  A 2.81 2.78 -19.0 0 1 255.65 114.73
  L 271.15 98.86
  A 1.19 1.18 -67.8 0 1 272.00 98.50
  L 297.19 98.56
  A 0.46 0.45 3.3 0 1 297.65 99.06
  L 296.84 105.67
  A 0.70 0.67 3.8 0 1 296.15 106.25
  L 265.78 106.25
  A 0.69 0.68 3.8 0 0 265.10 106.84
  L 261.63 131.69
  A 0.44 0.44 4.6 0 0 262.06 132.19
  Z"
/>
<path fill="#ffffff" d="
  M 354.99 106.80
  L 347.00 165.56
  A 0.44 0.44 3.9 0 0 347.44 166.06
  L 373.98 166.00
  A 0.64 0.63 3.6 0 0 374.61 165.45
  L 378.00 140.69
  A 0.50 0.45 -85.5 0 0 377.57 140.13
  L 371.52 140.07
  Q 370.09 140.05 371.16 139.14
  L 378.62 132.83
  A 2.49 2.40 -64.2 0 1 380.19 132.25
  L 387.70 132.25
  A 0.63 0.63 -86.0 0 1 388.32 132.97
  L 382.90 173.03
  A 0.83 0.83 -86.0 0 1 382.08 173.75
  L 337.06 173.75
  A 0.39 0.39 3.8 0 1 336.67 173.31
  L 344.87 114.18
  A 1.64 1.46 -22.7 0 1 345.28 113.32
  L 358.09 99.04
  A 1.66 1.57 -67.8 0 1 359.28 98.50
  L 380.69 98.56
  A 1.01 0.95 71.2 0 1 381.48 98.98
  L 386.37 105.72
  Q 386.75 106.25 386.10 106.25
  L 355.56 106.31
  A 0.58 0.57 4.0 0 0 354.99 106.80
  Z"
/>
<path fill="#ffffff" d="
  M 413.56 115.56
  C 413.71 114.53 427.77 100.77 429.65 98.86
  A 1.19 1.18 -67.8 0 1 430.50 98.50
  L 455.69 98.56
  A 0.47 0.46 2.8 0 1 456.16 99.07
  L 455.51 105.69
  A 0.59 0.56 2.7 0 1 454.93 106.19
  L 424.54 106.25
  A 1.03 1.03 3.8 0 0 423.52 107.14
  L 420.22 131.74
  A 0.45 0.44 -86.1 0 0 420.66 132.25
  L 451.01 132.25
  A 0.64 0.64 3.2 0 1 451.65 132.96
  L 450.98 139.44
  A 0.63 0.61 -86.9 0 1 450.37 140.00
  L 419.69 140.00
  A 0.63 0.62 3.7 0 0 419.07 140.54
  L 415.67 165.37
  A 0.77 0.76 -86.0 0 0 416.42 166.24
  L 446.54 166.06
  A 0.48 0.43 3.2 0 1 447.02 166.54
  L 446.08 173.45
  A 0.66 0.56 3.5 0 1 445.44 173.93
  L 405.88 173.76
  A 0.49 0.48 4.6 0 1 405.40 173.21
  Q 409.44 144.24 413.56 115.56
  Z"
/>
<path fill="#ffffff" d="
  M 512.95 106.31
  L 486.90 106.25
  Q 485.75 106.25 486.55 105.43
  L 492.71 99.16
  A 1.27 1.24 -67.5 0 1 493.57 98.79
  L 523.19 98.55
  A 0.45 0.44 -86.0 0 1 523.62 99.06
  L 513.61 172.97
  A 0.90 0.89 3.6 0 1 512.72 173.75
  L 504.94 173.75
  A 0.45 0.44 -86.1 0 1 504.50 173.24
  L 508.85 140.56
  A 0.50 0.50 3.5 0 0 508.35 140.00
  L 481.96 140.00
  A 0.92 0.91 -86.0 0 0 481.06 140.79
  L 477.75 165.23
  A 0.90 0.90 3.9 0 0 478.64 166.25
  L 496.95 166.31
  A 0.43 0.42 -85.8 0 1 497.36 166.80
  L 496.50 173.19
  A 0.58 0.56 -85.9 0 1 495.94 173.69
  L 467.94 173.75
  A 0.44 0.44 4.4 0 1 467.50 173.24
  L 470.99 150.05
  A 1.59 1.45 73.1 0 1 471.40 149.19
  L 487.40 132.60
  A 1.22 1.09 19.6 0 1 488.25 132.25
  L 509.40 132.25
  A 0.61 0.59 3.8 0 0 510.00 131.74
  L 513.38 106.81
  A 0.44 0.43 -86.0 0 0 512.95 106.31
  Z"
/>
<path fill="#ffffff" d="
  M 579.70 131.41
  A 4.18 3.61 76.3 0 0 578.48 133.80
  L 577.65 139.51
  A 0.62 0.58 3.7 0 1 577.04 140.01
  L 550.44 140.17
  A 0.60 0.58 -86.5 0 0 549.87 140.69
  L 545.26 173.20
  A 0.58 0.57 -86.0 0 1 544.69 173.70
  L 536.63 173.74
  A 0.46 0.45 -86.1 0 1 536.18 173.22
  L 544.38 116.08
  A 2.17 2.14 -19.2 0 1 544.96 114.90
  L 560.50 98.87
  A 1.23 1.22 21.9 0 1 561.38 98.50
  L 591.99 98.50
  A 0.40 0.40 4.3 0 1 592.39 98.96
  L 589.07 122.50
  A 1.43 1.31 74.9 0 1 588.63 123.35
  L 579.70 131.41
  Z
  M 554.02 110.31
  Q 552.45 120.98 551.12 131.70
  A 0.45 0.44 -86.6 0 0 551.56 132.20
  L 578.06 132.08
  A 0.60 0.59 3.4 0 0 578.64 131.57
  L 582.13 106.82
  A 0.45 0.44 -86.1 0 0 581.69 106.31
  Q 569.90 106.21 558.10 106.25
  C 553.40 106.26 554.62 106.27 554.02 110.31
  Z"
/>
<path fill="#ffffff" d="
  M 163.00 105.46
  Q 163.71 105.68 164.25 106.21
  Q 163.96 106.17 163.72 106.27
  A 1.05 0.65 89.8 0 0 163.24 107.05
  L 154.25 173.19
  A 0.60 0.56 -85.9 0 1 153.69 173.71
  L 145.57 173.71
  A 0.45 0.44 -86.1 0 1 145.13 173.20
  L 153.18 116.00
  A 1.62 1.37 74.8 0 1 153.58 115.14
  L 163.00 105.46
  Z"
/>
<path fill="#000099" d="
  M 554.02 110.31
  C 554.62 106.27 553.40 106.26 558.10 106.25
  Q 569.90 106.21 581.69 106.31
  A 0.45 0.44 -86.1 0 1 582.13 106.82
  L 578.64 131.57
  A 0.60 0.59 3.4 0 1 578.06 132.08
  L 551.56 132.20
  A 0.45 0.44 -86.6 0 1 551.12 131.70
  Q 552.45 120.98 554.02 110.31
  Z
  M 558.96 112.99
  L 557.25 125.74
  A 0.46 0.45 3.8 0 0 557.71 126.25
  L 573.06 126.25
  A 1.44 1.42 -86.3 0 0 574.47 124.99
  L 576.01 113.17
  A 0.77 0.74 -85.9 0 0 575.28 112.30
  L 559.75 112.31
  A 0.80 0.78 3.7 0 0 558.96 112.99
  Z"
/>
<path fill="#ffffff" d="
  M 577.56 141.32
  Q 577.73 140.08 578.48 141.08
  L 585.40 150.33
  A 2.02 1.92 -59.9 0 1 585.75 151.81
  L 582.46 173.03
  A 1.21 1.11 4.9 0 1 581.24 173.97
  L 573.69 173.79
  A 0.49 0.46 4.8 0 1 573.22 173.27
  L 577.56 141.32
  Z"
/>
</svg>
