<?xml version="1.0" encoding="UTF-8" standalone="no"?>
<!DOCTYPE svg PUBLIC "-//W3C//DTD SVG 1.1//EN" "http://www.w3.org/Graphics/SVG/1.1/DTD/svg11.dtd">
<svg xmlns="http://www.w3.org/2000/svg" version="1.1" viewBox="0 0 600 204">
<g stroke-width="2.00" fill="none" stroke-linecap="butt">
<path stroke="#f59124" vector-effect="non-scaling-stroke" d="
  M 20.96 40.44
  L 57.35 55.98
  A 1.44 0.93 81.0 0 1 57.96 56.66
  Q 58.20 57.19 58.69 57.36
  A 0.43 0.38 -81.1 0 0 59.20 56.94
  Q 59.28 53.78 59.26 50.62
  C 59.25 49.73 59.83 47.51 57.93 48.50
  A 1.10 0.94 -44.3 0 1 57.03 48.56
  L 49.08 45.13
  A 1.00 0.96 -78.9 0 1 48.50 44.22
  L 48.50 27.38
  A 0.96 0.86 79.2 0 1 49.01 26.53
  L 57.28 22.91
  A 0.88 0.69 50.6 0 1 58.11 23.09
  Q 59.63 24.37 59.48 21.74
  Q 59.25 17.62 59.25 13.83
  Q 59.25 12.12 58.32 13.55
  Q 57.49 14.83 56.08 15.44
  Q 38.68 22.95 20.71 30.83
  A 0.84 0.84 57.0 0 1 19.77 30.63
  C 17.61 28.29 18.53 39.62 18.55 40.69
  A 0.39 0.34 77.8 0 0 19.04 41.06
  L 20.10 40.55
  A 1.21 0.67 -36.3 0 1 20.96 40.44"
/>
<path stroke="#f59124" vector-effect="non-scaling-stroke" d="
  M 585.50 14.33
  A 0.58 0.58 0.0 0 0 584.92 13.75
  L 71.58 13.75
  A 0.58 0.58 0.0 0 0 71.00 14.33
  L 71.00 191.67
  A 0.58 0.58 0.0 0 0 71.58 192.25
  L 584.92 192.25
  A 0.58 0.58 0.0 0 0 585.50 191.67
  L 585.50 14.33"
/>
<path stroke="#f59124" vector-effect="non-scaling-stroke" d="
  M 46.79 93.01
  C 42.21 96.18 33.03 96.41 28.69 91.31
  Q 19.29 80.28 26.46 67.65
  Q 27.22 66.31 28.77 66.25
  Q 30.64 66.18 29.04 65.22
  Q 26.07 63.46 23.12 61.36
  Q 20.96 59.81 21.60 62.03
  A 1.33 1.18 52.9 0 1 21.53 62.94
  C 16.93 72.26 15.97 81.77 20.50 91.00
  Q 26.79 103.83 41.25 102.73
  C 55.29 101.68 61.24 88.72 59.49 76.00
  Q 58.32 67.56 53.74 59.64
  A 0.57 0.57 61.8 0 0 52.98 59.41
  C 49.52 61.23 41.55 60.32 38.29 59.45
  A 0.38 0.37 7.7 0 0 37.81 59.81
  C 37.77 62.52 38.35 77.04 36.98 78.29
  A 0.66 0.33 -43.4 0 0 36.72 79.01
  C 37.29 79.50 42.74 79.25 43.87 79.25
  Q 45.33 79.25 44.17 78.36
  C 42.65 77.19 43.33 68.69 43.65 66.41
  A 0.78 0.78 4.3 0 1 44.42 65.75
  L 49.05 65.75
  A 1.99 1.99 77.3 0 1 50.85 66.89
  C 54.90 75.33 54.99 87.33 46.79 93.01"
/>
<path stroke="#f59124" vector-effect="non-scaling-stroke" d="
  M 41.80 131.93
  L 41.80 115.56
  A 1.43 1.15 -29.1 0 1 42.15 114.70
  Q 43.62 113.01 41.44 113.17
  C 38.99 113.34 36.52 113.23 34.07 113.30
  Q 33.62 113.31 33.94 113.65
  Q 35.00 114.78 35.00 117.00
  Q 35.00 124.25 35.00 131.99
  A 0.51 0.51 1.3 0 1 34.49 132.50
  L 25.67 132.50
  A 0.67 0.67 -0.0 0 1 25.00 131.83
  Q 25.00 119.62 25.00 108.00
  Q 25.00 106.00 26.10 105.04
  Q 26.45 104.74 26.00 104.65
  Q 22.77 104.05 19.51 104.43
  C 18.76 104.52 16.38 103.43 17.92 105.58
  A 3.16 3.14 27.5 0 1 18.50 107.40
  L 18.50 141.03
  Q 18.50 141.89 19.06 141.23
  C 20.31 139.73 20.97 140.00 22.70 140.00
  Q 38.62 140.00 54.53 140.00
  C 56.10 140.00 57.71 139.58 58.58 141.19
  Q 59.25 142.42 59.25 141.02
  L 59.31 106.31
  A 1.79 0.89 -44.2 0 1 59.62 105.43
  L 60.21 104.51
  Q 60.50 104.06 59.94 104.06
  C 59.72 104.05 49.05 103.12 52.23 105.13
  A 1.15 1.13 16.9 0 1 52.75 106.08
  L 52.75 131.65
  A 0.85 0.84 -89.7 0 1 51.90 132.50
  L 42.32 132.45
  A 0.52 0.52 0.1 0 1 41.80 131.93"
/>
<path stroke="#f59124" vector-effect="non-scaling-stroke" d="
  M 33.23 155.01
  C 36.38 154.81 56.73 153.95 58.46 155.71
  Q 59.25 156.51 59.25 155.39
  Q 59.25 151.63 59.42 148.26
  Q 59.59 144.81 58.04 146.84
  A 1.07 0.98 -70.5 0 1 57.25 147.26
  C 52.67 147.34 20.81 148.16 19.20 146.46
  Q 18.50 145.72 18.50 146.74
  Q 18.50 151.75 18.48 156.75
  Q 18.48 158.09 19.60 156.70
  A 1.04 1.02 32.9 0 1 20.87 156.44
  L 43.95 168.32
  Q 44.65 168.68 43.95 169.03
  L 21.16 180.39
  A 1.19 1.19 -32.8 0 1 19.71 180.08
  C 17.91 177.94 18.50 181.01 18.50 181.81
  Q 18.50 186.03 18.50 190.27
  Q 18.50 191.16 19.11 190.50
  Q 20.08 189.45 21.75 189.46
  C 25.47 189.47 57.53 189.11 58.15 190.05
  Q 59.25 191.73 59.25 189.72
  L 59.25 182.22
  Q 59.25 181.78 58.91 182.06
  Q 57.22 183.42 55.52 183.32
  C 47.85 182.85 39.97 183.28 32.25 183.02
  Q 31.73 183.00 32.19 182.78
  L 58.45 169.93
  Q 59.96 169.19 58.48 168.45
  L 33.09 155.71
  Q 31.85 155.09 33.23 155.01"
/>
<path stroke="#f59124" vector-effect="non-scaling-stroke" d="
  M 41.54 42.16
  A 0.34 0.34 12.0 0 0 42.01 41.84
  L 41.99 30.36
  A 0.34 0.34 -12.8 0 0 41.52 30.05
  L 28.28 35.81
  A 0.34 0.34 46.6 0 0 28.28 36.44
  L 41.54 42.16"
/>
<path stroke="#f59124" vector-effect="non-scaling-stroke" d="
  M 543.96 68.85
  Q 554.07 58.76 564.63 49.14
  C 569.63 44.59 574.85 36.06 565.93 32.70
  C 560.40 30.61 555.05 34.53 550.95 38.20
  Q 535.52 52.01 521.45 67.20
  C 517.49 71.49 507.59 77.83 501.56 74.44
  C 484.35 64.74 471.17 28.00 449.50 29.50
  C 444.50 29.85 428.94 34.59 432.31 42.94
  Q 434.07 47.30 438.95 52.06
  C 451.97 64.78 465.62 76.04 477.56 89.94
  C 481.63 94.67 480.13 99.14 476.44 103.44
  C 462.63 119.49 446.45 136.24 430.94 155.67
  Q 428.12 159.20 426.68 163.73
  Q 426.00 165.86 427.57 167.45
  Q 429.78 169.69 433.75 169.80
  C 442.93 170.04 449.51 164.06 455.01 157.52
  C 462.68 148.39 471.47 140.57 479.29 131.71
  C 483.76 126.64 488.02 120.09 494.94 123.56
  Q 500.43 126.32 506.60 132.65
  C 513.89 140.13 520.88 148.57 526.69 157.24
  Q 535.50 170.37 552.01 169.15
  C 584.39 166.76 561.06 148.79 552.67 139.38
  Q 547.55 133.63 542.41 127.88
  C 537.52 122.40 528.52 113.65 522.42 105.72
  Q 520.89 103.74 520.84 101.70
  C 520.60 91.46 535.72 77.06 543.96 68.85"
/>
<path stroke="#f59124" vector-effect="non-scaling-stroke" d="
  M 188.92 93.58
  Q 187.54 93.15 188.91 92.70
  C 204.86 87.39 226.53 70.68 204.83 53.66
  C 183.15 36.65 151.44 35.92 125.48 39.08
  C 118.07 39.98 100.24 44.85 104.49 55.59
  A 1.65 1.63 -84.3 0 0 105.10 56.34
  C 114.78 62.66 124.11 56.79 132.89 53.42
  Q 139.98 50.70 144.93 50.26
  C 156.40 49.25 174.76 53.02 174.94 67.75
  C 175.15 84.40 159.62 88.25 146.25 88.48
  C 142.39 88.55 131.17 86.87 130.00 92.00
  C 128.80 97.27 136.90 98.51 140.50 98.63
  C 154.94 99.12 181.97 99.73 186.99 117.58
  Q 187.82 120.54 187.86 125.51
  C 187.93 137.50 183.75 145.77 172.31 150.81
  C 158.75 156.79 145.24 161.93 132.21 163.84
  C 125.83 164.78 129.63 171.84 134.75 172.00
  Q 159.76 172.77 183.32 163.81
  C 203.41 156.17 238.93 138.07 218.16 110.47
  C 211.40 101.49 199.08 96.68 188.92 93.58"
/>
<path stroke="#f59124" vector-effect="non-scaling-stroke" d="
  M 270.19 62.69
  C 264.41 69.34 259.24 84.96 272.56 87.24
  C 281.89 88.83 285.84 75.86 289.61 69.49
  C 308.22 38.10 384.23 62.37 343.44 95.44
  Q 315.85 117.81 283.29 146.04
  Q 278.30 150.37 274.44 152.69
  C 271.50 154.45 260.95 162.98 269.03 165.59
  Q 271.07 166.25 273.21 166.25
  C 298.85 166.25 324.76 166.73 350.51 166.44
  C 363.61 166.29 374.81 166.51 385.75 166.25
  C 389.18 166.17 394.23 164.10 394.38 160.04
  C 394.57 154.95 386.49 152.99 382.50 153.05
  Q 354.99 153.48 327.32 152.75
  Q 323.83 152.65 323.80 149.17
  C 323.76 144.95 339.52 132.34 343.18 129.41
  Q 361.01 115.14 378.76 100.78
  C 384.51 96.13 392.72 87.24 391.75 79.25
  C 388.32 51.01 353.58 41.91 330.24 41.49
  C 309.67 41.12 284.52 46.20 270.19 62.69"
/>
</g>
<path fill="#ec3136" d="
  M 0.00 0.00
  L 104.56 0.00
  L 104.71 9.20
  A 0.81 0.77 89.6 0 0 105.48 10.00
  L 551.19 10.00
  A 0.77 0.73 -89.6 0 0 551.92 9.24
  L 552.06 0.00
  L 600.00 0.00
  L 600.00 50.06
  L 589.96 50.23
  A 0.72 0.69 -0.4 0 0 589.25 50.92
  L 589.25 153.01
  A 0.92 0.92 86.9 0 0 590.27 153.93
  Q 595.11 153.38 600.00 154.06
  L 600.00 204.00
  L 551.94 204.00
  L 552.07 197.02
  A 1.01 0.94 -89.7 0 0 551.13 196.00
  L 105.64 196.00
  A 1.06 0.96 -89.1 0 0 104.68 197.03
  L 104.44 204.00
  L 0.00 204.00
  L 0.00 0.00
  Z
  M 20.96 40.44
  L 57.35 55.98
  A 1.44 0.93 81.0 0 1 57.96 56.66
  Q 58.20 57.19 58.69 57.36
  A 0.43 0.38 -81.1 0 0 59.20 56.94
  Q 59.28 53.78 59.26 50.62
  C 59.25 49.73 59.83 47.51 57.93 48.50
  A 1.10 0.94 -44.3 0 1 57.03 48.56
  L 49.08 45.13
  A 1.00 0.96 -78.9 0 1 48.50 44.22
  L 48.50 27.38
  A 0.96 0.86 79.2 0 1 49.01 26.53
  L 57.28 22.91
  A 0.88 0.69 50.6 0 1 58.11 23.09
  Q 59.63 24.37 59.48 21.74
  Q 59.25 17.62 59.25 13.83
  Q 59.25 12.12 58.32 13.55
  Q 57.49 14.83 56.08 15.44
  Q 38.68 22.95 20.71 30.83
  A 0.84 0.84 57.0 0 1 19.77 30.63
  C 17.61 28.29 18.53 39.62 18.55 40.69
  A 0.39 0.34 77.8 0 0 19.04 41.06
  L 20.10 40.55
  A 1.21 0.67 -36.3 0 1 20.96 40.44
  Z
  M 585.50 14.33
  A 0.58 0.58 0.0 0 0 584.92 13.75
  L 71.58 13.75
  A 0.58 0.58 0.0 0 0 71.00 14.33
  L 71.00 191.67
  A 0.58 0.58 0.0 0 0 71.58 192.25
  L 584.92 192.25
  A 0.58 0.58 0.0 0 0 585.50 191.67
  L 585.50 14.33
  Z
  M 46.79 93.01
  C 42.21 96.18 33.03 96.41 28.69 91.31
  Q 19.29 80.28 26.46 67.65
  Q 27.22 66.31 28.77 66.25
  Q 30.64 66.18 29.04 65.22
  Q 26.07 63.46 23.12 61.36
  Q 20.96 59.81 21.60 62.03
  A 1.33 1.18 52.9 0 1 21.53 62.94
  C 16.93 72.26 15.97 81.77 20.50 91.00
  Q 26.79 103.83 41.25 102.73
  C 55.29 101.68 61.24 88.72 59.49 76.00
  Q 58.32 67.56 53.74 59.64
  A 0.57 0.57 61.8 0 0 52.98 59.41
  C 49.52 61.23 41.55 60.32 38.29 59.45
  A 0.38 0.37 7.7 0 0 37.81 59.81
  C 37.77 62.52 38.35 77.04 36.98 78.29
  A 0.66 0.33 -43.4 0 0 36.72 79.01
  C 37.29 79.50 42.74 79.25 43.87 79.25
  Q 45.33 79.25 44.17 78.36
  C 42.65 77.19 43.33 68.69 43.65 66.41
  A 0.78 0.78 4.3 0 1 44.42 65.75
  L 49.05 65.75
  A 1.99 1.99 77.3 0 1 50.85 66.89
  C 54.90 75.33 54.99 87.33 46.79 93.01
  Z
  M 41.80 131.93
  L 41.80 115.56
  A 1.43 1.15 -29.1 0 1 42.15 114.70
  Q 43.62 113.01 41.44 113.17
  C 38.99 113.34 36.52 113.23 34.07 113.30
  Q 33.62 113.31 33.94 113.65
  Q 35.00 114.78 35.00 117.00
  Q 35.00 124.25 35.00 131.99
  A 0.51 0.51 1.3 0 1 34.49 132.50
  L 25.67 132.50
  A 0.67 0.67 -0.0 0 1 25.00 131.83
  Q 25.00 119.62 25.00 108.00
  Q 25.00 106.00 26.10 105.04
  Q 26.45 104.74 26.00 104.65
  Q 22.77 104.05 19.51 104.43
  C 18.76 104.52 16.38 103.43 17.92 105.58
  A 3.16 3.14 27.5 0 1 18.50 107.40
  L 18.50 141.03
  Q 18.50 141.89 19.06 141.23
  C 20.31 139.73 20.97 140.00 22.70 140.00
  Q 38.62 140.00 54.53 140.00
  C 56.10 140.00 57.71 139.58 58.58 141.19
  Q 59.25 142.42 59.25 141.02
  L 59.31 106.31
  A 1.79 0.89 -44.2 0 1 59.62 105.43
  L 60.21 104.51
  Q 60.50 104.06 59.94 104.06
  C 59.72 104.05 49.05 103.12 52.23 105.13
  A 1.15 1.13 16.9 0 1 52.75 106.08
  L 52.75 131.65
  A 0.85 0.84 -89.7 0 1 51.90 132.50
  L 42.32 132.45
  A 0.52 0.52 0.1 0 1 41.80 131.93
  Z
  M 33.23 155.01
  C 36.38 154.81 56.73 153.95 58.46 155.71
  Q 59.25 156.51 59.25 155.39
  Q 59.25 151.63 59.42 148.26
  Q 59.59 144.81 58.04 146.84
  A 1.07 0.98 -70.5 0 1 57.25 147.26
  C 52.67 147.34 20.81 148.16 19.20 146.46
  Q 18.50 145.72 18.50 146.74
  Q 18.50 151.75 18.48 156.75
  Q 18.48 158.09 19.60 156.70
  A 1.04 1.02 32.9 0 1 20.87 156.44
  L 43.95 168.32
  Q 44.65 168.68 43.95 169.03
  L 21.16 180.39
  A 1.19 1.19 -32.8 0 1 19.71 180.08
  C 17.91 177.94 18.50 181.01 18.50 181.81
  Q 18.50 186.03 18.50 190.27
  Q 18.50 191.16 19.11 190.50
  Q 20.08 189.45 21.75 189.46
  C 25.47 189.47 57.53 189.11 58.15 190.05
  Q 59.25 191.73 59.25 189.72
  L 59.25 182.22
  Q 59.25 181.78 58.91 182.06
  Q 57.22 183.42 55.52 183.32
  C 47.85 182.85 39.97 183.28 32.25 183.02
  Q 31.73 183.00 32.19 182.78
  L 58.45 169.93
  Q 59.96 169.19 58.48 168.45
  L 33.09 155.71
  Q 31.85 155.09 33.23 155.01
  Z"
/>
<path fill="#fef111" d="
  M 20.10 40.55
  L 19.04 41.06
  A 0.39 0.34 77.8 0 1 18.55 40.69
  C 18.53 39.62 17.61 28.29 19.77 30.63
  A 0.84 0.84 57.0 0 0 20.71 30.83
  Q 38.68 22.95 56.08 15.44
  Q 57.49 14.83 58.32 13.55
  Q 59.25 12.12 59.25 13.83
  Q 59.25 17.62 59.48 21.74
  Q 59.63 24.37 58.11 23.09
  A 0.88 0.69 50.6 0 0 57.28 22.91
  L 49.01 26.53
  A 0.96 0.86 79.2 0 0 48.50 27.38
  L 48.50 44.22
  A 1.00 0.96 -78.9 0 0 49.08 45.13
  L 57.03 48.56
  A 1.10 0.94 -44.3 0 0 57.93 48.50
  C 59.83 47.51 59.25 49.73 59.26 50.62
  Q 59.28 53.78 59.20 56.94
  A 0.43 0.38 -81.1 0 1 58.69 57.36
  Q 58.20 57.19 57.96 56.66
  A 1.44 0.93 81.0 0 0 57.35 55.98
  L 20.96 40.44
  A 1.21 0.67 -36.3 0 0 20.10 40.55
  Z
  M 41.54 42.16
  A 0.34 0.34 12.0 0 0 42.01 41.84
  L 41.99 30.36
  A 0.34 0.34 -12.8 0 0 41.52 30.05
  L 28.28 35.81
  A 0.34 0.34 46.6 0 0 28.28 36.44
  L 41.54 42.16
  Z"
/>
<path fill="#fef111" d="
  M 585.50 191.67
  A 0.58 0.58 0.0 0 1 584.92 192.25
  L 71.58 192.25
  A 0.58 0.58 0.0 0 1 71.00 191.67
  L 71.00 14.33
  A 0.58 0.58 0.0 0 1 71.58 13.75
  L 584.92 13.75
  A 0.58 0.58 0.0 0 1 585.50 14.33
  L 585.50 191.67
  Z
  M 543.96 68.85
  Q 554.07 58.76 564.63 49.14
  C 569.63 44.59 574.85 36.06 565.93 32.70
  C 560.40 30.61 555.05 34.53 550.95 38.20
  Q 535.52 52.01 521.45 67.20
  C 517.49 71.49 507.59 77.83 501.56 74.44
  C 484.35 64.74 471.17 28.00 449.50 29.50
  C 444.50 29.85 428.94 34.59 432.31 42.94
  Q 434.07 47.30 438.95 52.06
  C 451.97 64.78 465.62 76.04 477.56 89.94
  C 481.63 94.67 480.13 99.14 476.44 103.44
  C 462.63 119.49 446.45 136.24 430.94 155.67
  Q 428.12 159.20 426.68 163.73
  Q 426.00 165.86 427.57 167.45
  Q 429.78 169.69 433.75 169.80
  C 442.93 170.04 449.51 164.06 455.01 157.52
  C 462.68 148.39 471.47 140.57 479.29 131.71
  C 483.76 126.64 488.02 120.09 494.94 123.56
  Q 500.43 126.32 506.60 132.65
  C 513.89 140.13 520.88 148.57 526.69 157.24
  Q 535.50 170.37 552.01 169.15
  C 584.39 166.76 561.06 148.79 552.67 139.38
  Q 547.55 133.63 542.41 127.88
  C 537.52 122.40 528.52 113.65 522.42 105.72
  Q 520.89 103.74 520.84 101.70
  C 520.60 91.46 535.72 77.06 543.96 68.85
  Z
  M 188.92 93.58
  Q 187.54 93.15 188.91 92.70
  C 204.86 87.39 226.53 70.68 204.83 53.66
  C 183.15 36.65 151.44 35.92 125.48 39.08
  C 118.07 39.98 100.24 44.85 104.49 55.59
  A 1.65 1.63 -84.3 0 0 105.10 56.34
  C 114.78 62.66 124.11 56.79 132.89 53.42
  Q 139.98 50.70 144.93 50.26
  C 156.40 49.25 174.76 53.02 174.94 67.75
  C 175.15 84.40 159.62 88.25 146.25 88.48
  C 142.39 88.55 131.17 86.87 130.00 92.00
  C 128.80 97.27 136.90 98.51 140.50 98.63
  C 154.94 99.12 181.97 99.73 186.99 117.58
  Q 187.82 120.54 187.86 125.51
  C 187.93 137.50 183.75 145.77 172.31 150.81
  C 158.75 156.79 145.24 161.93 132.21 163.84
  C 125.83 164.78 129.63 171.84 134.75 172.00
  Q 159.76 172.77 183.32 163.81
  C 203.41 156.17 238.93 138.07 218.16 110.47
  C 211.40 101.49 199.08 96.68 188.92 93.58
  Z
  M 270.19 62.69
  C 264.41 69.34 259.24 84.96 272.56 87.24
  C 281.89 88.83 285.84 75.86 289.61 69.49
  C 308.22 38.10 384.23 62.37 343.44 95.44
  Q 315.85 117.81 283.29 146.04
  Q 278.30 150.37 274.44 152.69
  C 271.50 154.45 260.95 162.98 269.03 165.59
  Q 271.07 166.25 273.21 166.25
  C 298.85 166.25 324.76 166.73 350.51 166.44
  C 363.61 166.29 374.81 166.51 385.75 166.25
  C 389.18 166.17 394.23 164.10 394.38 160.04
  C 394.57 154.95 386.49 152.99 382.50 153.05
  Q 354.99 153.48 327.32 152.75
  Q 323.83 152.65 323.80 149.17
  C 323.76 144.95 339.52 132.34 343.18 129.41
  Q 361.01 115.14 378.76 100.78
  C 384.51 96.13 392.72 87.24 391.75 79.25
  C 388.32 51.01 353.58 41.91 330.24 41.49
  C 309.67 41.12 284.52 46.20 270.19 62.69
  Z"
/>
<path fill="#ec3136" d="
  M 543.96 68.85
  C 535.72 77.06 520.60 91.46 520.84 101.70
  Q 520.89 103.74 522.42 105.72
  C 528.52 113.65 537.52 122.40 542.41 127.88
  Q 547.55 133.63 552.67 139.38
  C 561.06 148.79 584.39 166.76 552.01 169.15
  Q 535.50 170.37 526.69 157.24
  C 520.88 148.57 513.89 140.13 506.60 132.65
  Q 500.43 126.32 494.94 123.56
  C 488.02 120.09 483.76 126.64 479.29 131.71
  C 471.47 140.57 462.68 148.39 455.01 157.52
  C 449.51 164.06 442.93 170.04 433.75 169.80
  Q 429.78 169.69 427.57 167.45
  Q 426.00 165.86 426.68 163.73
  Q 428.12 159.20 430.94 155.67
  C 446.45 136.24 462.63 119.49 476.44 103.44
  C 480.13 99.14 481.63 94.67 477.56 89.94
  C 465.62 76.04 451.97 64.78 438.95 52.06
  Q 434.07 47.30 432.31 42.94
  C 428.94 34.59 444.50 29.85 449.50 29.50
  C 471.17 28.00 484.35 64.74 501.56 74.44
  C 507.59 77.83 517.49 71.49 521.45 67.20
  Q 535.52 52.01 550.95 38.20
  C 555.05 34.53 560.40 30.61 565.93 32.70
  C 574.85 36.06 569.63 44.59 564.63 49.14
  Q 554.07 58.76 543.96 68.85
  Z"
/>
<path fill="#ec3136" d="
  M 41.54 42.16
  L 28.28 36.44
  A 0.34 0.34 38.3 0 1 28.28 35.81
  L 41.52 30.05
  A 0.34 0.34 -16.1 0 1 41.99 30.36
  L 42.01 41.84
  A 0.34 0.34 11.5 0 1 41.54 42.16
  Z"
/>
<path fill="#ec3136" d="
  M 188.92 93.58
  C 199.08 96.68 211.40 101.49 218.16 110.47
  C 238.93 138.07 203.41 156.17 183.32 163.81
  Q 159.76 172.77 134.75 172.00
  C 129.63 171.84 125.83 164.78 132.21 163.84
  C 145.24 161.93 158.75 156.79 172.31 150.81
  C 183.75 145.77 187.93 137.50 187.86 125.51
  Q 187.82 120.54 186.99 117.58
  C 181.97 99.73 154.94 99.12 140.50 98.63
  C 136.90 98.51 128.80 97.27 130.00 92.00
  C 131.17 86.87 142.39 88.55 146.25 88.48
  C 159.62 88.25 175.15 84.40 174.94 67.75
  C 174.76 53.02 156.40 49.25 144.93 50.26
  Q 139.98 50.70 132.89 53.42
  C 124.11 56.79 114.78 62.66 105.10 56.34
  A 1.65 1.63 -84.3 0 1 104.49 55.59
  C 100.24 44.85 118.07 39.98 125.48 39.08
  C 151.44 35.92 183.15 36.65 204.83 53.66
  C 226.53 70.68 204.86 87.39 188.91 92.70
  Q 187.54 93.15 188.92 93.58
  Z"
/>
<path fill="#ec3136" d="
  M 270.19 62.69
  C 284.52 46.20 309.67 41.12 330.24 41.49
  C 353.58 41.91 388.32 51.01 391.75 79.25
  C 392.72 87.24 384.51 96.13 378.76 100.78
  Q 361.01 115.14 343.18 129.41
  C 339.52 132.34 323.76 144.95 323.80 149.17
  Q 323.83 152.65 327.32 152.75
  Q 354.99 153.48 382.50 153.05
  C 386.49 152.99 394.57 154.95 394.38 160.04
  C 394.23 164.10 389.18 166.17 385.75 166.25
  C 374.81 166.51 363.61 166.29 350.51 166.44
  C 324.76 166.73 298.85 166.25 273.21 166.25
  Q 271.07 166.25 269.03 165.59
  C 260.95 162.98 271.50 154.45 274.44 152.69
  Q 278.30 150.37 283.29 146.04
  Q 315.85 117.81 343.44 95.44
  C 384.23 62.37 308.22 38.10 289.61 69.49
  C 285.84 75.86 281.89 88.83 272.56 87.24
  C 259.24 84.96 264.41 69.34 270.19 62.69
  Z"
/>
<path fill="#fef111" d="
  M 28.69 91.31
  C 33.03 96.41 42.21 96.18 46.79 93.01
  C 54.99 87.33 54.90 75.33 50.85 66.89
  A 1.99 1.99 77.3 0 0 49.05 65.75
  L 44.42 65.75
  A 0.78 0.78 4.3 0 0 43.65 66.41
  C 43.33 68.69 42.65 77.19 44.17 78.36
  Q 45.33 79.25 43.87 79.25
  C 42.74 79.25 37.29 79.50 36.72 79.01
  A 0.66 0.33 -43.4 0 1 36.98 78.29
  C 38.35 77.04 37.77 62.52 37.81 59.81
  A 0.38 0.37 7.7 0 1 38.29 59.45
  C 41.55 60.32 49.52 61.23 52.98 59.41
  A 0.57 0.57 61.8 0 1 53.74 59.64
  Q 58.32 67.56 59.49 76.00
  C 61.24 88.72 55.29 101.68 41.25 102.73
  Q 26.79 103.83 20.50 91.00
  C 15.97 81.77 16.93 72.26 21.53 62.94
  A 1.33 1.18 52.9 0 0 21.60 62.03
  Q 20.96 59.81 23.12 61.36
  Q 26.07 63.46 29.04 65.22
  Q 30.64 66.18 28.77 66.25
  Q 27.22 66.31 26.46 67.65
  Q 19.29 80.28 28.69 91.31
  Z"
/>
<path fill="#fef111" d="
  M 42.32 132.45
  L 51.90 132.50
  A 0.85 0.84 -89.7 0 0 52.75 131.65
  L 52.75 106.08
  A 1.15 1.13 16.9 0 0 52.23 105.13
  C 49.05 103.12 59.72 104.05 59.94 104.06
  Q 60.50 104.06 60.21 104.51
  L 59.62 105.43
  A 1.79 0.89 -44.2 0 0 59.31 106.31
  L 59.25 141.02
  Q 59.25 142.42 58.58 141.19
  C 57.71 139.58 56.10 140.00 54.53 140.00
  Q 38.62 140.00 22.70 140.00
  C 20.97 140.00 20.31 139.73 19.06 141.23
  Q 18.50 141.89 18.50 141.03
  L 18.50 107.40
  A 3.16 3.14 27.5 0 0 17.92 105.58
  C 16.38 103.43 18.76 104.52 19.51 104.43
  Q 22.77 104.05 26.00 104.65
  Q 26.45 104.74 26.10 105.04
  Q 25.00 106.00 25.00 108.00
  Q 25.00 119.62 25.00 131.83
  A 0.67 0.67 0.0 0 0 25.67 132.50
  L 34.49 132.50
  A 0.51 0.51 0.4 0 0 35.00 131.99
  Q 35.00 124.25 35.00 117.00
  Q 35.00 114.78 33.94 113.65
  Q 33.62 113.31 34.07 113.30
  C 36.52 113.23 38.99 113.34 41.44 113.17
  Q 43.62 113.01 42.15 114.70
  A 1.43 1.15 -29.1 0 0 41.80 115.56
  L 41.80 131.93
  A 0.52 0.52 0.0 0 0 42.32 132.45
  Z"
/>
<path fill="#fef111" d="
  M 33.23 155.01
  Q 31.85 155.09 33.09 155.71
  L 58.48 168.45
  Q 59.96 169.19 58.45 169.93
  L 32.19 182.78
  Q 31.73 183.00 32.25 183.02
  C 39.97 183.28 47.85 182.85 55.52 183.32
  Q 57.22 183.42 58.91 182.06
  Q 59.25 181.78 59.25 182.22
  L 59.25 189.72
  Q 59.25 191.73 58.15 190.05
  C 57.53 189.11 25.47 189.47 21.75 189.46
  Q 20.08 189.45 19.11 190.50
  Q 18.50 191.16 18.50 190.27
  Q 18.50 186.03 18.50 181.81
  C 18.50 181.01 17.91 177.94 19.71 180.08
  A 1.19 1.19 -32.8 0 0 21.16 180.39
  L 43.95 169.03
  Q 44.65 168.68 43.95 168.32
  L 20.87 156.44
  A 1.04 1.02 32.9 0 0 19.60 156.70
  Q 18.48 158.09 18.48 156.75
  Q 18.50 151.75 18.50 146.74
  Q 18.50 145.72 19.20 146.46
  C 20.81 148.16 52.67 147.34 57.25 147.26
  A 1.07 0.98 -70.5 0 0 58.04 146.84
  Q 59.59 144.81 59.42 148.26
  Q 59.25 151.63 59.25 155.39
  Q 59.25 156.51 58.46 155.71
  C 56.73 153.95 36.38 154.81 33.23 155.01
  Z"
/>
</svg>
